<?xml version="1.0" encoding="UTF-8" standalone="no"?>
<!-- Created with Inkscape (http://www.inkscape.org/) -->

<svg
   width="268.39182mm"
   height="222.42784mm"
   viewBox="0 0 268.39175 222.42768"
   version="1.1"
   id="svg5"
   xml:space="preserve"
   xmlns="http://www.w3.org/2000/svg"
   xmlns:svg="http://www.w3.org/2000/svg"><defs
     id="defs2" /><g
     id="layer1"
     transform="translate(27.889036,59.73742)"><path
       style="fill:#000000;stroke-width:0.264583"
       d="m 185.208,162.55328 c -4.32401,-0.46306 -9.81871,-2.08903 -13.22916,-3.91472 -3.84988,-2.06091 -7.85736,-5.36769 -10.50385,-8.66725 -0.67126,-0.83692 -1.3021,-1.52167 -1.40185,-1.52167 -0.0998,0 -0.32959,0.50602 -0.51075,1.12448 -0.75607,2.58127 -2.65493,4.7862 -4.40446,5.11441 -1.98922,0.37319 -4.21553,-0.91844 -5.57164,-3.23247 -0.78991,-1.34789 -0.3667,-1.29629 -6.23387,-0.75997 -7.83131,0.71587 -13.42853,0.95336 -26.14233,1.10922 -18.408919,0.22568 -29.654569,-0.32121 -49.505269,-2.40749 -1.14503,-0.12034 -1.42989,0.0337 -1.67206,0.90391 -0.46097,1.65654 -1.62786,3.54741 -2.6477,4.29044 -0.96955,0.70638 -1.23656,0.77402 -2.69881,0.68357 -2.19649,-0.13586 -3.42376,-0.96468 -4.54589,-3.07001 -0.46885,-0.87965 -0.9868,-2.26838 -1.15102,-3.08607 -0.3278,-1.63222 -0.54661,-1.82895 -2.33758,-2.10171 -3.3525,-0.51058 -14.67226,-3.59714 -19.0182,-5.18571 -1.21943,-0.44574 -2.27449,-0.7531 -2.34457,-0.68302 -0.0701,0.0701 -0.50893,1.00504 -0.97523,2.07769 -1.19078,2.73922 -2.50872,4.80209 -4.39475,6.8788 -1.46746,1.61583 -4.45568,4.16477 -4.88252,4.16477 -0.0935,0 -0.54905,0.27739 -1.01228,0.61643 -0.46323,0.33904 -1.73521,0.9939 -2.82662,1.45525 -8.6404505,3.65239 -21.1848105,2.96811 -29.63333,-1.61646 -8.93412,-4.84808 -14.15372,-14.00647 -14.96174,-26.2521 -0.26805,-4.06236 0.57256,-9.85732 1.66954,-11.50937 0.24157,-0.3638 0.46462,-0.82065 0.49567,-1.0152 0.17125,-1.07287 3.40246,-4.53251 5.85543,-6.26937 1.21187,-0.85808 1.3189,-1.16215 0.72703,-2.06545 -1.28851,-1.96653 -2.4116,-7.758833 -1.99759,-10.302583 0.13622,-0.83695 0.32494,-1.64676 0.41939,-1.79959 0.0944,-0.15282 -0.55227,-0.93303 -1.43715,-1.7338 -2.96301,-2.68138 -4.73158,-5.96626 -5.75044,-10.680676 -0.36872,-1.706097 -0.48285,-3.334684 -0.47284,-6.746875 0.0133,-4.520488 0.2066,-6.381538 1.19549,-11.507869 0.67069,-3.476792 1.20425,-4.402926 2.76271,-4.79535 0.94252,-0.237329 1.28106,-0.497351 1.80602,-1.387139 1.68474,-2.855553 6.30191,-6.894677 10.31518,-9.023757 2.7296895,-1.448131 8.9380695,-3.738221 11.41183953,-4.2095 0.43657,-0.08317 1.74624997,-0.39125 2.91041997,-0.684622 3.82376,-0.963602 10.8925205,-1.853346 20.0557705,-2.524419 2.93933,-0.215262 5.54795,-0.392306 5.79694,-0.393427 0.61304,-0.0028 1.17409,-0.63958 3.96458,-4.499957 1.31489,-1.81901 2.52577,-3.428336 2.69087,-3.576277 0.16509,-0.147942 0.47877,-0.59032 0.69705,-0.983068 0.21828,-0.392744 1.94468,-2.810515 3.83645,-5.372824 1.89178,-2.562312 3.79678,-5.1763 4.23334,-5.808869 0.43656,-0.632566 2.79347,-3.868282 5.23758,-7.190478 5.75986,-7.8291872 5.4235,-7.3737332 6.80096,-9.2092162 0.65484,-0.872593 1.48828,-2.020247 1.85208,-2.550345 0.3638,-0.530098 0.93146,-1.305605 1.26147,-1.72334796 0.33,-0.417743 1.74103,-2.36687504 3.13562,-4.33140624 1.3946,-1.9645311 3.11889,-4.3603437 3.83177,-5.3240276 0.71288,-0.9636865 1.29614,-1.842045 1.29614,-1.951908 0,-0.109863 -0.3827,-0.977127 -0.85045,-1.927254 -0.76746,-1.558956 -0.84805,-1.949341 -0.82594,-4.001219 0.0152,-1.413113 0.2378,-3.069064 0.58803,-4.375031 0.60398,-2.252157 2.1143,-5.549926 2.95508,-6.452399 0.28299,-0.303757 0.51453,-0.657378 0.51453,-0.785825 0,-0.364392 2.10182,-2.418406 3.15502,-3.083264 1.26551,-0.79888 3.65428,-1.47057 5.8992,-1.658776 l 1.8331,-0.15368 2.69228,-3.538278 c 1.48075,-1.946053 3.13492,-4.160462 3.67592,-4.920912 0.541,-0.760446 1.50047,-1.977945 2.13215,-2.705549 0.63168,-0.727604 1.67459,-2.037292 2.31757,-2.910417 3.87577,-5.263033 8.07247,-9.773808 10.257889,-11.025565 2.62786,-1.505183 5.17722,-1.877179 7.70999,-1.125027 0.77251,0.229412 1.69893,0.343236 2.0587,0.252942 1.47511,-0.370232 4.75856,-0.172212 6.41889,0.387112 1.48608,0.500626 4.02254,1.911577 4.92132,2.737575 1.60011,1.470538 3.5488,3.495764 3.5488,3.68818 0,0.130455 0.5437,0.792117 1.20822,1.470363 1.46579,1.496066 1.70435,1.774212 2.51942,2.937399 0.35089,0.500764 0.96541,1.262563 1.36559,1.692889 0.40018,0.430324 0.72761,0.883467 0.72761,1.006986 0,0.12352 0.39888,0.671406 0.88641,1.21753 0.88013,0.985925 2.81775,3.656962 2.81775,3.884324 0,0.06527 0.354,0.506248 0.78666,0.979948 0.43265,0.473702 0.74598,0.901946 0.69627,0.951658 -0.0497,0.04971 0.25068,0.455496 0.66754,0.901745 0.41686,0.446252 0.69183,0.918324 0.61103,1.049049 -0.0808,0.130726 -0.0305,0.237683 0.11172,0.237683 0.26047,0 1.48798,1.805186 1.49086,2.192462 7.9e-4,0.114451 0.13884,0.293045 0.30664,0.396875 0.16781,0.103833 0.82825,1.074653 1.46766,2.157373 0.78452,1.328457 1.45963,2.131139 2.07615,2.46848 1.60436,0.877861 2.32716,1.84295 3.66432,4.892627 1.55164,3.53886 4.34826,8.173244 5.07045,8.40246 0.28226,0.08958 0.5132,0.280948 0.5132,0.425249 0,0.144304 0.11582,0.190788 0.25738,0.103304 0.52684,-0.325607 3.33767,1.310166 4.7697,2.775746 1.45008,1.484043 2.68255,2.9914981 2.88434,3.5278826 0.0584,0.1552813 0.20931,0.4068286 0.33532,0.5589984 0.48458,0.5852107 1.5567,2.1839131 2.31473,3.4516667 0.43506,0.7276041 1.03514,1.6014355 1.3335,1.9418484 0.29837,0.3404127 0.48318,0.7148887 0.41069,0.8321697 -0.0725,0.117282 0.0257,0.273664 0.21812,0.347515 0.19245,0.07385 0.87638,0.99280404 1.51984,2.04212004 0.64345,1.04931896 1.28926,2.10269896 1.43512,2.34084796 0.14586,0.238149 0.77093,1.170607 1.38906,2.072127 0.61813,0.90152 1.12387,1.824254 1.12387,2.05052 0,0.226267 0.10553,0.411393 0.23452,0.411393 0.26675,0 4.66027,6.6073202 4.66027,7.0084792 0,0.143883 0.35551,0.648972 0.79003,1.122426 0.43452,0.47345 1.02983,1.261382 1.32292,1.750959 0.29308,0.489577 1.06866,1.71359 1.72351,2.720028 0.65484,1.006438 1.30968,2.023377 1.4552,2.259864 0.14553,0.236487 0.65154,0.983901 1.12448,1.660917 0.47295,0.677015 0.8599,1.34403 0.8599,1.482256 0,0.138227 0.09,0.25132 0.2,0.25132 0.10999,0 0.36602,0.375092 0.56895,0.833538 0.20293,0.458449 0.57056,1.035137 0.81695,1.281533 0.48689,0.486886 3.1766,4.422537 3.1766,4.648076 0,0.07609 0.12278,0.282157 0.27285,0.457917 0.72964,0.854546 3.95969,5.916953 3.96006,6.20654 2.3e-4,0.181901 0.10516,0.330729 0.23318,0.330729 0.12802,0 0.68723,0.713375 1.24269,1.58528 1.10401,1.732944 1.01801,1.694685 4.47768,1.991913 1.01864,0.08751 2.56646,0.263869 3.43958,0.391898 0.87313,0.128029 2.54,0.370835 3.70417,0.539567 4.44351,0.64403 11.07825,2.358665 15.22733,3.935241 2.94209,1.117943 6.33621,2.708886 6.33621,2.970003 0,0.12527 0.14883,0.22778 0.33073,0.227798 0.49201,5.6e-5 4.16066,2.422464 5.22552,3.450415 0.50932,0.49167 1.03948,0.898721 1.17814,0.904561 0.66603,0.02805 4.80729,5.670213 5.00964,6.825318 0.0703,0.401108 0.30427,0.90578 0.51999,1.121492 0.53194,0.531939 1.23044,3.726518 1.22658,5.609785 -0.004,2.130423 -1.25556,6.43006 -1.87116,6.43006 -0.10176,0 -0.25247,0.268846 -0.33494,0.597437 -0.19259,0.767377 -3.7831,4.487296 -5.93261,6.146451 -1.03537,0.799174 -1.71708,1.538218 -1.81247,1.964899 -0.65465,2.928223 -1.09253,4.307106 -2.92686,9.216736 -0.66602,1.78263 -1.32436,3.24114 -1.46297,3.24114 -0.13861,0 -0.19866,0.14883 -0.13344,0.33073 0.0652,0.1819 -0.008,0.56886 -0.16366,0.8599 -0.15524,0.29104 -0.30804,0.68368 -0.33956,0.87253 -0.0315,0.18885 -0.41096,1.08182 -0.8432,1.984373 -0.43223,0.90256 -1.23188,2.59351 -1.77699,3.75768 -1.32938,2.8391 -4.08523,7.64098 -6.14058,10.69955 -1.30447,1.94119 -1.59579,2.54363 -1.30792,2.70473 0.87942,0.49214 9.24735,-1.12531 15.27717,-2.95295 3.10732,-0.94183 4.63013,-0.40299 5.31427,1.88044 0.23741,0.7924 0.20216,1.25799 -0.18937,2.50279 -0.26455,0.84111 -0.69633,1.71365 -0.9595,1.93898 -0.26316,0.22533 -0.47848,0.55249 -0.47848,0.72702 0,0.17453 -0.54125,1.35206 -1.20277,2.61673 -0.66153,1.26467 -1.16006,2.42755 -1.10785,2.58417 0.0522,0.15663 0.68275,0.41769 1.40121,0.58014 1.63918,0.37064 2.17579,0.67143 2.63727,1.47834 1.5217,2.66058 1.4555,2.77151 -6.85064,11.47922 -2.49398,2.61456 -5.42213,5.71019 -6.50701,6.87917 -1.08487,1.16898 -3.70425,3.85721 -5.82083,5.97385 -3.04629,3.04637 -4.0753,3.91486 -4.93737,4.16719 -2.08975,0.61166 -4.09845,0.43221 -13.24591,-1.18335 -0.80981,-0.14302 -0.85175,-0.10544 -1.12426,1.0075 -0.15568,0.63583 -0.55105,1.69184 -0.87859,2.34669 -0.68458,1.36864 -2.0708,2.20031 -4.40196,2.641 -1.35112,0.25541 -5.16317,0.30088 -7.17379,0.0855 z m 6.40313,-3.55121 c 0.77114,-0.16252 1.54998,-0.41445 1.73074,-0.55985 0.44243,-0.35586 1.20618,-3.00281 2.15971,-7.48492 0.4341,-2.04053 0.85872,-3.89101 0.94359,-4.11218 0.41155,-1.07248 2.35956,-11.7689 2.68134,-14.72304 0.19659,-1.80492 -0.26523,-2.98702 -1.16697,-2.98702 -0.25599,0 -2.7238,0.52398 -5.48401,1.16439 -13.08757,3.03654 -19.69883,3.68118 -27.24357,2.65643 -4.58396,-0.6226 -7.47031,-0.76896 -7.91335,-0.40127 -1.23295,1.02325 1.90389,8.6762 5.5024,13.42422 3.62998,4.78955 6.8924,7.61165 11.40678,9.86723 5.30092,2.64857 13.0852,4.06184 17.38334,3.15601 z M 9.3923905,154.93133 c 4.7700305,-0.71096 7.5599405,-1.78283 10.7400805,-4.12629 4.44046,-3.27219 7.23414,-7.74003 8.87028,-14.18593 1.31693,-5.18835 1.17783,-13.0879 -0.31361,-17.80914 -1.17404,-3.71648 -3.72716,-6.69942 -7.12592,-8.32557 -3.11463,-1.4902 -3.84713,-1.59543 -5.76658,-0.82846 -0.90296,0.36081 -2.47519,0.84986 -3.49384,1.08678 -3.5012105,0.81432 -3.4456705,0.7921 -3.3551405,1.34251 0.16087,0.978 0.76979,1.14533 4.1127305,1.13014 3.7031,-0.0168 5.59858,0.4519 8.23825,2.03722 2.16516,1.30035 2.93719,2.09382 3.85894,3.96618 0.6918,1.40524 0.8391,2.14002 1.22044,6.08794 0.52446,5.42956 0.32425,7.57771 -1.10891,11.89814 -1.51235,4.55914 -3.28086,7.98421 -5.08061,9.83958 -2.85666,2.94494 -5.02686,4.21724 -8.91796,5.22823 -2.2502405,0.58466 -3.1508405,0.67463 -6.7357705,0.6729 -4.69604997,-0.002 -6.72814,-0.26597 -9.55071,-1.23937 -2.05554,-0.70889 -5.6261495,-2.68336 -5.4291095,-3.00218 0.14002,-0.22655 -0.62793,-0.90636 -1.29053,-1.14242 -0.30558,-0.10887 -0.4314,-0.32869 -0.33376,-0.58313 0.0948,-0.24703 0.0468,-0.34044 -0.12152,-0.23643 -0.30567,0.18891 -1.30321,-0.59535 -1.30321,-1.02458 0,-0.14791 -0.53578,-0.7823 -1.19063,-1.40975 -0.65484,-0.62745 -1.19062,-1.32142 -1.19062,-1.54215 0,-0.45847 0.41433,-0.5366 0.66811,-0.12598 0.0936,0.15144 0.38147,0.20829 0.63972,0.12632 0.2595,-0.0824 0.61911,0.0312 0.80388,0.25382 0.18388,0.22157 0.44798,0.40285 0.58687,0.40285 0.42351,0 1.84507,1.56404 1.67365,1.8414 -0.0883,0.14286 0.14199,0.33568 0.51174,0.42848 0.36975,0.0928 0.67228,0.27489 0.67228,0.40464 0,0.12974 0.0916,0.20613 0.20355,0.16975 0.11195,-0.0364 0.4608695,0.17313 0.7753795,0.46557 0.3145,0.29245 1.38377,0.94429 2.37614,1.44854 1.87541,0.95294 2.53139,1.52946 2.25922,1.98558 -0.0878,0.14712 0.0124,0.12849 0.2227,-0.0414 0.21028,-0.16989 0.73915,-0.2606 1.17527,-0.20157 3.82285003,0.51741 6.33441,0.65846 9.3919,0.52747 5.1783905,-0.22187 7.0289705,-0.48662 6.7342705,-0.96345 -0.0822,-0.13306 0.18462,-0.38495 0.593,-0.55976 0.40839,-0.17481 1.29426,-0.71109 1.9686,-1.19175 0.67434,-0.48065 1.33031,-0.87392 1.45771,-0.87392 0.1274,0 0.38035,-0.23812 0.56211,-0.52916 0.18175,-0.29104 0.50805,-0.52917 0.7251,-0.52917 0.21705,0 0.39463,-0.13288 0.39463,-0.29528 0,-0.16241 0.40454,-0.84702 0.89898,-1.52135 0.49444,-0.67434 1.21988,-1.94045 1.6121,-2.81358 0.39222,-0.87312 0.94018,-2.07679 1.21769,-2.67481 0.27751,-0.59802 0.50691,-1.25287 0.50978,-1.45521 0.003,-0.20234 0.33907,-1.32039 0.74711,-2.48456 0.81551,-2.32673 0.80129,-1.27977 0.14829,-10.91406 -0.1011,-1.49159 -0.28556,-2.71198 -0.40992,-2.71198 -0.12436,0 -0.22611,-0.17899 -0.22611,-0.39776 0,-0.82075 -3.97476,-4.35164 -4.90802,-4.35993 -0.29832,-0.003 -0.67513,-0.13754 -0.83736,-0.29977 -0.1826,-0.1826 -1.79012,-0.32499 -4.2201,-0.3738 -4.1673105,-0.0837 -5.7902505,-0.4286 -6.2909905,-1.33691 -0.154,-0.27933 -0.33952,-0.5674 -0.41228,-0.64016 -0.0728,-0.0728 -0.31904,-0.48948 -0.54729,-0.92605 -0.2953,-0.56481 -0.56239,-0.75979 -0.92604,-0.67602 -0.28108,0.0648 -2.7666,0.13414 -5.52337997,0.1542 -2.76484003,0.0201 -5.05068003,0.14528 -5.09785003,0.27915 -0.29891,0.84833 -1.36078,2.39187 -1.80167,2.6189 -0.28796,0.14828 -0.85628,0.60774 -1.26293,1.021 -0.43283,0.43987 -0.90319,0.68854 -1.1345,0.59978 -0.2339895,-0.0898 -0.4616995,0.0354 -0.5583695,0.30693 -0.20134,0.56553 -1.41522,1.62675 -1.87555,1.63967 -0.18646,0.005 -0.40306,0.17638 -0.48132,0.38032 -0.12042,0.31381 -1.00387,0.73487 -1.25513,0.5982 -0.0434,-0.0236 -0.29658,0.17464 -0.56254,0.44061 -0.26596,0.26595 -0.69956,0.42708 -0.96356,0.35804 -0.46414,-0.12138 -1.15972,0.39431 -0.89241,0.66161 0.0724,0.0724 -0.10724,0.34778 -0.39917,0.61198 -0.29194,0.2642 -0.53079,0.64752 -0.53079,0.85184 0,0.20431 -0.10846,0.30445 -0.24103,0.22252 -0.3016,-0.1864 -0.49108,2.87723 -0.22255,3.59826 0.29461,0.79103 0.44022,7.92354 0.17595,8.61863 -0.24035,0.63217 -0.44345,0.7182 -0.94047,0.39835 -0.57933,-0.37281 -1.47589,-5.59383 -1.47478,-8.5882 0.001,-2.84837 0.42685,-5.49681 0.88373,-5.49681 0.13461,0 0.3616,-0.30733 0.50441,-0.68296 0.14281,-0.37563 0.40406,-0.63484 0.58055,-0.57601 0.17649,0.0588 0.56271,-0.24691 0.85827,-0.67944 0.29556,-0.43252 1.57781,-1.41859 2.84944,-2.19125 4.32623,-2.62869 6.0619295,-4.22096 5.6815995,-5.21208 -0.0892,-0.2325 -0.70945,-0.45196 -1.5872895,-0.56164 -0.79248,-0.099 -2.0698,-0.34594 -2.83851,-0.54872 -1.21697,-0.32103 -1.48661,-0.31768 -2.08588,0.0259 -2.00659,1.15036 -4.85176,3.57601 -5.88958,5.02115 -0.45619,0.63524 -0.90551,1.10796 -0.9985,1.05049 -0.093,-0.0575 -0.18038,0.0951 -0.19423,0.33912 -0.0138,0.24397 -0.26972,1.10311 -0.56859,1.90919 -2.11633,5.70785 -0.90657,16.78912 2.51167,23.00663 2.8743,5.22813 6.75541,8.74195 12.0859895,10.94222 2.10669,0.86957 5.88261,1.81615 8.37230002632,2.09884 C 2.2677705,155.39653 6.9686605,155.29261 9.3923905,154.93136 Z M 210.92647,154.1924 c 0.79596,-0.35472 2.67417,-2.12193 5.9985,-5.64399 5.26398,-5.57706 6.73005,-7.10448 11.21066,-11.67969 3.03862,-3.10278 4.70325,-4.99417 4.64799,-5.28115 -0.0507,-0.26327 -0.46619,-0.53359 -1.01055,-0.65748 -0.50845,-0.11571 -5.15116,-0.13554 -10.31715,-0.044 -6.73183,0.11922 -10.51703,0.0695 -13.36146,-0.17565 -2.18281,-0.1881 -4.26626,-0.3516 -4.62988,-0.36335 -0.64858,-0.021 -0.66948,0.0415 -1.10033,3.28594 -0.24156,1.81901 -0.79686,5.0337 -1.23402,7.14375 -0.43715,2.11005 -0.93266,4.66989 -1.10113,5.68854 -0.16847,1.01864 -0.51881,2.76591 -0.77854,3.8828 -0.25972,1.1169 -0.40015,2.13908 -0.31208,2.27152 0.23069,0.34688 2.13206,0.84213 5.31952,1.38559 3.28772,0.56055 5.68004,0.62771 6.66847,0.18722 z M 62.050121,150.67042 c 0.30355,-0.45207 0.77203,-1.78575 1.04108,-2.96374 0.26905,-1.17799 0.62454,-2.19375 0.78997,-2.25723 0.16544,-0.0635 1.24861,-0.0154 2.40705,0.10679 1.15844,0.12222 4.18984,0.40656 6.73645,0.63185 2.54662,0.22529 5.04693,0.4707 5.55625,0.54536 1.95535,0.28662 12.63822,0.9351 20.10834,1.22063 14.140579,0.5405 35.208479,-0.0414 49.212489,-1.35923 3.88876,-0.36595 3.64039,-0.4197 3.98603,0.86261 0.48997,1.81779 1.14675,2.9523 1.9269,3.32848 0.62785,0.30274 0.82231,0.29134 1.39143,-0.0816 0.36387,-0.23842 0.70327,-0.57538 0.75422,-0.7488 0.051,-0.17342 0.36441,-1.29758 0.69658,-2.49812 0.33218,-1.20055 0.70081,-2.18282 0.81919,-2.18282 0.37909,0 0.23935,-0.43506 -0.94911,-2.95507 -3.36669,-7.13876 -3.95598,-12.07104 -1.62469,-13.59856 0.51387,-0.33671 1.00585,-0.3861 2.37987,-0.23896 1.11421,0.11932 1.73208,0.09 1.73208,-0.0823 0,-0.58815 3.32837,-1.91594 10.45105,-4.16925 12.11684,-3.83325 17.81166,-5.81865 23.54791,-8.20957 1.16417,-0.48524 2.60519,-1.00717 3.20227,-1.15985 l 1.08561,-0.27759 0.15762,-3.77058 c 0.17415,-4.16596 0.47126,-5.43927 1.53481,-6.57781 0.80565,-0.86245 1.91814,-1.00421 3.09481,-0.39435 0.6631,0.34367 2.81432,2.48868 4.68321,4.6697 0.43657,0.50948 1.47445,1.71109 2.30641,2.67026 0.83195,0.95917 1.47765,1.78964 1.43487,1.84549 -0.0428,0.0558 0.36826,0.49364 0.91342,0.97287 l 0.99122,0.87134 0.67225,-0.72499 c 0.36974,-0.39875 0.81049,-1.05874 0.97945,-1.46665 0.16896,-0.40791 0.41183,-0.74165 0.53969,-0.74165 0.12787,0 0.23248,-0.13694 0.23248,-0.3043 0,-0.16737 0.57911,-1.20917 1.28691,-2.31511 1.34895,-2.10776 4.17696,-7.58784 5.54346,-10.742053 2.64092,-6.09586 5.14725,-12.866761 4.86665,-13.147359 -0.1172,-0.117205 -1.56204,0.329115 -3.21074,0.991825 -6.56197,2.637634 -16.00855,5.148884 -28.85919,7.671814 -1.23693,0.24284 -2.72521,0.53813 -3.30729,0.65621 -0.58209,0.11807 -1.77271,0.29667 -2.64584,0.39689 -0.87312,0.10023 -1.65216,0.22031 -1.73119,0.26685 -0.74242,0.43721 -13.68111,2.05213 -22.0813,2.75604 -7.83787,0.65679 -13.18981,0.93434 -25.4,1.31722 -14.88738,0.46683 -14.05348,0.35525 -14.82628,1.983813 -0.59965,1.26366 -2.12264,2.69977 -3.64989,3.44169 -3.31687,1.61128 -6.987,-0.0747 -8.75051,-4.01989 -0.28991,-0.64857 -0.6816,-1.123063 -0.92548,-1.121123 -3.28055,0.026 -15.026279,-0.34986 -16.827009,-0.53849 -4.48615,-0.46994 -5.52267,-0.37541 -6.9447,0.63334 -0.69156,0.490583 -1.71025,0.973423 -2.26376,1.072983 -1.43345,0.25785 -3.61385,-0.43205 -4.49658,-1.422753 -0.85232,-0.95659 -1.04531,-1.00147 -5.08037,-1.18159 -6.69375,-0.2988 -16.09446,-1.14409 -21.29896,-1.91516 -1.52797,-0.22638 -3.37344,-0.46751 -4.10104,-0.53584 -5.11922,-0.48082 -20.39217,-3.35267 -25.20381,-4.73921 -0.76522,-0.22051 -1.49799,-0.33499 -1.62839,-0.2544 -0.1304,0.0806 -0.61953,0.83114 -1.08697,1.66788 -0.46743,0.83673 -1.03347,1.73019 -1.25787,1.98545 -0.35123,0.39954 -0.36189,0.65724 -0.0767,1.85209 0.43736,1.83213 0.2466,4.883343 -0.45897,7.341093 -0.31332,1.09141 -0.57135,2.10344 -0.5734,2.24896 -0.002,0.14552 0.55916,0.50271 1.24713,0.79375 5.90631,2.49865 9.06477,5.71869 10.89997,11.1125 1.29883,3.81734 1.7213,11.28372 0.9227,16.30689 -0.56708,3.56687 -0.5428,3.65225 1.20897,4.25164 4.3354,1.48341 11.45853,3.3796 17.19791,4.57812 1.81901,0.37986 4.09375,0.871 5.05497,1.09143 l 1.74768,0.40079 0.16828,2.37089 c 0.16563,2.33326 0.52971,3.4662 1.39054,4.32704 0.65272,0.65271 1.72056,0.40534 2.35981,-0.54665 z M 177.2705,129.78839 c 3.29942,-0.24893 9.27385,-1.39749 13.62604,-2.61956 0.72761,-0.2043 1.70165,-0.44845 2.16453,-0.54254 0.46289,-0.0941 0.96313,-0.31749 1.11164,-0.49643 0.23665,-0.28514 2.14779,-6.84943 2.14779,-7.37711 0,-0.38361 -0.69957,-0.19494 -3.60003,0.97093 -4.51821,1.81613 -8.41222,3.2142 -13.39307,4.8085 -2.51374,0.80462 -5.34434,1.74633 -6.29023,2.09269 -0.94589,0.34635 -2.78507,0.93345 -4.08708,1.30465 -2.87199,0.8188 -3.19858,1.07581 -1.83355,1.44289 1.10705,0.29772 6.50866,0.78075 7.37584,0.65958 0.29104,-0.0407 1.5412,-0.15029 2.77812,-0.2436 z m 44.97917,-2.48603 c 0,-0.13487 -0.32742,-0.41628 -0.72761,-0.62537 -1.84469,-0.96382 -3.97244,-2.29594 -4.59435,-2.87639 -0.20866,-0.19474 -1.26947,-1.12307 -2.35736,-2.06293 -2.98476,-2.57866 -5.44451,-5.17131 -9.29814,-9.80052 -3.2156,-3.86276 -3.87455,-4.5601 -4.14888,-4.39056 -0.12205,0.0754 -0.29963,1.75769 -0.39462,3.73834 -0.18074,3.76857 -0.76515,7.17994 -1.90221,11.1037 -0.39826,1.3743 -0.57852,2.42974 -0.43885,2.56941 0.13038,0.13038 0.61576,0.28498 1.07863,0.34356 0.46287,0.0586 1.20841,0.36772 1.65676,0.68697 0.93989,0.66926 2.23645,0.95123 5.46521,1.18855 1.26498,0.093 2.34957,0.21436 2.4102,0.26974 0.24916,0.22759 13.25122,0.0858 13.25122,-0.1445 z m 7.01474,-3.04938 c 0.50752,-0.79337 0.92276,-1.49332 0.92276,-1.55545 0,-0.0621 0.41672,-0.80497 0.92604,-1.65079 0.97925,-1.6262 1.19822,-2.75959 0.53316,-2.75959 -0.21608,0 -1.38679,0.28802 -2.60157,0.64005 -1.21479,0.35203 -3.8397,0.97322 -5.83316,1.38043 -3.94174,0.80519 -4.26236,1.05662 -2.54947,1.99936 3.56257,1.96076 6.47896,3.32003 7.21318,3.3619 0.29082,0.0166 0.81357,-0.51627 1.38906,-1.41591 z M 7.8048905,108.6528 c 4.6331805,-0.79725 7.6739705,-1.95101 8.5117105,-3.22957 0.59679,-0.9108 1.67272,-4.98221 1.67385,-6.333953 5.3e-4,-0.59065 -0.16474,-1.30043 -0.36719,-1.57729 -0.35726,-0.48859 -0.39809,-0.48268 -1.38906,0.20097 -3.33605,2.301473 -6.8478005,3.110683 -14.3179105,3.299243 -9.36893,0.23649 -14.9531895,-0.8137 -17.7731195,-3.342463 -0.49915,-0.44762 -0.95171,-0.81384 -1.00569,-0.81384 -0.054,0 -0.25934,0.38695 -0.45637,0.85989 -0.29975,0.71953 -0.30099,1.21646 -0.008,3.044253 0.42943,2.67491 1.31868,5.42417 1.92549,5.95299 0.24842,0.2165 1.04699,0.58409 1.7746,0.81687 1.28658,0.41161 6.3339895,1.36138 8.4666595,1.59316 2.16561,0.23536 10.65302,-0.0725 12.96459,-0.47026 z M 119.8632,101.95491 c 1.29082,-0.9022 1.63325,-1.28036 2.2513,-2.486203 0.84898,-1.65638 2.2218,-6.35198 2.42616,-8.29841 0.19916,-1.89697 0.58182,-2.37599 1.71673,-2.14901 0.83643,0.16729 18.165,-0.28003 19.13082,-0.49384 0.34081,-0.0754 0.78804,-0.68597 1.25642,-1.715184 0.39999,-0.87892 0.86311,-1.598036 1.02916,-1.598036 0.16606,0 0.44116,-0.190428 0.61135,-0.423174 0.41861,-0.572479 2.29295,-0.992675 4.37911,-0.981718 2.5657,0.01347 4.47345,1.134496 5.56206,3.268358 l 0.53543,1.049524 1.91219,-0.16356 c 1.05171,-0.09 3.16236,-0.32831 4.69032,-0.529655 1.52797,-0.201348 4.50453,-0.549664 6.61459,-0.774033 5.28141,-0.561594 11.60813,-1.430039 12.58649,-1.727698 0.44689,-0.135966 1.23935,-0.247211 1.76101,-0.247211 0.52166,0 2.47773,-0.309189 4.34683,-0.687088 1.86911,-0.377899 4.64853,-0.91471 6.1765,-1.192908 4.33112,-0.78858 4.3752,-0.798349 11.1125,-2.462821 0.94588,-0.233685 1.95791,-0.537163 2.24896,-0.674394 0.29104,-0.137231 1.38323,-0.49557 2.42709,-0.796308 1.04386,-0.300736 2.23448,-0.722334 2.64583,-0.936882 0.41135,-0.214548 0.91762,-0.390821 1.12505,-0.391718 0.3367,-0.0013 1.88497,-0.68742 5.57459,-2.469833 0.65408,-0.315978 1.5768,-0.872162 2.05049,-1.235964 0.4737,-0.363802 0.89934,-0.601927 0.94588,-0.529166 0.0465,0.07276 0.87498,-0.669838 1.84099,-1.650217 1.90809,-1.936477 2.46623,-3.189245 2.15649,-4.840301 -0.17397,-0.927372 -2.31072,-3.968789 -3.55039,-5.053583 -0.64983,-0.568637 -0.65201,-0.584356 -0.15744,-1.130858 0.67842,-0.749639 1.19924,-0.698535 2.50253,0.245565 1.47638,1.069482 2.15034,1.766879 2.15034,2.225106 0,0.208475 0.21907,0.448574 0.48681,0.53355 0.86082,0.273217 1.62986,2.422798 1.62986,4.555715 0,1.86549 -0.85519,3.491296 -2.83903,5.397278 -3.78796,3.639288 -9.77964,6.526177 -19.38597,9.340468 -5.63822,1.651788 -17.7825,4.021976 -28.70729,5.602776 -0.58208,0.0842 -2.18943,0.32124 -3.57187,0.5267 -4.7904,0.71194 -14.45531,1.62235 -18.0514,1.70039 -0.25113,0.005 -0.83388,0.42451 -1.295,0.93124 -1.26262,1.38753 -3.34105,2.08236 -5.65673,1.89108 -1.86725,-0.15424 -4.06934,-0.78447 -5.71562,-1.63579 -0.82529,-0.42678 -1.33445,-0.43856 -6.71681,-0.15551 -3.2031,0.16845 -7.1335,0.31364 -8.73423,0.32263 -1.60073,0.009 -3.1419,0.10696 -3.42481,0.21769 -0.36811,0.14407 -0.63968,0.72189 -0.95499,2.03193 -0.24234,1.00683 -0.3829,1.93266 -0.31237,2.0574 0.15012,0.26549 14.27092,0.01 20.038,-0.36282 2.18281,-0.14104 5.99281,-0.38368 8.46667,-0.53921 9.08196,-0.57096 18.15123,-1.34385 21.82812,-1.8602 2.70259,-0.37952 9.82791,-1.50569 11.77396,-1.86088 0.87312,-0.15936 1.88515,-0.34361 2.24896,-0.40944 8.0298,-1.45291 24.81339,-5.455756 26.8552,-6.404893 0.29104,-0.135292 1.77933,-0.692727 3.30729,-1.238742 4.53042,-1.618938 9.56581,-4.403612 11.61003,-6.420575 4.4474,-4.388125 5.30397,-8.742727 2.73251,-13.891646 -1.17373,-2.350219 -5.05205,-6.362125 -7.97729,-8.252057 -5.55999,-3.592195 -12.84042,-6.068684 -22.84068,-7.769413 -6.56273,-1.116115 -7.07248,-1.174877 -7.07248,-0.8153 0,0.169402 0.87736,1.635215 1.94969,3.257357 1.07234,1.622144 2.03094,3.29203 2.13022,3.710858 0.0993,0.41883 0.53161,1.112596 0.96072,1.541708 0.42911,0.429109 0.7802,0.888886 0.7802,1.021723 0,0.132839 0.5617,1.105948 1.24823,2.162461 0.68652,1.056515 1.45461,2.36742 1.70686,2.913123 0.25224,0.545703 0.55643,0.992187 0.67597,0.992187 0.11955,0 0.43661,0.40712 0.70458,0.904714 0.47386,0.879917 0.4737,0.919011 -0.006,1.426485 -0.58347,0.617262 -2.8557,0.992142 -2.64226,0.435925 0.0722,-0.188145 -0.0398,-0.407728 -0.2489,-0.487966 -0.20909,-0.08024 -0.38016,-0.394772 -0.38016,-0.698968 0,-0.304197 -0.0959,-0.493811 -0.21313,-0.421365 -0.23404,0.14464 -1.98056,-2.425811 -3.26439,-4.80437 -0.44941,-0.832607 -0.9048,-1.573361 -1.01199,-1.646121 -0.10719,-0.07276 -1.36065,-1.918229 -2.78545,-4.101042 -1.42481,-2.182812 -3.87757,-5.933281 -5.45059,-8.334374 -1.57301,-2.401094 -3.6335,-5.55625 -4.57886,-7.011458 -0.94536,-1.455208 -1.82953,-2.77423 -1.96482,-2.93116 -0.13529,-0.15693 -0.57547,-0.811773 -0.97819,-1.455208 -0.40272,-0.643435 -2.23281,-3.407167 -4.06688,-6.141625 -1.83406,-2.734458 -3.45552,-5.175239 -3.60322,-5.423958 -0.14772,-0.248719 -2.1574,-3.309715 -4.46598,-6.802215 -2.30857,-3.4925 -5.12652,-7.7787492 -6.2621,-9.5249992 -1.13558,-1.74625 -2.37303,-3.62685 -2.74989,-4.17910996 -0.67128,-0.983697 -1.20243,-1.100055 -1.20243,-0.263416 0,0.57904296 -1.33034,3.25190096 -1.61855,3.25190096 -0.12844,0 -0.23353,0.165716 -0.23353,0.36826 0,0.202541 -0.53578,0.964176 -1.19063,1.692521 -0.65484,0.728342 -1.19062,1.459174 -1.19062,1.624065 0,0.164894 0.67483,1.397559 1.49962,2.7392502 0.82479,1.341694 1.74753,2.875439 2.05052,3.40832 0.30299,0.532884 1.22331,2.140228 2.04515,3.571875 0.82184,1.43165 1.82718,3.198312 2.23409,3.925916 0.40691,0.727604 1.01116,1.799167 1.34277,2.38125 0.97981,1.719882 2.14321,3.828293 3.35788,6.085417 1.15109,2.139 4.39696,8.015205 6.5767,11.906249 0.65216,1.164167 1.63247,2.950104 2.17848,3.96875 0.91927,1.715016 1.91077,3.444758 4.92898,8.598958 1.61357,2.755505 1.82672,3.174412 1.61751,3.17905 -0.10051,0.0021 -0.051,0.09153 0.11014,0.198438 0.49656,0.329567 4.86649,7.63308 4.86649,8.133418 0,0.06464 -0.32742,0.05554 -0.7276,-0.02024 -0.40019,-0.07577 -1.29316,-0.02863 -1.98438,0.104749 -0.97415,0.187973 -1.25677,0.165899 -1.25677,-0.09816 0,-0.187367 -0.0893,-0.380354 -0.19844,-0.428863 -0.42801,-0.19023 -4.14154,-6.434301 -9.25774,-15.566318 -2.00442,-3.577748 -4.87913,-8.66581 -5.08256,-8.995833 -0.13455,-0.218281 -0.57834,-1.051718 -0.98621,-1.852083 -0.40786,-0.800364 -0.81704,-1.514739 -0.90929,-1.5875 -0.0922,-0.07276 -0.65701,-1.084791 -1.25504,-2.248958 -1.34797,-2.624045 -2.69484,-5.086628 -5.2211,-9.546129 -1.07825,-1.903383 -1.96045,-3.545313 -1.96045,-3.648726 0,-0.103412 -0.25215,-0.529069 -0.56033,-0.945904 -0.32734,-0.442751 -0.47536,-0.895358 -0.35599,-1.088501 0.12504,-0.202335 0.0963,-0.263863 -0.074,-0.158573 -0.15412,0.09525 -0.50594,-0.270327 -0.78819,-0.819017 -0.72002,-1.399723 -1.37848,-2.532457 -2.52093,-4.336738 -0.5457,-0.861832 -0.99219,-1.682012 -0.99219,-1.822622 0,-0.14061 -0.22324,-0.478898 -0.49609,-0.75175 -0.27285,-0.272851 -0.54723,-0.649501 -0.60973,-0.837001 -0.0729,-0.218535 -0.86826,-0.404455 -2.21589,-0.517946 -2.45372,-0.206639 -3.13379,-0.454773 -4.23492,-1.5451692 -1.26618,-1.25385 -3.38593,-2.953784 -3.68331,-2.953845 -0.17068,-3.5e-5 -0.26943,1.43035 -0.26943,3.9026042 0,3.872708 -0.11784,4.610928 -1.12977,7.077659 -0.8391,2.045449 -2.80325,4.150971 -4.71297,5.052187 -1.02827,0.485254 -1.83789,0.643993 -3.43958,0.674386 -1.15212,0.02185 -2.39242,-0.04453 -2.75622,-0.147548 -1.5796,-0.447273 -3.53671,-1.639416 -4.51392,-2.749576 l -1.05528,-1.198864 -2.30863,0.772207 c -4.33235,1.449115 -8.01861,0.867215 -10.46558,-1.652068 -2.46545,-2.538304 -2.91213,-6.567771 -1.23264,-11.1195512 0.63151,-1.711547 1.8821,-4.050964 2.16553,-4.050964 0.11693,0 0.2126,-0.164015 0.2126,-0.364479 0,-0.200462 0.18256,-0.515988 0.40569,-0.701167 0.22312,-0.185179 0.36764,-0.450813 0.32115,-0.590296 -0.0507,-0.15209596 -3.09893,-0.27553696 -7.61558,-0.30840396 -7.13579,-0.05192 -7.70299,-0.09297 -10.807089,-0.782177 -1.80183,-0.40006 -4.65933,-1.13142404 -6.35,-1.62525304 -4.02561,-1.1758402 -18.34786,-6.0152808 -19.875,-6.715699 l -1.19063,-0.5460735 -0.60918,0.7235454 c -0.33506,0.3979492 -1.48676,1.9737016 -2.55935,3.5016703 -1.07259,1.5279687 -2.13763,3.0162498 -2.36676,3.3072918 -0.22913,0.291041 -1.01314,1.36260404 -1.74225,2.38125004 -0.72911,1.01864496 -1.5578,2.12444796 -1.84154,2.45733796 -0.28373,0.332891 -0.53095,0.690079 -0.54937,0.79375 -0.0312,0.175832 -1.49906,2.072817 -2.29546,2.96662 -0.19449,0.218281 -1.03499,1.419664 -1.86777,2.669741 -1.55441,2.3332962 -2.7494,3.9377242 -3.56467,4.7859922 -0.25466,0.264972 -0.46302,0.558913 -0.46302,0.653206 0,0.195191 -3.63307,5.113075 -4.07574,5.517102 -0.15944,0.14552 -0.45301,0.58112 -0.65238,0.967999 -0.19937,0.386879 -0.70538,1.078836 -1.12448,1.537684 -0.41909,0.458846 -0.76198,0.882232 -0.76198,0.940858 0,0.05862 -0.36109,0.616823 -0.80242,1.240441 -0.44133,0.623618 -1.00615,1.431507 -1.25515,1.795309 -0.249,0.363802 -1.04877,1.454917 -1.77727,2.424697 -0.7285,0.969783 -1.88926,2.577126 -2.57948,3.571875 -0.69022,0.994751 -1.58319,2.171438 -1.98438,2.614864 -0.40118,0.443423 -0.84849,0.992695 -0.99401,1.220605 -0.97932,1.533773 -2.68867,3.986707 -4.33344,6.218538 -5.47764,7.432738 -13.56806,19.298046 -13.90697,20.395773 -0.10108,0.327422 -0.26506,0.603578 -0.3644,0.61368 -1.41252,0.143656 -3.62437,0.193106 -3.79938,0.08494 -0.24957,-0.154241 0.56624,-1.690809 0.89769,-1.690809 0.11415,0 0.20754,-0.178594 0.20754,-0.396875 0,-0.218281 0.0999,-0.396875 0.22202,-0.396875 0.12211,0 0.44953,-0.474885 0.7276,-1.055299 0.27807,-0.580413 0.59489,-1.056663 0.70403,-1.058333 0.10914,-0.0016 0.19843,-0.175712 0.19843,-0.386762 0,-0.211051 0.15134,-0.478941 0.33631,-0.595313 0.18496,-0.116372 0.46665,-0.509241 0.62598,-0.873043 0.15933,-0.363802 0.71455,-1.217779 1.23381,-1.897729 0.51926,-0.67995 1.12043,-1.572919 1.33593,-1.984375 0.2155,-0.411456 0.61028,-0.989793 0.87729,-1.285192 0.26701,-0.2954 0.71427,-0.950243 0.99391,-1.455208 0.27965,-0.504966 0.72961,-1.215777 0.99993,-1.579579 1.51032,-2.032629 2.30927,-3.174621 2.59655,-3.7114 l 0.32255,-0.602692 -3.40436,0.184007 c -14.9790205,0.809631 -26.6057105,3.322918 -33.92893,7.334261 -4.20693,2.304372 -8.84004,6.679345 -7.77228,7.33925 0.63415,0.39193 4.77393,0.880631 5.26735,0.621813 0.64939,-0.340622 1.78137,0.0858 1.58515,0.597128 -0.0941,0.245252 0.20364,0.592214 0.83224,0.969785 0.53833,0.32335 1.7756195,1.114491 2.7495195,1.758095 0.97746,0.645946 1.90729,1.085797 2.07553,0.981816 0.16763,-0.103603 0.65733,-0.978059 1.08822,-1.943238 1.1527,-2.582023 1.99901,-3.692842 3.03045,-3.977637 0.9402,-0.259601 1.95694002632,-0.119711 1.95694002632,0.269253 0,0.128548 0.16277000368,0.233725 0.36171000368,0.233725 0.30914,0 0.92801997,0.768517 2.14776997,2.667114 0.92115,1.433817 1.49246,2.292948 1.83325,2.756844 1.36552,1.858783 1.76626,2.454162 2.04802,3.042709 0.17417,0.363802 0.8018,1.405006 1.39473,2.313786 1.20823,1.851837 1.65729,2.00855 3.2909905,1.14848 1.89513,-0.997699 5.81482,-2.403933 6.70065,-2.403933 0.49635,0 1.02048,-0.118015 1.16471,-0.262252 0.14424,-0.144241 0.84902,-0.371875 1.56618,-0.505852 1.89199,-0.353465 2.52082,0.143502 3.65023,2.88477 0.72268,1.754074 0.97717,3.109815 0.97717,5.205648 0,1.274704 0.13013,2.271324 0.33073,2.533065 0.1819,0.237337 1.10464,0.612294 2.05052,0.833239 3.386,0.790922 5.50868,1.217631 6.05713,1.217631 0.3066,0 0.55746,0.107889 0.55746,0.239755 0,0.131866 0.62507,0.327919 1.38906,0.435676 1.867,0.263332 2.17315,0.320207 4.16719,0.774129 0.94588,0.215323 2.09899,0.393978 2.56246,0.39701 0.46347,0.003 1.15923,0.12587 1.54614,0.272973 0.38691,0.147103 1.19833,0.283853 1.80316,0.30389 0.60483,0.02003 1.36733,0.134763 1.69444,0.254944 0.5485,0.201523 6.95315,1.059143 10.40549,1.393357 0.81139,0.07855 1.64483,0.19866 1.85209,0.266912 0.20726,0.06825 0.91262,0.181332 1.56747,0.251288 0.65484,0.06995 2.38125,0.254494 3.83645,0.410085 5.44376,0.582046 11.70359,1.111742 13.53651,1.145434 l 1.89484,0.03483 1.28016,-1.334595 c 0.70409,-0.734025 1.51828,-1.454528 1.80933,-1.601113 1.62347,-0.817673 5.3595,-0.505478 5.61437,0.469157 0.0768,0.293748 0.29523,0.412255 0.6087,0.330279 0.3887,-0.101647 0.6562,0.229984 1.30526,1.618239 l 0.81636,1.746083 2.83911,0.0414 c 1.56151,0.0228 3.13677,0.0646 3.50057,0.093 0.3638,0.0284 3.820459,0.13706 7.681449,0.24152 6.88419,0.18625 7.02959,0.17934 7.51549,-0.35758 0.62729,-0.69315 0.89889,-0.6858 1.817,0.0491 l 0.74207,0.594 -0.52547,1.19063 c -1.17678,2.66637 -1.3549,6.87045 -0.39295,9.2746 0.59907,1.497223 1.98758,2.631653 3.22108,2.631653 0.54464,0 1.28464,-0.20576 1.64444,-0.45724 z M 107.87237,54.308191 c -1.42162,-0.702238 -3.89145,-3.054447 -3.89145,-3.706132 0,-0.202803 -0.29765,-0.722477 -0.66145,-1.154832 -0.36381,-0.432353 -0.66146,-1.081646 -0.66146,-1.442871 0,-0.368604 -0.1156,-0.585332 -0.26346,-0.493948 -0.3322,0.205309 -1.11377,-1.830154 -1.42205,-3.703471 -0.0479,-0.291041 -0.15392,-0.70776 -0.23561,-0.926041 -0.27349,-0.730734 -0.6982,-3.560919 -0.68493,-4.564197 0.0151,-1.138322 0.92277,-2.660674 1.67253,-2.805068 0.32407,-0.06241 0.76044,0.218446 1.22635,0.789295 l 0.72326,0.886177 3.28939,-0.0715 c 2.69166,-0.05851 3.35045,0.0021 3.62539,0.333353 0.53069,0.639445 3.29816,0.552905 3.97538,-0.124309 0.42071,-0.420714 0.9223,-0.538657 2.44739,-0.575477 1.05503,-0.02548 2.38128,-0.01558 2.94722,0.02199 2.67844,0.177742 2.69057,0.187206 2.95528,2.305905 0.12321,0.986086 0.0619,1.532376 -0.22284,1.986653 -0.21602,0.344614 -0.45777,1.560483 -0.53722,2.701935 -0.0861,1.2373 -0.29825,2.252305 -0.52533,2.513542 -0.20948,0.240996 -0.32591,0.59014 -0.25873,0.775872 0.17092,0.472572 -1.87753,4.578866 -2.67591,5.364093 -2.28356,2.245945 -2.16673,2.172759 -3.42784,2.147446 -0.66668,-0.01339 -1.28485,0.09332 -1.37372,0.237119 -0.089,0.144063 -1.16747,0.244317 -2.40193,0.22329 -1.82304,-0.03105 -2.49701,-0.164946 -3.61826,-0.718806 z m 7.42017,-2.131224 -0.86058,-0.361217 0.65572,-0.432533 c 0.98229,-0.647951 1.59324,-1.313299 1.59324,-1.735095 0,-0.655383 -1.57284,-1.980385 -2.71632,-2.288288 -2.14473,-0.577519 -4.84156,0.342064 -5.60478,1.911159 -0.58479,1.202256 -0.41076,1.508318 1.33937,2.35554 0.95245,0.461071 1.54209,0.552107 3.08485,0.476258 1.55153,-0.07628 1.91262,-0.01974 1.93576,0.303104 0.0514,0.71781 0.10266,0.746911 0.77118,0.438127 l 0.66213,-0.305835 z m -5.16855,-7.298065 c 1.16111,-0.484547 3.46461,-0.535493 4.73151,-0.104645 0.49466,0.168222 1.33323,0.644472 1.8635,1.058333 1.03448,0.807395 1.6827,0.952751 1.88074,0.421743 0.36019,-0.965808 1.05015,-5.485053 0.89796,-5.881661 -0.12528,-0.326461 -0.35129,-0.415615 -0.76947,-0.303532 -0.32566,0.08728 -3.85274,0.160324 -7.83796,0.162311 l -7.24586,0.0036 0.15428,1.124479 c 0.19338,1.409422 1.32048,4.771982 1.8918,5.643917 l 0.43034,0.656788 1.50973,-1.185418 c 0.83036,-0.651981 1.9524,-1.370147 2.49343,-1.595927 z m 10.65797,-5.966756 c 0.26339,-0.291042 0.37002,-0.529167 0.23695,-0.529167 -0.13307,0 -0.39066,0.238125 -0.57242,0.529167 -0.18176,0.291042 -0.28838,0.529167 -0.23694,0.529167 0.0514,0 0.30902,-0.238125 0.57241,-0.529167 z M 73.289261,50.378497 c -1.53686,-0.524976 -3.64969,-2.11305 -4.55501,-3.423701 -0.39176,-0.567155 -0.90059,-1.745567 -1.13074,-2.618692 -1.21265,-4.600477 1.40837,-9.33932 6.01107,-10.86809 1.71171,-0.56854 4.62283,-0.408906 6.32765,0.346982 1.6304,0.722889 3.44554,2.510195 4.37043,4.3034 0.65182,1.263772 0.75039,1.751065 0.74933,3.704167 -0.001,1.916628 -0.11363,2.492703 -0.76188,3.898452 -1.09711,2.379141 -3.10478,4.172429 -5.32231,4.753978 -1.32245,0.346816 -4.55108,0.292047 -5.68854,-0.0965 z m 5.83866,-3.273812 c 0.28172,-0.150767 0.69061,-0.70109 0.90865,-1.222935 0.48309,-1.156206 0.48289,-1.148771 0.032,-1.148771 -0.20046,0 -0.5127,-0.178594 -0.69386,-0.396875 -0.78797,-0.949454 -2.64583,-0.02053 -2.64583,1.322917 0,0.740214 0.83878,1.719791 1.4726,1.719791 0.22785,0 0.64477,-0.123356 0.92648,-0.274127 z m 2.19224,-5.522518 c 0.34812,-0.348114 0.55789,-0.9897 0.62995,-1.926695 0.10387,-1.350529 0.0735,-1.427777 -0.78705,-2.000097 -1.26262,-0.839753 -2.44014,-0.77801 -3.39624,0.178086 -1.27832,1.278321 -0.92808,3.599669 0.64398,4.268232 0.82174,0.349472 2.30528,0.08456 2.90936,-0.519526 z m 60.508159,7.633314 c -2.77355,-0.564922 -5.07362,-2.285963 -6.41667,-4.801309 -0.52213,-0.977881 -0.60668,-1.523928 -0.60611,-3.914526 5.3e-4,-2.583529 0.0556,-2.877375 0.78483,-4.195077 0.91914,-1.660819 2.69743,-3.322092 4.37388,-4.086074 1.85817,-0.846788 5.23059,-0.789077 7.14375,0.122248 3.13761,1.494586 5.29351,4.712713 5.2886,7.89432 -0.006,4.050879 -1.95587,7.075106 -5.5661,8.634089 -1.01867,0.439891 -3.64879,0.62199 -5.00218,0.346329 z m 5.50757,-4.82097 c 0.3588,-0.94669 0.34628,-1.034735 -0.23516,-1.653646 -0.78294,-0.833411 -1.43057,-0.827426 -2.27905,0.02106 -0.52714,0.527135 -0.63563,0.830736 -0.49587,1.387583 0.27843,1.109364 0.66431,1.411455 1.69182,1.32446 0.8154,-0.06904 0.98927,-0.211408 1.31826,-1.07945 z m 1.17133,-4.427257 c 2.02336,-1.591577 0.45369,-5.116136 -2.06782,-4.643099 -1.22233,0.229312 -1.97723,1.250273 -1.97723,2.674112 0,0.938596 0.13874,1.248162 0.81405,1.816402 0.99368,0.836123 2.28452,0.897086 3.231,0.152585 z M 69.159761,27.648175 c -0.0845,-0.336711 -0.0566,-0.767799 0.062,-0.957969 0.11863,-0.190171 0.25185,-0.583893 0.29605,-0.874934 0.0879,-0.579112 0.85282,-1.265553 1.98547,-1.781874 0.40018,-0.182422 0.72761,-0.409014 0.72761,-0.503536 0,-0.32198 3.45893,-1.557912 4.0457,-1.445593 1.10304,0.211137 1.47398,0.46732 1.72681,1.19258 0.37574,1.077846 -0.034,1.558459 -2.16345,2.537539 -1.0391,0.477763 -2.36552,1.200825 -2.94761,1.606804 -0.74955,0.522785 -1.42604,0.752882 -2.31865,0.788665 -1.11686,0.04477 -1.2778,-0.01916 -1.41397,-0.561682 z m 2.27742,-0.525602 c 0,-0.22687 -0.11907,-0.338905 -0.26459,-0.248968 -0.14552,0.08994 -0.26458,0.275558 -0.26458,0.412491 0,0.136932 0.11906,0.248967 0.26458,0.248967 0.14552,0 0.26459,-0.185621 0.26459,-0.41249 z m 77.522909,-1.185744 c -0.3638,-0.290473 -1.58541,-1.016103 -2.7147,-1.612511 -2.26176,-1.194511 -2.69385,-1.856197 -1.95173,-2.988823 0.91491,-1.39633 2.51905,-1.20138 5.27345,0.640874 1.96412,1.313682 2.68995,2.258256 2.38837,3.108163 -0.50427,1.421149 -1.81562,1.794275 -2.99539,0.852297 z m -0.66146,-2.370516 c -0.0899,-0.14552 -0.28258,-0.264583 -0.4281,-0.264583 -0.14552,0 -0.191,0.119063 -0.10107,0.264583 0.0899,0.145521 0.28259,0.264584 0.42811,0.264584 0.14552,0 0.191,-0.119063 0.10106,-0.264584 z m -2.24896,-1.968759 c 0,-0.06417 -0.11906,-0.190262 -0.26458,-0.280199 -0.14552,-0.08994 -0.26459,-0.03743 -0.26459,0.116676 0,0.154109 0.11907,0.280199 0.26459,0.280199 0.14552,0 0.26458,-0.0525 0.26458,-0.116676 z M 7.9371805,97.497147 c 3.3590705,-0.51922 5.0929805,-1.0415 5.7058205,-1.71868 0.50099,-0.55358 0.50027,-0.56623 -0.0577,-1.01808 -1.12815,-0.91352 -7.6434005,-1.61539 -14.9622005,-1.61184 -3.59479,0.002 -6.80948,0.11697 -7.14374,0.25604 -0.33427,0.13908 -1.28514,0.38415 -2.1130395,0.54459 -2.58084,0.50017 -3.51821,1.79729 -1.86322,2.57832 3.0632895,1.44564 13.9979195,1.96452 20.4341195,0.96965 z m 77.3418705,0.12353 c 0.50573,-0.25688 2.54069,-2.21999 2.30123,-2.21999 -0.0499,0 0.16326,-0.77391 0.47365,-1.71979 0.96693,-2.94665 1.13638,-4.0858 0.82427,-5.54114 -0.50439,-2.35186 -2.7464,-3.400237 -4.74581,-2.219159 -1.40322,0.828903 -2.91005,4.783219 -2.89982,7.609879 0.006,1.76187 0.68239,3.61423 1.49043,4.08392 0.63911,0.3715 1.83126,0.37443 2.55605,0.006 z m 25.942059,-2.94242 c 0.12581,-0.97942 0.16666,-1.94251 0.0908,-2.1402 -0.11012,-0.28699 -1.8896,-0.39994 -8.82768,-0.56034 -4.779369,-0.11049 -9.149819,-0.21897 -9.712119,-0.24105 l -1.02236,-0.0401 -0.62431,1.84584 c -0.34336,1.01521 -0.5303,1.93984 -0.41542,2.05472 0.26841,0.26841 14.070459,0.92157 18.562569,0.87845 l 1.71979,-0.0165 z m -32.461979,-1.61396 c 0.17161,-1.18884 0.23149,-2.23723 0.13306,-2.32975 -0.0984,-0.0925 -1.96491,-0.3071 -4.14772,-0.47685 -15.40945,-1.1983 -30.91916,-3.453316 -44.91915,-6.530955 -2.29532,-0.504581 -4.28962,-0.845542 -4.43177,-0.757687 -0.14215,0.08786 -0.26371,0.539663 -0.27013,1.004017 -0.006,0.464354 -0.17286,1.439593 -0.36986,2.167197 -0.33949,1.2539 -0.32892,1.345993 0.20272,1.765248 0.30849,0.24328 0.63631,0.39571 0.72848,0.33875 0.0922,-0.057 0.86941,0.0613 1.72719,0.26275 5.83725,1.37107 17.12023,3.46488 21.40335,3.97186 0.72761,0.0861 2.21589,0.27269 3.30729,0.41458 2.00603,0.26081 7.81979,0.97017 9.525,1.16218 0.50933,0.0574 3.42636,0.30223 6.48229,0.54417 3.05594,0.24194 6.56828,0.52614 7.80521,0.63156 1.23693,0.10542 2.30815,0.1473 2.38049,0.0931 0.0723,-0.0542 0.27194,-1.0713 0.44355,-2.26014 z m -94.19858,-0.67146 c 1.71099,-0.83853 3.70128,-1.52301 5.12038,-1.76096 1.7113695,-0.28695 3.0410895,-1.29499 3.7295895,-2.82734 0.6135,-1.365443 0.62897,-1.580927 0.63246,-8.808018 0.003,-7.105991 -0.0199,-7.451523 -0.57105,-8.466666 -0.55013,-1.013211 -3.7909995,-4.440105 -3.7909995,-4.008596 0,0.114493 -0.32742,-0.01672 -0.72761,-0.291605 -1.13833,-0.781897 -3.77631,-1.942492 -4.67742,-2.057863 -0.44946,-0.05755 -1.68716,-0.287629 -2.75046,-0.511302 -3.84625,-0.809083 -4.873,-0.486791 -5.02619,1.577699 -0.0432,0.582084 -0.19342,1.772709 -0.33385,2.645834 -0.51877,3.225434 -0.63968,4.850714 -0.63968,8.598958 0,4.129277 0.1629,6.61445 0.43358,6.614532 0.17707,5.3e-5 0.61823,1.827014 0.53125,2.200098 -0.0276,0.118618 0.19854,0.565102 0.50265,0.992187 0.30411,0.427083 0.4806,0.776515 0.39219,0.776515 -0.0884,0 -0.0353,0.148828 0.118,0.33073 0.56027,0.664757 1.59421,2.345467 1.59421,2.591437 0,0.13906 0.1389,0.25283 0.30868,0.25283 0.16977,0 0.23381,0.0749 0.1423,0.16638 -0.12959,0.12959 3.10459,2.74404 3.39449,2.74404 0.0379,0 0.7658,-0.3415 1.61748,-0.75889 z m 34.21597,-0.9188 c 0.5868,-0.77721 1.06691,-1.54119 1.06691,-1.69774 0,-0.15655 0.0957,-0.32433 0.21258,-0.37283 0.31102,-0.12904 1.31262,-3.520582 1.62786,-5.512156 0.57049,-3.604123 0.15973,-10.783914 -0.66531,-11.629102 -0.31665,-0.324384 -0.61809,-0.334131 -1.93313,-0.06251 -3.20943,0.662898 -9.2701405,3.163216 -10.1045105,4.168569 -0.17313,0.208613 -0.484,0.379296 -0.69081,0.379296 -0.20682,0 -0.69704,0.297656 -1.08938,0.661458 -0.39234,0.363802 -0.8165,0.661458 -0.94256,0.661458 -0.12607,0 -0.46334,0.297657 -0.74951,0.661459 -0.28617,0.363802 -0.69026,0.661458 -0.89798,0.661458 -0.20772,0 -0.37767,0.119063 -0.37767,0.264583 0,0.145521 -0.17859,0.264584 -0.39687,0.264584 -0.21828,0 -0.39937,0.148828 -0.40241,0.330729 -0.003,0.181901 -0.89602,1.278961 -1.98438,2.43791 -1.08835997,1.158952 -1.97883997,2.200749 -1.97883997,2.315104 0,0.114359 -0.11104,0.207923 -0.24675,0.207923 -0.13572,0 -0.32133003,0.234977 -0.41248003,0.522169 -0.0912,0.287192 -0.55375,1.090863 -1.02798,1.785938 -1.50458,2.2052 -1.51502,2.18088 0.96791,2.25271 1.19598003,0.0346 3.78185,0.0644 5.74638,0.0661 2.25565,0.002 3.76688,0.11791 4.10105,0.31441 0.29104,0.17114 1.5070605,0.49319 2.7022705,0.71567 1.19521,0.22248 3.04067,0.75955 4.10104,1.1935 1.06036,0.43394 2.01338,0.7965 2.1178,0.80568 0.10443,0.009 0.66998,-0.6192 1.25677,-1.39641 z m 136.147729,-0.97178 c 1.67099,-0.55148 1.55999,-2.35633 -0.23403,-3.805353 -0.9035,-0.729747 -1.20799,-0.821219 -2.73369,-0.821219 -1.61133,0 -1.76533,0.05416 -2.50372,0.880565 -0.62265,0.696873 -0.76991,1.081857 -0.7059,1.845487 0.0668,0.797 0.24842,1.05858 1.0435,1.50307 1.14059,0.63763 3.78561,0.8424 5.13384,0.39745 z M -1.5096095,81.04704 c 0.23945,-0.254662 1.06396003,-1.163177 1.83223003,-2.018924 0.76826997,-0.855747 2.34934997,-2.274761 3.51351997,-3.15336 1.16416,-0.878602 2.16888,-1.639575 2.23271,-1.691047 0.2558,-0.206301 -1.14453,-2.547289 -3.99524,-6.678959 -1.64997997,-2.391412 -3.12829,-4.388792 -3.28511,-4.438623 -0.94581,-0.300527 -1.41739,3.7021 -1.42748,12.115982 -0.008,6.58288 0.0707,6.99086 1.12937,5.864931 z M 25.267391,49.760062 c 0.0899,-0.145521 0.0374,-0.264583 -0.11668,-0.264583 -0.15411,0 -0.2802,0.119062 -0.2802,0.264583 0,0.145521 0.0525,0.264584 0.11668,0.264584 0.0642,0 0.19026,-0.119063 0.2802,-0.264584 z M 137.63493,18.919307 c 1.85118,-0.936001 2.92761,-2.599788 3.64834,-5.639112 0.69582,-2.934285 -0.0949,-9.8804802 -1.35437,-11.8971642 -0.40331,-0.64580496 -1.75775,-1.36463296 -2.5713,-1.36463296 -1.05901,0 -3.22778,-0.580567 -3.61491,-0.96769 -0.21616,-0.21616404 -0.39302,-0.32193104 -0.39302,-0.23504004 0,0.08689 -0.35616,-0.02619 -0.79146,-0.251298 -0.74266,-0.384043 -0.86912,-0.37038 -2.05053,0.221562 -1.93696,0.97051004 -3.84305,1.32652304 -6.08673,1.13686404 -1.7574,-0.148556 -2.06389,-0.103431 -2.80594,0.413115 -1.10178,0.76695796 -1.81837,1.53457596 -2.85246,3.05560196 -0.47006,0.691401 -1.01165,1.352306 -1.20355,1.468678 -0.1919,0.116371 -0.34964,0.473559 -0.35054,0.79375 -7.9e-4,0.32019 -0.17757,0.919493 -0.3926,1.33178 -0.21504,0.412289 -0.51718,1.218295 -0.67143,1.791128 -0.3311,1.2296062 -0.38524,5.2757042 -0.0736,5.5033442 0.11895,0.0869 0.53934,0.591725 0.93421,1.121836 0.56057,0.752562 1.01529,1.035174 2.07441,1.289254 1.88941,0.45326 3.43342,0.172825 6.1504,-1.117084 l 2.33117,-1.106744 0.88289,0.475469 c 0.48559,0.261506 1.08639,0.850233 1.33512,1.308282 0.5418,0.997781 2.41584,2.556825 3.62502,3.015713 1.07249,0.407011 3.06168,0.243581 4.23092,-0.347612 z M 154.5512,4.8337668 c 2.74954,-1.436373 4.58494,-4.81340796 4.41465,-8.1226605 -0.11858,-2.3043091 -0.88398,-3.9721577 -2.71421,-5.9144241 -1.5814,-1.6781942 -2.76055,-2.3282642 -5.13679,-2.8319202 -2.14825,-0.455332 -3.65629,-0.477671 -5.24477,-0.07768 l -1.20767,0.304094 0.21522,1.349552 c 0.31061,1.9477668 0.25913,4.1090792 -0.12522,5.2559288 -0.18357,0.5477801 -0.80201,1.5883334 -1.37431,2.3123418 -0.87025,1.1009572 -0.98989,1.3926002 -0.73109,1.7821592 0.5365,0.80754504 5.61229,5.375801 6.71396,6.04262 1.49682,0.905991 3.33223,0.870627 5.19023,-0.100007 z m -38.91535,-7.7440339 c 1.95724,-0.1555564 3.65894,-0.3808994 3.78156,-0.5007609 0.12262,-0.1198616 0.0853,-0.475062 -0.0829,-0.7893367 -0.64432,-1.2039282 -1.00898,-3.8365825 -0.7561,-5.4587085 0.61276,-3.9306758 2.84413,-6.5435528 6.63528,-7.7697428 0.54571,-0.176499 0.99219,-0.422627 0.99219,-0.546955 0,-0.894776 -9.26221,-5.437711 -14.2875,-7.00774 -5.27167,-1.647008 -12.190669,-3.157495 -18.785409,-4.10105 -4.48515,-0.641723 -12.94979,-0.786979 -15.50471,-0.266067 -2.10066,0.428291 -3.9024,1.443349 -4.76091,2.682181 -0.38964,0.562245 -0.8113,1.022263 -0.93703,1.022263 -0.12573,0 -0.2286,0.178594 -0.2286,0.396875 0,0.218281 -0.13891,0.396875 -0.30868,0.396875 -0.16978,0 -0.23483,0.07386 -0.14456,0.164126 0.0903,0.09027 -0.18884,0.863354 -0.62024,1.717966 -2.05786,4.076589 -2.08567,8.256947 -0.0671,10.082381 0.96331,0.871141 3.97675,2.016361 13.31138,5.058836 11.23914,3.6632169 13.84634,4.3368937 19.446879,5.024895 1.79206,0.2201466 8.99225,0.1581573 12.31638,-0.1060371 z m 13.28457,-1.1628436 c 1.48602,-0.6209004 1.78416,-1.0429716 1.4898,-2.1090651 -0.34382,-1.2452059 0.0857,-3.7254602 0.9356,-5.4026622 0.37452,-0.739065 0.68094,-1.441106 0.68094,-1.560089 0,-0.364498 -1.62897,-1.202811 -2.72763,-1.403715 -0.61292,-0.11208 -1.72433,-0.04671 -2.70916,0.159343 -2.17244,0.454533 -3.57391,1.729573 -4.19319,3.814913 -0.60322,2.0312776 -0.53512,3.387119 0.24921,4.9610484 0.50665,1.016717 0.91612,1.4558142 1.65364,1.7732904 1.12842,0.4857432 3.14372,0.3840956 4.62079,-0.2330635 z m 11.59602,-0.4346046 c 2.27333,-2.7854062 1.40016,-6.9172347 -1.5802,-7.4774527 -3.48154,-0.654423 -6.36163,3.1823499 -4.94103,6.5823118 0.61787,1.4787641 1.78501,2.037445 3.96539,1.8981366 1.69616,-0.1083707 1.88671,-0.1831472 2.55584,-1.0029957 z m 1.88892,-10.2808397 c 1.74297,-1.371026 2.4486,-5.862119 1.49807,-9.534712 -0.13188,-0.509548 -0.96022,-1.131922 -1.25996,-0.946669 -0.12666,0.07827 -0.48762,1.305563 -0.80215,2.727306 -0.31453,1.421744 -0.86554,3.544522 -1.22447,4.717291 -0.81902,2.676072 -0.8147,2.860862 0.075,3.212433 1.01106,0.39952 0.97797,0.402912 1.7135,-0.175649 z m -6.49272,-0.404905 c 0.67883,-0.338646 0.89273,-0.726678 1.49494,-2.711979 1.89081,-6.233324 1.17226,-10.886974 -1.98964,-12.885848 -0.9395,-0.593924 -1.52878,-0.26865 -2.4797,1.36875 -0.40336,0.694547 -0.86275,1.350285 -1.02087,1.457198 -0.15812,0.106913 -0.20474,0.19621 -0.10361,0.198438 0.10113,0.0021 -0.12771,0.68866 -0.50854,1.525404 -0.60167,1.321988 -0.69512,1.890329 -0.71304,4.336992 -0.0177,2.415304 0.051,2.894944 0.4834,3.373437 0.27721,0.30679 0.40273,0.5578 0.27892,0.5578 -0.1238,0 0.36376,0.371488 1.08348,0.825529 0.71971,0.454041 1.40049,0.983946 1.51284,1.177565 0.21054,0.362834 0.96783,1.171906 1.09689,1.171906 0.04,0 0.42923,-0.177837 0.86493,-0.395192 z m -8.64838,-7.658936 c 0,-0.799047 -1.38511,-4.251248 -2.51735,-6.274194 -0.21619,-0.386254 -0.39307,-0.89227 -0.39307,-1.124479 0,-0.232209 -0.10289,-0.422198 -0.22864,-0.422198 -0.12575,0 -0.44225,-0.565547 -0.70334,-1.256771 -0.26109,-0.691224 -0.55252,-1.316302 -0.64763,-1.389062 -0.0951,-0.07276 -0.78699,-1.346499 -1.53751,-2.830531 -1.33871,-2.647101 -3.67383,-7.160453 -5.84276,-11.292985 -0.60186,-1.146736 -1.09429,-2.248064 -1.09429,-2.447396 0,-0.199332 -0.0934,-0.362421 -0.20753,-0.362421 -0.11415,0 -0.43092,-0.37815 -0.70394,-0.840335 -1.11801,-1.892636 -3.05848,-3.827849 -4.49031,-4.478142 -3.34137,-1.517549 -6.65053,0.239477 -11.013399,5.847644 -0.62264,0.800364 -1.32136,1.643536 -1.55272,1.873713 -0.23135,0.230179 -0.71829,0.813802 -1.0821,1.29694 -0.3638,0.483137 -1.91161,2.445107 -3.43958,4.359928 -4.3676,5.473398 -5.40409,6.800434 -5.69887,7.296332 -0.1512,0.254365 -0.42934,0.64856 -0.61809,0.875985 -0.5933,0.714878 -0.0683,0.965674 2.0331,0.971251 3.21388,0.0085 8.99457,0.851233 16.337869,2.381716 7.69917,1.60465 16.42112,4.87169 21.86241,8.18915 1.24259,0.757586 1.53775,0.685773 1.53775,-0.374145 z m 3.55252,-8.706045 c 1.74027,-2.642574 1.86662,-2.757638 3.20576,-2.919394 0.57581,-0.06955 1.08088,-0.134948 1.12238,-0.145322 0.11972,-0.02992 -0.50607,-1.14675 -1.04835,-1.870943 -0.27242,-0.363802 -1.18952,-1.560698 -2.03801,-2.659769 -0.84848,-1.099071 -1.88735,-2.526916 -2.3086,-3.172989 -0.42125,-0.646073 -1.01428,-1.413708 -1.31785,-1.705856 -0.30356,-0.292148 -1.5452,-1.781334 -2.75919,-3.309302 -1.89389,-2.383708 -5.6284,-6.35 -5.97892,-6.35 -0.0623,0 -0.61683,-0.318124 -1.2324,-0.70694 -1.11443,-0.703919 -3.351,-1.5151 -3.57095,-1.295151 -0.11188,0.111881 1.57342,3.050648 2.21026,3.854174 0.173,0.218281 0.64672,1.051719 1.05271,1.852083 0.40599,0.800365 0.95509,1.771246 1.22023,2.157511 0.26514,0.386265 0.48207,0.827511 0.48207,0.980543 0,0.153035 0.37433,0.90856 0.83185,1.678948 0.45751,0.77039 1.83484,3.424769 3.06073,5.898623 4.30731,8.692208 4.96255,9.921874 5.28693,9.921874 0.17997,0 0.98157,-0.99364 1.78135,-2.20809 z"
       id="path8024" /></g></svg>
