<?xml version="1.0" encoding="UTF-8" standalone="no"?>
<!-- Created with Inkscape (http://www.inkscape.org/) -->

<svg
   width="253.7382mm"
   height="208.6963mm"
   viewBox="0 0 253.73817 208.69617"
   version="1.1"
   id="svg5"
   xml:space="preserve"
   xmlns="http://www.w3.org/2000/svg"
   xmlns:svg="http://www.w3.org/2000/svg"><defs
     id="defs2" /><g
     id="layer1"
     transform="translate(143.00041,52.760347)"><path
       style="fill:#000000;stroke-width:0.264583"
       d="m 70.512879,155.79822 c -1.23693,-0.0399 -8.91646,-0.25689 -17.06562,-0.48217 -8.14917,-0.22528 -20.41261,-0.58586 -27.25209,-0.80129 -6.83947,-0.21544 -15.67986,-0.40918 -19.6453101,-0.43056 -3.96544,-0.0214 -7.20988995,-0.12276 -7.20988995,-0.22529 0,-0.21278 -4.18108005,-0.38066 -23.01875195,-0.92426 -7.348801,-0.21206 -14.939035,-0.46346 -16.867186,-0.55865 -2.740343,-0.13529 -3.505729,-0.10005 -3.505729,0.16139 0,0.41854 -3.204541,0.11725 -3.479173,-0.32712 -0.235633,-0.38126 -2.658192,-0.27999 -2.906318,0.12149 -0.14886,0.24086 -0.582028,0.23408 -1.865138,-0.0292 -0.919183,-0.1886 -2.683277,-0.38773 -3.920204,-0.44252 -3.01067,-0.13334 -15.431801,-0.57972 -25.53229,-0.91757 -14.966338,-0.5006 -26.145179,-1.07609 -28.340949,-1.459 -2.45045,-0.42732 -5.33962,-1.65379 -6.71634,-2.85112 -0.96886,-0.84262 -2.64583,-3.04086 -2.64583,-3.46825 0,-0.13661 -0.2179,-0.49418 -0.48422,-0.7946 -1.09025,-1.22986 -1.43886,-4.81834 -0.72763,-7.48996 0.50987,-1.91524 2.13015,-5.38913 5.21466,-11.18022 2.61817,-4.91556 2.71193,-4.49683 -1.00842,-4.50364 -4.26054,-0.008 -8.64964,-0.99727 -10.69718,-2.41154 -0.38023,-0.26263 -0.74679,-0.42204 -0.81459,-0.35424 -0.2692,0.2692 -5.99729,-4.08011 -6.01964,-4.57068 -0.008,-0.1819 -0.1639,-0.33624 -0.3458,-0.34298 -0.1819,-0.007 -0.68791,-0.48687 -1.12448,-1.06696 -0.43656,-0.58008 -1.07216,-1.40794 -1.41245,-1.83967 -0.34028,-0.43174 -0.64316,-0.95163 -0.67305,-1.15531 -0.0299,-0.20369 -0.20484,-0.55166 -0.38876,-0.77327 -0.4647,-0.55993 -1.36219,-3.08521 -1.36219,-3.83281 0,-1.08246 0.47862,-1.25905 3.43958,-1.26903 2.90995,-0.01 4.99211,-0.48538 6.37986,-1.4572 0.38023,-0.266262 0.75239,-0.423054 0.82702,-0.34842 0.27107,0.27107 2.17416,-2.706679 2.76767,-4.330552 1.45956,-3.993472 0.10193,-11.109922 -2.99838,-15.716969 -0.48945,-0.72731 -0.82438,-1.428403 -0.74429,-1.55798 0.0801,-0.12958 -0.0162,-0.173516 -0.21392,-0.09764 -0.35884,0.137702 -2.04921,-1.926476 -2.04921,-2.502379 0,-0.15811 -0.1086,-0.287475 -0.24133,-0.287475 -0.44166,0 -2.91471,-4.299995 -5.70635,-9.921874 -2.71807,-5.473729 -4.00716,-8.7117 -4.24116,-10.653104 -0.0655,-0.543708 -0.29769,-1.762469 -0.5159,-2.708354 -0.2182,-0.945886 -0.39921,-1.986322 -0.40225,-2.31208 -0.011,-1.177462 1.57045,-2.228702 1.93268,-1.284745 0.0785,0.20456 0.53772,0.455935 1.02049,0.558615 0.48278,0.102676 1.05637,0.336039 1.27465,0.518578 0.21828,0.182541 0.75407,0.416597 1.19063,0.520125 0.43656,0.103527 1.15094,0.349002 1.5875,0.5455 1.17721,0.529868 4.54007,0.87767 6.35,0.656749 3.41502,-0.416841 5.65031,-1.52462 7.84909,-3.889902 1.03184,-1.109972 2.46946,-3.404483 2.78248,-4.440965 0.0439,-0.145521 0.62475,-2.288645 1.29069,-4.762499 0.66593,-2.473854 1.58003,-5.688542 2.03131,-7.14375 0.45129,-1.455197 0.84977,-2.797593 0.88551,-2.983089 0.12062,-0.626116 2.02831,-6.010453 2.22407,-6.277317 0.10675,-0.145521 0.27764,-0.613254 0.37976,-1.039407 0.10211,-0.426154 0.60831,-1.735842 1.12487,-2.910417 0.51656,-1.174575 1.03334,-2.373717 1.14838,-2.664759 0.36597,-0.925814 5.0019,-10.2702405 5.71,-11.5093745 2.08346,-3.64590797 3.62722,-6.052912 5.902273,-9.202732 1.396026,-1.932804 2.854065,-3.957663 3.240087,-4.4996855 1.445755,-2.030023 8.141732,-9.103653 11.620359,-12.275743 3.295719,-3.005304 5.998028,-5.242671 6.33213,-5.242671 0.162026,0 0.228717,-0.106587 0.148204,-0.23686 -0.08051,-0.13027 0.0019,-0.295169 0.182822,-0.366437 0.181065,-0.07127 1.519835,-1.01468 2.975043,-2.096468 3.837937,-2.853087 6.764896,-4.716349 10.31875,-6.568768 1.018646,-0.530961 2.328333,-1.215438 2.910416,-1.521058 1.178624,-0.618831 3.946102,-1.897652 4.7625,-2.200701 3.271623,-1.214427 5.079285,-1.840714 6.746875,-2.33753 1.091406,-0.325157 3.001224,-1.046234 4.244038,-1.602393 1.242814,-0.556157 2.790626,-1.153208 3.439583,-1.326777 0.648957,-0.173567 1.298982,-0.411359 1.444503,-0.528423 0.268126,-0.215696 2.424547,-0.893267 2.910417,-0.914487 0.145521,-0.0064 0.324114,-0.08391 0.396875,-0.17235 0.254307,-0.309099 7.991122,-1.957876 11.020144,-2.348481 0.99668,-0.128526 3.121834,-0.407802 4.722563,-0.620613 1.600729,-0.212811 3.917318,-0.406104 5.147977,-0.429541 1.38043,-0.02629 3.17847,-0.28708 4.69383,-0.680807 3.0472399,-0.791737 6.0001399,-1.096888 11.24435995,-1.161984 7.55273995,-0.09375 14.76579005,1.333131 20.31455005,4.018618 0.9495,0.45954 1.7859,0.842793 1.85866,0.851672 0.40825,0.04982 1.85208,0.824241 1.85208,0.993394 0,0.109997 0.17859,0.199995 0.39687,0.199995 0.21829,0 0.39688,0.119063 0.39688,0.264584 0,0.145521 0.23812,0.264583 0.52917,0.264583 0.29104,0 0.52916,0.119063 0.52916,0.264583 0,0.145521 0.16014,0.264584 0.35587,0.264584 0.19573,0 0.56862,0.235085 0.82865,0.522412 0.26002,0.287326 0.71488,0.599252 1.01078,0.693171 0.29591,0.09392 0.8214,0.454141 1.16776,0.800502 0.34636,0.346361 0.80666,0.629748 1.0229,0.629748 0.21623,0 0.45788,0.168685 0.537,0.374856 0.0791,0.206171 0.61337,0.685575 1.18724,1.065342 1.09207,0.722702 4.47314,4.026138 4.47314,4.370438 0,0.109551 0.57361,0.78174 1.2747,1.493753 2.13391,2.167151 3.93661,4.827875 5.62753,8.306027 0.45985,0.945885 1.06458,2.16177 1.34386,2.701967 0.27927,0.540197 0.55418,1.314103 0.61092,1.719792 0.0567,0.405688 0.39966,1.572299 0.76204,2.592466 0.66389,1.868945 1.41345,5.447295 1.55126,7.405566 l 0.0745,1.058333 3.30729,0.152453 c 3.79132,0.174762 5.22827,0.582779 9.37271,2.6613395 2.60585,1.306915 3.78019,2.029735 4.76624,2.933703 0.2821,0.258617 0.60952,0.470212 0.7276,0.470212 0.11808,0 0.2147,0.185621 0.2147,0.412491 0,0.226869 0.10228,0.349274 0.2273,0.27201 0.19368,-0.119706 1.10168,0.74232 4.40717,4.18404603 0.29338,0.305475 0.87512,1.061427 1.29275,1.67989 0.41763,0.61846397 0.84637,1.12447897 0.95277,1.12447897 0.18815,0 1.72911,2.183016 1.6342,2.315104 -0.0261,0.03638 0.19535,0.309026 0.49221,0.605878 0.52718,0.5271872 1.13227,1.6932509 1.17009,2.2548978 0.0104,0.1545987 0.35203,0.6142011 0.75917,1.0213366 0.40883,0.4088315 0.67535,0.9093676 0.59529,1.1179889 -0.0797,0.2077587 0.0316,0.4455054 0.24747,0.5283252 0.21582,0.082823 0.39241,0.318056 0.39241,0.522743 0,0.370504 0.51778,1.435925 0.82029,1.687893 0.32204,0.268237 0.80542,1.372896 0.66306,1.515266 -0.0809,0.08087 0.20714,0.792374 0.64002,1.581134 0.43288,0.78876 0.78705,1.76412 0.78705,2.167467 0,0.403344 0.0824,0.815797 0.1832,0.916561 0.10077,0.100764 0.22284,0.442862 0.27127,0.760217 0.0484,0.317354 0.21862,0.657704 0.37821,0.756333 0.15958,0.09863 0.23457,0.341921 0.16663,0.540652 -0.0679,0.198731 0.085,0.851283 0.33993,1.450117 0.55224,1.297419 1.18678,4.364102 1.58009,7.636439 0.15702,1.306375 0.39364,7.140437 0.52581,12.964583 0.20095,8.854688 0.32801,11.039823 0.77566,13.339262 0.68296,3.508234 1.48859,6.451829 2.18012,7.965717 0.29913,0.654844 0.56163,1.310703 0.58334,1.457462 0.0217,0.146762 0.61388,1.262706 1.31595,2.479876 1.19248,2.06741 5.04031,6.381411 5.69183,6.381411 0.37919,0 1.87936,0.896684 1.88128,1.12448 8e-4,0.10914 0.1881,0.198437 0.41594,0.198437 0.22785,0 0.67434,0.145886 0.99219,0.324189 1.708181,0.958223 6.635291,1.269711 9.698461,0.613135 1.91417,-0.410295 2.22269,-0.341384 1.97438,0.440994 -0.11429,0.360087 -0.0738,0.479708 0.12153,0.358992 0.66109,-0.408578 0.21059,0.518194 -1.1237,2.311669 -5.0623,6.804446 -11.953701,9.880547 -19.700981,8.793895 l -1.40615,-0.197231 0.18731,1.019366 c 0.10301,0.560652 0.2893,1.059053 0.41396,1.107559 0.12466,0.04851 0.22665,0.316399 0.22665,0.595312 0,0.278916 0.11104,0.507119 0.24676,0.507119 0.13571,0 0.32942,0.260459 0.43045,0.5788 0.10104,0.318339 0.80187,1.895917 1.55741,3.505729 1.27796,2.722941 2.09668,4.59717 2.1454,4.911306 0.0113,0.0728 0.23827,0.60854 0.50442,1.19062 1.05355,2.30425 1.20253,2.68561 1.4686,3.75914 0.15176,0.61232 0.39175,1.1849 0.53332,1.27239 0.14157,0.0875 0.25739,0.37412 0.25739,0.63695 0,0.26283 0.23075,0.77121 0.51277,1.12974 0.28202,0.35853 0.59384,0.99967 0.69293,1.42475 0.0991,0.42507 0.32655,1.01099 0.50545,1.30203 0.17891,0.29104 0.48077,1.00542 0.67081,1.5875 0.19004,0.58209 0.67094,1.77271 1.06867,2.64584 0.822441,1.80547 1.177451,2.81583 1.096141,3.11957 -0.0308,0.11503 0.0939,0.47222 0.27708,0.79375 0.18319,0.32152 0.34275,0.70365 0.35456,0.84917 0.0118,0.14553 0.21276,0.68131 0.44653,1.19063 0.93188,2.03031 3.22951,9.92223 3.48769,11.97955 0.069,0.54964 0.20089,1.12148 0.29315,1.27076 0.0923,0.14928 0.21044,1.96176 0.26262,4.02774 0.12591,4.98474 -0.34119,7.0756 -2.42455,10.85295 -1.50221,2.72368 -5.841741,5.18283 -10.551141,5.97919 -4.22773,0.71491 -12.54795,0.95105 -22.35729,0.63453 z m 20.90208,-3.65022 c 3.27946,-0.59464 5.04226,-1.22495 6.78755,-2.42698 1.823661,-1.256 2.546221,-2.22204 3.570631,-4.77381 1.13198,-2.81975 1.26486,-5.40304 0.51454,-10.00309 -0.30857,-1.89177 -0.67312,-3.8563 -0.81012,-4.36562 -0.5183,-1.92701 -1.636841,-5.72949 -1.984661,-6.74688 -0.90711,-2.65336 -3.69324,-10.16468 -4.14104,-11.16413 -0.27352,-0.61047 -0.49731,-1.1943 -0.49731,-1.29738 0,-0.10308 -0.28707,-0.79423 -0.63793,-1.53588 -0.35086,-0.74166 -1.01519,-2.30096 -1.47629,-3.46512 -1.0003,-2.52547 -2.86781,-6.958343 -3.20313,-7.603164 -0.1314,-0.252688 -0.2389,-0.651036 -0.2389,-0.885219 0,-0.234183 -0.16355,-0.741815 -0.36344,-1.128069 -0.57345,-1.108118 -1.7106,-3.812069 -1.90876,-4.538739 -0.0992,-0.363803 -0.25362,-0.72099 -0.34315,-0.79375 -0.0895,-0.07276 -0.61897,-1.084792 -1.17652,-2.248959 -0.55757,-1.164166 -1.14426,-2.354791 -1.30376,-2.645833 -0.1595,-0.291041 -0.46753,-0.886354 -0.6845,-1.322916 -0.21696,-0.436563 -0.49147,-0.972344 -0.61001,-1.190625 -0.11853,-0.218282 -0.94134,-1.825625 -1.82846,-3.571875 -1.85098,-3.643572 -2.00208,-3.934259 -2.37242,-4.564062 -0.14974,-0.254662 -0.34863,-0.701146 -0.44198,-0.992188 -0.0933,-0.291042 -0.63989,-1.422135 -1.21456,-2.513541 -0.57466,-1.091407 -1.97012,-3.770313 -3.10101,-5.953125 -2.31008,-4.458816 -2.78292,-5.337405 -4.7185,-8.767498 -0.7503,-1.329623 -1.36418,-2.510874 -1.36418,-2.625 0,-0.114125 -0.1712,-0.396673 -0.38044,-0.627885 -0.20924,-0.231209 -0.88313,-1.431208 -1.49753,-2.666666 -0.61439,-1.235456 -1.48799,-2.841596 -1.94133,-3.5692 -0.45334,-0.727604 -1.22729,-2.096823 -1.71988,-3.042708 -0.49259,-0.945886 -1.21744,-2.196042 -1.61077,-2.778125 -0.39333,-0.582084 -0.97433,-1.534584 -1.29113,-2.116667 -0.6529,-1.199631 -1.58458,-2.522831 -2.23274,-3.170994 -0.24128,-0.241273 -0.43868,-0.528426 -0.43868,-0.638117 0,-0.109691 -0.54294,-0.904856 -1.20653,-1.767038 -1.08434,-1.408845 -2.78499,-3.130764 -6.64394,-6.727041 -2.6321,-2.452937 -7.74403,-6.044965 -10.87847,-7.644038 -1.20981,-0.617199 -1.22638,-0.607065 -1.46715,0.897229 -0.0699,0.436562 -0.20795,1.210468 -0.30683,1.719791 -0.1784,0.918962 -0.16959,0.92963 1.15199,1.395061 1.52546,0.537234 2.24242,1.379109 2.69074,3.159514 0.25378,1.00788 0.42745,1.234398 1.04037,1.356982 0.74766,0.149532 4.75305,1.994585 5.67269,2.613083 0.27715,0.186396 1.11058,0.726868 1.85208,1.201049 2.35682,1.50717 5.04204,4.403206 6.16162,6.645378 0.9649,1.932382 1.00621,2.12349 0.97946,4.531016 -0.0153,1.382448 -0.11726,3.172431 -0.22646,3.97774 -0.19039,1.40412 -0.16282,1.50454 0.67192,2.447396 0.47875,0.540758 0.95253,0.983197 1.05285,0.983197 0.2306,0 4.12877,2.312715 5.01191,2.973477 1.82875,1.368269 4.12268,4.683141 4.80837,6.948397 0.38577,1.274445 0.27717,4.725411 -0.18867,5.995083 -0.23179,0.631767 -0.48155,1.336325 -0.55502,1.565685 -0.0895,0.279289 0.35062,0.782598 1.33252,1.523941 1.83171,1.382954 2.07406,1.838407 2.11252,3.970073 l 0.0309,1.713079 1.85209,0.614834 c 3.04171,1.009756 5.68854,2.61521 5.68854,3.450436 0,0.192037 0.1357,0.34916 0.30156,0.34916 0.43041,0 0.93664,0.695672 1.82909,2.513542 0.72862,1.48418 0.77936,1.790178 0.77955,4.701611 2.4e-4,3.476056 -0.0433,3.361854 2.54307,6.675471 0.68149,0.873125 1.72558,2.596671 2.3202,3.830106 1.0071,2.089051 1.08736,2.424201 1.1721,4.894791 0.0676,1.97178 -0.0424,3.2168 -0.42906,4.85303 -0.71329,3.01866 -0.45204,4.02003 1.37378,5.26569 3.41296,2.32848 5.24378,5.78551 5.28198,9.97366 0.0107,1.17644 -0.082,2.99983 -0.20599,4.05199 -0.17912,1.51957 -0.13896,2.14535 0.19525,3.0427 0.97224,2.61043 0.63173,6.93344 -0.78141,9.92057 -1.27386,2.69272 -4.06652,4.96601 -7.88322,6.41711 -1.43409,0.54524 -0.62072,1.22676 2.76351,2.31552 0.80037,0.25749 1.39568,0.58723 1.32292,0.73275 -0.0735,0.14698 -1.13186,0.2584 -2.38125,0.25068 -1.89533,-0.0117 -2.54314,-0.13975 -4.1198,-0.8143 -5.41623,-2.31722 -9.2208,-6.34936 -14.44724,-15.31138 -0.93351,-1.60073 -2.04346,-3.56526 -2.46655,-4.36563 -0.42309,-0.80036 -1.28609,-2.40771 -1.91777,-3.57187 -0.63168,-1.16417 -1.52679,-2.89058 -1.98912,-3.83646 -0.46234,-0.94589 -0.993,-1.87712 -1.17923,-2.06942 -0.18624,-0.19229 -0.33862,-0.44706 -0.33862,-0.56614 0,-0.11908 -0.86984,-1.80722 -1.93297,-3.75141 -1.06313,-1.9442 -2.62481,-4.90412 -3.4704,-6.57761 -0.84559,-1.67349 -1.98359,-3.87615 -2.5289,-4.89479 -2.78873,-5.209488 -9.79481,-19.17817 -9.79481,-19.528859 0,-0.221697 -0.1024,-0.442775 -0.22754,-0.491283 -0.42016,-0.162857 -2.16653,-3.689596 -1.98437,-4.007377 0.099,-0.172783 0.0801,-0.223337 -0.0421,-0.112345 -0.12219,0.110993 -0.72199,-0.781976 -1.33288,-1.984374 -0.61089,-1.202399 -1.66109,-3.170079 -2.33379,-4.372618 -0.67269,-1.202542 -1.22307,-2.261317 -1.22307,-2.352836 0,-0.09152 -0.91209,-1.846062 -2.02687,-3.89898 -1.90345,-3.505295 -2.6339,-4.867899 -4.92829,-9.193415 -0.51248,-0.966169 -1.10797,-2.037731 -1.3233,-2.38125 -0.21533,-0.343519 -1.91282,-3.482081 -3.7722,-6.974581 -1.85938,-3.492499 -3.61526,-6.766718 -3.90196,-7.276041 -2.16944,-3.854024 -3.09738,-5.591476 -3.09738,-5.799415 0,-0.133046 -0.0991,-0.281591 -0.22023,-0.330099 -0.12113,-0.04851 -0.73306,-0.981163 -1.35985,-2.072569 C 7.6822989,22.846783 4.3566889,18.4561 0.61782895,16.025881 -1.3415511,14.752304 -2.8071311,14.272101 -5.9743411,13.865921 c -2.11322,-0.271008 -2.36364,-0.254254 -2.96513,0.198392 -1.6693799,1.256271 -5.6905499,7.819355 -6.9493899,11.342317 -0.25999,0.727604 -0.551507,1.441979 -0.647812,1.5875 -0.233858,0.353359 -1.087686,3.003127 -2.216658,6.879166 -1.20736,4.145156 -4.594124,14.339175 -5.186259,15.610416 -0.135565,0.291042 -0.682885,1.481667 -1.216263,2.645834 -2.235047,4.878254 -2.690117,5.725635 -4.688959,8.731249 -2.74247,4.123793 -5.006239,6.847014 -8.687776,10.451041 -3.012818,2.949387 -3.924467,3.749336 -6.536158,5.735315 l -1.943089,1.477563 2.114669,2.015955 c 1.163068,1.108779 2.542127,2.692744 3.064576,3.519924 1.090887,1.727179 1.994156,3.899212 1.82273,4.383013 -0.06445,0.181901 -0.0046,0.330729 0.132919,0.330729 0.731356,0 1.120246,6.280224 0.582713,9.410261 -0.351115,2.044534 -1.638956,5.087884 -3.096424,7.317294 -1.251752,1.91473 -4.592042,5.15956 -5.56365,5.40464 -0.327422,0.0826 -0.595313,0.24076 -0.595313,0.35149 0,0.3799 -3.171634,1.57661 -5.34639,2.01727 -7.313146,1.48183 -14.879674,-1.68579 -18.961009,-7.93777 -2.2963,-3.51758 -3.188705,-7.558803 -2.68405,-12.154615 0.449858,-4.096795 0.449787,-4.024194 0.0039,-3.91037 -0.218281,0.05573 -3.238564,0.161116 -6.711738,0.234196 l -6.314861,0.132871 -0.649845,1.41945 c -0.357415,0.780698 -0.756444,1.41945 -0.88673,1.41945 -0.130286,0 -0.170717,0.172429 -0.08985,0.383175 0.08087,0.210748 -0.02183,0.716764 -0.228206,1.124479 -0.206385,0.407717 -1.103717,2.229585 -1.994074,4.048596 -1.975541,4.036058 -3.338692,6.314638 -5.449996,9.109968 -2.181486,2.88826 -6.541636,7.20883 -8.570716,8.49292 l -1.65956,1.05023 -4.12076,8.04025 c -5.77757,11.27291 -6.14037,12.36619 -5.16708,15.57052 0.67892,2.23518 1.86205,3.66987 3.92174,4.75554 2.92185,1.54013 4.05228,1.67428 18.474797,2.19247 10.602502,0.38095 13.739637,0.49977 21.034374,0.79671 3.56526,0.14513 10.351822,0.38034 15.081249,0.52269 4.729427,0.14235 9.849114,0.31834 11.377083,0.39108 1.527968,0.0727 6.885781,0.25751 11.906249,0.4106 5.020469,0.15309 12.283281,0.39195 16.139583,0.53079 3.856304,0.13885 9.5117639,0.31888 12.5677039,0.40006 3.05594,0.0812 8.83047,0.26089 12.83229,0.39933 4.00183,0.13845 11.5622901,0.37337 16.8010401,0.52204 11.54857,0.32776 22.94164,0.68507 33.73438,1.058 4.43838,0.15336 9.26041,0.31623 10.71562,0.36194 1.45521,0.0457 6.93208,0.0563 12.17083,0.0235 7.6677,-0.048 10.01513,-0.14849 12.03854,-0.51538 z M -28.970449,128.93429 c -0.363802,-0.15827 -0.780521,-0.3013 -0.926042,-0.31784 -0.14552,-0.0165 -0.782486,-0.30472 -1.415481,-0.64037 -1.746205,-0.92596 -3.543548,-2.95513 -4.660659,-5.26179 -0.548087,-1.13172 -1.091345,-2.24765 -1.207243,-2.47985 -0.67119,-1.34475 -1.353629,-5.95674 -1.483185,-10.02356 -0.123942,-3.8905 -0.08603,-4.47271 0.34491,-5.29696 0.696035,-1.33129 1.699229,-1.39368 2.96522,-0.1844 1.268159,1.21135 1.897123,1.50731 3.203226,1.50731 1.17435,0 2.149678,-0.41541 3.890457,-1.65704 0.609441,-0.4347 1.390218,-0.79035 1.735058,-0.79035 0.344839,0 1.431308,0.55066 2.414375,1.2237 1.479095,1.01263 1.994387,1.22369 2.987456,1.22369 1.435026,0 2.507025,-0.47164 3.907782,-1.71928 0.572137,-0.50961 1.230254,-0.92655 1.462484,-0.92655 0.56577,0 1.6426,0.77261 1.46879,1.05384 -0.0761,0.12313 0.0112,0.2738 0.19402,0.33481 0.25329,0.0845 0.33237,1.49058 0.33237,5.90958 0,5.94173 -0.19739,7.48012 -1.34987,10.51999 -0.58221,1.5357 -2.138079,3.84036 -3.371135,4.99358 -1.344475,1.25743 -4.187965,2.70723 -4.929401,2.51334 -0.295228,-0.0772 -0.470056,-0.0324 -0.388507,0.0995 0.210551,0.34068 -4.370032,0.26864 -5.174625,-0.0814 z m 5.999604,-3.65608 c 3.137805,-1.34449 5.326504,-4.95168 5.809903,-9.57531 0.23821,-2.27844 0.19771,-2.61318 -0.368998,-3.04992 -0.80885,-0.62335 -3.901543,-0.30208 -6.148843,0.63874 -1.126302,0.47152 -2.993471,1.44715 -3.174999,1.65899 -0.07276,0.0849 -0.572233,0.4488 -1.109941,0.80864 -0.537704,0.35983 -1.102222,0.92766 -1.254479,1.26183 -0.15226,0.33417 -0.456459,0.67652 -0.676,0.76076 -0.219541,0.0842 -0.399164,0.32322 -0.399164,0.53105 0,0.20783 -0.184528,0.6595 -0.410061,1.00371 -0.225536,0.34421 -0.479047,1.44867 -0.563359,2.45435 l -0.153297,1.82851 1.127302,0.96493 c 0.811292,0.69444 1.469861,1.00982 2.349296,1.12504 0.672098,0.088 1.400588,0.19188 1.618869,0.23072 0.720146,0.12815 2.231546,-0.16119 3.353771,-0.64204 z M 4.2450589,112.83582 c -4.57640995,-0.70773 -8.05401,-2.47708 -11.0963,-5.64564 -3.5345899,-3.68128 -5.3225399,-7.779579 -5.6347099,-12.915697 -0.29025,-4.775591 0.76599,-8.683762 3.5446999,-13.115771 0.24785,-0.395314 1.40885,-1.671251 2.57999,-2.835418 3.08171,-3.063351 6.47560005,-4.779436 10.7838,-5.45271 2.24953,-0.351552 6.1577401,-0.15947 7.9000801,0.388276 8.09655,2.545329 14.00485,10.620366 14.00485,19.140828 0,3.720658 -0.56745,6.108924 -2.34311,9.861752 -2.13017,4.50205 -7.50986,8.92205 -12.36242,10.15707 -2.0803301,0.52947 -5.4273301,0.71881 -7.3768801,0.41731 z m -2.68044,-7.63376 c 1.89503,-1.83674 1.85556,-4.43585 -0.0941,-6.197259 -1.82742995,-1.65097 -4.18064,-1.628042 -5.86584,0.05716 -1.58033,1.580329 -1.70757,3.944459 -0.30219,5.614659 0.99194,1.17885 2.04365,1.58431 3.84199005,1.48116 1.30348,-0.0748 1.65408,-0.21321 2.42014995,-0.95572 z m 10.9661401,-4.89851 c 1.91309,-0.989297 1.74168,-3.764702 -0.29764,-4.819278 -2.3922401,-1.237076 -4.9499501,1.756338 -3.4529101,4.041108 0.7509,1.14601 2.3839901,1.48485 3.7505501,0.77817 z m -0.92255,-7.873795 c 3.24425,-1.652283 4.71648,-3.972867 4.70005,-7.408391 -0.0207,-4.318489 -3.74851,-7.888695 -8.2370401,-7.888695 -3.46082,0 -6.79846,2.260627 -7.80302995,5.285094 -1.47963005,4.454747 1.28378995,9.430546 5.87619995,10.58065 1.4531,0.363911 4.1925501,0.0788 5.4638201,-0.568658 z m 1.73524,-23.503209 c -1.79494,-1.17416 -5.1562601,-1.948886 -7.6542901,-1.764183 -1.79382,0.132635 -4.23363,0.818454 -5.26717995,1.480576 -0.2056,0.13171 -0.56207,0.139838 -0.79375,0.0181 -0.23131,-0.121542 -0.62891005,-0.285472 -0.88358005,-0.364289 -0.76699,-0.237379 -0.55243,-1.382334 0.47144005,-2.515627 0.59492,-0.658505 1.58031,-1.306628 2.71197995,-1.783749 1.63353,-0.688713 2.04544,-0.749231 5.08481,-0.747088 3.8341901,0.0027 5.3944701,0.464643 7.6850501,2.275245 1.65249,1.306218 2.32916,2.569315 1.89129,3.530343 -0.42819,0.939771 -1.6882,0.889569 -3.24577,-0.129323 z m 69.63678,74.814974 c 0.15225,-0.27224 0.56992,-0.46302 1.01366,-0.46302 0.52639,0 1.31833,-0.46026 2.61773,-1.52136 1.02466,-0.83674 1.86975,-1.66306 1.87797,-1.83626 0.008,-0.1732 0.36948,-0.99821 0.80278,-1.83336 0.62667,-1.20786 0.82426,-2.00114 0.96596,-3.87814 0.11148,-1.47687 0.0795,-2.42425 -0.0854,-2.53226 -0.14496,-0.0949 -0.69205,-1.12508 -1.21577,-2.28925 -1.02844,-2.28613 -0.75355,-2.05069 -4.9505,-4.24006 -0.65484,-0.3416 -1.65359,-1.09704 -2.21943,-1.67875 -0.9538,-0.98055 -1.01612,-1.13692 -0.85492,-2.14504 0.0956,-0.59806 0.27848,-1.29054 0.40633,-1.53885 0.12785,-0.2483 0.43549,-0.98724 0.68364,-1.64209 0.24816,-0.65484 0.55424,-1.39128 0.68018,-1.63653 0.48977,-0.95377 0.53303,-3.51568 0.0907,-5.37492 -0.39203,-1.64805 -0.59541,-2.0009 -1.84613,-3.20289 -0.77306,-0.74294 -2.03802,-1.65357 -2.81101,-2.02362 -1.35094,-0.64672 -1.6107,-0.6742 -6.69712,-0.70842 -5.98553,-0.0403 -6.40742,-0.14965 -8.53281,-2.21216 -0.99823,-0.9687 -1.12437,-1.22613 -1.12349,-2.2929 5.3e-4,-0.733735 0.20667,-1.539021 0.52917,-2.067971 0.29049,-0.476459 0.52817,-1.032849 0.52817,-1.236419 0,-0.20357 0.33563,-0.706707 0.74584,-1.118084 0.4102,-0.411374 0.96398,-1.081955 1.23063,-1.490176 0.26664,-0.40822 0.79422,-0.804092 1.1724,-0.879713 0.60685,-0.121348 0.68513,-0.261069 0.66666,-1.189873 -0.0115,-0.578808 0.14021,-1.363009 0.33718,-1.742665 0.19697,-0.379659 0.36353,-1.474748 0.37014,-2.433534 0.013,-1.893221 -0.0995,-2.61361 -0.5356,-3.428471 -0.15569,-0.29092 -0.28308,-0.705302 -0.28308,-0.920853 0,-0.696987 -2.95798,-3.323929 -4.10104,-3.642079 -0.58208,-0.162013 -1.23693,-0.357032 -1.45521,-0.433377 -0.21828,-0.07635 -0.57547,-0.161925 -0.79375,-0.190178 -0.79459,-0.102843 -1.5875,-0.445849 -1.5875,-0.686741 0,-0.135713 -0.23398,-0.246753 -0.51996,-0.246753 -0.66261,0 -2.26724,-1.402834 -3.08329,-2.69553 -0.64127,-1.015839 -0.88338,-3.259214 -0.4101,-3.799991 0.52805,-0.603356 0.82002,-2.483868 0.65736,-4.233891 -0.19647,-2.113788 -0.98191,-3.819869 -2.30802,-5.013296 -1.81089,-1.629698 -2.30079,-1.780881 -9.9464,-3.069468 -0.94589,-0.15942 -2.09062,-0.516014 -2.54385,-0.792435 -1.14212,-0.696561 -2.70322,-2.775032 -2.90928,-3.873458 -0.20674,-1.101965 0.21708,-2.643248 1.00078,-3.639565 0.31623,-0.402024 0.79254,-1.13252 1.05845,-1.623325 0.26591,-0.490805 0.71285,-1.317088 0.99318,-1.836182 0.28034,-0.519096 0.80834,-1.220581 1.17335,-1.558853 0.42943,-0.397986 0.61585,-0.797804 0.52822,-1.132901 -0.0745,-0.284821 0.11144,-0.922793 0.41316,-1.417709 0.3849,-0.631349 0.54889,-1.349147 0.54958,-2.405591 5.3e-4,-0.831599 0.13466,-1.588352 0.29955,-1.690262 0.20561,-0.127071 0.16926,-0.256879 -0.11675,-0.416936 -0.23974,-0.134164 -0.48505,-0.761833 -0.58028,-1.484741 -0.16767,-1.272841 -1.23845,-3.866239 -1.71893,-4.163192 -0.14512,-0.08969 -0.26385,-0.414012 -0.26385,-0.720717 0,-0.306707 -0.0678,-0.489876 -0.15061,-0.407043 -0.0828,0.08283 -0.64838,-0.402648 -1.25677,-1.078846 -1.46213,-1.625095 -1.55199,-1.688182 -3.4456,-2.418972 -1.90286,-0.734353 -2.57579,-1.230558 -2.37576,-1.75183 0.10247,-0.267028 0.0135,-0.324956 -0.30913,-0.201168 -0.56563,0.217051 -0.92069,-0.306845 -0.92069,-1.358471 0,-0.735766 0.48052,-1.91475 0.53918,-1.322917 0.07,0.705811 0.74383,-3.08384 0.75864,-4.266406 0.0256,-2.040247 -0.23025,-3.009635 -0.79422,-3.009635 -0.26426,0 -0.55406,0.119062 -0.644,0.264583 -0.0899,0.145521 -0.43918,0.264583 -0.7761,0.264583 -0.33692,0 -1.13356,0.18899 -1.77032,0.419979 -3.41492,1.238779 -12.3495,1.80009 -17.86455,1.122331 -2.1311901,-0.261909 -2.5573201,-0.251688 -2.7577401,0.06615 -0.15715,0.249232 -0.10495,0.474916 0.1549,0.669671 0.21557,0.161565 0.39194,0.471122 0.39194,0.687906 0,0.216786 0.3571801,0.887237 0.7937501,1.489895 0.43656,0.602657 0.79375,1.213088 0.79375,1.356516 0,0.143425 0.29765,0.455805 0.66146,0.694179 0.3638,0.238371 0.66145,0.615204 0.66145,0.837404 0,0.2222 0.47625,1.158086 1.05834,2.079752 0.58208,0.921663 1.05833,1.779278 1.05833,1.905812 0,0.126534 0.2304,0.438573 0.512,0.693417 0.44151,0.399555 1.67759,2.616346 1.72178,3.08783 0.008,0.08903 0.52377,0.954024 1.14538,1.922196 0.62161,0.968171 1.55856,2.562201 2.08211,3.542283 0.52355,0.980086 1.23535,2.160985 1.58178,2.624217 0.34643,0.463233 0.62987,0.950521 0.62987,1.082863 0,0.132345 0.29879,0.765365 0.66399,1.406718 0.3652,0.64135 0.73412,1.366216 0.81982,1.610812 0.0857,0.244595 0.32269,0.508749 0.52663,0.587008 0.20394,0.07826 0.37081,0.427069 0.37081,0.775131 0,0.348062 0.29765,1.071462 0.66145,1.607553 0.36381,0.536093 0.66146,1.148019 0.66146,1.359839 0,0.211817 0.0952,0.385125 0.21143,0.385125 0.11629,0 0.36048,0.41217 0.54264,0.915937 0.18217,0.503766 0.72528,1.488813 1.20692,2.18899 0.48164,0.70018 0.95486,1.522463 1.05161,1.827295 0.0967,0.304831 0.411,0.766987 0.69832,1.027014 0.28733,0.260027 0.52242,0.733528 0.52242,1.052222 0,0.318693 0.23812,0.794943 0.52916,1.058333 0.29104,0.26339 0.52917,0.682503 0.52917,0.931368 0,0.248861 0.23812,0.755205 0.52917,1.125204 0.29104,0.369998 0.53884,0.83254 0.55068,1.027869 0.0118,0.195328 0.36262,0.950455 0.77952,1.678059 0.41691,0.727604 0.94461,1.709869 1.17267,2.182812 0.22805,0.472943 0.52733,0.859896 0.66506,0.859896 0.13772,0 0.39352,0.477663 0.56843,1.061476 0.17492,0.583811 0.47735,1.193702 0.67208,1.355313 0.19473,0.16161 0.35406,0.464706 0.35406,0.673544 0,0.208838 0.31282,0.9384 0.69516,1.62125 1.62387,2.900191 2.74442,5.100399 2.74442,5.388705 0,0.169998 0.19182,0.521047 0.42627,0.780108 0.23445,0.259064 1.70891,3.006876 3.27658,6.106253 1.56767,3.099374 3.19155,6.2944 3.60863,7.100059 0.41707,0.805658 0.97046,1.936752 1.22976,2.513541 0.25929,0.576789 0.8717,1.763083 1.36091,2.636208 0.4892,0.873125 1.32583,2.477754 1.85916,3.565845 0.53334,1.088088 1.08458,2.049334 1.22498,2.136104 0.1404,0.0868 0.30236,0.38715 0.3599,0.66749 0.18325,0.89272 0.89736,2.39283 1.29694,2.72445 0.21241,0.17629 0.46533,0.6358 0.56204,1.02113 0.0967,0.38534 0.38527,1.00553 0.64122,1.37821 0.25596,0.37268 0.62801,1.09432 0.82677,1.60364 0.19876,0.50932 0.51721,1.02126 0.70766,1.13763 0.19044,0.11637 0.34626,0.48874 0.34626,0.8275 0,0.33875 0.16859,0.75582 0.37464,0.92683 0.20604,0.171 1.04517,1.664 1.86472,3.31778 0.81955,1.65377 1.66299,3.15036 1.87432,3.32575 0.21133,0.17539 0.38424,0.44887 0.38424,0.60774 0,0.39158 2.08838,4.42587 2.59045,5.00417 0.22109,0.25466 0.30986,0.46302 0.19728,0.46302 -0.11259,0 0.0874,0.38695 0.44436,0.85989 0.35699,0.47294 1.04448,1.66799 1.52777,2.65566 0.48328,0.98766 0.97886,1.85765 1.10127,1.93331 0.12242,0.0757 0.51159,0.76941 0.86483,1.54168 0.35324,0.77226 0.82988,1.47611 1.05919,1.56411 0.22931,0.088 0.41693,0.36085 0.41693,0.60634 0,0.24549 0.29766,0.8366 0.66146,1.31357 0.3638,0.47697 0.66146,0.97746 0.66146,1.11221 0,0.13475 0.41556,0.76778 0.92347,1.40672 0.50791,0.63894 0.92463,1.30635 0.92604,1.48313 0.001,0.17679 0.2407,0.44887 0.53174,0.60463 0.29104,0.15576 0.52916,0.43432 0.52916,0.61904 0,0.18471 0.94455,1.30481 2.099,2.4891 l 2.099,2.15327 1.88854,-0.051 c 1.48859,-0.0402 1.94338,-0.14908 2.14748,-0.51404 z m 7.14054,-20.49155 c 0.0434,-2.8483 -1.04337,-5.8489 -2.62137,-7.2379 -0.65231,-0.5742 -1.33341,-1.04399 -1.51355,-1.04399 -0.34013,0 -0.76818,0.8833 -1.08882,2.24684 -0.10239,0.4354 -0.46944,1.50696 -0.81567,2.38125 l -0.62952,1.58962 1.03079,0.92604 c 0.56693,0.50933 1.37637,1.10117 1.79875,1.31521 0.42238,0.21404 1.28597,0.85263 1.9191,1.41909 1.5119,1.35269 1.88006,1.04667 1.92029,-1.59616 z m -2.93914,1.5077 c 0,-0.14552 -0.12609,-0.26459 -0.2802,-0.26459 -0.15411,0 -0.20661,0.11907 -0.11668,0.26459 0.0899,0.14552 0.21603,0.26458 0.2802,0.26458 0.0642,0 0.11668,-0.11906 0.11668,-0.26458 z M -113.26125,115.4824 c 1.44518,-0.37218 5.31328,-2.41129 6.05059,-3.18964 0.26033,-0.27482 0.58248,-0.49968 0.71589,-0.49968 0.62554,0 4.93317,-4.85576 7.630644,-8.60164 1.910895,-2.65358 6.39368,-11.70652 6.39368,-12.911972 0,-0.692002 -0.723728,-1.319652 -1.392055,-1.207254 -0.614529,0.103349 -5.273365,-0.838608 -5.606174,-1.133496 -0.346085,-0.306655 -1.401595,-0.280342 -1.599495,0.03987 -0.0893,0.14442 -0.32401,1.186217 -0.52168,2.315104 -0.54825,3.131092 -1.55582,6.582507 -2.61992,8.974547 -0.52837,1.187741 -0.96068,2.231901 -0.96068,2.320361 0,0.0885 -0.3191,0.66448 -0.70912,1.28005 -0.39001,0.61558 -0.8549,1.39819 -1.03307,1.73914 -0.65493,1.25322 -3.34361,4.05741 -3.6227,3.77832 -0.18364,-0.18365 -0.0247,-0.56546 0.49692,-1.19354 1.55648,-1.87425 2.69831,-3.50342 3.35866,-4.79219 1.20908,-2.35971 3.02829,-7.361577 3.36807,-9.26042 0.18228,-1.018646 0.47192,-2.590009 0.64364,-3.491918 0.17912,-0.940786 0.21633,-1.811186 0.0873,-2.041794 -0.25709,-0.459386 -2.10875,-1.332471 -3.42198,-1.613506 -0.48812,-0.10446 -1.04793,-0.319458 -1.24402,-0.477771 -0.19609,-0.158314 -0.59983,-0.324975 -0.89719,-0.370354 -0.29736,-0.04538 -0.97036,-0.301061 -1.49555,-0.568179 -1.33603,-0.679516 -3.98364,-1.887519 -4.13692,-1.887519 -0.0702,0 -0.0563,1.339453 0.0307,2.976562 0.14764,2.775707 -0.30839,7.047659 -0.84504,7.915981 -0.43436,0.702808 -0.54889,-0.396454 -0.25274,-2.425877 0.45408,-3.111687 0.0505,-8.229165 -0.72631,-9.209558 -0.15079,-0.190307 -0.69874,-0.523412 -1.21766,-0.74023 -0.51892,-0.216821 -1.18324,-0.61055 -1.47627,-0.874956 -0.29303,-0.264403 -1.12809,-0.816575 -1.85569,-1.227047 -0.72761,-0.410472 -1.75167,-1.111192 -2.27569,-1.557155 -0.52403,-0.445966 -1.52902,-1.287095 -2.23334,-1.869178 -0.70431,-0.582083 -1.6802,-1.415521 -2.16865,-1.852083 -1.09177,-0.975805 -4.03795,-4.532233 -4.03795,-4.87435 0,-0.137152 -0.23203,-0.323011 -0.51563,-0.41302 -0.2836,-0.09001 -0.58928,-0.395692 -0.67929,-0.679288 -0.16926,-0.533287 -0.65716,-0.718963 -0.65716,-0.250092 0,0.342222 0.97116,2.157841 1.26174,2.358884 0.12219,0.08454 0.64332,1.049062 1.15807,2.143392 0.51476,1.094333 1.10664,2.165895 1.3153,2.38125 0.65362,0.674584 3.13963,4.452435 3.92119,5.958811 0.91365,1.760976 1.75427,3.866689 2.10808,5.280662 0.14565,0.582084 0.35396,1.415521 0.46289,1.852083 0.26478,1.061104 0.25816,5.798696 -0.0101,7.225207 -0.3513,1.868107 -1.37953,4.197559 -2.4055,5.449613 -1.25463,1.53111 -3.60253,3.33247 -4.34354,3.33247 -0.32121,0 -0.9069,0.16697 -1.30154,0.37105 -0.69446,0.35912 -1.3112,0.50232 -3.68797,0.85631 -0.61846,0.0921 -1.12447,0.26439 -1.12447,0.38284 0,0.11845 0.38313,0.78305 0.8514,1.4769 2.04777,3.03422 4.79704,5.38583 8.60265,7.35835 1.41952,0.73577 1.63449,0.74797 4.43657,0.25184 0.58208,-0.10306 1.1774,-0.27831 1.32292,-0.38944 0.42915,-0.32772 1.42491,-0.40797 1.50626,-0.12139 0.0413,0.14552 -0.59638,0.50271 -1.41709,0.79375 -1.73565,0.61551 -1.99396,0.97835 -0.88292,1.24023 1.16232,0.27398 6.14181,0.0598 7.6519,-0.32904 z m 50.885622,-9.12464 c 0.669356,-0.64804 1.390597,-2.47978 1.390597,-3.53172 0,-0.38414 -0.280842,-1.23237 -0.624094,-1.88497 -0.717235,-1.36361 -1.92502,-2.111542 -3.410801,-2.112158 -0.590979,-2.44e-4 -0.992188,-0.12785 -0.992188,-0.315564 0,-0.173333 -0.16053,-0.09561 -0.356737,0.172715 -0.196205,0.268325 -0.493861,0.403117 -0.661459,0.299538 -0.167595,-0.103582 -0.30472,-0.07026 -0.30472,0.07404 0,0.144301 -0.212366,0.329768 -0.471919,0.412149 -0.569648,0.180798 -1.209741,1.21749 -1.769242,2.86547 -0.401569,1.18279 -0.394621,1.25784 0.21871,2.36215 0.3484,0.6273 1.033531,1.41546 1.522512,1.75146 0.763337,0.52452 1.17021,0.60177 2.87731,0.54633 1.62823,-0.0529 2.095772,-0.16867 2.582031,-0.63944 z m 146.252897,-1.51277 c 0.35838,-3.34747 -0.6867,-6.359179 -3.4789,-10.025505 -2.20299,-2.892661 -2.29156,-3.137752 -2.4781,-6.857661 -0.14637,-2.918936 -0.25724,-3.514638 -0.87339,-4.693018 -0.41851,-0.800375 -0.63472,-1.534795 -0.53123,-1.804479 0.13718,-0.357473 0.0724,-0.415576 -0.30293,-0.271563 -0.31585,0.121203 -0.78672,-0.05269 -1.39123,-0.513771 -0.86138,-0.657005 -3.58793,-1.768456 -6.55757,-2.673125 -3.05755,-0.931452 -4.16963,-1.726303 -5.14349,-3.676274 -0.58224,-1.165815 -0.61176,-1.40368 -0.35803,-2.884971 0.1521,-0.887918 0.65301,-2.472164 1.11315,-3.520549 0.96643,-2.20191 1.29087,-4.659545 0.83641,-6.335675 -0.16769,-0.618463 -0.40646,-1.124479 -0.5306,-1.124479 -0.12413,0 -0.29531,-0.277349 -0.38039,-0.616333 -0.25158,-1.002401 -3.26009,-4.068877 -4.90713,-5.001694 -0.95023,-0.538168 -1.48015,-0.999527 -1.40447,-1.222759 0.0863,-0.254614 -0.0319,-0.309798 -0.40796,-0.190439 -0.38739,0.122952 -0.90043,-0.148571 -1.91161,-1.011698 -1.8783,-1.60329 -2.1918,-2.272149 -2.1208,-4.524785 0.18408,-5.839679 0.15306,-6.299046 -0.51807,-7.672916 -0.58579,-1.19915 -5.06708,-5.953125 -5.61166,-5.953125 -0.11028,0 -0.76374,-0.357187 -1.45212,-0.79375 -1.30026,-0.8246 -1.94177,-0.994031 -1.94177,-0.512849 0,0.154493 0.40448,1.136758 0.89884,2.182812 1.23292,2.608829 1.22349,2.567175 1.24052,5.477589 0.0221,3.785754 -0.59371,5.523328 -3.60913,10.182656 -1.86167,2.876587 -2.16153,3.854106 -1.57873,5.146537 0.58183,1.290254 1.75643,1.846059 4.49944,2.129065 3.60492,0.37193 5.31735,0.774771 6.913,1.626256 2.3609,1.259848 3.93908,2.767372 4.92103,4.700714 0.8201,1.614673 0.86889,1.866707 0.84684,4.374161 -0.0129,1.463421 -0.11735,3.512645 -0.23219,4.55383 -0.28908,2.621069 -0.12586,2.783504 4.33155,4.310685 3.25906,1.116607 4.73002,2.118404 6.11392,4.163869 1.93862,2.865355 2.55401,5.687353 1.9805,9.081928 -0.20182,1.194578 -0.43248,1.694453 -1.52486,3.304619 -1.21421,1.789743 -1.63212,2.351972 -2.10173,2.827549 -0.67865,0.687269 -1.53233,2.488184 -1.53233,3.232578 0,0.36148 0.26871,0.96964 0.59714,1.35146 l 0.59715,0.69423 5.15754,0.0737 c 7.05964,0.10092 8.32175,0.4618 10.91659,3.12139 0.69363,0.71093 1.3689,1.22601 1.5006,1.14461 0.1317,-0.0814 0.31899,-0.89088 0.4162,-1.79885 z m -136.010612,-3.27043 c 0.62869,-0.24125 1.313098,-1.700494 1.225291,-2.612476 -0.19241,-1.998419 -1.193416,-2.733746 -3.269538,-2.40176 -1.685491,0.26952 -2.044941,0.739505 -2.044941,2.673789 0,1.408057 0.08621,1.706647 0.595313,2.061777 0.598564,0.41754 2.696035,0.58483 3.493875,0.27867 z m 0.390472,-7.386837 c 1.138251,-0.468055 2.134923,-1.236374 2.134923,-1.645779 0,-0.110628 0.302474,-0.527347 0.672166,-0.926042 0.369692,-0.398695 0.613892,-0.7249 0.542668,-0.7249 -0.07122,0 0.04302,-0.412896 0.253876,-0.917543 0.510929,-1.22283 0.489148,-4.05416 -0.04103,-5.334 -0.565674,-1.365512 -2.144877,-3.273457 -2.709434,-3.273457 -0.24892,0 -0.687435,0.163502 -0.974474,0.363337 -0.690361,0.480621 -6.067787,2.796836 -8.681076,3.739194 -2.350453,0.84758 -2.70873,1.316967 -2.321319,3.041206 0.127563,0.567745 0.167264,1.096933 0.08822,1.175975 -0.07904,0.07904 0.06844,0.378132 0.327729,0.664644 0.259906,0.287197 0.399042,0.709596 0.310089,0.941406 -0.08874,0.231259 -0.05323,0.35365 0.07891,0.271981 0.321175,-0.198499 1.890546,1.72635 1.682279,2.063332 -0.09636,0.155908 0.01405,0.196196 0.269296,0.09825 0.237939,-0.09131 0.584893,-0.02225 0.771006,0.153474 0.443246,0.418489 1.526897,0.932548 2.18327,1.035691 1.074664,0.16887 4.282099,-0.261782 5.412901,-0.726774 z m -17.907263,-6.117782 c -0.181901,-0.0734 -0.479558,-0.0734 -0.661459,0 -0.181901,0.0734 -0.03307,0.133453 0.330729,0.133453 0.363802,0 0.512631,-0.06006 0.33073,-0.133453 z m 28.773436,-0.338323 c 0,-0.136933 -0.119063,-0.322554 -0.264584,-0.412491 -0.14552,-0.08994 -0.264583,0.02209 -0.264583,0.248968 0,0.226869 0.119063,0.41249 0.264583,0.41249 0.145521,0 0.264584,-0.112035 0.264584,-0.248967 z m -33.866665,-2.104919 c 6.484352,-0.994312 13.141369,-3.034475 18.653124,-5.716585 2.480122,-1.206868 5.033695,-2.618705 5.650613,-3.124155 0.197422,-0.161747 0.580874,-0.417801 0.852117,-0.569002 3.593174,-2.002988 10.007578,-7.879693 13.892693,-12.728106 3.51367,-4.384871 7.168007,-10.966373 9.612617,-17.31243 0.476485,-1.236927 0.96547,-2.487083 1.086636,-2.778125 0.121163,-0.291042 0.457123,-1.303073 0.746574,-2.248958 1.529887,-4.999419 2.159297,-7.126338 2.427198,-8.202083 0.55254,-2.218685 2.694963,-8.323961 3.620989,-10.31875 0.506656,-1.091406 1.055399,-2.282031 1.21943,-2.645833 0.300472,-0.666412 2.246361,-3.694271 4.052631,-6.306018 1.62663,-2.352006 4.8660699,-5.3954549 7.8932599,-7.415702 3.52171,-2.3502805 9.62011,-4.7321125 13.63586,-5.32571547 2.4704201,-0.365173 7.3529001,-0.377727 9.1798201,-0.0236 4.1202,0.79863697 8.0894,3.94871797 10.37093,8.23068707 0.61808,1.1600074 1.22749,2.1091044 1.35424,2.1091044 0.6513,0 0.7632,-1.8631742 0.24955,-4.1551908 -0.28144,-1.2558103 -2.5078,-6.0231627 -3.10927,-6.65792467 -0.28235,-0.297973 -0.26433,-0.449516 0.1015,-0.853757 0.43582,-0.481574 0.90323,-0.457727 0.90323,0.04608 0,0.139824 0.28036,0.698344 0.62302,1.241155 0.63927,1.01266097 0.6941,1.14545797 0.70795,1.71453397 0.004,0.181901 0.13915,0.10495 0.29939,-0.171005 0.18827,-0.324218 0.2289,-1.213522 0.11483,-2.51354197 -0.15518,-1.76866803 -0.4001,-2.95483503 -1.49576,-7.24425403 -0.29925,-1.171533 -2.97701,-6.6946935 -3.55585,-7.3343025 -0.21876,-0.241731 -0.39774,-0.628568 -0.39774,-0.859644 0,-0.231077 -0.0893,-0.459825 -0.19844,-0.508334 -0.10914,-0.04851 -0.70485,-0.743037 -1.3238,-1.543401 -2.4344,-3.147915 -6.54236,-7.105716 -9.36453,-9.022215 -1.48464,-1.008197 -1.86653,-1.598009 -1.27243,-1.965185 0.27499,-0.169955 1.16893,0.305224 1.86947,0.993736 0.20232,0.198842 0.90363,0.729638 1.55848,1.179544 1.40449,0.964949 7.13888,6.686986 8.03767,8.02037 1.98429,2.943733 3.33941,5.10237 3.33941,5.319506 0,0.136448 0.29345,0.69202 0.65212,1.234604 0.78063,1.180914 1.87345,3.9962945 2.53965,6.5427635 1.18368,4.52448303 1.3959,5.90680103 1.45224,9.459253 0.0317,2.0011286 0.13389,3.6471675 0.22701,3.6578646 0.72909,0.083743 1.00714,-0.7439395 1.51781,-4.5181596 0.56121,-4.14766597 -0.26749,-11.277435 -1.77688,-15.2875105 -0.72668,-1.930608 -3.4309,-7.392809 -4.49291,-9.075141 -2.15223,-3.409355 -6.5899,-8.100465 -9.28834,-9.818814 -0.61467,-0.39142 -1.34424,-0.927201 -1.62125,-1.190625 -0.49298,-0.468792 -1.23357,-0.91313 -3.36466,-2.01871 -0.58208,-0.30198 -1.23693,-0.744958 -1.45521,-0.984398 -0.21828,-0.239443 -0.58486,-0.434226 -0.81461,-0.432851 -0.2297601,0.0013 -1.1822601,-0.367154 -2.1166701,-0.818946 -3.30854,-1.599702 -5.48818,-2.370733 -9.63642,-3.408812 -3.00901,-0.752988 -2.77355,-0.707326 -6.4823,-1.257123 -5.5147299,-0.817525 -8.4526759,-1.059677 -17.7270779,-1.461098 -2.399437,-0.103856 -3.88148,-0.262299 -3.571875,-0.38187 0.291042,-0.112398 0.70776,-0.311854 0.926042,-0.443233 0.612039,-0.368371 4.525663,-2.412232 5.490104,-2.867165 1.314018,-0.619829 1.032028,-0.884487 -0.79375,-0.744962 -6.19551,0.473459 -15.974832,3.127419 -20.27915,5.503456 -0.815557,0.450194 -2.304862,0.994265 -3.309573,1.209046 -1.00471,0.214778 -3.088303,0.845116 -4.630208,1.400751 -8.812524,3.175648 -14.33515,6.45224 -24.896171,14.770978 -2.222457,1.750592 -8.308567,7.544789 -11.035278,10.505987 -2.672027,2.901812 -3.413696,3.8048135 -6.193406,7.5406245 -1.028639,1.382448 -2.094061,2.811197 -2.367603,3.175 -0.273542,0.363802 -0.866894,1.287081 -1.318559,2.05173503 -0.451665,0.764651 -0.999259,1.568323 -1.216871,1.78593697 -0.217615,0.217612 -0.328406,0.395661 -0.246206,0.395661 0.0822,0 -0.372983,0.815054 -1.011517,1.811234 -0.63853,0.996177 -1.36572,2.2165678 -1.61597,2.7119789 -0.56871,1.1258497 -1.72486,2.382639 -2.02258,2.1986398 -0.293,-0.1810888 -0.2799,0.1886082 0.0237,0.6683507 0.16402,0.2591779 -0.0365,0.9274042 -0.63507,2.1166671 -1.49058,2.961411 -3.88986,8.529167 -3.74,8.679022 0.0783,0.07835 0.75452,-0.120864 1.50262,-0.442685 0.7481,-0.321823 2.26977,-0.886859 3.38149,-1.255633 1.11172,-0.368776 2.77376,-1.014656 3.693416,-1.435288 0.919657,-0.420634 1.758265,-0.764788 1.863569,-0.764788 0.105304,0 1.495983,-0.517576 3.090394,-1.150165 2.323745,-0.921959 6.982888,-2.72479 11.365597,-4.397862 0.291042,-0.111104 0.826823,-0.3296126 1.190625,-0.4855765 1.486313,-0.6371907 8.161022,-3.3105036 9.392708,-3.7619092 0.727604,-0.2666603 2.620425,-1.0292608 4.206271,-1.6946638 3.013141,-1.26428 3.948115,-1.429954 4.728411,-0.837859 1.227868,0.93172 2.580778,6.6455525 2.569816,10.8532845 -0.01643,6.304941 -2.773973,12.901073 -7.351789,17.585658 -4.692575,4.802023 -10.54387,7.310337 -17.778747,7.621333 -2.946675,0.126664 -3.615637,0.06765 -6.135198,-0.541197 -2.654813,-0.641538 -3.627255,-0.996712 -6.564802,-2.397736 -3.876861,-1.84902 -7.633351,-5.735338 -10.188551,-10.540703 -0.36756,-0.691224 -0.76294,-1.256772 -0.87863,-1.256772 -0.40506,0 -4.80782,14.714739 -4.80782,16.068514 0,0.459409 0.3654,0.119882 1.29801,-1.206085 0.67983,-0.966568 1.26573,-0.808865 0.99547,0.267944 -0.17739,0.706752 -3.09256,5.450405 -4.27785,6.961049 -1.2465,1.588646 -4.35047,4.591024 -4.93972,4.778044 -0.29365,0.0932 -1.02875,0.496726 -1.63355,0.896721 -3.14246,2.078302 -8.90975,2.467255 -13.61046,0.917905 -1.63262,-0.538112 -1.97883,-0.494924 -1.77676,0.221637 0.30139,1.068781 2.11355,2.460638 4.0224,3.089452 3.61053,1.189384 7.66105,1.286989 15.55684,0.374869 1.18428,-0.136808 1.28132,-0.110469 0.92604,0.251328 -0.21828,0.222282 -1.17078,0.534146 -2.11667,0.693031 -0.94588,0.158885 -2.37463,0.412213 -3.175,0.562946 -3.10087,0.583996 -11.10621,0.231135 -12.02831,-0.530191 -0.5047,-0.4167 -2.25919,-0.629158 -2.25919,-0.273573 0,1.068908 2.35673,3.981613 4.39851,5.436152 2.08386,1.484522 4.90759,3.041415 6.44941,3.555947 0.94588,0.315661 1.829,0.679704 1.96247,0.808985 0.42403,0.41071 -0.66923,0.618389 -1.74449,0.331388 -0.56316,-0.150315 -1.07945,-0.183465 -1.14731,-0.07366 -0.14846,0.240207 3.70376,4.039851 5.55954,5.483667 4.8937,3.807354 12.09037,7.739332 17.46937,9.544589 5.718553,1.919211 10.742723,2.99984 15.471251,3.327651 3.271202,0.22678 11.60686,-0.114585 14.816666,-0.606779 z m 172.322912,-0.93064 c 0.46578,-0.212619 1.26359,-0.557427 1.77291,-0.766239 1.323241,-0.542507 5.071861,-3.355104 4.952491,-3.715864 -0.0552,-0.16674 -0.92416,-0.379391 -1.93109,-0.472559 -4.982371,-0.461007 -10.730211,-3.974552 -14.006401,-8.561852 -1.35792,-1.901338 -3.32505,-5.789909 -3.94846,-7.805208 -0.24759,-0.800365 -0.55548,-1.693334 -0.68421,-1.984375 -0.49656,-1.122643 -1.309,-5.308968 -1.95167,-10.056474 -0.079,-0.583353 -0.16115,-4.571946 -0.18263,-8.863541 -0.0215,-4.291594 -0.18813,-9.350713 -0.37033,-11.242484 -1.20982,-12.56117 -6.1332,-23.3798207 -14.40414,-31.65167947 -4.17973,-4.18020203 -8.25288,-6.73047103 -12.45272,-7.79687403 -2.01656,-0.512037 -7.90107,-0.421269 -8.5679,0.132157 -0.21261,0.176451 -0.46195,0.819981 -0.55408,1.430068 -0.18915,1.252632 -1.03844,3.729513 -1.77246,5.169246 l -0.49059,0.96226603 0.73158,0.198083 c 0.40236,0.108944 1.11207,0.127754 1.57712,0.0418 2.52495,-0.466682 9.68934,1.270913 13.10668,3.17879697 0.67697,0.377949 1.3508,0.687178 1.4974,0.687178 0.60292,0 5.05558,3.2904934 5.05558,3.7360384 0,0.4796817 -0.71773,0.2011283 -2.03812,-0.7909956 -4.27653,-3.2133198 -11.09758,-5.59376277 -16.01507,-5.58902077 -4.11281,0.004 -8.45879,1.58557897 -9.9463,3.61972197 -1.28772,1.7609209 -1.55958,2.445689 -1.08963,2.7445914 0.21001,0.1335696 0.54228,0.183851 0.73839,0.1117362 2.94135,-1.0816457 11.63284,-0.6015963 15.65073,0.8644228 2.93433,1.0706549 7.97514,4.2260941 10.61019,6.6417401 2.39576,2.196295 7.11689,7.918285 7.11689,8.625654 0,0.05148 0.40946,0.81801 0.90991,1.70339 2.1408,3.787458 3.87534,9.432216 3.82082,12.434173 l -0.0318,1.749589 -0.25022,-1.190625 c -0.34627,-1.647687 -1.26814,-5.19322 -1.70608,-6.561645 -0.48923,-1.528688 -2.22346,-5.374399 -2.65817,-5.894604 -0.19199,-0.22974 -0.34907,-0.535962 -0.34907,-0.680493 0,-0.302591 -2.52687,-4.061306 -2.99701,-4.458049 -0.17244,-0.145521 -0.65336,-0.681302 -1.06871,-1.190625 -1.1701,-1.434833 -2.94498,-3.239558 -3.90312,-3.96875 -0.47803,-0.363802 -1.41068,-1.110649 -2.07255,-1.659657 -0.66187,-0.54901 -1.32777,-1.096404 -1.47978,-1.216432 -0.84485,-0.667105 -4.70801,-2.537952 -6.58019,-3.1866524 -2.89818,-1.0042022 -5.20891,-1.3621702 -9.01843,-1.3970873 -4.10313,-0.037608 -7.20958,0.4373616 -9.4464,1.4443419 -1.9579,0.8814148 -2.64624,1.8042468 -2.55162,3.4208908 0.0948,1.620321 0.30722,1.784228 2.23312,1.723424 1.57181,-0.04962 1.7939,0.01003 2.32347,0.624123 0.32205,0.373443 2.11692,1.420283 3.98861,2.326309 1.87169,0.906026 3.75082,1.939933 4.17585,2.29757 0.42503,0.35764 0.89543,0.650253 1.04533,0.650253 0.1499,0 0.88491,0.472276 1.63335,1.049502 0.74843,0.577225 1.95158,1.49996 2.67366,2.050521 2.74843,2.09559 8.30249,7.998645 9.55854,10.159155 0.15844,0.272532 0.48586,0.714066 0.7276,0.981187 0.24174,0.267123 0.43953,0.58471 0.43953,0.705749 0,0.121039 0.59531,1.097476 1.32292,2.169861 0.7276,1.072383 1.32291,2.018271 1.32291,2.101974 0,0.0837 0.35719,0.681435 0.79375,1.328299 0.43657,0.646861 0.79375,1.223708 0.79375,1.281877 0,0.05817 0.33964,0.617749 0.75475,1.243507 0.41511,0.625758 1.20182,1.97118 1.74824,2.989826 0.87017,1.622195 1.46355,2.661801 2.71835,4.7625 0.87407,1.463328 4.95965,9.30108 7.93035,15.21354 1.27954,2.546615 2.38888,4.68974 2.4652,4.7625 0.0763,0.07276 0.43351,0.723702 0.79375,1.446535 0.36025,0.722834 0.98241,1.782496 1.38259,2.354803 0.40018,0.572307 0.72761,1.213786 0.72761,1.425508 0,0.211725 0.35718,0.914205 0.79375,1.561068 0.43656,0.646862 0.79375,1.263457 0.79375,1.370209 0,0.333761 1.7933,3.056731 2.43302,3.694329 0.84247,0.839666 2.73532,1.685742 4.31385,1.928222 1.90149,0.292092 6.09602,0.05757 7.09063,-0.396451 z M -114.51471,81.316393 c -0.0845,-0.211066 -0.14715,-0.148373 -0.15985,0.159853 -0.0115,0.278914 0.0511,0.435184 0.13897,0.347266 0.0879,-0.08792 0.0973,-0.316124 0.0209,-0.507119 z m 68.395034,-0.308097 c 0.193654,-0.297992 0.03858,-0.706331 -0.262742,-0.691824 -0.415097,0.01998 -1.401143,1.055248 -1.24528,1.307438 0.182719,0.295643 1.180539,-0.111691 1.508022,-0.615614 z M 67.337879,73.569404 c 0,-0.900665 -0.52807,-1.544608 -1.51254,-1.844429 -0.477,-0.145272 -0.61782,-0.05385 -0.75423,0.489696 -0.1752,0.698021 0.65514,2.388161 1.2846,2.614803 0.54394,0.195853 0.98217,-0.366368 0.98217,-1.26007 z M -137.4011,60.935759 c -0.18986,-0.189854 -0.31309,-0.205475 -0.31309,-0.03969 0,0.353161 0.31289,0.666059 0.48948,0.489479 0.0752,-0.07518 -0.004,-0.27759 -0.17639,-0.449792 z M 65.396439,59.868608 c -0.0734,-0.181901 -0.13345,-0.03307 -0.13345,0.330729 0,0.363802 0.0601,0.51263 0.13345,0.330729 0.0734,-0.181901 0.0734,-0.479557 0,-0.661458 z m 0.65136,-11.646077 c -0.26131,-0.25936 -0.2917,-0.22897 -0.14812,0.148114 0.0994,0.260937 0.24731,0.407781 0.32877,0.326318 0.0815,-0.08146 1.7e-4,-0.294955 -0.18065,-0.474432 z m -5.42981,-8.702455 c -0.48054,-0.686075 -0.57004,-0.461171 -0.13784,0.3464 0.15731,0.293939 0.34805,0.472403 0.42386,0.39659 0.0758,-0.07581 -0.0529,-0.410157 -0.28602,-0.74299 z M -85.951406,37.246734 c -0.03076,-0.38762 0.200226,-0.465543 1.41846,-0.478502 0.800364,-0.0085 1.871927,-0.206409 2.38125,-0.439766 0.509323,-0.233358 1.375955,-0.50032 1.925849,-0.593249 0.549891,-0.09293 1.383329,-0.389514 1.852083,-0.659075 0.468752,-0.26956 1.268995,-0.573727 1.778317,-0.675928 0.509323,-0.1022 1.223698,-0.460258 1.5875,-0.795681 0.363802,-0.335426 1.1528,-0.863029 1.753333,-1.172456 1.349312,-0.695241 3.960085,-3.37946 5.168066,-5.313453 1.274702,-2.040818 2.868184,-5.521026 2.868184,-6.264201 0,-0.238265 0.171294,-0.622487 0.380651,-0.853826 0.276407,-0.305424 0.428699,-1.506693 0.556098,-4.386458 0.210183,-4.75107 -0.209475,-7.4226919 -1.353531,-8.6168305 -0.635606,-0.6634268 -0.74586,-0.6923034 -1.393486,-0.3649556 -1.703171,0.8608774 -2.890758,1.3860038 -3.837705,1.6969527 -0.559771,0.1838114 -1.333677,0.4990306 -1.719791,0.7004897 -0.386115,0.2014564 -0.848217,0.3670167 -1.026896,0.3679137 -0.178675,7.937e-4 -0.952582,0.2886286 -1.719791,0.639405 -2.429545,1.110814 -4.869635,2.033799 -5.57579,2.109087 -0.375441,0.04003 -0.84247,0.205443 -1.037843,0.36759 -0.479611,0.398042 -2.730299,1.351214 -3.535217,1.497172 -0.357471,0.06482 -1.391574,0.466119 -2.29801,0.89177 -0.906433,0.425651 -2.898219,1.216676 -4.426187,1.757833 -1.527969,0.541155 -3.262212,1.209757 -3.853871,1.485778 -0.591661,0.276022 -1.324189,0.539771 -1.627841,0.586113 -0.303651,0.04634 -0.712536,0.216705 -0.908629,0.378587 -0.480547,0.396711 -3.689187,1.46363 -3.866987,1.28583 -0.0778,-0.07777 -0.27591,0.04257 -0.44032,0.267417 -0.16441,0.224846 -0.71197,0.419857 -1.21679,0.433361 -0.50482,0.01349 -1.36434,0.30543 -1.91004,0.648729 -0.82098,0.516475 -0.99,0.771983 -0.97948,1.480754 0.007,0.47112 0.21535,1.228524 0.46302,1.683123 1.15604,2.121895 1.49479,2.628922 2.33316,3.49217 0.49431,0.508968 0.8493,0.974831 0.78889,1.035248 -0.1213,0.121298 3.691587,3.509579 3.949387,3.509579 0.08858,0 0.569833,0.311787 1.069445,0.692861 0.499613,0.381075 0.908389,0.600745 0.908389,0.488159 0,-0.112585 0.208359,-0.01889 0.463021,0.208188 0.494974,0.441386 4.469638,1.728366 5.93172,1.920671 0.484714,0.06375 1.714738,0.208314 2.733384,0.321246 1.5559,0.172496 1.83965,0.279379 1.774338,0.668354 -0.04394,0.261696 0.08708,0.463021 0.301331,0.463021 0.208492,0 0.36254,-0.20836 0.342329,-0.463021 z M 43.441539,35.014312 c -0.0845,-0.211066 -0.14716,-0.148373 -0.15985,0.159853 -0.0115,0.278913 0.051,0.435184 0.13896,0.347266 0.0879,-0.08792 0.0973,-0.316124 0.0209,-0.507119 z m -6.79291,-8.281852 c -0.17983,-0.216678 -0.43447,-0.327515 -0.56588,-0.246301 -0.33773,0.20873 -0.0148,0.640263 0.47919,0.640263 0.33633,0 0.35254,-0.07364 0.0867,-0.393962 z M -100.14336,18.232022 c 0,-0.05579 -0.23813,-0.101434 -0.52917,-0.101434 -0.29104,0 -0.52917,0.107916 -0.52917,0.239813 0,0.131898 0.23813,0.177544 0.52917,0.101434 0.29104,-0.07611 0.52917,-0.184026 0.52917,-0.239813 z m 36.957819,-1.738543 c -0.08446,-0.211066 -0.147156,-0.148373 -0.159851,0.159853 -0.01148,0.278914 0.05105,0.435184 0.138965,0.347266 0.08792,-0.08792 0.09732,-0.316124 0.02087,-0.507119 z m 86.33801,0.01897 c 1.23692,-0.166457 2.51684,-0.403307 2.84427,-0.526333 0.83098,-0.312237 0.75442,-1.167119 -0.20764,-2.318517 -0.44163,-0.528534 -0.90398,-1.089901 -1.02746,-1.247479 -0.12485,-0.159334 -0.11128,-0.488817 0.0306,-0.742307 0.23231,-0.415115 0.31544,-0.395446 0.93124,0.220361 1.11932,1.119317 1.57326,0.777838 0.60401,-0.454369 -0.29105,-0.369998 -0.52917,-0.785389 -0.52917,-0.923089 0,-0.5774976 -3.96875,-4.5859535 -5.22714,-5.2794425 -3.76708,-2.075992 -10.19106,-2.201505 -16.4686901,-0.32177 -3.26623995,0.9780216 -8.75122,3.8921185 -10.11482,5.3738805 -0.51213,0.556503 -0.36173,1.075203 0.24433,0.842637 0.44008,-0.168876 3.62308,0.266951 4.44653,0.608833 0.29104,0.120835 1.19591005,0.535495 2.01081005,0.921464 0.81489995,0.385971 1.56698995,0.701767 1.67129995,0.701767 0.26181,0 1.95773,1.256594 3.0104,2.230554 0.82521,0.763519 1.00148,0.810014 3.30729,0.872413 1.3395901,0.03625 3.5667101,0.165622 4.9491601,0.287489 2.97053,0.261861 6.41099,0.172971 9.525,-0.246092 z M -79.24128,9.9532757 c 0,-0.1318974 -0.238125,-0.1775433 -0.529166,-0.1014333 -0.291042,0.07611 -0.529167,0.1840256 -0.529167,0.2398136 0,0.05579 0.238125,0.101433 0.529167,0.101433 0.291041,0 0.529166,-0.107916 0.529166,-0.2398133 z M 36.308419,3.3824305 c 2.38495,-4.26566697 2.72665,-14.4713465 0.71985,-21.4997565 -0.67581,-2.366883 -4.798,-10.33209 -5.81945,-11.244791 -0.86745,-0.775089 -2.22765,-2.751762 -1.99325,-2.896627 0.64096,-0.396136 4.3939,4.418272 6.27982,8.056002 2.56639,4.950256 3.54245,8.204884 4.04676,13.493749 0.30715,3.2211425 0.0245,9.0328685 -0.50733,10.43171053 -0.29703,0.781227 -0.172,1.209955 0.35286,1.209955 0.18094,0 0.99832,-0.720532 1.8164,-1.601184 2.17414,-2.34043803 3.14364,-5.06692703 3.31819,-9.33160953 0.27965,-6.832907 -1.76669,-13.493559 -6.21321,-20.223403 -2.97409,-4.501311 -9.73671,-10.684565 -14.75535,-13.491243 -9.95743,-5.568695 -22.4043001,-7.499337 -32.8127001,-5.089594 -2.5535399,0.591193 -7.2533939,2.243352 -8.7821669,3.087232 -0.610089,0.336767 -1.29051,0.612304 -1.512046,0.612304 -0.221535,0 -0.5232,0.224983 -0.670364,0.499962 -0.358198,0.669298 0.141899,0.796579 3.820827,0.972437 3.62299,0.173185 7.2687999,0.715787 10.5665199,1.572606 1.39533,0.36254 2.83464,0.659162 3.19847,0.659162 0.84915,0 4.38181,0.975347 4.70567,1.299207 0.13582,0.135819 0.39961,0.18836 0.58619,0.116761 0.18659,-0.0716 1.11815,0.181424 2.07014,0.562279 0.95198,0.380854 1.94567,0.736759 2.2082,0.790895 0.75865,0.156451 5.7540601,2.385973 7.0576901,3.149949 0.65237,0.382315 1.40319,0.963091 1.6685,1.290616 0.2653,0.327525 0.85754,0.774094 1.31608,0.992376 1.47711,0.703151 5.92295,4.808582 7.76525,7.170671 0.3638,0.466447 0.9667,1.216755 1.33978,1.667351 1.40506,1.697011 2.34205,3.153095 3.16621,4.92031 0.30539,0.654844 1.02163,2.143125 1.59165,3.307292 1.12346,2.294509 2.72911,7.0227255 3.01907,8.8903505 0.0994,0.640099 0.28316,1.521003 0.4084,1.957565 0.35841,1.249355 0.50434,6.470258 0.22396,8.012446 -0.13978,0.768826 -0.18049,1.629949 -0.0905,1.913606 0.14936,0.470586 0.2158,0.481605 0.75874,0.125857 0.32728,-0.214439 0.84527,-0.837438 1.1511,-1.384443 z m 2.32217,-1.656008 c -0.0899,-0.145521 -0.27556,-0.264583 -0.41249,-0.264583 -0.13693,0 -0.24897,0.119062 -0.24897,0.264583 0,0.145521 0.18562,0.264583 0.41249,0.264583 0.22687,0 0.33891,-0.119062 0.24897,-0.264583 z M -93.396487,-8.5923265 c -0.08994,-0.145521 -0.282583,-0.264584 -0.428104,-0.264584 -0.145521,0 -0.191,0.119063 -0.101063,0.264584 0.08994,0.14552 0.282583,0.264583 0.428104,0.264583 0.145521,0 0.191,-0.119063 0.101063,-0.264583 z"
       id="path7530" /></g></svg>
