<?xml version="1.0" encoding="UTF-8" standalone="no"?>
<!-- Created with Inkscape (http://www.inkscape.org/) -->

<svg
   width="202.98129mm"
   height="225.97173mm"
   viewBox="0 0 202.9813 225.97174"
   version="1.1"
   id="svg5"
   xml:space="preserve"
   xmlns="http://www.w3.org/2000/svg"
   xmlns:svg="http://www.w3.org/2000/svg"><defs
     id="defs2" /><g
     id="layer1"
     transform="translate(29.570012,4.9948619)"><path
       style="fill:#000000;stroke-width:0.264583"
       d="m 60.718903,220.84315 c -2.78585,-0.56906 -4.52916,-1.09011 -6.15295,-1.83902 -2.15714,-0.9949 -5.00588,-2.81809 -6.4522,-4.1294 -1.32822,-1.20424 -3.72603,-4.13322 -4.58858,-5.60506 -0.39376,-0.67189 -0.77771,-1.22162 -0.85323,-1.22162 -0.0755,0 -0.98694,0.52912 -2.02538,1.17582 -1.80372,1.12329 -4.59974,2.51881 -5.27442,2.63252 -0.1748,0.0295 -0.55594,0.1807 -0.84698,0.33609 -2.121,1.13242 -9.22154,2.69929 -13.36146,2.94847 -3.42213,0.20598 -8.19908,0.006 -11.13543,-0.4671 -4.4687101,-0.71938 -10.79177006,-3.06095 -14.4847001,-5.36402 -3.33196,-2.07794 -8.6900899,-6.26823 -8.0324799,-6.28175 0.19049,-0.004 0.27597,-0.12098 0.18996,-0.26014 -0.086,-0.13917 -0.31429,-0.19244 -0.50728,-0.11838 -0.20605,0.0791 -1.16389,-0.77216 -2.32035,-2.06207 -2.15048,-2.39864 -3.79001,-4.44569 -3.56066,-4.44569 0.0801,0 -0.19779,-0.35129 -0.6175,-0.78065 -1.144944,-1.17126 -2.444323,-3.1573 -2.260395,-3.45491 0.08918,-0.1443 0.0048,-0.26236 -0.1876,-0.26236 -0.192363,0 -0.467281,-0.23086 -0.610928,-0.51302 -0.143648,-0.28216 -0.714061,-1.29521 -1.267582,-2.25123 -0.553522,-0.956 -0.922078,-1.87463 -0.819015,-2.04139 0.103063,-0.16676 0.07664,-0.23475 -0.05872,-0.1511 -0.298226,0.18432 -2.459268,-5.13897 -3.378584,-8.32244 -1.411134,-4.88656 -2.014495,-11.92051 -1.501989,-17.51007 0.328911,-3.58725 1.605468,-9.19357 2.839439,-12.47012 0.785863,-2.08669 2.641018,-5.73174 3.043918,-5.98074 0.145804,-0.0901 0.247811,-0.26959 0.226684,-0.39884 -0.07481,-0.45765 1.645671,-3.00421 1.91656,-2.8368 0.151296,0.0935 0.201112,0.0503 0.110701,-0.096 -0.416121,-0.6733 4.502111,-5.87984 5.166421,-5.46927 0.15929,0.0984 0.21757,0.0624 0.1295,-0.0801 -0.0881,-0.14249 0.39955,-0.53651 1.0836,-0.87558 1.87253,-0.92821 4.9988899,-1.04547 7.3159099,-0.27441 0.97175,0.32337 1.82743,0.52735 1.9015,0.45328 0.0741,-0.0741 0.008,-0.59233 -0.14772,-1.15168 -0.43013,-1.54904 -0.34103,-3.64289 0.21758,-5.11302 l 0.50292,-1.32358 -1.02133,-0.57402 c -0.56173,-0.3157 -0.96046,-0.67251 -0.88606,-0.79289 0.0744,-0.12038 -0.0254,-0.15723 -0.22171,-0.0819 -0.19671,0.0755 -1.08644,-0.52313 -1.9817,-1.33329 -2.0526299,-1.85753 -3.4779999,-3.6269 -3.0394999,-3.77307 0.17799,-0.0593 0.32362,-0.22504 0.32362,-0.36824 0,-0.1432 -0.22343,-0.18945 -0.49652,-0.10277 -0.39436,0.12516 -0.62165,-0.10253 -1.1047,-1.10665 -1.20288,-2.50045 -0.8815,-6.17414 0.68832,-7.868 0.35658,-0.38475 0.64832,-0.78768 0.64832,-0.89541 0,-0.68375 4.3383599,-3.9707 6.3292999,-4.79538 0.92454,-0.38295 0.92447,-0.38274 1.33952,-4.241904 0.49855,-4.635574 2.68777,-14.458867 3.15759,-14.168497 0.0846,0.05228 0.1538,-0.235609 0.1538,-0.639747 0,-0.411104 -0.12415,-0.68716 -0.28181,-0.62666 -0.41754,0.160226 -1.76479,-1.183698 -1.54429,-1.540479 0.11032,-0.178495 0.0721,-0.232597 -0.0925,-0.130865 -0.51809,0.320191 -3.96531,-4.32394 -3.62195,-4.879512 0.11608,-0.187812 0.0877,-0.25259 -0.0684,-0.156125 -0.33135,0.204787 -0.94538,-1.075388 -0.70351,-1.466736 0.0971,-0.157102 0.055,-0.210537 -0.0935,-0.118748 -0.27978,0.172916 -1.5911,-3.022237 -2.31527,-5.641379 -1.5128799,-5.471668 -2.0599099,-10.122151 -2.0545299,-17.466167 0.006,-7.800747 0.75452,-14.221126 2.4528099,-21.030706 1.06054,-4.252444 2.39818,-8.348099 2.67135,-8.179274 0.12188,0.07533 0.1571,-0.03114 0.0783,-0.236611 -0.33732,-0.879054 3.93574,-10.136341 6.29135004,-13.6297775 C 4.2741929,2.349011 9.4148129,1.4026819 18.838933,5.837386 c 1.42144,0.6688851 2.49691,1.327515 2.40652,1.4737741 -0.0899,0.1454388 -0.0349,0.184994 0.12221,0.0879 0.39134,-0.2418662 1.67152,0.3721603 1.46673,0.7035112 -0.0907,0.1467247 -0.034,0.185891 0.12595,0.087037 0.25268,-0.1561676 2.86649,1.2204567 3.23052,1.7014322 0.0728,0.096134 0.54901,0.3863105 1.05833,0.6448345 0.97215,0.493448 2.90533,1.911837 3.2371,2.37508 0.10691,0.14928 0.19621,0.167545 0.19844,0.04059 0.002,-0.12696 0.18133,-0.0837 0.39801,0.09612 0.21668,0.179829 0.31734,0.450927 0.2237,0.602446 -0.0988,0.1598 -0.0422,0.196352 0.13465,0.08704 0.4976,-0.307539 6.27644,4.148502 5.98711,4.616645 -0.0655,0.106032 0.034,0.176464 0.2212,0.156514 0.18719,-0.01995 1.3424,0.891659 2.56713,2.025798 1.9946,1.847075 2.1933,2.115664 1.90576,2.576097 -0.17656,0.282713 -0.31739,0.604938 -0.31297,0.716053 0.004,0.111114 0.12941,-0.0063 0.27773,-0.260993 0.14833,-0.254662 0.4135,-0.463021 0.58928,-0.463021 0.28654,0 3.62286,3.265381 3.62286,3.545832 0,0.06325 0.56555,0.707885 1.25677,1.432512 0.69123,0.724628 1.81223,1.947955 2.49112,2.718506 1.00385,1.139386 1.30484,1.342496 1.61184,1.087705 0.20763,-0.172315 0.47493,-0.225033 0.59401,-0.117155 0.11909,0.107876 0.13921,0.0608 0.0447,-0.104608 -0.18662,-0.326707 0.44433,-0.965925 1.03969,-1.053306 0.2036,-0.02988 0.37019,0.06122 0.37019,0.202456 0,0.141232 0.13177,0.175348 0.29283,0.07581 0.2084,-0.128797 0.19862,-0.239205 -0.0339,-0.382911 -0.47116,-0.291192 -0.025,-0.859993 0.55547,-0.708191 0.31317,0.08189 0.54382,-0.04109 0.63891,-0.340672 0.24176,-0.761733 2.41355,-1.462384 4.49981,-1.451706 1.97174,0.01008 3.12225,0.433404 4.38581,1.613697 l 0.68165,0.636722 0.48384,-0.534635 c 0.26611,-0.294053 0.71054,-0.534639 0.98761,-0.534639 0.27708,0 0.43838,-0.105814 0.35845,-0.235145 -0.20854,-0.337429 1.64493,-1.683192 2.00862,-1.458418 0.16991,0.10501 0.23242,0.07215 0.14177,-0.07452 -0.24874,-0.402471 4.47721,-2.671058 6.56267,-3.150261 2.18292,-0.5016 4.6423,-0.384791 5.96508,0.283311 1.11735,0.564343 2.4188,1.996368 2.24111,2.465966 -0.0717,0.189458 -0.0212,0.277027 0.11216,0.194596 0.30999,-0.191582 0.56061,0.59976 0.614,1.938737 0.0372,0.933111 0.12714,1.067115 0.80746,1.203179 1.01018,0.202036 1.07769,0.144233 2.03741,-1.744358 0.95647,-1.882222 3.08209,-5.273235 4.61389,-7.360583 0.58735,-0.800365 1.36635,-1.892496 1.73111,-2.42696 0.36475,-0.534463 0.99174,-1.367901 1.39331,-1.852083 0.40156,-0.484182 1.41359,-1.713769 2.24896,-2.732415 2.37708,-2.898622 3.817997,-4.3658287 4.110237,-4.185213 0.15832,0.09785 0.1866,0.03344 0.0689,-0.1569672 -0.34306,-0.5550826 8.86049,-9.28386096 9.78883,-9.28386096 0.21073,0 0.35337,-0.1013893 0.31699,-0.2253096 -0.15144,-0.515843 4.90903,-3.88851154 5.3892,-3.59175404 0.1794,0.1108805 0.24552,0.082306 0.15362,-0.066393 -0.21292,-0.3445092 2.24867,-1.4065604 3.84494,-1.6588962 2.15986,-0.3414286 6.38021,0.6935679 5.77951,1.4173655 -0.17671,0.2129295 -0.0988,0.4095014 0.24837,0.6262888 0.41947,0.2619626 0.48016,0.2487959 0.35512,-0.077048 -0.32607,-0.8497406 0.53582,-0.3104076 2.26115,1.4149265 2.31985,2.31984914 2.90274,3.1753554 2.38624,3.5022653 -0.2922,0.1849385 -0.25221,0.2388553 0.17953,0.2420038 0.80418,0.00587 3.66637,4.4461719 6.40692,9.9394611 3.93807,7.893643 7.27085,18.16922 8.94105,27.566886 1.15837,6.517807 1.19381,17.626594 0.0707,22.161242 -0.64698,2.612229 -1.37761,4.607145 -1.63018,4.451051 -0.15465,-0.09558 -0.19005,-0.037 -0.0827,0.136769 0.17935,0.290192 -0.73413,2.381305 -1.54755,3.542633 -0.42537,0.607298 -0.43264,0.582191 1.14369,3.947808 1.88108,4.016287 4.18469,10.943465 4.38765,13.194098 0.0592,0.656709 0.36313,0.985046 1.07777,1.16441 1.53669,0.385683 3.55962,1.269158 3.4207,1.493925 -0.082,0.132754 0.0202,0.176355 0.22733,0.09689 0.20708,-0.07946 0.56195,0.04096 0.7886,0.267612 0.22665,0.22665 0.5258,0.412092 0.66478,0.412092 0.46756,0 2.21229,2.163336 2.85094,3.534949 1.04741,2.249522 0.73051,5.181576 -0.88313,8.171139 -0.53489,0.99098 -0.75229,1.19292 -1.03319,0.95978 -0.26935,-0.22353 -0.35577,-0.20466 -0.35577,0.0777 0,0.20514 0.25417,0.39212 0.56483,0.41552 0.31065,0.0234 0.92148,0.40735 1.35741,0.85322 0.65329,0.66821 0.82355,1.10985 0.96878,2.51297 0.14717,1.42194 0.2939,1.79488 0.89086,2.26446 0.57378,0.45133 0.66265,0.65938 0.45078,1.05527 -0.35409,0.66162 -0.33367,0.79247 0.12366,0.79247 0.46152,0 0.9972,0.89324 0.72761,1.21326 -0.10403,0.12348 -0.002,0.0824 0.22749,-0.0914 0.35838,-0.27174 0.48054,-0.11314 0.87376,1.1343 0.27975,0.88746 0.44369,2.19413 0.42247,3.36733 l -0.0347,1.91713 2.27289,2.35607 c 1.25008,1.29585 2.22493,2.40404 2.16631,2.46265 -0.0586,0.0586 0.22083,0.46502 0.62097,0.90313 1.67546,1.83439 3.98754,7.15946 4.94165,11.38134 0.63379,2.80447 0.62621,8.50794 -0.0145,10.94264 -0.90881,3.45329 -2.42482,6.25252 -4.59703,8.48819 l -1.0492,1.07985 0.24971,1.56598 c 0.55138,3.45773 -0.64907,7.32476 -3.05996,9.85706 -1.15434,1.21248 -4.47732,3.08204 -5.07226,2.85374 -0.19346,-0.0742 -0.84902,0.33335 -1.45681,0.90576 -0.60778,0.57241 -1.22912,0.96407 -1.38076,0.87035 -0.15683,-0.0969 -0.19701,-0.0431 -0.0932,0.12492 0.38281,0.6194 -3.66348,2.15792 -5.69272,2.16455 -0.74482,0.002 -1.06467,0.16021 -1.41802,0.69949 -0.36629,0.55902 -0.50767,0.62425 -0.71685,0.33073 -0.2023,-0.28384 -0.22726,-0.26206 -0.11163,0.0974 0.19597,0.60921 -0.0799,1.29983 -0.43222,1.08208 -0.15908,-0.0983 -0.19953,-0.0451 -0.0947,0.12454 0.2406,0.3893 -1.14346,2.47262 -1.49738,2.25389 -0.1577,-0.0975 -0.1934,-0.0397 -0.0845,0.13652 0.52281,0.84593 -7.84139,10.21417 -12.67471,14.1962 -1.94556,1.60289 -4.4265,3.30729 -4.81412,3.30729 -0.18987,0 -0.34521,0.10021 -0.34521,0.22269 0,0.45825 -3.05274,1.15641 -4.45078,1.01789 -1.41886,-0.14058 -3.08986,-0.9149 -3.08986,-1.4318 0,-0.16162 -0.10839,-0.39307 -0.24086,-0.51434 -0.1422,-0.13017 -0.15421,-0.071 -0.0293,0.14457 0.14518,0.25054 0.0962,0.32461 -0.15602,0.23611 -0.20216,-0.0709 -0.35124,-0.32321 -0.33128,-0.56065 0.0199,-0.23743 -0.0641,-0.36965 -0.18682,-0.29382 -0.32881,0.20322 -1.11886,-1.12496 -0.88972,-1.49573 0.11899,-0.19252 0.084,-0.24788 -0.0891,-0.14092 -0.30963,0.19136 -1.53553,-2.76758 -2.32613,-5.61455 l -0.46756,-1.68368 -1.21348,0.21184 c -0.66741,0.11651 -2.34457,0.23766 -3.72702,0.26921 -2.27529,0.0519 -2.50692,0.10368 -2.44366,0.5458 0.0384,0.26863 0.1575,3.58405 0.26458,7.36759 0.40315,14.24381 -0.54334,19.14568 -4.17774,21.63648 -3.263,2.23626 -7.662977,2.33663 -11.745367,0.26793 -1.50217,-0.76121 -3.91591,-3.1181 -4.91656,-4.80077 -0.59253,-0.99638 -0.7437,-1.09707 -1.45067,-0.96632 -1.79015,0.33109 -6.05244,0.72984 -9.51294,0.88996 l -3.68757,0.17063 -0.3054,1.19063 c -0.97761,3.81119 -3.78061,6.38194 -7.78691,7.14172 -1.37925,0.26157 -3.85999,0.31069 -4.90547,0.0971 z m 6.74688,-1.94719 c 0,-0.14552 -0.12609,-0.26458 -0.2802,-0.26458 -0.15411,0 -0.20661,0.11906 -0.11668,0.26458 0.0899,0.14552 0.21603,0.26459 0.2802,0.26459 0.0642,0 0.11668,-0.11907 0.11668,-0.26459 z m -1.80471,-2.4525 c 0.68091,-0.17909 1.51434,-0.57422 1.85209,-0.87806 0.73043,-0.65711 1.85028,-1.9611 1.68416,-1.9611 -0.0644,0 0.0555,-0.4129 0.26634,-0.91755 0.21085,-0.50465 0.38337,-1.33106 0.38337,-1.83646 0,-0.50541 0.11906,-0.99251 0.26458,-1.08245 0.14552,-0.0899 0.26459,-0.46243 0.26459,-0.82777 0,-1.05256 1.06076,-0.7411 1.46751,0.43089 l 0.32139,0.92605 0.0977,-0.92605 0.0977,-0.92604 4.64399,-0.15046 c 2.55419,-0.0828 4.75684,-0.21916 4.89479,-0.30313 0.59911,-0.36471 3.44869,-0.45507 4.08726,-0.12961 0.87789,0.44743 1.74121,0.29347 1.30457,-0.23265 -0.34616,-0.41711 -0.38703,-0.40517 1.60585,-0.46896 1.04703,-0.0335 1.20082,0.0337 1.27517,0.55721 0.0465,0.32742 0.17627,0.59531 0.28838,0.59531 0.11211,0 0.35971,0.4723 0.55022,1.04957 0.19051,0.57726 0.44313,0.98977 0.56137,0.91669 0.11824,-0.0731 0.46009,0.34759 0.75967,0.93481 0.341,0.66841 0.72845,1.06768 1.03609,1.06768 0.27026,0 0.63513,0.1732 0.81082,0.38489 0.17568,0.21169 0.83654,0.68794 1.46857,1.05834 0.97546,0.57166 1.47334,0.67344 3.29415,0.67344 1.485107,0 2.336167,-0.12526 2.766377,-0.40714 0.34175,-0.22392 0.72451,-0.38842 0.85058,-0.36554 0.60672,0.11009 0.89068,-0.068 0.89068,-0.55876 0,-0.29574 0.20836,-0.62316 0.46302,-0.72761 0.47531,-0.19495 0.58047,-0.42416 0.80279,-1.74981 0.0707,-0.42138 0.2861,-1.06995 0.47874,-1.44127 0.25263,-0.48694 0.27091,-0.77072 0.0656,-1.01811 -0.18592,-0.22402 -0.217,-0.96302 -0.0896,-2.1306 0.10727,-0.98319 0.23918,-2.26387 0.29312,-2.84595 0.13513,-1.45824 0.1077,-6.26063 -0.0371,-6.49492 -0.065,-0.10515 0.0143,-0.57106 0.17614,-1.03536 0.2169,-0.6222 0.21606,-0.92241 -0.003,-1.14164 -0.18688,-0.18689 -0.30298,-1.53175 -0.31232,-3.61798 -0.017,-3.80241 -0.29464,-7.29631 -0.92603,-11.65489 -0.24243,-1.67349 -0.47342,-3.53798 -0.51331,-4.1433 -0.0399,-0.60533 -0.13057,-1.20064 -0.2015,-1.32292 -0.0709,-0.12228 -0.21095,-0.78787 -0.31117,-1.4791 -0.10022,-0.69122 -0.28229,-1.25677 -0.40461,-1.25677 -0.12231,0 -0.30312,-0.68461 -0.40179,-1.52135 -0.0987,-0.83675 -0.33422,-2.11667 -0.52343,-2.84427 -0.18921,-0.72761 -0.30928,-1.36201 -0.26681,-1.4098 0.0425,-0.0478 0.39612,-0.12189 0.7859,-0.16467 0.61485,-0.0675 0.78116,0.0842 1.25587,1.14521 0.30095,0.67265 0.51669,1.46113 0.47942,1.75217 -0.0373,0.29105 0.0223,0.44082 0.1324,0.33285 0.3126,-0.30663 1.71795,2.71027 1.78019,3.82155 0.0307,0.54828 0.21679,1.05851 0.41396,1.13502 0.197,0.0765 0.29003,0.31659 0.20674,0.53365 -0.0833,0.21705 -0.0189,0.39464 0.1431,0.39464 0.20332,0 0.24358,0.54575 0.12999,1.76216 -0.1415,1.51522 -0.11473,1.69402 0.19098,1.27594 0.31725,-0.43387 0.38884,-0.29493 0.66493,1.29048 0.17017,0.97719 0.24367,1.88307 0.16332,2.01307 -0.0803,0.13001 -0.0356,0.30464 0.0994,0.38809 0.13502,0.0834 0.21288,0.44868 0.17304,0.81164 -0.0613,0.55859 0.0743,0.6979 0.88331,0.90717 1.91145,0.49447 3.84427,0.56893 5.05681,0.19479 l 1.19062,-0.36737 0.0441,-1.95318 c 0.025,-1.1086 -0.0742,-2.02628 -0.22943,-2.12223 -0.15044,-0.093 -0.30267,-1.22497 -0.3383,-2.51553 -0.0904,-3.27272 -0.37152,-4.82488 -0.92793,-5.12266 -0.25478,-0.13635 -0.521,-0.19015 -0.5916,-0.11955 -0.0706,0.0706 -0.44794,-0.35456 -0.83853,-0.94479 -0.3906,-0.59023 -0.82474,-1.00234 -0.96476,-0.91581 -0.14002,0.0865 -0.25729,0.002 -0.2606,-0.189 -0.003,-0.19049 -0.65652,-1.05108 -1.45158,-1.91243 -0.79506,-0.86134 -1.51475,-1.78408 -1.59931,-2.05052 -0.0846,-0.26644 -0.2631,-0.48443 -0.39675,-0.48443 -0.13365,0 -0.57159,-0.50602 -0.97321,-1.12448 -0.40162,-0.61847 -0.93909,-1.28006 -1.19438,-1.47021 -0.25529,-0.19016 -0.46417,-0.57119 -0.46417,-0.84675 0,-0.27556 -0.15133,-0.59623 -0.3363,-0.7126 -0.18496,-0.11638 -0.50856,-0.56878 -0.71911,-1.00534 -0.21055,-0.43656 -0.42192,-0.86984 -0.46972,-0.96285 -0.0478,-0.093 0.53385,-0.31802 1.29255,-0.50003 1.66799,-0.40015 4.22964,-1.38433 4.99077,-1.91745 l 0.55505,-0.38877 -0.58346,-0.15258 c -0.49707,-0.12998 -0.5323,-0.21422 -0.23795,-0.5689 0.29191,-0.35173 0.28071,-0.39145 -0.0722,-0.25603 -0.29871,0.11463 -0.57323,-0.1445 -0.96347,-0.90944 -0.56206,-1.10174 -0.77234,-2.11547 -0.28116,-1.35541 0.14107,0.21829 0.25831,0.26627 0.26054,0.10663 0.002,-0.15963 -0.23408,-0.5648 -0.52512,-0.90038 -1.02145,-1.17774 -0.64033,-6.19667 0.70166,-9.24017 1.23057,-2.79077 4.0339,-5.47193 6.55082,-6.26532 l 1.40951,-0.44431 0.81413,-2.37112 c 0.44777,-1.30412 1.32568,-3.26519 1.9509,-4.35793 1.31085,-2.29108 4.97561,-6.35051 5.84462,-6.47405 0.32325,-0.0459 0.58773,-0.26215 0.58773,-0.48043 0,-0.21828 0.26966,-0.43515 0.59924,-0.48193 0.32958,-0.0468 0.536,-0.18739 0.45871,-0.31245 -0.0773,-0.12506 -0.0195,-0.30217 0.12836,-0.39358 0.1479,-0.0914 0.2689,-0.034 0.2689,0.12748 0,0.16151 0.41672,-0.0242 0.92604,-0.41266 0.50933,-0.38848 0.92605,-0.61445 0.92605,-0.50215 0,0.1123 0.20836,-0.0358 0.46302,-0.32906 0.25466,-0.29327 1.02134,-0.78743 1.70374,-1.09812 0.6824,-0.31068 1.31451,-0.68426 1.40468,-0.83017 0.0902,-0.1459 0.47497,-0.26527 0.85511,-0.26527 0.38013,0 0.89381,-0.1834 1.14149,-0.40756 0.24769,-0.22415 0.97093,-0.47029 1.6072,-0.54699 0.63627,-0.0767 1.36646,-0.32913 1.62264,-0.56096 0.25618,-0.23184 0.54339,-0.34391 0.63825,-0.24906 0.0949,0.0949 0.33162,0.0404 0.52613,-0.12104 0.19452,-0.16143 0.58672,-0.23257 0.87156,-0.15808 0.28483,0.0745 0.55336,0.0357 0.59672,-0.0863 0.0434,-0.12193 0.75935,-0.24857 1.59109,-0.2814 0.83174,-0.0328 1.61385,-0.12879 1.73801,-0.21323 0.12416,-0.0844 0.42468,-0.65888 0.66782,-1.27652 0.96854,-2.46043 2.74782,-4.27034 5.15772,-5.24652 1.2145,-0.49196 1.52367,-0.74096 1.59059,-1.28101 0.0457,-0.3687 -0.034,-0.8796 -0.17715,-1.13534 -0.2934,-0.52428 0.37389,-1.92976 0.9162,-1.92976 0.17113,0 0.38585,-0.29766 0.47716,-0.66146 0.0913,-0.3638 0.28281,-0.66146 0.42556,-0.66146 0.14274,0 0.25954,-0.16946 0.25954,-0.37657 0,-0.20712 0.3118,-0.74713 0.69289,-1.20003 0.38109,-0.4529 0.7098,-1.159665 0.73047,-1.570587 0.0207,-0.410921 0.18408,-0.92366 0.36314,-1.139417 0.17907,-0.21576 0.27268,-0.445178 0.20804,-0.509821 -0.0646,-0.06464 -0.1686,-0.529936 -0.23103,-1.033989 -0.15382,-1.241991 -0.42881,-1.8425 -0.84373,-1.8425 -0.19059,0 -0.3862,-0.0893 -0.43471,-0.198437 -0.2372,-0.533691 -2.42933,-1.731552 -3.13224,-1.711568 -0.43077,0.01225 -0.85185,-0.08877 -0.93572,-0.224489 -0.0839,-0.135715 -0.60328,-0.246755 -1.15422,-0.246755 -1.29077,0 -1.89349,-0.659705 -2.16355,-2.368095 -0.11422,-0.722567 -0.38936,-1.705732 -0.61143,-2.18481 -0.22206,-0.479079 -0.64193,-1.704491 -0.93304,-2.723137 -0.82945,-2.902378 -1.3494,-4.372268 -2.15261,-6.085416 -0.40937,-0.873125 -0.81487,-2.02202 -0.90112,-2.553102 -0.0863,-0.53108 -0.33225,-1.111205 -0.54668,-1.289166 -0.21444,-0.177962 -0.38988,-0.487583 -0.38988,-0.688044 0,-0.200464 -0.11906,-0.36448 -0.26458,-0.36448 -0.14552,0 -0.26458,-0.214312 -0.26458,-0.47625 0,-0.261937 -0.11837,-0.594616 -0.26305,-0.73929 -0.14467,-0.144672 -0.28992,-0.587891 -0.32278,-0.98493 -0.0387,-0.468045 -0.1805,-0.675553 -0.40316,-0.590114 -0.21302,0.08174 -0.5032,-0.267597 -0.76427,-0.920067 -0.23148,-0.578517 -0.527,-1.051848 -0.65672,-1.051848 -0.12972,0 -0.23586,-0.412531 -0.23586,-0.916734 0,-0.657889 -0.15549,-0.999948 -0.5507,-1.211455 -0.63495,-0.339821 -1.31255,-1.768179 -1.1007,-2.320259 0.10747,-0.280064 0.002,-0.33012 -0.41553,-0.197545 -0.46378,0.147195 -0.62872,0.01183 -0.96431,-0.791327 -0.22265,-0.532892 -0.327,-1.105074 -0.23187,-1.271516 0.0951,-0.166444 0.087,-0.225822 -0.0181,-0.131953 -0.25283,0.225867 -1.26524,-0.750451 -1.88618,-1.818925 -0.30072,-0.517459 -0.56804,-0.7389 -0.67773,-0.561415 -0.29688,0.480359 -0.69576,0.03262 -0.9163,-1.028551 -0.11376,-0.547312 -0.18383,-1.093259 -0.15574,-1.213215 0.0281,-0.119957 -0.0685,-0.144161 -0.21478,-0.05379 -0.36193,0.223685 -2.4889,-1.408533 -3.00733,-2.307796 -0.2307,-0.400182 -0.57383,-0.727945 -0.7625,-0.728366 -0.18867,-5.29e-4 -0.58116,-0.361265 -0.8722,-0.801883 -0.29104,-0.440619 -0.92309,-1.035685 -1.40454,-1.322369 -0.53578,-0.319027 -0.80122,-0.641252 -0.68421,-0.830577 0.12696,-0.20542 0.049,-0.254757 -0.23221,-0.146863 -0.23844,0.0915 -0.72575,-0.07537 -1.11554,-0.381973 -0.67212,-0.528693 -0.67835,-0.559996 -0.21532,-1.082048 0.46302,-0.52205 0.46151,-0.529672 -0.0524,-0.263393 -0.41357,0.214315 -0.70772,0.150482 -1.3466,-0.29223 -0.46186,-0.320053 -0.76295,-0.727754 -0.69218,-0.937294 0.0925,-0.273928 -0.0347,-0.329033 -0.48663,-0.210838 -0.42999,0.112442 -0.77889,-0.01328 -1.17365,-0.4229 -0.87523,-0.908198 -2.44094,-2.1263 -2.82895,-2.200899 -0.58633,-0.112728 -2.84516,-1.356053 -2.70971,-1.491507 0.0696,-0.06961 -0.2642,-0.272878 -0.74181,-0.451701 -1.37845,-0.516105 -2.54207,-1.181516 -2.49717,-1.427991 0.0227,-0.12468 -0.37543,-0.425016 -0.88475,-0.667419 -0.91012,-0.43315 -0.92468,-0.465651 -0.84662,-1.889977 0.0728,-1.327346 0.4734,-3.494484 1.14842,-6.21175 0.1446,-0.582083 0.37355,-1.772708 0.50879,-2.645833 0.13524,-0.873125 0.3626,-2.123281 0.50524,-2.778125 0.14264,-0.654844 0.32983,-1.541603 0.41598,-1.970577 0.0963,-0.47966 0.23134,-0.659064 0.35068,-0.465968 0.10673,0.172688 0.20656,-0.127495 0.22186,-0.667075 0.0153,-0.539584 0.15123,-1.022197 0.30207,-1.072481 0.15085,-0.05028 0.21038,-0.257895 0.13231,-0.461362 -0.15503,-0.40399 0.56452,-2.849893 1.08758,-3.696912 0.17972,-0.291041 0.48046,-1.18401 0.6683,-1.984374 0.18785,-0.800365 0.58458,-1.801424 0.88163,-2.224577 0.29706,-0.423154 0.56717,-1.018466 0.60024,-1.322917 0.0331,-0.304451 0.1966,-1.085437 0.36338,-1.735527 0.16677,-0.650086 0.24218,-1.425191 0.16757,-1.722456 -0.20342,-0.8105109 -1.653,-1.5443857 -3.04658,-1.5423854 -1.36537,0.00185 -3.72544,0.5844751 -3.72544,0.9195224 0,0.121002 -0.14882,0.222655 -0.33073,0.225891 -0.1819,0.0032 -0.62838,0.238712 -0.99218,0.523282 -0.3638,0.28457 -0.86042,0.520046 -1.10359,0.523282 -0.24318,0.0032 -0.97792,0.541666 -1.63276,1.196509 -0.65485,0.654844 -1.30635,1.190625 -1.44779,1.190625 -0.14144,0 -0.3257,0.178595 -0.40946,0.396876 -0.0838,0.218281 -0.30486,0.403992 -0.49133,0.412694 -0.18647,0.0087 -0.87481,0.673145 -1.52966,1.476542 -2.328547,2.856796 -2.717907,3.286246 -2.855127,3.149028 -0.22366,-0.22366 -0.84843,0.410919 -1.27073,1.290672 -0.80186,1.670513 -1.22887,2.314035 -2.24247,3.379554 -0.572,0.601295 -1.04,1.255033 -1.04,1.452748 0,0.197715 -0.28323,0.488529 -0.6294,0.646255 -0.45279,0.206304 -0.59016,0.436835 -0.48956,0.82154 0.0873,0.333819 -0.0242,0.626551 -0.29664,0.779033 -0.24006,0.134348 -0.43648,0.402368 -0.43648,0.595601 0,0.193231 -0.1786,0.499549 -0.39688,0.680707 -0.21828,0.181158 -0.39687,0.557112 -0.39687,0.835456 0,0.278342 -0.19586,0.80499 -0.43523,1.170326 -0.37044,0.565354 -0.38696,0.810506 -0.11101,1.646643 0.17832,0.540316 0.30054,1.10042 0.2716,1.244674 -0.12513,0.623818 0.0382,0.723624 0.40362,0.2467 0.38504,-0.502457 0.40482,-0.499253 0.91276,0.147867 1.01441,1.292368 1.01328,4.049289 -0.002,4.371462 -0.28093,0.08916 -0.51078,0.25759 -0.51078,0.374285 0,0.339831 -3.23687,1.648214 -3.47888,1.406205 -0.12073,-0.12073 0.12262,-0.594096 0.54078,-1.051926 0.66856,-0.731975 0.74377,-0.978995 0.62337,-2.047229 -0.10494,-0.931021 -0.30497,-1.334473 -0.85625,-1.727022 -1.65465,-1.178211 -4.88244,-1.274406 -7.90209,-0.235493 -1.53233,0.527201 -2.26357,0.64098 -1.65918,0.258165 0.20055,-0.127024 0.2796,-0.368541 0.17566,-0.536705 -0.10393,-0.168166 -0.0721,-0.449368 0.0708,-0.624893 0.14286,-0.175527 0.57516,-1.093046 0.96066,-2.038932 0.38551,-0.945885 0.82784,-1.974709 0.98295,-2.286275 0.20027,-0.40228 0.19918,-0.709054 -0.004,-1.058333 -0.1965,-0.338146 -0.28834,-0.374084 -0.29387,-0.115001 -0.006,0.27124 -0.17966,0.215627 -0.62041,-0.198438 -1.1025,-1.035743 -4.29076,-0.63545 -7.00021,0.878893 -0.65193,0.364368 -1.34301,0.662488 -1.53573,0.662488 -0.19272,0 -0.44846,0.175233 -0.56832,0.389408 -0.11986,0.214175 -0.47301,0.428337 -0.78478,0.475914 -0.31176,0.04758 -1.06706,0.586721 -1.67843,1.198094 -0.61132,0.61137 -1.27611,1.111583 -1.47728,1.111583 -0.20116,0 -0.36574,0.114049 -0.36574,0.253442 0,0.139393 -0.4546,0.731319 -1.01021,1.315392 -0.93665,0.984623 -1.05018,1.033952 -1.55914,0.67746 -0.48064,-0.336655 -0.5891,-0.336081 -0.87185,0.0046 -0.51642,0.622237 -0.80704,0.184417 -0.6266,-0.943962 0.11126,-0.695788 0.0675,-1.042352 -0.13172,-1.042352 -0.16412,0 -0.2984,-0.297656 -0.2984,-0.661459 0,-0.363802 -0.0893,-0.642231 -0.19844,-0.618733 -0.10914,0.0235 -0.53195,-0.09493 -0.93958,-0.263184 -0.6056,-0.249959 -1.01567,-0.213233 -2.24213,0.200817 -0.82553,0.278698 -1.59335,0.449638 -1.70625,0.379862 -0.1129,-0.06978 -0.20527,-7.94e-4 -0.20527,0.153331 0,0.154109 -0.0893,0.2661 -0.19843,0.248867 -0.7013,-0.110731 -1.17442,0.11602 -1.43489,0.687705 -0.16449,0.361006 -0.51085,0.723588 -0.76969,0.805744 -0.25885,0.08215 -0.55279,0.52347 -0.65322,0.980702 -0.10042,0.457231 -0.43271,1.033864 -0.73841,1.281406 -0.51381,0.41606 -0.5799,0.417311 -0.87457,0.01656 -0.28573,-0.388589 -0.31393,-0.378691 -0.27217,0.09553 0.0627,0.71152 -1.0346,0.894035 -1.25224,0.208294 -0.18027,-0.567979 -1.63256,-2.215669 -1.80283,-2.045396 -0.0642,0.06415 -0.27584,-0.180838 -0.47043,-0.54442 -0.19458,-0.363575 -0.45976,-0.661051 -0.58928,-0.661051 -0.12951,0 -0.16961,-0.106587 -0.0891,-0.23686 0.0805,-0.13027 -0.0315,-0.305128 -0.24896,-0.38857 -0.46097,-0.176887 -0.52337,-0.992812 -0.10772,-1.408456 0.20713,-0.207129 0.20214,-0.340477 -0.0178,-0.476414 -0.18383,-0.113612 -0.36332,0.03252 -0.45079,0.367011 -0.16714,0.639157 -0.20496,0.651071 -0.89476,0.281898 -0.28148,-0.150641 -0.51178,-0.479597 -0.51178,-0.731012 0,-0.251413 -0.26789,-0.574646 -0.59531,-0.718294 -0.32742,-0.143647 -0.71285,-0.529068 -0.85649,-0.85649 -0.14365,-0.327422 -0.34984,-0.595313 -0.45821,-0.595313 -0.34008,0 -2.04478,-1.777846 -1.87117,-1.951458 0.0909,-0.09087 -0.006,-0.165208 -0.21548,-0.165208 -0.54365,0 -2.35334,-1.551154 -2.35334,-2.017138 0,-0.215112 -0.41438,-0.564254 -0.92084,-0.775867 -0.50647,-0.211617 -1.11481,-0.680768 -1.35186,-1.042562 -0.23706,-0.361794 -0.52891,-0.597305 -0.64855,-0.523359 -0.11965,0.07395 -0.37452,-0.07774 -0.56638,-0.337076 -0.19185,-0.259337 -0.68793,-0.621282 -1.10238,-0.804326 -0.46948,-0.207346 -0.69996,-0.472455 -0.6114,-0.703254 0.1366,-0.355973 -0.79643,-0.861822 -2.05387,-1.113518 -0.27962,-0.05597 -0.6368,-0.197956 -0.79375,-0.31552 -0.39822,-0.298313 -2.41956,-0.987436 -3.95591,-1.348661 -1.22824,-0.288785 -1.83441,-0.24016 -4.81689,0.386395 -0.64328,0.135138 -1.16106,1.122021 -1.05734,2.015275 0.19235,1.65643 0.47098,2.346278 0.94768,2.346278 0.26894,0 0.78857,0.382812 1.15474,0.850696 0.53432,0.682733 0.60341,0.927841 0.34991,1.241414 -0.17373,0.214895 -0.18872,0.314704 -0.0333,0.221795 0.39921,-0.238665 1.70182,1.041199 1.70182,1.672101 0,0.313065 0.26053,0.624062 0.64537,0.770376 0.71101,0.270328 1.20671,1.013831 1.20671,1.809949 0,0.283636 0.21604,0.572195 0.48009,0.641246 0.48227,0.126119 3.29587,4.15716 3.76756,5.397775 0.13877,0.365017 0.44144,0.852781 0.67258,1.083924 0.28402,0.284022 0.36979,0.672581 0.26459,1.19861 -0.12383,0.61913 -0.0748,0.747321 0.23964,0.626655 0.51322,-0.196937 1.30825,0.993918 1.07294,1.607122 -0.0965,0.251348 -0.0894,0.37107 0.0156,0.266049 0.25295,-0.252947 1.15994,0.58148 1.15994,1.067138 0,0.209643 0.26716,0.75637 0.5937,1.214948 0.32654,0.458581 0.56602,0.954329 0.53219,1.101664 -0.0338,0.147336 0.21952,0.594945 0.56301,0.994686 0.85483,0.994836 1.36605,2.869408 0.97949,3.591702 -0.30277,0.565727 -1.87116,1.032804 -2.39042,0.71188 -0.44225,-0.273322 -1.37553,-2.244301 -1.19841,-2.53089 0.0869,-0.140528 0.0765,-0.387281 -0.0231,-0.548338 -0.12718,-0.205788 -0.24439,-0.190228 -0.39431,0.05235 -0.14865,0.240519 -0.27215,0.108693 -0.40733,-0.434771 -0.1067,-0.428975 -0.42656,-1.096055 -0.7108,-1.482403 -0.28424,-0.386349 -0.44286,-0.822089 -0.35249,-0.968311 0.27876,-0.451035 -0.13039,-1.107363 -0.69032,-1.107363 -0.40145,0 -0.49781,-0.129638 -0.39333,-0.529167 0.0899,-0.343921 0.008,-0.529167 -0.23373,-0.529167 -0.20465,0 -0.3721,-0.17009 -0.3721,-0.377975 0,-0.207889 -0.15457,-0.535311 -0.34349,-0.727604 -0.6144,-0.62538 -5.28053,-7.748675 -5.29089,-8.077052 -0.006,-0.175501 -0.0911,-0.268989 -0.19021,-0.207753 -0.0991,0.06124 -0.76073,-0.747673 -1.47032,-1.797577 -0.70959,-1.049901 -1.44211,-2.004126 -1.62783,-2.120498 -0.18572,-0.116371 -0.33768,-0.443793 -0.33768,-0.727604 0,-0.28381 -0.0973,-0.486254 -0.21614,-0.449873 -0.35882,0.109804 -2.72878,-2.971263 -2.53129,-3.2908 0.10224,-0.165439 0.0652,-0.223687 -0.0836,-0.131673 -0.14685,0.09076 -0.54908,-0.135239 -0.89385,-0.502221 -0.49045,-0.522066 -0.55024,-0.714579 -0.27479,-0.884815 0.2231,-0.137885 0.25307,-0.278746 0.0818,-0.384587 -0.14863,-0.09186 -0.31516,-0.03222 -0.37008,0.132535 -0.11885,0.356534 -2.85577,-2.729987 -2.85577,-3.220546 0,-0.186396 -0.0815,-0.257431 -0.18104,-0.157858 -0.27901,0.279016 -1.93562,-1.454203 -1.93562,-2.025142 0,-0.354496 -0.12636,-0.457083 -0.42285,-0.343307 -0.25108,0.09635 -0.74298,-0.107109 -1.21093,-0.500859 -0.4334401,-0.364718 -0.9590101,-0.663123 -1.1679301,-0.663123 -0.97903,0 -3.97527,6.629702 -5.63829,12.475715 -3.78521996,13.306102 -4.40214,25.274967 -1.9822,38.456575 0.24043,1.309687 0.53771,2.619374 0.66061,2.910416 0.1229,0.291042 0.5953,1.709113 1.04978,3.151272 0.45448,1.442156 1.24124,3.52575 1.74836,4.630208 1.17609,2.561431 1.20962,2.762449 0.57438,3.44429 -0.29346,0.314995 -0.57142,1.04965 -0.62704,1.657292 -0.0549,0.600316 -0.20936,1.161897 -0.34314,1.24796 -0.13378,0.08606 -0.51732,0.930384 -0.8523,1.876269 -0.33499,0.945885 -0.71376,1.857965 -0.84172,2.026846 -0.12795,0.168881 -0.5291,1.414814 -0.89143,2.76874 -0.36234,1.353928 -0.79544996,2.546141 -0.96246996,2.649363 -0.16701,0.103224 -0.3289,0.823438 -0.35975,1.60048 -0.0308,0.777039 -0.17539,1.887432 -0.32121,2.467538 -0.14582,0.580107 -0.2698,1.233334 -0.2755,1.451616 -0.006,0.218281 -0.12605,0.873125 -0.26744,1.455208 -0.14139,0.582083 -0.3408,2.189431 -0.44315,3.571871 -0.20384004,2.75344 -0.47305004,3.566 -1.10157004,3.32481 -0.27053,-0.10381 -0.35981,-0.0353 -0.26753,0.20516 0.16541,0.43104 -0.69632,1.23253 -1.32517,1.23253 -0.24518,0 -0.8689,0.27703 -1.38604,0.61562 -0.51714,0.33859 -1.4219,0.9332 -2.01057,1.32136 -0.58866,0.38815 -1.36257,1.1866 -1.71979,1.77432 -0.35722,0.58773 -0.86455,1.32875 -1.1274,1.64672 -0.4065699,0.49182 -0.5189199,0.52015 -0.7525599,0.18974 -0.21458,-0.30343 -0.23463,-0.27264 -0.0917,0.14078 0.7432699,2.1498 1.3775999,3.54682 1.9013699,4.18749 0.33628,0.41134 0.61143,0.92258 0.61143,1.13608 0,0.21349 0.14883,0.35574 0.33073,0.31611 0.4165,-0.0907 1.52135,0.84846 1.52135,1.29325 0,0.18317 0.29766,0.40774 0.66146,0.49905 0.3638,0.0913 0.66146,0.26155 0.66146,0.37831 0,0.11676 0.56555,0.47177 1.25677,0.78889 0.69122,0.31713 1.55443,0.71451 1.91823,0.88307 0.3638,0.16856 0.75667,0.45549 0.87304004,0.63763 0.11637,0.18214 0.62613,0.33116 1.13278,0.33116 0.52987,0 0.97949996,0.15194 1.05844996,0.35765 0.0841,0.21922 0.38962,0.30941 0.78926,0.23301 0.50641,-0.0968 0.61699,-0.0334 0.49518,0.28406 -0.0863,0.22478 -0.65352,0.4989 -1.26058,0.60916 -0.60706996,0.11025 -0.89539996,0.24693 -0.64073996,0.30373 0.25467,0.0568 0.46302996,0.19992 0.46302996,0.31803 0,0.37628 -1.32505996,1.09871 -1.66111996,0.90565 -0.17779,-0.10214 -0.24412,-0.0974 -0.1474,0.0105 0.0967,0.10792 -0.11399,0.62334 -0.46825004,1.14537 -0.55517,0.8181 -0.62721,1.1713 -0.5218,2.55817 0.0673,0.88496 0.12915,1.70354 0.13752,1.81906 0.008,0.11552 0.20778,0.17505 0.44314,0.13229 0.23536004,-0.0428 0.56278004,0.1474 0.72760004,0.42258 0.25983,0.4338 0.74619,1.00117 2.21591996,2.585 0.1808,0.19484 0.81404,0.77098 1.40718,1.2803 2.29893,1.97405 2.66433,2.37577 2.46405,2.70905 -0.15601,0.25961 -0.11567,0.26512 0.18176,0.0248 0.29537,-0.23864 0.50239,-0.22102 0.91069,0.0775 0.29063,0.21251 0.52841,0.51874 0.52841,0.6805 0,0.16177 0.21568,0.32577 0.47928,0.36446 0.51705,0.0759 3.0369201,1.73984 4.0348201,2.66432 0.33694,0.31215 0.66084,0.51932 0.71977,0.46039 0.0589,-0.0589 0.45324,0.21513 0.87622,0.60904 0.423,0.3939 0.95897,0.73102 1.19106,0.74913 0.23209,0.0181 0.76787,0.27889 1.19062,0.57947 0.82804,0.58875 7.70622,4.10692 8.90459,4.55468 0.40018,0.14952 0.7276,0.40089 0.7276,0.5586 0,0.15771 0.11122,0.21801 0.24714,0.134 0.26186,-0.16183 2.28837,0.54642 2.88379,1.00786 0.19404,0.15038 0.55123,0.29415 0.79375,0.31949 0.24252,0.0253 2.28641,0.66124 4.54199,1.41312 2.25557,0.75189 4.93448,1.59266 5.95312,1.8684 6.7328,1.82245 8.21519,2.19643 10.58333,2.66998 2.70359,0.54063 5.77114,1.24103 6.4823,1.48007 0.77328,0.25992 -1.39596,0.93569 -2.46687,0.76849 -0.5823,-0.0909 -0.94849,-0.0557 -0.86281,0.0829 0.24604,0.39809 -0.55609,0.87282 -1.35063,0.79935 -0.40901,-0.0378 -1.21019,0.14216 -1.7804,0.39996 -0.79497,0.35943 -1.1784,0.4042 -1.64419,0.19197 -0.41544,-0.18929 -0.66064,-0.19073 -0.77569,-0.005 -0.19434,0.31444 0.0542,0.6312 0.50211,0.63981 0.63005,0.0121 -0.0639,1.71385 -0.69885,1.71385 -0.364,0 -1.50601,1.07146 -1.50601,1.41299 0,0.14433 -0.18234,0.45099 -0.40522,0.68148 -0.76355,0.78965 -1.7108,2.00655 -1.71112,2.19821 -1.8e-4,0.10541 -0.33064,0.36246 -0.73437,0.57124 -0.48983,0.2533 -0.75358,0.61553 -0.79274,1.08876 -0.0753,0.91027 -0.28807,1.24531 -0.64904,1.02221 -0.17141,-0.10593 -0.21107,-0.0543 -0.0984,0.12798 0.10384,0.168 0.0557,0.30546 -0.10702,0.30546 -0.1627,0 -0.23142,0.10419 -0.15272,0.23153 0.0787,0.12734 -0.19707,0.70111 -0.61282,1.27503 -0.41575,0.57393 -0.8364,1.29711 -0.93477,1.60706 -0.11108,0.34997 -0.32414,0.5078 -0.5622,0.41645 -0.29154,-0.11188 -0.38333,0.084 -0.38333,0.81796 0,0.57303 -0.23146,1.27814 -0.56978,1.73574 -0.33464,0.45263 -0.55905,1.13063 -0.54378,1.64293 0.0143,0.47974 -0.16343,1.16252 -0.39494,1.51729 -0.30841,0.4726 -0.42827,1.3567 -0.4484,3.30729 -0.0236,2.29136 0.0574,2.82814 0.5819,3.85289 0.50613,0.98891 0.87458,1.31114 2.17474,1.90197 1.46237,0.66455 1.61747,0.68537 2.35712,0.31638 0.43545,-0.21723 1.39845,-0.49088 2.13998,-0.6081 0.9177,-0.14507 1.47589,-0.39537 1.74797,-0.78382 0.21986,-0.31389 0.52904,-0.49078 0.68709,-0.3931 0.17723,0.10953 0.21079,0.0537 0.0876,-0.14568 -0.12715,-0.20573 0.002,-0.37611 0.35599,-0.46861 0.30569,-0.0799 0.55579,-0.30778 0.55579,-0.50632 0,-0.19853 0.29766,-0.43568 0.66146,-0.52699 0.3638,-0.0913 0.66146,-0.31443 0.66146,-0.49583 0,-0.3377 1.52481,-1.72948 1.89478,-1.72948 0.1129,0 0.13952,-0.17137 0.0591,-0.38081 -0.0829,-0.21602 0.0924,-0.52979 0.40518,-0.7251 0.30322,-0.18937 0.55131,-0.46815 0.55131,-0.61952 0,-0.15138 0.35603,-0.40962 0.79119,-0.57387 0.43516,-0.16425 0.899,-0.5822 1.03077,-0.92878 0.13177,-0.34657 0.43842,-0.79516 0.68146,-0.99686 0.24304,-0.2017 0.62528,-0.72139 0.84944,-1.15486 0.22416,-0.43347 0.63303,-1.03014 0.9086,-1.32593 0.27557,-0.29579 0.50104,-0.63442 0.50104,-0.7525 0,-0.38974 0.7339,-0.22312 0.89773,0.20382 0.30003,0.78187 0.16209,1.61547 -0.36857,2.22732 -0.29104,0.33558 -0.52916,0.77425 -0.52916,0.97483 0,0.20058 -0.1786,0.43323 -0.39688,0.51699 -0.21828,0.0838 -0.39687,0.31815 -0.39687,0.52087 0,0.20271 -0.10961,0.36856 -0.24356,0.36856 -0.13396,0 -0.32442,0.36815 -0.42325,0.81812 -0.19977,0.90951 -2.07239,3.55748 -2.68099,3.79102 -0.21445,0.0823 -0.3158,0.26953 -0.22523,0.41608 0.0906,0.14655 0.0525,0.26645 -0.0847,0.26645 -0.13713,0 -0.31764,0.2612 -0.40113,0.58045 -0.14369,0.54948 -0.17821,0.55654 -0.647,0.13229 -0.56485,-0.51117 -1.11501,-0.58778 -1.11501,-0.15527 0,0.16109 0.17478,0.22583 0.3884,0.14385 0.21363,-0.082 0.45878,-0.0352 0.54479,0.10398 0.086,0.13917 0.0233,0.25303 -0.13944,0.25303 -0.16269,0 -0.21635,0.12856 -0.11924,0.28569 0.1566,0.25339 -1.54513,2.07832 -1.96453,2.10677 -0.0908,0.006 -0.45726,0.36335 -0.81423,0.79375 -0.37447,0.45149 -0.90614,0.78254 -1.25677,0.78254 -0.33425,0 -0.60773,0.1 -0.60773,0.22211 0,0.37779 -1.29675,0.83623 -2.36539,0.83623 -0.6363,0 -1.07175,0.14117 -1.16215,0.37676 -0.21478,0.55969 0.0216,3.85212 0.30219,4.20918 0.13348,0.16987 0.32383,0.84463 0.42301,1.49947 0.15395,1.01658 0.53596,2.29963 1.45735,4.89479 0.68167,1.91998 2.1555,4.25732 3.65084,5.78985 1.36002,1.39385 1.66526,1.85571 1.52288,2.3043 -0.14998,0.47254 -0.1065,0.521 0.27557,0.30718 0.35292,-0.1975 0.64849,-0.059 1.33117,0.62365 0.48264,0.48264 1.21327,0.95675 1.62363,1.05359 0.41036,0.0968 1.04377,0.42861 1.40757,0.73728 0.9766,0.82863 1.76849,1.22269 2.45703,1.22269 0.33668,0 0.72525,0.11193 0.86349,0.24872 0.71588,0.70837 5.53654,1.00989 7.57477,0.47378 z m 16.35679,-80.36564 c -3.93332,-0.71708 -6.50501,-2.71255 -8.4173,-6.53131 -1.16744,-2.33133 -1.33086,-3.91693 -0.52633,-5.10679 0.46884,-0.69339 0.84628,-0.94734 1.50235,-1.0108 1.20435,-0.1165 1.79769,0.50622 2.16411,2.27123 0.60675,2.92269 2.61834,5.3689 4.97982,6.05573 2.78344,0.80955 4.39848,0.0727 6.30692,-2.87743 0.80793,-1.24894 1.30658,-1.78336 1.56974,-1.68237 0.21212,0.0814 0.31665,0.0363 0.23229,-0.10019 -0.26065,-0.42174 1.65772,-0.62677 2.52053,-0.26938 0.94125,0.38988 1.90408,1.51705 1.66039,1.94379 -0.0941,0.16479 -0.0754,0.21304 0.0417,0.10721 0.11703,-0.10583 0.61081,0.15705 1.09728,0.58418 1.6144,1.41747 3.98018,1.5551 5.633457,0.32773 1.02513,-0.76103 2.09251,-3.11024 2.48097,-5.46035 0.27053,-1.63672 0.45891,-2.13911 0.86113,-2.29651 0.28316,-0.11081 0.39577,-0.21167 0.25025,-0.22413 -0.44469,-0.0381 0.49564,-0.53533 1.0205,-0.53966 0.34752,-0.003 0.44255,0.12306 0.32467,0.43025 -0.13883,0.36179 -0.0999,0.3789 0.23314,0.10249 0.32952,-0.27347 0.43264,-0.24517 0.58657,0.16102 0.10272,0.27105 0.35727,0.66517 0.56567,0.87582 0.28362,0.28668 0.33998,0.78575 0.22408,1.98437 -0.38166,3.94733 -2.51404,7.53464 -5.32692,8.96149 -3.116437,1.58083 -6.820417,1.22255 -9.222797,-0.8921 -0.65236,-0.57424 -1.25468,-1.04406 -1.33849,-1.04406 -0.0838,0 -0.66086,0.55251 -1.28232,1.2278 -2.30411,2.50367 -5.13962,3.54921 -8.14139,3.00197 z m -33.07291,-10.84584 c -4.25382,-1.50431 -7.03574,-4.10053 -7.5739,-7.06832 -0.0683,-0.37673 -0.25766,-0.93431 -0.42075,-1.23906 -0.1631,-0.30475 -0.30281,-1.62579 -0.31046,-2.93563 -0.012,-2.04922 0.087,-2.60306 0.70961,-3.96904 0.95607,-2.09773 1.14406,-2.393 1.47594,-2.31828 0.15382,0.0346 0.22319,-0.0844 0.15414,-0.26458 -0.16797,-0.43831 1.15704,-1.84235 1.52439,-1.61531 0.16893,0.1044 0.21426,0.0572 0.10887,-0.1133 -0.1,-0.16178 0.0884,-0.43388 0.42214,-0.60966 0.3315,-0.1746 0.66226,-0.40271 0.73502,-0.5069 0.27978,-0.40063 2.37928,-1.31163 3.34915,-1.45324 3.34052,-0.48776 6.6303,-0.20232 7.55067,0.65514 0.30657,0.28561 0.65924,0.45634 0.78372,0.37941 0.45516,-0.2813 3.89821,2.65628 3.53686,3.01763 -0.0747,0.0747 0.0934,0.29634 0.37357,0.49256 0.58437,0.40931 1.71375,2.69063 2.0081,4.05632 0.28937,1.3426 0.18211,4.58883 -0.18058,5.46508 -0.35798,0.86485 -0.32323,0.75424 -0.59168,1.88355 -0.13695,0.5761 -0.34435,0.84202 -0.61907,0.79375 -0.22723,-0.0399 -0.4707,0.0928 -0.54106,0.29497 -0.078,0.22407 -0.0112,0.29544 0.17099,0.18282 0.59207,-0.36592 0.28377,0.31291 -0.36255,0.79828 -0.3638,0.2732 -0.66146,0.64706 -0.66146,0.83081 0,0.18374 -0.0946,0.33407 -0.21014,0.33407 -0.11558,0 -0.72764,0.48256 -1.36014,1.07236 -0.6325,0.58979 -1.30199,1.01403 -1.48775,0.94275 -0.18577,-0.0713 -0.39218,0.0117 -0.45871,0.18441 -0.17789,0.46187 -2.14354,0.93118 -4.55305,1.08708 -1.67785,0.10855 -2.41835,0.0303 -3.57187,-0.37767 z m 3.10334,-1.74586 c -0.0879,-0.0879 -0.31612,-0.0973 -0.50712,-0.0209 -0.21107,0.0845 -0.14837,0.14716 0.15985,0.15985 0.27892,0.0115 0.43519,-0.0511 0.34727,-0.13896 z m 6.15707,-0.99992 c 0,-0.20131 -0.24908,-0.43115 -0.55352,-0.51076 -0.53114,-0.1389 -0.53483,-0.1241 -0.0913,0.36601 0.54993,0.60767 0.6448,0.62897 0.6448,0.14475 z m 2.11667,-1.48606 c 0,-0.14553 -0.0525,-0.26459 -0.11668,-0.26459 -0.0642,0 -0.19026,0.11906 -0.2802,0.26459 -0.0899,0.14552 -0.0374,0.26458 0.11668,0.26458 0.15411,0 0.2802,-0.11906 0.2802,-0.26458 z m -3.33234,-6.51244 c 0.0819,-0.21328 0.3192,-0.28801 0.5876,-0.18502 0.31594,0.12124 0.38997,0.0752 0.24811,-0.15435 -0.12014,-0.19438 -0.004,-0.47766 0.28732,-0.69801 0.38584,-0.29231 0.40546,-0.37442 0.0926,-0.38768 -0.33736,-0.0143 -0.33264,-0.0657 0.0314,-0.34293 0.49276,-0.37517 0.94006,-2.03832 0.54821,-2.03832 -0.14089,0 -0.33313,-0.41029 -0.42721,-0.91175 -0.11817,-0.62991 -0.5462,-1.24197 -1.38467,-1.98003 -0.66749,-0.58755 -1.30855,-1.0096 -1.42457,-0.9379 -0.33957,0.20987 -1.0389,-0.64701 -0.87551,-1.07277 0.10374,-0.27035 -0.0296,-0.38922 -0.43643,-0.38922 -0.4177,0 -0.5411,0.11643 -0.43007,0.40577 0.10586,0.27586 -0.23237,0.67824 -1.05639,1.25677 -2.37242,1.66564 -2.87598,3.93759 -1.40228,6.3268 l 0.89894,1.45739 2.30279,0.005 c 1.69439,0.003 2.33906,-0.09 2.44009,-0.35328 z m -5.92808,0.0458 c 0,-0.0642 -0.11906,-0.19026 -0.26458,-0.2802 -0.14552,-0.0899 -0.26458,-0.0374 -0.26458,0.11668 0,0.15411 0.11906,0.2802 0.26458,0.2802 0.14552,0 0.26458,-0.0525 0.26458,-0.11668 z m 10.49949,-2.84335 c -0.0845,-0.21107 -0.14715,-0.14837 -0.15985,0.15985 -0.0115,0.27892 0.0511,0.43519 0.13897,0.34727 0.0879,-0.0879 0.0973,-0.31613 0.0209,-0.50712 z m 0.28319,-2.18657 c -0.15416,-0.5023 -0.44131,-0.97506 -0.63811,-1.05058 -0.24925,-0.0956 -0.19519,0.18147 0.17814,0.91327 0.65955,1.29281 0.83025,1.34377 0.45997,0.13731 z m -18.95007,-0.50014 c -0.16207,-0.19529 -0.20642,-0.45251 -0.0985,-0.57159 0.10788,-0.11908 0.0473,-0.13087 -0.13459,-0.0262 -0.47715,0.27458 -0.407,0.95284 0.0985,0.95284 0.32912,0 0.36052,-0.0828 0.13459,-0.35507 z m 9.68875,-5.39069 c -0.40019,-0.0606 -1.05503,-0.0606 -1.45521,0 -0.40018,0.0606 -0.0728,0.11023 0.7276,0.11023 0.80037,0 1.12779,-0.0496 0.72761,-0.11023 z m 35.42175,19.90939 c -3.13007,-1.11574 -4.9122,-4.65445 -3.46011,-6.87061 1.63171,-2.4903 7.81631,-3.26982 10.72721,-1.35208 1.21601,0.80112 1.93134,2.26941 1.75309,3.59839 -0.25162,1.87597 -2.74969,4.63075 -3.67862,4.05664 -0.17645,-0.10905 -0.2244,-0.0654 -0.11774,0.10718 0.46456,0.75167 -3.44107,1.09595 -5.22383,0.46048 z m -2.28269,-7.1834 c 0,-0.21828 -0.11906,-0.32329 -0.26459,-0.23336 -0.14552,0.0899 -0.26458,0.34212 -0.26458,0.5604 0,0.21828 0.11906,0.32329 0.26458,0.23335 0.14553,-0.0899 0.26459,-0.34211 0.26459,-0.56039 z m 35.338417,0.1903 c -0.10099,-0.16342 -0.50322,-0.27751 -0.89384,-0.25353 -0.91536,0.0562 -3.62636,-1.24868 -4.25518,-2.04811 -0.2672,-0.33968 -0.58013,-0.53235 -0.69539,-0.42815 -0.11527,0.10421 -0.13714,-0.0128 -0.0486,-0.26008 0.10267,-0.28672 0.0461,-0.40646 -0.15628,-0.33059 -0.36337,0.13624 -1.15428,-0.96109 -2.19102,-3.03987 -0.49336,-0.98924 -0.75845,-2.01039 -0.84846,-3.2684 -0.14316,-2.00093 0.3358,-5.30166 0.84398,-5.81627 0.17624,-0.17847 0.54396,-0.70496 0.81716,-1.169993 0.27319,-0.465029 0.59393,-0.785424 0.71275,-0.711989 0.11882,0.07343 0.21604,-0.0097 0.21604,-0.184787 0,-0.473634 1.80095,-2.004425 3.30729,-2.811174 1.11888,-0.599234 1.73121,-0.725263 3.97012,-0.817116 2.5931,-0.106386 2.68773,-0.08921 4.63021,0.840423 2.23858,1.071343 3.02606,1.664009 3.28186,2.469957 0.0971,0.305855 0.33336,0.616294 0.52508,0.689864 0.63373,0.243183 2.04753,3.124915 2.2989,4.685815 0.30371,1.88586 -0.0821,5.00887 -0.672,5.44025 -0.22447,0.16414 -0.40813,0.67935 -0.40813,1.14491 0,0.58756 -0.29719,1.20202 -0.97159,2.00882 -0.53437,0.63928 -1.05662,1.10978 -1.16054,1.04555 -0.10393,-0.0642 -0.24647,0.10314 -0.31676,0.37193 -0.0703,0.2688 -0.50054,0.65371 -0.95612,0.85537 -0.45558,0.20166 -0.82832,0.44868 -0.82832,0.54895 0,0.10026 -0.37493,0.17164 -0.83318,0.15861 -0.51817,-0.0147 -0.9649,0.15644 -1.18157,0.45274 -0.42004,0.57444 -3.87733,0.92696 -4.18641,0.42687 z m 3.9522,-10.13013 c 0.58208,-0.17095 1.20905,-0.2837 1.39325,-0.25055 0.1842,0.0331 0.30896,-0.0347 0.27725,-0.15073 -0.0317,-0.11605 0.21764,-0.73798 0.55413,-1.38208 1.96064,-3.75295 -2.21318,-7.623453 -5.68089,-5.268061 -1.78903,1.215171 -2.14775,3.858271 -0.77005,5.673881 0.41272,0.54391 0.53952,0.92455 0.37459,1.12448 -0.1665,0.20184 -0.15606,0.22656 0.0314,0.0744 0.16133,-0.13092 0.69595,-0.0796 1.25677,0.12068 1.21865,0.43516 1.27487,0.43643 2.56351,0.058 z m 5.31923,-6.22916 c -0.26896,-0.268948 -0.49087,0.13597 -0.2702,0.49302 0.1667,0.26972 0.22902,0.26993 0.31864,0.001 0.0613,-0.18383 0.0395,-0.40617 -0.0484,-0.49409 z M 30.820993,212.28142 c 0.0899,-0.14552 -0.0221,-0.26458 -0.24897,-0.26458 -0.22687,0 -0.41249,0.11906 -0.41249,0.26458 0,0.14552 0.11204,0.26458 0.24897,0.26458 0.13693,0 0.32255,-0.11906 0.41249,-0.26458 z M 6.8762029,211.35538 c 0,-0.0388 -0.23813,-0.13285 -0.52917,-0.20896 -0.33071,-0.0865 -0.52916,-0.008 -0.52916,0.20896 0,0.21707 0.19845,0.29544 0.52916,0.20895 0.29104,-0.0761 0.52917,-0.17013 0.52917,-0.20895 z m 13.0850501,-0.11109 c 0.15203,-0.1199 1.16937,-0.29967 2.26078,-0.39948 1.09141,-0.0998 2.40109,-0.28901 2.91042,-0.42042 0.50932,-0.13141 1.63142,-0.30304 2.49355,-0.38139 0.86214,-0.0784 1.85402,-0.33018 2.20419,-0.55962 0.35017,-0.22945 0.80184,-0.35379 1.0037,-0.27633 0.20187,0.0775 0.4374,0.027 0.52341,-0.11218 0.086,-0.13917 0.38748,-0.25303 0.66993,-0.25303 0.28245,0 0.51355,-0.10961 0.51355,-0.24356 0,-0.13396 0.38695,-0.3263 0.8599,-0.42743 0.47294,-0.10113 1.00872,-0.30376 1.19062,-0.4503 0.1819,-0.14653 0.33255,-0.16255 0.33478,-0.0356 0.002,0.12696 0.0915,0.10508 0.19844,-0.0486 0.27249,-0.39173 3.43244,-2.08388 4.62616,-2.47729 0.58882,-0.19406 1.00588,-0.5069 1.02588,-0.7695 0.0843,-1.10663 -0.0658,-2.52155 -0.31716,-2.99132 -0.15148,-0.28305 -0.56565,-2.25548 -0.92038,-4.38318 -0.35472,-2.12769 -0.70548,-3.92907 -0.77947,-4.00305 -0.074,-0.074 0.0741,-0.37096 0.32909,-0.65996 0.45994,-0.52131 0.45772,-0.52166 -0.28251,-0.0451 l -0.74611,0.48038 -0.84139,-0.84409 c -0.70416,-0.70641 -0.77666,-0.88531 -0.44452,-1.09683 0.23748,-0.15123 0.27032,-0.25437 0.0818,-0.2568 -0.17332,-0.002 -0.3889,0.11533 -0.47908,0.26125 -0.33126,0.53599 -1.11608,-0.26195 -2.00399,-2.03749 -0.79131,-1.58238 -0.91146,-2.0963 -0.99498,-4.25614 -0.0698,-1.80584 0.0112,-2.6818 0.30581,-3.30729 0.22045,-0.46796 0.48377,-1.299 0.58516,-1.84675 0.10139,-0.54775 0.35421,-1.09097 0.56182,-1.20715 0.23141,-0.12951 0.30788,-0.39259 0.19762,-0.67992 -0.14192,-0.36984 -0.22703,-0.39425 -0.40356,-0.11577 -0.18257,0.288 -0.22446,0.28375 -0.22777,-0.0231 -0.002,-0.20682 -0.17368,-0.56401 -0.38101,-0.79375 -0.20732,-0.22974 -0.74669,-1.12123 -1.1986,-1.98109 -0.4519,-0.85986 -1.03746,-1.75283 -1.30124,-1.98438 -0.26378,-0.23154 -0.7947,-0.89724 -1.17983,-1.47932 -1.13222,-1.71127 -1.59389,-2.34173 -2.22611,-3.04001 -0.32803,-0.36231 -0.59642,-0.74927 -0.59642,-0.85989 0,-0.11063 -0.20836,-0.42138 -0.46302,-0.69055 -0.95232,-1.00658 -1.28935,-1.52954 -1.18584,-1.84007 0.0586,-0.17581 0.20297,-0.26006 0.32082,-0.18723 0.11784,0.0728 0.28761,-0.0588 0.37727,-0.2924 0.11416,-0.29747 0.0483,-0.38078 -0.21976,-0.27793 -0.21053,0.0808 -0.44061,0.005 -0.51128,-0.16897 -0.0734,-0.18048 -0.13745,-0.12802 -0.14939,0.12238 -0.0316,0.66347 -0.97731,0.30442 -1.72943,-0.65661 -0.67879,-0.86734 -0.66448,-1.31861 0.0333,-1.05084 0.28927,0.111 0.3849,0.0441 0.30021,-0.20999 -0.14608,-0.43822 -0.79113,-0.50919 -1.06493,-0.11716 -0.1159,0.16594 -0.37401,0.0134 -0.65655,-0.38802 -0.92139,-1.30906 -5.12188,-6.07945 -6.43327,-7.30609 -0.73666,-0.68906 -1.29555,-1.38091 -1.242,-1.53744 0.0536,-0.15653 -0.12026,-0.49296 -0.38626,-0.74762 -0.27483,-0.26311 -0.48365,-0.33108 -0.48365,-0.15743 0,0.1733 -0.22908,0.0983 -0.52917,-0.1733 -0.67107,-0.60731 -0.6808,-1.02742 -0.0198,-0.85456 0.35733,0.0934 0.46734,0.0237 0.36857,-0.23372 -0.0774,-0.20181 -0.47612,-0.36693 -0.88595,-0.36693 -0.73676,0 -1.44915,-0.48375 -3.5638701,-2.42009 -0.58208,-0.53298 -1.91665,-1.63823 -2.96572,-2.45611 -1.3979,-1.08985 -1.86827,-1.60896 -1.76097,-1.94344 0.11396,-0.35526 0.0888,-0.37559 -0.11356,-0.0918 -0.29184,0.40933 -0.26135,0.42272 -2.74789,-1.20674 -5.72794,-3.75358 -12.9374099,-6.34937 -14.8332499,-5.34076 -0.71088,0.37821 -3.64007,3.05492 -3.64007,3.32633 0,0.0859 -0.39346,0.64472 -0.87435,1.24179 -2.52024,3.12908 -5.025487,8.70642 -6.548802,14.57933 -0.705763,2.72096 -0.844796,3.80852 -0.972222,7.60503 -0.174982,5.21325 0.177128,8.81889 1.272686,13.03247 0.4162,1.60073 0.893299,3.4462 1.060225,4.10104 0.166925,0.65485 0.40758,1.36922 0.534789,1.5875 1.086606,1.86453 1.510104,2.90768 1.380955,3.40154 -0.100666,0.38495 -0.02654,0.56721 0.230685,0.56721 0.455214,0 1.606654,1.94798 1.331324,2.25231 -0.10638,0.11758 -0.0718,0.14498 0.0768,0.0609 0.14859,-0.0841 0.52565,0.31354 0.83791,0.88362 0.35442,0.64704 0.45174,1.03916 0.25901,1.04356 -0.16981,0.004 0.004,0.20117 0.38636,0.43844 0.69132,0.42904 1.73036,1.88766 1.61452,2.26649 -0.0334,0.10915 0.047,0.16868 0.17854,0.1323 0.24023,-0.0664 1.87746,2.00563 1.87746,2.3761 0,0.10883 0.29792,0.49681 0.66205,0.86219 0.36413,0.36537 1.47985,1.49775 2.47937,2.51639 2.6949799,2.74654 4.8837599,4.73963 5.2700099,4.79882 0.1879,0.0288 0.5662,0.33784 0.84067,0.68677 0.27447,0.34893 0.98393,0.85308 1.57659,1.12033 0.59265,0.26725 1.07756,0.58689 1.07756,0.71031 0,0.12342 0.2792,0.2244 0.62045,0.2244 0.34125,0 0.83595004,0.23812 1.09934004,0.52916 0.26339,0.29105 0.75809,0.52917 1.09934,0.52917 0.34123996,0 0.62044996,0.15263 0.62044996,0.33917 0,0.18654 0.30162,0.36413 0.67028,0.39464 0.36865,0.0305 1.01758,0.23507 1.44206,0.45458 0.42449,0.21951 0.93801,0.39911 1.14116,0.39911 0.20315,0 0.71508,0.16888 1.13762,0.37528 0.42254,0.2064 1.72075,0.51259 2.88492,0.68042 2.4016901,0.34624 4.1010401,0.78979 4.1010401,1.07043 0,0.26692 6.92649,0.27811 7.26422,0.0118 z m 28.3487,-0.70912 c -0.0942,-0.24538 -0.23074,-0.38662 -0.3035,-0.31386 -0.0728,0.0728 -0.0553,0.33306 0.0389,0.57844 0.0942,0.24539 0.23074,0.38663 0.3035,0.31387 0.0728,-0.0728 0.0553,-0.33306 -0.0389,-0.57845 z m -2.01084,-0.34211 c 0,-0.12995 -0.17859,-0.30481 -0.39687,-0.38857 -0.4033,-0.15476 -0.54187,0.12708 -0.22049,0.44846 0.25286,0.25286 0.61736,0.2175 0.61736,-0.0599 z m -8.86354,-0.55747 c 0.0899,-0.14552 0.0445,-0.26459 -0.10106,-0.26459 -0.14552,0 -0.33817,0.11907 -0.4281,0.26459 -0.0899,0.14552 -0.0445,0.26458 0.10106,0.26458 0.14552,0 0.33816,-0.11906 0.4281,-0.26458 z m -2.37411,-0.51761 c -0.086,-0.13917 -0.33116,-0.18596 -0.54478,-0.10399 -0.54692,0.20988 -0.48247,0.35701 0.15638,0.35701 0.29963,0 0.47441,-0.11386 0.3884,-0.25302 z m 5.41682,-0.80531 c 0.21828,-0.14106 0.27781,-0.25648 0.13229,-0.25648 -0.14552,0 -0.44318,0.11542 -0.66146,0.25648 -0.21828,0.14107 -0.27781,0.25648 -0.13229,0.25648 0.14552,0 0.44318,-0.11541 0.66146,-0.25648 z m 0.73997,-1.63594 c 0.0631,-0.32752 -0.0539,-0.40302 -0.45998,-0.29683 -0.29952,0.0783 -0.54457,0.31584 -0.54457,0.52782 0,0.52897 0.89796,0.32248 1.00455,-0.23099 z m -49.7595401,-1.69891 c -0.0879,-0.0879 -0.31613,-0.0973 -0.50712,-0.0209 -0.21107,0.0845 -0.14837,0.14716 0.15985,0.15985 0.27892,0.0115 0.43519,-0.051 0.34727,-0.13896 z m -7.4689699,-6.9839 c -0.0899,-0.14552 -0.28258,-0.26458 -0.4281,-0.26458 -0.14552,0 -0.191,0.11906 -0.10107,0.26458 0.0899,0.14552 0.28259,0.26459 0.42811,0.26459 0.14552,0 0.191,-0.11907 0.10106,-0.26459 z m 56.75312,-2.38125 c 0,-0.14552 -0.0525,-0.26458 -0.11667,-0.26458 -0.0642,0 -0.19026,0.11906 -0.2802,0.26458 -0.0899,0.14552 -0.0374,0.26459 0.11667,0.26459 0.15411,0 0.2802,-0.11907 0.2802,-0.26459 z m 85.446557,-1.38586 c 0.5017,-0.15245 1.21486,-0.55785 1.58479,-0.90087 0.36994,-0.34303 0.81445,-0.62368 0.9878,-0.62368 0.17336,0 1.00383,-0.64606 1.8455,-1.43569 0.84166,-0.78963 1.62673,-1.37609 1.74459,-1.30325 0.11786,0.0728 0.18157,-0.0155 0.14159,-0.19633 -0.04,-0.18082 0.18249,-0.46221 0.49439,-0.62531 0.3119,-0.1631 0.73957,-0.43969 0.95038,-0.61465 0.21081,-0.17495 0.46793,-0.23347 0.57137,-0.13002 0.10345,0.10344 0.11839,0.006 0.0332,-0.21549 -0.0955,-0.24879 0.15287,-0.67777 0.64747,-1.11846 0.44129,-0.39319 0.80234,-0.83303 0.80234,-0.97743 0,-0.1444 0.10401,-0.26254 0.23114,-0.26254 0.38471,0 2.54154,-2.08667 2.54436,-2.46158 0.003,-0.3608 1.3823,-1.77175 1.73237,-1.77175 0.10849,0 0.2684,-0.28343 0.35534,-0.62985 0.087,-0.34641 0.38398,-0.68891 0.66007,-0.76111 0.27608,-0.0722 0.68433,-0.47338 0.9072,-0.89151 0.22288,-0.41813 0.60667,-1.14615 0.85287,-1.6178 0.24621,-0.47166 0.56908,-0.78251 0.71751,-0.69078 0.14843,0.0917 0.21619,0.006 0.15057,-0.19111 -0.0656,-0.19684 0.15707,-0.61402 0.49484,-0.92707 0.33778,-0.31304 0.61415,-0.71228 0.61415,-0.8872 0,-0.17493 0.28126,-0.69706 0.62503,-1.16029 0.8848,-1.19228 1.03111,-1.97542 0.40612,-2.17378 -0.27609,-0.0876 -0.50346,-0.30013 -0.50526,-0.47223 -0.005,-0.49483 -1.76286,-1.50352 -2.61995,-1.50352 -0.42821,0 -0.96776,0.18919 -1.19899,0.42042 -0.32457,0.32458 -1.05492,0.43014 -3.20348,0.46302 -1.69315,0.0259 -2.85701,-0.0661 -2.97191,-0.23487 -0.10387,-0.1526 -0.72464,-0.43176 -1.37948,-0.62035 -1.64924,-0.47497 -2.93138,-1.10318 -2.77336,-1.35886 0.0728,-0.11782 -0.26788,-0.34632 -0.7571,-0.50778 -0.50813,-0.1677 -1.01721,-0.57387 -1.18739,-0.94736 -0.16384,-0.3596 -0.47101,-0.65381 -0.68261,-0.65381 -0.21159,0 -0.46422,-0.26789 -0.56139,-0.59531 -0.0972,-0.32742 -0.58808,-0.98226 -1.09089,-1.45521 -0.75375,-0.70896 -1.13221,-0.86303 -2.15626,-0.87775 -1.73378,-0.0249 -2.90742,-0.19899 -3.50763,-0.52021 -0.2819,-0.15087 -0.51436,-0.18081 -0.51659,-0.0666 -0.002,0.11426 -0.0915,0.0887 -0.19844,-0.0568 -0.10691,-0.14552 -0.45378,-0.40912 -0.77083,-0.58577 -0.45202,-0.25187 -0.60456,-0.25187 -0.70671,0 -0.0804,0.19815 -0.13828,0.16071 -0.15116,-0.0977 -0.0115,-0.23041 -0.16972,-0.42459 -0.35162,-0.4315 -0.1819,-0.007 -0.52504,-0.0936 -0.76252,-0.19272 -0.38794,-0.16183 -0.42113,0.12381 -0.32678,2.81276 0.0578,1.64609 0.15663,3.35007 0.21972,3.78663 0.2557,1.76945 0.76084,8.0561 0.7866,9.78959 0.0151,1.01864 0.1567,2.14974 0.31458,2.51354 0.15788,0.3638 0.36567,1.3163 0.46176,2.11667 0.22913,1.90858 0.28351,2.19838 0.47167,2.51354 0.0869,0.14552 0.24463,0.97883 0.35055,1.85181 0.10593,0.87297 0.36829,1.92697 0.58302,2.34221 0.52737,1.01982 1.14737,3.12475 0.99364,3.37348 -0.18811,0.30437 1.07433,1.56062 1.56831,1.56062 0.23797,0 0.41858,0.0893 0.40135,0.19844 -0.0953,0.6038 0.1564,0.60418 2.13414,0.003 z M 37.985873,169.74965 c 1.7703,-2.79991 5.06621,-7.20989 5.38849,-7.20989 0.21772,0 1.07267,-1.45599 1.07267,-1.82676 0,-0.15945 -0.28039,-0.28991 -0.6231,-0.28991 -0.94639,0 -9.78311,-2.47099 -13.31688,-3.72377 -1.7191,-0.60946 -3.45293,-1.22315 -3.85293,-1.36377 -0.40001,-0.14062 -0.67933,-0.33337 -0.62071,-0.42834 0.0586,-0.095 -0.16264,-0.18877 -0.4917,-0.20846 -0.80595,-0.0482 -2.55382,-0.89565 -2.39094,-1.15919 0.0717,-0.11598 -0.12658,-0.14369 -0.44058,-0.0616 -0.38832,0.10155 -0.51097,0.0523 -0.3835,-0.15393 0.1215,-0.19659 0.043,-0.24782 -0.22321,-0.14566 -0.55713,0.21379 -0.54091,0.26148 0.504,1.48223 0.50304,0.58769 0.88999,1.20193 0.8599,1.36498 -0.0301,0.16305 0.0861,0.26937 0.25811,0.23627 0.17206,-0.0331 0.58334,0.38362 0.91395,0.92604 0.33061,0.54242 0.80336,1.13371 1.05055,1.31397 0.68869,0.50222 3.55385,4.39965 3.45467,4.69934 -0.0482,0.14552 -0.002,0.17932 0.1019,0.0751 0.10421,-0.1042 0.41778,0.10079 0.69683,0.45554 0.40228,0.51142 0.44787,0.75614 0.22015,1.18165 -0.19339,0.36135 -0.19774,0.53665 -0.0133,0.53665 0.15064,0 0.27389,-0.13751 0.27389,-0.30559 0,-0.17914 0.20709,-0.11818 0.50046,0.14733 0.31859,0.28831 0.44737,0.65598 0.35435,1.01167 -0.11463,0.43836 -0.0523,0.52277 0.28925,0.3917 0.28924,-0.11099 0.53882,0.0294 0.7436,0.41839 0.16952,0.32201 0.38386,0.64499 0.47631,0.71775 0.0924,0.0728 0.87,1.17409 1.7279,2.4474 0.85789,1.27331 1.58495,2.3151 1.61567,2.3151 0.0307,0 0.86512,-1.27992 1.85422,-2.84427 z m 116.251157,0.33698 c 0.45175,-0.23361 0.93693,-0.35333 1.07818,-0.26603 0.14125,0.0873 0.25681,-0.0805 0.25681,-0.37291 0,-0.2924 0.14883,-0.62685 0.33073,-0.74322 0.1819,-0.11638 0.57221,-0.55605 0.86734,-0.97706 0.38738,-0.55259 0.92958,-0.86604 1.94959,-1.12709 1.89172,-0.48412 3.27668,-1.63581 4.18052,-3.47639 0.63599,-1.29512 0.74156,-1.83052 0.74118,-3.75917 -2.4e-4,-1.23693 -0.10451,-2.87129 -0.23171,-3.63192 -0.21891,-1.30898 -0.19766,-1.39665 0.39731,-1.63895 0.34572,-0.14079 1.16437,-0.73699 1.81921,-1.32489 0.65484,-0.58789 1.28185,-1.07075 1.39334,-1.07303 0.26281,-0.005 0.82997,-1.33178 1.38742,-3.24478 0.24375,-0.83648 0.55318,-1.58885 0.68761,-1.67193 0.13444,-0.0831 0.17147,-0.26912 0.0823,-0.41341 -0.0892,-0.14429 -0.0135,-1.01007 0.16814,-1.92395 0.25725,-1.29419 0.26414,-2.4169 0.0312,-5.07719 -0.42189,-4.81755 -1.29047,-7.66371 -3.38507,-11.09215 -0.71001,-1.16216 -1.44796,-2.27854 -1.63988,-2.48086 -0.19193,-0.20232 -0.53238,-0.64778 -0.75655,-0.98992 -0.22417,-0.34213 -0.50766,-0.56022 -0.62996,-0.48463 -0.1223,0.0756 -0.35641,-0.11304 -0.52025,-0.41918 -0.31343,-0.58564 -1.22325,-1.57488 -1.44846,-1.57488 -0.0728,0 -0.37314,-0.24085 -0.66752,-0.53523 -0.42754,-0.42754 -0.64158,-0.47831 -1.0638,-0.25235 -0.29072,0.15559 -0.64517,0.21082 -0.78769,0.12275 -0.14251,-0.0881 -0.25911,-0.0631 -0.25911,0.0554 0,0.11858 -0.58041,0.48187 -1.28979,0.80731 -1.20575,0.55315 -1.98435,0.61112 -4.53105,0.33736 -0.0728,-0.008 0.0463,-0.12964 0.26459,-0.2707 0.21828,-0.14107 0.83776,-0.25831 1.37661,-0.26054 1.70838,-0.007 4.76925,-1.70945 5.17964,-2.8808 0.63887,-1.8235 0.72019,-2.39463 0.55101,-3.87012 -0.10069,-0.87815 -0.0741,-1.69982 0.0595,-1.83886 0.13284,-0.13824 0.23792,-0.4359 0.2335,-0.66145 -0.007,-0.33759 -0.0557,-0.32824 -0.27774,0.0529 -0.38655,0.66368 -0.62349,0.58175 -1.33376,-0.46121 -0.34618,-0.50833 -0.76455,-0.92505 -0.92972,-0.92604 -0.16516,-0.001 -0.49712,-0.3022 -0.73768,-0.66934 -0.33518,-0.51156 -0.41957,-1.16551 -0.36115,-2.79882 0.0664,-1.85616 0.01,-2.17986 -0.43737,-2.50747 -0.6341,-0.46444 -1.19145,-0.48364 -1.31932,-0.0455 -0.0531,0.1819 -0.24806,1.19934 -0.43328,2.26097 -0.18522,1.06164 -0.43399,1.99033 -0.55281,2.06377 -0.11883,0.0734 -0.90238,0.24489 -1.74123,0.38101 -2.27553,0.36924 -2.89416,0.71796 -3.75471,2.11654 -0.80883,1.3145 -1.4902,4.13517 -1.21124,5.0141 0.17938,0.56517 -0.7615,1.27585 -1.05671,0.79818 -0.20308,-0.32858 -3.37283,-0.35334 -3.71784,-0.029 -0.13825,0.12995 -1.11725,0.42964 -2.17557,0.66599 -3.375,0.75371 -8.94657,3.12645 -10.26787,4.37273 -0.47256,0.44574 -0.98547,0.81044 -1.13979,0.81044 -0.43587,0 -3.99833,3.15699 -3.99833,3.54325 0,0.4048 -0.90505,1.28434 -1.11034,1.07905 -0.0778,-0.0777 -0.29089,0.21965 -0.47365,0.66088 -0.18276,0.44123 -0.43318,0.80223 -0.55648,0.80223 -0.1233,0 -0.15801,0.17243 -0.0771,0.38318 0.0809,0.21075 -0.0268,0.71676 -0.23927,1.12448 -0.75456,1.44791 -1.24729,2.75127 -1.24729,3.29927 0,0.3056 -0.14108,1.02653 -0.31352,1.60207 -0.21904,0.73109 -0.23108,1.17887 -0.0399,1.48591 0.24199,0.38873 0.0981,0.44465 -1.24603,0.48437 -4.54947,0.13443 -7.89619,4.70225 -7.60523,10.38013 0.19121,3.73119 1.63684,5.90782 4.6413,6.98821 0.99436,0.35757 1.43484,0.70208 1.8562,1.45179 0.30386,0.54063 0.85502,1.26721 1.22482,1.61461 0.36979,0.34741 0.62523,0.70789 0.56764,0.80108 -0.0576,0.0932 0.0949,0.18826 0.33888,0.21128 0.24398,0.023 1.20934,0.24889 2.14524,0.50193 1.56427,0.42292 1.86069,0.42767 3.67173,0.0588 l 1.97008,-0.40126 0.76874,1.21281 c 3.03809,4.79304 8.46088,6.91409 13.64569,5.33732 l 1.64956,-0.50165 1.36377,1.57422 c 1.30434,1.50563 2.21896,2.16417 3.66978,2.64234 0.98329,0.32407 4.07474,0.0623 5.01672,-0.42484 z M 28.572033,165.97934 c 0,-0.14552 -0.11906,-0.26458 -0.26458,-0.26458 -0.14552,0 -0.26459,0.11906 -0.26459,0.26458 0,0.14552 0.11907,0.26458 0.26459,0.26458 0.14552,0 0.26458,-0.11906 0.26458,-0.26458 z m 136.649627,0.0364 c -0.22381,-0.22381 -0.93335,-0.27471 -0.79899,-0.0573 0.067,0.10849 0.30574,0.19726 0.53042,0.19726 0.22469,0 0.34554,-0.063 0.26857,-0.13995 z m -51.17078,-3.64968 c -0.0179,-1.71671 -0.11867,-3.20437 -0.22393,-3.30592 -0.17976,-0.17341 -3.61047,0.85735 -3.93557,1.18245 -0.0825,0.0825 0.10864,0.51322 0.42476,0.95717 0.31612,0.44395 0.49886,0.93 0.40607,1.08012 -0.0928,0.15012 -0.0461,0.24023 0.1036,0.20025 0.44377,-0.11849 2.16631,1.99474 2.04381,2.50735 -0.0609,0.25486 -0.0269,0.41154 0.0756,0.34818 0.10252,-0.0634 0.35586,-0.0104 0.56298,0.11755 0.20712,0.128 0.42126,0.18805 0.47588,0.13343 0.0546,-0.0546 0.0847,-1.50388 0.0668,-3.22058 z m -3.98719,-5.48658 c 0,-0.25099 -0.79199,-0.37748 -0.93318,-0.14904 -0.086,0.13916 0.0888,0.25303 0.3884,0.25303 0.29963,0 0.54478,-0.0468 0.54478,-0.10399 z m -73.752597,-1.39416 c -0.1819,-0.0734 -0.47955,-0.0734 -0.66146,0 -0.1819,0.0734 -0.0331,0.13346 0.33073,0.13346 0.36381,0 0.51263,-0.0601 0.33073,-0.13346 z m -17.39635,-8.02685 c 0.0899,-0.14552 0.0374,-0.26459 -0.11668,-0.26459 -0.15411,0 -0.2802,0.11907 -0.2802,0.26459 0,0.14552 0.0525,0.26458 0.11668,0.26458 0.0642,0 0.19026,-0.11906 0.2802,-0.26458 z m -9.1281201,-0.0999 c 0,-0.0549 -0.20836,-0.2633 -0.46303,-0.46302 -0.41964,-0.32911 -0.429,-0.31975 -0.0999,0.0999 0.34564,0.44073 0.56292,0.58088 0.56292,0.36312 z m -31.1157999,-7.26434 c 0.07495,-0.12127 -0.03185,-0.22049 -0.237328,-0.22049 -0.205478,0 -0.312277,0.0992 -0.237329,0.22049 0.07495,0.12127 0.181745,0.22049 0.237329,0.22049 0.05558,0 0.162382,-0.0992 0.237328,-0.22049 z m 27.6762099,0.10381 c 0,-0.0642 -0.11906,-0.19026 -0.26458,-0.2802 -0.14552,-0.0899 -0.26458,-0.0374 -0.26458,0.11668 0,0.15411 0.11906,0.2802 0.26458,0.2802 0.14552,0 0.26458,-0.0525 0.26458,-0.11668 z M 124.56468,124.56501 c -0.0815,-0.0815 -0.22941,0.0654 -0.32877,0.32632 -0.14358,0.37708 -0.11319,0.40747 0.14811,0.14811 0.18083,-0.17948 0.26212,-0.39297 0.18066,-0.47443 z m 8.85281,-4.02083 c 0.11151,-0.0604 0.13405,-0.22093 0.0501,-0.35679 -0.17973,-0.2908 -1.17889,0.17465 -1.17889,0.54917 0,0.21799 0.54123,0.12575 1.1288,-0.19238 z M -0.79671706,97.319931 c 0,-0.218281 -0.11906,-0.396875 -0.26458004,-0.396875 -0.14552,0 -0.26458,0.178594 -0.26458,0.396875 0,0.218282 0.11906,0.396875 0.26458,0.396875 0.14552004,0 0.26458004,-0.178593 0.26458004,-0.396875 z M 150.3465,90.662412 c -0.1819,-0.0734 -0.47955,-0.0734 -0.66145,0 -0.18191,0.0734 -0.0331,0.133453 0.33072,0.133453 0.36381,0 0.51264,-0.06006 0.33073,-0.133453 z M 139.06054,61.204308 c 0.0965,-0.727604 0.24945,-1.322879 0.33984,-1.322834 0.33375,1.64e-4 0.0604,-10.681875 -0.36384,-14.219272 -1.32011,-11.006803 -4.88568,-23.037907 -9.16639,-30.929668 -0.56421,-1.040157 -0.95711,-2.070296 -0.87311,-2.289197 0.084,-0.2189 0.0269,-0.47576 -0.12686,-0.570798 -0.17675,-0.109234 -0.21654,0.0027 -0.10818,0.303966 0.26793,0.745175 -0.0346,0.366633 -1.49549,-1.871218 -0.7459,-1.1426081 -1.29561,-2.1380394 -1.22158,-2.2120724 0.074,-0.074033 -0.22564,-0.4948423 -0.66593,-0.9351327 -0.62569,-0.6256893 -0.72422,-0.8552471 -0.45115,-1.0510678 0.2651,-0.1901005 0.24469,-0.2172944 -0.0846,-0.1127284 -0.2387,0.075795 -0.65542,-0.061801 -0.92605,-0.305771 -0.47894,-0.4317709 -1.44922,-0.681482 -1.34561,-0.3463052 0.0285,0.092019 -0.32927,0.8294132 -0.79493,1.6386518 -2.95413,5.1337927 -7.40277,18.8680827 -9.45204,29.1812917 -0.37164,1.870302 -0.72948,3.487568 -0.79521,3.593923 -0.0657,0.106354 0.0248,0.193373 0.20113,0.193373 0.17635,0 0.79619,0.291108 1.37742,0.646909 0.58123,0.355801 1.49599,0.875048 2.03279,1.153882 0.5368,0.278834 0.91757,0.601517 0.84615,0.717074 -0.0714,0.115554 0.0745,0.131699 0.32417,0.03588 0.33242,-0.127561 0.39602,-0.08037 0.23745,0.176202 -0.14933,0.241626 -0.11485,0.287557 0.11107,0.147931 0.36091,-0.223057 5.42466,3.07417 5.82797,3.794853 0.13141,0.23481 0.27706,0.379687 0.32368,0.321955 0.21914,-0.271409 1.22757,0.315008 1.53748,0.894072 0.19075,0.356426 0.43764,0.591916 0.54864,0.523312 0.29827,-0.184341 3.68718,2.786303 3.68718,3.232097 0,0.20983 0.10557,0.316261 0.2346,0.236516 0.34374,-0.212447 0.90285,0.565436 0.67333,0.936802 -0.11246,0.181978 -0.0842,0.247978 0.0664,0.154916 0.38854,-0.240133 1.46481,0.606216 1.30395,1.025398 -0.0762,0.198523 -0.0348,0.425035 0.0919,0.503365 0.12674,0.07833 0.28647,-0.0072 0.35496,-0.189966 0.0866,-0.231195 0.24745,-0.172177 0.5283,0.193871 0.22208,0.289438 0.33641,0.635254 0.25407,0.768485 -0.0823,0.133231 -0.0248,0.165058 0.12779,0.07073 0.2909,-0.179784 1.77987,1.499875 1.80066,2.031259 0.007,0.169093 0.15406,0.278138 0.32766,0.242319 0.2793,-0.05762 2.57561,2.555787 2.84698,3.240124 0.0577,0.145521 0.22457,0.592005 0.37081,0.992188 0.16845,0.460975 0.45886,0.727604 0.79249,0.727604 0.43213,0 0.55808,-0.237318 0.70209,-1.322917 z m -10.7406,-8.614574 c 0,-0.226869 -0.11906,-0.338904 -0.26458,-0.248967 -0.14552,0.08994 -0.26458,0.275558 -0.26458,0.412491 0,0.136932 0.11906,0.248967 0.26458,0.248967 0.14552,0 0.26458,-0.185621 0.26458,-0.412491 z M 35.451203,47.461591 c 0,-0.357285 -0.48232,-0.604967 -0.79807,-0.409824 -0.14789,0.0914 -0.2004,0.277024 -0.11667,0.412491 0.19861,0.321366 0.91474,0.319278 0.91474,-0.0027 z m 55.29791,-8.586266 c 0,-0.05719 -0.18478,-0.174889 -0.41062,-0.261554 -0.23545,-0.09035 -0.34166,-0.046 -0.24896,0.103984 0.15538,0.25141 0.65958,0.371859 0.65958,0.15757 z m -39.6875,-3.071016 c 0,-0.14552 -0.11203,-0.264583 -0.24896,-0.264583 -0.13694,0 -0.32256,0.119063 -0.4125,0.264583 -0.0899,0.145521 0.0221,0.264584 0.24897,0.264584 0.22687,0 0.41249,-0.119063 0.41249,-0.264584 z m 28.97188,-0.79375 c 0.29104,-0.125065 0.36576,-0.235759 0.16604,-0.245985 -0.30778,-0.01577 -0.30778,-0.08557 0,-0.457981 0.33205,-0.401775 0.31261,-0.407924 -0.22708,-0.07184 -0.58104,0.361839 -1.0296,1.058109 -0.65826,1.021789 0.10457,-0.01023 0.42826,-0.12092 0.7193,-0.245986 z m -33.73438,-4.497916 c 0,-0.145521 -0.11906,-0.264583 -0.26458,-0.264583 -0.14552,0 -0.26458,0.119062 -0.26458,0.264583 0,0.145521 0.11906,0.264583 0.26458,0.264583 0.14552,0 0.26458,-0.119062 0.26458,-0.264583 z m 45.72182,-7.547626 c -0.0815,-0.08146 -0.22941,0.06538 -0.32877,0.326319 -0.14358,0.377084 -0.11319,0.407474 0.14812,0.148114 0.18082,-0.179478 0.26211,-0.39297 0.18065,-0.474433 z M 130.91468,1.0046012 c -0.0815,-0.081462 -0.22941,0.065382 -0.32877,0.3263193 -0.14358,0.3770837 -0.11319,0.4074737 0.14811,0.1481125 0.18083,-0.1794759 0.26212,-0.39297 0.18066,-0.4744318 z m -2.29732,-1.25417946 c -0.26131,-0.2593622 -0.2917,-0.2289712 -0.14812,0.1481125 0.0994,0.2609376 0.24731,0.4077813 0.32877,0.3263193 0.0815,-0.081462 1.7e-4,-0.2949559 -0.18065,-0.4744318 z m -0.76124,-1.38156894 c -0.0692,-0.362106 -0.23162,-0.5930053 -0.3609,-0.5131096 -0.1331,0.08226 -0.11594,0.3678142 0.0396,0.6583746 0.37026,0.69185184 0.47252,0.64562514 0.32133,-0.145265 z"
       id="path806" /></g></svg>
