<?xml version="1.0" encoding="UTF-8" standalone="no"?>
<!-- Created with Inkscape (http://www.inkscape.org/) -->

<svg
   width="223.56296mm"
   height="238.80092mm"
   viewBox="0 0 223.56297 238.80092"
   version="1.1"
   id="svg5"
   xml:space="preserve"
   xmlns="http://www.w3.org/2000/svg"
   xmlns:svg="http://www.w3.org/2000/svg"><defs
     id="defs2" /><g
     id="layer1"
     transform="translate(11.982413,-4.4008181)"><path
       style="fill:#000000;stroke-width:0.264583"
       d="m 90.666012,243.09454 c -5.71298,-0.35368 -8.76527,-0.56288 -11.90625,-0.81605 -4.2735,-0.34445 -11.35713,-1.01487 -12.30312,-1.1644 -0.43656,-0.069 -1.62719,-0.19792 -2.64583,-0.28648 -1.01865,-0.0885 -3.22131,-0.32897 -4.89479,-0.53427 -1.67349,-0.20529 -4.70959,-0.56094 -6.74688,-0.79031 -3.5501,-0.39969 -4.49115,-0.52311 -5.95312,-0.78072 -0.6067,-0.1069 -1.31144,-0.18171 -5.15938,-0.5477 -0.7276,-0.0692 -3.40651,-0.41769 -5.95312,-0.77442 -2.54662,-0.35672 -5.22552,-0.7212 -5.95313,-0.80995 -1.48487,-0.18111 -11.38979,-1.80652 -13.61176,-2.23371 -3.11945,-0.59973 -4.16278,-1.70895 -2.79788,-2.97457 1.79522,-1.66462 7.16381,-3.89235 10.90158,-4.52369 l 1.98178,-0.33474 -2.47019,-0.62697 c -11.58478,-2.94038 -20.9412595,-9.12716 -26.4884095,-17.51491 -2.61756,-3.95796 -3.6445,-5.88846 -5.06253,-9.5168 -2.6616305,-6.81034 -3.6079005,-12.35426 -3.5849905,-21.00333 0.008,-3.05593 0.0524,-6.0325 0.0984,-6.61458 0.33494,-4.23573 0.53377,-6.17518 1.10416,-10.77056 0.35597,-2.86787 0.70127,-5.36818 0.76734,-5.55625 0.0661,-0.18807 0.1769305,-0.81819 0.2463505,-1.40027 0.0694,-0.58209 0.31441,-2.07037 0.54441,-3.30729 0.23,-1.23693 0.60215,-3.43959 0.82699,-4.8948 0.22484,-1.4552 0.62782,-3.77692 0.89549,-5.15937 0.26768,-1.38245 0.69048,-3.85586 0.93954,-5.49647 0.39227,-2.58388 0.54176,-3.05287 1.11749,-3.50573 0.75978,-0.59765 2.13495,-0.6752 3.93509,-0.22192 0.89091996,0.22433 2.15102996,0.22497 4.95332,0.003 11.5889995,-0.91999 23.2830895,3.09302 31.8836995,10.94139 l 1.44972,1.32292 -0.16347,-1.19656 c -0.0899,-0.6581 -0.0777,-1.33526 0.027,-1.5048 0.36583,-0.59205 1.68764,-0.87065 4.13019,-0.87065 h 2.46079 l -0.20232,-1.10638 c -0.25158,-1.37577 -0.12657,-1.71482 0.73855,-2.00319 0.62638,-0.20879 0.48462,-0.3137 -1.67641,-1.24061 -9.66469,-4.14534 -15.86018,-8.07077 -21.81778,-13.82361 -3.01876,-2.91502 -5.12107,-5.63531 -6.88295,-8.90624 -0.91329,-1.69553 -1.14242,-2.40812 -1.24778,-3.88065 -0.11998,-1.67695 -0.0805,-1.85233 0.56216,-2.49496 0.65218,-0.65217 0.79231,-0.68142 2.48138,-0.5179 1.97935,0.19163 1.98618,0.22695 -0.28627,-1.48063 -2.69392,-2.02429 -3.29134,-3.50256 -1.79086,-4.431341 2.41991,-1.497893 5.50307,-4.573315 6.83059,-6.813444 0.95777,-1.616199 2.73137,-5.582298 2.71774,-6.077383 -0.004,-0.14994 -0.62921,-0.653773 -1.38907,-1.119627 -1.98654,-1.217919 -5.26264,-4.319246 -7.0682,-6.691127 -3.18908,-4.189344 -4.2663895,-6.808631 -6.8840595,-16.737382 -0.14387,-0.545703 -0.37913,-1.438672 -0.52281,-1.984375 -1.17442,-4.460806 -1.3041,-14.289111 -0.2819,-21.365103 1.17667,-8.145259 1.52384,-9.74884 3.6374295,-16.801041 1.62105,-5.408821 1.82665,-5.966809 3.61652,-9.814802 2.1882,-4.7043576 4.11666,-7.1246126 6.12147,-7.6825686 4.8334,-1.345176 18.42669,2.728115 30.95624,9.2761796 9.35715,4.890135 17.02743,10.073677 22.68693,15.331733 1.27271,1.182431 2.4065,2.149874 2.51952,2.149874 0.11303,0 0.44094,-0.446484 0.7287,-0.992187 0.87744,-1.664007 2.68435,-3.430368 3.70499,-3.621839 1.90239,-0.356893 2.77132,0.998638 2.77132,4.323284 0,1.178554 0.10914,2.142825 0.24254,2.142825 0.13339,0 0.28222,-0.09079 0.33073,-0.201765 0.1404,-0.321221 2.77958,-2.139286 4.27604,-2.945673 2.20101,-1.186034 4.68942,-2.082829 6.39548,-2.304853 1.78634,-0.232477 2.13258,-0.207601 2.97218,0.213531 1.00587,0.504531 0.99416,1.237898 -0.0596,3.730847 -0.24251,0.573739 0.14392,0.508828 3.569698,-0.599601 1.23693,-0.400214 3.73724,-1.168633 5.55625,-1.707597 1.81901,-0.538964 3.57343,-1.088321 3.8987,-1.22079 0.99076,-0.403503 7.13014,-1.578681 8.24735,-1.578681 2.47547,0 3.3727,1.217554 3.11959,4.233333 -0.15977,1.903714 -0.81763,3.652424 -2.04525,5.436713 -0.76367,1.109962 -0.77915,1.180158 -0.26852,1.217557 0.29804,0.02183 0.65417,0.05159 0.79142,0.06615 0.13725,0.01455 1.71483,-1.357355 3.50573,-3.048683 3.95416,-3.734299 4.40782,-4.122321 7.75411,-6.632217 6.815,-5.111617 13.72683,-8.936285 22.43124,-12.412357 9.62034,-3.841848 16.35386,-5.5747296 21.88646,-5.6325161 2.33886,-0.024429 2.94547,0.058291 3.83646,0.5231651 2.51045,1.309819 3.86303,5.466583 4.75703,14.619407 0.48118,4.926353 0.5704,17.364438 0.15498,21.605492 -1.19167,12.165576 -2.41826,18.499253 -4.84217,25.003124 -2.48764,6.674852 -5.29096,11.200735 -9.33552,15.071917 l -1.78706,1.710463 0.47075,1.861412 c 0.90115,3.563231 1.7851,6.11056 2.98719,8.60829 1.04388,2.169016 1.5657,2.873216 3.80694,5.137586 1.97422,1.99461 2.59724,2.79239 2.59724,3.32582 0,0.84451 -1.54656,2.74209 -2.73626,3.35731 l -0.83107,0.42976 1.45293,0.4819 c 0.79912,0.26504 1.48878,0.48524 1.53259,0.48934 0.0438,0.004 0.25638,0.43044 0.47239,0.94743 0.67392,1.61292 0.10552,3.35549 -2.33407,7.15569 -2.91292,4.5375 -9.20948,10.45242 -16.07735,15.10287 -6.48422,4.39068 -14.90532,8.63545 -20.83115,10.50024 -5.77917,1.81863 -13.6155,3.32693 -17.48831,3.36606 -1.26174,0.0128 -2.88341,0.10205 -3.60371,0.19844 l -1.30964,0.17526 1.77903,1.77761 c 0.97847,0.97768 2.28218,2.12274 2.89714,2.54457 1.27584,0.87515 5.80373,3.21844 6.21893,3.21844 0.15159,0 0.85185,-0.45368 1.55614,-1.00817 9.28438,-7.30966 32.97572,-19.97034 50.09616,-26.77144 8.02226,-3.18685 11.09719,-4.24889 11.79484,-4.07379 0.36587,0.0918 0.60117,0.231 0.5229,0.30927 -0.0783,0.0783 -0.0399,0.27234 0.0853,0.43125 0.12755,0.16189 0.11822,1.20159 -0.0212,2.36462 -0.13687,1.14163 -0.1811,2.14344 -0.0983,2.22625 0.0828,0.0828 1.09872,-0.066 2.2576,-0.33069 2.5778,-0.58876 3.05872,-0.37482 2.83905,1.26295 -0.10842,0.80829 -0.0588,0.99275 0.23638,0.87947 1.06494,-0.40866 9.33277,-1.78115 11.00663,-1.82714 1.65216,-0.0454 2.06232,0.0368 2.79607,0.56013 0.78274,0.55829 0.8599,0.73776 0.8599,1.99994 0,1.11974 -0.18122,1.68755 -0.94158,2.95025 -1.52958,2.54012 -2.4945,3.59693 -10.3813,11.36981 l -7.5169,7.40833 1.129,1.18133 c 3.4453,3.605 4.51907,11.10769 2.23485,15.61538 -1.40355,2.76977 -4.97617,5.76557 -7.46744,6.26176 -0.55078,0.10971 -1.49255,0.17541 -2.09283,0.14601 -1.0277,-0.0503 -1.10373,-0.003 -1.30272,0.80645 -0.11622,0.47295 -0.23117,6.54701 -0.25545,13.49792 l -0.0441,12.63802 -0.60874,0.64797 c -0.41426,0.44096 -1.67453,0.98264 -3.94481,1.69551 -5.98646,1.87975 -11.51122,3.32453 -12.86107,3.36329 -0.72761,0.0209 -1.63373,0.0532 -2.0136,0.0719 -0.37988,0.0186 -1.12476,0.32844 -1.65531,0.68848 -0.81477,0.55292 -3.71076,1.43343 -6.25297,1.90117 -0.3638,0.0669 -0.73593,0.20388 -0.82696,0.30431 -0.091,0.10044 -0.22997,1.33766 -0.30875,2.74938 l -0.14325,2.56678 1.1025,0.15417 c 0.60638,0.0848 2.76938,0.39403 4.80667,0.68718 2.03729,0.29316 4.95432,0.63654 6.48229,0.76309 1.52797,0.12654 5.51656,0.54056 8.86354,0.92005 3.34698,0.37948 7.99042,0.82075 10.31875,0.98059 4.98316,0.34208 5.15938,0.42694 5.15938,2.48445 0,1.22035 0.0859,1.43874 0.7276,1.84921 1.29125,0.82599 2.4474,2.29715 2.4474,3.11423 0,0.88798 -1.36659,1.91942 -3.3073,2.49622 -2.47131,0.7345 -2.28648,0.69718 -17.3302,3.4987 -1.52797,0.28454 -4.68313,0.87592 -7.01146,1.31417 -8.46691,1.5937 -20.64101,3.48527 -24.87083,3.86436 -1.01865,0.0913 -2.14974,0.20801 -2.51354,0.25938 -0.70949,0.10018 -2.83438,0.28689 -6.18981,0.5439 -1.14882,0.088 -2.29916,0.20051 -2.55632,0.25004 -0.40847,0.0787 -5.24924,0.36325 -13.40563,0.78812 -4.69474,0.24455 -25.106158,0.35118 -28.383658,0.14828 z m 26.987498,-1.74566 c 10.27255,-0.20003 22.0819,-1.27476 30.69167,-2.79315 3.58794,-0.63276 5.20948,-0.88855 9.12812,-1.43995 3.84371,-0.54086 14.49303,-2.40305 17.33021,-3.03045 1.23693,-0.27352 3.67771,-0.74048 5.42396,-1.03768 7.66623,-1.30476 12.56771,-2.46834 12.56771,-2.98351 0,-0.30795 -1.14711,-0.17901 -3.96875,0.44613 -0.94589,0.20956 -3.08901,0.62827 -4.7625,0.93047 -1.67349,0.3022 -4.11427,0.77312 -5.42396,1.0465 -3.57324,0.74585 -4.06686,0.80927 -4.23106,0.54359 -0.0828,-0.13397 0.35907,-0.37489 0.98193,-0.53539 0.62285,-0.16049 1.48965,-0.4028 1.92621,-0.53845 0.82801,-0.25729 10.49629,-2.1892 12.56771,-2.51127 2.55685,-0.39756 2.64663,-0.44352 2.20239,-1.12762 -0.4756,-0.7324 -1.82797,-0.54255 -9.47843,1.33062 -4.18993,1.02587 -4.73956,1.12357 -4.54439,0.80778 0.0885,-0.14326 1.02819,-0.52075 2.0881,-0.83886 2.7478,-0.82468 3.39494,-0.99654 7.01404,-1.8627 1.77917,-0.4258 3.35675,-0.84953 3.50573,-0.94161 0.4187,-0.25877 0.32892,-1.4591 -0.10913,-1.4591 -0.20901,0 -1.31034,0.3604 -2.4474,0.8009 -4.51578,1.7494 -19.59654,5.80123 -21.85441,5.87173 -0.40537,0.0127 -0.80055,0.12578 -0.87818,0.25138 -0.0776,0.12561 -0.23728,0.16895 -0.35478,0.0963 -0.11751,-0.0726 -0.79389,0.036 -1.50308,0.24139 -2.29249,0.66394 -2.60872,0.64188 -2.63903,-0.18413 -0.0259,-0.70534 0.0161,-0.7276 1.37176,-0.7276 2.19519,0 8.40628,-1.42872 14.92681,-3.43357 1.81901,-0.55928 4.61698,-1.40357 6.21771,-1.87618 1.60073,-0.47262 3.38666,-1.06419 3.96875,-1.31461 l 1.05833,-0.45531 -0.92604,-0.14944 c -0.50932,-0.0822 -2.71198,-0.28169 -4.89479,-0.44334 -2.18281,-0.16165 -6.29047,-0.57352 -9.12813,-0.91526 -2.83765,-0.34175 -6.40953,-0.75223 -7.9375,-0.91217 -1.52797,-0.15995 -4.14734,-0.46808 -5.82083,-0.68474 -3.77546,-0.48879 -3.96875,-0.48932 -3.96875,-0.0108 0,0.21334 -0.16814,0.77889 -0.37365,1.25677 -0.20551,0.47788 -0.56211,1.40465 -0.79245,2.05949 -0.23034,0.65485 -0.95521,2.00543 -1.61082,3.00131 -1.11175,1.68874 -1.15566,1.82019 -0.65194,1.95192 0.78924,0.20639 0.45752,0.74938 -0.39977,0.65436 -0.46015,-0.051 -1.10117,0.17599 -1.73245,0.61347 -2.47146,1.71272 -5.76569,1.82699 -14.94413,0.51835 -1.6646,-0.23734 -7.21204,-0.89116 -8.73125,-1.02907 -3.93928,-0.3576 -5.13539,-0.43155 -11.1125,-0.68704 -3.4925,-0.14928 -7.60015,-0.38409 -9.12812,-0.52178 -3.76891,-0.33965 -3.52047,-0.3686 -3.37483,0.39328 0.0756,0.39528 0.004,0.66145 -0.17771,0.66145 -0.26932,0 -2.26829,2.17207 -2.26829,2.46472 0,0.0632 0.36507,0.18799 0.81128,0.27723 0.44621,0.0892 0.74375,0.27154 0.6612,0.4051 -0.0896,0.14504 -0.51913,0.12959 -1.06634,-0.0384 -0.80331,-0.24654 -1.039718,-0.19965 -1.917968,0.38041 -1.54771,1.02224 -3.47137,1.37191 -6.53726,1.18828 -1.4666,-0.0878 -3.08044,-0.28262 -3.58632,-0.43287 -0.74956,-0.22261 -1.36824,-0.15099 -3.34302,0.387 -1.33278,0.36309 -2.64529,0.65637 -2.91668,0.65175 -0.89632,-0.0153 0.25666,-0.65861 1.87707,-1.04735 0.80627,-0.19342 1.46595,-0.42921 1.46595,-0.52398 0,-0.21619 -2.19851,-0.78756 -3.4661,-0.90079 -0.52392,-0.0468 -1.0597,-0.15092 -1.19063,-0.23136 -1.04403,-0.64145 -5.53603,-2.14985 -7.0109,-2.35423 -1.00388,-0.13912 -2.27191,-0.42747 -2.81786,-0.64079 l -0.99263,-0.38785 1.32292,0.11818 c 0.7276,0.065 1.53127,0.1989 1.78593,0.29756 0.25467,0.0987 0.46302,0.0642 0.46302,-0.0766 0,-0.14082 -0.74414,-0.65076 -1.65364,-1.1332 -1.06623,-0.56558 -2.49135,-1.72134 -4.01187,-3.25359 -2.34813,-2.36626 -2.36171,-2.375 -3.175,-2.04338 -4.86498,1.98372 -7.88761,2.87542 -12.59073,3.71438 -6.2214,1.1098 -15.18146,1.33117 -20.78011,0.5134 -1.64723,-0.2406 -2.55711,-0.23813 -4.03396,0.011 -1.04884,0.17691 -1.96476,0.41516 -2.03539,0.52944 -0.0706,0.11429 0.35126,0.2845 0.93755,0.37825 0.58629,0.0937 1.00341,0.2717 0.92693,0.39544 -0.0765,0.12373 -0.64762,0.11411 -1.26922,-0.0214 -0.6216,-0.13551 -1.42783,-0.30285 -1.79164,-0.37188 -0.80434,-0.15261 -5.02202,0.97817 -5.03042,1.34869 -0.003,0.14552 0.50212,0.29552 1.12315,0.33333 2.43353,0.14817 12.84049,1.41404 14.02759,1.70628 1.32468,0.3261 1.77614,0.8769 0.52916,0.64559 -0.40018,-0.0742 -1.8587,-0.26117 -3.24114,-0.41543 -1.38245,-0.15427 -5.06168,-0.57478 -8.17608,-0.93448 l -5.66253,-0.65401 -1.28278,0.55183 c -0.70553,0.30353 -1.28278,0.6455 -1.28278,0.75995 0,0.2084 1.04866,0.40071 6.48229,1.18877 1.60073,0.23215 4.45823,0.64891 6.35,0.92611 1.89177,0.27721 5.34458,0.7538 7.67292,1.05909 2.32833,0.30529 5.60255,0.7795 7.27604,1.0538 1.67349,0.27431 5.84068,0.80855 9.26042,1.18722 3.41973,0.37866 7.28927,0.8571 8.59895,1.06319 1.30969,0.2061 4.28625,0.56101 6.61459,0.78871 2.32833,0.2277 5.1263,0.52408 6.2177,0.65864 1.09141,0.13455 2.2225,0.24232 2.51355,0.23949 3.73059,-0.0363 -18.97116,-3.29053 -29.36875,-4.20989 -3.33246,-0.29466 -7.29702,-0.76709 -12.17084,-1.45032 -6.02531,-0.84466 -12.21668,-1.69122 -13.49374,-1.84503 -2.35929,-0.28416 -2.91324,-0.43952 -2.46386,-0.69101 0.2319,-0.12977 1.852,-0.0621 3.81472,0.15927 4.77826,0.539 11.61261,1.37839 15.0533,1.84883 2.36506,0.32337 8.40377,0.99135 16.93333,1.8731 1.94874,0.20145 5.26977,0.64758 7.67292,1.03072 1.30969,0.20882 3.75047,0.5724 5.42396,0.80796 4.75129,0.66881 9.5555,1.53189 14.6192,2.62635 3.32494,0.71865 4.63996,0.85543 3.86309,0.40183 -0.74485,-0.43492 -4.75501,-1.78218 -6.97292,-2.34265 -2.67997,-0.67722 -9.84973,-2.00283 -12.96458,-2.397 -1.30969,-0.16574 -3.09563,-0.41871 -3.96875,-0.56216 -0.87312,-0.14345 -3.35411,-0.4233 -5.51329,-0.6219 -2.15919,-0.19861 -4.05824,-0.49353 -4.22011,-0.65541 -0.21602,-0.21602 0.0258,-0.2943 0.90922,-0.2943 2.04216,0 16.1132,1.64895 20.46585,2.39834 3.05832,0.52655 9.02343,2.15453 12.03854,3.28553 1.67349,0.62774 3.51896,1.29434 4.10104,1.48133 2.38524,0.76623 4.932,0.79997 27.384368,0.36278 z m -21.578658,-9.98861 c 0.24739,-0.24739 0.60162,-0.44979 0.78718,-0.44979 0.56117,0 2.23851,-1.80577 2.90313,-3.12541 0.904048,-1.79505 1.204238,-3.56231 1.230438,-7.24374 0.0254,-3.57238 -0.38132,-5.1685 -1.786538,-7.01084 -1.87953,-2.4642 -5.38996,-2.56278 -8.41075,-0.23618 -2.75668,2.12318 -3.60484,3.01224 -5.17901,5.42875 -0.9754,1.49733 -1.32311,1.86028 -1.45442,1.5181 -0.0949,-0.24732 -0.11942,-0.81175 -0.0545,-1.25428 0.15468,-1.0539 -0.0615,-1.15372 -3.91178,-1.80596 -1.73726,-0.2943 -5.18272,-0.88438 -7.65657,-1.31129 -7.35583,-1.26938 -7.01146,-1.24687 -7.01146,-0.45829 0,0.72593 1.88656,5.01383 2.50467,5.69279 0.20712,0.2275 0.8634,0.96709 1.45842,1.64353 2.96816,3.37436 10.71667,7.20878 17.56163,8.69052 3.13229,0.67805 8.30828,0.63334 9.01953,-0.0779 z m 51.105038,-2.57872 c 1.36859,-0.66253 2.85311,-2.13466 3.41622,-3.38772 0.23867,-0.5311 0.60534,-1.32283 0.81483,-1.75939 0.4523,-0.94258 1.04132,-3.08404 1.74663,-6.35 0.64599,-2.99129 0.56944,-6.891 -0.1651,-8.41144 -1.09721,-2.27112 -2.77518,-3.03629 -5.34725,-2.4384 -2.21522,0.51495 -4.05618,1.83155 -7.69201,5.5011 -1.86009,1.87735 -3.85824,3.78017 -4.44032,4.22848 -0.58209,0.44831 -1.1774,0.94737 -1.32292,1.10902 -0.87093,0.96745 -7.40518,4.56248 -12.06167,6.63612 -4.01846,1.78951 -4.26339,1.80135 -11.48625,0.55513 -5.02267,-0.86661 -5.99787,-1.00574 -6.12916,-0.87446 -0.24439,0.24439 -0.64,2.35931 -0.47265,2.52676 0.0899,0.0899 2.86221,0.24789 6.16074,0.351 3.29853,0.10312 7.36654,0.30515 9.04003,0.44897 2.7727,0.23827 4.74805,0.45942 15.875,1.77727 1.96453,0.23268 4.40531,0.51853 5.42396,0.63524 2.62538,0.30078 5.35177,0.0759 6.63992,-0.54768 z m -95.936788,-4.33412 c 2.9971,-0.41043 10.54208,-2.32623 12.52478,-3.18025 0.78352,-0.33749 0.97263,-0.54009 0.82809,-0.88714 -0.48991,-1.17634 -0.97612,-2.97419 -1.18461,-4.38033 -0.12635,-0.85211 -0.27975,-1.59933 -0.34089,-1.66047 -0.13645,-0.13645 -3.9442,-0.75857 -7.93156,-1.29588 -2.78183,-0.37486 -7.53516,-1.16866 -10.24581,-1.71104 -0.65484,-0.13103 -1.79874,-0.31276 -2.54199,-0.40385 -2.79477,-0.3425 -3.57411,-1.51446 -3.03049,-4.55715 0.25865,-1.44769 0.7008,-4.41096 0.9575,-6.41709 0.0652,-0.50932 0.55714,-3.48588 1.09327,-6.61458 1.29252,-7.54276 1.30055,-7.22107 -0.18567,-7.43733 -3.75974,-0.54709 -6.16284,-3.28544 -6.592,-7.51163 -0.70268,-6.91968 1.79599,-13.0824 6.16101,-15.19547 1.06693,-0.51649 1.24528,-0.70604 1.10728,-1.17676 -0.0905,-0.30861 -0.70256,-2.6447 -1.36019,-5.19131 -1.56889,-6.07535 -2.0018,-7.18946 -3.53882,-9.10721 -4.89679,-6.10977 -13.5411,-11.46981 -21.70479,-13.45841 -4.23477,-1.03155 -4.2548,-1.03378 -10.1848995,-1.13334 -6.67927,-0.11215 -8.80496,-0.26471 -9.28934,-0.66671 -0.29856,-0.24778 -0.34822,-0.15983 -0.27325,0.48399 0.0504,0.43275 0.179,0.92821 0.28581,1.10104 0.10682,0.17283 0.0591,0.47702 -0.106,0.67597 -0.16511,0.19895 -0.20038,0.42342 -0.0784,0.49882 0.33623,0.20781 -0.10283,4.77417 -0.9708,10.09647 -0.42717,2.61938 -0.8394,5.17922 -0.91607,5.68855 -0.0767,0.50932 -0.19707,1.22369 -0.26756,1.5875 -0.0705,0.3638 -0.25892,1.61395 -0.41873,2.77812 -0.15982,1.16417 -0.47535,3.42635 -0.70118,5.02708 -0.22583,1.60073 -0.44719,3.32714 -0.4919,3.83646 -0.0985,1.12127 -0.36368,3.62329 -0.57498,5.42396 -0.20614,1.75657 -0.16918,12.73572 0.0508,15.08125 0.53821,5.73975 2.65833,12.82024 5.34766,17.85937 1.20643,2.26056 2.96393996,5.02229 3.74877996,5.89079 0.23202,0.25675 0.95764004,1.09019 1.61248004,1.85208 0.65485,0.76189 1.93885,2.0401 2.85336,2.84047 0.9145,0.80036 1.867,1.64919 2.11666,1.88629 1.96347,1.86462 10.2502295,6.11808 13.5508095,6.9554 0.36381,0.0923 2.4474,0.62831 4.63021,1.19115 7.87595,2.03082 17.05556,2.46448 26.06146,1.23119 z m 73.740598,-4.87996 c 7.94908,-3.96638 9.68891,-4.79657 10.05215,-4.79657 0.23438,0 1.93224,-2.47225 1.93224,-2.81354 0,-0.18699 -0.96903,0.13847 -2.50908,0.84269 -1.25187,0.57245 -1.90196,0.62035 -1.59101,0.11724 0.19701,-0.31877 1.58868,-0.99791 3.25304,-1.5875 1.14173,-0.40445 1.90281,-1.00397 4.10104,-3.23043 2.87676,-2.9137 4.68648,-4.04494 7.51796,-4.6994 1.52488,-0.35246 3.63751,-0.0568 4.64713,0.65037 0.7614,0.53331 1.24967,0.0738 1.24967,-1.17601 0,-0.54113 0.11547,-1.92553 0.2566,-3.07646 0.36628,-2.98704 0.4774,-9.36863 0.16312,-9.36863 -0.46299,0 -13.70897,5.04431 -16.82388,6.40684 -1.67349,0.73202 -4.56696,2.10729 -6.42993,3.05616 -2.66528,1.3575 -3.35107,1.81583 -3.21764,2.15037 0.17285,0.43338 0.17769,5.80891 0.005,6.09102 -0.052,0.0852 -0.16746,1.30984 -0.25652,2.72133 -0.0891,1.41149 -0.23334,2.75246 -0.32063,2.97993 -0.0873,0.22748 -0.0242,0.57561 0.1401,0.77363 0.23285,0.28057 0.14991,0.45761 -0.37571,0.80201 -0.37098,0.24307 -0.60416,0.55579 -0.51817,0.69492 0.086,0.13912 -0.0293,0.25296 -0.25616,0.25296 -0.24469,0 -0.42166,-0.24217 -0.43504,-0.59532 -0.11461,-3.02467 0.57943,-14.57394 0.89973,-14.9723 1.33156,-1.65603 24.15049,-11.05259 28.18261,-11.60525 l 1.1843,-0.16233 -0.16393,1.6952 c -0.0902,0.93236 -0.23626,4.49317 -0.32467,7.91291 -0.0884,3.41974 -0.27663,6.45832 -0.41829,6.75239 -0.19396,0.40267 -0.092,0.90908 0.41316,2.05126 0.36889,0.83412 0.74681,1.9925 0.83983,2.57418 0.093,0.58167 0.24319,1.0597 0.33373,1.06229 0.17552,0.005 3.58062,-0.92782 15.64275,-4.28533 9.93468,-2.76533 10.32012,-2.88608 10.31058,-3.23007 -0.005,-0.16198 -0.11801,-1.13952 -0.25225,-2.17231 -0.7733,-5.94916 -0.41194,-17.58699 0.79365,-25.56059 l 0.54823,-3.62589 -0.52946,-1.03783 c -0.62045,-1.21618 -1.27327,-1.56794 -1.73586,-0.93532 -0.47158,0.64493 -0.70996,0.10026 -0.80632,-1.84236 -0.0446,-0.89799 -0.12099,-1.80847 -0.16989,-2.0233 -0.0541,-0.23792 0.1438,-0.4261 0.50642,-0.48142 0.32742,-0.05 0.59531,-0.20161 0.59531,-0.33701 0,-0.32141 -0.84484,-0.31426 -1.70947,0.0145 -0.37708,0.14336 -0.95038,0.31162 -1.274,0.37391 -0.6949,0.13373 -6.00279,2.03599 -7.33527,2.62884 -0.50933,0.2266 -2.65245,1.08553 -4.7625,1.90872 -2.11006,0.8232 -3.9378,1.5918 -4.06166,1.70802 -0.16533,0.15512 -0.90064,7.30722 -0.95947,9.33237 -0.003,0.11288 0.32836,0.0324 0.73697,-0.17895 1.14589,-0.59256 8.1192,-3.44288 10.63415,-4.34668 3.44695,-1.23872 5.12699,-1.91737 5.49011,-2.21772 0.1819,-0.15045 0.33073,-0.17563 0.33073,-0.0559 0,0.11968 0.14287,0.0747 0.3175,-0.0999 0.17462,-0.17462 0.76994,-0.3175 1.32291,-0.3175 0.80979,0 1.00542,0.0974 1.00542,0.50044 0,0.57647 -0.1901,0.66116 -6.69704,2.98355 -2.50126,0.89272 -6.60998,2.49809 -9.13049,3.56748 -2.52051,1.0694 -4.75293,1.94436 -4.96094,1.94436 -0.50114,0 -0.49713,-2.04391 0.0145,-7.40833 0.32986,-3.45838 0.4723,-4.16781 0.90891,-4.52709 0.96729,-0.79597 16.21823,-6.80887 19.75859,-7.79011 1.59807,-0.44292 1.62038,-0.46244 2.35363,-2.05989 0.54991,-1.19805 1.31688,-2.16804 2.98272,-3.77226 2.79977,-2.69621 1.91186,-1.8085 10.64553,-10.64307 4.07435,-4.1214 7.4079,-7.61344 7.4079,-7.76008 0,-0.14815 -0.32329,-0.20488 -0.7276,-0.12766 -0.40019,0.0764 -1.97776,0.33241 -3.50573,0.56887 -5.36784,0.83068 -8.64226,1.48625 -13.29693,2.66217 -3.93796,0.99485 -4.7939,1.13551 -5.29096,0.86949 l -0.59299,-0.31736 0.66075,-0.19086 c 6.78647,-1.96026 17.35531,-4.18139 22.092,-4.64283 1.71631,-0.1672 1.92715,-0.25851 2.87607,-1.24547 1.34578,-1.39975 2.88338,-3.82214 2.65778,-4.18717 -0.38126,-0.61689 -7.29862,0.46934 -14.79426,2.32315 -10.30746,2.54923 -28.11775,8.79483 -38.76146,13.59263 -4.05917,1.82973 -9.03305,4.17242 -9.525,4.48626 -0.21828,0.13925 -1.05172,0.55842 -1.85208,0.93149 -0.80037,0.37307 -1.7145,0.82372 -2.03141,1.00145 -0.31692,0.17773 -1.68614,0.90352 -3.04271,1.61288 -1.35658,0.70935 -3.53807,1.91444 -4.84776,2.67798 -1.30968,0.76354 -3.30466,1.85928 -4.43327,2.43498 -1.12861,0.5757 -1.97683,1.12192 -1.88493,1.21382 0.33806,0.33806 0.40141,4.75489 0.1023,7.13224 -0.35111,2.7907 -1.33682,8.74393 -3.03402,18.32416 -1.19902,6.76814 -2.19563,13.22969 -3.54277,22.96969 -0.41893,3.02896 -0.89688,5.64238 -1.06211,5.8076 -0.45971,0.45972 -0.37763,-1.31084 0.35281,-7.61063 1.08576,-9.36412 2.72401,-19.56482 5.29032,-32.94062 1.11443,-5.80846 1.63565,-9.86493 1.28267,-9.98259 -0.16153,-0.0538 -0.18251,-0.56244 -0.0551,-1.33603 0.32472,-1.97184 0.36663,-1.90013 -1.01952,-1.74467 -1.1241,0.12607 -1.55005,-0.004 -4.0349,-1.2316 -16.04074,-7.92499 -36.963458,-14.3978 -56.421568,-17.45499 -2.80173,-0.4402 -5.74889,-0.91425 -6.54926,-1.05343 -0.80036,-0.1392 -2.64583,-0.37391 -4.10104,-0.52158 -1.45521,-0.14768 -4.31271,-0.4483 -6.35,-0.66805 -2.03729,-0.21974 -5.20921,-0.4775 -7.04871,-0.5728 l -3.34455,-0.17326 1.56151,5.5294 c 1.29234,4.57622 3.29522,12.36254 3.82141,14.85595 0.0872,0.4133 0.31616,0.59532 0.74878,0.59532 0.91103,0 2.70337,0.68499 4.19688,1.60395 l 1.30702,0.80423 -0.0918,-5.1067 c -0.0505,-2.80868 0.004,-5.25552 0.12205,-5.43742 0.35863,-0.55473 1.76732,-0.39634 9.83988,1.10637 7.973,1.48418 8.47804,1.59014 14.15521,2.96961 1.0914,0.2652 2.10344,0.4917 2.24896,0.50334 1.95647,0.1565 3.60438,1.00977 3.20334,1.65866 -0.0857,0.13864 -0.21844,1.00934 -0.29502,1.9349 -0.19849,2.39876 -1.21124,10.09648 -1.66602,12.66305 l -0.21097,1.19063 -1.16282,-0.0768 c -0.63956,-0.0422 -1.31288,-0.20131 -1.49627,-0.35351 -0.18339,-0.1522 -0.43039,-0.21681 -0.54888,-0.14357 -0.1185,0.0732 -1.16551,-0.0951 -2.3267,-0.37409 -1.16118,-0.27898 -3.54,-0.81554 -5.28625,-1.19236 -1.74625,-0.37681 -4.24656,-0.91769 -5.55625,-1.20194 -1.30968,-0.28425 -3.15515,-0.63004 -4.10104,-0.76841 -0.94588,-0.13838 -1.98768,-0.31415 -2.3151,-0.39061 -0.56272,-0.13141 -0.59531,-0.0584 -0.59531,1.33386 0,1.25289 0.10456,1.56979 0.70009,2.12171 0.68969,0.63918 0.65369,0.7517 -0.21328,0.66669 -0.29742,-0.0292 -0.49962,0.23865 -0.62626,0.82943 -0.21141,0.98629 -1.44877,3.59524 -2.21645,4.67334 -0.28043,0.39383 -0.84734,0.88863 -1.2598,1.09956 -0.41246,0.21093 -1.28571,0.70144 -1.94055,1.09004 -0.65485,0.38859 -1.69095,0.85396 -2.30245,1.03415 -1.22466,0.36087 -1.20286,0.31419 -1.66124,3.55874 -0.14391,1.01864 -0.32279,2.14974 -0.39751,2.51354 -0.0747,0.3638 -0.20069,1.19724 -0.27994,1.85208 -0.32846,2.71409 -0.72479,5.4232 -1.46783,10.03327 -0.43205,2.68063 -0.6928,4.95996 -0.57944,5.06517 0.11336,0.1052 1.5158,0.38044 3.11653,0.61164 10.36671,1.49731 34.69227,5.68321 38.62917,6.64723 l 1.5875,0.38873 0.79375,-0.96361 c 3.69383,-4.48432 6.11616,-6.17201 8.85866,-6.17201 3.33597,0 5.851998,1.73368 7.586828,5.22772 0.55935,1.12658 1.09774,2.10959 1.19642,2.18447 0.0987,0.0749 0.16443,0.31301 0.14611,0.52917 -0.0183,0.21616 0.0651,1.13669 0.18536,2.04563 0.21563,1.62946 0.23272,1.6564 1.21986,1.92221 2.36736,0.63746 10.70864,2.19296 12.6109,2.3517 0.1753,0.0146 3.38999,-1.50588 7.14375,-3.37891 z m -11.56352,-37.76023 c -3.48724,-1.54187 -16.662088,-6.0112 -25.267708,-8.57161 -2.03729,-0.60615 -4.00182,-1.19511 -4.36562,-1.3088 -0.61555,-0.19236 -0.65761,-0.31369 -0.60605,-1.74824 0.0681,-1.89382 1.33735,-8.32486 1.73879,-8.80991 0.36137,-0.43664 0.82875,-0.35587 4.82038,0.833 9.17267,2.73199 23.975668,7.85088 26.684798,9.22761 l 1.02021,0.51846 -0.17893,1.50168 c -0.22393,1.87929 -1.43379,7.71568 -1.7099,8.24855 -0.28611,0.55219 -1.04627,0.59107 -2.13597,0.10926 z m 1.57129,-3.21811 c 0.17654,-1.12779 0.49053,-2.72255 0.69776,-3.54392 0.61922,-2.45433 0.62504,-2.44269 -1.67374,-3.34963 -5.2248,-2.06135 -16.481658,-5.80407 -24.407808,-8.1152 l -3.83646,-1.11864 -0.18331,0.82073 c -0.44551,1.9947 -1.27163,6.52477 -1.26899,6.95856 0.002,0.37292 0.56406,0.64545 2.57969,1.25144 1.41723,0.42609 4.51681,1.40421 6.88797,2.17361 2.37115,0.7694 4.69287,1.51081 5.15937,1.64758 1.959508,0.57448 11.125068,3.81041 12.795058,4.51736 2.8219,1.19455 2.87207,1.17538 3.25046,-1.24189 z m -69.966078,3.09014 c 4.7108,-1.24784 6.65794,-4.69785 5.58354,-9.89311 -0.50643,-2.44883 -1.09944,-3.49727 -2.73677,-4.83864 -1.15567,-0.94676 -1.29879,-0.99176 -3.12254,-0.98172 -1.62772,0.009 -2.07304,0.11753 -3.0009,0.73156 -1.44003,0.95296 -2.82566,2.8833 -3.36071,4.68187 -0.24966,0.83922 -0.44846,2.51919 -0.46964,3.96875 -0.0514,3.51591 0.57952,5.4219 2.08321,6.29362 0.66365,0.38473 3.62964,0.40697 5.02381,0.0377 z m 31.92221,-8.98073 c 0.24023,-1.52598 0.50389,-3.36983 0.58591,-4.09743 0.082,-0.72761 0.32954,-2.68859 0.55006,-4.35774 0.22051,-1.66915 0.31403,-3.11842 0.20783,-3.2206 -0.1062,-0.10217 -1.14559,-0.37997 -2.30976,-0.61732 -1.16417,-0.23736 -3.96214,-0.83922 -6.21771,-1.33748 -3.96564,-0.876 -9.69419,-1.97394 -15.24792,-2.92242 -2.50647,-0.42806 -3.74341,-0.3948 -3.44221,0.0925 0.0709,0.11465 0.19298,2.44956 0.27139,5.1887 0.14173,4.95116 0.14712,4.98743 0.9225,6.20957 0.42897,0.67613 0.96316,1.6758 1.18709,2.22151 0.22393,0.5457 0.56205,1.00129 0.75138,1.01243 0.18933,0.0111 0.52282,0.0584 0.74111,0.10495 0.38894,0.083 3.331,0.66537 5.95312,1.17838 3.40763,0.66669 6.71066,1.35736 7.67292,1.60441 0.58208,0.14944 1.83224,0.45064 2.77812,0.66932 0.94589,0.21868 2.31511,0.56814 3.04271,0.77658 2.07573,0.59464 2.06353,0.60661 2.55346,-2.50541 z m 114.849108,-0.81893 c 1.68479,-2.01388 1.92451,-2.9166 1.92451,-7.24725 0,-3.85303 -0.0225,-4.01383 -0.77061,-5.51454 -0.83787,-1.68071 -1.4706,-2.0935 -2.60359,-1.69854 -1.18815,0.4142 -3.69136,3.15822 -4.66415,5.11285 -0.80296,1.6134 -0.88764,2.0029 -0.88244,4.05911 0.004,1.74114 0.14029,2.58465 0.57957,3.59737 1.0322,2.37964 1.73053,2.8327 4.10788,2.66512 1.40297,-0.0989 1.67135,-0.21212 2.30883,-0.97412 z m -60.77045,-14.4636 c 2.98059,-2.17748 7.89783,-5.34677 10.7635,-6.93734 2.96118,-1.6436 9.25301,-4.70052 10.12532,-4.91946 0.429,-0.10767 1.17149,-0.42675 1.64999,-0.70907 0.47849,-0.28232 1.05376,-0.44279 1.27837,-0.3566 0.22461,0.0862 0.34349,0.0517 0.26418,-0.0766 -0.0793,-0.12833 0.1824,-0.31482 0.58157,-0.41441 0.39918,-0.0996 1.29133,-0.46458 1.98255,-0.81106 0.69122,-0.34649 1.25677,-0.56078 1.25677,-0.4762 0,0.0846 0.14883,0.0331 0.33073,-0.11442 0.1819,-0.1475 0.86651,-0.45636 1.52135,-0.68636 1.61111,-0.56585 6.77709,-2.40768 12.7,-4.52794 2.69214,-0.96373 5.43058,-1.91762 6.08542,-2.11977 6.58544,-2.0329 8.90784,-2.83814 9.15584,-3.17456 0.16077,-0.21808 0.31413,-1.19002 0.34081,-2.15987 0.0267,-0.96984 0.12202,-1.88229 0.21186,-2.02766 0.43812,-0.70889 -3.54802,0.70184 -12.22205,4.3255 -10.70586,4.47246 -26.18328,12.1508 -35.05729,17.3919 -4.37078,2.58144 -9.32428,5.82645 -12.03854,7.88638 -1.01865,0.77308 -2.29306,1.73971 -2.83202,2.14808 -0.53897,0.40837 -0.98545,0.82916 -0.99219,0.9351 -0.0169,0.2659 1.77165,-0.8947 4.89383,-3.17563 z m 0.78246,1.21951 c 0.7276,-0.38618 1.97776,-1.06059 2.77812,-1.4987 6.1296,-3.35525 18.47925,-9.38098 23.19918,-11.31951 1.28321,-0.52704 3.6428,-1.49527 5.24353,-2.15163 7.97177,-3.26875 21.07185,-7.70025 28.51147,-9.64487 1.6767,-0.43828 2.36027,-0.73988 2.47155,-1.09052 0.22788,-0.71796 -0.0212,-0.81392 -1.27595,-0.49161 -0.62264,0.15995 -2.20363,0.54136 -3.51332,0.8476 -1.30969,0.30623 -3.75047,0.97689 -5.42396,1.49034 -1.67349,0.51346 -3.42892,1.04683 -3.90096,1.18528 -1.19529,0.35056 -11.6534,4.04968 -14.223,5.03078 -14.13386,5.39647 -23.56447,10.10873 -32.87447,16.42664 -3.33925,2.26606 -3.62102,2.61145 -0.99219,1.2162 z m -6.29766,0.15525 c 0.114,-0.34682 -1.5537,-1.28678 -2.01198,-1.13402 -0.55262,0.18421 0.73891,1.59395 1.37414,1.4999 0.29923,-0.0443 0.58626,-0.20895 0.63784,-0.36588 z m -5.23844,-1.89748 c -0.98352,-1.27882 -2.50859,-3.15697 -2.87156,-3.53637 -0.22495,-0.23514 -0.5876,-0.69549 -0.80588,-1.023 -0.21828,-0.32752 -0.85349,-1.17693 -1.41157,-1.88759 l -1.01469,-1.2921 h -3.03582 c -1.6697,0 -2.97772,0.094 -2.9067,0.20891 0.071,0.1149 1.33698,0.9781 2.81328,1.91823 2.93297,1.86777 7.00854,4.54921 8.30539,5.46438 1.0016,0.70682 1.40731,0.77135 0.92755,0.14754 z m -9.21783,-2.8894 c -1.06072,-0.74295 -8.18358,-4.18473 -11.128358,-5.37723 -6.33412,-2.56505 -13.57391,-4.626 -22.8133,-6.49429 -7.06004,-1.4276 -15.9126,-2.73026 -21.50441,-3.16438 -1.16416,-0.0904 -2.47385,-0.20775 -2.91041,-0.26083 -0.43657,-0.0531 -2.37133,-0.18025 -4.29948,-0.28262 -3.422,-0.18169 -3.50573,-0.17313 -3.50573,0.35809 0,1.02559 0.65042,1.31635 3.36717,1.50523 1.42228,0.0989 2.88361,0.22397 3.24741,0.27797 0.3638,0.054 3.3999,0.39909 6.74688,0.76685 5.95964,0.65482 15.30346,2.0997 22.37619,3.46013 8.44897,1.62514 17.16577,4.30761 27.894638,8.58416 2.89375,1.15345 3.49327,1.30205 2.5294,0.62692 z m -10.37305,-2.85962 c -0.33215,-0.33216 -13.785588,-4.24619 -17.291228,-5.03057 -1.73574,-0.38837 -0.29778,0.21244 1.89581,0.7921 3.23747,0.85551 6.41909,1.76052 11.06823,3.14834 3.932918,1.17403 4.572118,1.33505 4.327188,1.09013 z m -3.283198,-4.94276 c -5.20895,-3.32803 -18.71697,-7.93673 -28.16378,-9.60898 -6.50356,-1.15125 -15.38341,-2.25162 -18.19083,-2.25418 l -0.86063,-7.9e-4 0.0681,1.51785 0.0681,1.51786 5.29044,0.5809 c 7.30398,0.80198 20.41861,3.02711 27.78002,4.71335 1.60073,0.36667 3.56526,0.80044 4.36563,0.96392 1.69499,0.34622 8.49638,2.45511 9.65729,2.9944 1.35719,0.63048 1.35102,0.448 -0.0143,-0.42434 z m 25.678928,0.0748 c 13.54459,-1.31348 27.70674,-7.24678 39.83884,-16.69068 6.9046,-5.37469 12.75617,-11.97211 13.25585,-14.94545 0.0698,-0.4151 -0.12691,-0.55838 -1.01334,-0.73831 -1.50085,-0.30465 -7.26901,-2.65186 -7.32313,-2.97997 -0.024,-0.14552 0.25402,-0.3008 0.61782,-0.34507 1.05131,-0.12792 3.95434,-1.11713 5.75469,-1.96091 1.93203,-0.90549 2.10979,-1.45819 0.81903,-2.54654 -2.3647,-1.99386 -2.98091,-2.64724 -4.16189,-4.41295 -1.22526,-1.831923 -2.941,-5.747317 -2.941,-6.711509 0,-0.249505 -0.10349,-0.566754 -0.22997,-0.704998 -0.41059,-0.44876 -1.3477,-4.982136 -1.26975,-6.142572 0.0672,-1.000961 0.25942,-1.30044 1.69795,-2.645833 5.6045,-5.241652 9.34869,-12.988038 11.30563,-23.390309 0.36491,-1.939742 0.78217,-4.122118 0.92723,-4.849722 0.95876,-4.809 1.14345,-9.151456 0.82147,-19.314582 -0.14753,-4.656667 -0.31895,-8.89798 -0.38093,-9.425138 -0.4972,-4.228571 -1.4471,-10.127085 -1.76591,-10.965621 -0.20833,-0.547939 -0.32567,-0.605713 -0.72444,-0.35668 -0.56328,0.351774 -0.69698,0.536356 -4.3208,5.964994 -3.31085,4.959797 -3.95986,5.970918 -6.85607,10.681403 -4.66208,7.582561 -5.7697,9.320535 -9.7652,15.322658 -2.26797,3.406994 -4.21369,6.344676 -4.32383,6.52818 -0.13568,0.226074 0.30486,0.640485 1.36637,1.285317 1.46722,0.891291 2.82554,2.171758 3.40814,3.212812 0.2345,0.419015 0.4318,0.401026 2.73403,-0.249296 3.34392,-0.944573 5.92444,-1.126477 8.43442,-0.594556 3.56959,0.756484 5.26944,2.653697 5.28421,5.897737 0.007,1.563396 -0.54335,4.646721 -1.03031,5.771105 -0.12605,0.291041 -0.43816,1.124479 -0.69359,1.852083 -1.23927,3.530137 -4.08539,8.345752 -5.90306,9.987901 -3.74472,3.383137 -7.46078,2.94091 -10.89923,-1.297056 -1.27191,-1.567654 -4.48511,-7.41341 -4.48511,-8.159734 0,-0.181271 -0.41226,-0.396483 -0.91613,-0.47825 -1.79417,-0.291155 -4.45062,-1.781461 -5.8565,-3.285585 -1.34615,-1.440217 -1.35062,-1.4424 -2.38125,-1.164304 -4.45215,1.201327 -7.51901,1.404273 -10.29488,0.681251 -2.08383,-0.542766 -4.01445,-2.021739 -5.02788,-3.85165 -0.72845,-1.315344 -0.78955,-1.627357 -0.7719,-3.941948 0.016,-2.097143 0.18235,-3.061435 1.00422,-5.820833 1.30196,-4.371345 2.88086,-8.529496 4.12806,-10.871591 0.30704,-0.576572 0.0833,-0.839419 -1.42633,-1.676042 -4.02841,-2.232438 -8.13671,-3.327366 -12.48466,-3.327366 -1.51241,0 -2.74983,-0.102449 -2.74983,-0.227669 0,-0.125216 0.71275,-1.102156 1.58389,-2.170974 1.89143,-2.320634 2.61913,-3.778184 3.00432,-6.017538 0.24037,-1.397391 0.22407,-1.710658 -0.10001,-1.923187 -0.49136,-0.322218 -2.50516,-0.0767 -4.88507,0.595582 -1.01865,0.287748 -3.13996,0.869299 -4.71404,1.292336 -1.57407,0.423037 -2.94508,0.820534 -3.04667,0.883325 -0.48257,0.298243 -7.463628,2.034563 -10.760118,2.676247 -0.43657,0.08498 -1.23139,0.284051 -1.76627,0.442383 -0.53488,0.158332 -1.16786,0.212913 -1.40663,0.12129 -0.37278,-0.143049 -0.31147,-0.344347 0.43397,-1.424918 0.47744,-0.692084 1.27292,-1.694072 1.76773,-2.226638 1.19161,-1.282539 0.96265,-1.560679 -0.95527,-1.16045 -1.77812,0.37106 -3.70739,1.213022 -6.45055,2.815114 -1.06795,0.623718 -1.96638,1.081633 -1.99649,1.017587 -0.0301,-0.06405 -0.20871,0.07136 -0.39687,0.300914 -0.59297,0.723378 -3.13294,2.384152 -3.39684,2.221047 -0.13892,-0.08585 -0.25258,-1.645179 -0.25258,-3.465168 0,-3.460277 -0.26538,-4.616334 -0.93259,-4.062598 -0.46298,0.384244 -2.24241,3.602508 -2.24241,4.055621 0,0.186269 0.70146,1.171995 1.55879,2.190503 1.89939,2.256481 3.31826,4.905142 2.86855,5.354852 -0.2299,0.229902 -0.64841,-0.03471 -1.70457,-1.077746 -0.76992,-0.760354 -1.39985,-1.535358 -1.39985,-1.722231 0,-0.186872 -0.10008,-0.310001 -0.22241,-0.273621 -0.12232,0.03638 -1.58083,-1.200468 -3.24114,-2.74855 -1.66031,-1.548082 -3.42545,-3.155426 -3.92254,-3.571875 -0.49708,-0.416449 -1.39005,-1.179295 -1.98437,-1.695214 -1.57318,-1.365652 -5.90684,-4.574511 -7.3612,-5.450599 -8.11383,-4.887658 -8.81066,-5.275736 -15.28292,-8.511476 -5.76685,-2.883072 -9.32074,-4.3491 -15.21354,-6.2757935 -4.92052,-1.6087954 -10.37663,-2.4330391 -11.48006,-1.7342701 -0.28987,0.1835647 -0.0956,0.5881647 0.91933,1.9141778 0.7078,0.9247778 1.50574,1.9195388 1.77321,2.2105808 0.4434,0.482462 4.1884,5.885576 4.82151,6.95625 0.14703,0.248647 0.62328,0.944038 1.05834,1.54532 1.14892,1.587918 1.23508,1.71627 3.97237,5.91822 1.37456,2.110052 2.76709,4.241837 3.09451,4.737296 0.32743,0.495461 0.71617,1.112782 0.86388,1.371825 0.87719,1.538295 1.88023,3.107025 2.36119,3.692815 0.30427,0.3706 0.79134,1.142688 1.08238,1.715757 0.29105,0.573069 0.66946,1.192551 0.84092,1.37663 0.17146,0.184076 0.99869,1.495581 1.83827,2.914451 1.3701,2.315414 2.74148,4.436758 6.35996,9.838002 0.62712,0.93609 1.26441,1.77874 1.41621,1.872556 0.40463,0.250071 -0.72956,1.594514 -1.1946,1.416061 -0.20739,-0.07958 -0.45522,-0.401587 -0.55073,-0.715566 -0.0955,-0.313978 -0.35886,-0.781703 -0.58522,-1.039389 -1.35785,-1.545764 -11.69722,-17.004323 -18.57176,-27.766955 -2.38307,-3.730876 -8.8845,-13.250961 -10.03421,-14.693162 -0.37703,-0.472938 -0.76897,-0.859891 -0.87099,-0.859895 -0.28024,-1.2e-5 -1.92662,3.05118 -2.85531,5.291658 -0.45239,1.091407 -0.92578,2.2225 -1.05198,2.513542 -1.70674,3.936172 -4.2105,13.263202 -5.14932,19.18229 -0.9165395,5.778608 -1.0480495,7.236695 -1.0620095,11.773958 -0.0246,8.002383 0.64602,12.653205 2.7087395,18.785416 2.26868,6.744501 5.72083,11.627201 11.50449,16.271874 0.81543,0.654844 1.54251,1.33128 1.61574,1.50319 0.26443,0.620821 -0.92742,4.700387 -2.02333,6.925564 -0.86697,1.760334 -1.59889,2.759318 -3.23695,4.418036 -1.16416,1.178851 -2.62268,2.477339 -3.24114,2.88553 -0.61847,0.408196 -1.12448,0.911006 -1.12448,1.117366 0,0.95051 5.012,4.14909 7.98025,5.09287 1.47313,0.4684 1.47566,0.97897 0.006,1.31567 -2.56857,0.58867 -4.86315,0.82292 -6.65968,0.67987 -2.1428,-0.17062 -2.16566,-0.13641 -1.32832,1.98793 2.19853,5.57772 10.08438,13.22534 18.48521,17.92678 4.43534,2.48219 13.36023,6.68261 14.19896,6.68261 0.069,0 0.12541,-0.23812 0.12541,-0.52917 0,-0.29104 0.25534,-0.7845 0.56741,-1.09658 0.53865,-0.53864 0.73656,-0.55948 3.90261,-0.41099 6.82579,0.32014 18.78066,2.18728 25.95706,4.05403 6.89303,1.79303 15.65585,5.13753 22.638088,8.64025 l 2.86431,1.43692 7.95245,-0.0562 c 4.37384,-0.0309 9.38119,-0.19473 11.12744,-0.36407 z M 110.354,134.1018 c -1.21568,-0.74132 -1.9609,-1.82566 -1.9609,-2.8532 0,-2.00667 1.91197,-4.10832 2.86789,-3.15241 0.32651,0.32651 0.34311,0.5279 0.0894,1.08464 -0.49922,1.09565 -0.37621,1.5141 0.74682,2.54065 2.10841,1.92728 0.68996,3.86408 -1.74326,2.38032 z m -6.58529,-11.88963 c -6.583768,-2.72502 -7.271978,-9.00086 -1.19851,-10.92926 0.94702,-0.30069 2.80849,-0.60968 4.1366,-0.68664 2.20015,-0.1275 2.54746,-0.0792 3.90815,0.54377 0.82136,0.37604 1.52067,0.66483 1.554,0.64177 0.18453,-0.12767 1.72968,0.99247 1.6181,1.17301 -0.0734,0.11882 0.0347,0.21604 0.24034,0.21604 0.50522,0 1.84143,1.26441 1.65499,1.56607 -0.0819,0.13245 -0.006,0.28844 0.16867,0.34665 0.46781,0.15593 0.3582,2.59907 -0.16171,3.60445 -0.65504,1.26672 -1.89338,2.33243 -3.80211,3.27209 -1.4388,0.70832 -2.06611,0.85428 -3.98974,0.92834 -2.02861,0.0781 -2.4879,0.003 -4.12878,-0.67629 z m 1.92975,-7.85921 c 0.628,-0.21873 1.75774,-0.48633 2.51053,-0.59467 0.98983,-0.14245 1.39319,-0.32405 1.45712,-0.65602 0.19349,-1.00468 -2.56374,-1.29921 -4.82248,-0.51514 -1.39295,0.48353 -1.9272,1.0429 -1.66032,1.73839 0.20587,0.5365 1.02786,0.54546 2.51515,0.0274 z m 28.6238,7.25696 c -1.30298,-0.77846 -2.91042,-2.37897 -2.91042,-2.89787 0,-0.24026 -0.28841,-0.74804 -0.64092,-1.1284 -0.3525,-0.38037 -0.71718,-0.9633 -0.81038,-1.29541 -0.0932,-0.33211 -0.26882,-0.84196 -0.39026,-1.13301 -0.12144,-0.29104 -0.353,-1.18401 -0.51456,-1.98437 -0.34067,-1.68759 0.12659,-4.75672 1.02414,-6.72696 0.67653,-1.48509 3.13595,-4.19604 3.63349,-4.00511 0.2096,0.0804 0.2996,0.0258 0.2063,-0.12514 -0.091,-0.14729 0.40879,-0.53013 1.11073,-0.85074 2.16086,-0.98697 6.79197,-0.7302 7.53895,0.418 0.0975,0.14988 0.391,0.30387 0.65221,0.34221 0.79236,0.11629 2.44381,2.08572 3.3458,3.99003 0.82654,1.745 0.85141,1.90034 0.83893,5.23792 -0.012,3.19626 -0.0658,3.55619 -0.76137,5.08797 -0.41168,0.90661 -0.85533,1.58237 -0.98588,1.50169 -0.13055,-0.0807 -0.22032,-0.0485 -0.19948,0.0714 0.10542,0.60688 -0.12353,0.92209 -1.2154,1.67331 -0.65485,0.45055 -1.199,0.72416 -1.20923,0.60803 -0.0102,-0.11613 -0.1097,0.0218 -0.22106,0.3065 -0.28379,0.72558 -2.32025,1.265 -5.1843,1.37322 -2.04438,0.0773 -2.51225,0.0117 -3.30729,-0.46327 z m -72.969688,-2.08494 c -0.4789,-0.11347 -1.08358,-0.39894 -1.34375,-0.63438 -0.26016,-0.23544 -0.66226,-0.42807 -0.89356,-0.42807 -0.70716,0 -1.25758,-0.3019 -1.25758,-0.68977 0,-0.20271 -0.13909,-0.3388 -0.3091,-0.30242 -0.17,0.0364 -0.45261,-0.20925 -0.62802,-0.54584 -0.17541,-0.33659 -0.3935,-0.60448 -0.48465,-0.59531 -0.55915,0.0562 -0.74112,-0.10027 -1.37589,-1.18343 -1.28724,-2.1965 -1.74135,-4.18851 -1.59594,-7.00073 0.22571,-4.36496 1.77756,-7.40268 4.81163,-9.418663 4.87367,-3.238304 10.51183,-2.235954 13.67915,2.431883 2.26896,3.34389 2.58569,7.41087 0.85631,10.99571 -0.3663,0.75928 -0.66599,1.59419 -0.66599,1.85535 0,0.55406 -1.64379,2.33466 -2.16075,2.3406 -0.28522,0.003 -0.28295,0.0483 0.0119,0.235 0.47582,0.30138 0.14625,0.81928 -0.52135,0.81928 -0.28731,0 -0.9472,0.42483 -1.46643,0.94406 -0.55305,0.55305 -1.103,0.88305 -1.32784,0.79678 -0.21108,-0.081 -0.31941,-0.0431 -0.24073,0.0842 0.32799,0.53068 -3.22415,0.73719 -5.08734,0.29575 z m -11.68431,-16.54054 c -0.009,-5.659764 1.72605,-10.625421 5.25965,-15.051609 1.96141,-2.456857 4.68252,-4.617302 7.09435,-5.632614 1.48644,-0.625753 5.1888,-0.768279 6.87781,-0.264769 4.64442,1.384538 7.99661,6.602032 8.00561,12.460279 0.001,0.715476 -0.0551,1.243727 -0.12498,1.173888 -0.0698,-0.06984 -0.43395,-1.310074 -0.80913,-2.756077 -1.53755,-5.925902 -4.71667,-9.252101 -9.15478,-9.578332 -4.29155,-0.315455 -8.40455,1.910387 -11.7474,6.357355 -1.95725,2.60372 -3.61815,6.311312 -4.23578,9.455422 -0.10005,0.509323 -0.25323,1.045107 -0.34041,1.190627 -0.0872,0.14552 -0.19992,1.09255 -0.25053,2.1045 -0.13596,2.71827 -0.57022,3.12752 -0.57441,0.54133 z m 78.195858,-0.88696 c -0.25404,-0.41105 0.98487,-5.400337 1.7917,-7.215432 1.57821,-3.550422 4.03758,-6.405557 6.69521,-7.772606 1.37804,-0.708845 1.79782,-0.79375 3.92436,-0.79375 2.1198,0 2.52963,0.08226 3.73277,0.749221 1.68558,0.934413 2.79096,2.022205 4.1228,4.057224 1.25998,1.925206 2.71208,5.909627 2.15347,5.908891 -0.12071,-1.58e-4 -0.62241,-0.896501 -1.1149,-1.991868 -2.70275,-6.011296 -6.95058,-8.582384 -11.70803,-7.086538 -1.14132,0.358857 -1.80947,0.838398 -3.40997,2.447395 -1.61782,1.626412 -2.24946,2.52126 -3.3735,4.779216 -0.76063,1.527969 -1.66351,3.776679 -2.00639,4.997137 -0.34287,1.22045 -0.70626,2.08495 -0.80752,1.92111 z M 141.5983,75.143947 c -0.29104,-0.07158 -1.18401,-0.399645 -1.98437,-0.729022 -0.80037,-0.329377 -2.25486,-0.745969 -3.23222,-0.925761 -2.12607,-0.391107 -2.62116,-0.808548 -1.68583,-1.421405 1.06013,-0.694619 2.63682,-0.823347 3.91678,-0.319776 1.52882,0.60148 3.86274,2.019983 4.02674,2.447367 0.15081,0.393004 -0.0842,1.155909 -0.3418,1.109443 -0.0936,-0.01688 -0.40826,-0.08926 -0.6993,-0.160846 z M 63.550482,70.321826 c -0.24635,-0.776181 8e-4,-1.034076 1.81356,-1.891609 2.57859,-1.219891 6.25197,-0.970748 6.25197,0.424032 0,0.538112 -0.16519,0.631605 -1.38906,0.786138 -1.63664,0.20665 -5.43179,0.88324 -6.06408,1.081087 -0.28699,0.0898 -0.50146,-0.05016 -0.61239,-0.399648 z M 163.0103,82.751138 c 2.5647,-0.975098 6.0793,-6.37428 8.32908,-12.795254 1.41119,-4.027617 1.34848,-6.734977 -0.18051,-7.792421 -2.17471,-1.504029 -5.84009,-1.845138 -9.45223,-0.879647 -3.27866,0.87635 -3.30689,0.896289 -3.31016,2.337308 -0.003,1.344975 -0.48234,3.206483 -1.16598,4.528484 -0.26145,0.5056 -0.3185,0.866547 -0.1531,0.968769 0.47281,0.292214 0.27744,0.656119 -0.31762,0.591592 -0.41652,-0.04517 -0.65233,0.132961 -0.83217,0.628597 -0.21136,0.582528 -0.092,0.949193 0.75697,2.324571 0.69769,1.130343 0.92323,1.717628 0.73279,1.908072 -0.19045,0.190444 -0.57028,-0.196742 -1.23408,-1.257959 -0.52742,-0.843195 -0.95895,-1.689192 -0.95895,-1.879991 0,-0.243356 -0.3153,-0.166846 -1.05629,0.256304 -0.58096,0.331767 -1.05721,0.686742 -1.05834,0.788834 -0.006,0.539353 2.07142,4.814647 3.08742,6.354093 2.34733,3.556698 4.50345,4.796803 6.81317,3.918648 z M 152.49914,70.273333 c 0.46567,-0.144002 1.22736,-0.695399 1.69264,-1.225325 0.99456,-1.132742 2.31463,-3.839085 2.53501,-5.19717 0.62857,-3.873431 -5.7762,-8.219905 -8.605,-5.839621 -0.84828,0.713782 -2.09817,3.621452 -2.85942,6.651976 -0.35264,1.403887 -0.36589,1.815997 -0.0815,2.536254 0.46337,1.17363 1.24481,1.999591 2.50286,2.645441 1.98785,1.020517 2.69684,1.083599 4.81542,0.428445 z m -13.10095,-3.013567 c 3.24186,-0.674666 3.65532,-0.863491 3.65532,-1.669383 0,-1.494755 2.99086,-8.293957 3.72415,-8.466216 1.03842,-0.243938 0.95489,-1.901492 -0.24658,-4.893109 -1.09702,-2.731513 -2.82005,-5.352065 -4.86049,-7.392283 -2.66874,-2.668453 -4.64266,-3.239709 -6.57273,-1.902166 -1.76394,1.222409 -4.95271,8.176116 -6.49531,14.164248 -1.20247,4.667805 -0.65592,7.833018 1.59249,9.222618 2.01983,1.248322 5.83751,1.636715 9.20315,0.936291 z M 152.2925,54.102673 c 0.48378,-0.763984 2.12634,-3.413125 3.65015,-5.886979 1.52381,-2.473854 2.92398,-4.67651 3.1115,-4.894791 0.18751,-0.218282 0.42781,-0.681263 0.53399,-1.028848 0.10618,-0.347586 0.62628,-1.316596 1.15577,-2.153352 0.5295,-0.836758 1.16013,-1.862055 1.4014,-2.278443 0.24128,-0.416385 1.18093,-1.94769 2.08813,-3.402899 0.9072,-1.455208 1.78135,-2.885088 1.94257,-3.177508 0.16122,-0.29242 0.62055,-0.958503 1.02073,-1.480182 0.40018,-0.521679 0.7276,-1.031211 0.7276,-1.132295 0,-0.101084 0.92274,-1.578125 2.05052,-3.282317 1.12779,-1.704192 2.09945,-3.217592 2.15925,-3.363113 0.15982,-0.388932 3.7987,-5.090292 5.06206,-6.540082 1.20512,-1.382945 1.23152,-2.033861 0.10335,-2.54789 -0.90216,-0.41105 -2.02036,-0.383676 -4.64959,0.113822 -3.66397,0.693288 -5.04938,1.095222 -11.95324,3.467874 -4.61555,1.586228 -8.63549,3.235151 -12.82607,5.261073 -1.93449,0.935225 -3.65043,1.700411 -3.8132,1.700411 -0.4588,0 -4.19868,2.221383 -8.27995,4.918061 -4.79247,3.166594 -11.53217,8.954981 -11.14886,9.575188 0.0833,0.13471 0.72081,0.450991 1.41678,0.702848 2.22855,0.80646 4.64566,2.106154 5.61218,3.017707 0.59277,0.559052 1.05127,0.803497 1.2428,0.662594 0.16694,-0.122801 0.73313,-0.564357 1.25821,-0.981237 0.75274,-0.597622 1.30836,-0.786349 2.62659,-0.892164 1.85339,-0.148773 2.53206,0.09545 4.75053,1.709497 2.59847,1.890519 6.31004,7.43142 7.31532,10.920837 0.65178,2.26237 0.73584,2.38125 1.6838,2.38125 0.77119,0 0.98516,-0.1691 1.75768,-1.389062 z"
       id="path464" /></g></svg>
