<?xml version="1.0" encoding="UTF-8" standalone="no"?>
<!-- Created with Inkscape (http://www.inkscape.org/) -->

<svg
   width="224.99577mm"
   height="206.46907mm"
   viewBox="0 0 224.99578 206.46907"
   version="1.1"
   id="svg5"
   xml:space="preserve"
   xmlns="http://www.w3.org/2000/svg"
   xmlns:svg="http://www.w3.org/2000/svg"><defs
     id="defs2" /><g
     id="layer1"
     transform="translate(13.703338,-53.383939)"><path
       style="fill:#000000;stroke-width:0.264583"
       d="m 83.366554,259.60505 c -8.59594,-0.64296 -13.32515,-2.49441 -16.74107,-6.55399 l -0.73353,-0.87176 -2.44134,0.68414 c -8.70244,2.43869 -20.12319,2.60678 -28.82559,0.42424 -3.01521,-0.75621 -6.59065,-2.57513 -8.88278,-4.5189 l -1.9091,-1.61895 -2.04944,0.53666 c -3.47163,0.90909 -6.55587,1.19968 -12.7650601,1.20269 -6.5972,0.003 -9.67691998,-0.30145 -13.11304,-1.2972 -5.03716,-1.45971 -7.9429999,-3.69825 -9.0737299,-6.99002 -0.36675,-1.06768 -0.71448,-21.67328 -0.4318,-25.58712 0.15642,-2.1657 0.26528,-2.54917 1.01203,-3.56494 l 0.83675,-1.13819 0.13229,14.54514 c 0.12219,13.43377 0.16993,14.63123 0.62486,15.67168 1.9212899,4.39407 9.8972899,6.70134 21.86473,6.32497 5.76595,-0.18134 11.64166,-1.09473 11.64166,-1.80971 0,-0.12516 -0.30682,-0.81435 -0.68182,-1.53153 -1.39371,-2.66541 -1.11265,-7.78987 0.61723,-11.25401 1.4097,-2.82297 4.22551,-5.62417 7.16245,-7.1253 l 0.88015,-0.44986 -0.11064,-20.02492 c -0.122,-22.0817 -0.0704,-21.38485 -1.82829,-24.69608 -1.09209,-2.05712 -2.56526,-3.72439 -5.31177,-6.01162 -2.34396,-1.952 -3.12322,-3.02205 -3.78121,-5.19222 -0.23895,-0.78811 -0.44737,-1.04294 -0.8163,-0.99804 -0.27248,0.0332 -1.89441,0.26665 -3.60428,0.51888 l -3.10885,0.4586 v 2.90747 c 0,3.58588 -0.43291,3.48988 -0.68897,-0.15279 l -0.17928,-2.55058 -0.78958,-0.15791 c -0.4342601,-0.0869 -1.1162901,-0.15792 -1.5156301,-0.15792 -0.63345,0 -0.74697,0.12655 -0.89005,0.99219 -0.0902,0.5457 -0.16531,1.62429 -0.16691,2.39687 -0.002,0.86842 -0.10392,1.34225 -0.2675,1.24115 -0.14552,-0.0899 -0.26458,-1.08518 -0.26458,-2.21166 0,-1.24021 -0.12524,-2.17337 -0.3175,-2.36563 -0.17463,-0.17463 -0.83329,-0.3175 -1.46371,-0.3175 -0.63041,0 -1.57364,-0.17859 -2.09606,-0.39688 -0.52242,-0.21828 -1.0425,-0.39687 -1.15574,-0.39687 -0.11323,0 -0.35279,0.62508 -0.53236,1.38906 -0.52207,2.22125 -0.92897998,2.80488 -4.19672,6.01927 -5.26744,5.18145 -5.54091,6.09288 -5.99387,19.97604 -0.0855,2.61938 -0.26237,4.87171 -0.39312,5.00518 -0.37361,0.38138 -0.44757,-0.15537 -0.76249,-5.53434 -0.5499199,-9.39253 -0.3204299,-12.52096 1.1309,-15.41705 0.34499,-0.68844 0.70816,-1.69674 0.80702,-2.24068 0.115,-0.63268 0.39012,-1.09833 0.76368,-1.29253 0.32116,-0.16697 1.67941,-1.17953 3.01833,-2.25015 2.53266,-2.02515 2.95619,-2.68964 2.84533,-4.46418 -0.0273,-0.43656 0.0643,-0.93794 0.20346002,-1.11417 0.17286,-0.21889 0.002,-0.67999 -0.54040002,-1.4552 l -0.79342,-1.13479 0.0942,-5.68854 c 0.0518,-3.1287 0.11457,-5.74808 0.13946,-5.82084 0.0249,-0.0728 0.0295,-0.22667 0.0102,-0.34203 -0.0403,-0.24098 2.59377002,-2.82333 2.84736002,-2.79142 0.0923,0.0116 0.28684998,-0.004 0.43236998,-0.0348 0.14552,-0.0307 0.76804,-0.036 1.38338,-0.0117 1.99212,0.0787 2.18849,-0.0872 2.18849,-1.84808 0,-1.53297 -0.0133,-1.56023 -1.04608,-2.14067 -1.15064,-0.6467 -1.2567,-0.82625 -1.62254,-2.74686 -0.16473,-0.86484 -0.47262,-1.5003 -0.89734,-1.85209 -0.80023998,-0.66281 -1.04742998,-2.16462 -0.33664998,-2.04528 0.39434998,0.0662 0.46302998,-0.13843 0.46302998,-1.37985 0,-1.24879 0.11604,-1.58977 0.81004,-2.38019 0.44553,-0.50743 1.04654,-0.99765 1.33559,-1.08939 0.46123,-0.14639 0.50958,-0.33975 0.39505,-1.57977 -0.094,-1.01756 -0.0267,-1.49908 0.24031,-1.72072 0.44438,-0.3688 1.01436,-0.0877 0.82464,0.40668 -0.074,0.19292 0.0369,0.49311 0.24655,0.66709 0.20963,0.17398 0.38115,0.47332 0.38115,0.66519 0,0.59239 0.33468,0.61882 2.9204,0.23058 1.37695,-0.20675 3.3072301,-0.37675 4.2894901,-0.37778 2.86405,-0.003 2.28031,-1.02887 -1.10984,-1.95045 -1.8938601,-0.51484 -3.3449901,-1.61105 -2.5410301,-1.91956 1.4189301,-0.54449 6.1980001,0.78797 8.0298501,2.23883 0.58024,0.45956 1.19042,0.83556 1.35594,0.83556 0.16553,0 0.36729,0.17283 0.44835,0.38407 0.0811,0.21125 0.56104,0.5206 1.06662,0.68746 0.77529,0.25587 0.99649,0.23345 1.41261,-0.14313 0.44931,-0.40662 0.5601,-0.41017 1.24019,-0.0397 1.46651,0.79877 2.03468,0.98171 3.53655,1.13869 l 1.52219,0.1591 0.72345,-1.09322 c 0.81487,-1.23134 1.04209,-1.32044 1.44545,-0.56675 0.21508,0.40188 0.17919,0.68301 -0.15164,1.18793 -0.40745,0.62183 -0.40396,0.67089 0.0583,0.81887 2.88308,0.92306 3.39843,1.4883 3.1753,3.48271 -0.46907,4.19282 -0.45989,4.15578 -1.18348,4.77397 -1.36327,1.16468 -1.97418,1.48756 -2.70871,1.43159 -0.40756,-0.0311 -0.82207,0.0747 -0.92114,0.23497 -0.11306,0.18294 -0.56752,-0.0869 -1.22066,-0.72472 -1.02666,-1.0026 -1.06952,-1.01664 -3.21072,-1.05144 -1.43138,-0.0233 -2.44037,-0.18034 -2.96391,-0.4614 -0.43656,-0.23436 -1.29977,-0.42684 -1.91823,-0.42774 l -1.12448,-0.002 -0.0496,1.25677 c -0.0273,0.69123 -0.0571,1.56547 -0.0661,1.94276 -0.0207,0.85988 -0.47031,1.41275 -1.49348,1.83656 -0.74106,0.30696 -0.7923,0.41545 -0.71883,1.52197 0.0756,1.13906 0.12564,1.20529 1.13745,1.50643 3.68032,1.09538 5.93262,3.40475 5.94731,6.09799 0.003,0.58609 0.19175,1.33107 0.419,1.65552 0.22725,0.32445 0.37905,0.79743 0.33733,1.05106 -0.0417,0.25363 0.0287,0.62804 0.1564,0.83201 0.15449,0.24669 0.0858,0.47794 -0.20504,0.69063 -0.54385,0.39767 -0.56647,1.7325 -0.058,3.42207 l 0.37931,1.26036 -1.0569,1.03598 c -1.23449,1.21004 -1.20643,1.68951 0.18385,3.14197 0.48751,0.50933 0.89129,1.01534 0.89728,1.12448 0.006,0.10914 0.0109,0.30299 0.0109,0.43076 0,0.12779 1.33946,1.33272 2.97656,2.67764 2.60426,2.13946 3.11468,2.69681 4.08076,4.45598 0.6073,1.10587 1.05581,2.08894 0.99669,2.1846 -0.13722,0.22203 0.93313,4.51708 1.21345,4.86925 0.36337,0.45652 0.40302,2.86193 0.0491,2.97989 -0.19953,0.0665 -0.31367,0.62352 -0.30204,1.47393 l 0.0187,1.36701 0.5104,-1.14985 c 0.28073,-0.63243 0.45308,-1.24263 0.383,-1.35602 -0.0701,-0.11338 0.23638,-0.70834 0.68102,-1.32214 0.44463,-0.6138 0.74115,-1.18327 0.65894,-1.26548 -0.0822,-0.0822 -0.0157,-0.31073 0.14791,-0.50782 0.21526,-0.25938 0.39166,-0.2801 0.63874,-0.075 0.25769,0.21386 0.68677,-0.0415 1.75083,-1.04218 0.77522,-0.72901 1.86823,-1.59917 2.42892,-1.93368 0.5607,-0.33451 1.41538,-0.94048 1.89931,-1.3466 0.57558,-0.48303 1.37557,-0.81907 2.31326,-0.97168 0.78837,-0.12831 2.1431,-0.53201 3.01053,-0.8971 1.42935,-0.6016 1.81186,-0.6498 4.08236,-0.51434 l 2.50524,0.14947 1.03611,-1.67864 c 0.56986,-0.92326 1.80046,-2.42441 2.73466,-3.3359 l 1.69855,-1.65726 -2.07994,-0.95017 c -1.14396,-0.52259 -2.67405,-1.06374 -3.4002,-1.20254 -0.97466,-0.18631 -1.48093,-0.45765 -1.93401,-1.03659 -0.5474,-0.69945 -2.42886,-2.08306 -7.26058,-5.33939 -0.83546,-0.56306 -1.49098,-1.10989 -1.45671,-1.21518 0.0845,-0.25968 -3.87377,-4.87432 -4.51853,-5.26779 -0.28285,-0.17262 -0.69639,-0.82747 -0.91897,-1.45521 -0.77831,-2.19512 -3.25361,-7.25196 -3.83378,-7.83213 -0.68617,-0.68618 -0.73509,-1.00034 -0.1884,-1.21012 0.2533,-0.0972 0.40028,-0.51423 0.40628,-1.15279 0.009,-0.94637 0.10382,-1.05774 1.75478,-2.05882 0.95995,-0.58209 2.60298,-1.89178 3.65118,-2.91042 2.01913,-1.9622 5.16797,-5.81842 5.16797,-6.32894 0,-0.16719 -0.25233,-1.01423 -0.56072,-1.88231 -0.43215,-1.21641 -0.57298,-2.29413 -0.61417,-4.69991 l -0.0534,-3.12157 -2.00048,-2.0378 c -1.10027,-1.12079 -2.61464,-2.81171 -3.36527,-3.75759 -0.9412,-1.18603 -1.54624,-1.7198 -1.94942,-1.7198 -0.48132,0 -0.61046,-0.18701 -0.73079,-1.05833 -0.0804,-0.58208 -0.765,-2.17497 -1.52135,-3.53975 -0.75636,-1.36479 -1.3752,-2.58812 -1.3752,-2.71853 0,-0.13041 -0.31203,-0.35574 -0.69341,-0.50074 -0.59842,-0.22752 -0.67136,-0.37385 -0.53249,-1.06824 0.097,-0.48506 -0.004,-1.19211 -0.25466,-1.78034 -4.09934,-9.624747 -6.41765,-22.126558 -5.68957,-30.681838 0.67876,-7.975812 2.5447,-11.141376 6.37638,-10.817571 5.40712,0.456938 24.17434,9.203485 34.39584,16.030328 1.38244,0.923324 2.76542,1.906434 3.07326,2.184691 0.54097,0.488958 0.59268,0.490206 1.5426,0.03722 0.8935,-0.42608 0.96752,-0.541512 0.814,-1.269458 -1.02482,-4.8593 -1.17066,-7.832552 -0.53205,-10.847336 0.77441,-3.655838 3.3419,-7.992478 6.13462,-10.36171 4.89779,-4.155083 10.38583,-6.352561 17.41027,-6.971281 9.351986,-0.823735 18.297806,1.705237 24.999626,7.067356 2.86274,2.290472 4.81912,4.716682 6.35147,7.876794 1.18138,2.436304 2.11869,5.565664 2.11869,7.073556 0,0.505481 0.15398,0.630827 0.83904,0.683027 1.00906,0.07689 2.90182,0.882996 4.23568,1.803932 l 0.97368,0.672253 3.9093,-2.182979 c 9.65982,-5.394111 23.77874,-11.379697 27.78174,-11.777813 3.78826,-0.376761 5.60829,2.324362 6.43404,9.548857 0.96754,8.464878 -0.864,19.923161 -4.79,29.966792 -0.58364,1.4931 -1.00846,2.86231 -0.94404,3.04271 0.1425,0.39906 -0.5232,1.7832 -0.85764,1.7832 -0.38681,0 -3.45055,5.9527 -3.45055,6.70426 0,0.68595 -0.66001,1.258 -1.21832,1.05596 -0.16076,-0.0582 -0.63202,0.34486 -1.04725,0.89565 -1.25676,1.66704 -3.57868,4.02022 -5.60578,5.68128 l -1.91823,1.57184 -0.005,1.50436 c -0.006,1.92472 -0.61954,4.82338 -1.33329,6.29778 l -0.55688,1.15036 0.60286,0.86456 c 2.46488,3.53487 6.15633,7.11493 9.0472,8.7742 0.70016,0.40187 1.33457,0.92972 1.40982,1.17301 0.0753,0.2433 0.30714,0.7602 0.51532,1.14868 0.33334,0.62204 0.32861,0.75622 -0.0396,1.12448 -0.22999,0.22999 -0.5048,0.41816 -0.6107,0.41816 -0.10589,0 -0.34929,0.44648 -0.54089,0.99218 -0.5293,1.50753 -2.13824,5.40013 -2.55951,6.19239 -0.20539,0.38625 -0.37343,0.92799 -0.37343,1.20385 0,0.27587 -0.14089,0.64247 -0.31309,0.81467 -0.75539,0.75538 0.22186,0.53688 3.1985,-0.71517 1.75762,-0.73929 3.23971,-1.34417 3.29354,-1.34417 0.0538,0 0.89812,-0.36286 1.8762,-0.80634 1.47738,-0.66987 1.72498,-0.87063 1.46305,-1.18624 -0.25529,-0.3076 -0.19652,-0.42502 0.30878,-0.61694 0.34324,-0.13037 0.85165,-0.28118 1.12981,-0.33512 0.29572,-0.0573 0.63171,-0.4724 0.80906,-0.99947 0.29712,-0.88298 1.23908,-1.51738 1.76783,-1.19059 0.1406,0.0869 0.18014,0.50174 0.0879,0.92187 l -0.16778,0.76388 1.08299,-0.3821 c 0.59564,-0.21016 1.23143,-0.32514 1.41286,-0.25551 0.29346,0.11261 4.53922,-1.17064 6.69331,-2.023 0.44815,-0.17733 0.9244,-0.57186 1.05834,-0.87674 0.20894,-0.4756 0.48778,-0.55875 1.96332,-0.58543 0.97736,-0.0177 3.4902,-0.45921 5.82083,-1.02278 3.14246,-0.75988 4.57979,-0.9816 6.14922,-0.94859 1.72375,0.0362 2.13872,-0.0413 2.61976,-0.48943 0.60616,-0.56472 1.15259,-0.48263 0.91466,0.13741 -0.0908,0.23672 0.0384,0.37012 0.35853,0.37012 0.69583,0 2.12867,1.26318 2.12867,1.87661 0,0.27866 -0.54068,1.64075 -1.2015,3.02686 -0.66083,1.38611 -1.12667,2.64129 -1.0352,2.78929 0.0915,0.148 -0.31829,1.01289 -0.91058,1.92198 -1.21661,1.86732 -1.87666,3.62361 -2.8002,7.45088 -0.92312,3.82554 -1.19627,5.55489 -1.19627,7.5736 0,0.98334 -0.11907,1.86146 -0.26459,1.9514 -0.14552,0.0899 -0.26458,0.85629 -0.26458,1.70301 0,1.03337 -0.12818,1.64586 -0.38987,1.86306 -0.21443,0.17796 -0.45958,0.75808 -0.54477,1.28916 -0.0852,0.53108 -0.37648,2.0967 -0.6473,3.47915 -0.27083,1.38244 -0.56528,3.05589 -0.65434,3.71877 -0.0915,0.68061 -0.37513,1.38777 -0.6517,1.62459 -0.26938,0.23064 -0.69986,1.0575 -0.95664,1.83747 -0.25677,0.77997 -0.86071,2.24693 -1.34209,3.2599 -0.48137,1.01298 -0.85074,1.85879 -0.82082,1.87959 0.0299,0.0208 1.59658,-0.0559 3.48146,-0.17044 6.48796,-0.39422 11.31574,0.6927 12.17722,2.74158 0.22014,0.52353 0.29926,1.3538 0.21075,2.2114 -0.13794,1.33649 -0.11255,1.40089 0.95131,2.41292 1.01922,0.96956 1.09283,1.13635 1.0899,2.46981 -0.002,0.78652 -0.17998,2.08487 -0.39611,2.88524 l -0.39297,1.45521 0.93634,0.76214 c 1.16824,0.9509 1.70327,1.96242 1.72413,3.25961 0.014,0.86973 0.16566,1.11239 1.12448,1.79908 0.73633,0.52735 1.37471,1.32656 1.90206,2.38125 l 0.79375,1.5875 -0.012,12.17083 c -0.0135,13.73462 -0.0303,13.87045 -1.99175,16.09877 -1.76922,2.00993 -4.71678,3.30497 -9.16612,4.0272 -3.15105,0.51149 -11.38219,0.49715 -15.13565,-0.0263 l -2.90805,-0.40561 -1.40052,0.78029 c -9.29913,5.18093 -27.14654,4.31792 -35.42323,-1.71289 -1.23728,-0.90154 -3.20975,-3.65539 -3.50554,-4.89421 l -0.16352,-0.6849 -6.02495,0.11487 c -3.31372,0.0632 -10.72738,-0.006 -16.47479,-0.15414 -5.74742,-0.14796 -10.4945,-0.22436 -10.54909,-0.16978 -0.0546,0.0546 0.28507,0.58446 0.75477,1.1775 1.96339,2.47899 2.48123,6.45476 1.19936,9.20821 -2.17832,4.67902 -7.99519,7.27095 -17.913296,7.98198 -4.21398,0.3021 -4.85712,0.30033 -9.21169,-0.0254 z m 15.20915,-2.86622 c 4.760266,-1.03063 7.883566,-2.66653 9.510466,-4.98133 0.62557,-0.89007 0.81051,-1.47049 0.89591,-2.81179 0.29425,-4.62106 -2.66228,-7.64277 -9.343646,-9.54964 -1.30969,-0.37378 -3.30399,-0.75137 -4.43177,-0.83907 l -2.05052,-0.15947 v -1.10101 -1.10102 l 2.05052,0.21451 c 2.80556,0.2935 4.53031,0.66781 7.333066,1.59145 2.80587,0.92465 2.35171,0.8964 19.98516,1.24332 19.11035,0.37598 17.87998,0.47637 15.52075,-1.26649 -2.63327,-1.94532 -4.78789,-4.45091 -4.49153,-5.22319 0.076,-0.19805 -0.0578,-0.43532 -0.29742,-0.52725 -0.23958,-0.0919 -0.68333,-0.65276 -0.98612,-1.24627 -2.745,-5.38064 -3.05634,-14.78591 -0.73687,-22.25979 0.84354,-2.71806 1.77953,-4.70971 2.11571,-4.50194 0.15875,0.0981 0.23029,0.33043 0.15898,0.51626 -0.0713,0.18583 -0.0259,0.44167 0.10088,0.56855 0.131,0.13108 0.0787,0.57337 -0.12107,1.02443 -0.37081,0.83712 -1.44494,4.39264 -1.59861,5.29166 -1.16702,6.82719 -0.67922,13.31606 1.33497,17.75851 0.85478,1.88526 2.61062,4.38892 3.99054,5.69014 1.25178,1.18038 3.73105,2.87739 4.20375,2.87739 0.19204,0 0.62178,-0.38695 0.95498,-0.85989 0.3332,-0.47295 0.86968,-1.14835 1.19219,-1.5009 0.52807,-0.57728 0.58524,-0.91264 0.57509,-3.37344 -0.006,-1.50284 -0.10641,-2.73243 -0.22269,-2.73243 -0.42469,0 -2.73059,-3.13032 -3.23491,-4.39148 -1.32538,-3.31438 -1.74481,-5.87661 -1.62563,-9.93074 0.16772,-5.70576 2.00698,-11.03679 5.29342,-15.34282 3.36796,-4.41283 7.29989,-6.29419 13.32775,-6.37707 2.04024,-0.0281 2.42084,0.0514 4.10104,0.85595 1.23976,0.59365 2.38335,1.42448 3.45897,2.51295 1.76423,1.7853 3.67913,4.7057 3.61796,5.51771 -0.0377,0.49998 0.36316,1.48467 0.71458,1.7555 0.39242,0.30242 1.11313,6.20516 1.15961,9.49736 l 0.05,3.54424 1.23286,0.6883 c 0.67807,0.37857 1.30111,0.62005 1.38453,0.53662 0.0834,-0.0834 0.26565,-0.75261 0.40494,-1.4871 0.13929,-0.73448 0.52709,-1.85649 0.86176,-2.49336 1.56459,-2.97729 -0.13603,-12.22546 -3.18081,-17.29752 -3.56019,-5.93066 -8.52146,-9.84466 -15.12839,-11.93494 -3.68397,-1.16553 -12.76276,-2.46593 -14.69076,-2.10423 -0.80565,0.15114 -0.85393,0.22906 -0.99623,1.60779 -0.56719,5.49557 -8.82805,12.63361 -19.36964,16.73692 -4.37807,1.70416 -7.41998,2.27891 -8.63103,1.63077 -0.40895,-0.21886 -0.79216,-0.15245 -1.72439,0.29883 -0.94462,0.45729 -1.47764,0.54718 -2.51552,0.42426 -3.98738,-0.47224 -6.84576,-3.89671 -7.06439,-8.46347 -0.1659,-3.46516 1.12694,-6.19877 4.78338,-10.11404 1.0227,-1.0951 1.79031,-2.06024 1.70579,-2.14475 -0.0845,-0.0845 -4.41619,-0.23423 -9.625946,-0.33269 -6.86231,-0.1297 -9.85839,-0.0936 -10.87355,0.13105 -0.7707,0.17054 -1.45562,0.36443 -1.52206,0.43087 -0.0664,0.0664 0.70324,0.96636 1.7104,1.99983 1.90222,1.9519 3.66218,4.62383 4.39635,6.67442 0.56536,1.57913 0.57384,4.27682 0.0193,6.12855 -0.75579,2.52358 -2.62734,4.60495 -4.85581,5.40021 -1.30081,0.46421 -3.46787,0.45568 -4.30002,-0.0169 -0.47315,-0.26872 -1.15106,-0.33334 -2.38125,-0.22699 -2.2972,0.1986 -5.24007,-0.55325 -10.45104,-2.67003 -2.86515,-1.16387 -4.5304,-2.08034 -7.64488,-4.20733 -5.48389,-3.74516 -8.65338,-8.38899 -9.06725,-13.28503 l -0.1727,-2.04312 -2.4055,0.1555 c -5.26279,0.34022 -9.83877,2.41109 -13.16334,5.95712 -1.78705,1.90609 -3.5596,4.78182 -4.52622,7.3432 -0.57174,1.51502 -0.59339,1.92261 -0.66629,12.5461 -0.0414,6.03911 0.0181,11.96166 0.13229,13.16122 l 0.20764,2.18102 0.82556,-0.77327 c 1.20314,-1.12695 3.14942,-2.25908 5.25986,-3.05961 2.07104,-0.78558 7.28874,-1.7871 7.62746,-1.46406 0.12051,0.11494 0.18005,0.54273 0.13229,0.95065 -0.0838,0.71558 -0.18458,0.76246 -2.86496,1.33261 -4.31714,0.9183 -6.87849,2.01434 -8.38711,3.58896 -2.31695,2.41831 -2.20937,6.11301 0.25107,8.62258 1.24347,1.26829 0.92416,1.46637 -0.69975,0.43408 -1.36993,-0.87083 -2.42912,-2.23004 -3.00808,-3.86014 -0.24813,-0.69866 -0.52113,-1.27029 -0.60665,-1.27029 -0.0855,0 -0.80659,0.35265 -1.60237,0.78366 -2.10858,1.14206 -4.28242,3.53404 -5.45896,6.00677 -0.95227,2.00138 -0.98652,2.17383 -0.98987,4.98353 -0.003,2.70845 0.0516,3.02051 0.79027,4.4968 1.19428,2.38687 3.77974,4.8466 6.49801,6.18202 4.81009,2.36307 11.10549,3.3625 19.76775,3.13821 5.40299,-0.13989 9.77633,-0.8099 12.94271,-1.98286 l 1.27278,-0.47148 0.30813,-2.16443 c 0.38484,-2.70331 1.27592,-4.40501 3.27656,-6.25724 2.31673,-2.14489 5.79188,-3.72176 10.29887,-4.67319 1.37856,-0.29101 2.62312,-0.64576 2.7657,-0.78833 0.42776,-0.42776 -0.29665,-3.81694 -1.1971,-5.60073 -0.99098,-1.96311 -3.01377,-4.03377 -5.06326,-5.18308 -0.83454,-0.46799 -1.57868,-0.8509 -1.65364,-0.8509 -0.075,0 -0.1363,0.67679 -0.1363,1.50397 0,1.8674 -0.65295,3.29042 -2.17697,4.7445 -1.26559,1.20749 -2.95153,2.29317 -3.19028,2.05442 -0.0862,-0.0862 0.342,-0.5335 0.95159,-0.99395 1.62648,-1.22854 2.16448,-2.49091 2.1657,-5.08158 7.9e-4,-1.92588 -0.0747,-2.24762 -0.76118,-3.23912 -0.4192,-0.60546 -1.281,-1.44449 -1.91511,-1.86451 -1.56854,-1.03896 -5.06997,-2.11296 -8.14945,-2.49971 -1.4027,-0.17616 -2.54684,-0.40785 -2.54254,-0.51486 0.004,-0.10701 0.008,-0.56888 0.008,-1.02636 v -0.83179 l 2.05052,0.17253 c 4.18238,0.35192 8.16296,1.65014 10.64406,3.47144 0.69456,0.50985 2.02171,1.16619 2.94923,1.45851 6.11031,1.92579 11.36755,8.86772 10.54467,13.92369 -0.38866,2.38803 -0.42044,2.43455 -1.79398,2.62644 -4.76219,0.66528 -9.20888,2.18673 -11.39849,3.90003 -1.88813,1.47739 -3.47102,4.36008 -3.47102,6.32125 0,4.19952 4.52066,7.25229 12.43542,8.39756 1.0914,0.15793 2.34156,0.33564 2.77812,0.39492 0.43657,0.0593 3.65125,0.0701 7.14375,0.024 5.29822,-0.0699 6.78752,-0.17846 8.99144,-0.65562 z m 69.690806,-6.89227 c 3.7672,-0.33344 7.72611,-1.32167 10.50742,-2.62288 3.6326,-1.69948 5.45993,-3.84192 5.45993,-6.40146 0,-1.28957 -0.92878,-3.66918 -1.43211,-3.66918 -0.14603,0 -0.99526,0.66039 -1.88718,1.46753 -2.1279,1.92563 -4.21568,2.91963 -7.45739,3.55046 -1.45521,0.28319 -3.36021,0.76358 -4.23334,1.06754 -3.45417,1.2025 -10.54789,1.15925 -12.99196,-0.0792 -0.71254,-0.36106 -2.48616,-1.09819 -3.94137,-1.63807 -3.16997,-1.17604 -4.77263,-2.14511 -5.93056,-3.58599 -0.98432,-1.22486 -1.27879,-1.14594 -2.15857,0.57857 -2.90714,5.69848 6.3641,11.02465 20.12767,11.56302 0.50932,0.0199 2.28118,-0.0837 3.93746,-0.23032 z m 28.13939,-3.1696 c 6.153,-0.50986 9.6184,-1.63836 11.39125,-3.70954 0.5412,-0.63227 1.10193,-1.57409 1.24606,-2.09292 0.36784,-1.32415 0.35222,-24.09432 -0.0172,-25.06934 -0.30989,-0.81789 -1.18316,-1.84687 -1.89151,-2.22877 -0.35876,-0.19342 -0.53798,-0.0822 -0.85482,0.53051 -0.28638,0.5538 -0.76135,0.89332 -1.66274,1.18859 -2.8142,0.92185 -9.8843,1.63564 -9.46393,0.95547 0.0899,-0.14552 0.84989,-0.26458 1.68878,-0.26458 2.11924,0 6.35242,-0.75005 7.30705,-1.29469 0.85459,-0.48755 1.11714,-1.48331 1.16745,-4.4276 0.0258,-1.51357 -0.0884,-1.65667 -1.83775,-2.30194 -1.38432,-0.51062 -1.67405,-0.54625 -1.44637,-0.17786 0.0899,0.14552 0.39462,0.26459 0.67708,0.26459 0.66312,0 0.66433,0.69443 0.002,1.04899 -0.28144,0.15062 -1.38277,0.47218 -2.4474,0.71458 -2.87783,0.65523 -11.70397,0.64728 -14.76797,-0.0133 -3.14116,-0.67722 -3.99919,-1.22146 -2.51354,-1.59434 1.13631,-0.28519 0.72216,-0.61042 -0.53447,-0.41971 -0.70025,0.10627 -1.48006,0.44529 -1.88147,0.81795 -0.64644,0.60015 -0.67755,0.74502 -0.54538,2.5399 0.0771,1.0469 0.29866,2.23045 0.4924,2.63012 0.46734,0.96409 2.21839,1.55452 5.78327,1.95004 1.52409,0.1691 3.18778,0.38534 3.6971,0.48054 1.76862,0.33058 -2.08327,0.37138 -4.36562,0.0463 -3.72011,-0.52996 -5.4832,-1.07308 -6.29689,-1.93976 l -0.74063,-0.78887 -0.71457,0.52202 c -0.99593,0.72757 -1.60892,2.09132 -1.81159,4.03036 l -0.17278,1.65314 2.38947,2.29698 c 3.79045,3.64374 5.09802,6.37639 5.09802,10.65424 0,2.3114 0.0358,2.46158 0.79213,3.32299 1.49579,1.70362 1.97314,2.94389 1.97986,5.14416 0.006,1.81051 -0.0783,2.14362 -0.85376,3.39102 -0.47294,0.76081 -0.8599,1.42257 -0.8599,1.47059 0,0.11139 3.98879,0.66005 5.55625,0.76426 2.52604,0.16794 3.40625,0.15503 6.41227,-0.0941 z m -28.37903,-4.52544 c 0.68617,-0.20602 1.60425,-0.77555 2.18281,-1.35411 0.5492,-0.54919 0.99854,-0.88366 0.99854,-0.74326 0,0.9867 3.36764,0.62498 5.94851,-0.63892 1.65529,-0.81063 3.36379,-2.57056 3.93502,-4.05348 0.90366,-2.34592 0.36986,-5.86054 -1.33087,-8.76262 -0.96463,-1.64601 -4.14161,-4.73078 -6.00422,-5.82996 -2.58433,-1.52507 -5.48406,-2.40325 -8.96018,-2.71357 -3.27816,-0.29265 -4.05902,-0.20114 -3.81048,0.44655 0.10842,0.28252 -0.0297,0.39464 -0.4861,0.39464 -0.35064,0 -0.70503,-0.1092 -0.78752,-0.24268 -0.34434,-0.55716 -3.97153,0.99499 -6.76041,2.89292 -1.7829,1.21333 -4.16574,3.68748 -5.09214,5.28726 -0.3792,0.65485 -0.87688,1.92219 -1.10595,2.81632 -1.25968,4.91686 0.59449,8.31896 5.47173,10.03975 0.85824,0.30281 1.14344,0.31133 1.4658,0.0438 0.48,-0.39837 0.43122,-0.42141 1.3041,0.61594 1.40578,1.67068 4.37322,2.39329 9.20125,2.24064 1.45521,-0.046 3.17876,-0.24366 3.83011,-0.43922 z m -22.07005,-15.78025 c 0.40044,-0.69122 1.18996,-1.81421 1.7545,-2.49553 0.84781,-1.02319 0.99556,-1.36852 0.84905,-1.98438 -0.0976,-0.41008 -0.33105,-0.9242 -0.51886,-1.14248 -1.10714,-1.28679 -1.17419,-6.44114 -0.12391,-9.525 1.6312,-4.7896 4.46641,-8.60183 6.89341,-9.2689 1.74634,-0.47998 3.11796,-0.34352 4.74503,0.47208 3.14699,1.57749 5.11387,5.52632 5.06419,10.16719 -0.0121,1.13048 -0.0371,2.14782 -0.0556,2.26075 -0.14202,0.86713 0.0875,1.06405 1.4181,1.21651 0.76398,0.0875 1.83554,0.23884 2.38125,0.33622 l 0.99218,0.17705 0.0417,-1.68826 c 0.072,-2.91291 0.004,-6.6987 -0.12688,-7.11223 -1.45717,-4.58806 -1.92158,-5.88515 -2.4715,-6.90279 -0.77582,-1.43568 -3.47955,-4.60485 -3.93345,-4.61058 -0.17424,-0.002 -0.95814,-0.28337 -1.742,-0.62484 -3.55891,-1.55033 -3.47238,-1.53065 -4.84599,-1.10193 -0.44689,0.13948 -1.62905,0.4417 -2.62701,0.67158 -2.98482,0.68758 -5.82268,2.78948 -8.21733,6.08627 -1.64156,2.25999 -2.00409,2.92401 -2.88912,5.29167 -2.11014,5.64509 -2.27671,11.98202 -0.4401,16.74317 0.68691,1.78073 2.38499,4.2912 2.90256,4.2912 0.12195,0 0.54935,-0.56554 0.94978,-1.25677 z m 5.07523,-5.82083 c 1.82897,-1.1464 2.45224,-1.75607 2.29658,-2.24649 -0.0857,-0.26998 -0.0101,-0.66645 0.16799,-0.88102 0.28512,-0.34355 0.39632,-0.34261 0.93116,0.008 0.55534,0.36387 0.82698,0.33037 3.1702,-0.39092 1.40955,-0.43388 2.7863,-0.78888 3.05945,-0.78888 0.34654,0 0.49662,-0.19013 0.49662,-0.62915 0,-0.84199 -0.719,-2.54224 -1.376,-3.25387 -0.29233,-0.31665 -0.45373,-0.70159 -0.35865,-0.85543 0.2178,-0.35242 2.73297,1.48671 2.94445,2.15303 0.2878,0.90677 0.64227,0.1667 0.63837,-1.3328 -0.004,-1.69764 -0.5883,-4.44959 -1.19165,-5.61633 -1.53063,-2.95991 -4.35502,-4.33328 -6.80573,-3.30931 -2.38703,0.99737 -5.55267,5.51972 -3.25131,4.64475 0.93135,-0.3541 2.95766,-0.40722 3.36192,-0.0881 0.19253,0.15197 0.78494,0.343 1.31646,0.4245 1.09319,0.16763 3.13464,1.41307 3.13464,1.91238 0,0.18112 -0.17527,0.47478 -0.3895,0.65257 -0.31285,0.25965 -0.48122,0.23153 -0.8556,-0.14285 -0.25636,-0.25636 -1.10298,-0.75767 -1.88137,-1.11403 -1.90214,-0.87083 -4.43197,-0.77097 -5.48908,0.21667 -2.06907,1.9331 -2.86413,6.48168 -1.68419,9.63537 0.3015,0.80582 0.65581,1.46513 0.78736,1.46513 0.13155,0 0.57159,-0.20836 0.97788,-0.46302 z m 28.35494,-13.08934 c 1.19337,-1.06378 1.25581,-1.18384 1.03592,-1.99191 -0.1287,-0.47294 -0.32673,-0.8599 -0.44008,-0.8599 -0.20199,0 -1.72796,1.99209 -2.33549,3.04887 -0.23394,0.40695 -0.23394,0.85112 0,1.85209 l 0.30775,1.31675 0.081,-1.11694 c 0.0692,-0.9547 0.26547,-1.28139 1.35091,-2.24896 z m 20.10373,1.48822 c 0.70709,-0.41769 0.78117,-0.61055 0.94599,-2.46275 0.0984,-1.10526 0.34874,-3.16964 0.55642,-4.58751 0.52551,-3.58788 0.51957,-3.6496 -0.35002,-3.64087 -1.06895,0.0108 -2.69774,-0.29098 -2.84344,-0.52671 -0.0696,-0.11263 0.43752,-0.34142 1.12694,-0.50843 3.79744,-0.91993 3.63524,-1.95114 -0.46631,-2.96452 -1.97348,-0.48759 -9.17316,-0.4867 -11.1125,0.001 -3.28212,0.82601 -3.85658,1.79339 -1.52135,2.56193 0.76398,0.25144 1.47154,0.58443 1.57236,0.74 0.21572,0.33286 -0.27677,1.01727 -0.59187,0.82252 -0.11898,-0.0735 -0.27884,-0.0325 -0.35525,0.0911 -0.0764,0.12363 -0.5202,0.16882 -0.98621,0.10043 l -0.84728,-0.12436 0.17607,2.0867 c 0.0968,1.14768 0.30987,3.40787 0.4734,5.02263 l 0.29732,2.93594 0.89342,0.32306 c 0.49137,0.17769 1.61951,0.36735 2.50698,0.42149 0.88746,0.0541 1.68418,0.16903 1.77049,0.25534 0.0863,0.0863 1.91884,0.10042 4.0723,0.0314 3.05512,-0.098 4.08392,-0.22512 4.68254,-0.57873 z m -16.01001,-3.08325 c -0.0428,-0.47295 -0.0898,-1.72016 -0.10446,-2.7716 -0.0146,-1.05143 -0.13195,-1.97681 -0.26071,-2.05639 -0.34969,-0.21611 -1.3246,0.944 -1.31986,1.57058 0.008,1.0583 0.74045,3.65888 1.0935,3.8826 0.58525,0.37087 0.67329,0.27782 0.59153,-0.62519 z m 19.4678,0.0843 c 0.57998,-1.0837 1.09246,-3.97605 0.80099,-4.52066 -0.58561,-1.09422 -0.97686,-0.59097 -1.16636,1.50021 -0.10091,1.11363 -0.25128,2.36378 -0.33415,2.77812 -0.174,0.86999 0.27952,1.0271 0.69952,0.24233 z m -23.14219,-5.75316 c 1.76088,-2.12424 2.51797,-3.24574 2.52633,-3.74234 0.0199,-1.18228 0.59806,-2.17262 1.70873,-2.92691 0.88055,-0.59801 1.24454,-1.15303 2.19732,-3.35051 2.58249,-5.95623 3.8867,-11.02403 5.45214,-21.18546 0.62463,-4.05455 1.53495,-8.1816 2.44431,-11.08163 0.64776,-2.06577 2.74199,-6.70766 3.85642,-8.54783 0.55581,-0.91776 0.93101,-1.79739 0.83377,-1.95473 -0.25667,-0.4153 -5.22489,-0.0438 -8.2979,0.62052 -4.96933,1.07423 -11.26225,3.04082 -18.92235,5.9134 -5.19898,1.94965 -8.7228,3.53855 -12.70398,5.72825 -1.88958,1.03929 -4.62623,2.50942 -6.08143,3.26696 -4.85675,2.52828 -9.73328,5.82201 -12.81826,8.65779 -2.33792,2.14906 -2.32465,2.10825 -1.22441,3.76584 1.09964,1.65667 1.90227,3.43364 2.15186,4.76407 l 0.17574,0.93677 h 2.60838 c 4.71357,0 11.23488,1.242 15.46606,2.94554 8.15515,3.2834 14.10412,9.57581 16.77498,17.7434 0.42315,1.29399 0.68142,1.73201 0.95855,1.62567 0.20864,-0.0801 1.51082,-1.51053 2.89374,-3.1788 z m -92.587726,0.84386 c 0.47642,-0.36478 0.45615,-0.37546 -0.28016,-0.14763 -0.43656,0.13509 -1.03188,0.29823 -1.32292,0.36255 -0.34545,0.0763 -0.24819,0.1276 0.28016,0.14763 0.44513,0.0169 1.04044,-0.14626 1.32292,-0.36255 z m -7.46008,-0.41022 c -0.15086,-0.15086 -1.15694,-0.48777 -2.23573,-0.74868 -2.39104,-0.5783 -7.05086,-2.43824 -8.81271,-3.51754 -0.71227,-0.43634 -1.56132,-0.89458 -1.88678,-1.01832 -0.48083,-0.18281 -0.59468,-0.4364 -0.60732,-1.35278 -0.009,-0.62029 0.0436,-1.2235 0.11586,-1.34046 0.12967,-0.20981 0.79786,0.10517 2.35035,1.10794 0.43656,0.28198 1.17027,0.68465 1.63046,0.89481 0.46018,0.21016 1.06542,0.61083 1.34496,0.89037 0.27954,0.27955 0.67693,0.51756 0.88309,0.52893 0.20615,0.0113 1.67515,0.44792 3.26444,0.97014 1.58928,0.52221 3.04005,0.94947 3.22392,0.94947 0.18387,0 0.66948,0.13767 1.07913,0.30594 2.31099,0.94924 2.82624,-0.57064 1.2569,-3.70757 -0.51873,-1.03688 -0.86889,-2.00537 -0.77813,-2.15222 0.33419,-0.54073 1.15467,-0.24026 2.04996,0.75071 1.03857,1.14958 1.72342,2.74376 2.00977,4.67833 0.19256,1.30093 0.20461,1.31462 1.0929,1.24176 0.49401,-0.0405 1.03633,-0.18832 1.20516,-0.32843 0.16883,-0.14012 0.36664,-0.19508 0.43958,-0.12214 0.073,0.073 0.46274,-0.17331 0.86622,-0.54724 0.67966,-0.6299 0.72295,-0.79052 0.58887,-2.18544 -0.0796,-0.82807 -0.18269,-1.73088 -0.2291,-2.00626 -0.15303,-0.90803 0.46517,-0.71833 0.96897,0.29732 0.6809,1.37269 0.81304,0.58122 0.25971,-1.55566 -1.05527,-4.07532 -5.77122,-8.82473 -14.09798,-14.19799 -4.3194,-2.78732 -10.38377,-5.21926 -12.50632,-5.0153 -4.927,0.47342 -8.48367,6.29722 -7.00043,11.46273 0.65641,2.28602 2.46843,5.02319 4.55749,6.88439 2.55798,2.27896 5.1218,4.11206 5.63068,4.02585 0.23887,-0.0405 0.90457,0.29081 1.47932,0.73618 0.57476,0.44537 1.46173,1.00038 1.97106,1.23337 1.80393,0.8252 5.18072,2.12372 6.74687,2.59447 1.80365,0.54214 3.57496,0.67945 3.13883,0.24332 z m 38.810456,-0.50962 c 2.30724,-0.773 6.24432,-2.64137 7.79237,-3.69794 0.43657,-0.29795 0.99431,-0.54252 1.23944,-0.54348 0.80991,-0.003 5.34046,-3.24171 7.3823,-5.27704 1.41636,-1.41184 2.27302,-2.54426 2.91041,-3.84727 0.82735,-1.69132 0.90272,-2.04712 0.89673,-4.23333 -0.006,-2.05518 -0.11149,-2.616 -0.76188,-4.03631 -1.85918,-4.06009 -5.81358,-5.97317 -9.71126,-4.69816 -2.33358,0.76336 -10.73521,4.97227 -11.34844,5.68516 -0.0728,0.0846 -1.0848,0.79433 -2.24896,1.57721 -5.24523,3.52734 -7.98936,6.40445 -9.73768,10.20954 -0.73228,1.59373 -0.9727,2.4578 -0.95706,3.43958 0.02,1.25653 0.0326,1.27809 0.30231,0.51742 0.43906,-1.23838 1.28992,-2.32918 1.58593,-2.03317 0.16392,0.16392 0.16527,0.43401 0.004,0.74799 -0.42566,0.82739 -0.60496,2.66647 -0.33037,3.38867 0.14305,0.37627 0.58965,0.8035 0.99245,0.94942 0.40279,0.14591 0.97047,0.37196 1.26151,0.50234 0.54348,0.24345 1.71979,0.54257 1.71979,0.43732 0,-0.61799 0.66355,-3.43495 0.97163,-4.12487 0.53436,-1.19664 2.17501,-2.91041 2.78624,-2.91041 0.66505,0 0.60448,0.80846 -0.16363,2.18429 -0.74357,1.33186 -1.07619,2.81712 -0.8151,3.63973 0.14766,0.46523 0.33851,0.55562 0.97568,0.46211 0.50687,-0.0744 0.84112,0.0114 0.92821,0.23839 0.084,0.21897 0.55543,0.35239 1.23226,0.34876 l 1.09617,-0.006 -0.65973,-0.50687 c -0.51079,-0.39243 -0.57052,-0.53513 -0.26458,-0.63205 1.05513,-0.33427 1.55701,-0.33755 2.14083,-0.014 0.84148,0.46631 1.31498,0.46102 1.13321,-0.0127 -0.16898,-0.44033 1.61928,-1.31116 2.21951,-1.08083 0.20014,0.0768 0.60322,0.0116 0.89573,-0.145 0.49629,-0.2656 0.50147,-0.30685 0.0775,-0.61689 -0.41189,-0.30117 -0.36936,-0.3848 0.45462,-0.89405 0.55351,-0.34208 1.13502,-0.50269 1.48691,-0.41067 0.31785,0.0831 0.78805,0.0593 1.04489,-0.053 0.25684,-0.11227 0.5711,-0.18028 0.69835,-0.15113 0.12726,0.0291 0.17166,-0.25947 0.0987,-0.64135 -0.1104,-0.57752 0.0478,-0.8251 0.94046,-1.47174 0.77073,-0.55831 1.15305,-0.69626 1.35655,-0.48947 0.20211,0.20538 0.14459,0.39044 -0.20057,0.64533 -0.37714,0.27851 -0.42392,0.4695 -0.21202,0.86545 0.75276,1.40654 -0.49385,2.25903 -8.03529,5.49491 -0.43656,0.18732 -1.74625,0.66419 -2.91042,1.05973 -2.49732,0.84848 -2.60905,0.91816 -1.47218,0.91816 0.47573,0 1.91789,-0.35277 3.20481,-0.78392 z m -20.518036,-19.47384 13.758326,-0.0272 2.51354,-1.68937 c 1.38245,-0.92915 2.56315,-1.72285 2.62379,-1.76376 0.41584,-0.28064 -0.43086,-0.26461 -2.23726,0.0423 -1.15847,0.19686 -3.11835,0.43002 -4.35528,0.51811 -2.19776,0.15654 -2.26877,0.14297 -3.11947,-0.5962 l -0.87051,-0.75639 2.06114,-0.3137 c 7.16614,-1.09067 10.68171,-1.87897 18.59759,-4.17017 6.44519,-1.86551 8.62479,-2.64448 12.17084,-4.34976 10.06225,-4.8389 15.43278,-10.31469 19.05191,-19.42535 0.91638,-2.30685 0.96341,-2.7293 0.32881,-2.95343 -0.25466,-0.09 -1.29645,-0.67921 -2.3151,-1.30948 -1.3803,-0.85403 -2.40047,-1.80437 -4.00491,-3.73076 -1.18405,-1.42166 -3.34133,-4.01358 -4.79394,-5.75983 -3.91931,-4.71157 -10.90907,-11.50937 -11.83437,-11.50937 -0.16512,0 -0.91785,0.59531 -1.67273,1.32291 -1.10988,1.06979 -1.54822,1.32292 -2.29085,1.32292 -0.80059,0 -1.05049,-0.17811 -1.94892,-1.38906 -1.07045,-1.44281 -2.42615,-4.11547 -2.42615,-4.78295 0,-0.21117 -0.21415,-0.64841 -0.47589,-0.97164 -0.69013,-0.85227 -5.00983,-3.49335 -8.45473,-5.16924 -2.82339,-1.37353 -5.09031,-3.00188 -5.09397,-3.65904 -8e-4,-0.16497 -0.38788,-0.5277 -0.8599,-0.80606 -3.43159,-2.0237 -9.06827,-5.07677 -13.484286,-7.30369 l -5.21773,-2.631209 -2.42086,1.178256 c -1.33147,0.648033 -2.83006,1.419693 -3.3302,1.714783 -0.50014,0.29508 -0.96549,0.53652 -1.03411,0.53652 -0.59996,0 -10.06682,5.63483 -16.31006,9.708 -10.21044,6.66145 -17.43846,13.3878 -22.83297,21.24825 -0.84888,1.23692 -1.77015,2.54661 -2.04727,2.91041 -0.27712,0.36381 -1.05927,1.44588 -1.73812,2.40461 -2.18309,3.08314 -3.30077,4.20768 -5.52635,5.56028 -1.19648,0.72716 -2.23156,1.41296 -2.3002,1.52401 -0.1613,0.261 0.94025,3.29053 2.07085,5.69528 3.10441,6.60303 8.77802,12.09421 16.55997,16.02752 6.38542,3.22745 20.72797,7.15787 31.94843,8.75512 1.20055,0.1709 2.17847,0.38632 2.17315,0.47872 -0.005,0.0924 -0.53714,0.50218 -1.18184,0.91062 -1.29911,0.82302 -1.20874,0.82584 -7.9081,-0.24663 -1.294,-0.20715 -2.39822,-0.33115 -2.45381,-0.27556 -0.0556,0.0556 1.06266,0.84928 2.48502,1.76373 1.42236,0.91445 2.82423,1.81835 3.11527,2.00867 0.29104,0.19031 0.70776,0.26502 0.92604,0.16601 0.21828,-0.099 6.58813,-0.19226 14.15521,-0.20722 z M 92.986014,164.673 c -0.31185,-0.1333 -0.75833,-0.51552 -0.99219,-0.84939 -0.98321,-1.40374 -0.0439,-2.83361 0.95792,-1.45827 1.04795,1.4386 2.82926,0.58971 3.22852,-1.53856 0.24669,-1.31498 -0.13683,-1.81763 -1.78273,-2.33645 -2.41989,-0.7628 -3.62264,-2.08992 -3.62264,-3.99721 0,-1.33785 1.25442,-2.68106 2.98334,-3.19449 0.74032,-0.21985 2.29288,-0.39973 3.45013,-0.39973 3.445456,0 5.286536,0.76452 6.132086,2.5464 0.37942,0.79957 0.4087,1.14044 0.1672,1.94651 -0.37188,1.24122 -0.82617,1.64196 -3.13527,2.76573 -1.030636,0.50158 -1.954556,1.04248 -2.053136,1.202 -0.33186,0.53696 0.17396,2.40862 0.82759,3.06225 0.983016,0.98302 1.793206,0.95182 2.656356,-0.10229 0.54208,-0.662 0.60496,-0.67781 1.0315,-0.25935 1.01172,0.99258 -0.71324,2.86167 -2.64101,2.86167 -0.712226,0 -1.204076,-0.229 -1.961446,-0.91324 l -1.01084,-0.91324 -0.80056,0.80057 c -0.86475,0.86475 -2.4112,1.21461 -3.43482,0.77709 z m 7.022886,-10.2993 c 0.34929,-0.24738 0.80694,-0.70864 1.01702,-1.02504 0.35663,-0.53711 0.3233,-0.61224 -0.50277,-1.13297 -0.788696,-0.49719 -1.183846,-0.54598 -3.640846,-0.44954 -2.60667,0.10231 -2.7896,0.14709 -3.37344,0.82584 -0.66375,0.77167 -0.78427,1.34749 -0.33954,1.62235 1.46965,0.90829 5.64479,1.00557 6.839576,0.15936 z m -31.282656,-1.62034 c -0.99441,-0.41475 -2.06598,-0.97119 -2.38125,-1.23654 -3.95935,-3.33239 -5.28703,-7.57403 -3.75455,-11.995 0.64668,-1.86559 0.65992,-2.00022 0.22116,-2.24896 -0.98406,-0.55788 -2.19921,-1.95647 -2.19921,-2.53118 0,-0.32985 0.0783,-0.52138 0.17409,-0.42563 0.0958,0.0958 0.32315,0.0504 0.50533,-0.10081 0.23899,-0.19834 0.42998,-0.13874 0.6858,0.21403 0.50038,0.68999 1.5769,1.38838 2.14011,1.38838 0.26244,0 1.07764,-0.44648 1.81156,-0.99219 1.21215,-0.90129 1.31902,-1.0649 1.16666,-1.78593 -0.58984,-2.79132 -0.34521,-3.93738 0.49402,-2.31448 0.75444,1.45891 1.12385,1.60138 4.39951,1.69673 2.68927,0.0783 3.21667,0.17401 4.54027,0.824 4.11027,2.01848 6.61143,7.00945 5.79687,11.56745 -0.44571,2.49408 -1.29289,4.13493 -3.02944,5.86758 -2.87292,2.86648 -6.81451,3.63927 -10.57093,2.07255 z m 0.11116,-4.57485 c 1.87116,-1.43663 0.97751,-4.15878 -1.36528,-4.15878 -1.92217,0 -2.73279,2.1145 -1.41225,3.68387 0.74001,0.87946 1.97548,1.0907 2.77753,0.47491 z m 10.47721,-0.50073 c 0.78485,-0.73733 0.80126,-1.96766 0.0371,-2.7811 -1.14195,-1.21554 -3.12888,-0.317 -3.12888,1.41495 0,1.71004 1.85382,2.52917 3.0918,1.36615 z m -3.88026,-6.70349 c 1.00815,-0.52134 1.31762,-1.14425 1.31762,-2.65216 0,-1.05114 -0.1336,-1.36808 -0.89958,-2.13406 -0.76786,-0.76786 -1.08168,-0.89959 -2.14313,-0.89959 -1.07022,0 -1.3736,0.13007 -2.17673,0.93319 -0.8651,0.86511 -0.92298,1.0237 -0.79336,2.17373 0.26725,2.37099 2.60943,3.65747 4.69518,2.57889 z m 45.296736,12.10742 c 0.10538,-0.40658 -0.10098,-0.46486 -1.69304,-0.47815 -1.77088,-0.0148 -1.83603,-0.04 -2.80113,-1.0831 -0.54344,-0.58739 -1.19822,-1.14307 -1.45507,-1.23486 -0.25684,-0.0918 -0.57951,-0.46284 -0.71703,-0.82456 -0.13753,-0.36172 -0.48637,-0.89399 -0.7752,-1.18283 -0.76288,-0.76287 -1.3489,-3.01809 -1.34249,-5.16639 0.007,-2.26622 0.9711,-5.26002 1.9711,-6.11929 0.36803,-0.31624 0.67312,-0.6802 0.67796,-0.80879 0.0138,-0.36789 0.97095,-1.42442 1.29038,-1.42442 0.15857,0 0.52098,-0.23266 0.80534,-0.51702 1.23003,-1.23004 2.89914,-1.73091 5.83298,-1.75037 1.52796,-0.0101 2.92453,-0.0399 3.10347,-0.0661 0.17895,-0.0262 0.57046,-0.52818 0.87004,-1.1154 0.89493,-1.75421 1.4648,-0.6933 0.66098,1.23052 -0.35647,0.85315 -0.35038,0.99767 0.0661,1.57069 0.2523,0.3471 0.60164,0.63483 0.77631,0.6394 0.17467,0.005 0.42235,0.19553 0.55041,0.42435 0.12805,0.22881 0.72682,0.48228 1.3306,0.56327 0.60378,0.081 1.03961,0.24136 0.96852,0.35639 -0.0711,0.11503 0.0494,0.38777 0.26768,0.60609 0.27967,0.27967 0.30508,0.42757 0.086,0.50059 -0.22351,0.0745 -0.17678,0.43378 0.16622,1.27803 0.26242,0.64591 0.47994,1.79947 0.48337,2.56345 0.003,0.76399 0.10367,1.38906 0.22275,1.38906 0.11908,0 0.16871,0.82997 0.11029,1.84437 -0.10703,1.8584 -0.70313,3.61441 -1.62562,4.78881 -0.86929,1.10666 -2.56134,2.63159 -2.85699,2.5748 -0.52852,-0.10153 -2.22168,0.60378 -2.36861,0.98668 -0.10178,0.26523 -0.38173,0.33225 -0.92985,0.22263 -0.48191,-0.0964 -1.11343,0.007 -1.63822,0.26918 -1.1783,0.58782 -2.19447,0.56937 -2.03732,-0.037 z m 8.55799,-5.70487 c 0.31905,-1.66757 0.15885,-2.34469 -0.74583,-3.15239 -0.85771,-0.76576 -1.13627,-0.91795 -0.85899,-0.4693 0.0958,0.15499 -0.18155,0.26458 -0.66958,0.26458 -1.11837,0 -1.82376,0.87214 -1.83516,2.26899 -0.0112,1.37071 0.76159,2.15702 2.24016,2.27941 1.50718,0.12475 1.63294,0.0446 1.8694,-1.19129 z m -11.23729,0.12312 c 0.34927,-0.44403 0.50743,-0.95798 0.43877,-1.4258 -0.059,-0.40233 -0.009,-0.73151 0.1114,-0.73151 0.12032,0 0.21876,-0.12609 0.21876,-0.2802 0,-0.15411 -0.11885,-0.20674 -0.26412,-0.11696 -0.14526,0.0898 -0.52894,-0.0222 -0.85262,-0.24897 -1.0002,-0.70056 -1.99506,-0.52862 -2.59033,0.44769 -0.66335,1.08799 -0.65845,1.42799 0.0352,2.44028 0.4776,0.69701 0.69549,0.80372 1.45913,0.71457 0.56949,-0.0665 1.09737,-0.35865 1.44383,-0.7991 z m 4.20049,-6.6519 c 0.60326,-0.24988 0.86878,-0.5925 1.08688,-1.40246 0.15873,-0.58949 0.21138,-1.37904 0.11699,-1.75456 -0.0944,-0.37552 -0.18945,-0.89112 -0.21126,-1.14578 -0.0218,-0.25467 -0.14458,-0.46303 -0.27284,-0.46303 -0.12825,0 -0.55206,-0.22706 -0.9418,-0.50458 -0.60182,-0.42853 -0.88712,-0.4658 -1.89293,-0.24729 -0.65137,0.14151 -1.37519,0.27502 -1.60848,0.2967 -0.2333,0.0217 -0.41189,0.22225 -0.39688,0.44573 0.015,0.22347 -0.10865,0.38085 -0.27482,0.34971 -0.4171,-0.0781 -0.70221,2.0652 -0.38551,2.89818 0.38215,1.00514 1.63545,2.05322 2.45525,2.05322 0.39308,0 0.79773,0.13435 0.89921,0.29856 0.12831,0.2076 0.25207,0.17786 0.40622,-0.0976 0.12194,-0.21788 0.58092,-0.54494 1.01997,-0.7268 z m 2.25698,-19.71473 c -2.41973,-1.01456 -3.96837,-1.16038 -5.95312,-0.56052 -1.99067,0.60164 -3.18247,-0.28654 -2.04087,-1.52096 0.78651,-0.85044 2.56101,-1.49045 4.1325,-1.49045 1.44143,0 4.05442,0.74617 3.83819,1.09604 -0.0771,0.12478 0.0964,0.22688 0.38566,0.22688 0.71346,0 1.35743,0.69491 1.35743,1.4648 0,0.86857 -0.72745,1.20029 -1.71979,0.78421 z m -56.223946,-0.14796 c 0,-0.15411 -0.10659,-0.21432 -0.23686,-0.13381 -0.3705,0.22898 -0.58432,-0.62788 -0.29267,-1.17283 0.14428,-0.26959 0.94753,-0.81521 1.78499,-1.21249 2.12153,-1.00641 5.22229,-1.06515 6.86822,-0.13011 1.40605,0.79878 1.55019,1.18642 0.69214,1.86137 -0.70399,0.55376 -2.46582,0.74976 -2.46582,0.27432 0,-0.44981 -2.96245,-0.27554 -4.49792,0.26458 -1.70747,0.60063 -1.85208,0.62007 -1.85208,0.24897 z m 68.725506,50.81159 c 1.11369,-1.01314 1.08464,-1.15524 -0.13229,-0.64719 -1.20175,0.50172 -1.50535,0.77816 -1.27102,1.15733 0.26181,0.42361 0.4535,0.35392 1.40331,-0.51014 z M 14.876394,167.15867 c 2.90483,-0.53707 4.56017,-1.08637 5.11225,-1.69641 0.3959,-0.43745 0.43862,-1.08902 0.36185,-5.51815 -0.0793,-4.57179 -0.13424,-5.07421 -0.61326,-5.60296 -0.28942,-0.31947 -0.73989,-0.69521 -1.00105,-0.83498 -0.39114,-0.20933 -0.52342,-0.1148 -0.75037,0.53622 -0.48914,1.40315 -1.89754,1.96855 -5.94736,2.38754 -2.6011201,0.26911 -5.6798001,0.0248 -7.9295701,-0.62921 -1.23302,-0.35845 -1.46049,-0.53659 -1.86981,-1.46433 -0.25631,-0.58093 -0.53989,-1.05624 -0.63018,-1.05624 -0.0903,0 -0.51386,0.36475 -0.94126998,0.81056 l -0.7771,0.81056 -0.0878,4.75913 c -0.10285,5.5769 -0.0557,5.71597 2.22562998,6.56954 3.44267,1.28807 8.8071301,1.67584 12.8480101,0.92873 z m -0.21033,-12.12549 c 2.23304,-0.68533 2.93454,-1.84773 1.63067,-2.70206 -0.82658,-0.5416 -1.45726,-0.32025 -1.45726,0.51145 0,0.9524 -0.50996,1.21703 -2.98296,1.54792 -1.65848,0.2219 -2.7127701,0.22385 -4.0188801,0.007 -2.00045,-0.33148 -2.52315,-0.64873 -2.52315,-1.53141 0,-0.82918 -0.40803,-1.02363 -1.33889,-0.63806 -1.19053,0.49313 -1.05263,1.66733 0.28055,2.38878 1.95779,1.05946 7.5810401,1.28416 10.4099201,0.41597 z m -2.11042,-1.25612 c 0.95847,-0.4367 1.17023,-1.75871 0.78947,-4.92868 l -0.16684,-1.38906 h -3.09838 -3.0983701 l -0.17199,2.62439 c -0.0946,1.44342 -0.10225,2.80613 -0.017,3.02825 0.0852,0.22211 0.47215,0.52002 0.85982,0.66201 0.98095,0.35928 4.1172101,0.36126 4.9033001,0.003 z m 1.66045,-8.10464 c 1.20836,-0.44717 1.28993,-0.53737 1.37021,-1.51545 0.0469,-0.572 0.01,-1.44408 -0.0831,-1.93796 -0.14722,-0.78473 -0.24139,-0.87237 -0.74683,-0.69498 -1.35022,0.47387 -7.2400001,0.14801 -10.0437501,-0.55568 l -0.72107,-0.18098 v 2.02793 2.02794 l 1.15643,0.51154 c 2.49979,1.10578 6.5545601,1.24781 9.0681001,0.31764 z m 15.33238,-4.23237 c 0.0772,-0.25466 0.49016,-1.20942 0.91774,-2.12168 0.42759,-0.91226 0.77743,-1.75994 0.77743,-1.88374 0,-0.50086 -8.56524,-1.98961 -14.08409,-2.448 -9.1946901,-0.7637 -16.41805008,1.62755 -13.1706401,4.36007 1.53457,1.29125 5.43627,1.57047 13.2152401,0.9457 3.71819,-0.29863 4.58858,-0.28818 7.08596,0.085 1.6943,0.25321 2.90822,0.32659 2.99805,0.18124 0.083,-0.13434 0.41523,0.11319 0.73822,0.55007 0.65677,0.88832 1.3102,1.03055 1.52209,0.3313 z M 149.81327,129.64422 c 0.45113,-1.79727 0.38559,-5.38399 -0.14254,-7.8008 -0.6088,-2.78595 -0.78853,-3.04638 -1.96762,-2.85104 -2.94306,0.48757 -6.99024,0.0252 -9.03513,-1.03229 -1.03594,-0.53571 -1.31554,-0.32609 -1.51125,1.13301 -0.17832,1.32946 0.0601,1.68327 2.5897,3.84252 2.42249,2.06784 6.37601,5.97629 7.75303,7.66464 0.96184,1.17931 1.06082,1.23452 1.50021,0.83688 0.25874,-0.23416 0.62486,-1.04097 0.8136,-1.79292 z M 47.656514,129.32127 c 0.28644,-0.46346 1.02674,-1.37008 1.64511,-2.01471 0.61837,-0.64462 1.82281,-1.97716 2.67654,-2.96118 4.06935,-4.69046 13.5034,-11.92349 23.3186,-17.87826 4.14007,-2.51172 11.73156,-6.750075 13.80008,-7.704623 0.89609,-0.413512 1.70357,-0.87209 1.79441,-1.019063 0.0922,-0.149249 -0.86068,-0.752671 -2.15842,-1.366788 -8.84025,-4.183379 -10.49492,-5.14355 -12.78564,-7.419241 -0.7943,-0.789088 -1.89663,-2.11573 -2.44964,-2.948091 l -1.00545,-1.513385 -2.03725,1.039141 c -6.19805,3.161434 -13.53527,9.480475 -18.40849,15.85395 -4.74316,6.20337 -7.18523,13.48739 -6.66389,19.87655 0.10093,1.23693 0.17051,3.62663 0.15463,5.31046 -0.0159,1.68382 0.0984,3.39617 0.2539,3.80523 0.27582,0.72547 0.2958,0.73193 0.81374,0.2632 0.29204,-0.2643 0.76534,-0.85973 1.05177,-1.32319 z m 85.367466,-6.79893 c 1.03411,-1.09334 2.47025,-4.12969 2.51489,-5.3171 0.0304,-0.80882 -0.85599,-2.33663 -2.82945,-4.87689 -0.0315,-0.0405 -0.92836,0.27631 -1.99307,0.70408 -2.09266,0.84077 -2.13006,0.89476 -2.11956,3.05987 0.008,1.68538 0.64772,3.88612 1.63236,5.61704 1.10836,1.94843 1.58874,2.08817 2.79483,0.813 z m 21.59538,-2.77813 c 3.04697,-3.07913 4.61163,-5.08724 6.61061,-8.48414 2.02453,-3.44033 2.44836,-4.33641 4.12568,-8.72278 2.57854,-6.743142 3.2928,-10.028447 4.29381,-19.749915 0.35156,-3.414125 0.14661,-7.558088 -0.57571,-11.640701 -0.56041,-3.167483 -0.95983,-4.023939 -1.99819,-4.284548 -1.02444,-0.25712 -3.22594,0.32689 -5.64853,1.498425 -1.18599,0.573532 -3.13157,1.39256 -4.32352,1.820063 -2.89163,1.037114 -7.05064,2.913356 -12.3533,5.572908 -6.34362,3.181646 -9.03928,4.746554 -8.81264,5.115975 0.10518,0.171437 0.5112,0.787953 0.90227,1.370037 0.83867,1.248296 1.93705,3.868435 2.1925,5.230111 l 0.18089,0.964245 1.8893,-1.222182 c 1.88122,-1.216951 4.70936,-2.268053 7.04489,-2.618288 1.07127,-0.160647 1.47919,-0.43489 3.21421,-2.160926 2.67962,-2.665746 4.78154,-4.500475 6.45204,-5.631873 0.76416,-0.517548 1.79859,-1.248089 2.29873,-1.623425 1.37139,-1.02916 3.04554,-1.801204 3.90584,-1.801204 0.92326,0 2.00597,0.798944 2.6312,1.941592 0.37094,0.677916 0.45774,1.523839 0.45774,4.461333 0,2.275686 -0.10795,3.732736 -0.29002,3.914809 -0.2103,0.210293 -0.33471,-0.422426 -0.45259,-2.301883 -0.17759,-2.831462 -0.74132,-5.109472 -1.39962,-5.655812 -1.1615,-0.963962 -3.18984,-0.07464 -7.4676,3.274152 -2.55978,2.003899 -6.18475,5.457412 -6.07301,5.785781 0.0398,0.11707 0.6013,0.482735 1.24771,0.812586 2.51123,1.281448 3.7996,4.404061 3.25875,7.898246 -0.60289,3.894968 -3.35605,7.749174 -6.81739,9.543784 l -1.66528,0.86341 1.13219,1.59818 c 1.63842,2.31279 2.24067,3.6391 2.66903,5.87792 0.49043,2.56328 0.4809,4.27697 -0.0306,5.50116 -0.36554,0.87484 -0.36757,1.1165 -0.0186,2.21513 0.21542,0.67823 0.46904,1.6201 0.56361,2.09304 0.0946,0.47295 0.26032,0.8599 0.36833,0.8599 0.10801,0 1.22729,-1.0418 2.48729,-2.31511 z m -111.240006,-3.4094 c 0.32944,-3.01319 1.30277,-6.24758 2.79738,-9.29568 1.25752,-2.56458 4.03174,-6.79822 5.84728,-8.923326 0.63366,-0.741701 1.27531,-1.67263 1.42591,-2.068727 0.1506,-0.396097 0.54384,-0.825899 0.87387,-0.955111 0.33003,-0.129212 1.07631,-0.737097 1.65839,-1.350857 1.65982,-1.750142 5.324,-4.737465 8.41606,-6.861418 1.5558,-1.068694 2.82873,-2.035804 2.82873,-2.149133 0,-0.283708 -0.91878,-0.901502 -4.7625,-3.202329 -6.52108,-3.903485 -12.6552,-7.079911 -19.31458,-10.00166 -2.40109,-1.053462 -5.22999,-2.314037 -6.28645,-2.801283 -2.32907,-1.074193 -5.13281,-1.963897 -6.18886,-1.963897 -0.888,0 -1.98322,0.947767 -2.19034,1.895444 -0.5966,2.729867 -1.20928,7.751317 -1.20895,9.908481 5.2e-4,3.723552 0.93001,11.317758 1.85,15.115611 2.44698,10.101535 6.54843,18.782115 12.01998,25.439875 l 1.60775,1.95629 0.18103,-1.16254 c 0.0996,-0.6394 0.29995,-2.25028 0.4453,-3.57974 z m 104.343976,0.41977 c 1.22663,-0.34066 1.52447,-0.87494 1.52447,-2.73466 0,-2.03721 -0.46497,-4.06077 -1.2446,-5.41647 -0.82226,-1.42985 -2.52513,-3.2129 -3.06842,-3.2129 -0.22341,0 -0.57469,-0.0647 -0.78062,-0.14368 -0.20593,-0.079 -0.37492,0.0103 -0.37553,0.19844 -5.3e-4,0.18816 -0.25321,0.91065 -0.56133,1.60553 -0.47421,1.06947 -0.77525,1.36352 -1.9612,1.91564 -1.6238,0.75595 -2.36666,0.80665 -3.89876,0.2661 -1.09192,-0.38525 -1.11892,-0.38014 -1.7447,0.33073 -0.78715,0.89417 -0.81484,1.7496 -0.0998,3.08372 0.88571,1.65255 2.82978,3.02716 5.47934,3.87433 1.70191,0.54416 5.17785,0.6646 6.73114,0.23322 z M 126.49364,114.402 c 0,-0.3687 -0.4864,-0.60245 -0.822,-0.39504 -0.20413,0.12617 -0.1841,0.24988 0.0661,0.40844 0.47231,0.29927 0.75586,0.29424 0.75586,-0.0134 z m 1.79426,-2.53194 c 2.24193,-0.52857 3.5847,-1.2548 5.27385,-2.85233 l 1.41841,-1.34147 -0.0761,-2.13504 c -0.0557,-1.56401 -0.16667,-2.11664 -0.4148,-2.06624 -0.44984,0.0914 -1.91024,-0.67438 -1.91024,-1.00164 0,-0.14179 0.63224,-0.25779 1.40498,-0.25779 1.20383,0 1.52105,-0.11348 2.21565,-0.79258 0.44587,-0.43592 0.88003,-1.13933 0.96479,-1.563144 0.29966,-1.498322 -0.57973,-3.258746 -1.87538,-3.754241 -0.61395,-0.234794 -0.68191,-0.697291 -0.17119,-1.165114 0.15943,-0.146048 0.4517,-0.68226 0.64947,-1.191583 0.19777,-0.509323 0.6924,-1.455367 1.09918,-2.102321 0.87819,-1.396719 0.92014,-2.292276 0.21317,-4.550537 -0.71994,-2.299713 -1.82296,-4.123364 -3.72155,-6.152972 -1.77854,-1.901259 -3.3083,-2.783088 -4.93881,-2.84698 -1.64881,-0.06461 -2.56332,0.456393 -3.71384,2.115778 -1.26901,1.830284 -1.79016,3.988127 -1.76772,7.319324 0.0272,4.035134 1.75256,8.388672 3.56661,8.99946 0.48583,0.163576 0.92787,0.431054 0.98232,0.594392 0.14741,0.442233 -1.19736,1.025443 -2.84518,1.233919 -0.80036,0.101261 -2.30276,0.590648 -3.33865,1.087527 -4.52805,2.171942 -7.47671,7.863982 -5.26804,10.169332 2.02405,2.11265 8.10696,3.23175 12.25304,2.25425 z m 12.33574,-4.13492 c 0.9379,-0.42734 1.5697,-1.89841 1.41288,-3.28974 -0.14672,-1.30168 0.17115,-1.80545 0.89483,-1.41815 1.30603,0.69897 5.78958,-1.31632 8.04764,-3.6173 2.1653,-2.206461 3.10027,-4.463992 3.08721,-7.45426 -0.0154,-3.541275 -1.14873,-5.019317 -4.0502,-5.282413 -4.60076,-0.417185 -10.60054,2.749573 -12.52459,6.610624 -0.82007,1.64568 -0.85042,2.371249 -0.13942,3.33293 0.62939,0.851297 1.09817,4.242189 0.69066,4.995819 -0.13996,0.25883 -0.65262,0.91744 -1.13925,1.46356 -0.99032,1.11141 -1.13511,2.12109 -0.48456,3.3791 0.71572,1.38406 2.67032,1.97898 4.2048,1.27983 z m -25.43341,-6.97218 c -2.32287,-1.677921 -4.39544,-4.346913 -5.58356,-7.190316 -1.10528,-2.645143 -1.31877,-6.774958 -0.42393,-8.200665 0.92562,-1.474766 5.7236,-1.533035 9.56633,-0.116178 2.41377,0.889989 2.24732,0.96843 2.58723,-1.219192 0.0951,-0.612326 0.0999,-1.343748 0.0105,-1.625381 -0.24844,-0.782767 -3.94842,-3.74369 -6.2036,-4.964467 -1.41872,-0.767979 -2.00935,-1.235524 -2.00541,-1.5875 0.005,-0.411641 0.17629,-0.485576 0.9814,-0.422661 1.513,0.118227 3.04805,0.921544 5.63291,2.947794 1.30676,1.024369 2.44512,1.864344 2.52967,1.866615 0.0846,0.0024 0.3203,-0.307126 0.5239,-0.687549 0.2036,-0.380421 0.93809,-1.202283 1.63221,-1.826355 1.42863,-1.28446 1.53143,-1.829427 0.89989,-4.770361 -1.87392,-8.726326 -11.27394,-15.69018 -23.3892,-17.327519 -3.024726,-0.408784 -9.525796,-0.190786 -11.967396,0.401299 -5.48375,1.329795 -9.90817,3.841392 -13.2853,7.54163 -2.864,3.138003 -4.18348,6.640213 -4.19611,11.137396 -0.0184,6.545633 2.52968,11.426478 7.77555,14.894179 2.60189,1.719934 4.23632,2.551146 9.14428,4.650462 4.42124,1.891127 12.400926,5.854419 17.450966,8.667419 1.9887,1.10776 4.26183,2.34446 5.0514,2.74823 l 1.43558,0.73414 1.28393,-2.56001 1.28392,-2.55999 -0.73514,-0.53102 z m 3.66677,-1.877602 c 0.59626,-0.376399 1.84146,-1.034907 2.76712,-1.463352 l 1.68301,-0.778992 -0.81576,-2.174668 c -0.44867,-1.196065 -0.98974,-3.008104 -1.20237,-4.026749 -0.48263,-2.312059 -0.98872,-2.803041 -3.80702,-3.69334 -2.55386,-0.806762 -5.76943,-0.934649 -6.44765,-0.256432 -0.41798,0.417978 -0.41873,0.737693 -0.0107,4.577548 0.26124,2.458387 3.59879,7.172952 5.73488,8.100978 0.47937,0.208262 0.90371,0.383318 0.94298,0.389014 0.0393,0.0057 0.55925,-0.297608 1.1555,-0.674007 z"
       id="path274" /></g></svg>
