<?xml version="1.0" encoding="UTF-8" standalone="no"?>
<!-- Created with Inkscape (http://www.inkscape.org/) -->

<svg
   width="207.07539mm"
   height="230.61546mm"
   viewBox="0 0 207.07536 230.61537"
   version="1.1"
   id="svg5"
   xml:space="preserve"
   xmlns="http://www.w3.org/2000/svg"
   xmlns:svg="http://www.w3.org/2000/svg"><defs
     id="defs2" /><g
     id="layer1"
     transform="translate(14.911412,6.5316458)"><path
       style="fill:#000000;stroke-width:0.264583"
       d="m 127.90649,223.67068 c -0.94589,-0.26975 -2.03497,-0.61664 -2.42019,-0.77087 -0.38522,-0.15423 -0.75566,-0.22515 -0.8232,-0.15761 -0.0675,0.0675 -0.46674,-0.0137 -0.8871,-0.18041 -0.42037,-0.16677 -1.06196,-0.34439 -1.42576,-0.39472 -0.3638,-0.0503 -1.61396,-0.34422 -2.77813,-0.6531 -1.16416,-0.30888 -3.42635,-0.84733 -5.02708,-1.19656 -1.60073,-0.34923 -3.14854,-0.69788 -3.43958,-0.77476 -0.29104,-0.0769 -0.92403,-0.19315 -1.40663,-0.25835 -0.4826,-0.0652 -1.55416,-0.24068 -2.38125,-0.38995 -1.82259,-0.32893 -9.236614,-1.49872 -10.911814,-1.72167 -9.83938,-1.30953 -23.74852,-1.51899 -34.24823,-0.51575 -2.88255,0.27542 -10.21097,1.57769 -15.42675,2.74136 -1.35419,0.30212 -2.66388,0.5892 -2.91042,0.63794 -0.24653,0.0487 -0.62684,0.15633 -0.84512,0.23908 -0.61494,0.23311 -4.74892,1.23103 -6.155,1.48578 -2.19028,0.39683 -5.93213,-0.68609 -7.57112,-2.19115 -0.96837,-0.88923 -2.0534,-3.05174 -3.604,-7.18295 -2.51517,-6.70106 -5.01198,-14.53326 -4.76198,-14.93778 0.0896,-0.14498 0.0595,-0.2636 -0.067,-0.2636 -0.12645,0 -0.62226,-1.45851 -1.1018,-3.24114 -0.47955,-1.78263 -0.97481,-3.53881 -1.10059,-3.90261 -0.24449,-0.70721 -1.85918,-7.22436 -2.99321,-12.08106 -1.15579,-4.9499 -2.63178,-12.80944 -2.94843,-15.70019 -0.0877,-0.80036 -0.30428,-2.16533 -0.48136,-3.03327 l -0.32195,-1.57806 -2.1077302,-0.43569 c -3.37784,-0.69823 -6.36863,-1.99166 -10.00284001,-4.32595 -1.93709999,-1.24421 -5.51702999,-4.61845 -5.28990999,-4.98595 0.0943,-0.15253 0.0429,-0.1964 -0.11548,-0.0985 -0.1639,0.1013 -1.02728,-0.81057 -2.02805,-2.14193 -5.3751598,-7.15081 -7.9629598,-17.29336 -7.0591898,-27.66766 0.16237,-1.86392 0.40749,-3.88798 0.54469,-4.49792 0.13721,-0.60994 0.45261,-2.00195 0.70089,-3.09336 1.47358,-6.47769 5.5379198,-13.850117 10.2942498,-18.673057 2.77962999,-2.81854 4.37123,-4.04366 7.76666,-5.97824 l 2.475,-1.41015 0.0705,-10.054171 c 0.0728,-10.383247 0.25257,-13.005249 1.3241,-19.314582 2.2810002,-13.430768 7.0063202,-24.033244 15.0937302,-33.866665 2.26481,-2.753768 7.9248,-8.422388 9.27137,-9.285504 0.42665,-0.273471 0.93542,-0.649957 1.13062,-0.836639 1.62983,-1.5587954 9.06331,-6.2859074 12.9766,-8.2521054 4.72411,-2.37358997 12.53184,-5.488502 14.31746,-5.711983 0.21828,-0.02732 0.57547,-0.120571 0.79375,-0.207227 1.26555,-0.502408 8.64925,-2.078635 12.03854,-2.569913 5.041,-0.730692 17.04447,-1.018021 22.39952,-0.53618 17.647774,1.587927 34.190924,7.487404 47.624274,16.9833584 7.36581,5.206846 14.29188,12.42669 18.72432,19.51852 1.73601,2.777599 3.98835,7.129391 3.98835,7.705992 0,0.262784 0.11271,0.517478 0.25046,0.565986 0.54414,0.191598 4.39192,10.724232 4.5948,12.577453 0.046,0.420113 0.15243,0.877517 0.23652,1.016457 0.29738,0.491287 1.03521,4.617686 0.8727,4.880626 -0.0907,0.14673 -0.0557,0.266782 0.0777,0.266782 0.25214,0 0.65409,2.668254 1.11027,7.37022 0.32449,3.344502 0.33276,16.895635 0.0132,21.570525 -0.12816,1.87465 -0.18122,3.54152 -0.11792,3.70416 0.0633,0.16265 0.61907,0.57948 1.23503,0.92629 3.66229,2.06202 7.53343,5.41449 9.35397,8.10068 1.4069,2.075857 3.18548,5.322767 3.98565,7.276037 1.66539,4.06536 3.19805,9.77393 2.91487,10.8568 -0.0748,0.28615 -0.0355,0.52028 0.0873,0.52028 0.12286,0 0.21679,0.20836 0.20875,0.46302 -0.008,0.25466 0.14008,1.85933 0.32917,3.56592 0.27676,2.49786 0.28034,3.73606 0.0184,6.35 -0.78913,7.87355 -2.21264,12.80687 -5.28661,18.32138 -2.04389,3.66662 -6.23788,8.63041 -6.93036,8.20243 -0.13963,-0.0863 -0.25387,0.025 -0.25387,0.24725 0,0.53364 -2.45562,2.32781 -5.12971,3.74796 -2.01876,1.07212 -5.93148,2.53049 -7.70258,2.87094 -0.43656,0.0839 -1.50813,0.31061 -2.38125,0.50375 l -1.5875,0.35117 -0.29799,3.41882 c -0.46593,5.34561 -1.85318,14.6117 -3.18561,21.27819 -0.21814,1.09141 -0.4439,2.34156 -0.5017,2.77813 -0.25622,1.93532 -3.62799,17.20292 -4.00258,18.12395 -0.0888,0.21829 -0.20485,0.62189 -0.25794,0.8969 -0.15663,0.81133 -1.13198,2.88142 -1.60269,3.40155 -0.23958,0.26473 -1.69355,1.25922 -3.23104,2.20997 -1.5375,0.95076 -3.82081,2.46492 -5.07402,3.3648 -8.65329,6.21362 -8.75984,6.26873 -12.4058,6.41685 -1.89647,0.077 -2.93576,-0.0183 -4.23334,-0.38833 z m 5.47885,-3.53946 c 0.11533,-0.0651 0.56688,-0.20355 1.00344,-0.30777 0.43656,-0.10422 0.98721,-0.36377 1.22366,-0.57678 0.23644,-0.21302 0.5341,-0.35427 0.66145,-0.31389 0.29795,0.0945 1.7802,-1.36286 2.07827,-2.0433 0.12565,-0.28687 0.25119,-0.7597 0.27897,-1.05074 0.0504,-0.5278 0.60256,-2.81909 0.86081,-3.57188 0.19916,-0.58059 0.59814,-2.48893 1.35524,-6.48229 0.22461,-1.18471 0.90567,-4.5837 1.23229,-6.15001 0.0681,-0.32657 0.27056,-0.5647 0.4499,-0.52917 0.18143,0.0359 0.2713,-0.11145 0.20259,-0.33228 -0.20746,-0.66674 -0.0311,-2.86429 0.36808,-4.58549 0.20818,-0.89772 0.45984,-2.28706 0.55925,-3.08742 0.30747,-2.47557 0.33713,-2.65838 0.63699,-3.92637 0.16037,-0.67815 0.40315,-2.00692 0.53951,-2.9528 0.13635,-0.94589 0.37154,-2.4937 0.52264,-3.43958 0.1511,-0.94589 0.34103,-2.13651 0.42207,-2.64584 0.0811,-0.50932 0.20112,-1.32584 0.26683,-1.81449 0.0657,-0.48865 0.18044,-0.9871 0.25495,-1.10766 0.0745,-0.12055 0.24991,-1.32809 0.38979,-2.68342 0.13987,-1.35532 0.4349,-3.77391 0.65562,-5.37464 0.83543,-6.05874 1.0599,-8.59854 0.76013,-8.60022 -0.12391,-7.9e-4 -0.66517,-0.40529 -1.20279,-0.89909 -0.53763,-0.49381 -1.11414,-0.94338 -1.28115,-0.99905 -0.16701,-0.0557 -0.32244,-0.4249 -0.34541,-0.82051 -0.0304,-0.52272 -0.18295,-0.71934 -0.55834,-0.71948 -0.56563,-2e-4 -2.26156,-1.50305 -2.26156,-2.00407 0,-0.17191 -0.17859,-0.46079 -0.39687,-0.64195 -0.21829,-0.18116 -0.39688,-0.49442 -0.39688,-0.69614 0,-0.20173 -0.32742,-0.73483 -0.7276,-1.18467 -0.40019,-0.44984 -0.72952,-0.96524 -0.73185,-1.14533 -0.002,-0.18009 -0.21069,-0.53388 -0.46302,-0.78621 -0.25233,-0.25233 -0.47366,-0.56934 -0.49185,-0.70447 -0.0714,-0.53044 -0.12773,-0.66513 -0.5453,-1.30401 -0.55588,-0.8505 -2.45241,-6.67556 -2.71916,-8.35175 -1.04443,-6.56277 -1.19116,-11.28132 -0.54124,-17.40561 0.88089,-8.30073 2.49003,-13.90224 6.00544,-20.905377 l 1.04434,-2.08046 -0.61332,-0.69681 c -0.33732,-0.38325 -0.71608,-0.74138 -0.84169,-0.79585 -0.12561,-0.0545 -0.0661,-0.20186 0.13229,-0.32753 0.29869,-0.18924 0.29948,-0.2292 0.005,-0.23256 -0.19582,-0.002 -0.6939,-0.24463 -1.10684,-0.53868 l -0.75082,-0.53463 -0.63927,0.86536 c -0.35159,0.47595 -1.03339,1.57973 -1.51512,2.45286 -4.37984,7.938457 -12.00988,17.014237 -18.26656,21.727707 -4.146,3.12339 -10.64941,6.77423 -14.53931,8.16199 -2.52848,0.90205 -7.065534,2.30157 -8.202094,2.53004 -0.65484,0.13164 -1.42875,0.30345 -1.71979,0.3818 -1.32355,0.35631 -4.16255,0.88356 -6.2177,1.15473 -3.33226,0.43967 -10.9494,0.9115 -12.23845,0.75808 -0.61766,-0.0735 -2.4134,-0.20067 -3.99053,-0.28258 -2.72858,-0.1417 -8.32434,-0.84523 -9.17102,-1.15303 -0.21828,-0.0794 -0.81031,-0.19395 -1.31562,-0.25465 -0.5053,-0.0607 -0.98155,-0.20621 -1.05833,-0.32334 -0.0768,-0.11713 -0.55631,-0.29013 -1.06564,-0.38444 -2.86596,-0.53068 -4.50826,-0.95495 -5.31868,-1.37403 -0.4217,-0.21808 -0.76673,-0.32688 -0.76673,-0.2418 0,0.0851 -0.14883,0.0618 -0.33073,-0.0517 -0.1819,-0.11352 -0.55412,-0.24116 -0.82716,-0.28364 -0.27303,-0.0425 -0.86834,-0.23978 -1.32291,-0.43845 -0.45457,-0.19866 -1.3928,-0.56444 -2.08496,-0.81284 -0.75022,-0.26923 -1.18784,-0.56589 -1.08359,-0.73457 0.0995,-0.16098 0.0509,-0.20632 -0.11273,-0.10519 -0.44589,0.27558 -5.34173,-2.15975 -5.57091,-2.77112 -0.0485,-0.1294 -0.29006,-0.23527 -0.5368,-0.23527 -0.65579,0 -5.38779,-3.12899 -5.19754,-3.43682 0.0888,-0.14371 -0.001,-0.19883 -0.20021,-0.12249 -0.19893,0.0763 -0.68074,-0.15689 -1.07068,-0.51827 -0.38994,-0.36139 -0.8754,-0.75263 -1.0788,-0.86943 -0.5596,-0.32135 -4.36859,-3.73573 -5.71839,-5.12598 -2.63418,-2.71311 -5.1329,-5.56766 -7.17298,-8.19448 -1.18189,-1.5218 -2.22958,-2.79841 -2.3282,-2.83692 -0.26603,-0.10387 -0.69142,1.22496 -1.75875,5.49397 -1.25108,5.00395 -1.17059,4.63733 -1.45233,6.61458 -1.38641,9.72985 -1.79551,23.7836 -0.92807,31.88229 0.67291,6.28246 1.80355,13.82369 3.06514,20.44399 0.28475,1.4943 0.49957,2.80398 0.47737,2.91041 -0.0222,0.10644 0.0293,0.37211 0.11453,0.59039 0.33779,0.86551 1.24922,5.61134 1.11832,5.82314 -0.0767,0.12414 -0.0288,0.2941 0.10638,0.37767 0.20923,0.12932 0.48163,1.22653 0.6939,2.79503 0.0296,0.21828 0.1256,0.57546 0.21346,0.79375 0.20356,0.50575 1.7871,6.83696 1.88603,7.54062 0.0409,0.29104 0.14128,0.70776 0.22304,0.92604 0.23119,0.61727 1.48875,5.0965 1.59708,5.68854 0.0533,0.29104 0.16949,0.70776 0.2583,0.92604 0.0888,0.21829 0.88953,2.83766 1.77937,5.82084 0.88983,2.98317 1.84077,5.90021 2.11319,6.48229 0.48257,1.03112 2.37206,6.08623 2.4724,6.61458 0.0276,0.14552 0.14294,0.41297 0.25623,0.59432 0.1133,0.18135 0.25025,0.55946 0.30432,0.84024 0.11943,0.62016 0.95444,1.9365 1.12207,1.76888 0.0662,-0.0662 0.55609,0.0291 1.08864,0.21184 1.38384,0.47481 3.12864,0.49743 4.98397,0.0646 0.95698,-0.22325 1.75619,-0.28233 1.97177,-0.14576 0.54996,0.34838 1.02443,0.28219 0.86959,-0.12131 -0.18429,-0.48026 1.49257,-1.108 3.72627,-1.39496 0.43656,-0.0561 1.15093,-0.21849 1.5875,-0.3609 0.43656,-0.14242 1.27,-0.3195 1.85208,-0.39352 1.11365,-0.14161 1.39039,-0.19406 3.30729,-0.62684 0.65485,-0.14785 2.20266,-0.40762 3.43959,-0.57727 1.23692,-0.16965 2.54661,-0.35766 2.91041,-0.41779 0.3638,-0.0601 1.13771,-0.15938 1.71979,-0.22055 0.58209,-0.0612 1.71318,-0.19239 2.51354,-0.2916 0.80037,-0.0992 2.05053,-0.21163 2.77813,-0.24982 0.7276,-0.0382 2.21589,-0.17343 3.30729,-0.30054 2.1211,-0.24703 16.53304,-0.2539 17.85938,-0.008 0.43656,0.0808 1.86531,0.21539 3.175,0.29914 1.30968,0.0838 2.79796,0.20698 3.30729,0.27382 0.50932,0.0668 1.93807,0.24283 3.175,0.39109 1.23692,0.14826 2.7252,0.32695 3.30729,0.3971 3.430814,0.41343 8.960204,1.33125 9.921874,1.64692 0.21828,0.0717 0.8136,0.16637 1.32292,0.21048 0.50932,0.0441 1.2237,0.15442 1.5875,0.24513 0.3638,0.0907 1.13771,0.22833 1.71979,0.30582 0.58208,0.0775 1.23693,0.21154 1.45521,0.29789 0.21828,0.0863 0.69453,0.20187 1.05833,0.25672 0.3638,0.0548 0.84005,0.17266 1.05834,0.2618 0.21828,0.0891 0.69453,0.19302 1.05833,0.23086 0.3638,0.0378 1.37583,0.27125 2.24896,0.51868 0.87312,0.24743 2.00422,0.51119 2.51354,0.58612 0.50932,0.0749 1.0451,0.22338 1.19062,0.32987 0.14552,0.10649 1.03718,0.35282 1.98146,0.54738 0.94428,0.19457 2.23404,0.55008 2.86613,0.79001 1.03621,0.39334 3.63143,0.5077 4.20314,0.18522 z m -58.899584,-45.4302 c -0.83778,-0.0987 -1.21554,-0.28114 -1.34342,-0.64889 -0.12163,-0.34978 -0.23912,-0.41254 -0.37145,-0.19843 -0.29195,0.47239 -1.0663,0.3768 -1.74982,-0.216 -0.33557,-0.29105 -0.70712,-0.52917 -0.82566,-0.52917 -0.38084,0 -2.24546,-2.73329 -2.84403,-4.16898 -0.31894,-0.76497 -0.59552,-1.80676 -0.61463,-2.3151 -0.0191,-0.50834 -0.12264,-0.92425 -0.23007,-0.92425 -0.10743,0 -0.33572,-0.62508 -0.50733,-1.38907 -0.1716,-0.76398 -0.48113,-1.83795 -0.68784,-2.3866 -0.40974,-1.08748 -0.49396,-3.03693 -0.15433,-3.57205 0.49222,-0.77553 2.29583,0.35381 2.09842,1.31393 -0.039,0.18989 0.0778,0.31548 0.25975,0.2791 0.1819,-0.0364 0.33072,0.0413 0.33072,0.17255 0,0.30928 1.46856,0.81964 2.35851,0.81964 0.38062,0 1.12369,-0.23136 1.65127,-0.51412 0.52757,-0.28276 1.05091,-0.43159 1.16297,-0.33073 0.11207,0.10086 0.13799,0.0643 0.0576,-0.0812 -0.0804,-0.14552 0.10888,-0.62177 0.4206,-1.05833 0.40716,-0.57023 0.79028,-0.79774 1.36051,-0.80793 0.84928,-0.0152 1.71979,0.79753 1.71979,1.60558 0,0.2807 0.14183,0.39517 0.37754,0.30472 0.20764,-0.0797 0.51671,0.0228 0.68683,0.22782 0.17012,0.20497 0.38718,0.35645 0.48236,0.33661 0.0952,-0.0198 0.63104,0.0589 1.19078,0.17498 0.66576,0.13807 1.39775,0.0911 2.11666,-0.13587 0.60443,-0.19082 1.21802,-0.31536 1.36354,-0.27677 0.14552,0.0386 0.1825,-0.0119 0.0822,-0.11224 -0.10032,-0.10032 0.10804,-0.47284 0.46303,-0.82782 0.35498,-0.35498 0.64542,-0.86425 0.64542,-1.1317 0,-0.26746 0.23812,-0.54856 0.52916,-0.62467 0.29105,-0.0761 0.52917,-0.0234 0.52917,0.11705 0,0.14049 0.10557,0.19018 0.2346,0.11044 0.58147,-0.35937 0.87508,0.64675 0.6682,2.28979 -0.21424,1.70152 -0.26662,2.00827 -0.36261,2.12345 -0.0303,0.0364 -0.0897,0.30427 -0.13202,0.59531 -0.17197,1.18337 -0.38018,1.96687 -0.66326,2.4958 -0.1642,0.30682 -0.23482,0.66096 -0.15693,0.78698 0.17772,0.28757 -0.50027,0.87611 -0.7368,0.63958 -0.0958,-0.0958 -0.1741,5.3e-4 -0.1741,0.21396 0,0.21343 0.13783,0.52589 0.30629,0.69434 0.21931,0.21931 0.2257,0.40339 0.0225,0.64823 -0.15608,0.18807 -0.29536,0.46101 -0.30951,0.60653 -0.05,0.51405 -1.8388,3.18539 -2.65203,3.96039 -0.45327,0.43196 -1.08813,0.79796 -1.41079,0.81333 -0.32267,0.0154 -1.00338,0.22661 -1.51271,0.46943 -1.08753,0.51848 -2.07483,0.63935 -3.67906,0.45038 z m 3.55213,-2.6539 c 0.61655,-0.23321 2.77277,-2.32087 2.77277,-2.6846 0,-0.13429 0.22077,-0.56677 0.49061,-0.96106 0.37321,-0.54533 0.46233,-1.04557 0.3724,-2.09031 -0.10875,-1.26333 -0.17988,-1.38696 -0.88749,-1.54237 -0.4231,-0.0929 -0.76915,-0.2488 -0.769,-0.34638 1.5e-4,-0.0976 -1.16071,-0.11281 -2.57969,-0.0339 -2.51144,0.13973 -3.68235,0.48635 -4.11446,1.21799 -0.11637,0.19704 -0.41403,0.36283 -0.66146,0.36844 -0.24743,0.006 -0.69442,0.39256 -0.99332,0.8599 -0.2989,0.46733 -0.73431,0.83501 -0.96757,0.81706 -0.32484,-0.025 -0.40741,0.17786 -0.35275,0.86672 0.0392,0.49465 -0.0373,0.9665 -0.17004,1.04856 -0.13277,0.082 5.3e-4,0.35896 0.29608,0.61535 0.29561,0.25638 0.46027,0.54336 0.3659,0.63773 -0.0944,0.0944 -0.0256,0.17157 0.15272,0.17157 0.17837,0 0.26045,0.10331 0.18242,0.22957 -0.078,0.12626 0.59955,0.48259 1.50574,0.79184 1.64813,0.56246 3.92167,0.57682 5.35714,0.0339 z m -6.35536,-6.08234 c 0.0899,-0.14552 0.0374,-0.26458 -0.11667,-0.26458 -0.15411,0 -0.2802,0.11906 -0.2802,0.26458 0,0.14552 0.0525,0.26458 0.11667,0.26458 0.0642,0 0.19027,-0.11906 0.2802,-0.26458 z m -23.98711,1.44509 c -0.82364,-0.17424 -1.83567,-0.55129 -2.24896,-0.83789 -0.41328,-0.2866 -0.95177,-0.59319 -1.19663,-0.6813 -0.41267,-0.14849 -1.72019,-2.02023 -2.56724,-3.67504 -0.58294,-1.13884 -0.29098,-5.06949 0.49289,-6.63576 0.34594,-0.69122 0.74678,-1.25677 0.89076,-1.25677 0.14398,0 0.18956,-0.0722 0.1013,-0.16048 -0.33915,-0.33915 1.90638,-2.54887 2.39833,-2.36009 0.191,0.0733 0.27279,0.0127 0.18176,-0.13455 -0.091,-0.1473 0.36824,-0.50392 1.02061,-0.79249 3.29736,-1.45858 7.06487,-0.66793 9.37959,1.96839 1.59398,1.81544 2.02185,2.96267 2.03188,5.44797 0.0103,2.55206 -0.17145,3.52562 -0.76989,4.12406 -0.22909,0.22909 -0.34887,0.52598 -0.26619,0.65977 0.0827,0.13379 0.0243,0.24326 -0.12986,0.24326 -0.1541,0 -0.28019,0.1533 -0.28019,0.34067 0,0.40699 -2.26196,2.64443 -3.11433,3.08056 -0.33043,0.16907 -0.71388,0.2375 -0.85212,0.15206 -0.13824,-0.0854 -0.60605,0.0281 -1.03957,0.25227 -1.08451,0.56082 -2.26745,0.63867 -4.03214,0.26536 z m 3.06119,-4.86228 c 0.7707,-0.72403 1.32887,-2.60338 1.09264,-3.67891 -0.0966,-0.43977 -0.4769,-1.12468 -0.84514,-1.52201 l -0.66952,-0.72242 0.79299,-0.33343 c 1.42371,-0.59862 1.45923,-2.44221 0.0582,-3.02252 -2.2372,-0.92668 -4.68877,1.75052 -2.72048,2.97087 0.55604,0.34474 0.61532,0.45277 0.25144,0.45815 -1.48464,0.022 -3.09571,1.95469 -3.09571,3.71381 0,1.09611 0.6478,2.28528 1.4834,2.7231 0.92144,0.48279 2.84219,0.17426 3.65213,-0.58664 z m -7.48395,-7.50128 c -0.26131,-0.25936 -0.2917,-0.22897 -0.14812,0.14811 0.0994,0.26094 0.24731,0.40778 0.32877,0.32632 0.0815,-0.0815 1.7e-4,-0.29496 -0.18065,-0.47443 z m 56.32341,11.73507 c -0.54166,-0.10065 -0.89702,-0.31054 -0.85612,-0.50567 0.0537,-0.25603 -0.0564,-0.26598 -0.47344,-0.0428 -0.45687,0.24451 -0.75318,0.13678 -1.8615,-0.67681 -3.17313,-2.32929 -4.42195,-6.24124 -3.24298,-10.15869 0.52956,-1.75959 2.03612,-3.85309 2.54604,-3.53794 0.1506,0.0931 0.18362,0.0315 0.0763,-0.1422 -0.11797,-0.19087 0.32422,-0.62559 1.17308,-1.15327 1.61412,-1.00339 1.73881,-1.04082 3.966214,-1.19062 2.04249,-0.13735 4.75491,0.69599 4.76191,1.463 0.003,0.31777 0.0633,0.35079 0.21229,0.11614 0.27639,-0.43518 2.17881,1.52443 2.92,3.00777 0.79473,1.59049 0.94828,2.36492 0.94137,4.74773 -0.005,1.78825 -0.10363,2.27279 -0.60476,2.97656 -0.32921,0.46233 -0.51271,0.84061 -0.40777,0.84061 0.10493,0 -0.0469,0.20836 -0.33745,0.46302 -0.29053,0.25466 -0.48285,0.59557 -0.42737,0.75757 0.13448,0.39271 -1.60991,1.90385 -2.4375,2.11156 -0.36114,0.0906 -0.65661,0.27617 -0.65661,0.41229 0,0.13613 -0.14883,0.22319 -0.33073,0.19347 -0.1819,-0.0297 -0.6659,0.0841 -1.07556,0.25299 -0.78778,0.32472 -2.34808,0.35093 -3.885384,0.0653 z m -3.43958,-2.80098 c -0.18116,-0.21828 -0.43013,-0.39687 -0.55326,-0.39687 -0.12313,0 -0.15535,0.17859 -0.0716,0.39687 0.0838,0.21829 0.33273,0.39688 0.55326,0.39688 0.32642,0 0.33973,-0.0738 0.0716,-0.39688 z m 3.175,-1.5875 c 0,0.32428 1.081224,-0.45042 1.481724,-1.06166 1.09513,-1.67137 0.94754,-3.96398 -0.2981,-4.63062 -0.843264,-0.45131 -0.835104,-0.79001 0.019,-0.79001 0.80857,0 1.97235,-1.08572 1.97235,-1.84005 0,-0.7699 -0.93009,-1.59953 -1.79321,-1.59953 -0.70667,0 -1.831894,0.59101 -2.237644,1.17529 -0.40423,0.5821 -0.1993,1.70735 0.38556,2.117 0.57121,0.40009 0.57253,0.41188 0.0461,0.41188 -0.98268,0 -2.22166,1.90671 -2.22166,3.41896 0,1.5288 0.32752,2.41795 1.02535,2.78358 0.46643,0.24439 0.84161,0.28109 1.15558,0.11307 0.25569,-0.13685 0.4649,-0.1809 0.4649,-0.0979 z m 42.932234,52.18906 c 0.32545,-0.1819 1.19913,-0.83085 1.94152,-1.44211 0.74239,-0.61127 1.51629,-1.14705 1.71979,-1.19063 0.2035,-0.0436 0.45495,-0.1983 0.55879,-0.34382 0.10383,-0.14552 0.28242,-0.26497 0.39687,-0.26544 0.11445,-5.3e-4 0.63605,-0.3279 1.1591,-0.72761 0.52306,-0.39971 1.05117,-0.72674 1.17358,-0.72674 0.41868,0 1.44728,-1.14993 1.44728,-1.61801 0,-0.25708 0.10339,-0.53132 0.22974,-0.60941 0.12636,-0.0781 0.31387,-0.88879 0.41669,-1.80155 0.10282,-0.91277 0.41116,-2.49301 0.68519,-3.51165 0.27404,-1.01865 0.55183,-2.35176 0.61732,-2.96247 0.0655,-0.61071 0.19202,-1.22841 0.28118,-1.37267 0.0892,-0.14427 0.22555,-0.77569 0.30308,-1.40317 0.0775,-0.62747 0.24018,-1.37899 0.36143,-1.67003 0.21267,-0.51047 0.44685,-1.70361 1.17186,-5.97068 0.18707,-1.10106 0.42551,-2.14007 0.52986,-2.3089 0.10435,-0.16884 0.23567,-0.63719 0.29183,-1.04078 0.23162,-1.66449 0.4592,-2.93598 0.79435,-4.43797 0.19483,-0.87312 0.42685,-2.30187 0.51562,-3.175 0.22156,-2.17946 0.4074,-3.58221 0.57836,-4.36562 0.2283,-1.04612 0.33769,-1.8206 0.61666,-4.36563 0.14355,-1.30969 0.35786,-3.03609 0.47622,-3.83646 0.11837,-0.80036 0.17063,-2.08028 0.11613,-2.84427 -0.0978,-1.37173 -0.10986,-1.38906 -0.96267,-1.38906 -1.41456,0 -3.31569,-0.31996 -3.18241,-0.5356 0.0682,-0.11041 -0.32146,-0.27265 -0.866,-0.36053 -2.00937,-0.32427 -2.97495,-0.39325 -2.99468,-0.21393 -0.0111,0.10121 -0.0676,0.42214 -0.12548,0.71318 -0.12032,0.605 -0.64021,4.30558 -0.79918,5.68855 -0.31679,2.75594 -1.40136,10.23549 -1.6881,11.64166 -0.13354,0.65485 -0.37344,1.96453 -0.53313,2.91042 -0.15968,0.94588 -0.40297,2.25557 -0.54063,2.91042 -0.13767,0.65484 -0.43577,2.50031 -0.66245,4.10104 -0.22669,1.60073 -0.51711,3.32713 -0.64539,3.83646 -0.12828,0.50932 -0.36216,1.72971 -0.51973,2.71197 -0.96243,5.9995 -1.50599,8.9088 -1.98971,10.64948 -0.36588,1.31665 -0.82498,3.64357 -1.18337,5.99784 -0.10343,0.67944 -0.34023,1.4187 -0.52622,1.64281 -0.21279,0.2564 -0.27265,0.70577 -0.16146,1.21206 0.20173,0.91842 0.20229,0.91869 0.99816,0.47385 z m 13.48397,-59.07697 c -4.10437,-3.71424 -7.74808,-10.80795 -9.06212,-17.64246 -1.50744,-7.84039 -1.17399,-17.69569 0.83511,-24.68212 2.17457,-7.56182 6.07277,-14.614837 10.12409,-18.317517 l 1.48255,-1.35497 v -2.26844 -2.26845 l -0.7276,0.006 c -2.85468,0.0246 -8.15569,4.04048 -11.16793,8.46039 -2.54479,3.734017 -5.25751,10.183057 -6.34376,15.081247 -0.17749,0.80036 -0.38719,1.6338 -0.466,1.85208 -0.0788,0.21828 -0.17624,0.69453 -0.21653,1.05833 -0.0403,0.36381 -0.26413,1.97115 -0.49743,3.57188 -0.63218,4.33763 -0.6993,11.54558 -0.14192,15.24273 0.24987,1.65744 0.40563,3.09459 0.34613,3.19367 -0.0595,0.0991 0.0128,0.25495 0.16073,0.34635 0.14789,0.0914 0.26889,0.39586 0.26889,0.67658 0,0.8248 1.57093,5.5133 2.55485,7.62504 1.17079,2.51281 3.47217,5.80806 5.20676,7.45534 2.33137,2.21402 5.02494,3.34767 8.09234,3.40582 l 1.16956,0.0222 -1.61772,-1.46395 z m 7.74525,0.69889 c -2.0299,-1.27485 -4.56109,-4.52286 -6.02723,-7.73412 -2.64813,-5.80014 -3.50102,-10.48382 -3.48715,-19.14977 0.009,-5.77037 0.339,-8.77762 1.49416,-13.62604 1.1117,-4.66597 3.11847,-10.13131 4.89101,-13.3204 1.79284,-3.225607 4.78321,-6.361827 7.48209,-7.847027 l 1.20337,-0.66222 0.46218,-3.8357 c 0.94254,-7.82229 0.89216,-23.730952 -0.0951,-30.02944 -1.57151,-10.025906 -4.26915,-17.712187 -9.09328,-25.90907 -4.76534,-8.097001 -12.02294,-15.694284 -20.43008,-21.386286 -0.75627,-0.512027 -1.30197,-1.004022 -1.21267,-1.093322 0.0893,-0.0893 -0.0338,-0.162361 -0.27348,-0.162361 -0.2397,0 -1.12275,-0.439621 -1.96232,-0.976935 C 133.8639,8.8196786 126.63478,5.2537246 123.00352,3.8411066 117.94446,1.8730436 111.603,-0.06990337 108.06274,-0.73656837 100.97881,-2.0705434 95.670576,-2.6161994 89.409616,-2.6539994 c -6.29125,-0.03798 -11.31702,0.109558 -12.69747,0.372758 -0.58348,0.111248 -2.31102,0.396075 -3.83899,0.63295 -11.99223,1.85910603 -24.14184,6.752527 -33.66625,13.5595444 -10.19685,7.287606 -18.10176,17.135405 -22.66657,28.237623 -1.32068,3.212081 -3.52681,10.408602 -3.81414,12.441954 -0.0822,0.582083 -0.38164,2.546614 -0.6653,4.365625 -0.80854,5.184899 -1.21219,10.075917 -1.22278,14.816666 -0.0115,5.138467 0.16142,11.419742 0.32267,11.722192 0.0624,0.11704 0.37032,0.0453 0.68427,-0.15936 0.31394,-0.20469 1.52331,-0.70467 2.68748,-1.11105 3.20689,-1.11946 3.02834,-0.94792 2.62104,-2.5181 -0.19215,-0.74074 -0.58825,-2.08471 -0.88022,-2.986596 -1.22205,-3.774823 -1.84517,-6.007282 -2.30394,-8.254378 -0.26739,-1.309687 -0.5775,-2.420937 -0.68913,-2.469443 -0.2775,-0.120584 -0.25883,-4.806598 0.0191,-4.806598 0.12216,0 0.36416,-0.311751 0.53777,-0.692782 0.70337,-1.543725 4.7507,-5.998157 6.94869,-7.64762 0.50361,-0.377936 1.07533,-1.514552 2.05977,-4.095014 0.74946,-1.964531 1.57599,-4.048125 1.83672,-4.630208 1.28442,-2.867404 3.14702,-6.548467 4.19859,-8.297664 1.30657,-2.173367 3.4167,-5.491244 3.78626,-5.953358 0.13242,-0.165584 1.19177,-1.514747 2.35411,-2.998141 5.77696,-7.372622 12.63912,-12.346477 24.22577,-17.5594114 2.0351,-0.915609 9.04207,-3.082277 12.7,-3.927044 11.3466,-2.620396 23.76446,-2.448065 36.247914,0.50304 10.4831,2.478219 22.35105,8.2627884 30.46399,14.8484744 2.36699,1.921414 8.82663,8.258809 8.82663,8.659597 0,0.119169 0.4613,0.716344 1.02511,1.32706 1.18781,1.286629 4.20543,5.707123 5.08182,7.444322 0.33036,0.654844 0.80321,1.488281 1.05078,1.852083 0.24757,0.363802 0.99797,1.922436 1.66756,3.463634 3.82909,8.813514 6.1385,18.829395 6.67464,28.947823 0.27601,5.209174 0.27942,5.864294 0.0668,12.832294 l -0.18977,6.21771 0.77822,0.80634 c 0.42802,0.44349 0.77822,0.93677 0.77822,1.09617 0,0.30937 -0.59715,0.61103 -1.20956,0.61103 -0.67135,0 -3.92662,2.27375 -5.00815,3.49809 -1.76025,1.9927 -2.71738,3.253277 -3.3948,4.471067 -4.18524,7.52383 -6.00016,13.55986 -6.55376,21.79646 -0.74015,11.01216 1.78022,21.13301 6.86445,27.56504 1.91298,2.4201 6.56082,5.35274 8.50807,5.36832 0.65776,0.005 0.65702,0.002 -0.1323,-0.49322 z m 7.44982,-0.71358 c 4.58776,-1.3337 9.78025,-6.19363 12.69591,-11.88281 0.6712,-1.30969 1.33891,-2.53008 1.48378,-2.71198 0.35522,-0.446 0.006,-0.42635 -1.42176,0.0799 -1.86398,0.66114 -5.28813,-0.0464 -5.64352,-1.16614 -0.0768,-0.24192 -0.40335,-0.55785 -0.72569,-0.70207 -0.87017,-0.38932 -2.21283,-2.83391 -2.89088,-5.26343 -0.51693,-1.85223 -0.59772,-2.76993 -0.59621,-6.77275 0.001,-2.80106 0.12889,-5.10056 0.32357,-5.82083 0.17699,-0.65485 0.3846,-1.48828 0.46135,-1.85208 0.0768,-0.36381 0.25235,-0.7014 0.39022,-0.75021 0.13787,-0.0488 0.18098,-0.2015 0.0958,-0.33931 -0.15976,-0.2585 1.17026,-3.31226 1.78783,-4.10489 0.86325,-1.10796 2.66176,-2.76296 3.43969,-3.16524 1.25801,-0.65055 3.92727,-0.80325 4.96773,-0.2842 l 0.84144,0.41977 -0.18006,-0.8489 c -0.47797,-2.2533 -2.83584,-6.89892 -4.68171,-9.2242 -0.61748,-0.77786 -1.1389,-1.503577 -1.1587,-1.612717 -0.0198,-0.10914 -0.0509,-0.32453 -0.0691,-0.47864 -0.0182,-0.15411 -0.12695,-0.22218 -0.24168,-0.15127 -0.11474,0.0709 -0.62075,-0.29403 -1.12448,-0.81097 -1.13167,-1.16135 -3.14954,-2.11062 -4.83833,-2.2761 -1.37191,-0.13443 -3.94391,0.5052 -5.11385,1.27178 -0.3668,0.24033 -0.72372,0.38014 -0.79318,0.31068 -0.17894,-0.17894 -3.17093,2.918347 -4.04275,4.185037 -2.19321,3.18659 -4.48246,8.58523 -5.59185,13.18706 -0.38414,1.59341 -0.71338,2.4645 -0.89129,2.35815 -0.15517,-0.0928 -0.12752,0.0222 0.0614,0.25545 0.1907,0.23539 0.2365,0.49028 0.10294,0.57283 -0.13235,0.0818 -0.31094,0.89606 -0.39689,1.80949 -0.0859,0.91342 -0.29362,2.8514 -0.46151,4.3066 -0.40982,3.55205 -0.1455,10.8579 0.51689,14.2875 0.741,3.8366 2.00948,7.58928 3.50873,10.38029 1.5532,2.89146 4.21469,5.5483 6.58022,6.56874 1.74383,0.75225 1.78488,0.75482 3.60586,0.22545 z M 11.129316,150.94968 c -0.83114,-6.36556 -1.1813202,-18.8968 -0.71534,-25.59844 0.88421,-12.71665 3.4392,-24.23496 5.88057,-26.510587 0.34307,-0.31978 2.58728,-1.58548 4.98713,-2.81267 6.42203,-3.28397 6.61231,-3.3879 6.61231,-3.61168 0,-0.71329 -3.58729,-1.91453 -5.64044,-1.88876 -2.00495,0.0252 -2.49023,-0.48796 -3.31959,-3.51003 -0.46204,-1.68361 -0.7388,-2.27884 -1.05833,-2.27609 -1.22128,0.0105 -6.95103,3.81772 -8.4797402,5.63448 -0.35639,0.42355 -0.77672,0.9058 -0.93406,1.07167 -0.98607,1.03952 -3.1448,4.03382 -4.11289,5.70485 -2.47265,4.268087 -3.89390001,8.054657 -4.95460001,13.200317 -0.63731999,3.09178 -0.69372999,3.90002 -0.71437999,10.236 -0.0148,4.5491 0.0957,7.59611 0.32634999,8.99583 0.19183,1.16417 0.4036,2.47386 0.47061,2.91042 0.55218,3.59767 2.06956001,7.92565 4.07201001,11.61452 1.71655,3.16219 3.46772,5.3601 5.63647,7.0744 1.7833202,1.40963 2.1527502,1.36511 1.9439202,-0.23423 z m -6.3006102,-0.52917 c -0.52123,-0.5457 -0.89265,-1.14102 -0.8254,-1.32292 0.0673,-0.1819 -0.0578,-0.33073 -0.27785,-0.33073 -0.42102,0 -2.90716001,-3.75631 -2.90716001,-4.39243 0,-0.20354 -0.0848,-0.37007 -0.18839,-0.37007 -0.10361,0 -0.33361,-0.38695 -0.5111,-0.85989 -0.1775,-0.47294 -0.5365,-1.27662 -0.79778,-1.78594 -0.87051999,-1.69692 -2.33105999,-6.71261 -2.77361999,-9.525 -0.74593,-4.74024 -0.80107,-5.53285 -0.77313,-11.1125 0.0256,-5.11032 0.1232,-6.11666 1.04574,-10.78177 0.0647,-0.32742 0.16459,-0.8632 0.22186,-1.19062 0.1798,-1.0278 1.40175,-5.03319 1.96992999,-6.45715 0.65092,-1.63132 2.49266001,-5.391697 3.28006001,-6.697077 1.26383,-2.09524 3.98174,-5.54964 4.24057,-5.38968 0.15215,0.094 0.20003,0.047 0.10639,-0.1045 -0.0936,-0.15152 0.006,-0.42153 0.22079,-0.60003 0.21508,-0.1785 0.33352,-0.41763 0.2632,-0.5314 -0.17245,-0.27903 -1.64656,0.49638 -3.32804,1.7506 -0.75931,0.56637 -1.72639,1.28408 -2.14909,1.59492 -1.66897001,1.2273 -4.16222,4.04445 -5.92307,6.69252 -0.68407,1.028747 -1.3652,1.870437 -1.51362,1.870437 -0.14843,0 -0.19633,0.0735 -0.10645,0.16342 0.0899,0.0899 -0.35205,1.1912 -0.98205,2.44739 -0.98573,1.96549 -2.61031,6.42317 -2.95375,8.10482 -1.5200298,7.44274 -1.5417598,12.99496 -0.0761,19.44687 0.95022,4.18292 2.13446,7.21434 3.94391,10.09564 1.23586,1.96794 4.30769,5.61389 5.47441999,6.49759 0.53516,0.40534 1.23797,0.98028 1.56180001,1.27764 0.32383,0.29736 1.26357,0.89268 2.08831,1.32292 0.82473,0.43024 1.55529,0.87155 1.62345,0.98069 0.0682,0.10914 0.31965,0.19844 0.55888,0.19844 0.3124,0 0.16794,-0.27956 -0.51272,-0.99219 z M 183.22519,138.98089 c 0.22971,-0.002 0.96806,-0.36818 1.64077,-0.81377 0.96364,-0.63828 1.33121,-1.10136 1.73264,-2.18281 2.46123,-6.63054 2.40668,-18.49983 -0.10014,-21.78644 -2.16087,-2.83305 -5.92338,-2.00015 -7.95354,1.76066 -0.27494,0.50933 -0.57198,0.98558 -0.66008,1.05834 -0.0881,0.0728 -0.48858,1.38244 -0.88994,2.91041 -0.88251,3.35967 -1.17617,8.12894 -0.6761,10.98021 0.17866,1.01865 0.3511,2.09021 0.3832,2.38125 0.0321,0.29104 0.19858,0.78923 0.36996,1.10709 0.17139,0.31785 0.31212,0.73457 0.31275,0.92604 5.3e-4,0.19147 0.46729,0.96294 1.03702,1.71439 0.56974,0.75145 0.98594,1.43606 0.9249,1.52136 -0.061,0.0853 -0.0458,0.10977 0.0338,0.0544 0.0796,-0.0554 0.64518,0.0585 1.25677,0.25311 0.61159,0.19459 1.35011,0.30106 1.64115,0.23659 0.29104,-0.0645 0.71711,-0.11883 0.94683,-0.12082 z m -96.088954,-10.37431 1.16621,-0.29818 -0.18194,-10.47441 c -0.10006,-5.76093 -0.29919,-15.35598 -0.4425,-21.322327 -0.14332,-5.96636 -0.37517,-15.61042 -0.51523,-21.431251 -0.14006,-5.820833 -0.25737,-14.182094 -0.26068,-18.580583 -0.006,-7.52067 -0.0375,-8.048876 -0.5342,-8.863541 -0.2905,-0.476459 -0.52863,-0.774573 -0.52917,-0.662477 -5.3e-4,0.112098 -0.44747,-0.0141 -0.99318,-0.280427 -0.60425,-0.29491 -1.71633,-0.511548 -2.84427,-0.554074 -1.01864,-0.03841 -3.24932,-0.172294 -4.95706,-0.297527 -1.70773,-0.125235 -3.43414,-0.132466 -3.83645,-0.01606 -2.52031,0.729149 -9.72617,4.016054 -10.85024,4.949266 l -0.59374,0.492924 -0.27441,20.769791 c -0.15092,11.423389 -0.27209,28.508846 -0.26925,37.967706 0.005,16.20806 0.032,17.20336 0.47128,17.29253 0.25637,0.052 0.58519,0.19021 0.73071,0.30705 0.36825,0.29567 2.56756,0.65948 5.82083,0.96288 0.87312,0.0814 1.61896,0.17653 1.65742,0.21133 0.26271,0.23773 16.25747,0.0775 17.23587,-0.17262 z m 7.79934,-1.55206 c 0.13587,-0.12407 0.10519,-3.25021 -0.073,-7.44091 -0.76765,-18.05157 -0.77852,-18.53109 -0.98855,-43.61149 -0.19477,-23.258504 -0.21079,-22.926735 1.17537,-24.333225 0.60341,-0.612265 0.66065,-0.857163 0.60457,-2.586342 -0.0341,-1.050523 -0.17008,-2.287082 -0.30225,-2.747912 -0.13216,-0.46083 -0.25171,-4.420928 -0.26566,-8.800216 -0.0139,-4.37929 -0.11512,-8.441666 -0.22483,-9.027506 -0.22468,-1.199772 -0.12797,-1.710711 0.32514,-1.717778 0.44512,-0.0069 2.29839,-1.283356 3.73855,-2.574872 0.20283,-0.181901 0.47391,-0.330729 0.60238,-0.330729 0.12848,0 0.46441,-0.214371 0.746514,-0.47638 0.5622,-0.522158 1.44689,-0.958233 1.78935,-0.881986 0.11995,0.02671 0.15817,-0.0484 0.0849,-0.166907 -0.0732,-0.118509 0.21522,-0.448881 0.64103,-0.73416 0.82891,-0.555348 1.02948,-1.18015 0.37885,-1.18015 -0.21828,0 -0.39688,-0.119063 -0.39688,-0.264584 0,-0.145521 -0.2411,-0.264583 -0.53577,-0.264583 -0.29468,0 -1.15788,-0.218467 -1.91823,-0.485479 -0.760354,-0.267015 -1.535214,-0.434377 -1.721914,-0.371917 -0.1867,0.06246 -0.54389,0.02985 -0.79375,-0.07246 -0.39382,-0.161264 -1.73288,-0.352602 -3.29857,-0.471339 -0.25466,-0.01931 -0.46302,-0.0989 -0.46302,-0.176856 0,-0.07796 -0.44648,-0.154016 -0.99218,-0.169024 -0.54571,-0.015 -2.20953,-0.06188 -3.69739,-0.104171 -1.52053,-0.04322 -2.853,0.03847 -3.04271,0.186528 -0.18563,0.144878 -0.99235,0.474589 -1.79272,0.73269 -0.80036,0.258101 -1.77123,0.632925 -2.15749,0.832942 -0.38625,0.20002 -0.89729,0.36367 -1.13564,0.36367 -0.23835,0 -0.57717,0.121793 -0.75293,0.270653 -0.17576,0.148857 -0.85534,0.545235 -1.51019,0.880838 l -1.19062,0.610184 -0.30145,5.403017 c -0.1658,2.971659 -0.38988,7.498378 -0.49795,10.059375 l -0.19651,4.656363 0.63025,0.168671 c 0.34663,0.09277 1.61753,0.1703 2.82421,0.172287 2.31367,0.0038 5.69123,0.581728 6.71975,1.149789 1.58088,0.873127 2.59566,1.573077 2.59566,1.790374 0,0.131146 -0.004,0.302231 -0.009,0.380188 -0.005,0.07796 0.15411,0.3053 0.35401,0.505206 0.29707,0.297069 0.39892,3.618206 0.55757,18.180655 0.10675,9.799454 0.31005,22.936879 0.45177,29.194269 0.14173,6.2574 0.32534,16.012217 0.40803,21.677377 0.1419,9.72208 0.12354,10.31989 -0.3272,10.64948 -0.26264,0.19205 -0.33277,0.34918 -0.15584,0.34918 0.17694,0 0.43184,0.28967 0.56645,0.64371 0.23042,0.60606 0.33451,0.63505 1.77938,0.49561 0.84406,-0.0815 1.64009,-0.2444 1.76896,-0.36208 z m -37.21771,-1.67667 c 0.14426,-1.07728 -0.35811,-1.54008 -1.49256,-1.37501 -0.52082,0.0758 -1.03624,0.14229 -1.14538,0.14778 -0.10914,0.006 -0.19844,0.25394 -0.19844,0.5521 0,0.38136 0.33342,0.69334 1.12448,1.05218 1.3649,0.61915 1.58498,0.57068 1.7119,-0.37705 z m 42.738104,0.2624 c 0.25466,-0.003 0.46302,-0.091 0.46302,-0.19559 0,-0.18818 0.94501,-0.59627 1.45521,-0.62842 0.14552,-0.009 1.41748,-0.57715 2.82657,-1.26219 1.4091,-0.68504 2.63521,-1.24552 2.72469,-1.24552 0.0895,0 0.78206,-0.39236 1.53905,-0.87192 0.757,-0.47955 1.84521,-1.09106 2.41825,-1.35891 0.57304,-0.26785 1.16835,-0.58889 1.32291,-0.71341 1.30372,-1.05034 3.02058,-2.30602 3.09723,-2.26525 0.0518,0.0276 0.0686,0.005 0.0374,-0.0508 -0.0313,-0.0555 0.0496,-0.29982 0.17969,-0.5429 0.1301,-0.24308 0.307,-1.20969 0.39312,-2.14802 0.0861,-0.93833 0.27517,-2.5395 0.4201,-3.55814 0.14494,-1.01865 0.38236,-2.68552 0.5276,-3.70417 0.14524,-1.01864 0.29506,-2.14974 0.33294,-2.51354 0.0379,-0.3638 0.14303,-0.78052 0.23366,-0.92604 0.0906,-0.14552 0.181,-0.91943 0.2008,-1.71979 0.0198,-0.80037 0.0852,-1.8124 0.14537,-2.248957 0.0601,-0.43656 0.18581,-1.80578 0.27924,-3.04271 0.0934,-1.23693 0.27977,-3.0824 0.4141,-4.10104 0.31496,-2.38835 0.73152,-5.95526 0.91153,-7.80521 0.0779,-0.80036 0.18389,-1.69333 0.23558,-1.98437 0.0517,-0.29105 0.17056,-1.30308 0.26418,-2.24896 0.0936,-0.94589 0.28306,-2.43417 0.42099,-3.307294 0.13793,-0.873125 0.30023,-2.123281 0.36066,-2.778125 0.0604,-0.654844 0.2424,-2.143125 0.40436,-3.307292 0.34179,-2.456762 0.5061,-3.925739 0.66588,-5.953124 0.17027,-2.160506 0.70727,-6.711672 0.81189,-6.880953 0.0501,-0.08104 0.12522,-1.064551 0.16697,-2.185587 0.0657,-1.764298 0.006,-2.092635 -0.44296,-2.442912 -0.76508,-0.59669 -6.61529,-3.417194 -8.48797,-4.092222 l -1.6191,-0.583624 -3.54028,1.191922 c -1.94714,0.655555 -5.11944,1.675638 -7.04953,2.266849 -1.9301,0.591214 -3.864874,1.258816 -4.299484,1.483566 -0.77096,0.39868 -0.79064,0.458415 -0.80791,2.45236 -0.01,1.12405 -0.0563,3.532007 -0.10344,5.351017 -0.24539,9.465228 -0.10123,31.182559 0.27837,41.936456 0.22384,6.34099 0.22076,9.7889 -0.009,10.16075 -0.0987,0.15966 -0.0862,0.43912 0.0278,0.62102 0.11395,0.1819 0.22587,0.80698 0.24871,1.38906 0.18934,4.82473 0.42256,9.09741 0.52372,9.5947 0.10314,0.50702 0.2325,0.57018 0.84349,0.41185 0.39692,-0.10285 0.930034,-0.18949 1.184704,-0.19254 z m -50.193564,-1.19704 c -0.0838,-0.13562 0.17705,-0.28445 0.5797,-0.33073 l 0.73209,-0.0842 v -2.38125 c 0,-5.9615 -0.8029,-25.885687 -1.46604,-36.380197 -0.28046,-4.43839 -0.57462,-9.200888 -0.65368,-10.583336 -0.20577,-3.59773 -0.35329,-5.889185 -0.5494,-8.533762 l -0.17175,-2.316054 -1.15925,0.04385 c -0.63759,0.0241 -1.15925,0.150635 -1.15925,0.281149 0,0.130516 -0.10558,0.172053 -0.23461,0.09231 -0.12903,-0.07975 -0.37153,0.02 -0.53889,0.221654 -0.44398,0.534959 -2.13692,0.0081 -2.13692,-0.664998 0,-0.125251 0.56555,-0.530267 1.25677,-0.900036 2.191,-1.172072 3.0914,-1.743739 3.73473,-2.371195 l 0.62587,-0.610436 -0.78358,-0.819949 c -0.43098,-0.450972 -0.84165,-0.761889 -0.91261,-0.690931 -0.15846,0.158462 -3.40728,-0.885372 -3.82804,-1.229936 -0.16705,-0.136801 -0.52424,-0.296733 -0.79375,-0.355407 -0.26951,-0.05867 -1.45925,-0.306631 -2.64387,-0.551021 l -2.15387,-0.444347 -2.74093,1.377577 c -3.30024,1.658683 -7.53655,4.124941 -8.38183,4.879662 -0.54378,0.485519 -0.60416,0.744612 -0.52917,2.270488 0.0466,0.947335 0.15128,1.781961 0.23272,1.854721 0.0814,0.07276 0.4234,1.680104 0.75993,3.571875 0.79931,4.493252 0.74209,4.186869 1.22422,6.554887 0.23034,1.131335 0.45416,2.321965 0.49737,2.645835 0.0432,0.32388 0.14681,0.76746 0.23022,0.98574 0.15002,0.39259 0.74743,3.20214 0.8439,3.96875 0.0275,0.21828 0.19559,0.91537 0.3736,1.54909 0.17801,0.63371 0.26137,1.31451 0.18525,1.51288 -0.0761,0.19837 -0.038,0.4227 0.0846,0.49851 0.12267,0.0758 0.30381,0.58564 0.40254,1.13295 0.0987,0.54731 0.59521,2.72152 1.1033,4.83157 0.50809,2.11005 0.95605,4.07458 0.99548,4.36562 0.0394,0.29105 0.1441,0.70777 0.23263,0.92605 0.0885,0.21828 0.35616,1.647027 0.59475,3.174997 0.23859,1.52796 0.59618,3.25437 0.79465,3.83645 0.19847,0.58209 0.44707,1.65365 0.55246,2.38125 0.10539,0.72761 0.22935,1.44198 0.27547,1.5875 0.0461,0.14552 0.32369,1.50646 0.61683,3.02432 0.49845,2.58094 1.40632,4.66358 1.89998,4.35847 0.10491,-0.0648 0.28736,0.0338 0.40544,0.21918 0.47778,0.75009 3.61113,2.62687 8.54908,5.12062 1.23692,0.62468 2.39879,1.38115 2.58192,1.68106 0.18314,0.29992 0.39852,0.5453 0.47864,0.5453 0.0801,0 0.0771,-0.11096 -0.007,-0.24656 z m -6.36113,-2.92843 c -0.0899,-0.14552 -0.28258,-0.26458 -0.4281,-0.26458 -0.14552,0 -0.191,0.11906 -0.10106,0.26458 0.0899,0.14552 0.28258,0.26459 0.4281,0.26459 0.14552,0 0.191,-0.11907 0.10106,-0.26459 z m 13.45667,-1.26292 c 0.0695,-0.11252 0.21003,-15.62041 0.3122,-34.461967 l 0.18576,-34.257396 0.66071,-1.414505 c 0.60531,-1.295903 0.72464,-1.405123 1.42321,-1.302597 0.91454,0.134229 0.97921,0.01021 0.16718,-0.320622 l -0.59531,-0.242549 0.57701,-0.171873 c 0.31736,-0.09453 0.63602,-0.325644 0.70814,-0.513588 0.13052,-0.340143 1.61901,-1.193641 2.08169,-1.193641 0.13356,0 0.41732,-0.174485 0.63057,-0.387744 0.31443,-0.314428 0.38178,-1.289556 0.3562,-5.157219 -0.0175,-2.651508 -0.14191,-4.837691 -0.28009,-4.923086 -0.1367,-0.08449 -0.84306,0.212201 -1.56969,0.659302 -0.72664,0.447104 -1.36068,0.812914 -1.40899,0.812914 -0.0483,0 -0.34805,-0.225687 -0.66609,-0.501523 l -0.57827,-0.501526 1.62392,-1.084408 c 0.89315,-0.596423 1.74591,-1.009009 1.89502,-0.916855 0.15151,0.09364 0.21504,0.0054 0.144,-0.200004 -0.0699,-0.202157 0.0974,-0.656799 0.3718,-1.010316 0.68882,-0.887426 0.4538,-1.054786 -3.48834,-2.484102 -6.01951,-2.18251 -6.10221,-2.199677 -7.45123,-1.546624 -1.04063,0.503759 -5.47287,3.975912 -8.29148,6.495428 -0.58209,0.520316 -1.24009,0.948311 -1.46224,0.951105 -0.34433,0.0043 -0.37651,0.327081 -0.21816,2.187887 0.10217,1.200547 0.3092,2.837657 0.46008,3.638021 0.15087,0.800365 0.33405,1.99099 0.40705,2.645833 0.073,0.654844 0.43307,2.775535 0.80014,4.712647 0.60718,3.204205 1.15156,4.776348 1.52469,4.403217 0.0777,-0.07766 1.06136,0.224343 2.18602,0.671102 4.13651,1.6432 4.28436,1.934282 4.47804,8.816187 0.0811,2.882934 0.20103,5.328284 0.26643,5.434112 0.0654,0.105831 0.14698,2.221759 0.18126,4.702064 0.0343,2.480305 0.15534,5.273699 0.26902,6.207549 0.11367,0.93385 0.22558,2.82901 0.24869,4.21145 0.0231,1.38245 0.14226,3.28745 0.2648,4.23334 0.12253,0.94588 0.24765,3.98198 0.27802,6.74687 0.0304,2.7649 0.14867,5.979577 0.26287,7.143747 0.11421,1.16417 0.28173,5.50735 0.37227,9.65152 0.0905,4.14418 0.22537,7.59699 0.29962,7.67292 0.18131,0.18542 1.73704,0.75416 2.13193,0.77939 0.17331,0.0111 0.37201,-0.0719 0.44155,-0.18446 z m 64.941444,-8.75335 c 1.45944,-1.69569 1.57298,-1.92467 1.7383,-3.50573 0.0973,-0.93035 0.31001,-2.55776 0.47272,-3.61648 0.16272,-1.05872 0.22182,-1.99896 0.13136,-2.08943 -0.0905,-0.0905 -0.76201,0.11919 -1.4923,0.46591 -1.49466,0.70961 -1.32529,0.23584 -1.97794,5.53284 -0.22413,1.81901 -0.47447,3.69424 -0.55633,4.16718 -0.0819,0.47295 -0.0877,0.8599 -0.013,0.8599 0.0747,0 0.83843,-0.81639 1.69722,-1.81419 z m -89.880984,-1.05852 c -0.28897,-0.72491 -0.82281,-2.913 -0.95764,-3.9252 -0.0425,-0.3191 -0.14244,-0.68563 -0.22209,-0.81451 -0.0797,-0.12887 -0.22578,-0.99345 -0.32474,-1.92129 -0.0989,-0.92783 -0.34267,-1.84973 -0.54159,-2.04865 -0.19893,-0.19893 -0.36169,-0.55293 -0.36169,-0.78668 0,-0.76727 -0.89704,-4.299707 -1.09188,-4.299707 -0.31091,0 -7.1102,3.426357 -7.1102,3.583037 0,0.20322 2.2088,3.14579 2.43899,3.24923 0.10452,0.047 0.62708,0.68077 1.16125,1.40846 1.27729,1.74001 2.43286,3.03893 4.99871,5.61879 2.06327,2.07453 2.11885,2.1094 2.20314,1.38195 0.0476,-0.41045 -0.039,-1.06089 -0.19226,-1.44543 z m 98.101554,-8.76896 c 0.42294,-0.8227 2.65581,-4.499627 4.60497,-7.583147 1.44923,-2.29265 3.09894,-3.42319 4.58766,-3.1439 0.52896,0.0992 0.8939,0.32483 0.8939,0.55258 0,0.21169 0.0893,0.37079 0.19844,0.35356 0.10914,-0.0172 0.28773,-0.002 0.39687,0.0331 0.10914,0.0354 0.34727,0.0822 0.52917,0.10386 0.1819,0.0217 0.31673,0.22967 0.29963,0.46216 -0.0222,0.30247 0.12826,0.38361 0.52917,0.28528 0.30814,-0.0756 0.47497,-0.0445 0.37072,0.0691 -0.10425,0.11361 0.28236,0.5484 0.85912,0.9662 l 1.04867,0.75965 1.0591,-1.09134 c 0.58251,-0.60023 1.05911,-1.1963 1.05911,-1.32459 0,-0.36735 1.91388,-2.07721 2.15694,-1.927 0.12004,0.0742 0.15604,-0.0272 0.08,-0.22536 -0.12977,-0.33817 0.87513,-1.0986 3.26101,-2.46768 0.59832,-0.34333 0.93951,-0.78686 1.09883,-1.42844 0.73514,-2.96033 0.88609,-3.68902 0.98751,-4.76695 0.0616,-0.65485 0.2464,-1.78594 0.41066,-2.51354 0.16425,-0.72761 0.32105,-1.501515 0.34844,-1.719796 0.0274,-0.218281 0.12121,-0.575469 0.20849,-0.79375 0.17725,-0.443267 1.17377,-5.611008 1.33952,-6.946397 0.0586,-0.472345 0.2561,-1.394592 0.43885,-2.049436 0.19309,-0.691933 0.30333,-2.298829 0.26317,-3.836458 -0.038,-1.455208 -0.0798,-3.091905 -0.0929,-3.637102 -0.0238,-0.99 -0.24533,-1.197404 -1.47129,-1.377236 -0.61663,-0.09045 -0.58842,-1.435515 0.0371,-1.770301 0.50471,-0.270113 0.48291,-1.185232 -0.059,-2.475777 -0.78762,-1.875732 -1.12072,-2.513542 -1.31269,-2.513542 -0.11988,0 -1.98953,-0.189132 -4.15478,-0.420293 -4.84018,-0.516736 -6.32861,-0.401116 -7.83506,0.608626 -0.62086,0.416148 -1.32496,0.871437 -1.56468,1.011754 -0.23972,0.140316 -1.39672,0.94521 -2.57111,1.788652 -1.17439,0.843441 -2.22389,1.557816 -2.33222,1.5875 -0.51196,0.140282 -1.68373,1.472125 -2.02614,2.302928 -0.20991,0.509323 -0.46459,1.757743 -0.56595,2.774267 -0.10136,1.016526 -0.23721,1.933866 -0.3019,2.038538 -0.0647,0.104671 -0.16822,0.761248 -0.23006,1.459066 -0.0618,0.697814 -0.30711,2.459378 -0.54504,3.914586 -0.23793,1.455209 -0.4817,3.122084 -0.54171,3.704167 -0.06,0.582083 -0.22442,2.010833 -0.36537,3.175 -0.14094,1.164166 -0.31042,2.592914 -0.37662,3.175004 -0.2407,2.11642 -0.7316,5.54474 -0.81347,5.68107 -0.0462,0.0769 -0.16439,1.03273 -0.26273,2.12413 -0.0984,1.09141 -0.22245,2.28203 -0.27578,2.64584 -0.0533,0.3638 -0.28694,2.44739 -0.51912,4.6302 -0.23217,2.18282 -0.53693,4.98079 -0.67723,6.217707 -0.1403,1.23693 -0.25542,2.71158 -0.25583,3.277 l -7.9e-4,1.02804 0.80411,-0.89575 c 0.44226,-0.49266 1.01834,-1.31246 1.28019,-1.82179 z m -7.06718,-3.162727 c 1.70261,-0.76767 2.47803,-1.50796 2.08084,-1.98655 -0.17519,-0.21108 -0.25125,-0.49263 -0.16903,-0.62567 0.0822,-0.13304 0.21244,-0.94193 0.28937,-1.79753 0.30375,-3.37818 0.44085,-4.56716 0.81973,-7.10881 0.40133,-2.69238 0.53034,-3.80153 0.76971,-6.61766 0.0742,-0.87313 0.20996,-2.12329 0.30165,-2.77813 0.0917,-0.654843 0.19693,-1.428749 0.23385,-1.719791 0.0369,-0.291042 0.19949,-1.422135 0.36127,-2.513541 0.61121,-4.123383 1.14343,-7.864189 1.35517,-9.525 0.53888,-4.226801 1.49993,-7.956753 2.20473,-8.556865 0.31462,-0.267891 0.98853,-0.863203 1.49758,-1.322917 0.50904,-0.459713 0.95512,-0.776311 0.99127,-0.703551 0.0362,0.07276 0.41265,-0.19513 0.83665,-0.595312 0.42399,-0.400183 0.85776,-0.727604 0.96393,-0.727604 0.47918,0 0.89671,-1.038199 0.90445,-2.248959 0.005,-0.727604 0.19178,-2.275416 0.41585,-3.439583 0.51771,-2.689897 0.53784,-5.431522 0.0468,-6.368772 -0.20698,-0.395028 -0.45151,-0.596566 -0.54342,-0.447865 -0.10503,0.169944 -1.47081,-0.159972 -3.67698,-0.888201 -1.93043,-0.637212 -4.83419,-1.45632 -6.45278,-1.820235 -2.77356,-0.623592 -3.00954,-0.63822 -4.10104,-0.254217 -2.39791,0.84361 -8.12816,3.808243 -8.26854,4.277849 -0.078,0.260898 -0.16663,1.350859 -0.19699,2.422141 l -0.0552,1.947783 1.82921,0.926523 c 1.00607,0.509591 2.06734,1.02371 2.35838,1.14249 0.29104,0.118779 2.05417,0.93881 3.91807,1.822288 2.36498,1.120989 3.33144,1.706176 3.19872,1.936811 -0.10459,0.181769 -0.0959,0.24538 0.0193,0.141359 0.3621,-0.32689 1.13108,0.277741 1.15525,0.908344 0.0315,0.821618 0.15006,1.333222 0.40279,1.737891 0.11694,0.187241 0.12404,0.842084 0.0158,1.455209 -0.10826,0.613121 -0.22922,1.710081 -0.2688,2.437685 -0.14336,2.635022 -0.39767,5.567711 -0.52772,6.085416 -0.0731,0.291042 -0.1886,1.243542 -0.25667,2.116667 -0.068,0.873125 -0.23684,2.004219 -0.37508,2.513541 -0.26567,0.978797 -0.46658,2.994375 -0.64617,6.482292 -0.0599,1.164166 -0.29408,3.254824 -0.52031,4.645894 -0.50476,3.10375 -0.68668,4.60084 -0.85007,6.99577 -0.0695,1.01865 -0.18948,2.09021 -0.26664,2.38125 -0.0772,0.29104 -0.19178,1.12448 -0.25473,1.85209 -0.10016,1.15787 -0.29649,2.94607 -0.79159,7.20989 -0.0718,0.61846 -0.0776,1.12448 -0.0128,1.12448 0.0648,0 0.63367,-0.2326 1.2642,-0.5169 z m 21.50803,-3.16898 c 0.0837,-0.13547 0.0312,-0.32109 -0.11667,-0.41249 -0.1479,-0.0914 -0.2689,0.0194 -0.2689,0.2463 0,0.46474 0.15876,0.53317 0.38557,0.16619 z M 26.819116,85.822993 c -0.10127,-0.85886 -0.26422,-1.69116 -0.36212,-1.84956 -0.0979,-0.1584 -0.24088,-0.85491 -0.31776,-1.5478 -0.0769,-0.69289 -0.25852,-1.67652 -0.40365,-2.18585 -0.14514,-0.50932 -0.31986,-1.51002 -0.38828,-2.22378 -0.0684,-0.713763 -0.24362,-1.520528 -0.38934,-1.792813 -0.14572,-0.272288 -0.31689,-0.878927 -0.38038,-1.348089 -0.19033,-1.406647 -0.3354,-1.980605 -0.6485,-2.565638 -0.16376,-0.30598 -0.22677,-0.779939 -0.14003,-1.053238 0.0867,-0.273296 0.0418,-0.568526 -0.0998,-0.65606 -0.14164,-0.08754 -0.25336,-0.484508 -0.24827,-0.882164 0.0103,-0.803626 -0.20223,-2.083038 -0.58713,-3.534835 -0.28053,-1.058109 -0.41516,-4.065167 -0.2148,-4.797618 0.24835,-0.90791 0.66988,-1.071084 1.1172,-0.432456 0.43361,0.619066 0.92774,0.547536 0.52798,-0.07643 -0.43361,-0.676783 -0.28339,-1.538956 0.26813,-1.538956 0.28567,0 0.44571,-0.07371 0.35562,-0.163791 -0.22599,-0.225988 0.22897,-0.621982 1.92768,-1.677865 0.80036,-0.497488 1.49324,-0.929902 1.53973,-0.960922 0.19789,-0.132038 -0.58002,-3.447063 -0.88606,-3.77589 -0.27969,-0.300527 -0.53703,-0.175228 -1.5413,0.750478 -0.73762,0.679907 -1.33026,1.034161 -1.52684,0.912667 -0.22144,-0.136856 -0.26878,-0.06174 -0.15234,0.241712 0.16266,0.423868 0.065,0.485127 -0.87241,0.547084 -0.21808,0.01442 -0.39668,0.211482 -0.39688,0.437926 -5.2e-4,0.573079 -1.89321,2.188892 -2.28231,1.948415 -0.20612,-0.127384 -0.24298,-0.0798 -0.10772,0.139054 0.13453,0.217681 -0.43572,0.98651 -1.64935,2.223694 -2.46757,2.515467 -2.56173,2.724954 -2.0367,4.531013 0.23249,0.799729 0.34816,1.574681 0.25704,1.722114 -0.0911,0.147434 -0.0344,0.26806 0.12612,0.26806 0.16049,0 0.2678,0.148828 0.23847,0.330729 -0.0293,0.181901 0.0191,0.509323 0.10769,0.727605 0.37849,0.932886 1.76472,6.83693 1.83261,7.805207 0.0408,0.582084 0.1555,1.119945 0.25486,1.195245 0.30459,0.230852 2.12156,7.174072 1.92802,7.367612 -0.0553,0.0553 0.19377,0.68136 0.55349,1.39124 0.41424,0.81746 0.82703,1.29069 1.12584,1.29069 0.25948,0 0.5849,0.10899 0.72314,0.24218 0.24236,0.23351 0.81437,0.35794 2.25338,0.49018 0.67775,0.0623 0.67874,0.0593 0.49498,-1.49915 z m 132.310074,-1.31376 c 0.001,-0.52918 0.0755,-2.68856 0.16545,-4.79861 0.18219,-4.272796 -0.17282,-4.861184 -0.66605,-1.10389 -0.15908,1.21187 -0.3742,2.34087 -0.47804,2.50889 -0.10384,0.16801 -0.21588,0.48617 -0.24896,0.70701 -0.12579,0.83954 -0.38188,2.27727 -0.50962,2.86109 -0.18684,0.85391 0.006,1.04152 0.92995,0.90588 0.72771,-0.10681 0.80558,-0.21102 0.80727,-1.08037 z M 38.543466,52.349477 c 1.47628,0.01672 2.05052,-0.06938 2.05052,-0.307454 0,-0.181877 -0.17936,-1.263893 -0.39859,-2.40448 -0.80695,-4.198427 -1.44265,-8.781258 -1.59054,-11.466504 -0.0383,-0.69564 0.12799,-1.630611 0.40004,-2.248958 0.57774,-1.31317 2.46811,-3.184763 2.92901,-2.899913 0.21898,0.13534 0.26243,0.09529 0.12968,-0.11952 -0.11219,-0.181531 -0.0266,-0.460248 0.19529,-0.636191 0.21723,-0.17222 1.80673,-1.449202 3.53222,-2.83774 4.63364,-3.728773 6.22418,-4.751427 7.38992,-4.751427 1.64207,0 11.96702,3.799162 12.92378,4.755427 0.51677,0.516504 0.5648,0.977278 0.78067,7.488616 0.12652,3.816035 0.27665,6.989166 0.33364,7.051399 0.057,0.06223 1.08457,-0.276 2.28352,-0.751628 1.19895,-0.475631 2.43128,-0.962954 2.73851,-1.082942 0.63815,-0.249227 0.87126,-1.674993 0.90816,-5.554623 0.0118,-1.236927 0.12797,-3.677708 0.25822,-5.423958 0.13026,-1.74625 0.30838,-4.66181 0.39583,-6.479021 0.22587,-4.693571 0.79945,-5.779365 3.70002,-7.004243 3.63783,-1.536221 9.58511,-3.582059 10.40814,-3.580363 0.53292,0.0011 1.74284,0.128577 2.68873,0.283282 2.69242,0.440359 2.87792,0.46832 5.82083,0.87743 4.073644,0.566295 7.570304,1.387578 8.821674,2.071999 1.32711,0.72585 1.93015,1.85674 2.15503,4.041333 0.0899,0.873125 0.21019,1.944688 0.26736,2.38125 0.0572,0.436562 0.23369,2.282031 0.39226,4.101041 0.15856,1.819011 0.40021,4.497917 0.53698,5.953125 0.13678,1.455208 0.3141,4.312708 0.39404,6.35 0.19611,4.997783 0.34793,6.001226 0.89229,5.897329 0.36659,-0.06997 0.45077,-0.644107 0.56329,-3.841956 l 0.13229,-3.759697 0.92604,-0.781555 c 1.42745,-1.204728 10.50136,-5.319329 11.73069,-5.319329 0.55739,0 1.98577,0.249857 3.17419,0.555239 1.18841,0.305382 2.4584,0.610412 2.82221,0.677846 1.32285,0.245208 6.94911,1.952808 8.6778,2.63376 1.84913,0.728398 2.96386,1.531761 2.96386,2.13599 0,0.194889 0.1367,0.573225 0.30376,0.840747 0.23361,0.374066 0.17559,1.516973 -0.25123,4.948648 -0.30525,2.454235 -0.52831,4.488928 -0.4957,4.521541 0.0326,0.03261 0.82539,-0.320411 1.76172,-0.7845 1.88701,-0.935292 1.9632,-0.941078 7.74343,-0.588127 2.00091,0.122177 3.63802,0.152168 3.63802,0.06664 0,-0.413446 -1.58251,-3.969837 -2.49857,-5.615077 -1.14496,-2.056334 -4.00642,-6.586077 -4.67988,-7.408333 -4.01708,-4.90465 -6.43287,-7.320047 -11.79985,-11.797911 -0.32437,-0.270634 -1.54278,-1.104902 -2.70758,-1.853935 -1.16717,-0.750554 -2.04206,-1.484455 -1.94905,-1.634956 0.0943,-0.152595 0.0406,-0.193886 -0.12166,-0.09358 -0.15974,0.09873 -0.92228,-0.224441 -1.69453,-0.718148 -0.77225,-0.493707 -2.83284,-1.613072 -4.57909,-2.487478 -5.30951,-2.658657 -9.17339,-4.125637 -14.88916,-5.652899 -3.33866,-0.8920984 -3.47677,-0.9227744 -5.88063,-1.3061664 -0.94588,-0.15086 -2.01744,-0.328345 -2.38125,-0.394412 -1.356314,-0.246308 -10.434994,-0.915717 -12.419154,-0.915717 -1.77556,0 -8.31528,0.556556 -10.73189,0.913326 -4.65082,0.686614 -10.92371,2.4098884 -16.06358,4.4129564 -4.95236,1.929992 -13.57206,7.031087 -16.23807,9.609608 -0.15789,0.152707 -1.04211,0.932494 -1.96493,1.732859 -2.40492,2.0858 -6.33074,6.764922 -8.76849,10.451041 -2.04007,3.084788 -5.49285,9.687888 -6.5371,12.501562 l -0.51553,1.389062 h 0.65344 c 0.35938,0 0.91349,0.137174 1.23135,0.30483 0.82587,0.435615 1.80445,1.539673 1.62379,1.831993 -0.0844,0.136491 0.0271,0.317402 0.24757,0.402024 0.35323,0.135543 0.5734,0.955503 0.84574,3.149695 0.0361,0.291042 0.0756,0.542009 0.0877,0.55771 0.0121,0.01569 1.06384,-0.520084 2.33715,-1.190625 2.19746,-1.157219 2.41929,-1.217988 4.36562,-1.195938 z m 61.18489,-2.793227 c 0.436574,-0.121402 1.984384,-0.626848 3.439594,-1.123217 l 2.64583,-0.902489 -0.0758,-1.967772 c -0.0766,-1.987632 -0.45985,-7.554298 -0.75482,-10.963608 -0.0881,-1.018646 -0.19075,-2.387864 -0.22804,-3.042708 -0.0373,-0.654844 -0.13237,-1.369219 -0.21128,-1.5875 -0.0789,-0.218281 -0.22083,-1.465884 -0.31536,-2.772452 -0.30743,-4.249174 -0.38743,-4.357174 -2.32253,-3.135598 -0.61557,0.388593 -1.1394,0.656484 -1.16405,0.595312 -0.0247,-0.06117 -0.32232,0.139409 -0.66146,0.445736 -0.339154,0.306326 -1.152414,0.870746 -1.807254,1.254268 -0.65485,0.383521 -1.07857,0.698439 -0.94162,0.699815 0.13695,0.0013 0.0282,0.16393 -0.24159,0.361233 -0.43095,0.315124 -0.48464,0.704828 -0.44162,3.205966 0.0269,1.565979 0.15825,3.339317 0.29181,3.940749 0.13357,0.601432 0.24492,2.996245 0.24745,5.321811 0.004,3.749262 0.21463,8.274184 0.43727,9.397742 0.0433,0.218282 0.0877,0.500058 0.0989,0.626171 0.0111,0.126114 0.28813,0.147841 0.61555,0.04828 0.32742,-0.09956 0.9525,-0.280342 1.38906,-0.401743 z m 7.540634,-2.241471 c 0,-0.06417 -0.11906,-0.190262 -0.26458,-0.280199 -0.14552,-0.08994 -0.26459,-0.03743 -0.26459,0.116676 0,0.154109 0.11907,0.280199 0.26459,0.280199 0.14552,0 0.26458,-0.0525 0.26458,-0.116676 z"
       id="path5915" /></g></svg>
