<?xml version="1.0" encoding="UTF-8" standalone="no"?>
<!-- Created with Inkscape (http://www.inkscape.org/) -->

<svg
   width="173.72653mm"
   height="193.72113mm"
   viewBox="0 0 173.72651 193.72105"
   version="1.1"
   id="svg5"
   xml:space="preserve"
   xmlns="http://www.w3.org/2000/svg"
   xmlns:svg="http://www.w3.org/2000/svg"><defs
     id="defs2" /><g
     id="layer1"
     transform="translate(6.778448,18.923231)"><path
       style="fill:#000000;stroke-width:0.264583"
       d="m 115.06048,174.0503 c -7.89789,-2.55562 -20.736111,-4.85824 -30.030211,-5.38611 -7.2963,-0.4144 -10.04886,-0.44292 -16.00729,-0.16586 -5.99039,0.27856 -9.60152,0.53995 -13.16302,0.95281 -0.78245,0.0907 -1.25677,0.0425 -1.25677,-0.1277 0,-0.15037 0.48767,-0.7759 1.0837,-1.39007 0.59604,-0.61417 1.26055,-1.55868 1.47671,-2.09891 0.2355,-0.58856 0.56997,-0.98043 0.83453,-0.97774 0.24284,0.002 2.34652,-0.18479 4.67485,-0.41614 5.74387,-0.57072 19.57505,-0.58135 25.73081,-0.0198 4.39048,0.40053 13.252751,1.58754 13.469281,1.80407 0.0589,0.0589 0.15385,0.34972 0.21095,0.64622 0.1802,0.93568 0.92561,2.15808 1.57575,2.58407 1.77204,1.16108 5.2117,0.81865 6.62821,-0.65987 0.53882,-0.5624 0.85152,-0.70669 1.16679,-0.53837 0.53044,0.28319 4.54611,1.32168 5.1107,1.32168 0.25907,0 0.52264,-0.415 0.71416,-1.12448 0.34529,-1.27915 1.83518,-8.65326 2.15165,-10.64948 0.23737,-1.49729 3.2061,-16.48325 3.82623,-19.31458 0.22311,-1.01865 0.87111,-4.1738 1.44,-7.01146 1.09791,-5.47645 2.64353,-12.93746 3.31605,-16.00729 0.22316,-1.01864 0.70996,-3.34036 1.08178,-5.15937 0.37182,-1.81901 0.9109,-4.37886 1.19797,-5.68854 0.28706,-1.30969 0.7018,-3.21469 0.92163,-4.23334 0.21983,-1.018639 0.5817,-2.685519 0.80415,-3.704163 1.18308,-5.417457 1.40395,-6.952395 1.06136,-7.375749 -0.16108,-0.199068 -0.82867,-0.492422 -1.48351,-0.651899 -0.65485,-0.159481 -3.42789,-1.00811 -6.16233,-1.885844 -2.73444,-0.877748 -5.06999,-1.595896 -5.19012,-1.595896 -0.12013,0 -0.59413,1.185204 -1.05334,2.633785 -0.45921,1.448583 -0.95319,2.70688 -1.09774,2.796219 -0.14455,0.08934 -0.42113,0.541242 -0.61462,1.004234 -0.46729,1.118169 -2.8481,3.696674 -4.62587,5.009989 -5.51382,4.073304 -15.688601,6.023494 -31.377951,6.014174 -3.79266,-0.002 -8.68168,-0.12311 -10.86449,-0.26858 -4.23769,-0.28242 -12.36656,-1.51115 -15.80476,-2.388999 -4.44203,-1.13415 -9.46294,-3.25245 -9.46294,-3.992365 0,-0.154956 -0.16811,-0.217231 -0.37357,-0.138388 -0.51193,0.196448 -4.30507,-2.632707 -5.46218,-4.07403 -0.91913,-1.144892 -2.63092,-3.814577 -2.63092,-4.103142 0,-0.120373 -1.56454,-3.519506 -1.73008,-3.758806 -0.0286,-0.04141 -1.6454,0.399976 -3.59277,0.98085 -1.94738,0.580874 -4.90991,1.40689 -6.5834,1.835589 -1.67349,0.428702 -3.04036,0.880287 -3.0375,1.003525 0.0144,0.619194 1.01499,4.787844 3.92775,16.363656 0.36617,1.4552 0.96511,3.89599 1.33097,5.42395 0.36587,1.52797 1.5582,6.40953 2.64963,10.84792 1.09143,4.43839 2.03935,8.36745 2.10648,8.73125 0.0671,0.3638 0.66999,2.92365 1.33969,5.68854 1.50615,6.21822 1.45623,6.00621 2.92773,12.43542 0.66612,2.91041 1.37963,6.00604 1.58557,6.87916 1.44168,6.11226 2.51551,11.02393 2.51551,11.50581 0,1.49834 0.71543,1.8383 2.74743,1.30554 2.20704,-0.57866 2.96311,-0.75278 3.92281,-0.90338 0.93452,-0.14665 1.00763,-0.10322 1.52135,0.90376 0.29682,0.5818 0.53966,1.53403 0.53966,2.11607 0,0.99825 -0.0563,1.07364 -0.99219,1.32957 -2.51272,0.68712 -6.79825,1.60201 -7.50415,1.60201 -1.09303,0 -2.33905,-0.5863 -3.31619,-1.5604 -0.92837,-0.92548 -0.89954,-0.83737 -1.95735,-5.98023 -0.41904,-2.03729 -1.307,-6.08541 -1.97324,-8.99583 -0.66624,-2.91042 -1.68406,-7.4055 -2.26183,-9.98907 -0.57777,-2.58358 -1.63658,-7.10795 -2.35292,-10.05417 -0.71634,-2.94622 -1.55725,-6.42832 -1.8687,-7.73801 -2.57385,-10.82358 -5.55934,-23.00694 -7.65053,-31.220829 -1.1485,-4.511146 -2.16827,-8.589036 -2.26615,-9.061979 -0.22158,-1.070689 0.0229,-2.244625 0.60794,-2.918677 0.66029,-0.760807 2.21343,-1.643266 2.89417,-1.644396 0.43001,-7.94e-4 0.59531,-0.156879 0.59531,-0.562398 0,-0.867098 -4.99562,-10.250138 -8.85743,-16.636507 -0.83596,-1.382448 -1.7151,-2.846086 -1.95365,-3.252526 C 7.6674595,58.046719 1.5668595,49.393027 -3.7445605,42.578575 c -1.19096,-1.527969 -2.36117,-3.159165 -2.60047,-3.624882 -0.65978,-1.283996 -0.55831,-3.20694 0.24992,-4.736232 0.91948,-1.73978 4.49864,-6.819113 6.90759997,-9.802857 C 5.3074095,18.8472 7.9038695,17.009687 10.963199,17.230979 c 2.43898,0.176422 3.38957,1.112359 6.58824,6.486652 0.93413,1.569508 1.72012,2.888115 1.74664,2.930234 0.14473,0.229915 9.34256,-7.405714 9.25463,-7.68278 -0.0578,-0.182216 -0.78738,-2.474426 -1.62123,-5.0938 -2.09735,-6.5884398 -2.0596,-7.3910665 0.47918,-10.1881541 0.33105,-0.3647334 1.67181,-1.9125458 2.97946,-3.43958325 3.49826,-4.08515845 6.16151,-6.78875285 7.14909,-7.25738805 1.5384,-0.7300251 2.74549,-0.5038752 9.58497,1.795764 7.49812,2.5210927 8.34309,2.8784813 8.93256,3.7781228 0.3995,0.60972425 1.03345,3.2565577 2.26922,9.4744087 0.28747,1.446408 0.56367,2.6708389 0.61379,2.7209559 0.10721,0.107207 2.1492,-1.5311359 3.92764,-3.1512479 l 1.25274,-1.1412113 -1.18659,-5.3782752 c -1.3458,-6.0998388 -1.4231,-7.0819906 -0.63616,-8.0824198 0.47287,-0.6011545 2.82707,-2.7087881 10.38069,-9.2934708 2.2201,-1.935321 3.94076,-2.761432 5.44807,-2.615681 1.857,0.179562 14.75485,4.717938 17.01486,5.987034 1.76498,0.99111 1.87842,1.523383 2.10101,9.8578132 0.10882,4.0745832 0.32276,10.8016139 0.47542,14.9489578 0.15267,4.147343 0.27754,8.353027 0.2775,9.345961 -6e-5,1.359884 0.0859,1.784231 0.34826,1.719792 0.19158,-0.04705 2.096581,-1.093679 4.233331,-2.325844 l 3.885,-2.240298 0.0606,-5.168035 c 0.0333,-2.842418 0.0279,-6.383792 -0.0121,-7.8697158 -0.0889,-3.3021718 0.14234,-3.8389478 2.19881,-5.10352655 0.82827,-0.5093229 1.89134,-1.1765861 2.36238,-1.48280425 0.47104,-0.3062208 1.55826,-0.9419299 2.41604,-1.4126897 1.59256,-0.8740087 2.44895,-1.3549232 5.93884,-3.335041 4.04675,-2.2960726 4.70274,-2.1126528 10.45487,2.9232435 5.6061,4.9080497 7.63718,6.9065507 8.11349,7.9833308 0.47244,1.068017 0.48437,1.540277 0.23093,9.13915 -0.14698,4.407114 -0.39797,11.116986 -0.55774,14.910825 -0.4079,9.686028 -0.48969,9.415375 1.63331,5.405234 6.76898,-12.785949 7.83894,-14.118626 11.34597,-14.131877 2.91764,-0.01103 4.39003,1.23576 8.96784,7.593764 5.0946,7.075757 7.60881,11.500482 7.30939,12.863702 -0.0924,0.420495 -1.32197,2.608432 -2.73247,4.862084 -5.31913,8.498699 -7.0743,11.621809 -11.03551,19.636284 -3.81097,7.710511 -7.75198,17.18035 -7.46313,17.933095 0.0756,0.196884 0.83413,0.519014 1.68573,0.71584 2.05572,0.475134 3.34888,1.139397 3.92254,2.014906 0.65417,0.998397 0.46679,2.408467 -1.31684,9.909203 -0.8114,3.412218 -1.58211,6.739817 -1.7127,7.394657 -0.13058,0.65485 -0.59512,2.67891 -1.03229,4.49792 -0.43717,1.81901 -1.16065,4.91464 -1.60774,6.87917 -0.44708,1.96453 -0.98362,4.22672 -1.19231,5.02708 -0.20869,0.80036 -0.98555,4.13411 -1.72637,7.40833 -0.74082,3.27422 -1.81417,7.97719 -2.38522,10.45104 -1.29988,5.63117 -4.89313,21.912 -5.57671,25.26771 -0.65734,3.22698 -0.87085,3.71905 -1.90461,4.38952 -1.31322,0.85173 -8.78254,5.16879 -11.3306,6.54878 -2.68413,1.45368 -3.14665,1.48324 -6.45546,0.41256 z m 7.27604,-5.93505 c 0.80037,-0.50248 1.93146,-1.15324 2.51354,-1.44613 0.58209,-0.2929 1.89177,-1.04009 2.91042,-1.66043 2.08282,-1.2684 2.5842,-2.02241 3.03101,-4.55821 0.15384,-0.87312 0.45908,-2.42093 0.67829,-3.43958 0.21922,-1.01865 0.50959,-2.38786 0.64527,-3.04271 0.13568,-0.65484 0.54008,-2.50031 0.89867,-4.10104 0.35859,-1.60073 0.8451,-3.80338 1.08113,-4.89479 0.23604,-1.09141 0.77069,-3.41313 1.18811,-5.15938 0.41743,-1.74625 0.9615,-4.1275 1.20906,-5.29166 0.24755,-1.16417 0.54438,-2.41433 0.65961,-2.77813 0.11523,-0.3638 0.34687,-1.3163 0.51476,-2.11666 0.72275,-3.44542 3.33114,-14.68632 4.11347,-17.72709 0.3863,-1.50145 0.92057,-3.81254 1.46798,-6.35 0.17266,-0.80036 0.41309,-1.87192 0.53428,-2.38125 0.1212,-0.50932 0.45372,-1.9976 0.73894,-3.307289 0.28522,-1.30968 0.88725,-3.837837 1.33786,-5.618109 0.8316,-3.285606 0.97812,-4.301855 0.62083,-4.306147 -0.10914,-0.0013 -2.3641,-0.06652 -5.01102,-0.144907 -5.40295,-0.160004 -5.13925,-0.250102 -5.46472,1.867083 -0.0895,0.582083 -0.29075,1.594114 -0.44727,2.248958 -0.15651,0.654844 -0.38269,1.666875 -0.50261,2.248958 -0.36271,1.760494 -1.83976,8.575743 -2.40838,11.112503 -0.89941,4.01243 -1.26366,5.70878 -1.84642,8.59895 -0.30809,1.52797 -0.8529,4.14735 -1.21069,5.82084 -0.35779,1.67349 -1.25076,5.95974 -1.98438,9.525 -0.73362,3.56526 -1.74541,8.44682 -2.24842,10.84791 -0.50301,2.4011 -1.20528,5.97297 -1.56059,7.9375 -0.35531,1.96453 -0.93899,5.00063 -1.29707,6.74688 -1.10767,5.4019 -2.27832,11.52953 -2.27832,11.92555 0,0.57965 0.52787,0.44084 2.11666,-0.55662 z M 89.660479,98.004041 c 1.30969,-0.0867 2.7496,-0.22012 3.19981,-0.29654 l 0.81856,-0.13894 0.17914,-5.336118 c 0.0985,-2.934867 0.29153,-7.895966 0.42889,-11.024663 0.57045,-12.99373 0.20001,-43.954243 -0.79303,-66.278122 -0.13594,-3.055937 -0.38497,-9.485312 -0.5534,-14.28749935 -0.16843,-4.80218725 -0.41937,-8.94968955 -0.55763,-9.21666995 -0.25914,-0.5003853 -1.04156,-0.8927941 -3.78067,-1.8961367 -0.87313,-0.319828 -3.40661,-1.254268 -5.62997,-2.076537 -2.22336,-0.822267 -4.34935,-1.495031 -4.72443,-1.495031 -0.72712,0 -1.6814,0.670013 -4.88348,3.428767 -1.1048,0.9518363 -3.09909,2.6633834 -4.43177,3.8034412 -1.69966,1.4539886 -2.42306,2.2475983 -2.42306,2.658221 0,0.6251866 0.75724,4.16111505 1.52722,7.1313645 l 0.46875,1.8082524 1.44941,0.518414 c 0.79718,0.2851255 2.10426,0.7448708 2.90462,1.0216514 0.80037,0.2767833 2.46724,0.8775197 3.70417,1.3349736 1.23692,0.457454 2.55,0.924293 2.91795,1.037421 1.62611,0.499959 2.84414,1.3378569 3.28,2.2563529 0.39991,0.842748 0.41943,1.336969 0.17558,4.444968 -0.88465,11.275414 -0.94957,13.359725 -0.94957,30.484295 0,17.913172 0.0699,19.928509 1.18799,34.26354 0.90757,11.635605 1.06091,13.884444 1.06501,15.619293 0.002,0.941004 0.0915,1.845972 0.19844,2.011032 0.25711,0.39696 1.06788,0.58414 2.04647,0.47244 0.43656,-0.0498 1.86531,-0.1615 3.175,-0.24817 z m -8.86954,-0.32595 c -0.003,-0.254661 -0.12307,-1.951302 -0.26614,-3.770312 -0.14307,-1.81901 -0.44049,-5.852713 -0.66091,-8.963784 -0.22043,-3.111068 -0.44771,-5.73242 -0.50506,-5.82522 -0.0574,-0.0928 -0.23935,-2.309881 -0.40443,-4.926843 -0.16508,-2.616962 -0.35168,-5.23436 -0.41466,-5.816443 -0.063,-0.582084 -0.25693,-6.773333 -0.43099,-13.758333 -0.2509,-10.068155 -0.2472,-14.728713 0.0179,-22.489582 0.18388,-5.384271 0.36885,-10.265833 0.41103,-10.847916 0.47916,-6.611596 0.4765,-7.399555 -0.0265,-7.816601 -0.2708,-0.224547 -0.96861,-0.565044 -1.55069,-0.756661 -0.58209,-0.191617 -2.62652,-0.930629 -4.54319,-1.642253 -1.91668,-0.711623 -3.76954,-1.2938599 -4.11748,-1.2938599 -0.67647,0 -8.54131,6.2483919 -9.68426,7.6938639 -0.72574,0.917826 -0.71069,1.079888 0.62449,6.725927 0.48179,2.037292 1.00206,4.35901 1.15616,5.159375 0.1541,0.800364 0.64518,3.181614 1.09129,5.291666 1.59661,7.551888 2.88479,14.284719 3.69541,19.314583 0.12898,0.800364 0.60322,3.657864 1.05385,6.349999 1.08324,6.471362 1.55595,9.430107 1.712,10.715625 0.0707,0.582083 0.24345,1.772708 0.38398,2.645833 0.14052,0.873125 0.38144,2.420937 0.53538,3.439583 0.15393,1.018646 0.40046,2.566458 0.54784,3.439583 0.2723,1.613287 1.76291,13.085921 2.04541,15.742708 0.0851,0.800364 0.28565,1.542682 0.44567,1.649592 0.16002,0.10692 2.22571,0.19621 4.59042,0.19844 3.92216,0.004 4.29895,-0.0366 4.29348,-0.45897 z m -13.1203,-0.547706 c 0.0738,-0.119335 -0.0912,-1.756444 -0.3666,-3.63802 -1.03371,-7.062862 -1.33297,-9.040884 -1.71845,-11.358544 -0.21783,-1.309687 -0.75694,-5.000624 -1.19801,-8.202083 -0.44108,-3.201458 -1.03311,-7.011458 -1.31562,-8.466666 -0.28252,-1.455208 -0.58551,-3.181614 -0.67331,-3.836458 -0.0878,-0.654844 -0.52465,-3.274219 -0.97076,-5.820833 -0.44612,-2.546615 -0.89889,-5.165989 -1.00617,-5.820833 -0.70726,-4.317259 -1.10492,-6.479638 -1.22831,-6.679295 -0.0781,-0.126365 -0.23349,-0.848109 -0.34531,-1.603875 -0.22564,-1.525106 -3.47734,-16.148779 -4.10023,-18.439746 -1.62195,-5.965462 -1.64847,-6.879507 -0.24359,-8.395398 0.4804,-0.518353 0.63008,-0.911735 0.52866,-1.389364 -0.49887,-2.349402 -0.71964,-3.4815959 -0.92958,-4.7673199 -0.25493,-1.5612005 -1.54498,-6.8134281 -1.75827,-7.1585506 -0.0709,-0.1147021 -0.93128,-0.467442 -1.91196,-0.78385985 -0.98068,-0.3164205 -2.73556,-0.9032504 -3.89973,-1.3040677 -1.16417,-0.4008173 -3.21477,-1.06554055 -4.5569,-1.47716605 -2.91512,-0.8940455 -2.13782,-1.3609901 -7.06034,4.2413527 -4.42521,5.0363647 -4.65463,5.3432575 -4.65463,6.2264155 0,0.60651 2.25152,7.8205299 2.5498,8.1697059 0.051,0.05974 0.30188,-0.0692 0.55743,-0.286539 0.80967,-0.688588 3.34057,-2.136031 4.13161,-2.362898 0.96055,-0.275481 2.27711,0.379 7.58297,3.769611 2.81692,1.800101 2.90428,2.002716 2.91003,6.749526 0.0103,8.488685 0.6431,17.20521 1.8795,25.888343 0.29009,2.037291 0.58174,4.120885 0.64812,4.630208 0.11115,0.852919 0.65493,3.535037 1.44834,7.14375 0.17597,0.800364 0.41069,1.990989 0.52159,2.645833 0.18185,1.073766 1.66324,7.945006 2.50985,11.641666 0.1833,0.800364 0.53828,2.407708 0.78885,3.571875 0.25056,1.164166 0.61883,2.831041 0.81837,3.704166 0.19954,0.873125 0.84599,3.968364 1.43655,6.878307 0.59056,2.909943 1.2347,5.451757 1.43142,5.648475 0.19672,0.19672 0.93699,0.402945 1.64505,0.45828 0.70807,0.05533 1.94223,0.205425 2.7426,0.333539 1.96502,0.314539 3.64389,0.354433 3.80703,0.09046 z m 33.179641,-0.466976 c 2.22419,-0.457377 6.89121,-2.095989 7.35805,-2.583447 0.16038,-0.16746 0.44143,-2.149943 0.62458,-4.405516 0.18314,-2.255573 0.50508,-5.351198 0.71543,-6.879166 0.21035,-1.527969 0.48733,-3.671094 0.61552,-4.7625 0.62129,-5.289846 4.04815,-22.641586 5.01634,-25.399999 0.12769,-0.363802 0.49346,-1.792552 0.8128,-3.175 0.81954,-3.547726 3.58181,-13.447844 4.52522,-16.218563 0.43595,-1.280366 0.75552,-2.636292 0.71016,-3.01317 -0.0659,-0.547783 -1.13817,-1.469448 -5.34536,-4.594738 -3.42656,-2.545408 -5.41139,-3.857853 -5.68854,-3.761476 -0.89392,0.310862 -9.36709,5.262206 -10.0831,5.892115 l -0.751881,0.661458 -0.13473,18.123958 c -0.13145,17.68454 -0.38729,27.805235 -1.07682,42.597914 -0.18654,4.001823 -0.28455,7.42487 -0.21782,7.606771 0.15642,0.426347 0.46072,0.41711 2.920151,-0.08864 z M 55.128309,94.102626 c 0.002,-0.256635 -0.10232,-0.673354 -0.23232,-0.926042 -0.13,-0.252687 -0.37395,-1.114274 -0.5421,-1.914638 -0.16816,-0.800365 -0.41509,-1.931458 -0.54873,-2.513542 -1.03345,-4.501033 -5.00892,-23.012581 -5.54005,-25.796873 -0.12491,-0.654844 -0.4216,-2.202657 -0.65931,-3.439584 -0.23771,-1.236927 -0.66645,-3.737239 -0.95278,-5.556249 -0.28632,-1.819011 -0.69462,-4.319323 -0.90733,-5.55625 -0.81402,-4.733565 -2.26949,-22.923301 -2.02296,-25.281873 0.0312,-0.298834 -0.15702,-0.732351 -0.41835,-0.963369 -0.76051,-0.672293 -5.17569,-3.123636 -5.62342,-3.122165 -0.35806,0.0011 -4.42534,2.484011 -4.7736,2.913999 -0.0728,0.08983 -1.62057,1.275495 -3.43958,2.634797 -5.00492,3.740057 -6.08542,4.707993 -6.08542,5.451446 0,0.570386 2.2256,6.728663 6.49447,17.97029 2.24525,5.912633 6.34797,17.260675 7.12639,19.711457 0.39287,1.236927 0.9373,2.844271 1.20983,3.571875 0.49999,1.334892 3.03978,9.539393 4.01331,12.964583 0.28953,1.018646 0.69244,2.379308 0.89537,3.023695 0.20293,0.644387 0.36896,1.365171 0.36896,1.601742 0,0.816735 2.14958,2.501914 5.42396,4.252167 1.05456,0.563689 3.84833,1.549032 5.55625,1.959647 0.33928,0.08157 0.65222,-0.387372 0.65741,-0.985113 z m 58.794531,-5.184933 c 0.2961,-0.675191 0.94165,-2.537309 1.43457,-4.138039 0.69967,-2.272164 1.076,-3.074529 1.71609,-3.658766 0.79233,-0.723196 0.90037,-0.745432 3.21409,-0.661458 l 2.39419,0.08689 0.50608,-1.719791 c 0.7143,-2.42742 6.75713,-20.681198 7.53265,-22.754166 0.35387,-0.945885 0.7486,-2.017448 0.87719,-2.38125 0.12858,-0.363802 0.42759,-1.193715 0.66447,-1.844251 0.34751,-0.954379 0.47627,-2.998174 0.66676,-10.583333 0.12985,-5.170297 0.30164,-10.472102 0.38174,-11.781789 0.0801,-1.309688 0.26777,-6.746126 0.41702,-12.080978 0.21835,-7.8047109 0.20471,-9.8560197 -0.0698,-10.4997165 -0.18764,-0.4399941 -1.06324,-1.3733965 -1.94578,-2.0742301 -0.88254,-0.7008336 -2.74857,-2.3263091 -4.14672,-3.6121708 -2.7611,-2.5393411 -4.11675,-3.6156132 -4.55267,-3.614449 -0.15363,5.292e-4 -2.06526,0.9942116 -4.24807,2.20845315 -2.18282,1.21423905 -4.56407,2.53860025 -5.29167,2.94302385 -2.69176,1.4961604 -2.53203,0.9941612 -2.50343,7.8678344 l 0.0251,6.034564 0.80771,0.417682 c 0.86916,0.449463 3.30025,2.1332 3.87233,2.681925 0.19229,0.184443 0.43163,0.335354 0.53187,0.335354 0.10023,0 0.47868,0.26789 0.84099,0.595312 0.36232,0.327422 1.16477,0.938927 1.78324,1.3589 0.61846,0.419973 1.12448,0.866458 1.12448,0.992188 0,0.125729 0.12793,0.228599 0.2843,0.228599 0.38091,0 3.88016,2.654128 4.87027,3.69402 1.00696,1.057587 0.98808,1.876269 -0.12835,5.566397 -0.46228,1.527968 -0.8728,2.956718 -0.91226,3.175 -0.0395,0.218281 -0.14138,0.575468 -0.2265,0.79375 -0.50496,1.294931 -2.94231,9.503089 -3.88902,13.096874 -0.61335,2.328333 -1.34574,5.06677 -1.62754,6.085416 -1.10198,3.983522 -2.94792,12.800279 -3.51759,16.801041 -0.23828,1.67349 -0.5394,3.459427 -0.66915,3.96875 -0.27681,1.086599 -1.23515,8.770662 -1.45386,11.657263 -0.21141,2.790166 0.24056,3.087942 1.23727,0.815151 z M 140.177,85.289922 c 0.22867,-0.228674 0.41577,-0.585388 0.41577,-0.792697 0,-0.47693 1.00114,-3.384587 1.48397,-4.30997 0.20067,-0.384595 0.36559,-0.884869 0.36648,-1.111718 8e-4,-0.226848 0.17644,-0.643567 0.3901,-0.926042 0.21365,-0.282474 0.39224,-0.658889 0.39687,-0.836477 0.005,-0.177591 0.30607,-0.973632 0.66987,-1.768986 0.3638,-0.79535 0.66146,-1.524973 0.66146,-1.621382 0,-0.09641 0.46292,-1.145834 1.02871,-2.332056 0.56579,-1.186225 1.1184,-2.454428 1.22802,-2.81823 0.24843,-0.824479 6.28546,-12.88515 7.35034,-14.684375 0.43063,-0.727604 1.10872,-1.918229 1.50687,-2.645833 0.39814,-0.727604 1.9883,-3.346979 3.53368,-5.820833 1.54539,-2.473854 2.81094,-4.718751 2.81233,-4.988658 0.003,-0.597659 -0.90249,-2.427541 -2.21044,-4.466505 -0.53545,-0.834715 -0.94905,-1.54909 -0.91911,-1.5875 0.0299,-0.03841 -0.27711,-0.427024 -0.68232,-0.863586 -0.40522,-0.436563 -0.9206,-1.150938 -1.14528,-1.5875 -0.22469,-0.436563 -0.63751,-1.091406 -0.91738,-1.455209 -0.27988,-0.363802 -1.15965,-1.554427 -1.95504,-2.645833 -1.38201,-1.896324 -2.62926,-2.910416 -3.57957,-2.910416 -0.24186,0 -0.79446,0.404005 -1.22801,0.897792 -0.90608,1.031967 -4.75423,8.063925 -6.70903,12.259804 -0.73019,1.567331 -1.60605,3.445007 -1.94634,4.172611 -2.25962,4.83149 -4.13059,9.555321 -7.8595,19.843749 -2.80422,7.737097 -4.42786,12.449476 -5.24181,15.213541 -0.3214,1.091406 -0.77446,2.551388 -1.0068,3.244403 -0.52965,1.579798 -0.35028,1.784289 2.13488,2.433838 0.98395,0.257175 1.85418,0.573061 1.93385,0.701966 0.0797,0.128908 0.4457,0.234376 0.81341,0.234376 0.36771,0 1.40248,0.178512 2.29949,0.396695 2.26642,0.551268 4.98444,1.122939 5.51463,1.15987 0.24427,0.01701 0.63122,-0.156162 0.8599,-0.384839 z M 29.183299,81.04233 c 2.89545,-1.003474 6.18492,-1.881544 6.56819,-1.753272 0.94222,0.315344 0.5814,-1.248055 -2.24399,-9.722944 -0.36386,-1.091407 -0.82633,-2.359557 -1.02772,-2.818112 -0.2014,-0.458554 -0.36617,-0.929021 -0.36617,-1.045482 0,-0.116459 -0.54593,-1.705809 -1.21317,-3.531889 -3.31139,-9.062465 -4.81372,-12.716906 -8.42134,-20.484974 -0.66738,-1.43701 -1.21341,-2.766542 -1.21341,-2.954512 0,-0.187971 -0.0953,-0.381453 -0.21172,-0.429961 -0.11645,-0.04851 -0.66667,-0.981163 -1.22271,-2.072569 -0.55605,-1.091406 -1.17515,-2.172343 -1.37578,-2.402083 -0.20063,-0.22974 -0.36479,-0.498586 -0.36479,-0.597437 0,-0.09885 -0.84849,-1.577758 -1.88553,-3.286458 -1.03705,-1.708703 -2.13469,-3.523448 -2.4392,-4.032771 -0.30451,-0.509323 -0.71669,-1.093883 -0.91594,-1.299025 -0.19926,-0.205139 -0.6495,-0.827966 -1.00055,-1.384062 -0.65476,-1.037203 -1.62602,-1.505087 -2.3064795,-1.111099 -0.74849,0.433374 -2.52249,2.17274 -4.04246,3.963535 -2.27062,2.675194 -6.85164,8.914426 -7.24825,9.871934 -0.48652,1.174557 -0.47547,1.194308 3.23581,5.786853 0.5457,0.675283 0.99219,1.378799 0.99219,1.563367 0,0.184568 0.0921,0.335579 0.20472,0.335579 0.1126,0 0.73768,0.720691 1.38906,1.601534 0.65139,0.880842 1.55277,2.101233 2.00306,2.711979 2.80163,3.799895 9.1632295,13.747167 11.2011495,17.514611 0.31487,0.582083 0.99653,1.772708 1.5148,2.645833 1.44643,2.436786 3.91207,7.047997 6.47243,12.104687 0.90824,1.793756 1.04454,1.822522 3.9178,0.826738 z M 8.8302795,53.161948 c 0,-0.145521 -0.12609,-0.264584 -0.2802,-0.264584 -0.15411,0 -0.20661,0.119063 -0.11668,0.264584 0.0899,0.145521 0.21603,0.264583 0.2802,0.264583 0.0642,0 0.11668,-0.119062 0.11668,-0.264583 z M 72.594859,145.2533 c -0.80037,-0.25351 -1.42545,-0.59902 -1.38906,-0.76781 0.0364,-0.16878 -0.16168,-0.30688 -0.44014,-0.30688 -0.50338,0 -2.13955,-1.93094 -2.13955,-2.52502 0,-0.16725 -0.20836,-0.70934 -0.46302,-1.20464 -0.68591,-1.33405 -0.64722,-6.94499 0.0618,-8.97034 0.28021,-0.80037 0.65521,-1.6338 0.83334,-1.85208 0.3052,-0.37399 0.35556,-0.51057 0.36581,-0.99219 0.005,-0.24093 1.26261,-1.73974 2.43438,-2.90159 1.43369,-1.42155 3.84034,-2.43669 6.25713,-2.63931 1.81991,-0.15257 3.73968,0.23161 3.73968,0.74839 0,0.14282 0.12428,0.18287 0.27618,0.089 0.34799,-0.21507 1.09329,0.37925 0.88937,0.70921 -0.0874,0.14143 0.13244,0.17393 0.51947,0.0768 0.51926,-0.13033 0.91217,0.0319 1.73719,0.717 0.5864,0.48698 1.06832,1.1008 1.07094,1.36405 0.003,0.26325 0.11786,0.40874 0.25608,0.32332 0.13822,-0.0854 0.39417,0.11591 0.56877,0.4474 0.17461,0.3315 0.4031,0.66226 0.50775,0.73502 0.41416,0.28795 1.56777,2.90827 1.98855,4.51681 0.51322,1.96191 0.60139,5.95567 0.16615,7.5258 -0.43182,1.5578 -1.72343,3.44736 -2.87307,4.20315 -1.51989,0.9992 -2.94046,1.20563 -8.15008,1.18433 -3.75324,-0.0153 -5.07089,-0.11715 -6.21771,-0.4804 z m 12.73931,-2.15406 c 0.29353,-0.1571 0.82032,-0.90124 1.17065,-1.65365 0.70746,-1.51945 0.84382,-3.70877 0.36893,-5.92312 -0.24851,-1.15874 -0.39795,-1.3446 -1.65365,-2.0567 -1.22482,-0.69459 -1.60057,-0.77656 -3.3329,-0.7271 -3.21265,0.0917 -6.00399,1.75334 -8.11949,4.83329 -1.02512,1.49247 -1.19181,1.92479 -1.22418,3.175 -0.022,0.84886 0.11661,1.69342 0.33516,2.04259 0.36792,0.58779 0.44555,0.59531 6.14721,0.59531 3.62733,0 5.97303,-0.10621 6.30827,-0.28562 z m -12.0142,-8.90865 c 1.24989,-0.95289 2.44989,-2.62926 2.44989,-3.42244 0,-0.99816 -0.75499,-1.93537 -1.55906,-1.93537 -1.00839,0 -1.85469,0.68919 -2.39338,1.94908 -0.53236,1.24509 -0.92305,3.47487 -0.67825,3.87097 0.29328,0.47454 1.20571,0.28115 2.1808,-0.46224 z m -17.42445,-5.50179 c -0.36836,-0.36836 -0.36022,-0.55174 0.0827,-1.86366 0.98467,-2.91671 -0.28415,-4.59581 -4.19726,-5.55443 -2.16486,-0.53034 -6.7611,-0.69916 -8.03408,-0.29509 -0.64293,0.20408 -0.68347,0.15085 -1.00768,-1.32292 -0.38645,-1.75674 -0.36382,-3.03634 0.0904,-5.10824 0.45302,-2.06664 1.25524,-3.49413 2.9712,-5.28703 1.63494,-1.70826 2.28642,-1.88214 1.22519,-0.32702 -0.589,0.86314 -0.65989,1.20323 -0.57442,2.75568 0.0825,1.49924 0.22172,1.92558 0.90691,2.77813 1.96964,2.45074 5.24187,2.62458 7.56661,0.40197 1.79741,-1.71845 1.93336,-4.72862 0.30115,-6.66839 -1.1802,-1.40259 -3.17513,-2.07218 -4.79211,-1.60843 -0.47187,0.13533 -0.85795,0.14333 -0.85795,0.0178 0,-0.26488 0.51841,-0.43746 1.9491,-0.64887 0.56269,-0.0832 1.12377,-0.21342 1.24686,-0.28949 0.12309,-0.0761 1.21053,-0.0155 2.41653,0.13454 3.02204,0.37607 4.98711,1.37936 7.07666,3.61309 0.89739,0.95931 1.56877,1.80706 1.49195,1.88387 -0.0768,0.0768 0.14215,0.63001 0.48659,1.22931 0.34445,0.5993 0.71207,1.50003 0.81695,2.00161 0.31525,1.50765 0.19787,4.39315 -0.23997,5.89928 -0.87189,2.99918 -3.57357,6.14383 -6.71848,7.82005 -1.85557,0.98901 -1.68909,0.95595 -2.20678,0.43827 z m 2.87486,-9.79237 c 0.32742,-0.37207 0.59531,-0.96087 0.59531,-1.30844 0,-0.77496 -1.00096,-1.93918 -1.71979,-2.00032 -1.33464,-0.11349 -1.74627,0.0466 -2.25186,0.87584 -0.71664,1.17537 -0.66217,1.69074 0.27808,2.63099 0.67256,0.67255 0.94352,0.77765 1.65365,0.64139 0.46711,-0.0896 1.11719,-0.46739 1.44461,-0.83946 z m 40.39255,9.20789 c -2.00617,-1.23524 -2.55278,-1.66538 -2.88787,-2.27256 -0.14552,-0.26369 -0.3528,-0.44047 -0.46064,-0.39285 -0.3808,0.16815 -1.97562,-2.58546 -2.67122,-4.61212 -1.93423,-5.63547 0.34255,-11.29322 5.5872,-13.88408 1.965661,-0.97104 2.091661,-0.99639 4.952071,-0.99639 2.47876,0 3.05664,0.081 3.71696,0.52105 0.43004,0.28657 0.91227,0.49395 1.07162,0.46083 0.15935,-0.0331 0.59849,0.22593 0.97586,0.57567 0.37737,0.34973 0.73242,0.58957 0.78902,0.53297 0.32994,-0.32994 2.33297,1.96834 3.29796,3.7841 1.30099,2.448 1.74489,4.74191 1.3957,7.21235 -0.29287,2.07198 -0.36734,2.16531 -1.39624,1.74992 -1.06257,-0.42898 -4.43559,-0.13588 -7.02621,0.61055 -0.97098,0.27976 -2.19285,0.58153 -2.71528,0.6706 -0.96066,0.16377 -1.76385,0.8353 -2.34467,1.96032 -0.19547,0.37863 -0.28465,1.4385 -0.2315,2.75142 0.0513,1.26587 -0.0213,2.17301 -0.17813,2.22755 -0.14552,0.0506 -0.9891,-0.35409 -1.874631,-0.89933 z m 9.030411,-8.91681 c 1.40779,-1.40779 0.51151,-3.5839 -1.47612,-3.5839 -1.16494,0 -1.80413,0.61258 -2.01867,1.93465 -0.12905,0.79521 -0.0388,1.04763 0.57911,1.62032 0.94221,0.87321 2.06031,0.8843 2.91568,0.0289 z m -4.06446,-3.12747 c 2.59312,-1.10352 3.40701,-5.29744 1.49882,-7.72332 -1.49948,-1.90629 -5.00536,-2.32039 -6.968421,-0.8231 -1.94163,1.48095 -2.47305,3.99307 -1.35338,6.39769 0.52666,1.13106 0.8593,1.46709 2.04794,2.06878 1.583871,0.80176 3.022271,0.82585 4.775041,0.0799 z"
       id="path5573" /></g></svg>
