<?xml version="1.0" encoding="UTF-8" standalone="no"?>
<!-- Created with Inkscape (http://www.inkscape.org/) -->

<svg
   width="234.15791mm"
   height="224.34096mm"
   viewBox="0 0 234.15789 224.34086"
   version="1.1"
   id="svg5"
   xml:space="preserve"
   xmlns="http://www.w3.org/2000/svg"
   xmlns:svg="http://www.w3.org/2000/svg"><defs
     id="defs2" /><g
     id="layer1"
     transform="translate(42.796258,11.446825)"><path
       style="fill:#000000;stroke-width:0.264583"
       d="m 63.133133,212.64639 c -1.31435,-0.15228 -2.4475,-0.51541 -3.96875,-1.2718 -3.79249,-1.8857 -6.59981,-4.77085 -10.21365,-10.49679 -3.26545,-5.17394 -2.65077,-4.67012 -5.14468,-4.2168 -1.16417,0.21162 -2.41433,0.44699 -2.77813,0.52305 -0.52895,0.11058 -5.37119,0.95053 -9.26041,1.60633 -1.56272,0.26351 -7.3862,1.13453 -8.59896,1.28615 -1.91246,0.2391 -5.27551,0.68519 -6.27957,0.83294 -6.2342,0.9174 -7.4908404,0.5366 -8.7695004,-2.65746 -1.04971,-2.62211 -2.54572,-9.1585 -2.54572,-11.12276 0,-1.57405 0.0652,-1.76436 0.88474,-2.58394 0.48661,-0.48661 1.29028,-1.00127 1.78594,-1.14369 l 0.90119,-0.25894 -0.0136,-3.16461 c -0.0102,-2.36667 -0.13032,-3.45889 -0.4764,-4.33172 -0.26043,-0.65679 -0.53176,-2.27645 -0.62054,-3.70417 -0.0995,-1.60069 -0.34557,-2.97612 -0.6666,-3.72668 -0.33934,-0.79338 -0.56124,-2.11514 -0.66617,-3.96823 -0.11472,-2.0257 -0.31552,-3.13721 -0.74107,-4.10204 -0.75529,-1.71247 -0.90098,-2.43721 -1.03728,-5.1599 -0.0737,-1.47278 -0.29704,-2.66494 -0.64704,-3.45426 -0.64849,-1.46248 -1.17741,-4.67012 -1.01682,-6.16647 0.0828,-0.77182 -0.0758,-1.56332 -0.53762,-2.68239 -0.45284,-1.09733 -0.68649,-2.24107 -0.75671,-3.70417 -0.14045,-2.9266 -0.10048,-2.87299 -1.67794997,-2.25121 -6.02109003,2.37329 -12.45302963,-0.58786 -14.18589963,-6.53094 -0.52498,-1.8005 -0.52828,-4.67122 -0.007,-6.18304 0.38913,-1.12875 0.3833,-1.29305 -0.09,-2.53874 -0.93953,-2.47264 -0.82561,-5.53935 0.29429,-7.92182 0.60948,-1.29663 2.12365,-2.94728 3.01415,-3.28585 0.33674,-0.12803 0.8050996,-0.63919 1.0408096,-1.13591 0.23571,-0.49672 0.69072,-1.02431 1.01113,-1.17242 0.39681,-0.18343 0.78151,-0.84873 1.20653,-2.08658 0.34318,-0.9995 0.85714,-2.14475 1.14214,-2.545 l 0.51819,-0.72772 -1.50571,-3.373921 c -2.56264,-5.74229 -3.5497196,-7.78572 -4.9527496,-10.253097 -1.89515,-3.332808 -6.71331,-11.006706 -8.3572,-13.310531 -0.75645,-1.060119 -1.29381,-2.059439 -1.19414,-2.220714 0.0999,-0.161594 0.062,-0.219538 -0.0844,-0.129077 -0.14607,0.09028 -0.96031,-0.814059 -1.80942,-2.009639 -2.25865,-3.180313 -8.07221,-10.396791 -11.53211,-14.315022 -7.05245,-7.986701 -7.81244,-9.128817 -7.54986,-11.345909 0.24338,-2.054916 1.41089,-4.07783 3.62359,-6.27848 1.09739,-1.091407 2.34588,-2.162969 2.77443,-2.38125 0.42855,-0.218282 0.9885,-0.575469 1.24435,-0.79375 0.25584,-0.218282 1.61689,-1.012428 3.02456,-1.764768 l 2.55939,-1.367894 0.0219,-3.394606 c 0.0261,-4.051033 0.36764,-5.021344 2.56863,-7.296668 3.11942,-3.22476 7.96786,-4.774425 12.97388,-4.146725 2.37194,0.297416 3.60806,0.874535 4.1859496,1.954326 0.46203,0.863309 0.69478,0.844971 1.1798,-0.09295 1.01278,-1.958515 4.85358,-4.282734 8.61462003,-5.213059 1.44827997,-0.358243 2.82919997,-0.478687 5.11153997,-0.445828 3.40721,0.04905 4.25109,0.322286 5.2867404,1.711759 0.29244,0.392356 1.44519,3.481128 2.56166,6.863939 1.11647,3.382809 2.18773,6.203159 2.38059,6.267445 0.42661,0.142203 0.45829,0.33846 -1.3165,-8.156218 -2.45313,-11.7414531 -3.0397,-15.3548171 -2.81139,-17.3186741 0.20246,-1.741575 2.00513,-5.3443766 3.3308,-6.6569294 1.81299,-1.795047 5.9411,-3.9883158 8.40159,-4.4637799 4.16199,-0.8042592 7.22126,-0.7572428 9.28056,0.1426289 1.13482,0.4958953 2.70166,1.5738395 2.28765,1.5738395 -0.1202,0 -0.0266,0.1488281 0.20805,0.3307291 0.80649,0.6252607 1.9367,3.1851916 2.19024,4.96093685 0.0312,0.218282 0.13043,0.575469 0.22058,0.79375 0.21569,0.522203 1.47235,6.21046895 2.92796,13.25330205 1.82374,8.82401 2.64661,12.411281 2.84695,12.411281 0.10142,0 0.26923,-0.267891 0.3729,-0.595313 0.24074,-0.760267 2.13049,-2.550573 2.86101,-2.710447 0.30691,-0.06717 1.15334,-0.165926 1.88094,-0.219461 l 1.32292,-0.09734 -0.0777,-2.223616 c -0.0428,-1.222989 -0.14157,-2.997523 -0.21958,-3.943408 -0.27104,-3.286136 -0.33167,-5.194766 -0.36562,-11.5093751 -0.0382,-7.0993682 0.22509,-9.0765464 1.55894,-11.7083885 0.83625,-1.6500289 1.45673,-2.3041556 3.04388,-3.2089854 2.52393,-1.43888 7.26884,-1.786381 11.14137,-0.815957 2.38019,0.596459 5.62134,2.0400939 6.45745,2.8762037 0.3047,0.304702 0.58377,0.52891 0.62015,0.4982395 0.30573,-0.2577439 2.8542,2.9386502 2.99778,3.75993 0.0127,0.07276 0.19097,0.4894792 0.39611,0.9260416 0.29816,0.6345105 0.38927,3.03637115 0.45414,11.9723951 0.0446,6.1482551 0.12016,11.1786451 0.16784,11.1786451 0.0477,0 0.48819,-0.155601 0.9789,-0.345781 1.77697,-0.688678 10.31912,-0.01516 14.20138,1.119706 1.08853,0.318204 0.97291,0.588449 1.63292,-3.816633 0.17443,-1.164166 0.42645,-2.414323 0.56005,-2.778125 0.1336,-0.363802 0.35883,-1.586653 0.50052,-2.717448 0.48639,-3.8818601 0.87271,-4.7409361 3.13137,-6.9632661 2.69225,-2.64894 4.503077,-3.528597 7.688707,-3.734985 7.16816,-0.46440495 13.9765,2.471925 16.28236,7.022327 0.59197,1.168191 0.68344,1.68443 0.68344,3.8571691 v 2.508472 l 3.24114,2.461136 c 3.71192,2.818611 7.11357,5.996411 9.70418,9.06559 2.32468,2.754125 5.70443,7.23777 7.03828,9.337117 0.57792,0.9096 1.77871,2.755069 2.66842,4.101041 0.8897,1.345972 2.12568,3.459252 2.74662,4.696179 0.62093,1.236927 1.47752,2.75676 1.90352,3.377404 0.99238,1.44581 2.2556,3.993025 2.87944,5.806238 0.26873,0.781087 0.7379,1.770264 1.0426,2.198172 0.86009,1.207889 2.02172,3.945514 2.35563,5.551519 0.1664,0.800364 0.65202,1.972918 1.07915,2.605672 1.03126,1.527707 1.75853,3.531002 1.98536,5.46877 0.11131,0.950876 0.43522,1.971173 0.81127,2.555452 0.93415,1.45143 1.70494,3.838337 1.86464,5.774272 0.1018,1.233995 0.4099,2.265074 1.09073,3.650167 0.82593,1.680298 0.96906,2.262995 1.10487,4.497917 0.12689,2.088205 0.27649,2.761347 0.8013,3.605659 0.3549,0.570967 0.83886,1.745297 1.07545,2.609617 l 0.43018,1.57149 1.83496,0.0759 c 6.46969,0.26746 12.15157,6.51588 12.62808,13.887201 0.25694,3.97468 -1.82822,8.37396 -4.74193,10.00455 -0.40475,0.22651 -0.42443,0.38754 -0.15662,1.28142 0.16847,0.5623 0.37276,1.7066 0.45397,2.54289 0.10188,1.04905 0.39164,1.90523 0.93446,2.76118 0.62256,0.98168 0.78679,1.53911 0.78679,2.67048 0,1.2437 0.18806,1.76222 1.44456,3.9831 1.69848,3.00206 2.18728,4.2884 2.40797,6.33683 0.16649,1.54535 0.46374,2.16955 1.03317,2.16955 0.59646,0 3.98409,2.56601 5.32594,4.03421 1.52764,1.67149 3.36878,5.16339 3.94134,7.47517 0.98825,3.99015 0.31774,9.1166 -1.7303,13.22916 -2.09159,4.20003 -5.50621,8.23461 -15.42883,18.23008 -8.57148,8.63441 -11.4915,10.93556 -16.20366,12.76943 -1.58448,0.61664 -2.22493,0.71274 -4.86727,0.73028 -2.68449,0.0178 -3.18961,-0.0528 -4.29057,-0.60005 -1.612,-0.80126 -3.41997,-2.4024 -4.75814,-4.21382 -1.4591,-1.97511 -3.69707,-6.73431 -4.84333,-10.29965 -0.61227,-1.90445 -1.06572,-2.92076 -1.26932,-2.84494 -1.22506,0.45621 -31.99414,7.37454 -44.105297,9.91693 -4.14734,0.87062 -8.79078,1.83801 -10.31875,2.14975 -1.52797,0.31174 -2.8014,0.58228 -2.82984,0.60118 -0.0284,0.0189 -0.18318,0.8644 -0.34385,1.87885 -0.81687,5.15768 -2.74167,11.02921 -4.63786,14.14759 -1.29298,2.12636 -3.57972,4.35404 -5.44777,5.30704 -0.95677,0.48811 -4.02881,1.33549 -4.60005,1.26885 -0.14553,-0.017 -1.0924,-0.12677 -2.10417,-0.244 z m 0.11979,-3.47704 c -1.40675,-0.8747 -3.44646,-2.58589 -4.66446,-3.91319 -1.3952,-1.52039 -3.00846,-3.638 -3.00846,-3.94899 0,-0.13213 -0.0962,-0.27993 -0.21383,-0.32844 -0.75275,-0.31046 -4.8107,-7.76413 -6.74853,-12.39576 -3.11198,-7.43796 -4.30325,-13.47034 -3.52851,-17.86767 0.67507,-3.83161 2.64974,-6.93782 5.69567,-8.95945 2.57562,-1.70948 4.10007,-2.14031 7.57333,-2.14031 2.78974,0 2.97698,0.0361 4.51594,0.87111 1.51159,0.82014 1.69329,0.85735 3.10536,0.63592 1.66741,-0.26148 1.86741,-0.19642 1.50098,0.48827 -0.16259,0.30379 -0.44104,0.42103 -0.78585,0.33086 -1.20389,-0.31483 -1.79065,1.30921 -0.82272,2.27713 0.6774,0.6774 1.97799,3.62144 1.75748,3.97824 -0.0971,0.15709 0.0609,0.6191 0.35115,1.02668 0.71381,1.00245 1.08838,2.04968 2.66735,7.45741 1.8467,6.32467 2.27352,8.05896 2.76739,11.24479 0.0677,0.43657 0.36622,2.2225 0.66344,3.96875 0.29721,1.74625 0.54448,3.88938 0.54948,4.7625 0.0109,1.90394 0.2282,2.83498 0.63034,2.70093 0.31096,-0.10365 1.72602,-5.44292 2.22345,-8.38947 0.15968,-0.94588 0.34408,-1.95791 0.40978,-2.24896 0.27164,-1.20331 0.4921,-7.38826 0.32048,-8.99085 -0.1462,-1.36511 -0.38192,-2.01331 -1.12502,-3.09359 -0.86885,-1.26308 -1.93786,-3.39077 -4.00785,-7.97691 -0.78552,-1.74035 -0.80093,-1.84474 -0.42963,-2.91041 0.21182,-0.60792 0.38685,-1.35408 0.38897,-1.65812 0.005,-0.72009 -1.5395,-2.11547 -2.5992,-2.34822 -1.02881,-0.22596 -1.32103,-0.64943 -0.74089,-1.07364 0.39761,-0.29075 0.32743,-0.47575 -0.71244,-1.87809 -1.45555,-1.96292 -2.29071,-2.79632 -4.27799,-4.26897 -0.87313,-0.64702 -1.67497,-1.31323 -1.78189,-1.48047 -0.10691,-0.16723 -0.19621,-0.2117 -0.19844,-0.0988 -0.002,0.11287 -0.37343,0.0142 -0.82491,-0.21926 -1.59436,-0.82447 -3.30964,-1.20626 -5.92601,-1.31901 -2.38381,-0.10273 -2.85693,-0.0406 -4.77742,0.6275 -5.52924,1.9235 -9.3188,6.21874 -10.54339,11.95032 -0.61616,2.88384 -0.67816,4.55966 -0.28071,7.58676 1.23288,9.38983 7.28097,23.46055 13.54941,31.52236 2.83679,3.6484 7.00907,6.6206 9.32815,6.6451 l 0.92604,0.01 -0.92604,-0.57581 z m 6.35257,-0.8012 c 0.71085,-0.44393 1.82143,-2.29606 2.26266,-3.77345 0.76853,-2.57333 0.76591,-5.41174 -0.0114,-12.30312 -0.16145,-1.4314 -1.80469,-9.04833 -2.65694,-12.31575 -2.09035,-8.01408 -4.5809,-14.06404 -6.80561,-16.53194 -2.259,-2.50593 -8.23594,-1.54718 -11.77619,1.88899 -2.0541,1.99372 -3.42162,5.87511 -3.15932,8.96703 0.72087,8.49743 6.1066,21.24447 11.89082,28.14342 0.87005,1.03774 1.71729,2.06538 1.88275,2.28367 0.90217,1.19018 4.1494,3.52189 5.5925,4.01575 0.64858,0.22196 2.14915,0.0198 2.7807,-0.3746 z m -54.2642,-10.43937 c 1.26788,-0.43015 12.69822,-6.05337 13.09963,-6.44444 0.24927,-0.24284 -0.0199,-2.1008 -0.81523,-5.62746 -0.33861,-1.50145 -0.48044,-1.77294 -0.84455,-1.61666 -2.32066,0.99607 -2.64849,1.04848 -3.54211,0.56618 -0.47533,-0.25654 -1.13568,-0.93951 -1.46745,-1.51771 -0.33176,-0.5782 -0.72611,-1.05128 -0.87632,-1.05128 -0.90589,0 -12.0651204,3.94877 -12.4417704,4.4026 -0.23478,0.2829 -0.20704,0.86933 0.11774,2.48859 0.72659,3.62262 2.0763904,8.17817 2.6327404,8.88546 0.48052,0.61087 0.6494,0.6585 1.75029,0.49365 0.67015,-0.10036 1.74431,-0.36087 2.38703,-0.57893 z m 13.44056,-1.54058 c 5.85701,-0.87823 14.60593,-2.45979 15.3548,-2.77573 l 0.59518,-0.2511 -0.82924,-1.52708 c -0.45608,-0.8399 -1.10263,-2.30099 -1.43677,-3.24688 -0.87547,-2.47831 -2.17991,-5.85728 -2.31227,-5.98964 -0.11187,-0.11188 -9.74989,1.48527 -9.93848,1.64693 -0.16639,0.14264 1.00373,5.70273 1.35337,6.43081 0.45654,0.95071 0.28775,2.66389 -0.28081,2.84998 -0.24539,0.0803 -1.04148,0.41633 -1.76908,0.74669 -0.72761,0.33036 -2.21589,0.99414 -3.30729,1.47506 -2.0515,0.90397 -2.72314,1.30684 -2.17868,1.30684 0.16963,0 2.3068,-0.29965 4.74927,-0.66588 z m 127.237587,-4.13247 c 2.83279,-0.92629 4.97415,-2.31667 8.96577,-5.82142 5.39796,-4.73958 11.17095,-11.6659 13.54004,-16.24509 3.84365,-7.42935 3.53072,-14.07698 -0.8735,-18.55617 -3.14734,-3.2009 -7.6492,-4.32796 -10.8097,-2.70624 -2.14089,1.09853 -6.83504,6.29707 -10.24894,11.35019 -3.61287,5.34763 -7.48712,12.80495 -9.0914,17.49954 -1.26919,3.71401 -2.36872,9.5001 -1.80137,9.47938 0.12918,-0.005 0.74593,-1.5823 1.37057,-3.50573 2.08825,-6.43032 5.7087,-12.72732 11.67043,-20.29819 2.21081,-2.80754 6.8096,-7.47528 9.06509,-9.20102 1.97532,-1.51137 4.58401,-2.75461 5.5675,-2.65334 0.75368,0.0776 0.72265,0.11865 -0.89354,1.18164 -3.68186,2.4216 -9.47797,8.34496 -13.73556,14.03712 -0.67657,0.90453 -1.28559,1.58914 -1.35338,1.52135 -0.0678,-0.0678 -0.12646,0.0256 -0.13037,0.20748 -0.004,0.1819 -0.7757,1.46182 -1.71508,2.84427 -3.89446,5.73132 -6.37955,11.01517 -7.24029,15.39447 -0.66933,3.40544 -0.26475,4.70799 1.74132,5.60607 1.17655,0.52673 4.15571,0.45973 5.97241,-0.13431 z M 87.563383,185.82 c 5.70557,-1.17699 14.218197,-3.03976 24.240577,-5.30444 2.91042,-0.65764 6.11213,-1.3746 7.11492,-1.59322 2.84526,-0.62033 17.32462,-4.09666 17.76169,-4.26438 0.40937,-0.15709 0.48497,-0.95222 0.16707,-1.75718 -0.16602,-0.42039 -0.27449,-0.38084 -0.97359,0.35496 -4.09455,4.30948 -10.09616,1.44393 -11.53163,-5.50593 -0.26559,-1.28587 -0.43282,-1.62507 -0.75149,-1.52433 -0.34943,0.11046 -10.32296,2.06865 -16.28489,3.19735 -1.01864,0.19284 -4.41192,0.84029 -7.540617,1.43877 -9.44891,1.80745 -16.46848,3.10863 -17.72708,3.28598 -1.82434,0.25707 -1.84547,0.29238 -1.43674,2.40129 0.19743,1.01865 0.36333,2.63194 0.36868,3.58511 0.005,0.95316 0.11238,1.84613 0.23784,1.98437 0.12842,0.1415 0.0894,1.17644 -0.0892,2.36802 -0.17453,1.16417 -0.27016,2.20597 -0.21251,2.31511 0.17215,0.32588 0.68833,0.24978 6.65697,-0.98148 z m 56.255937,-2.3272 c 0.52132,-3.26894 2.79413,-9.75957 4.33082,-12.36789 0.1286,-0.21828 0.66668,-1.28984 1.19575,-2.38125 1.06551,-2.19807 1.12796,-2.30723 2.73555,-4.78189 0.62139,-0.95656 1.1299,-1.84953 1.13002,-1.98438 1.1e-4,-0.13485 0.41683,-0.7133 0.92604,-1.28543 0.50921,-0.57214 0.92583,-1.15111 0.92583,-1.28661 0,-0.20433 1.42141,-2.23526 2.72673,-3.896 0.17379,-0.22111 0.7327,-0.95702 1.24202,-1.63535 0.50933,-0.67833 1.14638,-1.29308 1.41569,-1.36611 0.2693,-0.073 0.42573,-0.23618 0.34762,-0.36257 -0.0781,-0.12638 0.57522,-0.98118 1.45185,-1.89954 0.87662,-0.91837 1.4941,-1.76858 1.37216,-1.88936 -0.12193,-0.12078 -0.81701,-0.29389 -1.54461,-0.38469 -0.7276,-0.0908 -1.5121,-0.2187 -1.74332,-0.28422 -0.41346,-0.11715 -2.12064,0.48228 -2.71553,0.95349 -0.16701,0.13228 -0.72037,0.58127 -1.22969,0.99776 -2.20961,1.80684 -4.81236,3.28906 -6.38026,3.63343 -0.44073,0.0968 -0.73955,0.23778 -0.66404,0.31328 0.0755,0.0755 -0.55606,0.65849 -1.40349,1.29551 -0.84742,0.63702 -1.97201,1.63555 -2.49908,2.21896 -0.52708,0.58341 -1.10739,1.0309 -1.28958,0.99442 -0.18219,-0.0365 -0.30313,0.0776 -0.26875,0.25349 0.0344,0.1759 -0.83381,1.64915 -1.92931,3.2739 -1.0955,1.62475 -1.96647,3.14771 -1.93548,3.38435 0.031,0.23665 -0.0854,0.92776 -0.25859,1.5358 -0.75073,2.63527 1.1235,13.49071 3.01929,17.48759 0.50908,1.07329 0.81033,0.91819 1.04236,-0.53669 z M 25.655943,182.11864 c 1.20273,-0.62195 1.61755,-1.50743 1.58235,-3.37765 -0.0372,-1.97624 -0.26626,-3.17382 -0.63016,-3.29465 -0.14552,-0.0483 -0.89139,1.10485 -1.6575,2.5626 -1.09312,2.08001 -1.35484,2.80603 -1.21603,3.37332 0.28428,1.16176 0.75206,1.34104 1.92134,0.73638 z m -12.06009,-0.56155 c 1.58433,-1.07658 1.70689,-1.84391 0.93729,-5.86811 -0.14611,-0.76399 -0.35435,-1.38907 -0.46276,-1.38907 -0.1084,0 -0.4497,0.44945 -0.75844,0.99877 -0.30874,0.54933 -0.80439,1.27901 -1.10145,1.62152 -0.6971,0.80377 -0.92129,2.05127 -0.69464,3.86533 0.21247,1.70058 0.53614,1.82065 2.08,0.77156 z m 18.92319,0.0303 c 0.2415,-0.0447 0.97487,-0.16039 1.62972,-0.25705 1.0405,-0.15359 2.00609,-0.33506 4.43177,-0.83288 0.65245,-0.1339 0.7841,-0.68682 0.26458,-1.11121 -0.22697,-0.18541 -0.82879,-0.16027 -1.91823,0.0801 -0.87312,0.19267 -2.92695,0.623 -4.56406,0.9563 -2.7347,0.55675 -3.32244,0.85152 -2.7798,1.39417 0.16861,0.16861 1.23689,0.0851 2.93602,-0.22947 z m -14.09398,-1.63406 c 0.71715,-0.23763 1.39561,-0.51388 1.5077,-0.6139 0.41719,-0.37228 -0.38195,-5.39928 -1.14179,-7.1824 -0.40923,-0.96033 -0.87839,-2.50814 -1.04259,-3.43959 -0.16419,-0.93144 -0.70117,-2.88415 -1.19327,-4.33936 -0.49211,-1.45521 -1.2137,-3.68763 -1.60354,-4.96094 -0.38984,-1.27331 -0.82775,-2.3151 -0.97313,-2.3151 -0.14673,0 -0.19073,0.26482 -0.0989,0.59531 0.091,0.32742 0.23699,1.72641 0.32447,3.10885 0.0875,1.38245 0.39096,3.3016 0.67441,4.26477 0.28345,0.96318 0.61646,3.04677 0.74003,4.63021 0.12357,1.58344 0.41147,3.59336 0.63978,4.46648 0.22831,0.87313 0.49463,2.6293 0.59181,3.90261 0.0972,1.2733 0.19795,2.3151 0.22391,2.3151 0.026,0 0.63395,-0.19442 1.3511,-0.43204 z m 6.00044,-4.06588 c 0.78764,-1.57561 0.85775,-1.91942 0.83622,-4.10104 -0.0129,-1.30969 -0.16439,-2.72338 -0.33661,-3.14155 -0.31047,-0.75387 -0.32533,-0.736 -1.75926,2.11667 -0.79538,1.58233 -1.44758,3.21065 -1.44933,3.61848 -0.002,0.40784 0.18952,1.58878 0.42505,2.62431 l 0.42823,1.88278 0.49799,-0.63993 c 0.2739,-0.35196 0.88487,-1.41383 1.35771,-2.35972 z m 8.53263,1.61988 c 1.66024,-0.26334 4.60578,-0.97809 4.79001,-1.16231 0.19026,-0.19027 -0.76898,-1.90205 -1.26561,-2.25851 -0.26493,-0.19015 -0.48169,-0.44743 -0.48169,-0.57173 0,-0.2024 -0.47013,-1.27031 -2.50804,-5.69712 -0.33496,-0.7276 -0.86142,-2.01531 -1.16992,-2.86158 -0.30849,-0.84626 -0.85731,-2.09547 -1.2196,-2.77602 -0.36228,-0.68054 -0.65869,-1.38032 -0.65869,-1.55506 0,-0.17474 -0.23113,-0.71147 -0.51363,-1.19273 -0.28249,-0.48127 -1.2394,-2.78002 -2.12645,-5.10836 -0.88706,-2.32833 -1.78702,-4.60851 -1.99992,-5.06707 -0.2129,-0.45855 -0.38708,-1.0766 -0.38708,-1.37344 0,-0.29684 -0.10895,-0.60705 -0.24212,-0.68935 -0.13316,-0.0823 -0.5661,-1.01206 -0.96209,-2.06613 -1.40098,-3.72926 -2.52229,-6.59048 -2.75458,-7.02885 -0.12938,-0.24415 -0.41102,-0.97969 -0.62588,-1.63453 -0.44104,-1.34422 -1.84338,-5.0856 -2.57844,-6.87917 -0.26838,-0.65484 -0.80446,-2.02406 -1.19128,-3.04271 -0.87086,-2.29325 -1.48204,-3.02362 -2.10062,-2.51024 -0.47413,0.39348 -0.47258,0.40223 0.53706,3.03941 0.38999,1.01865 0.80753,2.76554 0.92787,3.88198 0.14308,1.32742 0.44002,2.42619 0.85805,3.175 0.78405,1.40448 1.3092,3.50808 1.33083,5.3309 0.0121,1.01863 0.23545,1.778 0.8701,2.95795 0.95083,1.76782 1.0533,2.16559 1.42311,5.52435 0.15728,1.42853 0.44146,2.6211 0.72503,3.04271 0.71707,1.06607 1.37,3.39567 1.56624,5.58815 0.11735,1.31111 0.34399,2.19846 0.668,2.61537 0.26971,0.34705 0.49038,0.82925 0.49038,1.07156 0,0.24232 0.12839,0.56896 0.28532,0.72588 0.15692,0.15693 0.39322,1.14468 0.5251,2.19501 0.15059,1.19932 0.5407,2.52092 1.0487,3.55283 0.59289,1.20433 0.84946,2.16908 0.96076,3.6126 0.0981,1.27193 0.34258,2.29744 0.69038,2.8955 0.51796,0.89067 0.86252,2.04625 1.17083,3.92672 0.16195,0.98781 -0.0546,0.96907 3.91787,0.33899 z m -20.5135,-3.64332 c 0.64446,-0.80482 1.06663,-2.42381 1.06663,-4.09049 0,-1.70799 -0.4654,-4.20755 -0.78248,-4.20255 -0.079,0.001 -0.66246,0.84332 -1.29666,1.87129 l -1.15309,1.86902 0.0999,2.82506 c 0.055,1.55379 0.20601,2.99344 0.33565,3.19922 0.2349,0.37287 0.29196,0.32433 1.73001,-1.47155 z m 63.47968,-3.83568 c -0.46774,-1.21587 -1.15866,-2.67986 -1.53539,-3.25331 -0.6056,-0.92186 -0.69474,-0.97561 -0.76937,-0.46404 -0.10183,0.69793 2.91908,6.98412 3.0579,6.36319 0.0535,-0.23934 -0.2854,-1.42997 -0.75314,-2.64584 z m 5.71715,2.04859 c 0.43656,-0.0534 0.97235,-0.16676 1.19063,-0.25182 0.21828,-0.0851 0.87312,-0.20884 1.4552,-0.27506 0.58209,-0.0662 1.23693,-0.18874 1.45521,-0.27229 0.21828,-0.0835 1.52797,-0.32716 2.91042,-0.54137 1.38245,-0.21422 3.66628,-0.63193 5.07519,-0.92825 1.40891,-0.29632 3.84969,-0.76571 5.42396,-1.04309 1.574267,-0.27739 3.814807,-0.68892 4.978967,-0.91452 1.16417,-0.2256 2.41433,-0.46471 2.77813,-0.53134 3.80554,-0.69701 6.99152,-1.32686 8.86354,-1.75227 2.40001,-0.54539 5.88458,-1.28213 6.81302,-1.44047 1.10103,-0.18778 1.16658,-0.30768 0.60589,-1.10818 -0.36866,-0.52633 -0.46235,-0.5358 -2.05053,-0.20741 -3.19048,0.6597 -17.91956,3.46741 -19.3913,3.69644 -0.58208,0.0906 -1.891767,0.32715 -2.910407,0.5257 -1.01865,0.19854 -2.20927,0.42131 -2.64584,0.49503 -1.43291,0.24198 -2.61549,0.44937 -4.7625,0.83518 -7.67795,1.37971 -9.92021,1.76874 -10.9302,1.89635 -1.08821,0.13749 -1.13752,0.18196 -1.07323,0.96778 0.0927,1.13348 0.17735,1.24261 0.84101,1.08462 0.3185,-0.0758 0.93628,-0.18159 1.37284,-0.23503 z m 51.794967,-0.0165 c 0.60372,-0.25225 0.98606,-0.62155 1.09569,-1.05833 0.0926,-0.36899 0.29431,-0.67088 0.44822,-0.67088 0.48573,0 -0.007,-6.44769 -0.7008,-9.16492 -0.64899,-2.54279 -1.60191,-4.85799 -1.99951,-4.85799 -0.1295,0 -0.23545,-0.1586 -0.23545,-0.35243 0,-0.53406 -2.8248,-2.51435 -4.06554,-2.85009 -1.54862,-0.41905 -4.3157,-0.16714 -5.59175,0.50906 -1.91908,1.01696 -3.83646,3.11079 -3.83646,4.18951 0,0.42805 0.22786,0.48832 1.84607,0.48832 1.66112,0 1.91897,0.0729 2.57368,0.72761 0.49293,0.49293 0.60154,0.72891 0.33674,0.73165 -0.34271,0.004 -0.34307,0.0343 -0.003,0.24945 0.24342,0.15395 0.50849,0.1454 0.71135,-0.023 0.23574,-0.19566 0.50527,0.007 0.99494,0.74651 0.80422,1.21526 1.37693,2.99633 1.77023,5.50523 0.76052,4.85143 3.42074,7.18181 6.65546,5.83025 z M 21.981563,170.05785 c 0.17883,-0.43173 0.43679,-0.78497 0.57324,-0.78497 0.13646,0 0.18233,-0.10641 0.10195,-0.23648 -0.0804,-0.13006 0.0454,-0.69485 0.27946,-1.2551 0.60938,-1.45844 0.62267,-4.74615 0.0237,-5.85061 -0.44576,-0.82188 -0.98195,-1.14975 -0.98195,-0.60043 0,0.1427 -0.48619,1.2828 -1.08041,2.53354 -0.97704,2.05648 -1.06392,2.40507 -0.90802,3.64314 0.0948,0.75299 0.35418,1.93982 0.57635,2.6374 0.44524,1.39798 0.81006,1.37569 1.41571,-0.0865 z m 160.730727,-1.24057 c 3.41062,-4.85864 5.17476,-8.55252 5.69937,-11.93372 0.9344,-6.02234 -2.46359,-12.38392 -8.01036,-14.9967 -4.23603,-1.99535 -8.77823,-1.79444 -13.56401,0.59997 -2.6364,1.31904 -5.68854,3.51393 -5.68854,4.0908 0,0.11312 0.52875,0.20567 1.17501,0.20567 0.64625,0 1.23912,0.10373 1.31747,0.23051 0.22492,0.36393 1.63808,0.0982 2.86587,-0.53897 1.56733,-0.81334 5.38335,-0.99714 7.3804,-0.35549 3.32548,1.06846 6.4128,3.53825 8.03497,6.42777 1.41142,2.51411 1.98044,4.78677 1.98044,7.90971 0,3.17608 -0.47176,5.28792 -1.82935,8.18901 -0.43377,0.92696 -0.70563,1.68396 -0.60414,1.68224 0.10149,-0.002 0.66079,-0.68158 1.24287,-1.5108 z M 37.622823,166.6722 c 0.20145,-3.09058 0.76886,-5.45615 1.82333,-7.6016 0.43341,-0.88183 0.78802,-1.73702 0.78802,-1.9004 0,-0.16339 0.23813,-0.37265 0.52917,-0.46503 0.29104,-0.0924 0.53107,-0.30875 0.53339,-0.48085 0.006,-0.47945 1.48033,-2.04471 1.72072,-1.82742 0.11659,0.10538 0.13049,0.0495 0.0309,-0.12417 -0.25913,-0.45187 2.654,-2.797 4.65444,-3.7469 0.91273,-0.43341 2.37389,-0.97889 3.24702,-1.21218 2.19102,-0.58542 5.83165,-0.84387 6.30879,-0.44788 0.20406,0.16935 0.56543,0.2333 0.80306,0.14211 0.23763,-0.0912 1.22034,0.0476 2.18379,0.30839 1.50488,0.40735 2.68968,0.96148 5.74184,2.68543 1.90907,1.07831 6.42338,6.19968 8.50503,9.64873 0.824,1.36529 2.25436,4.27578 2.25436,4.58718 0,0.9826 2.04832,2.20051 2.49241,1.48196 0.0783,-0.12671 0.71042,-0.29901 1.40468,-0.38289 3.08562,-0.37279 5.73862,-0.78424 8.9352,-1.38577 6.39628,-1.20364 9.81247,-1.78971 13.096877,-2.24687 4.46977,-0.62216 6.3368,-1.2717 6.35588,-2.21123 0.003,-0.15934 0.23871,-0.58738 0.52328,-0.95118 0.73522,-0.93992 0.66041,-1.66046 -0.22678,-2.18454 -0.75563,-0.44636 -0.75649,-0.44605 -2.04475,0.7367 -0.70885,0.65079 -1.42566,1.18326 -1.59291,1.18326 -0.16725,0 -0.44157,0.16564 -0.60959,0.36809 -0.16802,0.20245 -0.62908,0.43448 -1.02458,0.51562 -3.77476,0.77441 -3.73207,0.77225 -5.823647,0.29492 -1.4783,-0.33737 -2.41125,-0.74019 -3.39182,-1.46452 -1.61749,-1.1948 -3.13802,-3.19906 -3.39618,-4.47661 -0.44634,-2.20886 -0.45579,-3.643 -0.0294,-4.46748 0.26906,-0.52032 0.41031,-1.38641 0.38257,-2.34587 -0.0498,-1.72308 0.2046,-2.49899 1.1927,-3.63769 0.79901,-0.92079 0.85768,-1.79636 0.29255,-4.36563 -0.20806,-0.94588 -0.38247,-2.32414 -0.38758,-3.0628 -0.0124,-1.79286 0.71566,-6.89761 1.08119,-7.5806 0.45818,-0.85614 1.25057,-3.76435 1.94475,-7.13763 0.35049,-1.70316 0.77642,-3.35668 0.94651,-3.67449 0.17008,-0.31782 0.36272,-0.94838 0.42808,-1.40126 0.0654,-0.45289 0.47737,-1.69821 0.91558,-2.76738 0.43821,-1.06918 0.72934,-2.01136 0.64696,-2.09375 -0.0824,-0.0824 -1.67067,-0.17504 -3.52952,-0.20592 -3.14745,-0.0523 -3.52175,-0.11525 -5.446,-0.91631 -1.13643,-0.4731 -2.129,-1.02371 -2.20569,-1.22356 -0.0767,-0.19986 -0.34604,-0.36338 -0.59856,-0.36338 -0.49901,0 -3.45301,-3.0679 -3.45301,-3.58615 0,-0.17479 -0.1786,-0.46603 -0.39688,-0.64718 -0.21828,-0.18116 -0.39687,-0.55293 -0.39687,-0.82615 0,-0.27322 -0.11428,-0.49677 -0.25396,-0.49677 -0.50071,0 -1.33354,-3.44664 -1.33354,-5.518821 0,-3.20363 1.31883,-6.88022 3.16208,-8.81513 0.37091,-0.38935 0.97203,-1.04419 1.33583,-1.455207 1.13787,-1.285534 2.30077,-1.922 5.26757,-2.882987 1.52841,-0.495073 5.89623,-0.479126 7.30014,0.02665 0.58208,0.209701 1.26438,0.383069 1.51622,0.38526 0.727527,0.0063 3.379897,1.826337 4.761337,3.267144 1.28229,1.33741 2.58598,3.37906 2.58598,4.0498 0,0.20192 0.11901,0.57388 0.26447,0.82657 0.14546,0.25269 0.38064,0.78685 0.52262,1.18703 0.14198,0.40019 0.36562,0.72761 0.49697,0.72761 0.13135,0 0.90505,-0.75885 1.71933,-1.68633 2.37813,-2.70872 5.60262,-5.722006 6.12309,-5.722006 0.10421,0 0.683,-0.333047 1.28619,-0.740103 0.60319,-0.407056 1.28343,-0.811734 1.51164,-0.899282 0.24978,-0.09583 0.54466,-0.775338 0.74089,-1.707295 0.17928,-0.851461 0.43796,-2.083893 0.57483,-2.738737 0.13687,-0.654843 0.47656,-2.262187 0.75487,-3.571874 0.2783,-1.309688 0.58042,-3.00083 0.67138,-3.758097 l 0.16537,-1.376847 -0.99968,-0.255174 c -0.54982,-0.140346 -1.89265,-0.394145 -2.98405,-0.563999 -1.09141,-0.169858 -4.24656,-0.711796 -7.01146,-1.204312 -2.7649,-0.492517 -5.50333,-0.965526 -6.08542,-1.051134 -0.58208,-0.08561 -1.23692,-0.205441 -1.4552,-0.266298 -0.21829,-0.06086 -0.87313,-0.180988 -1.45521,-0.266954 -0.58209,-0.08597 -2.359077,-0.386421 -3.948877,-0.667681 -1.5898,-0.281258 -3.1485,-0.511379 -3.46377,-0.511379 -0.46285,0 -0.84071,0.532897 -1.96226,2.767407 -5.11226,10.185333 -13.14178,16.29771 -23.99605,18.266705 -2.68767,0.48755 -9.59768,0.84088 -10.32638,0.52801 -0.26844,-0.11525 -0.73452,-0.18614 -1.03574,-0.15752 -0.30121,0.0286 -1.37277,-0.0826 -2.38125,-0.24717 -1.00847,-0.16457 -2.20409,-0.34797 -2.65692,-0.40755 -3.20376,-0.42159 -9.49052,-2.97228 -12.87293,-5.222863 -2.59333,-1.725538 -6.88742,-5.681765 -7.38355,-6.802601 -0.19157,-0.432805 -0.44875,-0.786918 -0.57149,-0.786918 -0.12275,0 -0.71876,-0.532368 -1.32448,-1.183042 l -1.1013,-1.183042 -6.21771,1.986608 c -3.41974,1.092636 -7.54573,2.458442 -9.16888,3.035125 -1.62314,0.576686 -3.14281,1.048517 -3.37703,1.048517 -0.2342204,0 -0.6325904,0.119674 -0.8852804,0.265943 -0.38457,0.22261 -4.07933,1.545654 -5.68495,2.035707 -0.84099,0.256675 -0.60585,2.063094 0.45702,3.511016 0.95223,1.297188 1.71452,3.78091 1.72188,5.61026 0.003,0.63955 0.22423,1.23372 0.64819,1.73757 0.35435,0.42113 0.72444,1.08511 0.82243,1.47551 0.13568,0.54059 0.34479,0.71303 0.87708,0.72327 1.44761,0.0279 3.1046804,0.32399 3.7946304,0.67815 0.39296,0.20171 0.89284,0.36674 1.11085,0.36674 0.21801,0 0.71756,0.29766 1.11011,0.66146 0.39255,0.3638 0.8329,0.66146 0.97857,0.66146 0.77925,0 4.94955,4.448301 4.94955,5.279501 0,0.13557 0.24715,0.66539 0.54922,1.17736 0.66648,1.1296 1.56367,4.65629 1.5546,6.11085 -0.0122,1.96174 -1.33384,6.97792 -1.90538,7.23194 -0.10914,0.0485 -0.19844,0.19989 -0.19844,0.3364 0,0.43786 -1.37973,2.34965 -1.59826,2.21459 -0.30882,-0.19086 -0.60619,1.42748 -0.33137,1.80342 0.12861,0.17594 0.5046,1.03427 0.83554,1.90739 0.33093,0.87313 0.71248,1.79425 0.84789,2.04693 0.13541,0.25269 0.2462,0.67536 0.2462,0.93928 0,0.26391 0.1005,0.59295 0.22333,0.73119 0.23298,0.26221 1.16465,2.64575 2.68376,6.86594 0.10476,0.29104 0.44603,1.0979 0.75836,1.79301 0.31233,0.69512 0.56788,1.44088 0.56788,1.65724 0,0.21636 0.10805,0.60013 0.2401,0.85282 0.2775,0.53099 1.55869,3.7061 2.42738,6.01568 0.32841,0.87312 0.93414,2.33195 1.34606,3.24185 0.41193,0.90989 0.74896,1.74558 0.74896,1.85709 0,0.19431 1.24074,3.29622 1.98206,4.95522 0.19507,0.43657 0.67704,1.62719 1.07105,2.64584 1.15907,2.99665 1.5089,3.80535 2.85655,6.60369 0.70369,1.4612 1.34266,2.86508 1.41992,3.11974 0.0773,0.25466 0.24565,0.46302 0.3742,0.46302 0.12854,0 0.23372,0.19844 0.23372,0.44098 0,0.24253 0.0893,0.35215 0.19844,0.24359 0.10914,-0.10857 0.27349,-1.3488 0.36521,-2.75608 z m 30.17745,-33.92555 c -4.08259,-0.50619 -8.22768,-2.35682 -10.45227,-4.66655 -2.08539,-2.16518 -2.56175,-2.74277 -2.56175,-3.10616 0,-0.19297 -0.17276,-0.49422 -0.3839,-0.66946 -0.45516,-0.37775 -0.80123,-2.36944 -0.54951,-3.16254 0.0974,-0.307 0.53499,-0.74323 0.97233,-0.96939 0.72108,-0.37288 0.85489,-0.37205 1.43645,0.009 0.35272,0.2311 0.6413,0.66831 0.6413,0.97157 0,0.38583 0.12135,0.50481 0.40418,0.39627 0.23274,-0.0893 0.59747,0.0763 0.85989,0.39032 0.60495,0.72399 3.05552,2.354 3.53905,2.354 0.21049,0 0.49582,0.10753 0.63407,0.23895 0.5221,0.49634 3.79515,1.13646 6.52961,1.27703 3.01052,0.15476 6.41107,-0.23709 7.66537,-0.88331 0.39296,-0.20245 1.01804,-0.36809 1.38907,-0.36809 0.37102,0 0.67459,-0.11906 0.67459,-0.26458 0,-0.14552 0.30285,-0.26458 0.67299,-0.26458 0.40747,0 1.10308,-0.39145 1.76314,-0.99219 1.86316,-1.69571 3.91387,-3.81814 3.91387,-4.05074 0,-0.12221 0.36563,-0.76396 0.8125,-1.42609 0.92747,-1.37426 1.68364,-1.55455 2.5524,-0.60858 0.87283,0.9504 0.96835,2.06044 0.34968,4.06347 -0.71497,2.31483 -2.01595,4.25625 -4.50744,6.72641 -1.43084,1.41858 -2.33006,2.08846 -3.12195,2.32572 -0.61175,0.18329 -1.11227,0.4337 -1.11227,0.55648 0,0.38319 -2.79363,1.37807 -4.27511,1.52246 -0.77739,0.0758 -1.53583,0.23763 -1.68542,0.35968 -0.43962,0.3587 -4.06688,0.50053 -6.16087,0.2409 z m -27.69839,-15.14203 c -0.58208,-0.1773 -1.3184,-0.47119 -1.63625,-0.65309 -0.31786,-0.1819 -0.69628,-0.33073 -0.84094,-0.33073 -0.58961,0 -3.54988,-1.98947 -3.81011,-2.56062 -0.15396,-0.33791 -0.42956,-0.61438 -0.61244,-0.61438 -0.53778,0 -2.41418,-3.04422 -3.10404,-5.03589 -0.78332,-2.2615 -0.90677,-5.26024 -0.31005,-7.53182 0.22936,-0.87312 0.53044,-1.627181 0.66907,-1.675691 0.13863,-0.0485 0.25205,-0.36135 0.25205,-0.69521 0,-0.33386 0.1786,-0.75523 0.39688,-0.93639 0.21828,-0.18116 0.39687,-0.44236 0.39687,-0.58046 0,-0.1381 0.14883,-0.40873 0.33073,-0.60139 0.1819,-0.19267 0.80698,-0.90946 1.38906,-1.59287 1.65834,-1.947 4.32419,-3.53186 6.919,-4.11337 1.39242,-0.31205 5.84319,-0.11112 7.10392,0.3207 2.13774,0.73221 4.27749,1.9809 5.47808,3.19683 0.39357,0.3986 0.83203,0.72473 0.97436,0.72473 0.14232,0 0.33231,0.2317 0.4222,0.5149 0.0899,0.28319 0.57139,0.9678 1.07002,1.52135 0.49863,0.55355 0.90937,1.27435 0.91274,1.60177 0.003,0.32742 0.10615,0.59531 0.22838,0.59531 0.9651,0 1.39063,7.713221 0.50047,9.071771 -0.25197,0.38456 -0.45813,0.89769 -0.45813,1.1403 0,0.58868 -1.03408,2.29174 -2.13687,3.51929 -0.2294,0.25535 -0.49355,0.66354 -0.58701,0.90708 -0.0935,0.24355 -0.35225,0.44281 -0.5751,0.44281 -0.22285,0 -0.40518,0.0989 -0.40518,0.21973 0,0.44229 -2.47821,1.9826 -4.19192,2.60547 -2.1173,0.76955 -6.66037,1.06238 -8.37579,0.53987 z m -1.659,-9.44152 c 1.08099,-0.8503 1.39032,-1.90781 0.87542,-2.99287 -0.80189,-1.68987 -2.83415,-2.03803 -4.15957,-0.71261 -0.7001,0.7001 -0.77968,0.92587 -0.62956,1.78594 0.35138,2.01303 2.47237,3.0533 3.91371,1.91954 z m 12.1247,-3.19181 c 0.65128,-0.34856 1.30826,-1.61539 1.30826,-2.52268 0,-0.96631 -0.988,-2.644161 -1.76565,-2.998481 -1.64743,-0.75062 -3.28633,0.0374 -3.82634,1.839781 -0.40339,1.34639 0.0609,2.88816 1.05559,3.50539 0.79295,0.49205 2.46704,0.58332 3.22814,0.17599 z m -7.55528,-2.6089 c 2.65194,-1.22395 3.64856,-4.172771 2.29954,-6.803961 -1.43109,-2.79127 -4.32048,-3.58246 -7.47662,-2.04729 -2.50385,1.21789 -2.79194,6.13302 -0.48022,8.193171 1.34272,1.19661 3.85681,1.48906 5.6573,0.65808 z m -31.61218,62.03959 c 0.5268,-1.04503 0.78822,-1.95924 0.78822,-2.75646 0,-1.50099 -0.51977,-4.54347 -0.7762,-4.54347 -0.106,0 -0.35202,0.29765 -0.54672,0.66146 -0.1947,0.3638 -0.45294,0.66145 -0.57387,0.66145 -0.12093,0 -0.21988,0.15547 -0.21988,0.34548 0,0.19001 -0.3094404,0.75555 -0.6876504,1.25677 -0.6645,0.8806 -0.68299,1.00486 -0.54881,3.68942 0.0764,1.52797 0.22719,3.00535 0.33518,3.28307 0.18115,0.46593 0.24443,0.44548 0.81892,-0.26458 0.3424204,-0.42324 0.9772904,-1.47316 1.4108104,-2.33314 z m 8.87134,-2.73587 c 0.83544,-1.94914 0.9928,-2.6135 0.99544,-4.20279 0.003,-1.83105 -0.47123,-4.21186 -0.89069,-4.47109 -0.33801,-0.20891 -2.63162,4.64721 -2.63162,5.57176 0,1.68054 0.9762,5.41722 1.41525,5.41722 0.0656,0 0.56586,-1.04179 1.11162,-2.3151 z m 93.872727,-0.2601 c 0.24275,-0.14432 -1.1089,-1.12437 -1.55462,-1.12722 -0.15,-10e-4 -0.41106,0.36476 -0.58014,0.8127 l -0.30742,0.81444 1.10931,-0.1835 c 0.61012,-0.10093 1.20991,-0.24332 1.33287,-0.31642 z m 26.87628,-1.26103 c 1.72693,-2.67032 2.39191,-3.38001 2.82797,-3.01812 0.29,0.24068 0.37355,0.20064 0.39832,-0.19085 0.0173,-0.27248 0.0178,-0.6191 0.001,-0.77026 -0.0618,-0.56354 2.8509,-3.05263 6.04929,-5.16961 1.81707,-1.2027 3.16255,-2.2338 2.98996,-2.29133 -0.60502,-0.20167 -4.36089,1.03573 -5.92347,1.95154 -2.46253,1.44325 -4.93657,4.10034 -6.27581,6.74016 -0.98174,1.93496 -1.72434,4.46804 -1.30995,4.46804 0.0717,0 0.63072,-0.77381 1.24236,-1.71957 z m -3.68422,0.3966 c 0,-0.29104 -0.11906,-0.52917 -0.26458,-0.52917 -0.14552,0 -0.26459,0.23813 -0.26459,0.52917 0,0.29104 0.11907,0.52917 0.26459,0.52917 0.14552,0 0.26458,-0.23813 0.26458,-0.52917 z m -34.39583,-1.91711 c 2.55385,-0.77832 4.23333,-2.97723 4.23333,-5.5426 0,-0.80684 -0.16084,-1.65495 -0.36744,-1.93749 -0.20209,-0.27638 -0.30092,-0.67585 -0.21962,-0.88772 0.0875,-0.22817 0.0343,-0.31506 -0.13063,-0.21313 -0.15314,0.0947 -0.5954,-0.0772 -0.98278,-0.38194 -0.66413,-0.5224 -0.68101,-0.58962 -0.29568,-1.17771 0.57158,-0.87234 0.53182,-1.03361 -0.55009,-2.23115 -2.24424,-2.48411 -7.090707,-2.34388 -9.595967,0.27764 -0.91857,0.96119 -1.00953,1.45543 -0.42216,2.29401 0.36757,0.52478 0.34599,0.65127 -0.26459,1.55101 -0.82523,1.21605 -0.90011,3.40626 -0.17117,5.00682 0.4346,0.95424 2.38778,3.02527 2.88058,3.05438 0.10872,0.006 0.79299,0.17517 1.52059,0.37499 1.3537,0.37177 2.724617,0.31301 4.365627,-0.18711 z M 9.2296626,157.40482 c 1.6550104,-2.35938 1.9905704,-4.47012 1.2067204,-7.59063 -0.4430304,-1.7637 -0.7346804,-2.09726 -1.0273804,-1.17502 -0.0931,0.29316 -0.27966,0.46473 -0.41471,0.38126 -0.13504,-0.0835 -0.24916,0.004 -0.25359,0.1946 -0.004,0.19049 -0.39649,1.13702 -0.87125,2.10341 -0.85897,1.74846 -0.86218,1.76984 -0.65467,4.36562 0.31391,3.92685 0.4099,4.00883 2.01488,1.72076 z M 116.31694,157.01757 c 0.47015,-2.18165 3.20377,-5.19931 5.23566,-5.77966 0.6046,-0.17269 1.24984,-0.42821 1.43387,-0.56784 0.52384,-0.39745 3.85525,-0.54629 4.85349,-0.21684 0.49353,0.16288 0.98744,0.29514 1.09757,0.29391 0.97577,-0.0109 4.91621,2.87 4.49782,3.2884 -0.11008,0.11008 -0.0402,0.16045 0.15521,0.11194 0.19544,-0.0485 0.4931,0.14062 0.66146,0.42027 0.16836,0.27965 0.52199,0.76963 0.78585,1.08884 0.5,0.60487 0.5562,0.60446 3.55193,-0.026 0.35187,-0.074 0.80271,-0.53744 1.1112,-1.14212 0.87849,-1.72199 3.65683,-4.30717 7.00139,-6.51464 1.82277,-1.20306 2.56601,-2.18244 4.21659,-5.55625 1.22933,-2.51277 2.82144,-6.87888 2.82144,-7.73736 0,-0.27985 0.0818,-0.59062 0.18178,-0.69059 0.22801,-0.22801 0.24737,-0.3588 0.67185,-4.53663 0.72907,-7.17574 -0.19433,-14.75707 -2.74955,-22.57459 -3.23932,-9.910421 -10.6434,-17.967031 -18.51702,-20.148922 -3.86839,-1.071986 -6.90007,-0.483172 -11.99137,2.328968 -1.16023,0.640843 -2.60372,1.570143 -3.20775,2.065093 -0.74056,0.60684 -1.25992,0.84725 -1.59465,0.73817 -0.32491,-0.10587 -0.38502,-0.081 -0.17397,0.0721 0.22886,0.16601 -0.4239,0.97361 -2.24896,2.78245 -2.56838,2.54556 -4.18874,4.28579 -4.68807,5.03491 -0.14552,0.21831 -0.797,1.096941 -1.44774,1.952491 -3.00145,3.94615 -6.41349,10.79498 -7.84405,15.745 -1.141157,3.94865 -1.681047,6.30256 -1.457177,6.3533 0.0911,0.0206 0.84053,0.0504 1.665387,0.0661 1.20315,0.0229 1.63619,0.15674 2.18964,0.67646 1.37202,1.28841 1.45479,1.7377 1.29427,7.02488 -0.14017,4.61655 0.0133,6.46292 0.68161,8.20227 0.11183,0.29104 0.48101,1.36018 0.82039,2.37586 0.33938,1.01568 0.90197,2.14677 1.2502,2.51354 0.89403,0.94162 1.34983,1.88681 1.55217,3.21876 0.0963,0.63374 0.36757,1.37312 0.60288,1.64306 0.23531,0.26993 0.40324,0.53566 0.37318,0.59051 -0.0301,0.0548 0.13139,0.54495 0.35877,1.08914 0.37106,0.88807 0.39841,2.56738 0.0608,3.73181 -0.0593,0.2047 0.59756,0.72162 1.60863,1.2658 0.93992,0.5059 1.90208,1.09459 2.13813,1.30822 0.23606,0.21363 0.50883,0.30878 0.60616,0.21145 0.0973,-0.0973 0.17697,-0.031 0.17697,0.14733 0,0.17836 0.11812,0.25129 0.26249,0.16206 0.14436,-0.0892 0.47053,-0.0458 0.7248,0.0965 0.61108,0.34198 1.04546,-0.0351 1.27673,-1.10826 z m 13.40862,-25.76739 c -0.32958,-0.0633 -0.526,-0.23369 -0.43647,-0.37854 0.0895,-0.14485 0.002,-0.23662 -0.19452,-0.20394 -0.1965,0.0327 -0.5954,-0.0402 -0.88644,-0.16205 -0.77313,-0.32359 -2.56395,-2.22491 -2.44051,-2.5911 0.0581,-0.17248 -0.0549,-0.43265 -0.25114,-0.57818 -0.58575,-0.43431 -0.73628,-2.95147 -0.22332,-3.73435 0.57998,-0.88517 1.59021,-0.78234 1.59634,0.16248 0.002,0.3638 0.27267,1.16747 0.60069,1.78594 0.32802,0.61846 0.54621,1.12448 0.48487,1.12448 -0.29639,0 1.52994,1.70787 1.91123,1.78726 1.89873,0.39536 2.60065,0.3466 3.73206,-0.25921 1.03655,-0.55501 2.20273,-1.9297 1.98036,-2.33444 -0.0438,-0.0797 0.0298,-0.31783 0.16345,-0.52916 0.1668,-0.26368 0.24434,-0.28047 0.24712,-0.0535 0.006,0.48846 0.81994,0.4016 1.20783,-0.12888 0.3017,-0.4126 0.36131,-0.36523 0.5827,0.46302 0.26231,0.98136 0.16989,1.58409 -0.2429,1.58409 -0.13854,0 -0.17831,-0.11906 -0.0884,-0.26458 0.18038,-0.29186 -0.20704,-0.36622 -0.48095,-0.0923 -0.0948,0.0948 0.0245,0.31617 0.26501,0.49203 0.40173,0.29376 0.3902,0.39596 -0.14176,1.25668 -0.63686,1.03047 -1.15944,1.35083 -1.55624,0.95404 -0.16844,-0.16845 -0.37163,0.0142 -0.58271,0.5238 -0.25182,0.60792 -0.58151,0.84724 -1.47828,1.07305 -1.14033,0.28714 -2.60321,0.32728 -3.76805,0.10339 z m 13.49767,-5.04861 c -0.32742,-0.0509 -0.59531,-0.2034 -0.59531,-0.33881 0,-0.1354 -0.14601,-0.21641 -0.32445,-0.18003 -0.17845,0.0364 -0.36652,-0.21085 -0.41793,-0.5494 -0.061,-0.40196 -0.22322,-0.56575 -0.46741,-0.47205 -0.41842,0.16057 -1.49547,-0.85117 -1.27899,-1.20143 0.0763,-0.12349 0.0221,-0.22452 -0.12042,-0.22452 -0.33511,0 -0.62686,-1.34617 -0.62686,-2.89237 0,-1.44766 1.07026,-3.4228 2.224,-4.10433 0.41111,-0.24285 0.74747,-0.36071 0.74747,-0.2619 0,0.0988 0.14883,0.0598 0.33073,-0.0868 1.41917,-1.14325 5.49011,-0.0118 5.49011,1.52592 0,0.27068 0.23203,0.56578 0.51563,0.65579 0.2836,0.09 0.60276,0.42546 0.70925,0.74544 0.33132,0.99554 0.31502,3.19048 -0.0299,4.02136 -0.44486,1.07173 -2.0497,2.72022 -2.81916,2.89583 -1.79758,0.41025 -2.80058,0.5507 -3.3368,0.46728 z m 1.23053,-4.09072 c 0.30127,-0.81048 0.0946,-1.22954 -0.70557,-1.43036 -0.47732,-0.1198 -0.7719,-0.0344 -1.01155,0.29336 -0.20318,0.27787 -0.4771,0.3827 -0.68643,0.26268 -0.19159,-0.10984 0.001,0.1759 0.42877,0.63497 0.91318,0.98082 1.66527,1.07198 1.97478,0.23935 z m 2.05971,-1.83205 c 0.92628,-0.8702 0.84979,-2.39462 -0.15608,-3.11087 -0.96943,-0.69029 -1.62171,-0.69242 -2.35667,-0.008 -0.53673,0.50005 -0.69497,0.86289 -0.60644,1.39058 0.0194,0.11565 0.0593,0.50021 0.0886,0.85459 0.0351,0.42457 0.32706,0.77943 0.85595,1.04048 1.08634,0.5362 1.45629,0.50777 2.17464,-0.16708 z m -27.96264,3.04454 c -1.13249,-0.34709 -2.67998,-1.24493 -2.92057,-1.69449 -0.15017,-0.2806 -0.45,-0.51018 -0.66628,-0.51018 -0.21628,0 -0.52256,-0.32743 -0.68062,-0.72761 -0.15806,-0.40018 -0.39363,-0.93434 -0.52349,-1.18703 -0.33263,-0.64722 -0.29771,-3.11245 0.0441,-3.11245 0.15411,0 0.20661,-0.11906 0.11668,-0.26458 -0.0899,-0.14552 -0.0374,-0.26458 0.11667,-0.26458 0.15411,0 0.2661,-0.0893 0.24887,-0.19844 -0.136,-0.86132 1.19269,-2.26975 1.92267,-2.03806 0.35353,0.1122 0.44576,0.0481 0.33729,-0.23462 -0.19234,-0.50122 0.82713,-0.71326 2.87477,-0.59794 1.59749,0.09 3.36327,0.82995 3.36327,1.40943 0,0.18519 0.0934,0.33671 0.20753,0.33671 0.31325,0 1.16712,1.55432 1.00129,1.82265 -0.0796,0.12873 0.0326,0.38119 0.2493,0.56102 0.49401,0.40999 0.50784,1.85869 0.0287,3.00548 -0.51768,1.23899 -2.23974,3.02705 -3.1927,3.31506 -1.28414,0.38811 -2.09996,0.51065 -2.52744,0.37963 z m -0.68932,-3.60678 c 0.31278,-0.22872 0.4404,-0.60509 0.38129,-1.12448 -0.0727,-0.63871 -0.22799,-0.79659 -0.85388,-0.86804 -0.43453,-0.0496 -0.86142,0.0647 -0.98814,0.26458 -0.37496,0.59148 -0.25686,1.5013 0.23183,1.78594 0.60384,0.3517 0.67306,0.34843 1.2289,-0.058 z m 2.48254,-2.44935 c 0.881,-0.61709 0.82081,-2.27704 -0.10911,-3.00851 -2.0132,-1.58358 -4.30682,0.71004 -2.72324,2.72324 0.63876,0.81204 1.89904,0.93898 2.83235,0.28527 z m 27.70782,-3.78169 c -0.29104,-0.0946 -1.01016,-0.49875 -1.59804,-0.89803 -0.58788,-0.39928 -1.42131,-0.74223 -1.85208,-0.76211 -0.43076,-0.0199 -0.99157,-0.0882 -1.24623,-0.15176 -0.64387,-0.16077 -0.5982,-1.3119 0.0661,-1.66745 0.29104,-0.15576 0.52916,-0.19567 0.52916,-0.0887 0,0.10699 0.14288,0.0516 0.3175,-0.12298 1.18412,-1.18412 5.24652,1.62657 4.80289,3.32302 -0.16413,0.62764 -0.19101,0.63735 -1.01935,0.368 z m -31.94652,-4.17614 c -0.29232,-0.64155 -0.24503,-0.75726 0.59648,-1.45979 1.5319,-1.27889 3.57495,-1.6188 5.17273,-0.8606 1.00677,0.47774 1.37929,1.26062 0.8839,1.85753 -0.25174,0.30333 -0.63189,0.36179 -1.54322,0.23735 -0.86036,-0.11748 -1.70534,-0.009 -2.92899,0.37518 -0.94588,0.29716 -1.75211,0.54183 -1.79161,0.5437 -0.0395,0.002 -0.21468,-0.31014 -0.38929,-0.69337 z m -98.011127,44.54561 c 1.21448,-3.43462 1.3602,-6.35109 0.44257,-8.85768 -0.28677,-0.78332 -1.05678,-1.22079 -1.05678,-0.6004 0,0.14273 -0.48698,1.29901 -1.08218,2.56951 l -1.08217,2.31002 0.29622,1.99455 c 0.16292,1.097 0.49395,2.62249 0.73562,3.38998 0.39642,1.25892 0.47943,1.35541 0.84851,0.98633 0.22501,-0.225 0.6292,-1.03154 0.89821,-1.79231 z m -5.12311,-3.94846 c -0.17925,-0.84468 -0.4287,-1.53578 -0.55434,-1.53578 -0.12564,0 -0.22843,0.0972 -0.22843,0.21599 0,0.45114 0.56076,3.3735 0.72011,3.75276 0.34287,0.81608 0.38717,-0.90383 0.0627,-2.43297 z m -4.9024104,-2.17767 c 1.05,-2.06868 1.04987,-2.06763 0.84774,-6.96196 -0.0558,-1.35224 -0.6036,-1.23103 -1.80868,0.40022 -1.13106,1.53107 -1.88884,3.65022 -1.66745,4.66312 0.0669,0.30587 0.17333,1.27051 0.23661,2.14363 0.0633,0.87313 0.19972,1.801 0.30321,2.06195 0.17052,0.42993 0.23057,0.43607 0.64006,0.0655 0.24853,-0.22492 0.90036,-1.29253 1.44851,-2.37245 z m 8.5313004,-5.56579 c 0.42064,-1.70453 0.42194,-1.96932 0.0193,-3.91633 -0.23748,-1.1485 -0.57816,-2.26456 -0.75707,-2.48012 -0.34164,-0.41166 -0.65923,0.11452 -2.07129,3.43179 -0.81075,1.90464 -0.63356,4.34735 0.52141,7.18796 l 0.32273,0.79375 0.75687,-1.59445 c 0.41628,-0.87696 0.95988,-2.41713 1.20801,-3.4226 z m 143.371617,1.4285 c 3.66498,-3.02597 6.52887,-4.48741 10.90057,-5.56257 0.76398,-0.18789 1.38906,-0.442 1.38906,-0.56469 0,-0.12268 -0.18883,-0.66572 -0.41963,-1.20675 -0.2308,-0.54102 -0.82349,-2.29337 -1.3171,-3.8941 -0.49361,-1.60073 -1.09404,-3.35086 -1.33429,-3.88919 l -0.43683,-0.97876 -1.55065,0.78277 c -2.70388,1.36491 -5.14771,1.70565 -8.48113,1.18252 l -1.23651,-0.19406 -0.1801,1.28378 c -0.69485,4.95309 -2.1747,10.06066 -3.90351,13.47266 l -0.66117,1.30486 h 2.56406 2.56406 z m -60.803367,-0.66289 c 1.100447,-0.0493 2.197417,0.0156 2.437717,0.14423 1.15845,0.61998 1.29031,-0.80076 0.31867,-3.43341 -0.32592,-0.88308 -0.43943,-2.07908 -0.43943,-4.63021 0,-2.98418 0.0737,-3.57971 0.55655,-4.49792 0.39686,-0.75466 0.54869,-1.50371 0.52917,-2.61054 -0.0247,-1.39777 -0.10637,-1.61283 -0.82114,-2.16131 -0.72287,-0.5547 -0.87917,-0.57944 -1.750427,-0.2771 -1.77679,0.61657 -2.73663,2.06221 -3.64141,5.48439 -1.17721,4.45261 -0.80126,13.06696 0.53425,12.24157 0.15138,-0.0936 1.1756,-0.21042 2.27605,-0.2597 z m -93.0690104,-3.051 c 0.57371,-0.88764 1.11988,-1.85577 1.21372,-2.15141 0.21058,-0.66349 -0.12722,-5.44875 -0.39639,-5.6151 -0.10744,-0.0664 -0.81072,0.61577 -1.56283,1.51593 -1.34889,1.61441 -1.36748,1.66085 -1.36748,3.41464 0,2.01564 0.44935,4.44984 0.82144,4.44984 0.13664,0 0.71783,-0.72625 1.29154,-1.6139 z m 7.0888404,-2.81787 c 0.44742,-0.98226 0.95252,-2.31661 1.12245,-2.96522 0.36542,-1.39474 0.12482,-4.28154 -0.44951,-5.39333 -0.3678,-0.71199 -0.4079,-0.72599 -0.75752,-0.26458 -0.20304,0.26796 -0.37295,0.59153 -0.37758,0.71905 -0.005,0.12752 -0.37675,0.95668 -0.82693,1.84258 -0.49838,0.98075 -0.82327,2.02837 -0.83068,2.67856 -0.0144,1.26554 0.82186,5.16888 1.10742,5.16888 0.10937,0 0.56493,-0.80367 1.01235,-1.78594 z m 165.208147,0.39688 c 0.0957,-0.65984 -0.5504,-3.22493 -1.00906,-4.0059 -0.38362,-0.65321 -0.80539,-0.36833 -1.03878,0.70164 -0.10279,0.47127 -0.46914,1.19342 -0.8141,1.60477 -0.60033,0.71585 -0.84639,1.7416 -0.42877,1.78739 0.77653,0.0851 1.79556,0.29654 1.8914,0.39239 0.0633,0.0633 0.38456,0.11502 0.71398,0.11502 0.41917,0 0.62489,-0.1787 0.68533,-0.59531 z m -3.66176,-3.45083 c 1.33626,-3.059 1.25433,-6.03749 -0.22832,-8.3003 l -0.46493,-0.70958 -0.73226,1.61313 c -1.06221,2.34 -1.12002,2.87712 -0.54818,5.09289 0.95236,3.69017 1.22771,4.01158 1.97369,2.30386 z m -174.78897737,0.0551 c 2.88890997,-1.16839 5.69424997,-3.11737 6.81503997,-4.73466 0.62729,-0.90519 0.6925,-1.16181 0.45429,-1.78799 -0.15296,-0.40211 -0.3532,-1.18371 -0.44496,-1.73689 -0.16078,-0.96918 -0.19762,-0.99943 -1.0122,-0.83111 -0.46495,0.0961 -1.35268,0.23335 -1.97273,0.30506 -0.85647,0.099 -1.30151,0.33672 -1.85208,0.98914 -0.98603997,1.16844 -3.37503,2.23656 -5.41315,2.42021 -1.94799,0.17553 -4.35817,-0.5748 -5.53015,-1.72163 -0.66584,-0.65155 -1.6667796,-1.34652 -1.9393496,-1.34652 -0.0696,0 -0.24569,0.22257 -0.39127,0.49459 -0.1807,0.33765 -0.1568,1.17267 0.0753,2.63147 0.29974,1.88372 0.46322,2.27458 1.3798696,3.29924 0.91093,1.01828 2.89069,2.30196 4.08254,2.64714 1.06503,0.30845 4.30975,-0.046 5.74882003,-0.62805 z M 11.496933,128.40347 c 1.39203,-2.85473 1.27822,-4.0933 -0.37348,-4.06443 -0.50572,0.009 -1.1576104,-0.0275 -1.4486504,-0.0808 -0.47908,-0.0877 -0.53146,0.0534 -0.55335,1.49063 -0.0133,0.87313 0.15225,2.39187 0.3679,3.37498 0.47026,2.14379 0.6408004,2.0826 2.0075804,-0.72037 z m 154.043717,-2.12989 c 0.59654,-0.22315 1.32721,-0.67063 1.6237,-0.99439 0.51748,-0.56505 0.52428,-0.67329 0.1698,-2.70032 -0.38676,-2.21164 -1.04577,-3.31401 -1.72694,-2.88882 -0.19658,0.12271 -0.51716,0.24729 -0.71239,0.27684 -0.19524,0.0296 -0.3801,0.0924 -0.41081,0.13973 -0.0307,0.0473 -0.25928,0.4113 -0.50793,0.80889 -0.65236,1.0431 -2.40415,1.81878 -4.48098,1.98414 l -1.78593,0.1422 v 1.53634 c 0,0.90359 0.12986,1.61659 0.31531,1.7312 1.35711,0.83875 5.22754,0.82031 7.51617,-0.0358 z m 6.8608,-1.73107 c 0.4783,-1.82989 0.39245,-4.66269 -0.17933,-5.91761 -0.30111,-0.66086 -0.30398,-0.66133 -0.99132,-0.1657 -1.56313,1.12716 -1.88001,1.58868 -1.87849,2.73592 0.002,1.23536 0.36288,2.79492 0.94149,4.06457 0.20897,0.45856 0.37995,0.94076 0.37995,1.07157 0,0.1308 0.13978,0.37761 0.31063,0.54845 0.4451,0.4451 0.87531,-0.26445 1.41707,-2.3372 z m -175.0114574,1.60324 c 0.26474,0 0.80094,-0.27491 1.19156,-0.6109 l 0.71022003,-0.61091 -1.95224003,-0.85367 c -2.72896,-1.19332 -4.61494,-2.74064 -5.98931,-4.91381 -0.84468,-1.33564 -1.13355,-2.27148 -1.3543496,-4.38779 l -0.17943,-1.71979 -0.59125,0.92604 c -1.88768,2.95658 -1.24919,7.29454 1.4618196,9.93171 1.58072,1.53765 4.02959,2.59752 5.46097,2.36349 0.41837,-0.0684 0.97728,-0.12437 1.24201,-0.12437 z m 6.46398,-3.51112 c 0.87312,-0.15076 2.18281,-0.53129 2.91041,-0.84562 1.21175,-0.52347 1.42297,-0.54149 2.51354,-0.21438 2.3015604,0.69033 5.6137104,-0.38599 7.2901604,-2.369 0.40224,-0.4758 1.14553,-1.73493 1.65177,-2.79807 2.09896,-4.40804 1.12843,-9.62374 -2.5251,-13.56999 -3.07448,-3.320801 -7.2603604,-4.401611 -12.1216804,-3.129851 -2.55193,0.667601 -4.15345997,1.508311 -5.66423,2.973401 -1.60803,1.55941 -2.35132,2.84732 -2.90458,5.03282 -0.38508,1.52111 -0.58803,1.91172 -1.02786,1.97823 -0.79835,0.12074 -2.0918,1.72035 -2.44165,3.01959 -0.26224,0.97387 -0.22861,3.16218 0.0683,4.44265 0.18142,0.78249 1.28961,2.32675 2.4125,3.36179 2.1524,1.98402 5.91939003,2.79513 9.83846,2.11843 z m 157.2743774,-2.74854 0.62651,-0.43883 -1.29524,-0.50588 c -0.71238,-0.27824 -1.62143,-0.81623 -2.02009,-1.19553 -0.39866,-0.37931 -0.76175,-0.6388 -0.80687,-0.57665 -0.0451,0.0622 -0.0353,0.79762 0.0217,1.63436 l 0.10375,1.52136 h 1.37184 c 0.8495,0 1.61041,-0.1671 1.99837,-0.43883 z m 7.65673,-3.02106 c 1.25051,-0.37466 2.32691,-1.30374 3.40395,-2.93809 l 0.73368,-1.1133 0.0821,0.97751 c 0.0452,0.53763 0.1675,0.97752 0.27185,0.97752 0.90127,0 2.43334,-2.21895 3.11354,-4.50945 0.34827,-1.17273 0.36975,-1.73848 0.12778,-3.36535 -0.83272,-5.59883 -4.38957,-9.587741 -8.98731,-10.079001 -4.30167,-0.45964 -8.73523,1.67077 -10.80515,5.192071 -0.64203,1.09222 -0.7431,1.55935 -0.79042,3.65322 -0.0787,3.4824 0.71606,5.78705 2.8918,8.38573 2.39057,2.85527 6.21956,3.93926 9.95816,2.81914 z M 89.549063,102.6092 c 1.53952,-0.58532 1.86418,-3.018611 0.56553,-4.238631 -0.53105,-0.49889 -0.842,-0.58156 -1.73628,-0.46161 -1.89585,0.25428 -2.73891,1.6501 -2.08646,3.454441 0.45031,1.24531 1.85022,1.78074 3.25721,1.2458 z m 66.506457,-4.499851 c 1.26937,-1.46555 1.33273,-1.84275 0.6153,-3.66289 -0.28005,-0.71048 -0.88541,-2.8212 -1.34526,-4.69048 -0.45984,-1.869288 -1.00128,-3.822466 -1.20319,-4.340404 -0.20192,-0.517935 -0.66599,-2.072793 -1.03128,-3.455241 -1.06333,-4.024185 -4.61859,-13.535702 -7.61509,-20.372916 -2.27463,-5.190098 -6.25749,-12.87001 -9.53643,-18.38854 -2.38495,-4.013917 -3.20237,-5.412184 -4.14671,-7.093302 -0.47487,-0.845378 -0.92677,-1.473689 -1.00421,-1.396248 -0.14171,0.14171 -0.75482,3.347233 -1.0165,5.31455 -0.0774,0.582083 -0.20076,1.236842 -0.27409,1.455018 -0.0733,0.218178 -0.19121,0.873021 -0.26198,1.455208 -0.12637,1.039751 -0.42303,2.528247 -1.81932,9.128315 -0.61617,2.912589 -2.41667,10.234035 -4.15601,16.899773 -0.56195,2.15357 -0.56434,2.22545 -0.0855,2.575554 0.91328,0.667806 1.45751,1.792134 1.4593,3.014779 0.002,1.264089 -0.71196,5.295307 -1.46565,8.27724 -0.2496,0.98751 -0.38644,1.862844 -0.3041,1.945185 0.0823,0.08234 0.72297,-0.0264 1.42362,-0.241654 0.70065,-0.215255 1.77253,-0.541658 2.38196,-0.72534 1.39205,-0.419576 5.90426,-0.190203 8.15237,0.414415 3.80403,1.023077 8.87915,4.444155 12.14087,8.184028 2.14282,2.45694 4.21779,5.60362 3.96493,6.01276 -0.0992,0.16043 -0.0638,0.21968 0.0786,0.13167 0.1424,-0.088 0.71704,0.77964 1.27698,1.928101 l 1.01807,2.08811 0.81442,-1.57971 c 0.44794,-0.86884 1.32045,-2.163931 1.93891,-2.877981 z m -158.8244174,1.5479 c 1.33261,-0.78627 1.52108,-1.2594 1.16726,-2.93025 -0.34092,-1.60988 -2.76097,-7.860252 -3.22858,-8.338589 -0.24291,-0.248481 -0.48672,-0.235913 -1.1054,0.05698 -0.43656,0.20668 -1.13405,0.50092 -1.54998,0.653865 -0.6983,0.256774 -0.74293,0.353774 -0.58257,1.265934 0.0955,0.54332 0.40007,1.4641 0.67677,2.04619 0.27671,0.58208 0.73144,1.59411 1.01052,2.24895 0.27907,0.65485 0.68528,1.60735 0.90269,2.11667 0.21741,0.50932 0.62015,1.49114 0.89497,2.18182 0.27483,0.69068 0.58218,1.256231 0.683,1.256771 0.10082,5.3e-4 0.60991,-0.250711 1.13132,-0.558341 z M 102.41284,98.963839 c 0.34814,-0.44258 0.52758,-1.07252 0.52758,-1.8521 0,-0.99078 -0.14515,-1.32656 -0.89958,-2.08099 -0.62784,-0.62784 -1.14215,-0.89958 -1.70257,-0.89958 -1.206687,0 -2.131677,0.44134 -2.466877,1.17702 -0.16501,0.36215 -0.37946,0.60937 -0.47657,0.54935 -0.28095,-0.17363 0.11828,2.3129 0.47685,2.96998 0.17868,0.32742 0.35044,0.59711 0.3817,0.5993 0.0313,0.002 0.52515,0.16698 1.09752,0.36621 1.257177,0.437571 2.284307,0.15942 3.061947,-0.82919 z M 3.3321326,96.060669 c 0.66642,-1.54269 0.77374,-3.76388 0.26621,-5.50973 -0.81712,-2.81079 -0.93914,-2.805866 -2.27082,0.0917 -1.29507997,2.8179 -1.44664997,4.13282 -0.68615997,5.95293 l 0.41592997,0.99545 1.03497,-0.528 c 0.56924,-0.29041 1.12718,-0.74144 1.23987,-1.0023 z m 90.1832704,1.10966 c 0.52709,-0.22024 0.95835,-0.33838 0.95835,-0.26255 0,0.0758 0.37362,-0.19045 0.83027,-0.59176 2.27705,-2.0011 2.39737,-5.47828 0.25201,-7.283476 -2.31539,-1.948272 -6.1453,-1.448086 -7.57359,0.989106 -1.60128,2.73238 -0.23376,6.20014 2.82072,7.15282 1.50162,0.46835 1.58169,0.46823 2.71224,-0.004 z m -88.2062304,-0.9225 c 0,-0.14552 -0.12609,-0.26458 -0.2802,-0.26458 -0.1541,0 -0.20661,0.11906 -0.11667,0.26458 0.0899,0.14553 0.21603,0.26459 0.2802,0.26459 0.0642,0 0.11667,-0.11906 0.11667,-0.26459 z M 161.35816,94.968199 c 0.75885,-0.26724 1.44152,-0.54768 1.51705,-0.62321 0.19931,-0.19932 -0.58855,-3.41507 -0.91721,-3.74374 -0.31545,-0.31545 -1.05021,0.47573 -1.06678,1.14867 -0.005,0.21828 -0.3031,0.87312 -0.66161,1.45521 -0.63298,1.02769 -0.88264,2.24895 -0.45977,2.24895 0.11473,0 0.82947,-0.21864 1.58832,-0.48588 z m -2.03308,-3.5271 c 0.86055,-1.78428 1.29673,-3.570447 1.28142,-5.247432 -0.0152,-1.664747 -0.69702,-4.101041 -1.14772,-4.101041 -0.36241,0 -2.26623,4.435694 -2.27121,5.291666 -0.008,1.357291 1.18386,5.275237 1.53631,5.050677 0.0968,-0.0616 0.36729,-0.50888 0.6012,-0.99387 z M 0.18285263,89.500959 c 0.99236997,-2.416128 1.02961997,-5.041762 0.10507,-7.404584 l -0.61971,-1.583754 -1.14827003,2.478085 c -0.63155,1.362948 -1.14698,2.790013 -1.1454,3.171254 0.006,1.330962 1.52029,5.770519 1.84658003,5.411979 0.11057,-0.1215 0.54334,-1.05433 0.96173,-2.07298 z M 63.641993,88.04575 c -0.004,-0.218281 -0.14586,-1.111249 -0.31461,-1.984374 -0.16875,-0.873125 -0.50241,-2.778125 -0.74148,-4.233334 -0.23906,-1.455208 -0.54317,-3.241145 -0.67579,-3.968749 -0.32697,-1.793889 -1.03322,-6.245349 -1.18522,-7.470389 -0.068,-0.547952 -0.29655,-2.008309 -0.5079,-3.245236 -1.33183,-7.794397 -1.77763,-11.239251 -3.54377,-27.384373 -0.96826,-8.851387 -1.64523,-23.140661 -1.61525,-34.0944611 0.0123,-4.490913 -0.0519,-8.2395057 -0.14256,-8.3302049 -0.0907,-0.090696 -0.51021,-0.9109233 -0.93224,-1.8227224 -0.42203,-0.9117991 -0.87324,-1.6578183 -1.00269,-1.6578183 -0.28931,0 -1.34065,2.8763144 -1.64407,4.4979165 -0.70938,3.7912381 0.0852,22.6611592 1.45945,34.6604152 0.20833,1.81901 0.56233,5.212291 0.78668,7.540624 0.22433,2.328334 0.48115,4.828646 0.57069,5.55625 0.0896,0.727604 0.20925,1.918229 0.26601,2.645833 0.0896,1.149144 0.29518,2.755961 1.06609,8.334375 0.20707,1.498391 0.20752,1.501402 0.89315,5.953125 0.31377,2.037291 0.60554,3.942291 0.64837,4.233333 0.24714,1.679397 1.54281,9.33605 1.90285,11.244791 0.23332,1.236927 0.57909,3.260989 0.76837,4.497916 0.91211,5.960234 0.74788,5.609791 2.57918,5.503572 1.01267,-0.05874 1.3705,-0.183674 1.36474,-0.476489 z m 5.56406,-0.314634 c 1.90477,-0.402521 5.58968,-1.655445 7.23923,-2.461448 l 1.4184,-0.693057 -0.13557,-2.21728 c -0.0746,-1.219504 -0.20087,-2.322936 -0.28068,-2.452068 -0.1734,-0.280562 -0.61215,-3.862118 -0.83431,-6.81047 -0.0877,-1.164167 -0.2157,-2.527104 -0.28441,-3.028749 -0.0687,-0.501645 -0.24562,-2.287582 -0.39316,-3.96875 -0.14753,-1.681167 -0.31665,-3.413855 -0.37581,-3.850417 -0.22967,-1.694905 -0.64344,-6.484549 -0.79999,-9.260416 -0.0903,-1.60073 -0.33856,-5.410729 -0.55175,-8.466667 -0.96431,-13.82279 -1.1886,-18.875765 -1.4177,-31.939855 -0.22508,-12.83441305 -0.28488,-14.0386643 -0.74898,-15.0812496 -1.73732,-3.9028288 -9.11196,-6.8976078 -14.7134,-5.9749846 -2.52559,0.4159965 -2.85034,0.7550229 -2.13699,2.2308925 0.27209,0.5629434 0.52256,1.1902069 0.5566,1.3939202 0.034,0.2037133 0.18867,0.4487545 0.34365,0.5445336 0.59451,0.3674295 0.7756,3.46639085 0.91286,15.6215369 0.13089,11.591707 0.44489,18.149815 1.21749,25.428002 0.14511,1.367046 0.38936,3.914288 0.54277,5.660538 0.15341,1.74625 0.44744,4.365625 0.65339,5.820833 0.20596,1.455208 0.42922,3.181614 0.49614,3.836458 0.22533,2.205096 0.67613,5.614267 0.79999,6.049975 0.0676,0.237773 0.19409,1.027629 0.2811,1.755233 0.087,0.727604 0.28013,2.015368 0.42915,2.861701 0.24294,1.379644 0.3898,2.449087 0.89691,6.531007 0.0814,0.654843 0.25798,1.726406 0.39249,2.38125 0.13452,0.654843 0.3154,1.737397 0.40197,2.405671 0.2034,1.570251 0.35512,2.4786 0.65881,3.944328 0.23237,1.121527 0.67044,3.55178 1.40694,7.805208 0.48402,2.795365 0.32101,2.717028 4.02486,1.934324 z m -13.62605,0.102793 c 0,-0.624827 -1.28228,-5.826974 -2.09384,-8.494603 -0.1508,-0.495681 -0.34444,-1.372328 -0.43032,-1.948106 -0.0859,-0.575776 -0.45468,-2.07522 -0.81957,-3.332094 -0.36489,-1.256876 -0.7653,-2.76148 -0.88982,-3.343563 -0.12451,-0.582083 -0.46039,-1.891771 -0.74639,-2.910417 -1.24952,-4.450365 -4.12839,-15.28026 -5.09916,-19.18229 -1.34416,-5.402874 -4.79091,-19.606294 -5.04022,-20.769791 -0.15591,-0.727604 -0.51572,-2.334948 -0.79959,-3.571875 -0.28387,-1.236927 -0.57041,-2.487083 -0.63674,-2.778125 -0.0663,-0.291041 -0.76947,-3.505729 -1.5625,-7.143749 -3.36595,-15.4411887 -3.81028,-17.030083 -5.08508,-18.1837615 -1.37202,-1.2416658 -5.23286,-1.6687218 -8.07534,-0.8932307 -2.98075,0.8132127 -7.35059,2.9498844 -7.35059,3.5941369 0,0.38456125 0.7852,2.08487925 1.03371,2.2384702 0.53351,0.329729 1.65626,4.581408 2.03022,7.688135 0.0701,0.582083 0.19074,1.2364271 0.26817,1.4540941 0.0774,0.21767 0.36671,1.541981 0.64284,2.942918 0.27612,1.400935 0.67839,3.246903 0.89392,4.102153 0.35372,1.403585 1.07918,4.69669 1.33344,6.052918 0.0546,0.291041 0.23653,1.124479 0.40436,1.852083 0.29769,1.290579 0.54714,2.408671 1.04773,4.696354 0.13534,0.618463 0.37076,1.66026 0.52315,2.315104 0.15239,0.654844 0.33609,1.620861 0.40822,2.146707 0.0721,0.525846 0.26113,1.297996 0.42001,1.715889 0.15888,0.417891 0.45161,1.475936 0.6505,2.351207 0.19889,0.875273 0.7965,3.198749 1.32803,5.16328 0.53152,1.964531 1.30077,4.822031 1.70944,6.349999 0.74384,2.78112 1.31271,4.785876 2.55268,8.995833 1.3284,4.510215 1.73522,5.798074 3.71926,11.773958 1.11122,3.346979 2.04399,6.26401 2.07281,6.482291 0.0288,0.218282 0.28952,0.932657 0.57933,1.5875 0.7378,1.667121 1.25866,3.259259 1.16853,3.571875 -0.042,0.145521 0.012,0.176318 0.11986,0.06844 0.10788,-0.107878 0.35593,-0.06353 0.55121,0.09854 0.1953,0.162076 0.35508,0.199821 0.35508,0.08388 0,-0.115945 0.26789,0.03134 0.59531,0.327306 1.77255,1.602248 7.45955,3.91174 11.24733,4.567544 0.61986,0.10732 1.20525,0.273362 1.30087,0.36898 0.2481,0.2481 1.67315,0.215744 1.67315,-0.03799 z M -8.0431074,86.438478 c 2.21191,-0.769297 2.33533,-0.940144 1.63051,-2.257062 -1.41242,-2.638999 -3.6648296,-6.448385 -3.8980296,-6.592509 -0.14036,-0.08675 -0.2552,-0.378897 -0.2552,-0.649221 0,-0.270328 -0.0956,-0.531191 -0.21239,-0.5797 -0.11681,-0.04851 -0.67038,-0.862099 -1.23016,-1.807985 -0.55977,-0.945885 -1.92271,-3.067521 -3.02875,-4.714748 -1.10604,-1.647227 -2.39357,-3.599172 -2.86116,-4.337655 -0.4676,-0.738487 -1.13928,-1.667172 -1.49264,-2.063748 -0.35335,-0.396576 -0.85851,-1.064006 -1.12257,-1.483177 -0.26406,-0.419171 -0.81691,-1.178848 -1.22855,-1.688171 -0.41163,-0.509323 -0.86805,-1.07487 -1.01424,-1.256771 -0.1462,-0.181901 -0.1751,-0.330729 -0.0642,-0.330729 0.11088,0 -0.063,-0.185346 -0.38644,-0.411877 -0.32342,-0.226534 -0.58804,-0.561446 -0.58804,-0.744249 0,-0.182806 -0.35719,-0.674579 -0.79375,-1.092832 -0.43656,-0.418254 -0.79581,-0.887013 -0.79832,-1.041689 -0.003,-0.154675 -0.30017,-0.561615 -0.66146,-0.904311 -0.36129,-0.342696 -0.65689,-0.855739 -0.65689,-1.140095 0,-0.299035 -0.11906,-0.443428 -0.28239,-0.342482 -0.15534,0.096 -0.34743,-0.07419 -0.42696,-0.378285 -0.0795,-0.304046 -0.2437,-0.491538 -0.36487,-0.41665 -0.12117,0.07489 -0.4958,-0.269253 -0.83251,-0.76476 -0.70533,-1.037997 -2.48587,-3.08208 -5.03041,-5.774986 -0.97777,-1.034782 -1.71573,-1.981803 -1.6399,-2.10449 0.0758,-0.122685 -0.0346,-0.156901 -0.24531,-0.07603 -0.21074,0.08087 -0.54551,-0.06932 -0.74393,-0.333761 -0.19843,-0.264435 -0.61771,-0.698743 -0.93173,-0.965126 -0.56682,-0.480822 -0.57755,-0.474035 -1.47988,0.936538 -1.09387,1.709999 -1.63606,3.243169 -1.36439,3.858185 0.10984,0.248661 0.2154,0.571172 0.23458,0.716693 0.0192,0.145521 0.16122,0.240509 0.31564,0.211085 0.15442,-0.02942 0.44667,0.2672 0.64943,0.659164 0.20277,0.391967 0.88516,1.219269 1.51642,1.838449 0.63126,0.619183 1.17839,1.33459 1.21585,1.589794 0.0375,0.255204 0.19786,0.464008 0.35646,0.464008 0.34987,0 3.4947,3.331196 3.49694,3.704166 7.9e-4,0.145521 0.44787,0.699569 0.99333,1.23122 0.54547,0.531651 1.55355,1.662745 2.2402,2.513542 2.88481,3.574483 4.89389,6.12626 5.76301,7.319734 0.50933,0.699392 1.19394,1.60881 1.52136,2.020925 0.32742,0.412115 0.59531,0.871019 0.59531,1.019786 0,0.148767 0.0893,0.310174 0.19844,0.358682 0.42405,0.188468 1.9388,2.354387 1.8017,2.576224 -0.0798,0.129056 0.0254,0.30003 0.23362,0.379942 0.39234,0.150556 3.58707,4.737724 3.58707,5.150517 0,0.128468 0.30397,0.579519 0.67548,1.002336 0.37151,0.422818 0.85238,1.181304 1.0686,1.685526 0.21621,0.504224 0.47779,0.980564 0.58129,1.058534 0.17846,0.134443 0.6221,0.897731 1.66548,2.865448 0.60858,1.147749 1.03229,1.641541 1.4085296,1.641541 0.16913,0 1.01775,-0.247023 1.88584,-0.548939 z M 157.70089,81.662001 c 0.005,-0.236842 0.1707,-0.56542 0.36921,-0.730171 0.84907,-0.704667 0.37829,-5.631857 -0.68286,-7.146864 -0.36931,-0.527259 -0.44278,-0.415041 -1.37677,2.102919 -0.54265,1.462945 -0.99617,3.040771 -1.00782,3.506279 -0.0175,0.700122 0.65895,3.345024 1.26191,4.933929 0.15992,0.421396 1.42202,-1.921301 1.43633,-2.666092 z M -3.0964974,82.952522 c 0.62918,-0.969254 1.4303,-3.424222 1.49818,-4.591008 0.0676,-1.161174 -0.58292,-4.02618 -1.1637,-5.125545 l -0.35307,-0.668343 -0.29879,0.779026 c -0.16433,0.428464 -0.65012,1.579512 -1.07953,2.557888 -0.42941,0.978377 -0.77921,2.175627 -0.77734,2.660558 0.003,0.718873 0.5636,2.921886 1.18425,4.652007 0.17939,0.500057 0.55961,0.398441 0.99,-0.264583 z M 56.665673,78.981398 c -0.62728,-3.182609 -1.28234,-7.052153 -1.49743,-8.845602 -0.0839,-0.699786 -0.33602,-2.224836 -0.5602,-3.389003 -0.22419,-1.164166 -0.50818,-2.831041 -0.63111,-3.704166 -0.46801,-3.32426 -1.0841,-6.997552 -1.70848,-10.186458 -0.35615,-1.81901 -0.69862,-3.604948 -0.76104,-3.96875 -0.22994,-1.340173 -0.43782,-1.556885 -1.5727,-1.639551 -0.60587,-0.04413 -1.36324,0.02532 -1.68305,0.154358 -0.48951,0.1975 -0.55227,0.364857 -0.39687,1.058333 0.10152,0.453054 0.18163,1.323165 0.17802,1.93358 -0.004,0.610415 0.0775,0.973812 0.18026,0.807548 0.10911,-0.176546 0.25338,0.02215 0.34681,0.477655 0.088,0.428974 0.33515,1.315733 0.54924,1.970577 0.21409,0.654844 0.67631,2.321718 1.02716,3.704166 0.35084,1.382448 0.99094,3.787521 1.42242,5.34461 0.43148,1.557086 0.72192,2.893663 0.64541,2.970167 -0.0765,0.07651 0.0133,0.32275 0.1996,0.547209 0.18629,0.224456 0.42815,0.852413 0.53748,1.395455 0.10932,0.543044 0.74758,3.070944 1.41835,5.617559 0.67078,2.546614 1.54721,5.93862 1.94763,7.537788 0.6065,2.422175 0.74177,2.74202 0.8103,1.915856 0.0453,-0.54545 -0.15807,-2.211049 -0.4518,-3.701331 z m 28.42001,-0.139755 c 1.09855,-1.267897 2.31052,-2.841048 2.69325,-3.495892 0.38274,-0.654844 0.82526,-1.278099 0.98338,-1.385012 0.15812,-0.106912 0.19939,-0.196209 0.0917,-0.198437 -0.10767,-0.0021 0.58263,-1.483299 1.53401,-3.291268 l 1.72978,-3.287215 0.25084,-10.669556 c 0.13797,-5.868254 0.36264,-13.229396 0.49929,-16.358094 0.13664,-3.128697 0.23986,-6.164791 0.22939,-6.746874 -0.0105,-0.582083 0.01,-2.713371 0.0454,-4.736195 0.0545,-3.107608 2.6e-4,-3.713803 -0.34972,-3.909666 -0.3433,-0.192116 -4.87127,-1.396809 -6.2568,-1.664657 -0.49728,-0.09613 -3.61631,-0.589976 -5.60127,-0.88686 -1.4885,-0.222631 -2.49797,0.006 -2.1945,0.49702 0.41862,0.677344 0.47191,2.055124 0.36783,9.509733 -0.21621,15.484344 -0.0908,36.006694 0.23922,39.158331 0.17525,1.67349 0.45145,4.650052 0.61377,6.614583 0.16233,1.964531 0.39779,3.845907 0.52327,4.180835 l 0.22813,0.608959 1.18781,-0.817234 c 0.65329,-0.449479 2.08662,-1.854605 3.18517,-3.122501 z M 5.3265226,79.996644 c 1.51843,-0.497945 3.59422,-1.222721 4.61286,-1.610614 1.0186504,-0.387895 2.2390404,-0.833897 2.7119804,-0.991121 0.47294,-0.157223 0.8599,-0.434268 0.8599,-0.615659 0,-0.975661 -6.2942604,-17.368566 -9.7443104,-25.378289 C -0.70053737,41.029117 -7.0312974,28.842994 -10.923677,23.122888 l -1.59836,-2.348907 -2.26304,0.155458 c -3.28597,0.225732 -9.00991,2.026428 -9.00991,2.834431 0,0.09845 0.58891,0.248756 1.30869,0.334005 1.57616,0.186671 2.93989,0.845915 3.11209,1.504421 0.0693,0.265117 0.36515,0.54456 0.65738,0.620979 0.29223,0.07642 0.45279,0.26602 0.3568,0.421336 -0.096,0.155316 -0.0484,0.282392 0.10567,0.282392 0.15411,0 0.25572,0.0893 0.2258,0.198438 -0.0299,0.109141 0.14868,0.579477 0.39688,1.045194 0.2482,0.465717 0.45127,0.971571 0.45127,1.124125 0,0.15255 0.5326,0.963199 1.18355,1.801442 1.16868,1.504915 1.54664,2.611112 2.11868,6.200785 0.10414,0.65346 0.32803,1.031957 0.67571,1.142309 0.28599,0.09077 0.51998,0.395134 0.51998,0.67637 0,0.281234 0.0951,0.511337 0.21143,0.511337 0.3466,0 0.81524,1.586127 1.12353,3.8027 0.30964,2.226212 0.63754,3.34105 0.98269,3.34105 0.33776,0 1.1704996,1.559438 0.9892996,1.852625 -0.0898,0.145222 -0.047,0.264041 0.0951,0.264041 0.28202,0 0.83129,2.240185 0.83129,3.390379 0,0.395173 0.23836,1.163219 0.52968,1.706768 0.29133,0.543547 0.46528,0.988269 0.38657,0.988269 -0.0787,0 0.0926,0.252966 0.38061,0.562147 0.58111,0.623756 1.47032,3.38858 1.71068,5.319041 0.0979,0.786212 0.45282,1.661072 0.95536,2.354802 0.43978,0.607102 0.7996,1.246259 0.7996,1.420349 0,0.174091 0.17016,0.662242 0.37813,1.084781 0.20798,0.42254 0.49778,1.64519 0.64401,2.716998 0.1737,1.273204 0.44463,2.144533 0.78154,2.513542 0.99424003,1.088964 1.76349003,3.262333 1.98255003,5.601356 0.055,0.587295 0.40894,1.539795 0.78653,2.116666 0.37758997,0.576874 0.72356997,1.227453 0.76885997,1.445734 0.0803,0.386987 0.46059,0.78156 0.76115,0.789699 0.0823,0.0021 1.39199,-0.40336 2.91041,-0.901306 z M 35.732413,76.294026 c -0.17829,-0.59431 -0.5029,-1.556817 -0.72137,-2.1389 -0.51743,-1.378635 -1.84694,-5.392454 -2.45388,-7.408333 -0.26288,-0.873125 -0.85885,-2.837656 -1.32438,-4.365625 -1.02855,-3.37595 -2.21724,-7.601973 -2.93966,-10.451041 -0.29519,-1.164166 -0.94385,-3.566239 -1.44148,-5.337942 -0.49763,-1.7717 -1.07707,-3.974356 -1.28764,-4.894791 -0.21058,-0.920433 -0.6376,-2.685547 -0.94894,-3.922474 -0.31134,-1.236927 -0.78958,-3.380052 -1.06274,-4.7625 -0.27317,-1.382448 -0.73651,-3.40651 -1.02966,-4.497917 -0.29314,-1.091406 -1.00175,-4.246562 -1.57468,-7.011458 -1.01096,-4.878718 -1.36504,-6.594736 -2.9286,-14.1930961 -0.52055,-2.529665 -0.99963,-4.091611 -1.60112,-5.220131 -0.47208,-0.8857 -0.93663,-1.56196195 -1.03235,-1.50280395 -0.381,0.235474 -1.40862,2.62280895 -1.53521,3.56653095 -0.14827,1.105452 0.25434,4.684601 0.8504,7.5599181 0.38397,1.852223 0.81405,3.96051 1.61922,7.937499 0.23569,1.164167 0.52708,2.592917 0.64751,3.175 0.23893,1.154734 1.49197,6.847916 1.83435,8.334375 0.11732,0.509322 0.33226,1.461822 0.47765,2.116666 1.02156,4.601297 3.13601,11.863252 5.35186,18.380691 0.44381,1.305372 0.84382,2.555528 0.88892,2.778125 0.0451,0.222599 0.1501,0.583319 0.23337,0.8016 0.4196,1.100013 2.39297,7.166969 3.35633,10.318749 0.60047,1.964531 1.22249,3.869531 1.38226,4.233333 0.27453,0.625113 0.72823,2.386558 0.80075,3.108854 0.0183,0.181901 0.13243,0.33073 0.2537,0.33073 0.12127,0 0.22049,0.120094 0.22049,0.266874 0,0.248486 0.46596,0.830831 2.11666,2.64532 0.3638,0.399899 0.95636,1.06911 1.31679,1.487136 0.58824,0.682244 0.66557,0.708152 0.75546,0.253111 0.0551,-0.278813 -0.0457,-0.993188 -0.22401,-1.5875 z M 154.46993,75.682158 c 1.3313,-3.62568 1.45463,-6.977075 0.34611,-9.404638 -0.5182,-1.134803 -1.07785,-1.468011 -1.07425,-0.63959 7.9e-4,0.173312 -0.37339,1.476594 -0.83143,2.896184 l -0.8328,2.581072 0.43504,1.762894 c 0.50256,2.036525 1.23561,3.817004 1.50337,3.651515 0.10159,-0.06279 0.30587,-0.444132 0.45396,-0.847437 z M 23.697713,74.018548 c 4.39059,-1.285377 4.8948,-1.486799 4.8948,-1.955397 0,-0.211905 -0.582,-2.20915 -1.29333,-4.43832 -0.71133,-2.22917 -2.09444,-6.672413 -3.07358,-9.873871 -4.04786,-13.235222 -7.82396,-23.011282 -9.85764,-25.520775 l -0.52672,-0.649941 -1.95093,0.753959 c -4.2821604,1.654889 -8.0981504,3.677729 -10.2038904,5.409025 -1.34995997,1.109916 -1.32505997,1.444704 0.36137,4.858546 0.62959,1.274487 1.14472,2.364877 1.14472,2.423091 0,0.05821 0.47652,1.12771 1.05894,2.376659 0.58242,1.248947 1.34299,3.016941 1.69015,3.928875 0.34717,0.911934 0.99022,2.431968 1.42901,3.377853 1.18097,2.545784 1.36751,2.999171 4.7353604,11.509375 0.23035,0.582083 0.58125,1.433515 0.77976,1.892069 0.19852,0.458555 0.36094,1.076606 0.36094,1.373447 0,0.296841 0.10996,0.607671 0.24436,0.690732 0.21069,0.130217 0.9937,2.179934 1.1968,3.132941 0.0905,0.424625 1.13685,2.676663 1.33633,2.876146 0.0865,0.08646 1.07448,-0.138589 2.19559,-0.500119 1.12111,-0.361531 3.58619,-1.110464 5.47796,-1.664295 z m -29.4809204,1.289619 c 0.58159,-1.086707 1.30279,-4.071403 1.30132,-5.385533 -0.002,-1.433671 -0.34538,-2.942338 -0.97993,-4.30032 -0.39606,-0.847603 -0.87067,-1.150025 -0.87067,-0.554789 0,0.167807 -0.37333,1.090541 -0.82962,2.050521 -1.17117,2.464017 -1.23092,3.493976 -0.35669,6.148734 0.40049,1.216194 0.77875,2.30056 0.84056,2.4097 0.20547,0.36277 0.58802,0.205346 0.89503,-0.368313 z m -4.09498,-2.089576 c -0.3366996,-1.085635 -0.9681196,-2.807319 -1.4031496,-3.825965 -0.43504,-1.018645 -1.0616,-2.804583 -1.39235,-3.968749 -0.33076,-1.164167 -0.94343,-3.131905 -1.3615,-4.372748 -0.41807,-1.240845 -0.78696,-2.580298 -0.81976,-2.976562 -0.0328,-0.396267 -0.1395,-0.720482 -0.23712,-0.720482 -0.0976,0 -0.38621,-0.803672 -0.6413,-1.785937 -0.25509,-0.982266 -0.69207,-2.191634 -0.97107,-2.687487 -0.53417,-0.949348 -0.69672,-1.360151 -2.05125,-5.183867 -0.46395,-1.309687 -1.15353,-2.917031 -1.5324,-3.571875 -0.99388,-1.717831 -4.19661,-5.95024 -5.79667,-7.660306 l -1.3734,-1.467818 -2.31856,1.190625 c -3.75805,1.929833 -6.45369,3.793614 -6.45369,4.462118 0,0.125833 0.83344,1.102852 1.85209,2.171158 1.01864,1.068302 1.85208,2.03691 1.85208,2.152462 0,0.115551 0.11056,0.210095 0.24568,0.210095 0.26317,0 0.29752,0.03215 2.193,2.052632 1.75612,1.871921 4.42723,5.272193 4.29044,5.461648 -0.063,0.08725 -0.0373,0.101282 0.057,0.03118 0.21309,-0.158316 2.23555,2.517407 2.08587,2.759606 -0.0597,0.09665 0.30087,0.51716 0.80136,0.934461 0.50048,0.417298 0.90997,0.873199 0.90997,1.013113 0,0.139912 0.29766,0.530244 0.66146,0.867405 0.3638,0.337161 0.66146,0.727845 0.66146,0.868188 0,0.140343 0.0902,0.294854 0.2004,0.343363 0.28375,0.12487 1.99345,2.337152 1.80621,2.337152 -0.085,0 0.0538,0.223988 0.30849,0.497752 0.83946,0.902431 1.38906,1.7213 1.38906,2.069603 0,0.188685 0.1127,0.343061 0.25045,0.343061 0.2127,0 1.62914,1.901362 2.52768,3.393035 0.14552,0.241581 0.53247,0.776738 0.8599,1.189236 0.32742,0.412496 0.59531,0.856443 0.59531,0.986544 0,0.217673 1.53035,2.594213 1.86605,2.897852 0.0804,0.07276 0.42144,0.585038 0.75778,1.138396 0.3363396,0.553357 0.6522796,0.965353 0.7020796,0.915548 0.0498,-0.04981 -0.18492,-0.978802 -0.52161,-2.064438 z M 120.18471,69.647084 c 0.28313,-0.722035 0.55467,-1.550916 0.60342,-1.841958 0.10698,-0.638735 3.81834,-15.081249 3.87549,-15.081249 0.0221,0 0.0695,-0.238125 0.1054,-0.529166 0.0359,-0.291042 0.5062,-2.650168 1.04516,-5.242502 0.53897,-2.592334 1.02472,-4.973584 1.07946,-5.291666 0.0547,-0.318082 0.41079,-2.364269 0.79123,-4.547082 1.63443,-9.37783 1.83977,-11.095844 1.44122,-12.058046 -1.05607,-2.549583 -6.5982,-4.950859 -11.7249,-5.080132 -2.28562,-0.05763 -2.37084,-0.03875 -2.41761,0.535575 -0.0267,0.327422 0.0434,0.595312 0.15568,0.595312 0.41263,0 0.54505,2.391162 0.25857,4.669248 -0.162,1.288216 -0.35703,2.877992 -0.4334,3.532835 -0.0764,0.654844 -0.32554,2.38125 -0.55369,3.836459 -0.22816,1.455208 -0.45707,2.943489 -0.5087,3.307291 -0.0516,0.363802 -0.15764,1.078177 -0.23558,1.5875 -0.0779,0.509323 -0.26566,1.878542 -0.41717,3.042708 -0.5359,4.117734 -1.25451,8.48573 -1.98055,12.038541 -0.22303,1.091406 -0.58105,2.859349 -0.79559,3.928761 -0.21455,1.069414 -0.44845,2.038829 -0.51979,2.154256 -0.0713,0.115427 -0.18318,0.609671 -0.24854,1.09832 -0.18959,1.417484 -0.88565,4.538117 -1.1919,5.343614 -0.15446,0.406265 -0.28083,1.064287 -0.28083,1.462273 0,0.397983 -0.13488,0.85848 -0.29972,1.023323 -0.67078,0.670785 0.25994,1.290275 2.1518,1.432235 0.21828,0.01638 1.34937,0.197858 2.51354,0.403286 1.16417,0.205428 2.65245,0.441865 3.30729,0.525417 0.65485,0.08355 1.66688,0.243531 2.24896,0.355508 0.58208,0.111979 1.1613,0.183017 1.28715,0.157863 0.12585,-0.02516 0.46047,-0.636489 0.7436,-1.358524 z m -13.7705,-2.525659 c 0.2371,-0.788131 0.69447,-2.62359 1.01639,-4.078798 0.32192,-1.455209 0.6874,-3.003021 0.81218,-3.439583 0.12479,-0.436563 0.41939,-1.919124 0.65467,-3.294584 0.23528,-1.375458 0.49748,-2.613588 0.58265,-2.751402 0.0852,-0.137813 0.19334,-0.619781 0.24037,-1.071041 0.0933,-0.894951 0.34403,-2.447581 0.98716,-6.112139 1.5517,-8.841573 3.10455,-20.387606 3.06026,-22.754166 -0.0109,-0.582083 -0.1645,-1.458108 -0.34134,-1.946719 l -0.32153,-0.888387 -0.92146,1.15297 c -2.37202,2.967953 -2.26657,2.69276 -2.46943,6.444636 -0.2607,4.821552 -0.92198,11.221851 -1.21626,11.771714 -0.13594,0.254008 -0.18701,0.521991 -0.11349,0.595516 0.0735,0.07352 -0.0565,1.3691 -0.28886,2.879058 -0.2324,1.509959 -0.65413,4.350687 -0.93718,6.312731 -0.28305,1.962046 -0.88547,5.414859 -1.33872,7.672916 -0.45324,2.25806 -0.91812,4.723918 -1.03304,5.479685 -0.11493,0.755766 -0.27812,1.486013 -0.36264,1.622771 -0.0845,0.136758 -0.21824,0.709028 -0.29716,1.271712 -0.0789,0.562684 -0.19933,1.281099 -0.26759,1.596477 -0.0958,0.442756 0.0416,0.629949 0.60304,0.821518 1.21596,0.414885 1.49611,0.230479 1.95198,-1.284885 z m 45.41601,-0.0439 c 1.17033,-3.401774 1.0288,-6.25431 -0.45456,-9.161946 -0.52431,-1.027718 -1.07483,-1.258398 -1.07483,-0.450374 0,0.189458 -0.29765,1.282317 -0.66146,2.428574 -0.3638,1.146257 -0.66145,2.404046 -0.66145,2.795084 0,0.80913 1.81804,6.042308 2.09914,6.042308 0.10133,0 0.44026,-0.744141 0.75316,-1.653646 z M -7.9452174,64.77719 c 0.63721,-1.959724 0.68097,-3.243202 0.18173,-5.33056 -0.38053,-1.591008 -1.17725,-3.046534 -1.47872,-2.701444 -0.10187,0.116613 -0.61808,1.436138 -1.1471396,2.932274 -0.93156,2.634393 -0.94965,2.755479 -0.57305,3.836458 0.21388,0.613916 0.39061,1.281221 0.39272,1.482903 0.002,0.201681 0.27174,1.055438 0.5991696,1.897237 l 0.59531,1.530543 0.43779,-0.971196 c 0.24079,-0.534156 0.68727,-1.738455 0.99219,-2.676215 z M 101.96824,65.52926 c 0.0904,-0.763278 0.28659,-1.510006 0.43598,-1.659392 0.14939,-0.149389 0.27162,-0.649256 0.27162,-1.110816 0,-0.461558 0.2771,-1.955792 0.61579,-3.320521 0.33869,-1.364726 0.64178,-2.957571 0.67353,-3.539654 0.0317,-0.582083 0.2238,-1.891771 0.42679,-2.910416 0.20299,-1.018646 0.44956,-2.655756 0.54792,-3.638021 0.0984,-0.982266 0.27559,-1.785938 0.39381,-1.785938 0.11823,0 0.20212,-0.386953 0.18642,-0.859895 -0.0157,-0.472943 0.11227,-1.812396 0.28436,-2.976563 0.32372,-2.189948 1.04551,-8.114315 1.77294,-14.552082 0.2302,-2.037292 0.4749,-4.115485 0.54378,-4.618212 0.13229,-0.965565 1.57725,-3.45158 2.00618,-3.45158 0.13894,0 0.19593,-0.09172 0.12665,-0.203827 -0.16182,-0.261823 1.27095,-1.854506 2.50841,-2.78838 0.79139,-0.597236 1.32867,-0.751869 3.08222,-0.887095 l 2.12376,-0.163771 0.29122,-1.95802 c 0.47336,-3.182713 0.38251,-4.776877 -0.34277,-6.0142011 -1.12982,-1.927458 -3.72853,-3.604599 -6.95258,-4.487011 -1.68169,-0.460271 -6.11961,-0.888682 -7.75927,-0.74903 l -0.92604,0.07887 -0.0743,2.963838 c -0.0409,1.630109 -0.12858,3.3805551 -0.19491,3.8898781 -0.0663,0.509323 -0.35663,2.831041 -0.64509,5.159375 -0.28847,2.328333 -0.64959,5.185833 -0.80248,6.349999 -0.1529,1.164167 -0.50959,4.081198 -0.792647,6.482292 -0.75981,6.445231 -1.82442,14.497049 -2.11649,16.007291 -0.14071,0.727604 -0.31915,1.858697 -0.39653,2.513541 -0.27514,2.328397 -0.83056,6.254792 -1.19768,8.466666 -0.6169,3.716743 -1.27261,8.418671 -1.36576,9.793393 -0.074,1.092576 0.21529,1.676593 0.7323,1.478198 0.20291,-0.07786 0.99453,-0.03225 1.75918,0.101367 0.76464,0.133615 1.85956,0.311246 2.43316,0.394735 0.573587,0.08349 1.107617,0.216516 1.186717,0.295616 0.33138,0.331377 1.01128,-1.012645 1.16382,-2.300634 z m 46.43116,-6.786112 c 0.90801,-3.051829 0.96809,-4.315158 0.30169,-6.343076 -0.58481,-1.779653 -1.93578,-4.00826 -2.17961,-3.595584 -0.0699,0.118372 -0.20842,0.631941 -0.30773,1.141264 -0.0993,0.509323 -0.36657,1.725745 -0.59391,2.703163 -0.33964,1.460196 -0.35711,2.000481 -0.098,3.029604 0.34373,1.365078 1.89532,4.819144 2.17351,4.838533 0.095,0.0066 0.41178,-0.791639 0.70402,-1.773904 z M -11.055917,57.336477 c 0.47735,-1.291055 0.7319,-2.506212 0.74093,-3.53691 0.0157,-1.790239 -0.59182,-4.225724 -1.28242,-5.141264 l -0.46839,-0.620958 -0.33422,0.888058 c -0.18382,0.488431 -0.5607,1.469482 -0.83751,2.180111 -0.59125,1.517856 -0.61877,2.623483 -0.11928,4.793363 0.61047,2.651985 0.95835,3.609488 1.27327,3.504515 0.16525,-0.05508 0.62767,-0.985192 1.02762,-2.066915 z M 144.79114,49.029408 c 0.40003,-2.424277 0.13348,-3.847465 -1.11378,-5.946913 -1.40887,-2.371492 -1.84319,-2.756942 -1.84319,-1.635804 0,0.99455 0.0347,0.803174 -0.42062,2.316257 -0.5381,1.787962 -0.46218,3.227501 0.24235,4.595304 0.33729,0.654844 0.95125,1.845469 1.36434,2.645834 l 0.75107,1.455208 0.37814,-0.916345 c 0.20797,-0.503991 0.49673,-1.635085 0.64169,-2.513541 z M -13.974407,48.827377 c 0.87637,-2.674913 0.87545,-5.879581 -0.002,-7.745166 l -0.62236,-1.322916 -0.80655,1.719791 c -1.41838,3.024362 -1.52332,3.789018 -0.85411,6.223436 0.64755,2.355631 1.11251,3.384323 1.43861,3.182787 0.11889,-0.07348 0.49987,-0.999548 0.84662,-2.057932 z m 110.16698,-6.447514 c 0.37397,-3.042042 0.9165,-7.19786 1.20564,-9.235151 0.28913,-2.037292 0.57952,-4.239948 0.64531,-4.894792 0.12396,-1.233786 0.52281,-4.760013 0.92773,-8.202083 0.33308,-2.831343 1.040977,-8.193055 1.205177,-9.128124 0.26046,-1.4832781 0.4555,-5.1173091 0.29683,-5.5307891 -0.13651,-0.355725 -0.28379,-0.331481 -1.083167,0.178289 -0.50886,0.324501 -0.93023,0.732076 -0.93639,0.905727 -0.006,0.173649 -0.21956,0.471821 -0.47422,0.662604 -1.38465,1.037328 -1.90347,2.650043 -2.96233,9.2081271 -0.98034,6.071801 -0.9784,5.96421 -0.12064,6.702027 l 0.75156,0.646465 -0.0744,4.197106 c -0.0409,2.30841 -0.18394,6.518828 -0.31783,9.356484 -0.31834,6.747057 -0.31394,11.641245 0.01,11.087234 0.13574,-0.232179 0.55278,-2.911086 0.92675,-5.953124 z m -47.13077,2.335633 c 0.26224,-0.149098 0.23351,-0.379156 -0.85035,-6.808285 -0.4416,-2.619375 -0.98969,-5.91598 -1.21798,-7.325785 -0.36254,-2.238799 -1.04556,-4.176744 -1.47389,-4.181917 -0.0762,-7.94e-4 -0.53243,0.773697 -1.01383,1.721369 -1.04368,2.054574 -1.02614,2.671643 0.20678,7.272792 0.44842,1.673489 1.12901,4.471458 1.51241,6.217708 0.38341,1.74625 0.82845,3.259343 0.98899,3.362428 0.27525,0.176747 1.34591,0.02708 1.84787,-0.25831 z m 2.54945,-1.527046 c 0,-1.102682 -0.38381,-5.236453 -0.66231,-7.133322 -0.0641,-0.436562 -0.30469,-2.460625 -0.53465,-4.497916 -0.65162,-5.772992 -0.76889,-6.499188 -1.05199,-6.514478 -0.14552,-0.0079 -0.71322,0.05745 -1.26156,0.145132 l -0.99697,0.159422 0.39002,0.754213 c 0.21451,0.414816 0.44655,1.065945 0.51564,1.44695 0.0691,0.381008 0.18718,0.792348 0.26242,0.914091 0.0752,0.121743 0.32643,1.403628 0.55819,2.848634 0.23177,1.445008 0.65897,4.056035 0.94933,5.802285 1.21497,7.30681 1.20827,7.276042 1.58513,7.276042 0.13571,0 0.24675,-0.540475 0.24675,-1.201053 z m 88.326227,-0.284853 c 0.37975,-1.337571 0.39727,-3.610284 0.0378,-4.904425 -0.28642,-1.031194 -2.74964,-4.986752 -3.10537,-4.986752 -0.11683,0 -0.34842,1.143857 -0.51465,2.541905 -0.27952,2.350952 -0.2612,2.649095 0.2438,3.96875 0.30032,0.784764 0.6188,1.427003 0.70774,1.427196 0.089,1.96e-4 0.57666,0.769933 1.0838,1.710529 0.50714,0.940596 0.99309,1.625044 1.07988,1.520999 0.0868,-0.104044 0.29693,-0.679235 0.46698,-1.278202 z M 77.165243,37.113461 c 0.27145,-7.338028 0.29141,-13.796409 0.0434,-14.045294 -0.10972,-0.110106 -0.49667,0.079 -0.8599,0.420232 -0.63779,0.599173 -0.66041,0.737047 -0.66041,4.024117 0,3.302293 0.35943,10.748335 0.68626,14.216858 0.27807,2.950919 0.57481,1.218433 0.79064,-4.615913 z m -93.76183,2.949157 c 0.75361,-2.052389 0.77686,-2.237605 0.48641,-3.875198 -0.34583,-1.949789 -1.32868,-4.101042 -1.87365,-4.101042 -0.21606,0 -0.6747,0.862613 -1.12542,2.116667 l -0.76075,2.116666 0.4366,1.984375 c 0.45563,2.070902 0.78636,3.157498 1.27141,4.17716 0.35794,0.752472 0.4575,0.598646 1.5654,-2.418628 z m 151.536337,-7.6098 c 0.0141,-1.617429 -0.065,-1.868366 -1.04245,-3.307291 -0.58174,-0.856385 -1.05799,-1.692008 -1.05834,-1.856936 -2.6e-4,-0.164928 -0.23461,-0.361058 -0.52059,-0.435843 -0.59931,-0.156723 -0.69285,0.06511 -0.94926,2.251035 -0.16732,1.426491 -0.12372,1.597099 0.74388,2.910417 0.5069,0.767302 1.25761,2.049939 1.66825,2.850303 l 0.74662,1.455208 0.19832,-1.058333 c 0.10908,-0.582083 0.20519,-1.845934 0.21357,-2.80856 z m -158.149137,2.676268 c 0.0641,-0.436562 0.0238,-0.79375 -0.0896,-0.79375 -0.26129,0 -1.83766,-2.274366 -1.68333,-2.428692 0.0631,-0.06311 -0.23924,-0.502325 -0.6719,-0.976027 -0.81601,-0.893413 -0.88066,-0.87467 -0.79232,0.22972 0.087,1.087553 2.35081,4.762499 2.93377,4.762499 0.10276,0 0.23926,-0.357187 0.30333,-0.79375 z M 2.0086626,34.647775 c 0.73134,-0.554511 1.74337,-1.222301 2.24896,-1.483979 2.63968,-1.366203 4.42793,-2.220243 5.0203,-2.397617 0.61034,-0.182753 2.9479504,-1.172879 3.1158704,-1.319768 0.1219,-0.106622 -1.77073,-5.903068 -2.9259604,-8.961204 -0.84858,-2.246342 -1.22069,-2.921836 -1.71258,-3.108854 -1.10754,-0.421085 -5.14468,-0.271778 -7.23239997,0.267477 -2.14448003,0.553919 -5.53243003,2.044576 -5.53243003,2.434204 0,0.134694 0.27853,0.930349 0.61894,1.76812 0.99787,2.455765 4.23176003,12.754927 4.23176003,13.477131 0,0.604036 0.81493,0.350065 2.16753997,-0.67551 z M -20.115497,32.322437 c 0.30461,-1.034336 0.55272,-2.224961 0.55136,-2.645833 -0.002,-0.767242 -1.50357,-3.712991 -1.76092,-3.455649 -0.0754,0.07536 -0.63216,-0.0089 -1.23733,-0.187238 -1.10015,-0.324217 -2.4514,-0.105497 -2.85781,0.462577 -0.24268,0.339206 0.41372,1.787046 1.73504,3.827046 0.62806,0.969672 1.46756,2.340436 1.86555,3.04614 0.39799,0.705708 0.81962,1.181958 0.93695,1.058334 0.11732,-0.123622 0.46255,-1.071044 0.76716,-2.105377 z m 17.1128196,-0.92601 c -0.21298,-0.784693 -0.63447,-2.260153 -0.93664,-3.278799 -0.30217,-1.018645 -0.60759,-2.172882 -0.67872,-2.564971 -0.17309,-0.954209 -1.46874,-3.91732 -1.71288,-3.91732 -0.10662,0 -0.34007,0.689009 -0.51878,1.531133 -0.36079,1.700154 -0.50083,1.276694 2.00117,6.051547 1.35725,2.590223 2.05534,3.78288 2.15553,3.682683 0.0427,-0.04266 -0.0967,-0.71958 -0.30968,-1.504273 z"
       id="path5535" /></g></svg>
