<?xml version="1.0" encoding="UTF-8" standalone="no"?>
<!-- Created with Inkscape (http://www.inkscape.org/) -->

<svg
   width="229.84773mm"
   height="232.1469mm"
   viewBox="0 0 229.84775 232.14687"
   version="1.1"
   id="svg5"
   xml:space="preserve"
   xmlns="http://www.w3.org/2000/svg"
   xmlns:svg="http://www.w3.org/2000/svg"><defs
     id="defs2" /><g
     id="layer1"
     transform="translate(-11.912007,-40.536615)"><path
       style="fill:#000000;stroke-width:0.264583"
       d="m 66.466482,272.27688 c -0.99013,-0.43064 -1.67076,-1.60156 -1.67076,-2.87431 0,-0.49862 0.41074,-3.3918 0.91276,-6.42928 0.50202,-3.03748 1.27987,-7.84441 1.72855,-10.68207 0.44869,-2.83765 1.04361,-6.52859 1.32205,-8.20208 1.17431,-7.05787 1.39394,-10.12959 1.38054,-19.30803 -0.008,-5.15242 -0.11488,-8.89097 -0.25668,-8.93824 -0.60182,-0.20061 -14.34764,6.05821 -14.34764,6.53284 0,0.12252 0.36318,0.99886 0.80706,1.94742 1.57962,3.37558 1.29016,7.02827 -0.76258,9.62291 -1.21344,1.53376 -3.83022,2.99935 -5.35529,2.99935 -0.80529,0 -1.11109,0.15157 -1.55034,0.76845 -0.30095,0.42265 -0.54718,0.89623 -0.54718,1.05241 0,0.15618 -0.65188,0.94633 -1.44861,1.7559 -4.35141,4.42152 -11.89729,4.72629 -17.95141,0.72505 -2.39545,-1.58318 -5.32236,-4.95286 -6.63405,-7.63763 -0.60391,-1.23607 -1.2354,-3.11379 -1.5476,-4.60168 -0.47354,-2.25687 -0.49545,-2.77962 -0.21455,-5.11926 0.38416,-3.19971 1.05884,-5.44751 2.29085,-7.63231 2.6434,-4.68769 6.0412,-7.9355 12.67308,-12.11358 3.73214,-2.35126 9.93531,-5.75049 14.4953,-7.94318 2.57235,-1.23693 4.64127,-2.3629 4.59759,-2.50217 -0.0437,-0.13927 -1.14276,-0.68618 -2.4424,-1.21536 -5.63354,-2.29383 -12.32056,-6.04342 -14.67453,-8.2284 -0.36842,-0.34198 -0.78514,-0.65596 -0.92604,-0.69775 -0.1409,-0.0418 -1.21439,-0.89856 -2.38555,-1.90395 -11.98281,-10.28671 -19.37795,-25.30793 -21.42862,-43.52641 -2.08738,-18.54455 1.1982,-39.352256 8.51387,-53.918622 3.62074,-7.209318 9.76285,-15.279226 15.30871,-20.113592 2.87928,-2.509893 3.23193,-2.801371 4.89927,-4.049498 21.0437,-15.752727 55.44268,-23.099989 83.339268,-17.800393 16.21272,3.07998 30.25346,10.112395 40.34895,20.209099 3.20108,3.201455 3.51859,3.570681 6.72665,7.822212 3.92163,5.197197 6.44423,9.741464 9.0969,16.387344 4.08148,10.225554 6.64144,23.2634 7.32672,37.31486 0.63091,12.93663 -1.41789,26.48774 -5.1685,34.18546 -0.265,0.54387 -0.43071,1.03957 -0.36825,1.10156 0.0625,0.062 1.78044,-0.112 3.81773,-0.38662 6.39611,-0.86218 16.27542,-0.54943 21.85511,0.69188 2.42676,0.53988 4.49792,1.17523 4.93395,1.51354 0.1819,0.14113 0.33073,0.184 0.33073,0.0952 0,-0.24737 2.89272,1.08771 4.23248,1.95343 0.65531,0.42345 1.5447,1.10059 1.97642,1.50477 0.77483,0.72539 0.82938,0.73489 4.23334,0.73713 2.17431,0.001 3.83941,0.13332 4.50672,0.35696 7.96793,2.67032 12.84155,9.48471 13.28527,18.57572 0.30111,6.16928 -1.40363,11.671 -4.95248,15.98319 -2.18497,2.65493 -3.2628,3.6189 -5.86959,5.24949 -2.23495,1.398 -6.64521,3.09629 -8.0407,3.09629 -0.7146,0 -0.85214,0.13679 -2.17415,2.16244 -2.93687,4.5 -7.70431,7.78012 -13.94418,9.59395 -3.9037,1.13475 -7.1757,1.53726 -12.43542,1.52975 -3.8056,-0.005 -5.34727,-0.12264 -7.67292,-0.58332 -5.91349,-1.17138 -10.15316,-2.86755 -14.36158,-5.74566 l -2.66557,-1.82297 -2.46663,0.23345 c -4.71115,0.44588 -13.69773,-0.11496 -18.07705,-1.12817 -2.66359,-0.61625 -3.73337,-0.84802 -4.10104,-0.88849 -0.34408,-0.0379 -0.40617,1.07544 -0.46675,8.36852 l -0.0699,8.41221 0.70278,1.77425 c 0.38652,0.97583 1.10407,2.57792 1.59456,3.56018 0.49048,0.98227 0.80098,1.78776 0.69001,1.78999 -0.11097,0.002 -0.0804,0.0915 0.0679,0.19844 0.29496,0.21265 3.03767,6.25294 3.03767,6.68988 0,0.1485 0.16812,0.5337 0.37359,0.856 0.60963,0.95627 2.99778,7.8784 4.25204,12.32467 1.38605,4.91349 3.31228,12.7258 3.31088,13.42817 -0.002,0.87205 -1.00201,2.17856 -2.09475,2.73603 -1.0208,0.52077 -1.49821,0.53984 -13.51727,0.53984 -13.79705,0 -13.17438,0.0745 -14.84514,-1.77488 -0.87451,-0.96798 -5.69341,-10.08002 -5.87027,-11.10007 -0.0464,-0.26758 -0.34447,-0.90323 -0.66239,-1.41255 -0.31792,-0.50932 -0.57849,-1.01628 -0.57903,-1.12657 -5.3e-4,-0.11028 -0.6546,-1.57055 -1.45346,-3.24503 l -1.45248,-3.0445 -8.00638,0.07 -8.00638,0.07 -0.57113,2.11667 c -0.77034,2.85492 -2.527018,8.78552 -3.816128,12.88334 -1.10711,3.5193 -2.27768,5.65069 -3.41795,6.22347 -1.0113,0.50799 -26.52141,0.46452 -27.69798,-0.0472 z m 26.31261,-3.64764 c 0.14681,-0.1819 0.758,-1.9976 1.3582,-4.03489 0.6002,-2.03729 1.3102,-4.29948 1.57779,-5.02708 0.81001,-2.20256 1.36897,-3.95836 1.513,-4.75266 0.0751,-0.41424 0.23744,-0.94311 0.36071,-1.17525 0.12327,-0.23215 0.49465,-1.52783 0.82529,-2.87928 0.33064,-1.35146 0.73013,-2.62385 0.88775,-2.82755 0.23524,-0.30398 2.145448,-0.38331 10.659978,-0.44268 5.70536,-0.0398 10.44703,0.001 10.53704,0.0913 0.09,0.09 0.19063,0.34744 0.2236,0.57207 0.033,0.22464 0.241,0.6225 0.4623,0.88415 0.22129,0.26164 0.56735,1.01149 0.769,1.66633 0.20166,0.65485 0.43587,1.25016 0.52047,1.32292 0.19463,0.16739 1.58816,3.30429 1.58816,3.57503 0,0.24378 1.86527,3.98121 2.90348,5.81768 0.41134,0.7276 1.32531,2.43416 2.03106,3.79234 0.70574,1.35818 1.54095,2.7524 1.85603,3.09826 l 0.57286,0.62883 11.38087,0.0155 c 7.30922,0.01 11.43931,-0.079 11.5442,-0.24873 0.18039,-0.29187 -2.29168,-9.95107 -4.26862,-16.67893 -0.23518,-0.80036 -0.4411,-1.81239 -0.4576,-2.24895 -0.0165,-0.43657 -0.1937,-0.9221 -0.39379,-1.07897 -0.20009,-0.15687 -0.3638,-0.59633 -0.3638,-0.97657 0,-0.38025 -0.16372,-0.75418 -0.36381,-0.83096 -0.20009,-0.0768 -0.3638,-0.32154 -0.3638,-0.54391 0,-0.51529 -4.5781,-10.73029 -5.51806,-12.3123 -0.38907,-0.65484 -0.87001,-1.50947 -1.06876,-1.89917 -0.34063,-0.66789 -0.48461,-0.71342 -2.50966,-0.79375 -4.12207,-0.16349 -64.998688,-0.0293 -65.171658,0.1437 -0.0959,0.0959 -0.2055,1.14701 -0.24355,2.33577 -0.038,1.18877 -0.19736,3.00303 -0.35405,4.03169 -0.15669,1.02867 -0.41366,2.76327 -0.57104,3.85468 -0.25873,1.79422 -0.87727,5.71758 -1.16798,7.40833 -0.0626,0.3638 -0.24652,1.85208 -0.4088,3.30729 -0.16229,1.45521 -0.51839,4.01505 -0.79133,5.68854 -0.98864,6.06169 -1.56678,10.37466 -1.42207,10.6088 0.0844,0.13661 5.17448,0.23912 11.87372,0.23912 9.06201,0 11.78659,-0.0751 11.99287,-0.33073 z m -52.72191,-28.60306 c 1.8835,-0.5019 2.81081,-1.04018 3.93429,-2.28374 1.18386,-1.31039 1.48966,-2.04582 1.48966,-3.58249 0,-0.97697 -0.18026,-1.38367 -1.12448,-2.53698 -0.61846,-0.75543 -1.95791,-1.94578 -2.97656,-2.64524 -2.33663,-1.60446 -2.58119,-1.8085 -3.12617,-2.6084 -0.58825,-0.8634 -0.56226,-1.48169 0.10148,-2.41382 0.67024,-0.94127 0.96239,-0.96437 1.35304,-0.10699 0.16576,0.3638 0.44784,0.66146 0.62683,0.66146 0.63491,0 5.0323,3.1116 6.24851,4.42146 0.67922,0.73151 1.61543,2.00421 2.08048,2.82823 0.71712,1.27067 0.93139,1.47176 1.41089,1.32407 2.56965,-0.79147 3.75264,-2.66762 3.33602,-5.29073 -0.57796,-3.63886 -2.55377,-6.55155 -7.00399,-10.3251 -2.71635,-2.30332 -11.16555,-8.56872 -11.5453,-8.56128 -0.19852,0.004 -0.85021,0.45038 -1.4482,0.99219 -0.59798,0.54181 -2.01603,1.8143 -3.15121,2.82775 -7.55436,6.74427 -8.24613,16.95564 -1.59416,23.5318 3.36842,3.33004 7.67943,4.75626 11.38887,3.76781 z m 81.657278,-11.59232 c 0.30552,-0.48195 0.28297,-4.75529 -0.0277,-5.2468 -0.2149,-0.34 -1.66455,-0.40258 -10.11627,-0.43666 -7.92852,-0.032 -9.94419,0.03 -10.26664,0.31582 -0.30757,0.27259 -0.39402,0.91296 -0.37033,2.74309 0.017,1.31311 0.16255,2.5461 0.32344,2.73997 0.4286,0.51643 20.12739,0.40529 20.45749,-0.11542 z m -24.070818,-0.27472 c 0.27111,-0.42735 0.28682,-3.9361 0.0195,-4.35636 -0.14854,-0.23353 -3.09381,-0.27241 -11.9022,-0.15713 l -11.70481,0.15319 v 2.20259 2.20259 l 5.75469,0.0712 c 3.16508,0.0392 8.42347,0.10598 11.68531,0.14849 4.6263,0.0603 5.97832,0.002 6.14751,-0.26458 z m 42.955198,-2.18063 v -2.36792 l -7.60321,-0.0133 c -6.09661,-0.0107 -7.63014,0.0565 -7.73907,0.33905 -0.29205,0.75752 -0.13702,4.23325 0.19488,4.3693 0.1819,0.0746 3.66448,0.11425 7.73906,0.0882 l 7.40834,-0.0474 z m 0.20997,-5.53096 c 0.11548,-0.16676 0.13764,-2.86304 0.0492,-5.99174 -0.18362,-6.49893 -0.13809,-6.68731 1.6157,-6.68593 0.56953,5.3e-4 1.69035,0.19418 2.49071,0.43053 6.04128,1.78394 9.47469,2.2545 16.87065,2.31215 5.10299,0.0398 5.41502,-0.0745 4.39804,-1.61129 -0.3679,-0.55593 -1.03142,-1.88507 -1.47449,-2.95364 l -0.80558,-1.94286 -0.1054,-6.61458 c -0.058,-3.63803 -0.15949,-6.76342 -0.22559,-6.94532 -0.0794,-0.21842 -0.70531,-0.33073 -1.84337,-0.33073 -2.45034,0 -5.21964,-0.48359 -7.78703,-1.35982 -1.21967,-0.41627 -2.44364,-0.75684 -2.71996,-0.75684 -0.42546,0 -2.19056,0.64446 -4.32289,1.57836 -0.29104,0.12746 -1.36261,0.49174 -2.38125,0.8095 -1.01865,0.31776 -2.20927,0.69696 -2.64584,0.84266 -0.43656,0.14569 -1.56765,0.44013 -2.51354,0.6543 -0.94588,0.21418 -2.37463,0.57738 -3.175,0.80711 -1.99091,0.57148 -5.34306,0.75224 -6.33448,0.34158 -0.54466,-0.2256 -0.88179,-0.62218 -1.0971,-1.29054 -0.17095,-0.53066 -0.35048,-1.03591 -0.39894,-1.12277 -0.0765,-0.13706 -1.39307,0.0304 -3.14969,0.40075 -0.48947,0.10319 -1.16625,0.21934 -5.55625,0.95356 -1.59536,0.26683 -7.51047,0.92145 -10.71562,1.1859 -0.94588,0.078 -3.49711,0.20033 -5.66939,0.27176 -2.17228,0.0714 -3.999888,0.18017 -4.061358,0.24163 -0.0615,0.0615 -0.11175,0.52684 -0.11175,1.03417 0,1.14067 -0.62797,1.76924 -2.59292,2.59541 -1.42693,0.59995 -1.6351,0.61186 -10.71562,0.61281 -7.1889,7.9e-4 -10.14821,-0.1037 -13.22917,-0.46695 -4.39275,-0.51791 -9.18109,-1.36624 -10.92331,-1.93523 -1.41448,-0.46195 -2.82083,-0.47552 -3.27914,-0.0316 -0.1923,0.18625 -2.0165,1.16183 -4.0538,2.16797 -2.03729,1.00614 -3.76369,1.90806 -3.83645,2.00428 -0.0728,0.0962 -0.57109,0.31796 -1.10739,0.49275 -0.53631,0.17479 -1.01256,0.40265 -1.05834,0.50635 -0.0458,0.1037 -1.39292,0.82904 -2.99365,1.61188 -1.60073,0.78283 -2.96995,1.50713 -3.04271,1.60955 -0.0728,0.10241 -0.57877,0.39597 -1.12448,0.65234 -0.5457,0.25637 -0.99218,0.56217 -0.99218,0.67955 0,0.11738 -0.3573,0.29189 -0.794,0.3878 -0.99909,0.21944 -1.42271,1.398 -0.66082,1.8385 0.26457,0.15296 1.08713,0.75437 1.82792,1.33645 0.74079,0.58208 1.81887,1.41129 2.39573,1.84269 0.57686,0.43139 1.24635,0.96717 1.48776,1.19062 0.24141,0.22345 0.83194,0.70393 1.3123,1.06773 1.55704,1.17924 4.58361,3.73841 5.9844,5.06022 0.75176,0.70938 1.52566,1.2881 1.71979,1.28606 0.19413,-0.002 1.21616,-0.47428 2.27119,-1.0494 1.05502,-0.57512 1.91823,-0.98152 1.91823,-0.90311 0,0.0784 0.31371,-0.10421 0.69714,-0.40582 0.38342,-0.3016 0.79239,-0.54837 0.90881,-0.54837 0.11643,0 0.54685,-0.13885 0.95651,-0.30856 0.40966,-0.1697 0.80436,-0.32639 0.87712,-0.34818 0.0728,-0.0218 0.54901,-0.23041 1.05833,-0.46358 2.80143,-1.28252 3.32307,-1.46395 3.55865,-1.23772 0.39716,0.3814 0.7722,0.2808 0.44098,-0.11829 -0.24143,-0.29091 0.20856,-0.5691 2.35393,-1.45521 3.15138,-1.30163 3.97622,-1.36906 4.74781,-0.38814 0.51224,0.65121 0.55398,1.01805 0.52545,4.61839 -0.017,2.15105 0.0323,4.01341 0.10966,4.13857 0.22587,0.36547 66.667868,0.07 66.922448,-0.29762 z m 62.0994,-2.95267 c 4.32515,-0.945 8.62808,-2.82151 11.09081,-4.83669 1.60572,-1.31391 3.23698,-3.10883 3.79382,-4.17444 l 0.46483,-0.88955 -1.14811,-1.14812 c -2.89447,-2.89447 -1.74693,-7.10442 2.82905,-10.37881 0.81346,-0.58208 1.48159,-1.1838 1.48472,-1.33716 0.003,-0.15336 -0.42283,-0.68914 -0.94661,-1.19063 -1.25464,-1.20125 -2.70447,-3.47005 -3.37244,-5.27742 -0.67387,-1.82334 -0.70365,-5.37111 -0.06,-7.14375 0.66216,-1.82354 1.94603,-3.52986 3.40386,-4.52388 1.23668,-0.84325 1.4555,-0.89968 3.46555,-0.89377 1.54497,0.005 2.39063,0.13833 3.02122,0.47798 1.66587,0.8973 2.98997,2.36124 3.97642,4.39635 0.9354,1.92979 0.96871,2.09863 0.96871,4.90895 0,2.42136 -0.10545,3.18828 -0.62757,4.56406 -0.34516,0.9095 -0.73914,1.65364 -0.87551,1.65364 -0.13637,0 -0.17435,0.11907 -0.0844,0.26459 0.0899,0.14552 0.0304,0.26458 -0.13229,0.26458 -0.1627,0 -0.22335,0.11724 -0.1348,0.26053 0.0886,0.14329 -0.38066,0.82582 -1.04272,1.51673 -0.66205,0.69091 -1.20373,1.35377 -1.20373,1.47303 0,0.11925 -0.35705,0.34129 -0.79343,0.49341 -0.43639,0.15213 -0.73648,0.36877 -0.66685,0.48142 0.0696,0.11265 -0.61513,0.59218 -1.52167,1.06563 -3.68668,1.9254 -5.18116,3.29967 -5.40377,4.96914 -0.0995,0.74643 0.008,1.16108 0.44223,1.71251 0.70618,0.89583 1.9935,0.96402 4.39726,0.23293 6.53238,-1.98678 11.39334,-6.97039 13.09534,-13.42578 0.71233,-2.70171 0.7751,-7.59302 0.13203,-10.28892 -1.14576,-4.80337 -4.07043,-8.68613 -8.00902,-10.63268 -1.8971,-0.9376 -2.21631,-1.01016 -4.83919,-1.09993 -3.13832,-0.10742 -3.1481,-0.10276 -3.67868,1.75222 -0.20202,0.70628 -0.43386,1.06411 -0.61637,0.95131 -0.17589,-0.10871 -0.21782,-0.0599 -0.10514,0.12244 0.10308,0.16678 -0.0994,0.59001 -0.44984,0.9405 -0.35049,0.35049 -0.71689,0.84478 -0.81422,1.09842 -0.0973,0.25364 -0.25278,0.38535 -0.34544,0.29269 -0.0927,-0.0927 -0.32327,0.0525 -0.51247,0.32262 -0.89818,1.28234 -6.30576,3.76967 -10.97931,5.05016 -5.17705,1.41846 -13.20121,1.90925 -19.945,1.21992 -3.96775,-0.40557 -9.99102,-1.539 -10.58333,-1.99152 -0.14552,-0.11118 -0.60515,-0.28366 -1.02139,-0.38329 -1.93907,-0.46412 -5.12865,-2.37111 -6.73871,-4.02893 -0.49238,-0.50699 -0.94382,-0.87321 -1.00321,-0.81382 -0.24416,0.24417 -0.35411,25.64241 -0.12147,28.06055 0.20206,2.10032 0.42658,2.97091 1.16,4.49792 1.50419,3.13179 5.16869,6.63188 8.913,8.51313 2.87958,1.44678 7.54187,2.83308 11.1149,3.30494 2.72367,0.35969 11.71443,0.10118 14.02292,-0.40321 z M 95.889802,194.03435 c 0.43833,-0.44101 -0.29565,-0.74556 -1.8071,-0.74983 -1.50575,-0.004 -5.01308,-0.4765 -6.92969,-0.93308 -1.54815,-0.36881 -4.84168,-2.27739 -6.28474,-3.64198 -2.12271,-2.00728 -3.17732,-4.34833 -3.32436,-7.37952 -0.13809,-2.84678 0.45963,-5.51626 1.71461,-7.65755 1.23377,-2.10512 1.18902,-2.36032 -0.37374,-2.13111 -0.69123,0.10138 -3.69755,0.18432 -6.68073,0.18432 -5.76871,0 -9.1841,-0.41936 -12.17083,-1.49442 -0.80037,-0.28809 -1.71901,-0.5773 -2.04144,-0.64269 -1.09613,-0.22232 -5.1475,-2.48348 -6.7816,-3.78498 -4.4177,-3.51851 -7.49134,-8.09246 -9.35517,-13.92166 -0.37223,-1.16416 -0.7681,-2.35479 -0.87971,-2.64583 -0.22173,-0.57821 -1.19822,-4.99939 -1.43172,-6.48229 -1.20189,-7.633 -1.48346,-10.99632 -1.65024,-19.71146 -0.15756,-8.23348 -0.0234,-11.29819 0.73564,-16.80104 0.43513,-3.15465 1.51815,-7.903226 2.23274,-9.789576 1.21272,-3.201274 1.72427,-4.4664 2.08812,-5.164202 0.22625,-0.433909 0.4121,-0.91645 0.413,-1.072319 0.002,-0.344154 2.28078,-2.759313 2.60353,-2.759313 1.31917,0 2.60273,1.304076 2.77349,2.817815 0.0468,0.414734 0.24748,1.051716 0.446,1.415518 0.19852,0.363802 0.74224,1.733021 1.20828,3.042708 2.2265,6.257079 4.29604,9.863959 7.13511,12.435409 3.87416,3.50897 7.17988,4.62747 13.69563,4.63395 4.66427,0.005 12.14112,0.4167 14.60521,0.80493 1.71474,0.27016 3.54743,0.73717 6.87917,1.75297 1.27783,0.3896 1.77139,0.61774 5.04751,2.33315 3.893618,2.03875 8.099918,7.59391 9.115438,12.03854 0.11637,0.50933 0.27141,1.16417 0.34453,1.45521 0.54432,2.16661 0.69187,3.40133 0.83785,7.01146 0.0912,2.25557 0.0592,4.91609 -0.071,5.91227 -0.19214,1.4693 -0.16686,1.83807 0.1339,1.95349 0.20391,0.0782 1.40438,-0.34067 2.66772,-0.93092 1.26334,-0.59025 2.92792,-1.20143 3.69907,-1.35818 2.33819,-0.47527 5.83105,-0.35725 7.71321,0.26064 0.91413,0.30009 1.83965,0.47748 2.0567,0.39419 0.43735,-0.16783 0.44019,-0.13593 -0.42578,-4.77628 -0.38245,-2.0494 -0.54559,-4.0303 -0.55144,-6.69586 -0.008,-3.53416 0.084,-4.34472 0.84406,-7.45935 0.69322,-2.84054 3.26001,-6.8357 5.7796,-8.99583 1.85669,-1.5918 4.24417,-3.17312 4.79235,-3.17416 0.24427,-5.3e-4 0.60911,-0.16584 0.81077,-0.36749 0.48455,-0.48455 3.00823,-1.62881 5.27845,-2.3933 1.00305,-0.33777 1.89799,-0.6884 1.98877,-0.77917 0.0908,-0.0908 0.39992,-0.16505 0.687,-0.16505 0.61654,0 5.1226,-1.43968 6.72915,-2.14996 0.61688,-0.27273 1.19085,-0.49587 1.2755,-0.49587 0.42455,0 3.59261,-2.51063 4.25359,-3.37089 3.28985,-4.281686 4.06251,-7.233896 4.06894,-15.546815 0.002,-2.910416 0.0916,-5.422669 0.19849,-5.582787 0.2916,-0.436714 1.2768,-0.899504 1.91488,-0.899504 0.63592,0 2.72528,2.0468 3.36627,3.297705 0.2264,0.441833 0.69255,1.139894 1.03587,1.551242 0.34333,0.411345 0.62424,0.902782 0.62424,1.092081 0,0.189298 0.18571,0.498305 0.41269,0.686686 0.22699,0.188378 0.62726,0.768503 0.88951,1.289166 0.26224,0.520663 1.08856,2.134246 1.83626,3.585737 0.7477,1.451491 1.35945,2.850473 1.35945,3.108853 0,0.25838 0.10256,0.46978 0.2279,0.46978 0.75078,0 4.31127,10.657826 5.56857,16.668746 0.24617,1.17685 0.23245,1.11943 0.37937,1.5875 0.18979,0.60465 0.90129,5.51598 1.39904,9.65729 0.53643,4.46308 0.61603,13.73481 0.13971,16.27187 -0.93847,4.9987 -1.80698,8.0511 -2.71015,9.525 -0.13376,0.21828 -0.36092,0.66975 -0.50481,1.00327 -0.9527,2.20823 -6.27582,8.25715 -7.2664,8.25715 -0.22453,0 -0.40823,0.1073 -0.40823,0.23845 0,0.25086 -1.03183,0.91852 -3.4226,2.21465 -3.12616,1.6948 -8.16122,2.83845 -12.4969,2.83852 -3.90063,6e-5 -4.3118,0.23942 -3.03304,1.76568 0.77624,0.92648 1.75463,3.04175 1.75463,3.79349 0,0.3086 0.13697,0.81701 0.30438,1.12982 0.40743,0.7613 0.52403,3.86672 0.19259,5.12924 -0.63887,2.4335 -1.70945,4.38935 -3.28472,6.00089 -1.99979,2.04583 -4.88463,3.84988 -8.78777,5.49548 -0.47294,0.19939 -0.8599,0.50909 -0.8599,0.68821 0,0.39029 1.02396,0.23566 3.2328,-0.48819 0.83215,-0.27271 1.73108,-0.49583 1.9976,-0.49583 0.26653,0 0.59771,-0.10825 0.73596,-0.24056 0.13824,-0.13231 0.84666,-0.41586 1.57427,-0.63011 2.05665,-0.60559 4.85349,-1.85489 10.38164,-4.63727 2.79948,-1.40902 5.49069,-2.76292 5.98046,-3.00868 1.14985,-0.57697 1.43253,-1.37384 1.57784,-4.44796 0.10712,-2.26618 0.21802,-2.70882 1.12687,-4.49791 1.22145,-2.40447 3.55702,-4.78922 5.97346,-6.09925 1.85543,-1.00589 5.15139,-2.36174 5.77938,-2.37746 0.62996,-0.0158 1.75955,-1.87161 2.9347,-4.8215 2.05493,-5.15832 2.51262,-6.94063 4.02492,-15.67367 0.50463,-2.91404 0.38535,-20.24778 -0.16932,-24.60625 -2.55434,-20.071516 -7.44921,-33.807685 -15.82182,-44.399828 -0.56009,-0.708568 -1.01834,-1.528477 -1.01834,-1.822022 0,-0.353144 -0.12752,-0.48478 -0.37691,-0.38908 -0.21348,0.08192 -0.54371,-0.109945 -0.7616,-0.442481 -0.21158,-0.322914 -1.70885,-1.908474 -3.32726,-3.52347 -1.61841,-1.614995 -2.94257,-3.043912 -2.94257,-3.175373 0,-0.131458 -0.32742,-0.378655 -0.7276,-0.54933 -0.40018,-0.170672 -1.6801,-1.064358 -2.84427,-1.985968 -2.18819,-1.732274 -4.73144,-3.404928 -7.26848,-4.780367 -0.80452,-0.436165 -1.76043,-0.987388 -2.12423,-1.224936 -0.3638,-0.237548 -1.25677,-0.703794 -1.98437,-1.036103 -0.72761,-0.332306 -1.6212,-0.76414 -1.98576,-0.95963 -3.68245,-1.974628 -12.86926,-4.865714 -18.12258,-5.703173 -1.01864,-0.162388 -2.2688,-0.401804 -2.77812,-0.532035 -3.05435,-0.780984 -13.59319,-1.426893 -19.71146,-1.208085 -8.254818,0.29522 -18.012368,1.605934 -24.209368,3.252002 -0.80037,0.212595 -1.87193,0.493868 -2.38125,0.625049 -2.21605,0.570767 -9.39655,2.818071 -11.37708,3.560725 -3.4152,1.280615 -11.24984,5.074769 -13.62605,6.598801 -4.13313,2.650884 -5.54561,3.640023 -7.93749,5.558541 -5.09565,4.087185 -11.4317,10.952955 -14.11583,15.295964 -0.33644,0.544372 -0.7409,0.989766 -0.89881,0.989766 -0.15791,0 -0.21703,0.07007 -0.13139,0.155713 0.0856,0.08564 -0.2031,0.764262 -0.64165,1.508045 -2.6462,4.487971 -5.42265,10.997456 -6.95688,16.310649 -1.42006,4.917786 -2.96098,13.069196 -3.43005,18.144796 -0.70146,7.59006 -0.46628,18.53895 0.53129,24.73496 0.67456,4.18981 2.58533,12.03735 3.05684,12.55448 0.12605,0.13824 0.22918,0.40693 0.22918,0.59708 0,0.19014 0.43213,1.44625 0.96029,2.79135 2.06885,5.2689 5.18146,10.762 8.31878,14.68089 1.78332,2.22758 8.01038,8.53453 8.42642,8.53453 0.1409,0 0.41357,0.20836 0.60593,0.46302 0.19237,0.25466 0.55156,0.58208 0.79821,0.7276 0.24665,0.14552 1.43546,0.93316 2.64181,1.7503 8.65573,5.86315 18.24925,9.27177 30.50377,10.83811 4.63163,0.592 23.00775,0.7444 23.55346,0.19534 z m 34.257998,-1.92022 c 0,-0.0642 -0.11907,-0.19026 -0.26459,-0.28019 -0.14552,-0.0899 -0.26458,-0.0374 -0.26458,0.11667 0,0.15411 0.11906,0.2802 0.26458,0.2802 0.14552,0 0.26459,-0.0525 0.26459,-0.11668 z m 96.20815,-0.82524 c 1.83782,-1.94867 2.50459,-6.72823 1.27765,-9.15854 -1.60017,-3.1696 -4.50234,-3.65361 -6.32541,-1.05492 -0.7419,1.05753 -0.80409,1.3175 -0.79117,3.30729 0.0116,1.78448 0.13785,2.41649 0.72697,3.63894 0.79687,1.65354 3.09005,4.20915 3.77691,4.20915 0.24569,0 0.84646,-0.42386 1.33505,-0.94192 z m -116.68828,-1.72286 c 5.07387,-0.34185 16.5689,-1.92877 18.63989,-2.57329 0.5028,-0.15648 1.44998,-0.40376 2.10482,-0.54952 1.62234,-0.36111 6.09553,-1.73317 6.74687,-2.06947 0.29105,-0.15026 1.92075,-0.95246 3.62158,-1.78266 3.66289,-1.7879 5.67583,-3.53317 6.72946,-5.83458 0.9686,-2.1157 0.93845,-5.32488 -0.0704,-7.49368 -1.25406,-2.69595 -4.15042,-5.87173 -6.21323,-6.81267 -4.2666,-1.94618 -6.16859,-3.1926 -8.85946,-5.80581 -1.04365,-1.01354 -3.80689,-4.46436 -3.80689,-4.75417 0,-0.40399 -2.4913,-3.44004 -3.23519,-3.9426 -2.03,-1.37145 -3.84172,-1.86056 -6.9413,-1.87394 -3.73463,-0.0161 -4.52099,0.16119 -7.67454,1.73058 -1.909,0.95002 -3.38693,2.27284 -4.11237,3.68076 -0.18745,0.3638 -0.44998,0.73291 -0.58339,0.82024 -0.13341,0.0873 -0.26963,0.3432 -0.30271,0.56862 -0.0331,0.22541 -0.19002,0.57068 -0.34874,0.76726 -0.15871,0.19658 -0.37128,0.74423 -0.47237,1.21699 -0.10109,0.47276 -0.40409,1.01387 -0.67334,1.20246 -0.26925,0.18858 -0.57038,0.66498 -0.66919,1.05866 -0.0988,0.39367 -0.28954,0.71577 -0.42385,0.71577 -0.13431,0 -0.31935,0.20836 -0.4112,0.46302 -0.17658,0.48959 -0.6255,1.04287 -1.60233,1.97485 -0.32743,0.31238 -0.59532,0.69588 -0.59532,0.85222 0,0.15633 -0.542508,0.70041 -1.205568,1.20905 -1.3769,1.05624 -2.45244,1.93418 -3.02776,2.47148 -0.21828,0.20386 -0.65377,0.44981 -0.96774,0.54655 -0.31398,0.0967 -0.63767,0.34995 -0.7193,0.56269 -0.0816,0.21274 -0.37572,0.38681 -0.65351,0.38681 -0.27779,0 -0.6522,0.17728 -0.83203,0.39396 -0.17983,0.21668 -0.41904,0.33705 -0.53159,0.26749 -0.11254,-0.0695 -0.35175,0.0508 -0.53158,0.2675 -0.17983,0.21668 -0.55023,0.39396 -0.82312,0.39396 -0.27288,0 -1.06198,0.40651 -1.75354,0.90334 -0.69156,0.49684 -1.37644,0.92872 -1.52196,0.95973 -0.65061,0.13866 -0.98317,0.38811 -2.43481,1.8263 -1.40676,1.39373 -2.18516,2.39469 -3.30354,4.24813 -1.51987,2.51882 -1.57878,7.15746 -0.12005,9.45321 0.58201,0.91598 4.14897,3.51137 4.82582,3.51137 0.20806,0 0.58504,0.11909 0.83773,0.26464 1.64456,0.94729 13.260218,1.35792 21.915758,0.77475 z m 3.4145,-24.36012 c -0.71102,-0.42225 -0.91717,-0.76587 -0.92199,-1.53687 -0.005,-0.72939 0.40319,-0.4646 0.59078,0.38365 0.10837,0.49004 0.13221,0.4942 0.32235,0.0563 0.13254,-0.30525 0.0533,-0.64091 -0.22363,-0.94688 -0.57378,-0.63401 -0.54935,-0.71922 0.29864,-1.04171 1.45084,-0.55175 3.45817,-0.87695 5.722,-0.92701 2.1835,-0.0483 2.33854,-0.0146 2.81244,0.61035 0.74919,0.98806 0.11078,3.03388 -0.96277,3.08524 -0.27174,0.013 -1.08938,0.11054 -1.81699,0.21676 -2.57589,0.37604 -5.278,0.42254 -5.82083,0.10018 z m 6.81302,-3.04824 c -0.1819,-0.0734 -0.47955,-0.0734 -0.66146,0 -0.1819,0.0734 -0.0331,0.13345 0.33073,0.13345 0.36381,0 0.51263,-0.0601 0.33073,-0.13345 z m 43.79924,21.9372 c 0.0423,-1.20054 0.0165,-2.18281 -0.0573,-2.18281 -0.0738,0 -1.69444,0.79417 -3.6015,1.76483 -2.47702,1.26075 -3.35622,1.82705 -3.07816,1.98265 0.5487,0.30707 3.76202,0.70239 5.33716,0.6566 l 1.32292,-0.0384 z m 34.69424,-6.54712 c 1.66159,-0.0816 3.50706,-0.25741 4.10104,-0.39063 0.59398,-0.13322 2.07792,-0.43022 3.29766,-0.66 2.57605,-0.48529 2.67709,-0.53141 2.67709,-1.22187 0,-0.36567 -0.23449,-0.56706 -0.78946,-0.67806 -0.4342,-0.0868 -0.73319,-0.24892 -0.66443,-0.36018 0.14884,-0.24083 -0.78162,-0.51836 -1.75486,-0.52342 -0.38236,-0.002 -0.83463,-0.17161 -1.00503,-0.37693 -0.74045,-0.89218 0.5386,-0.69533 5.04938,0.77711 l 2.2908,0.74778 1.78393,-0.90651 c 0.98116,-0.49859 2.33155,-1.39921 3.00086,-2.00138 1.16633,-1.04932 1.21693,-1.15545 1.21693,-2.55191 0,-1.06657 -0.13642,-1.6078 -0.50906,-2.01956 -4.84392,-5.35247 -24.22205,-7.11263 -37.67433,-3.42206 -1.10902,0.30426 -2.13926,0.58009 -2.28942,0.61295 -0.60727,0.13291 -4.47479,1.79477 -4.63864,1.9932 -0.0728,0.0881 -0.57878,0.49547 -1.12448,0.90523 -0.92387,0.69372 -0.99219,0.83979 -0.99219,2.12121 0,1.18221 0.1261,1.52273 0.89472,2.41599 0.49209,0.57189 1.74971,1.49871 2.79471,2.05959 2.01345,1.08067 2.36554,1.10908 4.37866,0.35331 0.77338,-0.29034 1.195,-0.32263 1.57277,-0.12046 0.49132,0.26295 0.47894,0.30589 -0.25745,0.89307 -1.21351,0.96762 -0.85465,1.11638 4.7718,1.97807 2.17842,0.33363 8.27163,0.70635 9.78958,0.59883 0.58208,-0.0412 2.41782,-0.14175 4.07942,-0.22337 z m -47.95016,-5.35913 c -0.0666,-0.25466 -0.121,-0.0463 -0.121,0.46303 0,0.50932 0.0545,0.71768 0.121,0.46302 0.0666,-0.25467 0.0666,-0.67138 0,-0.92605 z m -74.492178,-4.03811 c 5.71126,-0.55821 9.18585,-1.5283 14.11953,-3.9421 3.47199,-1.69867 5.75929,-3.28346 7.56192,-5.23939 0.64179,-0.69637 1.26504,-1.23346 1.385,-1.19353 0.11995,0.0399 0.15529,-0.029 0.0785,-0.15326 -0.0768,-0.12422 0.20482,-0.64369 0.62577,-1.15437 1.105998,-1.34177 3.068438,-5.38562 3.673918,-7.57055 0.87468,-3.15639 1.17452,-6.57839 1.02107,-11.6532 -0.16071,-5.31485 -0.60732,-7.51142 -2.15014,-10.57504 -1.85827,-3.69004 -4.836218,-6.47989 -8.941358,-8.37658 -4.28037,-1.97765 -8.78993,-2.66955 -19.79358,-3.03689 -7.65421,-0.25553 -9.09653,-0.45095 -12.17084,-1.64905 -6.05639,-2.36027 -10.91138,-8.10452 -14.16374,-16.758026 -0.54693,-1.4552 -1.09345,-2.756206 -1.21447,-2.891111 -0.64973,-0.72421 -3.00829,7.775687 -3.84904,13.871317 -0.56691,4.11023 -0.64242,18.2335 -0.12873,24.07708 1.71197,19.47482 5.82918,28.53615 15.14615,33.3343 4.76783,2.45538 12.00015,3.575 18.80003,2.9104 z m -6.12353,-11.52072 c -3.90604,-0.83892 -8.66044,-4.10324 -10.0773,-6.91897 -0.35108,-0.6977 -0.72299,-1.33224 -0.82648,-1.4101 -0.48061,-0.36157 -1.25075,-2.69282 -1.48285,-4.48866 -0.55571,-4.29974 0.74919,-8.43673 3.70841,-11.75689 1.39231,-1.56214 3.78202,-3.33446 5.45101,-4.04273 1.75998,-0.74688 4.65104,-1.38915 6.26992,-1.39291 1.91526,-0.004 6.31497,0.7278 6.43819,1.07152 0.0485,0.13531 0.36065,0.24601 0.69366,0.24601 0.70298,0 4.58576,2.45572 4.81105,3.04282 0.0837,0.21822 0.299,0.39677 0.47835,0.39677 0.17936,0 0.45504,0.283 0.61264,0.62889 0.1576,0.34589 0.67441,1.07064 1.14847,1.61057 1.97569,2.25019 2.86908,4.80146 2.90471,8.29501 0.0279,2.72998 -0.468,5.03113 -1.25331,5.81644 -0.1956,0.1956 -0.35564,0.58634 -0.35564,0.86831 0,0.28197 -0.32742,0.86225 -0.7276,1.2895 -0.40019,0.42726 -1.37002,1.49405 -2.15519,2.37066 -0.78517,0.8766 -1.52931,1.53095 -1.65364,1.4541 -0.12434,-0.0768 -0.22607,-0.009 -0.22607,0.14989 0,0.15928 -0.56555,0.532 -1.25677,0.82828 -0.69122,0.29627 -1.44421,0.70827 -1.6733,0.91557 -0.22909,0.20729 -1.34947,0.6155 -2.48972,0.90713 -2.43401,0.62251 -5.7718,0.67006 -8.33854,0.11879 z m 11.57014,-10.87238 c 1.27249,-0.95005 1.71834,-1.79452 1.756,-3.32595 0.0294,-1.19708 -0.0882,-1.59854 -0.70596,-2.40943 -1.46597,-1.92425 -3.69892,-2.33542 -5.68598,-1.04698 -2.54839,1.6524 -2.27412,5.78792 0.47413,7.14897 0.95431,0.47262 3.31646,0.26454 4.16181,-0.36661 z m 76.963038,13.95322 c 7.40934,-1.82061 13.43944,-7.29825 15.87939,-14.42455 1.28674,-3.75817 1.54827,-5.90422 1.53388,-12.58652 -0.0174,-8.05712 -0.52899,-12.74185 -2.24093,-20.51896 -1.46312,-6.64675 -3.47491,-12.403126 -6.30751,-18.047716 -1.62025,-3.228744 -3.31576,-5.950285 -3.55682,-5.709229 -0.0983,0.09828 -0.1787,1.089483 -0.1787,2.20267 0,1.913815 -0.35776,4.689059 -0.71684,5.560749 -0.0899,0.21828 -0.18866,0.48617 -0.21942,0.59531 -0.0308,0.10914 -0.0857,0.25797 -0.12207,0.33073 -0.0364,0.0728 -0.0959,0.25135 -0.13229,0.39687 -0.0364,0.14552 -0.0951,0.35388 -0.13055,0.46302 -0.0354,0.10914 -0.0522,0.28218 -0.0372,0.38454 0.0671,0.45888 -2.10976,4.540376 -2.92357,5.481506 -0.24502,0.28335 -0.65278,0.83155 -0.90614,1.21822 -0.25336,0.38668 -0.7375,0.80831 -1.07587,0.93696 -0.33837,0.12865 -0.6167,0.38568 -0.6185,0.57118 -0.004,0.39727 -1.6629,1.52791 -2.24197,1.52791 -0.22032,0 -0.40059,0.12608 -0.40059,0.28019 0,0.15411 -0.11589,0.20858 -0.25753,0.12104 -0.14164,-0.0875 -0.46329,0.0811 -0.71478,0.37485 -0.28305,0.33058 -1.92369,0.99944 -4.30652,1.7557 -6.85302,2.17498 -8.57521,2.78868 -10.72846,3.82308 -2.47916,1.19097 -4.19714,2.16251 -4.32207,2.44418 -0.0488,0.11005 -0.21604,0.12142 -0.37161,0.0253 -0.16003,-0.0989 -0.20632,-0.051 -0.10659,0.11041 0.097,0.15688 -0.21207,0.55783 -0.68672,0.89102 -0.99595,0.6991 -3.07673,2.88052 -3.12021,3.27113 -0.0162,0.14552 -0.19109,0.44318 -0.38863,0.66146 -0.19754,0.21828 -0.35791,0.45641 -0.35638,0.52917 0.0103,0.48815 -0.40406,1.5875 -0.59834,1.5875 -0.12975,0 -0.21305,0.0893 -0.18511,0.19843 0.0279,0.10915 -0.15067,1.05538 -0.39688,2.10276 -0.77331,3.28956 -0.55147,9.45196 0.51721,14.36756 0.0791,0.3638 0.20697,1.01864 0.28416,1.4552 0.0772,0.43657 0.22871,0.91282 0.3367,1.05834 0.10798,0.14552 0.39795,0.85989 0.64436,1.5875 1.5419,4.55278 4.82178,8.87226 9.41191,12.39514 1.51653,1.16393 5.83606,2.65894 8.8632,3.06759 2.80331,0.37843 8.3624,0.12792 10.87798,-0.49021 z m -8.76131,-10.86425 c -1.01865,-0.27104 -2.2733,-0.67224 -2.78812,-0.89156 -1.33478,-0.56864 -4.11319,-2.66905 -4.67388,-3.53335 -0.26153,-0.40313 -0.68638,-0.94581 -0.94412,-1.20595 -0.79029,-0.79766 -2.03418,-3.8289 -2.36653,-5.76704 -0.38115,-2.22267 -0.0216,-5.23465 0.86688,-7.26246 0.76182,-1.73868 2.98911,-4.89479 3.4543,-4.89479 0.0978,0 0.53152,-0.33042 0.96385,-0.73428 2.04056,-1.90617 7.03296,-3.43094 10.11783,-3.09017 1.93088,0.21329 4.05058,0.81419 5.10075,1.44598 0.46881,0.28204 1.29886,0.7564 1.84456,1.05414 0.5457,0.29773 0.99219,0.65689 0.99219,0.79811 0,0.14123 0.41524,0.52576 0.92276,0.85452 0.50752,0.32876 0.92424,0.72582 0.92605,0.88235 0.002,0.15653 0.29726,0.5608 0.65657,0.89836 0.35932,0.33756 0.59042,0.7155 0.51356,0.83987 -0.0769,0.12436 -0.007,0.22612 0.15606,0.22612 0.1627,0 0.22851,0.1089 0.14626,0.24199 -0.0823,0.13309 -0.053,0.28191 0.0649,0.33073 0.11796,0.0488 0.5617,0.91224 0.98611,1.91873 0.67943,1.61131 0.76933,2.13348 0.75227,4.36942 -0.0136,1.78093 -0.1461,2.78447 -0.44365,3.35987 -0.23336,0.45126 -0.48652,1.16368 -0.56258,1.58315 -0.0761,0.41948 -0.34219,0.91177 -0.59138,1.09398 -0.24919,0.18221 -0.3666,0.3313 -0.2609,0.3313 0.2199,0 -0.26274,0.99665 -0.76878,1.5875 -1.12781,1.31683 -3.16459,3.175 -3.48021,3.175 -0.20415,0 -0.30844,0.10152 -0.23176,0.2256 0.22184,0.35895 -2.43083,1.56947 -4.71458,2.15147 -2.55948,0.65226 -4.21917,0.65511 -6.63841,0.0114 z m 9.15296,-10.47112 c 3.15152,-1.62971 1.86978,-6.72954 -1.69221,-6.73304 -1.48423,-0.002 -3.0405,0.97827 -3.36067,2.11568 -0.84343,2.9963 0.44882,4.98781 3.25525,5.01672 0.55293,0.006 1.36186,-0.17401 1.79763,-0.39936 z"
       id="path2079" /></g></svg>
