<?xml version="1.0" encoding="UTF-8" standalone="no"?>
<!-- Created with Inkscape (http://www.inkscape.org/) -->

<svg
   width="190.16302mm"
   height="228.75374mm"
   viewBox="0 0 190.16303 228.75372"
   version="1.1"
   id="svg5"
   xml:space="preserve"
   xmlns="http://www.w3.org/2000/svg"
   xmlns:svg="http://www.w3.org/2000/svg"><defs
     id="defs2" /><g
     id="layer1"
     transform="translate(34.624511,-19.685593)"><path
       style="fill:#000000;stroke-width:0.264583"
       d="m 91.849593,248.24164 c -7.1427,-0.17321 -7.81681,-0.30881 -10.41192,-2.09429 -2.368,-1.62923 -4.49636,-5.305 -7.86761,-13.58775 l -1.69651,-4.16813 -3.66325,0.0671 -3.66324,0.0671 -0.85974,2.11667 c -1.39839,3.4428 -3.2201,7.10932 -3.78334,7.61461 -0.28866,0.25898 -0.7309,0.97335 -0.98274,1.5875 -0.91196,2.22391 -1.35805,2.9599 -2.65811,4.38555 -1.60173,1.75647 -3.50623,3.01624 -5.41835,3.58408 -1.9736,0.5861 -21.31991,0.62399 -23.49108,0.046 -2.61306,-0.69562 -4.50359,-2.15014 -5.6268,-4.32911 -0.56461,-1.09531 -0.57998,-1.33163 -0.4474,-6.87917 0.13614,-5.69632 0.39674,-7.56759 1.94229,-13.94697 0.10691,-0.44129 -0.25238,-0.72228 -2.1635,-1.69204 -3.77856,-1.91735 -6.62745,-5.13172 -9.47656,-10.69231 -5.6995398,-11.12374 -5.4403898,-23.7779 0.65143,-31.80874 1.11769,-1.47346 4.58615,-4.90222 6.12841,-6.05828 0.5457,-0.40905 0.99219,-0.85239 0.99219,-0.98521 0,-0.28984 0.3217,-0.18777 -4.89479,-1.55291 -8.5130698,-2.22784 -15.4742698,-5.25354 -21.1254298,-9.1822 -2.6663,-1.8536 -3.01274,-2.14147 -5.8195102,-4.8356 -6.27131,-6.01962 -10.78152,-14.5118 -12.9938,-24.46577 -1.38859,-6.24786 -1.60217,-8.48178 -1.58176,-16.54464 0.0194,-7.65205 0.1859,-9.59006 1.34593,-15.663399 0.42998,-2.251136 0.42705,-2.34455 -0.13278,-4.233328 -0.69123,-2.332141 -0.74652,-5.165585 -0.1474,-7.554489 0.23285,-0.928484 0.38168,-1.711545 0.33073,-1.740138 -0.051,-0.02859 -0.74749,-0.272677 -1.54786,-0.542412 -2.59149,-0.873366 -4.74112,-2.798961 -6.09056,-5.455816 -2.17316,-4.278659 -1.6096,-10.478812 1.28175,-14.101312 0.8234,-1.031611 3.25141,-3.091987 3.65607,-3.102488 0.12468,-0.0032 0.51516,-0.227624 0.86773,-0.49864 l 0.64102,-0.492757 -0.56893,-1.322528 c -1.50169,-3.490764 -0.72707,-8.51188 1.80667,-11.710989 2.67005,-3.371212 8.37333,-5.166212 12.16459,-3.828576 0.61867,0.218281 1.22279,0.396875 1.34249,0.396875 0.1197,0 0.42096,-0.724652 0.66947,-1.610339 2.0969102,-7.473336 11.28204016,-11.405547 18.4906002,-7.915939 l 1.19112,0.576609 0.99326,-0.778187 C 19.363953,27.3715 33.345623,22.323644 50.839173,20.287808 c 5.01898,-0.584091 15.35801,-0.790793 20.37292,-0.407305 16.46594,1.259142 29.602587,5.434166 41.987707,13.344329 10.8634,6.938263 20.25512,16.716596 28.14562,29.304251 10.11054,16.129271 15.18737,35.370558 14.0313,53.178937 -0.66727,10.27882 -2.86348,18.27938 -7.03678,25.63425 -4.2122,7.42341 -12.13366,15.44557 -19.7847,20.0362 -4.83865,2.90319 -11.32111,5.84657 -16.53117,7.50601 -1.05503,0.33603 -1.91823,0.69984 -1.91823,0.80847 0,0.10863 0.22613,0.3559 0.50252,0.54948 0.27639,0.19359 2.01214,1.69914 3.85723,3.34566 l 3.3547,2.99367 1.77156,-1.7103 c 2.30234,-2.22272 4.54908,-3.65555 7.28356,-4.645 7.68486,-2.78071 14.88093,-1.95232 18.55688,2.13623 2.33811,2.60054 3.3596,5.8516 3.34772,10.65464 -0.0102,4.13622 -0.79716,7.33999 -2.79451,11.37709 -6.96522,14.07828 -22.19736,20.43927 -37.28586,15.57067 -0.70066,-0.22607 -1.3268,-0.35816 -1.39143,-0.29353 -0.0646,0.0646 0.47399,1.89247 1.19695,4.06185 3.06525,9.19793 6.20849,24.11813 5.72196,27.16074 -0.62412,3.90299 -3.67658,6.59917 -8.27979,7.31338 -1.94559,0.30187 -2.95607,0.30432 -14.097737,0.0341 z m -41.03601,-6.15439 c 1.16391,-0.71748 1.96905,-1.64766 2.83359,-3.27362 0.75401,-1.4181 0.68332,-2.00133 -0.21515,-1.77505 -1.32735,0.33429 -10.99776,0.4055 -13.57305,0.0999 -4.99391,-0.59252 -7.90429,-1.36121 -11.64167,-3.0748 -0.7276,-0.33361 -1.40471,-0.52553 -1.50469,-0.42648 -0.1,0.099 -0.32905,1.45377 -0.50905,3.01051 -0.40386,3.49284 -0.14044,4.72309 1.164,5.43625 0.73472,0.40168 1.90626,0.48597 8.65495,0.62275 11.05497,0.22407 13.59523,0.11767 14.79107,-0.6195 z m 56.298237,0.32809 c 1.43038,-0.51489 1.76095,-1.33112 1.59752,-3.94464 -0.0781,-1.24968 -0.28338,-2.90356 -0.45607,-3.67529 -0.30269,-1.35263 -0.33452,-1.38986 -0.88436,-1.03404 -0.3137,0.20301 -0.92342,0.45618 -1.35494,0.56259 -0.43151,0.10642 -1.32448,0.44316 -1.98437,0.74831 -3.37592,1.56112 -13.823947,2.27869 -19.746857,1.35621 -1.52392,-0.23735 -2.82282,-0.37948 -2.88645,-0.31585 -0.27942,0.27941 0.50955,2.18657 1.53353,3.70695 1.4735,2.18784 2.3837,2.6902 5.2156,2.8786 3.90898,0.26007 18.043737,0.0493 18.966397,-0.28284 z m -57.198687,-7.41397 c 2.03729,-0.14626 4.29568,-0.41297 5.01863,-0.5927 1.22598,-0.30478 1.36269,-0.42473 2.03096,-1.78198 0.39407,-0.80037 0.84906,-1.60404 1.01107,-1.78594 0.16202,-0.1819 0.24485,-0.33073 0.18407,-0.33073 -0.0608,0 0.41078,-1.2791 1.0479,-2.84244 0.63713,-1.56334 1.15841,-3.02249 1.15841,-3.24255 0,-0.74728 -5.18346,-5.77227 -9.36744,-9.08104 -1.54422,-1.2212 -5.19666,-3.61939 -5.51232,-3.61939 -0.083,0 -0.51396,0.64318 -0.95761,1.42929 -1.6016,2.83787 -5.10358,5.83126 -8.83736,7.55391 -1.51785,0.70029 -5.02562,1.60014 -6.23763,1.60014 -0.41258,0 -0.61601,0.40858 -1.0868,2.18281 -0.9652,3.63749 -1.37044,6.36672 -0.99732,6.71681 0.69041,0.64779 3.60518,1.95489 5.7444,2.57602 1.23693,0.35914 3.55865,0.78221 5.15938,0.94015 1.60073,0.15793 3.2676,0.32818 3.70416,0.37833 1.65736,0.19037 4.36076,0.15608 7.9375,-0.10069 z m 50.00625,-1.0391 c 3.255567,-0.63588 4.753377,-1.12011 6.440287,-2.08208 l 1.14863,-0.65501 -0.18091,-1.21747 c -0.48116,-3.23812 -4.20075,-16.21736 -5.92199,-20.66436 -0.56623,-1.46291 -0.88167,-1.96351 -1.20039,-1.90498 -0.445457,0.0818 -4.491237,2.56706 -6.538057,4.01621 -0.63575,0.45011 -1.63215,1.12811 -2.21424,1.50667 -0.58208,0.37856 -1.23692,0.84932 -1.4552,1.04613 -1.08599,0.97919 -5.01183,4.06722 -5.1707,4.06722 -0.10004,0 -0.5849,0.43999 -1.07747,0.97775 -0.49257,0.53776 -0.89558,0.90532 -0.89558,0.81679 0,-0.0885 -0.62508,0.45526 -1.38907,1.20842 -0.76398,0.75315 -1.92484,1.812 -2.57968,2.35301 -1.79464,1.48264 -2.11667,1.83815 -2.11667,2.33669 0,0.47889 1.64067,4.88389 2.28286,6.12923 0.20563,0.39875 0.81791,0.94806 1.36061,1.22068 3.12492,1.56974 13.49706,2.01909 19.50757,0.8451 z m -23.15104,-12.22854 c 3.5504,-3.30292 6.51209,-5.84896 9.50461,-8.1707 3.65208,-2.83346 9.20333,-6.60093 9.72628,-6.60093 0.19155,0 0.34828,-0.0984 0.34828,-0.21868 0,-0.12028 0.9525,-0.74363 2.11666,-1.38523 1.16417,-0.6416 2.116667,-1.24388 2.116667,-1.33839 0,-0.0945 -0.32742,-0.38406 -0.727607,-0.64344 -1.10854,-0.71852 -3.97524,-3.54407 -4.952,-4.88092 -3.26062,-4.46271 -5.15863,-10.56334 -6.91456,-22.225 -0.20815,-1.38245 -0.42097,-2.63261 -0.47292,-2.77813 -0.0569,-0.15932 -0.81367,-0.21195 -1.90219,-0.13229 l -1.80772,0.13229 -0.0447,3.70417 c -0.0594,4.91619 -0.80414,7.09987 -3.13646,9.19611 -2.54396,2.28645 -5.50147,3.18641 -10.46889,3.18562 -5.51879,-7.9e-4 -8.76388,-0.99849 -11.28045,-3.46788 -2.26452,-2.22206 -3.11351,-5.00003 -2.96126,-9.68947 l 0.0865,-2.66396 -1.98438,-0.0726 -1.98437,-0.0726 -0.88388,4.57051 c -0.91128,4.71224 -2.73471,10.71358 -3.96118,13.03718 -0.38405,0.7276 -1.28667,2.20004 -2.00583,3.27207 -1.15769,1.72576 -1.26894,2.011 -0.97063,2.48867 0.89478,1.43278 2.1008,4.17521 2.4006,5.45886 0.21419,0.91714 0.28229,2.36804 0.18987,4.04535 l -0.14412,2.61532 1.89384,1.23519 c 5.29248,3.45187 10.24761,7.80219 12.92289,11.34558 l 1.07306,1.42125 6.38436,-0.007 6.38435,-0.007 z m -42.79922,-3.8052 c 3.52092,-1.2099 6.47979,-3.69957 7.91894,-6.66321 0.7334,-1.51029 0.88436,-2.14836 0.96702,-4.0873 0.17005,-3.98914 -0.79127,-6.6663 -3.64029,-10.13779 -1.69074,-2.06014 -2.85281,-3.76389 -2.97765,-4.36563 -0.0453,-0.21828 -0.1533,-0.4564 -0.24004,-0.52916 -0.0867,-0.0728 -0.2358,-0.45162 -0.33125,-0.8419 -0.1431,-0.58507 -0.069,-0.74047 0.42228,-0.88545 0.32771,-0.0967 1.51055,-0.63994 2.62853,-1.20716 2.0991,-1.06501 2.66774,-1.09803 3.15726,-0.18334 0.23984,0.44812 0.10193,0.69032 -0.95182,1.67161 -1.37015,1.27595 -1.36484,1.48635 0.0721,2.85352 l 0.78388,0.74583 0.93093,-1.1427 c 0.51201,-0.62849 1.29145,-1.7575 1.7321,-2.50891 1.37051,-2.3371 3.48101,-9.14346 4.17069,-13.45046 0.0699,-0.43656 0.25469,-1.36068 0.41063,-2.05359 0.15594,-0.69292 0.2204,-1.42437 0.14323,-1.62545 -0.0875,-0.22817 -0.76911,-0.433 -1.81306,-0.54488 -4.40961,-0.47261 -10.12447,-1.2727 -12.42996,-1.74022 -3.20358,-0.64965 -3.331,-0.64744 -4.91287,0.0855 -3.76103,1.74251 -8.50367,5.20887 -11.6973,8.54946 -3.4028,3.5594 -4.7353,6.45709 -5.31778,11.56424 -0.26478,2.32153 0.0467,6.58153 0.68128,9.3178 1.21738,5.24923 4.23052,10.91852 7.52068,14.15031 1.63872,1.60966 4.47941,3.16003 6.35922,3.47071 1.71216,0.28296 4.95408,0.0596 6.41328,-0.44178 z M 125.21492,205.2649 c 8.22788,-2.04814 14.30297,-7.73555 16.98547,-15.90153 1.6976,-5.16779 1.42055,-10.87311 -0.64207,-13.22231 -1.38664,-1.5793 -2.39669,-2.03236 -4.87571,-2.18702 -2.51118,-0.15666 -2.53624,-0.13339 -1.70613,1.58474 0.89116,1.84449 1.21914,3.97884 0.83474,5.4321 -0.42288,1.59875 -1.58715,3.06212 -2.58286,3.24637 -0.65425,0.12108 -0.75698,0.2533 -0.70833,0.91172 0.0332,0.44923 0.39066,1.10385 0.85792,1.57111 l 0.801,0.801 -1.20892,1.22739 c -1.44128,1.46327 -1.76224,2.77535 -1.0474,4.28176 0.46801,0.98626 1.16089,1.37466 2.87921,1.61397 1.30299,0.18146 1.80913,0.61311 1.70956,1.45792 -0.06,0.50947 -0.33122,0.7701 -1.10732,1.06429 -0.92939,0.3523 -1.15738,0.34436 -2.38125,-0.083 -2.17224,-0.75844 -3.79547,-2.63053 -4.22271,-4.8701 -0.21653,-1.13506 0.22979,-3.15642 0.90129,-4.08191 0.47378,-0.65297 0.48963,-0.80063 0.15626,-1.45521 -0.47179,-0.92638 -1.231,-3.55329 -1.231,-4.25934 0,-0.76516 0.39802,-0.91646 1.42962,-0.54343 0.71549,0.25873 1.06291,0.25592 1.71421,-0.0139 1.78701,-0.7402 1.76854,-4.21144 -0.0333,-6.26366 -0.76747,-0.87409 -0.9096,-0.9318 -1.9038,-0.77297 -2.78127,0.44433 -5.86019,2.59983 -7.42441,5.19771 -0.48417,0.80413 -0.69788,0.90689 -2.51354,1.20872 -1.09141,0.18143 -2.46062,0.45123 -3.04271,0.59956 -0.58208,0.14833 -1.13559,0.27253 -1.23002,0.276 -0.0944,0.003 -1.46366,-1.28283 -3.04271,-2.85846 -3.38875,-3.38138 -9.81783,-8.56531 -10.40442,-8.38934 -1.07758,0.32325 -8.015327,1.46471 -8.910317,1.46601 -0.88018,0.001 -3.00315,0.43544 -3.00315,0.61417 0,1.70748 1.54436,10.80345 2.3662,13.93644 1.41286,5.38606 3.22143,9.21173 5.41867,11.46213 1.15275,1.18065 1.32341,1.2753 1.48374,0.82296 0.32682,-0.92204 -0.26276,-6.52475 -0.94475,-8.9778 -0.35082,-1.26187 1.22923,-1.98554 2.021887,-0.92604 0.99629,1.33169 2.00973,8.90958 1.4344,10.72554 -0.10918,0.34461 0.0178,0.77887 0.35199,1.20372 1.16548,1.48167 7.52216,3.89607 11.5453,4.38515 0.58057,0.0706 1.10643,0.17918 1.16858,0.24133 0.0621,0.0622 1.7898,0.1116 3.83922,0.10988 3.03695,-0.003 4.19631,-0.12015 6.26759,-0.63575 z M 75.463593,186.35563 c 2.66704,-0.84681 4.31401,-2.3536 5.15782,-4.7188 0.38239,-1.07184 0.52274,-7.11514 0.17777,-7.65495 -0.14337,-0.22435 -1.96508,-0.25451 -6.94126,-0.11491 -3.71078,0.1041 -8.5094,0.12193 -10.66359,0.0396 -2.33649,-0.0893 -4.01777,-0.0483 -4.16719,0.10168 -0.13776,0.13825 -0.25047,1.82363 -0.25047,3.74531 0,3.85261 0.27268,4.75658 1.9533,6.47556 1.16999,1.19669 3.79088,2.36273 6.11649,2.72124 1.91358,0.29499 6.89853,-0.049 8.61713,-0.59473 z m 3.03782,-18.27297 c 3.35429,-0.15287 7.46145,-0.45769 9.12703,-0.67737 1.66559,-0.21968 3.7432,-0.47043 4.61693,-0.55723 0.87373,-0.0868 1.67789,-0.21195 1.78703,-0.27812 0.55546,-0.33678 -0.27985,-4.80844 -1.67883,-8.98726 -1.41799,-4.23565 -5.56335,-12.23118 -7.56847,-14.59804 l -0.74072,-0.87434 -9.38622,0.019 -9.38623,0.019 -1.02997,0.98762 c -2.34632,2.24986 -5.64292,6.17752 -7.69868,9.17243 -2.97547,4.33476 -6.92445,11.99867 -7.62909,14.80599 -0.0869,0.34608 1.2118,0.63695 3.90936,0.87561 3.83455,0.33925 19.06186,0.39422 25.67786,0.0927 z m -5.30495,-15.52768 c -0.43656,-0.24272 -0.97234,-0.52182 -1.19062,-0.62022 -0.21828,-0.0984 -0.782,-0.88414 -1.2527,-1.74609 -0.6443,-1.17984 -0.81645,-1.76337 -0.69649,-2.36094 0.2204,-1.09794 0.35437,-1.26149 0.75856,-0.92604 0.24261,0.20134 0.40244,0.20506 0.52167,0.0121 0.30958,-0.5009 1.14014,0.19955 1.47344,1.24261 0.42616,1.3337 1.50301,2.44942 2.36408,2.44942 0.37857,0 1.11504,-0.21756 1.63661,-0.48348 0.52158,-0.26591 1.15427,-0.45324 1.40599,-0.4163 0.36431,0.0535 0.42914,-0.0773 0.31777,-0.641 -0.18321,-0.92729 0.96263,-2.95712 1.6693,-2.95712 0.7694,0 1.37163,1.0093 1.00784,1.68905 -0.16158,0.30191 -0.33227,0.87959 -0.37933,1.28375 -0.0938,0.80595 -0.81348,2.05428 -1.18425,2.05428 -0.12879,0 -0.23416,0.17441 -0.23416,0.38757 0,1.1088 -4.682,1.8862 -6.21771,1.03239 z m -30.0302,13.94025 c 0,-0.42676 -2.81928,-6.47895 -6.00576,-12.89265 -1.67542,-3.37228 -2.97072,-6.25357 -2.87845,-6.40287 0.35363,-0.57218 -0.99419,-0.82735 -4.39371,-0.83181 -3.61274,-0.005 -7.0004,-0.42694 -9.67972,-1.20637 -2.03695,-0.59257 -4.25904,-1.55151 -4.93361,-2.12909 -0.3033,-0.2597 -0.57962,-0.41809 -0.61404,-0.35198 -0.10199,0.19589 -3.56153,-2.53486 -4.59983,-3.63084 -1.4566598,-1.53756 -3.6161498,-4.87996 -4.3604798,-6.74903 -0.36594,-0.91893 -0.8206,-2.02796 -1.01035,-2.46452 -0.18975,-0.43657 -0.61507,-1.62719 -0.94514,-2.64584 -0.90866,-2.80418 -1.10777,-3.30729 -1.30887,-3.30729 -0.10148,0 -0.50897,1.27992 -0.90553,2.84427 -2.5463,10.04448 -0.44761,20.97817 5.21311,27.15905 1.79498,1.95993 2.27103,2.37152 4.2754998,3.69671 4.00754,2.64944 8.47066,4.33021 17.19792,6.47657 4.82784,1.18734 6.83508,1.59161 12.03854,2.4246 1.78985,0.28652 2.91042,0.29079 2.91042,0.0111 z m 3.68825,-0.87427 c 0.26592,-0.61846 0.93721,-2.19604 1.49175,-3.50573 1.31903,-3.11523 4.48977,-8.65155 6.664,-11.63576 3.22217,-4.42255 8.52756,-9.9957 11.57121,-12.1552 0.95848,-0.68005 0.17433,-0.76847 -1.57496,-0.17759 -0.94611,0.31958 -1.97311,0.62976 -2.28222,0.68929 -0.30911,0.0595 -0.6987,0.21884 -0.86576,0.35402 -0.16705,0.13518 -0.83951,0.43417 -1.49436,0.66443 -0.65484,0.23025 -2.33158,0.81919 -3.72608,1.30875 -1.3945,0.48957 -2.64466,0.95454 -2.77812,1.03328 -0.45395,0.2678 -5.52579,1.77697 -7.7833,2.31598 -2.27641,0.54354 -5.7371,1.13438 -8.55285,1.46022 -1.30296,0.15078 -1.51255,0.24667 -1.35492,0.61985 0.10256,0.24282 0.20719,0.62008 0.23253,0.83836 0.0253,0.21828 0.23206,0.69453 0.4594,1.05833 1.25494,2.0082 7.62866,14.63815 8.57831,16.99849 0.27788,0.69067 0.60123,1.25622 0.71856,1.25677 0.11732,5.3e-4 0.43088,-0.50503 0.69681,-1.12349 z m 51.35951,-1.68067 c 0.50138,-0.81522 1.63977,-2.63092 2.529737,-4.03489 4.73939,-7.47663 7.77458,-12.692 7.77458,-13.35911 0,-0.21654 -0.59114,-0.48218 -1.52136,-0.68365 -5.29664,-1.14719 -13.241777,-4.07105 -19.116137,-7.03485 -1.51728,-0.76551 -3.64157,-1.4511 -4.49625,-1.4511 -0.26519,0 0.67795,1.44506 1.53014,2.34446 0.86075,0.90842 3.53298,4.5852 3.41686,4.70132 -0.0715,0.0715 0.15098,0.41106 0.49445,0.75453 0.69778,0.69778 4.43214,8.25214 5.49568,11.1174 0.77914,2.09906 2.55495,8.18239 2.55495,8.75241 0,0.72227 0.43285,0.36414 1.33735,-1.10652 z m 5.012647,0.84081 c 1.66492,-0.35592 9.09258,-2.81223 11.24479,-3.71862 4.51693,-1.90229 10.17478,-5.29005 13.48652,-8.07534 1.61134,-1.3552 4.37286,-4.29454 4.37286,-4.65444 0,-0.20497 0.11044,-0.37268 0.24542,-0.37268 0.20879,0 0.84143,-0.93779 2.58749,-3.83559 0.17565,-0.29152 0.44359,-0.82769 0.59542,-1.19149 0.15184,-0.3638 0.39202,-0.86331 0.53374,-1.11002 0.81558,-1.41973 2.00645,-5.48799 2.50198,-8.54727 0.78894,-4.8707 0.25379,-13.55292 -0.77212,-12.527 -0.0757,0.0757 -0.26757,0.84171 -0.42626,1.70215 -0.83199,4.5109 -3.90253,11.73974 -6.70552,15.78649 -1.04811,1.51318 -3.68642,4.1125 -5.29842,5.2201 -1.42285,0.97764 -4.05425,2.1217 -5.9749,2.59772 -0.66208,0.16409 -2.74567,0.31693 -4.6302,0.33964 -1.88454,0.0227 -3.62525,0.14515 -3.86825,0.27209 -0.24301,0.12693 -0.57653,0.6389 -0.74114,1.1377 -0.16462,0.4988 -0.47181,1.05007 -0.68265,1.22505 -0.21084,0.17498 -0.38334,0.49573 -0.38334,0.71278 0,0.21705 -0.53578,1.25426 -1.19063,2.30491 -0.65484,1.05066 -1.19062,1.97742 -1.19062,2.05947 0,0.18952 -1.88189,3.3014 -3.21434,5.31521 -0.56045,0.84704 -1.019,1.58716 -1.019,1.64472 0,0.0576 -0.47625,0.84151 -1.05833,1.7421 -1.61773,2.50295 -1.51158,2.63483 1.5875,1.97232 z M 9.5363432,161.12102 c -5.45408,-5.19385 -9.31598004,-11.82923 -10.66563,-18.32534 -1.3691,-6.58965 -0.51973,-15.17891 2.06096996,-20.84191 0.89128004,-1.95576 0.90800004,-2.05473 0.66595004,-3.94109 -0.13656,-1.06422 -0.29813,-4.26518 -0.35905,-7.11324 l -0.11075,-5.17829 -2.13899,-2.13898 -2.13898,-2.13898 -1.51419,0.99727 c -2.54866,1.67857 -3.72745,1.99729 -7.3350302,1.98324 -3.48235,-0.0136 -4.83991,-0.38946 -7.22845,-2.00147 -0.6431,-0.43402 -1.22498,-0.73343 -1.29307,-0.66534 -0.0681,0.0681 -0.31532,1.3536 -0.5494,2.85669 -0.31623,2.03055 -0.42524,4.63685 -0.4242,10.14124 0.001,6.36719 0.083,7.90721 0.58192,10.95815 1.91261,11.69566 5.39886,19.15922 12.0704902,25.84115 4.4818,4.48871 10.08145,7.897 17.34791,10.559 0.50933,0.18659 1.2237,0.4637 1.5874998,0.6158 1.49533,0.62516 1.35127,0.20933 -0.5569998,-1.6079 z M 137.65224,146.43867 c 6.60688,-6.86444 10.74268,-16.4582 12.17591,-28.24427 0.48277,-3.96998 0.41707,-12.78964 -0.12879,-17.28967 -1.60609,-13.240667 -6.49171,-26.520363 -13.7156,-37.280639 -0.70829,-1.055026 -1.20188,-1.918229 -1.09687,-1.918229 0.105,0 0.008,-0.148828 -0.21643,-0.330729 -0.22404,-0.181901 -1.10749,-1.283229 -1.96321,-2.447396 C 122.45017,44.973502 108.90021,34.913861 93.471823,29.79891 c -9.20623,-3.052127 -16.6171,-4.285469 -27.19311,-4.525568 -9.30002,-0.21113 -16.72502,0.460362 -25.68559,2.322912 -7.31161,1.519798 -12.55003,3.28722 -18.72582,6.318011 -3.88259,1.905397 -9.29794,5.276371 -9.5558,5.948341 -0.083,0.216273 0.0818,0.724871 0.36615,1.130221 0.28437,0.405347 0.66514,1.36452 0.84615,2.131496 l 0.3291,1.3945 1.36137,-0.203303 c 1.94033,-0.289769 4.63848,-0.208166 4.9978,0.151151 0.16822,0.168222 0.62465,0.305858 1.01429,0.305858 0.38964,0 0.85666,0.178594 1.03782,0.396875 0.18115,0.218282 0.55292,0.396875 0.82614,0.396875 0.27323,0 0.49677,0.125138 0.49677,0.278085 0,0.152945 0.40858,0.448797 0.90795,0.65745 0.49937,0.208651 0.9938,0.518269 1.09872,0.688039 0.13851,0.224112 0.27031,0.200027 0.48111,-0.08792 0.20529,-0.280416 0.22846,-2.0877 0.0791,-6.169385 -0.23056,-6.300726 -0.25657,-6.166619 1.29559,-6.680842 l 0.81977,-0.271582 0.16604,8.240477 c 0.17231,8.551761 0.22906,9.048622 1.33462,11.684878 0.73088,1.742836 2.76192,8.622087 3.47472,11.769137 0.2472,1.091406 0.6261,2.632241 0.84199,3.424081 0.21589,0.791837 0.49764,2.085467 0.62609,2.874729 0.12846,0.789263 0.39615,1.570146 0.59486,1.735294 0.19872,0.16515 0.93527,1.12096 1.63677,2.124027 3.221,4.605629 7.18745,7.802478 13.52924,10.904196 2.20006,1.076031 4.12495,1.956422 4.27754,1.956422 0.15259,0 0.82769,0.235868 1.50023,0.52415 1.03187,0.442309 1.2457,0.464431 1.36955,0.141681 0.0807,-0.210357 -0.082,-0.714113 -0.3615,-1.119462 -1.51056,-2.190327 -7.55148,-13.946608 -11.04444,-21.49367 -3.29834,-7.126541 -8.0973,-19.902132 -11.65247,-31.020677 -1.02485,-3.205159 -1.04835,-3.889745 -0.13586,-3.957124 0.2956,-0.02183 0.6661,-0.05159 0.82332,-0.06615 0.26281,-0.02432 1.31179,2.841699 2.21761,6.058958 0.20486,0.727605 0.86686,2.692136 1.47112,4.365625 0.60426,1.67349 1.19102,3.399896 1.30391,3.836458 0.11288,0.436563 0.51922,1.558417 0.90296,2.493013 0.38374,0.934593 0.69771,1.842193 0.69771,2.016887 0,0.174694 0.24582,0.898308 0.54627,1.608029 0.88369,2.087493 0.94918,2.250074 1.80789,4.48792 0.45146,1.176552 0.82157,2.248114 0.82247,2.38125 7.9e-4,0.133138 0.18812,0.599255 0.41606,1.035817 0.22794,0.436563 0.83233,1.805781 1.34309,3.042708 0.51075,1.236928 1.03818,2.427552 1.17207,2.645834 0.13388,0.218281 0.34867,0.635 0.47731,0.926041 1.03892,2.350447 4.72836,9.891485 7.52979,15.390542 0.53147,1.043236 0.9663,2.025502 0.9663,2.182813 0,0.15731 0.1228,0.286019 0.27289,0.286019 0.15009,0 0.35076,0.20836 0.44593,0.463021 0.0952,0.254662 0.67617,1.318165 1.2911,2.36334 0.61493,1.045173 1.18953,2.125515 1.27688,2.400753 0.25008,0.787932 1.17943,1.652053 1.77675,1.652053 0.29976,0 0.9202,0.164356 1.37876,0.365239 0.45855,0.200879 1.45774,0.620447 2.22041,0.93237 0.76267,0.311925 1.9533,0.919329 2.64584,1.349788 0.69253,0.430458 1.49727,0.890701 1.78831,1.02276 0.29105,0.132061 1.08322,0.729517 1.7604,1.327684 0.67717,0.598167 1.28626,1.087575 1.35353,1.087575 0.26241,0 -0.28285,-2.039392 -0.81351,-3.042708 -0.30787,-0.582083 -0.75105,-1.460601 -0.98484,-1.95226 -0.23379,-0.491659 -0.88873,-1.657117 -1.45542,-2.589905 -0.99806,-1.642849 -1.01494,-1.710169 -0.53889,-2.148785 3.23262,-2.978369 5.03819,-5.530474 5.99304,-8.470902 0.64155,-1.975652 0.95321,-2.697522 1.16463,-2.697522 0.10837,0 0.45688,0.74414 0.77448,1.653646 0.31759,0.909505 0.89255,2.248958 1.27769,2.976562 0.38514,0.727604 0.92173,1.757555 1.19243,2.288778 0.46189,0.906428 2.79398,3.257558 4.19935,4.233637 l 0.6292,0.436999 -1.36906,1.978113 c -0.75298,1.087958 -2.19947,3.510684 -3.21442,5.383831 -2.54895,4.704216 -2.82341,6.115566 -0.7039,3.619737 2.37823,-2.80051 3.20254,-3.589858 4.9953,-4.783454 1.83643,-1.222663 5.8139,-3.227239 6.41475,-3.232914 1.14729,-0.01085 3.53462,-1.778418 3.53462,-2.617039 0,-0.154972 0.28724,-0.910098 0.6383,-1.678059 0.35107,-0.767963 1.00722,-2.586921 1.45811,-4.042129 0.4509,-1.455208 0.9971,-3.197595 1.21378,-3.871968 0.21669,-0.674375 0.39398,-1.439828 0.39398,-1.701009 0,-0.261178 0.11102,-0.84051 0.24672,-1.287404 0.39964,-1.316122 1.05902,-5.591876 1.41059,-9.14691 0.35999,-3.64028 0.446307,-18.717735 0.12647,-22.092707 -0.28704,-3.028969 -0.71983,-5.376542 -1.74377,-9.458854 -0.19106,-0.761696 -0.16972,-0.992187 0.0918,-0.992187 0.18739,0 0.40847,0.176585 0.49129,0.392414 0.0828,0.215828 0.30392,0.336142 0.49133,0.267364 0.68267,-0.250537 1.014607,0.347652 1.551477,2.795923 1.08183,4.933445 1.34402,7.824147 1.43842,15.858881 0.16943,14.421333 -1.42361,24.295144 -5.560087,34.461977 -0.32617,0.801659 0.40589,0.533972 3.37441,-1.233902 3.495277,-2.081578 5.062387,-3.375631 7.396997,-6.108113 3.93551,-4.606218 5.43311,-9.239165 5.68758,-17.594963 0.17572,-5.770027 -0.24698,-9.466473 -1.93079,-16.884355 -0.67104,-2.95624 -1.15968,-5.43538 -1.08586,-5.509204 0.0738,-0.07382 0.62172,0.173524 1.21755,0.549656 0.72425,0.457194 1.08333,0.873876 1.08333,1.257085 0,0.315265 0.11693,0.938848 0.25985,1.385742 0.53611,1.676453 1.85682,7.590544 1.85682,8.314796 0,1.43225 1.08551,3.53296 1.78594,3.456201 0.33879,-0.03713 5.09323,4.598699 5.09323,4.966171 0,0.190982 0.14883,0.352123 0.33073,0.35809 0.1819,0.006 0.86651,0.719696 1.52135,1.586068 0.65484,0.866371 1.8157,2.376382 2.57969,3.355584 0.76398,0.979201 1.38906,1.91159 1.38906,2.071978 0,0.160388 0.29766,0.571246 0.66146,0.913022 0.3638,0.341775 0.66146,0.740105 0.66146,0.885182 0,0.145076 0.16667,0.451744 0.37038,0.681484 0.20371,0.229741 1.04611,1.786927 1.872,3.460417 0.82589,1.673489 1.67125,3.358734 1.87858,3.744989 0.20732,0.386254 0.37695,0.850974 0.37695,1.032711 0,0.181734 0.36857,1.110498 0.81904,2.063919 1.27456,2.697623 1.42564,2.020665 1.4533,-6.512221 0.0129,-3.966176 0.0844,-7.272282 0.15906,-7.346907 0.0746,-0.07462 0.51059,0.567721 0.96881,1.427429 l 0.83313,1.563108 -0.002,5.254633 c -0.002,5.111112 -0.41252,9.47312 -0.99478,10.565323 -0.20381,0.382312 -0.0797,1.239419 0.49527,3.420557 1.69755,6.439505 2.89457,16.584444 2.5131,21.298954 -0.12495,1.54424 -0.0455,2.38649 0.35812,3.79734 1.24705,4.35879 2.01627,10.9559 1.78355,15.29633 -0.16045,2.99264 -0.83862,6.99131 -1.65289,9.74591 -0.59702,2.01966 -2.30098,5.76325 -3.41817,7.50971 -0.51393,0.80339 -0.93441,1.52596 -0.93441,1.60571 0,0.44014 0.64075,-0.0663 2.41099,-1.90552 z M 34.983463,144.11799 c 5.52866,-0.69002 7.41479,-0.9557 8.31509,-1.17124 2.58217,-0.61819 4.34553,-1.06621 5.82083,-1.4789 0.87313,-0.24425 2.04456,-0.55328 2.6032,-0.68674 0.55863,-0.13346 1.47662,-0.4778 2.03998,-0.7652 0.56335,-0.2874 1.24334,-0.52255 1.51107,-0.52255 0.26774,0 0.5999,-0.10028 0.73815,-0.22284 0.13824,-0.12256 1.50151,-0.67213 3.02948,-1.22126 1.52797,-0.54914 3.13531,-1.15338 3.57187,-1.34276 0.43656,-0.18937 1.24155,-0.4272 1.78886,-0.52851 0.54731,-0.10131 1.0561,-0.28289 1.13065,-0.40351 0.0745,-0.12061 0.69831,-0.29387 1.38614,-0.38502 0.68783,-0.0911 1.48873,-0.26218 1.77977,-0.38008 1.03547,-0.41946 4.41541,-0.80769 7.03183,-0.80769 2.95128,0 5.58448,0.33782 8.19733,1.05166 1.63652,0.44711 7.94382,2.88609 8.92497,3.45122 2.10616,1.21312 8.855697,3.58642 12.755237,4.48505 1.38245,0.31858 3.04932,0.7106 3.70417,0.87116 1.76729,0.43333 6.76336,0.55129 8.54054,0.20165 2.53828,-0.49938 4.58039,-1.24399 6.12972,-2.23509 2.45877,-1.57285 5.58453,-5.07544 7.07215,-7.92472 0.38943,-0.74588 0.80615,-1.4752 0.92604,-1.62072 0.11991,-0.14552 0.35463,-0.62177 0.52162,-1.05833 0.16699,-0.43657 0.72279,-1.86532 1.23511,-3.175 2.98237,-7.62405 3.99002,-16.74646 2.96641,-26.85521 -0.68963,-6.810433 -1.41478,-10.184016 -3.75352,-17.462499 -1.1968,-3.724582 -4.53953,-10.746544 -6.49781,-13.649719 -0.6959,-1.031668 -1.26526,-2.013934 -1.26526,-2.182812 0,-0.168878 -0.0989,-0.307052 -0.21973,-0.307052 -0.12086,0 -0.61818,-0.565547 -1.10517,-1.256771 -0.88165,-1.251405 -2.56965,-3.245487 -3.91923,-4.629911 -0.38995,-0.400019 -0.59895,-0.72744 -0.46444,-0.727604 0.13451,-1.62e-4 -0.0346,-0.297485 -0.37587,-0.660713 -0.34123,-0.363228 -0.66902,-0.611827 -0.7284,-0.552442 -0.0594,0.05939 -0.72368,-0.474538 -1.47621,-1.186494 -0.75253,-0.71196 -1.45754,-1.296797 -1.56668,-1.299642 -0.10914,-0.0029 -0.20062,1.691468 -0.20329,3.76514 -0.005,4.114723 -0.48982,8.215198 -1.33656,11.310937 -0.47305,1.729502 -2.43062,6.241095 -2.87005,6.614583 -0.0856,0.07276 -0.50275,0.643821 -0.92699,1.269024 -1.10288,1.625335 -5.06066,5.312899 -7.32999,6.829541 -2.877587,1.92315 -6.573547,3.698798 -12.589357,6.048303 -2.69735,1.053465 -5.13219,2.455233 -6.92013,3.984006 -1.60739,1.374406 -4.11456,4.529115 -5.4302,6.832705 -0.68182,1.19383 -0.79244,1.28435 -0.97301,0.7962 -0.11206,-0.30291 -0.38141,-0.61894 -0.59856,-0.70226 -0.21715,-0.0833 -0.92734,-0.9631 -1.57819,-1.95504 -2.65755,-4.050269 -6.14035,-6.726624 -10.96971,-8.42967 -0.76399,-0.269414 -1.38906,-0.585385 -1.38906,-0.702159 0,-0.116774 -0.34732,-0.212317 -0.77182,-0.212317 -0.4245,0 -1.34723,-0.254376 -2.05052,-0.565277 -0.70329,-0.310902 -1.53181,-0.598861 -1.84116,-0.639906 -0.69579,-0.09232 -4.15119,-1.452311 -4.33234,-1.705136 -0.0728,-0.101552 -0.31088,-0.183716 -0.52916,-0.182581 -1.16636,0.0061 -9.03026,-4.336994 -11.28899,-6.234649 -1.55767,-1.308664 -4.69701,-4.61713 -5.32488,-5.611752 -1.30447,-2.066411 -1.53544,-2.053246 -2.15132,0.122635 -0.18535,0.654843 -0.52231,1.398984 -0.74879,1.653645 -0.22648,0.254662 -0.32366,0.463021 -0.21595,0.463021 0.19343,0 -1.34067,2.205712 -2.35623,3.38777 -0.78724,0.916305 -2.90956,2.13636 -4.45469,2.560857 -2.45059,0.673264 -2.56332,0.722601 -2.56332,1.121886 0,0.518441 4.72219,5.104257 6.74688,6.552033 3.75321,2.68378 7.17922,4.543351 11.24479,6.103451 5.87008,2.252549 7.41138,2.854129 9.86463,3.850239 5.788,2.35014 9.79812,4.5624 9.25488,5.10564 -0.10212,0.10212 -0.0107,0.1242 0.20313,0.0491 0.43574,-0.15309 2.05453,1.75296 2.90421,3.41955 1.82623,3.58207 3.13115,9.15386 2.78768,11.90296 -0.20867,1.67016 -0.48591,2.02115 -2.20591,2.79277 -1.64496,0.73795 -10.44481,3.65642 -11.96071,3.96676 -0.65484,0.13406 -2.20265,0.47051 -3.43958,0.74766 -3.87395,0.868 -6.97459,1.17887 -10.12969,1.01559 -1.63195,-0.0845 -3.32437,-0.26787 -3.76093,-0.40759 -0.43657,-0.13972 -1.72123,-0.51586 -2.85481,-0.83586 -2.88028,-0.81308 -4.25078,-1.64289 -6.5379,-3.95854 -2.21915,-2.24684 -3.87489,-5.1833 -4.6326,-8.21592 -0.23633,-0.94588 -0.61323,-2.36638 -0.83756,-3.15667 -0.60438,-2.1292 -0.95383,-6.87547 -0.76595,-10.40322 0.0911,-1.70987 0.0684,-3.10885 -0.0503,-3.10885 -0.11873,0 -0.62809,0.35234 -1.13192,0.78299 -0.50383,0.43065 -1.01792,0.78784 -1.14243,0.79375 -0.12452,0.006 -0.57892,0.30739 -1.00979,0.66994 -0.71479,0.60145 -2.63833,1.31869 -4.11482,1.5343 -0.32367,0.0473 -0.67094,0.16838 -0.7717,0.26914 -0.35646,0.35646 -5.0325998,0.19131 -6.1949598,-0.21879 -0.62686,-0.22117 -1.2407,-0.30069 -1.36461,-0.17677 -0.6765,0.67649 -0.17955,12.28263 0.66486,15.52773 0.2272,0.87312 0.55143,2.18281 0.72051,2.91041 0.16908,0.72761 0.4046,1.56104 0.52336,1.85209 0.11877,0.29104 0.63624,1.61314 1.14994,2.93801 0.51369,1.32487 1.14962,2.77259 1.41317,3.21717 1.62459,2.74047 2.1786898,3.47744 4.0068998,5.32933 3.51012,3.55558 6.90999,5.06435 13.14102,5.83162 3.81783,0.47011 6.70177,0.51207 9.67658,0.14079 z m 73.512827,-11.07913 c -0.0606,-0.0575 -0.70374,-0.18367 -1.42913,-0.28044 -1.50941,-0.20136 -8.336227,-1.94483 -8.735037,-2.23081 -0.14565,-0.10445 -1.09826,-0.46416 -2.11691,-0.79937 -1.01864,-0.3352 -2.21106,-0.7678 -2.6498,-0.96133 -1.38153,-0.60939 -2.36497,-0.99404 -2.73086,-1.06811 -0.19447,-0.0394 -1.1136,-0.39459 -2.0425,-0.78937 -1.52037,-0.64617 -1.73275,-0.8326 -2.12824,-1.86819 -0.65733,-1.72118 -0.31407,-5.27044 0.85407,-8.83122 1.11876,-3.4102 3.01056,-7.30052 3.31606,-6.81916 0.1485,0.23399 0.21503,0.1692 0.21785,-0.21214 0.005,-0.6385 0.43207,-1.10089 2.25963,-2.4449 1.74936,-1.28649 6.908837,-3.84352 7.285557,-3.61069 0.10614,0.0656 0.26126,-0.0586 0.3447,-0.27608 0.0834,-0.21745 0.29114,-0.39536 0.46155,-0.39536 0.1704,0 2.04937,-0.85276 4.17549,-1.89502 6.18333,-3.031201 9.34816,-5.233187 13.21889,-9.197275 1.36074,-1.393558 2.95557,-3.218352 3.54407,-4.055097 0.5885,-0.836745 1.15372,-1.521354 1.25606,-1.521354 0.84248,0 3.50785,9.934321 4.1063,15.304926 0.54279,4.87107 0.46421,8.86748 -0.26615,13.53465 -0.55783,3.56465 -0.77513,4.59577 -1.36526,6.47815 -1.52174,4.85399 -4.06141,8.68133 -6.84181,10.31075 -1.80328,1.05679 -4.87182,1.72318 -7.9564,1.72788 -1.46734,0.002 -2.7175,-0.043 -2.77813,-0.10044 z m -7.28968,-6.26471 c 1.39271,-1.0955 0.50051,-3.42038 -1.312597,-3.42038 -1.21813,0 -2.28111,1.81418 -1.69962,2.9007 0.5861,1.09515 1.975827,1.33491 3.012217,0.51968 z m 16.04298,-2.36204 c 0.32758,-0.32758 0.52916,-0.88195 0.52916,-1.45521 0,-2.48103 -3.33094,-2.69628 -3.82555,-0.24722 -0.36435,1.80407 1.98263,3.01618 3.29639,1.70243 z m -6.95106,-4.37381 c 2.50946,-1.04852 3.81561,-2.96963 3.83776,-5.64465 0.0372,-4.49649 -4.39637,-7.56764 -8.58916,-5.94973 -1.44307,0.55685 -2.77983,1.78786 -3.40529,3.1359 -0.58578,1.2625 -0.65868,3.74574 -0.14589,4.96943 1.28958,3.07737 5.27723,4.75312 8.30258,3.48905 z m -28.238687,19.5212 c -2.7e-4,-0.45924 -2.42725,-3.24332 -2.84797,-3.26716 -0.25254,-0.0143 -2.23271,-0.0139 -4.40039,7.9e-4 l -3.94124,0.0269 -1.32208,1.32208 c -0.72715,0.72718 -1.42414,1.32212 -1.54887,1.32212 -0.12473,0 -0.22678,0.17859 -0.22678,0.39688 0,0.34297 0.97014,0.39687 7.14375,0.39687 3.92906,0 7.14367,-0.0893 7.14358,-0.19844 z m -30.88994,-14.56248 c 0.59841,-0.51999 0.59732,-1.94795 -0.002,-2.68814 -0.58759,-0.72564 -1.98644,-0.80047 -2.71072,-0.14501 -0.35023,0.31695 -0.52837,0.81469 -0.52837,1.47629 0,1.80532 1.83906,2.57522 3.24115,1.35686 z m -16.0469,0.27093 c 1.07182,-0.71567 1.04421,-2.69214 -0.0476,-3.40752 -1.82955,-1.19876 -4.03993,1.53339 -2.49248,3.08084 0.52923,0.52923 1.96097,0.71336 2.54008,0.32668 z m 10.02763,-4.81247 c 1.30333,-0.56219 2.86917,-2.25648 3.30452,-3.57559 0.18083,-0.54791 0.27786,-1.73761 0.21817,-2.67497 -0.0854,-1.34116 -0.27027,-1.91979 -0.89941,-2.81494 -3.20878,-4.56554 -9.85829,-3.62884 -11.38982,1.60447 -1.56485,5.34712 3.55852,9.70752 8.76654,7.46103 z m -34.475,-18.83201 c 2.76016,-0.58871 4.88194,-1.949489 6.87651,-4.410151 0.83307,-1.027755 1.33386,-3.014128 1.34753,-5.344959 0.0119,-2.031941 -0.0766,-2.44154 -0.91697,-4.244691 -0.51158,-1.097653 -1.30264,-2.419975 -1.7579,-2.938486 -0.45526,-0.518515 -0.75592,-1.014582 -0.66813,-1.102371 0.0878,-0.08779 -0.27211,-0.414337 -0.79977,-0.725667 -0.52767,-0.31133 -0.95939,-0.662681 -0.95939,-0.780783 0,-0.203684 -2.31566,-1.804607 -4.5045498,-3.114209 l -1.008,-0.603084 -1.09725,1.170686 c -1.27096,1.356011 -3.34934,2.484287 -5.56103,3.018875 l -0.92605004,0.223832 -0.3063,4.084928 c -0.3192,4.256797 -0.12883,8.568978 0.46592,10.554078 0.76109004,2.540283 3.67510004,4.475992 6.77267004,4.498912 0.90235,0.007 2.27157,-0.12243 3.0427098,-0.28691 z M -7.5246668,98.368531 c 1.95779,-0.93528 2.84091,-1.901824 3.64608,-3.990548 0.95239,-2.470636 1.3313,-4.827428 1.37113,-8.528343 l 0.0331,-3.075577 -1.61818,-0.582888 c -2.09434,-0.754406 -2.84865,-1.247402 -4.51086,-2.948172 -0.91832,-0.939623 -1.5041002,-1.345452 -1.7859402,-1.2373 -0.23067,0.08852 -0.4194,0.245213 -0.4194,0.348212 0,0.103 -0.4237,0.389321 -0.94156,0.636273 -1.21672,0.58021 -3.51861,2.284039 -4.85347,3.592462 -0.5776,0.566163 -1.08759,0.993031 -1.1333,0.948597 -0.0457,-0.04444 -0.48796,0.533313 -0.98276,1.283891 -0.4948,0.750575 -1.11544,1.681276 -1.3792,2.068224 -0.69837,1.024559 -1.11017,2.937769 -0.97727,4.540379 0.29823,3.596219 3.27956,6.73079 7.22485,7.59621 1.76085,0.38625 4.8123302,0.0721 6.3267802,-0.65142 z M 78.520173,94.16497 c 0.53566,-0.899332 1.49173,-2.434981 2.12459,-3.412553 0.63287,-0.977572 1.15066,-1.828284 1.15066,-1.890475 0,-0.06219 -0.54386,-0.68884 -1.20858,-1.392557 -1.49115,-1.578615 -3.12577,-4.219355 -2.86898,-4.634849 0.11111,-0.179779 0.076,-0.237548 -0.0842,-0.138544 -0.15112,0.0934 -0.42209,-0.185864 -0.60215,-0.620577 -0.33743,-0.814636 -0.79236,-1.063747 -0.79236,-0.433885 0,0.548253 -2.83063,4.947298 -3.88121,6.031735 l -0.93417,0.964279 1.71641,3.533637 c 0.94403,1.9435 1.92429,4.188481 2.17834,4.988846 0.25406,0.800364 0.52332,1.561794 0.59835,1.692074 0.075,0.13028 0.47234,-0.50312 0.88289,-1.407555 0.41056,-0.904433 1.18473,-2.380241 1.72039,-3.279576 z m -53.9752,-12.743899 c 1.69573,-0.708522 2.96066,-1.939568 3.79995,-3.698134 1.58558,-3.32228 0.88476,-7.153955 -1.69513,-9.267981 -1.87214,-1.534075 -3.39331,-2.063937 -5.89233,-2.052441 -2.46052,0.01132 -3.8946,0.287925 -7.41895,1.430999 -3.00821,0.975667 -3.6414698,1.425469 -3.2976,2.342279 0.31361,0.836163 0.17233,3.991123 -0.2338398,5.221843 -0.38123,1.15512 -0.31387,1.214932 3.8076498,3.381227 5.24736,2.758032 8.67182,3.585839 10.93025,2.642208 z m -44.64555,-1.447326 c 0.23557,-0.117737 1.14267,-0.486603 2.0158,-0.819703 2.3333,-0.890164 6.37011,-2.838998 6.69728,-3.233216 0.19943,-0.240298 0.20228,-0.692963 0.01,-1.523722 -0.15458,-0.666512 -0.20259,-2.176701 -0.11009,-3.463314 l 0.16402,-2.281449 -1.26374,-0.439783 c -5.73878,-1.997109 -9.69479,-2.493814 -11.89742,-1.493808 -3.02641,1.374008 -4.7029,4.166886 -4.53494,7.55482 0.16108,3.249313 1.65758,5.462312 4.05613,5.998162 0.94126,0.210283 4.25234,0.0074 4.86336,-0.297987 z M 2.3479532,77.417296 c 0.7605,-0.364599 1.62241,-0.982967 1.91535,-1.374151 0.29294,-0.391184 0.63189,-0.832477 0.75323,-0.980651 0.53508,-0.653431 0.8245,-2.719435 0.58614,-4.184034 -0.28426,-1.746546 -0.35098,-1.879838 -1.66353,-3.323367 -0.81769,-0.899287 -1.28881,-1.162741 -2.64584,-1.479556 -4.02329,-0.939292 -7.15346,1.032783 -7.88033,4.964782 -0.7696,4.163158 2.29229,7.614062 6.36161996,7.169854 0.65485,-0.07148 1.81286004,-0.428276 2.57336004,-0.792877 z M 11.672243,66.010357 c 0.79563,-0.368649 1.74813,-0.765286 2.11666,-0.881414 0.975,-0.307232 4.45236,-1.772848 5.79269,-2.441464 1.39593,-0.696359 3.26356,-2.410089 3.80902,-3.495159 0.61066,-1.214757 0.81927,-3.401647 0.46525,-4.877363 -0.25363,-1.057222 -0.61683,-1.590691 -1.96319,-2.883537 -1.95996,-1.882053 -3.11437,-2.294583 -5.80056,-2.072852 -2.35849,0.19468 -3.88909,0.959509 -5.8916,2.943984 -1.3604898,1.348229 -3.2821698,4.005069 -3.2821698,4.537795 0,0.08449 -0.21594,0.469656 -0.47986,0.855921 -0.26393,0.386266 -0.64073,1.210022 -0.83735,1.830568 -0.19662,0.620548 -0.51646,1.260205 -0.71076,1.42146 -0.64357,0.534115 -0.4239,1.660091 0.42128,2.159347 0.426,0.251648 1.45491,1.232484 2.28647,2.179637 1.67899,1.912403 1.55483,1.890369 4.0741198,0.723077 z M -8.9958968,65.41927 c 0.46369,-0.576998 1.38803,-1.424027 2.05408,-1.882283 1.09302,-0.752019 1.19752,-0.914026 1.07256,-1.66289 -0.20734,-1.242515 -1.58731,-5.131384 -2.43574,-6.864106 -0.90392,-1.846032 -3.0209102,-4.045495 -4.5545202,-4.731938 -3.56913,-1.597543 -7.34889,-0.271777 -8.96506,3.144533 -0.59988,1.268024 -0.67518,1.708087 -0.56229,3.285905 0.17994,2.514846 1.34767,4.256683 4.03744,6.022438 1.27367,0.83612 7.501,3.700698 8.09172,3.722195 0.23031,0.0084 0.7981202,-0.456853 1.2618102,-1.033854 z M 30.655423,63.64703 c -0.195,-1.462185 -0.67811,-3.221222 -1.10528,-4.024378 l -0.3696,-0.694915 -0.81235,1.780127 c -0.85306,1.869353 -0.9999,2.585498 -0.53011,2.585498 0.32134,0 2.18158,1.340331 2.32721,1.676797 0.24553,0.567245 0.61075,-0.418688 0.49013,-1.323129 z M 2.0406432,61.503374 c 0.29251,-0.201867 1.71104,-3.093178 2.75646,-5.618345 0.33135,-0.800365 1.25175,-2.824427 2.04533,-4.497917 1.23417,-2.602603 1.4638,-3.332173 1.58757,-5.043947 0.13139,-1.817201 0.0836,-2.098045 -0.51981,-3.0539 -1.584,-2.509208 -3.99903,-3.702653 -7.05077004,-3.484301 -3.06696996,0.21944 -5.56269996,1.834327 -6.94457996,4.493567 -0.89429,1.720935 -0.83594,5.448689 0.15446,9.866706 0.0652,0.291042 0.63793,2.017448 1.27263,3.836458 l 1.15399,3.307292 2.49923,0.147791 c 1.37457996,0.08129 2.55877,0.168759 2.63153,0.194387 0.0728,0.02564 0.25904,-0.04088 0.41396,-0.147791 z"
       id="path1908" /></g></svg>
