<?xml version="1.0" encoding="UTF-8" standalone="no"?>
<!-- Created with Inkscape (http://www.inkscape.org/) -->

<svg
   width="250.42191mm"
   height="247.65144mm"
   viewBox="0 0 250.42189 247.65143"
   version="1.1"
   id="svg5"
   xml:space="preserve"
   xmlns="http://www.w3.org/2000/svg"
   xmlns:svg="http://www.w3.org/2000/svg"><defs
     id="defs2" /><g
     id="layer1"
     transform="translate(105.53508,-24.915273)"><path
       style="fill:#000000;stroke-width:0.264583"
       d="m -18.924852,272.37619 c -0.65484,-0.13919 -1.32281,-0.43307 -1.48438,-0.65307 -0.16156,-0.22 -0.48898,-0.4 -0.7276,-0.4 -0.23862,0 -0.43385,-0.17267 -0.43385,-0.38372 0,-0.21105 -0.19736,-0.49418 -0.43858,-0.62917 -0.30023,-0.16802 -0.47787,-0.71931 -0.56315,-1.74773 -0.15327,-1.84814 0.65309,-3.66297 1.91353,-4.30673 0.4444,-0.22697 0.9032,-0.57513 1.01957,-0.7737 0.11637,-0.19857 0.50333,-0.36103 0.8599,-0.36103 0.35657,0 0.64831,-0.093 0.64831,-0.20658 0,-0.11361 0.35719,-0.3414 0.79375,-0.50618 0.70098,-0.26459 0.79375,-0.42416 0.79375,-1.36531 0,-0.58613 0.10788,-1.13238 0.23974,-1.21387 0.13186,-0.0815 0.18102,-0.37274 0.10925,-0.64721 -0.0718,-0.27448 -0.009,-0.57419 0.13971,-0.66604 0.1499,-0.0926 0.20365,-0.57716 0.12072,-1.0882 -0.0822,-0.50666 -0.0446,-0.92181 0.0836,-0.92256 0.12818,-8e-4 0.26229,-0.5066 0.29803,-1.12409 0.0357,-0.6175 0.16725,-1.15681 0.29227,-1.19849 0.12502,-0.0417 0.17119,-0.36926 0.10262,-0.72799 -0.0686,-0.35873 -0.005,-0.65223 0.14206,-0.65223 0.29133,0 0.52851,-0.7695 0.76196,-2.47205 0.0829,-0.6049 0.25648,-1.13951 0.38564,-1.18802 0.12917,-0.0485 0.23485,-0.41769 0.23485,-0.82041 0,-0.87374 0.47629,-2.37485 0.92898,-2.92785 0.17869,-0.21828 0.2697,-0.54952 0.20224,-0.73608 -0.0675,-0.18657 0.0671,-0.62886 0.29911,-0.98288 0.23196,-0.35402 0.42175,-0.82646 0.42175,-1.04986 0,-0.2234 0.11906,-0.40618 0.26458,-0.40618 0.14552,0 0.26459,-0.22374 0.26459,-0.4972 0,-0.51455 1.2718104,-3.50241 1.5903204,-3.73613 0.0992,-0.0728 0.25527,-0.43923 0.34693,-0.81438 0.0917,-0.37514 0.46717,-1.00635 0.83449,-1.40269 0.36731,-0.39634 0.66784,-0.95261 0.66784,-1.23615 0,-0.28354 0.12526,-0.51553 0.27835,-0.51553 0.15309,0 0.40286,-0.35719 0.55504,-0.79375 0.15219,-0.43657 0.3902,-0.79375 0.52891,-0.79375 0.51559,0 0.96264,-1.71072 0.82117,-3.14236 -0.10294,-1.04174 -0.20504,-1.30735 -0.38141,-0.99218 -0.13247,0.2367 -0.41353,0.43037 -0.62458,0.43037 -0.21105,0 -0.38373,0.092 -0.38373,0.20442 0,0.11242 -0.44648,0.43871 -0.99219,0.72507 -0.5457,0.28636 -1.05172,0.5983 -1.12448,0.6932 -0.32676,0.42618 -4.8544404,2.39081 -7.0114604,3.04237 -2.16093,0.65274 -2.78515,0.72087 -6.74687,0.73635 -3.53278,0.0138 -4.69371,-0.0783 -6.08542,-0.48256 -0.94588,-0.27479 -1.8329,-0.60098 -1.97114,-0.72486 -0.13825,-0.12388 -0.46567,-0.22524 -0.72761,-0.22524 -0.26193,0 -0.47625,-0.11906 -0.47625,-0.26458 0,-0.14553 -0.23812,-0.26459 -0.52916,-0.26459 -0.29104,0 -0.76729,-0.23812 -1.05834,-0.52916 -0.29104,-0.29105 -0.70776,-0.52917 -0.92604,-0.52917 -0.21828,0 -0.39687,-0.1168 -0.39687,-0.25954 0,-0.14275 -0.28904,-0.33209 -0.64232,-0.42076 -0.35327,-0.0887 -0.70672,-0.32905 -0.78544,-0.5342 -0.0787,-0.20515 -0.27096,-0.373 -0.42719,-0.373 -0.57657,0 -4.62799,-3.93093 -4.88456,-4.73928 -0.0965,-0.30412 -0.40556,-0.67607 -0.68674,-0.82656 -0.28119,-0.15049 -0.51125,-0.43888 -0.51125,-0.64088 0,-0.20199 -0.29766,-0.72101 -0.66146,-1.15336 -0.3638,-0.43236 -0.66146,-0.90782 -0.66146,-1.05659 0,-0.14876 -0.0991,-0.31017 -0.22023,-0.35868 -0.30893,-0.12372 -1.89644,-3.08372 -1.89644,-3.53603 0,-0.20489 -0.23812,-0.79649 -0.52916,-1.31466 -0.29104,-0.51818 -0.52917,-1.1621 -0.52917,-1.43095 0,-0.26884 -0.16284,-0.8903 -0.36187,-1.38101 -0.19903,-0.49071 -0.37974,-1.51508 -0.40157,-2.27637 -0.0218,-0.76129 -0.15663,-1.69178 -0.29958,-2.06775 -0.35216,-0.92626 -0.32928,-2.95627 0.0359,-3.18194 0.18669,-0.11539 0.23735,-0.609 0.13735,-1.33853 -0.0994,-0.72522 -0.0559,-1.15574 0.11673,-1.15574 0.15132,0 0.20306,-0.11662 0.11498,-0.25914 -0.20266,-0.3279 0.40115,-2.3867 0.69997,-2.3867 0.12249,0 0.2227,-0.16401 0.2227,-0.36448 0,-0.20046 0.1786,-0.51269 0.39688,-0.69385 0.21828,-0.18116 0.39687,-0.56137 0.39687,-0.84493 0,-0.64241 4.07452,-4.64473 5.46904,-5.37214 0.55729,-0.29069 1.1792,-0.68625 1.38202,-0.87903 0.21234,-0.20183 0.63321,-0.28413 0.99219,-0.19404 0.34288,0.0861 0.62342,0.0432 0.62342,-0.0953 0,-0.24741 0.69944,-0.56445 1.16105,-0.52628 0.12924,0.0107 0.32075,-0.11932 0.42557,-0.28891 0.23793,-0.38499 4.4988,-0.6224 4.4988,-0.25066 0,0.14262 0.28467,0.18786 0.63259,0.10054 0.34793,-0.0873 0.71214,-0.0301 0.80937,0.12725 0.0972,0.15731 0.40787,0.28602 0.69032,0.28602 0.28245,0 0.51355,0.11104 0.51355,0.24675 0,0.13572 0.2411,0.32328 0.53579,0.41681 0.56125,0.17814 1.8713,1.44008 2.7715,2.66972 0.29104,0.39755 0.678,0.87326 0.8599,1.05712 0.1819,0.18387 0.33073,0.46187 0.33073,0.61778 0,0.15592 0.0893,0.28393 0.19843,0.28448 0.10915,5.3e-4 0.40628,0.50656 0.66031,1.12448 l 0.46187,1.12349 h 2.20286 c 1.74519,0 2.29906,0.0962 2.66589,0.46302 0.25466,0.25466 0.58969,0.46302 0.74451,0.46302 0.33894,0 1.53279,1.24707 1.53279,1.60113 0,0.48244 1.08725,0.24555 1.76735,-0.38507 0.37726,-0.34981 0.99714,-0.7963 1.37751,-0.99219 0.38038,-0.19589 0.92973,-0.5727 1.22077,-0.83735 0.29104,-0.26465 0.85659,-0.54742 1.25677,-0.62838 0.40018,-0.081 0.7276004,-0.2491 0.7276004,-0.37364 0,-0.12455 0.54001,-0.50088 1.20002,-0.83631 l 1.20002,-0.60987 -1.66304,-0.34021 c -0.9146704,-0.18712 -1.9737504,-0.50714 -2.3535204,-0.71115 -0.37976,-0.20402 -0.75987,-0.30154 -0.84468,-0.21673 -0.22382,0.22382 -4.68255,-0.99707 -4.68255,-1.28217 0,-0.13207 -0.0996,-0.17858 -0.22128,-0.10336 -0.20046,0.12389 -1.79475,-0.31329 -4.27663,-1.17273 -2.13022,-0.73766 -5.35538,-2.17323 -5.77359,-2.56992 -0.19229,-0.1824 -0.50036,-0.33164 -0.68459,-0.33164 -0.33356,0 -4.66704,-2.0841 -4.91891,-2.36565 -0.0728,-0.0813 -0.54901,-0.3767 -1.05833,-0.65636 -0.50932,-0.27967 -1.02125,-0.66662 -1.13763,-0.8599 -0.11637,-0.19328 -0.44379,-0.35142 -0.7276,-0.35142 -0.28381,0 -0.51602,-0.11104 -0.51602,-0.24675 0,-0.13572 -0.23812,-0.32233 -0.52917,-0.41471 -0.29104,-0.0924 -0.52916,-0.34555 -0.52916,-0.56261 0,-0.21706 -0.11084,-0.32616 -0.2463,-0.24244 -0.13547,0.0837 -0.32563,0.0239 -0.42258,-0.13299 -0.0969,-0.15687 -0.46237,-0.39399 -0.81203,-0.52694 -0.34967,-0.13294 -0.63576,-0.39419 -0.63576,-0.58055 0,-0.18636 -0.37274,-0.50383 -0.82832,-0.70548 -0.45558,-0.20166 -0.88618,-0.58791 -0.9569,-0.85834 -0.0707,-0.27043 -0.21202,-0.49169 -0.31401,-0.49169 -0.23311,0 -4.25061,-3.96515 -4.2512,-4.1958 -2.4e-4,-0.0934 -0.44673,-0.60883 -0.99219,-1.14538 -1.293,-1.27189 -1.65321,-1.71986 -1.65321,-2.05598 0,-0.15167 -0.10616,-0.27575 -0.2359,-0.27575 -0.12975,0 -0.30956,-0.29346 -0.39958,-0.65214 -0.09,-0.35867 -0.46011,-0.94857 -0.82243,-1.31089 -0.36232,-0.36231 -0.65876,-0.88955 -0.65876,-1.17164 0,-0.28209 -0.17859,-0.58142 -0.39687,-0.66518 -0.21828,-0.0838 -0.39688,-0.33463 -0.39688,-0.55748 0,-0.22284 -0.10581,-0.40517 -0.23514,-0.40517 -0.12932,0 -0.31331,-0.41672 -0.40886,-0.92605 -0.0956,-0.50932 -0.27295,-0.92604 -0.39422,-0.92604 -0.12127,0 -0.36602,-0.38695 -0.54388,-0.85989 -0.17786,-0.47295 -0.42668,-1.09802 -0.55292,-1.38907 -0.68487,-1.5789 -1.30431,-3.51812 -1.30443,-4.08365 -7e-5,-0.35424 -0.22772,-1.12814 -0.50589,-1.71979 -0.5818,-1.23746 -1.15701,-3.78259 -0.93578,-4.14054 0.0824,-0.13336 0.0102,-0.24247 -0.16038,-0.24247 -0.19363,0 -0.2668,-0.2959 -0.19467,-0.7873 0.0635,-0.43301 0.0304,-0.81996 -0.0737,-0.85989 -0.10408,-0.0399 -0.31564,-1.24779 -0.47012,-2.68412 -0.15449,-1.43634 -0.33336,-2.66399 -0.39749,-2.72812 -0.0641,-0.0641 -2.06394,-0.39612 -4.44404,-0.73777 -7.0715,-1.01506 -14.621,-2.89069 -19.10312,-4.74607 -2.34079,-0.96897 -8.404396,-4.02735 -8.635164,-4.35542 -0.07539,-0.10718 -0.583552,-0.46619 -1.129255,-0.7978 -0.545703,-0.3316 -0.992187,-0.71227 -0.992187,-0.84593 0,-0.13365 -0.168475,-0.243 -0.374389,-0.243 -0.205914,0 -0.846003,-0.53578 -1.422419,-1.19062 -0.576417,-0.65485 -1.152082,-1.18981 -1.279257,-1.18881 -0.335751,0.003 -2.991297,-2.98401 -3.001081,-3.37526 -0.0045,-0.1819 -0.127333,-0.33073 -0.272854,-0.33073 -0.145521,0 -0.26664,-0.14882 -0.269155,-0.33073 -0.0025,-0.1819 -0.301383,-0.61228 -0.664153,-0.9564 -1.349464,-1.2801 -4.358354,-7.59556 -4.358354,-9.1479 0,-0.34835 -0.12561,-0.67524 -0.27912,-0.72641 -0.15352,-0.0512 -0.30235,-0.53681 -0.33073,-1.07919 -0.0284,-0.54239 -0.12221,-0.98669 -0.20851,-0.98735 -0.20185,-0.002 -1.10191,-4.76299 -1.02845,-5.44074 0.0306,-0.28246 0.0317,-0.5731 0.002,-0.64586 -0.12416,-0.30832 -0.13509,-8.46686 -0.0113,-8.46882 0.0748,-10e-4 0.15508,-0.62626 0.17844,-1.38906 0.0579,-1.891096 0.86305,-4.634568 2.17194,-7.400792 0.6011,-1.270341 1.09289,-2.425914 1.09289,-2.567937 0,-0.47361 1.47148,-2.483033 2.57969,-3.522784 0.327422,-0.307195 0.595312,-0.700508 0.595312,-0.874027 0,-0.349605 1.580598,-1.775534 2.711979,-2.446602 0.400183,-0.237363 0.727604,-0.584494 0.727604,-0.771401 0,-0.186904 0.160786,-0.339828 0.357303,-0.339828 0.196516,0 0.631042,-0.357188 0.965614,-0.79375 0.334572,-0.436563 0.739333,-0.797057 0.899469,-0.8011 0.160136,-0.004 0.638422,-0.36123 1.062857,-0.79375 0.424436,-0.43252 0.930452,-0.7864 1.12448,-0.7864 0.194027,0 0.352777,-0.119062 0.352777,-0.264583 0,-0.145521 0.178594,-0.264584 0.396875,-0.264584 0.218281,0 0.39788,-0.0893 0.399107,-0.198437 0.0012,-0.109141 0.775134,-0.608976 1.719792,-1.110745 0.944658,-0.501769 1.717559,-0.994878 1.717559,-1.095795 0,-0.10092 0.297657,-0.258197 0.661459,-0.349504 0.363802,-0.09131 0.661458,-0.282811 0.661458,-0.425559 0,-0.142748 0.241861,-0.259543 0.537469,-0.259543 0.295614,0 0.606004,-0.178593 0.689774,-0.396875 0.0838,-0.218281 0.26117,-0.396875 0.39424,-0.396875 0.13307,0 0.68588,-0.290697 1.22846,-0.645993 0.54259,-0.355298 1.76042,-0.976993 2.70631,-1.381543 0.94589,-0.404548 1.93143,-0.929423 2.19009,-1.166387 0.25866,-0.236963 0.94327,-0.57255 1.52135,-0.745746 0.57809,-0.173199 1.05106,-0.429189 1.05106,-0.568868 0,-0.139678 0.24951,-0.253962 0.55447,-0.253962 0.30496,0 0.87737,-0.229926 1.27203,-0.510948 0.39466,-0.281022 1.24647,-0.715645 1.89292,-0.96583 0.64646,-0.250187 1.28848,-0.55604 1.42673,-0.679677 0.13824,-0.123637 0.45053,-0.224795 0.69397,-0.224795 0.54581,0 2.81515,-0.985922 3.0155,-1.310095 0.0804,-0.130181 0.53012,-0.320998 0.99926,-0.42404 0.46914,-0.103039 1.09285,-0.335447 1.38603,-0.516459 0.29318,-0.181012 1.42602,-0.657619 2.51742,-1.059127 1.09141,-0.401508 2.34156,-0.878956 2.77813,-1.060997 0.43656,-0.182042 2.10343,-0.775587 3.70416,-1.318991 1.60073,-0.543403 3.26761,-1.141687 3.70417,-1.329523 0.43656,-0.187833 1.09141,-0.381989 1.45521,-0.431456 0.3638,-0.04946 0.73062,-0.183451 0.81516,-0.297749 0.0845,-0.114297 0.62031,-0.281535 1.19062,-0.371644 0.57031,-0.09011 1.09646,-0.236522 1.16922,-0.325363 0.23252,-0.283927 3.84731,-1.344139 4.58283,-1.344139 0.38986,0 0.70883,-0.109345 0.70883,-0.242986 0,-0.133641 0.74415,-0.426227 1.65365,-0.650189 0.90951,-0.223962 2.94211,-0.771208 4.51691,-1.216099 1.5748,-0.444892 2.97353,-0.740744 3.10831,-0.657448 0.13478,0.0833 0.57271,-0.02077 0.9732,-0.231224 0.40048,-0.210471 1.38299,-0.527161 2.18335,-0.703757 0.80037,-0.176597 1.98079,-0.49275 2.62317,-0.702564 0.64238,-0.209812 1.32317,-0.321916 1.51288,-0.249119 0.18971,0.0728 0.4217,0.0081 0.51554,-0.143719 0.0939,-0.151844 0.3952,-0.217352 0.66967,-0.145576 0.27448,0.07178 0.56572,0.02262 0.64722,-0.109241 0.0815,-0.131861 0.50052,-0.239745 0.93117,-0.239745 0.43064,0 1.65051,-0.232478 2.71081,-0.516617 1.0603,-0.284139 2.15944,-0.513686 2.44253,-0.510103 0.2831,0.0036 0.75284,-0.05249 1.04388,-0.124598 0.29105,-0.07211 0.778,-0.140221 1.08213,-0.151355 0.41041,-0.01503 0.64619,-0.310137 0.91459,-1.144722 0.19889,-0.618464 0.5151,-1.219409 0.70268,-1.335434 0.18758,-0.116025 0.41632,-0.681572 0.5083,-1.256771 0.092,-0.575199 0.25663,-1.045816 0.3659,-1.045816 0.10926,0 0.34851,-0.386953 0.53165,-0.859896 0.80062,-2.067488 1.6793004,-3.758075 2.2497304,-4.328511 0.33849,-0.338482 0.70021,-0.882545 0.80383,-1.209027 0.10362,-0.326483 0.52958,-0.934778 0.94657,-1.35177 0.41699,-0.416992 0.75817,-0.873096 0.75817,-1.013565 0,-0.140469 0.14882,-0.437759 0.33073,-0.660644 0.6772,-0.829792 4.15785,-4.33492 4.30463,-4.33492 0.0838,0 0.41461,-0.276762 0.73508,-0.615027 0.32048002,-0.338265 0.79104002,-0.691716 1.04570002,-0.785446 0.25466,-0.09373 0.46302,-0.293218 0.46302,-0.443306 0,-0.150088 0.12041,-0.272887 0.26758,-0.272887 0.14716,0 0.98273998,-0.488168 1.85682998,-1.084818 0.91712,-0.626015 1.75934,-1.019553 1.9914,-0.930502 0.22634,0.08685 0.46797,-0.01723 0.55272,-0.238099 0.0828,-0.215828 0.32495,-0.392414 0.53805,-0.392414 0.21311,0 0.56606,-0.178594 0.78435,-0.396875 0.21828,-0.218282 0.679,-0.396875 1.02381,-0.396875 0.34482,0 0.69227,-0.105684 0.7721,-0.234854 0.18675,-0.302181 4.3846796,-1.440153 4.5825896,-1.242247 0.0823,0.08228 0.30265,0.02256 0.48973,-0.132696 0.27027,-0.224301 7.94122,-0.444109 8.57209,-0.24563 0.0728,0.02289 0.54901,0.07789 1.05833,0.12222 2.19513,0.191059 4.23684,0.652894 4.88752,1.105555 0.28704,0.199688 0.80156,0.363068 1.14338,0.363068 0.34182,0 0.80008,0.178594 1.01836,0.396875 0.21828,0.218282 0.65626,0.402403 0.97329,0.40916 0.31703,0.0068 1.29079,0.418669 2.16391,0.915361 0.87313,0.496693 1.88012,1.056711 2.23777,1.244487 0.35765,0.187775 1.00927,0.668831 1.44803,1.069013 0.43877,0.400182 0.9439,0.727604 1.12252,0.727604 0.17862,0 0.41998,0.155393 0.53635,0.345318 0.11637,0.189924 0.68783,0.691429 1.26992,1.114455 1.23206,0.895395 1.98437,1.611592 1.98437,1.889118 0,0.107809 0.56555,0.743285 1.25677,1.412168 1.42792,1.381763 1.89202,1.952182 2.42596,2.981705 0.20649,0.398147 0.47733,0.723902 0.60186,0.723902 0.12453,0 0.34226,0.267891 0.48383,0.595313 0.26897,0.622083 0.823,1.55907 1.05598,1.785937 0.17493,0.170334 1.44888,2.693302 1.4603,2.892002 0.005,0.08289 0.29801,0.644467 0.65167,1.247952 0.62696,1.069845 0.6862,1.101415 2.37259,1.264256 0.95127,0.09186 2.62255,0.212114 3.71396,0.267242 1.0914,0.05513 2.52015,0.169865 3.175,0.254974 1.3534,0.1759 2.56192,0.302868 5.0241,0.527833 0.94425,0.08627 2.373,0.285078 3.175,0.441788 0.802,0.156713 2.2265,0.33841 3.16556,0.403773 0.93905,0.06537 1.77616,0.230147 1.86023,0.366186 0.15202,0.245972 0.47209,0.293274 1.98865,0.293899 0.43656,1.8e-4 0.97234,0.07005 1.19062,0.155276 0.21828,0.08522 0.635,0.179644 0.92604,0.209828 1.5074,0.156321 3.20754,0.498742 3.45717,0.696298 0.1552,0.122817 0.69098,0.247497 1.19063,0.277069 0.49965,0.02957 1.14153,0.169603 1.4264,0.311187 0.28487,0.141584 0.85041,0.247973 1.25677,0.236419 0.40635,-0.01156 0.73882,0.07895 0.73882,0.201109 0,0.122167 0.23813,0.159848 0.52917,0.08374 0.29104,-0.07611 0.52917,-0.02064 0.52917,0.123246 0,0.235926 1.9456,0.733369 2.45924,0.628769 0.34178,-0.0696 3.17342,0.755475 3.89076,1.133681 0.3638,0.191813 0.82405,0.290486 1.02278,0.219279 0.19874,-0.07121 0.43686,-0.02241 0.52917,0.108426 0.19879,0.281758 3.23134,1.279906 3.59275,1.182534 0.13746,-0.03703 0.49465,0.04841 0.79375,0.189876 0.29911,0.141465 1.10939,0.402783 1.80061,0.58071 0.691222,0.177927 1.256772,0.427093 1.256772,0.553701 0,0.126609 0.2311,0.230198 0.51355,0.230198 0.28246,0 0.58834,0.121005 0.67974,0.268899 0.0914,0.147894 0.2688,0.205484 0.39421,0.127976 0.12541,-0.07751 0.30281,-0.01992 0.39421,0.127977 0.0914,0.147894 0.45682,0.268898 0.81203,0.268898 0.35522,0 0.64584,0.115327 0.64584,0.256281 0,0.140952 0.1786,0.187746 0.39688,0.103984 0.21828,-0.08376 0.39687,-0.02588 0.39687,0.128606 0,0.154496 0.44649,0.361741 0.99219,0.460544 0.5457,0.0988 1.34938,0.366512 1.78594,0.594911 0.43656,0.228396 0.94258,0.38586 1.12448,0.349914 0.1819,-0.03594 0.33073,0.05893 0.33073,0.210828 0,0.1519 0.23812,0.276182 0.52916,0.276182 0.29105,0 0.52917,0.109829 0.52917,0.244065 0,0.134234 0.44648,0.387715 0.99219,0.563288 0.5457,0.175574 1.28984,0.468484 1.65364,0.650909 0.64382,0.322839 2.52897,1.187871 4.58769,2.105139 0.55869,0.248927 1.22616,0.662945 1.48325,0.920038 0.25709,0.257093 1.1692,0.806198 2.0269,1.220234 0.8577,0.414036 1.65467,0.907431 1.77104,1.096434 0.11637,0.189005 0.38588,0.343643 0.5989,0.343643 0.58742,0 1.59382,0.631261 3.1144,1.95349 0.31517,0.274058 1.10881,0.735981 1.76366,1.026496 0.65484,0.290518 1.39327,0.721132 1.64094,0.956926 0.72049,0.685922 1.23614,1.090171 1.3906,1.090171 0.0789,0 0.36521,0.208359 0.63625,0.463021 0.27104,0.254661 0.92606,0.820208 1.45559,1.256771 1.88783,1.556374 4.40162,4.027042 4.40162,4.32612 0,0.167248 0.11334,0.304088 0.25187,0.304088 0.13853,0 0.63669,0.565547 1.10702,1.256771 0.47032,0.691223 0.92495,1.316302 1.01028,1.389062 0.0853,0.07276 0.30068,0.429948 0.47856,0.79375 0.17788,0.363802 0.44335,0.869818 0.58993,1.124479 1.37704,2.39245 1.85378,3.454961 1.86242,4.150738 0.005,0.372848 0.18322,0.909024 0.39687,1.191498 0.21365,0.282475 0.38846,0.915379 0.38846,1.406456 0,0.491078 0.10878,1.096127 0.24174,1.344557 0.22407,0.418677 0.4432,1.862696 0.7292,4.805188 0.097,0.997595 0.15132,5.264563 0.10616,8.334373 -0.0165,1.12014 -0.53363,4.23266 -0.98912,5.95313 -0.2119,0.80036 -0.44154,1.75286 -0.51032,2.11666 -0.18279,0.96694 -1.181,3.99501 -1.56997,4.7625 -0.18438,0.36381 -0.72911,1.52467 -1.21052,2.57969 -0.48142,1.05503 -0.95531,1.91823 -1.05309,1.91823 -0.0978,0 -0.32575,0.35719 -0.50658,0.79375 -0.18083,0.43656 -0.49995,0.79375 -0.70917,0.79375 -0.20921,0 -0.3202,0.0974 -0.24664,0.21641 0.0736,0.11903 -0.15754,0.53055 -0.51355,0.91449 -0.35602,0.38395 -0.6473,0.77054 -0.6473,0.85908 0,0.24338 -4.59832,4.88269 -4.843,4.88617 -0.11703,0.002 -0.59328,0.35965 -1.05833,0.79554 -0.46505,0.43589 -0.99438,0.79308 -1.17628,0.79375 -0.1819,8e-4 -0.33073,0.10017 -0.33073,0.2211 0,0.12093 -0.32742,0.38863 -0.7276,0.59489 -0.40018,0.20626 -0.78714,0.43474 -0.8599,0.50773 -0.17383,0.17439 -1.25536,0.79242 -2.24896,1.28514 -0.43656,0.21649 -0.85328,0.47588 -0.92604,0.57643 -0.20119,0.27801 -3.2192,1.72978 -4.38935,2.11142 -0.56903,0.1856 -1.09414,0.41484 -1.1669,0.50943 -0.16978,0.22072 -3.68078,1.59023 -6.76231,2.63773 -3.01429,1.02464 -7.98444,2.36712 -12.35038,3.33593 l -3.369982,0.74781 -0.16482,0.87857 c -0.0906,0.48321 -0.10301,1.03963 -0.0275,1.23649 0.13146,0.34258 -0.17429,3.01952 -0.50353,4.40856 -0.0862,0.3638 -0.14989,0.98888 -0.14147,1.38906 0.008,0.40018 -0.091,0.7276 -0.22091,0.7276 -0.12993,0 -0.22854,0.32742 -0.21913,0.72761 0.009,0.40018 -0.23668,1.57388 -0.54686,2.60821 -0.31018,1.03433 -0.56397,2.08396 -0.56397,2.3325 0,0.24854 -0.14301,0.71195 -0.31779,1.02981 -0.17479,0.31785 -0.35564,0.81604 -0.40189,1.10708 -0.16257,1.02291 -0.64686,2.24896 -0.88834,2.24896 -0.13423,0 -0.24406,0.19134 -0.24406,0.42519 0,0.53156 -1.54999,3.80843 -2.02709,4.28553 -0.19435,0.19435 -0.42599,0.6427 -0.51474,0.99632 -0.0888,0.35363 -0.26753,0.64296 -0.39727,0.64296 -0.12975,0 -0.2359,0.18233 -0.2359,0.40518 0,0.22285 -0.17916,0.47392 -0.39812,0.55795 -0.21897,0.084 -0.58405,0.54459 -0.8113,1.02348 -0.22725,0.47889 -0.75916,1.21008 -1.18203,1.62486 -0.42287,0.41479 -0.77216,0.83885 -0.7762,0.94237 -0.004,0.10351 -0.4836,0.65973 -1.06569,1.23602 -0.58208,0.57629 -1.05833,1.17621 -1.05833,1.33314 0,0.15693 -0.18154,0.28533 -0.40342,0.28533 -0.22188,0 -0.5166,0.29766 -0.65491,0.66146 -0.13832,0.3638 -0.37076,0.66146 -0.51653,0.66146 -0.14578,0 -0.95204,0.66539 -1.7917,1.47865 -0.83966,0.81325 -2.09256,1.84534 -2.78421,2.29352 -0.69166,0.44817 -1.25981,0.88411 -1.26256,0.96874 -0.003,0.0846 -0.60376,0.51107 -1.33559,0.94763 -0.73182,0.43656 -1.58123,1.00211 -1.88757,1.25677 -0.30634,0.25466 -0.71735,0.46302 -0.91337,0.46302 -0.19601,0 -0.35639,0.0943 -0.35639,0.20946 0,0.1152 -0.38695,0.39842 -0.85989,0.62937 -0.47295,0.23095 -1.75287,0.90169 -2.84427,1.49054 -2.26454,1.22177 -9.32271,4.11293 -12.78049,5.23512 -1.97105,0.63969 -2.26222,0.80517 -1.89252,1.0755 0.24032,0.17573 0.59563,0.2586 0.78958,0.18418 0.33684,-0.12926 1.56585,0.31875 3.07633,1.1214 0.38626,0.20525 0.92204,0.37461 1.19063,0.37637 0.26859,0.002 1.00651,0.29941 1.63983,0.66146 0.63331,0.36205 1.25948,0.65827 1.39147,0.65827 0.13199,0 0.61375,0.35718 1.07057,0.79375 0.45682,0.43656 1.11058,0.79375 1.45279,0.79375 0.34222,0 0.62222,0.11906 0.62222,0.26458 0,0.14552 0.15438,0.26458 0.34306,0.26458 0.42777,0 1.17488,0.57216 2.85026,2.18282 0.719,0.69122 1.42682,1.25677 1.57293,1.25677 0.30647,0 1.84834,1.41911 1.84834,1.70119 0,0.27081 0.71177,0.94464 0.99783,0.94464 0.13304,0 0.51474,0.53052 0.84823,1.17893 0.33349,0.6484 0.85305,1.44373 1.15458,1.76738 0.50348,0.54042 1.23613,2.96728 1.32708,4.39588 0.0208,0.32742 0.13919,0.59531 0.26298,0.59531 0.45399,0 -0.57119,5.78836 -1.24182,7.01146 -0.23936,0.43656 -0.43594,0.92984 -0.43684,1.09617 -7.9e-4,0.16633 -0.18022,0.37095 -0.3985,0.45472 -0.21828,0.0838 -0.39688,0.38565 -0.39688,0.67086 0,0.28522 -0.17859,0.69717 -0.39687,0.91545 -0.21828,0.21828 -0.39688,0.52444 -0.39688,0.68036 0,0.15591 -0.0999,0.28348 -0.22211,0.28348 -0.12216,0 -0.34906,0.26789 -0.50422,0.59531 -0.62627,1.32162 -4.73037,5.61118 -8.41703,8.7974 -1.01027,0.87312 -1.93206,1.73633 -2.04843,1.91823 -0.11637,0.1819 -0.32874,0.33073 -0.47194,0.33073 -0.14319,0 -0.603,0.32742 -1.02178,0.7276 -1.01403,0.96898 -1.33632,1.20127 -2.1973,1.5837 -0.40018,0.17775 -0.7276,0.4448 -0.7276,0.59344 0,0.14864 -0.1786,0.27026 -0.39688,0.27026 -0.21828,0 -0.39687,0.10031 -0.39687,0.22291 0,0.28909 -2.07992,1.30242 -4.02175,1.95939 -1.10038,0.37229 -1.13288,0.0405 0.31036,3.16826 0.31712,0.68724 0.50606,1.36362 0.41987,1.50307 -0.0862,0.13945 -0.0357,0.32834 0.1122,0.41974 0.1479,0.0914 0.2689,0.39729 0.2689,0.67974 0,0.28245 0.11906,0.51355 0.26458,0.51355 0.14552,0 0.26459,0.2311 0.26459,0.51355 0,0.28246 0.11906,0.58714 0.26458,0.67708 0.14552,0.0899 0.26458,0.54672 0.26458,1.01507 0,0.46836 0.15602,1.08641 0.34671,1.37345 0.35875,0.54001 0.74412,1.77256 1.19724,3.82918 0.14427,0.65485 0.44989,1.84547 0.67915,2.64584 0.22925,0.80036 0.43691,1.94663 0.46145,2.54726 0.0375,0.91875 0.17447,1.16791 0.86285,1.5701 1.16166,0.67871 3.16584,2.77596 3.53531,3.69949 0.67057,1.67612 0.2165,3.89225 -1.02393,4.99748 -1.79898,1.6029 -3.0476,1.69312 -16.64211,1.20251 -9.31043,-0.33601 -10.27763,-0.47261 -11.35912,-1.60428 -0.44644,-0.46716 -0.81171,-1.06985 -0.81171,-1.3393 0,-0.26946 -0.0944,-0.48993 -0.20979,-0.48993 -0.11539,0 -0.43481,-0.68461 -0.70983,-1.52135 -0.27502,-0.83675 -0.61065,-1.66867 -0.74585,-1.84872 -0.1352,-0.18005 -0.18195,-0.4938 -0.10388,-0.69723 0.0781,-0.20343 -0.0207,-0.60211 -0.21955,-0.88596 -0.49131,-0.70143 -1.45039,-3.26521 -1.45055,-3.87755 -7e-5,-0.27304 -0.33737,-1.16601 -0.74955,-1.98438 -0.41217,-0.81836 -0.97772,-2.14278 -1.25677,-2.94314 -0.27905,-0.80037 -0.75355,-1.97503 -1.05445,-2.61038 l -0.54709,-1.15516 -4.3477,-0.0355 c -3.90212,-0.0318 -4.39346,0.0142 -4.79419,0.44899 -0.24558,0.26645 -0.38108,0.65491 -0.30113,0.86326 0.0799,0.20835 0.0325,0.52613 -0.10541,0.70618 -0.13792,0.18005 -0.46624,1.04173 -0.72959,1.91486 -0.26336,0.87312 -0.6961,1.8986 -0.96164,2.27882 -0.26555,0.38023 -0.41855,0.75559 -0.34,0.83414 0.20358,0.20358 -0.46166,2.311 -0.7295,2.311 -0.12248,0 -0.2227,0.16498 -0.2227,0.36663 0,0.20164 -0.17786,0.70766 -0.39524,1.12448 -0.21739,0.41681 -0.39598,1.02574 -0.39688,1.35316 -7.9e-4,0.32742 -0.12069,0.59531 -0.26621,0.59531 -0.14552,0 -0.26458,0.18218 -0.26458,0.40485 0,0.22267 -0.29766,1.11205 -0.66146,1.9764 -0.3638096,0.86435 -0.6614596,1.8728 -0.6614596,2.24099 0,0.36818 -0.11906,0.66943 -0.26458,0.66943 -0.14553,0 -0.26837,0.20836 -0.273,0.46302 -0.0114,0.62546 -0.60937,1.3738 -1.44374,1.80667 -1.3266,0.68825 -23.9826204,1.45503 -26.5936804,0.90004 z m 17.7270804,-4.51084 c 5.65895,-0.30588 6.53156,-0.46504 6.77829,-1.23629 0.0819,-0.25592 0.24943,-0.70344 0.37236,-0.99448 0.12292,-0.29104 0.46931,-1.10985 0.76975,-1.81957 0.30045,-0.70972 0.54627,-1.52122 0.54627,-1.80333 0,-0.28211 0.11938,-0.736 0.2653,-1.00864 0.36986,-0.6911 0.10687,-0.78772 -2.47083,-0.90784 -4.55582998,-0.2123 -7.72072,-0.98464 -10.2327,-2.49711 -0.50777,-0.30574 -1.19937,-0.67662 -1.53689,-0.82418 -0.78021,-0.34113 -0.71597,-1.45303 0.0848,-1.46792 0.29122,-0.005 0.66401,-0.093 0.82843,-0.19461 0.16442,-0.10162 0.70006,0.1688 1.19031,0.60093 0.49025,0.43213 0.95089,0.79752 1.02365,0.81197 0.0728,0.0145 0.37042,0.0647 0.66146,0.11164 0.29104,0.047 1.48167,0.28756 2.64583002,0.53467 1.16417,0.24711 2.65244998,0.50393 3.30729998,0.57071 0.65484,0.0668 1.7264,0.2032 2.38125,0.30318 0.65484,0.1 1.61905,0.14589 2.14269,0.10204 0.82414,-0.069 1.02548,-0.229 1.49836,-1.19062 0.60597,-1.23228 1.2664496,-3.31179 1.0976896,-3.45606 -0.0597,-0.051 -1.0610396,-0.58429 -2.2251996,-1.18501 -1.16417,-0.60073 -2.59292,-1.50652 -3.175,-2.01289 -0.58209,-0.50636 -1.38576,-0.99383 -1.78594,-1.08326 -0.40018,-0.0894 -0.7276,-0.25517 -0.7276,-0.36831 0,-0.11313 -1.00898,-0.59578 -2.24216997895,-1.07254 C -2.3674216,246.86271 -2.8973616,246.83586 -7.4315616,247.40134 l -1.33898,0.16699 -0.44695,1.50559 c -0.48209,1.62395 -0.574,2.67004 -0.23459,2.67004 0.51314,0 2.45249,2.24951 2.37883,2.75927 -0.0934,0.64635 -1.55433,1.27629 -1.73116,0.74646 -0.0607,-0.1819 -0.2723,-0.33073 -0.4702,-0.33073 -0.19791,0 -0.53274,-0.24687 -0.7440804,-0.5486 -0.21134,-0.30173 -0.44588,-0.44889 -0.52119,-0.32702 -0.22551,0.36486 -1.43849,6.44279 -1.62685,8.15166 -0.2361,2.14194 -0.36739,2.51335 -0.88898,2.51467 -0.24485,5.3e-4 -0.98097,0.35761 -1.63582,0.79329 -0.65484,0.43569 -1.57849,0.92096 -2.05255,1.07839 -0.47406,0.15743 -0.98528,0.51674 -1.13606,0.79846 -0.22606,0.42239 -0.16771,0.55535 0.33276,0.75821 0.69971,0.28362 8.4489604,0.15438 16.3496004,-0.27267 z m 58.0713196,-0.1489 c 0.26704,-0.10247 0.278,-0.30317 0.0496,-0.90827 -0.16125,-0.42719 -0.42614,-0.77672 -0.58863,-0.77672 -0.54814,0 -2.7098,-1.87696 -2.98863,-2.59503 -0.15212,-0.39174 -0.41275,-1.66476 -0.57918,-2.82893 -0.38739,-2.70979 -1.75722,-7.27794 -2.17999,-7.2699 -0.17767,0.003 -0.76987,0.39033 -1.31599,0.85989 -1.83157,1.5748 -2.66061,2.15497 -3.89964,2.72903 -3.50648,1.62457 -6.69388,2.30466 -11.54487,2.46331 l -0.82706,0.027 0.62862,1.73183 c 0.34574,0.95251 0.62862,1.9254 0.62862,2.16198 0,0.23658 0.15841,0.61812 0.35203,0.84786 0.19362,0.22974 0.55532,0.96928 0.80377,1.64341 0.54407,1.47624 0.42748,1.44275 6.33841,1.82084 7.37897,0.472 14.02967,0.51318 15.12294,0.0937 z m -19.39042,-10.45651 c 2.41476,-0.0172 6.56285,-1.33866 6.56285,-2.09074 0,-0.13209 0.29766,-0.31487 0.66146,-0.40618 0.3638,-0.0913 0.66146,-0.27217 0.66146,-0.40191 0,-0.12975 0.17859,-0.2359 0.39687,-0.2359 0.21828,0 0.39688,-0.11906 0.39688,-0.26459 0,-0.14552 0.22538,-0.26458 0.50086,-0.26458 0.27547,0 0.56939,-0.17859 0.65315,-0.39687 0.0838,-0.21829 0.25528,-0.39688 0.38116,-0.39688 0.12587,0 0.69934,-0.44648 1.27437,-0.99219 1.01817,-0.96625 1.03823,-1.01985 0.76721,-2.05052 -0.75214,-2.86031 -1.36038,-3.17734 -5.69342,-2.96752 -2.1534,0.10428 -3.22436,0.30024 -4.7625,0.87144 -1.09141,0.4053 -2.04391,0.80572 -2.11667,0.88981 -0.28302,0.32709 -2.3845,1.60315 -2.64016,1.60315 -0.14864,0 -0.27025,0.11906 -0.27025,0.26458 0,0.14552 -0.23813,0.26458 -0.52917,0.26458 -0.29104,0 -0.52917,0.10435 -0.52917,0.23189 0,0.12754 -0.62809,0.50909 -1.39576,0.84788 -1.3448,0.5935 -1.3925,0.65024 -1.30651,1.55405 0.10213,1.07334 0.5642,2.16333 1.0482,2.47256 0.18214,0.11637 0.33116,0.43471 0.33116,0.70743 0,0.38998 0.29654,0.54926 1.38906,0.74611 0.76398,0.13766 1.59094,0.2003 1.83767,0.13922 0.24674,-0.0611 1.3183,-0.11726 2.38125,-0.12482 z m -25.82561,-7.52987 c 0.0931,-0.4963 0.27485,-0.96762 0.40387,-1.04736 0.12903,-0.0797 0.23459,-0.61001 0.23459,-1.17839 0,-0.73838 0.14114,-1.10895 0.49438,-1.29799 0.27191,-0.14552 0.567,-0.19197 0.65575,-0.10321 0.45665,0.45665 9.01768,1.06475 9.50122,0.67488 0.31805,-0.25644 1.25362,-0.35498 4.03303,-0.42478 1.28622,-0.0323 1.32488,-0.0112 1.39376,0.76053 0.13225,1.4816 0.62904,2.93942 1.10243,3.23505 0.38559,0.24081 0.75614,0.10543 2.03045,-0.7418 0.85732,-0.56999 1.70168,-1.03674 1.87635,-1.0372 0.17467,-5.3e-4 0.4128,-0.16146 0.52917,-0.35778 0.11637,-0.19631 0.52301,-0.52374 0.90364,-0.7276 0.38062,-0.20387 1.28017,-0.68835 1.99898,-1.07662 1.21822,-0.65802 3.0945,-1.20466 3.62593,-1.05637 0.12736,0.0355 0.43598,-0.12039 0.68583,-0.3465 0.33075,-0.29933 1.20305,-0.43932 3.20803,-0.51485 1.51457,-0.0571 2.85108,-0.11515 2.97003,-0.1291 0.11894,-0.0139 0.13601,-0.2782 0.0379,-0.58724 -0.0981,-0.30903 -0.20229,-0.72509 -0.23157,-0.92456 -0.0293,-0.19948 -0.32428,-0.72931 -0.65557,-1.1774 -0.53443,-0.72285 -0.71168,-0.79734 -1.5722,-0.66068 -1.2204,0.19381 -2.9082,-0.38432 -3.53417,-1.21059 -0.71192,-0.93973 -1.62775,-1.81488 -1.89921,-1.81488 -0.43419,0 -2.81252,-1.95202 -2.81252,-2.30837 0,-0.2241 -0.21145,-0.29951 -0.59532,-0.21231 -4.84481,1.10065 -16.95101,1.57577 -24.40781,0.95791 -2.0372896,-0.16881 -4.3590096,-0.3555 -5.1593696,-0.41487 -0.80037,-0.0594 -1.87193,-0.22321 -2.38125,-0.36409 -0.50932,-0.14088 -1.58089,-0.38964 -2.38125,-0.55281 -0.80036998,-0.16316 -2.02983998,-0.41912 -2.73216,-0.5688 -1.50267,-0.32024 -1.68553,-0.21428 -2.52261,1.46182 -0.32846,0.65768 -0.70926,1.26503 -0.84622,1.34968 -0.13695,0.0846 -0.24901,0.38873 -0.24901,0.67575 0,0.28702 -0.17791,0.59013 -0.39536,0.67357 -0.21744,0.0834 -0.34648,0.23078 -0.28676,0.32742 0.0597,0.0966 -0.11551,0.6497 -0.38942,1.22904 -0.2739,0.57934 -0.50205,1.15403 -0.50698,1.27709 -0.005,0.12305 -0.2617,0.57865 -0.57057,1.01242 -0.30888,0.43378 -0.65202,1.18959 -0.76253,1.67959 l -0.20093,0.8909 1.49013,-0.11211 c 0.81957,-0.0617 2.05815,-0.16567 2.7524,-0.23113 0.79391,-0.0749 1.5302,0.0207 1.98437,0.25767 0.39716,0.20718 0.87258002,0.37743 1.05650002,0.37833 0.55681,0.003 7.20507998,3.40211 7.99997998,4.09056 0.21828,0.18905 1.04638,0.65037 1.84021,1.02517 1.6458796,0.77707 2.0157296,0.65108 2.2838296,-0.77799 z m 39.00304,-11.80504 c 0.94589,-0.32731 1.87713,-0.74524 2.06942,-0.92872 0.1923,-0.18348 0.44392,-0.3336 0.55915,-0.3336 0.30903,0 3.73942,-2.57221 4.14782,-3.11016 0.4248,-0.55954 0.47297,-3.22577 0.0848,-4.69505 -0.82224,-3.11257 -3.75806,-7.00551 -5.99523,-7.94978 -2.09621,-0.88477 -3.56874,-1.01142 -6.07134,-0.52217 -2.76379,0.5403 -4.53223,1.46436 -6.4935,3.39301 -2.18391,2.14759 -2.34547,2.43158 -2.48863,4.37462 -0.15917,2.16027 0.17936,2.86656 0.93995,1.96109 0.27503,-0.32742 0.70471,-0.59531 0.95485,-0.59531 0.40404,0 0.43445,0.20654 0.27245,1.85054 -0.14762,1.49816 -0.0969,1.99516 0.26626,2.60997 0.3853,0.65227 1.61504,1.62491 2.05442,1.62491 0.0774,0 0.40835,-0.47625 0.7355,-1.05834 0.98808,-1.75805 1.90871,-1.22165 1.65016,0.96144 -0.14739,1.24448 -0.10768,1.36164 0.68862,2.03168 1.00738,0.84765 1.61301,0.8964 2.25964,0.18188 0.65839,-0.72751 1.41502,-0.66931 1.71979,0.13229 0.30886,0.81236 0.49116,0.8173 2.64583,0.0717 z m -20.6633,-3.8056 c 1.1056,-0.19369 2.4269,-0.34241 2.93622,-0.3305 0.81648,0.0191 2.6936,-0.50632 1.96149,-0.54903 -0.1581,-0.009 -0.61969,-0.67341 -1.02574,-1.47596 -0.63434,-1.25375 -0.71322,-1.64814 -0.56026,-2.80121 0.0979,-0.73812 0.3102,-1.59953 0.47175,-1.91425 0.16154,-0.31473 0.39419,-0.78059 0.51699,-1.03525 0.1228,-0.25466 0.36759,-0.69573 0.54399,-0.98015 0.49331,-0.79545 0.12067,-0.90583 -1.96765,-0.5828 -1.05872,0.16376 -3.41323,0.3556 -5.23224,0.42631 -1.81901,0.0707 -4.67651,0.31684 -6.35,0.54695 -5.64717,0.77653 -20.0673896,-0.29042 -22.12225958,-1.63682 -0.75177002,-0.49258 -0.70866002,-0.69273 -0.66472002,3.08641 0.0441,3.7912 0.25235,5.24893 0.79109002,5.53726 1.00624,0.53852 5.46858998,1.28106 11.14797958,1.85502 3.45129,0.34879 17.32011,0.24525 19.55336,-0.14598 z m 33.68681,-5.68367 c 0.6024,-0.56173 1.163,-1.05382 1.24578,-1.09354 0.0828,-0.0397 0.35886,-0.44778 0.61353,-0.90679 0.50317,-0.90695 0.59256,-1.69338 0.23744,-2.08907 -0.12407,-0.13825 -0.37905,-0.84667 -0.56662,-1.57428 -0.72133,-2.79808 -2.84237,-5.69492 -4.92838,-6.73098 -0.70999,-0.35263 -1.40994,-0.77974 -1.55547,-0.94913 -0.14552,-0.1694 -0.6813,-0.46844 -1.19062,-0.66454 -0.50932,-0.1961 -1.01352,-0.48237 -1.12043,-0.63616 -0.10832,-0.1558 -0.19618,-0.016 -0.19844,0.31571 -0.003,0.50124 -0.14792,0.59531 -0.91447,0.59531 -0.50074,0 -0.98401,-0.11906 -1.07395,-0.26458 -0.24966,-0.40396 -1.11466,-0.315 -1.28631,0.13229 -0.0838,0.21828 -0.31568,0.39688 -0.51538,0.39688 -0.34288,0 -2.82852,2.16949 -2.82852,2.46876 0,0.077 0.56555,0.41267 1.25677,0.746 0.69122,0.33333 1.46977,0.81793 1.7301,1.0769 0.26033,0.25896 0.71482,0.47084 1.00998,0.47084 0.6992,0 2.60681,1.58779 2.61296,2.17489 0.003,0.2503 0.34465,0.70638 0.76007,1.01351 0.41598,0.30755 1.08134,1.29173 1.48106,2.19073 0.39918,0.89778 0.89273,1.9694 1.09679,2.38137 0.20406,0.41197 0.37102,1.08883 0.37102,1.50413 0,0.4153 0.11972,1.06997 0.26605,1.45484 l 0.26604,0.69976 1.06787,-0.84577 c 0.58732,-0.46517 1.56073,-1.30536 2.16313,-1.86708 z m -83.27038,1.32438 c 1.70638,-0.45957 2.93222,-1.48171 4.10521,-3.42307 1.84342,-3.05096 2.24838,-5.79104 1.46273,-9.89725 -0.36095,-1.88652 -1.07553,-3.58961 -1.50611,-3.58961 -0.10434,0 -0.25824,0.21593 -0.342,0.47983 -0.18242,0.57475 -1.73017,2.3007 -2.20201,2.45554 -0.21922,0.0719 -0.3804,0.87881 -0.46829,2.34436 -0.1656,2.76109 -0.52137,4.0362 -1.55337,5.56722 -1.75796,2.60805 -4.57861,4.48421 -7.36751,4.90053 -1.39962,0.20893 -1.63778,0.56774 -0.52917,0.79722 0.40018,0.0828 1.08479,0.25154 1.52136,0.3749 1.16,0.32779 5.64961,0.32148 6.87916,-0.01 z m 7.74837,-3.01931 c 0.53539,-0.3638 1.11446,-0.66145 1.28683,-0.66145 0.17238,0 0.3531,-0.10339 0.40161,-0.22974 0.0485,-0.12636 1.0007004,-0.96124 2.1160004,-1.85529 1.74171,-1.39621 2.04754,-1.76507 2.16771,-2.61453 0.077,-0.54394 0.2799,-2.00102 0.45101,-3.23794 0.17112,-1.23693 0.77322,-4.12941 1.33802,-6.42772 0.5648,-2.29833 1.02691,-4.23309 1.02691,-4.29948 0,-0.0664 0.29766,-0.12072 0.66146,-0.12072 0.54269,0 0.66332,0.13064 0.67181,0.7276 l 0.0103,0.72761 0.36313,-0.83464 c 0.19971,-0.45906 0.59955002,-0.90968 0.88850002,-1.0014 0.36324,-0.11528 0.48346,-0.32708 0.38953,-0.68624 -0.16415,-0.62773 0.62838,-1.93082 1.02517,-1.68558 0.38746998,0.23946 0.10970998,2.2157 -0.83325,5.92865 -0.79869,3.14483 -1.68296002,9.03611 -1.53887002,10.25241 0.0602,0.50852 0.29227,0.75303 0.87570002,0.92277 4.88568998,1.42144 22.11502958,1.65187 32.80832958,0.43879 3.28414,-0.37257 3.57188,-0.44943 3.57188,-0.95416 0,-0.87487 1.20098,-2.2135 2.60914,-2.90819 1.0517,-0.51883 1.95825,-0.73103 3.50573,-0.82062 1.14797,-0.0665 2.08721,-0.16045 2.08721,-0.20887 0,-0.31042 -1.19399,-5.1177 -1.7327,-6.97628 -0.74531,-2.57135 -0.81356,-3.59566 -0.25389,-3.81043 0.35218,-0.13514 1.72201,1.01026 1.72201,1.43989 0,0.29185 2.48555,2.74138 4.46794,4.40318 l 1.95441,1.63834 1.04466,-1.31204 c 0.57457,-0.72162 1.21313,-1.31204 1.41904,-1.31204 0.2059,0 0.37528,-0.14883 0.3764,-0.33073 0.003,-0.42104 1.91078,-1.52135 2.63837,-1.52135 0.94912,0 0.93808,0.75662 -0.0257,1.76372 -0.49219,0.51431 -1.10681,1.01642 -1.36582,1.11581 -0.25901,0.0994 0.48587,0.20847 1.65528,0.24241 2.62641,0.0762 4.47051,0.72771 6.60796,2.33446 2.33978,1.75883 3.85577,3.9343 4.77124,6.84672 0.18297,0.58208 0.41902,1.15312 0.52457,1.26898 0.28969,0.31796 1.50177,-1.41335 2.60078,-3.7149 0.9055,-1.89628 0.97985,-2.2327 0.97985,-4.43325 0,-2.14833 -0.0776,-2.52258 -0.79375,-3.82623 -1.38353,-2.51865 -5.22634,-5.98755 -9.18003,-8.28681 -3.49634,-2.03328 -5.43391,-2.83267 -10.38218,-4.28343 -5.89709,-1.72894 -7.33804,-1.97298 -9.27215,-1.57034 -2.74489,0.57141 -8.83478,1.38202 -13.1021,1.74397 -5.34504,0.45336 -18.07742,0.4466 -23.1940596,-0.0123 -3.93644,-0.35307 -4.04573,-0.34867 -5.82082998,0.23398 -0.99499002,0.32659 -2.73991002,1.05414 -3.87761002,1.61677 -1.13769,0.56263 -2.18451,1.02296 -2.32627,1.02296 -0.14175,0 -0.40153,0.12305 -0.57729,0.27345 -0.48756,0.4172 -3.4171004,2.13088 -4.0898704,2.39243 -0.32742,0.12729 -0.59532,0.339 -0.59532,0.47047 0,0.13147 -0.3587,0.38761 -0.79711,0.56921 -0.80765,0.33454 -0.8776,0.48862 -1.20043,2.64444 -0.28618,1.91101 -0.23073,2.50944 0.28873,3.11612 0.50243,0.5868 0.9154,1.81836 1.6167,4.82138 0.39576,1.6947 0.37366,4.75653 -0.0525,7.27604 -0.24218,1.43168 -1.15851,3.83646 -1.46188,3.83646 -0.13506,0 -0.24557,0.11906 -0.24557,0.26458 0,0.4614 0.7888,0.28702 1.79525,-0.39687 z m 17.7276104,-13.6117 c -0.84905,-0.67004 -1.28294,-2.3198 -0.70617,-2.68509 0.56856,-0.3601 0.83492,-0.29049 1.68463,0.44025 l 0.78986,0.67927 0.4424,-0.54633 c 0.24331,-0.30049 0.38039,-0.78345 0.3046,-1.07326 -0.21495,-0.82195 0.68813,-1.02236 1.28507,-0.28518 0.5906796,0.72947 0.4237896,2.51799 -0.3067,3.28673 -0.73596,0.77449 -2.6195,0.87349 -3.49369,0.18361 z m 26.2961796,-1.42045 c -0.76322,-0.81242 -0.7916,-2.61091 -0.0528,-3.34966 1.65823,-1.65822 4.24006,-0.62139 4.24006,1.70276 0,1.59061 -0.70586,2.25926 -2.38502,2.25926 -0.94037,0 -1.36125,-0.14301 -1.80219,-0.61236 z m 2.44884,-1.94815 c 0.0978,-0.25492 -0.01,-0.62095 -0.25245,-0.8599 -0.3847,-0.37858 -0.45541,-0.37203 -0.7853,0.0727 -0.19939,0.26881 -0.29844,0.65576 -0.2201,0.8599 0.19763,0.51503 1.05125,0.46571 1.25785,-0.0727 z m -63.31909,17.1112 c 1.85905,-0.34695 4.59966,-1.69971 5.5581,-2.74346 1.85532,-2.02044 2.96257,-5.62244 2.38834,-7.76945 -0.42946,-1.60569 -0.89865,-2.10562 -2.1792,-2.32197 -1.23262,-0.20825 -1.31105,-0.60365 -0.25951,-1.30815 0.91184,-0.6109 1.87118,-2.39674 1.86909,-3.47934 -0.006,-3.06997 -1.70702,-4.26379 -4.29433,-3.01373 -0.60239,0.29104 -1.20859,0.52916 -1.34711,0.52916 -0.13853,0 -0.39276,0.19268 -0.56496,0.42818 -0.23273,0.31828 -0.52884,0.38079 -1.15365,0.24356 -1.98342,-0.43563 -0.24422,-2.59623 2.80293,-3.48206 1.32942,-0.38647 1.41663,-0.46164 1.25994,-1.08596 -0.41495,-1.65326 -2.00737,-2.8216 -3.83976,-2.81717 -1.31702,0.003 -4.17847,1.15354 -4.92714,1.98081 -0.24853,0.27462 -0.55746,0.49931 -0.68651,0.49931 -0.12905,0 -0.49024,0.23813 -0.80263,0.52917 -0.3124,0.29104 -0.8432,0.52916 -1.17956,0.52916 -0.51815,0 -0.61157,-0.13631 -0.61157,-0.89234 0,-0.72078 0.23272,-1.10686 1.21043,-2.00808 1.42144,-1.31024 3.67997,-2.41102 5.32794,-2.59677 l 1.17075,-0.13196 -0.9957,-1.01968 c -1.9211,-1.96739 -3.65831,-2.19563 -6.64803,-0.87343 -0.79979,0.3537 -1.61374,0.6431 -1.8088,0.6431 -0.19505,0 -0.48208,0.23812 -0.63784,0.52916 -0.15576,0.29105 -0.3787,0.52917 -0.49541,0.52917 -0.32104,0 -2.41501,2.05552 -2.41501,2.37065 0,0.15135 -0.11906,0.27518 -0.26458,0.27518 -0.14552,0 -0.26459,0.17009 -0.26459,0.37798 0,0.20789 -0.15552,0.53531 -0.34561,0.7276 -0.65229,0.65987 -1.31381,3.69597 -1.22915,5.6413 0.0443,1.01864 0.0774,2.2688 0.0735,2.77812 -0.004,0.50933 0.0899,0.98996 0.2084,1.06807 0.11852,0.0781 0.27345,0.55437 0.34429,1.05833 0.19915,1.41688 0.33371,1.92054 0.81416,3.04744 0.24478,0.57413 0.57236,1.34153 0.72796,1.70533 0.1556,0.3638 0.25681,0.86982 0.22492,1.12448 -0.0319,0.25466 0.0845,0.46302 0.25859,0.46302 0.44652,0 1.49923,1.27409 2.02215,2.4474 0.24321,0.5457 0.56882,0.99218 0.72357,0.99218 0.15476,0 0.43948,0.35719 0.63272,0.79375 0.19324,0.43657 0.4902,0.79524 0.6599,0.79705 0.1697,0.002 0.79475,0.4483 1.38899,0.99219 1.28922,1.17998 2.45976,1.87645 3.92435,2.33497 1.35924,0.42554 1.61313,0.43368 3.35962,0.10773 z m 68.36476,-6.19762 c 0.69099,-0.3786 0.70812,-0.41247 0.13229,-0.26165 -0.75801,0.19854 -1.5875,0.85721 -1.5875,1.26058 0,0.15078 0.14883,0.0855 0.33073,-0.14494 0.1819,-0.2305 0.68791,-0.61479 1.12448,-0.85399 z m -58.22921,-8.62519 c 0.353,-0.73175 0.71764,-2.0712 0.8103,-2.97656 0.16044,-1.56764 0.12303,-1.71794 -0.78474,-3.15283 -0.52427,-0.8287 -1.34916,-1.75143 -1.83309,-2.05052 -1.12019,-0.69231 -1.83525,-0.71313 -1.01587,-0.0296 0.32743,0.27315 0.59532,0.62638 0.59532,0.78495 0,0.15858 0.11051,0.28832 0.24557,0.28832 0.13506,0 0.49225,0.65931 0.79375,1.46513 0.71343,1.90681 0.71697,4.04592 0.009,5.43365 -0.29655,0.58128 -0.46812,1.17185 -0.38126,1.31238 0.36167,0.5852 0.95834,0.17433 1.56101,-1.07495 z m 44.99275,-17.74045 c 1.60474,-0.14831 3.33442,-0.30255 3.84375,-0.34276 3.46527,-0.27357 5.29166,-0.51426 5.29166,-0.69737 0,-0.11671 0.68461,-0.21549 1.52136,-0.21949 1.6771,-0.008 4.3006,-0.46975 7.73906,-1.36201 2.56368,-0.66527 2.34921,-0.61508 5.15938,-1.20731 1.16416,-0.24534 2.17912,-0.54443 2.25546,-0.66463 0.0763,-0.12021 0.61213,-0.33374 1.19063,-0.47453 1.18934,-0.28943 2.67997,-0.79108 3.36334,-1.13187 0.25268,-0.12602 0.63645,-0.22912 0.85281,-0.22912 0.21637,0 0.90259,-0.22883 1.52495,-0.50851 1.79972,-0.80878 2.9333,-1.26969 3.6451,-1.4821 0.3638,-0.10856 0.72099,-0.27872 0.79375,-0.37813 0.0728,-0.0994 0.90619,-0.55665 1.85208,-1.01609 0.94588,-0.45944 1.89838,-0.94878 2.11667,-1.08742 0.21828,-0.13864 0.57546,-0.31748 0.79375,-0.39743 0.21828,-0.0799 0.93265,-0.47691 1.5875,-0.88214 0.65484,-0.40523 1.59984,-0.97349 2.1,-1.2628 0.50015,-0.2893 1.16236,-0.76413 1.47156,-1.05517 0.30921,-0.29105 0.89718,-0.7061 1.3066,-0.92235 0.40942,-0.21626 1.51619,-1.10922 2.45948,-1.98438 0.94328,-0.87515 2.1979,-2.03767 2.78803,-2.58338 0.59012,-0.5457 1.17264,-0.99218 1.29447,-0.99218 0.12184,0 0.22152,-0.11893 0.22152,-0.26429 0,-0.14535 0.45582,-0.73396 1.01293,-1.30803 0.55711,-0.57406 1.50716,-1.79459 2.11123,-2.71228 0.60407,-0.91769 1.21982,-1.81233 1.36833,-1.98809 0.1485,-0.17576 0.27001,-0.49326 0.27001,-0.70556 0,-0.21229 0.1069,-0.42568 0.23755,-0.47419 0.29167,-0.10829 2.67287,-5.13705 2.67287,-5.64473 0,-0.20095 0.0985,-0.42623 0.21886,-0.50062 0.3634,-0.2246 1.57786,-4.92497 1.81889,-7.03971 0.0746,-0.65485 0.22722,-1.30969 0.33908,-1.45521 0.51619,-0.67153 0.86522,-6.58205 0.71915,-12.17808 -0.17999,-6.89565 -0.7956,-11.49358 -2.21307,-16.52921 -0.53547,-1.90228 -1.45191,-4.55991 -1.68789,-4.89479 -0.53183,-0.75473 -2.07331,-3.83646 -1.91899,-3.83646 0.0986,0 -0.009,-0.14883 -0.23848,-0.33073 -0.22976,-0.1819 -0.86166,-0.92604 -1.40422,-1.65365 -1.43269,-1.92132 -3.05744,-3.6042 -4.24878,-4.4008 -0.57301,-0.38315 -1.48375,-1.079 -2.02387,-1.54634 -0.89605,-0.77533 -5.29018,-3.17528 -6.53992,-3.57193 -0.49378,-0.15672 -0.50063,-0.12487 -0.13195,0.61415 0.21386,0.4287 0.56496,0.92562 0.78022,1.10427 0.21526,0.17865 0.39139,0.43427 0.39139,0.56804 0,0.13377 0.35718,1.0072 0.79375,1.94095 0.43656,0.93375 0.79375,1.91281 0.79375,2.17569 0,0.26289 0.25081,0.94595 0.55737,1.51791 0.68813,1.2839 1.28803,3.21518 1.29185,4.15885 0.002,0.38979 0.18145,0.8873 0.39973,1.10558 0.21828,0.21828 0.39688,0.62897 0.39688,0.91263 0,0.28367 0.17617,0.93738 0.39148,1.45271 0.51812,1.24003 1.4606,5.50693 1.4606,6.61257 0,0.48177 0.11205,0.98904 0.24899,1.12728 0.5521,0.55736 1.13802,8.07481 0.96843,12.42517 -0.0908,2.32997 -0.22108,4.53263 -0.28946,4.89479 -0.31535,1.67023 -0.78386,3.17202 -0.98958,3.17202 -0.12439,0 -0.19338,0.14883 -0.15331,0.33073 0.11356,0.51564 -0.63671,3.37344 -0.88566,3.37344 -0.12228,0 -0.22311,0.14883 -0.22408,0.33073 -0.003,0.49957 -2.1549,4.74832 -2.90866,5.74199 -0.93834,1.23699 -5.34574,5.72839 -5.82083,5.93177 -0.21829,0.0934 -1.11125,0.63621 -1.98438,1.20616 -2.60375,1.69966 -5.15169,2.81811 -7.2777,3.19466 -0.65575,0.11614 -1.84638,0.39655 -2.64583,0.62312 -1.62773,0.46133 -7.39856,0.64797 -9.82939,0.3179 -1.33701,-0.18154 -1.50689,-0.1509 -1.59236,0.2872 -0.0526,0.26974 0.0732,0.68872 0.27955,0.93108 0.94793,1.11319 1.73372,5.48319 1.46228,8.13223 -0.44472,4.34014 -1.74517,7.55623 -3.9449,9.75596 -0.96045,0.96045 -3.33715,2.44095 -3.91855,2.44095 -0.27348,0 -0.83056,0.23734 -1.23793,0.52742 -0.40739,0.29008 -1.37827,0.65628 -2.15751,0.81377 -0.77926,0.1575 -1.874,0.4044 -2.43276,0.54865 -3.28245,0.84746 -8.28028,1.32342 -13.13927,1.2513 -7.48946,-0.11116 -10.58181,-0.31697 -12.0385396,-0.80127 -0.43657,-0.14513 -1.26121,-0.32207 -1.83254,-0.39319 -0.57134,-0.0711 -1.52384,-0.29837 -2.11667,-0.50498 -0.59283,-0.20662 -1.31509,-0.3774 -1.60501,-0.37952 -0.28993,-0.002 -1.64397,-0.55812 -3.00898998,-1.23556 -2.70418002,-1.34205 -4.07585002,-2.59012 -5.22579002,-4.75489 -0.37673,-0.70919 -0.77401,-1.34897 -0.88285,-1.42173 -0.32697,-0.21858 -0.74467,-1.14049 -0.8991,-1.98438 -0.0799,-0.43656 -0.34214,-1.50812 -0.5828,-2.38125 -0.47571,-1.72593 -0.44357,-6.10496 0.0472,-6.43586 0.1458,-0.0983 0.38122,-0.83649 0.52316,-1.64042 l 0.25807,-1.46171 -0.93632,0.104 c -0.51498,0.0572 -1.08662,0.22474 -1.27031,0.37233 -0.19775,0.15887 -2.2484204,0.26778 -5.0270804,0.26698 -4.82102,-0.001 -7.28752,-0.33624 -9.08608,-1.23347 -0.46623,-0.23259 -1.03776,-0.42313 -1.27006,-0.42342 -0.59084,-8e-4 -5.60051,-2.47755 -6.2432,-3.08667 -0.29105,-0.27584 -0.95739,-0.76404 -1.48076,-1.0849 -1.06829,-0.65492 -5.26612,-5.00903 -5.26612,-5.46217 0,-0.16093 -0.23812,-0.44132 -0.52917,-0.62308 -0.29104,-0.18175 -0.52916,-0.56758 -0.52916,-0.85739 0,-0.28981 -0.11349,-0.52692 -0.25221,-0.52692 -0.13871,0 -0.49293,-0.50602 -0.78715,-1.12448 -0.29423,-0.61847 -0.65293,-1.30308 -0.79711,-1.52136 -0.24442,-0.37002 -1.00492,-2.09459 -1.45845,-3.30729 -0.32439,-0.86738 -1.203,-4.62567 -1.203,-5.14589 0,-0.26519 -0.17034,-0.81049 -0.37853,-1.21178 -0.20819,-0.40129 -0.41483,-1.57576 -0.4592,-2.60993 -0.15421,-3.59466 0.0121,-10.30231 0.28546,-11.51159 0.15125,-0.66915 0.34653,-1.75242 0.43395,-2.40727 0.0874,-0.65484 0.31294,-1.93037 0.50116,-2.83452 0.18821,-0.90414 0.28117,-1.70494 0.20657,-1.77954 -0.0746,-0.0746 0.0173,-0.32 0.20434,-0.54531 0.187,-0.22531 0.26453,-0.48513 0.17229,-0.57736 -0.0922,-0.0922 -0.0626,-0.29772 0.0658,-0.45663 0.1284,-0.15891 0.44286,-1.24143 0.69879,-2.40559 0.25592,-1.16417 0.70414,-2.65245 0.99603,-3.3073 0.2919,-0.65484 0.56014,-1.33235 0.59611,-1.50557 0.14195,-0.68363 0.72308,-2.28643 1.07023,-2.95177 0.20145,-0.38612 0.36701,-0.85677 0.36791,-1.0459 0.002,-0.44275 0.75766,-1.90516 1.22656,-2.37407 0.19942,-0.19941 0.36257,-0.51808 0.36257,-0.70814 0,-1.20312 2.0043,-1.07625 2.43318,0.15401 0.14543,0.41719 0.34277,0.75853 0.43853,0.75853 0.0958,0 0.336,0.36573 0.53387,0.81273 0.6481,1.46418 3.58829,4.22484 5.12723,4.81418 0.25466,0.0975 0.46302,0.29054 0.46302,0.42894 0,0.13839 0.62508,0.45564 1.38907,0.70499 0.76398,0.24935 1.50812,0.52587 1.65364,0.61448 0.14552,0.0886 1.33615,0.35886 2.64584,0.60055 1.30968,0.2417 2.88515,0.62828 3.50104,0.85908 0.61589,0.2308 1.62792,0.47526 2.24896,0.54326 0.62104,0.068 1.80638,0.29497 2.6341,0.5044 0.82772,0.20942 1.5676,0.31812 1.64419,0.24153 0.0766,-0.0766 0.53045,0.041 1.0086,0.26129 0.47814,0.2203 1.5242004,0.54813 2.3245604,0.72851 1.81326,0.40866 2.00547,0.48216 4.7625,1.82113 1.23693,0.60072 2.38165,1.09124 2.54384,1.09003 0.16218002,-0.001 0.69796002,0.3531 1.19062002,0.78734 0.49266,0.43424 1.01480998,0.79316 1.16032998,0.7976 0.2959,0.009 5.15938,4.87803 5.15938,5.16523 0,0.10062 0.34035,0.61681 0.75634,1.14707 0.41599,0.53026 0.90093,1.40894 1.07764,1.95262 0.17671,0.54367 0.43167,1.05672 0.56657,1.14009 0.13491,0.0834 0.24528,0.43124 0.24528,0.77302 0,0.34178 0.28388,1.19796 0.63083,1.90261 0.8355396,1.69693 1.2873596,3.1228 1.9989596,6.30828 0.32508,1.4552 0.69411,3.00302 0.82008,3.43958 0.12597,0.43656 0.30459,1.44859 0.39694,2.24896 0.0923,0.80036 0.28005,1.82458 0.41713,2.27603 0.67925,2.23708 0.38495,4.60313 -0.57256,4.60313 -0.28686,0 -0.72545,0.23813 -0.97464,0.52917 -0.57856,0.67571 -0.79849,0.66538 -1.40875,-0.0662 -0.7033496,-0.84311 -0.6384796,-1.10653 0.4118,-1.67214 0.50933,-0.27429 0.92605,-0.62469 0.92605,-0.77865 0,-0.15397 -0.23269,-1.58541 -0.51708,-3.18098 -0.28439,-1.59557 -0.57455,-3.47512 -0.64479,-4.17677 -0.0703,-0.70166 -0.25891,-1.43379 -0.41923,-1.62697 -0.16032,-0.19318 -0.3323296,-0.75019 -0.3822396,-1.23781 -0.0499,-0.48761 -0.22388,-1.22174 -0.38662,-1.6314 -0.16273,-0.40965 -0.29588,-1.02771 -0.29588,-1.37345 0,-0.34574 -0.10477,-0.69337 -0.23281,-0.7725 -0.12805,-0.0791 -0.43324,-0.77078 -0.67821,-1.53697 -0.5982,-1.87102 -2.51827,-5.73322 -3.25617,-6.54976 -0.32742,-0.36231 -0.59531,-0.73667 -0.59531,-0.83191 0,-0.14703 -1.14022,-1.51556 -1.78516,-2.14261 -2.05995998,-2.0028 -6.01164,-4.36551 -9.32734,-5.5768 -1.38245,-0.50503 -4.4185404,-1.34921 -6.7468704,-1.87595 -2.32834,-0.52674 -4.7851,-1.13514 -5.45947,-1.35199 -0.67437,-0.21685 -1.56974,-0.39427 -1.98969,-0.39427 -0.41996,0 -1.63778,-0.24226 -2.70626,-0.53835 -4.94553,-1.37048 -8.34732,-3.57854 -10.34979,-6.71793 -0.50932,-0.7985 -1.0451,-1.41861 -1.19062,-1.37803 -1.03495,0.28864 -4.35766,11.12722 -5.52641,18.02702 -1.7053,10.06727 -0.84387,18.21182 2.64602,25.0174 0.63833,1.24478 1.16059,2.39291 1.16059,2.55138 0,0.15848 0.1786,0.35667 0.39688,0.44044 0.21828,0.0838 0.39687,0.30816 0.39687,0.49867 0,0.19051 0.20836,0.54176 0.46303,0.78056 0.73417,0.68845 1.74474,1.83975 2.68317,3.05686 0.47686,0.61846 1.02569,1.12448 1.21961,1.12448 0.19393,0 0.39228,0.0963 0.44079,0.21401 0.16604,0.40291 2.99748,2.37293 4.45382,3.09881 0.80037,0.39893 1.53142,0.8444 1.62458,0.98994 0.0932,0.14554 0.39081,0.28547 0.66146,0.31095 0.56699,0.0534 3.53982,0.93218 3.92702,1.16085 0.14296,0.0844 0.44062,0.17008 0.66146,0.19034 0.22084,0.0203 0.9373,0.13311 1.59215,0.25078 4.40363,0.79136 13.0392104,-0.51893 14.8816604,-2.25801 0.32805,-0.30965 0.94496,-0.74544 1.37091,-0.96844 0.42594,-0.22299 1.34746002,-0.8082 2.04781002,-1.30046 0.70034,-0.49226 1.39363998,-0.89502 1.54064998,-0.89502 0.14701,0 0.2673,-0.11561 0.2673,-0.2569 0,-0.14129 0.47859,-0.4763 1.06353,-0.74445 0.58494,-0.26816 0.99182,-0.55927 0.90418,-0.64691 -0.0876,-0.0876 0.16783,-0.52654 0.56771,-0.97534 1.13603,-1.275 2.22708,-1.01606 2.22708,0.52857 0,0.63339 1.17737,0.66771 3.7041696,0.10796 2.22532,-0.49296 11.61332,-0.75913 16.85133,-0.47778 l 4.01903,0.21589 -0.55943,-0.59531 c -0.30768,-0.32743 -0.6875,-0.59733 -0.84403,-0.5998 -0.15654,-0.002 -0.85365,-0.53825 -1.54914,-1.19062 -0.69549,-0.65238 -1.32057,-1.18615 -1.38906,-1.18615 -0.0685,0 -0.34502,-0.20836 -0.6145,-0.46302 -1.07354,-1.0145 -2.22231,-1.91823 -2.43835,-1.91823 -0.12544,0 -0.35784,-0.24247 -0.51644,-0.53883 -0.36329,-0.6788 -0.077,-6.02892 0.40297,-7.53096 0.18601,-0.58208 0.41289,-2.30281 0.5042,-3.82383 0.0913,-1.52102 0.26357,-2.83071 0.38281,-2.91042 0.28487,-0.1904 0.57884,-1.21223 0.72675,-2.52616 0.0655,-0.58209 0.22314,-1.29646 0.35025,-1.5875 0.1271,-0.29105 0.42847,-1.24355 0.66971,-2.11667 0.24124,-0.87313 0.55317,-1.76609 0.69318,-1.98438 0.14001,-0.21828 0.58371,-1.05171 0.98602,-1.85208 1.20444,-2.3962 3.38462,-5.1973 4.51684,-5.80325 0.30911,-0.16543 0.56202,-0.45125 0.56202,-0.63516 0,-0.18391 0.47305,-0.6262 1.05122,-0.98288 0.57817,-0.35668 1.05442,-0.7378 1.05833,-0.84694 0.004,-0.10914 0.1312,-0.19844 0.28287,-0.19844 0.15166,0 0.41955,-0.11898 0.59531,-0.26441 1.51204,-1.25112 3.7766,-2.4327 5.30498,-2.76798 0.41365,-0.0907 1.32709,-0.44237 2.02986,-0.78139 0.70277,-0.33903 2.06244,-0.76447 3.0215,-0.94543 0.95906,-0.18097 1.80883,-0.43433 1.88837,-0.56303 0.0795,-0.1287 0.50159,-0.23401 0.93789,-0.23401 0.90839,0 3.14747,-0.50857 3.54113,-0.80431 0.14552,-0.10932 0.85989,-0.27733 1.5875,-0.37335 2.12569,-0.28051 4.38195,-0.86974 6.61458,-1.72742 1.2478,-0.47935 4.213,-1.92911 4.52304,-2.21142 2.46606,-2.24554 3.12453,-3.05935 3.99514,-4.93766 0.30352,-0.65485 0.80305,-1.41744 1.11007,-1.69466 0.67941,-0.61346 0.71299,-0.95011 0.0952,-0.95437 -0.25466,-0.002 -1.53459,-0.37177 -2.84427,-0.82227 -2.56601,-0.88262 -2.60042,-0.89155 -7.54063,-1.955778 -5.37275,-1.157409 -6.93693,-1.455232 -8.33437,-1.586888 -0.72761,-0.06855 -2.03729,-0.239488 -2.91042,-0.379863 -6.35193,-1.02123 -15.69656,-1.602009 -25.77598,-1.602009 -7.16121,0 -19.0486996,0.55368 -20.0997796,0.93618 -0.20209,0.07354 -1.69037,0.246338 -3.30728998,0.38399 -1.61692002,0.137649 -3.23752002,0.321969 -3.60132002,0.409599 -0.3638,0.08763 -1.07818,0.204784 -1.5875,0.260352 -0.50932,0.05557 -2.29526,0.352031 -3.96875,0.658813 -1.6734904,0.306779 -3.9356804,0.72096 -5.0270804,0.9204 -2.43184,0.444389 -5.41699,1.136964 -6.48229,1.503944 -0.43657,0.15039 -1.43427,0.38418 -2.21712,0.51955 -0.78285,0.13536 -1.67582,0.38194 -1.98438,0.54796 -0.30855,0.16602 -0.97772,0.38708 -1.48705,0.49124 -1.73235,0.35428 -7.27515,2.41884 -7.48762,2.78897 -0.11637,0.20272 -0.55294,0.36858 -0.97014,0.36858 -0.4172,0 -0.79824,0.0893 -0.84675,0.19855 -0.0485,0.1092 -1.45741,1.12608 -3.1309,2.25974 -1.67349,1.13366 -3.3999,2.52709 -3.83646,3.0965 -0.43656,0.56941 -0.94258,1.04081 -1.12448,1.04755 -0.1819,0.007 -0.33073,0.12281 -0.33073,0.25794 0,0.13512 -0.15717,0.40301 -0.34927,0.59531 -0.64807,0.64872 -2.98014,4.32005 -3.58714,5.64714 -0.33133,0.72439 -0.7771,1.64206 -0.9906,2.03927 -0.6581,1.22436 -1.37101,3.65276 -1.23031,4.1908 0.0735,0.28103 0.01,0.51096 -0.1413,0.51096 -0.40576,0 -0.79087,1.41631 -1.11513,4.10104 -0.15818,1.30969 -0.39164,2.41806 -0.51879,2.46305 -0.12716,0.045 -0.16471,0.49148 -0.0834,0.99219 0.10221,0.62987 0.046,0.91038 -0.18232,0.91038 -0.20655,0 -0.2842,0.2398 -0.20753,0.6409 0.0674,0.3525 0.0266,1.87054 -0.0907,3.37344 -0.42193,5.40711 -0.50616,8.22628 -0.25482,8.52913 0.13879,0.16723 0.31112,1.43172 0.38294,2.80998 0.0718,1.37826 0.18818,2.68452 0.25857,2.9028 0.0704,0.21828 0.12642,0.57547 0.12454,0.79375 -0.0146,1.68793 1.28356,7.14375 1.69974,7.14375 0.11009,0 0.20016,0.21965 0.20016,0.4881 0,0.88916 1.00903,3.56431 1.43413,3.80221 0.22988,0.12865 0.41796,0.47751 0.41796,0.77525 0,0.60271 0.7919,2.07819 1.11538,2.07819 0.11414,0 0.20753,0.23974 0.20753,0.53276 0,0.66041 0.51138,1.59665 1.12448,2.05871 0.25467,0.19192 0.46302,0.5208 0.46302,0.73083 0,0.21003 0.10032,0.38187 0.22292,0.38187 0.12261,0 0.44734,0.41672 0.72163,0.92604 0.27429,0.50932 0.65023,0.92604 0.83541,0.92604 0.18519,0 0.33671,0.17759 0.33671,0.39464 0,0.21704 0.23813,0.54334 0.52917,0.7251 0.29104,0.18176 0.52916,0.48042 0.52916,0.6637 0,0.18328 0.18467,0.33323 0.41038,0.33323 0.22571,0 0.58992,0.4297 0.80936,0.95489 0.21943,0.52519 0.63008,1.01533 0.91254,1.08919 0.28245,0.0739 0.51356,0.33473 0.51356,0.57969 0,0.58784 0.51472,1.08039 1.12901,1.08039 0.27172,0 0.89102,0.38696 1.37624,0.8599 1.50227,1.46426 1.89509,1.78594 2.1809,1.78594 0.15188,0 0.41781,0.17071 0.59097,0.37935 0.17316,0.20865 1.05095,0.7581 1.95063,1.221 0.89968,0.46291 1.87391,1.05048 2.16496,1.30572 0.29104,0.25523 0.83389,0.53579 1.20634,0.62346 0.37244,0.0877 1.08682,0.45777 1.5875,0.82245 0.94023,0.68484 1.60387,1.0342 3.75459,1.97653 0.69123,0.30286 1.76279,0.77469 2.38125,1.0485 1.5316,0.67809 2.54101,1.02254 3.63414,1.2401 0.50719,0.10095 1.16204,0.33474 1.45521,0.51954 0.29318,0.1848 1.60461,0.58668 2.9143,0.89308 1.30969,0.30639 3.27422,0.78553 4.3656204,1.06477 1.75698,0.44952 4.29745,0.85886 11.74535,1.89248 2.85728,0.39653 3.82624,0.46467 9.1482396,0.64332 2.54194,0.0853 4.64646,0.17988 4.6767,0.21012 0.14003,0.14004 7.40227,-0.12667 10.00888,-0.36758 z m -44.97187,-33.85771 c -2.34117,-0.54594 -3.3073,-0.86165 -3.3073,-1.08077 0,-0.1266 -0.26789,-0.23026 -0.59531,-0.23034 -0.55008,-1.4e-4 -3.16559,-1.45754 -4.27323,-2.3811 -2.28813,-1.90787 -4.83121,-4.87632 -5.94821,-6.94314 -1.59704,-2.95506 -3.21025,-7.74324 -3.20128,-9.50175 0.002,-0.3414 -0.013,-2.44261 -0.0327,-4.66935 -0.0323,-3.65254 0.0119,-4.0835 0.45179,-4.40518 0.43178,-0.31572 0.44649,-0.43342 0.12843,-1.02771 -0.38074,-0.71142 -0.14126,-2.24698 0.62573,-4.01225 0.18968,-0.43656 0.54765,-1.38906 0.79548,-2.11666 0.99914,-2.9333 0.87302,-2.77813 2.25815,-2.77813 0.69145,0 1.83786,0.24582 2.54758,0.54627 0.70973,0.30044 1.52853,0.64732 1.81958,0.77083 0.29104,0.12351 1.39237,0.43643 2.44739,0.69536 1.05503,0.25894 1.91823,0.57393 1.91823,0.69999 0,0.12606 0.10122,0.16664 0.22492,0.0902 0.22333,-0.13803 6.95249,1.04199 7.71258,1.35247 0.21828,0.0892 0.75406,0.20537 1.19062,0.25825 1.06214,0.12863 5.5330704,1.69503 5.6444504,1.97753 0.0485,0.12303 0.25687,0.22369 0.46302,0.22369 0.20615,0 0.37483,0.10418 0.37483,0.23151 0,0.12734 0.32742,0.29776 0.7276,0.37872 0.40018,0.081 0.99052,0.3935 1.31185,0.69453 0.32134,0.30103 0.65119,0.54733 0.73301,0.54733 0.28129,0 3.84212002,3.60671 3.84212002,3.89162 0,0.1568 0.17859,0.35363 0.39687,0.43739 0.21829,0.0838 0.39688,0.3677 0.39688,0.63096 0,0.26327 0.23812,0.68256 0.52917,0.93176 0.29104,0.2492 0.52960998,0.66261 0.53014998,0.9187 5.3e-4,0.25609 0.24017,0.8579 0.53249,1.33737 0.29233,0.47947 0.5961,1.3129 0.67504,1.85208 0.0789,0.53918 0.28045,1.39704 0.44779,1.90637 0.16734,0.50932 0.27984,1.01534 0.25001,1.12448 -0.0298,0.10914 0.048,0.19843 0.17299,0.19843 0.2296,0 0.83111,4.51965 0.83111,6.24477 0,0.86296 -0.0554,0.92775 -0.72761,0.85041 -0.60053,-0.0691 -0.75617,-0.24544 -0.89121,-1.00976 -0.09,-0.50932 -0.17928,-0.75163 -0.19843,-0.53846 -0.0192,0.21316 -0.51471,1.36983 -1.10123,2.57035 -0.90623998,1.85495 -1.01790998,2.26044 -0.74352998,2.6998 0.25677,0.41114 0.25178,0.60267 -0.0243,0.93537 -0.19098,0.23009 -0.51124,0.41836 -0.7117,0.41836 -0.20047,0 -0.36448,0.17859 -0.36448,0.39687 0,0.21828 -0.10055,0.39688 -0.22343,0.39688 -0.12289002,0 -0.56937002,0.30076 -0.99219002,0.66836 -1.07076,0.93093 -4.42718,2.72188 -6.32501,3.37495 -1.26315,0.43467 -2.3713404,0.56091 -5.4239504,0.61786 -2.11006,0.0394 -4.31271,-0.0395 -4.89479,-0.17521 z m -2.34464,-5.94117 c 0.0838,-0.21828 0.31112,-0.39688 0.50524,-0.39688 0.19413,0 0.43198,-0.12787 0.52858,-0.28415 0.25189,-0.40758 0.31957,-1.83251 0.087,-1.83251 -0.10768,0 -0.27135,-0.23813 -0.36372,-0.52917 -0.0924,-0.29104 -0.33853,-0.52917 -0.547,-0.52917 -0.20847,0 -0.37905,-0.10652 -0.37905,-0.23672 0,-0.43341 -1.9736,0.19731 -2.44739,0.78214 -0.46947,0.5795 -0.61582,1.99499 -0.26053,2.5199 0.58602,0.86582 2.6027,1.22092 2.87683,0.50656 z m 10.30652,-2.31744 c 0.0718,-0.0718 0.19659,-0.5376 0.27733,-1.03513 0.12807,-0.78917 0.0575,-0.94527 -0.55293,-1.22341 -1.23299,-0.56178 -1.85926,-0.4079 -2.20203,0.54108 -0.17083,0.47294 -0.23686,1.14131 -0.14673,1.48526 0.14824,0.56572 0.27495,0.61283 1.32884,0.49404 0.64074,-0.0722 1.22372,-0.19005 1.29552,-0.26184 z m -3.08012,-6.03886 c 0.73477,-0.15758 1.33594,-0.39571 1.33594,-0.52917 0,-0.13346 0.11904,-0.24266 0.26452,-0.24266 0.14549,0 0.91674,-0.64702 1.71389,-1.43782 1.1266304,-1.11767 1.4876704,-1.67736 1.6213804,-2.51355 0.0946,-0.59164 0.27441,-1.07571 0.39955,-1.07571 0.12515,0 0.19923,-0.65479 0.16463,-1.45508 -0.0346,-0.8003 -0.14265,-1.45514 -0.2401,-1.45521 -0.0974,-7e-5 -0.37773,-0.60393 -0.62284,-1.34191 -0.24512,-0.73798 -0.60113,-1.40144 -0.79114,-1.47435 -0.19,-0.0729 -0.4180104,-0.42161 -0.5066704,-0.77489 -0.0938,-0.37371 -0.35471,-0.64231 -0.62392,-0.64231 -0.25449,0 -0.89569,-0.29422 -1.4249,-0.65382 -1.1525,-0.78315 -3.26572,-1.14817 -5.21163,-0.90021 -1.80895,0.2305 -4.79285,2.17324 -5.44332,3.54401 -0.96239,2.0281 -1.14019,2.87202 -0.91854,4.36002 0.41302,2.77265 0.83623,3.4381 3.8629,6.07392 0.83508,0.72723 4.18573,0.99796 6.42025,0.51874 z m -19.56614,-6.01715 c 0,-0.79293 1.22499,-4.14911 2.01393,-5.51771 1.8337,-3.18097 4.45786,-5.79948 7.4539,-7.43788 l 1.34252,-0.73416 -1.71517,-0.4912 c -1.25078,-0.35821 -1.67633,-0.5924 -1.57175,-0.86496 0.0789,-0.20556 0.0382,-0.30874 -0.0903,-0.22929 -0.42065,0.25998 -3.03265,-0.37706 -4.33222,-1.05659 -0.69944,-0.36573 -1.38121,-0.59728 -1.51505,-0.51457 -0.63743,0.39396 -2.0793,6.91999 -2.28069,10.32262 -0.18663,3.15314 0.0624,7.00656 0.45284,7.00656 0.13311,0 0.24201,-0.21727 0.24201,-0.48282 z m 51.21091,-10.60744 c -0.35973,-0.56985 -0.77794,-1.11266 -0.92936,-1.20624 -0.15142,-0.0936 -0.2753,-0.46451 -0.2753,-0.82429 0,-0.35978 -0.18203,-0.724 -0.4045,-0.80937 -0.22248,-0.0854 -0.88925,-1.18296 -1.48172,-2.43909 -0.59247,-1.25613 -1.16547,-2.46246 -1.27334,-2.68075 -0.10786,-0.21828 -0.84007,-0.84026 -1.62713,-1.38219 -0.78706,-0.54193 -1.55923,-1.09291 -1.71593,-1.2244 -0.1567,-0.13149 -0.5436496,-0.3212 -0.8598896,-0.42157 -0.31625,-0.10037 -0.57499,-0.28551 -0.57499,-0.41142 0,-0.12591 -0.24988,-0.30823 -0.55529,-0.40516 -0.8048,-0.25544 -2.88429,-2.16635 -2.88429,-2.65047 0,-0.41983 1.44412,-1.97145 1.83486,-1.97145 0.18285,0 0.64847,-0.16912 1.03473,-0.37581 0.9108,-0.4874 3.1210696,-1.22506 4.1775896,-1.39424 0.68186,-0.10919 0.95262,-0.37621 1.52136,-1.50029 0.38053,-0.75211 0.69187,-1.81224 0.69187,-2.35585 0,-0.70218 0.11493,-0.98839 0.39688,-0.98839 0.21977,0 0.39687,-0.23488 0.39687,-0.52633 0,-1.43279 2.20337,-5.29452 3.02084,-5.2945 0.38863,1e-5 1.49555,1.43481 2.3474,3.0427 1.35528,2.55816 2.56926,5.41558 2.56926,6.04746 0,0.82756 0.86077,1.3766 2.43207,1.55128 0.68279,0.0759 1.43544,0.33201 1.67254,0.56911 0.23711,0.23711 0.7042,0.43111 1.03798,0.43111 0.33379,0 0.89083,0.22175 1.23788,0.49277 0.34704,0.27102 0.89888,0.5767 1.2263,0.67929 0.89903,0.28167 0.7929,1.50007 -0.21879,2.51175 -0.44775,0.44776 -0.89772,0.8141 -0.99992,0.8141 -0.1022,0 -0.35745,0.23813 -0.56723,0.52917 -0.20977,0.29104 -0.53371,0.52917 -0.71986,0.52917 -0.18616,0 -0.58896,0.25049 -0.89512,0.55664 -0.30615,0.30616 -1.21472,1.01764 -2.01905,1.58107 -1.43082,1.00229 -2.18581,1.987 -2.18779,2.85347 -5.3e-4,0.23803 -0.23867,0.82261 -0.52916,1.29907 -0.2905,0.47646 -0.52818,1.09814 -0.52818,1.38152 0,0.64703 -1.12396,3.21192 -1.86121,4.24729 -0.80607,1.13203 -1.6706,1.04345 -2.49038,-0.25516 z m 2.40656,-4.31684 c 0.34216,-0.68855 0.62211,-1.43269 0.62211,-1.65365 0,-0.22096 0.11906,-0.40175 0.26458,-0.40175 0.14553,0 0.26459,-0.33337 0.26459,-0.74083 0,-0.40746 0.10468,-0.85394 0.23262,-0.99219 0.12794,-0.13824 0.36969,-0.66807 0.53722,-1.17739 0.21525,-0.65438 0.65632,-1.13949 1.50352,-1.65365 0.65941,-0.40018 1.29218,-0.7276 1.40615,-0.7276 0.11397,0 0.42272,-0.23813 0.68611,-0.52917 0.26339,-0.29104 0.62911,-0.52917 0.81271,-0.52917 0.1836,0 0.37351,-0.10456 0.42202,-0.23237 0.0485,-0.12781 0.53014,-0.53017 1.0703,-0.89415 0.90018,-0.60656 0.94433,-0.69227 0.52917,-1.02732 -0.89527,-0.72253 -2.07237,-1.22211 -3.93249,-1.66905 -1.88395,-0.45266 -3.00275,-1.14828 -3.00275,-1.86698 0,-0.347 -0.26162,-1.03789 -1.20177,-3.17367 -0.19216,-0.43656 -0.42137,-1.03187 -0.50934,-1.32291 -0.26884,-0.88942 -1.60988,-2.27787 -2.04049,-2.11262 -0.21645,0.0831 -0.39424,0.29471 -0.3951,0.47035 -0.002,0.42319 -1.85707,5.6395 -2.39703,6.74053 -0.37543,0.76551 -0.68515,0.94409 -2.69491,1.55376 -1.2489,0.37885 -2.8935996,0.9201 -3.6548896,1.20277 l -1.38417,0.51393 0.6952,0.64429 c 0.38235,0.35435 0.83818,0.64428 1.01294,0.64428 0.17477,0 0.59232,0.23812 0.9278996,0.52916 0.33557,0.29105 0.76632,0.52917 0.95721,0.52917 0.1909,0 0.47453,0.23813 0.63029,0.52917 0.1588,0.29672 0.55399,0.52916 0.89967,0.52916 1.12155,0 1.89051,0.9774 3.83416,4.87348 2.01544,4.03996 2.62679,4.79848 3.04458,3.77745 0.13078,-0.31962 0.51773,-1.14449 0.85989,-1.83303 z m 8.6919,64.2466 c 3.38185,-0.44568 4.89511,-0.76614 7.05691,-1.49439 2.98233,-1.00468 3.79652,-1.40147 4.86876,-2.37275 0.59276,-0.53695 1.19743,-1.02297 1.34371,-1.08004 0.4821,-0.18811 2.20229,-3.41377 2.49645,-4.6813 0.15869,-0.68382 0.35141,-1.4219 0.42825,-1.64019 0.0769,-0.21828 0.18807,-1.28984 0.24716,-2.38125 0.21185,-3.91252 -1.57381,-8.44044 -3.84069,-9.73892 -2.21166,-1.26685 -6.54332,-3.26797 -8.10263,-3.74322 -3.28194,-1.00028 -8.2823,-1.41777 -14.94896,-1.24811 -3.27422,0.0833 -6.72703,0.28725 -7.67291,0.45317 -6.1870696,1.08527 -8.3209896,1.72254 -10.81674958,3.23032 -0.78323,0.47317 -1.63821002,0.9743 -1.89996002,1.11362 -0.76705,0.40826 -2.85795,3.78074 -3.34763,5.39949 -0.93423,3.0883 -0.33368,8.1288 1.26795,10.64224 0.42541,0.66758 0.77347,1.30666 0.77347,1.42018 0,0.30768 2.01124,2.26082 2.32807002,2.26082 0.15052,0 0.31335,0.0911 0.36186,0.20246 0.0485,0.11135 0.98116,0.59523 2.07256998,1.0753 1.09141,0.48006 2.17836,0.9763 2.41544,1.10274 0.86478,0.46122 8.1180296,1.58169 12.6658096,1.9566 2.23747,0.18445 9.3886,-0.0927 12.30312,-0.47677 z m -12.65202,-5.35576 c -0.0949,-0.0949 -0.99037,-0.14863 -1.98999,-0.11944 -2.12437,0.062 -6.5372296,-0.77541 -8.4015196,-1.59439 -2.42856,-1.06686 -3.45384,-1.96034 -4.35871,-3.7984 -0.79051998,-1.60577 -0.83555998,-1.85078 -0.72555998,-3.94664 0.0984,-1.87459 0.23365998,-2.41044 0.83962998,-3.32612 0.39729,-0.60035 0.92513,-1.16425 1.17297,-1.25313 0.24784,-0.0889 0.6589,-0.37559 0.91346,-0.63714 0.64331,-0.66097 3.63929,-1.50532 7.1547096,-2.01639 3.74161,-0.54394 18.98092,-0.63553 21.48662,-0.12912 1.89336,0.38266 4.33098,1.57095 4.73638,2.30891 0.15988,0.29104 0.43574,0.62226 0.61302,0.73604 0.83773,0.53769 1.26518,2.16809 1.26376,4.82021 -0.002,3.05443 -0.31845,3.89247 -2.07802,5.49686 -2.20464,2.0102 -4.82491,2.81573 -10.88963,3.3477 -3.53285,0.30988 -9.47057,0.3776 -9.73712,0.11105 z m 12.91661,-2.60506 c 1.93391,-0.2852 3.39606,-0.668 4.35787,-1.14092 1.65877,-0.81562 1.83286,-0.96189 2.42737,-2.03948 0.79245,-1.43636 0.99171,-2.69768 0.77141,-4.88297 -0.22006,-2.18293 -0.61087,-2.91739 -1.55236,-2.91739 -0.28369,0 -0.68942,-0.2615 -0.90164,-0.58111 -0.34909,-0.52577 -0.64827,-0.58938 -3.14112,-0.66787 -1.51541,-0.0477 -2.7949,-0.20273 -2.84333,-0.34447 -0.0484,-0.14175 -0.37584,-0.18549 -0.7276,-0.0972 -0.35176,0.0883 -0.63956,0.0563 -0.63956,-0.0711 0,-0.30864 -10.88711,-0.18729 -11.08809,0.12359 -0.13362,0.20669 -1.86266,0.39232 -6.3744096,0.68435 -1.04299,0.0675 -2.3806,0.40032 -2.77813,0.69123 -0.14552,0.10649 -0.71528,0.33882 -1.26614,0.51629 -0.55532,0.17891 -1.20095,0.63633 -1.44909,1.02667 -0.24615,0.3872 -0.5363,0.76852 -0.64479,0.84739 -0.39142,0.28455 -0.63559,2.2631 -0.42254,3.42382 0.38836,2.11586 2.28519,3.90568 4.95656,4.67694 0.80951,0.23371 1.53823,0.52795 1.61938,0.65387 0.0812,0.12591 1.5038796,0.29262 3.1616096,0.37046 1.65774,0.0778 3.07376,0.20123 3.14672,0.27419 0.28274,0.28274 10.62906,-0.13944 13.38788,-0.54629 z m 26.59062,-16.56683 c 2.23721,-0.31311 5.90743,-1.29232 6.04132,-1.61181 0.0485,-0.11575 0.2532,-0.21045 0.45487,-0.21045 0.39091,0 2.54249,-1.04232 2.76423,-1.33911 0.0728,-0.0974 0.40018,-0.26067 0.7276,-0.36286 0.32742,-0.10218 0.59531,-0.29682 0.59531,-0.43253 0,-0.13571 0.12426,-0.24675 0.27613,-0.24675 0.15188,0 0.59714,-0.29766 0.98949,-0.66146 0.39234,-0.3638 0.92293,-0.66146 1.17907,-0.66146 0.25615,0 0.46573,-0.13111 0.46573,-0.29135 0,-0.16024 0.52518,-0.84485 1.16706,-1.52135 1.25917,-1.32709 3.33086,-3.90099 3.33086,-4.13831 0,-0.0802 0.29409,-0.59016 0.65355,-1.13333 0.35945,-0.54317 0.96671,-1.76101 1.34947,-2.70631 0.38276,-0.9453 0.87736,-2.13544 1.0991,-2.64477 0.22174,-0.50932 0.43356,-1.16416 0.4707,-1.45521 0.0371,-0.29104 0.27158,-1.77932 0.52096,-3.30729 0.35505,-2.17535 0.42522,-3.81145 0.32341,-7.54062 -0.21878,-8.01365 -1.56241,-14.0393 -5.67771,-25.46233 -0.75352,-2.09157 -1.24069,-2.98038 -1.63358,-2.98038 -0.1009,0 -0.43644,0.44649 -0.74564,0.99219 -0.47214,0.83326 -2.47392,2.88806 -3.80956,3.91046 -0.88214,0.67525 -3.17454,1.97652 -3.48197,1.97652 -0.18699,0 -0.45309,0.10296 -0.59134,0.22879 -0.37777,0.34386 -4.8515,1.53486 -8.58573,2.2857 -8.57216,1.72359 -15.04041,4.17101 -18.52799,7.01051 -1.84991,1.50615 -3.77909,3.7331 -4.83227,5.57814 -0.44998,0.78832 -0.89817,1.49285 -0.99596,1.56561 -0.31331,0.2331 -2.28056,6.14824 -2.72784,8.20208 -0.40656,1.86682 -1.75552,12.38484 -1.75552,13.688 0,0.44494 0.15348,0.59982 0.59531,0.60076 0.32743,8e-4 1.04843,0.41742 1.60223,0.92605 0.5538,0.50862 1.09788,0.92477 1.20906,0.92477 0.11117,0 0.46095,0.29766 0.77727,0.66146 0.31632,0.3638 0.69271,0.66146 0.83642,0.66146 0.14371,0 0.336,0.29766 0.42731,0.66146 0.0913,0.3638 0.31318,0.66146 0.49306,0.66146 0.17987,0 0.67297,0.29751 1.09579,0.66113 0.42282,0.36363 0.88895,0.66128 1.03584,0.66146 0.1469,1.8e-4 0.4158,0.23845 0.59756,0.52949 0.18176,0.29104 0.5013,0.52917 0.7101,0.52917 0.20879,0 0.53702,0.20836 0.72939,0.46302 0.37433,0.49555 0.82471,0.80737 2.39222,1.65625 0.54571,0.29552 0.99219,0.65396 0.99219,0.79652 0,0.14256 0.1373,0.25921 0.30511,0.25921 0.1678,0 1.03101,0.34201 1.91823,0.76002 0.88721,0.41802 2.00007,0.8442 2.47301,0.94707 0.47295,0.10287 0.8599,0.28324 0.8599,0.40083 0,0.11759 1.16086,0.34692 2.57969,0.50963 4.45357,0.51072 5.66786,0.51052 9.32656,-0.002 z m -9.39271,-6.43992 c -0.87312,-0.20721 -2.24234,-0.63226 -3.04271,-0.94457 -0.80036,-0.3123 -1.66356,-0.6312 -1.91823,-0.70866 -0.25466,-0.0775 -0.46302,-0.2331 -0.46302,-0.34587 0,-0.11278 -0.276,-0.27432 -0.61333,-0.35898 -0.33734,-0.0847 -1.20054,-0.69026 -1.91823,-1.34577 -0.71769,-0.65551 -1.40515,-1.19445 -1.52768,-1.19766 -0.44903,-0.0118 -4.14284,-4.05744 -4.14284,-4.53748 0,-0.27249 -0.13595,-0.49544 -0.30211,-0.49544 -0.41131,0 -0.15625,-8.37872 0.26797,-8.80294 0.1643,-0.1643 0.29872,-0.67909 0.29872,-1.14398 0,-1.20471 0.95651,-4.1422 1.58459,-4.86639 0.29265,-0.33742 0.53208,-0.89666 0.53208,-1.24276 0,-0.34611 0.17859,-0.69782 0.39688,-0.78158 0.21828,-0.0838 0.39687,-0.31815 0.39687,-0.52086 0,-0.20271 0.11906,-0.36857 0.26458,-0.36857 0.14552,0 0.26459,-0.11906 0.26459,-0.26458 0,-0.14552 0.20836,-0.50125 0.46302,-0.7905 0.25466,-0.28924 0.76068,-0.88245 1.12448,-1.31823 0.3638,-0.43578 0.78408,-0.79444 0.93396,-0.79701 0.14988,-0.003 0.66092,-0.41647 1.13565,-0.91977 0.89513,-0.949 3.70405,-2.42708 6.00018,-3.15734 2.13554,-0.67918 9.43514,-2.28257 9.68595,-2.12756 0.12653,0.0782 0.61833,-0.0369 1.09289,-0.25568 0.89576,-0.41305 5.08116,-1.68491 6.35293,-1.93053 0.40018,-0.0773 0.7276,-0.24607 0.7276,-0.37508 0,-0.129 0.23284,-0.23455 0.51742,-0.23455 0.28458,0 0.96417,-0.30318 1.51021,-0.67373 1.56627,-1.0629 2.18265,-0.83047 3.18999,1.20289 1.05716,2.13392 2.48943,6.67939 3.29312,10.45105 0.45435,2.13223 0.45625,8.95668 0.003,10.24324 -0.1905,0.54056 -0.35419,1.37399 -0.36377,1.85208 -0.01,0.47809 -0.14008,1.02377 -0.29003,1.21262 -0.14994,0.18884 -0.25403,0.81793 -0.2313,1.39796 0.0282,0.72026 -0.084,1.1027 -0.354,1.2063 -0.24132,0.0926 -0.39532,0.49533 -0.39532,1.03382 0,0.48517 -0.11205,0.95138 -0.24901,1.03602 -0.13696,0.0846 -0.51525,0.68698 -0.84065,1.33853 -0.60912,1.21965 -0.9526,1.41778 -1.50325,0.86713 -0.45517,-0.45517 -0.39226,-1.21564 0.17909,-2.16481 0.27313,-0.45374 0.7074,-1.47982 0.96506,-2.28019 0.25765,-0.80036 0.55402,-1.51474 0.65861,-1.5875 0.24009,-0.16704 0.4931,-2.45381 0.69893,-6.31703 0.20805,-3.90525 -0.25297,-7.77758 -1.40569,-11.80692 -1.19409,-4.17399 -2.00752,-5.95313 -2.7218,-5.95313 -0.29909,0 -0.5438,0.11448 -0.5438,0.25439 0,0.13991 -0.50602,0.38868 -1.12448,0.55282 -0.61846,0.16414 -1.3626,0.51125 -1.65365,0.77136 -0.29104,0.26011 -0.94588,0.60528 -1.4552,0.76706 -1.91227,0.60739 -4.9183,1.34682 -5.55625,1.36674 -0.53403,0.0167 -0.43208,0.11505 0.52916,0.51063 2.45375,1.0098 3.8977,2.00022 6.02122,4.13001 1.81154,1.81689 2.38615,2.61264 3.36363,4.65816 2.02079,4.22881 2.51831,9.17626 1.35648,13.4893 -0.48904,1.81546 -1.26726,3.66203 -1.54333,3.66203 -0.11119,0 -0.20216,0.19552 -0.20216,0.4345 0,0.23897 -0.53579,1.06163 -1.19063,1.82813 -1.23152,1.44151 -1.41033,1.85337 -0.8812,2.02975 0.22924,0.0764 0.21477,0.31697 -0.0558,0.92832 -0.42568,0.96167 -2.07291,1.78735 -5.73726,2.87581 -2.91148,0.86483 -8.9722,1.13432 -11.58195,0.515 z m -0.84633,-7.27082 c 0.2472,-0.41849 0.44946,-0.95087 0.44946,-1.18308 0,-0.76881 -0.99396,-1.48053 -2.06767,-1.48053 -0.87822,0 -1.06259,0.11169 -1.41937,0.8599 -0.45575,0.95574 -0.31649,1.59061 0.54848,2.50044 0.46346,0.48749 0.6744,0.54007 1.29657,0.32318 0.40869,-0.14247 0.94532,-0.60143 1.19253,-1.01991 z m 9.15866,-1.32147 c 0.20615,-0.13049 0.37482,-0.61538 0.37482,-1.07755 0,-0.46217 -0.16867,-0.94707 -0.37482,-1.07756 -0.61272,-0.38784 -1.61439,-0.27832 -1.99089,0.21766 -0.4473,0.58925 -0.47058,1.83286 -0.0376,2.00758 0.54609,0.22036 1.62868,0.18293 2.02847,-0.0701 z m -2.01557,-6.34244 c 0.16025,-0.16025 0.54709,-0.29136 0.85965,-0.29136 0.7292,0 3.52319,-2.7702 3.71669,-3.68505 0.0792,-0.37432 0.2877,-1.15683 0.46338,-1.73891 0.70606,-2.33934 -0.8754,-5.88932 -3.3325,-7.48068 -1.73607,-1.12436 -4.1334,-1.58627 -5.92061,-1.14074 -1.35446,0.33765 -4.06774,1.59911 -4.06774,1.89118 0,0.0939 -0.27614,0.46863 -0.61363,0.83279 -1.20607,1.30137 -1.84086,3.82183 -1.49608,5.94024 0.12751,0.78344 0.41623,1.60882 0.64161,1.8342 0.22537,0.22537 0.40976,0.57985 0.40976,0.78774 0,0.20789 0.11907,0.37798 0.26459,0.37798 0.14552,0 0.26458,0.12404 0.26458,0.27564 0,0.47531 0.88199,1.21558 2.05052,1.72104 0.61846,0.26752 1.12448,0.58958 1.12448,0.71568 0,0.12611 0.0995,0.16779 0.22111,0.0926 0.12161,-0.0752 0.56809,-0.0286 0.99218,0.10343 0.9886,0.30781 4.04118,0.14502 4.42201,-0.23581 z m -110.33027,-5.11141 c 0.2854,-6.80884 1.46248,-12.49647 3.93057,-18.99245 2.13301,-5.61404 3.86967,-8.42553 7.35871,-11.91304 4.75404,-4.75195 9.83796,-7.45363 19.05848,-10.127958 16.24454,-4.711589 35.5064304,-7.095543 54.23888,-6.712894 6.59938,0.134808 13.68413,0.562417 18.12396,1.093896 10.30606,1.233712 19.33256,3.079014 25.99658,5.314521 6.69374,2.245481 13.60581,6.753325 16.61513,10.835885 0.42897,0.58196 0.96244,1.26125 1.18548,1.50954 0.22305,0.24828 0.98489,1.42537 1.69298,2.61576 3.23664,5.44117 5.3003,13.39041 5.98779,23.06504 0.28959,4.07525 0.3899,4.68399 0.75407,4.5761 0.23103,-0.0684 1.90833,-0.49499 3.727342,-0.94787 7.75405,-1.93052 14.43942,-4.25764 19.42504,-6.76168 3.1625,-1.58838 7.74453,-4.55417 8.857,-5.73282 0.37846,-0.40099 0.76379,-0.72907 0.85628,-0.72907 0.21619,0 2.38102,-2.11549 2.73729,-2.6749 0.14919,-0.23426 0.7118,-1.00817 1.25023,-1.71979 1.93892,-2.56256 3.71501,-6.65996 4.80429,-11.08343 1.36968,-5.56213 1.65015,-12.322292 0.69158,-16.668753 -0.79108,-3.587046 -2.02736,-7.276042 -2.43839,-7.276042 -0.10999,0 -0.19999,-0.178593 -0.19999,-0.396875 0,-0.218281 -0.11906,-0.396875 -0.26458,-0.396875 -0.14553,0 -0.26459,-0.113776 -0.26459,-0.252833 0,-0.947928 -3.47975,-4.736933 -6.36011,-6.925357 -1.2621,-0.958911 -2.51318,-2.15278 -2.45559,-2.343293 0.0263,-0.08704 -0.1882,-0.17603 -0.47668,-0.19776 -0.28849,-0.02172 -0.90652,-0.373869 -1.3734,-0.782529 -0.46688,-0.408659 -1.74065,-1.275125 -2.83061,-1.925476 -1.08995,-0.650354 -2.04126,-1.24809 -2.11402,-1.328303 -0.0728,-0.08021 -0.42995,-0.291383 -0.79375,-0.469268 -0.36381,-0.177882 -0.84006,-0.425421 -1.05834,-0.550082 -3.1546,-1.801638 -8.62092,-4.490627 -11.64166,-5.726768 -1.67349,-0.684819 -3.3999,-1.400551 -3.83646,-1.590514 -0.43656,-0.18996 -1.65695,-0.654743 -2.71198,-1.032851 -1.055032,-0.378106 -2.721902,-0.97835 -3.704172,-1.333878 -0.98226,-0.355529 -2.44078,-0.846379 -3.24114,-1.09078 -0.80037,-0.244401 -2.64584,-0.827794 -4.10104,-1.296429 -1.45521,-0.468635 -3.18162,-1.003623 -3.83646,-1.188863 -0.65485,-0.185242 -1.48828,-0.430731 -1.85209,-0.545533 -0.3638,-0.114803 -1.79255,-0.404771 -3.17499,-0.644375 -1.38245,-0.239601 -3.04933,-0.54493 -3.70417,-0.678508 -0.65485,-0.13358 -1.78594,-0.316931 -2.51354,-0.40745 -0.72761,-0.09052 -1.73964,-0.267496 -2.24896,-0.393287 -2.44284,-0.603324 -13.47752,-1.925309 -19.84375,-2.377334 -12.0311,-0.854255 -30.58302,-0.984472 -40.41423,-0.283676 -4.2823896,0.305263 -20.5520596,2.238883 -22.5566,2.680809 -0.65484,0.144369 -2.48073,0.498705 -4.05752,0.78741 -1.5768,0.288706 -2.96932,0.588216 -3.09449,0.665578 -0.12518,0.07736 -1.45445,0.372988 -2.95394,0.656945 -1.49949,0.283956 -3.50025,0.689017 -4.44613,0.90013 -0.94589,0.211117 -2.37464,0.524675 -3.175,0.696794 -0.80037,0.172119 -1.69334,0.405299 -1.98438,0.518181 -0.29104,0.112879 -1.00541,0.333031 -1.5875,0.489223 -0.58208,0.156194 -2.58399,0.715361 -4.44869,1.242597 -1.86469,0.527237 -3.55263,0.896342 -3.75096,0.820232 -0.19834,-0.07611 -0.49661,0.02548 -0.66283,0.225761 -0.16621,0.200279 -0.68093,0.438261 -1.14382,0.528849 -0.46289,0.09059 -1.07974,0.260157 -1.37078,0.376819 -0.29104,0.11666 -1.24354,0.421214 -2.11667,0.676783 -0.87312,0.255569 -1.82562,0.565714 -2.11666,0.689211 -0.76337,0.323916 -3.5067,1.289502 -4.89479,1.72285 -0.65485,0.204436 -1.42875,0.489778 -1.7198,0.634098 -1.11948,0.555119 -4.13745,1.590378 -4.63625,1.590378 -0.28771,0 -0.52312,0.119063 -0.52312,0.264584 0,0.14552 -0.29766,0.264583 -0.66146,0.264583 -0.3638,0 -0.66146,0.09441 -0.66146,0.209791 0,0.115387 -0.68461,0.436708 -1.52135,0.714049 -0.83675,0.277342 -2.49635,0.956839 -3.68802,1.509998 -1.19166,0.553159 -2.34549,1.005745 -2.56407,1.005745 -0.21857,0 -0.4652,0.109686 -0.54805,0.243745 -0.0829,0.134059 -0.71496,0.451895 -1.40468,0.706297 -0.68972,0.254405 -1.43263,0.599813 -1.65091,0.767575 -0.21828,0.167764 -0.90289,0.464299 -1.52135,0.658968 -0.61847,0.19467 -1.12448,0.433938 -1.12448,0.53171 0,0.09777 -1.16086,0.761407 -2.57969,1.47475 -1.41883,0.713346 -2.73702,1.447731 -2.92932,1.631971 -0.19229,0.184243 -0.57383,0.334984 -0.84786,0.334984 -0.27404,0 -0.7959,0.297656 -1.15971,0.661458 -0.3638,0.363802 -0.84546,0.661458 -1.07036,0.661458 -0.22489,0 -0.4089,0.116795 -0.4089,0.259543 0,0.142748 -0.29765,0.334249 -0.66146,0.425559 -0.3638,0.09131 -0.661453,0.272169 -0.661453,0.401915 0,0.129744 -0.178594,0.2359 -0.396875,0.2359 -0.218282,0 -0.396875,0.119062 -0.396875,0.264583 0,0.145521 -0.160142,0.264584 -0.355868,0.264584 -0.195727,0 -0.571368,0.238125 -0.834757,0.529166 -0.263389,0.291042 -0.63903,0.529167 -0.834757,0.529167 -0.195728,0 -0.355868,0.119062 -0.355868,0.264583 0,0.145521 -0.178594,0.264584 -0.396875,0.264584 -0.218281,0 -0.396875,0.09365 -0.396875,0.208108 0,0.201673 -2.503162,2.173141 -2.759226,2.173141 -0.06993,0 -0.419816,0.267891 -0.777534,0.595313 -0.357718,0.327422 -1.256099,1.122558 -1.996402,1.766972 -0.740302,0.644414 -1.346005,1.302737 -1.346005,1.462945 0,0.160208 -0.238124,0.462915 -0.529166,0.672687 -0.291042,0.209772 -0.529167,0.492707 -0.529167,0.628748 0,0.136041 -0.280009,0.61577 -0.622243,1.066069 -0.342234,0.450297 -0.835097,1.235443 -1.095252,1.744766 -0.260154,0.509323 -0.551417,0.985573 -0.64725,1.058333 -0.09583,0.07276 -0.400917,0.906198 -0.677963,1.852084 -0.277046,0.945885 -0.568977,1.779322 -0.648737,1.852083 -0.0798,0.07276 -0.1502,0.310885 -0.15654,0.529166 -0.0306,1.052997 -0.47282,3.704209 -0.61796,3.704559 -0.28995,7.9e-4 -0.0138,8.74462 0.30078,9.52461 0.088,0.21828 0.41171,1.50589 0.719262,2.86136 0.754484,3.32519 2.762221,8.76845 3.433784,9.30947 0.09032,0.0728 0.768194,0.96573 1.506396,1.98438 1.622989,2.23956 4.723716,5.31223 6.707806,6.6471 0.800365,0.53848 1.51474,1.059 1.5875,1.15671 0.320457,0.43036 7.50355,3.75366 9.71164,4.49314 3.66268,1.22663 9.21271,2.5644 13.68107,3.29766 4.86844,0.79892 5.27259,0.85544 5.47384,0.76558 0.0876,-0.0391 0.23053,-1.77162 0.31764,-3.85003 z M -5.8279816,49.473342 c 0.87313,-0.0894 1.94469,-0.221864 2.38125,-0.294373 0.43657,-0.07251 1.27,-0.178588 1.85209,-0.235728 0.58208,-0.05714 1.59411002105,-0.167536 2.24896002,-0.245324 0.65483998,-0.07779 2.20264998,-0.210862 3.43957998,-0.295722 1.23693,-0.08486 2.84427,-0.202052 3.57187,-0.260427 6.2520196,-0.501602 15.8168196,-0.995378 21.0343796,-1.085884 9.33728,-0.161965 12.64884,-0.156046 13.80067,0.02466 0.67813,0.106394 1.42268,0.08727 1.65455,-0.04249 0.37319,-0.208849 0.34038,-0.393567 -0.28578,-1.60878 -2.69127,-5.223073 -9.52763,-11.497413 -15.05146,-13.814067 -3.45789,-1.450212 -5.46538,-1.887107 -9.40412,-2.046636 -2.86461,-0.116023 -4.02361,-0.05125 -5.68854,0.317932 -2.28767,0.507265 -5.3930496,1.526475 -6.4973896,2.132494 -0.38626,0.211967 -0.89227,0.38539 -1.12448,0.38539 -0.23221,0 -0.4222,0.100314 -0.4222,0.22292 0,0.122605 -0.43306,0.450027 -0.96235,0.727604 -0.5293,0.277576 -1.3925,0.861872 -1.91823,1.298435 -1.69235,1.405309 -5.83596,5.547095 -5.84343,5.840859 -0.004,0.156533 -0.3049,0.56424 -0.6687,0.906015 -0.3638,0.341776 -0.66146,0.760794 -0.66146,0.931156 0,0.17036 -0.23812,0.525246 -0.52916,0.788636 -0.29105,0.26339 -0.52917,0.639029 -0.52917,0.834758 0,0.195725 -0.11906,0.355867 -0.26458,0.355867 -0.14552,0 -0.26459,0.229621 -0.26459,0.510267 0,0.280649 -0.16062,0.670891 -0.35694,0.867206 -0.19631,0.196319 -0.50356,0.801222 -0.68277,1.344235 -0.17921,0.543012 -0.47913,1.140587 -0.66649,1.327946 -0.18736,0.187357 -0.42764,0.614743 -0.53397,0.949743 -0.16155,0.509019 -0.11295,0.585824 0.29582,0.467471 0.26903,-0.07789 1.20352,-0.21476 2.07664,-0.304157 z"
       id="path1718" /></g></svg>
