<?xml version="1.0" encoding="UTF-8" standalone="no"?>
<!-- Created with Inkscape (http://www.inkscape.org/) -->

<svg
   width="182.09398mm"
   height="201.49286mm"
   viewBox="0 0 182.09397 201.49285"
   version="1.1"
   id="svg5"
   xml:space="preserve"
   xmlns="http://www.w3.org/2000/svg"
   xmlns:svg="http://www.w3.org/2000/svg"><defs
     id="defs2" /><g
     id="layer1"
     transform="translate(22.046941,-66.794338)"><path
       style="fill:#000000;stroke-width:0.264583"
       d="m 87.017376,267.91341 c -3.56949,-0.8671 -6.90365,-3.25226 -8.70399,-6.22658 -1.19275,-1.97053 -2.58048,-6.0677 -3.34856,-9.88634 l -0.62773,-3.12094 -0.79721,0.0782 c -0.75887,0.0745 -0.80624,0.15098 -0.98506,1.59106 -0.27845,2.24239 -1.39868,6.99961 -2.06365,8.76363 -1.43402,3.80414 -4.76455,7.06916 -8.33183,8.16797 -3.38582,1.04291 -7.33185,0.70381 -10.55035,-0.90665 -1.95602,-0.97874 -2.02914,-1.03462 -4.12132,-3.14942 -2.07914,-2.10163 -3.51881,-4.69145 -4.98328,-8.9644 -2.78366,-8.12202 -4.01138,-17.64402 -3.62953,-28.15005 l 0.18169,-4.99901 -1.14861,0.16716 c -0.63173,0.0919 -2.99407,0.24421 -5.24964,0.33838 -11.621,0.48517 -21.87098,-2.32547 -30.9562502,-8.48848 -3.84179,-2.60609 -5.27248,-3.8024 -8.74497,-7.31236 -5.5592598,-5.61925 -9.0738698,-11.0094 -11.6540598,-17.87315 -5.58754,-14.86376 -4.10065,-33.17912 3.82707,-47.14177 1.86409,-3.28312 3.13161,-4.97356 5.6640798,-7.55396 5.78589,-5.89542 13.11738,-8.73297 20.4328802,-7.90827 1.38245,0.15584 2.53303,0.26499 2.55683,0.24254 0.0238,-0.0224 -0.0592,-2.50503 -0.18437,-5.51686 -0.17884,-4.3017 -0.32394,-5.66222 -0.67659,-6.34418 -0.24691,-0.47747 -2.20405,-2.62661 -4.3492102,-4.77585 -2.14515,-2.14925 -4.11222,-4.35436 -4.37127,-4.90026 -0.6206,-1.30781 -0.55711,-3.24613 0.15448,-4.716065 0.71636,-1.479804 2.63419,-3.468578 3.8244,-3.965881 1.32716,-0.554522 3.5293102,-0.487572 4.5561302,0.138512 0.93053,0.567377 8.2241,6.747204 9.42621,7.986814 l 0.75015,0.77356 2.10745,-3.06574 c 2.99156,-4.351882 4.67124,-6.484389 7.58731,-9.632796 2.81205,-3.036114 7.71636,-7.558589 9.57473,-8.82928 0.65485,-0.44776 1.25016,-0.884573 1.32292,-0.970698 0.97806,-1.157703 6.86515,-4.786471 11.64166,-7.175854 16.60055,-8.304183 35.52082,-10.037376 53.271304,-4.879922 8.912,2.589406 18.32575,7.553163 25.84191,13.62612 3.06101,2.473249 9.52221,8.888211 9.52221,9.454062 0,0.197263 0.17729,0.426694 0.39398,0.509847 0.56948,0.21853 1.99902,2.244969 1.80507,2.558778 -0.0903,0.146081 -0.0412,0.189629 0.10903,0.09677 0.2647,-0.163595 1.51604,1.563327 3.70577,5.114153 3.49346,5.66497 6.44557,12.79543 8.27034,19.97604 1.63295,6.42578 1.96987,9.33072 1.9793,17.06562 0.009,7.34343 -0.23722,10.08371 -1.44991,16.13959 -2.00561,10.01547 -5.01049,17.29352 -10.13226,24.54104 -0.54026,0.76451 -1.24904,1.7069 -1.57504,2.09421 -3.10186,3.68515 -4.94604,5.55381 -7.6042,7.70519 -0.94589,0.76555 -1.87046,1.51432 -2.0546,1.66393 -2.95399,2.40006 -8.41958,5.47296 -13.42352,7.54705 l -2.11667,0.87734 -0.30348,3.64864 c -0.70092,8.42682 -2.9755,20.74043 -6.05012,32.7528 -2.57546,10.06217 -6.18614,19.3997 -9.52666,24.63677 -1.42437,2.23305 -4.96282,5.64026 -6.923134,6.66637 -3.31702,1.73626 -8.3541,2.38663 -11.86983,1.53259 z m 7.75223,-4.43828 c 1.93518,-0.61693 4.26905,-2.25238 5.757744,-4.03471 0.5802,-0.69465 1.20374,-1.42155 1.38565,-1.61533 0.1819,-0.19378 0.33073,-0.47397 0.33073,-0.62266 0,-0.14868 0.1586,-0.36554 0.35246,-0.48192 1.30154,-0.7813 4.97175,-10.22551 7.58827,-19.52616 0.45032,-1.60073 1.16387,-3.92245 1.58566,-5.15938 0.78088,-2.29003 1.04231,-3.87943 0.72304,-4.39601 -0.42601,-0.68931 -13.390304,-1.02795 -39.353604,-1.02795 -21.38412,0 -29.33159,0.12229 -29.99604,0.46156 -0.44949,0.22951 -0.48197,0.49968 -0.35323,2.93831 0.24738,4.6859 0.94787,11.32118 1.49855,14.19493 0.2928,1.52796 0.65629,3.43296 0.80775,4.23333 0.2558,1.35174 1.31578,4.52726 2.33962,7.00915 0.68253,1.65449 2.75291,4.67495 3.88246,5.6641 0.56482,0.4946 1.68723,1.20898 2.49423,1.5875 1.28853,0.60436 1.80573,0.68821 4.24541,0.68821 2.348,0 2.94906,-0.0899 3.8822,-0.58043 2.23586,-1.17543 3.59424,-2.87716 4.8167,-6.03416 0.93882,-2.4245 1.91993,-7.48764 1.88262,-9.71545 -0.0139,-0.83236 0.11264,-1.77121 0.28129,-2.08634 0.29034,-0.5425 0.42915,-0.56371 2.61155,-0.39896 2.2617,0.17074 2.31149,0.16171 2.65566,-0.48138 0.4867,-0.90941 1.95567,-1.58297 2.64626,-1.21338 0.82993,0.44416 1.05261,1.10271 1.58972,4.70139 0.55662,3.7294 1.52985,7.77657 2.11548,8.79725 0.20874,0.3638 0.40576,0.81899 0.43783,1.01153 0.0867,0.52055 1.69464,3.10322 2.41718,3.88245 1.36281,1.46973 3.38791,2.44274 5.61976,2.70016 0.65484,0.0755 1.23312,0.17656 1.28505,0.22453 0.22163,0.20466 2.94554,-0.2342 4.47,-0.72018 z m 18.311574,-39.64224 c 0.62007,0 0.89666,-0.78275 1.58937,-4.49792 0.31202,-1.67349 0.67706,-3.57849 0.81118,-4.23333 0.37336,-1.82291 1.26199,-8.25597 1.58983,-11.50937 0.16131,-1.60073 0.25696,-5.37743 0.21257,-8.39266 -0.0492,-3.34406 0.0204,-5.57958 0.1785,-5.73182 0.14257,-0.13726 0.49734,-0.27357 0.78839,-0.30291 1.79013,-0.18046 2.40211,0.49114 2.6442,2.90178 l 0.18763,1.86831 0.83304,-0.003 c 0.47568,-0.002 1.79782,-0.51762 3.082,-1.2022 1.23693,-0.65939 2.77815,-1.44763 3.42495,-1.75165 1.69584,-0.79711 6.606,-4.29532 8.64873,-6.16171 1.98694,-1.81543 5.28825,-5.17248 5.85643,-5.95533 1.74222,-2.40044 3.10459,-4.13183 3.48614,-4.43041 0.22653,-0.17728 0.32461,-0.3261 0.21796,-0.33073 -0.10666,-0.005 0.031,-0.40882 0.30585,-0.89821 0.27487,-0.48939 0.65979,-1.17399 0.85537,-1.52135 0.19559,-0.34736 0.41525,-0.6911 0.48815,-0.76386 0.14897,-0.14869 0.89119,-1.67766 2.05502,-4.23333 1.94869,-4.27914 4.02623,-11.93485 4.66701,-17.19792 0.56048,-4.60347 0.68023,-6.47447 0.66888,-10.45104 -0.019,-6.65133 -0.56245,-12.35881 -1.52945,-16.06204 -1.4293,-5.47366 -3.21979,-10.33589 -5.28983,-14.36503 -0.74764,-1.45521 -1.60205,-3.14641 -1.89869,-3.75822 -0.61687,-1.2723 -3.14388,-5.0853 -4.18833,-6.319756 -0.38641,-0.456705 -1.00022,-1.211749 -1.36402,-1.677874 -2.29476,-2.940184 -6.87742,-7.417096 -10.58334,-10.339127 -3.36963,-2.656875 -5.89432,-4.495649 -6.17266,-4.495649 -0.0683,0 -0.8803,-0.479999 -1.80441,-1.066663 -1.66072,-1.054285 -7.97959,-4.225004 -8.41995,-4.225004 -0.12519,0 -0.26731,-0.0893 -0.31582,-0.198437 -0.1118,-0.25155 -7.0752,-2.522879 -9.87778,-3.221942 -12.458544,-3.107614 -24.862484,-2.657806 -37.438544,1.357643 -3.82113,1.22006 -6.12843,2.178806 -10.18646,4.232756 -5.0777,2.570051 -9.50488,5.417685 -14.15521,9.104862 -1.68464,1.335733 -8.32012,7.775117 -8.01188,7.775117 0.086,0 -0.0566,0.235318 -0.31684,0.522928 -0.26029,0.28761 -0.5764,0.459177 -0.70247,0.381259 -0.12607,-0.07792 -0.22922,-0.01072 -0.22922,0.149323 0,0.160044 -1.04512,1.685118 -2.32248,3.389054 -1.27736,1.70393 -2.8496,3.91776 -3.49386,4.91961 l -1.17139,1.82155 0.0584,6.77741 c 0.0817,9.484 0.31386,14.65313 0.67486,15.02697 0.16574,0.17164 1.73009,0.92994 3.47634,1.68511 5.28291,2.28461 20.38086,10.09959 26.39758,13.66387 5.81096,3.44239 12.16427,7.83141 15.09661,10.42911 2.2393,1.98374 4.90817,4.83613 4.75575,5.08275 -0.089,0.14409 -0.0407,0.18705 0.1075,0.0955 0.14816,-0.0916 0.69237,0.33651 1.20933,0.9513 0.51697,0.6148 1.36654,1.59406 1.88794,2.17614 0.5214,0.58209 0.9481,1.15462 0.94821,1.27229 1.1e-4,0.11767 0.37228,0.67694 0.82703,1.24282 0.45475,0.56588 0.82682,1.31866 0.82682,1.67285 0,0.71852 0.83477,1.07558 3.23075,1.38192 5.44998,0.6968 10.44976,5.4979 11.64037,11.17781 0.19261,0.91888 0.3931,1.70471 0.44553,1.7463 0.0524,0.0416 1.13581,0.62786 2.407514,1.30284 1.2717,0.67497 2.78739,1.5272 3.36818,1.89384 0.5808,0.36665 1.15397,0.66662 1.27372,0.66662 0.11974,0 0.70124,0.35559 1.29222,0.7902 0.77594,0.57064 1.05711,0.9566 1.01193,1.38906 -0.0344,0.32938 -0.0778,0.79354 -0.0963,1.03146 -0.0186,0.23792 -0.34988,0.63972 -0.73624,0.89287 -0.68902,0.45147 -0.74224,0.4409 -2.77813,-0.55171 -1.1416,-0.5566 -2.07564,-1.07815 -2.07564,-1.15901 0,-0.0809 -0.33483,-0.29523 -0.74406,-0.47637 -0.40922,-0.18114 -0.974774,-0.54009 -1.256774,-0.79766 -0.28199,-0.25757 -1.19523,-0.82277 -2.02941,-1.25601 -0.83418,-0.43324 -2.0043,-1.22464 -2.60027,-1.75868 -0.99105,-0.88808 -1.09138,-1.09897 -1.17505,-2.4701 -0.0558,-0.91485 -0.35699,-2.04178 -0.77272,-2.89149 -0.92182,-1.88414 -3.40366,-4.19781 -5.63313,-5.25142 -1.62776,-0.76926 -2.03163,-0.84889 -4.31407,-0.85065 -2.31478,-0.002 -2.66118,0.0684 -4.28838,0.86907 -4.06059,1.99798 -5.99239,6.55443 -4.98168,11.75009 0.33272,1.71035 2.02218,5.50285 2.45139,5.50285 0.13198,0 0.16638,0.11907 0.0764,0.26459 -0.0899,0.14552 -0.0374,0.26458 0.11667,0.26458 0.15411,0 0.2802,0.18562 0.2802,0.41249 0,0.22687 0.10755,0.34602 0.23899,0.26479 0.13145,-0.0812 0.67569,0.51021 1.20944,1.31433 1.10987,1.6721 7.12616,7.78622 8.56907,8.70843 0.52949,0.33841 1.3199,0.93381 1.75646,1.32311 0.43656,0.38929 1.12117,0.8825 1.52135,1.096 0.40019,0.2135 0.72761,0.50419 0.72761,0.64598 0,0.14178 0.12739,0.25779 0.2831,0.25779 0.1557,0 1.13796,0.50601 2.18281,1.12448 2.52192,1.49277 3.40991,1.92301 5.56116,2.69444 2.621624,0.94011 3.133834,1.33214 3.034834,2.32277 -0.0519,0.51884 -0.34364,1.01214 -0.79878,1.35043 -0.6932,0.51524 -0.78665,0.51929 -2.805674,0.12152 -3.4436,-0.67843 -8.83386,-3.64431 -13.54287,-7.4517 -2.76142,-2.2327 -7.74847,-7.23397 -7.54373,-7.56524 0.0932,-0.15075 -0.0818,-0.36703 -0.38888,-0.48061 -0.67477,-0.24962 -3.20369,-3.35879 -4.29389,-5.27911 -0.43372,-0.76397 -0.87313,-1.4413 -0.97646,-1.50516 -0.20753,-0.12827 -0.38764,0.202 -2.51619,4.61401 -1.95602,4.05439 -4.01223,7.76775 -4.36668,7.8859 -0.15789,0.0526 -0.28708,0.26811 -0.28708,0.47883 0,0.21072 -0.1786,0.45166 -0.39688,0.53542 -0.21828,0.0838 -0.39687,0.28199 -0.39687,0.4405 0,0.3785 -1.14891,2.06269 -2.69107,3.94485 -1.73622,2.11901 -1.77768,2.16507 -3.3428,3.71395 -1.93985,1.91971 -2.09327,2.05055 -2.40459,2.05055 -0.1508,0 -0.40329,0.24126 -0.56111,0.53614 -0.63612,1.1886 -7.80263,5.27169 -10.03707,5.71858 -1.0298,0.20596 -1.27287,0.66759 -1.23437,2.34424 l 0.0304,1.32291 2.64584,-0.019 c 1.4552,-0.0105 10.92067,-0.11487 21.03437,-0.23199 20.75445,-0.24035 44.273604,0.18894 44.965354,0.82075 0.0652,0.0595 0.28325,0.045 0.48465,-0.0323 0.20141,-0.0773 0.58014,-0.14052 0.84162,-0.14052 z M 98.807476,152.62535 c -1.08957,-0.29243 -2.81598,-0.9688 -3.83646,-1.50303 -2.24073,-1.17305 -5.75028,-4.40472 -5.82064,-5.35978 -0.0261,-0.35375 -0.1874,-0.64319 -0.35853,-0.64319 -0.44446,0 -1.20387,-1.3471 -2.0317,-3.60397 -0.57166,-1.55848 -0.74227,-2.56603 -0.84586,-4.99499 -0.15148,-3.55187 0.24866,-5.69789 1.539,-8.25404 2.71743,-5.38321 6.89102,-8.30113 13.570494,-9.48765 3.43014,-0.60932 8.35959,0.51908 11.87599,2.71853 1.30188,0.8143 4.10846,3.57291 4.59865,4.52005 0.21113,0.40792 0.60566,0.96347 0.87676,1.23457 1.32628,1.32628 2.38156,5.14012 2.38156,8.60709 0,6.84216 -3.54267,12.61344 -9.54217,15.5449 -1.3687,0.66877 -3.11949,1.34405 -3.89064,1.50063 -2.24936,0.4567 -6.26524,0.32509 -8.516454,-0.27912 z m 19.575834,-8.72785 c 0,-0.14552 -0.11906,-0.191 -0.26459,-0.10107 -0.14552,0.0899 -0.26458,0.28259 -0.26458,0.42811 0,0.14552 0.11906,0.191 0.26458,0.10106 0.14553,-0.0899 0.26459,-0.28258 0.26459,-0.4281 z m -13.73672,-7.28433 c 1.62492,-0.65017 2.62422,-2.16653 2.62422,-3.98207 0,-1.59962 -0.39091,-2.52746 -1.49773,-3.55498 -1.1291,-1.04819 -2.36407,-1.57919 -3.74439,-1.60996 -1.8134,-0.0404 -3.092874,0.48191 -4.120064,1.68195 -1.58271,1.84903 -1.55586,3.98308 0.0732,5.81879 1.67919,1.89221 4.381714,2.55976 6.664774,1.64627 z M 92.321846,123.29123 c 0.0899,-0.14552 0.0374,-0.26459 -0.11668,-0.26459 -0.1541,0 -0.28019,0.11907 -0.28019,0.26459 0,0.14552 0.0525,0.26458 0.11667,0.26458 0.0642,0 0.19026,-0.11906 0.2802,-0.26458 z m -24.20937,26.01721 c -0.70004,-0.29468 -1.57501,-1.07068 -1.40214,-1.24355 0.0921,-0.0921 -0.0825,-0.16741 -0.38802,-0.16741 -0.32306,0 -0.6257,-0.22139 -0.72338,-0.52917 -0.0924,-0.29104 -0.26091,-0.52917 -0.37453,-0.52917 -0.45193,0 -1.20432,-2.27395 -1.20855,-3.65263 -0.004,-1.23361 0.0915,-1.51269 0.66344,-1.94367 0.5658,-0.42633 0.79782,-0.45793 1.51816,-0.20682 0.68591,0.23911 0.90622,0.509 1.13965,1.39612 0.64181,2.43914 1.17453,3.48185 1.76843,3.46137 0.31247,-0.0108 0.50749,0.0785 0.43337,0.19843 -0.0741,0.11992 -0.0157,0.21804 0.12984,0.21804 0.14552,0 0.33126,-0.10789 0.41275,-0.23975 0.0815,-0.13186 0.36662,-0.18262 0.63361,-0.1128 0.59241,0.15492 2.02172,-0.99408 2.58032,-2.07429 0.97584,-1.88707 2.29906,-2.33673 3.26451,-1.10936 0.3016,0.38343 0.54793,0.94898 0.54738,1.25677 -0.002,1.26213 -2.2128,3.74609 -4.1832,4.70057 -1.14166,0.55303 -4.04251,0.90108 -4.81164,0.57732 z m -18.12396,-17.5541 c -5.29713,-0.8093 -9.99938,-4.82672 -11.57069,-9.88551 -0.66909,-2.15413 -0.78969,-6.55097 -0.23675,-8.63177 0.45634,-1.71725 1.64042,-4.49791 1.91534,-4.49791 0.12914,0 0.23481,-0.15483 0.23481,-0.34406 0,-0.32376 2.45558,-3.28799 3.0383,-3.66766 0.14795,-0.0964 0.56451,-0.43198 0.92571,-0.74575 1.25568,-1.09081 3.66359,-2.39405 4.93913,-2.67322 4.63669,-1.0148 5.22714,-1.07855 7.25952,-0.7838 1.1041,0.16012 2.65023,0.52607 3.43585,0.81323 0.78561,0.28715 1.46687,0.52209 1.51389,0.52209 0.047,0 0.0128,0.1177 -0.0761,0.26156 -0.0891,0.14413 0.005,0.19747 0.21032,0.11881 0.45277,-0.17375 2.27453,0.94435 2.29014,1.40557 0.006,0.1819 0.13509,0.33073 0.2865,0.33073 0.15141,0 0.61342,0.24998 1.02667,0.55552 0.51757,0.38265 0.71915,0.73256 0.64781,1.12448 -0.057,0.31292 -0.0304,0.41285 0.0591,0.22205 0.1276,-0.2721 0.27086,-0.24899 0.6644,0.10716 0.27595,0.24973 0.50172,0.54938 0.50172,0.66588 0,0.1165 0.29596,0.64795 0.65769,1.18098 0.36173,0.53304 0.59149,1.07628 0.51057,1.20721 -0.0809,0.13092 0.0841,0.62282 0.36666,1.0931 0.69361,1.15437 0.83809,1.88423 0.85717,4.32997 0.0425,5.45178 -0.58954,7.65753 -3.1363,10.94489 -1.6815,2.17049 -4.81163,4.69293 -5.38431,4.33899 -0.17635,-0.10899 -0.23137,-0.0711 -0.13149,0.0905 0.26022,0.42104 -3.05001,1.64225 -5.21367,1.92344 -2.17055,0.28209 -3.71501,0.2803 -5.59194,-0.006 z m 6.89177,-14.71341 c 1.38615,-0.90824 2.14918,-2.9562 1.70961,-4.5886 -0.29098,-1.08064 -1.73475,-2.98105 -2.3943,-3.1516 -0.21243,-0.0549 -0.85232,-0.22322 -1.42197,-0.37396 -1.13464,-0.30026 -2.95936,0.044 -4.07014,0.76786 -1.63686,1.06672 -2.17754,3.92575 -1.09075,5.76772 1.3268,2.24876 5.02032,3.05102 7.26755,1.57858 z m -18.26885,100.20305 c 4.54238,-0.79439 7.35898,-1.91513 11.24479,-4.47436 3.13002,-2.06146 7.82911,-6.8418 10.2526,-10.42987 1.05503,-1.562 1.91823,-2.88437 1.91823,-2.93859 0,-0.0542 0.57493,-1.09794 1.27762,-2.31936 1.37219,-2.38517 3.4785,-6.68586 4.32722,-8.83537 0.28729,-0.7276 0.78084,-1.73963 1.09678,-2.24896 0.48948,-0.7891 0.57442,-1.31729 0.57442,-3.57187 v -2.64583 l -0.79375,0.0363 c -1.82709,0.0836 -5.56925,0.42422 -5.73094,0.52171 -0.0961,0.0579 -0.31214,0.96811 -0.48013,2.02262 -0.16798,1.05451 -0.36746,2.09589 -0.44328,2.31417 -0.13664,0.39338 -0.3881,3.71414 -0.38401,5.07111 0.002,0.8144 -0.57873,1.40769 -1.16035,1.1845 -0.51608,-0.19804 -0.51751,-2.06612 -0.003,-4.40353 0.31048,-1.41153 0.56642,-6.33122 0.33073,-6.35732 -0.0364,-0.004 -0.95912,-0.0709 -2.05052,-0.14863 -3.88477,-0.27662 -9.96905,-1.19507 -13.04247,-1.96883 -1.71632,-0.4321 -3.34356,-0.78563 -3.61609,-0.78563 -0.38271,0 -0.56244,0.31209 -0.78954,1.37101 -0.16172,0.75406 -0.40122,1.50018 -0.53224,1.65804 -0.13101,0.15786 -0.43312,1.41042 -0.67134,2.78346 -0.4612,2.65815 -0.5464,2.91873 -0.95427,2.91873 -0.66636,0 -0.93869,-0.64696 -0.71856,-1.70705 0.12233,-0.58909 0.34092,-1.82462 0.48576,-2.74563 0.14484,-0.92102 0.36635,-1.87352 0.49223,-2.11667 0.12589,-0.24316 0.30957,-0.99862 0.40819,-1.6788 l 0.17932,-1.23671 -2.30765,-0.7192 c -2.10349,-0.65558 -6.87457,-2.4169 -8.1698,-3.01602 -0.29104,-0.13462 -1.12448,-0.49993 -1.85208,-0.8118 -2.81326,-1.20581 -8.30207,-4.09794 -10.41574,-5.48821 -2.4064,-1.5828 -3.27331,-1.83171 -3.43097,-0.98511 -0.0542,0.29104 -0.26982,0.72262 -0.47915,0.95907 -0.20932,0.23645 -0.3564,0.5341 -0.32683,0.66146 0.0296,0.12735 -0.0894,0.5795 -0.26434,1.00478 -0.17496,0.42528 -0.25871,0.92804 -0.1861,1.11724 0.0726,0.1892 -0.0714,0.49609 -0.31993,0.68198 -0.24857,0.18588 -0.48509,0.51656 -0.5256,0.73484 -0.0405,0.21828 -0.17855,0.635 -0.30674,0.92604 -0.48009,1.08997 -0.62734,1.59797 -0.56705,1.95621 0.0341,0.20278 -0.0388,0.44091 -0.1621,0.52916 -0.30362,0.21737 -0.9811702,1.69131 -0.9099602,1.97952 0.0315,0.12735 -0.0966,0.42501 -0.28456,0.66146 -0.71534,0.89981 -1.0499,1.72025 -1.12363,2.75546 -0.0715,1.00354 -0.74422,1.92643 -1.19926,1.6452 -0.15413,-0.0953 -0.16068,-2.11867 -0.007,-2.11867 0.0284,0 0.0809,-0.5293 0.11664,-1.17621 0.0358,-0.64692 0.20357,-1.22238 0.37288,-1.27882 0.16931,-0.0564 0.30783,-0.30708 0.30783,-0.55698 0,-0.56479 0.5946,-1.87793 0.8516,-1.88072 0.10457,-0.001 0.12125,-0.18158 0.0371,-0.40098 -0.0842,-0.21941 0.0386,-0.69144 0.27284,-1.04896 0.23426,-0.35752 0.61123,-1.2198 0.83771,-1.91619 0.3882702,-1.19381 0.9107602,-2.44495 1.5231802,-3.64739 1.15715,-2.27197 1.50471,-3.02107 1.50471,-3.24319 0,-0.14076 -0.80367,-0.8622 -1.78594,-1.6032 -1.9523802,-1.47283 -3.2727902,-2.5632 -4.9362302,-4.07623 -1.13972,-1.03666 -1.7445,-1.25205 -1.7445,-0.62128 0,0.20789 -0.1699,0.54787 -0.37756,0.75553 -0.20765,0.20765 -0.63624,0.9603 -0.95241,1.67254 -0.31617,0.71225 -0.68736,1.53523 -0.82488,1.82884 -0.13752,0.29361 -0.2652,0.8294 -0.28374,1.19063 -0.0185,0.36122 -0.24253,0.8949 -0.49774,1.18594 -0.25522,0.29104 -0.54886001,0.88635 -0.65253001,1.32292 -0.10368,0.43656 -0.32032,1.03187 -0.48141,1.32291 -0.1611,0.29105 -0.30435,0.64823 -0.31833,0.79375 -0.0628,0.65411 -0.46552,1.94416 -0.92819,2.97368 -0.27721999,0.61688 -0.50404999,1.30149 -0.50404999,1.52136 0,0.21987 -0.10852,0.39976 -0.24117,0.39976 -0.13264,0 -0.20979,0.20835 -0.17144,0.46302 0.0673,0.44658 -0.44523,2.22794 -0.98439,3.42173 -0.14345,0.31761 -0.18955,0.76315 -0.10247,0.9901 0.10725,0.27948 -0.0964,0.54437 -0.63105,0.82085 -0.71377,0.36911 -0.80467,0.36843 -0.94876,-0.007 -0.1395,-0.36353 0.20073,-2.14321 0.63227,-3.30739 0.0809,-0.21828 0.19034,-0.69453 0.24317,-1.05833 0.15476,-1.06587 1.99213,-6.69577 2.38301,-7.30178 0.19685,-0.3052 0.53700999,-1.24254 0.75591999,-2.08297 0.2189,-0.84044 0.64195,-1.87065 0.9401,-2.28937 0.29815,-0.41871 0.47619,-0.7613 0.39565,-0.7613 -0.24392,0 0.91509001,-2.74383 1.37444001,-3.25384 0.23566,-0.26164 0.45537,-0.65904 0.48825,-0.8831 0.0329,-0.22406 0.2504,-0.618 0.48335,-0.87541 0.37453,-0.41385 0.37782,-0.50598 0.0285,-0.79592 -0.2173,-0.18034 -0.3848,-0.40578 -0.37222,-0.50096 0.066,-0.49941 -0.0673,-0.84873 -0.27497,-0.7204 -0.22454,0.13877 -2.81511001,-2.61811 -3.30737001,-3.5197 -0.12938,-0.23698 -0.68247999,-1.09591 -1.22910999,-1.90872 -1.97136,-2.93136 -3.02455,-5.95225 -3.26233,-9.35742 -0.10416,-1.49168 -0.004,-2.20978 0.52917,-3.79843 0.36169,-1.07744 0.61074,-2.00587 0.55344,-2.06317 -0.21578,-0.21578 -2.17871,1.98246 -4.30657,4.82283 -6.7793998,9.04943 -10.4524698,23.32958 -9.1110598,35.42195 0.56108,5.05791 1.97981,10.85238 3.54992,14.49878 2.2022,5.11437 3.61926,7.50285 6.7617198,11.39699 1.25516,1.5554 6.23604,6.40737 7.88719999,7.68308 2.00823001,1.55157 6.09071001,4.28543 6.81382001,4.56292 0.54629,0.20963 2.53153,-0.74541 2.38277,-1.14628 -0.0634,-0.17092 0.17121,-0.49851 0.5214202,-0.72798 0.35022,-0.22947 1.00198,-0.77423 1.44837,-1.21059 0.89563,-0.87551 1.36488,-0.98309 1.83215,-0.42006 0.34411,0.41462 -0.0469,0.8387 -0.50961,0.55272 -0.21618,-0.1336 -0.38411,0.22004 -0.21988,0.46302 0.16983,0.25126 -0.68323,1.25677 -1.06623,1.25677 -0.61646,0 -1.70955,1.17146 -1.8128502,1.94283 -0.0685,0.51122 0.1722502,0.71657 1.5752202,1.34382 0.91082,0.40721 2.01322,0.90245 2.44978,1.10053 1.10779,0.50264 8.28254,2.27829 9.32522,2.30786 0.94529,0.0268 1.29193,-0.30572 2.23683,-2.14574 0.74627,-1.45322 2.45743,-3.31568 2.90837,-3.16553 0.61232,0.20389 0.54069,0.99834 -0.17457,1.93609 -0.38321,0.50241 -0.62543,0.91348 -0.53827,0.91348 0.0872,0 -0.21085,0.53678 -0.66224,1.19284 -0.45138,0.65607 -0.73655,1.32901 -0.6337,1.49542 0.27821,0.45015 8.58386,0.0768 12.14461,-0.54592 z m 9.34909,-8.95572 c -0.24228,-0.0528 -0.49668,-0.24231 -0.56534,-0.42125 -0.14164,-0.36912 0.39719,-2.14459 1.15594,-3.80884 0.28124,-0.61688 0.51513,-1.27172 0.51976,-1.45521 0.027,-1.06901 1.68216,-1.72382 2.03476,-0.80497 0.2376,0.6192 -1.44665,5.36348 -2.14507,6.04231 -0.30776,0.29913 -0.75778,0.50072 -1.00005,0.44796 z m -27.06033,-6.12917 c -0.1835,-0.304 0.0791,-1.49779 0.5868,-2.66787 0.73228,-1.68755 0.91943,-2.18442 1.02393,-2.71843 0.0505,-0.25822 0.45576,-1.50837 0.90051,-2.77813 0.44476,-1.26975 0.98176,-2.96349 1.19333,-3.76385 0.21157,-0.80037 0.5495,-1.93146 0.75095,-2.51354 0.31241,-0.90266 1.68195,-5.93696 2.5912,-9.525 0.34866,-1.37588 0.94808,-3.07416 1.25539,-3.55683 0.1968,-0.30911 0.37271,-0.32279 0.92351,-0.0718 0.37422,0.1705 0.68041,0.46466 0.68041,0.65369 0,0.47909 -0.78719,1.55503 -1.02856,1.40586 -0.10924,-0.0675 -0.15073,0.20343 -0.0922,0.6021 0.0585,0.39866 -0.0289,1.37464 -0.19429,2.16884 -0.16537,0.79419 -0.3004,1.66988 -0.30006,1.94597 7.9e-4,0.60827 -0.6641,3.21994 -0.92865,3.64799 -0.10441,0.16895 -0.28131,0.73306 -0.3931,1.2536 -0.4236,1.97239 -0.80246,3.3164 -1.00966,3.58185 -0.11807,0.15125 -0.21105,0.46294 -0.20663,0.69266 0.004,0.22971 -0.23721,1.06315 -0.53694,1.85208 -0.29974,0.78893 -0.75429,2.08927 -1.01012,2.88963 -0.25583,0.80037 -0.92387,2.43605 -1.48455,3.63486 -0.56068,1.19881 -1.00484,2.27037 -0.98703,2.38125 0.095,0.59117 -0.10746,0.81433 -0.83567,0.9212 -0.44297,0.065 -0.84732,0.0488 -0.89855,-0.0361 z m 35.21783,-1.25676 c -0.37089,-0.37089 -0.10331,-1.62876 0.8349,-3.92465 0.85984,-2.10412 1.05007,-2.38125 1.63455,-2.38125 0.62166,0 0.65951,0.0796 0.62917,1.32292 -0.0339,1.38729 -0.65711,3.55336 -1.31324,4.56406 -0.36645,0.56448 -1.39782,0.80649 -1.78538,0.41892 z m -6.92945,-3.6 c -0.11779,-0.62787 0.1197,-1.96323 0.79096,-4.44742 0.5276,-1.95258 1.18983,-4.56218 1.47161,-5.7991 0.93265,-4.09409 1.02063,-4.36226 1.57995,-4.81538 1.13919,-0.92291 1.55849,-0.12624 1.07225,2.03725 -0.13081,0.58209 -0.30715,1.51298 -0.39184,2.06866 -0.267,1.75171 -0.92202,4.69299 -1.83728,8.25009 -0.88192,3.42752 -0.88789,3.43987 -1.70117,3.52138 -0.74089,0.0743 -0.83167,-0.001 -0.98448,-0.81548 z M -9.3442942,160.85381 c -0.32742,-0.1316 -0.59531,-0.30218 -0.59531,-0.37905 0,-0.74211 2.46294,-6.83368 3.96035,-9.79509 1.01073,-1.9989 2.09037,-2.92272 2.70149,-2.3116 0.38153,0.38153 0.47003,0.1263 -1.90093,5.48253 -0.90182,2.03729 -1.79625,4.21594 -1.98763,4.84145 -0.37372,1.22151 -1.07733,2.44511 -1.39032,2.41782 -0.10578,-0.009 -0.46023,-0.12445 -0.78765,-0.25606 z m 77.3961702,15.84263 2.18836,-0.2802 0.65967,-1.39441 c 0.78956,-1.669 2.9155,-3.84895 4.89895,-5.02343 l 1.44174,-0.85371 -0.0537,-1.52218 c -0.037,-1.0498 -0.29835,-2.04499 -0.84206,-3.20687 -1.40036,-2.9925 -7.11613,-8.22943 -14.18549,-12.99709 -3.56019,-2.40104 -9.60731,-6.08517 -11.44323,-6.97163 -0.61846,-0.29863 -1.12448,-0.65645 -1.12448,-0.79516 0,-0.13871 -0.1707,-0.2522 -0.37935,-0.2522 -0.38697,0 -7.77192,-3.92275 -11.03955,-5.86402 -1.01589,-0.60353 -1.73106,-1.19384 -1.63488,-1.34945 0.0966,-0.15633 0.0442,-0.19831 -0.12045,-0.0965 -0.37828,0.23379 -5.50172,-2.62378 -5.4061,-3.01522 0.046,-0.1883 -0.12912,-0.23392 -0.47572,-0.12391 -0.30168,0.0957 -0.69162,0.0621 -0.86654,-0.0749 -0.17491,-0.13692 -0.89975,-0.44269 -1.61074,-0.6795 l -1.29271,-0.43056 0.16986,5.88317 c 0.0934,3.23574 0.24391,8.2799 0.33442,11.20925 l 0.16457,5.32609 2.2812,1.12652 c 8.26799,4.08294 20.57429,7.48761 29.2749,8.0992 2.96845,0.20866 3.83026,-0.13688 3.83026,-1.53572 0,-0.85398 -0.94272,-1.92684 -4.04377,-4.60203 -1.30247,-1.12359 -1.62444,-2.11806 -0.88456,-2.73211 0.5169,-0.42898 1.1067,-0.13833 3.20854,1.58113 3.39996,2.78142 4.89479,4.69909 4.89479,6.27939 0,1.3865 -1.36645,2.83533 -3.30729,3.50668 -2.52976,0.87506 -9.17968,0.0448 -18.25625,-2.27923 -10.67391,-2.73307 -18.72876,-6.30665 -26.96982,-11.96532 -4.76411,-3.27124 -7.6381802,-6.11199 -9.1629802,-9.05673 -0.75299,-1.45421 -0.83097,-3.83939 -0.15905,-4.86487 1.00855,-1.53924 2.4137902,-2.45086 4.5418502,-2.94641 l 1.32292,-0.30807 -0.0727,-2.60553 c -0.04,-1.43305 -0.13886,-2.67206 -0.21974,-2.75335 -0.0809,-0.0813 -1.55621,-0.18732 -3.27849,-0.23561 -4.8420602,-0.13575 -7.8725102,0.90312 -10.29237021,3.52836 -1.87121999,2.03004 -2.27629999,3.21428 -2.27629999,6.65469 v 2.9515 l 1.38529999,2.73704 c 3.17524001,6.27355 9.94965001,12.74764 20.04594021,19.1573 2.48762,1.57927 9.10605,4.88595 12.64312,6.3167 7.21811,2.91976 12.46776,4.51302 18.71001,5.67846 4.42199,0.82559 4.95545,0.89077 8.86354,1.08303 3.8943,0.19158 4.979,0.15314 8.53836,-0.30261 z m 80.097054,-3.92813 c 0.0899,-0.14552 0.0374,-0.26458 -0.11667,-0.26458 -0.15411,0 -0.2802,0.11906 -0.2802,0.26458 0,0.14552 0.0525,0.26458 0.11667,0.26458 0.0642,0 0.19026,-0.11906 0.2802,-0.26458 z m -68.037774,-5.16785 c -0.20988,-0.54692 -0.35702,-0.48247 -0.35702,0.15638 0,0.29963 0.11387,0.47441 0.25303,0.3884 0.13917,-0.086 0.18596,-0.33116 0.10399,-0.54478 z m -56.39112,-19.99044 c -0.27502,-15.0092 -0.98362,-36.47641 -1.26241,-38.24552 -0.10721,-0.6803 -0.94407,-1.53859 -4.64361,-4.7625 -6.30265,-5.492342 -6.51579,-5.652434 -7.52538,-5.652434 -1.9160902,0 -2.9343802,2.774794 -1.6699402,4.550534 0.65162,0.91512 3.7809802,3.95022 6.3593902,6.16784 1.5541,1.33664 1.73887,1.59254 1.5357,2.12691 -0.16355,0.43017 -0.12136,0.69844 0.14457,0.91914 0.20654,0.17141 0.43667,0.68665 0.5114,1.14497 0.0747,0.45832 0.31971,8.38756 0.54441,17.62054 0.22469,9.23298 0.43459,16.80256 0.46644,16.8213 0.8157,0.48 2.57145,1.86113 2.57145,2.02278 0,0.12085 0.14883,0.22659 0.33073,0.23498 0.1819,0.008 0.74745,0.29876 1.25677,0.64526 0.50933,0.34651 1.04511,0.59724 1.19063,0.55719 0.16597,-0.0457 0.23673,-1.59281 0.18985,-4.15099 z m -9.40006,-6.09757 c -0.0904,-2.20207 -0.20489,-4.04431 -0.25445,-4.09387 -0.21834,-0.21834 -2.23233,0.52656 -2.77232,1.02538 -0.84935,0.78459 -0.80932,2.44443 0.0915,3.7942 0.66424,0.99527 2.74036,3.27807 2.98128,3.27807 0.0651,0 0.0444,-1.8017 -0.046,-4.00378 z"
       id="path1642" /></g></svg>
