<?xml version="1.0" encoding="UTF-8" standalone="no"?>
<!-- Created with Inkscape (http://www.inkscape.org/) -->

<svg
   width="187.33366mm"
   height="229.89131mm"
   viewBox="0 0 187.33367 229.89129"
   version="1.1"
   id="svg5"
   xml:space="preserve"
   xmlns="http://www.w3.org/2000/svg"
   xmlns:svg="http://www.w3.org/2000/svg"><defs
     id="defs2" /><g
     id="layer1"
     transform="translate(30.933034,-45.507569)"><path
       style="fill:#000000;stroke-width:0.264583"
       d="m 100.76742,275.26091 c -1.629584,-0.33367 -2.248954,-0.4784 -2.248954,-0.52551 0,-0.0219 -0.28468,-0.0924 -0.63261,-0.15657 -1.35511,-0.2499 -4.52677,-2.29447 -4.52677,-2.91812 0,-0.20101 -0.0999,-0.33571 -0.22198,-0.29933 -0.3275,0.0976 -1.72833,-1.64365 -1.82337,-2.26645 -0.045,-0.29496 -0.18852,-0.66483 -0.31891,-0.82193 -0.19733,-0.23777 -1.1951,-4.78655 -1.4554,-6.63506 -0.0802,-0.56976 -0.54952,-2.381 -0.97648,-3.76877 -0.14524,-0.47209 -0.18684,-0.98332 -0.0924,-1.13607 0.0944,-0.15274 0.0277,-0.45109 -0.14812,-0.663 -0.17587,-0.2119 -0.24739,-0.38528 -0.15893,-0.38528 0.0884,0 -0.0843,-0.62184 -0.38385,-1.38186 -0.29957,-0.76002 -0.55164,-1.74229 -0.56014,-2.18281 -0.008,-0.44053 -0.12786,-0.94307 -0.26522,-1.11676 -0.13737,-0.17369 -0.41015,-0.88807 -0.60617,-1.5875 -0.6156,-2.19654 -1.4515,-4.35919 -2.70555,-6.99986 l -1.21249,-2.55316 -3.72975,0.12676 c -2.05136,0.0697 -3.8667,0.16856 -4.0341,0.21964 -0.1674,0.0511 -0.38808,0.60718 -0.4904,1.23577 -0.10232,0.6286 -0.34113,1.50009 -0.5307,1.93665 -0.18956,0.43657 -0.35188,0.97235 -0.36071,1.19063 -0.0179,0.4433 -0.0652,0.76399 -0.85865,5.82083 -0.30823,1.96453 -0.61661,4.34539 -0.6853,5.2908 -0.0687,0.94541 -0.20581,1.77884 -0.30471,1.85208 -0.0989,0.0732 -0.21189,1.07481 -0.25108,2.2257 -0.0392,1.1509 -0.13538,2.19629 -0.21375,2.32311 -0.0784,0.12681 -0.20084,1.20674 -0.27214,2.39984 -0.0713,1.1931 -0.25089,2.31537 -0.39909,2.49395 -0.1482,0.17857 -0.18943,0.45417 -0.0916,0.61244 0.0978,0.15827 0.034,0.46114 -0.14191,0.67305 -0.17587,0.2119 -0.22826,0.38528 -0.11643,0.38528 0.11182,0 -0.0904,0.27224 -0.44946,0.60497 -0.35902,0.33274 -0.61038,0.73216 -0.55857,0.8876 0.11507,0.34518 -1.58584,1.68243 -2.13994,1.68243 -0.21941,0 -0.47704,0.12641 -0.57253,0.2809 -0.50916,0.82386 -5.88186,2.06706 -10.18288,2.35626 -5.96055,0.40079 -13.34326,-0.44059 -14.80775,-1.68758 -0.2196,-0.18699 -0.59154,-0.4077 -0.82654,-0.49046 -0.64211,-0.22615 -2.25138,-2.3338 -2.47177,-3.23724 -0.37567,-1.54005 -0.41513,-2.56378 -0.13842,-3.59141 0.15385,-0.57134 0.40122,-1.0388 0.54972,-1.0388 0.1485,0 0.2027,-0.1089 0.12045,-0.24199 -0.0823,-0.13309 -0.0595,-0.28192 0.0505,-0.33073 0.11005,-0.0488 0.52728,-0.59186 0.92719,-1.20679 0.39991,-0.61493 1.0504,-1.32931 1.44553,-1.5875 0.39514,-0.2582 1.01549,-0.74422 1.37856,-1.08006 0.54941,-0.5082 0.60622,-0.68571 0.33872,-1.05833 -0.17677,-0.24625 -0.39453,-0.62632 -0.4839,-0.8446 -0.0894,-0.21828 -0.38375,-0.87576 -0.65419,-1.46107 -0.42505,-0.91994 -1.71331,-6.12519 -1.79931,-7.27018 -0.0164,-0.21828 -0.18204,-1.34938 -0.3681,-2.51354 l -0.33829,-2.11667 -1.97514,-0.17656 c -1.08634,-0.0971 -3.52296,-0.61738 -5.41473,-1.15617 -1.89178,-0.53879 -4.51115,-1.27373 -5.82084,-1.63319 -1.30968,-0.35947 -2.51126,-0.76089 -2.67017,-0.89205 -0.15891,-0.13116 -0.34306,-0.18435 -0.40923,-0.11819 -0.0662,0.0662 -0.71005,-0.0619 -1.43086,-0.28449 -0.72081,-0.22263 -2.20354,-0.63578 -3.29495,-0.91809 -1.0914,-0.28232 -2.16296,-0.58993 -2.38125,-0.68359 -0.21828,-0.0937 -0.62737,-0.21457 -0.90908,-0.26868 -1.44717,-0.27799 -6.3788802,-1.79527 -6.4557002,-1.98615 -0.0488,-0.12128 -0.17905,-0.1647 -0.28941,-0.0965 -0.25057,0.15486 -1.99359,-0.29425 -3.10142,-0.7991 -0.45855,-0.20898 -1.03306,-0.37996 -1.27668,-0.37996 -0.60019,0 -8.52692,-2.08495 -9.57581,-2.5187 -0.46108,-0.19068 -0.89964,-0.28536 -0.97459,-0.21041 -0.0749,0.075 -0.28763,0.0427 -0.47263,-0.0716 -0.185,-0.11433 -0.69894,-0.24555 -1.14208,-0.29159 -0.44315,-0.046 -1.10338,-0.19104 -1.4671798,-0.32223 -0.3638,-0.13119 -1.6727,-0.44486 -2.90867,-0.69705 -2.24981,-0.45904 -3.34839,-0.94731 -3.83138,-1.70288 -0.45522,-0.71211 -2.38927,-10.34598 -2.59686,-12.9354 -0.0603,-0.75253 -0.18686,-1.44542 -0.28118,-1.53974 -0.0943,-0.0943 -0.17433,-0.59813 -0.1778,-1.11958 -0.003,-0.52145 -0.11147,-1.40111 -0.24,-1.95481 -0.12853,-0.55371 -0.49112,-3.35167 -0.80576,-6.21771 -0.31464,-2.86604 -0.61863,-5.45098 -0.67553,-5.74432 -0.0889,-0.45834 -0.39182,-0.64835 -1.97657,-1.2398 -0.31754,-0.11851 -0.72933,-0.62283 -0.63551,-0.77833 0.0565,-0.0936 -0.19193,-0.24416 -0.55203,-0.33453 -0.83783,-0.21029 -2.67827,-2.99773 -2.91863,-4.42043 -0.0969,-0.5738 -0.0357,-1.62914 0.13606,-2.34519 0.30414,-1.26779 0.29074,-1.32877 -0.51126,-2.32675 -0.45297,-0.56366 -0.875,-1.43116 -0.93785,-1.92778 -0.0628,-0.49661 -0.23846,-0.94433 -0.39023,-0.99492 -0.35636,-0.11879 -0.36234,-2.16456 -0.006,-2.16456 0.15953,0 0.19779,-0.2862 0.0937,-0.70092 -0.11375,-0.45321 -0.0795,-0.64131 0.097,-0.53225 0.15062,0.0931 0.32847,-0.12192 0.39689,-0.47982 0.0858,-0.44873 -0.0679,-0.82876 -0.49892,-1.23367 -0.34258,-0.32184 -0.62288,-0.743 -0.62288,-0.93592 0,-0.19291 -0.12609,-0.35075 -0.28019,-0.35075 -0.15411,0 -0.2117,-0.11084 -0.12798,-0.2463 0.0837,-0.13547 0.0312,-0.32109 -0.11668,-0.41249 -0.36493,-0.22554 -0.34132,-3.54452 0.0331,-4.65954 0.16613,-0.49466 0.46405,-1.08764 0.66204,-1.31772 0.19799,-0.23009 0.30627,-0.47207 0.24061,-0.53773 -0.0657,-0.0657 0.53717,-0.82482 1.33962,-1.68703 l 1.459,-1.56767 -0.18053,-1.3342 c -0.0993,-0.73381 -0.23187,-1.57232 -0.29461,-1.86336 -0.0627,-0.29104 -0.1638,-0.86899 -0.22455,-1.28433 -0.0608,-0.41535 -0.19335,-1.01066 -0.29466,-1.32292 -0.10131,-0.31226 -0.21508,-0.86541 -0.25282,-1.22921 -0.0779,-0.75126 -0.3013,-1.93711 -0.54819,-2.91042 -0.29313,-1.15554 -0.38157,-1.70217 -0.38526,-2.38125 -0.002,-0.3638 -0.22532,-1.43536 -0.4963,-2.38125 -0.27098,-0.94588 -0.56573,-2.3151 -0.655,-3.0427 -0.0893,-0.72761 -0.21413,-1.50151 -0.27747,-1.7198 -0.0633,-0.21828 -0.16604,-0.81359 -0.22824,-1.32291 -0.0622,-0.50933 -0.19627,-1.36483 -0.29792,-1.90113 -0.1493,-0.78768 -0.0781,-1.08967 0.37058,-1.57125 0.30547,-0.32788 0.5554,-0.79107 0.5554,-1.02931 0,-0.23824 0.29403,-0.70937 0.65339,-1.04698 0.58701,-0.55147 0.81708,-0.59671 2.26481,-0.44539 l 1.61143,0.16842 -0.17365,-1.15796 c -0.19797,-1.32011 0.20122,-2.33355 0.88624,-2.24996 0.24548,0.03 0.64538,-0.0325 0.88867,-0.13886 0.24329,-0.10633 0.71385,-0.048 1.04569,0.12957 0.44843,0.23999 0.62937,0.2448 0.70473,0.0187 0.0558,-0.1673 0.22868,-0.2255 0.38426,-0.12935 0.15863,0.098 0.20643,0.0511 0.10883,-0.10677 -0.0957,-0.15487 -0.0985,-0.47853 -0.006,-0.71924 0.3035,-0.79089 1.95253,-0.34935 3.23957,0.86741 0.23306,0.22034 0.80774,0.30526 1.58854,0.23475 1.02426,-0.0925 1.54962,0.0559 3.22777,0.91155 1.10242,0.56211 2.09319,1.02202 2.20171,1.02202 0.34822,0 0.93465,0.72418 0.74224,0.9166 -0.10222,0.10221 -0.0668,0.16181 0.0787,0.13245 0.14552,-0.0294 0.38365,-0.0256 0.5291698,0.008 0.14552,0.034 0.38364,0.0854 0.52916,0.11421 0.99977,0.19785 3.04271,1.34451 3.04271,1.70782 0,0.26517 0.2514,0.44869 0.66146,0.48286 1.21936,0.10161 1.45521,0.16415 1.45521,0.38585 0,0.12127 0.17859,0.22049 0.39687,0.22049 0.21828,0 0.39688,0.12609 0.39688,0.2802 0,0.15411 0.10946,0.21254 0.24325,0.12986 0.13379,-0.0827 0.41727,0.0237 0.62996,0.23636 0.21269,0.21269 0.46042,0.31301 0.5505,0.22292 0.0901,-0.0901 0.16379,-0.0179 0.16379,0.16051 0,0.17836 0.10408,0.25997 0.23129,0.18134 0.12722,-0.0786 0.55007,0.15248 0.93967999,0.51356 0.38961,0.36107 0.79757,0.6565 0.90658,0.6565 0.37323,0 1.62248001,0.66124 1.62455001,0.85989 10e-4,0.10914 0.17564,0.19844 0.3878,0.19844 0.21215,0 0.85509,0.44649 1.42874,0.99219 0.57365,0.5457 1.20374,1.0082 1.4002,1.02778 0.70598,0.0703 1.54782,0.42753 1.54782,0.65672 0,0.12855 0.1786,0.23373 0.39688,0.23373 0.21828,0 0.39687,0.10615 0.39687,0.2359 0,0.12974 0.2679,0.30526 0.59532,0.39004 0.32742,0.0848 0.94125,0.45486 1.36407,0.82243 0.42281,0.36756 0.9288302,0.66829 1.1244802,0.66829 0.19564,0 0.35572,0.09 0.35572,0.2 0,0.11 0.3648,0.36147 0.81067,0.55883 0.48948,0.21667 0.75689,0.49899 0.67493,0.71257 -0.0848,0.2209 0.002,0.30103 0.23004,0.21338 0.20118,-0.0772 1.05832,0.3311 1.90475,0.90734 0.84644,0.57624 2.61054,1.73074 3.92023,2.56556 1.30969,0.83482 2.67891,1.7396 3.04271,2.01062 0.3638,0.27101 1.04841,0.68759 1.52135,0.92571 0.47295,0.23812 0.8599,0.54548 0.8599,0.68301 0,0.13752 0.10557,0.1848 0.2346,0.10505 0.12904,-0.0797 0.38264,0.0334 0.56356,0.25137 0.18092,0.21799 0.78972,0.65533 1.35289,0.97185 0.56317,0.31652 1.02395,0.65637 1.02395,0.75523 0,0.0988 0.21774,0.16622 0.48387,0.14971 0.26613,-0.0165 1.01729,-0.68486 1.66925,-1.48523 1.3483,-1.65521 4.41087,-4.31405 5.54982,-4.8182 0.42005,-0.18593 0.76373,-0.43508 0.76373,-0.55367 0,-0.11858 0.10889,-0.14831 0.24198,-0.066 0.13309,0.0822 0.28192,0.0595 0.33073,-0.0505 0.0488,-0.11005 0.74359,-0.54575 1.54395,-0.96823 0.80037,-0.42247 1.49871,-0.80332 1.55188,-0.84632 0.16245,-0.13138 -1.39838,-1.41096 -1.73197,-1.41989 -1.13889,-0.0305 -9.09588,-6.23534 -8.88514,-6.92863 0.029,-0.0954 -0.50908,-0.62795 -1.19572,-1.1835 -0.68663,-0.55555 -1.42419,-1.25142 -1.63902,-1.54639 -0.21483,-0.29496 -0.64016,-0.77442 -0.94517,-1.06546 -0.67927,-0.64815 -2.50606,-3.17518 -3.01244,-4.16719 -0.20428,-0.40018 -0.47036,-0.7276 -0.59129,-0.7276 -0.12094,0 -0.21988,-0.23221 -0.21988,-0.51602 0,-0.28381 -0.16234,-0.61123 -0.36075,-0.72761 -0.34062,-0.19977 -1.97753,-3.28025 -3.13523,-5.90012 -0.28936,-0.65485 -0.63318,-1.39737 -0.76403,-1.65006 -0.13085,-0.25268 -0.23791,-0.67681 -0.23791,-0.94249 0,-0.26568 -0.23812,-0.97592 -0.52916,-1.57831 -0.29104,-0.60238 -0.52917,-1.22597 -0.52917,-1.38575 0,-0.15978 -0.18702,-0.65216 -0.4156,-1.09419 -0.46012,-0.88978 -1.45407,-4.4617 -1.24154,-4.4617 0.0739,0 -0.009,-0.17338 -0.18532,-0.38529 -0.17587,-0.2119 -0.24804,-0.50133 -0.16038,-0.64317 0.0877,-0.14184 0.0464,-0.32773 -0.0917,-0.41308 -0.27397,-0.16932 -0.78832,-2.398 -0.96509,-4.18171 -0.0612,-0.618 -0.25127,-1.89753 -0.42228,-2.84342 -0.4046,-2.23788 -0.42036,-13.521653 -0.0209,-14.948958 0.16292,-0.582083 0.36943,-1.76843 0.4589,-2.636324 0.0895,-0.867894 0.26143,-1.701332 0.38211,-1.852083 0.23818,-0.297511 0.637,-1.80562 0.70222,-2.655343 0.0223,-0.291041 0.0738,-0.648229 0.11435,-0.79375 0.0405,-0.145521 0.091,-0.383646 0.1121,-0.529166 0.1043,-0.719093 1.04527,-3.341516 1.24281,-3.463602 0.12415,-0.07673 0.22572,-0.421627 0.22572,-0.766448 0,-0.344818 0.17271,-0.799661 0.38381,-1.010756 0.2111,-0.211098 0.46569,-0.725617 0.56575,-1.143378 0.10006,-0.417761 0.25142,-0.878628 0.33635,-1.024149 0.0849,-0.145521 0.17962,-0.431258 0.21041,-0.634971 0.0308,-0.203713 0.21274,-0.469781 0.40432,-0.591262 0.19157,-0.121481 0.25544,-0.222697 0.14192,-0.224925 -0.27581,-0.0054 1.34966,-2.962629 1.84491,-3.356448 0.2142,-0.170328 0.71868,-1.003766 1.12106,-1.852083 0.79361,-1.673112 3.60975,-5.542854 4.47895,-6.15465 0.29609,-0.20841 0.49081,-0.455835 0.43272,-0.549834 -0.20381,-0.329771 5.36627,-5.56878 8.20376,-7.716149 0.14552,-0.110127 0.6813,-0.546182 1.19062,-0.96901 1.31491,-1.091596 4.25156,-2.953792 4.65809,-2.953792 0.18849,0 0.44862,-0.189262 0.57808,-0.420582 0.12945,-0.23132 0.2842,-0.38963 0.34387,-0.3518 0.0597,0.03783 0.63159,-0.261419 1.2709,-0.664999 2.16112,-1.364257 7.5252,-3.809886 8.01849,-3.655848 0.11651,0.03638 0.21183,-0.04918 0.21183,-0.190135 0,-0.140951 0.17859,-0.187746 0.39687,-0.103984 0.21829,0.08376 0.39688,0.02996 0.39688,-0.119573 0,-0.245041 1.32573,-0.680879 1.75195,-0.575953 0.0953,0.02347 0.2461,-0.06707 0.33514,-0.201189 0.22661,-0.341376 1.89304,-0.883886 2.17664,-0.708612 0.1288,0.07961 0.23419,0.0059 0.23419,-0.163767 0,-0.169677 0.16695,-0.24444 0.371,-0.166137 0.20406,0.0783 0.4521,0.06127 0.55122,-0.03784 0.0991,-0.09912 0.25958,-0.190489 0.35659,-0.20306 0.097,-0.01257 0.35499,-0.09856 0.57327,-0.191087 0.75607,-0.320498 6.03058,-1.505852 6.70065,-1.505852 0.3702,0 1.51416,-0.176924 2.54213,-0.393165 5.34533,-1.124425 18.56766,-0.981367 24.75618,0.267848 2.57575,0.519943 6.38582,1.572693 6.53405,1.805405 0.10122,0.15893 0.25905,0.213958 0.35072,0.122288 0.20148,-0.201483 3.195554,0.774382 4.029294,1.313278 0.32742,0.211634 0.59531,0.296986 0.59531,0.189671 0,-0.107315 0.14883,-0.0716 0.33073,0.07936 0.1819,0.150963 0.44979,0.289809 0.59531,0.308541 0.7914,0.101878 1.45521,0.361336 1.45521,0.568788 0,0.129744 0.16734,0.2359 0.37187,0.2359 0.20453,0 0.82961,0.224285 1.38906,0.498414 0.55946,0.274127 1.31485,0.637135 1.67865,0.806688 1.3545,0.631272 2.11667,1.111668 2.11667,1.334146 0,0.126018 0.36523,0.309343 0.81163,0.407387 0.44639,0.09804 0.86824,0.325786 0.93742,0.506092 0.0692,0.180306 0.27142,0.327829 0.4494,0.327829 0.40365,0 3.94301,2.437067 4.23084,2.913192 0.11637,0.192501 0.36759,0.350002 0.55826,0.350002 0.19066,0 0.57019,0.297656 0.8434,0.661458 0.2732,0.363802 0.62951,0.661458 0.79181,0.661458 0.16229,0 0.96578,0.714375 1.78553,1.5875 0.81975,0.873125 1.61121,1.5875 1.75879,1.5875 0.14759,0 0.26834,0.121616 0.26834,0.270259 0,0.148643 0.62507,0.920676 1.38906,1.715627 1.71274,1.782167 2.11203,2.247447 1.92866,2.247447 -0.0785,0 0.0431,0.20836 0.27014,0.463021 1.67962,1.883659 2.23297,2.589877 2.23297,2.849854 0,0.164478 0.29399,0.575238 0.6533,0.912799 0.35932,0.337561 0.60077,0.698751 0.53656,0.802648 -0.0642,0.103896 0.2338,0.652134 0.66225,1.218311 0.42845,0.566174 0.78231,1.16002 0.78636,1.319654 0.004,0.159634 0.24873,0.568545 0.54373,0.908688 0.29501,0.340143 0.61171,0.923906 0.70379,1.297254 0.0921,0.373346 0.44602,1.122932 0.78655,1.665743 0.34052,0.542811 0.61913,1.148045 0.61913,1.344964 0,0.196919 0.0766,0.434671 0.17029,0.528333 0.4932,0.493199 2.05535,5.012634 3.12678,9.046022 0.31486,1.185296 1.00597,5.322287 1.23761,7.408333 0.17252,1.553662 0.0738,11.937572 -0.1308,13.758342 -0.70055,6.23429 -3.24523,14.584 -5.78912,18.9955 -0.40229,0.69762 -0.73143,1.32654 -0.73143,1.39759 0,0.14247 -2.40654,3.86924 -2.63519,4.08086 -0.0786,0.0728 -0.43577,0.54902 -0.79368,1.05834 -1.49846,2.1324 -7.04787,7.9026 -7.92515,8.24047 -1.0866,0.41847 -0.29375,0.6837 3.01964,1.01013 1.74625,0.17205 3.71079,0.49183 4.36563,0.71065 0.65484,0.21881 1.48828,0.44209 1.85208,0.49619 0.8141,0.12105 3.78722,1.19733 3.96875,1.43671 0.0728,0.0959 0.54901,0.34014 1.05834,0.54267 1.85125,0.73614 4.48343,2.64961 6.79098,4.93673 2.3964,2.37519 2.88383,2.99521 4.02192,5.11603 0.3514,0.65484 0.71265,1.25016 0.80276,1.32292 0.0901,0.0728 0.44998,0.75553 0.7997,1.51727 0.34972,0.76174 0.83827,1.44923 1.08568,1.52775 0.47062,0.14937 2.63854,2.57847 2.63854,2.95643 0,0.11989 0.36217,0.55981 0.80483,0.97761 0.44266,0.4178 0.76129,0.89028 0.70806,1.04996 -0.0532,0.15967 0.18762,0.57471 0.53521,0.9223 0.34759,0.34758 0.56994,0.79364 0.49412,0.99123 -0.0758,0.19759 -0.0107,0.43784 0.14471,0.53389 0.68255,0.42184 1.92047,3.92955 2.79229,7.9121 0.57107,2.60866 0.54286,9.18056 -0.05,11.64166 -0.24537,1.01865 -0.43757,2.11998 -0.42711,2.4474 0.0104,0.32742 -0.11145,0.59531 -0.27091,0.59531 -0.15946,0 -0.21867,0.1857 -0.13158,0.41266 0.29471,0.76799 -2.97511,8.31859 -3.60239,8.31859 -0.11193,0 -0.20351,0.15716 -0.20351,0.34925 0,0.19209 -0.39439,0.81717 -0.87643,1.38906 -0.48203,0.5719 -1.07963,1.33747 -1.32801,1.70127 -0.24837,0.36381 -0.59812,0.66687 -0.77722,0.67349 -0.1791,0.007 -0.29245,0.1657 -0.25189,0.35351 0.0405,0.18782 -0.16781,0.40465 -0.46302,0.48185 -0.29522,0.0772 -0.53676,0.29074 -0.53676,0.47452 0,0.33837 -2.15278,2.24092 -2.55808,2.26072 -0.12102,0.006 -0.63227,0.3631 -1.1361,0.79375 -0.50382,0.43065 -1.06937,0.783 -1.25677,0.783 -0.1874,0 -0.34072,0.1389 -0.34072,0.30868 0,0.16977 -0.0737,0.23497 -0.16379,0.14489 -0.0901,-0.0901 -0.33672,0.009 -0.54807,0.22049 -0.21135,0.21135 -0.69327,0.38427 -1.07093,0.38427 -0.37766,0 -0.60781,0.0788 -0.51144,0.17522 0.24609,0.24609 -1.68225,1.07181 -4.23632,1.81399 -3.19498,0.92843 -7.11162,1.3059 -10.01039,0.96477 -3.9891,-0.46944 -5.79326,-0.80082 -7.00698,-1.287 -1.17287,-0.46982 -1.53733,-0.24929 -1.34343,0.81288 0.0232,0.12699 -0.15815,0.15403 -0.40296,0.0601 -0.37246,-0.14293 -0.39078,-0.10534 -0.11227,0.23025 0.24441,0.29449 0.29013,1.12223 0.17205,3.11491 -0.2256,3.8073 -0.19426,4.45438 0.25949,5.35765 0.48447,0.96444 1.29354,4.3015 1.96799,8.11713 0.75957,4.29715 1.17044,11.70762 0.82504,14.88063 -0.15702,1.44255 -0.22961,2.71324 -0.1613,2.82377 0.23351,0.37783 -0.68999,8.04322 -1.24293,10.31673 l -0.55198,2.26957 1.11378,1.83148 c 1.00234,1.64822 1.11453,2.00354 1.12128,3.55126 0.0114,2.60358 -0.39484,3.73102 -1.7651,4.89903 -1.27926,1.09044 -4.02207,2.41211 -5.46076,2.63137 -0.49565,0.0755 -1.43697,0.25285 -2.09181,0.39403 -1.72872,0.37269 -8.39698,0.55972 -9.78959,0.27458 z m 8.20209,-4.76198 c 5.15034,-0.74173 6.85268,-1.688 6.49233,-3.60882 -0.27021,-1.44035 -0.77975,-2.29899 -1.96771,-3.31584 l -1.0455,-0.89491 0.25551,-1.31446 c 0.14053,-0.72295 0.37205,-1.52488 0.5145,-1.78207 0.4044,-0.73012 1.57093,-6.91503 1.34656,-7.1394 -0.11024,-0.11024 -0.81478,-0.018 -1.56564,0.20499 -1.79622,0.53342 -2.51991,0.31133 -3.70661,-1.13747 -1.50444,-1.83671 -4.10963,-2.71726 -5.63076,-1.90317 -0.64247,0.34384 -2.61175,2.41589 -2.63237,2.76975 -0.008,0.14552 -0.24472,0.53966 -0.52498,0.87586 -0.49506,0.59389 -0.609584,0.6081 -4.026094,0.49953 -1.93409,-0.0615 -3.73863,-0.20572 -4.01009,-0.32058 -0.40996,-0.17345 -0.46495,-0.1187 -0.32467,0.32329 0.23849,0.75139 0.90327,3.72119 1.52753,6.82398 0.29278,1.45521 0.69945,3.25161 0.9037,3.992 0.20425,0.7404 0.37137,1.64321 0.37137,2.00624 0,0.88119 1.64875,2.19091 4.00354,3.18029 1.846544,0.77583 5.780934,1.35442 7.505844,1.10379 0.43656,-0.0634 1.56765,-0.22678 2.51354,-0.363 z m -48.021884,-1.45198 c 1.30969,-0.38813 2.67891,-0.77096 3.04271,-0.85075 1.55852,-0.34179 2.18839,-1.43085 2.4158,-4.17701 0.0964,-1.16416 0.42152,-4.30775 0.72246,-6.98574 0.30094,-2.67799 0.48596,-4.9681 0.41115,-5.08915 -0.17523,-0.28353 -2.11783,-0.0413 -2.85213,0.3556 -0.31214,0.16873 -2.20161,0.35869 -4.22204,0.42448 -4.1088,0.13378 -4.29344,0.0839 -6.34012,-1.71361 -2.51658,-2.21017 -4.24411,-2.19182 -6.17266,0.0656 -0.68486,0.80164 -1.37495,1.40823 -1.53352,1.34797 -0.15857,-0.0602 -0.56573,-0.006 -0.9048,0.11957 -0.52964,0.19685 -0.59209,0.35036 -0.44329,1.08971 0.16199,0.80488 0.33005,1.24548 1.31233,3.44028 0.81619,1.82372 1.46724,3.67966 1.46724,4.18266 0,0.29995 -0.25521,0.62364 -0.59531,0.75504 -3.04581,1.17674 -4.3411,2.24615 -4.94801,4.08511 -0.54732,1.65838 -0.32819,2.08194 1.44228,2.7879 2.04882,0.81694 4.74764,1.06725 10.31875,0.95703 3.94189,-0.078 4.79228,-0.17622 6.87916,-0.79467 z m 39.419144,-19.078 c 0.26619,-0.49429 0.57041,-0.89871 0.67604,-0.89871 0.10564,0 0.26076,-0.2627 0.34472,-0.58376 0.084,-0.32107 0.23324,-0.50318 0.33172,-0.40469 0.0985,0.0985 0.5188,-0.0628 0.93402,-0.35851 0.89825,-0.63961 2.46885,-0.95091 2.72299,-0.53971 0.12645,0.2046 0.3296,0.19386 0.69955,-0.037 0.44065,-0.27495 0.73862,-0.20783 1.92485,0.43359 0.77191,0.4174 1.63311,1.11044 1.91377,1.5401 0.28066,0.42967 0.82193,0.94626 1.20282,1.14799 0.59287,0.314 0.76423,0.31251 1.19063,-0.0103 0.27395,-0.20742 0.76598,-0.38091 1.0934,-0.38554 0.32742,-0.005 0.59531,-0.12747 0.59531,-0.273 0,-0.14552 0.1713,-0.26458 0.38066,-0.26458 0.50746,0 0.70678,-1.44967 0.76394,-5.55625 0.0549,-3.94256 -0.0489,-6.23343 -0.37171,-8.20208 -0.13121,-0.80037 -0.29544,-1.93146 -0.36495,-2.51354 -0.21751,-1.82162 -0.70417,-4.74495 -0.8589,-5.15938 -0.0815,-0.21828 -0.18479,-0.67369 -0.22955,-1.01202 -0.0447,-0.33833 -0.19386,-0.75505 -0.33134,-0.92604 -0.13748,-0.17099 -0.33069,-0.72761 -0.42935,-1.23694 -0.33973,-1.75376 -0.67988,-2.35001 -1.27523,-2.23536 -0.64117,0.12348 -0.97411,0.56245 -0.99306,1.30932 -0.0278,1.09469 -0.68947,1.80166 -2.01266,2.15039 -0.70912,0.18689 -1.61673,0.34505 -2.01691,0.35148 -0.40018,0.006 -0.72761,0.13074 -0.72761,0.27626 0,0.14552 -0.32742,0.26751 -0.7276,0.27109 -0.40018,0.004 -1.43069,0.24171 -2.29003,0.52917 -0.85933,0.28746 -1.86291,0.52266 -2.23017,0.52266 -0.686704,0 -2.203834,0.4155 -3.016834,0.82623 -0.25269,0.12766 -0.66941,0.23173 -0.92605,0.23126 -0.25663,-5.2e-4 -1.31519,0.25068 -2.35236,0.55807 -1.65021,0.4891 -1.95383,0.68004 -2.43079,1.52867 -0.61842,1.10034 -2.27394,2.85768 -4.10165,4.35391 -1.46946,1.20296 -1.77309,2.0244 -1.03938,2.81194 0.28262,0.30336 0.67445,1.05449 0.87073,1.66918 0.19627,0.61469 0.80737,2.07375 1.358,3.24236 0.55062,1.16861 1.07967,2.53783 1.17566,3.04271 0.096,0.50488 0.28382,1.05764 0.4174,1.22837 0.13359,0.17073 0.38473,0.882 0.55809,1.58061 0.36016,1.45143 1.00793,1.92287 2.69644,1.96244 0.58209,0.0136 1.89177,0.17405 2.91042,0.35646 2.23633,0.40047 3.21027,0.0745 3.964974,-1.32683 z m -54.098744,-0.18042 c 0.006,-0.37154 1.73472,-1.8529 2.49389,-2.13645 0.28286,-0.10565 1.18294,-0.25082 2.00018,-0.32261 1.87682,-0.16487 3.09017,0.35551 4.89387,2.09886 l 1.32291,1.27866 1.7198,-0.1612 c 3.34118,-0.31317 3.98169,-0.40543 4.43589,-0.63895 0.25239,-0.12976 0.59664,-0.18626 0.765,-0.12555 0.16836,0.0607 0.74844,-0.0744 1.28908,-0.30034 0.54064,-0.22589 1.29586,-0.41254 1.67827,-0.41477 1.28337,-0.007 1.77459,-0.85804 1.98406,-3.43553 0.0769,-0.94588 0.43043,-2.60713 0.78568,-3.69166 0.61758,-1.88539 0.66009,-2.65834 0.14621,-2.65834 -0.12995,0 -0.23628,-0.16801 -0.23628,-0.37335 0,-0.59075 -1.59422,-1.80102 -2.08757,-1.5848 -0.23428,0.10269 -0.84221,0.24454 -1.35095,0.31523 -0.50874,0.0707 -1.16358,0.28195 -1.45521,0.46949 -0.29162,0.18754 -1.12554,0.45695 -1.85314,0.59869 -0.72761,0.14174 -1.68011,0.38117 -2.11667,0.53207 -1.42665,0.49313 -12.65065,3.23917 -14.68437,3.59265 -2.94578,0.512 -2.96535,0.52601 -2.75547,1.97278 0.33489,2.30845 1.17436,5.19297 1.60452,5.51334 0.48623,0.36214 1.4122,0.0178 1.4203,-0.52822 z m -10.36328,-13.47236 c -0.26363,-1.78928 -0.83953,-6.05119 -1.27978,-9.47093 -0.44025,-3.41974 -0.92206,-6.99162 -1.07069,-7.9375 -0.14863,-0.94589 -0.32225,-2.19604 -0.38581,-2.77813 -0.0636,-0.58208 -0.18144,-1.47505 -0.26195,-1.98437 -0.34141,-2.15969 -2.02019,-14.43772 -2.89412,-21.16667 -0.51974,-4.00182 -1.07485,-8.00718 -1.23358,-8.90078 -0.15872,-0.89361 -0.25287,-1.96525 -0.20922,-2.38141 0.0437,-0.41617 0.005,-0.87695 -0.0858,-1.02396 -0.18235,-0.29506 -0.96862,-5.73911 -1.11655,-7.73091 -0.0515,-0.69404 -0.23891,-1.99121 -0.41636,-2.8826 -0.31128,-1.56358 -0.36596,-1.64153 -1.55148,-2.21163 -3.29768,-1.58581 -5.00842,-2.38257 -5.79289,-2.69798 -0.47294,-0.19015 -0.8599,-0.41589 -0.8599,-0.50163 0,-0.0858 -0.14882,-0.15933 -0.33072,-0.16352 -0.18191,-0.004 -1.13739,-0.38122 -2.1233,-0.83785 -0.98591,-0.45662 -1.90864,-0.83023 -2.05052,-0.83023 -0.14187,0 -0.25796,-0.12609 -0.25796,-0.2802 0,-0.1541 -0.10889,-0.21289 -0.24198,-0.13064 -0.13309,0.0823 -0.28797,0.0116 -0.34417,-0.15701 -0.0562,-0.16861 -0.34959,-0.32479 -0.65197,-0.34707 -0.30238,-0.0223 -0.83212,-0.22509 -1.17718,-0.4507 -0.69727,-0.45587 -1.8429202,-0.88426 -2.1487602,-0.80347 -0.10914,0.0288 -0.19843,-0.0666 -0.19843,-0.21216 0,-0.14552 -0.22944,-0.26458 -0.50985,-0.26458 -0.28041,0 -1.41201,-0.41672 -2.51466,-0.92604 -1.10265,-0.50932 -2.09456,-0.92604 -2.20424,-0.92604 -0.10968,0 -0.76402,-0.30056 -1.45409,-0.66791 -0.69006,-0.36735 -1.25466,-0.60751 -1.25466,-0.53369 0,0.0738 -0.44132001,-0.11365 -0.98071001,-0.41661 -0.5394,-0.30296 -1.32560999,-0.59448 -1.74715999,-0.64783 -0.42154,-0.0533 -1.28134,-0.39875 -1.91067,-0.76756 -0.62933,-0.36881 -1.3839,-0.67057 -1.67682,-0.67057 -0.29292,0 -0.60617,-0.11906 -0.6961,-0.26458 -0.0899,-0.14552 -0.42766,-0.26459 -0.7505,-0.26459 -0.32283,0 -0.82182,-0.16338 -1.10886,-0.36307 -0.28704,-0.19968 -0.92592,-0.45102 -1.41974,-0.55852 -0.49382,-0.1075 -1.2969198,-0.3622 -1.7846798,-0.566 -0.48775,-0.20379 -0.94526,-0.37387 -1.01669,-0.37795 -0.24494,-0.014 -2.38614,-0.78703 -3.17995,-1.14807 -0.83239,-0.3786 -2.36763,-0.92635 -3.04271,-1.08561 -0.21828,-0.0515 -0.39687,-0.11158 -0.39687,-0.13353 0,-0.022 -0.23813,-0.0857 -0.52917,-0.14157 -0.95322,-0.18313 -3.91364,-1.18135 -4.20908,-1.41926 -0.15886,-0.12792 -0.93189,-0.31909 -1.71784,-0.42482 -1.2508,-0.16827 -1.40862,-0.13911 -1.26552,0.2338 0.0899,0.23432 0.35234,1.46836 0.58316,2.7423 0.23082,1.27394 0.95536,5.0547 1.61009,8.40168 0.65473,3.34698 1.30844,6.69482 1.45269,7.43966 l 0.26227,1.35424 2.58715,0.12458 c 2.15902,0.10397 2.84535,0.25091 4.14744,0.88796 1.85555,0.90784 3.25121,2.27468 4.2258,4.13854 0.62377,1.19294 0.69621,1.5796 0.58108,3.10163 -0.0723,0.95634 -0.21057,1.98011 -0.30718,2.27503 -0.12106,0.36954 0.0314,0.77725 0.49053,1.31154 0.36641,0.42642 0.6103798,0.83112 0.5421598,0.89935 -0.0682,0.0682 0.13928,0.40434 0.46113,0.74693 0.49706,0.52911 0.58706,0.93183 0.59773,2.67481 0.0125,2.04002 -0.0551,2.24536 -1.2708698,3.86196 -0.13841,0.18405 0.1103,0.83885 0.6458598,1.70037 1.08719,1.74893 1.3373,3.9359 0.65457,5.72362 -0.8895,2.32912 -3.5252898,3.84415 -6.6879098,3.84415 -0.8892,0 -1.46273,0.12311 -1.54255,0.33111 -0.17042,0.4441 3.02489,22.8621 3.73096,26.17613 0.11466,0.53816 0.35563,0.75086 0.99401,0.8774 4.8231998,0.95607 18.6340798,4.5122 19.1371998,4.9276 0.16658,0.13754 0.40471,0.2318 0.52917,0.20946 0.12445,-0.0223 0.28581,-0.0177 0.35858,0.0104 0.0728,0.0281 0.42994,0.10282 0.79375,0.16615 0.3638,0.0633 1.25677,0.28932 1.9843702,0.50218 0.7276,0.21285 3.28745,0.93234 5.68854,1.59885 2.4011,0.66651 4.54422,1.28461 4.7625,1.37355 0.21828,0.0889 0.47625,0.17198 0.57327,0.18455 0.097,0.0126 0.26568,0.11215 0.37482,0.22129 0.10914,0.10914 0.42872,0.19844 0.71017,0.19844 0.28145,0 1.77966,0.35838 3.32934,0.79641 1.54969,0.43803 3.47245,0.97484 4.27282,1.19291 0.80036,0.21806 2.46724,0.68072 3.70416,1.02812 1.23693,0.34739 2.3181,0.58993 2.40259,0.53896 0.0845,-0.051 -0.0621,-1.55662 -0.32568,-3.34589 z m 5.19914,3.08617 c 1.16416,-0.22407 2.41432,-0.45828 2.77812,-0.52048 0.3638,-0.0622 1.5412,-0.34761 2.61644,-0.63426 2.2306,-0.59466 3.60285,-0.8622 4.46116,-0.86976 0.32743,-0.003 0.59532,-0.0962 0.59532,-0.20742 0,-0.1735 1.19404,-0.46772 3.96378,-0.97667 0.36107,-0.0663 1.38025,-0.35446 2.26485,-0.64024 0.88459,-0.28578 1.98792,-0.54635 2.45183,-0.57904 0.46392,-0.0327 0.84372,-0.14134 0.84401,-0.24144 2.6e-4,-0.10009 0.20889,-0.18186 0.46355,-0.1817 0.25466,1.6e-4 1.47505,-0.30995 2.71198,-0.68914 1.23692,-0.37918 2.66567,-0.75524 3.175,-0.83568 0.50932,-0.0804 1.07487,-0.26855 1.25677,-0.41803 0.1819,-0.14948 0.33073,-0.1831 0.33073,-0.0747 0,0.1084 0.15179,0.0711 0.33732,-0.0829 0.18553,-0.15397 0.63201,-0.32884 0.99219,-0.38859 0.36017,-0.0598 0.83345,-0.17724 1.05174,-0.26108 1.21867,-0.46809 3.28907,-1.0413 4.14419,-1.14737 0.54,-0.067 1.13815,-0.25152 1.32922,-0.4101 0.19108,-0.15858 0.34742,-0.19964 0.34742,-0.0912 0,0.1084 0.14883,0.0849 0.33073,-0.0522 0.37662,-0.28391 2.15692,-0.84725 3.03589,-0.96064 0.32367,-0.0417 0.66273,-0.15016 0.75347,-0.24089 0.0907,-0.0907 0.33193,-0.10091 0.53598,-0.0226 0.20406,0.0783 0.37101,0.0224 0.37101,-0.12414 0,-0.25551 2.35124,-0.94253 3.175,-0.92771 0.21828,0.004 0.5457,-0.11028 0.72761,-0.25378 0.1819,-0.1435 0.33072,-0.17223 0.33072,-0.0638 0,0.1084 0.14883,0.079 0.33073,-0.0652 0.30733,-0.24377 2.90991,-0.97745 3.50573,-0.98828 0.14552,-0.003 0.32412,-0.0696 0.39688,-0.14872 0.12809,-0.13934 9.476264,-2.72373 12.964584,-3.58418 0.94589,-0.23332 1.80646,-0.50531 1.91239,-0.60442 0.19604,-0.1834 -0.97699,-11.15234 -1.34754,-12.60082 l -0.20305,-0.79375 -3.68663,-0.008 c -5.440904,-0.0121 -7.468764,-0.89884 -8.942054,-3.91015 -0.74736,-1.52755 -0.94183,-3.73005 -0.41608,-4.71242 0.23906,-0.44669 0.11758,-0.6854 -0.80396,-1.57971 -0.59706,-0.57943 -1.203,-1.36238 -1.34653,-1.73989 -0.41013,-1.07873 -0.34487,-3.57699 0.12267,-4.69597 l 0.42572,-1.0189 -1.0429,-1.13141 c -1.25106,-1.35725 -1.72525,-2.88961 -1.49681,-4.83698 0.2554,-2.17712 1.24226,-3.83023 2.80185,-4.69341 0.50933,-0.28189 0.98558,-0.57448 1.05834,-0.6502 0.69326,-0.72149 3.1753,-1.18046 6.2938,-1.16383 l 2.19276,0.0117 -0.14074,-2.5301 c -0.0774,-1.39155 -0.25458,-3.32304 -0.39371,-4.2922 -0.13914,-0.96916 -0.33286,-2.7551 -0.4305,-3.96875 -0.0976,-1.21365 -0.21774,-2.5043 -0.26689,-2.8681 -0.0492,-0.3638 -0.21118,-1.73302 -0.36005,-3.04271 -0.14888,-1.30969 -0.2728,-2.38129 -0.27539,-2.38133 -3.03863,-0.0542 -27.54933,2.30549 -33.07761,3.1845 -0.36381,0.0579 -3.22131,0.51914 -6.35,1.02509 -4.60476,0.74465 -12.6146,2.01097 -18.52084,2.92805 -0.50932,0.0791 -2.77151,0.43995 -5.02708,0.80191 -2.25557,0.36197 -4.3619,0.65843 -4.68074,0.6588 -0.31883,2.7e-4 -0.65084,0.11579 -0.73778,0.25648 -0.087,0.14068 0.0213,1.24201 0.24052,2.44739 0.21923,1.20539 0.42399,3.02505 0.455,4.04369 0.031,1.01865 0.15761,1.98783 0.28131,2.15375 0.20308,0.27239 0.51554,2.41081 0.88376,6.04834 0.0737,0.7276 0.2398,1.6801 0.36921,2.11666 0.30078,1.01468 0.95788,6.08772 1.21662,9.39271 0.0285,0.3638 0.0807,0.66146 0.11607,0.66146 0.0354,0 0.10389,0.29766 0.1523,0.66146 0.0484,0.3638 0.28374,2.03068 0.52296,3.70416 0.42222,2.95363 0.73171,5.46978 1.04143,8.46667 0.0827,0.80037 0.27244,1.93146 0.42163,2.51354 0.14919,0.58209 0.31458,1.83224 0.36753,2.77813 0.053,0.94588 0.28715,2.79135 0.52042,4.10104 0.23327,1.30969 0.54229,3.45281 0.68671,4.7625 0.14442,1.30969 0.32892,2.8575 0.40999,3.43958 0.0811,0.58209 0.18011,1.65365 0.22009,2.38125 0.04,0.72761 0.20645,1.73964 0.36993,2.24896 0.16348,0.50932 0.34202,1.53106 0.39676,2.27052 0.0547,0.73947 0.16498,1.45384 0.24497,1.5875 0.08,0.13366 0.22472,1.13599 0.32162,2.2274 0.21657,2.4392 0.40052,3.43959 0.63248,3.43953 0.0976,-2e-5 1.12992,-0.18337 2.29409,-0.40743 z m 40.68795,-3.81288 c 0.6722,-0.15065 1.546,-0.60774 2.035,-1.06453 0.47133,-0.44029 0.9932,-0.80053 1.15971,-0.80053 0.16651,-1e-5 0.61881,-0.39613 1.00511,-0.88027 l 0.70235,-0.88026 -1.09923,0.20434 c -2.09693,0.38981 -5.06948,1.18884 -5.58518,1.50132 -0.13894,0.0842 -0.55566,0.18692 -0.92604,0.22829 -0.37039,0.0414 -1.44014,0.37647 -2.37724,0.74466 -0.9371,0.36818 -1.86686,0.66942 -2.06614,0.66942 -0.19927,0 -0.29577,0.10768 -0.21443,0.23929 0.20483,0.33142 5.92536,0.36114 7.36609,0.0383 z m 30.088084,-16.68172 c 0.29105,-0.29104 0.53319,-0.61847 0.53811,-0.72761 0.17312,-3.84357 0.17115,-5.331 -0.007,-5.61997 -0.13713,-0.22188 -0.65124,-0.3392 -1.3674,-0.31203 -1.52759,0.058 -1.90274,0.56699 -1.69061,2.29398 0.0894,0.72761 0.2356,2.12659 0.32496,3.10886 0.15919,1.74988 0.17772,1.78593 0.91784,1.78593 0.41546,0 0.9935,-0.23812 1.28455,-0.52916 z m 13.89435,-10.65652 c 2.73971,-2.82147 4.07204,-5.89261 4.60992,-10.62629 0.51456,-4.52845 -0.45672,-9.48488 -2.58125,-13.1721 -1.34182,-2.32878 -2.80436,-3.11592 -5.7895,-3.11592 h -1.69378 l 0.63814,0.85989 c 2.50367,3.37371 4.05426,10.11802 3.40057,14.79083 -0.64638,4.62049 -2.18552,8.08538 -4.83882,10.89307 -1.16946,1.2375 -1.251,1.40168 -0.84458,1.70048 0.24741,0.1819 0.9331,0.34259 1.52375,0.3571 0.59065,0.0145 1.37157,0.12403 1.73537,0.2434 1.19965,0.39361 1.94946,0.0167 3.84018,-1.93046 z m 8.56702,1.27385 c 2.07278,-0.70547 5.96338,-2.57773 6.66363,-3.20672 0.22974,-0.20636 0.50614,-0.3752 0.61421,-0.3752 0.10808,0 0.35386,-0.14882 0.54618,-0.33072 3.99275,-3.77647 4.90933,-4.94251 6.81125,-8.66511 2.01531,-3.94455 2.62274,-6.50947 2.78834,-11.77396 0.10541,-3.35114 0.0389,-4.70199 -0.31924,-6.48229 -0.75074,-3.73205 -2.74744,-8.23888 -4.64392,-10.48192 -1.009,-1.1934 -1.28575,-1.28356 -1.57826,-0.51421 -0.34582,0.90957 -0.77741,0.8555 -0.97289,-0.12187 -0.0879,-0.43959 -0.26353,-0.86334 -0.39026,-0.94166 -0.12672,-0.0783 -0.23241,-0.40326 -0.23486,-0.7221 -0.007,-0.96323 -1.66674,-4.69462 -2.96396,-6.66511 -1.01583,-1.54305 -3.61303,-4.36563 -4.01705,-4.36563 -0.0623,0 -1.06807,-0.64277 -2.23513,-1.42839 -1.16705,-0.78562 -2.18923,-1.36109 -2.27149,-1.27883 -0.0823,0.0823 -0.14958,0.0181 -0.14958,-0.14265 0,-0.16073 -0.20836,-0.28921 -0.46303,-0.28552 -0.25466,0.004 -0.99271,-0.18987 -1.64012,-0.43015 -1.98718,-0.73751 -3.69356,-0.97199 -7.68644,-1.05623 -2.9843,-0.063 -4.30661,-0.2127 -5.95312,-0.67415 -2.86918,-0.80412 -3.59115,-0.87224 -4.36563,-0.41191 -0.3638,0.21623 -1.3163,0.70046 -2.11666,1.07605 -0.80037,0.3756 -1.66586,0.79994 -1.92332,0.94297 -0.88754,0.4931 -6.94643,2.60054 -9.514874,3.30953 -1.41606,0.39089 -2.5095,0.81613 -2.42987,0.94497 0.0796,0.12885 0.94057,0.21896 1.91319,0.20025 0.97263,-0.0187 2.00653,0.0303 2.297584,0.10895 0.29104,0.0786 0.61427,0.15207 0.71829,0.1632 0.59016,0.0632 0.86885,1.30862 1.24787,5.5765 0.37609,4.23502 1.0874,10.94505 1.19415,11.26487 0.0618,0.18514 0.86722,0.24529 2.30381,0.17204 1.91235,-0.0975 2.45649,-0.0189 4.05443,0.58585 2.51042,0.95005 4.99422,2.36193 6.82412,3.87907 1.5198,1.26005 1.52972,1.26364 2.4389,0.88376 1.34458,-0.5618 4.23394,-0.48185 6.16601,0.17062 1.39139,0.46988 1.88146,0.82438 3.29252,2.3817 0.91179,1.0063 1.98478,2.45452 2.3844,3.21826 1.76172,3.36689 3.03164,9.49165 2.70173,13.03028 -0.45072,4.83447 -2.20995,9.70583 -4.20697,11.64926 -0.15383,0.1497 -0.57734,0.61281 -0.94114,1.02914 l -0.66146,0.75696 2.38125,-0.16206 c 1.4645,-0.0997 3.13434,-0.41838 4.33741,-0.82784 z m -17.53044,-3.15099 c 1.46327,-1.10675 2.91442,-3.41196 3.72537,-5.91792 1.65854,-5.12514 1.12458,-10.44069 -1.53518,-15.2828 -1.23949,-2.25647 -4.17766,-4.94329 -7.12733,-6.51761 -1.08799,-0.58068 -2.33535,-1.26493 -2.77191,-1.52055 -1.19927,-0.70221 -3.2684,-1.14304 -4.43775,-0.94548 l -1.03801,0.17537 0.18269,2.30831 0.1827,2.30832 -1.23177,0.47041 c -1.03888,0.39676 -1.71596,0.44371 -4.323984,0.29984 -3.20775,-0.17695 -5.36918,0.0578 -6.97987,0.75817 -0.53329,0.23188 -1.38489,1.79911 -1.61457,2.97135 -0.12169,0.62113 -0.0116,1.06349 0.42643,1.71349 0.91661,1.36016 2.04672,1.96726 4.32881,2.32547 2.76282,0.43367 3.26053,0.56204 3.26053,0.84097 0,0.12975 -0.1357,0.2359 -0.30156,0.2359 -0.16586,0 -0.43796,0.18653 -0.60467,0.41452 -0.19333,0.2644 -1.01835,0.50283 -2.27812,0.65838 -2.40361,0.29679 -2.90107,0.74953 -2.90107,2.64028 0,0.98762 0.15548,1.45808 0.69298,2.09686 1.0094,1.19961 1.82231,1.52489 4.5804,1.83282 1.3578,0.1516 2.53097,0.33788 2.60704,0.41396 0.26984,0.26983 -1.9492,1.00318 -3.44629,1.13893 -1.64862,0.14949 -1.82397,0.27451 -2.27883,1.6248 -0.42793,1.27035 0.002,2.67245 1.05815,3.45354 1.0253,0.75804 3.82874,1.11259 7.010174,0.88657 1.69598,-0.12049 2.59589,-0.0369 4.23334,0.39332 1.14372,0.30049 3.1493,0.6824 4.45684,0.84869 1.30753,0.16629 2.43246,0.35748 2.49984,0.42485 0.35559,0.3556 2.6425,-0.30719 3.62562,-1.05076 z M -14.513774,196.24655 c 0.55174,-0.0912 1.35542,-0.49483 1.78594,-0.89699 0.6707,-0.62653 0.78276,-0.92568 0.78276,-2.08957 0,-0.78729 -0.17419,-1.62422 -0.41433,-1.99072 -0.71286,-1.08796 -1.62468,-1.22021 -6.43071,-0.93273 -4.82219,0.28845 -5.0616,0.38141 -5.0608,1.965 7.9e-4,1.73935 1.40543,3.42611 3.20708,3.85148 1.10507,0.26091 4.77811,0.31695 6.13006,0.0935 z m 0.48628,-8.91509 c 1.06282,-0.46346 2.08242,-1.92855 2.08242,-2.99229 0,-0.92613 -0.67647,-1.98563 -1.72771,-2.70595 -0.88249,-0.60469 -0.89029,-0.60513 -5.63274,-0.31366 -3.0664,0.18846 -5.01966,0.42689 -5.51288,0.67294 -0.70827,0.35333 -0.76942,0.50463 -0.84011,2.07872 -0.0655,1.45943 0.01,1.7952 0.53475,2.39287 1.10273,1.25477 2.90476,1.64253 6.75204,1.45291 2.17076,-0.10699 3.72821,-0.31691 4.34423,-0.58554 z m -3.15612,-8.67256 c 1.97482,-0.41799 2.75574,-0.88334 3.08963,-1.84114 0.67611,-1.93951 -0.82785,-4.30818 -3.20145,-5.04213 -1.17341,-0.36283 -4.84304,-0.35389 -6.21313,0.0151 -2.09429,0.56411 -3.51776,2.3635 -3.51776,4.44678 0,1.17245 0.73196,2.05999 2.01594,2.44443 1.11976,0.33526 6.20455,0.32028 7.82677,-0.0231 z m 55.50937,-16.10741 c 2.18281,-0.7276 4.11758,-1.32365 4.29948,-1.32455 0.1819,-7.9e-4 0.66806,-0.17756 1.08034,-0.3926 0.41229,-0.21504 1.24573,-0.51791 1.85209,-0.67307 2.63042,-0.67305 4.93892,-1.40412 4.93892,-1.56409 0,-0.32257 -3.9138,-1.14991 -4.69789,-0.99309 -1.47994,0.29599 -7.19823,3.00219 -9.32502,4.4131 -0.80037,0.53096 -1.66357,1.04324 -1.91823,1.13841 -0.41091,0.15356 -0.67099,0.71881 -0.33073,0.71881 0.0728,0 1.91823,-0.59532 4.10104,-1.32292 z m 20.76979,-2.40596 c 1.01865,-0.15335 2.09021,-0.3144 2.38125,-0.35789 0.29104,-0.0435 1.24354,-0.21082 2.11667,-0.37182 0.87312,-0.16102 2.00422,-0.35326 2.51354,-0.42721 0.50932,-0.0739 1.51827,-0.25645 2.24211,-0.40554 0.72384,-0.1491 1.7954,-0.32259 2.38125,-0.38553 0.58585,-0.063 1.65856,-0.22998 2.38379,-0.37119 0.72524,-0.1412 1.40093,-0.20586 1.50153,-0.14369 0.1006,0.0622 0.45973,-0.002 0.79805,-0.14312 0.56336,-0.2346 7.76462,-1.07209 12.71983,-1.47928 1.88986,-0.1553 2.05052,-0.21443 2.05052,-0.75464 0,-0.97817 -0.61432,-2.01116 -1.19062,-2.00205 -0.29105,0.005 -1.59856,0.23177 -2.90559,0.50482 -1.30703,0.27305 -2.45521,0.44776 -2.55152,0.38824 -0.0963,-0.0595 -0.69378,0.0749 -1.32774,0.29877 -0.63396,0.22384 -1.7204,0.45719 -2.41431,0.51854 -0.6939,0.0614 -1.79653,0.29314 -2.45028,0.5151 -0.65374,0.22195 -1.57428,0.46047 -2.04564,0.53004 -0.47135,0.0696 -1.33326,0.24955 -1.91534,0.39995 -0.58208,0.15041 -1.71318,0.34487 -2.51354,0.43214 -0.80037,0.0873 -1.58523,0.26442 -1.74414,0.39366 -0.15891,0.12924 -0.36745,0.15646 -0.46342,0.0605 -0.096,-0.096 -0.4422,-0.0431 -0.7694,0.11744 -0.54483,0.26735 -2.69869,0.78278 -8.61153,2.06078 -1.20767,0.26103 -2.25649,0.57285 -2.33071,0.69294 -0.16782,0.27153 -0.11905,0.26991 2.14524,-0.0709 z m -45.90521,-1.27663 c 0,-0.13365 -0.44648,-0.50984 -0.99218,-0.83597 -1.51613,-0.90608 -3.8459802,-2.68757 -4.3848302,-3.35279 -0.26946,-0.33266 -0.77677,-0.59532 -1.1498,-0.59532 -0.66358,0 -1.9145,-0.57853 -2.79975,-1.29485 -0.25466,-0.20606 -0.46302,-0.27822 -0.46302,-0.16035 0,0.11786 -0.23812,-10e-4 -0.52916,-0.26459 -0.29105,-0.26339 -0.52917,-0.38632 -0.52917,-0.27319 0,0.11313 -0.14883,0.0822 -0.33073,-0.0688 -0.1819,-0.15096 -0.39026,-0.25528 -0.46302,-0.23181 -0.26349,0.085 -2.11667001,-1.13494 -2.11667001,-1.39336 0,-0.14586 -0.16655,-0.20129 -0.37011,-0.12317 -0.20355999,0.0781 -0.44990999,0.0129 -0.54744999,-0.14491 -0.0975,-0.15782 -0.28817,-0.21844 -0.42364,-0.13472 -0.13546,0.0837 -0.2463,0.0261 -0.2463,-0.12797 0,-0.15411 -0.20836,-0.28493 -0.46302,-0.2907 -0.25466,-0.006 -1.11786,-0.36294 -1.91823,-0.79369 -0.80036,-0.43076 -1.60403,-0.78322 -1.78593,-0.78325 -0.18191,-4e-5 -0.33073,-0.12615 -0.33073,-0.28026 0,-0.15411 -0.0992,-0.21891 -0.22039,-0.14399 -0.12121,0.0749 -0.6437,-0.15145 -1.16109,-0.50303 -0.51739,-0.35157 -1.22189,-0.69393 -1.56555,-0.76079 -0.6231398,-0.12124 -6.7925098,-2.64189 -8.8559098,-3.6183 -1.59598,-0.75523 -1.9554,-0.68514 -1.9554,0.38127 0,0.91146 0.65938,2.53662 0.8316,2.04963 0.11749,-0.33222 2.60799,0.15716 2.60799,0.51246 0,0.13202 0.47625,0.31618 1.05833,0.40926 0.58208,0.0931 1.05833,0.27308 1.05833,0.4 0,0.12692 0.27117,0.23077 0.60259,0.23077 0.33142,0 0.83744,0.1645 1.12448,0.36555 0.28704,0.20105 0.58142,0.36217 0.65418,0.35805 0.43666,-0.0247 1.45094,0.46275 1.90267,0.91448 0.30206,0.30206 0.7390498,0.47219 1.0224798,0.39807 0.27224,-0.0712 0.62636,0.0289 0.78694,0.22235 0.16057,0.19348 0.49237,0.3399 0.73733,0.32536 0.54939,-0.0326 3.09836,1.03728 4.08159,1.71317 0.39919,0.27441 0.82825,0.43561 0.95348,0.35822 0.12523,-0.0774 0.81065,0.23687 1.52316,0.69837 0.71250999,0.4615 1.35676999,0.84472 1.43166999,0.85159 0.40286,0.037 3.84601001,1.60371 3.92075001,1.78406 0.0485,0.11705 0.30937,0.21281 0.5797,0.21281 0.27032,0 0.56629,0.12101 0.65769,0.2689 0.0914,0.1479 0.27702,0.2004 0.41249,0.11668 0.13547,-0.0837 0.2463,-0.0261 0.2463,0.12797 0,0.15411 0.17446,0.2802 0.38769,0.2802 0.21323,0 0.95091,0.35719 1.6393,0.79375 0.68839,0.43657 1.49619,0.79644 1.79512,0.79973 0.29894,0.003 1.1983602,0.41731 1.9987302,0.92007 1.64827,1.03536 1.58749,1.00921 1.58749,0.68303 z m 56.22396,-4.40638 c 2.9016,-0.45264 6.78185,-1.19093 10.31875,-1.96333 1.45521,-0.3178 3.27327,-0.69859 4.04014,-0.84621 2.12126,-0.40833 2.25062,-1.07519 0.91403,-4.71191 -2.07536,-5.64679 -8.57701,-12.6311 -14.81077,-15.91025 -1.69649,-0.8924 -1.8261,-0.85008 -3.71052,1.21178 -2.73712,2.99484 -5.10503,6.94439 -6.35359,10.59743 -0.9832,2.87665 -1.27566,7.71593 -0.63476,10.50334 l 0.34661,1.50751 1.24089,0.08 c 2.1312,0.13739 6.16711,-0.0812 8.64922,-0.46835 z m -2.82193,-8.94715 c -0.41948,-0.20793 -0.64423,-0.57976 -0.70048,-1.15891 -0.0692,-0.71248 0.1116,-1.04443 1.09902,-2.01788 1.32,-1.3013 2.2893,-1.62263 4.0833,-1.3536 0.86717,0.13004 1.42961,0.41265 1.96776,0.98874 0.41444,0.44365 0.69809,0.86208 0.63034,0.92983 -0.0677,0.0677 -0.0193,0.39628 0.10755,0.73006 0.15521,0.40823 0.1175,0.76173 -0.11521,1.07998 -0.32017,0.43785 -0.48671,0.44654 -2.23526,0.11661 -1.79422,-0.33854 -1.91913,-0.32952 -2.48137,0.17921 -0.7811,0.70676 -1.597,0.882 -2.35565,0.50596 z m -11.71958,8.23872 c -0.52455,-3.09586 -0.55959,-4.05334 -0.25064,-6.84983 0.18265,-1.65324 0.59076,-3.83933 0.90692,-4.85798 1.26367,-4.07154 4.60054,-9.92321 5.39961,-9.46902 0.15595,0.0886 0.19215,0.0606 0.0804,-0.0623 -0.24329,-0.26769 1.34986,-1.97804 1.84249,-1.97804 0.18974,0 0.34497,-0.16425 0.34497,-0.36501 0,-0.20074 0.56555,-0.82343 1.25677,-1.38374 0.69123,-0.56031 1.61396,-1.34801 2.05052,-1.75044 0.43657,-0.40243 0.98757,-0.73225 1.22446,-0.73292 0.5533,-0.002 2.26612,0.71151 2.45912,1.02379 0.0813,0.1316 0.46703,0.31938 0.85711,0.41728 0.39007,0.0979 1.01627,0.41957 1.39156,0.71481 0.37529,0.29524 1.06929,0.6985 1.54223,0.89614 0.47295,0.19763 0.8599,0.47157 0.8599,0.60874 0,0.13717 0.2685,0.31679 0.59668,0.39915 0.32817,0.0824 1.01278,0.56775 1.52135,1.07862 0.50857,0.51087 1.01501,0.93264 1.12541,0.93726 0.66235,0.0277 5.95273,5.3721 7.32455,7.39931 1.0697,1.58078 2.39659,3.97772 2.39659,4.32932 0,0.11828 0.25294,0.77029 0.56209,1.44892 0.30915,0.67862 0.62287,1.68703 0.69716,2.24089 0.0743,0.55387 0.23807,1.07068 0.36395,1.14849 0.12589,0.0778 0.22888,0.52839 0.22888,1.00131 0,0.47292 0.15825,1.07627 0.35166,1.34078 0.30178,0.4127 0.48004,0.43976 1.25677,0.19073 0.49782,-0.15959 1.3525,-0.35882 1.89931,-0.44271 1.35051,-0.2072 1.71325,-0.8686 2.03191,-3.70491 0.33435,-2.97584 -0.0816,-5.21068 -1.47106,-7.90347 -0.98159,-1.90237 -3.68371,-5.71734 -4.04955,-5.71734 -0.18274,0 -0.81279,-1.15747 -0.81279,-1.4932 0,-0.14889 0.39186,-0.11791 5.42396,0.42873 3.37979,0.36715 7.571464,0.0478 10.139244,-0.77253 6.57593,-2.10075 12.45173,-7.82689 15.49092,-15.09633 0.21293,-0.50933 0.64791,-1.75948 0.96661,-2.77813 0.3187,-1.01865 0.75432,-2.38786 0.96805,-3.04271 0.60777,-1.8622 1.3955,-7.81142 1.40133,-10.58333 0.0129,-6.121403 -1.10315,-12.83825 -2.96736,-17.859377 -0.43223,-1.164167 -0.84569,-2.473854 -0.9188,-2.910417 -0.0731,-0.436562 -0.28061,-0.912812 -0.46111,-1.058333 -0.41378,-0.333597 -1.20325,-1.845247 -1.20325,-2.303949 0,-0.313722 -1.56541,-2.634459 -3.88923,-5.765842 -1.07336,-1.446369 -4.10807,-4.567463 -5.0256,-5.168651 -0.989,-0.648015 -1.34628,-0.12898 -0.67603,0.982096 1.28851,2.135968 1.59206,6.837365 0.62002,9.602991 -0.29712,0.84533 -0.57834,1.575096 -0.62494,1.621699 -0.0466,0.0466 -0.91294,0.101733 -1.92521,0.12251 -1.56313,0.03208 -6.498954,1.017405 -9.248804,1.846308 -5.96909,1.799293 -10.57731,3.702791 -14.68438,6.065599 -1.0914,0.627888 -2.22619,1.273662 -2.52174,1.435052 -0.63383,0.34611 -0.69378,0.394243 -3.43138,2.75468 -2.13596,1.841686 -5.15834,4.938289 -5.1606,5.287338 -8e-4,0.103905 -0.32831,0.546105 -0.72808,0.982668 -1.25913,1.375029 -2.51882,3.610853 -4.05965,7.205468 l -0.51929,1.21145 -1.31463,-2.00251 c -0.72305,-1.10138 -1.31463,-2.05951 -1.31463,-2.12918 0,-0.506629 -6.36109,-6.233297 -8.46965,-7.624931 -2.35141,-1.551911 -2.96566,-1.892951 -6.6429,-3.68826 -0.91529,-0.446862 -4.673,-1.664766 -6.18445,-2.00443 -0.8742,-0.196456 -1.76805,-0.403498 -1.98633,-0.460092 -1.01128,-0.262197 -3.47207,-0.490043 -7.12154,-0.659384 -4.28898,-0.199014 -4.4807,-0.268327 -5.2186,-1.886672 -0.93739,-2.055881 -1.24375,-6.106004 -0.6588,-8.709422 0.13825,-0.615315 0.14346,-1.145026 0.0121,-1.22624 -0.32401,-0.200247 -1.30007,0.362019 -1.30318,0.7507 -0.001,0.176781 -0.43115,0.857202 -0.95497,1.512046 -2.0128,2.516243 -4.78645,7.728021 -5.63232,10.583332 -0.194,0.654844 -0.52294,1.654257 -0.73099,2.220918 -0.59135,1.610643 -1.37323,5.062873 -1.81836,8.02862 -0.53813,3.585285 -0.66555,12.440525 -0.20468,14.224425 0.18798,0.7276 0.34319,1.70838 0.34492,2.1795 0.005,1.22674 1.40182,6.42068 2.29647,8.53612 0.0923,0.21828 0.19851,0.51594 0.236,0.66146 0.0375,0.14552 0.37385,0.80036 0.74748,1.45521 0.37363,0.65484 0.87369,1.63711 1.11124,2.18281 0.23755,0.5457 0.53804,0.99219 0.66776,0.99219 0.12972,0 0.23586,0.11866 0.23586,0.26368 0,0.60787 2.37476,3.45165 4.48191,5.36708 5.3769,4.88768 9.36538,6.52325 15.07862,6.18337 3.05723,-0.18187 5.46722,-0.77311 7.79259,-1.91173 1.3206,-0.64664 1.55234,-0.6895 1.8919,-0.34993 0.33958,0.33957 0.24642,0.67757 -0.76049,2.75944 -1.23295,2.54918 -2.02621,5.84433 -2.02621,8.41668 0,1.66156 0.79277,4.09342 1.75513,5.38389 0.64646,0.86687 0.97591,0.95973 3.87925,1.09338 0.9932,0.0457 1.00259,0.0368 0.85848,-0.81368 z m -15.09182,-23.34722 c -0.14552,-0.0485 -0.59687,-0.16169 -1.00301,-0.25145 -0.40613,-0.0898 -0.667,-0.27876 -0.5797,-0.42002 0.17353,-0.28078 0.16107,-0.28458 -1.22064,-0.37271 -1.20912,-0.0771 -3.6921,-1.57865 -5.35446,-3.238 -1.3816,-1.3791 -3.88073,-4.93176 -3.88073,-5.5167 0,-0.19777 -0.24129,-0.76853 -0.53619,-1.26836 -1.11362,-1.88744 -2.61178,-8.99987 -2.62943,-12.48303 -0.0106,-2.10144 0.57085,-5.23377 1.09496,-5.89821 1.71865,-2.178841 3.62371,-2.692355 8.06244,-2.173253 8.95705,1.047514 16.33126,4.041073 20.15201,8.180693 4.05867,4.39741 5.70053,8.41744 5.98202,14.64676 l 0.0929,2.05588 -1.35884,1.1311 c -1.70238,1.41706 -3.02024,2.26135 -5.34897,3.42683 -1.6239,0.81273 -2.62745,1.14648 -6.19632,2.06067 -0.86184,0.22077 -6.6859,0.31666 -7.27604,0.1198 z m 11.45126,-9.98974 c 3.86081,-2.77448 2.94607,-8.89892 -1.55231,-10.39304 -3.43865,-1.14214 -6.72274,0.66509 -7.68196,4.22736 -0.63862,2.37165 0.64152,5.3021 2.80838,6.42884 1.36959,0.71217 2.07279,0.85038 3.67347,0.72199 1.21099,-0.0971 1.82003,-0.31512 2.75242,-0.98515 z M 27.176656,100.5508 c 0.21879,-0.26363 0.20469,-0.35278 -0.0558,-0.35278 -0.19172,0 -0.34858,0.15875 -0.34858,0.35278 0,0.19403 0.0251,0.35278 0.0558,0.35278 0.0307,0 0.18755,-0.15875 0.34857,-0.35278 z m 61.55222,23.63508 c -2.70296,-0.40132 -8.0106,-1.67998 -9.68286,-2.33269 -0.80727,-0.3151 -1.59673,-1.81774 -1.51545,-2.88447 0.0314,-0.41254 -0.0341,-0.89773 -0.14563,-1.0782 -0.4188,-0.67762 -0.18229,-5.17771 0.37827,-7.19736 1.41581,-5.10111 5.00254,-9.9913 9.53741,-13.003451 1.64869,-1.095089 5.77006,-3.141694 8.43972,-4.191029 2.82915,-1.11202 5.927584,-2.120106 6.516314,-2.120106 0.32792,0 0.65928,-0.102055 0.73637,-0.226785 0.12989,-0.210164 1.77968,-0.590108 4.20768,-0.969023 1.49914,-0.233955 3.79811,0.329475 4.70444,1.152969 2.36751,2.151113 3.17639,12.064135 1.44452,17.703005 -1.128,3.67269 -1.67958,5.03369 -2.67395,6.59786 -1.10244,1.73418 -4.32859,5.15645 -4.66496,4.94855 -0.12099,-0.0748 -0.28668,0.0379 -0.36821,0.25032 -0.34367,0.89561 -4.99111,2.82216 -7.133184,2.95698 -0.62579,0.0394 -1.26718,0.15159 -1.42532,0.24932 -0.47211,0.29178 -6.64364,0.39822 -8.35516,0.14411 z m 4.65739,-9.00867 c 0.5311,-0.27095 1.05899,-0.40843 1.1731,-0.30553 0.11411,0.10291 0.13017,0.0518 0.0357,-0.11365 -0.0945,-0.16541 9e-5,-0.4434 0.21018,-0.61776 0.21009,-0.17436 0.69997,-0.85962 1.08862,-1.52281 0.61726,-1.05328 0.69012,-1.41173 0.57597,-2.83378 -0.27657,-3.44549 -2.58581,-5.7051 -5.83038,-5.7051 -2.39867,0 -4.33264,1.20043 -5.33415,3.31096 -0.92174,1.94243 -0.54057,5.10258 0.78198,6.48302 0.36148,0.37731 0.66664,0.91762 0.67813,1.2007 0.0115,0.28308 0.0806,0.36682 0.15363,0.18608 0.0948,-0.23475 0.2733,-0.2534 0.62477,-0.0653 1.60878,0.86099 4.13607,0.85371 5.84247,-0.0168 z m -46.59384,37.62092 c 0,-0.0968 -0.23267,-0.81252 -0.51703,-1.59051 -0.69189,-1.89292 -0.69805,-6.98245 -0.01,-7.83842 0.11706,-0.14552 0.25365,-0.67526 0.30353,-1.1772 0.0847,-0.85258 0.0385,-0.91454 -0.70306,-0.94197 -0.43656,-0.0161 -1.27,0.15639 -1.85208,0.38344 -1.30037,0.50722 -6.85442,0.57892 -7.83013,0.10108 -0.35009,-0.17146 -1.26161,-0.45123 -2.0256,-0.62171 -0.76398,-0.17048 -1.38906,-0.39484 -1.38906,-0.49857 0,-0.10374 -0.56555,-0.44949 -1.25677,-0.76834 -1.76322,-0.81332 -2.38271,-1.23846 -4.54529,-3.11927 -0.85203,-0.74103 -1.91656,-1.42725 -2.21406,-1.42725 -0.36317,0 0.78145,2.44285 1.54872,3.30528 0.50114,0.5633 0.91116,1.12019 0.91116,1.23754 0,0.11736 1.27992,1.47834 2.84427,3.02441 3.20059,3.16321 3.33012,3.27877 4.43177,3.95383 0.43656,0.26751 1.1353,0.8208 1.55275,1.22954 0.41745,0.40873 0.92347,0.74315 1.12448,0.74315 0.20102,0 0.36548,0.10613 0.36548,0.23585 0,0.12972 0.49612,0.43436 1.10248,0.67698 0.60636,0.24262 1.39632,0.67227 1.75547,0.95477 0.35915,0.28251 0.86514,0.51365 1.12443,0.51365 0.25929,0 0.51113,0.0893 0.55963,0.19843 0.19595,0.44087 2.82732,1.54767 3.74113,1.57357 0.5375,0.0152 0.97728,-0.0515 0.97728,-0.14828 z m 52.84901,-3.20342 c 0.617634,-0.28036 1.846724,-0.65214 2.731304,-0.82617 0.88459,-0.17403 1.75065,-0.44804 1.92459,-0.60892 0.54013,-0.49958 1.95494,-1.21855 2.3979,-1.21855 0.2322,0 0.42219,-0.11104 0.42219,-0.24675 0,-0.13571 0.26789,-0.32179 0.59532,-0.4135 0.32742,-0.0917 0.83343,-0.273 1.12448,-0.40285 0.29104,-0.12985 0.97565,-0.41395 1.52135,-0.63133 0.5457,-0.21738 0.99219,-0.50746 0.99219,-0.64463 0,-0.13717 0.32623,-0.33128 0.72495,-0.43136 0.39872,-0.10007 0.78568,-0.2618 0.8599,-0.35941 0.20135,-0.2648 2.63769,-1.89725 2.83153,-1.89725 0.5771,0 6.58949,-5.41606 6.74028,-6.07175 0.0485,-0.21076 0.40895,-0.66227 0.80106,-1.00336 0.39211,-0.34108 0.97966,-1.06161 1.30567,-1.60116 0.326,-0.53956 0.8801,-1.3315 1.23132,-1.75986 0.35123,-0.42836 0.74299,-1.05343 0.8706,-1.38906 0.1276,-0.33562 0.34111,-0.61023 0.47445,-0.61023 0.13335,0 0.32433,-0.32622 0.42441,-0.72495 0.10007,-0.39872 0.2718,-0.78568 0.38163,-0.85989 0.53638,-0.36249 2.58753,-5.22626 3.04167,-7.21255 0.0915,-0.40018 0.27586,-0.7276 0.40969,-0.7276 0.13383,0 0.31613,-0.56555 0.4051,-1.25678 0.089,-0.69122 0.34758,-1.88851 0.57467,-2.66064 0.22709,-0.77213 0.34436,-1.4724 0.26062,-1.55614 -0.0838,-0.0837 -0.0517,-0.34498 0.0711,-0.5805 0.12285,-0.23553 0.30111,-1.17642 0.39612,-2.09086 0.095,-0.91444 0.29252,-2.28366 0.43891,-3.04271 0.45378,-2.3529 0.33403,-6.13454 -0.4584,-14.47696 -0.076,-0.800364 -0.24632,-1.568317 -0.37843,-1.706562 -0.1321,-0.138245 -0.24148,-0.554964 -0.24305,-0.926042 -0.002,-0.371078 -0.17447,-1.240234 -0.38422,-1.931458 -0.20975,-0.691224 -0.33266,-1.256771 -0.27315,-1.256771 0.19229,0 -1.72361,-5.100785 -2.6622,-7.0877 -0.50099,-1.060577 -0.9109,-2.075884 -0.9109,-2.256232 0,-0.18035 -0.16128,-0.56276 -0.3584,-0.849799 -0.19712,-0.287041 -0.74588,-1.236268 -1.21948,-2.109393 -0.4736,-0.873125 -1.18596,-2.004219 -1.58303,-2.513542 -1.09719,-1.407366 -1.56844,-2.357194 -1.66119,-3.348212 -0.0157,-0.168026 -0.18674,-0.244816 -0.38004,-0.170643 -0.19329,0.07417 -0.78428,-0.32413 -1.3133,-0.885121 -0.52903,-0.56099 -1.30354,-1.383223 -1.72113,-1.827183 -0.4176,-0.443963 -0.75926,-0.890447 -0.75926,-0.992188 0,-0.262358 -1.05439,-1.285372 -1.07693,-1.044881 -0.0102,0.10914 -0.11304,-0.03969 -0.22847,-0.33073 -0.12703,-0.32028 -0.0936,-0.616558 0.0847,-0.750556 0.17778,-0.133594 0.0734,-0.173546 -0.26312,-0.100743 -0.68795,0.148815 -1.42664,-0.236577 -1.42664,-0.744307 0,-0.208278 -0.29954,-0.453867 -0.66564,-0.545754 -0.36611,-0.09188 -0.89518,-0.458867 -1.17572,-0.815514 -0.5908,-0.751091 -2.63419,-2.19062 -3.11958,-2.197685 -0.1819,-0.0026 -0.33073,-0.115856 -0.33073,-0.251568 0,-0.135716 -0.26789,-0.330356 -0.59531,-0.432536 -0.32742,-0.102182 -0.65484,-0.271293 -0.7276,-0.375806 -0.15611,-0.224226 -8.44676,-4.332113 -8.9786,-4.448749 -0.20034,-0.04394 -0.844324,-0.311827 -1.431074,-0.595312 -0.58674,-0.283486 -1.27554,-0.515427 -1.53066,-0.515427 -0.25513,0 -0.53864,-0.121005 -0.63005,-0.268899 -0.0914,-0.147894 -0.25949,-0.211235 -0.37353,-0.140756 -0.11404,0.07048 -1.11256,-0.151146 -2.21893,-0.4925 -1.10637,-0.341352 -2.0764,-0.555826 -2.15562,-0.476605 -0.0792,0.07922 -0.14404,0.0065 -0.14404,-0.161679 0,-0.168145 -0.26789,-0.297685 -0.59531,-0.287869 -0.32743,0.0098 -0.9525,-0.04583 -1.38907,-0.123669 -5.02649,-0.89617 -7.19634,-1.057804 -13.89062,-1.034711 -7.14573,0.02466 -7.88022,0.06401 -10.16563,0.544742 -0.71615,0.150641 -1.4618,0.212604 -1.65702,0.137695 -0.1952,-0.07491 -0.51454,-0.0037 -0.70964,0.158186 -0.19509,0.161915 -0.93771,0.332288 -1.65027,0.378608 -0.71256,0.04632 -1.54287,0.217993 -1.84512,0.381493 -0.30226,0.163499 -0.89757,0.353843 -1.32292,0.422986 -0.42535,0.06914 -0.77336,0.144614 -0.77336,0.167714 0,0.0231 -0.17859,0.08603 -0.39687,0.139843 -0.21829,0.05381 -0.96243,0.277135 -1.65365,0.496269 -0.69122,0.219133 -1.25859,0.314822 -1.26082,0.212643 -0.002,-0.10218 -0.10574,-0.02532 -0.23002,0.170783 -0.12429,0.196112 -0.5391,0.374705 -0.9218,0.396875 -0.38271,0.02217 -0.69593,0.136633 -0.69603,0.254362 -1e-4,0.117729 -0.11102,0.145553 -0.24648,0.06183 -0.13547,-0.08373 -0.32229,-0.02928 -0.41516,0.120991 -0.0929,0.150267 -0.27147,0.209799 -0.39688,0.132292 -0.12541,-0.07751 -0.304,-0.01797 -0.39687,0.132291 -0.0929,0.150268 -0.28051,0.204214 -0.41696,0.119878 -0.13646,-0.08434 -0.5931,0.09232 -1.01475,0.392559 -0.42166,0.300242 -0.8701,0.545897 -0.99653,0.545897 -0.12644,0 -1.64325,0.714375 -3.3707,1.5875 -1.72745,0.873124 -3.29808,1.587499 -3.49028,1.587499 -0.1922,0 -0.4769,0.238125 -0.63266,0.529167 -0.15576,0.291042 -0.39929,0.529167 -0.54119,0.529167 -0.14189,0 -0.85085,0.416718 -1.57547,0.926041 -0.72462,0.509323 -1.41702,0.926042 -1.53867,0.926042 -0.12165,0 -0.49586,0.292388 -0.83158,0.64975 -0.33573,0.357365 -0.70488,0.625256 -0.82035,0.595313 -0.11546,-0.02994 -0.91707,0.630171 -1.78135,1.466916 -0.86427,0.836745 -1.67673,1.527942 -1.80546,1.535993 -0.12873,0.008 -0.50385,0.356611 -0.83361,0.774573 l -0.59955,0.759937 0.54856,0.174106 c 0.30171,0.09576 0.66081,0.469329 0.798,0.830151 0.31274,0.822571 0.31606,0.780746 -0.095,1.198007 -0.44041,0.447022 -1.29766,2.251977 -2.12695,4.478303 -1.11321,2.988556 -1.38623,5.877044 -0.81641,8.637471 0.11541,0.559078 0.25544,0.595378 2.30066,0.596392 2.84607,0.0013 11.12342,1.210072 12.1931,1.780442 0.45792,0.244168 0.93552,0.414919 1.06132,0.379444 0.54519,-0.153731 5.19522,1.696905 5.19522,2.067615 0,0.138999 0.16929,0.187765 0.3762,0.108366 0.41256,-0.158314 1.21187,0.199337 1.83247,0.819936 0.8315,0.831498 1.45704,0.06526 1.6593,-2.032503 0.11623,-1.205468 0.0783,-1.28325 -1.31442,-2.698446 -0.78875,-0.80146 -1.35855,-1.541909 -1.26621,-1.645443 0.0923,-0.103534 0.0273,-0.107686 -0.14457,-0.0092 -0.73947,0.423701 -2.39664,-1.960936 -2.50759,-3.608364 -0.0628,-0.932931 0.43523,-1.892675 0.84938,-1.63672 0.12008,0.07422 0.31495,-0.02154 0.43304,-0.21281 0.24969,-0.404434 1.81981,-0.898922 3.52199,-1.109202 2.70898,-0.334655 3.21773,-0.489693 3.92378,-1.195744 0.40113,-0.401127 0.68446,-0.863915 0.62962,-1.028415 -0.0941,-0.282262 1.33584,-2.322274 1.92205,-2.742109 0.16298,-0.116724 0.16858,-0.196004 0.014,-0.198438 -0.14157,-0.0021 0.13367,-0.361238 0.61165,-0.797801 0.47797,-0.436562 1.0254,-0.79375 1.21651,-0.79375 1.34163,0 2.18988,0.46976 3.89273,2.155799 1.00706,0.997122 1.73757,1.817941 1.62335,1.824043 -0.11422,0.0061 0.17275,0.214458 0.6377,0.46302 0.71783,0.383741 1.33659,0.428578 4.10104,0.297162 3.30634,-0.157179 4.24476,-0.0016 4.90091,0.812998 0.53794,0.667774 0.3812,1.765104 -0.48148,3.370702 -0.95995,1.786654 -1.53874,2.498121 -1.86713,2.295162 -0.12968,-0.08015 -0.21873,-0.04757 -0.19789,0.07238 0.10212,0.587859 -0.10988,0.983713 -1.105,2.063295 -0.85869,0.931566 -1.04192,1.296622 -0.89342,1.780024 0.35182,1.145246 1.7192,3.915409 1.93268,3.915409 0.11732,0 0.49294,-0.297656 0.83471,-0.661458 0.34178,-0.363802 0.77925,-0.661458 0.97216,-0.661458 0.19292,0 0.35076,-0.104974 0.35076,-0.233273 0,-0.128299 0.56203,-0.598868 1.24896,-1.04571 0.90207,-0.58679 1.30512,-0.724085 1.45116,-0.494331 0.1967,0.309459 0.24084,0.254137 0.30952,-0.387969 0.0314,-0.293754 1.16354,-1.094534 2.01744,-1.426993 0.21828,-0.08499 0.63046,-0.281652 0.91595,-0.437037 1.94327,-1.057653 2.78821,-1.4738 2.78821,-1.373221 0,0.06369 0.56652,-0.171281 1.25893,-0.522153 1.68319,-0.852932 5.35859,-2.259843 7.03956,-2.694675 0.74734,-0.193326 2.01365,-0.538655 2.81401,-0.7674 0.80037,-0.228748 1.69334,-0.462966 1.98438,-0.520486 0.29104,-0.05752 1.654684,-0.353129 3.030324,-0.65691 1.37563,-0.303781 2.94862,-0.552328 3.49553,-0.552328 0.93086,0 1.01201,-0.06548 1.27043,-1.025179 0.26991,-1.002376 0.018,-5.02213 -0.39176,-6.250863 -0.59319,-1.778833 -1.72229,-4.152275 -2.10638,-4.42772 -0.14908,-0.106912 -0.16943,-0.196209 -0.0452,-0.198437 0.12421,-0.0021 -0.14368,-0.424913 -0.59531,-0.9393 -0.96329,-1.097118 -1.02122,-1.649476 -0.27279,-2.600944 0.61872,-0.78658 1.13688,-0.862356 2.09746,-0.306742 0.3638,0.210428 0.84005,0.470794 1.05833,0.578591 0.93548,0.461978 2.08098,1.359762 1.92894,1.5118 -0.0908,0.09077 0.0334,0.165044 0.27592,0.165044 0.24254,0 0.44098,0.09991 0.44098,0.222017 0,0.122108 0.47488,0.44953 1.0553,0.727605 0.58041,0.278071 1.05666,0.577503 1.05833,0.665403 0.002,0.0879 0.77694,0.937538 1.72283,1.888085 0.94588,0.95055 1.71979,1.924166 1.71979,2.163593 0,0.239427 0.17965,0.504261 0.39924,0.588523 0.21958,0.08426 1.03585,1.062792 1.81395,2.17451 1.4196,2.028293 1.72956,2.548046 2.89523,4.854739 0.3463,0.685263 0.74316,1.399638 0.88191,1.5875 0.30394,0.41149 1.15012,2.36529 2.03867,4.707191 0.61418,1.618766 1.82903,6.374365 2.5346,9.921875 0.4619,2.322308 0.65473,10.937686 0.30795,13.758336 -0.61192,4.97722 -1.3531,8.37812 -1.86334,8.54991 -0.13598,0.0458 -0.17993,0.25863 -0.0977,0.47299 0.18755,0.48876 -0.43854,2.23361 -1.84158,5.13231 -1.1581,2.39263 -3.5411,6.08542 -3.92701,6.08542 -0.12734,0 -0.23154,0.15905 -0.23154,0.35346 0,0.29957 -2.51208,2.82416 -4.12391,4.14445 -1.23723,1.01344 -4.15763,2.91042 -4.4806,2.91042 -0.19805,0 -0.42679,0.10792 -0.50831,0.23982 -0.21597,0.34946 -2.33515,1.05764 -4.89669,1.63636 -2.3957,0.54125 -7.686324,0.7125 -7.686324,0.24879 0,-0.14095 -0.17859,-0.18775 -0.39687,-0.10399 -0.44498,0.17076 -0.54619,1.55967 -0.1323,1.81548 0.14553,0.0899 0.26459,0.35547 0.26459,0.59009 0,0.23462 0.15921,0.61454 0.3538,0.84428 0.35334,0.41717 1.14166,2.77168 1.88861,5.64081 0.34474,1.3242 0.34782,1.7652 0.024,3.43959 -0.20429,1.05635 -0.45336,2.129 -0.55348,2.38366 -0.25307,0.64364 0.97037,0.61454 2.45274,-0.0583 z m -124.61591,-5.10103 c -0.13135,-0.39883 -1.2581,-0.6104 -1.2581,-0.23624 0,0.23111 0.44306,0.43835 1.14653,0.53628 0.12127,0.0169 0.17147,-0.11814 0.11157,-0.30004 z m 75.33877,-6.81302 c 0.0899,-0.14552 -0.0221,-0.26459 -0.24897,-0.26459 -0.22687,0 -0.41249,0.11907 -0.41249,0.26459 0,0.14552 0.11204,0.26458 0.24897,0.26458 0.13693,0 0.32255,-0.11906 0.41249,-0.26458 z m 42.33333,-3.70417 c 0.0899,-0.14552 -0.0291,-0.26458 -0.26458,-0.26458 -0.23546,0 -0.35452,0.11906 -0.26458,0.26458 0.0899,0.14552 0.209,0.26458 0.26458,0.26458 0.0556,0 0.17465,-0.11906 0.26458,-0.26458 z M 66.887016,97.326873 c 0.50177,-0.943232 1.00779,-1.714966 1.12448,-1.714966 0.1167,0 0.21218,-0.113776 0.21218,-0.252833 0,-0.13906 0.29765,-0.691454 0.66145,-1.227548 0.36381,-0.536091 0.65897,-1.106926 0.65593,-1.268521 -0.003,-0.161594 -0.90566,-0.710525 -2.00581,-1.219848 -1.10014,-0.509323 -2.11387,-1.134401 -2.25273,-1.389062 -0.45875,-0.841343 -1.63602,-0.572765 -2.70398,0.616878 -0.5332,0.593945 -0.96945,1.176348 -0.96945,1.294234 0,0.117885 -0.29765,0.289041 -0.66146,0.380349 -1.0333,0.259344 -0.80762,1.001813 0.82245,2.70579 0.81615,0.853152 1.82674,2.046801 2.24577,2.652554 1.27347,1.840962 1.62216,1.770888 2.87117,-0.577027 z m -6.23902,-8.131112 c 1.18345,-1.055026 2.19141,-2.007525 2.23991,-2.116666 0.21065,-0.473948 1.63433,-0.12804 2.96678,0.720831 0.79362,0.5056 1.57719,0.922319 1.74128,0.926041 0.16408,0.0037 0.43464,0.171019 0.60124,0.371764 0.5252,0.632822 3.16691,1.111337 3.24479,0.58775 0.12001,-0.806894 0.0687,-3.534502 -0.0649,-3.452389 -0.25431,0.156258 -1.02422,-2.605145 -0.94046,-3.37308 0.0742,-0.680516 0.94295,-1.854861 3.16086,-4.272901 1.23819,-1.349926 1.66842,-2.290009 1.18488,-2.589049 -0.18754,-0.11598 -0.99583,-0.156342 -1.79619,-0.08969 -4.3833,0.365013 -4.75014,0.363519 -5.13456,-0.0209 -0.21114,-0.211138 -0.44075,-0.383892 -0.51025,-0.383892 -0.0695,0 -0.92843,-0.830808 -1.90875,-1.846242 -2.03075,-2.103485 -2.60969,-2.398426 -3.31182,-1.687187 -0.73523,0.744776 -1.71599,2.188988 -2.5283,3.723058 -0.40198,0.75914 -0.9034,1.446459 -1.11426,1.527376 -0.21087,0.08092 -1.40839,0.258826 -2.66117,0.395354 -3.08145,0.33582 -4.26214,0.698177 -4.26214,1.308068 0,0.281003 0.94663,1.297784 2.24973,2.416434 3.12373,2.681589 3.11849,2.671196 2.90206,5.75946 -0.16647,2.375252 -0.13802,2.611102 0.39635,3.28649 0.31662,0.400183 0.75963,0.727605 0.98445,0.727605 0.22482,0 1.37703,-0.863204 2.56048,-1.91823 z m 15.77776,-13.692186 c 0,-0.145521 -0.11906,-0.264584 -0.26458,-0.264584 -0.14553,0 -0.26459,0.119063 -0.26459,0.264584 0,0.14552 0.11906,0.264583 0.26459,0.264583 0.14552,0 0.26458,-0.119063 0.26458,-0.264583 z m 40.216664,-2.749817 c 0,-0.05719 -0.18477,-0.17489 -0.41061,-0.261554 -0.23546,-0.09035 -0.34167,-0.046 -0.24897,0.103984 0.15538,0.251409 0.65958,0.371858 0.65958,0.15757 z m -2.87758,-3.406156 c -0.26131,-0.259361 -0.2917,-0.228971 -0.14811,0.148114 0.0994,0.260937 0.2473,0.407781 0.32876,0.326318 0.0815,-0.08146 1.7e-4,-0.294955 -0.18065,-0.474432 z"
       id="path2041" /></g></svg>
