<?xml version="1.0" encoding="UTF-8" standalone="no"?>
<!-- Created with Inkscape (http://www.inkscape.org/) -->

<svg
   width="204.12036mm"
   height="240.85112mm"
   viewBox="0 0 204.12036 240.85105"
   version="1.1"
   id="svg5"
   xml:space="preserve"
   xmlns="http://www.w3.org/2000/svg"
   xmlns:svg="http://www.w3.org/2000/svg"><defs
     id="defs2" /><g
     id="layer1"
     transform="translate(-44.564935,29.790661)"><path
       style="fill:#000000;stroke-width:0.264583"
       d="m 99.196708,210.80672 c -0.50933,-0.13287 -1.10464,-0.28859 -1.32292,-0.34606 -2.38437,-0.62769 -4.90702,-2.61959 -6.04295,-4.77153 -0.66617,-1.26202 -0.70167,-1.51802 -0.66181,-4.77313 0.0471,-3.8477 0.86338,-8.88272 2.46453,-15.20229 0.44608,-1.76063 2.38533,-6.61796 3.09215,-7.74505 0.3404,-0.54281 0.61891,-1.06302 0.61891,-1.15602 0,-0.33253 1.96904,-3.44051 3.112402,-4.9127 1.14569,-1.47518 1.16152,-1.52326 0.97994,-2.97656 -0.10151,-0.81244 -0.23004,-1.47717 -0.28562,-1.47717 -0.0556,0 -0.81956,0.52893 -1.697722,1.17539 -1.87331,1.37906 -3.73323,2.29892 -5.99762,2.96627 -1.53196,0.45149 -1.64258,0.53809 -1.80215,1.41082 -0.21471,1.17426 -1.45002,3.97252 -1.75369,3.97252 -0.12565,0 -0.22845,0.13759 -0.22845,0.30576 0,0.53375 -1.34526,2.09291 -1.64563,1.90728 -0.17958,-0.11099 -0.21173,-0.0544 -0.0853,0.15019 0.53271,0.86195 -3.6083,3.9099 -6.58123,4.84405 -2.70902,0.85122 -7.67106,0.84167 -10.43887,-0.0201 -2.02151,-0.62941 -3.85771,-1.66409 -4.10727,-2.31442 -0.0791,-0.20618 -0.3039,-0.37486 -0.49952,-0.37486 -0.93859,0 -2.81818,-3.04551 -2.83012,-4.58568 -0.004,-0.46693 0.33438,-1.16476 0.89709,-1.85208 0.71456,-0.87281 1.05025,-1.70321 1.60931,-3.98091 1.19154,-4.85459 3.11326,-8.0439 6.22886,-10.33747 2.36338,-1.73983 4.53083,-2.38974 7.92768,-2.37714 3.16436,0.0118 4.90987,0.5354 6.93249,2.07978 l 1.16324,0.8882 0.98617,-0.73531 c 0.54239,-0.40442 3.5428,-3.2491 6.66757,-6.32151 3.12477,-3.07242 5.839322,-5.58621 6.032342,-5.58621 0.19302,0 0.63756,-0.30509 0.98786,-0.67797 0.35031,-0.37289 1.02385,-0.91711 1.49677,-1.20939 0.57345,-0.35441 1.13184,-1.10132 1.67643,-2.24241 0.90618,-1.89873 2.81242,-4.78737 3.98397,-6.03716 0.41931,-0.4473 0.76292,-0.90052 0.7636,-1.00715 7.9e-4,-0.10662 0.29398,-0.52334 0.6518,-0.92604 1.67614,-1.88639 2.05082,-2.48147 1.92312,-3.05437 -0.0721,-0.32352 -0.33914,-1.36213 -0.59339,-2.30801 -0.36876,-1.3719 -0.43156,-2.33989 -0.31048,-4.78518 0.17459,-3.52579 0.97253,-6.24091 2.86247,-9.74002 l 1.1101,-2.05529 -0.85326,-1.24016 c -2.34185,-3.40376 -3.35388,-7.2408 -3.10485,-11.77176 0.19601,-3.566205 0.15505,-3.156979 0.62512,-6.244653 l 0.40068,-2.631861 -0.63144,-0.543139 c -0.65074,-0.559745 -0.75573,-0.731025 -0.75573,-1.232908 0,-0.162253 -0.19272,-0.218935 -0.43208,-0.127085 -0.54574,0.209418 -3.36533,-1.860939 -3.10595,-2.280621 0.11388,-0.184263 0.0577,-0.215865 -0.15265,-0.08587 -0.45141,0.278985 -5.15272,-4.477154 -4.94937,-5.007083 0.0873,-0.227544 -0.0554,-0.445492 -0.35373,-0.540176 -0.50295,-0.159631 -2.51809,-2.732191 -2.30617,-2.944103 0.0624,-0.06242 -0.25682,-0.519134 -0.70943,-1.014918 -0.820302,-0.898565 -4.591362,-7.81559 -4.260942,-7.81559 0.0956,0 -0.0666,-0.389149 -0.36057,-0.864778 -0.29395,-0.475628 -0.59083,-1.175628 -0.65972,-1.555556 -0.0689,-0.379929 -0.29519,-1.032574 -0.50289,-1.450327 -0.2077,-0.417751 -0.64254,-1.83111 -0.96633,-3.140797 -0.32379,-1.309688 -0.69251,-2.797969 -0.8194,-3.307292 -0.12688,-0.509323 -0.37305,-1.921912 -0.54705,-3.139085 l -0.31635,-2.213044 -1.51901,0.171855 c -2.17431,0.245996 -8.02584,-0.284938 -11.70744,-1.06226 -6.72093,-1.419042 -12.34161,-3.814204 -16.99863,-7.243698 -2.43864,-1.795852 -5.7392,-5.003162 -5.5176,-5.361718 0.0995,-0.160927 0.0519,-0.207483 -0.10983,-0.107526 -0.34819,0.215196 -1.48338,-1.307214 -1.25285,-1.680218 0.0906,-0.146513 -0.0691,-0.266388 -0.35467,-0.266388 -0.8649,0 -4.11031,-5.368123 -6.00228,-9.928158 -1.07774,-2.59759 -2.34361,-6.416006 -2.71704,-8.1958 -0.84994,-4.050836 -0.96994,-5.061084 -0.97429,-8.202082 -0.006,-4.0495485 0.31018,-5.4125865 1.79303,-7.7390624 0.95419,-1.4970362 1.25087,-1.7719674 1.8241,-1.6903514 0.10027,0.014288 0.257,-0.2093595 0.34828,-0.4969695 0.18736,-0.5902986 1.97543,-1.7161694 3.17357,-1.9982496 0.43656,-0.1027801 0.91281,-0.2723356 1.05833,-0.3767879 1.04542,-0.75038469 8.03021,-1.44826799 12.03854,-1.20283009 5.6334,0.3449425 10.19854,1.22016039 14.55209,2.78988029 1.23692,0.4459896 2.42755,0.8551412 2.64583,0.9092273 0.86191,0.2135637 3.9688,1.663401 6.46257,3.0157763 3.12058,1.6922934 9.41243,5.767789 9.41243,6.096823 0,0.127309 0.35719,0.379423 0.79375,0.560252 0.43656,0.18083 0.79375,0.445365 0.79375,0.587854 0,0.278828 1.850012,-2.378694 1.855192,-2.664963 0.002,-0.09452 0.90355,-1.243412 2.00407,-2.553099 l 2.00097,-2.3812499 -0.15011,-1.7197916 c -0.0826,-0.9458854 -0.15096,-2.3418137 -0.15199,-3.1020595 -0.002,-1.29742929 -0.0953,-1.49230549 -1.52324,-3.1749998 -2.03258,-2.395156 -2.63535,-3.578759 -2.99149,-5.874133 -0.36845,-2.374744 -0.009,-4.6274442 1.02638,-6.4332462 1.26455,-2.205389 2.28861,-3.621028 2.62657,-3.6309 0.1819,-0.0053 0.33073,-0.11741 0.33073,-0.249103 0,-0.391276 2.35738,-1.653984 3.81002,-2.040798 3.78078,-1.006762 7.30347,-0.07863 10.08449,2.656996 2.39775,2.358605 2.88883,3.766431 2.84504,8.1560562 -0.0243,2.434418 0.0532,3.37338 0.2785,3.373231 0.17169,-1.13e-4 0.78841,-0.428865 1.37049,-0.952783 3.04173,-2.737773 9.2544,-4.3860772 16.73488,-4.4399862 l 4.29946,-0.03098 2e-5,-1.063062 c 1e-5,-0.706231 -0.22866,-1.399592 -0.68127,-2.06566 -3.54323,-5.214331 -1.66205,-11.984054 4.11082,-14.793457 1.60151,-0.779385 1.93594,-0.842631 4.50797,-0.852537 2.44908,-0.0094 2.95098,0.07039 4.23762,0.673948 0.80273,0.376557 1.63616,0.852807 1.85208,1.058334 0.21593,0.205527 0.83344,0.70287 1.37226,1.105207 0.65312,0.487688 1.31456,1.409071 1.98437,2.764228 0.8761,1.772503 1.00471,2.271567 1.00471,3.898686 0,2.92266 -0.8571,4.883362 -3.09103,7.071093 -0.99155,0.971042 -1.74938,1.923542 -1.68406,2.116667 0.0653,0.193124 0.24828,0.857152 0.4066,1.4756152 0.23485,0.917464 0.40096,1.124479 0.90226,1.124479 2.27068,0 8.99063,1.936509 12.35935,3.561633 0.945,0.455882 1.45503,0.583496 1.52254,0.380955 0.0558,-0.167513 0.32477,-0.527809 0.59762,-0.800661 0.27285,-0.272851 0.43414,-0.496094 0.35842,-0.496094 -0.17438,0 0.77713,-1.771816 1.42088,-2.645833 0.26796,-0.363802 0.82967,-1.197239 1.24825,-1.8520832 1.98196,-3.100628 7.20096,-8.61873 9.67296,-10.2273 0.63637,-0.414099 1.68514,-1.149758 2.3306,-1.634798 2.93148,-2.202909 8.41931,-4.394917 12.21263,-4.878097 1.92633,-0.245371 2.54983,-0.22147 4.08125,0.156446 0.99417,0.245335 2.00444,0.624229 2.24506,0.841989 0.24063,0.21776 0.54982,0.395927 0.68711,0.395927 0.41766,0 2.22226,1.602358 2.22226,1.973208 0,0.190951 0.29128,0.538032 0.64727,0.771291 0.78274,0.512865 2.61791,4.193565 3.1819,6.381732 1.09325,4.241619 1.04877,10.5872542 -0.11316,16.14147721 -1.7559,8.39349789 -6.20497,17.24001879 -11.11851,22.10799979 -1.56326,1.548762 -3.72585,3.159707 -4.24171,3.159707 -0.19127,0 -0.24909,0.269938 -0.15586,0.727604 0.4566,2.24137 0.70703,4.588861 0.862,8.080253 l 0.17368,3.913068 1.08272,1.133224 c 0.59549,0.623273 1.25617,1.481767 1.46818,1.907764 0.212,0.426001 0.54843,0.97246 0.74761,1.214358 0.19918,0.241898 0.39013,0.599086 0.42435,0.79375 0.0342,0.194665 0.32473,0.770655 0.64561,1.279978 1.31844,2.092737 2.21014,5.916511 2.68395,11.509374 0.14794,1.74625 0.38171,3.770312 0.5195,4.497917 1.20598,6.368504 -1.51616,13.667009 -7.60301,20.384925 -1.18067,1.303083 -2.81706,2.905021 -3.63641,3.559865 -0.81935,0.654844 -1.63875,1.32888 -1.8209,1.497857 -1.77095,1.642953 -9.65636,6.091665 -12.98366,7.324997 -0.58209,0.215759 -1.89177,0.709443 -2.91042,1.097068 -3.14528,1.196882 -7.58788,2.211509 -11.79281,2.693313 l -4.02447,0.461129 0.16916,2.78938 c 0.1831,3.019332 0.65114,6.140042 1.39055,9.271672 0.25769,1.09141 0.45039,2.05949 0.42824,2.15131 -0.15368,0.63678 3.32089,2.3826 6.21003,3.12027 2.12373,0.54223 5.91294,1.21967 11.0839,1.98157 3.39566,0.50033 7.53795,1.52382 10.4223,2.57518 2.64723,0.96494 7.77793,3.52836 9.66102,4.82688 0.7276,0.50173 1.87482,1.2696 2.54937,1.70638 l 1.22646,0.79413 1.35668,-2.08293 c 0.74618,-1.14561 1.42218,-2.25361 1.50223,-2.46222 0.14785,-0.38528 -0.28647,-1.3105 -1.51053,-3.21786 -1.59543,-2.48604 -2.60119,-6.67886 -2.60217,-10.84792 -7.9e-4,-2.9871 0.3556,-5.06772 1.35927,-7.937498 0.99899,-2.856384 2.85049,-6.127327 3.25863,-5.75682 0.12151,0.110313 0.14208,0.06273 0.0457,-0.105738 -0.35693,-0.623914 3.74436,-5.266955 6.5594,-7.425851 3.39521,-2.603839 5.8972,-3.512632 9.67058,-3.512632 2.79289,0 4.75523,0.490125 7.6613,1.913527 4.55626,2.231665 9.1881,6.658234 12.14298,11.604823 2.54549,4.261249 4.27388,9.854169 4.27181,13.823149 -0.001,2.1323 -0.49316,3.24928 -1.76468,4.00593 -0.41133,0.24477 -1.22077,1.27887 -1.79877,2.298 -0.57799,1.01913 -1.26593,1.96804 -1.52876,2.1087 -0.26283,0.14067 -0.40667,0.37095 -0.31965,0.51175 0.422,0.68282 -5.26116,6.52124 -7.8008,8.01391 -0.93736,0.55094 -2.60424,1.31912 -3.70417,1.70707 -1.8235,0.64317 -2.34992,0.70563 -5.96864,0.70817 -2.95315,0.002 -4.52588,-0.12503 -6.14594,-0.49672 -1.68136,-0.38575 -2.26226,-0.42892 -2.5507,-0.18953 -0.20543,0.17049 -1.14125,1.58615 -2.07959,3.14591 -1.41322,2.34911 -1.73316,3.10023 -1.86384,4.37556 -0.0868,0.84679 -0.30154,1.71288 -0.47727,1.92462 -0.17574,0.21175 -0.25267,0.45185 -0.17096,0.53356 0.20497,0.20497 -1.21562,3.48202 -2.25778,5.20827 -1.96268,3.25104 -4.5723,5.99317 -6.60349,6.93879 -1.53025,0.71241 -3.79589,0.86916 -5.54419,0.38357 -1.33735,-0.37145 -3.43424,-2.33175 -4.33546,-4.05305 l -0.75016,-1.43279 -2.20491,-0.43323 c -2.09102,-0.41085 -4.07135,-1.00407 -7.57839,-2.27015 -0.85374,-0.30821 -1.5856,-0.52468 -1.62635,-0.48105 -0.0408,0.0436 0.16517,0.9723 0.45761,2.06371 0.72941,2.72225 0.78977,7.06006 0.12231,8.78987 -0.26511,0.68708 -0.80254,1.52052 -1.19427,1.85208 -0.39173,0.33156 -1.00252,1.01956 -1.3573,1.52888 -0.35479,0.50932 -0.71101,0.98557 -0.79161,1.05833 -0.0806,0.0728 -0.47074,0.56749 -0.86698,1.0994 -0.39624,0.53191 -1.1397,1.22623 -1.65214,1.54294 -0.51244,0.3167 -0.93171,0.7344 -0.93171,0.92823 0,0.19382 -0.50601,0.71554 -1.12448,1.15938 -0.61846,0.44384 -1.28052,0.94183 -1.47125,1.10664 -0.19072,0.16482 -1.42931,0.80573 -2.75242,1.42426 -1.74204,0.81437 -2.30326,1.18942 -2.03448,1.35959 0.20415,0.12925 0.43071,0.23897 0.50347,0.24381 0.30489,0.0203 7.1877,3.62804 9.26041,4.854 3.57023,2.1117 7.30988,4.55521 7.90714,5.16655 1.99037,2.03733 2.34835,2.92531 2.05174,5.08936 -0.089,0.64892 -0.54188,2.0984 -1.00651,3.22107 -0.6718,1.62325 -1.20082,2.39627 -2.58347,3.77507 -3.40903,3.39952 -6.9055,4.16301 -11.56605,2.52555 -5.29098,-1.85895 -7.44045,-2.57358 -10.81014,-3.59401 -2.03729,-0.61695 -4.59713,-1.35188 -5.68854,-1.63319 -1.09141,-0.28131 -3.53219,-0.99573 -5.42396,-1.5876 l -3.43958,-1.07614 -3.04271,0.56355 c -1.67349,0.30995 -5.00724,0.74416 -7.40833,0.9649 -4.82897,0.44395 -5.67036,0.61869 -8.25713,1.71485 -5.88737,2.49481 -11.3645,7.67389 -15.55721,14.71064 -2.38349,4.00026 -3.19652,5.1438 -4.87223,6.85283 -1.387,1.41457 -1.88147,1.73351 -3.4283,2.21128 -1.88001,0.58068 -3.86948,0.67641 -5.455962,0.26255 z m 4.624312,-3.5212 c 1.28321,-0.53616 2.56549,-1.78312 3.9394,-3.83091 1.54321,-2.3001 1.69638,-2.91531 0.90898,-3.65088 -2.07056,-1.9343 -9.147202,-4.88316 -12.380432,-5.15896 l -0.92337,-0.0788 -0.45225,2.51354 c -1.02701,5.70799 -0.39741,8.06427 2.56356,9.59416 1.97729,1.02163 4.728332,1.28693 6.344112,0.61182 z m 7.01735,-8.63409 c 0,-0.15411 0.12201,-0.20479 0.27114,-0.11263 0.14913,0.0922 0.24607,0.0694 0.21543,-0.0505 -0.12051,-0.47181 0.83315,-2.15269 2.15028,-3.78998 1.83662,-2.28305 3.67403,-4.23333 3.98834,-4.23333 0.13969,0 0.25398,-0.12477 0.25398,-0.27727 0,-0.35668 1.35673,-1.5555 1.77279,-1.56645 0.17467,-0.005 0.41279,-0.16821 0.52917,-0.36359 0.11637,-0.19537 0.56877,-0.58069 1.00533,-0.85625 0.43656,-0.27557 0.91281,-0.64721 1.05833,-0.82586 0.14552,-0.17866 1.66102,-1.04398 3.36778,-1.92294 3.64973,-1.87957 6.14459,-2.54344 11.02212,-2.93291 10.9247,-0.87234 16.91403,-3.53922 21.95411,-9.77556 0.52923,-0.65484 1.02177,-1.25016 1.09453,-1.32292 0.35685,-0.35684 1.51902,-2.8907 1.38659,-3.02313 -0.0835,-0.0835 -0.5785,-0.15108 -1.09996,-0.15011 -0.52144,0.001 -2.07449,-0.31695 -3.45119,-0.70648 l -2.50311,-0.70823 -5.44404,5.60127 c -2.99422,3.08069 -5.39387,5.60127 -5.33256,5.60127 0.0613,0 -0.20912,0.25217 -0.60096,0.56039 -1.03583,0.81478 -3.16307,1.55666 -4.455,1.55369 -2.31808,-0.005 -5.45025,-2.11693 -6.5949,-4.44601 -0.50227,-1.02199 -0.60776,-1.65852 -0.60015,-3.6212 0.0124,-3.18515 0.63982,-4.61879 2.94672,-6.73264 l 1.69383,-1.55209 -0.51856,-1.54618 c -0.28521,-0.85039 -0.83174,-3.33211 -1.21451,-5.51492 -0.9324,-5.31715 -1.47346,-7.51637 -2.9292,-11.90625 -0.67559,-2.03729 -1.29386,-4.32925 -1.37394,-5.09323 -0.13153,-1.25497 -0.0953,-1.38906 0.37574,-1.38906 1.29638,0 5.24097,7.8245 6.00234,11.90625 0.29606,1.58721 0.39841,1.62915 2.29535,0.9406 0.95664,-0.34724 2.53315,-0.66831 3.56014,-0.72506 l 1.84321,-0.10184 0.5326,-3.16571 c 0.29293,-1.74113 0.60627,-3.28476 0.69629,-3.43028 0.09,-0.14553 0.24034,-0.69021 0.33403,-1.21042 0.0937,-0.52021 0.40697,-1.19984 0.6962,-1.51029 0.28923,-0.31045 0.52588,-0.69388 0.52588,-0.85206 0,-0.15817 0.59584,-1.17059 1.32409,-2.24981 l 1.32409,-1.96222 -0.62316,-1.39927 c -0.57735,-1.29639 -2.51858,-4.84829 -5.58274,-10.21481 -0.69118,-1.21052 -1.21506,-2.24259 -1.16417,-2.29347 0.16087,-0.16087 0.87515,0.49824 1.35819,1.25328 0.25601,0.40019 0.64133,0.72761 0.85625,0.72761 0.21493,0 0.39078,0.11906 0.39078,0.26458 0,0.14552 0.26789,0.52773 0.59531,0.84936 1.14501,1.12473 2.63501,3.27439 4.20507,6.06675 l 1.58283,2.81506 1.24017,-1.22972 c 2.91609,-2.89155 6.07205,-4.80128 8.85961,-5.3611 1.72848,-0.34713 5.1589,0.0461 6.08975,0.69811 0.78034,0.54658 0.92152,0.49804 0.77535,-0.26658 -0.0695,-0.36381 -0.22454,-0.66146 -0.34444,-0.66146 -0.11989,0 -0.75814,-0.96052 -1.41834,-2.1345 -4.11631,-7.31971 -6.86655,-16.60733 -7.43777,-25.11758 -0.23358,-3.479887 -0.25139,-3.52433 -1.33115,-3.321767 -1.35558,0.254312 -13.72455,0.178924 -18.50493,-0.112781 -4.71755,-0.287875 -6.03525,-0.427983 -7.87443,-0.837264 -0.69291,-0.154196 -1.41897,-0.219297 -1.61346,-0.144666 -0.2716,0.104222 -0.39037,1.383797 -0.5121,5.517228 -0.0872,2.95985 -0.29003,6.75076 -0.45079,8.42425 -0.39649,4.12752 -1.31203,10.59356 -1.57143,11.0983 -0.11619,0.22609 -0.29186,0.85755 -0.39037,1.40326 -0.11007,0.60973 -0.32747,0.99218 -0.56399,0.99218 -0.26223,0 -0.38489,0.29016 -0.38489,0.91043 0,0.50073 -0.11906,0.98401 -0.26458,1.07395 -0.14552,0.0899 -0.26459,0.34928 -0.26459,0.57632 0,0.45072 -1.8252,3.60251 -2.16885,3.74521 -0.11682,0.0485 -0.2124,0.25229 -0.2124,0.45286 0,0.20057 -0.50601,0.89861 -1.12447,1.55121 -0.61847,0.65259 -1.48167,1.6283 -1.91823,2.16824 -0.43657,0.53995 -1.21182,1.46909 -1.7228,2.06477 -2.61016,3.04286 -3.74191,4.4367 -5.11092,6.29449 -0.82536,1.12004 -1.50066,2.1227 -1.50066,2.22813 0,0.10543 -0.16313,0.37965 -0.36251,0.60939 -0.55912,0.64425 -2.48707,4.40728 -3.49802,6.82752 -0.50002,1.19707 -1.22996,3.45925 -1.62209,5.02709 -0.6169,2.46647 -0.71447,3.40323 -0.72403,6.95164 -0.009,3.3116 0.0821,4.36822 0.47285,5.48898 0.55962,1.60506 0.34609,2.69765 -0.76055,3.89174 -0.35717,0.38539 -0.6494,0.76496 -0.6494,0.84349 0,0.0785 -0.75131,1.35232 -1.66959,2.83064 -3.233632,5.20579 -5.046402,9.85296 -6.381142,16.3586 -0.0912,0.44446 0.36689,0.62101 5.801772,2.23615 1.84994,0.54976 7.4334,3.33192 8.19474,4.08331 0.56663,0.55923 1.19797,0.68298 1.19797,0.23481 z m -10.969182,-5.46905 c -0.28497,-0.0724 -0.79479,-0.31289 -1.13293,-0.53445 -0.58946,-0.38622 -0.59567,-0.42396 -0.15075,-0.9156 0.36197,-0.39997 0.37838,-0.49391 0.0746,-0.42705 -0.78463,0.1727 -0.35937,-2.38595 0.92965,-5.59332 0.668072,-1.66229 1.328712,-3.15976 1.468092,-3.32771 0.13939,-0.16795 0.62923,-0.31605 1.08853,-0.32911 0.4593,-0.0131 0.92114,-0.16297 1.0263,-0.33313 0.1413,-0.22862 0.24965,-0.21567 0.41507,0.0496 0.32637,0.52337 0.40551,1.28502 0.13352,1.28502 -0.12904,0 -0.30824,0.19185 -0.39822,0.42633 -0.12059,0.31426 -0.0508,0.38307 0.26528,0.26176 0.86394,-0.33153 4.83717,2.42507 4.4345,3.07662 -0.0656,0.10621 0.0155,0.44504 0.18028,0.75296 0.24689,0.46133 0.20637,0.64676 -0.23026,1.05354 -0.30907,0.28794 -0.47584,0.70035 -0.40019,0.98964 0.0747,0.28552 -0.13599,0.82315 -0.49645,1.26704 -0.34438,0.42408 -0.83215,1.09849 -1.08393,1.49867 -0.53219,0.84588 -1.68376,0.97552 -2.92321,0.3291 -1.02414,-0.53412 -1.56476,-0.49716 -1.95888,0.13392 -0.34152,0.54686 -0.37541,0.55604 -1.241002,0.33617 z m 11.199542,-10.65954 c -2.20209,-0.37209 -4.69286,-1.77183 -4.31547,-2.42517 0.11066,-0.19158 0.10165,-0.25795 -0.02,-0.14747 -0.2328,0.21137 -1.45111,-0.78657 -1.45111,-1.18864 0,-0.12874 0.10525,-0.16903 0.23388,-0.0895 0.12863,0.0795 0.3854,-0.22127 0.5706,-0.66837 0.1852,-0.44711 0.469,-0.95161 0.63068,-1.12112 0.67096,-0.70346 4.86103,-9.59781 4.38199,-9.30175 -0.14349,0.0887 -0.2609,0.0468 -0.2609,-0.0931 0,-0.86231 4.94516,-1.4051 6.69902,-0.73529 1.5691,0.59924 3.05502,2.36114 2.72237,3.22801 -0.0794,0.20691 -0.0402,0.3762 0.0871,0.3762 0.4293,0 0.6064,2.61155 0.27389,4.03903 -0.34103,1.46409 -2.20642,5.31835 -2.91872,6.03066 -0.23198,0.23197 -0.49798,0.62036 -0.59112,0.86307 -0.49866,1.29948 -2.83218,1.77585 -6.04217,1.23345 z m 3.28331,-20.98958 c -0.8741,-0.23858 -1.0646,-0.38819 -0.87735,-0.689 0.34674,-0.55703 0.0709,-0.83187 -0.65262,-0.65028 -0.84842,0.21294 -1.48243,-0.42055 -2.63617,-2.63402 -0.68363,-1.31156 -0.93503,-2.12855 -0.93503,-3.03869 0,-1.46764 0.40516,-2.12811 1.96294,-3.19989 2.18123,-1.50073 4.74911,-2.13706 9.28185,-2.30008 3.33173,-0.11982 3.96615,0.0825 4.73586,1.51042 0.72889,1.35218 0.415,2.46404 -1.42605,5.05131 -2.11342,2.97003 -3.89124,4.81567 -5.42346,5.63036 -1.36845,0.72761 -2.27304,0.79941 -4.02997,0.31987 z m 0.44609,-15.2242 c -1.32756,-0.27291 -1.57851,-0.48842 -1.57851,-1.35559 0,-0.78219 0.48678,-2.11351 0.77278,-2.11351 0.0873,0 0.45947,-0.27892 0.82712,-0.61982 0.36765,-0.3409 0.99151,-0.69809 1.38636,-0.79375 0.39485,-0.0957 1.01602,-0.24743 1.38038,-0.33726 0.50702,-0.125 0.92612,0.0503 1.78594,0.74707 0.61791,0.50071 1.34418,0.99193 1.61393,1.0916 0.31642,0.1169 0.43217,0.33316 0.32617,0.60939 -0.0904,0.2355 -0.0298,0.59027 0.13464,0.78839 0.41142,0.49573 -0.41581,0.81086 -0.95465,0.36367 -0.21642,-0.17962 -0.3935,-0.23583 -0.3935,-0.12491 0,0.11091 0.19489,0.34417 0.43308,0.51834 0.37675,0.27548 0.2993,0.36986 -0.59531,0.72547 -1.26695,0.50362 -3.88418,0.75876 -5.13843,0.50091 z m 16.30089,-26.6581 c -1.17654,-2.10507 -1.55201,-4.08055 -1.55171,-8.16412 2.6e-4,-3.97647 0.0439,-4.35022 0.58349,-5.00039 0.78875,-0.95038 3.86393,-0.15056 5.00666,1.30219 0.78573,0.9989 2.7022,7.02002 2.87994,9.04813 0.11269,1.28575 0.0451,1.79704 -0.30886,2.33728 -0.66603,1.01649 -2.37389,1.69285 -4.29182,1.69969 l -1.63102,0.006 -0.68668,-1.22859 z m 1.61592,-12.31477 c -0.0845,-0.21106 -0.14715,-0.14837 -0.15985,0.15986 -0.0115,0.27891 0.0511,0.43518 0.13897,0.34726 0.0879,-0.0879 0.0973,-0.31612 0.0209,-0.50712 z m 8.58739,7.03084 c -0.52153,-0.58959 -1.0413,-2.76861 -1.368,-5.7351 -0.31853,-2.89225 -0.22572,-3.43584 0.73924,-4.33014 0.58292,-0.54024 0.92841,-0.61866 2.68104,-0.60857 1.17315,0.007 2.5634,0.19978 3.3348,0.46302 l 1.32292,0.45144 0.23498,2.27724 c 0.30197,2.92631 0.0919,3.99574 -0.99565,5.06884 -0.96066,0.94789 -4.39798,2.84608 -5.12525,2.83031 -0.25525,-0.006 -0.62608,-0.1932 -0.82408,-0.41704 z m 38.51101,73.68679 c 2.34158,-1.12258 4.18454,-3.68842 4.48767,-6.24792 0.13246,-1.11841 0.0636,-1.38773 -0.53782,-2.10244 -0.6297,-0.74836 -4.47078,-3.5314 -5.93072,-4.29708 -0.53973,-0.28307 -0.69412,-0.22499 -1.39413,0.52437 -1.68001,1.79846 -3.60712,6.65212 -4.11639,10.36764 l -0.17178,1.25327 1.02795,0.44083 c 2.31579,0.9931 4.64673,1.01465 6.63522,0.0613 z m -9.04685,-2.08678 c 0.0983,-0.58208 0.30014,-1.05833 0.44844,-1.05833 0.1483,0 0.1978,-0.18722 0.10999,-0.41604 -0.0878,-0.22882 -0.0456,-0.62914 0.0938,-0.8896 0.13939,-0.26046 0.32413,-0.8748 0.41052,-1.36519 0.0864,-0.4904 0.30833,-1.07235 0.49318,-1.29322 0.18486,-0.22086 0.35056,-0.68383 0.36824,-1.0288 0.0177,-0.34497 0.33611,-1.08656 0.70764,-1.64797 0.37152,-0.56141 0.6755,-1.09665 0.6755,-1.18941 0,-0.0928 0.43706,-0.76407 0.97125,-1.49178 l 0.97126,-1.32312 -0.64053,-0.49238 c -0.35229,-0.27082 -0.73096,-0.49503 -0.8415,-0.49827 -0.11053,-0.003 -2.55877,-1.31557 -5.44052,-2.9163 -2.88176,-1.60073 -5.37934,-2.91042 -5.55017,-2.91042 -0.17084,0 -0.49448,0.44008 -0.71922,0.97795 -0.22474,0.53787 -0.71419,1.37857 -1.08767,1.86823 -0.37348,0.48965 -0.70449,1.03185 -0.73558,1.20487 -0.15415,0.85787 -0.48501,1.49692 -0.70471,1.36114 -0.13504,-0.0835 -0.24553,0.0271 -0.24553,0.24574 0,0.21861 -0.21043,0.55306 -0.46762,0.74322 -0.25719,0.19015 -0.69539,0.70175 -0.97378,1.13688 -0.60786,0.95012 -4.82503,5.16197 -5.16848,5.16197 -0.13311,0 -0.56232,0.29684 -0.95378,0.65964 l -0.71176,0.65963 1.02885,0.44785 c 0.56587,0.24632 1.13451,0.42028 1.26363,0.38659 0.47746,-0.12459 8.75614,2.27488 12.9944,3.76627 3.42363,1.20472 3.48415,1.2031 3.70416,-0.0992 z m -91.064722,-4.91661 c 2.16687,-0.5615 3.7328,-1.50594 5.42163,-3.26991 1.35679,-1.41715 2.69651,-3.64616 3.04616,-5.06814 0.15378,-0.62543 0.0686,-0.718 -0.95041,-1.03351 -2.93413,-0.90842 -4.42661,-2.35173 -4.42661,-4.28077 0,-1.24292 0.3492,-1.91257 1.79163,-3.43574 l 0.91888,-0.97032 -1.06507,-0.54335 c -2.35072,-1.19925 -6.10898,-1.14901 -8.70388,0.11635 -1.63209,0.79586 -3.9293,3.1843 -4.96171,5.15874 -0.40384,0.77233 -1.02087,2.54387 -1.37118,3.93677 -0.3503,1.39289 -0.99291,3.26152 -1.428,4.1525 -0.4351,0.89099 -0.79109,1.73653 -0.79109,1.87899 0,0.46703 1.5532,1.89663 2.70645,2.49108 2.4201,1.24747 6.83893,1.63802 9.8132,0.86731 z m 60.664092,-6.15431 c 0.56754,-0.41369 2.81782,-2.63507 5.00064,-4.9364 4.9734,-5.24343 4.64518,-4.89391 5.39902,-5.74943 l 0.63653,-0.72239 -1.34925,-1.32813 c -0.74208,-0.73048 -1.41183,-1.32814 -1.48832,-1.32814 -0.0765,0 -0.85123,0.71437 -1.72164,1.5875 -0.87042,0.87312 -1.63307,1.5875 -1.69477,1.5875 -0.0617,0 -0.65822,0.50601 -1.32558,1.12448 -0.66736,0.61846 -1.88231,1.60073 -2.6999,2.18281 -0.81758,0.58208 -1.79676,1.33052 -2.17596,1.66318 -0.37919,0.33267 -0.8522,0.54239 -1.05113,0.46605 -0.19893,-0.0763 -0.29723,-0.0345 -0.21844,0.093 0.0788,0.12748 -0.51034,0.79017 -1.30918,1.47263 -1.84773,1.57856 -1.92469,2.29919 -0.39333,3.68269 1.3924,1.25795 2.85294,1.32602 4.39131,0.20465 z m -47.594012,-6.40748 c 2.12156,-0.63283 2.97602,-1.08435 5.23423,-2.76588 2.930732,-2.1823 3.080572,-2.4063 3.214822,-4.80587 0.16069,-2.8723 0.61826,-5.64151 0.93218,-5.64151 0.14449,0 0.20964,-0.14883 0.14476,-0.33073 -0.0649,-0.1819 0.11542,-0.96402 0.40067,-1.73805 0.28525,-0.77402 0.46446,-1.46149 0.39824,-1.5277 -0.13714,-0.13715 -3.600802,3.38811 -5.918822,6.02407 -2.99319,3.40376 -5.94397,5.50708 -9.59097,6.83646 -2.13691,0.77894 -2.82283,1.40134 -3.09891,2.81195 -0.15751,0.80481 -0.1177,0.84805 1.25372,1.36174 1.70038,0.6369 4.43503,0.54958 7.03008,-0.22448 z m 43.709432,-1.04579 c 1.20565,-1.08731 1.32749,-1.71593 0.18786,-0.96921 -0.70222,0.4601 -1.92308,2.03321 -1.57326,2.02717 0.11905,-0.002 0.74248,-0.47813 1.3854,-1.05796 z m 4.9734,-4.80762 c 1.76705,-1.48618 4.30871,-4.02866 4.30812,-4.3095 -2.6e-4,-0.14972 -0.34333,-0.92707 -0.76226,-1.72743 -0.41894,-0.80037 -0.91363,-2.31632 -1.09931,-3.3688 -0.35761,-2.02689 -0.61176,-2.30771 -1.84342,-2.03686 -0.36304,0.0798 -1.19204,0.2085 -1.84224,0.28592 -0.6502,0.0774 -1.63246,0.37049 -2.18281,0.65125 -1.16926,0.59651 -1.18499,0.71129 -0.6155,4.48918 0.42953,2.84938 1.26624,5.37426 2.07553,6.26316 0.69675,0.7653 0.76924,0.75617 1.96189,-0.24692 z m 21.99629,0.55176 c 0.77641,-0.27065 0.97141,-0.62417 0.84473,-1.53139 -0.0341,-0.24451 0.10004,-0.30862 0.40281,-0.19243 0.2497,0.0958 0.73488,-0.01 1.07818,-0.23476 0.8534,-0.55917 0.82017,0.0344 -0.0398,0.7108 -0.60182,0.4734 -0.6835,1.00909 -0.15385,1.00909 0.1151,0 0.7121,-0.36425 1.32667,-0.80945 0.90967,-0.65896 1.05907,-0.87972 0.80365,-1.18749 -0.25033,-0.30163 -0.21413,-0.41424 0.17907,-0.55705 0.27105,-0.0984 1.0286,-0.63687 1.68344,-1.19648 0.65484,-0.55962 1.39898,-1.19485 1.65364,-1.41163 0.25467,-0.21679 0.47214,-0.36439 0.48327,-0.32801 0.0111,0.0364 0.061,0.28043 0.11081,0.54232 0.24699,1.2986 0.98068,1.3947 2.17778,0.28525 1.02137,-0.94656 0.64072,-1.53644 -0.85885,-1.3309 -0.66257,0.0908 -1.1854,0.0552 -1.1854,-0.0808 0,-0.2164 0.78504,-0.37903 2.91042,-0.60293 0.4432,-0.0467 0.6878,-0.25423 0.74128,-0.62899 0.067,-0.46929 -0.0943,-0.58715 -1.00207,-0.73231 -0.59504,-0.0951 -1.54634,-0.33302 -2.114,-0.52859 -1.29039,-0.44458 -3.86191,-2.13309 -4.0685,-2.67147 -0.0851,-0.22171 -0.31642,-0.40311 -0.51408,-0.40311 -0.38891,0 -3.62597,-3.31225 -3.62597,-3.71019 0,-0.13308 -0.16356,-0.17919 -0.36347,-0.10247 -0.21129,0.0811 -0.57132,-0.18443 -0.8599,-0.63414 -0.27303,-0.42549 -0.97267,-1.40645 -1.55475,-2.1799 -1.8023,-2.39482 -3.57188,-5.62521 -3.57188,-6.52049 0,-0.20974 -0.14529,-0.64141 -0.32286,-0.95927 -0.61784,-1.10591 -0.97861,-2.42332 -0.82797,-3.0235 0.15758,-0.62787 -0.28162,-1.39087 -0.80063,-1.39087 -0.3672,0 -3.07562,2.52461 -3.07562,2.8669 0,0.13551 0.25011,0.31178 0.55579,0.39172 0.30568,0.0799 0.48416,0.26124 0.39661,0.4029 -0.0876,0.14165 -0.40596,0.19301 -0.70757,0.11414 -1.16365,-0.3043 -5.01633,4.52374 -5.36212,6.7196 -0.11933,0.75782 -0.074,1.13575 0.14488,1.20873 0.23656,0.0788 0.20243,0.41008 -0.13267,1.28754 -0.45169,1.18273 -0.58254,2.08972 -0.30148,2.08972 0.0823,0 0.39018,-0.12871 0.68412,-0.28602 0.9592,-0.51335 0.87172,0.008 -0.1599,0.95297 l -1.00906,0.92426 0.14865,2.57783 c 0.19692,3.41479 0.9183,5.37482 1.84701,5.01844 0.26522,-0.10177 0.42458,-0.85817 0.55089,-2.61482 0.0978,-1.35939 0.2786,-2.88834 0.40189,-3.39766 0.20903,-0.86348 0.24025,-0.88633 0.46216,-0.33822 0.1449,0.35791 0.12511,1.59975 -0.0506,3.175 -0.20651,1.85137 -0.20738,2.67544 -0.003,2.89752 0.4516,0.49089 3.35446,0.59338 4.05582,0.1432 0.32743,-0.21016 0.59532,-0.52856 0.59532,-0.70755 0,-0.30179 1.02617,-1.41452 1.08457,-1.17607 0.14172,0.57859 0.11653,1.60642 -0.0418,1.70425 -0.37431,0.23134 0.0759,1.18103 0.55993,1.18103 1.01473,0 0.73654,0.50212 -0.32123,0.57981 -1.03001,0.0757 -1.16606,0.17897 -1.8494,1.40457 -0.99476,1.78414 -0.9552,2.13608 0.31285,2.78299 1.07589,0.54888 2.00819,0.51508 4.17327,-0.1513 0.48627,-0.14967 0.64105,-0.0729 0.75846,0.37607 0.12687,0.48512 0.34144,0.56411 1.53239,0.56411 0.76168,0 1.75982,-0.13071 2.2181,-0.29047 z m 6.64972,-2.09078 c 0.60591,0 1.675,-1.61017 1.31087,-1.97431 -0.41575,-0.41575 -1.95633,0.57738 -2.29741,1.48102 -0.26002,0.68887 -0.24563,0.78134 0.10086,0.64837 0.22228,-0.0853 0.62083,-0.15508 0.88568,-0.15508 z m -17.0853,-0.59531 c 0.21179,-0.32742 0.46369,-0.91527 0.55979,-1.30633 0.15931,-0.64827 0.0945,-0.72606 -0.73404,-0.8815 -1.32983,-0.24948 -2.43028,-0.0623 -2.52335,0.42909 -0.0933,0.49249 1.46496,2.35405 1.97046,2.35405 0.18815,0 0.51536,-0.26789 0.72714,-0.59531 z m 1.44899,-2.59837 c -0.42459,-0.26242 -0.61786,-0.12322 -0.37485,0.26998 0.0974,0.15757 0.30062,0.21014 0.45162,0.11682 0.17776,-0.10987 0.1507,-0.24622 -0.0768,-0.3868 z m 23.92556,-5.59274 c 0.33578,-0.45122 0.57913,-1.28415 0.65709,-2.24896 l 0.1238,-1.53233 -0.59291,0.52917 c -0.75204,0.67119 -2.94009,0.66983 -4.25408,-0.003 -2.61777,-1.33971 -6.67598,-5.35241 -9.09519,-8.99319 -2.56205,-3.85574 -3.36401,-5.83699 -3.35276,-8.28298 0.008,-1.83504 0.0592,-1.80567 -1.85579,-1.07454 -1.66629,0.63618 -1.70858,3.2635 -0.11089,6.89004 0.53378,1.21159 0.99683,2.32196 1.02902,2.46748 0.0712,0.32198 1.92756,2.77858 3.79772,5.02571 0.75778,0.91054 1.30636,1.72694 1.21906,1.81424 -0.25671,0.25671 0.45284,0.94597 0.82629,0.80266 0.18797,-0.0721 0.62676,0.20284 0.9751,0.61104 0.81153,0.95098 4.28451,3.33552 6.10288,4.19023 1.92667,0.90561 3.77029,0.82588 4.53066,-0.19593 z m -0.30209,-4.08688 c 0.66926,-0.60567 0.63999,-2.96961 -0.065,-5.25224 -1.7329,-5.61047 -7.68414,-11.51936 -12.68131,-12.59106 -2.52134,-0.54073 -3.21559,0.67106 -2.15063,3.75383 1.07881,3.12286 3.44487,6.56759 6.90785,10.05708 3.93806,3.96821 6.58421,5.30382 7.98913,4.03239 z m 23.36009,-0.35198 c 1.36921,-0.52057 2.0591,-1.28629 4.07645,-4.52447 0.92674,-1.48757 2.21299,-3.96625 2.85834,-5.50819 0.64535,-1.54193 1.28609,-3.01026 1.42387,-3.26294 0.13779,-0.25269 0.25052,-0.61132 0.25052,-0.79696 0,-0.18564 1.01203,-2.11012 2.24896,-4.27663 1.23692,-2.16651 2.24895,-4.01136 2.24895,-4.09967 0,-0.15308 -1.141,-1.22656 -2.33553,-2.19731 -0.50064,-0.40685 -0.59854,-0.41167 -0.96278,-0.0474 -0.22302,0.22301 -0.72167,0.9626 -1.10813,1.64353 -0.38646,0.68093 -1.26855,2.13711 -1.9602,3.23595 -0.69164,1.09884 -1.39901,2.52759 -1.57193,3.175 -0.94425,3.53523 -4.07516,8.60042 -7.22302,11.6854 -2.06143,2.02024 -2.08016,2.0507 -1.78883,2.91041 0.30647,0.90442 1.93859,2.29722 2.71185,2.31422 0.24518,0.005 0.75435,-0.10752 1.13148,-0.25091 z m -5.60164,-6.39203 c 1.14586,-0.58357 4.58021,-3.88071 5.73865,-5.50937 1.17216,-1.64796 2.15993,-4.06213 2.293,-5.60424 0.12501,-1.4486 0.10148,-1.51542 -0.76681,-2.17769 -0.49267,-0.37578 -1.72098,-1.0479 -2.72958,-1.49361 -1.0086,-0.44571 -2.28681,-1.05459 -2.84046,-1.35309 -0.97841,-0.52749 -2.50753,-0.51223 -2.17753,0.0217 0.0796,0.12882 0.0538,0.27416 -0.0573,0.32297 -0.49257,0.21634 -2.0006,2.44839 -2.68541,3.97469 -1.66317,3.7069 -1.92524,8.15755 -0.6657,11.30545 0.41478,1.03665 0.47988,1.08048 1.60476,1.08048 0.67598,0 1.64412,-0.24023 2.28637,-0.56732 z m -6.08999,-1.87148 c -0.92816,-4.72262 0.46473,-9.91842 3.6978,-13.79368 l 1.52096,-1.82306 -1.52096,-0.7186 c -3.65216,-1.72551 -7.72455,-2.81736 -15.32132,-4.10777 -6.07467,-1.03187 -8.78783,-1.68028 -10.73896,-2.56651 -0.6908,-0.31377 -1.3184,-0.50809 -1.39466,-0.43183 -0.0763,0.0763 0.33999,1.17959 0.92499,2.45184 0.585,1.27225 1.00492,2.4082 0.93315,2.52432 -0.0718,0.11613 0.0362,0.2751 0.23992,0.35328 0.20373,0.0782 0.45047,0.50666 0.54832,0.95218 0.0979,0.44553 0.32387,0.90006 0.50225,1.01007 0.17838,0.11001 0.53926,0.66212 0.80196,1.22691 0.26269,0.56479 0.78136,1.36779 1.1526,1.78443 0.37123,0.41665 0.86425,1.05196 1.09559,1.41182 0.55743,0.86707 3.29939,4.43622 4.68288,6.0956 0.60664,0.72761 1.39628,1.8587 1.75477,2.51354 0.71519,1.30641 2.07109,2.11719 5.62464,3.36335 1.01865,0.35721 2.20927,0.80274 2.64584,0.99005 0.92067,0.39504 2.83699,0.87238 3.06966,0.76464 0.0876,-0.0406 -0.0112,-0.94082 -0.21943,-2.00058 z m -71.0434,-11.46648 c 0.92373,-1.11702 2.9316,-5.0392 3.58187,-6.99681 0.21752,-0.65484 0.479,-1.3964 0.58106,-1.6479 0.12982,-0.31991 -0.0556,-0.67756 -0.61726,-1.19062 -1.71995,-1.57111 -2.72322,-2.26012 -2.95404,-2.02871 -0.57947,0.58096 -2.64846,5.77976 -3.02426,7.59913 -0.48061,2.32676 -0.53934,5.10964 -0.13044,6.18056 l 0.28439,0.74483 0.7078,-0.8084 c 0.38929,-0.44462 1.09618,-1.27806 1.57088,-1.85208 z m 109.6136,-3.16715 c 0.42933,-0.22201 0.78061,-0.50573 0.78061,-0.63048 0,-0.24828 2.73571,-1.61168 3.2339,-1.61168 0.16996,0 0.64295,-0.31993 1.0511,-0.71096 0.80625,-0.77244 0.94177,-0.59721 0.3452,0.44638 -0.51583,0.90236 -0.4896,1.03304 0.17258,0.85988 0.3132,-0.0819 1.2657,-0.83444 2.11667,-1.6723 1.12679,-1.10943 1.54721,-1.71708 1.54721,-2.23624 0,-0.61628 -0.0843,-0.69171 -0.62218,-0.55672 -0.34219,0.0859 -0.69835,0.08 -0.79145,-0.0131 -0.3082,-0.3082 0.36545,-0.82723 0.89419,-0.68896 0.64007,0.16738 0.73175,-0.74322 0.12548,-1.24638 -0.47697,-0.39585 -0.27651,-0.83379 0.28331,-0.61896 0.53462,0.20515 3.29185,-0.39224 3.91567,-0.84839 0.91732,-0.67077 0.33786,-1.15413 -1.37375,-1.14595 -1.36513,0.007 -1.96566,-0.18415 -4.70993,-1.49552 -1.72991,-0.82666 -3.18348,-1.60561 -3.23015,-1.731 -0.0467,-0.12539 -0.52292,-0.49385 -1.05833,-0.8188 -0.53542,-0.32495 -1.0687,-0.74617 -1.18507,-0.93605 -0.11637,-0.18988 -0.36698,-0.34524 -0.55691,-0.34524 -0.18994,0 -0.87191,-0.50601 -1.51551,-1.12448 -0.6436,-0.61846 -1.58361,-1.48621 -2.08892,-1.92833 -0.50531,-0.44211 -1.38154,-1.37504 -1.94719,-2.07316 -0.94251,-1.16323 -1.1011,-1.25568 -1.8976,-1.10626 -0.47803,0.0897 -0.93972,0.0489 -1.02599,-0.0907 -0.0863,-0.13958 0.10348,-0.29206 0.42166,-0.33885 0.8315,-0.12226 0.86189,-0.55094 0.0975,-1.37569 -0.36751,-0.39656 -0.6682,-0.84798 -0.6682,-1.003177 0,-0.155191 -0.32742,-0.666464 -0.7276,-1.136158 -0.40019,-0.469696 -0.8582,-1.078439 -1.01782,-1.352761 -0.30962,-0.53213 -1.57673,-0.599911 -2.06612,-0.110522 -0.41461,0.414607 -0.68638,0.309234 -0.68638,-0.266126 0,-0.784124 -0.82403,-0.653537 -1.53185,0.242758 -0.55617,0.704276 -0.68202,0.746083 -1.53604,0.510275 -1.26308,-0.348752 -3.11449,0.519687 -3.66088,1.717202 -1.24057,2.718989 -1.54015,4.135919 -0.878,4.152759 0.20341,0.005 0.15406,0.14258 -0.12818,0.35689 -0.2524,0.19167 -0.38632,0.42107 -0.29761,0.50978 0.0887,0.0887 -0.0322,0.6449 -0.26869,1.23596 -0.82179,2.05387 -0.38857,7.41395 0.59922,7.41395 0.42903,0 0.60405,-0.48242 0.70176,-1.93429 0.0508,-0.75515 0.14032,-1.61112 0.19888,-1.90216 0.0586,-0.29104 0.19782,-1.09618 0.30947,-1.78919 0.11164,-0.69301 0.32644,-1.33632 0.47733,-1.42958 0.1827,-0.11292 0.21565,0.19753 0.0986,0.92929 -0.1159,0.7248 -0.0774,1.09886 0.11302,1.09886 0.18316,0 0.22499,0.29021 0.11439,0.79375 -0.12023,0.54742 -0.073,0.79375 0.15228,0.79375 0.2104,0 0.15939,0.18477 -0.14336,0.5193 -0.29021,0.32068 -0.40082,0.69953 -0.28918,0.99046 0.16416,0.42777 0.22452,0.41319 0.6557,-0.15843 0.26169,-0.34694 0.54761,-0.5119 0.63688,-0.36746 0.0891,0.14416 -0.14733,0.54731 -0.52541,0.89589 -0.98395,0.90719 -1.45643,2.20763 -1.44793,3.98526 0.009,1.92948 0.63337,3.1308 1.62661,3.1308 0.93143,0 1.31879,-0.46012 1.31879,-1.56652 0,-1.11832 0.57775,-3.72515 0.8256,-3.72515 0.35176,0 0.45054,0.75626 0.30639,2.34587 -0.0809,0.89259 -0.24968,1.62288 -0.37499,1.62288 -0.12531,0 -0.22784,0.29766 -0.22784,0.66146 0,0.50226 0.14328,0.6674 0.59532,0.68613 0.32742,0.0136 1.13109,0.0834 1.78593,0.15524 2.56989,0.28182 3.45705,-0.0364 3.99065,-1.43163 0.28397,-0.7425 1.13343,-0.52903 0.8942,0.22472 -0.12354,0.38925 -0.0243,0.49841 0.45514,0.50045 0.93123,0.004 6.0371,-1.12341 6.0371,-1.33301 0,-0.10105 0.29627,-0.12709 0.65837,-0.0579 0.36211,0.0692 0.59405,0.22994 0.51543,0.35715 -0.24016,0.38858 0.78802,-0.0732 1.14229,-0.51299 0.23655,-0.29368 0.41331,-0.33024 0.61611,-0.12744 0.2028,0.2028 0.16818,0.61622 -0.12065,1.44099 -0.35223,1.00579 -0.40669,1.05961 -0.41767,0.41278 -0.0125,-0.73574 -0.0263,-0.74181 -1.2694,-0.55925 -0.69123,0.10151 -1.4949,0.27064 -1.78594,0.37584 -0.29104,0.1052 -1.5412,0.34261 -2.77813,0.52757 -3.15151,0.47127 -3.83646,0.65207 -3.83646,1.01267 0,0.17314 -0.32742,0.59614 -0.7276,0.94001 -0.40018,0.34387 -0.7276,0.77117 -0.7276,0.94957 0,0.1784 -0.23813,0.62709 -0.52917,0.99708 -0.29104,0.37 -0.52917,0.83367 -0.52917,1.03037 0,0.52036 1.73756,1.16573 3.61289,1.34191 1.39133,0.13071 1.74453,0.0704 2.42513,-0.41424 0.43814,-0.31199 1.19359,-0.63435 1.67878,-0.71636 0.83564,-0.14125 0.85508,-0.12718 0.36857,0.26675 -0.28247,0.22872 -0.66943,0.41585 -0.8599,0.41585 -0.19046,0 -0.3463,0.1786 -0.3463,0.39688 0,0.55836 3.42814,0.5532 4.51106,-0.007 z m 3.16186,-0.91925 0.66145,-0.51741 -0.92429,0.25871 c -0.50836,0.14229 -0.95485,0.25871 -0.99219,0.25871 -0.0373,0 -0.0679,0.11906 -0.0679,0.26458 0,0.41905 0.60317,0.29841 1.32292,-0.26459 z m -14.97248,-2.13696 c 1.25917,-1.49644 0.75443,-1.92834 -2.08072,-1.78048 l -1.55303,0.081 1.22345,1.25677 c 0.6729,0.69122 1.33637,1.25677 1.47439,1.25677 0.13801,0 0.55917,-0.36632 0.93591,-0.81405 z m 23.41299,-4.04611 c 0.44669,-0.56304 0.75238,-1.12045 0.67931,-1.23869 -0.0731,-0.11824 -0.62584,-0.0723 -1.22835,0.10219 -1.14387,0.33118 -1.40732,0.78814 -1.13622,1.97082 0.17354,0.75706 0.58386,0.55392 1.68526,-0.83432 z m -116.27724,-2.51739 c 0.45554,-0.73708 1.1485,-8.21972 1.36471,-14.73624 l 0.1675,-5.04818 -1.28576,-0.543931 c -0.70717,-0.299161 -1.58342,-0.627454 -1.94722,-0.729538 -0.3638,-0.102084 -1.58492,-0.611082 -2.71359,-1.131104 -1.12868,-0.520023 -2.10021,-0.896615 -2.15897,-0.836869 -0.13288,0.135122 -0.86664,6.240295 -1.09858,9.140712 -0.41992,5.251 1.18877,9.18122 5.19235,12.68549 1.48543,1.30018 2.2029,1.64731 2.47956,1.19966 z m 119.93161,-3.48354 c 0.95899,-0.3343 1.39887,-1.20086 1.39887,-2.75576 0,-1.89282 -0.15288,-2.05342 -1.24758,-1.31054 -0.97654,0.6627 -1.41752,0.75949 -2.98576,0.6553 -1.4675,-0.0975 -5.51408,-2.3124 -6.16471,-3.37425 -0.11637,-0.18993 -0.38389,-0.34532 -0.59449,-0.34532 -0.69975,0 -6.06659,-5.623981 -7.91869,-8.298096 -2.39154,-3.452965 -3.57085,-6.154594 -3.57513,-8.190047 -0.003,-1.472565 -0.029,-1.531389 -0.59854,-1.359116 -1.17749,0.356155 -3.10095,1.53054 -3.24376,1.980501 -0.40932,1.289656 1.33394,5.578954 3.69445,9.090186 3.82318,5.686962 11.28503,12.020062 16.15191,13.708642 1.49625,0.51912 3.895,0.61279 5.08343,0.1985 z m -0.0299,-5.03875 c 0.58261,-0.54733 0.95758,-1.90058 0.63289,-2.28407 -0.0953,-0.11254 -0.32303,-0.7302 -0.50608,-1.37258 -1.19378,-4.189109 -4.5948,-8.925442 -8.88357,-12.371438 -3.19065,-2.563662 -6.2702,-4.092183 -8.57425,-4.255786 -1.52478,-0.10827 -1.80831,-0.05419 -2.24282,0.427763 -1.69511,1.880203 1.67585,8.054432 7.60723,13.933371 5.94431,5.89175 9.91021,7.85463 11.9666,5.92274 z M 213.40577,96.576658 c 0.60482,-0.01815 1.3922,-0.144232 1.74971,-0.280162 0.35752,-0.135927 1.14041,-0.181363 1.73977,-0.100975 0.8565,0.114882 1.12541,0.05318 1.25644,-0.288272 0.0917,-0.238939 0.008,-0.625342 -0.18538,-0.858676 -0.3874,-0.466796 -0.94161,-1.856335 -1.29201,-3.239388 -0.39724,-1.567945 -0.70655,-1.604976 -1.8855,-0.225727 -0.58956,0.689726 -1.17242,1.191935 -1.29525,1.11602 -0.12284,-0.07591 -0.2928,0.08084 -0.3777,0.34834 -0.0849,0.267502 -0.3663,0.715717 -0.62533,0.996029 -0.81927,0.88659 -2.15381,2.950025 -2.00451,3.099327 0.0789,0.07888 0.52068,-0.0089 0.98175,-0.195033 0.46107,-0.186155 1.33318,-0.353322 1.93801,-0.371483 z m -54.49763,-3.157344 1.10624,-0.188719 -1.63504,-0.79375 c -1.72839,-0.83907 -6.00139,-4.765976 -6.00139,-5.515303 0,-0.216548 -0.0932,-0.433411 -0.20716,-0.48192 -0.31532,-0.134239 -1.38034,-2.051243 -1.38034,-2.484567 0,-0.209963 -0.11388,-0.381751 -0.25307,-0.381751 -0.13919,0 -0.5735,-0.982266 -0.96513,-2.182813 -0.97027,-2.974377 -1.21207,-9.411363 -0.49026,-13.0513 0.97382,-4.910761 2.05999,-7.555586 4.79326,-11.67163 1.75576,-2.644018 4.48455,-5.638006 5.13861,-5.638006 0.13379,0 0.24326,-0.174664 0.24326,-0.388141 0,-0.862041 8.31643,-5.720294 9.03347,-5.277135 0.18152,0.11218 0.23793,0.07627 0.13692,-0.08716 -0.22468,-0.363543 5.80477,-2.294824 8.94892,-2.866411 1.30713,-0.237628 2.87005,-0.364416 3.47316,-0.281752 0.60673,0.08316 1.38193,0.01564 1.73541,-0.151186 l 0.63884,-0.301484 -0.92432,-1.739511 c -0.80811,-1.520788 -0.93844,-2.033265 -1.03653,-4.07579 -0.0617,-1.284954 0.006,-2.594642 0.15116,-2.910417 0.14485,-0.315774 0.5358,-1.195784 0.86878,-1.95558 1.1665,-2.661705 2.99253,-3.881887 5.81377,-3.884848 0.95786,-0.0011 2.17646,0.183013 2.75055,0.415351 1.38559,0.560763 3.26103,2.437866 4.05359,4.057192 l 0.64749,1.322917 -0.14163,-2.130629 c -0.38958,-5.860481 -2.86799,-12.828848 -6.3275,-17.790569 -5.95082,-8.53482 -17.47068,-15.7133228 -28.9376,-18.0322178 -1.47807,-0.2989 -3.0214,-0.543457 -3.42964,-0.543457 h -0.74224 l 1.22432,1.256771 c 0.67338,0.691224 1.60239,2.064972 2.06448,3.052778 0.70045,1.49734561 0.82012,2.02531901 0.71966,3.1749996 -0.0663,0.758444 -0.21229,1.6766487 -0.32448,2.0404507 -0.14034,0.4550886 -0.11822,0.578911 0.0709,0.396875 0.15119,-0.1455208 0.32756,-0.5027083 0.39192,-0.7937499 0.10972,-0.4961149 0.13005,-0.4991312 0.32543,-0.048297 0.11461,0.2644775 0.0843,0.7407275 -0.0674,1.0583333 -0.15166,0.3176058 -0.34355,0.7889689 -0.42641,1.0474774 -0.21082,0.6576801 -2.35442,1.5317284 -4.39524,1.7921472 -5.90899,0.7540201 -7.03551,0.8277648 -10.58333,0.6928061 -3.84434,-0.1462352 -7.52638,-0.6822968 -9.26042,-1.3482081 -0.50932,-0.1955906 -1.87854,-0.6317747 -3.0427,-0.9692957 -1.16417,-0.3375236 -2.37024,-0.7721652 -2.68015,-0.965872 -0.30991,-0.1937067 -1.36141,-0.5803794 -2.33665,-0.859274 -0.97525,-0.2788973 -2.2695,-0.7984199 -2.87611,-1.1544987 -1.45307,-0.8529452 -3.78406,-3.39203489 -4.93939,-5.3803499 l -0.92604,-1.59372 -1.01835,1.156578 c -1.27459,1.447597 -2.96462,2.45037801 -4.89576,2.90491601 -1.75537,0.4131684 -4.00776,0.4704903 -4.00776,0.101997 0,-0.215487 -1.5145,-0.09807 -1.8064,0.1400442 -0.0476,0.038854 0.17546,1.00401959 0.49577,2.14480759 0.3203,1.1407854 0.56555,2.6099398 0.54499,3.2647836 -0.0837,2.6650181 -0.2132,3.6220689 -0.59173,4.3720647 -0.56139,1.1123007 -1.13006,2.0874407 -1.30776,2.2425187 -0.0834,0.07276 -0.22889,0.341754 -0.32337,0.597767 -0.0945,0.256011 -0.32109,0.434605 -0.50359,0.396875 -0.18249,-0.03773 -0.37194,0.19366 -0.421,0.514202 -0.0491,0.320543 -0.31977,0.655987 -0.60159,0.745435 -0.28182,0.08945 -0.5124,0.314748 -0.5124,0.500668 0,0.18592 -0.23813,0.553537 -0.52917,0.816927 -0.29104,0.26339 -0.52917,0.560121 -0.52917,0.6594 0,0.09928 0.49917,0.705242 1.10925,1.346579 1.37733,1.447868 2.86145,4.02996 2.85362,4.964752 l -0.006,0.702185 -0.5174,-0.661458 c -0.47548,-0.607862 -0.51836,-0.61858 -0.52917,-0.132292 -0.0116,0.522904 -0.0172,0.522701 -0.46891,-0.01704 -0.25142,-0.300416 -0.81033,-0.766532 -1.24201,-1.035817 -0.67949,-0.42386 -4.532422,-3.451084 -4.903662,-3.85278 -0.50931,-0.551077 -5.65228,-4.167002 -7.9375,-5.580708 -7.54582,-4.6680539 -14.21913,-7.1961184 -21.96042,-8.319309 -2.32958,-0.3379999 -4.09689,-0.4069159 -7.54062,-0.294042 -4.97843,0.1631764 -7.33618,0.5797153 -9.76642,1.7254139 -2.90687,1.3703908 -3.79789,2.7502272 -4.12896,6.3940791 -0.62937,6.927016 2.83516,18.110429 7.75172,25.022354 1.93024,2.713614 6.30792,6.971712 8.9717,8.726619 6.4647,4.258963 14.23269,6.509176 24.55633,7.113415 2.40755,0.140915 7.45862,-0.153503 9.12812,-0.532061 0.65286,-0.148034 0.73505,-0.117737 0.46302,0.170677 -0.1819,0.192863 -0.33072,0.556951 -0.33072,0.80908 0,0.252132 -0.26234,0.541684 -0.58298,0.643448 -0.32063,0.101767 -0.7517,0.353762 -0.95793,0.559991 -0.20623,0.206229 -0.7178,0.443529 -1.13682,0.527333 -0.91219,0.182438 -0.94859,0.549024 -0.36329,3.6581 0.97484,5.178287 3.7456,12.652546 6.104872,16.468203 4.12465,6.67081 7.04749,9.413157 13.36898,12.543392 6.78283,3.358674 13.62372,5.172771 22.7255,6.026441 1.67349,0.156959 3.45942,0.33455 3.96875,0.394647 1.40798,0.166138 16.11709,-0.103843 17.3781,-0.318965 z m -32.96453,-7.708915 c -0.20508,-0.129829 -0.50274,-0.186322 -0.66145,-0.125542 -0.38445,0.147222 -3.93096,-3.535511 -3.72526,-3.868341 0.0883,-0.142933 0.042,-0.259879 -0.103,-0.259879 -0.36278,0 -1.82207,-3.08402 -2.03442,-4.299479 -0.16211,-0.92796 0.14945,-1.37088 0.53056,-0.754237 0.0809,0.130874 0.59392,0.500076 1.14009,0.820449 l 0.99303,0.582502 -0.66146,-0.71623 c -0.3638,-0.393928 -0.92934,-0.819716 -1.25677,-0.946195 -0.80779,-0.312042 -0.75354,-1.123532 0.13503,-2.019874 1.68583,-1.700567 3.61674,-1.929355 6.0628,-0.718357 1.26243,0.625009 4.69709,3.553505 4.16769,3.553505 -0.0832,0 0.0954,0.313714 0.39705,0.69714 0.65554,0.833387 0.7517,2.773481 0.16174,3.263111 -0.29919,0.248301 -0.61338,0.25082 -1.38907,0.01114 -1.75518,-0.542332 -4.96369,-1.971029 -5.17693,-2.305198 -0.20941,-0.328168 -2.0583,-0.945536 -2.2519,-0.751935 -0.12471,0.124711 4.92175,2.565334 6.34617,3.069203 0.53796,0.190294 0.9256,0.430948 0.86142,0.534789 -0.0642,0.103841 0.0592,0.256302 0.27421,0.338802 0.21499,0.0825 0.32525,0.321059 0.24502,0.53013 -0.0802,0.209068 -0.0232,0.455954 0.12678,0.548629 0.18523,0.114483 0.1777,0.37687 -0.0235,0.818446 -0.22967,0.504058 -0.3759,0.583748 -0.65149,0.355029 -0.27113,-0.225023 -0.35534,-0.198755 -0.35534,0.110839 0,0.564661 -1.50704,1.776561 -2.20312,1.771658 -0.31625,-0.0021 -0.74281,-0.110276 -0.94789,-0.240104 z m -10.47503,-1.448872 c -0.29104,-0.188296 -1.22102,-0.788535 -2.06662,-1.333867 -3.22196,-2.077863 -6.26775,-5.071917 -6.26775,-6.161281 0,-0.207642 0.34802,-0.725559 0.77339,-1.150927 0.67313,-0.673126 0.9681,-0.773398 2.27512,-0.773398 1.98867,0 3.12725,0.58156 4.4575,2.276774 2.6999,3.440636 3.64709,5.915512 2.67507,6.98958 -0.54173,0.598601 -1.08812,0.643903 -1.84671,0.153119 z m -10.18817,-12.5771 c -1.45888,-0.44377 -2.397,-1.13102 -2.90611,-2.128951 -0.85289,-1.671802 -0.568,-3.879591 0.64802,-5.021985 0.8886,-0.834797 2.04947,-0.616995 4.08729,0.766858 2.01275,1.366835 3.1968,2.62514 3.19837,3.398938 7.9e-4,0.332261 -0.29844,1.195464 -0.66469,1.918229 l -0.66592,1.314122 -1.51689,-0.02275 c -0.8343,-0.01251 -1.81533,-0.113519 -2.18007,-0.224469 z m 25.98697,-9.763895 c -0.47847,-0.255158 -0.77976,-0.554116 -0.66952,-0.66435 0.11023,-0.110236 0.0154,-0.129423 -0.21077,-0.04264 -0.26088,0.10011 -0.80408,-0.223501 -1.48603,-0.885314 -1.05096,-1.019919 -1.4372,-1.598168 -2.323,-3.47784 -0.61481,-1.304615 -0.63092,-5.070302 -0.0277,-6.482291 1.01013,-2.364586 2.89788,-4.47489 4.87857,-5.453718 1.63078,-0.805905 4.66977,-0.61164 6.46071,0.412996 2.54058,1.45352 4.12572,4.053384 4.36,7.151039 0.16881,2.232062 -0.17399,3.873179 -1.18957,5.694891 -0.63999,1.147982 -2.68404,3.284162 -2.91833,3.049863 -0.0628,-0.06284 -0.28269,0.05419 -0.48856,0.260056 -0.97249,0.972492 -4.88036,1.24011 -6.38577,0.437308 z m 8.10352,-3.891967 c 0.40921,-0.89811 0.38823,-1.1791 -0.13083,-1.752656 -0.50021,-0.55273 -1.42288,-0.633923 -1.89045,-0.166354 -0.55892,0.558916 -0.38886,1.948471 0.27781,2.269995 0.95589,0.461008 1.41567,0.368448 1.74347,-0.350985 z m -0.0321,-4.859208 c 0.88508,-1.153358 -0.18485,-3.462718 -1.60429,-3.462718 -0.62073,0 -1.18268,0.67147 -0.70534,0.842801 0.12755,0.04578 0.27742,0.580279 0.33305,1.187767 0.0556,0.607491 0.24035,1.272257 0.41049,1.477259 0.41183,0.496226 1.16737,0.474464 1.56609,-0.04511 z m -3.76876,-3.142705 c 0.91305,-0.793885 0.8893,-1.95667 -0.0593,-2.902108 -0.8291,-0.826355 -1.58329,-0.982345 -2.63969,-0.545971 -0.40356,0.166706 -0.8319,0.280924 -0.95185,0.253818 -0.11996,-0.0271 -0.14821,0.06381 -0.0628,0.202033 0.0854,0.138221 0.0192,0.55005 -0.14716,0.915172 -0.24865,0.54573 -0.21231,0.81824 0.2042,1.531406 0.79022,1.35305 2.44413,1.599853 3.65657,0.54565 z m -21.9558,-10.208196 c -0.56572,-0.863409 -0.35659,-2.93343 0.37505,-3.712225 0.30429,-0.323898 0.55325,-0.70112 0.55325,-0.838269 0,-0.13715 0.44648,-0.65913 0.99219,-1.15996 0.5457,-0.500827 0.99218,-0.976251 0.99218,-1.0565 0,-0.08025 0.0893,-0.116138 0.19844,-0.07976 0.10914,0.03638 0.19844,-0.05292 0.19844,-0.198438 0,-0.145521 0.16401,-0.264583 0.36448,-0.264583 0.20046,0 0.51269,-0.178594 0.69385,-0.396875 0.36941,-0.445109 2.13243,-0.539861 2.536,-0.136295 0.14332,0.143317 0.66364,0.304702 1.15627,0.358635 1.28961,0.141179 1.25888,1.345358 -0.0411,1.610569 -0.82251,0.167801 -1.71757,0.669279 -2.38175,1.334418 -0.39323,0.393798 -0.83971,0.638892 -0.99219,0.544655 -0.24726,-0.152818 -0.39199,0.179983 -0.31049,0.713994 0.0162,0.105953 -0.31401,0.370226 -0.73373,0.587272 -0.65421,0.338304 -1.23867,1.287952 -1.29101,2.097654 -0.0158,0.244104 -1.37692,1.218744 -1.70621,1.221729 -0.10579,0.0011 -0.37744,-0.280752 -0.60367,-0.626023 z m 2.4647,-4.803192 c -0.0815,-0.08146 -0.22941,0.06538 -0.32877,0.326318 -0.14358,0.377084 -0.11319,0.407474 0.14812,0.148114 0.18082,-0.179478 0.26211,-0.39297 0.18065,-0.474432 z m -18.602032,1.804058 c -1.21,-0.287967 -4.94897,-1.683305 -6.17396,-2.304057 -1.78231,-0.903163 -4.87856,-3.553127 -4.69881,-4.021535 0.0782,-0.203898 -0.0228,-0.366257 -0.22791,-0.366257 -0.40199,0 -0.59426,-0.22642 -3.41905,-4.026357 -2.21613,-2.98118 -4.2932,-5.396294 -5.96014,-6.930189 -0.64672,-0.595098 -1.36436,-1.260589 -1.59477,-1.47887 -1.64845,-1.561687 -7.11769,-4.383198 -10.07223,-5.196133 -2.51051,-0.690764 -7.94827,-0.684131 -9.34899,0.0114 -1.0796,0.536078 -2.0041,1.775044 -2.53796,3.401229 -0.38653,1.177404 -0.81305,1.065324 -0.81305,-0.213651 0,-2.515394 1.91572,-5.049059 4.41107,-5.8339431 2.05717,-0.6470597 6.55852,-0.3937899 9.74391,0.5482431 7.11728,2.10484 12.36911,6.205479 18.84011,14.710407 4.62117,6.073676 6.70978,7.650285 12.16654,9.184011 2.306482,0.648285 2.491742,0.751449 2.695772,1.501132 0.12049,0.442754 0.17,0.894305 0.11002,1.003446 -0.11669,0.212307 -2.243332,0.219884 -3.120552,0.01111 z M 181.7467,15.667381 c -1.0914,-0.357272 -2.09191,-0.756679 -2.22334,-0.887571 -0.13144,-0.130892 -0.42909,-0.146378 -0.66146,-0.03441 -0.52833,0.254569 -0.82336,0.228925 -1.43475,-0.124709 -0.72085,-0.416943 -0.52008,-2.058186 0.26544,-2.170035 0.31686,-0.04512 0.71839,-0.253477 0.89229,-0.463021 0.36226,-0.436491 2.01068,-0.503778 3.01231,-0.122957 0.44097,0.167655 0.67868,0.167655 0.67868,0 0,-0.42122 0.49203,-0.295167 1.05833,0.271131 0.29104,0.291042 0.55893,0.501568 0.59531,0.467834 0.20347,-0.188664 1.27286,0.862938 1.50891,1.483815 0.37764,0.993246 0.34901,1.378154 -0.13874,1.86591 -0.54559,0.545587 -1.16496,0.495732 -3.55298,-0.285985 z m -9.57999,75.957902 c 5.86253,-1.19209 13.18165,-4.661074 19.01979,-9.01466 0.55618,-0.414756 1.07077,-0.816965 1.14353,-0.8938 0.0728,-0.07683 0.83697,-0.732353 1.69824,-1.456714 3.43074,-2.885387 6.93205,-7.622822 8.51746,-11.524543 1.29577,-3.188917 1.29832,-7.376577 0.007,-11.090491 -1.10232,-3.169719 -2.6215,-5.427556 -5.71534,-8.494257 -2.37384,-2.353014 -3.18844,-2.978848 -5.05741,-3.885483 -2.88439,-1.399201 -5.0132,-1.764146 -9.09978,-1.559983 -4.90169,0.244885 -10.3751,1.713772 -14.95616,4.013755 -2.2355,1.122363 -5.42255,3.249269 -6.35312,4.239808 -0.34006,0.361976 -0.86542,0.667541 -1.16748,0.679029 -0.30205,0.01148 -0.41015,0.07768 -0.24022,0.147087 0.192,0.07842 -0.004,0.466683 -0.5164,1.025538 -0.67189,0.732095 -0.90156,0.842421 -1.23502,0.593276 -0.33477,-0.250127 -0.35198,-0.241068 -0.0942,0.04957 0.24929,0.281027 0.16635,0.555857 -0.39537,1.310155 -0.39096,0.524992 -0.77545,1.014061 -0.85441,1.086821 -0.079,0.07276 -0.51008,0.694034 -0.95805,1.380609 -0.44796,0.686576 -0.89005,1.192591 -0.98242,1.12448 -0.0924,-0.06811 -0.11424,-0.0503 -0.0486,0.03958 0.0656,0.08988 -0.41393,1.225187 -1.06569,2.522913 -1.78023,3.544652 -2.58211,7.126038 -2.59751,11.601172 -0.0149,4.334774 0.48918,6.858362 2.00161,10.020357 1.75207,3.663003 4.93013,6.46267 8.94535,7.880273 1.42136,0.501822 2.27432,0.610023 4.84506,0.614622 1.81208,0.0032 3.97492,-0.168259 5.15938,-0.409107 z M 184.9217,77.591109 c -1.34347,-0.236553 -2.88848,-0.637847 -3.61669,-0.939384 -0.41191,-0.170567 -0.80846,-0.323099 -0.88122,-0.338961 -0.77403,-0.168732 -2.85117,-1.352528 -2.72667,-1.553974 0.0894,-0.144693 0.0368,-0.185357 -0.11687,-0.09036 -0.1537,0.09499 -0.692,-0.239829 -1.19623,-0.744051 -0.50422,-0.504222 -0.96706,-0.866473 -1.02852,-0.805005 -0.13681,0.13681 -2.34607,-2.129396 -2.95634,-3.032543 -0.64645,-0.956691 -0.54958,-1.748025 0.28556,-2.332781 0.57107,-0.399854 0.88414,-0.455909 1.45521,-0.260551 0.40018,0.136898 0.72761,0.334272 0.72761,0.43861 0,0.285099 2.88392,3.205782 3.16544,3.205782 0.13427,0 0.43177,0.26789 0.6611,0.595312 0.22934,0.327422 0.44445,0.548077 0.47803,0.490344 0.11549,-0.198577 1.25168,0.273146 1.25168,0.519674 0,0.135713 0.21163,0.246753 0.47029,0.246753 0.25866,0 0.76468,0.206192 1.12448,0.458208 0.3598,0.252016 0.68571,0.420148 0.72425,0.373631 0.0385,-0.04652 0.87197,0.04987 1.85208,0.214207 1.54657,0.259307 3.03781,0.240504 4.58656,-0.05783 0.23281,-0.04484 0.73463,-0.285541 1.11517,-0.534876 0.38053,-0.249335 0.7556,-0.453337 0.83348,-0.453337 0.37297,0 1.17585,-1.109872 1.59296,-2.202058 0.4527,-1.185378 0.45967,-3.029006 0.0202,-5.338567 -0.0831,-0.436562 -0.0808,-0.644181 0.005,-0.461372 0.19631,0.417973 0.64008,0.165883 0.64008,-0.363606 0,-0.220414 -0.12895,-0.31718 -0.29002,-0.217636 -0.18016,0.111347 -0.25395,-0.008 -0.19481,-0.315114 0.0713,-0.370014 0.32721,-0.494355 1.01762,-0.494355 0.84269,0 0.97936,0.114353 1.58113,1.322917 0.56194,1.128569 0.65911,1.692174 0.66146,3.836458 0.002,2.154007 -0.0906,2.696392 -0.65023,3.791862 -0.35913,0.703078 -0.86848,1.393661 -1.13189,1.534629 -0.2634,0.14097 -0.41736,0.355907 -0.34212,0.477639 0.0752,0.121729 -0.0405,0.368458 -0.25718,0.548288 -0.21667,0.179826 -0.39396,0.23463 -0.39396,0.121787 0,-0.112844 -0.2318,0.0621 -0.51512,0.388771 -0.30308,0.349446 -0.64665,0.512657 -0.83463,0.396478 -0.1999,-0.123544 -0.25069,-0.08611 -0.13567,0.09999 0.2169,0.350946 -1.37758,1.094599 -2.74791,1.281604 -1.65325,0.22561 -3.55661,0.312576 -4.23333,0.193421 z M 166.93017,62.903142 c -1.64204,-0.65477 -2.68898,-2.559854 -2.13529,-3.885501 0.49703,-1.189966 1.94697,-1.930054 4.08438,-2.084771 1.68092,-0.121674 1.98847,-0.06757 2.81328,0.49486 1.0713,0.730523 1.312,1.593591 0.58819,2.109089 -0.27514,0.195953 -0.71733,0.928436 -0.98265,1.627743 -0.69722,1.837629 -2.40991,2.519339 -4.36791,1.73858 z m 20.3123,-6.572705 c -0.86703,-0.682008 -1.18876,-2.084554 -0.73144,-3.188626 0.17982,-0.434136 0.45142,-0.789339 0.60354,-0.789339 0.15211,0 0.19937,-0.07721 0.105,-0.171577 -0.49378,-0.493779 2.85229,-2.339067 3.69636,-2.038469 0.75157,0.267655 1.4141,0.922941 1.4141,1.398622 0,0.650592 -1.70708,4.05552 -2.29551,4.578593 -0.8613,0.765646 -1.97936,0.850059 -2.79205,0.210796 z m 15.30066,-5.631611 c -0.20933,-1.672743 -0.91281,-4.102909 -1.39567,-4.821372 -0.19292,-0.287039 -0.35076,-0.793054 -0.35076,-1.124479 0,-0.331422 -0.12526,-0.602586 -0.27835,-0.602586 -0.15309,0 -0.40286,-0.357187 -0.55504,-0.79375 -0.15219,-0.436562 -0.38796,-0.79375 -0.52393,-0.79375 -0.13598,0 -0.33269,-0.227848 -0.43714,-0.506333 -0.27938,-0.744844 -2.4059,-2.93325 -2.85032,-2.93325 -0.28921,0 -0.38998,-0.402683 -0.41384,-1.653646 l -0.0315,-1.653646 -0.32215,1.618687 c -0.3571,1.794266 -1.12982,3.241198 -2.41269,4.517792 -0.77618,0.772393 -0.81172,0.877485 -0.41458,1.225944 0.2389,0.209621 0.94039,0.635548 1.55885,0.946502 0.61847,0.310954 1.12448,0.670367 1.12448,0.798695 0,0.128328 0.35719,0.357838 0.79375,0.510026 0.43656,0.152186 0.79375,0.401958 0.79375,0.555049 0,0.15309 0.15972,0.278347 0.35494,0.278347 0.39147,0 2.95777,2.676538 4.40633,4.595624 0.50865,0.673865 0.97047,1.225209 1.02628,1.225209 0.0558,0 0.0232,-0.625078 -0.0724,-1.389063 z m -9.36275,-11.143098 c 0.42358,-0.321792 0.4481,-1.417363 0.0463,-2.067528 -0.22632,-0.366197 -1.36417,-0.240792 -1.80376,0.198797 -1.21126,1.211257 0.38657,2.910215 1.75749,1.868731 z m -0.35904,-4.372171 c 0.87308,-0.553212 -0.55574,-3.468584 -1.69995,-3.468584 -0.82419,0 -0.81226,0.127495 0.19446,2.079503 0.87996,1.70619 0.93088,1.753172 1.50549,1.389081 z m -3.55753,-2.959719 c 0.79962,-0.950301 0.81634,-1.074859 0.28274,-2.106731 -0.22123,-0.427813 -0.42959,-0.858822 -0.46302,-0.9578 -0.0334,-0.09897 -0.62644,-0.225306 -1.3178,-0.280728 -1.09357,-0.08767 -1.34298,-0.008 -1.91823,0.612696 -0.80593,0.869616 -0.84735,1.915697 -0.11285,2.849475 0.44187,0.561744 0.77132,0.69714 1.69628,0.69714 0.95699,0 1.26181,-0.135382 1.83288,-0.814052 z m 10.41545,-12.648334 c 1.90441,-1.967886 5.08619,-6.127271 5.08619,-6.648942 0,-0.143872 0.11906,-0.261588 0.26458,-0.261588 0.14552,0 0.26459,-0.180959 0.26459,-0.402132 0,-0.221173 0.27698,-0.846251 0.61552,-1.389063 1.36498,-2.188609 2.9236,-6.5496406 4.3243,-12.0994288 0.66964,-2.653202 0.73518,-3.343005 0.74164,-7.805208 0.008,-5.4691782 -0.30327,-7.2180642 -1.80712,-10.1563582 -2.35686,-4.604933 -5.91152,-5.7968 -11.54726,-3.871765 -1.38245,0.472211 -2.64356,0.963183 -2.80247,1.091049 -0.15891,0.127866 -0.37374,0.147667 -0.4774,0.044 -0.10367,-0.103664 -0.27131,-0.06001 -0.37254,0.097 -0.10122,0.157015 -1.05069,0.774553 -2.10991,1.372305 -2.30204,1.299106 -5.11437,3.404256 -7.46685,5.589272 -0.94588,0.878552 -1.80908,1.598219 -1.91822,1.599261 -0.10914,0.0011 -0.19844,0.135004 -0.19844,0.297693 0,0.391721 -1.63277,2.236319 -1.90451,2.151597 -0.11669,-0.03638 -0.18239,0.03665 -0.14601,0.16229 0.1057,0.365038 -2.00436,3.1881342 -2.50817,3.3557342 -0.2517,0.08374 -0.44596,0.234286 -0.43169,0.334558 0.091,0.639479 -0.10786,1.173104 -0.58671,1.573967 -0.3025,0.253235 -0.69724,0.758086 -0.87719,1.121888 -0.60527,1.22368 -0.38943,1.654538 1.32311,2.641098 3.79606,2.18683631 8.10196,5.4617904 8.44217,6.4208811 0.0903,0.2546615 0.32489,0.4630208 0.52124,0.4630208 0.19635,0 0.41791,0.1488282 0.49237,0.3307292 0.0892,0.2178896 0.40488,0.044619 0.92531,-0.5078465 0.43447,-0.461219 0.87881,-0.7588753 0.98743,-0.6614583 0.10862,0.097414 0.12501,0.049596 0.0364,-0.106262 -0.17888,-0.3147298 1.37826,-3.47918069 2.35811,-4.79219629 0.34569,-0.463233 0.62853,-0.97264301 0.62853,-1.13202301 0,-0.49739 1.63446,-3.570959 2.01734,-3.793569 0.20015,-0.116372 0.36391,-0.420484 0.36391,-0.675804 0,-0.25532 0.35719,-1.027446 0.79375,-1.715833 0.43657,-0.688388 0.79375,-1.31404 0.79375,-1.390335 0,-0.455772 3.58358,-4.8098502 5.47104,-6.6473632 1.81479,-1.766763 2.50639,-2.26032 3.69024,-2.633494 1.04253,-0.328629 1.57914,-0.382125 1.88674,-0.188095 0.62787,0.396046 0.71285,0.894648 0.15268,0.89579 -0.26679,5.56e-4 -0.87202,0.236919 -1.34497,0.525278 -0.47294,0.288359 -0.85989,0.484941 -0.85989,0.436853 0,-0.04809 -0.47625,0.36561 -1.05834,0.919332 -0.58208,0.553723 -1.05833,1.192684 -1.05833,1.419913 0,0.227232 -0.29766,0.548767 -0.66146,0.714526 -0.3638,0.165761 -0.66146,0.507656 -0.66146,0.759772 0,0.252113 -0.16599,0.522089 -0.36888,0.599943 -0.4927,0.189066 -1.77043,1.884285 -1.87058,2.4817732 -0.0439,0.261797 -0.22165,0.44328 -0.39504,0.403293 -0.17338,-0.03998 -0.25853,0.01955 -0.18921,0.132292 0.0693,0.112747 -0.13019,0.643438 -0.44336,1.179314 -0.31316,0.535877 -1.21616,2.083689 -2.00666,3.439583 -0.79051,1.355895 -1.54322,2.537116 -1.67269,2.624939 -0.12948,0.08782 -0.27232,0.495859 -0.31742,0.906749 -0.0451,0.41088701 -0.27466,0.88794101 -0.51012,1.06011601 -0.23547,0.172175 -0.42812,0.5082806 -0.42812,0.7468977 0,0.2386197 -0.09,0.43385309 -0.19999,0.43385309 -0.19422,0 -0.38132,0.3745918 -1.22246,2.4473957 -0.22145,0.5457031 -0.5255,0.9921875 -0.67567,0.9921875 -0.15018,0 -0.34775,0.2976562 -0.43906,0.6614583 -0.0913,0.363802 -0.24825,0.6614583 -0.34877,0.6614583 -0.10051,0 -0.33898,0.4320645 -0.52994,0.9601411 -0.23688,0.6550845 -0.4138,0.8523578 -0.55685,0.6209003 -0.13317,-0.2154687 -0.19482,-0.091228 -0.16898,0.340524 0.0224,0.3738695 0.0893,0.63128 0.14863,0.5720186 0.21378,-0.2133812 0.80829,0.483227 0.64201,0.7522765 -0.10223,0.165399 -0.0411,0.1956435 0.15301,0.075689 0.20574,-0.1271508 0.37612,0.00238 0.46861,0.3559942 0.0799,0.3056837 0.23034,0.5557895 0.33422,0.5557895 0.30848,0 1.86607,2.299758 1.86607,2.755233 0,0.23087 0.0893,0.419889 0.19844,0.420037 0.20919,2.64e-4 1.68458,2.494764 1.5814,2.673709 -0.033,0.05728 -0.0106,0.07457 0.0498,0.03842 0.15851,-0.09486 1.5429,3.255555 1.75652,4.251026 0.49633,2.312913 1.04336,2.228299 3.76309,-0.582065 z m -96.45984,-5.786051 c 1.45785,-2.288026 2.19624,-3.858921 1.74282,-3.70778 -0.46988,0.156625 -3.67378,4.974767 -3.49761,5.259818 0.30201,0.488662 0.65146,0.179583 1.75479,-1.552038 z M 153.2676,5.2713943 c 2.57135,-0.4453599 2.97076,-0.5907696 3.79269,-1.3807466 0.89373,-0.858983 0.9161,-0.9304707 0.82358,-2.632096 -0.0851,-1.56619349 -0.2082,-1.89894049 -1.17651,-3.1814555 -3.44824,-4.567161 -11.42713,-6.794648 -20.65338,-5.765861 -5.33708,0.59512 -9.87899,2.209975 -11.96392,4.253717 l -1.15357,1.130787 1.02854,0.896125 c 1.20736,1.05192001 6.26265,3.6446695 9.09834,4.66635 2.29243,0.8259471 6.82467,1.9427269 9.12813,2.2492466 2.97182,0.3954568 8.05546,0.28711 11.0761,-0.2360665 z m -39.17004,-8.6102001 c 2.73585,-1.3658 3.88552,-3.185625 3.88309,-6.146575 -0.002,-2.4371432 -0.34556,-3.4973892 -1.59214,-4.9135852 -4.3981,-4.996507 -12.69389,-1.590103 -12.69389,5.2123452 0,2.806231 1.17751,4.86307 3.46903,6.059614 1.26718,0.661673 1.64648,0.734036 3.41014,0.650592 1.53371,-0.07257 2.33398,-0.268417 3.52377,-0.862391 z m 40.81077,-6.017985 c -0.101,-0.7613462 -0.22079,-1.4214232 -0.26621,-1.4668422 -0.14163,-0.141636 -1.26987,-0.296777 -3.05792,-0.420483 -2.25488,-0.156007 -3.7533,-0.435409 -4.18735,-0.780791 -0.25411,-0.2022 -0.41873,-0.17444 -0.59683,0.100645 -0.41077,0.634463 -0.15017,1.385353 0.55085,1.58724 2.55793,0.7366532 3.8905,1.1538592 4.23333,1.3253862 0.45241,0.226345 2.92381,0.998111 3.27524,1.022786 0.12788,0.009 0.14989,-0.606594 0.0489,-1.367941 z m -0.38736,-4.2472392 c 1.34504,-0.468691 2.78107,-1.68688 3.56457,-3.023822 0.55118,-0.940516 0.67482,-1.506965 0.69618,-3.189461 0.0295,-2.324189 -0.50337,-3.703693 -1.9802,-5.126287 -0.46843,-0.45123 -0.82336,-0.920703 -0.78872,-1.043274 0.0346,-0.122571 -0.0907,-0.163879 -0.27857,-0.09179 -0.18785,0.07208 -0.77791,-0.05126 -1.31125,-0.274106 -1.26434,-0.528278 -3.44624,-0.498322 -5.01523,0.06886 -1.41151,0.510251 -3.64438,2.259936 -3.64438,2.855744 0,0.216159 -0.2064,0.708028 -0.45868,1.093042 -0.30615,0.467259 -0.46011,1.233968 -0.46302,2.305796 -0.005,1.975273 0.86179,3.862161 2.29885,5.002314 1.94019,1.539338 5.22761,2.173171 7.38045,1.42299 z"
       id="path4946" /></g></svg>
