<?xml version="1.0" encoding="UTF-8" standalone="no"?>
<!-- Created with Inkscape (http://www.inkscape.org/) -->

<svg
   width="201.59129mm"
   height="219.7838mm"
   viewBox="0 0 201.5913 219.78373"
   version="1.1"
   id="svg5"
   xml:space="preserve"
   xmlns="http://www.w3.org/2000/svg"
   xmlns:svg="http://www.w3.org/2000/svg"><defs
     id="defs2" /><g
     id="layer1"
     transform="translate(6.2374782,2.2879198)"><path
       style="fill:#000000;stroke-width:0.264583"
       d="m 105.80093,217.38839 c -5.64715,-0.67053 -9.353299,-2.92595 -12.263929,-7.46337 l -1.31917,-2.05646 -2.9899,-0.34139 c -3.39702,-0.38788 -8.32952,-1.53491 -10.67908,-2.48337 -1.22085,-0.49283 -2.29025,-0.67758 -4.63021,-0.79991 -1.67349,-0.0875 -3.71341,-0.28534 -4.53315,-0.43967 -1.43995,-0.2711 -1.71335,-0.21703 -8.06979,1.59575 -19.50588,5.56287 -23.59512,6.07424 -28.80435,3.60203 -2.18216,-1.03561 -4.34986,-2.95044 -5.81431,-5.13606 -0.95958,-1.43211 -1.1652,-1.59301 -2.34461,-1.83461 -1.13267,-0.23202 -1.59225,-0.17071 -3.71068,0.495 -3.81232,1.19802 -7.84984,1.08354 -9.57239,-0.27142 -0.39714,-0.31239 -1.03344,-0.56915 -1.4140005,-0.57057 -0.38056,-0.001 -1.28723,-0.27637 -2.01484,-0.61099 -1.15013,-0.52894 -1.40931,-0.56367 -1.98437,-0.2659 -0.95486,0.49443 -2.12078,0.42648 -3.11835,-0.18173 -0.79951,-0.48746 -0.93138,-0.49801 -1.64050997,-0.1313 -0.91372,0.4725 -2.36573003,0.51669 -3.28060003,0.0999 -1.43904,-0.65567 -1.56125,-2.8837 -0.29138,-5.31227 1.37363,-2.62703 1.96473003,-3.15911 3.91621,-3.52521 0.84333,-0.15821 0.93273,-0.26311 1.02199,-1.19917 0.0913,-0.95738 0.0445,-1.03721 -0.70216,-1.19689 -1.21876997,-0.26066 -3.82391,-1.61758 -5.07707,-2.64445 -0.70066,-0.57413 -1.43626,-1.55952 -1.96311,-2.6297 -0.76055,-1.5449 -0.83008,-1.88549 -0.71427,-3.49881 0.21681,-3.02039 1.61147,-5.03891 4.3774,-6.3355 2.22284003,-1.04199 5.66942,-1.12317 8.09924,-0.19076 0.34907,0.13395 0.43094,-0.0158 0.43094,-0.78824 0,-0.71442 -0.29909,-1.35989 -1.1924,-2.57336 -1.56938,-2.13186 -2.07799,-3.914 -1.92872,-6.75808 l 0.11584,-2.20699 h -0.85831 c -2.04587997,0 -3.35414997,-2.25801 -3.40524997,-5.87731 l -0.0326,-2.30544 -0.89035003,-0.60498 c -1.34939,-0.91688 -1.97368,-2.35848 -2.08924,-4.82449 -0.0542,-1.15657 0.044,-2.74004 0.21833,-3.51882 0.69848,-3.12114 3.81206003,-4.47814 7.82366,-3.40979 l 1.33288,0.35496 0.45229,-1.53468 c 0.63468,-2.15356 1.74631,-2.99118 3.9903505,-3.00674 0.89256,-0.006 1.89074,0.0861 2.21816,0.20502 0.54154,0.19673 0.59531,0.13662 0.59531,-0.66559 0,-1.92536 2.01458,-3.9163 3.96279,-3.9163 0.95488,0 2.309,0.79121 2.90093,1.695 0.49902,0.76194 0.50223,0.6906 0.35181,-7.81227 -0.16466,-9.30723 -0.0703,-10.19356 1.17244,-11.00781 0.88354,-0.57891 3.0309,-0.54152 3.98107,0.0693 0.8144,0.52356 1.51969,1.2329 4.07696,4.10027 4.24435,4.75907 7.8069,9.71926 9.85143,13.71627 1.40757,2.7518 3.86507,8.51446 3.86507,9.06334 0,0.13586 0.16603,0.64439 0.36896,1.13007 l 0.36896,0.88306 1.81385,-0.89581 c 3.03963,-1.50117 4.94357,-1.76284 11.20656,-1.54014 9.72612,0.34584 8.5844,0.48579 11.14173,-1.36573 3.1653,-2.29169 4.01485,-3.80671 5.26768,-9.39397 l 0.45291,-2.01983 -1.88273,-0.17939 c -4.59152,-0.43749 -9.27489,-1.36928 -15.3266,-3.04933 -10.4865,-2.91122 -16.8613,-5.89397 -20.73147,-9.7002 -0.86808,-0.85374 -1.96776,-1.90943 -2.44374,-2.346 -1.21584,-1.11516 -3.12971,-4.07439 -4.04686,-6.25727 -1.0746,-2.55764 -1.5251,-4.92444 -1.53049,-8.040779 -0.008,-4.749225 1.05489,-7.387288 5.2736,-13.086317 3.71796,-5.022567 3.95462,-5.511393 4.23587,-8.749339 l 0.23344,-2.68746 -0.86895,-0.868953 c -0.80158,-0.801582 -1.32047,-2.043306 -0.99137,-2.372405 0.0762,-0.07618 0.53538,-0.138509 1.02045,-0.138509 h 0.88195 v -1.566476 c 0,-1.553448 -0.007,-1.567998 -0.8599,-1.749153 -1.54574,-0.328377 -5.05724,-1.618472 -6.79883,-2.497833 -6.21815,-3.139667 -10.70633,-9.309832 -12.98626,-17.852953 -1.17911,-4.418247 -1.55199,-6.880851 -1.8421,-12.165985 -0.38663,-7.043319 0.14229,-13.219723 1.72417,-20.133677 0.819,-3.579614 1.33584,-4.48646 2.96859,-5.208701 1.03253,-0.456737 1.77745,-0.549135 4.42471,-0.548823 3.79695,5.29e-4 6.48749,0.377341 10.07806,1.411748 8.89886,2.563669 15.99626,6.900219 23.07123,14.09665 1.92763,1.960721 3.55906,3.47712 3.6254,3.369773 0.0663,-0.107344 1.49922,-0.88098 3.18416,-1.719186 2.36163,-1.174842 3.03414,-1.624239 2.93525,-1.961469 -0.0705,-0.240599 -0.25743,-1.211361 -0.41527,-2.157246 -0.52503,-3.146245 -0.50891,-3.109886 -1.68559,-3.799467 -1.58538,-0.929097 -3.52952,-3.106327 -4.35227,-4.874085 -0.62016,-1.332468 -0.70473,-1.844239 -0.7091,-4.291031 -0.006,-3.2716628 0.45431,-4.9593049 1.94782,-7.1437498 1.20913,-1.7684987 3.68609,-3.70700072 5.76664,-4.5130421 1.84553,-0.7149924 5.91665,-0.9905504 8.00802,-0.5420324 4.31249,0.9248641 7.70645,4.1396242 9.05392,8.5758768 1.14303,3.7631685 0.0666,7.6500005 -2.79583,10.0954595 l -1.40762,1.202574 0.4184,1.748705 0.41841,1.748706 1.33118,-0.164143 c 5.22344,-0.644088 7.13397,-0.742317 12.04681,-0.619387 3.05561,0.07646 6.735359,0.334868 8.427329,0.591802 3.46872,0.526743 3.36723,0.570018 4.12035,-1.757058 l 0.48283,-1.491912 -0.84549,-1.228886 c -1.68359,-2.447007 -1.9938,-3.458895 -1.99361,-6.502913 1.7e-4,-2.6493311 0.0449,-2.8720362 0.96496,-4.8038093 2.48908,-5.22614502 7.92426,-8.135351 13.82936,-7.402231 7.55271,0.9376741 13.05611,9.1337066 11.12118,16.5624153 -0.55125,2.116375 -1.57776,3.918767 -3.10795,5.457015 -1.25915,1.265791 -4.14462,2.88661 -5.13889,2.88661 -0.37814,0 -0.61872,0.349395 -0.94662,1.374759 -0.2418,0.756118 -0.41335,1.393277 -0.38123,1.415907 0.0321,0.02262 1.18949,0.556903 2.57194,1.187267 3.12194,1.423535 5.17083,2.599079 7.47785,4.290388 l 1.78931,1.311767 1.91486,-1.91067 c 7.05637,-7.040946 14.3694,-10.77515 25.33048,-12.934344 5.85145,-1.152662 12.1467,-1.362622 20.51237,-0.68413 5.52753,0.448307 8.02318,0.961117 8.82357,1.813089 0.84642,0.90098 1.20044,3.879347 1.18348,9.9568 -0.0253,9.065164 -1.56005,15.630288 -5.5084,23.562843 -5.40576,10.860592 -12.14574,17.222159 -21.13159,19.945148 -1.7546,0.531699 -8.24003,1.723869 -9.43568,1.734494 -0.0728,5.29e-4 -0.13229,2.709868 -0.13229,6.020491 0,6.301004 -0.19878,7.942436 -1.4957,12.35073 -0.72893,2.47767 -2.55496,6.690077 -4.04789,9.337917 l -1.22666,2.17559 0.17607,1.94305 c 0.22392,2.47107 -0.22669,5.1893 -1.16399,7.02145 -0.85531,1.67191 -2.48364,3.68538 -3.69573,4.56988 -0.51336,0.37461 -1.17545,1.28665 -1.61363,2.22277 -0.40868,0.87313 -1.2351,2.18282 -1.83648,2.91042 -1.72535,2.08747 -5.54325,5.32796 -7.47059,6.34075 -1.94735,1.0233 -5.53879,1.9889 -7.40817,1.99177 -1.13245,0.002 -1.237,0.0631 -1.67653,0.98486 -0.25782,0.54065 -0.82565,1.43362 -1.26186,1.98438 -0.4362,0.55075 -0.67363,1.00136 -0.52761,1.00136 0.63484,0 3.24092,2.77073 3.93446,4.18304 0.63538,1.29386 0.73931,1.82545 0.73931,3.78141 0,2.2701 0.003,2.27879 1.022,3.4072 1.53931,1.70392 2.06569,3.12059 2.07647,5.58845 l 0.009,2.09403 3.60557,3.14141 c 1.98306,1.72777 4.52223,4.08817 5.64258,5.24534 l 2.03701,2.10393 0.15501,-1.47709 c 0.55798,-5.31717 1.59664,-13.11765 2.14452,-16.10563 1.23437,-6.7319 3.96907,-12.98936 8.4033,-19.2282 1.94229,-2.73274 7.07569,-9.0857 8.51641,-10.53966 2.59318,-2.61703 5.36687,-2.77022 6.66785,-0.36827 0.39837,0.7355 0.45177,1.60811 0.41595,6.79696 -0.0226,3.27422 -0.12238,7.30446 -0.22172,8.95608 l -0.18063,3.00296 0.9245,-1.0088 c 0.87832,-0.95842 1.00674,-1.0093 2.57098,-1.01859 1.61289,-0.01 1.66719,0.0136 2.66175,1.13367 0.71589,0.80626 1.06673,1.48655 1.18976,2.30699 l 0.17449,1.16355 0.75179,-0.38876 c 1.08519,-0.56118 3.11707,-0.4932 4.15391,0.13897 1.04421,0.63666 1.91348,1.98858 1.91483,2.97799 10e-4,0.86389 0.12526,0.87948 1.7869,0.22452 2.86162,-1.12794 6.32338,-0.87157 7.67625,0.56849 0.80079,0.85241 1.37415,2.62788 1.56048,4.83228 0.21752,2.57313 -0.4002,4.68471 -1.7446,5.96374 l -0.98757,0.93955 0.37324,1.04482 c 0.49009,1.37192 0.29612,3.92698 -0.4013,5.28595 -0.61167,1.19186 -1.7622,1.97659 -2.89801,1.97659 h -0.77164 l 0.11642,2.21798 c 0.14918,2.84236 -0.31794,4.29566 -2.08594,6.48973 -1.14554,1.42161 -1.3085,1.76531 -1.15922,2.445 0.13124,0.59752 0.28077,0.74911 0.61161,0.62007 4.14487,-1.61675 8.52372,-0.89898 10.6804,1.75071 1.9636,2.41246 2.33262,5.42653 0.99269,8.10797 -1.24915,2.49976 -3.28113,4.05536 -6.80342,5.20842 -0.76399,0.2501 -1.38907,0.56422 -1.38907,0.69805 0,0.13383 0.66267,0.24332 1.47261,0.24332 1.8324,0 2.35491,0.2734 3.02218,1.58136 0.29027,0.56897 0.99951,1.70795 1.5761,2.53106 1.24159,1.77242 1.56677,3.29323 0.99616,4.65888 -0.55473,1.32766 -1.62461,1.71809 -3.66711,1.33825 -1.41057,-0.26232 -1.66835,-0.23877 -2.42307,0.22142 -0.94557,0.57655 -2.46641,0.67078 -3.46712,0.21483 -0.53855,-0.24538 -0.7932,-0.21685 -1.35601,0.15192 -0.38113,0.24972 -1.47812,0.74957 -2.43778,1.11079 -0.95965,0.36121 -2.08682,0.94452 -2.50482,1.29624 -1.19846,1.00844 -2.46464,1.25442 -5.78915,1.12467 -2.44958,-0.0956 -3.48936,-0.27265 -5.53032,-0.94168 -3.71148,-1.21663 -8.43689,-1.89975 -9.03725,-1.30646 -0.81062,0.80108 -2.5046,1.77705 -3.08441,1.77705 -0.83023,0 -4.31484,-1.20898 -6.17805,-2.14348 l -1.49868,-0.75166 -0.81571,1.27118 c -1.06172,1.65455 -3.94105,4.40945 -6.09933,5.83577 -3.86078,2.55143 -8.18802,4.32862 -17.2074,7.06704 -5.85308,1.77708 -7.81538,2.24228 -12.17083,2.88534 -2.51739,0.37168 -2.88759,0.38986 -4.36563,0.21436 z m 6.78363,-3.1355 c 2.85011,-0.59464 11.91042,-3.27604 15.83825,-4.68732 11.81207,-4.24413 17.28267,-9.97116 18.5384,-19.40737 0.17045,-1.2809 0.23207,-3.08876 0.13692,-4.01747 -0.9673,-9.44135 -3.78188,-15.32947 -10.60046,-22.17623 -2.98108,-2.9934 -8.14394,-7.53934 -7.76341,-6.83576 1.83947,3.40116 2.63547,7.29469 2.07736,10.16121 -0.39822,2.04533 -1.61856,4.51392 -2.94028,5.94781 -1.16285,1.26155 -3.46865,2.69355 -6.04124,3.75187 l -1.47708,0.60765 2.18281,0.006 c 1.59292,0.005 2.18281,0.0977 2.18281,0.34467 0,0.2255 -0.78825,0.44573 -2.36305,0.66021 -2.17086,0.29565 -9.72734,1.84002 -10.10063,2.06433 -0.0883,0.0531 0.35818,0.63786 0.99219,1.29955 2.04502,2.1343 1.17322,2.82155 -1.00026,0.78851 -1.90352,-1.78052 -4.73223,-2.80382 -7.58346,-2.74336 -1.39612,0.0296 -3.05332,0.42812 -1.98115,0.47642 1.03004,0.0464 3.34122,1.09403 4.74294,2.14993 2.44484,1.84167 4.87539,6.14944 6.11506,10.83799 0.56367,2.13185 0.66787,3.12331 0.68159,6.48532 0.015,3.67327 -0.0384,4.12634 -0.71652,6.08542 -1.57596,4.55268 -3.86661,6.8584 -7.15027,7.1973 -1.90641,0.19676 -4.44888,-0.35189 -4.33446,-0.93536 0.0741,-0.37784 0.39399,-0.42769 2.23024,-0.34759 2.5843,0.11274 3.99487,-0.40097 5.35519,-1.95031 2.12099,-2.41571 3.09996,-6.083 2.8551,-10.69549 -0.42428,-7.99234 -4.11062,-14.88521 -8.94258,-16.72121 -1.67028,-0.63465 -2.77675,-0.62121 -4.585989,0.0557 -3.08936,1.15587 -5.40906,4.18905 -6.37994,8.34227 -0.60016,2.5673 -0.40145,8.42324 0.38515,11.3505 1.3875,5.16342 4.36622,9.16454 8.246359,11.07678 1.08402,0.53424 2.50673,1.08337 3.16157,1.22028 1.57773,0.32989 5.7228,0.13239 8.23884,-0.39255 z m -71.030369,-6.49911 c 2.77266,-0.37932 8.9671,-1.94004 17.94466,-4.52125 l 7.40834,-2.13003 2.64583,0.13859 c 2.20331,0.11541 2.56768,0.0814 2.17859,-0.20306 -0.25699,-0.18791 -0.7757,-0.56527 -1.1527,-0.83857 -1.37997,-1.00039 -3.84038,-4.23567 -5.09502,-6.69964 -1.40301,-2.75533 -2.13828,-4.84759 -2.82227,-8.03091 -0.24378,-1.13454 -0.51934,-2.02683 -0.61237,-1.98286 -0.093,0.044 -0.77296,0.39792 -1.51096,0.78655 -2.25842,1.18929 -4.4111,1.64164 -7.78631,1.63617 -2.60119,-0.004 -3.3411,-0.1076 -5.09901,-0.71242 -2.46541,-0.84824 -4.05391,-1.84866 -4.59414,-2.89335 -0.22331,-0.43183 -0.52592,-2.21132 -0.68919,-4.05269 l -0.29107,-3.28283 -1.60861,-1.031 c -2.15966,-1.38418 -3.33142,-1.72935 -5.84194,-1.72091 -2.21028,0.007 -5.13939,0.64072 -3.83646,0.82947 2.71906,0.39388 4.83825,1.80927 7.31077,4.88279 5.49745,6.83373 7.80826,17.86979 4.96345,23.70469 -0.37563,0.77044 -1.1181,1.82839 -1.64994,2.351 -1.16397,1.14376 -3.29658,2.19518 -4.45969,2.19874 -1.47495,0.005 -3.51875,-0.54217 -3.51875,-0.94119 0,-0.28618 0.44422,-0.36618 1.94744,-0.35073 1.46095,0.015 2.20905,-0.11344 2.99461,-0.5142 1.35256,-0.69003 2.89201,-2.40403 3.56104,-3.96483 2.37567,-5.54222 -0.60997,-16.13006 -6.27348,-22.24732 -1.73634,-1.87547 -2.94911,-2.73337 -4.5362,-3.20887 -0.89081,-0.26689 -1.28277,-0.24848 -2.36552,0.11116 -1.87925,0.62418 -3.12013,1.77333 -4.11817,3.81372 l -0.86702,1.77255 8e-5,4.23333 c 6e-5,3.45216 0.11226,4.73421 0.60805,6.94765 1.04452,4.66331 2.39727,7.76019 4.7355,10.8411 2.08184,2.74307 4.25503,4.2461 7.15566,4.94899 1.91384,0.46378 2.69527,0.48306 5.2748,0.13016 z m 49.82695,-2.74315 c 0,-0.0637 -0.19529,-0.92693 -0.43398,-1.91823 -0.31002,-1.28753 -0.44228,-3.14017 -0.46302,-6.48598 l -0.029,-4.68363 -0.66146,0.18103 c -2.63785,0.72197 -8.96022,-0.68129 -10.79004,-2.39486 -0.77527,-0.72601 -1.27145,-2.48993 -1.75544,-6.24057 -0.21327,-1.65274 -0.43627,-3.0535 -0.49556,-3.11279 -0.0922,-0.0922 -10.60359,-2.74576 -10.87675,-2.74576 -0.0538,0 -0.3701,0.68461 -0.70288,1.52136 -0.33278,0.83674 -0.82132,1.83523 -1.08565,2.21885 -0.42011,0.60973 -0.44535,0.89273 -0.20052,2.24896 1.25915,6.97518 4.69684,12.18946 10.71261,16.24886 2.33912,1.57842 5.10806,2.89592 7.81293,3.7175 2.95239,0.89677 8.9688,1.86627 8.9688,1.44526 z m 84.209989,-3.60301 c 0.40367,-0.18732 0.80411,-0.62014 0.88987,-0.96182 0.18389,-0.73268 -0.32307,-2.09958 -0.8543,-2.30344 -0.70597,-0.2709 -0.41828,-0.95335 0.4019,-0.95335 0.83988,0 1.75946,0.91751 2.04004,2.03545 0.12353,0.49218 0.27833,0.59055 0.72185,0.4587 1.04677,-0.31119 2.81356,-1.45527 2.81356,-1.82191 0,-0.20009 -0.253,-0.93921 -0.56222,-1.64249 -0.30923,-0.70329 -0.84781,-2.40864 -1.19686,-3.78967 -0.71931,-2.84603 -1.72073,-4.70035 -3.71044,-6.87059 -1.45217,-1.58392 -3.5232,-2.7879 -5.27842,-3.06857 l -1.0268,-0.16419 -0.71898,1.54465 c -1.64272,3.52926 -4.64757,6.18942 -8.21559,7.27317 -2.59653,0.78867 -6.0298,0.61929 -8.3015,-0.40955 -1.59184,-0.72093 -1.6425,-0.72664 -2.38125,-0.26817 -1.12206,0.69635 -1.41627,1.16289 -1.41627,2.24584 0,0.53779 -0.28773,1.9712 -0.63941,3.18538 -0.35167,1.21417 -0.58112,2.30189 -0.50989,2.41715 0.16841,0.27248 2.7157,1.53104 4.66714,2.30592 l 1.53345,0.60891 1.39633,-0.96168 c 1.57262,-1.08311 2.67145,-1.20268 6.29938,-0.6855 1.06556,0.1519 2.16853,0.30072 2.45105,0.33073 0.4171,0.0443 0.66768,-0.36123 1.33268,-2.15673 0.78115,-2.10908 1.40193,-2.9481 2.18127,-2.9481 0.55089,0 0.71089,0.76363 0.26539,1.26662 -0.41103,0.46407 -1.04753,2.17382 -1.3694,3.67844 -0.17157,0.80198 -0.13026,0.85861 0.82916,1.13686 3.67237,1.06505 6.76609,1.25676 8.35826,0.51794 z m -155.779779,-0.58712 2.38125,-0.61722 -0.071,-0.87407 c -0.10348,-1.27391 -1.10682,-3.51967 -1.82304,-4.0805 -0.69487,-0.54411 -0.80796,-1.17899 -0.24827,-1.39376 0.43673,-0.16759 2.41876,0.78712 2.65001,1.27646 0.0878,0.18579 0.0968,0.0401 0.02,-0.32365 -0.50068,-2.37175 -0.96871,-6.62258 -0.98446,-8.94136 -0.0217,-3.19117 -0.0542,-3.23103 -2.63469,-3.22661 -3.18984,0.005 -5.5916,1.19901 -7.56812,3.76095 -1.42084,1.84167 -2.0672905,3.33966 -2.4291405,5.62889 -0.16102,1.01865 -0.54157,2.82794 -0.84569,4.02065 -0.30411,1.19271 -0.48433,2.34734 -0.40048,2.56585 0.15264,0.39777 1.15454,1.00387 2.1820305,1.32003 0.45537,0.14011 0.64977,-0.0429 1.15896,-1.09096 0.73552,-1.51396 1.19744,-1.92078 2.18093,-1.92078 0.9503,0 0.94321,0.39502 -0.0217,1.20693 -1.27604,1.07371 -1.38382,2.65678 -0.22149,3.25324 0.83251,0.42721 3.8266,0.17419 6.6749,-0.56409 z m 4.39793,-1.42884 c -0.3119,-0.53636 -0.38722,-0.36468 -0.13191,0.30066 0.0907,0.23646 0.22072,0.37419 0.28884,0.30607 0.0681,-0.0681 -0.002,-0.34115 -0.15693,-0.60673 z M 0.81054053,198.63131 c 0.40639997,-0.26277 0.62858997,-0.74906 0.74734997,-1.63572 0.23049,-1.7208 0.31375,-1.92325 0.79096,-1.92325 0.55081,0 0.79819,0.70707 0.41073,1.17394 -0.44507,0.53627 -0.0687,2.19725 0.60485,2.66899 0.80622,0.5647 1.69237,0.47973 2.13679,-0.20491 0.21255,-0.32742 0.62092,-1.44585 0.90749,-2.4854 l 0.52104,-1.89008 -0.80216,-0.16044 c -0.4412,-0.0882 -1.05518,-0.16102 -1.36441,-0.16175 -0.30923,-7.9e-4 -0.9131,-0.28204 -1.34192,-0.62515 l -0.77967,-0.62384 -1.2247,0.50896 c -0.96195997,0.39977 -1.40651997,0.80896 -2.07219997,1.90733 -1.38256003,2.28121 -1.55884003,2.93987 -0.96302003,3.59825 0.54575,0.60305 1.34358003,0.55478 2.42887003,-0.14693 z M 23.828551,198.19773 c -0.0845,-0.21106 -0.14715,-0.14837 -0.15985,0.15985 -0.0115,0.27892 0.051,0.43519 0.13897,0.34727 0.0879,-0.0879 0.0973,-0.31612 0.0209,-0.50712 z m 162.356959,0.006 c 0.84958,-0.45248 1.22149,-1.04502 1.23096,-1.96118 0.0175,-1.69604 -2.9818,-3.28537 -4.79542,-2.54106 -0.8387,0.3442 1.59232,4.81004 2.6184,4.81004 0.20248,0 0.62821,-0.1385 0.94606,-0.3078 z m 5.62885,-1.14741 c 0.47066,-0.71469 -0.22317,-2.27004 -1.70978,-3.83279 -0.61019,-0.64144 -1.09219,-1.40855 -1.09219,-1.73822 0,-1.22358 -1.83791,-1.25881 -2.68122,-0.0514 -0.33032,0.47294 -0.72538,0.94737 -0.87791,1.05428 -0.15613,0.10944 -0.0349,0.19616 0.2775,0.19844 0.30515,0.002 0.80006,0.21241 1.0998,0.46707 0.29974,0.25466 0.7942,0.63813 1.09882,0.85216 0.41262,0.28992 0.55384,0.67293 0.55384,1.50215 0,0.89373 0.14057,1.22359 0.71352,1.67426 0.86875,0.68336 2.12443,0.62294 2.61762,-0.12596 z M 7.3416905,192.13435 c 0.21779,-1.08899 0.10909,-1.21373 -1.46498,-1.68118 -1.51719,-0.45056 -1.80806,-0.37135 -1.80806,0.49234 0,0.71956 0.71324,1.42478 1.7575,1.73772 1.21271,0.36341 1.34248,0.31642 1.51554,-0.54888 z M 183.70639,192.00069 c 1.17673,-0.99015 1.48564,-1.65625 0.99545,-2.14644 -0.96313,-0.96313 -3.56057,0.76399 -3.21567,2.13821 0.2312,0.92115 1.13131,0.92449 2.22022,0.008 z m -92.204749,-4.0725 c 0.79574,-2.23838 1.67627,-3.86182 2.49791,-4.60539 0.30613,-0.27704 0.55659,-0.65371 0.55659,-0.83705 0,-0.37023 4.85921,-3.55453 6.416149,-4.20457 1.10244,-0.46029 1.09176,-0.435 0.73147,-1.73183 -0.21265,-0.76539 -0.50762,-1.04871 -1.6851,-1.61854 -1.423929,-0.68909 -1.429789,-0.68959 -2.452739,-0.20768 -2.9961,1.41144 -9.1346,1.85433 -12.93165,0.93302 -2.1935,-0.53223 -5.55355,-2.13015 -6.09016,-2.89626 -0.52955,-0.75605 -0.78008,-0.37596 -0.34936,0.53002 0.55935,1.17651 3.75786,2.62828 7.25688,3.29383 1.58774,0.30201 3.13706,0.64575 3.44292,0.76387 0.66058,0.25511 0.82878,1.33169 1.04182,6.66854 0.18091,4.5319 0.379,6.4102 0.64593,6.12497 0.11765,-0.1257 0.53135,-1.12152 0.91934,-2.21293 z m 69.602879,0.28438 c 1.48258,-0.83672 1.63978,-0.95986 3.51388,-2.7526 2.18607,-2.09116 4.12084,-7.73096 4.62197,-13.47292 0.0772,-0.88395 0.0202,-0.99219 -0.52173,-0.99219 -0.74707,0 -0.82537,-0.80159 -0.14531,-1.48765 0.44129,-0.4452 0.43819,-0.45691 -0.0661,-0.24965 -2.56198,1.05289 -3.37566,1.24141 -6.42798,1.48927 -4.12364,0.33484 -5.16854,0.57825 -7.85952,1.83081 -3.66978,1.70817 -5.7782,4.08935 -6.10203,6.89144 -0.15217,1.3167 -0.11479,1.47159 0.4132,1.71224 0.36911,0.16823 0.82661,0.89085 1.25632,1.98437 0.37169,0.94589 0.83646,1.81501 1.03281,1.93138 0.19634,0.11637 0.35699,0.42396 0.35699,0.68352 0,0.80159 1.64507,2.39927 3.04271,2.95506 2.011,0.7997 4.93457,0.57758 6.88484,-0.52308 z M 6.9790605,187.91258 c 0,-0.64942 0.10725,-0.77814 0.64831,-0.77814 0.35658,0 0.76967,0.20836 0.918,0.46302 0.25684,0.44098 0.27007,0.44098 0.27773,0 0.004,-0.25466 0.10003,-0.46302 0.21246,-0.46302 0.11243,0 0.41546,-0.38695 0.67339,-0.85989 1.0837805,-1.98719 3.5117605,-3.97398 5.2564105,-4.30128 1.4511,-0.27222 1.64607,-0.49566 1.57811,-1.8085 -0.0338,-0.65315 0.0466,-1.25437 0.17879,-1.33603 0.31018,-0.1917 0.99144,0.56498 1.34434,1.49317 0.26109,0.68671 0.36871,0.72704 1.93664,0.72574 l 1.6602,-0.001 0.49255,-1.78457 c 0.76883,-2.78558 0.69719,-3.59805 -0.54229,-6.15019 -2.05831,-4.23815 -4.08415,-6.27378 -6.88008,-6.91329 -1.17693,-0.26921 -1.54515,-0.24866 -2.57216,0.14356 -2.5697805,0.98141 -3.4492005,3.1745 -3.4573005,8.62182 -0.007,4.55829 -0.41726,5.38849 -1.32017,2.67006 -0.38815,-1.16861 -0.56124,-1.35017 -1.80617,-1.89465 -4.65111997,-2.03419 -9.35247,0.21806 -9.88766,4.73683 -0.39934,3.37183 3.20014,6.62387 8.77748,7.9302 1.163,0.2724 2.20384,0.44789 2.31299,0.38997 0.10914,-0.0579 0.19843,-0.45547 0.19843,-0.88345 z m 80.4333305,-0.49451 v -1.30387 l -2.57969,-0.56173 c -1.41882,-0.30894 -3.01022,-0.6747 -3.53642,-0.81279 -1.5503,-0.40683 -1.63546,-0.36302 -1.44053,0.74112 0.27997,1.58581 1.08639,2.04333 5.0431,2.86117 2.57953,0.53318 2.51354,0.55744 2.51354,-0.9239 z m 95.832859,0.80226 c 0.33427,-0.13037 1.14354,-0.38303 1.79839,-0.56146 3.75517,-1.02323 6.80126,-3.05973 7.9528,-5.31692 1.08034,-2.11764 0.25845,-5.47885 -1.70609,-6.97728 -1.92722,-1.46996 -3.81873,-1.76885 -6.49149,-1.02576 -2.13082,0.59242 -2.82884,1.30307 -3.21679,3.27497 -0.61867,3.14464 -1.1888,2.21447 -1.38118,-2.2534 -0.33535,-7.78843 -2.44492,-10.53242 -7.21712,-9.38759 -1.4787,0.35474 -2.00368,0.22825 -1.55682,-0.3751 0.97733,-1.31959 2.00898,-3.00067 3.10154,-5.05397 2.45187,-4.60793 2.92239,-5.62718 2.77501,-6.01126 -0.0818,-0.21323 -0.58095,-0.59277 -1.10918,-0.84343 -0.77984,-0.37006 -1.12539,-0.4013 -1.83789,-0.16615 -1.80545,0.59585 -4.16296,3.25885 -5.336,6.02746 -0.75148,1.77363 -1.83476,8.24385 -1.21736,7.27103 0.25052,-0.39472 1.13398,-0.64875 2.40376,-0.69115 0.86724,-0.029 0.92779,0.0319 1.41839,1.42496 0.42799,1.21527 0.48589,1.87644 0.35117,4.01005 -0.0887,1.40516 -0.33842,3.48046 -0.55487,4.61178 -0.21646,1.13131 -0.31936,2.12475 -0.22867,2.20765 0.0907,0.0829 0.21805,0.002 0.28302,-0.18001 0.1606,-0.44969 1.13235,-0.42147 1.13235,0.0329 0,0.19999 -0.17778,0.86751 -0.39508,1.48339 -0.40932,1.16014 -0.3452,1.59259 0.23614,1.59259 0.18646,0 1.08192,0.37124 1.98994,0.82498 1.67255,0.83578 2.86213,1.85587 4.49223,3.85217 l 0.89928,1.1013 0.73527,-0.54362 c 1.18215,-0.874 1.71047,-0.36506 1.6383,1.57819 -0.0146,0.39226 0.22103,0.41347 1.04095,0.0937 z m -34.06822,-2.11606 c -0.26484,-0.73648 -0.52583,-1.29475 -0.57999,-1.24059 -0.0542,0.0542 -0.0152,0.83447 0.0866,1.73401 0.16408,1.45028 0.22978,1.59081 0.57999,1.2406 0.35021,-0.35021 0.34041,-0.54664 -0.0866,-1.73402 z m -92.253879,-2.63424 c 2.07815,-0.64679 4.19989,-2.08729 5.40474,-3.66939 1.37363,-1.80375 1.66866,-2.66505 1.12038,-3.27089 -0.33832,-0.37384 -0.47486,-1.36557 -0.63363,-4.60195 -0.1113,-2.26898 -0.2702,-4.19326 -0.35311,-4.27617 -0.0829,-0.0829 -0.9025,0.0966 -1.8213,0.39882 -3.79901,1.24977 -7.84901,1.35748 -11.91743,0.31696 -1.8839,-0.48183 -2.99399,-1.0433 -4.76822,-2.41174 l -0.7276,-0.5612 v 0.54958 c 0,1.22071 3.49611,2.96259 7.98176,3.97679 1.70593,0.38571 2.61166,0.71869 2.71953,0.99978 0.0889,0.23181 0.29938,3.26038 0.46761,6.73015 0.22493,4.63923 0.39173,6.30867 0.63033,6.30867 0.17845,0 1.03207,-0.22023 1.89694,-0.48941 z m 30.27287,-1.97045 -0.0841,-2.19651 -2.42405,-0.48999 c -1.33322,-0.26949 -3.23692,-0.82519 -4.23043,-1.23488 -1.54315,-0.63635 -1.78768,-0.67871 -1.67804,-0.29068 0.0706,0.24982 0.20705,1.30299 0.30325,2.34038 0.14562,1.57029 0.27064,1.93414 0.74658,2.17263 0.82457,0.41317 3.42635,1.11548 5.58543,1.5077 1.02598,0.18638 1.86542,0.34989 1.86542,0.36337 0,0.0135 -0.0378,-0.96394 -0.0841,-2.17202 z m -35.2414,0.0125 c -0.008,-1.8602 -0.0853,-1.92708 -2.99412,-2.58522 -1.47995,-0.33484 -3.09064,-0.77521 -3.57931,-0.97859 -0.48867,-0.20339 -0.93148,-0.3268 -0.98403,-0.27426 -0.0525,0.0525 -0.0225,0.54543 0.0667,1.09529 0.19927,1.22798 1.28185,2.02122 3.7902,2.77721 3.51184,1.05844 3.70514,1.05664 3.70056,-0.0344 z m 61.254649,-2.81294 2.11666,-0.48132 -4.10104,-0.12567 c -2.25557,-0.0691 -4.20598,-0.0356 -4.33425,0.0746 -0.30334,0.26043 2.07956,0.99043 3.27592,1.00358 0.50932,0.006 1.87854,-0.20643 3.04271,-0.47115 z m -36.759229,-2.08186 c -0.073,-0.69122 -0.20274,-2.19768 -0.28839,-3.34768 -0.27508,-3.69333 -0.16405,-3.51329 -2.47228,-4.00896 -1.11083,-0.23853 -3.73494,-0.84011 -5.83137,-1.33683 -2.09642,-0.49672 -3.86755,-0.84726 -3.93584,-0.77897 -0.12177,0.12177 0.42039,7.59132 0.56122,7.73215 0.18942,0.18942 10.87437,2.88416 11.75948,2.96574 0.25008,0.023 0.3048,-0.30064 0.20718,-1.22545 z m 27.697249,0.88846 c 0.49198,-0.37346 0.62595,-0.9546 0.22008,-0.9546 -0.13362,0 -0.43128,-0.0723 -0.66146,-0.1606 -0.32629,-0.12521 -0.41852,0.0206 -0.41852,0.66146 0,0.90018 0.16034,0.98478 0.8599,0.45374 z m -52.455949,-1.41762 c -0.001,-0.54571 -0.0742,-1.59023 -0.16203,-2.32117 l -0.15972,-1.32898 -2.02079,-0.48576 c -1.68206,-0.40434 -3.48604,-1.03345 -5.54606,-1.93413 -0.28097,-0.12284 -0.31727,0.2335 -0.18345,1.8009 0.25832,3.02556 0.21755,2.94851 1.9174,3.62368 1.66587,0.66166 4.94643,1.59603 5.69393,1.62173 0.36188,0.0124 0.46252,-0.20082 0.46072,-0.97627 z m 66.568829,-0.0659 c 8.13394,-2.05586 12.29324,-8.00683 10.55466,-15.10123 -0.61061,-2.49167 -3.13225,-7.44882 -5.98356,-11.76278 -5.57071,-8.42831 -7.48532,-12.48808 -9.49322,-20.12954 l -0.56402,-2.14649 -1.70447,0.35729 c -0.93746,0.19651 -3.04219,0.53425 -4.67717,0.75054 -1.63499,0.2163 -3.62755,0.51541 -4.42792,0.66469 -2.185539,0.40766 -8.726279,0.69527 -17.588439,0.77341 -4.36213,0.0385 -8.00956,0.11839 -8.1054,0.17763 -0.0958,0.0592 -0.25699,0.65935 -0.3581,1.3336 -0.39178,2.61258 -2.3467,7.99898 -4.37296,12.04881 l -2.07142,4.14009 0.62381,0.54241 c 0.3431,0.29832 0.75374,1.02489 0.91253,1.6146 0.1588,0.5897 0.37342,1.07418 0.47695,1.07661 0.10354,0.002 2.80762,0.54031 6.00908,1.19529 5.32991,1.09043 5.84315,1.15361 6.08541,0.74914 1.12348,-1.87568 3.56539,-2.78624 5.94265,-2.21595 1.4584,0.34987 2.18838,1.0262 2.64424,2.44991 0.21289,0.66486 0.47594,0.99219 0.79738,0.99219 0.26382,0 1.61541,0.29509 3.00353,0.65575 2.26922,0.58959 2.61249,0.61883 3.4024,0.28976 0.48321,-0.20129 1.473869,-0.44888 2.201469,-0.55019 0.7276,-0.10131 3.67923,-0.58889 6.55918,-1.08351 5.89804,-1.01297 7.06686,-1.09607 7.06686,-0.50244 0,0.21829 -0.17859,0.39688 -0.39687,0.39688 -0.21829,0 -0.39688,0.17015 -0.39688,0.3781 0,0.38725 -2.18952,1.15136 -3.96875,1.38503 -2.00067,0.26275 -4.6664,0.654 -5.36392,0.78726 l -0.73371,0.14017 1.26288,1.38288 c 2.35838,2.58248 3.42061,5.64139 3.1759,9.1457 -0.23594,3.3788 -1.43034,5.70725 -3.94911,7.69867 l -1.24234,0.98223 1.50692,0.54867 c 3.91911,1.42697 9.44421,1.77713 13.17241,0.83482 z m 31.75573,-3.34797 c 0.70434,-0.53722 0.84613,-0.84809 0.9788,-2.14596 0.30276,-2.96158 1.02164,-7.07472 1.29382,-7.40267 0.35412,-0.4267 0.91336,-0.42776 1.07084,-0.002 0.0673,0.1819 -0.0321,1.69995 -0.22084,3.37344 -0.50659,4.49135 -0.5225,4.32369 0.36667,3.86388 1.23212,-0.63715 4.03745,-1.43517 6.12734,-1.74301 1.08529,-0.15987 2.00012,-0.31752 2.03294,-0.35034 0.0328,-0.0328 0.30231,-1.25029 0.59886,-2.70548 0.62953,-3.08917 2.20315,-9.29709 2.98228,-11.76505 0.29861,-0.94589 0.6297,-2.15155 0.73576,-2.67925 l 0.19283,-0.95945 -1.43233,-0.14783 c -2.14268,-0.22115 -3.06591,-1.03975 -3.60842,-3.19947 -0.59411,-2.36519 -0.55691,-2.66576 0.42742,-3.45268 0.77364,-0.6185 0.81345,-0.71463 0.39687,-0.95837 -0.75052,-0.43905 -1.25677,-1.70994 -1.25677,-3.15495 0,-2.23338 0.92682,-3.42805 2.95091,-3.80372 l 0.96654,-0.17938 0.22409,-3.10168 c 0.12325,-1.70592 0.22409,-5.68802 0.22409,-8.84911 0,-5.53579 -0.021,-5.76846 -0.57124,-6.31858 -0.40383,-0.40376 -0.75845,-0.52416 -1.21001,-0.41082 -0.68951,0.17305 -4.09171,3.34605 -5.43463,5.0685 -0.45383,0.58208 -1.78055,2.28655 -2.94827,3.7877 -5.00083,6.42877 -8.16431,12.48899 -9.67852,18.54094 -1.1975,4.78611 -2.40544,13.42432 -2.68782,19.22107 l -0.16805,3.44972 1.10717,1.44508 c 0.60894,0.79479 1.72752,2.70774 2.48573,4.251 l 1.37855,2.80592 0.92587,-0.92455 c 0.50922,-0.5085 1.29651,-1.20725 1.74952,-1.55278 z m -125.046809,0.84981 c -10e-4,-0.45586 -1.28434,-5.26071 -1.72698,-6.46774 -0.10925,-0.2979 -0.22884,-0.28137 -0.63709,0.0881 -0.47706,0.43173 -0.5171,0.42772 -0.78824,-0.0789 -0.1571,-0.29355 -0.28767,-0.86898 -0.29017,-1.27873 -0.008,-1.29358 -0.99475,-4.62099 -1.90087,-6.40911 -0.96053,-1.89545 -3.29208,-4.58781 -4.52523,-5.2255 -1.22579,-0.63388 -2.51685,-0.52379 -3.32409,0.28346 l -0.69155,0.69155 0.65907,1.25313 c 0.64066,1.21812 3.13569,5.39494 4.58189,7.67034 0.39346,0.61905 1.59683,1.7774 2.67416,2.57413 2.05418,1.51914 3.07528,3.0073 4.67307,6.81056 0.55507,1.32125 0.67839,1.45822 0.96694,1.07391 0.1819,-0.24226 0.32999,-0.68561 0.32909,-0.98522 z m 69.12683,0.63926 c 1.34453,-0.29469 2.60848,-0.59438 2.80879,-0.666 0.22921,-0.082 -0.26863,-0.60927 -1.34321,-1.42275 -0.93908,-0.7109 -2.44242,-1.99195 -3.34076,-2.84678 l -1.63335,-1.55424 -0.003,-1.58045 c -0.003,-1.51309 -0.0426,-1.60593 -0.92604,-2.1782 -0.84148,-0.54509 -0.92242,-0.70824 -0.91887,-1.85208 0.005,-1.44238 0.46701,-2.53331 1.12803,-2.66061 0.53923,-0.10385 0.93818,0.71113 0.48517,0.99111 -0.31591,0.19524 -0.17218,0.91823 0.30533,1.53587 0.34331,0.44407 1.76451,-1.65862 1.585,-2.34504 -0.083,-0.31756 0.009,-0.49546 0.25769,-0.49546 0.21299,0 0.62436,-0.20836 0.91415,-0.46302 0.2898,-0.25466 1.08111,-0.95357 1.75849,-1.55314 l 1.23158,-1.09011 -1.53692,-0.43124 c -0.8453,-0.23718 -1.60319,-0.43124 -1.68418,-0.43124 -0.081,0 -0.22168,0.46539 -0.31264,1.0342 -0.23052,1.44157 -1.28078,2.25611 -3.43252,2.66211 -3.59098,0.67757 -6.25932,-0.87903 -6.25932,-3.65144 0,-0.75513 -0.0364,-0.77364 -2.59297,-1.31802 -6.1751,-1.31489 -8.3669,-1.69835 -8.44116,-1.4768 -0.72251,2.15561 -2.38892,3.27912 -4.86367,3.27912 -1.6087,0 -3.49857,-0.54631 -4.25358,-1.22959 -0.44906,-0.40639 -0.77895,-1.22966 -1.13681,-2.837 -0.16772,-0.7533 -0.18093,-0.75797 -1.67741,-0.59256 -0.8296,0.0917 -1.68695,0.16508 -1.90523,0.16307 -1.80539,-0.0166 -2.93989,0.0636 -3.88533,0.27467 -1.80979,0.40398 -3.94659,1.28561 -4.63884,1.91394 -0.3561,0.32322 -1.31319,0.94117 -2.12687,1.37321 -0.81368,0.43205 -1.4218,0.87876 -1.35139,0.99269 0.0704,0.11393 -0.17256,0.32142 -0.53993,0.46109 -1.01996,0.38779 -2.59365,2.94353 -2.73629,4.44384 -0.10379,1.09173 -0.004,1.42338 0.76668,2.5582 1.64731,2.42442 3.68366,3.52435 7.67489,4.14556 3.21964,0.50112 7.86213,-0.11657 10.32694,-1.37402 0.91267,-0.46561 1.00805,-0.61391 1.00805,-1.56723 0,-1.31788 0.71611,-1.49949 0.84314,-0.21383 0.0621,0.62821 0.29905,0.95939 0.9428,1.31754 0.47294,0.26313 0.8599,0.43347 0.8599,0.37853 0,-0.0549 0.92273,0.13699 2.05052,0.4265 1.78422,0.45804 7.87121,1.8008 8.16334,1.8008 0.0577,0 0.10489,-0.76688 0.10489,-1.70417 0,-0.9373 0.095,-1.76288 0.21107,-1.83463 0.44786,-0.2768 0.7726,0.28537 0.92421,1.59995 0.1579,1.36918 1.0816,3.45695 1.96988,4.45239 3.1456,3.52509 9.0707,4.91303 15.22003,3.56526 z m -23.48457,-10.98324 c -1.45521,-0.34533 -2.91372,-0.69505 -3.24114,-0.77717 -0.98393,-0.24677 -0.7021,-1.12489 0.90017,-2.8047 1.7773,-1.86331 1.76843,-1.8621 6.37334,-0.86669 3.87608,0.83786 3.94177,0.95727 1.90874,3.46985 -1.57701,1.949 -1.73951,1.97577 -5.94111,0.97871 z m 4.74952,-1.63421 c 0.36716,-0.54031 0.57981,-1.06553 0.47256,-1.16714 -0.10725,-0.10162 -1.32609,-0.42896 -2.70854,-0.72743 l -2.51354,-0.54267 -1.01778,1.0117 -1.01778,1.0117 2.60528,0.67273 c 1.4329,0.37001 2.80935,0.68416 3.05876,0.69813 0.24942,0.014 0.75389,-0.4167 1.12104,-0.95702 z m 27.701499,10.88383 c 3.16137,-2.11366 4.18669,-3.89809 4.22216,-7.34806 0.026,-2.53318 -0.70127,-4.55868 -2.31529,-6.44791 -2.34456,-2.74434 -3.04133,-2.88577 -6.314409,-1.28174 -2.38755,1.17006 -4.33486,3.12333 -5.5344,5.55135 -1.12723,2.28164 -1.32557,3.65788 -0.54866,3.80705 0.29104,0.0559 0.88635,0.42876 1.32291,0.82861 0.43657,0.39985 1.21047,0.97707 1.7198,1.28272 0.50932,0.30564 1.32266,0.97918 1.80743,1.49676 0.48476,0.51757 1.0444,0.94104 1.24362,0.94104 0.19923,0 0.45745,0.14883 0.57382,0.33073 0.16705,0.26111 2.185989,1.78594 2.364659,1.78594 0.0235,0 0.67975,-0.42592 1.45836,-0.94649 z m -73.373659,-1.70946 c 0.82449,-0.30848 2.31129,-0.62897 3.30399,-0.71219 1.74845,-0.14659 1.79991,-0.17132 1.64451,-0.79049 -0.57283,-2.28233 -0.82246,-6.4247 -0.38717,-6.4247 0.64563,0 1.06948,0.89049 1.47233,3.09328 0.23442,1.28187 0.50234,2.74436 0.59537,3.24997 0.15362,0.8349 0.27159,0.93679 1.28502,1.10979 0.61373,0.10478 1.64476,0.42445 2.29116,0.71038 l 1.17529,0.51989 0.14777,-3.48176 c 0.0813,-1.91497 0.15793,-3.77942 0.17034,-4.14322 0.0124,-0.3638 -0.0547,-1.3163 -0.14918,-2.11667 -0.0944,-0.80036 -0.0588,-1.75286 0.0793,-2.11666 0.20393,-0.5373 0.0963,-0.93462 -0.57336,-2.11667 -0.77881,-1.37471 -0.82441,-1.60966 -0.82441,-4.24715 0,-2.64821 0.0461,-2.88268 0.89461,-4.55448 0.49204,-0.96939 1.10774,-1.9554 1.36822,-2.19114 0.44182,-0.39984 0.44641,-0.52021 0.0684,-1.79312 -1.25219,-4.21656 -3.96879,-10.28038 -6.19673,-13.83188 -3.3328,-5.31276 -9.35846,-12.33974 -11.82482,-13.78983 l -1.13823,-0.66922 -0.58546,0.55002 c -0.52584,0.49399 -0.59313,0.85089 -0.66075,3.50413 -0.0764,2.99905 0.3886,13.22787 0.63941,14.06423 0.0754,0.25146 0.60191,0.59645 1.17002,0.76666 1.70775,0.51166 2.24241,1.30295 2.24241,3.31877 0,1.49034 -0.084,1.78985 -0.62462,2.22764 -0.34355,0.27818 -0.5281,0.50579 -0.41011,0.50579 0.11799,0 0.0814,0.13311 -0.0813,0.29581 -0.21803,0.21803 -0.0232,0.55512 0.74083,1.28195 0.95647,0.90987 1.03662,1.09674 1.03624,2.41616 -5.3e-4,1.75437 -0.61888,3.06665 -1.82466,3.87216 -0.96241,0.64293 -2.42548,0.78213 -3.58542,0.34112 -0.81081,-0.30827 -0.85044,-0.59428 0.65923,4.75738 0.55418,1.96453 1.21278,4.34578 1.46356,5.29167 0.25078,0.94588 0.55732,1.8329 0.68121,1.97114 0.12388,0.13825 0.22524,0.46729 0.22524,0.7312 0,0.26391 0.11131,0.68658 0.24736,0.93927 0.22483,0.41759 0.73163,2.25662 2.00325,7.26923 l 0.45224,1.78271 0.65491,-0.51515 c 0.3602,-0.28333 1.32949,-0.76754 2.15397,-1.07602 z M 7.7850405,168.94442 c 0.39881,-1.24493 1.32352,-2.49668 2.4223905,-3.27915 0.62652,-0.44612 1.35276,-0.64119 2.77763,-0.74605 l 1.92931,-0.14199 -0.9408,-1.9123 c -0.87426,-1.77704 -1.01922,-1.93236 -2.04943,-2.19588 -1.83974,-0.47058 -1.86518,-0.4855 -1.52557,-0.89472 0.16727,-0.20154 0.53786,-0.3053 0.82355,-0.23059 0.2857,0.0747 0.51944,0.0613 0.51944,-0.0298 0,-0.0911 -0.53578,-1.15658 -1.19062,-2.36771 -1.3221205,-2.44523 -1.3983205,-2.76017 -0.7276105,-3.00704 0.2546705,-0.0937 0.7214305,-0.44308 1.0372505,-0.77632 0.31583,-0.33325 1.11574,-0.74227 1.77758,-0.90892 l 1.20335,-0.30301 -0.40267,-0.77867 c -0.22146,-0.42827 -0.47219,-1.36574 -0.55717,-2.08327 -0.14881,-1.25643 -0.18004,-1.29743 -0.84575,-1.11025 -1.07044,0.30096 -3.0697805,0.14545 -3.9443505,-0.30681 -0.88216,-0.45618 -1.37709,-1.56299 -1.37709,-3.07955 0,-0.98247 -0.0108,-0.9922 -1.86722,-1.68031 -2.12098,-0.78617 -3.46698,-0.86844 -4.83779997,-0.29567 -1.03576003,0.43276 -1.34720003,0.87359 -1.88895003,2.67366 -0.66948,2.22454 0.20581,5.38273 1.71581003,6.19085 0.27136,0.14523 1.15604,0.26405 1.96596997,0.26405 1.73325,0 2.03572,0.56687 0.56199,1.05324 -0.69816,0.23041 -0.98366,0.52187 -1.22371,1.24922 -0.47463997,1.43819 -0.15504997,3.63886 0.68919,4.74572 1.10162,1.4443 1.58536,1.55527 3.92176,0.89968 1.1139,-0.31256 2.14344,-0.49527 2.28787,-0.40601 0.51732,0.31973 0.24883,0.8858 -0.49793,1.04981 -0.88544,0.19447 -1.73182,1.01814 -2.13227,2.07504 -0.38381,1.01298 -0.33575,3.27341 0.0953,4.48123 0.31313,0.87745 1.60227,2.84374 1.86441,2.84374 0.0541,0 0.24134,-0.44649 0.41616,-0.99219 z M 183.4787,166.8939 c 0.63741,-1.36287 0.65784,-3.67054 0.0432,-4.87599 -0.8115,-1.59145 -1.65951,-2.00341 -4.12003,-2.0015 -2.90411,0.002 -3.51611,0.33892 -4.566,2.51186 l -0.83095,1.71979 1.64707,0.17311 c 2.71286,0.28512 4.14815,1.38764 5.25058,4.03322 l 0.54002,1.29592 0.77058,-0.89904 c 0.42382,-0.49447 0.99333,-1.37529 1.26556,-1.95737 z m -18.22106,0.85989 c 0.23292,-0.1819 0.48218,-0.80698 0.55393,-1.38906 0.24755,-2.00845 1.2028,-6.16951 2.03669,-8.87177 0.58412,-1.89289 0.78661,-2.97604 0.67128,-3.59081 -0.15999,-0.85285 -0.56242,-1.36306 -0.84903,-1.07644 -0.20973,0.20973 -1.08639,3.6081 -1.85452,7.18902 -0.78304,3.65046 -1.00303,4.61636 -1.38595,6.08542 -0.50099,1.92203 -0.2242,2.47508 0.8276,1.65364 z M 22.764711,163.52078 c -0.0734,-0.1819 -0.13346,-0.0331 -0.13346,0.33073 0,0.3638 0.0601,0.51263 0.13346,0.33073 0.0734,-0.1819 0.0734,-0.47956 0,-0.66146 z m -0.26459,-1.32292 c -0.0734,-0.1819 -0.13345,-0.0331 -0.13345,0.33073 0,0.3638 0.0601,0.51263 0.13345,0.33073 0.0734,-0.1819 0.0734,-0.47956 0,-0.66146 z m 164.473059,-2.84841 c 0.88688,-0.69762 1.33724,-2.12257 1.18187,-3.7395 -0.13265,-1.3806 -0.87464,-2.46277 -1.98188,-2.89054 -0.92113,-0.35587 -0.47156,-1.03854 0.68471,-1.03972 2.96396,-0.003 4.31951,-3.63738 2.90792,-7.79636 -0.42172,-1.24252 -1.94488,-2.2491 -3.39925,-2.2464 -1.36882,0.003 -5.18714,1.42087 -5.04438,1.87375 0.28922,0.91753 0.29982,2.8796 0.0184,3.40546 -0.5345,0.99872 -2.49568,1.68073 -4.29291,1.49288 -0.85437,-0.0893 -1.79097,-0.2895 -2.08132,-0.44489 -0.5098,-0.27284 -0.52526,-0.20943 -0.45083,1.84893 l 0.0771,2.13145 0.79375,0.01 c 0.43656,0.005 1.03911,0.15436 1.339,0.33111 0.90771,0.53497 2.49744,1.894 2.49745,2.13501 1e-5,0.27165 -1.16895,2.63115 -1.85631,3.74689 l -0.49165,0.79805 1.90159,-0.0883 c 1.3716,-0.0637 2.34404,0.0568 3.48908,0.4323 2.15414,0.70642 3.84233,0.72081 4.70767,0.0401 z M 20.648041,155.58328 c -0.0734,-0.1819 -0.13345,-0.0331 -0.13345,0.33073 0,0.3638 0.06,0.51263 0.13345,0.33073 0.0734,-0.1819 0.0734,-0.47956 0,-0.66146 z m 65.73361,0.0888 c -0.55023,-0.3484 -0.14157,-1.07618 0.62556,-1.11406 0.36837,-0.0182 0.78883,-0.0628 0.93435,-0.0992 0.14552,-0.0364 0.42999,-0.081 0.63215,-0.0992 0.57524,-0.0518 1.41976,-0.8931 1.62668,-1.62057 0.10349,-0.3638 0.095,-0.57319 -0.0188,-0.46532 -0.11383,0.10788 -0.36821,0.0623 -0.5653,-0.10125 -0.26481,-0.21978 -0.28234,-0.38896 -0.0671,-0.64826 0.22617,-0.27251 0.13789,-0.38935 -0.39535,-0.52318 -2.18106,-0.54741 -4.82376,1.40093 -3.44842,2.54236 0.61161,0.50759 0.38428,1.44929 -0.34368,1.42358 -0.56042,-0.0198 -0.56969,0.007 -0.15743,0.46302 0.24093,0.26623 0.6875,0.48223 0.99237,0.48 0.4237,-0.003 0.46729,-0.0591 0.18502,-0.23788 z m -42.37359,-1.01484 c 0.63635,-0.5457 1.45498,-1.31961 1.81919,-1.71979 0.36421,-0.40018 0.93102,-0.72761 1.25957,-0.72761 0.32855,0 0.93544,-0.33807 1.34864,-0.75127 0.80512,-0.80512 3.17301,-1.6885 5.74866,-2.14464 0.86043,-0.15238 1.62582,-0.33844 1.70087,-0.41348 0.27976,-0.27977 -2.69887,-2.84451 -4.01554,-3.45755 -1.63827,-0.76279 -2.60003,-0.79518 -4.01226,-0.13511 -3.42238,1.5996 -5.78083,5.00005 -5.7357,8.26985 0.0159,1.15506 0.25421,2.07179 0.53849,2.07179 0.10511,0 0.71174,-0.44649 1.34808,-0.99219 z m -26.18108,-1.12448 c 0,-0.36546 -0.17639,-0.52917 -0.57018,-0.52917 -0.55341,0 -0.55609,0.0156 -0.0913,0.52917 0.26339,0.29104 0.51997,0.52917 0.57018,0.52917 0.0502,0 0.0913,-0.23813 0.0913,-0.52917 z m 49.17981,-0.90584 c 0.178,-0.11001 0.87408,-0.33815 1.54685,-0.50698 1.19587,-0.30011 1.88098,-0.96843 0.99275,-0.96843 -0.34011,0 -0.40941,-0.1522 -0.28855,-0.63374 0.22681,-0.90371 -0.50702,-2.50168 -1.22779,-2.67359 -1.12778,-0.26897 -2.88961,0.22682 -3.44382,0.96911 -0.48312,0.64709 -0.49189,0.75881 -0.11837,1.50754 0.31941,0.64029 0.33484,0.86557 0.0741,1.08196 -0.18112,0.15031 -0.43741,0.18563 -0.56955,0.0785 -0.13213,-0.10716 0.0809,0.16177 0.47348,0.5976 0.70942,0.78766 1.7967,1.02034 2.56089,0.54805 z m 105.535289,-0.48281 c 0.51888,-0.48433 0.59531,-0.82035 0.59531,-2.61724 0,-1.38693 -0.14591,-2.36755 -0.44588,-2.99659 -0.51429,-1.07847 -0.67637,-1.12828 -1.343,-0.41275 -0.48443,0.51998 -0.48854,0.51998 -0.93376,0 -0.24595,-0.28725 -0.55784,-0.52227 -0.69309,-0.52227 -0.50825,0 -1.14442,2.66482 -1.02623,4.29871 0.1016,1.40458 0.22224,1.69589 0.98428,2.37678 0.9834,0.87867 1.82524,0.84142 2.86237,-0.12664 z M 18.265581,150.5788 c 0.58758,-0.61331 0.74958,-1.02704 0.74086,-1.89206 -0.0125,-1.24392 -1.18601,-4.0592 -1.37132,-3.28992 -0.13653,0.56684 -0.75374,0.60927 -0.96216,0.0661 -0.0838,-0.21828 -0.39173,-0.39688 -0.68438,-0.39688 -0.72333,0 -1.64528,1.85506 -1.64528,3.31048 0,2.91631 2.10553,4.0985 3.92228,2.20223 z m 108.324859,-0.677 c -0.15172,-0.56345 -0.61653,-1.35083 -1.0329,-1.74974 -0.66836,-0.64033 -0.79661,-0.67759 -1.09495,-0.31813 -0.22967,0.27674 -0.24278,0.40716 -0.0409,0.40716 0.16334,0 0.29698,0.13586 0.29698,0.30191 0,0.43531 1.96071,2.94408 2.06243,2.63892 0.0469,-0.14061 -0.0389,-0.71667 -0.19063,-1.28012 z m -62.274319,-2.69585 c 0.34461,-0.15702 1.25799,-0.3597 2.02971,-0.4504 l 1.40314,-0.16491 0.76973,-1.59797 c 0.42336,-0.87889 0.80995,-1.69974 0.8591,-1.82412 0.0491,-0.12437 -0.53069,0.15932 -1.28853,0.63041 -1.7415,1.08258 -3.58259,1.22526 -8.15523,0.632 -1.79402,-0.23276 -4.2332,-0.41766 -5.4204,-0.41088 l -2.15854,0.0123 1.24915,0.65034 c 1.49885,0.78033 2.84528,2.07584 3.44317,3.31293 0.43567,0.90146 0.45301,0.90846 2.90007,1.17147 l 2.46178,0.26458 0.64013,-0.97014 c 0.35208,-0.53358 0.9221,-1.09861 1.26672,-1.25563 z m 102.464759,0.51294 c 0.97024,-1.03864 1.87559,-2.96405 1.56986,-3.3386 -0.12971,-0.15891 -0.16083,-0.36394 -0.0691,-0.45562 0.2681,-0.2681 -1.17274,-0.71066 -2.31367,-0.71066 -1.07831,0 -2.36999,0.44476 -3.25282,1.12003 -0.74333,0.56856 -0.37574,2.08722 0.78654,3.2495 1.19693,1.19693 2.24709,1.24028 3.27924,0.13535 z M 24.335731,147.34151 c 1.04392,-1.04392 1.14517,-1.89184 0.34705,-2.90648 -0.73568,-0.93527 -1.73587,-1.4231 -3.3087,-1.61378 -1.37528,-0.16673 -1.648,-0.0638 -2.12707,0.80261 -0.25037,0.4528 -0.14958,0.80163 0.61153,2.11667 0.50122,0.86599 1.15532,1.78288 1.45356,2.03754 0.87746,0.74925 1.99987,0.5872 3.02363,-0.43656 z m -11.89062,-1.12544 c 1.35357,-0.63755 1.67322,-1.17716 1.7811,-3.00681 l 0.099,-1.67796 -1.53037,-1.53989 c -1.26664,-1.27453 -1.68303,-1.53845 -2.41628,-1.53149 -1.0631605,0.0101 -1.5848905,0.37101 -2.1681605,1.49981 -0.5686,1.10039 -0.55168,1.48147 0.0916,2.06366 0.5584,0.50534 0.71135,1.57596 0.26458,1.85208 -0.14552,0.0899 -0.26458,0.56457 -0.26458,1.05474 0,1.25293 1.07586,2.09223 2.3741405,1.85213 0.51323,-0.0949 1.30928,-0.34974 1.76899,-0.56627 z m 167.091059,-0.003 c 0.63516,-0.57481 0.6078,-1.4423 -0.0728,-2.30751 -0.46258,-0.58807 -0.52396,-0.91555 -0.37483,-1.99988 0.16739,-1.21702 0.12323,-1.35679 -0.71912,-2.27594 -1.41968,-1.54915 -2.37055,-1.3334 -4.18027,0.94846 -0.9166,1.15573 -1.32831,2.90089 -0.68436,2.90089 0.48756,0 0.56513,0.54911 0.13792,0.97632 -0.20815,0.20815 0.0364,0.51186 0.87876,1.09143 2.01718,1.38786 3.93564,1.64274 5.01467,0.66623 z m -55.95599,-3.73378 c 0.29991,-2.23598 -1.77344,-5.04389 -4.14437,-5.61267 -0.74817,-0.17948 -1.44027,-0.24638 -1.538,-0.14865 -0.19677,0.19677 2.20616,4.91729 2.88223,5.6621 0.23486,0.25874 0.63972,0.91867 0.89969,1.46652 l 0.47267,0.99608 0.64142,-0.64142 c 0.38234,-0.38234 0.69997,-1.07787 0.78636,-1.72196 z m 48.11471,1.41441 c 0.53225,-0.81232 0.12605,-1.73753 -0.76285,-1.73753 -1.15444,0 -1.6335,1.15043 -0.81846,1.96547 0.58912,0.58912 1.09359,0.5164 1.58131,-0.22794 z M 17.315211,143.46929 c 1.12486,-0.60202 0.3232,-1.84278 -1.19063,-1.84278 -0.6156,0 -0.67885,0.0986 -0.67885,1.05833 0,0.95973 0.0632,1.05834 0.67885,1.05834 0.37337,0 0.90915,-0.12325 1.19063,-0.27389 z m 150.739519,-1.24747 c -0.5311,-1.05738 -1.30037,-2.88375 -1.42679,-3.38744 -0.25036,-0.99752 -1.31205,-1.97037 -2.1503,-1.97037 -1.69013,0 -2.67755,1.592 -1.98296,3.19707 0.52756,1.21909 1.97675,1.83936 5.43924,2.32806 0.12126,0.0171 0.17563,-0.0582 0.12081,-0.16732 z M 21.001981,141.60705 c 1.56379,-0.35608 3.12326,-1.40208 3.33235,-2.23514 0.22681,-0.90369 -0.31555,-2.10991 -1.11184,-2.47272 -0.74118,-0.3377 -2.07721,0.0797 -2.71442,0.84806 -0.41669,0.50244 -1.88734,3.54375 -1.88734,3.90302 0,0.31236 0.89063,0.2962 2.38125,-0.0432 z m 150.723949,-0.83694 c 0.53112,-0.53112 0.74147,-2.86169 0.36205,-4.01134 -0.64516,-1.95486 -2.56284,-2.31675 -3.65569,-0.68987 -0.72415,1.07801 -0.65268,1.96834 0.33281,4.14628 l 0.61846,1.3668 0.9881,-0.22285 c 0.54346,-0.12257 1.15288,-0.38763 1.35427,-0.58902 z M 18.707671,136.98449 c 0.10281,-2.65629 -2.46476,-3.48786 -3.65608,-1.18411 -0.50349,0.97366 -0.5029,1.67812 0.003,3.38122 0.3828,1.28904 0.45072,1.3593 1.38906,1.43709 0.9498,0.0787 1.00963,0.0325 1.60456,-1.23847 0.33988,-0.72613 0.6367,-1.80421 0.65959,-2.39573 z m 99.126319,-3.55726 c 2.90565,-1.48236 4.22914,-4.84523 2.77833,-7.05945 -0.35949,-0.54865 -0.55845,-0.62224 -1.26886,-0.46932 -0.46339,0.0998 -1.19971,0.37539 -1.63628,0.61252 -0.43656,0.23714 -1.15093,0.49091 -1.5875,0.56395 -0.88536,0.14811 -0.91354,0.3152 -0.42387,2.51304 0.16211,0.7276 0.42581,2.00753 0.58601,2.84427 0.1602,0.83674 0.34283,1.52135 0.40584,1.52135 0.063,0 0.57886,-0.23686 1.14633,-0.52636 z m 10.16713,-6.08986 c 0.14462,-0.14462 0.50702,-0.26304 0.80533,-0.26315 0.29832,-1.2e-4 1.28436,-0.35121 2.19119,-0.78022 2.91565,-1.37934 8.71337,-7.56651 8.37541,-8.93802 -0.0761,-0.30885 0.26118,-0.78294 0.99175,-1.39405 3.18223,-2.66187 4.38177,-4.3222 4.73103,-6.54844 0.21127,-1.34661 0.0202,-1.4234 -0.6582,-0.26458 -0.27688,0.47294 -0.63944,0.97896 -0.80567,1.12448 -0.16624,0.14552 -0.94763,1.03339 -1.73643,1.97303 -0.7888,0.93965 -1.78821,2.01121 -2.22091,2.38125 -0.4327,0.37004 -0.97185,0.85139 -1.19811,1.06967 -0.74655,0.72022 -3.02012,2.50405 -4.36516,3.42486 -0.72761,0.49812 -1.69619,1.21122 -2.15241,1.58468 -2.07965,1.70237 -5.36654,3.95743 -6.48646,4.45021 -1.34534,0.59197 -1.75391,1.30203 -1.26975,2.2067 0.2807,0.52448 0.44626,0.5594 1.92131,0.40522 0.88778,-0.0928 1.73246,-0.28703 1.87708,-0.43164 z m -36.683559,-0.94509 c 1.08317,-0.70972 3.17168,-4.23051 3.88301,-6.54594 3.03191,-9.86913 -0.24739,-19.904211 -8.61856,-26.373876 -4.6405,-3.586414 -7.6412,-4.617783 -13.45712,-4.625337 -4.13209,-0.0054 -6.17512,0.366958 -8.46666,1.542986 -1.26161,0.647462 -1.25776,0.635794 -0.90929,2.751508 0.17602,1.068649 0.15286,1.124479 -0.46637,1.124479 -0.42424,0 -0.77511,-0.230793 -1.00559,-0.661458 -0.1947,-0.363802 -0.49938,-0.661459 -0.67706,-0.661459 -0.57402,0 -3.37909,2.243775 -5.06101,4.048302 -3.19767,3.430765 -4.77767,7.066665 -5.02439,11.562115 -0.27434,4.99861 1.62762,10.26166 4.97317,13.76162 1.34986,1.41215 1.89635,1.62963 6.92733,2.7567 6.8604,1.53691 12.38547,2.0183 21.20552,1.8476 4.8909,-0.0947 6.1933,-0.19719 6.69702,-0.52724 z m -17.75169,-10.34216 c -0.33284,-0.33284 -0.17637,-1.14652 0.22048,-1.14652 0.21828,0 0.39688,-0.11907 0.39688,-0.26459 0,-0.14552 0.26789,-0.53165 0.59531,-0.85806 1.44445,-1.44 2.41912,-9.52419 1.23837,-10.27141 -0.56058,-0.35475 -1.03993,-0.29787 -1.03993,0.12338 0,0.20405 -0.32743,0.50013 -0.72761,0.65795 -1.41109,0.55652 -2.56625,1.35489 -2.91019,2.01133 -0.19132,0.36515 -0.57103,0.6639 -0.8438,0.6639 -0.34589,0 -0.45856,0.14299 -0.37236,0.47258 0.0718,0.2746 -0.2243,0.91031 -0.70684,1.51752 -0.63317,0.79673 -0.79568,1.21868 -0.68414,1.77638 0.38666,1.93326 -0.75321,3.2801 -1.74229,2.05865 -0.26369,-0.32565 -0.48017,-0.84679 -0.48107,-1.15809 -7.9e-4,-0.3113 -0.18989,-0.92319 -0.41999,-1.35975 -0.2301,-0.43657 -0.45228,-1.22699 -0.49373,-1.7565 -0.0414,-0.52951 -0.15898,-1.09804 -0.26117,-1.26338 -0.10219,-0.16535 -0.15257,-0.68633 -0.11196,-1.15773 0.0406,-0.4714 0.004,-0.97444 -0.0817,-1.11787 -0.15186,-0.25451 -0.28321,-1.90494 -0.31031,-3.89879 -0.0127,-0.93231 -0.0634,-0.99219 -0.84156,-0.99219 -0.97558,0 -1.78981,-1.085601 -1.23233,-1.643073 0.23623,-0.236235 0.5476,-0.175627 1.31578,0.256112 1.69097,0.950378 6.98645,1.557141 10.07368,1.15426 1.07058,-0.13971 2.36191,-0.186608 2.86962,-0.104216 l 0.92311,0.149799 -0.0941,5.715958 -0.0941,5.71595 -0.99949,2.05052 c -0.54973,1.12779 -1.12259,2.05052 -1.27304,2.05052 -0.15045,0 -0.45213,0.1786 -0.67041,0.39688 -0.41991,0.4199 -0.94781,0.5137 -1.24102,0.22048 z m 26.04592,10.09899 c 18.628549,-1.65188 29.056909,-5.20564 37.514429,-12.78409 5.06086,-4.53484 10.46224,-13.27394 13.17308,-21.313223 1.36723,-4.054671 1.94096,-7.908417 1.90963,-12.827092 -0.0294,-4.618765 -0.16055,-5.418307 -0.91127,-5.555885 -0.71662,-0.131328 -1.4436,-0.824568 -1.4436,-1.376605 0,-0.386411 0.35166,-0.488808 2.18281,-0.635583 6.00554,-0.481369 11.32169,-1.747689 15.14739,-3.608143 9.79379,-4.762757 17.94861,-17.566573 20.54359,-32.255303 0.37509,-2.123209 0.50873,-13.034959 0.16386,-13.379751 -0.2204,-0.220347 -1.91472,0.205709 -8.05039,2.024356 -10.50958,3.115096 -13.75048,4.596546 -19.53622,8.930193 -4.36403,3.268755 -7.24651,6.410597 -12.24438,13.346127 -2.08443,2.892552 -2.392,3.450609 -2.13161,3.867558 0.16736,0.267988 0.22867,0.684318 0.13625,0.925179 -0.24179,0.630076 -0.99544,0.850646 -1.2644,0.370043 -0.1238,-0.221215 -0.70319,-1.038508 -1.28754,-1.816203 -1.20621,-1.605319 -1.08924,-2.290111 0.25901,-1.516321 l 0.77458,0.44455 2.69152,-3.885885 c 3.3259,-4.801796 5.65058,-7.598434 8.49287,-10.217083 5.0913,-4.690687 10.26196,-7.600077 18.06745,-10.166043 4.08976,-1.344464 6.17742,-1.915258 12.93209,-3.535794 3.82956,-0.918763 -7.2485,-2.264248 -16.35174,-1.985996 -6.7897,0.207533 -11.97589,1.184412 -18.14389,3.417614 -5.62995,2.03839 -10.9367,5.577573 -15.91771,10.615848 -0.88933,0.899562 -1.79302,1.903457 -2.00819,2.230879 -0.53939,0.82079 -1.25142,0.745038 -2.11425,-0.224933 -1.10696,-1.244407 -5.06028,-3.784544 -8.62719,-5.543253 -1.75577,-0.865701 -3.32233,-1.574001 -3.48124,-1.574001 -0.15892,0 -0.68996,1.398984 -1.18008,3.108854 -1.04479,3.644926 -1.86186,5.621559 -2.32395,5.622046 -0.87023,7.94e-4 -0.0147,-4.814154 2.03894,-11.47542 0.44293,-1.436725 0.80533,-2.657115 0.80533,-2.711979 0,-0.05486 -0.33217,-0.09975 -0.73816,-0.09975 -1.35238,0 -3.8672,-0.786617 -6.141,-1.920859 -1.23693,-0.617016 -2.33826,-1.161536 -2.4474,-1.210043 -0.10914,-0.04851 -0.19844,0.103733 -0.19844,0.338313 0,0.379005 -3.66432,9.641109 -4.26737,10.786382 -0.27149,0.515601 -1.02429,0.350512 -1.02429,-0.224629 0,-0.206968 0.40388,-1.621846 0.89753,-3.144171 l 0.89752,-2.767869 -0.96367,-0.253371 c -1.76442,-0.463899 -6.945509,-1.080034 -10.458309,-1.2437 -16.20236,-0.754885 -34.0964,6.418093 -44.0875,17.672848 -5.32771,6.001541 -8.65642,12.723386 -10.30373,20.806841 -0.85746,4.207628 -1.04086,5.874839 -0.64625,5.874839 0.18452,0 0.92608,0.367126 1.6479,0.815835 0.76241,0.473938 1.57366,0.778857 1.93581,0.727604 0.58508,-0.08281 0.61776,-0.181763 0.53145,-1.609584 -0.0701,-1.159079 -0.005,-1.521355 0.27185,-1.521355 0.44717,0 1.56105,0.746866 1.98789,1.332884 0.26055,0.35773 0.68038,0.412319 2.40373,0.312555 3.13427,-0.181438 4.77102,0.377608 6.66434,2.27626 2.58899,2.596293 3.72564,5.753291 3.73213,10.365801 0.008,5.714349 -2.01197,9.578908 -6.04109,11.557428 -1.38746,0.681323 -1.77105,0.745696 -4.4434,0.745696 -2.84793,0 -2.97775,-0.02617 -4.93661,-0.994616 -2.32177,-1.147882 -4.31094,-3.120848 -5.257,-5.214181 l -0.5979,-1.322948 -0.85688,1.272389 c -0.47128,0.699812 -1.65545,2.334924 -2.63149,3.633581 -4.22225,5.617884 -5.00059,9.795316 -2.93286,15.741059 0.93764,2.69621 2.10489,4.50462 4.63171,7.17589 3.7732,3.98891 8.20496,6.52783 16.10271,9.22509 l 2.18433,0.746 -0.7462,-1.10822 c -2.14991,-3.19291 -3.05408,-5.60972 -3.49986,-9.35495 -0.5525,-4.64173 0.50064,-9.62693 2.78961,-13.20518 1.77222,-2.770428 5.44617,-6.173983 8.06999,-7.476053 0.36489,-0.181081 0.93397,-0.72404 1.26461,-1.206577 0.73453,-1.071975 3.86833,-2.388674 6.75491,-2.838145 2.73615,-0.426048 8.05407,-0.149755 10.45195,0.543033 5.49667,1.588082 10.73362,5.4683 13.89774,10.297255 1.91503,2.922647 2.85289,4.942457 3.66368,7.890267 0.82218,2.98924 0.82901,10.12597 0.0125,13.08948 -0.63185,2.29336 -1.87728,4.91426 -3.03086,6.37817 l -0.78185,0.99219 1.01442,-0.003 c 0.55793,-0.002 2.99181,-0.17859 5.40861,-0.3929 z m 28.496349,-9.09575 c -1.92876,-0.66843 -2.6096,-1.31011 -2.86793,-2.703 -0.2328,-1.25525 -0.17491,-5.88957 0.0823,-6.59051 0.0801,-0.21828 0.21226,-0.70381 0.29366,-1.07896 0.0814,-0.37514 0.44853,-1.00635 0.81585,-1.40269 0.36731,-0.39634 0.66784,-0.77972 0.66784,-0.85197 0,-0.2367 1.44805,-1.41196 1.75026,-1.42052 0.16227,-0.005 0.57899,-0.22894 0.92604,-0.49854 1.00148,-0.77799 3.19239,-0.95217 4.39549,-0.34946 0.5489,0.27498 1.31319,0.57559 1.69842,0.66802 0.40121,0.0963 0.91642,0.53615 1.20607,1.02973 0.98227,1.67389 1.54924,5.06437 1.11182,6.6486 -0.53938,1.95348 -6.51287,7.09129 -8.15289,7.01232 -0.37744,-0.0182 -1.24457,-0.22653 -1.92696,-0.46302 z m -17.79663,-10.20425 c -1.67222,-0.97468 -2.34172,-3.89176 -1.1795,-5.13925 0.98044,-1.05239 3.23815,-1.890376 5.57948,-2.070925 l 2.16091,-0.166637 1.14499,1.282922 c 1.02661,1.15027 1.145,1.41974 1.145,2.60605 0,1.4977 -0.74523,2.85144 -1.85009,3.36074 -0.3649,0.1682 -0.87019,0.411 -1.12288,0.53954 -0.25269,0.12854 -1.44331,0.22546 -2.64583,0.21538 -1.78182,-0.0149 -2.3799,-0.13112 -3.23208,-0.62782 z m 31.42344,-5.52554 c -0.90746,-0.33432 -2.97687,-1.778414 -2.98714,-2.084507 -0.003,-0.102526 -0.30391,-0.484066 -0.66771,-0.847868 -0.3638,-0.363802 -0.66146,-0.845466 -0.66146,-1.070361 0,-0.224896 -0.10462,-0.408901 -0.23248,-0.408901 -0.91208,0 -1.05125,-4.122578 -0.19699,-5.834993 0.23621,-0.473488 0.42947,-0.993553 0.42947,-1.155695 0,-0.591934 1.3552,-2.269728 1.83331,-2.269728 0.27023,0 0.55088,-0.155212 0.62368,-0.344913 0.22756,-0.593011 4.42041,-1.331982 4.42317,-0.779566 5.3e-4,0.109141 0.51738,0.410755 1.14852,0.670253 0.63114,0.259498 1.5832,0.870868 2.11567,1.358601 0.90842,0.832075 0.96815,0.98475 0.96815,2.474645 0,1.824196 -0.82803,4.547256 -2.45782,8.082777 -0.86738,1.881626 -1.16911,2.309256 -1.55767,2.207656 -0.26504,-0.0693 -0.54858,-0.0182 -0.63007,0.11372 -0.19695,0.31868 -1.11243,0.27138 -2.15063,-0.11112 z M 38.497721,100.29272 c -0.52247,-0.17627 -1.20839,-0.736869 -1.65364,-1.351528 -0.63168,-0.872 -0.76085,-1.313103 -0.76085,-2.598123 0,-1.199436 0.0893,-1.547802 0.39687,-1.547802 0.22378,0 0.39688,-0.236686 0.39688,-0.542669 0,-1.268753 3.90992,-1.780177 5.93573,-0.776404 1.47765,0.732161 2.05948,1.620348 2.083,3.179789 0.023,1.526392 -0.67932,2.989601 -1.65201,3.441637 -0.95147,0.44217 -3.68106,0.55438 -4.74598,0.1951 z m 64.786089,-2.435031 c -2.07343,-0.572685 -4.575359,-1.92482 -6.081829,-3.286852 -1.29767,-1.17324 -1.42069,-1.373087 -1.13633,-1.845977 0.25303,-0.420793 0.24648,-0.590389 -0.0317,-0.821285 -0.19284,-0.160044 -0.67584,-1.015685 -1.07334,-1.901428 -1.76015,-3.922144 -0.82585,-10.362935 1.96422,-13.540644 0.51996,-0.592204 0.75108,-1.081569 0.64337,-1.362255 -0.38354,-0.999501 3.231159,-3.237182 6.160109,-3.813418 2.01518,-0.396463 5.13698,0.0011 7.11576,0.906229 1.7076,0.781074 2.34601,0.804569 3.08765,0.113625 1.02985,-0.95945 1.34509,-0.706516 1.14231,0.916522 -0.17003,1.360863 -0.14465,1.454685 0.43253,1.599052 0.33724,0.08435 1.44245,0.118398 2.45603,0.07567 1.59948,-0.06744 1.85573,-0.01469 1.94033,0.399377 0.0592,0.28951 -0.27524,0.828591 -0.85052,1.371153 l -0.948,0.894078 0.7683,0.547076 c 0.42256,0.300892 0.94373,0.547076 1.15816,0.547076 0.83542,0 2.30657,0.809649 2.30657,1.269421 0,0.53363 -1.06573,1.232151 -2.27328,1.48999 l -0.81806,0.174678 0.37291,1.377225 c 0.78155,2.886342 0.0267,7.76315 -1.44876,9.359386 -0.32742,0.354235 -0.59531,0.750964 -0.59531,0.881621 0,0.130656 -0.50601,0.764572 -1.12448,1.408702 -1.3534,1.409571 -3.58714,2.680036 -5.66246,3.220585 -1.82179,0.474517 -5.82063,0.485386 -7.50414,0.0204 z m 11.42901,-5.311381 1.28365,-2.381249 -0.0707,-3.704167 c -0.075,-3.929097 -0.25003,-4.565451 -2.06478,-7.506155 l -0.5502,-0.891574 -0.63338,0.595027 c -0.41722,0.391964 -0.8265,0.54452 -1.19929,0.447034 -0.49636,-0.129802 -0.54508,-0.06497 -0.39638,0.527498 0.0932,0.371517 0.28282,2.00031 0.42128,3.619536 0.13847,1.619229 0.31809,3.260138 0.39917,3.646467 0.19205,0.915095 -0.20164,1.127958 -1.33091,0.719613 -0.74377,-0.268951 -1.03843,-0.264882 -1.57398,0.02172 -0.86422,0.462515 -1.57412,1.968129 -1.34965,2.862463 0.3121,1.243528 2.18852,2.347685 2.85576,1.680443 0.16397,-0.16397 0.44985,-0.298127 0.63529,-0.298127 0.47275,0 1.1445,1.400735 1.1445,2.386512 0,0.695963 0.0898,0.812043 0.57298,0.740743 0.41611,-0.0614 0.92438,-0.736444 1.85662,-2.465797 z m -9.79729,-12.611731 c 0.75397,-0.816695 1.01769,-1.329534 1.01769,-1.97902 0,-1.414566 -0.7593,-2.971832 -1.68644,-3.458739 -1.04778,-0.55027 -1.54188,-0.546735 -3.34064,0.02389 l -1.455209,0.461637 -0.0227,1.241359 c -0.0125,0.682744 -0.11734,1.68784 -0.23306,2.233543 -0.17426,0.821825 -0.13746,0.992188 0.21432,0.992188 0.23358,0 0.609399,0.357187 0.835159,0.79375 0.38832,0.750935 0.49791,0.79375 2.03181,0.79375 1.56313,0 1.65789,-0.03958 2.63904,-1.102358 z m 31.67714,3.944747 c -0.72724,-0.288142 -1.55528,-1.435807 -1.55528,-2.155608 0,-0.232209 -0.0973,-0.422199 -0.21627,-0.422199 -0.34352,0 -1.10665,-2.7149 -1.10665,-3.937026 0,-0.611814 0.12036,-1.256194 0.26747,-1.431954 0.1471,-0.175757 0.51293,-0.646983 0.81295,-1.047165 0.30002,-0.400182 0.76906,-0.727604 1.04231,-0.727604 0.27324,0 0.59203,-0.155147 0.7084,-0.344771 0.2529,-0.412096 2.37712,-1.242729 3.17809,-1.242729 0.31216,0 0.7249,-0.149913 0.9172,-0.333142 0.63592,-0.605931 2.69924,-0.992381 3.74978,-0.702316 0.95372,0.263335 1.44453,1.053492 1.16859,1.881312 -0.0622,0.186669 0.17212,0.563777 0.52077,0.838023 0.47758,0.375668 0.61555,0.711565 0.5595,1.362151 -0.0409,0.474938 0.0541,1.025671 0.21104,1.223852 0.15698,0.198181 0.26045,0.649885 0.22992,1.003787 -0.0305,0.353904 0.10405,0.949216 0.29906,1.322916 0.19502,0.373703 0.35531,0.81638 0.35621,0.983729 0.003,0.477128 -1.83827,2.196131 -2.54051,2.372381 -0.34807,0.08736 -0.63286,0.239032 -0.63286,0.337047 0,0.158898 -4.42755,0.983763 -6.48229,1.20767 -0.43656,0.04757 -1.10591,-0.03719 -1.48743,-0.188354 z m -4.03102,-14.616348 c -0.21828,-0.218281 -0.58398,-0.396875 -0.81265,-0.396875 -0.22868,0 -0.41746,-0.0893 -0.41951,-0.198437 -0.002,-0.109141 -0.47581,-0.721873 -1.05279,-1.361625 -0.57698,-0.639755 -1.11561,-1.372897 -1.19696,-1.629204 -0.0813,-0.25631 -0.32197,-0.53281 -0.53471,-0.614444 -0.21274,-0.08164 -0.38681,-0.276257 -0.38681,-0.432486 0,-0.156231 -0.12612,-0.427857 -0.28027,-0.603617 -0.27822,-0.317217 -1.13942,-1.623664 -1.76635,-2.679531 -0.49385,-0.831757 -0.40071,-2.497722 0.19339,-3.458996 0.46695,-0.755552 1.03516,-1.214702 3.04386,-2.459656 0.29104,-0.180382 0.88635,-0.56393 1.32292,-0.852329 0.43656,-0.288398 0.99508,-0.524809 1.24115,-0.525351 0.24607,-5.29e-4 0.52099,-0.120052 0.61093,-0.265573 0.0899,-0.145521 0.3847,-0.264583 0.65502,-0.264583 0.27033,0 0.53375,-0.126744 0.58539,-0.281652 0.15023,-0.450678 2.23485,-0.616315 3.12359,-0.24819 0.45287,0.18759 0.86799,0.59477 0.95344,0.935212 0.0832,0.331632 0.38191,0.663263 0.66373,0.73696 0.28183,0.0737 0.63725,0.492123 0.78983,0.929828 0.15259,0.437708 0.44771,0.861174 0.65582,0.941033 0.20811,0.07986 0.37839,0.277728 0.37839,0.439706 0,0.161978 0.40109,0.790792 0.89132,1.397365 1.37998,1.707491 1.8439,2.904741 1.68203,4.340825 -0.0833,0.738682 -0.33724,1.408782 -0.6289,1.659311 -0.26909,0.231129 -0.61626,0.644588 -0.77151,0.9188 -0.15525,0.274208 -0.50594,0.62558 -0.77931,0.780827 -0.27337,0.155247 -0.74167,0.500994 -1.04065,0.768326 -0.5245,0.46898 -1.37961,0.981467 -3.68798,2.2103 -1.27452,0.678474 -2.86859,0.777886 -3.43241,0.214056 z m -25.9543,-8.451765 c -3.55364,-0.988583 -4.37829,-1.589839 -4.37829,-3.192205 0,-2.038501 1.19346,-2.95887 3.4849,-2.687482 1.50129,0.177806 3.12968,0.710155 3.12968,1.023147 0,0.116287 0.12143,0.211431 0.26984,0.211431 0.58023,0 2.42201,1.385673 2.91376,2.192184 0.60252,0.988179 0.65041,1.656074 0.18984,2.647794 -0.28035,0.603668 -0.49194,0.710065 -1.38906,0.6985 -0.58209,-0.0075 -2.48139,-0.40952 -4.22067,-0.893369 z M 72.327451,58.859483 c -0.66849,-0.300127 -2.11297,-1.455496 -2.11297,-1.690063 0,-0.121046 -0.27545,-0.664202 -0.61211,-1.207013 -0.8527,-1.374862 -1.76914,-4.252177 -1.76914,-5.554522 0,-1.473597 0.85254,-2.86408 1.98526,-3.23791 0.49065,-0.161927 1.16742,-0.510958 1.50393,-0.77562 0.33652,-0.264663 1.14763,-0.665017 1.80247,-0.889678 0.65485,-0.22466 1.72641,-0.653568 2.38125,-0.953129 1.22824,-0.561862 3.29303,-0.742887 3.5593,-0.312053 0.083,0.134327 0.48363,0.317302 0.89026,0.406612 0.40663,0.08931 0.9078,0.396126 1.11371,0.681813 0.20591,0.285689 0.47233,0.519432 0.59203,0.519432 0.11971,0 0.88836,0.654844 1.70813,1.455209 0.81976,0.800364 1.58372,1.455208 1.69769,1.455208 0.38215,0 0.828,2.055508 0.65077,3.000224 -0.0964,0.514032 -0.66415,1.666613 -1.2616,2.561294 -0.9494,1.421733 -1.32332,1.737775 -2.96775,2.508342 -3.79079,1.776333 -7.76641,2.658081 -9.16123,2.031854 z m -23.76633,-0.986038 c -0.80235,-1.760948 0.004,-2.767095 3.58705,-4.476229 1.34718,-0.642599 2.58617,-0.525081 3.38949,0.32149 0.59085,0.622665 0.66932,0.890736 0.54403,1.858685 -0.0805,0.622093 -0.37829,1.379979 -0.6617,1.684192 -0.61934,0.664786 -3.03843,1.27595 -5.07294,1.281636 -1.3299,0.0037 -1.50982,-0.06376 -1.78593,-0.669774 z m 78.009599,-7.549959 c -1.89163,-0.244787 -2.18723,-0.438693 -3.30746,-2.16961 -2.68579,-4.149936 -3.01909,-5.232966 -2.18816,-7.110185 0.47885,-1.081793 2.44281,-2.070692 3.77583,-1.901211 1.14684,0.14581 3.83646,1.296154 3.83646,1.640851 0,0.116676 0.69886,0.619204 1.55302,1.116727 1.83577,1.069279 2.41573,1.949696 2.41573,3.667225 0,2.38003 -0.29434,3.67829 -0.92808,4.093533 -0.75698,0.49599 -3.61126,0.862742 -5.15734,0.66267 z M 52.591031,48.849463 c -1.22946,-0.261559 -1.3112,-1.184026 -0.4728,-5.33572 0.12201,-0.604226 1.09189,-1.657963 2.72263,-2.958057 0.45633,-0.363802 1.0329,-0.869818 1.28128,-1.124479 0.24838,-0.254662 0.54903,-0.463021 0.6681,-0.463021 0.11907,0 0.5391,-0.226997 0.93339,-0.504436 1.1014,-0.774996 2.55939,-0.932204 3.49883,-0.377264 0.43446,0.256643 0.78993,0.622522 0.78993,0.813065 0,0.190542 0.23813,1.023948 0.52917,1.852011 0.29104,0.828067 0.52917,1.82036 0.52917,2.205099 0,1.326268 -3.63709,4.734107 -5.82084,5.453938 -1.068,0.352046 -3.83968,0.61314 -4.65886,0.438864 z m 29.46726,-7.498892 c -1.66994,-0.50283 -4.70006,-3.143678 -4.70006,-4.096266 0,-0.221533 -0.10983,-0.402785 -0.24407,-0.402785 -0.13423,0 -0.38687,-0.432716 -0.56142,-0.961589 -0.61597,-1.86641 0.4689,-6.344967 1.64211,-6.778966 0.34007,-0.125801 0.86172,-0.457398 1.15921,-0.73688 0.4134,-0.388369 1.7799,-0.706644 5.7972,-1.350238 l 5.25629,-0.842089 1.1956,0.634267 c 1.39074,0.737785 2.15924,1.487649 2.15924,2.106877 0,0.241049 0.23813,0.653769 0.52917,0.91716 0.29104,0.26339 0.52917,0.690057 0.52917,0.94815 0,0.258093 0.16407,0.633338 0.36461,0.833876 0.79356,0.793555 0.77103,1.949072 -0.0724,3.716412 -1.18347,2.479733 -1.62576,2.918137 -3.77758,3.744372 -1.06621,0.40939 -2.49351,0.966536 -3.1718,1.238107 -1.55809,0.623819 -4.13548,1.300052 -4.84161,1.270299 -0.29685,-0.01251 -0.86548,-0.120827 -1.26362,-0.240707 z M 150.82933,29.45577 c -1.10732,-0.357621 -1.50444,-0.785847 -1.50444,-1.622282 0,-0.652462 0.13905,-0.788598 1.05833,-1.036135 0.58209,-0.156739 1.05834,-0.39149 1.05834,-0.521668 0,-0.13018 0.36051,-0.226438 0.80113,-0.21391 0.49649,0.0141 0.93835,-0.164883 1.16199,-0.470728 0.19847,-0.271429 0.66365,-0.50676 1.03374,-0.52296 0.37009,-0.01619 0.82945,-0.149024 1.02082,-0.295159 0.53901,-0.411612 2.67987,-1.150575 3.33335,-1.150575 0.76413,0 0.82686,0.538724 0.2927,2.513542 -0.57844,2.138564 -0.92054,2.654969 -1.99153,3.006328 -1.30509,0.428162 -5.29171,0.6277 -6.26443,0.313547 z M 43.607631,84.339733 c -0.028,-2.549086 0.0534,-4.699238 0.18105,-4.778116 0.12763,-0.07888 0.23205,-0.407551 0.23205,-0.730384 0,-0.322834 0.1948,-0.865093 0.43289,-1.205016 0.35791,-0.510987 0.60212,-0.595347 1.40981,-0.487013 3.28198,0.440205 5.47723,-3.912031 2.88797,-5.725615 -1.16768,-0.81788 -2.75037,-0.362421 -4.03156,1.160184 -0.37776,0.448943 -0.83843,0.796298 -1.02371,0.771904 -0.18527,-0.02439 -0.46987,-0.03025 -0.63243,-0.01302 -0.54664,0.05798 -1.69554,2.138016 -2.48892,4.506092 -1.04072,3.106346 -1.08878,5.748168 -0.1422,7.817588 0.76622,1.675135 2.13929,3.318084 2.77304,3.318084 0.41231,0 0.44842,-0.416306 0.40201,-4.634701 z m 9.90074,2.934229 c 0.47142,-0.243785 0.86518,-0.292092 1.11134,-0.136343 0.57375,0.363027 0.72627,0.309806 1.20472,-0.420401 0.5192,-0.792409 0.31321,-1.166241 -0.30306,-0.549976 -0.5115,0.511503 -0.91731,0.336065 -0.91731,-0.396563 0,-2.228093 -2.60361,-3.166581 -3.57478,-1.28855 -0.53394,1.032526 -0.49563,1.645864 0.1544,2.472248 0.61724,0.784688 1.25558,0.872442 2.32469,0.319585 z m -13.3532,-15.840323 c 0.44829,-0.327798 0.4476,-0.387649 -0.0156,-1.360927 l -0.48448,-1.01805 -0.16714,0.765614 c -0.40675,1.863273 -0.23675,2.274348 0.6672,1.613363 z m -2.00071,-8.057642 c 0.88338,-7.042446 2.91561,-13.205456 5.84837,-17.736009 0.59193,-0.914416 1.07623,-1.77645 1.07623,-1.915634 0,-0.139181 -0.9626,-2.188993 -2.13912,-4.555135 -3.43771,-6.913734 -6.59469,-11.397974 -11.32463,-16.085692 -2.39134,-2.37 -6.95712,-6.010251 -9.09186,-7.248856 -1.45797,-0.845939 -1.56608,-0.972449 -1.25755,-1.471655 0.1881,-0.304363 0.50392,-0.233415 1.76848,0.397291 8.01603,3.998034 16.08088,12.492997 20.21915,21.297463 1.78914,3.806533 2.77774,5.653166 3.08044,5.754068 0.14036,0.04679 0.76676,-0.5925 1.39201,-1.420636 1.58522,-2.099611 4.94826,-5.375089 7.71117,-7.510406 1.28312,-0.991664 2.48099,-1.852372 2.66192,-1.912683 0.79379,-0.264594 -4.94584,-5.920325 -9.51987,-9.38072 -2.70988,-2.050113 -7.17688,-4.563997 -10.65794,-5.997946 -5.54509,-2.284182 -13.22436,-3.625363 -16.13229,-2.817494 -1.32041,0.366831 -1.76033,1.287441 -2.62573,5.494845 -1.15915,5.635598 -1.41573,8.787535 -1.26855,15.583746 0.16767,7.74201 0.82667,11.624857 2.86688,16.8916 1.47199,3.799908 3.14335,6.491753 5.49408,8.848587 2.47069,2.477116 4.35871,3.735414 7.83036,5.218657 3.80533,1.625804 3.67914,1.670262 4.06845,-1.433391 z m 6.82826,-34.38193 c -0.1015,-0.101494 -0.98053,-0.391628 -1.9534,-0.644745 -1.26697,-0.329628 -1.90904,-0.652629 -2.26288,-1.13838 -0.27171,-0.372994 -0.64977,-0.678172 -0.84014,-0.678172 -0.19037,0 -0.42784,-0.327422 -0.52771,-0.727604 -0.0999,-0.400182 -0.35983,-0.925433 -0.57768,-1.167228 -0.66296,-0.735817 -0.34496,-1.818304 0.69777,-2.375252 1.18723,-0.634127 5.19099,-0.697026 6.34609,-0.0997 1.62799,0.841867 3.11036,5.833999 1.97819,6.661867 -0.50474,0.369072 -2.53997,0.489479 -2.86024,0.169214 z m 29.3328,-5.667846 c 2.03729,-0.703122 3.91479,-1.281321 4.17223,-1.284885 0.37675,-0.0052 0.43325,-0.148418 0.2896,-0.734087 -0.40507,-1.651513 -0.84157,-2.576573 -1.18751,-2.51665 -0.20015,0.03467 -1.43547,0.35592 -2.74516,0.713891 -1.30968,0.357973 -3.03609,0.658852 -3.83645,0.66862 -1.9732,0.02408 -2.12834,0.158311 -1.85066,1.601145 0.12561,0.652653 0.303,1.643076 0.3942,2.200942 0.13461,0.823407 0.24992,0.978085 0.6127,0.821867 0.24578,-0.105842 2.11376,-0.76772 4.15105,-1.470843 z m 47.812329,-3.590104 c 2.30832,-0.557144 4.07321,-2.027389 5.30653,-4.420616 0.73863,-1.433296 0.82982,-1.853195 0.81043,-3.731689 -0.0389,-3.7712541 -1.37233,-6.6252906 -4.1216,-8.8219169 -5.3706,-4.2910342 -13.15856,-2.20398962 -15.64386,4.192291 -1.00941,2.5978801 -0.98079,4.2537669 0.11413,6.6010919 0.90682,1.944089 1.72339,2.761893 4.21891,4.2253 1.94044,1.137899 2.86956,1.476688 5.46377,1.992284 0.99675,0.198101 1.85477,0.371372 1.90671,0.385045 0.0519,0.01368 0.92718,-0.17613 1.94498,-0.42179 z M 73.584511,17.152664 c 4.07838,-0.717748 7.48188,-2.982926 8.36171,-5.565087 0.55028,-1.6149873 0.54941,-2.2171816 -0.006,-4.2197413 -0.72603,-2.6172238 -2.46662,-4.7357584 -4.97878,-6.0598153 -1.48997,-0.78530452 -1.75818,-0.83670772 -4.36562,-0.83670772 -2.51617,0 -2.92236,0.070826 -4.30777,0.75112032 -2.05726,1.0102003 -3.7704,2.7611148 -4.75024,4.8549822 -1.0848,2.3181758 -1.1229,4.8686508 -0.10591,7.0900468 1.79562,3.922168 4.4935,4.981155 10.1527,3.985202 z"
       id="path4851" /></g></svg>
