<?xml version="1.0" encoding="UTF-8" standalone="no"?>
<!-- Created with Inkscape (http://www.inkscape.org/) -->

<svg
   width="253.52643mm"
   height="183.09616mm"
   viewBox="0 0 253.52646 183.09614"
   version="1.1"
   id="svg1"
   xml:space="preserve"
   xmlns="http://www.w3.org/2000/svg"
   xmlns:svg="http://www.w3.org/2000/svg"><defs
     id="defs1" /><g
     id="layer1"
     transform="translate(87.363227,-53.451909)"><path
       style="fill:#000000"
       d="m -33.876133,236.35418 c -13.35236,-1.28259 -25.17479,-6.07582 -32.882878,-13.33189 -11.979528,-11.27702 -15.989758,-27.24885 -10.772691,-42.90515 2.403324,-7.21232 6.825563,-13.46522 13.483049,-19.06457 0.9054,-0.76149 1.19282,-1.14281 0.92604,-1.22854 -0.21277,-0.0684 -1.51794,-0.43651 -2.90039,-0.81807 -3.417653,-0.94327 -6.831719,-2.65113 -9.9564,-4.98061 -5.055881,-3.7692 -10.115361,-9.95763 -11.092562,-13.5677 -0.954774,-3.52722 0.477074,-7.13216 3.718755,-9.36263 4.369309,-3.00636 9.718724,-4.8018 22.886457,-7.68147 7.32739,-1.60243 18.87455,-4.27139 19.01837,-4.39582 0.0554,-0.0479 -0.1522,-1.72851 -0.46124,-3.7347 -0.88344,-5.73486 -1.09463,-8.6788 -1.09463,-15.25905 0,-8.89364 0.63907,-13.46238 2.77691,-19.85214 3.31366,-9.90417 10.64883,-18.196767 20.49015,-23.164652 10.2232899,-5.1607 22.7568399,-4.685343 34.54439,1.31016 9.21085,4.68491 17.59506,12.033942 24.90799,21.832672 1.52046,2.03729 3.09054,4.10958 3.48908,4.6051 l 0.72461,0.90093 3.29854,-1.08331 c 4.65531,-1.5289 7.5658,-2.38418 15.86624,-4.66248 20.91682,-5.74123 31.09089,-6.96238 36.21759,-4.34705 3.198853,1.63185 4.528083,4.18867 4.727573,9.09362 0.13856,3.40688 -0.32798,6.39157 -1.57018,10.04527 -1.41484,4.16147 -2.770003,6.81812 -5.969303,11.70221 -0.37965,0.57958 -0.32992,0.61635 2.89725,2.14163 6.133363,2.89887 10.273723,5.73167 14.643413,10.01889 7.04545,6.91249 11.41279,15.03791 13.51625,25.14694 0.61828,2.97141 0.70264,3.98327 0.70114,8.40984 -9.5e-4,2.76761 -0.0805,5.28011 -0.1767,5.58333 -0.17023,0.53637 -0.0726,0.55561 3.60076,0.7097 7.37301,0.30927 13.6633,2.47417 19.60597,6.7477 2.56171,1.8422 7.02899,6.44011 8.71359,8.96839 2.62612,3.94135 4.7823,9.07804 5.66662,13.49968 0.71656,3.58287 0.64478,10.9627 -0.14227,14.62481 -3.73679,17.3872 -15.98953,29.4805 -34.10007,33.65632 l -2.58268,0.5955 -80.168743,0.0379 c -44.0928101,0.0209 -81.24031,-0.065 -82.55,-0.1908 z m 156.655203,-7.63559 c 6.38015,-0.39288 10.89198,-1.56658 16.38229,-4.26166 3.83134,-1.88072 6.88905,-4.12941 9.98787,-7.34524 5.94764,-6.17223 8.78281,-13.30285 8.74739,-22.00022 -0.0324,-7.95349 -2.51589,-14.39128 -7.65215,-19.83598 -7.53642,-7.989 -18.67294,-10.92641 -28.58674,-7.54014 -1.47784,0.50478 -2.88598,0.91779 -3.12921,0.91779 -0.24323,0 -0.79026,-0.34803 -1.21563,-0.7734 -1.08958,-1.08958 -1.06923,-2.41106 0.0544,-3.53472 0.93181,-0.93181 1.13186,-1.49174 1.67482,-4.68772 2.54207,-14.96326 -3.27459,-29.64197 -15.45807,-39.00942 -3.50681,-2.69625 -8.857313,-5.49192 -12.592843,-6.57983 -1.29371,-0.37677 -1.37406,-0.36828 -2.38125,0.25135 -2.83299,1.74287 -6.87205,3.24798 -15.89593,5.92346 -21.99889,6.52242 -31.22231,9.54293 -44.07685,14.43439 -5.08579,1.93526 -7.98972,3.10993 -25.6113401,10.35999 -13.4936599,5.5517 -21.6284699,8.48303 -31.8075999,11.46171 -1.70924,0.50017 -3.10822,0.97664 -3.10886,1.05883 -6.3e-4,0.0822 0.44533,0.36168 0.99104,0.6211 3.90429,1.85603 7.25786,5.91322 7.8098,9.4484 0.18799,1.20414 -0.55155,2.52473 -1.5549,2.77656 -1.22851,0.30833 -2.00407,-0.18655 -2.9556,-1.88597 -2.29125,-4.09217 -6.28052,-6.30781 -12.70103,-7.05414 -5.9575,-0.69251 -12.56276,1.05716 -17.65192,4.67582 -2.24644,1.59733 -6.34547,5.94443 -8.137845,8.63032 -3.600788,5.39582 -5.154513,10.37383 -5.399292,17.29889 -0.206092,5.83057 0.554909,9.80754 2.854903,14.91963 2.027605,4.50666 6.835464,10.01127 11.441404,13.09949 7.04148,4.72121 16.4816,7.74909 26.82188,8.60302 3.66926,0.30302 148.255503,0.32916 153.151233,0.0277 z M 28.540057,196.66201 c -2.22829,-0.34963 -3.76367,-1.17344 -5.50275,-2.95252 -2.4188,-2.47443 -3.85119,-5.87096 -3.08202,-7.30817 0.41674,-0.77869 1.82591,-1.6064 2.73695,-1.60761 0.40771,-5.5e-4 1.56839,0.42703 2.57929,0.95017 2.00609,1.03816 3.37454,1.32927 4.93089,1.04897 0.81853,-0.14741 1.40844,-0.60415 3.12562,-2.41996 1.72415,-1.82318 2.29971,-2.26791 3.10373,-2.3982 2.1353,-0.34604 3.27277,1.40562 3.03262,4.67011 -0.48469,6.58851 -5.20291,10.91494 -10.92433,10.01721 z m 3.70666,-2.60014 c 0.70304,-0.26729 2.27194,-1.55539 2.27194,-1.8653 0,-0.38516 -2.75345,-0.58735 -3.87732,-0.28472 -1.16432,0.31352 -2.82888,1.32601 -2.85391,1.73593 -0.009,0.14086 0.46061,0.40335 1.04269,0.58331 1.04504,0.32309 2.283,0.26178 3.4166,-0.16922 z m -36.3229001,0.11265 c -5.11416,-1.10968 -9.0401999,-5.28736 -10.2253099,-10.88072 -0.48744,-2.30054 -0.48749,-3.50751 -2.8e-4,-6.08458 1.00191,-5.29952 4.7263299,-9.78705 9.5298099,-11.48241 2.01704,-0.7119 5.65991001,-0.96059 7.57205,-0.51692 6.29009,1.45949 10.5605001,7.08039 10.5480001,13.88373 -0.008,4.46011 -1.39758,7.86712 -4.4940101,11.0201 -2.35297,2.39595 -4.48114,3.5738 -7.39729,4.0941 -2.45927,0.43878 -3.38291,0.43322 -5.53297,-0.0333 z m 11.874,-14.08412 c 1.62067,-1.62067 1.89672,-3.66027 0.65346,-4.82824 -1.98837,-1.86799 -5.47919,0.74232 -5.07023,3.79134 0.18603,1.38692 0.93716,2.03505 2.35847,2.03505 0.87341,0 1.23597,-0.17582 2.0583,-0.99815 z m -11.33529,-0.88371 c 2.5106,-1.26165 3.76542001,-5.37253 2.29498,-7.5185 -0.73403,-1.07125 -1.48504,-1.44755 -2.88896,-1.44755 -1.29417,0 -2.47366,0.47451 -3.65472,1.47031 -1.21479,1.02423 -1.86767,2.55911 -1.87477,4.40746 -0.005,1.31819 0.0994,1.63203 0.81482,2.4468 1.32374,1.50765 3.14667,1.72793 5.30865,0.64148 z m 60.2811301,9.00141 c -4.90259,-0.95039 -9.72625,-5.83792 -10.9703,-11.11558 -1.52468,-6.46817 1.52459,-13.81814 7.11542,-17.15097 3.25974,-1.94321 8.0831,-2.66003 11.64909,-1.7312 4.86737,1.26779 9.06166,5.50476 10.3376,10.44279 0.61115,2.36523 0.43043,6.90977 -0.36228,9.11017 -1.34214,3.7255 -4.27679,7.17428 -7.5958,8.92652 -2.93697,1.55054 -6.93187,2.14672 -10.17373,1.51827 z m 12.72299,-14.07268 c 2.01678,-1.35911 2.68695,-4.04019 1.36607,-5.46508 -0.76405,-0.8242 -0.96227,-0.89301 -2.4266,-0.8423 -1.17366,0.0406 -3.08335,1.94104 -3.34338,3.32712 -0.53939,2.87519 2.00487,4.59697 4.40391,2.98026 z m -13.36359,-0.19855 c 2.17331,-0.82629 4.01433,-3.38618 4.25422,-5.91538 0.22399,-2.36154 -1.2797,-4.48629 -3.42086,-4.83375 -2.50526,-0.40655 -5.74943,1.77256 -6.79355,4.56322 -0.61154,1.6345 -0.65526,2.20704 -0.27348,3.58149 0.2804,1.00949 1.3512,2.26326 2.24406,2.62751 0.76048,0.31025 3.14923,0.29642 3.98961,-0.0231 z m -104.61097,-20.22795 c 7.70842,-1.01089 24.32656,-6.14446 40.3647499,-12.46921 3.37281,-1.33009 17.95618,-7.29919 19.2462001,-7.87765 2.39369,-1.07334 16.63879,-6.57507 21.29895,-8.22606 10.73241,-3.80223 21.83881,-7.33698 31.61771,-10.06273 15.28051,-4.25925 16.79385,-4.70778 19.53734,-5.79048 5.81467,-2.29472 9.47839,-5.78751 11.18361,-10.66184 l 0.48026,-1.37282 -0.73072,-0.57478 c -0.40189,-0.31613 -1.46801,-1.66289 -2.36916,-2.99281 -1.38738,-2.04749 -1.64941,-2.31666 -1.70995,-1.75657 -0.4032,3.73 -1.71783,7.19199 -3.26013,8.58537 -0.88437,0.79897 -1.22809,0.93948 -2.29607,0.93864 -1.72273,-0.001 -2.73549,-0.65244 -7.5488,-4.85297 -0.98718,-0.8615 -1.855,-1.50624 -1.92849,-1.43275 -0.0735,0.0735 -0.54404,1.68947 -1.04566,3.59105 -1.46872,5.5677 -2.31347,7.06663 -4.15051,7.36474 -1.35949,0.22062 -2.6126,-0.55996 -5.58877,-3.48132 -1.43113,-1.40477 -2.62429,-2.51459 -2.65146,-2.46626 -0.0272,0.0483 -0.31648,1.15944 -0.64291,2.46913 -0.70467,2.82726 -2.02592,5.73001 -3.23487,7.10693 -1.30039,1.48107 -2.55548,2.02119 -4.69664,2.02119 -1.56479,0 -2.09581,-0.13922 -3.91315,-1.02593 -1.15647,-0.56426 -3.28306,-1.81442 -4.72576,-2.77813 -1.4427,-0.9637 -2.6577,-1.75219 -2.69999,-1.75219 -0.0423,0 -0.15285,0.44649 -0.24567,0.99219 -0.40617,2.38778 -1.49224,6.26658 -2.07631,7.41533 -1.2895,2.53621 -3.35032,3.12206 -5.84869,1.66266 -0.7276,-0.42502 -2.45401,-1.67193 -3.83645,-2.77091 -1.38245,-1.09898 -2.5814,-2.00027 -2.66434,-2.00287 -0.0829,-0.003 -0.2957,1.08368 -0.47282,2.41395 -0.37964,2.85146 -1.15683,5.32267 -2.04026,6.48738 -0.35278,0.4651 -1.16264,1.03805 -1.82466,1.29088 -1.57124,0.60006 -1.91133,0.44817 -6.29916,-2.81324 l -3.49981,-2.60135 -0.45266,3.19878 c -0.78193,5.52552 -1.85947,7.83905 -3.9416301,8.46288 -1.29939,0.38931 -2.05592,0.0744 -4.33727,-1.8056 -0.87295,-0.71935 -2.3787,-1.85401 -3.3461,-2.52146 l -1.75891999,-1.21354 -0.17067,1.49361 c -0.71973001,6.29884 -1.92204001,8.50506 -4.63498001,8.50506 -1.18602,0 -1.59787,-0.20045 -4.9517299,-2.41007 -2.01196,-1.32554 -3.98281,-2.71443 -4.37966,-3.08641 -0.68095,-0.63827 -0.78343,-0.65778 -1.82141,-0.3468 l -1.09986,0.32953 0.16502,1.57884 c 0.29394,2.81229 -0.58703,7.38677 -1.96846,10.22136 -1.84667,3.78921 -4.35058,3.92142 -10.7867,0.56956 -1.65208,-0.86039 -3.03734,-1.56434 -3.07837,-1.56434 -0.041,0 -0.15421,0.63731 -0.25153,1.41626 -0.48034,3.84453 -2.02257,6.71186 -4.02044,7.47485 -2.19265,0.83738 -4.58654,-0.21037 -9.53042,-4.17125 -0.21657,-0.17352 -0.46935,0.24807 -0.86926,1.4498 -0.66204,1.98945 -2.04441,3.72702 -3.29294,4.13908 -1.67234,0.55192 -3.80583,-0.32646 -7.49475,-3.08566 -0.83655,-0.62572 -1.59635,-1.13767 -1.68843,-1.13767 -0.0921,0 -0.2291,0.76845 -0.30449,1.70766 -0.2532,3.15439 -1.84127,4.56236 -4.380056,3.88334 -1.354805,-0.36235 -3.986837,-2.13507 -6.04768,-4.07321 -0.750331,-0.70565 -1.413174,-1.187 -1.472985,-1.06967 -0.05981,0.11734 -0.139228,0.65508 -0.17648,1.19499 -0.06127,0.88803 0.07562,1.11512 1.435432,2.38125 3.604563,3.35622 7.588589,5.4095 11.641889,5.99998 2.55437,0.37211 8.06937,0.32437 11.28793,-0.0977 z m -14.8608,-7.54795 c 0.097,-0.36523 0.26349,-2.07884 0.36997,-3.80803 l 0.19361,-3.14398 -1.01362,0.14854 c -0.55749,0.0817 -2.382844,0.3469 -4.056333,0.58934 -4.875462,0.70631 -4.560326,0.44463 -2.754335,2.28714 1.664602,1.69827 4.137164,3.71267 5.334926,4.34637 1.001912,0.53007 1.714842,0.37482 1.925782,-0.41938 z m 12.48373,-1.99903 c 0.95543,-1.78277 1.53073,-4.08616 1.53073,-6.12881 0,-1.59756 -0.0256,-1.66303 -0.59531,-1.52452 -0.32743,0.0796 -2.79797,0.59655 -5.49011,1.14879 -4.88008,1.00104 -4.89505,1.00628 -4.98138,1.7422 -0.0953,0.81233 0.20205,1.12373 3.52617,3.69281 3.85154,2.9767 4.88886,3.1613 6.0099,1.06953 z m 12.98899,-0.32316 c 0.83425,-0.92183 1.4919,-2.905 2.15634,-6.50252 0.37009,-2.00384 0.6729,-3.79615 0.6729,-3.98291 0,-0.25195 -0.56316,-0.17404 -2.18281,0.30198 -1.20055,0.35285 -3.84969,1.02515 -5.88698,1.494 l -3.70417,0.85246 -0.0773,1.58373 -0.0773,1.58373 2.47462,2.0154 c 1.36105,1.10847 2.8841,2.26502 3.38457,2.57012 1.12819,0.68777 2.65779,0.72743 3.24008,0.084 z m -37.06572,-2.34537 c -0.112713,-0.58962 -0.227082,-0.65368 -0.919744,-0.51514 -0.435063,0.087 -0.954735,0.1582 -1.154827,0.1582 -0.574767,0 -0.438271,0.306 0.760369,1.70459 l 1.120754,1.30771 0.161083,-0.99101 c 0.0886,-0.54505 0.10316,-1.29401 0.03236,-1.66435 z m 52.53621,-2.80795 c 0.70967,-0.7554 1.32272,-2.19558 1.94128,-4.56045 0.57679,-2.2052 0.88286,-5.42179 0.56052,-5.89069 -0.17654,-0.25681 -0.99348,-0.0327 -3.5193,0.96559 -1.80916,0.71502 -4.67748,1.74268 -6.37405,2.28368 l -3.08468,0.98364 -0.0937,1.17815 -0.0937,1.17815 2.33599,1.31684 c 3.05007,1.71938 6.22825,3.12654 7.08351,3.13627 0.37481,0.004 0.93468,-0.26177 1.24414,-0.59118 z m -50.176727,-0.73333 c 10.292127,-1.36323 34.428467,-6.39427 38.346787,-7.99311 l 0.85158,-0.34748 -0.055,-2.50099 c -0.0302,-1.37554 -0.0872,-2.53321 -0.12657,-2.57259 -0.0394,-0.0394 -0.77576,0.171 -1.63638,0.46753 -4.6248,1.59346 -22.04737,6.20311 -35.361624,9.35596 -8.12678,1.92444 -9.197929,2.27432 -9.197929,3.00444 0,1.29853 1.114371,1.38953 7.179106,0.58624 z m 68.0666969,-8.52347 c 0.63871,-0.99819 2.02854,-8.40052 1.57725,-8.40052 -0.17195,0 -9.9289299,3.95569 -10.0810999,4.08709 -0.13839,0.11951 7.4488299,4.90874 7.7765599,4.90874 0.1905,0 0.51778,-0.26789 0.72729,-0.59531 z m -23.0791499,-1.5106 c 6.20598,-2.14709 6.9837,-2.5128 6.87391,-3.23238 -0.0516,-0.33816 -0.11112,-1.59568 -0.13229,-2.79448 -0.045,-2.54675 0.44201,-2.48015 -4.27182,-0.58422 -1.74625,0.70236 -3.88937,1.53996 -4.7625,1.86133 -0.87312,0.32137 -1.67497,0.71545 -1.78188,0.87572 -0.33227,0.49809 -0.14551,5.18619 0.20659,5.18619 0.0414,0 1.78199,-0.59047 3.86799,-1.31216 z m 36.9274399,-4.02102 c 0.47841,-1.2057 1.6577201,-7.12742 1.6579301,-8.32499 5e-5,-0.27527 -10.17970009,3.66319 -10.67298009,4.12928 -0.1221,0.11537 0.94945999,1.02227 2.38124999,2.01534 1.43178,0.99307 3.18627,2.2618 3.89885,2.8194 0.71259,0.55761 1.48649,0.97707 1.71978,0.93214 0.23393,-0.045 0.68923,-0.7497 1.01517,-1.57117 z m -22.9655599,-1.41369 c 2.61992,-1.09141 4.8200999,-1.98438 4.8892799,-1.98438 0.0692,0 1.01695,-0.40612 2.10616,-0.90248 l 1.98037,-0.90249 -0.76598,-1.94178 c -0.42129,-1.06799 -0.77008,-2.20968 -0.77509,-2.5371 -0.005,-0.32742 -0.0712,-0.59531 -0.14704,-0.59531 -0.0759,0 -2.725,1.05715 -5.8869799,2.34923 -3.16198,1.29207 -6.00906,2.42869 -6.32685,2.52581 -0.46812,0.14306 -0.612,0.4502 -0.75789,1.6179 -0.16386,1.31144 0.0167,3.66582 0.31874,4.15653 0.20908,0.33969 0.47594,0.25086 5.36528,-1.78593 z m -18.63231,-2.87182 c 0.72954,-0.33972 1.8011,-0.7725 2.38125,-0.96173 0.58015,-0.18923 1.65013,-0.61003 2.37773,-0.93511 0.72761,-0.32508 1.88847,-0.83694 2.57969,-1.13747 0.69122,-0.30052 1.25677,-0.59121 1.25677,-0.64597 0,-0.099 -2.80903,-4.41492 -2.9936,-4.59949 -0.0874,-0.0874 -2.22949,0.86328 -7.06056,3.13359 -0.94589,0.44451 -1.75243,0.83585 -1.79231,0.86964 -0.0399,0.0338 0.19295,1.14999 0.51742,2.48042 0.66593,2.73051 0.69129,2.74718 2.73361,1.79612 z m 55.15169,-0.68964 c 0.61387,-0.61387 1.1685,-2.43781 1.72338,-5.66747 0.63175,-3.67709 0.81335,-3.47674 -2.17599,-2.40065 -3.87667,1.39551 -7.57759,2.84089 -7.83944,3.06167 -0.12797,0.10789 0.33862,0.59153 1.03687,1.07475 0.69825,0.48321 2.23171,1.59295 3.40768,2.46607 2.96309,2.20002 3.07173,2.2414 3.8475,1.46563 z M 1.8280869,116.20857 c 1.75424,-0.74462 3.33483,-1.46476 3.51243,-1.60033 0.24907,-0.19012 0.212,-0.46739 -0.16217,-1.21277 -0.26678,-0.53146 -0.69603,-1.62113 -0.95388,-2.4215 -0.25785,-0.80036 -0.50322,-1.49574 -0.54527,-1.54529 -0.042,-0.0495 -1.00827,0.32748 -2.14714,0.83782 -1.13887999,0.51034 -3.05295,1.30367 -4.2535,1.76296 -1.20055,0.45928 -2.18281,0.94499 -2.18281,1.07936 0,0.55245 1.16877,3.60474 1.63535,4.27075 0.57917,0.82674 0.16782,0.92125 5.09699,-1.171 z m -20.4876499,-2.20934 c 1.5263,-0.66444 3.7276,-1.57709 4.89177,-2.02809 1.16416,-0.45101 2.24604,-0.94918 2.40418,-1.10703 0.50251,-0.50163 3.0197699,-6.84155 3.0197699,-7.60554 0,-0.1179 -0.56554,0.01 -1.25677,0.28333 -2.5226399,0.99902 -10.6035599,4.50612 -12.4223399,5.39126 -1.02768,0.50015 -2.18029,0.98761 -2.56136,1.08325 -0.38107,0.0956 -0.69286,0.29852 -0.69286,0.45083 0,0.83586 2.79207,4.74007 3.38983,4.74007 0.24898,0 1.70147,-0.54364 3.22778,-1.20808 z m 55.93731,0.0836 c 0.42913,-0.65496 2.09955,-6.28655 2.39364,-8.06979 0.11432,-0.6932 0.0846,-1.12448 -0.0776,-1.12448 -0.2285,0 -4.05016,1.27731 -9.82356,3.28332 l -1.70569,0.59266 2.6156,2.08231 c 3.34433,2.66244 5.08666,3.83129 5.71107,3.83129 0.27307,0 0.672,-0.26789 0.88652,-0.59531 z m -24.90001,-2.20718 c 2.50037,-0.95928 4.92079,-1.90057 5.3787,-2.09175 l 0.83257,-0.34759 -1.30888,-2.53846 c -0.71989,-1.39615 -1.33267,-2.53598 -1.36174,-2.53294 -0.0291,0.003 -2.37457,0.93531 -5.21223,2.07171 -4.8056801,1.92454 -5.1564901,2.11071 -5.1173501,2.7157 0.0697,1.07702 1.50032,4.46749 1.88511,4.46749 0.19672,0 2.40344,-0.78487 4.9038201,-1.74416 z m -42.52016,-1.93289 c 12.58521,-6.26308 27.3047499,-12.2593 40.9318,-16.67419 5.4045,-1.75094 16.69062,-4.92891 20.36076,-5.73322 1.85269,-0.40602 3.36852,-0.81526 3.36852,-0.90944 0,-0.45036 -4.76679,-5.83734 -8.32581,-9.40905 -7.49354,-7.52024 -13.40076,-11.552967 -20.8988201,-14.267153 -4.04661,-1.464813 -7.33321,-2.032905 -11.91807,-2.060049 -6.2052499,-0.03674 -9.4271399,0.636022 -14.0229199,2.928118 -3.06916,1.530712 -4.28005,2.375101 -6.69324,4.667387 -5.06506,4.811317 -7.6354,10.876947 -8.97386,21.177067 -0.84982,6.53975 -0.42686,22.89924 0.59203,22.89924 0.17462,0 2.68544,-1.17842 5.57961,-2.61871 z m 22.8569199,-0.63995 c 2.40506,-1.0871 7.67594001,-3.30706 11.50937,-4.84745 7.0109201,-2.81721 7.5408401,-3.05399 7.5352701,-3.36689 -0.003,-0.16552 -0.80662,-1.1742 -1.7859401,-2.2415 l -1.78058,-1.94055 -5.15937,1.8637 c -2.83765999,1.02504 -6.16063,2.25609 -7.38438,2.73567 l -2.22501,0.87196 -1.28072,3.68786 c -0.7044,2.02832 -1.28073,3.78807 -1.28073,3.91054 0,0.12248 0.20836,0.11526 0.46302,-0.016 0.25467,-0.1313 0.87974,-0.42709 1.38907,-0.6573 z m 62.6044201,-0.50544 c 1.04067,-0.80318 1.31854,-1.16452 2.19206,-2.85048 1.10612,-2.13492 2.78169,-7.9375 2.29206,-7.9375 -0.1706,0 -9.30857,2.9746 -14.03959,4.57017 -1.30968,0.4417 -2.48208,0.89153 -2.60533,0.99961 -0.23908,0.20966 1.54804,1.48945 4.98345,3.56873 3.80483,2.30287 5.75118,2.75018 7.17735,1.64947 z m -28.61238,-2.31278 c 3.18132,-1.15947 5.8946,-2.21852 6.02953,-2.35344 0.27408,-0.27408 -1.06615,-3.14942 -2.02419,-4.34269 l -0.58967,-0.73447 -3.95334,1.45051 c -5.67199,2.08111 -8.43758,3.12074 -8.54442,3.212 -0.0512,0.0438 0.47587,1.15882 1.17136,2.4779 0.80264,1.52229 1.42196,2.39832 1.69553,2.39832 0.23704,0 3.03388,-0.94866 6.2152,-2.10813 z m 11.42097,-3.97728 c 1.65316,-0.58209 4.40472,-1.54206 6.11459,-2.13328 4.35377,-1.50539 4.56406,-1.59558 4.56406,-1.95752 0,-0.17734 -0.8632,-1.24858 -1.91823,-2.38053 l -1.91823,-2.05809 -6.53367,2.17821 -6.53368,2.17821 0.81733,1.49118 c 1.63801,2.98854 2.08896,3.74015 2.24399,3.74015 0.087,0 1.51069,-0.47625 3.16384,-1.05833 z m 32.40366,0.33073 c 0.68374,-1.77259 2.63875,-8.59892 2.50186,-8.73581 -0.29506,-0.29505 -9.99347,2.61426 -10.13554,3.04045 -0.0439,0.1316 1.34154,1.63061 3.07868,3.33112 3.36954,3.29849 4.05699,3.6553 4.555,2.36424 z m -54.90549,-2.98372 c 0.85953,-0.29497 2.96176,-1.0828 4.67163,-1.75073 2.47349,-0.96622 3.10885,-1.31864 3.10885,-1.72441 0,-0.2805 0.19415,-1.2829 0.43144,-2.22755 0.23729,-0.94466 0.36406,-1.78493 0.28172,-1.86727 -0.0823,-0.0823 -0.72297,0.0269 -1.42362,0.24277 -0.70065,0.21587 -3.86352,1.15074 -7.02859,2.07748 -3.16507,0.92674 -5.7546801,1.78302 -5.7546801,1.90283 -3e-5,0.42779 3.3153601,3.87812 3.7288701,3.88063 0.23188,0.001 1.12485,-0.23877 1.98438,-0.53375 z m 70.37697,-1.76883 c 0.31367,-0.46546 0.7751,-1.4724 1.0254,-2.23765 0.56444,-1.72566 1.4458,-5.70757 1.29639,-5.85697 -0.14403,-0.14403 -7.33148,1.51491 -9.87361,2.27894 l -1.97303,0.59299 2.89907,2.32524 c 3.5465,2.84452 5.13997,3.92004 5.65959,3.81997 0.21773,-0.0419 0.65252,-0.45707 0.96619,-0.92252 z m -30.23483,-1.63773 c 2.59198,-0.85682 4.78282,-1.62799 4.86854,-1.7137 0.19724,-0.19725 -2.80563,-4.13858 -3.29673,-4.32704 -0.20074,-0.077 -2.66533,0.55482 -5.47689,1.40411 l -5.11191,1.54417 2.13402,2.32704 c 1.17371,1.27988 2.14218,2.3262 2.15215,2.32516 0.01,-10e-4 2.13883,-0.70292 4.73082,-1.55974 z m -20.01073,-3.82164 2.42906,-0.83444 -0.93305,-1.25677 c -0.62648,-0.84383 -1.12668,-1.25677 -1.52234,-1.25677 -0.55159,0 -7.25432,1.5858 -9.02635,2.13554 -0.739,0.22927 -0.82916,0.39168 -1.13477,2.04411 -0.18259,0.98728 -0.39676,2.04274 -0.47592,2.34548 -0.13211,0.50518 0.20038,0.43152 4.04519,-0.89614 2.30402,-0.79561 5.2822,-1.82206 6.61818,-2.28101 z m 33.42199,-0.3461 c 3.12869,-0.92902 5.84482,-1.7455 6.03582,-1.81439 0.25727,-0.0928 0.13438,-0.52008 -0.47413,-1.64856 -0.45179,-0.83782 -1.05564,-1.80573 -1.34189,-2.15091 l -0.52047,-0.62761 -4.82623,1.23028 c -6.18387,1.57636 -8.73032,2.25333 -8.82243,2.34544 -0.0405,0.0405 0.71879,1.11544 1.68722,2.38884 1.27595,1.67775 1.87269,2.26719 2.16717,2.14066 0.22352,-0.096 2.96624,-0.93472 6.09494,-1.86375 z m 27.16053,0.0194 c 0.16793,-0.71581 0.31704,-1.77772 0.33135,-2.3598 l 0.026,-1.05833 -2.05113,0.086 c -1.12813,0.0473 -2.14619,0.17808 -2.26235,0.29058 -0.2885,0.27941 2.9335,4.58073 3.33229,4.44856 0.17518,-0.0581 0.4559,-0.69123 0.62383,-1.40704 z m -14.46592,-3.6698 c 3.85755,-0.95229 6.86893,-1.50352 11.63154,-2.12915 1.72777,-0.22696 3.1173,-0.53955 3.2371,-0.72821 0.49616,-0.7814 0.0582,-3.23888 -0.65845,-3.69456 -0.48722,-0.3098 -2.10648,-0.24555 -5.17502,0.20531 -3.7278,0.54774 -14.19284,2.64071 -15.84257,3.16847 -0.21637,0.0692 0.13859,0.84458 1.02793,2.24538 1.00911,1.58944 1.46692,2.09802 1.78032,1.97775 0.23204,-0.089 2.03165,-0.55928 3.99915,-1.04499 z"
       id="path1" /></g></svg>
