<?xml version="1.0" encoding="UTF-8" standalone="no"?>
<!-- Created with Inkscape (http://www.inkscape.org/) -->

<svg
   width="202.81941mm"
   height="153.07095mm"
   viewBox="0 0 202.81946 153.07094"
   version="1.1"
   id="svg1"
   xml:space="preserve"
   xmlns="http://www.w3.org/2000/svg"
   xmlns:svg="http://www.w3.org/2000/svg"><defs
     id="defs1" /><g
     id="layer1"
     transform="translate(-8.0937862,-110.21789)"><path
       style="fill:#000000"
       d="m 90.002313,263.03661 c -6.19635,-0.91197 -12.06584,-6.75282 -14.55622,-14.48519 -0.45812,-1.42243 -0.73208,-1.90243 -1.08581,-1.90243 -0.2602,0 -1.49563,0.29632 -2.7454,0.65849 -4.93297,1.42951 -8.20433,1.8318 -14.9336,1.83641 -5.32188,0.004 -6.69421,-0.082 -9.525,-0.59482 -6.23021,-1.12852 -12.48542,-3.67484 -17.33699,-7.05739 -4.96157,-3.45923 -10.80413,-9.85482 -13.24364,-14.49723 -0.52352,-0.99626 -1.09009,-1.85037 -1.25905,-1.89803 -0.16896,-0.0477 -0.98044,-0.22444 -1.8033,-0.39286 -4.1115999,-0.84156 -6.2759999,-4.54539 -5.1017499,-8.73039 0.37992,-1.35399 0.73819,-1.94641 1.8915799,-3.12779 l 1.42289,-1.45741 -0.1738,-2.80855 c -0.39642,-6.40598 1.1242,-13.8823 3.99855,-19.65925 1.79717,-3.61203 3.69445,-6.19848 6.85354,-9.34306 3.12379,-3.10944 6.02457,-5.20234 10.2745,-7.413 2.91046,-1.51391 2.76395,-1.22572 2.82226,-5.55158 0.138,-10.23691 3.81877,-21.95758 9.67657,-30.81308 0.93861,-1.41894 2.31096,-3.34132 3.04966,-4.27195 1.84774,-2.32781 6.58719,-7.09756 8.98315,-9.04059 14.21048,-11.5241 34.07523,-15.31086 51.050097,-9.73154 7.09276,2.33126 12.77355,5.73534 18.07344,10.8301 l 2.31626,2.2266 1.38791,-0.88305 c 7.03534,-4.47623 14.22212,-6.35028 22.95145,-5.98491 5.58165,0.23363 9.52736,1.16383 14.2092,3.34983 8.42123,3.93196 15.7515,12.3652 18.88965,21.73195 1.71589,5.12161 1.89997,6.38922 1.96808,13.55278 l 0.0625,6.57656 1.81876,0.98688 c 9.25805,5.02354 15.48328,12.46131 18.75502,22.4081 1.84418,5.60671 2.64523,12.91252 1.99955,18.23641 -1.33157,10.97936 -6.39694,20.97966 -14.5526,28.73047 -8.10844,7.70592 -18.82293,12.5447 -30.43622,13.74532 -2.88595,0.29836 -10.68511,0.1964 -14.71769,-0.19241 l -1.60685,-0.15493 -0.48262,1.28519 c -2.05195,5.46417 -5.99641,10.32895 -10.02939,12.36945 -0.75644,0.38273 -2.42531,0.95507 -3.70858,1.27188 -2.11279,0.52158 -2.55534,0.54797 -4.68399,0.27928 -2.98128,-0.3763 -5.19911,-1.43206 -7.31273,-3.48109 -2.47896,-2.4032 -3.88499,-5.00249 -4.80874,-8.88975 -0.29853,-1.25628 -0.56466,-1.85006 -0.82727,-1.84579 -0.21293,0.003 -2.83131,0.10635 -5.81861,0.22864 l -5.43145,0.22234 -0.45396,1.99741 c -0.71771,3.15795 -2.11565,5.69313 -4.42104,8.01765 -3.328027,3.35563 -6.524217,4.3837 -11.398347,3.66633 z m 5.32014,-5.19124 c 3.8243,-1.81479 6.265797,-5.8616 6.440087,-10.67446 0.0992,-2.73883 0.32205,-2.90194 3.97381,-2.90823 3.99412,-0.007 11.57486,-0.44347 13.86224,-0.79837 2.14767,-0.33322 2.826,-0.12146 3.26076,1.01795 0.19444,0.50957 0.1781,0.9953 -0.0575,1.71135 -0.27332,0.83057 -0.2563,1.33497 0.10055,2.97938 1.40869,6.49143 5.63695,10.04323 11.38259,9.56154 5.7297,-0.48036 10.43388,-6.2735 11.16499,-13.74953 0.13036,-1.33297 0.31931,-1.93011 0.73256,-2.31511 0.66372,-0.61835 0.57241,-0.61573 4.47774,-0.12856 12.09009,1.50818 21.44129,0.29073 30.27071,-3.94097 9.32886,-4.47108 16.68816,-11.77782 21.00465,-20.85465 2.71148,-5.70176 3.86367,-11.40286 3.62325,-17.92797 -0.21972,-5.96332 -1.31625,-10.49729 -3.67936,-15.21354 -3.6542,-7.29299 -10.3337,-13.55204 -16.95346,-15.88631 -2.92882,-1.03277 -3.26024,-1.67064 -2.37871,-4.57818 0.73995,-2.44054 0.65838,-10.15221 -0.1472,-13.91703 -1.53846,-7.18988 -4.47833,-12.66209 -9.36124,-17.42482 -5.7361,-5.59492 -12.02546,-8.31994 -20.3653,-8.82376 -4.74364,-0.28658 -10.63402,0.7814 -15.22393,2.76022 -2.01469,0.86858 -3.45961,1.74264 -8.51388,5.15026 -0.37659,0.25389 -0.88302,0.46225 -1.12541,0.46302 -0.24239,7.7e-4 -1.37348,-1.0784 -2.51354,-2.39815 -3.19937,-3.70364 -7.23258,-6.86947 -12.03739,-9.44863 -11.33179,-6.08274 -25.977437,-6.8096 -38.952857,-1.93321 -6.51671,2.44909 -11.64864,5.75623 -17.04825,10.9863 -5.3051,5.13854 -8.19929,9.0474 -11.17895,15.09821 -3.85858,7.83561 -5.9399,17.25856 -5.76518,26.10114 0.072,3.64307 -0.0119,3.8105 -2.37304,4.73945 -2.03432,0.80035 -5.116,2.46831 -7.14147,3.86533 -0.91973,0.63436 -1.78588,1.08314 -1.92479,0.99729 -0.1389,-0.0859 -0.22193,-0.0579 -0.1845,0.062 0.0374,0.11996 -1.01037,1.28967 -2.32843,2.59936 -6.4486,6.40764 -9.63276,14.46025 -9.63276,24.3609 v 2.67895 l 2.57969,0.1737 c 1.41882,0.0955 2.79852,0.20282 3.06598,0.23841 0.37663,0.0501 0.62538,-0.3156 1.103,-1.62161 1.56445,-4.27784 5.18856,-7.39369 10.05237,-8.64259 2.40144,-0.61663 6.76914,-0.6295 9.12812,-0.0269 2.87263,0.73382 5.32052,2.09296 6.96116,3.86504 1.89744,2.04947 2.63078,3.90171 2.64838,6.6892 l 0.0129,2.05052 h 0.95376 c 0.52457,0 5.71162,0.47067 11.52678,1.04594 22.49722,2.22553 32.75157,3.17439 32.89163,3.04354 0.0515,-0.0481 -0.69277,-0.82308 -1.65391,-1.72218 -4.55449,-4.2605 -6.9509,-11.50486 -6.73493,-20.3597 0.0823,-3.37494 0.16402,-3.99077 0.59223,-4.46394 0.87813,-0.97032 1.38625,-0.93692 3.09388,0.2034 0.88019,0.58776 2.02036,1.14746 2.53373,1.24377 0.51336,0.0963 2.85954,0.0407 5.213737,-0.12349 4.90524,-0.34218 10.43426,-0.36386 14.45644,-0.0567 2.76454,0.21113 2.78266,0.20864 3.70417,-0.50779 1.37725,-1.07074 2.33857,-1.49912 4.1748,-1.86038 2.32477,-0.45737 4.30064,-0.0137 6.14045,1.37879 0.75968,0.57498 1.41231,1.00815 1.45028,0.96259 0.038,-0.0456 0.22118,-0.38048 0.40712,-0.74428 0.18595,-0.36381 0.74148,-1.27456 1.23452,-2.0239 l 0.89644,-1.36244 -0.92727,-1.53932 c -3.14759,-5.22513 -1.16278,-11.90627 4.29764,-14.46642 1.45868,-0.68391 2.10115,-0.83123 3.62498,-0.83123 4.37018,0 8.25378,3.4421 9.13677,8.09805 0.2604,1.37311 0.2073,2.12995 -0.31766,4.52721 -0.20367,0.93007 -0.19392,1.46638 0.0368,2.02335 0.25642,0.61905 0.23741,0.9058 -0.10381,1.56564 -0.56304,1.08881 -0.55836,1.09782 0.57447,1.10445 1.06007,0.006 3.04468,0.79293 3.85985,1.53009 0.90724,0.82042 1.49796,2.34463 1.49796,3.86514 v 1.45336 l 1.14886,0.5082 c 1.61786,0.71565 2.81989,2.59742 2.81989,4.4145 0,0.63192 0.15855,0.98914 0.52643,1.18602 0.28954,0.15495 0.71434,0.64511 0.944,1.08924 0.389,0.75223 0.37032,1.07313 -0.27284,4.68851 -0.37974,2.13455 -0.80454,4.45241 -0.94401,5.1508 -0.45257,2.26625 -0.36179,2.62873 0.92846,3.70724 2.64065,2.20732 3.73252,4.88812 3.51865,8.63911 -0.1415,2.48168 -0.64064,3.78463 -1.98938,5.19308 -1.29051,1.34762 -3.85036,2.7333 -6.10069,3.30236 -2.01935,0.51065 -2.79854,0.52843 -19.66341,0.44873 -19.36999,-0.0915 -18.72343,-0.0375 -21.49865,-1.79782 l -1.29206,-0.81957 -8.7621,-0.24229 c -4.819157,-0.13325 -11.262417,-0.36208 -14.318347,-0.5085 -3.05594,-0.14642 -9.00906,-0.39094 -13.22917,-0.54338 -7.51866,-0.2716 -16.83808,-0.79452 -23.41562,-1.31387 -1.81901,-0.14362 -6.9387,-0.50242 -11.37709,-0.79732 -8.81588,-0.58577 -17.29172,-1.26141 -18.85156,-1.50274 -1.39778,-0.21625 -1.30169,0.16337 0.72475,2.86345 7.14545,9.52076 16.56333,14.52391 29.34321,15.58826 6.79911,0.56625 15.0572,-0.69343 21.94922,-3.34812 2.83585,-1.09232 3.57975,-1.1261 4.50143,-0.20442 0.89415,0.89414 0.94549,2.35546 0.11964,3.40536 -0.55483,0.70535 -0.56578,0.83086 -0.27432,3.14453 0.50225,3.98699 2.78706,7.91399 5.81771,9.99913 2.92744,2.01413 6.93846,2.34244 10.12776,0.82899 z m -25.93259,-69.98225 -3.82788,-1.93601 -0.6645,-1.5875 c -0.55126,-1.31696 -0.66464,-2.01585 -0.66532,-4.10104 -7.9e-4,-2.41687 0.0391,-2.58861 1.03718,-4.46556 2.462,-4.62992 7.51364,-6.42234 11.87731,-4.21429 1.40464,0.71076 3.40262,2.59736 3.22923,3.04922 -0.0773,0.20155 -0.0272,0.29633 0.11151,0.21062 0.13867,-0.0857 0.58379,0.47366 0.98916,1.24303 0.67686,1.28467 0.73702,1.63643 0.73702,4.30927 0,2.67907 -0.0591,3.02268 -0.74379,4.32264 -1.50932,2.86568 -4.06156,4.71112 -6.88284,4.97673 -1.2876,0.12122 -1.59734,0.0135 -5.19708,-1.80711 z m 5.37945,-7.46019 c 1.37069,-0.57271 2.02047,-1.59489 2.01931,-3.1766 -0.002,-2.51717 -1.60123,-4.05337 -3.94506,-3.78919 -0.98739,0.11129 -1.37226,0.32145 -2.07282,1.13188 -0.7502,0.86786 -0.86029,1.18519 -0.86029,2.47976 0,1.6669 0.39901,2.4276 1.68452,3.21147 0.98146,0.59847 1.97645,0.64319 3.17434,0.14268 z M 154.51929,229.316 c 2.83648,-0.66875 4.68323,-1.93363 5.33265,-3.65247 0.37188,-0.98424 0.35885,-3.57813 -0.0236,-4.70579 -0.3619,-1.06698 -1.21775,-2.35459 -1.56505,-2.35459 -0.13561,0 -0.24657,0.24404 -0.24657,0.54231 0,1.56613 -1.75629,3.11391 -4.54248,4.00319 -2.21325,0.70641 -9.02095,0.931 -22.7096,0.74918 l -10.18646,-0.1353 -1.30916,-0.66146 c -1.60439,-0.81062 -2.26007,-1.67132 -2.43617,-3.19791 -0.20929,-1.81437 -0.28246,-1.95454 -0.79782,-1.52824 -0.23972,0.19829 -0.71339,0.95584 -1.05262,1.68344 -0.5015,1.07568 -0.61717,1.76795 -0.61894,3.70417 -0.003,3.59033 0.81313,4.74619 3.94973,5.59202 1.93072,0.52064 33.97903,0.48652 36.20612,-0.0386 z m -43.40394,-5.10027 c 0.0451,-1.97317 -0.0277,-2.75028 -0.26459,-2.82534 -0.17972,-0.0569 -2.58555,-0.23539 -5.34627,-0.39654 -5.621337,-0.32814 -16.517827,-1.31103 -36.916957,-3.33 -3.71078,-0.36727 -8.83047,-0.84213 -11.37708,-1.05525 -2.54662,-0.21312 -5.02598,-0.42397 -5.50971,-0.46855 -0.80179,-0.0739 -0.96202,0.0433 -1.81346,1.32603 -1.06392,1.60286 -3.64292,4.0399 -5.32264,5.02965 -0.62503,0.3683 -1.09634,0.70972 -1.04733,0.75873 0.0993,0.0993 14.98717,1.27679 21.36605,1.6899 6.40175,0.41458 25.20115,1.28918 34.39584,1.60019 4.583897,0.15504 8.751087,0.31925 9.260407,0.36489 0.50932,0.0456 1.28323,0.0706 1.71979,0.0555 l 0.79375,-0.0275 z m -83.802817,-2.08634 c 0,-0.0979 -0.67093,-0.83298 -1.49095,-1.63359 -1.57581,-1.53853 -2.63007,-3.45439 -2.95803,-5.37548 -0.18327,-1.07356 -0.25652,-1.15205 -1.2463,-1.33558 -2.18175,-0.40455 -5.7574,-0.31353 -6.93956,0.17665 -3.56395,1.4778 -3.96106,6.22791 -0.59432,7.10918 0.3638,0.0952 3.16177,0.35773 6.2177,0.58333 3.05594,0.2256 5.67532,0.45552 5.82084,0.51092 0.45402,0.17284 1.19062,0.15093 1.19062,-0.0354 z m 13.87703,-2.05379 c 1.1177,-0.4943 2.12421,-1.26655 3.56373,-2.7343 1.66275,-1.69534 2.10847,-2.3398 2.60411,-3.76523 1.3499,-3.88224 0.27288,-6.8166 -3.26235,-8.88838 -1.66992,-0.97864 -3.61601,-1.42363 -6.24176,-1.42723 -4.80663,-0.007 -8.92886,2.33891 -10.63276,6.04989 -0.78359,1.70662 -0.7866,4.9664 -0.006,6.66546 2.01945,4.39637 8.80403,6.38672 13.97518,4.09979 z m 81.108377,-3.28388 c 0,-2.16046 -0.0771,-5.01453 -0.17137,-6.34238 l -0.17137,-2.41427 -0.89368,-0.29495 c -0.49153,-0.16222 -1.24785,-0.59295 -1.68071,-0.95718 -0.9128,-0.76806 -0.90258,-0.83488 -0.40626,2.65813 0.20943,1.47389 0.51006,3.98948 0.66807,5.59021 0.52888,5.35793 0.46722,5.12263 1.41424,5.39659 0.46432,0.13433 0.93351,0.25496 1.04265,0.26809 0.10914,0.0131 0.19843,-1.74379 0.19843,-3.90424 z m 6.08542,-2.14533 v -6.07342 l -0.8599,-0.13275 c -0.47294,-0.073 -1.24684,-0.17684 -1.71979,-0.23074 l -0.85989,-0.098 v 6.30417 6.30418 h 1.71979 1.71979 z m 7.14375,0.42371 v -5.64971 l -2.02815,-0.17145 c -1.11548,-0.0943 -2.07126,-0.12832 -2.12395,-0.0756 -0.0702,0.0703 -0.14648,9.81929 -0.0887,11.34807 0.004,0.10914 0.96,0.19844 2.12416,0.19844 h 2.11667 z m 6.87055,-0.36955 -0.009,-6.01927 -0.95972,-0.45037 c -0.92023,-0.43183 -1.00859,-0.4281 -2.14763,0.0908 l -1.18791,0.54116 0.1708,3.34879 c 0.0939,1.84184 0.17128,4.50966 0.17187,5.92848 l 0.001,2.57969 h 1.98437 1.98438 z m 7.3508,5.85251 c 0.59412,-0.15922 0.59532,-0.17102 0.59532,-5.88851 v -5.72897 l -2.05052,0.0827 c -1.12779,0.0455 -2.26889,0.10733 -2.53578,0.13743 -0.45455,0.0513 -0.48323,0.40478 -0.45321,5.58598 0.0176,3.04219 0.0942,5.63179 0.17014,5.75469 0.15752,0.25487 3.37526,0.29755 4.27405,0.0567 z m 4.40119,-0.92578 c 0.5591,-0.25474 0.69873,-0.57653 0.9472,-2.18281 0.16029,-1.03621 0.65332,-4.06813 1.09563,-6.7376 0.44232,-2.66947 0.76475,-4.89304 0.71653,-4.94126 -0.0482,-0.0482 -0.94982,0.46083 -2.00354,1.13124 l -1.91586,1.21892 v 5.90515 c 0,3.566 0.0999,5.90515 0.25213,5.90515 0.13868,0 0.54723,-0.13445 0.90791,-0.29879 z m -44.46542,-3.41239 c 3.22262,-0.46592 6.52061,-2.5586 6.53503,-4.14668 0.004,-0.40761 -0.31389,-2.65373 -0.70575,-4.99139 l -0.71246,-4.2503 0.5771,-0.78058 c 0.50773,-0.68673 0.54795,-0.93667 0.33456,-2.07887 -0.1334,-0.71406 -0.20392,-1.42673 -0.1567,-1.58371 0.0472,-0.15698 0.15855,-1.0112 0.24741,-1.89828 l 0.16157,-1.61286 -3.86816,-0.15673 c -2.12748,-0.0862 -6.69238,-0.0456 -10.14422,0.0903 -5.291237,0.20822 -6.514387,0.1849 -7.794937,-0.14864 -0.83538,-0.21759 -1.59043,-0.39562 -1.6779,-0.39562 -0.27055,0 0.14001,5.57215 0.5751,7.80521 0.91766,4.70987 2.30118,7.77983 4.62621,10.26529 1.87436,2.00369 4.058537,3.25184 6.562417,3.75007 2.21431,0.44061 3.15331,0.46354 5.44073,0.13283 z m 26.90121,-10.05679 c 0.94589,-0.14862 2.25558,-0.54326 2.91042,-0.87698 l 1.19062,-0.60677 1.32292,0.66033 c 1.76414,0.88057 5.79311,1.108 8.29117,0.46802 3.38377,-0.86688 5.59946,-3.06031 5.59946,-5.54321 0,-1.85147 -0.75236,-2.56522 -2.77813,-2.63557 l -1.5875,-0.0551 0.0391,-0.92604 c 0.0215,-0.50932 0.12698,-1.66637 0.23442,-2.57122 0.2411,-2.03062 -0.17355,-2.81494 -1.7356,-3.28294 -0.8258,-0.24741 -1.44888,-0.2495 -2.75301,-0.009 -2.30629,0.42495 -2.60557,0.27313 -2.46686,-1.25139 0.061,-0.67079 0.33363,-1.78091 0.60576,-2.46693 0.27214,-0.68602 0.41588,-1.32622 0.31943,-1.42267 -0.36604,-0.36604 -2.34316,-0.55352 -3.65326,-0.34642 -3.32177,0.5251 -6.46833,2.85353 -7.81575,5.78359 -1.40037,3.04524 -1.44888,3.1103 -2.84544,3.81689 -0.75219,0.38058 -1.50686,0.69196 -1.67706,0.69196 -0.17019,0 -0.64723,-0.50296 -1.06008,-1.11769 -1.14293,-1.70178 -2.237,-2.3219 -4.0965,-2.3219 -3.58475,0 -6.03575,2.71396 -6.03575,6.6833 0,0.87433 0.1359,2.04328 0.302,2.59768 0.9443,3.1518 4.81274,5.01802 7.72834,3.72831 l 1.23846,-0.54782 1.28594,0.64589 c 2.07852,1.04398 4.60193,1.35137 7.43692,0.90592 z m 5.27535,-25.87382 c 3.09879,-1.6619 2.03015,-6.54786 -1.4964,-6.84177 -1.51841,-0.12655 -2.35525,0.26377 -3.17569,1.48123 -0.71755,1.06477 -0.80223,2.83119 -0.19688,4.10687 0.75298,1.58679 3.11421,2.19476 4.86897,1.25367 z"
       id="path1" /></g></svg>
