<?xml version="1.0" encoding="UTF-8" standalone="no"?>
<!-- Created with Inkscape (http://www.inkscape.org/) -->

<svg
   width="175.41338mm"
   height="228.65526mm"
   viewBox="0 0 175.41339 228.65525"
   version="1.1"
   id="svg1"
   xml:space="preserve"
   xmlns="http://www.w3.org/2000/svg"
   xmlns:svg="http://www.w3.org/2000/svg"><defs
     id="defs1" /><g
     id="layer1"
     transform="translate(-641.71108,179.5025)"><path
       style="fill:#000000"
       d="M 697.42904,48.914904 C 680.1033,48.358352 671.40852,46.589036 664.79236,42.273616 661.432,40.081804 656.77695,35.398669 654.41123,31.829851 647.68546,21.683686 643.96957,7.6782529 642.17126,-14.30337 c -0.5434,-6.642275 -0.62429,-23.737531 -0.1421,-30.030207 1.3354,-17.427147 5.33991,-35.05538 11.41974,-50.27083 5.09381,-12.747813 11.47746,-21.937663 20.49834,-29.509243 3.42637,-2.87588 8.96394,-6.55755 12.10523,-8.04818 0.56141,-0.26641 0.99165,-0.66205 0.99165,-0.91191 0,-0.24274 -0.4762,-2.283 -1.05823,-4.53392 -0.58203,-2.25092 -1.24442,-5.52132 -1.47198,-7.26757 -0.22756,-1.74625 -0.64035,-4.07224 -0.91731,-5.16886 -0.27696,-1.09662 -1.40595,-6.51396 -2.50886,-12.03854 -2.19996,-11.01969 -2.61447,-14.51723 -1.88718,-15.92364 0.50871,-0.98375 0.71636,-1.13229 1.9819,-1.41772 1.54786,-0.34909 2.79623,0.40547 5.77531,3.49083 1.45907,1.51113 3.34341,3.52142 4.1874,4.4673 0.844,0.94589 2.45215,2.73183 3.57367,3.96875 1.12153,1.23693 2.51368,2.78474 3.09367,3.43959 0.58,0.65484 2.23415,2.50246 3.67589,4.10581 1.44174,1.60336 3.59182,4.04414 4.77797,5.42396 3.43536,3.9963 9.17663,10.70343 9.23637,10.79022 0.0301,0.0436 1.83484,-0.0568 4.01065,-0.22323 11.30591,-0.86479 27.05447,2.22596 37.7776,7.41409 9.26321,4.48178 17.59281,12.05696 23.99843,21.82489 10.78038,16.438976 15.11667,38.723235 13.15625,67.610078 -0.30381,4.476558 -1.85956,20.390423 -3.0263,30.956249 -0.55367,5.013874 -1.18764,13.5092709 -1.1877,15.91545792 l -6e-5,2.02483498 1.78594,-0.746832 c 4.76451,-1.99239198 10.37193,-2.054022 13.99145,-0.15377698 1.67234,0.87797698 2.50056,1.61230298 3.43168,3.04266198 1.57964,2.426574 0.64124,5.979119 -2.39295,9.0590761 -0.80866,0.820856 -1.47028,1.564997 -1.47028,1.653646 0,0.08865 0.92585,0.16118 2.05746,0.16118 2.96657,0 6.32595,0.475942 7.46654,1.057824 1.88562,0.961972 2.53686,3.54295 1.59686,6.328569 -1.62999,4.830331 -6.46573,8.719456 -13.36982,10.752628 -1.92588,0.567149 -3.1149,0.726848 -6.21771,0.835108 -2.21686,0.07735 -4.45079,0.01558 -5.29167,-0.146306 l -1.45521,-0.280164 -3.80951,2.550092 c -10.84393,7.258939 -20.20245,10.076746 -39.71444,11.957831 -12.25177,1.181151 -32.25397,1.609657 -49.41091,1.058527 z m 31.15466,-3.162559 c 24.05543,-0.749644 37.66078,-2.967333 48.44212,-7.896128 2.18972,-1.001051 4.26386,-2.202681 8.38041,-4.855097 4.45254,-2.868909 4.5107,-2.889134 6.94205,-2.414259 3.85222,0.75239 10.11109,-0.165531 13.6867,-2.007282 2.52617,-1.301197 3.47689,-1.968561 5.145,-3.611576 1.80239,-1.775271 2.5377,-3.027502 2.7691,-4.715799 0.14066,-1.026223 0.0881,-1.203178 -0.44179,-1.486755 -0.3308,-0.177039 -2.71896,-0.480023 -5.30702,-0.673298 -2.58806,-0.193275 -5.20826,-0.486771 -5.82267,-0.652213 -1.0473,-0.282009 -2.62099,-1.509725 -2.62099,-2.044771 0,-0.132047 0.54115,-0.628708 1.20256,-1.103694 3.12285,-2.242664 5.73587,-5.2770671 6.09635,-7.0794811 0.64583,-3.229158 -5.31669,-5.509425 -10.93964,-4.183681 -2.12751,0.50161 -4.46758,1.695145 -5.52669,2.818843 -1.16356,1.234522 -3.00005,3.930384 -3.02018,4.4334421 -0.0111,0.277745 -0.0953,0.224375 -0.24941,-0.158193 -1.0141,-2.5167051 -0.34518,-13.4613841 2.36609,-38.713272 1.88539,-17.559989 2.23686,-23.47637 2.05889,-34.657779 -0.18908,-11.878752 -0.89731,-17.850044 -3.20298,-27.005243 -2.7088,-10.755899 -6.6535,-19.080299 -13.09491,-27.633849 -1.82812,-2.42756 -7.8024,-8.2443 -10.61508,-10.33515 -3.01653,-2.24239 -2.93937,-2.193 -7.27604,-4.6575 -4.26509,-2.42382 -12.67721,-5.29262 -19.57916,-6.6771 -5.5026,-1.10379 -14.40167,-1.77227 -18.18825,-1.36627 -2.15345,0.23089 -2.21335,0.0166 1.12364,4.01881 4.5146,5.41453 5.11058,6.63319 5.09501,10.41825 -0.0421,10.2334 -4.86988,18.38011 -13.47059,22.73107 -2.91086,1.47256 -4.27244,1.85695 -7.23585,2.0428 -5.16671,0.32403 -8.84015,-1.61096 -11.15812,-5.87758 -0.67738,-1.24683 -1.81995,-5.2741 -2.20834,-7.78379 -0.10134,-0.65484 -0.75517,-2.91703 -1.45295,-5.02708 -0.69779,-2.11005 -1.54236,-5.05685 -1.87682,-6.54844 -0.33447,-1.49159 -0.74311,-2.71197 -0.9081,-2.71197 -0.39328,0 -4.19533,2.31097 -6.86963,4.17552 -6.76334,4.71547 -13.01787,11.18423 -17.15498,17.74255 -5.40365,8.566082 -10.47925,21.465388 -14.04341,35.690387 -1.77665,7.090861 -3.38731,16.954385 -4.24563,25.999865 -0.94961,10.007497 -0.78606,24.928753 0.40003,36.4961419 2.34303,22.8506181 6.98782,36.3285381 15.46483,44.8747351 6.28103,6.332296 12.40027,8.698928 25.66458,9.925831 7.24996,0.670597 28.25389,0.927151 41.67187,0.509005 z M 659.26831,-0.57573908 c -1.49796,-0.59766502 -1.95355,-1.51353502 -1.17877,-2.36965602 0.34942,-0.386104 0.74037,-0.435291 2.50078,-0.31463 7.42408,0.508857 16.31382,-4.592781 22.81045,-13.0904419 4.30734,-5.634045 6.04407,-10.331165 6.09103,-16.473735 0.0254,-3.326624 -0.35282,-4.837223 -1.49802,-5.982422 -1.08071,-1.080715 -2.29319,-1.315683 -4.89241,-0.948106 -3.01404,0.426241 -6.00505,1.462562 -11.00621,3.813416 -6.06645,2.85161 -9.51017,4.196742 -11.1907,4.371144 -1.78949,0.185709 -2.69992,-0.250176 -2.69992,-1.292642 0,-0.929714 0.65311,-1.372227 2.85958,-1.937498 2.72747,-0.698743 5.14771,-1.653677 9.53213,-3.761016 5.03005,-2.417651 6.04737,-2.827299 8.69604,-3.501662 5.82499,-1.483064 9.23203,-0.762073 11.39182,2.410717 1.21355,1.78274 1.6959,3.500748 1.84276,6.563485 0.3788,7.899744 -3.29914,15.861964 -10.75744,23.2883589 -4.59261,4.572967 -9.41098,7.477293 -14.67348,8.84460602 -2.75176,0.714968 -6.52865,0.898361 -7.82764,0.380082 z m 75.79768,-0.347639 C 731.736,-1.7860721 729.11686,-2.9446501 725.85597,-4.9974351 717.55629,-10.22222 711.02113,-18.448402 709.00429,-26.209619 c -0.84309,-3.244393 -1.02918,-8.786814 -0.38663,-11.515327 1.17027,-4.969375 4.72674,-7.422648 10.70562,-7.38479 5.06592,0.03208 8.38309,1.392964 20.90209,8.575181 3.70427,2.125165 6.30163,3.423334 8.20083,4.098805 2.24523,0.798544 2.91167,1.286916 2.91167,2.1337 0,0.933293 -0.63344,1.261118 -2.18322,1.12988 -1.81058,-0.153323 -4.54766,-1.393592 -10.38449,-4.705581 -11.65744,-6.614766 -16.08146,-8.375426 -20.48407,-8.15218 -4.43747,0.225014 -6.28374,2.032242 -6.87242,6.727097 -0.91402,7.28944 2.19879,14.985535 8.67169,21.439821 7.00318,6.9830329 14.52858,10.7566649 21.3784,10.7202439 2.96306,-0.01576 3.41044,0.184502 3.10762,1.391035 -0.2829,1.12717202 -1.32595,1.47294102 -4.39902,1.45827102 -1.96256,-0.0094 -3.39146,-0.185636 -5.10637,-0.629915 z M 696.9764,-51.468434 c -1.57775,-0.423458 -3.13231,-1.943948 -3.55912,-3.481129 -0.41309,-1.487752 -0.35171,-5.294176 0.11485,-7.121653 1.43169,-5.607842 6.02469,-9.940185 11.3252,-10.682493 2.14913,-0.300974 4.2246,-0.01977 5.96343,0.807984 2.64021,1.256854 6.74857,6.345788 8.01186,9.924132 1.06789,3.024839 0.22363,7.313412 -1.78732,9.079049 -1.41653,1.243728 -2.63073,1.484715 -5.61773,1.114968 -3.52385,-0.436202 -5.4402,-0.391221 -9.40516,0.220761 -1.87564,0.2895 -3.48299,0.518328 -3.57188,0.508506 -0.0889,-0.0098 -0.75225,-0.176378 -1.47413,-0.370125 z m 4.35522,-3.193245 c 2.46148,-0.586146 8.89958,-0.679142 11.19217,-0.161669 1.36134,0.307276 1.61094,0.296613 2.20756,-0.09431 1.12658,-0.738161 1.75111,-2.544538 1.64006,-4.743632 -0.0809,-1.601967 -0.24041,-2.140328 -1.01941,-3.440451 -0.50793,-0.847719 -1.44056,-2.121129 -2.07251,-2.8298 -1.03076,-1.155907 -1.2637,-1.288493 -2.26373,-1.288493 -3.67221,0 -9.14276,3.640406 -11.92791,7.9375 -1.63988,2.530084 -2.1215,4.254523 -1.39425,4.99209 0.36069,0.365815 0.67939,0.333294 3.63802,-0.371235 z m 42.99479,-13.507683 c -3.56416,-0.85011 -4.32619,-1.215806 -6.30825,-3.027297 -4.29211,-3.922748 -5.43458,-10.147769 -2.67228,-14.560554 2.05725,-3.286463 7.22375,-5.796262 11.24001,-5.460213 5.81247,0.486342 10.14924,4.776397 11.11397,10.994258 0.65366,4.212948 -0.91304,7.519945 -4.78956,10.109824 -2.03034,1.356452 -6.65556,2.40392 -8.58389,1.943982 z m -4.10104,-4.365231 c 0,-0.470774 -0.32444,-1.28319 -0.76604,-1.918229 -0.42133,-0.605872 -0.84104,-1.431885 -0.93269,-1.835582 -0.15181,-0.668627 -0.12205,-0.706145 0.33412,-0.421265 0.76379,0.476996 1.41544,0.101107 1.31618,-0.759202 -0.10373,-0.898969 -0.84109,-1.09455 -1.5979,-0.423833 -0.54772,0.485402 -0.54833,0.484281 -0.36856,-0.672682 0.17962,-1.156035 1.73252,-4.048861 2.87003,-5.346452 2.52845,-2.884286 7.65972,-3.724403 11.40619,-1.86748 0.88896,0.440608 1.67061,0.746788 1.737,0.680399 0.28154,-0.281546 -1.81882,-2.056458 -3.28271,-2.77405 -3.1941,-1.565735 -6.41744,-1.647396 -9.31192,-0.235909 -2.94694,1.437069 -4.74242,3.69119 -5.77823,7.254266 -0.83014,2.855586 -0.0759,5.667893 2.14636,8.002817 1.33253,1.400095 2.22817,1.527599 2.22817,0.317202 z m 10.25987,-7.268151 c 0.72091,-0.504941 0.80536,-2.084449 0.15016,-2.808435 -0.59173,-0.653851 -1.99583,-0.627616 -2.60792,0.04873 -1.53392,1.694967 0.58348,4.072504 2.45776,2.759708 z m -81.69737,10.835232 c -5.96971,-1.598822 -9.04594,-9.050931 -6.21044,-15.044685 0.80432,-1.700207 3.37387,-4.275103 5.21493,-5.225791 2.94208,-1.519231 6.42681,-1.640944 9.13287,-0.318989 4.04899,1.977998 6.78353,6.998036 6.31145,11.586488 -0.65499,6.366271 -7.76115,10.794081 -14.44881,9.002977 z m 0.0174,-1.965997 c 0.81255,-0.434861 0.60078,-1.179962 -0.56497,-1.987825 -1.03734,-0.718879 -1.83807,-1.836538 -1.82962,-2.553789 0.003,-0.272343 0.0511,-0.269661 0.23014,0.01289 0.41681,0.657701 1.21447,0.23581 1.30393,-0.689659 0.0724,-0.748685 0.003,-0.857729 -0.5424,-0.857729 -0.34392,0 -0.75873,0.133426 -0.92181,0.296502 -0.21894,0.218947 -0.34351,-0.01697 -0.47621,-0.90194 -0.16046,-1.069975 -0.0713,-1.392255 0.8314,-3.00649 1.39976,-2.503014 2.53397,-3.668231 4.47003,-4.592226 1.99789,-0.953505 4.02871,-1.048872 6.30987,-0.296313 1.6313,0.538171 1.95118,0.430805 1.33548,-0.448242 -0.70398,-1.00507 -2.63068,-1.925358 -4.60315,-2.198701 -5.57029,-0.771921 -10.47333,3.505735 -11.04834,9.639128 -0.27837,2.969258 1.36423,6.270106 3.69081,7.416761 1.03806,0.511608 1.15238,0.522167 1.81484,0.167629 z m 9.22382,-8.62533 c 0.30161,-0.383427 0.54837,-0.903152 0.54837,-1.154944 0,-0.749508 -1.03525,-1.852083 -1.73899,-1.852083 -1.51074,0 -2.21418,1.93274 -1.1253,3.091801 0.75898,0.807899 1.63909,0.775683 2.31592,-0.08477 z m 2.98849,-22.468901 c -0.82369,-0.57694 -0.74814,-1.66896 0.20668,-2.98705 0.89088,-1.22982 2.75466,-2.68649 3.43731,-2.68649 0.88385,0 1.40588,0.94447 1.25617,2.2727 -0.30044,2.66546 -3.13821,4.63495 -4.90016,3.40084 z m 51.13309,-0.22142 c -2.47616,-1.07893 -3.69092,-4.95724 -1.74605,-5.57452 1.13442,-0.36005 4.73256,2.247 5.28385,3.82846 0.58856,1.68833 -1.40839,2.6739 -3.5378,1.74606 z m -22.28787,-3.00303 c 2.93413,-1.01136 5.68685,-2.73515 7.95619,-4.98228 2.22217,-2.20042 3.17173,-3.56081 4.16248,-5.96342 1.51556,-3.67527 2.04038,-9.44984 1.16448,-12.81266 -0.41267,-1.58432 -2.23941,-4.31424 -4.0312,-6.02428 l -0.77845,-0.74293 -0.12339,3.41724 -0.1234,3.41724 -1.22049,2.48506 c -2.13882,4.35487 -4.62815,6.89192 -8.9952,9.16764 -2.25866,1.17702 -5.57029,2.28585 -7.60053,2.54488 -1.09873,0.14019 -4.00394,-0.28914 -5.09322,-0.75267 -0.59342,-0.25251 -0.58837,-0.17321 0.18243,2.86538 0.90413,3.56417 2.27084,6.08071 3.78398,6.96746 2.12503,1.24536 2.91654,1.42497 5.77022,1.30937 2.06409,-0.0836 3.17074,-0.28409 4.9461,-0.89603 z m -6.5468,-12.36745 c 3.04291,-0.63117 6.53139,-2.553 8.88149,-4.89288 3.25517,-3.24102 4.57925,-6.62479 4.5622,-11.65896 -0.007,-2.19 -0.12191,-3.04349 -0.53236,-3.96875 -0.55996,-1.26225 -2.7055,-4.00002 -5.48546,-6.99959 l -1.71649,-1.85208 -0.0143,1.5875 c -0.0496,5.49235 -3.06316,9.94091 -9.00234,13.28899 -2.3238,1.31 -4.2302,1.74863 -6.93071,1.59465 -1.28134,-0.0731 -2.3297,-0.0418 -2.3297,0.0694 0,0.66302 1.17206,5.76964 1.76013,7.66882 1.22179,3.94578 1.80052,4.56816 4.98674,5.36288 1.09087,0.27209 4.03212,0.17104 5.82083,-0.19999 z m -4.9484,-16.27846 c 2.2745,-0.74668 3.38148,-1.43104 5.25667,-3.2498 2.31214,-2.24257 3.297,-4.44256 3.47008,-7.75149 0.21983,-4.20275 -0.18094,-5.09895 -4.22788,-9.45425 l -2.46088,-2.64839 -0.18888,1.69079 c -0.21843,1.95532 -1.38261,4.46406 -2.73871,5.90178 -1.37953,1.46256 -6.08319,3.62762 -8.68338,3.99689 l -1.29221,0.18351 0.16516,1.58016 c 0.17661,1.68972 1.52245,7.03827 2.19221,8.71217 0.5192,1.29762 1.15364,1.52365 4.35055,1.54998 1.87196,0.0154 2.9605,-0.11847 4.15727,-0.51135 z m -7.11866,-13.75196 c 3.33167,-1.00211 6.12028,-3.4068 7.15748,-6.17209 0.51828,-1.38177 0.34341,-4.04178 -0.35602,-5.41552 -0.92012,-1.80723 -5.52814,-6.93652 -6.23158,-6.93652 -0.10802,0 -0.4155,0.48586 -0.68328,1.0797 -0.73609,1.63233 -2.58728,3.14168 -3.93022,3.20445 -1.75692,0.0821 -2.11119,0.0614 -2.77893,-0.16268 -0.62911,-0.21111 -0.63215,-0.20299 -0.45187,1.20643 0.42272,3.30484 2.78213,12.56746 3.41109,13.39137 0.36744,0.48132 1.866,0.40563 3.86333,-0.19514 z m -3.47868,-17.09288 c 1.15294,-0.67562 1.9197,-1.77464 1.9197,-2.75157 0,-1.16986 -1.23665,-2.89065 -4.13747,-5.75729 -1.65663,-1.6371 -3.17818,-2.97656 -3.38122,-2.97656 -0.46913,0 -0.79705,2.20541 -0.55985,3.76519 0.76096,5.0038 1.52317,7.69799 2.34507,8.28905 0.75223,0.54097 2.31859,0.30735 3.81377,-0.56882 z"
       id="path314" /></g></svg>
