<?xml version="1.0" encoding="UTF-8" standalone="no"?>
<!-- Created with Inkscape (http://www.inkscape.org/) -->

<svg
   width="207.39749mm"
   height="168.35277mm"
   viewBox="0 0 207.39752 168.35276"
   version="1.1"
   id="svg5"
   xml:space="preserve"
   xmlns="http://www.w3.org/2000/svg"
   xmlns:svg="http://www.w3.org/2000/svg"><defs
     id="defs2" /><g
     id="layer1"
     transform="translate(14.825968,90.24532)"><path
       style="fill:#000000;stroke-width:0.264583"
       d="m 92.955953,78.046693 c -0.29104,-0.07075 -2.4937,-0.54288 -4.89479,-1.049173 -11.82136,-2.492642 -13.57318,-3.051532 -14.53803,-4.638106 -0.27282,-0.448617 -0.57158,-1.218343 -0.66391,-1.710502 -0.0923,-0.492159 -0.27069,-0.894834 -0.39635,-0.894834 -0.35528,0 -13.0908,-2.342885 -15.05878,-2.77028 -0.96491,-0.209558 -4.85001,-0.989682 -8.63355,-1.733611 -3.78354,-0.743929 -9.31995,-1.886794 -12.30313,-2.539703 -7.6519,-1.674723 -16.44915,-3.635124 -20.6375,-4.598911 -1.96453,-0.452062 -4.07546,-0.918638 -4.69096,-1.036838 l -1.11909,-0.214908 -0.1693798,0.902877 c -0.24395,1.300401 -1.65156,2.201791 -3.43831,2.201791 -2.01036,0 -15.10139,-2.753857 -17.6834402,-3.719928 -1.68136,-0.629076 -2.96505,-1.837891 -3.34496,-3.149851 -0.18024,-0.622427 -0.24451,-11.957621 -0.19205,-33.876052 l 0.0788,-32.940624 0.73548,-1.497684 c 1.36895,-2.787618 3.26183,-3.989178 10.7738902,-6.839042 8.62606,-3.272481 20.6088598,-7.118125 29.2127398,-9.375259 l 4.20962,-1.104347 0.0376,-5.673084 c 0.0393,-5.922637 0.32947,-8.083783 1.75649,-13.081415 2.89272,-10.13071 8.18521,-18.522071 16.1231,-25.563554 4.07926,-3.618589 11.29297,-7.745391 17.05522,-9.756906 7.94771,-2.774421 18.36577,-4.120854 26.85521,-3.470773 14.339067,1.098016 24.806037,4.932392 34.279467,12.557635 11.36038,9.144058 17.84897,21.148709 17.89765,33.112764 0.0152,3.723082 -0.34007,6.720895 -1.10528,9.327877 l -0.48578,1.654961 0.56999,0.11653 c 0.31349,0.06409 1.1653,0.188577 1.89291,0.276633 0.7276,0.08806 4.12088,0.564951 7.54062,1.05977 3.41974,0.494818 8.42036,1.197009 11.1125,1.56042 8.48304,1.145129 19.37314,2.78403 21.33668,3.211057 2.54705,0.553926 4.37154,1.51054 5.6491,2.961926 1.61214,1.831488 1.8538,3.00361 1.8538,8.991361 0,4.467291 -0.0694,5.3256102 -0.54434,6.7355589 -0.53508,1.5883519 -0.54396,2.0488538 -0.52189,27.0481701 l 0.0225,25.432309 -0.78827,1.242981 c -1.03332,1.629376 -1.97801,2.086486 -9.14816,4.426548 -8.17458,2.667873 -9.76785,3.022518 -12.67653,2.821643 -2.72295,-0.18805 -5.01027,-1.054081 -5.31434,-2.012137 -0.1218,-0.383763 -0.33214,-0.533236 -0.62161,-0.441735 -0.24063,0.07606 -4.19353,1.443802 -8.78422,3.039419 -4.59068,1.595617 -14.19933,4.831876 -21.35253,7.191687 l -13.00584,4.290562 0.14697,0.734859 c 0.26739,1.336929 -0.58368,3.535741 -1.79055,4.626078 -1.57808,1.425702 -2.9339,1.946294 -13.42416,5.154438 -9.485097,2.900743 -10.839837,3.245879 -11.812607,3.009402 z m 0.19844,-13.385844 c 0.0779,-11.9196 -0.0712,-39.444192 -0.21444,-39.590883 -0.23952,-0.245245 -8.32809,-1.431872 -8.51142,-1.248658 -0.30558,0.305395 -0.41054,48.610017 -0.10628,48.914272 0.21729,0.217297 7.5084,1.967717 8.43526,2.025105 0.2581,0.01598 0.34526,-2.202066 0.39688,-10.099836 z m 6.58635,8.652467 3.610427,-1.203264 0.18193,-4.551423 c 0.22962,-5.744429 0.0715,-44.262181 -0.18275,-44.516215 -0.19914,-0.198969 -0.49892,-0.12473 -5.036587,1.24727 l -2.84427,0.859988 -0.0116,18.531892 c -0.006,10.192538 -0.0747,21.300092 -0.15185,24.683452 -0.13284,5.827058 -0.11479,6.151562 0.34203,6.151562 0.26525,0 2.10696,-0.541467 4.09269,-1.203262 z M 81.446583,71.47387 c 0,-0.5694 -0.11968,-0.661779 -0.8599,-0.663758 -0.47294,-0.0013 -1.48497,-0.07738 -2.24896,-0.169145 -0.91363,-0.109742 -1.38906,-0.07002 -1.38906,0.116051 0,0.330481 2.70904,1.29708 3.77031,1.345271 0.60854,0.02763 0.72761,-0.07521 0.72761,-0.628419 z m 28.068277,-1.087247 c 5.51204,-1.742816 7.1213,-2.757218 7.1213,-4.488937 0,-0.544203 -0.62833,-0.444624 -4.23333,0.670904 -1.38245,0.427784 -3.37675,1.033462 -4.43178,1.345951 l -1.91822,0.568161 v 1.429438 c 0,0.786191 0.0994,1.429438 0.22088,1.429438 0.12149,0 1.58001,-0.429731 3.24115,-0.954955 z M 81.446583,66.049911 c 0,-1.018645 -0.0298,-1.854345 -0.0661,-1.85711 -0.0364,-0.0028 -1.97114,-0.293571 -4.29948,-0.646237 -8.30317,-1.257654 -9.01893,-1.385085 -29.89791,-5.322916 -1.01865,-0.192119 -3.2213,-0.643395 -4.89479,-1.002834 -1.67349,-0.359439 -5.3049,-1.135618 -8.0698,-1.724843 -2.76489,-0.589224 -6.93208,-1.488426 -9.26041,-1.998231 -2.32834,-0.509802 -6.6666,-1.45927 -9.64059,-2.109928 -2.97399,-0.65066 -5.5040698,-1.123182 -5.6223998,-1.050051 -0.11832,0.07313 -0.21514,0.783333 -0.21514,1.578231 0,1.247619 0.0814,1.479783 0.5953198,1.697667 0.32742,0.138819 2.91703,0.744689 5.75468,1.346372 5.42277,1.149824 8.40232,1.79999 14.2875,3.117678 9.78082,2.189919 17.72225,3.834828 27.64896,5.726933 3.4925,0.665696 8.43359,1.612865 10.98021,2.104821 2.54661,0.491953 5.99942,1.092938 7.67291,1.335521 1.67349,0.242583 3.09232,0.489649 3.15296,0.549034 0.0606,0.05939 0.50711,0.107977 0.99218,0.107977 h 0.88195 z m 27.224707,-1.345038 c 1.3975,-0.448728 6.11279,-1.946349 10.47841,-3.328045 21.28678,-6.737149 59.23967,-19.799884 59.72563,-20.556545 0.10692,-0.166462 0.19621,-4.486878 0.19844,-9.600916 0.004,-8.312012 -0.0412,-9.315622 -0.42262,-9.461984 -0.3511,-0.134731 -0.36714,-0.235461 -0.0906,-0.568687 0.23173,-0.279223 0.25102,-0.490025 0.0621,-0.678929 -0.18891,-0.188907 -1.12606,0.02588 -3.01827,0.691793 -1.50936,0.531172 -3.33961,1.150551 -4.06721,1.376399 -3.67009,1.139195 -8.14988,2.544075 -9.92188,3.111542 -1.0914,0.349512 -3.59172,1.128528 -5.55625,1.731145 -5.75448,1.765178 -7.56882,2.329479 -11.90625,3.703114 -2.25557,0.714327 -6.42276,2.024676 -9.26041,2.911892 -2.83766,0.887215 -5.63563,1.776302 -6.21771,1.975747 -0.58208,0.199449 -2.48708,0.797058 -4.23333,1.328026 -1.74625,0.530968 -3.59172,1.128956 -4.10104,1.328862 -0.50933,0.199908 -1.2237,0.43738 -1.5875,0.527717 -0.36381,0.09034 -0.89959,0.265739 -1.19063,0.389781 -0.29104,0.124042 -2.13651,0.757137 -4.10104,1.406882 -6.4818,2.143773 -7.01146,2.378718 -7.01146,3.110129 0,0.356487 -0.11453,0.730309 -0.25451,0.830718 -0.26603,0.190828 -0.47266,20.587231 -0.20856,20.587231 0.0791,0 1.28717,-0.367141 2.68466,-0.815872 z M 81.466223,60.295224 c 0.0108,-0.400182 0.0731,-2.215885 0.13848,-4.034895 0.13128,-3.653925 0.0252,-4.497917 -0.56508,-4.497917 -0.28695,0 -0.35267,-0.176112 -0.23728,-0.635854 0.11391,-0.453859 0.0207,-0.715505 -0.32569,-0.914125 -0.4286,-0.245772 -0.38485,-0.298977 0.37461,-0.455552 0.6742,-0.138996 0.8599,-0.310779 0.8599,-0.79547 0,-0.717886 -0.26017,-0.804042 -5.15937,-1.708552 -1.74625,-0.322397 -4.65735,-0.912772 -6.46911,-1.311944 -2.3039,-0.5076 -3.52252,-0.660262 -4.05394,-0.507852 -1.92824,0.553011 -6.39945,0.558065 -10.51133,0.01188 -11.09093,-1.473221 -25.59999,-4.826344 -27.58337,-6.374664 -1.71936,-1.342215 -5.42446,-2.572007 -10.34779,-3.434614 -1.62083,-0.283983 -3.89946,-0.700681 -5.06363,-0.925994 -2.9128098,-0.563751 -3.0430198,-0.550143 -3.0410798,0.317849 8e-4,0.400182 0.17949,1.068636 0.39688,1.485453 0.4996598,0.958058 0.4979398,1.226526 -0.008,1.226526 -0.3483,0 -0.39328,0.619384 -0.33073,4.554405 l 0.0724,4.554405 0.7937498,0.205745 c 1.02429,0.265502 10.18655,2.257004 16.80104,3.651858 2.83765,0.598403 6.1714,1.314837 7.40833,1.592078 6.38808,1.431803 21.65946,4.433421 30.1625,5.928497 2.98318,0.524528 6.13833,1.082177 7.01146,1.239221 10.23818,1.841481 9.65097,1.791147 9.67694,0.829519 z M 6.6196732,56.061891 c 0.0452,-0.545703 0.0511,-11.630471 0.0131,-24.632818 l -0.069,-23.6406331 -1.8116,0.1819326 c -1.25661,0.126199 -2.52128,0.04895 -4.12818004,-0.2521556 -1.27412,-0.2387494 -2.37784996,-0.3728191 -2.45273996,-0.2979341 -0.28617,0.2861733 -0.38941,47.4510942 -0.10425,47.6273332 0.22964,0.141931 7.68423,1.930847 8.28799,1.988913 0.10036,0.0097 0.21942,-0.428935 0.26458,-0.974638 z m -10.63351,-25.20811 V 7.0347347 l -0.71782,-0.2729151 c -0.3948,-0.1501034 -1.30232,-0.3982693 -2.0167,-0.5514763 -0.71439,-0.1532096 -1.95398,-0.5682747 -2.75465,-0.9223692 -0.8006702,-0.3540945 -1.4946602,-0.6049168 -1.5422002,-0.5573792 -0.0475,0.047538 -0.13182,10.7252551 -0.18731,23.7282631 l -0.10088,23.641832 0.55093,0.62987 c 0.41517,0.474659 1.2355102,0.787016 3.3290502,1.267589 1.52797,0.350745 2.92695,0.646033 3.10886,0.656199 0.26227,0.01466 0.33072,-4.91186 0.33072,-23.800567 z M 173.54912,48.745623 c 0.46613,-0.232537 1.11237,-0.422794 1.4361,-0.422794 0.32373,0 1.34723,-0.285194 2.27445,-0.633767 l 1.68586,-0.633764 v -1.416757 -1.416753 l -0.79375,0.08574 c -0.43656,0.04716 -1.38881,0.404344 -2.1161,0.79375 -1.16643,0.624522 -1.35048,0.841658 -1.56082,1.841383 -0.25486,1.211273 -0.70628,1.352854 -0.9636,0.302221 -0.12791,-0.522299 -0.29862,-0.626216 -0.91652,-0.557949 -1.07925,0.11924 -5.47473,1.957256 -5.23003,2.186996 0.66165,0.621212 4.85641,0.534186 6.18441,-0.128304 z m 10.58271,-3.297592 c 2.7617,-0.933516 3.80914,-1.462908 4.1082,-2.076352 0.27129,-0.556472 0.47627,-42.3218561 0.2234,-45.5181179 -0.0979,-1.2379456 -0.29291,-2.1828123 -0.45041,-2.1828123 -0.15274,0 -0.82666,0.335481 -1.4976,0.7455111 -0.67094,0.4100327 -2.02356,1.0273638 -3.00583,1.371846 -1.16454,0.4084108 -1.78899,0.770411 -1.7947,1.0404262 -0.25713,12.1464029 -0.16073,47.3776299 0.12963,47.3776299 0.0245,0 1.05374,-0.341159 2.28731,-0.758131 z M 81.446583,44.671317 c 0,-0.409644 -0.74582,-0.618178 -5.31469,-1.485998 -2.92307,-0.555217 -5.54245,-1.069048 -5.82083,-1.141846 -0.3425,-0.08956 -0.50615,0.0043 -0.50615,0.290333 0,0.232481 0.26789,0.482957 0.59531,0.556617 0.50435,0.113458 3.1636,0.67733 9.19427,1.949561 1.73554,0.36613 1.85209,0.355515 1.85209,-0.168667 z m -16.9721,-3.216748 c 2.94367,-0.425588 2.6846,1.255202 2.6846,-17.416959 V 7.7719061 l -1.12448,0.1657114 c -0.61846,0.09114 -2.85089,0.241123 -4.96094,0.333295 -8.0519,0.351732 -16.23943,-1.0851987 -23.85512,-4.1866258 -1.88877,-0.7691887 -2.05694,-0.79552 -2.46629,-0.3861726 -0.9174,0.9174003 -2.61228,0.4019867 -4.94333,-1.5032592 L 28.309813,0.96957207 28.151303,2.884224 c -0.0872,1.0530575 -0.18648,8.16543 -0.22068,15.805273 -0.0576,12.861924 -0.0275,13.954122 0.40636,14.748028 0.25769,0.471572 0.74339,1.037502 1.07934,1.257623 1.22745,0.804256 6.49273,2.608635 10.49068,3.595086 11.61154,2.865028 19.55816,3.888568 24.56748,3.164335 z m 16.9721,-0.284126 c 0,-0.437909 -1.004,-0.725932 -4.63021,-1.328295 -1.89177,-0.314251 -4.08039,-0.681895 -4.86359,-0.816991 -0.78321,-0.135096 -1.48965,-0.179996 -1.56987,-0.09978 -0.33568,0.33569 0.51603,0.629981 3.39075,1.171596 1.67349,0.315296 3.81662,0.719918 4.7625,0.89916 2.38242,0.451458 2.91042,0.483081 2.91042,0.174307 z m 31.549957,-3.004341 c 9.79308,-3.252319 23.63076,-7.702345 25.60003,-8.232647 0.80594,-0.21703 9.65929,-2.984815 10.58334,-3.30862 0.3638,-0.127484 2.09021,-0.662167 3.83646,-1.188183 1.74625,-0.526015 3.65124,-1.119645 4.23333,-1.319175 0.58208,-0.19953 2.48708,-0.794843 4.23333,-1.322917 1.74625,-0.528074 3.65125,-1.121661 4.23333,-1.319083 0.58209,-0.197421 3.55865,-1.153847 6.61459,-2.125395 3.05593,-0.971547 5.82414,-1.937094 6.15156,-2.145657 l 0.59531,-0.379211 -0.0313,-7.7329605 c -0.0172,-4.2531291 -0.10899,-8.0901508 -0.20395,-8.52671333 -0.19832,-0.9118256 -0.50737,-0.9272799 -2.93975,-0.1470104 -0.80036,0.2567437 -2.70536,0.85486603 -4.23333,1.32915813 -1.52797,0.4742894 -3.61156,1.1381792 -4.63021,1.4753033 -1.70967,0.5658247 -3.37628,1.0835587 -11.77396,3.6575972 -1.67349,0.5129556 -4.76911,1.4634291 -6.87916,2.1121661 -2.11005,0.648737 -5.86052,1.7842805 -8.33438,2.5234315 -4.88149,1.458515 -4.63695,1.384773 -9.26041,2.792576 -1.74625,0.531717 -4.18703,1.271116 -5.42396,1.643107 -1.23693,0.371991 -2.9038,0.887881 -3.70417,1.146421 -0.80036,0.258543 -2.34818,0.735481 -3.43958,1.059863 -4.44489,1.321094 -5.30317,1.585658 -8.66511,2.671032 l -3.50572,1.131798 v 9.212172 c 0,5.066696 0.0588,9.212174 0.13069,9.212174 0.0719,0 3.13775,-0.998651 6.81302,-2.219227 z M 81.640103,33.586289 c 0.0459,-3.014265 -0.0249,-4.107214 -0.28289,-4.365624 -0.63299,-0.634077 -0.70055,-1.539164 -0.15558,-2.084136 0.60043,-0.60043 0.72738,-3.175847 0.1788,-3.627374 -0.1819,-0.14972 -0.92604,-0.353261 -1.65364,-0.452311 -0.72761,-0.09905 -2.91988,-0.467381 -4.87172,-0.818512 -5.08763,-0.915252 -4.78558,-0.983186 -4.78558,1.076333 0,1.852332 -0.13551,1.688378 1.7198,2.080712 0.29104,0.06155 0.0529,0.13494 -0.52917,0.1631 l -1.05833,0.0512 1.19995,0.442512 c 0.86497,0.318979 1.17442,0.566852 1.10848,0.887894 -0.0703,0.342004 -0.34877,0.434123 -1.19996,0.396875 l -1.10847,-0.0485 -0.0725,4.261972 -0.0725,4.261974 1.52772,0.317487 c 3.22431,0.670065 8.70069,1.562473 9.33294,1.520856 l 0.66146,-0.04354 z m -56.8611,-0.250205 c -0.1315,-0.668145 -0.59,-0.807107 -4.71575,-1.429248 -2.11006,-0.318185 -5.24806,-0.861644 -6.97334,-1.207685 -1.72528,-0.346041 -3.2499198,-0.559297 -3.3880798,-0.473908 -0.13817,0.08539 -0.21486,0.342513 -0.17042,0.571383 0.0633,0.326149 1.3393598,0.628372 5.9016298,1.397762 3.20146,0.539901 6.35661,1.102699 7.01146,1.250664 1.85738,0.41968 2.43326,0.392801 2.3345,-0.108968 z m -0.21784,-3.624276 c 0,-0.410075 -1.10726,-0.674457 -6.74687,-1.610947 -2.18281,-0.362469 -4.84241,-0.842934 -5.91022,-1.0677 -1.9361098,-0.407537 -2.7295198,-0.341116 -2.2039098,0.184499 0.3071898,0.307192 1.3274998,0.530387 5.7328798,1.254078 4.54102,0.745974 7.6299,1.331338 7.77127,1.472713 0.27937,0.279363 1.35685,0.09462 1.35685,-0.232643 z m 0.28475,-11.394889 c -0.1621,-0.195326 -0.77434,-0.431829 -1.36053,-0.525563 -0.58618,-0.09374 -1.00196,-0.273696 -0.92396,-0.399915 0.22294,-0.360725 -0.53427,-0.850297 -1.49208,-0.96469 -1.741,-0.207933 -4.05193,-0.722397 -4.18745,-0.932219 -0.14264,-0.220835 -1.19317,-0.500973 -4.28187,-1.141817 -1.49705,-0.310608 -1.84889,-0.311939 -2.24896,-0.0085 -0.4323098,0.327883 -0.4010598,0.360453 0.35323,0.368123 0.79004,0.008 1.5835,0.551929 1.26695,0.868474 -0.0824,0.08245 -0.52711,0.04173 -0.98814,-0.09049 -1.5776298,-0.452462 -1.5225198,-0.606603 -1.4435898,4.03721 l 0.0727,4.277617 1.7197898,0.330644 c 3.25774,0.626327 9.66124,1.784014 11.50937,2.080776 l 1.85208,0.297397 0.2236,-3.920953 c 0.15931,-2.793566 0.13885,-4.023063 -0.0711,-4.27609 z m 75.518367,2.461847 c 1.89178,-0.585221 5.46365,-1.705552 7.9375,-2.489623 6.62972,-2.101247 14.25043,-4.430527 19.05,-5.822659 2.32834,-0.675341 5.90021,-1.743255 7.9375,-2.37314 2.03729,-0.6298855 6.08542,-1.8641005 8.99584,-2.7427022 26.98803,-8.14719513 38.45106,-11.8541132 41.21898,-13.3293928 1.66293,-0.8863382 2.97244,-2.321708 3.52202,-3.8605617 0.23718,-0.6640993 0.35077,-2.5235513 0.35843,-5.8670223 0.009,-4.147684 -0.0594,-5.03533 -0.45141,-5.815559 -0.90315,-1.797614 -2.85743,-2.621738 -7.811,-3.293915 -1.6337,-0.221686 -5.17302,-0.71256 -7.86515,-1.090829 -2.69214,-0.378267 -7.42375,-1.032251 -10.5147,-1.453295 -3.09095,-0.421045 -9.03784,-1.304981 -13.21532,-1.964301 -4.17748,-0.659321 -7.74628,-1.198766 -7.93068,-1.198766 -0.1844,0 -0.4609,0.234746 -0.61445,0.52166 -0.24144,0.451138 -0.0192,0.782825 1.64434,2.453553 l 1.92352,1.931892 6.21771,0.74395 c 15.75556,1.885151 16.23707,1.959152 16.92635,2.601314 0.38896,0.362366 0.50647,0.694928 0.38691,1.094968 -0.38059,1.273492 -0.92996,1.467797 -12.91,4.566128 -3.61732,0.935527 -6.6706,1.758842 -6.78507,1.829589 -0.11447,0.07074 -0.25362,0.605623 -0.30921,1.188619 -0.0759,0.795644 -0.006,1.059992 0.28219,1.059992 0.41422,0 22.96781,-5.690361 26.88278,-6.782635 1.30969,-0.365401 2.49279,-0.77315 2.6291,-0.906111 0.45145,-0.44033 -0.96665,-1.569879 -2.61509,-2.08298 -2.02713,-0.63097 -1.36957,-1.049724 0.8686,-0.553151 1.99881,0.443466 2.92305,0.949002 3.23499,1.769454 l 0.2584,0.679648 2.30992,-0.188986 c 1.27045,-0.103942 2.41316,-0.207127 2.53935,-0.229299 0.12619,-0.02217 0.26422,0.166219 0.30673,0.418653 0.0806,0.478721 0.0204,0.501356 -5.7418,2.159265 -3.61663,1.040577 -16.60346,4.478943 -24.37098,6.452407 -7.8935,2.0054752 -6.94088,1.501626 -8.74819,4.6269667 l -0.72989,1.2621868 1.11318,-0.1780037 c 0.8226,-0.1315376 1.06286,-0.096589 0.92042,0.1338897 -0.10602,0.1715426 -0.33302,0.2796884 -0.50444,0.2403237 -0.39468,-0.090636 -3.35259,1.3933593 -3.35259,1.6820091 0,0.3653605 -3.74896,3.03766787 -5.42395,3.86626607 -5.49376,2.71768083 -10.5078,3.91587023 -17.99167,4.29941283 -3.29029,0.1686216 -4.76338,0.3695462 -6.61272,0.9019434 -3.05006,0.8780647 -3.90582,0.8993822 -3.79058,0.094419 0.0693,-0.4839097 0.33784,-0.6392148 1.48697,-0.8598958 0.77134,-0.1481296 1.40149,-0.3883871 1.40035,-0.533908 -0.004,-0.4578852 -4.00577,-1.011465 -4.93822,-0.6830536 -0.4469,0.157398 -1.64984,0.2861786 -2.67322,0.2861786 -1.20046,0 -3.02448,0.2914121 -5.140587,0.8212825 -3.04687,0.7629287 -3.5111,0.8110379 -6.53384,0.6770873 l -3.25394,-0.1441951 -0.29715,0.6521714 c -0.56382,1.237443 -3.53928,1.2513416 -4.76834,0.022278 -0.49467,-0.4946677 -0.98156,-0.7057073 -1.62816,-0.7057073 -0.50735,0 -0.99604,-0.1190624 -1.08597,-0.2645833 -0.24063,-0.3893423 -1.5403,-0.3218788 -2.13183,0.1106594 -0.58881,0.4305511 -0.48508,0.621911 0.4281,0.7897388 0.35496,0.065236 0.69361,0.1274604 0.75255,0.1382739 0.0589,0.010821 -0.0853,0.2322645 -0.32041,0.4921091 -0.40586,0.4484714 -0.27702,0.5021818 2.53868,1.058246 1.63143,0.3221884 4.33546,0.8268229 6.00895,1.12141 1.67349,0.294584 3.72796,0.777504 4.56548,1.073153 0.83754,0.295648 1.63298,0.469439 1.76766,0.386201 0.13468,-0.08324 0.31725,-0.03423 0.40571,0.108905 0.0885,0.143135 -0.0819,0.4118425 -0.37859,0.5971275 -0.48299,0.301635 -0.53943,0.607047 -0.53943,2.919071 0,2.752905 -0.1208,2.960954 -1.34031,2.308296 -0.44393,-0.237585 -0.51177,-0.569986 -0.51177,-2.507443 0,-2.03083 -0.0546,-2.269304 -0.60124,-2.627495 -0.63299,-0.4147515 -3.82281,-1.1866055 -5.61647,-1.3590415 -1.61747,-0.155496 -5.94786,-0.844251 -9.99835,-1.5902493 -4.12305,-0.7593621 -4.8354,-0.6775053 -6.16374,0.7082973 l -0.77124,0.804611 v 4.7989775 4.798975 l 2.24895,0.355547 c 1.23693,0.195549 3.38006,0.51906 4.7625,0.718913 2.35141,0.339926 8.88426,1.356042 12.72654,1.979477 0.93129,0.151107 2.08021,0.275641 2.55315,0.276741 l 0.8599,0.002 v -1.5875 c 0,-1.471107 0.0436,-1.587204 0.59531,-1.583449 1.03772,0.0071 1.3359,0.409022 1.46585,1.976014 0.14592,1.75968 -0.34967,1.748748 4.950287,0.109204 z M 24.893643,15.018859 c 0.20967,-0.80178 -0.0235,-2.486226 -0.39031,-2.820207 -0.18648,-0.16976 -3.3156,-0.817036 -6.95362,-1.438394 -3.63803,-0.621358 -6.94201,-1.1885795 -7.34219,-1.2604905 L 9.4799132,9.3690215 v 1.8642825 c 0,2.183942 -0.47117,1.897594 4.6302098,2.81396 7.21015,1.295164 7.9514,1.409864 9.29571,1.438402 1.11916,0.02376 1.38101,-0.0584 1.48781,-0.466807 z m 0.29778,-6.5819655 c 0.0787,-0.400182 0.17747,-2.7171856 0.21946,-5.1488968 0.064,-3.70691813 0.0102,-4.4875792 -0.33291,-4.8315534 -0.36914,-0.3700727 -2.11376,-0.7734829 -6.33764,-1.4654688 -0.80036,-0.1311195 -2.88396,-0.5273463 -4.63021,-0.8805015 -1.74625,-0.3531552 -3.74175,-0.7231036 -4.4344598,-0.8221106 l -1.25946,-0.1800093 0.4998,1.273384 c 1.0896698,2.77623037 0.92108,6.2521144 -0.40513,8.3529721 -0.48051,0.7611745 -0.58085,1.1145096 -0.35596,1.2535005 0.17225,0.1064525 2.2970098,0.5742834 4.7216898,1.0396246 2.42469,0.4653439 5.77774,1.1197112 7.45123,1.4541502 4.29312,0.857964 4.68666,0.854315 4.86359,-0.045091 z M 5.6662432,4.9604332 c 1.75006,-1.0671783 2.63176,-4.58410183 1.83572,-7.3223646 -0.64762,-2.2277492 -1.2327,-2.9423094 -2.58776,-3.1604716 -3.34367,-0.5383212 -10.37394,-2.0039725 -12.04045,-2.5101601 -1.05517,-0.3204977 -2.33963,-0.8685212 -2.85437,-1.2178294 -0.5147302,-0.3493109 -1.0587602,-0.6351085 -1.2089502,-0.6351085 -0.43574,0 -0.19367,10.04637687 0.25842,10.72468377 0.48994,0.73510513 1.8282202,1.57886663 3.2929802,2.07616683 1.92226,0.6526212 6.95689996,1.7642363 9.70975,2.1438472 1.38245,0.190635 2.57307,0.3584311 2.64583,0.3728826 0.0728,0.014446 0.49974,-0.1977893 0.94883,-0.4716462 z m 61.3710798,0.097115 c 5.88262,-0.6522164 11.14486,-2.1903557 12.51739,-3.6587984 0.95902,-1.02603823 2.85488,-7.9983432 2.48036,-9.1218989 -0.15416,-0.4624784 -2.31116,-1.4947344 -4.02808,-1.9276879 -1.98071,-0.49947 -10.99273,-0.496702 -14.0094,0.00431 -1.27072,0.2110396 -2.27168,0.2681314 -2.31941,0.1322916 -0.27885,-0.7936916 -0.72747,-0.9648246 -3.41043,-1.3009426 -3.48406,-0.436483 -6.95949,-1.416305 -9.6219,-2.712689 -2.34298,-1.140846 -7.13248,-4.332605 -9.49711,-6.328947 -1.28629,-1.085953 -1.81773,-1.382416 -2.24896,-1.254577 -1.23674,0.366633 -2.27921,1.367528 -3.63809,3.492971 -0.78297,1.224653 -1.53181,2.293535 -1.6641,2.375291 -0.2357,0.145674 -0.0809,-1.480833 0.27072,-2.844453 0.14196,-0.550542 -0.0829,-0.417441 -1.34077,0.79375 -2.61222,2.515214 -3.71328,5.430539 -3.53689,9.3647894 0.0946,2.1103774 0.21739,2.6135884 0.98992,4.0574223 0.48505,0.9065391 0.98567,1.5841238 1.1125,1.5057383 0.12683,-0.078388 0.23059,-0.663522 0.23059,-1.3003053 0,-1.4095068 0.38807,-2.5151502 0.8828,-2.5151502 0.27504,0 0.40028,0.5885339 0.50094,2.3540878 0.13075,2.2931118 0.74843,4.24739307 1.40598,4.44838907 0.1519,0.046432 0.4275,-0.3340391 0.61244,-0.8454866 0.18494,-0.5114502 0.46025,-0.92990717 0.61179,-0.92990717 0.15154,0 0.70938,0.33807127 1.23965,0.75127107 5.62302,4.38164003 20.14983,6.82538453 32.46006,5.46052883 z m 20.87962,-3.1501634 c -0.47741,-0.7286149 -3.40459,-2.79705323 -3.95829,-2.79705323 -0.18592,0 -0.41261,0.2971218 -0.50376,0.6602677 -0.0911,0.3631485 -0.19335,0.7291519 -0.22712,0.8133424 -0.0338,0.084193 0.78327,0.48171363 1.81564,0.88338023 1.03237,0.4016665 2.16284,0.9304919 2.51216,1.1751627 0.77731,0.5444463 0.9584,0.1760749 0.36137,-0.7350998 z m 10.13224,0.5137361 c 1.6086,-0.4873916 1.84636,-0.937842 0.39688,-0.7519193 -1.44132,0.1848776 -1.91317,-0.2872608 -2.10044,-2.10173093 -0.086,-0.83350887 -0.27151,-1.51547237 -0.4122,-1.51547237 -0.14068,0 -1.31465,0.1937226 -2.60882,0.430493 l -2.35302,0.4304902 v 1.93235817 c 0,1.78838223 0.0444,1.94220033 0.59531,2.06449073 1.08167,0.2400909 5.0691,-0.060526 6.48229,-0.4887095 z M 127.48407,0.32933307 c 6.24211,-1.3031443 10.21318,-3.09252127 13.33672,-6.00956027 2.15318,-2.0108359 3.54493,-4.4037488 4.28685,-7.3706668 0.70983,-2.838514 0.003,-6.270379 -1.95948,-9.509966 -1.04683,-1.728317 -3.3637,-4.257974 -3.89981,-4.257974 -0.17841,0 -0.66095,0.446484 -1.0723,0.992187 -1.20363,1.596726 -3.5101,3.94113 -5.03412,5.116907 -1.18049,0.910738 -1.37066,1.170088 -1.15434,1.574284 0.33361,0.623364 0.33365,1.764244 7e-5,1.97041 -0.1424,0.08801 -0.58889,-0.07498 -0.99219,-0.362201 -1.40804,-1.002774 -6.46936,-1.535282 -10.39056,-1.093208 -3.51169,0.395906 -6.34868,1.184179 -9.12813,2.536296 -4.60393,2.239673 -6.80401,4.837779 -7.17762,8.4761407 -0.49929,4.8623746 2.86989,7.37015887 11.14637,8.29660267 2.98091,0.33367393 9.6765,0.1338659 12.03854,-0.3592513 z M 88.353293,-1.8940079 c -0.54417,-1.066657 -2.80585,-3.2241329 -3.38315,-3.2272841 -0.41393,-0.00238 -0.699,0.9431284 -0.51066,1.6935264 0.10123,0.4033467 0.47595,0.7005849 1.14837,0.910918 0.54896,0.1717172 1.47435,0.6495441 2.05644,1.0618417 0.58208,0.4122975 1.0964,0.71970097 1.14293,0.68312237 0.0465,-0.036579 -0.15774,-0.54153327 -0.45393,-1.12212437 z m 12.925967,0.3197754 c 0.79428,-0.2176568 1.48767,-0.4392612 1.54087,-0.4924583 0.14701,-0.1470157 -0.72109,-1.7333938 -0.94856,-1.7333938 -0.53961,0 -3.227077,2.2723368 -3.227077,2.7285949 0,0.13394527 0.26789,0.16466597 0.59532,0.068265 0.32742,-0.096398 1.245167,-0.3533537 2.039447,-0.5710078 z m -6.914977,-1.3700336 c 1.09447,-0.1859861 1.16398,-0.2542407 1.6132,-1.5840391 0.2582,-0.7643257 0.674,-1.6157072 0.92401,-1.8919613 0.25001,-0.2762567 0.3575,-0.5516959 0.23888,-0.6120897 -0.11862,-0.060394 -1.40629,-0.024606 -2.8615,0.07951 -1.45521,0.1041241 -3.65289,0.2012473 -4.88374,0.2158312 l -2.2379,0.026514 1.06289,1.1244791 c 0.58459,0.6184635 1.29398,1.583166 1.57644,2.1437863 l 0.51356,1.0193046 1.45521,-0.163486 c 0.80036,-0.089919 1.96989,-0.2509494 2.59895,-0.3578491 z m -70.44868,-1.5481431 c -0.0956,-0.3807804 -0.24242,-1.0356241 -0.32634,-1.4552083 -0.0839,-0.4195868 -0.22704,-0.7628836 -0.31804,-0.7628836 -0.091,0 -0.99886,-0.1783953 -2.01745,-0.3964358 -1.01859,-0.2180378 -4.1737,-0.7580762 -7.01136,-1.2000811 -9.6303498,-1.5000631 -16.6579798,-2.926167 -18.9817898,-3.851945 -1.94341,-0.774223 -2.11023,-0.908158 -1.97995,-1.589653 0.17259,-0.902817 0.54735,-1.043686 1.12554,-0.423074 0.46982,0.504298 1.34361,0.865375 2.95587,1.221459 0.64305,0.142023 0.76529,0.04286 1.22316,-0.992219 0.3169,-0.716423 0.86663996,-1.37123 1.45805996,-1.736746 2.23111004,-1.378905 24.19872984,-8.624422 30.66942984,-10.115613 0.83674,-0.192829 1.52135,-0.414504 1.52135,-0.492609 0,-0.314616 -1.06223,-3.022396 -1.26532,-3.225485 -0.20435,-0.204351 -2.53658,0.422751 -11.1701,3.003478 -11.5637998,3.456646 -26.2111298,8.746947 -28.8766898,10.429642 -1.7796202,1.123428 -2.5623902,2.909919 -1.8864902,4.305498 0.782,1.61467 2.9165302,2.4053221 9.99339016,3.7016613 12.34516984,2.2613884 18.17242984,3.2896279 19.97603984,3.5248399 1.09141,0.1423326 2.57969,0.3546474 3.30729,0.4718102 0.72761,0.1171655 1.42512,0.2271713 1.55004,0.2444565 0.12492,0.017277 0.14893,-0.2801144 0.0534,-0.6608921 z m 76.316387,-0.8515614 c 1.27549,-0.6280996 1.45521,-0.8134694 1.45521,-1.5009627 0,-1.2546355 -0.78715,-1.163521 -2.139257,0.2476183 -1.04709,1.0928058 -1.50545,2.0319946 -0.96959,1.9867111 0.10914,-0.00923 0.85328,-0.3392381 1.653637,-0.7333667 z M 23.502833,-10.266165 v -1.174411 l -1.25677,-0.146992 c -4.63674,-0.542306 -10.85868,-1.567527 -11.48793,-1.892925 -0.8704798,-0.450143 -0.9669698,-1.032264 -0.23594,-1.423498 0.61071,-0.326845 1.09656,0.179827 0.51631,0.538443 -0.27171,0.167928 -0.23092,0.224478 0.16454,0.228079 0.28921,0.0026 1.4188,0.182295 2.51021,0.399245 3.91975,0.779167 8.74153,1.50536 9.44884,1.423062 0.46285,-0.05385 0.8294,-0.320665 1.02395,-0.745339 1.21638,-2.65511 1.81487,-3.548129 3.71678,-5.545833 1.78526,-1.875182 4.46844,-3.8926 5.74164,-4.317003 0.52049,-0.173495 -0.12041,-1.249664 -0.74423,-1.249664 -1.06892,0 -13.16267,3.557831 -21.03907,6.189438 -9.0774898,3.032905 -10.5798798,3.60867 -10.95081984,4.196728 -0.57769,0.915841 0.33962004,1.264885 5.82537004,2.216568 4.6051598,0.79892 15.0034898,2.3597684 16.3040998,2.4473401 0.37611,0.025321 0.46302,-0.1892617 0.46302,-1.1432381 z m 67.60104,0.6469036 c 4.19147,-0.2154687 9.180737,-0.7897096 10.502617,-1.2088046 0.24664,-0.0782 0.80432,-0.720545 1.23927,-1.427435 3.4831,-5.660755 11.22874,-8.792511 21.7279,-8.785135 4.51035,0.0032 4.87853,-0.137655 7.60484,-2.908731 1.77237,-1.801476 2.7397,-3.105899 3.6826,-4.965885 0.70091,-1.382633 0.58833,-1.741763 -0.38839,-1.239036 -0.39193,0.201727 -2.02228,0.707306 -3.62301,1.123511 -2.75442,0.716174 -3.20823,0.756735 -8.46667,0.756735 -6.21633,0 -7.29934,-0.192974 -10.9802,-1.956483 -2.6366,-1.263192 -5.92345,-4.482427 -7.10561,-6.95943 -1.60853,-3.370371 -2.01683,-6.536653 -1.23166,-9.551159 1.31892,-5.063643 5.30524,-8.821901 10.86567,-10.244021 2.52223,-0.645077 6.87896,-0.699211 9.37784,-0.116525 3.97211,0.926211 8.77334,3.964334 11.41862,7.225482 0.96997,1.195785 1.16221,1.33027 1.23327,0.862725 0.0463,-0.304639 -0.216,-1.716022 -0.58288,-3.136405 -2.5622,-9.919629 -8.34663,-16.644641 -15.90546,-18.491805 -2.69405,-0.65835 -7.55845,-0.595347 -10.31875,0.133646 -2.8697,0.757886 -6.03894,2.367229 -7.84761,3.985035 -0.82369,0.736761 -1.58822,1.339567 -1.69896,1.339567 -0.11074,0 -0.41762,-0.195723 -0.681947,-0.434941 -0.4521,-0.409144 -0.54749,-0.365675 -1.60833,0.732896 -0.62026,0.64231 -1.58015,1.731002 -2.13309,2.419315 -0.55295,0.688314 -1.20779,1.249831 -1.45521,1.247815 -0.24742,-0.0021 -1.22376,-0.665943 -2.16964,-1.475393 -0.94589,-0.809451 -2.07276,-1.657506 -2.50417,-1.884569 -0.7797,-0.410382 -0.79011,-0.406167 -1.74993,0.708263 l -0.96556,1.121103 -1.55736,-1.057807 c -2.83356,-1.92464 -7.49192,-2.887212 -12.66986,-2.618012 -7.28281,0.378632 -13.78456,3.678922 -18.34342,9.311121 -0.82453,1.018646 -1.56678,1.911614 -1.64945,1.984375 -0.37968,0.334131 -2.13914,3.198947 -2.8437,4.630208 -1.85663,3.771569 -2.7919,7.458852 -3.08711,12.170833 l -0.16576,2.645833 1.40305,-2.650519 c 1.67088,-3.156458 3.65044,-5.697701 6.47229,-8.308734 1.62991,-1.508141 2.69828,-2.220267 4.98494,-3.322714 4.32621,-2.085766 5.62463,-2.387693 10.18645,-2.368709 3.43386,0.01429 4.03822,0.08793 5.75898,0.701723 3.58971,1.280435 6.33777,3.621833 7.69495,6.556245 1.70827,3.693512 0.70079,9.575027 -2.37288,13.85258 -3.78686,5.270063 -10.13316,8.864113 -19.00694,10.764032 -1.93976,0.415314 -3.17639,0.537237 -4.33886,0.427784 -0.89423,-0.0842 -1.4763,-0.08799 -1.29349,-0.0084 0.84311,0.366927 -0.18294,0.628626 -2.46466,0.628626 -1.59992,0 -2.49793,0.101912 -2.49793,0.283483 0,0.532831 4.36302,4.610337 5.68854,5.316285 1.67583,0.892514 6.65845,1.680702 8.97418,1.419604 2.71835,-0.306494 8.92902,-0.173538 11.07521,0.237095 2.21706,0.424194 4.24227,1.217293 5.08273,1.990461 0.93981,0.864558 1.64724,0.9086429 8.73455,0.5443116 z m 3.30729,-11.9167376 c -2.43301,-0.304396 -4.22989,-1.766565 -4.23234,-3.443981 -0.002,-1.360995 1.64789,-1.878589 2.11041,-0.662067 0.4599,1.209612 1.3641,1.547405 3.7999,1.419559 2.68105,-0.140719 4.007077,-0.805355 4.276067,-2.14326 0.32218,-1.602502 0.42406,-1.776003 1.04285,-1.776003 0.91452,0 1.29641,0.633154 1.13004,1.873533 -0.41409,3.087262 -4.103547,5.235588 -8.126927,4.732219 z m -2.64583,-6.307026 c -2.55936,-0.563431 -5.02564,-2.303857 -5.85656,-4.132914 -0.99947,-2.200079 -0.2721,-5.607758 1.63292,-7.650035 0.86189,-0.923993 1.04786,-1.016629 1.42033,-0.707509 0.29767,0.247042 0.34747,0.45343 0.16303,0.675661 -0.14605,0.175983 -0.20103,0.38449 -0.12216,0.463352 0.0789,0.07886 -0.20157,0.782283 -0.62317,1.563156 -1.13165,2.096013 -1.27165,3.209102 -0.55445,4.408238 0.70335,1.175967 2.0624,2.434011 2.63037,2.43487 0.22556,2.65e-4 0.55198,0.1425 0.72539,0.315905 0.17759,0.177591 1.32732,0.359712 2.6326,0.417012 1.96627,0.08632 2.58405,0.0034 4.07798,-0.547121 2.149457,-0.792136 3.623057,-1.87633 4.099247,-3.016006 0.41513,-0.993545 0.48053,-3.433805 0.0955,-3.563266 -0.14427,-0.04851 -0.29002,-0.424288 -0.32389,-0.835072 -0.071,-0.861576 -1.55207,-2.536534 -2.885957,-3.263858 -0.72414,-0.394851 -1.48267,-0.48718 -4.00235,-0.48718 -1.70988,0 -3.10887,-0.07848 -3.10885,-0.174408 10e-6,-0.09592 0.80428,-0.31814 1.78726,-0.493807 2.77079,-0.495168 6.09211,0.200183 8.013107,1.677617 0.90256,0.69416 1.84061,2.269373 2.22092,3.729463 0.97562,3.745693 -1.31958,7.194909 -5.803567,8.721568 -1.51497,0.515798 -4.85193,0.765001 -6.2177,0.464334 z m -39.33083,11.805961 c -2.63564,-2.721898 -4.95148,-6.890281 -5.90982,-10.637368 -0.28203,-1.102691 -0.64492,-3.521049 -0.80643,-5.374127 -0.74272,-8.521197 1.13936,-16.407428 5.40112,-22.631684 5.15641,-7.530865 12.09728,-11.946781 20.27143,-12.897077 5.24583,-0.60986 11.29047,0.377362 14.76868,2.41205 l 0.87645,0.512704 0.86832,-0.6623 c 0.47757,-0.364265 1.16789,-0.662299 1.53402,-0.662299 0.73483,0 2.11001,0.855625 3.88566,2.417632 0.63895,0.562073 1.23426,1.017442 1.32292,1.011934 0.0887,-0.0055 0.5779,-0.553863 1.08723,-1.218565 0.89085,-1.162624 3.79994,-3.802806 4.18092,-3.794451 0.101577,0.0021 0.350137,0.108818 0.552337,0.236866 0.25542,0.161748 0.84358,-0.117554 1.92688,-0.915035 3.3816,-2.489393 7.30521,-3.786409 12.14074,-4.013332 7.71316,-0.361961 14.20577,2.829338 18.41822,9.053075 2.74262,4.052113 4.69709,9.001522 5.69423,14.419791 0.50328,2.734699 0.60883,4.216519 0.60964,8.558975 7.9e-4,4.664992 0.0384,5.12314 0.33559,4.101041 1.87438,-6.445512 1.34251,-13.857538 -1.50672,-20.997383 -2.74391,-6.875919 -7.33006,-12.756003 -14.3362,-18.380986 -5.8111,-4.665528 -12.52165,-7.931311 -20.12021,-9.791779 -5.321767,-1.30301 -9.138937,-1.698721 -16.362097,-1.696196 -6.11239,0.0021 -6.74836,0.05002 -11.1451,0.83921 -5.11461,0.918041 -7.01138,1.514867 -8.69853,2.73703 -0.79768,0.577845 -1.29248,0.762053 -1.7431,0.648951 -0.9096,-0.228293 -3.00627,0.589577 -6.30867,2.460885 -4.14247,2.347335 -6.71739,4.275714 -9.93871,7.44317 -5.9579,5.85828 -9.44663,11.030558 -12.19228,18.075888 -2.16961,5.567222 -3.19912,10.766703 -3.17797,16.050172 0.0297,7.411024 1.60058,11.307815 6.424,15.935443 3.43654,3.297037 7.51118,6.075024 11.03974,7.526621 2.21528,0.91133 2.39074,0.762709 0.90771,-0.768856 z m 98.686577,-0.415165 c 0.16928,-0.133893 0.76893,-0.326642 1.33255,-0.428332 0.56361,-0.10169 1.21846,-0.296349 1.4552,-0.43258 0.23675,-0.136229 1.79967,-0.656654 3.47316,-1.156502 3.86052,-1.15308 6.49205,-2.14476 6.18873,-2.332196 -0.12958,-0.08007 -1.72389,-0.345831 -3.5429,-0.590571 -1.81901,-0.244737 -5.33879,-0.732367 -7.82173,-1.083617 -5.18278,-0.733189 -6.32477,-0.790718 -6.11215,-0.307911 1.00304,2.277689 1.58974,3.956137 1.82492,5.220758 l 0.28489,1.5319 1.30477,-0.08876 c 0.71763,-0.04882 1.44328,-0.198303 1.61256,-0.332192 z m -95.868247,-3.970486 c 0,-0.120152 -0.30795,-0.507105 -0.68434,-0.859896 -1.25237,-1.17386 -3.48121,-4.062285 -4.27201,-5.536223 -0.92171,-1.717963 -1.83771,-4.455797 -2.14418,-6.408777 l -0.21914,-1.396431 -0.21201,1.29241 c -0.23669,1.442845 -0.0514,4.464301 0.33513,5.46395 0.13864,0.358585 0.39074,1.247286 0.56021,1.97489 0.30557,1.311925 1.55797,4.110556 2.20083,4.918014 0.18396,0.231052 0.51306,0.489545 0.73134,0.574423 0.61897,0.240689 3.70417,0.222065 3.70417,-0.02236 z m 64.359887,-8.42343 c -0.1819,-0.0734 -0.47956,-0.0734 -0.66146,0 -0.1819,0.0734 -0.0331,0.133453 0.33073,0.133453 0.3638,0 0.51263,-0.06005 0.33073,-0.133453 z m 8.06428,0.01537 c -0.0879,-0.08792 -0.31612,-0.09732 -0.50712,-0.02088 -0.21106,0.08446 -0.14837,0.147156 0.15986,0.159851 0.27891,0.01148 0.43518,-0.05105 0.34726,-0.138965 z m 1.85208,-0.264583 c -0.0879,-0.08792 -0.31612,-0.09732 -0.50711,-0.02088 -0.21107,0.08446 -0.14838,0.147156 0.15985,0.159851 0.27891,0.01148 0.43518,-0.05105 0.34726,-0.138965 z m -58.574097,-1.758374 c -0.0676,-0.10914 -1.00891,-0.198437 -2.09173,-0.198437 -1.08281,0 -1.9685,0.0893 -1.96818,0.198437 2.6e-4,0.109141 0.94159,0.198438 2.09172,0.198438 1.15013,0 2.03581,-0.0893 1.96819,-0.198438 z m 65.392637,-0.46302 c 0.26339,-0.291042 0.41936,-0.529167 0.34659,-0.529167 -0.0728,0 -0.34779,0.238125 -0.61118,0.529167 -0.26339,0.291041 -0.41936,0.529166 -0.3466,0.529166 0.0728,0 0.3478,-0.238125 0.61119,-0.529166 z m -69.739757,0.171571 c -0.0606,-0.05116 -0.49719,-0.223557 -0.97014,-0.383111 -0.96964,-0.327126 -1.18072,-0.164947 -0.26458,0.203295 0.58612,0.235593 1.44994,0.361392 1.23472,0.179816 z m 5.24206,-0.06684 c -0.0879,-0.08792 -0.31612,-0.09732 -0.50712,-0.02088 -0.21106,0.08446 -0.14837,0.147156 0.15985,0.159851 0.27892,0.01148 0.43519,-0.05105 0.34727,-0.138965 z m 1.65916,-0.221406 c 0,-0.06417 -0.11907,-0.190262 -0.26459,-0.280199 -0.14552,-0.08994 -0.26458,-0.03743 -0.26458,0.116676 0,0.154109 0.11906,0.280199 0.26458,0.280199 0.14552,0 0.26459,-0.0525 0.26459,-0.116676 z m -10.05417,-0.89756 c 0,-0.344508 -0.31453,-0.573627 -0.57038,-0.415499 -0.27364,0.169119 -0.0377,0.635985 0.32141,0.635985 0.13694,0 0.24897,-0.09922 0.24897,-0.220486 z m 12.80809,-1.540303 c 0.71429,-0.78019 1.25007,-1.450861 1.19062,-1.490379 -0.0594,-0.03952 -0.82326,0.657103 -1.69735,1.54805 -0.8741,0.89095 -1.40988,1.561618 -1.19063,1.490379 0.21926,-0.07124 0.98307,-0.76786 1.69736,-1.54805 z m -14.45157,-0.204899 c -0.83571,-0.878318 -1.42095,-1.106455 -0.74308,-0.289666 0.18408,0.221801 0.23081,0.407057 0.10385,0.411684 -0.37,0.01349 0.75971,0.785336 1.14946,0.785336 0.19524,0 -0.0329,-0.405672 -0.51023,-0.907354 z m 53.438747,-1.126519 c -0.25296,-0.06622 -0.72921,-0.06862 -1.05833,-0.0053 -0.32912,0.06329 -0.12215,0.117469 0.45993,0.120406 0.58209,0.0029 0.85137,-0.04885 0.5984,-0.115067 z m -2.71506,-0.452898 c -2.21222,-0.699632 -3.66217,-1.850435 -4.86745,-3.863228 -0.305,-0.509323 -0.55498,-0.803707 -0.55552,-0.654185 -0.001,0.387651 0.71945,1.416544 1.82445,2.604039 0.99545,1.06978 3.21936,2.289138 4.12768,2.263196 0.29105,-0.0083 0.0529,-0.165735 -0.52916,-0.349822 z m 5.68854,-0.05442 c 0.43914,-0.269393 0.48361,-0.344167 0.13229,-0.222475 -0.29104,0.100814 -0.88635,0.275442 -1.32292,0.388067 -0.72609,0.187315 -0.73736,0.206277 -0.13229,0.222475 0.3638,0.0097 0.95912,-0.164891 1.32292,-0.388067 z m 19.49532,-0.418833 c -0.0845,-0.211066 -0.14716,-0.148373 -0.15985,0.159854 -0.0115,0.278913 0.051,0.435184 0.13896,0.347265 0.0879,-0.08792 0.0973,-0.316124 0.0209,-0.507119 z m -77.528007,-0.259072 c -0.27057,-0.433252 -0.70481,-0.663934 -0.70481,-0.374417 0,0.402987 0.34394,0.859489 0.64755,0.859489 0.28304,0 0.29531,-0.103894 0.0573,-0.485072 z m 61.366207,-1.33124 c 0.66276,-0.610915 1.37617,-1.474118 1.58535,-1.918229 0.20917,-0.444111 0.2298,-0.569349 0.0458,-0.278307 -0.18397,0.291041 -0.95704,1.154244 -1.71794,1.918229 -1.65657,1.663303 -1.60283,1.835711 0.0868,0.278307 z m -43.104857,-0.526354 c -0.0845,-0.211066 -0.14716,-0.148373 -0.15985,0.159853 -0.0115,0.278913 0.051,0.435184 0.13896,0.347266 0.0879,-0.08792 0.0973,-0.316124 0.0209,-0.507119 z m -9.51994,-1.184077 c 0.32048,-0.340119 0.52609,-0.618397 0.45692,-0.618397 -0.0692,0 0.066,-0.292619 0.30031,-0.650261 0.28963,-0.442032 0.37951,-0.971574 0.28068,-1.653646 -0.08,-0.551862 -0.14989,-1.088538 -0.15539,-1.192614 -0.0241,-0.457505 -1.69977,-2.059729 -2.15406,-2.059729 -0.27597,0 -0.51116,-0.148828 -0.52265,-0.330729 -0.0167,-0.264583 -0.0476,-0.264583 -0.15434,0 -0.0734,0.181901 -0.47221,0.330729 -0.88625,0.330729 -0.41405,0 -0.96117,0.20836 -1.21583,0.463021 -0.25466,0.254662 -0.5509,0.463021 -0.65831,0.463021 -0.31782,0 -0.51312,0.286644 -0.63836,0.936942 -0.0648,0.336415 -0.20988,0.679948 -0.32243,0.763405 -0.45394,0.336595 -0.35449,1.717784 0.17527,2.434331 0.30038,0.406278 0.54614,0.961258 0.54614,1.233289 0,0.418372 0.23355,0.504052 1.51533,0.555908 0.83343,0.03372 1.5547,0.100677 1.60282,0.148794 0.22157,0.221562 1.30428,-0.265949 1.83015,-0.824064 z m 9.78713,-0.811799 c -0.0671,-0.257432 -0.12638,-0.110869 -0.13177,0.325694 -0.005,0.436562 0.0495,0.647186 0.12197,0.468056 0.0725,-0.179131 0.0769,-0.536319 0.01,-0.79375 z m 45.316877,-1.261806 c 0,-0.145521 -0.11542,-0.08599 -0.25648,0.132291 -0.14107,0.218282 -0.25648,0.515938 -0.25648,0.661459 0,0.145521 0.11541,0.08599 0.25648,-0.132292 0.14106,-0.218281 0.25648,-0.515937 0.25648,-0.661458 z m -17.45255,-1.719792 c -0.17898,-1.88083 -0.19066,-1.908442 -0.22402,-0.529166 -0.0309,1.277622 0.17643,2.807038 0.35111,2.59018 0.034,-0.04215 -0.0232,-0.969608 -0.12709,-2.061014 z m -47.181517,1.273307 c -0.0845,-0.211066 -0.14716,-0.148373 -0.15985,0.159854 -0.0115,0.278913 0.051,0.435184 0.13896,0.347265 0.0879,-0.08792 0.0973,-0.316124 0.0209,-0.507119 z m 18.77512,-1.402471 c -0.021,-0.362085 -0.17833,-0.712213 -0.34965,-0.778068 -0.23246,-0.08935 -0.24267,0.07771 -0.0403,0.658333 0.33151,0.950955 0.44003,0.984279 0.38992,0.119735 z m 26.205687,-0.59844 c -0.0665,-0.254661 -0.121,-0.0463 -0.121,0.463021 0,0.509323 0.0545,0.717682 0.121,0.463021 0.0666,-0.254662 0.0666,-0.671381 0,-0.926042 z m 10.96644,0.84111 c 1.0843,-0.56071 1.93048,-2.45778 1.68544,-3.778615 -0.54996,-2.964462 -4.38052,-3.618362 -5.96581,-1.018399 -0.93175,1.528122 -0.51783,3.833397 0.86182,4.79974 0.75715,0.530325 2.39026,0.529023 3.41855,-0.0027 z m 9.15126,-1.762413 c -0.0589,-0.475549 -0.10828,-0.150259 -0.10977,0.722866 -0.002,0.873125 0.0467,1.26221 0.10707,0.864634 0.0604,-0.397576 0.0616,-1.111951 0.003,-1.5875 z m -46.758417,0.2432 c 0,-0.04554 -0.37521,-0.432488 -0.83379,-0.859896 l -0.8338,-0.777105 0.61897,0.859896 c 0.51592,0.716745 1.04862,1.111512 1.04862,0.777105 z m -15.99065,-1.570855 0.77711,-0.859896 -0.8599,0.777105 c -0.80154,0.724371 -0.98151,0.942687 -0.7771,0.942687 0.0455,0 0.43249,-0.386953 0.85989,-0.859896 z m -6.36664,0.330729 c 0.0899,-0.145521 0.0374,-0.264583 -0.11668,-0.264583 -0.15411,0 -0.2802,0.119062 -0.2802,0.264583 0,0.145521 0.0525,0.264583 0.11668,0.264583 0.0642,0 0.19026,-0.119062 0.2802,-0.264583 z m 51.377607,-0.314193 c -0.0845,-0.211066 -0.14715,-0.148373 -0.15985,0.159854 -0.0115,0.278913 0.051,0.435184 0.13897,0.347265 0.0879,-0.08792 0.0973,-0.316124 0.0209,-0.507119 z m 17.4625,-0.529166 c -0.0845,-0.211066 -0.14715,-0.148373 -0.15985,0.159853 -0.0115,0.278913 0.0511,0.435184 0.13896,0.347266 0.0879,-0.08792 0.0973,-0.316125 0.0209,-0.507119 z m -48.996357,-0.479558 c 0.0899,-0.14552 -0.0291,-0.264583 -0.26458,-0.264583 -0.23546,0 -0.35452,0.119063 -0.26459,0.264583 0.0899,0.145521 0.209,0.264584 0.26459,0.264584 0.0556,0 0.17464,-0.119063 0.26458,-0.264584 z m 4.89479,0 c 0,-0.14552 -0.12609,-0.264583 -0.2802,-0.264583 -0.15411,0 -0.20661,0.119063 -0.11667,0.264583 0.0899,0.145521 0.21602,0.264584 0.28019,0.264584 0.0642,0 0.11668,-0.119063 0.11668,-0.264584 z m -22.72041,-0.46302 c 0.3291,-0.419645 0.31974,-0.429004 -0.0999,-0.0999 -0.44073,0.345644 -0.58089,0.562917 -0.36313,0.562917 0.055,0 0.2633,-0.208359 0.46303,-0.46302 z m 6.58083,-0.217057 c 0,-0.07276 -0.22247,-0.01323 -0.49438,0.132292 -0.27191,0.145521 -0.58865,0.179477 -0.70388,0.07546 -0.11522,-0.104021 -0.12365,-0.03998 -0.0187,0.142314 0.13929,0.242003 0.32923,0.257341 0.70388,0.05684 0.28221,-0.151034 0.51311,-0.334139 0.51311,-0.4069 z m 16.93333,0.150911 c -0.15576,-0.291042 -0.52416,-0.529167 -0.81867,-0.529167 -0.29534,0 -0.46095,0.120589 -0.36929,0.268899 0.0914,0.147894 0.26354,0.208737 0.38251,0.135204 0.11898,-0.07353 0.36346,0.04359 0.54329,0.260268 0.46253,0.557321 0.59596,0.488509 0.26216,-0.135204 z m 28.270117,-2.205231 c 0.53148,-0.558035 1.41282,-1.245063 1.95852,-1.526733 0.54571,-0.281667 0.99219,-0.571656 0.99219,-0.644416 0,-0.264697 -2.00595,0.941369 -2.81354,1.691621 -0.91615,0.851112 -2.2141,2.656112 -2.21255,3.076906 5.3e-4,0.148121 0.2503,-0.147408 0.55502,-0.656731 0.30471,-0.509322 0.98887,-1.382614 1.52036,-1.940647 z m 14.36063,1.605508 c -0.26131,-0.259361 -0.2917,-0.228971 -0.14812,0.148113 0.0994,0.260938 0.24731,0.407781 0.32877,0.326319 0.0815,-0.08146 1.7e-4,-0.294955 -0.18065,-0.474432 z m -57.976577,-0.194027 c 0.21828,-0.141065 0.27781,-0.256479 0.13229,-0.256479 -0.14552,0 -0.44318,0.115414 -0.66146,0.256479 -0.21828,0.141065 -0.27781,0.256479 -0.13229,0.256479 0.14552,0 0.44318,-0.115414 0.66146,-0.256479 z m 5.48459,-0.424437 c -0.0879,-0.08792 -0.31612,-0.09732 -0.50712,-0.02088 -0.21106,0.08446 -0.14837,0.147155 0.15985,0.15985 0.27892,0.01148 0.43519,-0.05105 0.34727,-0.138964 z m 52.194567,0.05259 c 0,-0.187121 -1.91349,-2.40579 -2.08487,-2.417373 -0.0903,-0.0061 -0.54513,-0.214458 -1.01084,-0.463021 -1.43406,-0.765384 -1.35234,-0.494234 0.10253,0.340161 0.75484,0.432917 1.6917,1.205706 2.08192,1.717307 0.65718,0.861611 0.91126,1.091063 0.91126,0.822926 z m 12.30166,-0.423529 c -0.2642,-0.291933 -0.54185,-0.469297 -0.61701,-0.394142 -0.0752,0.07516 0.0928,0.310224 0.37321,0.522375 0.71545,0.541274 0.8064,0.493437 0.2438,-0.128233 z m -28.14291,-2.313482 c 0.32911,-0.419645 0.31975,-0.429004 -0.0999,-0.0999 -0.25466,0.19972 -0.46302,0.40808 -0.46302,0.46302 0,0.217763 0.21727,0.0776 0.56291,-0.363124 z m 10.47793,-1.019749 c -0.0879,-0.08792 -0.31613,-0.09732 -0.50712,-0.02088 -0.21107,0.08446 -0.14837,0.147156 0.15985,0.159851 0.27892,0.01148 0.43519,-0.05105 0.34727,-0.138965 z m -2.24345,-0.279959 c -0.1819,-0.0734 -0.47956,-0.0734 -0.66146,0 -0.1819,0.0734 -0.0331,0.133454 0.33073,0.133454 0.3638,0 0.51263,-0.06006 0.33073,-0.133454 z"
       id="path2784" /></g></svg>
