<?xml version="1.0" encoding="UTF-8" standalone="no"?>
<!-- Created with Inkscape (http://www.inkscape.org/) -->

<svg
   width="173.75432mm"
   height="220.56926mm"
   viewBox="0 0 173.75434 220.56925"
   version="1.1"
   id="svg5"
   xml:space="preserve"
   xmlns="http://www.w3.org/2000/svg"
   xmlns:svg="http://www.w3.org/2000/svg"><defs
     id="defs2" /><g
     id="layer1"
     transform="translate(20.266888,129.08239)"><path
       style="fill:#000000;stroke-width:0.264583"
       d="m 28.681022,91.248728 c -14.90101,-0.80572 -28.99839042,-4.273582 -36.9093704,-9.079465 -2.1368196,-1.298104 -5.2045596,-3.840425 -5.0113496,-4.15304 0.0857,-0.138729 0.0303,-0.219517 -0.12329,-0.179533 -0.42298,0.110151 -3.37272,-3.682947 -4.26434,-5.483548 -1.10577,-2.233075 -1.44304,-4.165158 -1.11631,-6.394831 l 0.26484,-1.807252 -0.89405,-0.746866 c -0.73345,-0.612708 -0.89404,-0.931089 -0.89404,-1.772438 v -1.02557 l 0.99218,0.404098 c 0.54571,0.222253 1.14397,0.60016 1.32948,0.839793 0.28668,0.370319 0.4204,0.383802 0.89109,0.08985 0.81803,-0.510865 1.00726,-0.06879 0.60673,1.417386 -0.85295,3.164779 -0.2489,6.476135 1.60847,8.817562 1.58833,2.002264 1.39052,1.791896 3.60073,3.829341 2.2314396,2.057022 5.1621796,4.083026 7.5933296,5.249227 4.20840998,2.018742 13.8471004,4.83934 17.5728704,5.142405 1.05641,0.08593 3.05183,0.387548 4.43428,0.670263 3.22678,0.659887 15.61976,1.694656 15.60517,1.302975 -0.003,-0.07752 -0.61126,-0.498128 -1.35194,-0.934691 -1.65904,-0.97786 -3.67116,-3.132211 -4.50091,-4.819073 -0.95388,-1.939234 -0.88486,-4.520585 0.16955,-6.340588 2.21799,-3.828425 7.28751,-5.670412 14.53873,-5.282575 1.75359,0.09379 4.02175,0.349086 5.04034,0.567322 2.42211,0.51894 2.77823,0.505703 2.77823,-0.10327 0,-1.1817 -3.90923,-5.497742 -6.74688,-7.449002 -6.30338,-4.334404 -13.74651,-6.579891 -26.71363,-8.059131 -2.03218,-0.231825 -3.74075,-0.467365 -3.79681,-0.523425 -0.2184,-0.218408 0.29126,-0.690787 1.11802,-1.036233 3.18362,-1.330198 8.72513,-1.064781 16.03096,0.767818 6.44397,1.616411 9.07651,2.644143 13.88999,5.422585 1.55346,0.896689 2.89547,1.559346 2.98225,1.472568 0.25501,-0.255 -1.36558,-15.610321 -1.94971,-18.473856 l -0.14886,-0.729779 -1.10298,0.686229 c -1.88711,1.174088 -6.37032,3.218354 -8.27714,3.774239 -3.63152,1.058674 -6.23045,1.439687 -9.75917,1.430729 -3.71775,-0.0094 -5.85238,-0.384514 -8.64397,-1.518838 l -1.65167,-0.671134 -0.54072,0.629187 c -0.67312,0.783246 -2.45988,1.759354 -3.22048,1.759354 -0.31401,0 -0.63945,-0.178593 -0.72322,-0.396875 -0.18185,-0.4739 -0.87483,-0.528037 -1.02417,-0.08001 -0.16664,0.499922 -1.6137704,-0.212331 -2.2901404,-1.127173 -0.31603,-0.427455 -0.6986,-0.77719 -0.85016,-0.77719 -0.39788,0 -1.03151,-0.692893 -1.03151,-1.12799 0,-0.204623 0.33469,-0.670255 0.74376,-1.03474 l 0.74377,-0.662699 0.84044,0.701632 c 0.68516,0.571998 0.77995,0.769546 0.51301,1.069224 -0.27858,0.312745 -0.25668,0.313928 0.14679,0.0079 0.35921,-0.272428 0.54853,-0.285377 0.78052,-0.05338 0.3270704,0.327067 1.5509504,0.398113 2.4951904,0.144849 0.38737,-0.103899 0.76426,-0.620641 1.15521,-1.583886 0.31915,-0.786323 0.69406,-1.429676 0.83315,-1.429676 0.13909,0 0.75034,0.284893 1.35833,0.633098 2.91214,1.667798 7.76115,2.683372 11.68878,2.448091 3.08335,-0.184705 4.89242,-0.494776 7.27605,-1.247089 2.16685,-0.683895 7.72917,-3.400404 9.12812,-4.457962 0.8009,-0.605451 1.54102,-0.87353 3.04271,-1.102085 2.38157,-0.362474 4.53165,-1.12795 5.49451,-1.956165 0.63531,-0.54647 0.66712,-0.654357 0.31772,-1.077457 -0.5193,-0.628841 -2.23155,-1.351092 -3.69556,-1.558835 -2.17595,-0.308772 -6.08542,-1.263052 -6.08542,-1.485419 0,-0.381658 0.32314,-0.463322 5.127,-1.295677 8.56445,-1.48394 10.60309,-2.678147 6.73211,-3.943586 -0.91996,-0.300738 -2.74422,-0.62793 -4.0539,-0.727091 -2.07552,-0.157146 -2.48808,-0.273184 -3.21333,-0.9038 -0.70333,-0.611561 -2.03343,-1.228397 -3.79071,-1.757958 -0.84961,-0.256029 0.40447,-0.609994 2.17539,-0.614013 1.34635,-0.003 1.78594,-0.09457 1.78594,-0.371819 0,-0.592474 -2.21242,-3.428045 -3.47149,-4.44927 -2.28838,-1.856097 -6.35536,-3.666178 -10.933,-4.865912 -2.3154,-0.606838 -4.68658,-1.758167 -5.92473,-2.876759 -1.55297,-1.4030137 -2.80275,-4.0497307 -3.20093,-6.7787782 -0.17855,-1.2237799 -0.37122,-2.3746512 -0.42814,-2.5574915 -0.0673,-0.2160958 -0.80236,0.1370462 -2.10045,1.0090811 -2.36585,1.5893388 -4.18933,2.4562219 -6.34216,3.0150539 -2.02642,0.526018 -3.04629,0.509834 -3.75269,-0.05956 -1.4854,-1.1973007 -0.75346,-2.515386 1.56781,-2.8233133 1.70737,-0.2264913 4.83519,-1.5130489 6.55566,-2.69652484 0.78477,-0.5398293 1.31464,-0.7652675 1.3258,-0.564081 0.0102,0.184314 0.0996,0.1310772 0.19853,-0.1183005 0.24087,-0.60698326 3.26572,-3.14799906 3.61112,-3.03351386 0.32911,0.109085 1.0244,2.5442094 1.75106,6.1327635 1.09293,5.397296 2.40072,6.818283 7.78215,8.4556967 1.30969,0.398499 3.73088,1.198731 5.38044,1.778293 1.64955,0.579562 3.03945,1.013481 3.08867,0.964264 0.0492,-0.04922 -0.13773,-2.2913 -0.41544,-4.9824107 -0.2777,-2.691109 -0.58443,-6.6389726 -0.68161,-8.77303024 l -0.17669,-3.88010006 -1.13589,-0.8006504 c -1.39125,-0.9806384 -1.79954,-2.2000314 -1.54354,-4.6098537 0.24878,-2.3418429 0.93335,-3.7714849 2.15,-4.4900059 0.55384,-0.327083 1.06651,-0.605168 1.13927,-0.617966 0.0728,-0.01281 0.31088,-0.09645 0.52917,-0.185883 0.21828,-0.08944 0.68299,-0.198217 1.03269,-0.241731 0.55754,-0.06938 0.71111,-0.356042 1.2472,-2.328079 1.35772,-4.99437 1.93427,-5.826107 4.59265,-6.625471 3.69803,-1.111983 8.22363,-1.614255 15.90371,-1.76507 7.84357,-0.154024 12.19868,0.09973 17.2584,1.005578 3.43646,0.615233 5.05688,1.306179 5.76957,2.460144 0.4664,0.755189 1.37023,3.439204 2.0703,6.147956 0.25473,0.985639 0.37751,1.106299 1.27297,1.251069 2.60016,0.420367 4.06264,2.494444 4.22542,5.9924602 0.11994,2.5772876 -0.29643,3.5800848 -1.87263,4.5100608 l -0.88241,0.5206365 -0.18614,3.90079686 c -0.10238,2.14543734 -0.39334,6.07910094 -0.64657,8.74146994 -0.25323,2.6623697 -0.41631,4.8847827 -0.3624,4.9386937 0.0539,0.05391 1.12999,-0.259918 2.39127,-0.697396 1.26129,-0.437478 3.62605,-1.199764 5.25502,-1.693963 6.398348,-1.9411527 7.484288,-2.9242917 9.475658,-8.5786327 0.85772,-2.43544984 1.86188,-4.5977093 2.30656,-4.9667607 0.30308,-0.2515341 0.50731,-0.1958287 1.0089,0.2751719 3.53476,3.3192004 7.1341,5.1230819 11.49289,5.7599022 1.25952,0.1840124 1.93044,0.4143427 2.11231,0.7251566 2.33092,3.983567 -6.94741,2.868213 -12.76426,-1.5343979 -1.32679,-1.0042102 -1.37763,-1.0195507 -1.49404,-0.4508897 -0.57902,2.8284676 -0.86514,3.7313626 -1.68028,5.3024616 -1.61,3.1030887 -3.35477,4.3840207 -7.86326,5.7728397 -8.038838,2.476331 -9.672018,3.140041 -12.120878,4.925824 -1.24546,0.908225 -4.32526,4.477533 -4.07737,4.725424 0.0689,0.06892 1.03834,0.161243 2.15427,0.205171 2.52301,0.09932 3.0473,0.485796 1.29232,0.952614 -1.51668,0.403429 -2.98135,1.194652 -3.44997,1.863696 -0.22751,0.324816 -0.55974,0.445042 -1.00612,0.364098 -1.76116,-0.31936 -7.71365,0.969889 -8.21371,1.779003 -0.6111,0.988782 3.93272,2.277994 12.06001,3.421761 2.50419,0.352419 2.97285,0.516432 2.69997,0.944888 -0.18808,0.295328 -4.45256,1.355775 -6.32095,1.571831 -2.2245,0.257236 -4.28374,1.004509 -4.72194,1.713526 -0.55648,0.900398 5.54383,3.27515 7.26024,2.826298 0.31837,-0.08326 0.87299,0.118795 1.40024,0.510111 2.64852,1.965698 7.24622,4.028424 11.191808,5.021138 3.31281,0.833501 9.24364,1.140859 12.1324,0.628743 2.64422,-0.468765 5.60821,-1.564027 7.77423,-2.872759 1.12875,-0.681995 2.01113,-1.049266 2.27636,-0.947486 0.23823,0.09142 0.56126,0.642025 0.71786,1.223576 0.37246,1.383229 0.0237,1.770981 -2.92481,3.251907 -5.98669,3.006878 -13.74775,3.573806 -21.431248,1.565502 -2.47013,-0.645642 -7.90236,-2.869589 -8.24389,-3.375043 -0.0958,-0.141716 -0.2419,0.386487 -0.32475,1.173784 -0.70292,6.679091 -1.5407,13.974042 -1.66089,14.462177 -0.1719,0.698124 0.0969,0.753142 0.90705,0.185671 2.56212,-1.794581 9.41142,-4.28903 14.746438,-5.370517 6.44856,-1.307216 11.13004,-1.364636 13.98553,-0.171535 0.52989,0.221401 0.96343,0.501968 0.96343,0.623483 0,0.121515 -1.0418,0.363011 -2.31511,0.536657 -18.065648,2.463681 -25.815578,5.240604 -31.565518,11.310439 -2.78866,2.943805 -3.95286,5.210495 -2.56572,4.995447 5.05284,-0.783344 10.27369,-0.800198 13.03072,-0.04206 3.66834,1.008726 7.047988,3.632062 7.899778,6.131927 0.5754,1.688722 0.54765,3.953386 -0.0647,5.282261 -0.65007,1.410639 -2.52423,3.487488 -3.980608,4.411096 l -1.17991,0.748289 0.9117,0.03372 c 4.529098,0.167518 14.150658,-0.736227 15.981288,-1.501111 0.50638,-0.211582 1.62004,-0.384693 2.47479,-0.384693 3.03245,0 12.71593,-2.791918 18.37816,-5.298742 9.28583,-4.111095 13.13372,-8.33045 12.48105,-13.685953 -0.62997,-5.16931 -3.58807,-10.356352 -9.83104,-17.23881 -1.10986,-1.223541 -1.7854,-2.499307 -1.59128,-3.005155 0.0976,-0.254299 0.67672,-0.473337 1.56291,-0.591109 2.78011,-0.369472 7.6256,-2.874444 7.6256,-3.942204 0,-0.79339 -3.32371,-2.963981 -6.49945,-4.244541 -1.26982,-0.512035 -2.5964,-1.119436 -2.94795,-1.349782 -0.8187,-0.53643 -0.73724,-1.538743 0.13509,-1.662409 0.36983,-0.05243 0.71772,-0.364606 0.88454,-0.79375 0.39141,-1.006851 0.10671,-8.487806 -0.40954,-10.7615 -0.50267,-2.213859 -1.85672,-6.462477 -2.52972,-7.9375 -1.33582,-2.92776 -2.50021,-5.30561 -2.656,-5.423958 -0.0958,-0.07276 -0.84471,-1.3229167 -1.66426,-2.7781247 -1.16528,-2.069076 -1.64241,-3.278341 -2.18877,-5.5474232 -0.63184,-2.62403424 -0.68895,-3.2820661 -0.59701,-6.8791664 0.12423,-4.8599008 0.28995,-5.2966723 1.91718,-5.0526524 0.61831,0.092721 1.45898,0.041296 1.86816,-0.1142735 0.81231,-0.3088398 2.90375,-1.9669838 4.36745,-3.4626308 1.94936,-1.991897 4.44028,-6.155288 5.28995,-8.841769 0.1841,-0.582083 0.49853,-1.24659 0.69873,-1.476679 0.2002,-0.23009 0.29816,-0.484193 0.21768,-0.564671 -0.0805,-0.08048 0.12387,-1.142381 0.45411,-2.359779 0.90672,-3.342503 0.85921,-8.530693 -0.11583,-12.65057 -0.4901,-2.070857 -0.62685,-3.084383 -0.43236,-3.204581 0.15644,-0.09669 0.26535,-0.278574 0.242,-0.404185 -0.0784,-0.422069 0.52436,-0.422555 0.68629,-5.29e-4 0.0881,0.229547 0.25083,0.361317 0.36166,0.292825 0.30871,-0.190799 1.04094,0.737677 1.15482,1.464336 0.0907,0.578543 0.21126,0.637765 1.1308,0.555308 0.56612,-0.05077 1.06664,-0.127786 1.11226,-0.171154 0.0456,-0.04337 -0.21596,-0.656675 -0.58131,-1.362906 -0.78372,-1.514967 -1.02971,-3.400721 -0.44362,-3.400721 0.35321,0 1.94791,1.779416 2.96727,3.310977 0.74923,1.125699 1.08319,0.355944 1.11282,-2.564982 0.0292,-2.873507 -0.33562,-4.678362 -1.44646,-7.156902 -1.63698,-3.652501 -4.29251,-6.60787 -7.00805,-7.799331 -1.63641,-0.717984 -2.2925,-1.494967 -1.44868,-1.71563 0.29778,-0.07787 0.465,-0.265231 0.3716,-0.416356 -0.27787,-0.449607 1.91252,-0.04319 3.0983,0.574873 0.58438,0.304596 1.13482,0.55381 1.22319,0.55381 0.25451,0 -0.15432,-3.340256 -0.73988,-6.04502 -0.78128,-3.608868 -2.68028,-8.975804 -4.46115,-12.608104 -1.52533,-3.111087 -2.9062,-5.690322 -3.18718,-5.953125 -0.0778,-0.07276 -0.60309,-0.846666 -1.16734,-1.719791 -2.72629,-4.218718 -7.59658,-9.850779 -11.68431,-13.511892 -9.782,-8.76113 -21.2192,-14.55827 -32.912108,-16.68209 -1.23693,-0.22467 -4.21119,-0.46595 -6.60947,-0.53618 -2.39828,-0.0702 -4.39781,-0.16499 -4.4434,-0.21058 -0.1161,-0.1161 1.60679,-1.71715 2.24832,-2.08933 0.29148,-0.1691 1.17136,-0.69613 1.95528,-1.17119 0.78392,-0.47506 1.72297,-0.94038 2.08677,-1.03404 0.93189,-0.23993 1.85208,-0.87875 1.85208,-1.28577 0,-1.23845 -6.60493,-1.79072 -10.05416,-0.84067 -5.75301,1.58461 -11.13551,6.03169 -14.36972,11.87242 -0.53686,0.96953 -0.98077,1.98156 -0.98647,2.24896 -0.0195,0.91328 -0.80394,-1.32876 -2.10154,-6.00612 -1.93703,-6.98228 -3.55423,-11.02178 -4.31149,-10.76936 -0.16733,0.0558 -0.59669,0.68785 -0.95413,1.40461 -0.5477,1.09825 -0.69484,1.94088 -0.93567,5.3583 l -0.28577,4.05512 -1.7198,-1.37698 c -0.94588,-0.75733 -1.77932,-1.46524 -1.85208,-1.57312 -0.0728,-0.10788 -1.02526,-0.64321 -2.11666,-1.18961 -1.09141,-0.5464 -2.05482,-1.10364 -2.14092,-1.2383 -0.0861,-0.13466 -0.26469,-0.21523 -0.39687,-0.17904 -0.13219,0.0362 -0.91486,-0.0244 -1.73927,-0.13456 -3.42608,-0.45797 -5.57497,1.23913 -3.8425,3.03462 0.33644,0.34867 1.65342,1.45016 2.92664,2.44776 1.27322,0.9976 2.25918,1.86958 2.19102,1.93774 -0.20956,0.20956 -1.68696,-0.66446 -1.85253,-1.09593 -0.18053,-0.47047 -0.92093,-0.52644 -1.49557,-0.11307 -0.34039,0.24485 -0.33409,0.26549 0.0442,0.14494 0.24642,-0.0785 0.50552,0.0273 0.58701,0.23963 0.11529,0.30044 -0.14367,0.38056 -1.23487,0.38202 -5.42201,0.007 -16.09819,5.03985 -24.92867,11.75095 -1.16417,0.88476 -2.20415,1.72772 -2.31106,1.87324 -0.10691,0.14552 -0.19621,0.18444 -0.19844,0.0865 -0.005,-0.19995 -0.37148,0.13691 -4.2288804,3.882248 -2.99319,2.906231 -5.56791,5.876885 -7.84213,9.048096 -0.81426002,1.135422 -1.59763002,2.137246 -1.74081002,2.226275 -0.14319,0.08903 -0.24474,0.241226 -0.22566,0.338215 0.0191,0.09699 -0.47456,0.998127 -1.09694998,2.002538 -0.94936,1.532086 -1.19633,1.775897 -1.53343,1.513869 -0.35477,-0.275764 -0.35734,-0.255762 -0.022,0.17086 0.23836,0.303186 0.28204,0.549595 0.11727,0.661458 -0.14442,0.09805 -0.42124,0.570384 -0.61514,1.049632 -0.44479,1.099301 -1.62967,2.383538 -2.0648,2.237927 -0.1819,-0.06087 -0.34593,0.107604 -0.3645,0.374394 -0.0916,1.315365 -0.18227,1.732981 -0.43025,1.980967 -0.18361,0.18361 -0.32688,0.177969 -0.44777,-0.01765 -0.0978,-0.158189 -0.29683,-0.287626 -0.44235,-0.287626 -0.14552,0 -0.18636,0.126566 -0.0908,0.281255 0.0956,0.154691 -0.0242,0.50006 -0.2662,0.767485 -0.24202,0.267425 -0.33306,0.552336 -0.20232,0.633134 0.13073,0.0808 0.18777,0.487106 0.12674,0.902901 -0.0777,0.529233 -0.33014,0.838724 -0.8417,1.031817 -0.63202,0.238562 -0.71405,0.389636 -0.60712,1.11818 0.0722,0.492162 -0.027,1.030504 -0.23866,1.294936 -0.19926,0.24892 -0.64545,1.015723 -0.9915296,1.704002 -0.36963,0.735121 -0.75169,1.183031 -0.92604,1.085662 -0.21274,-0.118809 -0.21637,-0.07807 -0.0128,0.14383 0.31831,0.346982 0.17762,1.884714 -0.17243,1.884714 -0.7227,0 -1.4806,3.75589 -0.86156,4.269645 0.26212,0.217546 0.35312,0.208587 0.35312,-0.03477 0,-0.197575 0.21026,-0.272855 0.52917,-0.189458 0.29104,0.07611 0.52916,0.04768 0.52916,-0.06317 0,-0.345784 3.3725096,-0.538514 4.2247196,-0.241432 1.30404,0.454591 1.11949,0.786942 -1.57888,2.843355 -0.65485,0.499052 -1.25016,0.993936 -1.32292,1.099743 -0.0728,0.105807 -0.3702,0.237506 -0.6609796,0.292664 -0.29079,0.05515 -0.52891,0.279582 -0.52917,0.498726 -5.3e-4,0.531773 -1.04781,1.843453 -1.47172,1.843453 -0.18521,0 -0.26209,0.07465 -0.17084,0.165899 0.0912,0.09124 -0.0186,0.597257 -0.24397,1.124479 -1.01106,2.364679 -1.71708,4.923697 -2.0954,7.594954 -0.59611,4.209042 -0.40419,6.986307 0.55391,8.015838 0.28327,0.304387 0.42691,0.193193 0.86843,-0.672254 0.6068,-1.189426 4.4399096,-4.947078 4.8118996,-4.717174 0.14082,0.08703 -0.036,0.906383 -0.41027,1.900582 -1.09861,2.918753 -1.4817196,4.80963 -1.6221596,8.006439 -0.11087,2.52377 -0.0399,3.424415 0.4082996,5.177869 0.50287,1.967513 1.21732,3.780933 1.61336,4.095033 0.0917,0.07276 0.37455,0.578776 0.62845,1.124479 0.25391,0.545703 0.55495,0.992187 0.66897,0.992187 0.11403,0 0.60819,0.565547 1.09813,1.256771 1.19391,1.684375 2.80181,3.241146 3.3476,3.241146 1.06433,0 2.15820998,0.64435 2.57396998,1.516195 0.23641,0.495768 0.35949,1.015233 0.2735,1.154364 -0.086,0.139133 -0.004,0.220252 0.18203,0.180268 0.1861,-0.03999 0.35206,0.04636 0.36879,0.191881 0.0862,0.749615 0.70239002,2.51155 0.92686002,2.650276 0.14156,0.08749 0.25739,0.397203 0.25739,0.688245 0,0.291041 0.11906,0.455583 0.26458,0.365646 0.14553,-0.08994 0.26459,-0.03342 0.26459,0.125595 0,0.396663 1.43401,1.7658184 2.34036,2.2345119 1.11932,0.5788237 1.66325,0.3691864 2.7491,-1.0595609 0.57863,-0.761336 1.21316,-1.313175 1.53046,-1.331002 0.5079,-0.02854 0.53127,0.07141 0.37111,1.5874996 -0.27412,2.5948586 -0.85595,5.4325544 -1.29387,6.3103731 -0.22302,0.4470638 -0.40549,0.9302247 -0.40549,1.0736923 0,0.6989656 -5.38705,8.2568063 -5.88526,8.2568063 -0.15873,0 -0.30742,0.255591 -0.33044,0.567981 -0.023,0.312389 -0.24124,0.767379 -0.48495,1.011087 -0.41442002,0.414417 -0.44362002,0.411906 -0.45115002,-0.03881 -0.008,-0.463 -0.0189,-0.463198 -0.28548,-0.0051 -0.19461,0.334508 -0.19249,0.579231 0.007,0.819735 0.20982,0.252828 0.16041,0.4552 -0.18819,0.770675 -0.41508,0.375645 -0.56016,0.382458 -1.18968998,0.05585 -0.65733,-0.341016 -0.71696,-0.330546 -0.71696,0.125908 0,0.2738217 -0.11906,0.5714437 -0.26459,0.6613807 -0.14552,0.08994 -0.26458,0.45937 -0.26458,0.820963 0,0.477739 0.12564,0.636193 0.45964,0.579699 0.34681,-0.05866 0.46274,0.111239 0.47226,0.692139 0.009,0.51884 0.1606,0.791602 0.46640998,0.836483 0.24957,0.03663 0.45377,-0.03247 0.45377,-0.153548 0,-0.121081 0.35719,-0.298601 0.79375,-0.394486 0.43657,-0.09588 0.79375002,-0.281194 0.79375002,-0.411797 0,-0.130604 0.28968,-0.427263 0.64372,-0.659241 0.50074,-0.328097 0.76519,-0.356767 1.19062,-0.129083 0.68803,0.368221 0.68384,0.4835 -0.0794,2.185075 -1.42105,3.168192 -2.27394002,5.159515 -2.63783002,6.158796 -0.21196,0.582083 -0.75302,2.064141 -1.20234,3.293461 -1.13710998,3.111027 -1.86329998,6.044589 -2.05359998,8.295799 -0.14933,1.766617 -0.10852,1.992648 0.52952,2.932853 0.62451,0.920271 1.22273,2.491393 1.22657,3.221357 7.9e-4,0.154536 -0.35571,0.545053 -0.79228,0.867818 -0.43656,0.322765 -0.79375,0.765842 -0.79375,0.984618 0,0.218776 -0.38695,0.790903 -0.85989,1.271397 -0.47294,0.480491 -1.75711,1.815975 -2.8537,2.967743 -1.0966,1.151766 -2.48177,2.480141 -3.07817,2.951949 -0.9125796,0.721923 -1.1336896,0.798404 -1.3956596,0.482745 -0.25179,-0.303384 0.21464,-1.026194 2.4401196,-3.781372 1.51328,-1.873461 3.17494,-4.035184 3.69258,-4.80383 l 0.94115,-1.397537 -0.50154,-1.426996 c -1.29312,-3.679145 -0.23227,-9.831062 3.08201,-17.872741 0.64841998,-1.573297 1.17893998,-2.897835 1.17893998,-2.94342 0,-0.04559 -0.42592,-0.312256 -0.94648998,-0.592601 -2.27688,-1.22618 -2.30351,-4.104873 -0.0732,-7.9171207 0.48808998,-0.834303 1.00800998,-1.728433 1.15536998,-1.986955 0.14737,-0.2585243 0.59079,-0.8759904 0.98538,-1.3721476 2.84220002,-3.57379044 5.13412002,-7.1603046 4.85957002,-7.6045294 -0.0804,-0.1300428 -0.70647,-0.393327 -1.39133,-0.5850758 -2.39058,-0.6693244 -5.22515002,-4.2694963 -6.28343,-7.9805875 -0.42086,-1.475803 -0.46836,-1.527807 -2.11216,-2.312318 -1.07822,-0.514591 -2.01256,-1.207042 -2.60394,-1.929826 -3.6701496,-4.485613 -5.3267196,-9.365715 -5.3448896,-15.745493 -0.005,-1.928151 -0.0407,-3.505729 -0.0782,-3.505729 -0.0375,0 -0.42009,0.368162 -0.85011,0.818136 -0.43002,0.449977 -0.91025,0.738783 -1.06719,0.641792 -0.15693,-0.09699 -0.25261,-0.02574 -0.21263,0.158338 0.12967,0.596926 -0.78964,0.544642 -1.36963,-0.0779 -0.31043,-0.333206 -0.82727,-1.441178 -1.14854,-2.462163 -0.51035,-1.621887 -0.58363,-2.441103 -0.58018,-6.48654 0.003,-4.029117 0.0826,-4.903787 0.6101,-6.737585 0.74648,-2.595242 1.80549,-4.617881 3.55378,-6.787483 0.73616,-0.913564 1.20686,-1.704898 1.04599,-1.758519 -0.16086,-0.05362 -0.5961,-0.336328 -0.96721,-0.62824 -1.2228,-0.961858 -0.87901,-3.078151 1.54846,-9.531902 3.0347496,-8.068294 6.7008796,-14.727131 12.02548958,-21.842009 1.11275002,-1.486898 2.24052002,-2.777691 2.50615002,-2.86843 0.26563,-0.09074 0.41747,-0.230473 0.33742,-0.310526 -0.24538,-0.245377 1.9885,-2.728777 2.28806,-2.543638 0.1574,0.09728 0.20356,0.04875 0.10513,-0.110519 -0.31859,-0.515485 7.4048304,-7.344113 11.3231404,-10.011303 4.45336,-3.0314 7.44761,-4.79025 11.52475,-6.7697 2.95897,-1.43658 8.14922,-3.38972 9.00782,-3.38972 0.64765,0 0.64988,0.0216 -0.14109,-1.36206 -1.86105,-3.25544 0.69532,-6.04627 5.5383,-6.04627 2.94617,0 5.81962,1.02462 8.40253,2.9962 l 1.19756,0.91412 0.14951,-1.97689 c 0.20076,-2.65447 0.87096,-4.41848 2.1009,-5.52965 2.70371,-2.44264 4.93096,0.29886 7.0721,8.70493 l 0.72841,2.85976 1.1502,-1.40455 c 3.45875,-4.22362 7.12726,-6.78843 12.16827,-8.50735 6.34534,-2.16369 13.34387,-1.27657 15.0479,1.90744 0.53733,1.00403 0.26812,2.60835 -0.56179,3.3478 -0.40803,0.36356 -0.74187,0.75159 -0.74187,0.86228 0,0.1107 1.22039,0.42121 2.71198,0.69003 4.88264,0.87997 11.817688,3.20006 16.371258,5.47693 4.53156,2.26587 11.34384,6.55571 11.34384,7.14347 0,0.13341 0.099,0.21279 0.2199,0.17641 0.306,-0.092 1.27735,0.63285 4.37822,3.26735 8.6397,7.340301 16.22746,17.872236 20.09149,27.887334 2.12998,5.520634 3.53208,11.218557 3.80246,15.452618 0.14166,2.218359 0.25878,2.680758 0.92728,3.661037 1.11917,1.641126 2.78689,5.261136 3.24065,7.034233 0.96914,3.787013 0.76724,7.639965 -0.61726,11.779276 -0.55878,1.670627 -0.69967,2.444268 -0.52756,2.896952 0.98138,2.581241 -1.05325,4.375896 -3.35103,2.955793 -0.99605,-0.615596 -1.06101,-0.555342 -1.1504,1.066964 -0.17739,3.219285 -2.15598,9.785614 -4.18446,13.886893 -1.88667,3.814575 -3.3322,5.57244 -7.31244,8.8924661 -0.24924,0.2078963 0.19277,1.1654313 0.53797,1.1654313 0.11938,0 0.18434,0.098147 0.14435,0.2181039 -0.04,0.1199568 0.0441,0.1459283 0.18681,0.057714 0.14274,-0.088212 0.46023,0.1459389 0.70555,0.5203401 0.55572,0.8481324 0.18655,1.8639895 -0.81588,2.2451139 -0.8394,0.3191404 -2.92872,-0.057333 -4.35427,-0.7845928 -0.57881,-0.2952882 -1.11666,-0.5368872 -1.19522,-0.5368872 -0.26547,0 -0.14506,1.7818761 0.2673,3.9556768 0.64975,3.4251898 1.65707,6.5926832 2.47454,7.7811432 4.12189,5.9924927 7.05919,13.8781047 7.98125,21.4268117 0.30153,2.468557 0.21788,6.217817 -0.16769,7.516601 -0.15118,0.509233 -0.0282,0.655277 0.84629,1.004567 3.36825,1.345427 7.02234,3.689308 6.52576,4.185886 -0.0917,0.09175 -0.031,0.166811 0.13508,0.166811 0.44426,0 1.10922,1.43483 1.10922,2.393434 0,1.796958 -1.73678,3.314272 -5.52146,4.823741 -1.11054,0.442925 -2.10728,0.880268 -2.21498,0.971872 -0.16748,0.142444 0.61913,1.213186 3.50828,4.775536 1.71279,2.111875 4.36035,6.724237 5.23969,9.128125 3.46756,9.47947 -0.52385,15.909117 -13.18236,21.235065 -7.70033,3.239842 -16.5398,5.390002 -27.64896,6.725478 -4.01179,0.482272 -24.379518,0.489019 -26.987488,0.0089 -4.17104,-0.76781 -7.10558,-2.234851 -9.35691,-4.677714 l -1.15482,-1.253067 -5.90747,0.03906 -5.90748,0.03906 -1.80286,1.802868 c -3.08322,3.083219 -5.87618,4.117435 -12.21068,4.521541 -4.66837,0.297818 -12.57141,0.288896 -18.29624,-0.02066 z m 22.56479,-3.304659 c 2.1695,-0.562174 3.82253,-1.436539 5.14835,-2.723213 1.61973,-1.571893 2.25121,-2.980182 2.38866,-5.327089 0.14406,-2.459622 -0.50932,-4.592934 -2.1831,-7.12802 -1.0135,-1.535023 -4.1062,-5.081368 -4.1062,-4.708504 0,0.07827 0.29649,0.779214 0.65887,1.557647 0.88036,1.891109 0.87336,3.374938 -0.0209,4.437742 -0.60337,0.717071 -0.84766,0.813486 -2.05052,0.809305 -0.75105,-0.0026 -2.49664,-0.179067 -3.87909,-0.392128 -1.38245,-0.213061 -4.29948,-0.386591 -6.48229,-0.385623 -5.16992,0.0024 -7.25601,0.620205 -9.26042,2.742997 -0.98063,1.038553 -1.17859,2.689269 -0.51992,4.335457 1.16029,2.899833 6.88831,6.27503 11.76472,6.932276 2.67842,0.361 6.85095,0.287316 8.54187,-0.150847 z m 39.24852,-0.115258 c 1.97754,-0.320977 4.40996,-1.081368 5.95662,-1.862084 1.51598,-0.765226 3.844628,-2.754993 4.335808,-3.704823 0.53486,-1.034309 0.48945,-2.850568 -0.099,-3.959765 -0.59964,-1.130284 -2.500668,-2.616284 -4.197778,-3.281322 -1.89743,-0.74354 -7.65352,-0.880793 -11.98634,-0.285811 -3.78067,0.51916 -4.16186,0.438806 -4.85583,-1.023639 -0.56637,-1.193535 -0.53709,-2.422633 0.0907,-3.805621 0.28073,-0.618463 0.46244,-1.124479 0.4038,-1.124479 -0.2756,0 -2.15711,2.147909 -3.12887,3.571875 -1.71618,2.514809 -2.28131,4.151659 -2.28861,6.628781 -0.007,2.350349 0.53567,3.821734 2.1126,5.728779 1.03397,1.250418 4.29386,2.864694 6.30778,3.123567 2.26386,0.291002 5.53763,0.288571 7.34915,-0.0054 z m -23.91227,-5.603629 c 1.92844,0.04535 3.90115,0.0087 4.38381,-0.08145 0.82991,-0.155006 0.86728,-0.209759 0.68841,-1.008499 -0.36718,-1.639549 -0.18467,-4.499763 0.39115,-6.130062 0.71158,-2.014675 2.58335,-4.836189 4.6123,-6.952609 0.8725,-0.910112 1.52596,-1.715154 1.45213,-1.788986 -0.0738,-0.07383 -1.07545,0.01212 -2.22581,0.190992 -2.99783,0.466148 -14.30792,0.391605 -17.83428,-0.117544 -1.52797,-0.220612 -2.81947,-0.364484 -2.87001,-0.319714 -0.0505,0.04477 0.82335,1.128268 1.94197,2.407772 1.11862,1.279503 2.21838,2.686751 2.44391,3.127213 0.22553,0.440465 0.48825,0.860377 0.58384,0.933138 0.39976,0.304308 1.59707,3.527282 1.87049,5.035065 0.16234,0.895297 0.21472,2.27179 0.11637,3.058875 -0.15178,1.214834 -0.11422,1.431059 0.24857,1.431059 0.23505,0 0.43676,0.148828 0.44825,0.33073 0.0115,0.181901 0.0708,0.211666 0.13177,0.06615 0.0685,-0.163512 1.45026,-0.233084 3.61713,-0.182126 z m 10.21749,-18.875408 c 4.36013,-0.612053 8.76688,-1.901044 8.76688,-2.564347 0,-0.173704 0.23271,-2.344997 0.51714,-4.825095 0.81705,-7.124488 1.08725,-10.004533 0.95135,-10.140436 -0.0693,-0.06934 -1.70804,0.06722 -3.64155,0.303474 -9.9532,1.216174 -21.58699,1.227297 -30.88886,0.02953 -3.48759,-0.449083 -3.79232,-0.464704 -3.61981,-0.185574 0.0696,0.112644 0.50283,3.535691 0.9627,7.606771 0.48224,4.269186 0.98395,7.632826 1.1854,7.947437 1.28059,1.999938 16.73307,3.096344 25.76675,1.82824 z m 3.60751,-19.92918 c 3.44648,-0.364665 5.4761,-0.808929 5.35502,-1.17216 -0.053,-0.159134 -0.8629,-0.549159 -1.79969,-0.866725 -3.69206,-1.251587 -5.35178,-2.232525 -6.16602,-3.644278 -0.8054,-1.396426 -0.48185,-2.428943 1.04307,-3.32867 1.12725,-0.665093 0.94988,-1.12028 -0.63636,-1.633095 -2.51445,-0.812901 -4.5429,-2.434558 -4.5429,-3.631864 0,-1.76422 4.00093,-4.26603 7.54042,-4.715078 0.72772,-0.09233 1.45645,-0.272799 1.61941,-0.401053 0.16296,-0.128252 0.67585,-1.004192 1.13976,-1.946534 0.46391,-0.94234 1.22355,-2.121239 1.68809,-2.619772 0.46454,-0.498536 0.99445,-1.154565 1.17759,-1.457844 0.30683,-0.508127 0.27331,-0.551418 -0.42691,-0.551418 -0.41794,0 -1.34168,0.110279 -2.05276,0.24506 -3.73757,0.70844 -22.90395,0.917437 -28.67726,0.312706 -1.67349,-0.175289 -3.2213,-0.328356 -3.43959,-0.340143 -0.21828,-0.0118 -1.34937,-0.184478 -2.51354,-0.383752 -2.52902,-0.432898 -3.0427,-0.449083 -3.0427,-0.09586 0,0.146944 0.23202,0.465839 0.51561,0.708655 0.28359,0.242813 0.45333,0.542255 0.37721,0.665424 -0.0761,0.123166 -0.0376,0.191225 0.0857,0.151241 0.23721,-0.07696 2.3502,2.142104 2.29845,2.413831 -0.0167,0.08761 0.058,0.397425 0.16587,0.688467 0.10792,0.291042 0.30264,0.885238 0.43272,1.320435 0.20734,0.693721 0.39144,0.813429 1.49338,0.971055 2.16669,0.309933 4.76782,1.289905 6.08468,2.292392 1.77252,1.349362 1.97713,1.745803 1.81474,3.516072 -0.0527,0.574257 -1.68647,1.67327 -3.835,2.579719 -0.96938,0.408972 -1.8447,0.825783 -1.94517,0.926248 -0.10046,0.100465 0.25719,0.545229 0.79479,0.988364 1.04013,0.857361 1.26085,1.839397 0.72828,3.240175 -0.32014,0.842034 -2.26059,2.202095 -4.61372,3.233748 -1.01862,0.446579 -1.89215,0.932333 -1.94119,1.079457 -0.1187,0.356084 3.18094,1.135221 6.14262,1.450449 6.34986,0.675849 18.77064,0.678196 25.13542,0.0048 z m -4.36563,-27.82763 c 7.06581,-0.402807 12.7,-1.149086 12.7,-1.682184 0,-0.175183 0.29147,-3.527941 0.64771,-7.4505737 0.92968,-10.2370116 0.91459,-9.2537803 0.14155,-9.2201201 -0.36133,0.015743 -2.85962,0.3087899 -5.55176,0.6512401 -4.36004,0.5546117 -5.99319,0.6237499 -14.94895,0.6328516 -10.45895,0.010636 -14.99771,-0.2492375 -21.00563,-1.2026794 -1.8032,-0.2861627 -3.328,-0.4708339 -3.38846,-0.4103819 -0.0605,0.060455 0.0157,1.3433927 0.16934,2.85097256 0.15359,1.50758254 0.52967,5.36043114 0.83575,8.56189014 0.30607,3.2014577 0.60051,5.8670627 0.6543,5.9235647 0.0538,0.0565 1.85735,0.329414 4.00791,0.606473 6.99782,0.901528 17.56467,1.204902 25.73824,0.738947 z m 5.02709,-20.3631448 c 4.88698,-0.4514903 10.77593,-1.4520333 11.62126,-1.9744795 0.37145,-0.2295683 0.36675,-2.4772274 -0.007,-3.5505887 -0.53406,-1.532007 -0.61408,-1.538804 -8.04196,-0.683234 -6.4997,0.748662 -12.10986,0.9899624 -19.18229,0.825056 -7.89861,-0.184169 -8.91368,-0.293812 -9.13355,-0.986568 -0.1994,-0.628261 -1.47222,-1.029332 -3.60959,-1.137409 -0.95062,-0.04807 -1.84739,-0.160939 -1.99283,-0.250828 -0.50252,-0.310576 -4.13525,-0.184552 -4.47505,0.155247 -0.0954,0.09536 -0.88397,0.253772 -1.75247,0.352033 -1.37182,0.155205 -1.64103,0.280519 -2.05106,0.95476 -0.61059,1.004035 -0.86655,2.6388374 -0.5454,3.4835117 0.18958,0.4986311 0.60451,0.770546 1.65391,1.0838417 2.32245,0.6933618 8.45059,1.4709113 15.68833,1.9905662 3.93548,0.2825565 17.72575,0.1170914 21.82813,-0.2619084 z m -2.62076,-8.4879072 c 2.24178,-0.15571 5.20706,-0.4236 6.58951,-0.595312 l 2.51354,-0.312203 -0.0528,-0.79375 c -0.0975,-1.467602 -1.20122,-5.12758 -1.71136,-5.675154 -0.65702,-0.705226 -1.82887,-0.704001 -9.49853,0.0099 -7.70473,0.717201 -18.23666,0.601491 -22.86861,-0.251251 -3.75977,-0.692171 -3.89126,-0.617318 -5.07773,2.890687 -1.28393,3.796128 -1.45739,3.514664 2.49804,4.053401 1.85539,0.252706 4.6236,0.554408 6.15156,0.670449 4.21643,0.320214 16.86505,0.322101 21.45633,0.0032 z m -0.29946,-8.638003 0.65165,-0.260379 -0.6014,-0.32186 c -1.94915,-1.043154 -16.69777,-1.120288 -21.33941,-0.111606 l -0.79375,0.172492 0.79261,0.217818 c 0.43594,0.119801 2.81719,0.293098 5.29167,0.385104 2.47448,0.09201 4.51893,0.183777 4.54321,0.203933 0.21725,0.180326 10.95964,-0.08741 11.45542,-0.285502 z m 70.296588,-13.831921 c -0.2005,-1.00249 -0.92186,-2.117799 -1.36975,-2.117799 -0.1886,0 -0.65624,-0.372358 -1.03919,-0.827466 -0.64743,-0.769437 -0.68785,-0.783351 -0.57631,-0.198437 0.23087,1.210627 0.50637,1.695947 1.58935,2.799823 1.30284,1.327984 1.60774,1.403096 1.3959,0.343879 z M 40.782562,-115.81599 c -0.246,-0.246 -0.53596,-0.35859 -0.64435,-0.2502 -0.10839,0.10839 -0.0219,0.30784 0.19214,0.44322 0.64414,0.40737 0.93041,0.28518 0.45221,-0.19302 z m -58.6682,175.877758 c 0,-0.13906 0.30067,-0.695902 0.66816,-1.23743 0.36749,-0.541528 0.73758,-1.261189 0.82243,-1.59925 0.15619,-0.622295 0.89065,-0.874614 0.89065,-0.305972 0,0.169773 0.0695,0.239226 0.15434,0.154339 0.27234,-0.272338 1.16225,0.833118 1.00357,1.246643 -0.16002,0.416983 -2.72314,1.994503 -3.24063,1.994503 -0.16419,0 -0.29852,-0.113776 -0.29852,-0.252833 z m 3.17375,-3.585128 c -0.17919,-0.215905 -0.26336,-0.631312 -0.18704,-0.923128 0.0763,-0.291817 0.0162,-0.530577 -0.13346,-0.530577 -0.18535,0 -0.18463,-0.105537 0.002,-0.330729 0.15096,-0.181901 0.27379,-0.429737 0.27294,-0.550744 -0.002,-0.345868 1.71542,-2.167736 2.22935,-2.364359 0.63287,-0.242125 0.5897,-0.06129 -0.34981,1.465612 -0.44706,0.726559 -0.82958,1.543399 -0.85005,1.8152 -0.0205,0.271804 -0.14484,0.494186 -0.27637,0.494186 -0.13152,0 -0.17689,0.238006 -0.10082,0.528902 0.17624,0.673952 -0.18216,0.907548 -0.60701,0.395637 z m 1.11347,-5.410422 c 0.36506,-0.584562 0.6221,-0.511699 0.38397,0.108847 -0.0862,0.224557 -0.28048,0.408287 -0.4318,0.408287 -0.17414,0 -0.15658,-0.189826 0.0478,-0.517134 z m 77.7336,-91.049806 c -2.09469,-0.400625 -5.68854,-2.083348 -5.68854,-2.663505 0,-0.196951 -0.1477,-0.358092 -0.32822,-0.358092 -0.75363,0 -2.40549,-2.472405 -2.04335,-3.058361 0.13219,-0.21389 0.0965,-0.264012 -0.10109,-0.141904 -0.40578,0.250785 -0.40352,-0.854163 0.003,-1.707925 0.16993,-0.356434 0.6557,-0.932889 1.07949,-1.281015 l 0.77054,-0.632955 0.53457,0.534572 c 0.44012,0.440122 0.48159,0.633577 0.23471,1.094888 -0.62585,1.169414 1.84649,3.320759 4.74466,4.128635 2.28666,0.637416 6.44039,0.650021 8.59896,0.02609 3.10657,-0.897948 5.02171,-2.579412 4.71825,-4.142544 -0.10209,-0.525841 0.0253,-0.785989 0.55456,-1.132797 0.67243,-0.440592 0.69265,-0.435571 0.94779,0.235503 0.14339,0.377131 0.36257,0.622734 0.48709,0.545779 0.63033,-0.389567 1.08594,2.315956 0.55657,3.305088 -0.44282,0.827405 -2.94545,3.417572 -3.30208,3.417572 -0.17904,0 -0.47374,0.178594 -0.6549,0.396875 -0.18115,0.218282 -0.52315,0.397608 -0.76,0.398505 -0.23684,7.94e-4 -0.76112,0.174025 -1.16506,0.384728 -1.6488,0.860052 -6.3517,1.193221 -9.18744,0.650865 z m 2.48172,-6.335392 c -3.7669,-0.526058 -3.82646,-3.945578 -0.0856,-4.91594 2.68958,-0.697669 5.27682,0.507923 5.27682,2.458879 0,1.641863 -2.51264,2.831131 -5.1912,2.457061 z m -43.28305,-2.125401 c -0.65989,-0.384701 -0.86676,-1.881407 -0.38659,-2.796892 1.62217,-3.092828 6.97036,-5.244745 11.51484,-4.633153 3.67909,0.495128 6.34015,1.745692 8.10703,3.809886 1.01511,1.185932 1.17207,2.111658 0.51668,3.047357 -0.57567,0.821889 -1.41488,0.740691 -3.57199,-0.345614 -2.37774,-1.197412 -5.36647,-1.830258 -7.57506,-1.603981 -2.31873,0.237561 -4.80995,1.05936 -6.04589,1.994403 -1.09427,0.827865 -1.79622,0.972695 -2.55902,0.527994 z m 85.648208,-0.667589 c -3.49593,-2.426573 -8.84753,-2.510993 -13.420998,-0.211719 -0.97864,0.492 -2.07146,0.894545 -2.4285,0.894545 -0.91145,0 -1.48071,-0.673277 -1.48071,-1.75129 0,-1.231924 1.88654,-3.130523 4.23333,-4.260402 4.276908,-2.059147 8.504208,-2.106171 12.423938,-0.138208 2.51635,1.263375 4.39032,3.371855 4.13434,4.651721 -0.20518,1.025914 -0.87656,1.766795 -1.58418,1.748184 -0.30487,-0.008 -1.14962,-0.427791 -1.87722,-0.932831 z"
       id="path2594" /></g></svg>
