<?xml version="1.0" encoding="UTF-8" standalone="no"?>
<!-- Created with Inkscape (http://www.inkscape.org/) -->

<svg
   width="191.31783mm"
   height="238.26294mm"
   viewBox="0 0 191.31783 238.26294"
   version="1.1"
   id="svg1"
   xml:space="preserve"
   xmlns="http://www.w3.org/2000/svg"
   xmlns:svg="http://www.w3.org/2000/svg"><defs
     id="defs1" /><g
     id="layer1"
     transform="translate(52.775334,-25.925431)"><path
       style="fill:#000000"
       d="m -3.3734649,263.78904 c -6.262908,-1.68386 -10.1649471,-8.28238 -8.5955331,-14.53542 0.11332,-0.4515 -0.153341,-0.75188 -1.397848,-1.57462 -4.73535,-3.13053 -9.845523,-7.88124 -12.578558,-11.69376 -7.181199,-10.0176 -8.584329,-23.05327 -4.16726,-38.71559 1.897879,-6.72961 3.878612,-11.76172 7.133934,-18.12395 4.962552,-9.69886 10.496361,-17.28736 17.7642941,-24.36015 8.50234,-8.27404 19.3861539,-14.39433 30.3001999,-17.03869 l 2.416233,-0.58542 0.575879,-2.82037 c 0.316734,-1.55121 0.806236,-3.37822 1.087782,-4.06004 0.298643,-0.72322 0.515776,-1.8806 0.521199,-2.77813 0.0051,-0.84615 0.179523,-2.31236 0.38758,-3.25824 0.497655,-2.26248 0.49465,-2.29935 -0.201723,-2.47412 -0.329229,-0.0826 -1.642417,-1.28091 -2.918194,-2.66283 -3.761756,-4.07474 -7.797912,-6.44983 -13.661605,-8.0392 -2.289045,-0.62045 -3.004587,-0.68756 -7.4278519,-0.69663 -3.956946,-0.008 -5.24965202,0.0843 -6.74687402,0.48245 -2.15537498,0.57313 -4.76232998,1.7033 -6.49767198,2.81686 -2.071755,1.32945 -3.0218041,0.99523 -4.3269871,-1.52218 -2.175954,-4.19694 -6.192365,-8.11572 -11.038219,-10.7699 -4.301492,-2.356015 -8.828504,-3.4407 -14.252746,-3.414992 -4.175579,0.01979 -6.384114,0.507667 -9.93499,2.194682 -1.235346,0.58691 -2.487817,1.06711 -2.783269,1.06711 -2.243715,0 -3.523609,-2.799635 -2.903525,-6.351163 0.754836,-4.323323 2.602705,-9.355436 5.323095,-14.495846 12.045009,-22.76007 39.9321011,-42.456317 67.881446,-47.943675 6.776904,-1.330525 11.054035,-1.661731 19.146407,-1.482629 3.8563,0.08535 7.75389,0.229698 8.66131,0.320776 1.46326,0.146868 1.66665,0.109664 1.79838,-0.32895 1.08475,-3.611933 3.90143,-5.764396 6.25587,-4.780645 2.07598,0.8674 3.43047,3.511464 3.03795,5.930304 -0.0938,0.57824 -0.0331,0.930003 0.17077,0.989896 0.17399,0.0511 1.20931,0.296647 2.30072,0.545659 7.83677,1.788021 18.96675,6.222324 26.75014,10.657543 9.32528,5.313834 19.423861,13.581826 25.271891,20.690819 0.41899,0.509323 0.97922,1.164167 1.24496,1.455209 2.65319,2.905783 7.8063,10.141146 10.74103,15.081249 5.216,8.780209 8.57502,16.718468 10.69188,25.267703 1.39506,5.63415 1.8696,9.23233 1.88429,14.2875 0.012,4.12805 -0.0278,4.48026 -0.73187,6.4722 -0.89356,2.52815 -2.77964,5.46248 -3.99317,6.21248 -1.33673,0.82615 -2.18064,0.70746 -3.29705,-0.46371 -0.52859,-0.5545 -1.61591,-1.69974 -2.41627,-2.54497 -4.71669,-4.98108 -12.77412,-7.53679 -21.38033,-6.78157 -7.752181,0.68029 -12.911971,2.98628 -18.485181,8.26134 -2.74394,2.59715 -3.32007,2.53065 -5.54151,-0.63959 -2.20633,-3.14866 -5.37272,-6.14494 -8.32501,-7.87775 -5.06698,-2.97401 -9.10462,-4.0492 -15.19193,-4.04549 -6.61162,0.004 -11.45986,1.54738 -16.17513,5.14906 -0.84097,0.64236 -1.79478,1.11213 -2.50379,1.23317 l -1.14531,0.19552 -0.86055,4.22767 c -1.12447,5.52426 -1.12669,5.41807 0.11343,5.41924 0.5457,5.2e-4 2.89719,0.12191 5.22552,0.26976 20.0331,1.27211 37.49566,10.02807 49.43598,24.78787 5.78977,7.15691 11.261241,17.3658 16.065031,29.97476 4.35514,11.43137 6.04321,18.44299 6.26301,26.01413 0.18981,6.5383 -0.48963,10.5201 -2.50819,14.69907 -2.49463,5.16456 -7.65195,7.96544 -11.92355,6.47555 l -1.405231,-0.49013 -3.09269,3.04426 c -2.54624,2.50637 -5.38463,4.78404 -8.0766,6.48108 -0.37737,0.2379 -0.38112,0.42469 -0.0371,1.85208 1.73147,7.1849 -2.90097,13.90477 -10.28797,14.92386 -4.25295,0.58673 -8.2334,-0.94883 -12.01015,-4.63321 l -2.29944,-2.24321 -3.44695,0.66466 c -14.66027,2.82686 -28.370134,2.9422 -44.401858,0.37356 l -3.648667,-0.5846 -1.907583,1.86976 c -2.4579319,2.40919 -4.3150669,3.64865 -6.4592039,4.31091 -2.057502,0.63549 -5.334316,0.68449 -7.465032,0.11162 z m 7.962307,-3.76969 c 1.848241,-0.93812 4.164659,-2.78712 3.870155,-3.08921 -0.101306,-0.10392 -1.946774,-0.69595 -4.101042,-1.31563 -5.11576602,-1.47156 -7.316085,-2.26873 -10.531433,-3.81549 l -2.645833,-1.2728 -0.19571,0.68995 c -0.251598,0.88696 0.219836,3.5083 0.885721,4.92491 0.923285,1.96421 3.227352,3.90682 5.527697,4.66053 0.363802,0.1192 1.74888198,0.18564 3.07795498,0.14765 2.12713502,-0.0608 2.61958202,-0.17215 4.11249002,-0.92991 z m 75.0195769,0.32339 c 1.94963,-0.65744 3.65791,-2.0579 4.75209,-3.89579 0.89065,-1.49604 0.98048,-1.83383 1.08985,-4.09828 0.14066,-2.9123 -0.043,-3.26242 -1.31794,-2.51266 -3.17499,1.86715 -10.07771,4.5832 -14.37048,5.65444 -0.72761,0.18157 -1.43621,0.43182 -1.57467,0.5561 -0.5835,0.52375 3.05391,3.54914 5.14797,4.28178 1.56433,0.54731 4.67169,0.55445 6.27318,0.0144 z m -26.38294,-4.58012 c 17.56728,-2.32657 31.24883,-7.87744 40.21666,-16.31669 0.65485,-0.61625 1.61278,-1.51762 2.12875,-2.00305 0.51596,-0.48543 1.20915,-1.19706 1.54041,-1.5814 l 0.60229,-0.69879 -0.67464,-1.33134 c -1.23469,-2.43654 -1.35392,-4.26981 -0.70456,-10.83346 0.32321,-3.26697 0.55222,-7.24782 0.52102,-9.05696 -0.0436,-2.52989 0.0247,-3.27882 0.31606,-3.46326 1.05076,-0.66523 2.13167,0.17313 2.59484,2.01256 0.411281,1.63333 0.360081,5.3727 -0.13141,9.59676 -0.57567,4.94761 -0.4201,9.02117 0.407361,10.66658 1.60195,3.18549 5.0169,3.46899 7.83541,0.65048 1.61482,-1.61481 2.73198,-3.68903 3.7442,-6.95176 0.6943,-2.23798 0.72197,-2.55114 0.72002,-8.14826 -0.002,-5.30494 -0.0648,-6.1153 -0.71086,-9.14335 -1.21619,-5.70066 -3.5581,-12.93793 -6.75878,-20.88686 -1.04008,-2.58306 -4.41148,-9.88693 -5.190491,-11.24479 -0.33394,-0.58208 -1.11698,-2.01083 -1.7401,-3.175 -7.20227,-13.4561 -18.48215,-23.66202 -32.41306,-29.32701 -4.54414,-1.84787 -7.56381,-2.75304 -12.54193,-3.75954 -4.66527,-0.94325 -11.31318,-1.57319 -14.70284,-1.39319 l -1.58019,0.0839 -0.216846,1.19062 c -0.185869,1.02054 -6.337042,32.35185 -7.090463,36.11563 -0.14565,0.7276 -0.721187,3.76369 -1.278973,6.74687 -0.557786,2.98318 -1.649498,8.73588 -2.426026,12.78379 -0.921349,4.80282 -1.317734,7.42264 -1.140916,7.54062 0.641856,0.42829 0.574683,1.47344 -0.442735,6.88859 -2.237529,11.90911 -3.199198,16.31925 -3.869997,17.74748 -1.831657,3.89987 -6.793841,6.66206 -11.1612939,6.21291 -8.07993602,-0.83095 -13.416671,-7.35234 -10.474694,-12.79989 0.48394498,-0.8961 1.21751298,-1.75164 1.92834798,-2.24896 1.03780802,-0.72608 1.34289702,-0.80267 3.19762102,-0.80267 1.818541,0 2.172171,0.0844 3.127842,0.74671 0.716606,0.4966 1.260652,1.17247 1.624354,2.01791 0.619666,1.44046 1.11666,1.67887 2.5048889,1.20162 1.410182,-0.4848 2.202892,-1.07431 3.08843,-2.29676 1.726609,-2.38351 1.648161,-4.40948 -0.243625,-6.2918 -2.41525,-2.40317 -5.4941149,-3.32863 -10.4070789,-3.12822 -2.77143402,0.11305 -3.29146602,0.22719 -7.385153,1.62098 -5.258114,1.79023 -6.9118011,1.93969 -9.1455331,0.82658 -1.735618,-0.8649 -2.475559,-2.16447 -1.810398,-3.17963 0.543609,-0.82965 1.388505,-0.82432 2.527423,0.016 1.495751,1.10353 3.1037331,0.93495 8.0855781,-0.8477 l 4.21754598,-1.50916 4.36562502,-0.0122 c 4.102367,-0.0115 4.483929,0.031 6.3274739,0.70407 1.079017,0.39394 2.047355,0.66341 2.151861,0.59883 0.104506,-0.0646 0.327647,-1.05874 0.495869,-2.20921 0.397248,-2.71679 0.689262,-3.69681 1.30325,-4.37377 0.327117,-0.36067 0.743333,-1.75413 1.196943,-4.00728 0.38249,-1.89989 0.695436,-3.58221 0.695436,-3.7385 0,-0.1934 -0.917267,-0.24069 -2.871853,-0.14804 -4.8027179,0.22764 -7.9307549,-0.88698 -10.8900199,-3.88045 -2.81712602,-2.8497 -3.965209,-5.65265 -3.965209,-9.68076 0,-4.07198 1.36115098,-7.34629 4.23458,-10.18645 4.495202,-4.44317 10.9671519,-5.48024 16.4546119,-2.63671 0.846016,0.4384 1.575132,0.67046 1.662476,0.52914 0.08557,-0.13845 0.811737,-3.62019 1.613714,-7.73719 0.801976,-4.117 1.925613,-9.74764 2.496971,-12.51254 0.571358,-2.76489 1.11938,-5.6687 1.217826,-6.4529 l 0.178993,-1.42581 -1.031149,0.19238 c -3.027637,0.56486 -10.250796,3.39372 -14.548851,5.69787 -14.2114209,7.6186 -27.354034,23.49497 -34.718795,41.94055 -8.794448,22.02632 -7.173089,39.02255 4.799178,50.30838 3.964225,3.73693 8.160852,6.81636 12.2342261,8.97733 6.48300198,3.4393 16.095085,6.12475 27.3666339,7.64575 5.640813,0.76118 8.563079,0.89062 18.38854,0.81448 8.25402,-0.0639 10.47436,-0.16654 14.15521,-0.65402 z m 8.06979,-61.06269 c -0.82121,-0.19723 -3.95296,-1.45828 -4.10104,-1.65135 -0.0728,-0.0949 -0.54901,-0.42559 -1.05834,-0.73495 -1.17968,-0.71653 -3.13352,-2.97626 -4.18578,-4.84114 -2.66524,-4.72347 -1.98452,-11.17528 1.64331,-15.57498 4.96479,-6.02113 14.05911,-6.72867 19.87374,-1.54617 3.68976,3.28863 5.14645,7.16194 4.58643,12.19524 -0.58007,5.21353 -4.78567,10.2202 -9.91602,11.80481 -1.6611,0.51306 -5.37053,0.70201 -6.8423,0.34854 z m -2.23417,-7.97238 c 0.76507,-0.61952 0.81692,-2.00517 0.0954,-2.55109 -0.7903,-0.59801 -2.12582,-0.50203 -2.60878,0.18748 -0.60515,0.86398 -0.50376,1.68253 0.28526,2.30318 0.86045,0.67683 1.4472,0.69274 2.22807,0.0604 z m 2.12854,-6.95588 c 0.49466,-0.16503 1.29564,-0.67105 1.77996,-1.12448 3.23029,-3.02426 1.42648,-8.20762 -2.98352,-8.57333 -2.46159,-0.20413 -4.31928,0.76071 -5.20053,2.70104 -1.88797,4.1569 2.04309,8.45176 6.40409,6.99677 z m -26.976278,10.48786 c -1.464975,-0.45633 -2.290929,-1.23545 -2.84345,-2.6822 -0.364287,-0.95387 -0.382806,-1.2783 -0.110495,-1.93571 0.676585,-1.63342 2.159013,-1.36544 2.779425,0.50245 0.455762,1.37217 1.019562,1.72635 2.261281,1.42052 0.944887,-0.23272 1.309297,-0.58886 1.763157,-1.72318 0.35516,-0.88763 0.50885,-1.00717 1.29493,-1.00717 0.76708,0 0.96405,0.14136 1.40714,1.00989 0.68165,1.33614 1.21384,1.74177 2.28524,1.74177 1.05226,0 1.97281,-0.73872 1.97281,-1.58315 0,-0.72777 0.65109,-1.4331 1.32291,-1.4331 0.78872,0 1.32292,0.74686 1.32292,1.84955 0,3.42276 -4.49412,5.29028 -7.45785,3.09909 -0.62587,-0.46272 -0.84897,-0.50802 -1.21823,-0.24737 -1.70172,1.2012 -3.141379,1.49897 -4.779788,0.98861 z m -20.596644,40.37355 c 1.664845,-0.80594 3.29152,-2.45419 4.032381,-4.08586 0.340635,-0.75021 0.931271,-3.0309 1.312524,-5.06819 0.381253,-2.03729 1.157886,-6.14495 1.72585,-9.12813 0.567964,-2.98317 1.066912,-5.9002 1.108772,-6.48229 0.07078,-0.98418 0.0084,-1.09143 -0.890126,-1.53074 -0.53143,-0.25983 -1.560941,-0.54285 -2.287802,-0.62894 -1.617739,-0.19159 -1.639956,-0.15947 -2.408679,3.4826 -0.307147,1.45521 -0.614969,2.89579 -0.684049,3.20129 -0.08563,0.37867 0.252706,1.04264 1.063041,2.08619 1.589545,2.04702 2.148473,3.94695 1.766061,6.00327 -0.38972,2.09561 -0.977028,3.21709 -2.606443,4.97705 -1.88946,2.04084 -4.01617,3.01971 -6.2151259,2.86065 -1.934925,-0.13996 -2.765425,-0.7201 -3.681161,-2.57146 -0.376958,-0.7621 -0.855642,-1.49338 -1.063742,-1.62507 -0.775742,-0.49092 -2.069143,-0.26601 -2.938791,0.51102 -0.746532,0.66703 -0.846606,0.91632 -0.829265,2.06577 0.02654,1.75914 0.851791,3.28496 2.467415,4.56204 1.141882,0.9026 2.060525,1.29355 4.626444,1.96888 1.21372,0.31944 4.3003629,-0.016 5.5026959,-0.59808 z m 8.123345,-29.60509 c 0,-0.11572 0.23306,-1.33611 0.517911,-2.71198 0.284851,-1.37586 1.003643,-5.06141 1.597316,-8.19011 0.593672,-3.12869 1.192872,-6.28385 1.331555,-7.01145 0.138683,-0.72761 0.674215,-3.58511 1.190071,-6.35 0.515856,-2.7649 1.04634,-5.56287 1.178853,-6.21771 0.132513,-0.65484 0.729535,-3.75047 1.326715,-6.87917 1.165053,-6.10385 2.969618,-15.03834 4.248467,-21.03437 0.434519,-2.03729 1.44256,-6.97839 2.240091,-10.98021 0.79753,-4.00182 1.737218,-8.64526 2.088198,-10.31875 1.46828,-7.00088 2.59991,-12.45758 3.07275,-14.81666 0.71743,-3.57943 1.63278,-7.990985 3.04685,-14.684374 1.38968,-6.578001 1.6034,-7.940889 1.27664,-8.141163 -0.12593,-0.07718 -0.8838,-0.220993 -1.68417,-0.31958 l -1.45521,-0.179247 -0.46772,2.33562 c -0.44184,2.206357 -1.87541,8.743363 -2.7461,12.522078 -0.4608,1.999816 -2.032468,9.601316 -4.458437,21.563536 -0.944384,4.65667 -2.19349,10.72885 -2.775792,13.49375 -0.582302,2.76489 -1.600197,7.76552 -2.261989,11.1125 -0.661793,3.34698 -1.371969,6.79979 -1.578169,7.67291 -0.2062,0.87313 -0.856295,4.31453 -1.444655,7.64757 -0.58836,3.33303 -1.18129,6.48819 -1.317621,7.01145 -0.136331,0.52327 -0.49856,2.38015 -0.804952,4.1264 -0.306392,1.74625 -1.20352,6.50875 -1.993616,10.58333 -1.363031,7.02925 -3.566569,18.94583 -3.566569,19.28777 0,0.0875 0.446485,0.16748 0.992188,0.1777 0.545703,0.0102 1.230312,0.12093 1.521354,0.24599 0.692386,0.29753 0.926041,0.3112 0.926041,0.0542 z M 7.4026731,186.67601 c 1.14029,-1.06234 0.433898,-2.90011 -1.114731,-2.90011 -1.542811,0 -2.384249,1.57001 -1.466643,2.73656 0.675006,0.85813 1.761916,0.927 2.581374,0.16355 z m 2.8280149,-7.10589 c 2.936959,-1.35976 3.9148,-4.76618 2.138631,-7.45015 -1.818466,-2.74789 -6.4586019,-2.80305 -8.5193459,-0.10127 -0.676594,0.88706 -0.763035,1.21473 -0.763035,2.89245 0,1.575 0.10882,2.05088 0.649364,2.83975 1.419897,2.07221 4.241064,2.86248 6.4943859,1.81922 z M 132.77448,127.35351 c -0.48614,-6.98255 -3.69966,-13.75896 -9.41062,-19.84433 -8.41238,-8.963885 -20.54997,-11.625078 -30.966351,-6.78943 -2.16305,1.00416 -4.78827,2.73316 -6.52415,4.29689 l -1.35107,1.21708 0.23217,1.3987 c 0.60963,3.67282 1.58717,12.17809 1.86876,16.2596 l 0.31337,4.54216 0.80538,-0.79207 c 3.25199,-3.19823 10.11761,-6.21577 16.500031,-7.252 3.63607,-0.59034 9.52827,-0.40808 12.74806,0.39432 5.60938,1.39792 10.36198,3.8793 13.52078,7.05932 1.06926,1.07644 2.05433,1.95716 2.18906,1.95716 0.14486,0 0.17534,-1.00017 0.0746,-2.4474 z M 83.397579,120.4082 c -0.27779,-3.41445 -1.26846,-11.00074 -1.46219,-11.19698 -0.0459,-0.0465 -0.56584,0.0601 -1.1555,0.23672 -0.90486,0.27111 -1.17098,0.25642 -1.706,-0.0941 -0.61769,-0.40473 -0.82076,-0.75335 -2.03737,-3.49768 -2.30178,-5.1922 -7.28807,-10.87727 -12.89223,-14.698946 -3.17186,-2.163008 -7.70202,-4.335785 -11.88642,-5.701025 -2.09283,-0.682827 -3.84901,-1.194203 -3.90262,-1.13639 -0.0536,0.05781 -0.76818,3.319802 -1.58794,7.248864 -0.81975,3.929062 -1.66055,7.858122 -1.86844,8.731247 -0.20789,0.87312 -1.23269,5.81422 -2.27734,10.98021 -1.04465,5.16598 -1.96088,9.67829 -2.03607,10.02734 -0.15321,0.71125 -0.26784,0.7551 2.05669,-0.78659 4.67646,-3.10154 10.49088,-4.73948 16.83252,-4.74177 8.31453,-0.003 16.82442,3.40034 22.19352,8.87582 l 1.85208,1.88879 0.0893,-1.21565 c 0.0491,-0.66861 -0.0463,-2.88253 -0.21203,-4.91982 z m 51.727891,-3.10885 C 133.99953,102.72628 126.3473,85.463447 114.35119,70.434201 111.39803,66.734353 104.3032,59.35559 101.61249,57.1857 c -0.89344,-0.720505 -1.757821,-1.43488 -1.920831,-1.5875 -1.74869,-1.637186 -8.79592,-6.450987 -12.9823,-8.867911 -8.84071,-5.104006 -21.24695,-9.677689 -30.83805,-11.368751 -8.02758,-1.415389 -19.887266,-1.818978 -28.04583,-0.95441 -4.121272,0.436734 -10.751421,1.608972 -11.244791,1.988126 -0.145521,0.111833 -0.740834,0.286259 -1.322917,0.387615 -1.327149,0.231091 -8.2551009,2.556998 -11.2447909,3.775189 -6.783207,2.763915 -15.9918781,7.828441 -22.0262201,12.113842 -9.622244,6.833415 -18.441427,15.974128 -23.853083,24.722718 -1.540972,2.491164 -4.920694,8.931894 -4.920694,9.377354 0,0.133396 0.441199,-0.34013 0.980442,-1.05228 1.491156,-1.969291 3.191503,-3.713522 5.237266,-5.372435 4.473524,-3.62759 8.089288,-5.409145 14.131787,-6.962999 3.153336,-0.810893 3.584337,-0.856444 8.093211,-0.855347 4.028212,9.79e-4 5.088851,0.08846 6.879167,0.567396 4.5862871,1.226898 7.5861611,2.801001 10.76920608,5.650852 2.75574902,2.467284 5.90463302,6.925913 7.09305502,10.043339 0.194163,0.509323 0.390943,0.974588 0.437289,1.033922 0.04634,0.05933 0.769937,-0.480535 1.607982,-1.199709 3.6521789,-3.134143 7.7293539,-5.338376 13.1653829,-7.117569 5.161046,-1.689193 7.976591,-2.09831 14.419791,-2.095291 4.843807,0.0023 5.848457,0.0829 9.392707,0.753829 16.12892,3.053218 27.95976,10.843691 34.15593,22.49128 l 1.2126,2.27946 1.8949,-1.76412 c 6.15092,-5.726402 12.67265,-8.397791 20.548031,-8.416741 6.13141,-0.01475 11.8353,1.792095 17.41112,5.515401 2.89014,1.92992 6.24624,5.21732 8.65033,8.47327 1.83884,2.49039 4.04932,6.57691 5.20013,9.61345 0.28954,0.76398 0.59277,1.38906 0.67384,1.38906 0.0811,0 0.0623,-1.10133 -0.0417,-2.44739 z M 32.304403,112.92922 c 0.433664,-2.14396 1.261841,-6.16029 1.840394,-8.92519 0.578553,-2.76489 1.237718,-5.920043 1.464812,-7.011449 2.29045,-11.007833 2.7992,-13.530717 2.7992,-13.881005 0,-0.340695 -0.4604,-0.40571 -2.844268,-0.401647 -5.157656,0.0088 -10.416132,1.016291 -15.105814,2.89421 -4.684486,1.875838 -7.288828,3.570723 -11.8757729,7.728659 -0.911496,0.826245 -1.317922,1.01395 -2.195446,1.01395 -1.177883,0 -2.246624,-0.853475 -2.541888,-2.0299 -0.08502,-0.338763 -0.248893,-0.615933 -0.364154,-0.615933 -0.438919,0 -4.34889602,6.69333 -6.774282,11.596615 -1.391377,2.81288 -2.478297,5.16581 -2.415378,5.22873 0.06292,0.0629 0.65228,-0.12353 1.309692,-0.41433 2.695523,-1.19236 5.655215,-1.69314 9.998982,-1.69183 4.4973229,10e-4 6.2131599,0.24674 10.1864579,1.45672 5.250983,1.59908 9.630083,4.24548 13.487568,8.15086 2.17423,2.20123 1.901501,2.48013 3.029897,-3.09846 z m -39.9330889,-7.5215 c 1.817228,-4.01349 4.301512,-8.601651 7.29555798,-13.473982 L 1.9794501,88.170386 1.3534841,86.990429 c -1.41971202,-2.676185 -3.935131,-5.348094 -6.92475,-7.355559 -6.5321161,-4.386174 -15.8490901,-4.90259 -24.5470021,-1.360576 -6.988294,2.845813 -12.697167,8.037658 -16.736806,15.221023 -1.745272,3.103478 -1.872535,3.731445 -0.586127,2.892202 0.582322,-0.379904 2.938884,-1.320381 4.35835,-1.73937 1.629056,-0.480853 6.144057,-0.88542 7.929012,-0.710478 7.879831,0.772294 14.255653,3.291806 19.679543,7.776689 2.105687,1.74115 4.728178,4.58467 5.6188021,6.09238 0.268849,0.45513 0.552443,0.82467 0.630208,0.82121 0.07777,-0.003 0.796235,-1.45257 1.5966,-3.22023 z M 56.135889,31.394817 c 0,-0.592163 -0.1789,-1.218344 -0.41577,-1.455209 -0.78619,-0.786191 -1.49109,-0.453346 -2.09355,0.988543 -0.48948,1.171479 -0.53436,1.141266 2.1786,1.466457 0.21518,0.02579 0.33072,-0.32349 0.33072,-0.999791 z"
       id="path1" /></g></svg>
