<?xml version="1.0" encoding="UTF-8" standalone="no"?>
<!-- Created with Inkscape (http://www.inkscape.org/) -->

<svg
   width="214.99623mm"
   height="199.60355mm"
   viewBox="0 0 214.99625 199.60353"
   version="1.1"
   id="svg1"
   xml:space="preserve"
   xmlns="http://www.w3.org/2000/svg"
   xmlns:svg="http://www.w3.org/2000/svg"><defs
     id="defs1" /><g
     id="layer1"
     transform="translate(-24.531362,-53.570336)"><path
       style="fill:#000000"
       d="m 157.26471,253.04526 c -3.6044,-0.65461 -7.11222,-2.14722 -10.26079,-4.36608 -2.20621,-1.55476 -5.6285,-5.03042 -6.83732,-6.94394 -0.39408,-0.62382 -0.81719,-1.13442 -0.94025,-1.13469 -0.12305,-2.6e-4 -0.53977,0.22271 -0.92604,0.49549 -1.30372,0.92068 -4.65431,2.48472 -7.50193,3.50186 -6.33113,2.26142 -11.53647,3.15025 -18.48181,3.15584 -8.54534,0.007 -15.282242,-1.41238 -22.536192,-4.74767 -0.97907,-0.45017 -1.88581,-0.81849 -2.01499,-0.81849 -0.12918,0 -0.90135,0.64038 -1.71593,1.42306 -4.13883,3.97675 -9.26683,6.05853 -14.69432,5.96535 -4.11681,-0.0707 -7.14383,-1.1077 -10.15977,-3.48059 -1.15747,-0.91068 -3.11339,-3.39206 -3.65382,-4.63542 -0.45028,-1.03597 -0.60373,-1.05238 -1.73949,-0.1861 -1.3652,1.0413 -4.50175,2.4356 -6.83946,3.04039 -7.63243,1.97457 -15.33645,0.0355 -20.06603,-5.05044 -5.00684,-5.38414 -5.76236,-12.20995 -1.97778,-17.86837 2.27889,-3.40722 5.98166,-5.9196 11.40063,-7.73549 1.27677,-0.42784 2.80657,-1.11412 3.39955,-1.52506 1.71892,-1.19121 4.02795,-3.8964 4.96342,-5.815 2.13143,-4.37144 2.77498,-8.19383 3.87272,-23.00212 0.46621,-6.28902 0.64041,-5.58318 -1.7304,-7.01145 -1.68119,-1.01282 -4.33423,-3.78166 -5.94934,-6.20901 -2.4866,-3.73713 -4.17901,-8.02274 -5.05314,-12.79577 -0.83072,-4.53608 -0.75242,-13.0185 0.16041,-17.37543 0.12195,-0.58208 0.36502,-1.77271 0.54014,-2.64583 0.48399,-2.41301 2.29601,-7.63409 3.61918,-10.42815 4.3217,-9.12592 11.01998,-15.78884 18.48671,-18.38914 l 1.82768,-0.6365 0.73962,-2.8679 c 0.40678,-1.57734 0.83465,-3.22508 0.95082,-3.66165 0.99114,-3.724954 4.92791,-11.681394 7.92025,-16.007294 3.61803,-5.23043 9.98387,-11.919645 14.73097,-15.479288 3.98242,-2.986236 10.13347,-6.740929 13.295162,-8.11556 0.69131,-0.300564 1.91177,-0.843757 2.71213,-1.207096 5.83394,-2.648409 11.91897,-4.477066 19.18229,-5.764609 11.49509,-2.037692 25.00187,-1.351004 36.93665,1.877869 11.43079,3.092525 21.05806,8.1575 29.34051,15.43626 6.50947,5.720634 11.61526,12.504964 15.56526,20.682384 1.61562,3.34469 3.69993,8.827544 4.12386,10.847924 0.12848,0.61232 0.38279,0.74219 2.45517,1.2538 8.49493,2.09715 15.54211,9.43749 19.81647,20.64084 2.69442,7.06221 3.83265,14.67613 3.27555,21.9108 -0.51181,6.64634 -1.58445,10.78906 -4.02244,15.53532 -2.65841,5.17539 -5.95184,8.43443 -10.64998,10.53881 l -1.59105,0.71265 0.0166,1.80089 c 0.0751,8.16044 1.06619,20.89954 1.86801,24.01058 0.53538,2.07725 1.68454,4.56428 2.61879,5.66766 0.48627,0.57429 1.83863,1.4226 3.81359,2.39216 4.62218,2.26918 6.59816,3.51612 8.41967,5.31323 2.87368,2.83519 4.53128,5.76795 5.24171,9.27409 1.64242,8.10564 -3.35084,16.58367 -11.59474,19.68667 -3.12452,1.17606 -5.75448,1.55973 -9.31089,1.35829 -4.72642,-0.2677 -8.0477,-1.13844 -12.6312,-3.3115 l -1.23974,-0.58777 -1.1493,0.67353 c -2.01547,1.18114 -4.98675,2.27229 -7.73008,2.83873 -2.27595,0.46994 -3.28078,0.53019 -6.89739,0.41362 -4.49302,-0.14482 -5.81301,-0.39935 -9.17434,-1.76909 -2.31549,-0.94356 -2.59962,-0.96717 -2.59962,-0.21604 0,0.31657 -0.44432,1.47743 -0.98739,2.57969 -1.94644,3.95069 -6.03396,7.21285 -10.43921,8.33133 -1.89272,0.48055 -6.56741,0.72544 -8.19732,0.42942 z m 5.39831,-5.56957 c 3.57322,-0.51676 6.96918,-2.81377 8.40478,-5.68498 0.57623,-1.15246 0.66018,-1.66384 0.6515,-3.96875 -0.0118,-3.13838 -0.48491,-4.65317 -2.31982,-7.42762 -4.7373,-7.16296 -14.29238,-11.27081 -21.27978,-9.14846 -2.6231,0.79675 -4.27653,2.15935 -5.40628,4.45534 -0.8077,1.6415 -0.88083,1.99382 -0.8673,4.17857 0.0188,3.03864 0.80021,5.33351 2.88063,8.4602 3.02963,4.55325 7.92163,8.02427 12.71501,9.02167 1.99724,0.41559 2.98663,0.43719 5.22126,0.11403 z m -87.388212,-3.87841 c 4.73446,-1.30258 9.15989,-5.16085 11.0529,-9.63638 0.63146,-1.49293 0.71774,-2.04245 0.7231,-4.60561 0.005,-2.42669 -0.0885,-3.11603 -0.5628,-4.14752 -1.91628,-4.16717 -6.92607,-6.36128 -11.72854,-5.1367 -5.09101,1.29816 -8.98366,4.47819 -11.36471,9.28422 -1.23023,2.48317 -1.58464,3.86629 -1.59319,6.21771 -0.0155,4.2641 3.61572,7.98497 8.32769,8.53325 1.27375,0.14822 3.58942,-0.0808 5.14555,-0.50897 z m 44.093512,-1.81055 c 3.32397,-0.56829 6.26201,-1.30854 9.27789,-2.3376 2.90903,-0.9926 7.91688,-3.41721 8.08217,-3.91309 0.0591,-0.17727 -0.0441,-1.10468 -0.22934,-2.06091 -0.73173,-3.77741 -0.3241,-6.77728 1.40089,-10.30967 3.35966,-6.87977 12.15683,-9.83638 20.93652,-7.03648 6.37373,2.03263 12.57434,6.70908 15.83738,11.94442 1.22401,1.96383 2.47939,4.94942 2.47939,5.89655 0,1.02046 4.12662,3.00336 8.03043,3.85875 1.63281,0.35777 2.87833,0.42675 5.82083,0.32235 3.3184,-0.11774 3.98566,-0.22285 5.87564,-0.92555 2.61924,-0.97384 3.52831,-1.42957 5.47166,-2.74298 0.8351,-0.5644 1.70483,-1.02619 1.93273,-1.02619 0.22789,0 1.20365,0.47605 2.16834,1.05788 2.36897,1.42879 5.25737,2.50736 8.46555,3.16114 4.71941,0.96176 8.30453,0.5755 12.1478,-1.30879 3.46194,-1.69733 6.06968,-4.95205 6.71719,-8.3837 0.86339,-4.57579 -1.16451,-8.907 -5.66661,-12.10281 -0.89033,-0.632 -3.21817,-1.94829 -5.17299,-2.92509 -4.44665,-2.22195 -5.8248,-3.52028 -7.52902,-7.09298 -2.0161,-4.2265 -2.59855,-8.06581 -3.33985,-22.01502 -0.15467,-2.91042 -0.34588,-6.14902 -0.4249,-7.19689 l -0.14368,-1.90522 -1.23542,-0.16319 c -3.00233,-0.3966 -7.02669,-1.99086 -9.74294,-3.85969 -1.90657,-1.31175 -4.61453,-4.17845 -6.22242,-6.58717 -5.25937,-7.87882 -7.59923,-16.53253 -7.61887,-28.17742 -0.0125,-7.44358 0.67252,-12.78966 2.14743,-16.75779 0.99495,-2.67682 0.97053,-2.84198 -0.77082,-5.21273 -1.84813,-2.51613 -5.66791,-6.97039 -8.04612,-9.3826 -8.43917,-8.559844 -20.33496,-15.297204 -32.76188,-18.555164 -3.16163,-0.82889 -8.65812,-1.81862 -11.24479,-2.02482 -4.87143,-0.38832 -13.50596,-0.18018 -17.49828,0.42181 -10.27487,1.5493 -16.67698,3.50312 -24.173592,7.37741 -5.57053,2.87888 -8.03112,4.63582 -12.25858,8.753064 -4.617,4.4966 -7.61529,8.36835 -11.26609,14.5481 -5.06918,8.58068 -8.17971,16.98707 -10.84133,29.29939 -0.87289,4.03786 -2.04619,12.93353 -3.07098,23.28333 -0.31661,3.19754 -0.66774,8.05237 -0.92813,12.83229 -0.7505,13.77732 -1.61714,20.81922 -3.09336,25.13541 -1.30333,3.81065 -2.52987,5.81445 -5.2925,8.64631 -2.23964,2.29576 -4.2359,3.49794 -7.56991,4.5587 -5.00601,1.59274 -7.33501,3.20172 -8.93856,6.17517 -0.81549,1.51214 -0.89163,1.84733 -0.8866,3.90316 0.005,1.89312 0.11797,2.48114 0.71636,3.71642 0.82655,1.70626 2.43244,3.46702 4.26784,4.67941 4.02739,2.66034 10.01495,2.89869 14.93855,0.59465 2.86787,-1.34204 6.12329,-3.63675 6.12329,-4.31625 0,-1.06691 1.08049,-4.51744 1.97766,-6.31564 1.15958,-2.32416 4.02541,-6.13602 5.68472,-7.56129 0.72541,-0.6231 1.38405,-1.12663 1.46363,-1.11896 0.0796,0.008 0.41026,-0.2365 0.73486,-0.54259 0.85496,-0.80622 5.06874,-2.7863 7.07246,-3.3234 2.33139,-0.62492 6.73108,-0.62118 8.84971,0.008 5.15751,1.5305 8.85755,5.23058 10.34412,10.34422 0.82099,2.82409 0.28293,8.36363 -1.06568,10.97155 -0.35035,0.6775 -0.37058,0.91666 -0.10466,1.23707 1.12074,1.35042 8.33918,3.66039 13.858802,4.43497 1.60073,0.22463 3.26761,0.46163 3.70417,0.52667 1.48247,0.22085 8.24469,-0.10167 10.60989,-0.50604 z m 47.86367,-37.60975 c -3.14618,-0.67401 -6.38942,-2.6644 -7.93815,-4.87168 -1.15301,-1.6433 -1.71132,-2.72381 -2.11163,-4.08669 -1.45445,-4.95184 -0.008,-10.37706 3.76709,-14.12944 1.94407,-1.93237 6.0014,-4.58405 8.19366,-5.355 2.06916,-0.72766 2.87975,-0.64251 3.93567,0.41342 1.65888,1.65888 1.01102,3.40173 -1.74354,4.69041 -2.72422,1.27448 -5.38601,3.02674 -6.60239,4.34636 -1.49412,1.62092 -2.19173,3.27813 -2.33287,5.54177 -0.30748,4.93189 3.0008,8.06979 8.50796,8.06979 4.47107,0 8.26704,-1.8721 12.06626,-5.95083 2.85571,-3.06582 3.07591,-3.21591 4.49792,-3.06581 1.27169,0.13423 2.38125,1.42007 2.38125,2.75957 0,1.39293 -4.74872,6.56223 -7.85185,8.54728 -4.841,3.09675 -9.84936,4.14487 -14.76938,3.09085 z m -93.398562,-1.57754 c -0.29104,-0.0735 -1.23432,-0.30726 -2.09618,-0.51956 -4.20863,-1.03669 -8.56489,-4.47206 -11.24452,-8.86746 -1.77165,-2.90603 0.82878,-6.14275 3.48537,-4.3382 0.25488,0.17313 1.08832,1.15027 1.85209,2.17142 1.95541,2.61436 3.98301,4.28967 6.31778,5.22008 1.7639,0.70291 2.25312,0.77868 5.12504,0.79375 2.95394,0.0155 3.26909,-0.033 4.52635,-0.69629 3.00357,-1.58464 4.07976,-3.14293 4.2792,-6.19615 0.16007,-2.45046 -0.23588,-3.58942 -1.836,-5.28131 -1.55413,-1.64326 -3.88471,-2.78632 -7.70795,-3.78047 -2.39101,-0.62172 -2.74769,-0.79287 -3.26866,-1.56843 -0.35272,-0.52509 -0.54712,-1.15505 -0.4899,-1.5875 0.0522,-0.39432 0.10308,-0.79 0.11311,-0.8793 0.01,-0.0893 0.33212,-0.47625 0.71577,-0.8599 0.86647,-0.86647 2.50118,-0.92781 5.25558,-0.1972 4.62206,1.226 7.55762,2.73515 9.6905,4.98179 5.3732,5.65979 4.23502,14.87313 -2.39344,19.37443 -2.33288,1.58423 -4.57981,2.18876 -8.48768,2.2836 -1.81901,0.0441 -3.54542,0.0202 -3.83646,-0.0533 z m 8.90843,-33.85201 c -2.85897,-0.84518 -3.49395,-1.18699 -5.81069,-3.12788 -3.61723,-3.03041 -5.3448,-6.66482 -5.55262,-11.68149 -0.21092,-5.09135 1.18486,-8.76924 4.67052,-12.30679 2.35781,-2.39292 4.70742,-3.68242 7.98013,-4.37963 3.69452,-0.78706 8.21194,-0.0468 11.56161,1.89469 2.06851,1.1989 4.836752,4.20796 5.950662,6.46834 1.49746,3.03869 1.88744,4.90996 1.70937,8.20208 -0.20451,3.78093 -1.09585,6.42689 -3.06125,9.08736 -3.998602,5.4127 -10.987182,7.75321 -17.447732,5.84332 z m -1.36491,-9.70516 c 0.65982,-1.08218 0.66007,-1.54447 0.001,-2.38198 -1.52189,-1.93476 -4.54868,-0.42356 -3.68764,1.84115 0.37012,0.9735 1.00643,1.38252 2.16599,1.39231 0.84406,0.007 1.07609,-0.12281 1.52036,-0.85148 z m 3.36983,-5.54143 c 2.2597,-1.05439 3.87145,-3.90341 3.80632,-6.72827 -0.0412,-1.78602 -0.54295,-2.7965 -1.81938,-3.66385 -2.64093,-1.79457 -7.4169,0.0933 -9.17833,3.62802 -2.41858,4.85346 2.12574,9.12777 7.19139,6.7641 z m 65.740552,15.39223 c -4.73191,-1.23976 -8.57787,-4.46824 -10.49931,-8.81363 -2.07559,-4.69401 -1.86316,-10.28253 0.5741,-15.10287 1.05398,-2.08453 4.31997,-5.1735 6.69318,-6.33041 9.38205,-4.57362 20.29225,0.47318 22.86883,10.57858 0.52755,2.06906 0.53433,6.12612 0.0137,8.17444 -0.42927,1.68875 -1.94567,4.94118 -2.70895,5.81028 -1.20757,1.37498 -4.93612,4.38882 -6.02606,4.87096 -3.05061,1.34943 -7.57968,1.68662 -10.91544,0.81265 z m -1.42984,-9.53037 c 0.71259,-0.66388 0.76964,-2.07915 0.11604,-2.87885 -0.25466,-0.31159 -0.88213,-0.63357 -1.39438,-0.71552 -0.77298,-0.12365 -1.05419,-0.0262 -1.65365,0.5733 -0.92227,0.92227 -0.95009,2.03387 -0.0728,2.91111 0.81847,0.81847 2.19046,0.86867 3.00484,0.10996 z m 1.87185,-5.29726 c 2.92612,-0.67458 5.20832,-3.77159 5.17075,-7.01681 -0.0328,-2.83605 -1.38912,-4.36293 -4.04618,-4.55512 -4.08683,-0.29561 -8.46072,3.95289 -7.84169,7.61689 0.34219,2.02541 1.82607,3.55078 3.83723,3.94452 1.6058,0.31438 1.56254,0.31422 2.87989,0.0105 z m -32.58837,9.51667 c -3.42733,-0.80705 -5.85103,-4.05402 -6.42807,-8.61155 -0.4177,-3.29905 1.89231,-5.45765 4.21184,-3.93579 0.89585,0.58777 1.23213,1.36852 1.23412,2.86535 0.004,2.63355 1.24567,4.41455 3.07893,4.41455 2.01967,0 2.95104,-1.22546 3.2599,-4.28925 0.18968,-1.88151 0.31342,-2.25403 0.92288,-2.77826 0.94384,-0.81186 2.40615,-0.80485 3.4326,0.0165 0.67428,0.53953 0.78939,0.83335 0.89421,2.28244 0.13636,1.88513 -0.28765,4.13503 -1.07319,5.69465 -0.6566,1.30361 -2.00311,3.04271 -2.35585,3.04271 -0.14369,0 -0.43688,0.17562 -0.65153,0.39028 -0.97336,0.97336 -4.28958,1.43498 -6.52584,0.90841 z m -67.022912,6.30808 c 0.0764,-0.61846 0.33008,-3.32714 0.5637,-6.01927 1.63158,-18.80135 5.26776,-33.78064 10.8394,-44.65313 1.74896,-3.41291 2.94372,-5.57677 3.3484,-6.06439 0.48882,-0.58899 0.0699,-0.69111 -1.39424,-0.33987 -9.35903,2.2452 -16.86242,11.02872 -20.44885,23.9376 -2.74093,9.86563 -1.98586,20.45602 2.01268,28.22935 0.99559,1.93546 4.18768,6.03419 4.69943,6.03419 0.1323,0 0.30307,-0.50602 0.37948,-1.12448 z m 163.779362,-1.12947 c 5.08385,-1.32418 9.31666,-6.10288 11.37075,-12.83718 1.62256,-5.31954 2.01371,-13.41812 0.95196,-19.71016 -1.19772,-7.09782 -4.13592,-13.94145 -8.13765,-18.95412 -4.00077,-5.01149 -8.59256,-7.52763 -13.36611,-7.32418 -1.83108,0.0781 -2.47616,0.23649 -3.98172,0.97797 -4.81765,2.37266 -7.60433,6.93467 -9.1599,14.99548 -0.44601,2.31115 -0.54028,3.84886 -0.54028,8.81245 0,6.85373 0.22266,9.14725 1.34013,13.80411 0.92354,3.84869 1.44763,5.33622 2.922,8.29352 3.39461,6.80899 7.77316,10.74894 13.27378,11.94417 2.20421,0.47895 3.48221,0.47845 5.32704,-0.002 z m -19.37927,-60.13921 c 0.19093,-0.4678 3.44407,-2.54208 5.02779,-3.20585 1.97624,-0.82828 1.96332,-0.72583 0.56974,-4.51557 -2.44287,-6.643194 -6.46807,-13.650724 -10.79055,-18.785424 -1.45626,-1.72989 -6.08787,-6.217549 -8.08025,-7.829102 -5.54826,-4.487761 -12.95248,-8.519055 -20.32553,-11.066419 -4.83579,-1.670747 -9.79746,-2.762858 -16.36199,-3.601428 -5.94204,-0.759052 -15.67178,-0.650085 -21.38852,0.239537 -9.11759,1.418856 -20.87164,5.596772 -27.281372,9.69703 -0.78991,0.505296 -1.48499,0.918719 -1.54464,0.918719 -0.19921,0 -3.43087,2.202362 -5.30523,3.615492 -4.7487,3.580161 -10.6819,9.836121 -13.94632,14.704981 -1.83863,2.74232 -4.18169,7.08253 -5.25368,9.73176 -1.01844,2.516914 -2.83857,8.055094 -2.71526,8.261834 0.40528,0.67945 1.30092,-0.0879 3.86008,-3.30729 5.98835,-7.533204 18.12314,-18.959204 25.26136,-23.785854 4.647142,-3.142261 12.479482,-6.488366 19.075912,-8.149547 7.56715,-1.905637 12.82713,-2.498221 20.6325,-2.324432 6.51023,0.144953 11.05385,0.718263 16.32082,2.059344 12.58443,3.204262 23.9824,9.664025 30.60987,17.348035 4.17456,4.84005 8.52039,12.427734 10.17383,17.763164 0.66478,2.14517 1.1772,2.92742 1.46144,2.23102 z m -8.81667,-5.95154 c -0.61047,-1.15059 -3.27154,-5.378614 -4.42083,-7.024044 -6.36025,-9.1058 -18.0115,-16.15595 -31.98668,-19.35507 -13.36143,-3.058628 -29.07314,-1.674462 -41.93398,3.69429 -1.12779,0.47079 -2.05052,0.97097 -2.05052,1.1115 0,0.14052 0.0893,0.20072 0.19844,0.13376 0.10914,-0.067 0.61515,-0.1891 1.12448,-0.27143 0.50932,-0.0823 1.52135,-0.32564 2.24895,-0.54069 6.36196,-1.88031 20.75181,-2.60554 29.23646,-1.47347 10.48772,1.39932 20.99351,4.99169 29.72805,10.16524 3.06334,1.81445 6.7169,4.29238 8.37108,5.67748 0.79989,0.66977 1.81116,1.51541 2.24726,1.87922 1.13584,0.94752 5.08115,4.717734 6.15809,5.884784 0.95977,1.04008 1.60581,1.11098 1.0792,0.11843 z"
       id="path1" /></g></svg>
