<?xml version="1.0" encoding="UTF-8" standalone="no"?>
<!-- Created with Inkscape (http://www.inkscape.org/) -->

<svg
   width="249.72763mm"
   height="223.80232mm"
   viewBox="0 0 249.72764 223.80228"
   version="1.1"
   id="svg5"
   xml:space="preserve"
   xmlns="http://www.w3.org/2000/svg"
   xmlns:svg="http://www.w3.org/2000/svg"><defs
     id="defs2" /><g
     id="layer1"
     transform="translate(-21.013214,-3.111294)"><path
       style="fill:#000000;stroke-width:0.264583"
       d="m 80.941334,226.49739 c -5.80067,-0.48607 -7.04631,-0.49575 -12.28783,-0.0954 -7.0541,0.53878 -14.11228,-0.15114 -21.29828,-2.08188 -4.59139,-1.23362 -9.9406,-3.65786 -12.00829,-5.4421 -0.62942,-0.54314 -1.9391,-1.36933 -2.91041,-1.83598 -2.32195,-1.11553 -5.09706,-3.07615 -5.96532,-4.2145 -0.38233,-0.50124 -0.93334,-0.98696 -1.22448,-1.07936 -0.29114,-0.0924 -0.52934,-0.28821 -0.52934,-0.43512 0,-0.14691 -0.36253,-0.62963 -0.80562,-1.07273 -1.54902,-1.54901 -2.89855,-5.03184 -2.89855,-7.48048 0,-1.72734 0.62383,-4.12166 1.48715,-5.70788 2.01386,-3.70011 6.88665,-6.58995 11.12824,-6.59967 l 1.37061,-0.003 0.92998,-1.91823 c 1.6199,-3.34126 4.14762,-5.67413 7.66368,-7.0729 1.77291,-0.7053 1.66204,0.0489 0.83691,-5.69324 -1.04543,-7.27529 0.19686,-13.38477 3.51125,-17.26793 l 1.1889,-1.39292 -0.44813,-2.31124 c -0.24647,-1.27119 -0.81329,-3.79953 -1.25959,-5.61854 -0.76354,-3.11197 -0.88419,-3.38542 -2.04307,-4.6302 -2.69826,-2.8983 -4.40509,-5.47798 -6.48636,-9.8034 -1.21393,-2.52285 -2.79821,-7.12278 -2.79847,-8.12529 -8e-5,-0.32568 -0.47695,-1.36605 -1.05971,-2.31194 -1.28334,-2.08301 -2.40371,-4.71526 -3.21199,-7.54636 -0.51865,-1.81665 -0.60379,-2.73798 -0.61073,-6.60885 -0.0105,-5.87582 0.67225,-8.86435 3.19725,-13.994579 3.21226,-6.526577 9.57951,-12.482396 14.86674,-13.906097 0.6237,-0.167947 1.33608,-0.519224 1.58307,-0.780616 0.82262,-0.870606 2.2983,-2.533481 2.675,-3.01435 0.33208,-0.423895 0.27255,-0.579946 -0.55516,-1.455209 -3.29749,-3.486935 -3.7293,-8.420176 -1.3772,-15.733696 1.00228,-3.116463 3.53757,-8.386301 5.44029,-11.308156 2.12391,-3.261526 6.08606,-6.614191 7.81723,-6.614731 0.2595,-7.9e-5 1.17133,-0.782367 2.02628,-1.738415 5.02197,-5.615787 11.72916,-8.209246 20.71583,-8.010155 l 3.74945,0.08306 1.6882,-1.621086 c 3.50215,-3.362942 10.299976,-7.191963 17.350026,-9.772785 10.3471,-3.787772 25.59868,-5.346541 35.91458,-3.670601 l 1.06838,0.173569 -0.10264,-1.816582 c -0.0565,-0.999122 0.0299,-2.308957 0.19198,-2.910747 0.71948,-2.671958 3.40547,-5.2103541 5.85748,-5.5356251 1.17864,-0.156351 1.35884,-0.2761223 1.9608,-1.3032885 0.92368,-1.5761506 2.84772,-3.1895741 4.43057,-3.7153144 2.71656,-0.902295 6.01901,-0.2108719 8.21906,1.7207962 l 0.8806,0.7731813 1.69634,-0.8409514 c 1.45334,-0.7204847 1.98205,-0.8409516 3.69082,-0.8409516 4.67605,0 7.98587,3.1096067 8.63597,8.1135775 0.1983,1.526317 0.41198,1.796634 1.42829,1.806831 1.79187,0.01797 4.82144,2.310942 5.95849,4.509752 0.24841,0.48038 0.50939,1.773208 0.58725,2.909069 0.1579,2.303804 -0.26357,3.966398 -1.37485,5.42336 l -0.65729,0.861751 0.78112,1.416994 c 0.62355,1.131176 0.78208,1.744523 0.7859,3.040743 0.004,1.396452 -0.11557,1.803516 -0.8551,2.908038 -0.47294,0.70636 -1.17186,1.433279 -1.55314,1.615371 -0.56005,0.267464 -0.72581,0.576564 -0.86273,1.608693 -0.0939,0.707525 -0.51141,1.816772 -0.93576,2.485908 -1.23679,1.950212 -2.86551,2.881114 -6.13901,3.50878 l -0.69324,0.132924 0.51,1.524937 c 0.2805,0.838715 0.58032,2.566733 0.66626,3.84004 l 0.15626,2.315104 h 3.20361 c 10.11541,0 21.1164,2.796704 30.93433,7.864221 2.8951,1.494303 7.7876,4.734941 10.76156,7.128131 3.25195,2.616888 8.79271,8.24825 11.30149,11.486295 6.38055,8.23527 11.49413,19.01986 13.68126,28.85389 1.17353,5.27657 1.55558,9.68833 1.39465,16.10497 -0.22005,8.77355 -1.4586,14.75391 -4.65766,22.48958 -2.50288,6.05222 -6.18044,11.99984 -10.52162,17.01631 -1.36177,1.57361 -2.40705,2.9726 -2.32283,3.10886 0.25764,0.41688 0.90975,0.27847 1.79318,-0.3806 3.82929,-2.85679 9.3887,-4.65834 14.38484,-4.66147 7.23247,-0.005 12.92835,2.58743 16.88386,7.68314 1.40109,1.80497 1.95934,3.10048 2.15664,5.0049 0.34439,3.32412 -1.65527,6.51131 -4.43389,7.06704 l -0.80431,0.16086 0.21818,1.35204 c 0.11999,0.74362 0.19849,2.15089 0.17444,3.12726 -0.0374,1.51887 0.0271,1.79771 0.44701,1.93098 0.86079,0.2732 3.38841,3.02854 4.08034,4.44794 0.36754,0.75398 0.86986,2.19157 1.11625,3.19466 0.38056,1.54933 0.40138,2.09555 0.13834,3.62947 -1.1746,6.84974 -6.64124,12.22955 -15.40622,15.1615 -3.84746,1.28701 -6.98543,1.74019 -12.05828,1.74146 -3.75976,0.001 -4.33839,0.0594 -4.8948,0.49501 -2.098,1.64235 -7.54855,4.05245 -11.74349,5.1927 -7.57566,2.05917 -19.68892,2.84153 -28.70729,1.8541 -3.30079,-0.3614 -4.7596,-0.61829 -8.35727,-1.47162 -1.25155,-0.29685 -1.47395,-0.26795 -3.175,0.41258 -6.21849,2.4878 -16.12069,3.75629 -27.29827,3.49694 -10.09848,-0.2343 -16.11864,-1.44329 -22.66117,-4.5509 -1.96925,-0.93536 -2.13321,-0.97047 -2.77813,-0.59495 -2.43829,1.41975 -12.42769,3.83602 -20.39682,4.93364 -9.52411,1.3118 -22.701726,1.67327 -32.146876,0.8818 z m 23.415626,-2.33262 c 2.13794,-0.1972 5.66538,-0.63877 9.26041,-1.15924 2.11006,-0.30548 5.00362,-0.66921 6.43014,-0.80828 1.61374,-0.15733 2.73827,-0.39746 2.9764,-0.63559 0.2105,-0.2105 1.06741,-0.46553 1.90424,-0.56672 0.83684,-0.1012 1.64058,-0.27712 1.7861,-0.39093 0.14552,-0.11381 0.97868,-0.4138 1.85147,-0.66663 0.87279,-0.25284 2.4206,-0.80189 3.43958,-1.22011 2.54919,-1.04626 3.53903,-1.15173 4.19554,-0.44705 0.57167,0.61362 3.5932,2.04288 5.46237,2.58385 0.65484,0.18952 2.08359,0.62411 3.175,0.96576 1.0914,0.34165 2.69875,0.68378 3.57187,0.76029 0.87313,0.0765 2.65906,0.26727 3.96875,0.42391 3.78661,0.4529 19.22407,0.206 22.48958,-0.35969 5.13343,-0.88927 11.26809,-2.58426 12.7,-3.50898 0.44317,-0.28619 0.75743,-0.26082 1.93372,0.15614 1.45127,0.51444 5.13819,1.34032 6.53295,1.4634 0.43656,0.0385 2.16297,0.19739 3.83646,0.35302 7.08869,0.65925 14.90759,0.25191 22.5149,-1.17294 3.54393,-0.66378 9.68257,-2.56639 10.9413,-3.39114 0.36104,-0.23656 0.83921,-0.43011 1.06261,-0.43011 0.2234,0 0.407,-0.0893 0.40799,-0.19843 0.003,-0.29632 1.90152,-1.53143 2.23922,-1.45653 0.16075,0.0357 0.4934,-0.27565 0.73921,-0.69178 0.45332,-0.76741 0.92997,-0.87015 1.91456,-0.41267 0.29104,0.13523 2.25557,0.21866 4.36562,0.1854 2.11005,-0.0333 4.18521,-0.0661 4.61145,-0.0731 0.42625,-0.007 0.91015,-0.12477 1.07533,-0.26186 0.16519,-0.13709 1.00706,-0.42155 1.87084,-0.63212 3.58589,-0.87419 6.1858,-1.88112 8.35446,-3.23564 0.52972,-0.33086 1.02983,-0.53485 1.11137,-0.45331 0.28204,0.28205 3.91414,-2.74124 3.83123,-3.18905 -0.0302,-0.1631 0.35506,-0.72145 0.85614,-1.24077 0.50108,-0.51933 1.06779,-1.48386 1.25935,-2.1434 0.19156,-0.65954 0.51033,-1.5115 0.70839,-1.89325 0.25015,-0.48217 0.33675,-1.48373 0.28366,-3.28056 -0.0657,-2.22484 -0.17292,-2.75296 -0.7665,-3.77711 -1.52266,-2.62719 -3.67272,-4.23958 -5.9978,-4.49792 -0.75924,-0.0844 -1.16666,-0.25212 -1.12448,-0.46302 0.0933,-0.46662 -0.37485,-0.41296 -0.55786,0.0639 -0.22349,0.58243 -1.52516,0.39617 -2.20763,-0.31589 -0.32048,-0.33437 -0.77553,-0.60794 -1.01122,-0.60794 -0.2357,0 -0.98552,-0.32699 -1.66628,-0.72665 -0.68076,-0.39966 -1.29727,-0.73679 -1.37003,-0.74918 -0.52474,-0.0894 -1.81098,-0.45595 -2.24896,-0.64097 -1.54168,-0.65129 -9.48725,-0.45258 -11.1125,0.2779 -0.29104,0.13081 -1.21175,0.48681 -2.04602,0.79111 -0.83427,0.3043 -2.09068,0.948 -2.79203,1.43044 -1.1538,0.79368 -1.34819,0.84733 -2.04223,0.56364 -0.71616,-0.29273 -0.76258,-0.40032 -0.69987,-1.6221 0.057,-1.11131 -0.0587,-1.479 -0.76781,-2.4392 -1.54825,-2.09644 -3.76284,-3.23499 -6.29236,-3.23499 -3.4994,0 -6.07416,2.72096 -5.81435,6.14449 l 0.0817,1.07724 -1.2928,0.0272 c -1.09008,0.0229 -1.37951,0.14296 -1.8458,0.76574 l -0.553,0.73859 0.63276,1.19276 c 0.70629,1.33136 1.87584,2.30685 2.48537,2.07295 0.24376,-0.0935 0.51578,0.0615 0.69478,0.39596 0.1618,0.30233 0.2007,0.56372 0.0864,0.58088 -0.23385,0.0351 -1.37926,0.15311 -2.63368,0.27133 -0.75096,0.0708 -0.9373,-0.0679 -1.78594,-1.32897 -0.52112,-0.77438 -0.9475,-1.49394 -0.9475,-1.59901 0,-0.10507 -0.77626,-0.50983 -1.72503,-0.89946 -3.6488,-1.49845 -7.6592,-0.43809 -8.89311,2.35135 l -0.49726,1.12415 -0.99074,-0.47443 c -0.5449,-0.26093 -2.0623,-0.74135 -3.37198,-1.06759 -2.09255,-0.52126 -2.83035,-0.57591 -6.08542,-0.4508 -3.06185,0.11769 -4.19451,0.28322 -6.53189,0.95459 -6.30751,1.81171 -11.93219,5.27168 -14.35964,8.83321 -0.74627,1.09492 -0.90601,1.20905 -1.19868,0.8564 -0.18572,-0.22377 -0.49112,-0.37553 -0.67867,-0.33722 -0.18754,0.0383 -0.9158,-0.36614 -1.61835,-0.89874 -3.38175,-2.56375 -10.23505,-3.27329 -14.80247,-1.53254 -0.46722,0.17807 -2.70357,0.27964 -5.77634,0.26233 -2.75768,-0.0155 -4.92755,0.0582 -4.82193,0.16381 0.23082,0.23082 -3.82852,1.67988 -5.04807,1.80201 -1.15267,0.11543 -1.36526,-0.34021 -0.50427,-1.0808 0.38712,-0.33299 0.70385,-0.79232 0.70385,-1.02075 0,-0.65583 -2.72771,-3.21168 -4.27878,-4.0092 -1.15675,-0.59477 -1.85161,-0.74568 -3.87171,-0.84089 -2.37203,-0.11179 -2.52515,-0.084 -4.19199,0.76209 -1.07117,0.5437 -2.41541,1.56349 -3.52966,2.67773 l -1.79961,1.79962 -0.83982,-0.78451 c -0.73052,-0.68241 -1.02433,-0.77966 -2.25752,-0.74721 -1.35824,0.0357 -1.456,0.0881 -2.33093,1.24782 -0.50228,0.66579 -0.99714,1.48469 -1.09969,1.81977 -0.27122,0.88622 -0.84961,0.29987 -1.07274,-1.08749 -0.0981,-0.61009 -0.3428,-1.36876 -0.54374,-1.68594 -0.20094,-0.31717 -0.44621,-1.09108 -0.54505,-1.71979 -0.0988,-0.62871 -0.39502,-1.64912 -0.65816,-2.26758 -0.26315,-0.61847 -0.41495,-1.12448 -0.33732,-1.12448 0.0776,0 -0.55169,-0.6552 -1.39847,-1.45601 -2.0768,-1.96405 -3.45416,-2.60909 -5.83865,-2.73437 -2.12963,-0.11188 -3.50536,0.29205 -5.087846,1.49383 -1.06844,0.81141 -1.01722,0.79772 -4.0315,1.07728 -1.8047,0.16737 -2.53085,0.36272 -3.34085,0.89875 -1.29054,0.85404 -2.24604,2.36481 -2.30836,3.64979 -0.072,1.48357 -0.23611,1.60082 -2.18964,1.56403 -3.17157,-0.0597 -6.04188,0.2017 -6.69023,0.60939 -0.34513,0.21702 -1.06547,0.53333 -1.60075,0.70292 -0.53528,0.16959 -1.70016,0.77817 -2.58862,1.3524 -0.88846,0.57424 -1.65971,1.04407 -1.7139,1.04407 -0.0542,0 -0.9001,0.83028 -1.87979,1.84506 -0.97969,1.01479 -1.88578,1.78047 -2.01352,1.70151 -0.12775,-0.079 -0.15127,-0.27462 -0.0523,-0.43481 0.1155,-0.18689 0.0237,-0.23128 -0.25623,-0.12387 -0.62562,0.24008 -1.08563,-0.69647 -0.69792,-1.42091 0.1618,-0.30233 0.44914,-0.49022 0.63853,-0.41755 0.44483,0.1707 0.9352,-0.31967 0.7645,-0.7645 -0.0727,-0.18939 0.14499,-0.49199 0.48369,-0.67244 1.3627,-0.72599 1.61229,-1.7961 0.74912,-3.21182 -0.2905,-0.47646 -0.52862,-1.14121 -0.52917,-1.47722 -5.3e-4,-0.33601 -0.11036,-0.54333 -0.24404,-0.46071 -0.13368,0.0826 -0.3268,-0.23778 -0.42917,-0.71199 -0.2664,-1.23422 -1.08482,-2.7535 -1.5871,-2.94624 -0.79071,-0.30342 -2.52089,-0.16935 -3.35043,0.25962 -0.7673,0.39678 -1.8962,1.52618 -2.42674,2.42781 -0.12721,0.21618 -0.2206,0.92521 -0.20755,1.57563 0.0196,0.97769 -0.0695,1.20696 -0.5146,1.32335 -0.45842,0.11988 -0.5258,0.31821 -0.45391,1.33605 0.11141,1.57724 -0.33789,1.68249 -1.07384,0.25157 -0.97268,-1.89121 -2.04563,-2.55335 -4.45305,-2.74811 -1.13388,-0.0917 -1.98189,-0.0804 -1.88448,0.0252 0.0974,0.10559 -0.18505,0.51559 -0.62771,0.9111 -0.44265,0.39552 -1.0625,1.36013 -1.37744,2.1436 -0.61374,1.52677 -1.33719,1.98193 -2.47888,1.55959 -0.86706,-0.32075 -0.71818,-1.13612 0.33856,-1.85406 0.86096,-0.58494 1.26545,-1.18281 1.16803,-1.7265 -0.10157,-0.56687 0.0554,-0.88729 0.43469,-0.88729 0.22687,0 0.34141,-0.11501 0.25454,-0.25557 -0.0869,-0.14056 0.26181,-0.52752 0.77486,-0.8599 0.51304,-0.33238 0.93428,-0.68603 0.93608,-0.78589 0.002,-0.0999 -0.65864,-0.93331 -1.46765,-1.85209 -2.09651,-2.38098 -4.1656,-5.56404 -5.45061,-8.38515 -1.10268,-2.42084 -1.11391,-2.43404 -1.92246,-2.2597 -3.15231,0.67973 -6.97698,4.44851 -7.42289,7.31443 -0.3243,2.08428 -0.24009,2.00883 -2.0774,1.86135 -2.00742,-0.16114 -5.40625,0.62045 -7.15516,1.64538 -0.64201,0.37625 -1.70467,1.25858 -2.36146,1.96074 -3.97511,4.24972 -3.52593,9.74402 1.17489,14.37082 1.00453,0.98871 1.87974,1.79766 1.94491,1.79766 0.0652,0 0.98888,0.56554 2.05269,1.25677 1.06381,0.69122 2.8259,1.64535 3.91575,2.12028 1.27965,0.55764 2.07351,1.0731 2.24117,1.45521 0.52802,1.2034 8.22343,4.38343 13.22421,5.46473 3.04629,0.65868 7.98422,1.32902 11.04128,1.49887 3.47008,0.1928 9.32781,-0.24674 9.93301,-0.74534 0.36137,-0.29772 2.9947,-0.11144 6.93925,0.49087 3.27108,0.49949 20.96909,0.64693 25.664576,0.21381 z m 68.02987,-26.40126 c 3.3319,-3.21547 8.14612,-5.75145 13.72637,-7.23064 2.52883,-0.67033 3.19363,-0.73681 7.40834,-0.74079 4.10311,-0.004 4.851,0.065 6.56972,0.60501 l 1.93951,0.60939 1.13215,-1.04358 c 2.41403,-2.22517 6.19666,-3.01175 9.26285,-1.92615 l 1.57402,0.55729 0.99515,-1.03565 c 0.54733,-0.56961 1.22349,-1.10813 1.50257,-1.1967 0.32932,-0.10452 0.6244,-0.59951 0.8407,-1.41023 1.05418,-3.9513 4.43441,-6.35321 8.56762,-6.08796 3.37338,0.21649 6.58126,2.24105 8.00609,5.05281 0.48432,0.95577 0.77181,1.25675 1.1008,1.15246 2.16417,-0.68607 4.34922,-1.6951 5.39078,-2.48941 1.39328,-1.06252 3.09684,-3.22366 4.10606,-5.20894 0.85748,-1.68677 0.76908,-3.76185 -0.20441,-4.79808 -1.30359,-1.38761 -6.06063,-3.064 -9.83934,-3.4674 -1.7871,-0.19079 -1.99448,0.14841 -0.50217,0.82135 1.19603,0.53934 2.49281,1.6708 2.29036,1.99838 -0.0778,0.1259 -0.94359,-0.008 -1.92395,-0.29762 -0.98036,-0.28958 -2.67572,-0.71849 -3.76747,-0.95314 l -1.985,-0.42662 -1.58688,1.0732 c -4.27468,2.89097 -10.86108,5.64345 -16.03156,6.69967 -2.18239,0.44582 -3.35666,0.53588 -5.66364,0.43438 -3.09794,-0.1363 -5.79977,-0.52001 -7.18266,-1.02006 -0.81059,-0.29312 -0.90459,-0.25164 -2.28156,1.00684 -1.65506,1.51263 -4.22194,2.86025 -6.29483,3.3048 -1.95791,0.4199 -6.6965,0.14437 -9.50866,-0.5529 -2.79817,-0.69379 -6.39927,-1.84574 -6.73365,-2.15401 -0.13824,-0.12745 -0.46207,-0.23172 -0.71962,-0.23172 -0.83192,0 -8.52706,-4.11218 -11.89565,-6.35688 -9.03764,-6.02231 -17.9369,-14.32834 -22.81211,-21.29145 -0.26904,-0.38425 -0.62623,-0.63788 -0.79375,-0.56361 -2.8147,1.24783 -5.98111,2.47118 -6.09679,2.35551 -0.0818,-0.0818 0.88725,-0.85569 2.15347,-1.71973 7.30836,-4.98707 11.85487,-10.13291 14.62047,-16.54775 2.25695,-5.23506 3.17258,-9.76422 3.1731,-15.69575 5.3e-4,-5.74242 -0.93532,-9.27862 -3.45082,-13.03961 -3.03097,-4.53168 -7.1899,-8.337457 -16.44409,-15.047769 -3.07594,-2.230397 -3.0473,-2.220084 -3.73339,-1.344086 -0.31939,0.4078 -1.09932,1.326624 -1.73317,2.041832 l -1.15246,1.300377 2.21079,0.840036 c 9.3322,3.545948 15.83536,10.04173 18.94456,18.92305 1.19822,3.42269 1.52701,5.53299 1.484,9.525 -0.0313,2.90539 -0.16646,4.06204 -0.72435,6.19882 -2.45906,9.41843 -10.06343,16.47709 -20.01111,18.57504 -2.72455,0.5746 -8.67717,0.65764 -10.87456,0.15169 -0.8173,-0.18818 -1.97807,-0.66121 -2.57949,-1.05117 -1.07154,-0.69481 -1.08347,-0.71905 -0.59437,-1.20815 0.45326,-0.45327 0.66592,-0.47288 2.31491,-0.21346 3.42614,0.539 5.25953,0.60981 7.98419,0.30841 6.82796,-0.75532 12.2363,-3.2735 16.05311,-7.47452 3.81348,-4.19734 5.57331,-8.4341 5.8766,-14.14785 0.58522,-11.02501 -5.20414,-20.31513 -16.05516,-25.763533 -3.28734,-1.650606 -6.30731,-2.387335 -10.47069,-2.554351 -3.19256,-0.128069 -4.33686,-0.04183 -9.35756,0.705255 -2.66711,0.396867 -4.55853,1.507236 -7.56466,4.440879 -5.619116,5.48364 -7.955146,10.87599 -7.882896,18.19648 0.0385,3.90112 0.51392,6.14822 2.05141,9.6961 1.45795,3.36434 3.02175,5.5521 6.872626,9.6148 l 1.25045,1.31925 -0.72987,0.58198 c -0.93392,0.74468 -1.22183,0.59552 -3.703926,-1.91902 -5.55031,-5.62283 -8.30516,-12.21679 -8.30439,-19.87727 5.3e-4,-5.70456 1.25264,-9.88144 4.38534,-14.62938 1.59794,-2.42186 2.82332,-3.787152 4.85142,-5.405339 4.905026,-3.913648 9.979976,-5.516436 17.585986,-5.55408 l 4.20119,-0.0208 1.43176,-1.5875 c 2.61102,-2.895044 5.94435,-7.345478 9.40554,-12.557635 2.95443,-4.449037 3.36295,-5.190622 3.00395,-5.453128 -0.22853,-0.1671 -0.41551,-0.445598 -0.41551,-0.618882 0,-0.38836 1.34586,-0.961048 2.83437,-1.206082 1.41775,-0.233383 3.03458,-1.39869 3.60319,-2.596943 0.62429,-1.315598 0.57107,-3.623725 -0.11733,-5.08822 -1.32619,-2.821363 -5.28346,-4.327343 -8.05873,-3.066841 -2.06771,0.93913 -3.54773,3.693541 -3.12375,5.813467 0.17583,0.879107 -0.41521,2.016154 -3.81163,7.3329 -4.2316,6.624127 -8.44349,12.013184 -11.14781,14.263478 -3.6776,3.060157 -5.58333,3.895465 -7.63529,3.346653 -1.57969,-0.422505 -2.82211,-1.372245 -3.78845,-2.896002 -1.24351,-1.960811 -1.32936,-3.701203 -0.21207,-4.299158 0.91538,-0.489895 1.48666,-0.06907 1.82589,1.34502 0.70717,2.947825 2.88143,4.131987 5.31099,2.892514 1.28595,-0.656042 5.06021,-4.18548 4.84616,-4.531815 -0.35015,-0.56656 -6.48166,-3.023552 -11.2172,-4.494908 -12.222476,-3.797583 -22.895026,-5.63963 -29.713386,-5.128437 l -2.56578,0.192366 0.006,1.49666 c 0.0141,3.263366 0.97616,5.333121 2.47895,5.333121 0.95063,0 1.51511,-0.494159 2.64457,-2.315104 0.49119,-0.791919 0.87646,-1.124479 1.30269,-1.124479 1.98754,0 1.45348,2.704833 -0.93205,4.720532 -1.6379,1.383977 -3.12385,1.673267 -5.10377,0.993627 -0.9336,-0.320472 -1.13324,-0.546087 -1.69386,-1.914245 -1.01706,-2.482059 -1.3575,-4.453699 -1.52412,-8.826997 -0.13911,-3.651152 0.17657,-9.994508 0.60365,-12.129907 0.0989,-0.494622 0.007,-0.890783 -0.27168,-1.169342 -0.82908,-0.829082 -0.38144,-1.516044 0.98942,-1.518406 0.95737,-0.0016 2.29908,-1.006163 2.73389,-2.046814 0.63331,-1.515716 0.37294,-3.775893 -0.59336,-5.150773 -0.997,-1.418558 -2.1093,-2.060483 -3.88849,-2.244111 -1.99466,-0.205867 -3.91932,0.833056 -4.84726,2.616528 -0.43009,0.826624 -0.4907,3.039215 -0.11064,4.038856 0.19941,0.524494 0.11229,1.200491 -0.36879,2.861495 -1.73479,5.989608 -2.40686,13.984078 -1.73004,20.579465 0.15341,1.494936 0.38257,2.911732 0.50925,3.148441 0.12669,0.236707 0.9239,0.647891 1.7716,0.913741 5.8571,1.836875 10.90992,6.591657 13.29108,12.507124 1.57587,3.914898 1.74393,4.879098 1.74393,10.00516 0,4.85704 -0.14058,5.9087 -1.25557,9.39271 -2.32766,7.2733 -7.48222,13.80049 -13.16286,16.66807 l -1.45736,0.73567 0.0185,-1.27623 0.0185,-1.27623 2.01718,-1.34916 c 3.95099,-2.64259 8.11064,-8.16488 9.76226,-12.96022 0.94283,-2.73744 1.77453,-7.14039 0.90149,-4.7724 -0.39479,1.07079 -1.89271,4.08308 -2.46387,4.95477 l -0.38824,0.59254 -0.56939,-0.85684 c -0.31315,-0.47126 -0.94833,-1.03544 -1.41148,-1.25372 -0.57929,-0.27301 -0.97371,-0.7377 -1.26378,-1.48895 -0.57671,-1.49361 -1.23106,-2.00846 -2.71507,-2.13623 -3.04573,-0.26224 -4.82716,3.06974 -3.13547,5.86458 l 0.6348,1.04877 -0.80702,0.59541 c -1.16877,0.86229 -4.38255,1.51357 -6.52315,1.32194 -3.36072,-0.30086 -5.98564,-1.73471 -6.98694,-3.8166 -0.31969,-0.6647 -0.91451,-1.45532 -1.32181,-1.75693 -1.34163,-0.9935 -3.81887,-0.45837 -5.13596,1.10947 l -0.58484,0.69619 -0.42965,-1.02829 c -1.39085,-3.32876 -1.83583,-8.11383 -1.05916,-11.38956 0.38126,-1.60801 1.37467,-4.101051 1.63416,-4.101051 0.0778,0 0.66393,0.428069 1.30241,0.951259 3.00866,2.465372 7.9085,2.558752 12.6825,0.24172 3.48841,-1.693095 5.40966,-4.182901 5.63265,-7.29956 0.11891,-1.661911 0.0535,-1.991442 -0.6982,-3.5184 -0.45617,-0.92661 -0.8294,-1.745715 -0.8294,-1.82023 0,-0.396031 2.91254,-0.439399 4.33713,-0.06458 0.85746,0.2256 1.6138,0.355394 1.68076,0.288428 0.19817,-0.198165 -3.40599,-1.923902 -5.10765,-2.445637 -2.30079,-0.705432 -9.67874,-0.700791 -11.75816,0.0074 -6.41425,2.184501 -12.5087,8.753083 -15.35348,16.547971 -3.95995,10.85053 -0.12458,23.59183 8.56427,28.45091 2.00381,1.1206 4.91527,2.15137 7.20085,2.54938 l 1.63794,0.28524 -0.27213,1.0721 -0.27212,1.07209 -1.87714,-0.14211 c -2.42519,-0.18361 -4.73941,-0.96419 -7.67679,-2.58934 -1.29803,-0.71816 -2.40787,-1.25793 -2.46631,-1.19949 -0.0584,0.0584 0.26686,1.04032 0.72289,2.18195 2.37835,5.95398 6.20327,10.86199 12.4011,15.91273 1.36223,1.11011 2.34382,2.0627 2.1813,2.11687 -0.16252,0.0542 -1.09848,-0.19992 -2.07991,-0.56466 -2.99838,-1.11431 -2.9755,-1.11231 -2.97192,-0.25967 0.003,0.75869 1.20262,5.87584 1.43074,6.10396 0.0688,0.0688 0.74405,-0.0234 1.50059,-0.20492 3.02701,-0.72617 7.64016,0.39094 11.06856,2.68034 2.20575,1.47295 4.82303,4.13031 5.93256,6.02344 1.03778,1.77071 2.02261,4.65791 2.02889,5.94809 0.007,1.48532 0.41032,1.69741 1.00618,0.52942 0.72173,-1.41469 2.59112,-3.0852 4.09541,-3.65969 1.19494,-0.45635 2.56082,-0.45677 4.05505,-10e-4 0.46336,0.14125 0.61556,0.0168 0.86912,-0.71073 1.35781,-3.89589 5.61374,-8.23758 9.95827,-10.15894 3.99121,-1.7651 9.833846,-2.03602 14.281696,-0.66222 6.89977,2.13112 14.04424,8.38743 17.1366,15.00628 0.96044,2.0557 1.664,4.85478 1.22026,4.85478 -0.11604,0 -0.78287,-0.84357 -1.48184,-1.87461 -5.24073,-7.73044 -9.38197,-11.81353 -14.45134,-14.24838 -3.24717,-1.55963 -5.08034,-1.97217 -8.77992,-1.97583 -5.190336,-0.005 -8.537586,1.32204 -11.906246,4.72086 -2.80924,2.83438 -4.45442,6.39559 -4.46908,9.67387 -0.0108,2.40634 0.79739,4.12376 2.78829,5.92542 1.6952,1.53407 5.99095,3.87985 9.22141,5.03554 6.051726,2.165 7.092396,2.72046 5.931486,3.16594 -0.65385,0.25091 -2.597386,0.18913 -4.084636,-0.12982 -0.74481,-0.15974 -1.4097,-0.23492 -1.47753,-0.16709 -0.16043,0.16042 0.92056,3.05169 1.20719,3.22884 0.12064,0.0746 0.88202,-0.16783 1.69196,-0.53863 4.928146,-2.25618 11.090466,0.0326 13.731306,5.10011 0.51459,0.98742 1.02154,2.3311 1.12656,2.98594 0.2541,1.58438 0.30904,1.64367 1.13711,1.22698 1.09814,-0.55259 2.6788,-0.71001 3.94015,-0.3924 l 1.14443,0.28818 1.43477,-1.49325 c 1.98184,-2.06261 4.20394,-3.08382 7.10238,-3.26405 4.49071,-0.27924 8.309,1.52658 10.55419,4.9915 0.59654,0.92062 0.96875,1.25949 1.25944,1.14666 2.00185,-0.77701 3.63466,-1.01405 7.29181,-1.05857 2.98172,-0.0363 4.56097,-0.18767 6.35,-0.60866 4.96644,-1.1687 10.66366,-0.61163 14.23505,1.39188 0.90197,0.506 1.69948,0.92597 1.77225,0.93327 0.0728,0.007 1.03964,-0.86238 2.14862,-1.9326 z M 84.015694,132.20868 c -0.49191,-0.146 -1.15342,-0.43518 -1.47002,-0.64262 -0.47317,-0.31003 -0.8353,-0.3227 -2.03442,-0.0712 -1.28893,0.27036 -1.57947,0.24688 -2.49524,-0.20164 -1.47948,-0.72461 -2.23405,-1.97529 -2.23405,-3.70285 0,-1.78806 0.58174,-2.49654 1.69815,-2.06813 0.30793,0.11816 0.41852,0.52681 0.41852,1.54649 0,1.71853 0.49968,2.26166 2.08075,2.26166 1.0696,0 1.13328,-0.0472 1.63102,-1.20838 0.45631,-1.06453 0.60479,-1.19838 1.24737,-1.12448 0.66166,0.0761 0.7367,0.19447 0.80796,1.27452 0.0887,1.34474 0.55774,1.85209 1.71215,1.85209 0.88129,0 2.31033,-1.26394 2.31033,-2.0434 0,-0.99919 1.08094,-1.31991 1.64959,-0.48944 0.37426,0.54656 0.19752,1.84589 -0.3622,2.66276 -1.15037,1.67884 -3.18604,2.48106 -4.95991,1.9546 z m 28.815406,-3.06194 c -0.35969,-0.0732 -0.89219,-0.29995 -1.18335,-0.50388 -0.29115,-0.20393 -0.79378,-0.37079 -1.11695,-0.37079 -0.32317,0 -0.74317,-0.22213 -0.93333,-0.49362 -0.19016,-0.27149 -0.71774,-0.57532 -1.1724,-0.67518 -1.06487,-0.23388 -2.01759,-1.25395 -2.01759,-2.1602 0,-0.72291 -0.30323,-1.21488 -1.56715,-2.54262 -0.5984,-0.62862 -0.91935,-0.74296 -2.08543,-0.74296 -0.95809,0 -1.66523,0.1774 -2.31985,0.58198 -1.399426,0.86489 -1.862346,0.80658 -2.337206,-0.2944 -0.64603,-1.49786 -0.77981,-6.38018 -0.23261,-8.48966 0.81724,-3.15055 2.999906,-7.37079 3.615366,-6.99041 0.14615,0.0903 0.20854,0.22142 0.13864,0.29132 -0.24276,0.24276 1.88236,1.93921 3.16624,2.52756 1.97371,0.90447 5.0011,0.84382 7.1121,-0.14249 3.08934,-1.44341 4.63021,-3.67318 4.63021,-6.7003 0,-1.41326 -0.13406,-2.00023 -0.66293,-2.902682 -0.36461,-0.62217 -0.57297,-1.18306 -0.46302,-1.24645 0.26026,-0.150033 3.97375,-0.005 4.83012,0.18834 0.3638,0.0822 1.01864,0.22422 1.45521,0.31553 1.27144,0.26593 4.62773,1.962792 4.97171,2.513592 0.17322,0.27738 0.44277,0.50432 0.59901,0.50432 0.15623,0 0.68668,0.53736 1.17879,1.19414 0.4921,0.65678 1.16659,1.37228 1.49887,1.58999 0.7368,0.48277 1.49875,1.88352 1.24655,2.2916 -0.10544,0.1706 -0.0659,0.2247 0.0926,0.12673 0.317,-0.19591 1.515,2.51217 1.91221,4.32254 0.39769,1.81253 0.33008,6.55335 -0.11798,8.27359 -0.44859,1.72224 -1.83253,5.10386 -2.40126,5.8674 -0.4216,0.56601 -0.89277,0.3235 -1.01708,-0.52348 -0.0383,-0.26102 -0.33671,-0.51533 -0.66311,-0.56514 -0.83463,-0.12737 -1.61181,-0.58043 -1.61181,-0.9396 0,-0.16722 -0.25068,-0.82186 -0.55706,-1.45475 -0.74979,-1.54887 -2.18328,-2.30044 -4.04626,-2.12144 -1.13698,0.10925 -1.46192,0.27511 -2.19068,1.11816 -1.3293,1.53777 -1.44695,4.40612 -0.2224,5.42241 0.29992,0.24891 0.35551,1.26326 0.0794,1.44858 -1.32644,0.89022 -5.8159,1.64692 -7.60759,1.28227 z m 3.88179,-4.08522 c 2.88531,-1.77328 2.52708,-6.24252 -0.63073,-7.86888 -0.88989,-0.45833 -2.64044,-0.35377 -3.77596,0.22553 -3.62058,1.84708 -2.94221,7.19507 1.04659,8.25086 0.95219,0.25203 2.38223,-0.007 3.3601,-0.60751 z m -12.35593,-10.81236 c 0,-0.14552 -0.11906,-0.26459 -0.26458,-0.26459 -0.14553,0 -0.26459,0.11907 -0.26459,0.26459 0,0.14552 0.11906,0.26458 0.26459,0.26458 0.14552,0 0.26458,-0.11906 0.26458,-0.26458 z m 20.6375,-5.87375 c 0,-0.42742 -0.0782,-0.50385 -0.29445,-0.28764 -0.16194,0.16194 -0.21445,0.42388 -0.11668,0.58208 0.27369,0.44283 0.41113,0.3444 0.41113,-0.29444 z m -49.420616,90.28551 c 1.18785,-0.70085 2.87912,-1.2832 5.08318,-1.75029 1.0078,-0.21357 1.97482,-0.50654 2.14893,-0.65105 0.17412,-0.14451 0.63925,-1.14742 1.03361,-2.22871 l 0.71704,-1.96598 1.49966,-0.2951 c 2.89413,-0.56952 5.73617,-1.34854 6.32336,-1.73328 1.14708,-0.7516 1.5558,-1.81792 1.43135,-3.73424 -0.0653,-1.00566 -1.38003,-2.22549 -3.38182,-3.13773 -3.73071,-1.70014 -6.80473,-4.30632 -8.09583,-6.86371 -0.65689,-1.30116 -0.82709,-2.02622 -0.96269,-4.10104 l -0.16471,-2.52043 -0.95589,-0.23623 c -0.52573,-0.12993 -1.26769,-0.15797 -1.64879,-0.0623 -1.64109,0.41188 -3.48906,2.95514 -4.54258,6.25168 -0.86923,2.7199 -0.95619,2.81189 -2.82711,2.99065 -2.24521,0.21454 -4.3577,0.98372 -6.27206,2.28374 -2.61475,1.77564 -3.80211,3.88276 -3.2059,5.68928 0.44968,1.36254 1.21836,2.19188 2.59966,2.80477 1.41835,0.62934 4.95284,1.48141 6.45176,1.55534 0.32557,0.0161 0.63649,0.64326 1.14447,2.30867 0.94512,3.09854 2.21138,5.91546 2.65913,5.91546 0.0466,0 0.48098,-0.23377 0.96523,-0.51948 z m -14.50593,-3.08543 c 0.22932,-0.67301 0.83582,-1.73484 1.34779,-2.35963 0.51196,-0.62478 0.93084,-1.20217 0.93084,-1.28309 0,-0.0809 -0.33465,-0.32017 -0.74368,-0.53169 -1.1378,-0.58838 -2.44004,-2.01441 -3.02753,-3.31534 -0.42773,-0.94718 -0.49898,-1.50085 -0.37036,-2.87819 l 0.15925,-1.70542 -1.03791,0.13921 c -0.61452,0.0824 -1.21734,0.008 -1.47776,-0.18241 -0.40924,-0.29924 -0.40827,-0.35322 0.014,-0.77545 0.2496,-0.2496 0.94741,-0.70206 1.55069,-1.00547 0.60329,-0.3034 2.4661,-1.35943 4.13959,-2.34673 1.67349,-0.98729 3.60107,-2.06506 4.28353,-2.39503 1.06425,-0.51459 1.34589,-0.82888 1.97922,-2.20863 0.99351,-2.16442 1.0438,-5.0646 0.1296,-7.47302 -1.23075,-3.24236 -5.04714,-6.78425 -8.95784,-8.31353 -1.85452,-0.72521 -5.46475,-0.9856 -7.05581,-0.50891 -2.48731,0.74522 -4.45629,3.0418 -5.527,6.44658 -0.51335,1.63244 -0.59402,2.46749 -0.59156,6.12354 0.003,4.56041 0.35918,6.92573 1.63316,10.84791 1.93022,5.94255 5.87294,11.355 10.13413,13.91185 0.94799,0.56882 1.80171,1.03487 1.89718,1.03566 0.0955,8e-4 0.36119,-0.54919 0.5905,-1.22221 z m 25.86127,-0.30841 c 0.43806,-1.03204 0.44309,-1.15008 0.0553,-1.29888 -0.73891,-0.28355 -1.27568,0.30373 -1.36312,1.49138 -0.0692,0.94058 -0.01,1.10586 0.37175,1.03139 0.24981,-0.0488 0.67104,-0.59953 0.93606,-1.22389 z m 9.49028,-5.495 c 0,-0.20969 -0.10633,-0.38126 -0.23628,-0.38126 -0.29203,0 -0.57652,0.68651 -0.37005,0.89298 0.2316,0.2316 0.60633,-0.0847 0.60633,-0.51172 z M 212.83612,189.6554 c 0,-0.14552 -0.0525,-0.26458 -0.11668,-0.26458 -0.0642,0 -0.19026,0.11906 -0.2802,0.26458 -0.0899,0.14552 -0.0374,0.26459 0.11668,0.26459 0.15411,0 0.2802,-0.11907 0.2802,-0.26459 z m 49.10674,-3.1129 c 0.79157,-0.52854 0.85205,-1.24554 0.26206,-3.10641 -0.32274,-1.01794 -0.78801,-2.15789 -1.03394,-2.53322 -0.24592,-0.37533 -0.38723,-0.74232 -0.31402,-0.81553 0.0732,-0.0732 -0.35098,-0.52215 -0.94265,-0.99763 -0.59167,-0.47548 -1.01256,-0.92771 -0.93532,-1.00496 0.0772,-0.0772 -0.95666,-0.68689 -2.29757,-1.35477 -2.27062,-1.13096 -2.60046,-1.21988 -4.80414,-1.29513 -1.30137,-0.0444 -2.2886,-0.003 -2.19384,0.0915 0.0947,0.0948 -0.32877,0.4253 -0.94117,0.73453 -0.71434,0.36072 -1.39796,1.0115 -1.90719,1.81559 -0.43657,0.68933 -1.24024,1.95582 -1.78594,2.81442 -0.5457,0.8586 -0.99219,1.61694 -0.99219,1.68521 0,0.0683 1.51805,0.19127 3.37344,0.27334 3.5113,0.15532 4.99303,0.50636 8.05551,1.9084 0.8267,0.37848 1.7783,0.97837 2.11467,1.33308 0.52584,0.55452 0.85271,0.64502 2.33138,0.64546 0.94589,2.7e-4 1.8508,-0.087 2.01091,-0.19386 z m -71.05302,-7.44442 c 2.64146,-0.99644 4.53449,-2.89068 5.57868,-5.58226 0.80234,-2.0682 0.99001,-6.47203 0.3671,-8.61474 -0.49738,-1.71094 -1.74172,-4.5865 -2.29949,-5.31391 -0.83054,-1.08315 -3.66485,-3.74878 -4.52667,-4.25726 l -0.93641,-0.5525 -0.15339,0.57181 c -0.0844,0.31449 -0.15298,0.86947 -0.15247,1.23327 0.002,1.06433 -1.12068,3.03687 -2.15401,3.78631 -1.34595,0.97617 -3.06008,1.30874 -5.07388,0.98443 -1.79837,-0.28962 -2.81794,-0.76598 -7.28011,-3.4014 -4.76,-2.81133 -10.85967,-6.50793 -12.8287,-7.77463 -2.23242,-1.43613 -4.61238,-2.81318 -7.2714,-4.20724 -1.99719,-1.04709 -2.62847,-1.49511 -2.38125,-1.69 0.18502,-0.14585 0.33641,-0.44214 0.33641,-0.65843 0,-0.82921 1.04278,-0.48938 5.47428,1.78399 4.90031,2.51386 7.13354,3.78032 13.17884,7.47368 5.90463,3.60742 9.60526,5.54465 11.25134,5.88992 1.33158,0.2793 1.58595,0.25758 2.45912,-0.20995 1.7396,-0.93145 2.32834,-3.11501 1.54325,-5.72366 -0.19619,-0.65189 -1.19575,-2.49012 -2.22124,-4.08495 -3.04728,-4.73909 -5.62632,-10.30299 -6.296,-13.58276 -0.21067,-1.03171 -2.15313,-3.22451 -4.16398,-4.70061 -2.04396,-1.50041 -1.15103,-1.66914 1.30232,-0.24609 l 2.07832,1.20552 0.18661,-3.83932 c 0.24575,-5.05598 0.78515,-8.05329 2.11465,-11.75064 0.60176,-1.67349 1.08589,-3.49404 1.07585,-4.04565 -0.03,-1.64883 -2.66779,-5.45121 -3.57241,-5.14967 -0.14354,0.0478 -0.64053,1.09457 -1.10443,2.32605 -1.04232,2.76698 -2.8109,6.26507 -4.14183,8.19218 -1.36503,1.97649 -4.14115,4.52549 -6.92591,6.35928 -0.5447,0.3587 -0.99056,0.71171 -0.9908,0.78447 -2.3e-4,0.0728 0.83233,0.50967 1.85014,0.97091 1.43904,0.65213 1.81371,0.93465 1.68486,1.27043 -0.1265,0.32965 -0.36119,0.39005 -0.99205,0.2553 -0.45449,-0.0971 -0.94977,-0.2753 -1.10062,-0.39607 -0.60424,-0.48373 -4.82849,-0.7898 -7.18089,-0.52028 -1.28393,0.1471 -2.9539,0.26843 -3.71105,0.26963 -1.3648,0.002 -1.37899,0.0107 -1.65217,0.99435 -0.15155,0.54571 -0.27621,1.17491 -0.27702,1.39824 -7.9e-4,0.22332 -0.2396,1.08355 -0.53064,1.91162 -0.91153,2.59346 -0.88801,2.6363 1.91823,3.49423 2.64664,0.80914 3.9117,1.49294 5.27675,2.85225 0.48115,0.47912 1.32014,1.20948 1.86442,1.62303 0.54429,0.41355 0.92421,0.85772 0.84428,0.98705 -0.0799,0.12933 0.0765,0.23514 0.34755,0.23514 0.27108,0 0.89309,0.41291 1.38223,0.91758 0.75539,0.77937 0.82248,0.94324 0.44541,1.08793 -0.24417,0.0937 -0.59126,0.0539 -0.7713,-0.0885 -0.18005,-0.14235 -1.27986,-1.02087 -2.44403,-1.95227 -1.16417,-0.93139 -3.06917,-2.18718 -4.23333,-2.79064 -2.13762,-1.10805 -5.23162,-2.08674 -5.69385,-1.80106 -0.13794,0.0853 -0.68034,1.01236 -1.20533,2.06023 -1.26533,2.52562 -2.17384,3.99063 -3.24291,5.22934 -0.94085,1.09014 -0.91935,1.57069 0.0703,1.57069 0.87488,0 2.45356,0.59753 5.39226,2.04098 6.84057,3.36 11.83697,6.52963 15.23403,9.66419 1.76764,1.63105 2.02784,1.97624 1.69679,2.25099 -0.32356,0.26853 -0.70652,0.0494 -2.22009,-1.2702 -3.27114,-2.85198 -13.24957,-8.47929 -17.36937,-9.7954 -2.45562,-0.78448 -4.21242,-0.62289 -6.28784,0.57835 -0.21828,0.12634 -0.82868,0.46401 -1.35643,0.75038 -1.46879,0.79698 -1.47392,1.19203 -0.0427,3.29015 1.5876,2.32744 9.87599,10.68946 13.57,13.69057 7.13098,5.79339 14.14832,9.94595 20.48943,12.12476 7.73696,2.65843 12.29065,3.20432 15.77262,1.89082 z m 74.06678,-0.41997 c 0.17983,-0.21668 0.41778,-0.33783 0.52879,-0.26922 0.11101,0.0686 0.544,-0.36945 0.96221,-0.97346 0.63606,-0.91865 0.75952,-1.36129 0.75515,-2.70734 -0.005,-1.38646 -0.14029,-1.82884 -0.98121,-3.19664 -1.64613,-2.67755 -3.39711,-4.23824 -6.51342,-5.80555 -4.4135,-2.21972 -11.30921,-2.52528 -16.39269,-0.72639 -2.30201,0.81462 -4.63281,2.08313 -4.43014,2.41104 0.0731,0.11822 0.58195,0.28946 1.13088,0.38055 2.62219,0.43516 5.74,2.54392 7.00056,4.7349 0.71374,1.24055 0.975,1.49485 1.40583,1.36835 0.29104,-0.0855 1.69934,-0.21845 3.12956,-0.29554 2.55187,-0.13755 4.94023,0.22269 4.94023,0.74515 0,0.1266 0.21481,0.23019 0.47736,0.23019 0.72289,0 2.86912,1.45665 4.27909,2.90422 0.90252,0.92657 1.50924,1.32104 2.15273,1.39961 0.49281,0.0602 0.97074,0.12846 1.06207,0.15175 0.0913,0.0233 0.31317,-0.13494 0.493,-0.35162 z M 71.540524,175.10332 c 0,-0.35278 -0.0285,-0.35278 -0.25648,0 -0.14106,0.21828 -0.25648,0.57547 -0.25648,0.79375 0,0.35278 0.0285,0.35278 0.25648,0 0.14107,-0.21828 0.25648,-0.57547 0.25648,-0.79375 z m 139.311226,0.51665 c 3.74259,-0.68907 8.4994,-2.35924 8.99272,-3.15745 0.0917,-0.14829 0.43932,-0.26962 0.7726,-0.26962 0.99146,0 5.55033,-2.60019 9.02009,-5.1447 1.77354,-1.3006 4.34665,-4.17736 4.50959,-5.04175 0.30716,-1.62951 -2.27619,-7.52884 -3.39531,-7.75352 -0.22081,-0.0443 -0.79998,0.26678 -1.28704,0.69137 -1.26304,1.10103 -4.57117,3.17867 -6.50797,4.08729 -0.9095,0.42667 -1.65364,0.862 -1.65364,0.9674 0,0.10539 0.19315,0.83831 0.42922,1.6287 0.68724,2.30092 0.17574,8.58908 -0.65681,8.07454 -0.12571,-0.0777 -0.1686,-1.2878 -0.0953,-2.68912 0.12602,-2.40935 -0.23083,-5.64539 -0.70762,-6.41685 -0.17023,-0.27544 -0.53294,-0.26562 -1.90498,0.0515 -2.70186,0.62456 -5.96573,1.00128 -8.73168,1.00783 l -2.56358,0.006 -0.10505,2.81821 c -0.0939,2.51847 -0.19613,3.00671 -0.96141,4.59048 -0.86383,1.78772 -3.51879,5.01516 -3.69377,4.49023 -0.0519,-0.15581 0.45061,-1.11824 1.11676,-2.13872 0.66616,-1.02049 1.32691,-2.15978 1.46834,-2.53177 0.54074,-1.42226 1.06004,-4.2005 1.06004,-5.67119 v -1.5328 l -2.18281,-0.451 c -1.20055,-0.24805 -2.99907,-0.68924 -3.99673,-0.98043 -1.84334,-0.53802 -2.31627,-0.51424 -1.82416,0.0917 0.5482,0.67502 1.69984,4.88328 1.84433,6.73945 0.14021,1.80116 -0.25635,4.90687 -0.70278,5.50393 -0.10881,0.14552 -0.39225,0.76544 -0.62986,1.3776 -0.33388,0.86016 -0.35842,1.15877 -0.10803,1.31439 1.29563,0.8052 8.84807,1.00962 12.49484,0.3382 z m 26.33294,-16.73593 c 0.90366,-1.208 2.28937,-3.24987 3.07934,-4.5375 1.64566,-2.68235 1.66241,-3.06615 0.23154,-5.30468 -0.80217,-1.25496 -3.08926,-3.83646 -3.39892,-3.83646 -0.0795,0 -0.53412,0.68461 -1.01019,1.52136 -1.15666,2.03296 -3.03751,4.79655 -3.85525,5.66465 l -0.6629,0.70371 1.03223,1.41295 c 0.97411,1.3334 1.6976,3.15371 2.08642,5.24942 0.34403,1.85435 0.49724,1.80078 2.49773,-0.87345 z m -22.18993,0.0535 c 0.56862,-0.14438 1.30549,-0.63014 1.78594,-1.17734 0.44986,-0.51236 0.81792,-0.96947 0.81792,-1.01581 0,-0.0463 0.29859,-0.90539 0.66353,-1.90902 0.80482,-2.21336 1.09636,-5.45297 0.68804,-7.64561 -0.27752,-1.4903 -1.88975,-5.22023 -2.72844,-6.31232 -0.32422,-0.42218 -0.7641,-0.4924 -3.11953,-0.498 -2.56012,-0.006 -2.75593,0.0309 -2.95077,0.55763 -0.28359,0.76661 -0.46701,0.71001 -0.80065,-0.24708 -0.21723,-0.62315 -0.61816,-0.95954 -1.72929,-1.45094 -0.79557,-0.35183 -2.20993,-1.24719 -3.14302,-1.98967 -0.9331,-0.74249 -1.69686,-1.25043 -1.69725,-1.12875 -2.7e-4,0.12166 -0.45478,0.74777 -1.00975,1.39134 -1.38103,1.60151 -1.98236,1.23694 -0.70946,-0.43012 0.91411,-1.19718 1.15544,-2.11497 0.68505,-2.60532 -0.61408,-0.64013 -2.38886,-4.67272 -2.78888,-6.33677 -0.35043,-1.45776 -0.62414,-2.00266 -1.2856,-2.55933 -0.87563,-0.7369 -0.80495,-1.36344 0.0907,-0.80409 0.73236,0.45736 0.78531,0.4203 0.78531,-0.54974 0,-2.28356 1.4625,-5.76985 3.34533,-7.97457 1.03604,-1.21315 1.10716,-1.95646 0.36689,-3.83455 -0.29541,-0.74946 -0.41504,-1.38762 -0.27621,-1.47343 0.32579,-0.20135 0.93895,0.79236 1.34551,2.18061 0.18113,0.61846 0.41855,1.12448 0.52761,1.12448 0.10906,0 0.77762,-0.30057 1.48569,-0.66793 1.64644,-0.85421 3.64832,-1.16752 5.55217,-0.86897 0.82637,0.12959 1.65743,0.17616 1.8468,0.10349 0.18936,-0.0727 0.43674,0.0242 0.54973,0.21527 0.11299,0.19106 0.68169,0.64556 1.26377,1.00999 1.67126,1.04636 3.43988,3.0419 4.25834,4.80473 0.41398,0.89162 0.78318,1.66786 0.82046,1.72497 0.0373,0.0571 0.2543,-0.0509 0.48227,-0.24014 0.27878,-0.23136 0.50189,-0.25658 0.68144,-0.077 0.17955,0.17955 0.0571,0.40447 -0.37406,0.68696 -0.57497,0.37674 -0.653,0.64834 -0.75733,2.63618 -0.093,1.77156 -0.25858,2.47068 -0.82542,3.48487 -0.39,0.69779 -0.65584,1.35487 -0.59075,1.46019 0.0651,0.10531 0.62957,0.53019 1.2544,0.94418 0.62484,0.414 1.63278,1.297 2.23986,1.96224 l 1.1038,1.20954 0.71228,-1.54482 c 1.02588,-2.22497 1.43284,-3.93488 1.61955,-6.80469 0.20955,-3.2211 -0.055,-5.44458 -0.71506,-6.00974 -0.33918,-0.29041 -0.41581,-0.52522 -0.24039,-0.73659 0.37157,-0.44771 -0.57614,-3.27972 -1.89875,-5.67395 -0.76354,-1.38218 -1.8536,-2.73753 -3.59202,-4.4662 -2.82602,-2.81017 -2.9891,-3.68441 -0.30879,-1.65536 6.88307,5.21061 10.19058,14.37419 8.13613,22.54149 -1.21801,4.84215 -4.31723,8.9117 -8.33678,10.94699 -0.79557,0.40283 -1.40983,0.80968 -1.36503,0.9041 0.0448,0.0944 0.51321,1.00512 1.04091,2.02377 2.73346,5.27655 3.01995,11.04581 0.73308,14.76245 -0.44078,0.71635 -0.73229,1.37159 -0.6478,1.45608 0.2502,0.2502 3.65209,-0.94457 5.53581,-1.94421 3.25486,-1.72727 5.16185,-3.23396 7.3336,-5.79418 1.18914,-1.40186 1.55963,-2.03805 1.55963,-2.67816 0,-1.78684 -3.30074,-7.23328 -5.36034,-8.84491 -0.96715,-0.75679 -0.64466,-1.22528 0.35396,-0.51421 2.33352,1.66162 4.08078,4.0222 5.42364,7.32745 0.25127,0.61846 0.53847,1.12448 0.63822,1.12448 0.17458,0 1.99323,-3.78931 2.60319,-5.42396 1.12954,-3.0271 1.73403,-8.99338 1.34814,-13.30617 -0.28866,-3.22622 -1.36653,-8.24047 -2.19416,-10.20722 l -0.43083,-1.02381 -0.90867,0.69308 c -0.49978,0.38119 -1.07537,0.69308 -1.27911,0.69308 -0.78837,0 -0.67467,-0.37695 0.33845,-1.122 1.34172,-0.98672 1.35494,-1.5952 0.0843,-3.87966 -3.17162,-5.70207 -7.97173,-10.29722 -13.71364,-13.12811 -6.80054,-3.352803 -15.1603,-3.791871 -22.29675,-1.171062 -7.81447,2.869812 -13.35199,9.131102 -16.01679,18.110202 -0.64592,2.17646 -1.56884,6.77249 -1.39489,6.94643 0.04,0.04 0.64334,-0.24615 1.34073,-0.63593 1.67435,-0.93581 3.94445,-1.46333 4.83697,-1.12399 0.92191,0.3505 0.53921,0.59062 -1.79114,1.12381 -2.59207,0.59307 -4.4298,1.79682 -4.6671,3.05704 -0.35809,1.90171 0.33557,7.66996 1.21211,10.07952 1.48482,4.08166 2.06649,5.30373 4.62562,9.71823 1.91917,3.31056 6.99695,7.78598 11.13249,9.8119 3.29909,1.61615 3.66104,1.50153 7.63245,-2.41695 2.20972,-2.18027 2.85584,-2.0427 1.13525,0.24171 -0.71958,0.95537 -1.80272,1.96012 -2.78668,2.58498 -0.88526,0.56218 -1.55273,1.11414 -1.48325,1.22656 0.23227,0.37581 3.41349,1.0946 5.82098,1.31524 2.63316,0.24132 6.87628,0.098 8.37635,-0.28285 z m 28.24593,-9.71929 c 1.84147,-3.60956 4.33428,-10.90179 3.88151,-11.35456 -0.0858,-0.0858 0.007,-0.34424 0.20628,-0.57433 1.44584,-1.66969 2.55382,-14.98178 1.73048,-20.79127 -0.14437,-1.01864 -0.36094,-2.92364 -0.48127,-4.23333 -0.46744,-5.08767 -2.85414,-12.972332 -5.54649,-18.323237 l -0.99572,-1.978932 -0.48226,1.781611 c -0.26524,0.97989 -0.80957,2.557441 -1.20962,3.505673 -0.54638,1.295053 -0.67466,1.907823 -0.51557,2.462573 0.24898,0.868142 0.0622,1.163032 -0.46137,0.728492 -0.29806,-0.24737 -0.49442,-0.15802 -0.97375,0.44312 -0.67398,0.84525 -1.18031,0.53046 -0.67262,-0.41817 0.16631,-0.31076 0.22936,-0.938302 0.14011,-1.394532 -0.0893,-0.45624 -0.18014,-0.973107 -0.20196,-1.148605 -0.0218,-0.175501 -0.1389,-0.25777 -0.26017,-0.182822 -0.12127,0.07495 -0.22048,0.0175 -0.22048,-0.127648 0,-0.481999 -3.15084,-4.454334 -4.96232,-6.256117 -2.16723,-2.155619 -5.33236,-4.633034 -8.00227,-6.263542 -2.7365,-1.671172 -7.06043,-3.803102 -8.47858,-4.180393 -0.64829,-0.172474 -1.56354,-0.549222 -2.0339,-0.837221 -0.47036,-0.287999 -1.42286,-0.55807 -2.11667,-0.600157 -0.69381,-0.04209 -2.09491,-0.216691 -3.11355,-0.388011 -2.15613,-0.362628 -9.39592,-0.765313 -9.54094,-0.530678 -0.0543,0.08782 -0.96585,0.238578 -2.02574,0.335032 -2.42852,0.221001 -2.96931,0.302659 -4.44062,0.670533 -3.84313,0.960906 -4.6303,1.244518 -4.63358,1.669449 -0.005,0.662202 -0.25102,0.779865 -1.01935,0.487746 -0.60369,-0.229526 -1.09266,-0.06428 -3.57849,1.20931 -3.65805,1.874168 -6.23075,3.888936 -5.99469,4.694653 0.41477,1.415756 0.92985,4.081108 0.93402,4.833202 0.004,0.670697 0.33603,1.15026 1.74177,2.513541 2.37825,2.306434 3.63844,4.001348 4.98237,6.70113 l 1.14196,2.29404 0.63794,-0.75815 c 0.94387,-1.12173 3.81206,-3.295012 5.92035,-4.485982 l 1.85208,-1.046224 -0.0558,-2.12104 c -0.0363,-1.380191 -0.2808,-2.829562 -0.69997,-4.149537 -0.64291,-2.02452 -0.53147,-2.965542 0.18607,-1.571196 0.46299,0.899713 1.40515,4.505491 1.63235,6.247243 0.13894,1.065163 0.24045,1.245767 0.61034,1.085917 1.08376,-0.468358 4.75236,-1.460545 6.33543,-1.713442 0.95436,-0.152458 3.41241,-0.257982 5.46234,-0.234492 l 3.72715,0.04271 0.30944,-1.155213 c 0.17019,-0.635368 0.31902,-2.280354 0.33073,-3.655526 0.0164,-1.930947 0.0929,-2.428721 0.33568,-2.185921 0.33079,0.33079 0.45059,3.66939 0.21478,5.985759 -0.12304,1.208659 -0.086,1.313203 0.52917,1.495149 0.3638,0.107593 1.67349,0.505601 2.91041,0.884465 2.61768,0.801775 2.91042,0.829334 2.91042,0.273995 0,-0.22687 0.10788,-0.345813 0.23974,-0.264319 0.13186,0.08149 0.18205,0.368811 0.11153,0.638485 -0.0988,0.377687 0.19562,0.659307 1.28161,1.226007 3.87671,2.023002 7.65086,5.151182 10.59922,8.785092 l 1.36414,1.68133 0.56744,-0.71163 c 0.4037,-0.50629 0.62542,-0.61779 0.76842,-0.38642 0.1126,0.18219 0.015,0.53066 -0.22181,0.79239 -0.63684,0.7037 -0.53101,1.17697 0.76206,3.40815 1.54456,2.66511 2.89555,5.81603 3.6408,8.49149 0.32907,1.18135 0.68757,2.14881 0.79668,2.14991 0.1091,10e-4 1.12113,-0.50366 2.24895,-1.12169 1.29428,-0.70925 2.75099,-1.82232 3.94957,-3.01786 1.91401,-1.90915 2.48297,-2.19588 1.82185,-0.91813 -0.74797,1.44559 -3.05845,3.3629 -5.48073,4.54808 l -2.3975,1.17306 0.1716,1.32292 c 0.57495,4.43242 0.65051,6.28877 0.38651,9.49592 -0.22849,2.77582 -0.21556,3.45078 0.0695,3.62696 0.49323,0.30483 2.97413,0.58652 3.93001,0.44623 0.44025,-0.0646 0.91632,0.0222 1.05795,0.19278 0.45884,0.55287 -1.00007,0.93943 -3.57202,0.94646 l -2.44789,0.007 -0.42137,1.63832 c -0.23176,0.90107 -0.48733,1.87643 -0.56794,2.16748 -0.10601,0.38274 0.26365,1.00504 1.33595,2.24895 0.81539,0.94589 1.8387,2.46525 2.27403,3.37637 0.43533,0.91111 0.90303,1.58764 1.03934,1.5034 0.13631,-0.0842 0.47243,-0.59341 0.74693,-1.13148 z m -29.75417,-11.83114 c 0.67617,-0.7296 1.25662,-0.42615 0.62973,0.3292 -0.31825,0.38347 -0.22036,0.41251 0.99629,0.29561 1.80763,-0.17369 3.64719,-1.10098 5.33035,-2.68695 1.9161,-1.80544 1.87271,-2.21582 -0.47255,-4.46992 -1.02389,-0.98409 -2.09141,-1.78925 -2.37227,-1.78925 -0.28087,0 -0.92507,0.19762 -1.43157,0.43915 l -0.9209,0.43915 0.38276,0.91608 c 0.58618,1.40294 0.49848,4.23027 -0.16499,5.31855 -0.39883,0.6542 -0.62458,0.81641 -0.8385,0.60249 -0.21392,-0.21392 -0.20541,-0.48436 0.0316,-1.00451 0.46707,-1.02511 0.66224,-3.80512 0.32741,-4.66364 -0.15677,-0.40197 -0.55531,-0.83544 -0.88566,-0.96328 -3.13512,-1.21317 -4.16016,-2.08268 -4.74112,-4.02175 -0.30398,-1.01462 -0.27482,-1.19584 0.39974,-2.48424 0.95622,-1.82636 2.04581,-2.4584 3.4431,-1.99725 1.33272,0.43984 2.48003,2.11964 2.12915,3.11736 -0.3434,0.97646 -0.70921,0.82843 -1.17003,-0.47348 -0.49424,-1.39629 -1.03783,-1.77704 -2.03595,-1.42602 -1.13046,0.39756 -1.52998,1.45555 -1.07144,2.83732 0.47942,1.44467 1.70399,2.30574 3.2791,2.30574 0.99939,0 1.29,-0.14241 2.19632,-1.07631 0.78198,-0.80579 1.08949,-1.37623 1.22346,-2.26959 0.36251,-2.41737 -0.52984,-5.34898 -2.21097,-7.26369 -2.79266,-3.18067 -8.05495,-3.46675 -11.38215,-0.61879 -1.3292,1.13774 -2.84501,4.08502 -3.25743,6.33359 -1.08757,5.92966 3.37183,12.92351 9.29031,14.57034 1.87537,0.52183 2.59853,0.45691 3.29623,-0.29591 z m -56.2129,-14.42392 c 7.38826,-1.19337 12.96093,-6.57196 15.88178,-15.32864 0.46112,-1.38244 0.93549,-2.75166 1.05414,-3.04271 0.46776,-1.14735 1.04317,-5.198462 1.20258,-8.466663 0.1315,-2.696036 0.0729,-3.889611 -0.27128,-5.521367 -0.67417,-3.196675 -1.72243,-5.307801 -2.64283,-5.322499 -0.13956,-0.0021 -0.32724,-0.361238 -0.41708,-0.7978 -0.23284,-1.131496 -0.76762,-2.034061 -1.13303,-1.912274 -0.32275,0.107564 -1.37225,2.828838 -2.16607,5.61644 -0.90208,3.167729 -1.46605,4.288372 -1.99396,3.962104 -0.0926,-0.05721 0.29315,-1.507871 0.85716,-3.223689 1.23014,-3.742288 1.85684,-6.570202 1.89611,-8.555884 0.0229,-1.158668 -0.15178,-1.83471 -0.83015,-3.212673 -0.79168,-1.608127 -2.60581,-3.654232 -3.23994,-3.654232 -0.38977,0 -1.2444,1.507686 -1.43721,2.535467 -0.0914,0.487053 -0.29095,0.9627 -0.44352,1.05699 -0.58578,0.362034 -0.71229,-0.350721 -0.35585,-2.004957 0.71235,-3.306046 0.45768,-4.341392 -1.76173,-7.162078 -2.06941,-2.63005 -7.9977,-8.546919 -10.94599,-10.924904 -1.60073,-1.29109 -2.99789,-2.482427 -3.10481,-2.647413 -0.10691,-0.164989 -0.1962,-0.209187 -0.19843,-0.09822 -0.002,0.110966 -0.46034,-0.08628 -1.01802,-0.438335 -1.46067,-0.922076 -2.80515,-1.243266 -3.78069,-0.90319 -1.0586,0.369031 -1.55652,-0.08379 -0.63465,-0.577162 0.36675,-0.196273 0.66681,-0.437351 0.66681,-0.535728 0,-1.005234 -9.67962,-6.462506 -14.68438,-8.278905 -5.59544,-2.030777 -6.60093,-2.137158 -9.04,-0.956426 -0.62037,0.300315 -1.2214,0.537422 -1.33564,0.526904 -0.46388,-0.04271 -0.18531,-0.722947 0.57352,-1.400487 0.67221,-0.600191 0.74104,-0.763119 0.41389,-0.979773 -1.15886,-0.767445 -8.75924,-3.028169 -11.69781,-3.479495 -3.01251,-0.462685 -4.61338,-0.25471 -6.14365,0.798144 -0.989156,0.680564 -1.321396,0.797301 -1.490486,0.523706 -0.13009,-0.210476 -0.0438,-0.646245 0.21447,-1.083506 0.23763,-0.402286 0.35846,-0.805034 0.2685,-0.894998 -0.34698,-0.346975 -2.27917,-0.634095 -4.30654,-0.63994 -1.80455,-0.0052 -2.36114,0.109554 -3.77465,0.778256 -0.91189,0.431398 -1.74533,0.798616 -1.85208,0.816041 -0.10676,0.01741 -0.3458,0.157584 -0.53122,0.311468 -0.64033,0.531421 -0.67727,-0.06434 -0.0457,-0.73664 0.8957,-0.953428 0.40979,-1.16709 -2.65991,-1.169596 -7.62781,-0.0062 -13.41604,2.511954 -17.75319,7.723571 -1.51293,1.817971 -1.60551,2.169808 -0.50746,1.928638 1.26338,-0.277484 3.49243,0.523938 5.10038,1.833761 2.47428,2.01554 3.54856,5.106839 2.74057,7.886202 -0.43557,1.498333 -2.13551,3.73952 -3.05865,4.032514 -0.37758,0.119841 -0.5351,0.515403 -0.6644,1.668484 -0.30267,2.699237 -0.62736,9.394652 -0.47485,9.792083 0.12044,0.313851 0.59265,0.361622 2.49979,0.252881 1.29322,-0.07374 2.42121,-0.20397 2.50665,-0.289409 0.0854,-0.08544 -0.0906,-0.784701 -0.39123,-1.553914 -1.00548,-2.572861 -1.46675,-6.306298 -0.82792,-6.701118 0.41662,-0.257484 0.44132,-0.185615 0.77585,2.257687 0.31924,2.331585 1.13676,4.478507 2.08489,5.475208 0.3311,0.348059 0.99996,0.633024 1.68014,0.71582 2.79637,0.340389 4.70193,0.422156 4.70193,0.201758 0,-0.131279 -0.16085,-0.700141 -0.35746,-1.26414 -0.1966,-0.563999 -0.43647,-1.813782 -0.53304,-2.777294 -0.14845,-1.481145 -0.0997,-1.845545 0.31547,-2.35826 l 0.49105,-0.60642 0.15351,1.83111 c 0.18108,2.159934 0.8767,4.079859 1.85296,5.114205 0.55857,0.591812 1.23113,0.863195 3.29235,1.328499 1.4247,0.321617 4.37631,1.044348 6.55912,1.606066 3.827486,0.984954 6.482286,1.50291 6.482286,1.264706 0,-0.06287 -0.19178,-0.760098 -0.42617,-1.54939 -0.52455,-1.766361 -0.39661,-5.230434 0.27601,-7.472759 0.47844,-1.595024 1.12741,-1.950442 1.01354,-0.555087 -0.51202,6.274487 -0.34587,7.773256 1.06529,9.60934 0.65146,0.84763 1.22291,1.221687 2.69039,1.761077 2.72709,1.00238 5.56633,2.168382 7.79073,3.199458 1.07731,0.499364 2.11242,0.848966 2.30025,0.776894 0.54243,-0.208153 2.58259,-2.897526 5.23883,-6.905932 4.2393,-6.397336 4.45429,-6.81828 4.6564,-9.116978 0.21226,-2.414187 1.11833,-4.297814 2.7592,-5.736142 1.865,-1.634776 2.39408,-1.815629 5.31157,-1.815629 2.4248,0 2.7517,0.06223 3.91312,0.744918 2.02931,1.192843 2.97763,2.178974 3.92789,4.08449 1.15577,2.317622 1.21295,4.455151 0.17944,6.708266 -0.75872,1.654083 -1.72478,2.512309 -4.00095,3.554378 -1.02431,0.468945 -1.64696,0.949603 -1.92392,1.485194 -0.77717,1.502875 -4.9908,8.035419 -6.6285,10.276395 -1.08524,1.485003 -1.55945,2.347322 -1.3979,2.541979 0.13447,0.162022 1.1352,0.844274 2.22386,1.516115 2.06758,1.275964 2.43267,1.31513 3.44238,0.369284 0.29104,-0.272632 1.08568,-0.897035 1.76587,-1.387562 0.97818,-0.705432 1.2958,-0.820663 1.51941,-0.55123 0.21471,0.258712 -0.13046,0.723916 -1.43514,1.934233 -0.94482,0.87648 -1.71785,1.720033 -1.71785,1.874565 0,0.380172 0.29915,0.648423 3.45358,3.09689 1.49983,1.164166 3.41512,2.738268 4.2562,3.498 1.73949,1.571257 2.34187,1.790277 4.35307,1.582707 1.94371,-0.20061 4.05103,-1.2161 5.67408,-2.734269 1.35232,-1.264938 1.97698,-1.579943 2.25168,-1.135475 0.23268,0.376479 -2.07718,2.674088 -3.62786,3.608614 -0.77649,0.46795 -2.24523,1.06007 -3.26388,1.31582 -1.01864,0.255742 -1.8928,0.489062 -1.94256,0.518472 -0.0498,0.0294 0.40037,0.74698 1.0003,1.5946 0.59994,0.84761 1.69437,2.46385 2.43207,3.59163 0.73771,1.12779 1.50524,2.05052 1.70564,2.05052 0.76034,0 3.84007,-1.32506 5.18529,-2.23098 1.34172,-0.90357 2.05596,-1.13475 2.41048,-0.78023 0.53763,0.53762 -3.51279,3.02952 -6.75632,4.15663 -0.55766,0.19378 -0.57788,0.57917 -0.10124,1.93017 0.19898,0.564 0.52161,2.06725 0.71694,3.34056 l 0.35515,2.3151 h 1.23957 c 1.49595,0 4.30874,-0.82604 6.40597,-1.88127 1.52602,-0.76781 2.35598,-0.81097 1.75884,-0.0914 -0.63364,0.76348 -3.83797,2.27764 -6.03195,2.8503 -3.00526,0.78443 -3.23194,0.93492 -3.50011,2.32375 -0.27391,1.41857 -0.31153,3.26139 -0.0715,3.50145 0.25641,0.25641 1.82175,0.2129 3.79236,-0.10539 z M 59.860524,114.3279 c 2.42209,-1.79389 2.56476,-4.88864 0.31274,-6.78359 -2.21653,-1.86509 -5.77102,-0.71873 -6.62666,2.13717 -0.60004,2.00273 0.36375,4.14977 2.2462,5.00389 1.07652,0.48845 3.17451,0.30408 4.06772,-0.35747 z m 122.028056,-5.0397 c 0.46914,-0.83675 1.37347,-2.21776 2.00964,-3.06892 0.63616,-0.85117 1.15665,-1.70359 1.15665,-1.89428 0,-0.19069 -0.58954,-1.52434 -1.31009,-2.96366 -1.00662,-2.010762 -1.70881,-3.008342 -3.03137,-4.306571 -2.50012,-2.454129 -2.43229,-2.452544 -2.63216,-0.0615 -0.0939,1.123281 -0.42915,3.438901 -0.745,5.145791 l -0.57428,3.10348 1.4398,1.52673 c 0.79189,0.83971 1.73486,2.0923 2.09548,2.78352 0.36062,0.69123 0.67428,1.25677 0.69701,1.25677 0.0228,0 0.42519,-0.68462 0.89432,-1.52135 z M 69.417094,97.872772 c 0.19804,-0.370046 0.16886,-0.583938 -0.11139,-0.816528 -0.50979,-0.423087 -0.93207,-0.118599 -0.93207,0.672068 0,0.777116 0.65625,0.867976 1.04346,0.14446 z M 240.46269,94.419481 c 1.1132,-3.648181 1.09647,-3.722642 -1.93508,-8.613034 -2.65815,-4.28802 -4.85407,-7.098553 -8.3428,-10.677815 -11.33745,-11.631644 -24.69888,-18.071986 -41.21691,-19.866948 -2.75198,-0.299048 -7.65396,-0.368623 -8.57397,-0.12169 -0.37622,0.100978 -0.66532,0.512093 -0.88122,1.253157 -0.75531,2.592517 -4.47383,9.827384 -5.95688,11.58989 -0.36948,0.43911 -0.67179,0.906597 -0.67179,1.038857 0,0.13226 0.74164,0.614854 1.64809,1.07243 2.4835,1.253662 5.026,3.256063 8.47509,6.674723 1.71146,1.696349 3.30748,3.084272 3.54672,3.084272 0.23925,0 1.73959,-0.421746 3.33409,-0.937215 1.5945,-0.515467 3.81665,-1.111272 4.93811,-1.32401 2.78176,-0.527687 8.19187,-0.866436 9.87851,-0.618532 0.76153,0.111932 2.51975,0.325877 3.90715,0.475435 1.38741,0.149558 3.53053,0.577199 4.7625,0.950312 1.23197,0.373113 2.86876,0.870556 3.6373,1.105426 1.3347,0.407893 1.4144,0.404522 1.77752,-0.07521 0.36058,-0.476367 0.3806,-0.465106 0.38859,0.218485 0.007,0.631722 0.26165,0.847386 2.05893,1.746287 2.10476,1.052682 4.49779,2.531348 6.17706,3.816834 0.52277,0.400182 1.20715,0.727604 1.52083,0.727604 0.31369,0 0.57034,0.152268 0.57034,0.338373 0,0.186105 0.78752,1.108839 1.75004,2.050521 2.21512,2.167157 5.21371,5.740026 6.58433,7.845353 1.04346,1.602779 1.06448,1.617787 1.49563,1.06758 0.24051,-0.306927 0.74803,-1.576416 1.12782,-2.821085 z m -62.94241,-9.281157 c 0.60862,-0.672523 4.54939,-3.279682 5.7272,-3.789037 2.15608,-0.932418 2.19325,-0.805569 -1.27092,-4.337039 -1.72667,-1.760212 -3.85377,-3.676592 -4.7269,-4.258619 -1.71427,-1.142744 -4.27143,-2.262735 -4.46188,-1.954231 -0.0646,0.104711 -0.31026,1.307465 -0.54582,2.672786 -0.23557,1.365321 -0.48995,2.582167 -0.56531,2.7041 -0.0754,0.121933 0.10301,0.790789 0.39638,1.486347 0.29337,0.695558 0.64994,1.803638 0.79239,2.462403 0.17953,0.830262 0.62122,1.592297 1.4396,2.483672 0.64933,0.707258 1.39623,1.686317 1.65977,2.175685 0.55307,1.027001 0.87921,1.101209 1.55549,0.353933 z M 59.377794,80.007254 c 0,-2.003014 -0.13133,-2.111562 -1.59256,-1.316262 -0.69887,0.38037 -1.66183,1.095158 -2.13991,1.588415 l -0.86925,0.896832 h 2.30086 2.30086 z m -1.19062,-4.35357 0.79375,-0.4587 0.18044,-4.35156 c 0.18861,-4.548195 0.67287,-8.10161 1.62069,-11.892184 0.40589,-1.623277 0.56481,-3.095469 0.57123,-5.291666 0.008,-2.771627 0.0678,-3.139268 0.67035,-4.126518 0.63456,-1.039749 2.76858,-3.09027 3.49047,-3.353898 0.24411,-0.08915 0.26406,-0.214122 0.0677,-0.424445 -0.20367,-0.218191 -0.60445,-0.09121 -1.49531,0.47375 -2.30762,1.463447 -4.45827,4.209687 -6.95911,8.886319 -2.73546,5.115364 -4.02015,9.017878 -4.26967,12.970009 -0.22317,3.53481 0.24434,5.219494 1.95639,7.049812 1.33451,1.426694 1.70406,1.483567 3.37303,0.519081 z M 169.67774,69.600719 c 0.0281,-2.43254 0.0923,-2.773005 0.62357,-3.304254 0.52824,-0.528233 0.60185,-0.542539 0.68086,-0.132292 0.0487,0.252992 0.16915,0.457986 0.26762,0.455544 0.21864,-0.0054 2.94811,-4.913749 3.7494,-6.742435 0.31882,-0.727604 0.84869,-1.918229 1.17748,-2.645833 0.99972,-2.212295 1.33758,-3.851254 1.33758,-6.488623 0,-2.166583 -0.10769,-2.787362 -0.76807,-4.427778 -2.1003,-5.21725 -12.40735,-16.151603 -18.94339,-20.096307 -4.24981,-2.564892 -9.66035,-4.629015 -13.75833,-5.248807 -2.97583,-0.450072 -10.89801,-0.506494 -14.85478,-0.105796 -2.30635,0.233561 -9.4856,1.361009 -10.80981,1.697598 -7.74688,1.969122 -16.21094,5.739037 -21.243786,9.462042 -0.98831,0.731091 -1.75273,1.463151 -1.69872,1.626799 0.054,0.163647 0.86263,0.369054 1.79692,0.456461 0.9343,0.08741 2.17497,0.290479 2.75705,0.451271 0.582086,0.160793 2.224046,0.293796 3.648806,0.295569 2.09004,0.0026 3.30861,0.185332 6.30781,0.94592 4.39512,1.114586 7.44701,2.141825 9.73315,3.276099 0.91492,0.453938 2.05335,0.825344 2.52985,0.825344 1.08909,0 5.04369,1.225582 8.37647,2.595975 3.91056,1.607968 9.00448,4.3858 13.19245,7.19414 1.23693,0.829447 2.62549,1.702099 3.0857,1.939221 0.4602,0.237122 1.82942,1.175409 3.0427,2.085083 1.21329,0.909675 2.32504,1.740755 2.47056,1.846847 0.61678,0.449662 5.64371,4.95277 6.61458,5.925333 1.84245,1.845641 4.23982,4.663633 5.94528,6.9884 0.90742,1.236927 2.26267,2.903802 3.01167,3.704166 1.32804,1.419125 1.36595,1.438807 1.52894,0.79375 0.0919,-0.363802 0.18122,-1.881849 0.19844,-3.373437 z m 12.34862,-28.239753 c 1.80099,-0.904047 2.58163,-2.126594 2.71718,-4.25531 0.11507,-1.807143 0.48471,-2.381226 1.63425,-2.538102 0.97895,-0.133599 1.63807,-1.618123 1.32703,-2.988847 -0.25136,-1.107694 -1.56459,-2.577777 -2.59485,-2.904771 -0.79749,-0.253111 -0.73505,-0.536381 0.27563,-1.25045 1.93949,-1.370295 2.83002,-3.065221 2.83846,-5.402405 0.005,-1.370787 -0.11874,-1.796322 -0.83764,-2.881661 -1.14805,-1.733233 -3.08697,-2.654115 -5.14174,-2.442043 -0.78346,0.08086 -1.78135,0.325059 -2.21755,0.542663 -0.4362,0.217604 -0.79309,0.360209 -0.79309,0.316896 0,-0.04331 0.18947,-0.599731 0.42104,-1.23649 0.63556,-1.747615 0.59101,-4.875882 -0.0881,-6.184828 -0.74275,-1.4316341 -1.82838,-2.41118 -3.21424,-2.900139 -2.57545,-0.9086736 -4.92898,-0.273512 -6.87458,1.8552909 l -1.3003,1.4227311 -0.32931,-0.7950311 c -0.59824,-1.44428 -1.82004,-2.8673 -2.96462,-3.4528777 -1.34388,-0.6875388 -3.69106,-0.7597378 -4.85713,-0.1494046 -1.27562,0.6676786 -2.4541,2.1033262 -2.96829,3.6160543 l -0.48613,1.4301551 -1.44114,-0.06676 c -2.35786,-0.10922 -3.7232,0.668623 -4.81673,2.744144 -0.38708,0.734663 -0.55788,1.543838 -0.55848,2.645833 -0.001,2.57316 0.37292,3.008408 4.17851,4.858647 3.30611,1.607394 7.83416,4.378357 9.84861,6.026912 0.59708,0.488619 1.15699,0.888399 1.24426,0.888399 0.38033,0 8.63731,8.566898 10.45547,10.847916 1.10193,1.382448 2.12883,2.601016 2.28201,2.707928 0.63652,0.44426 2.96599,0.19584 4.26146,-0.454453 z"
       id="path3312" /></g></svg>
