<?xml version="1.0" encoding="UTF-8" standalone="no"?>
<!-- Created with Inkscape (http://www.inkscape.org/) -->

<svg
   width="135.61185mm"
   height="232.91008mm"
   viewBox="0 0 135.61184 232.91008"
   version="1.1"
   id="svg5"
   xml:space="preserve"
   xmlns="http://www.w3.org/2000/svg"
   xmlns:svg="http://www.w3.org/2000/svg"><defs
     id="defs2" /><g
     id="layer1"
     transform="translate(41.307634,-18.989349)"><path
       style="fill:#000000;stroke-width:0.264583"
       d="m -5.3846895,251.71483 c -5.2551195,-0.79015 -9.5493495,-4.49486 -11.1806395,-9.64577 -0.40666,-1.28404 -3.82237,-18.23252 -5.99882,-29.76562 -0.59042,-3.1287 -1.12955,-5.94231 -1.19807,-6.25248 -0.11758,-0.53229 -0.31407,-0.57007 -3.50084,-0.67311 -3.96968,-0.12837 -5.48553,-0.66449 -7.48888,-2.64867 -2.07077,-2.05094 -3.00226,-4.24346 -4.78169,-11.25496 -1.84538,-7.27136 -2.12314,-9.58864 -1.41803,-11.83036 0.61274,-1.94807 2.28714,-3.8337 4.15298,-4.67688 1.37897,-0.62317 1.52132,-0.63225 11.12029,-0.70957 8.38519,-0.0676 9.72344,-0.13237 9.72344,-0.47099 0,-0.21597 -0.28619,-1.0737 -0.63596,-1.90605 -0.34978,-0.83236 -1.00797,-2.65902 -1.46264,-4.05923 l -0.82667,-2.54585 -1.06082,-0.14228 c -3.20918,-0.43044 -5.06424,-4.65979 -3.18296,-7.25682 0.42265,-0.58345 1.19655,-1.3254 1.71979,-1.64878 1.12342,-0.69431 1.14199,-0.87218 0.44759,-4.28599 -0.40762,-2.00387 -1.33971,-8.4489 -1.67604,-11.589 -0.0528,-0.49341 -0.28771,-0.70164 -0.99521,-0.88232 -4.01205,-1.02465 -5.0338,-6.80655 -1.61049,-9.11352 0.49225,-0.33172 1.16557,-0.60314 1.49627,-0.60314 0.55002,0 0.61498,-0.1522 0.7622,-1.78593 0.0885,-0.98227 0.2605,-2.67891 0.38221,-3.77032 0.12171,-1.0914 0.1708,-2.07367 0.1091,-2.18281 -0.0617,-0.10914 -0.51524,-0.19843 -1.00786,-0.19843 -1.32217,0 -2.35393,-0.98431 -2.35393,-2.24568 0,-1.38679 0.63346,-1.81148 2.40467,-1.61217 l 1.37279,0.15448 0.17189,-1.25717 c 0.16303,-1.19236 1.23903,-6.17993 1.58959,-7.36824 0.1295,-0.43894 1.6e-4,-0.62255 -0.61925,-0.87912 -0.43062,-0.17837 -1.08701,-0.64307 -1.45865,-1.03268 -2.01238,-2.10968 -1.54046,-6.28299 0.89255,-7.893078 1.16772,-0.77276 3.78463,-1.13613 4.69054,-0.65131 0.51604,0.27618 0.6921,0.0996 2.27609,-2.28233 0.94424,-1.41991 2.02196,-2.9276 2.39495,-3.35042 0.37299,-0.42282 0.67816,-0.86471 0.67816,-0.98199 0,-0.11728 -0.50601,-0.34358 -1.12448,-0.5029 -3.69083,-0.95075 -5.3299,-1.81068 -6.19562,-3.2505 -0.36721,-0.61074 -1.80094,-3.1345 -3.18606,-5.60835 -7.21813,-12.89176 -13.21946,-22.795561 -16.14149,-26.637774 -1.56053,-2.051957 -2.00695,-3.192621 -1.78093,-4.550497 0.39473,-2.371479 1.56738,-3.755533 3.72985,-4.402307 1.6818,-0.503007 3.25844,-0.148415 5.08511,1.143657 5.00685,3.541545 12.40788,9.065463 12.32523,9.199194 -0.0532,0.08602 0.0469,0.157218 0.22243,0.15821 0.36827,0.0021 3.86088,2.571766 4.35398,3.203443 0.1819,0.233018 0.33073,0.326805 0.33073,0.208412 0,-0.11839 0.18147,-0.06465 0.40327,0.119428 0.2218,0.184075 0.47311,0.264837 0.55848,0.179472 0.0854,-0.08536 -0.28556,-4.120692 -0.82427,-8.96739 -1.29177,-11.621746 -1.39161,-13.382765 -0.84046,-14.824821 0.50679,-1.325999 1.66836,-2.674995 2.08279,-2.418866 0.16277,0.100598 0.21468,0.05791 0.11862,-0.09753 -0.26553,-0.429636 1.49034,-1.128255 2.8356795,-1.128255 0.66629,0 1.68574,0.189778 2.26543,0.421727 1.09579,0.438449 1.30347,0.670248 6.49644003,7.251189 4.63592997,5.875023 9.96335997,12.176977 10.18049997,12.042775 0.1163,-0.07187 0.28622,-0.529233 0.37761,-1.016355 0.4919705,-2.622452 8.1021805,-25.915182 9.4854305,-29.032269 0.85485,-1.926343 2.08618,-3.29535 3.74604,-4.164881 1.75033,-0.916922 4.97007,-1.011084 6.62703,-0.193809 1.26396,0.623437 2.9211,2.281202 3.58897,3.590344 0.54412,1.066567 6.23981,18.045107 8.60578,25.653362 0.83718,2.692135 1.5938,4.978378 1.68138,5.080539 0.17046,0.198837 3.34292,-3.670794 7.41894,-9.049289 7.36747,-9.721715 8.26114,-10.590495 10.88056,-10.577523 2.3504,0.01164 4.8847,1.939788 5.57413,4.240914 0.37363,1.247044 0.23739,3.2634 -1.08053,15.991834 -0.42177,4.073445 -0.73537,7.437757 -0.69688,7.476246 0.0755,0.07546 0.84635,-0.48668 10.822,-7.891645 7.61584,-5.653259 8.90912,-6.502325 10.24906,-6.728708 2.77106,-0.468164 5.34902,1.579959 5.91512,4.699399 0.22118,1.218748 -0.37072,2.666503 -1.86571,4.563441 -2.37045,3.007801 -11.09768,17.839874 -17.57893,29.875703 -1.14198,2.12068 -1.94847,3.30525 -2.46358,3.61851 -0.42119,0.25614 -1.96913,0.84669 -3.43987,1.31232 -1.47074,0.46564 -2.76697,0.90039 -2.8805,0.96611 -0.11353,0.0657 0.0319,0.37814 0.32314,0.69426 0.78501,0.852 2.26215,3.01451 3.24774,4.75465 0.72232,1.27529 0.95814,1.50386 1.39805,1.35503 4.65884,-1.5762 8.75542,2.832938 6.58299,7.085268 -0.46809,0.91623 -1.92975,2.3004 -2.6194,2.48054 -0.52186,0.13631 -0.51133,0.23033 0.45154,4.02879 0.54224,2.13908 0.99104,4.23153 0.99735,4.64991 0.0109,0.72215 0.055,0.75039 0.87137,0.55763 1.40937,-0.3328 2.41138,-0.18713 2.91042,0.42309 0.63992,0.7825 0.57903,1.62802 -0.17589,2.4426 -0.59195,0.63873 -1.01248,0.8202 -2.4038,1.03737 -0.60231,0.094 -0.61017,0.23048 -0.27163,4.71725 l 0.21089,2.79488 1.29443,0.45974 c 0.80173,0.28475 1.22574,0.57088 1.11397,0.75174 -0.10528,0.17033 -0.0599,0.21746 0.10899,0.1131 0.75717,-0.46796 2.17624,2.10884 2.16627,3.93359 -0.0106,1.94687 -1.74558,4.15779 -3.72024,4.74083 l -1.14683,0.33862 -0.46497,4.1688 c -0.25573,2.29284 -0.58775,4.833 -0.73782,5.6448 -0.40258,2.17777 -0.36627,2.43715 0.34116,2.43715 0.33771,0 1.26045,0.32743 2.05053,0.72761 1.46151,0.74027 2.15732,1.6645 2.4899,3.30729 0.12056,0.59551 0.28863,0.7276 0.92579,0.7276 0.55787,0 1.07694,0.30146 1.83164,1.06374 1.22423,1.23652 1.60726,2.7746 1.08503,4.35697 -0.26533,0.80396 -0.25139,1.036 0.0846,1.4089 0.85437,0.9482 0.97211,2.57562 0.26448,3.6556 -0.4571,0.69762 -2.82609,1.95021 -3.68838,1.95021 -0.44825,0 -0.63329,0.20398 -0.7765,0.85601 -0.28571,1.30084 -0.83847,1.97143 -2.14727,2.60501 -1.71273,0.82912 -4.29497,0.6209 -5.39732,-0.43522 -0.70051,-0.67113 -0.84928,-0.71088 -1.69229,-0.45215 -0.54345,0.16679 -1.30562,0.19765 -1.84986,0.0749 -0.89188,-0.20115 -0.94892,-0.16704 -1.56556,0.93625 -0.35198,0.62976 -0.57308,1.21189 -0.49133,1.29364 0.0817,0.0817 5.00588,0.14863 10.94252,0.14863 10.13566,0 10.8799,0.0322 12.20414,0.52764 2.66036,0.99537 4.83192,3.91997 5.13521,6.91593 0.14837,1.46572 -0.67377,5.63458 -2.69614,13.67152 -1.29221,5.1352 -2.89327,7.49909 -6.17266,9.11358 -1.63018,0.80255 -1.97556,0.86869 -5.18136,0.99216 l -3.43475,0.1323 -0.31538,1.98437 c -0.94891,5.97053 -6.54088,34.09478 -7.08669,35.64176 -1.25703,3.56279 -4.63492,6.73515 -8.60704,8.08332 l -1.73887,0.59019 -31.48542,0.0397 c -17.31698,0.0218 -32.1461405,-0.0596 -32.9536905,-0.18107 z m 65.7508605,-4.82765 c 2.18933,-1.02518 3.08937,-1.77301 4.27121,-3.54887 0.98372,-1.47816 1.08053,-1.83632 2.66727,-9.8682 0.90558,-4.58391 1.8274,-9.22735 2.04851,-10.31875 0.2211,-1.09141 0.70427,-3.59172 1.07371,-5.55625 0.36944,-1.96453 0.79176,-4.10766 0.93848,-4.7625 0.5673,-2.53186 1.31913,-6.96335 1.20135,-7.08113 -0.068,-0.068 -20.84667,-0.15337 -46.17475,-0.18965 -33.7237505,-0.0483 -46.05102,0.013 -46.05088,0.22896 10e-5,0.16222 1.30408,6.84338 2.89773,14.84703 4.6275,23.24028 4.23827,21.81702 6.56044,23.98914 1.4779895,1.38248 2.4710895,1.95584 4.5645595,2.63531 1.36755,0.44386 3.35182,0.46902 32.9406205,0.41768 l 31.48541,-0.0546 z m 23.57987,-46.3672 c 1.72575,-1.06457 2.79762,-2.88284 3.54524,-6.01397 0.32084,-1.34376 1.04873,-4.37707 1.61752,-6.74069 1.29426,-5.37836 1.31964,-6.33915 0.20113,-7.61306 -0.45816,-0.52182 -1.16662,-1.12128 -1.57436,-1.33212 -1.12605,-0.58231 -121.59595,-0.57837 -122.72214,0.004 -1.08027,0.55863 -2.08608,1.86068 -2.29416,2.96985 -0.19457,1.0371 1.60328,8.98902 3.12922,13.84069 0.69062,2.19577 0.95258,2.67093 2.07206,3.75847 2.27541,2.21047 -2.98736,2.03472 59.27236,1.97937 l 55.45099,-0.0493 z M 3.6221905,173.87271 c -10e-4,-0.1819 -0.23931,-1.10463 -0.52934,-2.05052 -0.7313,-2.38506 -2.21384997,-9.61224 -3.02415997,-14.74225 -0.37279,-2.36017 -0.67781,-4.33984 -0.67781,-4.39927 0,-0.0594 -0.53870003,-0.0473 -1.19711003,0.0269 -0.91375,0.103 -1.32082,0.023 -1.71979,-0.33809 -1.20621,-1.0916 -0.26569,-2.71235 1.98474,-3.4202 1.27141003,-0.3999 1.54740003,-0.40441 2.91378,-0.0476 0.83014,0.21678 1.55739,0.4422 1.61612,0.50093 0.32505,0.32504 0.14581,2.35838 -0.24605,2.79138 -0.40625,0.44891 -0.40823,0.72066 -0.0265,3.64053 0.81242,6.21419 2.27429,13.22336 3.50003,16.78145 l 0.50131,1.45521 h 4.9857905 4.9858 l -0.0761,-2.77812 c -0.11573,-4.22757 -0.0786,-4.03672 -0.80642,-4.14764 -1.22162,-0.18618 -1.23202,-0.56504 -0.10885,-3.96881 0.34459,-1.0443 0.62653,-2.49721 0.62653,-3.22869 0,-1.45746 0.38974,-2.56766 0.98105,-2.79457 0.56292,-0.21601 1.37688,0.31314 1.51411,0.98432 0.0661,0.32322 0.1867,3.56424 0.26804,7.20226 0.0813,3.63802 0.23904,7.09083 0.35047,7.67292 l 0.2026,1.05833 h 7.00697 7.00697 l 0.18512,-1.98437 c 0.10181,-1.09141 0.19576,-4.59052 0.20878,-7.77579 0.0215,-5.24722 0.23027,-7.16636 0.72585,-6.67078 0.083,0.083 0.28585,-0.0338 0.45086,-0.25945 0.26547,-0.36306 0.35801,-0.34621 0.80374,0.14632 0.34948,0.38616 0.53398,1.05996 0.6025,2.20034 0.0543,0.90405 0.20098,1.88186 0.32591,2.1729 0.12493,0.29104 0.50358,1.3333 0.84144,2.31613 0.6657,1.93646 0.53976,2.63537 -0.50302,2.79154 -0.69718,0.10442 -0.86306,0.95976 -0.86306,4.4504 v 2.74505 h 5.12719 5.1272 l 0.30418,-1.12448 c 1.88344,-6.96256 3.13267,-13.44707 3.61373,-18.75824 0.1496,-1.65165 0.10411,-2.13638 -0.24764,-2.63856 -0.237,-0.33837 -0.43091,-0.99019 -0.43091,-1.44849 0,-0.7786 0.0912,-0.85925 1.38907,-1.22896 2.95255,-0.84101 6.01927,0.14595 6.01927,1.9372 0,1.15549 -1.03055,1.81269 -2.43869,1.5552 -1.32566,-0.24242 -1.52016,-0.0571 -1.52601,1.45416 -0.008,1.97852 -2.78434,17.32747 -3.45254,19.08497 -0.14063,0.36987 -0.25568,0.78379 -0.25568,0.91984 0,0.14593 2.38562,0.24736 5.81752,0.24736 h 5.81751 l 0.63252,-1.00197 c 0.57968,-0.91827 2.28453,-4.16769 2.28453,-4.35427 0,-0.0438 -0.41622,-0.30382 -0.92494,-0.57779 -1.16711,-0.62853 -1.66382,-2.04422 -1.04735,-2.98508 0.21835,-0.33324 0.51331,-0.60589 0.65547,-0.60589 0.47356,0 0.26662,-0.83999 -0.40297,-1.63575 -0.48373,-0.57488 -0.66146,-1.09537 -0.66146,-1.93716 0,-0.98244 0.13046,-1.26047 0.89055,-1.89793 0.71361,-0.59848 0.91671,-0.99032 1.02229,-1.97223 0.0725,-0.67395 0.35633,-1.53542 0.63081,-1.91438 0.74519,-1.02883 2.48437,-1.79308 3.91227,-1.71916 0.66376,0.0344 1.2809,-0.0116 1.37143,-0.10212 0.49748,-0.49749 1.96224,-10.81693 1.96224,-13.82431 0,-1.01751 -0.18155,-1.45388 -1.12448,-2.70288 -0.92429,-1.22431 -1.12016,-1.68522 -1.10019,-2.58896 0.0292,-1.32206 0.7006,-2.54512 1.73136,-3.154 0.88218,-0.52112 0.88019,-0.49643 0.49456,-6.14316 -0.26922,-3.94214 -0.80383,-7.81261 -1.47501,-10.67879 -1.19876,-5.11915 -1.26642,-5.30681 -2.09863,-5.82115 -1.91645,-1.18443 -2.9325,-3.28732 -2.50658,-5.18785 0.26373,-1.17681 0.23429,-1.2734 -1.1074,-3.632788 -0.75809,-1.33311 -1.44558,-2.48336 -1.52776,-2.55612 -0.0822,-0.0728 -0.68425,-0.93597 -1.33794,-1.91823 -1.34514,-2.02128 -1.30683,-2.0092 -4.50002,-1.41919 -1.0914,0.20166 -3.35359,0.50527 -5.02708,0.67468 -5.12637,0.51897 -5.09529,0.50832 -4.49618,1.54185 0.77453,1.33614 3.70243,10.281538 3.70243,11.311758 0,0.0703 0.44648,0.13694 0.99219,0.14801 1.45683,0.0296 2.59135,0.52286 3.71862,1.61691 2.58478,2.5086 1.70586,6.9325 -1.65335,8.32188 -0.94392,0.39041 -1.15877,0.5965 -1.0632,1.01987 0.21303,0.94369 0.91616,16.01522 0.91616,19.63768 0,3.20051 -0.17147,4.04302 -0.66146,3.25019 -0.0899,-0.14552 -0.56275,-0.26458 -1.05069,-0.26458 -0.82183,0 -0.89975,-0.0744 -1.05788,-1.01038 l -0.1707,-1.01038 -1.35147,0.66884 c -2.44924,1.21212 -5.39491,0.72144 -7.44819,-1.24069 -2.15282,-2.05725 -2.6938,-5.08708 -1.37353,-7.69252 0.38354,-0.75687 0.80406,-1.31017 0.93449,-1.22956 0.13043,0.0806 0.0674,0.47197 -0.14008,0.86969 -0.5348,1.02516 -0.47569,1.49543 0.30448,2.42261 0.51231,0.60885 0.90704,0.81405 1.56587,0.81405 1.24499,0 1.68211,-0.22163 2.12457,-1.07725 0.98283,-1.90059 -0.0476,-3.78984 -1.99055,-3.64956 -1.4575,0.10524 -1.55883,-0.17101 -0.29854,-0.81395 1.51498,-0.77289 4.55928,-0.99384 6.11576,-0.44388 0.65484,0.23138 1.29526,0.42243 1.42315,0.42455 0.36977,0.006 -0.54997,-10.20578 -0.93686,-10.40187 -2.18503,-1.10749 -3.18792,-2.49728 -3.34231,-4.63174 -0.12087,-1.67104 0.27117,-2.78277 1.41499,-4.01254 l 0.61523,-0.66146 -1.45655,-5.0143 c -0.8011,-2.75786 -1.51929,-5.115808 -1.59597,-5.239898 -0.0767,-0.12408 -0.42187,-0.0405 -0.76708,0.18565 -0.79725,0.52239 -0.78524,0.52392 -1.44506,-0.18406 -0.40935,-0.43923 -0.53513,-0.87279 -0.47972,-1.65364 l 0.0751,-1.05834 -3.3009,0.0909 c -3.49303,0.0962 -4.05259,0.30065 -3.77085,1.37804 0.16547,0.63275 -0.35058,1.30921 -0.99875,1.30921 -0.71437,0 -1.30942,-0.73191 -1.30942,-1.61059 v -0.77903 l -7.34219,0.0703 -7.34218,0.0703 -0.1323,0.89864 c -0.16943,1.15099 -0.78027,1.56195 -1.69924,1.14324 -0.53986,-0.24598 -0.68201,-0.49975 -0.68201,-1.21763 0,-0.88493 -0.0304,-0.91043 -1.25677,-1.05349 -0.69122,-0.0806 -2.41763,-0.22197 -3.83645,-0.3141 l -2.5796905,-0.1675 v 0.95073 c 0,1.26117 -0.77114,2.05328 -1.79884,1.84774 l -0.75153,-0.15031 -0.83265,3.264678 c -0.45796,1.79557 -1.00007,3.96186 -1.20469,4.81398 l -0.37204,1.54931 0.78668,0.69965 c 1.43141,1.27304 2.04058,3.42344 1.51876,5.36132 -0.33299,1.23665 -1.84559,3.02026 -2.75488,3.24847 -0.41607,0.10443 -0.68757,0.4094 -0.78968,0.887 -0.30949,1.44768 -0.65273,4.76531 -0.83632,8.08361 l -0.18739,3.38702 1.34555,-0.83645 c 1.70574,-1.06034 4.20627,-1.34856 5.94358,-0.68508 1.3817505,0.5277 3.3096405,2.46463 3.7883105,3.8061 0.57732,1.61794 0.47042,3.60983 -0.27241,5.07574 -0.79738,1.57355 -2.5339505,3.10688 -3.9507805,3.48839 -1.70975,0.46039 -4.21694,0.15967 -5.4451,-0.65309 -0.57992,-0.38377 -1.11648,-0.69776 -1.19236,-0.69776 -0.0759,0 -0.13955,0.50601 -0.1415,1.12448 -0.003,1.11151 -0.0183,1.12914 -1.28474997,1.52918 l -1.28121,0.4047 -0.15339,-3.44741 c -0.16808003,-3.7773 0.1675,-13.8936 0.59268,-17.8672 0.14793,-1.38245 0.27102,-2.65314 0.27354,-2.82375 0.003,-0.17062 -0.39249,-0.44126 -0.87781,-0.60143 -2.58357003,-0.85265 -3.96733003,-4.78321 -2.52005003,-7.15815 0.96238,-1.57924 2.61138003,-2.63743 4.12074003,-2.64436 0.49034997,-0.002 0.77616997,-0.70981 1.66901997,-4.13161 0.45147,-1.73025 1.24421,-4.193448 1.76165,-5.473768 0.51744,-1.28032 0.88254,-2.38612 0.81134,-2.45732 -0.0712,-0.0712 -0.71039,-0.19127 -1.4204,-0.26682 -2.18436,-0.23242 -6.7514,-0.93189 -8.67861,-1.32918 l -1.83142,-0.37755 -0.76278,0.73079 c -0.88144,0.84447 -3.4467595,4.5377 -4.6921095,6.755118 -0.84761,1.50923 -0.85106,1.53009 -0.44835,2.71198 0.22321,0.65508 0.30392,1.19105 0.17936,1.19105 -0.12457,0 -0.28653,-0.14883 -0.35993,-0.33073 -0.0734,-0.1819 -0.14285,-0.0866 -0.15434,0.21167 -0.0115,0.29831 0.0878,0.6555 0.22058,0.79375 0.36283,0.37768 -1.26387,2.66221 -2.28856,3.21404 -0.98859,0.5324 -1.08093,0.78462 -2.05651,5.61799 -0.75146,3.723 -1.37934,8.8352 -1.6179,13.17306 -0.18782,3.41506 -0.0361,4.04313 0.97664,4.04313 0.26511,0 0.80161,0.2749 1.19221,0.61089 0.54356,0.46755 0.73875,0.91762 0.83193,1.91822 0.1093,1.17381 0.0383,1.40006 -0.69544,2.2149 -0.44945,0.49915 -0.81717,1.04395 -0.81717,1.21065 0,0.16671 -0.30088,0.58576 -0.66862,0.93124 -0.74812,0.70282 -0.74912,0.49962 0.0343,7.00473 0.39425,3.27365 0.63198,4.69601 1.3401,8.01766 0.39469,1.85147 0.45346,1.94887 1.40571,2.32988 1.32805,0.53139 2.16177,1.54655 2.57352,3.13362 0.32791,1.26392 0.31077,1.36702 -0.48407,2.91042 -0.45322,0.88005 -0.98852,1.78805 -1.18957,2.01779 -0.20104,0.22974 -0.36553,0.56223 -0.36553,0.73887 0,0.51972 2.0844,6.77441 2.78715,8.36346 l 0.64576,1.46017 h 7.5439595 c 5.85986,0 7.54351,-0.0738 7.54194,-0.33073 z M 23.697221,145.4095 c -1.67784,-0.60563 -3.22748,-2.22367 -3.76559,-3.93181 -0.48904,-1.55237 -0.56048,-2.88262 -0.16784,-3.12529 0.14553,-0.0899 0.26459,-0.39187 0.26459,-0.67097 0,-0.2791 0.29177,-0.69863 0.64837,-0.93229 0.55674,-0.36478 0.78193,-0.37653 1.59328,-0.0831 1.29335,0.46769 2.02221,1.31981 2.15987,2.52513 0.21067,1.84463 0.3694,2.22029 1.04705,2.47793 1.85172,0.70403 3.28268,-0.10834 3.28268,-1.8636 0,-1.47844 0.93582,-3.19016 1.67759,-3.06849 0.31425,0.0515 0.70571,-0.0129 0.86991,-0.1433 0.56296,-0.44692 1.62267,0.21227 1.84482,1.14756 0.11441,0.48167 0.22444,0.9353 0.24452,1.00806 0.0201,0.0728 0.1303,0.46488 0.24494,0.87137 0.14032,0.49756 0.0627,1.12067 -0.23754,1.90682 -0.55475,1.45259 -2.74048,3.83639 -3.51763,3.83639 -0.31142,0 -0.6398,0.11906 -0.72974,0.26458 -0.26306,0.42566 -4.09976,0.27179 -5.45928,-0.21894 z m -7.22495,-12.00968 c -0.32687,-0.46666 -0.41264,-1.37176 -0.41264,-4.35425 0,-3.79389 0.2181,-4.93698 0.99915,-5.23669 0.65074,-0.24972 1.36997,0.11559 1.53688,0.7806 0.27665,1.10226 0.25763,8.5597 -0.0225,8.81924 -0.14552,0.13484 -0.58491,0.32055 -0.97642,0.41269 -0.55173,0.12985 -0.80466,0.035 -1.12448,-0.42159 z m 18.22491,-0.0526 c -0.45591,-0.33286 -0.52323,-0.77338 -0.59937,-3.92217 -0.0472,-1.95096 0.0168,-3.94312 0.1422,-4.42703 0.28953,-1.11731 1.14388,-1.48892 1.94036,-0.84397 0.51497,0.41699 0.58041,0.79072 0.70857,4.04626 0.16263,4.13146 -0.11128,5.52189 -1.0878,5.52189 -0.32471,0 -0.82149,-0.16874 -1.10396,-0.37498 z m -17.97516,-17.35108 c -0.5645,-0.62376 -0.56228,-5.20472 0.003,-6.01164 0.42948,-0.61318 1.3738,-0.62115 1.75859,-0.0149 0.29292,0.46154 0.27133,5.53773 -0.0255,6.00686 -0.33621,0.53127 -1.26345,0.54176 -1.73597,0.0196 z m 17.70492,-0.12858 c -0.65396,-0.99808 -0.45117,-5.58465 0.27024,-6.11176 0.63629,-0.46493 0.71771,-0.46494 1.35406,-1.5e-4 0.4399,0.32129 0.52633,0.76952 0.60236,3.12383 0.0751,2.32445 0.02,2.80577 -0.35654,3.11828 -0.74292,0.61657 -1.4113,0.57004 -1.87012,-0.1302 z m 0.50722,-9.19602 c -0.708,-0.32384 -0.87464,-0.91501 -0.87925,-3.11912 -0.002,-1.13993 0.13641,-1.92697 0.40826,-2.3151 0.45443,-0.64879 1.22797,-0.76989 1.64356,-0.25731 0.25121,0.30983 0.47294,3.14828 0.3713,4.75319 -0.0556,0.87746 -0.75183,1.30063 -1.54387,0.93834 z m -18.50103,-0.87478 c -0.82048,-1.72903 -0.0454,-5.14748 1.16718,-5.14748 0.90059,0 1.10515,0.5632 1.10515,3.04271 0,2.55758 -0.19629,3.04271 -1.23113,3.04271 -0.42263,0 -0.72566,-0.27297 -1.0412,-0.93794 z m 18.6765,66.96709 c 0,-0.0642 -0.11907,-0.19026 -0.26459,-0.2802 -0.14552,-0.0899 -0.26458,-0.0374 -0.26458,0.11668 0,0.15411 0.11906,0.2802 0.26458,0.2802 0.14552,0 0.26459,-0.0525 0.26459,-0.11668 z m 40.50655,-2.81176 c 0.62101,-0.4422 0.76845,-0.74315 0.76845,-1.5686 0,-0.57366 -0.18138,-1.20279 -0.41375,-1.43516 -0.22756,-0.22756 -0.33907,-0.53456 -0.24781,-0.68223 0.0913,-0.14766 -0.0195,-0.33964 -0.2462,-0.42663 -0.22667,-0.087 -0.33505,-0.28285 -0.24085,-0.43527 0.23593,-0.38174 -1.92815,-0.0783 -2.43365,0.34119 -0.87984,0.73021 -0.22378,3.70115 0.96107,4.35213 0.87943,0.48317 0.98117,0.47519 1.85274,-0.14543 z m -5.56695,-1.6531 c 0.37182,-0.32784 0.87471,-1.09257 1.11752,-1.6994 0.43725,-1.0928 0.43499,-1.11102 -0.23656,-1.90911 -0.71807,-0.85338 -1.83969,-1.07874 -2.43015,-0.48829 -0.17462,0.17463 -0.3175,0.23002 -0.3175,0.12309 0,-0.10693 -0.35719,0.2124 -0.79375,0.70961 -1.03217,1.17558 -1.00094,1.65801 0.18599,2.87354 1.12694,1.15409 1.53534,1.21855 2.47445,0.39056 z m 10.32468,-2.18392 c 0.73285,-0.66323 0.62907,-1.28803 -0.35126,-2.1147 -0.96721,-0.8156 -0.96931,-1.20725 -0.0125,-2.34429 l 0.6655,-0.79089 -0.95097,-0.8715 c -1.01649,-0.93154 -2.09797,-1.12576 -3.15895,-0.56731 -1.02877,0.54151 -1.0986,1.06966 -0.38923,2.94371 0.22178,0.58589 0.19068,0.83082 -0.15379,1.21146 -0.63361,0.70013 -0.54951,0.96318 0.6927,2.16665 1.00841,0.97696 1.22902,1.07588 2.13721,0.95829 0.55699,-0.0721 1.2416,-0.33826 1.52135,-0.59142 z m -6.49274,-2.1206 c 1.65443,-0.78508 1.46306,-3.24044 -0.29785,-3.8216 -1.0788,-0.35603 -1.85051,-0.15034 -2.33757,0.62303 -0.76411,1.21332 -0.74173,1.67939 0.12825,2.67024 0.93336,1.06304 1.24289,1.12826 2.50717,0.52833 z m 1.89044,-1.21772 c -0.0845,-0.21107 -0.14715,-0.14837 -0.15985,0.15985 -0.0115,0.27892 0.0511,0.43519 0.13897,0.34727 0.0879,-0.0879 0.0973,-0.31612 0.0209,-0.50712 z m -6.41402,-0.35568 c 0.28248,-0.21365 0.42628,-0.38846 0.31958,-0.38846 -0.26146,0 1.09935,-2.29803 1.82351,-3.07942 0.671,-0.72402 0.98923,-0.77627 1.4376,-0.23602 0.31523,0.37982 1.27341,0.38944 2.16012,0.0217 0.50307,-0.20865 1.40582,-2.38409 1.15665,-2.78726 -0.28245,-0.45701 -1.70311,-1.08829 -2.6572,-1.18075 -1.11515,-0.10806 -1.43344,0.24883 -1.66488,1.86681 -0.14892,1.04104 -0.27689,1.25731 -0.76529,1.29329 -0.32256,0.0238 -0.82026,-0.20449 -1.106,-0.50724 -1.12116,-1.1879 -1.26225,-1.23728 -2.12933,-0.74524 -0.44523,0.25265 -0.88444,0.69194 -0.97602,0.97619 -0.0916,0.28426 -0.33706,0.68737 -0.5455,0.8958 -0.23696,0.23698 -0.28562,0.47233 -0.12985,0.6281 0.15577,0.15577 0.0134,0.48481 -0.37987,0.87811 -0.89405,0.89405 -0.84697,2.05225 0.0986,2.4259 1.05825,0.41817 2.76502,0.38692 3.35786,-0.0615 z m -87.00022,-0.39319 c 0.89079,-0.31053 1.49489,-1.14513 1.55645,-2.15034 0.0574,-0.93811 -1.6945,-1.9112 -2.73127,-1.51702 -1.81784,0.69115 -1.84847,3.08692 -0.0479,3.74897 0.21828,0.0803 0.40887,0.15533 0.42354,0.16681 0.0147,0.0115 0.37431,-0.1003 0.7992,-0.24842 z m -2.83822,-26.16288 c 0.99044,-0.92521 1.04157,-1.68243 0.1723,-2.55171 -0.90426,-0.90425 -2.35157,-0.89637 -2.94942,0.0161 -0.79752,1.21717 -0.44516,2.54212 0.81154,3.0515 0.87048,0.35284 1.10017,0.29256 1.96558,-0.51585 z m 97.01118,-0.0531 c 0.40575,-0.37042 0.51505,-0.7312 0.43341,-1.43054 -0.27854,-2.38588 -3.84231,-2.27093 -3.84231,0.12393 0,1.86104 1.97316,2.61734 3.4089,1.30661 z m -29.3571,-0.0136 c 0.30126,-0.48745 0.59681,-1.8183 0.37309,-1.68003 -0.12611,0.0779 -0.30408,0.0207 -0.39548,-0.12719 -0.53531,-0.86614 -2.40308,0.29563 -2.06241,1.28283 0.32574,0.94392 1.62374,1.2704 2.0848,0.52439 z M 6.7463005,135.7859 c 0.86266,-0.86266 -0.25147,-2.60885 -1.30485,-2.0451 -0.26521,0.14194 -0.59832,0.47505 -0.74026,0.74026 -0.56375,1.05338 1.18244,2.16751 2.04511,1.30484 z m -2.47343,-2.17364 c 1.65397,-0.69107 2.02646,-2.74016 0.73776,-4.05848 -0.62842,-0.64286 -0.85843,-0.72081 -1.64946,-0.55903 -2.74727997,0.56188 -2.79246997,4.3611 -0.0592,4.97522 0.0411,0.009 0.47796,-0.15175 0.97089,-0.35771 z M 53.401961,114.59491 c 0.23813,-0.0199 0.37884,-0.17719 0.31269,-0.34956 -0.0662,-0.17238 0.007,-0.39202 0.16236,-0.48809 0.35954,-0.22221 0.37,-1.6457 0.0137,-1.8659 -0.1479,-0.0914 -0.18903,-0.29542 -0.0914,-0.45337 0.1019,-0.16488 0.0552,-0.21159 -0.1097,-0.10969 -0.15795,0.0976 -0.36196,0.0565 -0.45337,-0.0914 -0.27303,-0.44177 -1.8695,-0.30832 -2.32229,0.19412 -0.78877,0.87526 -0.81791,1.76493 -0.0863,2.63442 0.52498,0.62389 0.83471,0.77418 1.40723,0.6828 0.40376,-0.0644 0.92893,-0.13344 1.16706,-0.15332 z M 3.0439105,113.76494 c -0.0289,-0.15588 0.041,-0.55989 0.15544,-0.89782 0.31952,-0.94356 -0.0312,-1.84775 -0.88875,-2.29119 -1.03072,-0.53301 -1.15551,-0.51622 -2.10566997,0.28329 -0.97261,0.81839 -1.08449,1.955 -0.27237,2.76711 0.42185,0.42186 0.8317,0.52844 1.85280997,0.48185 0.75965,-0.0347 1.28901,-0.17904 1.25854,-0.34324 z m -19.9605895,-8.10782 c 1.42856,-1.1237 0.57019,-3.42038 -1.27833,-3.42038 -1.49254,0 -2.51743,1.81517 -1.65413,2.92962 0.85245,1.10045 1.92844,1.28052 2.93246,0.49076 z m 89.16458,-0.26458 c 1.31116,-1.03136 0.69184,-2.88143 -1.11651,-3.33529 -0.51946,-0.13038 -0.81513,0.0111 -1.40642,0.67284 -0.89117,0.99739 -0.93733,1.5767 -0.20031,2.51368 0.67456,0.85755 1.74764,0.91618 2.72324,0.14877 z m -88.9966,-3.66935 c 0,-0.3687 -0.4864,-0.60245 -0.822,-0.39504 -0.20413,0.12617 -0.1841,0.24988 0.0662,0.40844 0.4723,0.29927 0.75585,0.29424 0.75585,-0.0134 z m 52.31584,-4.673388 c -0.0879,-0.0879 -0.31613,-0.0973 -0.50712,-0.0209 -0.21107,0.0845 -0.14838,0.14715 0.15985,0.15985 0.27891,0.0115 0.43519,-0.0511 0.34727,-0.13897 z m 7.08311,-5.93723 c 3.63802,-0.29025 7.74568,-0.6944 9.12813,-0.89812 1.38244,-0.20372 3.46604,-0.50932 4.6302,-0.67912 1.91804,-0.27975 5.39723,-0.98977 7.80521,-1.59287 0.50933,-0.12756 1.51794,-0.35814 2.24137,-0.5124 1.2731,-0.27146 2.48753,-1.25711 2.51162,-2.03846 0.005,-0.16977 0.0988,-0.34837 0.20795,-0.39687 0.21736,-0.0966 0.59789,-0.78188 2.82186,-5.08171 0.81839,-1.58226 1.70521,-3.18961 1.97071,-3.57187 0.2655,-0.38227 0.89986,-1.468941 1.40968,-2.414826 1.71449,-3.180932 2.39718,-4.363355 2.76173,-4.783333 0.19942,-0.22974 0.36258,-0.548658 0.36258,-0.708705 0,-0.160049 0.14883,-0.448331 0.33073,-0.640625 0.32686,-0.345543 0.7558,-1.083331 2.27986,-3.921503 0.42979,-0.800365 1.0005,-1.697982 1.26824,-1.994707 0.26773,-0.296722 0.52549,-0.713441 0.57279,-0.926042 0.0473,-0.212598 0.19612,-0.42623 0.33073,-0.474736 0.1346,-0.04851 0.24473,-0.252725 0.24473,-0.453816 0,-0.201091 0.36953,-0.786482 0.82116,-1.300866 0.45164,-0.514387 0.7504,-0.935249 0.66391,-0.935249 -0.23587,0 1.32365,-2.458826 2.07097,-3.265197 0.35862,-0.386953 0.60525,-0.703553 0.54806,-0.703553 -0.0572,0 0.0626,-0.321149 0.26629,-0.713666 0.26876,-0.518028 0.29184,-0.808149 0.0842,-1.058333 -0.44695,-0.538544 -0.76738,-0.422093 -2.52417,0.917358 -0.9028,0.688334 -2.15296,1.6213 -2.77812,2.073261 -0.62517,0.451959 -2.80354,2.060445 -4.84084,3.574415 -2.03729,1.51397 -4.00182,2.959608 -4.36562,3.212531 -1.10022,0.764895 -4.24529,3.099641 -7.66029,5.686621 -1.77691,1.346067 -3.38118,2.447395 -3.56505,2.447395 -0.18387,0 -0.55069,-0.239093 -0.81515,-0.53132 -0.45,-0.497245 -0.46048,-0.772967 -0.16336,-4.299479 0.5162,-6.126887 1.12448,-12.613703 1.39537,-14.880658 0.4633,-3.877069 0.5173,-4.481309 0.6384,-7.14375 0.0662,-1.455208 0.17774,-2.801411 0.24788,-2.991559 0.13308,-0.360796 -1.067,-1.638649 -1.53892,-1.638649 -0.40288,0 -2.69308,2.523064 -4.94305,5.445646 -3.31427,4.305046 -11.37683,14.360165 -12.29588,15.334641 -0.67114,0.711613 -1.07355,0.915545 -1.80659,0.915545 -0.71075,0 -0.9845,-0.130381 -1.11107,-0.529166 -0.0924,-0.291042 -0.31647,-0.529167 -0.49799,-0.529167 -0.3524,0 -1.2218,-1.609241 -1.2218,-2.261526 0,-0.215318 -0.1128,-0.598231 -0.25067,-0.850918 -0.13786,-0.252688 -0.5035,-1.352399 -0.81252,-2.443806 -0.30902,-1.091406 -1.14944,-3.788102 -1.86759,-5.992656 -0.71816,-2.204556 -1.27526,-4.288149 -1.238,-4.630208 0.0385,-0.35365 -0.063,-0.597379 -0.23528,-0.565017 -0.25174,0.04728 -0.65195,-1.105819 -0.75439,-2.173576 -0.014,-0.145521 -0.16871,-0.524648 -0.34389,-0.842502 -0.17517,-0.317855 -0.31849,-0.741977 -0.31849,-0.942491 0,-0.200515 -0.21989,-0.833419 -0.48864,-1.406456 -0.26875,-0.573037 -0.69231,-1.815791 -0.94125,-2.761676 -0.24893,-0.945885 -0.52477,-1.898385 -0.61298,-2.116667 -0.0882,-0.218281 -0.17917,-0.456406 -0.20212,-0.529166 -0.0229,-0.07276 -0.17238,-0.429948 -0.33205,-0.79375 -0.24655,-0.561713 -0.55286,-1.338577 -0.73025,-1.852083 -0.0251,-0.07276 -0.12119,-0.310886 -0.21344,-0.529167 -0.55993,-1.324818 -0.68264,-1.852083 -0.43104,-1.852083 0.17563,0 0.17178,-0.114368 -0.0111,-0.330729 -0.15378,-0.181901 -0.5496,-0.747448 -0.87959,-1.256771 -0.85596,-1.321099 -2.37534,-1.99292 -3.64612,-1.612187 -1.50654,0.451372 -2.46818,1.649576 -3.48951,4.347947 -1.82814,4.829931 -5.5224,16.049854 -9.05933,27.51426 -0.53114,1.721628 -1.19422,3.358737 -1.47351,3.638021 -0.27928,0.279286 -0.48137,0.597087 -0.44908,0.706228 0.0323,0.109141 -0.28521,0.363273 -0.70555,0.564737 -0.8429805,0.404027 -2.1844805,0.110712 -2.0651405,-0.451538 0.0364,-0.171399 -0.052,-0.311637 -0.19639,-0.311637 -0.35989,0 -1.73919,-1.592849 -1.64913,-1.904457 0.04,-0.138348 -0.0357,-0.184563 -0.16813,-0.102698 -0.13246,0.08186 -1.41226,-1.308272 -2.844,-3.089188 -1.43175,-1.780918 -2.93178997,-3.595219 -3.33342997,-4.031781 -0.40164,-0.436563 -0.74059,-0.912813 -0.75322,-1.058333 -0.0126,-0.145521 -0.1931,-0.359797 -0.40105,-0.476168 -0.20794,-0.116372 -0.37808003,-0.39129 -0.37808003,-0.610928 0,-0.219639 -0.11557,-0.327914 -0.25682,-0.240615 -0.14126,0.0873 -0.33119,-0.137531 -0.42207,-0.499626 -0.0909,-0.362093 -0.46189,-0.852726 -0.82446,-1.090295 -0.36257,-0.237567 -0.5934,-0.497766 -0.51295,-0.578218 0.0805,-0.08045 -0.14734,-0.377235 -0.50621,-0.659521 -0.35887,-0.282284 -0.65249,-0.635426 -0.65249,-0.784762 0,-0.149337 -0.3507,-0.599123 -0.77933,-0.999527 -0.58422,-0.545738 -0.73939,-0.880772 -0.61978,-1.338152 0.10439,-0.399192 0.0614,-0.549489 -0.12431,-0.43471 -0.35674,0.220485 -1.76585,-0.9472 -2.36306,-1.95821 -0.57521,-0.973744 -1.06474,-1.155454 -1.8054095,-0.67015 -1.03557,0.678529 -1.03991,0.477628 0.2578695,11.928382 0.79473,7.012161 1.72146,16.340702 1.72645,17.378523 0.002,0.493818 -0.16823,0.764251 -0.56072,0.888822 -0.42595,0.135192 -0.47794,0.232315 -0.21224,0.396526 0.25328,0.156533 0.15076,0.267959 -0.36583,0.397616 -0.45028,0.113011 -0.9010695,0.04584 -1.2097395,-0.180258 -1.92823,-1.412433 -5.47686,-4.30662 -5.58556,-4.555471 -0.0728,-0.166564 -0.26387,-0.302842 -0.42469,-0.302842 -0.48102,0 -4.58704,-3.146603 -4.59502,-3.521345 -0.004,-0.19049 -0.12341,-0.274627 -0.26524,-0.186973 -0.30776,0.190206 -3.04943,-1.917324 -3.04943,-2.344108 0,-0.163282 -0.18553,-0.297034 -0.4123,-0.297225 -0.42831,-2.64e-4 -2.39668,-1.340202 -5.63668,-3.836807 -1.03869,-0.800365 -2.37117,-1.78263 -2.96107,-2.182813 -1.87832,-1.274217 -2.7136,-0.815782 -1.59458,0.875168 0.37965,0.573683 0.63979,1.043061 0.57809,1.043061 -0.0617,0 0.20451,0.359979 0.59156,0.799955 1.12622,1.280205 5.61261,8.562218 5.48421,8.901585 -0.0643,0.169858 0.0301,0.36521 0.20963,0.434118 0.17957,0.06891 0.99201,1.239618 1.80543,2.601585 2.26942,3.799837 4.8002,8.139498 5.68732,9.752339 1.31537,2.39141 3.80155,6.65074 4.75198,8.14108 0.48902,0.76681 0.88912,1.61727 0.88912,1.88992 0,0.55655 0.70411,0.95353 0.86028,0.48503 0.0902,-0.27053 2.62041,0.21025 4.1667995,0.79174 0.21828,0.0821 0.53341,0.17845 0.70029,0.21415 0.16687,0.0357 1.17891,0.26631 2.24896,0.51247 1.07005,0.24616 2.36226,0.49633 2.87159,0.55594 0.95298,0.11152 3.16726003,0.45424 5.95312,0.92139 1.58377,0.26558 10.2751705,0.94041 14.2875005,1.10934 7.54648,0.31772 20.22171,0.15233 26.45833,-0.34523 z M 66.065881,67.04716 c 0,-0.145521 -0.12609,-0.264584 -0.2802,-0.264584 -0.15411,0 -0.20662,0.119063 -0.11668,0.264584 0.0899,0.145521 0.21603,0.264583 0.2802,0.264583 0.0642,0 0.11668,-0.119062 0.11668,-0.264583 z M 8.6711405,58.507733 c -0.0327,-0.316362 -0.39563,-0.255095 -0.50932,0.08599 -0.0582,0.174625 0.037,0.269875 0.21166,0.211666 0.17463,-0.05821 0.30857,-0.192153 0.29766,-0.297656 z M 41.353791,58.15716 c -0.0942,-0.245385 -0.23073,-0.386625 -0.30349,-0.313864 -0.0728,0.07276 -0.0553,0.333062 0.0389,0.578448 0.0942,0.245385 0.23074,0.386625 0.3035,0.313864 0.0728,-0.07276 0.0553,-0.333063 -0.0389,-0.578448 z"
       id="path331" /></g></svg>
