<?xml version="1.0" encoding="UTF-8" standalone="no"?>
<!-- Created with Inkscape (http://www.inkscape.org/) -->

<svg
   width="212.95839mm"
   height="196.7948mm"
   viewBox="0 0 212.95837 196.79478"
   version="1.1"
   id="svg1"
   xml:space="preserve"
   xmlns="http://www.w3.org/2000/svg"
   xmlns:svg="http://www.w3.org/2000/svg"><defs
     id="defs1" /><g
     id="layer1"
     transform="translate(-20.277427,361.56469)"><path
       style="fill:#000000"
       d="m 134.80229,-164.9001 c -0.3638,-0.0611 -1.06287,-0.23744 -1.55349,-0.39197 -0.49062,-0.15453 -1.91937,-0.31659 -3.175,-0.36013 -2.67639,-0.0928 -6.62334,-0.90882 -9.8086,-2.02786 -9.52002,-3.34458 -18.86632,-11.37773 -25.260618,-21.7115 -0.69857,-1.12896 -1.37757,-2.11905 -1.50889,-2.20021 -0.13132,-0.0812 -0.92207,0.26547 -1.75722,0.77028 -3.3898,2.04898 -9.3934,4.35158 -14.48305,5.55478 -9.39293,2.22051 -24.19694,2.69534 -33.73437,1.08201 -8.50646,-1.43893 -14.31624,-4.0795 -18.64722,-8.47525 -3.89343,-3.95165 -5.33584,-8.15324 -4.24144,-12.3549 1.25027,-4.80011 5.33849,-9.50666 12.17303,-14.01418 4.79122,-3.1599 9.39303,-5.13895 15.74271,-6.77031 5.71372,-1.46796 8.22828,-1.75326 15.34583,-1.74111 5.85347,0.01 6.87673,0.0809 10.54841,0.73124 2.23636,0.39609 5.49655,1.18668 7.24486,1.75687 l 3.17874,1.0367 -0.17022,-1.37309 c -1.00316,-8.09207 -1.07376,-9.29526 -1.08193,-18.43871 -0.009,-9.92563 0.10574,-11.38697 1.35928,-17.33021 0.9936,-4.71083 1.00605,-5.18045 0.23152,-8.73114 -2.36391,-10.83684 -2.55123,-23.18003 -0.50392,-33.20532 2.18382,-10.69371 6.72898,-20.47242 13.40275,-28.8354 2.277658,-2.85415 7.130998,-7.78668 9.711338,-9.8698 3.86667,-3.12156 9.99004,-6.82574 14.16377,-8.56801 l 1.79345,-0.74866 0.025,-1.80644 c 0.024,-1.72923 0.0665,-1.84447 0.99596,-2.69606 1.96781,-1.80301 5.08371,-1.80615 8.73212,-0.009 1.86142,0.91702 4.45216,2.727 4.45216,3.11044 0,0.61747 0.51586,0.0568 0.91901,-0.99881 1.5838,-4.14713 5.46902,-8.03813 8.03684,-8.04881 1.9664,-0.008 3.4044,1.78611 3.11625,3.88835 l -0.1601,1.16809 0.77166,-0.54947 c 1.33529,-0.95081 3.01707,-1.5873 4.20999,-1.59332 0.96017,-0.005 1.30004,0.14329 2.05052,0.89377 0.5486,0.5486 0.89958,1.16055 0.89958,1.56846 0,0.61937 0.11261,0.68071 1.52136,0.82871 11.63585,1.22242 22.67691,5.88373 32.46369,13.70551 2.18435,1.74578 6.96781,6.48595 9.14192,9.05919 4.17224,4.93821 8.43465,12.46457 10.41401,18.38854 0.8162,2.44279 1.64947,5.95459 2.1502,9.06198 0.0879,0.5457 0.28577,0.99219 0.43963,0.99219 0.63339,0 4.84752,2.17083 6.69962,3.45118 2.62792,1.81669 6.68745,6.07503 8.11011,8.50732 2.7129,4.63818 3.74047,8.48907 3.72789,13.97066 -0.007,2.96537 -0.12439,4.02115 -0.6925,6.21771 -1.22154,4.72301 -3.84455,9.37057 -7.17284,12.7091 l -1.59169,1.59659 0.72688,2.10757 c 0.4136,1.1992 0.729,2.68584 0.7318,3.44924 0.003,0.91255 0.34506,2.24428 1.06841,4.16383 1.63401,4.33614 1.98113,6.28274 1.96707,11.03096 -0.01,3.38319 -0.11856,4.51786 -0.62009,6.48229 -1.21679,4.76604 -3.84498,9.20349 -7.01201,11.83912 -1.69343,1.40929 -4.18549,2.73138 -5.67727,3.01192 -0.81963,0.15414 -0.87421,0.22608 -0.7276,0.9591 0.0872,0.43586 0.15849,1.06826 0.15849,1.40534 0,0.47994 0.35092,0.7999 1.61792,1.47521 0.88985,0.47428 2.17728,1.36525 2.86095,1.97993 0.90014,0.8093 1.34791,1.05123 1.62323,0.87702 0.2091,-0.13232 0.81754,-0.2424 1.35208,-0.24463 1.63565,-0.007 3.12104,1.58058 3.53279,3.7754 0.10143,0.54068 0.21709,0.98305 0.25703,0.98305 0.0399,0 0.41363,-0.17786 0.83045,-0.39525 0.41681,-0.21738 1.23737,-0.39597 1.82345,-0.39687 2.04142,-0.003 3.03543,1.33501 3.03543,4.08627 0,1.33905 0.0874,1.73293 0.38443,1.73293 0.73237,0 1.67524,0.59048 1.96765,1.23225 0.78194,1.71618 0.0692,4.04345 -2.39706,7.82745 -1.44214,2.21263 -5.50376,6.91294 -7.09877,8.21503 -0.65484,0.53459 -1.78207,1.44899 -2.50496,2.032 -0.72289,0.58302 -2.20487,1.50005 -3.2933,2.03785 -2.26946,1.12136 -4.09667,1.38327 -6.26502,0.89801 -0.78785,-0.17631 -3.98128,-0.35267 -7.17944,-0.39649 -4.90654,-0.0672 -6.05454,-0.16198 -7.74477,-0.63923 -1.09141,-0.30816 -2.23515,-0.56234 -2.54165,-0.56483 -0.3065,-0.002 -1.67572,0.58205 -3.04271,1.29898 -2.91972,1.53129 -9.16422,3.69371 -13.46564,4.66306 -8.57382,1.93215 -15.66227,2.63506 -24.65852,2.44519 l -5.90086,-0.12453 -1.90018,1.76762 c -2.14579,1.9961 -3.8732,2.9293 -6.56648,3.54743 -1.83635,0.42146 -2.29449,0.45193 -3.57188,0.23756 z m 5.49987,-3.54055 c 2.26026,-1.12297 5.69118,-4.50971 7.81095,-7.71037 2.79198,-4.21565 5.73918,-10.44578 5.73918,-12.13216 0,-1.02829 -0.64231,-1.27462 -1.41958,-0.54441 -0.32939,0.30945 -0.70091,0.56264 -0.8256,0.56264 -0.12468,0 -0.44516,0.19771 -0.71217,0.43935 -0.26701,0.24164 -0.5565,0.36832 -0.64332,0.28151 -0.0868,-0.0868 -0.006,-1.40288 0.18031,-2.9246 0.51777,-4.23649 -0.0521,-5.48279 -2.0873,-4.56504 -1.32594,0.59791 -2.66368,1.98484 -3.71012,3.84653 -0.50885,0.90528 -0.85961,1.29983 -0.94087,1.05833 -0.0713,-0.21177 -0.31676,-0.95984 -0.54555,-1.66239 -0.2288,-0.70254 -0.58677,-1.6076 -0.7955,-2.01124 -0.49124,-0.94995 -2.14556,-2.39995 -2.73813,-2.39995 -1.36134,0 -2.73456,2.24421 -3.46132,5.65668 -0.33853,1.58959 -0.55655,2.12435 -0.83806,2.0556 -0.20927,-0.0511 -1.03534,-0.14794 -1.8357,-0.21516 -1.95827,-0.16447 -2.98637,0.47716 -3.83338,2.39241 -0.84951,1.92089 -1.19456,3.99814 -1.18911,7.15854 0.0134,7.79557 2.96366,11.96379 8.2734,11.68909 1.37971,-0.0714 2.20717,-0.29733 3.57187,-0.97536 z m -12.79819,-1.61113 c -1.13049,-2.18614 -1.48136,-3.78855 -1.62641,-7.42782 -0.29034,-7.2847 1.23531,-11.82216 4.50766,-13.40627 0.62951,-0.30474 1.62323,-0.55408 2.20827,-0.55408 h 1.06371 l 0.42415,-1.52556 c 0.51564,-1.85468 1.67312,-3.51326 3.12005,-4.47079 l 1.08027,-0.71488 -0.72113,-0.37784 c -2.78307,-1.4582 -7.24851,-2.32118 -10.80276,-2.08771 -2.47222,0.1624 -6.9381,1.02628 -7.86228,1.52088 -0.87518,0.46839 -0.58268,-0.41646 0.43224,-1.30757 5.578,-4.89755 18.11295,-3.23113 24.07102,3.20005 l 1.64646,1.7772 0.57096,-0.60777 c 0.85332,-0.90831 2.88065,-1.82817 4.02923,-1.82817 2.11002,0 3.25149,1.52613 3.26952,4.3713 l 0.0113,1.7856 0.80102,3.4e-4 c 1.70245,7.2e-4 2.71687,1.64245 2.38448,3.859 -0.4833,3.22289 -3.49951,9.68575 -5.99621,12.84816 -0.41864,0.53027 -0.76116,1.09581 -0.76116,1.25677 0,0.20473 1.68928,0.29181 5.62239,0.28983 10.64009,-0.005 20.48125,-1.56293 29.3026,-4.63775 2.76401,-0.96344 7.424,-3.16269 9.58349,-4.52287 4.71496,-2.96977 10.4662,-8.43457 12.53939,-11.91484 1.24177,-2.08459 2.85813,-5.96699 3.6168,-8.68734 0.55829,-2.00188 0.93499,-8.87994 0.60635,-11.07145 l -0.176,-1.17366 -1.47148,-0.18385 c -0.95485,-0.1193 -2.30909,-0.61198 -3.8572,-1.40325 -3.76174,-1.92271 -7.35554,-5.58654 -9.60476,-9.79192 -0.44372,-0.82963 -0.88359,-1.34722 -1.08065,-1.2716 -0.18278,0.0701 -2.27475,1.42437 -4.64882,3.0094 -9.32891,6.22836 -15.28803,9.71234 -23.63107,13.81585 -8.07646,3.97238 -10.77689,4.73355 -12.02824,3.39039 -0.78681,-0.84454 -0.69439,-2.46306 0.38482,-6.739 0.50836,-2.01419 0.92508,-3.75434 0.92604,-3.86701 9.6e-4,-0.11267 -0.74239,0.27866 -1.65189,0.86961 -9.44865,6.13933 -19.77927,7.50554 -30.69787,4.05974 -2.746,-0.86661 -7.21343,-3.09854 -9.45265,-4.72254 -2.96503,-2.1504 -6.58625,-6.28071 -6.25756,-7.13726 0.11913,-0.31044 1.17341,0.27983 4.60195,2.57653 2.44608,1.63857 5.4679,3.48244 6.71516,4.09748 7.69128,3.79269 17.0208,4.99328 24.1769,3.11127 6.67953,-1.75668 15.1717,-7.23043 15.20361,-9.7997 0.008,-0.63939 0.19747,-0.90073 0.94532,-1.30347 0.51447,-0.27706 1.40744,-1.01585 1.98438,-1.64176 1.31027,-1.42148 1.40645,-2.56857 0.33331,-3.97552 l -0.71567,-0.93829 0.78182,-0.56252 c 2.10089,-1.5116 2.56613,-2.5355 1.85859,-4.09041 -0.24422,-0.53669 -0.91382,-1.32606 -1.48801,-1.75416 -0.6197,-0.46204 -1.04562,-0.99967 -1.04802,-1.32292 -0.005,-0.69438 -0.20732,-0.97337 -1.18658,-1.63767 -1.13654,-0.771 -7.92872,-3.38445 -13.35696,-5.1394 -6.84606,-2.21333 -11.64616,-4.12171 -11.64616,-4.63016 0,-0.19055 -0.23943,-0.42245 -0.53207,-0.51533 -0.55034,-0.17467 -1.4154,-1.53529 -1.14684,-1.80385 0.0836,-0.0836 0.40631,0.0131 0.71705,0.21508 0.31074,0.20193 1.45795,0.56145 2.54936,0.79894 2.28114,0.49637 4.2819,1.08066 5.42396,1.58398 0.43656,0.1924 1.2711,0.47645 1.85453,0.63123 1.42393,0.37777 12.52174,4.28096 14.68192,5.16376 0.94589,0.38655 2.34748,1.11911 3.11465,1.62791 0.96209,0.63808 1.42961,0.82045 1.50689,0.58781 0.0616,-0.1855 0.36617,-1.17071 0.67677,-2.18936 0.3106,-1.01864 0.90283,-2.92364 1.31606,-4.23333 0.41323,-1.30969 1.59436,-5.05108 2.62473,-8.31421 1.03037,-3.26312 1.8734,-6.07268 1.8734,-6.24346 0,-0.21077 -0.99853,-0.36273 -3.10885,-0.4731 -3.8769,-0.20277 -8.86781,-1.39349 -11.8401,-2.82478 -5.96143,-2.87068 -10.75151,-7.45426 -13.27618,-12.70382 -0.65534,-1.36265 -1.36037,-2.34604 -2.25027,-3.13871 -2.76053,-2.4589 -3.46778,-5.67835 -1.9424,-8.84188 1.42012,-2.94522 3.69961,-4.27978 8.87253,-5.19457 1.52943,-0.27047 3.2159,-0.67356 3.74771,-0.89577 0.53182,-0.22221 2.25704,-1.58341 3.83382,-3.0249 3.08807,-2.82309 4.42949,-3.81784 6.70333,-4.97095 3.40113,-1.72476 7.91657,-2.19405 11.23853,-1.168 2.91706,0.90099 4.99404,2.22551 8.47293,5.40333 1.66322,1.51928 1.85479,1.58961 5.02708,1.84551 1.01864,0.0822 2.38786,0.27954 3.04271,0.43859 1.17545,0.2855 1.22252,0.27025 3.6936,-1.19602 2.7193,-1.61357 4.3585,-2.30238 7.4189,-3.1175 2.58714,-0.68907 7.64203,-0.93654 9.79548,-0.47955 0.87709,0.18613 1.67692,0.25621 1.77741,0.15572 0.28126,-0.28127 -0.6505,-4.45891 -1.71684,-7.69759 -1.04852,-3.18458 -4.04773,-9.32661 -5.87851,-12.03854 -6.29228,-9.32075 -15.01045,-17.02687 -24.70159,-21.83413 -5.75839,-2.85644 -13.66353,-5.11176 -19.52798,-5.57131 -2.23137,-0.17486 -2.31111,-0.16079 -3.43959,0.60688 -0.63539,0.43224 -1.75057,1.12505 -2.47817,1.53959 l -1.32292,0.75371 1.33288,-1.43956 c 1.49651,-1.61629 2.37724,-2.95067 2.63847,-3.99751 0.13923,-0.55794 0.0565,-0.76991 -0.395,-1.01153 -1.21213,-0.64871 -2.96704,0.50708 -7.52773,4.95781 -1.7367,1.69482 -3.20046,2.95302 -3.2528,2.79599 -0.0523,-0.15703 0.6377,-1.86904 1.53344,-3.80447 1.19596,-2.58411 1.66557,-3.92641 1.76769,-5.05266 0.11434,-1.26093 0.0619,-1.56329 -0.29463,-1.70012 -0.73936,-0.28372 -1.63938,0.10451 -2.75723,1.18935 -2.17355,2.10935 -3.52421,4.74549 -4.48275,8.74915 l -0.2202,0.91974 -2.17269,-2.03187 c -1.19498,-1.11754 -2.67962,-2.32572 -3.29919,-2.68487 -1.83495,-1.06363 -4.31242,-1.62018 -6.7396,-1.514 -0.84954,0.0372 -1.28292,0.97238 -0.83685,1.80588 0.3542,0.66182 3.29988,2.27322 7.37598,4.03493 1.09141,0.47171 2.10344,0.98108 2.24896,1.13193 0.17822,0.18475 0.16475,0.21835 -0.0413,0.10293 -0.16822,-0.0942 -1.6565,-0.4058 -3.30729,-0.69236 -1.65079,-0.28656 -3.65648,-0.66201 -4.45708,-0.83435 -1.4063,-0.3027 -1.5363,-0.28045 -3.83441,0.65648 -7.91984,3.22889 -16.88124,9.88844 -22.24473,16.5309 -13.942398,17.26705 -18.344038,37.53451 -13.446828,61.91615 l 0.70944,3.53206 -0.5829,2.53758 c -1.19418,5.19871 -1.63333,9.36801 -1.7894,16.98892 -0.20352,9.93799 0.38141,17.82071 2.0615,27.78125 2.98833,17.71649 7.75604,28.30845 16.901308,37.54795 3.88725,3.92729 7.2976,6.4413 11.78682,8.68887 2.77914,1.3914 7.9928,3.16868 9.45424,3.22285 0.44236,0.0164 0.44453,-0.0315 0.0371,-0.81942 z m -1.30064,-126.07673 c -0.87026,-0.19205 -3.38339,-1.21389 -4.22497,-1.7179 -1.6339,-0.97849 -3.60951,-3.23346 -4.59028,-5.23935 -0.96515,-1.97395 -0.97433,-2.02402 -0.97433,-5.31417 v -3.32144 l 1.03763,-2.09906 c 1.33291,-2.69642 3.10866,-4.48798 5.7127,-5.76358 3.55981,-1.74379 7.23241,-1.86735 10.91932,-0.36735 1.35086,0.54959 1.44096,0.63515 0.97521,0.92601 -0.71597,0.44713 -1.7946,2.17368 -1.85337,2.96666 -0.11377,1.53516 0.0538,2.1486 0.82747,3.02981 1.57073,1.78897 4.20654,1.78823 5.99644,-0.002 l 0.8932,-0.8932 0.38733,0.92702 c 0.61592,1.47411 0.9343,4.7388 0.6409,6.57182 -0.38872,2.42852 -1.83831,5.12856 -3.65781,6.81309 -1.64377,1.52184 -4.2027,2.92898 -6.13631,3.37431 -1.17026,0.26952 -4.91498,0.33808 -5.95313,0.109 z m 5.9637,-9.03763 c 0.78813,-0.63818 0.55106,-1.81208 -0.41491,-2.05453 -1.21891,-0.30592 -2.12699,1.11315 -1.29829,2.02886 0.57592,0.63638 0.95205,0.64202 1.7132,0.0257 z m 54.30834,1.33013 c -5.62592,-2.00675 -8.31827,-8.12594 -6.13856,-13.95174 0.73759,-1.97136 2.81395,-4.12037 4.85191,-5.02165 1.79189,-0.79247 4.38102,-1.08756 5.9127,-0.67391 l 1.1335,0.30613 -0.49961,0.71497 c -0.75063,1.07422 -0.89978,2.04734 -0.47106,3.07342 0.85333,2.0423 3.27738,2.34104 4.79926,0.59147 l 0.80393,-0.92421 0.69103,1.50069 c 1.15564,2.50965 1.34181,3.39948 1.22451,5.85291 -0.0877,1.83397 -0.25997,2.61123 -0.84287,3.80263 -0.88331,1.80542 -2.47794,3.4323 -4.26803,4.35435 -1.78958,0.92179 -5.16989,1.0979 -7.19671,0.37494 z m 5.31919,-6.48282 c 0.73226,-0.53544 0.46269,-1.61891 -0.42835,-1.72165 -0.58354,-0.0673 -0.75049,0.0451 -0.88945,0.59875 -0.1,0.39841 -0.0354,0.84504 0.15546,1.07502 0.40014,0.48213 0.55949,0.48869 1.16234,0.0479 z m -60.05585,-13.24372 c -2.28856,-1.03953 -1.53522,-3.94056 1.38378,-5.32879 2.38405,-1.13382 5.64855,0.17954 5.64855,2.27251 0,2.14946 -4.61404,4.15474 -7.03233,3.05628 z m 44.80825,-3.75649 c -0.39652,-0.21519 -0.843,-0.61931 -0.99218,-0.89805 -0.36604,-0.68396 -0.32859,-2.16419 0.0679,-2.68375 1.33117,-1.74436 5.66583,-1.70893 6.90232,0.0564 0.48321,0.68987 0.56279,1.87514 0.17459,2.60048 -0.62967,1.17657 -4.59145,1.77213 -6.15263,0.92491 z m 40.18474,147.01131 c 2.32755,-1.08919 4.2892,-2.66174 7.4497,-5.97201 4.00283,-4.19251 7.3879,-9.55223 6.55745,-10.38268 -0.0939,-0.0939 -0.94458,0.22621 -1.89042,0.71133 -0.94583,0.48512 -1.7784,0.82333 -1.85015,0.75158 -0.0718,-0.0718 0.0487,-0.47559 0.26765,-0.89743 0.21896,-0.42183 0.59317,-1.64337 0.83157,-2.71454 0.54162,-2.43352 0.22461,-4.00555 -0.80774,-4.00555 -0.70477,0 -3.54723,2.03412 -4.36233,3.12176 l -0.5356,0.7147 0.0355,-2.91042 c 0.0553,-4.52959 -0.7044,-5.47825 -3.07868,-3.8447 -1.4276,0.98221 -2.42722,2.15874 -3.14704,3.70397 -0.3072,0.65948 -0.58448,1.24246 -0.61617,1.2955 -0.0317,0.053 -0.6085,-0.17025 -1.2818,-0.49619 -0.68881,-0.33344 -1.31953,-0.49133 -1.44218,-0.36101 -0.55366,0.58821 -4.09673,10.27545 -4.5352,12.39983 -0.66179,3.20641 -0.65832,6.08803 0.009,7.18185 1.64552,2.69859 4.87214,3.35339 8.39678,1.70401 z m -10.75649,-0.38635 c 0,-0.0561 -0.17786,-0.44308 -0.39525,-0.8599 -0.27952,-0.53595 -0.39572,-1.59999 -0.39687,-3.63413 l -0.002,-2.87629 -2.52907,2.54556 c -1.39099,1.40006 -2.62262,2.54556 -2.73697,2.54556 -0.11435,0 -0.55385,0.29751 -0.97667,0.66113 -0.42281,0.36363 -0.88186,0.66128 -1.02011,0.66146 -0.13901,1.8e-4 -0.12481,0.12687 0.0318,0.28344 0.44897,0.44897 8.0248,1.08448 8.0248,0.67317 z m -140.229158,-6.77808 c 3.72137,-0.37957 4.49791,-0.5377 4.49791,-0.91593 0,-0.41012 -3.13027,-4.21092 -3.55539,-4.31698 -0.16423,-0.041 -0.7709,0.32908 -1.34816,0.82235 -2.28974,1.95654 -4.45062,3.61221 -4.56507,3.49776 -0.26495,-0.26495 1.33185,-2.49315 3.00213,-4.1892 1.76427,-1.79151 1.76723,-1.79703 1.27317,-2.37774 -0.27237,-0.32014 -1.43255,-1.62316 -2.57818,-2.8956 l -2.08296,-2.31353 -0.69517,0.49053 c -1.53127,1.08052 -4.26703,2.65589 -4.26703,2.45715 0,-0.1163 0.83014,-1.03775 1.84476,-2.04767 1.01462,-1.00992 1.84805,-1.97517 1.85208,-2.14499 0.004,-0.16983 -0.86989,-1.24139 -1.94205,-2.38125 -1.07215,-1.13986 -2.54046,-2.71215 -3.26291,-3.49398 l -1.31354,-1.4215 -3.6824,2.53482 c -2.02532,1.39415 -4.61089,3.20063 -5.74572,4.0144 -1.13482,0.81377 -2.23615,1.54591 -2.44739,1.62697 -0.21125,0.0811 -0.38408,0.27354 -0.38408,0.42773 0,0.15419 0.81932,1.54044 1.82071,3.08055 1.00139,1.54011 2.56913,4.22895 3.48385,5.9752 0.91473,1.74625 1.69167,3.21353 1.72655,3.26062 0.37822,0.51076 14.12651,0.743 18.36889,0.31029 z m -22.38823,-3.73898 c -2.30367,-4.18374 -4.4366,-7.6191 -4.73641,-7.6286 -0.14819,-0.005 -0.81484,0.43794 -1.48144,0.98365 -0.6666,0.5457 -2.29796,1.82562 -3.62525,2.84427 -1.32728,1.01864 -2.4168,1.93896 -2.42116,2.04514 -0.009,0.22855 1.51444,1.05041 4.13819,2.23189 2.88683,1.29994 9.33539,2.94828 9.55799,2.44315 0.0429,-0.0974 -0.60142,-1.41121 -1.43192,-2.9195 z m 33.63966,1.90663 c 3.89279,-0.95217 9.38625,-2.87635 9.38556,-3.28745 -2.8e-4,-0.16676 -1.75974,-2.1377 -3.90991,-4.37986 l -3.9094,-4.07667 -1.44791,0.93063 c -0.79634,0.51185 -3.08699,1.97397 -5.09032,3.24916 -2.00334,1.2752 -3.71365,2.43377 -3.80069,2.57461 -0.0871,0.14084 0.25141,0.69181 0.75212,1.22438 0.50071,0.53257 1.53666,1.77198 2.30211,2.75424 0.96403,1.23709 1.56973,1.78594 1.9709,1.78594 0.31855,0 2.00494,-0.34874 3.74754,-0.77498 z m 13.22652,-4.80652 c 0.79816,-0.45045 1.49731,-0.89694 1.55367,-0.99219 0.0564,-0.0952 -0.29185,-1.14869 -0.7738,-2.34098 -0.48195,-1.19229 -1.26485,-3.37752 -1.73979,-4.85607 -0.47493,-1.47855 -1.02277,-2.74939 -1.21743,-2.82408 -0.25439,-0.0976 -6.99462,2.74086 -7.68836,3.23776 -0.0397,0.0284 1.34072,1.52733 3.06754,3.33092 1.72682,1.8036 3.52778,3.72575 4.00214,4.27145 0.47436,0.5457 0.97101,0.99219 1.10366,0.99219 0.13265,0 0.89422,-0.36855 1.69237,-0.819 z m -57.08606,-2.65149 c 1.85441,-1.47221 3.6329,-2.91548 3.9522,-3.20726 l 0.58056,-0.53051 -1.97227,-2.54743 c -3.48086,-4.49598 -3.94564,-5.04022 -4.25637,-4.98393 -0.41155,0.0745 -2.99827,2.28442 -5.18507,4.4297 -2.06717,2.0279 -2.12868,2.30851 -1.0199,4.65225 0.74332,1.57122 3.61046,4.86392 4.23529,4.86392 0.16165,0 1.81115,-1.20453 3.66556,-2.67674 z m 41.14092,-3.64867 c 1.56435,-0.93235 2.84427,-1.80448 2.84427,-1.93805 0,-0.4126 -4.07836,-4.69683 -4.47323,-4.69904 -0.61576,-0.003 -10.60802,5.65208 -10.60802,6.00404 0,0.0824 1.14035,1.38123 2.53412,2.88635 l 2.53412,2.73657 2.16223,-1.64733 c 1.18923,-0.90604 3.44216,-2.41018 5.00651,-3.34254 z m -27.21724,-6.50688 c 2.16195,-1.45521 3.99316,-2.80574 4.06934,-3.00119 0.1266,-0.32479 -6.41686,-7.18527 -6.85325,-7.18527 -0.48694,0 -11.34,7.51843 -11.34,7.85576 0,0.075 0.8423,1.09074 1.87177,2.25712 1.02947,1.16637 2.47563,2.9276 3.21368,3.91384 l 1.34191,1.79318 1.88286,-1.49381 c 1.03558,-0.82159 3.65174,-2.68442 5.81369,-4.13963 z m 15.9063,3.27788 c 1.88209,-1.23979 6.54687,-3.90277 7.87136,-4.49351 0.40018,-0.17848 0.7276,-0.43263 0.7276,-0.56478 0,-0.42741 -6.11427,-7.34772 -6.4919,-7.34772 -0.33798,0 -9.47366,5.33332 -10.49927,6.12936 -0.41247,0.32015 -0.23385,0.58641 1.92296,2.86648 1.30772,1.38244 2.80992,3.02359 3.33821,3.64699 0.52829,0.6234 1.03218,1.09965 1.11975,1.05833 0.0876,-0.0413 0.99265,-0.62413 2.01129,-1.29515 z m 18.59285,-0.71984 c 1.12456,-0.5576 2.84832,-1.34937 3.83059,-1.75948 0.98226,-0.41011 1.78608,-0.81709 1.78625,-0.9044 7e-4,-0.35684 -3.31419,-5.05335 -3.56516,-5.05111 -0.25262,0.002 -4.28066,1.72241 -7.48158,3.19497 -0.76403,0.35148 -1.35934,0.77162 -1.32292,0.93363 0.10941,0.48669 4.00839,4.58162 4.37157,4.59128 0.18513,0.005 1.2567,-0.44728 2.38125,-1.00489 z m -52.26108,-4.01235 c 0.54571,-0.46721 0.99219,-0.94206 0.99219,-1.05524 0,-0.11317 -0.43744,-0.53942 -0.97209,-0.94722 l -0.97209,-0.74145 -1.02578,1.17307 c -1.08456,1.24028 -3.11545,5.10821 -3.11545,5.93352 0,0.3448 0.60306,-0.1 2.05052,-1.51238 1.12778,-1.10046 2.497,-2.3831 3.0427,-2.8503 z m 185.658588,3.46369 c 0.28994,-0.56832 0.84165,-1.28069 1.22602,-1.58304 0.39874,-0.31365 0.63685,-0.71132 0.55446,-0.92602 -0.14656,-0.38192 -2.53341,-2.14142 -2.67678,-1.97322 -0.043,0.0504 -0.15911,1.31204 -0.2581,2.80363 -0.15484,2.33303 -0.12359,2.71198 0.22363,2.71198 0.22198,0 0.64083,-0.465 0.93077,-1.03333 z m -138.954818,-5.80056 c 1.41618,-0.7027 3.43769,-1.62544 4.49225,-2.05052 1.05455,-0.42509 1.91775,-0.87968 1.91822,-1.01022 0.002,-0.67385 -5.01784,-6.24496 -5.62751,-6.24496 -1.5207,0 -8.56011,2.17702 -9.63748,2.9805 -0.22465,0.16755 0.54543,1.20113 2.64584,3.55116 1.6295,1.82316 3.05794,3.48062 3.17431,3.68325 0.11637,0.20264 0.26736,0.36843 0.33554,0.36843 0.0682,0 1.28264,-0.57494 2.69883,-1.27764 z m 83.801958,-0.58708 2.38125,-1.00953 -0.006,-1.45715 c -0.003,-0.80143 -0.082,-1.53328 -0.17508,-1.62632 -0.16092,-0.16092 -3.41685,0.90729 -4.44879,1.45957 -0.50604,0.27082 -0.90354,1.25604 -1.21267,3.00569 -0.1737,0.98311 -0.15697,1.01394 0.44977,0.82918 0.3466,-0.10555 1.70174,-0.6462 3.01143,-1.20144 z m -126.041618,-0.54238 c 0.928,-0.74182 3.38396,-2.47429 5.45768,-3.84994 2.07372,-1.37565 3.7704,-2.57789 3.7704,-2.67166 0,-0.36291 -1.44408,-1.65464 -1.8498,-1.65464 -1.13661,0 -8.08863,4.48596 -10.67507,6.88834 l -0.75091,0.69747 0.91444,0.9696 c 0.50295,0.53328 1.03404,0.96959 1.18021,0.96959 0.14617,0 1.02504,-0.60694 1.95305,-1.34876 z m 22.85412,-1.31526 c 1.30969,-0.82349 3.48258,-2.11636 4.82865,-2.87305 1.34607,-0.75669 2.44739,-1.46733 2.44739,-1.57919 0,-0.43652 -6.5946,-6.64207 -7.05848,-6.64207 -0.27038,0 -0.90619,0.27822 -1.41291,0.61827 -0.50672,0.34004 -1.57616,0.98016 -2.37652,1.42248 -1.24001,0.68529 -3.16654,1.81603 -6.39535,3.7536 l -0.70681,0.42415 3.48493,3.5958 c 3.46186,3.57199 3.48932,3.59309 4.14639,3.18652 0.36381,-0.22509 1.73302,-1.08303 3.04271,-1.90651 z m 30.27518,1.26008 c -0.19562,-0.7085 -0.41453,-0.97731 -0.79588,-0.97731 -0.46036,0 -0.4876,0.0743 -0.21815,0.59532 0.35907,0.69426 1.0816,1.56158 1.20124,1.44195 0.0454,-0.0455 -0.0388,-0.52244 -0.18721,-1.05996 z m 80.430918,-2.98967 c 1.83112,-0.96128 3.46585,-1.85863 3.63273,-1.9941 0.35295,-0.28654 0.16261,-1.2852 -0.24495,-1.2852 -0.15218,0 -1.74057,0.47625 -3.52975,1.05833 -1.78918,0.58208 -3.43672,1.05833 -3.6612,1.05833 -0.25323,0 -0.40814,0.2385 -0.40814,0.62839 0,1.08186 0.3189,2.28203 0.60636,2.28203 0.1516,0 1.77382,-0.7865 3.60495,-1.74778 z m -81.637438,0.22368 c 0.41859,-0.11968 0.46675,-0.30622 0.31672,-1.22675 -0.43679,-2.67998 -0.82593,-4.54868 -1.00441,-4.8233 -0.21258,-0.32707 -6.09041,-2.33566 -7.67732,-2.62352 -1.2459,-0.22599 -1.29253,0.15208 -0.12827,1.0401 0.62119,0.47381 1.26578,0.68201 2.2943,0.74107 0.84592,0.0486 1.47493,0.21727 1.53938,0.41285 0.06,0.18191 -0.0122,0.33073 -0.16041,0.33073 -0.14818,0 -0.58508,0.12002 -0.9709,0.26671 l -0.70149,0.26671 1.77242,1.91438 c 0.97484,1.05291 2.13919,2.42509 2.58745,3.04928 0.56771,0.79052 0.94002,1.08301 1.22695,0.9639 0.22656,-0.0941 0.63407,-0.23453 0.90558,-0.31216 z m 74.780288,-1.10915 c 1.23693,-0.40395 3.61818,-1.12069 5.29167,-1.59276 2.97666,-0.83968 5.12547,-1.48776 9.39271,-2.83282 1.16417,-0.36696 3.60495,-1.43578 5.42396,-2.37517 3.56729,-1.84224 9.2074,-5.46581 9.43638,-6.06254 0.12204,-0.31801 -0.87303,-6.98455 -1.07227,-7.18379 -0.0843,-0.0843 -8.55379,2.75906 -8.95273,3.00562 -0.16096,0.0995 -0.1659,0.22532 -0.0129,0.32705 0.2598,0.1727 0.72404,3.20872 1.02661,6.71381 0.14831,1.71803 0.11319,2.05052 -0.21658,2.05052 -0.31126,0 -0.43076,-0.56736 -0.57123,-2.71198 -0.28964,-4.42216 -0.46463,-5.48944 -0.94194,-5.74489 -0.30092,-0.16105 -1.69938,0.2005 -4.52636,1.1702 l -4.09091,1.40325 0.0963,1.02348 c 0.56134,5.96649 0.72824,8.20191 0.6263,8.38872 -0.31762,0.58205 -0.63345,-0.56385 -1.12053,-4.06554 -0.6058,-4.35518 -0.70313,-4.75491 -1.15776,-4.75491 -0.18118,0 -1.36423,0.34979 -2.62901,0.77731 -2.34805,0.79369 -4.29852,1.94174 -4.54342,2.67426 -0.0752,0.22487 0.0422,1.76511 0.26082,3.42276 0.45929,3.48229 0.50337,5.03192 0.14313,5.03192 -0.2795,0 -0.57259,-0.96649 -1.199,-3.95384 -0.22714,-1.08321 -0.4545,-2.01099 -0.50525,-2.06174 -0.21215,-0.21214 -2.01012,2.62668 -2.01012,3.17378 0,0.32811 -0.28898,1.64693 -0.64219,2.93072 -0.56692,2.06058 -0.59018,2.31346 -0.19844,2.1576 0.24407,-0.0971 1.45579,-0.50707 2.69271,-0.91102 z m 13.61666,-2.81052 c 1.09657,-0.66575 1.99376,-1.25184 1.99376,-1.30244 0,-0.16516 -4.03211,1.14749 -4.27699,1.39237 -0.21022,0.21022 -0.0519,1.12051 0.19487,1.12051 0.052,0 0.99179,-0.5447 2.08836,-1.21044 z m -107.027228,-0.10602 c 1.65658,-0.84512 4.24227,-1.7551 6.34797,-2.23403 1.07962,-0.24556 2.05438,-0.50298 2.16615,-0.57206 0.30344,-0.18753 -0.80497,-1.93164 -1.44543,-2.2744 -1.44882,-0.77538 -12.01248,-1.33735 -14.59665,-0.77651 l -0.79375,0.17226 1.5875,1.17101 c 0.87312,0.64405 2.41905,2.04072 3.43539,3.10372 1.01633,1.06299 1.94381,1.93272 2.06106,1.93272 0.11724,0 0.67424,-0.23522 1.23776,-0.52271 z m 147.699108,-0.4502 c 1.42973,-0.51001 4.65635,-2.79162 4.9008,-3.46547 0.0911,-0.25103 0.55944,-0.89993 1.04084,-1.44201 1.16827,-1.31551 2.60037,-4.21206 3.3336,-6.74249 0.50959,-1.75863 0.59719,-2.68343 0.59627,-6.29483 -0.001,-4.30267 -0.23575,-5.8115 -1.3703,-8.81122 l -0.43054,-1.13831 -0.74633,0.81713 c -0.71948,0.78774 -2.71766,1.72048 -3.1342,1.46304 -0.11136,-0.0688 -0.50089,0.23508 -0.86562,0.67534 -1.99358,2.40642 -5.72482,2.44732 -7.58448,0.0831 -0.46601,-0.59244 -0.56171,-0.6177 -0.99653,-0.26308 -0.26455,0.21576 -1.31444,1.0722 -2.33309,1.90321 -1.99401,1.6267 -5.23877,3.78646 -8.44869,5.62354 -2.22106,1.27115 -2.43419,1.6355 -2.18541,3.73604 0.58778,4.96283 5.12995,10.95452 9.97264,13.15513 3.09623,1.40699 5.66078,1.62482 8.25104,0.70084 z M 48.018962,-221.0125 c 0.80037,-0.44016 2.52477,-1.19945 3.83201,-1.68731 1.52915,-0.57067 2.17112,-0.9165 1.80009,-0.9697 -1.20386,-0.17262 -9.69868,2.16132 -10.80144,2.96768 -0.44975,0.32886 -0.41093,0.40023 0.55701,1.02411 l 1.04046,0.67061 1.05833,-0.60255 c 0.58209,-0.33141 1.71318,-0.96268 2.51354,-1.40284 z m 126.735408,-10.76622 c 6.17831,-2.08193 14.56905,-4.78574 17.72709,-5.71233 3.40026,-0.99766 5.85771,-2.12236 8.52593,-3.90203 1.41504,-0.94382 2.76001,-1.9229 2.98882,-2.17573 0.38401,-0.42432 0.36106,-0.47349 -0.29832,-0.63898 -1.37482,-0.34506 -2.93564,-1.67335 -3.64943,-3.10575 -0.37831,-0.75917 -0.68784,-1.54335 -0.68784,-1.74262 0,-0.19928 -0.1199,-0.58637 -0.26645,-0.8602 -0.25224,-0.4713 -0.36874,-0.44566 -2.18281,0.48042 -1.054,0.53806 -1.93578,0.97829 -1.95951,0.97829 -0.0237,0 0.29051,1.42875 0.6983,3.175 0.99898,4.27779 1.1166,5.15937 0.68836,5.15937 -0.4115,0 -1.25105,-2.46714 -1.89075,-5.55625 -0.25615,-1.23693 -0.53794,-2.33478 -0.62621,-2.43967 -0.0883,-0.1049 -1.50868,0.18128 -3.15648,0.63595 -2.94199,0.81175 -2.99321,0.83904 -2.84116,1.51363 0.0852,0.37783 0.51223,2.05619 0.94904,3.72967 0.78785,3.01843 0.9841,4.49792 0.59663,4.49792 -0.11081,0 -0.47515,-0.98226 -0.80965,-2.18281 -1.42716,-5.12216 -1.74497,-6.07819 -2.06088,-6.19941 -0.32519,-0.12479 -1.51931,0.22627 -6.24746,1.83666 -1.93221,0.65811 -2.2715,0.85649 -2.08387,1.21843 0.31206,0.60197 1.30129,5.39452 1.50916,7.31151 0.12228,1.1277 0.0897,1.51086 -0.11258,1.32291 -0.36895,-0.34285 -0.92286,-2.49242 -1.51698,-5.88698 -0.41287,-2.35899 -0.54235,-2.71197 -0.99482,-2.71197 -0.65223,0 -7.30891,2.30293 -7.77516,2.68988 -0.4553,0.37786 -0.1413,3.42364 0.87515,8.48876 0.11903,0.59317 0.0515,0.7276 -0.36542,0.7276 -0.44372,0 -0.56955,-0.35908 -0.9503,-2.71197 -0.24137,-1.49159 -0.5139,-3.45612 -0.60561,-4.36563 -0.0917,-0.9095 -0.28481,-1.65365 -0.42909,-1.65365 -0.14429,0 -0.72758,0.13939 -1.2962,0.30976 -0.79337,0.2377 -0.99007,0.40695 -0.84559,0.7276 0.65283,1.4489 0.30822,3.84425 -0.74583,5.18426 -0.43625,0.5546 -0.55806,1.11651 -0.59147,2.72851 -0.0231,1.11655 -0.13516,2.22826 -0.24893,2.47049 -0.16525,0.35184 0.31582,0.25298 2.39247,-0.49168 1.42962,-0.51264 5.15916,-1.79467 8.28785,-2.84896 z m 17.75823,1.5818 1.19385,-0.78927 -0.0172,-2.40366 c -0.016,-2.23767 0.034,-2.47095 0.72388,-3.37792 0.40759,-0.53584 0.64571,-0.97367 0.52917,-0.97295 -0.24821,0.002 -4.63807,1.55854 -4.77212,1.69259 -0.0853,0.0853 0.32253,3.98598 0.61995,5.92986 0.15137,0.98935 0.10368,0.99153 1.72245,-0.0786 z m -25.37682,-10.49657 c 0.86013,-0.31362 1.44491,-0.64373 1.29953,-0.73359 -0.21821,-0.13486 -1.35385,-5.7725 -1.35385,-6.72089 0,-0.18631 -0.0893,-0.19387 -0.26112,-0.0221 -0.3804,0.38041 -2.41775,7.31451 -2.2656,7.71099 0.18214,0.47464 0.7871,0.4197 2.58104,-0.2344 z m 7.17632,-2.30691 c 6.16917,-2.11038 14.407,-4.75286 15.45738,-4.95832 0.47294,-0.0925 0.85989,-0.2543 0.85989,-0.35953 0,-0.10523 -0.48634,-0.41064 -1.08077,-0.67869 -1.31035,-0.59088 -2.79559,-2.26099 -3.15214,-3.54446 -0.14413,-0.51884 -0.26272,-1.76089 -0.26353,-2.76013 -10e-4,-1.76017 -0.02,-1.81125 -0.59679,-1.63876 -0.32742,0.0979 -2.38125,0.65117 -4.56406,1.22945 -2.18281,0.57828 -4.3557,1.17613 -4.82864,1.32855 -0.86892,0.28004 -1.07987,0.59808 -0.59532,0.89755 0.14552,0.0899 0.26459,0.54673 0.26459,1.01508 0,0.46836 0.16097,1.08641 0.35772,1.37345 0.31876,0.46504 0.89018,2.5862 1.37671,5.11044 0.14442,0.74934 0.0997,0.87054 -0.29296,0.79375 -0.35285,-0.069 -0.63943,-0.80678 -1.20112,-3.0921 -0.76922,-3.12969 -1.55227,-5.33022 -1.89735,-5.33192 -0.11098,-5.4e-4 -1.03371,0.22955 -2.05052,0.51132 -2.0917,0.57964 -2.50337,0.32541 -0.59196,-0.36558 2.47105,-0.8933 2.84533,-1.03255 2.92394,-1.08786 0.12866,-0.0905 -2.0489,-7.61622 -2.2668,-7.83412 -0.1092,-0.1092 -0.34301,-0.10926 -0.51957,-1.4e-4 -0.46267,0.28594 -3.77559,10.52985 -3.77559,11.67451 0,0.52917 0.23218,2.0281 0.51597,3.33098 0.52769,2.42266 0.75467,3.92415 0.78808,5.21313 0.0104,0.40018 0.14726,0.7276 0.3042,0.7276 0.15693,0 2.32982,-0.69939 4.82864,-1.5542 z m 12.21187,-4.86194 c -1.06722,-2.94026 -2.3215,-7.61806 -2.10162,-7.83794 0.22966,-0.22966 0.41084,0.17201 1.43212,3.17483 1.21239,3.56476 1.52485,4.99384 1.09188,4.99384 -0.16628,0 -0.35635,-0.14883 -0.42238,-0.33073 z m 29.1235,2.48141 c 0.50327,-0.30689 1.18328,-1.20594 1.80037,-2.38026 0.5454,-1.0379 1.10421,-1.88709 1.24179,-1.88709 0.13759,0 0.25016,0.47625 0.25016,1.05834 0,0.8669 0.0918,1.05833 0.50753,1.05833 0.92656,0 1.36171,-0.3193 1.91607,-1.40593 1.03289,-2.02464 0.31968,-6.32417 -1.33434,-8.04389 -0.32129,-0.33406 -0.737,-0.51986 -0.96628,-0.43187 -0.22132,0.0849 0.951,-1.19906 2.60516,-2.8533 5.66904,-5.66933 7.9754,-10.90333 7.97091,-18.08897 -0.003,-4.4077 -0.5721,-6.95234 -2.36794,-10.58333 -5.92206,-11.97375 -20.36094,-17.15812 -32.16178,-11.54789 -4.43122,2.10664 -8.08701,5.38124 -10.55634,9.45562 -2.76226,4.55771 -3.5253,10.7922 -1.94879,15.92274 0.23577,0.76728 0.36151,1.46222 0.27942,1.54431 -0.36899,0.36899 -2.29007,-3.70856 -2.30192,-4.8859 -0.005,-0.45016 -0.11903,-0.58036 -0.41163,-0.46808 -0.65876,0.25279 -0.97225,-1.0631 -0.87452,-3.6708 l 0.0892,-2.38125 -1.32291,-0.15359 c -1.69971,-0.19733 -3.2044,0.14459 -4.29418,0.97581 -0.76299,0.58195 -0.8652,0.80827 -0.8652,1.91567 0,1.12209 -0.11497,1.36708 -1.08014,2.30164 -2.06126,1.99589 -2.35907,3.46792 -1.01199,5.00216 0.45551,0.51879 1.26824,1.06679 1.83319,1.23605 0.92224,0.27631 1.12721,0.23824 2.24519,-0.41693 0.67666,-0.39655 1.30193,-0.64937 1.38948,-0.56182 0.0876,0.0876 -0.10683,0.91272 -0.43196,1.8337 -0.51742,1.46566 -0.55334,1.82465 -0.28799,2.87845 0.18478,0.73383 0.6365,1.52705 1.1568,2.03134 0.84467,0.81868 0.86503,0.82337 1.9362,0.44544 0.5954,-0.21007 1.15013,-0.31436 1.23274,-0.23175 0.0826,0.0826 -0.21227,0.563 -0.65527,1.06755 -1.96803,2.24146 -1.71572,4.94595 0.54894,5.88401 1.00645,0.41688 2.45441,0.23623 3.96798,-0.49504 1.58752,-0.76701 2.11616,-0.71109 3.36241,0.35566 1.59331,1.36381 1.97804,2.35238 1.66062,4.26697 -0.29939,1.80575 -0.1511,2.79301 0.60685,4.04035 0.6715,1.10507 1.86436,1.62329 3.73658,1.62329 1.1721,0 1.8142,-0.19762 3.43875,-1.05834 1.09864,-0.58208 2.18624,-1.05833 2.41688,-1.05833 0.83561,0 1.91343,0.7878 2.24534,1.64117 1.3005,3.34365 1.64389,3.89526 2.76181,4.43644 1.9505,0.94422 3.31937,0.64498 5.63707,-1.23229 0.61766,-0.50028 1.24273,-0.83562 1.38906,-0.74518 0.14632,0.0904 0.26604,0.58812 0.26604,1.10598 0,0.74094 0.21886,1.16041 1.02721,1.96876 1.17264,1.17264 2.06956,1.31495 3.35339,0.53205 z m -9.01081,-9.93477 c -1.90759,-0.44033 -4.33613,-1.33393 -5.04291,-1.85557 -0.37132,-0.27407 -0.43366,-0.45983 -0.22532,-0.67148 0.21011,-0.21346 1.1405,-0.1038 3.43959,0.40541 1.73336,0.38391 4.81844,0.8454 6.85573,1.02554 l 3.70416,0.32752 -1.05833,0.47768 c -1.4011,0.63239 -5.51744,0.78845 -7.67292,0.2909 z m -15.79618,-7.73063 c -2.0208,-1.64029 -4.98982,-5.19761 -4.71252,-5.64629 0.39468,-0.6386 1.48277,-0.0387 2.93491,1.61814 2.86014,3.2633 4.18357,5.25868 3.48473,5.25406 -0.10914,-7.3e-4 -0.87734,-0.55239 -1.70712,-1.22591 z m -10.14925,6.68066 c 2.31938,-0.67106 4.49227,-1.22011 4.82864,-1.22011 0.70219,0 0.82196,-0.66949 0.25779,-1.44104 -0.33814,-0.46243 -0.40783,-0.45217 -1.57502,0.23185 -0.73983,0.43356 -1.79581,0.77499 -2.67884,0.86612 -1.23124,0.12708 -1.68242,0.0405 -2.90508,-0.55773 -1.59359,-0.77968 -2.93071,-2.45011 -3.22748,-4.03202 -0.0916,-0.48841 -0.24591,-0.88801 -0.34286,-0.88801 -0.13906,0 -0.95672,0.49272 -1.57088,0.94661 -0.0474,0.0351 0.26907,1.17587 0.70336,2.53513 0.43429,1.35926 0.87522,3.04791 0.97985,3.75256 0.22276,1.50025 -0.39817,1.52196 5.53052,-0.19336 z m -6.48425,-7.7847 c 1.55936,-0.76759 1.58577,-1.14742 0.17386,-2.50027 -0.69586,-0.66675 -1.30068,-1.0645 -1.36219,-0.89581 -0.61826,1.69546 -1.17469,3.50165 -1.17469,3.81307 0,0.45277 0.92921,0.2888 2.36302,-0.41699 z m -3.65895,-5.47395 c 0.27596,-0.7276 0.50184,-1.44467 0.50196,-1.59348 1.2e-4,-0.14881 -0.43722,-0.50599 -0.97188,-0.79375 -3.01852,-1.62458 -3.54982,-5.66538 -1.10944,-8.4378 0.85669,-0.97325 1.0232,-1.35185 1.0232,-2.32647 0,-1.62589 1.14423,-3.12831 3.12226,-4.09966 1.35135,-0.6636 1.78747,-0.7405 4.19956,-0.7405 h 2.6916 l 0.33268,-1.05834 c 0.83316,-2.65053 2.45438,-5.25226 4.81205,-7.72238 0.85935,-0.90033 1.49445,-1.74699 1.41135,-1.88146 -0.0831,-0.13447 -1.30848,-0.32944 -2.72305,-0.43328 -1.41457,-0.10384 -2.905,-0.36103 -3.31208,-0.57153 -0.40707,-0.21051 -1.78297,-1.25196 -3.05756,-2.31434 -4.12577,-3.43886 -5.94783,-4.41565 -8.98947,-4.81914 -1.62529,-0.2156 -4.453,0.23711 -6.28537,1.00628 -1.93485,0.81219 -4.74237,2.80652 -7.56195,5.37164 -2.85499,2.59735 -4.35696,3.41691 -7.279,3.97187 -5.55471,1.05497 -6.93666,1.74902 -8.13783,4.08703 -0.57915,1.12726 -0.7199,1.70608 -0.6275,2.58051 0.1555,1.47165 1.13914,2.89364 2.25941,3.26626 0.76523,0.25454 1.0231,0.59416 1.90138,2.50425 2.49287,5.42144 6.37394,9.38283 11.89769,12.14391 2.77615,1.38768 4.82346,2.09903 7.55317,2.62439 1.15727,0.22272 2.34225,0.45762 2.63329,0.52199 0.29104,0.0644 1.5832,0.099 2.87147,0.077 l 2.34231,-0.0401 z m -6.92704,-22.22033 c -1.50277,-0.81711 -2.60427,-3.49139 -1.77828,-4.31738 1.51488,-1.51488 4.87242,2.06922 4.01982,4.29107 -0.19805,0.51611 -1.31661,0.52924 -2.24154,0.0263 z m 10.64512,-0.56142 c -0.49165,-0.34437 -0.57007,-0.6548 -0.57007,-2.25673 0,-1.70017 0.0655,-1.92291 0.7734,-2.63083 0.91462,-0.91462 1.16888,-0.94778 1.87243,-0.24423 0.72097,0.72096 0.72813,2.97775 0.0132,4.1503 -0.71683,1.17563 -1.37215,1.48354 -2.08893,0.98149 z"
       id="path170" /></g></svg>
