<?xml version="1.0" encoding="UTF-8" standalone="no"?>
<!-- Created with Inkscape (http://www.inkscape.org/) -->

<svg
   width="188.06764mm"
   height="229.45348mm"
   viewBox="0 0 188.06763 229.45346"
   version="1.1"
   id="svg1"
   xml:space="preserve"
   xmlns="http://www.w3.org/2000/svg"
   xmlns:svg="http://www.w3.org/2000/svg"><defs
     id="defs1" /><g
     id="layer1"
     transform="translate(-209.02005,376.64597)"><path
       id="path200"
       style="fill:#000000"
       d="m 301.64791,-376.64523 c -2.94723,-0.009 -3.43783,0.0572 -4.50463,0.60306 -1.49594,0.76529 -2.37454,2.00011 -2.37454,3.33727 0,0.91561 -0.0538,0.99189 -0.59531,0.84439 -4.28291,-1.16677 -8.42081,-1.24321 -10.5854,-0.19534 -1.6241,0.78621 -2.37816,1.86335 -2.52233,3.60185 -0.13663,1.64755 0.28441,2.58141 1.98283,4.39715 1.14814,1.22746 1.16696,1.27449 0.56689,1.40456 -0.34145,0.074 -1.93032,0.38718 -3.53105,0.69608 -9.4474,1.82315 -17.81509,5.24444 -25.36745,10.37198 -11.73366,7.96662 -20.90532,20.10434 -25.29044,33.47031 -1.91986,5.85152 -3.17624,13.36914 -3.18224,19.0407 l -0.003,2.44016 -1.50688,0.99942 c -5.31614,3.52553 -6.54724,10.36827 -2.70216,15.02234 1.437,1.73934 3.53459,3.2854 6.2761,4.62556 1.22571,0.59918 2.18464,1.13094 2.13114,1.18184 -0.0535,0.0509 -1.22825,0.52694 -2.6107,1.05781 -5.21092,2.0011 -7.90745,4.22613 -8.9426,7.3794 -0.31,0.94433 -0.75907,2.78487 -0.99788,4.09019 -0.42325,2.31423 -0.47141,2.41223 -1.93373,3.92586 -4.14545,4.2909 -4.22743,10.28765 -0.19378,14.21928 1.40494,1.36958 1.40015,1.35521 1.90066,5.47926 l 0.17931,1.47742 -1.38544,1.16841 c -2.70994,2.28454 -5.02804,5.72961 -6.22701,9.25473 -0.8712,2.56144 -1.2042,4.75222 -1.2082,7.94835 -0.005,4.61429 1.16674,7.89797 3.84318,10.76575 1.78873,1.9167 3.30303,2.77825 6.17223,3.51193 1.10204,0.28186 2.0409,0.55003 2.0867,0.59583 0.0458,0.0458 -0.16387,1.92101 -0.46613,4.16667 -0.70404,5.23206 -0.75611,10.87377 -0.13022,14.13713 1.10961,5.78526 3.43436,10.0975 7.74681,14.36811 l 2.48616,2.46187 -0.43822,2.04018 c -0.617,2.87124 -0.25555,4.56179 1.35857,6.35724 1.68345,1.8724 3.16322,2.50679 5.87303,2.51819 1.20055,0.005 2.18281,0.0863 2.18281,0.18035 0,0.44475 2.07778,2.23523 3.1564,2.71973 1.63062,0.73241 5.46689,0.77206 8.14834,0.0853 2.3535,-0.60314 5.41713,-2.14335 7.46879,-3.75533 l 1.54565,-1.2144 3.66489,0.54002 c 8.87095,1.3073 18.33942,2.15946 29.72635,2.67478 3.71078,0.16793 6.98612,0.34974 7.27863,0.4041 0.29251,0.0545 0.75684,0.49104 1.03197,0.96997 2.3075,4.01686 7.37811,7.26664 12.45919,7.98556 h 5.2e-4 c 2.87834,0.40724 5.84928,-0.48082 7.5091,-2.24482 0.86879,-0.9234 1.29968,-1.20621 1.60197,-1.05007 0.86828,0.44846 3.00521,0.5802 4.34237,0.26769 4.22562,-0.98798 7.68971,-4.40101 8.27185,-8.14938 l 0.1788,-1.15083 2.80603,-1.33791 c 3.20617,-1.52854 4.89836,-2.62322 7.67498,-4.96507 l 1.95802,-1.65158 1.74615,0.29198 c 4.91026,0.82056 6.39833,0.93834 11.80031,0.93534 6.50634,-0.003 9.93565,-0.3938 14.84871,-1.69137 10.8299,-2.86028 18.2228,-9.27387 19.82928,-17.20205 1.50499,-7.42729 -2.67087,-14.13121 -10.30428,-16.54266 -5.81652,-1.83746 -14.98455,-1.15066 -22.34386,1.67328 -0.31219,0.1198 -0.35102,-0.003 -0.19482,-0.62166 0.93907,-3.71861 2.18682,-14.27509 2.5306,-21.40903 0.19322,-4.0106 0.19716,-7.48141 0.0124,-11.16108 -0.40621,-8.08998 -0.84833,-11.57991 -2.31459,-18.26762 l -0.94103,-4.29328 1.53531,-1.65829 c 5.59525,-6.04369 8.85566,-12.91243 10.46706,-22.04982 0.52446,-2.97396 0.60472,-4.32801 0.60772,-10.30325 0.003,-5.84908 -0.0861,-7.45369 -0.5948,-10.71562 -2.11306,-13.54892 -7.06318,-24.98832 -15.22749,-35.18959 -2.13117,-2.66273 -7.70353,-8.2118 -10.47482,-10.43088 -5.00439,-4.00759 -11.34772,-7.72391 -16.95038,-9.93118 -2.73207,-1.07632 -2.81024,-1.13099 -3.65611,-2.54506 -1.6279,-2.72166 -5.45804,-7.14237 -8.23826,-9.50847 -4.00454,-3.40802 -8.83365,-6.15875 -13.54852,-7.71787 -1.9089,-0.63123 -2.61998,-0.72684 -5.49941,-0.73484 z m -0.7674,2.5461 c 0.4714,-0.0124 1.02846,0.0426 1.83917,0.16071 2.42024,0.35276 5.97323,1.54945 8.08994,2.7249 5.40618,3.00183 11.67277,8.62542 14.40998,12.93047 1.98011,3.1144 2.19386,3.32702 3.99717,3.97444 3.26856,1.17347 10.17587,4.80138 13.74696,7.22075 5.43742,3.68352 9.50076,7.43001 14.86008,13.70045 1.55303,1.81708 5.23657,7.48114 6.87762,10.57507 6.03295,11.37432 8.79665,24.4098 7.90236,37.27473 -0.5149,7.40597 -1.71112,12.15555 -4.43333,17.6015 -1.96439,3.93025 -3.88165,6.52726 -7.78557,10.54665 -2.68418,2.76372 -3.30907,3.55107 -3.31607,4.18062 -0.0108,0.93153 0.45361,1.00326 1.59628,0.2465 1.11867,-0.74087 1.42437,-0.6664 1.90066,0.46302 0.56299,1.33502 1.57278,6.38124 2.08308,10.40763 0.57882,4.56714 0.80906,18.41697 0.39481,23.75566 -0.94237,12.14483 -3.44237,25.35996 -5.97845,31.60117 -0.35697,0.8785 -0.64906,1.70736 -0.64906,1.84175 0,0.49404 -3.11852,6.48912 -4.23591,8.14369 -5.55117,8.2187 -12.52385,13.25218 -21.82555,15.75459 -3.10773,0.8361 -7.71037,1.61629 -11.50937,1.9513 v 5.2e-4 c -2.76935,0.24422 -9.41557,0.30142 -12.03854,0.10387 -0.99235,-0.0747 -4.45457,-0.2662 -16.27188,-0.9002 -16.51871,-0.88624 -32.47131,-2.95149 -43.78854,-5.66891 -4.61255,-1.10756 -6.37598,-1.71493 -9.61337,-3.31091 -5.40348,-2.6639 -9.18513,-6.41491 -11.54503,-11.45305 -1.32716,-2.83319 -1.88305,-4.90715 -2.23914,-8.35194 -0.28415,-2.74885 -0.008,-8.06156 0.64079,-12.32431 0.21955,-1.44253 0.39946,-2.74606 0.39946,-2.89698 0,-0.17324 0.0927,-0.18147 0.25115,-0.0233 0.13804,0.13824 0.73623,3.10917 1.32963,6.60167 2.63933,15.53376 2.81438,16.20971 4.66277,18.02215 1.60656,1.57545 5.13039,3.40009 8.57312,4.43901 8.9931,2.71379 22.43738,1.5165 30.1625,-2.68614 2.25848,-1.22879 3.31768,-2.0528 3.94704,-3.07113 0.46843,-0.75795 1.37871,-5.80034 2.94453,-16.30702 0.57628,-3.86676 1.87848,-11.4908 1.99471,-11.67887 0.0649,-0.10496 1.03888,0.3265 2.1642,0.9586 2.03726,1.14406 6.38095,2.98196 8.39639,3.55223 3.97033,1.12341 7.35945,1.66625 11.24479,1.80196 7.64686,0.26708 13.49448,-1.03399 18.79265,-4.18166 1.88963,-1.1226 5.53474,-4.31325 5.25136,-4.59662 -0.0822,-0.0822 -1.35199,0.38352 -2.82153,1.03508 -3.69135,1.63665 -7.35735,2.87935 -11.06702,3.75171 -2.87906,0.67697 -3.57904,0.73894 -8.30337,0.73794 -4.5836,-10e-4 -5.52847,-0.0799 -8.46667,-0.70693 -5.49703,-1.17309 -9.28685,-2.6129 -12.80077,-4.86379 -2.67817,-1.71554 -5.1909,-4.26 -5.1909,-5.25652 0,-0.0874 0.68461,-0.0877 1.52136,0.008 1.06543,0.11677 1.79103,0.0514 2.42156,-0.21808 l 0.9002,-0.38499 -2.42311,-1.25108 c -3.97676,-2.05392 -4.88436,-3.31549 -3.14761,-4.37441 0.71095,-0.43348 1.33541,-0.52473 3.60443,-0.52555 3.22902,-0.001 3.24285,-0.14706 0.17777,-1.82935 -2.18311,-1.19816 -3.58376,-2.28988 -3.58376,-2.79363 0,-0.43874 1.35489,-1.46986 3.0427,-2.31562 0.7276,-0.36457 3.39997,-1.34063 5.93814,-2.16886 6.16122,-2.01021 10.77088,-3.91164 16.76797,-6.91689 5.70496,-2.85865 8.02256,-4.30193 9.69502,-6.03684 l 1.18029,-1.22421 -3.03238,1.03146 c -3.56245,1.21181 -3.55078,1.20646 -9.52293,4.00286 -6.05096,2.83324 -15.48807,6.54623 -15.81299,6.22132 -0.0765,-0.0765 -0.004,-0.94343 0.16123,-1.9265 0.16509,-0.98307 0.37364,-2.38279 0.46354,-3.1104 0.32108,-2.59769 0.64446,-3.37267 1.85002,-4.43384 0.67808,-0.59688 1.50156,-1.71912 1.99161,-2.71456 0.79706,-1.61913 0.82954,-1.80964 0.71107,-4.15324 -0.16031,-3.17116 -0.84542,-4.96524 -2.6846,-7.02644 -1.39824,-1.5672 -1.64311,-2.24208 -2.13217,-5.87819 -0.01,-0.0712 1.29212,-0.0913 2.89285,-0.0444 7.06121,0.20627 13.69213,-1.34972 17.98495,-4.22093 4.49452,-3.00598 6.72965,-7.17202 6.03219,-11.24376 -0.55216,-3.22335 -2.60192,-6.31305 -5.51956,-8.32042 -0.8936,-0.61482 -1.21478,-1.04275 -1.4366,-1.91048 -1.9043,-7.4494 -3.03932,-10.13342 -5.5082,-13.02401 -3.55284,-4.15975 -8.75419,-6.99734 -15.78611,-8.61291 -2.99128,-0.68723 -10.55361,-0.99998 -13.16819,-0.54467 -3.14858,0.5483 -6.76903,1.88483 -8.82168,3.25768 -2.3205,1.55204 -4.78761,4.17974 -6.05597,6.44767 -0.51311,0.91778 -1.14014,1.72844 -1.39267,1.80144 -1.19991,0.34686 -5.4778,0.9954 -10.64587,1.61489 -3.12856,0.37503 -7.13375,0.85579 -8.90023,1.06815 -1.76648,0.21236 -3.42326,0.46624 -3.68143,0.56534 -0.44028,0.16895 -0.4585,-0.0396 -0.29507,-3.36982 0.15771,-3.21342 0.74963,-7.55423 1.49913,-10.99261 0.37886,-1.73803 1.56412,-5.92511 1.86294,-6.58151 0.13249,-0.29104 0.49555,-1.22714 0.80718,-2.08101 1.56286,-4.28209 5.20367,-10.64457 8.78448,-15.351 2.01954,-2.65438 7.05902,-7.87605 9.71259,-10.06347 5.52836,-4.55718 11.80745,-8.05787 19.05,-10.62054 2.76086,-0.97694 7.73174,-2.35832 9.3927,-2.61121 0.58208,-0.0886 1.95131,-0.32507 3.04271,-0.52555 1.09141,-0.20048 3.15131,-0.38356 4.5775,-0.40566 1.42619,-0.022 2.73588,-0.087 2.91042,-0.14521 0.17453,-0.0582 0.84989,-0.24315 1.5012,-0.41031 l 1.18442,-0.30386 -3.35173,-1.70532 c -2.69867,-1.37345 -3.61216,-1.99142 -4.68964,-3.17035 -1.04688,-1.14547 -1.33842,-1.65527 -1.33842,-2.34456 0,-0.77694 0.1352,-0.94661 1.14205,-1.43402 2.44363,-1.18294 6.72483,-0.42167 13.25966,2.35851 1.31974,0.5615 3.05418,1.27179 3.85454,1.5782 l 1.45521,0.55759 -2.83962,-2.79983 c -3.82206,-3.76768 -4.15268,-5.07199 -1.50223,-5.92987 0.46897,-0.1518 0.85475,-0.23204 1.32601,-0.24443 z m -45.13626,34.12711 c -1.10219,-0.10232 -2.10544,0.14732 -2.58227,0.78858 -0.41893,0.56339 -0.45991,0.80038 -0.21704,1.25419 0.34994,0.65386 1.4443,1.2673 2.85461,1.59939 1.75867,0.41415 2.94084,0.33286 3.51451,-0.24082 0.74219,-0.74204 0.66539,-1.14854 -0.39326,-2.0779 -0.87309,-0.76659 -2.07435,-1.22112 -3.17655,-1.32344 z m 66.67293,9.10074 v 5.1e-4 c -2.44326,0 -3.65013,0.34769 -4.18165,1.20458 -0.42315,0.68219 -9.3e-4,1.75314 0.8077,2.04846 v -5.2e-4 c 1.0282,0.37576 5.98185,0.37366 6.80734,-0.002 0.76087,-0.34667 1.14717,-1.40329 0.74827,-2.04638 -0.53152,-0.85689 -1.73825,-1.20458 -4.18166,-1.20458 z m -76.59584,6.77374 c -1.00076,0.0397 -2.01224,0.27415 -2.98328,0.72141 -7.63983,3.51884 -8.27778,15.35825 -0.9865,18.30896 4.04934,1.63869 8.97953,-0.78193 11.1771,-5.48752 0.78477,-1.68076 0.84466,-2.00881 0.85266,-4.71703 0.008,-2.66436 -0.0539,-3.03796 -0.73484,-4.42453 -1.41808,-2.88779 -4.32284,-4.52029 -7.32514,-4.40129 z m -1.3286,2.53835 c 3.85937,-0.1539 4.25173,5.16296 0.51677,6.99906 -1.81507,0.89225 -3.17447,0.78808 -4.36925,-0.33435 -1.26575,-1.18925 -1.14047,-3.00538 0.32608,-4.71857 1.1337,-1.32447 2.16178,-1.89174 3.5264,-1.94614 z m 75.54164,5.25498 c -4.1646,0.22089 -7.93308,2.58636 -9.76064,6.44302 -0.71646,1.51179 -0.83231,2.07274 -0.90951,4.38732 -0.0727,2.1783 0.0133,2.95631 0.4806,4.34341 1.28897,3.82653 4.18815,6.37584 8.30957,7.30653 4.12759,0.93211 9.03274,-0.86973 11.53883,-4.2385 3.35727,-4.51332 3.04544,-10.70503 -0.74311,-14.75517 -1.40204,-1.49888 -2.85193,-2.41928 -4.6762,-2.9683 -1.41924,-0.42712 -2.85129,-0.59194 -4.23954,-0.51831 z m -2.59622,2.82101 c 0.68284,-0.0725 1.33276,0.017 1.88309,0.30334 3.23704,1.68423 2.633,6.1559 -1.06919,7.9127 -2.03146,0.96406 -4.37491,0.68755 -5.47718,-0.64596 -0.6602,-0.79857 -0.93269,-2.52004 -0.55552,-3.50934 0.82737,-2.17015 3.1703,-3.84322 5.2188,-4.06074 z m -43.78182,4.01475 c 2.55843,-0.003 5.18711,0.16606 6.82439,0.50694 3.4551,0.71938 6.19846,1.65664 8.83822,3.01997 3.11481,1.60875 6.72852,5.09687 8.01346,7.73545 0.87237,1.7914 2.00546,5.01981 2.32182,6.61458 0.35909,1.81015 1.28409,4.10885 1.86294,4.63021 0.32314,0.29105 1.09919,0.94315 1.72444,1.44901 2.97886,2.40992 3.83367,3.98433 3.82147,7.03729 -0.008,1.96105 -0.0809,2.24805 -0.88831,3.50625 -2.00719,3.12794 -5.77252,5.41714 -10.74509,6.53242 -2.94222,0.65993 -6.69578,0.81579 -10.05416,0.41754 l -1.32292,-0.15709 1.98438,-0.49351 c 2.16293,-0.53826 3.43958,-1.09418 3.43958,-1.49759 0,-0.21338 -2.21926,-0.4203 -3.00343,-0.28008 -0.12389,0.0222 -1.13593,-0.0794 -2.24896,-0.22531 -1.11304,-0.14594 -2.8571,-0.33677 -3.87574,-0.42427 -1.01851,-0.0875 -2.54134,-0.33374 -3.38377,-0.54725 -0.84243,-0.21351 -2.03306,-0.49129 -2.64583,-0.61753 -1.75576,-0.36168 -6.35133,-1.59488 -6.93498,-1.86087 -0.29104,-0.13264 -2.43416,-0.66999 -4.7625,-1.19424 -2.32833,-0.52425 -4.59642,-1.06827 -5.04,-1.20872 -1.66378,-0.52665 -9.10879,-1.47807 -12.03286,-1.53737 -5.68446,-0.11537 -9.93525,-0.60809 -15.17995,-1.75958 -1.955,-0.42921 -2.41082,-0.35387 -1.59473,0.26355 0.62999,0.4767 0.0655,0.53262 -0.73071,0.0718 -1.95177,-1.12852 -4.04019,-3.36456 -4.55579,-4.87774 -0.91292,-2.67928 -0.2252,-5.99877 1.63349,-7.88427 1.7577,-1.78305 5.21218,-2.98373 10.26345,-3.56723 4.01022,-0.46322 4.35468,-0.50068 6.20273,-0.67024 0.94589,-0.0868 1.98874,-0.21429 2.31768,-0.28319 0.32895,-0.0689 1.16238,-0.18843 1.85209,-0.26613 1.87734,-0.21159 6.31096,-1.1282 8.31164,-1.71824 l 1.76578,-0.5209 1.18442,-2.04535 c 2.40754,-4.1583 5.42887,-6.41064 10.23297,-7.62796 1.35764,-0.34399 3.84622,-0.51771 6.40478,-0.52038 z m -6.20944,5.86941 c -0.96142,0.017 -2.17346,0.87221 -3.32486,2.46186 -1.0233,1.41262 -1.06099,2.18908 -0.14212,2.91197 0.82734,0.65078 0.69925,0.63727 1.75855,0.18397 1.74342,-0.74596 3.65759,-3.62238 3.10162,-4.66122 -0.32932,-0.61535 -0.81634,-0.90679 -1.39319,-0.89658 z m 14.91175,3.11247 c -0.25335,-0.005 -0.50161,0.10009 -0.94516,0.31057 -0.571,0.27096 -1.0018,0.69796 -1.1002,1.08986 -0.37467,1.49336 0.62179,4.17736 1.77871,4.78989 0.35067,0.18562 0.98212,0.2744 1.40301,0.1974 1.52734,-0.27952 2.03883,-1.89337 1.30328,-4.11189 -0.40011,-1.20691 -0.64618,-1.53119 -1.46347,-1.93063 -0.46415,-0.22683 -0.72282,-0.34064 -0.97617,-0.3452 z m -34.72295,26.20253 c 4.88294,0.10177 9.99039,0.94587 16.67289,2.69234 8.23724,2.15302 11.4741,2.91505 13.48961,3.17604 1.26358,0.16363 1.45582,0.27343 1.76114,1.00562 0.39309,0.94264 1.97972,8.54456 1.97972,9.48521 0,0.87336 -1.366,2.08624 -3.60805,3.20394 -4.42831,2.20764 -10.92079,3.864 -18.74924,4.78317 -8.55759,1.00477 -20.28868,0.4062 -28.12903,-1.43557 -5.03713,-1.18325 -10.04248,-3.66533 -10.74043,-5.32526 -0.29037,-0.69058 -0.27243,-1.21846 0.11472,-3.36982 0.2525,-1.40312 0.73113,-3.55905 1.06402,-4.79092 0.52443,-1.94067 0.76745,-2.4005 1.81797,-3.44268 2.88736,-2.86482 10.51742,-5.15457 19.46858,-5.84254 1.62783,-0.12511 3.23046,-0.17345 4.8581,-0.13953 z m 6.29058,2.44016 c -2.01807,-0.0202 -4.21408,0.0219 -6.65076,0.12093 -10.96226,0.44543 -20.30677,3.06248 -20.30677,5.68699 0,1.38997 1.99897,2.70105 5.35781,3.51451 2.26053,0.54746 6.93029,1.26751 9.39271,1.44798 0.72761,0.0534 4.7162,0.0636 8.86354,0.0232 7.88814,-0.0768 11.90228,-0.47808 17.16794,-1.71617 3.97925,-0.93571 6.11539,-2.24166 6.11539,-3.73879 0,-1.31063 -1.50851,-2.33642 -4.89479,-3.32797 -4.53874,-1.32905 -8.99102,-1.95028 -15.04507,-2.01073 z m -1.87844,1.17823 c 6.53154,0.0229 12.82238,0.73699 16.68735,2.13423 2.17098,0.78484 3.27887,1.5279 3.27887,2.19987 0,1.38733 -5.97985,3.07063 -14.15314,3.98373 -3.78251,0.42263 -13.61358,0.46994 -17.96686,0.0863 -6.84817,-0.60349 -11.5588,-2.37535 -10.89753,-4.09845 0.1772,-0.46178 2.85174,-1.70932 4.91753,-2.29392 4.82951,-1.36669 11.60211,-2.03471 18.13378,-2.01176 z m -34.52244,14.79496 c 0.0814,-9.9e-4 0.73636,0.56461 1.4552,1.25729 1.32427,1.27568 4.54484,3.11524 6.74481,3.85196 4.30474,1.44155 8.31118,2.26167 14.53865,2.97708 6.76799,0.77751 19.39125,0.26447 26.26248,-1.06764 7.51812,-1.45752 13.67457,-3.81678 15.98249,-6.12469 1.01418,-1.01418 1.14322,-1.0723 1.49138,-0.67231 1.20657,1.38623 1.76147,4.69564 1.11414,6.64456 -1.50258,4.52371 -11.06656,8.58421 -24.07346,10.22056 -3.0149,0.37926 -16.12693,0.71875 -18.52807,0.47956 -9.15028,-0.91153 -15.01744,-2.27309 -19.88406,-4.61419 -2.95063,-1.41942 -5.52505,-3.53231 -6.30401,-5.17385 -0.45991,-0.96905 -0.592,-3.83168 -0.24598,-5.32629 0.17289,-0.74667 1.17684,-2.44904 1.44643,-2.45204 z m 62.4799,15.36185 c 0.25352,-0.0607 0.41194,-0.0526 0.44184,0.0315 0.17385,0.48935 -0.8364,6.29992 -1.1343,6.52415 -0.15799,0.11892 -1.06094,0.49176 -2.0066,0.82838 -2.94518,1.04842 -5.14581,2.69063 -6.10918,4.55993 -0.60751,1.17848 -0.63524,1.93878 -0.10801,2.94969 0.37631,0.72154 0.35596,0.80524 -0.43305,1.80144 -1.39081,1.75591 -1.31207,4.08477 0.24392,7.2316 0.72294,1.46193 1.71121,2.8218 3.37808,4.64622 l 1.10226,1.20613 -0.39946,2.23346 c -0.43904,2.45497 -0.37574,2.38032 -2.93367,3.47472 -3.76967,1.61289 -6.8443,2.40925 -12.50569,3.24063 -3.44512,0.50588 -11.32801,0.72277 -14.91176,0.41031 -5.81666,-0.50717 -13.27736,-2.31246 -16.11736,-3.90054 -1.73719,-0.9714 -1.98593,-1.40972 -1.22938,-2.16627 0.78575,-0.78575 1.59135,-2.59834 1.59835,-3.59823 0.003,-0.44217 -0.23072,-1.26791 -0.51986,-1.83503 -0.44881,-0.88031 -0.47285,-1.09205 -0.1633,-1.44539 0.74241,-0.84744 1.48291,-2.6735 1.47691,-3.64422 -0.007,-1.20099 -0.72095,-2.84294 -1.67845,-3.86075 -0.69929,-0.74332 -0.89003,-1.24334 -0.4749,-1.24334 0.36991,0 0.83612,-1.28764 0.83612,-2.30993 0,-2.15354 -2.16626,-4.82883 -4.88291,-6.03012 -1.21751,-0.53851 -1.42322,-0.73879 -1.54047,-1.49862 -0.0744,-0.4823 -0.38621,-2.23084 -0.69246,-3.88555 -0.80531,-4.34912 -0.90307,-4.12718 1.36115,-3.08715 9.70341,4.45702 27.50664,5.90001 42.66406,3.45767 5.40769,-0.87134 10.62861,-2.28313 13.72423,-3.71089 0.41174,-0.18992 0.76038,-0.31911 1.01389,-0.37982 z m -61.71148,7.17786 c 0.20011,-0.0137 0.27441,0.26928 0.27441,0.84542 0,0.72729 -0.12048,0.92775 -0.63666,1.0573 -0.35028,0.0879 -0.82653,0.23253 -1.05833,0.32143 -0.64236,0.2465 -0.50722,-0.19991 0.39119,-1.28984 0.50321,-0.61051 0.82929,-0.92065 1.02939,-0.93431 z m -1.9482,3.40341 c 0.38817,-0.0171 0.87395,0.007 1.50689,0.0465 2.68269,0.16737 4.58978,0.93086 5.87302,2.35127 1.59346,1.76376 1.15825,2.47153 -2.1146,3.4401 -1.93558,0.57294 -3.83645,1.4987 -3.83645,1.86811 0,0.11876 0.81471,0.21549 1.81022,0.21549 4.20556,0 7.3386,2.21191 6.38721,4.50877 -0.61255,1.47883 -3.29372,3.30313 -6.21306,4.22713 -0.58209,0.18423 -1.23693,0.39619 -1.45521,0.47129 -0.65087,0.22385 1.00642,0.51709 3.11713,0.55139 2.35722,0.0383 3.76204,0.55377 3.76204,1.38131 0,0.80374 -1.78433,2.43497 -3.0918,2.8267 -2.42318,0.726 -4.73423,0.1171 -6.65489,-1.7539 -2.45339,-2.38995 -3.38369,-5.51916 -3.1409,-10.5668 0.15749,-3.27422 0.63233,-5.23371 1.84537,-7.61555 0.75371,-1.48006 1.04053,-1.90066 2.20503,-1.95182 z m 57.48125,27.64689 c 0.0512,0.0463 -0.16405,1.72893 -0.47801,3.73931 -0.31396,2.01023 -0.7516,4.84569 -0.97255,6.3009 -0.22095,1.45521 -0.56519,3.7174 -0.76533,5.02709 -0.20014,1.30954 -0.44063,2.89151 -0.53433,3.51503 -0.24571,1.63427 -1.18543,2.56638 -3.92276,3.89072 -2.92301,1.41404 -5.99691,2.32606 -9.69966,2.87837 -9.25027,1.37972 -19.28637,-0.17233 -24.00371,-3.71243 -1.52118,-1.14161 -1.47605,-0.96966 -4.15168,-15.95303 -0.50562,-2.8315 -0.86372,-5.20362 -0.79582,-5.27152 0.0679,-0.0679 1.42322,0.31591 3.01222,0.85318 5.13381,1.73587 9.61771,2.47004 16.68632,2.73213 8.30856,0.30805 17.99002,-1.05775 23.68021,-3.34088 1.01865,-0.40873 1.8939,-0.70517 1.9451,-0.65887 z m 103.93112,2.54868 c 0.97737,0.0804 0.92575,0.11749 -1.36581,0.99064 -1.30955,0.49903 -3.18197,1.30271 -4.16046,1.78594 -1.82859,0.9028 -2.6872,1.05967 -3.38016,0.61701 -0.21828,-0.13943 -1.04358,-0.38878 -1.834,-0.55397 -1.70967,-0.35732 -1.56791,-0.47834 1.65313,-1.4118 2.65659,-0.76985 7.61503,-1.54889 9.0873,-1.42782 z m 4.56613,0.21549 c 0.94944,0 4.35955,0.96612 5.53817,1.5689 3.12622,1.59889 6.36462,6.3998 5.38003,7.97625 -0.42912,0.68706 -0.39357,0.9047 0.0832,0.50902 0.34628,-0.28738 0.39687,-0.096 0.39687,1.49965 0,1.00589 -0.17923,2.51741 -0.39842,3.35897 -0.2192,0.84156 -0.56069,1.83931 -0.75861,2.21691 l -0.35967,0.68678 -0.43822,-0.66869 c -0.24438,-0.37305 -0.36601,-0.88987 -0.27491,-1.16892 0.12268,-0.37607 0.0987,-0.40982 -0.0966,-0.13591 -0.20556,0.2883 -0.47187,0.12928 -1.27589,-0.76068 -1.05823,-1.17119 -4.16319,-3.64976 -6.78615,-5.41672 l -1.52497,-1.02733 2.84789,-1.09657 c 3.69175,-1.42204 4.67785,-1.90269 5.27151,-2.57039 0.48414,-0.54451 0.48108,-0.54687 -0.44132,-0.37827 -0.5104,0.0933 -2.76055,0.82432 -5.00073,1.62471 -2.24005,0.8004 -4.21048,1.45521 -4.37802,1.45521 -0.16753,0 -1.31015,-0.48972 -2.53938,-1.08831 -1.22923,-0.59859 -2.9439,-1.35809 -3.81062,-1.68775 l -1.57613,-0.59945 1.44384,-0.73277 c 2.84916,-1.44637 8.01817,-3.56464 8.69817,-3.56464 z m -18.99212,3.84421 c 0.16759,-0.16759 2.7986,0.33839 3.37189,0.64854 0.24749,0.13389 -0.32901,0.55219 -1.78181,1.29243 -2.26097,1.15209 -2.42733,1.21367 -2.40863,0.89555 0.0257,-0.43631 0.67761,-2.69558 0.81855,-2.83652 z m 6.26318,1.44746 c 0.74353,0 7.72326,3.0882 7.72253,3.41684 -1.9e-4,0.0853 -1.10152,0.593 -2.4474,1.1281 -1.34574,0.53511 -3.97156,1.5769 -5.83478,2.3151 -1.86322,0.7382 -3.58963,1.3318 -3.83646,1.3193 -0.24683,-0.0125 -1.1927,-0.51016 -2.1022,-1.10587 -1.80151,-1.17995 -2.07312,-1.85854 -1.22731,-3.06596 0.37442,-0.53456 7.06937,-4.00751 7.72562,-4.00751 z m 9.85057,4.49791 c 0.52824,5e-5 4.16608,2.35711 5.50612,3.56775 0.60131,0.54311 1.01642,1.11236 0.92242,1.26452 -0.094,0.15212 -0.0454,0.19918 0.10801,0.10438 0.31511,-0.19475 3.89855,3.30507 4.43228,4.32894 0.42688,0.81866 0.35662,0.92339 -2.11046,3.15123 -2.31332,2.08899 -3.89124,3.09769 -6.78098,4.33513 -1.2526,0.53636 -2.40874,0.97514 -2.56884,0.97514 -0.30781,0 -1.46628,-1.86206 -1.74769,-2.80913 -0.0916,-0.30823 -0.40153,-0.77313 -0.68885,-1.03301 -0.28733,-0.26003 -0.52245,-0.56045 -0.52245,-0.66715 0,-0.10669 -0.50602,-0.71862 -1.12448,-1.36012 -0.61847,-0.64151 -1.43427,-1.5179 -1.81281,-1.94769 -0.37854,-0.42979 -0.96056,-0.96046 -1.29346,-1.17874 -0.65543,-0.42975 -2.5104,-1.89678 -3.93723,-3.11402 l -0.89245,-0.76119 3.93516,-1.54048 c 2.16414,-0.84722 4.89201,-1.94027 6.06216,-2.42827 1.17016,-0.488 2.30125,-0.88731 2.51355,-0.88729 z m -18.99419,3.53416 c 0.1249,-0.0297 0.30662,0.0847 0.66507,0.31522 1.85918,1.1954 1.81639,1.10098 0.70642,1.56476 -0.55574,0.2322 -1.30236,0.49538 -1.65933,0.58498 -0.5914,0.14843 -0.63382,0.10194 -0.47646,-0.52503 0.095,-0.37844 0.29268,-1.00355 0.43925,-1.38906 0.13202,-0.34723 0.20015,-0.52114 0.32505,-0.55087 z m 3.98218,2.55126 c 0.59619,0 3.74808,2.31519 5.1971,3.81734 0.87901,0.91126 0.89986,1.34912 0.0258,0.55862 -0.37806,-0.34208 -0.42737,-0.33225 -0.42737,0.0863 0,0.35559 0.18972,0.46208 0.7643,0.42788 0.51914,-0.0309 0.9732,0.17487 1.4149,0.64131 0.95867,1.01236 4.41719,5.33528 4.9351,6.16861 l 0.44752,0.72037 -1.3901,0.39894 c -0.76457,0.2195 -2.58072,0.58162 -4.03593,0.80512 -2.53517,0.38935 -11.69435,0.73338 -13.62604,0.5116 -3.28252,-0.37687 -5.71778,-0.71858 -5.89938,-0.82734 -0.19221,-0.11511 0.93037,-1.64757 2.35386,-3.21324 0.78918,-0.86802 2.9878,-4.6138 3.48919,-5.94434 0.22969,-0.60952 0.53659,-1.26577 0.68213,-1.45831 0.55151,-0.72959 4.97603,-2.69286 6.06888,-2.69286 z m -6.74584,5.94641 c -0.0815,-0.0815 -0.22926,0.0651 -0.32866,0.32608 -0.14358,0.37709 -0.113,0.40767 0.14831,0.14831 0.18082,-0.17948 0.26185,-0.39289 0.18035,-0.47439 z m -124.05289,11.12852 c 0.13746,-0.085 0.82207,0.19666 1.52135,0.6258 0.69928,0.42914 1.59867,0.86158 1.99885,0.96118 0.7118,0.1771 0.7276,0.22362 0.7276,2.13682 v 1.95544 l -0.8599,-0.006 c -1.20314,-0.008 -2.55853,-0.7404 -3.14192,-1.69706 -0.5302,-0.86947 -0.70479,-3.69242 -0.24598,-3.97598 z m 8.81186,3.56309 c 0.1819,1e-4 2.47386,0.53491 5.09323,1.18856 2.61938,0.65365 5.06016,1.19124 5.42396,1.19424 1.02534,0.009 1.86284,0.296 1.68775,0.57929 -0.21864,0.35377 -2.22795,1.20945 -4.59817,1.95854 -3.81483,1.20568 -6.3773,0.6959 -7.47396,-1.48673 -0.54412,-1.08301 -0.6351,-3.4342 -0.13281,-3.4339 z m 89.6984,5.09839 c 0.14247,0.0736 -0.0137,0.35227 -0.30592,0.92036 -0.62861,1.22219 -1.67857,2.22721 -3.08198,2.95021 -1.2514,0.64463 -3.26532,0.95366 -3.81321,0.58498 -0.46347,-0.31186 -0.41231,-2.42634 0.0667,-2.73059 0.5033,-0.32005 1.71514,-0.24099 1.86138,0.12144 0.0813,0.20149 0.1413,0.15392 0.154,-0.12195 0.014,-0.30417 0.39033,-0.54789 1.14566,-0.74208 0.61846,-0.15899 1.73822,-0.46086 2.48822,-0.67127 0.90183,-0.25301 1.34272,-0.38473 1.48518,-0.3111 z m -11.37346,2.22623 -0.19069,1.03404 c -0.30482,1.65401 -1.22729,3.0959 -2.32389,3.63182 -2.75594,1.34685 -6.7023,0.38228 -10.12755,-2.4753 -2.28559,-1.90691 -2.41271,-1.84233 3.62459,-1.84433 2.95403,-0.001 6.19162,-0.0795 7.19439,-0.17415 z" /></g></svg>
