<?xml version="1.0" encoding="UTF-8" standalone="no"?>
<!-- Created with Inkscape (http://www.inkscape.org/) -->

<svg
   width="224.48476mm"
   height="197.22144mm"
   viewBox="0 0 224.48477 197.22137"
   version="1.1"
   id="svg5"
   xml:space="preserve"
   xmlns="http://www.w3.org/2000/svg"
   xmlns:svg="http://www.w3.org/2000/svg"><defs
     id="defs2" /><g
     id="layer1"
     transform="translate(19.737211,-34.595876)"><path
       style="fill:#000000;stroke-width:0.264583"
       d="m 17.039879,231.55843 c -2.31011,-0.43485 -5.55625,-1.38262 -5.55625,-1.62224 0,-0.13342 -0.11882,-0.16916 -0.26404,-0.0794 -0.14522,0.0898 -0.59171,-0.008 -0.99219,-0.21696 -0.4004801,-0.20909 -1.5318201,-0.76312 -2.5140801,-1.23119 -0.98227,-0.46807 -1.78594,-0.95872 -1.78594,-1.09033 0,-0.13162 -0.18233,-0.2393 -0.40518,-0.2393 -0.22285,0 -0.47371,-0.1786 -0.55747,-0.39688 -0.0838,-0.21828 -0.26365,-0.39687 -0.39974,-0.39687 -0.13609,0 -0.39125,-0.12036 -0.56701,-0.26747 -0.17575,-0.1471 -0.64811,-0.51382 -1.04968,-0.81493 -0.40157,-0.30111 -0.66061,-0.65996 -0.57565,-0.79743 0.085,-0.13747 0.0441,-0.21724 -0.0908,-0.17725 -0.21252,0.063 -0.6865,-0.44503 -2.58586995,-2.77157 -0.2079,-0.25466 -0.31964,-0.46302 -0.2483,-0.46302 0.0713,0 -0.10842,-0.23813 -0.39947,-0.52917 -0.29104005,-0.29104 -0.52916005,-0.70776 -0.52916005,-0.92604 0,-0.21828 -0.13891,-0.39687 -0.30868,-0.39687 -0.16978,0 -0.2341,-0.0746 -0.14295,-0.16574 0.0912,-0.0912 -0.2068,-0.8353 -0.66212,-1.65365 -0.45532,-0.81835 -0.82198,-1.54744 -0.81479,-1.6202 0.007,-0.0728 -0.10295,-0.42994 -0.24475,-0.79375 -0.14179,-0.3638 -0.27635,-1.0957 -0.29903,-1.62644 -0.0227,-0.53074 -0.11933,-0.91758 -0.2148,-0.85965 -0.47772,0.28992 -0.55286,-5.86631 -0.54759,-44.86546 0.005,-36.88917 0.0598,-42.77688 0.43516,-46.70782 0.45396,-4.75461 0.7851,-7.13386 1.1848,-8.51289 0.13391,-0.46199 0.18442,-0.89903 0.11224,-0.97121 -0.11158,-0.11158 0.0968,-1.46345 0.58058,-3.76603 0.0886,-0.42192 -0.12961,-0.68793 -0.93646,-1.14141 -0.57861,-0.3252 -1.05203,-0.70272 -1.05203,-0.83893 0,-0.13621 -0.23812,-0.24765 -0.52917,-0.24765 -0.29104,0 -0.52916,-0.11906 -0.52916,-0.26458 0,-0.14553 -0.14883,-0.26473 -0.33073,-0.26491 -0.1819,-1.8e-4 -0.67667,-0.29783 -1.09949,-0.66146 -0.42281,-0.36362 -0.84213,-0.66113 -0.9318,-0.66113 -0.0897,0 -0.72601,-0.51685 -1.41406,-1.14855 -0.68805,-0.6317 -1.2509999,-1.08316 -1.2509999,-1.00324 0,0.0799 -0.53579,-0.38053 -1.19063,-1.02321 -0.65484,-0.642693 -1.19062,-1.319573 -1.19062,-1.504203 0,-0.18463 -0.29766,-0.53072 -0.66146,-0.76909 -0.36381,-0.23838 -0.66146,-0.59831 -0.66146,-0.79985 0,-0.20155 -0.11906,-0.36645 -0.26458,-0.36645 -0.14553,0 -0.26459,-0.16867 -0.26459,-0.37483 0,-0.20615 -0.0987,-0.41451 -0.21923,-0.46302 -0.30676,-0.1234 -2.1882,-3.39457 -1.95527,-3.39953 0.10457,-0.002 0.0264,-0.10776 -0.17368,-0.2345 -0.2001,-0.12675 -0.39576,-0.5215 -0.43481,-0.87723 -0.0391,-0.35573 -0.33943,-1.17294 -0.6675,-1.81602 -0.32808,-0.64309 -0.58215,-1.19776 -0.56462,-1.23261 0.0175,-0.0349 -0.0193,-0.21345 -0.0818,-0.39688 -0.43854,-1.286526 -0.93018,-4.768763 -0.93018,-6.588284 0,-2.600068 0.50843,-6.842093 0.82006,-6.842093 0.12192,0 0.15765,-0.166806 0.0794,-0.370681 -0.0782,-0.203875 0.17067,-1.245672 0.55313,-2.315104 0.38245,-1.069433 0.72536,-2.063485 0.76202,-2.209006 0.228,-0.905052 0.53897,-1.639208 0.84052,-1.984375 0.1907,-0.218281 0.35857,-0.456406 0.37305,-0.529167 0.16378,-0.822997 0.37971,-1.322916 0.57141,-1.322916 0.12854,0 0.23372,-0.241861 0.23372,-0.53747 0,-0.295611 0.1786,-0.606004 0.39688,-0.689766 0.21828,-0.08376 0.39687,-0.355232 0.39687,-0.603266 0,-0.248031 0.23813,-0.706564 0.52917,-1.018963 0.29104,-0.312396 0.53107,-0.662268 0.53339,-0.777494 0.002,-0.115223 0.35951,-0.612587 0.79375,-1.105249 0.43424,-0.492662 0.78953,-0.975077 0.78953,-1.072033 0,-0.304705 4.0430899,-4.385569 4.2761199,-4.316071 0.12199,0.03638 0.22179,-0.112448 0.22179,-0.33073 0,-0.218281 0.11365,-0.396874 0.25256,-0.396874 0.22992,0 0.74087,-0.42105 2.27029,-1.870819 0.29616,-0.280739 0.68311,-0.510431 0.85989,-0.510431 0.17679,0 0.32143,-0.119063 0.32143,-0.264584 0,-0.145521 0.16867,-0.264583 0.37483,-0.264583 0.20615,0 0.41451,-0.0893 0.46302,-0.198438 0.17387,-0.391226 2.04561005,-1.653645 2.45179005,-1.653645 0.22799,0 0.41452,-0.102518 0.41452,-0.227817 0,-0.125299 0.56555,-0.512252 1.25677995,-0.859896 0.69122,-0.347644 1.29645,-0.721376 1.34496,-0.830516 0.0485,-0.109141 0.3164,-0.198438 0.59531,-0.198438 0.27892,0 0.50712,-0.107415 0.50712,-0.238699 0,-0.238763 1.54386,-0.928899 1.91823,-0.857488 0.10914,0.02082 0.19844,-0.05729 0.19844,-0.173577 0,-0.226367 1.85149,-0.990275 2.18281,-0.900608 0.10914,0.02954 0.19844,-0.06536 0.19844,-0.210878 0,-0.145521 0.27116,-0.264583 0.60258,-0.264583 0.33143,0 0.86742,-0.185491 1.19109,-0.412202 0.3236801,-0.226714 0.7073601,-0.338749 0.8526201,-0.248971 0.14527,0.08978 0.26412,0.03715 0.26412,-0.116961 0,-0.154109 0.0893,-0.261811 0.19844,-0.239337 0.10914,0.02246 0.6411,-0.156117 1.18213,-0.396875 0.54103,-0.240755 1.21861,-0.437737 1.50574,-0.437737 0.28712,0 0.60065,-0.12718 0.69672,-0.28262 0.0961,-0.155443 0.32671,-0.224277 0.51254,-0.152969 0.18583,0.07131 0.44167,0.03453 0.56855,-0.08173 0.32609,-0.298818 2.67795,-1.029573 3.93484,-1.222613 0.58209,-0.0894 1.1774,-0.256519 1.32292,-0.371377 0.25168,-0.198652 1.50171,-0.524857 2.64583,-0.690451 0.29104,-0.04212 0.92952,-0.198398 1.41885,-0.347279 0.48932,-0.148879 0.96557,-0.256254 1.05833,-0.238612 0.0928,0.01765 0.34725,-0.03848 0.56553,-0.124725 0.71526,-0.282596 3.24924,-0.734917 3.38069,-0.603461 0.0707,0.07066 0.32812,0.02162 0.57214,-0.108974 0.24401,-0.130596 0.91297,-0.293264 1.48656,-0.361487 0.5736,-0.06822 1.34056,-0.196099 1.70436,-0.284165 0.3638,-0.08807 1.19724,-0.210016 1.85208,-0.270997 0.65485,-0.06098 1.48828,-0.178229 1.85209,-0.260551 1.81934,-0.411684 14.81969,-1.931069 20.5052,-2.396495 5.44765,-0.445958 8.75455,-0.679035 9.49227,-0.669034 0.45456,0.0062 2.07664,-0.05507 3.60461,-0.136067 7.84029,-0.415613 12.06849,-0.522137 20.76979,-0.523274 5.23875,-7.94e-4 11.310941,0.09752 13.493751,0.21822 5.5255,0.305552 7.71652,0.409125 11.37708,0.537816 1.74625,0.06139 4.18703,0.196866 5.42396,0.301056 1.23693,0.10419 2.66568,0.179369 3.175,0.167066 0.50932,-0.0123 1.09899,0.03989 1.31037,0.115983 0.21138,0.0761 1.28295,0.187777 2.38125,0.248187 2.14979,0.118237 4.27478,0.304919 5.96567,0.524081 0.58208,0.07545 1.71318,0.197398 2.51354,0.271005 1.68288,0.154771 4.31729,0.506616 8.06979,1.077783 1.45521,0.221496 3.18162,0.455075 3.83646,0.519067 0.65484,0.06399 1.66688,0.229407 2.24896,0.367594 1.96278,0.465963 2.64138,0.592992 3.83646,0.718153 1.75776,0.184094 7.65083,1.596501 8.05269,1.930008 0.19079,0.158351 0.51419,0.223713 0.71866,0.145251 0.20447,-0.07846 1.08276,0.101979 1.95176,0.400976 0.86901,0.298995 1.87397,0.606319 2.23325,0.682937 0.35928,0.07662 0.80055,0.261562 0.9806,0.410988 0.18004,0.149426 0.45163,0.194874 0.60353,0.100997 0.1519,-0.09388 0.27617,-0.03186 0.27617,0.137821 0,0.169678 0.1786,0.239975 0.39688,0.15621 0.21828,-0.08376 0.39687,-0.02424 0.39687,0.132292 0,0.156525 0.16696,0.220522 0.37101,0.142219 0.20405,-0.0783 0.44525,-0.06813 0.53598,0.0226 0.0907,0.09074 0.42046,0.203965 0.73271,0.251619 0.31225,0.04765 0.7259,0.217914 0.91923,0.378357 0.19332,0.160441 0.35149,0.214545 0.35149,0.120229 0,-0.09431 0.38695,0.03436 0.8599,0.285943 0.47294,0.251585 1.00872,0.428017 1.19062,0.39207 0.1819,-0.03594 0.33073,0.05893 0.33073,0.210828 0,0.1519 0.14977,0.276183 0.33283,0.276183 0.18306,0 0.88259,0.292658 1.55452,0.650349 0.67192,0.357692 1.29605,0.575974 1.38695,0.485071 0.0909,-0.09091 0.16528,-0.01934 0.16528,0.159014 0,0.178364 0.10315,0.260546 0.22922,0.182629 0.12608,-0.07792 0.44599,0.09785 0.71092,0.390591 0.26492,0.292743 0.63458,0.473586 0.82145,0.401878 0.18687,-0.07171 0.50763,0.03748 0.7128,0.242652 0.20517,0.205169 0.44674,0.299329 0.53682,0.209243 0.0901,-0.09008 0.16379,-0.03877 0.16379,0.114033 0,0.152802 0.23813,0.340093 0.52917,0.416203 0.29104,0.07611 0.52917,0.316973 0.52917,0.535255 0,0.266612 0.17368,0.351456 0.52916,0.258495 0.29586,-0.07737 0.52917,-0.0081 0.52917,0.157062 0,0.162494 0.17268,0.295442 0.38373,0.295442 0.21105,0 0.47894,0.168978 0.59531,0.375507 0.11637,0.206531 0.38026,0.41489 0.58641,0.463021 0.58364,0.136265 1.48336,1.103653 1.39288,1.49765 -0.0604,0.263038 0.0369,0.288493 0.37641,0.09848 0.47934,-0.268253 0.63028,-0.192145 1.86185,0.938774 0.35656,0.327422 0.73543,0.595312 0.84193,0.595312 0.1065,0 0.50062,0.327422 0.87581,0.727604 0.3752,0.400183 1.10916,1.077611 1.63102,1.505398 0.52186,0.427783 0.89758,0.860731 0.83493,0.962106 -0.0626,0.101373 0.12,0.245486 0.4059,0.32025 0.28591,0.07476 0.67152,0.475255 0.85692,0.889976 0.18541,0.414724 0.66485,1.032785 1.06542,1.37347 0.40057,0.340686 0.66513,0.721667 0.5879,0.846622 -0.0772,0.124955 0.0962,0.353835 0.38545,0.508622 0.28922,0.154786 0.73369,0.726307 0.9877,1.270045 0.25401,0.54374 0.98528,1.743188 1.62503,2.665444 0.63976,0.922255 1.18424,1.815224 1.20996,1.984375 0.0257,0.16915 0.15685,0.484047 0.29139,0.69977 0.13454,0.215722 0.26093,0.613616 0.28087,0.884205 0.0199,0.27059 0.18457,0.583653 0.36585,0.69569 0.18128,0.112041 0.31944,0.279697 0.30701,0.372565 -0.0124,0.09287 -0.0138,0.198623 -0.003,0.235003 0.0108,0.03638 0.0671,0.317805 0.12513,0.625391 0.058,0.307583 0.24698,0.902896 0.41994,1.322916 0.17296,0.420018 0.29107,0.865503 0.26246,0.98996 -0.0286,0.124457 0.0556,0.362582 0.18703,0.529167 0.13146,0.166584 0.24653,0.682384 0.2557,1.146225 0.009,0.463838 0.16056,1.11221 0.33643,1.440828 0.6697,1.251352 0.35341,9.463926 -0.44699,11.606454 -0.0815,0.21828 -0.20444,0.69199 -0.27309,1.05269 -0.0686,0.36071 -0.24289,0.7288 -0.38721,0.818 -0.14433,0.0892 -0.23722,0.27032 -0.20644,0.40251 0.10119,0.43448 -0.88134,2.75388 -1.16657,2.75388 -0.11859,0 -0.14796,0.10946 -0.0653,0.24325 0.0827,0.13379 -0.0336,0.4272 -0.25842,0.65201 -0.22482,0.22482 -0.40209,0.47379 -0.39395,0.55327 0.0339,0.33118 -0.82357,1.72648 -1.06104,1.72648 -0.14178,0 -0.25779,0.17268 -0.25779,0.38373 0,0.21105 -0.17013,0.47894 -0.37808,0.59531 -0.20794,0.11637 -0.36221,0.27112 -0.34283,0.34388 0.11603,0.43542 -5.23664,5.820833 -5.78544,5.820833 -0.19327,0 -0.65387,0.32621 -1.02356,0.7249 -0.36969,0.3987 -0.67217,0.61033 -0.67217,0.4703 0,-0.14003 -0.18185,0.005 -0.40411,0.32235 -0.23363,0.33355 -0.5685,0.51387 -0.79375,0.42744 -0.2143,-0.0822 -0.38964,-0.0201 -0.38964,0.13799 0,0.15814 -0.48508,0.53499 -1.07796,0.83745 -0.82762,0.42222 -1.0119,0.62953 -0.7935,0.89268 0.15644,0.18851 0.27531,0.62806 0.26415,0.97679 -0.0112,0.34874 0.10657,1.4675 0.26163,2.48614 0.15505,1.01865 0.39499,3.80231 0.5332,6.18592 0.29864,5.15075 0.24124,95.56633 -0.0614,96.73699 -0.11286,0.43657 -0.28256,1.03188 -0.3771,1.32292 -0.0945,0.29104 -0.19998,0.6889 -0.23433,0.88413 -0.13146,0.74714 -1.79653,4.27525 -2.01768,4.27525 -0.12781,0 -0.1588,0.11906 -0.0689,0.26458 0.0899,0.14552 0.0374,0.26458 -0.11668,0.26458 -0.15411,0 -0.2802,0.17184 -0.2802,0.38188 0,0.21002 -0.26462,0.56721 -0.58804,0.79375 -0.32342,0.22653 -0.47224,0.41583 -0.33073,0.42068 0.14152,0.005 -0.006,0.22818 -0.32675,0.49632 -0.32123,0.26813 -0.53745,0.53412 -0.4805,0.59108 0.057,0.057 -0.53686,0.71328 -1.31961,1.45851 -0.78275,0.74522 -1.47313,1.30499 -1.53418,1.24394 -0.0611,-0.061 -0.31524,0.2007 -0.56486,0.58167 -0.24962,0.38097 -0.5138,0.63273 -0.58706,0.55947 -0.0733,-0.0733 -0.36574,0.0993 -0.64997,0.38357 -0.28422,0.28422 -0.63149,0.44587 -0.7717,0.35921 -0.14021,-0.0867 -0.25493,-0.0597 -0.25493,0.0599 0,0.1196 -0.26789,0.3543 -0.59531,0.52155 -1.22329,0.62485 -2.45589,1.19485 -2.71198,1.25411 -0.14552,0.0337 -0.73679,0.26554 -1.31394,0.51526 -0.57714,0.24972 -1.23199,0.48257 -1.4552,0.51745 -0.22323,0.0349 -0.52758,0.13954 -0.67634,0.23258 -0.14876,0.093 -1.26107,0.35707 -2.47179,0.58674 -1.97487,0.37463 -9.86753,0.41465 -76.723281,0.38903 -40.98707,-0.0157 -75.05773,-0.12941 -75.71257,-0.25268 z m 152.929161,-5.07796 c 2.08606,-0.61202 5.70102,-2.1236 6.26555,-2.6199 0.26473,-0.23273 0.73846,-0.50138 1.05274,-0.59698 0.31428,-0.0956 0.71703,-0.34929 0.895,-0.56373 0.23384,-0.28175 0.41739,-0.31204 0.6618,-0.10919 0.24124,0.20021 0.39462,0.18942 0.53494,-0.0376 0.12025,-0.19457 0.0851,-0.24932 -0.0905,-0.14083 -0.15795,0.0976 -0.34891,0.0776 -0.42435,-0.0445 -0.0754,-0.12207 0.38777,-0.71592 1.02935,-1.31967 0.64158,-0.60375 1.35298,-1.45832 1.58088,-1.89904 0.22791,-0.44072 0.58991,-0.80131 0.80446,-0.80131 0.36264,0 0.514,-0.33274 0.40861,-0.89829 -0.0243,-0.13026 0.24546,-0.84845 0.5994,-1.59598 1.42006,-2.9992 1.36689,-1.08075 1.3606,-49.09948 -0.003,-24.52026 -0.10029,-46.1301 -0.21574,-48.02187 -0.18884,-3.09438 -0.47952,-5.84498 -1.23728,-11.70771 -0.31115,-2.40737 -0.0818,-3.04852 1.30996,-3.66257 0.59122,-0.26085 1.07495,-0.57336 1.07495,-0.69448 0,-0.12112 0.29095,-0.33083 0.64655,-0.46604 0.35561,-0.1352 1.37822,-0.75733 2.27247,-1.38251 1.54883,-1.082813 1.9981,-1.363853 2.90181,-1.815253 0.21828,-0.10903 0.3668,-0.3293 0.33005,-0.48948 -0.0367,-0.16018 0.39392,-0.61774 0.95705,-1.01681 0.56312,-0.39906 1.21273,-1.05299 1.44358,-1.45317 0.23084,-0.40019 0.60384,-0.72761 0.82889,-0.72761 0.22505,0 0.40918,-0.18653 0.40918,-0.41453 0,-0.22799 0.28344,-0.79353 0.62987,-1.25677 0.86982,-1.16311 2.33584,-4.0151 2.88102,-5.60474 1.37537,-4.010331 1.16602,-10.88378 -0.46707,-15.335359 -1.26494,-3.448042 -1.57184,-4.227346 -1.72338,-4.376097 -0.27179,-0.266798 -1.58503,-2.375265 -1.58503,-2.544848 0,-0.09622 -0.17205,-0.307128 -0.38233,-0.468693 -0.21028,-0.161563 -0.41864,-0.466516 -0.46302,-0.677675 -0.0444,-0.211158 -0.75564,-1.089027 -1.58057,-1.950823 -1.01545,-1.060815 -1.46754,-1.734888 -1.39972,-2.087025 0.0753,-0.390991 0.0181,-0.452035 -0.23029,-0.245869 -0.24362,0.202186 -0.76139,-0.121891 -1.97026,-1.233218 -2.68893,-2.471946 -5.52544,-4.54947 -7.80467,-5.716325 -0.54219,-0.277577 -0.9858,-0.612026 -0.9858,-0.74322 0,-0.131194 -0.10507,-0.173598 -0.23349,-0.09423 -0.12841,0.07936 -0.53415,-0.0922 -0.90162,-0.381262 -0.36748,-0.289058 -0.82796,-0.526005 -1.02329,-0.52655 -0.19533,-5.29e-4 -0.77186,-0.261107 -1.28118,-0.57903 -0.50933,-0.317924 -1.16016,-0.618318 -1.44631,-0.667544 -0.28614,-0.04923 -0.76239,-0.244224 -1.05833,-0.433327 -0.29594,-0.189103 -1.78823,-0.728472 -3.3162,-1.198594 -1.52797,-0.470125 -3.25835,-1.026596 -3.8453,-1.236601 -0.58695,-0.210008 -1.20428,-0.381831 -1.37184,-0.381831 -0.16756,0 -0.63983,-0.140713 -1.04949,-0.312695 -0.40965,-0.171985 -0.92342,-0.340506 -1.1417,-0.374491 -0.21828,-0.03399 -2.59953,-0.563637 -5.29167,-1.176997 -2.69213,-0.613359 -5.54963,-1.208746 -6.35,-1.32308 -0.80036,-0.114335 -3.41974,-0.506998 -5.82083,-0.872586 -4.12086,-0.627435 -7.81298,-1.086704 -11.1125,-1.382302 -0.80036,-0.0717 -2.34818,-0.241549 -3.43958,-0.377433 -1.09141,-0.135885 -3.94891,-0.374574 -6.35,-0.530416 -2.4011,-0.155842 -5.2586,-0.394327 -6.35,-0.529963 -4.39785,-0.54655 -20.787351,-0.873794 -33.602081,-0.670925 -16.18272,0.256188 -16.85547,0.286488 -26.59063,1.19756 -1.4552,0.136186 -3.5388,0.319389 -4.6302,0.407119 -3.23917,0.260366 -3.6775,0.3052 -7.40834,0.757727 -1.96453,0.238287 -4.04812,0.486159 -4.63021,0.550828 -1.38064,0.15339 -9.10903,1.344541 -10.9802,1.692347 -1.57418,0.2926 -2.49406,0.493408 -6.35,1.386186 -1.38245,0.320085 -2.94199,0.597723 -3.46565,0.616974 -0.52365,0.01926 -1.23802,0.220723 -1.5875,0.447712 -0.34946,0.226991 -0.93305,0.484156 -1.29685,0.571479 -1.94316,0.466413 -3.72297,1.055391 -4.96817,1.644084 -0.76796,0.363066 -1.49724,0.660122 -1.62062,0.660122 -0.26444,0 -4.0840001,1.688002 -5.0819001,2.245876 -0.37976,0.212307 -0.76672,0.309776 -0.85989,0.216595 -0.0932,-0.09318 -0.16984,-0.06027 -0.17035,0.07312 -5.3e-4,0.133395 -0.68512,0.599723 -1.52135,1.036286 -0.83624,0.436562 -1.56036,0.883787 -1.60917,0.993835 -0.0488,0.110049 -0.19764,0.132787 -0.33073,0.05053 -0.13309,-0.08225 -0.24199,-0.01644 -0.24199,0.146259 0,0.162697 -0.11906,0.222228 -0.26458,0.132291 -0.14552,-0.08994 -0.26459,-0.03041 -0.26459,0.132292 0,0.162697 -0.11906,0.222229 -0.26458,0.132292 -0.14552,-0.08994 -0.26457995,-0.0538 -0.26457995,0.0803 0,0.232069 -3.76512005,3.162305 -3.89685005,3.032754 -0.0346,-0.03407 -1.03899,0.977961 -2.23188,2.248959 -2.17307,2.31535 -2.77043,2.771351 -3.26398,2.491591 -0.14552,-0.08248 -0.10573,0.04599 0.0884,0.285491 0.30408,0.375116 0.23074,0.592995 -0.52917,1.572144 -0.48519,0.625173 -1.00587,1.217832 -1.1570599,1.317016 -0.15119,0.09918 -0.6237,0.962387 -1.05002,1.918229 -0.42632,0.955842 -0.862,1.737892 -0.96819,1.737892 -0.10618,0 -0.3935,0.714375 -0.63849,1.5875 -0.24499,0.873125 -0.52347,1.5875 -0.61884,1.5875 -0.0954,0 -0.19384,0.208359 -0.2188,0.46302 -0.025,0.254662 -0.23926,1.296459 -0.47623,2.315105 -0.56878,2.444966 -0.84121,9.504153 -0.38787,10.050393 0.1798,0.216651 0.25779,0.574019 0.17332,0.794155 -0.0845,0.220133 -0.0383,0.400243 0.10269,0.400243 0.14096,0 0.25628,0.224514 0.25628,0.498922 0,0.274407 0.17786,0.839951 0.39525,1.256771 0.21738,0.41681 0.39598,0.9662 0.39687,1.22086 8e-4,0.25467 0.19067,0.67139 0.42171,0.92605 0.23104,0.25466 0.97994,1.35599 1.66423,2.44739 1.1343099,1.80918 5.2998299,6.35 5.8251599,6.35 0.12092,0 0.645,0.32742 1.16463,0.727613 1.0501,0.80871 2.54468,1.7127 5.41184,3.27332 2.22993,1.21378 2.20775,1.13567 1.38073,4.86261 -0.63017,2.83986 -0.6581,2.99329 -0.91487,5.02709 -0.11023,0.87312 -0.29755,1.71002 -0.41625,1.85977 -0.1187,0.14975 -0.29161,1.67923 -0.38425,3.39885 -0.0926,1.71962 -0.32472995,4.57366 -0.51574995,6.34231 -0.26789,2.48033 -0.35834,12.01959 -0.39553,41.71261 -0.0265,21.17328 -0.0721,39.18065 -0.10121,40.01638 -0.0291,0.83573 0.0261,1.5501 0.12267,1.5875 0.0966,0.0374 0.23874,0.78236 0.31582,1.65549 0.0771,0.87312 0.27444,2.03558 0.43859,2.58324 0.16414995,0.54766 0.21447995,1.1316 0.11185995,1.29765 -0.10856995,0.17566 -0.0698,0.22975 0.0926,0.12934 0.16997,-0.10505 0.40892,0.36812 0.61073,1.20933 0.18233,0.76004 0.49864,1.54903 0.70291,1.7533 0.20428,0.20428 0.31111,0.52856 0.23741,0.72063 -0.0737,0.19206 0.079,0.41681 0.33929,0.49943 0.26032,0.0826 0.6412,0.47563 0.8464,0.87336 0.5259,1.01933 3.3961,3.98898 4.05617,4.19671 0.90233,0.28399 2.2822501,1.31943 2.0702,1.5534 -0.10837,0.11957 -0.0572,0.13734 0.1136101,0.0395 0.17085,-0.0978 1.24241,0.22454 2.38125,0.71643 1.13883,0.49189 2.96358,1.02882 4.05498,1.19319 1.09141,0.16436 2.28203,0.3448 2.64584,0.40098 0.3638,0.0562 34.11802,0.0774 75.00937,0.0471 67.534111,-0.05 74.481281,-0.0941 75.803121,-0.48195 z M 74.386619,156.6553 c -0.56164,-0.30418 -1.06105,-0.80594 -1.14835,-1.15376 -0.085,-0.33853 -0.32134,-0.67953 -0.52527,-0.75779 -0.20394,-0.0782 -0.38394,-0.41429 -0.4,-0.74675 -0.0869,-1.79912 -0.0117,-6.25131 0.11526,-6.82217 0.0809,-0.3638 0.2117,-1.1056 0.29062,-1.64843 0.0789,-0.54284 0.27191,-1.55487 0.42886,-2.24896 0.15694,-0.69409 0.32896,-1.5978 0.38226,-2.00825 0.0533,-0.41045 0.24638,-0.92638 0.42907,-1.14651 0.18269,-0.22013 0.35561,-0.83681 0.38427,-1.3704 0.0286,-0.53358 0.0795,-1.02969 0.11294,-1.10245 0.0335,-0.0728 0.0467,-0.22159 0.0295,-0.33073 -0.0172,-0.10914 0.0877,-0.19843 0.23325,-0.19843 0.14553,0 0.26459,-0.2311 0.26459,-0.51355 0,-0.28246 0.10556,-0.5788 0.23459,-0.65854 0.12902,-0.0797 0.3176,-0.58748 0.41906,-1.1283 0.10146,-0.54083 0.42043,-1.18797 0.70883,-1.43809 0.2884,-0.25013 0.51779,-0.52277 0.50977,-0.60588 -0.042,-0.4354 1.31629,-2.99527 1.79994,-3.39212 0.30862,-0.25323 0.56114,-0.6154 0.56114,-0.8048 0,-0.18941 0.53578,-0.87021 1.19063,-1.51289 0.65484,-0.64268 1.19062,-1.09352 1.19062,-1.00188 0,0.0916 0.47625,-0.30488 1.05833,-0.88117 0.58209,-0.5763 1.05834,-0.97762 1.05834,-0.89183 0,0.0858 0.41996,-0.16434 0.93324,-0.55584 0.51328,-0.3915 1.00586,-0.6392 1.09461,-0.55045 0.0888,0.0888 0.48257,-0.0673 0.87515,-0.34688 0.65709,-0.46789 1.03508,-0.59107 2.91783,-0.95082 1.66974,-0.31906 3.91096,-0.34972 4.75904,-0.0651 0.51122,0.17157 1.18479,0.29294 1.4968,0.2697 0.31202,-0.0232 0.71246,0.13266 0.88988,0.34643 0.17741,0.21378 0.41575,0.33109 0.52964,0.26071 0.11389,-0.0704 0.53834,0.0439 0.94324,0.25395 0.40489,0.21006 0.834,0.32147 0.95357,0.24757 0.11958,-0.0739 0.21741,0.0512 0.21741,0.27812 0,0.22687 0.0893,0.39326 0.19844,0.36977 0.491011,-0.10572 1.822261,0.67824 2.782761,1.63875 0.5774,0.57739 1.1676,1.0498 1.31157,1.0498 0.14397,0 0.19557,0.1725 0.11467,0.38333 -0.089,0.23194 0.0566,0.44798 0.36856,0.547 0.28362,0.09 0.51567,0.3056 0.51567,0.47907 0,0.17347 0.22108,0.45347 0.49129,0.62221 0.52436,0.32747 1.74874,2.45912 1.42269,2.4769 -0.1068,0.006 0.13323,0.18823 0.53342,0.40533 0.40018,0.2171 0.7276,0.51129 0.7276,0.65375 0,0.39381 1.12717,2.74357 1.40822,2.93565 0.13589,0.0929 0.17035,0.293 0.0766,0.44473 -0.0938,0.15174 -0.063,0.34233 0.0684,0.42354 0.20514,0.12678 0.51955,1.2819 0.58191,2.13787 0.0106,0.14552 0.18964,0.45284 0.39787,0.68293 0.20823,0.23009 0.31548,0.48147 0.23833,0.55862 -0.0772,0.0771 -0.0315,0.42647 0.10154,0.77628 0.133,0.34981 0.31527,1.16999 0.40505,1.82263 0.32592,2.36918 0.66771,4.24241 0.81863,4.48659 0.24259,0.39253 0.47344,6.5518 0.28351,7.56424 -0.17566,0.93634 -1.38286,2.31751 -1.80018,2.05959 -0.12882,-0.0796 -0.29674,0.0943 -0.37316,0.38658 -0.0764,0.29223 -0.39583,0.60024 -0.7098,0.68446 -0.31397,0.0842 -8.07179,0.1468 -17.239601,0.13904 -16.24662,-0.0138 -16.69392,-0.0277 -17.66263,-0.55237 z m 32.768601,-5.11912 c 0.35535,-1.41586 -0.62892,-9.56791 -1.34158,-11.11135 -0.20237,-0.43828 -0.4086,-1.09313 -0.45828,-1.45521 -0.0497,-0.36208 -0.1629,-0.77739 -0.25159,-0.92291 -0.0887,-0.14552 -0.49198,-1.09802 -0.89619,-2.11667 -0.69119,-1.74183 -1.51226,-3.02743 -2.98566,-4.67485 -0.34733,-0.38836 -0.5528,-0.83348 -0.45658,-0.98916 0.10486,-0.16966 0.0214,-0.22415 -0.20823,-0.13602 -0.21746,0.0834 -0.557541,-0.10192 -0.786391,-0.42864 -0.70526,-1.00691 -3.55377,-2.54701 -5.77041,-3.11989 -1.23457,-0.31907 -5.28453,0.26949 -6.62641,0.96298 -1.13224,0.58515 -3.69817,2.5794 -3.99675,3.10629 -0.11299,0.19939 -0.38223,0.29468 -0.59831,0.21176 -0.27625,-0.10601 -0.34538,-0.027 -0.23288,0.26618 0.088,0.22932 -0.0754,0.74859 -0.36318,1.15394 -0.61237,0.86265 -2.81967,5.4634 -3.08278,6.42554 -0.0995,0.3638 -0.27787,0.89958 -0.39642,1.19062 -0.29443,0.72282 -0.74688,2.88759 -0.95115,4.55075 -0.0929,0.75667 -0.31586,1.49767 -0.49541,1.64668 -0.21443,0.17797 -0.27389,0.65915 -0.17327,1.40237 0.0842,0.6223 0.0242,1.78387 -0.13342,2.58128 -0.24915,1.26045 -0.22699,1.51381 0.16971,1.93961 0.43044,0.46202 0.97148,0.48437 9.54484,0.39421 4.9987,-0.0526 11.41026,-0.0324 14.247911,0.0448 2.83766,0.0772 5.36633,0.0476 5.61927,-0.0657 0.25295,-0.11334 0.53337,-0.49879 0.62316,-0.85654 z M 39.397169,137.65443 c -1.48073,-0.20962 -4.02841,-1.02892 -4.86254,-1.56373 -0.40084,-0.257 -0.18581,-0.82106 0.31409,-0.82392 0.50146,-0.003 1.55939,-1.75512 1.7765,-2.94238 0.26494,-1.44885 -0.10264,-2.64949 -1.11381,-3.6381 -1.5954,-1.5598 -3.47848,-1.70945 -5.63172,-0.44757 -1.01021,0.59202 -1.17958,0.83173 -1.45824,2.0639 -0.58639,2.59288 -0.56678,2.568 -1.09863,1.39408 -0.26371,-0.58208 -0.4826,-0.97472 -0.48642,-0.87253 -0.0109,0.29176 -1.21553,-0.91541 -1.55419,-1.55747 -0.16766,-0.31786 -0.30483,-0.82387 -0.30483,-1.12448 0,-0.30061 -0.10684,-0.54656 -0.23742,-0.54656 -0.35892,0 -0.82141,-3.08273 -0.817,-5.44563 0.006,-3.22868 1.13345,-7.33953 2.08086,-7.58728 0.36234,-0.0948 0.58874,0.2366 1.06061,1.55231 0.46549,1.29795 0.77914,1.76218 1.39973,2.07178 1.36656,0.68173 2.52774,0.77653 3.75773,0.3068 0.97407,-0.372 2.2867,-1.45699 2.27475,-1.88025 -0.0256,-0.9061 0.40568,-1.3796 1.53058,-1.68047 1.46875,-0.39282 3.07685,-1.94518 3.3309,-3.21542 0.46227,-2.31139 0.12359,-3.55783 -1.34717,-4.95778 -0.34398,-0.32742 -0.537,-0.59531 -0.42892,-0.59531 0.10807,0 -0.0346,-0.1697 -0.3171,-0.37711 -0.49619,-0.36433 -0.48905,-0.38648 0.21064,-0.65363 2.25968,-0.86277 7.97915,-0.8084 10.14471,0.0964 0.49776,0.20798 0.90502,0.32153 0.90502,0.25233 0,-0.0692 0.98226,0.38148 2.18281,1.0015 5.13312,2.65097 8.83628,8.16695 9.46624,14.10027 0.23746,2.23653 -0.14493,5.5337 -0.60854,5.24718 -0.14093,-0.0871 -0.18011,0.0639 -0.0901,0.34735 0.0875,0.27577 -0.13784,1.3202 -0.50082,2.32093 -0.36298,1.00073 -0.65996,1.86859 -0.65996,1.92858 0,0.06 -0.11309,0.0392 -0.25131,-0.0463 -0.13822,-0.0854 -0.38053,0.0861 -0.53848,0.38126 -0.15794,0.29512 -0.19865,0.53657 -0.0905,0.53657 0.10819,0 -0.31824,0.52468 -0.94759,1.16595 -0.62936,0.64127 -1.06384,1.29611 -0.96552,1.45521 0.3894,0.63006 -0.17185,0.79375 -0.89313,0.26048 -0.64579,-0.47746 -0.83357,-0.50714 -1.37498,-0.21739 -0.34488,0.18458 -0.62705,0.3032 -0.62705,0.26362 0,-0.16506 -2.13841,0.93454 -2.38125,1.22448 -0.14552,0.17374 -1.03849,0.57649 -1.98438,0.89501 -0.94588,0.31852 -1.83885,0.67119 -1.98437,0.78372 -0.67748,0.52388 -4.7092,0.8307 -6.87917,0.52352 z m 11.63777,-16.55336 c 0.66287,-0.22505 1.32483,-0.33527 1.47101,-0.24492 0.14618,0.0904 0.23636,0.0661 0.20039,-0.0538 -0.036,-0.11995 0.15474,-0.5476 0.42378,-0.95033 0.38874,-0.58188 0.56504,-0.66927 0.85865,-0.4256 0.29573,0.24543 0.33617,0.21985 0.20261,-0.1282 -0.0918,-0.23916 0.0246,-0.91325 0.25853,-1.49799 1.08468,-2.71089 -0.20027,-5.9822 -2.84871,-7.25241 -1.29987,-0.62343 -3.20306,-0.94637 -3.74474,-0.63542 -0.14146,0.0812 -0.59184,0.22772 -1.00084,0.32558 -1.16649,0.27912 -2.93626,2.22751 -3.34306,3.68046 -0.44425,1.58668 -0.22464,3.54975 0.54712,4.89072 0.60335,1.04833 2.0799,2.2142 2.99434,2.36429 0.28221,0.0463 0.56994,0.14106 0.63941,0.21053 0.26965,0.26965 2.19388,0.10676 3.34151,-0.28287 z m 86.438831,16.3749 c -2.9591,-0.49819 -4.5464,-1.09286 -4.5464,-1.70326 0,-0.12366 0.56555,-0.47047 1.25678,-0.77069 4.16126,-1.80736 3.28676,-7.78299 -1.22761,-8.3885 -1.61713,-0.2169 -3.53686,0.79479 -4.23504,2.23185 -0.6562,1.35065 -0.70824,2.63775 -0.15975,3.95048 0.5098,1.22012 0.49957,1.42708 -0.0661,1.33894 -0.90981,-0.14175 -1.18522,-0.45756 -0.80659,-0.92493 0.25755,-0.31791 0.26076,-0.37435 0.0129,-0.22541 -0.1819,0.10929 -0.33072,0.0726 -0.33072,-0.0815 -2e-5,-0.15411 -0.16478,-0.2802 -0.36616,-0.2802 -0.20138,0 -0.63143,-0.65363 -0.95568,-1.45251 -0.32424,-0.79888 -0.67784,-1.39792 -0.78578,-1.33121 -0.24784,0.15317 -0.80281,-1.04045 -0.80281,-1.72664 0,-0.2842 -0.10806,-0.51672 -0.24013,-0.51672 -0.13207,0 -0.44213,-1.1219 -0.68902,-2.49311 -0.37789,-2.09876 -0.40157,-2.84876 -0.14967,-4.74166 0.96583,-7.25773 5.61252,-12.94442 12.32361,-15.08183 4.38342,-1.39606 9.80136,-0.96808 13.72836,1.08446 6.13968,3.20905 10.44087,11.37858 9.43729,17.92485 -0.37699,2.45909 -1.26979,5.25147 -1.89286,5.92026 -0.27665,0.29694 -0.503,0.64572 -0.503,0.77506 0,0.40668 -0.90828,1.26113 -1.32292,1.24451 -0.21828,-0.009 -0.54191,0.16574 -0.71919,0.38776 -0.17727,0.22201 -0.3261,0.31194 -0.33073,0.19984 -0.0128,-0.30899 -2.12508,0.83496 -2.12508,1.15085 0,0.15115 -0.10103,0.21238 -0.22451,0.13606 -0.12348,-0.0763 -0.45489,0.0759 -0.73647,0.3382 -0.28157,0.26233 -0.83538,0.55814 -1.23069,0.65735 -0.39531,0.0992 -0.71874,0.293 -0.71874,0.43063 0,0.43291 -1.00366,0.86116 -3.30729,1.41118 -0.14553,0.0348 -0.38365,0.13539 -0.52917,0.22365 -0.9727,0.58997 -5.11635,0.75677 -7.75673,0.31224 z m 9.20684,-16.62538 c 0.61588,-0.21729 1.25593,-0.31727 1.42233,-0.22216 0.16641,0.0951 0.21429,0.0755 0.10642,-0.0436 -0.28305,-0.31244 0.30687,-0.92666 0.88999,-0.92666 0.27323,0 0.49677,-0.17493 0.49677,-0.38873 0,-0.2138 0.26691,-0.89841 0.59314,-1.52135 0.86603,-1.65375 0.82312,-3.92042 -0.10408,-5.49826 -0.71759,-1.22114 -2.19924,-2.70017 -2.88309,-2.878 -0.21125,-0.0549 -0.84684,-0.22237 -1.41242,-0.37208 -0.74837,-0.19811 -1.49881,-0.17869 -2.75651,0.0713 -1.45945,0.29009 -1.90351,0.51883 -2.85571,1.47103 -0.62014,0.62014 -1.05651,1.19855 -0.9697,1.28535 0.0868,0.0868 0.0344,0.15782 -0.11644,0.15782 -0.15084,0 -0.41911,0.7363 -0.59616,1.63623 -0.30265,1.53832 -0.27815,1.76792 0.40947,3.83726 0.40226,1.21056 0.85905,2.17456 1.01509,2.1422 0.15604,-0.0324 0.61221,0.16028 1.01371,0.42808 1.80028,1.20076 3.84428,1.49295 5.74719,0.82157 z M 35.576439,97.234727 c -0.46438,-0.42967 -0.84951,-1.1068 -0.94056,-1.65364 -0.18898,-1.13493 0.52961,-2.07234 2.31716,-3.02279 1.1731,-0.62374 1.91595,-1.15764 2.88077,-2.07044 0.26917,-0.25466 0.5787,-0.49279 0.68784,-0.52917 0.10914,-0.0364 0.16572,-0.16429 0.12574,-0.28425 -0.04,-0.11996 0.0411,-0.14778 0.18015,-0.0618 0.13907,0.0859 0.33104,0.0298 0.42661,-0.12486 0.14853,-0.24032 0.80595,-0.21204 2.11858,0.0911 0.49636,0.11465 1.47025,1.25486 1.30298,1.52552 -0.0906,0.14659 -0.0303,0.42851 0.13403,0.6265 0.1768,0.21303 0.22307,0.66733 0.11335,1.11289 -0.21387,0.86853 -2.0751,2.85722 -2.45458,2.62269 -0.14031,-0.0867 -0.32182,0.0525 -0.40335,0.30937 -0.14127,0.44509 -1.65431,1.31175 -2.07268,1.18721 -0.10914,-0.0325 -0.19843,0.0409 -0.19843,0.16304 0,0.38108 -1.3006,0.83623 -2.38953,0.83623 -0.76938,0 -1.24728,-0.19022 -1.82808,-0.72761 z m 109.654061,0.53692 c -0.29104,-0.0746 -0.8452,-0.35991 -1.23147,-0.63396 -0.38626,-0.27405 -0.81128,-0.49827 -0.94447,-0.49827 -0.1332,0 -0.50098,-0.29766 -0.81731,-0.66146 -0.31632,-0.3638 -0.74778,-0.66146 -0.95879,-0.66146 -0.21102,0 -0.59084,-0.35071 -0.84405,-0.77936 -0.25321,-0.42865 -0.55162,-0.72297 -0.66314,-0.65405 -0.11152,0.0689 -0.33199,-0.11614 -0.48993,-0.41126 -0.15794,-0.29512 -0.20887,-0.53658 -0.11317,-0.53658 0.0957,0 0.0344,-0.16819 -0.13619,-0.37375 -0.36645,-0.44155 0.10478,-1.75811 0.98491,-2.75175 0.54593,-0.61634 1.99615,-0.98437 2.53948,-0.64447 0.16108,0.10077 0.44956,0.20695 0.64105,0.23595 0.35678,0.054 1.6353,1.40587 1.63588,1.72968 1.8e-4,0.099 0.26821,0.21809 0.59564,0.26459 0.32742,0.0465 0.57146,0.20361 0.5423,0.34913 -0.0619,0.3089 1.5459,1.19857 1.83884,1.01752 0.1092,-0.0675 0.19854,0.0699 0.19854,0.30539 0,0.23546 0.11084,0.35961 0.2463,0.27589 0.48527,-0.29991 0.58999,0.42919 0.13402,0.93303 -0.59725,0.65996 -0.2783,1.00459 0.37912,0.40964 0.42789,-0.38724 0.5193,-0.39553 0.64852,-0.0588 0.21868,0.56988 -0.0454,1.74565 -0.49242,2.19271 -0.2125,0.2125 -0.38637,0.29557 -0.38637,0.1846 0,-0.11097 -0.15884,0.0155 -0.35299,0.28099 -0.35961,0.4918 -1.92651,0.74959 -2.9543,0.48604 z m 0.26458,-1.13223 c 0.0899,-0.14552 0.0445,-0.26458 -0.10106,-0.26458 -0.14552,0 -0.33817,0.11906 -0.4281,0.26458 -0.0899,0.14552 -0.0445,0.26458 0.10106,0.26458 0.14552,0 0.33817,-0.11906 0.4281,-0.26458 z M 29.078419,43.987335 c 0.0899,-0.145521 0.0374,-0.264583 -0.11667,-0.264583 -0.15411,0 -0.2802,0.119062 -0.2802,0.264583 0,0.145521 0.0525,0.264583 0.11667,0.264583 0.0642,0 0.19026,-0.119062 0.2802,-0.264583 z"
       id="path4642" /></g></svg>
