<?xml version="1.0" encoding="UTF-8" standalone="no"?>
<!-- Created with Inkscape (http://www.inkscape.org/) -->

<svg
   width="242.28445mm"
   height="208.17401mm"
   viewBox="0 0 242.2844 208.1739"
   version="1.1"
   id="svg5"
   xml:space="preserve"
   xmlns="http://www.w3.org/2000/svg"
   xmlns:svg="http://www.w3.org/2000/svg"><defs
     id="defs2" /><g
     id="layer1"
     transform="translate(35.538876,26.015615)"><path
       style="fill:#000000;stroke-width:0.264583"
       d="m 99.319792,181.85667 c -4.59695,-0.43993 -7.26186,-0.86901 -13.4613,-2.16743 l -4.63021,-0.96976 -2.77812,0.47025 c -14.40022,2.4375 -32.17361,-0.85599 -49.08021,-9.09479 -4.25851,-2.07523 -4.96898,-2.33926 -6.71367,-2.49503 -6.51364,-0.58154 -16.5103299,-4.23015 -23.37975989,-8.53318 C -9.4043579,153.629 -13.670248,149.84702 -21.231608,140.88501 c -0.32742,-0.38808 -0.59531,-0.75808 -0.59531,-0.82224 0,-0.0641 -0.2909,-0.43054 -0.64645,-0.81418 -1.40195,-1.51273 -5.94197,-8.58597 -5.51626,-8.59419 0.11527,-0.002 0.0725,-0.0915 -0.095,-0.19844 -0.91316,-0.58277 -4.21719,-8.36879 -5.47179,-12.89439 -1.91469,-6.90664 -2.50496,-15.57066 -1.49614,-21.960411 0.13786,-0.87313 0.29495,-2.00422 0.34911,-2.51355 0.19924,-1.87366 1.31145,-6.614579 1.55177,-6.614579 0.13636,0 0.17234,-0.238125 0.08,-0.529166 -0.0924,-0.291042 -0.0662,-0.529167 0.0582,-0.529167 0.12436,0 0.24463,-0.245967 0.26728,-0.546597 0.0538,-0.71492 1.66344,-5.896512 1.88493,-6.067986 0.094,-0.07276 0.21062,-0.370416 0.25919,-0.661458 0.0486,-0.291042 0.43371,-1.213776 0.85587,-2.050521 0.42216,-0.836745 0.70312,-1.521354 0.62434,-1.521354 -0.0788,0 0.0214,-0.327422 0.22266,-0.727604 0.20123,-0.400182 0.56515,-1.124207 0.80871,-1.608942 0.24355,-0.484735 0.44282,-1.04036 0.44282,-1.234723 0,-0.19436 0.12024,-0.393464 0.2672,-0.442452 0.14697,-0.04899 0.3152,-0.338249 0.37385,-0.642803 0.0987,-0.51259 1.43998,-3.245336 1.7402,-3.545559 0.0728,-0.07276 0.37042,-0.606806 0.66146,-1.186767 0.8578,-1.709346 2.82707,-4.97169 3.48832,-5.778847 0.337,-0.411345 0.61272,-0.888812 0.61272,-1.061034 0,-0.172223 0.32742,-0.666753 0.7276,-1.098952 0.40018,-0.432202 0.70305,-0.861854 0.67303,-0.954786 -0.03,-0.09293 0.2974,-0.563211 0.7276,-1.045067 0.4302,-0.481857 0.78218,-0.982766 0.78218,-1.113129 0,-0.310009 2.38633,-3.441647 2.8314,-3.71571 0.18898,-0.116372 0.34623,-0.354497 0.34944,-0.529167 0.003,-0.17467 0.53947,-0.912894 1.19169,-1.640498 0.65222,-0.727604 1.60092,-1.799167 2.10823,-2.38125 2.2355501,-2.565067 4.5058801,-5.034571 4.7073401,-5.120288 0.38804,-0.165108 1.42998,-1.296038 1.59839,-1.734913 0.0899,-0.234161 0.25598,-0.401682 0.36917,-0.372268 0.11319,0.02941 0.9305,-0.65409 1.81623,-1.518899 2.39267001,-2.336141 3.17222001,-3.02759 3.41332001,-3.02759 0.11944,0 0.62552999,-0.477097 1.12465999,-1.060212 0.49912,-0.583118 1.01059,-0.9965 1.13658,-0.91863 0.126,0.07787 0.36377,-0.110078 0.52838,-0.417658 0.16461,-0.307581 0.35131,-0.507225 0.41488,-0.443651 0.0636,0.06357 0.5398,-0.284499 1.05828,-0.773491 0.51848,-0.48899 1.03966,-0.829146 1.15817,-0.755901 0.11851,0.07324 0.27651,-0.02588 0.35111,-0.220269 0.113,-0.294489 1.80382,-1.565264 3.5741299,-2.686229 0.22981,-0.145521 0.65515,-0.472943 0.9452,-0.727604 0.29004,-0.254662 0.68349,-0.463021 0.87433,-0.463021 0.19085,0 0.34699,-0.12609 0.34699,-0.280199 0,-0.154109 0.11906,-0.206613 0.26458,-0.116676 0.14552,0.08994 0.26459,0.05113 0.26459,-0.08625 0,-0.309441 1.31649,-1.192573 1.77778,-1.192573 0.18639,0 0.33888,-0.09616 0.33888,-0.213693 0,-0.209836 1.38845,-1.021501 1.78317,-1.042411 0.11066,-0.0059 0.43933,-0.22453 0.73037,-0.485928 0.29105,-0.261398 0.88636,-0.655098 1.32292,-0.874887 0.43656,-0.21979 1.68672,-0.90324 2.77813,-1.518775 1.0914,-0.615537 2.10343,-1.149146 2.24895,-1.185796 0.59491,-0.149836 1.34622,-0.511297 1.7198,-0.827402 0.21828,-0.184703 0.57546,-0.374965 0.79375,-0.422807 0.21828,-0.04784 0.4564,-0.163203 0.52916,-0.25636 0.18056,-0.231175 5.17264,-2.577947 6.47796,-3.045285 0.5797,-0.207547 1.29408,-0.533027 1.5875,-0.723292 0.29343,-0.190264 1.24643,-0.611375 2.11779,-0.935802 0.87136,-0.324427 1.71414,-0.697635 1.87285,-0.829352 0.15871,-0.131718 0.57687,-0.292537 0.92925,-0.357381 0.35238,-0.06484 0.67046,-0.141626 0.70684,-0.17063 0.0364,-0.029 0.18521,-0.0825 0.33073,-0.11888 0.14552,-0.03638 0.32411,-0.09591 0.39687,-0.132291 0.0728,-0.03638 0.22159,-0.08953 0.33073,-0.1181 0.46321,-0.121274 1.79797,-0.8137971 1.93599,-1.0044581 0.30186,-0.417013 3.01661,-2.007069 3.21616,-1.883738 0.11311,0.06991 0.20566,0.01124 0.20566,-0.130395 0,-0.213426 2.38139,-1.851345 2.76618,-1.902576 0.065,-0.0087 0.49381,-0.366639 0.95293,-0.795526 0.45913,-0.428884 0.94893,-0.77979 1.08846,-0.77979 0.13952,0 0.53815,-0.338069 0.88583,-0.751266 0.34768,-0.413194 1.05356,-1.038273 1.56861,-1.389062 0.51505,-0.350788 0.93728,-0.714502 0.93827,-0.808252 0.004,-0.35193295 1.68213,-1.94259495 1.9605,-1.85801795 0.15965,0.04851 0.20138,-7.94e-4 0.0927,-0.109329 -0.22433,-0.2243371 2.72598,-3.44313075 3.06146,-3.34005705 0.11996,0.036856 0.14773,-0.046855 0.0617,-0.1860233 -0.086,-0.1391708 0.086,-0.4228279 0.38231,-0.6303512 0.29628,-0.2075206 0.88774,-0.9002765 1.31436,-1.5394569 0.42662,-0.6391777 1.65348,-2.0860278 2.72637,-3.2152218 1.07288,-1.1291937 1.91084,-2.0929387 1.86213,-2.1416537 -0.14543,-0.145428 2.77219,-2.816725 3.07646,-2.816725 0.15423,0 0.25155,-0.0893 0.21625,-0.198437 -0.0841,-0.260157 1.40245,-1.91823 1.71982,-1.91823 0.36153,0 1.55484,-0.9883 1.49653,-1.239432 -0.0275,-0.118676 0.20362,-0.345408 0.51371,-0.503849 0.31009,-0.15844 0.78236,-0.485862 1.04948,-0.727604 0.26712,-0.241742 0.56663,-0.439531 0.66557,-0.439531 0.0989,0 0.54592,-0.327422 0.99329,-0.727604 0.44736,-0.400182 1.14508,-0.906198 1.55048,-1.124479 0.40541,-0.218281 1.22898,-0.667187 1.83016,-0.997564 0.60118,-0.33038 1.09305,-0.520287 1.09305,-0.422016 0,0.09827 0.20836,-2.64e-4 0.46302,-0.218987 0.55353,-0.475398 1.24195,-0.749401 2.3151,-0.921446 0.43657,-0.06999 1.05853,-0.297223 1.38213,-0.504968 1.82643,-1.172496 7.2782,-1.7682 12.16575,-1.32933 2.981598,0.267726 7.611978,1.750642 9.034538,2.893377 0.19659,0.157914 0.50869,0.309317 0.69356,0.33645 0.49672,0.0729 1.72715,0.924163 1.72715,1.194913 0,0.128784 0.12409,0.234154 0.27575,0.234154 0.15166,0 0.41955,0.118219 0.59531,0.26271 1.70757,1.403773 2.30394,2.010415 2.30394,2.343613 0,0.215757 0.0752,0.317103 0.16708,0.225208 0.24933,-0.24933 1.19557,0.329711 1.01534,0.621326 -0.0854,0.138221 0.0303,0.25131 0.25717,0.25131 0.22687,0 0.41249,0.135175 0.41249,0.300389 0,0.165214 0.26789,0.575339 0.59531,0.911392 1.65818,1.701881 2.31511,2.431335 2.31511,2.570704 0,0.08448 0.3461,0.532535 0.76911,0.995672 0.42301,0.463138 1.09882,1.452753 1.5018,2.199143 0.40297,0.746392 1.00937,1.5989905 1.34755,1.894665 0.33818,0.2956745 0.61487,0.7458948 0.61487,1.0004901 0,0.2545953 0.17312,0.529336 0.38472,0.6105313 0.21159,0.081198 0.63775,0.6430063 0.94702,1.2484682 0.30926,0.6054592 0.8485,1.5024125 1.19831,1.9932278 0.34981,0.4908153 0.57918,0.9843558 0.50971,1.0967561 -0.0695,0.1123976 0.0591,0.2755291 0.28582,0.3625082 0.22667,0.086982 0.34255,0.2707349 0.2575,0.4083394 -0.085,0.1376045 0.0118,0.3468052 0.21528,0.4648888 0.49583,0.2877793 2.24302,3.831447 2.09525,4.249594 -0.0643,0.181901 0.01,0.33073 0.16438,0.33073 0.15469,0 0.53667,0.500641 0.84883,1.112538 l 0.56758,1.112541 0.82686,-1.046252 c 0.45478,-0.575437 1.12452,-1.318588 1.48832,-1.651445 0.36381,-0.332859 1.05305,-0.987766 1.53166,-1.455353 0.47861,-0.46758495 0.95486,-0.82884495 1.05833,-0.80280195 0.10348,0.02604 0.28335,-0.122785 0.39972,-0.330729 0.11638,-0.207944 0.38427,-0.378082 0.59532,-0.378082 0.21105,0 0.38372,-0.116004 0.38372,-0.257788 0,-0.2540269 1.41955,-1.10230755 1.75359,-1.04789065 0.0944,0.015372 0.24447,-0.085278 0.3335,-0.2236814 0.20654,-0.3210851 2.33134,-1.4043157 2.60289,-1.32697 0.11265,0.032086 0.46465,-0.085897 0.78222,-0.2621862 0.99739,-0.5536512 4.88068,-1.3680281 7.3601,-1.543505 1.37951,-0.097634 3.3679,-0.037071 4.72665,0.1439651 2.48205,0.3307026 6.26105,1.405411 6.84436,1.946468 0.19131,0.1774481 0.50658,0.3566477 0.70061,0.3982244 0.19403,0.041579 0.52712,0.2499386 0.7402,0.4630208 0.21309,0.2130848 0.54836,0.3874267 0.74506,0.3874267 0.19669,0 0.6942,0.3292369 1.10558,0.73164175 0.41137,0.4024025 1.08177,0.9451205 1.48977,1.2060395 0.40801,0.260922 0.81714,0.670661 0.90919,0.91053395 0.26071,0.679397 1.18514,1.649701 1.57171,1.649701 0.19203,0 0.34916,0.243811 0.34916,0.541801 0,0.297989 0.32742,0.848111 0.7276,1.222491 0.40018,0.374383 0.69784,0.785416 0.66146,0.91341 -0.0364,0.127993 0.0567,0.232715 0.20696,0.232715 0.15021,0 0.36144,0.208359 0.46941,0.463021 0.35965,0.848352 1.42365,2.447395 1.62848,2.447395 0.11114,0 0.62938,0.327422 1.15164,0.727604 0.52226,0.400183 1.42676,1.0742251 2.01,1.4978731 0.58324,0.423651 0.99872,0.870135 0.92329,0.992187 -0.0754,0.122055 0.0522,0.221919 0.28364,0.221919 0.23143,0 0.49843,0.202319 0.59332,0.449596 0.0949,0.247277 0.5674,0.811999 1.05002,1.254937 0.48263,0.442939 0.87751,0.958734 0.87751,1.14621 0,0.187476 0.17859,0.409398 0.39687,0.493159 0.21828,0.08376 0.39688,0.318151 0.39688,0.520864 0,0.202711 0.1389,0.368568 0.30868,0.368568 0.16977,0 0.24497,0.06371 0.1671,0.141575 -0.0779,0.07787 0.19142,0.498055 0.59842,0.933749 0.407,0.435692 0.95237,1.354249 1.21194,2.041234 0.25957,0.686988 0.62528,1.406398 0.81269,1.598695 0.31867,0.326966 0.42795,0.703228 0.27461,0.945509 -0.0364,0.05748 0.12243,0.325374 0.35292,0.595313 0.48038,0.562612 2.04756,5.118182 2.1754,6.323599 0.047,0.443143 0.18142,0.960999 0.29872,1.15079 0.45533,0.736732 0.48765,6.967307 0.0492,9.478401 -0.65179,3.732651 -2.75922,9.579985 -3.66112,10.158213 -0.13886,0.08903 -0.25907,0.267626 -0.26712,0.396875 -0.0177,0.284269 -0.73097,1.423641 -1.19523,1.909281 -0.18475,0.193247 -0.45914,0.581644 -0.60977,0.863103 -0.29285,0.547187 0.18444,1.107286 2.06147,2.419149 0.47195,0.329845 0.8589,0.678796 0.85989,0.775443 0.001,0.09665 0.38876,0.576868 0.86171,1.067157 0.72711,0.753779 1.31802,1.786078 2.87074,5.015013 0.503,1.046014 1.0845,3.946046 1.22448,6.106713 0.14069,2.171538 0.20422,2.37791 0.88025,2.859283 0.40073,0.28535 0.85906,0.518819 1.0185,0.518819 0.15943,0 0.28988,0.153257 0.28988,0.340571 0,0.187312 0.24792,0.359243 0.55093,0.382069 0.30301,0.02283 0.94991,0.345818 1.43756,0.717764 0.48764,0.371944 0.95786,0.676262 1.04493,0.676262 0.34831,0 4.11044,2.994705 4.112,3.273203 8e-4,0.164269 0.36582,0.50592 0.8109,0.759224 0.44506,0.253304 0.74211,0.569127 0.66009,0.701831 -0.082,0.132702 0.20978,0.36639 0.64843,0.519303 0.43865,0.152916 0.76774,0.372872 0.73132,0.488797 -0.10166,0.323498 1.16565,1.666729 1.42266,1.507889 0.12462,-0.07702 0.29731,0.04428 0.38376,0.26956 0.0865,0.22528 0.56322,0.852893 1.05949,1.394696 0.49627,0.541803 1.16034,1.525889 1.4757,2.18686 0.31537,0.660969 0.73073,1.296974 0.92302,1.413346 0.1923,0.116372 0.34963,0.384262 0.34963,0.595313 0,0.21105 0.0989,0.383727 0.21987,0.383727 0.25118,0 0.96104,1.238163 0.96687,1.686454 0.002,0.163857 0.30154,0.893239 0.66534,1.620839 0.62851,1.25703 0.66554,1.58542 0.74344,6.59314 0.0847,5.445481 -0.0172,6.216611 -1.17467,8.884991 -1.17799,2.71579 -3.49085,6.41571 -4.34332,6.94809 -0.28441,0.17762 -0.51712,0.4729 -0.51712,0.65618 0,0.18327 -0.11426,0.33323 -0.25391,0.33323 -0.13966,0 -0.69457,0.47625 -1.23313,1.05833 -0.53856,0.58208 -1.13868,1.05833 -1.33358,1.05833 -0.19491,0 -0.35438,0.10032 -0.35438,0.22292 0,0.12261 -0.44467,0.45003 -0.98815,0.72761 -0.54348,0.27757 -1.12317,0.62939 -1.28821,0.7818 -0.16503,0.15242 -1.01521,0.56118 -1.88928,0.90837 l -1.58923,0.63124 -0.17947,3.06038 c -0.89194,15.20976 -6.50387,27.95222 -17.05652,38.72862 -9.74603,9.95266 -24.47801,16.75394 -38.52476,17.78562 -1.30969,0.0962 -3.6314,0.46917 -5.15937,0.82883 -3.87271,0.91158 -4.89464,1.0995 -9.26042,1.70288 -5.11797,0.70735 -16.72617,0.90138 -22.257448,0.37204 z m 15.779678,-5.70188 c 4.94212,-0.32323 9.99315,-1.03888 14.81215,-2.09865 1.89177,-0.41603 4.42939,-0.82912 5.63916,-0.91798 5.46993,-0.40177 13.96467,-2.78407 19.74017,-5.53601 8.87068,-4.22673 16.46703,-10.71881 21.86612,-18.68745 6.08167,-8.9761 9.08044,-19.76194 8.60671,-30.95625 -0.49215,-11.62963 -3.06413,-19.805931 -10.06028,-31.981571 -7.86279,-13.683885 -16.90154,-26.244803 -25.06034,-34.825722 -0.83017,-0.873125 -1.72673,-1.837793 -1.99235,-2.143707 -0.26562,-0.305916 -2.70656,-2.86576 -5.42432,-5.688541 -8.36589,-8.689189 -9.46552,-10.319641 -13.18652,-19.552125 -5.49223,-13.627222 -8.81976,-20.4718811 -13.44153,-27.6489575 -1.99019,-3.0905449 -3.70442,-5.4824707 -5.26482,-7.3462195 -0.61352,-0.73279 -1.05115,-1.436449 -0.97252,-1.563682 0.0786,-0.127233 0.0412,-0.198617 -0.0831,-0.158634 -0.12436,0.03999 -0.86199,-0.52261 -1.63918,-1.250214 -2.70578,-2.533142 -2.91343,-2.713061 -3.0145,-2.611985 -0.0559,0.05593 -0.31785,-0.137168 -0.58205,-0.429101 -0.26419,-0.291934 -0.63057,-0.530789 -0.81417,-0.530789 -0.18361,0 -0.37351,-0.0893 -0.42202,-0.198437 -0.0947,-0.213077 -2.5249,-1.440995 -3.05198,-1.54209 -0.17488,-0.03354 -1.127378,-0.27772 -2.116668,-0.54262 -1.27361,-0.341033 -2.72559,-0.480264 -4.97371,-0.476936 -3.59825,0.0053 -5.99965,0.471472 -9.11928,1.770176 -1.09627,0.456378 -2.03944,0.796105 -2.09593,0.754952 -0.0565,-0.04115 -0.17555,0.02463 -0.26458,0.146211 -0.089,0.121571 -1.00619,0.774973 -2.03813,1.452004 -1.03194,0.677035 -2.54831,1.778363 -3.3697,2.447396 -0.82139,0.669036 -1.53371,1.216427 -1.58294,1.216427 -0.35042,0 -6.76098,6.8873051 -9.51673,10.2244787 -0.9786,1.1850766 -1.95766,2.22313725 -2.17568,2.30679925 -0.21802,0.08366 -0.3964,0.31307 -0.3964,0.509793 0,0.196723 -1.75617,2.08933595 -3.90261,4.20580095 -3.31638,3.270083 -4.22055,4.00813 -6.01927,4.913347 -1.88848,0.9503941 -4.95895,3.0034441 -5.90569,3.9488051 -0.9054,0.904089 -5.76519,3.186411 -6.09104,2.860564 -0.0721,-0.07214 -0.34918,0.06615 -0.61565,0.3073 -0.26647,0.241152 -0.48631,0.330708 -0.48854,0.199014 -0.002,-0.131696 -0.0915,-0.114437 -0.19844,0.03835 -0.20559,0.293801 -3.09236,1.711309 -3.76626,1.849368 -0.21828,0.04472 -0.56555,0.09042 -0.7717,0.10155 -0.20616,0.01114 -0.29902,0.09605 -0.20636,0.188714 0.0927,0.09266 -0.93584,0.665814 -2.28554,1.273678 -1.34971,0.607864 -3.83684,1.831514 -5.52696,2.719223 -1.69012,0.887706 -3.14209,1.544865 -3.22661,1.460349 -0.0845,-0.08452 -0.15366,-0.0077 -0.15366,0.17063 0,0.178364 -0.10558,0.259048 -0.23461,0.179303 -0.12903,-0.07975 -0.39692,0.05114 -0.59531,0.290867 -0.19839,0.239726 -1.05496,0.764471 -1.9035,1.166103 -0.84853,0.401632 -1.7415,0.900869 -1.98437,1.109417 -0.24288,0.208547 -0.97737,0.664755 -1.63221,1.013796 -0.65485,0.349041 -1.23032,0.723918 -1.27882,0.833059 -0.0485,0.10914 -0.19492,0.198437 -0.32537,0.198437 -0.13044,0 -0.86466,0.475737 -1.63159,1.057196 -0.76694,0.581456 -1.52251,1.057706 -1.67904,1.058333 -0.15653,5.29e-4 -0.5638,0.298326 -0.90504,0.661554 -0.34123,0.363228 -0.66284,0.617998 -0.71468,0.566152 -0.0519,-0.05184 -0.41849,0.186018 -0.81476,0.528582 -0.3962699,0.342564 -1.8515899,1.524688 -3.2340399,2.62694 -7.31261999,5.830508 -15.26796,14.239707 -20.4097101,21.574132 -0.92565,1.320384 -1.89135,2.646576 -2.14601,2.947095 -0.25467,0.300519 -0.46303,0.65863 -0.46303,0.795801 0,0.13717 -0.26287,0.61858 -0.58417,1.069795 -0.32129,0.451217 -0.78139,1.18397 -1.02243,1.628343 -0.24104,0.444373 -1.3608,2.472574 -2.48833,4.507116 -1.12754,2.03454 -2.14243,3.93954 -2.25532,4.233334 -0.11289,0.29379 -0.5884,1.367604 -1.05669,2.38625 -2.88041,6.265516 -5.11351,13.693428 -5.96577,19.843755 -0.68707,4.95828 -0.42217,13.688611 0.54994,18.123951 0.39868,1.81901 0.73398,3.51565 0.7451,3.77032 0.0111,0.25466 0.10053,0.46302 0.19867,0.46302 0.15067,0 0.51898,1.34356 0.61651,2.24895 0.0157,0.14553 0.30509,0.84804 0.64315,1.56114 0.33805,0.7131 0.66552,1.57708 0.72769,1.91995 0.15242,0.84055 1.8345,3.83626 4.24308,7.55673 0.63286,0.97757 1.15066,1.84248 1.15066,1.92202 0,0.0795 0.81117,1.18471 1.8026,2.45593 0.99142,1.27122 1.91416,2.51066 2.05052,2.75431 0.13636,0.24364 1.90118,2.18408 3.92182,4.31208 5.7207301,6.02466 11.83566011,10.66741 18.7264901,14.21804 7.0765899,3.64634 11.7287599,5.10429 18.8261699,5.89997 1.15432,0.12941 2.44406,0.62472 5.15937,1.98142 4.74769,2.37217 6.11,2.97031 10.30893,4.52628 6.03729,2.2372 12.69096,3.9353 19.76972,5.04549 1.24691,0.19555 4.61721,0.33153 8.20208,0.33091 5.15332,-8e-4 6.60276,-0.093 9.46296,-0.60126 l 3.37754,-0.6002 3.50162,0.7936 c 11.26378,2.55281 20.227738,3.33614 30.493648,2.66473 z M 53.711622,151.93057 c -10.81343,-1.04667 -19.65451,-3.82286 -24.47396,-7.68507 -1.96112,-1.57161 -4.41809,-4.35019 -5.63563,-6.37332 -1.62695,-2.70341 -2.46327,-5.13115 -2.84274,-8.25212 -0.33271,-2.7364 -0.27332,-3.5254 0.71854,-9.54495 0.60576,-3.67636 0.65291,-4.45723 0.4553,-7.54062 -0.37012,-5.77522 -0.26368,-11.09793 0.27248,-13.626041 0.5079,-2.39486 1.39532,-5.02709 1.69481,-5.02709 0.0995,0 0.34258,-0.36506 0.54008,-0.81125 0.47555,-1.07434 2.70044,-2.80636 4.08603,-3.18086 1.7415,-0.47071 3.5257,-0.13253 7.07605,1.34119 6.65296,2.76159 11.18442,4.0681 18.36757,5.29572 9.22958,1.57737 19.42063,2.02203 27.25813,1.18932 7.46614,-0.79325 9.5648,-0.39956 12.50157,2.345191 0.47294,0.44201 0.85989,0.90788 0.85989,1.03525 0,0.12736 0.17001,0.40158 0.3778,0.60937 1.43851,1.43851 2.25105,6.9774 1.77274,12.08429 -0.51749,5.52525 -2.93189,17.3438 -4.28391,20.96991 -1.62696,4.36346 -5.07798,8.96272 -8.84684,11.7904 -1.88716,1.41589 -5.21924,3.02519 -7.81873,3.77623 -4.41106,1.27444 -6.81204,1.55146 -14.14168,1.63164 -3.78354,0.0414 -7.35542,0.0291 -7.9375,-0.0272 z m 14.02292,-5.66598 c 6.96477,-0.77364 11.988,-2.86524 15.54994,-6.47476 3.67718,-3.7263 5.11158,-6.91187 6.91142,-15.34909 1.27736,-5.98798 1.53459,-7.94564 1.67609,-12.7561 0.12089,-4.10968 0.0782,-4.95247 -0.29004,-5.72853 -0.23749,-0.50046 -0.43179,-1.02457 -0.43179,-1.16469 0,-0.14011 -0.49551,-0.59837 -1.10114,-1.01834 -0.97901,-0.6789 -1.32381,-0.76326 -3.10885,-0.76058 -1.10425,0.002 -4.15084,0.22335 -6.77022,0.49266 -12.93638,1.33006 -33.51177,-1.40355 -43.39166,-5.764921 -0.43657,-0.19272 -1.87624,-0.84215 -3.19928,-1.44318 -1.32303,-0.60103 -2.72684,-1.09278 -3.11957,-1.09278 -1.80974,0 -3.46384,2.41103 -3.63039,5.291671 -0.11146,1.92791 -0.0913,7.59993 0.0488,13.75833 0.0749,3.28909 -0.006,4.5725 -0.41042,6.48229 -0.27708,1.30969 -0.54837,3.80171 -0.60289,5.53783 -0.0883,2.81326 -0.0252,3.39353 0.58017,5.3353 1.21841,3.90787 4.75179,8.15164 8.20724,9.85732 1.96625,0.97058 4.22876,1.96211 5.03336,2.20584 4.0766,1.23486 9.43481,2.23827 14.29084,2.67619 2.40904,0.21725 11.54722,0.16115 13.75834,-0.0845 z M 120.82462,95.549969 c -0.75016,-0.36962 -2.99075,-2.94755 -2.94869,-3.39264 0.0444,-0.47027 -5.69169,-5.72669 -7.29467,-6.684603 -7.27131,-4.345226 -16.194758,-4.561467 -23.011538,-0.557636 -2.97445,1.747035 -4.39123,2.181127 -5.82587,1.785006 -1.19561,-0.330126 -2.13954,-1.301086 -2.52919,-2.601614 -0.84261,-2.812375 2.27505,-5.901991 8.55901,-8.482017 7.32805,-3.008699 16.521668,-2.728621 23.749408,0.723508 1.0914,0.52128 2.0439,1.020173 2.11666,1.10865 0.0728,0.08848 0.54901,0.372041 1.05834,0.630142 2.38063,1.206397 6.91142,5.308488 9.46232,8.566993 1.43131,1.828343 2.53204,4.452251 2.3711,5.652161 -0.18017,1.34331 -1.04372,2.52574 -2.32017,3.17693 -1.24138,0.63331 -2.21022,0.6548 -3.38671,0.0751 z M 34.212752,80.84928 c -0.53792,-0.326678 -1.5244,-1.308333 -2.19218,-2.181458 -1.85396,-2.424085 -4.26758,-4.495633 -6.61937,-5.681252 -3.16959,-1.5979 -4.87817,-1.940007 -8.98346,-1.79873 -4.71455,0.162243 -7.0349399,0.981586 -11.5525099,4.079248 -1.22,0.836549 -2.66097,1.674191 -3.20216,1.86142 -1.44105999,0.49856 -2.71952,0.0037 -3.8605,-1.494475 -0.78265,-1.027639 -0.88327,-1.330102 -0.7717,-2.319946 0.18796,-1.667546 1.25373,-3.056805 3.77557001,-4.921548 2.05091999,-1.516526 5.09756999,-3.281445 5.97843999,-3.463306 0.19804,-0.04089 0.78113,-0.261387 1.29575,-0.49 2.5799899,-1.146128 5.3194299,-1.620645 9.3830699,-1.625304 5.82606,-0.0067 9.38241,0.983856 13.64768,3.801218 4.62332,3.053874 8.70962,8.156207 8.70962,10.875219 0,1.869157 -2.04517,3.957494 -3.87249,3.954227 -0.41675,-7.94e-4 -1.19784,-0.268637 -1.73576,-0.595313 z m 158.803618,31.79528 c 1.51115,-0.80543 4.26081,-3.32956 5.30821,-4.87281 2.83746,-4.18077 3.96021,-9.061511 3.03801,-13.206621 -0.50792,-2.28299 -2.01478,-5.34166 -3.73606,-7.583585 -2.93582,-3.823825 -10.19331,-9.641668 -13.87933,-11.126134 -0.79645,-0.320751 -1.8302,-0.863343 -2.29724,-1.205756 l -0.84914,-0.622573 0.006,-3.387997 c 0.009,-5.25518 -0.77338,-7.877175 -3.08896,-10.352717 -1.27111,-1.358916 -2.29207,-1.966637 -4.02798,-2.39763 -1.42175,-0.352991 -2.16833,-1.443588 -2.16976,-3.169534 -7.9e-4,-1.033068 0.17149,-1.408429 1.27559,-2.778124 2.65002,-3.287496 4.39394,-6.587826 5.38057,-10.18263 0.82823,-3.017676 0.96069,-8.623961 0.28137,-11.908903 -1.31645,-6.365912 -5.07116,-12.164996 -10.48563,-16.194862 -1.48874,-1.108035 -2.28181,-1.915377 -2.75055,-2.800032 -3.50856,-6.6216951 -8.13143,-9.8411261 -14.76869,-10.28510005 -6.08652,-0.407133 -12.07753,1.86706895 -15.78685,5.99271995 -1.74795,1.944145 -2.94535,4.4605831 -2.76441,5.8096361 0.11841,0.882816 5.61495,14.604983 6.69567,16.715826 0.19451,0.37991 1.02498,1.511004 1.84548,2.513542 1.42309,1.738831 2.84921,3.256621 10.41776,11.087477 3.33226,3.447741 3.7084,3.857715 7.42062,8.088093 2.2085,2.516769 3.26249,3.792027 5.62439,6.805141 0.87772,1.119711 1.73841,2.154899 1.91267,2.30042 0.17425,0.145521 0.54294,0.621771 0.81931,1.058333 0.27637,0.436563 1.40472,2.043906 2.50746,3.571875 1.82373,2.526988 4.11276,5.946595 5.43392,8.117794 7.0646,11.609988 7.33791,12.085161 9.8055,17.0475 3.72124,7.48345 5.44812,12.735621 6.46921,19.675671 0.27881,1.89502 0.50748,3.59432 0.50815,3.77622 0.002,0.46618 0.13562,0.43115 1.85493,-0.48524 z"
       id="path6352" /></g></svg>
