<?xml version="1.0" encoding="UTF-8" standalone="no"?>
<!-- Created with Inkscape (http://www.inkscape.org/) -->

<svg
   width="194.36743mm"
   height="187.19466mm"
   viewBox="0 0 194.36739 187.19456"
   version="1.1"
   id="svg5"
   xml:space="preserve"
   xmlns="http://www.w3.org/2000/svg"
   xmlns:svg="http://www.w3.org/2000/svg"><defs
     id="defs2" /><g
     id="layer1"
     transform="translate(25.731893,-17.392463)"><path
       style="fill:#000000;stroke-width:0.264583"
       d="m 57.970227,204.44095 c -4.90297,-0.22201 -18.3917,-1.44318 -19.18314,-1.73669 -0.21828,-0.081 -1.05171,-0.20095 -1.85208,-0.26666 -0.80036,-0.0657 -2.76489,-0.3595 -4.36562,-0.65287 -1.60073,-0.29337 -3.86292,-0.70587 -5.02709,-0.91666 -1.16416,-0.21079 -3.48588,-0.74144 -5.15937,-1.17923 -1.67349,-0.43779 -3.25152,-0.84791 -3.50673,-0.91139 -0.2552,-0.0635 -0.58218,-0.18844 -0.7266,-0.2777 -0.14443,-0.0893 -0.48649,-0.20541 -0.76014,-0.25811 -0.27364,-0.0527 -1.01823,-0.32481 -1.65464,-0.60468 -0.63641,-0.27987 -1.54405,-0.66117 -2.017,-0.84732 -0.47294,-0.18616 -0.85989,-0.44308 -0.85989,-0.57095 0,-0.12786 -0.17759,-0.23248 -0.39464,-0.23248 -0.21704,0 -0.54334,-0.23813 -0.7251,-0.52917 -0.18175,-0.29104 -0.46356,-0.52917 -0.62624,-0.52917 -0.42224,0 -2.0469302,-2.5682 -2.4827702,-3.9246 -0.5114,-1.59157 -0.46189,-4.15961 0.10893,-5.65015 0.46368,-1.21077 0.46249,-1.25815 -0.0499,-1.98438 -0.2887,-0.40919 -0.82838,-1.34644 -1.19928,-2.08276 -0.62043,-1.23171 -0.7788,-1.36287 -1.98049,-1.64025 -1.30973,-0.30233 -3.46911,-1.21257 -4.95363996,-2.08812 -2.58249004,-1.5231 -6.48229004,-4.17367 -6.48229004,-4.40581 0,-0.1499 -0.0764,-0.19617 -0.1697,-0.10283 -0.38822,0.38821 -7.8879298,-6.62136 -9.5705298,-8.94505 -0.52686,-0.72761 -1.02768,-1.38245 -1.11294,-1.45521 -0.0853,-0.0728 -0.48137,-0.56711 -0.88026,-1.09856 -0.52518,-0.69971 -0.6308,-1.00414 -0.38288,-1.10359 0.22307,-0.0895 0.1851,-0.1446 -0.10899,-0.15821 -0.47474,-0.022 -2.03479,-2.48808 -3.19332,-5.04797 -1.50726,-3.33045 -1.77929,-4.00299 -1.77929,-4.39887 0,-0.22877 -0.16833,-0.79113 -0.37406,-1.24969 -0.60955,-1.35863 -0.95191,-2.63238 -1.51902,-5.65148 -0.65772,-3.50152 -0.94395,-12.5846 -0.49852,-15.81975 0.16029,-1.16417 0.41106,-3.12165 0.55725,-4.34995 0.14621,-1.2283 0.35845,-2.3594 0.47167,-2.51354 0.11321,-0.15415 0.23968,-0.75639 0.28104,-1.33833 0.0414,-0.58194 0.19301,-1.27819 0.337,-1.54724 0.14399,-0.26904 0.31394,-0.92401 0.37766,-1.45547 0.12237,-1.02049 1.80541,-6.43705 2.26419,-7.28686 0.14837,-0.27484 0.44719,-1.10828 0.66404,-1.85208 0.21685,-0.7438 0.57125,-1.6291 0.78757,-1.96733 0.21631,-0.33823 0.43641,-0.83885 0.48911,-1.11248 0.11077,-0.57517 3.76901,-7.977212 4.04651,-8.187651 0.10194,-0.07731 0.46994,-0.676005 0.81777,-1.330441 0.96442,-1.814536 4.5639398,-7.143009 4.8252798,-7.143009 0.12696,0 0.23106,-0.148828 0.23132,-0.330729 5.3e-4,-0.349925 3.7962,-5.306663 5.64936,-7.377416 0.60337,-0.674219 1.75188,-1.972662 2.55224,-2.885427 2.63157,-3.001147 5.45454,-5.824111 5.63933,-5.639326 0.0998,0.09983 0.18151,0.03652 0.18151,-0.140684 0,-0.654992 6.6538002,-6.324973 11.4928002,-9.793486 1.60984,-1.153911 4.35574,-2.96224 6.10199,-4.018513 3.13404,-1.89572 11.29817,-6.139899 13.09687,-6.808501 0.50932,-0.189323 1.46182,-0.589624 2.11667,-0.889558 1.60214,-0.733825 8.3555,-2.958523 10.98021,-3.617119 1.16416,-0.292113 3.24776,-0.733147 4.6302,-0.980075 1.38245,-0.246927 2.55398,-0.484174 2.6034,-0.527211 0.0494,-0.04304 -0.38059,-0.772038 -0.95556,-1.619999 -2.50587,-3.695588 -3.50258,-6.84667 -3.49533,-11.05043 0.003,-1.464181 0.17172,-3.45058 0.37597,-4.414219 0.3899,-1.839436 1.66432,-4.650845 2.37598,-5.241469 0.23015,-0.191011 0.41846,-0.504704 0.41846,-0.697093 0,-0.389175 2.48729,-2.628116 2.91963,-2.628116 0.15107,0 0.36853,-0.151871 0.48325,-0.337495 0.45509,-0.736343 3.73882,-1.64688 5.93927,-1.64688 2.0923,0 4.94535,0.647451 4.94535,1.122267 0,0.127534 0.11906,0.158295 0.26458,0.06836 0.14552,-0.08994 0.26459,-0.03743 0.26459,0.116676 0,0.154109 0.19028,0.280199 0.42284,0.280199 0.42784,0 3.31381,2.751224 4.16312,3.968749 0.36538,0.523783 0.49451,0.578853 0.62041,0.264584 0.16232,-0.405157 2.59716,-2.821578 3.94104,-3.911214 0.40966,-0.332158 0.90033,-0.544253 1.09038,-0.471323 0.19005,0.07293 0.34554,0.01431 0.34554,-0.130233 0,-0.678651 3.61034,-1.327518 5.61936,-1.009933 1.63885,0.259066 4.4348,1.524965 4.4348,2.007904 0,0.186888 0.14883,0.341701 0.33073,0.344024 0.41725,0.0053 2.05052,1.429697 2.05052,1.788248 0,0.147169 0.15339,0.326437 0.34085,0.398375 0.57191,0.219461 2.28727,3.786608 2.73171,5.68067 0.83473,3.557386 0.0391,9.37393 -1.61593,11.812677 -0.36458,0.537241 -0.66288,1.06849 -0.66288,1.180555 0,0.112061 -0.89296,1.129162 -1.98437,2.260221 -1.09141,1.131059 -1.98438,2.151459 -1.98438,2.267556 0,0.116096 0.68461,0.292616 1.52136,0.392268 2.62799,0.312979 7.76767,1.601653 9.988023,2.504303 0.29104,0.118319 1.24354,0.474821 2.11667,0.792226 0.87312,0.317407 1.92457,0.750051 2.33654,0.961432 0.41198,0.211378 0.91799,0.384326 1.12448,0.384326 0.20649,0 0.37543,0.12609 0.37543,0.280199 0,0.154109 0.11907,0.206613 0.26459,0.116676 0.14552,-0.08994 0.26458,-0.03041 0.26458,0.132291 0,0.162698 0.0964,0.236236 0.21422,0.16342 0.11781,-0.07282 0.86195,0.198784 1.65364,0.603557 0.79169,0.40477 2.57053,1.309262 3.95297,2.009981 1.38245,0.70072 2.57308,1.354365 2.64584,1.452547 0.0728,0.09818 0.51924,0.346869 0.99218,0.552633 0.47295,0.205766 0.8599,0.464118 0.8599,0.574116 0,0.109998 0.16121,0.199996 0.35824,0.199996 0.19703,0 0.69639,0.313386 1.10968,0.696415 0.4133,0.383027 1.17214,0.872191 1.68632,1.08703 1.02839,0.429689 3.10199,1.784244 3.72493,2.43327 0.21828,0.227422 0.57434,0.452805 0.79124,0.500853 0.46762,0.103585 0.81482,0.594593 0.63089,0.892194 -0.0718,0.116088 -0.004,0.211071 0.14975,0.211071 0.15411,0 0.2802,-0.133191 0.2802,-0.295979 0,-0.162787 0.37979,0.07534 0.84398,0.529167 0.46419,0.453829 0.94546,0.825145 1.0695,0.825145 0.2588,0 0.70368,0.334812 1.93359,1.455209 0.47923,0.436562 1.02363,0.831286 1.20978,0.877165 0.18614,0.04588 0.60988,0.343537 0.94163,0.661458 0.94328,0.903954 1.58257,1.431695 2.3182,1.9137 0.37354,0.244747 0.68855,0.699193 0.70004,1.009877 0.0121,0.327134 0.0804,0.415811 0.16216,0.210696 0.0994,-0.249166 0.3931,-0.09226 0.99058,0.529166 0.46712,0.485844 1.81736,1.766882 3.00054,2.84675 1.18318,1.079868 2.07884,2.08053 1.99036,2.223693 -0.0885,0.143164 -0.0401,0.185682 0.10742,0.09449 0.33804,-0.208921 1.74138,1.334812 1.5277,1.680546 -0.14146,0.228891 0.20781,0.367887 0.72654,0.289128 0.10549,-0.01601 0.46268,0.446262 0.79375,1.027287 0.33106,0.581025 0.81042,1.123876 1.06524,1.206334 0.25482,0.08246 0.60113,0.409752 0.76959,0.727318 0.16846,0.317569 0.52552,0.732975 0.79347,0.923126 0.26795,0.190153 0.48718,0.517575 0.48718,0.727604 0,0.210032 0.17859,0.381873 0.39687,0.381873 0.21828,0 0.39688,0.0906 0.39688,0.20133 0,0.11073 0.41443,0.676277 0.92097,1.25677 0.50652,0.580494 0.92324,1.127353 0.92604,1.215245 0.003,0.08789 0.31608,0.49539 0.69621,0.905552 0.38013,0.410162 0.80849,1.082392 0.95192,1.493843 0.14344,0.411451 0.36249,0.748093 0.48678,0.748093 0.32788,0 1.84887,2.283103 1.65208,2.479889 -0.0913,0.09127 -0.0328,0.165944 0.13002,0.165944 0.4317,0 1.64653,1.839804 3.66086,5.544177 0.27335,0.502685 0.64692,1.077831 0.83015,1.278102 0.18324,0.200273 0.2718,0.463428 0.19679,0.584787 -0.075,0.121359 -0.0295,0.260588 0.10108,0.309399 0.31848,0.11903 2.67626,4.822367 2.67626,5.338647 0,0.22408 0.1062,0.47305 0.236,0.55327 0.43748,0.27038 3.50188,8.39069 4.25016,11.26246 0.62346,2.3927 1.11322,4.42483 1.21159,5.02708 0.0594,0.3638 0.22202,1.13771 0.36134,1.71979 1.20022,5.01459 1.37987,16.14492 0.34804,21.56354 -0.59969,3.14922 -1.31177,5.74741 -1.62891,5.94341 -0.11778,0.0728 -0.21624,0.40242 -0.21878,0.7325 -0.006,0.83424 -2.09041,5.55434 -2.6305,5.95795 -0.24342,0.1819 -0.35787,0.33073 -0.25434,0.33073 0.10353,0 -0.0821,0.49239 -0.41245,1.09421 -1.40208,2.55401 -3.36344,5.29652 -3.65781,5.11459 -0.13759,-0.085 -0.25017,0.045 -0.25017,0.289 0,0.57471 -2.01389,2.59278 -2.36863,2.37353 -0.16246,-0.1004 -0.20602,0.002 -0.10868,0.25579 0.28588,0.745 -4.3291,4.93093 -8.76748,7.95237 -2.25448,1.53475 -6.3377,3.82259 -6.82237,3.82259 -0.22527,0 -0.44926,0.0921 -0.49777,0.20476 -0.20886,0.48491 -5.0981,2.43398 -9.13941,3.64337 -0.17599,0.0527 -0.62021,0.68824 -0.98716,1.41238 -0.36695,0.72414 -0.77665,1.38428 -0.91045,1.46697 -0.13379,0.0827 -0.20198,0.71619 -0.15153,1.40778 0.25097,3.44007 0.0629,5.28235 -0.69415,6.7981 -0.7892,1.58022 -3.0858,3.72815 -5.14907,4.81576 -1.61478,0.85119 -4.90229,2.10817 -5.9942,2.29187 -0.33557,0.0565 -0.78873,0.17586 -1.00701,0.26535 -1.26084,0.51688 -8.94576,2.13176 -11.64167,2.44633 -0.80036,0.0934 -1.51888,0.2089 -1.59669,0.25669 -0.20235,0.12427 -9.303923,1.12654 -13.219983,1.4558 -4.39347,0.36939 -25.54992,0.53252 -31.88144,0.24583 z m 24.07624,-4.22312 c 13.07761,-0.54195 24.767043,-1.99509 31.882293,-3.96335 5.27554,-1.45935 8.00908,-2.66208 9.47046,-4.1669 0.93696,-0.96481 1.76163,-2.57298 1.51995,-2.96403 -0.0764,-0.12363 -1.00293,0.13835 -2.05894,0.58218 -1.69472,0.71228 -2.23047,0.80861 -4.56585,0.82091 -2.30249,0.0122 -2.83467,-0.0741 -4.10104,-0.66441 -0.80036,-0.37309 -1.92496,-1.11236 -2.4991,-1.64281 -0.57414,-0.53046 -1.12354,-0.96446 -1.22089,-0.96446 -0.0973,0 -1.41354,0.46401 -2.92486,1.03114 -6.51097,2.44326 -17.223183,3.81622 -23.163233,2.96876 -1.24289,-0.17731 -1.45566,-0.12748 -2.37169,0.55553 -0.55347,0.41268 -1.18921,0.72854 -1.41275,0.70192 -0.22354,-0.0266 -0.74161,0.0893 -1.15126,0.25754 -1.02082,0.4193 -2.0503,0.38372 -3.54101,-0.12239 -1.09149,-0.37057 -1.5655,-0.38549 -3.51498,-0.11067 -3.57443,0.5039 -10.15453,0.74195 -13.86544,0.50162 -4.8759,-0.31578 -7.60689,-1.07749 -9.82893,-2.74143 -0.76985,-0.57649 -1.00825,-0.60113 -5.68854,-0.58796 -6.68093,0.0188 -10.52048,-0.59126 -15.02269,-2.38693 l -1.671,-0.66646 -0.84254,0.8145 c -2.85093,2.75607 -8.39468,3.01958 -11.84461,0.56301 -0.85714,-0.61034 -1.05668,-0.32825 -0.74581,1.0544 0.31401,1.39666 1.55725,2.9467 3.01663,3.76106 5.35717,2.9894 23.69252,6.17248 40.87812,7.09657 10.68472,0.57453 16.47564,0.63702 25.26771,0.27266 z m -13.75834,-8.99688 c 5.15916,-0.42555 4.82583,-0.2877 4.68889,-1.93905 -0.19911,-2.40108 1.28643,-4.64288 3.96293,-5.98034 3.95219,-1.97493 8.07652,0.0246 7.98252,3.87011 -0.0189,0.77429 -0.16672,1.56723 -0.32843,1.76208 -0.16171,0.19485 -0.21568,0.43261 -0.11993,0.52836 0.0958,0.0958 2.20808,0.17162 4.69406,0.16859 6.71215,-0.008 13.078453,-1.08924 18.104773,-3.07437 2.44746,-0.96662 2.43543,-0.95194 2.24815,-2.74373 -0.21341,-2.04183 0.45776,-3.42611 2.65135,-5.46841 0.9099,-0.84715 1.93191,-1.91923 2.27113,-2.3824 l 0.61676,-0.84212 -0.58553,-0.99239 c -0.32203,-0.54582 -1.5589,-2.30364 -2.74859,-3.90628 -1.18969,-1.60264 -2.12535,-3.08101 -2.07924,-3.28527 0.0461,-0.20425 -0.0299,-0.30106 -0.169,-0.21511 -0.26707,0.16507 -1.63463,-1.45595 -1.63463,-1.93759 0,-0.15523 -0.0989,-0.28224 -0.21973,-0.28224 -0.12085,0 -0.61353,-0.54836 -1.09485,-1.21857 -0.8053,-1.12137 -2.51123,-3.31231 -7.024173,-9.02123 -0.94348,-1.19351 -1.71542,-2.22615 -1.71542,-2.29476 0,-0.0686 -0.36741,-0.52084 -0.81647,-1.00498 -0.44907,-0.48414 -0.96454,-1.05884 -1.14549,-1.27712 -0.50009,-0.60325 -3.32261,-4.02989 -3.81389,-4.63021 -2.15257,-2.63033 -5.19296,-6.21105 -5.73121,-6.74973 -0.36507,-0.36538 -0.66377,-0.80767 -0.66377,-0.98288 0,-0.17521 -0.23812,-0.44601 -0.52916,-0.60177 -0.29105,-0.15576 -0.52917,-0.38406 -0.52917,-0.50735 0,-0.12328 -0.44822,-0.68463 -0.99604,-1.24746 -0.54782,-0.56282 -1.59879,-1.7276 -2.33549,-2.58839 l -1.33946,-1.56509 -1.11861,1.21355 c -0.83669,0.9077 -1.38205,1.25806 -2.16388,1.39015 -0.5749,0.0971 -1.20133,0.39941 -1.39208,0.67173 -0.2366,0.33779 -0.93989,0.59307 -2.21326,0.80337 -5.4889,0.90647 -11.25761,-2.53474 -12.12916,-7.23541 -0.10148,-0.54731 -0.27196,-1.04916 -0.37885,-1.11522 -0.28815,-0.17809 -3.28823,2.38147 -5.67853,4.84473 -1.15302,1.18822 -2.25435,2.16039 -2.4474,2.16039 -0.19304,0 -0.35099,0.14755 -0.35099,0.32788 0,0.18033 -0.29666,0.62681 -0.65924,0.99219 -1.39743,1.40818 -7.98955,9.00917 -10.32844,11.9091 -1.34972,1.67349 -2.67505,3.28083 -2.94518,3.57187 -0.27013,0.29105 -0.69964,0.82683 -0.95446,1.19063 -0.25482,0.3638 -0.84918,1.14899 -1.32081,1.74487 -1.28363,1.62183 -7.90005,10.34573 -8.68343,11.44931 -4.26126,6.00303 -5.27094,7.61135 -5.27094,8.39614 0,0.71802 1.45726,2.79416 3.67018,5.22886 1.04011,1.14434 1.96555,2.37725 2.05654,2.73978 0.091,0.36254 0.0956,1.40687 0.0103,2.32075 l -0.15516,1.66159 1.50856,0.6627 c 0.82971,0.36448 1.93125,0.79626 2.44787,0.9595 3.13482,0.99053 10.422,1.67819 14.27423,1.34699 2.23277,-0.19196 2.25848,-0.18714 3.57187,0.66987 1.99812,1.30379 2.72981,1.61416 4.8948,2.07627 3.2772,0.69953 8.82898,0.86743 14.1552,0.42811 z m -22.39721,-9.54172 c -1.68769,-0.2478 -4.29256,-1.23728 -5.58077,-2.11989 -1.3897,-0.95215 -3.57143,-3.3041 -4.19036,-4.5173 -1.17332,-2.29991 -1.56628,-3.91638 -1.55956,-6.41548 0.008,-2.97278 0.28916,-4.23889 1.5024,-6.76539 4.02765,-8.38735 15.83907,-10.26789 22.63622,-3.604 1.58894,1.55779 1.88682,2.00824 3.09052,4.67341 1.69307,3.74872 1.27947,8.2173 -1.14145,12.33263 -1.89982,3.22949 -6.09663,5.94097 -9.95458,6.43145 -2.27061,0.28868 -2.74155,0.28717 -4.80242,-0.0154 z m 8.06654,-2.59832 c 6.47085,-3.09309 8.87321,-10.43586 5.57241,-17.03196 -2.14109,-4.2786 -8.41585,-7.05918 -13.18107,-5.84103 -0.88472,0.22616 -2.13721,0.54747 -2.78332,0.71402 -0.92224,0.23773 -1.63309,0.75818 -3.30729,2.42142 -3.45517,3.43257 -4.5418,6.42118 -3.91022,10.75445 0.4947,3.39413 2.16404,6.14453 4.82782,7.9543 2.50838,1.70419 3.87249,2.05449 7.66547,1.96847 3.11281,-0.0706 3.41366,-0.12585 5.1162,-0.93967 z m -15.17037,-2.1447 c -0.15576,-0.29104 -0.34273,-0.52917 -0.41549,-0.52917 -0.0728,0 -0.005,0.23813 0.15091,0.52917 0.15576,0.29104 0.34273,0.52916 0.41549,0.52916 0.0728,0 0.005,-0.23812 -0.15091,-0.52916 z m -2.91041,-10.31875 c 0,-0.14552 -0.12609,-0.26458 -0.2802,-0.26458 -0.15411,0 -0.20661,0.11906 -0.11668,0.26458 0.0899,0.14552 0.21603,0.26458 0.2802,0.26458 0.0642,0 0.11668,-0.11906 0.11668,-0.26458 z m -0.0838,-1.10794 c -0.0845,-0.21107 -0.14715,-0.14838 -0.15985,0.15985 -0.0115,0.27891 0.0511,0.43518 0.13897,0.34726 0.0879,-0.0879 0.0973,-0.31612 0.0209,-0.50711 z m 0.60896,-2.01653 c -0.003,-0.38557 -0.0395,-0.39256 -0.26053,-0.0505 -0.33486,0.51815 -0.33486,0.86841 0,0.66146 0.14552,-0.0899 0.26276,-0.36486 0.26053,-0.61093 z m 65.207533,16.35199 c -1.33579,-0.52597 -2.674703,-1.8784 -2.361433,-2.38527 0.088,-0.14241 0.0401,-0.25892 -0.10642,-0.25892 -0.17762,0 -0.17937,-0.24975 -0.005,-0.74925 0.17532,-0.50291 0.17007,-0.98892 -0.0159,-1.47822 -0.56379,-1.48288 1.498943,-4.32284 3.854703,-5.30714 2.72373,-1.13805 5.71433,0.14124 6.60602,2.82586 0.69119,2.08097 0.14308,3.92484 -1.68535,5.66961 -2.07716,1.98213 -4.13083,2.53206 -6.28632,1.68333 z m 3.66747,-1.75005 c 1.77557,-0.89911 2.83113,-2.49768 2.83113,-4.2875 0,-2.4555 -2.23482,-3.44401 -5.45119,-2.41117 -0.76028,0.24414 -2.31316,1.5712 -1.83857,1.5712 0.11594,0 0.071,0.16845 -0.0999,0.37434 -0.33421,0.4027 -0.4447,3.38376 -0.14347,3.87116 0.73549,1.19004 3.18589,1.64968 4.70197,0.88197 z M 82.707977,164.75146 c -3.33721,-0.37136 -5.8409,-1.57864 -7.89481,-3.80687 -1.85848,-2.01622 -2.68112,-4.21372 -2.68566,-7.17419 -0.007,-4.67755 3.18204,-9.1938 7.49624,-10.61543 1.51929,-0.50064 6.85107,-0.70494 7.6624,-0.29361 0.57815,0.29312 4.24312,5.18571 7.27745,9.71512 2.59707,3.87671 2.64577,4.24456 0.90191,6.8125 -2.85124,4.19863 -7.11411,5.99048 -12.75753,5.36248 z m 6.33444,-2.2771 c 1.72796,-0.64259 3.19462,-1.57222 4.06855,-2.5788 0.92778,-1.06861 2.03242,-2.91135 2.03242,-3.39045 0,-0.48952 -0.9104,-1.96467 -2.97019,-4.81271 -0.62197,-0.85998 -1.27957,-1.83477 -1.46133,-2.16621 -0.18177,-0.33143 -0.68778,-0.9938 -1.12448,-1.47193 -0.4367,-0.47812 -0.79908,-0.99161 -0.80528,-1.14108 -0.006,-0.14947 -0.48141,-0.80754 -1.05602,-1.46239 l -1.04473,-1.19062 -2.4596,-0.0898 c -2.35024,-0.0858 -2.5481,-0.0483 -4.45024,0.84222 -2.38489,1.11656 -3.90793,2.64946 -5.04352,5.07615 -0.67082,1.43351 -0.78936,2.003 -0.78025,3.74851 0.009,1.81398 0.12259,2.28451 0.95329,3.96532 1.61695,3.27166 4.36136,5.04033 8.3361,5.37231 2.72079,0.22725 3.59364,0.12191 5.80528,-0.70055 z m -40.06828,-11.09039 c -1.79817,-0.9376 -2.51413,-2.101 -2.51413,-4.08535 0,-1.36412 0.25424,-2.11634 1.00671,-2.97856 0.26116,-0.29926 0.47219,-0.3679 0.58247,-0.18947 0.27208,0.44024 1.0129,0.0194 0.87747,-0.49846 -0.16512,-0.63142 0.92527,-1.09175 2.58602,-1.09175 1.84294,0 3.49978,0.91162 2.6318,1.44806 -0.13916,0.086 -0.17862,0.35027 -0.0877,0.58724 0.13793,0.35943 0.20143,0.33328 0.38308,-0.15776 0.27192,-0.73507 0.69067,-0.49998 1.17526,0.6598 0.5253,1.25723 0.45779,2.15752 -0.28075,3.74383 -1.16776,2.50822 -4.15558,3.71196 -6.36024,2.56242 z m 3.56837,-1.56604 c 1.1647,-0.60229 1.59042,-1.40089 1.59042,-2.98344 0,-1.16683 -0.11484,-1.51539 -0.66821,-2.02823 -1.0542,-0.977 -3.408,-1.13113 -3.74788,-0.24541 -0.0755,0.19676 -0.23879,0.295 -0.36287,0.21831 -0.30797,-0.19033 -1.08811,1.36578 -1.32545,2.64383 -0.18035,0.97116 -0.12603,1.10866 0.75781,1.91823 1.08063,0.98981 2.43222,1.16135 3.75618,0.47671 z m 28.22537,41.0286 c 0.75198,-0.35013 1.45568,-0.55733 1.56377,-0.46044 0.10809,0.0969 0.10954,0.0252 0.003,-0.1594 -0.1064,-0.18469 0.053,-0.73402 0.35446,-1.22185 0.34551,-0.55906 0.54776,-1.33436 0.54776,-2.09982 0,-2.33108 -1.98558,-3.26862 -5.02708,-2.37365 -1.21963,0.35887 -1.64226,0.6605 -2.61062,1.86321 -1.01134,1.25608 -1.13647,1.55174 -1.0035,2.37114 0.39733,2.44846 3.28872,3.42326 6.17199,2.08081 z m 41.333513,-5.42392 c 1.54987,-0.79697 3.48316,-2.77123 4.23346,-4.32315 1.90137,-3.93281 1.11368,-9.40653 -1.51003,-10.49331 -1.08587,-0.44978 -2.81726,0.0314 -3.27833,0.91106 -0.18793,0.35857 -0.89037,1.75429 -1.56097,3.10161 -1.38486,2.78235 -3.31498,5.46834 -4.55452,6.33817 -1.17454,0.8242 -1.48413,1.28102 -1.49383,2.2042 -0.0114,1.08328 0.63697,1.93185 1.94487,2.54551 1.49758,0.70265 4.5737,0.56213 6.21935,-0.28409 z m -99.983053,-0.79746 c 0.96636,-0.67275 1.38688,-1.66543 1.06462,-2.51305 -0.14508,-0.38157 -1.27479,-1.76058 -2.51047,-3.06446 -2.29773,-2.42455 -3.07283,-3.65908 -4.2337,-6.74324 -0.3633,-0.96519 -0.89738,-2.0875 -1.18685,-2.49401 -0.28946,-0.40652 -0.48026,-0.78521 -0.424,-0.84155 0.0563,-0.0563 -0.41743,-0.13271 -1.05264,-0.16974 -1.10689,-0.0645 -1.19097,-0.015 -2.02144,1.19063 -1.02106,1.48228 -1.07891,1.70515 -1.1163,4.30064 -0.0381,2.64209 0.088,3.2666 1.06843,5.29167 1.9464,4.02037 4.95289,5.99626 8.56027,5.62586 0.65485,-0.0672 1.48828,-0.32947 1.85208,-0.58275 z m 113.809423,-9.72096 c 4.76209,-2.19462 9.36243,-4.96731 12.13225,-7.31227 8.69056,-7.35756 13.27635,-14.85729 15.13884,-24.75854 0.75506,-4.014 0.81078,-12.07073 0.11548,-16.69717 -2.26067,-15.04214 -8.98267,-28.933131 -20.48555,-42.333334 -1.91958,-2.236192 -8.2791,-8.792114 -9.05783,-9.337561 -0.27987,-0.196024 -1.22686,-1.002998 -2.10444,-1.793277 -2.04345,-1.840174 -2.52903,-2.23607 -5.56692,-4.538797 -1.38245,-1.047901 -2.66912,-2.118103 -2.85927,-2.378233 -0.19016,-0.260131 -0.50422,-0.472964 -0.69792,-0.472964 -0.39067,0 -3.13856,-1.81088 -3.27788,-2.160148 -0.0485,-0.121606 -0.21666,-0.221102 -0.37366,-0.221102 -0.15701,0 -1.34308,-0.657312 -2.6357,-1.460696 -3.09967,-1.926484 -9.27078,-5.133602 -12.24828,-6.365414 -3.23453,-1.338152 -8.555113,-3.112585 -11.407713,-3.804518 -1.29284,-0.313592 -4.37468,-1.089533 -6.84854,-1.724313 -2.47385,-0.634778 -5.33135,-1.298697 -6.35,-1.475375 -1.01864,-0.176675 -2.0902,-0.448125 -2.38125,-0.603216 -0.46622,-0.248443 -0.39184,-0.306175 0.62534,-0.485346 2.10375,-0.370567 7.13679,-3.815167 9.67871,-6.624079 2.81783,-3.113802 4.02334,-6.97268 3.35194,-10.729637 -0.69462,-3.886869 -3.72951,-7.216007 -6.56784,-7.204638 -1.34513,0.0054 -3.16275,0.571455 -3.57691,1.11397 -0.18493,0.242237 -0.51081,0.476742 -0.72417,0.521118 -0.21337,0.04438 -0.59931,0.497406 -0.85766,1.006729 -0.25834,0.509323 -0.92707,1.640417 -1.48608,2.513542 -0.91807,1.43398 -2.69228,5.527066 -2.69228,6.21108 0,0.151265 0.56554,-0.120171 1.25677,-0.603187 0.69122,-0.483018 1.46131,-0.954926 1.71131,-1.048686 0.94546,-0.354579 0.70587,0.352237 -0.49062,1.447421 -0.68326,0.625417 -1.43091,1.325415 -1.66144,1.555549 -0.56375,0.562779 -4.10854,3.413353 -7.03373,5.656231 -2.49281,1.911352 -4.082,3.312556 -5.63099,4.964919 -0.50807,0.541975 -1.04492,0.910532 -1.193,0.819015 -0.15917,-0.09838 -0.18756,-0.03424 -0.0694,0.156877 0.12644,0.204589 0.002,0.374874 -0.33768,0.463825 -0.29562,0.07731 -0.48065,0.288663 -0.41119,0.469683 0.22926,0.597439 -3.85202,3.365224 -7.59774,5.152527 -1.50763,0.719381 -1.85091,0.793478 -2.51183,0.542195 l -0.76555,-0.291063 2.34835,-1.359458 c 1.29159,-0.747705 2.20769,-1.406345 2.03578,-1.463649 -0.90613,-0.302045 -13.66414,3.475506 -15.95947,4.725485 -0.25269,0.137604 -0.69918,0.250193 -0.99219,0.250193 -0.29302,0 -0.53276,0.119062 -0.53276,0.264583 0,0.145521 -0.22355,0.264583 -0.49677,0.264583 -0.27322,0 -0.64738,0.18147 -0.83145,0.40327 -0.18408,0.221798 -0.39033,0.347623 -0.45834,0.279612 -0.068,-0.06801 -0.57375,0.160475 -1.12386,0.507743 -0.5501,0.347268 -1.07281,0.558787 -1.16155,0.47004 -0.0887,-0.08875 -0.16136,-0.0026 -0.16136,0.191418 0,0.194027 -0.0759,0.276921 -0.16857,0.184206 -0.0927,-0.09271 -0.50944,0.07414 -0.92605,0.370795 -0.4166,0.296651 -0.75929,0.441963 -0.76152,0.322911 -0.002,-0.11905 -0.0915,-0.08265 -0.19843,0.08088 -0.10692,0.163534 -1.14689,0.793922 -2.31106,1.400866 -2.7912,1.455203 -3.57482,1.91476 -4.19442,2.459839 -0.28376,0.249629 -0.60873,0.396515 -0.72216,0.326414 -0.11342,-0.0701 -0.28603,0.0016 -0.38356,0.159477 -0.0975,0.157816 -0.34236,0.223615 -0.54404,0.146222 -0.21777,-0.08357 -0.52497,0.150892 -0.75639,0.577273 -0.21434,0.394896 -0.39446,0.615506 -0.40029,0.490244 -0.006,-0.125264 -0.24476,0.05333 -0.53096,0.396875 -0.2862,0.343543 -0.52432,0.541012 -0.52917,0.438819 -0.005,-0.102192 -0.32143,0.103937 -0.70354,0.458063 -0.38211,0.354129 -0.77593,0.593698 -0.87514,0.532376 -0.0992,-0.06132 -0.39858,0.179036 -0.66524,0.534125 -0.26666,0.355089 -0.63683,0.645615 -0.8226,0.645615 -0.18577,0 -0.37745,0.104082 -0.42596,0.231291 -0.0485,0.127211 -0.92163,0.856763 -1.94028,1.621229 -1.01864,0.764466 -2.1748,1.702181 -2.56923,2.083813 -0.39443,0.381632 -1.20714,1.110594 -1.80602,1.619917 -0.5988902,0.509323 -2.5978902,2.469877 -4.4422302,4.356787 -4.87515,4.987666 -5.19744996,5.331055 -6.02944996,6.423821 -0.41597,0.546341 -1.05557004,1.314228 -1.42135004,1.706412 -0.36578,0.392184 -1.31989,1.626682 -2.12026,2.743332 -0.80036,1.116648 -2.19935,3.03444 -3.10885,4.26176 -0.90951,1.227323 -1.65365,2.278549 -1.65365,2.336062 0,0.05751 -0.71182,1.234432 -1.58182,2.615374 -1.5865998,2.518392 -4.0515898,7.266255 -5.4417698,10.481455 -0.40898,0.94588 -0.92009,1.92888 -1.13581,2.18443 -0.21572,0.25556 -0.32049,0.53637 -0.23284,0.62402 0.0877,0.0877 -0.17379,1.12873 -0.58099,2.31348 -1.02278,2.9758 -1.23851,3.71397 -1.75079,5.99057 -0.24559,1.0914 -0.56064,2.40109 -0.70012,2.91041 -0.13948,0.50933 -0.31078,1.34276 -0.38067,1.85209 -0.52007,3.7899 -0.66358,5.37125 -0.80439,8.86354 -0.46326,11.48956 2.79268,21.63255 9.34256,29.10416 0.76542,0.87313 1.38698,1.69178 1.38127,1.81924 -0.006,0.12745 0.2781898,0.42511 0.6308998,0.66146 0.35272,0.23634 1.22575,0.98312 1.94007,1.65949 0.71433,0.67637 1.81606,1.65864 2.44829,2.18281 0.63223,0.52418 1.04895,0.95323 0.92604,0.95346 -0.12291,2.2e-4 0.15669,0.20858 0.62132,0.46302 0.46463,0.25443 2.01245,1.24536 3.43958004,2.20207 2.36524996,1.58558 4.96532996,3.01036 5.85651996,3.20923 0.25238,0.0563 0.38375,-0.36861 0.46656,-1.50911 0.1644,-2.26446 0.78776,-4.20181 1.88245,-5.85054 0.992,-1.49406 2.2680602,-2.48383 3.2022802,-2.48383 0.30166,0 0.62205,-0.11907 0.71199,-0.26459 0.28463,-0.46055 2.99501,-0.29954 4.20027,0.24952 0.62068,0.28276 1.62864,1.05666 2.23989,1.71979 0.61125,0.66313 1.15005,1.20569 1.19734,1.20569 0.0473,0 1.25398,-1.67309 2.68154,-3.71799 1.42756,-2.04489 2.7854,-3.8606 3.01743,-4.03489 0.23202,-0.1743 0.46054,-0.4955 0.50782,-0.71378 0.0473,-0.21829 0.29437,-0.635 0.54909,-0.92605 0.25473,-0.29104 1.01188,-1.31341 1.68255,-2.27194 0.67068,-0.95853 1.85234,-2.5176 2.62591,-3.46461 0.77357,-0.94701 1.70415,-2.11661 2.06795,-2.59912 1.24732,-1.65431 5.19537,-6.55878 5.88744,-7.31369 0.38059,-0.41514 1.30551,-1.49894 2.05538,-2.40845 0.74986,-0.9095 1.46342,-1.65364 1.58568,-1.65364 0.12225,0 0.26078,-0.16541 0.30783,-0.36758 0.0776,-0.33339 1.17706,-1.59849 5.5095,-6.33944 2.83785,-3.10543 4.95786,-5.18027 5.12364,-5.01448 0.0924,0.0924 0.16803,0.0133 0.16803,-0.17577 0,-0.18908 0.24536,-0.55659 0.54524,-0.81668 0.29988,-0.26008 1.13304,-1.0227 1.85146,-1.6947 l 1.30622,-1.22181 -0.68511,-1.352 c -0.72904,-1.43869 -1.28111,-5.35239 -0.97951,-6.94381 0.23789,-1.25523 0.86222,-2.32789 1.26497,-2.17334 0.19641,0.0754 0.42275,-0.0341 0.50299,-0.24314 0.12349,-0.32182 1.78167,-0.38002 10.80366,-0.37918 10.08927,0.001 10.70279,0.0284 11.50144,0.5154 1.34536,0.82032 1.69797,2.81444 1.12365,6.35437 -0.15272,0.94126 -0.56854,2.29049 -0.92405,2.9983 -0.35551,0.7078 -0.64583,1.36643 -0.64516,1.46362 8e-4,0.0972 0.3639,0.56365 0.80716,1.03659 0.44327,0.47294 0.73124,0.8599 0.63994,0.8599 -0.0913,0 0.20707,0.31392 0.66306,0.69761 2.08434,1.75386 16.71373,18.88118 17.31801,20.27502 0.17454,0.40261 0.37882,0.67054 0.45395,0.59542 0.14138,-0.14139 1.944243,1.97794 1.944583,2.28594 1.1e-4,0.0956 0.48436,0.6909 1.07611,1.32292 0.59175,0.63202 1.29986,1.50631 1.57357,1.94288 0.27371,0.43656 0.76454,1.0914 1.09074,1.45521 1.56304,1.74323 2.18628,2.58426 2.0305,2.74004 -0.0937,0.0937 -0.0454,0.17037 0.10745,0.17037 0.1528,0 0.34652,0.26269 0.43048,0.58376 0.084,0.32107 0.23472,0.5017 0.33501,0.4014 0.1003,-0.10029 0.67057,0.50632 1.26727,1.34804 0.5967,0.84172 1.35032,1.81197 1.67471,2.15612 0.3244,0.34415 0.91937,1.11196 1.32215,1.70623 0.40279,0.59427 0.88152,1.17571 1.06384,1.29208 0.18232,0.11637 0.3315,0.32473 0.3315,0.46302 0,0.13829 0.18064,0.45979 0.40142,0.71446 1.68773,1.94671 1.95037,2.37101 1.65218,2.6692 -0.23342,0.23342 -0.16957,0.30736 0.26542,0.30736 0.55778,0 1.28739,0.90795 1.17738,1.46515 -0.0923,0.4674 0.96813,0.37907 1.12193,-0.0935 0.24414,-0.75009 1.9794,-2.41067 3.13529,-3.00037 0.60189,-0.30706 1.82792,-0.61718 2.72451,-0.68915 1.35115,-0.10845 1.87432,-0.0191 3.05681,0.5223 2.7279,1.24887 4.63383,4.38994 4.9176,8.10444 l 0.14846,1.94328 0.7261,-0.14522 c 0.39936,-0.0799 1.95891,-0.71335 3.46565,-1.40774 z M 29.024587,124.65902 c -1.84321,-0.49566 -4.26842,-1.9754 -5.39537,-3.29198 -0.48837,-0.57056 -1.23647,-1.7252 -1.66243,-2.56588 -0.72369,-1.42825 -0.77425,-1.72804 -0.77084,-4.5712 0.003,-2.74181 0.0738,-3.19324 0.71341,-4.56489 0.81586,-1.74973 2.95071,-4.12732 4.54122,-5.05759 3.25258,-1.90238 7.98015,-1.98971 11.45782,-0.21167 3.76021,1.9225 6.49742,7.5073 5.68047,11.59002 -1.29414,6.4675 -7.97393,10.44539 -14.56428,8.67319 z m 1.4714,-12.18089 c 1.13237,-0.65011 1.67652,-1.66065 1.67652,-3.11346 0,-0.96503 -0.1572,-1.38772 -0.77202,-2.07585 -0.72124,-0.80723 -0.89527,-0.86774 -2.64583,-0.91999 -1.18764,-0.0354 -1.87382,0.0476 -1.87382,0.22675 0,0.15546 -0.17716,0.21468 -0.3937,0.13159 -0.21653,-0.0831 -0.36863,-0.0661 -0.338,0.0378 0.0306,0.10391 -0.32797,0.56671 -0.79692,1.02846 -0.68707,0.67653 -0.85263,1.05155 -0.85263,1.93137 0,2.33025 1.40172,3.55283 3.83646,3.34615 0.72761,-0.0618 1.69958,-0.32854 2.15994,-0.59285 z m 71.791103,12.23561 c -4.130333,-1.19948 -7.292043,-4.7612 -7.971463,-8.98 -0.48661,-3.02156 0.56525,-6.62709 2.54502,-8.72377 0.52052,-0.55125 1.06008,-0.93202 1.19902,-0.84615 0.13893,0.0859 0.19194,-0.002 0.11779,-0.19522 -0.0835,-0.2177 0.39566,-0.66226 1.2598,-1.16873 2.339393,-1.37111 3.041353,-1.55074 6.024833,-1.54172 2.26722,0.007 3.05959,0.12046 4.30863,0.61774 3.32947,1.32559 6.1929,5.12736 6.85041,9.09529 0.24462,1.47626 0.22198,2.08013 -0.13175,3.51352 -0.58516,2.37123 -1.10806,3.3816 -2.58836,5.00128 -1.25136,1.36919 -4.21788,3.22684 -4.57797,2.86675 -0.10206,-0.10206 -0.29103,-0.0149 -0.41994,0.19365 -0.32221,0.52136 -4.99043,0.63944 -6.61602,0.16736 z m 0.52376,-12.13742 c 1.52423,-0.77885 2.24234,-1.78637 2.24234,-3.14605 0,-0.89975 -0.15847,-1.21805 -0.98229,-1.97303 -0.88173,-0.80804 -1.13979,-0.9002 -2.52071,-0.9002 -2.531043,0 -4.295813,1.44852 -4.286283,3.51818 0.006,1.20014 0.51279,2.03684 1.57947,2.60519 1.228213,0.65442 2.550953,0.61971 3.967473,-0.10409 z M 44.078757,91.134477 c -0.88693,-0.409638 -1.04968,-0.683963 -1.05329,-1.775351 -0.006,-1.688502 1.5375,-3.705651 3.56683,-4.662641 2.13316,-1.005946 4.57714,-0.762593 5.48606,0.546264 0.36847,0.530611 0.20426,1.916086 -0.27893,2.353371 -0.42525,0.384844 -2.58571,0.988036 -3.78801,1.057598 -0.23812,0.01378 -0.3781,0.167994 -0.31106,0.342701 0.067,0.17471 -0.31753,0.80404 -0.8546,1.398514 -1.0189,1.127799 -1.59372,1.281435 -2.767,0.739544 z m 47.69114,0.166087 c -0.1819,-0.0734 -0.33073,-0.30915 -0.33073,-0.523893 0,-0.214744 -0.11399,-0.31999 -0.25331,-0.233884 -0.13932,0.08611 -0.42567,-0.174757 -0.63632,-0.579697 -0.53009,-1.018997 -1.65542,-2.020395 -2.01836,-1.796084 -0.64672,0.399695 -2.10867,-0.13693 -2.5153,-0.923274 -0.52822,-1.021445 -0.52857,-1.96025 -5.3e-4,-1.757675 0.71273,0.2735 1.19999,-0.09853 1.02777,-0.784725 -0.15472,-0.615899 -0.11432,-0.633873 1.42464,-0.633873 1.61715,0 3.50058,0.579732 3.50058,1.0775 0,0.152157 0.10315,0.212897 0.22922,0.13498 0.12608,-0.07792 0.44219,0.09365 0.70247,0.381259 0.26028,0.28761 0.36876,0.522928 0.24107,0.522928 -0.12769,0 0.0325,0.185346 0.35587,0.411877 0.32342,0.226533 0.58804,0.573799 0.58804,0.771702 0,0.197903 0.12535,0.401608 0.27856,0.452678 0.15321,0.05107 0.32426,0.653601 0.38011,1.338953 0.0885,1.086454 0.0144,1.314662 -0.57883,1.781276 -0.64224,0.505187 -1.65703,0.657706 -2.39495,0.359952 z m -16.41663,41.243176 c 1.66395,-0.80252 2.8544,-1.94531 2.85862,-2.74421 10e-4,-0.19581 -0.82721,-1.18947 -1.84054,-2.20811 -1.58477,-1.59308 -4.1541,-4.26533 -6.18597,-6.43376 -1.10391,-1.1781 -1.33537,-1.17291 -2.58704,0.058 -1.20038,1.1805 -3.22835,2.07759 -4.15109,1.83629 -1.55067,-0.40551 -1.9158,2.87012 -0.62425,5.60019 0.88099,1.86221 2.16162,3.07269 4.38834,4.14798 1.47815,0.71379 1.79598,0.76824 3.99346,0.6842 2.03537,-0.0778 2.64723,-0.21657 4.14847,-0.9406 z m -10.63701,-0.5867 c 0,-0.14552 -0.12609,-0.26458 -0.2802,-0.26458 -0.15411,0 -0.20661,0.11906 -0.11668,0.26458 0.0899,0.14552 0.21603,0.26459 0.2802,0.26459 0.0642,0 0.11668,-0.11907 0.11668,-0.26459 z m 1.28349,-11.26359 c 0.45825,-0.27069 0.83318,-0.58556 0.83318,-0.6997 0,-0.11415 0.15033,-0.20754 0.33407,-0.20754 0.18374,0 0.55761,-0.29766 0.83081,-0.66146 0.27321,-0.3638 0.69367,-0.66146 0.93437,-0.66146 0.24069,0 1.14675,0.6581 2.01346,1.46245 1.66132,1.54179 2.35997,1.87194 3.40584,1.60945 0.72926,-0.18304 1.34679,-1.61118 1.5857,-3.66721 l 0.14604,-1.25677 -7.0064,-0.0529 c -3.85352,-0.0291 -7.45288,-0.0589 -7.99858,-0.0661 l -0.99219,-0.0132 0.0845,1.17683 c 0.0914,1.27394 0.63503,2.7866 1.24266,3.45803 0.50015,0.55266 3.38737,0.28806 4.58657,-0.42033 z m -2.60641,-77.417751 c 0.80037,-0.747768 1.87324,-1.668417 2.38418,-2.045888 3.33989,-2.467469 4.22607,-3.332649 4.22605,-4.125891 -2e-5,-0.436562 0.14258,-2.241497 0.31689,-4.010964 0.51624,-5.240681 -0.27084,-8.016213 -2.7853,-9.821965 -2.5928,-1.862011 -5.90785,-1.652614 -8.26725,0.522203 -0.71539,0.659423 -1.56049,1.863452 -2.16246,3.0809 -0.97859,1.979118 -0.98865,2.032447 -1.03964,5.512268 -0.0296,2.021732 0.0565,3.58054 0.20275,3.670948 0.13984,0.08642 0.19409,0.254477 0.12055,0.373455 -0.0735,0.118977 0.0436,0.363452 0.26027,0.543282 0.21668,0.179826 0.39396,0.526693 0.39396,0.77081 0,0.244121 0.14288,0.58673 0.3175,0.761355 0.17463,0.174625 0.20439,0.319323 0.0661,0.32155 -0.13962,0.0024 -0.12988,0.09046 0.0219,0.198438 0.15029,0.106913 0.6798,0.84923 1.17668,1.649595 1.00186,1.613754 2.86855,3.971319 3.13875,3.964117 0.0956,-0.0026 0.82864,-0.616445 1.62901,-1.364213 z"
       id="path6295" /></g></svg>
