<?xml version="1.0" encoding="UTF-8" standalone="no"?>
<!-- Created with Inkscape (http://www.inkscape.org/) -->

<svg
   width="225.01573mm"
   height="207.51288mm"
   viewBox="0 0 225.01568 207.51277"
   version="1.1"
   id="svg5"
   xml:space="preserve"
   xmlns="http://www.w3.org/2000/svg"
   xmlns:svg="http://www.w3.org/2000/svg"><defs
     id="defs2" /><g
     id="layer1"
     transform="translate(11.79457,39.831227)"><path
       style="fill:#000000;stroke-width:0.264583"
       d="m 128.95619,166.62823 c -4.14734,-0.63758 -8.13593,-1.2364 -8.86354,-1.3307 -0.7276,-0.0943 -2.45401,-0.34282 -3.83646,-0.55226 -4.91969,-0.74531 -16.923341,-2.52197 -24.870831,-3.68111 -4.43838,-0.64734 -8.36745,-1.2374 -8.73125,-1.31123 -0.3638,-0.0738 -3.51896,-0.55237 -7.01146,-1.06341 -3.4925,-0.51104 -8.77661,-1.28449 -11.74247,-1.71878 -2.96587,-0.43429 -7.25212,-1.08353 -9.525,-1.44277 -2.27289,-0.35924 -5.7994,-0.89043 -7.83669,-1.18042 -6.02064,-0.857 -14.37551,-2.10548 -16.93333,-2.53037 -1.30969,-0.21756 -5.17922,-0.8073 -8.59896,-1.31054 -3.41974,-0.50323 -8.24177,-1.22268 -10.71563,-1.59877 -2.4738495,-0.3761 -7.6530695,-1.16322 -11.5093705,-1.74917 -7.219,-1.09689 -9.1958025,-1.65259 -9.4589945,-2.65904 -0.07025,-0.26862 -0.213788,-0.48841 -0.318978,-0.48841 -0.649232,0 -0.817775,-1.68961 -0.795975,-7.97947 l 0.02288,-6.60204 2.2697335,-2.23424 c 1.248354,-1.22884 2.402339,-2.23425 2.564412,-2.23425 0.162076,0 0.631809,-0.35719 1.043853,-0.79375 0.412046,-0.43656 0.850794,-0.79375 0.975,-0.79375 0.124203,0 0.606597,-0.34778 1.071986,-0.77285 0.711851,-0.65017 0.843103,-0.95465 0.82691,-1.91823 -0.02101,-1.2503 0.936538,-6.53984 1.26107,-6.96621 0.110766,-0.14552 0.203899,-0.44318 0.206965,-0.66146 0.0031,-0.21828 0.145458,-0.93266 0.316429,-1.5875 0.17097,-0.65484 0.36298997,-1.54781 0.42669997,-1.98437 0.0637,-0.43657 0.36151,-1.62719 0.66176,-2.64584 0.30024,-1.01864 0.72086,-2.50692 0.9347,-3.30729 0.52748003,-1.97431 2.24891003,-7.479918 2.43694003,-7.794018 0.0834,-0.139364 0.18377,-0.554374 0.22299,-0.92224 0.0392,-0.367869 0.19625,-0.710496 0.34895,-0.761394 0.1527,-0.0509 0.22018,-0.185502 0.14997,-0.299117 -0.16193,-0.262009 1.18419,-4.325022 1.50248,-4.534979 0.13053,-0.0861 0.21693,-0.264689 0.19202,-0.396875 -0.0249,-0.132186 -0.0224,-0.299868 0.006,-0.372629 0.028,-0.07276 0.0982,-0.382148 0.15585,-0.687527 0.0577,-0.30538 0.3695,-1.138817 0.69297,-1.852084 0.32346,-0.713266 0.60699,-1.475441 0.63006,-1.693722 0.0231,-0.218281 0.0744,-0.486172 0.11419,-0.595312 0.0397,-0.109141 0.0914,-0.287735 0.1147,-0.396875 0.0233,-0.109141 0.20717,-0.496094 0.40851,-0.859896 0.20133,-0.363802 0.34594,-0.691224 0.32135,-0.727604 -0.0246,-0.03638 -0.0356,-0.09591 -0.0245,-0.132292 0.0111,-0.03638 0.0595,-0.270438 0.10755,-0.520131 0.16276,-0.846304 1.52898,-4.835945 1.75434,-5.123029 0.1231995,-0.156943 0.2673695,-0.51413 0.3203795,-0.79375 0.35476,-1.871197 1.47099,-5.182475 1.82959,-5.42744 0.12604,-0.0861 0.19827,-0.264689 0.16053,-0.396875 -0.10399,-0.364172 1.67018,-5.772978 1.95446,-5.958458 0.13645,-0.08903 0.22493,-0.241258 0.19662,-0.338283 -0.052,-0.177983 0.36207,-1.615774 0.52262,-1.814949 0.0293,-0.03638 0.0942,-0.281268 0.14416,-0.544198 0.2347,-1.235099 1.2272,-4.142941 1.46402,-4.289301 0.14595,-0.0902 0.20314,-0.264683 0.12709,-0.387736 -0.11836,-0.1915 0.46733,-1.959147 1.7109,-5.163661 0.16941,-0.436562 0.30737,-0.820216 0.30658,-0.852564 -8e-4,-0.03235 0.46708,-1.155033 1.03973,-2.494857 0.57265,-1.339823 1.04118,-2.539497 1.04118,-2.665944 0,-0.126447 0.24659,-0.730168 0.54797,-1.341604 0.30138,-0.611433 0.59506,-1.334878 0.65261,-1.607656 0.0575,-0.272775 0.31369,-0.808556 0.5692,-1.190625 0.25551,-0.382066 0.43877,-0.781923 0.40724,-0.888568 -0.0828,-0.280192 1.25427,-3.167118 1.70401,-3.679095 0.2094,-0.238379 0.39967,-0.684863 0.42282,-0.992187 0.0232,-0.307327 0.14856,-0.558774 0.27868,-0.558774 0.13012,0 0.17139,-0.169889 0.0917,-0.377531 -0.0797,-0.20764 0.0254,-0.518787 0.23337,-0.691436 0.20803,-0.172648 0.32966,-0.392493 0.2703,-0.488545 -0.0594,-0.09605 0.17056,-0.752464 0.51093,-1.458698 0.34038,-0.706237 0.55611,-1.447596 0.47941,-1.647468 -0.0767,-0.199874 -0.0336,-0.363405 0.0957,-0.363405 0.12935,0 0.25863,-0.283266 0.28728,-0.629478 0.0286,-0.346213 0.19291,-0.971291 0.36502,-1.389063 0.1721,-0.417771 0.29369,-0.848881 0.27019,-0.958021 -0.0235,-0.109141 0.0962,-0.198438 0.26596,-0.198438 0.16977,0 0.24451,-0.06417 0.16608,-0.142592 -0.15384,-0.153842 0.14185,-1.208399 2.77908,-9.911574 0.94805,-3.128698 2.68938,-8.9627603 3.86962,-12.964583 1.18023,-4.00182266 2.24409,-7.454635 2.36413,-7.6729163 0.34329,-0.6242235 0.088,-0.9864063 -1.10398,-1.5664549 -1.25063,-0.6085681 -3.47225,-2.5613968 -3.71121,-3.2621907 -0.0868,-0.2546613 -0.26792,-0.4630203 -0.40241,-0.4630203 -0.1345,0 -0.62882,-0.8190338 -1.09849,-1.8200718 l -0.85395,-1.820074 -9.95617,-0.181848 c -5.4759,-0.100018 -10.3207795,-0.294873 -10.7664095,-0.433014 -1.77753,-0.551021 -3.83062,-3.642678 -4.2223,-6.35817 -0.4728,-3.277928 2.10906,-8.3688 4.8773795,-9.617139 1.04253,-0.470113 1.37376,-0.471138 10.00939,-0.03096 4.91215,0.25038 9.52649,0.508267 10.2541,0.573081 l 1.32291,0.117844 1.05834,-2.187217 c 0.95162,-1.966682 2.94266,-4.816362 3.68411,-5.272892 0.15655,-0.09639 0.58229,-0.434323 0.94609,-0.750957 1.52222,-1.32485 4.51219,-1.997552 10.13219,-2.279596 3.63936,-0.182644 5.49657,0.04777 7.19802,0.893014 1.40982,0.70037 3.0821,2.2318 3.99443,3.658009 1.04007,1.625894 2.22328,4.96582 2.22328,6.275813 0,0.502227 0.14883,1.029026 0.33073,1.170665 0.33511,0.26094 9.16575,1.128187 23.61406,2.319111 4.36562,0.359842 8.53281,0.737995 9.26042,0.840338 0.7276,0.102344 1.41694,0.162301 1.53186,0.133236 0.11493,-0.02906 2.37711,0.122423 5.027091,0.336635 11.84062,0.957143 25.23177,1.880473 32.73167,2.256867 2.98318,0.149717 6.25739,0.329498 7.27604,0.399518 3.19962,0.219935 12.65967,0.763876 13.5849,0.781116 0.84649,0.01577 0.91198,-0.05522 1.50846,-1.635051 0.8063,-2.135582 2.43412,-4.910595 3.77016,-6.427169 1.93988,-2.202011 4.80596,-3.310899 9.18231,-3.552645 1.30969,-0.07235 3.27422,-0.204997 4.36563,-0.29478 1.99785,-0.164352 5.73659,0.393961 6.06718,0.90602 0.0828,0.128242 0.39219,0.308447 0.68757,0.400455 1.70673,0.531644 4.48756,4.663111 5.20658,7.735383 l 0.31572,1.349055 6.09845,0.18094 c 7.60403,0.225611 13.59239,0.608497 15.49116,0.990484 2.73012,0.549233 4.50331,1.931366 5.62628,4.385479 0.45124,0.986129 0.58228,1.772653 0.58628,3.518942 0.004,1.954988 -0.0947,2.449161 -0.75852,3.7805648 -0.93526,1.8757426 -2.45896,3.2260541 -4.29248,3.8040205 -1.23597,0.3896042 -1.87251,0.402164 -5.96889,0.1177713 -2.52196,-0.175088 -7.76857,-0.3910726 -11.65915,-0.479962 l -7.07377,-0.1616208 -0.40901,1.0336768 c -0.54466,1.3764683 -1.17516,2.5214552 -1.69052,3.0699788 -1.81758,1.93453008 -2.49848,2.46925562 -4.12584,3.2401191 -1.01865,0.4825232 -2.23904,0.9606994 -2.71198,1.0626142 -0.47294,0.1019149 -0.8599,0.2797149 -0.8599,0.3951129 0,0.115398 -0.4783,2.5427912 -1.06291,5.3942056 -1.96432,9.5810648 -2.46238,13.7799838 -1.85492,15.6379888 0.14541,0.444759 0.63031,2.713653 1.07755,5.041987 0.98236,5.114091 0.89335,4.705183 1.09425,5.027083 0.0908,0.145521 0.3133,1.038489 0.4944,1.984375 0.1811,0.945885 0.55235,2.166276 0.825,2.711979 0.27265,0.545703 0.43672,0.992187 0.3646,0.992187 -0.0721,0 -0.006,0.327422 0.14676,0.727604 0.32579,0.853078 0.49236,1.813341 0.63162,3.641312 0.0556,0.729414 0.2477,1.681914 0.42695,2.116667 0.17925,0.434753 0.3401,0.84999 0.35745,0.92275 0.0174,0.07276 0.16933,0.379592 0.33772,0.681847 0.1684,0.302258 0.34579,0.838039 0.3942,1.190625 0.0484,0.352589 0.17703,0.782931 0.28581,0.956318 0.10878,0.173387 0.26331,1.286608 0.3434,2.473825 0.0966,1.432409 0.32053,2.470023 0.66558,3.084361 0.65617,1.168244 1.29338,3.586438 1.29338,4.90832 0,0.557305 0.2257,1.455695 0.50155,1.996419 0.64163,1.257689 1.00017,2.604579 1.34899,5.067535 0.1535,1.083892 0.44944,2.158936 0.65764,2.388989 0.58745,0.649131 1.20383,3.348625 1.33043,5.82676 0.0632,1.236927 0.29505,2.963333 0.51526,3.836458 0.2202,0.873125 0.40222,1.977096 0.40449,2.453269 0.002,0.476174 0.47706,1.806358 1.05507,2.955967 0.57801,1.14961 1.11987,2.481551 1.20414,2.95987 0.0843,0.478322 0.28316,1.026248 0.44198,1.217615 0.15882,0.191368 0.2133,0.423405 0.12107,0.515641 -0.0922,0.09223 -0.0481,0.311796 0.0981,0.487916 0.14616,0.176122 0.3094,1.03134 0.36274,1.900489 0.0534,0.869148 0.22619,1.821677 0.3841,2.116732 0.15791,0.295056 0.21192,0.611651 0.12003,0.703546 -0.0919,0.09189 -0.0411,0.167079 0.11292,0.167079 0.47576,0 0.95235,2.251255 0.98022,4.630208 l 0.0186,1.587509 0.92604,0.046 c 0.50933,0.0253 1.52136,0.16873 2.24896,0.31871 0.7276,0.14999 2.03729,0.40446 2.91042,0.5655 0.87312,0.16104 1.82562,0.35413 2.11666,0.42909 0.29105,0.075 1.0209,0.18425 1.62189,0.24286 0.601,0.0586 1.43444,0.23747 1.85209,0.39746 0.41764,0.15998 1.23561,0.34646 1.81769,0.4144 0.58208,0.0679 1.17783,0.26695 1.32387,0.44225 0.14605,0.1753 0.4433,0.35828 0.66056,0.40662 0.4746,0.1056 1.11383,0.60621 0.96461,0.75543 -0.0586,0.0586 0.22602,0.43895 0.6324,0.84533 1.0058,1.0058 1.09692,1.89102 0.99931,9.70853 l -0.0828,6.63469 -0.74001,1.11744 c -0.407,0.61459 -0.94278,1.19188 -1.19062,1.28286 -0.24784,0.091 -0.54724,0.32573 -0.66532,0.52167 -0.11809,0.19594 -0.31053,0.29702 -0.42766,0.22463 -0.11713,-0.0724 -0.42338,0.10089 -0.68056,0.38507 -0.25718,0.28418 -0.5737,0.45111 -0.70337,0.37097 -0.12968,-0.0802 -0.20307,-0.0476 -0.16308,0.0724 0.04,0.11996 -0.0143,0.21811 -0.12064,0.21811 -0.10634,0 -0.38098,0.26789 -0.61032,0.59531 -0.22933,0.32742 -0.57036,0.59531 -0.75784,0.59531 -0.18747,0 -0.54909,0.2301 -0.8036,0.51133 -0.25451,0.28122 -0.63015,0.44708 -0.83476,0.36856 -0.22453,-0.0862 -0.37202,0.0258 -0.37202,0.28243 0,0.23384 -0.127,0.42518 -0.28223,0.42518 -0.15523,0 -0.67249,0.29766 -1.14946,0.66146 -0.47697,0.3638 -0.93914,0.66146 -1.02705,0.66146 -0.0879,0 -0.481,0.29766 -0.87355,0.66146 -0.39255,0.3638 -0.87494,0.66146 -1.07197,0.66146 -0.19703,0 -0.35824,0.12609 -0.35824,0.28019 0,0.15411 -0.10889,0.2129 -0.24198,0.13065 -0.13309,-0.0823 -0.28192,-0.0343 -0.33073,0.10659 -0.10394,0.3 -5.99381,4.24507 -6.33776,4.24507 -0.1283,0 -0.23328,0.11906 -0.23328,0.26458 0,0.14552 -0.17859,0.26458 -0.39687,0.26458 -0.21828,0 -0.39688,0.11906 -0.39688,0.26459 0,0.14552 -0.17859,0.26458 -0.39687,0.26458 -0.21828,0 -0.39688,0.11906 -0.39688,0.26458 0,0.14552 -0.16867,0.26459 -0.37482,0.26459 -0.20616,0 -0.41452,0.0893 -0.46302,0.19843 -0.10646,0.23952 -3.27723,2.4474 -3.51475,2.4474 -0.0921,0 -0.42296,0.23804 -0.73525,0.52899 -0.31229,0.29094 -0.90263,0.67719 -1.31186,0.85834 -0.40922,0.18114 -0.74405,0.42229 -0.74405,0.53589 0,0.11359 -0.26789,0.32237 -0.59531,0.46394 -0.75325,0.3257 -1.47892,0.79208 -2.15211,1.38315 -0.29005,0.25466 -0.6835,0.46302 -0.87434,0.46302 -0.19084,0 -0.34699,0.13891 -0.34699,0.30868 0,0.16978 -0.0694,0.23923 -0.15434,0.15434 -0.0849,-0.0849 -0.38254,0.0739 -0.66145,0.35278 -0.27892,0.27892 -0.67298,0.50711 -0.87569,0.50711 -0.20271,0 -0.44,0.18614 -0.5273,0.41364 -0.0873,0.22751 -0.27863,0.33954 -0.42518,0.24897 -0.14655,-0.0906 -0.26645,-0.0386 -0.26645,0.11553 0,0.15411 -0.11293,0.2802 -0.25095,0.2802 -0.13803,0 -0.56972,0.29543 -0.95933,0.6565 -0.38961,0.36107 -0.79748,0.60142 -0.90639,0.53413 -0.1089,-0.0673 -0.51065,0.16736 -0.89275,0.52149 -0.38212,0.35412 -0.69657,0.56025 -0.6988,0.45805 -0.002,-0.10219 -0.0915,-0.05 -0.19844,0.11594 -0.23144,0.35929 -3.74522,2.74096 -4.04383,2.74096 -0.11412,0 -0.24719,0.0962 -0.29569,0.21384 -0.0924,0.22401 -2.46965,1.90283 -2.69446,1.90283 -0.0713,0 -1.07528,0.65138 -2.23103,1.44752 -1.15574,0.79613 -2.17727,1.3716 -2.27005,1.27882 -0.0928,-0.0928 -0.1687,-0.0348 -0.1687,0.12883 0,0.16364 -0.56555,0.62555 -1.25677,1.02647 -0.69122,0.40093 -1.29646,0.82266 -1.34496,0.9372 -0.0485,0.11453 -0.22711,0.20984 -0.39688,0.21179 -0.16977,0.002 -0.60634,0.24059 -0.97014,0.5303 -1.19294,0.94997 -3.83037,2.63988 -4.12107,2.64052 -0.15653,2.7e-4 -0.5638,0.29782 -0.90503,0.66105 -0.34124,0.36323 -0.66984,0.611 -0.73023,0.55061 -0.0604,-0.0604 -0.40681,0.14844 -0.76981,0.46406 -0.363,0.31563 -0.75982,0.57387 -0.88181,0.57387 -0.12199,0 -0.79706,0.41293 -1.50015,0.91762 -2.97286,2.13394 -4.18415,2.19102 -14.11065,0.66499 z m 8.35952,-2.80317 c 0.44553,-0.49422 0.5022,-0.97781 0.48831,-4.16719 -0.0124,-2.84929 -0.10939,-3.78539 -0.46114,-4.4512 -0.24499,-0.46371 -0.58013,-0.92637 -0.74477,-1.02812 -0.3538,-0.21866 -3.57267,-0.81919 -6.18671,-1.15423 -2.14169,-0.2745 -9.08786,-1.26158 -10.45104,-1.48514 -0.50932,-0.0835 -1.34276,-0.20982 -1.85208,-0.28065 -0.50933,-0.0708 -1.81901,-0.31862 -2.91042,-0.55063 -1.09141,-0.23202 -2.28203,-0.4206 -2.64583,-0.41908 -0.36381,0.002 -2.68552,-0.27136 -5.15938,-0.60638 -2.47385,-0.33502 -5.92666,-0.79978 -7.672911,-1.0328 -1.74625,-0.23301 -3.94891,-0.54743 -4.8948,-0.69871 -0.94588,-0.15128 -2.55322,-0.37445 -3.57187,-0.49594 -1.01865,-0.12148 -3.93568,-0.5255 -6.48229,-0.89782 -5.59427,-0.81789 -8.30307,-1.20462 -10.58333,-1.51093 -0.94589,-0.12707 -2.01745,-0.28342 -2.38125,-0.34746 -1.31618,-0.23166 -4.39739,-0.66966 -5.82084,-0.82744 -0.80036,-0.0887 -1.81239,-0.26732 -2.24896,-0.3969 -0.43656,-0.12959 -1.44859,-0.30342 -2.24895,-0.3863 -1.18464,-0.12267 -2.6412,-0.3511 -3.43959,-0.53944 -0.0728,-0.0172 -0.84666,-0.11719 -1.71979,-0.22228 -1.59681,-0.19219 -2.54387,-0.33562 -7.40833,-1.12201 -1.45521,-0.23525 -3.00302,-0.47269 -3.43959,-0.52765 -0.74248,-0.0935 -4.01708,-0.60699 -7.67291,-1.20326 -0.87313,-0.1424 -2.24234,-0.31552 -3.04271,-0.38471 -0.80036,-0.0692 -1.8124,-0.23879 -2.24896,-0.37688 -0.43656,-0.1381 -1.44859,-0.31818 -2.24896,-0.40018 -0.80036,-0.082 -1.81239,-0.25892 -2.24895,-0.39316 -0.43657,-0.13423 -1.03188,-0.23256 -1.32292,-0.21852 -0.29104,0.014 -1.42214,-0.10823 -2.51354,-0.27173 -4.3997,-0.65908 -5.56135,-0.82501 -8.78348,-1.25466 -2.06898,-0.27589 -3.33946,-0.55899 -3.30729,-0.73696 0.0321,-0.17751 -0.5602,-0.31157 -1.53527,-0.34753 -1.6438395,-0.0606 -3.9687495,-0.26609 -3.9687495,-0.35075 0,-0.0266 -0.65485,-0.0841 -1.45521,-0.12771 -0.80037,-0.0437 -2.05052,-0.20093 -2.77813,-0.3495 -0.7276,-0.14858 -2.75166003,-0.46314 -4.497913,-0.69903 -5.055647,-0.68295 -5.145912,-0.69853 -5.120703,-0.88388 0.06588,-0.48438 -0.08567,-0.56677 -0.567838,-0.30872 -0.497366,0.26618 -0.529167,0.55399 -0.529167,4.78921 0,2.4783 0.115756,4.72229 0.257234,4.98664 0.363204,0.67865 0.616423,0.74463 5.669277,1.47711 2.48848997,0.36074 5.65562,0.84032 7.03807,1.06574 1.38245,0.22541 3.28745,0.5147 4.23334,0.64286 1.8173095,0.24622 7.1803295,1.06584 11.3668095,1.73718 1.37681,0.22077 2.98415,0.46161 3.57188,0.53519 0.58773,0.0736 1.8425,0.25826 2.78839,0.41041 2.67264,0.42991 4.79601,0.75566 5.95312,0.91328 0.58209,0.0793 2.60615,0.37887 4.49792,0.66574 1.89177,0.28687 5.10646,0.75907 7.14375,1.04933 2.03729,0.29027 5.13291,0.75936 6.87916,1.04243 1.74625,0.28308 4.18704,0.64374 5.42396,0.80148 1.23693,0.15773 2.78474,0.39021 3.43959,0.51662 0.65484,0.12641 2.08359,0.35887 3.175,0.51657 4.59687,0.66422 7.88814,1.16026 9.12812,1.37573 0.7276,0.12643 2.21589,0.34132 3.30729,0.47753 4.72505,0.58968 8.53263,1.15883 19.57917,2.92662 0.94588,0.15137 3.50573,0.51376 5.688541,0.80531 2.18281,0.29155 4.14734,0.58364 4.36562,0.64909 0.46016,0.13798 7.56238,1.20393 9.12813,1.37001 0.58208,0.0617 2.18943,0.296 3.57187,0.52055 1.38245,0.22456 3.04933,0.46615 3.70417,0.53687 0.65484,0.0707 2.26219,0.29831 3.57187,0.50575 1.30969,0.20744 3.63141,0.55841 5.15938,0.77994 1.52797,0.22153 3.19484,0.50638 3.70417,0.63301 1.68478,0.41885 2.78926,0.3278 3.33243,-0.27472 z m 5.39882,-1.42527 c 1.63354,-1.09141 3.06579,-1.98438 3.18278,-1.98438 0.11698,0 0.25239,-0.0986 0.3009,-0.21908 0.0485,-0.1205 2.52897,-1.81072 5.51215,-3.75605 2.98318,-1.94533 13.60308,-8.99049 23.59979,-15.65591 9.99671,-6.66543 18.2914,-12.11895 18.43264,-12.11895 0.14124,0 0.29649,-0.10326 0.345,-0.22947 0.0485,-0.1262 0.69866,-0.63222 1.44479,-1.12448 3.76426,-2.48346 7.54535,-5.12912 7.91646,-5.53919 0.3387,-0.37426 0.42203,-1.23226 0.44557,-4.58776 0.0159,-2.27008 -0.0523,-4.20873 -0.15173,-4.30811 -0.0994,-0.0994 -0.5316,0.0787 -0.96048,0.39582 -0.42888,0.31709 -0.8334,0.57652 -0.89894,0.57652 -0.0655,0 -1.39315,0.89189 -2.95025,1.98199 -1.55711,1.09009 -2.93706,1.9165 -3.06656,1.83647 -0.12951,-0.08 -0.23546,-0.0279 -0.23546,0.11593 0,0.27876 -0.33251,0.51491 -6.48229,4.60383 -2.18281,1.45133 -4.29135,2.86239 -4.68564,3.13569 -0.39429,0.27331 -0.82232,0.49692 -0.95118,0.49692 -0.12886,0 -0.44568,0.23358 -0.70404,0.51906 -0.25835,0.28548 -0.93839,0.76334 -1.51119,1.06189 -0.5728,0.29857 -1.18354,0.66414 -1.3572,0.81239 -0.80056,0.68343 -20.30695,13.48166 -20.54804,13.48166 -0.15011,0 -0.27292,0.099 -0.27292,0.21988 0,0.12093 -0.32742,0.38402 -0.7276,0.58464 -0.40019,0.20063 -1.27934,0.75653 -1.95368,1.23534 -0.67434,0.47881 -1.34903,0.87056 -1.4993,0.87056 -0.15028,0 -0.31292,0.0998 -0.36143,0.22185 -0.0869,0.21865 -6.41209,4.54065 -6.64516,4.54065 -0.14843,0 -3.88657,2.49685 -5.42363,3.62266 -0.62298,0.45629 -1.66433,1.04825 -2.31411,1.31546 l -1.18144,0.48584 -0.001,3.4688 c -5.2e-4,1.90784 -0.0767,4.0212 -0.16924,4.69635 -0.15232,1.1113 -0.11756,1.22755 0.36704,1.22755 0.29442,0 1.87184,-0.89296 3.50538,-1.98437 z m -3.05057,-10.44805 c 0.37843,-0.14389 1.6948,-0.91779 2.92525,-1.7198 1.23046,-0.802 2.3199,-1.45819 2.42098,-1.45819 0.10107,0 0.42957,-0.22921 0.72999,-0.50936 0.30042,-0.28014 0.7194,-0.54803 0.93107,-0.59531 0.21167,-0.0473 0.64514,-0.32408 0.96327,-0.61512 0.31813,-0.29104 1.26693,-0.94589 2.10844,-1.45521 0.84151,-0.50932 2.10468,-1.31497 2.80704,-1.79033 0.70236,-0.47535 1.27702,-0.77551 1.27702,-0.66702 0,0.10849 0.2679,-0.0727 0.59532,-0.40255 0.68691,-0.6921 7.26167,-5.0329 9.11811,-6.01998 0.68855,-0.3661 1.61244,-0.96532 2.05309,-1.3316 1.09718,-0.91197 4.91671,-3.41456 5.21142,-3.41456 0.1316,0 0.3276,-0.1429 0.43554,-0.31756 0.21895,-0.35426 1.74726,-1.50446 2.56257,-1.92857 0.29104,-0.1514 0.88635,-0.50986 1.32291,-0.79658 0.43656,-0.28672 1.03677,-0.62974 1.33379,-0.76226 0.29702,-0.13252 0.69856,-0.43195 0.89229,-0.66538 0.19374,-0.23345 0.45571,-0.42444 0.58215,-0.42444 0.12645,0 0.75288,-0.38696 1.39207,-0.8599 0.6392,-0.47294 1.85066,-1.27661 2.69215,-1.78594 1.74563,-1.05657 3.10009,-1.95307 8.85026,-5.85786 2.25557,-1.5317 4.51084,-3.01318 5.01171,-3.29217 0.50086,-0.27899 1.75102,-1.13004 2.77812,-1.89122 1.0271,-0.76117 2.01629,-1.38625 2.19819,-1.38906 0.1819,-0.003 0.33073,-0.12417 0.33073,-0.26969 0,-0.14552 0.10759,-0.26458 0.23908,-0.26458 0.52388,0 2.14743,-1.7278 2.43104,-2.58714 0.27927,-0.84618 0.24534,-0.96951 -0.46093,-1.67579 -0.5287,-0.52869 -1.12607,-0.80879 -1.94881,-0.91376 -1.25795,-0.16049 -6.57261,-1.16936 -9.63142,-1.8283 -1.93707,-0.41729 -2.57395,-0.25766 -2.41742,0.60591 0.31689,1.7483 0.40988,4.03616 0.18108,4.45513 -0.1468,0.26881 -0.33847,0.82642 -0.42594,1.23913 -0.18348,0.86573 -1.33967,2.1336 -1.72723,1.89407 -0.1443,-0.0892 -0.26237,0.0105 -0.26237,0.22161 0,0.44277 -1.65125,1.16634 -3.10475,1.36049 -1.26461,0.16891 -3.92741,-1.05527 -3.86996,-1.77916 0.0202,-0.25466 -0.1095,-0.46302 -0.28826,-0.46302 -0.57932,0 -0.99049,-1.39636 -1.24654,-4.23334 -0.27905,-3.09177 -0.98793,-7.13404 -1.24545,-7.10191 -0.0918,0.0115 -0.22644,-0.002 -0.2992,-0.0287 -0.0728,-0.0273 -0.48948,-0.0925 -0.92604,-0.1451 -0.43657,-0.0525 -1.38907,-0.22052 -2.11667,-0.37328 -0.72761,-0.152757 -2.51354,-0.474641 -3.96875,-0.715296 -1.45521,-0.240657 -2.7649,-0.529624 -2.91042,-0.642151 -0.14552,-0.112525 -0.74083,-0.245462 -1.32291,-0.295413 l -1.05834,-0.09082 -0.0746,1.190625 c -0.041,0.654845 -0.14626,1.369225 -0.23382,1.587505 -0.0876,0.21828 -0.2073,0.7952 -0.26611,1.28203 -0.0588,0.48684 -0.28916,1.37981 -0.5119,1.98438 -0.22273,0.60457 -0.50411,1.48954 -0.62527,1.96661 -0.12117,0.47707 -0.33563,1.01285 -0.47658,1.19063 -0.14095,0.17777 -0.40649,0.79948 -0.59008,1.38156 -0.1836,0.58208 -0.40413,1.17739 -0.49007,1.32292 -0.0859,0.14552 -0.17803,0.40797 -0.20465,0.58323 -0.0812,0.53455 -2.45858,4.39783 -3.84826,6.25347 -2.15996,2.88421 -8.06832,8.64142 -8.86829,8.64142 -0.19074,0 -0.34681,0.0992 -0.34681,0.22043 0,0.12124 -1.27992,1.08513 -2.84427,2.14198 -1.99071,1.34489 -2.90904,2.1323 -3.0601,2.62384 -0.61952,2.01584 -1.49092,5.83205 -1.49701,6.556 -0.004,0.45465 -0.18889,1.34232 -0.41127,1.9726 -0.22237,0.63028 -0.34819,1.29223 -0.27959,1.471 0.15726,0.40982 -1.0863,2.272 -1.96192,2.93792 -1.01623,0.77285 -3.838,1.72828 -4.54319,1.5383 -1.83114,-0.49334 -2.60056,-0.78435 -2.60056,-0.98359 0,-0.12223 -0.18233,-0.22223 -0.40518,-0.22223 -0.22285,0 -0.47907,-0.20836 -0.56938,-0.46302 -0.0903,-0.25466 -0.30416,-0.64162 -0.47522,-0.8599 -0.49812,-0.63564 -0.89718,-2.44008 -0.74606,-3.37344 0.17354,-1.07177 -0.34549,-1.15458 -1.24374,-0.19843 -0.34178,0.3638 -0.70933,0.66146 -0.81678,0.66146 -0.10745,0 -0.82813,0.41671 -1.60149,0.92604 -0.77337,0.50932 -1.61017,0.92604 -1.85956,0.92604 -0.2494,0 -0.52938,0.12286 -0.62218,0.27302 -0.22119,0.3579 -2.00833,1.13316 -3.83124,1.66199 -2.10499,0.61066 -4.61924,0.97112 -6.78975,0.97341 -1.97859,0.002 -5.75444,-0.60778 -6.27175,-1.01299 -0.16498,-0.12923 -0.63819,-0.3159 -1.05157,-0.41481 -0.41339,-0.0989 -1.52097,-0.66573 -2.46131,-1.2596 l -1.70969,-1.07977 -2.565781,0.41674 c -7.61496,1.23683 -20.70994,1.53841 -25.84911,0.59531 -9.73171,-1.78589 -13.8507,-3.23636 -23.68021,-8.33878 -1.01499,-0.52687 -2.1893,-1.14514 -2.72216,-1.4332 -0.9183,-0.49643 -5.30856,-3.4267 -5.69899,-3.80377 -0.19325,-0.18664 -0.60398,-0.47455 -0.91273,-0.63979 -0.47846,-0.25606 -0.62196,-0.20723 -0.97156,0.33062 -0.73367,1.12873 -2.49981,2.90956 -3.71747,3.74838 -0.65485,0.4511 -1.25474,0.91339 -1.33311,1.02731 -0.2619,0.38071 -3.54554,1.74531 -4.87049,2.02405 -3.24104,0.68184 -9.95767,-0.62836 -11.2589,-2.19625 -0.19881,-0.23955 -0.78616,-0.65514 -1.30522,-0.92354 -2.5694,-1.3286 -4.7809,-4.9397 -5.30176,-8.6571 -0.20462,-1.46042 -0.18012,-2.3634 0.10453,-3.85109 0.3707,-1.93748 1.31516,-4.16306 1.76666,-4.16306 0.13083,0 0.23787,-0.29765 0.23787,-0.66145 0,-0.36381 -0.0637,-0.66146 -0.1416,-0.66146 -0.30616,0 -1.49207,0.90217 -2.4655395,1.87564 -0.91799,0.91799 -1.03822,1.19501 -1.16446,2.68288 -0.16756,1.97496 -0.44909,2.58475 -1.98309,4.2953 -0.1819,0.20284 -0.33072,0.49636 -0.33072,0.65228 0,0.15591 -0.16254,0.28348 -0.3612,0.28348 -0.19866,0 -0.67899,0.24998 -1.06741,0.55551 -1.16123,0.91342 -3.21659,1.33459 -4.97452003,1.01934 l -1.50833397,-0.2705 -2.315247,1.74626 c -1.273387,0.96044 -2.476622,1.97664 -2.673855,2.25824 -0.197237,0.28159 -0.479425,0.51198 -0.627089,0.51198 -0.402611,0 -1.024432,0.70125 -1.024432,1.15528 0,0.21964 0.208359,0.40113 0.46302,0.40333 0.254662,0.002 1.415521,0.12377 2.579688,0.27017 2.027541,0.25496 3.284381,0.46107 6.482289,1.06301 0.80037,0.15065 2.46724,0.39543 3.70417,0.54396 2.33485,0.28035 4.12303,0.53934 7.2760395,1.05381 1.01865,0.16621 2.17903,0.34642 2.57863,0.40046 1.62139,0.21929 4.9741,0.70307 7.34324,1.0596 6.33587,0.95349 8.13369,1.21545 8.99584,1.31078 1.90741,0.21093 7.33314,0.95459 8.86354,1.21486 0.87312,0.14849 2.06375,0.33275 2.64583,0.40945 0.58209,0.0767 1.29646,0.24132 1.5875,0.36583 0.29104,0.1245 1.95792,0.36722 3.70417,0.53939 1.74625,0.17216 5.55625,0.70378 8.46666,1.18137 2.91042,0.4776 6.42276,1.00602 7.80521,1.17428 1.38245,0.16825 3.82323,0.53634 5.42396,0.81795 1.60073,0.28162 5.23214,0.81306 8.06979,1.18097 2.83766,0.36792 5.78074,0.78097 6.54018,0.91789 0.75943,0.13692 2.06912,0.31787 2.91041,0.40211 0.84129,0.0842 2.36306,0.27168 3.3817,0.41654 1.01865,0.14486 3.99521,0.56269 6.61459,0.92852 2.61937,0.36583 5.357811,0.77917 6.085411,0.91855 0.72761,0.13938 1.97776,0.31686 2.77813,0.39442 1.59526,0.15458 3.14823,0.38028 8.33437,1.21125 3.82483,0.61285 4.24724,0.67596 5.95313,0.88952 3.19523,0.40001 7.0672,0.97906 7.54062,1.1277 0.29104,0.0914 0.94589,0.20136 1.45521,0.2444 0.50932,0.043 1.28489,0.12896 1.72348,0.19095 0.4386,0.062 1.92688,0.2579 3.3073,0.43536 1.38041,0.17745 2.74797,0.42133 3.03901,0.54194 0.72939,0.30226 1.30135,0.3005 2.10881,-0.006 z m -4.09318,-10.3998 c 0.3638,-0.14959 0.7596,-0.2498 0.87956,-0.22269 0.11995,0.0271 0.15582,-0.0515 0.0797,-0.17467 -0.0761,-0.12316 0.0754,-0.40705 0.33684,-0.63085 0.33359,-0.28564 0.43889,-0.65457 0.35329,-1.23783 -0.0671,-0.45699 -0.21496,-0.8309 -0.32864,-0.8309 -0.23766,0 0.083,-1.61123 0.42814,-2.15161 0.83302,-1.30408 0.97087,-3.25335 0.20941,-2.96115 -0.67238,0.25801 -0.39009,-0.59027 0.54691,-1.64349 0.95174,-1.06979 1.70443,-3.10671 2.23735,-6.0547 0.30816,-1.70468 0.23986,-1.98845 -0.35896,-1.49148 -0.21542,0.17879 -0.51627,0.24806 -0.66856,0.15394 -0.32625,-0.20163 -0.0133,-0.8718 1.05337,-2.25568 0.71549,-0.92827 1.79382,-4.50047 1.91686,-6.35 0.0501,-0.75326 -0.0248,-0.91153 -0.40142,-0.84829 -0.63613,0.10681 -0.58012,-0.25604 0.17522,-1.13508 0.70837,-0.82439 1.29288,-1.94579 1.62094,-3.10986 0.0308,-0.10914 0.079,-0.2282 0.10723,-0.26458 0.0282,-0.0364 0.0944,-0.3931 0.1472,-0.7927 0.0527,-0.39961 0.17757,-0.98388 0.27739,-1.29837 0.13433,-0.42325 0.0188,-0.69697 -0.44486,-1.0535 -0.34449,-0.26493 -0.47752,-0.48433 -0.29562,-0.48757 0.1819,-0.003 0.33073,-0.17856 0.33073,-0.38961 0,-0.21105 0.17008,-0.47894 0.37796,-0.59531 0.29219,-0.16357 1.35245,-2.14207 1.60216,-2.98971 0.0214,-0.0728 0.24809,-0.78713 0.50368,-1.5875 0.67588,-2.116529 0.86072,-4.233335 0.36964,-4.233335 -0.5795,0 -0.47978,-0.842259 0.18794,-1.5875 0.88897,-0.992188 2.07225,-3.161049 2.15031,-3.941355 0.0379,-0.37887 0.14272,-1.194869 0.23294,-1.813333 0.18356,-1.258289 0.0303,-1.37011 -0.80381,-0.586499 -0.48769,0.458171 -0.61895,0.482188 -0.88477,0.161896 -0.2473,-0.297979 -0.18189,-0.533342 0.31499,-1.133292 2.78442,-3.36201 4.02593,-7.031392 2.93987,-8.68894 -0.39057,-0.596077 -0.38206,-0.659165 0.13229,-0.980377 0.30234,-0.18882 0.54971,-0.428439 0.54971,-0.532495 0,-0.104053 0.29766,-0.627808 0.66146,-1.163902 0.37516,-0.552828 0.66146,-1.352791 0.66146,-1.848218 0,-0.480427 0.091,-0.929732 0.20217,-0.998452 0.1112,-0.06872 0.15709,-0.691767 0.10199,-1.384544 l -0.10018,-1.259594 -0.48458,0.641324 c -0.37802,0.50029 -0.55486,0.571278 -0.80416,0.3228 -0.24959,-0.248767 -0.17631,-0.509519 0.33458,-1.190625 1.05337,-1.404319 2.29824,-3.734279 2.44909,-4.583846 0.0768,-0.432395 0.26171,-1.427501 0.41097,-2.211347 0.14925,-0.783847 0.26872,-1.736347 0.26549,-2.116667 l -0.006,-0.691491 -0.50899,0.661458 c -0.36565,0.475166 -0.58999,0.580774 -0.79655,0.374973 -0.36185,-0.360521 -0.0717,-1.168723 0.41957,-1.168723 0.20271,0 0.36856,-0.141155 0.36856,-0.313676 0,-0.172522 0.24066,-0.569841 0.53479,-0.882933 1.00802,-1.072986 3.83507,-9.073814 3.37038,-9.538502 -0.0822,-0.08221 -0.39622,0.0046 -0.6978,0.192966 -0.43107,0.269208 -0.61726,0.2735 -0.87068,0.02008 -0.25343,-0.253423 -0.16131,-0.490461 0.43076,-1.108445 0.41421,-0.432348 0.83308,-0.736661 0.93083,-0.676254 0.14487,0.08954 1.37516,-2.042533 1.44831,-2.509898 0.0114,-0.07276 0.27551,-0.787136 0.58694,-1.5875 0.91009,-2.338914 0.9484,-2.465234 1.06312,-3.505729 0.10374,-0.940787 -0.21059,-1.323602 -0.58688,-0.714756 -0.11675,0.188912 -0.29331,0.176305 -0.55335,-0.03951 -0.32273,-0.267843 -0.23909,-0.447742 0.53998,-1.161333 0.85594,-0.784016 1.68548,-2.428021 2.10615,-4.174046 0.14897,-0.618291 0.0728,-0.77121 -0.49124,-0.985639 -0.85284,-0.324252 -0.83932,-0.490085 0.12619,-1.547185 0.43657,-0.477975 0.79375,-1.000601 0.79375,-1.161394 0,-0.160795 0.0809,-0.211415 0.17986,-0.112493 0.0989,0.09892 0.54541,-0.744437 0.99219,-1.874131 0.44678,-1.129702 0.93139,-2.232591 1.07691,-2.450872 0.14552,-0.218281 0.38593,-0.932656 0.53425,-1.5875 l 0.26966,-1.190625 -0.93112,-0.278752 c -1.5956,-0.477678 -3.23359,-0.01344 -4.43652,1.257385 -0.234,0.247208 -0.54167,0.37764 -0.68372,0.289848 -0.14205,-0.08779 -0.17655,-0.02739 -0.0767,0.134224 0.1003,0.1623 -0.10942,0.48452 -0.46849,0.719796 -0.58333,0.382209 -1.35412,1.798592 -1.25671,2.30927 0.0208,0.10914 -0.0812,0.198437 -0.22673,0.198437 -0.14552,0 -0.26458,0.219485 -0.26458,0.487746 0,0.268261 -0.24103,1.188294 -0.53561,2.04452 -0.29459,0.856226 -0.519,1.738067 -0.4987,1.95965 0.0203,0.221581 0.0156,0.462407 -0.0104,0.535167 -0.0261,0.07276 -0.0854,0.519245 -0.132,0.992188 -0.0741,0.753319 -0.006,0.859896 0.54606,0.859896 0.97202,0 0.76362,0.726535 -0.36149,1.260218 -0.71418,0.338762 -0.97313,0.617357 -0.92419,0.99427 0.0374,0.288001 -0.21328,1.570736 -0.55707,2.850522 l -0.62508,2.326884 0.55708,0.398851 0.55707,0.398849 -0.60073,0.496062 c -0.5735,0.47358 -1.5363,2.299708 -1.4328,2.717572 0.027,0.109141 -0.0699,0.198438 -0.21543,0.198438 -0.14552,0 -0.26458,0.396875 -0.26458,0.881943 0,0.485071 -0.0828,0.964766 -0.18405,1.065993 -0.20089,0.200893 -0.24821,0.374158 -0.47966,1.75623 -0.0853,0.509323 -0.2067,1.078683 -0.26979,1.26524 -0.0631,0.186561 0.1936,0.456425 0.57044,0.5997 0.55406,0.210655 0.62536,0.332554 0.3726,0.637103 -0.1719,0.207132 -0.57179,0.416346 -0.88865,0.464918 -0.31685,0.04857 -0.54633,0.234312 -0.50995,0.412758 0.0364,0.178445 -0.0269,0.324448 -0.14073,0.324448 -0.11378,0 -0.22906,0.268009 -0.25617,0.595574 -0.0271,0.327567 -0.30336,1.309833 -0.61389,2.182812 -0.31052,0.872983 -0.61582,1.983658 -0.67842,2.468171 -0.0626,0.484513 -0.28215,1.369484 -0.48787,1.9666 -0.20573,0.59712 -0.31391,1.182966 -0.24042,1.301883 0.0735,0.118914 0.003,0.216209 -0.15588,0.216209 -0.20752,0 -0.20931,0.14986 -0.006,0.529167 0.15576,0.291042 0.4576,0.529167 0.67077,0.529167 0.59288,0 0.46241,0.419264 -0.28233,0.907235 -0.36844,0.241411 -0.61334,0.530423 -0.54423,0.642249 0.0691,0.111824 -0.1049,0.553077 -0.3867,0.980562 -0.2818,0.427484 -0.51314,1.03006 -0.5141,1.339053 -10e-4,0.308994 -0.23804,1.499619 -0.52685,2.645834 -0.57417,2.278713 -0.68188,3.803816 -0.26865,3.803816 0.52524,0 0.24798,0.851053 -0.53104,1.630082 -0.4376,0.437594 -0.72726,0.906251 -0.6437,1.041458 0.0836,0.135208 -0.0418,0.912156 -0.27853,1.726557 -0.23675,0.814398 -0.48524,1.908601 -0.55219,2.431558 -0.067,0.522957 -0.2682,1.043868 -0.4472,1.157578 -0.17901,0.11371 -0.21236,0.208571 -0.0741,0.210799 0.13824,0.0021 0.10848,0.146926 -0.0661,0.321551 -0.17462,0.174625 -0.3175,0.584316 -0.3175,0.910426 0,0.326109 -0.121,0.667713 -0.2689,0.759116 -0.14789,0.0914 -0.21292,0.256765 -0.1445,0.367469 0.0684,0.110702 -0.0965,0.965679 -0.36641,1.899946 -0.26995,0.934268 -0.55037,2.201672 -0.62318,2.816458 l -0.13236,1.117791 0.74188,-0.383641 c 0.63334,-0.327517 0.76271,-0.329367 0.88424,-0.01265 0.16197,0.422098 -0.2159,0.790771 -1.08296,1.056582 -0.32742,0.100377 -0.59531,0.353073 -0.59531,0.561549 0,0.208473 -0.12609,0.379044 -0.2802,0.379044 -0.15411,0 -0.2117,0.110837 -0.12797,0.246301 0.0837,0.135467 0.0293,0.322286 -0.12099,0.415158 -0.15027,0.09287 -0.2098,0.271465 -0.1323,0.396875 0.0775,0.12541 0.0129,0.307112 -0.14346,0.40378 -0.16885,0.104352 -0.21285,0.501473 -0.10832,0.977427 0.10752,0.489537 0.0769,0.740386 -0.0786,0.644279 -0.14006,-0.08656 -0.24659,0.106904 -0.23673,0.429921 0.01,0.323014 -0.0837,1.052735 -0.20786,1.621599 -0.14975,0.685951 -0.125,1.195684 0.0735,1.513478 0.2439,0.390543 0.20236,0.531042 -0.2246,0.759542 -0.28812,0.15419 -0.50582,0.3661 -0.48377,0.47089 0.022,0.1048 -0.0949,0.51706 -0.2599,0.91613 -0.165,0.39908 -0.50137,1.55994 -0.7475,2.57969 -0.24613,1.01975 -0.51732,1.85433 -0.60263,1.85462 -0.0853,2.7e-4 -0.18643,0.4376 -0.2247,0.97178 -0.0383,0.53419 -0.23364,1.3001 -0.43415,1.70204 -0.31039,0.62219 -0.30988,0.75177 0.003,0.872 0.39253,0.15062 0.51983,1.21615 0.1453,1.21615 -0.49601,0 -1.62767,5.49057 -1.18987,5.77298 0.40428,0.26078 0.2253,0.98271 -0.41365,1.66855 -0.30526,0.32766 -0.56495,0.72213 -0.57708,0.87659 -0.0611,0.77779 -0.21143,1.56427 -0.77536,4.05545 -0.56372,2.49023 -0.57916,2.74344 -0.18553,3.04271 0.37093,0.28201 0.37941,0.39305 0.0623,0.81595 -0.20189,0.26923 -0.49405,0.41103 -0.64926,0.31511 -0.17636,-0.10901 -0.28218,0.12909 -0.28218,0.63495 0,0.44515 -0.11223,0.80937 -0.24939,0.80937 -0.13717,0 -0.20541,0.22837 -0.15166,0.50748 0.0537,0.27912 -0.0721,1.07194 -0.27978,1.76184 -0.54252,1.80268 -0.50405,3.28481 0.0855,3.29468 0.35837,0.006 0.27565,0.17833 -0.36603,0.76246 -1.21268,1.10394 -1.71517,3.23923 -1.31306,5.57979 0.0625,0.3638 0.12356,0.74202 0.13568,0.8405 0.0612,0.49669 1.29699,0.43888 2.66789,-0.12481 z m -19.03049,-0.78014 c 0.0835,-0.11701 0.5895,-0.2292 1.12448,-0.24931 0.53497,-0.0201 0.97267,-0.13407 0.97267,-0.25324 0,-0.11917 0.32742,-0.29801 0.72761,-0.39744 0.90648,-0.2252 4.62737,-2.18985 4.89074,-2.58234 0.10691,-0.15932 0.19621,-0.18193 0.19844,-0.0502 0.002,0.13169 0.23467,0.0307 0.51654,-0.22436 0.28809,-0.26072 0.65355,-0.37663 0.83463,-0.26471 0.21069,0.13021 0.25376,0.0884 0.12449,-0.12071 -0.18161,-0.29384 1.03397,-1.61291 1.48712,-1.61372 0.0993,-1.8e-4 0.25425,-0.23236 0.34426,-0.51596 0.09,-0.28359 0.39569,-0.58927 0.67929,-0.67929 0.2836,-0.09 0.51563,-0.39274 0.51563,-0.67274 0,-0.28001 0.23813,-0.65781 0.52917,-0.83957 0.29104,-0.18176 0.52917,-0.48042 0.52917,-0.6637 0,-0.18328 0.1105,-0.33323 0.24557,-0.33323 0.60982,0 1.45805,-3.10203 3.07481,-11.24479 0.52008,-2.61938 1.07136,-5.01904 1.22507,-5.33259 0.1537,-0.31354 0.20394,-0.69227 0.11165,-0.84161 -0.0923,-0.14934 -0.0651,-0.33504 0.0606,-0.41267 0.1256,-0.0776 0.23866,-0.50338 0.25125,-0.94613 0.0284,-0.99834 0.85015,-4.80736 1.11474,-5.167 0.10706,-0.14552 0.26364,-0.9678 0.34795,-1.82729 0.0843,-0.85949 0.24927,-1.6334 0.36658,-1.71979 0.11731,-0.0864 0.2173,-0.27615 0.22221,-0.42167 0.0216,-0.63981 0.46939,-2.68396 0.67306,-3.07242 0.12302,-0.23462 0.29346,-0.829929 0.37877,-1.322914 0.0853,-0.492984 0.58067,-2.741805 1.10082,-4.997378 0.52016,-2.255573 1.06081,-4.696354 1.20145,-5.423958 0.14065,-0.727604 0.36629,-1.456653 0.50143,-1.62011 0.13514,-0.163457 0.17601,-0.478835 0.0908,-0.700841 -0.0852,-0.222007 -0.0258,-0.48345 0.13204,-0.580986 0.15782,-0.09753 0.21522,-0.293385 0.12755,-0.435226 -0.0877,-0.14184 -0.0259,-0.418737 0.13726,-0.615325 0.16316,-0.196591 0.27837,-0.459267 0.25603,-0.583724 -0.0223,-0.124458 -0.0166,-0.285819 0.0128,-0.358579 0.0294,-0.07276 0.0832,-0.370417 0.1196,-0.661459 0.0819,-0.654206 0.91923,-4.088656 1.12891,-4.630208 0.0845,-0.218281 0.1911,-0.681424 0.23686,-1.029202 0.0458,-0.347782 0.16734,-0.824032 0.27017,-1.058334 0.10283,-0.234304 0.2044,-0.545068 0.2257,-0.690589 0.16207,-1.107326 0.51038,-2.280203 0.71463,-2.406438 0.13494,-0.0834 0.17614,-0.369721 0.0915,-0.63627 -0.0846,-0.266549 -0.0299,-0.56121 0.12152,-0.654807 0.15146,-0.0936 0.27536,-0.527142 0.27536,-0.963437 0,-0.769718 0.41738,-2.868197 0.73064,-3.673422 0.0849,-0.218281 0.18501,-0.635 0.22243,-0.926042 0.0374,-0.291042 0.18664,-1.052216 0.33161,-1.6915 0.25227,-1.112453 0.22035,-1.220319 -0.74381,-2.513541 -1.15344,-1.547085 -7.71072,-8.155114 -11.56313,-11.652615 -1.43208,-1.300149 -2.8419,-2.697077 -3.13295,-3.104282 -0.29104,-0.407207 -0.64822,-0.744815 -0.79375,-0.750242 -0.39593,-0.01476 -8.59861,-8.113511 -8.40933,-8.302786 0.0897,-0.08974 0.0242,-0.163157 -0.14553,-0.163157 -0.16977,0 -0.51704,-0.218721 -0.7717,-0.486045 -4.79199,-5.03029 -6.7701,-7.357383 -6.55283,-7.708921 0.0923,-0.149437 -0.008,-0.271701 -0.22341,-0.271701 -0.39795,0 -3.07949,-2.826083 -3.07949,-3.245477 0,-0.126187 -0.41568,-0.667967 -0.92374,-1.203954 -0.50807,-0.535991 -0.92478,-1.123355 -0.92605,-1.305256 -10e-4,-0.181901 -0.0971,-0.330729 -0.21295,-0.330729 -0.23038,0 -4.15496,-5.207421 -4.15496,-5.513104 0,-0.220128 -0.52529,-0.86188 -1.45521,-1.777865 -0.3638,-0.358349 -0.66146,-0.743665 -0.66146,-0.856255 0,-0.407594 -3.136781,-3.033435 -4.200981,-3.516696 -0.64494,-0.292873 -1.68541,-0.49462 -2.5459,-0.493649 -2.56817,0.0029 -4.79581,1.537398 -7.9375,5.467712 -1.0914,1.365372 -2.19273,2.599901 -2.44739,2.743401 -0.25466,0.143499 -0.46302,0.393284 -0.46302,0.555077 0,0.487159 -1.54283,2.325836 -6.3558,7.57456 -3.2304,3.522869 -6.28031,6.400152 -6.78415,6.400152 -0.17325,0 -0.3535,0.160192 -0.40055,0.355981 -0.10111,0.420743 -3.59613,3.39209 -5.11263,4.346572 -0.58208,0.366366 -1.15354,0.827384 -1.26991,1.02449 -0.11638,0.197104 -0.38427,0.358373 -0.59532,0.358373 -0.21105,0 -0.38384,0.0893 -0.38397,0.198438 -1.4e-4,0.10914 -1.14616,1.031875 -2.54671,2.05052 -4.80158,3.492278 -10.28568,7.60549 -11.24337,8.432803 -0.52692,0.455186 -1.3718,1.184801 -1.8775,1.621363 -0.50571,0.436563 -1.9796,1.771378 -3.2753,2.966257 -1.29571,1.19488 -2.47489,2.185631 -2.62041,2.201667 -0.39794,0.04386 -1.19496,0.82873 -1.06125,1.045075 0.17512,0.283355 -0.91637,1.363033 -1.20046,1.18746 -0.13517,-0.08355 -0.18237,0.01333 -0.10488,0.215263 0.084,0.2188 -0.44541,0.907904 -1.31004,1.705348 -0.79801,0.735999 -1.3917,1.397407 -1.31931,1.469794 0.0724,0.07239 -0.23243,0.390838 -0.67737,0.707663 -0.44494,0.316825 -0.80899,0.699582 -0.80899,0.850567 0,0.150984 -0.26789,0.607872 -0.59531,1.015306 -0.32742,0.407435 -1.13109,1.520883 -1.78594,2.474328 -0.65484,0.953444 -1.27992,1.738606 -1.38906,1.7448 -0.10914,0.0062 -0.19844,0.189857 -0.19844,0.408138 0,0.218281 -0.10615,0.396875 -0.2359,0.396875 -0.12974,0 -0.30373,0.270259 -0.38663,0.600578 -0.0829,0.330316 -0.3789,0.845486 -0.65778,1.144818 -0.27887,0.299333 -0.58915,0.802981 -0.68952,1.119213 -0.10037,0.316236 -0.30056,0.574974 -0.44486,0.574974 -0.1443,0 -0.19331,0.111745 -0.1089,0.248322 0.0844,0.136578 0.002,0.344938 -0.18282,0.463021 -0.18496,0.118084 -0.47407,0.571886 -0.64246,1.008449 -0.1684,0.436562 -0.91915,2.142696 -1.66834,3.791408 -3.21885,7.083588 -4.59917,13.674441 -3.96027,18.90987 0.28504,2.335818 0.45529,3.021518 1.45834,5.873728 l 0.65134,1.85208 2.13059,0.0511 c 2.16087,0.0518 5.22219,0.84554 5.75984,1.49338 0.5317,0.64066 0.53572,1.67017 0.008,2.12177 -0.61717,0.52844 -1.67854,0.55506 -3.04817,0.0765 -4.06768,-1.42141 -9.41179,-0.34753 -12.2487,2.46135 -1.56947,1.55397 -2.82728,3.00803 -2.70647,3.12875 0.0399,0.0398 -0.18572,0.75419 -0.50126,1.5875 -0.6743,1.78076 -0.80885,4.91698 -0.28067,6.5422 0.56273,1.73153 1.42781,3.57187 1.67902,3.57187 0.12897,0 0.53505,0.35719 0.90239,0.79375 0.36735,0.43657 0.83591,0.79375 1.04126,0.79375 0.20534,0 0.37335,0.11907 0.37335,0.26459 0,0.14552 0.16402,0.26458 0.36448,0.26458 0.20046,0 0.506,0.17052 0.67897,0.37894 0.17297,0.20842 1.39418,0.63242 2.71378,0.94223 3.25593,0.7644 5.64671,0.66465 7.69021,-0.32086 0.83907,-0.40465 1.61858,-0.73573 1.73224,-0.73573 0.11368,0 0.66691,-0.47132 1.22941,-1.04737 0.56251,-0.57606 1.12245,-0.98575 1.24432,-0.91043 0.12188,0.0753 0.22159,-0.0487 0.22159,-0.27554 0,-0.22687 0.10839,-0.41249 0.24087,-0.41249 0.32823,0 2.20166,-3.03131 2.77983,-4.49792 0.7652,-1.94105 0.91297,-4.45547 0.42024,-7.1508 -0.29247,-1.59989 -0.95569,-3.38615 -1.37492,-3.70315 -0.10063,-0.0761 -0.36449,-0.48826 -0.58638,-0.91595 -0.31041,-0.59831 -0.32923,-0.82477 -0.0816,-0.9821 0.50597,-0.32151 1.25465,-0.24666 1.18169,0.11815 -0.0364,0.1819 0.0875,0.29935 0.2753,0.26101 0.52066,-0.10631 1.37834,0.43678 1.37834,0.87278 0,0.21316 0.11405,0.38756 0.25343,0.38756 0.40042,0 1.61228,2.24675 2.15852,4.0018 0.58456,1.87821 0.62968,4.18257 0.12873,6.57453 -0.30375,1.45039 -0.30277,1.79816 0.006,2.27008 0.20083,0.30651 0.27906,0.64338 0.17385,0.74859 -0.10522,0.10522 -0.009,0.1215 0.21296,0.0362 0.22234,-0.0853 0.68342,0.087 1.02461,0.38289 0.34119,0.29592 0.78774,0.53803 0.99235,0.53803 0.2046,0 0.29842,0.11906 0.20848,0.26458 -0.0899,0.14552 0.0136,0.26458 0.23007,0.26458 0.21648,0 0.57644,0.18285 0.79992,0.40633 0.22348,0.22348 0.47229,0.39833 0.55293,0.38857 0.25532,-0.0309 2.61973,1.42337 3.10802,1.91167 0.25763,0.25764 0.58749,0.46843 0.73301,0.46843 0.45887,0 0.65163,0.0847 1.01108,0.44412 0.1923,0.1923 0.51972,0.34963 0.72761,0.34963 0.20788,0 0.37797,0.13891 0.37797,0.30868 0,0.16978 0.0793,0.22939 0.17621,0.13248 0.0969,-0.0969 1.0438,0.29996 2.1042,0.88194 1.0604,0.58199 2.06005,1.05815 2.22143,1.05815 0.16139,0 0.97067,0.32426 1.7984,0.72057 0.82774,0.39632 1.59427,0.73862 1.70341,0.76068 0.10914,0.0221 0.25797,0.0699 0.33073,0.10625 0.0728,0.0364 0.22159,0.0907 0.33073,0.12079 0.10914,0.0301 0.55562,0.15257 0.99218,0.27225 0.43657,0.11969 0.85826,0.31501 0.93709,0.43406 0.34157,0.5158 8.00095,2.31934 12.95354,3.05014 1.63636,0.24146 14.36466,0.30395 16.00729,0.0786 0.87312,-0.11979 2.36141,-0.29131 3.30729,-0.38116 4.05453,-0.38512 3.96325,-0.35414 3.78981,-1.28622 -0.0853,-0.45828 -0.38535,-1.21709 -0.66683,-1.68623 -0.28148,-0.46915 -0.5412,-1.12903 -0.57717,-1.4664 -0.036,-0.33738 -0.13982,-0.73382 -0.23078,-0.88099 -0.32236,-0.52161 -0.0671,-5.58064 0.30421,-6.02799 0.19578,-0.23591 0.27767,-0.42892 0.18197,-0.42892 -0.0957,0 -0.0252,-0.26789 0.15667,-0.59531 0.18186,-0.32742 0.33488,-0.67866 0.34004,-0.78052 0.005,-0.10187 0.1582,-0.33404 0.3401,-0.51594 0.1819,-0.1819 0.33073,-0.4866 0.33073,-0.6771 0,-0.1905 0.35719,-0.72013 0.79375,-1.17695 0.43656,-0.45682 0.79375,-0.95056 0.79375,-1.0972 0,-0.33865 1.988881,-2.30073 2.332171,-2.30073 0.14138,0 0.33032,-0.19095 0.41988,-0.42433 0.0923,-0.24041 0.3325,-0.35922 0.5543,-0.2741 0.21809,0.0837 0.36358,0.0155 0.3285,-0.15406 -0.10234,-0.49447 3.07261,-2.19082 4.67876,-2.49982 0.27962,-0.0538 0.66657,-0.22908 0.8599,-0.38952 0.19332,-0.16044 0.35149,-0.20303 0.35149,-0.0946 0,0.1084 0.17859,0.0489 0.39688,-0.13229 0.21828,-0.18116 0.39687,-0.24069 0.39687,-0.13229 0,0.1084 0.14883,0.0756 0.33073,-0.0728 1.0059,-0.82083 7.14735,-1.03913 10.45348,-0.37158 1.28063,0.25857 3.4742,1.26523 3.52478,1.61757 0.25233,1.75751 -0.19286,2.53547 -1.32093,2.30825 -0.37671,-0.0759 -1.63744,-0.39148 -2.8016,-0.70133 -3.9654,-1.05542 -9.75014,-0.15932 -13.72721,2.12644 -1.00152,0.57561 -1.89449,1.05625 -1.98437,1.0681 -0.0899,0.0119 -0.6992,0.6477 -1.35405,1.41302 -0.65484,0.76532 -1.30968,1.33185 -1.4552,1.25896 -0.14553,-0.0729 -0.17687,-0.0356 -0.0697,0.0828 0.18989,0.20973 -0.72633,1.95703 -1.19575,2.28037 -0.129251,0.089 -0.205811,0.20809 -0.170141,0.26458 0.0357,0.0565 -0.0891,0.74445 -0.27726,1.52879 -0.7808,3.25477 0.30443,7.10707 2.704991,9.60206 0.25466,0.26468 0.46302,0.65983 0.46302,0.87811 0,0.21828 0.11907,0.39688 0.26459,0.39688 0.14552,0 0.26458,-0.12757 0.26458,-0.28349 0,-0.15591 0.20089,-0.0826 0.44641,0.16293 0.55965,0.55965 2.45374,1.39974 4.1838,1.85563 1.43946,0.37932 8.35521,0.4215 8.61847,0.0526 z M 70.924829,104.63929 c -0.70813,-0.25684 -1.80518,-0.97639 -2.45973,-1.61334 -2.32826,-2.26566 -3.12857,-4.93364 -2.9708,-9.903687 0.14064,-4.43055 0.85791,-5.18959 3.83281,-4.056025 1.2356,0.470821 4.80021,0.97001 6.92663,0.97001 0.7803,0 2.17439,-0.201356 3.09799,-0.44746 3.07869,-0.820354 3.65429,0.174103 3.08464,5.329335 -0.53792,4.868148 -2.15539,7.959707 -4.90466,9.374527 -1.68044,0.86479 -4.73623,1.02511 -6.60688,0.34664 z m 5.172,-2.82908 c 0.39234,-0.3638 0.82959,-0.66146 0.97166,-0.66146 0.14206,0 0.32939,-0.22398 0.41627,-0.49774 0.0869,-0.27376 0.39257,-0.768227 0.67929,-1.098819 0.28672,-0.330591 0.52304,-0.79122 0.52516,-1.023615 0.002,-0.232394 0.16572,-0.898786 0.36356,-1.48087 0.63386,-1.864936 0.74039,-2.955443 0.32893,-3.366904 -0.52581,-0.525818 -5.17666,-0.569765 -6.20131,-0.0586 -0.40848,0.203777 -0.97407,0.410361 -1.25688,0.459078 -0.2828,0.04872 -0.93091,0.348695 -1.44023,0.666618 -0.50932,0.317923 -1.06747,0.578488 -1.24033,0.57903 -0.17286,5.29e-4 -0.31967,0.209349 -0.32625,0.464011 -0.007,0.254661 -0.0218,0.855807 -0.0338,1.335878 -0.0448,1.794708 1.92249,4.647743 3.43235,4.977643 0.37485,0.0819 0.8006,0.18863 0.94612,0.23717 0.93137,0.31069 2.17955,0.0768 2.83543,-0.53142 z M 102.83688,88.10198 c -2.62696,-2.849909 -7.018001,-3.085356 -9.819571,-0.526523 -1.11827,1.021384 -2.26857,1.094486 -2.86635,0.18216 -0.60447,-0.922541 -0.34285,-4.699571 0.47242,-6.820196 0.79751,-2.074468 3.04484,-4.395933 4.85146,-5.01151 3.56211,-1.213731 7.286241,-0.04835 9.368601,2.931692 0.33048,0.472943 0.50347,0.861719 0.38442,0.863947 -0.11905,0.0021 -0.0816,0.09152 0.0831,0.198437 0.9595,0.622562 1.56879,6.084676 0.88064,7.894664 -0.66185,1.74077 -1.916,1.848186 -3.35475,0.287329 z m 0.27692,-5.750112 c 0.73472,-0.577935 1.1382,-1.957097 0.84386,-2.884477 -0.49791,-1.568786 -2.43371,-2.329461 -3.74373,-1.471102 -1.584621,1.038288 -1.562921,3.316253 0.0417,4.373943 1.01253,0.667422 1.99436,0.661112 2.85818,-0.01836 z m -45.216791,4.339576 c -0.42636,-0.529958 -0.83472,-1.052716 -0.90748,-1.161687 -0.40231,-0.602528 -2.65809,-1.439183 -4.13364,-1.533139 -2.06157,-0.13127 -3.24825,0.25935 -4.7583,1.566296 -1.5551,1.345922 -2.21548,1.356037 -2.94816,0.04515 -0.43068,-0.770543 -0.41208,-2.156005 0.0588,-4.378031 0.36165,-1.706705 1.28841,-3.807407 1.85946,-4.214868 0.14553,-0.10383 0.26459,-0.282424 0.26459,-0.396875 0,-0.300537 1.14253,-1.398712 1.45521,-1.398712 0.14552,0 0.26458,-0.138906 0.26458,-0.308681 0,-0.169773 0.0759,-0.232823 0.16857,-0.140108 0.0927,0.09272 0.53564,-0.0928 0.98428,-0.412263 0.66523,-0.473686 1.18324,-0.581284 2.80799,-0.583258 2.25348,-0.0028 3.61092,0.383212 4.6125,1.31145 0.37789,0.350218 0.68708,0.564396 0.68708,0.475948 0,-0.315627 1.36376,1.393407 1.83753,2.302746 1.06283,2.039969 1.37801,6.907781 0.54771,8.459205 -0.84451,1.577982 -1.73271,1.694314 -2.80068,0.366823 z m 0.39125,-6.551329 c 0.5036,-0.536056 1.23042,-3.115498 0.84254,-2.990162 -0.0919,0.0297 -0.4601,-0.218493 -0.8182,-0.551548 -0.86781,-0.807119 -1.68915,-0.981405 -2.68367,-0.569465 -1.47599,0.611375 -1.92226,3.030045 -0.75413,4.087188 0.56084,0.507553 1.80848,0.879613 2.42275,0.72249 0.24217,-0.06194 0.68799,-0.37627 0.99071,-0.698503 z m 87.733561,43.553305 c 0.14552,-0.11933 0.38364,-0.26674 0.52916,-0.32758 0.38583,-0.1613 1.45768,-1.06558 2.34276,-1.97647 0.42419,-0.43656 0.90052,-0.79375 1.05852,-0.79375 0.15799,0 0.43566,-0.29765 0.61703,-0.66145 0.18138,-0.36381 0.44277,-0.66146 0.58087,-0.66146 0.13811,0 0.48344,-0.26789 0.76741,-0.59531 0.28397,-0.32743 0.65821,-0.59532 0.83162,-0.59532 0.17343,0 0.24355,-0.11611 0.15584,-0.25802 -0.0877,-0.14192 0.23269,-0.66409 0.71199,-1.16039 1.09445,-1.13324 1.53292,-1.68263 1.53292,-1.92069 0,-0.20022 1.5991,-2.79098 1.85842,-3.0109 0.0858,-0.0728 0.31251,-0.51924 0.5038,-0.99218 0.1913,-0.47295 0.43259,-0.8599 0.5362,-0.8599 0.10361,0 0.19167,-0.14883 0.19567,-0.33073 0.004,-0.1819 0.30498,-0.98557 0.66883,-1.78594 1.10469,-2.42996 1.25194,-2.86353 1.82712,-5.37949 1.46926,-6.426939 0.71102,-13.304404 -2.2984,-20.847061 -0.50071,-1.254972 -0.91039,-2.475362 -0.91039,-2.711979 0,-0.23662 -0.11797,-0.430218 -0.26215,-0.430218 -0.14418,0 -0.53114,-0.415245 -0.8599,-0.922766 -0.32875,-0.507521 -0.67315,-0.92424 -0.76532,-0.926042 -0.25632,-0.005 -0.55369,1.067806 -0.62247,2.245683 -0.11676,1.999567 -5.21694,22.931403 -6.15665,25.267713 -0.0878,0.21828 -0.18237,0.57547 -0.21017,0.79375 -0.10179,0.79939 -2.33453,9.13221 -2.48128,9.26041 -0.0833,0.0728 -0.17684,0.48155 -0.20789,0.90841 -0.031,0.42686 -0.14169,0.96264 -0.24587,1.19062 -0.10418,0.22798 -0.22338,0.59311 -0.26488,0.81139 -0.51799,2.72416 -0.93882,4.61101 -1.39415,6.25087 -0.51573,1.85739 -0.42407,2.02463 0.70459,1.28551 0.5457,-0.35737 1.11125,-0.74739 1.25677,-0.86671 z M 2.8898695,121.994 c 0.11523,0.10402 0.12915,0.0489 0.031,-0.12255 -0.10197,-0.17801 0.0296,-0.37774 0.30666,-0.46569 1.06925,-0.33936 1.62676,-1.64714 2.43361,-5.70857 0.92394,-4.65083 0.91035,-4.49427 0.39005,-4.49427 -0.34744,0 -0.33979,-0.10027 0.0556,-0.72761 0.25219,-0.40018 0.71501,-0.99555 1.02848,-1.32305 0.31348,-0.32749 0.64098,-1.1014 0.72779,-1.71979 0.0868,-0.61839 0.23692,-1.5113 0.3336,-1.98424 0.13763,-0.67331 0.0876,-0.8599 -0.23076,-0.8599 -0.57817,0 -0.40472,-0.66924 0.39394,-1.51996 1.37661,-1.46634 2.4512295,-4.614956 2.2478095,-6.585994 -0.13648,-1.3223 -0.0865,-1.486466 0.76066,-2.500497 0.4987,-0.596903 0.90673,-1.178539 0.90673,-1.292519 0,-0.11398 0.20071,-0.668263 0.44602,-1.231738 0.24532,-0.563473 0.42529,-1.109665 0.39994,-1.213758 -0.0253,-0.104092 0.0644,-0.479742 0.19933,-0.834776 0.13499,-0.355034 0.3107,-1.200481 0.39047,-1.878767 0.15317,-1.302408 0.43828,-2.011574 0.83698,-2.081842 0.13244,-0.02334 0.21714,-0.451096 0.18821,-0.950566 -0.0373,-0.643792 0.23157,-1.375423 0.92364,-2.513541 0.53693,-0.882978 1.03684,-1.664946 1.11092,-1.737707 0.15459,-0.151831 0.25494,-0.548904 0.46806,-1.852083 0.13264,-0.811054 0.10087,-0.884407 -0.25586,-0.590748 -0.22402,0.184412 -0.61986,0.253733 -0.87964,0.154043 -0.42907,-0.16465 -0.41266,-0.231712 0.17917,-0.732168 0.35833,-0.303006 0.84896,-0.848575 1.09028,-1.212377 0.24133,-0.363802 0.91952,-1.358079 1.50709,-2.209503 0.58757,-0.851427 1.0683,-1.656715 1.0683,-1.789528 0,-0.132816 0.11229,-0.448225 0.24952,-0.700913 0.55624,-1.024202 1.28855,-3.902038 1.08534,-4.265163 -0.14165,-0.2531 0.0877,-0.801131 0.68098,-1.626859 1.04358,-1.452581 1.11875,-1.987695 0.30896,-2.199457 -0.55945,-0.146302 -0.5391,-0.199938 0.45572,-1.20073 0.57274,-0.576175 1.11505,-1.002037 1.20513,-0.946364 0.0901,0.05567 0.70867,-0.995463 1.37464,-2.335858 1.3221,-2.660959 1.93394,-5.35787 1.14701,-5.055899 -0.63359,0.243129 -0.50946,-0.352573 0.24234,-1.163042 0.36533,-0.393832 0.60114,-0.880655 0.52403,-1.081828 -0.0771,-0.201173 0.34797,-0.998532 0.94463,-1.771907 0.59665,-0.773377 1.11226,-1.561279 1.14578,-1.750898 0.15071,-0.85235 0.48525,-1.535383 0.75202,-1.535383 0.15997,0 0.21622,-0.07462 0.12501,-0.165835 -0.0912,-0.09121 0.0152,-0.515988 0.23654,-0.943951 0.45245,-0.874938 0.3945,-1.967392 -0.099,-1.866776 -0.5988,0.122079 -0.33202,-0.910021 0.50352,-1.947995 1.1576,-1.438063 2.44965,-3.560944 2.54415,-4.180099 0.0437,-0.286276 0.13653,-0.577601 0.20631,-0.64739 0.0698,-0.06979 -0.0526,-0.325205 -0.27194,-0.567595 -0.36109,-0.398991 -0.29853,-0.533524 0.66088,-1.421198 0.58284,-0.539269 1.05971,-1.16131 1.05971,-1.382313 0,-0.221004 0.11907,-0.328242 0.26459,-0.238305 0.14552,0.08994 0.26458,-0.05782 0.26458,-0.328343 0,-0.270526 0.14288,-0.634741 0.3175,-0.809366 0.17463,-0.174625 0.24581,-0.3175 0.15819,-0.3175 -0.0876,0 10e-4,-0.532823 0.19703,-1.184052 0.19599,-0.65123 0.26118,-1.242872 0.14486,-1.31476 -0.31007,-0.191635 -5.37406,2.51002 -6.30244,3.362373 -0.58969,0.541395 -1.77905,2.576023 -1.50584,2.576023 0.0795,0 -0.17605,0.589063 -0.5679,1.309028 -0.45084,0.828345 -0.65621,1.524148 -0.55927,1.894859 0.16984,0.649454 -0.24846,1.651852 -0.59893,1.43525 -0.20446,-0.126365 -0.55037,0.428512 -0.51378,0.824162 0.008,0.09134 -0.12179,0.25084 -0.28941,0.354438 -0.16763,0.103598 -0.33184,0.37279 -0.36492,0.598202 -0.0331,0.225414 -0.1886,0.570682 -0.34558,0.767265 -0.43791,0.548365 -1.40539,2.870433 -1.19786,2.875013 0.10096,0.0021 0.0126,0.112217 -0.1963,0.244419 -0.26751,0.16927 -0.30092,0.344154 -0.11296,0.591259 0.49707,0.653486 0.35084,1.460997 -0.31992,1.766615 -0.57905,0.263835 -0.76516,0.585335 -0.6738,1.163968 0.0172,0.109141 -0.0877,0.198438 -0.23325,0.198438 -0.14552,0 -0.26459,0.170844 -0.26459,0.37965 0,0.208809 -0.13829,0.714825 -0.3073,1.124479 -0.16902,0.409657 -0.28809,0.834126 -0.26459,0.943266 0.0235,0.109141 -0.0834,0.198438 -0.23747,0.198438 -0.15411,0 -0.2093,0.114721 -0.12264,0.254934 0.0867,0.14021 -0.0594,0.471887 -0.32457,0.737052 -0.26516,0.265166 -0.49316,0.715994 -0.50667,1.001837 -0.0135,0.285845 -0.11558,0.917432 -0.22684,1.403525 -0.19852,0.867351 -0.18693,0.882197 0.62274,0.797266 1.08385,-0.113689 1.10895,0.298513 0.0527,0.865007 -1.17222,0.628669 -1.86032,1.295075 -1.86032,1.801681 0,0.236108 -0.17438,0.678264 -0.38753,0.982569 -0.21314,0.304306 -0.31236,0.628455 -0.22049,0.720331 0.0919,0.09188 0.0154,0.167047 -0.16994,0.167047 -0.19084,0 -0.27094,0.172117 -0.18469,0.396875 0.0838,0.218282 0.0242,0.396875 -0.13229,0.396875 -0.15652,0 -0.22162,0.164087 -0.14466,0.364633 0.0769,0.200549 0.0167,0.487847 -0.13388,0.63844 -0.40074,0.400735 -0.50267,2.449827 -0.12733,2.559605 1.41384,0.413518 1.41304,0.412409 0.64051,0.88115 -0.39996,0.242681 -0.7272,0.532723 -0.7272,0.644538 0,0.111816 -0.22423,0.203301 -0.4983,0.203301 -0.28298,0 -0.58201,0.257244 -0.69202,0.595312 -0.10653,0.327422 -0.21479,0.654844 -0.24058,0.727604 -0.58091,1.639425 -0.69963,2.244958 -0.56253,2.869174 0.11482,0.522769 0.0355,0.858033 -0.26121,1.104294 -0.41193,0.341876 -1.17779,1.632 -1.2128,2.04303 -0.009,0.110665 -0.14065,0.350039 -0.29162,0.53194 -0.15096,0.181901 -0.20746,0.330729 -0.12555,0.330729 0.0819,0 -0.14164,0.854292 -0.49677,1.898425 -0.76933,2.261915 -0.81431,3.049783 -0.18268,3.199907 0.37936,0.09016 0.34351,0.159893 -0.19844,0.385911 -0.77404,0.322816 -1.74483,1.325779 -1.51028,1.560335 0.0892,0.08919 -0.0176,0.34194 -0.23732,0.56166 -0.21972,0.219721 -0.33766,0.560637 -0.26208,0.75759 0.0756,0.196956 -0.042,0.866214 -0.26121,1.487241 -0.21925,0.621025 -0.33722,1.374267 -0.26215,1.673868 0.0905,0.361016 -0.11653,0.821745 -0.6137395,1.36612 -0.55183,0.604171 -0.78411,1.173925 -0.87832,2.15441 -0.0716,0.74527 -0.008,1.453388 0.14493,1.606028 0.34065,0.340643 0.13418,0.562528 -0.573,0.6158 -0.47855,0.03605 -0.63534,0.283294 -0.96271,1.51812 -0.0193,0.07276 -0.24828,0.843026 -0.50886,1.711704 -0.26936,0.897911 -0.36575,1.615424 -0.22339,1.662874 0.30783,0.102613 0.0923,1.387922 -0.23271,1.387922 -0.12856,0 -0.23736,-0.148828 -0.24178,-0.330729 -0.0117,-0.479607 -0.53965,0.504219 -0.67696,1.261422 -0.0641,0.353642 -0.24986,0.973516 -0.41274,1.377496 -0.16288,0.40399 -0.34008,1.0745 -0.39378,1.49003 -0.0537,0.41553 -0.29951,1.18094 -0.54625,1.7009 -0.61051,1.28655 -0.62691,1.90922 -0.0503,1.90922 0.25813,0 0.54614,0.12427 0.64002,0.27617 0.22956,0.37145 -0.35873,1.04752 -0.77313,0.8885 -0.44535,-0.1709 -0.76217,0.60607 -1.50053,3.67994 -0.51465,2.14256 -0.56081,2.63439 -0.26442,2.81757 0.42546,0.26294 0.17788,1.10448 -0.29578,1.00538 -0.18933,-0.0396 -0.42924,0.37858 -0.56778,0.98973 -0.13195,0.58208 -0.30672,1.23693 -0.38838003,1.45521 -0.16712,0.4467 -0.22515,0.74091 -0.44363,2.24895 -0.0843,0.58209 -0.20695,1.23693 -0.27249,1.45521 -0.2302,0.76673 1.29142003,1.94904 2.01679003,1.56705 0.23553,-0.12403 0.52251,-0.14041 0.63773,-0.0364 z M 10.687449,110.98 c 0,-0.12261 0.41672,-0.44734 0.92604,-0.72163 0.50932,-0.27429 0.92604,-0.57619 0.92604,-0.67088 0,-0.15913 4.55956,-3.73782 5.5266,-4.3377 0.23459,-0.14552 0.514,-0.38364 0.62091,-0.52916 0.10692,-0.14553 0.19621,-0.1807 0.19844,-0.0782 0.002,0.10253 0.30848,-0.11801 0.68056,-0.49009 l 0.67651,-0.67651 -0.4481,-1.89115 c -0.53063,-2.239442 -0.60072,-8.102265 -0.12859,-10.754702 0.35398,-1.988695 1.53887,-6.236401 1.95583,-7.011458 0.15657,-0.291041 0.31626,-0.716203 0.35487,-0.944806 0.0386,-0.228602 0.25205,-0.764383 0.47433,-1.190625 0.22227,-0.426241 0.40486,-0.926785 0.40576,-1.112318 8e-4,-0.185534 0.44188,-1.197565 0.97995,-2.248959 0.53808,-1.051393 0.9548,-2.000922 0.92605,-2.110062 -0.0288,-0.109141 0.0738,-0.198438 0.22791,-0.198438 0.15411,0 0.2093,-0.11472 0.12264,-0.254934 -0.0867,-0.14021 0.0551,-0.467632 0.31512,-0.727604 0.25997,-0.259969 0.47791,-0.591732 0.48431,-0.737253 0.0207,-0.469913 0.72744,-1.719792 0.97248,-1.719792 0.13076,0 0.16415,-0.119062 0.0742,-0.264583 -0.0899,-0.145521 -0.0397,-0.264583 0.11164,-0.264583 0.15133,0 0.34986,-0.297657 0.44117,-0.661459 0.0913,-0.363802 0.2792,-0.661458 0.41753,-0.661458 0.13834,0 0.18908,-0.101031 0.11276,-0.224515 -0.0763,-0.123481 0.0952,-0.475692 0.38126,-0.782685 0.28601,-0.306996 0.52002,-0.664829 0.52002,-0.795184 0,-0.130358 0.29197,-0.552053 0.64882,-0.937107 0.35686,-0.38505 0.56522,-0.701915 0.46302,-0.704143 -0.10219,-0.0021 -0.064,-0.09153 0.0849,-0.198438 0.14889,-0.106912 0.49276,-0.542729 0.76417,-0.968478 0.53795,-0.843872 0.77238,-1.125497 2.82449,-3.393096 0.75723,-0.836744 1.32238,-1.521354 1.2559,-1.521354 -0.14156,0 1.97462,-2.388491 3.9087,-4.411675 l 1.35104,-1.413283 -0.4866,-2.31304 c -0.26763,-1.272175 -0.48864,-2.642081 -0.49114,-3.044237 -0.002,-0.402156 -0.11689,-0.937938 -0.2542,-1.190625 -0.13732,-0.252688 -0.74451,-2.662087 -1.34931,-5.354222 -0.60481,-2.692135 -1.13736,-4.934453 -1.18344,-4.982927 -0.11043,-0.116155 -1.23728,2.331966 -1.35897,2.952401 -0.0521,0.265657 -0.23722,0.741907 -0.41135,1.058333 -0.17414,0.316423 -0.34252,0.730631 -0.37419,0.920462 -0.0582,0.348628 -2.16214,6.124797 -2.76554,7.592356 -0.17949,0.436562 -0.35572,0.912812 -0.3916,1.058333 -0.2063,0.836485 -1.81435,5.067477 -2.00616,5.278437 -0.12569,0.138245 -0.22853,0.409808 -0.22853,0.603472 0,0.193667 -0.52868,1.62837 -1.17485,3.188229 -0.64616,1.559862 -2.32188,5.753142 -3.72382,9.318403 -1.40193,3.56526 -2.77006,6.916729 -3.04028,7.447708 -0.27023,0.530982 -0.67002,1.543013 -0.88843,2.248958 -0.21841,0.705948 -0.64694,1.938385 -0.9523,2.73875 -0.30536,0.800364 -0.92514,2.52677 -1.37728,3.836458 -0.45215,1.309687 -0.94723,2.619375 -1.10018,2.910416 -0.15294,0.291042 -0.30008,0.707761 -0.32696,0.926042 -0.0432,0.350702 -0.88313,3.037147 -2.52308,8.069791 -0.28452,0.873125 -0.58121,1.884114 -0.65931,2.246644 -0.18946,0.8794 -1.35303,4.60025 -1.90374,6.08773 -0.24244,0.65485 -0.46847,1.48622 -0.50229,1.8475 -0.0338,0.36129 -0.26784,0.80777 -0.52006,0.99219 -0.2522095,0.18442 -0.3278895,0.33531 -0.16818,0.33531 0.16012,0 0.22831,0.23738 0.152,0.52917 -0.0774,0.29585 -0.008,0.52917 0.15707,0.52917 0.16249,0 0.29544,-0.10032 0.29544,-0.22292 z m 173.723181,-0.0417 c 0.2078,0 0.57649,-0.23202 0.8193,-0.51561 0.24282,-0.28359 0.56908,-0.44309 0.72502,-0.35446 0.15594,0.0886 0.19898,0.0674 0.0957,-0.0471 -0.10334,-0.11454 0.002,-0.57453 0.23301,-1.02218 0.88383,-1.70915 0.6104,-4.7381 -0.45835,-5.0773 -0.65543,-0.20803 -0.64613,-0.65726 0.045,-2.17446 0.46032,-1.01047 0.52636,-1.50297 0.37772,-2.816802 -0.0991,-0.87572 -0.30928,-1.833522 -0.46712,-2.128446 -0.27667,-0.516956 -0.29329,-0.518228 -0.46265,-0.03543 -0.0966,0.275442 -0.39013,0.532276 -0.65224,0.570746 -0.41175,0.06043 -0.45691,-0.07666 -0.33201,-1.007853 0.0795,-0.592788 0.26108,-1.149937 0.40347,-1.238105 0.49642,-0.307361 0.0169,-3.43871 -0.90514,-5.910378 -0.71314,-1.911747 -0.99958,-2.370243 -1.63068,-2.610186 -0.58911,-0.22398 -0.60672,-0.324263 -0.55322,-3.150645 0.0371,-1.958575 -0.0475,-3.022073 -0.25703,-3.231594 -0.24,-0.240001 -0.31229,-0.238797 -0.31229,0.0052 0,0.433739 -0.77749,0.403156 -0.94648,-0.03723 -0.0749,-0.195101 0.089,-0.92797 0.36425,-1.628595 0.45725,-1.164045 0.4694,-1.421667 0.14101,-2.988278 -0.19765,-0.942927 -0.61195,-2.263889 -0.92065,-2.935467 -0.50457,-1.097661 -0.57775,-1.159317 -0.72419,-0.610127 -0.15803,0.59267 -0.65567,0.717696 -0.72769,0.182822 -0.0196,-0.145521 -0.0635,-0.383646 -0.0975,-0.529166 -0.034,-0.145521 -0.0387,-0.380955 -0.0105,-0.523188 0.0283,-0.142229 0.0583,-1.044818 0.0666,-2.005747 0.0183,-2.099427 -0.46313,-3.791969 -1.01806,-3.579024 -0.37658,0.144507 -0.94721,-0.831541 -0.71615,-1.224939 0.0611,-0.104032 0.14079,-0.997 0.17708,-1.984375 0.0786,-2.139796 -0.72978,-4.909338 -1.47479,-5.052404 -0.25466,-0.0489 -0.46302,0.04055 -0.46302,0.198779 0,0.484669 -1.17378,2.130647 -1.4552,2.040615 -0.44291,-0.141698 -0.33186,-0.791927 0.27878,-1.632352 1.3126,-1.806554 1.27968,-6.183426 -0.0681,-9.057677 -0.22178,-0.472943 -0.53849,-0.861719 -0.70381,-0.863946 -0.83586,-0.01127 -1.03204,-0.437534 -0.68384,-1.485866 0.48285,-1.45374 0.51494,-2.453936 0.11774,-3.669458 -0.59081,-1.808004 -0.97048,-2.463689 -1.50796,-2.604244 -0.46723,-0.122182 -0.49986,-0.283535 -0.33088,-1.635998 0.12067,-0.965769 0.0699,-1.89186 -0.14258,-2.598854 -0.43245,-1.439227 -1.16398,-2.904198 -1.27856,-2.56047 -0.0498,0.149294 -0.26332,0.271441 -0.4746,0.271441 -0.26926,0 -0.32148,-0.138462 -0.17464,-0.463021 0.11523,-0.254661 0.20138,-0.939271 0.19144,-1.521354 -0.0191,-1.117954 -0.84159,-4.026617 -1.20156,-4.249089 -0.35838,-0.221493 -0.8135,3.565811 -0.79747,6.63621 0.006,1.088176 -0.0747,1.978589 -0.17867,1.978692 -0.10394,10e-5 -0.20713,0.313311 -0.2293,0.696021 -0.0222,0.382706 -0.16556,0.773244 -0.31865,0.867859 -0.15309,0.09461 -0.27307,0.406485 -0.26661,0.693042 0.006,0.28656 -0.0728,1.294921 -0.17604,2.240806 -0.15089,1.381948 -0.0938,1.927696 0.29082,2.778125 0.26322,0.582084 0.48599,1.236927 0.49504,1.455209 0.009,0.218281 0.16512,0.411757 0.34683,0.429947 0.62481,0.06255 0.65902,0.100127 0.39135,0.429948 -0.28867,0.355706 -0.31515,2.579688 -0.0307,2.579688 0.0943,0 0.30853,0.565547 0.476,1.25677 0.62338,2.57302 1.06357,3.152995 1.8194,2.397157 0.51553,-0.51553 1.11393,-0.478853 1.11393,0.06827 0,0.316876 -0.3857,0.697148 -1.05174,1.036937 -0.92725,0.473045 -1.02265,0.60679 -0.8059,1.129858 0.13521,0.326313 0.49955,1.64471 0.80964,2.929776 0.31008,1.285062 0.85861,2.770917 1.21895,3.301899 0.36033,0.530982 0.54282,1.002863 0.40554,1.048623 -0.3199,0.106635 0.87461,4.840666 1.56081,6.185739 0.45881,0.899334 0.89878,1.175591 1.65782,1.040947 0.12278,-0.02177 0.17313,0.112948 0.11188,0.299397 -0.0612,0.186449 -0.41112,0.374888 -0.77751,0.418756 l -0.66616,0.07976 0.76658,2.820254 c 0.8294,3.051397 1.06607,3.502517 1.83749,3.502517 0.48301,0 0.4805,0.03272 -0.0584,0.76163 l -0.5631,0.761626 0.60292,2.214936 c 0.33161,1.218213 0.59871,2.538706 0.59356,2.93443 -0.005,0.395724 0.09,0.658109 0.21137,0.583075 0.1214,-0.07503 0.4514,-0.01296 0.73332,0.137912 0.44233,0.236728 0.4727,0.380016 0.22156,1.045355 -0.24121,0.639043 -0.16401,1.194269 0.45101,3.24358 0.40813,1.359903 1.02917,2.81378 1.3801,3.230838 0.55391,0.658283 0.58568,0.797861 0.2409,1.058389 -0.32706,0.247139 -0.3479,0.510233 -0.11807,1.490728 0.1535,0.654844 0.3352,1.483672 0.40378,1.841841 0.0686,0.358172 0.52136,1.846453 1.00619,3.307292 0.91097,2.744896 1.0467,3.582116 0.58071,3.582116 -0.14908,0 -0.0517,0.16042 0.21647,0.35649 0.30181,0.22069 0.38196,0.42173 0.21041,0.52776 -0.17974,0.11108 -0.19837,0.52043 -0.053,1.16486 0.12325,0.54648 0.22778,1.0239 0.2323,1.06094 0.0884,0.7253 0.41574,1.38787 0.68577,1.38787 0.5375,0 0.62982,0.61095 0.17172,1.13631 -0.35262,0.40438 -0.36672,0.65187 -0.095,1.66776 0.36658,1.37059 0.82179,1.99373 1.32736,1.81701 0.19381,-0.0677 0.52239,-0.12317 0.7302,-0.12317 z M 21.006199,106.96955 c 0.34202,-0.22103 0.33504,-0.25704 -0.0505,-0.26053 -0.24608,-0.002 -0.52099,0.11501 -0.61093,0.26053 -0.20695,0.33486 0.14331,0.33486 0.66146,0 z M 176.31661,96.800347 c 0,-0.208809 -0.10894,-0.666181 -0.24209,-1.016383 -0.13315,-0.350205 -0.30604,-0.983033 -0.3842,-1.406287 -0.0782,-0.423254 -0.5664,-2.257835 -1.08497,-4.076845 -0.75409,-2.645177 -1.93187,-7.063481 -3.45595,-12.964583 -0.0564,-0.218281 -0.28165,-1.046181 -0.50061,-1.83978 -0.21896,-0.793597 -0.344,-1.497018 -0.27786,-1.563156 0.0661,-0.06614 0.0132,-0.250269 -0.11768,-0.409178 -0.33293,-0.404275 -1.08339,-3.377311 -0.91947,-3.64255 0.0742,-0.120039 0.009,-0.218252 -0.14531,-0.218252 -0.15411,0 -0.2802,-0.162156 -0.2802,-0.360344 0,-0.198189 -0.48777,-2.073423 -1.08394,-4.167188 -0.59616,-2.093764 -1.08653,-4.104499 -1.08971,-4.468301 -0.003,-0.363802 -0.0889,-0.72099 -0.19042,-0.79375 -0.18521,-0.132697 -1.6222,-5.224923 -1.75459,-6.217708 -0.0388,-0.291042 -0.0896,-0.529167 -0.11286,-0.529167 -0.0233,0 -0.0869,-0.178594 -0.14145,-0.396875 -1.17133,-4.688387 -1.48713,-5.772673 -1.57972,-5.423958 -0.72725,2.738818 -1.01118,3.773128 -1.1258,4.101042 -0.0763,0.218281 -0.16319,0.575468 -0.19309,0.793749 -0.0919,0.670629 -1.9946,7.242876 -2.25969,7.805208 -0.13721,0.291042 -0.30867,0.886355 -0.38104,1.322917 -0.0724,0.436563 -0.55889,2.579687 -1.08118,4.7625 -1.11208,4.647779 -1.21617,5.366813 -0.81464,5.627139 0.30288,0.196363 0.60237,0.668848 1.63219,2.574944 0.31448,0.582083 0.82728,1.475052 1.13954,1.984375 0.31227,0.509323 0.56821,1.134401 0.56875,1.389062 5.3e-4,0.254662 0.10714,0.463021 0.23689,0.463021 0.21087,0 0.58548,0.988055 0.50158,1.322916 -0.0182,0.07276 0.13158,0.429948 0.33291,0.79375 0.20134,0.363803 0.3745,0.72099 0.38482,0.79375 0.0103,0.07276 0.16273,0.391187 0.33871,0.70761 0.17598,0.316426 0.36192,0.792676 0.4132,1.058333 0.0513,0.26566 0.24101,0.840203 0.42161,1.276766 0.29993,0.725021 0.67634,2.214961 1.37027,5.423958 0.21531,0.995693 0.41619,3.100734 0.48381,5.069972 0.0104,0.302707 0.34495,0.49549 1.07344,0.618569 0.58208,0.09834 1.05833,0.295426 1.05833,0.437962 0,0.142534 0.23999,0.182983 0.53332,0.08989 0.29333,-0.0931 0.95385,-0.03048 1.46783,0.139144 0.51397,0.169627 1.19672,0.343488 1.5172,0.386356 0.32048,0.04287 0.99941,0.161377 1.50873,0.263353 3.59526,0.719838 4.23334,0.763248 4.23334,0.288022 z M 147.86828,57.360208 c 0.0318,-0.603612 0.75351,-3.196746 0.96401,-3.463927 0.12521,-0.158909 0.15218,-0.364392 0.0599,-0.456626 -0.0922,-0.09224 -0.0327,-0.330361 0.1323,-0.529167 0.16499,-0.198808 0.22452,-0.436933 0.13229,-0.529166 -0.0922,-0.09224 -0.0171,-0.349171 0.16698,-0.570969 0.18408,-0.2218 0.246,-0.403269 0.1376,-0.403269 -0.1084,0 -0.0532,-0.173379 0.12267,-0.385287 0.17587,-0.211904 0.24295,-0.509561 0.14908,-0.661458 -0.0939,-0.151895 -0.0762,-0.425 0.0393,-0.606901 0.1155,-0.181901 0.21729,-0.390261 0.22619,-0.463021 0.0746,-0.609537 1.01238,-4.423584 1.13848,-4.630208 0.18292,-0.299723 0.28509,-0.712608 0.45757,-1.848948 0.066,-0.43484 0.20104,-1.030153 0.3001,-1.322917 0.20262,-0.598839 0.21768,-0.652184 0.59855,-2.119802 0.15106,-0.582083 0.3401,-1.475052 0.42008,-1.984374 0.08,-0.509323 0.21494,-1.104636 0.29991,-1.322917 0.085,-0.218281 0.19053,-0.668319 0.23459,-1.000083 0.17694,-1.332518 0.73872,-3.497834 0.90749,-3.497834 0.0988,0 0.19637,-0.445637 0.21684,-0.990306 0.0205,-0.544668 0.15958,-1.031089 0.30911,-1.080931 0.14952,-0.04985 0.20363,-0.201036 0.12023,-0.335981 -0.0834,-0.134946 0.033,-0.615487 0.25869,-1.067872 0.22568,-0.452384 0.36121,-0.901988 0.30118,-0.999117 -0.06,-0.09713 0.11281,-1.005403 0.3841,-2.018384 0.27128,-1.012981 0.90586,-3.746783 1.41017,-6.075116 3.58068,-16.5316372 3.70566,-17.1677088 3.39373,-17.2716821 -0.73233,-0.2441124 -3.03592,-2.18275406 -3.75416,-3.1594132 -0.42621,-0.5795486 -1.13815,-1.7858104 -1.58209,-2.6805836 -0.79751,-1.6073939 -0.82054,-1.6268937 -1.92429,-1.6294178 -7.32898,-0.016775 -32.6422,-0.8608589 -39.4817,-1.3165534 -2.03729,-0.1357365 -4.89479,-0.3157961 -6.34999,-0.4001294 C 96.093429,-8.132305 62.209679,-11.26689 58.925709,-11.970303 c -0.40895,-0.08759 -0.62574,0.02891 -0.74335,0.399458 -0.44118,1.39002 -2.35711,3.7381965 -3.87964,4.7549029 -0.8812,0.5884412 -1.70873,1.0040408 -1.83896,0.9235545 -0.13023,-0.080486 -0.23678,-0.032078 -0.23678,0.1075743 0,0.139655 -0.44648,0.3588226 -0.99219,0.4870397 l -0.99219,0.2331244 -0.84059,2.9020133 c -0.46232,1.59610684 -0.85839,2.90201342 -0.88014,2.90201342 -0.0217,0 -0.0828,0.23112147 -0.13561,0.51360388 -0.25131,1.3436916 -1.32039,4.962268 -2.97501,10.0697286 -0.77226,2.383814 -0.87298,3.001661 -0.58232,3.572082 0.11129,0.218395 0.27753,1.349488 0.36943,2.513541 0.0919,1.164053 0.26961,2.59271 0.39492,3.174794 0.72566,3.37108 1.07751,5.399264 1.07862,6.217708 8e-4,0.509323 0.34783,1.81901 0.77141,2.910416 0.84765,2.184072 1.40223,6.35 0.84533,6.35 -0.16638,0 -0.008,0.446484 0.35241,0.992187 0.72291,1.095203 1.46205,3.916072 1.40388,5.357813 -0.037,0.91591 0.53836,3.704166 0.76429,3.704166 0.0643,0 0.3757,-0.241046 0.69193,-0.535657 0.31623,-0.294611 0.71624,-0.481443 0.88891,-0.415181 0.17267,0.06626 0.3739,-0.108813 0.44719,-0.389052 0.0733,-0.280238 0.33613,-0.587377 0.5841,-0.682532 0.24797,-0.09516 0.75291,-0.452945 1.12209,-0.795086 0.36917,-0.342141 0.75794,-0.622075 0.86392,-0.622075 0.10598,0 0.63806,-0.407943 1.1824,-0.906539 0.54434,-0.498597 1.33321,-1.048824 1.75305,-1.222724 0.41984,-0.173903 0.76334,-0.420804 0.76334,-0.548669 0,-0.127866 0.17859,-0.232485 0.39687,-0.232485 0.21828,0 0.39688,-0.112508 0.39688,-0.25002 0,-0.137512 0.68461,-0.730115 1.52135,-1.316895 0.83674,-0.58678 1.67018,-1.193339 1.85208,-1.347909 0.1819,-0.154572 0.33073,-0.188264 0.33073,-0.07487 0,0.11339 0.30486,-0.122616 0.67747,-0.524457 0.37261,-0.401841 0.78933,-0.661487 0.92604,-0.576993 0.13672,0.08449 0.24858,-0.02199 0.24858,-0.23663 0,-0.355081 1.83477,-2.022223 2.22556,-2.022223 0.17571,0 0.6013,-0.397404 4.32107,-4.034896 1.30211,-1.273307 2.50493,-2.315104 2.67292,-2.315104 0.16799,0 0.30545,-0.129754 0.30545,-0.288345 0,-0.41637 1.39061,-1.828322 1.80069,-1.828322 0.19096,0 0.28002,-0.108698 0.19791,-0.241553 -0.12855,-0.207997 0.50959,-1.001425 2.40618,-2.991721 0.23854,-0.250333 0.55408,-0.380764 0.70118,-0.289848 0.14904,0.09211 0.18651,0.03432 0.0846,-0.130514 -0.17444,-0.282247 -0.0575,-0.467418 1.15939,-1.836467 0.29105,-0.327422 0.52917,-0.695243 0.52917,-0.817383 0,-0.12214 0.38695,-0.591875 0.8599,-1.043861 1.12762,-1.077647 1.5162,-1.561441 1.37087,-1.706766 -0.0653,-0.06527 0.47768,-0.75053 1.20653,-1.522804 0.72886,-0.772276 1.3252,-1.486339 1.3252,-1.586806 0,-0.100465 0.41672,-0.561872 0.92604,-1.025345 0.50933,-0.463474 0.92604,-0.764204 0.92604,-0.66829 0,0.09591 0.24677,-0.139325 0.54837,-0.522751 0.30161,-0.383426 0.70841,-0.69714 0.904,-0.69714 0.19559,0 0.39747,-0.1255474 0.44862,-0.2789925 0.0512,-0.1534451 0.26943,-0.3056202 0.48507,-0.3381692 0.21564,-0.032546 0.51735,-0.1375992 0.67047,-0.2334472 0.8268,-0.5175567 2.81859,-0.9942406 4.1685,-0.9976246 1.78362,-0.00447 3.88747,0.463878 3.88747,0.865407 0,0.1525006 0.0798,0.1974771 0.17732,0.099954 0.20712,-0.2071211 1.445701,0.5391203 1.754061,1.0568125 0.11637,0.195376 0.31002,0.355226 0.43032,0.355226 0.42654,0 2.44192,2.100676 2.2748,2.37108 -0.0934,0.151114 0.001,0.274754 0.21058,0.274754 0.20922,0 0.52834,0.357188 0.70917,0.79375 0.18083,0.436563 0.42737,0.79375 0.54786,0.79375 0.31355,0 1.73618,1.568196 2.14705,2.366751 0.19129,0.371776 0.5264,0.817533 0.74468,0.990573 0.3278,0.259861 0.33893,0.409509 0.0639,0.859896 -0.19714,0.322847 -0.22413,0.54528 -0.0661,0.54528 0.14675,0 0.26682,-0.119063 0.26682,-0.264584 0,-0.497572 0.54192,-0.26548 0.77223,0.33073 0.12648,0.327421 0.53658,0.880509 0.91134,1.229084 0.37475,0.348576 0.62352,0.727382 0.55281,0.841793 -0.0707,0.114411 0.11854,0.381098 0.42055,0.592635 0.30201,0.21154 0.84338,0.785233 1.20304,1.274876 0.35965,0.489641 1.05842,1.366507 1.55281,1.94859 0.49439,0.582084 0.91696,1.13877 0.93904,1.237081 0.0221,0.09831 0.68075,0.861602 1.46369,1.696201 0.78295,0.834599 1.36178,1.617366 1.28632,1.739482 -0.0755,0.122116 0.0343,0.222028 0.24386,0.222028 0.40321,0 1.76681,1.619993 1.76681,2.099013 0,0.155231 0.0893,0.254281 0.19844,0.220115 0.31355,-0.09816 1.65106,1.175168 1.49671,1.424906 -0.0764,0.123595 0.0526,0.224716 0.28655,0.224716 0.24267,0 0.63398,0.465828 0.91092,1.084389 0.29558,0.660196 0.5423,0.944825 0.63071,0.727604 0.099,-0.243284 0.20126,-0.17323 0.32139,0.220218 0.10048,0.32911 0.32516,0.519835 0.52295,0.443934 0.21634,-0.08302 0.47496,0.221427 0.68757,0.809384 0.1996,0.55199 0.41729,0.818677 0.52544,0.643697 0.1153,-0.18656 0.34013,-0.01167 0.59868,0.465696 0.22772,0.420449 0.42063,0.585859 0.42868,0.367577 0.0127,-0.343796 0.0471,-0.345484 0.25772,-0.01265 0.13369,0.211334 0.18255,0.482174 0.10857,0.601869 -0.074,0.119695 0.0134,0.18491 0.19427,0.144926 0.18082,-0.03999 0.45849,0.175035 0.61705,0.477824 0.15855,0.302789 0.42851,0.50378 0.59991,0.446648 0.1714,-0.05713 0.46812,0.193408 0.65939,0.556758 0.19127,0.363352 1.12166,1.279551 2.06755,2.036003 2.47982,1.983184 3.96429,3.475849 3.77975,3.800641 -0.0882,0.155287 -0.0734,0.204476 0.033,0.10931 0.28657,-0.256394 4.47691,3.56915 4.20611,3.839948 -0.0932,0.09325 0.0289,0.16954 0.27144,0.16954 0.24253,0 0.44097,0.12609 0.44097,0.280199 0,0.154109 0.11109,0.21154 0.24687,0.127624 0.13577,-0.08391 0.4426,0.178779 0.68183,0.583764 0.23923,0.404984 0.84699,1.006427 1.35059,1.33654 0.50359,0.330112 1.02725,0.893831 1.1637,1.252707 0.13644,0.358872 0.39099,0.652499 0.56566,0.652499 0.17468,0 1.02255,0.738566 1.88418,1.641258 1.45123,1.520404 1.58834,1.603206 1.86198,1.124479 0.16247,-0.284228 0.30168,-0.635841 0.30936,-0.781362 z M 45.278799,51.084326 c 0.1803,-0.146502 0.26787,-0.363368 0.1946,-0.481922 -0.0733,-0.118555 0.10663,-0.291682 0.39979,-0.384726 0.29315,-0.09304 0.53301,-0.251661 0.53301,-0.352483 0,-0.100819 0.26789,-0.47975 0.59531,-0.842065 0.85033,-0.940951 0.68776,-2.285125 -0.23361,-1.931562 -0.67366,0.258509 -0.89657,-0.465333 -0.41801,-1.357381 0.90102,-1.679519 0.3555,-6.817955 -0.75465,-7.108266 -0.40295,-0.105373 -0.45202,-0.263626 -0.2741,-0.884005 0.26568,-0.926341 0.20582,-3.910385 -0.0999,-4.980093 -0.32431,-1.134819 -1.20805,-2.545374 -1.48679,-2.373106 -0.5386,0.332872 -0.67774,-0.211947 -0.38551,-1.509477 0.35029,-1.555345 -0.0458,-4.409906 -0.88663,-6.389719 l -0.46658,-1.098608 -0.56969,1.875578 c -1.86306,6.133727 -2.21591,8.294875 -1.6548,10.135399 0.20194,0.662405 0.19604,0.963287 -0.0215,1.097748 -0.21961,0.135728 -0.18081,0.83516 0.1452,2.61711 0.578,3.159252 1.03926,4.456903 1.7649,4.965168 0.5609,0.392869 0.56628,0.429792 0.11104,0.762669 -0.44283,0.323805 -0.45271,0.492837 -0.1329,2.273345 0.19003,1.057942 0.37258,2.102122 0.40566,2.320404 0.15853,1.045988 0.51381,1.607534 1.11203,1.75768 0.36024,0.09041 0.55195,0.237939 0.42602,0.327834 -0.31035,0.221541 -0.78588,1.408406 -0.72803,1.81709 0.0257,0.181901 0.0617,0.507288 0.0799,0.723085 0.0271,0.321797 0.2115,0.292936 1.02526,-0.160489 0.5457,-0.304061 1.13971,-0.672705 1.32001,-0.819208 z m 87.646141,-5.879335 c 0,-0.06417 -0.11906,-0.190262 -0.26458,-0.280199 -0.14552,-0.08994 -0.26458,-0.03743 -0.26458,0.116676 0,0.154109 0.11906,0.280199 0.26458,0.280199 0.14552,0 0.26458,-0.0525 0.26458,-0.116676 z M 32.531179,29.991588 c 3.19947,-1.899446 3.86215,-2.480545 5.25277,-4.606115 0.90699,-1.38633 1.01985,-1.747602 1.08274,-3.465854 0.0772,-2.108663 0.29229,-3.056284 0.69378,-3.056284 0.14431,0 0.19387,-0.110836 0.11015,-0.2463 -0.0837,-0.135467 -0.0451,-0.312487 0.0857,-0.39338 0.13089,-0.08089 0.32202,-0.819687 0.42473,-1.641766 0.14015,-1.121725 0.0984,-1.551734 -0.16751,-1.72329 -0.29081,-0.187647 -0.28317,-0.275267 0.0426,-0.48913 0.21828,-0.143293 0.28277,-0.262355 0.14331,-0.264583 -0.13946,-0.0021 0.1582,-0.401666 0.66146,-0.887643 0.50326,-0.485976 0.96198,-1.051522 1.01937,-1.25677 0.0574,-0.205248 0.32529,-1.144508 0.59532,-2.0872454 0.27002,-0.9427342 0.49095,-2.0029857 0.49095,-2.3561118 0,-0.6052423 -0.0277,-0.6169448 -0.48385,-0.2041631 -0.26612,0.240837 -0.56683,0.4378828 -0.66825,0.4378828 -0.31623,0 0.53876,-1.4235377 1.25926,-2.0966403 0.37762,-0.3527901 0.68659,-0.7992744 0.68659,-0.9921874 0,-0.1929157 0.11907,-0.3507555 0.26459,-0.3507555 0.14552,0 0.26458,-0.1496192 0.26458,-0.3324886 0,-0.1828694 0.33017,-1.3437287 0.7337,-2.5796873 0.76931,-2.35624946 0.82145,-3.2457522 0.17577,-2.9979778 -0.68869,0.2642737 -0.40388,-0.6081474 0.42184,-1.2922117 1.03859,-0.860417 1.22876,-1.7406831 0.44198,-2.0459461 -0.80506,-0.3123512 -4.75016,-0.055475 -5.10828,0.332613 -0.16075,0.1742069 -0.56264,1.1799437 -0.89307,2.2349697 -0.33044,1.055026 -0.7072,1.91822904 -0.83724,1.91822904 -0.28514,0 0.0275,1.41857674 0.3398,1.54209216 0.12085,0.047786 0.0378,0.4386342 -0.18449,0.8685476 -0.22232,0.4299135 -0.49836,0.723474 -0.61343,0.6523567 -0.11507,-0.071115 -0.22209,0.014288 -0.23781,0.1897882 -0.0424,0.473755 -0.2049,1.0198761 -0.56713,1.9065901 -0.17834,0.4365625 -0.4262,1.3295312 -0.55081,1.9843749 -0.1246,0.6548437 -0.34368,1.4982189 -0.48685,1.874168 -0.34148,0.8967258 -0.0149,1.4117637 0.74272,1.1713051 0.46829,-0.1486297 0.56829,-0.092707 0.49606,0.2774187 -0.0498,0.254965 -0.29645,0.493701 -0.5482,0.530529 -0.25175,0.03683 -0.64721,0.256431 -0.87879,0.488016 -0.23159,0.231584 -0.53684,0.421063 -0.67835,0.421063 -0.14151,0 -0.22708,0.148828 -0.19017,0.330729 0.0369,0.181901 -0.0811,0.59862 -0.2623,0.926042 -0.18117,0.327422 -0.2511,0.595312 -0.1554,0.595312 0.0957,0 0.0414,0.159782 -0.12069,0.355074 -0.16208,0.195289 -0.22426,0.425495 -0.1382,0.511564 0.0861,0.08607 0.0586,0.31324 -0.061,0.504822 -0.11963,0.191582 -0.23792,0.482439 -0.26287,0.646345 -0.0249,0.16391 -0.12164,0.538316 -0.21486,0.832017 -0.1017,0.320421 -0.0118,0.691687 0.22476,0.928254 0.34928,0.349276 0.33593,0.447034 -0.11707,0.856988 -0.28122,0.254508 -0.44757,0.56589 -0.36965,0.691964 0.0779,0.126072 0.009,0.229222 -0.15415,0.229222 -0.16269,0 -0.22222,0.119063 -0.13229,0.264583 0.0899,0.145521 0.0304,0.264584 -0.13229,0.264584 -0.1627,0 -0.22731,0.110836 -0.14359,0.2463 0.0837,0.135467 0.0312,0.321088 -0.11668,0.412491 -0.14789,0.0914 -0.2689,0.397288 -0.2689,0.679741 0,0.282453 -0.12609,0.513551 -0.2802,0.513551 -0.1541,0 -0.21212,0.110141 -0.12892,0.244755 0.0832,0.134618 0.002,0.571646 -0.17972,0.971177 -0.26262,0.576408 -0.26332,0.748972 -0.003,0.835626 0.50961,0.16987 0.38903,0.71533 -0.32954,1.490673 -0.69105,0.745657 -2.35662,5.067191 -2.15523,5.592013 0.17472,0.455311 0.99398,0.30888 2.16654,-0.387241 z M 161.3876,21.156066 c 0.50822,-0.242356 1.0986,-0.440648 1.31194,-0.440648 0.21335,0 0.38844,-0.0893 0.38909,-0.198437 0.002,-0.296418 1.85826,-0.344289 2.85635,-0.07366 1.04181,0.282493 1.13307,0.122687 1.6606,-2.907601 0.40933,-2.351281 0.40806,-3.844888 -0.004,-4.341027 -0.23142,-0.278849 -0.11547,-0.674396 0.50732,-1.730652 0.44401,-0.753055 0.74398,-1.4716501 0.66658,-1.5968773 -0.0774,-0.1252273 -0.0178,-0.3036703 0.1325,-0.3965416 0.15027,-0.092871 0.21317,-0.2660148 0.13978,-0.384765 -0.0734,-0.1187503 -0.0258,-0.5570061 0.10564,-0.9739048 0.36815,-1.1671908 0.54399,-2.7709176 0.28635,-2.611694 -0.39156,0.2420011 -0.596,-0.3959357 -0.25757,-0.8037248 0.17587,-0.2119074 0.2272,-0.3852862 0.11406,-0.3852862 -0.11313,0 0.003,-0.2306214 0.25811,-0.5124952 0.25509,-0.2818712 0.39868,-0.6178656 0.31908,-0.7466515 -0.19099,-0.3090254 -5.42775,-0.3354467 -5.61755,-0.028342 -0.0809,0.1308365 -0.20443,0.5633429 -0.2746,0.9611254 -0.0702,0.3977798 -0.30962,1.4322107 -0.53212,2.2987316 -0.35538,1.3839481 -0.35731,1.6100451 -0.0159,1.8596689 0.33643,0.2460016 0.32151,0.3670591 -0.11102,0.9012131 -0.27481,0.3393704 -0.49965,0.8419756 -0.49965,1.1168934 0,0.274921 -0.13295,0.499856 -0.29544,0.499856 -0.16514,0 -0.23444,0.233283 -0.15713,0.528902 0.0761,0.290899 0.0256,0.598575 -0.1122,0.683726 -0.13778,0.08515 -0.18129,0.372906 -0.0967,0.639455 0.0846,0.26655 0.028,0.562412 -0.12584,0.657474 -0.15382,0.09506 -0.21883,0.271285 -0.14446,0.391605 0.0744,0.120319 -0.0308,0.538686 -0.23364,0.9297 -0.20286,0.391018 -0.3304,0.909424 -0.28342,1.152017 0.047,0.242594 0.0945,0.589907 0.10566,0.771808 0.0111,0.181901 0.19883,0.33073 0.41712,0.33073 0.4128,0 0.55153,0.419224 0.18971,0.573264 -0.33879,0.14423 -1.38021,2.066388 -1.38197,2.550713 -7.9e-4,0.246343 -0.17886,0.787712 -0.39547,1.203039 -0.21661,0.415327 -0.30797,0.891577 -0.20301,1.058334 0.12966,0.206015 0.21753,0.168817 0.27414,-0.116057 0.0458,-0.230587 0.49915,-0.61754 1.00738,-0.859896 z m 12.68005,-22.1783689 c 2.39866,-0.5467085 5.02719,-2.6106516 5.7592,-4.5221735 0.16431,-0.4290536 -0.14719,-0.4646559 -4.24615,-0.4853172 -2.43291,-0.01225 -4.92948,-0.06092 -5.54795,-0.1081273 -1.32781,-0.1013513 -1.41424,0.1853486 -0.33073,1.0970656 1.13569,0.9556168 1.063,1.5275375 -0.16874,1.3276527 -1.8228,-0.2957989 -4.32917,-2.6936117 -4.32917,-4.141663 0,-0.2946902 -0.22567,-0.9568444 -0.50148,-1.4714536 -0.91142,-1.7005088 -0.3311,-8.2770978 0.89784,-10.1749268 0.14134,-0.218282 0.25882,-0.471181 0.26104,-0.561999 0.01,-0.391292 1.89638,-3.056149 2.50572,-3.539043 0.36725,-0.291041 0.8897,-0.749874 1.16099,-1.019625 0.2713,-0.269753 0.62974,-0.514376 0.79655,-0.543604 0.16682,-0.02923 0.66048,-0.242467 1.09705,-0.473859 0.43656,-0.231391 1.21046,-0.459528 1.71979,-0.506968 0.99276,-0.09247 3.96875,0.697704 3.96875,1.053769 0,0.118097 0.29765,0.350343 0.66146,0.516105 0.3638,0.165758 0.66145,0.411088 0.66145,0.545176 0,0.38041 1.78287,2.068978 2.33772,2.214076 0.73007,0.190918 1.36645,-0.266462 1.36645,-0.982096 0,-0.344268 -0.41628,-1.380149 -0.92508,-2.301957 -0.50879,-0.921809 -1.0319,-1.918336 -1.16247,-2.214503 -0.13057,-0.296168 -0.66873,-0.770776 -1.19591,-1.054684 -0.56869,-0.30626 -0.90419,-0.657778 -0.82494,-0.864318 0.0798,-0.208055 0.0146,-0.274602 -0.16206,-0.165396 -0.16262,0.100498 -2.47592,0.16648 -5.14069,0.146628 -2.66476,-0.01985 -5.14996,0.07984 -5.52266,0.221539 -0.37269,0.141699 -1.15214,0.290259 -1.7321,0.330134 -0.57996,0.03988 -1.11177,0.221328 -1.18181,0.403229 -0.07,0.181901 -0.30967,0.330729 -0.53252,0.330729 -0.22285,0 -0.65127,0.246092 -0.95205,0.546871 -0.40027,0.40027 -0.63731,0.471813 -0.88424,0.266879 -0.44135,-0.366288 -0.76401,-0.03646 -0.39697,0.405793 0.21361,0.25738 0.0557,0.570522 -0.6373,1.263477 -0.5067,0.506706 -0.85441,0.988157 -0.77268,1.06989 0.0817,0.08173 -0.1683,0.730861 -0.55562,1.442508 -0.38733,0.711645 -0.70423,1.486149 -0.70423,1.721117 0,0.234969 -0.23813,0.66534 -0.52917,0.956382 -0.29104,0.291041 -0.48562,0.529166 -0.4324,0.529166 0.0532,0 -0.006,0.506016 -0.13106,1.124479 -0.57321,2.829153 -0.79293,9.1639888 -0.35311,10.1807696 0.27859,0.6440487 0.40781,1.1468073 0.49448,1.9239176 0.18605,1.6682269 2.42654,4.3854077 4.49744,5.4543269 1.00777,0.52017084 1.40976,0.55256914 5.71423,0.46054434 2.54662,-0.054443 5.22552,-0.2346722 5.95313,-0.40051034 z M 51.196689,-8.951955 c 1.41113,-0.6617042 4.18224,-2.987672 3.89804,-3.271874 -0.0738,-0.07375 -1.43376,-0.26207 -3.02225,-0.418497 -1.58849,-0.15643 -3.36441,-0.396846 -3.94649,-0.534257 -0.58209,-0.137411 -1.5573,-0.285983 -2.16714,-0.330158 -0.96233,-0.0697 -1.07783,-0.02244 -0.87434,0.357788 0.12895,0.240956 0.41248,0.585843 0.63006,0.766416 0.4579,0.380024 0.31025,0.970047 -0.3015,1.204796 -0.40469,0.155292 -2.97399,-1.361334 -2.97511,-1.756169 -2.7e-4,-0.09875 -0.16007,-0.339098 -0.35509,-0.534112 -0.19501,-0.195016 -0.69152,-1.105402 -1.10335,-2.02308 -0.68451,-1.525299 -0.7504,-1.945005 -0.76759,-4.889847 -0.0204,-3.486578 0.12695,-4.494807 0.75867,-5.192858 0.22468,-0.248269 0.41116,-0.799211 0.4144,-1.224314 0.003,-0.425104 0.23871,-1.070573 0.52328,-1.434375 0.28457,-0.363802 0.52005,-0.875355 0.52328,-1.136785 0.003,-0.26143 0.35736,-0.677045 0.78694,-0.923589 0.42958,-0.246545 0.84838,-0.716531 0.93068,-1.044414 0.0918,-0.365883 0.52906,-0.754692 1.13197,-1.006604 0.90771,-0.379264 1.00788,-0.375544 1.31829,0.04896 0.47248,0.646161 0.44636,0.72408 -0.59012,1.760561 -0.50932,0.509323 -0.92604,1.049715 -0.92604,1.200872 0,0.317816 1.14931,0.508562 5.02708,0.834323 1.52797,0.12836 3.13532,0.27064 3.57188,0.316177 0.66881,0.06976 0.79493,-0.01057 0.80126,-0.510365 0.009,-0.697553 0.0713,-0.734076 0.83885,-0.490463 0.31998,0.101557 0.65534,0.416407 0.74524,0.699667 0.18567,0.584994 1.35793,0.97984 1.74875,0.589022 0.28253,-0.282536 -0.17864,-2.601211 -0.63281,-3.181629 -0.14234,-0.181901 -0.15492,-0.332552 -0.028,-0.33478 0.12696,-0.0022 0.076,-0.102238 -0.11315,-0.222244 -0.18919,-0.120006 -0.36464,-0.49247 -0.3899,-0.827699 -0.0263,-0.348779 -0.69512,-1.258723 -1.56359,-2.127189 -1.37823,-1.378227 -1.652,-1.534464 -2.97937,-1.700309 -0.80393,-0.100444 -1.52095,-0.278519 -1.59339,-0.395723 -0.34239,-0.553996 -10.45997,0.729783 -10.45997,1.327224 0,0.135204 -0.17268,0.245825 -0.38373,0.245825 -0.21105,0 -0.50509,0.208359 -0.65341,0.463021 -0.14833,0.254661 -0.27331,0.361132 -0.27773,0.236602 -0.0126,-0.354966 -1.54927,1.383571 -1.73212,1.959682 -0.09,0.283632 -0.25934,0.515695 -0.37627,0.515695 -0.18064,0 -0.54948,0.687188 -2.13487,3.977434 -0.10748,0.223058 -0.28505,0.81837 -0.3946,1.322916 -0.10954,0.504547 -0.31188,0.989237 -0.44965,1.077089 -0.50244,0.320411 -0.71396,2.309082 -0.68636,6.452838 0.028,4.200313 0.035,4.248131 0.84649,5.780961 1.4341,2.708785 1.84351,3.213835 3.13299,3.8648018 0.39997,0.2019146 0.65714,0.436391 0.5715,0.5210576 -0.42682,0.4219734 2.23149,0.6831092 6.95389,0.6831092 5.10643,0 5.27929,-0.017886 6.72436,-0.6954996 z M 203.43601,-9.1163512 c -0.46894,-1.1470588 -0.6217,-2.1742188 -0.56236,-3.7812948 0.0516,-1.397966 0.23008,-2.021197 0.92806,-3.241146 0.47528,-0.830704 0.99829,-1.510371 1.16223,-1.510371 0.18975,0 0.20608,-0.092 0.0449,-0.253153 -0.52972,-0.529715 -11.94866,-1.07831 -25.96365,-1.247355 l -10.36826,-0.12506 -0.39116,0.756436 c -0.45319,0.876374 -1.22961,4.434892 -1.22961,5.635606 0,1.076208 0.52517,3.1373278 0.85064,3.3384778 0.14102,0.08715 5.09723,0.216037 11.01381,0.2864085 5.91658,0.070374 13.31727,0.2167969 16.44597,0.3253872 3.12869,0.1085903 6.26682,0.2158074 6.97362,0.2382626 1.12754,0.035819 1.26187,-0.015928 1.09578,-0.4221983 z m -49.42829,-2.5135418 c -0.005,-1.491588 0.0789,-3.38633 0.18601,-4.210539 l 0.19484,-1.498563 -1.66983,-0.14365 c -0.91841,-0.07901 -4.40828,-0.271216 -7.75526,-0.427127 -11.4969,-0.535559 -16.41563,-0.800484 -22.225,-1.197049 -5.46776,-0.373245 -8.16604,-0.565399 -22.35729,-1.59212 -3.128691,-0.226359 -8.248381,-0.643276 -11.377081,-0.926486 -3.1287,-0.283207 -7.83167,-0.6976 -10.45104,-0.920872 -2.61937,-0.223274 -9.525,-0.874675 -15.34583,-1.447562 -5.82084,-0.572883 -12.30974,-1.170855 -14.41979,-1.328822 -2.11006,-0.157966 -4.04473,-0.349509 -4.29928,-0.425651 -0.56134,-0.167912 -0.80214,0.394036 -1.22795,2.865663 -0.33466,1.942462 -0.0117,5.101566 0.57983,5.671327 0.29139,0.280681 3.79677,0.716693 17.91198,2.227961 2.83766,0.303818 6.70719,0.720363 8.59896,0.925655 1.89177,0.205291 4.92786,0.4947 6.74687,0.643128 1.81901,0.148429 4.43839,0.387432 5.82083,0.53112 8.44711,0.877959 28.768771,2.398281 38.893751,2.9097548 5.16806,0.261069 20.78249,0.7612668 27.25208,0.8729976 2.11006,0.036444 4.08747,0.092483 4.39425,0.1245368 0.53534,0.055933 0.55743,-0.05085 0.54895,-2.6537022 z m 55.40037,1.362988 c 0.30065,-0.422222 0.48428,-0.767675 0.40806,-0.767675 -0.0762,0 0.0142,-0.446484 0.201,-0.992188 0.2004,-0.585559 0.2635,-1.344596 0.15397,-1.852083 -0.10208,-0.472942 -0.13641,-0.859896 -0.0763,-0.859896 0.0601,0 -0.0145,-0.148828 -0.1658,-0.330729 -0.15131,-0.181901 -0.49497,-0.618871 -0.76369,-0.971047 -0.54161,-0.709821 -2.42165,-1.069107 -2.42165,-0.462791 0,0.18137 -0.23813,0.79683 -0.52917,1.367692 -0.87596,1.718141 -0.65751,4.429705 0.44575,5.5329588 0.55854,0.5585459 0.75064,0.6090945 1.42343,0.3745599 0.42777,-0.1491189 1.02374,-0.6165799 1.32439,-1.0388017 z M 29.597119,-16.640743 c 0.0377,-0.04531 0.20208,-1.511128 0.36532,-3.257378 0.37116,-3.970578 0.56527,-5.20904 0.87754,-5.59884 0.46855,-0.58488 -0.88175,-0.907719 -4.27753,-1.022707 -1.23693,-0.04188 -3.43959,-0.145496 -4.89479,-0.230248 -1.45521,-0.08475 -3.89599,-0.216622 -5.42396,-0.293044 -1.52797,-0.07642 -3.01625,-0.156445 -3.30729,-0.177827 -0.63681,-0.04679 -2.24896,0.54649 -2.24896,0.827621 0,0.110038 -0.29792,0.521523 -0.66204,0.914414 -0.7504195,0.809725 -1.5579895,2.258179 -1.3660295,2.450134 0.0702,0.07019 0.0262,0.481229 -0.0977,0.913418 -0.28315,0.987272 0.63107,3.692893 1.5625595,4.624379 0.63195,0.631952 0.66866,0.635596 6.75089,0.669989 3.36351,0.01902 7.00845,0.114191 8.09986,0.211489 1.87283,0.166963 4.47186,0.149305 4.62217,-0.0314 z M 177.90411,-22.68262 c 0,-0.257347 -0.63406,-0.895046 -1.44585,-1.454142 -1.36466,-0.939879 -1.52689,-0.986266 -2.88928,-0.826143 -1.23321,0.144939 -1.60775,0.332317 -2.57152,1.28651 -1.07555,1.06485 -1.10012,1.123384 -0.52767,1.256943 0.33022,0.07704 2.13804,0.152479 4.01736,0.167632 3.0752,0.0248 3.41696,-0.01829 3.41696,-0.4308 z"
       id="path6371" /></g></svg>
