<?xml version="1.0" encoding="UTF-8" standalone="no"?>
<!-- Created with Inkscape (http://www.inkscape.org/) -->

<svg
   width="216.86848mm"
   height="169.72258mm"
   viewBox="0 0 216.86853 169.72257"
   version="1.1"
   id="svg1"
   xml:space="preserve"
   xmlns="http://www.w3.org/2000/svg"
   xmlns:svg="http://www.w3.org/2000/svg"><defs
     id="defs1" /><g
     id="layer1"
     transform="translate(-757.83697,-6.3756384)"><path
       style="fill:#000000"
       d="m 836.4499,175.70684 c -7.4385,-0.91352 -13.81435,-3.66057 -19.28925,-8.31081 l -1.37602,-1.16876 -7.01723,-0.0861 c -3.85949,-0.0473 -7.81207,-0.2107 -8.78352,-0.36301 -2.67496,-0.41941 -8.54139,-2.49899 -11.95437,-4.23769 -4.01669,-2.04625 -7.27739,-4.22098 -10.14954,-6.76926 -2.65605,-2.35655 -2.57321,-2.29992 -4.00403,-2.73714 -5.78482,-1.76766 -12.60819,-10.21399 -13.75153,-17.02237 -0.27386,-1.6308 0.32075,-3.87006 1.28058,-4.82257 0.45611,-0.45263 1.05247,-0.946 1.32525,-1.09637 0.4672,-0.25754 0.4764,-0.40488 0.15861,-2.54086 -0.29758,-2.00025 -0.40819,-2.28525 -0.93858,-2.41837 -0.80699,-0.20254 -2.07949,-1.30104 -2.73412,-2.36024 -0.88976,-1.43967 -1.36867,-3.79654 -1.37902,-6.78665 -0.0164,-4.74655 1.22315,-8.7754 3.43989,-11.18027 l 1.08187,-1.1737 -0.63786,-0.29064 c -0.35083,-0.15984 -0.96823,-0.85434 -1.372,-1.54332 -0.64317,-1.097495 -0.73242,-1.517254 -0.72032,-3.38811 0.029,-4.490728 2.00865,-8.901694 5.37808,-11.983333 0.51241,-0.468645 1.7705,-1.264019 2.79575,-1.767497 1.83521,-0.901229 1.87158,-0.939279 2.347,-2.455209 1.21914,-3.887397 3.06971,-6.080762 6.55071,-7.764134 1.19613,-0.578436 2.35988,-1.051701 2.58611,-1.051701 0.22623,0 0.685,-0.515883 1.01949,-1.146407 0.73985,-1.394624 2.80734,-3.022663 4.64521,-3.657851 2.01021,-0.694749 4.73476,-0.63577 6.39747,0.138487 2.78029,1.294677 4.68724,4.519683 4.72007,7.982495 0.0266,2.803417 -0.77315,4.217721 -4.37346,7.73442 -7.22236,7.054624 -9.11498,10.987694 -9.40655,19.54787 -0.16208,4.75852 0.22885,8.01309 1.4254,11.86661 0.72516,2.33541 3.522,8.42398 3.7602,8.18578 0.0827,-0.0827 0.34789,-1.18566 0.58922,-2.45094 0.83803,-4.39355 2.92652,-8.96891 5.86443,-12.84751 1.5395,-2.03243 1.77886,-2.42095 2.55434,-4.14608 0.73738,-1.64037 2.94572,-3.864995 4.60243,-4.636368 1.4738,-0.686208 3.56998,-0.846658 4.82539,-0.369355 0.39345,0.149592 0.7587,0.228659 0.81166,0.175703 0.053,-0.05296 -0.1485,-0.800427 -0.44766,-1.661048 -1.84133,-5.296983 -2.50653,-10.175796 -2.28764,-16.778307 0.26837,-8.09506 1.94298,-14.999525 6.18177,-25.487744 7.33532,-18.150069 17.20246,-31.049573 30.13487,-39.395914 6.1796,-3.988202 13.56838,-6.8021996 22.20836,-8.4580026 2.82495,-0.541386 3.96261,-0.608521 10.31875,-0.608924 6.4185,-4.07e-4 7.45265,0.06178 10.18645,0.612528 11.43826,2.304337 20.03553,6.3455216 28.69207,13.4868266 1.18593,0.978341 1.94247,1.785873 1.8354,1.95911 -0.10248,0.165812 -0.0632,0.221197 0.0898,0.126627 0.3871,-0.23924 2.81039,2.037255 6.27238,5.892416 11.27238,12.552559 16.91272,24.041851 18.97111,38.643911 0.4993,3.541964 0.43169,12.529839 -0.12141,16.139583 -0.5938,3.875414 -1.77817,8.589098 -2.92132,11.626598 -0.49146,1.305862 -0.83828,2.42957 -0.77072,2.497128 0.0676,0.06756 0.50821,0.0603 0.97923,-0.01614 1.34611,-0.218443 3.39091,0.80926 4.90382,2.464625 1.26678,1.386057 2.39461,3.703987 2.39461,4.921437 0,0.31444 0.51911,1.35177 1.15357,2.30518 1.37572,2.06728 2.37555,4.50042 2.88053,7.00992 0.20329,1.01028 0.44277,1.71852 0.53217,1.57387 0.41181,-0.66633 0.7802,-5.26461 0.65457,-8.17049 -0.15468,-3.57807 -0.57961,-5.21816 -2.50282,-9.660047 -1.64934,-3.809346 -2.09609,-5.183194 -2.45461,-7.548382 -1.16598,-7.692008 4.41529,-13.105542 11.34237,-11.001504 4.42915,1.345312 7.31831,4.905464 8.61223,10.612386 0.10323,0.455328 0.50116,0.81991 1.27692,1.169916 0.61982,0.279651 1.90919,1.298859 2.86527,2.264907 2.98864,3.019791 5.25987,8.368724 5.26922,12.409484 0.005,2.28584 -0.45741,3.66702 -1.61692,4.82653 -0.70697,0.70697 -0.89271,1.05145 -0.68104,1.26312 0.16007,0.16007 0.43066,0.29104 0.6013,0.29104 0.61826,0 2.42961,2.31357 2.91639,3.72501 0.73013,2.11701 0.67481,7.05993 -0.11018,9.84586 -0.71848,2.54988 -2.14666,5.43017 -3.35658,6.7694 -0.81825,0.90571 -2.41323,1.90018 -3.60417,2.2472 -0.23713,0.0691 -0.61808,0.67422 -0.84654,1.34472 -0.40471,1.18778 -0.39891,1.24336 0.22572,2.16381 2.28658,3.36946 -0.0342,9.35224 -5.73076,14.77322 -2.52357,2.4015 -4.86472,3.88157 -6.9756,4.40994 -0.7276,0.18213 -1.91823,0.76842 -2.64583,1.30286 -3.53313,2.59519 -7.2035,4.48344 -11.35141,5.83981 -4.29839,1.40558 -6.06334,1.55347 -18.41421,1.54294 -10.16358,-0.009 -11.48648,-0.06 -13.75834,-0.53372 -4.89264,-1.02024 -12.23983,-3.85912 -16.5328,-6.3881 l -1.05469,-0.62131 -3.04636,3.04907 c -7.32563,7.33218 -15.87206,11.42128 -28.18177,13.4838 -6.53545,1.09503 -16.49389,1.39617 -22.35729,0.67609 z m 16.66875,-3.04457 c 4.30337,-0.37283 12.72424,-2.10997 12.68915,-2.61764 -0.006,-0.0863 -0.60762,-0.43696 -1.33701,-0.77921 -1.93634,-0.9086 -2.71898,-2.21131 -2.84658,-4.73814 -0.0813,-1.60905 0.033,-2.37562 0.62558,-4.1973 0.39875,-1.22579 1.06796,-2.70216 1.48713,-3.28081 0.41917,-0.57865 0.69921,-1.05209 0.62231,-1.05209 -0.0769,0 -1.05992,0.46211 -2.18448,1.02691 -3.98711,2.0025 -9.14654,3.2016 -13.78971,3.20486 l -2.22006,0.002 1.21908,1.07308 c 2.79058,2.45636 3.71999,5.13523 2.70431,7.79473 -0.43175,1.13053 -2.50188,3.29801 -3.15853,3.30708 -0.16142,0.002 -0.11489,0.11946 0.10339,0.26053 0.50771,0.3281 2.26917,0.32707 6.08542,-0.004 z m -11.99961,-0.5079 c 3.41794,-0.6482 6.35324,-2.50688 6.98578,-4.4235 1.06455,-3.22562 -3.72798,-6.92824 -11.75031,-9.07807 -4.037,-1.08183 -10.08029,-1.34263 -12.24337,-0.52835 -1.13285,0.42645 -2.71544,2.0896 -2.89398,3.04128 -0.62505,3.33184 3.90608,8.09944 9.5442,10.04228 3.05407,1.05241 7.60563,1.46827 10.35768,0.94636 z m -4.13997,-4.96209 c -3.46917,-0.57599 -8.42321,-2.37143 -9.22387,-3.34292 -0.19819,-0.24047 -0.28482,-0.634 -0.19252,-0.87453 0.1409,-0.36717 0.42479,-0.41045 1.77001,-0.26985 3.06401,0.32025 8.75165,2.01583 9.93978,2.96321 0.73804,0.5885 0.7408,0.60148 0.24386,1.15059 -0.48507,0.536 -1.05406,0.61975 -2.53726,0.3735 z m 36.44589,0.0604 c 3.95557,-1.87757 7.58646,-6.63299 7.92634,-10.38123 0.43554,-4.80316 -3.7671,-6.192 -9.84411,-3.25316 -2.55844,1.23727 -3.81146,2.24856 -5.31261,4.28772 -2.03452,2.76371 -2.83577,6.20253 -1.87713,8.05634 1.34094,2.59308 5.20853,3.14103 9.10751,1.29033 z m -4.2791,-4.35439 c -0.59966,-0.66261 -0.31593,-1.19454 1.44295,-2.70519 3.15851,-2.71276 5.56533,-3.82679 5.97291,-2.76466 0.39015,1.01673 -2.45949,3.9335 -5.19945,5.32195 -1.55385,0.7874 -1.6329,0.79267 -2.21641,0.1479 z m -50.04199,1.25106 c -0.35013,-1.10318 -0.12784,-3.46375 0.43582,-4.62813 1.2865,-2.65755 3.79757,-3.784 8.4609,-3.79549 l 2.76077,-0.007 -1.2344,-0.6343 c -2.67674,-1.37543 -5.25372,-3.31886 -8.26039,-6.22955 -1.72963,-1.67443 -3.07351,-2.80629 -2.98639,-2.51525 0.80634,2.6939 0.95582,7.13661 0.31295,9.30139 -0.46917,1.57987 -1.70328,3.36615 -2.77655,4.01885 l -0.77357,0.47043 0.47422,0.77758 c 0.63357,1.03888 3.19239,3.82029 3.51455,3.82029 0.1428,0 0.17466,-0.25586 0.0721,-0.57902 z m 95.12602,-0.73062 c 2.58713,-0.49913 3.42608,-2.92452 1.86375,-5.38806 -1.76601,-2.78472 -8.4914,-5.97649 -12.63384,-5.99584 -1.16176,-0.005 -1.5241,0.11802 -2.24896,0.76618 -0.80495,0.71979 -0.86368,0.88722 -0.85844,2.4474 0.005,1.44868 0.12045,1.84119 0.85631,2.90783 1.78072,2.5812 4.58842,4.33508 8.13389,5.081 2.16249,0.45495 3.25882,0.49567 4.88729,0.18149 z m -3.49844,-3.45278 c -1.30474,-0.39263 -4.55287,-2.10157 -5.28541,-2.78081 -0.99368,-0.92139 -0.725,-1.55715 0.56007,-1.3253 1.1862,0.21401 4.91767,2.00754 5.97454,2.87166 0.67947,0.55555 0.73782,0.70064 0.43063,1.07079 -0.38961,0.46944 -0.59664,0.48961 -1.67983,0.16366 z m 24.65369,2.76673 c 5.37885,-1.23073 7.95642,-2.92948 7.95642,-5.2437 0,-0.83647 -1.29627,-1.94242 -2.55305,-2.17819 -2.5897,-0.48583 -8.88195,0.78648 -12.00454,2.42736 -2.45111,1.28802 -3.31555,2.50583 -2.81894,3.97129 0.54704,1.61428 4.81221,2.07758 9.42011,1.02324 z m -4.29972,-2.14657 c -0.60748,-0.60748 0.45691,-1.1492 3.84919,-1.95906 2.61743,-0.62487 3.18733,-0.57692 2.68113,0.22558 -0.51702,0.81965 -5.99106,2.27274 -6.53032,1.73348 z m -127.30886,2.1738 c 1.22021,-0.50983 2.04875,-1.85377 1.87163,-3.03587 -0.21159,-1.41207 -1.46245,-3.63985 -2.81552,-5.01444 -2.51845,-2.55848 -7.88774,-4.53332 -12.32544,-4.53332 -3.48646,0 -4.67038,0.74697 -4.64028,2.9277 0.0537,3.89324 5.7431,7.93008 13.56896,9.62775 2.22731,0.48317 3.23605,0.48972 4.34065,0.0282 z m -4.75089,-4.04198 c -0.88637,-0.23026 -5.93404,-2.661 -6.78689,-3.26829 -0.73533,-0.52359 -0.77385,-0.61844 -0.40219,-0.99011 1.21566,-1.21566 8.81359,2.10674 8.57788,3.75092 -0.0833,0.58098 -0.50817,0.73624 -1.3888,0.50748 z m 14.1409,4.27217 c 0,-0.34782 -1.74969,-2.66777 -2.36979,-3.14216 -1.36723,-1.04595 -2.54843,-2.47476 -3.41645,-4.13261 -1.08963,-2.08112 -1.06355,-2.0521 -2.11504,-2.35366 l -0.85412,-0.24496 1.03485,1.24177 c 1.55885,1.87053 2.22621,3.38095 2.36829,5.3601 0.0925,1.28856 0.0122,1.95465 -0.31102,2.57968 l -0.43573,0.8426 h 3.04951 c 1.67722,0 3.0495,-0.0678 3.0495,-0.15076 z m 109.19013,-0.35691 1.37243,-0.0215 -0.14788,-0.91125 c -0.2884,-1.77718 0.11703,-2.78525 1.77112,-4.40378 l 1.54796,-1.51467 -3.88407,0.0216 c -2.13624,0.0119 -4.41985,-0.0717 -5.0747,-0.18583 l -1.19062,-0.20745 0.70051,0.75641 c 1.19003,1.28499 1.81303,2.74284 1.81303,4.2426 0,0.75756 -0.11906,1.45095 -0.26458,1.54089 -0.72023,0.44513 -0.004,0.85299 1.32291,0.75385 0.3638,-0.0272 1.27905,-0.0591 2.03389,-0.0709 z m -35.92397,-4.81699 c 3.70327,-4.2857 5.65699,-8.79416 6.14498,-14.18031 0.15531,-1.71429 0.32424,-3.16096 0.37538,-3.21482 0.0512,-0.0539 0.3843,-0.0248 0.74034,0.0645 0.91156,0.22879 1.22938,1.36536 1.22938,4.39643 v 2.5643 l 1.25677,0.679 c 0.69123,0.37345 1.99834,0.9783 2.90469,1.3441 1.47915,0.59699 1.89915,0.65025 4.10104,0.52005 3.04815,-0.18024 4.94761,0.26133 8.29609,1.92857 2.87379,1.43089 5.03434,1.93943 9.106,2.14332 9.45204,0.47333 20.3963,-4.16047 28.20189,-11.94067 4.2321,-4.21834 7.03611,-8.7984 8.91782,-14.56631 2.6246,-8.04509 3.24409,-17.61462 1.60107,-24.73233 -0.94412,-4.09 -3.48689,-8.11743 -7.92363,-12.55006 -2.42216,-2.419913 -3.02137,-3.174873 -3.28412,-4.137754 -0.55595,-2.037382 -0.55778,-2.038923 -1.0795,-0.913191 -0.60813,1.312153 -0.65609,3.943173 -0.11446,6.278637 0.21445,0.924695 1.03621,3.224036 1.82613,5.109647 2.51241,5.997331 2.67875,6.735991 2.67875,11.895051 0,4.76534 -0.24428,6.373 -1.6483,10.84791 -1.12219,3.57664 -4.80966,10.4997 -7.32818,13.75834 -2.57617,3.33322 -4.88045,5.38964 -7.42768,6.62874 -2.14397,1.04293 -4.44508,1.86533 -6.58554,2.35363 -1.85499,0.42318 -6.18454,0.61507 -8.64792,0.38329 -8.2175,-0.77321 -15.65324,-5.82703 -19.13799,-13.00746 -0.99394,-2.04806 -1.55232,-4.46684 -1.22806,-5.31971 0.35013,-0.92092 1.57376,-0.98903 1.80504,-0.10047 0.37365,1.43554 2.60984,5.40357 4.06359,7.2107 2.92521,3.63624 6.83454,6.27715 11.21004,7.57282 2.40673,0.71268 8.37717,0.9797 11.08511,0.49576 2.9971,-0.53561 8.36212,-2.53874 8.36161,-3.12196 -9e-5,-0.10171 -1.69673,-0.18666 -3.77032,-0.18878 -3.6009,-0.004 -3.88298,-0.0438 -6.28369,-0.89434 -1.38245,-0.48976 -3.16838,-1.30338 -3.96875,-1.80803 -1.87089,-1.17966 -4.31142,-3.54539 -5.39667,-5.23128 -1.63997,-2.54761 -2.24006,-4.98681 -1.31424,-5.34207 0.63539,-0.24383 1.17162,0.19874 1.93277,1.59514 1.72101,3.15739 4.77104,5.98326 7.62426,7.06395 1.35256,0.51229 1.69392,0.5439 3.10701,0.28767 1.51847,-0.27533 4.89479,-1.7593 4.89479,-2.15137 0,-0.10302 -0.71482,-0.26202 -1.5885,-0.35334 -1.85531,-0.19392 -3.56364,-1.00972 -5.4531,-2.60408 -3.1857,-2.68814 -5.16137,-6.07296 -6.02479,-10.32194 -0.3375,-1.6609 -0.34303,-1.66825 -1.35463,-1.8 -1.82963,-0.23829 -1.56897,-0.75547 1.19185,-2.36476 3.79328,-2.21111 8.3467,-7.50711 11.04006,-12.840491 2.27398,-4.502922 4.29721,-11.00237 5.15025,-16.544745 0.2103,-1.366348 0.3435,-4.58528 0.33939,-8.202083 -0.006,-4.995825 -0.10108,-6.463684 -0.59328,-9.128124 -2.74059,-14.835594 -9.23676,-26.595041 -21.14081,-38.26937 -5.44691,-5.341791 -11.51444,-9.760087 -16.87626,-12.289063 -2.783,-1.312643 -10.79516,-3.865545 -14.43185,-4.598397 -8.30546,-1.6736866 -16.67472,-1.3209386 -25.66458,1.081713 -15.17146,4.054765 -27.33893,13.843918 -36.87428,29.666641 -6.14062,10.189594 -11.31473,23.551206 -13.03784,33.668892 -0.70564,4.143336 -0.64732,11.844342 0.11866,15.670676 1.61863,8.085567 5.47132,15.376121 10.37055,19.624491 2.24322,1.9452 2.50674,2.39921 1.40846,2.42655 -1.42014,0.0353 -1.66007,0.30851 -2.57244,2.92861 -1.42671,4.09719 -2.36807,5.64531 -5.04548,8.29759 -2.37295,2.35067 -4.65147,3.83646 -5.88341,3.83646 -1.5051,0 -0.3644,1.2649 1.64183,1.82058 1.64716,0.45622 2.57724,0.35799 4.54715,-0.48028 1.00343,-0.427 2.65301,-0.91785 3.66572,-1.09078 2.18285,-0.37274 3.4513,-1.26745 5.01431,-3.53687 1.04571,-1.51832 1.63472,-1.78899 2.34577,-1.07795 0.29835,0.29836 0.33898,0.60023 0.16326,1.21292 -0.27529,0.95991 -1.46118,3.04709 -1.87746,3.30437 -0.1596,0.0986 0.88361,0.74849 2.31824,1.44412 2.18292,1.05846 2.94068,1.60332 4.64521,3.34006 1.12023,1.14141 2.28973,2.40271 2.59889,2.80289 0.30916,0.40018 0.69537,0.7276 0.85825,0.7276 0.71268,0 3.08639,-3.03392 4.7094,-6.01927 0.91291,-1.67918 1.21373,-1.90471 1.7823,-1.33614 0.45547,0.45546 0.39258,1.49808 -0.19302,3.20015 -0.73405,2.13357 -1.69956,3.65816 -3.21349,5.07425 -1.54335,1.44363 -1.53594,1.704 0.0919,3.22873 4.06655,3.80894 10.67981,5.32 15.40604,3.52011 2.11501,-0.80545 5.12454,-3.79974 6.62021,-6.58668 1.23154,-2.29478 1.75484,-2.74137 2.42592,-2.07029 0.40414,0.40414 0.41921,0.60288 0.13005,1.71531 -0.87946,3.38332 -3.84986,7.37468 -6.60375,8.87354 -4.06818,2.21418 -10.79544,2.0018 -15.90038,-0.50197 -2.2897,-1.12301 -4.98992,-3.67361 -8.56952,-8.09471 -4.07318,-5.03069 -6.76002,-6.52618 -11.16647,-6.21521 -3.79653,0.26792 -6.70378,1.83146 -7.94325,4.27194 -0.9402,1.85122 -0.89829,1.95722 0.76782,1.94225 2.60628,-0.0234 4.02419,0.97145 7.44343,5.22262 6.48417,8.06185 11.07874,11.39767 19.69907,14.30228 5.32207,1.79326 7.37471,2.22398 10.58333,2.22078 8.77196,-0.009 16.14195,-3.07345 22.225,-9.24199 3.77727,-3.83035 4.82512,-5.70147 7.16044,-12.78625 1.15315,-3.49837 2.06778,-5.02095 3.69246,-6.14686 1.53282,-1.06224 3.85252,-1.22633 5.61628,-0.39726 2.30831,1.08503 4.26339,3.83282 5.13553,7.21779 0.78969,3.06493 0.007,9.68304 -1.49296,12.6231 -1.09431,2.14502 -3.61885,3.97545 -5.48298,3.97545 H 883.678 v 2.44739 c 0,2.15149 -0.088,2.61798 -0.7276,3.8582 -0.40018,0.77594 -0.72761,1.46852 -0.72761,1.53907 0,0.3515 2.67346,-2.13081 4.20992,-3.90891 z m -33.44637,-41.46131 c -5.28227,-1.37434 -8.99803,-4.8797 -10.70565,-10.09944 -2.01417,-6.15676 -2.28958,-16.662325 -0.66589,-25.399998 0.74497,-4.008956 1.96014,-7.979699 2.68826,-8.78426 0.66548,-0.735343 1.27542,-0.577537 2.71725,0.70301 0.83184,0.738794 1.84796,1.337679 2.72081,1.60361 1.89958,0.578742 8.13041,0.90184 12.55903,0.651245 5.30749,-0.300325 6.85921,-0.734994 8.39663,-2.352067 0.9477,-0.996806 2.02938,-1.08961 2.58821,-0.222058 0.484,0.751387 1.92005,6.415366 2.46528,9.723437 0.22785,1.382447 0.48298,4.656666 0.56696,7.27604 0.24909,7.769955 -0.55433,13.004001 -2.65914,17.323441 -2.09477,4.29884 -6.74394,8.1225 -11.41134,9.38512 -2.50819,0.67851 -7.03002,0.77222 -9.26041,0.19192 z m 8.60732,-3.11483 c 5.47281,-1.6247 9.59608,-6.29678 11.12693,-12.60792 0.37452,-1.544017 0.23782,-1.745862 -1.90902,-2.818651 -2.22453,-1.11161 -4.09003,-1.43093 -7.49945,-1.283694 -4.39029,0.189594 -7.49433,1.57256 -11.04275,4.919955 -2.8141,2.65468 -5.52716,6.95165 -5.00011,7.91921 0.30715,0.56386 1.74001,1.90859 2.80666,2.63404 2.6231,1.78401 7.80173,2.34022 11.51774,1.23706 z m 26.58226,-30.255538 c -4.79414,-0.795243 -9.05094,-3.666143 -12.02163,-8.107694 -2.03343,-3.040216 -2.53045,-4.828144 -2.53045,-9.102621 0,-4.126402 0.29303,-5.284297 2.1501,-8.496053 2.22433,-3.846913 5.77479,-6.618962 10.15302,-7.927043 2.83104,-0.845828 6.98149,-0.81997 9.92522,0.06184 2.67096,0.800098 5.2227,2.219208 7.13801,3.969686 4.67759,4.275057 6.55573,10.079252 5.2722,16.293219 -0.73397,3.55333 -2.46208,6.525512 -5.33652,9.178243 -1.44342,1.332087 -4.60626,3.069242 -6.58938,3.619146 -2.01514,0.558781 -6.26793,0.825229 -8.16057,0.51128 z m 6.59942,-3.183521 c 2.70459,-0.691719 4.64869,-1.829211 6.82826,-3.995227 5.6729,-5.637598 5.53951,-13.975747 -0.31731,-19.835717 -2.02877,-2.029854 -3.66037,-3.010481 -6.49579,-3.904105 -1.85469,-0.584534 -6.3901,-0.55366 -8.46666,0.05764 -4.69993,1.383557 -8.3718,5.317081 -9.65805,10.346284 -0.62732,2.452787 -0.65782,3.91291 -0.12862,6.157517 1.05973,4.494871 3.92109,8.063002 8.06687,10.059439 3.54253,1.705936 6.5636,2.036867 10.1713,1.114174 z m -7.84933,-3.570246 c -5.09207,-1.401655 -8.7466,-7.146843 -7.89283,-12.40809 0.33662,-2.074403 1.23553,-4.108028 2.41202,-5.456792 l 0.80777,-0.926041 -0.41196,0.846756 c -0.55932,1.149638 -0.50873,2.618329 0.13943,4.048035 0.72543,1.600133 1.44401,2.331714 3.02048,3.07514 3.14761,1.484341 6.9114,0.211011 8.43931,-2.855108 0.80816,-1.621758 0.86265,-2.854463 0.19149,-4.332019 -0.78754,-1.733763 -2.272,-2.786373 -4.66205,-3.305804 -0.79817,-0.173467 -0.37165,-0.215654 1.73511,-0.171618 2.58199,0.05397 2.93171,0.126457 4.62004,0.957622 4.48067,2.205827 7.04559,6.900639 6.24698,11.434442 -0.74831,4.248182 -3.60103,7.587252 -7.68261,8.992385 -1.68476,0.579995 -5.04608,0.628795 -6.96318,0.101092 z m -59.07509,5.248565 c -3.39862,-0.445755 -6.13022,-1.812239 -8.60786,-4.306088 -3.14301,-3.163572 -4.48901,-6.331213 -4.48901,-10.564297 0,-2.799667 0.38198,-4.520593 1.51964,-6.846413 2.45173,-5.012284 6.98431,-8.210356 12.01878,-8.480155 4.7984,-0.257149 8.306,1.274481 10.95443,4.783371 3.20803,4.250292 3.20063,8.448668 -0.0346,19.630343 -0.55647,1.923297 -1.27513,2.950052 -2.69574,3.851421 -2.15411,1.366766 -6.16187,2.26021 -8.66567,1.931818 z m 4.49816,-3.148584 c 1.78963,-0.466141 3.12052,-1.374185 3.72371,-2.540628 0.22886,-0.442563 0.37179,-0.848978 0.31762,-0.903145 -0.0542,-0.05417 -0.86661,0.22411 -1.80544,0.618391 -1.46985,0.617294 -2.0745,0.717084 -4.3528,0.718384 -2.34316,0.0013 -2.82743,-0.08306 -4.23333,-0.737781 -1.9355,-0.901352 -4.05101,-3.056419 -5.07237,-5.167216 -0.62431,-1.290226 -0.72823,-1.83914 -0.73758,-3.895906 -0.0102,-2.237014 0.0532,-2.52378 0.96573,-4.371023 0.53714,-1.087318 1.27696,-2.259095 1.64404,-2.603948 l 0.66741,-0.627005 -0.51955,1.019076 c -2.3363,4.582511 3.39498,9.291772 8.0787,6.638087 1.6921,-0.958707 2.59571,-2.320014 2.72482,-4.105039 0.17554,-2.426765 -1.23399,-4.429047 -3.65016,-5.185159 l -1.19062,-0.372593 0.94393,-0.01843 c 0.51916,-0.01014 1.78584,0.202606 2.81483,0.47276 1.64278,0.431297 1.97684,0.446644 2.73976,0.125861 l 0.86886,-0.365327 -0.87428,-0.902024 c -1.72409,-1.778812 -4.99066,-2.595959 -8.0806,-2.021402 -6.19281,1.151515 -10.72126,7.776442 -9.67868,14.159476 1.18144,7.233153 7.90644,11.835651 14.706,10.064591 z m 65.77056,-32.271402 c -3.12842,-1.522636 -5.94912,-3.345728 -6.51665,-4.211878 -0.62164,-0.94875 -0.32694,-1.805621 0.80699,-2.346354 1.25399,-0.597987 2.70733,-0.567592 4.47447,0.09358 3.59743,1.345971 6.49441,5.915758 4.59406,7.246816 -0.32343,0.226533 -0.65949,0.411878 -0.74681,0.411878 -0.0873,0 -1.26275,-0.537318 -2.61206,-1.19404 z m -72.20018,0.347373 c -0.9411,-0.941108 0.22139,-3.381759 2.29531,-4.81899 1.16276,-0.805792 3.14459,-1.478093 4.35717,-1.478093 1.18755,0 3.05753,0.992267 3.23998,1.719238 0.3558,1.417581 -0.77629,2.153331 -6.12581,3.981196 -2.945,1.006274 -3.30068,1.062614 -3.76665,0.596649 z m 73.50125,113.177413 c 0,-0.0644 -0.26789,-0.57046 -0.59531,-1.12448 -0.77721,-1.3151 -0.85524,-5.01932 -0.13366,-6.34493 l 0.45709,-0.83969 -2.13245,-1.07854 c -2.21601,-1.12079 -2.62275,-1.24916 -2.62275,-0.82777 0,0.59142 -1.69048,4.85423 -2.25478,5.68577 -0.74291,1.09473 -0.81566,1.01738 2.51617,2.67524 3.08314,1.53412 4.76569,2.18882 4.76569,1.8544 z m 48.22302,-2.43351 c 0.7625,-0.52974 1.43475,-1.00478 1.4939,-1.05563 0.0592,-0.0508 -0.10631,-0.5667 -0.36768,-1.14632 -0.94113,-2.08705 0.0511,-4.95268 3.1265,-9.02998 2.73517,-3.62617 6.78652,-7.01576 9.65551,-8.07834 0.68005,-0.25187 1.27097,-0.48125 1.31315,-0.50974 0.1533,-0.10354 1.11393,-2.89908 1.11393,-3.24167 0,-0.19366 -0.32742,-0.78139 -0.7276,-1.30606 -0.70501,-0.92431 -0.72753,-1.05728 -0.72515,-4.28182 0.003,-3.60012 0.68294,-7.70291 1.84254,-11.11225 0.77841,-2.28863 1.07847,-2.84128 2.16481,-3.98707 0.48422,-0.51071 0.88143,-1.13948 0.88269,-1.39726 0.001,-0.25778 -0.58431,-1.06149 -1.30126,-1.78603 -1.60912,-1.62615 -2.64508,-3.42111 -3.66154,-6.34424 -1.17402,-3.37624 -1.48141,-5.458134 -1.31243,-8.889095 0.17468,-3.54674 0.0891,-3.703361 -1.79264,-3.281649 -1.17383,0.263059 -3.6724,0.03125 -4.38056,-0.406422 -0.53476,-0.330498 -0.19588,0.229096 1.03288,1.705597 4.32414,5.195989 5.86159,9.996199 5.86159,18.301009 0,8.16333 -1.43505,15.04921 -4.48954,21.54244 -1.56353,3.32373 -2.37425,4.5892 -4.95515,7.73455 -2.44339,2.97777 -5.01119,5.25221 -8.81156,7.80487 -2.57302,1.72828 -7.10061,4.12607 -9.24296,4.89504 -1.27681,0.45829 -0.87441,0.66298 0.67154,0.34158 2.44411,-0.50812 5.61286,-0.74068 6.87625,-0.50465 2.22029,0.41479 3.81184,2.10876 3.81184,4.05713 0,0.51655 0.12028,0.93919 0.2673,0.93919 0.14701,0 0.89115,-0.43343 1.65364,-0.96318 z m -133.20443,0.32766 c 0.39453,-0.20402 1.01319,-0.88863 1.37482,-1.52136 0.57946,-1.01387 0.65764,-1.46446 0.65861,-3.79625 10e-4,-3.13857 -0.53607,-5.39748 -2.01417,-8.46667 -1.47993,-3.07298 -2.78173,-4.36562 -4.39654,-4.36562 -2.09645,0 -3.18185,2.63273 -2.89062,7.01146 0.29762,4.47464 1.58228,8.13002 3.58886,10.21182 1.36625,1.41746 2.28324,1.64842 3.67904,0.92662 z m -3.18212,-5.38376 c -0.62709,-0.7189 -0.8925,-1.37189 -1.37812,-3.3906 -0.52277,-2.17309 -0.47954,-4.48075 0.0839,-4.48075 0.70003,0 1.36461,1.3416 2.06332,4.16527 0.57245,2.31341 0.64548,2.95708 0.39731,3.50176 -0.35872,0.78732 -0.61825,0.83278 -1.16644,0.20432 z m -27.38865,2.09203 c -0.48316,-1.51088 -0.3169,-2.77298 0.53102,-4.03115 0.78052,-1.15814 2.80461,-2.18397 4.30928,-2.18397 0.64591,0 1.17395,-0.0695 1.17341,-0.15434 -5.4e-4,-0.0849 -0.74468,-0.54126 -1.65365,-1.01416 -5.31049,-2.76286 -10.80499,-8.63891 -13.52411,-14.46325 -0.79853,-1.71046 -2.31632,-6.15396 -2.79505,-8.18284 -1.1163,-4.73095 -1.41834,-14.01064 -0.68168,-20.94408 0.55124,-5.18838 0.64497,-4.956897 -1.2376,-3.05673 -0.90024,0.90866 -1.89939,1.75194 -2.22031,1.87396 -0.56454,0.21464 -0.54684,0.26011 0.54476,1.39937 1.56641,1.6348 1.85171,2.96393 1.62538,7.57237 -0.33626,6.84676 -0.99432,9.07651 -3.47663,11.78027 l -1.15489,1.25791 0.4126,2.05715 c 0.22693,1.13143 0.48773,2.16593 0.57957,2.29889 0.0918,0.13296 0.82234,0.55801 1.62336,0.94456 2.61993,1.2643 6.9642,5.918 9.57077,10.25245 2.9686,4.93648 3.4132,8.54291 1.34425,10.90421 -0.21838,0.24924 -0.33045,0.62675 -0.24903,0.83891 0.19175,0.49971 4.88749,4.13188 5.34177,4.13188 0.277,0 0.26431,-0.25722 -0.0632,-1.28141 z m 171.35601,-0.476 c 3.10874,-1.79036 6.01145,-4.80555 7.85486,-8.15922 2.42336,-4.40876 0.26605,-6.65527 -3.80571,-3.96305 -3.30282,2.18381 -7.15784,6.64661 -8.14751,9.43205 -0.468,1.31717 -0.3046,2.72089 0.36194,3.10948 0.843,0.49145 2.47258,0.3086 3.73642,-0.41926 z m 0.41866,-3.80121 c -0.31657,-0.51221 0.17064,-1.30115 1.62353,-2.62902 1.48003,-1.35265 2.36895,-1.66736 2.64892,-0.93778 0.1998,0.52069 -0.9964,2.07496 -2.35357,3.05809 -1.12469,0.81472 -1.64457,0.95255 -1.91888,0.50871 z m -81.97923,0.76825 c 1.5635,-0.42894 2.54387,-0.53457 4.11641,-0.44354 1.86754,0.10811 2.02913,0.0795 1.6966,-0.29986 -0.66712,-0.76118 -1.57892,-2.77053 -2.17131,-4.78498 l -0.58354,-1.98437 -0.49081,0.89873 c -1.17405,2.14983 -3.07665,4.76468 -4.44111,6.10369 -1.5404,1.51166 -1.93258,2.22267 -0.82609,1.49767 0.35616,-0.23336 1.57109,-0.67767 2.69985,-0.98734 z m -67.73551,0.69284 c -0.083,-0.21635 -0.34824,-1.7344 -0.58937,-3.37344 -0.52238,-3.55074 -0.39167,-6.35297 0.39201,-8.40403 0.30581,-0.80036 0.55607,-1.47451 0.55615,-1.49809 7e-5,-0.0236 -0.50588,-0.12618 -1.12435,-0.22798 -2.18569,-0.35977 -7.4371,-2.25401 -9.9531,-3.59021 -1.40165,-0.74438 -3.3039,-1.9661 -4.22722,-2.71493 -4.18362,-3.39296 -8.24828,-9.60775 -10.20401,-15.60171 -1.24478,-3.81504 -1.60015,-6.4843 -1.59142,-11.95353 0.007,-4.605415 0.0686,-5.260116 0.7303,-7.805212 1.42007,-5.462081 3.18924,-8.301995 8.65339,-13.890624 1.99191,-2.037291 3.81645,-4.085207 4.05452,-4.550923 0.59018,-1.154524 0.54349,-3.381732 -0.10065,-4.801254 l -0.52189,-1.150095 -1.03955,1.315124 c -1.12599,1.424483 -2.8035,2.402397 -4.51482,2.631933 -0.98702,0.132387 -1.04269,0.188434 -1.0115,1.018225 0.0393,1.046207 -0.8135,2.265379 -2.61146,3.733239 -1.4287,1.166391 -4.09152,4.420936 -4.87719,5.960985 -0.88043,1.725788 -4.17923,11.558784 -4.59683,13.702142 -0.95076,4.87984 -1.20026,13.88906 -0.52182,18.84246 1.2713,9.28193 4.42014,16.17645 9.83037,21.52401 3.81394,3.76977 6.37632,5.22759 14.49924,8.2491 2.91041,1.0826 5.88698,2.19169 6.61458,2.46463 1.64261,0.6162 2.36033,0.65623 2.15462,0.12018 z m 81.10985,-0.2655 c 0.65448,-0.44473 1.25487,-1.23775 1.84736,-2.44005 0.79069,-1.60454 0.88673,-2.05188 0.96826,-4.51037 0.15689,-4.73042 -1.11831,-8.67274 -3.5182,-10.87666 -1.17347,-1.07763 -1.33763,-1.14681 -2.42937,-1.02376 -2.32718,0.26231 -3.76449,3.05016 -4.19287,8.13262 -0.33057,3.92194 1.05413,8.62683 3.07677,10.45417 1.30023,1.17468 2.7732,1.26624 4.24805,0.26405 z m -3.15577,-5.3488 c -0.90984,-1.38865 -0.40595,-7.86771 0.6385,-8.20987 0.17262,-0.0566 0.52981,0.22677 0.79375,0.6296 0.39901,0.60898 0.47725,1.26945 0.46431,3.91903 -0.0158,3.23691 -0.28831,4.37724 -1.04597,4.37724 -0.20981,0 -0.59257,-0.3222 -0.85059,-0.716 z m -106.59435,2.58019 c 0.43276,-0.43316 0.55345,-0.87465 0.54284,-1.98567 -0.0403,-4.22636 -7.89732,-14.27332 -11.63662,-14.88013 -1.22567,-0.1989 -2.07823,0.40417 -2.63597,1.86459 -0.38271,1.00213 -0.40264,1.3898 -0.13718,2.66851 0.70197,3.38137 4.10171,8.58086 7.02062,10.73719 3.18835,2.35537 5.53968,2.90334 6.84631,1.59551 z m -7.15083,-5.48527 c -2.66695,-2.74342 -3.70237,-5.12456 -2.31449,-5.32258 1.08686,-0.15508 5.30362,4.77853 5.08207,5.94601 -0.0569,0.29976 -0.36557,0.51575 -0.81062,0.56719 -0.56648,0.0655 -0.98108,-0.18676 -1.95696,-1.19062 z m 36.50253,-9.3089 0.70118,-1.28831 -1.53114,-0.55828 c -2.02567,-0.7386 -3.46087,-2.01253 -4.56819,-4.05488 -0.87958,-1.62229 -0.90721,-1.76326 -0.89849,-4.58417 0.008,-2.71509 0.0663,-3.03308 0.86223,-4.7381 1.11012,-2.37794 2.16852,-3.6382 5.14946,-6.13157 3.70129,-3.0959 4.95952,-4.26177 4.95952,-4.59544 0,-0.16666 -0.38859,-0.92238 -0.86353,-1.67937 -0.47495,-0.757 -1.206,-2.0312 -1.62457,-2.83157 -0.41856,-0.80036 -0.84601,-1.55091 -0.94987,-1.66788 -0.10386,-0.11698 -0.81081,-0.13018 -1.57098,-0.0293 -1.07516,0.14262 -1.43016,0.30966 -1.59837,0.75208 -0.34222,0.90012 -2.21721,2.4397 -4.16785,3.42228 -2.01737,1.01619 -4.35044,3.28027 -5.01041,4.86225 -0.2283,0.54724 -0.81458,1.59737 -1.30285,2.33363 -2.16285,3.26136 -3.54906,7.93748 -3.54906,11.9721 v 2.52727 l 1.25677,1.17338 c 1.84791,1.72531 3.2747,2.63796 5.98096,3.82572 2.38748,1.04786 6.78422,2.52933 7.60303,2.56181 0.24048,0.01 0.7216,-0.53567 1.12216,-1.27161 z m 130.68018,-0.86912 c 0.91072,-0.29847 1.87053,-0.6571 2.13292,-0.79695 1.08638,-0.57903 4.40447,-6.76995 5.11948,-9.55198 0.30522,-1.18758 0.38183,-2.27799 0.27386,-3.8978 -0.40554,-6.0839 -2.31378,-10.6984 -5.04236,-12.19346 -1.44957,-0.79425 -3.47176,-2.68336 -4.04917,-3.78269 -0.2203,-0.41943 -0.35113,-1.09926 -0.29074,-1.51074 0.0942,-0.64168 0.005,-0.77125 -0.63011,-0.91064 -0.97837,-0.214887 -1.16836,-0.06649 -1.9833,1.54907 -0.38019,0.75368 -1.45459,2.53047 -2.38756,3.94842 l -1.6963,2.57808 1.54487,2.05212 c 0.84968,1.12867 2.32508,3.07371 3.27866,4.3223 2.27153,2.97428 3.10481,4.82422 3.47567,7.71626 0.60461,4.71498 -0.96427,8.31556 -4.49047,10.30563 -0.77265,0.43605 -1.40481,0.85737 -1.40481,0.93625 0,0.31571 4.5981,-0.25546 6.14936,-0.76387 z m 30.75216,-1.57533 c 2.23173,-1.95949 4.04206,-7.58369 3.77552,-11.72952 -0.26905,-4.18494 -1.8677,-5.91861 -3.88916,-4.21766 -1.4836,1.24837 -2.3715,3.76078 -3.05113,8.63353 -0.61285,4.39392 -0.41366,6.27529 0.80722,7.62434 0.65222,0.7207 1.27658,0.63841 2.35755,-0.31069 z m -0.0214,-5.153 c -0.38101,-1.51807 0.48605,-5.9309 1.16534,-5.9309 0.13039,0 0.45487,0.24066 0.72106,0.53479 0.43731,0.48323 0.45714,0.73809 0.20566,2.64289 -0.28572,2.1641 -0.85408,3.4369 -1.53473,3.4369 -0.21215,0 -0.46295,-0.30766 -0.55733,-0.68368 z m -35.75117,-3.48351 c 0.12589,-3.79573 0.10485,-4.03489 -0.35498,-4.03489 -1.74279,0 -2.35611,3.79726 -0.92012,5.69671 0.21663,0.28655 0.39766,0.94764 0.40229,1.46909 0.009,0.99054 0.24018,1.45243 0.5545,1.10684 0.10147,-0.11157 0.24471,-2.01855 0.31831,-4.23775 z m 1.91373,0.91299 c 0,-1.19337 -0.10213,-2.52695 -0.22694,-2.96351 l -0.22694,-0.79375 -0.25233,0.66146 c -0.35673,0.93514 0.0143,5.95709 0.41081,5.56078 0.16946,-0.16937 0.2954,-1.22026 0.2954,-2.46498 z m -128.66043,1.33597 c 0.23636,-0.18389 0.49726,-0.91808 0.58764,-1.65364 0.29378,-2.39097 0.46604,-6.22268 0.29929,-6.65723 -0.5508,-1.43536 -3.27276,3.82727 -3.30642,6.39264 -0.0238,1.81535 0.19786,2.24896 1.1498,2.24896 0.46453,0 1.0359,-0.14883 1.26969,-0.33073 z m 122.83921,-0.13229 c -1.29643,-3.17112 -0.60471,-6.8768 1.51767,-8.13052 0.40242,-0.23772 0.73167,-0.53241 0.73167,-0.65488 0,-0.12247 -0.8554,-1.39566 -1.90088,-2.82931 -1.04549,-1.43365 -1.92811,-2.64591 -1.96139,-2.6939 -0.0333,-0.048 -0.92264,0.63661 -1.97636,1.52135 -1.05371,0.88474 -2.00382,1.60861 -2.11134,1.60861 -1.16917,0 0.54192,5.51968 2.66566,8.59896 1.37748,1.99725 3.55275,3.84621 3.03497,2.57969 z m -118.96633,-2.59333 c 0.68007,-0.86456 0.96737,-3.1249 0.58004,-4.56333 -0.21881,-0.81261 -0.5155,-1.22032 -1.11279,-1.52919 -1.17104,-0.60557 -1.38598,-0.23611 -1.00101,1.72067 0.18309,0.93062 0.25285,2.36832 0.16207,3.34038 -0.14504,1.55323 -0.11443,1.70657 0.34065,1.70657 0.275,0 0.73897,-0.3038 1.03104,-0.6751 z m -44.7603,-0.77873 c 1.30923,-0.91702 2.55815,-4.02695 3.13506,-7.80659 0.86765,-5.68437 0.11306,-8.99583 -2.0499,-8.99583 -1.05996,0 -1.89737,0.62437 -2.86969,2.13959 -2.34029,3.64703 -3.02867,10.39774 -1.38471,13.57936 0.76305,1.47677 2.00268,1.90056 3.16924,1.08347 z m -2.15075,-5.51325 c -0.41881,-0.30624 -0.47163,-0.61118 -0.3558,-2.05418 0.12693,-1.5813 1.10466,-4.47249 1.51249,-4.47249 0.0998,0 0.40158,0.16098 0.67066,0.35773 0.41874,0.3062 0.46515,0.58804 0.32215,1.95626 -0.19015,1.81925 -0.97168,4.35486 -1.3824,4.48505 -0.1514,0.048 -0.4966,-0.0746 -0.7671,-0.27237 z m 51.41535,-0.86981 c 0.99544,-3.07513 1.01627,-3.63647 0.16648,-4.48626 l -0.65743,-0.65742 -1.74641,1.66085 -1.74642,1.66085 0.78478,0.66225 c 0.98595,0.83201 1.90396,2.33032 1.90525,3.10964 0.002,1.25131 0.50083,0.4996 1.29375,-1.94991 z m 155.19074,-6.22618 c 0.82526,-0.37601 1.01175,-0.93121 1.00245,-2.98443 -0.009,-2.06409 -1.00493,-5.17383 -2.41781,-7.552057 -1.16922,-1.968085 -3.45747,-4.504608 -4.06371,-4.504608 -1.13416,0 -1.3058,3.697319 -0.34708,7.476675 0.78543,3.09627 1.77424,5.16425 3.2028,6.69829 1.14847,1.23326 1.53645,1.36136 2.62335,0.86613 z m -1.66823,-5.23048 c -0.74924,-0.46306 -1.68987,-4.097823 -1.18986,-4.597834 0.34288,-0.342882 1.21726,0.422364 1.70168,1.489294 0.85861,1.89106 0.55009,3.76484 -0.51182,3.10854 z m -165.65258,-0.16002 c 0.89519,-0.56511 1.5769,-1.35536 1.5769,-1.82799 0,-0.0823 -0.22722,-0.14969 -0.50492,-0.14969 -0.56294,0 -3.46383,2.25203 -3.46383,2.68905 0,0.40312 1.18441,0.0509 2.39185,-0.71137 z m 138.10251,0.008 c -0.43099,-1.13359 -1.10891,-1.99825 -1.87886,-2.39641 -1.80199,-0.931841 -1.76826,0.20203 0.0548,1.84109 1.54303,1.38732 2.21861,1.59299 1.82409,0.55532 z M 766.50073,100.004 c 2.39949,-1.138633 5.30327,-6.035152 5.74135,-9.681389 0.27452,-2.284827 -0.81715,-4.440372 -2.24882,-4.440372 -3.23183,0 -8.04519,7.745598 -7.549,12.147762 0.2388,2.118569 1.97319,2.962579 4.05647,1.973999 z m -1.55248,-5.038888 c -1.13448,-1.134479 1.81447,-5.64329 3.69095,-5.64329 0.62613,0 0.6646,0.06888 0.52363,0.937555 -0.15608,0.961817 -2.74744,4.694406 -3.44491,4.962052 -0.20404,0.0783 -0.55039,-0.03704 -0.76967,-0.256317 z m 10.11931,-4.584957 c 1.17052,-3.436514 1.58748,-4.220442 3.92792,-7.384893 l 0.62162,-0.840477 -0.75391,0.18868 c -0.41465,0.103774 -1.28969,0.425852 -1.94454,0.715729 -0.74212,0.328514 -1.81329,0.535909 -2.84361,0.550568 -1.88491,0.02682 -2.02026,0.240491 -0.99979,1.578393 1.00096,1.312333 1.3617,3.278836 0.99267,5.411352 -0.69052,3.9903 -0.66742,3.702614 -0.23735,2.955648 0.20947,-0.363802 0.76611,-1.792552 1.23699,-3.175 z M 959.64,89.234058 c 0.66678,-0.573543 0.69547,-0.681134 0.40566,-1.521354 -0.78382,-2.272513 -3.11468,-4.704067 -5.44102,-5.676075 -1.85309,-0.774271 -4.84534,-0.312207 -5.27789,0.815016 -0.79178,2.063345 2.10461,5.287443 5.81446,6.472323 2.20217,0.703347 3.60926,0.675226 4.49879,-0.08991 z m -4.78906,-2.817629 c -2.40608,-1.191259 -3.79255,-2.901447 -2.78806,-3.439032 1.40185,-0.750249 6.16462,2.516511 5.42164,3.718678 -0.25256,0.408638 -1.51393,0.274699 -2.63358,-0.279646 z M 778.03575,80.851994 c 3.63375,-1.314845 5.7577,-2.993717 5.76108,-4.553846 0.002,-0.769468 -1.49552,-1.346988 -3.07058,-1.184428 -2.85672,0.29484 -5.59789,2.091052 -6.85484,4.491792 -1.36497,2.607066 -0.39675,2.896877 4.16434,1.246482 z m -2.44001,-2.111203 c 0,-0.429538 1.51911,-1.670648 2.9911,-2.443717 1.44663,-0.759751 2.41741,-0.921828 2.70774,-0.452069 0.29341,0.474749 -0.68627,1.289024 -2.70136,2.245267 -1.9225,0.912306 -2.99748,1.1456 -2.99748,0.650519 z m 12.75531,-5.200395 c 1.02681,-0.516123 2.06135,-1.621803 2.06135,-2.203107 0,-0.743021 -0.68961,-1.307481 -1.37758,-1.127573 -0.32623,0.08531 -0.44739,0.203697 -0.26924,0.263079 0.53378,0.177928 0.36829,0.784298 -0.37323,1.367585 -0.48831,0.3841 -1.08275,0.54837 -1.98438,0.54837 -1.67958,0 -1.71054,-0.545218 -0.0773,-1.360913 1.49882,-0.748544 1.68786,-1.020337 0.70968,-1.020337 -1.06451,0 -3.3522,1.200487 -3.76791,1.977247 -0.46532,0.869456 -0.0581,1.350347 1.55151,1.832174 1.30316,0.390094 2.36673,0.306709 3.52707,-0.276525 z"
       id="path324" /></g></svg>
