<?xml version="1.0" encoding="UTF-8" standalone="no"?>
<!-- Created with Inkscape (http://www.inkscape.org/) -->

<svg
   width="184.45175mm"
   height="198.36525mm"
   viewBox="0 0 184.45178 198.36524"
   version="1.1"
   id="svg1"
   xml:space="preserve"
   xmlns="http://www.w3.org/2000/svg"
   xmlns:svg="http://www.w3.org/2000/svg"><defs
     id="defs1" /><g
     id="layer1"
     transform="translate(-658.95603,88.671807)"><path
       style="fill:#000000"
       d="m 731.81776,109.55313 c -8.57712,-0.84216 -17.90347,-3.52726 -26.45834,-7.61748 -1.81901,-0.86969 -3.98164,-1.77595 -4.80585,-2.013894 -0.84143,-0.242916 -2.05967,-0.877109 -2.77813,-1.446243 -1.5613,-1.236801 -4.82749,-4.687574 -7.01832,-7.414964 -0.89284,-1.111512 -1.76494,-2.177634 -1.938,-2.369161 -0.25669,-0.284095 -0.52895,-0.207349 -1.47831,0.416707 -3.76421,2.474388 -8.54509,2.964029 -13.37333,1.36965 -6.55227,-2.163683 -11.77246,-9.171272 -11.41622,-15.32513 0.13238,-2.286895 0.73734,-3.777776 2.17961,-5.371518 l 0.90701,-1.002272 -1.81361,-2.260412 c -3.38325,-4.216763 -4.88292,-7.9971 -4.86813,-12.271501 0.0143,-4.139981 1.23024,-7.138986 4.11917,-10.159696 1.49073,-1.558733 1.75086,-1.966452 1.65364,-2.591878 -0.0634,-0.408196 -0.17484,-1.113988 -0.24753,-1.568425 -0.19913,-1.244777 0.34218,-4.154408 1.06973,-5.749908 2.35384,-5.161952 8.94205,-10.381696 19.75113,-15.648545 l 4.15224,-2.023222 -0.44807,-0.662048 c -5.80806,-8.5817919 -8.21041,-13.5998169 -10.0867,-21.0690899 -1.26537,-5.0372601 -1.63183,-7.5959421 -1.79227,-12.5137341 -0.4247,-13.018549 3.12052,-25.250473 10.53106,-36.334848 12.97368,-19.405496 35.34588,-31.934856 61.22484,-34.288466 12.67364,-1.15262 26.41395,0.94127 38.97117,5.93882 17.20236,6.84625 32.08727,20.481472 39.87391,36.526254 7.26916,14.978474 8.84014,29.492743 4.72523,43.6562471 -2.63352,9.064561 -8.23486,18.0727559 -14.64521,23.5527369 -1.35871,1.161515 -2.81691,2.411067 -3.24044,2.776782 l -0.77005,0.664936 1.67394,1.362246 c 1.60735,1.308046 6.18831,5.805985 6.89142,6.766523 0.31497,0.430289 0.39609,0.409015 1.1544,-0.302768 1.49647,-1.404636 2.94514,-1.964244 5.40208,-2.086772 2.72336,-0.135813 4.79664,0.462208 7.36516,2.124423 3.89601,2.521296 6.52315,7.681536 7.06331,13.873762 0.44105,5.056088 -1.60014,11.138623 -5.14332,15.326606 -3.02131,3.57113 -6.43889,5.599026 -11.60025,6.883248 -0.24136,0.06005 -0.33073,0.929904 -0.33073,3.218971 0,3.850938 -0.57751,7.406555 -1.68492,10.373677 -1.43244,3.837991 -2.63556,5.701174 -5.56283,8.614716 -2.43373,2.422321 -2.94766,2.795573 -5.71683,4.151967 -8.13769,3.985991 -17.66627,4.111389 -23.94479,0.31512 -1.50475,-0.909834 -1.72806,-0.964679 -4.28377,-1.052076 -2.15791,-0.07379 -3.15487,-0.252142 -4.99311,-0.893232 l -2.29686,-0.801028 -3.07667,2.901177 c -2.10568,1.985569 -3.66119,3.207015 -4.92876,3.87025 -1.01864,0.532991 -2.56779,1.476052 -3.44255,2.095692 -2.81582,1.9946 -5.88935,3.45821 -10.31578,4.91237 -2.68336,0.88153 -8.75751,2.30592 -11.6905,2.74142 -3.40684,0.50587 -9.48406,0.702 -12.51887,0.40401 z m 10.517,-5.24774 c 1.17787,-1.48755 3.10746,-9.220975 4.33714,-17.382438 0.53872,-3.575475 0.83229,-3.000807 0.67583,1.322916 -0.17476,4.829218 -1.34121,10.694996 -2.99241,15.048132 -0.21388,0.56386 -0.35309,1.061 -0.30934,1.10474 0.187,0.18701 4.33852,-0.73983 4.64277,-1.03651 0.44971,-0.43851 1.80312,-4.457256 2.58575,-7.678005 0.3496,-1.438695 0.69876,-2.678929 0.7759,-2.756076 0.49383,-0.49383 -0.68648,7.338121 -1.34402,8.918241 -0.20611,0.49528 -0.3192,0.95606 -0.25131,1.02395 0.34167,0.34167 2.03444,-0.30129 2.61748,-0.9942 0.83612,-0.99367 2.14833,-4.436496 2.69469,-7.070011 0.61818,-2.979733 0.90946,-9.595323 0.63248,-14.365468 -0.39873,-6.867211 -2.27861,-16.410959 -4.21016,-21.374044 -1.17464,-3.018237 -1.02226,-2.907224 -2.81888,-2.053638 -2.0339,0.966325 -6.29375,2.355075 -9.02011,2.940643 l -2.18281,0.468824 -0.0201,1.07942 -0.0201,1.07942 -0.3362,-0.926041 c -0.38756,-1.067514 -0.0401,-1.031072 -6.30742,-0.661525 l -3.64118,0.214698 0.1463,1.612476 c 0.14634,1.612999 1.18292,19.924724 1.18292,20.896904 0,2.088609 -0.82615,-3.348137 -1.43486,-9.442587 -0.20635,-2.066034 -0.52539,-5.857827 -0.70896,-8.426208 l -0.33377,-4.669783 -2.00235,-0.17505 c -4.85027,-0.424024 -8.38137,-1.316535 -12.23357,-3.09213 -0.99774,-0.459887 -1.87567,-0.774552 -1.95097,-0.699255 -0.19476,0.194758 -0.83073,5.654436 -1.04143,8.940376 -0.22878,3.568075 0.24022,9.589919 1.05844,13.589827 0.35313,1.726333 1.53804,5.824149 2.63313,9.106258 1.09508,3.28211 1.94211,6.016425 1.88228,6.076256 -0.17693,0.176924 -1.45153,-2.139643 -2.54627,-4.627783 -3.10791,-7.063747 -4.57689,-16.610609 -3.95722,-25.717959 0.16284,-2.393339 0.40761,-4.939668 0.54394,-5.658508 0.44855,-2.365226 0.40833,-2.467796 -1.27349,-3.247236 -0.83675,-0.38779 -2.62301,-1.157307 -3.96947,-1.710038 l -2.44812,-1.004964 -0.41136,0.710095 c -0.33706,0.581828 -0.39058,0.607852 -0.29629,0.144071 0.16701,-0.821526 -0.0523,-1.023359 -1.67216,-1.538747 -2.58048,-0.821042 -7.31184,-3.283892 -8.69132,-4.524159 l -1.32192,-1.188526 -0.56048,2.453519 c -0.30826,1.349436 -0.73307,3.286958 -0.94403,4.305603 l -0.38357,1.852084 0.12863,-2.910417 c 0.0707,-1.600729 0.30724,-3.658201 0.52552,-4.572159 l 0.39689,-1.661743 -0.92287,-1.341626 c -0.77729,-1.129978 -0.95265,-1.264354 -1.11157,-0.851799 -0.10378,0.269405 -0.75412,1.978109 -1.4452,3.797119 -0.69108,1.81901 -1.26083,3.128698 -1.26611,2.910416 -0.0196,-0.812104 1.27954,-5.997813 1.80929,-7.221943 0.54509,-1.259542 0.54548,-1.281788 0.0533,-3.042708 l -0.49581,-1.773889 -0.31648,0.79375 c -0.60814,1.525246 -1.86831,6.636185 -2.28329,9.260416 -0.48837,3.088367 -0.54107,9.619968 -0.10392,12.881368 0.65178,4.862688 2.26215,9.996484 4.75679,15.164463 3.34721,6.934157 9.20823,14.234859 14.05464,17.50696 1.7397,1.174575 5.56081,3.320076 5.68745,3.193429 0.0609,-0.06088 -0.26735,-0.632549 -0.7294,-1.270384 -1.23835,-1.709496 -3.26785,-6.126047 -4.06524,-8.846672 -0.49475,-1.688054 -0.72899,-3.189978 -0.80467,-5.159375 l -0.10676,-2.778124 0.3687,1.719791 c 0.20279,0.945886 0.54916,2.255573 0.76972,2.910417 0.22056,0.654843 0.53431,1.726406 0.69721,2.38125 0.66343,2.666785 2.45671,6.371479 4.58059,9.462939 1.55932,2.269698 2.7325,3.359463 4.39669,4.084094 1.93296,0.841663 7.1083,2.486953 9.41994,2.994703 1.16417,0.2557 2.76259,0.62116 3.55206,0.81211 0.78947,0.19096 1.53149,0.28781 1.64894,0.21522 0.11746,-0.0726 -0.0711,-0.58292 -0.41903,-1.13406 -0.60408,-0.95693 -1.66932,-5.480645 -1.36276,-5.787205 0.0771,-0.07711 0.22093,0.08519 0.31958,0.360683 0.98316,2.745482 3.22451,6.394112 4.26729,6.946622 0.25332,0.13422 0.90512,0.30307 1.44844,0.37522 l 0.98786,0.13118 -0.13358,-2.81461 -0.13358,-2.814605 0.93597,2.831195 0.93596,2.8312 1.51705,0.10024 c 0.83438,0.0551 2.82674,0.0476 4.42747,-0.0167 2.23293,-0.0897 2.98736,-0.21408 3.24096,-0.53436 z m -19.20819,-3.42567 c -3.66656,-4.628627 -6.87931,-13.991081 -6.60514,-19.248435 l 0.0828,-1.587499 0.87212,3.307291 c 2.07333,7.86261 4.53074,14.582883 6.4339,17.594793 1.03087,1.63144 1.0743,1.71979 0.84533,1.71979 -0.11784,0 -0.85089,-0.80367 -1.62899,-1.78594 z m 14.6572,-11.178643 c 0.0872,-3.274219 0.2447,-9.669601 0.35005,-14.211961 0.10535,-4.54236 0.25985,-8.327151 0.34335,-8.410647 0.0835,-0.0835 0.3003,1.393218 0.48179,3.281587 0.43957,4.573582 0.2217,17.950494 -0.34948,21.457687 -0.78571,4.824439 -0.99615,4.284977 -0.82571,-2.116666 z m 5.25501,-7.096741 c -0.0151,-0.946976 0.0501,-1.296802 0.17984,-0.964781 0.26743,0.684171 0.29457,2.176811 0.0424,2.329959 -0.10914,0.06627 -0.20913,-0.548055 -0.2222,-1.365178 z m -52.86805,-5.354591 c -0.53866,-1.178415 -1.20474,-3.055896 -1.48018,-4.172182 -0.68604,-2.780439 -1.1515,-7.467294 -0.92062,-9.270101 l 0.19091,-1.490759 0.39201,1.190625 c 0.21561,0.654844 0.48658,2.797969 0.60216,4.7625 0.20755,3.527811 1.02245,7.57825 1.99103,9.89639 0.80731,1.932175 0.19715,1.210909 -0.77531,-0.916473 z m -1.68398,-11.719023 c -0.22353,-0.487408 -0.26141,-0.419719 -0.26645,0.476125 -0.005,0.838211 0.0467,0.950345 0.26058,0.568186 0.17609,-0.314651 0.17808,-0.66882 0.006,-1.044311 z m 69.81173,35.057308 c 1.37013,-0.56061 2.95173,-1.280865 3.51465,-1.600567 2.06167,-1.170877 4.93701,-3.230862 5.31511,-3.807909 0.45939,-0.701121 2.52493,-6.978962 2.52493,-7.674081 0,-0.264377 -0.68461,-1.294544 -1.52135,-2.289259 -4.11573,-4.892737 -6.23648,-10.491968 -6.26826,-16.549511 -0.012,-2.295116 0.10815,-3.302733 0.5685,-4.766101 0.70593,-2.244018 1.88079,-4.085885 3.2472,-5.090759 0.81043,-0.595998 0.96418,-0.837432 0.76262,-1.1976 -0.36414,-0.650681 -1.02338,-2.923019 -0.88745,-3.058951 0.0634,-0.06335 0.22343,0.169217 0.35573,0.516821 0.13229,0.347604 0.43091,1.087355 0.66359,1.643892 l 0.42305,1.011884 1.52662,-0.205302 c 1.64708,-0.2215 2.61122,-0.212022 4.00007,0.03932 0.54118,0.09794 0.82451,0.06094 0.72808,-0.09508 -0.0868,-0.140476 -0.5853,-1.904242 -1.10774,-3.919479 -1.53294,-5.913049 -1.68091,-6.546388 -1.55816,-6.669136 0.0642,-0.06416 0.48301,0.666225 0.93078,1.623081 0.80409,1.718292 1.95122,6.031293 2.24646,8.446275 0.1044,0.853892 0.2947,1.288737 0.60745,1.387999 0.60519,0.192082 2.38637,1.930908 2.99602,2.924798 0.26779,0.436562 0.49808,1.150937 0.51175,1.5875 l 0.0249,0.79375 0.27332,-0.926042 c 0.35716,-1.210107 0.0786,-10.942362 -0.43917,-15.345832 -0.68366,-5.813927 -1.1453,-7.873956 -2.0193,-9.011115 l -0.49664,-0.646176 -0.006,0.930768 c -0.004,0.568185 0.25551,1.315437 0.66512,1.918229 0.78621,1.157017 0.58892,1.279593 -0.45296,0.281415 l -0.73695,-0.706046 -0.402,0.962131 c -0.51688,1.237056 -0.50712,1.417591 0.11252,2.082703 0.83377,0.894945 2.35954,4.223624 2.52608,5.511007 0.1732,1.33883 0.28631,1.440321 -1.64079,-1.472208 -0.61254,-0.925775 -1.44372,-2.053601 -1.84706,-2.506282 l -0.73335,-0.823055 -0.48105,0.614835 c -0.26458,0.33816 -1.14699,1.293411 -1.9609,2.122781 -1.44611,1.47357 -1.47214,1.526539 -1.142,2.323588 0.42565,1.027611 0.11119,1.386348 -0.52616,0.600237 -0.4972,-0.613249 -1.1786,-0.779853 -1.44258,-0.352718 -0.0825,0.133428 -1.10908,0.795832 -2.28138,1.472011 -1.17229,0.676178 -2.35208,1.450057 -2.62176,1.719731 -0.26967,0.269674 -0.54779,0.432835 -0.61805,0.36258 -0.0703,-0.07025 -0.94338,0.215468 -1.94028,0.634939 -0.99689,0.419471 -3.00316,1.102757 -4.45837,1.518412 -1.45521,0.415655 -2.74123,0.836519 -2.85783,0.935253 -0.1166,0.09873 0.25709,1.358087 0.83042,2.798561 5.18727,13.032799 6.33851,30.48301 2.70216,40.958899 -0.60087,1.731039 -0.64538,2.009099 -0.32163,2.009099 0.12145,0 1.34184,-0.45868 2.71198,-1.01929 z m 5.00469,-6.330766 c 0,-0.17168 0.17208,-0.761039 0.38241,-1.309687 0.32391,-0.844959 1.36674,-4.946899 1.83432,-7.21525 0.075,-0.363802 0.0888,0.171979 0.0306,1.190625 -0.0604,1.058435 -0.4615,2.985866 -0.93601,4.497916 -0.76534,2.438819 -1.31135,3.619822 -1.31135,2.836396 z m 8.35211,-1.97833 2.29028,-2.184642 -1.43795,-0.990358 c -0.79088,-0.544696 -1.51854,-0.990357 -1.61703,-0.990357 -0.0985,0 -0.18014,0.26789 -0.18144,0.595312 -0.001,0.327422 -0.40257,1.756172 -0.89171,3.175 -0.48914,1.418828 -0.79104,2.579687 -0.67088,2.579687 0.12015,0 1.24908,-0.983089 2.50873,-2.184642 z m 30.61539,1.677734 c 1.39181,-0.529165 1.61088,-3.157436 0.41227,-4.946131 -0.64614,-0.964248 -3.43976,-3.013627 -4.10803,-3.013627 -0.21269,0 -1.21611,0.484396 -2.22982,1.076435 -1.01371,0.592039 -2.28464,1.252219 -2.82429,1.467068 -2.57801,1.026377 -2.64188,1.19167 -1.10488,2.859121 1.58101,1.715196 4.33788,2.705416 7.71325,2.77047 0.82727,0.01594 1.79095,-0.08006 2.1415,-0.213336 z m -6.05034,-2.370722 c -1.79282,-1.101877 -2.56989,-2.982869 -1.3656,-3.305606 1.19571,-0.320436 2.26367,-0.15156 3.24258,0.51275 1.32073,0.89627 1.99171,1.717493 1.91393,2.342471 -0.0858,0.689512 -0.72474,0.868011 -0.72474,0.202473 0,-1.130853 -3.33826,-3.167027 -4.04068,-2.464612 -0.7693,0.769307 1.24524,2.415155 2.95619,2.415155 0.4978,0 0.81991,0.135592 0.81991,0.345147 0,0.556063 -1.87102,0.524155 -2.80159,-0.04778 z m 11.53284,0.806604 c 0.65484,-0.243383 1.42875,-0.585817 1.71979,-0.760963 0.52104,-0.313562 0.51959,-0.325267 -0.0948,-0.762662 -0.74547,-0.530732 -1.6111,-2.330093 -1.6192,-3.36579 -0.0111,-1.415064 0.56882,-3.012414 1.56351,-4.306824 0.54964,-0.715243 1.14461,-1.267727 1.32217,-1.227741 0.17756,0.03999 0.24743,-0.04931 0.15527,-0.198437 -0.0922,-0.149127 -0.0345,-0.271139 0.12824,-0.271139 0.1627,0 0.21086,-0.137459 0.10702,-0.305464 -0.11943,-0.193256 -0.0723,-0.233474 0.12832,-0.109486 0.1744,0.107788 0.60533,0.0071 0.95761,-0.223703 0.35228,-0.230824 0.81337,-0.41968 1.02465,-0.41968 0.21127,0 0.42382,-0.115244 0.47233,-0.256098 0.0485,-0.140854 0.80257,-0.310287 1.67569,-0.376518 0.87313,-0.06623 1.81539,-0.209346 2.09393,-0.318032 0.3816,-0.148905 0.45304,-0.11124 0.28985,0.152815 -0.13805,0.223358 -0.11387,0.286946 0.0667,0.175362 0.15579,-0.09629 0.62068,-0.04766 1.03307,0.108056 0.60349,0.227875 0.68527,0.217918 0.41908,-0.05102 -0.52238,-0.52777 -0.38485,-0.888469 0.15312,-0.40161 0.64749,0.585972 1.02416,0.55161 1.3871,-0.126539 0.35001,-0.654008 1.0167,-4.189993 1.03023,-5.464159 0.008,-0.765539 -0.0493,-0.837889 -0.48139,-0.606629 -0.26985,0.144416 -1.31164,0.329325 -2.31511,0.410908 l -1.82447,0.148334 1.39431,-0.397521 c 2.20465,-0.628549 2.89024,-1.085678 3.28,-2.187014 0.50154,-1.417149 0.42096,-5.640958 -0.14772,-7.743664 -1.22608,-4.533492 -5.84397,-12.008458 -9.44071,-15.281667 -2.64336,-2.40558 -5.48768,-4.25855 -5.90158,-3.844654 -0.0905,0.09048 -0.16451,0.906038 -0.16451,1.812341 0,1.858 -0.77422,4.669805 -1.78419,6.479844 l -0.67204,1.204405 1.33701,2.499762 c 3.3276,6.221505 3.8631,12.165479 1.64662,18.277523 -1.15204,3.176806 -4.21439,7.958175 -5.87586,9.174219 -0.67182,0.491706 -0.60925,0.625538 0.67044,1.433952 1.35375,0.855209 2.82637,2.411493 3.30868,3.496667 0.54242,1.220409 0.82545,3.120313 0.54337,3.647395 -0.21314,0.398244 -0.13986,0.465869 0.48593,0.448455 0.4053,-0.01128 1.27269,-0.219637 1.92754,-0.46302 z m 6.08047,-2.292854 c 1.65581,-0.584204 3.52846,-2.070049 4.88749,-3.877964 1.68651,-2.243553 1.62647,-3.561574 -0.21407,-4.69909 -1.13768,-0.703121 -3.3276,-0.730122 -4.80077,-0.05919 -1.22366,0.5573 -2.92763,2.341346 -3.46529,3.62814 -0.7001,1.675567 -0.4074,3.779501 0.6766,4.863504 0.64165,0.641647 1.4006,0.679282 2.91604,0.144602 z m -0.63761,-2.401893 c -0.22868,-0.228676 -0.41578,-0.568256 -0.41578,-0.754623 0,-0.528853 1.20732,-2.144556 1.54735,-2.070749 0.1676,0.03638 0.30473,-0.04986 0.30473,-0.191643 0,-0.30548 1.39241,-1.065128 1.95234,-1.065128 0.70459,0 1.23634,0.776393 1.05507,1.540491 -0.21107,0.889788 -0.87569,1.675037 -1.23156,1.455098 -0.14856,-0.09181 -0.19104,-0.03901 -0.0944,0.117344 0.25944,0.419795 -1.10842,1.384984 -1.9628,1.384984 -0.40654,0 -0.92627,-0.187098 -1.15494,-0.415774 z m 1.74761,-0.472919 c 0.24398,-0.01015 0.3989,-0.09076 0.34428,-0.179141 -0.16225,-0.26253 0.93407,-1.078732 1.2154,-0.904858 0.14234,0.08797 0.23662,0.06179 0.20951,-0.05816 -0.0271,-0.119957 0.0923,-0.562038 0.26543,-0.982402 0.17309,-0.420364 0.25185,-0.827161 0.17502,-0.903993 -0.0768,-0.07683 -0.1397,-0.01132 -0.1397,0.145575 0,0.311935 -0.47334,0.302451 -0.98915,-0.01982 -0.22447,-0.140245 -0.27807,-0.07539 -0.17013,0.205878 0.0867,0.225839 0.0401,0.410617 -0.10342,0.410617 -0.45057,0 -2.46968,2.121546 -2.29228,2.408576 0.0929,0.150333 0.36524,0.188474 0.60518,0.08476 0.23995,-0.103716 0.63588,-0.196878 0.87986,-0.207026 z m -31.45602,0.33698 c 0.99799,-0.454715 1.51138,-1.591477 1.51138,-3.346525 0,-1.383565 -0.11689,-1.734956 -0.99556,-2.992652 -2.99831,-4.291698 -9.58465,-4.549471 -11.30074,-0.442283 -0.59453,1.422906 -0.49775,2.361436 0.36653,3.554539 1.17401,1.620675 2.13707,2.155122 5.1055,2.83328 3.09921,0.708035 4.40976,0.805136 5.31289,0.393641 z m -5.36778,-2.808616 c -2.0158,-0.729131 -3.0822,-1.898921 -2.71279,-2.975815 0.60168,-1.753995 4.45398,-1.233701 5.89985,0.796837 0.34165,0.479795 0.44893,0.768471 0.23841,0.641501 -0.32795,-0.197796 -0.33076,-0.166748 -0.0196,0.216809 0.28713,0.353972 0.29174,0.447664 0.022,0.447664 -0.18759,0 -0.26274,0.07834 -0.16698,0.174093 0.0957,0.09575 0.0415,0.333876 -0.1206,0.529167 -0.29152,0.351266 -2.33333,0.461632 -3.1403,0.169744 z m 2.85866,-1.305454 c 0.0626,-0.438741 -0.17639,-0.689119 -1.07105,-1.122217 -1.43173,-0.693092 -3.49385,-1.012039 -3.75991,-0.581546 -0.28484,0.46089 0.57671,1.59955 1.52925,2.021096 0.46195,0.204442 1.3757,0.343744 2.03055,0.30956 0.99022,-0.05169 1.20418,-0.157208 1.27116,-0.626893 z m -97.95952,3.163904 c 1.87818,-0.63996 3.02586,-1.382879 3.02586,-1.958701 0,-0.273842 -0.43835,-1.183148 -0.97411,-2.02068 -0.53576,-0.837531 -1.61546,-2.872033 -2.39933,-4.521114 l -1.42521,-2.99833 -1.1064,0.09162 -1.10641,0.09161 -0.13333,1.580091 c -0.15932,1.888115 -0.32267,2.182709 -1.47797,2.665421 -3.08377,1.288482 -5.70545,-0.560589 -6.05925,-4.273581 -0.17714,-1.859057 -0.18191,-1.868185 -1.41843,-2.711979 -0.68238,-0.465654 -1.43597,-0.846644 -1.67465,-0.846644 -0.25362,0 -0.67757,0.503253 -1.02021,1.211039 -0.49204,1.01642 -0.56619,1.523674 -0.4614,3.156457 0.16015,2.495464 1.05814,4.319265 3.34046,6.784379 2.82212,3.048153 5.28782,4.171283 9.18838,4.18532 1.57238,0.0057 2.84925,-0.144347 3.702,-0.434908 z M 809.60525,85.17193 c 0,-0.14552 -0.11906,-0.190998 -0.26458,-0.101061 -0.14552,0.08994 -0.26459,0.282584 -0.26459,0.428104 0,0.145521 0.11907,0.190999 0.26459,0.101062 0.14552,-0.08994 0.26458,-0.282584 0.26458,-0.428105 z m -21.59826,-0.167207 c 0.0733,-0.254662 0.13796,-1.198325 0.14375,-2.097031 0.0123,-1.911298 0.90647,-5.390699 1.46578,-5.703702 0.21317,-0.119299 0.31839,-0.397221 0.23383,-0.617605 -0.0846,-0.220383 -0.0499,-0.381729 0.0771,-0.358545 0.54884,0.100195 0.72977,-0.04935 0.36319,-0.30018 -0.35278,-0.24139 -0.35278,-0.266855 0,-0.229183 0.78492,0.08382 1.08651,-0.02525 0.90078,-0.32578 -0.11697,-0.189256 -0.0726,-0.233643 0.11667,-0.116677 0.16801,0.103833 0.30547,0.08154 0.30547,-0.04953 0,-0.285585 1.78532,-0.851245 2.68668,-0.851245 0.35251,0 1.29119,0.222586 2.08597,0.494634 1.21784,0.41686 1.58952,0.709345 2.36386,1.860164 l 0.91881,1.365529 0.48221,-0.603392 c 0.52211,-0.653324 0.88959,-1.444234 1.14633,-2.467146 0.15881,-0.632774 0.1238,-0.649789 -1.33719,-0.649789 -2.00598,0 -4.05487,-0.971911 -5.3304,-2.528524 -0.5274,-0.643622 -1.04458,-1.117276 -1.14928,-1.052565 -0.4291,0.265198 -1.14102,-2.943385 -1.11323,-5.017259 0.0278,-2.076452 0.29324,-3.1767 1.14902,-4.763109 1.28703,-2.385838 4.58719,-3.620523 6.99177,-2.615825 0.79662,0.33285 0.89503,0.328109 0.89503,-0.04311 0,-0.486876 -1.21044,-3.099575 -1.92455,-4.154083 -0.43518,-0.642619 -0.65909,-0.727604 -1.91702,-0.727604 -1.76683,0 -4.06293,-0.582687 -5.72905,-1.453881 -1.38333,-0.723323 -1.65858,-0.801079 -1.40959,-0.398202 0.35816,0.579511 -0.20578,0.210705 -1.13496,-0.742243 -2.94633,-3.021713 -3.80916,-6.308128 -2.68791,-10.237965 0.45815,-1.605775 2.72216,-3.686647 4.66383,-4.286584 1.74531,-0.539262 5.12519,-0.617195 5.71022,-0.131665 0.20717,0.171939 0.44469,0.244605 0.52781,0.16148 0.0831,-0.08313 0.46284,0.0531 0.84381,0.302718 0.38097,0.249621 0.74127,0.405259 0.80067,0.345861 0.23756,-0.237561 -1.24586,-3.367615 -2.38871,-5.040239 -1.44993,-2.122044 -4.57114,-5.358447 -7.12851,-7.391589 -2.28831,-1.819244 -2.57656,-2.161402 -2.46771,-2.929272 0.0762,-0.537656 0.22968,-0.608258 1.29589,-0.596215 3.00501,0.03394 8.77454,4.451471 12.39187,9.488017 1.35885,1.891972 3.72891,6.358643 3.72891,7.027579 0,0.135928 0.89668,0.818233 1.99261,1.516234 5.58457,3.556799 6.78211,4.432658 8.8553,6.476588 2.33353,2.30059 4.34586,4.843877 6.34701,8.02167 0.64147,1.018645 1.18017,1.879643 1.19711,1.913327 0.0169,0.03368 0.67793,-0.176698 1.46886,-0.467514 1.3228,-0.486378 2.67999,-0.553124 3.68702,-0.181328 0.21829,0.08059 0.72917,0.219492 1.1353,0.308673 0.45543,0.100003 0.66791,0.276244 0.55444,0.459854 -0.1015,0.164219 -0.0664,0.225006 0.0784,0.135568 0.76662,-0.4738 2.86338,2.282371 3.18197,4.182674 l 0.21196,1.264298 0.85858,-0.722442 c 1.01396,-0.853195 1.05032,-1.188216 0.2781,-2.562209 -0.535,-0.951896 -0.5547,-1.141283 -0.25147,-2.417275 0.18096,-0.761453 0.34862,-1.592819 0.37259,-1.847481 0.024,-0.254661 0.11629,-0.46302 0.20517,-0.46302 0.0889,0 0.16978,-0.386953 0.1798,-0.859896 0.027,-1.276496 0.52034,-6.229083 0.56506,-5.672926 0.0232,0.288849 0.15932,0.403955 0.34323,0.290294 0.39141,-0.241907 0.13696,3.065848 -0.48022,6.242528 -0.48432,2.49285 -0.33173,4.686003 0.34408,4.945335 0.76872,0.294986 1.01531,-0.345578 0.70676,-1.835928 -0.24457,-1.181303 -0.19592,-1.825907 0.32448,-4.300032 0.77394,-3.679437 1.33364,-4.924981 1.84286,-4.101042 0.35451,0.5736 0.66146,0.213249 0.66146,-0.776525 0,-1.218608 -0.42593,-2.493507 -0.76338,-2.284951 -0.12936,0.07995 -0.21888,-0.06067 -0.19893,-0.312496 0.0241,-0.304765 -0.45031,-0.708003 -1.41894,-1.205951 -0.80036,-0.411449 -1.81806,-1.097099 -2.26155,-1.523666 -0.81305,-0.782021 -1.6194,-1.057317 -1.30298,-0.444848 0.19638,0.38011 -0.69145,-0.646021 -1.488,-1.719791 -0.29686,-0.400183 -0.47211,-0.727605 -0.38944,-0.727605 0.33488,0 0.54347,0.143416 0.48104,0.33073 -0.0364,0.10914 0.0933,0.198437 0.28826,0.198437 0.19492,0 0.49002,0.297656 0.65578,0.661458 0.16576,0.363803 0.42719,0.661459 0.58095,0.661459 0.35935,0 -0.0665,-0.826571 -0.69276,-1.344677 -0.5777,-0.477926 -1.68615,-2.840193 -1.68955,-3.600646 -0.003,-0.668572 -0.42241,-1.037903 -0.62055,-0.54643 -0.0759,0.188311 -0.14306,0.116769 -0.15489,-0.165052 -0.0182,-0.432937 -0.17918,-0.47959 -1.24174,-0.359824 -1.55077,0.174794 -2.43673,0.840445 -2.90175,2.180171 -0.54039,1.55686 -0.4658,2.428587 0.45564,5.325271 1.26456,3.975345 1.15019,6.375883 -0.28588,6.000343 -0.46388,-0.121307 -2.20979,-1.656325 -2.92633,-2.572842 -0.37732,-0.482631 -0.35446,-0.499245 0.46388,-0.337172 l 0.86076,0.170472 -0.41168,-0.985745 c -0.22643,-0.542159 -1.03048,-2.341013 -1.7868,-3.997453 -1.28031,-2.804064 -1.55753,-3.197413 -4.02095,-5.705176 -1.45521,-1.481406 -3.77692,-3.596523 -5.15937,-4.700259 -5.22892,-4.174731 -6.05488,-5.464311 -4.59291,-7.171014 0.41605,-0.485696 1.4826,-1.441308 2.37011,-2.123581 4.33417,-3.331899 8.0471,-7.372521 11.09859,-12.0781379 7.22875,-11.147256 9.45194,-23.9240711 6.5609,-37.7059531 -3.50366,-16.702263 -14.23469,-32.019994 -29.59285,-42.241536 -16.80115,-11.18191 -39.76713,-15.27681 -60.67084,-10.81776 -10.9946,2.34529 -21.28796,6.74306 -29.69634,12.68753 -6.71985,4.75074 -13.16553,11.406192 -17.52725,18.097665 -6.96129,10.679556 -10.50471,23.941728 -9.4505,35.370975 0.66661,7.2271771 2.52253,13.9499521 5.45291,19.7523821 2.08214,4.122828 4.06068,6.9123179 7.11798,10.0354149 l 2.38125,2.432504 1.88591,0.330615 c 1.78045,0.312125 2.09857,0.28492 5.68854,-0.486479 5.37093,-1.154086 6.90744,-1.407602 9.69827,-1.600174 l 2.45606,-0.169473 1.39513,-3.174999 c 0.76733,-1.7462499 1.86476,-4.2966539 2.43874,-5.6675639 1.32777,-3.171299 2.94508,-5.04562399 5.02533,-5.82394699 1.51031,-0.565078 11.59236,-3.22837401 14.61616,-3.86103601 2.41619,-0.505533 3.69869,-0.165957 5.22661,1.383883 2.83732,2.87803501 3.34023,8.711553 0.92615,10.742867 -0.55123,0.463829 -2.30895,1.016999 -6.79401,2.1381279 -3.32772,0.831829 -6.16306,1.624762 -6.30076,1.762072 -0.33903,0.33807 0.40128,0.896496 2.45334,1.850609 3.78917,1.761782 7.5213,2.152759 13.84487,1.450383 3.46507,-0.384875 4.52395,-0.409572 6.48229,-0.151197 5.55756,0.733242 12.5069,4.019891 16.25559,7.687982 1.62885,1.593829 2.57474,3.239144 3.26873,5.685735 0.24766,0.873125 1.16729,2.805622 2.04361,4.294437 2.91826,4.957926 4.35303,8.961265 3.66942,10.238584 -0.28193,0.526808 -0.25581,1.307001 0.15274,4.560628 0.61207,4.87447 0.70758,16.60758 0.15272,18.76072 -0.36855,1.430186 -1.29385,2.641204 -2.31456,3.029277 -0.94874,0.36071 -3.02329,-0.359789 -3.99458,-1.387335 -0.65574,-0.693716 -0.84829,-1.165465 -0.96278,-2.35873 -0.18508,-1.929098 -0.73707,-2.962464 -1.86946,-3.499821 -2.77585,-1.317228 -5.53028,0.445802 -6.27359,4.015537 -0.31086,1.492955 -0.21677,6.614178 0.13757,7.486567 0.095,0.233906 0.65438,0.569589 1.24307,0.745964 1.4083,0.421937 3.17503,2.080479 3.94599,3.704358 l 0.61881,1.303377 0.83337,-0.731713 c 2.00635,-1.761598 5.14223,-2.578481 6.82782,-1.778617 1.04995,0.498232 1.32616,0.54053 1.09581,0.167806 -0.23064,-0.373183 0.1777,-0.329157 1.30127,0.140299 0.53296,0.222686 0.90275,0.512115 0.82174,0.643176 -0.081,0.131062 -0.0263,0.313079 0.12163,0.404483 0.14789,0.0914 0.2689,0.01934 0.2689,-0.16013 0,-0.540122 1.12716,0.685732 2.08749,2.270279 0.72148,1.19044 0.91993,1.832695 1.0265,3.322148 0.1298,1.814121 0.14506,1.846412 0.87248,1.846412 0.47797,0 0.78759,-0.164102 0.8736,-0.463021 z m -8.34926,-8.44897 c 0.19099,-0.07643 0.4192,-0.06703 0.50711,0.02089 0.0879,0.08792 -0.0684,0.150452 -0.34726,0.138964 -0.30823,-0.0127 -0.37092,-0.07539 -0.15985,-0.159854 z m 12.74961,-23.631758 c -0.23847,-0.154109 -0.27111,-0.258097 -0.0818,-0.260532 0.17332,-0.0022 0.3887,0.115011 0.47864,0.260532 0.20302,0.328487 0.11142,0.328487 -0.39687,0 z m -1.20994,-0.655777 c -0.28042,-0.21215 -0.39079,-0.38769 -0.24527,-0.39009 0.39315,-0.0065 1.06514,0.465796 0.89906,0.631872 -0.0792,0.07917 -0.37338,-0.02963 -0.65379,-0.241782 z M 830.80251,37.81677 c -0.16235,-0.465706 -0.28688,-1.096861 -0.27675,-1.402568 0.0101,-0.305707 0.196,0.02229 0.41303,0.728883 0.44039,1.433782 0.32593,1.999585 -0.13628,0.673685 z M 780.30036,6.8833001 c -3.43611,-0.900358 -5.69548,-2.168405 -7.8939,-4.430363 -4.94587,-5.088813 -6.25806,-12.7790791 -3.2616,-19.1150761 1.66152,-3.513283 5.00228,-6.763479 8.57683,-8.344315 11.10571,-4.91147 22.88511,2.987276 22.90115,15.3564941 0.009,6.783501 -3.32946,12.301442 -9.27384,15.329136 -3.36039,1.711573 -7.42248,2.154276 -11.04864,1.204124 z m -2.34889,-9.954756 c 1.34931,-1.349314 0.86376,-3.867711 -0.88539,-4.592233 -1.05745,-0.438008 -2.24521,-0.113103 -3.04013,0.831606 -0.7633,0.90713 -0.85814,2.001281 -0.27174,3.135237 0.51625,0.998316 1.07872,1.305031 2.41132,1.314882 0.82982,0.0061 1.25412,-0.157673 1.78594,-0.689492 z m 12.186,-6.461114 c 2.33234,-0.8726411 3.86294,-3.2149081 3.85155,-5.8940121 -0.0189,-4.446274 -4.45829,-7.525103 -9.02247,-6.257309 -1.27417,0.353925 -3.36458,2.227616 -3.96845,3.557024 -1.47611,3.249617 0.42397,7.510019 3.90234,8.7499121 1.4901,0.531156 3.56637,0.469461 5.23703,-0.155615 z m -84.42383,6.882886 c -2.94464,-0.582481 -6.77088,-2.663477 -8.58087,-4.666922 -3.11276,-3.4454551 -4.47335,-7.0903271 -4.47335,-11.9836501 0,-2.813207 0.489,-4.807172 1.85097,-7.547619 3.74818,-7.541781 13.13849,-10.701787 20.5423,-6.912845 5.67558,2.904515 8.90102,7.771608 9.4907,14.321177 0.53759,5.971065 -3.14544,12.6147591 -8.43967,15.2240621 -3.30831,1.630521 -7.14211,2.208279 -10.39008,1.565797 z m -2.18595,-10.0226311 c 1.40422,-1.404222 0.91059,-3.627132 -0.98097,-4.417477 -0.76876,-0.321208 -1.01651,-0.32023 -1.79993,0.0071 -1.84327,0.770169 -2.25358,2.868384 -0.83778,4.284186 1.19916,1.19916 2.50034,1.244533 3.61868,0.126186 z m 6.28803,-7.254675 c 3.09609,-1.500581 4.30607,-5.471933 2.596,-8.520529 -0.72053,-1.284529 -2.50344,-2.660466 -3.95457,-3.051891 -3.04731,-0.821977 -6.63932,0.970465 -7.74461,3.864618 -1.04689,2.74124 0.002,5.758338 2.55029,7.333629 2.10043,1.298598 4.37731,1.428609 6.55289,0.374173 z M 788.174,-31.505472 c -4.36542,-1.151398 -5.08032,-1.412042 -5.5658,-2.029223 -0.63467,-0.80685 -0.46577,-1.803343 0.44743,-2.639743 0.80354,-0.73597 1.25847,-0.74031 3.77858,-0.03605 3.36916,0.941537 4.22679,1.560132 4.24179,3.059552 0.006,0.599312 -0.19174,0.998141 -0.68872,1.389063 -0.76448,0.601343 -0.86243,0.612689 -2.21328,0.256398 z m -80.52994,-9.516815 c -0.93478,-0.735299 -0.95065,-2.031637 -0.0354,-2.891467 0.59183,-0.55599 0.96217,-0.632541 3.50573,-0.724645 2.51093,-0.09092 2.94388,-0.03997 3.6968,0.435042 1.46389,0.923565 1.42227,2.901663 -0.073,3.47017 -0.37506,0.142599 -1.96782,0.259271 -3.53945,0.259271 -2.49023,0 -2.94711,-0.07048 -3.55465,-0.548371 z m 84.4157,125.408167 c 1.78376,-0.851308 4.46142,-2.621491 5.69469,-3.764722 1.28132,-1.187777 1.29737,-2.65048 0.0454,-4.138358 -1.43636,-1.707026 -3.45478,-2.100732 -5.6055,-1.093391 -2.15048,1.007234 -3.04056,2.921057 -3.43164,7.378664 l -0.21364,2.435087 h 0.89912 c 0.49451,0 1.66972,-0.367776 2.61157,-0.81728 z m 17.28091,-0.33572 c 0,-0.336164 -0.12221,-0.186064 -0.50793,0.623834 -0.29703,0.623694 -0.29152,0.632136 0.0965,0.147867 0.22631,-0.282474 0.41147,-0.62974 0.41147,-0.771701 z m -38.38318,-4.319879 c 0.0102,-0.60899 -0.10777,-1.442428 -0.26221,-1.852084 -0.74471,-1.97528 -4.6091,-4.496697 -4.08147,-2.663057 0.35949,1.249317 1.52975,3.421026 2.70032,5.011143 1.05864,1.438058 1.2439,1.585693 1.42105,1.132446 0.11204,-0.286656 0.21208,-1.019458 0.22231,-1.628448 z m 48.47018,0.904407 c -0.26131,-0.259362 -0.2917,-0.228971 -0.14812,0.148113 0.0994,0.260937 0.24731,0.407781 0.32877,0.326319 0.0815,-0.08146 1.7e-4,-0.294956 -0.18065,-0.474432 z M 675.85838,75.835665 c 0,-0.51503 -0.78115,-1.184341 -1.05852,-0.906971 -0.0868,0.08682 -0.0781,0.475521 0.0193,0.863775 0.20358,0.811136 1.0392,0.84587 1.0392,0.0432 z m 125.26813,-2.961669 c 1.53566,-0.614448 2.45081,-2.569154 2.60839,-5.571345 0.15727,-2.996392 -0.23874,-4.282838 -1.86672,-6.06411 -2.06151,-2.255615 -3.92506,-2.528802 -5.62416,-0.824471 -1.99973,2.005886 -2.62509,6.525014 -1.30219,9.410173 0.74143,1.617022 1.72969,2.562674 3.24301,3.103203 1.27965,0.457064 1.68414,0.449714 2.94167,-0.05345 z m -3.22076,-3.479689 c -1.04104,-1.191852 -1.29573,-4.898005 -0.4623,-6.727183 0.80354,-1.76357 2.72935,-1.34618 3.64865,0.790789 0.91808,2.134125 0.61946,4.283149 -0.80601,5.800491 -0.77788,0.828016 -1.03425,0.749514 -0.85228,-0.260972 0.36574,-2.03094 0.19155,-3.12664 -0.66689,-4.194854 -0.45555,-0.566866 -0.69791,-1.030667 -0.53859,-1.030667 0.4267,0 1.51035,1.24963 1.79305,2.067684 0.2524,0.73034 0.24556,0.977946 -0.0662,2.39745 -0.29633,1.349203 0.30273,0.960262 0.7926,-0.514592 0.81027,-2.439488 -0.20467,-5.40575 -1.84964,-5.40575 -0.59934,0 -0.80384,0.148343 -0.9481,0.687747 -0.34432,1.287457 -0.26936,4.617691 0.12938,5.747834 0.43428,1.230904 0.41216,1.312699 -0.17365,0.642023 z M 679.0976,70.462399 c 0.1046,-0.317729 -0.21508,-0.429391 -2.08656,-0.728822 -1.08658,-0.173849 -2.27189,-1.147464 -3.07048,-2.522082 -0.74823,-1.287942 -1.18424,-3.513608 -0.85695,-4.37443 0.16149,-0.424772 0.16399,-0.623783 0.007,-0.526507 -0.46699,0.288618 0.37789,-1.662962 1.26147,-2.913837 0.481,-0.680944 1.22514,-1.370415 1.65365,-1.532159 0.73405,-0.277073 0.77911,-0.379361 0.77911,-1.768698 v -1.474617 l -1.18914,-0.318046 c -1.56574,-0.418771 -3.94631,-2.726865 -4.3469,-4.214567 -0.33962,-1.261223 -0.34352,-6.622114 -0.005,-6.831344 0.13269,-0.08201 0.2179,-0.431273 0.18935,-0.776147 -0.10212,-1.233933 3.36189,-5.182829 4.13,-4.708109 0.13959,0.08627 0.003,0.249596 -0.3033,0.362943 -0.6392,0.236457 -1.23985,1.189503 -0.88708,1.407528 0.12937,0.07995 0.30125,-0.107139 0.38196,-0.415764 0.10556,-0.403651 0.29408,-0.522606 0.67174,-0.423846 0.33958,0.0888 0.482,0.02524 0.40326,-0.179977 -0.067,-0.174497 0.17989,-0.478701 0.54856,-0.676007 0.36867,-0.197307 0.61384,-0.415214 0.54481,-0.484239 -0.069,-0.06902 -0.30985,0.0275 -0.53516,0.214491 -0.39203,0.325356 -0.92542,0.175767 -0.58546,-0.164191 0.26469,-0.26469 3.14922,-0.885137 4.15733,-0.894222 0.90093,-0.0081 0.96833,-0.08493 2.48473,-2.831794 2.17894,-3.946984 4.37067,-6.938124 7.23078,-9.868126 1.34948,-1.382448 2.45398,-2.612298 2.45446,-2.733001 0.002,-0.579542 -5.29597,1.324636 -8.4658,3.042577 -2.88005,1.560895 -6.46675,3.817356 -8.64866,5.441048 -4.82668,3.591832 -7.03578,7.689323 -6.21628,11.530136 0.67527,3.164834 0.67811,3.151415 -0.82226,3.887387 -1.01859,0.49965 -1.61371,1.052808 -2.44977,2.277041 -2.08569,3.054081 -2.71344,6.360408 -1.84247,9.704282 0.47711,1.831769 1.98643,4.895463 2.75234,5.586848 0.30709,0.277215 0.55835,0.664168 0.55835,0.859896 0,0.195727 0.0893,0.356681 0.19844,0.357675 0.10914,9.95e-4 0.49609,0.43953 0.8599,0.974524 0.80433,1.182819 4.08526,3.83273 5.85704,4.730558 1.46269,0.741204 3.81062,1.438468 4.57327,1.358129 0.27965,-0.02946 0.55599,-0.197998 0.61411,-0.374531 z m 114.20259,-2.258717 c -0.0825,-0.618463 -0.25223,-1.541198 -0.37727,-2.050521 -0.17623,-0.717835 -0.19956,-0.557297 -0.10379,0.714028 0.11626,1.543123 0.31571,2.460972 0.53477,2.460972 0.0529,0 0.0287,-0.506015 -0.0537,-1.124479 z m -114.66368,0.116716 c 0,-0.40875 -0.16212,-0.964895 -0.36027,-1.23588 -0.19815,-0.270984 -0.30672,-0.697469 -0.24128,-0.947744 0.0654,-0.250274 -0.0633,-1.390769 -0.28606,-2.534432 -0.22279,-1.143664 -0.48309,-2.823529 -0.57846,-3.733035 -0.0954,-0.909505 -0.26691,-1.653645 -0.38121,-1.653645 -0.46171,0 -2.10441,2.144573 -2.36697,3.090127 -0.39355,1.417267 -0.35181,3.561663 0.0899,4.616623 0.49037,1.171231 1.71652,2.37347 2.83235,2.777103 1.26269,0.456753 1.29203,0.448143 1.29203,-0.379117 z m -1.57621,-3.323655 c -0.19033,-0.576687 -0.22651,-1.308663 -0.0957,-1.935957 0.19791,-0.949071 0.21922,-0.89924 0.36074,0.843417 0.0827,1.018646 0.1258,1.889826 0.0957,1.935957 -0.0301,0.04613 -0.19242,-0.333408 -0.36074,-0.843417 z m 116.05694,-1.009858 c -0.0845,-0.211066 -0.14715,-0.148372 -0.15985,0.159853 -0.0115,0.278915 0.0511,0.435184 0.13896,0.347265 0.0879,-0.08792 0.0973,-0.316122 0.0209,-0.507118 z m 0.83646,-0.281119 c 0.13658,-0.472943 0.32835,-1.098021 0.42616,-1.389063 0.11016,-0.327798 0.0343,-0.277456 -0.19928,0.132292 -0.40641,0.712849 -0.8044,2.116666 -0.6001,2.116666 0.0687,0 0.23665,-0.386953 0.37322,-0.859895 z m 35.03164,-0.0054 c 2.56305,-0.664932 3.62762,-2.618777 2.67684,-4.912902 -0.7351,-1.773729 -2.25028,-2.764394 -4.44141,-2.903915 -2.08014,-0.132453 -3.5926,0.306563 -3.5926,1.042809 0,0.534041 0.69999,2.083009 0.94133,2.083009 0.0737,0 0.57527,-0.184378 1.11461,-0.409728 0.55391,-0.231438 1.26978,-0.338035 1.64515,-0.24497 0.88178,0.218619 1.85516,1.152306 1.85516,1.779504 0,0.74856 -1.34788,1.957158 -2.60161,2.332787 -1.03604,0.310403 -1.42452,0.894747 -0.92617,1.393101 0.27757,0.277572 1.95304,0.197192 3.3287,-0.159695 z m -1.34011,-2.303437 c 0.35792,-0.01251 0.50396,-1.056255 0.22162,-1.583818 -0.35066,-0.655218 -1.35835,-0.705013 -2.26362,-0.111856 -0.72843,0.477291 -0.75712,0.585065 -0.40335,1.515543 0.22919,0.602812 0.32823,0.635942 1.25677,0.420411 0.55439,-0.128682 1.08925,-0.236809 1.18858,-0.24028 z m -32.49111,-0.152346 c 0.0904,-0.235459 0.046,-0.341662 -0.10398,-0.248968 -0.14386,0.08891 -0.26155,0.273684 -0.26155,0.410616 0,0.380586 0.18964,0.296721 0.36553,-0.161648 z m 0.56751,-1.919535 c -0.0815,-0.08146 -0.29496,-1.67e-4 -0.47443,0.180654 -0.25937,0.261306 -0.22897,0.291697 0.14811,0.148112 0.26094,-0.09936 0.40778,-0.247304 0.32632,-0.328766 z m 1.90571,-0.740117 c -0.0879,-0.08792 -0.31612,-0.09732 -0.50711,-0.02089 -0.21107,0.08446 -0.14838,0.147156 0.15985,0.159852 0.27891,0.01149 0.43518,-0.05105 0.34726,-0.138964 z m -65.01583,-1.695417 c 6.03268,-0.450077 8.76848,-1.066963 14.2136,-3.204977 1.83494,-0.720488 4.77512,-1.73158 6.53373,-2.24687 4.30504,-1.261426 7.22905,-2.55162 10.04372,-4.431704 5.82052,-3.887865 8.38994,-7.893831 8.42285,-13.132012 0.0269,-4.277083 -1.15194,-7.550914 -3.41847,-9.49385 -1.44741,-1.240765 -7.44643,-4.388488 -10.39544,-5.454558 -1.9065,-0.689201 -2.13846,-0.712222 -5.91068,-0.586604 -2.15946,0.07191 -4.04641,0.250857 -4.19321,0.397657 -0.17949,0.179491 0.57446,0.540429 2.30197,1.102023 9.94832,3.234082 15.07087,7.306676 15.42968,12.267089 0.20841,2.881294 -2.00241,7.071437 -5.12949,9.721866 -1.98519,1.682593 -6.99775,4.167565 -13.0816,6.485183 -9.24959,3.523595 -10.06877,3.680065 -18.27648,3.490962 -5.94844,-0.13705 -7.93808,-0.469652 -13.00425,-2.173877 -11.82953,-3.979381 -13.73868,-4.717915 -16.66621,-6.447154 -6.40318,-3.78225 -7.4795,-9.63284 -2.60274,-14.147858 3.38599,-3.134832 8.62113,-5.97916 14.96322,-8.129744 1.82985,-0.620494 2.17769,-0.839137 2.56698,-1.613507 0.55551,-1.105008 0.58687,-1.55721 0.10798,-1.55721 -0.91279,0 -5.76561,1.141222 -9.08491,2.136469 -5.99361,1.797106 -10.12399,4.035335 -13.2725,7.192297 -2.72771,2.735031 -3.99775,5.317825 -3.99775,8.129956 0,3.642343 1.14257,6.425105 3.5668,8.687009 2.04161,1.904901 4.67917,3.19793 10.85314,5.320592 2.82161,0.970092 6.75706,2.601444 9.65714,4.003141 5.50044,2.658533 7.68798,3.322338 12.05053,3.656713 4.18869,0.321049 4.39768,0.321776 8.32239,0.02897 z m 105.43687,-4.888962 c 0.0739,-0.14695 0.0735,0.387662 -10e-4,1.188027 -0.1826,1.960451 0.24003,1.181504 0.64599,-1.190625 0.17432,-1.018646 0.38106,-2.194401 0.45942,-2.612788 0.0886,-0.472969 0.0422,-0.69872 -0.12269,-0.596833 -0.14584,0.09013 -0.34634,-0.0438 -0.44557,-0.297628 -0.15745,-0.402748 -0.22551,-0.376337 -0.53462,0.207458 -0.75394,1.423961 -1.2713,6.383187 -0.75081,7.197081 0.12813,0.200352 0.29566,-0.464181 0.41491,-1.645734 0.11,-1.089977 0.26051,-2.102008 0.33445,-2.248958 z m 0.18955,-0.92864 c -0.003,-0.363802 0.0904,-0.959114 0.2069,-1.322917 0.166,-0.518317 0.21077,-0.546945 0.20691,-0.132291 -0.003,0.291041 -0.0958,0.886354 -0.20691,1.322916 -0.18142,0.712977 -0.20247,0.726439 -0.2069,0.132292 z m -161.19297,0.848833 c 0.002,-0.531689 -0.21449,-1.098545 -0.55698,-1.455209 -1.03272,-1.075472 -1.5537,-2.161981 -1.54884,-3.230082 0.009,-2.000574 1.43865,-4.120671 3.0514,-4.525447 0.4492,-0.11274 0.75392,-0.603301 1.27014,-2.044772 0.37355,-1.043046 0.71334,-2.071255 0.7551,-2.284909 0.1122,-0.573972 -1.46819,-0.372896 -3.19333,0.406296 -0.77945,0.352053 -1.55336,0.56227 -1.71979,0.467149 -0.16644,-0.09512 -0.21545,-0.07662 -0.10893,0.04111 0.10653,0.117729 -0.21574,0.667234 -0.71614,1.221122 -1.67327,1.852111 -2.10084,2.997792 -2.11274,5.661122 -0.008,1.87789 0.10655,2.632929 0.54371,3.571874 0.64332,1.38173 2.01374,2.824786 3.14849,3.315372 0.93894,0.405932 1.18179,0.172137 1.18791,-1.143622 z m -4.13798,-0.463369 c -0.0862,-0.224557 -0.21342,-0.351541 -0.28278,-0.282186 -0.0693,0.06935 -0.0476,0.253083 0.0483,0.408286 0.2609,0.422132 0.41338,0.340124 0.23448,-0.1261 z m 126.58268,-0.710269 c 1.32312,-0.87562 2.35366,-2.557175 2.76292,-4.508347 0.25975,-1.238374 0.2322,-1.721419 -0.18652,-3.270836 -0.42399,-1.568943 -0.69324,-2.017343 -1.96614,-3.274402 -1.80576,-1.783279 -3.57742,-2.494422 -6.11942,-2.456327 -2.03065,0.03043 -3.47738,0.566495 -4.7052,1.74344 -1.38468,1.327298 -1.98567,2.716541 -1.97322,4.56129 0.0127,1.884805 0.64528,3.304724 2.24572,5.040998 2.05797,2.232636 3.95596,3.051291 6.84763,2.953575 1.67134,-0.05648 2.18462,-0.187425 3.09423,-0.789391 z m -7.11697,-3.496576 c -1.06383,-0.722887 -2.08202,-2.611466 -2.08202,-3.861791 0,-2.689927 3.29638,-4.049766 6.29647,-2.597448 3.00914,1.456697 3.62863,5.600381 1.0252,6.857306 -0.51488,0.24858 -0.52762,0.239263 -0.12218,-0.08938 2.55456,-2.070697 -1.26736,-6.98606 -4.76089,-6.122966 -0.83078,0.205248 -1.04085,0.40914 -1.35363,1.313795 -0.5406,1.563584 -0.21448,2.842361 1.04645,4.10329 0.57397,0.573967 1.01169,1.043576 0.97271,1.043576 -0.039,0 -0.49893,-0.290872 -1.02211,-0.646381 z m -114.92575,1.37369 c 0.1006,-0.763822 0.35198,-2.210187 0.55861,-3.214144 0.20663,-1.003957 0.31282,-1.888246 0.23598,-1.965086 -0.23982,-0.239816 -1.76878,1.366944 -2.15115,2.260611 -0.20036,0.468269 -0.36429,1.287653 -0.36429,1.820853 0,1.000665 0.93621,2.858415 1.32073,2.620768 0.11946,-0.07383 0.29951,-0.75918 0.40012,-1.523002 z m 59.3979,0.724072 c 9.7022,-1.580034 20.04697,-5.992967 24.16669,-10.309168 2.28011,-2.388856 2.99589,-5.657841 1.76651,-8.067629 -1.62006,-3.175593 -6.65381,-6.476488 -13.52218,-8.867211 -5.64625,-1.965329 -10.358,-2.782371 -16.04549,-2.782371 h -3.69884 l -1.27144,3.108854 c -1.74356,4.263279 -3.36474,8.135479 -4.8097,11.488062 l -1.2167,2.822958 0.75763,0.651681 c 0.68353,0.587948 0.72674,0.719471 0.4418,1.344837 -1.44476,3.170898 -11.62193,2.784609 -15.20943,-0.577295 -1.22213,-1.145282 -1.06705,-1.784952 2.29009,-9.446389 0.95648,-2.182813 1.74035,-4.170357 1.74193,-4.416765 0.003,-0.390042 -0.24004,-0.347841 -1.87446,0.326138 -5.87022,2.420685 -11.69416,6.678002 -12.81937,9.370995 -0.86051,2.059512 -0.0497,4.4121 2.29724,6.665829 2.35803,2.264325 4.90691,3.718339 9.75364,5.563979 4.51234,1.718304 9.89586,2.979872 14.97992,3.510375 3.06577,0.319902 9.10033,0.129662 12.27216,-0.38688 z m 102.08069,-7.747476 c 0.21746,-2.262546 -2.92785,-5.478166 -6.10309,-6.239522 -0.9476,-0.227213 -0.96456,0.314542 -0.0663,2.117109 1.29323,2.595163 4.10119,5.225977 5.41441,5.072824 0.54606,-0.06368 0.68679,-0.240838 0.75499,-0.950411 z m -166.80265,0.06464 c 0.0904,-0.235459 0.046,-0.341662 -0.10399,-0.248968 -0.14385,0.08891 -0.26155,0.273684 -0.26155,0.410617 0,0.380585 0.18965,0.29672 0.36554,-0.161649 z M 673.995,39.97769 c 0.0837,-0.135466 0.0511,-0.308822 -0.0726,-0.385237 -0.12364,-0.07641 -0.2248,0.03442 -0.2248,0.246302 0,0.446131 0.0834,0.485111 0.29738,0.138935 z m 44.45921,-3.524011 c 0.4024,-0.909506 0.94334,-2.129896 1.20208,-2.711979 0.25874,-0.582084 1.00457,-2.368021 1.65741,-3.96875 0.65284,-1.600729 1.71694,-4.160573 2.36465,-5.688542 5.62042,-13.258586 5.32064,-12.136328 3.74277,-14.01152 -0.64801,-0.7701192 -0.66941,-0.8446152 -0.16504,-0.5746862 0.31871,0.170571 0.90993,0.7242752 1.31381,1.2304522 0.40388,0.506178 0.80582,0.920326 0.89321,0.920331 0.32881,1.6e-5 1.82549,-2.7066542 1.82549,-3.3012922 0,-0.341167 -0.23331,-1.369942 -0.51848,-2.286167 -0.28516,-0.916224 -0.4753,-1.709036 -0.42253,-1.761804 0.0955,-0.09545 1.55969,2.862867 1.81793,3.672911 0.12189,0.382364 0.38154,0.365853 2.60579,-0.165698 1.35873,-0.324709 3.7801,-0.899876 5.38083,-1.278149 3.19269,-0.754473 3.83756,-1.199774 3.83498,-2.648167 -0.002,-1.300235 -0.48623,-2.72509 -1.22283,-3.60049299 -0.92591,-1.100373 -1.74515,-1.058275 -7.49238,0.385002 -5.66599,1.42287399 -8.66125,2.34931599 -9.4955,2.93697899 -0.58563,0.412537 -2.2292,3.603898 -4.4167,8.5760522 -0.54419,1.236927 -1.49467,3.380052 -2.11217,4.7625 -0.61751,1.382448 -1.54539,3.525573 -2.06197,4.7625 -0.51657,1.236927 -1.67575,3.975364 -2.57594,6.085416 -3.14894,7.381083 -3.46007,8.243161 -3.12196,8.650548 0.66948,0.806675 3.16027,1.58101 5.27886,1.641089 0.9256,0.02625 0.97936,-0.02556 1.68769,-1.626533 z m 6.0875,-27.7151032 -0.79375,-0.201975 0.79375,-0.02725 c 0.43657,-0.01499 0.97235,0.08816 1.19063,0.229228 0.35278,0.227982 0.35278,0.253452 0,0.229228 -0.21828,-0.01499 -0.75406,-0.118142 -1.19063,-0.229228 z m 4.61019,-3.084608 -0.64144,-0.703358 0.8599,0.620823 c 0.89444,0.645768 1.00881,0.785893 0.64143,0.785893 -0.12015,0 -0.5071,-0.316511 -0.85989,-0.703358 z m 4.33955,11.0569492 c 0.73317,-0.163893 0.72041,-0.181049 -0.65802,-0.88494 -1.50679,-0.769434 -1.67425,-0.73622 -1.95168,0.387078 -0.17348,0.702462 -0.14442,0.726522 0.84118,0.6963 0.56148,-0.01722 1.35731,-0.106514 1.76852,-0.198438 z"
       id="path324" /></g></svg>
