<?xml version="1.0" encoding="UTF-8" standalone="no"?>
<!-- Created with Inkscape (http://www.inkscape.org/) -->

<svg
   width="243.4843mm"
   height="241.13339mm"
   viewBox="0 0 243.48436 241.13338"
   version="1.1"
   id="svg1"
   xml:space="preserve"
   xmlns="http://www.w3.org/2000/svg"
   xmlns:svg="http://www.w3.org/2000/svg"><defs
     id="defs1" /><g
     id="layer1"
     transform="translate(-640.8475,99.759935)"><path
       style="fill:#000000"
       d="m 764.51587,141.18081 c -1.74061,-0.26405 -3.91219,-1.11395 -5.03562,-1.97083 l -0.90331,-0.68899 -1.39616,0.71467 c -2.0237,1.03592 -5.13429,1.18673 -7.42087,0.35981 -5.60031,-2.02531 -10.28765,-6.74231 -11.30559,-11.37713 l -0.31961,-1.4552 -1.38002,-0.0131 c -1.77806,-0.0169 -3.27749,-0.87825 -5.26425,-3.02419 -2.66956,-2.88345 -5.01622,-7.72362 -5.35915,-11.05367 -0.23789,-2.31005 -0.13833,-2.2567 -2.32551,-1.24616 -2.73104,1.26182 -4.70147,1.73778 -7.17949,1.73421 -2.59272,-0.004 -4.83384,-0.56686 -6.71786,-1.68798 -4.1443,-2.46617 -4.98788,-7.80524 -1.55143,-9.81913 1.2834,-0.75212 2.86535,-0.90347 3.34923,-0.32043 0.22948,0.2765 0.22531,0.66107 -0.017,1.56702 -0.38654,1.44525 -0.13156,1.88271 1.35743,2.32882 0.79473,0.23811 1.28345,0.21001 2.50032,-0.14375 1.26081,-0.36652 1.83176,-0.75681 3.43084,-2.34525 2.89337,-2.874108 4.34246,-5.778604 4.90659,-9.834551 0.20966,-1.507416 0.47337,-2.325459 0.95189,-2.952835 0.83712,-1.09752 1.09228,-2.32129 0.65453,-3.139226 -0.29688,-0.554734 -0.23846,-0.800876 0.50112,-2.111346 l 0.83719,-1.483407 -0.67669,-2.172305 c -0.37218,-1.194768 -0.72513,-2.310232 -0.78434,-2.47881 -0.0618,-0.17582 -0.55368,0.117784 -1.15375,0.688617 -0.77165,0.734053 -1.09646,1.293286 -1.2381,2.13164 -1.07536,6.365008 -11.25943,14.816455 -17.85396,14.816455 -0.58798,0 -0.78166,-0.135535 -0.84687,-0.592609 -0.17997,-1.261397 -1.85151,-0.771548 -4.31789,1.265366 -0.7276,0.600909 -1.64983,1.304041 -2.0494,1.562517 -0.39957,0.258476 -1.14338,1.156234 -1.65291,1.995014 -2.04862,3.37238 -7.15198,5.92994 -10.93791,5.48155 -1.52481,-0.18059 -3.5361,-0.94639 -3.33598,-1.27018 0.0794,-0.12843 -0.0332,-0.16538 -0.25023,-0.0821 -0.23216,0.0891 -0.53626,-0.0755 -0.73885,-0.39991 -0.18936,-0.30322 -0.43012,-0.5513 -0.53501,-0.5513 -0.10489,0 -0.65264,0.46656 -1.21721,1.03681 -0.6399,0.64632 -1.46032,1.15362 -2.17836,1.34697 -1.43699,0.38694 -3.59202,0.14008 -4.78467,-0.54809 -2.01657,-1.16358 -1.96993,-1.15671 -2.92235,-0.43026 -1.3156,1.00345 -2.26827,1.28565 -4.32211,1.28029 -2.62721,-0.007 -5.72942,-1.03516 -7.78538,-2.58066 -0.8829,-0.66369 -1.69503,-1.34779 -1.80474,-1.52023 -0.50049,-0.78666 -2.01781,-1.75983 -2.74385,-1.75983 -1.90687,0 -5.22631,-2.779198 -7.44055,-6.229593 -1.67403,-2.608615 -2.16052,-4.035138 -1.97828,-5.800887 0.12764,-1.236759 0.0238,-1.739458 -0.72767,-3.521173 -1.41368,-3.351966 -1.81517,-5.435749 -1.67989,-8.718999 0.0984,-2.388502 0.23488,-3.108354 0.83978,-4.429621 2.11154,-4.61222 5.85625,-7.010313 10.05105,-6.436638 2.81703,0.385253 4.80136,2.547115 4.7849,5.213005 -0.0112,1.809403 -0.57595,2.956221 -1.89841,3.854856 -1.86143,1.264871 -4.54726,0.645641 -5.33431,-1.229848 -0.23223,-0.553377 -0.49606,-1.007351 -0.58629,-1.008831 -0.37361,-0.0061 -0.81615,2.418076 -0.64714,3.545054 0.43062,2.871617 3.32071,6.603794 6.60653,8.531487 6.84967,4.018502 13.76869,3.032753 20.60867,-2.936108 2.43182,-2.122107 7.33037,-8.245875 7.33037,-9.16383 0,-0.415504 -0.5281,-0.271033 -1.40672,0.384835 -1.34138,1.00131 -2.65237,1.296429 -5.21481,1.173917 -2.0636,-0.09866 -2.55916,-0.228775 -4.40042,-1.155343 -1.14121,-0.574289 -2.04659,-1.188705 -2.01196,-1.365369 0.0346,-0.176664 -0.0944,-0.260806 -0.2868,-0.186984 -0.4057,0.15568 -1.69297,-1.581588 -1.98725,-2.681924 -0.10858,-0.405981 -0.42941,-0.865242 -0.71296,-1.020579 -4.04171,-2.214184 -7.88948,-5.391694 -10.54054,-8.704435 -2.42939,-3.035758 -3.95364,-5.719859 -4.97318,-8.757442 -0.70394,-2.097301 -0.78133,-2.638448 -0.70004,-4.894792 0.10498,-2.913929 0.8083,-4.801999 2.36147,-6.3394 2.72435,-2.696694 7.4289,-2.518203 9.10716,0.345528 0.82355,1.405296 0.82079,2.371737 -0.0107,3.721654 -1.1762,1.909679 -0.79665,3.662412 1.223,5.647789 1.99319,1.959367 4.12046,3.120882 7.38286,4.031148 1.96011,0.546903 2.82666,0.627767 6.74688,0.629599 4.90246,0.0023 6.92334,-0.359238 11.26749,-2.015724 2.07892,-0.792724 4.81492,-2.309368 4.85129,-2.689214 0.0114,-0.119478 -1.03933,-0.616012 -2.33504,-1.103407 -2.78005,-1.045742 -4.98655,-2.491942 -6.10117,-3.998869 -0.79493,-1.074714 -0.82435,-1.087527 -2.78778,-1.214053 -2.7677,-0.178355 -5.28534,-1.470308 -7.83403,-4.02012 -2.28589,-2.286886 -3.29922,-4.159195 -3.48175,-6.433188 -0.1267,-1.578408 -0.17474,-1.673241 -1.08753,-2.146937 -1.31618,-0.683039 -3.08059,-3.323939 -3.46821,-5.191092 -0.31532,-1.51891 -0.25852,-1.989464 0.4384,-3.631472 l 0.41121,-0.968874 -2.3494,-2.338417 c -4.17691,-4.157392 -5.46509,-8.3865893 -3.92374,-12.8819617 0.33672,-0.9820322 0.31845,-1.058878 -0.5096,-2.1436759 -1.1816,-1.54797867 -1.57049,-3.12049761 -1.42544,-5.7638381 0.14644,-2.6687896 0.77079,-4.0369818 2.66181,-5.8331127 l 1.33227,-1.2654216 -0.33334,-1.115828 c -0.18334,-0.613706 -0.5596,-1.721774 -0.83614,-2.462375 -0.49185,-1.31722 -0.53778,-1.356271 -2.10889,-1.793079 -5.76183,-1.601933 -10.11347,-6.137023 -11.76758,-12.263679 -0.54515,-2.019207 -0.53579,-6.33628 0.0183,-8.409194 0.61655,-2.306794 2.04682,-5.095358 3.3994,-6.627739 1.13124,-1.28162 1.17079,-1.382624 0.97043,-2.478332 -0.44995,-2.460551 0.87218,-4.25213 4.05851,-5.499591 1.64673,-0.644702 2.25156,-0.74017 4.6893,-0.74017 2.6455,0 2.85095,0.03983 3.75266,0.727604 0.69748,0.531991 1.26099,0.728448 2.09607,0.730744 2.87669,0.0079 5.83417,1.409767 8.42272,3.992406 1.35985,1.356735 2.05736,2.360708 3.12497,4.497917 1.84741,3.698285 2.28376,5.467665 2.27716,9.233619 -0.006,3.543535 -0.40045,5.145292 -2.04796,8.320791 -1.18773,2.289286 -4.04894,5.417229 -5.81547,6.357605 -0.88599,0.471637 -0.98243,0.628058 -0.97878,1.5875 0.005,1.402059 0.17287,1.578963 1.58345,1.672048 1.47008,0.09701 4.11867,0.912533 5.46978,1.684189 5.19037,2.964368 8.75429,8.2855804 10.51501,15.6997404 1.09891,4.6273718 1.68082,6.3058335 2.76276,7.9689366 1.99399,3.065046 4.71373,5.011878 8.09816,5.796779 1.89802,0.44018 5.13283,0.53325 6.35582,0.182865 l 0.79008,-0.226354 -1.52602,-0.976185 c -3.30432,-2.113745 -7.41503,-6.7194812 -9.25078,-10.3647917 -1.60485,-3.1867972 -2.23734,-7.2311053 -1.76554,-11.2893789 0.284,-2.4428417 0.26353,-2.7252898 -0.37476,-5.1722834 -0.37134,-1.423585 -0.87106,-3.659899 -1.11048,-4.969587 -0.58601,-3.205643 -0.81011,-11.921256 -0.3986,-15.501974 2.43772,-21.211335 13.75122,-37.873425 32.0491,-47.200688 6.47187,-3.299007 12.39213,-5.331769 18.89693,-6.488389 1.74625,-0.310501 3.57705,-0.645318 4.06845,-0.744038 0.82487,-0.16571 0.96903,-0.355379 1.87784,-2.470542 1.0977,-2.554783 2.90447,-5.248087 4.40359,-6.564333 3.73434,-3.278794 7.53422,-4.253251 13.01307,-3.337123 2.58435,0.432135 2.69708,0.430132 3.67451,-0.06528 1.50539,-0.763006 2.91437,-0.90639 5.77372,-0.587554 3.41541,0.380841 7.32986,1.678673 8.64399,2.865909 0.93935,0.848653 1.22643,0.935702 5.43287,1.647414 7.17881,1.214622 7.12878,1.212471 8.79042,0.377874 1.88722,-0.947895 4.15585,-1.110571 7.28585,-0.522447 3.52779,0.662867 6.34119,1.832756 7.71764,3.209208 1.316,1.315999 1.63846,1.418548 7.04474,2.240395 l 3.90795,0.594075 1.51485,-0.74175 c 2.6464,-1.295812 6.17833,-1.196324 10.98546,0.309439 2.32683,0.728843 3.77877,1.485988 4.55462,2.375097 0.46293,0.530501 1.12534,0.69121 5.29167,1.283823 5.70856,0.811977 7.70707,1.367425 9.8097,2.726416 3.20883,2.073968 5.5286,5.838228 6.50983,10.563426 1.34529,6.478324 -0.49603,14.4377 -4.60723,19.915418 -2.20051,2.93193 -5.58226,5.499763 -8.38176,6.364439 -3.45691,1.067733 -5.37611,0.983753 -10.42771,-0.456295 -1.28407,-0.366047 -2.36045,-0.624735 -2.39195,-0.574863 -0.0315,0.04987 -0.38352,0.533981 -0.78226,1.075797 l -0.72498,0.98512 0.73568,0.161183 c 2.39003,0.523641 4.099,1.560385 4.7732,2.89566 0.32588,0.645431 0.63679,2.835679 0.63679,4.486056 0,0.985056 0.11848,1.296812 0.61697,1.623438 0.33934,0.222342 0.79826,0.857341 1.01984,1.411109 0.57294,1.431916 1.43441,6.095902 1.64761,8.920133 0.16737,2.217138 0.13633,2.464225 -0.4009,3.190865 -0.32028,0.433197 -1.03274,0.986355 -1.58325,1.229241 -0.55052,0.242886 -1.20163,0.663379 -1.44693,0.934429 -0.42846,0.473444 -0.37687,0.510182 1.3125,0.934537 2.58539,0.649429 4.27163,1.612175 6.01062,3.431718 1.81255,1.896505 3.3631,4.844652 4.19161,7.9697226 0.73038,2.7549462 0.78409,7.68989715 0.12094,11.1124994 -0.64052,3.3058353 -2.04656,7.519567 -3.39903,10.186458 -1.13405,2.236199 -3.73511,5.898458 -5.0595,7.123724 -0.38133,0.352788 -0.69333,0.722081 -0.69333,0.820651 0,0.199846 6.29653,-1.565856 7.54062,-2.114576 3.25108,-1.433917 7.18925,-3.702141 8.99059,-5.178203 0.69057,-0.565866 1.30357,-0.880845 1.49002,-0.765612 0.20616,0.127409 0.24725,0.08328 0.11768,-0.126366 -0.1248,-0.201929 0.38531,-0.933005 1.36697,-1.959109 0.86133,-0.900332 1.99822,-2.377475 2.52642,-3.2825399 0.95273,-1.63249 1.71803,-3.6641654 1.47266,-3.909538 -0.0703,-0.070257 -0.60477,0.059641 -1.1878,0.2886626 -1.35776,0.5333433 -2.87305,0.1723554 -4.21227,-1.0034886 -2.78913,-2.44888788 -2.77874,-6.7715566 0.0229,-9.534545 2.80676,-2.7680214 7.39495,-3.298494 11.45325,-1.3241888 5.38065,2.6176055 9.43728,10.5767228 9.40448,18.4515867 -0.017,4.074425 -0.78008,7.002343 -2.92277,11.214147 -1.36361,2.68041 -1.66694,3.509105 -1.66694,4.554137 0,3.76892 -4.31094,9.682366 -8.90436,12.214384 -0.45902,0.253022 -1.35199,0.461277 -1.98438,0.46279 -0.99866,0.0024 -1.43669,0.219761 -3.33228,1.653646 -1.20036,0.907992 -2.48413,1.867714 -2.85282,2.132716 -0.36869,0.265002 -0.9493,0.919846 -1.29024,1.455209 -2.85974,4.49047 -10.711,7.477478 -15.73373,5.985889 -0.76203,-0.2263 -1.59776,-0.623704 -1.85718,-0.88312 -0.4525,-0.452498 -0.49666,-0.424543 -1.08682,0.687916 -0.33834,0.63777 -1.0798,1.527584 -1.64769,1.977365 -3.20174,2.535824 -10.32592,3.75287 -14.09487,2.407871 -0.58209,-0.207724 -1.61001,-0.468064 -2.28428,-0.578533 -1.15127,-0.18862 -1.25202,-0.156714 -1.65402,0.523827 -0.55283,0.935859 -2.55467,2.256217 -4.25181,2.804375 -0.8202,0.264915 -2.62016,0.476541 -4.66835,0.54887 -3.81058,0.134566 -5.68278,-0.213229 -8.34883,-1.550947 -1.29628,-0.650426 -1.80858,-0.778348 -2.51354,-0.627641 -1.77326,0.379089 -1.75395,0.449165 0.82751,3.003725 7.54159,7.463007 14.62598,11.279696 21.97484,11.838861 2.54189,0.193409 5.58541,-0.343612 7.03908,-1.242026 1.1646,-0.719764 1.79405,-2.140533 1.55985,-3.520826 -0.10149,-0.598201 -0.24545,-1.461035 -0.31991,-1.91741 -0.18744,-1.149035 0.29536,-1.906162 1.59049,-2.494202 2.17075,-0.985601 4.9635,-0.507762 7.25716,1.241704 2.7017,2.060688 3.94632,7.155969 2.82597,11.569079 -0.64046,2.52278 -2.54969,6.169862 -4.49562,8.58769 l -1.77021,2.1995 0.56092,0.522574 c 2.24832,2.094631 2.47075,7.792925 0.43764,11.211486 -2.5891,4.353407 -6.40077,6.822357 -10.59189,6.860727 -2.30187,0.0211 -3.56902,-0.44121 -4.9243,-1.79649 -0.68304,-0.68304 -0.68621,-0.68345 -2.20945,-0.2867 -0.83898,0.21853 -1.81627,0.6261 -2.17175,0.90572 -1.34555,1.05841 -3.20335,1.46811 -6.5695,1.44879 -2.73566,-0.0157 -3.35806,-0.10285 -4.49792,-0.62974 -1.09381,-0.5056 -1.74831,-0.60871 -3.77929,-0.59536 -1.56233,0.0103 -2.94829,0.17953 -3.80793,0.46505 -2.38353,0.79169 -5.38724,0.14573 -8.45869,-1.81906 -1.50609,-0.96343 -4.32521,-3.584269 -5.01553,-4.662763 l -0.41318,-0.645515 -1.45603,0.457978 c -1.77182,0.557305 -3.19651,0.3162 -5.63206,-0.953128 -1.98812,-1.036147 -5.73291,-4.722116 -7.11302,-7.001294 -0.976,-1.611818 -1.01714,-1.643288 -2.11967,-1.621157 -2.92853,0.05878 -6.57703,-3.577482 -9.19506,-9.164207 -1.89723,-4.048576 -2.3275,-7.857691 -1.25622,-11.121045 l 0.56895,-1.733123 -2.33848,-2.23554 c -1.28616,-1.229547 -2.38368,-2.190331 -2.43894,-2.135075 -0.30143,0.301434 -1.40553,7.472622 -1.61384,10.481985 -0.21698,3.13474 -0.028,8.543404 0.35689,10.216187 0.072,0.313114 0.63769,0.867513 1.25697,1.231996 2.84202,1.672694 5.60657,5.36955 6.96301,9.311204 0.84245,2.448078 1.21273,7.349387 0.67233,8.899577 -0.29769,0.85398 -0.276,0.89304 1.33365,2.40114 2.33767,2.1902 6.02564,4.63624 8.52625,5.65504 2.03396,0.82867 5.02665,1.51221 5.32307,1.21579 0.0747,-0.0747 0.13761,-0.50289 0.13983,-0.95158 0.005,-1.02702 0.17221,-1.2769 1.31887,-1.97214 1.23638,-0.74964 4.14047,-0.77417 5.73889,-0.0485 1.7084,0.77562 3.35098,2.46184 4.33129,4.44636 0.79417,1.60772 0.88113,2.00952 0.8731,4.0345 -0.0104,2.61802 -0.40767,3.8607 -1.96252,6.13855 -1.0152,1.48728 -1.05577,1.6208 -0.76248,2.5095 0.74128,2.2461 -0.40266,5.38384 -2.96612,8.13584 -2.11323,2.26865 -4.00492,3.34898 -6.16823,3.52263 -1.32976,0.10674 -1.75009,0.24278 -1.86457,0.60349 -0.27024,0.85145 -2.76642,2.92599 -4.49266,3.7338 -2.76591,1.29432 -6.49653,1.7832 -9.79233,1.28324 z m 6.85656,-2.63794 c 2.30398,-0.58925 4.53915,-1.70299 5.08275,-2.53263 1.03614,-1.58136 0.24183,-3.58725 -1.81476,-4.58283 -1.64949,-0.7985 -4.7454,-1.16736 -7.21967,-0.86018 -2.52098,0.31298 -5.2804,1.60814 -6.11539,2.87031 -0.86686,1.31034 -1.03361,2.66187 -0.43039,3.48837 1.41725,1.94182 6.29162,2.69264 10.49746,1.61696 z m -15.61299,-1.60665 c 1.78262,-1.56517 1.77734,-5.14749 -0.0131,-8.89469 -1.07299,-2.24565 -4.29473,-5.39582 -6.27684,-6.13743 -2.03079,-0.75981 -4.18914,-0.74837 -5.73347,0.0304 -0.96186,0.48504 -1.32511,0.88938 -1.961,2.18281 -1.50659,3.06449 -0.89027,5.72963 2.02843,8.77157 2.77175,2.8888 6.53445,4.79923 9.52459,4.83592 1.3222,0.0162 1.62762,-0.0828 2.43142,-0.78857 z m 26.92851,-3.97993 c 2.96754,-1.51392 6.26871,-6.28083 5.22254,-7.54138 -1.52258,-1.8346 -7.65191,3.76435 -7.65191,6.98979 0,1.29452 0.67341,1.44742 2.42937,0.55159 z m -21.12532,-2.00609 c 2.81298,-1.45465 5.72318,-1.86589 10.19443,-1.4406 2.77242,0.26371 4.11626,0.66014 6.13506,1.80984 0.0809,0.0461 0.36078,-0.36494 0.62195,-0.91335 0.26118,-0.54842 0.81662,-1.50399 1.23431,-2.1235 l 0.75945,-1.12638 -1.11681,0.20034 c -1.972,0.35374 -7.85644,0.1798 -10.37337,-0.30664 -2.80599,-0.54231 -6.0543,-1.75329 -9.6057,-3.58107 -4.51765,-2.32506 -7.63229,-4.5607 -12.13641,-8.71133 -4.17985,-3.8518 -7.47223,-7.79615 -11.12662,-13.32994 l -2.57832,-3.904311 -0.29979,1.258481 c -0.60155,2.52519 -1.50832,3.75913 -3.16394,4.30554 -0.82207,0.2713 -0.88007,0.36136 -0.73252,1.13733 0.20892,1.09867 0.22987,1.11412 1.02161,0.75338 1.66841,-0.76018 4.35813,0.0705 6.27657,1.93841 2.74957,2.67714 5.14272,8.03965 5.2863,11.84539 0.0553,1.46651 0.13887,1.76005 0.46434,1.63151 0.21828,-0.0862 1.14101,-0.34247 2.05052,-0.56949 1.51416,-0.37794 1.80383,-0.37569 3.43412,0.0266 4.69135,1.15771 8.88433,5.46722 10.59166,10.88602 l 0.66834,2.12122 0.80219,-0.74935 c 0.4412,-0.41215 1.15789,-0.9333 1.59263,-1.15812 z m 20.85863,-6.89913 c 3.66934,-1.2452 6.01908,-2.98979 7.08709,-5.26189 0.69178,-1.4717 0.72381,-4.7336 0.0624,-6.355 -0.92977,-2.27928 -2.96201,-3.85857 -5.02224,-3.9029 -1.22321,-0.0263 -1.63303,0.31978 -1.64004,1.38502 -0.006,0.88408 -1.32857,2.08909 -2.54393,2.31748 -1.41577,0.26605 -4.27174,-0.26602 -6.57531,-1.225 -3.34453,-1.39233 -8.56189,-4.98336 -8.16747,-5.62154 0.0916,-0.14817 0.0423,-0.19267 -0.10941,-0.0989 -0.35291,0.2181 -3.3963,-3.00031 -4.82093,-5.09818 -3.84049,-5.655363 -6.82293,-14.748591 -7.47799,-22.799775 -0.31346,-3.85271 -0.15563,-6.51691 0.75853,-12.80435 0.6111,-4.203007 3.62882,-17.815971 4.33715,-19.564893 0.1338,-0.330354 0.22667,0.879564 0.23687,3.085705 l 0.0168,3.629144 1.70416,2.416824 c 2.18459,3.09816 3.40454,4.49774 6.93352,7.954399 4.02892,3.946354 4.31087,4.196866 15.57169,13.835076 6.49728,5.561061 11.51668,9.123098 15.79693,11.210337 8.29891,4.046922 15.0739,5.152476 22.25553,3.631696 12.82288,-2.715367 21.43387,-9.514722 22.81261,-18.013159 0.91139,-5.617715 -1.28585,-9.640337 -5.26576,-9.640337 -1.2172,0 -1.64776,0.386086 -1.20701,1.082327 0.12983,0.205085 0.23788,1.011613 0.24011,1.792284 0.008,2.826821 -1.94892,5.125829 -5.38457,6.325645 -3.19126,1.114466 -8.81313,0.817411 -13.16929,-0.695855 -3.90875,-1.35784 -8.87968,-4.247864 -11.86917,-6.900562 -4.7902,-4.250533 -7.36193,-6.82781 -14.94896,-14.98125 -1.60073,-1.720231 -3.2676,-3.499206 -3.70417,-3.953278 -2.40762,-2.504192 -4.94526,-5.520377 -6.90032,-8.201601 -0.88742,-1.217019 -0.52458,-1.001517 1.74095,1.034021 2.59114,2.328093 7.32777,5.697214 9.32392,6.63202 1.11852,0.523805 2.78522,1.043232 3.91809,1.22107 2.13872,0.335737 7.98203,0.197488 11.36424,-0.268872 1.0914,-0.150491 4.06797,-0.521882 6.61458,-0.825314 3.95392,-0.471114 8.90729,-1.407197 12.43542,-2.350034 2.2718,-0.607104 5.43888,-1.380484 8.86354,-2.164421 7.88901,-1.805868 22.33988,-7.172367 26.32604,-9.776485 0.3638,-0.237668 1.54815,-1.009516 2.63189,-1.715217 3.38598,-2.204861 6.89221,-5.305425 9.10671,-8.053084 6.5633,-8.143443 7.58521,-20.50826052 2.12197,-25.6751616 -1.92111,-1.816908 -2.91405,-2.2078123 -5.65849,-2.2276669 -1.85602,-0.013427 -2.45156,0.0902 -3.40856,0.5931007 -2.16797,1.1392739 -3.04785,2.6351896 -2.88382,4.9028737 0.10266,1.41931388 0.21172,1.67162229 1.01092,2.3388276 1.06512,0.8891991 1.78831,0.9420087 2.73224,0.1995158 1.16104,-0.91327738 0.85189,-2.17083833 -0.76873,-3.1270292 -0.84328,-0.4975488 -0.90581,-0.6052997 -0.5549,-0.9562097 0.77974,-0.7797402 2.32734,-0.3121877 3.64848,1.102259 1.35573,1.45147968 1.9061,4.4438315 1.25743,6.8366415 -0.99116,3.6562083 -4.78453,8.6346231 -8.62595,11.3207141 -5.51862,3.858858 -13.0084,6.70293 -22.83419,8.670755 -8.01892,1.605962 -10.4457,1.87092 -18.52083,2.022117 -8.2407,0.154298 -13.25519,-0.124402 -17.72709,-0.985253 -6.39365,-1.230793 -9.50184,-2.807638 -13.23899,-6.716399 l -1.24147,-1.298482 -2.02184,0.05904 c -1.64997,0.04818 -2.05188,-0.01925 -2.18516,-0.366575 -0.0898,-0.234086 -0.10301,-0.485929 -0.0293,-0.559651 0.0737,-0.07372 1.30882,-0.583874 2.74466,-1.133671 3.56245,-1.364091 5.39041,-2.265664 8.03458,-3.96276 6.67722,-4.2856008 12.66449,-11.123979 16.64377,-19.0097239 3.23654,-6.4138511 4.59082,-11.6096781 4.95136,-18.9963551 0.61721,-12.645223 -3.99347,-26.229724 -12.54306,-36.955754 -2.15371,-2.70198 -6.33454,-7.036659 -8.41483,-8.724492 -0.92309,-0.748939 -1.60429,-1.481523 -1.51378,-1.627965 0.0908,-0.147006 0.0332,-0.18509 -0.12867,-0.08503 -0.16127,0.09967 -1.14784,-0.428591 -2.19238,-1.173919 -1.82696,-1.303623 -5.16245,-3.42346 -5.3867,-3.42346 -0.0596,0 -0.98021,-0.400275 -2.04586,-0.8895 -5.9536,-2.733205 -12.86947,-4.527987 -21.09091,-5.473436 -4.18089,-0.480793 -14.39146,-0.190384 -18.41747,0.523832 -6.19543,1.099067 -11.75412,2.876132 -17.5948,5.624896 -11.49692,5.410737 -22.08989,15.937888 -27.00755,26.839743 -5.52196,12.241537 -6.80087,24.683351 -3.89915,37.932795 0.43878,2.003492 0.55804,3.5336413 0.58775,7.5406248 0.0349,4.71450424 0.082,5.16006411 0.75589,7.1657652 0.72312,2.1520629 2.74471,5.4963982 4.46878,7.3927292 1.23129,1.3543178 4.75024,4.2545128 7.0207,5.7862188 1.04636,0.705894 2.15972,1.55728 2.47414,1.891969 l 0.57168,0.608525 -0.76608,0.396156 c -1.83642,0.94965 -4.12703,1.335357 -8.01865,1.350226 -4.28644,0.01638 -5.42951,-0.209792 -8.33438,-1.649057 -3.80428,-1.884898 -7.14659,-6.37177 -8.22102,-11.0362828 -1.76002,-7.6409435 -2.91824,-10.5376165 -5.42363,-13.5643572 -2.78529,-3.364888 -6.80432,-5.617933 -10.02138,-5.617933 -2.05681,0 -2.68419,0.50159 -2.85535,2.282845 -0.33054,3.4400372 1.38155,7.1989733 5.46779,12.0046538 3.68892,4.3384118 4.77233,6.718551 4.77858,10.4980422 0.013,7.889516 3.35805,15.059735 9.18617,19.691135 4.18084,3.322359 9.28521,5.402678 14.51749,5.916693 l 1.60781,0.157951 2.62552,-2.649679 c 2.44241,-2.464887 5.22374,-4.773454 6.68559,-5.549194 0.72918,-0.386941 0.0727,0.541697 -4.65306,6.581779 -9.52832,12.178412 -15.45026,16.653426 -24.9393,18.845799 -3.70661,0.856384 -10.76004,0.845444 -14.15521,-0.02195 -3.6645,-0.936211 -6.54695,-2.448208 -8.66594,-4.545749 -3.13114,-3.099461 -3.79634,-5.674294 -2.27494,-8.8058 l 0.6189,-1.273874 -0.74074,-0.637159 c -1.19553,-1.028347 -3.59485,-0.754044 -4.66309,0.533108 -0.18779,0.226274 -0.4654,0.334791 -0.61692,0.241149 -0.15752,-0.09735 -0.19662,-0.04265 -0.0913,0.127731 0.1013,0.163895 3.8e-4,0.578492 -0.22425,0.921326 -0.70237,1.071951 -0.99728,3.416341 -0.66342,5.273765 0.56858,3.163185 2.6657,7.41277 5.12222,10.379639 1.19296,1.440806 3.75587,3.937783 4.71249,4.591264 0.33432,0.228375 0.66738,0.482775 0.74014,0.565332 0.31031,0.352098 2.4323,1.619419 4.21325,2.516289 4.11003,2.069777 8.16379,3.282187 13.51383,4.041757 3.63737,0.516413 13.05273,0.567543 16.27187,0.08836 11.07705,-1.648852 19.33752,-4.616171 24.05433,-8.640776 1.10392,-0.941919 2.00713,-1.752219 2.00713,-1.800666 0,-0.554701 1.45079,-6.881383 1.94806,-8.495231 1.01254,-3.286067 4.48792,-10.982424 4.81262,-10.65772 0.0617,0.06168 -0.18616,1.41333 -0.55075,3.003678 -0.36459,1.590348 -0.90366,3.953292 -1.19795,5.250986 -1.25323,5.526308 -1.66608,9.297412 -1.66792,15.235347 -9.9e-4,3.192733 0.14119,6.617214 0.32407,7.805208 1.29433,8.408328 2.95145,13.610088 6.91163,21.695832 3.78068,7.719257 9.05118,14.981377 14.74799,20.320987 0.61511,0.57654 1.0432,1.16989 0.95131,1.31857 -0.0919,0.14868 -0.0442,0.19436 0.10609,0.10151 0.15023,-0.0928 0.79371,0.28224 1.42994,0.83353 0.63623,0.5513 1.54514,1.27282 2.01979,1.60338 0.47466,0.33057 0.78368,0.72938 0.68673,0.88626 -0.097,0.15688 -0.0627,0.21504 0.0761,0.12924 0.13882,-0.0858 1.12644,0.42703 2.19471,1.1396 3.93879,2.62729 8.3249,4.58106 12.43,5.53688 3.3688,0.78437 3.29196,0.77733 7.42965,0.68148 3.41394,-0.0791 4.08921,-0.17464 6.13143,-0.86767 z M 732.70927,11.432457 c -1.82081,-0.592918 -3.34388,-1.6238872 -4.93007,-3.3371626 -3.15842,-3.4114664 -4.9352,-8.98382789 -4.9352,-15.4778318 0,-2.5527618 0.23921,-3.4733076 1.03081,-3.9668196 0.24867,-0.155025 2.7799,-0.264584 6.11294,-0.264584 h 5.68854 l 2.40058,-0.839165 c 1.32031,-0.461541 3.19802,-1.277499 4.17268,-1.81324 1.99028,-1.093992 2.78784,-1.08831 3.51735,0.02506 1.08069,1.649339 2.12613,9.0867052 1.80118,12.8138052 -0.56853,6.5210194 -2.44195,9.9366332 -6.61066,12.0525638 -1.88199,0.955248 -2.20458,1.032677 -4.57892,1.099044 -1.63351,0.04566 -2.95621,-0.05948 -3.66923,-0.291668 z m 7.09982,-2.3165135 c 3.73511,-1.7409462 5.78908,-5.300954 5.78908,-10.03383136 0,-1.45367534 -0.0547,-1.60180994 -0.67869,-1.83906014 -1.67983,-0.6386732 -4.89042,-0.1249316 -7.67046,1.227387 -2.08122,1.01238473 -4.74619,3.4290579 -5.84047,5.2962944 -0.7639,1.3034944 -1.4817,3.7483062 -1.22644,4.1772106 1.17481,1.9740005 6.51224,2.623786 9.62698,1.1719995 z M 705.71288,-5.4747087 c -2.65244,-1.1137418 -4.5368,-3.531553 -5.24969,-6.7358693 -1.00807,-4.531065 0.9976,-9.116822 4.83782,-11.061218 1.36442,-0.690838 1.80128,-0.776994 3.91695,-0.772484 2.08174,0.0044 2.55712,0.0971 3.77948,0.736704 1.74714,0.914201 3.04722,2.273699 3.97149,4.153011 1.28512,2.613004 1.08412,6.73359 -0.47779,9.7951969 -0.64937,1.2728742 -2.63438,3.2292971 -3.09654,3.0519496 -0.20222,-0.077597 -0.30356,-0.037358 -0.2252,0.089421 0.0784,0.1267792 -0.44355,0.4826029 -1.15979,0.7907194 -1.77545,0.7637788 -4.41208,0.743918 -6.29673,-0.047431 z m 7.4435,-4.9829283 c 0.36081,-0.164398 0.79729,-0.639945 0.96994,-1.056772 0.26069,-0.629364 0.23868,-0.8727 -0.12982,-1.435107 -0.24406,-0.372481 -0.61567,-0.743212 -0.8258,-0.823845 -0.66018,-0.253338 -1.67953,0.156658 -2.14117,0.861209 -0.55861,0.852545 -0.2423,1.933176 0.70637,2.413167 0.79733,0.403425 0.63611,0.398732 1.42048,0.04135 z m -3.49715,-5.473092 c 0.92302,-0.860985 1.10086,-1.203341 1.20884,-2.327125 0.10953,-1.139893 0.0326,-1.429373 -0.57047,-2.146051 -0.82826,-0.984336 -1.92835,-1.285789 -3.18216,-0.871994 -0.96989,0.320093 -2.36088,1.708135 -2.66176,2.656118 -0.28785,0.906931 0.0886,2.258045 0.83804,3.007437 0.55712,0.557127 0.94257,0.691112 1.98819,0.691112 1.13732,0 1.43038,-0.124342 2.37932,-1.009497 z m 50.09414,7.6438407 c -2.84309,-0.7926552 -4.99007,-2.6399317 -6.41194,-5.5168827 -0.9618,-1.94608 -0.99639,-2.112965 -0.99639,-4.807905 0,-2.589349 0.0611,-2.920874 0.84269,-4.570728 2.14462,-4.527168 6.53717,-7.014005 11.10116,-6.284904 2.19431,0.350542 4.1837,1.172866 3.90975,1.616114 -0.12526,0.202684 -0.0783,0.241038 0.13431,0.109649 0.37543,-0.232027 1.93472,1.126827 1.7101,1.490274 -0.0784,0.126858 0.008,0.197935 0.19157,0.157949 0.50281,-0.109405 2.03353,2.309617 2.51966,3.981853 0.55686,1.915511 0.36737,5.163873 -0.42305,7.252254 -1.01778,2.689092 -3.47068,5.0674927 -6.25806,6.067992 -1.68452,0.6046407 -5.00856,0.8699067 -6.3198,0.5043347 z m 8.04495,-6.2110237 c 0.30023,-0.319578 0.62116,-0.95751 0.71319,-1.417627 0.14079,-0.703986 0.0346,-0.969307 -0.67016,-1.67405 -0.74756,-0.747553 -0.9568,-0.82147 -1.94877,-0.688419 -2.51549,0.337398 -3.18162,3.319451 -0.95101,4.257353 1.03068,0.43337 2.18195,0.241035 2.85675,-0.477257 z m -6.41635,-5.090762 c 3.75911,-1.783815 2.89738,-7.420287 -1.05344,-6.890371 -3.43241,0.460382 -4.96814,5.128048 -2.2354,6.794203 1.05381,0.642505 2.07462,0.672354 3.28884,0.09617 z M 737.96158,124.09852 c 1.37084,-0.70889 1.94907,-2.39683 1.94228,-5.66976 -0.006,-2.8722 -0.50479,-4.98324 -1.77503,-7.51206 -0.68617,-1.36603 -2.66018,-3.45035 -3.76369,-3.974 -1.96073,-0.93043 -4.0216,-0.29461 -5.19603,1.60308 -1.59657,2.5798 -0.19224,8.30234 3.07462,12.52881 1.35175,1.74883 2.11177,2.47418 3.16798,3.02351 1.0028,0.52154 1.54195,0.52163 2.54987,4.2e-4 z M 722.18254,109.5997 c 1.01865,-0.48092 2.5367,-1.50104 3.37344,-2.26693 1.38773,-1.27021 1.52135,-1.48974 1.52135,-2.49938 0,-0.8093 -0.24261,-1.48343 -0.90252,-2.50771 -0.49639,-0.77048 -1.04605,-1.74736 -1.22147,-2.17085 l -0.31893,-0.769985 -0.96135,1.583795 c -3.62899,5.97867 -10.21924,8.44994 -13.33062,4.99884 -0.5457,-0.60529 -0.99219,-1.33036 -0.99219,-1.61128 0,-0.28091 -0.11906,-0.43717 -0.26458,-0.34723 -0.38441,0.23758 -0.32406,2.12361 0.10047,3.13965 0.85957,2.05723 3.05152,3.31572 6.2367,3.58075 2.69438,0.22419 4.54837,-0.0857 6.7597,-1.12967 z m -54.96718,-5.62653 c 1.45847,-0.9145 0.003,-3.01988 -2.83045,-4.094216 -3.32296,-1.259958 -6.26138,-1.306306 -7.0445,-0.111113 -0.37245,0.568419 -0.37264,0.705239 -0.002,1.421989 0.79331,1.53409 3.33498,2.77518 6.76808,3.30482 0.97084,0.14977 2.4282,-0.0947 3.10886,-0.52148 z m 9.44163,0.17464 c 1.57301,-0.59806 0.17869,-2.3878 -1.86024,-2.3878 -1.60838,0 -2.81323,1.30857 -1.89285,2.0558 0.70077,0.56894 2.6714,0.74326 3.75309,0.332 z m 11.38331,-0.67626 c 1.99343,-0.51922 4.33818,-1.77059 5.43173,-2.89884 0.71918,-0.742001 0.86058,-1.092479 0.87689,-2.173447 0.037,-2.4509 -1.78262,-3.912161 -4.84242,-3.88881 -2.93611,0.02241 -5.61653,1.864648 -6.62164,4.551027 -0.88349,2.36136 -0.30762,3.99134 1.59456,4.51335 1.33006,0.36499 1.81731,0.35086 3.56088,-0.10328 z m -17.20171,-0.60662 c 0.0842,-0.26542 0.4957,-0.81075 0.91435,-1.21184 1.43156,-1.37152 4.52867,-1.25851 6.48752,0.23671 1.5355,1.17208 2.14829,1.02868 2.36515,-0.55347 0.44502,-3.246728 3.55424,-6.33805 7.42994,-7.387152 2.0865,-0.56479 3.66371,-0.406867 5.65741,0.566468 1.23147,0.601215 2.6893,2.074748 3.01281,3.045283 0.0896,0.268737 2.48916,-1.067845 3.97692,-2.215167 0.77057,-0.594244 0.79925,-0.679527 0.50875,-1.512854 -1.76803,-5.071785 4.96162,-16.633276 11.47551,-19.714842 1.3318,-0.630041 1.7805,-0.709301 3.55835,-0.628564 1.83046,0.08313 2.18354,0.191427 3.52252,1.080458 0.87435,0.580536 1.73792,1.425445 2.09373,2.048483 0.33306,0.583226 0.66511,1.056372 0.73787,1.051435 0.0728,-0.0049 0.60221,-0.42385 1.17656,-0.930918 l 1.04427,-0.921942 -0.44289,-3.234232 c -0.24359,-1.778827 -0.51923,-4.276028 -0.61254,-5.549335 -0.0933,-1.273307 -0.2515,-2.315104 -0.35154,-2.315104 -0.23133,0 -5.31495,2.985197 -8.0899,4.750545 -3.93167,2.501218 -5.53855,3.75109 -10.0522,7.818865 -5.93343,5.347302 -5.39834,4.884893 -8.86551,7.661256 -3.74801,3.001249 -5.65242,4.267281 -9.39271,6.244176 -4.88773,2.583366 -9.38712,4.264013 -14.41979,5.386193 -6.7157,1.497461 -12.11334,1.033578 -18.09315,-1.554956 -0.98393,-0.425923 -1.01906,-0.424373 -0.82809,0.03654 0.4819,1.163093 0.92958,2.872962 0.92958,3.55048 0,1.071719 0.40046,1.15681 1.50106,0.318946 0.88907,-0.676828 1.16324,-0.740529 3.11041,-0.722654 2.48941,0.02285 5.59399,0.79698 7.98153,1.990202 1.19734,0.59839 1.80361,1.10789 2.35348,1.9778 0.81002,1.28149 1.07791,1.42236 1.3106,0.68919 z m 146.72624,-1.39198 c 2.28356,-0.58103 3.49658,-2.01496 2.84701,-3.365499 -0.77731,-1.6161 -3.21234,-2.381301 -6.6896,-2.10218 -1.93122,0.15502 -3.44075,0.819134 -4.18866,1.842789 -0.45752,0.626203 -0.48615,0.847186 -0.22338,1.724247 0.34634,1.155963 1.30872,1.841653 3.02634,2.156213 1.25524,0.22989 3.81141,0.10493 5.22829,-0.25557 z m -10.13428,0.0776 c 0.20891,-0.13281 0.23281,-0.33412 0.0702,-0.59126 -0.13561,-0.21444 -0.24839,-0.86827 -0.25062,-1.452953 -0.006,-1.52908 0.95425,-2.809868 2.69012,-3.588772 1.27195,-0.570732 1.77481,-0.631685 5.24333,-0.635555 4.4442,-0.005 5.35215,0.279886 6.66507,2.090979 0.67639,0.933039 0.75995,1.232049 0.61502,2.200744 l -0.16772,1.121007 0.87559,-0.16682 c 0.48157,-0.0918 0.9061,-0.19016 0.94341,-0.21869 0.0373,-0.0285 0.11371,-1.231818 0.16981,-2.673976 0.0707,-1.817771 0.27116,-3.063657 0.6535,-4.061545 0.30333,-0.791691 0.52457,-1.463748 0.49165,-1.49346 -0.0329,-0.02971 -1.31003,0.228373 -2.838,0.573524 -3.79028,0.856182 -7.65034,1.252024 -10.18645,1.044603 -8.16156,-0.66751 -17.07327,-4.548648 -25.13542,-10.946724 -6.88624,-5.464885 -10.20828,-8.23945 -12.7,-10.607026 -2.46262,-2.339929 -2.44984,-2.358213 -1.09722,1.569564 0.22551,0.654844 0.49056,1.69664 0.589,2.315104 0.0984,0.618464 0.21554,1.124479 0.26023,1.124479 0.0447,0 0.40423,-0.122795 0.79898,-0.272879 2.75794,-1.048569 10.09903,5.226431 13.17609,11.262624 0.51659,1.0134 0.94332,1.687643 0.94828,1.498316 0.0154,-0.589919 1.85887,-1.176949 3.3085,-1.053579 2.25635,0.192026 6.80776,2.629749 9.30956,4.986177 2.56266,2.41376 3.54735,4.915804 2.78983,7.088818 -0.15093,0.43296 -0.20476,0.85686 -0.11963,0.94199 0.22532,0.22532 2.5247,0.18191 2.89689,-0.0547 z m -76.91822,-1.06815 c 1.48741,-1.487416 1.75921,-4.589563 0.63636,-7.263163 -1.32893,-3.164301 -3.00806,-6.540464 -3.25289,-6.540464 -0.27449,0 -0.89544,2.523595 -1.36715,5.556249 -0.35767,2.299488 -0.20365,6.222525 0.2811,7.159894 1.01757,1.967714 2.41261,2.377444 3.70258,1.087484 z m 103.45305,-0.20089 c 2.07795,-1.130573 4.35298,-3.517719 4.99961,-5.245992 0.70081,-1.873103 0.99062,-5.068341 0.57415,-6.330255 -0.37259,-1.128968 -1.40457,-2.02649 -2.33007,-2.02649 -0.36152,0 -1.32773,0.404108 -2.14713,0.898018 -0.8194,0.49391 -2.74628,1.501231 -4.28196,2.238492 -2.59808,1.247304 -2.83499,1.426257 -3.40855,2.574694 -0.45282,0.90669 -0.65156,1.850929 -0.7489,3.558138 -0.11448,2.007693 -0.055,2.484033 0.43712,3.500607 0.73666,1.521738 1.33061,1.799258 3.61983,1.691358 1.45429,-0.0685 2.18456,-0.25935 3.2859,-0.85857 z m -31.76765,0.22174 c 0.81834,-0.668825 0.98514,-2.19018 0.40631,-3.705833 -1.3869,-3.631547 -7.75368,-7.594197 -10.75621,-6.694616 -0.54272,0.162604 -1.16967,0.556772 -1.39322,0.875929 -0.52127,0.744222 -0.5206,2.505969 10e-4,3.755381 0.8487,2.031223 3.74422,4.505726 6.65469,5.687079 1.67309,0.67911 4.30454,0.72156 5.08699,0.0821 z m -39.25569,-3.860726 c -0.17366,-3.418615 -1.36817,-6.517376 -3.71656,-9.641424 -1.17073,-1.55742 -2.13031,-2.382527 -2.42643,-2.086408 -0.23011,0.230112 1.21157,5.102437 2.29369,7.751803 1.2594,3.083407 3.05393,6.18311 3.57961,6.18311 0.31114,0 0.36106,-0.408537 0.26969,-2.207081 z m -110.30753,1.543631 c 0.28855,-0.751947 -0.18793,-2.214013 -1.23019,-3.7748 -1.27447,-1.908545 -2.11506,-2.771018 -3.83074,-3.930505 -1.69771,-1.147339 -2.25249,-1.163096 -2.25249,-0.06397 0,1.295478 1.48477,3.603943 3.84968,5.985332 2.14963,2.164616 3.12491,2.666918 3.46374,1.783945 z m 16.11761,-2.9024 c 5.82001,-0.943967 10.24281,-2.397606 15.85959,-5.212565 5.41531,-2.713983 8.58887,-4.840235 13.36146,-8.952035 2.38126,-2.051559 6.05413,-5.887665 5.41814,-5.658948 -0.28784,0.103516 -0.6556,0.289612 -0.81724,0.413546 -0.16164,0.123934 -1.22993,0.344012 -2.37397,0.489063 -3.97706,0.504242 -6.50736,-0.419364 -8.1464,-2.973586 l -0.87579,-1.364798 -2.75393,0.07188 c -1.51467,0.03953 -2.78784,0.164247 -2.82927,0.277138 -0.1753,0.477602 -3.5476,5.448899 -4.38104,6.458334 -0.92008,1.114376 -3.53036,3.798415 -4.71542,4.848682 -1.93135,1.711658 -5.95783,3.914021 -8.68716,4.751607 -5.58539,1.714065 -13.63274,-0.43492 -17.81003,-4.756034 -1.73982,-1.799724 -3.45675,-4.65661 -3.99925,-6.654559 -0.26648,-0.981419 -0.22243,-2.902981 0.0928,-4.04989 0.73057,-2.657657 4.62934,-5.126266 6.36382,-4.029428 0.31745,0.200745 0.19827,0.413139 -0.63691,1.1351 -0.87676,0.757895 -1.00086,0.994021 -0.84624,1.610076 0.41198,1.64147 2.51523,1.480109 3.08174,-0.23643 0.78437,-2.376691 -1.73537,-4.55483 -4.56305,-3.944423 -5.8076,1.253681 -8.04912,8.986754 -4.63205,15.980191 0.9847,2.015304 4.67154,6.017436 7.22624,7.844225 2.59626,1.856501 6.09392,3.277128 9.68123,3.932174 2.61354,0.477235 4.13993,0.481755 6.98268,0.02068 z M 786.89388,93.2272 c 0.68656,-1.089033 0.5763,-3.471643 -0.24676,-5.33232 -2.07065,-4.681042 -7.06166,-9.485796 -9.371,-9.021298 -1.60942,0.323715 -1.7466,0.423888 -2.19757,1.604727 -0.64721,1.69471 -0.37965,4.097115 0.69296,6.221945 1.01487,2.010442 4.86984,5.978792 6.60374,6.797962 0.7234,0.341767 1.73724,0.567679 2.58357,0.575692 1.29004,0.01221 1.43301,-0.05034 1.93506,-0.846708 z m -77.18586,-0.552015 c 3.90541,-1.804409 8.5454,-5.961867 10.08886,-9.039665 1.27672,-2.545886 0.97143,-5.296319 -0.756,-6.811004 -0.8366,-0.733572 -2.15125,-1.258253 -3.15271,-1.258253 -2.04835,0 -5.2147,1.615335 -7.17623,3.660996 -0.56935,0.593773 -1.16466,1.005899 -1.32291,0.915835 -0.15826,-0.09006 -0.20319,-0.07004 -0.0999,0.04449 0.10333,0.114536 -0.32893,0.937296 -0.96057,1.828357 -2.16573,3.055178 -3.33269,6.081375 -3.32445,8.621011 0.0107,3.291233 2.41183,4.021272 6.70387,2.03823 z m 62.34567,-9.36986 c 0.53491,-1.851517 0.61371,-5.350904 0.16831,-7.474478 -0.56142,-2.676742 -2.69304,-6.940366 -4.35478,-8.710342 -1.12595,-1.199291 -1.41301,-1.371171 -2.1662,-1.297016 -1.32502,0.130455 -1.89796,1.102509 -2.05046,3.478865 -0.28592,4.455185 2.14567,10.289022 5.78141,13.87068 1.47339,1.451476 2.22958,1.489633 2.62172,0.132291 z M 700.52768,74.64283 c 1.60802,-0.47753 3.53405,-1.818051 3.52249,-2.451664 -0.0117,-0.643813 -0.6267,-1.387403 -1.14741,-1.387403 -0.23981,0 -1.68703,0.295594 -3.21603,0.656875 -2.50397,0.591649 -2.86499,0.753662 -3.63585,1.631619 -0.47071,0.536109 -0.85584,1.098351 -0.85584,1.249426 0,0.706957 3.33243,0.895147 5.33264,0.301147 z m -22.43774,-2.806616 c 0.45828,-0.159757 0.83323,-0.389858 0.83323,-0.511337 0,-0.284014 -0.39279,-0.400948 -3.45343,-1.028075 -1.39006,-0.284825 -3.14623,-0.761791 -3.9026,-1.059924 -1.03511,-0.408003 -1.37522,-0.456269 -1.37522,-0.195166 0,0.799577 1.97813,2.124252 3.97227,2.660076 1.77893,0.477995 2.83632,0.514203 3.92575,0.134426 z M 817.75611,55.169392 c 5.16464,-1.226615 3.84244,-5.626263 -1.97126,-6.559418 -1.79468,-0.288065 -5.35009,-0.02978 -7.19375,0.522594 -2.41971,0.724963 -3.89598,3.064191 -2.75737,4.369184 0.70198,0.804547 2.50251,1.65489 4.11559,1.943686 1.73693,0.310969 5.96459,0.161479 7.80679,-0.276046 z m -14.91013,-2.42344 c 0.0877,-0.327422 0.16117,-0.838028 0.16315,-1.134681 0.002,-0.296653 0.23575,-0.994689 0.51947,-1.551192 l 0.51586,-1.011824 -1.90492,0.15531 c -1.0477,0.08542 -3.03601,0.05968 -4.41846,-0.0572 -1.38245,-0.116882 -2.57307,-0.16331 -2.64583,-0.103175 -0.0728,0.06014 0.84614,1.051805 2.04201,2.203708 l 2.1743,2.094369 h 1.69745 c 1.53665,0 1.71255,-0.05639 1.85697,-0.595312 z m 32.71583,-0.479772 c 2.28209,-0.629508 3.94309,-1.523054 4.76386,-2.562749 0.81819,-1.036435 0.62224,-2.964393 -0.4109,-4.042756 -1.23616,-1.290273 -2.64571,-1.67091 -5.61372,-1.515933 -4.32913,0.226049 -7.25522,1.812305 -8.01012,4.342355 -0.60107,2.014473 -0.005,3.398672 1.72494,4.005004 1.40514,0.49252 5.37201,0.373754 7.54594,-0.225921 z m -11.67893,-1.637359 c -0.053,-1.621463 0.14223,-2.344493 0.99996,-3.703702 0.70686,-1.120116 0.68012,-1.134823 -1.11843,-0.615261 -0.71763,0.20731 -2.22752,0.521301 -3.35531,0.697759 -1.12779,0.176458 -2.05052,0.407384 -2.05052,0.513169 0,0.105786 0.50749,0.386151 1.12777,0.623035 1.49412,0.570612 2.93296,1.785774 3.48035,2.939309 0.62981,1.327227 0.96891,1.159079 0.91618,-0.454309 z m 26.5434,-2.334542 c 6.62987,-1.345212 11.13684,-5.633718 8.8175,-8.390095 -1.02687,-1.220372 -2.6166,-1.548401 -5.11685,-1.055825 -5.54321,1.092072 -9.78803,4.958839 -8.78385,8.001536 0.52386,1.587308 2.1298,2.043634 5.0832,1.444384 z m -5.39735,-5.800931 c 0.70158,-0.654843 1.95964,-1.605104 2.79568,-2.11169 0.83604,-0.506586 1.40515,-0.959375 1.26468,-1.006199 -0.14047,-0.04682 -2.44143,0.635547 -5.11323,1.516378 -2.67181,0.880831 -5.00438,1.601511 -5.18349,1.601511 -0.64707,0 -0.28937,0.407334 0.79938,0.910292 1.16414,0.537792 3.10146,2.32155 3.11784,2.87071 0.005,0.176022 0.24219,-0.334804 0.52654,-1.135169 0.3631,-1.022051 0.89669,-1.809609 1.7926,-2.645833 z m -148.01788,2.742046 c 1.05097,-1.050975 0.92076,-1.934636 -0.5006,-3.397101 -1.59013,-1.636132 -3.67252,-2.553579 -6.18615,-2.725468 -2.24672,-0.153637 -3.57144,0.338602 -3.84504,1.428746 -0.17474,0.69622 0.31872,1.844472 1.08193,2.517552 1.41365,1.246721 5.63659,2.819848 7.66392,2.854959 0.83857,0.01452 1.24851,-0.141262 1.78594,-0.678688 z m 4.24415,-3.510269 1.54568,-1.561973 -1.55396,-0.303955 c -3.80011,-0.743303 -8.56334,-2.520297 -11.07896,-4.133174 -2.12715,-1.363808 -5.1978,-4.126465 -6.46853,-5.819708 -0.64728,-0.862496 -1.40724,-1.830815 -1.68881,-2.151819 l -0.51194,-0.583645 -0.86815,0.81887 -0.86816,0.81887 1.54544,1.161729 c 3.09921,2.329723 5.55286,5.647363 5.55286,7.508172 0,0.79363 0.0313,0.816326 0.8599,0.624352 2.13375,-0.494336 5.30485,0.165379 8.41036,1.749693 1.31588,0.671313 3.08588,2.238808 3.30398,2.925975 0.0888,0.279723 0.18689,0.508586 0.21802,0.508586 0.0311,0 0.75215,-0.702888 1.60227,-1.561973 z m 162.99424,-1.743231 c 1.0807,-0.799217 2.04072,-1.575783 2.13338,-1.725702 0.0926,-0.14992 0.18955,-1.133124 0.21534,-2.1849 0.0505,-2.058895 0.61558,-3.449139 2.65305,-6.526837 0.52414,-0.791735 0.88984,-1.502662 0.81266,-1.579837 -0.0772,-0.07718 -0.22314,-0.02422 -0.32437,0.117683 -0.29545,0.414169 -3.77967,3.141495 -5.07884,3.975546 -0.65484,0.420402 -3.2265,1.779512 -5.71478,3.020246 l -4.52416,2.255881 h 2.16223 c 1.88778,0 2.29469,0.08766 3.20579,0.690597 0.94233,0.623599 1.68107,1.676687 2.06763,2.947423 0.0775,0.254662 0.20527,0.463021 0.284,0.463021 0.0787,0 1.02737,-0.653905 2.10807,-1.453121 z M 684.30306,39.082621 c 0.86781,-0.868583 0.77155,-2.923804 -0.22242,-4.748853 -0.8441,-1.549883 -3.09698,-3.763478 -4.5971,-4.516949 -1.40491,-0.705648 -3.61722,-1.16286 -4.67056,-0.965252 -1.73328,0.325165 -2.43063,2.45144 -1.44052,4.392227 1.13638,2.22748 4.34369,5.159499 6.74134,6.162696 1.42609,0.596694 3.42383,0.44225 4.18926,-0.323869 z m 187.07865,-3.421164 c 4.25227,-3.924485 6.45656,-7.30569 6.19302,-9.499608 -0.10905,-0.90779 -0.71925,-1.244027 -1.86692,-1.028723 -0.98702,0.185165 -3.3375,2.352402 -4.9236,4.539757 -0.9838,1.356737 -2.1548,4.329599 -2.1548,5.470488 0,1.697127 1.22495,1.927708 2.7523,0.518086 z M 672.4758,27.125936 c 0.49011,-0.30291 0.89112,-0.693222 0.89112,-0.86736 0,-0.562549 -1.76253,-3.99247 -2.27815,-4.433337 -1.39646,-1.193992 -3.01612,-0.572636 -3.01093,1.155089 0.005,1.808696 1.91813,4.696354 3.11072,4.696354 0.21786,0 0.79712,-0.247835 1.28724,-0.550746 z m 6.62876,-1.082874 c 0.80438,-0.755676 0.77758,-1.12523 -0.28007,-3.86218 -0.49084,-1.270174 -1.09572,-2.934486 -1.34418,-3.69847 -0.24846,-0.763984 -0.49223,-1.389062 -0.54171,-1.389062 -0.0495,0 -0.91976,0.421564 -1.93397,0.936808 l -1.84402,0.936809 0.3455,1.113712 c 1.43437,4.623695 2.69652,6.53767 4.31121,6.53767 0.37118,0 0.95043,-0.258879 1.28724,-0.575287 z m 143.35506,-1.561744 c 1.16417,-0.02623 2.19015,-0.08916 2.27995,-0.139846 0.0898,-0.05068 -0.41961,-1.25576 -1.13203,-2.677949 -0.71242,-1.422189 -1.61088,-3.776423 -1.99658,-5.231632 -0.6441,-2.43012 -0.70228,-3.077258 -0.71362,-7.9374993 -0.0139,-5.9548008 0.29739,-7.71438992 2.202,-12.4472616 1.13989,-2.8325602 3.11756,-6.2860291 3.47372,-6.0659091 0.13537,0.083663 0.17875,-0.02346 0.0964,-0.238046 -0.18115,-0.472066 3.40346,-4.140279 5.29033,-5.413711 1.74525,-1.177854 4.56256,-2.573738 5.94694,-2.946512 0.62851,-0.169242 1.08529,-0.365182 1.01505,-0.435421 -0.0702,-0.07024 -1.65984,0.0033 -3.53244,0.163389 -3.63667,0.310928 -3.14201,0.150134 -9.85058,3.202045 -0.92584,0.421192 -1.807,0.765803 -1.95812,0.765803 -0.15112,0 -1.49023,0.58487 -2.97579,1.299711 -2.3045,1.108906 -2.95394,1.602955 -3.16075,2.404455 -0.19167,0.742806 -0.78721,2.2774005 -0.92411,2.3812503 -0.70777,0.5369028 -3.11903,6.4994532 -3.62158,8.95545146 -0.9333,4.56104814 -1.40852,8.05613784 -1.40852,10.35913124 0,5.481064 1.93579,12.053426 3.97865,13.508214 0.64028,0.455969 3.03733,0.795212 4.34524,0.614961 0.29104,-0.04011 1.48166,-0.09439 2.64583,-0.120624 z m -6.39877,-1.589447 c -0.34718,-0.347181 -0.14129,-1.303958 0.27807,-1.29219 0.50573,0.01419 1.22591,0.686971 1.22591,1.145232 0,0.49873 -1.04964,0.601293 -1.50398,0.146958 z m -5.42045,0.426943 c -0.034,-0.505057 -0.21634,-0.97757 -0.40517,-1.050029 -0.18882,-0.07246 -0.34332,-0.375648 -0.34332,-0.673753 0,-0.298105 -0.34745,-1.581763 -0.77212,-2.852575 -1.18621,-3.549693 -1.30176,-4.243317 -1.55295,-9.3220237 l -0.18975,-3.8364581 -0.47934,1.4552083 c -0.53065,1.6109703 -3.10914,6.9606105 -3.42198,7.0996525 -0.10914,0.04851 -0.2022,0.227101 -0.2068,0.396875 -0.005,0.169774 -0.3131,0.655349 -0.68556,1.079054 -0.55313,0.629239 -0.72582,0.701948 -0.94264,0.396875 -0.2045,-0.287758 -0.22788,-0.258423 -0.10181,0.127786 0.23096,0.707539 -0.47957,1.386321 -1.96901,1.881032 -0.99738,0.331277 -1.23736,0.521247 -1.13807,0.90091 0.081,0.30976 -0.13734,0.688103 -0.61303,1.062287 -0.81405,0.640327 -0.80586,0.653878 0.96056,1.58931 2.13773,1.132062 7.91286,2.490988 11.18694,2.632359 0.68055,0.02939 0.73124,-0.03728 0.67405,-0.88651 z m 22.27026,0.204766 c 0.0728,-0.07594 -0.16536,-0.326165 -0.52916,-0.556052 -2.49396,-1.575938 -5.22901,-6.006707 -5.94653,-9.633336 -0.89242,-4.5107193 -0.28131,-10.2839738 1.62786,-15.3787794 1.41228,-3.768768 4.89801,-7.8499184 8.00803,-9.3759296 2.15237,-1.056113 4.98909,-1.159335 6.78516,-0.246898 1.9208,0.975809 3.24131,2.4126746 4.2887,4.6666126 0.86652,1.8647041 0.93843,2.2222171 1.05253,5.2328407 0.10314,2.72127286 0.0343,3.5566398 -0.43593,5.2916664 -1.24551,4.5953204 -2.45988,7.0177803 -4.62137,9.2188443 -2.48966,2.535239 -4.5419,2.830296 -6.52631,0.938307 -1.31232,-1.251201 -1.85089,-3.068309 -1.85089,-6.2447976 0,-2.7321051 0.45588,-4.5986237 1.45343,-5.9507267 1.23269,-1.67080997 2.54911,-2.01901016 3.561,-0.94190185 0.71915,0.76549525 0.56979,1.59718335 -0.24064,1.33996455 -1.50942,-0.4790709 -2.11179,1.3166134 -0.77494,2.3101027 1.2964,0.9634256 2.3095,-0.2865293 2.54789,-3.1435439 0.1142,-1.3687354 0.0383,-1.79650818 -0.48358,-2.7250516 -1.68105,-2.9910249 -4.94132,-2.8337248 -7.8491,0.3787007 -0.76399,0.84402505 -1.38906,1.40496561 -1.38906,1.24653454 0,-0.15843107 0.11906,-0.36164116 0.26458,-0.45157798 0.14552,-0.0899368 0.26458,-0.34772052 0.26458,-0.57285266 0,-0.664649 1.55003,-2.4255872 2.75841,-3.1337465 2.24304,-1.3145068 4.62419,-1.1328414 6.1791,0.4714231 2.17027,2.2391538 2.17821,7.2316419 0.0144,9.0523754 -1.13867,0.9581315 -2.17906,0.8762661 -3.31627,-0.2609496 -0.50933,-0.5093229 -0.97367,-0.9260416 -1.03188,-0.9260416 -0.17523,0 -0.0823,2.4792503 0.1112,2.9658312 0.32188,0.8094991 1.94126,1.7966685 2.94732,1.7966685 2.03757,0 4.54735,-1.9816641 5.84299,-4.6134906 1.66518,-3.38245188 1.66369,-7.7665112 -0.004,-11.1536399 -0.98634,-2.003549 -2.28403,-3.1541802 -4.18466,-3.7104412 -1.74101,-0.509549 -3.08723,-0.326739 -5.25775,0.7139751 -4.84225,2.3217448 -8.368,10.08383865 -8.34266,18.3667216 0.009,2.8701363 0.0869,3.3837263 0.81376,5.3487793 0.44222,1.195578 1.04181,2.639844 1.33241,3.20948 1.23385,2.418543 4.59858,4.80883 6.75344,4.797618 2.37593,-0.01236 5.76637,-1.673265 8.30755,-4.069681 3.02756,-2.85508 6.02314,-8.911007 7.08011,-14.3132793 0.67604,-3.45529348 0.61743,-9.1034589 -0.1231,-11.8637943 -0.99836,-3.7214354 -3.29075,-6.6606914 -6.25453,-8.0194284 -1.41298,-0.647779 -1.87836,-0.725098 -4.23333,-0.703322 -4.77433,0.04415 -9.38544,2.145033 -12.25375,5.582984 -3.54355,4.2472907 -5.7639,9.4234571 -6.54214,15.2513217 -1.03793,7.7726133 0.11776,13.1309453 3.9892,18.4957833 0.5766,0.799017 1.27211,1.557661 1.5456,1.685875 0.48259,0.226254 4.38727,-0.08627 4.66213,-0.373148 z m 46.0966,-1.866168 c 1.5706,-2.720861 2.17835,-4.400215 2.73304,-7.552062 0.40725,-2.314076 0.49552,-5.113814 0.20674,-6.5576881 -0.14913,-0.7456769 -0.20709,-0.8014121 -0.37828,-0.3638021 -0.11118,0.2842301 -0.21053,0.8810667 -0.22075,1.3263036 -0.062,2.6987936 -2.16253,8.3719756 -4.4515,12.0227696 l -1.41005,2.248958 1.13554,0.158699 c 0.62454,0.08728 1.21913,0.176581 1.3213,0.198437 0.10217,0.02186 0.58095,-0.64487 1.06396,-1.481615 z m -85.09123,-0.445367 c -0.38108,-0.499614 -0.69287,-0.969895 -0.69287,-1.04507 0,-0.07517 -0.37007,-0.685023 -0.82238,-1.35522 -0.59969,-0.888571 -0.97022,-1.19666 -1.36834,-1.137743 -1.03764,0.15356 -0.76474,0.77461 1.14553,2.60694 2.05868,1.974691 2.86249,2.405295 1.73806,0.931093 z M 673.54118,16.43918 c 1.15009,-0.576336 2.60553,-2.249364 3.00206,-3.450863 0.72109,-2.184931 -0.33816,-6.2365589 -2.14212,-8.1936299 -0.55607,-0.6032587 -1.68306,-1.4368513 -2.50443,-1.852428 -1.28384,-0.6495624 -1.81455,-0.7585599 -3.7819,-0.7767304 -2.73743,-0.025283 -3.58936,0.4273322 -4.55909,2.4221536 -0.91679,1.8859273 -0.88791,5.2006752 0.0631,7.2457537 1.10404,2.374089 3.1531,4.354086 5.18774,5.012888 1.01242,0.327812 3.73524,0.09367 4.73461,-0.407144 z M 840.5443,13.277205 c 1.28915,-0.666646 3.47886,-3.3479958 3.47886,-4.2599424 0,-0.057276 -0.61456,0.2778965 -1.3657,0.7448285 -1.62459,1.0098999 -3.20843,1.1206039 -4.92942,0.3445469 -0.61523,-0.2774316 -1.18475,-0.4382781 -1.26559,-0.357437 -0.28392,0.283923 0.43809,2.301578 1.1089,3.098785 0.7637,0.907602 1.76758,1.052538 2.97295,0.429219 z M 811.1336,8.1686981 c -0.0671,-0.257431 -0.12638,-0.1108689 -0.13177,0.3256936 -0.005,0.4365625 0.0495,0.6471878 0.12197,0.4680564 0.0725,-0.1791315 0.0769,-0.536319 0.01,-0.79375 z m -2.38937,-3.312327 c -0.0734,-0.181901 -0.13346,-0.033073 -0.13346,0.3307291 0,0.3638021 0.0601,0.5126302 0.13346,0.3307292 0.0734,-0.1819011 0.0734,-0.4795573 0,-0.6614583 z M 664.2388,0.47646363 c 1.304,-0.71909452 1.32234,-0.74691669 1.28286,-1.94576583 -0.0447,-1.3578329 -0.9872,-5.2348867 -1.51954,-6.2508898 l -0.34523,-0.6588951 -0.9518,1.2465257 c -1.24437,1.6297097 -1.60635,2.7962138 -1.43931,4.638328 0.12835,1.4154674 1.03427,3.7199376 1.45704,3.7064034 0.10618,-0.0034 0.78837,-0.33446714 1.51598,-0.73570637 z m 6.2177,-0.80897145 c 0,-0.12536792 -0.48311,-1.10684248 -1.07358,-2.18105468 -1.49993,-2.7287425 -2.6679,-6.1461359 -2.70333,-7.9097535 -0.0363,-1.807279 0.73759,-3.417814 2.02453,-4.213189 0.5563,-0.343812 0.88298,-0.739751 0.84064,-1.01885 -0.0777,-0.512298 -0.47307,-0.49852 -2.78186,0.09695 -0.79456,0.204927 -1.77683,0.372594 -2.18282,0.372594 -0.40599,0 -0.74157,0.0893 -0.74574,0.198437 -0.004,0.109141 1.0325,3.437184 2.3037,7.3956523 l 2.31128,7.19721467 0.80516,0.1026293 c 0.44283,0.0564461 0.89445,0.12168371 1.00359,0.14497243 0.10914,0.0232887 0.19843,-0.0602306 0.19843,-0.18559852 z M 664.70182,-15.625627 c -0.1819,-0.0734 -0.47956,-0.0734 -0.66146,0 -0.1819,0.0734 -0.0331,0.133452 0.33073,0.133452 0.3638,0 0.51263,-0.06005 0.33073,-0.133452 z m 1.44969,-0.249207 c -0.0879,-0.08792 -0.31612,-0.09732 -0.50711,-0.02089 -0.21107,0.08446 -0.14838,0.147157 0.15985,0.159853 0.27891,0.01149 0.43518,-0.05105 0.34726,-0.138963 z m 158.04217,-1.960885 c 2.40895,-0.830107 4.62114,-1.638393 4.91598,-1.79619 0.47635,-0.254934 1.41975,-2.474465 1.41975,-3.340235 0,-0.220711 -0.46287,-0.288604 -1.52135,-0.223145 -2.13116,0.131795 -3.56134,-0.801825 -3.89682,-2.543835 -0.0668,-0.346935 -0.15498,-0.650716 -0.19593,-0.675069 -0.0409,-0.02435 -0.40186,-0.249114 -0.80204,-0.499467 l -0.72761,-0.455187 -0.0472,1.395162 c -0.0599,1.771771 -0.0563,1.92096 0.12287,5.099328 0.10461,1.85571 0.0742,2.408796 -0.1017,1.852084 -0.13797,-0.436563 -0.31685,-2.87602 -0.39751,-5.421016 -0.0864,-2.724684 -0.25863,-4.696468 -0.41899,-4.795573 -0.1829,-0.113036 -0.17616,-0.227739 0.0205,-0.349286 0.16105,-0.09954 0.29283,-0.479633 0.29283,-0.844653 0,-0.706066 -0.18411,-0.712264 -1.88348,-0.0634 -0.83452,0.318642 -1.02109,1.40288 -1.02464,5.954704 -10e-4,1.90534 -0.18939,3.85672 -0.53147,5.519229 -0.64455,3.132593 -0.64495,3.149769 -0.0661,2.897581 0.25466,-0.110957 2.43397,-0.880919 4.84291,-1.711027 z m -157.91372,-0.113773 c 4.78622,-0.853441 8.47969,-3.682901 10.72554,-8.216531 1.06909,-2.158124 1.49609,-4.074736 1.50313,-6.746875 0.007,-2.500536 -0.81883,-6.184582 -1.83833,-8.204852 -2.08173,-4.125228 -5.98711,-7.229204 -9.55964,-7.597954 -1.19987,-0.12385 -1.3976,-0.07302 -1.66588,0.428274 -0.36965,0.690701 -0.16739,1.087033 0.55475,1.087033 0.29638,0 0.8549,0.164089 1.24115,0.364643 0.38626,0.200554 1.02657,0.516653 1.42293,0.702443 1.85268,0.86844 4.87342,4.533436 5.90917,7.169479 2.58248,6.572528 1.67129,11.804381 -2.79336,16.03881 -4.65825,4.418045 -11.83809,4.230404 -16.31726,-0.426442 -3.76532,-3.914674 -4.59442,-9.625869 -2.10786,-14.519967 0.86179,-1.696204 2.80537,-3.662644 4.56545,-4.619148 4.24024,-2.304334 10.10407,-1.464626 14.09062,2.017794 l 0.62782,0.548429 -0.54108,-1.058333 c -0.81465,-1.593412 -2.84932,-3.482493 -4.76851,-4.427311 -1.46296,-0.72021 -2.07041,-0.858959 -4.16084,-0.950388 -2.84104,-0.124257 -4.81636,0.398451 -7.42879,1.965805 -2.91107,1.746527 -4.35972,3.60624 -5.52692,7.095218 -0.5694,1.70206 -0.69943,2.574705 -0.69208,4.644687 0.0113,3.181606 0.32928,4.635099 1.56422,7.150113 1.7642,3.592861 5.46251,6.607937 9.22133,7.517749 1.98745,0.481057 3.4352,0.490102 5.97444,0.03732 z m 167.15987,-2.524406 c 1.49545,-0.502985 1.8162,-1.306218 1.83715,-4.600719 l 0.0149,-2.348177 -0.85989,0.193375 c -0.47295,0.106356 -1.12779,0.254181 -1.45521,0.328501 -0.32742,0.07432 -0.59531,0.0095 -0.59531,-0.144091 0,-0.153568 0.56554,-0.355407 1.25677,-0.448529 1.82969,-0.246499 1.95802,-0.34831 0.46302,-0.367337 -0.72761,-0.0093 -1.45753,0.07064 -1.62205,0.177549 -0.18574,0.120694 -0.34641,1.498336 -0.42384,3.633969 -0.0686,1.891771 -0.2221,3.667475 -0.34114,3.946008 -0.17093,0.399942 -0.13745,0.456328 0.15925,0.268167 0.20663,-0.131042 0.91148,-0.418464 1.56632,-0.638716 z m -165.28239,-1.546674 c 2.75698,-1.357256 5.06267,-4.041052 5.89671,-6.863701 0.7181,-2.430267 0.69798,-5.464269 -0.0284,-4.288892 -0.26878,0.43489 -0.62122,0.04144 -0.47245,-0.527425 0.1094,-0.418365 0.23517,-0.469856 0.63066,-0.258197 0.36871,0.197325 0.46717,0.178945 0.3882,-0.07247 -0.86205,-2.744528 -1.01571,-3.099798 -1.27211,-2.941333 -0.18214,0.112572 -0.22684,0.01942 -0.1219,-0.254058 0.0911,-0.237493 0.0334,-0.513545 -0.12821,-0.61345 -0.16188,-0.100048 -0.22038,-0.06268 -0.13023,0.08319 0.09,0.145659 -0.5811,-0.461023 -1.49137,-1.348182 -1.77648,-1.731356 -4.4456,-3.229083 -6.33734,-3.556074 -2.9527,-0.510378 -6.9867,0.86562 -8.89565,3.034304 -1.38718,1.57592 -2.07637,3.045081 -2.57464,5.488403 -0.72561,3.558157 0.16836,6.753659 2.69349,9.627866 2.20313,2.507706 4.69438,3.556959 8.10596,3.414036 1.63986,-0.0687 2.36319,-0.247536 3.73732,-0.924018 z m -3.21754,-0.375139 c -0.0218,-0.254661 -0.18847,-0.466641 -0.37037,-0.471066 -0.18355,-0.0045 -0.12468,-0.128062 0.13229,-0.277731 0.25466,-0.148326 0.46302,-0.578039 0.46302,-0.954918 0,-0.66006 0.0243,-0.649425 0.66146,0.289481 0.77368,1.140091 0.79016,1.215797 0.26458,1.215797 -0.21828,0 -0.39688,-0.178594 -0.39688,-0.396875 0,-0.694411 -0.48953,-0.426466 -0.60424,0.330729 -0.0606,0.400182 -0.12806,0.519245 -0.14986,0.264583 z m -0.78131,-4.945847 c -1.21585,-2.874125 -1.58203,-3.161409 -4.29636,-3.370723 -2.15618,-0.166272 -2.19054,-0.17943 -1.28618,-0.492526 3.24899,-1.124827 3.85329,-1.917996 4.12266,-5.411168 l 0.161,-2.087805 1.12025,2.300128 c 0.61613,1.265071 1.34314,2.495768 1.61558,2.734882 0.30584,0.268427 1.25217,0.508758 2.47359,0.628193 l 1.97826,0.193441 -2.02461,1.018697 c -1.11354,0.560284 -2.1205,1.170565 -2.23769,1.356182 -0.1172,0.185616 -0.33446,1.430794 -0.48282,2.767063 l -0.26972,2.429578 z m 1.43875,-4.267492 c 0.5889,-0.315168 0.58128,-0.332429 -0.64589,-1.462343 -1.32722,-1.222039 -1.6387,-1.37495 -1.6387,-0.804468 0,0.197974 -0.29346,0.792397 -0.65214,1.320939 l -0.65214,0.960986 0.73756,0.381407 c 0.40566,0.209773 0.89864,0.575497 1.09551,0.812718 0.32487,0.391442 0.39502,0.370227 0.75892,-0.229497 0.22052,-0.363445 0.66912,-0.804329 0.99688,-0.979742 z m -9.82521,2.153754 c -0.29104,-0.115155 -0.67799,-0.15358 -0.8599,-0.08539 -0.1819,0.06819 -0.33072,-0.0078 -0.33072,-0.168906 0,-0.16109 0.0893,-0.278792 0.19843,-0.261559 0.65449,0.10334 0.88254,-0.07234 0.72761,-0.560499 -0.28856,-0.909161 0.57943,-0.615961 0.90016,0.304065 0.40695,1.16739 0.39615,1.180507 -0.63558,0.772287 z m 15.88363,-2.914469 c -0.16258,-0.263069 0.009,-0.380184 0.45439,-0.309882 0.10914,0.01723 0.19661,-0.355621 0.19439,-0.828563 -0.003,-0.642148 -0.0672,-0.759957 -0.25357,-0.465233 -0.19872,0.314314 -0.3164,0.32778 -0.57803,0.06615 -0.2227,-0.222695 -0.23322,-0.328517 -0.0327,-0.328517 0.16272,0 0.4918,-0.07519 0.73129,-0.16709 0.36958,-0.141819 0.42287,0.0051 0.35237,0.971624 -0.0804,1.101698 -0.51494,1.633061 -0.86818,1.061515 z m -9.53363,-7.157716 c -0.0987,-0.159754 0.23577,-0.257215 0.84428,-0.245987 0.80478,0.01485 0.9012,0.0644 0.47864,0.245987 -0.72721,0.31249 -1.12979,0.31249 -1.32292,0 z m 0.44441,-0.868769 c -0.34081,-0.410645 0.0325,-1.128581 0.45205,-0.869305 0.34745,0.214735 0.39842,1.208908 0.062,1.208908 -0.1277,0 -0.35902,-0.152822 -0.51403,-0.339603 z m 177.35847,17.925095 c 1.08535,-0.354295 2.42168,-0.857459 2.96961,-1.118143 l 0.99625,-0.47397 -0.0885,-1.845127 c -0.0487,-1.014821 -0.31701,-3.214347 -0.5963,-4.887836 -0.54343,-3.256201 -0.94828,-3.96875 -2.25494,-3.96875 -0.78143,0 -0.82798,0.597917 -0.10298,1.322917 0.29104,0.291041 0.52555,0.677994 0.52112,0.859895 -0.004,0.181901 -0.13739,0.108085 -0.29549,-0.164035 -0.53648,-0.923402 -0.74558,0.122901 -0.57761,2.890278 0.20202,3.32826 -0.13769,4.234223 -1.91072,5.095627 -0.65507,0.318258 -1.36645,0.578651 -1.58083,0.578651 -0.21439,0 -0.39499,0.0893 -0.40132,0.198437 -0.006,0.109141 -0.11136,0.715069 -0.23337,1.346507 l -0.22185,1.148069 0.90177,-0.169174 c 0.49598,-0.09305 1.7898,-0.459052 2.87515,-0.813346 z m -9.71905,-2.386954 c 0.41206,-0.288623 0.58804,-0.681723 0.58804,-1.313608 0,-0.983495 -0.53576,-1.449514 -1.66644,-1.449514 -0.56424,0 -0.66347,-0.150171 -0.81114,-1.227554 -0.33348,-2.432986 -0.19598,-7.081793 0.22734,-7.686162 0.5563,-0.794232 2.55289,-2.34127 2.35455,-1.824401 -0.0885,0.230652 -0.26725,0.419367 -0.3972,0.419367 -0.12996,0 -0.23628,0.130049 -0.23628,0.288997 0,0.158948 -0.23813,0.591723 -0.52917,0.961723 -0.40852,0.519357 -0.52881,1.071753 -0.52763,2.422982 0.002,2.02173 0.40649,4.777657 0.75243,5.123592 0.27297,0.272974 4.73935,-0.472236 6.05906,-1.010946 l 0.85989,-0.351013 v -1.961763 c 0,-2.72397 -0.41548,-4.686405 -1.14709,-5.418017 -0.53679,-0.536783 -3.51861,-1.599422 -3.24477,-1.156342 0.0594,0.09611 -0.63832,0.166223 -1.5505,0.155807 -2.37002,-0.02706 -4.06323,0.518193 -4.40561,1.418714 -0.16535,0.434904 -0.23902,2.850576 -0.18765,6.152952 0.1,6.428168 0.23732,6.867063 2.14848,6.867063 0.61911,0 1.39027,-0.185345 1.71369,-0.411877 z m 2.13192,-6.400307 c -0.24227,-0.05341 -0.50643,-0.268922 -0.58701,-0.478919 -0.14391,-0.37503 -0.0482,-0.397834 2.08583,-0.496889 0.38238,-0.01775 0.55394,-0.24144 0.61848,-0.80641 l 0.0893,-0.781847 -0.53178,0.653229 -0.53178,0.653229 -0.27858,-0.727604 c -0.29992,-0.783306 -0.57544,-0.877564 -1.35136,-0.462305 -0.28468,0.152359 -0.55788,0.164709 -0.64175,0.02901 -0.0803,-0.129958 0.29376,-0.318792 0.83127,-0.419631 0.77223,-0.144871 1.04935,-0.08483 1.32061,0.286142 0.31973,0.437261 0.34329,0.429693 0.34329,-0.110251 0,-0.403348 0.16101,-0.579737 0.52917,-0.579737 0.44679,0 0.52854,0.175039 0.52511,1.124479 -0.002,0.618464 -0.0999,1.275483 -0.21704,1.460043 -0.25299,0.39859 -1.58094,0.794761 -2.20377,0.65746 z m 0.0436,-4.829482 c 0,-0.314106 0.45966,-0.314106 1.19062,0 0.44345,0.190556 0.38987,0.230404 -0.33073,0.245987 -0.47294,0.01023 -0.85989,-0.100466 -0.85989,-0.245987 z m 5.09322,11.466438 c -0.1819,-0.0734 -0.47955,-0.0734 -0.66145,0 -0.1819,0.0734 -0.0331,0.133452 0.33073,0.133452 0.3638,0 0.51263,-0.06005 0.33072,-0.133452 z m 1.19063,-1.938538 c 1.05621,-0.643985 1.11908,-1.148612 0.72714,-5.83656 -0.18786,-2.246919 -0.45798,-2.941858 -0.9516,-2.44823 -0.1933,0.193292 -0.32376,1.299298 -0.34175,2.897204 l -0.0291,2.584559 -0.79375,0.407876 c -0.43657,0.224332 -0.83786,0.432141 -0.89177,0.461799 -0.0539,0.02966 -0.0168,0.595205 0.0824,1.256771 0.15094,1.006544 0.27489,1.202686 0.75948,1.201859 0.31851,-5.44e-4 0.96606,-0.236919 1.439,-0.525278 z m -13.69219,-2.759385 c 0,-2.015151 -0.16701,-2.368167 -0.8142,-1.720974 -0.84217,0.84217 -0.52943,3.154542 0.42664,3.154542 0.29268,0 0.38756,-0.350978 0.38756,-1.433568 z m -2.1789,-4.304973 c 0.32957,-0.08001 0.66402,-0.250321 0.74322,-0.378467 0.0792,-0.128145 0.35788,-0.232991 0.61929,-0.232991 0.39312,0 0.50364,-0.303609 0.63929,-1.756234 0.19807,-2.121105 0.59021,-2.777932 2.08162,-3.486666 1.99953,-0.950201 9.36121,-1.96698 10.65282,-1.471343 0.50191,0.192601 1.32065,1.711765 1.5866,2.94393 0.18849,0.873234 0.50723,1.040326 1.17638,0.616679 0.28624,-0.181219 0.33404,-0.63483 0.20853,-1.978861 -0.20435,-2.188399 -0.45015,-2.643208 -1.69665,-3.139411 -2.40553,-0.957584 -3.93315,-1.065683 -12.37157,-0.875449 -4.50817,0.101632 -8.24668,0.234796 -8.3078,0.29592 -0.0611,0.06112 -0.002,0.493196 0.13236,0.960159 0.18673,0.651111 0.44486,0.901202 1.10733,1.072866 0.97525,0.252711 0.88126,0.852196 -0.10407,0.663838 -0.34234,-0.06544 -0.57308,-0.03914 -0.51276,0.05846 0.0603,0.0976 0.35791,1.657975 0.66132,3.467508 0.30341,1.809534 0.59977,3.428125 0.65859,3.59687 0.0775,0.222366 0.38483,0.235504 1.11661,0.04774 0.55532,-0.142489 1.27932,-0.324535 1.60889,-0.404546 z m -0.92937,-1.272917 c 0.003,-0.582083 0.0571,-0.789054 0.1204,-0.459936 0.0633,0.329119 0.0609,0.805369 -0.005,1.058334 -0.0662,0.252964 -0.118,-0.01631 -0.11506,-0.598398 z m 16.07286,-2.631079 c 0,-1.398942 -0.96423,-2.364515 -2.30861,-2.311837 -0.58735,0.02301 -1.34999,0.154773 -1.69475,0.292797 -0.61974,0.248106 -0.6184,0.251143 0.11815,0.267724 0.40974,0.0092 1.00506,0.150381 1.32291,0.313682 0.84967,0.436527 2.03313,1.601603 2.03313,2.001548 0,0.191056 0.11906,0.347374 0.26458,0.347374 0.14552,0 0.26459,-0.41008 0.26459,-0.911288 z m -181.73394,-8.735405 c 0.78191,-0.357973 2.49294,-0.898198 3.80228,-1.200501 2.82075,-0.651259 3.48043,-0.947772 3.66316,-1.646524 0.31742,-1.213816 -0.65411,-1.793781 -3.00485,-1.793781 -2.97158,0 -6.61206,2.038883 -6.61206,3.703144 0,0.877863 0.23509,1.588522 0.5255,1.588522 0.11237,0 0.84405,-0.292887 1.62597,-0.65086 z m 165.59435,-0.651756 c 0,-0.445592 -0.28964,-1.117674 -0.6833,-1.585508 -0.67277,-0.79954 -4.31181,-2.759071 -5.7323,-3.086695 l -0.72706,-0.167691 0.81619,1.814484 c 0.44891,0.997966 1.01421,2.259603 1.25623,2.803636 l 0.44003,0.989152 2.31511,0.003 2.3151,0.003 z m 2.91042,-0.03592 c 0,-0.472202 0.11022,-0.741245 0.26458,-0.645843 0.14552,0.08994 0.26459,0.39462 0.26459,0.677073 0,0.295486 0.1807,0.513552 0.42555,0.513552 0.32979,0 0.38538,-0.160114 0.247,-0.711466 -0.26872,-1.070629 -1.20147,-2.25566 -1.64232,-2.086492 -0.20935,0.08033 -0.32394,0.05433 -0.25464,-0.05779 0.18748,-0.303362 -3.77589,-2.905208 -5.31816,-3.491224 -2.00109,-0.760356 -4.55385,-1.301426 -4.73758,-1.004153 -0.25085,0.405877 0.16199,0.653695 2.5489,1.530043 3.93754,1.445664 5.51708,2.645871 6.26925,4.763674 0.41,1.154361 0.56231,1.321994 1.20118,1.321994 0.63969,0 0.73165,-0.101726 0.73165,-0.809365 z m -0.35278,-1.219107 c -0.097,-0.09701 -0.17639,-0.29942 -0.17639,-0.449791 0,-0.165789 0.12324,-0.150168 0.31309,0.03969 0.1722,0.1722 0.25158,0.374606 0.17639,0.449792 -0.0752,0.07518 -0.21607,0.05733 -0.31309,-0.03969 z m 6.12326,1.760992 c 1.06371,-0.138129 2.52223,-0.460055 3.24114,-0.715392 2.46666,-0.87608 1.55133,-1.18816 -3.6624,-1.248685 -3.35342,-0.03893 -4.01945,0.01572 -3.9026,0.320199 0.0775,0.201925 0.14088,0.646326 0.14088,0.987556 0,0.92901 0.94328,1.077013 4.18298,0.656322 z m 14.33785,-2.036817 c 0,-0.08511 -0.42356,-0.671645 -0.94125,-1.303412 -1.16871,-1.426261 -2.33727,-3.972701 -2.75633,-6.006377 -0.17501,-0.849362 -0.31132,-2.813894 -0.30289,-4.365625 0.0501,-9.233556 5.82281,-18.110284 11.80568,-18.153724 4.2351,-0.03075 7.26442,4.326664 7.2729,10.461425 0.01,7.25698 -4.71093,14.735667 -9.62193,15.242526 -1.59014,0.164117 -2.62439,-0.247638 -3.85407,-1.534381 -1.13824,-1.191053 -1.66154,-2.507789 -1.96414,-4.942111 -0.79925,-6.429919 3.01416,-13.741006 7.43301,-14.250576 1.12009,-0.129167 1.39356,-0.05073 2.41091,0.691487 2.32644,1.697268 3.13666,5.299952 2.0384,9.063822 -0.6743,2.310872 -1.05209,2.255932 -0.83664,-0.121665 0.15347,-1.693556 0.11683,-2.017846 -0.24359,-2.156152 -0.23332,-0.08953 -0.66482,-0.03403 -0.95887,0.123341 -0.66996,0.358551 -1.60913,0.130949 -2.80066,-0.678717 -0.61193,-0.415814 -1.02521,-0.543013 -1.22275,-0.376337 -0.16412,0.138475 -0.86395,0.61705 -1.55517,1.063499 -0.69123,0.446449 -1.25677,0.909999 -1.25677,1.030112 0,0.120112 0.62507,0.422822 1.38906,0.672689 1.48681,0.486273 3.63802,1.634424 3.63802,1.941699 0,0.569256 -0.72282,0.78492 -2.22211,0.663002 -1.9045,-0.154869 -3.94962,0.379423 -4.08499,1.067212 -0.0917,0.465697 0.47445,1.049037 1.41231,1.455285 0.29104,0.126069 1.05156,0.610863 1.69005,1.077319 0.88756,0.648423 1.07444,0.902844 0.79375,1.080603 -0.28965,0.183427 -0.26611,0.233356 0.1115,0.236552 0.26325,0.0022 0.41373,0.109067 0.33441,0.237418 -0.0793,0.128351 -0.91979,0.316422 -1.8677,0.417934 -0.94791,0.101513 -1.72347,0.275701 -1.72347,0.387085 0,0.301957 0.81084,0.956071 1.81808,1.466666 1.18796,0.60221 2.28551,0.371987 4.10509,-0.86109 2.31068,-1.565883 3.61054,-3.460666 4.82634,-7.035247 2.28466,-6.717198 0.43733,-13.821694 -3.89748,-14.988936 -2.19132,-0.590062 -4.25626,0.300552 -6.61387,2.852583 -2.84035,3.074594 -4.69053,8.018648 -4.92813,13.169043 -0.15951,3.457433 0.14287,5.174024 1.35808,7.709725 2.58735,5.398908 7.71325,5.701274 12.71296,0.749912 2.45892,-2.435145 4.40644,-6.161699 5.60004,-10.715624 0.57148,-2.180369 0.64553,-7.475717 0.1332,-9.525 -1.08555,-4.342126 -3.68143,-7.797306 -6.45968,-8.597998 -4.06731,-1.172197 -6.96962,-0.0085 -10.92939,4.382028 -1.36289,1.511168 -2.1272,2.702802 -3.29809,5.142012 -0.83825,1.74625 -1.71615,3.968214 -1.95089,4.937699 -0.62525,2.582271 -0.8938,6.187245 -0.66588,8.938688 0.36291,4.381199 2.37602,8.722573 4.27257,9.214017 1.08425,0.28096 1.80038,0.335688 1.80038,0.137589 z m -5.2284,-2.278104 c -2.0131,-3.411943 -2.6156,-9.946616 -1.41012,-15.294062 0.42471,-1.883977 1.49808,-4.699305 2.56521,-6.728253 1.34594,-2.559047 3.25237,-5.193315 3.60203,-4.977213 0.15865,0.09805 0.21588,0.06084 0.12717,-0.08269 -0.17459,-0.282499 1.83498,-2.32451 3.12224,-3.17263 1.04108,-0.68593 3.27671,-1.617615 4.16795,-1.736967 1.17551,-0.157422 1.15436,-0.467444 -0.0319,-0.467444 -0.61132,0 -2.685,-0.227858 -4.60816,-0.50635 -8.05524,-1.166475 -7.67897,-1.140417 -9.04531,-0.62644 -2.75206,1.035254 -5.7774,4.172476 -7.65394,7.937014 -0.84459,1.694323 -0.84512,1.745887 -0.0266,2.56443 0.72006,0.720059 0.77127,0.896202 0.42124,1.448904 -0.1828,0.288643 -0.40562,0.306035 -1.0487,0.08186 l -0.81658,-0.284661 -0.40912,1.373352 c -1.12996,3.793116 -1.20676,10.299374 -0.16272,13.785174 0.63056,2.105258 2.00114,4.531414 2.89561,5.1257 0.33833,0.224787 2.18132,0.813319 4.09552,1.30785 1.91421,0.494531 3.53247,0.95124 3.59614,1.014908 0.0637,0.06367 0.3458,0.115761 0.62697,0.115761 0.50381,0 0.50371,-0.01269 -0.007,-0.878235 z m -13.13614,-1.315741 c -1.07131,-1.40456 -2.02893,-3.759866 -2.4197,-5.951318 -0.40096,-2.248639 -0.48629,-8.792847 -0.13813,-10.594271 0.19865,-1.027879 0.1637,-1.168502 -0.34225,-1.377144 -0.47259,-0.19488 -0.42236,-0.225029 0.3113,-0.186873 l 0.87481,0.0455 -0.21335,1.728523 c -0.26207,2.123286 -0.15913,6.699949 0.20188,8.975466 0.48061,3.029401 2.43884,7.252328 3.73927,8.063762 0.8114,0.506293 0.80638,-0.03806 -0.0113,-1.226535 -1.83954,-2.673678 -2.9571,-7.648116 -2.7778,-12.364379 0.40452,-10.640444 5.62547,-19.485708 12.54707,-21.257074 l 1.33705,-0.342175 -1.01017,-0.441865 c -0.55559,-0.243026 -2.12476,-0.756056 -3.48705,-1.140067 -5.03781,-1.420098 -7.86166,-0.439356 -11.7459,4.079424 -5.85308,6.809244 -7.72787,18.77802 -4.17328,26.642381 0.74699,1.652699 2.92777,4.59444 3.84398,5.185323 0.41937,0.27046 2.70821,0.858712 3.91607,1.006464 0.11654,0.01426 -0.0871,-0.366055 -0.45249,-0.845138 z m -3.3809,-5.659681 c 0.191,-0.07643 0.4192,-0.06703 0.50712,0.02089 0.0879,0.08792 -0.0684,0.150453 -0.34727,0.138964 -0.30822,-0.01269 -0.37092,-0.07539 -0.15985,-0.159852 z m -1.14102,-1.671343 c -0.34891,-0.149934 -0.39397,-0.232345 -0.13229,-0.241935 0.21828,-0.008 0.57547,0.100871 0.79375,0.241935 0.48365,0.312559 0.0659,0.312559 -0.66146,0 z m -1.71979,-0.529166 c -0.21828,-0.141065 -0.27781,-0.256481 -0.13229,-0.256481 0.14552,0 0.44318,0.115416 0.66146,0.256481 0.21828,0.141064 0.27781,0.25648 0.13229,0.25648 -0.14552,0 -0.44318,-0.115416 -0.66146,-0.25648 z m -1.51182,-8.598958 c 0.002,-0.727604 0.0534,-0.993858 0.11418,-0.591675 0.0608,0.402183 0.0592,0.997496 -0.004,1.322917 -0.0628,0.325421 -0.11256,-0.0036 -0.11057,-0.731242 z m 0.2196,-1.918229 c -0.0236,-0.458269 0.10635,-0.588247 0.56462,-0.564621 0.42179,0.02175 0.4651,0.06505 0.14856,0.148559 -0.24572,0.06483 -0.4998,0.318907 -0.56462,0.564621 -0.0835,0.316537 -0.12682,0.273236 -0.14856,-0.148559 z m 3.07816,0.02321 c 0.1819,-0.0734 0.47956,-0.0734 0.66146,0 0.1819,0.0734 0.0331,0.133452 -0.33073,0.133452 -0.3638,0 -0.51263,-0.06005 -0.33073,-0.133452 z m -1.0418,-0.270096 c 0.191,-0.07643 0.4192,-0.06703 0.50712,0.02089 0.0879,0.08792 -0.0684,0.150453 -0.34726,0.138965 -0.30823,-0.0127 -0.37092,-0.07539 -0.15986,-0.159853 z m 3.5175,-0.679155 c 0.0548,-1.284589 0.76725,-3.403554 1.07942,-3.210621 0.14854,0.09181 0.066,-0.144554 -0.18344,-0.525244 -0.2572,-0.392536 -0.87039,-0.806829 -1.41651,-0.957051 -2.96906,-0.8167 -2.91922,-0.797414 -1.62444,-0.628618 1.39384,0.18171 2.76351,0.705064 3.33137,1.272922 0.36016,0.360161 0.35412,0.555632 -0.0576,1.86171 -0.253,0.802614 -0.5367,1.459298 -0.63044,1.459298 -0.0937,0 -0.11802,0.357187 -0.0539,0.79375 0.0708,0.482168 -8.1e-4,0.79375 -0.18232,0.79375 -0.16827,0 -0.28278,-0.375676 -0.26211,-0.859896 z m -4.61419,-2.973942 c 0.0975,-0.435122 0.33574,-0.949642 0.52947,-1.143378 0.49737,-0.497372 0.41866,-0.07584 -0.18831,1.008466 -0.51421,0.918602 -0.51695,0.919686 -0.34116,0.134912 z m 6.21303,-1.986995 c 0.15219,-0.436563 0.38412,-0.79375 0.51541,-0.79375 0.30892,0 0.30127,0.102358 -0.0684,0.913592 -0.42859,0.94066 -0.78357,0.8455 -0.44705,-0.119842 z m 0.94803,-2.050521 c 1.29466,-3.38071 6.58213,-8.194679 9.06649,-8.254569 0.21828,-0.0053 -0.35434,0.376465 -1.27248,0.848282 -2.79554,1.436568 -4.34584,2.755111 -5.81115,4.942441 -0.74815,1.116788 -1.43766,2.232201 -1.53225,2.478696 -0.0946,0.246494 -0.27457,0.448171 -0.39995,0.448171 -0.12539,0 -0.14818,-0.208359 -0.0507,-0.463021 z m -4.54254,-1.731202 c 0.0994,-0.260938 0.24731,-0.407782 0.32877,-0.32632 0.0815,0.08146 1.7e-4,0.294956 -0.18066,0.474432 -0.2613,0.259362 -0.29169,0.228971 -0.14811,-0.148112 z m 1.17362,-1.377652 c 0.34177,-0.363802 0.68094,-0.661458 0.7537,-0.661458 0.0728,0 -0.14735,0.297656 -0.48912,0.661458 -0.34177,0.363802 -0.68094,0.661458 -0.7537,0.661458 -0.0728,0 0.14734,-0.297656 0.48912,-0.661458 z m -7.15579,23.386831 c -1.01201,-3.477597 -1.20654,-8.862578 -0.48163,-13.332665 0.81486,-5.024862 3.57494,-11.090134 6.63021,-14.569893 0.44718,-0.509302 0.75841,-0.980639 0.69163,-1.047415 -0.0668,-0.06678 -1.18395,-0.305608 -2.4826,-0.530737 -1.29866,-0.22513 -3.69136,-0.642745 -5.31712,-0.928036 -1.62576,-0.28529 -3.4117,-0.517592 -3.96875,-0.516227 -2.31761,0.0057 -5.64247,2.927354 -7.47181,6.565746 -1.07478,2.137625 -1.30637,2.956771 -0.83596,2.956771 0.48962,0 1.02687,0.796886 0.89004,1.320149 -0.099,0.378728 -0.43884,0.583479 -1.1596,0.698733 -1.16446,0.186205 -1.10153,0.04762 -1.70231,3.748978 l -0.44232,2.725153 1.41498,1.502331 c 0.77824,0.826282 1.59358,1.690525 1.81186,1.920541 1.87442,1.975177 5.00313,5.830737 6.62633,8.16573 0.86193,1.239906 1.42378,1.784761 1.98437,1.924375 0.43011,0.107116 1.43685,0.360508 2.23722,0.563093 1.70543,0.431675 1.98116,0.227499 1.57546,-1.166627 z m -16.03581,-21.03141 c 1.10594,-3.645524 2.45242,-6.037047 4.67076,-8.295871 2.11437,-2.15295 3.83743,-3.169008 5.74941,-3.390332 0.61556,-0.07125 1.06126,-0.223288 0.99046,-0.337852 -0.51814,-0.838358 -7.68117,-2.549708 -9.25341,-2.21077 -4.33234,0.933951 -9.91787,7.424234 -11.52468,13.391449 -0.26023,0.966449 -0.23835,1.148874 0.17397,1.450371 0.72752,0.531976 0.83301,0.444978 1.26612,-1.044187 0.2222,-0.763984 0.57762,-1.626349 0.78983,-1.916366 0.38136,-0.521179 0.41299,-0.521742 2.72363,-0.04843 1.28579,0.26338 2.45686,0.607487 2.60238,0.764682 0.18643,0.201378 0.10826,0.227174 -0.26458,0.08732 -1.13777,-0.42677 -4.24241,-0.853441 -4.5381,-0.623675 -0.16763,0.13025 -0.38517,0.559356 -0.48343,0.953569 -0.0983,0.394213 -0.36916,1.119567 -0.602,1.611897 -0.48173,1.018596 -0.76599,0.697182 2.89634,3.274891 1.72861,1.216666 1.79428,1.239222 1.92583,0.661458 0.38873,-1.707229 1.46248,-6.038577 1.75401,-7.075404 1.02199,-3.634702 5.58466,-8.415255 8.96922,-9.39755 1.11085,-0.322397 0.24856,0.266404 -1.1373,0.776591 -2.00033,0.736401 -5.06267,3.951234 -6.44804,6.76913 -1.81529,3.692361 -3.03574,9.499481 -2.23632,10.640808 0.39011,0.556967 0.428,0.484499 0.86694,-1.65841 0.25245,-1.232455 0.75148,-3.204949 1.10896,-4.383322 z m -2.46893,0.268364 c 0.002,-0.278915 0.1249,-0.685712 0.27262,-0.903993 0.19613,-0.28984 0.22068,-0.182805 0.091,0.396875 -0.21762,0.972854 -0.36905,1.18404 -0.36364,0.507118 z m 11.588,-12.7264 c 0.191,-0.07643 0.4192,-0.06703 0.50712,0.02089 0.0879,0.08792 -0.0684,0.150453 -0.34727,0.138964 -0.30822,-0.01269 -0.37092,-0.07539 -0.15985,-0.159852 z m -19.82755,10.962511 c 0.94547,-3.175238 2.46846,-6.077814 4.65598,-8.873565 0.80457,-1.028267 1.46285,-1.933211 1.46285,-2.010985 0,-0.240752 -1.81846,-0.637957 -6.08542,-1.329233 -8.47977,-1.37378 -8.60394,-1.35499 -11.77003,1.780972 -1.9735,1.954726 -2.87488,3.231428 -3.56736,5.052796 -0.23102,0.607617 -0.12789,0.657017 4.70633,2.254398 2.71839,0.898242 5.95455,2.153645 7.19148,2.789783 1.23693,0.636139 2.45172,1.165416 2.69954,1.176173 0.2875,0.01248 0.54326,-0.291672 0.70663,-0.840339 z m -17.14289,-6.482291 c 1.88735,-3.966571 4.89642,-6.926792 8.29028,-8.155678 l 1.57092,-0.568816 -1.56797,-0.592933 c -2.16246,-0.817745 -5.55043,-1.393961 -6.98371,-1.187771 -1.88807,0.271616 -3.69806,1.367471 -5.83072,3.53021 -1.80128,1.826682 -4.49625,5.930982 -4.49625,6.847559 0,0.465453 1.10526,0.703895 1.34357,0.289853 0.80924,-1.405972 0.79408,-1.401171 3.31205,-1.048926 1.29119,0.180629 2.43694,0.468868 2.54612,0.640532 0.13329,0.209587 0.19982,0.164983 0.20254,-0.135782 0.0132,-1.45533 3.89368,-6.22635 5.91392,-7.271056 1.08802,-0.562637 2.34329,-0.912117 2.14942,-0.598416 -0.0842,0.136168 -0.34389,0.247578 -0.57717,0.247578 -1.46232,0 -5.03003,3.543289 -6.6747,6.629005 -0.77474,1.453546 -0.86971,1.536297 -1.49176,1.299794 -0.36539,-0.138921 -1.34315,-0.359748 -2.17281,-0.490726 -1.57511,-0.248664 -2.43451,-0.03332 -2.43451,0.610031 0,0.451135 3.87435,0.99278 4.56406,0.638069 0.2851,-0.146621 0.46302,-0.140331 0.46302,0.01637 0,0.217233 0.38471,0.401463 1.10088,0.527184 0.0962,0.01688 0.44393,-0.534854 0.77282,-1.226078 z m -5.0487,-3.870208 c 0,-0.05494 0.20836,-0.263301 0.46302,-0.46302 0.41965,-0.329108 0.42901,-0.319749 0.0999,0.09989 -0.34565,0.44073 -0.56292,0.580888 -0.56292,0.363126 z m 12.12123,-4.843345 c 0.19099,-0.07643 0.4192,-0.06703 0.50711,0.02089 0.0879,0.08792 -0.0684,0.150453 -0.34726,0.138964 -0.30823,-0.01269 -0.37092,-0.07539 -0.15985,-0.159852 z m -16.61239,5.853259 c 0.80408,-1.562824 2.14562,-3.66001 2.98119,-4.660414 1.83874,-2.20147 1.83733,-2.202729 -2.45878,-2.202729 -2.93945,0 -3.0972,0.02957 -4.6485,0.871256 -1.79196,0.972262 -3.92546,2.918151 -5.14848,4.695743 -0.8953,1.301281 -2.13337,3.83743 -1.98793,4.07222 0.0512,0.0827 2.27731,0.131251 4.94684,0.107892 l 4.8537,-0.04247 z"
       id="path324" /></g></svg>
