<?xml version="1.0" encoding="UTF-8" standalone="no"?>
<!-- Created with Inkscape (http://www.inkscape.org/) -->

<svg
   width="187.65236mm"
   height="189.05319mm"
   viewBox="0 0 187.65236 189.05317"
   version="1.1"
   id="svg1"
   xml:space="preserve"
   xmlns="http://www.w3.org/2000/svg"
   xmlns:svg="http://www.w3.org/2000/svg"><defs
     id="defs1"><clipPath
       clipPathUnits="userSpaceOnUse"
       id="clipPath415"><path
         id="path416"
         style="fill:#ff0000;fill-opacity:1;fill-rule:nonzero;stroke:none;stroke-width:0.264583"
         d="m 193.4142,-378.4866 v 200.33195 H 414.19038 V -378.4866 Z m 125.18512,115.62033 c 0.0293,-0.001 0.058,-0.001 0.0863,0 0.2215,0.009 0.39576,0.0993 0.53227,0.22996 0.0959,-0.0264 0.18888,-0.0418 0.27802,-0.046 0.94416,-0.0446 1.45564,1.10269 0.35191,2.25981 -0.76795,0.80508 -1.59741,1.54823 -2.42052,2.29546 -1.37643,1.23199 -2.74642,2.47204 -4.10259,3.72588 -0.66412,0.60739 -0.34832,0.31547 -0.94775,0.87539 -0.27581,0.25763 -0.54852,0.42246 -0.80409,0.51418 -0.31603,0.27783 -0.61521,0.5752 -0.93586,0.84802 -0.89113,0.73877 -1.76359,1.50101 -2.60345,2.29856 -0.64809,0.63848 -1.27009,1.30102 -1.93012,1.92753 -0.38268,0.35575 -0.79616,0.67534 -1.19941,1.00718 -0.03,0.44314 -0.37159,0.94214 -1.12293,1.28726 -0.69728,0.32028 -1.4016,0.62559 -2.09083,0.96325 -0.79583,0.39498 -1.59314,0.78758 -2.40915,1.13946 -2.043,0.88097 -2.8733,-1.19679 -0.83458,-2.08669 0.008,-0.003 0.0158,-0.007 0.0238,-0.0109 0.16379,-0.13226 0.36228,-0.25676 0.6077,-0.36225 0.15767,-0.0677 0.31369,-0.1396 0.47027,-0.2098 0.4718,-0.24126 0.93583,-0.4964 1.40456,-0.74363 0.63433,-0.34956 1.26092,-0.7197 1.85002,-1.14153 0.61778,-0.4495 1.1905,-0.95694 1.75338,-1.47278 0.66035,-0.62632 1.27972,-1.29167 1.93063,-1.92753 0.87014,-0.82453 1.7707,-1.61558 2.69389,-2.38022 0.99048,-0.84187 1.96289,-1.70684 2.89439,-2.61431 0.0145,-0.18835 0.0577,-0.3866 0.17105,-0.59841 -0.69759,-0.31789 -0.80804,-1.35138 0.34882,-2.16783 0.92983,-0.65578 0.45606,-0.33029 1.42162,-0.97616 1.02648,-0.66721 2.07733,-1.3008 3.16312,-1.86811 0.4935,-0.51516 1.00557,-0.75045 1.41955,-0.76584 z m 6.40839,0.6103 c 0.54596,0.0233 0.89407,0.54227 0.76171,1.32395 0.153,0.15555 0.26568,0.3892 0.34624,0.66662 0.0614,-0.009 0.12284,-0.016 0.18448,-0.016 0.79453,0 1.58,0.78644 1.5627,2.35955 -0.009,0.79204 0.12314,1.57529 0.26303,2.35179 0.2545,1.17844 0.52165,2.35463 0.79168,3.5295 0.56177,0.29902 1.02628,1.03166 1.06454,2.20245 0.0347,1.06331 0.13605,2.12297 0.2098,3.18431 0.0362,0.154 0.0721,0.30802 0.10852,0.46198 0.25793,1.15197 0.52757,2.30148 0.77102,3.45664 0.19711,0.91685 0.39256,1.8341 0.58084,2.7528 0.0962,0.53685 0.1803,1.07568 0.262,1.61489 0.36796,2.42852 -1.46752,3.25066 -2.51406,2.01487 -0.79123,0.0659 -1.64815,-0.65024 -1.78129,-2.21641 -0.0904,-1.06319 -0.18063,-2.12696 -0.27026,-3.1905 -0.53489,0.70761 -1.44945,0.75537 -2.08411,0.0408 0.0216,0.88535 0.0113,1.772 0.0517,2.6572 0.14338,3.14282 -3.03312,3.28655 -3.175,0.14366 -0.037,-0.82056 -0.0635,-1.64148 -0.0853,-2.46238 -0.0659,0.18029 -0.0496,0.14064 -0.14625,0.40566 -1.07829,2.95555 -4.06427,1.86616 -2.98586,-1.08934 0.7899,-2.16505 0.39158,-1.06389 1.19269,-3.30471 0.66621,-1.94292 1.362,-3.90421 1.73736,-5.92935 -0.0582,-0.70768 -0.13935,-1.41301 -0.26097,-2.11357 -0.0745,-0.4293 -0.0792,-0.8119 -0.032,-1.14567 -0.73313,-0.0468 -1.21478,-0.93089 -0.51884,-2.1208 0.47574,-0.81338 0.93899,-1.6337 1.39785,-2.4567 0.36728,-0.6664 0.74778,-1.32757 1.09606,-2.00349 0.41401,-0.80345 0.99422,-1.13762 1.47174,-1.11725 z m 83.17322,12.25455 h 5.3e-4 5.3e-4 c 0.69769,0.004 1.45673,0.61137 1.77145,1.95078 0.13711,0.583 0.21127,1.17777 0.26924,1.77302 0.0468,0.52064 0.0683,1.04288 0.0822,1.56528 0.0116,0.61982 0.0236,1.23981 0,1.85932 -0.0417,0.5707 -0.0842,1.14148 -0.11215,1.71307 -0.006,0.55909 -0.0642,1.11439 -0.15502,1.66553 -0.006,0.0384 -0.0222,0.0744 -0.0289,0.11266 0.10184,0.3337 0.15875,0.73308 0.13848,1.21646 -0.0337,0.8036 -0.25268,1.58401 -0.4713,2.35335 -0.2556,0.83605 -0.50867,1.67296 -0.78134,2.50372 -0.25555,0.75435 -0.52941,1.5028 -0.81493,2.24637 -0.24768,0.70126 -0.55285,1.3798 -0.85938,2.05673 -0.24642,0.50945 -0.50213,1.01342 -0.72606,1.53323 -0.23072,0.55708 -0.49984,1.09587 -0.77773,1.6304 -0.32083,0.60357 -0.65749,1.19848 -0.99425,1.79317 -0.3126,0.5199 -0.63226,1.03548 -0.95757,1.54719 -0.23343,0.54476 -0.46052,1.09231 -0.71261,1.62884 -0.52436,1.18291 -1.17006,2.30212 -1.83607,3.4091 -0.25625,0.42466 -0.52563,0.84093 -0.80047,1.25367 -0.0989,0.19876 -0.18134,0.40536 -0.28577,0.60151 -0.49269,0.89486 -1.0762,1.73769 -1.66863,2.56884 -0.62899,0.86059 -1.33674,1.65395 -2.07377,2.42207 -0.62231,0.60569 -1.248,1.20759 -1.86811,1.81539 -0.002,0.003 -0.005,0.007 -0.007,0.01 -0.23929,0.30804 -0.48831,0.54597 -0.73691,0.72347 -0.74155,0.73671 -1.48926,1.46802 -2.20709,2.22777 -0.5892,0.64819 -1.19714,1.27826 -1.7968,1.91668 -1.05491,1.12308 -2.14548,1.17044 -2.73419,0.66094 -0.37192,0.36895 -0.74247,0.73925 -1.12035,1.10226 -0.43091,0.39497 -0.88269,0.76302 -1.35082,1.10949 -0.10902,0.0992 -0.21619,0.20044 -0.32557,0.29921 -1.426,1.25569 -2.95452,2.38188 -4.53564,3.43235 -0.94199,0.62276 -1.89181,1.23649 -2.86494,1.80971 -0.72563,0.41359 -1.4961,0.72657 -2.29907,0.95033 -0.98833,0.23107 -2.0034,0.29803 -3.01378,0.35243 -0.90753,0.0394 -1.81556,0.0437 -2.72231,0.0997 -0.78756,0.054 -1.57607,0.0745 -2.36214,0.14779 -0.32387,0.0317 -0.64824,0.0595 -0.97255,0.0863 -1.37425,0.11366 -2.19594,-0.43107 -2.42207,-1.10071 -1.25024,0.20465 -2.49775,0.42749 -3.75377,0.5917 -2.83468,0.26213 -5.68532,0.38028 -8.52919,0.18035 -1.84626,-0.13066 -3.71401,-0.22879 -5.52164,-0.65267 -2.03802,0.0366 -4.07616,0.0524 -6.11435,0.0129 -2.05152,-0.0589 -4.10852,-0.10005 -6.14898,-0.33899 -0.56916,-0.0666 -1.02267,-0.22677 -1.36735,-0.4408 -1.14665,0.008 -1.89031,-1.32532 -0.71935,-3.03289 0.56912,-0.82992 1.15887,-1.64538 1.73168,-2.47272 0.91963,-1.364 1.82197,-2.74027 2.66599,-4.15272 0.56429,-0.93895 1.11766,-1.90487 1.59526,-2.88458 0.60327,-1.23732 1.48451,-1.80707 2.19055,-1.81022 0.90776,-0.004 1.52611,0.9285 0.89297,2.58124 -0.50458,1.31706 -1.22984,2.54197 -1.95285,3.74912 -0.87267,1.46046 -1.80575,2.88331 -2.75641,4.2938 -0.0685,0.0994 -0.13879,0.19754 -0.20775,0.29662 0.26695,-0.0977 0.57492,-0.16905 0.92914,-0.20257 2.69879,-0.25541 5.4082,-0.38373 8.11527,-0.51573 3.69195,-0.16682 7.38319,-0.35415 11.07477,-0.52865 0.0982,-0.005 0.19341,-0.006 0.28577,-0.004 1.93374,0.0346 2.58,1.40619 1.85932,2.33784 0.22201,0.14355 0.37128,0.32391 0.48628,0.5147 0.39904,-0.0306 0.7984,-0.0574 1.19682,-0.0946 2.2049,-0.29669 4.39805,-0.67872 6.59238,-1.04489 1.82613,-0.30182 3.64182,-0.65625 5.44823,-1.05885 1.18509,-0.25346 2.35247,-0.57358 3.52072,-0.89091 0.21438,-0.33023 0.54236,-0.65961 1.00822,-0.95859 2.03213,-1.30423 4.07157,-2.59677 6.12779,-3.86282 1.4239,-0.87977 2.86132,-1.74827 4.19767,-2.759 0.57495,-0.43487 1.13189,-0.67252 1.62315,-0.75913 0.2565,-0.41227 0.52018,-0.81979 0.78496,-1.2268 0.42278,-0.67365 0.86865,-1.3322 1.29761,-2.00194 0.28138,-0.40744 0.54153,-0.82942 0.79219,-1.25626 0.59749,-1.01743 1.35686,-1.42566 1.98852,-1.39578 0.0881,0.004 0.1542,0.0535 0.2346,0.0749 1.04076,-1.30678 2.09348,-2.60422 3.16983,-3.88193 1.0919,-1.31638 2.23036,-2.61329 3.16725,-4.04678 0.49021,-0.75005 1.06235,-1.17623 1.5932,-1.34049 0.20737,-0.47325 0.41488,-0.94644 0.62269,-1.41955 0.29702,-0.69954 0.61634,-1.39077 0.94619,-2.07532 0.27147,-0.48518 0.52723,-0.97989 0.74828,-1.49035 0.0159,-0.0397 0.0281,-0.0808 0.0445,-0.12041 0.22463,-0.595 0.44682,-1.19113 0.69297,-1.77767 0.17419,-0.39245 0.34732,-0.78521 0.52348,-1.17667 0.0805,-0.21783 0.15738,-0.43696 0.24081,-0.65371 0.24451,-0.70144 0.50064,-1.39912 0.74932,-2.09909 0.23282,-0.64068 0.4867,-1.27349 0.73587,-1.9079 0.14038,-0.40168 0.28539,-0.80165 0.42943,-1.20199 0.10992,-0.40643 0.21791,-0.81335 0.27388,-1.23145 0.0938,-0.56698 0.17656,-1.13598 0.30335,-1.69706 0.0967,-0.58686 0.20521,-1.17353 0.20515,-1.77095 0.0123,-0.46127 10e-4,-0.92046 -0.0656,-1.37821 -0.0852,-0.5846 -0.0347,-1.06433 0.0935,-1.4521 -0.0103,-0.19485 -0.0129,-0.39011 -0.03,-0.58447 -0.0414,-0.43822 -0.0935,-0.87604 -0.18861,-1.30638 h -5.3e-4 c -0.38178,-1.72747 0.41305,-2.72457 1.31,-2.72179 z m -92.66463,4.05246 c 1.4803,0.002 2.08766,1.78406 0.20516,3.20704 -0.69175,0.52289 -1.37909,1.05254 -2.09858,1.53738 -1.11713,0.72938 -2.25723,1.42017 -3.4153,2.08049 0.032,0.20809 0.0492,0.52871 0.062,0.91209 1.31184,1.22564 1.16133,1.35333 0.15037,1.83555 -0.0512,0.0244 -0.0831,0.038 -0.13074,0.0605 -0.0337,0.18258 -0.29316,0.21568 -0.54622,0.25373 -0.27112,0.12327 -0.54276,0.24474 -0.90744,0.40824 -1.95436,0.87648 -3.89868,1.78609 -5.77174,2.8267 2.60883,-0.86246 5.20271,-1.77756 7.7432,-2.82566 1.71852,-0.69748 3.42805,-1.51299 5.25911,-1.86552 0.28966,-0.0558 0.55523,-0.0801 0.79633,-0.0775 2.33065,0.0245 2.36648,2.54868 -0.40204,3.23133 -1.53926,0.37954 -2.99348,1.06251 -4.45812,1.65674 -2.62727,1.08438 -5.3102,2.02941 -8.00778,2.92127 -1.24711,0.38338 -2.4838,0.79758 -3.7083,1.24644 -1.45869,0.53455 -2.45742,0.0747 -2.74557,-0.65526 -2.40101,1.95063 -4.63119,0.18072 -2.50683,-1.96422 -0.62351,0.277 -1.2504,0.54573 -1.87999,0.80822 -0.0695,0.0475 -0.13235,0.0763 -0.18551,0.0775 -0.23878,0.0988 -0.47529,0.20319 -0.71521,0.29921 -0.60378,-0.15307 -1.63692,0.13858 -1.81126,-0.4594 -0.64309,-2.20695 0.64991,-2.58878 1.83762,-3.16312 0.40271,-0.19474 0.80672,-0.3863 1.21026,-0.57929 1.95889,-0.93684 0.90412,-0.42312 2.94659,-1.43402 2.64982,-1.33354 5.30319,-2.66039 7.94112,-4.01733 1.09849,-0.9006 2.2105,-1.78382 3.34966,-2.63239 0.9523,-0.7021 1.91436,-1.3929 2.91766,-2.02107 0.58337,-0.36525 1.12339,-0.52404 1.58336,-0.53175 0.28268,-0.005 0.53418,0.0487 0.74776,0.14521 0.27446,-0.20581 0.55528,-0.40293 0.82889,-0.60978 0.62747,-0.47437 1.21809,-0.6718 1.71152,-0.67128 z m 11.17917,22.27978 c 0.7321,-0.0401 1.5061,0.61354 1.70222,2.07533 0.10017,0.7465 0.13705,1.49803 0.14573,2.2505 0.58409,-0.91604 1.15722,-1.83974 1.78645,-2.72541 0.62642,-0.88171 1.32171,-1.23615 1.89446,-1.2144 1.09343,0.0415 1.7397,1.45347 0.60461,3.1781 -0.19453,0.29561 -0.38984,0.59071 -0.58446,0.88625 0.14663,0.16927 0.23582,0.40211 0.29146,0.66198 0.62962,0.30934 0.9928,1.19638 0.54622,2.53111 -0.49061,1.4663 -0.97095,2.93583 -1.43506,4.41058 -0.10404,0.32836 -0.20808,0.6566 -0.31212,0.98496 -0.71125,2.24446 -2.58646,2.2713 -3.08715,0.88573 -0.71528,0.22678 -1.41138,-0.11324 -1.65468,-0.88522 -0.74544,1.1401 -1.492,2.27947 -2.23604,3.42047 -1.71863,2.63534 -4.38027,0.89923 -2.66186,-1.73633 1.17431,-1.80083 2.34064,-3.6065 3.52899,-5.39812 0.12637,-0.18875 0.36048,-0.54183 0.54312,-0.81442 -0.27416,-0.3985 -0.4494,-0.97775 -0.43408,-1.73891 0.0277,-1.37526 0.0865,-2.75817 -0.0625,-4.12843 -0.18074,-1.66174 0.595,-2.59828 1.42472,-2.64377 z m -58.0745,6.87917 c 0.50194,-7.9e-4 0.96379,0.30396 1.20252,0.86661 0.28393,-0.32258 0.63365,-0.50643 0.99322,-0.50643 0.79412,0 1.59235,0.78714 1.60145,2.36006 0.006,0.9749 -0.0788,1.94725 -0.1447,2.91921 -0.2128,3.13894 -3.38368,2.92422 -3.17086,-0.21498 0.0185,-0.27341 0.0226,-0.54761 0.0419,-0.82114 -1.1779,1.69146 -3.33264,0.66878 -2.57246,-1.93063 0.0718,-0.24539 0.14821,-0.48952 0.21291,-0.7369 0.34839,-1.33174 1.13125,-1.93469 1.83606,-1.9358 z m 9.72396,1.39061 c 0.90556,0.0286 1.67907,1.05458 1.22111,2.76417 -0.10938,0.40834 -0.30307,0.78319 -0.50539,1.15135 -1.51539,2.75745 -4.3599,1.16351 -2.77296,-1.55339 0.0878,-0.1503 0.17801,-0.30118 0.22221,-0.47129 0.34633,-1.33227 1.1307,-1.91311 1.83503,-1.89084 z m 49.97318,7.28276 c 0.98536,0.0159 1.61552,1.07164 0.78289,2.74402 -0.75246,1.51135 -1.8935,2.7993 -2.99516,4.06435 -1.12768,1.25836 -2.353,2.4238 -3.58635,3.57704 -1.15109,1.07634 -2.26968,1.03045 -2.81119,0.447 -0.18108,0.14088 -0.3627,0.2809 -0.54416,0.42117 -0.0902,0.49395 -0.39118,1.04758 -0.97151,1.58543 -1.19223,1.10495 -2.46289,2.12189 -3.73879,3.12746 -1.24022,0.99222 -2.54775,1.89172 -3.86385,2.77864 -1.53078,1.03158 -2.77338,0.54959 -3.01325,-0.37931 -0.75863,0.39274 -1.5289,0.76152 -2.33733,1.03818 -2.97691,1.01876 -3.68365,-1.89465 -0.77049,-3.08353 0.46512,-0.18982 0.91868,-0.40251 1.36684,-0.6258 0.0844,-0.0719 0.13346,-0.14746 0.23047,-0.21756 1.62781,-1.17632 3.25873,-2.34928 4.95681,-3.42356 0.73545,-0.45926 1.47812,-0.90753 2.22053,-1.35599 1.47206,-1.18626 2.95243,-2.36247 4.4049,-3.57239 1.60358,-1.37628 3.24813,-2.72378 4.6793,-4.28398 0.6647,-0.72454 1.35772,-1.02643 1.93219,-1.02733 0.33641,-5.3e-4 0.63005,0.1045 0.85576,0.28577 0.3471,-0.22858 0.68075,-0.39623 0.97617,-0.45372 0.0174,-0.0286 0.0407,-0.0533 0.0579,-0.0822 0.65327,-1.09869 1.49403,-1.57461 2.16835,-1.56373 z m -46.1729,3.27267 c 0.73225,-0.0125 1.466,0.67103 1.57355,2.14199 0.05,0.68343 0.11966,1.36127 0.28164,2.0283 0.74249,3.05731 -2.38775,3.79376 -3.09387,0.7276 -0.17494,-0.75961 -0.29465,-1.52691 -0.33435,-2.30632 -0.0851,-1.66936 0.74315,-2.57747 1.57303,-2.59157 z" /></clipPath><clipPath
       clipPathUnits="userSpaceOnUse"
       id="clipPath466"><path
         id="path467"
         style="fill:#ff0000;fill-opacity:1;fill-rule:nonzero;stroke:none;stroke-width:0.264583"
         d="m 189.63941,-381.08127 v 221.89601 h 202.97572 v -221.89601 z m 32.42592,48.15571 c 2.22372,-0.0707 2.29529,2.17585 0.0713,2.24638 l -0.94878,0.03 c -1.19284,0.0466 -2.38555,0.10152 -3.57394,0.21859 -2.21413,0.21812 -2.3868,-2.02326 -0.1726,-2.24069 1.2165,-0.11946 2.43768,-0.17538 3.65869,-0.22324 0.32179,-0.0102 0.64353,-0.0208 0.96531,-0.031 z m 118.92039,15.32465 c 0.21491,-0.006 0.45731,0.022 0.72606,0.0935 1.09202,0.29062 2.20848,0.47199 3.32124,0.66456 1.19104,-0.0389 2.38348,-0.0438 3.57498,-0.0558 0.28506,-0.003 0.57018,-0.005 0.85524,-0.008 2.22479,-0.0197 2.24481,2.22773 0.0196,2.24741 l -0.85214,0.008 c -0.87885,0.009 -1.75817,0.0152 -2.63705,0.0326 -0.28096,0.0846 -0.6099,0.12694 -1.02681,0.0537 -0.0372,-0.007 -0.0739,-0.0157 -0.11111,-0.0222 -0.13005,0.005 -0.26023,0.007 -0.39015,0.0129 -0.61829,0.026 -1.07843,-0.12814 -1.37356,-0.36587 -0.6239,-0.11886 -1.25343,-0.21069 -1.86759,-0.37362 -1.88165,-0.4992 -1.74297,-2.24246 -0.23875,-2.2872 z m 21.86585,17.45837 c 0.18152,0.002 0.3631,0.006 0.54467,0.0124 1.06913,0.0441 2.11729,0.25095 3.15743,0.48731 0.96207,0.24576 1.90775,0.55003 2.85461,0.84801 0.85172,0.29079 1.70607,0.57272 2.56418,0.84387 0.76906,0.22505 1.54624,0.42107 2.32338,0.61599 0.56074,0.14087 1.11153,0.31853 1.67121,0.46302 0.32079,0.10578 0.64938,0.17589 0.97927,0.24443 0.33988,0.0662 0.67142,0.16994 0.99994,0.27802 0.0676,0.0271 0.13497,0.054 0.20257,0.0811 2.0649,0.82834 1.09092,3.12129 -0.87075,2.07171 -0.0114,-0.006 -0.0232,-0.012 -0.0346,-0.0181 -0.24876,-0.0818 -0.49829,-0.16389 -0.75603,-0.21239 -0.36492,-0.0765 -0.72953,-0.15329 -1.08469,-0.26924 -0.55352,-0.14412 -1.09938,-0.31637 -1.65364,-0.45837 -0.82094,-0.20594 -1.64239,-0.41335 -2.45411,-0.65319 -0.85725,-0.27092 -1.71103,-0.55143 -2.56161,-0.84284 -0.88874,-0.27974 -1.77647,-0.56528 -2.67839,-0.80047 -0.90462,-0.20607 -1.81476,-0.39318 -2.74505,-0.43304 -0.62286,-0.0254 -1.24505,-0.0121 -1.86655,0.0393 -2.2173,0.18317 -2.44014,-2.04206 -0.22376,-2.23604 0.54333,-0.0476 1.08738,-0.0664 1.63194,-0.0615 z m -1.90376,27.52906 c 0.63452,0.009 1.24528,0.17689 1.84847,0.37518 1.22541,0.49977 2.37573,1.16629 3.52226,1.82262 0.99933,0.5918 1.9697,1.2297 2.94763,1.8557 0.71066,0.45213 1.43068,0.88834 2.13062,1.35703 0.39778,0.27884 0.20402,0.14232 0.58187,0.40824 1.81945,1.28046 0.52598,3.1186 -1.29346,1.83813 -0.36233,-0.25499 -0.18269,-0.12871 -0.53898,-0.3793 -0.68689,-0.4602 -1.39493,-0.88643 -2.09186,-1.33119 -0.94674,-0.60607 -1.88611,-1.22371 -2.85254,-1.79834 -1.01921,-0.58369 -2.04127,-1.17376 -3.11971,-1.64228 -0.4595,-0.1584 -0.91558,-0.29288 -1.40767,-0.25218 -2.21717,0.18354 -2.22071,-2.11333 0,-2.2474 0.0917,-0.006 0.18273,-0.008 0.27337,-0.006 z m -0.57257,11.31663 c 0.45321,-0.0188 1.01537,0.2586 1.49241,0.94309 0.51638,0.74093 1.15618,1.38913 1.76114,2.05724 0.69503,0.74288 1.31727,1.54721 1.90582,2.37557 1.09388,1.53952 -0.065,2.6901 -1.22628,1.89807 -0.41916,0.28938 -1.12812,0.23686 -1.84846,-0.4532 -0.34645,-0.33184 -0.69721,-0.65889 -1.06351,-0.96893 -0.4877,-0.4018 -0.97576,-0.82023 -1.53892,-1.11415 -1.60256,-0.8364 -1.34672,-2.30012 -0.11369,-2.31355 0.15341,-0.002 0.32241,0.0199 0.50436,0.0672 -0.10777,-0.14649 -0.23358,-0.27951 -0.33176,-0.43305 -0.74909,-1.17151 -0.29647,-2.02688 0.45889,-2.05827 z m -24.3949,34.3426 c 0.98895,0.002 1.44716,1.09079 0.25167,2.15284 -1.08006,0.9595 -2.37566,1.63343 -3.64474,2.30425 -1.96692,1.03981 -3.01759,-0.94927 -1.04955,-1.98695 1.0731,-0.56581 2.16581,-1.12927 3.10524,-1.90635 0.48216,-0.39884 0.95047,-0.56455 1.33738,-0.56379 z m 10.50169,15.05645 c 0.33497,-0.0114 0.69863,0.18432 0.99632,0.57722 0.69408,0.262 1.17115,0.84066 1.60921,1.41801 0.40201,0.51939 0.71993,1.09291 1.04283,1.66243 0.24726,0.4235 0.48309,0.8537 0.70331,1.29191 0.19389,0.3917 0.38119,0.78664 0.56121,1.18494 0.15364,0.33541 0.2469,0.69408 0.39222,1.03249 0.15394,0.37644 0.31797,0.74679 0.45217,1.1312 0.13747,0.39349 0.25591,0.7927 0.39119,1.18701 0.13517,0.35947 0.26014,0.72378 0.36794,1.09244 0.0908,0.282 0.19884,0.55865 0.30282,0.83612 0.071,0.21577 0.18775,0.40394 0.29921,0.59945 0.12616,0.21515 0.25397,0.42926 0.39739,0.63355 0.18312,0.24829 0.31678,0.52594 0.47077,0.79168 0.19486,0.31919 0.34438,0.65488 0.45165,1.01286 0.12343,0.32122 0.18388,0.65952 0.23048,0.99891 0.0225,0.32571 0.0747,0.64642 0.13229,0.96738 0.0732,0.48486 0.14854,0.96956 0.20464,1.45676 0.0543,0.5366 0.11915,1.07192 0.16175,1.60972 0.0392,0.43489 0.11033,0.86492 0.17673,1.29604 0.0814,0.34413 0.14742,0.69088 0.19482,1.04129 0.0435,0.36172 0.0587,0.72589 0.0687,1.08985 0.04,0.41985 0.0716,0.84022 0.093,1.26142 0.0239,0.53057 0.0312,1.06166 0.0372,1.59267 0.005,0.5627 -0.0287,1.12586 -0.0791,1.6862 -0.0507,0.55488 -0.15167,1.10377 -0.26665,1.64848 -0.1299,0.60028 -0.35847,1.17056 -0.57877,1.7415 -0.2082,0.55453 -0.38938,1.11917 -0.56535,1.68465 -0.13759,0.40047 -0.25453,0.80749 -0.34933,1.22008 -0.49832,2.16833 -2.69539,1.65907 -2.18953,-0.50746 0.0789,-0.33799 0.18275,-0.66937 0.28526,-1.00098 -0.19384,-0.19056 -0.31429,-0.51298 -0.38241,-0.89607 -0.3824,0.0875 -0.78753,-0.002 -1.20561,-0.40876 -0.17143,-0.16696 -0.19121,-0.43897 -0.28681,-0.65835 -0.004,-0.11648 -0.007,-0.23287 -0.01,-0.34934 -0.0345,-1.24464 0.7849,-0.379 1.45055,0.2403 0.0101,-0.33432 0.0187,-0.66869 0.0274,-1.00304 -0.0676,-0.0144 -0.14389,-0.0273 -0.23151,-0.0393 -0.13188,-0.018 -0.24121,1.8e-4 -0.32453,0.0289 -0.008,0.007 -0.016,0.0151 -0.0243,0.0222 -0.2266,0.19569 -0.18826,0.0511 0.0243,-0.0222 0.0769,-0.0684 0.15011,-0.14112 0.22531,-0.21135 0.11565,-0.11705 0.23158,-0.23457 0.34624,-0.35347 0.001,-0.0517 0.003,-0.10334 0.004,-0.15503 0.0185,-1.53543 -0.0128,-3.07112 -0.031,-4.60644 -0.0354,-1.81658 -0.0864,-3.63336 -0.20619,-5.44669 -0.0877,-1.19958 -0.14341,-2.41756 -0.45578,-3.5848 -0.21624,-0.80802 -0.095,-1.44399 0.18087,-1.81384 -0.14153,-0.25274 -0.28396,-0.50476 -0.38086,-0.77928 -0.1244,-0.33263 -0.25377,-0.66399 -0.35812,-1.00356 -0.0926,-0.33331 -0.21492,-0.65865 -0.33331,-0.9834 -0.0799,-0.23305 -0.15584,-0.46709 -0.23151,-0.70125 -0.0222,1.47003 -1.69215,1.72337 -2.26188,-0.11162 -0.49456,-1.59283 -0.24693,-0.78507 -0.74311,-2.42362 -0.51745,-1.68406 -1.02813,-3.37019 -1.56631,-5.04776 -0.38229,-1.19165 0.13396,-1.9082 0.7798,-1.93011 z m 41.83724,10.03401 c 0.56182,0.001 1.12234,0.55828 1.12034,1.6707 -1.4e-4,0.0681 1.3e-4,0.13602 0,0.20412 -0.001,0.51608 -0.002,1.03218 -0.008,1.54823 -0.007,0.60043 -0.0173,1.20131 -0.0517,1.80092 -0.0481,0.72661 -0.10687,1.45782 -0.29146,2.16473 -0.20828,0.65587 -0.50481,1.26544 -0.9679,1.78283 -0.39439,0.42999 -0.82617,0.82424 -1.31103,1.15135 -0.48184,0.32855 -0.96861,0.65461 -1.49035,0.91726 -0.62324,0.27193 -1.26917,0.48714 -1.95905,0.46974 -0.55242,-0.0197 -1.10342,-0.0754 -1.64796,-0.17208 -2.1906,-0.3889 -1.75636,-2.55346 0.4408,-2.20349 0.42224,0.0672 0.84817,0.11971 1.27589,0.12971 0.35092,-7.9e-4 0.66969,-0.14015 0.98392,-0.2806 0.38921,-0.21771 0.76119,-0.46464 1.12913,-0.71624 0.3316,-0.23126 0.64306,-0.4938 0.90847,-0.79943 0.23515,-0.27347 0.39301,-0.58553 0.48731,-0.93121 0.12255,-0.54466 0.16328,-1.10398 0.19947,-1.65985 0.0313,-0.55976 0.0395,-1.12003 0.0465,-1.68051 0.005,-0.50871 0.007,-1.0178 0.008,-1.52653 v -0.20308 c 0.002,-1.1126 0.56524,-1.66761 1.12706,-1.66657 z" /></clipPath><clipPath
       clipPathUnits="userSpaceOnUse"
       id="clipPath477"><path
         id="path478"
         style="fill:#ff0000;fill-opacity:1;fill-rule:nonzero;stroke:none;stroke-width:0.264583"
         d="m 166.26145,-357.83038 v 149.82445 h 187.28934 v -149.82445 z m 35.14773,74.6094 c 1.37971,0.0145 2.22549,1.48076 1.0635,3.85351 -1.03773,2.11901 -2.83426,3.73644 -4.62194,5.21932 l -1.11466,0.83251 c -3.5651,2.66268 -6.25907,-0.95853 -2.68304,-3.6065 l 0.94361,-0.69867 c 1.22577,-0.99537 2.44633,-2.0727 3.30264,-3.41581 0.97179,-1.52425 2.16586,-2.19424 3.10989,-2.18436 z m 4.08037,0.1111 c 0.37159,-0.045 1.10019,1.56219 1.99006,2.39366 0.32542,0.0805 0.66351,0.23973 0.9989,0.48317 0.38476,-0.0206 0.78413,-0.28315 1.18908,-0.9648 0.009,-0.0145 0.051,-0.11922 0.10283,-0.0667 0.0813,0.0825 0.12584,0.19516 0.20051,0.2837 0.153,0.18142 0.31888,0.35179 0.48162,0.52452 0.84071,0.8923 0.80336,0.83796 1.71721,1.73839 1.26194,1.26229 0.64465,0.64222 1.85208,1.8588 3.07422,3.09755 0.0627,6.16658 -3.01118,3.30523 -0.875,0.80329 -2.53706,0.66008 -3.93155,-1.21853 -0.4711,-0.63466 -0.95874,-1.26416 -1.30276,-1.98076 -0.65838,-1.37144 -0.64656,-2.47256 -0.25838,-3.175 -0.13937,-0.36941 -0.25492,-0.75043 -0.30851,-1.16065 -0.0321,-0.24614 0.006,-0.49644 0.009,-0.74466 h -5.2e-4 c 0.0102,-0.90379 0.10645,-1.25638 0.27182,-1.27641 z" /></clipPath><clipPath
       clipPathUnits="userSpaceOnUse"
       id="clipPath484"><path
         id="path485"
         style="fill:#ff0000;fill-opacity:1;fill-rule:nonzero;stroke:none;stroke-width:0.264583"
         d="m 176.09996,-387.88394 v 228.4336 h 199.07777 v -228.4336 z m 101.57675,158.96187 c 3.28991,0.049 4.38498,3.82629 0.15761,6.33605 -2.31055,1.37175 -4.87072,2.19795 -7.43779,2.93626 -1.5483,0.38688 -3.10602,0.73384 -4.65811,1.10484 -6.1204,1.46299 -7.59759,-4.72129 -1.47692,-6.18309 1.46203,-0.34918 2.92801,-0.68004 4.38888,-1.03404 1.99956,-0.56673 3.99808,-1.18147 5.81515,-2.21485 1.19658,-0.68052 2.29,-0.95888 3.21118,-0.94517 z m -65.57378,27.79366 c 0.78789,-0.0121 1.72785,0.19898 2.79208,0.70848 1.25671,0.60166 2.52697,1.17058 3.79718,1.74356 5.73622,2.58754 3.12158,8.38276 -2.61431,5.79448 -1.14406,-0.51625 -2.30155,-1.00612 -3.41529,-1.58595 -4.53513,-2.36104 -3.97386,-6.60832 -0.55966,-6.66057 z" /></clipPath><clipPath
       clipPathUnits="userSpaceOnUse"
       id="clipPath507"><path
         id="path508"
         style="fill:#ff0000;fill-opacity:1;fill-rule:nonzero;stroke:none;stroke-width:0.264583"
         d="m 206.09865,-418.08675 v 247.84172 h 215.2897 v -247.84172 z m 208.75625,165.23953 c 1.54735,-0.003 2.96896,1.56072 2.80034,4.70255 -0.11784,2.19573 -0.65291,4.34851 -1.19527,6.47144 -0.6615,2.49769 -1.46375,4.95032 -2.33475,7.38147 -0.43286,1.20745 -0.99955,2.35908 -1.54874,3.51606 -0.446,0.93956 -0.98509,1.57336 -1.54564,2.07791 -0.10047,0.24101 -0.20263,0.48249 -0.30179,0.72347 -1.17431,2.95376 -2.45292,5.8646 -3.76153,8.7607 -0.15932,0.35262 -0.35968,0.57957 -0.54053,0.87024 -0.0606,0.19079 -0.17843,0.40086 -0.26097,0.59944 0.86195,1.04761 0.80348,2.92969 -0.98392,5.05602 -1.41587,1.68435 -3.14647,3.07098 -4.86482,4.43229 l -0.88263,0.65578 c -3.60793,2.67866 -6.57183,0.83006 -6.12883,-1.80558 -1.27317,0.36633 -2.55327,0.70911 -3.81785,1.10433 -0.0394,1.24614 -0.93376,2.68385 -2.98121,3.75636 -0.50028,0.26206 -1.0004,0.52394 -1.50069,0.786 -2.41479,1.21191 -4.84402,2.4203 -7.45019,3.17189 -5.76752,1.66336 -7.68969,-3.7963 -2.60759,-5.81773 -0.34954,-1.41972 0.48436,-3.24061 3.1166,-4.39249 2.2216,-0.97219 4.45996,-1.90671 6.75411,-2.697 3.2071,-1.07145 6.44795,-2.0368 9.72137,-2.88561 0.76143,-0.19744 1.45645,-0.27549 2.0774,-0.25735 0.44209,0.0129 0.84452,0.0767 1.20922,0.17829 0.37977,-0.52684 0.24198,-0.3397 0.69144,-0.9493 0.62201,-0.87344 1.26281,-1.7354 1.7756,-2.67942 0.21161,-0.38956 0.43615,-0.7359 0.66921,-1.04128 0.0827,-0.2402 0.0976,-0.45057 0.21187,-0.70332 1.27958,-2.82994 2.52867,-5.67453 3.67575,-8.56123 1.02636,-2.49408 2.09017,-4.97884 2.9099,-7.55096 0.46403,-1.45618 1.15893,-2.51693 1.92391,-3.20549 0.21022,-0.69898 0.43003,-1.39481 0.61753,-2.10117 0.41407,-1.61134 0.81852,-3.23669 0.99632,-4.89376 0.33569,-3.12839 2.00896,-4.69919 3.55638,-4.70255 z" /></clipPath><clipPath
       clipPathUnits="userSpaceOnUse"
       id="clipPath521"><path
         id="path522"
         style="fill:#ff0000;fill-opacity:1;fill-rule:nonzero;stroke:none;stroke-width:0.264583"
         d="m 75.263866,-410.47481 v 216.90407 H 258.97927 v -216.90407 z m 126.087394,48.27405 c 3.27198,-0.0575 4.46934,3.10082 1.89549,5.2958 0.47026,1.38541 -0.23008,3.28113 -2.75797,4.65243 -2.0774,1.12693 -4.20068,2.1812 -6.13709,3.54604 -4.99436,3.52016 -8.84082,-0.8294 -4.45916,-4.55011 -0.47393,-1.23132 0.0514,-2.98057 2.15542,-4.5713 1.46443,-1.10716 3.05807,-2.02028 4.68292,-2.86701 1.43219,-0.66979 0.71181,-0.35373 2.16007,-0.94878 0.90948,-0.37367 1.73564,-0.54434 2.46032,-0.55707 z m -30.46739,68.02066 c 2.8088,-0.0178 3.8318,3.64686 0.22738,6.69364 -1.37923,1.16585 -2.84807,2.21349 -4.34548,3.22048 -1.01854,0.7374 -0.49503,0.3655 -1.57251,1.11414 -5.16784,3.59069 -8.7958,-1.63683 -3.62407,-5.2219 1.04313,-0.7231 0.49062,-0.33398 1.65468,-1.17047 1.50667,-1.0084 2.94668,-2.09862 4.36098,-3.23133 1.22793,-0.98344 2.36275,-1.39865 3.29902,-1.40456 z" /></clipPath><clipPath
       clipPathUnits="userSpaceOnUse"
       id="clipPath611"><path
         id="path612"
         style="fill:#ff0000;fill-opacity:1;fill-rule:nonzero;stroke:none;stroke-width:0.264583"
         d="m 90.900824,-436.17835 v 237.6103 H 336.5003 v -237.6103 z m 166.978436,59.76844 c 1.14899,0.0439 2.48192,0.8578 3.58738,2.71715 0.96471,1.62261 1.75796,3.33365 2.47323,5.07928 0.18622,0.3213 0.37943,0.62406 0.53692,1.02061 0.79593,2.00389 1.67988,3.97184 2.56367,5.93813 1.44897,3.22393 0.23307,5.38827 -1.54926,5.71128 -1.50934,0.72789 -3.69523,-0.14736 -4.82089,-3.25871 l -0.81287,-2.24689 c -1.08246,-2.95938 -2.13825,-5.95881 -3.67988,-8.71782 -2.01437,-3.60492 -0.49182,-6.32674 1.7017,-6.24303 z m -81.34645,4.06642 c 0.0584,-0.001 0.11725,10e-4 0.17621,0.004 1.29101,0.0733 2.69586,1.20268 3.45871,3.64267 0.54166,1.73254 0.56031,3.53279 0.50126,5.32784 -0.2069,6.28922 -6.60174,6.06082 -6.35259,-0.22686 0.0411,-1.0381 0.0906,-2.07426 -0.17931,-3.09077 -0.92883,-3.49839 0.58477,-5.62449 2.39572,-5.6565 z m -20.03547,23.61561 c 1.81232,0.0577 3.32841,2.10161 2.36936,5.50871 -0.75699,2.68945 -1.56899,5.36328 -2.27893,8.06669 -0.1435,0.58917 -0.28697,1.17817 -0.43046,1.76734 -1.48915,6.11387 -7.66831,4.60721 -6.17585,-1.50585 0.1528,-0.62591 0.30556,-1.25203 0.45837,-1.87793 0.72268,-2.74659 1.5476,-5.46329 2.31458,-8.19639 0.74381,-2.65073 2.33318,-3.80745 3.74293,-3.76257 z m 109.95969,0.82321 c 1.46803,-0.0251 2.9412,1.34171 3.15847,4.28346 0.49175,6.65801 -0.36368,13.32202 -1.12397,19.92695 -0.71962,6.25137 -7.03583,5.52377 -6.31486,-0.72761 0.0105,-0.0912 0.0184,-0.18319 0.0289,-0.2744 -0.63892,-0.66023 -1.17113,-1.65938 -1.45831,-3.03082 -0.80799,-3.85857 -1.57233,-7.7257 -2.2996,-11.60033 -0.653,-3.4788 1.02654,-5.42197 2.82825,-5.35574 0.73471,0.027 1.4884,0.39204 2.11409,1.11931 0.13336,-2.7566 1.56139,-4.31512 3.06699,-4.34082 z m 7.85792,12.07575 c 1.16821,0.0327 2.5369,0.82585 3.68866,2.65668 0.71074,1.12974 1.30633,2.32563 1.90428,3.5171 2.82256,5.6243 -2.86847,8.47544 -5.68337,2.84737 -0.47947,-0.9586 -0.95669,-1.91955 -1.50999,-2.83858 -2.13002,-3.53796 -0.6298,-6.24505 1.60042,-6.18257 z m -117.60161,29.07471 c 1.58564,-10e-5 3.1265,1.57223 3.04323,4.71754 -0.034,1.28503 0.004,2.56087 0.19275,3.83284 0.92362,6.22467 -5.44333,7.12367 -6.29419,0.88884 -0.21395,-1.56781 -0.30432,-3.13901 -0.25528,-4.72168 0.0975,-3.1449 1.72805,-4.71744 3.31349,-4.71754 z m 93.83097,39.07307 h 5.3e-4 c 0.81381,-0.006 1.20826,0.83941 0.36276,2.02933 -0.18564,0.26125 -0.42173,0.48006 -0.63717,0.71572 -0.19413,0.20242 -0.37129,0.41888 -0.54725,0.63665 -0.22168,0.30821 -0.47985,0.58554 -0.75654,0.8444 -0.1035,0.10732 -0.23909,0.17079 -0.35502,0.26096 -0.003,0.0153 -0.006,0.0305 -0.009,0.046 -0.11545,0.52124 -0.22557,1.04336 -0.33797,1.56528 -0.094,0.43639 -0.25761,0.76603 -0.45527,0.99684 0.0845,0.15179 0.1692,0.30349 0.25373,0.45527 0.047,-0.009 0.0954,-0.0151 0.1447,-0.0165 0.29552,-0.009 0.6162,0.18797 0.92397,0.49196 0.14296,-0.36451 0.45436,-0.58052 0.83354,-0.55914 0.37295,0.021 0.81147,0.27145 1.21853,0.8351 0.7726,1.06975 1.32834,2.27804 1.88413,3.46955 0.20509,0.43969 0.26794,0.82863 0.23202,1.14722 0.48312,1.86083 -1.32696,2.50277 -2.0686,0.78651 -0.40803,0.29349 -1.03605,0.1889 -1.5627,-0.45217 -0.40944,0.1566 -0.84833,-0.0336 -1.12396,-0.48989 0.1066,0.40886 0.2095,0.81877 0.30902,1.22938 0.0815,0.31247 0.16232,0.62521 0.24082,0.93845 0.54069,2.15815 -1.64016,2.70452 -2.18023,0.54622 -0.0798,-0.31889 -0.16255,-0.63727 -0.24495,-0.9555 -0.21433,-0.88562 -0.43728,-1.76956 -0.709,-2.63963 -0.0355,-0.11455 -0.0851,-0.22405 -0.12092,-0.33848 -0.2193,-0.1386 -0.44002,-0.34567 -0.64751,-0.63252 -0.11926,-0.16488 -0.25312,-0.32645 -0.37362,-0.48576 -0.77263,-1.02143 -0.80153,-1.92831 -0.35398,-2.25206 -0.0464,-0.0909 -0.0865,-0.18494 -0.13385,-0.27543 -0.31358,-0.68243 -0.56966,-1.41036 -0.32659,-2.16163 0.17728,-0.51664 0.42964,-0.9924 0.82424,-1.37873 0.34226,-0.32651 0.71776,-0.61347 1.10949,-0.8785 0.34546,-0.21509 0.70252,-0.40958 1.07436,-0.57567 0.15589,-0.0822 0.30578,-0.18626 0.43459,-0.3328 0.20243,-0.17723 0.36986,-0.38806 0.5302,-0.60306 0.20512,-0.25269 0.41193,-0.50415 0.63666,-0.74001 0.13849,-0.15108 0.28017,-0.2992 0.42426,-0.44442 0.53849,-0.54268 1.07995,-0.77961 1.50637,-0.78289 z m -2.27738,11.74863 -5.3e-4,5.3e-4 c 0.006,0.0195 0.0119,0.0389 0.0176,0.0584 -5.3e-4,-0.0217 -0.009,-0.0347 -0.009,-0.0568 -0.003,-10e-4 -0.005,-10e-4 -0.008,-0.002 z m -61.16681,9.47488 c 2.11054,-0.044 3.64861,2.3742 1.86294,5.87819 -0.83848,1.64524 -1.24219,3.47839 -1.70223,5.25756 -1.5753,6.09247 -7.734,4.49688 -6.15363,-1.59422 0.57345,-2.20975 1.11617,-4.46714 2.17041,-6.50606 1.084,-2.0961 2.55618,-3.00906 3.82251,-3.03547 z m 55.14082,13.20023 c 0.43511,-0.004 0.94241,0.31063 1.31982,1.05471 0.52853,1.04205 0.86813,2.16522 1.21543,3.2768 0.35037,1.14644 0.59265,2.32115 0.83974,3.49281 0.3053,1.44769 -0.56484,2.13616 -1.31723,1.79576 0.006,0.0276 0.0144,0.0556 0.0202,0.0832 0.0671,0.36367 0.13444,0.72774 0.20154,1.09141 1.14117,6.18831 -5.1218,7.33795 -6.25233,1.14773 -0.0575,-0.31503 -0.1151,-0.63013 -0.1726,-0.94516 -0.26304,-1.27455 -0.57395,-2.5369 -0.94413,-3.78168 -1.17697,-3.9584 -0.64224,-6.71036 1.02526,-6.78719 0.87345,-0.0402 2.0576,0.65374 3.46955,2.29237 0.18927,0.21962 0.3152,0.47403 0.47594,0.70952 -0.15444,-0.43641 -0.32415,-0.86696 -0.52606,-1.28416 -0.60574,-1.25166 -0.0803,-2.14018 0.64492,-2.14612 z" /></clipPath><clipPath
       clipPathUnits="userSpaceOnUse"
       id="clipPath626"><path
         id="path627"
         style="fill:#ff0000;fill-opacity:1;fill-rule:nonzero;stroke:none;stroke-width:0.264583"
         d="m 330.7259,-459.30497 v 230.70168 h 206.08147 v -230.70168 z m 169.9519,10.68721 c 1.12366,0 2.257,1.1125 2.27635,3.33726 0.0127,1.4494 -0.003,2.89747 -0.0532,4.34599 -0.003,0.0586 -0.003,0.0361 -0.004,0.0858 0.33869,0.54809 0.5561,1.31078 0.55655,2.28875 0,1.31472 0.008,2.62953 -0.0222,3.94395 -0.008,0.99568 -0.0866,1.98675 -0.17621,2.97759 -0.40061,4.43163 -4.89138,4.01894 -4.47622,-0.41134 0.0834,-0.8891 0.15166,-1.77898 0.15864,-2.67271 0.0183,-0.75127 0.0214,-1.50273 0.0217,-2.25412 -0.40489,-0.57293 -0.65852,-1.41909 -0.61341,-2.54042 0.0414,-1.02913 0.0206,-0.5038 0.0625,-1.57561 0.0498,-1.39582 0.0628,-2.79117 0.0506,-4.18786 -0.019,-2.22476 1.09479,-3.33726 2.21848,-3.33726 z m -135.66562,5.28908 c 1.11427,2.9e-4 2.26147,1.11253 2.34663,3.33571 0.0233,0.6089 0.0955,1.21206 0.19069,1.8123 0.49482,0.54874 0.82991,1.44213 0.80821,2.68252 -0.0224,1.28101 0.033,2.5604 0.0827,3.84008 0.0297,0.75609 0.0559,1.51232 0.0811,2.26859 0.14824,4.44722 -4.34459,4.59655 -4.49275,0.14935 -0.025,-0.74803 -0.0503,-1.49592 -0.0796,-2.2438 -0.0302,-0.77769 -0.0601,-1.55532 -0.077,-2.33319 -0.028,-0.10273 -0.0765,-0.16963 -0.10025,-0.27905 -0.2024,-0.93128 -0.0992,-0.45052 -0.30903,-1.44229 -0.281,-1.4723 -0.56693,-2.95079 -0.59893,-4.45451 -0.0473,-2.22431 1.03393,-3.33599 2.14819,-3.33571 z" /></clipPath><clipPath
       clipPathUnits="userSpaceOnUse"
       id="clipPath633"><path
         id="path634"
         style="fill:#ff0000;fill-opacity:1;fill-rule:nonzero;stroke:none;stroke-width:0.264583"
         d="m 349.43329,-440.11884 v 239.07688 h 215.83953 v -239.07688 z m 210.52461,75.044 c 2.66571,-0.0636 3.95127,2.51922 2.03554,4.92424 2.62938,1.06607 2.55176,4.67993 -1.85312,6.09576 -2.42014,0.77787 -4.8378,1.56719 -7.29206,2.23294 -3.00893,0.8553 -6.0207,1.69756 -8.95139,2.79827 -5.89104,2.21253 -7.90386,-3.82459 -2.01022,-6.03012 1.46755,-0.54918 2.95575,-1.03376 4.45245,-1.49138 0.40227,-0.68183 1.0623,-1.37373 2.0314,-2.0128 2.31924,-1.52941 4.69354,-2.97599 7.02282,-4.4912 0.47757,-0.30906 0.9549,-0.618 1.43247,-0.92707 1.15566,-0.7479 2.22383,-1.07696 3.13211,-1.09864 z" /></clipPath><clipPath
       clipPathUnits="userSpaceOnUse"
       id="clipPath695"><path
         id="path696"
         style="fill:#ff0000;fill-opacity:1;fill-rule:nonzero;stroke:none;stroke-width:0.264583"
         d="m 305.52262,-417.83001 v 221.46554 H 511.5085 v -221.46554 z m 5.64772,169.94001 h 5e-4 c 0.0265,-0.003 0.0505,10e-4 0.0724,0.004 0.75273,0.18977 -1.27537,5.22094 2.11202,3.95738 0.0102,-0.003 0.0344,-0.0217 0.031,-0.0114 -0.0281,0.0866 -0.0945,0.1565 -0.13126,0.23977 -0.0626,0.14188 -0.0978,0.29868 -0.13384,0.44855 -6.1e-4,0.38167 -0.0543,0.76682 -0.005,1.14723 0.0329,0.50434 0.18965,0.97942 0.34778,1.45468 0.23182,0.62456 0.50069,1.2318 0.70745,1.86553 0.0102,0.0408 0.0199,0.0816 0.03,0.12246 0.56029,-0.003 1.22397,0.15454 1.97042,0.52504 2.76981,1.37479 5.47128,2.88832 8.22276,4.30258 3.64426,1.91282 7.39591,3.60232 11.17296,5.23224 2.52506,1.08965 2.76585,3.03856 1.64227,3.97546 1.91619,0.51979 1.89528,0.51542 5.56556,1.45677 0.68231,0.17499 1.17387,0.45009 1.58801,0.75498 0.34348,-0.37183 0.87899,-0.65641 1.56528,-0.81544 -0.16256,-1.10648 0.80524,-2.27824 3.04788,-2.42311 0.37318,-0.0241 0.74651,-0.0376 1.11983,-0.0413 0.53865,-0.006 1.07599,0.0691 1.61437,0.0977 -0.65467,-1.30897 0.39283,-3.03488 3.14658,-3.0484 3.2606,-0.016 6.51247,0.28727 9.75186,0.62787 4.42526,0.46528 3.95431,4.93731 -0.47078,4.47001 -1.30454,-0.13776 -2.6115,-0.26753 -3.92017,-0.37258 0.15984,0.153 0.29254,0.3156 0.39532,0.48472 0.11644,0.068 0.26407,0.11463 0.36122,0.19431 1.8821,-0.0167 3.76409,-0.0412 5.6441,-0.12507 0.13892,-0.006 0.27398,-0.008 0.40515,-0.005 4.06611,0.0793 4.396,4.23688 0.092,4.4726 -0.50436,0.0276 -1.01036,0.0129 -1.51515,0.0305 -0.35618,0.2465 -0.7911,0.46598 -1.3162,0.64028 -1.70625,0.56635 -3.4185,1.1194 -5.08858,1.78748 -0.60074,0.24033 -1.14874,0.35494 -1.63711,0.37568 -0.03,0.007 -0.0463,0.0237 -0.077,0.0305 -0.48084,0.82361 -1.67806,1.37684 -3.48196,1.03715 -0.3797,-0.0715 -0.76028,-0.14296 -1.13998,-0.21446 -1.00058,-0.19969 -1.99724,-0.41632 -2.9962,-0.62425 -0.51241,-0.004 -1.02549,-0.007 -1.53789,-0.0176 -2.93716,-0.057 -5.87732,-0.0903 -8.80825,-0.30644 -1.79799,-0.13261 -2.86534,-0.94651 -3.20652,-1.84692 -0.69923,-0.5188 -0.93944,-1.28845 -0.69246,-2.0159 -0.0494,-0.0415 -0.0964,-0.0835 -0.14211,-0.12557 -0.74797,-0.29196 -1.49586,-0.58551 -2.24638,-0.87075 2.18371,1.77694 0.63437,4.65812 -2.9409,3.43287 -0.93067,-0.31894 -1.86114,-0.6406 -2.75797,-1.048 -1.59831,-0.7107 -3.15752,-1.49892 -4.65812,-2.39985 -1.0506,-0.63846 -2.11438,-1.25648 -3.12539,-1.95802 -0.78786,-0.54877 -1.55514,-1.12901 -2.28616,-1.75183 -0.61024,-0.54693 -1.16337,-1.14672 -1.67794,-1.78387 -0.64108,-0.70216 -1.20994,-1.46167 -1.70429,-2.2748 -0.42419,-0.67839 -0.85169,-1.35498 -1.29501,-2.02107 -0.51203,-0.76472 -1.05378,-1.51205 -1.50482,-2.3151 -0.43942,-0.81027 -0.80379,-1.65295 -0.98185,-2.56264 -0.14887,-0.57516 -0.29307,-1.15101 -0.41238,-1.73322 -0.17458,-0.61688 -0.50061,-1.18374 -0.68574,-1.79834 -0.27391,-0.82596 -0.50416,-1.6657 -0.56483,-2.53835 -0.0544,-0.8988 -0.0395,-1.80746 0.15813,-2.69027 0.28457,-0.97114 0.68306,-1.89657 1.38493,-2.64532 0.49847,-0.53179 0.80686,-0.76275 0.99271,-0.78342 z m 148.08915,26.60768 c 0.99381,-0.0309 2.11658,0.78732 2.651,2.65927 0.0922,0.32275 0.15948,0.65136 0.22738,0.97979 0.9014,4.35742 -3.52521,5.26342 -4.40335,0.90123 -0.0436,-0.2165 -0.087,-0.43356 -0.14625,-0.64647 -0.67154,-2.41119 0.39347,-3.85412 1.67122,-3.89382 z m -81.08859,2.00195 c 1.06438,-0.002 2.24632,0.96498 2.6293,3.01532 0.1696,0.90804 0.25615,1.82873 0.33589,2.74815 0.006,0.0562 0.008,0.11264 0.0129,0.16898 0.16883,0.0245 0.33698,0.0684 0.50591,0.092 0.39928,0.0557 0.79836,0.11084 1.19786,0.16484 1.53718,0.20783 3.06606,0.43231 4.59559,0.69144 2.03448,0.38318 1.04242,0.18276 2.97708,0.59841 4.3504,0.93468 3.40322,5.33335 -0.9462,4.39405 -1.79448,-0.38755 -0.86739,-0.19937 -2.78329,-0.56121 -1.48319,-0.2524 -2.96583,-0.4678 -4.45658,-0.66973 -0.23272,-0.0315 -2.11872,-0.28398 -2.40192,-0.35708 -0.46487,-0.11995 -0.90915,-0.30861 -1.36374,-0.46302 -0.59777,-0.44895 -0.93903,-0.61337 -1.32085,-1.31258 -0.41526,-0.76045 -0.4488,-1.53053 -0.49506,-2.35903 -0.0742,-0.86284 -0.15987,-1.72533 -0.31781,-2.57762 -0.43071,-2.32434 0.6246,-3.5708 1.8309,-3.57291 z m 78.20866,4.41833 c 2.76712,-0.041 3.42497,3.15512 -0.0584,4.5558 -0.81757,0.32875 -1.64616,0.62736 -2.47169,0.93534 -1.3106,0.45598 -2.61247,0.94192 -3.93929,1.34824 -1.55004,0.45058 -3.10902,0.85853 -4.68757,1.19786 -2.18907,0.56313 -4.37653,1.14322 -6.53552,1.81229 -1.57254,0.52249 -3.13785,1.1809 -4.80022,1.33894 -4.42973,0.42112 3.08561,-1.28878 0,-4.49482 -0.007,-0.007 -0.0281,-0.0177 -0.0191,-0.0207 0.26569,-0.0942 0.54704,-0.1358 0.81649,-0.21859 0.86781,-0.2666 1.7234,-0.58384 2.58485,-0.87023 2.25636,-0.70406 4.5442,-1.31026 6.83318,-1.89963 1.5327,-0.33097 3.04707,-0.72281 4.55217,-1.16118 1.2511,-0.38849 2.48064,-0.84682 3.71812,-1.27744 0.75544,-0.28594 1.51699,-0.55391 2.2655,-0.85782 0.64418,-0.26157 1.22906,-0.38048 1.74149,-0.3881 z" /></clipPath><clipPath
       clipPathUnits="userSpaceOnUse"
       id="clipPath703"><path
         id="path704"
         style="fill:#ff0000;fill-opacity:1;fill-rule:nonzero;stroke:none;stroke-width:0.264583"
         d="m 346.446,-432.0091 v 203.36123 H 525.56375 V -432.0091 Z m 141.68024,57.17997 c 1.52354,-0.0147 3.00587,0.38099 4.40903,0.97255 5.79858,2.44462 3.08368,8.60594 -2.5585,5.81929 -0.51757,-0.25563 -1.04422,-0.36199 -1.60662,-0.46716 -6.18558,-1.15675 -7.16724,-5.73524 -0.89917,-6.29264 0.21923,-0.0195 0.43761,-0.0299 0.65526,-0.032 z m -126.21038,20.92896 c 2.2813,0.0702 3.65345,2.83295 1.21388,6.165 -0.60575,0.82732 -1.25562,1.62609 -1.76734,2.51767 -3.13246,5.45777 -8.57428,2.19283 -5.45083,-3.27008 0.6065,-1.06076 1.36883,-2.01753 2.08825,-3.00137 1.27683,-1.74612 2.72106,-2.44798 3.91604,-2.41122 z" /></clipPath><clipPath
       clipPathUnits="userSpaceOnUse"
       id="clipPath754"><path
         id="path755"
         style="fill:#ff0000;fill-opacity:1;fill-rule:nonzero;stroke:none;stroke-width:0.264583"
         d="m 427.57476,-519.28859 v 255.08779 h 193.7861 v -255.08779 z m 65.92517,53.4479 c 0.0521,-0.002 0.10422,-0.001 0.15658,5.3e-4 1.4784,0.0516 3.06078,1.4805 3.50832,4.39611 0.24443,1.59244 0.76914,3.12569 1.23765,4.66225 1.83533,6.01911 -4.24573,7.87302 -6.08025,1.85363 -0.59483,-1.95179 -1.24555,-3.90582 -1.48777,-5.94072 -0.3828,-3.21588 1.05225,-4.92152 2.66547,-4.97179 z m 52.98902,2.96571 c 0.81755,0.0136 1.77142,0.24947 2.82515,0.78031 1.9861,1.00061 3.61615,2.54762 5.19555,4.08348 4.51119,4.38719 0.0527,8.95472 -4.44004,4.54856 -1.10303,-1.08167 -2.22323,-2.21292 -3.59823,-2.94659 -4.51095,-2.40684 -3.52549,-6.52472 0.0176,-6.46576 z m 16.27859,10.55595 v 5.3e-4 c 0.95471,0.0287 2.04715,0.50321 3.0701,1.52756 1.13516,10e-4 2.50585,0.6012 3.82871,2.04432 0.58223,0.63519 1.17844,1.25525 1.75028,1.90066 1.83105,2.06663 1.92395,4.03 1.11517,5.19451 0.36697,0.13053 0.75007,0.29996 1.14774,0.51418 1.0878,0.586 2.13339,1.23288 3.13107,1.96112 5.0828,3.7101 1.22698,8.91576 -3.78323,5.10822 -0.69104,-0.52516 -1.4392,-0.9513 -2.19056,-1.3839 -1.8235,-1.04988 -2.72758,-2.36677 -2.91817,-3.54345 -1.28237,0.0951 -2.81492,-0.72537 -3.961,-2.90318 -0.40409,-0.76788 -0.18931,-0.3733 -0.64751,-1.18288 -0.67445,-1.15144 -1.30438,-2.32875 -2.0562,-3.43286 -2.21364,-3.2509 -0.90244,-5.69174 1.26607,-5.80171 0.0813,-0.004 0.16394,-0.005 0.24753,-0.003 z m -102.00979,46.0375 c 0.0734,-0.002 0.14557,-0.002 0.21704,0 2.51565,0.0823 3.81113,3.06592 0.82579,6.19703 -2.1029,2.20552 -4.2387,4.38108 -6.36654,6.56291 -0.39589,0.39486 -0.79164,0.78956 -1.18752,1.18442 -1.90455,1.89964 -3.7712,2.10675 -4.98678,1.44023 0.4941,0.89921 0.71738,2.17344 0.44235,3.7884 -0.39833,2.33905 -0.97365,4.63592 -1.5968,6.9236 -0.43334,1.49224 -0.91369,2.96934 -1.40973,4.44159 -0.49566,1.47111 -1.23797,2.44673 -2.04174,3.0055 0.0931,0.32834 0.16998,0.68164 0.22583,1.06299 0.18991,1.29681 0.57001,2.55406 0.92914,3.81114 1.72854,6.05074 -4.38408,7.79646 -6.11229,1.74563 -0.43842,-1.53494 -0.88539,-3.07318 -1.10949,-4.6576 -0.36513,-2.58148 0.49635,-4.24681 1.69498,-4.86947 0.0139,-0.63963 0.12529,-1.34545 0.39068,-2.13062 0.45728,-1.35286 0.89768,-2.71101 1.30018,-4.08141 0.58604,-2.14694 1.12611,-4.30142 1.49603,-6.49779 0.45725,-2.71487 1.90953,-4.00298 3.31039,-4.07365 0.48907,-0.0247 0.97002,0.10424 1.40198,0.36742 -0.52043,-1.22033 -0.21775,-2.98857 1.57717,-4.77749 0.37502,-0.37377 0.75,-0.74761 1.12499,-1.12138 2.06861,-2.12108 4.14253,-4.23766 6.19187,-6.37687 1.2754,-1.33125 2.58196,-1.90847 3.68247,-1.94458 z m 121.15384,0.81183 c 1.49138,-0.0838 3.10232,1.21555 3.53364,4.1336 0.19312,1.30667 0.77693,2.50215 1.51877,3.58066 3.56621,5.18469 -1.88967,8.78821 -5.30459,3.50263 -1.17528,-1.81915 -2.13693,-3.78254 -2.46858,-5.94641 -0.50652,-3.30444 1.03052,-5.17557 2.72076,-5.27048 z m 12.5274,22.24981 c 1.49784,0.0489 3.05726,1.48051 3.37396,4.41316 0.21487,1.98982 0.40512,3.98275 0.58239,5.97638 0.10197,1.2003 0.1701,2.40287 0.2372,3.60547 0.0337,0.60344 -0.0423,1.10237 -0.12093,1.59577 0.44326,0.77237 0.71695,1.84018 0.6966,3.20549 -0.0285,1.91619 -0.54597,3.77188 -1.06815,5.60069 -0.45027,1.57685 -1.20282,2.59801 -2.03398,3.17603 -0.006,0.0159 -0.0115,0.0315 -0.0176,0.0475 -0.43215,1.09245 -1.05168,2.09551 -1.63143,3.11299 -0.0347,0.0609 -0.0769,0.089 -0.11214,0.1478 0.0563,1.17099 -0.55165,2.61081 -2.1146,3.9765 -0.31802,0.27787 -0.6559,0.53015 -0.97772,0.80357 -4.79546,4.07461 -8.92114,-0.83847 -4.0876,-4.86792 0.31612,-0.26356 0.63868,-0.51693 0.9524,-0.7829 0.097,-0.73988 0.30938,-1.53416 0.81648,-2.42414 0.41307,-0.72493 0.85794,-1.43728 1.20251,-2.19832 0.52601,-1.16176 1.17839,-2.00091 1.86501,-2.5523 0.0185,-0.0705 0.009,-0.12365 0.0294,-0.19533 0.36433,-1.25638 0.75492,-2.52928 0.82062,-3.84421 0.0303,-0.60749 0.11619,-1.15469 0.24443,-1.64487 -0.41595,-0.72075 -0.74358,-1.60284 -0.81028,-2.80292 -0.063,-1.13295 -0.1268,-2.26588 -0.22221,-3.3967 -0.17645,-1.9893 -0.36625,-3.978 -0.58085,-5.96346 -0.35925,-3.32367 1.25893,-5.04378 2.95641,-4.98832 z" /></clipPath><clipPath
       clipPathUnits="userSpaceOnUse"
       id="clipPath769"><path
         id="path770"
         style="fill:#ff0000;fill-opacity:1;fill-rule:nonzero;stroke:none;stroke-width:0.264583"
         d="m 423.29957,-511.52937 v 255.67121 h 262.52144 v -255.67121 z m 198.87675,17.68367 c 1.01637,-0.047 2.23986,0.28429 3.54914,1.15652 1.06072,0.70668 1.93216,1.62753 2.72851,2.61173 3.9583,4.89195 -1.22552,8.98512 -4.98781,3.94084 -0.43096,-0.57781 -0.94642,-1.07516 -1.55494,-1.46709 -3.96782,-2.55562 -2.78401,-6.101 0.2651,-6.242 z m 1.8805,11.92175 c 1.53545,-0.0693 7.24921,5.70198 6.22546,0.89349 -0.0448,-0.21053 -0.0901,-0.42096 -0.13487,-0.63149 -0.009,-0.0498 -0.074,-0.16462 -0.0258,-0.14934 0.10274,0.0325 0.15586,0.14878 0.23926,0.21704 0.0967,0.0791 0.19808,0.15234 0.30024,0.22428 0.31885,0.22454 0.47818,0.3136 0.82062,0.52296 0.64295,0.40151 1.2564,0.84709 1.86759,1.2945 5.07773,3.71696 1.30393,8.8567 -3.76204,5.12371 -0.48014,-0.35379 -0.96168,-0.70569 -1.4671,-1.02319 -1.37377,-0.86597 -2.90079,-1.88582 -3.66489,-3.38119 -0.20921,-0.40942 -0.31086,-0.86534 -0.46612,-1.29811 -0.46485,-1.29569 -0.36225,-1.77324 0.0677,-1.79266 z m -60.10744,30.36404 c 1.30627,-10e-4 2.55006,0.41678 3.71347,1.03973 2.50703,1.34241 0.86764,2.91312 -1.12861,4.08864 1.7443,2.33172 -0.30815,5.44208 -4.82762,4.2199 -0.59799,-0.16172 -1.21233,-0.30002 -1.80867,-0.44338 -5.92728,-1.42494 -6.26672,-6.38462 -0.56999,-6.37326 0.18376,2.7e-4 0.37365,0.006 0.56999,0.0165 0.18943,0.0106 0.37342,0.0564 0.56121,0.078 0.16531,-1.25569 0.89376,-2.29678 2.57607,-2.55592 0.30788,-0.0474 0.6127,-0.07 0.91415,-0.0703 z" /></clipPath></defs><g
     id="layer1"
     transform="translate(-369.5794,477.59929)"><path
       style="fill:#000000"
       d="m 461.39543,-288.59859 c -0.0715,-0.0715 -0.68449,-0.15105 -1.36211,-0.17668 -1.84796,-0.0699 -4.32621,-1.41092 -5.51557,-2.98457 -0.90308,-1.19486 -2.05239,-4.19056 -2.49441,-6.50174 -0.26296,-1.37489 -0.59213,-1.85208 -1.27759,-1.85208 -0.54136,0 -0.63849,0.16692 -0.80834,1.38906 -0.10618,0.76399 -0.18363,1.65696 -0.17211,1.98438 0.0115,0.32742 -0.0968,0.59531 -0.24068,0.59531 -0.14389,0 -0.24059,0.0893 -0.21488,0.19844 0.0257,0.10914 -0.10315,0.7238 -0.28636,1.3659 -0.52489,1.8397 -2.63684,3.70027 -4.68567,4.12796 -1.51803,0.31689 -6.08367,0.37911 -7.11742,0.097 -4.57647,-1.24893 -6.59016,-3.87466 -7.58495,-9.89034 -0.14438,-0.87313 -0.34137,-1.66479 -0.43774,-1.75925 -0.0964,-0.0945 -1.42538,-0.24038 -2.95335,-0.32425 -3.19071,-0.17513 -4.25989,-0.31559 -5.55625,-0.72991 -2.96122,-0.94643 -5.32048,-2.44875 -7.99513,-5.09111 -1.87349,-1.85088 -2.1355,-2.02014 -3.175,-2.05112 -0.62315,-0.0186 -1.37112,-0.0648 -1.66216,-0.10279 -0.29104,-0.038 -1.04229,-0.13243 -1.66943,-0.20992 -1.16622,-0.14411 -3.57162,-0.85725 -4.28369,-1.27001 -0.21829,-0.12653 -0.87313,-0.48424 -1.45521,-0.7949 -2.51245,-1.34092 -5.48792,-4.55732 -6.88266,-7.43995 -0.56589,-1.16958 -1.09809,-2.78161 -1.63621,-4.95607 -0.20511,-0.82882 -0.38437,-0.97101 -1.86847,-1.48206 -0.90288,-0.3109 -1.70329,-0.50359 -1.77869,-0.42818 -0.0754,0.0754 -0.1371,-0.009 -0.1371,-0.18721 0,-0.17836 -0.12023,-0.24998 -0.26719,-0.15916 -0.29487,0.18224 -3.96614,-1.70763 -3.96614,-2.04166 0,-0.1149 -0.15304,-0.20891 -0.3401,-0.20891 -0.45013,0 -3.62865,-3.38128 -3.62865,-3.86012 0,-0.20527 -0.0908,-0.37321 -0.20184,-0.37321 -0.21763,0 -0.34229,-0.21389 -1.45181,-2.49109 -0.40018,-0.82134 -0.7276,-1.67528 -0.7276,-1.89764 0,-0.22237 -0.25096,-1.61537 -0.55768,-3.09555 -0.45155,-2.17906 -0.52677,-3.21056 -0.39527,-5.41984 l 0.16241,-2.7286 -1.87092,-1.90084 c -1.66566,-1.69229 -3.62166,-4.41478 -3.80494,-5.29599 -0.0368,-0.17682 -0.21273,-0.67868 -0.391,-1.11524 -1.42499,-3.48969 -1.51235,-11.10577 -0.16387,-14.2875 1.9414,-4.58073 1.92345,-4.44952 0.91395,-6.67904 -0.27961,-0.61754 -0.48618,-1.21285 -0.45904,-1.32292 0.0271,-0.11007 -0.085,-0.85497 -0.24922,-1.65533 -0.65681,-3.20127 0.079,-7.79559 1.79054,-11.17957 0.92927,-1.83733 1.39248,-2.55494 2.60389,-4.03397 0.11919,-0.14552 0.78383,-0.78373 1.47697,-1.41825 1.11832,-1.02372 1.24307,-1.24722 1.10765,-1.98437 -0.8005,-4.35747 -0.73238,-6.89519 0.27373,-10.19826 0.248,-0.8142 0.46233,-1.5399 0.47628,-1.61266 0.0934,-0.48713 1.57113,-3.175 1.74557,-3.175 0.11864,0 0.29042,-0.23542 0.38175,-0.52315 0.18188,-0.57307 2.7031,-3.08031 3.72598,-3.70532 0.35285,-0.21561 0.64155,-0.48002 0.64155,-0.58758 0,-0.10756 -0.36542,-0.714 -0.81205,-1.34764 -1.59535,-2.26334 -0.9041,-5.39183 1.82909,-8.2781 1.51822,-1.60326 3.12666,-3.02071 3.42771,-3.02071 0.12403,0 0.50626,-0.29884 0.84939,-0.66409 l 0.62387,-0.66408 -0.57147,-2.0479 c -0.31431,-1.12634 -0.69805,-2.76227 -0.85276,-3.63539 -0.15471,-0.87313 -0.45398,-2.5593 -0.66504,-3.74705 -0.65204,-3.66937 -0.7864,-5.81651 -0.77549,-12.39253 0.009,-5.15087 0.10263,-6.7747 0.49821,-8.59896 0.26821,-1.23693 0.50951,-2.42755 0.5362,-2.64583 0.13269,-1.085 1.41106,-4.90634 2.0395,-6.09656 0.78168,-1.48044 2.20756,-2.95821 3.49523,-3.62242 3.89826,-2.01083 11.97496,0.17023 22.41887,6.05407 0.34913,0.19669 0.69431,0.41715 0.76707,0.48991 0.0728,0.0728 0.54901,0.3592 1.05834,0.63653 0.50932,0.27734 1.80166,1.17031 2.87187,1.98438 4.88079,3.71265 5.14106,3.84527 6.32599,3.22338 0.61,-0.32015 2.55504,-0.97554 4.03027,-1.35801 0.65428,-0.16963 1.36865,-0.35687 1.5875,-0.41609 1.35792,-0.36745 6.5687,-1.42294 7.73548,-1.56689 2.29425,-0.28304 13.45308,-0.36176 15.01972,-0.10594 0.80036,0.13069 1.94551,0.29531 2.54478,0.36582 1.66046,0.19538 4.7984,0.88163 6.71564,1.46868 0.94588,0.28963 1.9321,0.5275 2.1916,0.52861 0.48961,0.002 2.10495,-0.80324 4.15839,-2.07319 1.00968,-0.62444 4.19082,-2.38416 6.61459,-3.65903 0.3638,-0.19135 0.81028,-0.34864 0.99219,-0.34954 0.1819,-9e-4 0.33072,-0.12069 0.33072,-0.26621 0,-0.14552 0.12954,-0.26459 0.28787,-0.26459 0.15833,0 1.25966,-0.4305 2.4474,-0.95667 4.9725,-2.20282 12.21464,-4.25564 15.93399,-4.51658 2.40848,-0.16897 4.62048,0.31669 5.60036,1.22958 0.3185,0.29673 0.69658,0.53951 0.84017,0.53951 0.36815,0 2.42544,2.93092 2.25307,3.20982 -0.0781,0.12637 -0.0245,0.22976 0.11918,0.22976 0.59576,0 2.21668,5.46188 2.57254,8.66847 0.0688,0.62031 0.23243,1.69188 0.36353,2.38125 0.30139,1.58482 0.0819,13.02338 -0.2563,13.35809 -0.0879,0.087 -0.2255,0.87725 -0.37994,2.18281 -0.0689,0.58209 -0.19491,1.56015 -0.28009,2.17349 l -0.15489,1.11515 1.66458,0.8372 c 0.91551,0.46046 1.72411,0.91688 1.79687,1.01427 0.0728,0.0974 0.54901,0.45923 1.05833,0.80412 0.84117,0.56959 3.89304,3.55032 4.69273,4.58334 0.93213,1.20411 3.06194,6.46938 2.94439,7.27907 -0.0148,0.10176 -0.004,0.24456 0.0247,0.31732 0.0952,0.24413 0.20255,0.91605 0.39085,2.44576 l 0.18707,1.51972 1.58284,0.92768 c 0.87056,0.51022 1.64746,0.92767 1.72644,0.92767 0.47534,0 3.67472,3.21441 4.6855,4.70752 3.94483,5.82719 5.11623,12.07455 3.60707,19.23727 l -0.27873,1.32292 1.00033,0.87573 c 2.15641,1.88779 4.14539,3.93541 4.8035,4.9451 0.37939,0.58209 0.75606,1.11787 0.83704,1.19063 0.2442,0.21941 1.57751,3.07429 1.57751,3.37776 0,0.15527 0.11658,0.32199 0.25907,0.3705 0.1425,0.0485 0.50513,1.0407 0.80585,2.20486 0.64204,2.48548 0.77612,6.83128 0.28571,9.26042 -0.35771,1.77185 -1.82564,5.42396 -2.18011,5.42396 -0.12587,0 -0.20995,0.0893 -0.18685,0.19843 0.0231,0.10915 -0.0446,0.39501 -0.15055,0.63526 -0.1059,0.24025 -0.0519,1.13322 0.1201,1.98438 0.81394,4.02887 0.8626,8.5827 0.11525,10.78398 -0.22098,0.65089 -0.38022,1.27974 -0.35386,1.39746 0.0264,0.11771 -0.0904,0.5492 -0.25939,0.95886 -0.16902,0.40965 -0.30731,0.84976 -0.30731,0.97801 0,0.77881 -2.84349,4.9453 -4.58743,6.72182 l -1.01732,1.03632 0.4083,2.27097 c 0.58102,3.23163 0.66628,4.43632 0.44162,6.23971 -0.10878,0.87313 -0.15506,1.63705 -0.10286,1.69761 0.0522,0.0605 0.85272,-0.40379 1.77892,-1.03187 1.53282,-1.03945 3.34336,-3.18237 3.34336,-3.95714 0,-0.15426 0.09,-0.28047 0.19999,-0.28047 0.23769,0 0.66056,-1.00475 1.11357,-2.64583 1.29108,-4.67713 2.1856,-5.70761 4.69636,-5.41019 1.40666,0.16663 2.18795,0.59272 3.32199,1.81169 0.76694,0.82439 2.72702,4.39225 2.41298,4.39225 -0.0924,0 -0.0483,0.14882 0.0981,0.33072 0.3224,0.40075 0.85705,2.83882 0.85705,3.90828 0,0.67022 0.16762,0.8456 1.25677,1.31493 1.68773,0.72728 2.31988,1.74671 2.84845,4.59351 0.45994,2.47721 0.33569,4.82938 -0.39841,7.5423 -0.19367,0.71571 -0.14152,1.02471 0.26792,1.5875 0.27962,0.38434 0.52232,1.11552 0.53934,1.62484 0.0441,1.32004 -0.48892,4.08224 -0.80827,4.18869 -0.14823,0.0494 -0.21003,0.18608 -0.13733,0.30371 0.17094,0.27659 -0.58961,2.11818 -1.12229,2.71749 -0.22634,0.25466 -0.32296,0.46302 -0.21471,0.46302 0.10825,0 -0.11142,0.36633 -0.48816,0.81405 -0.37674,0.44773 -0.68498,0.93492 -0.68498,1.08264 0,0.43033 -1.02183,1.65631 -3.5976,4.31632 -1.90796,1.97038 -2.80603,2.67992 -4.33185,3.42249 -1.05869,0.51523 -2.07434,1.06082 -2.25701,1.21242 -0.66216,0.54955 -4.06826,2.08684 -5.06452,2.28579 -1.31733,0.26308 -1.40498,0.28359 -1.48391,0.34721 -0.0364,0.0293 -0.30428,0.10025 -0.59532,0.15761 -3.74047,0.73719 -11.90273,0.66131 -13.98404,-0.13 -0.38518,-0.14644 -0.70033,-0.22059 -0.70033,-0.16477 0,0.23453 -4.90994,-1.48354 -6.18339,-2.16368 -0.45544,-0.24325 -0.8876,-0.45036 -0.96036,-0.46024 -0.0728,-0.01 -0.42995,-0.21083 -0.79375,-0.44656 -0.3638,-0.23573 -0.92935,-0.50855 -1.25677,-0.60626 -0.32742,-0.0977 -0.59531,-0.28871 -0.59531,-0.42443 0,-0.13571 -0.1201,-0.24675 -0.26688,-0.24675 -0.25803,0 -1.47725,-0.98399 -2.3572,-1.90239 -0.39207,-0.40921 -0.50018,-0.41244 -1.27307,-0.0381 -0.83546,0.40463 -0.8429,0.42527 -0.68566,1.90239 0.20221,1.89949 0.19354,3.33021 -0.0283,4.66833 -0.0965,0.58208 -0.22306,1.3791 -0.28128,1.77115 -0.0582,0.39204 -0.29399,1.07665 -0.52396,1.52135 -0.22996,0.44469 -0.34812,0.80854 -0.26258,0.80854 0.40152,0 -1.66491,2.44998 -2.5023,2.96675 -2.2471,1.38672 -3.22599,1.62752 -6.63547,1.63229 -2.86938,0.004 -4.21728,-0.12569 -4.40135,-0.42352 -0.0703,-0.11373 -0.36602,-0.20677 -0.65719,-0.20677 -0.29116,0 -1.17511,-0.61071 -1.96433,-1.35712 -1.4157,-1.33891 -2.58639,-3.37804 -3.85383,-6.71267 -0.78627,-2.06869 -0.74566,-2.0396 -2.23618,-1.60152 -2.73341,0.8034 -5.49843,1.19276 -8.51681,1.19932 -2.3553,0.005 -2.44799,0.0277 -2.46333,0.60063 -0.0996,3.71905 -1.48757,6.977 -3.54256,8.3153 -0.91245,0.59423 -2.79719,1.32713 -3.98213,1.5485 -1.24167,0.23197 -3.99526,0.40639 -4.13944,0.26221 z m 5.19799,-4.20509 c 1.69291,-0.77504 2.36033,-1.78555 2.91226,-4.40933 0.46661,-2.21818 0.39429,-2.63567 -0.45677,-2.63703 -1.43405,-0.002 -7.53252,-2.7796 -8.40082,-3.82585 -0.49041,-0.5909 -0.97438,-0.5044 -2.07404,0.37073 -0.53717,0.42749 -1.60561,1.09053 -2.37431,1.47344 -1.38392,0.68935 -1.39588,0.70574 -1.21938,1.67014 0.20462,1.11803 1.19088,4.21297 1.80529,5.66512 0.22969,0.54285 0.72245,1.18673 1.09503,1.43086 1.93802,1.26983 6.22937,1.39884 8.71274,0.26192 z m 33.46958,-1.12752 c 0.80036,-0.2236 1.72553,-0.62586 2.05593,-0.89391 1.10755,-0.89852 1.84721,-3.56396 1.99989,-7.20678 l 0.0859,-2.05052 -2.40161,-0.0202 c -1.32089,-0.0111 -2.62436,-0.0623 -2.89661,-0.11358 -1.98342,-0.37396 -3.36802,-0.81007 -4.34391,-1.3682 l -1.13474,-0.64898 -1.51109,1.38507 c -0.8311,0.7618 -1.90475,1.61868 -2.38589,1.90418 -0.48114,0.28551 -0.82163,0.65222 -0.75664,0.81491 0.065,0.16269 0.3209,0.83158 0.56868,1.48642 0.8426,2.22684 0.96735,2.51329 1.83929,4.22318 0.99403,1.94935 1.92711,2.59561 4.19186,2.90333 1.65364,0.22469 2.74543,0.12809 4.6889,-0.41488 z m -56.1062,-0.11602 c 1.37764,-0.59264 1.87375,-1.35904 2.38549,-3.68519 0.46168,-2.09855 0.39406,-2.33681 -0.71731,-2.52758 -2.96174,-0.50839 -6.22169,-1.845 -8.2877,-3.39805 l -1.58444,-1.19104 -0.95476,0.64792 c -0.52511,0.35635 -1.10823,0.64792 -1.29581,0.64792 -0.18758,0 -0.51442,0.17336 -0.7263,0.38524 -0.33727,0.33727 -0.29613,0.72441 0.3304,3.10886 0.81786,3.11265 1.3718,4.39708 2.25358,5.22547 1.42361,1.33742 6.28278,1.78194 8.59685,0.78645 z m 92.74525,-8.43806 c 5.63614,-1.53198 10.37267,-4.5569 13.25738,-8.46665 1.28137,-1.73669 3.28481,-5.64443 3.28481,-6.40706 0,-0.49083 -0.0674,-0.47183 -0.77268,0.21787 -2.27427,2.22396 -2.34363,2.26003 -2.83452,1.47398 -0.23988,-0.38411 -0.036,-0.99563 1.09246,-3.277 0.76305,-1.54262 1.64718,-3.56254 1.96471,-4.48871 1.06161,-3.09641 0.98466,-8.43081 -0.12162,-8.43081 -0.21267,0 -0.38668,0.23942 -0.38668,0.53205 0,0.88313 -1.06175,2.87029 -1.54203,2.88606 -1.10684,0.0363 -1.29175,0.1251 -1.17674,0.56488 0.0655,0.25036 0.003,0.52702 -0.13919,0.6148 -0.16175,0.1 -0.21574,-0.45724 -0.14449,-1.49149 0.51142,-7.42441 0.0529,-10.81197 -1.86217,-13.75807 -1.31733,-2.02653 -2.0724,-1.9658 -2.42834,0.19532 -0.0964,0.58506 -0.27314,1.18577 -0.39284,1.33492 -0.11971,0.14915 -0.26639,0.56587 -0.32597,0.92604 -0.1884,1.13902 -2.03304,4.51976 -2.98617,5.4729 -0.18254,0.18254 -0.37229,0.4242 -0.42166,0.53702 -0.14509,0.33153 -2.25764,1.92099 -2.5532,1.92099 -0.14883,0 -0.31029,0.0937 -0.3588,0.20816 -0.0976,0.23044 -2.6578,1.48947 -3.59392,1.76741 -0.32742,0.0972 -0.59531,0.34732 -0.59531,0.5558 0,0.20847 -0.11906,0.37905 -0.26459,0.37905 -0.14552,0 -0.26458,0.12481 -0.26458,0.27736 0,0.26446 -0.53503,1.41487 -1.36765,2.94069 -0.84213,1.54324 -3.52003,4.17747 -5.72034,5.62704 -2.1202,1.3968 -3.24564,1.90763 -5.61201,2.54726 -2.70756,0.73187 -3.175,0.96618 -3.175,1.59152 0,1.14664 -2.13539,4.95304 -3.72398,6.63812 -0.86223,0.9146 -1.56768,1.7951 -1.56768,1.95668 0,0.16158 0.62507,0.71831 1.38906,1.23717 2.64271,1.7948 5.67996,3.06056 9.32656,3.88681 3.38073,0.76602 3.53818,0.77964 7.9375,0.68713 3.04696,-0.0641 4.45904,-0.21673 6.07968,-0.65724 z m -56.74739,-0.65114 c 0.36381,-0.0758 1.17038,-0.21668 1.79239,-0.31304 0.62201,-0.0963 1.19459,-0.27818 1.27239,-0.40407 0.0778,-0.12588 0.38793,-0.22888 0.68918,-0.22888 0.30126,0 1.6211,-0.56555 2.933,-1.25677 1.87011,-0.98534 2.76714,-1.67105 4.15346,-3.175 0.97251,-1.05503 1.87964,-1.91823 2.01586,-1.91823 0.13621,0 0.87776,0.42433 1.64788,0.94296 3.0198,2.03365 6.42862,2.44914 11.06841,1.34907 1.41735,-0.33605 4.16839,-2.11389 5.53438,-3.57657 1.00189,-1.0728 2.98861,-4.83133 3.16705,-5.9915 0.0614,-0.39903 0.37701,-1.24491 0.73785,-1.97732 0.26968,-0.5474 0.62732,-0.70545 2.1873,-0.96665 4.11773,-0.68944 7.13518,-2.17345 9.82088,-4.83 1.3602,-1.34545 3.25081,-4.20948 3.25081,-4.92459 0,-0.2019 0.0987,-0.42809 0.21936,-0.50266 0.25262,-0.15613 0.74902,-2.23282 1.07568,-4.50009 0.22856,-1.58636 0.018,-4.45549 -0.468,-6.37577 -0.14731,-0.58209 -0.37752,-1.48891 -0.5116,-2.01516 -0.30115,-1.18207 -0.20191,-1.36402 1.91677,-3.51423 2.3047,-2.33898 4.11778,-5.12837 4.11778,-6.33509 0,-0.22408 0.10531,-0.4725 0.23401,-0.55204 0.43402,-0.26824 0.92138,-3.70384 0.92223,-6.50119 6.1e-4,-2.01634 -0.15718,-3.37237 -0.57546,-4.94528 l -0.57629,-2.16715 0.64192,-1.14014 c 1.83121,-3.25248 2.58352,-6.06615 2.56864,-9.6068 -0.0106,-2.5299 -0.049,-2.93575 -0.36307,-3.83646 -0.0761,-0.21828 -0.34504,-1.11125 -0.59765,-1.98438 -0.25261,-0.87312 -0.60118,-1.76609 -0.7746,-1.98437 -0.17342,-0.21828 -0.54754,-0.85468 -0.83137,-1.41423 -0.60909,-1.20074 -4.16289,-4.90077 -6.13846,-6.39104 -1.55898,-1.17602 -1.63146,-1.45649 -0.99143,-3.8364 0.82205,-3.0567 0.98304,-6.03614 0.49323,-9.12812 -0.20748,-1.30969 -0.41497,-2.50031 -0.4611,-2.64584 -1.47976,-4.66813 -5.31924,-9.12544 -9.23937,-10.7261 -0.84346,-0.3444 -1.67607,-0.79789 -1.85024,-1.00776 -0.17417,-0.20986 -0.39837,-1.40607 -0.49821,-2.65823 -0.17998,-2.25716 -0.34127,-3.28615 -0.57473,-3.66671 -0.0666,-0.1086 -0.19573,-0.6687 -0.2869,-1.24468 -0.0912,-0.57598 -0.2917,-1.12507 -0.44563,-1.22021 -0.15393,-0.0951 -0.25511,-0.21919 -0.22483,-0.27568 0.0303,-0.0565 -0.2207,-0.69802 -0.55772,-1.42562 -1.02604,-2.21516 -5.8619,-6.55054 -7.87057,-7.05602 -0.22819,-0.0574 -0.61095,0.68443 -1.10787,2.14721 -0.41758,1.22922 -0.71136,2.31241 -0.65284,2.40709 0.0585,0.0947 0.89017,0.63051 1.84814,1.19075 2.27517,1.33057 4.80499,3.63732 5.31598,4.84722 0.75622,1.79061 0.73621,2.93722 -0.0789,4.52131 -0.68885,1.33869 -1.47887,2.05874 -3.65405,3.33044 -0.43033,0.25158 -0.37788,0.39884 0.60418,1.69637 1.79577,2.37262 2.13592,5.01067 0.95232,7.38584 -0.70491,1.41456 -1.66448,2.21186 -3.53976,2.94118 -0.50932,0.19808 -0.95242,0.37589 -0.98467,0.39515 -0.0322,0.0192 0.23314,0.86191 0.58974,1.87256 0.35659,1.01066 0.65086,2.26628 0.65393,2.79027 0.0225,3.83887 -3.31539,6.32333 -8.49542,6.32333 h -2.05495 l -0.44543,1.5875 c -0.24499,0.87313 -0.5488,1.5875 -0.67515,1.5875 -0.12634,0 -0.22972,0.20385 -0.22972,0.45301 0,0.24915 -0.49294,0.95527 -1.09542,1.56916 l -1.09542,1.11615 1.09476,2.14208 c 0.68638,1.34299 1.15086,2.65761 1.24512,3.52406 0.0827,0.7601 0.19954,1.53404 0.25967,1.71987 0.19935,0.61607 -0.60501,3.77638 -1.30415,5.12394 -0.47757,0.92048 -0.61702,1.46217 -0.45539,1.76894 1.09982,2.08742 1.6317,5.95477 1.05304,7.65671 -0.18466,0.54315 -0.34575,1.1066 -0.35797,1.25212 -0.14313,1.70503 -3.05452,5.14643 -5.32879,6.29889 -1.37192,0.69521 -4.38777,1.37932 -5.01667,1.13799 -0.51051,-0.1959 -0.55444,-0.0574 -0.89996,2.83806 -0.42228,3.53861 -0.44456,3.69171 -0.60323,4.14485 -0.0764,0.21828 -0.28214,1.09418 -0.45714,1.94644 -0.17501,0.85227 -0.51145,1.98336 -0.74767,2.51355 -0.23621,0.53018 -0.45039,1.08303 -0.47596,1.22855 -0.23768,1.35272 -2.39366,5.63012 -3.60074,7.14375 -1.10042,1.37989 -4.93056,5.15938 -5.22852,5.15938 -0.1271,0 -0.41737,0.18628 -0.64504,0.41395 -1.1939,1.1939 -8.33291,4.28751 -10.07002,4.36373 -0.0714,0.003 -0.60936,0.17489 -1.19549,0.38169 -0.58614,0.2068 -1.09381,0.36972 -1.12817,0.36204 -0.0549,-0.0123 -0.98126,0.14752 -2.70829,0.46716 -2.22473,0.41174 -5.86841,0.94815 -7.40834,1.09063 -3.96147,0.36652 -18.16465,0.13309 -18.88211,-0.31033 -0.096,-0.0594 -0.88748,-0.18244 -1.75875,-0.27353 -1.65629,-0.17316 -2.64247,-0.33143 -2.64247,-0.42409 0,-0.0301 -0.29765,-0.0812 -0.66146,-0.11369 -0.3638,-0.0325 -0.84005,-0.1283 -1.05833,-0.21297 -0.21828,-0.0847 -0.99219,-0.28341 -1.71979,-0.44165 -0.72761,-0.15823 -1.61223,-0.35078 -1.96584,-0.42787 -0.3536,-0.0771 -0.77032,-0.21982 -0.92604,-0.31716 -0.15572,-0.0973 -0.5119,-0.21256 -0.79152,-0.25604 -0.27962,-0.0435 -0.66658,-0.21034 -0.8599,-0.37078 -0.19332,-0.16045 -0.35149,-0.20392 -0.35149,-0.0966 0,0.10731 -0.29766,9e-5 -0.66146,-0.23829 -0.3638,-0.23837 -0.66146,-0.36439 -0.66146,-0.28005 0,0.0843 -0.32742,-0.0238 -0.7276,-0.24034 -0.40019,-0.21653 -1.29315,-0.66108 -1.98438,-0.9879 -0.69122,-0.32681 -1.25677,-0.71201 -1.25677,-0.85599 0,-0.14398 -0.0762,-0.18554 -0.16942,-0.0924 -0.19752,0.19752 -1.68266,-0.62509 -1.68266,-0.93201 0,-0.11415 -0.17182,-0.20754 -0.38182,-0.20754 -0.21001,0 -1.55554,-1.16086 -2.99009,-2.57969 -2.15891,-2.13526 -2.81986,-2.99195 -3.83647,-4.97269 -0.67552,-1.31615 -1.29077,-2.68537 -1.36723,-3.0427 -0.0765,-0.35734 -0.27412,-1.18549 -0.43924,-1.84034 -0.29848,-1.18378 -0.38163,-4.70131 -0.14697,-6.21771 0.36688,-2.37083 0.51388,-2.98966 1.32831,-5.59176 0.23385,-0.74713 0.42517,-1.4219 0.42517,-1.49948 0,-0.0776 -0.80367,-0.12113 -1.78593,-0.0968 -3.16407,0.0784 -4.10319,-0.20933 -7.01936,-2.15091 -1.08384,-0.72162 -2.71659,-2.78303 -3.38976,-4.27972 -1.03161,-2.2936 -1.26156,-5.52328 -0.55679,-7.82013 0.33069,-1.07771 1.30321,-2.95972 1.63556,-3.16513 0.38831,-0.23998 0.32938,-0.95158 -0.1199,-1.44803 -0.99784,-1.1026 -1.38381,-5.43537 -0.63723,-7.15326 0.84775,-1.9507 1.29894,-2.62094 2.77039,-4.11541 1.49853,-1.52197 1.58945,-1.68233 1.28526,-2.26694 -0.18004,-0.34601 -0.47319,-1.11884 -0.65145,-1.71739 l -0.3241,-1.08828 -1.96486,-0.16609 c -5.49191,-0.46424 -7.8106,-3.82686 -6.13845,-8.90214 0.2637,-0.80037 0.48238,-1.5425 0.48595,-1.64919 0.004,-0.10669 -0.59558,-0.49908 -1.33146,-0.87198 -1.97226,-0.99942 -2.87428,-1.9881 -3.41845,-3.74688 l -0.47474,-1.53435 -0.81647,1.72807 c -1.03715,2.19513 -1.22673,3.20416 -1.21584,6.4712 0.007,2.08981 0.13987,3.01524 0.63242,4.40361 l 0.62361,1.75777 -0.59076,0.95586 c -0.32491,0.52572 -0.69141,0.89364 -0.81445,0.8176 -0.12303,-0.076 -0.55735,0.17097 -0.96516,0.54891 -0.4078,0.37794 -0.86869,0.76683 -1.02419,0.86421 -0.15551,0.0974 -0.69328,0.71282 -1.19506,1.36767 -0.50177,0.65484 -0.98273,1.25015 -1.06879,1.32292 -0.18859,0.15943 -1.81707,4.14711 -1.99893,4.89479 -0.21077,0.86653 -0.22614,5.2093 -0.0225,6.35 0.29064,1.62785 0.6234,2.81634 1.09029,3.8941 0.53303,1.23047 0.5359,1.97453 0.0115,2.98024 -0.53206,1.02039 -1.58999,3.7494 -1.84811,4.76732 -0.11069,0.43656 -0.2622,0.97235 -0.33667,1.19063 -0.0745,0.21828 -0.16326,1.80464 -0.1973,3.52524 -0.049,2.47786 0.0494,3.52317 0.47354,5.02708 1.10273,3.91041 2.39909,5.76169 6.14675,8.77788 l 0.98625,0.79375 -0.3694,1.5875 c -0.35448,1.52338 -0.42194,5.91291 -0.11822,7.69267 0.17368,1.01776 1.08076,3.72847 1.54569,4.6191 0.75343,1.44329 2.75135,3.87142 3.88319,4.71934 1.60986,1.20602 5.22647,2.74958 7.31147,3.12051 1.31945,0.23473 2.25042,0.84374 2.26988,1.48487 0.14248,4.69611 3.12942,9.88952 6.93932,12.06543 2.01981,1.15355 5.16705,1.91391 7.91542,1.91233 l 2.3049,-10e-4 1.26698,1.47658 c 2.48149,2.89201 4.45733,4.32261 7.64885,5.53811 2.64709,1.00814 6.88676,1.18665 9.51812,0.40074 1.8677,-0.55782 3.96637,-1.82113 4.24903,-2.55773 0.33802,-0.88086 1.52019,-0.39991 3.21248,1.30693 1.40157,1.41363 2.00985,1.8107 3.83646,2.50436 2.83112,1.07512 4.12933,1.34439 6.51951,1.35225 3.78667,0.0125 7.0586,-1.22283 9.56582,-3.61145 0.81352,-0.77504 1.64696,-1.40666 1.85208,-1.4036 0.20513,0.003 1.07033,0.66983 1.92268,1.48172 1.61531,1.53863 4.57607,3.15017 6.60728,3.59634 0.60688,0.13331 1.57966,0.34581 2.16175,0.47222 1.06231,0.23071 8.1541,0.14619 9.3927,-0.11194 z m -27.78124,-28.68341 c 0.65484,-0.14398 1.84546,-0.34177 2.64583,-0.43952 0.80036,-0.0978 2.22911,-0.34893 3.175,-0.55815 0.94588,-0.20922 2.01745,-0.44011 2.38125,-0.51309 3.37786,-0.67762 7.9005,-2.59555 10.59019,-4.49102 3.19915,-2.25451 5.3509,-4.75518 6.9333,-8.0576 0.73409,-1.53202 1.44565,-3.14268 1.58124,-3.57924 0.39437,-1.26973 1.28124,-4.70223 1.40142,-5.42396 0.51978,-3.12159 0.81023,-5.57465 0.68229,-5.76241 -0.0847,-0.12436 -0.83241,-0.73373 -1.66149,-1.35415 -3.69328,-2.76381 -5.09254,-7.86854 -3.24579,-11.84113 0.52009,-1.11877 0.49454,-1.34403 -0.25332,-2.2328 -0.70889,-0.84247 -1.73832,-3.37217 -1.74395,-4.28558 -0.002,-0.32196 -0.0781,-0.86342 -0.16905,-1.20325 -0.14809,-0.55309 -0.2656,-0.59763 -1.12087,-0.42486 -0.90936,0.18368 -4.17265,0.18867 -5.58564,0.009 -1.39309,-0.1776 -3.10621,-0.76549 -4.73529,-1.62499 l -1.69259,-0.893 -1.69817,1.83418 c -1.97865,2.13713 -3.93491,3.223 -6.9552,3.86064 -3.27417,0.69125 -7.17455,0.12567 -9.58589,-1.39 -0.54281,-0.3412 -1.06921,-0.62035 -1.16979,-0.62035 -0.10057,0 -0.3926,-0.18982 -0.64895,-0.42181 -0.43049,-0.38959 -0.5584,-0.3583 -1.67454,0.40963 -2.95957,2.03624 -8.5504,2.42835 -12.23966,0.85843 -1.87874,-0.79948 -3.8496,-2.14148 -5.1767,-3.52493 -0.76485,-0.79734 -1.25447,-0.97384 -1.25447,-0.45222 0,0.16977 -0.0722,0.23647 -0.16045,0.14822 -0.0883,-0.0883 -0.40206,0.0646 -0.69735,0.33973 -0.72905,0.67922 -3.7096,1.32003 -6.13974,1.32003 h -1.99829 v 0.7845 c 0,1.15576 -0.7327,3.11423 -1.77419,4.74235 -0.78248,1.22321 -0.87247,1.51785 -0.61213,2.0043 0.46134,0.86203 0.60429,1.90087 0.60202,4.3751 -0.002,1.92524 -0.11903,2.51825 -0.81466,4.11975 -0.758,1.74511 -1.13673,2.98154 -2.46611,8.05108 -0.78219,2.98283 -0.88908,3.83777 -0.87666,7.01146 0.0129,3.29724 0.54148,5.23581 2.12912,7.80876 1.0488,1.69968 4.17958,5.02353 4.73174,5.02353 0.0667,0 0.82702,0.4561 1.6895,1.01355 0.86248,0.55745 2.50361,1.38486 3.64695,1.83868 2.11048,0.83772 6.98153,2.30851 8.4288,2.54504 2.4212,0.39569 8.36874,1.22267 9.3927,1.30601 2.33401,0.18996 14.97009,-0.0523 16.13959,-0.30945 z m -17.20691,-17.57247 c -1.86173,-0.93968 -2.92205,-3.31417 -2.02671,-4.53862 0.61858,-0.84596 1.56274,-0.43859 2.22566,0.96029 0.67932,1.43348 1.38346,1.74813 2.83788,1.26813 1.28276,-0.42335 1.69617,-1.09263 1.53857,-2.49085 -0.10689,-0.9483 -0.0256,-1.23762 0.48047,-1.70905 0.68246,-0.63581 1.32525,-0.71343 2.18041,-0.26331 0.86728,0.4565 1.00435,0.78072 0.83804,1.98229 -0.20423,1.47562 0.59172,2.44544 2.1821,2.65875 1.3882,0.1862 2.33377,-0.36242 2.58338,-1.49889 0.21799,-0.99254 0.97668,-1.46359 1.71815,-1.06677 1.31464,0.70357 0.71197,3.14264 -1.08406,4.38729 -1.79115,1.24127 -4.61531,1.11019 -6.28117,-0.29153 -0.95496,-0.80355 -0.98485,-0.80385 -2.0123,-0.0202 -0.84017,0.64083 -2.47028,1.21357 -3.46172,1.21628 -0.29659,8.2e-4 -1.07001,-0.26641 -1.7187,-0.59383 z m 29.20099,-2.03975 c -2.58077,-0.6147 -5.04814,-3.35785 -5.65662,-6.28886 -0.73087,-3.52058 0.23213,-7.71431 2.22988,-9.71087 1.74421,-1.74317 3.32162,-2.37099 5.98474,-2.38198 2.00348,-0.008 2.40362,0.0759 3.66591,0.77139 3.11488,1.71615 4.68573,4.67111 4.64404,8.73601 -0.0266,2.59109 -0.44182,4.06672 -1.62586,5.77771 -1.78515,2.5796 -5.78544,3.91991 -9.24209,3.0966 z m 0.80213,-11.55623 c 1.58205,-1.58205 0.62553,-4.32954 -1.50731,-4.32954 -0.85228,0 -1.87604,0.54042 -2.48309,1.31077 -0.51343,0.65154 -0.40332,2.24045 0.20922,3.01917 0.45609,0.57982 0.7617,0.69714 1.81601,0.69714 1.01685,0 1.40563,-0.138 1.96517,-0.69754 z m -47.93202,11.25281 c -2.65927,-0.4473 -4.37502,-1.78881 -5.68117,-4.44199 -0.78291,-1.59031 -0.84761,-1.92179 -0.82941,-4.24979 0.0339,-4.3312 1.45581,-7.01293 4.51748,-8.51972 1.53425,-0.75507 2.06858,-0.88258 3.65411,-0.87196 1.59136,0.0107 2.09724,0.14085 3.53542,0.90992 1.86349,0.99649 2.60178,1.82086 3.6173,4.03905 1.34006,2.92707 1.08627,6.94003 -0.61489,9.72297 -0.83758,1.37022 -3.16863,3.0605 -4.54845,3.29817 -1.92605,0.33176 -2.28553,0.34292 -3.65039,0.11335 z m -0.4994,-10.85946 c 1.81352,-0.95457 1.73944,-4.04775 -0.1124,-4.69331 -1.82939,-0.63772 -3.937,1.10935 -3.56744,2.95717 0.34914,1.74569 2.09595,2.56983 3.67984,1.73614 z m 70.95708,-1.1773 c 2.87079,-0.61697 5.14349,-3.27761 5.59146,-6.54589 0.17252,-1.25865 -0.32775,-4.57691 -0.72725,-4.82381 -0.1287,-0.0795 -0.234,-0.37572 -0.234,-0.65817 0,-0.28246 -0.11907,-0.51356 -0.26459,-0.51356 -0.32645,0 -0.35405,-1.76555 -0.0307,-1.96538 0.25283,-0.15626 1.45211,-2.49554 1.50182,-2.92941 0.0167,-0.14552 0.12507,-0.72491 0.24087,-1.28754 0.38764,-1.88332 -0.65511,-5.05921 -2.11724,-6.44844 -0.34283,-0.32572 -0.7193,-0.75062 -0.83662,-0.94421 -0.58834,-0.97084 -4.50445,-3.01591 -5.23693,-2.73483 -0.15657,0.0601 -0.43543,0.69747 -0.61969,1.41642 -0.68312,2.66539 -3.83578,6.51781 -6.17304,7.5432 -0.97751,0.42885 -1.14294,1.09833 -0.74504,3.01504 0.38609,1.85978 1.13451,3.09549 2.6614,4.39426 l 1.15584,0.98315 -0.82991,0.86793 c -0.87421,0.91427 -1.67074,3.11219 -1.67074,4.6102 0,2.06755 1.58845,4.71104 3.38576,5.6346 1.33803,0.68755 2.95867,0.81411 4.94862,0.38644 z m -83.13709,-1.0705 c 0.94744,-0.48995 1.6464,-1.63135 2.32579,-3.79801 0.54187,-1.7281 0.53171,-2.58329 -0.0527,-4.43177 -0.20332,-0.64315 -0.42573,-0.8599 -0.88236,-0.8599 -0.78571,0 -1.70924,-1.2759 -1.16229,-1.60578 2.39692,-1.44564 3.90496,-3.66749 4.11794,-6.06713 l 0.10568,-1.19063 -1.8985,-1.19062 c -2.32696,-1.45934 -4.35307,-3.62066 -5.20865,-5.55625 -0.35378,-0.80037 -0.6749,-1.48797 -0.71361,-1.52801 -0.0387,-0.04 -0.61344,0.16 -1.27719,0.44451 -2.81482,1.20657 -4.44904,3.73462 -4.29651,6.64641 0.0417,0.7967 0.0987,1.44855 0.12657,1.44855 0.0279,0 0.0911,0.21215 0.14056,0.47144 0.0494,0.2593 0.45704,1.04363 0.90579,1.74296 0.44876,0.69933 0.81593,1.38916 0.81593,1.53295 0,0.1438 -0.31451,0.55009 -0.69892,0.90288 -1.15165,1.05693 -2.27025,3.81548 -2.24599,5.53879 0.0364,2.58319 1.5082,5.61438 3.3183,6.8339 1.93445,1.3033 4.78876,1.59206 6.58014,0.66571 z m 48.16457,-17.42279 c 2.92588,-0.76209 5.12138,-2.36314 6.35113,-4.63147 0.35501,-0.65484 0.94537,-1.36321 1.3119,-1.57415 0.63112,-0.36322 0.76751,-0.31571 2.5752,0.89712 2.36198,1.58472 4.49805,2.27935 7.36166,2.39395 2.48404,0.0994 5.245,-0.51746 7.05388,-1.576 5.35931,-3.13624 6.51713,-10.67319 2.23405,-14.5427 -0.60913,-0.55031 -2.01582,-1.43433 -3.12599,-1.9645 -1.94345,-0.9281 -2.12666,-0.96393 -4.92889,-0.96393 -3.58629,0 -4.50889,0.27844 -7.9375,2.3955 -3.39004,2.09324 -3.26012,2.03068 -6.21771,2.99413 -5.27651,1.71885 -14.97233,2.26884 -21.89816,1.24215 -1.87487,-0.27794 -3.1066,-0.4768 -3.63413,-0.58673 -0.29104,-0.0607 -0.93585,-0.16747 -1.43291,-0.23738 -0.49706,-0.0699 -1.0809,-0.27414 -1.29744,-0.45385 -0.21653,-0.1797 -0.46469,-0.30217 -0.55146,-0.27215 -0.20368,0.0705 -1.40197,-0.21409 -1.74527,-0.41445 -0.14553,-0.0849 -0.42139,-0.17817 -0.61303,-0.20719 -0.73228,-0.11091 -2.86282,-1.25168 -5.0498,-2.70386 -3,-1.99202 -3.42193,-2.15304 -5.64179,-2.15304 -1.89262,0 -5.49643,0.91177 -5.49643,1.39061 0,0.12547 -0.11906,0.15453 -0.26458,0.0646 -0.14552,-0.0899 -0.26458,-0.0455 -0.26458,0.0988 0,0.14431 -0.22693,0.3344 -0.50429,0.42243 -1.01747,0.32293 -3.01844,2.65376 -3.89458,4.5366 -0.79767,1.71421 -0.86862,2.0697 -0.79214,3.96875 0.14797,3.67409 1.82246,6.18334 5.15926,7.7312 0.81782,0.37938 1.54649,0.70163 1.61925,0.71612 2.83054,0.5637 5.71802,0.29951 7.87697,-0.72069 l 1.1301,-0.53403 -0.17013,-1.2825 c -0.23555,-1.7757 0.004,-2.50504 0.94951,-2.89689 1.0808,-0.44768 1.39505,-0.13858 2.10551,2.07095 0.72854,2.26574 2.7276,4.61752 4.82856,5.68051 1.71394,0.86718 4.35108,1.34843 6.12967,1.1186 1.9186,-0.24791 4.47012,-1.36753 5.47188,-2.40108 0.49172,-0.50734 1.14996,-0.91402 1.47936,-0.91402 0.32641,0 1.14278,0.47543 1.81416,1.05651 1.47428,1.27597 1.95653,1.54625 3.83857,2.15134 1.80603,0.58065 4.17887,0.61937 6.17019,0.1007 z m 40.97634,-12.37433 c 0.74467,-1.1788 1.25476,-2.92354 1.26575,-4.32943 0.0106,-1.35617 0.50225,-1.54423 4.17385,-1.59657 2.89619,-0.0413 3.44576,-0.12339 4.51738,-0.67486 0.98102,-0.50485 1.25985,-0.80707 1.42322,-1.54259 0.22223,-1.00055 0.022,-2.8991 -0.30571,-2.8991 -0.11296,0 -0.40599,-0.52529 -0.65117,-1.1673 -0.24519,-0.64201 -0.61855,-1.23359 -0.8297,-1.31461 -0.21114,-0.081 -0.3839,-0.33668 -0.3839,-0.56811 0,-0.23144 -0.12703,-0.34229 -0.28228,-0.24634 -0.15525,0.0959 -0.25554,0.0137 -0.22285,-0.18282 0.0327,-0.19651 -0.0301,-0.56171 -0.13956,-0.81157 -0.36082,-0.82381 -0.0266,-1.03292 1.84087,-1.15177 3.45432,-0.21984 5.15382,-1.18207 5.15382,-2.918 0,-2.00083 -1.11875,-3.61112 -4.60342,-6.62599 -1.12215,-0.97086 -1.23259,-1.1595 -0.96814,-1.65364 0.25082,-0.46865 0.54313,-0.55777 1.82957,-0.55777 1.93788,0 3.80126,-0.62914 4.78907,-1.61695 0.92829,-0.92829 1.0906,-1.69168 0.58443,-2.74867 -0.43428,-0.90687 -1.82551,-2.24896 -2.33131,-2.24896 -0.18696,0 -0.46003,-0.22443 -0.60683,-0.49874 -0.1468,-0.2743 -0.58398,-0.57831 -0.97151,-0.67557 -0.38753,-0.0973 -1.10505,-0.48228 -1.59448,-0.85559 -0.48943,-0.37331 -0.88988,-0.5945 -0.88988,-0.49153 0,0.16067 -0.4918,-0.18932 -2.03935,-1.45131 -0.17576,-0.14333 -0.39058,-0.2606 -0.47737,-0.2606 -0.0868,0 -0.53831,-0.35663 -1.00336,-0.79252 -0.46505,-0.43589 -0.92906,-0.79308 -1.03114,-0.79375 -0.10207,-6.8e-4 -1.59035,-1.38992 -3.30729,-3.08721 -1.71693,-1.69729 -2.97287,-2.99995 -2.79097,-2.8948 0.7801,0.45094 0.24017,-0.0942 -0.7276,-0.73469 -0.58209,-0.3852 -1.05834,-0.89712 -1.05834,-1.13759 0,-0.24047 -0.0757,-0.3615 -0.16824,-0.26897 -0.0925,0.0925 -1.29663,-0.89965 -2.67576,-2.20486 -1.84286,-1.74408 -2.69245,-2.37418 -3.2052,-2.37716 -2.51795,-0.0146 -1.74752,-2.29929 4.32941,-12.83856 1.78673,-3.09874 1.74554,-3.03312 2.64584,-4.21483 1.77588,-2.33099 4.53554,-4.64485 4.99353,-4.18686 0.0912,0.0912 0.16584,0.0404 0.16584,-0.11282 0,-0.15325 0.35719,-0.33107 0.79375,-0.39515 0.43656,-0.0641 0.79375,-0.0218 0.79375,0.094 0,0.11575 0.16655,0.14655 0.37011,0.0684 0.20356,-0.0781 0.44872,-0.0148 0.54478,0.1406 0.0961,0.15544 0.0416,0.28262 -0.12114,0.28262 -0.1627,0 -0.22103,0.121 -0.12962,0.2689 0.0914,0.14789 0.26879,0.20548 0.3942,0.12797 0.27405,-0.16937 0.51612,0.18325 0.68046,0.9912 1.46443,7.19995 1.00193,18.65377 -1.03089,25.52985 l -0.6443,2.17938 2.00186,1.90157 2.00185,1.90157 0.50311,-1.17053 c 0.55127,-1.28262 1.76697,-6.54014 2.47313,-10.69554 0.62276,-3.66469 0.62506,-12.33495 0.004,-15.47812 -0.65259,-3.30327 -1.66664,-6.43978 -2.58624,-7.99944 -1.31071,-2.22296 -2.13965,-2.66566 -4.89158,-2.61233 -1.57827,0.0306 -2.69743,0.24908 -6.05211,1.1816 -0.14552,0.0404 -0.6813,0.16558 -1.19063,0.27806 -2.03086,0.44853 -8.21799,2.79744 -10.79472,4.09818 -0.90238,0.45552 -1.64252,0.7372 -1.64474,0.62597 -0.002,-0.11124 -0.0915,-0.0768 -0.19844,0.0766 -0.10691,0.15337 -0.96829,0.67496 -1.91418,1.1591 -2.09929,1.0745 -5.53886,3.09065 -7.13149,4.18023 -0.6481,0.44339 -1.33271,0.74693 -1.52135,0.67454 -0.18865,-0.0724 -0.34299,-0.002 -0.34299,0.1556 0,0.19181 -0.19777,0.20836 -0.59531,0.0498 -0.59188,-0.23601 -1.3487,-0.4891 -1.72257,-0.57604 -0.10762,-0.025 -1.00987,-0.32242 -2.00501,-0.66089 -0.99513,-0.33847 -1.8881,-0.60481 -1.98437,-0.59187 -0.0963,0.0129 -0.23456,3.2e-4 -0.30732,-0.028 -0.27258,-0.10627 -1.22854,-0.2803 -2.38125,-0.43351 -0.65485,-0.087 -1.48829,-0.20055 -1.85209,-0.25226 -5.26695,-0.74861 -13.26297,-0.67304 -17.59479,0.1663 -0.87312,0.16918 -1.88515,0.34827 -2.24896,0.39798 -0.58839,0.0804 -3.44904,0.73154 -4.49791,1.02382 -0.21828,0.0608 -1.42949,0.46485 -2.69156,0.89783 -1.26208,0.43297 -2.36341,0.7185 -2.4474,0.63451 -0.084,-0.084 -0.15271,-0.0267 -0.15271,0.12729 0,0.24293 -0.9025,0.62276 -1.71979,0.72381 -0.23646,0.0292 -4.33322,-2.96579 -6.74101,-4.92816 -0.5061,-0.41247 -1.05044,-0.74995 -1.20964,-0.74995 -0.1592,0 -0.75715,-0.35388 -1.32878,-0.78639 -0.57163,-0.43251 -1.12652,-0.7897 -1.2331,-0.79375 -0.10658,-0.004 -0.9704,-0.48271 -1.9196,-1.06368 -2.56434,-1.56955 -4.83664,-2.56572 -9.396,-4.11919 -3.68063,-1.25407 -4.30978,-1.39267 -6.13735,-1.35205 -1.92842,0.0429 -2.08521,0.0927 -2.95898,0.94002 -0.50746,0.49211 -1.17455,1.48028 -1.48241,2.19593 -0.98697,2.29427 -1.96795,6.77851 -2.27578,10.40307 -0.141,1.66013 -0.14604,9.38114 -0.007,10.84791 0.0689,0.72761 0.19916,2.15636 0.28939,3.175 0.0902,1.01865 0.22783,2.20927 0.30578,2.64584 0.0779,0.43656 0.17838,1.03187 0.22317,1.32291 0.31661,2.0571 1.21591,5.75582 1.46914,6.0424 0.10769,0.12185 0.39221,-0.0567 0.63228,-0.39688 3.87451,-5.48953 3.54049,-4.36197 2.69125,-9.0851 -1.29246,-7.18806 -0.97276,-20.43792 0.55117,-22.84327 0.21544,-0.34005 0.46054,-0.54944 0.54466,-0.46531 0.0841,0.0841 0.32181,0.0128 0.52819,-0.15847 0.29205,-0.24238 0.42853,-0.22721 0.61561,0.0684 0.1322,0.20892 0.24219,0.25088 0.24441,0.0932 0.002,-0.15765 0.20325,-0.28663 0.44671,-0.28663 0.50059,0 3.5261,2.78959 3.5261,3.25114 0,0.16502 0.15897,0.43197 0.35327,0.59323 0.1943,0.16125 0.51102,0.77115 0.70381,1.35531 0.19279,0.58417 0.42147,1.06212 0.50818,1.06212 0.17189,0 0.23705,0.14708 1.87545,4.23334 1.46207,3.64648 2.2578,5.47136 2.90709,6.667 0.71773,1.32164 0.69395,2.27865 -0.064,2.57363 -0.58368,0.22717 -4.1906,3.88538 -6.01927,6.10485 -0.50932,0.61817 -1.16417,1.3842 -1.45521,1.70229 -0.29104,0.31808 -0.88204,1.04754 -1.31333,1.62101 -0.43128,0.57347 -0.9373,1.20001 -1.12447,1.3923 -0.18718,0.1923 -0.34032,0.44253 -0.34032,0.55607 0,0.11355 -0.32743,0.57097 -0.72761,1.0165 -0.80981,0.90158 -2.2441,2.6298 -3.21967,3.87947 -0.35199,0.45089 -1.46821,1.41356 -2.48048,2.13927 -1.01228,0.72571 -1.9957,1.46831 -2.18539,1.65021 -0.18969,0.1819 -0.44212,0.33073 -0.56097,0.33073 -0.4823,0 -3.2613,3.29647 -3.2613,3.86858 0,0.32896 -0.11906,0.67169 -0.26458,0.76163 -0.45423,0.28072 -0.29067,1.07387 0.34449,1.67058 0.80565,0.75687 2.9327,1.14357 4.72258,0.85859 0.77837,-0.12393 1.52291,-0.15975 1.65454,-0.0796 0.13162,0.0802 0.15436,0.008 0.0505,-0.15974 -0.10384,-0.168 -0.0697,-0.30546 0.0758,-0.30546 0.57179,0 0.51774,0.48708 -0.10604,0.95552 -0.36106,0.27115 -0.65648,0.70286 -0.65648,0.95936 0,0.2565 -0.11056,0.46637 -0.24568,0.46637 -0.13513,0 -0.40302,0.15649 -0.59531,0.34775 -0.1923,0.19127 -1.00448,0.76726 -1.80484,1.27998 -1.27542,0.81704 -3.66779,3.14545 -3.72441,3.62483 -0.0395,0.33487 -0.2144,1.2067 -0.35178,1.75406 -0.1874,0.74668 0.69121,2.13162 1.67507,2.6404 0.83644,0.43254 3.61279,0.9045 4.84,0.82277 1.07453,-0.0716 1.05549,0.38842 -0.082,1.98159 -1.25431,1.75679 -2.06531,3.22511 -2.17374,3.93557 -0.0447,0.29301 -0.16374,0.61519 -0.26451,0.71595 -0.10076,0.10077 -0.1832,0.55763 -0.1832,1.01526 0,0.92953 0.82333,1.99017 1.54489,1.99017 0.25626,0 0.60448,0.13855 0.77382,0.30788 0.19881,0.19881 1.32686,0.30142 3.18438,0.28966 l 2.8765,-0.0182 0.29764,1.91451 c 0.62105,3.99473 1.39174,4.42166 2.2036,1.2207 0.88438,-3.48682 2.7168,-6.18882 5.90786,-8.71142 0.69929,-0.5528 3.34568,-1.78956 4.24568,-1.98416 0.43656,-0.0944 1.09141,-0.23578 1.45521,-0.31418 0.3638,-0.0784 1.59593,-0.2005 2.73805,-0.27132 2.78151,-0.17247 4.51164,0.34828 6.68083,2.01088 2.65785,2.03713 6.22422,3.54625 10.29258,4.35534 4.23495,0.84222 6.06748,1.01776 10.84791,1.0391 5.12646,0.0229 8.80451,-0.31695 11.64167,-1.07562 2.23095,-0.59657 5.70908,-2.24673 7.64045,-3.62493 2.21719,-1.58215 3.05207,-1.89021 6.15169,-2.26991 4.62778,-0.5669 8.02569,0.10544 11.21098,2.21831 2.76583,1.83463 4.87194,4.88708 5.42557,7.86342 0.16986,0.9132 0.28252,1.00386 2.07338,1.66843 1.04157,0.38652 2.5486,1.04768 3.34897,1.46924 0.80036,0.42157 1.6338,0.77189 1.85208,0.77849 0.21828,0.007 0.71735,-0.49529 1.10903,-1.11532 z m -62.25039,-16.97419 c -0.0669,-0.0669 -0.47352,-0.18542 -0.90364,-0.26341 -2.3609,-0.42812 -4.04555,-3.98345 -2.39878,-5.06245 0.84295,-0.55232 1.60017,-0.16677 2.1211,1.07999 0.46246,1.10683 1.3711,1.57306 2.61205,1.34026 1.00382,-0.18832 2.29712,-1.07158 2.29424,-1.56685 -9.9e-4,-0.17134 -0.42241,-0.59799 -0.93649,-0.94811 -2.12027,-1.44404 -3.18251,-3.52919 -2.9098,-5.7119 0.15125,-1.21049 0.34847,-1.62164 1.15534,-2.40851 1.17091,-1.14186 3.1417,-2.0785 4.94172,-2.34859 5.42767,-0.81442 9.80299,0.90172 10.59474,4.1556 0.23285,0.95696 -0.3174,3.18077 -0.95687,3.86717 -0.28036,0.30093 -0.50975,0.65728 -0.50975,0.79189 0,0.21545 -1.20834,1.20878 -2.76692,2.27456 -0.4956,0.3389 -0.47846,0.37849 0.39688,0.91696 2.23637,1.37573 4.22213,1.29123 4.22213,-0.17968 0,-0.94386 0.43349,-1.38238 1.36652,-1.38238 0.84907,0 1.27931,0.62554 1.27931,1.86001 0,3.83613 -5.89875,4.70024 -9.76561,1.43057 -1.31892,-1.11523 -2.519,-1.09052 -3.82351,0.0787 -0.98713,0.88477 -2.34657,1.59798 -3.45145,1.81076 -1.37282,0.26438 -2.45056,0.37607 -2.56121,0.26542 z m 4.71897,-11.52796 c 0.70585,-0.43037 0.85989,-0.68979 0.85989,-1.44812 0,-1.6885 -1.87492,-2.23611 -3.18173,-0.9293 -0.67039,0.67039 -0.66748,1.70031 0.007,2.37452 0.66579,0.66578 1.22675,0.66648 2.31511,0.003 z m -21.76198,0.37561 c -1.13418,-0.58867 -2.18829,-1.65127 -3.00017,-3.02435 -0.58512,-0.98957 -0.70267,-1.50336 -0.69614,-3.0427 0.0165,-3.88894 2.47937,-6.55595 6.07756,-6.58134 1.89527,-0.0134 3.33008,0.64308 4.62221,2.11473 1.21146,1.37978 1.5955,2.45496 1.5955,4.4669 0,3.76589 -2.6315,6.48424 -6.27332,6.48037 -0.8673,-9.3e-4 -1.87625,-0.18036 -2.32564,-0.41361 z m 53.18125,-0.65536 c -1.53258,-0.82923 -2.17313,-1.49979 -2.95053,-3.08873 -0.60829,-1.2433 -0.67505,-1.64447 -0.56335,-3.38507 0.10161,-1.58317 0.28013,-2.22273 0.90052,-3.2262 2.5532,-4.12971 8.24007,-4.00477 10.66106,0.23422 1.88877,3.3071 1.00582,6.95936 -2.17608,9.00117 -1.78748,1.14703 -4.25022,1.3419 -5.87162,0.46461 z m 32.65777,-20.39619 c 1.41608,-5.2459 1.93283,-15.01208 1.09708,-20.73425 -0.50382,-3.44958 -0.84192,-3.68383 -2.9722,-2.05926 -1.24578,0.95004 -4.1583,4.99844 -4.57465,6.35874 -0.10021,0.32742 -0.27936,0.59531 -0.3981,0.59531 -0.11874,0 -0.28716,0.20836 -0.37427,0.46302 -0.0871,0.25466 -0.50502,1.05833 -0.9287,1.78594 -0.42368,0.7276 -1.3958,2.52219 -2.16027,3.98797 l -1.38994,2.66506 1.42789,1.30369 c 0.78534,0.71703 3.15421,2.99414 5.26416,5.06025 4.38771,4.29653 4.01551,4.25392 5.009,0.57353 z m -99.5528,-0.9736 c 0.7031,-0.82293 2.32016,-2.57703 3.59347,-3.89801 1.2733,-1.32098 2.3151,-2.54928 2.3151,-2.72956 0,-0.27278 -1.51196,-4.07184 -2.38365,-5.98933 -0.13231,-0.29104 -0.72462,-1.71979 -1.31625,-3.175 -1.86348,-4.58356 -3.11735,-6.6602 -4.27479,-7.07984 -1.77428,-0.64328 -2.13364,16.22899 -0.49968,23.46034 0.38295,1.69481 0.54351,1.925 0.95254,1.36563 0.18419,-0.2519 0.91015,-1.1313 1.61326,-1.95423 z"
       id="path771" /></g></svg>
