<?xml version="1.0" encoding="UTF-8" standalone="no"?>
<!-- Created with Inkscape (http://www.inkscape.org/) -->

<svg
   width="175.62741mm"
   height="207.61565mm"
   viewBox="0 0 175.62744 207.61563"
   version="1.1"
   id="svg1"
   xml:space="preserve"
   xmlns="http://www.w3.org/2000/svg"
   xmlns:svg="http://www.w3.org/2000/svg"><defs
     id="defs1" /><g
     id="layer1"
     transform="translate(-815.54832,82.012693)"><path
       style="fill:#000000"
       d="m 948.19445,125.32132 c -3.26609,-0.63984 -7.05147,-2.21042 -9.448,-3.92004 -1.48001,-1.05579 -4.4644,-3.87434 -5.77277,-5.45198 l -0.93327,-1.12533 -1.56971,0.40886 c -4.19155,1.09176 -10.66209,-0.0424 -16.72656,-2.93185 -2.97194,-1.416 -7.4866,-4.3998 -9.55598,-6.31568 l -1.53206,-1.41842 -1.96936,0.48942 c -1.08316,0.26919 -2.42581,0.56562 -2.98367,0.65875 -0.70141,0.1171 -0.97199,0.27962 -0.87712,0.52683 0.0755,0.19663 0.2828,1.3087 0.46077,2.47127 0.24887,1.62573 0.25268,2.47105 0.0165,3.66125 -1.18147,5.95441 -6.52687,9.87241 -12.07086,8.84755 -5.94586,-1.09915 -12.68388,-7.4059 -17.26891,-16.16359 -1.69209,-3.23199 -3.84079,-9.00594 -4.43075,-11.906251 -0.10361,-0.509323 -0.64649,-1.640417 -1.2064,-2.513542 -1.38875,-2.1656 -2.62568,-4.88065 -3.1611,-6.938597 -0.38704,-1.48766 -0.57162,-1.78676 -1.39193,-2.255565 l -0.94572,-0.540475 -1.01552,0.971729 c -0.55853,0.534451 -1.78003,1.352136 -2.71444,1.817077 -1.48465,0.738728 -2.01858,0.857019 -4.23333,0.937879 -2.0311,0.07415 -2.83564,-0.01316 -4.05129,-0.439696 -2.77767,-0.974605 -4.90794,-2.863472 -6.3054,-5.590893 -0.89833,-1.753264 -1.02094,-5.268428 -0.28524,-8.177713 1.4338,-5.669927 5.33282,-11.400205 10.9381,-16.075411 1.14807,-0.957575 2.02732,-1.801129 1.95388,-1.874566 -0.0734,-0.07344 -1.23951,-0.296363 -2.59128,-0.495393 -6.93221,-1.020671 -13.88161,-3.072662 -18.86193,-5.569469 -3.60486,-1.807245 -5.57994,-3.206475 -7.83709,-5.552144 -3.2046,-3.330274 -5.13913,-6.961699 -5.94532,-11.160347 -1.29495,-6.744062 1.28808,-13.217995 6.49998,-16.291124 l 1.38622,-0.817371 0.62001,-2.459093 c 2.54345,-10.08784535 8.40856,-19.7097174 16.22316,-26.614503 2.97031,-2.624488 4.64356,-3.836297 8.63175,-6.251299 l 2.90995,-1.762094 0.32541,-2.61409 c 1.42229,-11.425591 6.49983,-24.294331 13.51382,-34.249961 3.97208,-5.63796 10.27662,-12.57468 14.06796,-15.4786 7.04529,-5.39624 13.33488,-6.65675 16.77356,-3.36162 2.14211,2.0527 3.28191,5.90275 2.9925,10.10818 -0.24571,3.57031 -1.66153,7.99687 -3.47101,10.85209 -0.50605,0.79851 -1.06909,1.74948 -1.25121,2.11329 -1.12738,2.25203 -5.53509,8.02576 -11.21016,14.68437 -3.39501,3.98339 -8.71239,10.833813 -9.00869,11.605965 -0.10544,0.274759 0.64962,0.387698 3.5162,0.525947 3.46219,0.166974 8.02553,0.931855 10.95035,1.835437 l 1.21448,0.375195 1.29906,-2.658089 c 3.67273,-7.514975 9.3637,-15.035735 16.91889,-22.358765 12.92143,-12.52439 29.87986,-20.90109 42.45622,-20.97146 1.7542,-0.01 2.73895,0.1464 4.47627,0.71009 3.87221,1.25639 5.36677,3.24472 5.53661,7.36575 0.26796,6.50199 -4.11072,12.57359 -13.60855,18.87001 -2.72547,1.8068 -5.29644,3.27035 -11.75016,6.68889 -12.16723,6.444988 -19.06976,11.20745 -26.45834,18.255178 l -1.98437,1.892832 1.32291,1.084684 c 2.00468,1.643672 7.56825,7.345151 8.46593,8.675779 1.01657,1.5068596 1.10509,1.5634586 2.45275,1.5682946 1.5171,0.0054 5.77709,0.946883 7.89949,1.745755 8.0683,3.036898 14.84193,9.516204 18.74774,17.9331134 1.68308,3.626987 3.99452,10.930135 5.53846,17.49914 4.27895,18.20565 4.52084,19.37067 5.10744,24.59839 0.20203,1.80042 0.22785,1.850173 1.08733,2.094672 1.32281,0.376306 3.41655,2.385031 3.79194,3.637973 0.26403,0.881266 0.24291,1.256591 -0.12912,2.294615 -0.24463,0.682558 -0.44419,1.690894 -0.44347,2.240747 7.6e-4,0.584645 -0.32446,1.645071 -0.7833,2.554021 l -0.7846,1.554289 1.21629,1.216291 1.21629,1.216291 1.88342,0.0019 c 4.33993,0.0043 10.25603,2.351731 14.44241,5.730628 3.46015,2.792742 9.2925,9.798393 11.68015,14.029857 0.5964,1.056966 0.60733,1.16287 0.23191,2.248323 -0.32344,0.93517 -0.56473,1.194956 -1.3477,1.451043 -1.33927,0.438032 -4.72336,0.879961 -6.73834,0.879961 -0.93535,0 -1.70064,0.07154 -1.70064,0.158986 0,0.08744 0.72998,1.06641 1.62218,2.175483 1.71569,2.13272 5.5586,7.765516 7.68821,11.269106 1.45383,2.3918 1.61422,3.44606 0.66057,4.34197 -0.7749,0.72798 -2.39342,0.74687 -6.2668,0.0731 -1.52797,-0.26577 -2.81538,-0.45246 -2.86093,-0.41485 -0.0455,0.0376 0.97118,1.18204 2.25939,2.5432 1.2882,1.36116 2.78398,3.00228 3.32395,3.64694 2.34132,2.79525 0.49307,4.48986 -5.81713,5.33356 -3.16994,0.42383 -11.67955,0.13964 -15.95528,-0.53285 -3.07417,-0.48351 -3.32594,-0.48912 -3.57187,-0.0795 -1.19154,1.98438 -3.88255,2.97677 -8.46667,3.12233 -2.02071,0.0642 -3.84833,-0.0311 -5.02708,-0.26202 z m 7.80299,-3.25404 c 0.0715,-0.0634 -0.42293,-0.63776 -1.09883,-1.27637 -2.12782,-2.01043 -4.4552,-5.2965 -4.4552,-6.29038 0,-0.21202 0.29068,-0.57594 0.64597,-0.80874 0.60822,-0.39852 0.68939,-0.38733 1.38906,0.19143 1.19336,0.98714 4.33714,2.76113 6.1572,3.4744 3.85609,1.51119 8.09214,2.22441 15.7762,2.6562 2.50688,0.14087 9.27761,-0.25277 9.60532,-0.55844 0.0572,-0.0533 -0.59766,-0.88177 -1.4552,-1.84097 -0.85755,-0.95919 -2.51168,-2.90525 -3.67585,-4.32457 -1.16416,-1.41932 -2.8608,-3.4421 -3.77031,-4.49506 -0.9095,-1.05297 -1.65364,-2.08629 -1.65364,-2.29629 0,-0.60233 1.18467,-0.46777 4.91583,0.55833 6.50582,1.78915 8.36443,2.2619 8.58021,2.18241 0.49093,-0.18085 -5.09606,-8.23745 -9.4079,-13.566459 -0.93879,-1.16025 -1.70689,-2.303248 -1.70689,-2.539995 0,-0.616214 2.93126,-1.754034 5.02708,-1.951347 2.97293,-0.279889 5.82083,-0.728818 5.82083,-0.917566 0,-0.247875 -1.98754,-3.287992 -3.11732,-4.768203 -6.03351,-7.905007 -11.46865,-11.700689 -18.23851,-12.737037 -2.81251,-0.430545 -3.91112,-0.212588 -4.28133,0.849383 -0.84069,2.411606 -7.94287,11.877786 -10.95216,14.597653 -3.16407,2.859757 -8.82263,6.860971 -11.92304,8.430877 -1.76208,0.892238 -1.74182,0.750327 -0.54122,3.791614 0.62101,1.57309 0.73309,2.25064 0.74408,4.49792 0.0159,3.2508 -0.28541,4.30378 -1.8447,6.44671 -0.88001,1.20939 -1.17822,1.83865 -1.07197,2.26198 0.37087,1.47769 4.7218,5.08692 8.23138,6.8282 1.19836,0.59456 5.14127,1.62599 7.14375,1.86875 0.92523,0.11216 4.96598,-0.095 5.15716,-0.26443 z m -66.95446,-4.22111 c 1.78484,-0.57644 3.51512,-2.12728 4.40678,-3.94975 0.82124,-1.67856 0.94666,-4.12739 0.31714,-6.19223 l -0.363,-1.19062 -3.82555,-0.16641 c -4.05056,-0.17619 -5.19758,-0.37039 -8.58806,-1.45404 -4.45517,-1.42394 -8.68811,-3.86505 -11.58143,-6.67893 l -1.52726,-1.485331 0.65378,1.922195 c 0.86569,2.545236 2.809,6.480716 4.41472,8.940426 1.56858,2.40282 5.3366,6.37486 7.51102,7.91769 3.65122,2.59068 5.90013,3.2031 8.58186,2.337 z m 41.85494,-6.12484 c 0.67337,-0.32633 1.65663,-1.0132 2.18503,-1.52637 4.20142,-4.08037 2.35396,-10.406371 -5.35853,-18.348463 -1.47456,-1.51845 -2.68101,-2.850153 -2.68101,-2.959338 0,-0.644649 0.55657,-1.52876 0.88343,-1.403332 0.51648,0.198192 0.64349,-0.263336 0.99418,-3.612594 0.23396,-2.234483 0.23296,-3.60278 -0.004,-5.754981 -0.45175,-4.099366 -1.462,-8.067761 -2.29334,-9.008604 -0.0484,-0.05482 -0.53931,0.369163 -1.09083,0.942181 -3.63618,3.777931 -10.2947,7.613501 -15.13864,8.720449 -1.10204,0.251841 -2.03746,0.479296 -2.07871,0.505456 -0.0412,0.02616 0.19619,0.986156 0.52764,2.133324 0.50092,1.733681 0.59942,2.688697 0.58355,5.657635 -0.0164,3.070301 -0.11706,3.892993 -0.71672,5.85867 -0.88169,2.890173 -1.85041,5.033097 -3.0147,6.668809 -0.50215,0.705478 -0.83625,1.359428 -0.74245,1.453228 0.0938,0.0938 0.88449,-0.22495 1.75709,-0.70834 0.87261,-0.483387 1.75654,-0.813657 1.96431,-0.733931 0.49967,0.191743 0.48002,1.312981 -0.0407,2.319861 -0.62397,1.20663 -0.31527,1.81815 1.66532,3.29889 4.46714,3.33978 10.60257,6.15222 15.17754,6.95731 2.48736,0.43772 6.02147,0.21874 7.42172,-0.45986 z m -32.44759,-9.45438 c 1.97222,-0.96561 5.08236,-5.636474 6.26969,-9.415918 0.52986,-1.686632 0.60813,-2.462426 0.58359,-5.784339 -0.024,-3.246929 -0.12666,-4.160259 -0.66813,-5.943642 -0.59661,-1.965003 -0.69618,-2.118719 -1.47566,-2.27814 -0.45974,-0.09403 -1.18907,-0.39595 -1.62074,-0.670941 -0.9934,-0.632841 -3.33119,-2.819207 -4.55272,-4.257845 l -0.93726,-1.103839 -1.84087,0.185453 c -1.69952,0.171213 -4.59839,-0.0084 -5.68094,-0.351985 -0.36202,-0.114903 -0.48947,0.06621 -0.6197,0.880639 -0.2005,1.253844 -0.93077,2.226099 -2.08257,2.772664 -1.58053,0.750009 -10.79014,2.31007 -13.54916,2.295159 -1.79745,-0.0097 -3.19918,-0.826168 -4.04219,-2.354426 -0.90001,-1.631581 -1.25631,-1.743271 -0.70006,-0.219451 0.58797,1.610731 0.57713,3.59102 -0.0252,4.607595 -0.49448,0.834521 -0.49363,0.844105 0.25857,2.906492 2.37902,6.522862 7.05094,11.689809 13.25571,14.660275 2.6789,1.282491 3.07822,1.662835 2.42823,2.312819 -0.56465,0.56466 -1.65658,0.34121 -4.06733,-0.832302 -5.97807,-2.910033 -11.34249,-9.304507 -13.68495,-16.312692 l -0.39796,-1.190625 -1.68019,0.09226 c -0.92411,0.05074 -1.70713,0.117371 -1.74006,0.148062 -0.10282,0.09583 0.97372,2.795926 1.63523,4.101344 1.30532,2.575939 2.94485,4.734665 5.54425,7.299999 4.73136,4.669341 9.83631,7.467594 15.93233,8.733214 1.30644,0.27124 3.31008,0.35769 7.11166,0.30684 4.61992,-0.0618 5.42672,-0.13637 6.34644,-0.58667 z m 42.40193,-10.76527 c 0.90951,-0.581658 1.65365,-1.204304 1.65365,-1.383659 0,-0.278639 -1.23287,-2.188818 -1.85639,-2.876264 -0.11066,-0.121996 -1.31581,0.479931 -2.67813,1.337615 -1.36232,0.857684 -3.1019,1.909998 -3.86573,2.338477 -0.76384,0.428478 -1.38892,0.877937 -1.38907,0.998797 -1.4e-4,0.120859 0.42966,0.867446 0.95511,1.659081 l 0.95538,1.439337 2.28577,-1.227913 c 1.25717,-0.675352 3.02991,-1.703814 3.93941,-2.285471 z m -7.0776,-3.751778 c 1.81901,-1.078613 3.98339,-2.477258 4.80973,-3.1081 9.24212,-7.055555 15.0993,-13.381381 19.06818,-20.593859 1.30945,-2.379609 1.59496,-3.54676 1.13618,-4.644761 -0.41554,-0.994539 -0.97258,-1.357888 -2.42523,-1.58196 l -1.02532,-0.158157 -1.66708,2.766977 c -1.79295,2.975908 -5.5279,7.824016 -7.94932,10.318544 -3.16812,3.26377 -9.80163,8.55506 -14.85036,11.845561 -0.55509,0.361774 -0.67461,0.702803 -0.83462,2.38125 -0.10271,1.077452 -0.2728,2.584082 -0.37798,3.348066 -0.17251,1.25316 -0.14232,1.388989 0.30865,1.388309 0.27493,-4.15e-4 1.98816,-0.883256 3.80717,-1.96187 z m 19.58151,-20.872558 c -0.86546,-0.432196 -0.94225,-0.984729 -0.25779,-1.854882 0.6399,-0.813507 1.09594,-0.889975 1.70073,-0.28518 0.4792,0.479191 0.3376,1.297749 -0.34846,2.014416 -0.36901,0.38548 -0.53583,0.40463 -1.09448,0.125646 z m 2.18047,-3.798379 c -0.82584,-0.333231 0.0455,-2.735188 0.99218,-2.735188 0.58972,0 1.35078,1.082819 1.17178,1.66718 -0.3513,1.146852 -1.07877,1.505892 -2.16396,1.068008 z m -8.39166,23.656998 c 2.49875,-2.335275 6.1697,-6.412577 6.75039,-7.497607 0.30635,-0.572421 0.28864,-0.773167 -0.13315,-1.509183 -1.1266,-1.965898 -1.10504,-1.966228 -2.96541,0.04544 -1.42732,1.543407 -5.00109,4.829561 -7.86268,7.229906 l -0.76241,0.639517 0.72994,1.17435 c 0.83533,1.343912 1.4559,2.100391 1.72303,2.100391 0.10158,0 1.23571,-0.982266 2.52029,-2.182813 z m -95.23066,-6.00902 c 0.86235,-0.430926 1.97371,-1.202171 2.46968,-1.713878 l 0.90175,-0.930377 -0.83946,-2.717893 c -1.32595,-4.292998 -1.74475,-7.183276 -1.73567,-11.97831 0.006,-3.045108 0.13254,-4.739224 0.45165,-6.035689 0.65239,-2.650432 0.62087,-2.739385 -0.64163,-1.810932 -8.25874,6.073551 -13.54118,16.325013 -11.13274,21.604954 0.94077,2.062406 2.53495,3.507477 4.54338,4.118414 0.36475,0.11095 1.50736,0.211961 2.53914,0.224469 1.57713,0.01912 2.12575,-0.102072 3.4439,-0.760758 z m 13.20304,-1.698842 c 0.46174,-0.33763 0.47199,-0.454308 0.13363,-1.521354 -0.20156,-0.635623 -0.86532,-2.346304 -1.47501,-3.801512 -0.6097,-1.455208 -1.30525,-3.330443 -1.54566,-4.167188 l -0.43711,-1.521354 h -2.93306 -2.93307 l 0.17755,1.256771 c 0.25268,1.788604 1.35451,5.894477 2.06031,7.677584 0.471,1.189915 0.79986,1.616356 1.52639,1.979296 1.16518,0.582075 4.67716,0.645348 5.42603,0.09776 z m 66.7581,-1.141202 c 5.18233,-2.985818 12.48253,-8.714272 12.48253,-9.795022 0,-0.49368 -0.2004,-0.423823 -1.00373,0.349883 -2.03623,1.96114 -7.2092,5.441075 -11.41019,7.675805 -1.56591,0.832993 -2.04726,1.383634 -1.7917,2.049624 0.217,0.565475 0.27015,0.556829 1.72309,-0.28029 z m -56.17684,-1.27156 c 5.09813,-0.677653 8.17654,-1.239628 9.08395,-1.658314 1.01684,-0.46917 1.37974,-1.226898 1.3364,-2.790368 -0.0169,-0.608991 -0.0855,-0.869131 -0.15237,-0.578089 -0.50097,2.178589 -0.63688,2.443298 -1.46939,2.861972 -1.4714,0.73997 -10.02495,2.129287 -12.22663,1.985921 -1.18809,-0.07737 -1.39077,-0.189719 -2.15583,-1.195059 -0.46445,-0.610317 -0.89982,-1.26516 -0.9675,-1.455208 -0.0677,-0.190048 -0.19755,-0.277434 -0.28858,-0.194191 -0.33682,0.307972 1.43374,2.659944 2.27899,3.027368 1.06774,0.464139 1.0386,0.464165 4.56096,-0.004 z m 81.59675,-2.624558 c 0.88809,-1.370918 1.6147,-2.719383 1.6147,-2.996588 0,-0.277205 -0.29852,-0.784457 -0.66338,-1.127228 -0.64999,-0.610632 -0.6712,-0.612899 -1.04992,-0.112267 -0.21259,0.281025 -0.39032,0.584399 -0.39495,0.674165 -0.005,0.08977 -0.66259,0.982735 -1.46215,1.984375 -0.79955,1.00164 -1.45439,1.906318 -1.4552,2.010395 -10e-4,0.184136 1.56345,2.059727 1.71852,2.059727 0.0427,0 0.80429,-1.121661 1.69238,-2.492579 z m -48.51626,1.553446 c 3.1922,-0.831461 8.98774,-4.006332 10.8372,-5.936758 l 0.74664,-0.779318 -0.69292,-1.001041 c -0.3811,-0.550573 -0.9848,-1.347561 -1.34156,-1.771086 l -0.64866,-0.770044 -1.66121,1.503308 c -0.91367,0.82682 -2.29832,1.815016 -3.077,2.195992 -1.26376,0.6183 -1.61227,0.674424 -3.24541,0.52264 -1.00628,-0.09352 -2.13124,-0.307481 -2.49992,-0.475458 -0.59652,-0.271793 -1.04185,-0.120828 -4.04544,1.37137 -1.85632,0.922232 -3.42748,1.717646 -3.49147,1.767587 -0.22164,0.17299 2.50177,2.768477 3.42363,3.262811 1.1631,0.623696 3.54715,0.669734 5.69612,0.109997 z m -29.35416,-1.429735 c 2.22972,-0.417749 4.19229,-0.844993 4.36127,-0.949432 0.50688,-0.31327 0.11593,-2.030578 -1.03242,-4.535019 -1.45146,-3.165494 -1.72524,-4.408518 -1.51732,-6.888961 0.0949,-1.132319 0.18737,-2.415949 0.20546,-2.852511 0.0346,-0.835231 -0.27381,-4.36635 -0.46506,-5.324319 -0.18778,-0.940624 -1.414,-1.248098 -4.1579,-1.042589 -5.60735,0.419972 -10.60687,1.979403 -11.42632,3.564058 -0.67914,1.313295 -0.94879,5.702345 -0.50723,8.255956 0.76138,4.403155 1.83546,7.092744 2.83957,7.11055 0.27378,0.0049 0.16475,-0.549885 -0.86544,-4.403357 -1.06567,-3.986147 -1.51391,-8.067116 -1.03882,-9.457945 0.19408,-0.568184 0.65522,-1.257313 1.02474,-1.531397 0.84736,-0.628499 5.26855,-1.440382 9.19765,-1.689004 2.46635,-0.156063 2.96278,-0.124749 2.96278,0.186889 0,0.694861 -1.70131,1.240032 -5.63495,1.805678 -2.15333,0.309643 -4.35599,0.706892 -4.89479,0.882776 -0.90212,0.294484 -0.98604,0.40812 -1.0606,1.436156 -0.19933,2.748503 1.88403,11.376647 3.54195,14.668834 l 0.94596,1.87843 1.73372,-0.177625 c 0.95355,-0.09769 3.55804,-0.51942 5.78775,-0.937168 z m 54.482,-1.605822 c 3.08305,-1.659967 6.66229,-4.147127 8.36776,-5.81464 1.09972,-1.075236 1.60749,-1.821664 1.94372,-2.857247 0.66313,-2.042444 0.13591,-3.488964 -0.81504,-2.236235 -0.32307,0.42559 -0.35217,0.411067 -0.3599,-0.179653 -0.005,-0.35347 -0.14739,-1.026996 -0.31724,-1.496723 -0.27853,-0.770255 -0.24182,-0.933686 0.37413,-1.665709 0.66097,-0.785512 1.42769,-2.595299 1.19717,-2.825818 -0.0622,-0.06225 -1.17544,0.670078 -2.47376,1.627391 -3.08267,2.272993 -7.21911,4.754399 -11.27129,6.761517 -1.79307,0.888145 -3.28438,1.634245 -3.31403,1.657999 -0.0296,0.02376 0.34188,1.303875 0.82561,2.844712 0.48372,1.540837 1.02958,3.441429 1.21302,4.223538 0.47013,2.004454 0.67353,2.196569 1.68654,1.593025 0.45465,-0.27088 1.77914,-1.00535 2.94331,-1.632157 z m -68.3777,-1.146607 c -0.82572,-1.840359 -1.20283,-2.264115 -0.91687,-1.030266 0.19441,0.838826 1.41927,3.074435 1.59059,2.903121 0.0632,-0.06324 -0.23994,-0.906026 -0.67372,-1.872855 z m 32.39437,-2.034383 c 4.20473,-1.3137 8.61658,-3.983983 11.30628,-6.843146 2.32701,-2.473628 3.4955,-4.559527 3.92013,-6.997951 0.27119,-1.55728 0.25189,-2.046895 -0.13738,-3.484952 -0.87192,-3.221143 -3.25643,-5.036636 -6.356,-4.83927 -1.46748,0.09344 -2.24104,0.379979 -5.83745,2.162255 -2.28019,1.129997 -4.75691,2.295418 -5.50383,2.589826 -2.78633,1.098268 -6.58962,3.240384 -7.93278,4.467959 -5.00197,4.57152 -3.76329,11.010305 2.55439,13.277934 1.78372,0.640237 5.34787,0.491785 7.98664,-0.332655 z m 24.87953,-2.957081 c 0.39446,-0.468789 0.89857,-1.232678 1.12025,-1.697532 0.38979,-0.817397 0.36915,-0.912812 -0.62754,-2.901889 -0.56682,-1.131186 -1.15889,-2.096786 -1.31571,-2.145778 -0.15683,-0.04899 -0.42895,0.226558 -0.60472,0.612333 -0.17578,0.385775 -0.73207,1.204793 -1.23622,1.820039 -0.87266,1.064967 -1.18933,1.990171 -0.68118,1.990171 0.1295,0 0.69505,0.713334 1.25677,1.585186 0.56173,0.871852 1.10003,1.586227 1.19624,1.5875 0.0962,0.0013 0.49765,-0.381241 0.89211,-0.85003 z m -9.58406,-0.465658 c 1.91371,-1.213641 6.00349,-5.393417 6.00349,-6.135604 0,-0.744123 -2.85864,-4.648184 -3.03197,-4.140777 -0.0657,0.192276 -0.2911,1.03066 -0.50093,1.863077 -0.63426,2.516179 -2.04309,4.796024 -4.573,7.400282 -0.66299,0.682468 -1.12742,1.367077 -1.03207,1.521354 0.3324,0.537833 1.88081,0.286721 3.13448,-0.508332 z m 33.98386,-0.56812 c 1.81208,-1.996443 5.33529,-7.153678 5.91869,-8.663708 0.78733,-2.037889 0.78291,-5.770177 -0.0113,-9.558502 -1.27748,-6.093443 -3.01581,-12.723989 -3.30225,-12.595841 -0.15989,0.07153 -1.24321,0.520801 -2.40738,0.998371 -1.16417,0.47757 -2.14758,0.882423 -2.18536,0.899673 -0.0378,0.01725 0.3908,1.93953 0.9524,4.271732 0.79211,3.28948 1.19317,4.466188 1.78848,5.247389 0.67959,0.891799 0.7674,1.22119 0.7674,2.878787 0,1.709352 -0.0785,1.980811 -0.90473,3.128506 -0.54938,0.763131 -1.03091,1.854295 -1.22599,2.778124 -0.17669,0.836761 -0.5595,2.116696 -0.8507,2.8443 l -0.52945,1.322917 0.63095,1.306096 c 0.34703,0.718354 0.63096,1.462494 0.63096,1.653646 0,0.191152 0.0552,0.347549 0.12273,0.347549 0.28824,0 2.26439,-2.311253 2.545,-2.976562 0.43976,-1.042653 1.03643,-0.938679 1.03643,0.180608 0,0.675839 -0.13539,0.951183 -0.52916,1.076163 -0.29104,0.09237 -0.52917,0.2571 -0.52917,0.36606 0,0.108961 -0.77391,1.05738 -1.71979,2.107599 -1.59387,1.76968 -2.06612,2.780356 -1.5434,3.303076 0.26651,0.266517 0.28178,0.256125 1.34565,-0.915983 z m 1.14468,-12.555717 c 0.0127,-0.308225 0.0754,-0.370919 0.15985,-0.159853 0.0764,0.190996 0.067,0.4192 -0.0209,0.507118 -0.0879,0.08792 -0.15045,-0.06835 -0.13896,-0.347265 z m -87.70165,12.517049 c 0.0711,-0.07111 -0.004,-1.661422 -0.16791,-3.534022 -0.16479,-1.887901 -0.21672,-4.553996 -0.11655,-5.984416 l 0.18064,-2.579688 h -1.86279 c -2.07855,0 -1.93115,-0.146757 -2.39171,2.38125 -0.60814,3.338103 -0.86593,9.088747 -0.43843,9.780452 0.15857,0.256571 0.77688,0.308442 2.43992,0.204688 1.22515,-0.07643 2.28572,-0.197153 2.35683,-0.268264 z m 71.86796,-5.068784 c 3.09724,-1.595309 5.89734,-3.333487 8.27218,-5.135015 2.5568,-1.939564 5.43505,-4.584015 5.78687,-5.316814 0.32445,-0.675771 0.29206,-1.871066 -0.0506,-1.867089 -0.099,0.0011 -1.2516,0.963925 -2.56128,2.1395 -3.93315,3.530395 -10.20607,7.333346 -16.47032,9.985106 -0.76398,0.323407 -1.38906,0.689226 -1.38906,0.81293 0,0.123704 0.17763,0.650032 0.39472,1.169618 l 0.39473,0.944701 1.42506,-0.652414 c 0.78378,-0.358828 2.67274,-1.295063 4.19769,-2.080523 z m -69.38303,-1.327777 c 0,-1.990729 0.48842,-3.666063 1.33191,-4.568597 1.10618,-1.183603 1.02513,-1.483776 -0.33972,-1.258289 -0.61846,0.102175 -1.15579,0.213408 -1.19407,0.247182 -0.0383,0.03377 -0.14594,1.567986 -0.23926,3.409357 -0.12428,2.451969 -0.0879,3.347949 0.13573,3.347949 0.18508,0 0.30541,-0.463967 0.30541,-1.177602 z m 64.46474,-1.080622 c 1.12882,-0.514418 2.09417,-0.977073 2.14521,-1.028121 0.10856,-0.108557 -2.137,-8.959217 -2.74083,-10.802717 -0.22641,-0.691224 -0.49138,-1.255335 -0.58882,-1.253581 -0.0974,0.0018 -1.238,0.358942 -2.53455,0.79375 -1.29656,0.434808 -2.51695,0.79056 -2.71198,0.79056 -0.43119,0 -0.44444,0.266345 -0.0616,1.239547 0.70677,1.79679 1.63539,4.351394 2.33858,6.433369 0.77849,2.304924 1.80867,4.7625 1.99638,4.7625 0.0579,0 1.02883,-0.420888 2.15764,-0.935307 z m -7.459,-1.247505 c -0.76788,-2.540734 -4.40948,-11.4598 -5.79669,-14.19732 -0.75202,-1.484052 -0.67693,-1.471791 -2.05216,-0.335094 -0.42232,0.349069 -0.40802,0.432286 0.21442,1.248355 0.65242,0.855361 1.68483,3.107619 3.40942,7.437831 0.51122,1.28358 1.36997,2.783911 2.12019,3.704166 0.69352,0.850712 1.38333,1.81464 1.5329,2.142062 0.14957,0.327422 0.37993,0.595312 0.5119,0.595312 0.13196,0 0.15898,-0.26789 0.06,-0.595312 z m -36.2393,-0.79375 c 0.0765,-0.327422 0.24569,-1.369219 0.37607,-2.315104 0.13038,-0.945886 0.27845,-1.890826 0.32905,-2.099869 0.0715,-0.295417 -0.17322,-0.363735 -1.09864,-0.30671 -0.65485,0.04035 -1.22991,0.111758 -1.27791,0.158683 -0.048,0.04692 0.0976,0.367472 0.32354,0.712328 0.22596,0.344856 0.4907,1.48628 0.5883,2.536498 0.17657,1.899793 0.49442,2.449706 0.75959,1.314174 z m 51.86168,-2.141633 c 3.27778,-2.074383 5.91595,-4.070366 7.89191,-5.970834 l 1.8065,-1.737477 -0.1763,-1.193517 c -0.34126,-2.310352 -1.79227,-8.035173 -2.13827,-8.436335 -0.047,-0.05449 -0.45994,0.216051 -0.91767,0.601198 -2.07573,1.746613 -7.78887,4.695973 -12.62448,6.517285 -0.6031,0.227154 -0.82754,0.456615 -0.73803,0.754544 0.0707,0.235468 0.73206,2.809374 1.4696,5.71979 0.73754,2.910416 1.39494,5.444658 1.46088,5.631648 0.14604,0.41411 0.89028,0.06012 3.96586,-1.886302 z m -47.17181,-1.843024 c 0.11009,-0.173152 0.20199,-0.566202 0.20422,-0.873444 0.003,-0.450239 -0.12121,-0.534677 -0.64157,-0.435203 -0.8888,0.169904 -1.46427,0.879375 -1.65209,2.036782 l -0.15843,0.976297 1.02385,-0.694805 c 0.56312,-0.382143 1.11393,-0.836475 1.22402,-1.009627 z m -11.3011,-2.926818 c 6.0748,-0.849969 13.25722,-2.113631 16.13958,-2.839568 7.2604,-1.828567 16.49361,-5.781601 20.50521,-8.778943 6.24938,-4.669336 9.37775,-10.307365 10.32542,-18.608711 0.79465,-6.961019 -1.8703,-15.8639764 -7.15822,-23.9139044 -2.11236,-3.215692 -4.33515,-5.8686386 -7.44096,-8.8809476 -3.22085,-3.123878 -4.38455,-3.997821 -4.78719,-3.59518 -0.16792,0.167913 -0.88077,0.305295 -1.58412,0.305295 -1.10873,0 -1.40199,-0.123168 -2.20486,-0.926041 -0.50932,-0.509323 -1.05668,-0.926042 -1.21635,-0.926042 -0.15967,0 -0.89985,-0.438664 -1.64483,-0.974809 -4.71139,-3.390666 -9.86213,-5.607773 -15.09259,-6.496527 -2.92729,-0.497401 -11.66291,-0.395202 -14.83692,0.173579 -14.26172,2.55569 -26.53572,10.604499 -34.3285,22.5112976 -3.17261,4.84750105 -5.73851,10.911464 -6.75143,15.9555584 l -0.49437,2.461808 -1.83472,1.109344 c -4.2418,2.564748 -6.17695,5.871364 -6.19389,10.583558 -0.0158,4.39561 1.97607,9.247313 5.12122,12.474053 4.99649,5.126103 13.9113,8.736693 26.09315,10.567989 4.19936,0.631289 4.26716,0.634103 13.62604,0.565536 7.79771,-0.05713 9.26874,-0.139174 13.75833,-0.767345 z M 852.85191,30.041835 c -0.90541,-0.761855 -1.27002,-1.955323 -0.8418,-2.755454 0.41645,-0.778151 1.20402,-0.672712 1.86039,0.249065 0.31086,0.436562 0.67427,0.79375 0.80759,0.79375 0.13331,0 0.62779,-0.344353 1.09883,-0.76523 0.8404,-0.750899 0.85658,-0.808547 0.86407,-3.0784 l 0.008,-2.313171 -1.24179,-0.36482 c -2.23783,-0.657446 -3.80379,-2.746752 -2.80633,-3.744212 0.50767,-0.50767 1.16754,-0.375649 2.63475,0.527131 1.90901,1.174627 3.38365,1.163371 5.29774,-0.04044 2.72011,-1.71072 2.81656,-1.752518 3.32046,-1.438963 0.73506,0.457397 0.71575,1.515397 -0.0442,2.418493 -0.3699,0.439606 -1.50429,1.200374 -2.52085,1.690594 l -1.8483,0.89131 -0.007,1.991649 c -0.007,2.204303 0.30332,2.903989 1.58373,3.566112 1.00011,0.51718 0.97516,0.524261 1.46062,-0.414501 0.32858,-0.635411 0.56612,-0.792145 1.10273,-0.727604 1.55321,0.186813 1.06478,2.536002 -0.72671,3.495203 -1.14078,0.610793 -2.40163,0.445594 -3.78999,-0.496569 l -0.94531,-0.641508 -1.35685,0.913088 c -1.66431,1.120002 -2.78589,1.190135 -3.90975,0.244477 z m -14.31306,-9.187118 c -0.63997,-0.329494 -1.51969,-1.106505 -1.97018,-1.740151 -0.69205,-0.973435 -0.82842,-1.432314 -0.91087,-3.064955 -0.0831,-1.645051 -0.002,-2.106445 0.56758,-3.220787 1.83849,-3.5984174 5.39779,-4.6751914 8.42147,-2.547698 2.24462,1.579344 2.85098,4.785775 1.40679,7.439219 -1.78744,3.284117 -4.79084,4.536815 -7.51479,3.134372 z m 6.3057,-5.423958 c 0.30673,-0.254662 0.6315,-0.845204 0.72173,-1.312316 0.13728,-0.71078 0.0328,-0.980482 -0.64031,-1.653646 -0.48711,-0.487111 -1.078,-0.80435 -1.49819,-0.80435 -1.00924,0 -1.9927,1.094516 -1.9927,2.217728 0,1.665737 2.11382,2.628315 3.40947,1.552584 z m 35.80657,3.484935 c -2.93195,-1.461056 -4.478,-5.07139 -3.41102,-7.965404 0.54557,-1.4797654 1.96597,-3.2143184 3.14044,-3.8350334 0.89017,-0.47046 1.57652,-0.603259 3.14261,-0.608053 1.76978,-0.0054 2.14044,0.0833 3.175,0.759922 1.59899,1.045772 2.52199,2.167371 3.0451,3.7003174 1.08458,3.1783 -0.74804,6.865467 -4.02095,8.090021 -1.95427,0.731184 -3.40052,0.690753 -5.07118,-0.14177 z m 7.06161,-6.303199 c 0.32834,-0.349499 0.66165,-1.117657 0.7407,-1.70702 0.12592,-0.9387784 0.0438,-1.1715134 -0.66279,-1.8780904 -1.28673,-1.286727 -3.07939,-1.051022 -3.8872,0.511099 -0.57771,1.1171714 -0.4937,1.9695424 0.28537,2.8954124 0.90394,1.074278 2.60164,1.16032 3.52392,0.178599 z M 845.56729,-3.5597194 c -0.62306,-0.62306 -0.52544,-1.333567 0.2691,-1.958547 0.96579,-0.759693 1.84987,-0.687899 2.76206,0.2243 0.62549,0.625481 0.72946,0.890088 0.54584,1.389062 -0.19446,0.528404 -0.43541,0.627587 -1.6879,0.694812 -1.07253,0.05757 -1.57487,-0.03541 -1.8891,-0.349627 z m 37.06227,-6.4899676 c -1.99001,-0.231398 -2.56532,-0.552606 -2.56532,-1.432297 0,-1.172837 1.91137,-2.036513 3.58007,-1.617697 1.5733,0.394874 2.56586,2.465508 1.46441,3.054986 -0.28147,0.1506406 -0.54936,0.2582446 -0.59531,0.2391196 -0.0459,-0.01913 -0.89368,-0.128975 -1.88385,-0.2441116 z m 28.07913,54.681733 c -0.33783,-0.51997 -0.74461,-0.996727 -0.90396,-1.05946 -0.15934,-0.06273 -0.81419,0.131989 -1.45521,0.432716 l -1.16549,0.546775 1.22138,0.195937 c 0.67175,0.107765 1.56472,0.376195 1.98437,0.596511 0.41965,0.220315 0.80129,0.362851 0.84808,0.316747 0.0468,-0.0461 -0.19133,-0.509256 -0.52917,-1.029226 z m 12.08576,-0.67366 c 5.73808,-2.051613 7.63783,-2.793781 10.31875,-4.031196 5.25721,-2.426532 9.65729,-4.987099 9.65729,-5.619927 0,-0.882811 -0.37074,-2.066662 -0.68497,-2.187243 -0.18983,-0.07284 -0.91704,0.306964 -1.61602,0.844019 -0.69899,0.537055 -2.69963,1.667255 -4.44588,2.511556 -3.20014,1.547246 -13.57668,5.76269 -15.69347,6.375429 -1.22121,0.353501 -1.24873,0.457805 -0.58284,2.20921 0.31728,0.834533 0.43965,0.830442 3.04714,-0.101848 z m -1.37653,-4.744233 c 1.55746,-0.634471 2.83174,-1.25645 2.83174,-1.382175 0,-0.22144 -1.5628,-4.27176 -1.70311,-4.41398 -0.0383,-0.03881 -0.67232,0.735092 -1.40894,1.719792 -0.73662,0.9847 -1.82603,2.261011 -2.42092,2.836248 -0.59489,0.575236 -1.08161,1.236033 -1.08161,1.468437 0,0.445894 0.53374,1.112582 0.79636,0.994715 0.0851,-0.0382 1.42903,-0.588566 2.98648,-1.223037 z m 6.00674,-2.447826 c 0,-0.161766 -0.43149,-1.441687 -0.95886,-2.844271 -1.52235,-4.048778 -1.27789,-5.234902 1.33515,-6.478183 0.81169,-0.386197 2.13464,-1.01567 2.93991,-1.398827 0.80526,-0.383157 1.4222,-0.738558 1.37098,-0.78978 -0.1786,-0.178601 -3.57485,1.254722 -4.96409,2.094997 -3.02205,1.827883 -3.42641,3.916136 -1.56003,8.056537 0.56486,1.253097 0.87761,1.653645 1.29118,1.653645 0.30017,0 0.54576,-0.132353 0.54576,-0.294118 z m 3.07654,-1.183708 c 0.56348,-0.23072 2.27466,-0.990398 3.80263,-1.688171 1.52796,-0.697773 3.10554,-1.399418 3.50572,-1.55921 0.92791,-0.37051 0.93036,-0.850079 0.0196,-3.834171 -0.8768,-2.872942 -1.37804,-3.333664 -3.07434,-2.825765 -2.74228,0.821088 -7.59477,3.715498 -7.59477,4.530125 0,0.66205 1.87411,5.796685 2.11576,5.796685 0.11047,0 0.66189,-0.188772 1.22536,-0.419493 z m 17.03179,-2.17706 c 2.06724,-1.016052 2.57427,-1.721373 1.73697,-2.416273 -0.33285,-0.276246 -0.5596,-0.245467 -1.26954,0.172329 -0.47537,0.279754 -1.48938,0.732924 -2.25337,1.007045 -1.1983,0.429956 -1.38906,0.594176 -1.38906,1.195789 0,1.35395 0.49098,1.360308 3.175,0.04111 z m -6.08741,-3.828902 c -0.006,-1.847665 -3.7038,-14.294754 -4.95234,-16.671278 -1.78702,-3.4014794 -5.16814,-5.4501254 -9.03074,-5.4717984 -0.96367,-0.0054 -1.12532,0.06511 -0.98537,0.429828 1.10704,2.8848944 1.20455,11.5520994 0.17611,15.6539024 -0.30332,1.209765 -0.5515,2.240812 -0.5515,2.291216 0,0.0504 0.56555,-0.178094 1.25677,-0.507773 4.72788,-2.254956 6.99167,-2.626993 9.38565,-1.542459 1.5282,0.692314 2.09808,1.571071 2.86158,4.412617 0.31665,1.178462 0.6297,2.232277 0.69567,2.341812 0.23358,0.387829 1.14614,-0.358744 1.14417,-0.936067 z m 3.8905,0.432116 c 0.0775,-0.201901 -0.12687,-1.082997 -0.45409,-1.957992 -0.32723,-0.874995 -0.52019,-1.665668 -0.42881,-1.757051 0.31727,-0.317271 1.19523,0.769959 1.65562,2.050253 l 0.46295,1.287422 1.04289,-0.584959 c 0.5736,-0.321727 1.09507,-0.720243 1.15884,-0.88559 0.0982,-0.254561 -0.83948,-3.819725 -1.15277,-4.383079 -0.10047,-0.180675 -4.51342,1.286821 -4.92251,1.636948 -0.17292,0.147995 0.71684,4.574327 1.01749,5.0618 0.17712,0.28717 1.4744,-0.08731 1.62039,-0.467752 z m -0.18434,-3.900228 c 0,-0.05719 0.18478,-0.17489 0.41062,-0.261553 0.23546,-0.09035 0.34166,-0.046 0.24897,0.103984 -0.15538,0.251408 -0.65959,0.371858 -0.65959,0.157569 z m 1.5875,-4.888988 c 0,-1.759316 -3.41427,-10.882027 -4.07271,-10.882027 -0.38467,0 -3.86479,2.596911 -3.86479,2.883953 0,0.114513 0.24419,0.911454 0.54265,1.77098 0.29845,0.859526 0.96373,3.049551 1.4784,4.866721 0.51467,1.817171 0.98826,3.388893 1.05243,3.492716 0.0642,0.103823 1.18482,-0.190176 2.49034,-0.65333 2.09793,-0.744272 2.37368,-0.916088 2.37368,-1.479013 z M 939.84137,9.7998226 c 0.88341,-0.586781 1.6062,-1.22501 1.6062,-1.418287 0,-0.761904 -2.9826,-4.566539 -5.27234,-6.725445 -3.71091,-3.498877 -10.04656,-6.777362 -14.63755,-7.574443 -1.2262,-0.212891 -1.25564,0.03492 -0.18841,1.586079 0.96869,1.407948 3.19229,6.063242 3.81598,7.989074 l 0.44985,1.389063 h 1.31281 c 1.98458,0 5.24916,0.750397 6.54899,1.505355 1.50384,0.873452 3.05425,2.284177 3.75314,3.415004 0.30609,0.4952614 0.65746,0.9004744 0.78082,0.9004744 0.12336,0 0.94709,-0.480094 1.83051,-1.0668744 z M 906.37918,-23.62969 c 2.72557,-2.6629 7.33853,-6.619872 10.06527,-8.633927 5.43618,-4.015338 10.06733,-6.785915 22.05751,-13.195845 7.93004,-4.23939 12.4486,-7.46871 15.66028,-11.19207 4.32425,-5.01318 5.28459,-9.86373 2.54569,-12.8579 -0.30493,-0.33335 -1.37608,-0.85434 -2.3892,-1.16207 -5.41346,-1.64429 -16.24172,1.29066 -27.01897,7.32336 -10.82541,6.05966 -21.17209,15.63022 -28.20437,26.088713 -1.57695,2.345266 -5.80676,9.790505 -5.7965,10.20291 0.003,0.121051 0.85118,0.634564 1.88482,1.14114 1.03364,0.506576 2.4791,1.316027 3.21212,1.79878 0.73302,0.482752 1.4029,0.775514 1.48861,0.650581 1.53412,-2.236063 5.29156,-6.651172 8.35678,-9.819456 8.15557,-8.429798 16.97312,-14.844778 28.66911,-20.857458 3.23866,-1.66493 4.53574,-2.20372 5.15938,-2.14315 0.68596,0.0666 0.83307,0.19551 0.83307,0.72989 0,0.56753 -0.49819,0.91042 -3.96875,2.73164 -12.82054,6.72774 -21.99882,13.50973 -30.71907,22.698879 -2.09812,2.210928 -6.45488,7.653817 -6.45488,8.064051 0,0.175162 0.3852,0.505037 0.85601,0.733056 0.99456,0.481678 0.78135,0.612052 3.76309,-2.301124 z m 40.64553,-34.185032 c 0.0127,-0.30823 0.0754,-0.37092 0.15986,-0.15985 0.0764,0.19099 0.067,0.4192 -0.0209,0.50711 -0.0879,0.0879 -0.15046,-0.0683 -0.13897,-0.34726 z m -89.78832,31.222517 c 0.84089,-0.375001 2.89812,-1.072969 4.57161,-1.55104 l 3.0427,-0.869219 1.46469,-2.880731 c 2.94354,-5.7893 5.01622,-9.299917 8.41787,-14.257817 4.3192,-6.2952 7.70305,-10.2641 8.63694,-10.13022 1.01915,0.14611 0.75447,1.11654 -0.85921,3.15015 -2.25466,2.84142 -6.13767,8.28104 -7.94206,11.12586 -3.11813,4.916075 -6.95034,11.945975 -6.66278,12.222383 0.21053,0.202369 3.0229,-0.339656 3.10944,-0.59928 0.0458,-0.137493 1.04729,-1.658146 2.22548,-3.37923 2.22244,-3.24653 6.20468,-8.307013 11.72777,-14.903203 7.87714,-9.40761 11.2937,-15.72173 11.67988,-21.58546 0.39911,-6.05995 -2.11211,-9.41598 -6.38885,-8.53819 -6.60407,1.35547 -16.53861,10.70114 -24.006,22.58303 -4.4722,7.11604 -7.38969,14.11759 -9.49609,22.789195 -1.00191,4.124693 -1.54819,7.505592 -1.21273,7.505592 0.0893,0 0.85045,-0.306819 1.69134,-0.68182 z"
       id="path324" /></g></svg>
