<?xml version="1.0" encoding="UTF-8" standalone="no"?>
<!-- Created with Inkscape (http://www.inkscape.org/) -->

<svg
   width="215.65195mm"
   height="230.27649mm"
   viewBox="0 0 215.65198 230.27647"
   version="1.1"
   id="svg1"
   xml:space="preserve"
   xmlns="http://www.w3.org/2000/svg"
   xmlns:svg="http://www.w3.org/2000/svg"><defs
     id="defs1" /><g
     id="layer1"
     transform="translate(-808.88505,120.79116)"><path
       style="fill:#000000"
       d="m 907.06432,109.42593 c -20.55783,-0.87735 -30.83313,-3.19763 -37.96771,-8.57354 -1.38082,-1.040442 -1.52384,-1.088093 -2.79773,-0.932123 -1.72793,0.211563 -5.58023,-0.268622 -7.63539,-0.951736 -5.87607,-1.953146 -14.90087,-10.185761 -17.24748,-15.73351 -1.09148,-2.580442 -1.47046,-5.606468 -0.89252,-7.126556 0.19478,-0.512317 0.14417,-1.294923 -0.18814,-2.909337 -0.39413,-1.914774 -0.41261,-2.540874 -0.13894,-4.707666 0.77528,-6.138328 3.88742,-11.324085 8.6797,-14.462992 2.72656,-1.785877 5.32161,-2.512844 8.97571,-2.514415 3.26638,-0.0014 4.62123,0.342926 7.61104,1.934316 l 1.79021,0.952875 1.07857,-1.078568 1.07856,-1.078567 -1.81044,-0.992823 c -3.54747,-1.945388 -6.8233,-4.462937 -10.14832,-7.799214 -6.47508,-6.497015 -10.01275,-13.008949 -11.93817,-21.975128 -0.53444,-2.488783 -0.5981,-3.535926 -0.61119,-10.054167 -0.016,-7.9664338 0.24408,-10.50497341 1.69416,-16.5364571 2.08862,-8.6874429 5.30974,-16.2486879 10.20058,-23.9447899 2.31956,-3.649999 6.72307,-9.644045 8.74789,-11.907597 2.55563,-2.856941 2.46271,-2.471924 0.82301,-3.410069 -0.79028,-0.452148 -2.46208,-1.586424 -3.71512,-2.520614 l -2.27825,-1.698527 -0.27475,1.103299 c -2.18737,8.783547 -6.77122,16.436966 -12.30726,20.548793 -5.23111,3.885347 -12.37622,5.696886 -18.35779,4.654356 -8.69396,-1.515271 -14.59381,-7.890073 -18.14497,-19.605681 -2.0555,-6.781293 -2.73305,-12.57017 -2.26115,-19.31884 1.04767,-14.982633 6.3352,-28.769487 15.31934,-39.944072 2.1484,-2.67221 6.98836,-7.60143 9.29468,-9.46609 11.43173,-9.24257 25.64174,-12.47904 37.26868,-8.48829 6.63418,2.27706 12.18357,6.40633 17.55587,13.0632 4.59587,5.69478 10.11276,16.975111 13.28613,27.165991 1.00147,3.216123 2.79765,11.211366 2.79765,12.453092 0,0.423696 0.0612,0.831519 0.13591,0.906274 0.0748,0.07475 1.41421,-0.08401 2.97657,-0.352818 7.80356,-1.342612 14.62915,-1.758213 21.36147,-1.300673 4.23982,0.288144 9.47411,0.921386 10.3296,1.249669 0.32676,0.125387 0.38603,-0.409559 0.38603,-3.484242 0,-9.613602 2.99792,-19.458814 8.29722,-27.2482 2.36739,-3.479793 7.05274,-8.081223 10.60355,-10.413613 5.82493,-3.82618 12.39153,-6.33173 19.5961,-7.47707 3.27182,-0.52013 10.13341,-0.46264 12.77363,0.10703 6.43489,1.38842 12.03794,4.32657 17.43944,9.14486 7.5706,6.753303 13.4025,15.79086 15.4827,23.993277 0.5181,2.042915 0.602,3.052754 0.604,7.26739 0,4.551629 -0.049,5.080285 -0.7357,7.540625 -1.61,5.77179 -4.8432,10.655763 -9.2009,13.898383 -2.3592,1.755557 -5.6668,3.293616 -8.8465,4.113773 -2.4497,0.631844 -2.9597,0.673189 -6.87917,0.557629 -4.70281,-0.138655 -6.9051,-0.585187 -10.45448,-2.119735 l -2.03627,-0.880365 -0.63379,0.52377 c -0.87705,0.724802 -4.55317,2.423831 -6.38848,2.952628 -0.83675,0.241087 -1.51187,0.519188 -1.50028,0.618003 0.0116,0.09881 1.09008,1.132163 2.39662,2.296329 4.21527,3.75592 9.22762,9.648601 12.05022,14.166614 3.20443,5.129212 6.15918,12.788 7.60024,19.700051 1.13559,5.4470445 1.59899,16.0951302 0.95029,21.837535 -0.93591,8.285241 -3.93162,16.685286 -7.96559,22.335831 -2.14204,3.000438 -7.9031,8.899345 -9.64152,9.872212 -0.38934,0.217886 -0.32687,0.396896 0.53055,1.520176 1.14248,1.496719 2.13785,3.394754 2.81986,5.377052 0.3857,1.121055 0.92711,1.853824 2.54853,3.449309 3.03699,2.98841 4.82931,6.947802 4.82931,10.668388 v 1.527454 l 1.38906,0.69753 c 3.61485,1.81523 6.8768,4.880955 8.2032,7.70984 0.6803,1.450794 0.7881,2.019275 0.8866,4.676066 0.097,2.615627 0.035,3.232888 -0.4557,4.566127 -2.1055,5.715488 -9.23149,11.769548 -19.24815,16.35281 -10.06004,4.603108 -24.63594,7.903408 -40.38439,9.143908 -3.30528,0.26036 -32.94663,0.54768 -37.30624,0.36162 z m 44.18541,-4.74663 c 8.37604,-0.98468 17.77767,-3.00728 24.34167,-5.236692 5.51401,-1.872796 6.48229,-2.41402 6.48229,-3.623317 0,-1.089972 0.53245,-2.111099 1.1008,-2.111099 0.40044,0 0.4867,0.21102 0.4867,1.190625 0,0.654843 0.0899,1.190625 0.19974,1.190625 0.38916,0 5.78465,-3.249567 8.25363,-4.970956 3.23633,-2.256387 6.53018,-5.556119 7.51804,-7.531448 1.3798,-2.759108 1.1785,-6.18451 -0.53523,-9.108838 -0.91985,-1.569597 -3.6392,-4.025189 -5.62933,-5.083325 -2.97326,-1.580849 -4.92033,-1.192217 -8.10665,1.618072 -0.71683,0.632234 -2.07723,1.780202 -3.02312,2.551039 -2.93673,2.39325 -4.90304,4.462071 -5.54629,5.83544 l -0.61685,1.317014 -1.64948,-0.15403 c -2.72521,-0.254484 -4.82349,0.559006 -10.36296,4.017657 -1.21688,0.759777 -1.38406,0.790979 -3.90591,0.728996 -5.20652,-0.127968 -9.20619,1.07759 -10.90767,3.28773 l -0.64801,0.841726 0.58321,2.378067 c 0.54937,2.240041 0.55282,3.435604 0.009,3.099475 -0.13223,-0.08172 -0.32598,-0.892941 -0.43056,-1.802707 -0.10458,-0.909766 -0.26788,-1.713652 -0.36288,-1.786412 -0.095,-0.07276 -0.37337,-0.447936 -0.61859,-0.833724 -0.51913,-0.816709 -3.40535,-2.341276 -4.43236,-2.341276 -0.38769,0 -1.94625,0.186223 -3.46347,0.413829 -1.69716,0.254599 -3.36941,0.348224 -4.34608,0.243327 -1.83501,-0.197085 -7.88248,-1.508406 -10.57284,-2.292589 -1.85547,-0.540833 -1.94587,-0.541586 -6.22821,-0.05186 -1.08013,0.123523 -1.32379,0.03638 -2.62567,-0.939018 -2.88055,-2.158174 -3.69081,-2.369156 -8.11309,-2.112534 -1.1896,0.06903 -1.54677,-0.04866 -3.07307,-1.012606 -3.17202,-2.003312 -8.24593,-3.817958 -10.79441,-3.860546 -1.51342,-0.02529 -1.88519,0.07539 -3.09814,0.838982 -1.54937,0.975386 -2.90866,2.677024 -3.97337,4.97412 -0.60089,1.296411 -0.71945,1.917807 -0.72477,3.798897 -0.0115,4.05932 1.24948,5.371193 7.49874,7.801414 4.6859,1.822258 17.64474,5.776772 21.70163,6.622462 l 0.89888,0.18738 -0.18482,-0.88948 c -0.50166,-2.414282 -0.50865,-3.386506 -0.0257,-3.571841 0.9181,-0.352309 1.30898,0.261749 1.59747,2.509601 0.1519,1.18361 0.39045,2.26555 0.5301,2.40432 0.13965,0.13876 1.92079,0.4913 3.95808,0.78342 3.20194,0.45911 5.43452,0.67396 12.43542,1.19673 2.69761,0.20143 13.07649,-0.12545 16.40416,-0.51665 z m 25.91042,-7.379726 c -0.21462,-0.855117 0.42022,-2.136174 1.0586,-2.136174 0.60611,0 1.06981,1.184569 0.83302,2.128021 -0.23407,0.932622 -1.65805,0.93876 -1.89162,0.0082 z m -59.88217,-4.220061 c -0.28377,-0.341918 -0.28618,-0.673433 -0.0132,-1.813102 0.18372,-0.767073 0.49546,-1.781631 0.69274,-2.254573 0.34716,-0.83224 0.95157,-1.122899 1.26854,-0.610038 0.2447,0.395928 -0.64544,3.916308 -1.1468,4.535466 -0.40892,0.504989 -0.4885,0.519116 -0.80127,0.142247 z m -27.34543,-0.450847 c -1.0024,-0.583841 -0.28609,-2.482889 0.87472,-2.319039 0.54584,0.07705 0.64043,0.226441 0.60682,0.958467 -0.0373,0.811871 -0.47677,1.656508 -0.85248,1.638302 -0.0913,-0.0044 -0.3744,-0.129404 -0.62906,-0.27773 z m 8.65791,-5.017526 c -0.19225,-0.311059 0.54914,-1.575865 0.92372,-1.575865 0.45002,0 0.54739,0.485149 0.23499,1.170799 -0.31997,0.702254 -0.85865,0.890569 -1.15871,0.405066 z m 80.20586,-2.947194 c 0.0764,-0.123641 0.24977,-0.156302 0.38523,-0.07258 0.34618,0.213949 0.3072,0.297382 -0.13893,0.297382 -0.21188,0 -0.32272,-0.101161 -0.2463,-0.224802 z m 17.92459,-0.276277 c -0.3171,-0.513079 -0.84724,-3.64406 -0.61702,-3.64406 0.11409,0 0.57584,0.556194 1.02611,1.235986 0.9562,1.4436 1.10015,2.732764 0.30514,2.732764 -0.28246,0 -0.60386,-0.146111 -0.71423,-0.32469 z m -18.38272,-0.122716 c -0.0172,-0.117729 -0.0138,-0.313602 0.008,-0.435274 0.0214,-0.121672 -0.20261,-0.284386 -0.49783,-0.361588 -0.48896,-0.127866 -0.58254,-0.270581 -0.51306,-0.782468 0.013,-0.09606 -0.16555,-0.280569 -0.39687,-0.410022 -0.43565,-0.243799 -0.57795,-0.738242 -0.21248,-0.738242 0.37908,0 2.17046,2.616267 1.9041,2.780885 -0.14307,0.08842 -0.27422,0.06444 -0.29145,-0.05329 z m -67.84752,20.583817 c -0.13824,-0.13008 -1.56104,-0.55193 -3.16177,-0.93746 -6.50129,-1.56579 -14.61077,-4.330964 -18.61428,-6.3471 -1.06309,-0.535364 -2.45924,-1.458559 -3.10255,-2.051543 -3.28959,-3.032237 -3.94123,-8.51837 -1.58238,-13.321979 1.09134,-2.222406 2.86899,-4.109126 4.61513,-4.898281 0.76467,-0.34559 1.46492,-0.898678 1.75105,-1.383066 0.26225,-0.443949 1.76845,-2.530017 3.34711,-4.635707 1.57866,-2.105689 2.8703,-3.931645 2.8703,-4.05768 0,-0.126034 -0.43653,-0.712335 -0.97006,-1.30289 -2.13073,-2.358468 -4.85007,-3.246966 -10.01015,-3.270651 -2.07373,-0.0095 -4.01745,0.127654 -4.89479,0.345437 -2.60718,0.647179 -5.24995,2.123563 -7.2608,4.056249 -1.02619,0.986293 -1.95543,1.793261 -2.065,1.793261 -0.10956,0 -0.1992,-0.248431 -0.1992,-0.552068 0,-0.861845 2.91704,-3.691614 5.21032,-5.054448 4.1479,-2.46497 7.61184,-3.485727 11.8553,-3.493526 4.15302,-0.0076 7.41689,1.079211 9.37847,3.122963 0.83984,0.875023 1.0322,0.949996 2.43747,0.949996 2.84262,0 5.56571,-1.498808 6.72987,-3.704167 0.33367,-0.63209 0.48646,-1.471951 0.48136,-2.645833 -0.0188,-4.331602 -3.61748,-8.210083 -8.73568,-9.415012 -2.71443,-0.639032 -7.24855,-0.404053 -9.96633,0.5165 -2.40126,0.813342 -2.30953,0.800144 -2.30953,0.332328 0,-0.547572 3.29274,-2.167305 5.67222,-2.790221 3.11538,-0.815565 7.20706,-0.769201 9.8303,0.11139 2.51987,0.845891 3.87968,1.700453 5.5487,3.48702 l 1.33977,1.434127 1.28709,-1.666712 c 0.7079,-0.916691 1.90127,-2.440617 2.65194,-3.386503 4.65017,-5.859462 9.70309,-12.303821 12.31908,-15.711419 1.66252,-2.165603 3.64785,-4.749971 4.41183,-5.743038 0.76399,-0.993068 1.38906,-1.851505 1.38906,-1.907638 0,-0.05613 -0.47312,-0.24381 -1.05138,-0.417061 -1.7309,-0.518593 -3.4556,-3.312672 -2.58326,-4.185007 0.35934,-0.359345 0.52367,-0.283007 1.5552,0.722465 1.32702,1.293495 2.45791,1.8417 3.79924,1.8417 1.97683,0 3.63987,-1.260355 4.45829,-3.378792 0.61796,-1.599529 0.56873,-1.772878 -0.66087,-2.327349 -1.09166,-0.492273 -2.07476,-1.696088 -2.07664,-2.542885 -5.5e-4,-0.244099 0.31272,-0.690584 0.69615,-0.992187 1.27469,-1.002671 5.373,-0.542984 7.07168,0.793194 1.41387,1.112154 0.44419,3.38435 -1.47294,3.451455 -1.69846,0.05945 -1.66109,0.02903 -1.74899,1.423981 -0.12092,1.919017 0.13383,2.899916 0.99165,3.818213 0.61892,0.662549 0.96855,0.812703 1.89241,0.812703 0.62327,0 1.65596,-0.253049 2.29485,-0.562331 1.49246,-0.722487 1.9557,-0.399695 1.32487,0.923176 -0.4855,1.018115 -2.25418,2.020405 -3.56528,2.020405 -0.85157,0 -1.13539,0.359924 -1.13539,1.439809 0,0.435711 0.82146,1.328043 2.9638,3.219506 1.63009,1.439199 4.93775,4.402663 7.35036,6.585476 2.41261,2.182812 5.39492,4.854293 6.62735,5.936623 1.23243,1.08233 2.83875,2.539779 3.56961,3.238775 l 1.32884,1.270902 1.21984,-1.276833 c 1.73366,-1.814651 3.27943,-2.484256 6.07036,-2.629595 2.63671,-0.137308 4.38852,0.274865 6.95497,1.636394 1.65938,0.880318 1.86107,1.261512 0.93088,1.759334 -0.3825,0.20471 -1.03651,0.105507 -2.63643,-0.399907 -3.63681,-1.14887 -7.37107,-0.802151 -8.74368,0.811835 -0.98935,1.163326 -1.3006,3.503401 -0.72259,5.432633 0.44258,1.477208 1.86757,3.014874 3.30142,3.562465 l 1.22163,0.466544 0.55419,-0.776461 c 2.42913,-3.403356 7.14084,-4.774801 12.57146,-3.6592 0.84606,0.173803 0.88062,0.151438 0.69792,-0.451575 -0.68354,-2.255954 -2.98235,-5.606599 -4.66493,-6.799398 -0.55411,-0.392812 -1.06252,-0.851295 -1.1298,-1.018851 -0.0673,-0.167556 0.97076,-1.117589 2.30675,-2.111183 3.03765,-2.259129 6.75252,-5.93089 8.79971,-8.697573 5.81503,-7.858771 8.82128,-20.42913 7.81437,-32.6751356 -0.62,-7.5405907 -2.52634,-15.5735844 -5.02431,-21.1716474 -3.38697,-7.59037 -10.49501,-16.360906 -18.42138,-22.729967 -5.01407,-4.028942 -13.46475,-8.938087 -17.65702,-10.257264 -1.58332,-0.498225 -1.89237,-0.827921 -0.99582,-1.062373 0.67265,-0.175902 0.66522,-0.291458 -0.11905,-1.852924 -1.25232,-2.493307 -1.64961,-6.208979 -1.21042,-11.320613 0.69183,-8.052065 2.75126,-14.271486 6.66174,-20.118333 2.87804,-4.303167 5.87315,-6.648156 9.29724,-7.279169 1.81488,-0.334459 3.65213,0.0907 5.31785,1.230588 l 1.02965,0.70462 -0.18997,-0.762602 c -0.30374,-1.219325 -1.61538,-3.321537 -2.77918,-4.454319 -0.59099,-0.57524 -1.07453,-1.20031 -1.07453,-1.38906 0,-1.079 3.5127,0.46642 4.89529,2.153696 1.09587,1.337363 2.27019,3.860161 2.90201,6.234372 0.62784,2.359322 0.80379,8.153942 0.43181,14.221021 -0.69268,11.297465 1.46521,18.352145 7.01338,22.928537 4.47078,3.687706 11.00639,5.263926 16.50747,3.981183 2.8923,-0.674421 6.7587,-2.733815 8.9615,-4.773304 4.2889,-3.970836 6.3859,-8.507005 7.2159,-15.609102 1.0603,-9.073192 -3.7315,-19.73017 -13.0062,-28.925693 -7.18153,-7.1203 -13.91417,-10.08012 -22.92418,-10.07805 -6.93491,0.002 -12.87054,1.60989 -19.49722,5.28286 -9.71997,5.38748 -16.01334,13.967978 -18.92658,25.804839 -1.25691,5.106964 -1.51783,11.264184 -0.71608,16.897878 0.24574,1.726749 0.40379,3.182548 0.35123,3.235109 -0.0526,0.05256 -1.06325,-0.201615 -2.24599,-0.564836 -3.11812,-0.957582 -6.56674,-1.638771 -10.78213,-2.129736 -4.57773,-0.533168 -14.41991,-0.387235 -18.52083,0.274613 -5.15988,0.832753 -10.31873,2.253716 -10.91506,3.006465 -0.20518,0.259008 -0.42124,0.323232 -0.56641,0.168369 -0.12909,-0.1377 -0.55877,-2.155363 -0.95485,-4.483696 -1.46852,-8.632626 -4.28856,-18.334752 -7.26747,-25.003124 -7.1165,-15.930511 -15.82857,-24.758041 -27.21423,-27.574871 -3.03941,-0.75196 -8.42552,-0.80662 -11.68719,-0.1186 -7.98976,1.68536 -15.47313,5.74401 -21.79096,11.81847 -10.88556,10.466215 -17.50493,23.478703 -19.91961,39.158333 -0.68875,4.472381 -0.63579,11.572204 0.11743,15.742708 2.8427,15.739778 8.62362,22.929668 18.97127,23.595078 6.56565,0.422207 13.53458,-3.044749 17.81248,-8.861494 4.48279,-6.09533 6.76304,-13.390908 9.56679,-30.608583 1.98351,-12.180591 2.91139,-15.709481 5.56556,-21.166666 2.76291,-5.68075 6.48105,-10.649237 9.10182,-12.162589 2.96241,-1.710627 5.44034,-1.494367 7.59782,0.66312 1.92588,1.925878 5.41276,9.373678 9.22379,19.701552 4.26423,11.556029 5.45256,17.599698 4.0147,20.418137 -0.77574,1.520576 -2.42226,2.847597 -5.2038,4.194031 -8.36315,4.048276 -12.35384,3.272826 -21.50194,-4.178143 -2.67443,-2.17827 -5.10487,-3.969575 -5.22412,-3.850323 -0.0522,0.05222 -0.42895,2.101367 -0.83716,4.553649 l -0.74221,4.458696 1.32042,1.202525 c 1.62093,1.476193 5.6458,4.114342 8.3969,5.503841 1.12716,0.569297 2.04685,1.094617 2.04375,1.167377 -0.003,0.07276 -1.38006,1.97776 -3.05991,4.233333 -9.73208,13.067476 -13.03236,18.375486 -16.13499,25.95079 -2.12306,5.183612 -3.77847,11.0251345 -4.79256,16.9117079 -0.37524,2.1781928 -0.47685,4.1779664 -0.4705,9.2604161 0.008,6.024921 0.0585,6.718136 0.72289,9.824901 1.60235,7.493026 4.16633,12.535717 9.28636,18.263822 4.67309,5.228091 10.13199,8.920376 18.09463,12.238832 3.4361,1.432002 3.26023,1.741193 -0.99038,1.741193 h -2.60076 l -1.63742,1.785937 c -4.01169,4.375559 -6.6723,9.700074 -8.10482,16.21964 -0.38016,1.730192 -0.49109,3.340688 -0.49109,7.129838 0,4.292601 0.0767,5.187749 0.6238,7.276041 2.28965,8.740308 8.20535,14.008998 18.69078,16.64655 3.72203,0.93625 7.69236,1.38849 17.72039,2.01841 4.7985,0.30142 8.77717,0.60066 8.84149,0.66498 0.0643,0.0643 0.47809,0.11693 0.91951,0.11693 0.48259,0 0.70235,-0.0943 0.55121,-0.2365 z M 854.73624,31.861357 c -0.9724,-1.074494 -1.1249,-2.764425 -0.27876,-3.089119 0.86697,-0.33269 2.20371,1.023427 2.20371,2.235662 0,1.252896 -1.11577,1.747591 -1.92495,0.853457 z m 108.18631,-7.503709 c -3.77899,-0.887156 -6.79061,-4.155335 -7.94916,-8.626326 -0.52128,-2.011657 -0.53873,-6.466038 -0.0346,-8.8442579 1.00048,-4.7202407 3.56404,-8.9029861 6.80576,-11.1043971 2.21849,-1.5065485 3.43191,-1.8904304 6.04169,-1.9113768 1.87622,-0.015059 2.49214,0.093918 3.71624,0.6575351 1.93107,0.889132 3.20715,2.0422018 4.35962,3.9393655 3.58268,5.8977307 3.45288,14.8652352 -0.2954,20.4081212 -2.05606,3.040466 -4.4578,4.782183 -7.59171,5.505425 -1.35651,0.313056 -3.66312,0.302058 -5.05239,-0.02409 z m -2.25976,-11.856183 c 0.97189,-0.971884 1.01678,-2.061725 0.12457,-3.0244253 -1.35462,-1.461669 -3.85653,-0.5042572 -3.8432,1.4706923 0.0143,2.113419 2.23223,3.040138 3.71863,1.553733 z M 972.4164,8.5702264 c 1.41926,-0.9690296 2.51445,-3.1210338 2.51095,-4.9339529 -0.005,-2.6068365 -1.7096,-5.0624204 -3.98801,-5.7450484 -2.28704,-0.6852133 -4.91169,1.40386767 -5.53481,4.4054005 -0.64223,3.093599 0.91989,6.4426792 3.3077,7.0914832 0.9938,0.2700313 2.64465,-0.094477 3.70417,-0.8178824 z M 898.46536,21.857925 C 892.82572,20.6423 888.1553,16.041401 886.79821,10.364446 c -0.5236,-2.1903395 -0.46049,-6.6371846 0.12768,-8.9958328 1.0638,-4.2660008 3.95408,-8.4834762 7.38761,-10.7799625 2.48354,-1.6610947 4.71563,-2.4340497 7.59144,-2.6288567 6.64155,-0.449897 11.7065,3.2222366 13.93299,10.1015278 0.54294,1.6775709 0.71237,2.83085442 0.81675,5.5594194 0.16951,4.4314823 -0.27748,6.7626838 -1.94773,10.1581268 -3.17563,6.455697 -9.40263,9.553197 -16.24159,8.079057 z m 9.79824,-7.661499 c 2.4724,-1.278528 1.82043,-4.9850442 -0.9347,-5.3138888 -1.37915,-0.1646112 -2.26138,0.3151764 -2.87156,1.5616488 -1.27391,2.602365 1.23914,5.079751 3.80626,3.75224 z M 896.75759,6.8045978 c 0.44974,-0.4497356 0.64944,-0.9432304 0.64944,-1.604894 0,-1.2981805 -0.40263,-1.9531383 -1.47651,-2.4018321 -0.78417,-0.3276466 -1.02532,-0.3276466 -1.80949,0 -1.61655,0.6754397 -1.97836,2.4316411 -0.79153,3.8421077 0.90134,1.071172 2.4473,1.14541 3.42809,0.1646184 z m 13.42872,-2.9543489 c 1.98551,-1.005422 2.89728,-2.5797612 2.89728,-5.0026875 0,-2.806828 -1.39404,-5.1087875 -3.82847,-6.3219174 -2.15191,-1.07234 -3.61666,-0.8105761 -5.05954,0.9041831 -2.26904,2.6966052 -1.13777,8.7445672 1.93857,10.3639177 1.1399,0.6000332 2.92952,0.6249879 4.05216,0.056504 z m 53.02615,-29.2073959 c -1.44471,-1.136406 -1.94637,-4.387729 -0.8057,-5.221808 1.51019,-1.104276 4.05651,1.151079 4.05651,3.592974 0,1.823121 -1.83496,2.742539 -3.25081,1.628834 z m -56.59362,-6.967224 c -0.24502,-0.186261 -0.52534,-0.656821 -0.62294,-1.045687 -0.41778,-1.664599 2.59315,-4.684243 4.67073,-4.684243 3.47838,0 2.28228,4.020702 -1.68983,5.680355 -1.16723,0.487699 -1.76511,0.500269 -2.35796,0.04957 z M 864.33411,95.929198 c 0,-0.08813 -0.3019,-0.519028 -0.67088,-0.957543 -1.10749,-1.316173 -2.98065,-5.478699 -3.55144,-7.891964 -0.76589,-3.23819 -1.13703,-7.375823 -0.93617,-10.437123 0.37875,-5.772718 2.14737,-12.13503 4.64857,-16.722432 0.5715,-1.048172 1.03909,-1.976775 1.03909,-2.063563 0,-0.439034 -4.1627,-2.074526 -5.92712,-2.328716 -2.27715,-0.328056 -5.24126,0.132421 -7.40149,1.149828 -1.93247,0.910138 -4.17793,3.132243 -5.26555,5.210773 -2.30744,4.409689 -2.66909,8.467364 -1.04747,11.752288 0.45584,0.923398 1.41876,2.409352 2.13983,3.30212 0.72106,0.892768 1.44579,1.875034 1.61051,2.182813 0.27449,0.512891 0.23213,0.559597 -0.50756,0.559597 -0.44388,0 -1.51989,-0.198185 -2.39113,-0.44041 -0.87123,-0.242226 -1.65152,-0.372958 -1.73396,-0.290516 -0.28322,0.28322 1.12988,3.828808 2.12122,5.32233 2.77655,4.183041 8.22562,7.314845 12.7272,7.314845 0.84183,0 1.1776,0.10731 1.1776,0.376356 0,0.471758 -1.3296,0.9108 -2.992,0.987977 -0.69971,0.03248 -1.32709,0.147875 -1.39418,0.256424 -0.20763,0.335954 3.63111,2.073509 5.44451,2.464389 1.89908,0.409347 2.91042,0.497097 2.91042,0.252527 z m 84.8691,-10.44637 c 1.96991,-1.196765 3.63156,-1.76697 7.65317,-2.626239 2.30122,-0.491686 2.89983,-0.532419 4.08598,-0.278035 1.3348,0.286263 1.4322,0.267669 2.46315,-0.470217 2.67281,-1.913029 7.24917,-3.745978 9.35266,-3.745978 h 0.79455 l 0.0988,-2.182812 c 0.12648,-2.79555 0.96439,-4.681377 2.97208,-6.689068 2.3281,-2.328105 4.84306,-3.115975 7.53524,-2.360589 1.58584,0.444965 3.66706,0.437664 3.51263,-0.01232 -0.1396,-0.406747 -12.63365,-7.276041 -13.23386,-7.276041 -0.0952,0 -0.13195,0.922734 -0.0818,2.050521 0.12892,2.896873 -0.58282,4.720684 -2.62257,6.720186 -3.0296,2.969831 -7.22956,4.200789 -11.39445,3.33958 -2.60046,-0.537716 -5.02295,-1.644884 -7.10584,-3.247624 -1.95515,-1.504456 -2.5752,-2.311109 -3.96518,-5.158497 -1.0876,-2.227937 -1.09699,-2.272452 -1.00486,-4.762499 0.0795,-2.14954 0.21304,-2.769478 0.92197,-4.280855 1.9471,-4.151053 5.37683,-6.350316 10.34617,-6.634335 l 1.13759,-0.06502 -4.16078,-3.704167 c -9.995,-8.898118 -12.58148,-11.17042 -17.0321,-14.963178 -5.66564,-4.828188 -6.11415,-5.160315 -6.36451,-4.712944 -0.11903,0.212691 -1.50391,2.029871 -3.07751,4.038178 -1.57361,2.008307 -3.0141,3.862282 -3.20109,4.119944 -0.28037,0.386332 0.0444,0.328776 1.85208,-0.32825 1.84973,-0.672297 2.69191,-0.816286 5.39259,-0.921971 4.57656,-0.179094 6.60545,0.466621 9.33822,2.971986 2.84363,2.606999 3.79551,5.946322 2.79547,9.806793 -1.26553,4.885302 -6.38683,8.151996 -12.71471,8.11024 -6.83202,-0.04508 -11.65022,-3.470814 -12.16596,-8.649964 -0.0869,-0.873125 -0.041,-2.093516 0.10201,-2.711979 0.14304,-0.618464 0.18791,-1.124479 0.0997,-1.124479 -0.19834,0 -0.91488,0.846833 -3.02231,3.571874 -0.90032,1.164167 -2.16493,2.768133 -2.81026,3.56437 l -1.17331,1.447702 1.03156,0.801256 c 4.6921,3.644533 6.25834,8.27744 4.69469,13.886829 -1.50687,5.405674 -6.19169,9.271717 -11.23535,9.271717 -1.71766,0 -4.69185,-0.623147 -5.86181,-1.228156 -0.42798,-0.221319 -1.30869,-0.932939 -1.95713,-1.581377 l -1.17898,-1.178979 -1.13696,1.266652 c -1.62918,1.815009 -2.2845,2.617901 -3.83996,4.704693 l -1.37936,1.850541 2.2028,0.292178 c 2.39348,0.317471 5.74161,1.532549 9.50162,3.448255 2.2745,1.158849 3.20315,1.36981 3.94596,0.89641 0.34314,-0.21868 0.30996,-0.417685 -0.24503,-1.469687 -1.78062,-3.375209 -5.48349,-4.75699 -9.93924,-3.708972 -0.87193,0.205082 -1.63715,0.321042 -1.7005,0.25769 -0.31204,-0.312036 1.56014,-1.753489 2.72784,-2.10026 2.5643,-0.761515 4.84164,-0.324325 7.36923,1.4147 1.44884,0.996834 3.51245,3.661371 3.93949,5.08668 0.28084,0.937361 0.43402,1.067382 1.68653,1.431495 0.7577,0.220269 2.34865,0.8865 3.53545,1.480512 2.13603,1.069117 2.1728,1.076914 3.64129,0.772056 1.82072,-0.37798 3.25755,-0.180056 5.98001,0.823748 2.92309,1.077777 3.15171,0.998421 1.59845,-0.554838 -4.50376,-4.503765 -4.31049,-11.634424 0.44532,-16.430249 2.67314,-2.695626 5.60737,-3.939758 9.29173,-3.939758 4.97216,0 9.49849,2.875683 11.94339,7.587912 1.20023,2.313294 1.62947,4.189328 1.46964,6.423175 -0.17779,2.484923 -1.10957,4.37322 -3.23064,6.547082 -0.95473,0.978496 -1.73587,1.804628 -1.73587,1.835848 0,0.05588 0.73215,0.26948 1.12926,0.329456 0.11177,0.01688 1.00438,-0.456034 1.98359,-1.050922 z m -5.74801,-0.823707 c 2.31493,-1.296216 4.24278,-3.368464 5.00269,-5.377404 0.4971,-1.314174 0.57524,-1.926426 0.46326,-3.629802 -0.11263,-1.713136 -0.29429,-2.34197 -1.10829,-3.836458 -1.08786,-1.997289 -3.0638,-4.008034 -4.72419,-4.807402 -1.49946,-0.72189 -4.01018,-1.345695 -5.41623,-1.345695 -2.83916,0 -6.80371,1.671932 -8.42576,3.553311 -1.23623,1.433866 -1.53009,2.045836 -2.0847,4.341353 -0.40443,1.67392 -0.42513,2.180092 -0.1502,3.672206 1.0227,5.550357 5.43239,8.645221 12.06712,8.469083 2.49287,-0.06618 2.74588,-0.126261 4.3763,-1.039192 z m 37.69245,-13.162053 c 1.30968,-0.986626 2.60806,-2.048211 2.88527,-2.359079 l 0.50403,-0.565213 h -1.354 c -0.7447,0 -2.00219,0.242523 -2.79444,0.53894 -2.44907,0.916315 -4.64589,3.836705 -4.65901,6.193555 l -0.006,1.043954 1.52135,-1.529146 c 0.83675,-0.84103 2.59292,-2.336385 3.90261,-3.323011 z m -70.63581,-1.746852 c 3.05073,-0.794614 6.11854,-3.489547 7.25195,-6.370524 1.18047,-3.000562 1.00303,-7.356264 -0.39886,-9.791389 -0.68477,-1.189452 -3.13493,-3.536359 -3.69196,-3.536359 -0.19006,0 -1.12921,0.982266 -2.087,2.182812 l -1.74143,2.182813 0.16664,2.018826 c 0.13634,1.651713 0.0616,2.364651 -0.411,3.920579 -0.50194,1.652537 -0.79629,2.120404 -2.24615,3.570266 -1.63149,1.63149 -3.79216,2.793453 -5.19443,2.793453 -1.73623,0 1.38462,2.589348 3.84638,3.191322 1.32562,0.324153 2.85037,0.269401 4.50586,-0.161799 z m 56.41237,-0.694967 c 1.88626,-0.70574 4.06915,-2.742329 4.83616,-4.512047 0.72429,-1.671127 0.8662,-5.022754 0.2371,-5.599938 -0.20615,-0.189144 -1.31714,-0.67059 -2.46885,-1.069881 -2.35043,-0.814874 -3.6327,-1.550326 -4.88311,-2.800738 -0.88681,-0.886809 -1.95215,-2.788884 -2.2457,-4.009509 -0.15211,-0.632477 -0.32979,-0.728512 -1.65397,-0.893958 -3.26328,-0.40772 -6.25724,0.470984 -7.93598,2.329149 -0.5268,0.583112 -1.32776,1.8488 -1.77991,2.81264 -1.07264,2.286564 -1.13892,4.88657 -0.18631,7.308685 2.12028,5.390996 10.21449,8.630378 16.08057,6.435597 z m 23.43533,-5.448258 c -0.23315,-1.576914 -1.34766,-4.740818 -2.07697,-5.896107 -0.95135,-1.507033 -2.59385,-3.027143 -4.0412,-3.740058 -1.07931,-0.531631 -1.63944,-0.61159 -4.28435,-0.61159 -2.7779,0 -3.17063,0.06282 -4.51254,0.721858 -0.80841,0.397022 -1.73837,1.007695 -2.06657,1.35705 l -0.59673,0.635193 8.68115,4.368227 c 4.77463,2.402525 8.76261,4.319749 8.86217,4.260497 0.0996,-0.05925 0.11532,-0.552033 0.035,-1.09507 z M 937.05633,49.134929 c 6.31563,-1.640223 9.04593,-6.229823 6.72115,-11.298185 -1.44633,-3.153227 -4.46827,-4.725679 -9.04944,-4.708838 -3.05962,0.01125 -5.21437,0.44387 -7.47147,1.500093 -2.24251,1.049399 -3.46294,2.162529 -4.16805,3.80161 -0.52307,1.215896 -0.55486,1.546431 -0.32869,3.417215 0.4703,3.890106 2.02806,5.861552 5.51961,6.985416 2.46594,0.79374 6.36796,0.928309 8.77689,0.302689 z m 2.06448,-25.395212 c -0.0883,-0.230246 -0.47287,-0.537339 -0.85448,-0.682428 -0.38162,-0.145089 -0.75574,-0.50049 -0.83139,-0.789779 -0.15833,-0.605436 -0.67179,-0.686233 -1.09793,-0.172768 -0.22853,0.275357 0.008,0.597827 1.07109,1.462967 1.32668,1.079202 2.08804,1.160112 1.71271,0.182008 z m 39.85441,-74.959819 c 2.15215,-1.053497 4.02738,-1.915449 4.16719,-1.915449 0.50321,0 0.23112,-0.488576 -1.13487,-2.037822 -0.76398,-0.866479 -1.74984,-2.030577 -2.19079,-2.586884 l -0.80173,-1.011468 -1.44723,1.102696 c -1.25678,0.957585 -4.7566,2.812101 -7.63732,4.046931 l -0.89842,0.385113 1.82198,1.307488 c 2.53323,1.817896 3.92042,2.727254 4.07591,2.67192 0.0728,-0.02589 1.89314,-0.909029 4.04528,-1.962525 z m -94.47965,-3.795405 c 1.88384,-0.392947 5.45802,-2.09072 6.38759,-3.034176 2.20137,-2.234273 2.14531,-5.100735 -0.23859,-12.197938 -1.54212,-4.59111 -7.08589,-18.299025 -7.79245,-19.268136 -0.10609,-0.145521 -0.69585,-1.455208 -1.31058,-2.910416 -1.44951,-3.431373 -2.14844,-4.36594 -3.26412,-4.364636 -2.80438,0.0033 -7.63796,6.17968 -10.77467,13.768005 -1.09114,2.639704 -2.46177,8.036209 -3.16746,12.471084 l -0.57574,3.618204 1.01488,0.902671 c 2.2147,1.969823 7.75251,6.539646 9.36347,7.726772 2.07443,1.528664 4.29532,2.675941 6.14384,3.173817 1.72321,0.464126 2.44467,0.483772 4.21383,0.114749 z m 85.41104,-2.16177 c 1.98702,-0.678438 5.45233,-2.598353 6.81332,-3.774836 l 0.93411,-0.807477 -0.5687,-1.643323 c -1.44685,-4.180794 -1.52789,-6.064963 -0.93287,-21.690156 0.19188,-5.038752 -0.0345,-6.270671 -1.36755,-7.441077 -2.43205,-2.135372 -5.93652,-1.590498 -8.91278,1.385757 -2.60594,2.605942 -5.8498,8.345044 -7.48134,13.236126 -1.69695,5.087175 -2.44205,11.948112 -1.69084,15.569419 0.23158,1.116393 1.37169,3.651044 1.64226,3.651044 0.0323,0 0.71189,0.245094 1.5102,0.544654 4.40383,1.6525 7.25061,1.927113 10.05419,0.969869 z"
       id="path324" /></g></svg>
