<?xml version="1.0" encoding="UTF-8" standalone="no"?>
<!-- Created with Inkscape (http://www.inkscape.org/) -->

<svg
   width="194.1373mm"
   height="176.75177mm"
   viewBox="0 0 194.13732 176.75178"
   version="1.1"
   id="svg1"
   xml:space="preserve"
   xmlns="http://www.w3.org/2000/svg"
   xmlns:svg="http://www.w3.org/2000/svg"><defs
     id="defs1"><clipPath
       clipPathUnits="userSpaceOnUse"
       id="clipPath3"><path
         id="path3"
         style="fill:#ff0000;fill-opacity:1;fill-rule:nonzero;stroke:none;stroke-width:0.264583"
         d="M 117.46378,-9.1863687 V 177.1666 H 291.49502 V -9.1863687 Z M 147.33431,111.9313 c 4.14894,-0.0917 4.55169,4.35712 -0.092,5.08445 -1.19542,0.18724 -2.39032,0.38079 -3.5698,0.65474 -1.90165,0.43105 -3.80094,0.86919 -5.68493,1.37304 -4.84343,1.29532 -6.43119,-3.45704 -1.60197,-4.80436 2.03917,-0.56891 4.10352,-1.04005 6.16758,-1.50792 1.28939,-0.29942 2.59504,-0.5123 3.90158,-0.71882 0.30951,-0.0489 0.60293,-0.075 0.87953,-0.0811 z" /></clipPath><clipPath
       clipPathUnits="userSpaceOnUse"
       id="clipPath29"><path
         id="path30"
         style="fill:#ff0000;fill-opacity:1;fill-rule:nonzero;stroke:none;stroke-width:0.264583"
         d="M -43.229648,-9.2280016 V 216.91788 H 174.31521 V -9.2280016 Z M 64.45887,27.798679 c 2.205167,0.07543 3.149314,2.777559 0.336931,5.092713 -1.01463,0.835234 -0.499494,0.392851 -1.540992,1.333252 -0.05085,0.0495 -0.09987,0.101018 -0.150379,0.150894 0.220084,0.811057 0.124675,1.87329 -0.520898,3.115572 -0.875451,1.684613 -1.748676,3.370175 -2.654102,5.038968 -0.9775,1.836439 -1.88347,3.711528 -2.891295,5.530414 -2.429936,4.385429 -6.499333,1.653471 -4.214214,-2.809132 0.315439,-0.616018 0.63763,-1.228696 0.952912,-1.844849 -0.0069,-0.02252 -0.01495,-0.04284 -0.0217,-0.06563 -0.595128,-2.008016 -0.06926,-3.784214 0.689364,-5.659086 1.273995,-2.682428 3.163792,-4.981609 5.254458,-7.063137 1.251259,-1.138375 0.627229,-0.597072 1.867588,-1.628325 0.963808,-0.80132 1.889408,-1.157192 2.675289,-1.190625 0.07368,-0.0031 0.145905,-0.0035 0.217041,-0.0011 z M 107.156,139.45233 v 5.3e-4 h 1.33171 c 3.18466,0 4.31777,2.03379 3.45198,3.52174 1.2611,1.23575 0.77004,3.28353 -1.76526,3.91088 -0.54914,0.61592 -1.49045,1.10474 -2.85099,1.26142 -0.13698,0.0157 -0.27436,0.0312 -0.41135,0.047 -2.65141,0.30532 -4.05473,-0.97849 -4.03644,-2.33215 -0.3479,-0.33509 -0.56463,-0.74464 -0.62167,-1.18649 -3.34332,-0.94574 -2.811804,-4.86069 1.59628,-4.86069 h 0.98857 c 0.11851,0 0.23333,0.004 0.34624,0.009 0.53882,-0.2172 1.16849,-0.37104 1.97093,-0.37104 z" /></clipPath><clipPath
       clipPathUnits="userSpaceOnUse"
       id="clipPath48"><path
         id="path49"
         style="fill:#ff0000;fill-opacity:1;fill-rule:nonzero;stroke:none;stroke-width:0.264583"
         d="M 41.090804,5.5343725 V 221.55581 H 225.28628 V 5.5343725 Z M 200.73584,27.81415 c 1.72945,0.01908 2.64943,1.415222 2.08618,2.936254 0.0339,0.915892 -0.44821,2.031525 -1.67277,3.09025 -1.14726,0.991904 -0.56367,0.491389 -1.75183,1.502235 -1.46438,1.223881 -2.91427,2.468533 -4.41523,3.645773 -1.77565,1.392637 -3.30034,1.324822 -4.09174,0.539502 -1.31401,0.83852 -2.64966,1.641588 -3.98426,2.445845 -4.29416,2.587749 -6.80634,-1.80888 -2.51251,-4.397148 1.38418,-0.834355 2.77707,-1.656016 4.13257,-2.53783 2.02228,-1.284452 4.05223,-2.553893 5.99602,-3.95583 1.19062,-0.885809 2.41863,-1.714333 3.69021,-2.478919 0.9399,-0.565155 1.79944,-0.798117 2.52336,-0.790132 z m -20.13521,16.378329 c 1.02365,0.01453 1.87727,0.799764 2.03296,2.110465 0.71756,0.616212 1.16959,1.820418 0.93741,3.568774 -0.19898,1.498301 -0.82482,2.881966 -1.4888,4.223515 -0.63096,1.325187 -1.47451,2.521106 -2.32492,3.70985 -0.38328,0.580088 -0.18725,0.28308 -0.58808,0.890902 -1.63866,2.484932 -3.79495,2.511833 -4.69894,1.247471 -2.33551,3.060126 -5.91882,0.907738 -3.88814,-3.193087 0.88107,-1.779241 1.75108,-3.563456 2.63189,-5.342829 0.83405,-1.68497 1.98081,-2.401348 2.97139,-2.401401 0.1436,-8e-6 0.2783,0.0337 0.41393,0.06305 0.3156,-0.730126 0.62695,-1.462167 0.92862,-2.198317 0.77233,-1.88468 2.00662,-2.693514 3.07268,-2.678388 z" /></clipPath></defs><g
     id="layer1"
     transform="translate(-252.09597,9.8271984)"><path
       style="fill:#000000"
       d="m 353.74363,166.67741 c -7.61839,-0.62683 -14.99112,-3.14748 -21.59595,-7.38341 l -2.46357,-1.57997 h -2.43003 c -1.65308,0 -2.74455,0.13648 -3.41372,0.42687 -3.04797,1.32268 -4.39602,1.73533 -6.5696,2.01102 -4.02253,0.5102 -7.92376,-0.52634 -11.83557,-3.14467 l -2.15593,-1.44305 -2.64671,0.16343 c -4.16354,0.25709 -6.14032,0.61667 -7.89643,1.43636 -3.46825,1.61888 -11.26279,4.86454 -13.46687,5.60762 -2.20233,0.74251 -2.35132,0.7595 -3.12969,0.35699 -2.10454,-1.0883 -2.01565,-5.34491 0.23364,-11.18858 l 0.5421,-1.40838 -0.76461,-1.20567 c -1.56021,-2.46019 -1.19987,-5.17929 0.99769,-7.52867 1.6764,-1.7922 3.14775,-2.44289 5.8885,-2.60411 l 2.24896,-0.13229 0.16405,-2.01769 c 0.2746,-3.37718 2.18636,-5.94475 5.32039,-7.14548 l 0.98653,-0.37797 0.13888,-3.5638 c 0.15439,-3.96165 0.56493,-5.89537 1.57601,-7.42321 0.87209,-1.31783 2.48553,-2.15665 3.94433,-2.05065 l 1.09897,0.0799 0.20303,-2.24427 c 0.11167,-1.23435 0.48527,-3.49443 0.83022,-5.0224 0.69003,-3.05653 0.6594,-3.16413 -0.9027,-3.17095 -1.53166,-0.007 -2.61829,0.43906 -4.15567,1.70472 -0.80279,0.6609 -1.69322,1.20164 -1.97873,1.20164 -0.28551,0 -1.18086,-0.47386 -1.98966,-1.05303 -2.45715,-1.75953 -3.9829,-1.69157 -6.16169,0.27448 -2.71734,2.45199 -3.71524,2.40793 -6.09447,-0.26914 -0.89046,-1.00192 -2.01484,-2.00951 -2.49862,-2.23907 -1.48504,-0.70471 -3.35566,-0.53552 -5.75813,0.52078 -2.72175,1.19668 -3.23591,1.10052 -5.19079,-0.97086 -0.91854,-0.97328 -1.81254,-1.65488 -2.37388,-1.80987 -1.28387,-0.3545 -3.12858,0.063 -5.79077,1.31053 -2.57066,1.20465 -3.17558,1.28368 -3.99345,0.52171 -0.73744,-0.68702 -0.74894,-1.92369 -0.0487,-5.24107 0.96417,-4.56806 3.50659,-9.92192 6.07395,-12.79064 0.74107,-0.82806 2.7432,-2.54772 4.44917,-3.82146 1.70597,-1.27375 3.75661,-2.809736 4.55698,-3.413315 2.13704,-1.611605 7.6409,-5.262827 8.86354,-5.880008 3.29094,-1.661248 4.47634,-1.422207 6.68411,1.34788 6.97097,8.746433 10.18351,12.015933 13.51741,13.757033 1.60253,0.83691 5.04018,2.02897 5.85112,2.02897 0.18205,0 -0.61408,-0.99841 -1.76917,-2.21869 -2.65971,-2.80979 -4.82405,-5.99172 -6.11612,-8.991655 -0.92962,-2.158409 -1.09135,-2.374514 -2.0147,-2.691944 -2.38062,-0.818417 -4.11411,-3.135297 -4.11411,-5.498658 0,-0.996757 0.20569,-1.690524 0.82831,-2.793743 0.76848,-1.361676 0.79449,-1.487443 0.36001,-1.741185 -1.63477,-0.954741 -3.72506,-2.449125 -4.88695,-3.49376 -3.10225,-2.789194 -5.69609,-7.196856 -6.16196,-10.470923 -0.25011,-1.757686 -0.22227,-2.036604 0.33074,-3.313711 0.36767,-0.849078 1.00037,-1.708535 1.61768,-2.197452 2.20526,-1.746599 6.40464,-2.890358 10.61214,-2.890358 2.15432,0 2.37449,-0.04545 2.24278,-0.463021 -0.0803,-0.254661 -0.61325,-1.594114 -1.18429,-2.976562 -1.62284,-3.928842 -2.2311,-6.887197 -2.3749,-11.550595 -0.17437,-5.654995 0.51777,-9.188218 2.63529,-13.452529 1.63807,-3.298788 4.43307,-6.6807738 6.36148,-7.6974628 3.82184,-2.014938 8.12489,1.2400558 13.15954,9.9543998 l 1.53413,2.655371 0.75831,-0.626977 c 3.61917,-2.99235 9.23561,-5.797133 13.92133,-6.952145 1.72971,-0.426367 1.786,-0.466285 1.78779,-1.267956 0.002,-1.093995 0.91931,-4.8805568 1.71797,-7.0950528 0.82337,-2.283053 2.27101,-5.15785601 3.77217,-7.491009 1.58184,-2.458551 5.36279,-6.215363 7.17655,-7.130738 2.89328,-1.4601852 5.64995,-0.7602477 8.8703,2.252229 4.29588,4.018589 7.14458,9.83908 8.04381,16.435193 l 0.42144,3.0913388 2.39431,0.579153 c 4.92551,1.191419 9.94466,3.383264 13.9033,6.071523 0.85736,0.582225 1.65467,1.057181 1.7718,1.055456 0.11713,-0.0017 0.74874,-1.032948 1.40358,-2.291607 2.664,-5.120409 5.85469,-8.8769518 8.11501,-9.5541598 2.55914,-0.766737 4.27868,-0.128309 7.14843,2.6540548 5.75808,5.582744 8.50148,14.704578 7.10211,23.614638 -0.48428,3.083557 -1.31119,6.003019 -2.3934,8.450081 -0.36166,0.817785 -0.65757,1.543019 -0.65757,1.61163 0,0.06861 1.0418,0.126311 2.31511,0.128223 4.27478,0.0064 8.97243,1.395621 10.95461,3.239528 2.21315,2.058771 2.27802,5.034526 0.20426,9.37085 -1.86525,3.90032 -4.92056,7.164355 -8.64506,9.235669 -1.35424,0.753134 -1.38886,0.801976 -1.39124,1.962976 -0.008,3.773287 -1.19767,9.422987 -2.73226,12.97247 l -0.90407,2.09112 0.69464,0.45071 c 0.38205,0.2479 1.47909,1.20535 2.43787,2.12768 l 1.74323,1.67696 1.15149,-0.83414 c 2.24016,-1.62276 4.60461,-4.25142 10.16042,-11.295772 0.84114,-1.066504 1.90373,-2.174323 2.36132,-2.461821 2.12953,-1.337971 5.60729,0.432476 16.04551,8.168403 4.69959,3.48293 6.48997,5.11971 7.98736,7.30212 3.38305,4.93073 6.05004,14.71279 4.44806,16.31477 -0.76682,0.76682 -1.47507,0.66336 -3.98147,-0.58164 -1.85715,-0.92249 -2.56074,-1.1292 -4.15045,-1.21934 l -1.91421,-0.10854 -1.78995,1.71022 c -0.98448,0.94062 -2.08284,1.78237 -2.44081,1.87055 -0.4398,0.10835 -1.30858,-0.13663 -2.67914,-0.75546 -3.60789,-1.62901 -5.85445,-1.14848 -8.09013,1.73043 -2.00488,2.58171 -3.42907,2.71869 -5.74047,0.55214 -2.42559,-2.27358 -4.26881,-2.37779 -7.07733,-0.40014 -1.04549,0.7362 -1.83762,1.11774 -2.12873,1.02535 -0.3473,-0.11023 -0.6073,0.1385 -1.0361,0.9912 -0.31484,0.62609 -0.74821,1.33852 -0.96303,1.58318 -0.33299,0.37922 -0.34725,0.86697 -0.0967,3.30729 0.16164,1.57436 0.32151,3.44648 0.35527,4.16028 0.055,1.16247 0.13035,1.3077 0.72283,1.39259 1.71691,0.246 3.82205,2.51348 4.61955,4.97581 1.31553,4.06177 1.01036,8.7658 -0.92844,14.3113 -3.00523,8.59576 -8.8402,16.6402 -13.76005,18.97043 -3.19175,1.51174 -6.03917,1.73263 -9.3907,0.72848 -1.03292,-0.30947 -1.10961,-0.28556 -3.16872,0.98784 -5.77426,3.57095 -12.06397,5.52119 -19.80954,6.14233 -3.78063,0.30318 -4.62222,0.30088 -8.56368,-0.0234 z m 11.84324,-3.93601 c 6.1771,-0.99205 11.22132,-2.9753 16.59778,-6.52579 2.94609,-1.94553 7.74914,-6.2418 7.74568,-6.92843 -0.001,-0.27961 -0.50856,-0.337 -2.33835,-0.26458 -3.19877,0.12659 -4.34186,0.83066 -6.43064,3.96084 -0.83491,1.25116 -2.08286,2.77204 -2.77323,3.37973 -2.67948,2.35858 -6.52892,3.50694 -11.7429,3.50316 -4.71381,-0.003 -8.43392,-0.95974 -12.30313,-3.16272 -5.15245,-2.93362 -6.03342,-3.22292 -9.81433,-3.22292 -4.90978,0 -8.40029,-1.00621 -11.99962,-3.45914 -3.50685,-2.3899 -5.56648,-5.34493 -6.6308,-9.51346 -0.92567,-3.62548 -1.34116,-4.14236 -4.63706,-5.76856 -1.16906,-0.57682 -2.63884,-1.47759 -3.26618,-2.00171 -0.62734,-0.52413 -1.17971,-0.95296 -1.22748,-0.95296 -0.19116,0 1.02585,3.87391 1.89605,6.03542 3.19842,7.9446 9.15871,14.78939 16.88114,19.3863 5.38126,3.20328 11.17867,4.96444 19.45974,5.91154 1.53427,0.17547 8.74275,-0.0811 10.58333,-0.37672 z m -86.0304,-4.0869 c 0.38626,-0.21035 1.72796,-0.84992 2.98157,-1.42127 2.13133,-0.97138 2.29078,-1.10003 2.45621,-1.98184 0.0973,-0.51866 0.65541,-1.65959 1.24025,-2.53538 2.10139,-3.14687 5.28824,-5.35396 9.42664,-6.52854 0.21947,-0.0623 0.0429,-0.7022 -0.55768,-2.02136 -0.48334,-1.06161 -1.15278,-2.76365 -1.48763,-3.78229 -0.33485,-1.01865 -0.69825,-1.95448 -0.80757,-2.07962 -0.60206,-0.68926 -7.46415,5.74523 -9.69521,9.09108 -2.49214,3.73737 -3.44727,6.10194 -4.462,11.04635 -0.1434,0.69878 -0.0341,0.72449 0.90542,0.21287 z m 92.05211,-2.66215 c 2.68325,-0.61262 4.59616,-1.94578 6.328,-4.41014 3.3236,-4.72941 6.47583,-6.32237 11.69377,-5.90939 1.25541,0.0994 2.39994,0.20014 2.54339,0.22396 0.14346,0.0238 0.64947,-0.55066 1.12448,-1.2766 0.83744,-1.27983 1.10907,-2.25199 0.62924,-2.25199 -0.4439,0 -2.20607,-1.98631 -2.69936,-3.04271 -0.60566,-1.29704 -0.6544,-3.61336 -0.10859,-5.16036 0.21848,-0.61922 0.99238,-1.92867 1.7198,-2.9099 1.49503,-2.01669 1.61823,-2.73749 0.89379,-5.22947 -0.55353,-1.90408 -0.38904,-4.76363 0.37287,-6.48213 0.68487,-1.54474 2.97175,-3.8793 4.48085,-4.57427 1.07129,-0.49335 1.11774,-0.56408 1.11988,-1.70532 0.003,-1.59456 -0.54681,-4.0353 -1.68306,-7.47162 -1.10478,-3.34116 -1.92326,-5.04349 -3.46786,-7.21276 -1.49592,-2.10088 -2.10712,-2.63198 -3.78837,-3.29186 -0.77554,-0.30439 -1.87567,-0.9276 -2.44472,-1.38491 -1.07622,-0.86487 -2.3629,-3.07947 -2.3629,-4.06694 0,-1.70262 -1.61252,-3.29192 -5.55625,-5.47628 -4.21035,-2.33202 -10.35015,-4.259779 -11.53965,-3.623179 -1.5421,0.825309 -4.09183,-0.432583 -6.06801,-2.993604 -1.2705,-1.646499 -1.49874,-1.700032 -5.41109,-1.269139 -3.88992,0.428421 -4.12504,0.491123 -4.44086,1.184261 -0.47017,1.031926 -1.9346,2.535346 -2.99803,3.077868 -1.32729,0.677133 -3.03365,0.659793 -4.18572,-0.04254 -1.06685,-0.650378 -1.78765,-0.58661 -4.93057,0.436195 -4.09609,1.333 -9.54626,4.30867 -12.12937,6.62237 l -0.77101,0.69059 0.44577,1.23965 c 0.38279,1.06449 0.40456,1.53767 0.15409,3.34879 -0.47236,3.41562 -1.78961,5.29616 -4.45748,6.36362 -2.03212,0.813098 -5.31598,5.283718 -5.31598,7.237148 0,0.56901 0.35104,1.29917 1.10426,2.2968 0.90537,1.19914 1.12582,1.72256 1.22396,2.90591 0.22471,2.70975 -1.19533,5.03255 -4.21679,6.8975 -1.48681,0.91771 -1.55083,1.00233 -1.54642,2.04421 0.007,1.59317 0.66494,4.43636 1.32785,5.73577 1.07214,2.10156 2.93221,3.74826 6.08334,5.38549 4.28231,2.22498 5.26955,3.40495 6.30942,7.54125 0.79101,3.14638 1.47075,4.4017 3.45576,6.38194 2.88141,2.87449 5.40458,3.82359 11.26174,4.23614 2.18281,0.15374 4.68313,0.46065 5.55625,0.68203 1.35005,0.34229 5.3617,2.26816 7.14375,3.42948 1.07835,0.70274 4.28213,1.74293 6.4728,2.10156 2.67257,0.43752 6.01345,0.33071 8.67703,-0.27742 z m -13.63886,-22.37704 c -5.38007,-0.82798 -11.27896,-4.56383 -14.24059,-9.01876 -2.44053,-3.67108 -3.53752,-8.71806 -2.76316,-12.71262 0.61201,-3.15705 3.07135,-7.03705 6.4344,-10.15127 4.53102,-4.19578 4.99472,-4.31955 10.96232,-2.92607 5.00482,1.16867 7.50393,2.02345 9.94764,3.40245 1.04871,0.59179 1.96628,1.14837 2.03904,1.23684 0.0728,0.0885 0.68717,0.60656 1.36534,1.15132 2.48814,1.99863 4.80707,5.72625 5.78913,9.30588 0.63484,2.31404 0.75425,6.41816 0.24698,8.48907 -0.41436,1.69161 -1.85614,4.67339 -3.0317,6.26996 -1.48125,2.01173 -4.30073,3.91013 -6.88329,4.63464 -1.65839,0.46525 -7.65489,0.65886 -9.86611,0.31856 z m 3.06384,-4.32602 c 3.77022,-1.00361 6.63736,-3.72619 7.47939,-7.10229 0.65801,-2.63825 -0.62697,-6.30013 -3.08702,-8.79727 -2.78225,-2.8242 -6.13538,-3.91659 -10.30827,-3.35827 -3.66433,0.49028 -6.27862,2.12884 -7.95183,4.98396 -0.90586,1.54573 -1.72834,4.46623 -1.5116,5.36747 0.87442,3.63596 5.24848,7.68785 9.61389,8.9058 1.61627,0.45094 4.07271,0.4512 5.76544,6e-4 z m 10.36855,-2.15651 c 2.36675,-2.49682 3.63881,-6.09061 3.3382,-9.43096 -0.54751,-6.08398 -4.20345,-10.97668 -10.17819,-13.62139 -1.77733,-0.78673 -9.20691,-2.72265 -10.44886,-2.72265 -2.2553,0 -7.94401,5.98426 -9.52612,10.02104 -0.24951,0.63663 -0.40062,1.21055 -0.3358,1.27537 0.0648,0.0648 0.49489,-0.43013 0.9557,-1.0999 1.58142,-2.29852 4.28264,-4.01111 7.54754,-4.78521 2.08688,-0.4948 5.97318,-0.48581 7.94806,0.0184 7.65718,1.95488 12.61887,9.18181 11.13451,16.21794 -0.42577,2.01826 -0.9748,3.13224 -2.45811,4.98753 -0.48496,0.60657 -0.88175,1.17885 -0.88175,1.27173 0,0.38196 1.71508,-0.87676 2.90482,-2.13188 z m -52.56534,28.86366 c 1.95929,-0.51033 3.83027,-1.47284 4.75297,-2.44512 l 0.73308,-0.77246 -0.56772,-0.50898 c -0.97836,-0.87715 -3.54938,-4.13176 -4.83907,-6.12572 -4.14472,-6.40802 -6.10728,-12.59362 -6.78049,-21.37076 -0.34893,-4.54929 -0.5814,-5.68392 -1.29734,-6.33183 -0.71895,-0.65064 -1.43937,-0.33889 -2.44147,1.0565 -0.46382,0.64586 -0.99257,1.17429 -1.17501,1.17429 -0.18244,0 -0.8896,-0.83919 -1.57146,-1.86486 -1.46278,-2.20033 -2.29677,-2.8707 -2.92389,-2.35024 -0.57196,0.47468 -1.58103,2.52268 -1.94866,3.95495 -0.50274,1.9587 -0.478,1.93037 -1.13502,1.29995 -0.74107,-0.71106 -2.55528,-1.56296 -2.98078,-1.39967 -0.17373,0.0667 -0.46894,0.93242 -0.65602,1.92391 -0.40186,2.12978 -0.23663,10.87393 0.25293,13.38492 1.73491,8.89859 6.92534,16.47051 13.35171,19.47777 0.91399,0.42771 2.18468,0.88034 2.82376,1.00584 1.86655,0.36657 4.76731,0.31742 6.40248,-0.10849 z m 74.27991,-0.72765 c 3.53727,-1.73449 8.29642,-8.1099 10.87076,-14.5626 0.84446,-2.11667 1.73996,-5.40036 2.07033,-7.59167 0.48114,-3.19121 -0.16059,-6.73774 -1.43595,-7.93587 l -0.63527,-0.59681 -0.16728,1.02182 c -0.73676,4.50049 -1.37675,7.30604 -2.3086,10.12029 -2.24458,6.7788 -6.227,13.45594 -10.80502,18.11632 l -2.30254,2.34395 1.63575,-0.10416 c 1.0661,-0.0679 2.13796,-0.35041 3.07782,-0.81127 z m -103.33293,-0.99435 c 0.57086,-0.29104 1.19135,-0.52916 1.37886,-0.52916 0.44327,0 0.43531,-0.56355 -0.0167,-1.18169 -0.33699,-0.46087 -0.42855,-0.4237 -1.5875,0.64458 -1.75175,1.61472 -1.66409,2.02955 0.22533,1.06627 z m 8.53282,-2.28811 c 0.76398,-0.0918 1.3855,-0.23956 1.38116,-0.32843 -0.004,-0.0889 -0.46126,-0.68605 -1.01537,-1.32707 l -1.00747,-1.16549 -1.73033,0.46838 c -2.44475,0.66176 -2.51147,0.72437 -1.81466,1.70295 0.6386,0.89683 1.28885,0.99773 4.18667,0.64966 z m -18.45469,-5.58512 c 0,-0.11017 0.53169,-0.84848 1.18153,-1.64069 0.64985,-0.7922 1.12991,-1.49199 1.06682,-1.55509 -0.23747,-0.23747 -1.75739,0.58307 -2.25732,1.21863 -0.54147,0.68837 -0.71627,2.17747 -0.25561,2.17747 0.14552,0 0.26458,-0.0901 0.26458,-0.20032 z m 117.01485,-8.60742 c 1.1162,-2.67907 2.49832,-7.74324 2.95775,-10.83732 0.46236,-3.11385 0.56193,-8.92994 0.15287,-8.92994 -0.14296,0 -0.78659,0.50601 -1.43027,1.12448 -0.87945,0.84499 -1.28069,1.50553 -1.61434,2.6576 -0.42811,1.47823 -0.42427,1.59811 0.10735,3.34836 0.64635,2.12798 0.70706,4.15558 0.16339,5.45679 -0.21339,0.51071 -0.91787,1.60821 -1.5655,2.43889 -1.51407,1.942 -1.92128,3.368 -1.35132,4.73212 0.49369,1.18156 1.17268,1.98662 1.56569,1.85639 0.15614,-0.0517 0.61262,-0.88306 1.01438,-1.84737 z m -105.74717,-2.34962 c 0.64226,-0.46123 1.16773,-0.98998 1.16773,-1.17501 0,-1.29677 -2.61359,0.23981 -2.63741,1.5506 -0.0114,0.62742 0.11967,0.59392 1.46968,-0.37559 z m 25.14273,-20.39007 c 1.6541,-1.45232 2.01123,-3.03558 0.95583,-4.23747 -0.5947,-0.67724 -0.80199,-0.5779 -1.10419,0.52917 -0.14896,0.5457 -0.50233,1.79586 -0.78527,2.77812 -0.28294,0.98227 -0.40792,1.78594 -0.27773,1.78594 0.13018,0 0.6753,-0.38509 1.21136,-0.85576 z m -7.55934,-0.0762 c 0.42843,-0.22155 1.2587,-0.42991 1.84504,-0.46302 1.00993,-0.057 1.07932,-0.11595 1.31744,-1.11854 0.99576,-4.19273 3.40208,-9.49219 5.68391,-12.51769 0.80238,-1.06389 1.53485,-2.25452 1.6277,-2.64583 0.2695,-1.13578 0.86838,-1.61515 2.72449,-2.1808 0.95639,-0.29145 1.86989,-0.61587 2.03001,-0.72092 0.53746,-0.35264 0.8438,-1.23785 1.02751,-2.96913 0.1706,-1.60769 0.13958,-1.76002 -0.47592,-2.3368 -0.89414,-0.8379 -2.41222,-0.99636 -4.2968,-0.4485 -6.08498,1.76895 -12.28315,7.78071 -15.18634,14.72958 -0.84596,2.02483 -2.12936,6.93063 -2.12936,8.13946 0,0.15905 0.31959,0.28917 0.71021,0.28917 0.98653,0 2.73301,0.90797 3.52312,1.83162 0.3638,0.42529 0.69714,0.78247 0.74074,0.79373 0.0436,0.0113 0.42982,-0.16078 0.85825,-0.38233 z m 94.63769,-9.31259 c 1.52821,-3.33806 0.99242,-9.27819 -1.15981,-12.85842 -2.26482,-3.76754 -6.58697,-6.79347 -10.01541,-7.01178 -1.44325,-0.0919 -1.73649,-0.029 -2.248,0.48256 -0.51434,0.51434 -0.56563,0.75894 -0.40824,1.9472 0.29457,2.22407 0.55304,2.51471 3.15796,3.55091 1.83203,0.72876 2.44595,1.10725 2.77812,1.71277 0.23452,0.4275 1.05048,1.5693 1.81325,2.53732 1.62248,2.0591 3.39325,5.57351 4.45293,8.83766 0.41337,1.2733 0.79316,2.3151 0.84398,2.3151 0.0508,0 0.40416,-0.68099 0.78522,-1.51332 z m -117.46038,-2.59388 c 1.79113,-0.45887 3.26781,-0.25899 5.13891,0.69557 l 1.06769,0.54469 1.53324,-0.68808 c 2.51671,-1.12943 5.72053,-1.46863 7.48311,-0.79227 0.22201,0.0852 0.63901,-0.52721 1.18333,-1.73785 0.46229,-1.02817 1.32928,-2.58912 1.92664,-3.46877 0.59736,-0.87965 1.04568,-1.6396 0.99626,-1.68877 -0.0494,-0.0492 -1.06376,-0.27403 -2.2541,-0.4997 -5.49702,-1.04217 -10.30819,-3.38738 -13.96289,-6.80622 -0.87997,-0.82318 -2.60605,-2.7015 -3.83573,-4.17405 -1.22968,-1.47254 -2.3181,-2.67735 -2.41871,-2.67735 -0.10061,0 -0.26633,0.32742 -0.36827,0.72761 -0.27298,1.0717 -0.18803,13.95709 0.1173,17.79323 0.14479,1.81901 0.26595,3.52375 0.26925,3.78832 0.006,0.45045 0.0547,0.44634 0.77224,-0.0646 0.42143,-0.30008 1.47971,-0.72839 2.35173,-0.95179 z m 130.37413,-2.9704 c 0.21343,-4.49636 -0.018,-16.02436 -0.35167,-17.51754 l -0.20446,-0.91493 -2.14602,2.64997 c -2.18702,2.7006 -5.38283,5.85202 -6.75852,6.66467 -0.4741,0.28005 -0.71136,0.60154 -0.62633,0.84866 0.0753,0.2188 0.42526,1.23539 0.77771,2.2591 0.71876,2.0877 1.28678,5.92762 1.17278,7.9283 -0.0609,1.06808 10e-4,1.30332 0.32149,1.2212 2.69598,-0.69096 4.9027,-0.52591 6.48665,0.48518 0.43417,0.27714 0.86615,0.5126 0.95997,0.52323 0.0938,0.0106 0.2596,-1.85589 0.3684,-4.14784 z m 4.8928,2.57412 c 1.82282,-1.29796 4.70991,-1.68308 6.87935,-0.91765 0.62308,0.21983 1.18919,0.34338 1.25802,0.27455 0.22661,-0.2266 -1.80488,-6.57018 -3.05118,-9.52772 -1.01175,-2.40092 -1.4466,-3.10709 -2.52536,-4.10104 -1.29173,-1.19018 -2.54804,-2.12164 -2.8661,-2.125 -0.0908,-9.6e-4 -0.23273,3.48084 -0.31532,7.73732 -0.0826,4.25649 -0.23051,8.06649 -0.32871,8.46667 -0.21303,0.86814 -0.0465,0.90197 0.9493,0.19287 z m -142.73403,-0.85433 c -0.30837,-2.33943 -0.67181,-8.39529 -0.69864,-11.64106 -0.0153,-1.85505 -0.12113,-3.43047 -0.23512,-3.50091 -0.29246,-0.18076 -2.08211,1.16789 -3.20335,2.41398 -1.14924,1.2772 -3.39421,6.46276 -4.49483,10.38244 -0.42749,1.52243 -0.77726,2.8052 -0.77726,2.8506 0,0.0454 0.62508,-0.16465 1.38906,-0.46678 1.92534,-0.7614 4.5815,-0.62692 6.41615,0.32483 0.7276,0.37745 1.41951,0.70318 1.53757,0.72383 0.11805,0.0206 0.14794,-0.46847 0.0664,-1.08693 z m -12.84878,-1.88863 c 0,-1.93769 2.93581,-9.66854 4.68339,-12.33272 1.16745,-1.7798 4.5301,-5.28124 7.29,-7.590898 1.93675,-1.620796 2.28954,-2.198689 1.34228,-2.198689 -0.49451,0 -4.99974,2.919042 -7.75942,5.027507 -1.09141,0.83386 -3.49263,2.60304 -5.33606,3.93151 -3.98823,2.87414 -4.89169,3.8629 -6.5611,7.18057 -1.19276,2.37042 -2.77824,6.35 -2.52985,6.35 0.0625,0 0.79936,-0.1786 1.6374,-0.39688 2.10379,-0.54797 4.47329,-0.49966 5.77815,0.11781 1.38904,0.65731 1.45521,0.65329 1.45521,-0.0882 z m 168.56507,0.17769 c 1.23626,-0.62347 3.99832,-0.74515 5.86148,-0.25824 1.30286,0.34049 1.52136,0.3437 1.52136,0.0223 0,-0.79973 -2.06031,-5.88388 -3.09779,-7.64431 -1.30048,-2.20669 -1.73826,-2.69371 -3.72335,-4.14217 -0.83228,-0.60729 -2.64433,-1.95655 -4.02678,-2.99835 -3.35341,-2.52709 -9.17504,-6.56528 -10.283,-7.132831 -0.68543,-0.351108 -0.95941,-0.383665 -1.19063,-0.141484 -0.22772,0.238516 0.17943,0.739705 1.68405,2.073037 4.08306,3.618238 7.04265,6.763288 8.00379,8.505348 1.52592,2.76572 3.53023,8.30129 4.04755,11.17864 0.0981,0.5457 0.20637,0.99219 0.24058,0.99219 0.0342,0 0.46744,-0.20438 0.96274,-0.45417 z M 310.3107,90.88057 c 0.58814,-0.70868 3.19987,-2.62889 4.74076,-3.48553 2.93898,-1.63391 6.84361,-2.34079 9.19884,-1.66532 0.80382,0.23054 1.00821,0.13587 3.0796,-1.42641 3.81035,-2.87384 7.49532,-4.812649 11.79864,-6.207732 1.38245,-0.448172 2.66237,-0.814859 2.84427,-0.81486 0.43969,-2e-6 0.42318,-0.10445 -0.21388,-1.353199 -0.7297,-1.430331 -0.78931,-3.611758 -0.11223,-4.106854 0.9689,-0.708476 1.40479,-0.438526 2.36241,1.463056 0.97255,1.931233 2.3822,3.335699 3.62111,3.60781 1.07841,0.236859 2.36869,-0.494412 3.20228,-1.81491 1.14626,-1.815805 1.39405,-1.942217 4.17104,-2.127933 1.38245,-0.09245 3.6698,-0.244837 5.083,-0.338629 l 2.56945,-0.170532 2.09883,2.156011 c 2.48256,2.550194 3.20145,2.749951 4.65728,1.294122 0.73783,-0.737838 0.88913,-1.116299 1.05118,-2.629459 0.20822,-1.944348 0.59016,-2.475766 1.59764,-2.222905 1.34367,0.337241 1.84708,2.659527 1.03794,4.788212 -0.22125,0.582083 -0.42439,1.209041 -0.4514,1.393239 -0.03,0.204299 1.02415,0.697111 2.70303,1.263691 3.28153,1.107438 6.88118,2.823832 9.4029,4.483512 l 1.83631,1.20857 0.54494,-0.64614 c 1.05537,-1.25137 2.17065,-1.60506 5.10205,-1.61804 1.48777,-0.007 2.81618,-0.12821 2.95202,-0.27028 0.13585,-0.14206 0.56578,-1.022796 0.95539,-1.957177 3.09602,-7.42494 2.85416,-18.847109 -0.62004,-29.281476 -4.80956,-14.445004 -15.644,-26.342649 -28.88069,-31.714815 -2.39062,-0.970244 -5.75942,-1.983477 -6.61275,-1.988917 -0.27293,-0.0017 -0.58374,0.678529 -0.99525,2.178278 -0.79084,2.882243 -2.26086,5.850589 -3.24413,6.550739 -1.00507,0.715679 -2.34367,0.928207 -3.48136,0.552734 -0.49438,-0.163158 -2.02531,-1.131237 -3.40208,-2.151285 -3.28426,-2.43331 -8.60232,-5.075843 -12.02822,-5.976792 -3.35395,-0.882031 -5.52083,-0.780297 -9.12812,0.428563 -10.67004,3.575701 -21.05897,13.157488 -26.58624,24.520695 -1.96357,4.0368 -2.90588,6.613995 -3.85206,10.535319 -1.00886,4.181151 -1.33032,7.01081 -1.33572,11.757705 -0.0115,10.104174 3.00235,17.539089 9.28354,22.901939 2.05401,1.75371 4.1796,3.30452 4.53256,3.30693 0.0913,6.2e-4 0.32404,-0.18925 0.51716,-0.42193 z m 17.91786,-22.952371 c -4.541,-1.272061 -6.75555,-6.134288 -4.71438,-10.350786 1.22192,-2.524143 4.29902,-4.638362 6.75082,-4.638362 1.26025,0 3.51698,0.893189 4.67954,1.852111 2.41524,1.992188 3.23756,6.300163 1.74693,9.151914 -1.65466,3.165565 -5.28537,4.875241 -8.46291,3.985123 z m 1.70154,-9.146612 c 0.74184,-0.662836 0.86407,-0.946606 0.86407,-2.006078 0,-1.059472 -0.12223,-1.343242 -0.86407,-2.006078 -1.21507,-1.085659 -2.61696,-1.067956 -3.88923,0.04911 -0.75189,0.660169 -0.93524,1.011732 -0.93524,1.793212 0,1.762474 1.13235,2.941879 2.82452,2.941879 0.88119,0 1.32962,-0.17311 1.99995,-0.772047 z m 48.30539,9.143273 c -1.34247,-0.372285 -1.66748,-0.575353 -3.21218,-2.00695 -1.70116,-1.576599 -2.15999,-2.712258 -2.14374,-5.305943 0.0112,-1.789927 0.13892,-2.506576 0.6257,-3.511123 1.28872,-2.659473 4.4225,-4.434434 7.11607,-4.030509 1.14574,0.171814 3.22178,1.034384 3.22178,1.338611 0,0.07492 -0.23029,0.01297 -0.51177,-0.137669 -0.93683,-0.501375 -2.37046,-0.326125 -3.07213,0.375539 -0.98244,0.982439 -0.92498,2.968373 0.11818,4.085087 0.62104,0.664827 0.97801,0.821731 1.86948,0.821731 0.60603,0 1.33093,-0.122592 1.6109,-0.272427 0.74972,-0.40124 1.37283,-1.787075 1.25548,-2.792279 -0.13982,-1.197588 0.36261,-0.757287 1.23137,1.079114 2.30567,4.873788 -0.39537,9.895179 -5.67651,10.55295 -0.65849,0.08202 -1.74572,-0.0056 -2.43263,-0.196132 z m -32.90127,-4.258158 c -0.76019,-0.760197 -0.78537,-0.96605 -0.24576,-2.009541 0.49046,-0.948443 1.68948,-1.068713 2.50675,-0.251444 0.67607,0.676071 0.67034,1.336665 -0.0192,2.213277 -0.68489,0.870706 -1.40349,0.885998 -2.24178,0.04771 z m 20.80102,-0.04771 c -0.65529,-0.833074 -0.68903,-1.365547 -0.13649,-2.154405 0.56994,-0.813701 1.77859,-0.781758 2.44433,0.0646 0.6218,0.790483 0.48933,1.843739 -0.30155,2.397691 -0.81089,0.567976 -1.38686,0.479588 -2.00629,-0.307886 z m -73.80982,7.828495 -0.25917,-0.649064 -0.0168,0.705964 c -0.009,0.388281 0.0714,0.924062 0.17928,1.190625 0.18196,0.449834 0.20179,0.445745 0.27594,-0.0569 0.0439,-0.297858 -0.0367,-0.833639 -0.17928,-1.190625 z m -0.20936,-10.504793 c 0.17533,-3.037064 0.69941,-6.196415 1.52427,-9.188952 0.27998,-1.015721 0.50905,-1.997987 0.50905,-2.182812 0,-0.480281 -3.83261,-0.43998 -6.76348,0.07112 -3.00687,0.524354 -4.54013,1.192338 -4.76152,2.074407 -0.3616,1.440752 1.51295,5.233541 3.95638,8.004942 1.11805,1.268124 4.68812,4.065566 5.18844,4.065566 0.10046,0 0.25655,-1.279922 0.34686,-2.844271 z M 404.02983,61.8122 c 2.76813,-2.2549 5.43313,-6.540719 5.68279,-9.138983 0.14457,-1.504593 -0.21257,-1.839875 -2.85075,-2.676308 -1.89826,-0.601841 -7.40833,-1.030512 -7.40833,-0.576351 0,0.143348 0.24201,0.96388 0.53779,1.823406 0.88453,2.570352 1.53572,5.617747 1.87459,8.772671 0.17585,1.637109 0.40846,2.976562 0.51692,2.976562 0.10845,0 0.8496,-0.531449 1.64699,-1.180997 z M 297.69869,40.834344 c 2.32909,-4.892656 6.14282,-10.304661 10.02148,-14.221353 l 2.62014,-2.645834 -0.72074,-1.322916 c -1.45678,-2.673871 -5.13479,-7.993168 -6.1794,-8.936914 -1.18572,-1.071227 -2.26791,-1.467035 -2.9156,-1.066367 -0.65247,0.403629 -2.875,3.238607 -3.69375,4.711614 -3.02293,5.43854 -3.71146,12.623411 -1.86359,19.446874 0.56965,2.103525 1.77912,5.027083 2.07969,5.027083 0.0987,0 0.39199,-0.446484 0.65177,-0.992187 z m 99.05702,-1.413491 c 0.67727,-1.847153 1.28026,-4.792881 1.51222,-7.387541 0.36301,-4.060498 -0.89244,-10.024473 -2.83579,-13.471331 -1.60298,-2.843142 -4.1217,-5.648899 -5.5383,-6.169452 -0.76877,-0.282497 -2.28104,1.065152 -4.15868,3.705979 -1.00774,1.417341 -2.32014,3.553011 -2.91646,4.745934 l -1.08421,2.168951 2.0465,1.872058 c 4.23707,3.875893 8.36411,9.188039 10.83642,13.948159 0.69534,1.338792 1.33885,2.351528 1.43002,2.250524 0.0912,-0.101004 0.40989,-0.849481 0.70828,-1.663281 z M 354.14728,20.726012 c 1.29792,-3.06715 1.51212,-4.267176 1.49949,-8.400521 -0.011,-3.6098828 -0.0788,-4.1721068 -0.74977,-6.2177078 -1.04032,-3.171815 -2.92542,-6.63031501 -4.83199,-8.865049 -2.68601,-3.148341 -4.14212,-3.696603 -6.06812,-2.284815 -1.5417,1.130085 -4.13942,3.948141 -5.27309,5.72035699 -1.98771,3.10729901 -3.8662,7.92290201 -4.49712,11.52863181 l -0.16444,0.93975 1.80555,0.354762 c 5.23177,1.027964 11.55756,3.98938 16.35763,7.657813 0.58208,0.444856 1.13296,0.81214 1.22419,0.816189 0.0912,0.004 0.40517,-0.558186 0.69767,-1.24941 z"
       id="path50" /></g></svg>
