<?xml version="1.0" encoding="UTF-8" standalone="no"?>
<!-- Created with Inkscape (http://www.inkscape.org/) -->

<svg
   width="224.18588mm"
   height="195.8927mm"
   viewBox="0 0 224.18589 195.8927"
   version="1.1"
   id="svg1"
   xml:space="preserve"
   xmlns="http://www.w3.org/2000/svg"
   xmlns:svg="http://www.w3.org/2000/svg"><defs
     id="defs1"><clipPath
       clipPathUnits="userSpaceOnUse"
       id="clipPath3"><path
         id="path3"
         style="fill:#ff0000;fill-opacity:1;fill-rule:nonzero;stroke:none;stroke-width:0.264583"
         d="M 117.46378,-9.1863687 V 177.1666 H 291.49502 V -9.1863687 Z M 147.33431,111.9313 c 4.14894,-0.0917 4.55169,4.35712 -0.092,5.08445 -1.19542,0.18724 -2.39032,0.38079 -3.5698,0.65474 -1.90165,0.43105 -3.80094,0.86919 -5.68493,1.37304 -4.84343,1.29532 -6.43119,-3.45704 -1.60197,-4.80436 2.03917,-0.56891 4.10352,-1.04005 6.16758,-1.50792 1.28939,-0.29942 2.59504,-0.5123 3.90158,-0.71882 0.30951,-0.0489 0.60293,-0.075 0.87953,-0.0811 z" /></clipPath><clipPath
       clipPathUnits="userSpaceOnUse"
       id="clipPath29"><path
         id="path30"
         style="fill:#ff0000;fill-opacity:1;fill-rule:nonzero;stroke:none;stroke-width:0.264583"
         d="M -43.229648,-9.2280016 V 216.91788 H 174.31521 V -9.2280016 Z M 64.45887,27.798679 c 2.205167,0.07543 3.149314,2.777559 0.336931,5.092713 -1.01463,0.835234 -0.499494,0.392851 -1.540992,1.333252 -0.05085,0.0495 -0.09987,0.101018 -0.150379,0.150894 0.220084,0.811057 0.124675,1.87329 -0.520898,3.115572 -0.875451,1.684613 -1.748676,3.370175 -2.654102,5.038968 -0.9775,1.836439 -1.88347,3.711528 -2.891295,5.530414 -2.429936,4.385429 -6.499333,1.653471 -4.214214,-2.809132 0.315439,-0.616018 0.63763,-1.228696 0.952912,-1.844849 -0.0069,-0.02252 -0.01495,-0.04284 -0.0217,-0.06563 -0.595128,-2.008016 -0.06926,-3.784214 0.689364,-5.659086 1.273995,-2.682428 3.163792,-4.981609 5.254458,-7.063137 1.251259,-1.138375 0.627229,-0.597072 1.867588,-1.628325 0.963808,-0.80132 1.889408,-1.157192 2.675289,-1.190625 0.07368,-0.0031 0.145905,-0.0035 0.217041,-0.0011 z M 107.156,139.45233 v 5.3e-4 h 1.33171 c 3.18466,0 4.31777,2.03379 3.45198,3.52174 1.2611,1.23575 0.77004,3.28353 -1.76526,3.91088 -0.54914,0.61592 -1.49045,1.10474 -2.85099,1.26142 -0.13698,0.0157 -0.27436,0.0312 -0.41135,0.047 -2.65141,0.30532 -4.05473,-0.97849 -4.03644,-2.33215 -0.3479,-0.33509 -0.56463,-0.74464 -0.62167,-1.18649 -3.34332,-0.94574 -2.811804,-4.86069 1.59628,-4.86069 h 0.98857 c 0.11851,0 0.23333,0.004 0.34624,0.009 0.53882,-0.2172 1.16849,-0.37104 1.97093,-0.37104 z" /></clipPath><clipPath
       clipPathUnits="userSpaceOnUse"
       id="clipPath48"><path
         id="path49"
         style="fill:#ff0000;fill-opacity:1;fill-rule:nonzero;stroke:none;stroke-width:0.264583"
         d="M 41.090804,5.5343725 V 221.55581 H 225.28628 V 5.5343725 Z M 200.73584,27.81415 c 1.72945,0.01908 2.64943,1.415222 2.08618,2.936254 0.0339,0.915892 -0.44821,2.031525 -1.67277,3.09025 -1.14726,0.991904 -0.56367,0.491389 -1.75183,1.502235 -1.46438,1.223881 -2.91427,2.468533 -4.41523,3.645773 -1.77565,1.392637 -3.30034,1.324822 -4.09174,0.539502 -1.31401,0.83852 -2.64966,1.641588 -3.98426,2.445845 -4.29416,2.587749 -6.80634,-1.80888 -2.51251,-4.397148 1.38418,-0.834355 2.77707,-1.656016 4.13257,-2.53783 2.02228,-1.284452 4.05223,-2.553893 5.99602,-3.95583 1.19062,-0.885809 2.41863,-1.714333 3.69021,-2.478919 0.9399,-0.565155 1.79944,-0.798117 2.52336,-0.790132 z m -20.13521,16.378329 c 1.02365,0.01453 1.87727,0.799764 2.03296,2.110465 0.71756,0.616212 1.16959,1.820418 0.93741,3.568774 -0.19898,1.498301 -0.82482,2.881966 -1.4888,4.223515 -0.63096,1.325187 -1.47451,2.521106 -2.32492,3.70985 -0.38328,0.580088 -0.18725,0.28308 -0.58808,0.890902 -1.63866,2.484932 -3.79495,2.511833 -4.69894,1.247471 -2.33551,3.060126 -5.91882,0.907738 -3.88814,-3.193087 0.88107,-1.779241 1.75108,-3.563456 2.63189,-5.342829 0.83405,-1.68497 1.98081,-2.401348 2.97139,-2.401401 0.1436,-8e-6 0.2783,0.0337 0.41393,0.06305 0.3156,-0.730126 0.62695,-1.462167 0.92862,-2.198317 0.77233,-1.88468 2.00662,-2.693514 3.07268,-2.678388 z" /></clipPath></defs><g
     id="layer1"
     transform="translate(-195.34634,6.9820917)"><path
       style="fill:#000000"
       d="m 277.34663,188.8109 c -1.52522,-0.30459 -2.87365,-1.08086 -3.84138,-2.21144 l -0.91349,-1.06721 -1.44394,0.34639 c -5.54474,1.33016 -9.19561,-3.02115 -8.81368,-10.50464 l 0.14069,-2.75646 -0.70004,-0.28812 c -0.38502,-0.15847 -1.33895,-0.56673 -2.11986,-0.90726 l -1.41983,-0.61913 -3.73954,1.83195 c -4.26639,2.09004 -13.55126,5.87929 -15.89983,6.48888 -2.00675,0.52088 -3.43318,0.5182 -4.98144,-0.009 -1.19196,-0.40615 -1.27976,-0.39824 -2.93653,0.26458 -3.06783,1.22732 -5.81951,0.79051 -8.12155,-1.28924 -0.93272,-0.84266 -1.06828,-0.88655 -1.96951,-0.63771 -1.79024,0.49431 -4.25695,-0.27052 -5.77794,-1.79151 -3.71857,-3.71857 -2.53965,-10.80397 2.8449,-17.09806 0.71694,-0.83804 1.25218,-1.57507 1.18941,-1.63783 -0.0628,-0.0628 -0.94474,-0.48641 -1.95996,-0.94144 -4.53916,-2.0345 -9.85008,-6.43728 -12.40999,-10.28794 -2.99412,-4.5038 -4.35285,-8.56903 -4.57247,-13.68055 -0.22989,-5.35069 0.70096,-9.85146 3.15235,-15.24198 l 0.80669,-1.77388 -0.95195,-4.70841 c -1.46128,-7.2276 -1.84578,-10.647856 -1.85296,-16.482371 -0.007,-5.437876 0.42108,-9.314545 1.42925,-12.952639 0.28308,-1.021531 0.51469,-2.026669 0.51469,-2.23364 0,-0.206971 -0.78377,-1.427597 -1.74172,-2.712502 -1.96981,-2.642133 -4.35324,-7.255378 -5.17411,-10.01476 -0.77461,-2.60387 -0.98909,-8.987221 -0.398,-11.845435 0.77311,-3.738335 2.27121,-5.274504 5.31134,-5.446286 1.60718,-0.09081 1.91566,-0.193093 2.38608,-0.791143 0.29715,-0.377765 0.74618,-0.863146 0.99784,-1.078624 0.39146,-0.335182 0.45597,-0.890534 0.44654,-3.844311 -0.022,-6.880874 1.79592,-12.254937 6.98539,-20.650448 9.07053,-14.6742836 23.6687,-28.7023109 30.37357,-29.1872971 0.84743,-0.061298 1.9422,-0.036143 2.43283,0.055899 1.25603,0.2356332 3.05501,1.8743563 3.7897,3.4521035 0.80327,1.7250407 0.83337,4.8070274 0.0906,9.275129 -0.81849,4.9235536 -0.95074,8.8219316 -0.40254,11.8665256 0.25285,1.404296 0.56778,2.553266 0.69985,2.553266 0.13207,0 0.24013,-0.110626 0.24013,-0.245834 0,-0.47326 3.24717,-3.975998 5.12069,-5.523706 2.869,-2.370071 5.26915,-3.905947 8.81322,-5.6396471 5.53815,-2.709171 8.45931,-2.895239 10.85048,-0.691138 1.48826,1.3718354 3.08756,4.5992291 3.83285,7.7347001 0.31131,1.309687 0.58765,2.410759 0.61409,2.446826 0.0264,0.03607 0.91828,-0.230396 1.98185,-0.59214 5.79147,-1.969806 12.79886,-1.940916 16.4973,0.06801 1.39426,0.757341 2.64942,2.364408 2.96349,3.794374 0.0924,0.420869 0.30744,0.763101 0.47778,0.760516 0.17034,-0.0026 1.33953,-0.113089 2.59821,-0.245564 6.08196,-0.640119 10.16234,-2.627895 13.46405,-6.55907 2.19595,-2.614596 3.87428,-6.5431779 5.27771,-12.3538494 1.05764,-4.3790302 2.25232,-5.7390011 5.20674,-5.9271242 2.73044,-0.173861 5.10758,1.0677516 8.5587,4.4703226 6.53756,6.4455856 10.86326,15.070676 12.18637,24.2986 0.38605,2.692495 0.19335,8.125638 -0.38096,10.741176 -1.09473,4.985579 -3.44907,9.89006 -6.66804,13.890625 -1.40221,1.742688 -5.01536,5.172721 -7.20338,6.838319 -2.33222,1.775369 -3.13709,2.781995 -4.00539,5.009387 l -0.54445,1.396665 1.52267,1.646043 c 2.2157,2.395231 3.3779,4.086166 4.61804,6.719038 0.96169,2.041707 1.11426,2.621377 1.21339,4.610299 0.16843,3.379315 -0.6031,5.615425 -3.48233,10.092731 l -0.97733,1.519776 1.43583,1.740722 c 0.78971,0.957397 1.71544,2.267795 2.05719,2.911995 0.34175,0.6442 0.75626,1.171272 0.92114,1.171272 0.39812,0 1.45159,-1.405934 2.27991,-3.042708 1.30925,-2.58708 1.54384,-3.909058 1.80763,-10.186458 0.13759,-3.274218 0.37847,-6.607968 0.53528,-7.408333 0.66167,-3.377182 3.26248,-7.348369 7.24251,-11.058611 5.57525,-5.197333 14.31176,-9.399762 24.87746,-11.966545 7.40657,-1.799319 10.92372,-2.216303 18.65312,-2.21147 7.5391,0.0047 10.48691,0.378218 15.5074,1.964877 5.59455,1.768085 8.81301,3.88261 9.76145,6.413271 0.40864,1.090329 0.42868,1.417683 0.1448,2.365178 -0.48851,1.630512 -1.43075,2.323399 -5.30093,3.898124 -6.9641,2.833597 -8.97948,4.999747 -8.99615,9.669135 -0.0122,3.42249 -0.98965,4.363708 -5.23726,5.043216 -4.84975,0.775836 -6.54438,1.375301 -8.25394,2.919785 -1.55381,1.403773 -2.28832,2.809489 -2.93454,5.616144 -0.69223,3.00649 -1.16032,3.605892 -3.94895,5.056697 -2.12026,1.103081 -2.31247,1.280489 -1.89631,1.750302 0.35316,0.398686 1.32681,3.820402 1.52081,5.344584 0.0972,0.763984 0.22071,1.389062 0.27439,1.389062 0.0537,0 0.66342,-0.403174 1.35498,-0.895943 4.69679,-3.346684 10.86986,-4.968532 13.69878,-3.599076 2.28629,1.106772 4.65329,5.793408 5.43413,10.759478 0.17901,1.13846 0.34348,2.09535 0.3655,2.12643 0.022,0.0311 1.16555,-0.17572 2.54117,-0.45955 2.76892,-0.5713 6.68436,-0.67919 8.32196,-0.2293 1.51666,0.41666 3.08538,2.14147 3.68685,4.05371 0.709,2.25411 0.4781,5.6072 -0.60811,8.83066 -0.45638,1.35435 -0.82978,2.65812 -0.82978,2.89728 0,0.23916 0.41183,1.5123 0.91517,2.82922 5.45406,14.26963 2.26389,30.94045 -8.10885,42.37427 -6.50701,7.17265 -14.19218,11.67139 -24.56889,14.38212 -11.61293,3.03367 -22.54061,3.03214 -41.6593,-0.006 -8.96238,-1.42412 -9.99279,-1.55921 -16.01797,-2.10003 -3.26835,-0.29336 -6.41869,-0.58843 -7.00078,-0.65571 -6.28466,-0.72641 -9.53631,-1.27831 -11.982,-2.03371 l -1.67367,-0.51694 -1.90341,1.62201 c -4.42087,3.76729 -10.8504,7.34226 -14.56868,8.10052 -1.75084,0.35705 -2.148,0.3583 -3.51125,0.0111 -1.47572,-0.37585 -1.58494,-0.36753 -2.73447,0.2082 -2.19719,1.10045 -4.2593,1.53159 -5.82756,1.2184 z m 5.10616,-7.13659 2.30218,-1.05858 v -1.91661 c 0,-1.05413 0.14143,-2.8948 0.31429,-4.09038 0.3054,-2.11221 0.29637,-2.19992 -0.31863,-3.09746 -1.23143,-1.79716 -3.26281,-2.3033 -4.81325,-1.1993 -2.38885,1.70101 -4.02049,9.65248 -2.46716,12.02316 0.41084,0.62702 0.57871,0.68581 1.57021,0.54991 0.6106,-0.0837 2.14617,-0.62852 3.41236,-1.21074 z m 9.15262,-1.49366 c 1.32348,-0.66253 2.54108,-1.4564 2.70578,-1.76416 0.42967,-0.80283 0.0841,-3.53042 -0.62913,-4.96621 -0.45587,-0.91767 -0.89124,-1.3411 -1.88569,-1.83398 -1.21425,-0.60181 -1.35922,-0.61792 -2.38125,-0.26458 -0.89508,0.30945 -1.2057,0.6111 -1.74974,1.69916 -0.58926,1.17853 -0.6598,1.64058 -0.64628,4.23334 0.0174,3.34464 0.2798,4.10104 1.42245,4.10104 0.41665,0 1.84039,-0.54208 3.16386,-1.20461 z m -21.38298,-0.42935 c 0.49075,-0.17108 1.60985,-0.72973 2.48688,-1.24146 0.87704,-0.51172 1.62505,-0.94789 1.66224,-0.96925 0.0372,-0.0214 0.28626,-0.87162 0.55349,-1.88946 0.69476,-2.64631 2.60147,-6.08908 3.46884,-6.26336 0.3699,-0.0743 1.1774,-0.28709 1.79445,-0.4728 1.01362,-0.30507 1.23567,-0.28238 2.3007,0.23505 0.67834,0.32956 1.62096,1.13207 2.22026,1.89025 l 1.04146,1.31755 0.62659,-0.67976 c 1.24532,-1.35099 3.27742,-1.76314 5.04721,-1.02367 2.1642,0.90426 4.14246,4.25352 3.84079,6.50261 -0.0777,0.57929 -0.0633,1.05421 0.032,1.05537 0.0953,0.001 1.45191,-0.86204 3.01471,-1.91823 l 2.84146,-1.92034 0.003,-1.75199 c 0.003,-1.65114 0.0781,-1.86736 1.31122,-3.75625 1.26743,-1.94152 5.57641,-6.50077 9.43999,-9.98829 3.11908,-2.8155 4.80152,-5.64047 6.44961,-10.82951 0.80032,-2.51983 1.06263,-3.0569 1.52642,-3.12528 0.45967,-0.0678 0.59314,0.094 0.74483,0.90255 0.2706,1.44243 -0.0606,6.14546 -0.52452,7.44825 -0.22023,0.61846 -0.29495,1.12448 -0.16604,1.12448 0.49275,0 3.62383,-1.58192 4.03891,-2.04058 1.38391,-1.52921 2.84944,-6.11111 3.36853,-10.53157 0.1706,-1.45276 0.37604,-3.05811 0.45653,-3.56743 0.14468,-0.91552 0.15163,-0.90763 0.61226,0.69427 0.9851,3.42579 0.90045,7.75136 -0.21642,11.05966 -0.27392,0.81138 -0.42722,1.47394 -0.34066,1.47237 0.0865,-0.002 0.75268,-0.1876 1.48029,-0.41338 5.07272,-1.57413 11.89449,-2.93004 21.82812,-4.33858 5.61165,-0.79571 9.20257,-1.44913 9.47813,-1.72469 0.0776,-0.0776 -0.94151,-1.2411 -2.26474,-2.5855 -1.32323,-1.3444 -3.36208,-3.59122 -4.53077,-4.99293 -1.16869,-1.40172 -2.93499,-3.43632 -3.92511,-4.52135 -0.99012,-1.08503 -1.98082,-2.20036 -2.20156,-2.47851 -1.28179,-1.6152 -1.88849,-2.49011 -1.72675,-2.49011 0.35646,0 3.74015,2.10233 5.69514,3.53847 1.08874,0.7998 2.01395,1.41977 2.056,1.37771 0.0421,-0.0421 -0.055,-0.68925 -0.21558,-1.43822 -0.34874,-1.62611 -0.21483,-2.29485 0.27245,-1.36059 0.87323,1.67423 4.56386,6.42502 6.51111,8.38148 2.5558,2.56788 6.44475,5.2174 7.65807,5.2174 0.4511,0 1.18453,-0.15093 1.62986,-0.33538 0.72916,-0.30203 0.82701,-0.48282 0.98392,-1.81795 0.3524,-2.9983 1.91112,-5.22507 4.52221,-6.46034 2.01896,-0.95514 3.55417,-0.98526 5.29513,-0.10388 0.70475,0.35679 1.37797,0.58901 1.49604,0.51604 0.47441,-0.29321 2.33246,-3.77786 2.82123,-5.29104 0.58951,-1.82507 1.09837,-5.64916 1.02347,-7.69141 -0.0565,-1.54071 0.0801,-1.79634 0.83231,-1.55759 1.3069,0.41479 2.32209,3.69572 2.03743,6.58462 -0.68599,6.96164 -5.33682,13.41108 -12.74515,17.67402 -6.47958,3.72852 -12.70072,5.50516 -26.68722,7.62134 -14.75654,2.23269 -20.40513,3.68721 -27.2604,7.01958 -3.86893,1.88071 -6.93628,4.02571 -10.00349,6.99546 -1.83132,1.77312 -3.87881,4.20218 -3.87881,4.60165 0,0.27986 2.29479,0.97484 4.49791,1.3622 1.23693,0.21749 4.51115,0.64084 7.27605,0.9408 8.05175,0.8735 18.06975,2.1024 20.5052,2.51535 23.00928,3.90142 39.30662,3.02859 51.46146,-2.75611 13.82676,-6.58039 22.04217,-19.49333 21.47841,-33.75966 -0.2431,-6.15182 -1.87353,-12.56413 -3.1962,-12.57029 -1.88667,-0.009 -6.27782,-3.27752 -8.94509,-6.65866 -1.92656,-2.44218 -2.36539,-3.19331 -2.57236,-4.40298 -0.14396,-0.84143 -0.32549,-0.96045 -4.38351,-2.87414 -7.20799,-3.39914 -12.79399,-5.89803 -17.06563,-7.63426 -5.5773,-2.26694 -12.54391,-4.88571 -12.99726,-4.88571 -0.62934,0 -3.73189,3.0004 -5.12669,4.95789 -1.82642,2.56324 -2.69297,3.12118 -4.73905,3.05135 -0.88602,-0.0302 -2.51994,-0.21778 -3.63092,-0.41676 l -2.01997,-0.36178 -1.6842,1.03349 c -5.05649,3.10286 -11.55268,5.05801 -17.98978,5.41435 l -2.81183,0.15565 -0.58665,2.40947 c -2.02735,8.32678 -6.99199,16.77632 -13.03287,22.18122 -4.98425,4.45951 -12.37346,8.29332 -23.23179,12.05354 -1.24208,0.43013 -2.78989,1.05274 -3.43959,1.38358 -2.27986,1.16096 -5.85628,3.81243 -8.01474,5.94192 -1.97731,1.95079 -5.71449,6.58082 -5.72852,7.09713 -0.003,0.11574 0.39882,0.13454 0.89324,0.0418 1.10952,-0.20815 3.14662,0.62236 3.59875,1.46719 l 0.30963,0.57855 -0.77555,-0.5734 c -1.19984,-0.88707 -2.65273,-0.97197 -3.76081,-0.21974 -1.33736,0.90789 -2.73426,2.89115 -3.46712,4.92248 -0.82801,2.29505 -0.92107,6.39403 -0.17119,7.54011 0.5466,0.83539 0.408,0.79873 1.5348,0.40593 z m -39.88002,-6.31885 c 2.49482,-0.90273 2.5446,-0.97052 2.55061,-3.4732 0.002,-0.82727 0.11009,-1.78418 0.24023,-2.12647 0.31898,-0.83897 -0.28284,-2.54897 -1.16657,-3.31471 -0.99657,-0.8635 -2.27235,-0.78747 -3.4,0.20261 -1.86534,1.63779 -3.24505,7.22881 -2.18362,8.84875 0.57578,0.87875 1.21318,0.8567 3.95935,-0.13698 z m 8.41333,-0.50605 c 2.63676,-0.81754 2.87215,-1.06418 2.87215,-3.00946 0,-1.18424 -0.16772,-1.98071 -0.59532,-2.82713 -0.63217,-1.25137 -2.0279,-2.37395 -2.94954,-2.37231 -1.08998,0.002 -2.18871,0.94721 -2.63981,2.27112 -0.49314,1.44728 -0.56636,4.40127 -0.13945,5.62591 0.35448,1.01687 0.9923,1.0745 3.45197,0.31187 z m -17.06129,-1.90594 c 1.96651,-0.73219 2.10728,-0.84653 2.31229,-1.87811 0.0933,-0.46968 0.52695,-1.59586 0.96356,-2.50262 0.7699,-1.59891 0.78141,-1.67846 0.38126,-2.63615 -0.5937,-1.42093 -1.15067,-1.93425 -2.08708,-1.92353 -1.15575,0.0132 -1.94889,0.52668 -2.82216,1.82694 -2.15769,3.21273 -2.60362,7.68868 -0.766,7.68868 0.26028,0 1.16843,-0.25884 2.01813,-0.57521 z m 24.53927,-0.98525 c 3.15029,-1.27599 7.30204,-3.11547 7.51709,-3.33052 0.0605,-0.0605 -0.8561,-1.16339 -2.03683,-2.45093 -1.18074,-1.28753 -2.51271,-2.83853 -2.95993,-3.44666 l -0.81314,-1.1057 -1.63516,0.19245 c -0.89933,0.10585 -4.61172,0.19245 -8.24974,0.19245 -5.17582,0 -7.29714,-0.10792 -9.75257,-0.49614 l -3.13799,-0.49615 -1.05191,1.05192 -1.05192,1.05192 0.93455,0.5514 c 0.54148,0.31948 1.17678,1.03164 1.51045,1.69318 0.73985,1.46685 0.69227,1.43136 1.24651,0.92977 0.6946,-0.6286 2.30053,-1.24319 3.24846,-1.24319 1.033,0 2.71536,1.16545 3.34061,2.31419 l 0.46754,0.85898 0.61025,-0.65813 c 1.55592,-1.67799 3.96707,-1.91056 5.74539,-0.55417 1.31557,1.00343 2.34442,3.11062 2.36897,4.85189 0.0108,0.76384 0.12767,1.38892 0.25979,1.38906 0.13211,1.4e-4 1.67993,-0.58288 3.43958,-1.29562 z m 20.26029,-4.38443 c 1.27369,-2.22618 3.89149,-5.32318 6.89239,-8.15407 1.49826,-1.41338 2.58401,-2.56978 2.41278,-2.56978 -0.17123,0 -1.17302,0.24077 -2.22621,0.53505 -2.66677,0.74515 -11.09776,2.23287 -16.46696,2.90575 -2.47385,0.31002 -4.59425,0.58775 -4.71199,0.61717 -0.40166,0.10036 1.46796,2.02427 3.22411,3.31771 0.96385,0.7099 2.46303,1.68851 3.33149,2.1747 1.80037,1.00789 5.61029,2.59269 6.27291,2.60932 0.26611,0.007 0.77484,-0.56782 1.27148,-1.43585 z m -17.14314,-12.0302 c 12.44402,-1.62268 17.56024,-2.55902 27.02176,-4.94536 11.65976,-2.94077 21.46737,-6.89906 27.85326,-11.24139 11.75433,-7.99281 17.82031,-21.07932 17.21704,-37.14336 -0.28822,-7.674995 -1.81145,-14.985467 -4.56067,-21.888157 -1.24212,-3.118714 -3.21999,-7.083717 -3.53358,-7.083717 -0.13231,0 -0.9912,0.192306 -1.90865,0.427346 -3.57483,0.915829 -8.54329,-0.319811 -13.72048,-3.412245 -1.63929,-0.979178 -3.1114,-2.209121 -5.43034,-4.537035 -4.39307,-4.410059 -6.56367,-7.815108 -8.36071,-13.115564 -0.73532,-2.168859 -0.86721,-2.967073 -0.96177,-5.820833 -0.0603,-1.819011 0.008,-3.815614 0.1509,-4.436897 0.39858,-1.728543 0.18744,-1.78319 -6.82933,-1.7675 -5.44199,0.01217 -6.25784,0.07618 -9.5021,0.745579 -5.89075,1.215453 -10.36361,2.792112 -15.8979,5.60393 -2.90148,1.474161 -8.51166,4.968248 -10.263,6.391926 l -0.60572,0.492387 1.18987,1.29601 c 2.37986,2.592159 3.59344,5.811965 3.59344,9.533939 0,3.800066 -1.26977,7.074307 -3.83149,9.879905 -2.63892,2.890149 -5.43142,4.125825 -9.26539,4.099917 -4.3438,-0.02935 -8.43765,-1.918382 -12.53587,-5.784429 -1.03907,-0.980206 -2.4314,-2.59775 -3.09406,-3.594542 -0.66267,-0.996791 -1.3024,-1.872638 -1.42163,-1.946326 -0.45092,-0.278683 -3.23617,5.760095 -4.64515,10.071271 -2.07353,6.344576 -2.89639,11.403992 -2.87892,17.701285 0.0145,5.244533 0.38541,8.51371 1.83706,16.19397 0.50075,2.64929 0.91022,5.14961 0.90994,5.55625 -2.8e-4,0.40665 -0.5413,2.10858 -1.20227,3.78207 -2.04985,5.18998 -2.53537,7.14742 -2.69188,10.85264 -0.12072,2.858 -0.0615,3.59771 0.43189,5.39619 1.21097,4.41401 3.00756,7.39133 6.40147,10.60853 5.2348,4.96225 11.65626,7.64093 20.8738,8.70741 2.27294,0.26298 11.75967,-0.11454 15.66048,-0.6232 z m -10.23653,-9.01938 c -3.26149,-0.65818 -4.85866,-2.10449 -4.20502,-3.80784 0.22241,-0.5796 1.4921,-0.53099 2.73845,0.10485 2.36173,1.20486 7.59814,1.31932 10.51031,0.22973 0.77124,-0.28855 2.02527,-0.99277 2.78672,-1.56491 0.76146,-0.57215 1.5365,-1.04027 1.72232,-1.04027 0.51227,0 1.39618,0.99218 1.39618,1.5672 0,1.4308 -2.94081,3.34787 -6.55278,4.27166 -2.10367,0.53803 -6.32099,0.65837 -8.39618,0.23958 z m -7.51662,-11.93743 c -2.48284,-0.93693 -1.68716,-6.13053 1.14514,-7.47454 0.81499,-0.38674 1.05603,-0.40167 1.67725,-0.10393 2.82441,1.35368 0.096,8.67976 -2.82239,7.57847 z m 18.09995,-2.03539 c -0.97958,-0.59739 -2.46459,-2.26119 -2.79584,-3.13245 -0.52185,-1.37255 -0.18292,-2.96941 0.78854,-3.71528 1.43199,-1.09944 4.22269,0.43857 5.60386,3.08838 0.72795,1.39661 0.52554,2.6351 -0.58314,3.56799 -0.94898,0.79851 -1.91704,0.85998 -3.01342,0.19136 z m -32.94062,-6.5933 c -1.89589,-0.51238 -3.77385,-1.51576 -4.70683,-2.51483 -1.21557,-1.30167 -0.9991,-3.76991 0.38598,-4.40099 0.56255,-0.25632 1.04865,-0.17668 3.02028,0.49484 4.13807,1.40938 7.16158,1.03296 10.61742,-1.32186 1.06037,-0.72253 2.16934,-1.31453 2.46439,-1.31555 1.44242,-0.005 2.66784,1.90433 2.233,3.47919 -0.48131,1.74315 -3.53386,4.22693 -6.51372,5.30004 -2.11964,0.76333 -5.27455,0.88075 -7.50052,0.27916 z m 56.22129,-5.62501 c -5.20901,-1.03571 -8.06063,-3.90025 -6.40225,-6.43125 0.68184,-1.04061 1.82442,-1.12047 4.15596,-0.29047 1.59471,0.56769 2.60784,0.73095 5.15938,0.83137 4.82256,0.18979 7.64608,-0.64473 12.13863,-3.58771 1.14646,-0.75103 2.36125,-1.3655 2.69953,-1.3655 1.47004,0 2.49204,1.04131 2.49204,2.53913 0,2.74505 -5.97234,7.05386 -11.36037,8.19606 -1.85781,0.39384 -7.12408,0.45808 -8.88292,0.10837 z m 102.06012,22.68445 c 2.40429,-1.35136 4.73138,-3.1495 4.64637,-3.59027 -0.0422,-0.21889 -0.43491,-0.54411 -0.87266,-0.72272 -2.00522,-0.81815 -4.75905,1.40517 -5.51581,4.45321 -0.0994,0.40018 -0.0891,0.72403 0.0228,0.71967 0.11191,-0.004 0.88559,-0.39131 1.71927,-0.85989 z m 34.98389,-19.74488 c 0.62833,-1.21506 1.73261,-5.27625 1.73261,-6.372 0,-1.37833 -0.52253,-1.73119 -2.49313,-1.68361 -2.3637,0.0571 -7.03187,1.41843 -7.03187,2.05067 0,0.82 6.20197,6.77389 7.05614,6.77389 0.18623,0 0.51754,-0.34603 0.73625,-0.76895 z m -78.83301,-10.88361 c 7.43245,-0.89301 13.20485,-3.77341 16.66139,-8.31393 2.30758,-3.031256 3.67852,-6.211985 4.39461,-10.196005 0.19243,-1.070569 0.29597,-4.412147 0.27427,-8.851852 -0.0366,-7.4899 0.1597,-9.551016 1.08326,-11.374385 1.7366,-3.428546 5.65956,-6.804549 10.55053,-9.079529 8.77197,-4.080185 23.51261,-6.324893 35.28808,-5.373673 2.17712,0.175867 4.11816,0.409166 4.31342,0.518442 0.19527,0.109276 -1.7646,0.408599 -4.35527,0.665162 -8.19652,0.811734 -18.88004,2.220832 -22.25874,2.935808 -1.79352,0.379532 -4.82961,1.202267 -6.74687,1.828301 -3.51641,1.148193 -8.36965,3.280424 -8.37684,3.680287 -0.002,0.118946 0.21198,0.147755 0.4758,0.06402 0.98989,-0.314176 5.86281,-0.663655 9.3099,-0.667692 6.26958,-0.0073 13.72277,1.112472 17.72708,2.663428 3.04271,1.178507 3.09452,1.321729 0.39688,1.097185 -3.80639,-0.316832 -18.20676,-0.213012 -21.35991,0.153996 -5.52879,0.643519 -10.52238,2.089322 -10.52238,3.046563 0,0.211933 0.74414,1.018457 1.65364,1.792276 4.49895,3.827761 8.01845,7.651381 9.86421,10.716564 1.10619,1.837016 1.16742,2.281476 0.18996,1.378939 -1.70321,-1.572656 -13.00757,-9.449049 -14.24048,-9.922164 -0.36405,-0.139697 -0.41029,-0.03933 -0.27621,0.599541 0.78331,3.732321 0.91358,9.866369 0.28668,13.498814 -0.55324,3.205636 -1.57928,6.508567 -2.65604,8.550066 -0.49384,0.936308 -0.87022,1.712608 -0.83639,1.725108 0.0338,0.0125 0.47822,0.17916 0.98754,0.37036 0.50933,0.19119 1.09281,0.36739 1.29664,0.39155 0.20383,0.0242 1.01598,-0.90857 1.80479,-2.07274 0.7888,-1.164166 1.93172,-2.633988 2.53982,-3.26627 2.11433,-2.19843 6.13559,-4.54916 12.08584,-7.065084 4.88512,-2.065563 7.40838,-3.368496 8.25266,-4.261416 0.39162,-0.414184 1.13413,-1.860337 1.65002,-3.213674 1.36342,-3.57662 3.14715,-5.860635 5.91199,-7.570135 1.40761,-0.870327 5.1642,-2.138949 7.55487,-2.551328 0.9933,-0.17134 1.841,-0.44656 1.88376,-0.6116 0.0428,-0.165041 0.21006,-1.003801 0.37175,-1.863911 0.90774,-4.828565 4.54495,-8.696868 10.35828,-11.016415 1.23692,-0.49354 2.3083,-0.94048 2.38083,-0.9932 0.60287,-0.438197 -3.9506,-1.932949 -8.20167,-2.692335 -7.98946,-1.427193 -18.05496,-0.775611 -28.17812,1.824088 -13.22529,3.396348 -22.21828,9.141233 -25.60156,16.354744 -0.83649,1.783487 -0.84087,1.815369 -1.02673,7.479663 -0.2135,6.506776 -0.46501,8.399529 -1.50766,11.345916 -2.32628,6.57382 -7.78986,11.247737 -14.80461,12.664897 -1.32903,0.2685 -2.46371,0.54208 -2.52151,0.60795 -0.0578,0.0659 -0.18184,1.34169 -0.27566,2.83513 l -0.17057,2.71535 0.99373,-0.13035 c 0.54656,-0.0717 2.0653,-0.2591 3.37499,-0.41646 z m 65.30288,-2.56879 c -0.17326,-1.86919 -1.33497,-5.5103 -2.00756,-6.29223 -0.55989,-0.65091 -0.6526,-0.67073 -1.86563,-0.39889 -1.89586,0.42487 -6.26407,2.79908 -6.26407,3.40464 0,0.10661 1.87524,0.99968 4.16719,1.9846 2.29195,0.98491 4.46484,1.95932 4.82864,2.16533 1.10571,0.62614 1.26811,0.50329 1.14143,-0.86345 z m -65.74976,-8.071664 c 0.1572,-0.816275 -0.72053,-3.208033 -1.62568,-4.429897 -0.87361,-1.179285 -2.1392,-2.094146 -2.45714,-1.776205 -0.0907,0.09068 -0.0379,1.092968 0.11739,2.227309 0.15525,1.13434 0.35861,2.794476 0.45192,3.68919 l 0.16965,1.626757 1.62777,-0.4393 c 1.10977,-0.2995 1.65588,-0.58522 1.71609,-0.897854 z m 44.76458,-0.405559 c 0,-0.920453 -0.73942,-3.810288 -1.05611,-4.127541 -0.13728,-0.137518 -1.42279,0.344621 -3.08985,1.158865 l -2.85477,1.39436 3.30193,1.121144 c 1.81606,0.616629 3.39123,1.136935 3.50037,1.156235 0.10914,0.0193 0.19843,-0.297074 0.19843,-0.703063 z M 326.37921,85.454093 c 0.7014,-0.862284 1.77296,-2.57982 2.38125,-3.816747 0.95686,-1.945758 1.10596,-2.482668 1.10596,-3.982472 0,-1.466848 -0.15114,-2.039322 -0.98251,-3.721484 -1.15788,-2.342823 -3.47734,-4.979595 -5.90289,-6.710429 -0.94246,-0.672522 -1.71356,-1.246932 -1.71356,-1.276466 0,-0.02953 0.41672,-0.912702 0.92605,-1.962597 1.01184,-2.085775 1.04406,-2.190301 0.67507,-2.190301 -0.33321,0 -4.83462,4.293866 -5.86424,5.593866 l -0.81069,1.023573 1.23727,1.916801 c 2.38216,3.690478 5.58253,10.948551 6.69071,15.173737 0.2445,0.932187 0.56553,1.655605 0.71341,1.607596 0.14789,-0.04801 0.84276,-0.792793 1.54417,-1.655077 z M 236.28882,71.829681 c 3.71061,-1.854213 5.87349,-6.461488 5.09041,-10.843346 -0.72978,-4.083634 -3.29778,-7.355878 -7.7759,-9.908362 -5.70497,-3.251777 -7.4681,-4.482767 -9.83482,-6.86649 -1.72859,-1.741007 -2.70758,-2.999952 -3.57187,-4.593274 -0.65485,-1.207203 -1.40763,-2.486127 -1.67285,-2.842054 -1.84613,-2.47748 -4.14799,2.46743 -4.14799,8.910801 0,7.235813 2.32661,13.738206 7.02274,19.627087 4.01395,5.033444 7.58981,7.277352 11.65427,7.313241 1.28734,0.01137 1.9381,-0.149029 3.23601,-0.797603 z M 207.34474,70.22758 c 1.38184,-2.678578 3.27515,-5.997947 4.15869,-7.291029 0.41564,-0.608303 0.75236,-1.263147 0.74827,-1.455209 -0.004,-0.192062 -0.39105,-1.062861 -0.8599,-1.93511 -0.83927,-1.561371 -0.87397,-1.58897 -2.243,-1.783974 -1.33031,-0.189488 -3.26297,-0.996555 -5.93011,-2.47638 -1.41818,-0.786855 -2.23075,-0.684406 -2.61638,0.329875 -0.79387,2.088049 0.37193,7.723616 2.44887,11.83801 0.87543,1.734216 2.84758,4.658583 3.14169,4.658583 0.0988,0 0.6171,-0.848144 1.15187,-1.884766 z m 104.78534,-4.531379 c 1.98253,-2.562505 4.12734,-4.341638 7.94676,-6.591856 1.74625,-1.028807 3.8085,-2.243586 4.58277,-2.699507 2.56971,-1.513146 6.88622,-4.886874 8.99688,-7.03184 3.6942,-3.754263 6.13692,-8.171598 7.24922,-13.109288 0.65421,-2.904112 0.76922,-8.550048 0.2345,-11.511778 -1.05499,-5.843499 -3.88309,-11.559302 -8.35877,-16.893735 -2.35663,-2.8088033 -3.56206,-3.820841 -4.40454,-3.6979261 -0.51599,0.075281 -0.71547,0.5169898 -1.54351,3.4178671 -1.18313,4.144883 -2.26067,6.545323 -4.38362,9.765461 -2.65348,4.024862 -5.32159,6.482808 -8.98751,8.279563 -2.44277,1.197256 -3.79166,1.62152 -8.08778,2.543835 -6.22861,1.337191 -9.80637,3.143651 -12.88906,6.507864 -1.88559,2.05779 -3.04715,4.282646 -3.79816,7.274987 -0.47083,1.875978 -0.53845,2.709698 -0.40775,5.027083 0.33256,5.896592 2.54593,10.405435 7.31775,14.906927 3.97932,3.753885 8.32467,5.681102 12.885,5.714653 l 2.16376,0.01592 z m -1.56945,-3.307292 c 1.97666,-2.675408 5.78493,-5.945414 10.92216,-9.378425 6.49468,-4.340139 9.73643,-7.111669 12.1635,-10.399178 2.02585,-2.744045 3.88055,-7.031566 4.97874,-11.509374 l 0.48667,-1.984375 0.21339,1.5875 c 0.40091,2.982532 -0.49691,7.37624 -2.19444,10.739031 -1.02204,2.024636 -3.65921,5.479124 -5.34988,7.007922 -2.0114,1.818816 -4.71969,3.780939 -8.01595,5.807457 -3.76612,2.315383 -12.07547,7.871113 -13.10152,8.759831 -0.78493,0.679867 -0.83655,0.362917 -0.10267,-0.630389 z M 209.3759,53.557552 c -0.14367,-0.636165 -0.32989,-1.484085 -0.41382,-1.884267 -0.20159,-0.961129 -0.41388,-0.914696 -1.17311,0.256583 l -0.63372,0.977636 1.1361,1.008198 c 0.62485,0.554509 1.18327,0.961018 1.24094,0.903355 0.0577,-0.05766 -0.0127,-0.62534 -0.15639,-1.261505 z m 29.44661,-4.542602 c 10.16154,-8.166029 22.79743,-13.078182 35.48142,-13.793262 2.38007,-0.13418 3.5937,-0.06195 8.59895,0.511751 l 1.45521,0.166796 1.05833,-1.803839 c 1.27717,-2.176826 4.88869,-5.869517 7.33381,-7.498655 0.97766,-0.651393 1.78133,-1.285033 1.78594,-1.40809 0.0229,-0.611623 -1.19447,-1.772604 -2.31007,-2.20305 -0.94524,-0.364717 -1.93649,-0.478662 -4.03155,-0.463435 -2.41228,0.01753 -3.11704,0.134905 -5.35175,0.891299 -3.24051,1.096831 -5.87185,2.805293 -8.81882,5.725843 l -2.25629,2.236061 0.16739,-5.759614 c 0.13424,-4.618821 0.0875,-6.161177 -0.23606,-7.787017 -0.4137,-2.078839 -1.15174,-3.839687 -1.85348,-4.422079 -0.53377,-0.442992 -1.96994,-0.04477 -5.08013,1.408633 -6.20673,2.900423 -11.27289,7.729422 -12.87216,12.26958 -0.29109,0.826385 -0.6455,2.751959 -0.78756,4.279052 -0.14207,1.527094 -0.30308,2.821313 -0.35781,2.876044 -0.0547,0.05473 -1.4233,-1.194709 -3.04126,-2.776534 -4.43383,-4.334808 -7.33135,-6.061209 -9.33069,-5.559407 -2.12805,0.534105 -2.27423,5.890759 -0.32715,11.987709 0.44086,1.380483 0.66306,2.68654 0.66531,3.910577 l 0.003,1.83784 -0.95311,-0.911798 c -1.31793,-1.260818 -3.68586,-4.231315 -5.26145,-6.60034 -2.55911,-3.847832 -5.3975,-6.038 -7.97015,-6.149967 -1.28304,-0.05584 -1.95487,0.434904 -1.95487,1.427941 0,1.762431 4.92161,9.51102 8.35348,13.151728 2.05475,2.179786 5.90275,5.29664 6.56822,5.320221 0.13054,0.0046 0.72585,-0.384169 1.32292,-0.863988 z M 214.57943,31.000361 c 0.54285,-0.565186 1.32229,-1.145122 1.73208,-1.288746 0.55144,-0.193267 0.91619,-0.648215 1.40344,-1.750513 2.11061,-4.774764 6.37334,-5.321192 11.69359,-1.498971 0.97399,0.699738 1.40277,0.881411 1.48465,0.629037 0.0633,-0.195173 0.29873,-1.017185 0.52312,-1.826692 0.5197,-1.874849 1.32487,-3.063266 2.75768,-4.070287 0.96256,-0.67651 1.43546,-0.814341 3.07871,-0.897322 1.2517,-0.06321 2.44086,0.04836 3.34712,0.314019 0.77312,0.226632 1.44798,0.369741 1.4997,0.31802 0.0517,-0.05172 -0.0476,-1.062674 -0.2207,-2.24656 -0.44353,-3.033353 -0.1945,-9.3878013 0.55313,-14.1137248 l 0.61878,-3.91143696 -0.55035,-0.55035069 c -0.49664,-0.49663305 -0.64642,-0.51864616 -1.53457,-0.22552994 -1.21943,0.40244997 -4.75761,3.05027609 -7.838,5.86563259 -6.81209,6.2259948 -16.23161,18.7594738 -20.04975,26.6779118 -0.30414,0.630742 -0.2996,0.636885 0.0977,0.132292 0.22916,-0.291041 0.86081,-0.991592 1.40365,-1.556779 z"
       id="path50" /></g></svg>
