<?xml version="1.0" encoding="UTF-8" standalone="no"?>
<!-- Created with Inkscape (http://www.inkscape.org/) -->

<svg
   width="192.64301mm"
   height="220.39311mm"
   viewBox="0 0 192.64304 220.39314"
   version="1.1"
   id="svg1"
   xml:space="preserve"
   xmlns="http://www.w3.org/2000/svg"
   xmlns:svg="http://www.w3.org/2000/svg"><defs
     id="defs1" /><g
     id="layer1"
     transform="translate(-260.05662,8.635837)"><path
       style="fill:#000000"
       d="m 340.35321,211.60109 c -20.0148,-0.68942 -37.40691,-3.64956 -45.24375,-7.70048 -4.42604,-2.28785 -8.17499,-6.07457 -10.29303,-10.39673 -1.02008,-2.08162 -2.62398,-6.65931 -3.7612,-10.73489 -0.30601,-1.09667 -0.6052,-2.07583 -0.66486,-2.17592 -0.0597,-0.1001 -0.85457,0.16715 -1.76646,0.59387 -4.46068,2.08741 -8.50392,1.37761 -12.05191,-2.11572 -3.58727,-3.53201 -5.6767,-8.88228 -6.37959,-16.33586 -0.68389,-7.25198 1.2487,-15.90494 5.04875,-22.60525 0.71132,-1.25419 1.2933,-2.48064 1.2933,-2.72543 0,-0.2448 -0.4085,-2.07614 -0.90777,-4.06965 -5.48569,-21.90336 -6.83402,-46.38719 -3.70385,-67.25685 3.47616,-23.176484 9.99046,-38.261995 21.90361,-50.72337 12.51198,-13.0877624 28.88008,-20.3778804 52.15689,-23.2299344 20.74789,-2.5421916 43.47415,1.38517 59.69878,10.316648 13.37244,7.3613749 24.56293,19.4463284 31.11911,33.6064494 4.66388,10.073116 7.28789,20.413359 8.59424,33.866665 0.51919,5.346859 0.43368,22.362734 -0.14361,28.574999 -0.91832,9.882163 -2.32303,19.291423 -4.26487,28.567713 -0.51702,2.46985 -0.94004,4.64274 -0.94004,4.82865 0,0.24643 0.59143,0.33986 2.18281,0.34484 2.99743,0.009 7.01691,0.42492 8.99849,0.93029 4.48723,1.14439 8.36432,4.14508 10.11277,7.8268 3.7295,7.85328 -0.40267,16.57025 -10.14609,21.40359 -4.40946,2.18736 -9.65916,3.39798 -15.90023,3.6667 l -3.82621,0.16475 -1.54396,5.42396 c -2.86004,10.04737 -4.99022,17.04954 -6.01099,19.75893 -3.98822,10.58578 -12.51605,15.50353 -31.77169,18.3218 -11.31485,1.65604 -27.29787,2.37258 -41.78864,1.87343 z m 21.96041,-6.62236 c 13.90479,-0.71479 27.90899,-2.93427 34.02625,-5.3927 3.06094,-1.23013 3.70135,-1.55891 5.62345,-2.88694 3.31933,-2.29342 5.13628,-5.02261 6.9904,-10.50008 1.51311,-4.47007 7.1973,-24.26835 9.41944,-32.80833 0.5869,-2.25557 1.25266,-4.81542 1.47946,-5.68854 0.99221,-3.81988 3.38119,-14.46816 4.36297,-19.44688 1.65256,-8.38032 1.83667,-9.37455 1.75167,-9.45955 -0.0435,-0.0435 -1.85209,0.52796 -4.01901,1.27001 -5.68746,1.94761 -11.04198,3.68928 -11.34817,3.69122 -0.14552,9.2e-4 -0.74084,0.85808 -1.32292,1.90479 -4.58177,8.23899 -12.3296,14.25358 -21.48747,16.68057 -2.99213,0.79296 -3.33903,0.82724 -8.54274,0.84422 -5.8135,0.019 -7.81669,-0.2498 -11.78158,-1.58077 l -1.89907,-0.6375 -9.10082,3.68111 c -5.00545,2.02462 -12.19644,4.9492 -15.97998,6.49909 -16.44609,6.73694 -23.09549,9.20669 -33.07292,12.28408 -7.29362,2.24961 -16.87064,4.54155 -21.2767,5.09185 -0.72634,0.0907 -1.29233,1.31272 -1.32373,2.85797 -0.0247,1.21836 1.78861,8.14065 3.39818,12.97215 1.38378,4.15372 3.33594,8.45909 3.83556,8.45909 0.17063,0 1.7334,-0.47878 3.47284,-1.06397 4.59679,-1.54647 18.40452,-4.87284 24.23741,-5.83895 1.81577,-0.30075 2.09576,-0.28889 2.71198,0.11487 0.83388,0.54638 0.95048,1.96983 0.21582,2.63469 -0.25924,0.23461 -1.95588,0.73779 -3.77031,1.11818 -10.80587,2.26544 -22.73792,5.40197 -23.62612,6.21051 -0.53716,0.48898 3.71705,2.70934 7.49486,3.91172 7.76085,2.47008 22.81109,4.52764 37.83542,5.17259 4.57871,0.19654 17.09457,0.14203 21.69583,-0.0945 z M 318.98083,175.2038 c -0.82388,-0.57707 -0.78142,-1.77885 0.087,-2.46194 2.06132,-1.62144 29.03003,-9.25247 45.36247,-12.83572 8.9526,-1.96415 22.31801,-4.38356 24.28754,-4.39654 0.52185,-0.003 1.64162,1.23017 1.64162,1.80849 0,0.28154 -0.20836,0.76567 -0.46302,1.07586 -0.39715,0.48374 -1.46337,0.73062 -7.49475,1.73543 -17.24835,2.87352 -38.26969,8.09438 -59.64327,14.813 -2.48137,0.78 -2.98722,0.81501 -3.77758,0.26142 z m -41.99533,-0.21006 c 0.7276,-0.33922 1.45934,-0.78454 1.62608,-0.9896 0.16674,-0.20506 0.43156,-1.20627 0.58849,-2.22492 0.53494,-3.47225 3.67717,-10.82957 5.4098,-12.66669 1.01821,-1.07962 1.78406,-1.20821 2.56209,-0.43018 0.68648,0.68648 0.66712,1.3975 -0.10419,3.82637 -0.43724,1.37687 -0.53497,1.99446 -0.31562,1.99446 0.17476,0 1.56109,-0.23033 3.08075,-0.51184 12.41218,-2.29934 29.05091,-7.94364 53.56301,-18.17002 1.30969,-0.5464 5.53641,-2.27197 9.39271,-3.8346 3.8563,-1.56264 7.01146,-2.96245 7.01146,-3.11069 0,-0.14825 -0.71438,-0.73324 -1.5875,-1.29999 -2.11324,-1.3717 -4.63014,-3.41498 -6.81493,-5.53252 l -1.78785,-1.73281 -2.58749,2.47801 c -5.03255,4.8196 -10.60576,7.87972 -17.50981,9.61424 -6.59452,1.65676 -13.84264,1.60026 -19.71143,-0.15363 -11.0286,-3.29591 -20.55872,-13.3963 -22.74236,-24.10323 -0.57925,-2.84023 -0.53891,-6.7878 0.0947,-9.26514 0.93634,-3.66106 2.90558,-6.81945 4.25189,-6.81945 0.25179,0 0.77612,0.25039 1.16518,0.55642 0.70552,0.55497 0.70691,0.56321 0.52944,3.14002 -0.16552,2.40315 -0.1314,2.68526 0.48854,4.03939 0.92486,2.02015 2.3497,3.49793 4.26146,4.4198 2.15987,1.04152 3.65901,1.22703 5.69684,0.70496 2.20114,-0.56391 3.82612,-1.65948 7.5317,-5.07794 6.79468,-6.2682 9.36473,-8.21648 13.29393,-10.077759 8.19049,-3.879868 16.98528,-3.584978 23.63741,0.792559 l 1.70347,1.12099 1.72921,-1.13575 c 7.21775,-4.74063 17.66503,-4.599529 25.69312,0.34701 2.57451,1.58629 4.5442,3.19172 9.53056,7.76799 5.95686,5.46695 7.5918,6.44303 10.83705,6.46984 2.01815,0.0167 3.66589,-0.50906 5.1634,-1.64749 2.7571,-2.09595 3.94103,-5.00392 3.31649,-8.14595 l -0.34238,-1.72252 0.74325,-0.77579 c 0.40878,-0.42668 0.94996,-0.77578 1.20261,-0.77578 1.36646,0 3.29508,3.00674 4.15795,6.48229 0.92535,3.72723 0.96239,6.12202 0.15635,10.10806 l -0.17141,0.84764 6.18218,-2.12473 c 3.4002,-1.16859 6.7775,-2.32394 7.5051,-2.56743 l 1.32292,-0.4427 0.56661,-3.70417 c 0.62102,-4.05982 1.55449,-13.133091 1.8268,-17.756363 l 0.17315,-2.939697 -3.00307,-0.733131 c -3.53522,-0.863042 -10.1671,-2.739588 -13.7187,-3.881818 -1.38245,-0.444609 -3.23803,-1.019447 -4.12351,-1.277417 l -1.60997,-0.469035 -0.44132,1.838802 c -1.41457,5.894069 -5.86775,10.575319 -11.2877,11.865823 -2.08535,0.496528 -5.89251,0.437447 -7.80521,-0.121124 -5.11952,-1.495076 -9.27089,-5.744006 -10.87667,-11.132289 -0.5835,-1.957967 -0.65281,-6.505542 -0.13105,-8.598958 0.19948,-0.800365 0.70505,-2.21814 1.12349,-3.150611 0.41843,-0.932472 0.71547,-1.740725 0.66007,-1.796119 -0.0554,-0.05539 -2.76511,-1.213019 -6.02161,-2.5725 -3.25649,-1.359481 -7.58777,-3.212977 -9.62506,-4.118879 -2.03729,-0.905903 -4.61212,-2.051205 -5.72184,-2.545118 -1.10972,-0.493912 -2.13628,-0.898022 -2.28125,-0.898022 -0.14497,0 -2.21358,0.90767 -4.59691,2.017045 -4.81535,2.241413 -12.78013,5.601856 -20.59238,8.688196 -2.83061,1.11827 -5.34174,2.137674 -5.58029,2.265343 -0.38958,0.208496 -0.39817,0.401809 -0.0845,1.898999 0.51216,2.44439 0.44903,5.865431 -0.15157,8.213764 -1.70069,6.649621 -6.73411,11.274755 -13.14338,12.077259 -4.67464,0.585312 -8.90854,-0.734177 -12.23359,-3.812588 -2.78266,-2.576257 -4.66228,-6.091653 -5.34099,-9.989135 -0.17046,-0.978845 -0.3427,-1.779718 -0.38275,-1.779718 -0.0401,0 -0.50025,0.178594 -1.02267,0.396875 -1.88805,0.78888 -3.3481,0.260161 -3.3481,-1.212428 0,-0.925609 0.87732,-1.639381 2.93898,-2.3911 0.85272,-0.310918 1.65128,-0.698881 1.77457,-0.862139 0.12329,-0.163258 0.54586,-1.19723 0.93905,-2.297717 2.07377,-5.804302 7.54661,-10.108826 13.62874,-10.719345 0.88391,-0.08872 2.778,-0.676593 4.66345,-1.447392 1.74625,-0.713891 5.31812,-2.148555 7.9375,-3.188143 11.79131,-4.679781 11.97877,-4.746568 12.629,-4.499352 0.90189,0.342897 1.31178,0.949317 1.21459,1.79693 -0.0726,0.633477 -0.37915,0.889481 -2.06963,1.72859 -1.09141,0.541741 -5.1693,2.254657 -9.06198,3.806479 -3.89268,1.551822 -7.07761,2.918695 -7.07761,3.037497 0,0.118801 0.44649,0.42563 0.99219,0.681842 1.01238,0.475319 4.15225,3.418706 4.85487,4.551069 l 0.38871,0.626456 4.75347,-1.867379 c 9.49922,-3.731723 20.48226,-8.430492 22.45244,-9.605611 l 0.76563,-0.456665 -0.89792,-0.38168 c -0.49386,-0.209924 -3.93402,-1.773602 -7.6448,-3.474841 -8.10953,-3.71788 -8.96759,-4.39823 -7.65372,-6.068554 0.37244,-0.473474 0.80041,-0.69714 1.33396,-0.69714 0.45183,0 5.02424,1.923852 10.76256,4.528375 11.08261,5.030196 16.14143,7.299383 19.10511,8.569792 1.09141,0.467841 3.23453,1.389166 4.7625,2.047389 5.66708,2.441281 11.06699,4.698193 11.24096,4.698193 0.0987,0 0.67565,-0.404806 1.28222,-0.899569 3.35603,-2.737405 8.37148,-4.046534 12.34765,-3.222973 4.07671,0.844383 7.87192,3.543627 10.01591,7.123547 0.9964,1.663732 2.41057,5.499641 2.41597,6.553272 0.003,0.603828 0.17831,0.742377 1.3926,1.101185 0.76399,0.225748 3.32963,1.015984 5.70143,1.756081 4.00992,1.251253 11.62648,3.357539 14.31474,3.958599 l 1.16461,0.260391 -0.15896,-7.190787 c -0.0874,-3.954933 -0.29344,-8.500475 -0.45781,-10.101204 -0.3218,-3.133879 -1.43977,-10.134266 -1.65242,-10.346912 -0.0713,-0.07134 -1.36418,-0.409673 -2.87299,-0.751856 C 411.33186,54.576565 384.89366,46.204532 364.82716,38.694463 341.89082,30.110326 317.90195,18.84111 303.64688,9.9538956 L 301.99785,8.9258186 298.6198,11.2009 c -1.85793,1.251294 -3.89106,2.694276 -4.51806,3.206625 l -1.14002,0.931544 1.47074,1.368759 c 0.80891,0.752818 1.47075,1.577968 1.47075,1.833667 0,0.518388 -1.1309,1.763771 -1.60164,1.763771 -0.59643,0 -2.04033,-0.832161 -2.77568,-1.599707 -0.41182,-0.429849 -0.88995,-0.781543 -1.0625,-0.781543 -0.61979,0 -7.26018,7.505621 -7.26018,8.206157 0,0.326958 3.72291,3.406782 7.80521,6.456947 1.89177,1.413474 3.54896,2.804406 3.68265,3.090962 0.17933,0.384377 0.10259,0.709351 -0.29262,1.2392 -0.5926,0.794479 -1.12116,0.979253 -2.09911,0.733803 -0.64094,-0.160864 -7.07468,-4.901756 -9.85478,-7.261784 l -1.42011,-1.20553 -0.6282,0.786268 c -1.77806,2.225452 -5.6489,10.863637 -7.62507,17.016106 -1.96217,6.108933 -4.15752,16.470416 -4.79397,22.626348 -0.17535,1.695992 -0.15514,1.804767 0.3093,1.665183 1.60676,-0.482894 9.15258,-2.289079 9.56324,-2.289079 0.69895,0 1.64929,0.970327 1.64929,1.683978 0,1.221955 -0.94306,1.659553 -6.65454,3.087821 l -5.46392,1.36636 -0.22462,3.876233 c -0.27292,4.709692 -0.26226,17.816884 0.0171,21.008001 l 0.20266,2.3151 h 9.57467 c 8.2376,0 9.65679,0.0575 10.16271,0.41188 0.73651,0.51588 0.77381,1.68184 0.0811,2.53538 l -0.50693,0.62462 -9.54051,-0.0406 -9.54051,-0.0406 0.15462,1.6281 c 0.2829,2.97881 1.09286,8.93035 1.23465,9.07214 0.0769,0.0769 2.04031,-0.0485 4.36318,-0.2787 5.31373,-0.52651 6.11415,-0.52419 6.71482,0.0194 0.68991,0.62436 0.61712,1.80013 -0.14874,2.40256 -0.50324,0.39585 -1.62587,0.59409 -5.4901,0.9695 -2.67163,0.25954 -4.89476,0.50815 -4.94028,0.55246 -0.1011,0.0984 0.32224,2.53882 1.06255,6.1252 l 0.55371,2.68239 0.95304,0.13581 c 0.52418,0.0747 1.13836,0.21096 1.36485,0.30282 0.24616,0.0998 0.72506,-0.10283 1.19062,-0.50388 1.62213,-1.39732 4.88561,-2.46355 6.57201,-2.14718 0.9606,0.18021 2.01203,1.02792 2.01203,1.62219 0,0.21356 -0.8632,0.9395 -1.91823,1.61318 -3.804,2.42903 -7.05924,6.52921 -10.36801,13.05915 -2.04003,4.02606 -2.89224,6.35241 -3.56352,9.72776 -0.72951,3.66809 -0.91,6.90701 -0.56098,10.06669 1.10139,9.97103 4.96315,14.56563 10.19303,12.12736 z m 0.67556,-114.457712 c -0.99515,-0.995144 -0.57605,-2.435201 0.84376,-2.89928 1.52112,-0.497191 16.18179,-3.729189 16.91647,-3.729297 1.40215,-2.05e-4 2.17197,1.498518 1.34133,2.61138 -0.47496,0.63633 -1.19543,0.846719 -8.42845,2.461246 -10.11886,2.258696 -9.98926,2.239803 -10.67311,1.555951 z m 33.99039,-27.989403 c -0.75956,-0.192449 -10.09667,-4.445124 -10.86506,-4.948596 -0.47951,-0.314184 -0.64985,-0.661983 -0.64985,-1.326839 0,-1.113176 0.58221,-1.732591 1.62851,-1.732591 0.82317,0 11.10905,4.510415 11.93139,5.231981 0.62027,0.544264 0.58656,1.788229 -0.0661,2.440935 -0.52212,0.522125 -0.95285,0.595066 -1.97884,0.33511 z M 429.051,159.04907 c 5.84086,-0.96457 11.25192,-3.25544 13.86219,-5.8688 2.06069,-2.06313 2.83364,-3.63454 2.96138,-6.02049 0.12141,-2.26762 -0.50523,-3.83396 -2.11603,-5.28923 -2.11233,-1.90836 -4.37959,-2.47884 -10.69981,-2.69224 l -4.52885,-0.15292 -0.45656,2.08941 c -0.45549,2.08452 -4.22805,17.21259 -4.5283,18.15858 -0.14734,0.46425 -0.0423,0.48694 1.51817,0.32807 0.92206,-0.0939 2.71657,-0.34244 3.98781,-0.55238 z m -122.38026,-37.5382 c 3.67942,-0.8676 6.09832,-2.42218 11.72205,-7.53349 4.41468,-4.01243 6.52762,-5.53917 9.92187,-7.16918 3.08185,-1.47999 5.11373,-2.04892 8.58634,-2.4042 2.70931,-0.27718 3.20693,-0.49172 2.99755,-1.29239 -0.24962,-0.95453 -1.77297,-1.16431 -5.82016,-0.80151 -4.93134,0.44206 -6.23376,0.70889 -8.4512,1.73146 -2.61534,1.20607 -5.19599,3.18217 -9.38574,7.18706 -3.82238,3.65371 -6.23802,5.5979 -8.17481,6.57935 -2.74334,1.39015 -5.67048,1.81436 -9.2918,1.34657 -1.66695,-0.21533 -1.77517,-0.19616 -2.07708,0.36798 -0.26952,0.5036 -0.23719,0.67645 0.21023,1.12387 1.16047,1.16047 6.50173,1.63343 9.76275,0.86448 z m 50.34313,-15.35746 c 3.14313,-1.39359 5.32371,-1.96421 7.54871,-1.97537 1.79933,-0.009 2.34279,-0.24325 2.2065,-0.95096 -0.15632,-0.81172 -1.2621,-1.15751 -3.71483,-1.16167 -4.05578,-0.007 -6.79913,0.90597 -9.06551,3.01652 -1.09693,1.02151 -1.21091,1.22753 -0.94946,1.71606 0.42222,0.78894 0.92548,0.70732 3.97459,-0.64458 z M 316.13569,79.422614 c 1.66329,-0.82517 2.12481,-1.682991 2.12481,-3.949377 0,-1.734959 -0.0854,-2.062847 -0.80358,-3.084587 -2.03717,-2.898312 -5.43279,-3.597769 -7.9941,-1.646689 -1.17876,0.897925 -1.65442,1.934758 -1.64755,3.591309 0.0181,4.361048 4.39365,7.03745 8.32042,5.089344 z m 80.00335,0.398028 c 1.63878,-0.351456 3.02332,-1.657345 3.47766,-3.280118 0.6364,-2.272977 -0.31776,-4.644288 -2.49849,-6.209348 -1.16039,-0.832783 -1.52523,-0.949945 -3.175,-1.019602 -1.55535,-0.06567 -2.03463,0.02155 -2.89476,0.526765 -2.03969,1.198075 -2.60657,3.866092 -1.36541,6.426299 1.03485,2.134634 2.15916,3.160212 3.92419,3.579564 1.19776,0.284577 1.09035,0.285577 2.53181,-0.02356 z M 426.0782,53.496143 c 0,-0.828718 -2.37935,-8.119829 -3.75125,-11.495045 -2.33315,-5.740161 -6.8336,-13.507508 -10.04122,-17.330208 -2.31954,-2.764322 -3.79223,-4.365624 -4.01497,-4.365624 -0.1472,0 -0.87395,0.458503 -1.61499,1.018895 -6.49343,4.910453 -13.32511,9.064789 -23.6951,14.40897 -5.35885,2.761685 -5.87945,3.088207 -5.29167,3.318982 4.88116,1.916461 7.63696,2.911287 12.42587,4.485657 17.8869,5.880378 35.98333,10.888558 35.98333,9.958373 z M 372.77789,36.729429 c 0.13825,-0.134522 2.57307,-1.428896 5.41073,-2.876386 5.68977,-2.902356 12.04084,-6.353178 15.04103,-8.172471 6.14836,-3.728316 11.99486,-7.882494 11.84733,-8.418015 -0.14735,-0.534847 -3.83456,-3.431507 -7.29615,-5.731819 C 390.79713,6.8898956 380.85175,2.6211436 372.35354,0.61684859 353.5951,-3.8073134 334.20575,-2.9038754 315.0855,3.2852276 c -4.4378,1.436489 -8.90461,3.270789 -8.79147,3.610226 0.1312,0.393575 8.02768,4.7558284 14.48001,7.9991874 8.99742,4.522686 24.70722,11.364827 42.20104,18.379962 3.20146,1.283805 6.53521,2.636333 7.40833,3.005618 1.77547,0.750926 2.03448,0.799517 2.39448,0.449208 z"
       id="path105" /></g></svg>
