<?xml version="1.0" encoding="UTF-8" standalone="no"?>
<!-- Created with Inkscape (http://www.inkscape.org/) -->

<svg
   width="241.78935mm"
   height="277.66028mm"
   viewBox="0 0 241.78939 277.6603"
   version="1.1"
   id="svg1"
   xml:space="preserve"
   xmlns="http://www.w3.org/2000/svg"
   xmlns:svg="http://www.w3.org/2000/svg"><defs
     id="defs1"><clipPath
       clipPathUnits="userSpaceOnUse"
       id="clipPath3"><path
         id="path3"
         style="fill:#ff0000;fill-opacity:1;fill-rule:nonzero;stroke:none;stroke-width:0.264583"
         d="M 117.46378,-9.1863687 V 177.1666 H 291.49502 V -9.1863687 Z M 147.33431,111.9313 c 4.14894,-0.0917 4.55169,4.35712 -0.092,5.08445 -1.19542,0.18724 -2.39032,0.38079 -3.5698,0.65474 -1.90165,0.43105 -3.80094,0.86919 -5.68493,1.37304 -4.84343,1.29532 -6.43119,-3.45704 -1.60197,-4.80436 2.03917,-0.56891 4.10352,-1.04005 6.16758,-1.50792 1.28939,-0.29942 2.59504,-0.5123 3.90158,-0.71882 0.30951,-0.0489 0.60293,-0.075 0.87953,-0.0811 z" /></clipPath><clipPath
       clipPathUnits="userSpaceOnUse"
       id="clipPath29"><path
         id="path30"
         style="fill:#ff0000;fill-opacity:1;fill-rule:nonzero;stroke:none;stroke-width:0.264583"
         d="M -43.229648,-9.2280016 V 216.91788 H 174.31521 V -9.2280016 Z M 64.45887,27.798679 c 2.205167,0.07543 3.149314,2.777559 0.336931,5.092713 -1.01463,0.835234 -0.499494,0.392851 -1.540992,1.333252 -0.05085,0.0495 -0.09987,0.101018 -0.150379,0.150894 0.220084,0.811057 0.124675,1.87329 -0.520898,3.115572 -0.875451,1.684613 -1.748676,3.370175 -2.654102,5.038968 -0.9775,1.836439 -1.88347,3.711528 -2.891295,5.530414 -2.429936,4.385429 -6.499333,1.653471 -4.214214,-2.809132 0.315439,-0.616018 0.63763,-1.228696 0.952912,-1.844849 -0.0069,-0.02252 -0.01495,-0.04284 -0.0217,-0.06563 -0.595128,-2.008016 -0.06926,-3.784214 0.689364,-5.659086 1.273995,-2.682428 3.163792,-4.981609 5.254458,-7.063137 1.251259,-1.138375 0.627229,-0.597072 1.867588,-1.628325 0.963808,-0.80132 1.889408,-1.157192 2.675289,-1.190625 0.07368,-0.0031 0.145905,-0.0035 0.217041,-0.0011 z M 107.156,139.45233 v 5.3e-4 h 1.33171 c 3.18466,0 4.31777,2.03379 3.45198,3.52174 1.2611,1.23575 0.77004,3.28353 -1.76526,3.91088 -0.54914,0.61592 -1.49045,1.10474 -2.85099,1.26142 -0.13698,0.0157 -0.27436,0.0312 -0.41135,0.047 -2.65141,0.30532 -4.05473,-0.97849 -4.03644,-2.33215 -0.3479,-0.33509 -0.56463,-0.74464 -0.62167,-1.18649 -3.34332,-0.94574 -2.811804,-4.86069 1.59628,-4.86069 h 0.98857 c 0.11851,0 0.23333,0.004 0.34624,0.009 0.53882,-0.2172 1.16849,-0.37104 1.97093,-0.37104 z" /></clipPath><clipPath
       clipPathUnits="userSpaceOnUse"
       id="clipPath48"><path
         id="path49"
         style="fill:#ff0000;fill-opacity:1;fill-rule:nonzero;stroke:none;stroke-width:0.264583"
         d="M 41.090804,5.5343725 V 221.55581 H 225.28628 V 5.5343725 Z M 200.73584,27.81415 c 1.72945,0.01908 2.64943,1.415222 2.08618,2.936254 0.0339,0.915892 -0.44821,2.031525 -1.67277,3.09025 -1.14726,0.991904 -0.56367,0.491389 -1.75183,1.502235 -1.46438,1.223881 -2.91427,2.468533 -4.41523,3.645773 -1.77565,1.392637 -3.30034,1.324822 -4.09174,0.539502 -1.31401,0.83852 -2.64966,1.641588 -3.98426,2.445845 -4.29416,2.587749 -6.80634,-1.80888 -2.51251,-4.397148 1.38418,-0.834355 2.77707,-1.656016 4.13257,-2.53783 2.02228,-1.284452 4.05223,-2.553893 5.99602,-3.95583 1.19062,-0.885809 2.41863,-1.714333 3.69021,-2.478919 0.9399,-0.565155 1.79944,-0.798117 2.52336,-0.790132 z m -20.13521,16.378329 c 1.02365,0.01453 1.87727,0.799764 2.03296,2.110465 0.71756,0.616212 1.16959,1.820418 0.93741,3.568774 -0.19898,1.498301 -0.82482,2.881966 -1.4888,4.223515 -0.63096,1.325187 -1.47451,2.521106 -2.32492,3.70985 -0.38328,0.580088 -0.18725,0.28308 -0.58808,0.890902 -1.63866,2.484932 -3.79495,2.511833 -4.69894,1.247471 -2.33551,3.060126 -5.91882,0.907738 -3.88814,-3.193087 0.88107,-1.779241 1.75108,-3.563456 2.63189,-5.342829 0.83405,-1.68497 1.98081,-2.401348 2.97139,-2.401401 0.1436,-8e-6 0.2783,0.0337 0.41393,0.06305 0.3156,-0.730126 0.62695,-1.462167 0.92862,-2.198317 0.77233,-1.88468 2.00662,-2.693514 3.07268,-2.678388 z" /></clipPath><clipPath
       clipPathUnits="userSpaceOnUse"
       id="clipPath83"><path
         id="path84"
         style="fill:#ff0000;fill-opacity:1;fill-rule:nonzero;stroke:none;stroke-width:0.264583"
         d="M 132.47438,-7.0202515 V 208.9707 H 400.12987 V -7.0202515 Z M 255.34182,107.77274 c 0.0472,-0.001 0.0949,-5.3e-4 0.14262,0.002 1.04471,0.054 2.1902,0.94645 2.81327,2.8856 0.30713,0.9559 0.45596,1.9522 0.57981,2.94557 0.10458,0.89626 0.14611,1.79819 0.17311,2.69957 0.0488,0.45711 0.0906,0.91485 0.13385,1.37252 0.0315,0.33386 -0.006,0.60608 -0.0331,0.88729 0.91737,0.0871 1.97159,0.68687 2.89285,1.9823 0.56984,0.80129 1.07462,1.64469 1.57303,2.49133 0.43109,0.67097 0.92631,1.29541 1.37563,1.95389 0.093,0.15699 0.18605,0.31429 0.27905,0.47128 1.3533,2.28542 0.70235,4.10077 -0.55914,4.6452 -1.0202,0.91063 -2.90824,0.69124 -4.38526,-1.56166 -0.23927,-0.36498 -0.47787,-0.72951 -0.72864,-1.08675 -0.21649,-0.33577 -0.38754,-0.69537 -0.57412,-1.04646 0.60841,2.15867 -0.88886,3.60669 -2.70992,3.036 -0.61576,0.27533 -1.36103,0.46037 -2.34197,0.39946 -1.46689,-0.0911 -2.93256,-0.19318 -4.3987,-0.29559 -1.7965,-0.11093 -3.59744,-0.19829 -5.3976,-0.19327 -5.01363,0.0148 -5.01363,-5.04892 0,-5.06481 1.90344,-0.006 3.80708,0.0877 5.70662,0.20308 0.63529,0.0442 1.27091,0.0848 1.90635,0.12817 -2.17205,-2.83957 -4.35986,-5.66727 -6.60115,-8.45273 -2.16084,-2.68543 -1.06507,-5.11916 0.85783,-5.11337 0.62825,0.002 1.34535,0.27748 2.06551,0.87642 0.36368,-0.69499 0.98791,-1.10018 1.68982,-1.13222 0.5054,-0.0231 1.05025,0.14938 1.56682,0.54311 0.0929,-0.0187 0.17783,-0.0646 0.27389,-0.0698 0.59436,-0.0317 1.23871,0.20301 1.81539,0.73433 -0.66441,-2.60236 0.46874,-4.21014 1.88413,-4.24058 z m 0.76842,13.7263 c -0.0318,0.10382 -0.0684,0.20282 -0.10852,0.29765 0.1244,0.16259 0.24889,0.32511 0.37311,0.48783 -0.0977,-0.26391 -0.21978,-0.53471 -0.25425,-0.77928 -0.004,-0.001 -0.007,-0.005 -0.0104,-0.006 z m 30.3289,39.33455 h 0.77722 c 5.01355,0 5.01355,5.0648 0,5.0648 h -0.77722 c -5.01356,0 -5.01356,-5.0648 0,-5.0648 z" /></clipPath><clipPath
       clipPathUnits="userSpaceOnUse"
       id="clipPath102"><path
         id="path103"
         style="fill:#ff0000;fill-opacity:1;fill-rule:nonzero;stroke:none;stroke-width:0.264583"
         d="M 245.09482,-91.085287 V 149.53775 H 484.24663 V -91.085287 Z M 386.76007,31.187352 h 1.65003 c 5.01366,0 5.01366,5.064808 0,5.064808 h -1.65003 c -5.01363,0 -5.01363,-5.064808 0,-5.064808 z M 278.24163,82.628657 c 1.01789,-0.02799 2.2471,0.632241 3.22823,2.236039 0.35364,0.578075 0.76779,1.114584 1.156,1.669148 -0.17857,-0.354603 -0.18541,-0.571659 0.17415,-0.552421 0.23066,0.01233 0.61185,0.121491 1.19424,0.352951 1.53042,0.608219 2.70481,1.775786 3.91915,2.844787 1.81743,1.599938 0.34244,0.262279 2.18642,1.956988 3.60359,3.311803 0.41639,6.943077 -3.16724,3.953764 -0.79615,1.298192 -2.87067,1.492136 -4.73046,-0.775663 -1.83595,-2.238679 -3.67165,-4.498713 -5.15938,-6.989754 -1.6067,-2.690249 -0.49754,-4.649169 1.19889,-4.695839 z m 48.66887,29.818333 c 0.83168,-0.0227 1.84441,0.35214 2.89336,1.2945 1.31333,1.17988 2.46338,2.50869 3.55327,3.89278 0.66124,0.8467 0.33676,0.43396 0.97307,1.24024 1.19229,1.51076 1.33855,2.90191 0.89349,3.8225 -0.0163,1.85972 -2.19841,3.00623 -4.86947,1.01441 -1.74706,-1.30277 -3.55293,-2.52496 -5.46892,-3.56826 -3.57759,-1.94805 -3.2943,-5.2782 -0.6165,-5.34076 0.19127,-0.004 0.4163,0.0413 0.63148,0.0718 -0.16797,-1.35773 0.69344,-2.39125 2.01022,-2.42724 z" /></clipPath><clipPath
       clipPathUnits="userSpaceOnUse"
       id="clipPath113"><path
         id="path114"
         style="fill:#ff0000;fill-opacity:1;fill-rule:nonzero;stroke:none;stroke-width:0.264583"
         d="m 157.06646,-116.17763 v 259.5609 h 295.04349 v -259.5609 z M 393.26393,24.765705 c 0.58122,0.01077 1.2423,0.145151 1.96835,0.439251 0.12003,0.04866 0.24016,0.09764 0.36019,0.146243 4.64687,1.882275 2.73607,6.583688 -1.90686,4.691703 -0.14942,-0.06089 -0.29912,-0.121518 -0.44855,-0.182417 -3.9175,-1.596369 -3.11177,-5.15297 0.0269,-5.09478 z M 342.53524,35.83583 c 1.18144,-0.02069 2.40504,1.064402 2.64894,3.401861 0.1717,1.645558 0.30485,3.295441 0.42064,4.945949 0.0645,0.913149 0.11065,1.827168 0.15555,2.741435 0.24595,5.007597 -4.81334,5.255694 -5.05861,0.248047 -0.043,-0.878927 -0.0868,-1.757637 -0.14883,-2.635496 -0.10709,-1.52953 -0.23333,-3.057792 -0.3824,-4.583702 -0.25896,-2.650887 1.02575,-4.094644 2.36471,-4.118094 z m -33.1494,10.456727 c 3.77235,0.03375 4.17655,4.205814 -0.27905,5.095812 -2.7794,0.55518 -5.59728,1.027409 -8.44083,1.011309 -5.01353,-0.0284 -5.01357,-5.084189 0,-5.064292 2.50698,0.0099 4.99365,-0.416576 7.44296,-0.912606 0.46068,-0.09329 0.8867,-0.133723 1.27692,-0.130223 z" /></clipPath><clipPath
       clipPathUnits="userSpaceOnUse"
       id="clipPath120"><path
         id="path121"
         style="fill:#ff0000;fill-opacity:1;fill-rule:nonzero;stroke:none;stroke-width:0.264583"
         d="M 344.49101,-224.74208 V 93.739762 H 637.43746 V -224.74208 Z m 57.97992,209.900367 c 0.17961,0.01947 0.44237,0.736351 1.12035,2.611725 1.04876,2.9010165 1.04829,6.0186442 1.03043,9.064046 0.0143,1.3839481 -0.10427,2.76298025 -0.22014,4.14031642 -0.59446,7.06539898 -7.74229,6.45877818 -7.13652,-0.60564713 0.10217,-1.19155898 0.21192,-2.38444349 0.1943,-3.58220959 0.01,-1.3333704 0.0121,-2.6497942 -0.0997,-3.9796032 -0.0279,-0.3318299 -0.0672,-0.6624188 -0.10077,-0.993738 -0.0503,-0.2728383 -0.12659,-0.5421736 -0.1509,-0.8185547 -0.002,-0.026405 0.0513,-0.014711 0.077,-0.021696 v 5.291e-4 c 4.91136,-1.3600639 4.82699,-5.8648859 5.28598,-5.8151469 z m 133.45697,6.2301089 c 1.67324,0.041132 3.33082,1.6477562 3.50832,4.9666234 0.11004,2.0573682 0.32592,4.10132476 0.64854,6.135542 0.18985,1.1819096 0.0857,0.6294014 0.30127,1.6577812 1.45485,6.9395025 -5.61446,8.3885985 -7.01611,1.4381533 -0.26963,-1.3368866 -0.15081,-0.6772169 -0.35967,-1.9776572 -0.34188,-2.1687869 -0.5874,-4.34761481 -0.70073,-6.5412011 -0.19434,-3.7617374 1.72206,-5.7258612 3.61838,-5.6792416 z" /></clipPath><clipPath
       clipPathUnits="userSpaceOnUse"
       id="clipPath135"><path
         id="path136"
         style="fill:#ff0000;fill-opacity:1;fill-rule:nonzero;stroke:none;stroke-width:0.264583"
         d="M 477.20433,-278.28082 V 24.963721 H 771.33006 V -278.28082 Z m 210.63107,135.23516 c 0.64896,0.035 1.7578,0.6255 3.62924,1.81177 2.19626,1.39221 3.0073,3.9804 3.71812,6.32623 2.05612,6.78565 -4.88195,8.85363 -6.86367,2.04587 -0.0268,-0.092 -0.73029,-2.14343 -0.73122,-2.21433 -7.9e-4,-0.0632 0.20677,0.0905 0.18707,0.0305 -0.10221,-0.31196 -0.80107,-0.22791 -0.78497,-0.59531 0.21365,-4.86991 -0.58229,-7.48164 0.84543,-7.40471 z m -130.47369,16.81964 c 0.91327,0.0304 1.9753,0.32094 3.14296,0.95653 2.78354,1.51516 5.89063,2.18265 8.94106,2.92644 0.0491,0.0113 0.0982,0.0228 0.14728,0.0341 0.39361,-0.23297 0.86771,-0.35577 1.40508,-0.34261 0.5856,0.0143 1.246,0.19084 1.95647,0.55604 0.81659,-0.371 1.60361,-0.61361 2.29702,-0.62064 2.81826,-0.0285 4.29465,2.61341 2.36678,5.30459 3.08911,4.80056 -0.8845,8.35677 -4.59714,5.38055 -3.03493,3.4549 -7.30869,1.00926 -5.86579,-3.50986 -3.37628,-0.82322 -6.77463,-1.65732 -9.85418,-3.32228 -5.06768,-2.73985 -3.89711,-7.49447 0.0605,-7.36286 z" /></clipPath></defs><g
     id="layer1"
     transform="translate(-582.89526,224.78091)"><path
       style="fill:#000000"
       d="m 734.83447,52.750543 c -8.05645,-0.978337 -14.20983,-6.211616 -19.34836,-16.455242 -0.79562,-1.586058 -1.60272,-2.980241 -1.79356,-3.098186 -0.19084,-0.117944 -4.91791,-0.22138 -10.50461,-0.229857 l -10.15764,-0.01541 -1.76388,3.348638 c -5.94708,11.29017 -12.82674,16.469648 -21.85815,16.456316 -8.95947,-0.01323 -16.08216,-5.628562 -19.20477,-15.140508 -1.68641,-5.137058 -3.82742,-17.972624 -4.66754,-27.9823853 -0.2402,-2.8619094 -0.52661,-5.202387 -0.63647,-5.2010612 -0.10985,0.00133 -0.59322,0.5800634 -1.07415,1.2860836 -1.74322,2.5590921 -5.79606,6.2710069 -8.13031,7.4463749 -2.40517,1.211077 -6.26241,2.18899 -8.63416,2.18899 -2.40906,0 -6.23883,-0.98223 -8.86165,-2.272767 -1.81886,-0.89496 -3.14379,-1.905953 -4.80351,-3.6653397 C 610.72024,6.5800419 609.45687,4.2007027 608.68349,0.54153983 606.48991,-9.8371769 613.92375,-24.882338 628.54406,-39.65374 l 4.70088,-4.749455 -1.15176,-0.876707 c -6.61277,-5.033579 -16.93554,-17.956693 -22.28667,-27.90077 l -1.99329,-3.704166 -2.60954,0.115167 c -9.12387,0.402668 -17.20895,-6.168528 -19.9156,-16.186517 -1.5695,-5.809113 -2.8805,-20.544572 -2.21592,-24.906692 1.05113,-6.89933 5.89468,-12.36267 12.74371,-14.37442 1.05386,-0.30955 2.42349,-0.56281 3.04361,-0.56281 0.62012,0 1.28411,-0.19844 1.47553,-0.44097 0.19141,-0.24254 0.43955,-1.79035 0.55141,-3.43959 0.91197,-13.44576 9.24643,-32.47105 20.32232,-46.39027 8.05503,-10.12288 16.78204,-18.26041 26.48962,-24.70036 15.08233,-10.00552 31.42542,-15.54718 49.48102,-16.77818 17.66851,-1.2046 35.00355,2.2968 51.58981,10.42033 13.99979,6.85674 28.04132,18.81043 38.762,32.99849 10.65831,14.10551 16.94108,28.6025 18.80184,43.38374 l 0.61197,4.86134 1.95654,0.20605 c 4.12521,0.43446 8.57907,2.64451 11.42696,5.67015 1.82011,1.93373 3.60232,5.68698 4.14659,8.73255 0.79937,4.47297 -0.83048,22.062419 -2.49172,26.890893 -1.23495,3.589445 -2.91395,6.311197 -5.47013,8.867378 -4.05245,4.052447 -8.2624,5.808702 -13.93137,5.811706 l -3.01269,0.0016 -1.91907,3.790764 c -3.82599,7.557524 -11.94257,18.58086 -18.84085,25.588237 l -3.39927,3.45303 1.31988,1.108029 c 2.50342,2.101608 9.83864,9.631219 11.78849,12.10089 3.04582,3.857832 6.39909,8.998197 8.35928,12.814293 5.99376,11.6686082 5.60093,20.5665882 -1.20861,27.3761245 -2.56091,2.5609085 -5.48086,4.1957985 -9.18649,5.1435385 -7.24474,1.852891 -13.73176,-0.123103 -19.57467,-5.9625812 -1.67403,-1.6730526 -3.3011,-3.4292109 -3.61571,-3.9025742 -0.31461,-0.4733633 -0.64902,-0.7836609 -0.74313,-0.6895503 -0.0941,0.094111 -0.3405,1.9895327 -0.54752,4.2120491 -0.47133,5.0599886 -2.95781,21.4128076 -3.70883,24.3918416 -2.23049,8.847604 -5.56081,14.246922 -10.70836,17.361078 -3.53456,2.138326 -8.5251,3.183664 -12.74985,2.67063 z m -61.54564,-4.063921 c 1.15642,-0.300623 2.97571,-1.034185 4.04286,-1.63014 2.12215,-1.185117 4.93889,-3.350154 4.93889,-3.796181 0,-0.154674 -2.34156,-0.368022 -5.20347,-0.474107 -8.0452,-0.298218 -16.15669,-2.082048 -21.28538,-4.680954 -0.99194,-0.502652 -1.86345,-0.853982 -1.9367,-0.780733 -0.32102,0.321015 3.26922,5.835967 4.78784,7.354588 3.78109,3.78109 9.50561,5.346402 14.65596,4.007527 z m 68.70512,-0.162242 c 4.39162,-1.356433 8.38972,-4.829275 10.33554,-8.977687 0.4512,-0.961957 0.77649,-1.7929 0.72285,-1.846539 -0.0536,-0.05364 -1.35679,0.433169 -2.89589,1.081794 -3.49829,1.474288 -5.66237,2.097166 -10.49906,3.021907 -4.08424,0.780876 -13.34134,1.575217 -14.40885,1.236404 -1.07916,-0.342513 -0.73703,0.56985 0.74091,1.975779 3.84407,3.656777 10.67552,5.154297 16.0045,3.508342 z m -6.89507,-9.200272 c 5.7287,-0.684408 15.49233,-3.709502 18.48775,-5.728114 1.12434,-0.757692 1.21237,-0.983209 2.00233,-5.129402 0.45445,-2.385276 0.72963,-4.433523 0.61149,-4.55166 -0.11814,-0.118138 -0.96538,0.155105 -1.88275,0.607205 -7.69984,3.794629 -20.55322,7.462507 -30.41934,8.680548 -2.61938,0.32338 -4.83872,0.659484 -4.93187,0.746897 -0.3622,0.339891 2.59111,5.476562 3.30615,5.750356 0.89126,0.34127 8.7518,0.110943 12.82624,-0.37583 z m -48.6116,-2.173539 c 0.78013,-1.406701 1.42052,-2.746349 1.42308,-2.976995 0.003,-0.236669 -0.72533,-0.511033 -1.67103,-0.629799 -13.53623,-1.699954 -23.78657,-4.476749 -32.59468,-8.829836 -1.37275,-0.678429 -2.55787,-1.233508 -2.6336,-1.233508 -0.30231,0 -0.1084,1.777443 0.61064,5.597284 l 0.75479,4.009785 2.68802,1.23018 c 8.45252,3.868311 14.90388,5.181566 26.22397,5.338215 l 3.78039,0.05231 z m 16.81359,-7.842584 c 12.17662,0.04265 12.25734,0.04778 12.76466,0.81185 0.65011,0.979111 1.72241,0.987245 8.02617,0.06088 10.4109,-1.529925 19.25449,-4.133541 28.78988,-8.475953 l 4.1124,-1.872782 0.55394,-3.732025 c 1.16537,-7.8514093 1.74234,-20.136191 0.94572,-20.136191 -0.18134,0 -1.41166,0.2266676 -2.73403,0.5037058 -2.06578,0.4327832 -5.11608,0.80741 -14.80912,1.8188025 l -1.82147,0.1900566 -0.12297,5.5346892 c -0.10554,4.7505917 -0.23037,5.7683694 -0.88111,7.1841619 -1.06979,2.327474 -3.34417,4.654453 -5.50343,5.630706 l -1.84399,0.83371 h -26.98749 c -30.58503,0 -28.88551,0.153019 -32.14309,-2.89407 -2.74545,-2.568042 -3.26149,-4.221291 -3.38738,-10.8521526 -0.0766,-4.03417895 -0.23108,-5.6964596 -0.54448,-5.8583307 -0.24065,-0.1242983 -2.10443,-0.4191373 -4.14172,-0.6551978 -2.03729,-0.2360604 -6.05717,-0.8295181 -8.93306,-1.3187948 -2.87589,-0.4892767 -5.33651,-0.7810843 -5.46805,-0.6484615 -0.41343,0.4168354 -0.12883,16.7675004 0.35618,20.4631184 l 0.46299,3.527777 4.40972,2.171916 c 8.58832,4.229995 20.17094,7.471114 31.04444,8.687041 4.37226,0.488927 4.41479,0.4867 5.00545,-0.262131 0.58955,-0.747425 0.72266,-0.754804 12.84984,-0.712328 z m 27.64865,-15.753546 c 1.96919,-0.860518 3.0376,-1.84107 3.98355,-3.6559509 0.70359,-1.3498776 0.74226,-2.0576908 0.89125,-16.3114029 l 0.15575,-14.9002922 -0.95176,-1.945314 c -0.70243,-1.435721 -1.34577,-2.176227 -2.45587,-2.826791 l -1.50413,-0.881475 h -27.05603 c -23.54989,0 -27.22432,0.07032 -28.3547,0.542621 -1.6758,0.700194 -2.47719,1.44261 -3.30231,3.059297 -0.62526,1.225093 -0.66802,2.29283 -0.66802,16.6828028 0,14.4356044 0.0411,15.4538255 0.67325,16.6828022 0.81283,1.580223 2.30206,3.040734 3.73647,3.664417 1.3331,0.579629 20.25852,0.924008 39.6875,0.722179 12.53817,-0.130247 13.7036,-0.194255 15.16505,-0.832893 z M 683.46435,6.5777503 c -0.79863,-0.362675 -1.90988,-1.2593085 -2.46944,-1.9925189 l -1.01738,-1.3331097 -0.10383,-9.8011922 c -0.0979,-9.2453295 -0.0635,-9.8802715 0.60752,-11.1955525 0.39124,-0.766898 1.12234,-1.71765 1.62467,-2.112783 1.78979,-1.407848 3.68109,-1.524585 22.74247,-1.403735 19.72798,0.125077 19.15308,0.06746 21.05497,2.11014 1.48753,1.597645 1.64999,2.602928 1.79855,11.1294208 0.19249,11.0479076 -0.3158,13.1140646 -3.59223,14.6020403 -1.35246,0.6142121 -2.66711,0.6566994 -20.31962,0.6566994 -17.68027,0 -18.96543,-0.041693 -20.32568,-0.6594092 z m 39.63079,-2.8432487 c 0.62901,-0.3835254 1.25743,-1.131648 1.40647,-1.6743756 0.14818,-0.5395949 0.2715,-4.7393585 0.27405,-9.3328081 0.004,-7.9301589 -0.0327,-8.4020459 -0.73461,-9.3486099 -1.37639,-1.856075 -1.85888,-1.896316 -21.26075,-1.773188 -9.82514,0.06235 -18.14757,0.242079 -18.49429,0.399392 -1.49386,0.677781 -1.66265,1.816482 -1.66265,11.2170077 0,9.5983053 0.0932,10.1336648 1.88983,10.8587056 0.4158,0.1677968 9.011,0.3145543 19.10045,0.3261277 17.63536,0.020229 18.38839,-0.00576 19.4815,-0.6722514 z m -8.10776,-0.8480184 c -1.71008,-0.6342226 -2.18916,-1.0499328 -2.87458,-2.49434137 -1.08159,-2.27928383 -0.51803,-5.16379893 1.34455,-6.88182553 1.40265,-1.2938016 4.85566,-1.4585606 6.52802,-0.3114817 1.99051,1.3653062 2.67827,2.5735619 2.67827,4.70521 0,2.00486291 -0.633,3.2282993 -2.31486,4.4740902 -1.17671,0.8716213 -3.72931,1.1136486 -5.3614,0.5083484 z m 3.99163,-2.34706337 c 0.98605,-0.52771772 1.79916,-2.29415933 1.53694,-3.33892663 -0.33496,-1.3346027 -2.09612,-2.6478372 -3.55096,-2.6478372 -2.79105,0 -4.36503,3.5503388 -2.43128,5.48409043 0.9402,0.94020026 3.15897,1.19109777 4.4453,0.5026734 z M 712.31819,-10.849942 c -1.03627,-1.103055 -1.02389,-3.086086 0.0267,-4.278103 0.7501,-0.851085 0.99818,-0.903371 4.51189,-0.950955 4.00879,-0.05429 4.92582,0.230175 5.61448,1.741614 0.52526,1.152814 0.0987,3.14763 -0.80894,3.783394 -0.5468,0.382988 -1.77821,0.520537 -4.66013,0.520537 -3.63822,0 -3.97154,-0.0581 -4.684,-0.816487 z m 3.80538,-1.627401 c 0.20016,-0.374 0.27045,-0.923582 0.15621,-1.221293 -0.28799,-0.750493 -1.4831,-1.065871 -2.09974,-0.554102 -0.52602,0.43656 -0.69628,1.800978 -0.27705,2.220209 0.48663,0.486635 1.87043,0.20944 2.22058,-0.444814 z m 4.23296,0.167762 c 0.51869,-0.624983 0.19294,-1.813076 -0.57825,-2.109009 -0.59612,-0.228751 -2.3472,0.711123 -2.11917,1.137439 0.0733,0.136997 0.23211,0.526898 0.35295,0.866446 0.26804,0.753174 1.75144,0.819687 2.34447,0.105124 z m 66.15988,23.018811 c 4.30058,-1.4003826 7.86182,-4.5476054 9.80993,-8.6694557 1.01341,-2.14418628 1.12125,-2.69351486 1.12359,-5.7232296 0.003,-3.7625274 -0.68474,-6.2785869 -2.99089,-10.9435367 -1.37716,-2.785754 -4.79327,-8.4648 -5.95432,-9.898638 l -0.68133,-0.841406 -1.71183,1.593268 c -5.7094,5.313995 -14.4987,10.742232 -21.95482,13.559214 l -2.60411,0.9838558 0.2108,2.2573956 c 0.24889,2.6653673 1.24707,4.8102027 4.05274,8.7082905 2.71903,3.7777223 5.83254,6.6034851 9.00167,8.1697575 4.04432,1.9988096 7.3357,2.2251506 11.69857,0.8044846 z M 631.58249,10.7747 c 4.03507,-1.2463065 8.01523,-4.849178 11.78746,-10.67009764 1.49413,-2.30560136 2.30565,-4.88695106 2.62778,-8.35869046 0.11298,-1.2176045 0.10933,-1.2208001 -2.70909,-2.3733999 -7.29734,-2.984262 -13.73226,-7.075898 -18.42552,-11.715843 -1.78709,-1.766789 -3.33629,-3.212343 -3.44267,-3.212343 -0.35353,0 -4.46672,6.485557 -5.81709,9.172222 -4.05831,8.0743272 -4.65854,14.1347415 -1.94561,19.644316 1.42725,2.898522 3.48316,4.9204315 6.61361,6.5042059 3.69722,1.8705251 7.44175,2.2047611 11.31113,1.0096301 z M 745.86253,-5.2645307 c 4.48112,-0.4755691 10.59633,-1.3940033 11.93822,-1.7929832 0.66427,-0.1975083 0.57612,-1.8612281 -0.35945,-6.7835351 -0.42812,-2.252514 -0.72149,-3.058139 -1.10018,-3.021198 -0.28401,0.02771 -2.90422,0.46173 -5.8227,0.964498 -2.91847,0.502767 -6.6491,1.035724 -8.29027,1.184348 l -2.98396,0.270224 -0.0996,4.390154 c -0.0548,2.4145845 -0.0201,4.5973969 0.0771,4.8506941 0.22095,0.5757808 0.66885,0.5715855 6.64082,-0.062202 z m -77.64925,-4.7689243 0.10501,-4.409722 -3.16621,-0.260888 c -1.74142,-0.143489 -5.46809,-0.676368 -8.28149,-1.184176 -2.81341,-0.507808 -5.2655,-0.946033 -5.44909,-0.973834 -0.18359,-0.0278 -0.53363,0.535439 -0.77785,1.251643 -0.51949,1.523413 -1.33762,7.3022386 -1.07149,7.5683685 0.56817,0.5681707 17.80369,3.0360484 18.29713,2.6198855 0.13144,-0.1108552 0.28624,-2.1859297 0.34399,-4.611277 z m 97.71297,-4.391191 c 3.30218,-1.427225 8.3577,-4.379842 12.12349,-7.080583 3.80377,-2.727976 7.64064,-6.164055 7.51265,-6.727899 -0.37596,-1.656261 -9.70623,-10.888887 -12.21664,-12.088786 -1.1158,-0.533319 -1.19525,-0.526403 -1.54706,0.134662 -0.20397,0.38327 -1.27229,1.586578 -2.37403,2.674018 -1.94202,1.91681 -2.18016,2.036421 -7.80154,3.918524 -3.98172,1.333123 -5.7786,2.095256 -5.73526,2.432559 0.0347,0.270159 0.69237,2.237448 1.46146,4.371753 0.76909,2.134306 1.90285,5.944305 2.51948,8.466666 0.61662,2.522361 1.19076,4.801387 1.27585,5.064502 0.19867,0.614259 1.26566,0.354202 4.7816,-1.165416 z m -118.94247,-0.812281 c 0.72645,-3.742311 2.80626,-10.671438 4.21518,-14.043363 l 1.39638,-3.34194 -2.00751,-1.062502 c -1.10414,-0.584376 -2.70718,-1.455027 -3.56231,-1.934778 -0.86683,-0.486313 -2.12682,-0.872276 -2.84758,-0.872276 -2.85659,0 -6.56398,-1.886524 -7.72778,-3.93232 -0.31342,-0.550945 -0.68223,-0.963123 -0.81958,-0.915949 -1.28971,0.442955 -8.59418,8.168295 -11.13087,11.772214 l -0.77645,1.103112 1.01176,1.396687 c 2.15524,2.975224 8.33799,7.756103 13.25421,10.248961 2.45375,1.244218 7.89969,3.591736 8.36121,3.604171 0.13176,0.0036 0.41676,-0.906357 0.63334,-2.022017 z m 20.11736,-2.176212 c -0.29104,-0.166471 -1.40229,-0.415427 -2.46944,-0.553235 -1.06716,-0.137809 -4.30647,-0.718278 -7.19847,-1.289932 -3.60167,-0.711931 -5.37247,-0.925097 -5.62093,-0.67664 -0.1995,0.199503 -0.24911,0.476359 -0.11023,0.615236 0.40244,0.402442 11.48071,2.151653 13.81157,2.180788 1.34172,0.01677 1.92293,-0.08436 1.5875,-0.276217 z m 74.69334,-0.241785 c -0.11723,-0.117225 -0.4215,-0.129758 -0.67616,-0.02785 -0.28142,0.112616 -0.19783,0.196209 0.21314,0.213137 0.37188,0.01532 0.58024,-0.06806 0.46302,-0.185287 z m 2.46944,-0.352778 c -0.11722,-0.117225 -0.42149,-0.129758 -0.67615,-0.02785 -0.28143,0.112616 -0.19783,0.196209 0.21313,0.213137 0.37189,0.01532 0.58025,-0.06806 0.46302,-0.185287 z m -83.16,-1.874137 c 0,-0.357608 -5.64802,-1.769705 -7.56797,-1.892117 -1.45218,-0.09259 -1.63654,0.514007 -0.27463,0.903612 3.95923,1.132621 7.8426,1.622093 7.8426,0.988505 z m 86.03251,-1.479008 c 4.19649,-0.603261 7.70554,-1.168302 7.79789,-1.255646 0.18685,-0.176709 -1.07307,-3.951137 -2.1987,-6.586819 -0.64866,-1.518851 -0.82998,-1.688389 -1.64225,-1.535537 -0.50219,0.0945 -2.50057,0.493041 -4.44085,0.885641 -1.94028,0.392599 -5.11527,0.911244 -7.05555,1.152544 -1.94028,0.2413 -3.58859,0.486679 -3.66292,0.545287 -0.0743,0.05861 0.35542,0.66528 0.95499,1.348159 1.07395,1.223153 2.17876,4.126363 2.17876,5.725294 0,0.449853 0.0987,0.817914 0.21933,0.817914 0.12062,0 3.65281,-0.493577 7.8493,-1.096837 z m -78.55473,-0.760725 c 0.33058,-1.599336 1.51432,-4.032238 2.46997,-5.076451 0.66599,-0.727704 0.66807,-0.768314 0.0484,-0.944368 -0.35614,-0.101181 -1.36191,-0.285323 -2.23503,-0.409205 -4.10695,-0.582705 -11.15251,-2.036752 -12.00491,-2.477545 -0.89719,-0.463958 -0.9739,-0.438453 -1.3916,0.462749 -0.87628,1.890562 -2.84949,7.579533 -2.68574,7.743279 0.6088,0.608799 10.80523,2.175411 13.59843,2.089306 l 1.92591,-0.05937 z m 62.5486,-8.875898 c 8.04051,-0.905009 17.20094,-2.269425 17.54475,-2.613231 0.41471,-0.41471 1.23627,-3.604718 1.52639,-5.926744 0.25925,-2.074925 -0.1972,-3.178341 -1.73032,-4.182882 -0.74057,-0.485239 -1.00645,-0.470553 -2.82817,0.156211 -4.86991,1.675495 -13.63646,3.215801 -25.44876,4.471417 -7.84167,0.83355 -24.58675,0.843726 -32.98472,0.02005 -11.29092,-1.107424 -21.64192,-2.984414 -25.61669,-4.645182 -1.8107,-0.756559 -2.8588,-0.666638 -3.85629,0.330849 -1.09423,1.094235 -1.12116,2.549786 -0.11607,6.274698 0.51738,1.917426 0.98218,2.923113 1.49931,3.244011 1.2246,0.759918 17.67419,3.136127 24.20919,3.497112 1.26118,0.06967 11.3418,0.09126 22.40138,0.04799 16.1445,-0.06317 21.15145,-0.196089 25.4,-0.67429 z m 24.56999,-4.024987 c 0.74024,-0.29008 1.09799,-0.864398 1.72529,-2.76973 0.43527,-1.322071 1.31206,-3.446247 1.94843,-4.720392 1.3369,-2.676789 1.82699,-4.712381 1.22426,-5.084893 -0.46757,-0.288971 -8.8435,1.159174 -9.33366,1.613731 -0.19721,0.182882 -0.10916,0.551183 0.22204,0.928759 1.72718,1.969022 1.98713,3.723877 1.20888,8.160654 l -0.45537,2.596069 1.26312,-0.179117 c 0.69472,-0.09851 1.68338,-0.343801 2.19701,-0.545081 z m -100.94666,-0.49919 c -1.6e-4,-0.242535 -0.24307,-1.604724 -0.53981,-3.027086 -0.67534,-3.23716 -0.41111,-4.724661 1.14527,-6.447394 l 1.21211,-1.341659 -1.34961,-0.580048 c -3.21687,-1.382572 -7.7623,-2.976208 -8.49336,-2.977789 -1.25719,-0.0027 -1.10037,2.26458 0.28712,4.151272 0.68237,0.927878 1.4016,2.668206 1.95078,4.720312 0.47845,1.787801 1.03698,3.45186 1.24118,3.697908 0.3859,0.464979 3.76621,2.245456 4.2631,2.245456 0.15593,0 0.28338,-0.198437 0.28322,-0.440972 z m 108.66293,-2.050513 c 3.57371,-0.985403 4.06487,-1.362545 4.58205,-3.518377 0.39483,-1.645827 0.68143,-2.010904 3.12624,-3.98223 3.55393,-2.865647 8.87733,-8.122585 7.98323,-7.883555 -0.38806,0.103743 -2.21368,0.742265 -4.05695,1.418937 -2.98988,1.097602 -5.55711,1.870171 -10.05416,3.025651 l -1.41112,0.362573 -0.0254,1.859938 c -0.019,1.390181 -0.40415,2.706383 -1.52499,5.211326 -0.82478,1.843264 -1.58439,3.549826 -1.68804,3.792361 -0.2505,0.586169 -0.0172,0.564378 3.06913,-0.286624 z m -117.61605,-2.364611 c 0.27515,-0.180444 0.0405,-1.170136 -0.7724,-3.257792 -0.64219,-1.649236 -1.27509,-3.833666 -1.40644,-4.854288 -0.21039,-1.634666 -0.34948,-1.879585 -1.16788,-2.056415 -2.43958,-0.527122 -8.70939,-2.703258 -12.00806,-4.167775 -2.01887,-0.896327 -3.75125,-1.54912 -3.84972,-1.450652 -0.36087,0.360879 5.85219,6.059264 8.66044,7.943019 2.87576,1.929042 2.89487,1.951931 3.30024,3.952765 0.22626,1.116756 0.71249,2.288286 1.09245,2.63214 0.55016,0.497892 2.26375,0.955405 5.57978,1.489756 0.097,0.01563 0.35423,-0.08821 0.57159,-0.230758 z m 73.51174,-2.401998 c 8.76569,-0.811688 17.20231,-2.167237 22.225,-3.570992 4.47616,-1.251009 16.78239,-7.833922 22.20219,-11.876517 8.7276,-6.509855 15.92911,-15.495461 20.4509,-25.5174 4.43173,-9.822323 6.7087,-22.674202 6.20672,-35.032542 -0.39407,-9.70169 -1.66325,-16.16702 -4.61892,-23.52927 -3.34575,-8.33387 -8.02289,-15.0429 -15.65107,-22.45037 -13.64989,-13.25495 -29.66485,-20.73309 -50.81482,-23.72785 -5.56887,-0.78853 -20.84581,-0.96784 -27.02111,-0.31715 -19.02866,2.00503 -35.92203,8.22535 -47.69662,17.56242 -15.19715,12.05111 -24.59813,27.88702 -26.73507,45.03509 -2.61318,20.96962 1.68983,40.142892 12.18627,54.299441 5.48462,7.397102 15.84791,15.69419 25.97152,20.793396 1.92455,0.969382 4.41465,2.316989 5.53356,2.99468 2.41167,1.460676 5.66212,2.383318 12.6059,3.578182 14.72313,2.533514 30.25608,3.138548 45.15555,1.758882 z m -25.69527,-4.78143 c -20.35368,-1.672668 -38.34217,-8.002231 -50.81655,-17.880688 -13.58874,-10.760915 -20.69057,-24.172702 -21.89091,-41.340893 -0.88393,-12.64258 1.4957,-25.65666 6.52123,-35.66425 1.44596,-2.87942 6.18697,-10.3088 6.83348,-10.70836 0.16673,-0.10305 -0.13374,1.53942 -0.66773,3.64994 -0.67726,2.67682 -1.61543,5.10295 -3.10219,8.02235 -5.03467,9.88609 -7.19413,20.41999 -6.67966,32.58365 0.64788,15.317988 5.18543,25.873901 15.55,36.174663 5.43666,5.403191 10.87185,9.244028 18.01021,12.727101 20.76848,10.133722 52.22366,12.481412 77.35811,5.773703 20.54055,-5.481722 35.93375,-16.904648 43.4916,-32.274077 3.86166,-7.852961 5.24975,-13.866644 5.54944,-24.04219 0.23161,-7.86386 -0.24329,-12.77696 -1.83547,-18.98924 -2.84091,-11.08449 -8.10317,-20.19915 -16.09927,-27.88525 -8.61643,-8.28239 -18.45327,-14.18162 -30.29925,-18.17069 -12.96528,-4.36599 -30.82754,-5.95066 -45.50833,-4.03733 -17.95246,2.33973 -35.62412,9.98249 -45.98675,19.88867 -1.3573,1.29752 -2.00313,1.73292 -1.88288,1.26937 0.10067,-0.38806 0.37133,-1.53839 0.60148,-2.55629 0.3466,-1.53299 0.72588,-2.12716 2.20915,-3.46074 4.12949,-3.71277 12.44443,-8.56665 20.18817,-11.78493 6.23441,-2.591 16.5454,-5.42009 22.40139,-6.1464 0.87312,-0.1083 3.09562,-0.39092 4.93889,-0.62805 1.84326,-0.23713 6.68514,-0.42755 10.75972,-0.42317 23.86016,0.0257 43.60647,6.20057 58.58829,18.32117 4.03233,3.26223 9.8379,9.26827 12.94206,13.38896 2.98181,3.95826 7.18334,12.18348 8.83805,17.30201 4.54788,14.06802 4.57533,30.06146 0.0741,43.185457 -2.89788,8.449186 -6.74811,14.395797 -13.67077,21.114232 -8.71779,8.460595 -17.17936,13.385002 -30.29532,17.63105 -13.15656,4.259191 -31.12947,6.192171 -46.1203,4.960222 z m 7.52721,-35.191822 c -1.48084,-0.388848 -3.76335,-1.603273 -5.05312,-2.68854 -1.58559,-1.334184 -3.46166,-5.309988 -3.77283,-7.995423 -0.1519,-1.310921 -0.53182,-2.580774 -0.91988,-3.074622 -0.86175,-1.096662 -0.84201,-2.681947 0.0444,-3.568397 1.21964,-1.219637 2.80921,-1.046557 4.74476,0.516642 1.98654,1.604379 2.74632,1.948519 5.16006,2.337241 1.44741,0.233098 2.82806,0.213177 4.4183,-0.06375 1.93594,-0.337129 2.66298,-0.683661 4.45971,-2.12563 2.37843,-1.90882 3.68738,-2.18318 4.85328,-1.01728 0.89193,0.891925 0.90752,2.562688 0.0355,3.806646 -0.40116,0.572279 -0.75533,1.863874 -0.88259,3.218605 -0.40083,4.267233 -3.13828,8.401919 -6.52813,9.860195 -1.94673,0.83746 -4.99122,1.206128 -6.55952,0.794314 z m 5.0356,-3.968244 c 1.86123,-0.901008 3.68581,-3.236975 3.53543,-4.526353 -0.0714,-0.612388 -0.50884,-1.111458 -1.38566,-1.580937 -1.18095,-0.632316 -1.60177,-0.65838 -5.37275,-0.332761 -3.54235,0.305878 -4.21076,0.465384 -4.9805,1.188518 -0.48899,0.459375 -0.88906,1.088203 -0.88906,1.397396 0,1.054176 1.72347,3.101668 3.24461,3.854616 1.92948,0.955069 3.87436,0.95491 5.84793,-4.79e-4 z m -48.71002,-1.376762 c -5.11048,-1.28358 -10.33267,-6.016316 -12.06996,-10.938704 -2.64595,-7.496959 -0.20911,-15.106899 6.15358,-19.216799 3.21208,-2.0748 5.26214,-2.72043 9.23961,-2.90987 5.65806,-0.26947 9.31884,0.96486 13.01756,4.38922 3.85453,3.56861 5.44255,7.44678 5.22472,12.75948 -0.12833,3.12969 -0.25773,3.64892 -1.59761,6.410445 -1.86594,3.845736 -4.56544,6.521285 -8.43263,8.357804 -2.51954,1.196523 -2.98179,1.295866 -6.45404,1.387046 -2.05708,0.05402 -4.34363,-0.05336 -5.08123,-0.238622 z m 6.20532,-7.047387 c 1.17939,-0.927706 1.50907,-2.466809 0.81564,-3.807757 -0.5768,-1.11541 -1.19336,-1.47961 -2.50487,-1.47961 -1.3115,0 -1.92806,0.3642 -2.50486,1.47961 -0.99469,1.923509 0.44366,4.517612 2.50486,4.517612 0.43274,0 1.19289,-0.319435 1.68923,-0.709855 z m -8.21562,-7.941396 c 3.82298,-1.96767 4.32992,-7.61638 0.91713,-10.21944 -1.86842,-1.42512 -4.05643,-1.58848 -5.80217,-0.4332 -1.50616,0.99673 -2.56966,2.88466 -2.58927,4.59648 -0.0272,2.37028 0.36352,5.62106 0.71813,5.97567 0.97008,0.97008 4.93601,1.01732 6.75618,0.0805 z m 85.30085,14.672884 c -5.59107,-1.787683 -9.45436,-5.687283 -11.42068,-11.528003 -0.82086,-2.438251 -0.91658,-3.184311 -0.77097,-6.008831 0.21065,-4.08604 1.46286,-6.97294 4.32706,-9.97575 3.39276,-3.55696 7.73044,-5.32016 13.0882,-5.32016 6.8352,0 12.71768,3.66787 15.74512,9.81748 0.98611,2.00307 1.14884,2.73799 1.26906,5.73106 0.10429,2.5965 -0.0113,3.89308 -0.47404,5.319489 -2.01248,6.202811 -6.45902,10.601007 -12.28606,12.152477 -2.56027,0.681682 -7.03576,0.593018 -9.47769,-0.187762 z m 7.15406,-7.05283 c 1.31573,-1.315729 1.37905,-2.886357 0.16529,-4.100116 -1.83037,-1.830368 -4.77854,-0.577311 -4.77854,2.031025 0,1.243634 1.69013,3.100288 2.82223,3.100288 0.4179,0 1.22386,-0.464039 1.79102,-1.031197 z m -9.18371,-7.081214 c 1.41845,-0.39405 3.28643,-2.16343 3.84327,-3.64041 0.92176,-2.4449 -0.0559,-5.84522 -2.09899,-7.3 -1.6978,-1.20894 -4.08732,-1.33194 -5.64048,-0.29035 -1.833,1.22925 -2.90856,3.55759 -2.66136,5.76123 0.10883,0.97014 0.24897,2.3775 0.31142,3.12747 0.12204,1.4656 0.69359,2.00457 2.52633,2.38234 1.65557,0.34124 2.3745,0.33346 3.71981,-0.0403 z m 25.80226,50.255952 c 7.58498,-1.594666 17.73203,-6.019692 20.87371,-9.102813 3.58851,-3.521631 9.75395,-13.780688 12.38926,-20.615259 1.708,-4.429638 2.43526,-7.722811 3.67893,-16.658802 3.27878,-23.558848 3.14385,-37.100918 -0.49566,-49.745558 -3.47532,-12.07421 -10.68496,-25.20412 -19.26263,-35.0803 -14.75998,-16.9944 -30.38447,-27.85035 -48.29318,-33.55428 -18.65261,-5.94085 -34.82645,-6.47403 -53.52748,-1.76454 -17.06194,4.29671 -31.96212,12.64783 -44.95059,25.19351 -17.403,16.80974 -28.29198,36.88883 -30.83063,56.85117 -0.80705,6.34608 -0.54158,16.91323 0.709,28.22222 2.14719,19.417067 3.634,25.283951 8.71674,34.395831 4.08952,7.331334 7.4918,11.51712 10.67127,13.12876 3.63055,1.840291 9.74058,4.298238 14.51903,5.84073 7.05511,2.277399 7.44612,2.336561 5.08711,0.769709 -10.25325,-6.810197 -19.42271,-18.073706 -24.11076,-29.616976 -4.12668,-10.161032 -5.66234,-18.527904 -5.63315,-30.691664 0.0194,-8.07143 0.39767,-11.95173 1.77126,-18.16805 2.98045,-13.48828 9.51192,-24.72837 20.60946,-35.4671 14.68322,-14.20849 34.96242,-22.27283 60.80902,-24.18167 18.13731,-1.33949 38.56555,2.59089 54.06437,10.40196 9.9547,5.01695 20.36783,13.2256 26.89464,21.20098 6.83239,8.34879 11.61778,18.4772 14.00092,29.63333 0.94607,4.42882 0.97951,4.94302 0.97527,14.99305 -0.004,9.03104 -0.1063,11.02265 -0.77523,15.06394 -1.96576,11.875961 -5.13051,20.251529 -11.03105,29.193895 -4.82547,7.313082 -9.92408,12.471326 -18.10836,18.32015 -3.04797,2.178203 -2.92832,2.315961 1.24873,1.437777 z M 606.15899,-80.442224 c 0.1133,-0.113299 -0.0992,-1.09293 -0.47211,-2.17696 -0.97506,-2.834078 -2.34317,-9.863765 -2.79744,-14.373986 -0.21497,-2.134305 -0.61751,-5.62681 -0.89452,-7.76111 -0.93512,-7.20468 -1.56633,-15.14443 -1.56756,-19.71762 l -10e-4,-4.54817 -2.13086,0.22272 c -3.02618,0.3163 -5.64387,1.71837 -8.08968,4.33295 -3.18643,3.4063 -3.70671,5.05784 -3.65311,11.59623 0.0567,6.91559 1.1867,15.462484 2.60344,19.691171 2.17735,6.498951 5.90997,10.442246 11.62298,12.279018 1.89153,0.608139 4.96715,0.868681 5.38007,0.455757 z m 200.17069,-0.287385 c 6.71166,-1.787004 11.48576,-7.506661 13.18388,-15.795081 0.92045,-4.49267 1.88073,-16.06011 1.62034,-19.51848 -0.49403,-6.56148 -5.70717,-12.12126 -11.97177,-12.76783 l -1.9149,-0.19763 -0.18155,6.83551 c -0.16492,6.20964 -0.54682,10.1613 -2.58686,26.76745 -0.64013,5.210732 -1.70031,10.565968 -2.62224,13.245627 l -0.66189,1.923816 1.65669,-0.0042 c 0.91118,-0.0023 2.47641,-0.222441 3.4783,-0.489195 z"
       id="path137" /></g></svg>
