<?xml version="1.0" encoding="UTF-8" standalone="no"?>
<!-- Created with Inkscape (http://www.inkscape.org/) -->

<svg
   width="318.83197mm"
   height="317.64392mm"
   viewBox="0 0 318.83201 317.64396"
   version="1.1"
   id="svg1"
   xml:space="preserve"
   xmlns="http://www.w3.org/2000/svg"
   xmlns:svg="http://www.w3.org/2000/svg"><defs
     id="defs1"><clipPath
       clipPathUnits="userSpaceOnUse"
       id="clipPath3"><path
         id="path3"
         style="fill:#ff0000;fill-opacity:1;fill-rule:nonzero;stroke:none;stroke-width:0.264583"
         d="M 117.46378,-9.1863687 V 177.1666 H 291.49502 V -9.1863687 Z M 147.33431,111.9313 c 4.14894,-0.0917 4.55169,4.35712 -0.092,5.08445 -1.19542,0.18724 -2.39032,0.38079 -3.5698,0.65474 -1.90165,0.43105 -3.80094,0.86919 -5.68493,1.37304 -4.84343,1.29532 -6.43119,-3.45704 -1.60197,-4.80436 2.03917,-0.56891 4.10352,-1.04005 6.16758,-1.50792 1.28939,-0.29942 2.59504,-0.5123 3.90158,-0.71882 0.30951,-0.0489 0.60293,-0.075 0.87953,-0.0811 z" /></clipPath><clipPath
       clipPathUnits="userSpaceOnUse"
       id="clipPath29"><path
         id="path30"
         style="fill:#ff0000;fill-opacity:1;fill-rule:nonzero;stroke:none;stroke-width:0.264583"
         d="M -43.229648,-9.2280016 V 216.91788 H 174.31521 V -9.2280016 Z M 64.45887,27.798679 c 2.205167,0.07543 3.149314,2.777559 0.336931,5.092713 -1.01463,0.835234 -0.499494,0.392851 -1.540992,1.333252 -0.05085,0.0495 -0.09987,0.101018 -0.150379,0.150894 0.220084,0.811057 0.124675,1.87329 -0.520898,3.115572 -0.875451,1.684613 -1.748676,3.370175 -2.654102,5.038968 -0.9775,1.836439 -1.88347,3.711528 -2.891295,5.530414 -2.429936,4.385429 -6.499333,1.653471 -4.214214,-2.809132 0.315439,-0.616018 0.63763,-1.228696 0.952912,-1.844849 -0.0069,-0.02252 -0.01495,-0.04284 -0.0217,-0.06563 -0.595128,-2.008016 -0.06926,-3.784214 0.689364,-5.659086 1.273995,-2.682428 3.163792,-4.981609 5.254458,-7.063137 1.251259,-1.138375 0.627229,-0.597072 1.867588,-1.628325 0.963808,-0.80132 1.889408,-1.157192 2.675289,-1.190625 0.07368,-0.0031 0.145905,-0.0035 0.217041,-0.0011 z M 107.156,139.45233 v 5.3e-4 h 1.33171 c 3.18466,0 4.31777,2.03379 3.45198,3.52174 1.2611,1.23575 0.77004,3.28353 -1.76526,3.91088 -0.54914,0.61592 -1.49045,1.10474 -2.85099,1.26142 -0.13698,0.0157 -0.27436,0.0312 -0.41135,0.047 -2.65141,0.30532 -4.05473,-0.97849 -4.03644,-2.33215 -0.3479,-0.33509 -0.56463,-0.74464 -0.62167,-1.18649 -3.34332,-0.94574 -2.811804,-4.86069 1.59628,-4.86069 h 0.98857 c 0.11851,0 0.23333,0.004 0.34624,0.009 0.53882,-0.2172 1.16849,-0.37104 1.97093,-0.37104 z" /></clipPath><clipPath
       clipPathUnits="userSpaceOnUse"
       id="clipPath48"><path
         id="path49"
         style="fill:#ff0000;fill-opacity:1;fill-rule:nonzero;stroke:none;stroke-width:0.264583"
         d="M 41.090804,5.5343725 V 221.55581 H 225.28628 V 5.5343725 Z M 200.73584,27.81415 c 1.72945,0.01908 2.64943,1.415222 2.08618,2.936254 0.0339,0.915892 -0.44821,2.031525 -1.67277,3.09025 -1.14726,0.991904 -0.56367,0.491389 -1.75183,1.502235 -1.46438,1.223881 -2.91427,2.468533 -4.41523,3.645773 -1.77565,1.392637 -3.30034,1.324822 -4.09174,0.539502 -1.31401,0.83852 -2.64966,1.641588 -3.98426,2.445845 -4.29416,2.587749 -6.80634,-1.80888 -2.51251,-4.397148 1.38418,-0.834355 2.77707,-1.656016 4.13257,-2.53783 2.02228,-1.284452 4.05223,-2.553893 5.99602,-3.95583 1.19062,-0.885809 2.41863,-1.714333 3.69021,-2.478919 0.9399,-0.565155 1.79944,-0.798117 2.52336,-0.790132 z m -20.13521,16.378329 c 1.02365,0.01453 1.87727,0.799764 2.03296,2.110465 0.71756,0.616212 1.16959,1.820418 0.93741,3.568774 -0.19898,1.498301 -0.82482,2.881966 -1.4888,4.223515 -0.63096,1.325187 -1.47451,2.521106 -2.32492,3.70985 -0.38328,0.580088 -0.18725,0.28308 -0.58808,0.890902 -1.63866,2.484932 -3.79495,2.511833 -4.69894,1.247471 -2.33551,3.060126 -5.91882,0.907738 -3.88814,-3.193087 0.88107,-1.779241 1.75108,-3.563456 2.63189,-5.342829 0.83405,-1.68497 1.98081,-2.401348 2.97139,-2.401401 0.1436,-8e-6 0.2783,0.0337 0.41393,0.06305 0.3156,-0.730126 0.62695,-1.462167 0.92862,-2.198317 0.77233,-1.88468 2.00662,-2.693514 3.07268,-2.678388 z" /></clipPath><clipPath
       clipPathUnits="userSpaceOnUse"
       id="clipPath83"><path
         id="path84"
         style="fill:#ff0000;fill-opacity:1;fill-rule:nonzero;stroke:none;stroke-width:0.264583"
         d="M 132.47438,-7.0202515 V 208.9707 H 400.12987 V -7.0202515 Z M 255.34182,107.77274 c 0.0472,-0.001 0.0949,-5.3e-4 0.14262,0.002 1.04471,0.054 2.1902,0.94645 2.81327,2.8856 0.30713,0.9559 0.45596,1.9522 0.57981,2.94557 0.10458,0.89626 0.14611,1.79819 0.17311,2.69957 0.0488,0.45711 0.0906,0.91485 0.13385,1.37252 0.0315,0.33386 -0.006,0.60608 -0.0331,0.88729 0.91737,0.0871 1.97159,0.68687 2.89285,1.9823 0.56984,0.80129 1.07462,1.64469 1.57303,2.49133 0.43109,0.67097 0.92631,1.29541 1.37563,1.95389 0.093,0.15699 0.18605,0.31429 0.27905,0.47128 1.3533,2.28542 0.70235,4.10077 -0.55914,4.6452 -1.0202,0.91063 -2.90824,0.69124 -4.38526,-1.56166 -0.23927,-0.36498 -0.47787,-0.72951 -0.72864,-1.08675 -0.21649,-0.33577 -0.38754,-0.69537 -0.57412,-1.04646 0.60841,2.15867 -0.88886,3.60669 -2.70992,3.036 -0.61576,0.27533 -1.36103,0.46037 -2.34197,0.39946 -1.46689,-0.0911 -2.93256,-0.19318 -4.3987,-0.29559 -1.7965,-0.11093 -3.59744,-0.19829 -5.3976,-0.19327 -5.01363,0.0148 -5.01363,-5.04892 0,-5.06481 1.90344,-0.006 3.80708,0.0877 5.70662,0.20308 0.63529,0.0442 1.27091,0.0848 1.90635,0.12817 -2.17205,-2.83957 -4.35986,-5.66727 -6.60115,-8.45273 -2.16084,-2.68543 -1.06507,-5.11916 0.85783,-5.11337 0.62825,0.002 1.34535,0.27748 2.06551,0.87642 0.36368,-0.69499 0.98791,-1.10018 1.68982,-1.13222 0.5054,-0.0231 1.05025,0.14938 1.56682,0.54311 0.0929,-0.0187 0.17783,-0.0646 0.27389,-0.0698 0.59436,-0.0317 1.23871,0.20301 1.81539,0.73433 -0.66441,-2.60236 0.46874,-4.21014 1.88413,-4.24058 z m 0.76842,13.7263 c -0.0318,0.10382 -0.0684,0.20282 -0.10852,0.29765 0.1244,0.16259 0.24889,0.32511 0.37311,0.48783 -0.0977,-0.26391 -0.21978,-0.53471 -0.25425,-0.77928 -0.004,-0.001 -0.007,-0.005 -0.0104,-0.006 z m 30.3289,39.33455 h 0.77722 c 5.01355,0 5.01355,5.0648 0,5.0648 h -0.77722 c -5.01356,0 -5.01356,-5.0648 0,-5.0648 z" /></clipPath><clipPath
       clipPathUnits="userSpaceOnUse"
       id="clipPath102"><path
         id="path103"
         style="fill:#ff0000;fill-opacity:1;fill-rule:nonzero;stroke:none;stroke-width:0.264583"
         d="M 245.09482,-91.085287 V 149.53775 H 484.24663 V -91.085287 Z M 386.76007,31.187352 h 1.65003 c 5.01366,0 5.01366,5.064808 0,5.064808 h -1.65003 c -5.01363,0 -5.01363,-5.064808 0,-5.064808 z M 278.24163,82.628657 c 1.01789,-0.02799 2.2471,0.632241 3.22823,2.236039 0.35364,0.578075 0.76779,1.114584 1.156,1.669148 -0.17857,-0.354603 -0.18541,-0.571659 0.17415,-0.552421 0.23066,0.01233 0.61185,0.121491 1.19424,0.352951 1.53042,0.608219 2.70481,1.775786 3.91915,2.844787 1.81743,1.599938 0.34244,0.262279 2.18642,1.956988 3.60359,3.311803 0.41639,6.943077 -3.16724,3.953764 -0.79615,1.298192 -2.87067,1.492136 -4.73046,-0.775663 -1.83595,-2.238679 -3.67165,-4.498713 -5.15938,-6.989754 -1.6067,-2.690249 -0.49754,-4.649169 1.19889,-4.695839 z m 48.66887,29.818333 c 0.83168,-0.0227 1.84441,0.35214 2.89336,1.2945 1.31333,1.17988 2.46338,2.50869 3.55327,3.89278 0.66124,0.8467 0.33676,0.43396 0.97307,1.24024 1.19229,1.51076 1.33855,2.90191 0.89349,3.8225 -0.0163,1.85972 -2.19841,3.00623 -4.86947,1.01441 -1.74706,-1.30277 -3.55293,-2.52496 -5.46892,-3.56826 -3.57759,-1.94805 -3.2943,-5.2782 -0.6165,-5.34076 0.19127,-0.004 0.4163,0.0413 0.63148,0.0718 -0.16797,-1.35773 0.69344,-2.39125 2.01022,-2.42724 z" /></clipPath><clipPath
       clipPathUnits="userSpaceOnUse"
       id="clipPath113"><path
         id="path114"
         style="fill:#ff0000;fill-opacity:1;fill-rule:nonzero;stroke:none;stroke-width:0.264583"
         d="m 157.06646,-116.17763 v 259.5609 h 295.04349 v -259.5609 z M 393.26393,24.765705 c 0.58122,0.01077 1.2423,0.145151 1.96835,0.439251 0.12003,0.04866 0.24016,0.09764 0.36019,0.146243 4.64687,1.882275 2.73607,6.583688 -1.90686,4.691703 -0.14942,-0.06089 -0.29912,-0.121518 -0.44855,-0.182417 -3.9175,-1.596369 -3.11177,-5.15297 0.0269,-5.09478 z M 342.53524,35.83583 c 1.18144,-0.02069 2.40504,1.064402 2.64894,3.401861 0.1717,1.645558 0.30485,3.295441 0.42064,4.945949 0.0645,0.913149 0.11065,1.827168 0.15555,2.741435 0.24595,5.007597 -4.81334,5.255694 -5.05861,0.248047 -0.043,-0.878927 -0.0868,-1.757637 -0.14883,-2.635496 -0.10709,-1.52953 -0.23333,-3.057792 -0.3824,-4.583702 -0.25896,-2.650887 1.02575,-4.094644 2.36471,-4.118094 z m -33.1494,10.456727 c 3.77235,0.03375 4.17655,4.205814 -0.27905,5.095812 -2.7794,0.55518 -5.59728,1.027409 -8.44083,1.011309 -5.01353,-0.0284 -5.01357,-5.084189 0,-5.064292 2.50698,0.0099 4.99365,-0.416576 7.44296,-0.912606 0.46068,-0.09329 0.8867,-0.133723 1.27692,-0.130223 z" /></clipPath><clipPath
       clipPathUnits="userSpaceOnUse"
       id="clipPath120"><path
         id="path121"
         style="fill:#ff0000;fill-opacity:1;fill-rule:nonzero;stroke:none;stroke-width:0.264583"
         d="M 344.49101,-224.74208 V 93.739762 H 637.43746 V -224.74208 Z m 57.97992,209.900367 c 0.17961,0.01947 0.44237,0.736351 1.12035,2.611725 1.04876,2.9010165 1.04829,6.0186442 1.03043,9.064046 0.0143,1.3839481 -0.10427,2.76298025 -0.22014,4.14031642 -0.59446,7.06539898 -7.74229,6.45877818 -7.13652,-0.60564713 0.10217,-1.19155898 0.21192,-2.38444349 0.1943,-3.58220959 0.01,-1.3333704 0.0121,-2.6497942 -0.0997,-3.9796032 -0.0279,-0.3318299 -0.0672,-0.6624188 -0.10077,-0.993738 -0.0503,-0.2728383 -0.12659,-0.5421736 -0.1509,-0.8185547 -0.002,-0.026405 0.0513,-0.014711 0.077,-0.021696 v 5.291e-4 c 4.91136,-1.3600639 4.82699,-5.8648859 5.28598,-5.8151469 z m 133.45697,6.2301089 c 1.67324,0.041132 3.33082,1.6477562 3.50832,4.9666234 0.11004,2.0573682 0.32592,4.10132476 0.64854,6.135542 0.18985,1.1819096 0.0857,0.6294014 0.30127,1.6577812 1.45485,6.9395025 -5.61446,8.3885985 -7.01611,1.4381533 -0.26963,-1.3368866 -0.15081,-0.6772169 -0.35967,-1.9776572 -0.34188,-2.1687869 -0.5874,-4.34761481 -0.70073,-6.5412011 -0.19434,-3.7617374 1.72206,-5.7258612 3.61838,-5.6792416 z" /></clipPath><clipPath
       clipPathUnits="userSpaceOnUse"
       id="clipPath135"><path
         id="path136"
         style="fill:#ff0000;fill-opacity:1;fill-rule:nonzero;stroke:none;stroke-width:0.264583"
         d="M 477.20433,-278.28082 V 24.963721 H 771.33006 V -278.28082 Z m 210.63107,135.23516 c 0.64896,0.035 1.7578,0.6255 3.62924,1.81177 2.19626,1.39221 3.0073,3.9804 3.71812,6.32623 2.05612,6.78565 -4.88195,8.85363 -6.86367,2.04587 -0.0268,-0.092 -0.73029,-2.14343 -0.73122,-2.21433 -7.9e-4,-0.0632 0.20677,0.0905 0.18707,0.0305 -0.10221,-0.31196 -0.80107,-0.22791 -0.78497,-0.59531 0.21365,-4.86991 -0.58229,-7.48164 0.84543,-7.40471 z m -130.47369,16.81964 c 0.91327,0.0304 1.9753,0.32094 3.14296,0.95653 2.78354,1.51516 5.89063,2.18265 8.94106,2.92644 0.0491,0.0113 0.0982,0.0228 0.14728,0.0341 0.39361,-0.23297 0.86771,-0.35577 1.40508,-0.34261 0.5856,0.0143 1.246,0.19084 1.95647,0.55604 0.81659,-0.371 1.60361,-0.61361 2.29702,-0.62064 2.81826,-0.0285 4.29465,2.61341 2.36678,5.30459 3.08911,4.80056 -0.8845,8.35677 -4.59714,5.38055 -3.03493,3.4549 -7.30869,1.00926 -5.86579,-3.50986 -3.37628,-0.82322 -6.77463,-1.65732 -9.85418,-3.32228 -5.06768,-2.73985 -3.89711,-7.49447 0.0605,-7.36286 z" /></clipPath><clipPath
       clipPathUnits="userSpaceOnUse"
       id="clipPath194"><path
         id="path195"
         style="fill:#ff0000;fill-opacity:1;fill-rule:nonzero;stroke:none;stroke-width:0.264583"
         d="M 586.95278,-316.37262 V -43.138126 H 818.30765 V -316.37262 Z m 53.82824,72.49015 c 5.33405,0.12466 5.82153,6.02581 -0.49609,7.19904 -2.32153,0.43113 -4.65251,0.82017 -7.00009,1.08107 -7.04698,0.78317 -7.75784,-6.32329 -0.71314,-7.12669 2.14582,-0.24472 4.27842,-0.59779 6.40064,-0.99529 0.65336,-0.12238 1.25688,-0.17103 1.80868,-0.15813 z m 77.85158,114.10828 c 5.86642,-0.17632 6.48709,6.10528 -0.0708,7.19077 -0.65044,0.10768 -1.3006,0.21896 -1.95027,0.33383 -0.18624,1.569 -1.65678,3.15205 -4.701,3.58842 -1.37462,0.19703 -2.74876,0.39523 -4.11551,0.64182 -5.88106,1.06099 -7.65071,-3.73734 -3.89021,-6.03064 -0.44358,-1.62905 0.75127,-3.61238 4.07469,-4.51549 1.14165,-0.31024 2.30177,-0.54546 3.4587,-0.7891 0.65046,-0.13696 1.25255,-0.19937 1.80455,-0.19895 0.72259,5.3e-4 1.35538,0.11212 1.89962,0.3023 0.74992,-0.13205 1.49887,-0.27349 2.24793,-0.3979 0.43716,-0.0726 0.8512,-0.11331 1.2423,-0.12506 z m -47.0023,6.36447 c 0.3571,0.005 0.66572,0.0637 0.9803,0.11524 0.23275,-0.014 0.45893,-0.0202 0.67645,-0.0165 5.13714,0.0853 6.02792,4.92424 1.74201,6.65282 -0.2791,1.55409 -1.86787,3.01524 -4.95267,3.20911 -1.32588,0.0833 -2.65349,0.19317 -3.9827,0.18087 -6.21432,-0.0577 -6.9134,-5.51225 -2.23294,-6.82749 0.30073,-1.44555 1.79244,-2.7352 4.47414,-2.882 1.03806,-0.21146 0.52502,-0.11858 1.7632,-0.31522 0.54708,-0.0869 1.05812,-0.12365 1.53221,-0.11679 z m 99.07302,6.165 c 0.89914,0.004 1.96602,0.25118 3.1688,0.81752 2.02316,0.95264 3.73174,2.45062 5.49734,3.79977 0.85474,0.65313 1.4131,1.33352 1.83865,2.01073 0.18957,0.0836 0.37745,0.17091 0.56792,0.25269 0.0841,0.0361 0.12724,0.0867 0.20826,0.12403 0.48889,0.0224 1.01285,0.0896 1.57458,0.21497 1.25277,0.27955 2.42252,0.78954 3.56929,1.35082 4.5691,2.23635 4.09908,6.2244 1.18442,7.09518 -0.84566,1.19607 -2.70575,1.953181 -5.42086,1.42885 -0.56167,-0.10847 -1.18835,-0.18392 -1.73322,-0.32814 -1.77621,-0.47013 -3.09656,-1.21518 -3.96979,-2.04794 -0.96364,0.14729 -2.14051,0.0288 -3.48919,-0.46922 -0.12293,-0.0454 -0.24553,-0.0905 -0.36845,-0.13591 -3.71486,-1.37187 -4.65119,-4.08343 -3.5941,-5.79035 -0.64028,-0.86861 -0.889,-1.77578 -0.75706,-2.58382 -2.49519,-2.69142 -1.48083,-5.75432 1.72341,-5.73918 z m -62.23289,1.0852 c 4.84574,0.17549 5.45198,5.70478 -0.56379,7.22127 -1.72557,0.43498 -3.46058,0.81409 -5.21054,1.13895 -6.97116,1.29401 -8.37135,-5.70476 -1.40456,-7.02283 1.62737,-0.30789 3.24545,-0.6453 4.84931,-1.05782 0.85837,-0.22076 1.63731,-0.30464 2.32958,-0.27957 z m -33.07964,3.91449 h 1.59319 c 7.09025,0 7.09025,7.16236 0,7.16236 h -1.59319 c -7.09025,0 -7.09025,-7.16236 0,-7.16236 z m 63.15894,22.509223 c 0.18274,-0.0026 0.36585,-0.0024 0.5488,0.0011 7.0892,0.127804 7.08901,7.300471 0,7.162356 -1.22004,-0.02376 -2.43464,0.137451 -3.64577,0.261482 -7.05346,0.722336 -7.78189,-6.405898 -0.72812,-7.125147 1.27158,-0.12967 2.54589,-0.281474 3.82509,-0.299723 z" /></clipPath></defs><g
     id="layer1"
     transform="translate(-406.95592,414.74743)"><path
       style="fill:#000000"
       d="m 520.43259,-97.597378 c -7.0052,-1.090591 -12.61533,-3.680732 -17.4515,-8.057172 -2.11341,-1.91252 -4.75343,-5.30856 -5.92159,-7.61736 -1.96535,-3.88437 -4.02016,-11.42332 -4.93767,-18.11586 -0.23271,-1.69746 -0.24633,-1.7123 -2.56748,-2.7985 -1.76,-0.8236 -2.37192,-0.97679 -2.48975,-0.62331 -0.24983,0.74949 -2.48078,2.77599 -4.06965,3.69671 -4.06153,2.35357 -9.93564,2.61147 -14.04649,0.61671 -2.61799,-1.27036 -3.30268,-1.82954 -4.84183,-3.95428 l -1.14423,-1.57955 -2.70894,-0.0531 c -1.48992,-0.0292 -3.10582,-0.1229 -3.59089,-0.20816 -0.48507,-0.0853 -1.39278,0.0574 -2.01714,0.31709 -0.62436,0.25966 -1.92623,0.4721 -2.89305,0.4721 -6.75131,0 -13.31924,-4.11562 -16.88946,-10.58333 -3.91757,-7.09695 -3.72498,-15.9582 0.65863,-30.30438 0.37957,-1.24221 0.64814,-2.29593 0.59683,-2.34161 -0.31846,-0.28348 -8.48774,-1.9035 -8.75763,-1.73669 -0.18233,0.11268 -0.33499,0.5527 -0.33925,0.97781 -0.0237,2.36588 -3.21196,6.0727 -5.92134,6.88444 -1.94891,0.58391 -5.5947,0.51543 -7.85341,-0.14751 -1.45769,-0.42783 -2.34309,-1.00019 -3.70076,-2.39232 -2.306,-2.36453 -2.80178,-4.02644 -2.51783,-8.43999 0.21441,-3.33253 4.18865,-27.87945 4.92341,-30.40947 0.55704,-1.91807 3.82719,-5.17487 5.76999,-5.74643 2.44901,-0.72048 6.05444,-0.53886 8.0864,0.40735 2.13515,0.99426 4.46423,3.52643 5.0539,5.4946 0.23597,0.78759 0.49289,1.43198 0.57093,1.43198 0.36975,0 11.36687,2.45068 11.87674,2.6467 0.88902,0.34179 0.97208,-0.15134 0.44581,-2.6467 -0.26599,-1.26118 -0.48693,-3.56939 -0.49097,-5.12935 -0.0152,-5.85864 2.193,-10.9019 7.4153,-16.9358 0.76824,-0.88763 1.39679,-1.73695 1.39679,-1.88737 0,-0.15043 -0.80316,-1.27427 -1.7848,-2.49741 -2.25614,-2.81122 -4.41039,-7.07649 -5.32643,-10.54602 -1.46619,-5.55327 -1.24601,-15.37421 0.61795,-27.56237 3.51537,-22.98646 8.59503,-40.88539 16.50946,-58.17346 12.71722,-27.77916 35.03581,-51.78025 60.1866,-64.72381 14.50377,-7.46419 27.44643,-11.70385 43.39166,-14.21392 5.12793,-0.80723 20.30197,-0.91069 25.22361,-0.17198 20.67265,3.10286 38.23496,9.92106 55.5587,21.56952 14.913,10.02747 30.87043,27.73926 40.62412,45.09035 10.0054,17.79884 16.62265,37.13177 21.81827,63.74413 2.29785,11.76977 3.70586,24.06137 3.33391,29.10416 -0.63859,8.65763 -1.92332,12.23457 -6.83012,19.01623 -1.17984,1.63066 -2.14517,3.14243 -2.14517,3.3595 0,0.21707 0.97004,2.13727 2.15564,4.26711 7.97777,14.33145 13.49109,29.62073 17.74337,49.20501 2.27831,10.49299 2.78436,14.40323 2.59997,20.09012 -0.13235,4.0821 -0.30312,5.21669 -1.16951,7.77022 -1.77002,5.21677 -5.7069,10.13478 -10.12905,12.65333 -5.49527,3.12973 -11.64656,3.36232 -15.29649,0.57838 -1.40544,-1.07198 -1.15188,-1.2147 -3.3607,1.89159 -1.25716,1.76796 -4.46989,3.96666 -7.11759,4.87107 -1.17663,0.40192 -2.86,0.62244 -4.7158,0.61776 -2.58588,-0.007 -3.14673,-0.1367 -5.39342,-1.25191 -2.29867,-1.14101 -2.585,-1.20439 -3.43899,-0.76134 -0.51236,0.26582 -1.18094,0.52393 -1.48574,0.5736 -1.42195,0.2317 -1.72948,0.8625 -3.12622,6.41238 -1.78327,7.0857 -3.22292,10.84003 -5.41162,14.1124 -4.80325,7.18145 -11.54997,11.378983 -21.58089,13.426734 -3.88144,0.792373 -13.41253,0.536448 -18.11687,-0.486467 -8.98914,-1.954607 -15.10997,-6.582517 -20.75747,-15.694547 -0.32187,-0.51933 -0.78549,-0.49572 -5.29167,0.26949 -8.93372,1.51707 -18.55227,1.95137 -27.55363,1.24412 -4.57333,-0.35934 -12.14913,-1.28181 -13.25874,-1.61445 -0.43033,-0.12901 -0.95779,0.38744 -1.89993,1.86024 -5.5208,8.6304 -13.93097,13.641182 -25.02943,14.912551 -4.09304,0.468874 -7.35863,0.41647 -11.18685,-0.179519 z m 13.38955,-9.657442 c 5.79858,-1.19661 11.34542,-4.46957 13.85709,-8.17649 1.09976,-1.6231 1.23473,-2.07471 1.23473,-4.13145 v -2.30916 l -3.175,-0.78539 c -1.74625,-0.43197 -4.17968,-1.26312 -5.40762,-1.847 -2.70838,-1.28783 -3.70005,-1.21577 -5.84968,0.42508 -2.67961,2.04539 -5.19949,2.04427 -7.88427,-0.004 l -1.15303,-0.87945 -0.9128,0.718 c -2.04989,1.61245 -5.51921,1.10501 -7.35411,-1.07565 -0.56746,-0.67438 -1.04911,-0.95597 -1.33295,-0.77928 -0.24444,0.15216 -0.77812,0.23358 -1.18596,0.18094 -0.40784,-0.0526 -1.59847,0.22999 -2.64584,0.62807 -3.92521,1.49188 -5.94165,0.78138 -8.32227,-2.93238 -0.49841,-0.77752 -1.00645,-1.231 -1.18221,-1.05525 -0.35107,0.35107 0.12486,4.2295 0.88766,7.2336 2.08792,8.22287 8.50763,13.59993 18.1778,15.22549 2.55097,0.42881 9.20518,0.19187 12.24846,-0.43616 z m 108.95904,-0.16829 c 5.33789,-1.12718 9.53501,-3.26703 12.82918,-6.5408 2.76706,-2.74993 4.37016,-6.07579 5.49353,-11.39713 1.06618,-5.05044 1.09804,-5.71642 0.25797,-5.39206 -0.83434,0.32216 -5.79265,1.50321 -8.26976,1.96982 -1.84355,0.34727 -2.0403,0.4762 -2.40279,1.57458 -0.51574,1.5627 -2.43024,3.21531 -4.31587,3.72548 -3.26641,0.88375 -8.7913,-0.39173 -11.1027,-2.56318 l -0.78141,-0.73409 -1.51269,1.65947 c -1.12486,1.23401 -1.89975,1.74507 -3.02239,1.99331 -1.83341,0.40542 -2.89542,0.16525 -5.15154,-1.16501 l -1.72693,-1.01824 -1.27397,1.02078 c -1.77516,1.42237 -2.33321,1.67543 -5.24272,2.37746 l -2.55764,0.61713 0.008,1.80438 c 0.0106,2.4585 1.01075,4.4808 3.34163,6.75647 2.95219,2.88226 7.84144,4.93858 14.11312,5.93569 1.87465,0.29804 8.74446,-0.0808 11.31723,-0.62406 z m -61.80951,-14.74634 c -0.1447,-0.23413 -0.46856,-0.6707 -0.71968,-0.97014 -0.25112,-0.29945 -0.66526,-0.83506 -0.92031,-1.19024 -0.4441,-0.61846 -0.5362,-0.60726 -2.17591,0.26458 -2.04601,1.08788 -3.70708,1.14254 -5.80431,0.191 -1.94846,-0.88403 -2.68437,-1.71143 -4.0075,-4.50575 -1.14458,-2.41724 -1.8647,-6.98865 -1.58038,-10.03251 0.10078,-1.07886 0.0179,-1.67807 -0.23266,-1.68237 -4.03896,-0.0693 -12.24381,-0.43393 -16.71971,-0.74313 -3.16096,-0.21836 -5.83952,-0.30469 -5.95236,-0.19185 -0.11284,0.11284 -0.34401,1.68056 -0.51372,3.48382 -0.1697,1.80327 -0.73029,4.60593 -1.24575,6.22813 -1.05127,3.30842 -0.93959,4.26293 0.63599,5.43584 2.16577,1.61227 10.59167,2.69201 30.46192,3.90358 5.08844,0.31026 9.03112,0.22445 8.77438,-0.19096 z m 25.79784,-0.6416 c 5.29609,-0.45724 9.64971,-1.0317 11.01836,-1.4539 1.24541,-0.38417 2.56358,-1.94769 2.56358,-3.04073 0,-0.37977 -0.48392,-1.75775 -1.07537,-3.06218 -1.00771,-2.22246 -3.15491,-9.85335 -3.15701,-11.21965 -10e-4,-0.76546 0.27321,-0.76477 -8.41672,-0.0212 l -7.18105,0.61444 0.22409,1.59957 c 0.12325,0.87976 0.3128,3.02832 0.42122,4.77457 0.2194,3.53379 -0.47722,6.55011 -2.04009,8.8335 -1.10607,1.616 -3.83185,3.04313 -6.44989,3.37696 -2.89872,0.36962 9.13112,0.027 14.09288,-0.40136 z m -20.50017,-5.47044 c 0.64311,-0.64311 0.83667,-1.75264 1.04423,-5.98589 0.17799,-3.63004 0.40481,-4.40972 1.28283,-4.40972 0.67891,0 0.76483,0.18501 2.50167,5.38627 1.25523,3.75901 1.66278,4.32232 2.90215,4.01126 1.91111,-0.47966 2.21365,-3.48578 1.13159,-11.24384 -0.29323,-2.10231 -0.53314,-4.0231 -0.53314,-4.26842 0,-0.32759 1.69161,-0.5573 6.37019,-0.86503 3.5036,-0.23044 9.01021,-0.75516 12.23692,-1.16604 5.4442,-0.69326 5.89749,-0.70499 6.29388,-0.1629 0.23493,0.32129 1.33733,3.07624 2.44978,6.12212 1.11245,3.04589 2.2158,5.85547 2.45189,6.24353 0.23609,0.38805 0.62267,1.29567 0.85907,2.01692 0.44515,1.35818 2.1683,3.09835 3.06803,3.09835 0.96865,0 2.19368,-1.1001 2.73693,-2.45782 0.29875,-0.74665 0.79761,-3.30718 1.10858,-5.69006 0.31097,-2.38288 0.64499,-4.4613 0.74227,-4.6187 0.27257,-0.44102 1.41623,-0.33888 1.83337,0.16374 0.20537,0.24746 1.02186,2.26775 1.81441,4.48953 0.79256,2.22178 1.84808,4.627 2.3456,5.34493 1.05931,1.52858 2.98137,2.56426 4.11695,2.21837 3.43292,-1.04565 3.92282,-5.05234 1.81568,-14.84978 -1.33496,-6.20706 -1.32008,-6.45411 0.38963,-6.46702 0.39331,-0.003 4.12394,-0.66032 8.29027,-1.46077 4.16634,-0.80046 7.85589,-1.47514 8.19901,-1.49931 0.46924,-0.0331 1.02044,0.87412 2.22399,3.66023 2.03162,4.70303 4.59181,9.30265 6.03601,10.84424 0.91315,0.97473 1.34112,1.17749 2.29255,1.08613 1.53701,-0.14757 2.23116,-1.60235 2.90508,-6.08844 0.54264,-3.61221 0.70466,-4.07804 1.41836,-4.07804 0.79104,0 1.17679,0.77389 2.27578,4.56559 0.58397,2.0148 1.3122,3.9137 1.61829,4.21979 0.49875,0.49875 0.65474,0.50138 1.50276,0.0254 1.24426,-0.69838 1.42768,-1.49801 1.46955,-6.40657 0.0369,-4.32834 0.37451,-5.93199 1.24875,-5.93199 0.68625,0 1.05671,0.73431 2.71327,5.37818 1.75263,4.91317 1.9175,5.20515 2.93912,5.20515 1.4299,0 2.30647,-1.5275 2.3048,-4.01632 -10e-4,-2.13172 -1.67752,-11.07269 -2.44874,-13.06265 -0.21904,-0.56517 -0.27235,-1.15349 -0.11846,-1.30737 0.23727,-0.23727 9.37706,-2.52166 12.09365,-3.02267 0.7555,-0.13934 1.04518,0.1072 2.02059,1.71969 2.58545,4.2741 3.564,9.22614 2.33494,11.81619 -0.4471,0.9422 -2.78377,3.05973 -4.6487,4.21273 -0.34063,0.2106 0.80573,1.60825 1.69722,2.06925 3.15869,1.63342 8.4326,-1.16028 10.88839,-5.7678 3.31247,-6.21484 3.31917,-12.26419 0.0292,-26.43076 -0.97861,-4.21392 -2.17644,-9.38729 -2.66185,-11.49637 -1.68443,-7.31886 -4.64292,-16.1981 -8.97756,-26.94419 -2.80126,-6.94468 -3.72235,-8.90861 -4.17817,-8.90861 -0.1686,0 -0.76069,0.59371 -1.31574,1.31936 -0.55506,0.72564 -2.56176,2.93649 -4.45933,4.913 l -3.45014,3.59365 0.71479,1.17241 c 1.45255,2.3825 0.71902,5.80988 -1.84353,8.61372 -1.72666,1.88924 -4.01609,3.23221 -7.47428,4.38438 l -1.74497,0.58137 -0.45887,2.7923 c -1.63222,9.93228 -7.4007,16.4694 -16.14786,18.29954 -3.06278,0.64082 -6.76506,0.23954 -9.55221,-1.03533 -1.0701,-0.48948 -2.04245,-0.88996 -2.16076,-0.88996 -0.11831,0 -0.99996,0.48293 -1.95923,1.07317 -2.66976,1.64272 -5.47047,2.2305 -9.47822,1.98916 -5.5344,-0.33326 -10.22703,-2.43976 -14.28775,-6.41372 -4.27068,-4.17942 -6.3782,-8.18697 -7.00344,-13.31736 -0.13597,-1.11566 -0.30531,-2.02847 -0.37633,-2.02847 -0.071,0 -1.21052,0.25151 -2.53225,0.55891 -7.52488,1.75007 -18.05844,2.7781 -26.27278,2.56409 -5.32306,-0.13868 -5.94008,-0.37178 -5.94008,-2.24405 0,-1.76467 1.25354,-2.16267 7.58472,-2.40812 7.33749,-0.28446 15.79961,-1.5101 22.40139,-3.24457 3.87239,-1.01738 5.29166,-1.54205 5.29166,-1.95617 0,-0.29273 0.91184,-1.76483 2.66274,-4.29881 0.50443,-0.73003 1.34198,-1.54612 1.86123,-1.81353 0.51925,-0.26741 3.72221,-1.23797 7.1177,-2.15678 3.39548,-0.91882 6.72923,-1.88358 7.40833,-2.14391 0.6791,-0.26033 4.4891,-1.44168 8.46667,-2.62522 11.33746,-3.3735 20.41374,-6.67753 26.24229,-9.55298 2.38258,-1.17543 2.43914,-1.23526 2.91131,-3.08029 0.94976,-3.71115 3.64905,-6.23683 7.0809,-6.62547 1.33665,-0.15137 2.11447,-0.001 3.72764,0.72059 1.12119,0.50153 2.2673,0.91187 2.5469,0.91187 1.1104,0 6.29516,-3.38555 9.61137,-6.27604 5.63814,-4.91433 6.59487,-10.37224 4.6818,-26.70868 -0.91398,-7.80488 -4.15002,-23.72637 -6.77583,-33.3375 -4.00904,-14.6741 -10.76595,-31.45215 -16.7271,-41.53501 -0.85211,-1.44128 -1.54929,-2.69346 -1.54929,-2.78263 0,-0.0892 -0.16535,-0.35387 -0.36745,-0.58822 -0.2021,-0.23434 -1.50546,-2.17233 -2.89637,-4.30663 -1.3909,-2.13431 -2.61923,-3.95993 -2.72962,-4.05695 -0.1104,-0.097 -0.81715,-1.04951 -1.57056,-2.11666 -4.11361,-5.82663 -15.22048,-17.32207 -22.05448,-22.82606 -9.7245,-7.83196 -21.63401,-14.41027 -35.48611,-19.60103 -26.10569,-9.78253 -51.05544,-8.5229 -78.67821,3.97219 -23.96636,10.84113 -41.44639,26.48756 -55.96734,50.09656 -11.34926,18.4523 -19.47971,42.36021 -23.33422,68.61527 -2.8759,19.58924 -1.97639,27.17722 3.97337,33.51787 2.60377,2.77484 7.72897,6.59865 12.67456,9.45623 12.70563,7.34139 23.92491,10.8144 46.44816,14.37841 4.85266,0.76786 9.06704,1.47297 9.36529,1.56689 0.29826,0.0939 0.56772,0.5084 0.59881,0.92106 0.0311,0.41266 0.38237,1.05387 0.78063,1.42491 0.39826,0.37104 0.72411,0.85364 0.72411,1.07245 0,0.2188 0.0929,0.30496 0.20638,0.19145 0.28826,-0.28826 2.29892,0.45092 2.10038,0.77216 -0.16989,0.27489 -2.21914,0.18961 -5.48176,-0.22811 -1.06715,-0.13664 -2.57527,-0.26609 -3.35139,-0.28769 -5.49506,-0.15289 -24.09953,-3.29395 -31.04444,-5.24134 -8.48147,-2.37825 -15.84361,-5.12409 -17.99166,-6.71031 -1.34483,-0.99307 -3.94102,-2.32704 -4.52894,-2.32704 -1.24039,0 -7.33128,9.97732 -12.59865,20.6375 -12.8129,25.93092 -18.22932,49.73488 -13.48571,59.26666 2.61181,5.24814 8.08007,7.24638 10.0021,3.65502 0.32722,-0.61141 0.16156,-0.98297 -1.11133,-2.49254 -1.54519,-1.8325 -2.40035,-3.67635 -2.42726,-5.2335 -0.0323,-1.86925 2.42283,-9.58479 3.20346,-10.06725 0.18524,-0.11448 1.67989,0.14665 3.32143,0.5803 3.36858,0.88988 3.32858,0.82268 2.47524,4.15844 -1.5888,6.21076 -2.12147,13.14836 -1.12616,14.66739 1.83808,2.80527 5.08684,0.18272 7.70443,-6.21939 0.94312,-2.30668 1.26017,-2.76437 1.8558,-2.67909 0.68158,0.0976 0.72087,0.36051 0.76727,5.13464 0.0518,5.3328 0.26136,6.08071 1.7035,6.08071 1.20067,0 1.7439,-0.90615 3.01844,-5.03498 1.80292,-5.84047 2.67164,-5.92282 3.67317,-0.34817 0.3402,1.89358 0.77645,3.96443 0.96944,4.60189 0.44603,1.47324 1.66391,2.30317 2.91794,1.98843 1.81506,-0.45555 5.31116,-6.24476 7.43984,-12.31967 0.54391,-1.55222 1.0218,-2.86947 1.06198,-2.92722 0.0402,-0.0577 1.63977,0.2883 3.55465,0.76898 1.91487,0.48069 6.73494,1.52704 10.71126,2.32524 3.97633,0.79819 7.37202,1.59359 7.54597,1.76754 0.18653,0.18652 -0.0879,2.38737 -0.66878,5.36448 -1.27833,6.55115 -1.39661,11.40609 -0.31349,12.86802 0.53947,0.72816 1.09713,1.02976 2.05349,1.1106 2.45767,0.20776 4.51039,-2.18374 5.99992,-6.99014 1.03561,-3.34169 1.67492,-4.58611 2.35608,-4.58611 0.79942,0 0.94872,0.89729 1.12769,6.77714 0.14483,4.75842 0.41197,5.57008 1.83332,5.57008 1.12212,0 1.47889,-0.56629 2.47124,-3.92241 1.43429,-4.85082 1.92569,-5.95537 2.64945,-5.95537 0.86546,0 1.05135,0.708 1.39101,5.29797 0.32202,4.35156 0.85844,5.63814 2.35073,5.63814 1.07858,0 2.74757,-1.65231 3.53323,-3.49791 0.53666,-1.26068 1.70181,-5.86588 2.79677,-11.05417 0.4395,-2.08246 0.7157,-2.73148 1.15896,-2.72334 0.32007,0.006 2.9632,0.23823 5.87361,0.51634 2.91042,0.27811 9.97479,0.68494 15.69861,0.90405 5.72382,0.21912 10.439,0.42892 10.47818,0.46623 0.0392,0.0373 0.17179,2.20536 0.2947,4.8179 0.27322,5.80745 0.83303,8.06458 2.30794,9.30564 2.0026,1.68507 3.45523,0.88929 4.20649,-2.30442 0.8224,-3.49609 1.75462,-5.60254 2.47943,-5.60254 0.71407,0 0.81428,0.26419 2.12234,5.59537 0.39803,1.62224 0.9722,3.3288 1.27594,3.79236 0.63279,0.96576 1.91896,1.10844 2.72509,0.30232 z m 20.78525,-20.51966 c -0.98562,-0.19145 -2.89427,-2.1307 -3.16714,-3.21792 -0.58076,-2.31392 1.75999,-5.42664 4.41856,-5.8758 3.43689,-0.58066 6.47948,3.02888 4.95471,5.87794 -0.78566,1.46802 -2.23054,2.76455 -3.46215,3.10667 -1.29902,0.36085 -1.42262,0.36577 -2.74398,0.10911 z m -107.70591,-12.47454 c 0,-0.20548 0.15875,-0.27549 0.35278,-0.15557 0.19403,0.11991 0.35278,0.28803 0.35278,0.3736 0,0.0856 -0.15875,0.15556 -0.35278,0.15556 -0.19403,0 -0.35278,-0.16811 -0.35278,-0.37359 z m 82.69414,-26.46789 c -2.54009,-0.15383 -6.62698,-0.69349 -9.08197,-1.19926 -9.46041,-1.94898 -23.29117,-6.37975 -29.51495,-9.45529 -2.18197,-1.07823 -2.29561,-1.19677 -2.34582,-2.44671 -0.0495,-1.23165 0.0229,-1.32777 1.16054,-1.54119 0.89603,-0.1681 1.74007,0.005 3.22776,0.66206 4.12453,1.82158 15.269,5.64808 23.18113,7.95933 7.23643,2.11387 17.58628,4.30692 23.46669,4.97241 2.65123,0.30004 4.01301,0.5204 4.57914,0.741 0.097,0.0378 -0.29986,0.18991 -0.88194,0.33803 -1.35078,0.34371 -7.84961,0.32939 -13.79058,-0.0304 z m -9.31637,-26.3107 c -16.81887,-1.67013 -40.94959,-8.05474 -58.99439,-15.60901 -3.0118,-1.26085 -8.99088,-4.10266 -11.03199,-5.24342 -10.30472,-5.75918 -15.90317,-9.76926 -21.74572,-15.57613 -5.71204,-5.67715 -8.44512,-10.21989 -9.44569,-15.70001 -1.87588,-10.2741 2.33283,-34.55366 8.68762,-50.11784 6.12081,-14.99112 14.15893,-26.95039 26.20211,-38.98401 10.0677,-10.0597 20.11931,-17.26515 32.93322,-23.60803 15.24903,-7.54825 26.26665,-10.41507 39.92123,-10.38762 8.83983,0.0178 14.89929,0.98172 23.45972,3.732 22.03333,7.07881 43.61322,22.73039 59.48296,43.1421 2.71561,3.49283 8.80404,12.59183 9.91431,14.81667 0.3873,0.77611 1.43175,2.76048 2.321,4.40972 7.83913,14.53872 13.74274,38.09605 13.21705,52.74027 -0.14745,4.10751 -0.28301,4.8894 -1.29898,7.49227 -1.64848,4.22336 -3.47928,6.73518 -8.8375,12.1249 -12.64128,12.71558 -29.71983,21.98816 -53.45578,29.02312 -11.02581,3.26788 -26.33361,6.52222 -35.10139,7.46234 -4.26345,0.45714 -12.9475,0.60841 -16.22778,0.28268 z m 15.02425,-6.22234 0.85075,-0.98981 v -19.58663 -19.58663 l -1.03119,-1.0312 -1.0312,-1.0312 h -7.56035 c -7.53615,0 -7.56333,0.003 -8.4938,0.8651 l -0.93346,0.8651 v 19.79954 19.79953 l 1.0507,1.0507 1.0507,1.0507 7.62355,-0.10769 7.62355,-0.1077 z m -11.92956,-8.99884 c -1.90799,-0.21982 -3.09069,-3.20182 -1.75082,-4.41439 0.88965,-0.80512 7.27169,-1.18837 8.53391,-0.51247 1.72403,0.92319 2.19359,3.71643 0.75317,4.48025 -0.60763,0.32221 -5.89591,0.63561 -7.53626,0.44661 z m -1.3716,-12.04588 c -1.11439,-1.06498 -1.22881,-1.63385 -0.60427,-3.00455 0.51543,-1.13126 1.31623,-1.3345 5.44399,-1.38167 2.95771,-0.0338 3.36879,0.0416 4.07823,0.74833 0.91857,0.91501 1.07317,3.01266 0.27743,3.76428 -0.33949,0.32068 -1.80068,0.5442 -4.34468,0.6646 -3.81078,0.18036 -3.8391,0.17575 -4.8507,-0.79099 z m -10.06362,16.51472 c 0.12466,-1.19263 0.23013,-9.80481 0.23439,-19.13819 0.009,-18.9323 -0.043,-18.50152 2.50682,-20.92065 2.1825,-2.07067 2.98295,-2.22295 11.67341,-2.22077 4.49599,10e-4 8.4427,0.16359 9.22049,0.37956 2.01009,0.55814 4.29597,2.84072 5.1615,5.15406 0.70525,1.88495 0.7228,2.46666 0.59766,19.80841 -0.0709,9.82654 -0.0501,18.16797 0.0463,18.53651 0.16248,0.62131 0.43439,0.65409 3.73691,0.45045 1.95892,-0.12079 4.31573,-0.32375 5.23737,-0.45102 l 1.67569,-0.2314 0.003,-9.03607 c 0.003,-8.75294 0.0295,-9.09213 0.83643,-10.82497 0.9833,-2.11167 2.9244,-3.82517 5.14617,-4.54272 0.87927,-0.28398 4.07093,-0.91479 7.09257,-1.40179 10.33959,-1.66647 18.26948,-4.07396 26.2561,-7.97127 5.18538,-2.53036 5.64026,-2.80328 9.18725,-5.51221 9.45843,-7.22363 14.35132,-17.49715 14.86786,-31.21774 0.41172,-10.93661 -1.84451,-20.60156 -6.99854,-29.97941 -6.03042,-10.97245 -13.22654,-18.10023 -22.15423,-21.9438 -5.03935,-2.16956 -16.75581,-5.75322 -23.25764,-7.11372 -6.41124,-1.34153 -19.59681,-3.33565 -22.18011,-3.35441 -0.34663,-0.003 -0.44097,3.57902 -0.44097,16.74051 0,15.87316 -0.0366,16.84164 -0.7047,18.62719 -0.7449,1.99092 -2.25796,3.68773 -4.12848,4.62988 -0.93957,0.47325 -2.47468,0.56866 -9.14904,0.56866 -7.36464,0 -8.14212,-0.0591 -9.51419,-0.72331 -1.63881,-0.79333 -2.94304,-2.29038 -3.81639,-4.3806 -0.48575,-1.16257 -0.58565,-3.7545 -0.70373,-18.25859 -0.0757,-9.29702 -0.23971,-17.00577 -0.36449,-17.13055 -0.34071,-0.34071 -9.11244,0.8397 -16.26852,2.18924 -18.90612,3.56544 -32.39957,8.44776 -39.06465,14.13472 -9.70795,8.28327 -16.70519,22.1358 -18.25067,36.13108 -0.54189,4.90719 -0.27336,14.37314 0.50969,17.96684 2.28461,10.48492 8.15831,19.4247 16.16618,24.60497 10.17833,6.58433 23.25485,11.09991 36.1809,12.494 5.79952,0.62548 8.59144,2.27138 9.93237,5.85532 0.65637,1.75432 0.72294,2.72683 0.72294,10.56205 0,4.74641 0.0397,8.64179 0.0882,8.65642 0.75504,0.22765 6.5437,0.95088 7.88725,0.98542 l 1.80183,0.0463 z m -38.93168,-36.99987 c -1.26119,-0.17441 -3.5922,-0.72161 -5.18003,-1.216 -7.30918,-2.27578 -13.81995,-9.13111 -16.26905,-17.13003 -3.02931,-9.89395 -0.8256,-20.09371 5.88185,-27.22377 5.25908,-5.59044 10.29654,-7.90557 18.03667,-8.28935 3.42195,-0.16967 4.52629,-0.0835 7.05555,0.55026 10.11721,2.53526 17.75143,10.40902 20.14798,20.78017 0.63318,2.74009 0.72839,3.94846 0.55736,7.07372 -0.24573,4.49021 -0.88268,7.03245 -2.71207,10.82468 -4.94712,10.25513 -16.13689,16.20426 -27.51826,14.63032 z m 6.62498,-28.62667 c 2.18005,-0.54894 4.79461,-3.10822 5.39061,-5.27663 0.5677,-2.06543 -0.0235,-4.95543 -1.3582,-6.63981 -1.28972,-1.62758 -4.35091,-3.19372 -6.22274,-3.18362 -4.20095,0.0227 -7.7476,3.57195 -7.7476,7.75336 0,3.21266 1.61675,5.61719 4.72406,7.02591 1.83344,0.83121 2.92108,0.89812 5.21387,0.32079 z m 91.82653,28.27516 c -13.42059,-2.82302 -22.12476,-14.11757 -21.45848,-27.84458 0.48222,-9.93492 6.28334,-18.75635 15.2012,-23.11559 4.02487,-1.96744 6.417,-2.45553 12.05159,-2.45898 4.6347,-0.003 5.12925,0.0646 8.02965,1.09536 4.40494,1.56541 6.6804,3.03217 10.31302,6.64776 5.37576,5.35058 7.65363,10.82459 7.70696,18.52083 0.0305,4.39745 -0.64354,7.57927 -2.50341,11.81806 -3.25436,7.41691 -8.9512,12.51927 -16.3712,14.66282 -2.93257,0.84719 -10.32122,1.23135 -12.96933,0.67432 z m 8.83545,-28.40492 c 5.48659,-1.93579 6.95196,-8.51616 2.79463,-12.54958 -2.52326,-2.44805 -5.94956,-3.03833 -8.86999,-1.52811 -1.46497,0.75756 -3.80201,3.62732 -4.05584,4.98033 -0.70003,3.73149 0.81825,6.9488 4.09211,8.67139 2.09947,1.10466 3.77957,1.22317 6.03909,0.42597 z m -117.45055,-39.32876 c -3.12358,-1.90439 -2.75077,-6.83887 0.64562,-8.54527 3.0975,-1.55624 6.49194,0.33977 6.92237,3.86657 0.47409,3.88453 -4.16576,6.75298 -7.56799,4.6787 z m 115.32145,-0.93619 c -1.80951,-1.80951 -2.13975,-3.40942 -1.13301,-5.48907 0.89651,-1.85194 2.2998,-2.73835 4.33234,-2.7366 2.58926,0.002 4.67899,1.81195 4.88682,4.23201 0.16113,1.8763 -0.0424,2.52348 -1.18595,3.77134 -1.06694,1.16423 -1.39718,1.30697 -3.35056,1.44827 -2.13177,0.1542 -2.1894,0.13429 -3.54964,-1.22595 z m -23.15648,-7.55425 c -1.88992,-0.53396 -2.80278,-1.8627 -2.80278,-4.07966 0,-1.79997 0.0977,-2.02849 1.36288,-3.18795 1.23851,-1.135 1.50779,-1.23266 2.95072,-1.07002 2.0703,0.23336 3.33517,1.20661 3.92021,3.01642 0.42129,1.30325 0.4021,1.6043 -0.17639,2.76803 -1.0803,2.17319 -3.10962,3.15922 -5.25464,2.55318 z m -57.65972,103.56176 c 0,-6.81603 -0.27883,-7.87196 -2.35457,-8.91658 -0.74228,-0.37355 -2.90645,-0.87177 -4.80927,-1.10715 -10.82323,-1.33882 -27.79078,-6.87418 -33.84803,-11.04232 -0.77087,-0.53045 -1.00944,-0.56995 -1.15478,-0.19119 -0.10076,0.26256 -0.13979,3.40915 -0.0867,6.99242 l 0.0965,6.51504 5.30421,2.64583 c 5.90458,2.94531 16.3899,6.87383 22.67901,8.49712 4.26303,1.10034 11.02294,2.34895 13.02719,2.40622 l 1.14653,0.0328 z m -10.37558,0.16065 c -1.3191,-1.56766 -1.27318,-3.74641 0.11017,-5.22729 0.85311,-0.91326 1.28904,-1.09564 2.61877,-1.09564 3.01509,0 4.90238,2.75321 3.60589,5.26034 -0.33537,0.64855 -0.73904,1.01159 -0.96767,0.87029 -0.23131,-0.14295 -0.29347,-0.0826 -0.15148,0.14716 0.36263,0.58675 -0.94716,1.13054 -2.72305,1.13054 -1.33048,0 -1.72323,-0.17102 -2.49263,-1.0854 z m 74.67165,5.12916 c 4.72923,-0.70977 7.23415,-1.30258 12.78587,-3.02585 8.236,-2.55649 14.89087,-5.17493 20.96763,-8.24997 4.83575,-2.44705 4.40391,-1.52913 4.32317,-9.18943 -0.0384,-3.64614 -0.11899,-6.67845 -0.17901,-6.73848 -0.06,-0.06 -1.96022,0.82649 -4.22266,1.97002 -2.26244,1.14353 -5.76374,2.72435 -7.78066,3.51293 -4.48876,1.75501 -14.80062,4.59961 -20.5168,5.65969 -2.32834,0.43179 -5.10101,0.94945 -6.1615,1.15034 -1.41627,0.26829 -2.23578,0.67287 -3.08681,1.52391 l -1.15864,1.15863 v 6.38528 c 0,7.41047 -0.61952,6.69074 5.02941,5.84293 z m -0.11766,-5.07496 c -0.94128,-0.94128 -1.23185,-1.91673 -1.05893,-3.55491 0.37844,-3.58536 6.02499,-4.1122 7.44076,-0.69424 1.57293,3.7974 -3.47353,7.15744 -6.38183,4.24915 z m -111.45063,-18.79261 v -6.06547 l -2.92064,-2.85565 c -8.90638,-8.70818 -13.38406,-19.59957 -13.92594,-33.87312 l -0.21428,-5.64445 -0.61368,2.64584 c -1.39313,6.0064 -1.86097,11.74738 -1.88321,23.10912 l -0.0214,10.9383 1.5875,3.16355 c 1.84148,3.66969 4.92294,6.99859 9.18814,9.92598 2.62504,1.80167 7.86954,4.72138 8.48074,4.72138 0.18267,0 0.32278,-2.63277 0.32278,-6.06548 z m 160.8055,2.4002 c 5.33312,-3.41916 9.27777,-7.2627 11.26371,-10.975 l 1.32106,-2.46944 0.11244,-7.84916 c 0.12801,-8.9357 -0.49313,-16.9542 -1.84345,-23.79796 -1.37603,-6.97403 -1.50771,-6.91407 -1.71117,0.77906 -0.26684,10.08989 -1.44514,15.17199 -5.24038,22.60221 -2.02116,3.95697 -3.55327,6.08559 -7.40095,10.28245 l -2.81911,3.07494 0.0482,5.36252 c 0.0265,2.94939 0.1275,5.56914 0.2244,5.82167 0.20823,0.54264 2.33984,-0.4557 6.04524,-2.83129 z m -77.07614,-69.75146 c 1.81231,-0.82575 1.81925,-0.89923 1.81925,-19.27131 v -17.08688 l -0.98982,-0.85142 c -0.97679,-0.84023 -1.08499,-0.85142 -8.22921,-0.85142 h -7.23941 l -1.0312,1.03119 -1.0312,1.0312 v 16.80727 c 0,11.79032 0.11884,17.03729 0.39811,17.57783 1.05243,2.03702 0.91855,2.00528 8.45941,2.00528 4.36798,0 7.30636,-0.14675 7.84407,-0.39174 z m -67.72905,-29.4453 c 12.64898,-5.1419 31.4601,-9.48591 45.89012,-10.59732 2.7447,-0.2114 3.35364,-0.38431 4.70308,-1.33549 l 1.55015,-1.09264 h 8.22197 8.22196 l 1.53884,1.08942 c 1.46655,1.03824 1.79255,1.10942 6.93935,1.51516 16.53773,1.30373 37.66127,6.83334 51.65845,13.52289 2.08423,0.9961 3.88574,1.71485 4.00336,1.59723 0.45062,-0.45061 -3.19717,-4.70649 -7.48167,-8.72887 -10.96959,-10.2985 -20.51471,-16.92516 -33.00097,-22.91079 -6.8314,-3.27482 -14.3103,-5.63667 -21.99079,-6.94472 -5.27979,-0.89919 -14.23875,-0.82158 -20.10833,0.1742 -12.18328,2.0669 -21.69884,6.09097 -38.03141,16.08326 -2.66836,1.6325 -10.22323,7.29925 -13.47414,10.10666 -5.43599,4.69439 -12.49619,12.22067 -11.96354,12.75331 0.10362,0.10362 2.28218,-0.681 4.84125,-1.7436 2.55906,-1.06259 6.37611,-2.63251 8.48232,-3.4887 z m 136.39968,219.08791 c 0.6791,-0.13391 1.39347,-0.36221 1.5875,-0.50735 0.19403,-0.14513 1.05629,-0.37141 1.91613,-0.50284 1.80769,-0.27631 5.96895,-1.84364 6.6878,-2.51894 0.41538,-0.39022 0.33513,-0.71971 -0.52672,-2.16259 -0.55922,-0.93622 -1.22063,-2.09909 -1.46981,-2.58416 -0.24918,-0.48507 -0.7502,-1.26961 -1.11339,-1.74343 l -0.66034,-0.86148 -2.24045,0.6156 c -1.23224,0.33858 -3.27627,0.92077 -4.54228,1.29374 l -2.30184,0.67814 0.0571,4.33024 c 0.0314,2.38163 0.0751,4.38063 0.097,4.44221 0.0219,0.0616 0.31766,0.0338 0.65721,-0.0619 0.33954,-0.0956 1.17298,-0.28338 1.85208,-0.41728 z m 1.57299,-3.71324 c -0.12789,-0.20694 -0.15687,-0.45191 -0.0644,-0.54438 0.0925,-0.0925 0.26214,0.0768 0.37703,0.37624 0.23855,0.62164 0.0352,0.73098 -0.31263,0.16814 z m 1.60201,-0.4469 c 0,-0.52856 -0.39908,-0.74776 -1.14653,-0.62974 -0.14552,0.023 -0.26458,-0.11698 -0.26458,-0.311 0,-0.19403 0.3068,-0.35278 0.68178,-0.35278 0.66193,0 1.36206,1.24875 0.93793,1.67288 -0.11473,0.11473 -0.2086,-0.056 -0.2086,-0.37936 z m -155.70735,-0.59882 c 0.0854,-1.44924 0.22403,-2.83216 0.30806,-3.07317 0.084,-0.241 -0.2783,-0.65 -0.8052,-0.90887 -1.19357,-0.58643 -5.34006,-1.81595 -5.46297,-1.61989 -0.0499,0.0796 -0.78068,0.98762 -1.62395,2.01781 -1.45499,1.77753 -1.49974,1.89823 -0.87715,2.36586 1.03566,0.77789 7.67911,4.05264 8.00878,3.94777 0.16343,-0.052 0.36702,-1.28027 0.45243,-2.72951 z m -83.48103,-44.08366 c 0.95943,-0.51346 1.28098,-1.84305 2.47483,-10.23326 0.59359,-4.1716 1.4929,-10.23822 1.99849,-13.48139 0.78486,-5.03463 0.8534,-6.05563 0.46886,-6.984 -0.55128,-1.3309 -1.98468,-2.14297 -3.06447,-1.73611 -1.25416,0.47256 -1.78516,1.70594 -2.34404,5.44456 -0.29004,1.94028 -1.26099,8.26583 -2.15767,14.05679 -0.89667,5.79096 -1.5263,10.87095 -1.39917,11.28889 0.5489,1.80454 2.34917,2.54042 4.02317,1.64452 z m 226.68322,-2.32816 c 1.51418,-0.71853 1.59442,-0.66465 -2.31151,-1.55191 -2.33943,-0.53141 -5.09272,-1.64474 -6.50556,-2.63061 -2.82536,-1.97151 -5.17674,-4.07697 -4.9546,-4.43642 0.0966,-0.15632 0.0464,-0.33748 -0.11165,-0.40256 -0.55352,-0.22795 -2.65554,-3.59666 -3.35503,-5.3768 -0.52274,-1.33033 -0.71467,-2.69028 -0.73896,-5.23615 -0.0217,-2.27217 -0.16615,-3.43924 -0.4258,-3.43958 -0.21615,-2.8e-4 -0.83305,0.63449 -1.3709,1.4106 -0.53784,0.77611 -1.08025,1.41111 -1.20535,1.41111 -0.49842,0 -0.97936,2.12022 -1.053,4.64212 -0.19478,6.67097 4.21226,12.98453 10.90141,15.6174 3.2421,1.27611 8.43366,1.27275 11.13095,-0.007 z m 19.41932,-1.31084 c 3.22606,-1.62904 5.14991,-3.59124 6.71844,-6.85236 2.76035,-5.73899 1.63758,-11.63471 -3.07482,-16.14606 l -1.47399,-1.41111 0.22116,1.05833 c 1.03367,4.94661 0.98772,7.78147 -0.18468,11.3915 -1.50644,4.63866 -4.6423,8.03124 -9.73763,10.53483 -1.79476,0.88185 -3.2632,1.66219 -3.2632,1.73409 0,0.0719 0.75407,0.3729 1.6757,0.66889 2.72983,0.8767 6.17835,0.50681 9.11902,-0.97811 z m -13.17349,-4.63731 c 8.58735,-1.53102 13.5165,-8.7246 11.89526,-17.35992 -0.68308,-3.63834 -2.32878,-5.9614 -5.93596,-8.37912 -2.14167,-1.43546 -3.21247,-1.5564 -5.19323,-0.58652 -1.19253,0.58393 -1.28746,0.70957 -0.68035,0.90045 3.18667,1.00189 5.83783,3.28012 7.10311,6.10392 1.49312,3.33227 0.98266,6.21681 -1.56211,8.82737 -2.16139,2.21728 -3.88955,3.00645 -6.95618,3.17659 -5.87811,0.32613 -10.58064,-2.61459 -12.00254,-7.50574 -0.6076,-2.09008 -0.48284,-3.00538 0.7671,-5.62776 0.45532,-0.95527 0.74762,-1.81709 0.64954,-1.91516 -0.24204,-0.24205 -4.03255,0.94966 -5.02496,1.57981 -1.26352,0.80229 -2.59742,3.88557 -2.80424,6.48191 -0.50003,6.27718 4.02576,11.77012 11.52832,13.99188 3.11128,0.92136 4.50326,0.97426 8.21624,0.31229 z m -210.08529,-5.63577 c 1.31402,-2.90318 2.09433,-5.04315 1.90718,-5.2303 -0.37679,-0.37679 -15.30366,-3.82569 -15.53901,-3.59034 -0.0893,0.0893 -0.2674,0.91421 -0.39567,1.83304 -0.12827,0.91882 -0.51596,3.30997 -0.86151,5.31365 -0.37802,2.19192 -0.50025,3.7711 -0.30685,3.9645 0.50628,0.50628 10.38865,2.77197 11.74857,2.69354 1.21676,-0.0702 1.23535,-0.097 3.44729,-4.98409 z m 211.34908,-6.34605 c 2.67869,-1.38521 3.33432,-5.12886 1.27471,-7.27863 -2.32592,-2.42774 -6.4786,-3.20216 -9.34084,-1.74196 -1.84316,0.94031 -2.59624,2.16116 -2.59624,4.20887 0,2.16204 0.99166,3.55541 3.40129,4.7791 1.56256,0.79352 2.18071,0.91496 3.98228,0.78234 1.17294,-0.0864 2.64839,-0.42372 3.2788,-0.74972 z m 19.18243,-12.37652 c 1.56716,-1.06491 2.54925,-1.10707 4.07788,-0.17507 0.63528,0.38733 1.2832,0.70424 1.43982,0.70424 0.29139,0 4.23556,-3.91742 5.86058,-5.82083 0.97553,-1.14265 5.68354,-8.09901 6.73755,-9.95512 0.3547,-0.62462 0.52107,-1.25951 0.36972,-1.41087 -0.27422,-0.27422 -1.04773,0.51374 -3.39189,3.45521 -2.58268,3.24078 -3.62244,4.20491 -4.90816,4.55112 -1.33199,0.35866 -2.91877,0.0956 -4.52672,-0.75056 -0.66506,-0.34996 -1.14515,-0.25865 -2.99862,0.57036 -1.21372,0.54287 -3.94935,1.74882 -6.07916,2.6799 -2.12981,0.93108 -3.92044,1.83705 -3.97918,2.01327 -0.0587,0.17622 1.12821,1.25882 2.63766,2.40577 1.50945,1.14695 2.79738,2.20442 2.86205,2.34995 0.18928,0.42587 0.52285,0.31739 1.89847,-0.61737 z m -219.23684,-3.43958 c 2.85799,-4.7546 6.77911,-10.61763 8.55197,-12.78725 1.16459,-1.42522 2.11744,-2.6945 2.11744,-2.82063 0,-0.31804 -0.71513,-0.99878 -1.78225,-1.69654 -0.89004,-0.58197 -0.91885,-0.56962 -2.52361,1.08183 -1.90141,1.9567 -4.5413,5.96626 -5.81078,8.8256 -1.23664,2.78538 -2.15504,8.54352 -1.36266,8.54352 0.0664,0 0.43085,-0.51594 0.80989,-1.14653 z m 230.71499,-12.3326 c 0.95218,-0.79024 0.13788,-0.57193 -2.32714,0.6239 -1.40298,0.68061 -2.46234,1.38073 -2.35413,1.55581 0.18213,0.2947 3.63953,-1.31514 4.68127,-2.17971 z"
       id="path196" /></g></svg>
