<?xml version="1.0" encoding="UTF-8" standalone="no"?>
<!-- Created with Inkscape (http://www.inkscape.org/) -->

<svg
   width="295.0433mm"
   height="259.56082mm"
   viewBox="0 0 295.04334 259.56084"
   version="1.1"
   id="svg1"
   xml:space="preserve"
   xmlns="http://www.w3.org/2000/svg"
   xmlns:svg="http://www.w3.org/2000/svg"><defs
     id="defs1"><clipPath
       clipPathUnits="userSpaceOnUse"
       id="clipPath3"><path
         id="path3"
         style="fill:#ff0000;fill-opacity:1;fill-rule:nonzero;stroke:none;stroke-width:0.264583"
         d="M 117.46378,-9.1863687 V 177.1666 H 291.49502 V -9.1863687 Z M 147.33431,111.9313 c 4.14894,-0.0917 4.55169,4.35712 -0.092,5.08445 -1.19542,0.18724 -2.39032,0.38079 -3.5698,0.65474 -1.90165,0.43105 -3.80094,0.86919 -5.68493,1.37304 -4.84343,1.29532 -6.43119,-3.45704 -1.60197,-4.80436 2.03917,-0.56891 4.10352,-1.04005 6.16758,-1.50792 1.28939,-0.29942 2.59504,-0.5123 3.90158,-0.71882 0.30951,-0.0489 0.60293,-0.075 0.87953,-0.0811 z" /></clipPath><clipPath
       clipPathUnits="userSpaceOnUse"
       id="clipPath29"><path
         id="path30"
         style="fill:#ff0000;fill-opacity:1;fill-rule:nonzero;stroke:none;stroke-width:0.264583"
         d="M -43.229648,-9.2280016 V 216.91788 H 174.31521 V -9.2280016 Z M 64.45887,27.798679 c 2.205167,0.07543 3.149314,2.777559 0.336931,5.092713 -1.01463,0.835234 -0.499494,0.392851 -1.540992,1.333252 -0.05085,0.0495 -0.09987,0.101018 -0.150379,0.150894 0.220084,0.811057 0.124675,1.87329 -0.520898,3.115572 -0.875451,1.684613 -1.748676,3.370175 -2.654102,5.038968 -0.9775,1.836439 -1.88347,3.711528 -2.891295,5.530414 -2.429936,4.385429 -6.499333,1.653471 -4.214214,-2.809132 0.315439,-0.616018 0.63763,-1.228696 0.952912,-1.844849 -0.0069,-0.02252 -0.01495,-0.04284 -0.0217,-0.06563 -0.595128,-2.008016 -0.06926,-3.784214 0.689364,-5.659086 1.273995,-2.682428 3.163792,-4.981609 5.254458,-7.063137 1.251259,-1.138375 0.627229,-0.597072 1.867588,-1.628325 0.963808,-0.80132 1.889408,-1.157192 2.675289,-1.190625 0.07368,-0.0031 0.145905,-0.0035 0.217041,-0.0011 z M 107.156,139.45233 v 5.3e-4 h 1.33171 c 3.18466,0 4.31777,2.03379 3.45198,3.52174 1.2611,1.23575 0.77004,3.28353 -1.76526,3.91088 -0.54914,0.61592 -1.49045,1.10474 -2.85099,1.26142 -0.13698,0.0157 -0.27436,0.0312 -0.41135,0.047 -2.65141,0.30532 -4.05473,-0.97849 -4.03644,-2.33215 -0.3479,-0.33509 -0.56463,-0.74464 -0.62167,-1.18649 -3.34332,-0.94574 -2.811804,-4.86069 1.59628,-4.86069 h 0.98857 c 0.11851,0 0.23333,0.004 0.34624,0.009 0.53882,-0.2172 1.16849,-0.37104 1.97093,-0.37104 z" /></clipPath><clipPath
       clipPathUnits="userSpaceOnUse"
       id="clipPath48"><path
         id="path49"
         style="fill:#ff0000;fill-opacity:1;fill-rule:nonzero;stroke:none;stroke-width:0.264583"
         d="M 41.090804,5.5343725 V 221.55581 H 225.28628 V 5.5343725 Z M 200.73584,27.81415 c 1.72945,0.01908 2.64943,1.415222 2.08618,2.936254 0.0339,0.915892 -0.44821,2.031525 -1.67277,3.09025 -1.14726,0.991904 -0.56367,0.491389 -1.75183,1.502235 -1.46438,1.223881 -2.91427,2.468533 -4.41523,3.645773 -1.77565,1.392637 -3.30034,1.324822 -4.09174,0.539502 -1.31401,0.83852 -2.64966,1.641588 -3.98426,2.445845 -4.29416,2.587749 -6.80634,-1.80888 -2.51251,-4.397148 1.38418,-0.834355 2.77707,-1.656016 4.13257,-2.53783 2.02228,-1.284452 4.05223,-2.553893 5.99602,-3.95583 1.19062,-0.885809 2.41863,-1.714333 3.69021,-2.478919 0.9399,-0.565155 1.79944,-0.798117 2.52336,-0.790132 z m -20.13521,16.378329 c 1.02365,0.01453 1.87727,0.799764 2.03296,2.110465 0.71756,0.616212 1.16959,1.820418 0.93741,3.568774 -0.19898,1.498301 -0.82482,2.881966 -1.4888,4.223515 -0.63096,1.325187 -1.47451,2.521106 -2.32492,3.70985 -0.38328,0.580088 -0.18725,0.28308 -0.58808,0.890902 -1.63866,2.484932 -3.79495,2.511833 -4.69894,1.247471 -2.33551,3.060126 -5.91882,0.907738 -3.88814,-3.193087 0.88107,-1.779241 1.75108,-3.563456 2.63189,-5.342829 0.83405,-1.68497 1.98081,-2.401348 2.97139,-2.401401 0.1436,-8e-6 0.2783,0.0337 0.41393,0.06305 0.3156,-0.730126 0.62695,-1.462167 0.92862,-2.198317 0.77233,-1.88468 2.00662,-2.693514 3.07268,-2.678388 z" /></clipPath><clipPath
       clipPathUnits="userSpaceOnUse"
       id="clipPath83"><path
         id="path84"
         style="fill:#ff0000;fill-opacity:1;fill-rule:nonzero;stroke:none;stroke-width:0.264583"
         d="M 132.47438,-7.0202515 V 208.9707 H 400.12987 V -7.0202515 Z M 255.34182,107.77274 c 0.0472,-0.001 0.0949,-5.3e-4 0.14262,0.002 1.04471,0.054 2.1902,0.94645 2.81327,2.8856 0.30713,0.9559 0.45596,1.9522 0.57981,2.94557 0.10458,0.89626 0.14611,1.79819 0.17311,2.69957 0.0488,0.45711 0.0906,0.91485 0.13385,1.37252 0.0315,0.33386 -0.006,0.60608 -0.0331,0.88729 0.91737,0.0871 1.97159,0.68687 2.89285,1.9823 0.56984,0.80129 1.07462,1.64469 1.57303,2.49133 0.43109,0.67097 0.92631,1.29541 1.37563,1.95389 0.093,0.15699 0.18605,0.31429 0.27905,0.47128 1.3533,2.28542 0.70235,4.10077 -0.55914,4.6452 -1.0202,0.91063 -2.90824,0.69124 -4.38526,-1.56166 -0.23927,-0.36498 -0.47787,-0.72951 -0.72864,-1.08675 -0.21649,-0.33577 -0.38754,-0.69537 -0.57412,-1.04646 0.60841,2.15867 -0.88886,3.60669 -2.70992,3.036 -0.61576,0.27533 -1.36103,0.46037 -2.34197,0.39946 -1.46689,-0.0911 -2.93256,-0.19318 -4.3987,-0.29559 -1.7965,-0.11093 -3.59744,-0.19829 -5.3976,-0.19327 -5.01363,0.0148 -5.01363,-5.04892 0,-5.06481 1.90344,-0.006 3.80708,0.0877 5.70662,0.20308 0.63529,0.0442 1.27091,0.0848 1.90635,0.12817 -2.17205,-2.83957 -4.35986,-5.66727 -6.60115,-8.45273 -2.16084,-2.68543 -1.06507,-5.11916 0.85783,-5.11337 0.62825,0.002 1.34535,0.27748 2.06551,0.87642 0.36368,-0.69499 0.98791,-1.10018 1.68982,-1.13222 0.5054,-0.0231 1.05025,0.14938 1.56682,0.54311 0.0929,-0.0187 0.17783,-0.0646 0.27389,-0.0698 0.59436,-0.0317 1.23871,0.20301 1.81539,0.73433 -0.66441,-2.60236 0.46874,-4.21014 1.88413,-4.24058 z m 0.76842,13.7263 c -0.0318,0.10382 -0.0684,0.20282 -0.10852,0.29765 0.1244,0.16259 0.24889,0.32511 0.37311,0.48783 -0.0977,-0.26391 -0.21978,-0.53471 -0.25425,-0.77928 -0.004,-0.001 -0.007,-0.005 -0.0104,-0.006 z m 30.3289,39.33455 h 0.77722 c 5.01355,0 5.01355,5.0648 0,5.0648 h -0.77722 c -5.01356,0 -5.01356,-5.0648 0,-5.0648 z" /></clipPath><clipPath
       clipPathUnits="userSpaceOnUse"
       id="clipPath102"><path
         id="path103"
         style="fill:#ff0000;fill-opacity:1;fill-rule:nonzero;stroke:none;stroke-width:0.264583"
         d="M 245.09482,-91.085287 V 149.53775 H 484.24663 V -91.085287 Z M 386.76007,31.187352 h 1.65003 c 5.01366,0 5.01366,5.064808 0,5.064808 h -1.65003 c -5.01363,0 -5.01363,-5.064808 0,-5.064808 z M 278.24163,82.628657 c 1.01789,-0.02799 2.2471,0.632241 3.22823,2.236039 0.35364,0.578075 0.76779,1.114584 1.156,1.669148 -0.17857,-0.354603 -0.18541,-0.571659 0.17415,-0.552421 0.23066,0.01233 0.61185,0.121491 1.19424,0.352951 1.53042,0.608219 2.70481,1.775786 3.91915,2.844787 1.81743,1.599938 0.34244,0.262279 2.18642,1.956988 3.60359,3.311803 0.41639,6.943077 -3.16724,3.953764 -0.79615,1.298192 -2.87067,1.492136 -4.73046,-0.775663 -1.83595,-2.238679 -3.67165,-4.498713 -5.15938,-6.989754 -1.6067,-2.690249 -0.49754,-4.649169 1.19889,-4.695839 z m 48.66887,29.818333 c 0.83168,-0.0227 1.84441,0.35214 2.89336,1.2945 1.31333,1.17988 2.46338,2.50869 3.55327,3.89278 0.66124,0.8467 0.33676,0.43396 0.97307,1.24024 1.19229,1.51076 1.33855,2.90191 0.89349,3.8225 -0.0163,1.85972 -2.19841,3.00623 -4.86947,1.01441 -1.74706,-1.30277 -3.55293,-2.52496 -5.46892,-3.56826 -3.57759,-1.94805 -3.2943,-5.2782 -0.6165,-5.34076 0.19127,-0.004 0.4163,0.0413 0.63148,0.0718 -0.16797,-1.35773 0.69344,-2.39125 2.01022,-2.42724 z" /></clipPath><clipPath
       clipPathUnits="userSpaceOnUse"
       id="clipPath113"><path
         id="path114"
         style="fill:#ff0000;fill-opacity:1;fill-rule:nonzero;stroke:none;stroke-width:0.264583"
         d="m 157.06646,-116.17763 v 259.5609 h 295.04349 v -259.5609 z M 393.26393,24.765705 c 0.58122,0.01077 1.2423,0.145151 1.96835,0.439251 0.12003,0.04866 0.24016,0.09764 0.36019,0.146243 4.64687,1.882275 2.73607,6.583688 -1.90686,4.691703 -0.14942,-0.06089 -0.29912,-0.121518 -0.44855,-0.182417 -3.9175,-1.596369 -3.11177,-5.15297 0.0269,-5.09478 z M 342.53524,35.83583 c 1.18144,-0.02069 2.40504,1.064402 2.64894,3.401861 0.1717,1.645558 0.30485,3.295441 0.42064,4.945949 0.0645,0.913149 0.11065,1.827168 0.15555,2.741435 0.24595,5.007597 -4.81334,5.255694 -5.05861,0.248047 -0.043,-0.878927 -0.0868,-1.757637 -0.14883,-2.635496 -0.10709,-1.52953 -0.23333,-3.057792 -0.3824,-4.583702 -0.25896,-2.650887 1.02575,-4.094644 2.36471,-4.118094 z m -33.1494,10.456727 c 3.77235,0.03375 4.17655,4.205814 -0.27905,5.095812 -2.7794,0.55518 -5.59728,1.027409 -8.44083,1.011309 -5.01353,-0.0284 -5.01357,-5.084189 0,-5.064292 2.50698,0.0099 4.99365,-0.416576 7.44296,-0.912606 0.46068,-0.09329 0.8867,-0.133723 1.27692,-0.130223 z" /></clipPath></defs><g
     id="layer1"
     transform="translate(-157.06646,116.17763)"><path
       style="fill:#000000"
       d="m 215.90562,142.7002 c -1.05087,-1.96356 0.0668,-5.63097 2.54103,-8.33822 0.97517,-1.06699 1.71239,-1.98966 1.63826,-2.05038 -0.0741,-0.0607 -1.72226,-0.93487 -3.66254,-1.94256 -4.8453,-2.51641 -9.24056,-5.73372 -13.3188,-9.74931 -5.37237,-5.28984 -8.53064,-9.75255 -11.89404,-16.80656 -2.55031,-5.348719 -3.83887,-9.087509 -8.33878,-24.195194 l -0.86689,-2.910416 -5.36852,-0.0061 c -10.88926,-0.01242 -13.79125,-1.565513 -16.17391,-8.655963 -3.22234,-9.589195 -4.35498,-23.13402 -2.50726,-29.983239 1.61376,-5.981941 6.10712,-12.198974 12.05732,-16.682586 5.81453,-4.381385 17.20389,-9.24251 28.24283,-12.0544047 3.04904,-0.7766673 4.02122,-1.2491178 3.6861,-1.7913406 -0.10267,-0.1661296 -0.1933,-3.8390794 -0.2014,-8.16211048 -0.0214,-11.43997722 0.93277,-16.75425022 3.48732,-19.42182122 1.47859,-1.544005 3.74601,-2.020179 9.61957,-2.020179 h 5.17464 l 0.42211,-4.674305 c 1.12635,-12.472811 4.42867,-20.972263 12.02296,-30.944475 3.23375,-4.246299 8.89077,-9.635097 14.27032,-13.593716 l 0.95881,-0.705556 -1.25007,-4.544639 c -2.10918,-7.667897 -2.36541,-11.438479 -1.05193,-15.479569 0.63701,-1.959854 3.42682,-5.192985 5.21182,-6.040025 1.54289,-0.73215 3.83113,-0.72842 5.38466,0.009 1.4169,0.67236 7.63863,7.852863 11.99888,13.84792 0.0559,0.07683 1.73207,-0.503132 3.72487,-1.288802 1.9928,-0.785669 4.12309,-1.532289 4.73398,-1.659155 l 1.1107,-0.230665 -0.008,-6.77081 c -0.0118,-9.451029 1.06247,-13.795959 4.03149,-16.305859 4.32442,-3.65571 16.35187,-6.24333 26.21109,-5.63912 8.3709,0.513 16.75475,2.5878 19.99776,4.94896 3.62537,2.63956 4.53844,5.70655 4.77892,16.052211 l 0.17644,7.590885 4.33231,1.493139 c 2.38278,0.821227 4.5028,1.493139 4.71117,1.493139 0.20836,0 2.5851,-2.74649 5.28165,-6.103311 5.45127,-6.786082 6.5608,-7.872422 8.39116,-8.215792 3.53533,-0.66324 8.16141,2.99801 9.52878,7.541418 0.94979,3.155926 0.39481,8.894154 -1.601,16.55364 l -0.66289,2.54401 2.69535,2.017679 c 10.41989,7.800112 17.82015,17.71456 21.69978,29.072123 1.35929,3.97929 2.51704,10.058769 2.95253,15.504117 l 0.26803,3.351389 6.17361,0.18679 c 4.17169,0.126219 6.4596,0.340388 7.05556,0.660465 2.88262,1.548205 4.23333,4.428454 4.23333,9.027156 0,1.632828 0.16331,3.3334354 0.3629,3.7791284 0.1996,0.445692 0.47741,4.5312468 0.61736,9.07901112 l 0.25446,8.26866238 2.99861,0.753787 c 11.54003,2.9009161 22.32818,7.8343281 28.75843,13.1511971 5.01589,4.147405 9.35938,10.875146 10.6378,16.477131 1.39652,6.119529 0.5588,17.831689 -1.87833,26.26098 -1.87842,6.49687 -3.49749,8.745472 -7.39744,10.273683 -1.83892,0.720587 -2.77035,0.823281 -8.19815,0.903873 -3.36794,0.05001 -6.18711,0.154503 -6.26482,0.232212 -0.0777,0.07771 -0.85858,2.746081 -1.73527,5.929714 -5.4619,19.834423 -9.60429,28.096673 -18.67021,37.238833 -5.14433,5.18759 -8.60162,7.6663 -14.98361,10.74251 -2.14748,1.03512 -3.90451,1.98428 -3.90451,2.10924 0,0.12496 0.49698,0.84435 1.10439,1.59863 1.59979,1.98662 2.40681,3.95519 2.41564,5.89254 0.013,2.8437 -0.25355,3.06361 -3.713,3.06361 h -2.99036 l 0.21659,-1.35452 c 0.37226,-2.32798 -0.47933,-3.51417 -6.83681,-9.52306 l -0.87118,-0.82342 0.23822,-6.7613 c 0.27292,-7.74601 0.0629,-8.62434 -2.3583,-9.86193 -1.76887,-0.90416 -3.42353,-0.57617 -5.20281,1.03131 -2.28779,2.06688 -4.23384,8.56467 -4.26067,14.22624 -0.0186,3.91531 0.60608,5.46931 4.01142,9.97987 l 2.33045,3.08681 -3.59526,-0.005 c -1.97739,-0.003 -3.76511,-0.12204 -3.9727,-0.26459 -0.20759,-0.14255 -1.04604,-1.17199 -1.86321,-2.28765 l -1.48577,-2.02847 h -57.82647 -57.82647 l -0.96807,1.32292 c -2.39433,3.27198 -2.37813,3.26319 -6.013,3.26319 -1.80697,0 -3.28539,-0.0836 -3.28539,-0.1858 0,-0.10218 0.85714,-1.22495 1.90476,-2.49502 1.04762,-1.27008 2.43668,-3.28991 3.08681,-4.48851 1.14598,-2.1128 1.18102,-2.29765 1.14871,-6.05984 -0.052,-6.04979 -1.78444,-12.04079 -4.10859,-14.20773 -2.50784,-2.33819 -6.63188,-1.3036 -7.69959,1.93157 -0.2749,0.83298 -0.31837,3.15101 -0.14159,7.55012 l 0.25512,6.34809 -3.56293,3.42231 c -2.07932,1.99726 -3.78156,3.95451 -4.08799,4.70042 -0.28879,0.70296 -0.47432,1.33796 -0.41229,1.41111 0.062,0.0731 0.2175,0.56956 0.34551,1.10314 l 0.23273,0.97014 h -3.1693 c -2.77235,0 -3.21505,-0.0855 -3.5345,-0.68236 z M 359.7394,128.30131 c 1.29002,-12.82252 5.8012,-19.40528 13.55804,-19.78401 2.32248,-0.11339 2.98994,-0.005 4.65543,0.75773 2.37717,1.08831 4.95289,3.59443 5.97755,5.81604 0.68439,1.48386 0.7567,2.18339 0.69291,6.70269 l -0.0712,5.04591 0.77818,-0.23163 c 2.04824,-0.60968 7.79555,-3.58865 10.81711,-5.60678 3.80659,-2.54246 8.55315,-7.14156 11.64319,-11.28148 2.42699,-3.25161 5.44206,-8.8978 7.28037,-13.633634 1.73309,-4.464793 6.13891,-18.600217 6.13891,-19.695812 0,-0.281802 -31.88737,-0.38833 -116.24027,-0.38833 -73.54682,0 -116.24027,0.123649 -116.24027,0.336654 0,0.508604 3.31295,11.283648 4.88596,15.891123 4.18033,12.244479 9.29088,20.154829 17.33904,26.838149 2.93826,2.43998 10.71545,7.02852 11.91275,7.02852 0.22725,0 0.41164,-1.76603 0.48805,-4.67431 0.11199,-4.26243 0.20921,-4.85025 1.10345,-6.67121 1.85768,-3.78284 5.16953,-5.96465 9.4263,-6.20995 2.14251,-0.12346 3.04641,-0.001 4.75157,0.64187 2.75232,1.03824 5.50774,3.75232 6.87273,6.76962 1.48312,3.27841 2.84074,9.15376 3.00223,12.99263 0.0769,1.82873 0.15118,3.36465 0.16501,3.41315 0.0138,0.0485 24.91481,0.0882 55.33554,0.0882 H 359.3224 Z M 173.2071,73.151593 c 12.28889,-3.287936 25.32875,-8.334114 25.99015,-10.057701 0.18207,-0.474463 -0.50225,-2.966887 -0.81459,-2.966887 -0.0933,0 -0.75572,0.464438 -1.47195,1.032084 -4.15714,3.294748 -23.63439,10.96236 -27.84656,10.96236 -2.02519,0 -4.39374,-3.073842 -3.72047,-4.828335 0.28119,-0.732779 0.69862,-0.550507 1.56464,0.683196 1.56401,2.228061 2.23706,2.404779 5.53893,1.454332 4.67773,-1.346492 18.23008,-6.762626 21.04457,-8.410362 3.32463,-1.946402 3.95958,-3.857582 2.5236,-7.596052 -0.48443,-1.26118 -1.14608,-2.928055 -1.47033,-3.704166 -0.74295,-1.778257 -0.36519,-1.381642 1.84803,1.940277 1.90832,2.864295 3.50898,5.905064 4.50328,8.554861 0.34582,0.921632 0.77228,1.675694 0.94768,1.675694 0.79553,0 3.30627,-1.606631 6.6785,-4.273594 2.01655,-1.594809 3.72232,-2.942263 3.7906,-2.994342 0.31985,-0.243976 -1.19821,-3.856454 -2.77942,-6.614118 -1.81855,-3.171564 -1.9561,-3.597633 -1.42984,-4.428885 0.4839,-0.764342 3.54505,1.664499 5.56495,4.415464 0.92542,1.260362 1.74251,2.111795 1.81575,1.892074 0.20118,-0.603562 -0.93761,-4.442683 -2.14255,-7.222986 -1.47355,-3.400105 -4.89885,-8.359178 -7.70237,-11.151335 -2.77082,-2.759587 -8.17983,-5.950765 -12.62392,-7.447783 -6.67393,-2.248155 -14.19411,-2.654109 -18.02291,-0.972909 -3.59964,1.580578 -7.44876,5.239258 -10.80961,10.274803 -1.35708,2.033308 -2.83169,4.887502 -2.52511,4.887502 0.0562,0 1.44739,-0.171437 3.09154,-0.380971 2.85267,-0.363551 15.42393,-0.117962 15.01269,0.293284 -0.0979,0.09793 -1.57324,0.307283 -3.27847,0.465239 -1.70523,0.157956 -4.7673,0.464346 -6.80459,0.680866 -2.03729,0.21652 -4.52959,0.47425 -5.53845,0.572732 -1.05326,0.102818 -2.33004,0.512258 -2.99861,0.961602 -1.06627,0.71664 -1.1793,0.969695 -1.34208,3.004884 -0.11849,1.48138 -0.36825,2.36164 -0.74911,2.640134 -0.84396,0.617116 -0.76513,7.74993 0.0875,7.914084 0.41956,0.08078 0.6882,0.833142 1.00943,2.827027 0.59623,3.700867 2.994,12.072068 4.06081,14.177328 1.62388,3.20457 2.72821,3.418187 8.99832,1.740599 z m 270.51594,0.365423 c 0.42571,-0.396605 1.16961,-1.501772 1.65312,-2.455926 0.96343,-1.901243 3.05564,-9.185608 3.87246,-13.4826 0.32978,-1.734802 0.77767,-2.984585 1.23267,-3.439583 0.77516,-0.775162 0.92556,-1.601039 0.3557,-1.953232 -0.22654,-0.14001 -0.2741,-1.23963 -0.12891,-2.980588 0.21742,-2.607089 0.18868,-2.771865 -0.52297,-2.997733 -0.66488,-0.211023 -0.75303,-0.501677 -0.75303,-2.482682 0,-1.989457 -0.10275,-2.324495 -0.90678,-2.956946 -0.99416,-0.78201 -1.54985,-0.87501 -8.79461,-1.471878 -8.31651,-0.685164 -8.99584,-0.763966 -8.99584,-1.043521 0,-0.41991 10.16805,-0.81087 13.73881,-0.528254 1.75699,0.13906 3.19453,0.126156 3.19453,-0.02868 0,-0.439867 -2.79264,-5.052088 -4.36055,-7.201722 -2.1105,-2.893549 -5.19006,-5.723081 -7.69783,-7.072844 -2.09031,-1.125079 -2.47839,-1.20827 -6.23212,-1.335967 -5.14106,-0.174892 -8.9358,0.545979 -14.50903,2.756226 -2.9545,1.1717 -8.25294,4.415555 -9.95234,6.093095 -2.71313,2.678236 -7.01928,9.264997 -8.24733,12.615246 -1.21358,3.310781 -2.15505,7.621632 -1.45679,6.6704 0.0593,-0.08085 0.93491,-1.280944 1.94569,-2.666888 1.75321,-2.403922 3.82503,-4.359269 4.61893,-4.359269 0.20328,0 0.46255,0.370361 0.57616,0.823023 0.14402,0.573839 -0.188,1.496243 -1.09663,3.046581 -1.39512,2.380422 -2.97705,6.132398 -2.97705,7.060907 0,0.311396 0.75406,1.14311 1.6757,1.848256 0.92163,0.705145 1.99332,1.571203 2.38153,1.924574 1.6671,1.517476 5.56622,3.99388 6.28839,3.99388 0.0788,0 0.5026,-0.992187 0.9419,-2.204861 0.79703,-2.200196 5.973,-11.343877 6.25934,-11.057535 0.0831,0.08307 -0.41786,1.572963 -1.11319,3.310873 -2.28971,5.72296 -1.70257,7.294119 3.67466,9.833103 4.01938,1.897841 14.19429,5.90266 18.24943,7.182929 3.48189,1.099282 3.64169,1.118147 4.5317,0.53499 0.50739,-0.33246 1.18515,-1.066099 1.50612,-1.630311 0.78246,-1.375426 1.46586,-1.321178 1.46421,0.116228 -0.002,1.470113 -1.15279,3.359333 -2.31638,3.801731 -1.4233,0.541138 -4.11736,-0.132718 -11.44063,-2.861605 -9.46254,-3.526044 -15.07043,-6.09725 -17.19214,-7.882548 -0.59277,-0.498785 -1.1616,-0.906883 -1.26407,-0.906883 -0.10246,0 -0.3793,0.58482 -0.6152,1.299599 -0.40856,1.23793 -0.3809,1.337883 0.58292,2.106399 1.16138,0.926054 10.29029,5.02035 12.13849,5.444088 0.67909,0.155697 3.53659,1.083044 6.35,2.060771 5.8015,2.016165 9.90469,3.152371 11.48695,3.180829 0.62226,0.01119 1.40806,-0.286203 1.85401,-0.701675 z M 406.2168,68.735594 c -0.38805,-0.292715 -2.43235,-1.741508 -4.54289,-3.219539 -2.11053,-1.478031 -4.77621,-3.556571 -5.92374,-4.618978 l -2.08641,-1.931649 -88.6052,-0.104545 -88.6052,-0.104546 -1.85943,2.054736 c -1.02269,1.130106 -3.68873,3.428727 -5.92452,5.108047 -2.2358,1.67932 -4.06509,3.126839 -4.06509,3.216708 0,0.08987 45.52156,0.156329 101.15902,0.147687 90.25501,-0.01402 101.08296,-0.07308 100.45346,-0.547921 z M 250.62417,54.516698 c -0.82256,-0.78207 -23.17411,-6.915227 -24.01948,-6.590829 -0.38219,0.146661 -0.49354,0.46687 -0.34938,1.00473 0.11638,0.434204 0.21376,1.858252 0.21641,3.16455 l 0.005,2.375087 8.73125,0.100809 c 4.80218,0.05544 10.31081,0.137593 12.24138,0.182551 2.09868,0.04887 3.37538,-0.04639 3.175,-0.236898 z m 98.7199,-0.879427 c 2.68679,-2.055293 2.70448,-2.117929 3.06924,-10.864689 0.18049,-4.328052 0.42795,-9.456686 0.54989,-11.396963 l 0.22173,-3.527778 -1.46581,-1.570263 c -0.80619,-0.863645 -2.9118,-3.721145 -4.67912,-6.35 -3.78511,-5.630283 -5.89281,-8.560762 -6.4152,-8.919472 -0.20759,-0.142549 -16.20548,-0.261612 -35.55086,-0.264583 l -35.17342,-0.0054 -1.23953,1.623363 c -0.68174,0.89285 -2.66475,3.869412 -4.40668,6.614583 -1.74193,2.74517 -3.97615,5.897202 -4.96493,7.004514 l -1.79778,2.013295 0.38135,8.570038 c 0.20974,4.71352 0.47038,9.899511 0.57919,11.524424 l 0.19784,2.954387 1.81675,1.808113 1.81675,1.808112 h 42.8625 42.86249 z m -0.34778,-5.063737 c 0.31917,-4.684646 1.30419,-14.648019 1.51715,-15.345832 0.10363,-0.339549 0.35299,-0.617361 0.55413,-0.617361 0.24051,0 0.28802,0.936065 0.13877,2.734028 -0.12483,1.503715 -0.36508,5.557921 -0.53391,9.009346 -0.2951,6.033225 -0.56082,7.306624 -1.52465,7.306624 -0.23567,0 -0.28848,-1.076091 -0.15149,-3.086805 z m -88.58165,2.138103 c -0.181,-0.351338 -0.42718,-3.496297 -0.54705,-6.988797 -0.11987,-3.4925 -0.32338,-7.504918 -0.45224,-8.916485 -0.20494,-2.244888 -0.16494,-2.53987 0.31922,-2.35408 0.40906,0.156969 0.60678,0.918888 0.75755,2.919264 0.11221,1.488771 0.39548,4.691232 0.62949,7.116579 0.55681,5.771176 0.56928,8.542421 0.0392,8.721446 -0.2294,0.07748 -0.56519,-0.146588 -0.7462,-0.497927 z m 45.53581,-0.436857 c -0.0573,-0.761256 0.72453,-1.573754 1.32259,-1.3744 0.22483,0.07494 0.0396,0.533091 -0.44208,1.093708 -0.73825,0.859151 -0.83462,0.889873 -0.88051,0.280692 z m 36.07083,-0.362106 c -0.1144,-0.185104 -0.10062,-0.764407 0.0306,-1.287339 0.16716,-0.666026 0.11877,-0.876711 -0.16156,-0.703457 -0.25751,0.159149 -0.32528,0.05213 -0.19009,-0.30016 0.27637,-0.720228 0.71999,-0.693615 1.16468,0.06987 0.19777,0.339548 0.3644,0.428292 0.3703,0.197209 0.006,-0.231084 -0.15061,-0.519866 -0.3478,-0.641738 -0.19719,-0.121872 -0.27462,-0.357351 -0.17207,-0.523287 0.10255,-0.165937 -0.0933,-0.374677 -0.43522,-0.463868 -0.34678,-0.09046 -0.14411,-0.180261 0.45833,-0.203088 2.03037,-0.07693 3.2956,2.043611 2.13308,3.575049 -0.49931,0.657755 -2.49576,0.854443 -2.85028,0.280807 z m 1.0483,-0.721779 c 0.11992,-0.194028 0.0593,-0.352778 -0.13475,-0.352778 -0.19402,0 -0.45089,0.15875 -0.5708,0.352778 -0.11992,0.194028 -0.0593,0.352778 0.13475,0.352778 0.19403,0 0.45089,-0.15875 0.5708,-0.352778 z M 303.69377,22.417448 c -0.62839,-0.508839 -0.82481,-1.021881 -0.82481,-2.154328 0,-1.132448 0.19642,-1.645489 0.82481,-2.154328 1.87493,-1.518227 4.27443,-0.308872 4.27443,2.154328 0,2.4632 -2.3995,3.672555 -4.27443,2.154328 z m 72.94548,32.065113 h 7.52894 v -3.379418 -3.379419 l -1.14653,0.236753 c -0.63059,0.130214 -2.1784,0.530253 -3.43958,0.888976 -1.26118,0.358723 -5.22993,1.471271 -8.81944,2.472328 -10.11696,2.821457 -11.28889,3.175125 -11.28889,3.406799 0,0.118879 2.16822,0.112156 4.81828,-0.01494 2.65005,-0.127094 8.2063,-0.231081 12.34722,-0.231081 z M 221.16602,20.086911 c 0.23654,-4.074484 0.49491,-7.473002 0.57418,-7.552262 0.0793,-0.07926 -0.0327,-0.357154 -0.24881,-0.617542 -0.56753,-0.683831 -8.04783,-0.6294 -11.50008,0.08368 -6.11308,1.262693 -9.96516,3.423313 -12.98564,7.283609 -1.05949,1.354082 -1.92635,2.571114 -1.92635,2.704514 0,0.1334 1.39516,0.833314 3.10035,1.555363 4.09529,1.734114 6.5502,3.391609 9.92077,6.698277 5.10055,5.003851 9.49903,12.438203 11.23136,18.983365 l 0.97113,3.669147 0.21651,-12.699999 c 0.11909,-6.985 0.41005,-16.033668 0.64658,-20.108152 z m 169.8938,30.074123 c 3.02241,-12.515987 11.82447,-23.485259 21.77156,-27.1321 1.11566,-0.409027 2.02848,-0.812226 2.02848,-0.895998 0,-0.815947 -3.11513,-4.787748 -4.86531,-6.203291 -1.64937,-1.334015 -5.65469,-3.196545 -8.18747,-3.807298 -1.16052,-0.279845 -4.13779,-0.474789 -7.40833,-0.485079 l -5.46806,-0.0172 0.0505,0.881945 c 0.0278,0.485069 0.22858,4.136318 0.44621,8.113888 0.21764,3.977569 0.467,8.105068 0.55414,9.172221 0.0871,1.067153 0.16416,6.66309 0.17115,12.435416 0.007,5.772326 0.075,10.495138 0.1511,10.495138 0.0761,0 0.41632,-1.150938 0.75602,-2.557639 z m 4.26265,-21.236537 c 0.14211,-0.370321 0.004,-0.547489 -0.42737,-0.547489 -0.46808,0 -0.53314,-0.10432 -0.24487,-0.392595 0.21593,-0.215927 0.56518,-0.285933 0.77611,-0.155569 0.47889,0.29597 0.49946,1.140421 0.0348,1.427611 -0.19998,0.123592 -0.25912,-0.01801 -0.13865,-0.331958 z M 362.11958,48.49279 c 1.74625,-0.536798 7.24166,-1.988386 12.21201,-3.225751 l 9.03701,-2.249754 0.22129,-2.822222 c 0.27216,-3.470953 0.2249,-17.771352 -0.0793,-23.988887 l -0.22436,-4.586111 -1.94028,0.103029 c -3.10966,0.165123 -9.74183,1.379235 -13.86454,2.538101 -4.66561,1.311468 -7.38836,2.659845 -9.2424,4.57707 l -1.41111,1.459202 V 35.07021 49.842953 l 1.05833,-0.187083 c 0.58208,-0.102896 2.48708,-0.626282 4.23333,-1.16308 z M 253.7689,36.049925 c -0.0264,-7.421562 -0.066,-14.0369 -0.0882,-14.70075 -0.0538,-1.610749 -2.52385,-3.991793 -5.57741,-5.37634 -4.17389,-1.892536 -16.53279,-4.478376 -19.69023,-4.119768 l -1.05459,0.119776 -0.22436,4.58611 c -0.2488,5.085442 -0.38422,26.63472 -0.16739,26.63472 1.57282,0 23.61623,5.644389 24.15758,6.185738 0.0903,0.09034 0.73312,0.164262 1.42838,0.164263 l 1.26412,10e-7 z m -16.58106,5.557278 c -0.33987,-0.885692 0.35888,-1.377622 1.2667,-0.891771 0.92315,0.494055 0.77858,1.201116 -0.27735,1.356456 -0.4632,0.06814 -0.85561,-0.116166 -0.98935,-0.464685 z M 193.58001,18.872788 c 0.63059,-1.148133 1.14653,-2.178125 1.14653,-2.288869 0,-0.466896 -3.28007,-0.14642 -5.51909,0.539237 -3.15482,0.966102 -5.7698,2.089109 -5.7698,2.477851 0,0.170134 0.59531,0.316745 1.32292,0.325802 0.7276,0.0091 2.35479,0.228259 3.61597,0.487116 3.92281,0.805155 3.91326,0.807983 5.20347,-1.541137 z m 227.45346,1.559665 c 1.16416,-0.281099 2.88395,-0.513569 3.82176,-0.5166 1.20333,-0.0039 1.66301,-0.135275 1.56209,-0.446483 -0.32268,-0.995065 -10.38546,-4.023627 -11.07567,-3.33341 -0.12093,0.120926 0.31651,1.25717 0.97208,2.524986 1.33238,2.576686 1.35302,2.584432 4.71974,1.771507 z M 268.55746,7.90463 c 1.10691,-0.6749191 1.99194,-0.6916248 36.58852,-0.6906433 39.34507,0.00112 36.14571,-0.1908262 38.16078,2.2894121 1.10688,1.3624082 6.50651,9.1418552 7.04961,10.1566382 0.38852,0.725951 0.47762,0.634567 1.40398,-1.439998 1.53502,-3.437597 5.32058,-6.580974 9.61839,-7.986702 0.63451,-0.207538 0.65757,-0.5150939 0.43229,-5.7662508 -0.30694,-7.1545944 -1.19457,-20.4845562 -1.64798,-24.7484652 -0.4413,-4.149936 -1.59879,-6.881038 -3.76102,-8.874112 -1.90231,-1.753486 -4.13526,-2.771931 -9.55399,-4.35755 -10.7715,-3.15194 -22.07253,-4.674804 -37.29234,-5.025308 -15.89137,-0.365971 -31.39804,1.119452 -43.05051,4.123914 -12.14975,3.132681 -15.09817,5.889507 -16.03185,14.990058 -0.36146,3.523164 -1.25805,17.1256092 -1.61863,24.55672 l -0.23296,4.8011656 2.95031,1.4316194 c 4.26,2.067139 6.49449,4.441383 7.85631,8.347695 0.18921,0.542747 1.04138,-0.536997 4.11667,-5.216059 2.53198,-3.852413 4.2718,-6.1405579 5.01242,-6.592134 z m -0.23142,-7.14311598 c -1.13377,-0.3572333 -1.46751,-0.6907185 -1.96465,-1.96312412 -0.84964,-2.1746181 -2.41825,-3.7936495 -4.1193,-4.2516925 -2.12992,-0.573528 -2.78083,-2.231387 -2.78083,-7.0826974 0,-3.255613 0.11225,-3.952666 0.91062,-5.654485 1.80829,-3.854587 6.36945,-7.142882 10.56746,-7.618449 5.16838,-0.585494 11.19759,2.928699 13.67337,7.969685 0.83367,1.697433 0.9541,2.365688 0.9541,5.294038 0,3.0308754 -0.10677,3.5767474 -1.11637,5.7078064 -1.49264,3.1506264 -3.56414,5.3226687 -6.41621,6.72763352 -2.00448,0.9874305 -2.74468,1.15726498 -5.33491,1.22406278 -1.65413,0.042657 -3.62211,-0.11609248 -4.37328,-0.35277768 z m 3.77482,-10.96570102 c 3.48283,-1.455219 4.79297,-6.284427 2.51513,-9.270828 -1.26177,-1.654269 -2.99476,-2.358141 -5.32929,-2.164543 -3.47297,0.288005 -5.63437,2.925212 -5.33694,6.511817 0.3452,4.162662 4.28155,6.5403564 8.1511,4.923554 z m 62.2707,10.92565072 c -3.74785,-1.3387661 -7.13086,-4.50431722 -8.44684,-7.90387632 -0.59109,-1.526966 -0.78148,-2.776102 -0.79053,-5.1864094 -0.0163,-4.33551 0.86102,-6.544845 3.77526,-9.50754 2.93417,-2.982961 5.16778,-3.846112 9.44238,-3.648897 2.5494,0.117621 3.42074,0.326201 5.36854,1.285098 2.86443,1.410152 5.34964,3.838469 6.55248,6.402454 1.7596,3.750802 1.00942,11.9368724 -1.14343,12.4772014 -1.19676,0.30037 -3.70717,2.6043424 -4.47271,4.1049055 -0.53778,1.05415072 -1.03226,1.45551202 -2.34373,1.90237302 -1.99379,0.67935298 -6.13952,0.71834458 -7.94142,0.0746908 z m 4.08972,-11.63833072 c 0.69489,-0.530015 1.57946,-1.583142 1.96573,-2.340283 2.70933,-5.310727 -3.66564,-10.76522 -8.6168,-7.372629 -3.76146,2.577391 -3.45035,8.287259 0.56302,10.333506 1.7347,0.8844504 4.482,0.6044004 6.08805,-0.620594 z m -44.37751,9.2978163 c -2.09147,-0.6267564 -3.27556,-2.3892326 -3.58726,-5.3395259 -0.32455,-3.0718444 1.05544,-4.7167674 2.63333,-3.1388804 0.53568,0.5356754 0.72725,1.1805104 0.72725,2.4479394 0,1.929101 0.51909,2.600834 2.00984,2.600834 1.26982,0 2.57627,-1.541126 2.57627,-3.039051 0,-1.616349 0.68964,-2.4276114 1.94063,-2.2828794 0.93619,0.108311 1.05558,0.283748 1.39372,2.0480534 0.30742,1.604031 0.57206,2.065319 1.56851,2.734027 1.39747,0.9378244 2.48919,1.0133993 3.92364,0.271616 1.26135,-0.65227 1.75683,-1.520245 1.75683,-3.077601 0,-1.37267 0.52507,-2.0340254 1.61486,-2.0340254 0.9934,0 1.4132,0.5631504 1.67145,2.2421744 0.32206,2.093835 1.10534,3.049492 2.49946,3.049492 1.56349,0 2.11383,-0.742499 2.32812,-3.140987 0.16588,-1.8566234 0.236,-1.9811164 1.17658,-2.0888174 1.25362,-0.143546 1.97265,0.7284564 1.98523,2.4075824 0.0346,4.623319 -3.24489,7.57526832 -6.8755,6.1887257 -0.82036,-0.3133011 -1.76454,-0.871269 -2.09818,-1.2399286 -0.59294,-0.6551924 -0.63827,-0.6473493 -2.0126,0.3482069 -2.53061,1.83317042 -5.71224,1.73167512 -8.07641,-0.2576409 l -1.06629,-0.8972257 -0.78165,0.7343159 c -0.83839,0.7876302 -3.10518,1.8457652 -3.84749,1.7960015 -0.24876,-0.016677 -0.90592,-0.1662598 -1.46034,-0.3324059 z m -49.10359,6.2717555 c 1.13068,-18.9889978 2.09512,-30.1097368 2.82371,-32.5597078 2.00289,-6.734972 8.48389,-10.321149 24.44203,-13.524672 12.19604,-2.448299 25.77329,-3.419153 39.71686,-2.839989 13.22636,0.549373 22.24538,1.714163 32.59076,4.209035 11.90418,2.870791 17.56238,7.081281 18.75682,13.957701 0.56065,3.22764 1.03582,9.106384 1.8065,22.3495913 0.3886,6.6776943 0.76574,12.200458 0.83809,12.2728081 0.12405,0.1240526 7.29069,-0.8849826 8.25594,-1.162404 0.26465,-0.076064 0.37981,-0.4589755 0.27992,-0.9307273 -0.0933,-0.440823 -0.34362,-5.1671212 -0.55616,-10.5028846 -0.39516,-9.9201005 -1.25531,-23.8912665 -1.6072,-26.1055535 -0.52583,-3.308761 -1.10448,-5.071661 -2.84737,-8.674773 -1.04085,-2.151751 -1.89244,-4.182241 -1.89244,-4.512201 0,-2.392001 -7.58488,-7.269042 -15.69861,-10.094135 -11.44717,-3.985749 -23.62199,-5.833628 -41.09861,-6.237892 -28.8505,-0.667363 -50.51134,3.401762 -63.77185,11.979943 -2.78995,1.804813 -3.60591,2.812403 -4.4901,5.544614 -0.34535,1.067153 -1.05997,2.813403 -1.58804,3.880555 -2.58645,5.226795 -3.05839,8.989223 -3.87191,30.8680534 -0.19479,5.23875 -0.44933,10.728521 -0.56564,12.1994916 l -0.21146,2.6744918 3.47103,0.5398218 c 5.55317,0.863641 4.94483,1.2520273 5.21773,-3.3311668 z m -21.44402,-5.55624958 c 0.62727,-9.96029822 0.59972,-14.69176022 -0.0871,-14.95531122 -0.30691,-0.117773 -2.19145,-0.214132 -4.18788,-0.214132 h -3.62987 l -0.21224,1.675694 c -0.32457,2.562505 -0.91584,11.8142377 -1.0202,15.9631935 l -0.0932,3.7041663 3.70416,0.2013761 c 2.03729,0.1107568 4.02167,0.1901318 4.40972,0.1763888 0.6638,-0.023508 0.72988,-0.4112187 1.11657,-6.55137548 z m 8.93112,-0.52916662 c 0.42579,-3.6865272 0.91932,-6.9409022 1.09672,-7.2319442 0.72187,-1.184265 1.05855,-2.3205544 1.26073,-4.2548944 0.17773,-1.700358 0.0888,-2.236237 -0.53993,-3.25354 -0.79232,-1.281989 -0.97675,-2.70574 -0.42346,-3.268926 0.18109,-0.184326 0.66745,-2.875139 1.0808,-5.979583 0.41335,-3.104444 0.90845,-6.353018 1.10023,-7.219053 0.3991,-1.802267 2.30913,-6.726242 2.80346,-7.227196 1.10191,-1.116673 -0.87482,-1.193974 -4.80806,-0.188021 -4.31148,1.102693 -6.49661,2.963707 -7.08216,6.031679 l -0.22793,1.194258 0.86731,-0.793749 c 1.87157,-1.712848 3.54885,-0.71277 3.99371,2.381249 0.28107,1.954838 -0.28121,5.616627 -1.12862,7.349982 -0.51582,1.055115 -0.8514,1.314032 -1.82354,1.406965 -0.65526,0.06264 -1.35334,-0.04806 -1.55128,-0.246004 -0.19794,-0.197942 -0.47354,-1.360443 -0.61243,-2.583335 l -0.25253,-2.223441 -0.0483,2.880772 -0.0483,2.880773 1.38335,1.09563 c 0.76084,0.602597 1.73439,1.820797 2.16345,2.707111 0.77857,1.608323 0.77938,1.631972 0.41071,12.0749844 -0.36639,10.3783101 -0.36344,10.4686462 0.36246,11.0949484 0.40253,0.3472939 0.8483,0.5060439 0.99062,0.3527778 0.14232,-0.1532662 0.60713,-3.2949155 1.03293,-6.981443 z m 162.95576,6.6711916 0.84791,-0.1854315 -0.21056,-6.065102 c -0.18744,-5.3989693 -0.82562,-13.4259957 -1.16236,-14.6199627 -0.14689,-0.520866 -6.71834,-0.624777 -7.51729,-0.118867 -0.41103,0.260274 -0.45121,1.950774 -0.24514,10.3133474 0.13556,5.50112512 0.31507,10.2401709 0.39891,10.5312126 0.1247,0.4328868 0.77907,0.5110691 3.59653,0.4297006 1.89425,-0.054706 3.82565,-0.1829102 4.292,-0.2848974 z M 380.46258,4.9619666 c 0.639,-0.4672488 0.64735,-0.8406926 0.23454,-10.4951382 -0.26146,-6.1149004 -0.30427,-10.4305324 -0.10999,-11.0895924 0.53437,-1.812824 1.33926,-3.102099 2.66624,-4.270814 0.97971,-0.862871 1.2672,-1.383651 1.26585,-2.293056 l -0.002,-1.176632 -0.80119,1.001195 c -0.61898,0.773499 -1.03979,0.974074 -1.85033,0.881944 -1.67243,-0.190096 -2.41206,-2.105366 -2.57627,-6.671279 -0.12625,-3.510427 -0.0851,-3.786768 0.69885,-4.698212 0.72649,-0.844596 0.95418,-0.922323 1.78099,-0.607972 0.5214,0.198237 1.20366,0.804307 1.51612,1.346822 l 0.56812,0.986392 -0.17902,-1.3577 c -0.29612,-2.245729 -1.34133,-3.837004 -3.29712,-5.01966 -1.638,-0.990493 -6.08563,-2.265695 -7.90226,-2.265695 -0.8782,0 -0.84956,0.128821 0.91447,4.113268 1.05862,2.391121 1.42575,3.914386 2.16814,8.995832 0.49154,3.364508 1.12181,6.797523 1.40058,7.628922 0.73014,2.177484 0.64798,3.720221 -0.24068,4.519105 -0.66892,0.601347 -0.72771,0.937612 -0.55886,3.196771 0.10378,1.388603 0.42363,2.8967284 0.71076,3.3513894 0.30746,0.486833 0.83971,3.437015 1.29475,7.1766544 0.42498,3.4924998 0.83343,6.548437 0.90767,6.7909717 0.17447,0.5699788 0.56825,0.5576544 1.3904,-0.043516 z M 210.7078,1.6540939 c 0.11032,-1.89177068 0.35796,-4.8683329 0.55031,-6.6145825 0.19234,-1.74625 0.45976,-4.881562 0.59427,-6.9673614 l 0.24455,-3.792361 -1.18867,0.0054 c -0.65377,0.003 -1.39756,0.137865 -1.65287,0.299764 -0.74061,0.469632 -1.11008,3.881913 -1.3516,12.4830282 l -0.22537,8.0256938 h 1.41439 1.4144 z m 191.46079,2.534673 c 0.66405,-1.7465809 0.17827,-18.7214939 -0.55831,-19.5093759 -0.0666,-0.07126 -0.86123,-0.212985 -1.76581,-0.314944 -1.48774,-0.16769 -1.62667,-0.121664 -1.45593,0.482343 0.10381,0.367247 0.28574,2.255221 0.40429,4.195499 0.11854,1.9402784 0.3686,5.2740274 0.55568,7.4083331 0.18709,2.1343054 0.40803,4.9124301 0.491,6.1736106 0.083,1.2611805 0.16273,2.3327429 0.17726,2.3812498 0.0145,0.048507 0.42722,0.088194 0.9171,0.088194 0.63148,0 0.99079,-0.2633385 1.23472,-0.9049096 z M 229.26393,-25.513891 c 1.04343,-2.519071 1.04959,-7.139652 0.01,-7.139652 -0.65426,0 -1.03302,1.819275 -1.03302,4.961855 0,3.23143 0.31204,3.895399 1.0235,2.177797 z m 153.10521,-2.112569 c -0.0415,-3.226092 -0.3353,-4.497916 -1.03908,-4.497916 -0.36282,0 -0.54498,0.496191 -0.62148,1.692897 -0.11656,1.823214 0.79096,5.539047 1.3528,5.539047 0.19557,0 0.32781,-1.174791 0.30776,-2.734028 z m -4.04783,-17.780198 c -2.07134,-4.091296 -7.86832,-11.853931 -11.32207,-15.161178 -2.54479,-2.436848 -6.18257,-5.246313 -6.52169,-5.036723 -0.16404,0.101379 -0.29825,0.475735 -0.29825,0.831901 0,1.364517 -1.50428,5.433249 -2.30469,6.233662 -0.65482,0.654814 -1.21722,0.838233 -2.57023,0.838233 -3.34509,0 -13.29312,-5.797254 -18.16723,-10.587024 l -2.80894,-2.760337 0.17823,-1.581263 c 0.12293,-1.090615 0.63077,-2.226393 1.63666,-3.660394 0.80214,-1.143523 1.45843,-2.179892 1.45843,-2.303043 0,-0.229518 -3.16652,-1.49306 -4.71681,-1.882159 -0.81398,-0.204295 -0.88941,-0.09566 -1.27891,1.841755 -1.56521,7.78548 -4.21865,11.895851 -9.50141,14.718386 l -2.25824,1.206558 2.43949,0.236062 c 11.21804,1.085533 24.07197,3.727067 30.82264,6.334178 6.78112,2.618874 13.26561,6.354006 15.62656,9.001065 1.41257,1.583746 1.6464,1.703792 4.07217,2.090581 1.41546,0.225695 3.39983,0.701687 4.40973,1.05776 1.00989,0.356074 1.88652,0.607297 1.94808,0.558274 0.0616,-0.04902 -0.31803,-0.938355 -0.84352,-1.976294 z m -144.84643,1.308026 c 0.79343,-0.279939 2.72077,-0.704646 4.28299,-0.943794 2.59387,-0.397077 2.92013,-0.539366 3.75924,-1.63949 2.23508,-2.930347 10.55861,-7.609231 17.70158,-9.95054 6.86656,-2.250711 20.38746,-4.967778 29.12745,-5.853252 l 2.42656,-0.245842 -2.36889,-1.250526 c -2.69106,-1.420594 -5.53143,-3.834183 -6.71084,-5.70249 -1.01171,-1.602657 -2.57238,-5.896715 -3.14518,-8.653695 -0.37429,-1.801579 -0.54727,-2.105377 -1.16203,-2.040827 -1.20424,0.126447 -4.69534,1.539263 -4.69534,1.900163 0,0.185795 0.62908,1.133648 1.39795,2.10634 2.52823,3.198457 2.27338,5.430952 -0.97104,8.506153 -4.70093,4.45575 -15.29647,10.518447 -18.38269,10.518447 -0.37802,0 -1.16453,-0.401561 -1.74781,-0.892358 -1.01083,-0.850554 -1.616,-2.225778 -2.51153,-5.707312 -0.45961,-1.786822 -0.73006,-1.741504 -3.78161,0.633662 -3.83774,2.987091 -10.04915,10.430967 -13.51294,16.194171 -2.32216,3.863723 -2.31458,3.941596 0.29413,3.02119 z m 28.56551,-22.170333 c 2.0006,-1.205335 4.45552,-2.920279 5.45537,-3.810986 l 1.81792,-1.619467 -2.081,-2.890259 c -1.14455,-1.589642 -3.36135,-4.454647 -4.92621,-6.366678 -1.56487,-1.91203 -4.16444,-5.091518 -5.77684,-7.065528 -1.94933,-2.386514 -3.13138,-3.551912 -3.52778,-3.478096 -0.32788,0.06106 -0.88472,0.666172 -1.23743,1.344699 -1.21343,2.334396 -0.64587,5.412656 3.86998,20.98924 0.67502,2.328333 1.31061,4.522627 1.41242,4.876208 0.23809,0.826823 0.52503,0.7131 4.99357,-1.979133 z m 42.04725,1.55039 c 0,-1.12778 -0.49812,-1.448854 -2.24779,-1.448854 -3.36527,0 -8.94855,-2.38345 -11.72102,-5.003586 -2.05757,-1.94453 -2.6127,-2.099628 -2.60942,-0.729052 0.004,1.570032 1.52542,3.39555 4.23101,5.075912 2.27394,1.412274 7.98964,3.044658 10.84792,3.098125 1.42485,0.02665 1.4993,-0.02264 1.4993,-0.992545 z m 7.11272,0.522521 c 6.63177,-1.275974 11.5845,-4.80442 11.5845,-8.253073 v -1.23847 l -2.21753,2.12938 c -3.32194,3.189899 -7.47721,5.03303 -12.77552,5.666775 -1.97379,0.23609 -2.1242,0.318665 -2.22829,1.223319 -0.10707,0.930534 -0.0471,0.970138 1.46827,0.970138 0.86894,0 2.7448,-0.224131 4.16857,-0.498069 z m 42.63419,-1.001236 c 0.21188,-0.824618 0.76082,-2.84868 1.21987,-4.497916 3.41279,-12.261021 4.45992,-19.238845 3.1646,-21.08817 -0.85191,-1.216274 -1.73011,-0.943601 -3.43983,1.068032 -2.37864,2.798667 -12.13396,15.071499 -13.19071,16.594776 l -0.92762,1.337138 1.20436,1.045954 c 2.58435,2.244434 10.26841,7.039491 11.28076,7.039491 0.16684,0 0.4767,-0.674687 0.68857,-1.499305 z m -49.62077,-4.902443 c 0.12465,-1.192629 0.22664,-2.852311 0.22664,-3.688181 0,-1.484836 -0.0304,-1.524439 -1.32292,-1.72312 -4.11591,-0.632686 -8.46277,-2.78551 -10.20094,-5.052116 -2.15104,-2.804995 -3.28523,-7.217579 -3.29014,-12.800293 -0.006,-6.608962 1.85427,-9.067867 8.13641,-10.755797 2.9148,-0.78318 10.9327,-0.8937 13.73315,-0.18931 4.86909,1.2247 8.01571,3.47545 8.79823,6.293285 0.55524,1.99942 0.45651,8.097461 -0.1703,10.518859 -0.82315,3.179869 -1.78748,4.899808 -4.01652,7.163726 -2.31687,2.353122 -5.44672,4.06928 -8.52631,4.675153 l -2.08233,0.409673 v 3.703835 3.703835 l 2.16481,-0.24492 c 2.7085,-0.306432 5.42244,-1.309328 8.56887,-3.166503 2.6186,-1.54563 6.01013,-4.699046 6.41047,-5.960413 0.13455,-0.423915 0.45168,-0.930114 0.70473,-1.124887 0.85468,-0.657826 2.2648,-5.753362 2.65768,-9.603659 0.21345,-2.091787 0.31377,-6.062217 0.22294,-8.823179 -0.15302,-4.651135 -0.23152,-5.120195 -1.06846,-6.384905 -2.19326,-3.31423 -8.37988,-5.67675 -16.83881,-6.43033 -8.23188,-0.73334 -18.31295,1.37337 -21.98036,4.5934 -2.14324,1.88179 -2.51097,3.80541 -2.22792,11.654264 0.36512,10.12444 1.12926,13.555488 3.59926,16.160799 0.4948,0.521907 1.12321,1.369551 1.39647,1.883653 1.27086,2.391002 6.21376,5.338966 11.09866,6.619282 3.88693,1.018753 3.74522,1.069406 4.00669,-1.432151 z m 6.45519,-7.872799 c 3.54653,-1.659636 5.72195,-3.891576 7.12398,-7.309068 1.39739,-3.406212 1.96525,-7.224276 1.50215,-10.099885 -0.82596,-5.128715 -3.68787,-7.267385 -11.03378,-8.245425 -5.68414,-0.7568 -12.57932,0.73125 -15.12711,3.26456 -1.70911,1.699395 -2.2889,3.855105 -2.22312,8.265757 0.13088,8.775911 4.42454,14.324454 11.86827,15.336925 3.12332,0.424824 5.00966,0.134839 7.88961,-1.212864 z m -6.21624,-2.994275 c -0.42125,-0.591591 -0.60705,-1.075621 -0.41288,-1.075621 0.19416,0 0.45379,0.3175 0.57696,0.705556 0.46401,1.461984 0.87141,0.866543 2.1246,-3.105247 0.80087,-2.538255 1.82086,-3.437378 5.59445,-4.931513 1.76938,-0.700577 3.32749,-1.436496 3.46246,-1.635375 0.13497,-0.198879 0.3559,-0.251102 0.49095,-0.116052 0.63497,0.634972 -4.14312,3.08541 -6.01621,3.08541 -1.09082,0 -1.51962,0.604161 -2.152,3.03204 -0.58338,2.239738 -1.85421,4.776044 -2.49778,4.985026 -0.22255,0.07227 -0.7493,-0.352632 -1.17055,-0.944224 z m -3.89287,-6.603147 c -0.29104,-0.09909 -1.00541,-0.384765 -1.5875,-0.634839 -0.58208,-0.250074 -1.29645,-0.540812 -1.58749,-0.646084 -0.30047,-0.108682 -0.11889,-0.20344 0.42015,-0.219255 0.52212,-0.01532 1.04743,0.130899 1.16734,0.324927 0.11992,0.194028 0.5861,0.352778 1.03596,0.352778 0.44986,0 1.01556,0.238125 1.2571,0.529167 0.44572,0.537062 0.24973,0.618539 -0.70556,0.293306 z m -6.70277,-3.291917 c 0,-0.194028 0.15875,-0.352778 0.35278,-0.352778 0.19402,0 0.35277,0.15875 0.35277,0.352778 0,0.194028 -0.15875,0.352777 -0.35277,0.352777 -0.19403,0 -0.35278,-0.158749 -0.35278,-0.352777 z m 1.59068,-1.061848 c 0.61406,-0.678526 3.57382,-1.772162 4.73515,-1.749647 0.77175,0.01496 -0.21712,0.565313 -2.91673,1.623279 -2.58463,1.012911 -2.62316,1.015588 -1.81842,0.126368 z m 17.28293,-0.338863 c -4.1666,-1.520296 -3.98761,-1.352152 -5.81291,-5.460613 -1.62829,-3.665025 -1.70191,-3.764685 -2.22715,-3.014805 -0.29875,0.42653 -1.06181,2.108775 -1.69567,3.738315 -0.63387,1.62955 -1.27645,2.962814 -1.42795,2.962814 -0.32537,0 1.72067,-5.816304 2.45096,-6.967359 1.17845,-1.85746 2.33544,-0.61808 3.91845,4.197505 0.62026,1.88686 0.95739,2.413947 1.7243,2.695872 0.52432,0.192744 1.68144,0.608967 2.57138,0.924942 1.58159,0.561544 3.31606,1.610406 2.61525,1.581489 -0.19402,-0.008 -1.14652,-0.304178 -2.11666,-0.65816 z"
       id="path104"
       clip-path="url(#clipPath113)" /></g></svg>
