<?xml version="1.0" encoding="UTF-8" standalone="no"?>
<!-- Created with Inkscape (http://www.inkscape.org/) -->

<svg
   width="232.97363mm"
   height="205.15028mm"
   viewBox="0 0 232.97363 205.15029"
   version="1.1"
   id="svg5"
   xml:space="preserve"
   xmlns="http://www.w3.org/2000/svg"
   xmlns:svg="http://www.w3.org/2000/svg"><defs
     id="defs2" /><g
     id="layer1"
     transform="translate(17.685255,-58.631547)"><path
       style="fill:#000000;stroke-width:0.264583"
       d="m 54.891796,263.41334 c -1.6772,-0.52078 -2.95772,-1.68207 -4.30898,-3.90779 -1.70912,-2.81514 -2.36879,-4.7321 -2.38496,-6.93044 -0.0238,-3.23078 0.83876,-4.51873 4.64342,-6.93367 1.2733,-0.80821 2.3151,-1.56848 2.3151,-1.68948 0,-0.121 -0.50601,-0.35452 -1.12448,-0.51893 -2.07262,-0.55099 -3.67783,-1.60612 -4.20337,-2.76293 -0.26475,-0.58277 -0.48398,-1.32747 -0.48717,-1.65489 -0.003,-0.32742 -0.0709,-0.59531 -0.15054,-0.59531 -0.0796,0 -1.71671,0.48425 -3.63802,1.0761 -5.84806,1.80149 -8.77433,2.41852 -11.56308,2.43816 -2.90336,0.0205 -4.16409,-0.45377 -5.49324,-2.06626 -1.06811,-1.2958 -1.38593,-2.53641 -1.38593,-5.40999 v -2.44538 l -0.70593,0.17718 c -0.38826,0.0974 -3.27553,1.16493 -6.41615,2.37219 -8.03164,3.08738 -10.2222302,3.71504 -12.9862502,3.72092 -2.69315,0.006 -4.50495,-0.70993 -6.25648001,-2.47132 -1.69853,-1.70808 -2.32668999,-3.22497 -2.32781999,-5.62128 -7.9e-4,-1.79044 0.10762,-2.23165 0.98506999,-4.00705 2.21742001,-4.48664 4.55314001,-5.95136 13.81693021,-8.66454 13.43406,-3.93456 17.46309,-5.14663 21.56355,-6.48707 4.40609,-1.44035 11.2004,-3.37463 13.03072,-3.70973 1.19793,-0.21932 1.25068,-0.61887 0.23218,-1.75876 l -0.76001,-0.8506 -2.34884,0.32774 c -11.63108,1.62293 -19.41099,2.10618 -26.93775,1.67327 -10.0766202,-0.57958 -16.1701002,-1.50743 -21.4485942,-3.26595 -2.804851,-0.93443 -7.2941008,-3.01514 -8.9222868,-4.13536 -1.719184,-1.18283 -3.737969,-3.32862 -4.570218,-4.85773 -1.522873,-2.79802 -0.620792,-5.96625 1.913635,-6.72094 0.03454,-0.0103 -0.186597,-0.72467 -0.491411,-1.5875 -0.641968,-1.81723 -0.584608,-4.22214 0.13384,-5.61147 1.085017,-2.09819 3.494663,-3.75063 6.6437508,-4.55603 4.534021,-1.15961 16.492024,-0.27173 23.0197742,1.70922 0.7276,0.2208 1.51442,0.40274 1.74848,0.40432 0.23405,0.002 0.84359,-0.62222 1.35452,-1.3862 1.31421,-1.96511 3.01035,-3.54804 4.67387,-4.36193 1.1456,-0.56049 1.88217,-0.71459 3.69906,-0.77389 l 2.26863,-0.074 1.11808,-2.19064 c 1.49675,-2.93256 1.48571,-3.11668 -0.18677,-3.11668 -0.73227,0 -1.73087,-0.1669 -2.21909,-0.3709 -0.86586,-0.36177 -0.91833,-0.34558 -2.13378,0.65882 -2.99793,2.47734 -7.42734,2.41021 -9.56319,-0.14495 -0.93697,-1.12092 -0.9404,-1.12232 -1.90757,-0.77686 -2.72541,0.97348 -5.7097402,0.0594 -6.8286402,-2.09155 -0.28861,-0.55483 -0.51541,-0.69983 -0.90245,-0.57699 -0.28433,0.0902 -1.19682,-0.0336 -2.02774,-0.27512 -1.24443,-0.36176 -1.79395,-0.73229 -3.11695001,-2.10166 -0.9103,-0.94222 -2.00319999,-2.44532 -2.52256999,-3.4694 -0.855291,-1.68644 -0.916391,-1.97533 -0.916391,-4.3328 0,-2.28303 0.06691,-2.62763 0.695947,-3.58421 1.76452399,-2.68333 3.28264399,-3.32285 8.564474,-3.60783 6.3300502,-0.34153 11.5788202,-1.23477 15.6104102,-2.65659 3.13946,-1.1072 5.42186,-2.12388 5.28071,-2.35227 -0.0791,-0.12798 -0.54202,-0.42165 -1.02871,-0.6526 -0.86474,-0.41035 -0.91683,-0.40027 -2.28665,0.44259 -2.71523,1.6707 -6.07635,1.1964 -7.42528,-1.0478 -0.3218,-0.53538 -0.60537,-1.00445 -0.63016,-1.04239 -0.0248,-0.0379 -0.55486,0.1109 -1.17794,0.33073 -3.14536,1.10975 -7.0280902,-0.26621 -7.4581902,-2.64301 -0.085,-0.46974 -0.36284,-0.54511 -2.47435,-0.67116 -1.30823,-0.0781 -2.61672,-0.2762 -2.90776,-0.44025 -0.78050001,-0.43992 -1.92038001,-1.70773 -2.18799001,-2.43355 -0.20346,-0.55179 -0.42375999,-0.64295 -1.68945999,-0.699 -2.450427,-0.10854 -4.197605,-1.36848 -4.839911,-3.49021 -0.09831,-0.32473 -0.857118,-1.27723 -1.68625,-2.11667 -2.0045988,-2.0295 -3.0049538,-4.11981 -3.1673008,-6.61828 -0.160923,-2.47655 0.276994,-4.00232 1.57048,-5.47179 1.8342498,-2.08382 4.6124178,-2.95311 7.9567318,-2.48966 0.98406,0.13637 3.84428,0.9002 6.35604,1.6974 4.7065,1.49379 9.5541502,2.63011 10.0123202,2.34695 0.15458,-0.0955 0.033,-0.52864 -0.29926,-1.06628 -0.46866,-0.75831 -0.6155,-1.39417 -0.76731,-3.32274 -0.007,-0.0929 -0.43256,-0.24764 -0.945,-0.34378 -1.2675,-0.23778 -2.7033402,-1.5552 -3.0342102,-2.78396 -0.24341,-0.90397 -0.36943,-1.0129 -1.31917,-1.14029 -1.65027,-0.22134 -2.80063,-1.09321 -3.60109,-2.72928 -0.60632,-1.23928 -0.68508,-1.65902 -0.54113,-2.88381 0.14723,-1.252702 0.0848,-1.556702 -0.49505,-2.411182 -2.31723001,-3.41462 -1.77802,-9.1348 1.14474,-12.14393 1.47514,-1.51873 2.77499,-2.059534 5.28066,-2.197014 3.7508002,-0.205801 7.9985802,1.256794 12.2180502,4.206904 0.91573,0.64025 2.0963,1.45155 2.62349,1.8029 0.52719,0.35135 2.0301,1.48787 3.33978,2.52559 3.52004,2.78908 6.91134,5.0359 9.19059,6.08898 2.36979,1.094902 2.72378,1.132942 3.14375,0.33776 0.7181,-1.35969 4.34137,-5.81527 6.63577,-8.1601 10.89452,-11.133972 25.77254,-18.310218 42.8101,-20.64897 7.90984,-1.085789 19.337664,-0.883809 26.590624,0.469969 5.13315,0.958111 12.46261,3.074529 16.26189,4.6957 1.23144,0.52546 2.41211,0.955381 2.62372,0.955381 0.21305,0 -0.10106,-0.448482 -0.70391,-1.005025 -0.59875,-0.552765 -1.21387,-1.33442 -1.36694,-1.737016 -0.4386,-1.153617 -0.32703,-2.739763 0.27584,-3.921487 0.42845,-0.839843 0.49331,-1.219692 0.28596,-1.674773 -0.95487,-2.095719 -0.40938,-5.385302 1.20594,-7.27244 1.02034,-1.19204 2.84962,-2.223079 4.35871,-2.456701 1.51411,-0.234402 4.08576,0.232611 5.73134,1.040812 1.93412,0.949915 5.45606,4.509127 6.61672,6.686749 0.62369,1.170175 1.12986,1.753438 1.83592,2.115536 0.53615,0.274963 1.24158,0.78589 1.56763,1.135396 0.79868,0.856126 1.92072,3.683069 1.92072,4.839184 0,0.758497 0.21961,1.147913 1.15932,2.055778 1.26602,1.223105 1.7511,2.674792 1.7511,5.240472 0,1.078434 0.17197,1.566109 0.95174,2.698957 0.93175,1.353648 0.94815,1.421568 0.78084,3.234768 -0.21154,2.29246 -0.21132,3.10562 10e-4,4.66903 0.17049,1.25384 -0.2301,2.49347 -1.37046,4.24086 -0.45098,0.69104 -0.44039,0.7615 0.44724,2.97471 0.60331,1.504292 1.04998,2.267532 1.32775,2.268762 1.03943,0.005 3.63999,-4.447292 5.83857,-9.995002 1.42514,-3.59608 2.09608,-4.78906 3.42902,-6.09707 1.79364,-1.760098 4.36528,-2.342478 6.95188,-1.574345 2.35144,0.698302 4.73346,4.105615 5.46318,7.814705 0.49493,2.51571 0.2254,7.00029 -0.52421,8.721972 -0.53892,1.23778 -0.57306,1.5445 -0.32723,2.94011 0.4135,2.34746 -0.34762,4.78056 -1.68624,5.39048 -0.62092,0.28291 -0.64363,0.37481 -0.48216,1.95085 0.14158,1.3819 0.0752,1.8487 -0.40368,2.83788 -0.55663,1.14987 -1.87761,2.27706 -3.13691,2.67675 -0.32552,0.10331 -0.59316,0.38818 -0.59476,0.63303 -0.002,0.24486 -0.0797,0.91028 -0.17362,1.47872 l -0.1707,1.03353 0.8156,-0.16313 c 1.46302,-0.2926 3.06131,-1.20524 5.48476,-3.13183 3.14074,-2.49683 4.76882,-3.24648 7.01221,-3.22878 3.52657,0.0278 5.79888,2.08663 6.60289,5.9825 0.85989,4.16661 -1.59926,9.74087 -5.47311,12.40615 -0.89959,0.61893 -1.13053,0.93722 -1.13053,1.55811 0,1.02211 -1.6031,2.814 -3.11983,3.48726 -0.6245,0.2772 -1.86627,0.58555 -2.75949,0.68521 -1.50444,0.16786 -1.63901,0.23733 -1.82747,0.94339 -0.58039,2.17435 -3.62906,3.59329 -6.6081,3.07561 -0.7853,-0.13646 -1.68669,-0.32318 -2.00308,-0.41493 -0.52084,-0.15103 -0.59097,-0.0455 -0.74137,1.11558 -0.25778,1.99016 -1.68179,6.36484 -2.78824,8.56577 -3.02417,6.01559 -9.70107,12.37743 -18.05074,17.19899 -1.126,0.65021 -2.04874,1.28526 -2.05052,1.41121 -0.002,0.12595 0.51065,1.01892 1.13874,1.98437 2.53132,3.89098 3.60794,7.35228 3.61592,11.62502 0.004,2.30878 -0.5453,5.68281 -1.09766,6.73843 -0.2591,0.49518 -0.0106,1.21903 0.27543,0.80227 0.32815,-0.47813 6.80912,-5.30836 8.02869,-5.98374 3.083,-1.70731 6.3435,-1.92423 9.04637,-0.60184 1.61632,0.79079 3.44119,2.67021 4.16114,4.28553 0.76541,1.7173 1.34011,4.28375 1.15152,5.14236 -0.23753,1.0815 0.18974,1.00663 1.76047,-0.30845 3.09401,-2.59046 10.38057,-7.86451 11.91581,-8.62474 2.97322,-1.47229 5.14689,-1.75919 7.43122,-0.98084 2.91197,0.9922 5.42753,4.66098 5.68754,8.29486 0.17987,2.51403 -0.59406,4.11594 -3.11716,6.45194 -1.90157,1.76057 -5.57018,4.65308 -6.60178,5.20518 -1.19955,0.64197 -0.0511,0.70932 3.56404,0.20898 2.07064,-0.28658 5.39604,-0.52751 7.54063,-0.54632 3.63276,-0.0319 3.91751,0.004 5.36307,0.67087 2.86307,1.32129 5.3949,4.72325 6.13002,8.23678 0.60399,2.88677 -0.0963,5.022 -2.25251,6.8676 -1.57406,1.34734 -3.27246,1.79349 -7.3885,1.9409 -1.96453,0.0704 -3.73238,0.17918 -3.92856,0.24184 -0.25358,0.081 -0.12553,0.3772 0.44304,1.02476 1.24518,1.41819 2.44228,4.20546 2.88927,6.72726 0.37311,2.105 0.36961,2.41143 -0.0439,3.83371 -0.64008,2.2018 -2.29431,3.8073 -4.78385,4.64294 -1.71567,0.57588 -2.41721,0.63367 -9.525,0.78462 l -7.67291,0.16295 -0.0548,1.85209 c -0.14246,4.81071 -1.98752,7.74517 -5.48453,8.72279 -0.73689,0.206 -2.35183,0.45041 -3.58876,0.54313 -2.5176,0.18871 -11.36121,-0.2287 -17.19791,-0.81173 -2.11005,-0.21077 -3.91042,-0.38349 -4.00081,-0.38381 -0.0904,-2.7e-4 -0.24331,0.56496 -0.33981,1.25618 -0.30501,2.18474 -2.13092,4.20536 -4.35951,4.8244 -1.3123,0.36452 -3.02499,0.33279 -6.91029,-0.12805 -5.64109,-0.66909 -12.94365,-0.43712 -20.6375,0.65556 -2.90277,0.41225 -6.8243,1.39874 -12.53962,3.15445 -15.363874,4.71969 -18.149184,4.95872 -21.130664,1.81343 -2.30324,-2.42979 -2.79163,-4.85041 -1.78,-8.82226 1.40136,-5.50196 2.23204,-6.18212 11.47191,-9.39314 2.01882,-0.70157 3.741784,-1.34679 3.828804,-1.4338 0.27642,-0.27643 -0.563364,-0.63376 -2.517984,-1.07143 l -1.89777,-0.42494 -1.95809,1.41107 c -6.11629,4.40761 -9.13639,6.68392 -13.2663,9.99907 -11.02206,8.84762 -15.416,11.8304 -19.54412,13.26734 -2.41572,0.84088 -4.13776,0.94388 -6.01825,0.35997 z m 5.89082,-4.1003 c 1.05291,-0.44646 2.3311,-1.08306 2.84043,-1.41466 0.50932,-0.3316 1.81901,-1.18267 2.91041,-1.89127 1.67265,-1.08597 4.22177,-2.91685 5.82084,-4.18077 0.83775,-0.66217 6.18449,-4.83936 7.00015,-5.46894 2.68582,-2.07309 5.15348,-3.89573 6.71088,-4.95671 3.61845,-2.46508 5.35971,-3.86825 5.28366,-4.25779 -0.0481,-0.24626 -1.43591,-0.86621 -3.69539,-1.65076 -1.99013,-0.69101 -4.6144,-1.68417 -5.83172,-2.20702 -1.21732,-0.52285 -2.42582,-0.95064 -2.68555,-0.95064 -0.25972,0 -1.16039,0.52953 -2.00149,1.17674 -1.52029,1.16984 -7.97818,5.48896 -18.41623,12.31701 -5.52554,3.61454 -6.59676,4.50757 -6.91159,5.76195 -0.5343,2.12882 1.97987,7.56746 3.87853,8.39003 1.23212,0.5338 2.72592,0.33827 5.09707,-0.66717 z m 34.85501,-1.84718 c 3.5297,-0.77976 4.926144,-1.16281 9.739384,-2.67157 1.35483,-0.42469 2.66452,-0.81165 2.91041,-0.85992 0.2459,-0.0483 0.80427,-0.2338 1.24083,-0.4123 0.43657,-0.1785 1.27,-0.42431 1.85209,-0.54624 0.58208,-0.12193 1.89177,-0.41437 2.91041,-0.64986 3.53967,-0.8183 6.89672,-1.41771 9.92188,-1.77158 3.25624,-0.3809 13.82189,-0.48705 16.66875,-0.16747 5.09088,0.57149 5.73156,0.56672 6.72947,-0.05 0.51938,-0.32099 1.0169,-0.87275 1.10559,-1.22613 0.18912,-0.75351 -0.30762,-3.59718 -0.93575,-5.35685 l -0.44012,-1.23298 -1.85912,-0.14584 c -1.93615,-0.15188 -3.50239,-0.80042 -5.89198,-2.4397 l -1.1596,-0.79551 -5.45498,0.0442 c -8.67751,0.0702 -12.74919,0.45444 -21.72685,2.0501 -7.10561,1.26293 -15.447314,3.48604 -19.589434,5.22071 -2.32066,0.97186 -3.72993,3.72199 -3.76446,7.34615 -0.0168,1.75692 0.58388,2.9728 1.90993,3.86643 1.13188,0.76277 1.53063,0.74899 5.83355,-0.20158 z m 81.594364,-12.36523 c 1.29714,-0.65411 1.79214,-1.9861 1.94487,-5.2335 0.19816,-4.21339 -0.42346,-5.10411 -3.95589,-5.66841 -1.89824,-0.30325 -15.78388,-0.85869 -16.12932,-0.6452 -0.12024,0.0743 -0.21861,0.44427 -0.21861,0.82213 0,1.50686 -1.5221,2.81936 -6.08541,5.24743 -2.38944,1.27138 -2.5117,1.37849 -2.47611,2.1693 0.0206,0.45754 0.25872,1.28489 0.52917,1.83856 l 0.49173,1.00667 4.7625,0.31746 c 2.61937,0.1746 5.23875,0.36216 5.82083,0.41679 0.58208,0.0546 4.05977,0.12014 7.72819,0.14556 5.88501,0.0408 6.7779,-0.008 7.58805,-0.41679 z m -115.857904,-4.7703 c 0.87312,-0.54983 3.01625,-1.93492 4.7625,-3.07797 9.01657,-5.90204 9.80118,-6.482 9.34511,-6.90765 -0.57048,-0.53243 -3.99295,-2.50814 -4.34477,-2.50814 -0.17861,0 -1.37675,0.40061 -2.66254,0.89025 -2.18505,0.83208 -4.24976,1.48039 -10.80447,3.39255 -2.16976,0.63296 -2.79266,0.93478 -3.46185,1.67742 -0.951,1.05539 -1.43294,2.46617 -1.43294,4.19467 0,1.0913 0.0923,1.2861 0.81869,1.72784 0.45028,0.27383 1.37301,0.64682 2.05052,0.82887 0.67751,0.18204 1.34494,0.4325 1.48319,0.55657 0.13824,0.12407 0.79309,0.22551 1.4552,0.22543 0.93608,-1.2e-4 1.55697,-0.22252 2.79136,-0.99984 z m 86.887254,-1.89925 c 2.76982,-1.09176 6.5683,-3.16513 6.99685,-3.81917 0.64423,-0.98323 0.54797,-1.72564 -0.49372,-3.80785 -1.46049,-2.91936 -3.22943,-4.37443 -8.40041,-6.90993 -7.30987,-3.58427 -15.85382,-6.51584 -23.47435,-8.05443 -10.21518,-2.06244 -14.68199,-2.51974 -16.32307,-1.67111 -1.09763,0.56761 -3.50513,3.30619 -4.46276,5.0765 -0.68986,1.2753 -0.73101,1.47553 -0.37618,1.83036 0.41133,0.41133 2.5423,0.97457 10.04951,2.65617 11.32161,2.53604 14.72351,3.59899 17.71813,5.5362 1.10792,0.71672 2.21201,1.69703 2.71503,2.41068 0.71602,1.01582 1.40432,1.49523 4.42866,3.08461 1.96949,1.03503 3.93555,2.13014 4.36903,2.43358 0.43348,0.30344 1.4877,0.92547 2.34271,1.3823 1.72058,0.91929 2.24298,0.90356 4.91057,-0.14791 z M 37.164716,238.16923 c 2.58752,-0.52529 10.14935,-2.6234 12.05276,-3.34417 0.67862,-0.25697 1.19074,-0.66746 1.39434,-1.11763 1.2045,-2.66317 2.15901,-3.30584 6.92581,-4.66309 6.39885,-1.82195 8.81017,-2.54277 10.96337,-3.27729 l 2.3644,-0.80656 0.32313,-1.27261 c 0.17772,-0.69994 0.2778,-1.34595 0.22241,-1.43558 -0.0554,-0.0896 -0.85913,-0.22385 -1.78608,-0.29826 -1.43186,-0.11493 -2.24234,-0.42172 -5.3886,-2.0397 l -3.70325,-1.90443 -1.69613,0.82769 c -0.93287,0.45522 -2.35097,1.06238 -3.15133,1.34924 -1.73162,0.62062 -10.21557,3.12767 -14.68438,4.3393 -7.69889,2.0874 -8.21116,2.33277 -9.2337,4.42277 -0.92741,1.89556 -1.56524,5.7854 -1.18422,7.22203 0.67178,2.53292 1.98454,2.93151 6.58147,1.99829 z m 78.453204,-0.91721 c 3.87242,-0.56849 11.33942,-1.21152 14.08481,-1.21293 0.72607,-2.7e-4 0.8599,-0.0972 0.8599,-0.6222 0,-0.76911 -1.25596,-2.54036 -2.42931,-3.42601 -1.95672,-1.47694 -5.64364,-2.6466 -14.76861,-4.68528 -7.70219,-1.7208 -12.92433,-3.09852 -19.166374,-5.05649 -12.18773,-3.823 -13.27191,-3.95039 -16.92251,-1.98835 -0.7129,0.38315 -1.51097,0.69664 -1.77349,0.69664 -1.92019,0 -3.48154,2.83399 -2.42278,4.39754 0.62019,0.91587 6.24448,3.72861 11.10242,5.55238 0.9891,0.37133 2.15555,0.84185 2.59211,1.04562 2.50146,1.16753 13.978164,4.49609 19.446874,5.64012 1.6363,0.3423 3.56983,0.51871 4.36988,0.39868 0.29338,-0.044 2.55557,-0.37689 5.02708,-0.73972 z M 9.0354358,234.59605 c 2.0686302,-0.44082 3.6493302,-0.94871 8.2855302,-2.66222 1.81901,-0.6723 5.06573,-1.84145 7.21495,-2.59812 3.49683,-1.23113 3.96371,-1.46795 4.44087,-2.25257 1.57301,-2.58661 2.75621,-3.1902 10.43688,-5.32419 2.18282,-0.60647 4.92125,-1.38429 6.08542,-1.72849 1.16417,-0.34419 3.10978,-0.87706 4.32359,-1.18414 2.46897,-0.62463 4.27537,-1.29 4.27537,-1.57479 0,-0.10386 -0.50602,-0.90941 -1.12448,-1.79012 -2.33599,-3.32651 -3.84188,-4.58028 -5.49011,-4.57096 -1.14416,0.006 -3.58972,0.68035 -8.06979,2.22363 -5.0251,1.73103 -13.22895,4.29628 -21.96041,6.86677 -9.2565602,2.72507 -10.3317702,3.08885 -11.7201502,3.96529 -1.27342,0.80387 -3.13593,3.74271 -3.66528,5.78341 -0.30559,1.17808 -0.29307,1.42791 0.10811,2.1571 0.73715,1.33986 1.45302,2.05469 2.57732,2.57359 1.28711,0.59404 1.95343,0.61206 4.28218,0.11581 z M 197.15233,234.16717 c 2.45781,-0.33723 3.43444,-0.84141 4.09457,-2.1138 0.41976,-0.80907 0.45041,-1.15141 0.21642,-2.4172 -0.36177,-1.95701 -1.43688,-4.65601 -2.1622,-5.42808 -1.2313,-1.31065 -3.17155,-1.52606 -16.2187,-1.80058 -3.78355,-0.0796 -11.28448,-0.32581 -16.66875,-0.54711 -11.15712,-0.45858 -16.40417,-0.42772 -16.40417,0.0965 0,0.18591 0.69132,0.72169 1.53625,1.19063 2.82222,1.56633 5.25515,3.9937 6.15041,6.13636 0.36284,0.8684 0.41267,0.89085 2.29524,1.03391 1.05839,0.0804 4.72232,0.20985 8.14206,0.2876 6.32015,0.1437 9.54903,0.52375 11.05175,1.30083 0.45202,0.23375 1.21615,0.89985 1.69807,1.48021 l 0.87622,1.05521 6.66158,0.005 c 3.66387,0.003 7.59294,-0.12301 8.73125,-0.2792 z m -50.5079,-14.64939 c 0.46021,-0.48541 1.0261,-0.68867 2.38125,-0.85532 2.49657,-0.30702 14.47423,-0.19479 21.09215,0.19764 7.11573,0.42195 7.26813,0.42154 7.5411,-0.0201 0.61575,-0.9963 -0.75066,-3.84925 -2.9037,-6.06272 -2.49078,-2.56068 -2.16123,-2.49283 -13.10406,-2.69799 -5.23875,-0.0982 -10.35844,-0.25556 -11.37709,-0.34966 -7.26931,-0.67149 -12.01479,-1.25592 -17.3302,-2.13431 -2.11005,-0.34869 -4.61037,-0.71619 -5.55625,-0.81667 -0.94589,-0.10047 -1.97537,-0.27747 -2.28773,-0.39333 -1.02016,-0.37837 -1.4033,0.22841 -1.68327,2.66586 -0.43142,3.75598 -0.49033,3.57145 1.25902,3.94364 3.59677,0.76525 9.76416,2.53691 11.57552,3.32522 2.32206,1.01057 2.84102,1.19781 3.31986,1.19781 0.28808,0 0.73052,0.11629 0.98321,0.25844 0.61283,0.34473 5.18598,2.37471 5.35422,2.37669 0.0728,7.9e-4 0.40395,-0.28497 0.73597,-0.63517 z m -49.636834,-0.76232 c 1.83907,-0.7492 2.13389,-0.98804 3.487044,-2.82483 1.28542,-1.74486 1.80441,-2.28596 3.26912,-3.40839 l 1.11467,-0.85418 -0.12497,-1.88969 c -0.0687,-1.03933 -0.24339,-1.96288 -0.38813,-2.05233 -0.14475,-0.0895 -1.37559,0.0132 -2.73521,0.22818 -3.034974,0.47983 -4.070494,0.23763 -2.288324,-0.53521 2.356784,-1.02203 3.439584,-1.64251 3.439584,-1.97102 0,-0.6281 -0.47322,-0.62639 -2.41919,0.009 -1.070544,0.34942 -2.422694,0.71581 -3.004774,0.81421 -0.58208,0.0984 -1.41552,0.28553 -1.85208,0.41586 -0.43657,0.13033 -1.27,0.30521 -1.85209,0.38861 -0.58208,0.0834 -1.65364,0.31041 -2.38125,0.50445 -0.7276,0.19404 -2.36848,0.56432 -3.64641,0.82285 -3.00018,0.60695 -3.1827,0.74315 -2.80679,2.0945 0.43706,1.57118 0.17125,3.40067 -0.65064,4.47822 -0.38575,0.50575 -0.70136,1.04429 -0.70136,1.19674 0,0.29645 0.0212,0.30234 3.43958,0.95631 1.23693,0.23663 3.55865,0.8323 5.15937,1.3237 1.60073,0.4914 3.02948,0.89836 3.175,0.90435 0.14552,0.006 0.94061,-0.26451 1.76685,-0.60111 z m -26.84272,-0.51004 c -0.0781,-0.47294 -0.67732,-1.74376 -1.33162,-2.82404 -0.65429,-1.08028 -1.13889,-2.09634 -1.07688,-2.25792 0.062,-0.16158 0.4126,-0.3186 0.77911,-0.34893 0.51056,-0.0423 1.20509,0.45775 2.9702,2.13832 2.64171,2.51517 3.46833,3.09413 4.41772,3.09413 0.93835,0 1.27645,-0.96087 0.91215,-2.59238 -0.37156,-1.66407 -1.28553,-3.16693 -3.13359,-5.15268 -2.12451,-2.28278 -1.77544,-2.93591 0.90129,-1.68638 1.21691,0.56807 2.70303,1.5639 5.6844,3.80905 0.62802,0.47294 1.29457,0.85989 1.48121,0.85989 0.94138,0 0.62424,-2.17222 -0.70017,-4.79587 -0.93415,-1.85053 -2.48286,-3.61899 -6.00801,-6.86046 -5.46252,-5.02293 -6.63838,-5.94824 -8.86615,-6.97698 -1.19604,-0.5523 -2.47227,-1.14365 -2.83608,-1.31409 -0.41736,-0.19555 -0.69193,-0.57097 -0.74403,-1.01735 -0.0706,-0.60443 0.045,-0.74161 0.79375,-0.94215 0.61385,-0.16441 1.27256,-0.11591 2.19924,0.16195 2.16839,0.65016 2.40122,0.60059 2.25472,-0.48005 -0.27161,-2.00346 -0.13758,-3.16077 0.43202,-3.73037 0.78369,-0.78369 1.57355,-0.31369 1.94137,1.15519 1.69899,6.78488 5.60686,11.13734 12.03763,13.40712 7.62869,2.6926 14.32484,2.15643 22.228014,-1.7798 2.44699,-1.21874 4.32918,-2.52884 7.19798,-5.01015 2.00278,-1.73226 4.44188,-4.4884 4.69398,-5.3041 0.15915,-0.51496 0.0413,-0.66158 -0.82608,-1.02773 -0.9378,-0.39589 -1.17601,-0.39302 -3.26067,0.0393 -4.40979,0.91444 -5.35878,0.80214 -4.8852,-0.57812 0.25877,-0.75421 0.57451,-0.94127 5.45788,-3.23362 1.84166,-0.86451 3.48414,-2.41309 3.34203,-3.15098 -0.14208,-0.73777 -1.30799,-1.09749 -3.57032,-1.10155 -2.9024,-0.005 -5.41509,0.80881 -10.76711,3.48819 -4.530844,2.26827 -7.205274,3.12249 -9.776064,3.12249 -1.91339,0 -5.41589,-0.89914 -6.59327,-1.69257 -1.03623,-0.69831 -1.49655,-1.79716 -1.00232,-2.39266 0.46671,-0.56235 0.99869,-0.52219 3.29534,0.24877 2.6553,0.89135 5.07074,0.89035 7.73261,-0.003 1.9849,-0.66631 4.595594,-1.87294 4.595594,-2.12403 0,-0.0737 -1.756184,-0.0568 -3.902614,0.0375 -4.23963,0.18623 -5.79109,-0.0429 -6.34678,-0.93741 -0.40784,-0.65652 -0.0435,-1.76429 0.64308,-1.95549 0.263,-0.0732 1.72834,-0.20668 3.25631,-0.29654 5.2484,-0.30868 15.821934,-1.59775 16.217254,-1.97714 0.11548,-0.11083 0.43367,-1.46605 0.70709,-3.01161 0.27342,-1.54556 0.71472,-3.1831 0.98066,-3.63898 0.59474,-1.01949 2.24434,-1.88454 5.26043,-2.75857 2.76257,-0.80056 3.91111,-0.82978 5.71242,-0.14533 0.75178,0.28565 1.4578,0.46317 1.56893,0.39449 0.11113,-0.0687 0.33034,-0.72305 0.48713,-1.45415 0.7442,-3.47009 1.77754,-4.22709 5.75086,-4.21292 4.10226,0.0146 7.31629,0.91166 8.22264,2.29493 0.5125,0.78218 1.39319,3.39707 1.39872,4.15299 0.0102,1.38938 0.35019,1.39363 3.08772,0.0386 3.44135,-1.70339 7.59311,-4.06471 9.12572,-5.19028 0.68052,-0.49976 1.98791,-1.44445 2.90532,-2.09929 2.09727,-1.49701 6.45978,-5.66742 8.14238,-7.78383 1.92481,-2.42107 3.87592,-6.27132 4.50242,-8.88492 1.00182,-4.17932 0.67958,-9.82636 -0.92095,-16.13958 -1.13398,-4.47289 -4.69341,-14.41487 -6.86765,-19.18229 -1.78897,-3.92267 -2.30664,-4.96027 -3.51961,-7.05463 -2.53127,-4.370592 -4.86627,-7.215262 -9.74887,-11.876832 -5.64482,-5.389279 -14.18476,-10.153104 -22.46922,-12.533989 -2.96812,-0.853011 -10.29583,-2.378019 -13.61006,-2.832459 -3.34633,-0.458843 -15.451944,-0.465596 -18.785424,-0.01048 -20.10253,2.744576 -34.96356,10.321861 -46.00919,23.458988 -1.19237,1.41813 -2.12672,2.702082 -2.07634,2.853222 0.0504,0.15113 0.36236,0.31611 0.69329,0.36661 2.19674,0.33525 1.5176,2.66173 -0.90995,3.11714 -2.50595,0.47012 -8.53693,-1.26726 -12.01106,-3.4601 -1.67747,-1.058802 -7.15003,-5.122462 -8.08154,-6.000972 -1.06487,-1.00427 -5.62199,-3.86755 -8.03244,-5.04684 -3.94985,-1.93242 -6.7766502,-2.00505 -8.6964402,-0.22342 -0.93687,0.86944 -1.10319,1.20893 -1.39118,2.83959 -0.38894,2.2023 -0.0754,3.78904 0.95181,4.81622 0.56026,0.56025 0.85248,0.64148 2.03214,0.56489 1.24413,-0.0808 1.3857,-0.0339 1.45935,0.48314 0.0573,0.40209 -0.0959,0.62891 -0.5144,0.76174 -1.12475,0.35698 -2.42894,2.352682 -2.29503,3.511892 0.0774,0.66995 0.15689,0.70824 1.40812,0.67833 0.72935,-0.0174 1.9542002,-0.30191 2.7218902,-0.63216 0.76769,-0.33025 1.83385,-0.61364 2.36925,-0.62975 1.3885,-0.0418 1.41295,0.61887 0.079,2.13434 -2.4842,2.82219 -1.24519,4.23706 2.73295,3.12085 3.50582,-0.98369 4.56241,-0.38802 2.59398,1.46238 -1.66382,1.56405 -2.21583,2.48268 -2.11539,3.52034 0.078,0.80557 0.14015,0.84905 1.32343,0.92531 0.82114,0.0529 1.67411,-0.10603 2.51876,-0.46939 1.26444,-0.54395 3.07551,-0.83751 3.71411,-0.60202 0.49958,0.18422 0.39359,1.42037 -0.19844,2.3143 -1.31248,1.98179 -0.46879,2.34606 5.02709,2.1705 3.30701,-0.10564 4.63646,-0.27004 6.86641,-0.8491 l 2.76537,-0.7181 0.46248,0.57114 c 0.624,0.77062 0.31081,1.54551 -0.99306,2.45701 -2.26163,1.58105 -7.56967,2.19489 -17.0387,1.97044 -8.83619,-0.20946 -11.7217802,-0.68788 -19.4623202,-3.22681 -4.645087,-1.5236 -5.783783,-1.71314 -7.423617,-1.23565 -2.368774,0.68972 -3.204364,2.65607 -2.320376,5.4604 0.593291,1.88214 1.68681,2.9176 3.343549,3.16605 0.651782,0.0977 1.40717,0.34012 1.678638,0.53862 0.473286,0.34608 0.474756,0.40038 0.03572,1.32104 -0.563962,1.18264 -0.573603,1.57506 -0.0494,2.01011 0.437986,0.3635 2.56167599,0.11487 4.766906,-0.55807 2.16065,-0.65933 3.45798,0.50642 2.25936,2.03022 -0.68175,0.8667 -0.72889,2.11295 -0.0925,2.44645 0.5614,0.29421 2.92839,-0.0186 4.53119,-0.59872 2.2071302,-0.79892 2.9135702,-0.30924 2.2606402,1.567 -0.4542,1.30517 -0.47172,2.04539 -0.0582,2.45893 0.36848,0.36848 1.8617,0.42132 2.53036,0.0895 0.25269,-0.12539 1.32189,-0.66915 2.376,-1.20836 2.96724,-1.51786 4.19743,-1.06696 3.56279,1.30585 -0.38493,1.43922 -0.11583,2.15548 0.9062,2.41199 0.89054,0.22352 2.18853,-0.40582 3.96211,-1.92103 1.69436,-1.44754 2.36641,-1.45475 3.11299,-0.0334 0.28558,0.54369 0.73243,1.05619 0.993,1.13889 0.69864,0.22174 3.98784,-0.82454 6.76977,-2.15343 1.34091,-0.64054 2.62338,-1.16461 2.84994,-1.16461 0.22656,0 0.54899,0.30081 0.71651,0.66846 0.24553,0.53889 0.21745,0.85115 -0.14485,1.61091 -0.56504,1.18491 -3.85994,4.59521 -4.44224,4.59783 -0.2391,10e-4 -0.49869,0.16869 -0.57689,0.37247 -0.28619,0.74579 -7.11848,4.65657 -8.13522,4.65657 -0.14969,0 -0.59869,0.16885 -0.99777,0.37523 -0.87188,0.45086 -5.13536,1.62827 -8.24395,2.27665 -2.60052,0.54241 -4.78756,0.77129 -8.8635402,0.92758 -3.56122,0.13656 -4.88895,0.47475 -5.86435,1.49373 -2.23727001,2.33722 0.74922,8.68515 4.08607,8.68515 0.4428,0 1.55107,-0.23218 2.46282,-0.51595 0.91176,-0.28377 1.74158,-0.46412 1.84407,-0.40078 0.33529,0.20722 0.4662702,1.53723 0.21617,2.19505 -0.30724,0.80811 -0.0792,1.56818 0.5088002,1.69611 0.71854,0.15632 2.16384,-0.2925 4.09543,-1.27178 0.98603,-0.4999 2.05871,-0.9089 2.38376,-0.9089 0.85996,0 1.29828,0.83353 0.95545,1.81696 -0.7366,2.11301 0.29911,3.16539 2.62444,2.6667 1.112,-0.23848 1.52869,-0.51511 2.60452,-1.72907 3.0135,-3.40042 3.1547,-3.52767 3.74345,-3.37372 0.40339,0.1055 0.61366,0.42609 0.72887,1.1113 0.37206,2.21296 0.86164,2.60453 2.87833,2.3021 1.43061,-0.21453 2.40744,-1.11288 2.80527,-2.57988 0.256,-0.94398 1.00083,-1.49582 1.55591,-1.15276 0.41581,0.25698 2.29652,-0.52177 3.43202,-1.4211 1.81455,-1.43715 3.05217,-3.61541 4.10739,-7.22918 0.53394,-1.82859 1.19499,-2.3344 1.99947,-1.52992 0.41893,0.41894 0.53523,0.88199 0.53523,2.13108 0,2.48342 -1.11654,5.2288 -3.2801,8.06519 -0.52753,0.69157 0.2551,1.83981 3.48056,5.10652 3.69828,3.74558 6.58078,5.84576 10.80781,7.87454 2.81091,1.3491 7.05919,2.78337 9.72109,3.28195 2.21666,0.41518 3.24686,1.16886 2.99103,2.18817 -0.22068,0.87928 -1.5995,1.37039 -3.15452,1.12359 -8.53848,-1.35513 -15.64489,-4.78193 -21.69814,-10.46311 -2.86902,-2.69268 -2.42475,-2.73644 -4.15783,0.40959 -0.48099,0.87313 -1.42225,2.40669 -2.09169,3.40791 -0.66944,1.00122 -1.50055,2.25138 -1.84691,2.77812 -1.12697,1.7139 -6.19262,6.48322 -8.56412,8.06314 -3.20535,2.13544 -7.02808,3.97824 -10.78223,5.19773 -8.4184002,2.73461 -15.88097021,3.65928 -25.2095802,3.12366 -2.7329568,-0.15692 -5.0362398,-0.21808 -5.1184068,-0.13591 -0.350452,0.35045 0.275998,1.82571 1.240604,2.92156 1.375209,1.56232 3.4784458,2.92968 6.6603228,4.33002 4.66622,2.0536 9.46548,3.19064 16.7385702,3.9657 6.12942,0.65318 19.30416,0.65336 25.53229,2.7e-4 6.00157,-0.62927 8.56403,-0.97995 8.79421,-1.20354 0.10739,-0.10431 -0.10048,-0.72092 -0.46193,-1.37024 -4.08097,-7.33096 -5.68644,-12.28401 -5.68644,-17.54309 0,-2.99561 0.33241,-3.87803 1.4609,-3.87803 0.87981,0 1.10049,0.5556 1.31365,3.30729 0.50496,6.51847 2.96787,13.07047 7.40959,19.71145 2.72384,4.07254 4.36575,6.03647 7.65462,9.1559 3.20687,3.04167 2.76543,2.67946 5.97373,4.90149 3.21302,2.22529 5.95001,3.6697 6.95366,3.6697 0.74232,0 0.78018,-0.0504 0.64651,-0.8599 z m 35.848914,-61.35456 c -0.7688,-0.12395 -1.88146,-0.47211 -2.47259,-0.77369 -2.68431,-1.36943 -5.011334,-4.97438 -5.210224,-8.07152 -0.0903,-1.40596 -0.0223,-1.70052 0.54424,-2.3592 0.83681,-0.97285 2.083714,-1.02009 2.989154,-0.11325 0.35114,0.35168 0.95842,1.5313 1.34954,2.62138 1.31145,3.65521 2.17556,4.49571 4.62502,4.49858 1.66655,0.002 1.89636,-0.13105 4.7658,-2.75832 2.36478,-2.16521 2.43169,-2.21415 4.00996,-2.93327 3.05774,-1.39324 6.06192,-1.32323 10.34148,0.24098 5.45667,1.99446 7.52362,0.87695 8.00749,-4.32931 0.19648,-2.11399 0.82655,-3.35493 1.8315,-3.60716 0.7936,-0.19918 1.88785,0.47572 2.44514,1.50808 0.4449,0.82417 0.27542,4.45646 -0.28033,6.00822 -1.85882,5.1901 -7.3046,7.02593 -13.15984,4.43633 -4.06553,-1.79807 -6.71144,-1.52328 -9.41438,0.97774 -0.82294,0.76148 -1.92863,1.78335 -2.45709,2.27085 -1.2279,1.13273 -3.79505,2.3317 -5.32645,2.48767 -0.65484,0.0667 -1.81964,0.0198 -2.58842,-0.10411 z m -30.773124,-8.29533 c -1.5925,-0.51132 -3.53112,-2.24467 -4.4041,-3.93778 -1.0267,-1.99124 -1.02035,-4.73553 0.0159,-6.84566 0.72015,-1.46657 1.23731,-1.94086 1.23731,-1.13479 0,0.67722 1.10517,1.46552 2.05461,1.46552 1.97987,0 3.14634,-2.47446 1.90837,-4.04828 l -0.53494,-0.68006 1.21702,-0.18251 c 5.92192,-0.88805 10.4372,4.45459 8.72947,10.32899 -0.50883,1.7503 -2.21308,3.6644 -4.14357,4.65375 -1.47454,0.7557 -4.35128,0.93588 -6.08001,0.38082 z M 148.2885,136.47154 c -1.63475,-0.45347 -3.57809,-1.84803 -4.42548,-3.1758 -1.47374,-2.30918 -1.59409,-5.55754 -0.29176,-7.87473 l 0.57665,-1.02601 0.46416,0.76325 c 0.78363,1.28858 2.98262,1.31864 3.66155,0.05 0.40945,-0.76506 0.34302,-2.29478 -0.1162,-2.6759 -0.62838,-0.5215 -0.47578,-0.7521 0.70879,-1.07107 2.29413,-0.61775 5.59802,0.51896 7.20365,2.47843 1.74832,2.1336 2.3171,4.46071 1.72539,7.05931 -0.32863,1.4432 -1.46948,3.26715 -1.8835,3.01126 -0.17164,-0.10607 -0.22184,-0.0635 -0.11977,0.10167 0.2236,0.36181 -0.89476,1.24543 -2.45461,1.93939 -1.53034,0.68083 -3.51399,0.8459 -5.04887,0.42015 z m 38.2335,81.44452 c 0.58208,-0.0568 4.92786,-0.23491 9.65729,-0.3958 9.4499,-0.32148 13.16597,-0.60215 14.01937,-1.05888 0.82754,-0.44289 1.58893,-1.85208 1.59006,-2.94291 5.3e-4,-0.57251 -0.37151,-1.68804 -0.92669,-2.77812 -1.06586,-2.09283 -1.49292,-2.63868 -2.77174,-3.54266 -1.4041,-0.99255 -4.57397,-1.00152 -14.02767,-0.0397 -7.62653,0.77592 -11.88799,1.14499 -14.2875,1.23738 -0.65484,0.0252 -1.7264,0.0658 -2.38125,0.0903 -2.1276,0.0794 -2.14831,0.31943 -0.20521,2.37922 1.71035,1.81305 3.27515,4.503 3.63358,6.24623 0.2382,1.15852 0.98937,1.26461 5.69976,0.80496 z m -66.41809,-5.94207 c 0.15521,-0.25114 0.30886,-1.4246 1.07561,-8.21451 0.22184,-1.96453 0.76417,-6.72703 1.20518,-10.58333 1.41351,-12.36039 1.55707,-13.8485 1.56024,-16.17327 0.004,-3.15631 -0.65957,-5.96135 -1.64379,-6.94558 -0.72678,-0.72678 -0.85319,-0.75879 -2.40438,-0.60892 -1.8352,0.17731 -4.75756,1.09095 -5.20186,1.62629 -0.16022,0.19306 -0.55171,1.68215 -0.86997,3.30909 l -0.57865,2.95808 0.65453,0.50294 c 0.35998,0.27662 0.99371,0.50559 1.40828,0.50882 1.86258,0.0145 3.87644,2.01373 3.87644,3.8482 0,1.0682 -0.98439,2.96635 -1.88287,3.63062 -0.89117,0.65887 -0.94849,0.89919 -0.26615,1.11575 1.64618,0.52248 2.5998,2.60118 1.86239,4.05964 -1.52055,3.00736 -4.26854,5.97734 -9.16877,9.90943 -2.162,1.73485 -2.07441,1.49118 -2.32044,6.45569 -0.17321,3.49504 -0.0994,3.70919 1.23078,3.56967 0.77343,-0.0811 7.68246,0.66118 9.35444,1.00504 1.50032,0.30856 1.93125,0.31394 2.10899,0.0264 z m 56.36392,-4.22556 c 2.89898,-0.91698 8.02022,-3.33077 10.23809,-4.8255 0.82876,-0.55854 1.57788,-1.01553 1.66471,-1.01553 0.0868,0 0.39565,-0.22152 0.68627,-0.49228 0.29062,-0.27075 1.20838,-0.95477 2.03946,-1.52003 0.83108,-0.56526 1.64698,-1.14741 1.8131,-1.29366 0.16613,-0.14625 1.32017,-1.09934 2.56453,-2.11799 3.58634,-2.9358 3.95907,-4.10093 2.32763,-7.27604 -1.23521,-2.40397 -2.94162,-3.12154 -5.64054,-2.37194 -1.03141,0.28646 -5.58074,3.24216 -8.60092,5.58803 -0.99037,0.76923 -3.05082,2.32155 -4.57879,3.44958 -1.52796,1.12803 -2.89718,2.14461 -3.0427,2.25905 -1.51811,1.19394 -2.84274,2.14984 -5.42396,3.91416 -4.16154,2.8445 -5.36281,3.64797 -5.96625,3.99052 -0.8476,0.48116 -0.81248,1.16245 0.0599,1.1612 3.21642,-0.005 7.58975,0.30644 8.6845,0.61765 0.72761,0.20684 1.38245,0.38932 1.45521,0.4055 0.0728,0.0162 0.84667,-0.19654 1.71979,-0.47272 z m -19.31458,-0.51856 c 2.01509,-0.92676 9.71631,-6.94456 12.61777,-9.85962 2.31625,-2.32711 2.69882,-3.42898 2.05332,-5.91389 -0.90645,-3.48946 -2.61182,-5.03336 -5.54296,-5.01817 -1.88283,0.01 -2.37803,0.21183 -5.42396,2.21322 -2.4634,1.61862 -8.44448,6.08319 -8.55147,6.38322 -0.0466,0.13079 0.31718,0.92699 0.80847,1.76935 0.84087,1.44173 1.72531,3.40042 1.73865,3.85047 0.003,0.11124 0.0839,0.66338 0.17912,1.22697 0.20767,1.22916 -0.19612,2.89043 -0.88131,3.62589 -0.27386,0.29396 -0.63572,0.79193 -0.80413,1.10661 -0.2679,0.50059 -0.23102,0.58851 0.29494,0.70301 0.58815,0.12804 1.66186,0.30929 2.18864,0.36946 0.14553,0.0166 0.74084,-0.18881 1.32292,-0.45652 z m -6.36071,-1.87251 c 1.26836,-1.22933 1.54037,-2.30519 1.02589,-4.0576 -0.60308,-2.05424 -2.48385,-4.94859 -3.21564,-4.9486 -0.19162,-1e-5 -0.73242,0.29291 -1.20179,0.65092 -0.46938,0.358 -1.54569,0.96786 -2.39182,1.35523 -1.29085,0.59097 -1.91886,0.70609 -3.90265,0.7154 -1.30034,0.006 -2.41908,0.0998 -2.4861,0.20825 -0.067,0.10844 -0.19233,1.36883 -0.27847,2.80086 -0.0861,1.43204 -0.17509,2.71482 -0.19767,2.85063 -0.0876,0.52714 1.4063,0.89759 4.32459,1.07238 1.67349,0.10024 3.10224,0.24216 3.175,0.31539 0.0728,0.0732 1.04904,0.092 2.16951,0.0416 1.90923,-0.0858 2.09641,-0.14889 2.97915,-1.00448 z m -15.46152,-1.06871 c 0.0969,-0.3638 0.26117,-2.00807 0.36497,-3.65393 l 0.18874,-2.99247 -1.01544,-0.97628 c -0.55849,-0.53695 -1.81117,-1.71222 -2.78373,-2.61171 -1.86049,-1.72071 -2.21298,-2.43001 -1.96551,-3.95504 0.13289,-0.81889 0.0418,-1.02757 -0.75326,-1.72564 -1.75382,-1.53987 -1.37939,-3.57767 0.91564,-4.98333 0.59067,-0.36177 1.07395,-0.76135 1.07395,-0.88796 0,-0.1266 -0.30004,-0.4662 -0.66675,-0.75465 -0.80257,-0.6313 -1.45028,-1.81478 -1.44893,-2.64741 0.003,-1.66491 2.17177,-3.51197 5.32745,-4.53657 1.72294,-0.55941 1.95519,-0.71407 2.0923,-1.39328 0.19864,-0.98403 -0.11807,-6.77512 -0.39504,-7.22327 -0.43121,-0.6977 -2.17466,-1.14991 -4.94654,-1.28299 -2.56792,-0.1233 -2.83867,-0.0913 -3.07738,0.36394 -0.47329,0.90256 -1.12145,7.02852 -1.24256,11.74393 -0.0815,3.17198 -0.37305,6.42173 -0.92582,10.31874 -0.44379,3.1287 -1.07008,8.10615 -1.39176,11.061 -0.49248,4.52379 -0.52732,5.40802 -0.22057,5.5976 0.20037,0.12383 1.38736,0.30763 2.63776,0.40843 1.25041,0.1008 3.40456,0.3387 4.787,0.52866 3.11672,0.42826 3.22884,0.41532 3.44548,-0.39777 z m 8.49984,-8.87271 c 3.41365,-1.16314 6.04635,-6.68093 6.04635,-12.67232 0,-3.88922 -1.07082,-7.30714 -3.38475,-10.80373 -0.78119,-1.18045 -0.80971,-1.18039 -3.62671,0.008 -2.01579,0.85033 -2.10098,1.01868 -1.59555,3.153 0.19416,0.81993 0.17226,0.84649 -0.82228,0.99724 -3.01754,0.4574 -5.16487,1.02233 -6.64415,1.74799 -2.6566,1.30319 -2.26285,1.94481 2.0247,3.29925 4.2723,1.34962 4.08581,3.29201 -0.31735,3.30543 -1.3095,0.004 -2.25888,0.16608 -3.0343,0.51804 -1.033,0.46887 -1.64485,1.1566 -1.31895,1.48251 0.0723,0.0723 1.17202,0.40931 2.44382,0.74893 1.27181,0.33962 2.40986,0.77522 2.52901,0.96802 0.32916,0.53257 -0.86824,1.48773 -2.13289,1.70139 -0.61836,0.10447 -1.16029,0.36544 -1.25127,0.60254 -0.44384,1.15661 6.59704,5.29449 9.07989,5.33619 0.44702,0.008 1.34901,-0.16906 2.00443,-0.39239 z M 2.7789358,188.02562 c 3.85353,-0.49305 5.59171,-0.79109 7.8440102,-1.34494 2.1278,-0.52324 7.78254,-2.35416 8.56643,-2.77369 0.79862,-0.4274 0.2746,-0.91063 -1.69,-1.55846 -5.10863,-1.68458 -13.5552502,-2.99233 -19.4930002,-3.01801 -5.628895,-0.0243 -8.2044248,0.67252 -9.6915708,2.62227 -0.691616,0.90675 -0.71248,1.01872 -0.435722,2.33817 0.159872,0.76219 0.509669,1.85278 0.777327,2.42352 0.477988,1.01925 0.521962,1.04305 2.4709138,1.33756 2.868497,0.43347 8.15092199,0.4215 11.651612,-0.0264 z M 24.362856,180.7439 c 2.32026,-1.57234 5.39352,-4.20242 5.39352,-4.61574 0,-0.53774 -1.44329,-0.94367 -3.35527,-0.94367 -1.82399,0 -3.28191,0.47791 -4.276,1.40169 -0.62745,0.58308 -2.15831,2.66742 -2.15831,2.93866 0,0.0792 0.36235,0.33135 0.80522,0.56037 0.44287,0.22902 0.93823,0.70832 1.1008,1.06513 0.16257,0.3568 0.439,0.64873 0.61428,0.64873 0.17528,0 1.01937,-0.47483 1.87576,-1.05517 z m 8.90562,-8.88664 c 0.54921,-0.71664 1.69881,-2.43619 2.55467,-3.82122 2.44458,-3.95606 2.87704,-5.09904 1.76829,-4.67358 -0.7585,0.29107 -5.98297,8.66774 -5.98297,9.59282 0,0.68521 0.59506,0.29161 1.66001,-1.09802 z M 177.60554,137.56074 c 0.44004,-0.44004 0.39669,-1.44184 -0.12105,-2.79753 -0.3769,-0.98687 -0.3862,-1.19992 -0.0661,-1.51518 0.31759,-0.31284 0.73612,-0.29503 2.84326,0.12102 2.04305,0.4034 2.68439,0.43515 3.70417,0.18342 1.47298,-0.3636 1.70472,-1.0162 0.85123,-2.39717 -0.43973,-0.7115 -0.49885,-1.03417 -0.29009,-1.58326 0.23825,-0.62663 0.39387,-0.68964 1.70339,-0.68964 1.21915,0 1.61424,-0.13248 2.56445,-0.85989 0.66412,-0.5084 1.49397,-1.53692 2.03014,-2.51616 0.74591,-1.36229 0.93225,-2.02644 1.04983,-3.74176 0.17349,-2.53126 0.0322,-3.16783 -0.91302,-4.11303 -1.42953,-1.42953 -4.09174,-0.59585 -7.23338,2.26517 -0.50077,0.45605 -1.88603,1.30228 -3.07836,1.88053 -2.63372,1.27729 -4.89314,1.57057 -8.28317,1.0752 -3.21363,-0.46959 -3.12208,-0.48677 -3.12208,0.58599 0,0.50932 0.0914,0.92604 0.20306,0.92604 0.11169,0 0.32956,0.56554 0.48417,1.25677 1.26518,5.65646 1.59594,7.2778 1.76296,8.64187 0.27638,2.25732 0.44974,2.56338 1.75082,3.09103 1.34827,0.5468 3.69437,0.65202 4.15982,0.18658 z m -5.83406,-19.19443 c 0.45497,-0.59561 0.41572,-2.04858 -0.0661,-2.44849 -0.45675,-0.37907 -0.53625,-1.99929 -0.111,-2.26211 0.15723,-0.0972 1.19903,-0.22198 2.3151,-0.27735 1.67218,-0.083 2.11071,-0.19944 2.49226,-0.662 0.71915,-0.87184 0.56075,-1.43004 -0.72761,-2.56409 -0.65484,-0.57642 -1.19062,-1.17127 -1.19062,-1.32189 0,-0.37011 1.53871,-1.64381 1.98583,-1.64381 0.19676,0 0.7967,-0.41399 1.3332,-0.91998 0.88624,-0.83583 0.95881,-1.00877 0.79335,-1.89076 -0.10017,-0.53393 -0.36396,-1.2483 -0.58619,-1.58748 -0.37751,-0.57614 -0.34943,-0.70549 0.42711,-1.96753 2.36919,-3.850422 1.4192,-11.070842 -1.69862,-12.910392 -0.9808,-0.57869 -1.39651,-0.53607 -2.54913,0.26138 -0.38023,0.26306 -0.76718,0.42228 -0.8599,0.35382 -0.0927,-0.0685 -0.10878,-0.0448 -0.0357,0.0525 0.0731,0.0973 -0.0327,0.36523 -0.23498,0.59532 -0.52808,0.60058 -1.59512,2.75174 -2.50422,5.04855 -2.12933,5.37966 -3.46231,7.637502 -6.48249,10.980212 -1.26967,1.40525 -1.3509,1.75289 -0.68617,2.9364 0.67518,1.20209 3.42499,7.95034 3.42499,8.40518 0,0.17604 0.32742,0.71171 0.72761,1.19039 1.10925,1.32682 3.43715,1.67444 4.23333,0.63214 z M 156.49271,92.633208 c 0.63751,-0.89531 1.21574,-3.82982 0.95743,-4.859 -0.12706,-0.50623 -0.42844,-0.74662 -1.19477,-0.95297 -1.59973,-0.43076 -1.81706,-0.86842 -1.13171,-2.279068 0.42014,-0.864772 0.57438,-1.673683 0.57438,-3.012258 0,-1.591135 -0.0768,-1.883764 -0.58804,-2.24188 -0.32342,-0.226531 -0.86703,-0.411877 -1.20802,-0.411877 -0.34098,0 -0.84356,-0.119661 -1.11684,-0.265914 -0.4535,-0.242705 -0.48327,-0.505952 -0.34111,-3.016361 0.15311,-2.703642 0.14405,-2.762155 -0.53204,-3.438253 -0.47278,-0.47277 -0.97096,-0.687805 -1.59348,-0.687805 -1.01401,0 -1.23803,-0.216818 -1.73559,-1.679736 -0.7817,-2.298346 -3.85304,-5.747867 -6.08456,-6.833767 -1.37897,-0.671031 -3.21014,-0.712843 -4.15335,-0.09483 -2.09134,1.370301 -2.29631,4.643699 -0.36033,5.754796 0.96031,0.551143 0.97768,0.841176 0.087,1.452126 -1.76633,1.211559 -2.37135,2.447311 -1.70979,3.492219 0.13004,0.205394 0.98349,0.47339 1.91187,0.600356 1.11158,0.152016 1.85616,0.411331 2.20844,0.769133 l 0.53148,0.539795 -0.79375,0.634952 c -1.41418,1.131252 -1.98438,1.788808 -1.98438,2.288381 0,0.328573 0.8702,1.057918 2.64584,2.217566 1.45521,0.95038 2.64583,1.842296 2.64583,1.98203 0,0.139735 0.184,0.254064 0.4089,0.254064 0.2249,0 0.69438,0.28548 1.0433,0.634399 0.34892,0.348919 0.75054,0.676341 0.89248,0.727604 0.82956,0.299591 6.89192,6.130768 8.19819,7.885558 1.20359,1.61686 1.59427,1.70406 2.42263,0.54074 z"
       id="path274" /></g></svg>
