<?xml version="1.0" encoding="UTF-8" standalone="no"?>
<!-- Created with Inkscape (http://www.inkscape.org/) -->

<svg
   width="248.56732mm"
   height="202.07718mm"
   viewBox="0 0 248.56731 202.0772"
   version="1.1"
   id="svg5"
   xml:space="preserve"
   xmlns="http://www.w3.org/2000/svg"
   xmlns:svg="http://www.w3.org/2000/svg"><defs
     id="defs2" /><g
     id="layer1"
     transform="translate(44.341057,-41.698546)"><path
       style="fill:#000000;stroke-width:0.264583"
       d="m 140.71587,243.31816 c -0.37602,-0.24402 -0.88664,-0.64814 -1.13472,-0.89804 -0.32365,-0.32602 -0.69104,-0.40967 -1.30071,-0.29615 -0.46731,0.087 -0.90919,0.16533 -0.98195,0.17403 -0.40429,0.0484 -1.85208,-0.42403 -1.85208,-0.60431 0,-0.11699 -0.21748,-0.26957 -0.48329,-0.33908 -0.45379,-0.11867 -1.72322,-2.13855 -1.49036,-2.37142 0.059,-0.059 -0.007,-0.5209 -0.14661,-1.02652 -0.19771,-0.71603 -0.40284,-0.93164 -0.92769,-0.97508 -0.9416,-0.0779 -2.24372,-0.795 -2.24372,-1.23561 0,-0.20241 -0.12674,-0.41028 -0.28165,-0.46191 -0.15491,-0.0516 -0.34957,-0.60024 -0.43258,-1.21912 -0.083,-0.61889 -0.24081,-1.18079 -0.35066,-1.24869 -0.10985,-0.0679 -1.96902,-0.18499 -4.13148,-0.26021 -2.16247,-0.0752 -4.46754,-0.21561 -5.12238,-0.31195 -0.65484,-0.0963 -1.32414,-0.15323 -1.48733,-0.12642 -0.16319,0.0268 -1.50414,-0.12001 -2.97988,-0.32628 -3.00153,-0.41952 -3.62354,-0.35145 -3.8249,0.41854 -0.0764,0.29223 -0.26004,0.45648 -0.40806,0.365 -0.14801,-0.0915 -0.39834,0.0751 -0.55628,0.37025 -0.15794,0.29512 -0.41467,0.53658 -0.57051,0.53658 -0.15584,0 -0.73434,0.35719 -1.28554,0.79375 -0.5512,0.43656 -1.05993,0.79375 -1.1305,0.79375 -0.0706,0 -0.79056,0.39879 -1.59999,0.88621 -6.463822,3.8923 -22.266522,5.66665 -41.322632,4.63974 -2.7649,-0.149 -5.38427,-0.26201 -5.82084,-0.25113 -1.67462,0.0417 -11.61653,-0.82304 -16.80104,-1.46138 -8.5843,-1.05695 -17.92378,-2.65365 -23.15104,-3.95796 -4.3281,-1.07995 -4.49791,-1.1245 -4.49791,-1.1802 0,-0.0233 -0.23813,-0.0838 -0.52917,-0.13459 -0.95486,-0.16655 -1.31832,-0.27249 -1.65365,-0.48197 -0.1819,-0.11364 -0.33073,-0.14846 -0.33073,-0.0774 0,0.18257 -3.4255001,-0.81814 -3.7955301,-1.10881 -0.16803,-0.13199 -0.49246,-0.23637 -0.72096,-0.23195 -1.44184,0.0279 -12.12483,-4.32655 -12.711,-5.18105 -0.089,-0.12979 -0.2081,-0.21479 -0.26458,-0.18891 -0.21328,0.0977 -1.55792,-0.62563 -1.55792,-0.83809 0,-0.12216 -0.23221,-0.22211 -0.51602,-0.22211 -0.28381,0 -0.63738,-0.20836 -0.78571,-0.46302 -0.14833,-0.25466 -0.2733,-0.36342 -0.27773,-0.24169 -0.004,0.12174 -0.74994,-0.39857 -1.6567099,-1.15625 -0.90676,-0.75767 -1.79973,-1.43556 -1.98437,-1.50641 -0.18464,-0.0709 -0.33571,-0.28195 -0.33571,-0.46909 0,-0.18714 -0.18614,-0.41169 -0.41365,-0.49899 -0.23154,-0.0888 -0.33002,-0.29403 -0.2237,-0.46606 0.11011,-0.17816 0.0751,-0.23635 -0.0833,-0.13845 -0.46463,0.28716 -4.3946,-4.42002 -4.3946,-5.26369 0,-0.20882 -0.0905,-0.37968 -0.20111,-0.37968 -0.24854,0 -1.03361,-1.5381 -1.03361,-2.02503 0,-0.19592 -0.12609,-0.35622 -0.2802,-0.35622 -0.15411,0 -0.20662,-0.11907 -0.11668,-0.26459 0.0899,-0.14552 0.0322,-0.26458 -0.12827,-0.26458 -0.16049,0 -0.26324,-0.14883 -0.22833,-0.33073 0.0911,-0.47461 -0.31333,-1.56762 -0.73664,-1.99093 -0.32302,-0.32302 -0.49698,-1.11173 -0.38401,-1.74109 0.0223,-0.12445 -0.0722,-0.36258 -0.21005,-0.52916 -0.34885,-0.42152 -0.79349,-3.20493 -0.77287,-4.838 0.0108,-0.85443 -0.14349,-1.58951 -0.41497,-1.9771 -0.23768,-0.33934 -0.43215,-0.51638 -0.43215,-0.39342 0,0.12295 -0.18401,0.0708 -0.40892,-0.11581 -0.2249,-0.18666 -0.35003,-0.49283 -0.27805,-0.68038 0.0749,-0.19515 -0.01,-0.28698 -0.19832,-0.2147 -0.18104,0.0695 -0.59091,-0.17472 -0.91081,-0.54264 -0.31991,-0.36793 -0.51749,-0.66896 -0.43908,-0.66896 0.0784,0 -0.1605,-0.30306 -0.53092,-0.67348 -0.37042,-0.37042 -0.67348,-0.84667 -0.67348,-1.05833 0,-0.21167 -0.11879,-0.38485 -0.26396,-0.38485 -0.35688,0 -1.47699,-2.36735 -1.71146,-3.61716 -0.10411,-0.55496 -0.26443,-1.12899 -0.35627,-1.27562 -0.22798,-0.364 -0.2875,-0.7435 -0.48342,-3.08259 -0.12699,-1.51612 -0.0554,-2.44348 0.2862,-3.7053 0.25057,-0.92568 0.42693,-1.80161 0.39191,-1.94651 -0.035,-0.1449 0.003,-0.44204 0.0845,-0.66032 0.0815,-0.21828 0.35048,-1.17078 0.59774,-2.11667 0.42874,-1.64012 1.1704,-3.16455 1.90787,-3.9215 0.18735,-0.1923 0.35552,-0.46019 0.37371,-0.59531 0.0182,-0.13513 0.048,-0.35794 0.0661,-0.49513 0.0182,-0.13719 0.30096,-0.49901 0.62838,-0.80406 0.32742,-0.30503 0.59531,-0.71583 0.59531,-0.91287 0,-0.19705 0.1786,-0.4268 0.39688,-0.51056 0.21828,-0.0838 0.39687,-0.33188 0.39687,-0.55137 0,-0.2195 0.32742,-0.60733 0.72761,-0.86185 0.40018,-0.25452 0.82422,-0.61696 0.9423,-0.80542 0.11808,-0.18845 0.34484,-0.26221 0.5039,-0.1639 0.16215,0.10021 0.2144,0.0577 0.11895,-0.0967 -0.0936,-0.15152 0.007,-0.42262 0.2237,-0.60245 0.21668,-0.17982 0.39396,-0.23433 0.39396,-0.12111 0,0.11321 0.29751,-0.1401 0.66114,-0.56292 0.36362,-0.42282 0.66128,-0.67135 0.66145,-0.5523 1.8e-4,0.11905 0.38481,-0.0596 0.85473,-0.39688 0.46993,-0.33733 1.09244,-0.73463 1.38337,-0.88288 0.29093,-0.14826 0.71066,-0.76143 0.93273,-1.36261 0.22207,-0.60118 0.59605,-1.31332 0.83106,-1.58253 0.23502,-0.26921 0.37338,-0.6383 0.30749,-0.8202 -0.0659,-0.1819 0.0434,-0.33073 0.2428,-0.33073 0.19944,0 0.38208,-0.25833 0.40586,-0.57406 0.0532,-0.70638 1.71777,-3.22436 2.89984,-4.38657 0.48085,-0.47278 0.86521,-0.92224 0.85414,-0.9988 -0.0111,-0.0766 0.0389,-0.28507 0.11111,-0.46333 0.0875,-0.21598 0.14168,-0.19171 0.1625,0.0728 0.0172,0.21828 0.1988699,0.0112 0.4037599,-0.46009 0.25955,-0.59711 0.4971,-0.80916 0.78339,-0.6993 0.60834,0.23345 0.53409,-1.14882 -0.11928,-2.22044 -0.29049,-0.47646 -0.52817,-1.03526 -0.52817,-1.24177 0,-0.20651 -0.21733,-0.53106 -0.4829499,-0.72121 -0.38245,-0.27379 -1.93197,-3.06523 -2.02778,-3.65302 -0.0119,-0.0728 -0.16051,-0.38177 -0.33032,-0.68668 -0.16982,-0.30491 -0.36392,-0.84069 -0.43133,-1.19062 -0.0674,-0.34993 -0.30711,-1.06909 -0.53265,-1.59812 -0.22554,-0.52904 -0.48465,-1.36247 -0.5758,-1.85209 -0.18596,-0.99896 -0.17454,-0.95096 -0.63686,-2.67614 -0.29274,-1.09237 -0.42787,-1.25764 -1.03299,-1.26345 -5.66388,-0.0543 -6.24125,-0.11761 -7.17849,-0.78707 -0.50932,-0.3638 -0.98557,-0.72661 -1.05833,-0.80625 -0.0728,-0.0796 -1.08654,-0.14565 -2.25285,-0.1467 -2.0335,-0.002 -3.5572,-0.46896 -4.13641,-1.26812 -0.0944,-0.13019 -1.22545,-0.32894 -2.51355,-0.44168 -2.316965,-0.2028 -4.325956,-0.8495 -6.046151,-1.94629 -2.505348,-1.59739 -3.571875,-2.39197 -3.571875,-2.66109 0,-0.16665 -0.242763,-0.56358 -0.539473,-0.88206 -0.296711,-0.31848 -0.451492,-0.57906 -0.343959,-0.57906 0.107534,0 0.05264,-0.14287 -0.121985,-0.3175 -0.174625,-0.17462 -0.3175,-0.53181 -0.3175,-0.79375 0,-0.26194 -0.105811,-0.47625 -0.235137,-0.47625 -0.723057,0 -0.475761,-3.49403 0.315556,-4.45846 0.161294,-0.19658 0.314973,-0.50534 0.341507,-0.68614 0.09913,-0.6754 1.451973,-2.52832 1.845967,-2.52832 0.225044,0 0.338803,-0.11385 0.252799,-0.25301 -0.086,-0.13916 0.353454,-0.492 0.976573,-0.78409 0.623119,-0.29209 1.013881,-0.53921 0.86836,-0.54915 -0.500627,-0.0342 0.763129,-0.795 1.32057,-0.795 0.306884,0 0.699642,-0.14166 0.872793,-0.31482 0.344881,-0.34488 0.53475,-0.40807 1.907679,-0.63495 0.509323,-0.0842 1.301223,-0.32161 1.759776,-0.52767 0.45856,-0.20605 1.03113,-0.37464 1.27239,-0.37464 0.24125,0 0.37099,-0.10946 0.2883,-0.24326 -0.20643,-0.33401 1.59792,-0.89754 2.38938,-0.74624 0.60222,0.11512 1.85688,-0.61599 1.56243,-0.91045 -0.0695,-0.0695 0.17075,-0.40563 0.53397,-0.74686 0.36323,-0.34124 0.66042,-0.53595 0.66042,-0.43271 0,0.10325 0.26789,0.0389 0.59531,-0.14294 0.32742,-0.18186 0.65485,-0.34486 0.72761,-0.36221 0.0728,-0.0174 0.43215,-0.15697 0.79865,-0.31027 0.70624,-0.29541 2.71699,-0.0805 4.04722,0.43264 1.66115,0.64075 2.82184,0.31802 4.28875,-1.1925 0.48148,-0.4958 0.99449,-0.90145 1.14002,-0.90145 0.14553,0 0.30593,-0.12402 0.35646,-0.27561 0.0505,-0.15158 0.55822,-0.30544 1.12821,-0.3419 0.88872,-0.0569 1.07286,-0.17777 1.29276,-0.84888 0.14104,-0.43041 0.34142,-0.8421 0.4453,-0.91486 0.28117,-0.19696 0.98918,-2.77659 0.95344,-3.47388 -0.0232,-0.4517 -0.2997,-0.7062 -1.08936,-1.00251 -0.92347,-0.34653 -2.60454,-1.68095 -2.668,-2.11784 -0.1351,-0.930142 -0.71288,-1.546142 -1.73841,-1.853402 -0.63241,-0.18947 -1.18255,-0.32581 -1.22253,-0.30297 -0.16425,0.0938 -1.81254,-0.94274 -2.24241,-1.41019 -0.25466,-0.27693 -0.46681,-0.396 -0.47143,-0.26459 -0.005,0.13141 -0.18835,8e-4 -0.40827,-0.29024 -0.21992,-0.29104 -0.45425,-0.4994 -0.52075,-0.46302 -0.36245,0.1983 -0.70652,-0.0139 -1.11698,-0.68884 -0.25252,-0.41524 -0.57239,-0.74266 -0.71081,-0.7276 -0.13842,0.0151 -0.49561,-0.448876 -0.79375,-1.030959 -0.29814,-0.582084 -0.61953,-1.117865 -0.71419,-1.190625 -0.0947,-0.07276 -0.50525,-0.846667 -0.91241,-1.719792 -0.62204,-1.333926 -0.73257,-1.89598 -0.69199,-3.518738 0.0303,-1.210922 -0.0488,-1.871221 -0.21207,-1.770325 -0.1432,0.08851 -0.26037,0.06093 -0.26037,-0.06128 0,-0.122203 -0.32742,-0.36863 -0.7276,-0.547613 -1.38345,-0.618752 -3.36521,-2.224167 -3.08789,-2.501485 0.0534,-0.05342 -0.25687,-0.484706 -0.68952,-0.958408 -0.43266,-0.473699 -0.78666,-1.012674 -0.78666,-1.197721 0,-0.185047 -0.0828,-0.419269 -0.18404,-0.520496 -0.10123,-0.101224 -0.22396,-0.388959 -0.27275,-0.639408 -0.14515,-0.745223 -0.15921,-4.127608 -0.0189,-4.556405 0.28726,-0.878123 0.7561,-2.011275 1.02307,-2.47274 0.21481,-0.371282 0.18306,-0.598295 -0.1324,-0.946875 -0.22822,-0.25218 -0.41495,-0.588042 -0.41495,-0.746358 0,-0.158316 -0.12554,-0.329695 -0.27899,-0.380844 -0.15344,-0.05115 -0.30562,-0.26943 -0.33817,-0.485068 -0.0326,-0.215641 -0.15543,-0.546204 -0.27307,-0.734587 -0.74034,-1.185508 -0.53382,-7.022517 0.2846,-8.043925 0.15196,-0.189646 0.3664,-0.637871 0.47654,-0.996059 0.11014,-0.358185 0.51167,-0.980768 0.89228,-1.383517 0.38061,-0.402748 1.03124,-1.141925 1.44585,-1.642617 0.4146,-0.500693 1.09921,-1.053415 1.52135,-1.22827 0.42214,-0.174858 0.76753,-0.42254 0.76753,-0.550405 0,-0.127865 0.15478,-0.232484 0.34396,-0.232484 0.18918,0 0.48522,-0.141259 0.65787,-0.31391 0.17265,-0.172651 0.58341,-0.3606 0.91281,-0.417663 0.81289,-0.140822 1.04103,-0.207624 1.65723,-0.485235 0.50675,-0.228296 4.27563,-0.299419 6.21771,-0.117332 0.50933,0.04775 1.1609,0.248406 1.44794,0.445897 0.28704,0.197493 0.80008,0.359076 1.14009,0.359076 0.34001,0 0.54992,0.11049 0.46645,0.245534 -0.13407,0.216939 0.18485,0.401081 1.04656,0.604276 0.46377,0.109358 1.19063,0.842965 1.19063,1.201671 0,0.190506 0.18338,0.416746 0.40751,0.502754 0.54691,0.20987 2.2324399,1.861372 2.0677699,2.026036 -0.0718,0.0718 0.5151,0.372112 1.30422,0.667361 1.60923,0.602091 4.8209,2.74474 5.21337,3.478075 0.141,0.263477 0.61793,0.605086 1.05982,0.759132 0.4419,0.154045 0.77742,0.374927 0.74561,0.490852 -0.0318,0.115922 0.33331,1.008912 0.81136999,1.984425 0.56311,1.149067 0.80871,1.964253 0.69742,2.314898 -0.12946,0.407866 -0.0207,0.602432 0.44129,0.789551 0.33719,0.136567 1.19001001,0.789053 1.89516001,1.449964 0.70515,0.660913 1.6845,1.31277 2.17634,1.448575 0.49184,0.135803 1.45117,0.622771 2.13184,1.082154 l 1.23759,0.835239 1.62027,-1.605875 c 0.8911601,-0.883229 1.6993701,-1.605873 1.7960401,-1.605873 0.162,0 1.71029,-1.373616 3.43146,-3.044327 0.39107,-0.379608 0.7791,-0.682315 0.8623,-0.672682 0.0832,0.0096 0.56496,-0.40848 1.07059,-0.92914 0.50563,-0.52066 1.04033,-0.871873 1.18822,-0.78047 0.14789,0.0914 0.26889,0.003 0.26889,-0.196549 0,-0.384386 1.37589,-1.520581 1.84137,-1.520581 0.15141,0 0.2753,-0.119063 0.2753,-0.264584 0,-0.14552 0.17859,-0.264583 0.39687,-0.264583 0.21828,0 0.39688,-0.12609 0.39688,-0.280199 0,-0.154109 0.1199,-0.206092 0.26645,-0.11552 0.14655,0.09057 0.33762,-0.02077 0.4246,-0.247449 0.087,-0.226671 0.25659,-0.351287 0.3769,-0.276928 0.12032,0.07436 0.37573,-0.08719 0.56759,-0.358995 0.19186,-0.271806 0.70602,-0.680413 1.14258,-0.908015 0.43656,-0.227603 1.04308,-0.649394 1.34781,-0.937313 0.30473,-0.28792 0.90004,-0.702593 1.32292,-0.921496 0.42287,-0.218906 1.4806,-0.876663 2.35051,-1.461686 0.86991,-0.585023 1.67358,-1.006864 1.78594,-0.937424 0.11235,0.06944 0.20428,-0.01257 0.20428,-0.18225 0,-0.173109 0.18438,-0.237755 0.42011,-0.147293 0.25703,0.09863 0.61311,-0.07013 0.91724,-0.434714 0.27342,-0.32776 0.50109,-0.501991 0.50593,-0.38718 0.005,0.114808 0.26496,-0.0299 0.57804,-0.32158 0.31308,-0.291679 0.65436,-0.477718 0.75839,-0.413422 0.10403,0.0643 0.40363,-0.120097 0.66578,-0.409766 0.26915,-0.297404 0.66889,-0.465645 0.91829,-0.386487 0.25777,0.08181 0.74876,-0.14442 1.1792,-0.54334 0.40564,-0.375936 1.34777,-0.958252 2.09363,-1.294038 0.74585,-0.335785 2.13,-0.964565 3.07589,-1.397288 0.94589,-0.432721 2.07698,-0.912672 2.51354,-1.066557 0.43656,-0.153886 1.03188,-0.369384 1.32292,-0.478887 0.29104,-0.109504 0.61846,-0.180198 0.7276,-0.157094 0.10914,0.0231 0.19844,-0.07706 0.19844,-0.222578 0,-0.145521 0.27781,-0.264584 0.61736,-0.264584 0.33955,0 0.6998,-0.08244 0.80057,-0.183208 0.10076,-0.100763 0.43869,-0.222194 0.75094,-0.269848 0.31225,-0.04765 0.70495,-0.20053 0.87268,-0.33973 0.16772,-0.1392 0.56402,-0.203198 0.88066,-0.142219 0.35005,0.06742 0.57571,-0.02238 0.57571,-0.229106 0,-0.338592 3.85957,-1.654468 5.42395,-1.849236 0.43657,-0.05435 1.32954,-0.280546 1.98438,-0.502647 1.89959,-0.644287 4.6437,-1.189699 8.46509,-1.682504 0.51019,-0.06579 1.2848,-0.17993 1.72137,-0.25364 4.88519,-0.82482 14.12395,-1.113491 19.44687,-0.607632 3.80156,0.361278 4.78191,0.484288 5.01687,0.629499 0.11797,0.07291 1.19383,0.189889 2.3908,0.259951 1.19697,0.07006 2.31186,0.238868 2.47755,0.375121 0.16568,0.136252 1.01561,0.320024 1.88874,0.408384 1.464352,0.148193 1.982282,0.274315 3.439582,0.837576 0.29104,0.11249 0.70776,0.23618 0.92604,0.27487 0.42535,0.07539 2.86976,0.666996 4.67645,1.131824 0.60752,0.1563 1.6284,0.562703 2.26863,0.903116 0.64023,0.340412 1.42309,0.599847 1.73969,0.576521 0.31661,-0.02331 0.57565,0.03142 0.57565,0.121653 0,0.09024 0.26613,0.18411 0.59139,0.208611 0.32527,0.0245 0.6331,0.169643 0.68406,0.322537 0.051,0.152893 0.18807,0.219025 0.30467,0.146961 0.1166,-0.07207 0.35914,0.04626 0.53896,0.262935 0.17983,0.216677 0.48323,0.393961 0.67422,0.393961 0.19099,0 0.68242,0.127432 1.09208,0.283184 0.40966,0.15575 0.77785,0.269023 0.8182,0.251717 0.0404,-0.0173 0.51661,0.200734 1.05834,0.484531 0.54172,0.283797 1.37191,0.661218 1.84485,0.838713 0.47294,0.177496 0.8599,0.434364 0.8599,0.57082 0,0.136454 0.10946,0.180446 0.24325,0.09776 0.13379,-0.08269 0.40723,0.01365 0.60765,0.214061 0.20042,0.20042 0.62583,0.447376 0.94536,0.548791 0.31953,0.101412 1.16455,0.645689 1.87783,1.209498 0.71327,0.563811 1.36902,0.95295 1.45722,0.864753 0.0882,-0.0882 0.16035,-0.02146 0.16035,0.148323 0,0.169775 0.18998,0.308681 0.42218,0.308681 0.2322,0 0.75165,0.234607 1.15434,0.521349 0.4027,0.286745 0.80803,0.445495 0.90074,0.352779 0.0927,-0.09271 0.16858,-0.03769 0.16858,0.12228 0,0.159967 0.24215,0.367707 0.53811,0.461642 0.29597,0.09393 0.74245,0.385932 0.99219,0.648883 0.24974,0.262948 0.87129,0.700132 1.38122,0.971516 1.19754,0.637328 2.61677,1.64624 3.38435,2.405901 0.33404,0.330586 0.77511,0.601067 0.98017,0.601067 0.20505,0 0.6704,0.26789 1.0341,0.595312 0.81391,0.732719 2.14478,1.82826 3.19923,2.633541 1.43796,1.098161 1.71979,1.382707 1.71979,1.736339 0,0.19232 0.15235,0.314687 0.33855,0.271928 0.1862,-0.04276 0.35697,0.02056 0.3795,0.140732 0.0545,0.290806 1.15521,1.236731 1.4391,1.236731 0.12326,0 0.2241,0.159483 0.2241,0.354404 0,0.194924 0.26789,0.477552 0.59531,0.628063 0.32743,0.15051 1.07157,0.874789 1.65365,1.609507 0.58208,0.734717 1.33294,1.464628 1.66857,1.622021 0.33562,0.157395 0.53513,0.407678 0.44335,0.556185 -0.0918,0.148508 -0.009,0.237297 0.18352,0.197314 0.19271,-0.03999 0.32063,0.07613 0.28425,0.258026 -0.0364,0.181901 0.0995,0.33073 0.30204,0.33073 0.20251,0 0.44412,0.302524 0.53693,0.672279 0.0928,0.369753 0.2843,0.600851 0.42556,0.513551 0.22504,-0.139083 0.29223,0.01323 0.24318,0.551299 -0.007,0.0823 0.31992,0.406429 0.72761,0.720294 0.78438,0.60388 1.52983,1.504267 1.53306,1.851705 0.005,0.484574 0.78982,0.666329 1.44149,0.333626 0.37241,-0.190129 1.06406,-0.429022 1.537,-0.53087 0.47294,-0.101849 0.8599,-0.306592 0.8599,-0.454983 0,-0.628446 2.65179,-2.844303 3.75779,-3.140033 0.62535,-0.167214 1.25606,-0.398438 1.40158,-0.513834 0.14552,-0.115395 0.80037,-0.282262 1.45521,-0.370818 1.20251,-0.162616 1.85208,-0.687989 1.85208,-1.497947 0,-0.242922 0.29766,-0.880298 0.66146,-1.416388 0.3638,-0.536094 0.66146,-1.028052 0.66146,-1.093243 0,-0.353999 1.32113,-1.547111 2.34963,-2.12195 0.91362,-0.510633 1.23089,-0.583978 1.3966,-0.322855 0.11793,0.18583 0.21761,0.218813 0.2215,0.07329 0.0131,-0.489696 1.96702,-1.164016 4.63123,-1.598306 1.64964,-0.268904 2.72667,-0.574304 2.86053,-0.811119 0.11808,-0.208907 0.32644,-0.310767 0.46302,-0.226359 0.13658,0.08441 0.24959,-0.0024 0.25115,-0.192871 0.002,-0.190489 0.5211,-0.908278 1.15456,-1.595083 0.63345,-0.686805 1.09192,-1.308552 1.01881,-1.381659 -0.0731,-0.07311 0.15148,-0.242115 0.49909,-0.375574 0.3476,-0.133458 0.95409,-0.542877 1.34774,-0.909817 0.39366,-0.36694 1.07827,-0.746786 1.52136,-0.844106 0.44309,-0.09732 0.80561,-0.273293 0.80561,-0.391056 0,-0.192919 1.60001,-0.610262 2.01877,-0.526574 0.0941,0.01879 0.26924,-0.124817 0.38928,-0.319148 0.30076,-0.486897 6.93586,-0.507103 7.42088,-0.0226 0.18209,0.181901 0.53177,0.330729 0.77708,0.330729 1.27364,0 5.82855,3.542009 5.41512,4.210939 -0.0976,0.157837 -0.003,0.286978 0.20925,0.286978 0.65723,0 1.261,2.195094 1.30994,4.7625 0.0266,1.396028 -0.28282,3.022845 -0.59473,3.126819 -0.15226,0.05075 -0.27684,0.375375 -0.27684,0.721381 0,0.604136 -0.96951,1.794198 -1.29684,1.591852 -0.0871,-0.05384 -0.16162,1.170662 -0.16559,2.721129 -0.009,3.414207 -0.18117,4.582569 -0.81663,5.533596 -0.26645,0.398758 -0.45797,0.81431 -0.42561,0.923451 0.0324,0.109141 -0.09,0.199644 -0.27189,0.20112 -0.26838,0.0021 -1.61319,2.533579 -1.66858,3.140853 -0.0527,0.577776 -0.47806,2.059636 -0.65458,2.280423 -0.20668,0.258521 -0.25653,0.430588 -0.25653,0.885557 0,0.123254 -0.23812,0.49866 -0.52916,0.834234 -0.29105,0.335574 -0.53066,0.800277 -0.53249,1.032671 -0.003,0.439778 -1.28129,2.115424 -2.31179,3.031477 -0.32742,0.291058 -0.59531,0.686319 -0.59531,0.878359 0,0.192037 -0.14883,0.35113 -0.33073,0.35353 -0.1819,0.002 -0.84695,0.5389 -1.47789,1.19222 -0.63094,0.65332 -1.25602,1.12057 -1.38907,1.03835 -0.13304,-0.0822 -0.24189,0.0399 -0.24189,0.27129 0,0.23144 -0.20836,0.49942 -0.46302,0.59551 -0.25466,0.0961 -0.82081,0.53884 -1.2581,0.98388 -0.43729,0.44505 -1.299,1.17778 -1.91491,1.62829 -0.6159,0.45052 -1.05891,0.880042 -0.98446,0.954492 0.0745,0.0744 -0.0461,0.28597 -0.26791,0.47004 -0.2218,0.18408 -0.40327,0.47384 -0.40327,0.64391 0,0.53866 -2.16126,2.32151 -3.62863,2.99329 -0.77711,0.35578 -2.39194,0.81479 -3.5885,1.02002 -2.51031,0.43057 -3.15422,0.70827 -3.50813,1.51295 -0.14022,0.31882 -0.58237,0.73552 -0.98255,0.92601 -0.40018,0.19049 -0.7276,0.4548 -0.7276,0.58737 0,0.13257 -0.59379,0.3198 -1.31952,0.41607 -1.42141,0.18856 -1.39805,0.13567 -0.89019,2.01601 0.0673,0.24916 -0.006,0.69272 -0.16271,0.98568 -0.24282,0.45371 -0.19597,0.54968 0.31607,0.64746 3.0332,0.57925 4.50357,1.08572 5.46549,1.88258 1.26208,1.04552 2.6773,2.56241 2.56308,2.74723 -0.0641,0.10365 -0.01,0.36136 0.121,0.5727 0.18159,0.29382 0.73785,0.36904 2.36379,0.31964 2.82192,-0.0857 3.71382,-0.16953 3.71382,-0.34893 0,-0.0819 0.56555,-0.10888 1.25677,-0.0599 1.21109,0.0858 2.67533,0.83381 2.48984,1.27197 -0.0494,0.11673 0.0994,0.31816 0.33072,0.44761 0.23132,0.12945 0.42059,0.45593 0.42059,0.7255 0,0.53208 1.10413,1.046 1.96783,0.91595 0.5888,-0.0887 3.32383,1.17842 3.32383,1.53987 0,0.1323 0.1786,0.41915 0.39688,0.63743 0.21828,0.21828 0.39687,0.73167 0.39687,1.14086 0,0.68731 0.33229,0.96865 1.37833,1.167 0.10324,0.0196 0.40089,0.18223 0.66146,0.36147 1.56998,1.07993 2.50692,1.65849 2.68578,1.65849 0.11228,0 0.58324,0.4282 1.04658,0.95155 0.46334,0.52335 0.8436,0.85077 0.84502,0.7276 0.001,-0.12317 0.28716,0.38725 0.63498,1.13425 0.34782,0.747 0.76939,1.40385 0.93682,1.45966 0.16743,0.0558 0.36528,0.51619 0.43967,1.02306 0.0744,0.50688 0.24631,1.33831 0.38204,1.84763 0.34671,1.301 0.31006,2.38052 -0.081,2.3853 -0.26045,0.003 -0.26149,0.048 -0.005,0.21104 0.64976,0.41274 -0.16944,2.71711 -1.38145,3.88595 -0.45269,0.43657 -0.90555,1.00966 -1.00635,1.27354 -0.1008,0.26389 -0.2972,0.40938 -0.43645,0.32332 -0.13924,-0.0861 -0.37685,0.0746 -0.52801,0.35707 -0.15116,0.28245 -0.84175,0.72301 -1.53463,0.97902 -0.69289,0.256 -1.37885,0.54684 -1.52438,0.6463 -1.22212,0.83529 -6.95891,1.06743 -9.02705,0.36527 l -1.24034,-0.4211 -0.64427,0.82322 c -1.19997,1.53328 -3.34789,2.07397 -4.83104,1.21609 -0.36381,-0.21043 -0.84006,-0.4644 -1.05834,-0.56439 -0.21828,-0.1 -0.76875,-0.45641 -1.22328,-0.79205 -0.72977,-0.53889 -0.94501,-0.5775 -1.84074,-0.33018 -0.77078,0.21283 -1.81116,0.17231 -4.33297,-0.16876 -4.02234,-0.544 -6.56042,-1.24417 -7.42505,-2.04833 -0.35523,-0.33037 -0.73746,-0.57092 -0.84941,-0.53454 -0.11195,0.0364 -0.20495,-0.0827 -0.20667,-0.26458 -0.002,-0.1819 -0.31252,0.31215 -0.69067,1.0979 -0.61405,1.27588 -0.80699,1.82236 -0.87346,2.47398 -0.0111,0.10914 -0.22265,0.19843 -0.47004,0.19843 -0.33781,0 -0.37437,0.0754 -0.14686,0.30293 0.3793,0.3793 -1.15498,3.55933 -1.83235,3.79784 -0.24455,0.0861 -0.51975,0.49855 -0.61156,0.91656 -0.20486,0.9327 -0.94458,1.81859 -1.39121,1.66609 -0.1819,-0.0621 -0.33983,-0.0137 -0.35097,0.10756 -0.0696,0.75856 -0.24824,1.24999 -0.51393,1.4142 -0.16762,0.1036 -0.26484,0.24934 -0.21603,0.32387 0.1171,0.1788 -2.22809,3.11262 -2.48812,3.11262 -0.44955,0 -0.15709,1.31321 0.50735,2.27818 0.38974,0.56601 0.98534,1.59466 1.32355,2.28588 0.33821,0.69123 0.74645,1.25677 0.90719,1.25677 0.16075,0 0.22498,0.17534 0.14275,0.38964 -0.0822,0.21429 0.0665,0.54172 0.33061,0.7276 0.26407,0.18589 0.56476,0.60586 0.66821,0.93328 0.10344,0.32742 0.28797,0.59532 0.41006,0.59532 0.12209,0 0.15891,0.24118 0.0818,0.53597 -0.0902,0.34485 0.0602,0.70971 0.42165,1.02322 0.30899,0.26799 0.5618,0.5983 0.5618,0.73403 0,0.13572 0.14883,0.3956 0.33073,0.5775 0.1819,0.18191 0.34134,0.41408 0.3543,0.51594 0.0549,0.43087 1.20391,2.6903 1.44349,2.83837 0.14375,0.0888 0.19795,0.26414 0.12044,0.38955 -0.0775,0.12541 -0.0199,0.3028 0.12798,0.39421 0.14789,0.0914 0.26889,0.34952 0.26889,0.57361 0,0.22408 0.19438,0.84213 0.43196,1.37344 1.42358,3.18376 1.5684,3.5891 2.47204,6.91915 0.17769,0.65485 0.55513,1.84547 0.83875,2.64584 0.28361,0.80036 0.57557,1.75286 0.6488,2.11666 0.0732,0.36381 0.30482,1.24564 0.51466,1.95964 0.28289,0.96255 0.30526,1.39007 0.0865,1.65364 -0.18993,0.22885 -0.19805,0.35547 -0.0228,0.35547 0.14971,0 0.21205,0.23006 0.13852,0.51125 -0.10738,0.41061 -0.0265,0.48319 0.41109,0.36877 0.52412,-0.13706 2.32326,0.75114 2.74465,1.35498 0.10691,0.1532 0.19621,0.1708 0.19844,0.0391 0.002,-0.13169 0.25467,-0.0126 0.56099,0.26458 0.30632,0.27722 0.63374,0.47329 0.72761,0.43572 0.0939,-0.0376 0.39498,0.12376 0.66914,0.3585 0.27417,0.23475 1.04807,0.75279 1.71979,1.1512 0.67172,0.39842 1.62037,1.09984 2.10811,1.55872 0.48773,0.45888 0.97581,0.77931 1.08461,0.71207 0.1088,-0.0672 0.45309,0.17134 0.7651,0.53018 0.312,0.35884 0.69282,0.65243 0.84625,0.65243 0.15343,0 0.55482,0.29766 0.89198,0.66146 0.33716,0.3638 0.80417,0.66146 1.03778,0.66146 0.23362,0 0.68884,0.35719 1.01161,0.79375 0.32276,0.43656 0.73306,0.79375 0.91177,0.79375 0.17871,0 0.84094,0.48825 1.4716,1.08499 0.63067,0.59675 1.58803,1.36892 2.12748,1.71593 1.03408,0.66521 1.64237,1.49916 1.32498,1.81655 -0.10402,0.10402 -0.0701,0.16511 0.0755,0.13575 0.14552,-0.0294 0.40257,-0.0393 0.57123,-0.022 0.43681,0.0446 3.21244,2.73061 3.31334,3.20633 0.0463,0.21828 0.29453,0.55385 0.55162,0.7457 0.2571,0.19186 0.3989,0.45975 0.31512,0.59532 -0.0838,0.13556 -0.0263,0.26136 0.12786,0.27955 0.15411,0.0182 0.41703,0.048 0.58426,0.0662 0.35911,0.0391 0.74934,0.98669 0.54799,1.33072 -0.077,0.13163 -0.0238,0.16749 0.11821,0.0797 0.26301,-0.16255 0.9651,0.53726 1.07425,1.07076 0.0331,0.16167 0.3712,0.605 0.7514,0.9852 0.40126,0.40127 0.62705,0.85859 0.53821,1.09011 -0.0868,0.22619 -0.0398,0.32887 0.10849,0.23721 0.14386,-0.0889 0.26156,0.0872 0.26156,0.39143 0,0.3042 0.17859,0.62162 0.39687,0.70538 0.21828,0.0838 0.39688,0.37066 0.39688,0.63754 0,0.26689 0.10368,0.54933 0.23041,0.62765 0.31613,0.19538 0.57559,1.33633 0.95245,4.18831 0.14043,1.06281 0.11209,1.52135 -0.094,1.52135 -0.16229,0 -0.29507,0.36287 -0.29507,0.80638 0,0.5361 -0.23931,1.02818 -0.71398,1.46808 -0.39269,0.36393 -0.74323,0.861 -0.77898,1.1046 -0.0722,0.49187 -0.86124,1.1668 -1.15316,0.98639 -0.10281,-0.0635 -0.32074,0.17818 -0.4843,0.53716 -0.45857,1.00644 -5.57199,4.04122 -6.17807,3.66664 -0.11908,-0.0736 -0.21651,-0.0217 -0.21651,0.11527 0,0.66675 -7.41545,2.48165 -12.63392,3.09209 -3.95589,0.46274 -13.62489,0.51363 -18.71921,0.0985 -1.89177,-0.15416 -3.70601,-0.2712 -4.03166,-0.2601 -0.63356,0.0216 -1.42554,0.6875 -1.92287,1.61678 -0.16833,0.31452 -0.37514,0.50277 -0.45957,0.41833 -0.0844,-0.0844 -0.61058,0.31273 -1.16919,0.8826 -0.55861,0.56987 -1.01566,0.97679 -1.01566,0.90427 0,-0.0725 -0.36635,0.23447 -0.81411,0.68223 -0.44775,0.44776 -0.98727,0.8141 -1.19893,0.8141 -0.21165,0 -0.45309,0.17791 -0.53653,0.39536 -0.0834,0.21744 -0.2583,0.32948 -0.38857,0.24897 -0.13028,-0.0805 -0.23687,-0.0203 -0.23687,0.1338 0,0.15411 -0.1786,0.2802 -0.39688,0.2802 -0.21828,0 -0.39687,0.12609 -0.39687,0.2802 0,0.15411 -0.11906,0.20661 -0.26459,0.11667 -0.14552,-0.0899 -0.26458,-0.0316 -0.26458,0.12962 0,0.44466 -2.12676,1.31575 -3.175,1.30044 -0.50932,-0.007 -1.23369,-0.21319 -1.6097,-0.45721 z m 5.09809,-4.86861 c 2.83557,-1.89458 6.25243,-5.14483 7.03041,-6.68757 0.29353,-0.58208 0.90445,-2.30849 1.35759,-3.83646 0.52408,-1.76715 1.02708,-2.94662 1.38223,-3.24114 0.30709,-0.25466 0.45585,-0.46664 0.33059,-0.47107 -0.12526,-0.004 -0.017,-0.13075 0.24061,-0.28072 0.6902,-0.40183 1.41513,-0.0644 1.78619,0.83143 0.28002,0.67604 0.22906,1.17916 -0.35418,3.49693 -0.3747,1.489 -0.7579,2.96298 -0.85157,3.27551 -0.16429,0.54812 -0.0725,0.5749 2.59429,0.75667 1.52053,0.10364 6.3235,0.1275 10.67326,0.053 8.52342,-0.14594 11.07651,-0.45049 16.11073,-1.92182 5.95738,-1.74114 10.2023,-4.90296 10.20678,-7.60249 0.003,-1.96938 -0.41556,-4.15673 -0.79593,-4.15673 -0.10159,0 -0.39379,-0.43843 -0.64932,-0.97428 -0.79831,-1.67408 -2.30016,-3.50952 -5.58653,-6.82742 -4.27695,-4.31797 -10.40948,-9.15272 -18.58698,-14.65356 l -1.65364,-1.11238 v 3.08476 c 0,5.37019 -1.16736,11.20905 -2.94509,14.73073 -1.35549,2.68521 -2.05095,3.62924 -3.01087,4.08699 -0.85855,0.40941 -0.94278,0.40654 -1.44659,-0.0494 -0.73986,-0.66957 -0.67729,-1.19102 0.39955,-3.32932 2.41902,-4.80354 3.39646,-9.26687 3.38593,-15.46133 -0.01,-5.83735 -0.4812,-8.69888 -2.65813,-16.13958 -0.21288,-0.72761 -0.39617,-1.47175 -0.40732,-1.65365 -0.0111,-0.1819 -0.11948,-0.33073 -0.24075,-0.33073 -0.12126,0 -0.22048,-0.11528 -0.22048,-0.25618 0,-0.65759 -3.04271,-7.92459 -3.99166,-9.5334 -0.12875,-0.21828 -0.44996,-0.8136 -0.7138,-1.32292 -1.97647,-3.81546 -4.7199,-7.9375 -5.28282,-7.9375 -0.21264,0 -0.83015,0.35129 -1.37225,0.78064 -2.54889,2.01876 -7.67114,4.20831 -13.05513,5.58053 -5.08135,1.29509 -10.06435,1.87125 -17.58694,2.0335 -3.67441,0.0793 -6.68073,0.17434 -6.68073,0.21131 0,0.037 0.40131,0.88396 0.8918,1.88218 0.49049,0.99823 0.97539,2.08485 1.07757,2.41472 0.10217,0.32986 0.64947,0.83631 1.21621,1.12544 0.56675,0.28913 1.77849,1.22348 2.69275,2.07633 1.55119,1.44699 1.76313,1.55883 3.17097,1.67339 1.13803,0.0926 1.89536,0.36144 3.08259,1.09424 2.46946,1.52424 4.05124,1.2168 6.52432,-1.26807 1.14156,-1.14701 3.56879,-4.84551 3.56879,-5.43796 0,-0.24124 1.20231,-1.05375 1.55929,-1.05375 0.57193,0 1.08654,0.88415 1.08654,1.86677 0,1.05549 -0.87428,3.12256 -2.20779,5.21991 -1.63697,2.57462 -4.17741,4.31268 -7.24302,4.95534 -1.9622,0.41135 -1.97915,0.40672 -5.01226,-1.36709 -1.21595,-0.71111 -1.35895,-0.6321 -1.45569,0.80426 -0.0636,0.94411 -0.31669,1.37406 -0.88228,1.49871 -0.72616,0.16003 -1.48891,0.66017 -1.85206,1.2144 -0.44364,0.67708 -0.27881,0.93439 1.29769,2.02578 0.90766,0.62837 0.86646,1.05257 -0.2134,2.19743 -0.95038,1.00758 -1.31999,2.26611 -0.84153,2.86549 0.29496,0.36952 2.07462,0.73963 1.85607,0.38601 -0.0672,-0.10871 0.11644,-0.27339 0.40807,-0.36595 0.76928,-0.24416 1.45791,0.39054 1.55756,1.43561 0.12676,1.32926 0.45982,2.04475 1.02003,2.19125 0.27219,0.0712 1.32313,-0.1451 2.3354,-0.48062 1.01228,-0.33552 2.27651,-0.61561 2.80941,-0.62242 2.27744,-0.0291 7.90325,-1.55989 9.30081,-2.53076 0.26408,-0.18345 0.71056,-0.27329 0.99219,-0.19964 0.34789,0.091 0.51205,-0.001 0.51205,-0.28703 0,-0.23152 0.38695,-0.61921 0.85989,-0.86153 0.47295,-0.24232 0.94737,-0.5728 1.05429,-0.7344 0.10691,-0.1616 0.19621,-0.20417 0.19843,-0.0946 0.002,0.10956 0.43675,-0.27974 0.96559,-0.86511 1.0347,-1.14529 3.0902,-2.64138 3.62902,-2.64138 1.14397,0 1.2589,1.63376 0.21589,3.06915 -2.0222,2.78297 -5.93011,5.48851 -10.32993,7.15167 l -2.28172,0.86251 0.0793,2.1974 c 0.0903,2.50282 -0.42044,5.72841 -1.25739,7.94077 -1.12777,2.98109 -4.08712,6.73298 -6.77234,8.58604 -2.7221,1.87852 -7.41694,3.52996 -10.03522,3.52996 -0.89326,0 -0.89411,0.001 -1.05508,1.52135 -0.14859,1.40316 -0.62468,3.64136 -1.06138,4.98976 -0.17022,0.52558 -0.045,0.57541 2.15625,0.8577 1.28533,0.16484 4.82752,0.43738 7.87153,0.60565 l 5.53457,0.30594 0.4871,-0.63447 c 1.49439,-1.94653 2.22173,-2.70908 3.13225,-3.28387 0.93833,-0.59234 1.02372,-0.75081 1.16915,-2.16981 0.41152,-4.01539 0.70963,-5.14584 1.61713,-6.13226 1.36166,-1.48008 1.55745,-1.03693 1.65872,3.75433 0.10902,5.15856 -0.0597,5.71374 -2.22774,7.33085 -0.88746,0.66194 -1.81452,1.40449 -2.06014,1.65011 -0.74294,0.74294 -1.27848,2.32519 -1.10322,3.25943 0.17484,0.93195 0.24042,0.94072 2.356,0.31516 0.93642,-0.27689 1.05599,-0.25172 1.48107,0.31182 0.37941,0.50298 0.42023,0.83275 0.22741,1.83702 -0.28455,1.4821 -0.0641,2.91621 0.48031,3.12514 0.46642,0.17898 1.51739,-0.32661 2.43943,-1.17354 0.35645,-0.32742 0.80512,-0.59531 0.99703,-0.59531 0.43511,0 0.89671,0.83158 0.89671,1.61541 0,0.66361 0.69761,1.55959 1.2143,1.55959 0.18619,0 1.44766,-0.74107 2.80326,-1.64681 z m -58.257142,-1.53642 c 12.877012,-1.10407 20.900992,-4.50063 23.607692,-9.99318 0.77817,-1.57908 0.87549,-2.036 0.95694,-4.49236 0.28538,-8.60706 -3.98028,-17.11594 -11.73233,-23.40298 -2.569162,-2.08363 -6.925752,-4.49067 -9.887752,-5.46304 -6.32162,-2.07529 -17.10484,-3.95591 -31.91642,-5.56634 -27.17251,-2.95439 -52.2801301,-4.53688 -59.47927011,-3.74888 -5.87022999,0.64254 -10.39844989,2.54441 -13.56765989,5.69849 -3.10763,3.09278 -4.07441,5.71755 -4.07758,11.07048 -0.004,6.48184 2.39647,12.09378 7.27451,17.00789 3.8977899,3.92662 7.7272999,6.21939 14.6843799,8.79173 14.4127101,5.32901 34.8580301,8.92911 57.4145801,10.1098 9.41851,0.49301 20.8956,0.48802 26.72291,-0.0116 z m 33.028112,-19.97899 c 1.7782,-0.51352 3.12201,-1.21046 4.99047,-2.58822 3.6857,-2.71773 6.10187,-7.95456 5.86196,-12.70528 -0.0553,-1.09446 -0.18751,-2.07695 -0.29387,-2.18331 -0.10637,-0.10637 -1.11649,-0.0462 -2.24472,0.13374 -1.12823,0.17992 -2.96589,0.34781 -4.08368,0.37309 -2.25865,0.0511 -3.04312,-0.31142 -4.05306,-1.87288 -0.37748,-0.58362 -0.81097,-0.86792 -1.51228,-0.99179 -1.08274,-0.19126 -2.76873,-1.70079 -3.02379,-2.70733 -0.17581,-0.69377 -0.0107,-2.36231 0.30585,-3.09122 0.18694,-0.43041 0.14251,-0.47691 -0.28791,-0.30133 -0.27992,0.11419 -0.68755,0.22415 -0.90583,0.24437 -0.21828,0.0202 -0.53593,0.21535 -0.70589,0.43363 -0.49061,0.63008 -4.42229,0.63601 -5.82323,0.009 -2.44191,-1.09327 -4.16191,-3.71977 -5.67373,-8.66395 -0.59002,-1.92954 -1.08297,-3.00198 -1.72428,-3.75119 -0.97329,-1.13708 -2.390692,-1.76201 -3.413912,-1.5052 -0.67063,0.16832 -1.49237,1.4851 -1.8293,2.93134 -0.10171,0.43656 -0.68178,1.74126 -1.28906,2.89932 -1.16943,2.23009 -2.991,4.00242 -5.20261,5.06198 -0.58016,0.27795 -1.0556,0.5649 -1.05654,0.63766 -0.001,0.0728 0.89435,0.41764 1.98955,0.76642 1.68207,0.53566 6.88349,2.9585 8.73391,4.06827 2.231662,1.33843 7.210372,5.87634 9.292332,8.46962 1.00188,1.24794 2.90399,4.24356 3.71879,5.8567 1.06166,2.10189 2.55966,6.326 2.84031,8.00922 0.14387,0.86288 0.31232,1.12799 0.75958,1.1954 0.77813,0.11729 2.81062,-0.20216 4.63094,-0.72785 z m -141.892832,-21.8831 c 0.74254,-2.28843 2.19196,-4.82027 3.73671,-6.52727 0.80066,-0.88477 1.54986,-1.60866 1.66488,-1.60866 0.11502,0 0.63589,-0.3909 1.15749,-0.86867 1.81703,-1.66434 6.4973399,-3.69373 10.6516999,-4.61861 4.00367999,-0.89133 23.0850501,-0.54626 34.3716601,0.62159 5.18279,0.53627 8.33437,0.74046 8.33437,0.53997 0,-0.0939 -0.52296,-0.8811 -1.16213,-1.74935 -1.3167,-1.78861 -2.49781,-4.83962 -3.20782,-8.28631 -0.57149,-2.77427 -1.19421,-3.63029 -2.6409,-3.63029 -1.20392,0 -1.75395,0.54313 -3.45029,3.40702 -2.24764,3.79463 -4.08305,5.51008 -7.17113,6.70245 -1.99566,0.77056 -5.98514,0.82445 -7.63544,0.10314 -2.45791,-1.0743 -3.4153201,-1.6858 -4.5976701,-2.93657 -1.50688,-1.59408 -2.26149,-3.09451 -3.09718,-6.15835 -0.91424,-3.35182 -1.73052,-3.98504 -4.87285001,-3.78003 -0.99805,0.0651 -2.75550999,0.96651 -3.51007999,1.8003 -0.2567,0.28365 -0.93723,1.72306 -1.5123,3.19869 -1.34597,3.45374 -1.63555,3.99597 -2.69759,5.05101 -2.02782,2.01446 -5.3783299,2.53929 -8.1550299,1.27742 -2.1345,-0.97001 -3.17129,-2.18866 -3.69713,-4.34558 l -0.43462,-1.78272 -1.48724,1.80306 c -2.90373,3.52033 -4.62522,7.91337 -4.88313,12.4612 -0.12574,2.21709 -0.0563,2.98883 0.42851,4.7625 0.72623,2.65696 2.50589,5.95313 3.21418,5.95313 0.11128,0 0.40514,-0.62508 0.65303,-1.38907 z M 112.486,189.02002 c 0.54141,-0.15037 1.16649,-0.53339 1.38906,-0.85115 0.53692,-0.76655 0.54212,-3.19157 0.008,-3.63501 -0.21828,-0.18116 -0.39687,-0.50042 -0.39687,-0.70947 0,-0.20905 -0.10747,-0.31368 -0.23882,-0.2325 -0.13134,0.0812 -0.3554,-0.18689 -0.49792,-0.5957 -0.14251,-0.40882 -0.46023,-0.94441 -0.70603,-1.19022 -0.24581,-0.2458 -0.46823,-0.85322 -0.49427,-1.34981 -0.026,-0.49659 -0.1664,-0.88358 -0.31192,-0.85999 -0.14552,0.0236 -0.26569,-0.19523 -0.26704,-0.48627 -0.001,-0.29104 -0.12924,-0.76729 -0.28419,-1.05833 -0.15495,-0.29105 -0.44238,-1.04 -0.63873,-1.66434 -0.55865,-1.77634 -2.40482,-3.43816 -5.59257,-5.03415 -4.12042,-2.06295 -6.469732,-2.29336 -9.416422,-0.92354 -1.39034,0.64632 -3.11017,2.41918 -4.12848,4.25575 -0.26441,0.47689 -0.77648,1.19126 -1.13795,1.5875 -2.79515,3.0641 -3.94441,3.76315 -6.18675,3.76315 -2.68114,0 -4.00834,-1.56234 -5.2819,-6.21771 -1.2351,-4.51475 -3.15756,-7.51267 -5.82743,-9.08735 -1.06462,-0.62791 -1.45665,-0.70191 -3.70417,-0.69926 -2.07181,0.002 -2.75859,0.11319 -3.90793,0.63018 -1.66592,0.74936 -3.45517,2.6177 -5.07619,5.30058 -1.41553,2.34279 -3.39819,4.59431 -3.88215,4.40859 -0.1961,-0.0753 -0.32821,0.001 -0.29358,0.17031 0.0346,0.16892 -0.59187,0.67065 -1.39223,1.11496 -1.30476,0.72431 -1.68773,0.80752 -3.70417,0.80482 -2.25842,-0.003 -4.3684,-0.49045 -4.08786,-0.94436 0.0827,-0.13379 -0.0651,-0.24702 -0.3283,-0.25162 -0.66026,-0.0115 -2.00951,-1.24265 -1.77598,-1.6205 0.1095,-0.17718 0.0728,-0.2335 -0.0875,-0.13439 -0.63285,0.39112 -1.95406,-1.96785 -3.77688,-6.74349 -1.38201,-3.62075 -2.18675,-4.72424 -4.14553,-5.6845 -1.32148,-0.64785 -1.84169,-0.75245 -3.65728,-0.73541 -3.60315,0.0338 -5.71435,1.18868 -8.97356,4.90877 -0.86088,0.9826 -1.69432,1.76337 -1.85209,1.73503 -0.15777,-0.0283 -0.25659,0.13629 -0.21959,0.36584 0.11191,0.69444 -2.12311,2.09824 -3.62359,2.27595 -2.38296,0.28223 -3.51557,-0.6651 -4.91613,-4.11191 -0.94199,-2.31823 -1.7005,-3.44172 -3.2861801,-4.86738 -2.52781,-2.27272 -6.37336,-3.06479 -10.80381,-2.22527 -2.16071,0.40943 -6.27538,1.98858 -7.29985,2.80158 -1.6920499,1.34277 -3.2943899,3.01902 -4.5632599,4.7737 -0.79318,1.09686 -1.78584,2.44505 -2.20591,2.99596 -2.29525,3.01017 -0.39211,6.49935 3.39558,6.22537 0.93384,-0.0675 1.7806099,-0.30616 2.2193799,-0.62541 0.74013,-0.53853 1.77524,-2.43989 2.98315,-5.47967 0.87847,-2.21075 2.88608,-4.41904 4.76425,-5.2405 1.78990999,-0.78286 4.5489,-0.97489 6.00591,-0.41803 2.15564,0.82389 3.00694,1.9913 3.91031,5.36231 1.46629,5.47164 4.5733201,8.02421 9.3908601,7.71504 2.4209,-0.15537 4.06073,-0.92876 5.86247,-2.76492 0.75421,-0.76861 1.82557,-2.26354 2.3808,-3.32207 2.38926,-4.55507 5.5503,-6.05849 8.55608,-4.06935 1.27821,0.84587 1.95275,2.28697 2.61387,5.58432 0.38411,1.91574 0.86685,3.30292 1.74943,5.02708 1.75466,3.42783 3.48254,5.10327 6.41029,6.21572 1.96176,0.74541 5.42424,1.13279 7.47763,0.83658 1.84998,-0.26686 4.43066,-1.35229 5.17767,-2.17773 0.25333,-0.27992 0.68026,-0.50894 0.94875,-0.50894 0.26849,0 0.48816,-0.14232 0.48816,-0.31625 0,-0.44292 1.3458,-1.80042 1.78491,-1.80042 0.19964,0 0.2879,-0.1215 0.19612,-0.27 -0.0918,-0.1485 0.10955,-0.59896 0.4474,-1.00104 0.63567,-0.75649 1.13189,-1.69621 2.68199,-5.07896 1.37486,-3.00034 2.24408,-3.70416 4.57464,-3.70416 2.08904,0 3.74786,1.21169 4.97149,3.63147 0.23734,0.46935 0.84404,2.40281 1.34823,4.29659 1.08509,4.07569 1.86533,5.72264 3.47248,7.32978 1.72017,1.72018 3.20284,2.3138 5.79045,2.31833 4.42525,0.008 7.00858,-2.15148 9.30657,-7.77876 0.9727,-2.38194 1.56079,-3.32378 2.44036,-3.9083 1.26064,-0.83776 2.93652,-0.79487 4.747702,0.1215 2.61888,1.32504 3.66228,3.01753 5.47814,8.88611 1.0291,3.32588 2.30937,4.68498 4.88243,5.18305 0.0728,0.0141 0.57527,-0.0974 1.11668,-0.24778 z m -35.949332,-2.44558 c -0.10514,-0.17644 -0.63178,-0.9161 -1.17031,-1.64371 -1.49572,-2.02088 -2.05378,-3.32204 -2.80941,-6.55037 -1.12067,-4.78791 -1.87543,-6.01733 -3.6941,-6.01733 -1.04132,0 -1.6157,0.73209 -2.49102,3.17499 -1.19229,3.32749 -4.48506,7.57458 -6.59756,8.50966 -0.43584,0.19292 -0.79244,0.42487 -0.79244,0.51544 0,0.0906 1.33945,0.30858 2.97656,0.48446 5.102,0.54811 10.98221,1.3317 11.54067,1.53789 0.29399,0.10854 1.14074,0.22264 1.88166,0.25355 0.99516,0.0415 1.29718,-0.0276 1.15595,-0.26458 z m 41.259962,-4.40995 0.73877,-0.82611 -0.60648,-0.75928 c -0.58346,-0.73047 -3.47232,-3.18899 -3.74718,-3.18899 -0.17597,0 -0.10166,1.15231 0.0853,1.32291 0.17996,0.16421 1.73943,3.34992 2.14978,4.39161 0.24147,0.61298 0.33658,0.67888 0.47175,0.32687 0.0931,-0.2425 0.50174,-0.81265 0.90806,-1.26701 z m -31.868102,-5.87271 c 0.42213,-0.3418 1.49769,-1.64764 2.39012,-2.90186 0.89244,-1.25421 2.18961,-2.81074 2.88259,-3.45894 3.05809,-2.86049 7.19466,-3.81963 11.217602,-2.60102 2.96457,0.89802 5.57067,2.28349 7.38688,3.92706 1.72708,1.56292 1.73083,1.2999 0.016,-1.12521 -1.70986,-2.41811 -2.98459,-3.80776 -5.4322,-5.92193 -6.804392,-5.87739 -11.404512,-7.76429 -24.241062,-9.94329 -4.98563,-0.8463 -19.64068,-2.71786 -29.23646,-3.73371 -2.18281,-0.23108 -5.45703,-0.59371 -7.27604,-0.80584 -11.98101,-1.39723 -22.46108,-2.08533 -28.87768,-1.89605 -6.2628801,0.18475 -9.2005901,0.86975 -13.85252011,3.23005 -2.96939999,1.50663 -4.95029999,2.89346 -6.83307999,4.78388 -1.19927,1.20414 -2.09214,2.42688 -1.59314,2.18172 3.89382,-1.91303 6.72517999,-2.64984 10.10986,-2.63091 5.64009,0.0315 9.5891501,2.34838 12.2204001,7.16947 1.96686,3.60375 2.15192,3.83502 3.14543,3.93071 0.82973,0.0799 1.11063,-0.13566 3.96479,-3.04271 3.33005,-3.39175 3.30664,-3.37144 5.05133,-4.38333 1.96718,-1.14092 4.01311,-1.59882 6.58444,-1.47369 5.0482,0.24567 8.09924,3.06806 10.24282,9.47518 1.11622,3.33633 2.84093,5.61968 4.79786,6.35186 1.70994,0.63977 2.00247,0.64693 3.6396,0.0891 1.65746,-0.56475 2.96707,-1.88905 5.39415,-5.45466 1.06503,-1.56465 2.48945,-3.32292 3.16536,-3.90729 3.79919,-3.28461 9.32235,-4.04576 13.21698,-1.82144 1.95652,1.11741 4.14453,3.44888 5.08396,5.41728 0.43927,0.92041 1.25696,3.03407 1.8171,4.69703 0.56013,1.66295 1.30172,3.408 1.64798,3.87788 0.55847,0.75784 0.74081,0.83952 1.61448,0.72323 0.5417,-0.0721 1.33028,-0.41076 1.75242,-0.75257 z m 44.428402,-11.03861 c 13.00564,-1.85489 20.17477,-5.88751 26.40108,-14.85056 1.46693,-2.11171 3.39361,-5.92765 4.09814,-8.11668 l 0.61117,-1.89897 2.13585,-0.84401 c 2.00663,-0.79294 2.17595,-0.8189 2.7984,-0.42905 1.93383,1.21117 2.9062,1.55128 5.93983,2.07755 3.77864,0.65551 4.3046,0.55723 5.20751,-0.9731 0.30122,-0.51053 0.62791,-0.92824 0.72596,-0.92824 0.0981,0 0.40563,0.42216 0.68351,0.93814 0.99466,1.84699 2.87818,3.29254 4.29226,3.2942 1.06241,0.001 1.7718,-0.85149 2.20275,-2.64791 0.17414,-0.72592 0.44258,-1.31985 0.59653,-1.31985 0.15394,0 0.90139,0.47948 1.66099,1.06551 1.82119,1.40504 3.58975,1.79614 6.33424,1.40076 2.44174,-0.35177 4.66926,-1.40367 5.62449,-2.65604 1.06698,-1.39887 1.17566,-3.97728 0.25263,-5.99344 -1.0135,-2.21377 -2.59823,-3.64633 -4.81931,-4.35653 -1.0148,-0.32449 -2.20229,-0.65256 -2.63885,-0.72904 -0.43656,-0.0765 -1.0561,-0.30985 -1.37674,-0.51858 -0.58762,-0.38254 -0.63019,-0.92659 -0.19042,-2.43399 0.0955,-0.32742 0.0705,-0.60136 -0.0556,-0.60876 -2.15871,-0.12658 -5.5195,-1.14831 -5.2439,-1.59424 0.0831,-0.13442 0.025,-0.2444 -0.12915,-0.2444 -0.15411,0 -0.2802,-0.27781 -0.2802,-0.61736 0,-0.90964 -0.17742,-0.9675 -1.63726,-0.53397 -0.93015,0.27622 -1.85245,0.34226 -3.08585,0.22096 -3.75264,-0.36906 -3.87855,-0.42578 -4.70859,-2.12095 -1.18124,-2.41241 -2.90396,-3.29868 -6.41193,-3.29868 -1.27349,0 -2.96238,-0.11337 -3.75309,-0.25195 -0.79071,-0.13858 -1.83583,-0.30855 -2.3225,-0.37773 -1.02218,-0.14529 -1.22092,-0.28277 -0.97769,-0.67633 0.22805,-0.36899 2.14703,-1.22769 3.28743,-1.47104 l 0.89572,-0.19114 -0.15611,-2.02164 c -0.0858,-1.11189 -0.2333,-2.44767 -0.32766,-2.9684 l -0.17155,-0.94678 2.21979,-0.83781 c 2.2988,-0.86762 4.18038,-2.38159 4.56809,-3.67559 0.12097,-0.40375 0.43852,-0.62456 1.02059,-0.70968 0.46474,-0.068 1.88164,-0.26225 3.14866,-0.43177 3.06082,-0.40951 4.82033,-1.41285 5.76612,-3.288082 0.80956,-1.60512 1.16084,-1.99495 2.51354,-2.7893 1.29028,-0.75769 3.93114,-2.940984 6.13952,-5.075743 2.12004,-2.049357 2.84702,-3.504147 2.63704,-5.277088 -0.18272,-1.542817 0.13188,-2.388716 1.34375,-3.613012 0.47294,-0.477795 0.8599,-0.969232 0.8599,-1.092084 0,-0.122851 0.19746,-0.386773 0.4388,-0.586494 0.58108,-0.480856 1.40018,-2.310537 1.40747,-3.143953 0.003,-0.365289 -0.27795,-0.970188 -0.62478,-1.344221 -0.34682,-0.374034 -0.71449,-1.062053 -0.81703,-1.528937 -0.16773,-0.763656 -0.0431,-1.013849 1.24132,-2.492235 2.22825,-2.564738 2.58755,-3.293896 2.58755,-5.251193 0,-1.403837 -0.12225,-1.873393 -0.71517,-2.746896 -1.42946,-2.105909 -3.57226,-3.317983 -6.20073,-3.507436 -3.69399,-0.26625 -6.70063,1.065168 -9.58441,4.244234 -2.25503,2.485933 -3.82312,3.32985 -7.64666,4.115292 -3.39613,0.697646 -4.66964,1.453139 -5.76583,3.420525 -1.20276,2.158648 -2.55583,3.304247 -5.09188,4.311121 -1.1931,0.473692 -2.94318,1.352161 -3.88907,1.952154 -0.94588,0.599993 -2.61276,1.500944 -3.70417,2.002113 -1.0914,0.501165 -2.16296,1.048559 -2.38125,1.216424 -0.21828,0.167865 -0.5457,0.251291 -0.7276,0.185394 -0.1819,-0.0659 -0.33073,0.0092 -0.33073,0.166817 0,0.157646 -0.11906,0.286631 -0.26458,0.286631 -0.14552,0 -0.26459,-0.132744 -0.26459,-0.294984 0,-0.162243 -1.17442,-1.620758 -2.60983,-3.241146 -9.15844,-10.33868 -16.46967,-16.234589 -28.611,-23.07243 -1.52797,-0.860533 -3.01625,-1.705859 -3.30729,-1.878502 -0.52387,-0.31075 -1.37323,-0.726924 -3.45699,-1.693865 -0.59167,-0.27455 -1.30604,-0.543115 -1.5875,-0.59681 -0.28147,-0.0537 -0.84693,-0.234889 -1.25659,-0.402653 -0.40965,-0.167765 -0.8859,-0.305758 -1.05833,-0.306655 -0.17243,-7.94e-4 -0.67069,-0.190659 -1.10726,-0.421693 -0.65124,-0.344646 -2.64499,-0.976585 -4.89479,-1.551448 -0.21828,-0.05577 -0.42664,-0.125402 -0.46302,-0.154726 -0.0364,-0.02932 -0.15544,-0.07328 -0.26458,-0.09767 -3.41043,-0.762363 -5.626872,-1.321141 -6.151562,-1.550847 -0.3638,-0.159269 -0.89959,-0.312238 -1.19063,-0.339929 -0.29104,-0.02769 -1.12448,-0.120195 -1.85208,-0.205565 -0.72761,-0.08537 -2.51354,-0.290492 -3.96875,-0.455832 -1.45521,-0.165339 -3.00302,-0.345051 -3.43958,-0.39936 -1.2553,-0.15616 -13.0329,-0.130823 -15.08125,0.03244 -1.01865,0.08119 -2.62599,0.260398 -3.57188,0.398235 -0.94588,0.137835 -2.37463,0.316193 -3.175,0.396351 -1.7223,0.17249 -2.03743,0.224264 -2.91041,0.478174 -0.36381,0.105812 -0.95912,0.230986 -1.32292,0.278164 -0.3638,0.04718 -0.84005,0.152218 -1.05833,0.233416 -0.21829,0.0812 -0.75407,0.205195 -1.19063,0.275545 -0.6788,0.109389 -1.72344,0.370001 -4.49792,1.122111 -0.29104,0.0789 -0.88635,0.207679 -1.32291,0.286186 -0.43656,0.0785 -0.85845,0.247058 -0.93753,0.37456 -0.0791,0.1275 -0.43626,0.285512 -0.79375,0.351134 -0.35748,0.06562 -0.67974,0.143042 -0.71612,0.172045 -0.0364,0.029 -0.15544,0.07759 -0.26458,0.107977 -0.10914,0.03039 -0.53361,0.194096 -0.94327,0.363802 -0.40965,0.169709 -0.89185,0.30856 -1.07156,0.30856 -0.1797,0 -0.43984,0.09938 -0.57809,0.220853 -0.13824,0.121467 -0.84666,0.430355 -1.57427,0.686419 -0.7276,0.256061 -1.6981,0.632928 -2.15665,0.83748 -0.45856,0.204552 -1.0241,0.371914 -1.25677,0.371914 -0.23267,0 -0.42304,0.12609 -0.42304,0.280199 0,0.154109 -0.13237,0.198385 -0.29416,0.09839 -0.16179,-0.09999 -0.37015,-0.07082 -0.46302,0.06483 -0.27394,0.400121 -2.38969,1.408662 -2.95513,1.408662 -0.28656,0 -0.52102,0.119063 -0.52102,0.264584 0,0.145521 -0.0893,0.240104 -0.19844,0.210185 -0.10914,-0.02992 -0.57947,0.148674 -1.04519,0.396875 -0.46572,0.2482 -1.0908,0.451273 -1.38906,0.451273 -0.29827,0 -0.54231,0.116086 -0.54231,0.257971 0,0.141883 -0.50602,0.489966 -1.12448,0.773518 -0.61846,0.283551 -1.37257,0.748969 -1.67579,1.034259 -0.30322,0.285292 -0.90517,0.596431 -1.33767,0.691425 -0.4325,0.09499 -0.95483,0.406458 -1.16074,0.692144 -0.20591,0.285689 -0.58623,0.519433 -0.84515,0.519433 -0.25891,0 -0.47075,0.12609 -0.47075,0.280199 0,0.154109 -0.11907,0.206613 -0.26459,0.116676 -0.14552,-0.08994 -0.26458,-0.04546 -0.26458,0.09885 0,0.144301 -0.24195,0.339159 -0.53767,0.433017 -0.29571,0.09386 -0.82608,0.459068 -1.1786,0.811581 -0.35251,0.352509 -0.70451,0.640929 -0.78222,0.640929 -0.0777,0 -0.35101,0.179567 -0.60734,0.399039 -0.25632,0.219475 -0.55534,0.398068 -0.66448,0.396875 -0.10914,-0.0013 -0.43656,0.235961 -0.72761,0.527002 -0.29104,0.291042 -0.70776,0.529167 -0.92604,0.529167 -0.21828,0 -0.39687,0.12609 -0.39687,0.280199 0,0.154109 -0.11383,0.209846 -0.25296,0.123859 -0.13913,-0.08598 -0.45048,0.145114 -0.69189,0.513551 -0.30178,0.460571 -0.67744,0.669891 -1.20225,0.669891 -0.41982,0 -0.74922,0.0893 -0.73199,0.198437 0.0877,0.555141 -0.11064,0.819277 -0.95737,1.275274 -0.50932,0.274288 -0.92604,0.646035 -0.92604,0.826105 0,0.411025 -0.91669,0.921626 -1.19826,0.667438 -0.11522,-0.104021 -0.13219,-0.05379 -0.0377,0.11162 0.19472,0.340887 -0.43905,0.97876 -0.70662,0.711192 -0.0957,-0.09575 -0.17409,-0.0021 -0.17409,0.208076 0,0.497195 -0.85815,1.227961 -1.27776,1.088091 -0.17945,-0.05982 -0.29279,-0.0083 -0.25186,0.114483 0.0409,0.122782 -0.0149,0.253008 -0.12402,0.289388 -0.37778,0.125926 -1.18106,0.993251 -1.15283,1.244745 0.0156,0.138907 -0.0961,0.257969 -0.24826,0.264584 -0.15214,0.0066 -0.60631,0.341722 -1.00927,0.744685 -0.40297,0.402963 -0.86244,0.65246 -1.02105,0.554432 -0.15982,-0.09878 -0.21349,-0.05707 -0.1204,0.09357 0.0924,0.149489 -0.51429,1.016796 -1.3481801,1.927349 -0.83389,0.910553 -1.61137,1.818672 -1.72774,2.018041 -0.11638,0.199368 -0.3707,0.362489 -0.56517,0.362489 -0.19447,0 -0.53752,0.38762 -0.76233,0.861378 -0.22481,0.473757 -0.89625,1.33696 -1.49207,1.918229 -0.59583,0.581268 -1.26679,1.431859 -1.49103,1.890199 -0.22424,0.45834 -0.83638,1.262012 -1.3603,1.785937 -0.52392,0.523926 -0.86455,0.95259 -0.75694,0.95259 0.10761,0 -0.16464,0.437095 -0.60499,0.97132 -0.44035001,0.534226 -0.73913001,1.070848 -0.66395001,1.192493 0.0752,0.121647 -0.0488,0.292341 -0.27543,0.379322 -0.22667,0.08698 -0.3574,0.246703 -0.29051,0.354936 0.0669,0.108236 -0.13856,0.476065 -0.45656,0.817404 -0.31801,0.341336 -0.60505999,0.80369 -0.63789999,1.027454 -0.0328,0.223763 -0.18526,0.448688 -0.33871,0.499837 -0.15344,0.05115 -0.27899,0.261671 -0.27899,0.467823 0,0.206156 -0.1389,0.374828 -0.30868,0.374828 -0.16977,0 -0.23282,0.07586 -0.14011,0.168571 0.0927,0.09271 -0.0741,0.509434 -0.37079,0.926042 -0.29665,0.416607 -0.46703,0.757471 -0.37863,0.757471 0.0884,0 0.0353,0.14883 -0.118,0.33073 -0.67229,0.79768 -1.53661,2.28451 -1.4047,2.41641 0.13289,0.1329 -0.38412,1.33063 -0.98415,2.27994 -0.36164,0.57214 -1.154,2.461792 -1.17761,2.808412 -0.0111,0.16218 -0.16918,0.47451 -0.3514,0.69407 -0.18222,0.21956 -0.25698,0.59289 -0.16614,0.82961 0.0908,0.23673 0.0525,0.43041 -0.0853,0.43041 -0.31643,0 -0.86453,1.1821 -0.86453,1.86453 0,0.2842 -0.11906,0.51672 -0.26458,0.51672 -0.14552,0 -0.26458,0.21431 -0.26458,0.47625 0,0.26194 -0.1225,0.59875 -0.27222,0.74846 -0.14971,0.14972 -0.31788,1.00147 -0.3737,1.89278 -0.0558,0.89132 -0.19787,1.7749 -0.31566,1.96352 -0.26072,0.41749 -0.3188499,0.61534 -0.5283699,1.79816 -0.0902,0.50932 -0.25666,1.0451 -0.36988,1.19062 -0.19949,0.25642 -0.45042,1.91647 -0.65989,4.36563 -0.056,0.65484 -0.1966,2.14312 -0.31241,3.30729 -0.11582,1.16417 -0.20067,4.67651 -0.18855,7.80521 0.0236,6.09142 0.30556,8.32368 1.60423,12.7 0.7848799,2.64491 3.3016899,7.89243 4.1820299,8.71946 l 0.61483,0.57761 1.41865,-1.07808 c 2.93666,-2.23168 7.93703,-4.36435 12.072,-5.14873 6.0196801,-1.14192 14.1735801,-1.02977 28.1081001,0.3866 6.11688,0.62175 29.72966,3.25785 34.26354,3.82513 6.28435,0.78631 15.07533,2.2888 18.74925,3.20449 4.76421,1.18744 9.92169,3.47297 12.928122,5.72907 0.62303,0.46754 1.66171,1.20726 2.30818,1.64382 0.64646,0.43656 2.31292,1.95481 3.70325,3.37389 l 2.52786,2.58014 7.9375,-0.11125 c 6.09114,-0.0854 8.8154,-0.23646 11.71157,-0.64951 z m -20.7074,-33.94252 c -1.01864,-0.29259 -2.00091,-0.54175 -2.18281,-0.55369 -0.1819,-0.0119 -0.33073,-0.12093 -0.33073,-0.2422 0,-0.12126 -0.22563,-0.22048 -0.5014,-0.22048 -0.27576,0 -0.78178,-0.2956 -1.12448,-0.65689 -0.34269,-0.36129 -0.84258,-0.65894 -1.11087,-0.66146 -0.26828,-0.003 -0.54466,-0.22204 -0.61417,-0.48783 -0.0695,-0.26579 -0.47568,-0.6896 -0.90262,-0.9418 -0.42694,-0.2522 -0.97253,-0.8384 -1.21243,-1.30268 -0.2399,-0.46427 -0.61467,-0.9749 -0.83282,-1.13473 -0.21815,-0.15982 -0.31457,-0.42337 -0.21427,-0.58566 0.1003,-0.16229 -0.0601,-0.53753 -0.35646,-0.83389 -0.296352,-0.29635 -0.464702,-0.53881 -0.374132,-0.53881 0.0906,0 0.0421,-0.14883 -0.10784,-0.33073 -0.14989,-0.1819 -0.39863,-1.01576 -0.55275,-1.85302 -0.15412,-0.83725 -0.37586,-1.73022 -0.49275,-1.98437 -0.11689,-0.25415 -0.20284,-1.35506 -0.19098,-2.44647 0.0221,-2.03249 0.75432,-4.77726 1.746992,-6.54843 0.26507,-0.47295 0.41336,-0.8599 0.32953,-0.8599 -0.0838,0 0.34602,-0.59531 0.9552,-1.32292 0.60918,-0.7276 1.28214,-1.32291 1.49546,-1.32291 0.21332,0 0.32762,-0.0975 0.25401,-0.21657 -0.0736,-0.11911 0.356,-0.62512 0.9547,-1.12447 0.5987,-0.49936 1.33651,-1.15492 1.63958,-1.4568 0.58239,-0.58011 1.45529,-1.02547 1.83859,-0.93807 0.12608,0.0287 0.51639,-0.1359 0.86737,-0.36587 0.35098,-0.22997 0.743,-0.35333 0.87114,-0.27414 0.12814,0.0792 0.98604,-0.0489 1.90645,-0.28472 1.67714,-0.42967 4.31214,-0.39489 5.03754,0.0665 0.19179,0.12198 0.82209,0.24448 1.40068,0.27223 0.57858,0.0277 1.09452,0.1781 1.14653,0.33411 0.052,0.15601 0.19594,0.28365 0.31986,0.28365 0.12392,0 0.56048,0.13829 0.97014,0.30731 0.40965,0.16902 0.84873,0.28321 0.97572,0.25376 0.127,-0.0294 0.16567,0.11645 0.0859,0.32421 -0.10332,0.26926 10e-4,0.33949 0.36442,0.24454 0.28015,-0.0733 0.50937,-2.5e-4 0.50937,0.16224 0,0.16249 0.18154,0.29544 0.40342,0.29544 0.22188,0 0.51866,0.30308 0.6595,0.67351 0.16297,0.42867 0.4251,0.64508 0.72105,0.59531 0.26049,-0.0438 0.4359,0.0673 0.39884,0.25254 -0.0364,0.1819 0.0771,0.30096 0.25223,0.26458 0.1751,-0.0364 0.33073,0.11245 0.34585,0.33073 0.0528,0.76202 0.47116,1.36531 1.11726,1.61095 0.35803,0.13613 0.71287,0.48419 0.78852,0.77348 0.0756,0.28929 0.25546,0.52598 0.39958,0.52598 0.14412,0 0.19874,0.16493 0.12139,0.36651 -0.0774,0.20157 0.0558,0.64693 0.29587,0.98969 0.24007,0.34276 0.47223,0.85728 0.51588,1.14337 0.0437,0.2861 0.18007,0.58487 0.30312,0.66395 0.51116,0.3285 0.94467,4.72622 0.69536,7.0542 l -0.17756,1.65808 -1.5531,-0.022 c -1.65938,-0.0235 -3.26387,0.54746 -3.53676,1.25863 -0.0876,0.22819 -0.27775,0.34163 -0.42263,0.25209 -0.15027,-0.0929 -0.19783,0.008 -0.11072,0.23514 0.084,0.21887 0.0588,0.54996 -0.0561,0.73574 -0.11482,0.18578 -0.21467,0.85303 -0.22188,1.48277 l -0.0131,1.14498 -1.72829,0.72985 c -1.99785,0.84368 -4.85393,2.70654 -5.81236,3.79108 -0.57101,0.64614 -0.89669,0.76341 -2.38125,0.85745 -1.20778,0.0765 -2.27115,-0.0494 -3.57185,-0.42304 z m 2.38125,-4.48373 c 1.14246,-0.31241 2.05448,-0.96766 1.83688,-1.31974 -0.0743,-0.12015 0.0179,-0.47698 0.20468,-0.79296 0.27027,-0.45709 0.2721,-0.59897 0.009,-0.69427 -0.18191,-0.0659 -0.33074,-0.34797 -0.33074,-0.62689 0,-0.27891 -0.12609,-0.50712 -0.2802,-0.50712 -0.15411,0 -0.2031,-0.12474 -0.10887,-0.2772 0.11472,-0.18563 -0.42643,-0.25118 -1.63803,-0.19844 -1.80877,0.0787 -1.80952,0.0791 -2.30475,1.09311 -0.42582,0.87189 -0.44726,1.11342 -0.15266,1.71979 0.1885,0.388 0.32328,0.82654 0.29951,0.97454 -0.0238,0.148 0.22352,0.40127 0.54954,0.56283 0.79879,0.39584 0.72067,0.39313 1.91567,0.0663 z m 0.0708,-11.56167 c 0.0581,-0.17425 0.23248,-0.31681 0.38755,-0.31681 0.15508,0 0.66697,-0.39643 1.13754,-0.88096 1.1289,-1.1624 1.52652,-2.91551 1.0331,-4.55501 -0.19509,-0.64824 -0.28012,-1.17861 -0.18895,-1.17861 0.0912,0 -0.0942,-0.27672 -0.41195,-0.61494 -0.31774,-0.33822 -0.50812,-0.68453 -0.42306,-0.76959 0.0851,-0.0851 -0.0924,-0.23308 -0.39445,-0.32893 -0.30201,-0.0958 -0.54911,-0.29806 -0.54911,-0.44934 0,-0.15129 -0.16989,-0.20987 -0.37753,-0.13019 -0.20764,0.0797 -0.51324,-0.0186 -0.6791,-0.2185 -0.318,-0.38317 -0.49566,-0.41245 -2.35503,-0.38816 -1.94959,0.0254 -3.44341,1.06481 -4.35315,3.02876 -0.60586,1.30794 -0.74615,2.65116 -0.37085,3.55072 0.30405,0.7288 0.3768,0.94971 0.42967,1.30478 0.0182,0.12217 0.3204,0.35303 0.67158,0.51304 0.35118,0.16001 0.71848,0.54287 0.8162,0.85079 0.0977,0.30792 0.31536,0.51397 0.48361,0.45789 0.16826,-0.0561 0.43454,0.0267 0.59174,0.18387 0.40124,0.40128 4.41612,0.34941 4.55219,-0.0588 z m -53.406502,15.97699 c -0.0762,-0.0762 -0.78698,-0.21634 -1.57953,-0.31145 -4.13563,-0.49627 -7.67297,-4.13263 -5.75674,-5.91787 0.93264,-0.86889 1.69654,-0.68079 3.0753,0.75723 0.97705,1.01904 1.58065,1.39479 2.81878,1.75473 2.11719,0.61548 5.06075,0.39858 7.15401,-0.52716 1.72627,-0.76344 2.43268,-0.8309 3.18472,-0.30415 0.97015,0.67951 3.37587,1.21946 5.43329,1.21946 2.94262,0 5.20646,-0.75771 6.75215,-2.25995 0.70193,-0.6822 1.463,-1.17964 1.80481,-1.17964 0.83711,0 1.74163,1.06257 1.74163,2.04594 0,1.23272 -0.22043,1.60243 -1.46663,2.45984 -0.99124,0.68199 -1.99478,0.95724 -3.77451,1.03529 -0.19048,0.008 -0.281,0.12091 -0.20113,0.25013 0.19408,0.31403 -1.26479,0.61467 -4.74419,0.97766 -1.65873,0.17306 -4.09097,-0.29578 -5.58986,-1.0775 -1.00023,-0.52165 -1.66701,-0.50208 -3.0533,0.0896 -0.63053,0.26912 -1.92033,0.57406 -2.86621,0.67766 -0.94589,0.10359 -1.9615,0.24693 -2.25693,0.31852 -0.29542,0.0716 -0.59947,0.0678 -0.67566,-0.008 z m -38.27958,-5.53504 c -0.32924,-0.48361 -1.04189,-1.22694 -1.58366,-1.65184 -0.54178,-0.4249 -1.23855,-1.04043 -1.54838,-1.36785 -0.30984,-0.32743 -0.67423,-0.59532 -0.80976,-0.59532 -0.13552,0 -1.09995,-0.52624 -2.14317,-1.16943 -1.04322,-0.64319 -2.10386,-1.20932 -2.35698,-1.25806 -0.37994,-0.0732 -0.44723,-0.33322 -0.38579,-1.49085 0.0618,-1.16466 -0.0401,-1.55241 -0.60175,-2.28873 -0.3719,-0.48758 -1.0954501,-1.14564 -1.6078801,-1.46234 l -0.93171,-0.57583 v -2.05897 c 0,-2.8839 0.37494,-4.5545 1.5740701,-7.01357 2.29775,-4.71201 6.32035,-7.378932 11.6551,-7.727162 4.34169,-0.28341 8.15579,1.16814 11.24479,4.279482 3.00851,3.03026 4.43486,6.36824 4.46398,10.44671 0.0193,2.69743 -0.40607,4.5696 -1.56501,6.88867 -0.82146,1.64378 -3.08589,4.48842 -3.57292,4.48842 -0.12542,0 -0.53328,0.30523 -0.90634,0.6783 -1.47425,1.47425 -5.42508,2.76242 -8.46332,2.75947 -1.81259,-0.002 -1.87873,-0.0254 -2.46127,-0.8811 z m 1.19394,-5.01183 c 0.79425,-0.73045 0.79261,-2.12878 -0.004,-3.07502 -0.48108,-0.57173 -0.79455,-0.69925 -1.59328,-0.64816 -1.52326,0.0975 -2.22257,0.79137 -2.23287,2.21565 -0.012,1.65847 0.60445,2.29119 2.10129,2.15678 0.66195,-0.0594 1.38071,-0.32943 1.72847,-0.64925 z m 0.0325,-10.38684 c 1.26857,-1.04971 1.65005,-1.5961 2.0216,-2.89555 0.94235,-3.29571 -1.27546,-6.22287 -4.71485,-6.22287 -1.62073,0 -2.70189,0.45196 -3.66388,1.53163 -2.35521,2.64332 -1.28557,6.95344 1.99696,8.04673 1.0932,0.3641 3.69613,0.0895 4.36017,-0.45994 z M 109.57679,90.414166 c -0.86636,-0.748488 -0.95466,-1.512073 -0.26725,-2.311231 0.5511,-0.640688 0.83597,-0.720468 3.18628,-0.892331 1.92004,-0.140398 2.75004,-0.1002 3.24085,0.156961 0.36288,0.190133 0.66863,0.431189 0.67945,0.535684 0.0108,0.104492 0.0673,0.443119 0.12562,0.752501 0.12327,0.654373 -0.67279,1.686444 -1.3008,1.686444 -0.23759,0 -0.43314,0.0893 -0.43455,0.198437 -10e-4,0.109141 -1.05655,0.230825 -2.34475,0.27041 -1.93065,0.05933 -2.43752,-0.0104 -2.88485,-0.396875 z M 28.567458,86.632807 c -1.22994,-0.433692 -2.2671,-0.78853 -2.3048,-0.78853 -0.29868,0 -1.1475,-1.272145 -1.1475,-1.719791 0,-0.720127 0.92692,-1.719792 1.59464,-1.719792 0.98957,0 5.469,1.589603 5.93714,2.106896 0.65491,0.723661 0.59924,1.859026 -0.11968,2.441178 -0.79827,0.646398 -1.34438,0.602271 -3.9598,-0.319961 z m -43.89907,41.544803 c 0.15216,-5.43146 0.637,-10.35951 1.28851,-13.09687 0.13854,-0.58209 0.25077,-1.35599 0.2494,-1.7198 -0.002,-0.65523 -0.007,-0.65647 -0.46591,-0.13229 -1.59022,1.81584 -4.12567,2.38204 -7.15343,1.59747 -0.86353,-0.22376 -1.93982,-0.40684 -2.39176,-0.40684 -0.73209,0 -0.8217,0.0845 -0.8217,0.77454 0,1.36603 -1.04873,1.91412 -4.2931,2.24367 -0.68772,0.0699 -1.76974,0.43136 -2.4045,0.80335 -0.73304,0.42959 -1.55231,0.67635 -2.24554,0.67635 -2.33402,0 -5.691981,1.94017 -6.678821,3.8589 -1.079061,2.09804 -0.463905,4.01047 1.822861,5.66699 2.765508,2.00332 5.56165,2.78235 7.58721,2.11386 0.96179,-0.31742 1.03152,-0.3004 1.52075,0.3712 1.03943,1.42691 2.84753,1.8214 5.40107,1.17841 1.09273,-0.27515 1.23572,-0.25609 1.48852,0.19844 0.15381,0.27656 0.61026,0.83462 1.01433,1.24014 0.71675,0.71933 0.79789,0.73547 3.32501,0.66146 l 2.59033,-0.0758 z m 7.2352199,-31.551562 c 1.28136,-2.66921 2.184,-4.374841 4.09565,-7.739063 0.33076,-0.582083 1.15331,-1.868434 1.82791,-2.858555 0.67459,-0.990121 1.34559999,-1.995654 1.49111999,-2.234517 0.3196,-0.524611 0.2829,-0.474025 2.25549001,-3.10901 0.8715,-1.164167 1.95782,-2.558286 2.41403,-3.098041 0.80406,-0.951309 0.81597,-1.001966 0.38898,-1.653646 -0.24227,-0.36975 -0.6203,-0.672272 -0.84007,-0.672272 -0.68431,0 -3.01116001,-1.303263 -4.51769001,-2.53035 -0.79261999,-0.645599 -1.53519999,-1.173816 -1.65018999,-1.173816 -0.35051,0 -1.31743,-2.43704 -1.4882,-3.750929 -0.27284,-2.099043 -0.9726,-2.822241 -4.3241,-4.468886 -2.7209599,-1.336855 -3.2097999,-1.693942 -5.2910099,-3.864957 -2.71114,-2.828118 -3.7272,-3.291186 -7.24013,-3.299674 -2.87987,-0.007 -4.81919,0.695698 -6.43017,2.329789 -2.23529,2.267373 -3.02904,5.178186 -2.22509,8.159866 0.29839,1.106659 2.54201,3.487478 4.01915,4.264905 0.6058,0.318839 0.67453,0.448194 0.38956,0.733161 -0.19031,0.190312 -0.76957,0.485804 -1.28725,0.656653 -1.62253,0.535485 -2.8806,2.215632 -2.8806,3.847023 0,1.038392 1.26368,3.859715 1.72878,3.859715 0.16261,0 0.57033,0.292389 0.90605,0.649751 0.33573,0.357364 0.6839,0.635476 0.77372,0.618029 0.0898,-0.01744 1.0835,0.416547 2.20816,0.964428 l 2.04484,0.996148 -0.15318,0.963896 c -0.0843,0.53014 -0.31983,1.286128 -0.52349,1.679974 -0.55056,1.064662 -0.45128,2.328045 0.30169,3.839056 1.21922,2.446645 3.49899,4.148542 7.3978,5.522582 1.53195,0.5399 2.16683,1.01495 2.40626,1.80051 0.17392,0.57059 2.15532,2.54479 2.5540699,2.54479 0.12046,0 0.86202,-1.33945 1.64791,-2.97656 z"
       id="path464" /></g></svg>
