<?xml version="1.0" encoding="UTF-8" standalone="no"?>
<!-- Created with Inkscape (http://www.inkscape.org/) -->

<svg
   width="265.53781mm"
   height="236.44118mm"
   viewBox="0 0 265.5378 236.44118"
   version="1.1"
   id="svg5"
   xml:space="preserve"
   xmlns="http://www.w3.org/2000/svg"
   xmlns:svg="http://www.w3.org/2000/svg"><defs
     id="defs2" /><g
     id="layer1"
     transform="translate(83.557379,-31.905142)"><path
       style="fill:#000000;stroke-width:0.264583"
       d="m 61.451108,268.22897 c -0.0606,-0.0591 -0.52696,-0.18277 -1.03628,-0.27485 -1.10861,-0.20044 -1.71979,-0.35147 -1.71979,-0.425 0,-0.0297 -0.23813,-0.0925 -0.52917,-0.13948 -0.72319,-0.11682 -1.23991,-0.26017 -1.77327,-0.49194 -0.24769,-0.10763 -0.57511,-0.11859 -0.7276,-0.0243 -0.15249,0.0942 -0.27726,0.0325 -0.27726,-0.13715 0,-0.16968 -0.16408,-0.24554 -0.36463,-0.16858 -0.20055,0.077 -0.48014,0.0244 -0.62131,-0.11675 -0.14117,-0.14117 -0.60216,-0.29689 -1.02443,-0.34604 -0.42226,-0.0491 -0.76775,-0.11204 -0.76775,-0.13976 0,-0.0277 -0.23813,-0.1052 -0.52917,-0.17217 -0.29104,-0.067 -0.64823,-0.1505 -0.79375,-0.18564 -0.14552,-0.0351 -0.42133,-0.16175 -0.61291,-0.28137 -0.19158,-0.11961 -0.41876,-0.14706 -0.50482,-0.061 -0.0861,0.0861 -0.30022,0.0372 -0.47589,-0.10858 -0.17567,-0.1458 -0.84147,-0.33637 -1.47956,-0.42349 -0.63808,-0.0871 -1.27921,-0.23919 -1.42473,-0.33794 -0.14552,-0.0987 -0.62177,-0.21698 -1.05834,-0.26277 -0.43656,-0.0458 -0.86973,-0.20536 -0.9626,-0.35462 -0.0929,-0.14927 -0.30123,-0.18958 -0.46302,-0.0896 -0.16179,0.1 -0.29417,0.0625 -0.29417,-0.0832 0,-0.14576 -0.21389,-0.22382 -0.47532,-0.17347 -0.26142,0.0504 -0.94603,-0.13104 -1.52135,-0.40309 -0.57532,-0.27204 -1.29545,-0.49867 -1.60028,-0.5036 -0.30483,-0.005 -1.25733,-0.24418 -2.11666,-0.53164 -0.85934,-0.28747 -1.82329,-0.52559 -2.14213,-0.52917 -0.31883,-0.004 -0.6583,-0.13368 -0.75436,-0.28912 -0.0961,-0.15545 -0.33741,-0.22018 -0.53631,-0.14385 -0.1989,0.0763 -0.43321,0.023 -0.52069,-0.11857 -0.0875,-0.14154 -0.25723,-0.19666 -0.37724,-0.1225 -0.12001,0.0742 -0.64756,-0.0446 -1.17234,-0.26381 -0.52478,-0.21928 -0.95415,-0.32297 -0.95415,-0.23044 0,0.0925 -0.15674,0.0382 -0.34832,-0.12084 -0.19157,-0.15899 -0.72735,-0.31796 -1.19062,-0.35326 -0.46327,-0.0353 -0.84231,-0.16784 -0.84231,-0.29453 0,-0.1267 -0.14883,-0.178 -0.33073,-0.114 -0.1819,0.064 -0.62839,0.002 -0.99219,-0.13671 -0.3638,-0.13919 -0.99844,-0.30934 -1.41032,-0.37813 -0.41187,-0.0688 -1.21554,-0.28971 -1.78593,-0.49096 -0.5704,-0.20125 -1.03708,-0.29707 -1.03708,-0.21295 0,0.0841 -0.17859,0.005 -0.39688,-0.17643 -0.21828,-0.18115 -0.39687,-0.25821 -0.39687,-0.17123 0,0.087 -0.32742,0.0315 -0.7276,-0.12339 -0.40019,-0.15484 -0.96573,-0.33745 -1.25678,-0.4058 -0.63159,-0.14831 -0.72104,-0.17252 -2.24895,-0.60855 -0.65485,-0.18688 -1.36922,-0.37642 -1.5875,-0.4212 -0.21828,-0.0448 -0.42664,-0.10541 -0.46302,-0.13474 -0.0364,-0.0293 -0.18521,-0.0831 -0.33073,-0.11946 -0.14552,-0.0364 -0.29435,-0.0901 -0.33073,-0.11946 -0.0645,-0.052 -0.30467,-0.1161 -1.38907,-0.37074 -0.29104,-0.0684 -0.88635,-0.26228 -1.32291,-0.43095 -0.43656,-0.16867 -0.82352,-0.2983 -0.8599,-0.28808 -0.0364,0.0102 -0.0959,0.01 -0.13229,-0.002 -0.0364,-0.0111 -0.24474,-0.0637 -0.46302,-0.11683 -0.21828,-0.0531 -0.69453,-0.17325 -1.05833,-0.26697 -0.66976,-0.17252 -2.2370901,-0.54036 -3.4313701,-0.80531 -0.35928,-0.0797 -0.776,-0.24559 -0.92604,-0.36863 -0.15004,-0.12304 -0.74905,-0.29686 -1.33113,-0.38625 -0.58209,-0.0894 -1.60431,-0.34193 -2.2716,-0.56118 -1.14484,-0.37615 -1.58796,-0.49058 -3.13382001,-0.80925 -0.35361,-0.0729 -0.77033,-0.21227 -0.92604999,-0.30973 -0.27055,-0.16932 -0.59788,-0.26657 -1.47374,-0.43786 -0.21828,-0.0427 -0.57547,-0.15229 -0.79375,-0.24356 -0.21828,-0.0913 -0.69453,-0.21802 -1.05834,-0.28166 -0.3638,-0.0636 -0.66145,-0.13366 -0.66145,-0.15561 0,-0.0219 -0.23113,-0.0831 -0.51361,-0.13597 -0.28248,-0.0528 -0.75873,-0.15758 -1.05833,-0.23278 -0.2996,-0.0752 -0.63183,-0.1496 -0.73827,-0.16534 -0.10645,-0.0157 -0.5827,-0.14692 -1.05834,-0.29149 -0.47563,-0.14458 -1.1541,-0.32171 -1.50771,-0.39362 -0.3535999,-0.0719 -0.7703199,-0.21049 -0.9260399,-0.30794 -0.15572,-0.0975 -0.40218,-0.20335 -0.5477,-0.23531 -0.58866,-0.1293 -1.36826,-0.33836 -2.18771,-0.58665 -0.47563,-0.14411 -0.9241,-0.26068 -0.99659,-0.25903 -0.31537,0.007 -1.8665,-0.37825 -2.10737,-0.5236 -0.14552,-0.0878 -0.50271,-0.19402 -0.79375,-0.236 -0.29104,-0.042 -1.12448,-0.26032 -1.85208,-0.4852 -0.72761,-0.22488 -1.52783,-0.43858 -1.77828,-0.47489 -0.25045,-0.0363 -0.52998,-0.14062 -0.62118,-0.23182 -0.0912,-0.0912 -0.33277,-0.10175 -0.53683,-0.0234 -0.20405,0.0783 -0.37101,0.002 -0.37101,-0.16992 0,-0.17176 -0.20835,-0.26505 -0.46302,-0.20732 -0.25466,0.0577 -0.79044,-0.0557 -1.19062,-0.25197 -0.40018,-0.19633 -0.72761,-0.27055 -0.72761,-0.16495 0,0.1056 -0.13356,0.0584 -0.29682,-0.10482 -0.16325,-0.16326 -0.46091,-0.23386 -0.66146,-0.1569 -0.20054,0.0769 -0.36463,0.0334 -0.36463,-0.0967 0,-0.13012 -0.20836,-0.26012 -0.46302,-0.28889 -0.47936,-0.0542 -1.42203,-0.24567 -1.65365,-0.33597 -0.0728,-0.0284 -0.21746,-0.0389 -0.32155,-0.0233 -0.10409,0.0155 -0.52081,-0.11011 -0.92604,-0.27924 -0.40523,-0.16913 -1.0872,-0.34677 -1.51549,-0.39475 -0.4283,-0.048 -0.84501,-0.17612 -0.92605,-0.28474 -0.14521,-0.19467 -0.25258,-0.22851 -1.41328,-0.44549 -0.32237,-0.0603 -0.58613,-0.12726 -0.58613,-0.14889 0,-0.0216 -0.29766,-0.091 -0.66146,-0.15426 -0.3638,-0.0632 -0.95911,-0.23192 -1.32291,-0.3749 -0.36381,-0.14298 -0.89959,-0.29421 -1.19063,-0.33608 -0.29104,-0.0419 -0.68592,-0.17388 -0.8775,-0.29338 -0.19158,-0.11951 -0.41343,-0.15219 -0.49299,-0.0726 -0.0795,0.0796 -0.57765,-0.0174 -1.10687,-0.21554 -0.867761,-0.32483 -2.088559,-0.65031 -2.614678,-0.69711 -0.109796,-0.01 -0.351332,-0.14366 -0.536752,-0.29755 -0.185417,-0.15388 -0.403487,-0.21342 -0.4846,-0.13231 -0.08111,0.0811 -0.554485,-0.0226 -1.051938,-0.23043 -0.497454,-0.20785 -0.904463,-0.3022 -0.904463,-0.20967 0,0.0925 -0.159782,0.0356 -0.355073,-0.12644 -0.195289,-0.16208 -0.423746,-0.22602 -0.50768,-0.14208 -0.08393,0.0839 -0.549227,-0.0221 -1.033989,-0.23567 -0.484759,-0.21354 -1.595758,-0.53492 -2.468882,-0.71416 -0.873125,-0.17925 -1.706563,-0.39831 -1.852084,-0.4868 -0.346334,-0.21061 -0.946375,-0.34674 -1.516144,-0.34397 -0.251796,0.001 -0.526714,-0.10926 -0.610928,-0.24552 -0.08422,-0.13626 -0.446297,-0.24774 -0.804633,-0.24774 -0.358333,0 -1.104463,-0.29975 -1.658067,-0.66611 -1.052348,-0.69641 -2.308248,-2.57945 -2.025499,-3.03695 0.09032,-0.14613 0.04017,-0.26569 -0.111439,-0.26569 -0.189437,0 -0.277776,-9.11592 -0.282443,-29.14591 -0.0066,-28.26116 -0.04835,-29.90982 -0.755285,-29.81638 -0.09518,0.0126 -0.262358,-0.006 -0.371499,-0.0415 -0.23276,-0.0755 -0.304594,-0.0932 -1.521354,-0.37447 -0.509323,-0.11773 -1.07487,-0.33395 -1.256771,-0.48048 -0.181901,-0.14654 -0.330729,-0.19527 -0.330729,-0.10829 0,0.087 -0.327422,0.0315 -0.727604,-0.12339 -0.400182,-0.15484 -0.965729,-0.32801 -1.256771,-0.38481 -0.291041,-0.0568 -0.767291,-0.21471 -1.058333,-0.35089 -0.291042,-0.13618 -1.311426,-0.43227 -2.26752,-0.65797 -0.956095,-0.22571 -2.072237,-0.5836 -2.480316,-0.79531 -0.408079,-0.21172 -0.893699,-0.32671 -1.079154,-0.25555 -0.185456,0.0712 -0.416994,2.7e-4 -0.514529,-0.15754 -0.09753,-0.15782 -0.279945,-0.22352 -0.405356,-0.14601 -0.12541,0.0775 -0.302803,0.0199 -0.394207,-0.12798 -0.0914,-0.14789 -0.496506,-0.2689 -0.900227,-0.2689 -0.403721,0 -0.816859,-0.0828 -0.918085,-0.18404 -0.101226,-0.10123 -0.368492,-0.21112 -0.593925,-0.24421 -0.225433,-0.0331 -0.60894,-0.14675 -0.852238,-0.25258 -0.243297,-0.10583 -0.657057,-0.23428 -0.919466,-0.28545 -1.501114,-0.2927 -3.161242,-1.5897 -3.914267,-3.05807 -0.63028,-1.22903 -0.631533,-2.41936 -0.004,-3.78086 0.648972,-1.40796 7.7999,-13.08931 9.582651,-15.65367 0.421205,-0.60587 0.765827,-1.15492 0.765827,-1.22011 0,-0.0652 0.622342,-1.05775 1.382983,-2.2057 0.760641,-1.14795 1.564313,-2.42064 1.785937,-2.8282 0.430027,-0.79081 1.968866,-3.2201 4.681252,-7.39009 0.921155,-1.41617 1.674827,-2.68421 1.674827,-2.81788 0,-0.13366 -0.625078,-0.38322 -1.389062,-0.55458 -0.763985,-0.17136 -1.567656,-0.37981 -1.785938,-0.46323 -0.696622,-0.26622 -1.178279,-0.37452 -1.653645,-0.37183 -0.254662,0.001 -0.463021,-0.0892 -0.463021,-0.20143 0,-0.19695 -0.186297,-0.24698 -1.322917,-0.35523 -0.291042,-0.0277 -0.529167,-0.13655 -0.529167,-0.24184 0,-0.10529 -0.208359,-0.19615 -0.46302,-0.2019 -0.494186,-0.0112 -1.785938,-0.216 -1.785938,-0.28319 0,-0.0221 -0.344079,-0.0853 -0.764619,-0.14024 -0.420541,-0.055 -0.956322,-0.18532 -1.190625,-0.28965 -0.234303,-0.10433 -0.515303,-0.21485 -0.624443,-0.24561 -0.109141,-0.0308 -0.228203,-0.0807 -0.264583,-0.11105 -0.03638,-0.0303 -0.304271,-0.0964 -0.595313,-0.14685 -1.821942,-0.31583 -2.418888,-0.47406 -2.718373,-0.7205 -0.185417,-0.15258 -0.402739,-0.2118 -0.482937,-0.1316 -0.0802,0.0802 -0.523804,0.0307 -0.985793,-0.10993 -0.461989,-0.14067 -1.126026,-0.314 -1.475637,-0.38519 -1.053355,-0.21449 -2.779049,-1.35433 -3.243379,-2.14229 -0.414932,-0.70414 -0.572697,-1.72153 -0.513396,-3.31077 0.06371,-1.70741 3.519811,-3.98674 8.096598,-5.33978 0.145521,-0.043 0.621771,-0.2274 1.058334,-0.40973 0.436562,-0.18233 0.939132,-0.35593 1.116821,-0.38577 0.177689,-0.0298 0.405892,-0.13709 0.507118,-0.23832 0.101225,-0.10122 0.4141,-0.18404 0.695276,-0.18404 0.281176,0 0.88641,-0.16504 1.344965,-0.36676 1.481323,-0.65162 3.808537,-1.52218 4.237416,-1.58513 0.229604,-0.0337 0.500283,-0.14409 0.601509,-0.24532 0.101226,-0.10122 0.398289,-0.18404 0.66014,-0.18404 0.261851,0 0.867085,-0.17081 1.344965,-0.37959 0.47788,-0.20877 2.297622,-0.81348 4.043872,-1.34379 1.74625,-0.53032 3.621485,-1.13245 4.167188,-1.33807 0.545703,-0.20562 0.99401,-0.28552 0.996238,-0.17755 0.0021,0.10796 0.09153,0.074 0.198437,-0.0755 0.106913,-0.14949 0.908762,-0.48437 1.781887,-0.74418 2.721253,-0.80974 10.774219,-3.37419 12.355443,-3.93456 1.50365,-0.53287 1.50645,-0.53589 1.0885,-1.17377 -0.31108,-0.47477 -0.38313,-1.035411 -0.27967,-2.176331 0.13393,-1.47707 0.1165,-1.53244 -0.44835,-1.42446 -0.997943,0.19077 -2.64898,-0.41326 -3.468109,-1.2688 -0.674603,-0.704588 -0.779237,-1.011912 -0.767151,-2.253178 l 0.014,-1.437306 h -0.841496 c -0.462823,0 -0.989714,-0.178594 -1.170872,-0.396875 -0.181157,-0.218282 -0.463626,-0.400617 -0.627708,-0.405189 -0.537699,-0.01497 -1.293857,-1.354362 -1.425879,-2.525646 -0.07336,-0.650809 -0.344292,-1.342686 -0.625417,-1.597101 -0.272798,-0.246878 -0.495995,-0.723885 -0.495995,-1.060011 0,-0.340355 -0.234466,-0.736627 -0.529167,-0.894345 -0.291042,-0.15576 -0.529167,-0.217884 -0.529167,-0.138049 0,0.218493 -1.82073,-0.586361 -2.209704,-0.976804 -0.860372,-0.863616 -1.292228,-1.875248 -1.310241,-3.06927 -0.01868,-1.238803 -0.05345,-1.292378 -1.284766,-1.979845 -1.708087,-0.953659 -2.451984,-2.371699 -2.201103,-4.195815 0.195379,-1.420572 1.26923,-2.995197 1.882224,-2.75997 0.198599,0.07621 0.36109,0.02323 0.36109,-0.117715 0,-0.140954 0.168059,-0.256281 0.373465,-0.256281 0.207476,0 0.34058,-0.20579 0.299474,-0.463021 -0.107286,-0.671417 0.518552,-1.771256 1.2988,-2.282494 0.791199,-0.518414 2.344134,-0.70082 3.408997,-0.400418 0.623258,0.175824 0.848895,0.09736 1.330624,-0.462677 1.121773,-1.304141 4.122544,-1.209045 5.243023,0.166153 0.43893,0.538713 0.456147,0.539396 1.26084,0.05003 0.548979,-0.333854 1.155589,-0.462161 1.854538,-0.392266 0.80864,0.08087 1.09682,-0.0047 1.30108,-0.386371 0.21768,-0.406744 0.11577,-0.569193 -0.59834,-0.953765 -1.298377,-0.699224 -1.847666,-1.813125 -1.662994,-3.372389 0.142795,-1.205682 0.105314,-1.316363 -0.56274,-1.661827 -1.594689,-0.824645 -2.484697,-2.839135 -2.180989,-4.936572 0.157575,-1.088225 0.09843,-1.256326 -0.790261,-2.246045 -0.778602,-0.867113 -0.967284,-1.293177 -0.995963,-2.248958 -0.01945,-0.648547 0.126371,-1.471438 0.324062,-1.828652 0.325057,-0.587353 0.292505,-0.737272 -0.340318,-1.567349 -0.533177,-0.69937 -0.694732,-1.2061 -0.678648,-2.128647 0.02524,-1.447866 0.696016,-2.846723 1.552075,-3.236769 0.3762,-0.171408 0.684784,-0.598736 0.781476,-1.082194 0.167328,-0.836649 1.890233,-2.6862 2.27865,-2.446147 0.123706,0.07645 0.299704,0.01799 0.391107,-0.129891 0.0914,-0.147895 0.787514,-0.268899 1.546903,-0.268899 1.34407,0 2.30493,0.400217 2.9966,1.24814 0.26522,0.325138 0.41803,0.319815 1.11134,-0.03871 1.65885,-0.857826 3.90703,-0.266845 4.81059,1.264561 0.50077,0.848748 0.61148,0.902623 1.58623,0.771884 0.67102,-0.09001 1.04788,-0.03586 1.04788,0.150567 0,0.160112 0.14882,0.235439 0.33072,0.167391 0.18191,-0.06805 0.68792,0.113496 1.12448,0.403434 0.43657,0.289938 0.69982,0.527947 0.58501,0.528905 -0.11481,0.0011 0.034,0.262318 0.33073,0.5808 0.29671,0.318481 0.53947,0.784995 0.53947,1.036693 0,0.929854 0.26763,1.202573 1.06524,1.085508 0.42919,-0.06299 0.96166,-0.04496 1.18325,0.04008 0.2216,0.08503 0.46164,0.15735 0.53343,0.160705 0.40227,0.01881 1.71151,1.490517 1.59532,1.793298 -0.0758,0.197575 -0.0328,0.294336 0.0955,0.215024 0.52121,-0.322122 0.59436,1.546781 0.14179,3.62245 -0.14985,0.687314 -0.10642,0.727605 0.78425,0.727605 1.66095,0 2.90192,1.536781 2.82453,3.497807 -0.0259,0.655621 0.0528,0.716632 0.88328,0.685408 1.08338,-0.04073 2.11564,0.576414 2.77347,1.658123 l 0.47769,0.785503 2.18642,-2.648477 c 1.2025299,-1.456663 2.3099599,-2.572117 2.4609699,-2.478791 0.15101,0.09333 0.20184,0.05203 0.11296,-0.09178 -0.23338,-0.37761 8.34753999,-8.551539 8.97731999,-8.551539 0.11093,0 0.50586001,-0.281482 0.87762001,-0.62552 1.09288,-1.011359 6.32095,-4.252746 9.1613001,-5.679977 3.02207,-1.518544 7.36502,-3.45721 8.0089,-3.575122 0.24149,-0.04423 0.91128,-0.284631 1.48842,-0.534237 0.57715,-0.249606 1.23199,-0.488723 1.45521,-0.531371 0.22322,-0.04265 0.94164,-0.238055 1.59648,-0.434236 0.65485,-0.196181 1.25016,-0.373254 1.32292,-0.393495 0.0728,-0.02024 0.60854,-0.172131 1.19062,-0.337533 0.58209,-0.165402 1.47506,-0.369754 1.98438,-0.454116 0.50932,-0.08436 1.11703,-0.211152 1.35046,-0.281757 0.69854,-0.211289 4.77897,-0.927137 6.05787,-1.062762 0.65485,-0.06944 1.48828,-0.198637 1.85209,-0.287093 0.81141,-0.197293 17.77153,-0.350805 18.08169,-0.163664 0.12228,0.07378 0.7176,0.166476 1.32292,0.205998 1.35156,0.08824 3.0955,0.338327 4.67247,0.670039 0.65484,0.137745 1.60734,0.317234 2.11666,0.398865 1.28766,0.206378 5.36828,1.209316 5.68389,1.39699 0.14297,0.08501 0.44062,0.172088 0.66146,0.193505 0.75102,0.07283 6.22082,1.773226 6.55309,2.037156 0.1819,0.144489 0.33073,0.196937 0.33073,0.116554 0,-0.503014 9.85158,4.237768 12.78313,6.151502 1.12744,0.736004 2.11406,1.338191 2.19248,1.338191 0.13431,0 2.30991,1.444495 2.88376,1.914681 0.14552,0.119231 1.15584,0.873627 2.24514,1.676434 3.04172,2.241722 6.772882,5.610426 9.813942,8.860596 1.51668,1.62096 2.80617,3.084087 2.86555,3.251391 0.0594,0.167304 0.33526,0.46537 0.61309,0.662368 0.27781,0.197001 0.44366,0.51834 0.36855,0.714089 -0.10268,0.26756 0.008,0.302432 0.44525,0.140481 0.5218,-0.193207 0.57424,-0.376026 0.50838,-1.772423 -0.13276,-2.815097 1.64168,-4.764907 4.10833,-4.514344 l 1.12448,0.114226 V 54.36189 c 0,-1.72407 0.91566,-3.458363 1.90508,-3.608281 0.18913,-0.02866 0.49572,-0.146942 0.6813,-0.26285 0.18558,-0.115912 0.84042,-0.174046 1.45521,-0.129186 l 1.11779,0.08156 0.13448,-1.318583 c 0.15848,-1.553784 0.97468,-2.988516 2.06528,-3.63038 0.82072,-0.483031 2.69916,-0.670848 3.6565,-0.365601 0.44278,0.141177 0.60023,0.04982 0.72971,-0.423373 0.53071,-1.939576 3.40358,-3.15251 5.54153,-2.33966 0.52081,0.198012 0.75027,0.140174 1.13634,-0.286425 0.67786,-0.749032 2.08486,-1.284776 3.37107,-1.283612 1.21671,0.0011 2.81196,0.823902 2.81196,1.450353 0,0.308732 0.28866,0.389347 1.25677,0.350988 1.75562,-0.06956 3.09818,0.637609 3.94107,2.075894 0.43251,0.738026 0.63539,1.406737 0.55475,1.828562 -0.10593,0.554141 0.018,0.725652 0.74301,1.028597 0.47858,0.199961 1.00355,0.612838 1.1666,0.917506 0.37942,0.708956 0.26964,2.684637 -0.1583,2.848853 -0.1797,0.06896 -0.25405,0.314794 -0.16522,0.546296 0.11808,0.307708 0.047,0.376976 -0.26419,0.257551 -0.65492,-0.251317 -0.71543,0.373687 -0.13024,1.345184 0.63864,1.060233 0.54171,3.377967 -0.1628,3.893124 -0.56566,0.413615 -0.54424,0.805931 0.10098,1.849932 0.40033,0.647737 0.49223,1.115036 0.37038,1.883312 -0.2216,1.397177 -0.51595,1.871038 -1.46811,2.363417 -0.80797,0.417819 -0.80994,0.424016 -0.25674,0.81149 0.44854,0.314166 0.55746,0.666496 0.55746,1.803252 0,1.287687 -0.0834,1.485974 -0.94117,2.239147 l -0.94116,0.826352 0.54429,0.691947 c 1.02252,1.299921 0.47418,3.431645 -1.04453,4.060716 -0.5949,0.246414 -0.77155,0.456398 -0.64344,0.764871 0.67265,1.619734 0.36323,3.732498 -0.54663,3.732498 -0.44428,0 -0.53996,0.673618 -0.13153,0.926041 0.14552,0.08994 0.26458,0.513683 0.26458,0.941658 0,0.714224 0.0767,0.778134 0.93435,0.778134 0.58486,0 0.99109,0.147881 1.08606,0.395356 0.0834,0.217445 0.25373,0.332301 0.37842,0.255238 0.25258,-0.156101 1.30534,1.752061 1.30534,2.365957 0,0.61772 0.35314,0.686755 1.4727,0.287901 2.2857,-0.814302 4.25828,-0.162515 5.20278,1.71912 0.37435,0.745757 0.61547,0.917546 1.32292,0.942512 1.3782,0.04864 2.70363,0.826881 3.34165,1.962092 0.31834,0.566412 0.55131,1.127646 0.51771,1.247187 -0.0336,0.119539 0.30713,0.602303 0.75717,1.072811 1.7276,1.806139 1.2558,4.777361 -1.03397,6.511551 -0.47593,0.36046 -1.10037,0.69581 -1.38764,0.74522 -0.28727,0.0494 -0.87047,0.41727 -1.29601,0.81745 -0.42554,0.40018 -0.99418,0.727601 -1.26363,0.727601 -0.26946,0 -0.48993,0.13056 -0.48993,0.29012 0,0.18398 -0.48404,0.25658 -1.32308,0.19844 -1.02981,-0.0714 -1.33053,-0.004 -1.35668,0.30519 -0.0185,0.21828 -0.0618,0.66679 -0.0962,0.9967 -0.0344,0.3299 -0.4062,0.8953 -0.82613,1.25644 -1.00059,0.86052 -2.29345,0.86489 -3.41224,0.0116 l -0.84659,-0.64573 -0.5127,0.9736 c -0.75569,1.43501 -2.09014,2.252 -3.3528,2.0527 -0.55595,-0.0878 -1.30009,-0.3491 -1.65364,-0.58076 -0.63522,-0.41621 -0.64284,-0.41102 -0.64284,0.43789 0,0.64767 -0.24054,1.08594 -0.97749,1.78098 -0.90677,0.85519 -1.06881,0.91108 -2.23952,0.77243 l -1.26202,-0.14947 -0.16922,0.90202 c -0.1122,0.59807 -0.47655,1.13643 -1.08126,1.59767 -0.78831,0.60127 -1.10098,0.67883 -2.30475,0.57174 -0.766,-0.0682 -1.77196,-0.32002 -2.23548,-0.55972 l -0.84276,-0.43581 v 1.00625 c 0,1.24405 -0.55795,2.07671 -1.7157,2.56045 -1.11495,0.46586 -2.7837,0.10226 -3.64635,-0.79449 l -0.59107,-0.61443 -0.33959,2.03675 c -0.60933,3.65462 -0.63899,3.95744 -0.40193,4.10395 0.1288,0.0796 2.07474,0.63957 4.32431,1.24437 2.24957,0.6048 5.16169,1.38879 6.47138,1.7422 1.30968,0.35342 2.69849,0.7059 3.08624,0.78329 0.38775,0.0774 2.35228,0.61833 4.36563,1.20208 2.01334,0.58374 4.54408,1.29951 5.62386,1.5906 3.46842,0.93503 7.02697,2.14056 7.22698,2.44829 0.10692,0.16449 0.19621,0.19519 0.19844,0.0682 0.002,-0.12696 0.15457,-0.10592 0.33853,0.0468 0.23489,0.19494 0.92416,0.17084 2.3151,-0.0809 6.27506,-1.13587 8.3414,-1.54099 10.84417,-2.12608 1.52797,-0.3572 3.01625,-0.69094 3.30729,-0.74166 0.29105,-0.0507 0.82683,-0.1669 1.19063,-0.2582 0.3638,-0.0913 1.01864,-0.22829 1.45521,-0.30443 3.79014,-0.66099 3.85231,-0.9805 0.39687,-2.03961 -1.38245,-0.42372 -2.8112,-0.83024 -3.175,-0.90336 -0.3638,-0.0731 -1.07818,-0.26159 -1.5875,-0.41881 -1.56766,-0.48391 -3.28751,-1.04891 -3.70416,-1.21689 -0.21829,-0.088 -0.57547,-0.17252 -0.79375,-0.18781 -0.21829,-0.0153 -1.44689,-0.35976 -2.73023,-0.76549 -1.28334,-0.40572 -2.68511,-0.7822 -3.11505,-0.83661 -0.42993,-0.0544 -0.92774,-0.19018 -1.10623,-0.30171 -0.1785,-0.11153 -0.4436,-0.23365 -0.58912,-0.27136 -0.38252,-0.0991 -2.3508,-0.56992 -3.50573,-0.8385 -0.5457,-0.1269 -1.34937,-0.37625 -1.78594,-0.55411 -0.43656,-0.17786 -1.03187,-0.35733 -1.32291,-0.39882 -1.17055,-0.16688 -4.10104,-1.00889 -4.10104,-1.17834 0,-0.0996 -0.32743,-0.17438 -0.72761,-0.16627 -1.09394,0.0221 -0.89283,-0.63567 0.33073,-1.08184 3.76227,-1.37187 6.60051,-1.95468 7.71793,-1.58479 0.31579,0.10454 0.79204,0.23862 1.05833,0.29796 0.26629,0.0593 1.55572,0.41304 2.86541,0.78601 1.30969,0.37296 2.66756,0.74179 3.01749,0.81962 0.34994,0.0778 0.86368,0.26323 1.14165,0.41199 0.60926,0.32607 1.49456,0.5508 2.12471,0.53937 0.25466,-0.005 0.46302,0.0777 0.46302,0.18303 0,0.1053 0.20836,0.20077 0.46302,0.21216 0.49427,0.0221 1.33891,0.25417 6.94532,1.90818 5.57159,1.64374 7.31268,2.28207 8.31982,3.05026 0.92239,0.70354 1.68328,1.74502 1.28063,1.75287 -0.11427,0.002 -0.0708,0.0915 0.0965,0.19844 0.54229,0.34648 0.64788,2.10286 0.19455,3.23584 -0.23318,0.58277 -0.53713,1.05959 -0.67543,1.05959 -0.1383,0 -0.18772,0.10315 -0.1098,0.22922 0.28347,0.45867 -1.7343,1.73976 -3.14232,1.99508 -0.39706,0.072 -1.2763,0.30905 -1.95388,0.52678 -0.67757,0.21773 -1.58914,0.45822 -2.0257,0.53442 -0.43656,0.0762 -1.57983,0.31511 -2.54059,0.53092 -3.08449,0.69285 -4.06559,0.88686 -5.13233,1.01487 -0.29104,0.0349 -0.58869,0.13126 -0.66145,0.21408 -0.15892,0.18089 -4.50196,1.04005 -5.25743,1.04005 -0.84922,0 -0.90814,0.45938 -0.18119,1.41248 0.37187,0.48753 0.67612,0.96448 0.67612,1.05989 0,0.0954 0.18893,0.38182 0.41984,0.63648 0.23091,0.25466 2.18934,3.02287 4.35205,6.15156 2.16272,3.1287 4.19629,6.02899 4.51905,6.4451 0.32276,0.4161 0.58683,0.92211 0.58683,1.12448 0,0.20235 0.0555,0.31243 0.12332,0.2446 0.0678,-0.0678 0.32722,0.14054 0.57644,0.46302 0.95054,1.23003 2.38646,3.36647 2.45147,3.64747 0.0373,0.16132 0.38275,0.63906 0.76761,1.06164 1.17993,1.29559 6.58982,9.53192 6.43036,9.78994 -0.0824,0.13337 -0.0292,0.2425 0.11835,0.2425 0.1475,0 0.35753,0.44649 0.46669,0.99219 0.27861,1.39263 0.27861,1.43006 0,2.3151 -0.63129,2.01403 -1.94617,2.93739 -7.71633,5.41875 -3.03558,1.3054 -3.87926,1.6575 -4.10104,1.71153 -0.0728,0.0177 -0.37042,0.16333 -0.66146,0.32357 -0.29104,0.16023 -1.60073,0.72799 -2.91042,1.26167 -1.30968,0.53368 -2.8575,1.1865 -3.43958,1.4507 -0.58208,0.26421 -1.32622,0.56346 -1.65365,0.66502 l -0.59531,0.18463 -0.0313,27.16811 c -0.0172,14.94245 -0.0165,27.25953 0.002,27.37127 0.0181,0.11174 -0.1502,0.6414 -0.374,1.17703 -0.47679,1.14112 -1.52799,2.30086 -2.62347,2.89436 -0.98805,0.53593 -4.37993,1.69578 -4.37993,1.49812 0,-0.0819 -0.1673,-0.0101 -0.37178,0.15962 -0.20448,0.1697 -4.16331,1.60174 -8.7974,3.18231 -4.63408,1.58056 -8.93163,3.05836 -9.55009,3.28398 -0.61846,0.22563 -1.12448,0.3414 -1.12448,0.25728 0,-0.0841 -0.14883,-0.0318 -0.33073,0.11634 -0.1819,0.1481 -1.10463,0.51259 -2.05052,0.80997 -0.94588,0.29739 -3.4462,1.15244 -5.55625,1.90012 -2.11005,0.74769 -4.01505,1.40306 -4.23333,1.45639 -0.21828,0.0533 -1.71929,0.55912 -3.33558,1.12398 -1.61629,0.56486 -3.18835,1.00863 -3.49346,0.98615 -0.30512,-0.0225 -0.50469,0.0401 -0.4435,0.13914 0.0874,0.14149 -1.6324,0.8558 -2.25246,0.93552 -0.0728,0.009 -0.60754,0.22407 -1.18839,0.47715 -0.58085,0.25308 -1.58801,0.57936 -2.23814,0.72505 -0.65012,0.1457 -1.30597,0.35967 -1.45744,0.4755 -0.21293,0.16283 -4.52246,1.62364 -5.1702,1.75256 -0.0728,0.0145 -0.59142,0.22667 -1.15258,0.47152 -0.561172,0.24485 -1.116552,0.38571 -1.234182,0.313 -0.11763,-0.0727 -0.25381,-0.0158 -0.30262,0.1264 -0.0488,0.14222 -0.32687,0.29523 -0.61791,0.34003 -0.29104,0.0448 -0.67755,0.17406 -0.8589,0.28724 -0.18135,0.11318 -0.53854,0.2502 -0.79375,0.30449 -0.25521,0.0543 -1.14863,0.33878 -1.98537,0.63221 -0.83674,0.29342 -1.52135,0.4658 -1.52135,0.38306 0,-0.0827 -0.14883,-0.0315 -0.33073,0.11396 -0.32139,0.25694 -5.0415,1.8964 -5.78231,2.0084 -0.20309,0.0307 -0.4959,0.1351 -0.65068,0.23197 -0.37553,0.23504 -4.86854,1.76253 -5.53941,1.88323 -0.29104,0.0524 -0.72823,0.1818 -0.97152,0.28763 -0.2433,0.10583 -0.60049,0.2248 -0.79375,0.26437 -0.19327,0.0396 -0.52999,0.14018 -0.74827,0.22357 -0.75367,0.28793 -5.68932,1.98736 -5.95312,2.04976 -0.4975,0.11768 -1.05843,0.30469 -1.98438,0.66159 -1.90273,0.73338 -3.85497,1.28022 -4.41866,1.23771 -0.32021,-0.0242 -0.65466,0.0733 -0.74322,0.21663 -0.15206,0.24604 -3.35588,0.38263 -3.59142,0.15311 z m 4.4439,-5.20751 c 0.8422,-0.30384 1.88846,-0.70747 2.32503,-0.89697 0.75171,-0.32629 3.61871,-1.20136 4.27278,-1.30414 0.16722,-0.0263 0.46488,-0.18073 0.66146,-0.34323 0.19658,-0.1625 0.806,-0.37928 1.35425,-0.48174 1.27091,-0.23751 1.85417,-0.98709 2.54961,-3.27667 0.50984,-1.67854 1.24116,-2.58263 1.46044,-1.80546 0.0506,0.17945 0.22127,0.80481 0.37919,1.38968 0.42557,1.57617 0.9453,2.18388 1.55181,1.8145 0.26831,-0.16339 0.90064,-0.3948 1.40518,-0.51423 1.17357,-0.27779 1.0718,-0.24699 1.8434,-0.55778 0.3638,-0.14653 1.4949,-0.53891 2.51354,-0.87195 1.01865,-0.33304 2.09021,-0.69607 2.38125,-0.80675 0.29104,-0.11067 1.06495,-0.3457 1.71979,-0.52227 0.65485,-0.17657 1.30969,-0.4106 1.45521,-0.52006 0.14552,-0.10946 1.69333,-0.64862 3.43958,-1.19813 1.74625,-0.5495 3.29407,-1.08189 3.43959,-1.18309 0.14552,-0.10119 1.33614,-0.51873 2.645832,-0.92786 1.30969,-0.40913 2.73844,-0.89273 3.175,-1.07467 0.74838,-0.3119 1.95708,-0.73293 2.24896,-0.7834 0.55035,-0.0952 3.4853,-1.05081 4.23333,-1.37841 0.98584,-0.43175 5.62751,-2.0445 9.12813,-3.17156 1.16416,-0.37482 2.32567,-0.78645 2.58111,-0.91473 0.99476,-0.49957 4.49932,-1.53849 4.72313,-1.40017 0.13001,0.0804 0.23638,0.0289 0.23638,-0.11432 0,-0.14323 1.27992,-0.67268 2.84427,-1.17656 2.61112,-0.84104 6.31713,-2.09906 7.60677,-2.58215 0.29104,-0.10902 1.36261,-0.46237 2.38125,-0.78522 1.01865,-0.32285 2.09021,-0.68795 2.38125,-0.81134 0.56724,-0.24048 3.00174,-1.05784 3.43958,-1.15481 0.14553,-0.0322 0.60196,-0.19679 1.0143,-0.36569 0.41234,-0.1689 1.36484,-0.49237 2.11667,-0.71881 0.75182,-0.22645 1.73294,-0.59026 2.18026,-0.80847 0.44731,-0.21821 0.9831,-0.43053 1.19062,-0.47181 0.49415,-0.0983 1.86014,-0.62533 2.35568,-0.90886 0.21497,-0.123 0.47099,-0.51003 0.56894,-0.86006 0.20838,-0.74469 0.2979,-50.88427 0.0912,-51.09095 -0.0768,-0.0768 -1.89249,0.61392 -4.03489,1.5349 -2.14241,0.92097 -4.07984,1.67832 -4.3054,1.683 -0.22556,0.005 -0.52321,0.11708 -0.66146,0.24978 -0.27893,0.26773 -7.71174,3.1702 -9.78192,3.81977 -0.72454,0.22735 -2.32938,0.78651 -3.56631,1.24259 -1.23692,0.45608 -2.48708,0.89529 -2.77812,0.97602 -0.29104,0.0807 -0.64823,0.237 -0.79375,0.34728 -0.14552,0.11028 -0.7706,0.33579 -1.38906,0.50115 l -1.12448,0.30065 v 22.20088 22.20087 l -1.32292,0.66447 c -0.7276,0.36545 -1.32292,0.6071 -1.32292,0.53699 0,-0.0701 -0.26789,0.0422 -0.59531,0.24953 -0.32742,0.20735 -1.01199,0.46421 -1.52126,0.5708 -0.50927,0.10658 -1.40224,0.41159 -1.98438,0.6778 -1.38546,0.63355 -13.13247,5.01256 -16.95402,6.32005 -1.64145,0.56159 -3.20128,0.98942 -3.4663,0.95072 -0.435332,-0.0636 -0.487302,-0.41284 -0.538342,-3.61738 -0.33576,-21.08283 -0.79224,-39.18938 -1.00458,-39.84715 -0.0728,-0.22537 -0.54529,-0.13885 -1.63726,0.29979 -0.84425,0.33913 -2.24938,0.87693 -3.1225,1.1951 -0.87313,0.31817 -1.7661,0.67025 -1.98438,0.78242 -0.21828,0.11216 -1.24726,0.41122 -2.28662,0.66459 -1.74505,0.42539 -1.95271,0.42811 -2.71198,0.0355 -0.45223,-0.23386 -0.82223,-0.51875 -0.82223,-0.63309 0,-0.11435 -0.24639,-0.47237 -0.54752,-0.7956 -0.74591,-0.80064 -3.24466,-4.85652 -3.24476,-5.26677 -5e-5,-0.1819 -0.0884,-0.33073 -0.19636,-0.33073 -0.17453,0 -1.68583,-2.58041 -4.02898,-6.87917 -0.43626,-0.80036 -1.31108,-2.31638 -1.94404,-3.36893 -0.63296,-1.05255 -1.15084,-1.96063 -1.15084,-2.01797 0,-0.0573 -0.72741,-1.39881 -1.61646,-2.98106 -0.88905,-1.58226 -1.96061,-3.50191 -2.38125,-4.26589 -0.42063,-0.76398 -1.14226,-2.07367 -1.60362,-2.91042 -0.46136,-0.83674 -1.34026,-2.47385 -1.95312,-3.63802 -4.03348,-7.66183 -3.71702,-7.80994 -3.88383,1.8178 -0.13481,7.78023 -0.37867,10.16261 -0.77538,7.57491 -0.10039,-0.65484 -0.19175,-2.55984 -0.20303,-4.23333 -0.0321,-4.76135 -0.34784,-11.37708 -0.54303,-11.37708 -0.18846,0 -2.48669,4.69363 -4.85822,9.92187 -0.7921,1.74625 -2.80689,5.97297 -4.47732,9.39271 -1.67042,3.41974 -4.22592,8.66332 -5.67887,11.6524 -3.85956,7.94008 -4.28548,8.17784 -10.65503,5.94791 -1.09141,-0.3821 -2.69875,-0.87028 -3.57188,-1.08485 -0.87312,-0.21457 -1.82562,-0.49108 -2.11667,-0.61448 -0.85736,-0.36352 -25.1924201,-8.38406 -27.6489501,-9.11277 -1.23693,-0.36692 -3.14193001,-0.91889 -4.23334,-1.2266 -1.0914,-0.30771 -2.2225,-0.6754 -2.51354,-0.8171 -0.29104,-0.14169 -0.81298,-0.3109 -1.15987,-0.37602 -0.34689,-0.0651 -1.59705,-0.42076 -2.77813,-0.79031 -3.6060399,-1.12828 -7.0264899,-2.15094 -10.2172099,-3.05476 -1.67348,-0.47405 -3.74698,-1.0834 -4.60776,-1.35412 -0.86077,-0.27072 -1.72989,-0.49222 -1.93136,-0.49222 -0.20148,0 -0.70365,-0.17444 -1.11593,-0.38764 -0.41229,-0.2132 -1.15052,-0.45332 -1.64051,-0.53359 -0.48999,-0.0803 -1.12902,-0.25009 -1.42006,-0.37737 -0.44865,-0.19621 -3.60453,-1.14459 -4.89479,-1.47095 -0.21828,-0.0552 -0.45641,-0.12322 -0.52917,-0.15114 -0.0728,-0.0279 -0.25135,-0.0736 -0.39687,-0.10151 -0.14552,-0.0279 -0.44318,-0.12359 -0.66146,-0.21261 -0.21828,-0.089 -0.69453,-0.22399 -1.05833,-0.29993 -0.59904,-0.12504 -2.43246,-0.59622 -3.43959,-0.88395 -0.21828,-0.0624 -0.42448,-0.11087 -0.45822,-0.1078 -0.0337,0.003 -0.48022,-0.16943 -0.992184,-0.38334 -0.511963,-0.21392 -0.930844,-0.32078 -0.930844,-0.23748 0,0.0833 -0.146735,0.0608 -0.326077,-0.0501 -0.179343,-0.11084 -0.506765,-0.21626 -0.727604,-0.23426 -0.22084,-0.018 -1.26473,-0.29154 -2.319756,-0.60784 -6.033521,-1.8089 -8.782401,-2.53037 -8.960895,-2.35188 -0.156014,0.15601 -0.267477,53.44069 -0.114847,54.90296 0.116522,1.11635 0.511236,1.70034 1.219493,1.80429 0.347922,0.0511 2.754479,0.78598 3.55677,1.08617 0.218281,0.0817 0.575469,0.17952 0.79375,0.21743 0.218281,0.0379 1.11125,0.27236 1.984375,0.52098 0.873125,0.24862 2.06375,0.56143 2.645833,0.69513 0.582084,0.1337 1.236927,0.3208 1.455209,0.41576 0.218281,0.095 0.575468,0.19783 0.793749,0.22857 0.403683,0.0569 5.413068,1.36543 6.022048,1.57311 0.18343,0.0626 0.38959,0.12467 0.45813,0.13804 0.0685,0.0134 0.51377,0.1446 0.98941,0.29162 0.9172,0.28352 4.13182,1.14867 5.88145,1.58287 0.57636,0.14303 1.18262,0.37185 1.34726,0.50849 0.16464,0.13664 0.36379,0.18399 0.44256,0.10522 0.0788,-0.0788 0.84172,0.0862 1.69545,0.36649 1.59881,0.525 2.6505,0.804 3.80119,1.00842 0.3638,0.0646 1.67349,0.43046 2.91042,0.81296 1.23693,0.38249 2.43636,0.73085 2.66541,0.77413 0.49921,0.0943 2.56185,0.64805 5.27209,1.41534 1.0913999,0.30898 2.7582799,0.74676 3.7041599,0.97285 0.94589,0.22608 1.83291,0.51725 1.97115,0.64705 0.13824,0.12978 0.58473,0.23598 0.99219,0.23598 0.40746,0 0.74083,0.10647 0.74083,0.23659 0,0.13013 0.26789,0.2375 0.59531,0.23861 0.32742,0.001 1.90499999,0.35812 3.50573,0.79335 1.60073,0.43523 3.86292,1.05078 5.02709,1.36788 1.16416,0.31711 3.00963,0.81344 4.1010401,1.10296 1.0914,0.28953 2.16297,0.59921 2.38125,0.68817 0.21828,0.089 0.99218,0.30272 1.71979,0.475 1.67968,0.3977 11.24515,3.01671 11.77396,3.22368 0.21828,0.0854 0.63481,0.20075 0.92562,0.25625 0.29081,0.0555 1.36237,0.33772 2.38125,0.62714 1.01888,0.28942 2.26922,0.63573 2.77854,0.76956 0.50933,0.13384 1.58089,0.44179 2.38125,0.68434 0.80037,0.24255 1.75287,0.49091 2.11667,0.55191 0.3638,0.061 0.95911,0.21873 1.32292,0.35052 0.3638,0.13179 1.4853,0.43695 2.49222,0.67813 1.00692,0.24118 2.13801,0.55791 2.51354,0.70384 0.37553,0.14593 0.98043,0.3184 1.34423,0.38327 0.36381,0.0649 1.43537,0.34251 2.38125,0.61696 1.6004,0.46436 3.60271,1.02416 5.82084,1.62736 0.50932,0.13851 1.20424,0.31175 1.54425,0.38498 0.64843,0.13966 2.12167,0.53248 5.86408,1.5636 2.84253,0.78318 4.09128,0.80711 6.00935,0.11513 z m 38.082402,-20.21277 2.15529,-0.7697 0.19546,-5.70286 c 0.1759,-5.13199 -0.0235,-17.44813 -0.2868,-17.7114 -0.0579,-0.0579 -1.26905,0.3041 -2.69143,0.80444 l -2.58615,0.90972 0.005,3.09667 c 0.0283,17.2164 0.1181,20.29272 0.59023,20.21705 0.25466,-0.0408 1.4329,-0.42058 2.61831,-0.84392 z m 6.31137,-2.34756 2.38125,-0.88412 0.0582,-11.54947 c 0.0671,-13.32312 0.44614,-12.01578 -3.12475,-10.77849 l -2.22511,0.77098 -0.0689,11.66443 c -0.0546,9.2437 2.6e-4,11.66406 0.26458,11.66261 0.18342,-0.001 1.40505,-0.39967 2.71473,-0.88594 z m 8.9191,-3.3753 c 0.45288,-0.24237 0.47543,-0.8848 0.41027,-11.68889 -0.0449,-7.44223 -0.1613,-11.41466 -0.33353,-11.38153 -0.14552,0.028 -1.45521,0.46351 -2.91042,0.96782 l -2.64583,0.91692 -0.049,11.45442 c -0.027,6.29993 0.002,11.53694 0.0643,11.63779 0.10438,0.16888 4.3621,-1.31668 5.46424,-1.90653 z m 3.91407,-1.39489 c 1.34459,-0.54242 2.29619,-1.09005 2.41373,-1.38906 0.26168,-0.66571 0.27791,-21.83862 0.0171,-22.24923 -0.15431,-0.24288 -0.81794,-0.0861 -2.64179,0.6243 l -2.43572,0.94867 v 8.26385 c 0,6.78304 0.2081,14.69693 0.38646,14.69693 0.0223,0 1.03942,-0.40296 2.26025,-0.89546 z m -18.654,-18.11619 c 1.38124,-0.45172 5.17514,-1.76146 14.55208,-5.02374 1.30969,-0.45564 3.33375,-1.17076 4.49792,-1.58914 l 2.11667,-0.7607 0.0792,-7.77562 c 0.0436,-4.27658 0.007,-8.38835 -0.0818,-9.13726 l -0.16099,-1.36164 -0.97658,0.36085 c -5.09651,1.8832 -13.04918,4.82697 -16.05782,5.94398 -2.03729,0.75637 -4.06135,1.47971 -4.49792,1.60742 -0.43656,0.12771 -1.41679,0.50072 -2.17829,0.82891 l -1.38455,0.59671 -0.003,6.21771 c -0.002,3.41974 0.0726,7.36184 0.16524,8.76023 l 0.16839,2.54252 1.08701,-0.34553 c 0.59786,-0.19005 1.80139,-0.57916 2.67452,-0.8647 z M 93.004978,198.88327 c 2.00689,-0.80036 3.79971,-1.45594 3.98405,-1.45684 0.18434,-7.9e-4 0.63283,-0.15651 0.99663,-0.34581 0.3638,-0.1893 2.387862,-0.97513 4.497922,-1.7463 2.11005,-0.77117 4.07458,-1.50471 4.36562,-1.63008 0.29104,-0.12538 2.19604,-0.83315 4.23333,-1.57283 2.03729,-0.73968 4.47808,-1.63101 5.42396,-1.98073 4.80323,-1.77592 10.69077,-3.89927 10.95084,-3.94944 0.16167,-0.0312 0.7702,-0.26407 1.35229,-0.51752 0.58208,-0.25345 1.41552,-0.52911 1.85208,-0.61259 0.43656,-0.0835 1.09141,-0.30942 1.45521,-0.5021 1.04573,-0.55385 3.19003,-1.18582 3.45916,-1.01949 0.13475,0.0833 0.245,0.0493 0.245,-0.0756 0,-0.12488 0.44649,-0.38388 0.99219,-0.57556 1.66755,-0.58572 9.10415,-3.46678 10.64948,-4.12577 0.80036,-0.34131 2.40771,-0.99372 3.57187,-1.44981 1.16417,-0.45608 2.59292,-1.04984 3.175,-1.31945 0.58209,-0.26961 1.65365,-0.7513 2.38125,-1.07041 0.72761,-0.31911 2.09683,-0.93467 3.04271,-1.3679 0.94589,-0.43323 2.85089,-1.26665 4.23334,-1.85205 1.38244,-0.58539 3.10885,-1.32873 3.83645,-1.65187 0.72761,-0.32314 2.96003,-1.28249 4.96094,-2.13189 4.006,-1.70058 4.12894,-1.83959 3.10787,-3.51431 -0.2905,-0.47646 -0.52818,-0.98946 -0.52818,-1.13999 0,-0.23205 -1.05671,-1.71431 -1.98438,-2.78352 -0.62189,-0.71679 -10.12017,-14.58627 -14.56752,-21.27166 -6.01579,-9.04309 -6.0776,-9.12657 -6.76922,-9.14237 -0.34302,-0.008 -0.80227,0.0811 -1.02055,0.19757 -0.53234,0.28411 -6.31636,2.2322 -8.46666,2.85162 -0.94589,0.27247 -3.98198,1.2073 -6.74688,2.0774 -2.76489,0.87009 -6.27724,1.9609 -7.80521,2.42402 -3.47625,1.05364 -5.28321,1.61338 -8.46666,2.6227 -1.38245,0.4383 -4.53761,1.40382 -7.01146,2.14558 -5.4071,1.62129 -18.303342,5.76398 -19.061312,6.12312 -0.29727,0.14085 -0.71399,0.28356 -0.92604,0.31713 -1.03639,0.16408 -1.25647,0.56443 -1.40401,2.55407 -0.18105,2.44149 -0.45171,3.52821 -1.21909,4.89479 -0.75965,1.3528 -1.32369,1.98437 -1.77222,1.98437 -0.19573,0 -0.35587,0.11747 -0.35587,0.26103 0,0.14357 -0.38695,0.42148 -0.8599,0.61759 -2.31237,0.9588 -3.87095,0.75185 -5.87776,-0.78046 l -1.2577,-0.96033 -0.56638,0.6905 c -0.31151,0.37977 -1.13055,0.93591 -1.82009,1.23586 -1.0817,0.47054 -1.4084,0.50474 -2.38125,0.24928 -1.08589,-0.28513 -3.11192,-2.00786 -3.11192,-2.64604 0,-0.15025 -0.35281,0.0877 -0.78403,0.52888 -1.27836,1.30775 -2.72009,1.92695 -4.24122,1.82155 -0.72879,-0.0505 -1.325,-0.0683 -1.32491,-0.0395 2.2e-4,0.071 2.49193,4.59624 3.61334,6.56223 0.49804,0.87312 1.1092,2.00422 1.35815,2.51354 0.24894,0.50932 0.52042,0.98557 0.60328,1.05833 0.0828,0.0728 0.98795,1.68011 2.01133,3.57188 1.02338,1.89177 2.11237,3.88242 2.41997,4.42367 0.30761,0.54125 0.99738,1.7914 1.53284,2.77812 0.53545,0.98672 1.06032,1.9131 1.16638,2.05862 0.10606,0.14552 1.32259,2.28865 2.70341,4.7625 2.73429,4.89872 2.87208,5.14137 5.06273,8.91566 0.81903,1.41112 1.48915,2.66519 1.48915,2.78684 0,0.42252 1.1592,1.65896 1.55533,1.65896 0.21913,0 2.04043,-0.65484 4.04732,-1.45521 z m -51.65923,-0.76287 c 0.63539,-1.02808 2.92949,-5.59824 2.92949,-5.83594 0,-0.0872 0.31794,-0.66223 0.70654,-1.2778 0.38859,-0.61557 0.68901,-1.17875 0.6676,-1.25151 -0.0214,-0.0728 0.60024,-1.44198 1.38144,-3.04271 0.78119,-1.60073 2.04397,-4.2201 2.80615,-5.82083 0.76219,-1.60073 2.44198,-5.07998 3.73287,-7.73166 1.29089,-2.65168 2.34707,-4.94364 2.34707,-5.09323 0,-0.14959 0.11906,-0.27199 0.26458,-0.27199 0.14553,0 0.24755,-0.0893 0.22673,-0.19844 -0.0783,-0.41055 0.63031,-1.91822 0.90159,-1.91822 0.15554,0 0.21499,-0.0678 0.13212,-0.15068 -0.14644,-0.14644 0.72482,-2.18859 2.62458,-6.1518 0.51064,-1.06527 0.8872,-1.95916 0.83681,-1.98642 -0.73845,-0.39952 -6.69627,-2.19228 -8.16141,-2.45585 -0.63208,-0.1137 -3.97669,-0.98432 -10.58333,-2.75489 -1.67349,-0.44849 -3.23623,-0.85907 -3.47275,-0.9124 -0.23651,-0.0533 -0.88018,-0.22125 -1.43037,-0.37317 -1.08911,-0.30071 -1.44688,-0.20669 -1.44688,0.38027 0,0.66644 -1.8969,2.54868 -2.42844,2.40968 -0.2648,-0.0692 -0.54813,-0.018 -0.62962,0.11385 -0.22003,0.35602 -1.10298,0.29071 -1.94306,-0.14371 l -0.74152,-0.38345 -0.31431,1.37564 c -0.54443,2.38274 -2.29194,3.88243 -4.39409,3.77097 -2.24233,-0.1189 -2.95664,-0.51485 -4.3971,-2.43734 l -0.83493,-1.11432 -0.69128,1.34949 c -0.77081,1.50477 -2.27354,2.75013 -3.62423,3.00352 -1.10407,0.20712 -2.97924,-0.64055 -3.9383,-1.78032 l -0.66589,-0.79138 -0.72935,0.78106 c -1.1118901,1.19074 -2.3839401,1.73229 -4.0504201,1.72442 -1.62218,-0.008 -2.50216,-0.43233 -3.86107,-1.86327 -1.64294001,-1.73002 -2.34803001,-3.91031 -2.33497001,-7.22032 0.009,-2.3374 0.22431,-3.77544 0.79883001,-5.34076 0.77041,-2.09902 0.7833,-2.00535 -0.31794001,-2.31114 -0.55986,-0.15545 -1.09948,-0.28331 -1.19915,-0.28412 -0.0997,-8e-4 -0.51637999,-0.13874 -0.92603999,-0.30651 -0.40966,-0.16776 -0.98295,-0.34842 -1.27399,-0.40147 -0.29105,-0.0531 -1.24355,-0.32033 -2.11667,-0.59396 -0.87313,-0.27363 -2.18281,-0.64722 -2.91042,-0.8302 -0.7276,-0.18299 -1.45293,-0.43226 -1.61184,-0.55393 -0.15891,-0.12168 -0.35076,-0.15941 -0.42633,-0.0838 -0.0756,0.0756 -0.4813299,-2.3e-4 -0.9016899,-0.16843 -0.42037,-0.16822 -1.18102,-0.39495 -1.69035,-0.50386 -0.50932,-0.10892 -3.42635,-0.8743 -6.48229,-1.70086 -3.05593,-0.82655 -5.73484,-1.54549 -5.95312,-1.59763 -0.21828,-0.0521 -2.05351,-0.53311 -4.07829,-1.06881 -2.02478,-0.53571 -3.95644,-1.02388 -4.29257,-1.08483 -0.33613,-0.061 -0.94169,-0.24735 -1.34567,-0.41421 -0.40398,-0.16687 -0.82171,-0.28486 -0.92829,-0.26222 -0.10657,0.0226 -0.76141,-0.15159 -1.4552,-0.38719 -1.3765,-0.46743 -1.32112,-0.453 -2.84894,-0.74226 -1.07725,-0.20396 -4.438353,-1.11012 -5.159374,-1.39098 -0.218281,-0.085 -0.575469,-0.17953 -0.79375,-0.21001 -0.402868,-0.0563 -2.450028,-0.61215 -3.175,-0.86216 -0.218281,-0.0753 -0.718796,-0.17913 -1.112258,-0.2308 -0.393462,-0.0517 -1.28643,-0.3039 -1.984375,-0.56053 -2.652916,-0.97543 -2.453327,-1.13716 -6.117447,4.95738 -3.684519,6.12847 -7.965523,13.01966 -10.766014,17.3302 -3.336871,5.13615 -7.588108,12.04618 -7.718946,12.54651 -0.100368,0.3838 0.140766,0.57891 1.1522,0.93226 1.215116,0.42452 7.827942,2.42206 8.952049,2.70416 0.291042,0.073 1.303073,0.3708 2.248959,0.6617 0.945885,0.2909 2.076979,0.62773 2.513541,0.74851 0.832872,0.23042 3.663392,1.05688 6.35,1.85408 3.880736,1.15153 4.509322,1.3306 4.692671,1.33683 0.107116,0.004 0.702429,0.18956 1.322916,0.41315 0.620491,0.2236 1.366287,0.45562 1.657329,0.51562 0.291042,0.06 1.124479,0.28853 1.852083,0.50786 1.63218,0.492 10.318446,2.95719 12.303126,3.49166 0.80036,0.21554 2.64583,0.74875 4.10104,1.18493 1.45521,0.43617 3.30068,0.96561 4.10104,1.17652 1.38243,0.36431 4.43884,1.29826 5.29167,1.61699 0.21828,0.0816 0.57547,0.17067 0.79375,0.19799 0.39152,0.049 2.13825,0.56692 2.91041,0.86296 0.21829,0.0837 0.53267,0.18126 0.69864,0.21682 0.16596,0.0356 1.178,0.32558 2.24896,0.64446 1.07096,0.31889 2.7211,0.80098 3.6669899,1.07132 0.94588,0.27034 2.96995,0.87695 4.49791,1.34803 1.52797,0.47107 2.83766,0.8715 2.91042,0.88984 0.0728,0.0183 1.50429999,0.47295 3.18119999,1.01026 1.67690001,0.5373 3.23067001,0.97692 3.45281001,0.97692 0.22215,0 0.54678,0.14287 0.72141,0.3175 0.17462,0.17462 0.3175,0.24057 0.3175,0.14654 0,-0.094 0.68461,0.0691 1.52135,0.36254 0.83675,0.29343 1.71414,0.57484 1.94977,0.62535 0.83785,0.17964 18.8941801,6.23954 19.3456001,6.4926 0.25269,0.14165 0.69214,0.25755 0.97657,0.25755 0.28443,0 0.58432,0.1087 0.66643,0.24156 0.0821,0.13286 0.63437,0.32351 1.22723,0.42368 0.59286,0.10016 2.76513,0.75622 4.82726,1.4579 2.06213,0.70168 4.00751,1.28493 4.32306,1.29611 0.37898,0.0134 0.76153,-0.28352 1.12698,-0.87483 z m 35.75862,-41.7689 c 0.31382,-0.32742 0.74471,-1.00124 0.95753,-1.49739 0.49758,-1.16 0.67085,-4.85108 0.29688,-6.32435 -0.20774,-0.81842 -0.20868,-1.22197 -0.003,-1.42733 0.20537,-0.20537 0.33848,-0.0698 0.4708,0.47955 0.10147,0.42123 0.39444,1.18553 0.65106,1.69843 0.25661,0.5129 0.61438,1.70353 0.79503,2.64583 0.6259,3.2649 1.76518,4.49141 4.17195,4.49141 2.39381,0 3.7757,-1.75173 3.95555,-5.01415 0.10558,-1.91528 0.065,-2.08688 -0.98833,-4.17817 -0.86192,-1.71128 -1.42148,-2.44401 -2.59875,-3.40301 -0.82517,-0.67218 -1.77654,-1.32717 -2.11416,-1.45553 -0.33762,-0.12836 -1.2331,-0.51548 -1.98996,-0.86027 -0.75687,-0.34478 -2.09049,-0.78659 -2.96362,-0.98179 -1.88221,-0.42079 -6.73825,-0.53718 -7.2099,-0.1728 -0.1819,0.14053 -0.33072,0.19389 -0.33072,0.11857 0,-0.1609 -2.63399,0.6485 -3.96875,1.21957 -3.69009,1.57877 -6.84945,5.67081 -7.06302,9.14812 -0.15176,2.47079 0.21149,3.06592 1.87136,3.06592 h 1.27501 l 0.63862,-1.98438 c 0.35124,-1.0914 0.81387,-2.2129 1.02807,-2.49221 0.37103,-0.4838 0.41356,-0.48602 0.89883,-0.0469 0.41835,0.3786 0.46596,0.6112 0.26645,1.30159 -0.1336,0.46233 -0.26779,1.64068 -0.2982,2.61855 -0.0448,1.44016 0.0486,1.91771 0.49152,2.51355 1.50488,2.02442 4.81151,0.12424 6.02643,-3.46313 0.89487,-2.64232 0.99003,-2.65275 1.52267,-0.1669 0.60619,2.82917 0.92011,3.59098 1.74813,4.2423 0.87133,0.68539 1.75991,0.65828 2.46284,-0.0751 z m -60.85598,-0.56959 c 1.01464,-0.68946 2.02707,-2.8946 2.62356,-5.71426 0.38749,-1.83174 0.80309,-2.93792 1.04712,-2.78709 0.10376,0.0641 0.34173,0.80675 0.52881,1.65028 0.40811,1.84007 1.97587,5.13166 2.82343,5.9279 0.86821,0.81565 2.58402,0.78624 3.42206,-0.0587 0.70081,-0.70654 1.44229,-3.21445 1.44229,-4.87826 0,-0.60114 -0.1773,-1.67746 -0.39401,-2.39181 -0.2167,-0.71435 -0.3953,-1.44765 -0.39687,-1.62955 -0.005,-0.56981 0.74589,-0.36014 0.94385,0.26357 0.10374,0.32686 0.34113,0.71382 0.52753,0.8599 0.18641,0.14607 0.60514,0.80138 0.93052,1.45622 0.84134,1.69321 1.53322,2.38125 2.39454,2.38125 0.91589,0 1.28611,-0.63027 1.28611,-2.18951 0,-2.64711 -1.51914,-5.47203 -4.29602,-7.98866 -2.00524,-1.8173 -3.61337,-2.65973 -6.45442,-3.38119 -2.01208,-0.51094 -2.7423,-0.57145 -5.12456,-0.42464 -1.52797,0.0942 -3.04602,0.24299 -3.37344,0.33073 -0.32742,0.0877 -0.83552,0.21262 -1.12911,0.27751 -1.36568,0.30187 -4.2415701,2.01199 -5.7389301,3.41258 -2.9941,2.8006 -4.44838,6.93801 -3.80598,10.8279 0.37436,2.26685 0.86216,3.24177 1.95562,3.90849 1.05214,0.64153 1.54577,0.64892 2.55006,0.0382 1.50543,-0.91551 1.858,-1.67157 3.6626201,-7.8541 0.22966,-0.7868 1.13588,-2.24896 1.39388,-2.24896 0.12372,0 0.0643,0.38696 -0.13216,0.8599 -1.12563,2.71044 -0.59346,7.34228 1.04293,9.07735 0.47238,0.50087 0.966,0.91067 1.09694,0.91067 0.13094,0 0.65907,-0.28608 1.17363,-0.63574 z m 40.79682,-3.75575 c 0.087,-0.087 0.0941,-0.32512 0.0158,-0.52917 -0.11117,-0.28972 -0.75933,-0.36232 -2.95833,-0.33136 -1.54878,0.0218 -2.45877,0.0855 -2.02221,0.14162 0.43656,0.0561 1.03187,0.21189 1.32291,0.34622 0.9243,0.42663 3.34063,0.6739 3.64184,0.37269 z m 0.14231,-4.19301 c 0.18952,-0.1791 0.39378,-0.71441 0.45392,-1.18959 0.27132,-2.14383 3.23147,-5.59914 6.41663,-7.48997 1.16439,-0.69123 2.28547,-1.25677 2.49129,-1.25677 0.20582,0 0.48733,-0.11216 0.62557,-0.24924 0.32137,-0.31866 3.18869,-0.85268 5.41073,-1.00771 2.24396,-0.15656 6.12617,0.38106 7.65421,1.05998 0.66513,0.29552 1.41222,0.5595 1.66019,0.58661 0.82888,0.0906 3.76739,2.05708 5.11431,3.42249 0.7325,0.74257 1.72049,1.91502 2.19552,2.60545 0.69141,1.00493 1.01509,1.25533 1.62268,1.25533 0.41745,0 0.79868,-0.10545 0.84719,-0.23434 0.0485,-0.12889 1.45741,-0.71586 3.1309,-1.30438 1.67349,-0.58852 3.57849,-1.26199 4.23333,-1.49661 7.136012,-2.55668 12.259912,-7.45731 16.376322,-15.66274 0.88844,-1.77097 1.61535,-3.38824 1.61535,-3.59392 0,-0.20569 0.0893,-0.46328 0.19844,-0.57242 0.10914,-0.10914 0.20524,-0.27781 0.21357,-0.37482 0.0156,-0.18228 0.87062,-3.04593 1.11909,-3.74827 0.0772,-0.21828 0.12516,-0.4752 0.10653,-0.57092 -0.0186,-0.0957 0.12694,-0.81011 0.32348,-1.5875 0.19655,-0.7774 0.43148,-1.83017 0.52206,-2.33949 0.0906,-0.50933 0.2385,-1.2237 0.32871,-1.5875 0.36896,-1.48796 0.58679,-5.19553 0.60666,-10.32569 0.0183,-4.723631 -0.0823,-6.423985 -0.61805,-10.444104 -0.0582,-0.436562 -0.3107,-1.627187 -0.56117,-2.645833 -0.25046,-1.018646 -0.49566,-2.149739 -0.54489,-2.513541 -0.10497,-0.775769 -1.48825,-5.053261 -2.31018,-7.14375 -1.10299,-2.805329 -4.86067,-9.389266 -6.86228,-12.023616 -1.02048,-1.343065 -3.49335,-4.244303 -3.69441,-4.334385 -0.10573,-0.04737 -0.79034,-0.801921 -1.52136,-1.676781 -0.73101,-0.874861 -1.32912,-1.526442 -1.32912,-1.447959 0,0.07848 -0.8632,-0.692097 -1.91823,-1.712399 -1.05502,-1.020305 -3.250272,-2.933454 -4.878322,-4.251444 -1.62804,-1.317987 -3.02619,-2.568604 -3.10698,-2.779149 -0.0808,-0.210542 -0.26212,-0.311592 -0.40295,-0.224554 -0.27201,0.168108 -2.46198,-1.290968 -2.25233,-1.500622 0.0679,-0.06787 -0.0254,-0.1276 -0.20733,-0.132741 -0.1819,-0.0051 -1.62427,-0.807088 -3.20527,-1.782109 -3.09013,-1.905717 -7.11001,-3.998386 -9.43979,-4.91417 -0.7942,-0.312179 -1.82171,-0.746085 -2.28335,-0.964231 -0.46164,-0.218146 -0.99742,-0.428998 -1.19063,-0.468561 -0.1932,-0.03956 -0.52987,-0.140407 -0.74815,-0.224092 -0.52485,-0.201221 -2.3294,-0.755711 -2.72776,-0.838163 -0.81703,-0.169108 -2.0393,-0.501446 -3.48995,-0.94892 -0.87312,-0.26933 -2.02144,-0.5417 -2.55182,-0.605269 -0.53038,-0.06357 -1.06868,-0.18007 -1.19621,-0.258894 -0.12755,-0.07883 -0.76516,-0.222126 -1.41693,-0.31845 -0.65177,-0.09632 -1.78035,-0.287555 -2.50795,-0.424963 -2.56977,-0.485296 -5.90715,-0.633918 -13.75834,-0.612685 -7.37691,0.01995 -10.71168,0.260268 -14.36571,1.035248 -0.24802,0.0526 -1.34392,0.290028 -2.43533,0.527608 -1.0914,0.23758 -2.19273,0.450123 -2.44739,0.472313 -0.25466,0.0222 -0.46302,0.1411 -0.46302,0.264242 0,0.123143 -0.11422,0.153302 -0.25382,0.06702 -0.13961,-0.08628 -0.46703,-0.04021 -0.72761,0.102372 -0.26058,0.142584 -1.30722,0.517427 -2.32587,0.832988 -3.80752,1.17951 -9.57256,3.797752 -13.1762201,5.984099 -6.8397,4.149664 -12.38809,8.918612 -17.95325,15.431179 -2.4563299,2.874489 -3.2327999,3.912077 -4.8227199,6.444517 -0.78165,1.245034 -1.49538,2.209348 -1.58606,2.142924 -0.0907,-0.06643 -0.11739,-0.05346 -0.0594,0.02882 0.058,0.08228 -0.88122,2.195637 -2.0872,4.696354 -1.20599,2.50072 -2.4604,5.320668 -2.78758,6.266553 -0.32718,0.945886 -0.71446,2.017448 -0.86064,2.38125 -0.14617,0.363802 -0.30038,0.840052 -0.34269,1.058333 -0.0966,0.498668 -0.32032,1.412666 -0.38848,1.5875 -0.0284,0.07276 -0.0333,0.234122 -0.0109,0.358579 0.0223,0.124458 -0.0787,0.370092 -0.2246,0.545852 -0.25888,0.311925 -0.59047,1.940605 -0.58349,2.865882 0.002,0.254661 -0.1209,0.46302 -0.27295,0.46302 -0.15204,0 -0.21505,0.159989 -0.14002,0.355532 0.075,0.19554 -0.0165,1.088509 -0.20347,1.984374 -0.18695,0.895864 -0.28056,1.628844 -0.20802,1.628844 0.0725,0 0.01,0.148828 -0.13898,0.330729 -0.17508,0.213773 -0.23742,2.810222 -0.17628,7.342193 0.10338,7.66367 0.158,8.79407 0.43505,9.00313 0.10174,0.0768 0.23042,0.58249 0.28596,1.12381 0.0555,0.54131 0.18064,1.06388 0.27803,1.16127 0.0974,0.0974 0.17707,0.39392 0.17707,0.65897 0,0.64595 1.5595,5.48539 1.98696,6.16594 0.18655,0.297 0.42652,0.83113 0.53325,1.18695 0.19145,0.63827 1.13744,2.31444 2.47203,4.38014 0.81252,1.25762 4.46978,5.58841 5.37978,6.37052 1.11229,0.95599 3.5693599,2.72057 4.6214699,3.319 1.02168,0.58111 4.45805,1.90714 6.17316999,2.3821 0.50933,0.14105 1.16417,0.36093 1.45521,0.48863 0.29104,0.1277 0.85659001,0.30068 1.25677001,0.3844 0.40018,0.0837 1.02255,0.22511 1.38303,0.3142 0.50898,0.12579 0.93758,-0.0702 1.91823,-0.87707 4.40462,-3.62419 7.8352501,-4.85797 13.2978801,-4.78241 4.04886,0.056 6.63474,0.662 9.57212,2.24319 1.97608,1.06372 4.45426,3.1541 4.45426,3.75721 0,0.14551 0.15918,0.35977 0.35374,0.47614 0.42023,0.25135 2.28816,2.99761 2.30107,3.38305 0.005,0.14747 0.23902,0.74437 0.52019,1.32645 0.28117,0.58208 0.51525,1.36917 0.52019,1.74908 0.008,0.62948 0.13219,0.70873 1.39804,0.89335 3.36457,0.49072 17.54628,1.2233 18.85156,0.9738 0.29104,-0.0556 0.68422,-0.24768 0.87374,-0.42677 z M 45.568078,124.0202 c -0.0651,-0.065 -0.51727,-0.18857 -1.00492,-0.27448 -0.48765,-0.0859 -1.55147,-0.38987 -2.36404,-0.67547 -0.81258,-0.2856 -1.5113,-0.51927 -1.55273,-0.51927 -0.0414,0 -0.0753,-0.18562 -0.0753,-0.41249 0,-0.22687 -0.11472,-0.34158 -0.25494,-0.25493 -0.14021,0.0867 -0.47486,-0.0624 -0.74366,-0.33118 -0.26881,-0.2688 -0.76025,-0.67891 -1.09211,-0.91135 -0.56596,-0.39642 -0.66337,-0.3818 -1.57143,0.2358 -1.3411,0.91211 -3.3644,1.80295 -4.94617,2.17775 -1.36591,0.32366 -3.91761,0.21672 -4.45323,-0.18663 -0.16496,-0.12421 -0.86215,-0.43352 -1.54931,-0.68735 -2.27868,-0.84169 -4.8105,-4.43662 -5.15133,-7.31434 -0.1228,-1.03687 -0.0534,-1.33926 0.41464,-1.80732 1.19775,-1.19775 2.93466,-0.33966 3.44927,1.70403 0.42447,1.68572 1.66802,3.42425 2.93369,4.10139 2.03216,1.08722 5.21966,0.50056 7.32531,-1.34823 0.49235,-0.43229 1.02994,-0.78598 1.19465,-0.78598 0.16472,0 0.22414,-0.0753 0.13206,-0.16741 -0.30105,-0.30106 1.07042,-1.15571 1.84075,-1.14709 0.41361,0.005 0.98313,0.18322 1.26561,0.39687 0.28247,0.21366 0.4094,0.38846 0.28206,0.38846 -0.12734,0 0.48836,0.68461 1.36822,1.52136 1.75978,1.67354 3.47991,2.4501 5.41226,2.44338 2.7469,-0.01 4.52283,-1.21084 5.94593,-4.022 1.0801,-2.1336 2.20076,-2.69973 3.43004,-1.73278 0.91467,0.71947 0.81817,1.65043 -0.42232,4.07451 -1.51834,2.96702 -3.88008,4.77336 -6.79953,5.20051 -0.32367,0.0474 -0.67094,0.16855 -0.7717,0.26932 -0.20106,0.20106 -2.05202,0.25467 -2.24176,0.0649 z m 29.13425,-5.1193 c 0,-0.14951 -0.20836,-0.23774 -0.46302,-0.19606 -0.25467,0.0417 -0.85214,-0.0827 -1.32772,-0.2765 -0.9611,-0.39156 -0.88597,-0.37527 -1.73125,-0.37527 -0.33636,0 -0.84238,-0.20836 -1.12448,-0.46302 -0.2821,-0.25466 -0.75103,-0.50102 -1.04207,-0.54747 -0.29105,-0.0464 -0.66716,-0.26273 -0.8358,-0.48064 -0.16866,-0.2179 -0.37701,-0.38826 -0.46303,-0.37857 -0.50154,0.0565 -0.7603,-0.079 -1.95732,-1.02522 -0.72561,-0.57356 -1.85643,-1.7409 -2.51294,-2.59408 -1.22234,-1.58853 -3.24275,-5.09434 -2.93589,-5.09434 0.094,0 0.0341,-0.16474 -0.13303,-0.3661 -0.84393,-1.01687 -1.3427,-6.94926 -0.79211,-9.421491 0.11367,-0.51041 0.26506,-1.25446 0.33642,-1.65344 0.19843,-1.10953 0.77581,-2.581881 1.01247,-2.581881 0.11629,0 0.18784,-0.0893 0.15901,-0.198438 -0.0913,-0.345646 0.34316,-1.389062 0.5784,-1.389062 0.12415,0 0.30237,-0.348962 0.39605,-0.775467 0.1884,-0.857756 0.92697,-1.682327 0.93411,-1.042866 0.003,0.292888 0.0511,0.288803 0.24712,-0.02111 0.1337,-0.211333 0.19271,-0.465735 0.13116,-0.565335 -0.19465,-0.314952 0.63751,-0.824979 0.99514,-0.609912 0.275,0.165372 0.27792,0.126278 0.0149,-0.19879 -0.26979,-0.333417 -0.21157,-0.513487 0.33073,-1.02295 0.36198,-0.340066 0.6657,-0.508254 0.67492,-0.373745 0.009,0.134506 0.11353,0.0064 0.2318,-0.28461 0.11826,-0.291041 0.73579,-0.811726 1.37229,-1.157076 1.30872,-0.710088 4.72914,-2.172086 4.72914,-2.02139 0,0.05435 0.38695,-0.01826 0.85989,-0.161366 1.8274,-0.552929 5.65062,-0.540655 8.08006,0.02593 2.46764,0.5755 4.28921,1.26956 4.28921,1.634283 0,0.12342 0.1786,0.224401 0.39688,0.224401 0.21828,0 0.39687,0.12609 0.39687,0.280199 0,0.15411 0.10696,0.214093 0.23769,0.1333 0.13072,-0.08079 0.61956,0.209838 1.08631,0.645845 0.46675,0.436007 0.94277,0.79274 1.05782,0.79274 0.27201,0 1.85152,1.798346 1.85152,2.108043 0,0.130652 0.23812,0.313124 0.52916,0.405498 0.29104,0.09237 0.52917,0.323943 0.52917,0.514599 0,0.190659 0.17728,0.493781 0.39396,0.673608 0.21668,0.179829 0.3314,0.428188 0.25494,0.551913 -0.0765,0.123724 0.1004,0.464394 0.39305,0.757041 0.29265,0.292648 0.60881,0.862537 0.70259,1.26642 0.0938,0.403884 0.33767,1.002226 0.54199,1.329648 0.20433,0.327422 0.32486,0.595313 0.26785,0.595313 -0.057,0 0.0534,0.675727 0.24541,1.501627 0.19198,0.82589 0.28839,1.5998 0.21423,1.71979 -0.0742,0.11999 -0.009,0.21816 0.14536,0.21816 0.74839,0 -0.3473,8.072231 -1.15721,8.525481 -0.201,0.11249 -0.30585,0.43247 -0.23299,0.71106 0.0741,0.28337 -0.19557,1.07049 -0.61209,1.78657 -0.8933,1.53573 -3.00503,4.30946 -3.31621,4.3558 -0.12217,0.0182 -0.31143,0.054 -0.42057,0.0795 -0.10914,0.0256 -0.65454,0.488 -1.21201,1.02766 -0.55746,0.53967 -1.11053,0.92128 -1.22904,0.84804 -0.11851,-0.0733 -0.28849,0.0571 -0.37772,0.28963 -0.0925,0.24107 -0.33189,0.35771 -0.5569,0.27137 -0.21705,-0.0833 -0.39601,-0.0659 -0.39768,0.0387 -0.004,0.26951 -1.80813,1.05407 -2.90738,1.26455 -0.50932,0.0975 -1.04634,0.27354 -1.19338,0.39114 -0.42679,0.34135 -5.68578,0.62654 -5.68578,0.30833 z m 6.08216,-14.26525 c 0.70498,-0.89623 0.59751,-1.8617 -0.27979,-2.51362 -0.58271,-0.43301 -0.7822,-0.45863 -1.3954,-0.17924 -0.39352,0.1793 -0.77355,0.57348 -0.84451,0.87595 -0.17264,0.73591 -0.0368,2.24659 0.18957,2.10736 0.0991,-0.061 0.2384,-0.0166 0.3096,0.0986 0.32089,0.51923 1.48192,0.29567 2.02053,-0.38906 z m -3.1746,-2.85102 c 0.43991,-0.53005 0.12799,-1.64785 -0.51693,-1.852541 -1.11711,-0.35456 -1.8942,0.634171 -1.43628,1.827461 0.20457,0.53311 1.51759,0.54997 1.95321,0.0251 z m -7.67006,-0.69614 c 0.65484,-0.15559 1.31334,-0.30465 1.46332,-0.33126 0.67463,-0.11965 2.77351,-1.556001 3.52585,-2.412861 2.66172,-3.031538 2.49679,-7.247906 -0.35896,-9.176445 -0.97428,-0.657948 -1.24746,-0.710788 -3.43959,-0.665306 -2.84813,0.0591 -4.75157,0.811165 -6.42983,2.540497 -4.95706,5.107904 -1.54161,11.656485 5.23921,10.045375 z M 3.3910079,113.59313 c -0.0769,-0.0769 -0.40464,-0.17781 -0.72831,-0.22426 -0.32367,-0.0464 -0.76709,-0.16059 -0.98537,-0.25364 -0.21828,-0.093 -0.5386,-0.19914 -0.71182001,-0.23577 -1.01428,-0.21449 -2.18157999,-0.72433 -2.64335999,-1.15454 -0.29208,-0.27212 -0.88011,-0.67526 -1.30672,-0.89587 -1.31907,-0.68212 -2.83346,-2.22174 -2.65156,-2.69574 0.0913,-0.23799 0.0528,-0.35797 -0.0871,-0.27148 -0.38627,0.23873 -1.33065,-0.4621 -1.33065,-0.98749 0,-0.25747 -0.24665,-0.67531 -0.5481,-0.92855 -0.53804,-0.45197 -1.24715,-1.82723 -1.44935,-2.81088 -0.0564,-0.2741 -0.30758,-1.0355 -0.5583,-1.69201 -0.7234099,-1.894221 -0.6543399,-8.835044 0.10017,-10.066256 0.20728,-0.33823 0.4224,-0.851379 0.47804,-1.14033 0.33557,-1.742454 2.90108,-5.845456 3.86434,-6.180217 0.53585,-0.186219 1.71902,-1.192612 1.4021,-1.192612 -0.45181,0 0.9576,-0.82763 1.47591,-0.866672 0.28977,-0.02183 0.52686,-0.127815 0.52686,-0.235529 0,-0.107715 0.38695,-0.313222 0.85988999,-0.456684 0.47295,-0.143463 1.37382,-0.448855 2.00195001,-0.678648 0.62813,-0.229794 1.25321,-0.34911 1.38907,-0.265147 0.13585,0.08396 0.247,0.01916 0.247,-0.144045 0,-0.207981 0.85051,-0.262149 2.84427,-0.181152 3.85984,0.156811 6.1040101,0.689544 7.1626501,1.700313 0.1923,0.183597 0.5015,0.333814 0.68712,0.333814 0.18562,0 0.61206,0.238125 0.94763,0.529167 0.33557,0.291041 0.75587,0.529166 0.934,0.529166 0.4444,0 3.32838,3.178535 3.14832,3.469873 -0.0796,0.128863 -0.0187,0.234294 0.1354,0.234294 0.15411,0 0.2802,0.29392 0.2802,0.653156 0,0.411726 0.12224,0.607695 0.33073,0.530169 0.29889,-0.111146 1.34925,1.631405 1.31004,2.173369 -0.009,0.118349 0.13191,0.393774 0.31217,0.612056 0.18025,0.218281 0.30708,0.664765 0.28185,0.992187 -0.0252,0.327422 0.0569,0.595313 0.18258,0.595313 0.12565,0 0.21436,0.0893 0.19713,0.198437 -0.0172,0.109141 -0.004,0.257969 0.0299,0.330729 0.0337,0.07276 0.1126,0.489479 0.17539,0.926042 0.36099,2.509746 0.37609,3.882276 0.0624,5.672256 -0.19283,1.100361 -0.32489,2.089961 -0.29348,2.199101 0.0314,0.10914 -0.0366,0.19844 -0.15117,0.19844 -0.11455,0 -0.22741,0.254 -0.2508,0.56445 -0.0625,0.82974 -1.28625,3.21032 -2.17148,4.22422 -0.42337,0.4849 -0.73156,0.94527 -0.68487,1.02304 0.10476,0.17452 -0.56706,0.81608 -0.84655,0.80844 -0.11201,-0.003 -0.20365,0.10667 -0.20365,0.24387 0,0.55037 -2.90083,2.77988 -3.29775,2.53458 -0.12027,-0.0743 -0.28694,0.0428 -0.37038,0.26021 -0.0834,0.21744 -0.39358,0.39535 -0.68919,0.39535 -0.29561,0 -0.53747,0.10022 -0.53747,0.2227 0,0.33192 -2.25177,0.97464 -4.1381401,1.18115 -0.42932,0.047 -0.92282,0.17336 -1.09667,0.28081 -0.3474,0.2147 -3.41084,0.16483 -3.63484,-0.0592 z M 10.301838,99.966259 c 0.42448,-0.43334 0.50781,-0.73249 0.35491,-1.27401 -0.10989,-0.38922 -0.12139,-0.79526 -0.0256,-0.90231 0.0958,-0.10704 0.0254,-0.10898 -0.15648,-0.004 -0.1819,0.10468 -0.33073,0.0886 -0.33073,-0.0358 0,-0.38315 -1.7578801,-0.3697 -2.0779001,0.0159 -0.16511,0.19895 -0.37221,0.72174 -0.46021,1.16175 -0.12453,0.62266 -0.0255,0.92534 0.44679,1.365331 0.69569,0.64813 1.39372,0.54678 2.2491701,-0.326551 z m -2.9064301,-2.5134 c 0.63863,-0.85197 -0.25841,-2.055313 -1.33138,-1.786012 -0.71266,0.178862 -1.07217,0.937902 -0.82022,1.731712 0.26994,0.8505 1.53092,0.88232 2.1516,0.0543 z m -5.39689,-1.03494 c 1.58878,-0.53876 3.91725,-2.885421 4.53205,-4.567446 0.5107,-1.397201 0.54749,-2.359205 0.14638,-3.827613 -0.72843,-2.666738 -2.94024,-3.940262 -6.15532001,-3.544144 -0.99944,0.123137 -1.98169999,0.360444 -2.18280999,0.527349 -0.20111,0.166904 -0.36566,0.22466 -0.36566,0.128344 0,-0.09632 -0.14882,-0.04994 -0.33073,0.103053 -0.1819,0.152995 -0.80324,0.641614 -1.38076,1.08582 -2.88235,2.217008 -3.82453,5.92569 -2.14873,8.457994 0.81298,1.228503 1.90663,1.845493 3.7177,2.097373 1.56206999,0.21725 2.46188999,0.11778 4.16788,-0.46073 z M 114.38982,138.01343 c 0.65485,-0.22266 1.58749,-0.5884 2.07253,-0.81275 0.48505,-0.22435 1.67567,-0.63963 2.64583,-0.92285 2.25304,-0.65772 2.48654,-0.71753 2.89694,-0.74202 1.04826,-0.0625 0.56755,-3.07517 -1.00088,-6.27259 -1.26536,-2.57955 -1.38891,-2.58824 -2.62997,-0.18493 -2.07335,4.01504 -4.07373,7.18037 -4.6863,7.41543 -0.19439,0.0746 -0.29561,0.22919 -0.22494,0.34355 0.0707,0.11435 -0.16813,0.40228 -0.53069,0.63983 -1.40125,0.91813 -0.56757,1.22492 1.45748,0.53633 z m 14.94896,-4.91855 c 1.30969,-0.41817 3.09563,-0.99099 3.96875,-1.27294 0.87313,-0.28195 3.07578,-0.94186 4.89479,-1.46646 3.98201,-1.1484 5.0905,-1.50668 5.37488,-1.73724 0.11853,-0.0961 -1.42928,-0.61897 -3.43958,-1.16194 -2.0103,-0.54297 -3.89321,-1.08788 -4.18425,-1.21091 -0.29105,-0.12303 -1.77933,-0.53383 -3.3073,-0.91288 -1.52796,-0.37906 -3.43296,-0.85256 -4.23333,-1.05222 -1.71666,-0.42824 -4.93183,-1.34779 -5.84139,-1.67065 -1.65146,-0.58622 -2.27639,0.79019 -1.0566,2.32717 1.64069,2.06735 3.20568,5.48976 3.57607,7.82033 0.26694,1.67965 0.0893,1.66552 4.24796,0.33774 z m -146.765322,-0.82046 c -0.35521,-0.47294 -0.93489,-1.27661 -1.28817,-1.78594 -0.35328,-0.50932 -0.70721,-0.98557 -0.78649,-1.05833 -0.61773,-0.56686 -4.48605,-7.74812 -4.48605,-8.32802 0,-0.0407 -0.17784,-0.49966 -0.3952,-1.01988 l -0.39521,-0.94585 -2.84594,1.01119 c -1.56527,0.55615 -3.82821,1.37565 -5.02876,1.8211 -1.20054,0.44545 -2.18281,0.74412 -2.18281,0.66371 0,-0.0804 -0.14883,-0.0263 -0.33073,0.12022 -0.1819,0.14653 -0.74744,0.35319 -1.25677,0.45923 -0.50932,0.10604 -1.42552,0.41745 -2.036,0.69201 -0.61048,0.27457 -1.33478,0.49921 -1.60955,0.49921 -0.274774,0 -0.588215,0.0886 -0.696541,0.19695 -0.108325,0.10833 -0.912479,0.43575 -1.787009,0.72761 -0.874532,0.29185 -1.586253,0.64507 -1.581607,0.78493 0.0047,0.13986 1.056849,0.51911 2.338226,0.84278 6.061021,1.53102 10.061351,2.51972 10.664151,2.6357 0.3638,0.07 1.43536,0.3526 2.38125,0.628 2.90256,0.84509 8.36641,2.24302 10.71562,2.74159 1.19079,0.25272 1.2568,0.17817 0.60759,-0.68621 z m -38.173206,-6.55687 c 0.216077,-0.34962 4.128931,-2.06615 5.154162,-2.26107 0.07276,-0.0138 0.310886,-0.10123 0.529167,-0.19422 0.667284,-0.28425 6.208881,-2.23561 6.35,-2.23601 0.07276,-2.2e-4 0.570248,-0.18338 1.105529,-0.40703 0.535281,-0.22366 1.309188,-0.44562 1.719792,-0.49326 0.410606,-0.0476 0.806086,-0.15935 0.878846,-0.24825 0.14082,-0.17207 4.41388,-1.77687 5.21353,-1.95801 0.26126,-0.0592 2.32048,-0.74724 4.57605,-1.52903 4.74392,-1.64425 4.43934,-1.19741 3.64602,-5.34906 -0.25027,-1.30969 -0.45863,-2.84162 -0.46303,-3.4043 -0.007,-0.93939 -0.0567,-1.00755 -0.6033,-0.83352 -2.23004,0.70997 -3.02978,0.76094 -3.89013,0.24793 -0.70521,-0.4205 -1.09816,-0.90325 -1.78236,-2.18972 -0.0276,-0.0518 -1.93256,0.52445 -4.23334,1.28056 -2.30078,0.75611 -4.361826,1.41932 -4.580108,1.47379 -0.218281,0.0545 -1.736328,0.56974 -3.373437,1.14506 -1.637109,0.57531 -2.976562,0.9921 -2.976562,0.9262 0,-0.0659 -0.261935,0.0203 -0.582078,0.19169 -0.742143,0.39719 -11.566653,3.88238 -12.651946,4.07358 -0.44865,0.079 -1.018049,0.24271 -1.265331,0.3637 -0.792983,0.38801 -8.330914,2.8968 -9.048561,3.01156 -0.218281,0.0349 -0.456406,0.13491 -0.529166,0.22224 -0.07276,0.0873 -1.361612,0.56654 -2.864115,1.06494 -1.502502,0.4984 -2.752659,1.02025 -2.778125,1.15967 -0.02547,0.13941 0.370417,0.33822 0.87974,0.44179 1.521272,0.30935 2.877343,0.64225 6.151562,1.51014 6.580828,1.74437 9.350588,2.45816 9.98802,2.57399 1.424403,0.25882 3.332864,0.89194 3.836459,1.27272 0.617431,0.46685 1.352102,0.53323 1.592712,0.14392 z M 126.07203,108.72651 c 0.0223,-0.32743 0.0112,-1.26702 -0.0247,-2.08798 -0.07,-1.60241 0.28865,-2.60838 0.92995,-2.60838 0.21892,0 1.22205,0.77391 2.22917,1.71979 1.00713,0.94589 2.00499,1.71979 2.21747,1.71979 0.61327,0 0.77218,-1.41592 0.31127,-2.77352 -0.47095,-1.38713 -0.31208,-1.91149 0.79986,-2.64006 1.14652,-0.75123 2.29658,-0.63385 3.41554,0.34861 0.53819,0.47253 1.11616,0.81384 1.28438,0.75844 0.17791,-0.0586 0.3612,-0.9221 0.43815,-2.06427 0.11517,-1.709401 0.20083,-1.973401 0.66175,-2.039491 0.51312,-0.0736 1.21751,0.34199 2.31052,1.363141 0.29051,0.2714 0.88671,0.50953 1.3249,0.52916 0.69846,0.0313 0.84118,-0.0906 1.1575,-0.988771 0.19845,-0.56345 0.4031,-1.40817 0.45478,-1.87715 0.0517,-0.46897 0.17897,-0.99023 0.28287,-1.15834 0.34705,-0.56154 1.37489,-0.3146 2.42516,0.58265 1.79656,1.53481 2.78197,1.49253 2.80626,-0.12041 0.0161,-1.06655 0.59186,-2.090818 1.17537,-2.090818 0.22884,0 0.73315,0.225774 1.12068,0.501719 0.38753,0.275949 1.00122,0.543839 1.36376,0.595309 0.54836,0.0779 0.70171,-0.0509 0.91231,-0.766299 0.25849,-0.87803 1.04946,-1.171241 1.62013,-0.600575 0.36326,0.36326 2.22776,-0.183274 2.22776,-0.653018 0,-0.458097 -0.49472,-0.787548 -1.19063,-0.792877 -0.44153,-0.0034 -0.54238,-0.20869 -0.60895,-1.239742 -0.12099,-1.873999 -0.55506,-2.051759 -2.25494,-0.923438 -1.76792,1.173475 -2.56007,1.092568 -2.56007,-0.261477 0,-0.497025 0.17374,-1.319493 0.38609,-1.827707 0.4252,-1.017651 0.32582,-1.578073 -0.32406,-1.827456 -0.47254,-0.18133 -1.60488,0.980498 -2.6949,2.765086 -0.50496,0.826712 -0.81037,1.061725 -1.37976,1.061725 -0.9167,0 -1.27903,-0.635889 -1.27903,-2.244703 0,-1.911678 -1.06051,-3.54075 -1.50988,-2.319359 -0.0937,0.254662 -0.35318,0.748321 -0.57664,1.097021 -0.22346,0.348702 -0.44094,0.861054 -0.48329,1.138565 -0.0424,0.277511 -0.25464,0.848069 -0.47175,1.26791 -0.43801,0.847018 -1.3548,0.980019 -1.91097,0.277228 -0.39495,-0.499071 -0.43762,-2.891938 -0.0689,-3.861829 0.1932,-0.508156 0.18238,-0.816764 -0.0379,-1.082231 -0.4539,-0.546925 -1.19929,0.208463 -2.12697,2.155524 -0.416,0.873124 -0.85503,1.766093 -0.97563,1.984374 -0.12059,0.218282 -0.39129,0.754063 -0.60156,1.190625 -0.76446,1.587156 -2.02087,1.028462 -3.27254,-1.455208 -0.90304,-1.791909 -1.16432,-1.971386 -1.88469,-1.294633 -0.48808,0.458529 -1.10595,2.857439 -0.83875,3.256505 0.18861,0.281686 -1.27167,1.477711 -1.8042,1.477711 -1.42493,0 -1.81561,-1.607806 -0.94593,-3.892809 0.26513,-0.696611 0.4348,-1.445159 0.37704,-1.66344 -0.0578,-0.218282 -0.65569,-0.754063 -1.32873,-1.190625 -0.82062,-0.532284 -1.29117,-1.053127 -1.42848,-1.581158 -0.30825,-1.185289 0.0857,-1.342303 1.81693,-0.724202 2.02992,0.724731 4.37008,0.920528 6.14501,0.514144 1.74797,-0.400214 2.02001,-0.888691 0.63389,-1.138251 -1.28977,-0.232211 -4.79756,-1.845029 -5.56994,-2.560952 -0.42216,-0.391306 -0.51469,-0.641903 -0.32251,-0.873466 0.21092,-0.254133 0.71348,-0.210177 2.3118,0.202189 2.37133,0.611801 7.26669,0.778565 7.78021,0.265038 0.39682,-0.396814 0.2097,-0.57691 -0.8883,-0.854995 -2.61915,-0.663332 -3.77045,-1.0785 -5.0995,-1.8389 -1.58201,-0.905134 -1.94957,-1.508307 -0.74229,-1.21812 1.19075,0.286213 6.03278,0.497139 7.04653,0.306959 0.91912,-0.172429 1.75086,-0.753025 1.75086,-1.22219 0,-0.129283 -0.50601,-0.373742 -1.12448,-0.543242 -3.70714,-1.015992 -5.4901,-1.612974 -5.4901,-1.838232 0,-0.140846 -0.21585,-0.25608 -0.47967,-0.25608 -0.26381,0 -0.82782,-0.363395 -1.25334,-0.807545 l -0.77367,-0.807543 1.84865,0.21223 c 3.11023,0.357066 7.65559,0.267004 8.1718,-0.161914 0.66518,-0.552702 0.10107,-0.984536 -2.10271,-1.609651 -3.43557,-0.974519 -6.9778,-3.149063 -6.64649,-4.080222 0.12788,-0.359394 0.35782,-0.330028 2.95522,0.377437 1.68932,0.460126 2.64069,0.556175 4.71218,0.475734 2.54312,-0.09876 3.24636,-0.362628 3.00447,-1.127332 -0.10439,-0.330036 -2.0897,-1.324549 -3.46185,-1.734166 -0.59389,-0.17729 -1.37745,-0.455348 -1.74126,-0.617905 -0.8578,-0.383297 -2.91041,-2.020801 -2.91041,-2.321828 0,-0.309231 1.3837,-0.297095 2.21624,0.01945 0.99414,0.377968 4.44633,0.634167 5.80329,0.430676 2.09123,-0.313598 1.89216,-1.840198 -0.28116,-2.1561 -1.46112,-0.212381 -4.28408,-1.420905 -5.10454,-2.185284 -0.39346,-0.366567 -0.51372,-0.697989 -0.39219,-1.080886 0.20878,-0.657802 0.78731,-0.696794 2.11397,-0.142478 0.66937,0.279683 1.3725,0.357589 2.21512,0.245438 3.24157,-0.431451 3.54775,-1.358239 0.88226,-2.67049 -0.92133,-0.453578 -1.86792,-1.017471 -2.10354,-1.253098 -0.39483,-0.394825 -0.36852,-0.490924 0.33557,-1.225833 0.42019,-0.438584 0.9203,-0.797425 1.11135,-0.797425 0.44271,0 0.45707,-0.975487 0.0166,-1.131076 -0.25301,-0.08938 -0.22793,-0.327718 0.10672,-1.014235 0.67646,-1.387705 0.74833,-1.762675 0.39418,-2.05659 -0.32767,-0.271941 -2.27919,0.137316 -2.71025,0.568367 -0.40746,0.407469 -0.86734,0.159869 -1.40937,-0.758811 -0.48377,-0.819923 -0.62027,-0.904523 -0.97902,-0.60678 -0.36196,0.300392 -1.42938,1.899507 -2.37593,3.559376 -0.56942,0.998548 -1.05766,0.732756 -1.94989,-1.061487 -0.90712,-1.824191 -1.58181,-2.213758 -2.11348,-1.220325 -0.15064,0.281464 -0.27389,1.640946 -0.27389,3.021058 0,1.380114 -0.0723,2.697628 -0.1606,2.92781 -0.16941,0.441468 -1.4269,0.593778 -1.4269,0.172831 0,-0.135128 -0.14883,-0.403018 -0.33073,-0.595312 -0.1819,-0.192297 -0.68792,-0.88541 -1.12448,-1.540254 -0.43656,-0.654843 -0.88379,-1.230558 -0.99383,-1.279368 -0.11005,-0.04881 -0.14293,-0.181232 -0.0731,-0.294273 0.0699,-0.11304 -0.13775,-0.192169 -0.46137,-0.175839 -0.51999,0.02625 -0.59778,0.193678 -0.66911,1.44023 -0.0444,0.775795 0.0307,1.549702 0.1669,1.719792 0.13619,0.170087 0.32562,1.467744 0.42096,2.883683 0.13922,2.067758 0.092,2.731682 -0.23984,3.373437 -0.22725,0.439452 -0.52885,0.799005 -0.67021,0.799005 -0.36563,0 -2.37522,-1.857214 -2.37522,-2.195119 0,-0.568938 -1.73411,-2.818534 -2.17777,-2.825141 -0.55147,-0.0082 -0.86107,1.017543 -0.61683,2.043697 0.0952,0.400183 0.53126,1.863905 0.96892,3.252719 0.64069,2.033077 0.7427,2.664637 0.52351,3.241145 -0.42015,1.105078 -1.21421,0.908442 -2.76148,-0.683834 -0.74817,-0.769927 -1.57364,-1.670068 -1.83438,-2.000316 -0.35145,-0.445116 -0.69367,-0.579212 -1.32292,-0.518361 -0.74496,0.07204 -0.85046,0.179224 -0.86209,0.875835 -0.0132,0.790969 0.67032,2.221933 1.48882,3.116881 0.44707,0.488831 1.64965,2.837968 1.92601,3.762285 0.23325,0.780119 -0.18175,1.282499 -0.87712,1.061799 -0.32137,-0.101999 -1.30967,-0.888645 -2.19622,-1.748104 -0.88655,-0.85946 -1.70777,-1.562653 -1.82493,-1.562653 -0.11716,0 -0.28599,0.290719 -0.37517,0.646043 -0.1636,0.65183 0.38754,1.927127 2.23636,5.17479 0.45563,0.800364 1.26757,2.314101 1.80431,3.363859 0.53674,1.049756 1.14891,1.942724 1.36037,1.984375 0.23319,0.04593 0.4087,0.440089 0.44605,1.001765 0.0775,1.16494 0.60357,3.191129 0.93104,3.58571 0.2754,0.331838 1.17307,2.968599 1.70673,5.013248 0.18991,0.727604 0.54354,2.037292 0.78586,2.910417 0.68586,2.471356 1.49892,7.280534 1.32403,7.831546 -0.10545,0.33223 0.0689,0.70683 0.52637,1.13077 0.55438,0.51379 0.60774,0.66325 0.28146,0.78846 -0.33868,0.12996 -0.4026,0.87261 -0.4026,4.678101 0,4.65687 0.0943,5.16753 1.15611,6.25877 0.72638,0.74653 0.95111,0.75012 1.0011,0.016 z m -153.737792,-6.34014 c 0.63726,-0.59092 0.69036,-0.81627 0.73189,-3.106071 0.0246,-1.35791 0.22135,-3.31524 0.43715,-4.349637 0.49503,-2.372781 0.49476,-3.186514 -0.001,-3.598092 -0.44633,-0.370422 -0.29125,-0.839441 0.21351,-0.645748 0.31489,0.120835 0.88542,-1.38082 1.16291,-3.060837 0.0601,-0.363802 0.3994,-1.503847 0.75402,-2.533433 0.35463,-1.029586 0.64477,-2.086388 0.64477,-2.348447 0,-0.262059 0.40265,-1.503262 0.89477,-2.758233 0.49212,-1.254969 1.23037,-3.157861 1.64054,-4.22865 0.41018,-1.070788 0.88346,-1.999716 1.05172,-2.064287 0.40509,-0.155446 0.26566,-1.278999 -0.25787,-2.078006 -0.23031,-0.351491 -0.41446,-0.851625 -0.40922,-1.111406 0.007,-0.371425 0.14628,-0.304969 0.64975,0.311081 0.35212,0.430877 0.7059,0.717741 0.78616,0.637479 0.4142,-0.414202 2.81439,-5.64752 3.04124,-6.63105 0.37706,-1.634826 0.33515,-2.745611 -0.1178,-3.12152 -0.32538,-0.270039 -0.56115,-0.159158 -1.35981,0.639498 -1.58487,1.58487 -2.57317,1.901851 -2.88329,0.924769 -0.096,-0.30234 -0.0285,-1.530591 0.14983,-2.72945 0.24828,-1.668888 0.25181,-2.315167 0.015,-2.757585 -0.39967,-0.746794 -0.77624,-0.728427 -1.72084,0.08394 -1.27439,1.095899 -2.27405,0.741349 -2.27405,-0.806505 0,-0.457952 -0.23812,-1.107202 -0.52917,-1.442776 -0.67274,-0.775676 -0.66702,-0.86116 0.15094,-2.256904 0.7569,-1.291558 0.78716,-2.58093 0.0638,-2.718038 -0.24571,-0.04657 -0.6347,0.131004 -0.86441,0.394613 -1.58295,1.816526 -2.0602,2.231107 -2.41264,2.095863 -0.65284,-0.250518 -0.74022,-0.9363 -0.39229,-3.078779 0.18335,-1.129012 0.25372,-2.303682 0.15638,-2.610377 -0.28424,-0.895561 -1.12553,-0.680561 -1.70041,0.43456 -0.53104,1.030089 -1.49595,2.182812 -1.82716,2.182812 -0.46757,0 -0.87136,-1.223941 -0.96865,-2.936075 -0.11011,-1.937727 -0.34744,-2.473532 -1.19366,-2.694824 -0.51118,-0.133678 -1.15241,0.827699 -1.37336,2.059025 -0.0522,0.291041 -0.3358,0.563829 -0.63017,0.606194 -0.39227,0.05645 -0.88464,-0.385561 -1.84348,-1.654939 -1.81134,-2.397969 -2.929092,-2.617695 -2.586819,-0.508508 0.127908,0.788191 0.07008,0.885065 -0.618995,1.036992 -0.418044,0.09217 -0.90891,0.213434 -1.090811,0.269473 -0.759801,0.234074 -0.183782,0.96276 1.835735,2.322269 1.5577,1.04862 1.73857,1.581745 0.65336,1.925849 -0.31397,0.09956 -1.020353,0.464669 -1.569726,0.811352 -0.994095,0.62733 -0.996619,0.633423 -0.529167,1.277612 0.614439,0.846749 1.213527,1.037503 3.014693,0.959901 1.33917,-0.0577 1.50188,-0.0058 1.64006,0.522549 0.23786,0.909577 -0.20209,1.43038 -1.78857,2.117267 -1.14122,0.494107 -1.462407,0.761834 -1.465931,1.221952 -0.008,1.039614 1.083511,1.494803 3.115091,1.299115 0.97635,-0.09405 2.08665,-0.240803 2.46734,-0.326126 0.59226,-0.132741 0.71157,-0.05362 0.82661,0.548185 0.16427,0.85933 -0.27808,1.866503 -0.9896,2.253189 -1.57472,0.855805 -1.86564,1.094232 -2.00898,1.646499 -0.39508,1.522201 1.00231,1.933131 3.92651,1.154666 0.99391,-0.264594 1.43946,-0.28693 1.5682,-0.07862 0.0989,0.160041 0.0262,0.342188 -0.16153,0.40477 -0.27261,0.09087 -0.27428,0.155249 -0.008,0.319643 0.53066,0.327964 0.12573,0.937805 -1.38237,2.081924 -0.7724,0.585983 -1.61273,1.24904 -1.86739,1.473462 -0.53382,0.470427 -0.61588,1.605256 -0.13745,1.900939 0.55666,0.344035 3.46887,0.11126 4.33624,-0.346597 1.04738,-0.552886 1.68819,-0.319738 1.68819,0.614225 0,0.536416 -0.3993,1.092391 -1.57364,2.191118 -1.55281,1.452822 -1.56846,1.481942 -1.18217,2.199915 0.33217,0.617416 0.56047,0.727358 1.50749,0.725974 0.61381,-7.93e-4 1.45706,-0.17949 1.87387,-0.396875 1.21353,-0.632896 1.49111,-0.517091 1.49111,0.622081 0,0.681307 -0.17478,1.175501 -0.52916,1.496216 -0.69851,0.63214 -0.66745,1.076401 0.1311,1.874946 0.60229,0.602292 1.48614,2.03232 1.45381,2.352209 -0.0517,0.512193 -1.19379,2.761371 -1.64885,3.247323 -0.73375,0.783553 -1.36183,0.752102 -2.03353,-0.101827 -0.44824,-0.569833 -0.54838,-1.0737 -0.54838,-2.759226 0,-1.559001 -0.10593,-2.168022 -0.43421,-2.496301 -0.40257,-0.402566 -0.51419,-0.35573 -1.53137,0.642559 -1.19741,1.175168 -1.72851,1.313632 -2.41304,0.62911 -0.37344,-0.373448 -0.41917,-0.762047 -0.27583,-2.343906 0.2701,-2.980642 -0.63189,-4.420484 -1.44773,-2.311003 -0.72403,1.872101 -1.17427,2.549549 -1.74829,2.630561 -0.49452,0.06979 -0.61413,-0.104092 -0.85989,-1.250024 -0.15701,-0.732102 -0.28547,-1.866926 -0.28547,-2.521833 0,-1.314871 -0.60854,-2.751963 -1.16532,-2.751963 -0.510351,0 -0.900958,1.230823 -0.894769,2.819463 0.0063,1.626812 -0.151868,1.943037 -0.9721,1.943037 -0.429676,0 -0.789993,-0.28861 -1.17501,-0.941165 -0.305416,-0.517642 -0.555302,-1.044131 -0.555302,-1.169975 0,-0.691364 -1.262671,-2.924106 -1.789366,-3.164085 -0.832586,-0.379352 -1.022427,0.187478 -0.630889,1.883706 0.429192,1.859359 0.393592,2.862352 -0.101589,2.862352 -0.222851,0 -0.473713,-0.178594 -0.557474,-0.396875 -0.08376,-0.218281 -0.318151,-0.396875 -0.520864,-0.396875 -0.202711,0 -0.368568,-0.105915 -0.368568,-0.235368 0,-0.129453 -0.413956,-0.694999 -0.919903,-1.256771 -0.505947,-0.561771 -0.922665,-1.110699 -0.926041,-1.21984 -0.0034,-0.109141 -0.312767,-0.198437 -0.687539,-0.198437 -0.578585,0 -0.674158,0.109783 -0.63342,0.727604 0.0825,1.251251 0.02439,1.31658 -1.331013,1.49638 -0.727604,0.09652 -1.332026,0.260688 -1.34316,0.364815 -0.01114,0.10413 -0.05959,0.393991 -0.107677,0.644142 -0.04809,0.250147 -0.0092,0.430199 0.08639,0.40011 0.0956,-0.03009 0.560774,0.09267 1.033717,0.272788 0.472943,0.180121 1.187317,0.451911 1.5875,0.603975 0.400182,0.152067 0.949759,0.443169 1.221282,0.646899 0.479274,0.359608 0.477343,0.391181 -0.06615,1.082116 -0.674978,0.858097 -0.742616,2.174301 -0.123933,2.411712 0.239741,0.092 0.805288,0.01273 1.25677,-0.176149 0.844974,-0.3535 1.931239,-0.44077 2.195611,-0.176398 0.08236,0.08236 -0.04443,0.558953 -0.28176,1.059093 -0.237332,0.500139 -0.431512,1.090474 -0.431512,1.311859 0,0.651505 1.589752,1.033751 2.992197,0.719455 0.66557,-0.149156 1.391166,-0.201723 1.612434,-0.116813 1.065908,0.409027 0.527611,2.145133 -0.892879,2.879698 -1.185621,0.613108 -1.478592,1.121534 -0.97006,1.683454 0.381325,0.421362 0.646541,0.450437 2.204606,0.241686 0.974124,-0.130516 2.179261,-0.407821 2.678071,-0.616238 0.49881,-0.208418 1.11777,-0.378939 1.37547,-0.378939 1.31031,0 0.50495,2.037805 -1.29957,3.288337 -1.142373,0.791665 -1.385731,1.316841 -1.041456,2.247505 0.214961,0.581097 0.324736,0.610164 1.695706,0.449033 0.80623,-0.09476 2.18832,-0.465842 3.07131,-0.824633 2.34194,-0.951613 2.29391,-1.065305 1.42604,3.37585 -0.22074,1.12959 -0.5238,2.28262 -0.67348,2.56229 -0.14967,0.27967 -0.27213,0.93304 -0.27213,1.451931 0,0.81722 0.0842,0.94344 0.62962,0.94344 0.62603,0 3.53384,-2.057601 3.94428,-2.791011 0.2805,-0.50123 1.22105,-0.49471 1.41465,0.01 0.0831,0.21659 5.3e-4,1.02027 -0.18356,1.785941 -0.49612,2.06368 -0.50838,2.54991 -0.0752,2.98308 0.44468,0.44467 0.88575,0.2831 1.9688,-0.72119 z M 141.55806,83.078459 c -0.0845,-0.211066 -0.14715,-0.148373 -0.15985,0.159853 -0.0115,0.278913 0.051,0.435184 0.13897,0.347266 0.0879,-0.08792 0.0973,-0.316124 0.0209,-0.507119 z"
       id="path635" /></g></svg>
