<?xml version="1.0" encoding="UTF-8" standalone="no"?>
<!-- Created with Inkscape (http://www.inkscape.org/) -->

<svg
   width="238.4137mm"
   height="220.63104mm"
   viewBox="0 0 238.41369 220.63105"
   version="1.1"
   id="svg5"
   xml:space="preserve"
   xmlns="http://www.w3.org/2000/svg"
   xmlns:svg="http://www.w3.org/2000/svg"><defs
     id="defs2" /><g
     id="layer1"
     transform="translate(80.92055,-49.835095)"><path
       style="fill:#000000;stroke-width:0.264583"
       d="m 27.082404,270.23863 c -11.86814,-0.69571 -22.1707483,-3.75808 -30.5692093,-9.08645 -2.229348,-1.41439 -2.426423,-1.48635 -4.076793,-1.48856 -7.7606727,-0.0104 -20.8295967,-1.99546 -27.2254167,-4.13533 -2.382139,-0.79699 -2.866131,-0.88293 -3.390903,-0.60208 -0.811379,0.43423 -1.882439,0.10611 -5.715891,-1.75107 -3.709985,-1.79737 -4.264903,-2.13419 -7.206154,-4.37398 -3.688091,-2.80851 -4.547037,-3.56012 -7.709236,-6.74588 -4.845814,-4.88191 -8.025672,-9.38779 -10.911919,-15.46225 -3.180456,-6.69367 -5.060836,-14.97658 -5.058149,-22.28072 0.0029,-7.76823 1.753125,-16.31101 4.069851,-19.86431 2.11047,-3.23695 4.020278,-4.42164 7.127997,-4.42164 1.680016,0 2.175785,0.11637 3.514523,0.82492 2.843104,1.50477 4.826159,3.37218 10.643708,10.023 7.015829,8.02073 14.453494,15.92841 14.725668,15.65623 0.07371,-0.0737 0.134014,0.0714 0.134014,0.32258 0,0.25112 0.105572,0.39134 0.234604,0.31159 0.129032,-0.0797 0.380648,0.031 0.559146,0.24606 0.178499,0.21507 0.430115,0.3258 0.559147,0.24605 0.129032,-0.0797 0.235011,-2.0132 0.235508,-4.29657 0.0013,-5.75421 0.442907,-10.51926 1.488339,-16.05782 1.000535,-5.30069 3.629348,-14.61813 4.996609,-17.70975 0.805503,-1.82139 0.845275,-2.53087 0.141877,-2.53087 -0.28381,0 -0.611232,0.14883 -0.727604,0.33073 -0.365998,0.57209 -2.544156,2.21434 -3.754027,2.83039 -1.050806,0.53505 -1.271839,0.56028 -2.325164,0.26537 -1.263829,-0.35385 -2.152014,-1.25741 -2.385988,-2.42728 -0.220372,-1.10185 -0.617202,-0.97856 -3.365524,1.04568 -2.20632,1.62503 -3.391381,2.18844 -4.603088,2.18844 -1.392663,0 -2.737247,-0.93139 -3.062589,-2.12146 -0.138517,-0.50668 -0.271989,-0.95166 -0.296603,-0.98883 -0.02461,-0.0372 -1.017313,0.58338 -2.206001,1.37901 -2.802874,1.87608 -3.873055,2.21098 -5.141589,1.60902 -0.960702,-0.45588 -1.778302,-1.71857 -1.778302,-2.74638 0,-0.29684 -0.0893,-0.58995 -0.198437,-0.65135 -0.109141,-0.0614 -1.091406,0.17853 -2.182813,0.53318 -2.948503,0.95813 -4.718523,1.06775 -6.128691,0.37958 -1.711539,-0.83525 -2.387203,-2.0017 -2.371148,-4.0935 0.0072,-0.93813 0.04738,-1.85466 0.08928,-2.03675 0.04941,-0.21471 -0.621215,-0.48634 -1.908188,-0.77289 -3.002466,-0.66852 -3.930126,-1.26978 -4.895165,-3.17276 -0.834494,-1.64557 -0.180951,-4.7189 1.383432,-6.5057 0.257963,-0.29464 1.034572,-0.9399 1.725796,-1.43392 1.127365,-0.80572 1.25677,-1.00343 1.25677,-1.92018 0,-2.83574 2.220989,-4.77672 5.894369,-5.15123 0.905441,-0.0923 1.73373,-0.29851 1.840643,-0.4582 0.25619,-0.38266 0.259752,-2.34427 0.004,-2.23062 -0.109141,0.0485 -1.469388,0.59421 -3.022769,1.21267 -4.125836,1.64266 -5.851075,1.47886 -6.73621,-0.63957 -0.420376,-1.0061 -0.191922,-2.31435 0.714359,-4.09081 l 0.491308,-0.96304 -2.569438,0.0355 c -2.125988,0.0294 -2.697346,-0.0512 -3.310565,-0.4668 -1.778934,-1.2057 -2.013727,-3.49061 -0.588561,-5.72765 0.505598,-0.79362 0.922317,-1.5133 0.926041,-1.59929 0.0037,-0.086 -0.620446,-0.2967 -1.387047,-0.46825 -2.54391,-0.56931 -3.950761,-1.83866 -3.950761,-3.56466 0,-1.16726 0.627761,-2.34795 1.690663,-3.1798 0.807659,-0.63209 0.830249,-0.69551 0.412225,-1.15743 -0.243243,-0.26878 -0.699053,-1.06921 -1.012912,-1.77874 -1.334209,-3.0162 0.312,-6.73787 4.051215,-9.15878 1.502468,-0.97276 3.681755,-1.64181 6.423445,-1.97203 2.909226,-0.3504 6.810303,0.90641 8.980455,2.89323 0.831832,0.76156 1.088821,0.87923 1.258409,0.57619 0.331904,-0.59308 1.920938,-1.48026 2.651294,-1.48026 0.948327,0 3.635959,1.45683 5.180893,2.80829 0.729613,0.63825 1.393346,1.16045 1.47496,1.16045 0.08162,0 0.400835,-0.58682 0.709379,-1.30405 0.637874,-1.48277 1.384739,-2.2815 1.859182,-1.98827 0.199388,0.12322 0.253849,0.0886 0.142933,-0.0909 -0.116469,-0.18845 0.20574,-0.31854 0.920393,-0.37161 l 1.099598,-0.0816 0.856464,-2.92407 c 3.518043,-12.010979 10.860603,-23.279109 20.979648,-32.196059 9.658418,-8.511049 18.9748857,-13.827325 31.6715437,-18.072797 6.0691023,-2.02937 8.8977563,-2.784647 14.8826163,-3.973803 13.30653,-2.643926 29.66721,-3.272491 40.283,-1.547643 10.83374,1.760257 19.22226,4.516313 29.36957,9.649398 13.369906,6.763258 24.208626,17.595175 30.847326,30.827975 1.66418,3.31717 2.2065,3.9228 2.22071,2.47994 0.002,-0.22617 0.3563,-0.96664 0.78681,-1.6455 1.43835,-2.26803 3.53789,-2.53484 5.57957,-0.70907 0.81872,0.73215 0.94122,0.77063 1.1783,0.37014 1.3869,-2.34286 2.33603,-3.56812 3.15709,-4.07556 1.24003,-0.76639 3.225,-0.84012 4.26536,-0.15845 0.62727,0.411 0.77774,0.42668 1.02217,0.10651 0.64933,-0.85053 2.01479,-1.53505 3.67074,-1.84017 4.19046,-0.77212 8.36413,1.50196 10.16411,5.53805 0.83197,1.86553 0.9337,4.33076 0.2597,6.29357 l -0.46412,1.35163 0.79414,0.85013 c 0.86568,0.926709 1.23663,2.246519 0.95289,3.390179 -0.25347,1.02163 -2.6429,3.23055 -4.47275,4.13485 l -1.53719,0.75967 1.05105,1.09241 c 1.32226,1.3743 1.64202,2.00076 1.64202,3.21699 0,2.07717 -1.96081,3.47078 -5.27424,3.74857 -1.74973,0.14669 -1.82362,0.18127 -1.97193,0.9228 -0.12672,0.63359 0.007,0.93188 0.7552,1.67968 0.94188,0.94189 1.38539,2.2952 1.07386,3.27676 -0.46842,1.47584 -2.48967,2.95721 -5.10008,3.73782 -0.61846,0.18495 -1.12898,0.46625 -1.13447,0.62511 -0.11467,3.31457 -1.48412,4.94435 -4.35563,5.18364 l -1.5875,0.1323 -0.0661,1.19062 c -0.0363,0.65484 -0.19908,1.62152 -0.36164,2.14816 -0.29015,0.94006 -0.26673,0.99185 1.28383,2.83855 4.37668,5.2126 7.17953,11.17995 7.65804,16.30422 0.14531,1.5561 0.30251,1.93751 1.39894,3.39411 2.25351,2.99377 3.43243,4.88732 5.00731,8.04259 2.7704,5.55051 4.47462,11.12802 5.48162,17.94008 0.53768,3.63724 0.39114,12.23476 -0.27058,15.875 -1.72649,9.49775 -5.35583,17.7144 -10.81026,24.47395 -1.51116,1.87274 -6.98859,7.47793 -8.85262,9.0591 -5.98903,5.08022 -13.58348,9.38295 -21.43506,12.14432 -2.87972,1.01279 -4.03368,1.53714 -4.0349,1.83346 -0.005,1.17803 -0.90018,3.26792 -1.75613,4.09916 -0.51038,0.49565 -0.85663,1.01661 -0.76943,1.15769 0.19209,0.31081 -2.69144,2.72314 -4.71105,3.9412 -4.379506,2.64137 -10.158116,4.01299 -16.906696,4.01299 h -3.96396 l -3.21128,1.93418 c -3.61411,2.1768 -4.0735,2.40506 -7.89133,3.92096 -5.16744,2.05178 -12.76479,3.59857 -20.58766,4.19156 -3.96521,0.30058 -19.45868,0.29858 -24.60625,-0.003 z m 26.59063,-4.21869 c 7.08634,-0.71671 13.91481,-2.23874 18.4078,-4.103 2.38243,-0.98853 6.129,-2.84667 6.55678,-3.25189 0.19708,-0.18669 0.85193,-0.58964 1.45521,-0.89544 0.60328,-0.3058 1.1564,-0.62931 1.22916,-0.7189 0.216,-0.26596 1.81703,-1.35352 1.99257,-1.35352 0.089,0 0.31847,-0.14883 0.50983,-0.33073 0.19137,-0.1819 1.20283,-0.98557 2.24768,-1.78594 1.04487,-0.80036 2.27045,-1.78263 2.72353,-2.18281 1.39289,-1.23026 2.91129,-0.82758 2.91129,0.77208 0,0.49751 -0.36157,1.04106 -1.23145,1.85127 -0.6773,0.63083 -1.40656,1.14696 -1.62058,1.14696 -0.21401,0 -0.38912,0.18233 -0.38912,0.40518 0,0.22285 -0.17859,0.47371 -0.39687,0.55748 -0.21828,0.0838 -0.39688,0.27619 -0.39688,0.42762 0,0.39492 4.60739,0.0302 7.3937,-0.58531 3.01617,-0.66627 7.518956,-2.24014 8.169466,-2.85549 0.1923,-0.1819 0.44692,-0.33073 0.56584,-0.33073 0.47602,0 3.17581,-2.90404 3.5644,-3.83405 0.6372,-1.52505 0.56129,-1.80439 -0.44497,-1.63733 -6.27737,1.04214 -15.784646,1.6568 -21.100516,1.36417 -7.9988,-0.44032 -19.04858,-2.21277 -22.35729,-3.58624 -0.43656,-0.18122 -0.87535,-0.31283 -0.97508,-0.29247 -0.0997,0.0204 -0.68025,-0.13901 -1.29004,-0.35415 -0.60978,-0.21515 -1.1973,-0.39117 -1.3056,-0.39117 -0.10829,0 -0.33161,0.6846 -0.49627,1.52135 -0.3611,1.83496 -1.60075,4.54216 -2.43639,5.32067 -0.33432,0.31147 -0.51174,0.56631 -0.39427,0.56631 0.22437,0 -0.80083,1.42623 -1.78478,2.48294 -1.24395,1.33592 -3.45054,3.04689 -3.72664,2.88961 -0.16001,-0.0912 -0.2019,-0.0675 -0.0931,0.0525 0.22519,0.24838 -1.66767,1.47632 -1.97906,1.28387 -0.11173,-0.0691 -0.20314,0.004 -0.20314,0.16201 0,0.46469 -4.15683,2.28376 -6.87917,3.01039 -1.38245,0.36899 -3.67598,0.81186 -5.09674,0.98416 -3.16881,0.38428 -11.17296,0.22275 -11.63041,-0.2347 -0.17161,-0.17161 -0.69519,-0.31201 -1.1635,-0.31201 -1.10896,0 -1.68852,-0.2339 -1.68852,-0.68146 0,-0.19815 -0.16324,-0.29763 -0.36276,-0.22106 -0.58311,0.22376 -1.15217,-0.55499 -1.02729,-1.40583 0.10745,-0.73212 1.12547,-1.74325 1.12547,-1.11786 0,0.15534 0.12241,0.20678 0.27203,0.11431 0.14961,-0.0925 1.07235,0.0373 2.05052,0.28845 3.49054,0.89609 10.84137,0.5629 15.63557,-0.70872 2.16501,-0.57424 6.99538,-2.54665 7.1332,-2.91273 0.0485,-0.12885 0.20242,-0.23427 0.34202,-0.23427 0.38276,0 3.07137,-2.04399 4.12736,-3.13779 1.77055,-1.83394 3.20694,-4.01307 3.81753,-5.79154 0.78944,-2.29941 0.86556,-6.61622 0.1528,-8.66546 -0.74717,-2.1482 -2.21117,-3.84058 -4.1999,-4.8551 -1.5676,-0.79969 -1.95469,-0.88574 -3.95879,-0.88006 -1.49682,0.004 -2.78221,0.18435 -3.94109,0.55221 -0.94589,0.30026 -2.00253,0.54745 -2.34811,0.54933 -0.34557,0.002 -1.89339,-0.46044 -3.43958,-1.02738 -4.31986,-1.58393 -6.62541,-1.97941 -11.54252,-1.97992 -3.38293,-2.7e-4 -4.73723,0.11406 -6.74174,0.56954 -2.28916,0.52018 -2.56293,0.53427 -3.13217,0.16129 -0.779215,-0.51056 -0.61387,-1.55337 0.37631,-2.37331 1.49411,-1.23724 5.91067,-2.07181 10.077,-1.90417 2.27633,0.0916 2.723,0.0471 2.60533,-0.25956 -0.0781,-0.20356 -0.14202,-0.54599 -0.14202,-0.76096 0,-0.21496 -0.0986,-0.3299 -0.21913,-0.25542 -0.32501,0.20087 -3.03049,-2.67982 -2.82662,-3.00969 0.0961,-0.15544 0.0765,-0.2499 -0.0434,-0.20992 -0.11995,0.04 -0.2181,0.008 -0.2181,-0.07 0,-0.0785 -0.37665,-0.51088 -0.83699,-0.96088 -0.87416,-0.85452 -3.90876,-5.11413 -3.64337,-5.11413 0.0839,0 -0.0324,-0.18492 -0.2584,-0.41094 -0.37153,-0.37152 -0.5851,-0.34811 -2.22689,0.24412 -4.009251,1.44622 -9.1297563,1.56057 -13.7536913,0.30715 -2.678345,-0.72603 -3.506729,-1.08004 -3.837024,-1.63973 -0.118084,-0.2001 -0.322014,-0.29749 -0.45317902,-0.21643 -0.40572,0.25075 -2.42662298,-1.1916 -4.19008398,-2.99054 -2.642269,-2.69541 -3.367267,-4.95183 -2.022975,-6.29612 0.540192,-0.5402 0.755706,-0.60831 1.18976,-0.37601 0.650967,0.34839 1.678395,2.29039 1.426969,2.6972 -0.102931,0.16655 -0.06485,0.22326 0.08692,0.12946 0.148558,-0.0918 0.483063,0.0684 0.743347,0.35599 0.260283,0.28761 0.365492,0.5277 0.233799,0.53352 -0.131697,0.006 0.08798,0.18823 0.488158,0.40533 0.40018298,0.2171 0.72760498,0.52983 0.72760498,0.69496 0,0.16513 0.07423,0.226 0.164946,0.13528 0.09072,-0.0907 0.543322,0.12366 1.005779,0.47639 1.20130402,0.91628 3.48821602,1.87573 6.02688302,2.52852 3.064732,0.78806 7.4190543,0.63904 10.2136373,-0.34955 2.15367,-0.76187 5.32908,-2.49603 6.677,-3.64646 0.48556,-0.41442 0.9823,-0.69203 1.10386,-0.6169 0.12155,0.0751 0.19555,0.0384 0.16444,-0.0815 -0.0311,-0.11996 0.65223,-0.93248 1.51854,-1.80561 5.06383,-5.10371 9.21399,-11.9777 10.76961,-17.83793 0.68237,-2.57061 0.81651,-3.57554 0.83279,-6.23915 0.0219,-3.58504 -0.35746,-4.83406 -1.95273,-6.42934 -3.30507,-3.30506 -9.13162,-3.11683 -19.42358,0.62749 -4.052799,1.47445 -4.794082,1.56384 -5.790239,0.69822 -0.607435,-0.52783 -0.588073,-1.40924 0.04591,-2.08973 0.27991,-0.30045 1.69609,-1.06029 3.147067,-1.68855 1.552522,-0.67221 2.589902,-1.26798 2.520912,-1.44776 -0.24307,-0.63342 1.80917,-5.25287 4.05041,-9.1172 1.51847,-2.61812 4.59632,-6.58353 7.59844,-9.78959 2.73604,-2.92189 6.90529,-6.55649 7.35996,-6.41614 0.11786,0.0364 0.21428,-0.0417 0.21428,-0.17339 0,-0.3894 3.53709,-2.89664 7.11779,-5.0454 4.58803,-2.75326 10.15619,-5.25003 16.21335,-7.2701 9.0763,-3.02696 15.72457,-4.0036 25.61678,-3.76315 3.41974,0.0831 7.22974,0.28086 8.46666,0.4394 6.29415,0.80677 12.274406,2.35306 18.375726,4.75135 0.42951,0.16884 1.80359,0.82354 3.0535,1.4549 l 2.27256,1.14792 0.59698,-1.03728 c 0.32834,-0.5705 0.70907,-0.96799 0.84608,-0.88332 0.137,0.0847 0.18685,-0.008 0.11078,-0.20649 -0.32471,-0.84617 3.08759,-3.37405 5.72831,-4.24362 0.57684,-0.18995 1.71236,-3.87824 2.24764,-7.30062 0.61587,-3.93755 0.40751,-12.25632 -0.40829,-16.30093 -1.84379,-9.141299 -6.33733,-18.661949 -12.37439,-26.218139 -0.47577,-0.5955 -0.7768,-1.17097 -0.66895,-1.27882 0.10785,-0.10785 0.077,-0.1666 -0.0685,-0.13055 -0.14552,0.0361 -1.87193,-1.54178 -3.83646,-3.50628 -3.87549,-3.87545 -5.73045,-5.41475 -9.537776,-7.914787 -10.84989,-7.124416 -24.4195,-12.161368 -37.50088,-13.920096 -4.29454,-0.577379 -19.42527,-0.658932 -24.26654,-0.130794 -3.69674,0.40328 -11.52036,1.510517 -13.62604,1.928423 -6.069,1.204492 -15.4309073,3.994608 -20.7697933,6.189993 -4.35711302,1.791674 -10.456886,4.982009 -14.3017657,7.480191 -0.283197,0.184 -0.842182,0.46349 -1.24219,0.62108 -0.40001,0.1576 -0.660873,0.394 -0.579699,0.52535 0.08118,0.13134 0.05127,0.23932 -0.06646,0.23994 -0.117729,5.3e-4 -0.845571,0.47993 -1.617427,1.06511 -0.771856,0.58518 -1.534393,0.98299 -1.694526,0.88402 -0.162039,-0.10014 -0.216898,-0.0598 -0.123706,0.091 0.09209,0.14902 -0.57412,0.85026 -1.480474,1.55834 -0.906356,0.70807 -2.243232,1.85547 -2.970836,2.54979 -0.727605,0.69431 -1.531276,1.32917 -1.785938,1.41079 -0.254661,0.0816 -0.463021,0.27342 -0.463021,0.42621 0,0.1528 -0.9525,1.22394 -2.116666,2.38031 -1.164167,1.15637 -2.116667,2.20374 -2.116667,2.32748 0,0.12374 -0.386953,0.6263 -0.859896,1.11679 -0.472942,0.4905 -1.196011,1.40427 -1.606819,2.03061 -0.740614,1.12918 -0.751793,1.13469 -1.322917,0.65226 -0.568182,-0.47994 -0.569968,-0.47936 -0.131675,0.0428 0.516255,0.61504 0.274576,1.25544 -0.790541,2.09478 -0.354168,0.27909 -0.820338,0.93394 -1.035931,1.45521 -0.215593,0.52127 -0.934064,1.84073 -1.596601,2.93214 -1.816539,2.9924 -1.837706,3.02855 -1.893618,3.23421 -0.123735,0.45514 -2.481421,5.377189 -2.633104,5.497039 -0.09209,0.0728 -0.207219,0.37041 -0.255841,0.66145 -0.157002,0.93981 -1.422051,4.75463 -1.662666,5.01386 -0.128317,0.13824 -0.233307,0.5252 -0.233307,0.85989 0,0.3347 -0.111577,0.60854 -0.247949,0.60854 -0.415856,0 0.02945,1.93737 0.619982,2.69734 0.319435,0.41109 0.824744,0.71917 1.193419,0.72761 0.351674,0.008 0.55794,-0.0668 0.458367,-0.1664 -0.09957,-0.0996 0.201597,-0.57583 0.669264,-1.05834 0.918292,-0.94743 1.896168,-1.13029 2.922913,-0.54656 1.577273,0.89672 4.827018,5.19284 4.603509,6.08578 -0.06379,0.25486 -0.02156,0.40503 0.09384,0.33371 0.115406,-0.0713 0.270656,0.10292 0.345001,0.38722 0.116454,0.44532 -0.81943,1.85839 -1.230818,1.85839 -0.446119,0 -3.594393,-3.61379 -3.615007,-4.14953 -0.01095,-0.28475 -1.115489,-1.07953 -1.931344,-1.38971 -0.598123,-0.22741 -0.682099,-0.15639 -1.09573,0.92669 -0.24638,0.64513 -0.616709,1.17297 -0.822955,1.17297 -0.206245,0 -0.374991,0.11906 -0.374991,0.26458 0,0.5913 -1.09832,0.20654 -1.88818,-0.66145 -0.463473,-0.50933 -0.978207,-0.92605 -1.143852,-0.92605 -0.165645,0 -0.591714,-0.45979 -0.946822,-1.02176 -0.355105,-0.56196 -0.980641,-1.17004 -1.390079,-1.35128 -0.967213,-0.42813 -1.457758,-0.006 -2.479071,2.13429 -0.764866,1.60272 -1.584029,2.18461 -2.275745,1.61657 -0.180009,-0.14783 -0.624948,-0.30995 -0.98875,-0.36028 -0.363802,-0.0503 -0.661459,-0.25711 -0.661459,-0.45953 0,-0.20242 -0.238125,-0.50008 -0.529166,-0.66146 -0.291042,-0.16138 -0.62438,-0.44225 -0.740752,-0.62415 -0.116371,-0.1819 -0.338777,-0.33073 -0.494239,-0.33073 -0.155458,0 -0.671398,-0.34132 -1.146534,-0.7585 -0.475136,-0.41717 -1.316342,-0.84338 -1.869345,-0.94712 -0.933079,-0.17505 -1.064601,-0.11819 -1.826953,0.78986 -0.774332,0.92232 -0.887645,0.96923 -1.973866,0.8173 -0.903316,-0.12635 -1.452115,-0.44466 -2.539251,-1.47283 -0.762783,-0.72141 -1.341009,-1.37737 -1.284949,-1.45768 0.05606,-0.0803 0.03328,-0.0972 -0.05062,-0.0376 -0.0839,0.0597 -0.654933,-0.11377 -1.268957,-0.38538 -1.506379,-0.66635 -5.940372,-0.75117 -7.37116,-0.14101 -0.543104,0.2316 -1.078885,0.39275 -1.190625,0.3581 -0.377146,-0.11694 -2.395435,1.71858 -3.083485,2.80426 -0.607971,0.95932 -0.699904,3.05216 -0.162388,3.69675 0.719687,0.86304 1.236723,1.35498 2.202097,2.09521 0.563942,0.43241 0.895819,0.88163 0.812244,1.09943 -0.07773,0.20255 -0.79507,0.80233 -1.5941,1.33286 -1.210441,0.80369 -1.439035,1.07741 -1.370367,1.64088 0.08193,0.6723 0.567225,0.82987 2.860543,0.92877 0.218281,0.009 0.970693,0.13394 1.672027,0.27672 0.92258,0.18783 1.235788,0.36219 1.132783,0.63062 -0.08064,0.21015 0.01933,0.37101 0.230587,0.37101 0.205126,0 0.439899,0.10832 0.521722,0.2407 0.232248,0.37579 -0.132207,1.08221 -0.558335,1.08221 -0.211299,0 -0.31801,0.10707 -0.237133,0.23793 0.08088,0.13086 -0.269285,0.60348 -0.778135,1.05025 -0.508851,0.44678 -0.925183,0.87968 -0.925183,0.96201 0,0.0823 -0.204918,0.46243 -0.455374,0.84467 -0.728308,1.11154 -0.706632,1.80005 0.06778,2.15289 0.921994,0.42009 2.940986,0.3815 4.224054,-0.0807 1.320276,-0.47565 3.732085,-0.52285 4.006754,-0.0784 0.531088,0.85932 0.07773,2.03393 -1.327303,3.43897 -0.376737,0.37674 -1.488826,2.52497 -1.488826,2.87598 0,0.10539 0.474572,0.27181 1.054605,0.3698 0.789096,0.13332 1.160219,0.0726 1.474108,-0.24132 0.230724,-0.23073 0.600985,-0.41951 0.822801,-0.41951 0.221813,0 0.719325,-0.16793 1.10558,-0.37318 2.187096,-1.16219 3.541942,-1.49232 3.879947,-0.94542 0.0914,0.1479 0.267338,0.20639 0.390962,0.12999 0.123624,-0.0764 0.299622,0.18954 0.391107,0.59099 0.315989,1.38662 0.651431,1.58971 2.257973,1.36706 1.817195,-0.25185 3.535679,-0.64857 4.848552,-1.1193 1.329346,-0.47665 2.36745,-0.2946 2.154055,0.37775 -0.20611,0.64939 0.963748,1.8242 1.81651,1.8242 0.3526,0 0.791697,0.18147 0.975773,0.40327 0.184076,0.22179 0.391991,0.34596 0.462031,0.27591 0.07004,-0.07 0.582377,0.10479 1.138524,0.38852 0.632274,0.32256 1.072991,0.41584 1.176146,0.24893 0.09073,-0.14681 0.294204,-0.18706 0.452155,-0.0894 0.17758,0.10975 0.21051,0.0534 0.08629,-0.14757 -0.294846,-0.47707 0.829784,-1.55222 2.403253,-2.29753 1.508374,-0.71448 3.328434,-0.69162 4.469654,0.0561 0.690388,0.45236 1.448308,1.88558 1.448308,2.73873 0,0.31402 0.105526,0.50573 0.234502,0.42601 0.128977,-0.0797 0.296971,0.094 0.373322,0.38592 0.14714,0.56266 -0.416621,1.31528 -0.985223,1.31528 -0.349118,0 -1.739268,-1.52109 -1.739268,-1.90309 0,-0.11746 -0.18021,-0.21357 -0.400465,-0.21357 -0.220255,0 -0.622663,-0.13877 -0.894234,-0.30837 -0.677291,-0.42297 -2.681647,0.75514 -3.42329,2.01214 -0.857551,1.45344 -3.484094,2.20685 -3.484094,0.9994 0,-0.22557 -0.07881,-0.33131 -0.175122,-0.23499 -0.09632,0.0963 -0.542804,-0.10484 -0.992188,-0.447 -1.227957,-0.93498 -1.956289,-1.09138 -2.555816,-0.54882 -0.280615,0.25396 -0.510207,0.61315 -0.510207,0.79822 0,0.18507 -0.344874,0.50854 -0.766384,0.71882 -0.687647,0.34304 -0.911905,0.3293 -2.182813,-0.13375 -2.36376,-0.86121 -2.952829,-1.00357 -4.152799,-1.00357 -0.947962,0 -1.288518,0.14575 -1.919975,0.82173 -0.422188,0.45195 -0.767612,0.96216 -0.767612,1.13379 0,0.1947 -0.970174,0.44215 -2.579687,0.65798 -3.651472,0.48964 -4.814919,1.27797 -3.79662,2.57252 0.679069,0.8633 0.422071,1.66534 -0.681355,2.12638 -0.492268,0.20568 -1.147678,0.66454 -1.456468,1.01968 -0.30879,0.35513 -0.665509,0.58138 -0.79271,0.50277 -0.127198,-0.0786 -0.198554,0.0147 -0.15857,0.20746 0.04397,0.21189 -0.120817,0.31726 -0.416869,0.26656 -0.320768,-0.0549 -0.423117,0.0237 -0.296834,0.22801 0.106008,0.17153 0.08199,0.38785 -0.05338,0.48072 -0.548383,0.37623 -1.167783,2.1447 -0.915257,2.61318 0.672312,1.24724 1.507138,1.67858 3.505068,1.81102 2.155309,0.14287 4.735785,0.6122 5.09616,0.92688 0.128067,0.11183 -0.01286,0.71375 -0.315206,1.34646 -0.300744,0.62933 -0.626231,1.47166 -0.723307,1.87184 -0.09707,0.40018 -0.282652,0.7276 -0.412398,0.7276 -0.129744,0 -0.2359,0.45719 -0.2359,1.01599 0,0.94238 0.07307,1.0401 1.008727,1.34889 0.88311,0.29145 1.253781,0.26034 2.976562,-0.24984 1.08231,-0.32052 2.086898,-0.67775 2.232419,-0.79386 0.357386,-0.28515 2.487948,-0.89653 3.307292,-0.94905 1.09788,-0.0704 1.344411,0.34187 1.263964,2.11364 -0.06869,1.51287 -0.03447,1.62078 0.539832,1.70216 0.337246,0.0478 1.170684,-0.18311 1.852084,-0.51311 0.681402,-0.33 1.337058,-0.57451 1.457015,-0.54335 0.119957,0.0312 0.142695,-0.0654 0.05053,-0.21449 -0.09217,-0.14913 -0.05345,-0.27114 0.08604,-0.27114 0.139486,0 0.860023,-0.40809 1.601192,-0.90686 1.411518,-0.94988 2.181532,-1.16539 3.081057,-0.86233 0.584034,0.19677 0.769586,1.05439 0.384003,1.77486 -0.178104,0.33279 -0.08138,0.60051 0.370229,1.02477 0.746424,0.70123 1.24506,0.55549 4.034419,-1.17919 1.03844,-0.64579 2.006127,-1.17417 2.150417,-1.17417 0.144288,0 0.417785,-0.1873 0.607769,-0.41621 0.594514,-0.71635 2.240717,-1.41851 2.921445,-1.24609 0.844372,0.21386 1.051732,0.57625 0.877038,1.53276 -0.08001,0.43808 -0.02146,1.12269 0.130117,1.52136 0.216553,0.56957 0.447021,0.72485 1.075885,0.72485 0.440164,0 0.800299,-0.11907 0.800299,-0.26459 0,-0.14552 0.171018,-0.26458 0.380042,-0.26458 0.209023,0 0.834101,-0.41274 1.389062,-0.9172 2.279716,-2.07226 6.697562,-5.37104 6.697562,-5.00102 0,0.0987 0.228222,-0.0271 0.507156,-0.27957 0.404595,-0.36615 0.618622,-0.39932 1.058333,-0.16399 0.303149,0.16224 0.560287,0.38009 0.571421,0.48411 0.01114,0.10402 0.06013,0.39749 0.108881,0.65215 0.04875,0.25466 -0.01617,0.46302 -0.144232,0.46302 -0.128077,0 -0.156403,0.19926 -0.06295,0.44281 0.12873,0.33546 0.06258,0.40161 -0.272886,0.27288 -0.287944,-0.11049 -0.442809,-0.0364 -0.442809,0.21186 0,0.20998 -0.36108,0.5685 -0.802402,0.79671 -0.44132,0.22822 -0.738235,0.51877 -0.65981,0.64566 0.07842,0.12689 0.0051,0.27656 -0.163021,0.33259 -0.428016,0.14267 -0.482827,1.74209 -0.06519,1.90236 0.186875,0.0717 0.46237,0.58566 0.612206,1.14211 0.306464,1.13812 0.08381,2.00035 -1.827453,7.07691 -2.16653,5.75457 -4.262551,15.08163 -4.877474,21.70423 -0.556366,5.99195 -0.380016,14.43677 0.391427,18.74388 1.956993,10.92631 6.301597,21.92405 11.174168,28.28581 0.417965,0.5457 0.697109,0.99219 0.620324,0.99219 -0.07679,0 0.222258,0.38695 0.664541,0.85989 0.442282,0.47294 1.106236,1.30638 1.475451,1.85208 0.369218,0.54571 0.748874,0.99219 0.843682,0.99219 0.239199,0 1.216851,1.67021 1.134338,1.9379 -0.03698,0.11995 0.03736,0.15346 0.165192,0.0745 0.290873,-0.17977 2.31888,1.61649 2.226149,1.97176 -0.03745,0.14346 0.2336397,0.37555 0.6024137,0.51576 0.368773,0.14021 0.778817,0.52455 0.911209,0.85409 0.132389,0.32953 0.248256,0.44896 0.257479,0.26538 0.0092,-0.18357 0.65623,0.18708 1.437791,0.82367 0.78156,0.63659 2.001951,1.55283 2.711979,2.0361 0.710028,0.48327 1.354516,0.97096 1.432195,1.08377 0.07768,0.11281 1.98267898,1.13676 4.233333,2.27544 7.854571,3.97389 14.8524193,5.74146 26.4493893,6.68078 3.68691,0.29863 22.11299,0.11373 25.79688,-0.25886 z M 15.573033,132.76206 c -4.543096,-0.56841 -7.5696153,-1.94645 -10.2934393,-4.68684 -3.051119,-3.06967 -4.39093502,-6.23435 -4.39093502,-10.3715 0,-6.16698 3.26812302,-11.49784 8.68313502,-14.16364 9.6055803,-4.728809 21.0809203,0.64066 23.2299603,10.86962 1.07054,5.09551 -1.11592,11.2256 -5.16114,14.47014 -3.25779,2.61296 -8.56527,4.32041 -12.067581,3.88222 z m 1.210981,-8.01326 c 1.50495,-1.50496 0.76569,-4.65997 -1.207972,-5.15533 -1.028645,-0.25817 -2.446991,0.47324 -2.945699,1.51904 -1.373775,2.88084 1.976313,5.81364 4.153671,3.63629 z m -0.26041,-7.51514 c 0.64135,-0.3386 1.52328,-1.1232 1.95985,-1.74356 0.67645,-0.96126 0.79292,-1.36878 0.78812,-2.75782 -0.005,-1.4044 -0.12553,-1.80368 -0.87237,-2.8863 -1.04746,-1.51839 -2.02698,-2.06456 -4.028061,-2.24602 -1.940859,-0.17599 -4.047162,0.7126 -5.1658923,2.17933 -1.074518,1.40876 -1.239163,3.895 -0.353928,5.34445 0.742096,1.21507 1.113126,1.54386 2.4883773,2.20508 1.511274,0.72661 3.703561,0.68637 5.183904,-0.0952 z m 37.14943,7.38011 c -3.81064,-1.06884 -6.08995,-2.44171 -7.63614,-4.59941 -1.41457,-1.97402 -0.99098,-4.01716 0.83284,-4.01716 0.90798,0 2.24762,1.01165 2.04362,1.54327 -0.0897,0.23374 -0.0976,0.35944 -0.0174,0.27934 0.0801,-0.0801 0.66938,0.35621 1.30953,0.96957 1.88563,1.80675 3.90863,2.36086 8.62697,2.36298 2.85901,0.001 4.27016,-0.11772 5.53872,-0.46704 4.26268,-1.17381 6.26896,-2.69604 7.03745,-5.33952 0.60301,-2.07428 2.04767,-2.66478 3.28837,-1.34411 0.50446,0.53697 0.58805,0.85353 0.47956,1.81604 -0.42013,3.7274 -4.06375,6.90946 -9.65122,8.42864 -2.66792,0.72539 -9.78898,0.94613 -11.85225,0.3674 z m 43.03384,-4.91981 c -5.53938,-0.80569 -10.33971,-5.2635 -11.80454,-10.96225 -1.89804,-7.38409 3.00371,-15.451019 10.22018,-16.819599 1.74597,-0.33111 4.5301,-0.31759 6.043216,0.0294 5.30622,1.21668 9.81252,5.93189 10.97905,11.488019 0.48564,2.31311 0.48878,3.49724 0.0152,5.73169 -0.74705,3.5247 -2.43478,6.00517 -5.58959,8.21504 -1.92768,1.35029 -2.65631,1.67858 -4.79543,2.16061 -2.032456,0.45799 -2.829586,0.48271 -5.068076,0.15713 z m 1.78727,-7.26974 c 0.20412,-0.19974 0.38271,-0.91598 0.39688,-1.59165 0.0224,-1.06911 -0.0863,-1.32868 -0.83832,-2.00069 -0.55256,-0.4938 -1.15358,-0.77218 -1.66714,-0.77218 -0.6693,0 -0.86821,0.15588 -1.19404,0.93572 -0.56859,1.3608 0.0787,3.44447 1.21171,3.90076 0.54093,0.21784 1.63936,-0.0301 2.09091,-0.47196 z m -0.78511,-7.24303 c 1.51544,-1.20711 1.93026,-1.94857 1.93026,-3.45018 0,-3.582879 -4.1096,-5.718549 -7.08321,-3.680989 -3.21211,2.200969 -2.53713,6.734269 1.17845,7.914759 1.15271,0.36623 2.98432,0.005 3.9745,-0.78359 z m -108.991208,150.516 c 0,-0.14552 -0.131799,-0.26458 -0.292891,-0.26458 -0.161089,0 -0.224358,-0.1786 -0.140594,-0.39688 0.09375,-0.24431 -5.29e-4,-0.39687 -0.245433,-0.39687 -0.531979,0 -3.818998,-3.44057 -3.818998,-3.9974 0,-0.24134 -0.244933,-0.50285 -0.544293,-0.58114 -0.29936,-0.0783 -0.679693,-0.50105 -0.845185,-0.93949 -0.165491,-0.43844 -0.515874,-0.85337 -0.778624,-0.92209 -0.262752,-0.0687 -0.477731,-0.32169 -0.477731,-0.56219 0,-0.24049 -0.09421,-0.37903 -0.209354,-0.30787 -0.197549,0.12209 -4.09616,-5.50748 -4.859785,-7.01749 -0.195151,-0.3859 -0.959191,-1.87418 -1.697868,-3.30729 -1.747311,-3.38998 -3.273959,-7.15586 -4.434969,-10.94004 -0.923256,-3.00924 -2.336568,-9.00923 -2.695893,-11.445 -0.157041,-1.06453 -0.354338,-1.38767 -1.279834,-2.09618 -1.801326,-1.379 -3.067003,-2.66761 -2.894415,-2.94686 0.09583,-0.15507 0.02588,-0.17821 -0.17096,-0.0566 -0.558083,0.34492 -6.735702,-6.0665 -16.288956,-16.90542 -1.016495,-1.1533 -2.086298,-2.34682 -2.377339,-2.65228 -0.291042,-0.30547 -0.986018,-1.07032 -1.544392,-1.69968 -0.558374,-0.62936 -1.796798,-1.72853 -2.752055,-2.4426 -5.838063,-4.36404 -9.647047,-1.34159 -11.334787,8.9942 -0.576515,3.5306 -0.356393,14.1465 0.37093,17.88892 1.624073,8.35663 3.650427,13.04707 8.987303,20.80307 0.46319,0.67314 1.885505,2.33103 3.160707,3.68418 1.275199,1.35317 2.302007,2.61811 2.281796,2.811 -0.02022,0.19289 0.181398,0.35071 0.448019,0.35071 0.26662,0 0.651023,0.23737 0.854228,0.52748 0.203205,0.29012 0.448082,0.44887 0.544169,0.35278 0.09609,-0.0961 0.174707,-0.0492 0.174707,0.10427 0,0.25421 6.929394,5.63005 7.257081,5.63005 0.07754,0 0.785624,0.41238 1.573527,0.91639 1.839791,1.1769 5.762146,3.02201 8.631891,4.06051 4.822615,1.74521 12.812648,3.30069 18.785415,3.6571 1.527969,0.0912 2.827735,0.20989 2.888369,0.26381 0.259771,0.23098 3.726214,0.076 3.726214,-0.16656 z M 101.29803,243.963 c 6.67204,-1.13256 11.68764,-2.30007 13.01333,-3.0292 0.31785,-0.17482 0.81684,-0.31786 1.10886,-0.31786 0.29202,0 0.60955,-0.12718 0.70562,-0.28262 0.0961,-0.15544 0.34122,-0.21871 0.54478,-0.14059 0.20356,0.0781 0.37011,0.0429 0.37011,-0.0783 0,-0.12119 0.56555,-0.43218 1.25677,-0.69109 0.69123,-0.25892 2.0898,-0.87041 3.10794,-1.35887 1.01814,-0.48845 1.99048,-0.8881 2.16076,-0.8881 0.17028,0 0.34929,-0.10057 0.3978,-0.2235 0.0919,-0.23283 0.57909,-0.52066 2.7568,-1.62858 0.71508,-0.36381 1.36869,-0.75398 1.45247,-0.86707 0.3072,-0.41461 3.01987,-2.04505 3.86845,-2.3251 0.4807,-0.15865 0.87401,-0.44606 0.87401,-0.63868 0,-0.19262 0.41672,-0.59609 0.92604,-0.8966 0.50933,-0.30051 0.92605,-0.64571 0.92605,-0.76712 0,-0.12141 0.53578,-0.55941 1.19062,-0.97333 0.65484,-0.41392 1.19063,-0.86702 1.19063,-1.00687 0,-0.31474 1.36931,-1.41335 1.64851,-1.32263 0.11196,0.0364 0.20357,-0.0547 0.20357,-0.20233 0,-0.14766 0.33974,-0.47508 0.75498,-0.7276 0.41524,-0.25252 0.76652,-0.57819 0.78063,-0.72372 0.0396,-0.40836 0.88155,-1.49662 1.90324,-2.45995 0.50891,-0.47984 1.10423,-1.25045 1.32291,-1.71245 0.21869,-0.462 0.64535,-0.96329 0.94814,-1.11399 0.30279,-0.1507 0.50583,-0.40807 0.45121,-0.57194 -0.0546,-0.16388 0.0931,-0.49037 0.32827,-0.72554 0.23517,-0.23517 0.32978,-0.43137 0.21025,-0.436 -0.11954,-0.005 -0.0387,-0.15346 0.17953,-0.33073 0.21829,-0.17727 0.60331,-0.7688 0.85562,-1.3145 0.25231,-0.5457 0.58676,-0.99219 0.74322,-0.99219 0.15646,0 0.21683,-0.10946 0.13414,-0.24325 -0.0827,-0.13379 0.0237,-0.41727 0.23637,-0.62996 0.21269,-0.21269 0.32082,-0.45259 0.24029,-0.53312 -0.0805,-0.0805 0.17221,-0.56414 0.56162,-1.07469 0.38942,-0.51055 0.70236,-0.99337 0.69542,-1.07293 -0.024,-0.275 0.3001,-1.17486 1.24522,-3.4575 0.30126,-0.72761 0.80546,-2.45402 1.12046,-3.83646 0.31498,-1.38245 0.67991,-2.8112 0.81093,-3.175 0.27354,-0.75954 0.69999,-3.9386 0.93755,-6.98929 l 0.1631,-2.09451 -0.89416,-0.72978 -0.89416,-0.72977 0.60454,-0.64351 c 0.83382,-0.88756 0.94977,-1.96817 0.61032,-5.68801 -0.67385,-7.38425 -3.44535,-15.41312 -7.35105,-21.29551 -1.61422,-2.43118 -1.78977,-2.57545 -3.13381,-2.57545 -2.25756,0 -11.00783,-2.78908 -15.03651,-4.79277 -3.02457,-1.5043 -4.04206,-2.15563 -4.86498,-3.11424 l -0.594,-0.69195 -0.001,1.0078 c -7.9e-4,0.615 -0.10612,0.94303 -0.27021,0.84161 -0.1479,-0.0914 -0.19861,-0.27992 -0.11269,-0.41894 0.28086,-0.45444 -0.17766,-1.82249 -0.8976,-2.67809 -0.38785,-0.46094 -0.68617,-0.90457 -0.66291,-0.98585 0.075,-0.26228 -0.2958,-0.71281 -0.71173,-0.86472 -0.22268,-0.0813 -0.63837,-0.60813 -0.92376,-1.17067 -0.28539,-0.56254 -0.67645,-1.21929 -0.86902,-1.45943 -0.19257,-0.24014 -0.38516,-0.96073 -0.42799,-1.60131 -0.0428,-0.64059 -0.21371,-1.41855 -0.37975,-1.7288 -0.16604,-0.31026 -0.30189,-0.87456 -0.30189,-1.254 0,-0.59792 -0.25773,-0.81059 -1.93316,-1.5952 -5.22459,-2.4467 -11.93876,-4.5305 -17.826556,-5.53263 -6.36874,-1.08399 -14.19631,-1.53682 -18.7419,-1.08423 -12.21674,1.21637 -24.8859,5.48281 -34.67678,11.67767 -1.46681,0.92807 -2.74468,1.68741 -2.83969,1.68741 -0.095,0 -0.50224,0.29079 -0.90494,0.64619 -0.4027,0.3554 -1.80374,1.52855 -3.11343,2.60699 -4.72773,3.89298 -9.6444,9.21046 -11.79275,12.75411 -2.38959,3.94156 -4.09273,7.54063 -3.56837,7.54063 0.0699,0 1.15836,-0.24046 2.41881,-0.53436 6.59117,-1.53686 11.34676,-0.6957 15.01359,2.65558 3.64433,3.33071 4.41579,8.07304 2.52952,15.5494 -1.00565,3.98595 -2.85187,8.22355 -5.37361,12.33395 -2.30124,3.75097 -2.51361,4.42992 -1.7627,5.63519 0.79409,1.27456 1.93724,1.75824 3.76404,1.5926 1.88036,-0.17051 2.53574,-0.60082 5.69139,-3.73687 2.73587,-2.71888 2.78946,-2.76526 4.21332,-3.64693 3.8404,-2.37802 8.50742,-2.27608 11.10066,0.24244 2.76337,2.68375 3.05759,5.90571 1.21367,13.29061 -1.31459,5.26491 -1.34782,6.67019 -0.21082,8.91397 1.30668,2.57859 3.29205,3.70657 6.07918,3.45384 2.65218,-0.24049 4.2832,-1.78851 6.55857,-6.22481 1.63,-3.17801 4.18862,-5.42712 7.57378,-6.65761 1.38951,-0.50508 2.02458,-0.57991 4.10104,-0.48325 2.84851,0.1326 4.30684,0.6765 5.83037,2.1745 0.5457,0.53655 0.99218,1.04974 0.99218,1.14042 0,0.0907 0.16334,0.35284 0.36296,0.58258 0.19963,0.22974 0.75025,1.13208 1.2236,2.0052 1.11961,2.0652 1.70679,2.68876 3.29131,3.49518 2.38052,1.21153 5.804716,0.82343 8.604586,-0.97525 3.34699,-2.15016 4.99969,-5.24885 5.57616,-10.45485 0.35942,-3.24595 0.91537,-4.65873 2.53955,-6.45351 2.55741,-2.82603 6.22139,-4.03577 9.41308,-3.10792 0.87028,0.253 2.31033,1.02869 3.51715,1.89455 3.26573,2.34306 3.88139,2.59045 6.75974,2.71631 2.28745,0.10003 2.74299,0.0351 4.81138,-0.6863 2.32681,-0.81148 4.51108,-2.09155 5.83194,-3.41774 1.04096,-1.04517 1.77896,-1.97163 1.77896,-2.23324 0,-0.12325 0.1732,-0.2241 0.38488,-0.2241 0.23628,0 0.45458,-0.38309 0.56539,-0.99219 0.0993,-0.5457 0.37693,-1.52797 0.61701,-2.18281 0.24008,-0.65484 0.43214,-1.35921 0.4268,-1.56526 -0.006,-0.21752 0.3157,-0.41821 0.76623,-0.47854 0.42676,-0.0572 0.90927,-0.28627 1.07225,-0.50916 0.2653,-0.36281 0.33288,-0.36119 0.64553,0.0155 0.23771,0.28643 0.26511,0.52635 0.0858,0.75149 -0.14486,0.1819 -0.2742,1.10464 -0.28742,2.05052 -0.0234,1.67446 -0.79813,3.96875 -1.34014,3.96875 -0.12447,0 -0.37426,0.35719 -0.55509,0.79375 -0.18083,0.43656 -0.43862,0.79375 -0.57287,0.79375 -0.13424,0 -0.20909,0.15683 -0.16634,0.3485 0.22799,1.02195 -6.12146,5.3411 -8.2473,5.61014 -0.49272,0.0624 -0.97955,0.24879 -1.08183,0.4143 -0.46087,0.74569 -6.17057,1.06088 -7.41878,0.40954 -0.37734,-0.1969 -1.12148,-0.43969 -1.65364,-0.53952 -0.53217,-0.0998 -0.96757,-0.30222 -0.96757,-0.44974 0,-0.14751 -0.10906,-0.2008 -0.24236,-0.11842 -0.13329,0.0824 -0.59504,-0.20291 -1.02611,-0.63398 -0.43106,-0.43106 -0.8473,-0.7202 -0.92497,-0.64253 -0.0777,0.0777 -0.40876,-0.22065 -0.73576,-0.66294 -0.327,-0.44229 -0.69551,-0.74176 -0.81892,-0.66549 -0.1234,0.0763 -0.29554,-0.0468 -0.38252,-0.27345 -0.087,-0.22667 -0.25699,-0.35104 -0.37779,-0.27638 -0.12081,0.0747 -0.79294,0.005 -1.49363,-0.15496 -3.16372,-0.72193 -6.14541,1.2087 -7.17596,4.64638 -0.30538,1.01865 -0.61508,2.62599 -0.68823,3.57188 -0.14538,1.87982 -0.42977,3.01898 -1.03744,4.15563 -0.21734,0.40654 -0.54345,1.13625 -0.72467,1.62159 -0.18123,0.48533 -0.46124,1.02112 -0.62224,1.19062 -0.161,0.16951 -0.49977,0.63179 -0.75284,1.0273 -0.29008,0.45335 -0.6077,0.66246 -0.85947,0.56585 -0.28558,-0.10959 -0.35274,-0.0318 -0.23574,0.27309 0.09,0.23448 0.0398,0.42633 -0.11147,0.42633 -0.15128,0 -0.35063,0.23813 -0.44301,0.52917 -0.0924,0.29104 -0.30875,0.53122 -0.48085,0.53374 -0.17209,0.003 -0.58608,0.29268 -0.91997,0.64482 -0.33388,0.35213 -1.04826,0.78185 -1.5875,0.95492 -0.53923,0.17307 -1.17342,0.48275 -1.40929,0.68819 -0.23587,0.20543 -1.35945,0.56329 -2.49685,0.79524 -1.794596,0.36597 -2.362496,0.37591 -4.295606,0.0752 -1.22518,-0.19059 -2.36378,-0.47421 -2.53022,-0.63026 -0.16645,-0.15604 -0.80864,-0.62733 -1.4271,-1.0473 -0.61847,-0.41998 -1.12448,-0.86646 -1.12448,-0.99219 0,-0.12573 -0.16014,-0.2286 -0.35587,-0.2286 -0.45324,0 -1.29089,-0.91088 -1.05478,-1.14699 0.0979,-0.0979 -0.0573,-0.44543 -0.34483,-0.77228 -0.28757,-0.32685 -0.75437,-1.09892 -1.03733,-1.71572 -0.28297,-0.61679 -0.59967,-1.12281 -0.7038,-1.12448 -0.10412,-0.002 -0.52706,-0.33045 -0.93985,-0.73063 -2.33002,-2.25881 -6.32179,-2.19262 -9.32188,0.15456 -1.18265,0.92528 -2.9589,3.33571 -3.2981,4.47564 -0.0974,0.32743 -0.2952,0.59532 -0.43951,0.59532 -0.1443,0 -0.20229,0.0972 -0.12886,0.21601 0.14623,0.23661 -0.98164,2.00886 -1.82207,2.86304 -0.29104,0.2958 -0.69647,0.78476 -0.90096,1.08657 -0.20449,0.30182 -0.51654,0.4932 -0.69346,0.42531 -0.17692,-0.0679 -0.39097,0.0572 -0.47567,0.27789 -0.0847,0.22073 -0.78083,0.71897 -1.54696,1.10719 -1.14202,0.57871 -1.75196,0.70598 -3.38586,0.70652 -1.09611,2.7e-4 -2.38444,-0.0885 -2.86297,-0.19746 -1.18112,-0.26895 -4.06362,-2.23028 -4.47615,-3.0457 -0.184,-0.36369 -0.3363,-0.55589 -0.33844,-0.42713 -0.006,0.37282 -0.9191,-0.93101 -1.43916,-2.05547 -0.52702,-1.13952 -1.02445,-4.42565 -0.82569,-5.45469 0.0703,-0.3638 0.19918,-1.19724 0.28646,-1.85208 0.17453,-1.30935 0.40931,-2.30275 1.06304,-4.49792 1.14635,-3.84929 1.14852,-6.10896 0.008,-8.05552 -0.95524,-1.62999 -1.20611,-1.74176 -4.03835,-1.79924 -1.36139,-0.0276 -1.91445,0.11004 -3.3073,0.82326 -2.01095,1.02972 -2.33196,1.29337 -4.12909,3.39124 -0.76902,0.89772 -2.07871,2.07969 -2.91041,2.62661 -0.83171,0.54693 -1.57173,1.07494 -1.64449,1.17336 -0.0728,0.0984 -0.51333,0.37416 -0.97905,0.61275 -1.25852,0.64474 -5.9021,0.54998 -5.49292,-0.11209 0.0752,-0.12162 -0.27911,-0.29914 -0.78729,-0.39447 -0.79604,-0.14934 -1.90954,-0.91173 -1.33162,-0.91173 0.11285,0 -0.0665,-0.23566 -0.39862,-0.52368 -0.33209,-0.28802 -0.7075,-0.45959 -0.83424,-0.38126 -0.12673,0.0783 -0.23043,0.0163 -0.23043,-0.13778 0,-0.15411 -0.29766,-0.2802 -0.66146,-0.2802 -0.38685,0 -0.66146,0.15198 -0.66146,0.36609 0,0.20135 -0.50601,0.8045 -1.12448,1.34033 -0.61846,0.53583 -1.52249,1.32359 -2.00896,1.75058 -0.48646,0.42698 -1.03714,0.77633 -1.22372,0.77633 -0.18658,0 -0.52831,0.38696 -0.7594,0.8599 -0.39785,0.81424 -0.39178,0.88163 0.11421,1.2692 0.54057,0.41404 1.15077,1.32296 1.45711,2.17038 0.0921,0.25466 0.27958,0.46302 0.41672,0.46302 0.13713,0 0.18346,0.10659 0.10295,0.23686 -0.0805,0.13027 0.0391,0.30803 0.26574,0.39501 0.22667,0.087 0.33307,0.28606 0.23644,0.44241 -0.0975,0.15779 0.0716,0.34892 0.3801,0.4296 0.53255,0.13926 0.60347,0.26064 0.66286,1.13445 0.0145,0.21415 0.31524,0.53334 0.6682,0.70931 0.35296,0.17597 0.79495,0.59607 0.9822,0.93355 0.18725,0.33748 0.34467,0.54324 0.34982,0.45724 0.005,-0.086 0.9164,0.71602 2.02497,1.78226 1.10858,1.06624 2.10712,1.88206 2.21898,1.81292 0.29224,-0.18061 0.82601,0.53658 0.59178,0.79513 -0.10788,0.11909 -0.0473,0.13087 0.13459,0.0262 0.1819,-0.10468 0.33073,-0.0642 0.33073,0.0899 0,0.15411 0.14381,0.2802 0.31957,0.2802 0.17577,0 0.74265,0.41313 1.25976,0.91806 0.5171,0.50494 1.17696,0.95724 1.46636,1.00513 0.2894,0.0479 0.78625,0.23006 1.1041,0.40485 0.81231,0.44668 1.83345,0.39768 4.36626,-0.20952 1.20976,-0.29002 3.007,-0.52815 3.99386,-0.52917 2.00123,-0.002 4.65793,0.76135 5.5537,1.59589 0.51657,0.48125 0.84311,0.62076 1.30076,0.55571 0.15836,-0.0225 0.84091,0.6619 2.33146,2.33781 0.74176,0.83401 2.07356,3.83724 2.40823,5.43061 0.4166,1.98347 1.25797,2.88973 2.90284,3.12672 1.59371,0.22962 2.28836,0.37987 3.30004,0.71375 0.81676,0.26956 2.57659,0.62805 4.61806,0.94075 0.50932,0.078 1.22369,0.24493 1.58749,0.37093 0.36381,0.126 1.37584,0.30445 2.24896,0.39657 0.87313,0.0921 2.54,0.28778 3.70417,0.43482 4.78577,0.60446 6.94983,0.70195 13.89062,0.62574 4.96984,-0.0546 8.0308,-0.20801 9.657296,-0.4841 z M 87.936574,191.90038 c -6.53946,-0.7519 -12.2649,-2.6502 -15.82287,-5.24614 -1.68485,-1.2293 -2.74075,-3.6378 -2.72726,-6.22088 0.0147,-2.82526 0.92941,-4.89089 3.23674,-7.30968 4.02142,-4.2157 11.98789,-6.94 19.01755,-6.50346 6.12463,0.38034 11.703646,2.48325 16.467126,6.20699 2.58524,2.02094 4.69954,5.83192 4.69954,8.47079 0,1.40474 -0.84213,3.47132 -1.90798,4.68219 -1.47851,1.67968 -2.88045,2.55165 -7.17322,4.46157 -3.44212,1.53145 -9.937556,2.13149 -15.789626,1.45862 z m 7.82078,-3.53123 c 0.28248,-0.21365 0.41579,-0.39224 0.29626,-0.39688 -0.11954,-0.005 -0.06,-0.15895 0.13229,-0.34294 0.69419,-0.66423 2.71272,-2.17811 2.85247,-2.13932 0.0786,0.0218 0.11573,-0.06 0.0824,-0.18175 -0.0333,-0.12179 0.38766,-0.4192 0.935496,-0.66091 0.64856,-0.28614 0.99607,-0.61504 0.99607,-0.94273 0,-0.27679 -0.10347,-0.50326 -0.22994,-0.50326 -0.12646,0 -0.18396,-0.13792 -0.12776,-0.30649 0.19506,-0.58519 1.22517,-0.47206 2.9906,0.32843 l 1.77504,0.80484 -0.60855,0.64777 c -0.39078,0.41597 -0.67265,0.54408 -0.78765,0.358 -0.10798,-0.1747 -0.23489,-0.0764 -0.31959,0.24745 -0.0773,0.29549 -0.36168,0.54211 -0.63202,0.54806 -1.23413,0.0272 -1.41757,0.12077 -1.41757,0.72333 0,0.46413 0.14776,0.61712 0.59531,0.61638 0.75678,-0.001 5.10719,-2.16843 5.05157,-2.51646 -0.0229,-0.14338 -0.0824,-0.48574 -0.13229,-0.76081 -0.0697,-0.3847 0.14758,-0.56816 0.94142,-0.79486 1.20737,-0.34479 1.43781,-0.81955 1.22039,-2.51433 -0.161,-1.25494 -2.23734,-4.79827 -2.7558,-4.70284 -0.13592,0.025 -0.3791,-0.19263 -0.5404,-0.48368 -0.1613,-0.29104 -0.43021,-0.55602 -0.59758,-0.58885 -0.44682,-0.0877 -2.87184,-1.65843 -2.57765,-1.66965 0.13763,-0.005 -0.38809,-0.23917 -1.16827,-0.51982 -0.78018,-0.28065 -1.913436,-0.74987 -2.518346,-1.0427 -0.60491,-0.29283 -2.09604,-0.7214 -3.31362,-0.95237 -3.65316,-0.69299 -12.99401,-0.25871 -14.18077,0.6593 -0.14552,0.11257 -0.62177,0.28733 -1.05833,0.38836 -1.07947,0.24981 -3.22682,1.37724 -4.43177,2.32683 -0.54571,0.43005 -0.99219,0.63827 -0.99219,0.4627 0,-0.24348 -0.095,-0.24037 -0.40037,0.0131 -0.2202,0.18275 -0.36916,0.46815 -0.33103,0.63422 0.0381,0.16607 -0.34328,0.94497 -0.8476,1.73088 -0.73186,1.1405 -0.91872,1.69996 -0.92575,2.77161 -0.009,1.32416 0.003,1.34382 0.85309,1.42574 0.49538,0.0477 1.02236,-0.0774 1.23926,-0.29432 0.20756,-0.20756 0.9508,-0.46256 1.65166,-0.56667 0.70085,-0.10412 1.5124,-0.24079 1.80345,-0.30372 0.29104,-0.0629 2.37463,-0.24555 4.6302,-0.40582 4.69226,-0.3334 11.78721,-0.12711 15.27756,0.4442 1.08592,0.17775 1.50439,1.30323 0.7026,1.88968 -0.88546,0.64764 -1.72895,0.69825 -4.2354,0.25414 -1.34903,-0.23903 -2.60871,-0.3836 -2.79929,-0.32128 -0.19058,0.0623 -2.87674,0.17344 -5.96925,0.24693 -3.09251,0.0735 -5.72159,0.19471 -5.8424,0.26938 -0.12081,0.0747 -1.04339,0.21014 -2.05018,0.30106 -1.00678,0.0909 -2.12817,0.26373 -2.49197,0.38401 -0.3638,0.12029 -0.88872,0.29292 -1.16649,0.38361 -0.46726,0.15258 -0.44748,0.2252 0.26459,0.97105 1.56553,1.63982 6.04425,3.28681 11.08772,4.07735 3.14965,0.4937 9.4197,0.49624 10.07038,0.004 z M 142.9847,155.66778 c 0.0896,-0.3545 0.0555,-0.94096 -0.0758,-1.30325 -0.1313,-0.36228 -0.1638,-1.05806 -0.0722,-1.54616 0.12445,-0.6634 0.0541,-0.96959 -0.27845,-1.2128 -0.37874,-0.27694 -0.39367,-0.40745 -0.10035,-0.87712 0.30562,-0.48938 0.25114,-0.65819 -0.48185,-1.49302 -0.59777,-0.68083 -0.7927,-1.12723 -0.70453,-1.61345 0.067,-0.36971 0.0278,-0.64161 -0.0872,-0.60422 -0.37386,0.12157 -1.29738,-0.95222 -2.41853,-2.81203 -3.47848,-5.77025 -8.65762,-9.79254 -12.59682,-9.78312 -0.95246,0.002 -1.92045,0.17782 -2.41947,0.43876 -4.06801,2.12718 -4.85347,8.90161 -1.53587,13.24654 1.77355,2.32275 6.02749,4.7989 10.96665,6.3835 1.23692,0.39684 2.42755,0.78467 2.64583,0.86185 0.51304,0.1814 0.77775,0.23954 3.28456,0.72136 1.15167,0.22136 2.14147,0.44999 2.19955,0.50808 0.31894,0.31893 1.52975,-0.34266 1.67444,-0.91492 z m -3.71897,-12.94767 c 0,-0.14552 -0.12609,-0.26458 -0.2802,-0.26458 -0.15411,0 -0.20661,0.11906 -0.11667,0.26458 0.0899,0.14552 0.21602,0.26459 0.2802,0.26459 0.0642,0 0.11667,-0.11907 0.11667,-0.26459 z m -5.33965,-10.00674 c 0.0469,-0.48836 -0.10004,-1.15997 -0.33073,-1.51205 -0.44394,-0.67754 -0.53494,-1.64126 -0.20412,-2.16175 0.12511,-0.19686 1.1588,-0.36463 2.69842,-0.43796 2.17347,-0.10352 2.55661,-0.19419 2.96814,-0.70241 0.58198,-0.71871 0.59776,-1.28671 0.0572,-2.05847 -0.4239,-0.60521 -0.4332,-1.52316 -0.0143,-1.40753 0.12753,0.0352 0.36565,-0.19792 0.52916,-0.51804 0.2187,-0.42818 0.82189,-0.72034 2.28167,-1.10514 1.09141,-0.2877 2.16297,-0.53929 2.38125,-0.5591 0.95753,-0.0869 1.66996,-1.6803 1.07292,-2.39968 -0.15102,-0.18197 -0.22174,-0.3837 -0.15715,-0.44828 0.0646,-0.0646 -0.19699,-0.14345 -0.58128,-0.17525 -0.38429,-0.0318 -0.78675,0.0846 -0.89435,0.25874 -0.44565,0.72107 -3.97694,1.32332 -4.3376,0.73977 -0.0914,-0.1479 -0.28226,-0.19717 -0.42412,-0.10949 -0.14187,0.0877 -0.52059,-0.008 -0.84162,-0.21165 -0.32102,-0.20409 -0.93229,-0.36318 -1.35837,-0.35354 -0.65579,0.0148 -0.87915,0.2206 -1.45521,1.34045 -0.37428,0.7276 -0.79957,1.30164 -0.9451,1.27562 -0.14552,-0.026 -0.44943,0.12 -0.67535,0.32446 -0.29735,0.26909 -0.7892,0.32692 -1.78124,0.20943 -1.59655,-0.18909 -2.17361,0.13771 -2.17361,1.23094 0,1.42165 -0.82296,5.41682 -1.20209,5.83576 -0.82089,0.90707 -0.48102,1.42959 1.53282,2.35661 1.05502,0.48565 2.01734,1.05117 2.13847,1.25671 0.12569,0.21327 0.52325,0.33866 0.92604,0.29208 0.58573,-0.0677 0.72014,-0.23108 0.79011,-0.96023 z m -0.39583,-13.01206 c 0.18632,-3e-5 0.30534,-0.3988 0.29614,-0.99219 -0.021,-1.35093 0.37329,-2.43906 0.90116,-2.48724 1.02262,-0.0933 2.00105,0.11387 2.77973,0.58869 0.45783,0.27916 1.09038,0.50801 1.40567,0.50856 0.3153,5.2e-4 0.61295,0.11593 0.66146,0.25641 0.11333,0.32822 2.88758,0.65676 3.73973,0.44288 0.65937,-0.16548 1.12934,-1.10313 0.68925,-1.37511 -0.13186,-0.0815 -0.23974,-0.38346 -0.23974,-0.67104 0,-0.28757 -0.19169,-0.8154 -0.42597,-1.17296 -0.81264,-1.24026 -0.41247,-1.44795 2.78994,-1.44795 2.18229,0 3.1435,-0.11147 3.84476,-0.44587 0.51426,-0.24524 0.93502,-0.54992 0.93502,-0.67708 0,-0.12715 0.11906,-0.15761 0.26458,-0.0677 0.14552,0.0899 0.26458,0.0374 0.26458,-0.11668 0,-0.15411 -0.11532,-0.2802 -0.25628,-0.2802 -0.14095,0 -0.18774,-0.17859 -0.10398,-0.39687 0.0838,-0.21828 0.0135,-0.39688 -0.15621,-0.39688 -0.16968,0 -0.22355,-0.13745 -0.11972,-0.30546 0.1067,-0.17264 0.0735,-0.23423 -0.0763,-0.14164 -0.14579,0.0901 -0.63433,-0.25328 -1.08565,-0.76306 -1.15353,-1.30293 -1.03233,-2.5126 0.37346,-3.72747 0.95878,-0.82857 1.27068,-0.99106 1.75538,-0.91453 0.10914,0.0172 0.19844,-0.14307 0.19844,-0.35624 0,-0.21316 0.25538,-0.52424 0.56752,-0.69129 0.88351,-0.47283 1.79615,-1.63729 1.80537,-2.3035 0.006,-0.41509 -0.28207,-0.77559 -0.91946,-1.15166 -0.51031,-0.30109 -0.99668,-0.821769 -1.08083,-1.157059 -0.14909,-0.594 0.25603,-1.68959 0.74252,-2.00807 0.13318,-0.0872 0.25767,-1.21828 0.27664,-2.51354 0.0292,-1.99161 -0.0543,-2.49979 -0.54063,-3.29322 -1.43177,-2.3357 -4.8452,-3.53883 -7.05927,-2.48819 -1.09956,0.52178 -2.0502,1.40152 -1.85528,1.71691 0.30968,0.50107 -0.41505,1.31261 -1.1722,1.31261 -0.56073,0 -0.90938,-0.23354 -1.37975,-0.92424 -0.54524,-0.80062 -0.77343,-0.92447 -1.70618,-0.92604 -1.3385,-0.002 -1.69533,0.38459 -3.28886,3.56537 -1.01145,2.01889 -1.29393,2.38435 -1.87706,2.42838 -0.5395,0.0407 -0.82268,-0.16952 -1.32292,-0.98223 -0.35006,-0.56874 -0.86905,-1.11167 -1.15331,-1.20652 -0.28425,-0.0949 -0.67948,-0.3351 -0.87827,-0.5339 -0.44312,-0.44312 -1.22397,-0.0957 -1.67371,0.74461 -0.34433,0.64338 -1.03223,3.74613 -1.03223,4.65579 0,0.33205 -0.1786,0.67225 -0.39688,0.75601 -0.52448,0.20126 -0.52448,2.882369 0,3.799849 0.20797,0.3638 0.38234,0.9948 0.3875,1.4022 0.005,0.40741 0.18782,1.08583 0.40593,1.50759 0.55241,1.06824 1.18626,6.1888 1.18881,9.6038 0.002,2.77724 0.0223,2.87469 0.72974,3.52088 0.40018,0.36552 0.89548,0.8282 1.10066,1.02818 0.31755,0.30952 0.44832,0.26791 0.87909,-0.27973 0.27833,-0.35383 0.64624,-0.64336 0.81758,-0.64339 z"
       id="path331" /></g></svg>
