<?xml version="1.0" encoding="UTF-8" standalone="no"?>
<!-- Created with Inkscape (http://www.inkscape.org/) -->

<svg
   width="213.54645mm"
   height="175.98494mm"
   viewBox="0 0 213.54644 175.98495"
   version="1.1"
   id="svg5"
   xml:space="preserve"
   xmlns="http://www.w3.org/2000/svg"
   xmlns:svg="http://www.w3.org/2000/svg"><defs
     id="defs2" /><g
     id="layer1"
     transform="translate(7.921386,-91.23798)"><path
       style="fill:#000000;stroke-width:0.264583"
       d="m 75.717556,267.13645 c -7.86849,-0.41771 -16.19421,-1.9802 -19.97419,-3.74856 -1.79113,-0.83792 -1.8573,-0.88737 -3.71065,-2.77266 -2.0441,-2.07934 -2.39016,-3.42854 -2.797,-10.90486 -0.16605,-3.0514 -0.2689,-3.58889 -0.91127,-4.7625 -0.90893,-1.66061 -0.93496,-1.78303 -1.43495,-6.74687 -0.53863,-5.34754 -0.50088,-5.21386 -1.53263,-5.42823 -3.08603,-0.64118 -7.05021,-3.63507 -8.40233,-6.34573 -0.5833,-1.16937 -0.6599,-1.66074 -0.6599,-4.23334 0,-2.72618 0.0537,-3.02369 0.84769,-4.69997 0.46623,-0.98425 1.03178,-1.8602 1.25677,-1.94654 0.225,-0.0863 0.40909,-0.28614 0.40909,-0.44402 0,-0.55121 2.21193,-2.3435 4.00923,-3.2486 0.99638,-0.50177 1.81126,-1.00011 1.81084,-1.10742 -5.3e-4,-0.10731 -0.36325,-0.43324 -0.80628,-0.72428 -1.70603,-1.12073 -1.96147,-1.9329 -2.06053,-6.5516 -0.10199,-4.75485 0.18186,-4.24526 -2.99865,-5.38354 -1.06645,-0.38167 -2.09943,-0.82342 -2.29552,-0.98165 -0.1961,-0.15824 -0.60765,-0.32603 -0.91456,-0.37287 -0.30691,-0.0468 -0.65066,-0.23098 -0.76389,-0.40921 -0.11323,-0.17822 -0.2077,-0.22802 -0.20993,-0.11065 -0.004,0.22662 -1.61387,-0.59294 -1.88262,-0.95859 -0.0873,-0.11881 -0.34644,-0.24357 -0.57581,-0.27724 -0.66164,-0.0971 -5.76889,-3.18017 -7.74172,-4.67341 -1.64293,-1.24353 -1.81972,-1.31836 -2.06641,-0.87472 -1.10593,1.98888 -2.79852,2.43968 -4.78631,1.27476 -1.017,-0.596 -1.1716,-0.62241 -1.47857,-0.25254 -0.18854,0.22718 -0.5085,0.34947 -0.71103,0.27175 -0.20252,-0.0777 -0.29872,-0.0288 -0.21376,0.10863 0.19333,0.31282 -0.83613,1.00183 -2.01275,1.3471 -1.29433,0.37983 -2.77208,0.0502 -3.7406497,-0.83449 -0.69938,-0.63879 -1.07034,-0.7686 -2.19633,-0.7686 -1.33357,0 -3.40283,-0.58937 -5.05982,-1.44114 -1.41621998,-0.72801 -3.36065,-2.65773 -4.03154,-4.00107 -1.83092,-3.66606 -0.41354,-6.59637 4.03969,-8.35167 2.04419,-0.80574 2.86438,-1.48603 2.76892,-2.29664 -0.0655,-0.55654 -0.34413,-0.79059 -1.46197,-1.22821 -0.75956,-0.29735 -1.71206,-0.8136 -2.11667,-1.14721 -0.40460998,-0.33362 -1.23208998,-0.85595 -1.83883998,-1.16075 -2.65492002,-1.33367 -5.55997002,-5.64722 -6.75164002,-10.0251 -0.77837,-2.8595 -0.87121,-9.03222 -0.15903,-10.57291 0.59427,-1.28561 2.28967,-3.16697 2.85394,-3.16697 0.2557,0 0.60239,-0.16565 0.77042,-0.36811 0.16803,-0.20246 0.83468,-0.44746 1.48144,-0.54445 1.40996002,-0.21144 1.60894002,-0.45532 1.05781,-1.29646 -1.14747,-1.75125 -1.04479,-3.47725 0.28600002,-4.80805 l 0.87103,-0.87103 -0.62519,-0.15691 c -0.97680002,-0.24517 -2.28820002,-1.49055 -2.80296002,-2.66187 -1.3509,-3.07393 -0.61328,-10.23142 1.39849,-13.57028 0.28552,-0.47385 0.63096,-0.79243 0.76766,-0.70794 0.13669,0.0845 0.21582,0.0552 0.17584,-0.065 -0.14287,-0.42962 1.74554002,-1.94348 2.76762,-2.2187 0.59552,-0.16036 1.67201,-0.20146 2.51561,-0.0961 l 1.47462,0.18424 -0.16913,-2.0008 c -0.26688,-3.15728 0.72114,-9.04297 2.05234,-12.22584 0.24345,-0.58208 0.43083,-1.09099 0.41641,-1.13092 -0.0144,-0.0399 0.36062,-0.81382 0.83342,-1.71979 2.0906297,-4.005974 4.2910397,-6.420605 6.6489297,-7.296249 1.8608,-0.691038 4.54762,-0.768744 5.42131,-0.156789 0.32342,0.226534 0.58804,0.342852 0.58804,0.258485 0,-0.407477 2.0386,1.196369 2.51186,1.976169 0.14644,0.24131 0.53561,0.84588 0.86482,1.3435 0.60336,0.91204 1.1299,2.461934 1.25115,3.682894 0.0361,0.3638 0.14256,1.07817 0.23651,1.5875 0.0939,0.50932 0.27617,2.6003 0.40495,4.64662 0.20987,3.3348 1.05084,7.77456 1.58718,8.37923 0.18864,0.21266 3.46228,-2.86845 3.46228,-3.25865 0,-0.13321 0.10093,-0.24221 0.22429,-0.24221 0.12337,0 0.86751,-0.66443 1.65365,-1.47652 1.38886,-1.4347 5.08287,-4.60889 5.36367,-4.60889 0.0767,0 0.46063,-0.29766 0.85318,-0.66146 0.39255,-0.3638 0.87494,-0.66146 1.07197,-0.66146 0.19703,0 0.35824,-0.10537 0.35824,-0.23415 0,-0.2934 1.32587,-1.17696 1.76614,-1.17696 0.17999,0 0.26593,-0.0992 0.19098,-0.22049 -0.075,-0.12126 -0.0339,-0.22048 0.0913,-0.22048 0.12517,0 0.98175,-0.49004 1.9035,-1.08898 2.39751,-1.55788 9.65859,-5.376334 10.60014,-5.574414 0.21828,-0.0459 0.45641,-0.14929 0.52917,-0.22971 0.19821,-0.2191 2.79765,-1.294094 3.35292,-1.386597 0.26594,-0.04431 0.75142,-0.227748 1.07885,-0.407654 0.32742,-0.179906 0.59531,-0.249688 0.59531,-0.15507 0,0.09461 0.28687,-0.01593 0.63748,-0.245663 1.41889,-0.929695 9.42723,-2.956337 14.97293,-3.789151 2.37695,-0.356952 4.89528,-0.459917 11.50938,-0.470577 10.42895,-0.0168 14.926704,0.306113 22.225004,1.59567 3.25095,0.574424 11.812,2.723087 12.22915,3.069291 0.18621,0.154538 0.33856,0.207891 0.33856,0.118563 0,-0.163828 3.1103,0.924108 4.11235,1.438438 0.29727,0.15257 0.71398,0.30676 0.92604,0.34263 0.94918,0.16054 2.36994,0.763 2.36994,1.00495 0,0.14637 0.14883,0.21401 0.33073,0.15033 0.41382,-0.14488 2.97859,0.96196 3.54762,1.530994 0.23277,0.23277 0.58646,0.36057 0.78597,0.28401 0.19952,-0.0766 0.36276,-0.0239 0.36276,0.11707 0,0.14096 0.19899,0.25629 0.44219,0.25629 0.2432,0 0.63015,0.15898 0.8599,0.3533 0.22974,0.19431 0.83442,0.51497 1.34374,0.71258 0.50933,0.1976 0.98558,0.43843 1.05834,0.53517 0.0728,0.0967 0.66807,0.43224 1.32291,0.74557 2.04007,0.97611 3.19572,1.71098 4.19519,2.66765 0.5303,0.5076 1.07234,0.89044 1.20453,0.85077 0.13218,-0.0397 0.31078,0.0234 0.39687,0.14026 0.0861,0.11682 0.39466,0.34794 0.68571,0.5136 0.29104,0.16566 0.5142,0.48367 0.4959,0.70668 -0.0192,0.23357 0.11425,0.34888 0.31466,0.27198 0.43329,-0.16627 0.78505,0.0356 2.3798,1.36598 1.715,1.43065 3.55651,3.2899 3.55651,3.59077 0,0.13513 0.0941,0.21592 0.20911,0.17954 0.32683,-0.10339 4.27998,3.95302 4.07472,4.18116 -0.10053,0.11174 -0.0421,0.12255 0.12984,0.024 0.17194,-0.0985 0.47205,0.0485 0.6669,0.32667 0.33105,0.47263 0.38898,0.47726 0.88333,0.0706 0.71934,-0.59178 2.47671,-3.4733 3.49271,-5.7269 0.69851,-1.54938 0.90537,-2.50074 1.26565,-5.82083 0.23687,-2.18282 0.60185,-4.70891 0.81106,-5.61355 0.43954,-1.900604 1.65471,-4.837498 2.00156,-4.837498 0.1301,0 0.35088,-0.300707 0.49061,-0.66824 0.13974,-0.36753 0.46422,-0.745717 0.72106,-0.840417 0.25685,-0.0947 0.82657,-0.442084 1.26605,-0.771967 1.89726,-1.424125 5.95067,-1.492006 7.46189,-0.124963 0.25867,0.233985 0.80805,0.642353 1.22086,0.907482 0.41281,0.265131 0.68141,0.551209 0.59688,0.635732 -0.0845,0.08452 0.11245,0.286362 0.43772,0.448527 0.32527,0.162163 0.62946,0.529979 0.67596,0.81737 0.0465,0.28738 0.443,0.83592 0.88108,1.21897 0.43809,0.38305 0.82155,0.86696 0.85213,1.07536 0.0306,0.2084 0.31977,0.71472 0.64262,1.125174 0.32286,0.41044 0.58701,0.92018 0.58701,1.13275 0,0.21257 0.24623,0.7323 0.54718,1.15494 0.30095,0.42265 0.47649,0.76845 0.39008,0.76845 -0.0864,0 0.0243,0.35085 0.24608,0.77967 0.22175,0.42881 0.43661,0.99436 0.47747,1.25677 0.0409,0.2624 0.15721,0.60981 0.25855,0.77202 0.10135,0.1622 0.25784,0.99564 0.34776,1.85208 0.0899,0.85644 0.37756,2.15248 0.6392,2.88009 0.89906,2.50021 1.09253,3.29912 1.24797,5.15314 0.0857,1.02207 0.2028,1.85831 0.26025,1.85831 0.0574,0 0.5462,-0.22093 1.0861,-0.49097 0.53991,-0.27003 1.39837,-0.57086 1.90769,-0.66851 1.07948,-0.20695 3.44123,0.32675 3.63068,0.82044 0.0716,0.18648 0.25496,0.33904 0.40755,0.33904 0.37296,0 2.11598,1.34233 1.95372,1.50458 -0.0705,0.0705 0.11248,0.40506 0.40667,0.74341 0.29419,0.33835 0.51249,0.7018 0.48512,0.80766 -0.0274,0.10587 0.0497,0.26533 0.17127,0.35436 0.36255,0.2655 1.10511,1.90033 1.69593,3.73374 0.59432,1.84428 1.03508,7.98679 0.63911,8.9068 -0.11502,0.26725 -0.25422,0.72404 -0.30932,1.01508 -0.0551,0.29104 -0.21656,0.5691 -0.35878,0.61791 -0.14222,0.0488 -0.19396,0.19329 -0.11499,0.32108 0.28282,0.45761 -1.91637,2.30053 -3.28953,2.75662 l -1.36084,0.452 0.66754,0.52508 c 0.36715,0.2888 0.66754,0.63551 0.66754,0.77047 0,0.13496 0.23812,0.48351 0.52917,0.77455 0.63229,0.63229 0.68895,1.93631 0.13066,3.0068 -0.54814,1.05101 -0.5077,1.15139 0.40969,1.01674 1.01864,-0.1495 3.08462,0.62577 3.44072,1.29116 0.14898,0.27837 0.44026,0.50613 0.64729,0.50613 0.41835,0 1.88005,2.31103 1.62378,2.56729 -0.0892,0.0892 -0.0207,0.33252 0.15208,0.54076 0.17282,0.20823 0.36375,1.4146 0.42429,2.68082 0.18508,3.87102 -0.81469,8.26787 -2.66598,11.72466 -0.36574,0.68292 -0.73755,1.16909 -0.82626,1.08039 -0.0887,-0.0887 -0.16127,0.0422 -0.16127,0.29095 0,0.62595 -2.23979,2.92296 -3.83646,3.93447 -0.72761,0.46094 -1.78088,1.22164 -2.34062,1.69044 -0.55973,0.4688 -1.7836,1.17788 -2.7197,1.57572 -0.9361,0.39785 -1.66829,0.8245 -1.62709,0.94812 0.0412,0.12362 1.18759,0.74946 2.5475,1.39076 1.35992,0.6413 2.73634,1.41379 3.05872,1.71664 0.32237,0.30286 0.72728,0.55065 0.8998,0.55065 0.17252,0 0.31368,0.17859 0.31368,0.39687 0,0.21828 0.12609,0.39688 0.2802,0.39688 0.15411,0 0.21749,0.10145 0.14086,0.22545 -0.0766,0.12399 0.099,0.68954 0.39025,1.25677 0.79873,1.55545 0.2388,3.81063 -1.47365,5.93528 -1.44097,1.78781 -5.31914,3.97893 -7.25859,4.101 -1.01755,0.0641 -1.32482,0.23028 -2.12444,1.1493 -0.94293,1.08372 -1.93972,1.62093 -3.00258,1.61822 -0.94619,-0.002 -2.42178,-0.49133 -2.98435,-0.98881 -1.68702,-1.49183 -1.51563,-1.43943 -2.30724,-0.70541 -1.45073,1.3452 -3.49054,1.7873 -4.89079,1.06002 -0.77329,-0.40164 -1.72638,-1.55944 -2.00415,-2.43464 -0.14578,-0.45932 -0.38,-0.54249 -1.46774,-0.52123 -1.26857,0.0248 -1.39315,0.088 -3.03818,1.54273 -0.72418,0.64038 -5.37459,3.72632 -6.50752,4.31829 -0.50932,0.26613 -1.08681,0.45172 -1.28332,0.41242 -0.1965,-0.0393 -0.29009,0.0373 -0.20797,0.17014 0.0821,0.13287 -1.21914,0.88231 -2.89168,1.66543 -3.58155,1.67695 -3.52978,1.5261 -1.71853,5.00753 0.64352,1.23693 1.1537,2.27657 1.13372,2.31031 -0.02,0.0337 0.13711,0.47639 0.34907,0.98368 0.21196,0.5073 0.38538,1.00151 0.38538,1.09825 0,0.0967 0.25634,0.39823 0.56965,0.66996 0.31331,0.27173 0.46214,0.49588 0.33073,0.4981 -0.13141,0.002 -0.10526,0.0915 0.0581,0.19844 0.16336,0.10691 0.7358,1.02783 1.27209,2.04647 0.5363,1.01865 1.91982,3.3999 3.07449,5.29167 1.15468,1.89177 2.24628,3.73724 2.42579,4.10104 0.17951,0.3638 0.83522,1.18709 1.45714,1.82953 0.62192,0.64244 1.13097,1.29728 1.13123,1.45521 2.6e-4,0.15792 0.28569,0.46573 0.63428,0.68401 0.3486,0.21828 1.28,0.89122 2.0698,1.49542 1.58608,1.21338 5.58885,2.67544 9.33399,3.40937 3.37854,0.66208 8.66509,0.77381 13.52747,0.28589 2.34688,-0.2355 4.75374,-0.42818 5.34857,-0.42818 1.99725,0 5.30631,1.48862 4.89715,2.20304 -0.0978,0.17078 -0.0804,0.22224 0.0387,0.11436 0.26807,-0.24285 0.97243,0.3049 0.78405,0.60972 -0.0752,0.12173 0.10467,0.35055 0.39978,0.5085 0.29512,0.15794 0.53658,0.43275 0.53658,0.61069 0,0.17794 0.29766,0.88267 0.66146,1.56607 0.3638,0.6834 0.66237,1.57542 0.66348,1.98227 0.001,0.40685 0.22625,1.47701 0.5003,2.37814 0.27405,0.90113 0.46021,1.67648 0.41369,1.723 -0.0465,0.0465 -0.15475,0.69829 -0.24051,1.44836 -0.17306,1.51364 -1.18128,4.01456 -1.83822,4.55977 -0.23363,0.1939 -0.42478,0.48385 -0.42478,0.64435 0,0.54693 -4.04873,4.15024 -5.98225,5.32411 -8.38666,5.09166 -21.55646,7.25686 -37.80629,6.2156 -6.76157,-0.43327 -6.48314,-0.44795 -9.12813,0.48111 -1.23692,0.43447 -3.43958,0.9823 -4.89479,1.21739 -5.66424,0.91508 -6.62199,1.05535 -6.83268,1.00071 -0.11996,-0.0311 -0.16061,0.0365 -0.0903,0.15018 0.30301,0.49028 -4.95023,4.01809 -6.63266,4.45416 -3.26402,0.84598 -4.49224,0.97766 -6.28308,0.67361 -1.01591,-0.17248 -2.14088,-0.50609 -2.49994,-0.74136 -0.5073,-0.33239 -1.39319,-0.43346 -3.97373,-0.45337 -3.14569,-0.0243 -3.38806,-0.0651 -4.5939,-0.77389 -0.70016,-0.41155 -1.34137,-0.92642 -1.42493,-1.14416 -0.18662,-0.48634 -1.00895,-0.31471 -2.80441,0.58531 -2.6171,1.31188 -7.13646,2.40514 -13.150784,3.18125 -3.20005,0.41294 -16.74722,0.71233 -21.29896,0.4707 z m 18.38854,-5.1234 c 4.99006,-0.42723 5.48416,-0.49821 9.108374,-1.30853 3.59933,-0.80476 5.64642,-1.52684 6.1253,-2.1606 0.36552,-0.48375 0.83591,-2.5944 1.05471,-4.73251 0.0968,-0.94588 0.24992,-1.83885 0.34028,-1.98437 0.0904,-0.14552 0.19058,-0.56224 0.22273,-0.92605 0.0321,-0.3638 0.11824,-1.10794 0.19132,-1.65364 0.0889,-0.6638 0.0271,-1.00229 -0.18669,-1.02271 -0.17576,-0.0168 -0.49816,-0.0513 -0.71644,-0.0768 -0.21828,-0.0254 -0.68401,0.12272 -1.03496,0.32923 -0.35095,0.20652 -0.94626,0.40545 -1.32292,0.44207 -0.37665,0.0366 -0.86342,0.12805 -1.0817,0.20316 -2.03583,0.70058 -8.113624,1.67733 -12.827564,2.06151 -4.90361,0.39964 -19.24951,0.14546 -23.68494,-0.41964 -1.67349,-0.21322 -3.28083,-0.39236 -3.57187,-0.39808 -1.60277,-0.0316 -9.56868,-1.66194 -11.1125,-2.2744 -2.16537,-0.85905 -2.22998,-0.83205 -2.12707,0.88866 0.0733,1.22633 0.65612,5.11743 1.0802,7.21228 0.0442,0.21828 0.0894,0.60818 0.10058,0.86645 0.0111,0.25826 0.29303,0.57328 0.62643,0.70004 0.3334,0.12676 0.7647,0.42147 0.95844,0.65491 0.19374,0.23344 0.51376,0.42443 0.71116,0.42443 0.1974,0 1.22462,0.28955 2.28271,0.64344 3.33665,1.11597 10.11627,2.22693 15.94671,2.61314 3.19038,0.21133 16.14752,0.15515 18.91771,-0.082 z m 37.958714,-2.13841 c 1.08319,-0.42831 2.14051,-1.15433 3.36959,-2.31378 l 1.79109,-1.68962 3.37728,-0.37195 c 5.74132,-0.63231 11.73152,-2.01739 15.25292,-3.52684 0.69581,-0.29826 1.47491,-0.54229 1.73134,-0.54229 0.5593,0 1.45714,0.92255 1.23991,1.27403 -0.27911,0.4516 1.41554,0.57806 7.74192,0.57773 10.86208,-5.2e-4 18.20491,-1.21106 24.50703,-4.04011 5.70886,-2.56273 9.11209,-5.88121 9.8018,-9.55771 0.25434,-1.35574 -0.0423,-1.54797 -1.0085,-0.65345 -1.13581,1.0516 -4.68717,2.75913 -6.72238,3.23219 -0.89828,0.20879 -1.74766,0.45034 -1.8875,0.53676 -0.81095,0.5012 -6.40427,1.07107 -10.50217,1.07001 -5.21476,-0.001 -8.27613,-0.38873 -11.72864,-1.48412 -4.03529,-1.28029 -6.02849,-2.81263 -4.99843,-3.8427 0.4054,-0.40539 0.62933,-0.37631 3.15775,0.41013 5.92898,1.84415 11.14391,2.40901 17.59737,1.90606 6.58973,-0.51356 11.24104,-1.89297 13.34673,-3.95814 1.50757,-1.47857 1.68872,-2.02428 1.03097,-3.10585 -0.68845,-1.13208 -1.77721,-1.27552 -5.70694,-0.75192 -4.59847,0.6127 -11.2298,0.80678 -14.2026,0.41565 -6.4404,-0.84735 -13.19671,-3.40196 -16.05232,-6.06951 -0.45784,-0.42768 -0.85189,-0.70007 -0.87568,-0.60531 -0.0238,0.0948 -0.0536,0.88668 -0.0661,1.7598 -0.0202,1.40348 -0.0842,1.5875 -0.55207,1.5875 -0.34158,0 -0.51614,-0.16414 -0.49242,-0.46302 0.0202,-0.25466 -0.12529,-0.46302 -0.32334,-0.46302 -0.21286,0 -0.53326,-0.622 -0.78366,-1.52135 -2.08096,-7.4741 -3.26006,-10.12474 -8.73893,-19.64531 -0.62808,-1.09141 -1.75787,-3.27451 -2.51066,-4.85134 -1.2167,-2.54859 -1.43133,-2.84884 -1.93276,-2.70383 -5.70913,1.65101 -12.80842,3.05152 -18.9526,3.73886 -2.14306,0.23974 -3.92226,0.56359 -4.03085,0.73368 -0.10691,0.16748 -0.19621,0.86302 -0.19844,1.54566 -0.002,0.68263 -0.11868,1.312 -0.25878,1.39859 -0.14011,0.0866 -0.24384,0.70047 -0.23052,1.36417 0.0213,1.05927 0.11038,1.23677 0.72921,1.45249 0.68023,0.23714 2.13729,2.12498 2.13729,2.76919 0,0.17296 -0.40838,0.39108 -0.90751,0.48472 -1.67491,0.31421 -4.62712,2.00649 -6.11262,3.50391 -1.92408,1.93951 -3.03371,4.28184 -3.21509,6.78678 -0.12253,1.69223 -0.0689,2.00158 0.48774,2.81596 1.12029,1.63886 2.63327,2.56909 4.77271,2.93446 4.28915,0.73248 8.82662,-0.79972 12.26528,-4.14172 0.65806,-0.63956 1.28851,-1.16283 1.40101,-1.16283 0.11249,0 0.46511,0.24276 0.78359,0.53947 1.0989,1.02378 0.50795,3.53401 -1.18103,5.01678 -2.29325,2.01325 -3.58815,2.71463 -6.95681,3.76813 -2.02447,0.63313 -2.83283,0.76299 -4.05913,0.65208 -0.84218,-0.0762 -1.6933,-0.27299 -1.89136,-0.43737 -0.43102,-0.35772 -2.19909,-0.28258 -2.5184,0.10702 -0.1243,0.15167 -0.35073,1.22826 -0.50316,2.39243 -0.56646,4.3262 -1.61836,8.34728 -2.42249,9.26041 -0.2563,0.29105 -0.59184,1.18401 -0.74564,1.98438 -0.1538,0.80036 -0.39499,1.99099 -0.53596,2.64583 -0.14098,0.65485 -0.31476,1.99866 -0.38618,2.98625 -0.11913,1.64721 -0.09,1.78297 0.35229,1.64259 0.26519,-0.0842 0.99033,-0.61754 1.61142,-1.18528 0.62109,-0.56774 1.23569,-0.96647 1.36576,-0.88608 0.13008,0.0804 0.57313,-0.17635 0.98457,-0.57053 0.61233,-0.58665 0.89648,-0.6841 1.566,-0.53705 0.54042,0.11869 0.81793,0.0774 0.81793,-0.12157 0,-0.16568 0.11906,-0.22764 0.26458,-0.1377 0.43279,0.26747 0.32449,1.27022 -0.11881,1.10011 -0.23738,-0.0911 -0.3346,-0.0199 -0.25526,0.18682 0.16605,0.43272 -0.82602,1.33375 -1.20834,1.09746 -0.35042,-0.21657 -1.11813,0.35574 -0.91598,0.68283 0.18827,0.30463 -0.38094,1.34884 -0.64597,1.18504 -0.30593,-0.18907 -1.39651,2.60397 -1.20828,3.09448 0.1243,0.32394 0.64456,0.43898 2.28422,0.50512 1.16779,0.0471 2.21092,0.0261 2.31806,-0.0467 0.10713,-0.0728 0.54128,-0.61219 0.96477,-1.19875 1.62008,-2.24392 2.92283,-3.62805 3.87882,-4.1211 0.5457,-0.28146 0.99979,-0.47955 1.00908,-0.44021 0.21321,0.90285 0.12396,1.79131 -0.17995,1.79131 -0.34254,0 -0.48867,0.34366 -0.38347,0.9018 0.0249,0.13219 -0.10144,0.33102 -0.28078,0.44186 -0.17934,0.11084 -0.35329,0.35988 -0.38655,0.55341 -0.0333,0.19354 -0.25595,0.80878 -0.49485,1.3672 -0.35335,0.8259 -0.37192,1.09056 -0.0996,1.4187 0.51192,0.61682 4.39741,0.33169 6.42951,-0.47182 z M 96.487346,247.19506 c 0.80036,-0.14769 2.64583,-0.44176 4.101044,-0.65348 1.45521,-0.21173 3.18162,-0.51281 3.83646,-0.66906 0.65484,-0.15626 1.42875,-0.32574 1.71979,-0.37662 1.16309,-0.20334 3.01368,-0.77042 4.98208,-1.52667 1.96017,-0.75308 2.09958,-0.86105 2.5904,-2.00609 0.31982,-0.74611 0.45827,-1.48552 0.36103,-1.92821 -0.0867,-0.39492 0.0275,-1.43279 0.25387,-2.30637 0.22637,-0.87358 0.41158,-1.95638 0.41158,-2.40623 0,-0.44985 0.13695,-1.32996 0.30434,-1.9558 0.28798,-1.07674 0.26507,-1.18003 -0.42645,-1.92202 -1.8628,-1.9988 -3.05289,-4.70653 -3.05289,-6.94605 0,-2.42267 1.2993,-5.72521 2.97656,-7.56575 0.54571,-0.59882 0.99219,-1.18351 0.99219,-1.29931 0,-0.24838 -1.41921,-0.0346 -3.404,0.5128 -0.7808,0.21533 -2.26908,0.50212 -3.30729,0.63729 -1.03822,0.13518 -2.48298,0.36003 -3.21059,0.49966 -2.01048,0.38582 -12.218174,1.28633 -16.483454,1.45415 -6.36863,0.25057 -23.50248,-0.67036 -27.0405,-1.45341 -0.65485,-0.14493 -2.08359,-0.37862 -3.175,-0.51929 -1.09141,-0.14068 -3.88938,-0.83339 -6.21771,-1.53936 -2.32833,-0.70597 -4.27458,-1.25094 -4.32498,-1.21105 -0.0504,0.0399 0.30678,0.62911 0.79375,1.30936 1.56027,2.17956 1.81428,2.62971 1.68226,2.98129 -0.0711,0.18946 -0.0114,0.2716 0.13271,0.18252 0.63106,-0.39002 1.40013,2.90228 1.42958,6.11992 0.021,2.29787 -0.0258,2.5052 -0.97657,4.32483 l -0.99867,1.91125 0.27463,2.15746 c 0.15105,1.18661 0.37108,3.46715 0.48896,5.06788 0.11788,1.60073 0.38422,3.26438 0.59187,3.69699 1.17258,2.44294 11.96713,4.89785 24.98354,5.68179 4.77937,0.28785 17.67882,0.12266 19.71146,-0.25242 z M 47.648286,227.0681 c 0.88899,-1.05651 1.0548,-1.78784 0.86534,-3.81673 -0.26482,-2.83594 -2.46467,-6.60844 -4.16899,-7.14937 -1.10435,-0.3505 -3.00267,1.36 -3.64783,3.28691 -0.51501,1.53822 -0.3698,3.97049 0.32542,5.45063 0.97903,2.08437 2.38351,3.01511 4.57546,3.03211 1.20636,0.009 1.4454,-0.0843 2.0506,-0.80355 z m 49.7651,-12.90562 c 1.01865,-0.15073 4.411934,-0.58238 7.540634,-0.95924 3.12869,-0.37686 5.98619,-0.78874 6.35,-0.9153 0.3638,-0.12655 1.25677,-0.37328 1.98437,-0.54828 2.30518,-0.55442 4.79834,-1.58001 5.4014,-2.22194 0.73208,-0.77927 1.06838,-2.95158 1.07557,-6.94769 0.005,-2.98326 -0.11411,-3.79195 -0.56027,-3.79195 -0.13441,0 -1.04441,0.45017 -2.02221,1.00037 -2.39186,1.34588 -7.84269,2.79693 -13.15491,3.50192 -10.546014,1.39957 -28.660264,1.39131 -38.893744,-0.0177 -6.75401,-0.92995 -13.90942,-2.90508 -17.23583,-4.75766 l -1.36084,-0.75789 -0.10621,0.58164 c -0.0584,0.3199 -0.13888,2.36814 -0.17878,4.55164 l -0.0726,3.96999 0.78719,1.08668 c 1.43149,1.97613 6.28864,3.73912 13.66911,4.96145 3.80948,0.63092 10.80635,1.40393 14.41979,1.59311 3.53885,0.18526 20.57586,-0.0655 22.35729,-0.32913 z m 2.11667,-14.19258 c 6.280624,-0.53421 14.336314,-1.98934 14.583824,-2.63434 0.068,-0.17713 -0.19137,-1.38355 -0.57632,-2.68092 -0.73794,-2.48702 -1.03344,-3.53101 -1.39782,-4.93854 -0.31932,-1.23346 -1.0981,-2.6548 -1.67944,-3.06511 -0.27518,-0.19422 -0.70393,-0.56488 -0.95279,-0.82368 -0.24885,-0.2588 -0.75011,-0.5335 -1.11391,-0.61043 -0.3638,-0.0769 -1.61396,-0.38639 -2.77813,-0.68768 -2.56175,-0.663 -6.197614,-1.2121 -10.980204,-1.65828 -4.77726,-0.44568 -21.60142,-0.4553 -25.92917,-0.0148 -4.59535,0.4677 -10.79865,1.5132 -12.12339,2.04326 -1.37168,0.54883 -2.32832,1.65265 -2.69445,3.10899 -0.15383,0.61185 -0.63333,2.42214 -1.06556,4.02287 -1.17303,4.34422 -1.24333,4.12881 1.66205,5.09261 5.38199,1.78536 11.61772,2.74992 20.96823,3.24341 5.74904,0.30343 18.26714,0.0968 24.07708,-0.39733 z m -25.25901,-7.8125 c -7.75202,-0.80537 -13.78486,-1.95976 -15.98369,-3.0585 -1.80632,-0.9026 -1.91414,-1.03302 -1.49759,-1.81136 0.41529,-0.77597 1.16918,-0.94625 2.26494,-0.51158 2.12365,0.84242 9.63896,1.92751 15.33993,2.21483 9.31567,0.46949 24.57495,0.1225 25.904524,-0.58907 0.66242,-0.35451 0.32906,-0.53347 -2.092024,-1.12307 -2.20138,-0.53609 -3.04271,-1.02037 -3.04271,-1.75145 0,-0.29627 0.11092,-0.47013 0.24648,-0.38635 0.13557,0.0838 0.425,-0.10253 0.64319,-0.41404 0.36323,-0.51859 0.5489,-0.55126 2.20091,-0.38719 4.427534,0.43971 8.101454,1.50053 9.637304,2.78272 l 0.87028,0.72655 -0.93883,0.96668 c -0.51635,0.53167 -1.13275,0.96668 -1.36976,0.96668 -0.23702,0 -0.87983,0.176 -1.42848,0.39111 -1.09417,0.429 -4.17343,1.00531 -8.670464,1.62277 -3.43543,0.47169 -18.62879,0.72024 -22.08401,0.36127 z m 57.576434,6.74835 c 11.72029,-1.71119 20.12829,-4.56399 27.46956,-9.3203 1.46008,-0.94596 2.71421,-1.79468 2.78697,-1.88604 0.0728,-0.0914 0.8169,-0.74087 1.65365,-1.44335 0.83674,-0.70248 1.52135,-1.39559 1.52135,-1.54025 0,-0.34966 0.68276,-1.01898 1.03944,-1.01898 0.15591,0 0.28348,-0.1649 0.28348,-0.36644 0,-0.20155 0.29643,-0.56068 0.65874,-0.79807 0.41972,-0.27501 0.76711,-0.86205 0.95745,-1.61793 0.16429,-0.65247 0.44759,-1.18631 0.62956,-1.18631 0.34991,0 0.6569,1.35629 0.66175,2.92365 0.006,1.78638 1.11433,2.08336 2.42026,0.64823 0.46348,-0.50933 1.03191,-0.9223 1.26319,-0.91773 0.74867,0.0148 1.25826,1.12581 1.44345,3.147 0.16903,1.84478 0.47091,2.66552 0.98042,2.66552 0.36515,0 1.83049,-1.69225 1.83286,-2.11667 0.001,-0.21828 0.23508,-0.77878 0.51968,-1.24555 0.43084,-0.7066 0.65031,-0.83187 1.31091,-0.74827 1.11883,0.1416 1.97627,0.85906 2.85516,2.38905 0.41745,0.7267 0.94151,1.35642 1.16457,1.39938 0.59477,0.11454 1.02908,-1.07244 1.02908,-2.81247 0,-2.41091 0.95169,-2.85177 2.42939,-1.12541 1.25949,1.47143 2.14334,1.50529 4.01709,0.15391 1.52081,-1.09683 2.13627,-1.99057 1.89478,-2.75145 -0.14006,-0.4413 -2.22187,-1.60919 -2.86843,-1.60919 -0.18362,0 -0.80552,-0.2444 -1.38199,-0.54312 -0.57647,-0.29871 -1.28625,-0.57276 -1.5773,-0.60899 -1.22957,-0.15308 -5.84319,-2.82002 -6.42349,-3.71316 -0.1051,-0.16176 -0.42921,-0.42485 -0.72026,-0.58466 -0.29104,-0.1598 -0.6535,-0.51699 -0.80547,-0.79375 -0.15197,-0.27675 -0.95564,-1.20123 -1.78594,-2.05438 -1.56326,-1.60629 -1.70884,-1.94782 -1.2198,-2.86161 0.23874,-0.44609 0.46056,-0.51425 1.25831,-0.38669 1.22302,0.19557 3.27791,1.17532 3.09291,1.47466 -0.0768,0.12426 0.12747,0.21492 0.45393,0.20148 0.32646,-0.0134 0.83794,0.0593 1.13661,0.16163 0.32498,0.11135 0.74829,0.036 1.05416,-0.18766 0.45771,-0.33469 0.47649,-0.46947 0.17977,-1.29004 -0.80261,-2.21956 0.98998,-3.10392 2.80475,-1.38371 0.53599,0.50806 1.1049,0.92478 1.26425,0.92604 0.15934,10e-4 0.50522,0.24042 0.76861,0.53146 0.26339,0.29104 0.68411,0.52917 0.93495,0.52917 0.52266,0 1.11706,-1.23818 1.11251,-2.31745 -0.007,-1.59924 1.19555,-2.21643 2.18587,-1.12213 0.90851,1.00388 1.99196,0.5771 3.85394,-1.51812 0.72589,-0.81683 2.06254,-3.86344 2.23641,-5.09745 0.145,-1.02911 0.084,-1.26905 -0.44768,-1.75952 -0.33858,-0.31236 -0.85371,-0.61388 -1.14475,-0.67006 -0.41209,-0.0796 -0.52008,-0.29449 -0.48809,-0.97149 0.0509,-1.0763 0.11509,-1.14024 1.34506,-1.33911 0.88849,-0.14366 1.0221,-0.26978 1.24697,-1.17711 0.20589,-0.83072 0.15759,-1.19227 -0.26459,-1.98074 -0.69821,-1.30402 -1.58733,-1.36425 -4.25796,-0.28847 -1.14362,0.46068 -2.31743,0.92732 -2.60848,1.03699 -0.29104,0.10967 -1.06494,0.44485 -1.71979,0.74484 -1.2314,0.56412 -3.94645,1.159 -4.29802,0.94172 -0.10994,-0.068 -0.19989,-0.003 -0.19989,0.14466 0,0.47355 -1.92604,0.65111 -3.43679,0.31683 -0.8019,-0.17744 -1.60339,-0.35134 -1.78108,-0.38645 -0.17769,-0.0351 -0.40265,-0.14343 -0.49992,-0.2407 -0.37046,-0.37046 -0.6011,0.12073 -0.35752,0.76139 0.38422,1.01059 0.30732,1.82795 -0.21661,2.3021 -0.43861,0.39693 -0.55717,0.35274 -1.71979,-0.64104 -0.68679,-0.58705 -1.24871,-1.2325 -1.24871,-1.43434 0,-0.20184 -0.22412,-0.48693 -0.49804,-0.63353 -0.83092,-0.44469 -0.82568,-0.97371 0.0182,-1.83683 l 0.80345,-0.82179 -0.43659,-1.09113 c -0.39704,-0.9923 -0.39916,-1.14825 -0.0234,-1.72173 0.22724,-0.34682 0.54521,-0.63059 0.70658,-0.63059 0.2774,0 2.05618,0.99492 2.34023,1.30895 0.32553,0.35989 2.33231,1.29703 3.14784,1.46999 l 0.89889,0.19065 -0.20763,-0.88948 c -0.25156,-1.07768 -0.25376,-2.05029 -0.005,-2.29572 0.10097,-0.0997 1.03582,-0.18127 2.07744,-0.18127 1.8563,0 1.89293,-0.0131 1.84676,-0.66145 -0.0259,-0.36381 -0.13265,-1.00749 -0.23719,-1.43043 -0.34528,-1.39682 0.98522,-1.70248 2.94028,-0.67548 0.75779,0.39807 1.91792,-0.0928 2.24355,-0.94928 0.4918,-1.29353 0.30504,-2.25911 -0.6662,-3.44438 -1.37433,-1.67719 -1.22868,-2.1213 0.97703,-2.9791 2.50245,-0.97321 3.45645,-1.96854 3.783,-3.94693 0.24237,-1.46838 -0.35401,-7.84337 -0.82139,-8.78025 -0.2346,-0.47027 -0.83378,-1.26228 -1.33152,-1.76002 -1.05129,-1.05129 -2.14552,-1.18551 -3.40087,-0.41716 -0.97546,0.59704 -4.0652,3.56443 -4.69461,4.5087 -0.50616,0.75937 -0.61704,2.02191 -0.20018,2.27954 0.42451,0.26236 0.30476,2.0306 -0.1733,2.55885 -0.24084,0.26612 -0.75677,0.48385 -1.14653,0.48385 -0.38975,0 -0.79146,0.0828 -0.89269,0.18405 -0.10123,0.10123 -0.3801,0.21282 -0.61971,0.24799 -0.23961,0.0352 -0.71681,0.42318 -1.06042,0.86224 -0.34779,0.44439 -0.78431,0.73708 -0.98464,0.66021 -0.19792,-0.076 -0.64002,0.15261 -0.98243,0.50791 -0.7768,0.80604 -1.8725,1.04104 -5.7158,1.22587 -0.35346,0.017 -0.46226,1.38368 -0.13611,1.70983 0.10704,0.10704 0.21223,0.54481 0.23376,0.97283 0.031,0.61667 -0.0925,0.81125 -0.59493,0.93736 -0.74979,0.18818 -1.25804,-0.18156 -2.11449,-1.53826 -0.67039,-1.06198 -0.60626,-1.68996 0.23429,-2.29414 0.37886,-0.27233 0.45532,-0.53135 0.3124,-1.05834 -0.10408,-0.38376 -0.20855,-0.87844 -0.23215,-1.09928 -0.0236,-0.22084 -0.12853,-0.54004 -0.23315,-0.70932 -0.41594,-0.673 0.88064,-0.92872 2.98806,-0.58933 2.75298,0.44336 5.82618,-0.51757 5.82618,-1.82172 0,-0.13717 -0.57691,-0.49758 -1.28203,-0.80091 -2.63365,-1.13297 -2.68273,-2.5599 -0.11874,-3.45255 1.09627,-0.38167 2.98827,-1.57373 2.98827,-1.88276 0,-0.10639 -0.44972,-0.49105 -0.99937,-0.85479 -1.06161,-0.70254 -1.44709,-1.78693 -0.63783,-1.79427 0.37708,-0.003 0.38621,-0.0422 0.0587,-0.24939 -0.31055,-0.19642 -0.24116,-0.30114 0.34796,-0.52512 0.40472,-0.15387 1.01412,-0.27977 1.35421,-0.27977 0.78514,0 1.19929,-1.08971 1.19929,-3.15561 0,-2.47548 -0.89049,-3.15056 -2.99561,-2.27098 -1.09333,0.45682 -1.6564,0.32143 -1.85724,-0.44657 -0.15655,-0.59867 1.04084,-2.3289 1.6117,-2.32892 0.1819,0 0.33073,-0.12308 0.33073,-0.2735 0,-0.15043 0.35719,-0.62267 0.79375,-1.04942 0.92746,-0.90662 0.97806,-1.50975 0.29065,-3.46431 -1.59171,-4.52584 -3.80001,-7.848944 -6.21251,-9.348754 -1.55026,-0.96376 -3.85486,0.20025 -4.38962,2.217124 -0.13688,0.51626 -0.49353,2.84365 -0.79256,5.17198 -0.29903,2.32833 -0.72878,5.00724 -0.955,5.95312 -0.26132,1.09266 -0.35531,2.26161 -0.25775,3.2056 0.18378,1.7782 -0.16693,2.23334 -1.54821,2.00919 -0.85296,-0.13842 -0.9163,-0.0921 -1.32068,0.96678 -0.2336,0.61169 -0.42474,1.31655 -0.42474,1.56634 0,0.2498 -0.23812,0.6923 -0.52916,0.98334 -0.29104,0.29105 -0.52917,0.63376 -0.52917,0.76158 0,0.35716 -2.7711,2.41342 -3.25244,2.41342 -0.23399,0 -0.52064,0.1585 -0.63702,0.35221 -0.11637,0.19371 -0.59334,0.53918 -1.05993,0.76771 -0.84178,0.41229 -0.85357,0.40867 -1.52136,-0.46684 -0.37015,-0.4853 -0.673,-0.94986 -0.673,-1.03237 0,-0.0825 -1.45851,-1.56921 -3.24115,-3.30377 -3.63926,-3.54114 -7.30365,-6.59009 -10.51904,-8.75235 -1.19018,-0.80037 -2.30634,-1.57427 -2.48035,-1.71979 -1.17128,-0.97952 -9.74461,-5.21474 -12.86362,-6.35463 -0.50933,-0.18613 -1.28323,-0.48789 -1.7198,-0.67058 -0.43656,-0.18268 -0.91281,-0.36415 -1.05833,-0.40327 -0.14552,-0.0391 -1.15755,-0.38637 -2.24896,-0.77166 -1.0914,-0.38529 -2.28203,-0.75721 -2.64583,-0.82648 -0.3638,-0.0693 -1.01865,-0.237224 -1.45521,-0.373224 -1.57995,-0.49221 -3.97755,-1.15482 -4.36562,-1.2065 -0.21829,-0.0291 -2.06375,-0.35524 -4.10105,-0.72483 -8.13536,-1.475841 -12.389294,-1.857817 -20.769794,-1.865006 -9.88801,-0.0085 -13.8325,0.537576 -24.47395,3.388086 -0.14552,0.039 -0.44318,0.14374 -0.66146,0.2328 -0.21828,0.0891 -1.70656,0.643574 -3.30729,1.232244 -1.60073,0.58867 -3.14854,1.18019 -3.43959,1.3145 -0.29104,0.1343 -1.79654,0.84794 -3.34555,1.58585 -1.54902,0.73791 -2.88438,1.34166 -2.96746,1.34166 -0.0831,0 -1.19696,0.67436 -2.47528,1.49857 -6.20695,4.00206 -8.67776,5.78741 -11.56133,8.35397 -0.86031,0.76574 -1.66398,1.36248 -1.78594,1.3261 -0.12195,-0.0364 -0.22173,0.0877 -0.22173,0.27564 0,0.41212 -2.05977,2.42758 -2.71443,2.65605 -0.25601,0.0893 -0.43461,0.272 -0.39688,0.4059 0.11282,0.40038 -2.20528,2.96209 -2.50998,2.77377 -0.15472,-0.0956 -0.21327,-0.0638 -0.13012,0.0708 0.0831,0.13454 -0.62276,1.25426 -1.56868,2.48828 -1.94806,2.54136 -3.8624,5.38152 -4.81148,7.13845 -0.35374,0.65485 -0.77518,1.2781 -0.93652,1.38502 -0.16135,0.10691 -0.18949,0.19621 -0.0625,0.19843 0.12696,0.002 0.10378,0.15714 -0.0515,0.34426 -0.35041,0.42222 -3.21903,7.67377 -3.23008,8.16526 -0.005,0.24185 -0.0936,0.21135 -0.27158,-0.094 -0.14536,-0.24932 -0.43837,-0.38494 -0.65341,-0.30242 -0.28059,0.10767 -0.38988,-0.0394 -0.38988,-0.52454 0,-0.37078 0.11906,-0.74773 0.26458,-0.83767 0.14553,-0.0899 0.26641,-0.78158 0.26864,-1.53697 0.002,-0.7554 0.11027,-1.54124 0.2401,-1.74633 0.12983,-0.20508 0.18158,-0.51486 0.11499,-0.68838 -0.15513,-0.40426 -1.47756,-0.17444 -1.76135,0.30611 -0.23175,0.39242 -1.93961,0.498 -2.08147,0.12867 -0.0485,-0.12629 -0.371,-0.31764 -0.71664,-0.42522 -0.395,-0.12295 -0.56808,-0.0979 -0.46594,0.0673 0.28089,0.45448 -0.51447,0.86051 -1.44845,0.73944 -0.49321,-0.0639 -0.9662,-0.12427 -1.05109,-0.1341 -0.0849,-0.01 -0.15969,-0.34527 -0.16623,-0.74546 -0.0205,-1.25224 -0.5302,-2.15458 -1.3237197,-2.34325 -1.29557,-0.30803 -1.66289,-0.82487 -1.48882,-2.09484 0.15515,-1.13195 0.11807,-1.24676 -1.1518,-3.56555 -1.1522,-2.10394 -3.05959,-3.70417 -4.41519,-3.70417 -1.40894,0 -2.54468998,3.13895 -2.54468998,7.03295 0,2.92363 0.42615,3.85471 2.33763998,5.10738 1.61971,1.06146 1.67636,1.40893 0.55053,3.37668 l -0.81599,1.42621 0.69485,1.18568 c 0.74123,1.2648 1.6126,1.56893 2.26005,0.78881 0.47651,-0.57416 1.29709,-0.48739 1.85017,0.19562 0.37644,0.46489 0.44945,0.88635 0.33897,1.95678 -0.12363,1.19785 -0.0724,1.40091 0.42014,1.66449 0.4378,0.23431 0.73282,0.21133 1.34394,-0.1047 1.9036897,-0.98443 2.7679697,-0.0306 2.0264597,2.23642 -0.24269,0.742 -0.36473,1.47293 -0.27119,1.62429 0.2224,0.35984 1.42178,0.0554 2.09672,-0.53221 0.29104,-0.25339 0.83872,-0.65232 1.21706,-0.88651 0.44597,-0.27605 0.90359,-1.00255 1.30117,-2.06569 0.64812,-1.73304 1.73297,-3.2644 2.13609,-3.01525 0.13226,0.0817 0.24047,-0.0608 0.24047,-0.31679 0,-0.30845 0.0887,-0.3767 0.26304,-0.20237 0.17432,0.17432 0.0426,1.23844 -0.39048,3.15522 -0.35944,1.5907 -0.73149,3.5814 -0.8268,4.42378 -0.13767,1.21689 -0.24408,1.47282 -0.51786,1.24561 -0.26018,-0.21594 -0.45058,-0.1242 -0.77735,0.37451 -0.92581,1.41296 -5.32253,2.17679 -7.8297297,1.36023 -0.78661,-0.25619 -1.60879,-0.61465 -1.82707,-0.79659 -0.97042,-0.80884 -4.98905998,-2.67183 -6.58362998,-3.05208 -1.66152002,-0.39622 -2.78272002,0.59359 -2.89668002,2.55722 -0.0575,0.99086 0.27888,1.29736 1.65678,1.50951 0.57201,0.0881 1.20115002,0.32127 1.39810002,0.51822 0.60046,0.60046 -0.21594,1.79859 -1.56660002,2.2991 -1.02722,0.38066 -1.12793,0.49622 -1.05092,1.20589 0.26011,2.39686 1.97576,6.1465 3.35196002,7.32588 1.01791998,0.87234 1.51579998,0.86716 2.25933998,-0.0235 0.38064,-0.45594 0.94318,-0.82898 1.25009,-0.82898 0.70187,0 1.52271,1.14622 1.76263,2.4613 0.10095,0.55335 0.36316,1.07502 0.58269,1.15927 0.69663,0.26732 1.62309,-0.37227 1.9429,-1.34129 0.17082,-0.51759 0.54066,-1.00515 0.8328,-1.09787 0.87035,-0.27623 1.29387,0.33303 1.29387,1.86131 0,0.91315 0.1362397,1.50348 0.3968797,1.71979 0.28033,0.23266 0.39687,0.24091 0.39687,0.0281 0,-0.1657 0.41672,-0.49998 0.92605,-0.74286 0.50932,-0.24288 0.92604,-0.54469 0.92604,-0.67068 0,-0.24351 1.8476,-1.12801 2.18281,-1.04498 0.27551,0.0682 0.24985,-0.41701 -0.0312,-0.59074 -0.28642,-0.17701 -0.0575,-3.8987 0.26091,-4.24167 0.12834,-0.13824 0.23335,-0.45109 0.23335,-0.69521 0,-0.24412 0.18767,-0.5996 0.41704,-0.78996 0.34563,-0.28685 0.4582,-0.28107 0.65741,0.0337 0.37418,0.59133 0.2906,1.57092 -0.14841,1.73938 -0.28188,0.10817 -0.38643,0.50824 -0.36084,1.38076 0.021,0.71593 0.0855,0.95249 0.1547,0.56701 0.17372,-0.96838 0.55264,-1.23892 0.7021,-0.50129 0.0706,0.34847 0.32847,2.30046 0.57303,4.33775 0.76887,6.405 2.82891,10.75879 7.04392,14.88698 3.70889,3.63251 7.91884,6.32755 14.24438,9.1187 3.93479,1.73623 3.89439,1.73229 5.22201,0.50974 1.12537,-1.0363 2.01055,-1.36438 3.68116,-1.36438 1.05132,0 1.16435,-0.21233 1.96896,-3.69881 0.71654,-3.10487 1.61171,-4.84315 3.06588,-5.95349 3.06061,-2.33695 9.45496,-3.53549 22.09213,-4.1409 13.19015,-0.63189 29.562364,0.78694 35.377434,3.06584 4.19157,1.64267 5.22167,3.04951 6.40162,8.74298 0.46576,2.24738 0.57525,2.38529 2.17843,2.74407 0.79003,0.1768 1.98217,0.66756 2.64919,1.09057 1.25639,0.79678 2.55902,2.52907 2.55902,3.40307 0,0.27575 0.0778,0.89018 0.17281,1.36542 l 0.17282,0.86407 2.44513,-0.16062 c 1.34483,-0.0883 3.73761,-0.34932 5.31729,-0.57995 z m 1.94612,-30.44433 c -4.93013,-1.30069 -8.98053,-5.2241 -10.40599,-10.07974 -1.02072,-3.47693 -0.74537,-7.61134 0.7201,-10.81234 0.79032,-1.72628 0.90072,-1.87317 3.0783,-4.09549 5.38178,-5.49239 14.51329,-5.58755 19.91507,-0.20754 5.97269,5.94861 6.24883,15.60011 0.60835,21.26226 -2.94074,2.95204 -6.19113,4.34792 -10.07937,4.3286 -1.30969,-0.007 -3.0361,-0.18459 -3.83646,-0.39575 z m -1.32292,-15.87905 c 1.00332,-0.54639 1.40617,-0.94626 1.97379,-1.95913 0.66848,-1.19284 0.68895,-3.30793 0.0415,-4.28717 -0.26037,-0.39378 -0.39741,-0.8389 -0.30455,-0.98915 0.0976,-0.15795 0.009,-0.21198 -0.20932,-0.12808 -0.20798,0.0798 -0.77971,-0.0997 -1.27051,-0.39892 -1.46575,-0.8936 -3.9241,-0.5619 -5.3426,0.72086 -1.87554,1.69607 -1.94847,4.94161 -0.14792,6.58293 1.22953,1.12079 3.65534,1.33234 5.25962,0.45866 z m -96.898914,14.87092 c -6.01342,-1.38658 -10.14449,-5.2625 -11.57646,-10.86144 -1.34755,-5.26886 -0.0283,-10.58734 3.57059,-14.39484 2.92475,-3.09428 6.44624,-4.56007 11.0095,-4.58262 4.31379,-0.0213 7.56983,1.29856 10.55424,4.27828 5.83153,5.82236 6.02915,15.09755 0.44897,21.07244 -1.86121,1.99286 -3.55466,3.11318 -5.98167,3.95721 -2.28023,0.79299 -5.86129,1.02992 -8.02517,0.53097 z m -0.29413,-15.44031 c 0.77553,-0.25466 1.41091,-0.54441 1.41196,-0.64388 10e-4,-0.0995 0.37895,-0.78737 0.83977,-1.52867 0.68689,-1.10497 0.8376,-1.6206 0.83648,-2.86185 -8e-4,-0.87329 -0.18169,-1.86133 -0.42746,-2.33466 -0.57744,-1.1121 -2.04831,-2.36085 -3.24663,-2.75633 -1.12587,-0.37157 -3.65359,-0.19871 -4.24262,0.29013 -0.21174,0.17574 -0.45123,0.25328 -0.53218,0.17233 -0.20574,-0.20574 -1.79167,1.60994 -2.33641,2.67488 -0.65156,1.27376 -0.58787,3.47315 0.14294,4.93646 1.13063,2.26387 4.29256,3.1226 7.55415,2.05159 z m 37.63668,15.29758 c -2.28427,-0.4463 -3.94364,-2.17649 -3.94364,-4.11194 0,-0.81334 0.16179,-1.25737 0.61237,-1.68067 0.99625,-0.93592 2.43422,-0.64785 2.67575,0.53604 0.0386,0.18914 0.20457,0.67131 0.36885,1.07149 0.27154,0.66149 0.42306,0.7276 1.66737,0.7276 1.32558,0 1.41253,-0.0475 2.76113,-1.50812 1.21097,-1.31158 1.51997,-1.50813 2.37094,-1.50813 0.84967,0 1.16332,0.19857 2.38216,1.50813 1.27002,1.36454 1.50772,1.50812 2.49666,1.50812 1.1318,0 1.65009,-0.37153 2.74864,-1.97036 1.06609,-1.55159 2.44857,-1.32939 4.12914,0.66365 1.00108,1.18723 1.20441,1.30671 2.22379,1.30671 1.23762,0 1.75695,-0.35017 1.75695,-1.18467 0,-1.61665 1.77309,-2.27492 2.89912,-1.07632 0.51882,0.55226 0.59079,0.85047 0.481,1.99301 -0.0891,0.92717 -0.32538,1.5537 -0.76242,2.02155 -1.93763,2.07421 -5.671,2.35534 -8.10408,0.61024 l -1.12076,-0.80385 -0.56862,0.52975 c -1.13888,1.06102 -2.29867,1.41027 -4.34086,1.30714 -1.67104,-0.0844 -2.08885,-0.21238 -3.12709,-0.95799 l -1.19835,-0.86059 -1.23313,0.78202 c -1.03765,0.65807 -3.38325,1.42095 -4.03835,1.31345 -0.10198,-0.0168 -0.61343,-0.11405 -1.13657,-0.21626 z m -59.75593,19.82585 c 0.26693,-0.50932 0.74857,-1.68104 1.07031,-2.60383 0.32174,-0.92279 0.72641,-1.73206 0.89926,-1.79839 0.412,-0.1581 1.98439,1.31773 1.98439,1.86254 0,0.23266 0.16705,0.42302 0.37122,0.42302 0.20416,0 0.73981,0.44648 1.19033,0.99219 0.79159,0.95885 0.83246,0.97493 1.21629,0.47859 0.21844,-0.28247 0.39749,-0.69919 0.3979,-0.92604 7.9e-4,-0.39056 -1.02746,-2.64323 -1.33547,-2.92599 -0.48863,-0.44857 -1.33471,-2.31219 -1.4776,-3.25463 -0.0927,-0.61105 -0.31435,-1.28959 -0.49268,-1.50787 -0.48716,-0.59632 -0.92665,-2.07773 -0.75168,-2.53371 0.0849,-0.22117 -0.0419,-0.54563 -0.28179,-0.72102 -0.23985,-0.17538 -0.50943,-0.79474 -0.59906,-1.37635 -0.25618,-1.66235 -0.58063,-1.87334 -1.32636,-0.86255 -0.35036,0.47488 -0.72142,0.81739 -0.82458,0.76114 -0.10316,-0.0563 -0.30509,0.15211 -0.44874,0.46302 -0.14364,0.31092 -0.35903,0.5653 -0.47863,0.5653 -0.1196,0 -0.14852,0.11155 -0.0643,0.24788 0.0843,0.13634 -0.32543,0.75103 -0.91043,1.36598 -0.58499,0.61496 -1.06362,1.05295 -1.06362,0.97331 0,-0.0796 -0.4956897,0.30831 -1.1015297,0.8621 -1.02464,0.93662 -4.92554,3.16531 -5.54026,3.16531 -0.14999,0 -0.71124,0.43015 -1.24723,0.95588 -0.53599,0.52573 -0.8384,0.88374 -0.67202,0.79558 0.17025,-0.0902 0.37335,0.0992 0.46453,0.43319 0.4878,1.78672 3.86538,3.71818 5.07921,2.90453 0.15949,-0.10691 0.36645,-0.5072 0.45991,-0.88952 0.19064,-0.77988 1.35075,-1.66735 1.90271,-1.45554 0.19849,0.0762 0.4370297,0.59123 0.5300697,1.14458 0.58037,3.4516 1.95108,4.55782 3.04981,2.4613 z m 4.07241,-54.57668 c 0.57446,-0.21886 1.32171,-0.66475 1.66054,-0.99086 0.47255,-0.45481 0.90723,-0.58671 1.86594,-0.56621 1.34237,0.0287 1.90642,-0.18918 2.01443,-0.77815 0.0922,-0.50287 0.82214,-1.99732 1.60243,-3.2808 0.35387,-0.58208 0.90191,-1.56435 1.21787,-2.18281 0.31595,-0.61847 0.67501,-1.12448 0.79791,-1.12448 0.1229,0 0.30613,-0.44072 0.40719,-0.97938 0.16842,-0.89778 0.10329,-1.0489 -0.78176,-1.81397 -0.53102,-0.45903 -0.9655,-1.03035 -0.9655,-1.26959 0,-0.23924 -0.1156,-0.43498 -0.2569,-0.43498 -0.1413,0 -0.58778,-0.68461 -0.99219,-1.52135 l -0.73528,-1.52136 -1.49182,0.0887 c -0.82049,0.0488 -1.56017,-0.0219 -1.64372,-0.15712 -0.2741,-0.4435 0.36267,-2.14625 0.98597,-2.63653 1.19168,-0.93738 1.28091,-1.41152 0.97503,-5.18143 -0.36285,-4.47206 -0.50349,-5.33375 -1.09623,-6.71655 -0.55469,-1.29405 -1.80388,-2.195604 -3.04432,-2.197104 -0.95062,-10e-4 -3.7671,2.206744 -3.79577,2.975574 -0.01,0.25467 -0.25539,0.70115 -0.54643,0.99219 -0.29104,0.29104 -0.53389,0.678 -0.53967,0.8599 -0.006,0.1819 -0.36293,0.98557 -0.79369,1.78594 -0.43075,0.80036 -0.78322,1.60403 -0.78325,1.78593 -3e-5,0.1819 -0.12904,0.33073 -0.28669,0.33073 -0.15765,0 -0.23265,0.14883 -0.16666,0.33073 0.066,0.1819 -0.0338,0.7099 -0.22181,1.17332 -0.39,0.96149 -1.0456397,6.76293 -0.8283097,7.32929 0.079,0.20589 0.6579597,0.4592 1.2865497,0.56292 1.47037,0.2426 1.80436,0.532 1.80436,1.56343 0,1.01505 -0.40651,1.47435 -1.30969,1.47978 -1.5913397,0.01 -1.9768897,1.16384 -1.27729,3.82399 0.63769,2.42473 1.07359,2.78654 3.35712,2.78654 1.02378,0 1.9037,0.13384 2.08736,0.3175 0.43869,0.43869 0.39724,1.13903 -0.0914,1.54458 -0.2249,0.18665 -0.34934,0.49461 -0.27653,0.68434 0.0728,0.18975 -0.21943,0.59549 -0.64942,0.90168 -0.77486,0.55174 -0.97682,1.29206 -0.61191,2.24301 0.19899,0.51855 1.43318,0.43661 3.12356,-0.20738 z"
       id="path350" /></g></svg>
