<?xml version="1.0" encoding="UTF-8" standalone="no"?>
<!-- Created with Inkscape (http://www.inkscape.org/) -->

<svg
   width="174.0555mm"
   height="192.20337mm"
   viewBox="0 0 174.05549 192.20337"
   version="1.1"
   id="svg5"
   xml:space="preserve"
   xmlns="http://www.w3.org/2000/svg"
   xmlns:svg="http://www.w3.org/2000/svg"><defs
     id="defs2" /><g
     id="layer1"
     transform="translate(-13.947863,-38.485444)"><path
       style="fill:#000000;stroke-width:0.264583"
       d="m 55.773899,230.15594 c -0.69911,-0.27316 -1.79495,-0.92591 -2.4352,-1.45055 -1.09555,-0.89772 -1.29339,-0.95953 -3.35912,-1.04945 -3.79555,-0.16524 -6.49097,-1.6597 -7.91225,-4.38692 -0.48967,-0.9396 -0.62063,-1.609 -0.62115,-3.175 -7.9e-4,-2.51941 0.70952,-4.20235 2.41759,-5.72767 l 1.22896,-1.09746 -1.03533,-0.50566 c -2.6382,-1.28849 -7.30883,-4.17474 -8.34419,-5.15635 -0.20023,-0.18983 -1.01889,-0.8454 -1.81926,-1.4568 -3.82571,-2.9225 -8.80991,-8.83775 -11.43348,-13.56929 -3.08041,-5.5554 -4.4085,-10.11129 -4.6308,-15.8855 -0.25443,-6.60852 0.61279,-11.17576 3.09167,-16.28238 3.36084,-6.92348 9.09979,-12.27296 14.74355,-13.74297 6.13046,-1.59678 9.66502,1.84324 8.42977,8.20429 -0.73944,3.80782 -0.4266,8.26861 0.763,10.87967 1.73588,3.81008 5.35274,5.35326 8.58529,3.663 l 1.28301,-0.67086 0.18078,-4.15778 c 0.342,-7.86572 1.23309,-13.53431 3.24902,-20.66844 1.47609,-5.22371 1.5409,-4.75518 -0.88298,-6.38351 -2.56732,-1.72468 -5.16061,-3.7843 -7.38602,-5.86606 l -1.70208,-1.59221 -0.98036,0.86076 c -2.47022,2.16888 -4.90208,2.28554 -6.99532,0.33557 l -0.69641,-0.64875 -2.08561,0.44818 c -1.72444,0.37056 -2.33809,0.39575 -3.54362,0.14549 -1.8393,-0.38184 -3.03976,-1.10669 -3.70768,-2.23872 -0.49955,-0.84668 -0.60709,-0.89213 -2.43845,-1.03064 -3.87731,-0.29323 -6.83207,-2.44585 -7.61097,-5.54476 -0.21815,-0.86792 -0.48146,-1.30146 -0.86424,-1.42295 -0.30278,-0.0961 -1.19688,-0.83152 -1.9869,-1.63427 -5.06932,-5.15099 -4.21503,-13.32412 1.66988,-15.97604 1.59189,-0.71736 5.86215,-0.9732 8.74704,-0.52406 2.61741,0.40749 2.95344,-0.25907 0.51337,-1.01835 -1.59669,-0.49684 -3.48787,-1.79022 -4.12497,-2.821064 -0.44896,-0.726432 -0.54387,-1.211668 -0.4525,-2.313475 l 0.11563,-1.394237 -1.22364,-0.434597 c -1.61465,-0.573474 -3.03261,-1.816759 -3.55176,-3.114241 -0.54023,-1.350187 -0.52271,-1.97803 0.0931,-3.334292 0.36419,-0.802129 0.41495,-1.137772 0.18539,-1.225865 -0.5781,-0.221834 -1.78658,-3.011175 -1.9373,-4.471574 -0.18026,-1.746539 0.42873,-4.068363 1.35618,-5.170578 0.3531,-0.419637 0.72597,-1.112165 0.8286,-1.538948 0.40726,-1.693561 1.78001,-3.699307 2.30835,-3.372774 0.14685,0.09076 0.18833,0.03773 0.0922,-0.117848 -0.26769,-0.433133 1.41948,-1.342951 3.39391,-1.830189 1.50008,-0.370184 2.07539,-0.390549 3.73671,-0.13227 2.46975,0.383966 3.96099,1.138436 6.75499,3.417583 3.94687,3.219577 5.75788,4.410636 8.12526,5.343768 l 1.35757,0.535104 1.24913,-2.165633 c 8.35199,-14.479881 25.24687,-25.202435 47.83903,-30.361653 8.021201,-1.831745 11.852481,-2.229453 21.563541,-2.238412 10.68035,-0.0098 16.99742,0.785897 25.00313,3.149592 1.60073,0.47262 3.07751,0.906171 3.28173,0.963448 0.2924,0.08201 0.35864,-0.21889 0.31163,-1.415542 -0.19635,-4.99827 2.14005,-8.401615 6.31071,-9.192564 1.69031,-0.320561 4.32175,0.100235 5.70634,0.912506 2.31102,1.355749 4.30958,4.040992 4.91997,6.610413 0.17472,0.735486 0.58911,1.591469 0.92086,1.902188 0.83765,0.784539 2.16159,3.494971 2.66281,5.451424 0.47579,1.857179 0.33989,3.971607 -0.34851,5.422299 -0.41852,0.881973 -0.41251,0.922131 0.23499,1.569638 l 0.66451,0.664506 1.07133,-1.941613 c 1.04224,-1.888908 2.80219,-3.918328 3.12129,-3.599222 0.0871,0.08707 0.38023,-0.06362 0.65147,-0.334859 1.25815,-1.258147 5.21438,-1.340646 7.78801,-0.162399 3.86161,1.767904 6.39503,6.387581 5.44262,9.924574 -0.24684,0.916701 -0.21953,1.501555 0.14709,3.149412 0.38375,1.724882 0.40447,2.318234 0.14036,4.018933 -0.29644,1.9089 -1.23282,4.254587 -2.38424,5.972667 l -0.53774,0.802383 1.32675,0.629899 c 1.92946,0.916051 3.59445,2.692588 4.70718,5.022567 0.89587,1.875877 0.95594,2.162921 0.94525,4.516723 -0.008,1.772377 -0.14458,2.815634 -0.46302,3.538039 -0.33841,0.767718 -0.4516,1.771709 -0.4516,4.00567 0,8.583153 -3.94438,17.838213 -10.75101,25.226063 -2.34876,2.54933 -6.23154,6.0631 -9.01343,8.15681 -1.05994,0.79773 -1.99598,1.56177 -2.08008,1.69786 -0.0841,0.13609 0.19148,0.69181 0.61243,1.23493 1.43478,1.85121 3.48265,5.48054 4.56213,8.08523 1.79225,4.32458 2.42246,7.3209 2.57514,12.24342 0.18678,6.02247 -0.4866,10.508 -2.32675,15.49873 l -0.79438,2.1545 2.75421,2.80177 c 2.9598,3.01089 4.28194,5.11864 4.58143,7.30366 0.13587,0.99128 0.0283,1.46126 -0.64996,2.84086 -0.69618,1.41596 -0.8115,1.94285 -0.804,3.67328 0.0105,2.42298 -0.49787,3.73343 -2.1846,5.63115 -1.58133,1.77913 -3.83657,2.79969 -6.18678,2.79969 -1.02644,0 -1.7256,0.11232 -1.7256,0.27721 0,0.4174 -1.31974,1.55942 -2.51354,2.17508 -0.69883,0.36039 -1.75546,0.58742 -3.11056,0.66834 l -2.05222,0.12255 0.17784,4.92313 0.17784,4.92313 1.76252,1.7235 c 2.08082,2.03478 2.92597,3.64847 3.10972,5.93757 0.17312,2.15669 -0.41358,3.95479 -1.80687,5.53765 -1.92475,2.18663 -4.06636,3.07298 -7.43645,3.07772 -1.98236,0.003 -2.0649,0.0292 -3.2247,1.03303 -1.74771,1.51263 -3.27352,2.01343 -6.11796,2.008 -2.4589,-0.005 -3.65339,-0.39262 -5.39349,-1.75162 -0.34705,-0.27103 -0.85702,-0.4928 -1.13327,-0.4928 -0.88867,0 -3.06696,-1.28257 -3.92273,-2.30968 -0.45715,-0.54868 -1.11719,-1.70611 -1.46675,-2.57207 -0.34956,-0.86595 -0.99547,-1.93437 -1.43536,-2.37426 l -0.79981,-0.7998 -3.37533,1.10428 c -5.59463,1.83035 -9.89481,2.75348 -14.62013,3.13852 -1.55323,0.12657 -2.43992,0.33212 -2.86623,0.66443 -0.84154,0.65598 -3.09469,1.47261 -4.68479,1.69794 -1.08186,0.15331 -1.54501,0.4086 -2.63544,1.45269 -2.20753,2.11372 -3.234201,2.5115 -6.482291,2.5115 -3.05329,0 -4.28145,-0.4145 -5.96651,-2.01367 -0.79406,-0.75358 -0.83266,-0.76127 -2.38125,-0.47448 -1.67586,0.31037 -4.02581,0.15334 -5.52086,-0.36892 -1.38248,-0.48293 -3.28406,-1.9308 -3.89437,-2.9652 l -0.54553,-0.92461 h -2.0366 -2.0366 l -1.65527,1.8488 c -1.28953,1.44029 -2.07908,2.05264 -3.57331,2.77133 -1.05492,0.5074 -2.20752,1.23068 -2.56133,1.6073 -2.12347,2.26033 -6.7627,3.19299 -9.86092,1.98241 z m 4.79666,-6.10234 c 0.48386,-0.29499 1.11934,-0.75957 1.41219,-1.0324 0.29284,-0.27283 1.32401,-0.88574 2.29147,-1.36202 1.52788,-0.75217 3.58741,-2.43429 3.31455,-2.70715 -0.1665,-0.1665 1.48046,-1.50488 2.51614,-2.04471 0.89671,-0.46739 3.41249,-0.89772 6.48185,-1.10874 0.90612,-0.0623 1.08962,-0.19902 1.63175,-1.21578 0.33595,-0.63008 0.81681,-1.37322 1.06857,-1.65141 0.41676,-0.46052 0.43057,-0.77399 0.15419,-3.50012 -0.73558,-7.25553 -0.0597,-14.09596 1.76518,-17.86538 1.1654,-2.40719 2.98249,-3.12556 4.37746,-1.73058 0.8449,0.84489 0.85719,1.24157 0.1644,5.30418 -0.81782,4.79575 -0.95305,9.76629 -0.39582,14.54864 0.46621,4.00113 0.43074,5.02897 -0.19638,5.69103 -0.70805,0.74751 -1.80815,2.64744 -1.95338,3.37358 -0.12519,0.62593 -0.0243,0.84709 0.56166,1.23101 0.67756,0.44396 0.83312,0.44522 3.02755,0.0246 4.27225,-0.81898 5.22041,-0.59945 7.11489,1.64729 1.00879,1.19636 1.25383,1.34884 2.1675,1.34884 1.31126,0 2.22962,-0.41907 2.65335,-1.21082 0.18344,-0.34276 0.45304,-0.54933 0.59911,-0.45906 0.14607,0.0903 0.19383,0.048 0.10613,-0.0939 -0.27755,-0.44909 0.848661,-1.95797 1.737141,-2.32741 0.46975,-0.19533 1.53871,-0.44 2.37545,-0.54373 0.97011,-0.12025 1.52136,-0.3125 1.52136,-0.53056 0,-0.18809 -0.74414,-1.44224 -1.65365,-2.78701 l -1.65364,-2.44504 0.0281,-2.67261 c 0.0199,-1.89387 0.22657,-3.48548 0.70937,-5.46239 2.09408,-8.57463 5.41549,-13.00857 7.70572,-10.28679 0.78837,0.93692 0.87803,2.02692 0.30771,3.74077 -1.22766,3.68921 -3.06231,10.80544 -3.06231,11.87807 0,0.29557 0.36458,1.0673 0.81018,1.71495 0.4456,0.64766 1.1712,1.94904 1.61244,2.89194 l 0.80225,1.71439 h 1.18371 c 3.80909,0 11.1884,-1.70312 16.64959,-3.84267 1.73316,-0.67901 4.34183,-1.63252 5.79703,-2.1189 2.58706,-0.86469 2.66347,-0.87413 3.43959,-0.42501 1.33816,0.77437 1.22688,1.72734 -0.37552,3.21604 -0.73935,0.68689 -1.34427,1.43683 -1.34427,1.66654 0,0.2297 0.56554,1.18873 1.25677,2.13117 0.69122,0.94245 1.49489,2.09537 1.78593,2.56206 0.35511,0.56942 0.90793,0.97399 1.68068,1.22997 0.63333,0.2098 1.71806,0.73006 2.41051,1.15612 1.98671,1.22244 2.76132,1.08574 4.64733,-0.82016 1.89181,-1.91176 2.60085,-2.14341 5.77039,-1.88525 2.72869,0.22225 3.35047,-0.0264 3.35047,-1.33966 0,-0.6299 -0.25214,-1.04211 -1.08322,-1.77094 -3.34263,-2.93134 -3.32552,-2.90732 -3.50307,-4.91869 -0.0899,-1.01864 -0.24288,-6.14113 -0.33992,-11.38331 -0.16007,-8.64742 -0.13495,-9.61144 0.27089,-10.39626 0.77344,-1.49567 2.50132,-1.71828 3.81842,-0.49196 0.34008,0.31664 1.03597,1.32169 1.54643,2.23345 1.5189,2.71301 2.34666,2.76738 4.66896,0.30668 l 1.47939,-1.56755 h 2.39189 c 2.06427,0 2.46674,-0.0748 2.9383,-0.54641 0.4419,-0.4419 0.50515,-0.70755 0.33073,-1.38906 -0.11862,-0.46346 -0.21454,-1.55703 -0.21316,-2.43016 0.002,-1.27916 0.14336,-1.80489 0.72761,-2.70672 0.39879,-0.61557 0.72508,-1.34602 0.72508,-1.62323 0,-0.2772 -0.90513,-1.43294 -2.01139,-2.56829 l -2.01139,-2.06429 -1.98098,2.16717 c -1.08954,1.19195 -2.08942,2.10017 -2.22195,2.01826 -0.13252,-0.0819 -0.24096,0.0175 -0.24096,0.221 0,0.62852 -3.95138,3.33765 -7.0216,4.81411 -7.12958,3.42861 -15.0461,4.76945 -24.42432,4.13679 -6.23619,-0.4207 -10.48013,-1.36365 -17.76657,-3.9475 -3.75588,-1.33188 -12.80208,-6.30055 -13.185071,-7.24197 -0.0485,-0.11923 -0.22832,-0.21679 -0.39958,-0.21679 -0.17126,0 -0.60888,-0.26789 -0.97249,-0.59531 -0.36361,-0.32742 -1.22699,-1.05091 -1.91863,-1.60775 -0.69428,-0.55898 -1.17856,-1.14018 -1.08124,-1.29765 0.10707,-0.17325 0.0517,-0.20826 -0.14095,-0.0892 -0.64711,0.39994 -10.58748,-10.36047 -10.17999,-11.0198 0.0748,-0.12106 0.0205,-0.18739 -0.12066,-0.1474 -0.28718,0.0813 -2.16389,-2.25127 -2.16389,-2.68955 0,-0.15425 -0.10599,-0.28046 -0.23553,-0.28046 -0.12953,0 -1.36568,-1.69664 -2.74698,-3.77031 -3.56152,-5.34669 -3.9188,-5.93673 -4.95499,-8.18307 l -0.92604,-2.00755 -2.11667,-0.8644 c -1.16417,-0.47542 -3.12509,-1.38 -4.3576,-2.01017 -1.23251,-0.63017 -2.3293,-1.05739 -2.43732,-0.94937 -0.36084,0.36084 -2.57542,9.40798 -3.12287,12.75779 -0.79516,4.86545 -1.07582,10.98459 -0.8025,17.49721 0.18875,4.49777 0.16553,5.78677 -0.11641,6.46154 -0.44534,1.06586 -1.34962,1.70583 -2.41033,1.70583 -1.36775,0 -2.15949,-1.24573 -2.38851,-3.75811 -0.19839,-2.17644 -0.29221,-2.45781 -0.70561,-2.11618 -0.55469,0.4584 -3.50147,1.11179 -5.01412,1.11179 -1.84356,0 -3.79889,-0.587 -5.70509,-1.7127 -1.68673,-0.99609 -4.14099,-3.39007 -4.41501,-4.30657 -0.0979,-0.32742 -0.27278,-0.59531 -0.38862,-0.59531 -0.30742,0 -1.51445,-2.8012 -1.99739,-4.63542 -0.76839,-2.91835 -0.78763,-7.69536 -0.049,-12.16562 0.024,-0.14552 -0.25394,-0.22392 -0.61774,-0.17421 -1.18595,0.16205 -3.78708,1.72879 -5.4506,3.28306 -0.89556,0.83675 -1.76898,1.52135 -1.94092,1.52135 -0.17195,0 -0.24345,0.11194 -0.1589,0.24875 0.0846,0.13681 -0.2068,0.65936 -0.64745,1.16123 -1.92292,2.1901 -3.8214,6.25865 -4.68267,10.03523 -0.30806,1.35086 -0.43715,3.16531 -0.43752,6.14959 -5.3e-4,3.79628 0.0744,4.50648 0.7249,6.87916 0.73552,2.68272 2.7062,7.17584 3.95038,9.00681 0.37503,0.5519 0.60852,1.1324 0.51886,1.28999 -0.0897,0.1576 -0.068,0.20074 0.048,0.0959 0.11607,-0.10486 0.95304,0.78811 1.85994,1.98437 0.90691,1.19626 2.52401,3.00846 3.59357,4.02711 1.06955,1.01864 1.91854,1.94138 1.88664,2.05052 -0.0319,0.10914 0.0371,0.16867 0.15329,0.13229 0.19182,-0.06 0.985,0.5257 3.33405,2.46215 0.82945,0.68376 5.05383,3.42483 5.27815,3.42483 0.0668,0 0.86756,0.42169 1.7794,0.93709 0.91184,0.5154 1.79808,0.8833 1.96942,0.81755 0.17134,-0.0658 0.75454,-1.41018 1.296,-2.98761 1.09013,-3.17586 3.05633,-7.46536 4.56914,-9.96812 2.27311,-3.76057 4.67898,-5.1461 6.2346,-3.59048 0.40038,0.40037 0.72796,0.9788 0.72796,1.28539 0,0.30659 -0.8227,2.25051 -1.82821,4.31983 -2.29409,4.72118 -3.64201,7.94789 -5.49539,13.1551 -1.81969,5.1126 -2.16353,5.68611 -3.88758,6.48437 -1.52419,0.70573 -2.243,1.27212 -2.91391,2.29606 -0.38971,0.59478 -0.40666,0.78519 -0.11226,1.26153 0.48145,0.77902 1.20591,0.90278 4.05869,0.69338 1.97442,-0.14494 2.63347,-0.0995 3.26015,0.22452 0.95152,0.49205 2.45846,2.25857 2.23505,2.62005 -0.0884,0.1431 -0.0316,0.18031 0.12638,0.0827 0.15795,-0.0976 0.36196,-0.0565 0.45337,0.0914 0.27777,0.44945 1.80163,0.2993 2.73448,-0.26944 z m 81.141101,-40.58632 c 3.23979,-0.50249 4.40176,-0.78644 7.16084,-1.74992 5.55055,-1.93828 10.33577,-5.25551 13.06656,-9.05808 0.49317,-0.68672 1.0154,-1.24859 1.1605,-1.24859 0.14511,0 0.19509,-0.0687 0.11107,-0.15276 -0.084,-0.084 0.18157,-0.82816 0.59019,-1.65365 0.98485,-1.98957 2.08216,-5.64961 2.54073,-8.47453 0.48399,-2.98148 0.47634,-8.90473 -0.0151,-11.71097 -0.68134,-3.89044 -2.55376,-8.41183 -4.939,-11.92639 -0.56247,-0.82876 -1.02267,-1.60379 -1.02267,-1.72229 0,-0.1185 -0.24083,-0.36586 -0.53517,-0.54968 -0.47044,-0.29379 -1.03852,-0.0848 -4.69636,1.72778 -2.28865,1.13411 -4.63743,2.26014 -5.21951,2.5023 -11.3993,4.7423 -20.95117,7.18811 -36.11562,9.24759 -3.8617,0.52445 -5.51092,0.59371 -14.287501,0.6 -8.38463,0.006 -10.3933,-0.0684 -12.96459,-0.48024 -4.27138,-0.68414 -5.02708,-0.77026 -5.02708,-0.57286 0,0.34867 0.88919,1.91293 2.13455,3.75509 0.70212,1.0386 1.20361,1.96133 1.11442,2.05053 -0.0892,0.0892 -0.0249,0.16216 0.14276,0.16216 0.16771,0 0.63293,0.50602 1.03381,1.12448 0.40089,0.61846 0.78953,1.18401 0.86365,1.25677 0.35577,0.34923 1.85456,2.36805 1.85456,2.49803 0,0.0813 0.24247,0.39027 0.53882,0.68662 0.29635,0.29635 0.45655,0.67193 0.35599,0.83463 -0.10413,0.16849 -0.0641,0.22244 0.093,0.12535 0.1517,-0.0937 0.73388,0.39387 1.29373,1.0836 0.55985,0.68974 1.13874,1.40184 1.28642,1.58246 0.14768,0.18062 1.25077,1.35712 2.45132,2.61446 1.20055,1.25734 2.18281,2.38948 2.18281,2.51587 0,0.1264 0.16868,0.22981 0.37483,0.22981 0.20615,0 0.41451,0.0893 0.46302,0.19844 0.0485,0.10914 0.52605,0.57418 1.06121,1.03341 0.53515,0.45924 0.90559,0.90239 0.8232,0.98479 -0.0824,0.0824 0.13459,0.25895 0.482191,0.39234 0.34761,0.13339 1.01897,0.61401 1.49191,1.06804 0.47294,0.45402 0.85989,0.75493 0.85989,0.66868 0,-0.0863 0.44649,0.19074 0.99219,0.61554 1.65293,1.28672 6.22266,3.9673 8.84175,5.18653 4.18076,1.94621 9.79105,3.64741 14.50773,4.39917 3.81905,0.60869 11.51111,0.6887 14.94896,0.15549 z m -35.18958,-40.22854 c 17.31228,-0.67163 36.36899,-6.02334 51.2895,-14.40369 0.49126,-0.27593 1.1774,-0.66171 1.52476,-0.85729 0.34736,-0.19559 1.06542,-0.68303 1.59568,-1.08322 0.53027,-0.40018 1.07736,-0.7276 1.21577,-0.7276 0.1384,0 0.46714,-0.23813 0.73053,-0.52917 0.26339,-0.29104 0.5902,-0.52916 0.72623,-0.52916 0.13604,0 0.59424,-0.32743 1.01824,-0.72761 0.42399,-0.40018 0.81585,-0.66807 0.8708,-0.59531 0.18308,0.24243 7.9716,-7.77698 9.37924,-9.65729 1.84839,-2.46904 4.11242,-7.14624 4.80275,-9.92188 0.80897,-3.25259 0.97012,-7.234087 0.4123,-10.186451 -1.47371,-7.7999 -7.88119,-18.243753 -16.18364,-26.378468 -10.02809,-9.825497 -24.29568,-15.263965 -42.88176,-16.34551 -17.00566,-0.989579 -35.897621,3.304582 -49.822281,11.324658 -1.38245,0.796237 -2.74161,1.578848 -3.02037,1.739138 -0.27876,0.160287 -0.69548,0.448339 -0.92604,0.640115 -0.23057,0.191775 -1.41913,1.076224 -2.64126,1.965441 -1.22213,0.889219 -3.42478,2.803649 -4.89479,4.254288 -1.47001,1.450642 -2.79181,2.610099 -2.93733,2.576573 -0.14552,-0.03352 -0.17966,0.02397 -0.0759,0.127757 0.10379,0.103793 -0.63969,1.215043 -1.65219,2.469443 -2.40508,2.979698 -2.25757,2.763552 -3.76881,5.522439 -0.56078,1.023763 -0.6688,1.414801 -0.41029,1.485246 1.64637,0.448641 1.93841,0.614403 1.93841,1.100252 0,0.405106 -0.38715,0.658754 -1.71979,1.126752 -1.48965,0.523134 -2.09157,0.588099 -4.49792,0.48547 -1.80804,-0.07711 -3.28626,-0.298238 -4.23333,-0.633267 -1.82046,-0.643993 -5.16763,-2.307262 -6.21771,-3.08969 -0.43656,-0.325289 -0.92447,-0.639723 -1.08424,-0.698743 -0.27871,-0.102955 -0.65189,-0.395558 -4.10684,-3.220109 -1.76748,-1.444977 -2.65066,-1.84931 -3.54768,-1.624174 -1.04043,0.261133 -1.27559,0.747964 -0.80286,1.662121 0.63272,1.223536 0.53561,1.849077 -0.31411,2.023506 -2.14821,0.440987 -2.74309,0.694457 -2.65911,1.133028 0.0471,0.246116 0.56051,0.68561 1.14088,0.976651 0.58037,0.291042 1.14766,0.67305 1.26065,0.848908 0.11299,0.175855 0.37636,0.254148 0.58528,0.173979 0.4516,-0.173296 1.67172,1.062628 1.884,1.908411 0.25235,1.005435 -0.33012,1.656326 -1.88731,2.109012 -0.79687,0.231658 -1.44887,0.478192 -1.44887,0.547854 0,0.06966 0.17567,0.466355 0.39037,0.881544 0.32059,0.619948 0.61619,0.785056 1.65365,0.923658 0.6948,0.09282 1.89704,0.0463 2.67164,-0.103381 1.59483,-0.308184 2.5168,0.0041 3.42648,1.160566 1.02491,1.302959 1.22656,2.16395 0.74466,3.179471 -0.48117,1.013992 -1.33954,1.731436 -2.07154,1.731436 -0.3843,0 -0.44205,0.139356 -0.30152,0.727604 0.24972,1.045371 0.56585,1.353047 1.58705,1.544624 1.26399,0.237128 2.31321,-0.276227 3.33326,-1.630886 0.73352,-0.97413 1.01352,-1.154859 1.79512,-1.158714 1.21494,-0.006 2.14735,0.253675 1.96579,0.547452 -0.0797,0.128977 0.0222,0.234503 0.22655,0.234503 0.20431,0 0.57616,0.226174 0.82633,0.502608 0.6159,0.680553 0.30683,2.298015 -0.6153,3.220148 l -0.68975,0.689747 0.65115,0.30729 c 0.81671,0.38542 2.00471,0.39464 2.70291,0.021 0.94617,-0.50637 1.753,-0.52813 2.22123,-0.0599 0.56212,0.56212 3.64728,0.53752 5.02971,-0.0401 0.5008,-0.20925 0.92543,-0.327 0.94362,-0.26166 0.22937,0.82387 -0.24484,2.16133 -1.08928,3.07216 -1.5816,1.70597 -2.79619,2.86746 -2.99851,2.86746 -0.12393,0 -1.00544,0.36109 -1.95892,0.80241 -1.76756,0.81812 -4.65088,1.67252 -6.55407,1.94213 -2.16648,0.3069 -7.43546,0.43092 -8.20208,0.19306 -0.43657,-0.13546 -0.62508,-0.25651 -0.41893,-0.26902 0.20616,-0.0125 0.30705,-0.0905 0.22421,-0.17337 -0.0829,-0.0828 -0.391,-5.3e-4 -0.68478,0.18296 -0.43077,0.26902 -0.93505,0.266 -2.60545,-0.0156 -3.47784,-0.58633 -3.75989,-0.61065 -4.97251,-0.4288 -1.2615,0.18917 -1.78821,0.89376 -1.19892,1.60381 0.17007,0.20493 0.23326,0.49551 0.14041,0.64573 -0.0988,0.15989 -0.007,0.21104 0.22152,0.12337 0.49044,-0.1882 1.04681,0.78865 0.83295,1.46245 -0.086,0.27108 -0.47892,0.57381 -0.87307,0.67273 -1.50658,0.37813 -1.84839,1.29448 -0.65345,1.75182 1.04549,0.40014 2.68979,0.33963 3.82795,-0.14088 0.54104,-0.2284 1.02853,-0.41528 1.08333,-0.41528 0.24029,0 1.54146,1.26861 2.15587,2.10192 0.93395,1.2667 0.85263,1.94459 -0.38643,3.22135 -0.58208,0.59979 -1.05833,1.19699 -1.05833,1.3271 0,0.13012 0.38695,0.47716 0.8599,0.7712 0.78473,0.4879 1.15557,0.52345 2.3088,0.22136 0.50587,-0.13251 1.06463,-0.65295 1.06463,-0.99162 0,-0.14611 0.23813,-0.34123 0.52917,-0.4336 0.31477,-0.0999 0.53031,-0.40193 0.53198,-0.74544 0.002,-0.31761 0.40379,-0.96699 0.89386,-1.44306 0.76319,-0.74139 0.98666,-0.82923 1.55748,-0.61221 0.36654,0.13936 0.73957,0.18024 0.82896,0.0909 0.2522,-0.25219 1.72024,1.3722 2.02172,2.23703 0.27805,0.79761 0.1484,1.20805 -0.85972,2.72178 -0.24229,0.36381 -0.51973,0.9837 -0.61653,1.37755 -0.15158,0.61672 -0.0804,0.74009 0.51299,0.88902 1.44889,0.36365 2.35318,-0.0625 3.13291,-1.47654 0.40018,-0.7257 0.7276,-1.59431 0.7276,-1.93022 0,-1.24984 0.46407,-1.46277 3.30729,-1.51749 3.66596,-0.0705 3.47878,-0.11629 3.41298,0.83414 -0.0313,0.45225 -0.18696,0.95232 -0.34589,1.11125 -0.54982,0.54982 -0.30661,1.2325 0.57093,1.60258 0.7796,0.32877 0.9141,0.31349 1.4403,-0.16365 0.83856,-0.76036 1.40397,-2.10172 1.40397,-3.33069 0,-1.24427 0.17375,-1.3935 1.81897,-1.56231 2.73084,-0.28019 3.08244,-0.24144 2.99282,0.32991 -0.12539,0.7995 -0.0952,1.49747 0.072,1.66468 0.0823,0.0823 0.85668,0.13017 1.72082,0.10636 0.86414,-0.0238 1.64096,0.0696 1.72627,0.20765 0.2886,0.46697 -1.92255,2.33445 -3.8459,3.24816 l -1.91222,0.90843 1.02873,1.14219 c 1.56745,1.74033 2.3586,2.50142 3.11617,2.99779 0.37988,0.24891 0.69069,0.63544 0.69069,0.85895 0,0.22351 0.11971,0.3324 0.26604,0.24196 0.14632,-0.0904 0.7714,0.24521 1.38906,0.74588 5.48647,4.44725 14.11954,8.62469 21.36364,10.33761 3.77399,0.89238 9.49904,1.55521 14.94896,1.73074 3.05594,0.0984 6.032501,0.14692 6.614591,0.10775 0.58208,-0.0392 2.7252,-0.13587 4.7625,-0.21491 z m 3.09773,-32.03845 c -0.65677,-0.46002 -1.1998,-1.59111 -1.47855,-3.0797 -0.11055,-0.59031 -0.45938,-1.19761 -0.8763,-1.52556 -1.9734,-1.55227 -2.52706,-3.67109 -1.28408,-4.91407 0.35719,-0.35719 0.94586,-0.64943 1.30816,-0.64943 0.81144,0 2.02331,1.00448 2.07487,1.71979 0.0373,0.5173 0.16603,0.52534 5.7419,0.35864 9.44227,-0.28229 16.03717,-1.51886 27.2673,-5.112764 2.4011,-0.768406 5.22883,-1.541878 6.28386,-1.718832 l 1.91823,-0.32173 v -1.260377 c 0,-1.619565 0.95094,-2.811288 2.02765,-2.541051 1.24159,0.311619 1.9411,1.409512 1.9411,3.046593 0,1.580329 -0.64139,2.901968 -2.02392,4.170507 -1.3892,1.274644 -2.58478,1.615634 -4.17584,1.190954 -0.82034,-0.21896 -1.25986,-0.20061 -1.93323,0.0807 -1.0928,0.4566 -9.7127,3.12123 -11.84305,3.66097 -6.14258,1.55631 -11.1617,2.2899 -16.8841,2.46774 l -4.97786,0.15471 0.1715,1.01505 c 0.46153,2.73183 -1.3797,4.57316 -3.25764,3.25781 z m -19.900281,-4.17861 c -1.83419,-0.5325 -2.39247,-0.89224 -4.01538,-2.5874 -1.79589,-1.87584 -2.40417,-3.42759 -2.37931,-6.069705 0.012,-1.271958 0.20786,-2.283283 0.65828,-3.398404 0.71928,-1.780767 1.99529,-3.475778 2.49677,-3.316628 0.1819,0.05773 0.33447,-0.04013 0.33904,-0.217464 0.025,-0.968687 2.99355,-2.042218 5.64721,-2.042218 1.62636,0 2.18961,0.128291 3.55183,0.809 1.75392,0.876449 4.145071,3.250674 3.9047,3.877072 -0.0778,0.202671 -0.0392,0.305329 0.0857,0.228129 0.12491,-0.0772 0.43609,0.52401 0.6915,1.336027 0.95294,3.029667 0.14298,6.570301 -2.042443,8.928141 -1.99689,2.15444 -6.09401,3.2791 -8.93791,2.45345 z m 3.83087,-9.806598 c 1.98573,-0.829691 2.56284,-3.881009 1.03554,-5.475168 -2.42989,-2.536254 -6.65651,-0.280551 -5.80811,3.099726 0.56361,2.245606 2.62625,3.272237 4.77257,2.375442 z m 25.029421,-3.230695 c -0.6479,-0.823671 -0.67184,-1.141021 -0.17565,-2.328571 0.58916,-1.410055 2.08165,-1.495785 2.79622,-0.160618 0.66964,1.251241 -0.21044,3.186329 -1.44915,3.186329 -0.35795,0 -0.85637,-0.296619 -1.17142,-0.69714 z M 139.636,90.75809 c -0.25446,-0.281167 -0.43788,-0.928992 -0.43788,-1.546492 0,-1.807072 1.45201,-2.547705 2.59971,-1.326039 0.63797,0.679096 0.73208,1.505794 0.27109,2.381591 -0.57567,1.093679 -1.68489,1.317509 -2.43292,0.49094 z m 17.68607,-0.283726 c -2.2044,-0.566393 -4.1017,-2.129356 -5.17064,-4.259503 -0.68802,-1.371071 -0.83403,-4.178411 -0.31035,-5.967171 0.418,-1.427761 2.08534,-3.378071 2.7413,-3.206533 0.28937,0.07567 0.49073,-0.01077 0.49073,-0.210701 0,-0.399002 1.16392,-0.669846 2.87735,-0.669552 1.65798,2.64e-4 4.18994,1.220475 5.28336,2.546135 2.34786,2.846536 2.52705,7.112484 0.403,9.593956 -1.44987,1.693849 -4.32702,2.684089 -6.31475,2.173369 z m 0.11337,-8.350757 c 0.88048,-0.455317 1.07726,-0.874168 1.07726,-2.29302 0,-2.65014 -3.49973,-3.24712 -4.74915,-0.810104 -0.44601,0.869953 -0.105,2.043134 0.82015,2.821602 0.90161,0.75865 1.76437,0.843822 2.85174,0.281522 z m 20.80456,-10.051 c 0.78289,-1.194845 -0.12234,-2.696082 -1.78614,-2.962134 -0.56076,-0.08967 -1.09658,-0.28766 -1.19072,-0.439984 -0.20425,-0.330488 -0.17978,-4.307874 0.0286,-4.645011 0.0799,-0.129313 0.68311,-0.370536 1.34043,-0.536049 1.07658,-0.271087 1.19512,-0.377801 1.19512,-1.075872 0,-1.147744 -0.82599,-1.598695 -2.92828,-1.598695 -1.42987,0 -1.84242,0.09968 -2.24258,0.541859 -0.26971,0.298024 -0.51517,0.710766 -0.54547,0.917207 -0.0303,0.206441 -0.44017,0.94487 -0.91083,1.640951 -0.9518,1.407671 -1.0595,2.4295 -0.33637,3.19147 0.26468,0.278898 0.71158,0.829935 0.9931,1.224529 0.28153,0.394594 0.7874,1.037807 1.12416,1.429359 0.33676,0.391554 0.61244,0.801473 0.61261,0.910933 1.8e-4,0.109459 0.44185,0.615474 0.98149,1.12448 0.80552,0.759785 1.18335,0.925462 2.11057,0.925462 0.90672,0 1.21318,-0.127868 1.55432,-0.648505 z M 159.32898,54.184235 c 0.868,-0.618067 0.98462,-1.32025 0.3283,-1.976578 -0.53232,-0.532317 -2.0136,-0.377391 -2.74822,0.287441 -0.65656,0.594172 -0.87258,0.388403 -1.55389,-1.48014 -0.41555,-1.13969 -0.54403,-1.932112 -0.43716,-2.696183 0.0832,-0.595159 0.20821,-1.138963 0.2777,-1.208456 0.0695,-0.06949 -0.11423,-0.464224 -0.40828,-0.877181 -1.0144,-1.424582 -3.93539,-1.651187 -3.95421,-0.30676 -0.0223,1.593543 -0.2183,4.519512 -0.33298,4.971153 -0.1559,0.61401 0.71433,1.841891 1.12536,1.587859 0.27301,-0.168732 1.67731,0.503992 2.33709,1.119577 0.19496,0.181901 0.47602,0.330729 0.62457,0.330729 0.14855,0 0.58653,0.249719 0.97329,0.554929 0.86294,0.681006 2.57753,0.541602 3.76843,-0.30639 z"
       id="path749" /></g></svg>
