<?xml version="1.0" encoding="UTF-8" standalone="no"?>
<!-- Created with Inkscape (http://www.inkscape.org/) -->

<svg
   width="240.48909mm"
   height="206.01338mm"
   viewBox="0 0 240.48908 206.0134"
   version="1.1"
   id="svg5"
   xml:space="preserve"
   xmlns="http://www.w3.org/2000/svg"
   xmlns:svg="http://www.w3.org/2000/svg"><defs
     id="defs2" /><g
     id="layer1"
     transform="translate(-7.3829205,-46.54274)"><path
       style="fill:#000000;stroke-width:0.264583"
       d="m 92.314121,252.24372 c -1.67349,-0.2015 -4.70959,-0.55911 -6.74688,-0.79469 -7.5896,-0.87764 -13.05883,-1.95817 -17.19792,-3.39772 -1.45521,-0.50611 -4.01505,-1.17925 -5.68854,-1.49587 -1.67349,-0.31662 -3.9952,-0.79067 -5.15937,-1.05345 -1.16417,-0.26279 -3.22847,-0.55356 -4.58735,-0.64617 -4.31444,-0.29405 -6.67201,-0.96417 -9.26161,-2.63256 -0.8627,-0.5558 -2.15505,-1.07563 -3.31666,-1.33406 -2.51981,-0.56061 -6.10727,-2.13511 -8.96987,-3.9368 -1.27765,-0.80414 -3.11602,-1.71827 -4.08528,-2.0314 -2.91039,-0.94025 -5.03356,-2.50635 -7.04606,-5.19734 -1.12802,-1.50831 -2.24925,-2.67397 -3.14514,-3.26974 -2.42734,-1.61421 -4.50617,-3.89848 -5.64512,-6.20299 l -1.03874,-2.10173 -0.0973,-3.98368 c -0.0685,-2.80376 0.0429,-5.06108 0.37628,-7.62123 0.55471,-4.26029 0.52762,-4.44447 -1.4576705,-9.90935 -1.56523,-4.30857 -1.86397,-5.71907 -1.86397,-8.80056 0,-10.44627 2.7459805,-18.51155 8.2020805,-24.09053 4.10061,-4.19295 8.512,-6.3707 13.89063,-6.85732 2.90797,-0.26308 4.79385,-0.95604 6.87916,-2.5277 1.90529,-1.43597 5.38955,-3.26877 7.95694,-4.18552 1.02933,-0.36755 3.6487,-1.04331 5.82083,-1.50169 4.3648,-0.92109 5.66911,-1.30915 5.66911,-1.68667 0,-0.20876 -1.25533,-3.05696 -1.44691,-3.28288 -0.0324,-0.0382 -0.621,0.17932 -1.30812,0.48327 -2.40173,1.0624 -4.80821,-0.14847 -5.46298,-2.74879 -0.28784,-1.14313 -0.34826,-1.20385 -1.05688,-1.06213 -0.96965,0.19393 -2.94988,-0.74682 -3.5978,-1.70922 -0.26976,-0.40069 -0.5409,-1.41199 -0.61723,-2.30211 -0.0749,-0.87313 -0.22599,-1.55638 -0.33582,-1.51833 -0.10984,0.038 -0.62755,-0.1096 -1.15047,-0.32809 -1.73754,-0.72599 -2.92246,-2.85047 -2.46991,-4.42839 0.35723,-1.2456 0.31493,-1.47356 -0.31021,-1.67197 -1.02178,-0.3243 -2.6002,-1.98997 -2.8838,-3.0432 -0.20961,-0.77843 -0.18064,-1.27415 0.12592,-2.15431 0.21899,-0.62876 0.39991,-1.21631 0.40202,-1.30566 0.002,-0.0894 -0.46363,-0.48642 -1.035,-0.88239 -1.97804,-1.37078 -2.41915,-3.5438 -1.09143,-5.37666 0.66623,-0.9197 0.72429,-1.12328 0.39771,-1.39432 -0.59321,-0.49232 -1.20495,-2.87865 -1.0116,-3.94617 0.50356,-2.78031 2.66948,-4.77447 5.1857,-4.77447 0.65758,0 1.42335,0.19504 1.79908,0.45821 0.3598,0.25202 0.65419,0.42292 0.65419,0.3798 0,-0.0431 0.21783,0.005 0.48407,0.10734 0.29334,0.11257 0.93025,-0.0371 1.61648,-0.3798 0.62282,-0.31105 1.26592,-0.56555 1.42911,-0.56555 0.28716,0 0.41321,-0.37249 0.65325,-1.93038 0.098,-0.63609 -0.0249,-0.8106 -0.87671,-1.24517 -1.26974,-0.64778 -2.31429,-1.89282 -2.52347,-3.007819 -0.19386,-1.033362 0.24871,-2.880148 0.79982,-3.337523 0.29714,-0.246613 0.35047,-0.682363 0.22749,-1.858968 -0.13175,-1.260496 -0.0562,-1.752491 0.41989,-2.736051 0.54767,-1.131329 0.55586,-1.236845 0.14467,-1.864383 -0.23971,-0.365853 -0.34765,-0.807882 -0.23986,-0.982284 0.13198,-0.213559 0.0834,-0.247497 -0.14892,-0.103942 -0.27522,0.170095 -0.31647,-0.14102 -0.20418,-1.539952 0.1075,-1.339244 0.0502,-1.828212 -0.24259,-2.071237 -0.66747,-0.553953 -1.14218,-1.748618 -1.14218,-2.874463 0,-1.182782 0.29341,-1.913358 1.14286,-2.845707 0.67457,-0.740397 0.77011,-1.268045 0.30021,-1.65803 -0.19734,-0.163777 -0.43374,-0.797494 -0.52533,-1.40826 -0.3153,-2.102573 1.01918,-4.185132 3.18321,-4.967655 0.9049,-0.327219 1.19137,-0.827191 0.66155,-1.154634 -0.4662,-0.288123 -0.28704,-2.269236 0.29959,-3.313017 0.38464,-0.684363 0.91089,-1.146456 1.65365,-1.452039 1.75143,-0.720561 1.83403,-0.785315 2.13248,-1.671738 1.08795,-3.231237 5.24472,-4.844303 8.12847,-3.154314 0.66544,0.389974 1.27493,0.644003 1.35442,0.564512 0.3003,-0.300297 3.27062,-0.113676 4.15852,0.261273 1.08188,0.456864 2.66207,2.038149 3.29768,3.299952 0.31589,0.627108 0.40673,1.277012 0.31206,2.232544 -0.11433,1.153895 -0.041,1.457928 0.50958,2.112232 0.76225,0.905888 0.87492,2.786541 0.23989,4.00423 -0.21998,0.421833 -0.36808,0.787813 -0.32909,0.813287 1.9993,1.306499 2.46304,2.143239 2.24264,4.046524 -0.12673,1.094407 -0.0581,1.344136 0.54449,1.979721 0.53789,0.567388 0.71388,1.064062 0.80028,2.258539 0.10303,1.424421 0.0456,1.616551 -0.82345,2.755074 -0.90856,1.190289 -0.92051,1.23626 -0.43551,1.675186 0.58978,0.533741 1.42614,2.89099 1.21809,3.433148 -0.26323,0.685977 0.33546,0.696386 1.32635,0.02304 0.53621,-0.36436 1.10386,-0.589121 1.26145,-0.499467 0.15759,0.08966 0.19994,0.06725 0.0941,-0.04979 -0.19283,-0.213236 1.80416,-1.614601 4.20386,-2.950017 0.70413,-0.39184 1.80411,-1.037412 2.44441,-1.434605 l 1.16419,-0.722164 -0.93022,-0.609772 c -2.01689,-1.322102 -2.70037,-3.536789 -1.69137,-5.480537 0.33151,-0.638625 0.40699,-1.185524 0.28025,-2.030679 -0.32573,-2.172087 0.56635,-3.704561 2.72495,-4.681135 1.05421,-0.476936 1.12448,-0.575718 1.12448,-1.580838 0,-1.244558 0.63333,-2.729508 1.39025,-3.259677 0.52558,-0.368126 0.52545,-0.372846 -0.0345,-1.278845 -0.79356,-1.284002 -0.75249,-2.999449 0.0995,-4.154186 0.3638,-0.493107 0.66146,-0.795441 0.66146,-0.671854 0,0.123585 0.22533,0.02077 0.50073,-0.228459 0.27541,-0.249238 0.84053,-0.544037 1.25583,-0.655103 0.67378,-0.180198 0.77719,-0.355452 0.96025,-1.627479 0.11284,-0.784045 0.37498,-1.684716 0.58254,-2.001493 0.4564,-0.696564 2.43359,-1.694778 3.35688,-1.694778 0.54659,0 0.72415,-0.18627 0.97469,-1.022509 0.60304,-2.012759 2.12749,-3.210814 4.08559,-3.210814 0.71116,0 1.14277,-0.259622 2.19131,-1.31812 1.350609,-1.363434 2.959609,-2.126392 4.461699,-2.115653 1.07126,0.0076 2.88888,0.84859 3.39452,1.570493 0.33339,0.47599 0.56301,0.545198 1.33088,0.401143 1.84649,-0.346404 4.77146,1.574797 5.78506,3.799784 0.62919,1.38117 0.54291,3.4862 -0.17543,4.27996 -0.38124,0.421259 -0.36046,0.525574 0.24897,1.249836 0.91026,1.081784 1.20897,1.975496 1.20897,3.617106 0,0.767762 0.17731,1.980403 0.39402,2.694754 0.50608,1.668262 0.49963,2.32255 -0.0331,3.352657 -0.44475,0.86005 -1.64732,1.966447 -2.00947,1.848768 -0.11197,-0.03638 -0.20357,0.05292 -0.20357,0.198438 0,0.145521 -0.19247,0.264583 -0.42772,0.264583 -0.33434,0 -0.38798,0.158853 -0.2457,0.727604 0.6052,2.419337 0.50524,3.300704 -0.51138,4.508884 l -0.65578,0.779356 5.35724,-0.133868 c 11.86912,-0.29659 19.73454,1.143656 28.18839,5.161613 3.44709,1.638334 6.65953,3.490843 6.65953,3.840332 0,0.157038 0.0759,0.209666 0.16857,0.116951 0.15016,-0.150157 1.60946,0.713211 1.9481,1.152556 0.0728,0.0944 0.60854,0.471734 1.19062,0.838521 0.58209,0.366789 2.54662,2.16957 4.36563,4.00618 l 3.30729,3.33929 0.18107,-1.254649 c 0.14984,-1.038214 0.38316,-1.437214 1.35259,-2.312979 l 1.17152,-1.058333 -0.38753,-0.924515 c -1.00632,-2.400745 0.39794,-4.965052 3.2539,-5.941946 0.90928,-0.311023 1.05185,-0.470432 1.11179,-1.243074 0.15372,-1.981451 0.40046,-2.684639 1.28593,-3.664751 1.44489,-1.599319 3.72516,-2.228067 5.40047,-1.489094 0.30556,0.134779 0.58678,-0.216937 1.14387,-1.430633 0.40629,-0.885143 0.92925,-1.682467 1.16213,-1.771833 0.23288,-0.08936 0.63459,-0.373655 0.89269,-0.631756 0.67098,-0.670973 2.53921,-1.107842 4.00012,-0.935392 2.56588,0.302887 5.17859,2.595242 5.4223,4.757457 l 0.12557,1.114022 1.64444,-0.0047 c 1.36128,-0.0039 1.83677,0.122494 2.76131,0.73375 1.93642,1.280269 2.33743,3.26962 1.11684,5.540444 -0.44828,0.833995 -0.81505,1.674595 -0.81505,1.868003 0,0.193405 0.35302,0.712721 0.78449,1.154038 1.52356,1.558346 1.65459,3.360754 0.36756,5.056455 l -0.65547,0.8636 0.54546,0.693436 c 0.72641,0.923485 0.71257,2.64519 -0.0336,4.181064 -0.31849,0.655545 -0.52685,1.224677 -0.46302,1.264743 0.0638,0.04007 0.51596,0.353478 1.00474,0.696473 0.73257,0.514078 1.08117,0.592277 1.98437,0.445143 0.60263,-0.09817 4.90568,-0.281839 9.56235,-0.408157 10.62178,-0.288128 11.97381,-0.578217 13.56046,-2.909506 1.05862,-1.555456 1.23497,-2.740996 0.86609,-5.822688 -0.79486,-6.640448 -0.66885,-7.453992 1.31107,-8.464071 1.7096,-0.872172 4.97138,-0.59255 6.08564,0.521703 0.26946,0.269465 0.5424,0.437468 0.60653,0.373338 0.0641,-0.06413 0.81819,0.403 1.6757,1.038066 10.72589,7.943596 15.29232,23.140679 10.81869,36.004619 -0.35898,1.03226 -0.77429,1.91736 -0.9229,1.96689 -0.14861,0.0495 -0.20411,0.19701 -0.12333,0.32772 0.13757,0.22258 -0.89766,2.46435 -2.25193,4.87653 -1.0387,1.8501 -2.84878,4.46341 -3.8257,5.52336 -0.51981,0.56399 -0.94889,1.09977 -0.95351,1.19062 -0.0392,0.77008 -9.55299,8.28678 -9.9659,7.87387 -0.0682,-0.0682 -0.36864,0.12071 -0.66769,0.41976 -0.44712,0.44712 -5.77035,3.11794 -9.40926,4.72089 l -0.86896,0.38278 3.51479,1.39023 c 1.93314,0.76462 3.67657,1.38903 3.8743,1.38758 0.65812,-0.005 6.21453,1.61776 9.23281,2.69618 7.27166,2.59811 13.65672,8.32934 16.23728,14.57457 2.25657,5.46114 2.80188,11.26294 1.95085,20.75612 -0.5237,5.84188 -0.8043,7.72823 -1.76184,11.84445 -0.75151,3.23052 -0.78079,3.55328 -0.48166,5.31015 0.18098,1.06297 0.2718,3.23338 0.21038,5.02709 -0.12511,3.65311 -0.51776,4.82135 -2.69074,8.00574 -3.20573,4.69785 -7.59717,7.3369 -15.43375,9.275 -4.39301,1.08645 -6.19912,1.88365 -8.40912,3.7117 -1.04271,0.86251 -2.72111,2.01645 -3.72978,2.56432 -1.00866,0.54788 -2.55532,1.65882 -3.43701,2.46878 -4.20449,3.8624 -12.70127,6.47993 -27.9027,8.59575 -1.53057,0.21304 -3.76186,0.69661 -4.95843,1.0746 -3.7759,1.19281 -9.45883,2.25309 -12.09031,2.25573 -1.59986,0.002 -3.35836,0.22279 -5.30382,0.66715 -3.98355,0.90986 -6.92708,1.3656 -11.90625,1.84342 -5.47898,0.52578 -17.4712,0.94411 -19.81523,0.69122 -1.24482,-0.1343 -2.24978,-0.0862 -3.16651,0.15162 -2.90528,0.75362 -8.60937,0.27663 -12.23541,-1.02314 -0.71423,-0.25602 -1.19723,-0.16186 -3.70417,0.72213 l -2.88284,1.01653 -6.21771,0.0623 c -4.039079,0.0405 -7.283849,-0.0661 -9.260409,-0.30405 z m 14.587819,-4.24161 c 1.21727,-0.23215 2.45134,-0.53125 2.74238,-0.66465 2.06685,-0.94738 2.9249,-1.07167 6.21771,-0.90065 3.78919,0.1968 6.1245,-0.17046 9.38456,-1.47585 2.55213,-1.02192 3.53332,-0.99625 5.90542,0.1545 2.15354,1.04472 3.43551,1.34408 6.84559,1.59855 4.89145,0.36502 17.48431,-0.7465 23.09598,-2.03858 1.23022,-0.28326 3.71677,-0.62798 5.52568,-0.76606 3.79054,-0.28932 5.60197,-0.63111 11.81673,-2.22963 2.47385,-0.63631 5.56947,-1.29293 6.87916,-1.45914 8.20251,-1.041 13.93817,-2.33739 19.13681,-4.32533 1.79016,-0.68455 2.53461,-1.15609 3.96875,-2.51384 2.42553,-2.29633 3.07088,-2.77222 5.21142,-3.843 1.02226,-0.51137 2.88329,-1.69368 4.13563,-2.62735 2.74065,-2.04326 3.47298,-2.35148 8.41838,-3.54313 4.42772,-1.06691 5.8703,-1.61742 8.07693,-3.08226 3.32369,-2.20639 5.00807,-4.1278 5.95134,-6.78881 0.56122,-1.58324 0.59391,-1.98344 0.43463,-5.32017 -0.12207,-2.55712 -0.33246,-4.09619 -0.72228,-5.28364 -0.92521,-2.81831 -3.05466,-6.77425 -6.28523,-11.67623 -3.22868,-4.8991 -3.58697,-5.24438 -5.44194,-5.24438 -1.09585,0 -3.3679,1.57515 -6.54562,4.53793 l -0.75236,0.70146 -2.2e-4,4.72249 c -1.3e-4,2.59737 -0.11968,6.03218 -0.26568,7.63291 -0.38975,4.27327 -1.09316,8.66865 -1.3467,8.41511 -0.1215,-0.1215 -0.089,-1.70742 0.0722,-3.52426 0.16121,-1.81684 0.30152,-6.26418 0.31179,-9.88298 0.0187,-6.57683 0.0184,-6.57984 -0.59627,-7.0776 -0.96438,-0.78091 -2.57231,-0.6377 -5.09946,0.45418 -9.82989,4.24708 -12.38542,5.10955 -17.81418,6.01216 -2.03729,0.33872 -3.97776,0.76303 -4.31215,0.9429 -0.89052,0.47903 -1.11134,1.33927 -1.11586,4.34699 -0.004,2.38577 -0.25076,3.7205 -0.6201,3.34855 -0.45881,-0.46207 -2.07702,-4.74701 -2.20693,-5.84386 -0.1211,-1.02248 -0.29024,-1.39483 -0.71432,-1.57244 -0.6925,-0.29004 -4.31439,-1.22154 -9.77229,-2.51329 l -4.18957,-0.99157 -1.69039,0.90035 -1.69039,0.90035 1.58814,1.41702 c 2.43996,2.17706 2.46549,2.2633 2.24519,7.58504 -0.12448,3.00695 -0.0912,4.89305 0.0989,5.59899 0.34159,1.26857 2.23797,3.16093 4.73549,4.72549 3.67735,2.30364 3.66204,2.28769 3.98745,4.15628 0.16243,0.93277 0.29533,2.87086 0.29533,4.30687 0,3.58983 -0.44594,2.98859 -1.08812,-1.46706 -0.27692,-1.92134 -0.57191,-3.60407 -0.65555,-3.7394 -0.0836,-0.13534 -0.77341,-0.59672 -1.53281,-1.0253 -0.75941,-0.42858 -1.78306,-1.13843 -2.27478,-1.57744 -1.18734,-1.06005 -1.43607,-1.01863 -1.16501,0.19398 0.51983,2.32547 -0.003,6.34777 -1.41094,10.86331 -1.33741,4.2881 -1.38177,5.18241 -0.36492,7.35539 0.81971,1.75168 1.05202,3.01412 0.55463,3.01412 -0.14552,0 -0.26458,-0.20121 -0.26458,-0.44712 0,-0.24591 -0.50602,-1.28466 -1.12448,-2.30832 -1.42582,-2.35997 -1.41442,-2.90542 0.15808,-7.56331 1.36954,-4.05672 1.81428,-5.82084 1.46744,-5.82084 -0.13005,0 -0.23646,0.094 -0.23646,0.20886 0,0.11487 -0.74571,1.0376 -1.65713,2.05052 -1.65184,1.83579 -2.44412,2.92855 -3.70296,5.10729 -1.42391,2.46447 -0.84478,-0.3071 0.69794,-3.34012 0.39092,-0.76857 1.523,-2.25685 2.51572,-3.30729 2.47851,-2.62261 2.50438,-2.68679 2.01951,-5.01096 -0.221,-1.0593 -0.40191,-2.22891 -0.40203,-2.59913 -1.4e-4,-0.45105 -0.48515,-1.19303 -1.47005,-2.24896 -0.80841,-0.86671 -1.65286,-1.99255 -1.87656,-2.50187 -0.51702,-1.17717 -1.12912,-4.49762 -1.14619,-6.21771 -0.0164,-1.6561 -0.42238,-2.47343 -1.55783,-3.13657 l -0.88986,-0.5197 -2.68142,0.84517 c -3.4203,1.07808 -11.91371,3.0576 -20.5408,4.78737 -10.81228,2.1679 -13.4331,3.12824 -16.05884,5.88436 -0.90147,0.94624 -1.72446,2.0608 -1.82887,2.47681 -0.11799,0.4701 0.0862,2.262 0.53962,4.73447 0.4606,2.51189 0.81929,5.68463 0.9732,8.6083 0.13407,2.54661 0.46775,6.41614 0.74151,8.59895 0.27376,2.18282 0.40037,4.07242 0.28135,4.19911 -0.11902,0.1267 -0.29357,-0.34955 -0.3879,-1.05833 -0.0943,-0.70878 -0.33468,-2.18166 -0.53412,-3.27307 -0.7078,-3.87352 -0.94707,-5.74351 -1.32027,-10.31875 -0.21724,-2.66321 -0.66185,-5.86661 -1.04658,-7.54062 -0.36789,-1.60073 -0.66997,-3.29912 -0.67129,-3.7742 -0.003,-1.16605 -0.99897,-1.74597 -4.23198,-2.46474 -10.03461,-2.2309 -18.95133,-4.43196 -28.263259,-6.97665 -1.35445,-0.37014 -4.45008,-1.43443 -6.87917,-2.3651 -2.42909,-0.93067 -6.85924,-2.47589 -9.84477,-3.43382 -3.38393,-1.08576 -6.0225,-2.09954 -7.00617,-2.69188 -1.66426,-1.00216 -1.71127,-1.00475 -4.30048,-0.23648 -0.75339,0.22355 -0.2515,-0.43823 0.79375,-1.04663 1.9279,-1.12215 2.38551,-1.1278 3.80109,-0.0469 1.00128,0.76454 2.51116,1.36301 7.49081,2.96914 3.43021,1.10638 7.60596,2.5442 9.27945,3.19514 6.12808,2.38368 18.377499,5.73204 29.765629,8.13639 6.2217,1.31357 8.15422,1.79595 9.57755,2.39066 0.96069,0.4014 0.98695,0.39598 1.65245,-0.34097 1.0697,-1.18454 2.30796,-1.97536 5.57104,-3.55799 1.91143,-0.92706 3.92805,-1.67765 5.42395,-2.01879 3.27427,-0.74669 10.53623,-2.29382 13.89063,-2.95933 6.39398,-1.26856 12.96566,-2.93323 14.06841,-3.56367 0.81497,-0.46591 1.54562,-0.65558 2.53419,-0.65785 0.76399,-0.002 1.38538,-0.0925 1.38088,-0.20162 -0.0143,-0.34588 -2.2106,-1.86882 -2.96838,-2.05827 -1.34771,-0.33694 -0.79787,-0.83582 1.55485,-1.41075 1.25535,-0.30677 2.94268,-0.86002 3.74962,-1.22945 1.40848,-0.64482 1.5156,-0.65582 2.67848,-0.27509 0.66623,0.21813 3.91966,1.05111 7.22984,1.85107 3.31018,0.79996 6.39099,1.64709 6.84624,1.8825 0.79489,0.41106 0.87828,0.40051 2.10268,-0.26589 0.86783,-0.47233 2.2724,-0.85743 4.39855,-1.20596 3.90196,-0.63965 6.74794,-1.36534 9.46767,-2.41418 1.16247,-0.4483 2.2942,-0.85298 2.51496,-0.89929 0.22076,-0.0463 0.79349,-0.28354 1.27273,-0.52719 0.47924,-0.24365 1.01502,-0.47067 1.19063,-0.50449 0.1756,-0.0338 1.38951,-0.56375 2.69758,-1.17763 1.30807,-0.61389 2.87917,-1.24227 3.49134,-1.39642 1.11512,-0.28079 3.03118,-0.21256 3.80135,0.13536 0.28305,0.12787 1.06383,-0.3773 2.51354,-1.62626 1.15663,-0.99647 2.82124,-2.30894 3.69913,-2.91662 1.45776,-1.00906 1.67402,-1.08254 2.49411,-0.84734 0.49387,0.14164 1.66748,0.20818 2.60803,0.14786 1.55659,-0.0998 1.80335,-0.20029 2.74912,-1.1194 0.57146,-0.55536 1.46931,-1.72412 1.99521,-2.59725 0.5259,-0.87312 1.67128,-2.71859 2.5453,-4.10104 2.01125,-3.18123 2.59463,-4.70348 2.64272,-6.89587 0.0399,-1.81919 -0.44114,-3.16167 -1.54941,-4.324 -0.29104,-0.30524 -0.82682,-0.91197 -1.19063,-1.34828 -0.3638,-0.43632 -1.34149,-1.37762 -2.17265,-2.09178 -0.83116,-0.71415 -1.44921,-1.39876 -1.37345,-1.52135 0.0758,-0.12259 -0.0788,-0.22289 -0.34359,-0.22289 -0.26473,0 -0.78672,-0.28316 -1.15997,-0.62926 -1.1352,-1.05262 -4.44741,-2.48008 -8.03814,-3.46418 -1.87361,-0.51351 -3.56118,-0.93364 -3.75016,-0.93364 -0.49337,0 -4.05419,-1.18513 -5.41901,-1.80359 -1.77319,-0.8035 -4.53088,-1.90058 -4.77744,-1.90058 -0.12114,0 -0.82699,-0.29269 -1.56856,-0.65043 -2.03482,-0.98164 -4.14267,-1.52279 -5.23206,-1.34325 -0.52672,0.0868 -1.34128,0.20462 -1.81014,0.2618 -1.29599,0.15806 -1.39649,0.30989 -1.39649,2.10972 0,0.91823 -0.17418,2.66738 -0.38706,3.88698 -0.45707,2.61856 -1.89782,7.60487 -2.36082,8.1706 -0.17864,0.21828 -0.45702,0.70824 -0.61861,1.08879 -0.39753,0.93618 -2.29856,2.4522 -4.12141,3.28673 -1.50915,0.69091 -1.84145,0.98257 -1.94815,1.7099 -0.32346,2.20463 -1.0323,3.35747 -2.54556,4.14001 -1.14921,0.59428 -2.94052,0.34477 -3.86183,-0.53791 -0.89649,-0.85889 -1.22738,-0.86705 -1.76694,-0.0436 -0.50253,0.76695 -1.98338,1.69118 -2.82616,1.76386 -1.52061,0.13114 -2.12832,-0.0628 -2.99598,-0.95627 -1.26689,-1.30456 -1.4276,-2.34473 -0.74614,-4.82915 0.0903,-0.3293 0.0451,-0.59532 -0.10124,-0.59532 -0.1455,0 -1.85602,1.13726 -3.80117,2.52724 -3.59169,2.56658 -10.5986,6.34278 -11.28242,6.08037 -0.19332,-0.0742 -0.28944,-0.0345 -0.21359,0.0883 0.16488,0.26677 -2.88054,1.17975 -6.22022,1.86475 -2.2152,0.45436 -2.47549,0.57524 -3.2426,1.50587 -0.45873,0.55652 -0.83406,1.08203 -0.83406,1.16779 0,0.26519 -1.82558,3.2085 -2.3151,3.73255 -0.25466,0.27263 -0.46302,0.58818 -0.46302,0.70124 0,0.20927 -1.27615,1.96173 -2.86429,3.93335 -0.96884,1.20277 -3.41498,3.00484 -4.07881,3.00484 -0.23214,0 -0.68141,0.41961 -0.99836,0.93246 -0.72618,1.17497 -1.75579,1.71337 -3.27656,1.71337 -1.25521,0 -2.12975,-0.56527 -2.77973,-1.79672 l -0.31992,-0.6061 -1.38543,0.79266 c -1.67339,0.95742 -3.13934,1.22853 -4.56587,0.8444 -1.4533,-0.39133 -2.31978,-1.34903 -2.16635,-2.39442 0.0653,-0.44471 0.0335,-0.80857 -0.0707,-0.80857 -0.10415,0 -0.17282,-0.20835 -0.15261,-0.46302 0.029,-0.3657 -0.18568,-0.46902 -1.02159,-0.49156 -0.58208,-0.0157 -1.18894,-0.0455 -1.34858,-0.0661 -0.50735,-0.0657 -1.3996,-0.98273 -1.68398,-1.7307 -0.35182,-0.92535 -0.35538,-2.72374 -0.006,-2.93977 0.14789,-0.0914 0.21116,-0.25962 0.14058,-0.37381 -0.29407,-0.47581 4.7163,-4.7829 5.56387,-4.7829 0.54592,0 4.87456,-2.74474 4.87456,-3.0909 0,-0.24232 -0.15181,-0.34705 -0.37751,-0.26044 -0.20763,0.0797 -2.35621,0.2885 -4.77461,0.46404 -6.1095,0.44348 -17.13877,-0.17794 -21.17392,-1.19299 -0.14552,-0.0366 -0.8599,-0.15803 -1.5875,-0.26983 -2.01317,-0.30933 -6.437569,-1.38334 -8.069799,-1.95891 -2.62937,-0.9272 -3.0385,-0.94788 -3.39227,-0.17144 -0.17154,0.37649 -0.31189,0.72715 -0.31189,0.77924 0,0.0521 0.54324,0.41306 1.2072,0.80217 1.97947,1.16004 2.71595,3.06356 1.95732,5.05891 -0.35,0.92056 -1.94658,2.43584 -2.78942,2.64738 -0.79591,0.19976 -2.95246,-0.10113 -3.16267,-0.44127 -0.28837,-0.46659 -0.78329,-0.24774 -1.23502,0.54613 -0.27667,0.48621 -0.66584,0.79208 -1.0078,0.79208 -0.3064,0 -0.48464,0.11722 -0.39609,0.2605 0.0885,0.14328 -0.23184,0.50002 -0.71199,0.79276 -1.14185,0.69618 -3.66855,0.74359 -4.33087,0.0813 -0.24913,-0.24913 -0.62074,-0.47759 -0.8258,-0.50769 -0.47286,-0.0694 -1.14028,-0.61639 -1.14028,-0.93454 0,-0.13359 -0.25302,-0.58513 -0.56226,-1.0034 -0.52467,-0.70966 -0.65437,-0.751 -1.93969,-0.61834 -1.26884,0.13095 -1.42264,0.0847 -1.95127,-0.58738 -0.80151,-1.01896 -0.78054,-3.24125 0.0474,-5.02381 0.56976,-1.2267 0.58652,-1.3902 0.23035,-2.2481 -0.48582,-1.17019 -0.2893,-3.80449 0.33531,-4.49468 0.54546,-0.60273 0.96566,-3.38841 0.61263,-4.06139 -0.14006,-0.26698 -0.68218,-0.66405 -1.20471,-0.88238 -0.52254,-0.21833 -1.45342,-0.7738 -2.06862,-1.23438 -0.6152,-0.46057 -1.45801,-1.07553 -1.87291,-1.36657 -0.41489,-0.29104 -1.07001,-0.85659 -1.45582,-1.25677 -0.38581,-0.40018 -0.78534,-0.7276 -0.88784,-0.7276 -0.32845,0 -6.2159,-5.32707 -6.2159,-5.62425 0,-0.05 -0.66312,-0.77556 -1.4736,-1.61233 -0.81048,-0.83678 -1.63926,-1.90235 -1.84173,-2.36794 -0.20247,-0.46559 -0.37278,-0.74265 -0.37848,-0.61569 -0.006,0.12696 -0.17335,0.0956 -0.37257,-0.0698 -0.42301,-0.35107 -0.98252,-0.27204 -2.34569,0.33132 -0.54347,0.24055 -2.74612,0.78851 -4.89479,1.21769 -6.01547,1.20156 -9.71049,2.68163 -13.06749,5.2343 -3.40823,2.59162 -4.74168,3.08866 -9.34756,3.48431 -2.67072,0.22942 -3.09064,0.3446 -5.35521,1.46879 -1.3515,0.67092 -2.784,1.52266 -3.18336,1.89277 -0.39935,0.37011 -1.05551,0.86752 -1.45814,1.10535 -0.40263,0.23784 -0.79847,0.6417 -0.87965,0.89746 -0.0812,0.25576 -0.45426,0.70625 -0.82909,1.00108 -0.37483,0.29484 -0.61396,0.53607 -0.53142,0.53607 0.0825,0 -0.24638,0.58915 -0.73095,1.30921 -1.25816,1.86962 -1.92739,3.69634 -1.46,3.9852 0.59302,0.3665 -0.14055,1.00677 -0.97148,0.84793 -0.47636,-0.0911 -0.6404,-0.0387 -0.51485,0.16449 0.10134,0.16397 -0.0548,1.10396 -0.34702,2.08888 -0.58111,1.95874 -1.23094,6.47189 -1.49706,10.39723 -0.15849,2.33778 -0.11551,2.66588 0.64017,4.88727 3.60549,10.59862 3.52305,9.97821 2.51631,18.93757 -0.3295,2.93231 -0.34452,3.87957 -0.0818,5.15938 0.17698,0.8622 0.33569,1.8256 0.3527,2.1409 0.017,0.31529 0.0905,0.55346 0.16321,0.52926 0.0728,-0.0242 0.66771,0.53696 1.32212,1.24702 0.65441,0.71005 2.05658,1.94334 3.11593,2.74063 1.05935,0.79729 2.3031,1.99758 2.76388,2.6673 1.83556,2.6679 3.65593,4.23101 6.02723,5.17547 0.65485,0.26082 3.45282,1.5859 6.21771,2.94463 5.39553,2.65148 9.91383,4.22448 10.30702,3.58828 0.2157,-0.34901 1.34749,0.28697 2.01037,1.12967 0.68174,0.8667 2.34061,1.36891 6.20345,1.87806 1.60072,0.21099 4.27963,0.81362 5.95312,1.33918 1.67349,0.52556 4.23333,1.12515 5.68854,1.33242 2.7605,0.3932 4.47892,0.84702 8.46667,2.23598 2.67476,0.93164 7.62128,1.72129 9.32783,1.48908 0.70335,-0.0957 1.44792,-0.0144 1.98438,0.21672 0.51025,0.21983 2.79093,0.49261 5.62112,0.67232 2.61938,0.16633 5.89359,0.46915 7.27604,0.67294 2.875969,0.42396 6.097119,0.32525 9.296159,-0.28487 z m 65.66659,-44.35343 c -0.17063,-2.29479 -0.62628,-2.9809 -2.1869,-3.29303 l -0.88517,-0.17703 0.59062,0.79885 c 0.42797,0.57886 0.65758,1.40973 0.8338,3.01723 0.13376,1.22011 0.44718,3.11135 0.69649,4.20276 l 0.45331,1.98438 0.32459,-2.24896 c 0.17853,-1.23693 0.2565,-3.16482 0.17326,-4.2842 z m 68.69302,-4.54522 c 0.88517,-2.32817 1.66286,-10.83241 1.62421,-17.76121 -0.0252,-4.50916 -0.21504,-6.75282 -0.75018,-8.86354 l -0.23478,-0.92604 -0.18081,0.92807 c -0.21492,1.10317 -1.22738,3.08782 -2.46204,4.82616 -0.49076,0.69097 -1.36267,2.12345 -1.93756,3.1833 -0.95038,1.7521 -1.08102,2.23844 -1.43931,5.35828 -0.67102,5.84291 -0.67244,5.89742 -0.17065,6.54506 0.25159,0.32471 0.77955,1.1719 1.17325,1.88264 1.72819,3.11987 3.40365,5.45461 3.91435,5.45461 0.12375,0 0.33234,-0.2823 0.46352,-0.62733 z M 138.56688,193.8371 c 0.15403,-0.1856 0.31743,-0.92974 0.36312,-1.65365 0.0808,-1.28032 0.10644,-1.31737 0.94048,-1.35923 1.15697,-0.0581 2.42027,-0.88286 3.37756,-2.20517 0.43566,-0.6018 0.92338,-1.2388 1.08381,-1.41557 0.84152,-0.92722 5.08507,-7.77775 5.84331,-9.4331 0.78151,-1.70615 5.15409,-7.27583 5.46664,-6.96328 0.19405,0.19404 -0.23835,1.41952 -0.9915,2.81009 -0.81996,1.51391 -0.88856,2.30111 -0.20053,2.30111 0.86913,0 3.5421,-1.04109 3.90082,-1.51932 0.19186,-0.25578 0.60217,-1.53254 0.9118,-2.83725 0.59319,-2.49957 0.91477,-3.31635 1.3057,-3.31635 0.48559,0 0.58346,1.17995 0.26675,3.21586 -0.17935,1.15288 -0.26235,2.15988 -0.18445,2.23778 0.23134,0.23133 1.69237,-0.63072 2.2323,-1.31713 0.27539,-0.35011 0.79193,-1.37002 1.14784,-2.26646 0.35592,-0.89645 0.91073,-1.95183 1.23292,-2.34529 l 0.5858,-0.71539 0.01,1.37345 c 0.005,0.7554 -0.10955,1.44703 -0.25507,1.53697 -0.34938,0.21594 -0.34212,1.45521 0.009,1.45521 0.3359,0 3.61567,-2.14715 4.39694,-2.87852 0.53692,-0.50263 1.21369,-2.27968 1.95185,-5.12513 0.25327,-0.9763 0.44516,-1.25677 0.85984,-1.25677 0.50705,0 0.52515,0.11274 0.36095,2.24896 -0.0951,1.23693 -0.11217,2.24896 -0.038,2.24896 0.0742,0 0.97994,-0.44648 2.01277,-0.99219 2.201,-1.1629 3.05649,-1.94566 3.59363,-3.2881 0.54761,-1.36863 1.09383,-1.06417 1.19409,0.66558 l 0.0792,1.36575 2.68109,-0.0908 c 1.60086,-0.0543 2.74686,0.0155 2.84433,0.17326 0.0898,0.14527 -0.34361,0.56115 -0.96309,0.92418 -3.39847,1.99164 -6.0105,6.3905 -4.52616,7.62239 0.37999,0.31537 0.57685,0.19777 1.60673,-0.95979 0.64553,-0.72555 1.39049,-1.73591 1.65547,-2.24523 0.57282,-1.10104 1.46514,-1.96445 1.80997,-1.75133 0.13579,0.0839 0.50922,0.85405 0.82985,1.7114 0.59959,1.60329 1.44154,2.37648 2.25001,2.06624 0.71353,-0.27381 0.94904,-1.41873 0.77025,-3.74463 l -0.17003,-2.21208 0.7291,0.08 c 0.40101,0.044 0.82415,0.23383 0.94032,0.4218 0.64871,1.04963 3.74846,-0.40334 4.8017,-2.25073 1.38411,-2.42775 2.26541,-6.15136 2.58665,-10.92896 0.21692,-3.22597 0.0534,-6.72301 -0.33232,-7.10876 -0.0623,-0.0623 -0.19111,0.374 -0.28633,0.96948 -0.13539,0.8467 -0.50351,1.41614 -1.68888,2.61251 -1.28941,1.30138 -1.73376,1.57641 -2.97573,1.84183 l -1.45999,0.31202 -0.30911,1.30128 c -0.42563,1.79182 -0.97633,2.53222 -2.39379,3.2184 -1.08611,0.52578 -1.35856,0.55696 -2.59704,0.29718 l -1.38363,-0.29022 -1.25875,1.20609 -1.25874,1.20609 -1.92001,-0.14521 c -1.8314,-0.13851 -1.92695,-0.11752 -2.07059,0.45477 -0.0898,0.35782 -0.62213,0.85013 -1.31891,1.21977 -1.08498,0.57558 -1.24628,0.59408 -2.26093,0.25921 -1.00619,-0.33207 -1.17337,-0.3152 -2.11367,0.21328 -1.65295,0.929 -3.23667,0.64375 -5.13651,-0.92516 -0.41135,-0.3397 -0.87793,-0.61763 -1.03685,-0.61763 -0.15891,0 -1.60829,1.34638 -3.22084,2.99195 -6.00452,6.1275 -10.31455,9.14169 -16.56869,11.58721 -1.23102,0.48136 -2.29775,0.94986 -2.37051,1.04112 -0.0728,0.0913 -1.14432,0.49774 -2.38125,0.90328 -2.77721,0.91053 -3.97521,1.50856 -5.23744,2.61447 -0.53915,0.47238 -1.93277,1.46027 -3.09693,2.19531 -1.16417,0.73504 -2.94515,1.86144 -3.95773,2.50311 -1.01259,0.64167 -2.47924,1.78938 -3.25923,2.55047 -1.14413,1.1164 -1.40189,1.52541 -1.33394,2.11666 0.0749,0.65183 0.18729,0.73013 1.01625,0.70803 0.51261,-0.0137 1.40558,-0.31733 1.98438,-0.67481 2.55606,-1.5787 4.60797,-1.59626 3.35074,-0.0287 -1.41112,1.75948 -1.90668,2.67654 -2.06313,3.81794 -0.14609,1.06584 -0.10072,1.24106 0.35913,1.38701 0.70476,0.22369 1.73982,-0.19887 3.30939,-1.35105 1.4608,-1.07232 2.93917,-1.66489 3.67413,-1.4727 0.41787,0.10928 0.49188,0.39605 0.49188,1.90576 0,0.97742 0.0794,1.8565 0.17639,1.95352 0.29788,0.29788 1.33035,0.19563 1.62638,-0.16106 z m 94.91579,-6.6772 c -0.18533,-1.23584 -0.72705,-1.7702 -1.25717,-1.24008 -0.19988,0.19988 -0.0721,0.64068 0.43799,1.51111 0.3961,0.6759 0.78356,1.16553 0.86103,1.08807 0.0775,-0.0775 0.0586,-0.68906 -0.0419,-1.3591 z m 1.25393,-1.7166 c 0.15285,-0.58447 -0.007,-0.65338 -0.60583,-0.26054 -0.35277,0.23159 -0.35277,0.28948 0,0.52107 0.21829,0.14329 0.41276,0.26235 0.43217,0.26458 0.0194,0.002 0.0976,-0.23407 0.17366,-0.52511 z M 85.487951,183.78965 c 0.56462,-0.44596 1.79908,-2.47447 1.79908,-2.9563 0,-0.40101 0.97051,-1.21181 1.44794,-1.20966 0.14952,7.9e-4 0.63321,0.33997 1.07486,0.75399 1.64842,1.54529 2.88254,1.79284 3.31161,0.66428 0.20125,-0.52931 0.16688,-0.84702 -0.14271,-1.31952 -0.41345,-0.631 -2.19929,-1.68748 -2.85246,-1.68748 -0.19627,0 -0.56342,-0.15104 -0.81589,-0.33566 -0.43054,-0.31481 -0.41931,-0.41038 0.1808,-1.53904 1.14146,-2.14677 1.14134,-2.31628 -0.002,-2.7775 -2.35292,-0.9493 -8.4296,-3.94675 -8.81672,-4.34901 -0.0729,-0.0757 -0.44674,-0.27553 -0.83083,-0.44402 -0.65782,-0.28856 -0.7077,-0.25947 -0.85989,0.50148 -0.31115,1.55577 -0.16514,4.87025 0.27093,6.15005 l 0.4325,1.26931 -0.81053,0.63434 c -0.44579,0.34888 -1.06878,1.05218 -1.38442,1.56289 -0.53911,0.87231 -0.5479,0.96821 -0.14503,1.58307 0.59652,0.91041 1.35349,0.82701 3.34378,-0.36843 0.93669,-0.56261 1.98797,-1.11181 2.33616,-1.22044 0.61599,-0.19217 0.62869,-0.16633 0.47048,0.95679 -0.54386,3.8607 -0.54282,3.73358 -0.0337,4.10586 0.60965,0.44578 1.47952,0.45652 2.02585,0.025 z m 45.719909,-10.24929 c 1.81901,-0.32592 3.42636,-0.61839 3.57188,-0.64995 0.14552,-0.0316 1.51474,-0.46256 3.04271,-0.95777 1.52796,-0.49521 2.91081,-0.90415 3.07299,-0.90875 0.16218,-0.005 0.45983,-0.1367 0.66146,-0.29357 0.20162,-0.15686 1.14049,-0.59206 2.08638,-0.96711 3.38741,-1.34313 8.00339,-3.73254 10.51291,-5.44191 3.29138,-2.24192 9.59542,-8.13696 9.59542,-8.97287 0,-0.12538 -0.3839,-0.74999 -0.85311,-1.38803 -0.73417,-0.99831 -0.86349,-1.41136 -0.92752,-2.96254 -0.044,-1.0668 0.0328,-1.80248 0.18833,-1.80248 0.14451,0 0.55403,0.46142 0.91004,1.02537 0.68684,1.08803 1.86795,2.14963 2.39161,2.14963 0.42692,0 1.23435,0.93895 2.0723,2.40986 0.65561,1.15084 1.68548,2.08806 2.29446,2.08806 0.52798,0 0.26634,-1.5181 -0.53961,-3.13094 -0.84084,-1.68267 -0.9231,-2.55577 -0.24121,-2.5601 0.46702,-0.003 1.58388,0.909 1.58388,1.2933 0,0.46176 2.38784,3.85348 2.90946,4.13264 1.71287,0.9167 2.66568,-0.63184 1.34082,-2.17916 -0.2276,-0.26583 -0.38406,-0.53899 -0.34768,-0.60703 0.0364,-0.068 -0.17198,-0.36184 -0.46302,-0.65288 -0.38806,-0.38806 -0.52917,-0.88194 -0.52917,-1.85208 0,-1.99939 0.58612,-1.7754 3.89787,1.4896 1.93402,1.90672 3.07109,2.47465 3.7108,1.85342 0.33532,-0.32562 0.30378,-0.38664 -1.85259,-3.58448 -0.53517,-0.79366 -0.60395,-1.89442 -0.14691,-2.35146 0.38389,-0.38389 1.53458,-0.42357 1.53458,-0.0529 0,0.14552 0.14117,0.26459 0.3137,0.26459 0.17254,0 0.85715,0.45798 1.52136,1.01775 0.66421,0.55976 1.59461,1.21766 2.06755,1.462 0.47294,0.24434 0.85989,0.5678 0.85989,0.71881 0,0.151 0.38696,0.23724 0.8599,0.19164 0.66895,-0.0645 0.87929,-0.21984 0.94724,-0.69956 0.0993,-0.70103 -0.91816,-2.32558 -2.38495,-3.80803 -0.71983,-0.7275 -0.96865,-1.19775 -0.95157,-1.79836 0.0417,-1.46535 1.40788,-1.70733 3.70418,-0.65605 0.79475,0.36385 2.23905,0.8575 3.20957,1.097 1.67446,0.41321 1.79146,0.41111 2.29115,-0.0411 0.28961,-0.2621 0.52657,-0.63187 0.52657,-0.8217 0,-0.73021 -1.99699,-2.08844 -4.43177,-3.01423 -0.97806,-0.37189 -1.08044,-0.77491 -0.36203,-1.42507 0.65097,-0.58912 1.76811,-0.88033 4.60234,-1.19969 2.59807,-0.29275 3.71083,-0.71032 3.85244,-1.44565 0.11771,-0.61117 -1.16872,-1.72569 -2.00734,-1.73909 -0.32742,-0.005 -0.59531,-0.13561 -0.59531,-0.28971 0,-0.15411 -0.11084,-0.2117 -0.2463,-0.12798 -0.2539,0.15692 -0.66436,-0.31461 -0.68112,-0.78245 -0.005,-0.14552 0.27248,-0.56224 0.61709,-0.92604 0.34461,-0.3638 0.77937,-1.00907 0.96613,-1.43393 0.29718,-0.67609 0.27813,-0.8384 -0.15273,-1.30087 -0.69935,-0.75067 -1.75034,-0.65195 -3.30862,0.31078 -0.74269,0.45884 -1.71624,0.90744 -2.16345,0.99688 -0.76451,0.1529 -0.82986,0.10159 -1.0937,-0.85877 -0.15433,-0.56176 -0.31187,-1.31904 -0.3501,-1.68284 -0.048,-0.45664 -0.25304,-0.68754 -0.66225,-0.74567 -0.75466,-0.10722 -1.03266,0.52269 -1.36878,3.10142 -0.27688,2.12429 -0.54126,2.55342 -1.79455,2.91286 -0.87215,0.25013 -1.40329,-0.0263 -1.40329,-0.7303 0,-0.21062 -0.25408,-1.07977 -0.56461,-1.93146 -0.41324,-1.13335 -0.69699,-1.54852 -1.05834,-1.54852 -0.44857,0 -0.49371,0.23894 -0.49371,2.61344 0,2.87044 -0.0565,2.98728 -1.65555,3.42367 -1.18786,0.32417 -1.67393,-0.0217 -1.92715,-1.37152 -0.0901,-0.48051 -0.4347,-1.21327 -0.76569,-1.62837 l -0.60179,-0.75472 -0.45918,0.70079 c -0.26841,0.40964 -0.47675,1.28205 -0.50147,2.0999 -0.0394,1.30272 -0.0904,1.40468 -0.74085,1.48002 -1.10671,0.1282 -3.79635,-0.67802 -5.63663,-1.68956 -2.17653,-1.19637 -2.44993,-1.51791 -2.00211,-2.35466 0.47677,-0.89085 0.19226,-2.33494 -0.84612,-4.2946 -0.77898,-1.47013 -0.8284,-1.68578 -0.46888,-2.04608 0.60967,-0.61098 2.2282,-0.0825 2.82108,0.9212 0.25466,0.4311 0.54058,0.78382 0.63539,0.78382 0.0948,0 0.4707,0.44649 0.83531,0.99219 0.36462,0.54571 0.97006,1.31961 1.34544,1.71979 0.83458,0.88973 1.90486,0.97278 2.1163,0.16424 0.16279,-0.62249 -0.435,-2.35692 -1.18777,-3.44623 -0.78975,-1.14281 -0.56165,-2.3404 0.44578,-2.3404 0.33545,0 1.42403,0.46808 2.41908,1.04017 2.08704,1.19993 3.18423,1.42706 3.62167,0.74972 0.44296,-0.68586 -0.41734,-2.08426 -1.83257,-2.97882 -1.32816,-0.83952 -1.53947,-1.61881 -0.50908,-1.87742 0.85926,-0.21566 1.73065,0.0153 3.64962,0.96742 1.89038,0.93792 2.3035,0.96777 2.3035,0.16646 0,-0.79816 -1.35952,-2.03559 -3.0955,-2.8175 -1.54488,-0.69584 -1.83742,-1.10775 -1.18613,-1.67015 0.74307,-0.64166 1.6235,-0.7142 3.86186,-0.31817 1.17676,0.20819 2.33518,0.38073 2.57428,0.38341 0.50709,0.006 0.82958,-0.66912 0.62612,-1.31016 -0.21778,-0.68616 -2.21351,-1.55243 -3.96935,-1.72295 -2.4062,-0.23367 -2.58185,-0.74577 -0.60221,-1.75571 1.1019,-0.56215 2.29098,-0.57922 5.65634,-0.0812 0.97684,0.14455 1.10343,0.0991 1.24634,-0.44736 0.10915,-0.41738 -0.0465,-0.87781 -0.49612,-1.46724 -0.62534,-0.81985 -1.79874,-1.32989 -4.15261,-1.80497 -0.55631,-0.11228 -0.7276,-0.29979 -0.7276,-0.79648 0,-1.05329 1.20808,-1.48179 4.65651,-1.65162 2.3668,-0.11656 3.0919,-0.24397 3.41398,-0.59986 0.6378,-0.70477 0.23365,-1.20369 -1.40335,-1.73242 -2.64594,-0.85461 -3.31051,-2.03319 -1.63501,-2.89963 0.70503,-0.36458 2.57138,-0.85971 3.9637,-1.05153 1.70086,-0.23433 1.94833,-0.90238 0.6836,-1.84536 -0.59947,-0.44696 -1.07443,-0.53164 -2.75451,-0.4911 -1.11657,0.0269 -2.44518,0.22446 -2.95246,0.43892 -0.90481,0.38253 -1.8558,0.20859 -1.8558,-0.33942 0,-0.38806 1.66316,-2.132858 2.03306,-2.132858 0.19151,0 0.34819,-0.116795 0.34819,-0.259543 0,-0.142748 0.29766,-0.334248 0.66146,-0.425558 0.3638,-0.09131 0.66146,-0.272169 0.66146,-0.401916 0,-0.129743 0.17859,-0.235899 0.39688,-0.235899 0.21828,0 0.39687,-0.100981 0.39687,-0.224402 0,-0.123417 0.48348,-0.44242 1.07441,-0.70889 1.27345,-0.574246 1.76362,-1.294447 1.27869,-1.878756 -0.44318,-0.534 -1.2706,-0.30267 -3.50082,0.978776 -2.04866,1.177123 -2.96241,1.315344 -3.22505,0.487844 -0.12124,-0.381997 0.0157,-0.760071 0.44519,-1.229233 1.69662,-1.853268 3.17683,-3.121279 4.91977,-4.214473 1.05502,-0.661726 1.91823,-1.366351 1.91823,-1.565831 0,-0.39738 -1.49256,-1.281874 -1.63291,-0.967668 -0.0478,0.106979 -0.56313,0.445132 -1.14522,0.751448 -0.58208,0.306316 -1.62142,0.880668 -2.30964,1.276337 -1.32587,0.762267 -2.32057,0.737761 -2.32057,-0.05717 0,-0.476437 1.06183,-1.46985 2.63076,-2.461249 0.54917,-0.347019 1.4023,-1.214588 1.89585,-1.927931 0.49354,-0.713343 1.16524,-1.583497 1.49266,-1.93367 0.80846,-0.864635 0.78919,-1.670963 -0.0399,-1.670963 -0.53938,0 -3.19451,1.735222 -4.34459,2.839341 -0.4678,0.449109 -1.10558,0.426514 -1.10558,-0.03917 0,-0.206153 -0.14743,-0.423971 -0.32763,-0.484037 -0.24491,-0.08164 -0.17713,-0.571564 0.26841,-1.940277 0.36486,-1.120844 0.59457,-2.477373 0.59222,-3.497347 -0.003,-1.459434 -0.0907,-1.746821 -0.70393,-2.315104 -0.85974,-0.796782 -2.19865,-0.863454 -2.85156,-0.141994 -0.54901,0.606639 -1.46733,3.43734 -1.49556,4.60997 -0.0269,1.116449 -0.55955,2.436704 -0.98026,2.429571 -0.18642,-0.0032 -1.03677,-0.759852 -1.88968,-1.681536 -1.19732,-1.293873 -1.69292,-1.655667 -2.1746,-1.587499 -0.4026,0.05698 -0.65284,0.291674 -0.70555,0.661736 -0.0817,0.573682 0.90541,2.778723 1.83261,4.09367 0.27083,0.384101 0.5269,0.919882 0.56903,1.190625 0.0421,0.27074 0.16331,0.631095 0.26928,0.800782 0.25463,0.407744 -0.19754,1.564463 -0.68464,1.751381 -0.2117,0.08124 -0.51848,0.01413 -0.68173,-0.149122 -0.16326,-0.163256 -0.29683,-0.201147 -0.29683,-0.08421 0,0.11694 -0.42002,-0.156173 -0.93339,-0.606917 -2.31238,-2.030299 -4.88744,-2.513841 -4.88744,-0.91776 0,0.457538 0.59881,1.21214 2.08285,2.624743 3.24116,3.085139 4.37994,5.9369 2.37077,5.9369 -0.44705,0 -0.7116,-0.111778 -0.61903,-0.261554 0.0899,-0.14551 -0.007,-0.196789 -0.21875,-0.115583 -0.23128,0.08875 -0.83301,-0.337629 -1.53509,-1.087747 -1.4938,-1.596011 -2.36466,-2.054846 -3.2565,-1.71577 -0.37198,0.141428 -0.67633,0.444778 -0.67633,0.674114 0,0.229335 0.88287,1.409289 1.96193,2.622121 2.03487,2.28713 2.93652,3.683719 2.66347,4.125523 -0.31033,0.502135 -2.01783,0.245116 -3.56707,-0.536937 -1.77369,-0.895358 -3.70417,-1.092346 -3.70417,-0.377976 0,0.544454 0.27328,0.79357 2.71198,2.472208 1.12779,0.77629 2.05052,1.52266 2.05052,1.65859 0,0.13594 0.10908,0.17975 0.24238,0.0974 0.31742,-0.19617 2.10014,1.90378 2.90057,3.41674 l 0.62941,1.18968 -0.7617,1.51959 c -1.5478,3.08786 -5.02177,5.85712 -7.90545,6.30178 -2.12237,0.32727 -2.58097,-1.04305 -0.63622,-1.90108 0.5682,-0.25069 1.0331,-0.57125 1.0331,-0.71236 0,-0.14111 -0.32388,-0.80281 -0.71973,-1.47044 -3.19447,-5.38764 -3.53376,-6.497 -2.37083,-7.75182 0.33749,-0.36415 0.77751,-0.71674 0.97783,-0.78351 0.28699,-0.0957 0.24178,-0.31953 -0.21322,-1.05574 -0.3176,-0.51388 -0.48974,-1.03122 -0.38253,-1.14964 0.10722,-0.11841 0.0461,-0.12965 -0.13579,-0.025 -0.1819,0.10468 -0.33073,0.0751 -0.33073,-0.0656 0,-0.14077 -0.54232,-0.921697 -1.20516,-1.735402 -0.66284,-0.813705 -1.10933,-1.483082 -0.99219,-1.487508 0.11714,-0.0044 0.002,-0.130805 -0.25561,-0.280845 -0.25772,-0.15004 -0.39953,-0.384543 -0.31512,-0.521121 0.0844,-0.136578 -0.0198,-0.248322 -0.23167,-0.248322 -0.21183,0 -1.25503,-0.897114 -2.31822,-1.993587 -1.06319,-1.096473 -2.56248,-2.479167 -3.33174,-3.072654 -0.80386,-0.620168 -1.3256,-1.206979 -1.22685,-1.37985 0.0945,-0.165431 0.0765,-0.214624 -0.04,-0.109318 -0.26771,0.241967 -1.72509,-0.601294 -1.72509,-0.998164 0,-0.162653 -0.15305,-0.295733 -0.34012,-0.295733 -0.61554,0 -3.8825,-2.063832 -3.90903,-2.469443 -0.0149,-0.228606 -0.0785,-0.268841 -0.14983,-0.0949 -0.0822,0.200287 -0.67271,0.03611 -1.75371,-0.487531 -4.04683,-1.960312 -7.35395,-3.058076 -11.83897,-3.929825 -13.5972,-2.64287 -29.82858,-1.142947 -43.656249,4.034224 -6.60534,2.473084 -14.03169,7.343497 -20.37292,13.361153 -1.69492,1.608426 -2.31148,1.991346 -2.90377,1.803356 -1.3382,-0.42473 -4.14798,-4.836841 -4.63799,-7.282898 -0.41483,-2.070732 -0.46428,-2.979261 -0.15166,-2.786051 0.2163,0.13368 0.25588,-0.01156 0.13472,-0.494321 -0.13885,-0.553204 -0.0768,-0.683628 0.32492,-0.683628 0.34821,0 0.68081,-0.426948 1.11356,-1.429411 0.42743,-0.990172 0.95443,-1.671707 1.71499,-2.217897 0.60387,-0.433668 1.18724,-0.802462 1.29638,-0.819546 0.10914,-0.01709 0.21147,-0.120359 0.22741,-0.2295 0.0159,-0.109141 0.43982,-0.653195 0.94196,-1.209008 1.45868,-1.614588 0.62494,-2.36869 -1.24829,-1.129049 -0.56882,0.376426 -1.12955,0.684411 -1.24606,0.684411 -0.11652,0 -0.38348,0.238125 -0.59325,0.529167 -0.20977,0.291042 -0.58649,0.529167 -0.83716,0.529167 -0.25066,0 -0.62441,0.240792 -0.83055,0.535093 -0.60432,0.862798 -1.22417,0.423566 -0.97312,-0.68957 0.27054,-1.199544 0.68665,-1.806144 2.63482,-3.840972 2.32103,-2.424285 2.23514,-2.297107 1.85809,-2.751426 -0.18115,-0.218281 -0.53519,-0.396875 -0.78674,-0.396875 -0.56964,0 -2.863,1.195848 -3.59593,1.875065 -0.30043,0.278402 -0.75394,0.506185 -1.00781,0.506185 -0.26733,0 -0.38615,0.122049 -0.28234,0.290017 0.11128,0.180063 -0.008,0.254273 -0.31511,0.195737 -0.96684,-0.184396 -0.71205,-1.171168 0.7517,-2.911274 1.66459,-1.978882 3.71183,-5.190405 3.57341,-5.605661 -0.0536,-0.160816 -0.75425,0.402122 -1.55699,1.250969 -0.99703,1.054309 -1.61942,1.511741 -1.96412,1.443569 -0.75779,-0.149865 -0.61332,-1.791026 0.25824,-2.933703 0.3808,-0.49925 0.69236,-0.985509 0.69236,-1.080579 0,-0.09507 0.40542,-0.738672 0.90093,-1.430234 1.2711,-1.774013 1.35032,-2.703428 0.28969,-3.39838 -0.61663,-0.404035 -0.71076,-0.401333 -1.38906,0.03989 -0.40018,0.260311 -1.15849,0.956374 -1.68512,1.546805 -0.82548,0.92547 -1.01562,1.025294 -1.37882,0.723868 -0.23171,-0.192305 -0.50283,-0.606782 -0.60249,-0.921065 -0.41619,-1.312542 -1.4291,-2.555793 -2.08226,-2.555793 -1.28334,0 -1.45646,1.336723 -0.54829,4.233333 0.34857,1.111761 0.39106,1.62387 0.18003,2.169832 -0.36356,0.940578 -1.13794,0.797812 -2.40999,-0.444309 -0.52482,-0.512474 -1.1721,-0.931773 -1.4384,-0.931773 -0.3638,0 -0.10746,0.429091 1.03109,1.725909 0.85654,0.975619 1.74188,2.322327 2.03657,3.097866 0.48474,1.275747 0.49027,1.394648 0.0788,1.695503 -0.46552,0.340391 -1.05161,0.233643 -1.71396,-0.312179 -0.81434,-0.671066 -2.916,-1.444599 -3.92492,-1.444599 -1.17047,0 -2.33437,0.752763 -2.10163,1.359257 0.0809,0.210841 1.35091,0.897372 2.82224,1.525625 1.47133,0.628253 2.67514,1.248198 2.67514,1.377656 0,0.129458 0.16254,0.235378 0.3612,0.235378 0.19865,0 0.6746,0.246526 1.05765,0.547833 0.58313,0.458695 0.64972,0.635167 0.40921,1.084557 -0.22432,0.419147 -0.4705,0.507383 -1.12379,0.402791 -0.46011,-0.07366 -1.31281,-0.211937 -1.89489,-0.307277 -1.52206,-0.249298 -3.59779,0.06636 -4.36563,0.663879 -0.86791,0.675397 -0.48398,0.926084 1.73573,1.133364 2.48227,0.231799 4.32161,1.434814 4.11676,2.692562 -0.11902,0.730731 -0.399,0.852707 -2.04431,0.890637 -1.74893,0.04032 -3.38074,0.749893 -3.49062,1.517854 -0.0729,0.509458 0.0856,0.56828 1.95717,0.726487 1.12006,0.09468 2.16778,0.274828 2.32827,0.400331 0.16049,0.1255 0.58945,0.305078 0.95325,0.399058 1.00108,0.258606 1.74264,1.008485 1.93159,1.953268 0.22572,1.128582 -0.388,1.491728 -1.63495,0.967427 -1.74949,-0.735607 -3.7385,-0.362958 -4.89734,0.917541 -0.62032,0.685448 -0.43849,0.761278 2.1161,0.882488 1.45587,0.06908 2.09118,0.233252 2.81081,0.726353 1.16994,0.801656 1.5993,1.479775 1.37814,2.1766 -0.15467,0.487315 -0.30243,0.523994 -1.40164,0.347938 -2.0438,-0.327348 -2.50038,-0.32562 -3.79249,0.01437 -0.68246,0.179564 -1.32662,0.249854 -1.43148,0.156196 -0.10486,-0.09365 -0.10501,-0.02146 -2.7e-4,0.160446 0.10468,0.181901 0.0727,0.330729 -0.071,0.330729 -0.14372,0 -0.4572,0.195895 -0.69663,0.435325 -0.66222,0.662225 -0.0207,0.908645 1.8737,0.719658 2.71632,-0.270989 5.46847,0.821002 5.26094,2.087424 -0.0418,0.25535 0.0325,0.39716 0.16528,0.31511 0.42239,-0.26104 0.25946,0.41438 -0.22166,0.91893 -0.31067,0.32579 -1.04268,0.54587 -2.22465,0.66885 -1.22175,0.12711 -1.90055,0.33678 -2.21491,0.68414 -0.85742,0.94745 -0.357,1.24103 2.31456,1.35788 2.04905,0.0896 2.62798,0.21344 3.32781,0.71177 0.68711,0.48926 0.79833,0.69465 0.58847,1.08677 -0.31847,0.59506 -1.61027,1.06832 -2.91611,1.06832 -2.12961,0 -4.00006,2.42663 -1.91786,2.48813 0.47295,0.014 0.85991,-0.0639 0.8599,-0.17303 -4e-5,-0.34248 1.96006,-0.21642 3.43213,0.22074 0.77634,0.23055 1.87933,0.71449 2.45108,1.07542 l 1.03957,0.65625 0.83807,-0.99641 c 1.40181,-1.66663 1.73555,-1.94254 2.155,-1.78159 0.58048,0.22276 0.49615,0.82252 -0.21577,1.53443 -0.76964,0.76965 -2.54088,4.39535 -3.43443,7.03022 -1.20132,3.54245 -1.61601,6.36576 -1.61279,10.98021 0.006,9.31141 1.89621,14.28874 8.33761,21.96042 2.25719,2.6883 8.43972,8.59895 8.99449,8.59895 0.10123,0 0.57471,0.36493 1.05217,0.81095 0.47746,0.44601 1.2342,0.999 1.68163,1.22886 0.44743,0.22986 1.46835,0.8551 2.26872,1.38943 8.95481,5.97829 22.243529,10.53119 33.998949,11.6485 4.57643,0.43497 5.49647,0.46845 10.98021,0.39959 3.95854,-0.0497 5.92914,-0.2027 8.46667,-0.65735 z m -32.146869,-21.1949 c -3.56841,-0.70522 -7.53421,-2.24772 -7.07665,-2.75248 0.10862,-0.11982 0.0626,-0.14086 -0.10215,-0.0468 -0.39739,0.22693 -1.7392,-0.84243 -1.51409,-1.20667 0.0988,-0.15987 0.0526,-0.20818 -0.10565,-0.11039 -0.36528,0.22575 -1.42124,-1.03985 -2.21401,-2.65356 -0.47562,-0.96814 -0.64876,-1.82671 -0.71936,-3.56711 -0.14864,-3.66401 0.97766,-6.74923 3.31381,-9.07737 2.23444,-2.22679 4.71284,-2.86416 8.85219,-2.27651 5.077989,0.7209 9.581229,2.40343 11.522929,4.30526 2.88179,2.82262 3.26981,8.02956 0.93981,12.61169 -1.0935,2.15047 -2.36117,3.37839 -4.45124,4.31167 -1.03726,0.46317 -1.89334,0.59578 -4.21226,0.65249 -1.60073,0.0391 -3.505729,-0.0465 -4.233329,-0.19027 z m 6.879169,-1.15596 c 0.43656,-0.12056 1.10978,-0.43997 1.49605,-0.70979 0.38626,-0.26982 0.91212,-0.49058 1.16858,-0.49058 0.25645,0 0.39256,-0.0737 0.30248,-0.16379 -0.17919,-0.17919 0.43482,-0.88797 0.7843,-0.90535 0.11954,-0.006 0.66995,-0.92868 1.22314,-2.05052 1.20626,-2.44622 1.35557,-4.38739 0.42817,-5.56639 -0.30272,-0.38485 -0.68968,-0.70779 -0.8599,-0.71764 -0.50244,-0.0291 -1.87279,-0.66185 -2.04828,-0.9458 -0.20919,-0.33847 -3.06901,-0.75038 -5.27267,-0.75944 -3.687169,-0.0152 -7.537479,0.88154 -8.676619,2.02067 -0.21895,0.21895 -0.61864,0.34043 -0.88819,0.26994 -0.26954,-0.0705 -0.42284,-0.0194 -0.34066,0.11361 0.0822,0.13298 -0.0665,0.3224 -0.33036,0.42093 -0.26389,0.0985 -0.63537,0.39534 -0.82552,0.65959 -0.19016,0.26424 -0.51339,0.48044 -0.7183,0.48044 -0.20491,0 -0.5,0.23813 -0.65576,0.52917 -0.15577,0.29104 -0.20491,0.52916 -0.10921,0.52916 0.0957,0 0.0269,0.17729 -0.15296,0.39397 -0.17983,0.21667 -0.40782,0.34399 -0.50664,0.28291 -0.37777,-0.23347 -0.23999,1.00496 0.20395,1.83326 0.47856,0.89289 1.19464,1.7232 1.48613,1.7232 0.0909,0 0.56117,0.31585 1.04498,0.70188 0.4838,0.38604 0.95997,0.67412 1.05814,0.64017 0.0982,-0.0339 0.47325,0.13141 0.83349,0.36745 0.36024,0.23603 0.76245,0.36273 0.89381,0.28155 0.13135,-0.0812 0.31863,-0.0185 0.41616,0.13933 0.0975,0.15782 0.31911,0.23254 0.49239,0.16605 0.17327,-0.0665 0.54118,0.0444 0.81755,0.24654 0.27638,0.20209 0.98577,0.38153 1.57642,0.39875 0.59065,0.0172 1.424439,0.10651 1.852869,0.19843 1.07867,0.23144 4.34638,0.17743 5.30646,-0.0877 z m 23.75585,-14.70712 c -4.20406,-1.97137 -4.98558,-7.76614 -1.46435,-10.85781 3.64456,-3.19997 8.61796,-2.52614 10.72472,1.45305 0.8126,1.53482 0.80938,4.60661 -0.006,6.14819 -1.67278,3.16082 -6.12034,4.72598 -9.25391,3.25657 z m 1.76621,-7.52234 c 1.48689,-0.7689 2.35349,-2.7157 1.65982,-3.72875 -0.62138,-0.90747 -2.44054,-0.42471 -3.6023,0.95596 -0.82807,0.9841 -0.88588,1.9133 -0.16396,2.63521 0.63124,0.63124 1.09343,0.66143 2.10644,0.13758 z M 76.771701,124.8008 c -1.65552,-0.84756 -2.53606,-2.27255 -2.66609,-4.31454 -0.1338,-2.10129 0.23365,-3.21406 1.55824,-4.71887 3.81215,-4.33083 10.57896,-0.90719 9.51668,4.81493 -0.67937,3.65953 -5.13476,5.89468 -8.40883,4.21848 z m 1.7329,-6.56787 c 1.05609,-0.64388 1.71458,-2.00344 1.32391,-2.7334 -0.39343,-0.73514 -2.26117,-0.43763 -3.05636,0.48684 -1.71494,1.99374 -0.47984,3.59536 1.73245,2.24656 z m 123.507979,27.13389 c 0.8889,-0.20963 2.35516,-0.50016 3.25837,-0.64562 3.35414,-0.54017 13.56815,-4.8026 15.04331,-6.27776 0.19831,-0.19831 0.47869,-0.36056 0.62307,-0.36056 0.47684,0 5.35874,-3.64222 6.98167,-5.20878 3.37351,-3.25636 5.91793,-6.7602 8.00518,-11.02368 3.02692,-6.18287 3.55274,-14.01636 1.37905,-20.54463 -1.4273,-4.286599 -2.73364,-6.649048 -5.53424,-10.008396 -1.65757,-1.988272 -5.57627,-5.178126 -5.92853,-4.825867 -0.14565,0.14565 0.24806,1.288894 0.99182,2.879981 0.67834,1.451147 1.48914,3.674618 1.80179,4.941049 0.51007,2.066139 0.53588,2.49248 0.25136,4.151659 -0.4633,2.701804 -1.4477,4.553824 -3.51484,6.612784 -3.03647,3.02444 -6.64629,4.36259 -13.46481,4.99135 -4.20187,0.38747 -11.04463,0.20364 -14.94786,-0.40157 -1.7372,-0.26936 -2.67557,-0.31758 -2.73458,-0.14055 -0.0494,0.14824 -0.19737,0.20308 -0.3288,0.12185 -0.13142,-0.0812 -0.17423,0.021 -0.0951,0.22715 0.17125,0.44627 -1.22181,1.6889 -2.48822,2.21954 -0.67159,0.2814 -0.83819,0.47777 -0.69557,0.8198 0.84964,2.03753 0.12262,4.56965 -1.57442,5.48357 -0.86494,0.4658 -0.94793,0.61168 -0.94793,1.66627 0,1.43813 -0.66363,2.60408 -1.78594,3.13778 -0.79091,0.3761 -0.8599,0.50908 -0.8599,1.65757 0,1.49255 0.14464,1.68951 0.89023,1.2123 0.55403,-0.35459 1.33097,-0.49219 2.44996,-0.43388 0.30913,0.0161 0.99825,0.42883 1.53138,0.91715 l 0.96933,0.88788 1.43367,-0.39905 c 1.32315,-0.36828 1.53088,-0.36192 2.6945,0.0825 0.69345,0.26483 1.82353,1.00787 2.51129,1.65119 1.00187,0.93712 1.31046,1.44119 1.55218,2.53538 0.25374,1.14857 0.23446,1.49193 -0.12124,2.15947 -0.38832,0.72875 -0.38788,0.81542 0.005,1.05834 1.21647,0.75157 1.70656,1.31365 1.95728,2.24474 0.56619,2.10267 -0.70215,4.75583 -2.66149,5.56742 l -0.76784,0.31805 0.52461,0.66693 c 0.28853,0.36681 0.52461,0.79202 0.52461,0.94492 0,0.29797 1.04953,1.50532 1.30289,1.49882 0.0838,-0.002 0.87959,-0.17543 1.76849,-0.38507 z M 52.229741,139.93496 c -0.0899,-0.14552 -0.0672,-0.26539 0.0505,-0.26639 0.11773,-10e-4 0.4832,-0.39714 0.81215,-0.88033 0.57145,-0.83938 0.58324,-0.96016 0.26459,-2.71017 -0.30714,-1.6868 -0.28474,-4.92976 0.0821,-11.88375 l 0.0836,-1.58545 -0.97395,-0.15831 c -1.01681,-0.16527 -2.30344,-1.27878 -2.30344,-1.99349 0,-0.22036 0.12267,-0.62987 0.27261,-0.91003 0.20071,-0.37502 0.16402,-0.71937 -0.13909,-1.30552 -0.48836,-0.94439 -0.70648,-0.97522 -1.70043,-0.24036 -0.71998,0.5323 -0.78099,0.5366 -1.4445,0.10186 -0.80832,-0.52963 -0.73761,-0.30277 -0.82343,-2.64201 -0.11432,-3.11592 -1.74766,-6.63338 -2.51864,-5.42396 -0.13915,0.21828 -0.25861,0.69453 -0.26547,1.05833 -0.007,0.3638 -0.17545,0.87641 -0.37466,1.13913 -0.33942,0.44763 -0.49874,0.38523 -2.53316,-0.99219 -2.656,-1.79825 -3.41042,-1.88696 -3.77579,-0.44398 -0.12849,0.50742 0.0548,0.81427 0.94839,1.5875 2.7505,2.3801 3.44182,3.18493 3.09485,3.60301 -0.20826,0.25094 -0.78927,0.3982 -1.5711,0.3982 -1.21482,0 -2.39875,0.66469 -2.39875,1.34672 0,0.35205 1.55743,0.99295 2.78201,1.14483 1.45883,0.18094 3.78405,0.96763 4.1448,1.40231 0.20929,0.25218 0.23306,0.51759 0.0693,0.77382 -0.3194,0.49978 -3.28856,1.71115 -3.66676,1.49598 -0.15766,-0.0897 -0.20396,-0.0712 -0.10288,0.041 0.10107,0.11228 -0.17713,0.50782 -0.61823,0.87898 -1.04473,0.87907 -0.78466,1.00635 2.55113,1.24851 3.17346,0.23038 3.51798,0.28953 3.99574,0.68604 0.71682,0.5949 0.41074,1.23386 -0.88689,1.85144 -2.01361,0.95836 -2.87457,1.83216 -2.85823,2.9009 0.0131,0.85497 0.0645,0.90783 0.79885,0.8212 0.76998,-0.0908 2.65569,-0.76476 4.25762,-1.52163 0.78296,-0.36992 1.77551,-0.3872 2.1257,-0.037 0.27755,0.27754 0.3403,1.88337 0.0904,2.31268 -0.12707,0.21828 -0.23466,0.30708 -0.23909,0.19734 -0.0183,-0.45299 -3.44763,3.59062 -3.44763,4.06514 0,1.34546 1.81905,0.71015 3.82652,-1.33643 1.68439,-1.71722 3.0663,-1.78941 2.83144,-0.14792 -0.0898,0.62757 -1.37632,3.28226 -1.68233,3.47138 -0.25103,0.15515 -0.2816,1.20169 -0.0525,1.79864 0.0883,0.23019 0.45255,0.41852 0.80937,0.41852 0.36513,0 0.57727,-0.11567 0.48524,-0.26459 z m 2.57013,-26.18341 c 1.28427,-0.38492 1.43249,-0.68301 0.60818,-1.22312 -1.19842,-0.78524 -3.57518,0.019 -3.57518,1.2097 0,0.8291 0.24188,0.83019 2.967,0.0134 z m 114.759859,-3.25148 c 1.07293,-1.14206 1.27826,-1.82244 0.65581,-2.17315 -0.26771,-0.15083 -1.17819,-0.95886 -2.0233,-1.7956 -1.55287,-1.5375 -2.46308,-1.8916 -2.77473,-1.07944 -0.21366,0.5568 2.48734,5.90809 2.98204,5.90809 0.19378,0 0.71586,-0.38696 1.16018,-0.8599 z m 43.93355,-2.69618 c 5.08105,-0.7364 7.83862,-1.86166 10.60329,-4.3268 1.37083,-1.2223 2.29938,-2.54695 2.82032,-4.023378 0.40363,-1.143934 0.42874,-4.016396 0.0471,-5.390798 -0.15656,-0.563845 -0.32334,-1.226015 -0.37061,-1.471488 -0.1154,-0.599236 -1.21751,-2.927297 -1.38579,-2.927297 -0.0735,0 -0.0561,0.625078 0.0387,1.389063 0.22106,1.781357 -0.24377,5.049879 -0.91551,6.437529 -0.75184,1.553088 -3.16462,3.911279 -4.84101,4.731459 -2.33446,1.14215 -4.86018,1.44488 -14.37814,1.72337 -8.60951,0.25191 -8.79029,0.26845 -9.39271,0.85908 -0.33783,0.33121 -0.89362,0.78319 -1.23509,1.00439 -0.60847,0.39416 -0.61111,0.41372 -0.13229,0.98133 0.40762,0.4832 0.94848,0.62815 3.265,0.87496 1.52705,0.1627 2.82681,0.34618 2.88837,0.40774 0.27742,0.27742 10.70854,0.0613 12.98831,-0.26916 z M 66.053461,96.45973 c 0.54612,-0.482524 1.3813,-1.146472 1.85596,-1.475441 1.11623,-0.773629 0.86018,-1.203452 -0.56551,-0.949294 -0.60019,0.106995 -1.47637,0.233715 -1.94708,0.281596 -1.02415,0.104185 -1.9223,0.547119 -1.9223,0.948013 0,0.431692 1.06383,2.072442 1.34374,2.072442 0.13323,0 0.68906,-0.394793 1.23519,-0.877316 z m -2.57893,-3.429585 c 0,-0.54379 1.28829,-1.944478 2.48304,-2.699668 1.25644,-0.794189 1.42686,-1.037137 0.939,-1.338649 -0.61938,-0.382796 -2.08083,-0.139631 -3.12593,0.520113 -0.87868,0.554686 -1.20561,0.638024 -1.62416,0.414023 -0.81905,-0.438346 -0.8023,0.425659 0.0502,2.587593 0.44427,1.126704 0.61961,1.336246 0.91381,1.092081 0.20023,-0.166175 0.36405,-0.425146 0.36405,-0.575493 z m 24.75177,-9.158414 c 0.30207,-0.283797 5.47844,-2.391008 6.60136,-2.687299 0.43656,-0.115189 1.56765,-0.411226 2.51354,-0.657857 1.04734,-0.273084 2.03015,-0.733735 2.51354,-1.17811 0.758989,-0.697733 1.769069,-1.111419 2.910419,-1.191985 0.29104,-0.02053 1.00541,-0.194977 1.5875,-0.387631 0.58208,-0.192653 1.21706,-0.393059 1.41106,-0.445346 1.28499,-0.346332 -1.40246,-1.402657 -3.59388,-1.412603 -1.25279,-0.0057 -1.43511,-0.364199 -0.66145,-1.300736 0.50194,-0.607624 2.22947,-1.124104 5.35714,-1.601621 2.21251,-0.337796 2.48638,-0.485545 2.03338,-1.096981 -0.51395,-0.6937 -1.93735,-1.298077 -3.14696,-1.336201 -1.47423,-0.04646 -2.06075,-0.365276 -2.06075,-1.120159 0,-1.044752 1.38097,-1.788707 3.96875,-2.138034 2.17403,-0.293478 3.04271,-0.557162 3.04271,-0.923613 0,-0.546989 -1.64221,-1.028395 -3.58511,-1.050962 -0.96835,-0.01124 -1.87311,-0.160221 -2.05052,-0.337629 -0.55566,-0.555657 -0.34444,-1.210194 0.57363,-1.777587 0.72258,-0.44658 1.32308,-0.550746 3.175,-0.550746 1.76349,0 2.28387,-0.08304 2.28387,-0.36448 0,-0.470008 -0.38837,-0.749273 -1.85208,-1.331777 -2.74487,-1.092356 -2.82622,-1.14418 -2.80177,-1.784924 0.013,-0.340924 0.3213,-0.932807 0.6851,-1.3153 2.41227,-2.536195 2.93585,-3.224627 2.85958,-3.759954 -0.18845,-1.322673 -2.4895,-0.589893 -4.45206,1.417781 -1.01397,1.03728 -1.31794,0.606541 -1.31794,-1.867625 0,-1.924518 -0.0332,-2.036419 -0.69395,-2.337469 -0.56708,-0.258379 -0.80896,-0.24084 -1.32292,0.09592 -0.59266,0.388323 -0.62896,0.564462 -0.62896,3.051841 0,2.370373 -0.0488,2.639735 -0.4786,2.639735 -0.46759,0 -1.723459,-0.768697 -1.283049,-0.785336 0.12249,-0.0046 -0.32451,-0.540258 -0.99335,-1.190292 -2.13586,-2.07582 -2.80038,-0.591886 -0.98957,2.209792 0.55986,0.866217 1.16684,2.106779 1.34884,2.756807 0.28635,1.022745 0.27212,1.271577 -0.10566,1.848144 -0.24011,0.366448 -0.59342,0.64325 -0.78513,0.615111 -0.19172,-0.02814 -1.07489,-0.760836 -1.9626,-1.628214 -1.95839,-1.913525 -2.16149,-2.083255 -2.77183,-2.316334 -0.68267,-0.26071 -0.36322,0.639548 0.60189,1.696212 0.80395,0.880213 1.98219,3.116281 2.23031,4.232682 0.10585,0.476269 -0.01,0.88047 -0.37194,1.297794 l -0.52566,0.606095 -1.30377,-1.099355 c -0.71707,-0.604647 -1.37653,-1.099357 -1.46546,-1.099357 -0.0889,0 -0.48428,-0.227451 -0.87857,-0.505449 -0.99016,-0.698119 -3.18089,-0.989854 -3.38762,-0.45112 -0.16953,0.441778 0.6506,1.728894 1.10997,1.742006 0.43904,0.01254 2.78381,2.652213 2.60824,2.936296 -0.084,0.135858 -0.0138,0.247017 0.15584,0.247017 0.16967,0 0.24143,0.174781 0.15946,0.388401 -0.082,0.213622 -0.0332,0.459975 0.1083,0.547449 0.14154,0.08748 0.18764,0.271825 0.10245,0.409665 -0.0852,0.13784 -0.26572,0.182118 -0.40119,0.09839 -0.13546,-0.08372 -0.2463,-0.02614 -0.2463,0.127977 0,0.154109 -0.18562,0.280199 -0.41249,0.280199 -0.24442,0 -0.33557,-0.12446 -0.2237,-0.305465 0.11244,-0.181927 0.073,-0.233923 -0.0974,-0.128569 -0.15742,0.09729 -0.88762,-0.06015 -1.62267,-0.349882 -2.36675,-0.932889 -2.86673,-0.04329 -0.99509,1.770568 0.63059,0.611121 1.16765,1.264208 1.19347,1.4513 0.21567,1.562947 0.23146,3.294899 0.0331,3.633737 -0.15237,0.260313 -0.24329,0.289547 -0.24839,0.07987 -0.004,-0.181901 -0.29895,-0.330729 -0.6545,-0.330729 -0.35555,0 -0.80204,-0.22174 -0.99219,-0.492758 -0.39522,-0.563292 -2.57766,-1.623909 -3.34153,-1.623909 -0.28121,0 -0.66259,0.182316 -0.84752,0.405146 -0.27803,0.334994 -0.24928,0.470971 0.16604,0.785333 0.27625,0.209106 0.63837,0.383977 0.8047,0.388607 0.16633,0.0046 0.37385,0.194554 0.46115,0.422058 0.0873,0.227505 0.27132,0.344064 0.40892,0.259019 0.13761,-0.08505 0.37295,0.05624 0.52299,0.31396 0.15004,0.257723 0.27642,0.363231 0.28085,0.234466 0.004,-0.128765 0.24874,0.07188 0.54292,0.445873 0.29419,0.373997 0.50702,0.777007 0.47296,0.895578 -0.0341,0.118573 0.0751,0.461885 0.2425,0.762918 0.81881,1.472155 -0.41481,2.147882 -1.79737,0.984528 -0.63869,-0.537419 -1.13877,-0.712558 -2.06604,-0.723575 -1.03681,-0.01233 -1.22339,0.06327 -1.22339,0.495594 0,0.335801 0.25453,0.578202 0.74481,0.709324 0.40965,0.109556 1.13634,0.497826 1.61488,0.862824 0.78089,0.595617 1.0945,1.115809 1.57596,2.614076 0.15737,0.489741 1.19995,0.634513 1.63383,0.226872 z"
       id="path445" /></g></svg>
