<?xml version="1.0" encoding="UTF-8" standalone="no"?>
<!-- Created with Inkscape (http://www.inkscape.org/) -->

<svg
   width="190.93163mm"
   height="178.45854mm"
   viewBox="0 0 190.93161 178.45855"
   version="1.1"
   id="svg5"
   xml:space="preserve"
   xmlns="http://www.w3.org/2000/svg"
   xmlns:svg="http://www.w3.org/2000/svg"><defs
     id="defs2" /><g
     id="layer1"
     transform="translate(20.458818,-59.678551)"><path
       style="fill:#000000;stroke-width:0.264583"
       d="m 39.286198,237.97714 c -10.31864,-0.87113 -19.23769,-3.58035 -23.94479,-7.27339 -0.87313,-0.68503 -1.55774,-1.35446 -1.52136,-1.48763 0.0364,-0.13317 -0.0373,-0.21236 -0.16377,-0.17598 -0.34098,0.0981 -2.35449,-2.64633 -3.05734,-4.16719 -0.6550301,-1.41737 -1.2106601,-3.65581 -1.2106601,-4.87733 0,-0.71617 -0.0691,-0.75837 -1.52135,-0.92944 -5.09874,-0.60059 -9.55725,-2.88495 -13.03389,-6.67806 -9.4388199,-10.29798 -9.8018299,-28.99528 -0.71767,-36.96392 1.71873,-1.50768 4.31554,-2.89533 6.44755999,-3.44537 1.99007001,-0.51342 5.58594001,-0.54348 7.44131001,-0.0622 l 1.37711,0.35722 1.0382001,-2.14316 c 1.13345,-2.33978 2.69567,-4.11666 4.91378,-5.58896 1.54295,-1.02415 4.199,-2.27886 5.89506,-2.7848 0.61846,-0.18449 1.12448,-0.42411 1.12448,-0.53249 0,-0.10837 -0.61052,-0.78556 -1.3567,-1.50487 l -1.35671,-1.30783 -1.10555,1.10555 c -0.74147,0.74147 -1.49276,1.20119 -2.28132,1.39595 -1.95049,0.48173 -2.87559,0.0887 -4.40108,-1.87007 l -0.57811,-0.74229 -1.09078,0.72184 c -2.2354901,1.47938 -5.2079201,1.05202 -6.3923601,-0.91908 -0.31861,-0.53021 -0.61754,-1.01303 -0.66431,-1.07294 -0.0468,-0.0599 -0.65116,0.19253 -1.34311,0.56095 -1.64638001,0.8766 -2.76323001,1.06485 -4.18847,0.70597 -1.44798,-0.36461 -2.90153,-1.8878 -3.32991,-3.48947 l -0.3037,-1.13548 -1.3715,0.24859 c -1.85933,0.33702 -3.4579899,0.0488 -4.9696899,-0.89607 -2.02885,-1.26807 -3.17208,-3.64074 -2.66664,-5.53437 0.26597,-0.99645 0.25991,-1.00838 -0.73589,-1.44773 -1.52923,-0.67469 -3.04969,-2.56383 -3.42952,-4.26108 -0.2806,-1.25386 -0.25602,-1.61662 0.20473,-3.02192 0.50407,-1.5374 0.50581,-1.61312 0.0467,-2.0286 -1.44029,-1.30344 -1.90931,-3.97124 -1.11039,-6.31594 0.52532,-1.54173 2.31549,-3.43614 3.49108,-3.69434 0.45905,-0.10082 1.06036,-0.51056 1.35356,-0.92232 0.64539,-0.90636 2.03903,-1.59989 3.21497,-1.59989 0.95406,0 3.1438499,0.74248 3.1438499,1.06597 0,0.11018 0.1786,0.26886 0.39688,0.35263 0.30895,0.11855 0.39687,-0.0658 0.39687,-0.83205 0,-0.90044 -0.10417,-1.0396 -1.22233,-1.63278 -2.4542399,-1.30197 -3.3688399,-4.03729 -2.1460099,-6.41813 l 0.6403,-1.24666 -0.77688,-0.73772 c -2.21793,-2.10615 -2.37344,-5.72548 -0.30426,-7.08126 0.54729,-0.3586 0.5987,-0.50443 0.34496,-0.97855 -0.16749,-0.31294 -0.24916,-1.23499 -0.18633,-2.10358 0.0885,-1.22354 0.27732,-1.75084 0.90433,-2.52554 1.1146999,-1.37724 1.9344599,-1.92805 3.1492999,-2.116037 0.71303,-0.11034 1.31122,-0.44023 1.85601,-1.02352 1.59024,-1.70267 4.58041,-1.877 6.64394999,-0.38735 0.68739001,0.49622 1.67799001,2.095977 1.67931001,2.711977 5.3e-4,0.26694 0.20015,0.46302 0.47128,0.46302 0.25867,0 0.75379,0.19856 1.10029,0.44126 l 0.62998,0.44126 -0.1913,-0.90428 c -0.46994,-2.221427 -0.47618,-2.668797 -0.0523,-3.750997 0.48783,-1.24554 1.03946,-1.98053 1.97397,-2.6301 l 0.6236,-0.43347 -0.78276,-0.40478 c -1.15063,-0.59501 -2.39738,-2.13751 -2.5998,-3.21654 -0.32706,-1.743386 -0.002,-3.710999 0.78181,-4.739252 0.71807,-0.941438 2.41192,-2.001017 3.19885,-2.001017 0.32262,0 0.25807,-0.231349 -0.29975,-1.074259 -0.83793,-1.2662 -1.10952,-3.394125 -0.62181,-4.87191 0.60135,-1.822103 2.55872,-3.542652 4.1712701,-3.666596 0.66825,-0.05136 0.68935,-0.107881 0.72652,-1.94596 0.0925,-4.572595 3.96645,-8.404092 6.94164,-6.865559 l 0.81076,0.419259 0.41271,-1.031473 c 1.09302,-2.731714 4.3841,-4.079419 7.70832,-3.156566 1.32017,0.366498 3.24589,2.236391 3.47309,3.3724 0.14029,0.701416 0.28449,0.828998 0.93702,0.828998 0.42417,0 1.23583,0.237027 1.80368,0.526725 2.50682,1.278882 3.61281,4.657957 2.39939,7.33072 l -0.50419,1.110567 1.17786,0.690274 c 0.64783,0.379651 1.10661,0.805579 1.01951,0.946507 -0.0871,0.140928 -0.0157,0.223517 0.15869,0.183534 0.54342,-0.124606 1.55877,2.191207 1.56691,3.573817 0.0139,2.360646 -1.17938,4.195267 -3.49828,5.378441 -0.69122,0.352685 -1.25677,0.682578 -1.25677,0.733095 0,0.05052 0.48378,0.427111 1.07507,0.836871 1.45205,1.006274 2.45249,2.755924 2.42991,4.249624 -0.01,0.63951 0.0352,1.16274 0.0996,1.16274 0.0644,0 0.69605,-0.29334 1.40355,-0.65185 4.00297,-2.028461 12.00652,-4.380964 18.14291,-5.332792 3.98102,-0.617503 15.05634,-0.700066 18.78542,-0.140036 8.1362,1.221886 14.35058,2.983942 20.992,5.952178 l 3.152862,1.4091 -0.4911,-1.08132 c -1.048622,-2.30889 -0.25634,-5.405827 1.63289,-6.382783 0.72251,-0.373623 0.85239,-0.916246 0.21931,-0.916246 -0.53951,0 -1.90141,-1.231371 -2.513072,-2.272205 -1.17153,-1.993556 -0.70102,-4.874728 1.016702,-6.225788 l 0.54441,-0.428202 -0.75261,-0.986729 c -0.878812,-1.152176 -1.178492,-3.43576 -0.657892,-5.013184 0.498852,-1.511523 2.550722,-3.443044 3.976292,-3.743063 l 1.19062,-0.250571 0.17743,-1.607172 c 0.18661,-1.690349 0.91818,-3.286572 1.88926,-4.122161 1.87602,-1.614281 4.69258,-2.199565 6.95867,-1.446016 1.27045,0.422465 3.00316,1.907937 3.35689,2.877904 0.21704,0.595141 0.50475,0.583187 1.56813,-0.06516 2.64176,-1.61068 6.22979,0.506058 7.17414,4.232344 0.33697,1.32961 0.4273,1.448077 1.04664,1.372581 2.70834,-0.330136 5.40988,4.434472 4.43725,7.825835 -0.22405,0.781211 -0.18136,0.894741 0.46302,1.231405 2.94808,1.540248 3.76163,5.445419 1.63148,7.831338 l -0.71505,0.800905 0.99575,0.995746 c 1.93323,1.933231 1.94008,4.616282 0.0172,6.744662 -0.85064,0.94155 -0.88963,1.05258 -0.455,1.29581 0.69508,0.38899 1.74378,2.82363 1.7439,4.0486 1.4e-4,1.410397 -1.28667,3.661177 -2.3664,4.139117 -0.76246,0.3375 -1.07683,0.75567 -0.56809,0.75567 0.51122,0 1.38804,2.44605 1.31318,3.66336 -0.0671,1.09174 -0.01,1.23007 0.57748,1.39379 1.27877,0.35649 1.44365,0.26327 1.92339,-1.08748 0.88954,-2.50456 2.95868,-3.63897 5.17843,-2.8391 0.92359,0.33281 1.24932,0.36174 1.33012,0.11811 0.26582,-0.80152 2.10435,-2.27656 3.20988,-2.57528 2.25962,-0.61053 4.85861,0.46828 5.9326,2.46256 0.3312,0.615 0.74958,0.98291 1.22612,1.07822 1.22998,0.246 2.77964,1.96604 3.24937,3.60665 0.42595,1.4877 0.29137,3.04737 -0.32727,3.79278 -0.20431,0.24619 -0.10346,0.68824 0.37071,1.62484 0.35826,0.70766 0.65138,1.69175 0.65138,2.18688 0,1.14809 -1.14092,3.10638 -2.15932,3.70627 -0.64025,0.37714 -0.75642,0.58606 -0.62538,1.12465 0.0885,0.3638 0.22863,1.20601 0.31138,1.87157 0.24422,1.96458 -0.97501,3.86988 -3.01788,4.71606 -0.72993,0.30235 -0.74748,0.3561 -0.64444,1.97422 0.0802,1.25951 0.006,1.76347 -0.30621,2.07553 -0.22666,0.22666 -0.35511,0.46913 -0.28543,0.5388 0.15206,0.15207 -1.78143,1.9347 -2.27793,2.1002 -0.19442,0.0648 -0.26226,0.25648 -0.15324,0.43289 0.14299,0.23135 0.49397,0.14508 1.30362,-0.32041 0.60937,-0.35034 1.48494,-0.71546 1.94571,-0.81138 1.10583,-0.23019 2.78623,0.24248 3.75247,1.05552 0.44347,0.37315 1.11394,0.65449 1.55972,0.65449 0.99368,0 2.80308,1.20698 3.62691,2.41937 1.01104,1.48787 1.56183,3.49558 1.38005,5.03044 -0.1654,1.39657 -1.16444,3.39464 -1.99062,3.98123 -0.27419,0.19467 -0.56322,0.8506 -0.66856,1.51728 -0.29508,1.86748 -1.15175,3.11132 -2.79876,4.06363 -1.32175,0.76424 -1.67724,0.84743 -3.62117,0.84743 h -2.15553 l -0.11378,1.37201 c -0.15327,1.84819 -1.02971,3.09173 -2.79182,3.96114 -1.22717,0.60548 -1.63164,0.67356 -3.34756,0.56344 -1.3485,-0.0865 -2.25063,-0.30161 -2.91878,-0.69582 -0.53188,-0.31381 -1.01031,-0.57056 -1.06319,-0.57056 -0.0529,0 -0.17993,0.38148 -0.28234,0.84774 -0.24852,1.13151 -1.71993,2.52048 -2.90575,2.74294 -1.5703,0.29459 -3.23679,-0.0326 -4.65456,-0.91398 l -1.32677,-0.82477 -0.87301,0.92567 c -0.48422,0.51341 -1.25164,1.00139 -1.7232,1.0957 -0.62703,0.12541 -0.81295,0.28178 -0.70831,0.59576 0.69262,2.07839 0.791,2.72529 0.52256,3.43646 -0.23862,0.63217 -0.18476,0.91472 0.33947,1.78075 0.35483,0.58617 0.62368,1.45013 0.62445,2.00666 l 0.001,0.97731 1.23488,-0.54624 c 0.99079,-0.43828 1.60528,-0.52221 3.10885,-0.42466 2.13197,0.13832 3.45253,0.71168 4.05437,1.76031 0.33589,0.58526 0.71485,0.77931 1.99821,1.0232 2.79223,0.53065 5.06859,3.09362 5.09549,5.73707 0.009,0.86862 0.23055,1.75948 0.62715,2.51997 0.51546,0.9884 0.59346,1.4562 0.48816,2.92785 -0.12079,1.68825 -0.0992,1.76653 0.59894,2.16718 0.51236,0.29405 1.02351,0.36205 1.74712,0.23244 2.00277,-0.35875 3.7813,0.42964 4.57934,2.02993 0.31768,0.63702 0.64207,0.86648 1.41365,0.99994 1.83336,0.31713 3.36426,2.11039 3.36426,3.94082 0,0.68834 0.16364,1.0403 0.6239,1.34187 0.98184,0.64333 1.59435,2.27842 1.41639,3.78101 l -0.15146,1.27888 1.72161,1.83582 c 3.94865,4.21058 6.72738,8.24716 8.13513,11.81766 0.38594,0.97886 0.89707,2.96986 1.13584,4.42443 0.39965,2.43473 0.40049,2.81538 0.0105,4.79482 -1.00911,5.12212 -4.39361,7.91187 -9.18776,7.57322 -2.10483,-0.14867 -2.74268,-0.3311 -9.36697,-2.67903 -6.85395,-2.42934 -12.31344,-3.31932 -22.99245,-3.74812 l -4.44587,-0.17851 -0.7135,0.65245 c -1.21094,1.10733 -5.34283,3.70782 -8.13923,5.12259 -2.99296,1.51422 -6.40233,2.67335 -8.59463,2.92202 -3.19702,0.36264 -5.55645,-1.69683 -5.13832,-4.4851 l 0.1762,-1.17499 -1.28272,-0.11969 c -0.705472,-0.0658 -2.473322,-0.25101 -3.928532,-0.41152 -1.45521,-0.16051 -4.25005,-0.42306 -6.21075,-0.58343 -3.85392,-0.31523 -3.55912,-0.38733 -4.50085,1.10076 -0.21606,0.34142 -1.23354,1.4542 -2.26106,2.47285 -3.76518,3.73265 -10.69099,6.22434 -21.42317,7.70739 -3.35358,0.46342 -18.81746,0.71322 -22.88646,0.36971 z m 22.225,-4.0084 c 13.27371,-1.61564 20.69176,-5.17939 22.42267,-10.77222 0.40916,-1.32207 0.46379,-2.74034 0.46379,-12.0422 V 200.6107 l -1.5741,-0.11847 c -0.86575,-0.0652 -1.99684,-0.32114 -2.51354,-0.56887 -0.6856,-0.3287 -1.36841,-0.41638 -2.52695,-0.32446 -6.62392,0.5255 -9.84864,-0.41994 -11.55507,-3.38779 -0.64287,-1.11809 -0.77879,-1.60561 -0.65695,-2.35641 0.16926,-1.04305 1.1311,-2.18954 2.55473,-3.04518 0.50932,-0.30612 0.95987,-0.57966 1.00122,-0.60787 0.0413,-0.0282 -0.44825,-0.57307 -1.088,-1.21082 -1.47837,-1.47375 -1.7653,-2.03999 -1.7653,-3.4837 0,-1.39067 1.18958,-3.25443 2.24652,-3.51971 0.36514,-0.0916 0.66389,-0.25393 0.66389,-0.36064 0,-0.65869 4.74218,-1.083 7.48594,-0.66983 l 1.26823,0.19098 -0.15574,-2.34686 c -0.13711,-2.06597 -0.0913,-2.45007 0.383,-3.20918 0.93054,-1.48944 1.98023,-1.95592 4.18159,-1.8583 l 1.91823,0.0851 v -0.97715 c 0,-2.01902 -0.57257,-3.60608 -1.80186,-4.99445 -2.27564,-2.5701 -6.58293,-4.38527 -13.47647,-5.6792 -3.06001,-0.57436 -8.89127,-1.20808 -9.08799,-0.98763 -0.0946,0.106 -0.2419,0.99192 -0.32736,1.96871 l -0.15538,1.776 0.84901,0.12487 c 0.46696,0.0687 2.45228,0.32926 4.41182,0.57906 1.95955,0.24981 4.40033,0.67515 5.42396,0.9452 1.02363,0.27005 2.14508,0.55497 2.49211,0.63315 0.97918,0.22058 2.07782,0.85645 2.48556,1.43858 0.20379,0.29095 0.45387,0.44566 0.55573,0.3438 0.10186,-0.10186 0.25389,0.0775 0.33785,0.39856 0.19285,0.73743 0.76605,0.73847 1.94302,0.004 1.17243,-0.73211 1.48806,-0.78443 1.88041,-0.31167 1.10126,1.32694 -3.5612,4.08269 -9.9502,5.88107 -7.1074,2.0006 -13.36996,2.68376 -24.60217,2.68376 -14.36971,0 -24.73126,-1.91288 -27.98474,-5.16637 -0.82199,-0.82199 -0.9602,-1.98332 -0.30112,-2.53031 0.36153,-0.30004 0.48087,-0.27741 0.79375,0.15047 0.20254,0.27698 0.36824,0.57126 0.36824,0.65397 0,0.0827 0.24952,0.30619 0.55448,0.49665 0.50249,0.3138 0.63625,0.25075 1.42642,-0.67239 1.08215,-1.26424 2.97806,-2.31581 5.19068,-2.87901 0.93058,-0.23687 1.88671,-0.53338 2.12473,-0.65891 0.62681,-0.33059 6.65702,-1.48889 8.82765,-1.69564 1.01865,-0.097 2.05167,-0.23162 2.29562,-0.29908 0.42116,-0.11648 2.07001,-3.23869 2.07001,-3.91972 0,-0.35863 0.17528,-0.37163 -5.29167,0.39243 -9.02981,1.262 -16.05532,3.64831 -19.32764,6.56487 -2.15321,1.91913 -2.89369,3.57072 -3.18553,7.10512 -0.27866,3.37489 -0.27825,31.16976 5.3e-4,39.89646 0.1866,5.83981 0.22464,6.16017 0.9424,7.9375 0.41137,1.01864 0.81928,1.91161 0.90646,1.98437 0.0872,0.0728 0.69287,0.72761 1.34598,1.45521 0.6531,0.72761 1.42701,1.45896 1.71979,1.62522 0.29278,0.16627 1.27793,0.71052 2.18922,1.20943 0.91129,0.49892 1.56613,1.00705 1.45521,1.12918 -0.11093,0.12213 -0.0726,0.14858 0.0853,0.0588 0.15782,-0.0898 1.64611,0.30536 3.30729,0.87813 4.99599,1.72262 12.45978,2.94321 19.95366,3.26312 4.29325,0.18328 12.55903,-0.13925 16.80104,-0.65557 z m 47.679712,-4.7486 c 2.81911,-0.94968 8.07327,-3.63502 10.15672,-5.19096 0.4503,-0.33629 0.89542,-0.61144 0.98916,-0.61144 0.17412,0 0.63528,-0.35241 2.19075,-1.67413 0.48421,-0.41145 1.00595,-0.67049 1.15941,-0.57564 0.15346,0.0948 0.24631,0.0577 0.20632,-0.0825 -0.04,-0.14021 1.05839,-1.37705 2.44084,-2.74852 2.45282,-2.43334 3.62844,-3.79825 4.56017,-5.29444 1.02463,-1.64535 1.87954,-0.30815 1.15759,1.81064 -0.50514,1.48252 -2.53983,4.59266 -3.00578,4.59452 -0.1819,7.9e-4 -0.33073,0.11574 -0.33073,0.25559 0,0.13985 -0.25922,0.49578 -0.57606,0.79096 -0.92985,0.86628 -1.26785,0.80911 7.05835,1.19389 3.25049,0.15021 8.78209,0.91515 11.78362,1.62951 1.08609,0.25849 3.82018,1.10968 6.07576,1.89153 5.54998,1.92381 6.49315,2.17054 8.31113,2.17419 2.18825,0.004 3.58826,-0.83954 4.49314,-2.70848 2.03628,-4.20575 0.54255,-9.55621 -4.56133,-16.33838 -0.82134,-1.0914 -1.64278,-2.1417 -1.82543,-2.334 -0.18265,-0.19229 -0.3321,-0.46018 -0.3321,-0.59531 0,-0.13513 -0.14882,-0.21592 -0.33073,-0.17954 -0.1819,0.0364 -0.3144,-0.14093 -0.29445,-0.39403 0.0199,-0.25309 -0.0573,-0.40236 -0.1716,-0.3317 -0.11433,0.0707 -0.48785,-0.17898 -0.83003,-0.55476 -1.80639,-1.98377 -5.75928,-5.47803 -11.47006,-10.13926 -1.30969,-1.06899 -2.47646,-2.10689 -2.59284,-2.30646 -0.11637,-0.19957 -0.32997,-0.36285 -0.47467,-0.36285 -0.14469,0 -1.12104,-0.66003 -2.16966,-1.46672 -6.08902,-4.68425 -12.63006,-9.56547 -15.40033,-11.49243 -1.74625,-1.21467 -3.47266,-2.46263 -3.83646,-2.77324 -0.3638,-0.31061 -0.98687,-0.72693 -1.38459,-0.92516 -0.39773,-0.19823 -0.9583,-0.5795 -1.24571,-0.84727 -0.28741,-0.26777 -0.59256,-0.48685 -0.6781,-0.48685 -0.0856,0 -1.30024,-0.78157 -2.69932,-1.73683 -1.39908,-0.95525 -3.13636,-2.03711 -3.86063,-2.40413 -1.31094,-0.6643 -1.31996,-0.66501 -2.00811,-0.15852 -2.23372,1.64408 -6.46571,3.04068 -9.34174,3.08287 -2.427282,0.0356 -2.817342,-0.41373 -0.965332,-1.11205 6.250572,-2.35686 12.320002,-6.32413 17.283612,-11.29738 1.45239,-1.45521 2.73231,-2.61607 2.84427,-2.57969 0.17935,0.0583 0.21291,-0.0417 0.20059,-0.59736 -0.002,-0.0739 0.41508,-0.74209 0.92604,-1.4849 0.51096,-0.7428 0.92902,-1.42761 0.92902,-1.5218 0,-0.0942 0.2402,-0.32126 0.53377,-0.50459 0.47595,-0.29724 0.56399,-0.25398 0.81277,0.39937 0.15345,0.403 0.38489,1.2902 0.51431,1.97157 0.37519,1.9752 2.26306,4.18511 3.57524,4.18511 0.4974,0 0.90968,-0.839 0.93404,-1.90083 0.0533,-2.32436 1.30473,-3.73219 2.6245,-2.95259 0.77397,0.4572 1.45234,1.75642 1.22559,2.3473 -0.10001,0.26064 0.0208,0.38945 0.36532,0.38945 0.28312,0 0.70045,0.2834 0.92741,0.62979 0.51119,0.78016 2.71053,1.4894 3.02763,0.97634 0.11173,-0.1808 0.27076,-1.22263 0.35339,-2.31518 0.24562,-3.24774 1.50124,-3.89099 3.76713,-1.92988 2.17647,1.88372 3.72818,2.43659 5.23294,1.86448 0.8694,-0.33055 1.06725,-1.32187 0.56126,-2.81223 -0.48424,-1.4263 -0.21529,-2.47789 0.76839,-3.00434 0.78702,-0.4212 1.24471,-0.41568 3.9916,0.0482 2.70302,0.45645 3.76454,0.25899 4.01708,-0.74724 0.0874,-0.34802 -0.03,-0.99608 -0.26618,-1.46942 -0.61862,-1.24005 -0.54735,-1.43577 0.81312,-2.23306 1.91997,-1.12518 2.50762,-1.9058 2.36362,-3.13975 -0.0665,-0.56948 -0.35187,-1.34339 -0.63424,-1.71979 -0.43036,-0.57369 -0.72232,-0.68382 -1.80531,-0.68099 -0.71056,0.002 -1.57742,0.10477 -1.92636,0.22869 -0.5951,0.21134 -0.62469,0.17662 -0.47735,-0.56011 0.0897,-0.44859 0.0271,-0.91542 -0.14609,-1.08858 -0.36467,-0.36467 -2.48353,-0.40642 -2.70182,-0.0532 -0.22234,0.35976 -3.84169,2.16955 -3.86517,1.93272 -0.0484,-0.48783 -0.26187,-1.55071 -0.37199,-1.85193 -0.15606,-0.42688 -1.22507,-0.42446 -2.0255,0.005 -0.60496,0.32427 -0.89017,0.50058 -3.35832,2.07608 -1.68618,1.07634 -2.55681,0.61622 -2.26657,-1.19786 l 0.16567,-1.03543 -0.72312,0.5688 c -0.39772,0.31285 -0.84659,0.4925 -0.99749,0.39924 -0.1509,-0.0933 -0.19777,-0.0456 -0.10417,0.10582 0.0936,0.15146 -0.0368,0.35035 -0.28985,0.44198 -0.25302,0.0916 -0.7577,0.34154 -1.1215,0.55535 -1.02245,0.6009 -4.27038,0.52338 -5.55625,-0.13262 -0.57049,-0.29104 -1.22478,-0.52917 -1.45398,-0.52917 -0.60382,0 -1.72102,-0.79264 -1.72102,-1.22105 0,-0.20154 -0.17156,-0.36645 -0.38126,-0.36645 -0.55605,0 -0.69646,-0.36607 -0.50589,-1.31893 l 0.16883,-0.84412 0.56079,0.70331 c 0.53354,0.66912 0.70929,0.71062 3.61511,0.85373 1.97416,0.0972 3.24389,0.049 3.59038,-0.13647 0.29483,-0.15779 0.81809,-0.81852 1.16279,-1.46828 0.52577,-0.99109 0.73538,-1.16684 1.30122,-1.09104 0.37097,0.0497 0.76178,0.0986 0.86847,0.10858 0.10669,0.01 0.49138,0.60511 0.85486,1.32242 0.36349,0.7173 0.77159,1.3726 0.90689,1.45622 0.13529,0.0836 0.56652,-0.11631 0.95827,-0.44429 2.35288,-1.96984 2.29443,-1.89625 2.10508,-2.65067 -0.0999,-0.39809 -0.2749,-0.72379 -0.38887,-0.72379 -0.11397,0 -0.28575,-0.31289 -0.38174,-0.69532 -0.12998,-0.5179 -0.0317,-0.82836 0.38509,-1.21667 0.49805,-0.464 0.78678,-0.50123 2.62512,-0.3385 1.64996,0.14605 2.23211,0.0967 2.89353,-0.24534 0.4554,-0.23549 0.828,-0.53643 0.828,-0.66874 0,-0.48634 -0.57664,-1.75624 -1.22635,-2.70069 -0.54574,-0.79333 -0.61438,-1.06991 -0.37602,-1.51529 0.38326,-0.71613 1.12104,-1.09325 1.79431,-0.91719 0.29815,0.078 0.62208,0.0123 0.71985,-0.14587 0.0978,-0.1582 0.46029,-0.28764 0.8056,-0.28764 0.59911,0 1.72219,-1.17662 1.72219,-1.80429 0,-0.14707 -0.53578,-0.73902 -1.19062,-1.31543 -1.91355,-1.68437 -1.502,-2.72707 1.52437,-3.86217 2.20869,-0.82842 2.24019,-1.95666 0.0847,-3.03317 -0.6667,-0.33297 -1.21218,-0.73303 -1.21218,-0.88904 0,-0.156 0.5188,-0.89179 1.15288,-1.63508 1.79947,-2.1094 1.80465,-2.94709 0.0219,-3.53528 -0.63825,-0.21058 -1.01626,-0.1666 -1.78594,0.20778 -0.76369,0.37146 -0.97632,0.39686 -0.97632,0.11661 0,-0.19706 0.11906,-0.43186 0.26458,-0.5218 0.37545,-0.23204 0.32849,-2.06416 -0.0661,-2.58078 -0.1819,-0.23814 -0.63354,-0.50575 -1.00364,-0.5947 -0.99598,-0.23937 -1.85945,0.58518 -3.03206,2.89539 -1.03038,2.03002 -1.79728,2.57477 -2.16359,1.53686 -0.45615,-1.29248 -1.98232,-2.05955 -2.88723,-1.45116 -0.5838,0.39251 -0.62634,1.86206 -0.0983,3.39677 0.66166,1.92314 0.6564,2.01858 -0.16523,2.99502 -0.8099,0.96252 -1.58757,1.05491 -1.84114,0.21874 -0.40381,-1.33157 -2.11624,-2.57968 -3.53936,-2.57968 -1.44865,0 -1.98256,2.03867 -1.3039,4.97878 0.27626,1.19683 0.25055,1.40073 -0.28616,2.26915 -0.32434,0.52478 -0.66929,0.94753 -0.76656,0.93943 -0.0973,-0.008 -0.63223,-0.72243 -1.1888,-1.58742 -1.18701,-1.84478 -1.91601,-2.16207 -3.27991,-1.42756 -1.34692,0.72536 -1.65937,1.49223 -1.1895,2.91947 0.44553,1.35332 0.34001,1.76494 -0.61243,2.389 -0.86337,0.5657 -1.00255,0.38733 -1.44441,-1.85118 -0.17569,-0.89002 -0.68615,-2.78006 -1.13437,-4.2001 l -0.81494,-2.58188 0.6886,-0.72541 c 0.74606,-0.78593 1.78709,-3.26053 1.78731,-4.24853 1.4e-4,-0.65791 0.44872,-1.6642 0.86222,-1.93421 0.13954,-0.0911 0.99172,-0.10642 1.89374,-0.034 1.86673,0.14985 2.53883,-0.24115 2.53179,-1.47286 -0.006,-1.04451 -0.24298,-1.26813 -1.84803,-1.7436 -0.80037,-0.23709 -1.51474,-0.45842 -1.5875,-0.49184 -0.1501,-0.0689 -0.12872,-0.32637 0.17979,-2.16423 l 0.21984,-1.30971 1.62129,-0.2932 c 2.68574,-0.48572 3.57624,-1.480917 2.73373,-3.055157 -0.31691,-0.59217 -1.59109,-1.30826 -2.32786,-1.30826 -0.9024,0 -1.21474,-0.67976 -0.94758,-2.06227 0.22791,-1.17946 0.32417,-1.2882 1.82808,-2.06518 1.50585,-0.77798 1.59161,-0.8751 1.66739,-1.88822 0.0669,-0.894872 -0.0354,-1.158707 -0.63099,-1.627226 -0.39099,-0.307551 -0.94078,-0.559183 -1.22176,-0.559183 -1.0778,0 -1.53443,-0.493149 -1.53443,-1.657133 0,-1.013529 0.13636,-1.237099 1.57867,-2.588427 1.50096,-1.406271 1.57081,-1.527529 1.41895,-2.463313 -0.20046,-1.235324 -0.80959,-1.579234 -2.72049,-1.535964 -2.63776,0.05973 -2.96333,-0.797814 -1.25112,-3.295476 1.16875,-1.704906 1.35096,-2.686973 0.69779,-3.761028 -0.61942,-1.01855 -1.3216,-1.076161 -3.21084,-0.263432 -2.02899,0.872847 -2.22307,0.634505 -2.1089,-2.58981 0.0837,-2.363566 0.0373,-2.685219 -0.48222,-3.342812 -0.31616,-0.400182 -0.77499,-0.727604 -1.01964,-0.727604 -0.24465,0 -1.13545,0.658344 -1.97955,1.462984 l -1.53474,1.462987 -0.74928,-0.533532 c -0.62543,-0.44535 -0.91838,-0.945991 -1.69368,-2.894417 -0.023,-0.05781 -0.40022,-0.496383 -0.83826,-0.974609 -0.94697,-1.033851 -1.976,-1.474877 -2.97376,-1.274503 -1.87404,0.376351 -2.31702,1.550702 -2.08925,5.538631 0.16006,2.802498 0.13932,3.00546 -0.29141,2.851896 -0.25505,-0.09094 -0.594,-0.265094 -0.75323,-0.387027 -0.15923,-0.121931 -0.87983,-0.24738 -1.60134,-0.278773 -1.55617,-0.06771 -3.00972,0.769482 -2.99514,1.725107 0.0122,0.799682 0.83146,1.704554 1.74222,1.924262 1.46804,0.354142 3.22071,1.41742 4.03856,2.450049 0.45375,0.5729 0.825,1.10599 0.825,1.184645 0,0.07866 -1.03696,0.146857 -2.30436,0.151562 -1.95464,0.0072 -2.42645,0.09773 -3.10885,0.596172 -0.97249,0.710319 -1.55995,1.489705 -1.60729,2.132401 -0.0485,0.658778 1.38005,1.678819 2.65487,1.895639 0.58208,0.099 1.56435,0.321556 2.18281,0.494567 l 1.12448,0.314566 v 2.038384 2.038387 l -0.85989,0.266608 c -0.47295,0.146634 -1.33615,0.34699 -1.91823,0.445233 -1.35278,0.228319 -2.65393,1.644239 -2.40873,2.621189 0.19255,0.76718 0.7204,0.96281 2.80084,1.038 0.86308,0.0312 1.65095,0.13841 1.75081,0.23827 0.17093,0.17094 -0.58117,2.5389 -1.36425,4.29528 -0.19465,0.43656 -0.5937,1.50812 -0.88679,2.38125 -0.29309,0.873117 -0.64817,1.560527 -0.78907,1.527557 -0.14089,-0.033 -1.29476,-0.67338 -2.56414,-1.423137 -5.952732,-3.51601 -13.496672,-6.38408 -20.795212,-7.90596 -9.4612,-1.972842 -21.51342,-1.725244 -30.67768,0.63023 -4.42689,1.13783 -5.39893,1.46905 -9.46485,3.22512 -4.31916,1.86544 -11.03126,6.142077 -13.5863,8.656567 -0.32773,0.32253 -0.8936,0.82339 -1.25749,1.11302 -1.24112,0.98785 -4.81427,5.2839 -6.48968,7.80264 -4.36315,6.55936 -6.63709,13.29305 -6.93389,20.53293 -0.155,3.78118 0.16296,6.74433 1.03008,9.5995 0.60857,2.00382 2.75223,6.52749 3.4545,7.28985 0.25986,0.2821 0.47248,0.60275 0.47248,0.71254 0,0.10979 0.71437,1.02758 1.5875,2.03953 0.87312,1.01195 1.5875,1.97123 1.5875,2.13174 0,0.1605 0.10836,0.29182 0.24079,0.29182 0.13244,0 0.92022,0.65281 1.75062,1.45069 0.83039,0.79788 2.02272,1.79043 2.64961,2.20566 l 1.13979,0.75497 4.1872,-0.8512 c 2.30296,-0.46817 5.61594,-0.97083 7.36219,-1.11704 l 3.175,-0.26583 2.36642,-2.27978 c 1.30153,-1.25389 2.70052,-2.42768 3.10886,-2.60842 0.40834,-0.18075 0.74243,-0.39986 0.74243,-0.48691 0,-0.31171 4.25259,-2.14674 5.30078,-2.28733 1.20149,-0.16115 3.00406,0.60246 2.78286,1.17889 -0.0699,0.18216 0.006,0.30287 0.16851,0.26823 0.73513,-0.1566 2.86035,4.33487 2.86035,6.04509 0,0.5445 0.15622,0.61067 1.78594,0.75641 0.98226,0.0879 2.61937,0.27413 3.63802,0.41397 1.01865,0.13984 2.4474,0.32261 3.175,0.40615 3.32581,0.38188 7.73993,1.31871 8.18885,1.73796 0.13825,0.12911 0.47744,0.23474 0.75377,0.23474 0.89847,0 5.73359,2.3167 5.936,2.84417 0.0698,0.18196 0.26802,0.33083 0.44043,0.33083 0.57655,0 2.46303,2.23237 3.13023,3.70417 0.9918,2.18783 1.29669,3.7949 1.24127,6.54256 -0.0469,2.32482 0.007,2.60504 0.81992,4.27766 l 0.87009,1.78986 2.00972,-0.0995 c 2.43111,-0.12042 2.14212,0.17391 -1.10707,1.12753 -3.16266,0.92824 -3.19571,0.92065 -3.85404,-0.88489 -0.56085,-1.53818 -2.04107,-4.02193 -2.39692,-4.02193 -0.10437,0 -0.42132,-0.21573 -0.70435,-0.47941 -0.40356,-0.37598 -0.69841,-0.43177 -1.36669,-0.2586 -1.30366,0.33781 -1.48492,0.92992 -1.10544,3.61109 0.57781,4.08243 0.0522,4.57001 -4.35604,4.04047 -4.11231,-0.49399 -6.79409,0.22707 -6.99308,1.88025 -0.10944,0.90925 1.77285,2.4474 3.68516,3.0114 0.78253,0.2308 1.54184,0.51641 1.68736,0.63471 0.14552,0.1183 0.38364,0.25498 0.52916,0.30373 0.31339,0.105 0.22036,0.50006 -0.21598,0.91724 -0.17225,0.16469 -1.02756,0.56078 -1.90068,0.88021 -2.07588,0.75945 -4.08001,1.85857 -4.36712,2.39504 -0.36137,0.67521 0.29061,1.64621 1.59622,2.37728 1.116,0.62489 1.42449,0.66464 5.41673,0.69784 2.32833,0.0194 4.64927,0.16819 5.15763,0.33073 1.32485,0.42359 5.92167,0.35733 7.93924,-0.11445 4.68206,-1.09481 9.9182,-3.9891 13.075232,-7.22735 0.71569,-0.73411 1.4187,-1.26217 1.56223,-1.17346 0.14353,0.0887 0.17901,0.0287 0.0788,-0.13341 -0.19091,-0.3089 0.3465,-1.37456 0.69319,-1.37456 0.37921,0 0.17857,1.45555 -0.32823,2.38125 -0.27884,0.50932 -0.51459,0.80698 -0.52389,0.66146 -0.009,-0.14552 -0.2382,0.21166 -0.50869,0.79375 -0.27049,0.58208 -1.25014,1.82156 -2.177,2.7544 -2.862822,2.88126 -6.739862,5.10126 -10.659602,6.10369 -1.15238,0.29471 -2.16441,0.60508 -2.24896,0.68971 -0.0845,0.0846 -0.15373,5.0819 -0.15373,11.10506 v 10.95119 l 0.66146,0.14258 c 0.72214,0.15567 5.59989,0.64701 6.53222,0.658 0.48949,0.006 0.60825,-0.18766 0.76747,-1.24995 0.19283,-1.28648 0.87857,-2.18706 2.59453,-3.40737 l 0.7661,-0.54481 -0.61136,-0.82691 c -0.91922,-1.24331 -1.01948,-3.3464 -0.2168,-4.54747 1.14346,-1.71099 4.393322,-2.90134 7.974092,-2.92073 l 1.9052,-0.0103 0.86437,-1.17511 c 1.08063,-1.46913 3.61327,-3.4224 4.08479,-3.15036 0.18838,0.10869 0.25225,0.0982 0.14194,-0.0233 -0.21702,-0.23906 1.04811,-1.18222 1.58963,-1.18507 0.58972,-0.003 0.35276,0.55426 -0.71292,1.67692 -0.9328,0.98266 -2.14479,2.46748 -4.28478,5.24928 -0.60753,0.78974 -0.86527,0.91559 -1.98437,0.9689 -3.75345,0.1788 -6.7652,1.21491 -6.93069,2.38431 -0.10333,0.73012 0.9518,1.95457 2.09084,2.42637 0.41238,0.17081 0.92976,0.58527 1.14975,0.92101 0.49484,0.75523 0.41965,0.82493 -2.25889,2.09404 -1.10936,0.52561 -2.326572,1.24255 -2.704912,1.59319 -0.61142,0.56664 -0.65662,0.72725 -0.40655,1.44461 0.21162,0.60705 0.52136,0.87374 1.249702,1.07604 1.27977,0.35546 3.34968,0.34246 5.63784,-0.0354 2.64698,-0.43713 2.8005,-0.0374 0.74074,1.92863 -1.55611,1.48531 -1.8402,2.13905 -1.41318,3.25187 0.23039,0.60039 2.13926,0.54069 4.12745,-0.12909 z M 55.242938,147.65331 c -2.50268,-0.51896 -5.38621,-2.06214 -6.80788,-3.64338 -0.66625,-0.74103 -1.21136,-1.51305 -1.21136,-1.71559 0,-0.20254 -0.10289,-0.36826 -0.22864,-0.36826 -0.12575,0 -0.42134,-0.50601 -0.65686,-1.12448 -1.18277,-3.10584 -1.17519,-7.2684 0.0158,-8.68383 0.77991,-0.92686 1.62874,-0.99469 3.28416,-0.26242 3.19991,1.41548 10.70951,2.25853 14.14399,1.58785 2.21857,-0.43323 1.94215,-0.36182 2.83949,-0.73356 1.49075,-0.61757 2.36228,-0.31301 3.15105,1.10114 0.52677,0.94442 0.35215,4.5786 -0.30281,6.3018 -0.72835,1.91631 -2.585,4.79536 -3.00267,4.65614 -0.17692,-0.059 -0.44167,0.1405 -0.58833,0.44329 -0.14666,0.30279 -1.18236,1.01156 -2.30156,1.57504 -1.82033,0.91649 -2.28067,1.03408 -4.36562,1.11522 -1.2819,0.0499 -3.06785,-0.0622 -3.96877,-0.24896 z m 6.20211,-2.63921 c 0.1819,-7.9e-4 0.33073,-0.086 0.33073,-0.1896 0,-0.10361 0.36654,-0.34021 0.81453,-0.52578 0.44799,-0.18556 1.29969,-0.80353 1.89267,-1.37327 0.894,-0.85895 1.09816,-1.24743 1.19528,-2.2744 0.11398,-1.20539 0.0934,-1.24665 -0.7682,-1.54291 -0.48693,-0.16742 -1.4211,-0.50719 -2.07595,-0.75506 -1.75717,-0.6651 -4.40025,-0.3942 -6.48678,0.66487 -1.71507,0.87052 -3.83196,3.18246 -3.83196,4.18502 0,1.29533 3.4799,2.2644 7.01145,1.95253 0.87313,-0.0771 1.73633,-0.14074 1.91823,-0.1414 z m 27.45052,-9.16169 c -3.40201,-0.79431 -5.76009,-3.83122 -5.74396,-7.3975 0.008,-1.86994 0.7713,-4.92848 0.82301,-3.2998 0.04,1.26063 1.14498,2.21889 2.55856,2.21889 2.02353,0 3.13213,-0.71903 3.96426,-2.57119 0.52753,-1.17419 0.47907,-1.99718 -0.16586,-2.81709 -0.39851,-0.50662 -0.79193,-0.69714 -1.4396,-0.69714 -0.49017,0 -0.95764,-0.10746 -1.03881,-0.23881 -0.23105,-0.37384 1.37345,-0.81952 2.9504,-0.81952 3.04687,0 5.59261,1.53303 7.07812,4.2624 0.6584,1.2097 0.76847,1.70683 0.78238,3.53361 0.0138,1.81064 -0.088,2.32202 -0.68611,3.44878 -1.77986,3.35273 -5.59516,5.19157 -9.08239,4.37737 z m -57.39095,-4.79982 c -1.94275,-0.4664 -3.58029,-1.83885 -4.61575,-3.86852 -1.09065,-2.13785 -0.58922,-6.15332 1.00051,-8.01215 0.43559,-0.50933 0.79682,-0.78425 0.80273,-0.61093 0.006,0.17331 -0.10831,0.3887 -0.25383,0.47863 -0.14552,0.0899 -0.26458,0.55246 -0.26458,1.02783 0,1.85116 2.06998,2.56522 4.38642,1.51314 1.45477,-0.66072 2.22816,-1.69417 2.22816,-2.97741 0,-0.87421 -0.1276,-1.10434 -0.85989,-1.55083 -0.47295,-0.28836 -1.21709,-0.53692 -1.65365,-0.55236 l -0.79375,-0.0281 0.92604,-0.2337 c 1.92891,-0.48679 4.68318,0.45102 6.11541,2.08223 0.90721,1.03326 1.65871,2.59034 1.42932,2.9615 -0.0798,0.12906 -0.024,0.30944 0.12387,0.40084 0.52647,0.32537 0.30075,3.36298 -0.35409,4.76517 -0.72949,1.56204 -1.96851,3.10752 -2.3181,2.89146 -0.13586,-0.084 -0.2143,0.005 -0.17432,0.19772 0.04,0.19272 -0.0761,0.32063 -0.25802,0.28425 -0.18191,-0.0364 -0.33073,0.04 -0.33073,0.16971 0,0.32124 -1.74868,0.9918 -3.04271,1.16678 -0.58209,0.0787 -1.52395,0.0313 -2.09304,-0.10529 z M 9.3882779,210.18291 c 0,-5.24865 -0.005,-5.29947 -0.59531,-5.52855 -0.32742,-0.12716 -1.35033,-0.51156 -2.27313,-0.85422 -1.1121,-0.41295 -2.19974,-1.09416 -3.22572,-2.02032 -2.82805001,-2.55291 -3.72493001,-5.614 -2.43865001,-8.32325 0.32742001,-0.68964 0.59531001,-1.31227 0.59531001,-1.38362 0,-0.0713 -0.52970001,-0.61799 -1.17711001,-1.21475 -2.37331999,-2.18765 -2.26878999,-4.74881 0.29304,-7.17992 1.69024001,-1.60398 4.52879001,-2.26218 7.76324001,-1.80012 l 0.92604,0.13229 0.0752,-3.0204 c 0.0414,-1.66122 -0.0253,-3.12091 -0.14813,-3.24376 -0.12285,-0.12285 -1.18255,-0.36316 -2.35489,-0.53403 -3.95947,-0.5771 -8.36003,0.84098 -10.69077,3.4451 -6.3845399,7.13341 -6.5863199,19.64273 -0.46592,28.88538 3.08847,4.66402 8.1608,7.81972 12.7246,7.91647 l 0.99218,0.021 z m -1.14772,-11.51486 1.14772,-0.67261 v -2.79566 c 0,-2.76469 -0.007,-2.79409 -0.59531,-2.65429 -0.32742,0.0778 -1.28914,0.22459 -2.13714,0.32631 -1.75602,0.21064 -2.42132,0.74086 -2.8289,2.25448 -0.43882,1.62967 -0.0125,2.84463 1.32075,3.7635 0.9068,0.625 1.75137,0.56445 3.09288,-0.22173 z M 153.47666,195.57411 c 0.15803,-0.0989 0.26791,-0.45272 0.24416,-0.78631 -0.0339,-0.47603 -0.22377,-0.62435 -0.88265,-0.68942 -0.80684,-0.0797 -1.13031,0.26881 -0.57058,0.61474 0.1479,0.0914 0.2004,0.27702 0.11668,0.41249 -0.0837,0.13547 -0.0191,0.2463 0.14359,0.2463 0.1627,0 0.22869,0.10861 0.14665,0.24136 -0.16521,0.26731 0.35278,0.24203 0.80215,-0.0392 z m -4.1238,-4.01035 c 0,-0.38449 -0.63892,-0.7564 -0.88194,-0.51337 -0.077,0.077 -0.0759,0.30688 0.002,0.51093 0.18446,0.48071 0.8795,0.48263 0.8795,0.002 z m -140.0216921,-3.621 0.0752,-2.53435 -1.13351,-0.37606 c -1.69107,-0.56104 -3.92722,-0.44082 -5.0826,0.27324 -1.03175,0.63766 -1.74719,1.75223 -1.53634,2.39341 0.5231,1.59065 3.4788,2.91974 6.27918,2.82356 l 1.32291,-0.0454 z M 141.41536,184.78858 c 0.29104,-0.29104 0.52917,-0.64263 0.52917,-0.7813 0,-0.70955 -0.6723,-1.5454 -1.47706,-1.83641 -0.49731,-0.17983 -0.90419,-0.42443 -0.90419,-0.54356 0,-0.11913 -0.25067,-0.28215 -0.55705,-0.36227 -0.66415,-0.17368 -0.53994,-0.80797 0.1809,-0.92376 0.68371,-0.10983 1.50342,-1.26868 1.31571,-1.86009 -0.28254,-0.8902 -1.70798,-1.33088 -3.43095,-1.06069 -0.85028,0.13333 -1.76083,0.35742 -2.02344,0.49796 -0.83989,0.4495 -0.9544,0.28748 -0.93154,-1.31802 0.0129,-0.90272 -0.11334,-1.70961 -0.29602,-1.8927 -0.60585,-0.60721 -1.91564,-0.31292 -3.20522,0.72016 -0.68137,0.54584 -1.28864,1.03 -1.34949,1.07592 -0.30216,0.22797 0.73532,1.51106 1.56339,1.93351 0.51744,0.26397 1.77146,1.12029 2.78673,1.90292 1.01526,0.78263 2.65,1.99535 3.63275,2.69491 0.98275,0.69958 1.7207,1.37892 1.6399,1.50965 -0.0808,0.13074 0.0188,0.17412 0.22132,0.0964 0.20253,-0.0777 0.52094,0.0427 0.7076,0.26761 0.45838,0.55231 0.96291,0.51433 1.59749,-0.12025 z M 53.838278,174.71044 c 6.73194,-0.46636 10.43213,-1.0401 15.25685,-2.36569 1.04247,-0.28641 2.04667,-0.52075 2.23157,-0.52075 0.64419,0 2.61991,-1.10818 2.61991,-1.4695 0,-0.44215 -0.69905,-0.84091 -1.82052,-1.03848 -0.45928,-0.0809 -1.51748,-0.32989 -2.35154,-0.55327 -1.85983,-0.49811 -3.5638,-0.80315 -7.32049,-1.31048 -3.66649,-0.49515 -3.44822,-0.51267 -3.82155,0.30671 l -0.3178,0.69749 -0.60458,-0.56798 -0.60459,-0.56798 -0.64144,0.98648 c -0.85286,1.3116 -1.96927,2.02301 -4.28108,2.72802 -1.59366,0.486 -2.34016,0.56269 -4.43015,0.45512 -2.53229,-0.13034 -5.1734,-0.87039 -5.79976,-1.62511 -0.33455,-0.4031 1.14436,-3.62809 2.94814,-6.42887 1.03472,-1.60665 1.06983,-1.63246 1.67821,-1.23383 l 0.62138,0.40714 -0.60746,0.96925 c -0.9255,1.47668 -3.07385,5.30293 -3.07385,5.47458 0,0.46237 2.12092,0.9387 4.31105,0.96821 2.89143,0.039 5.25186,-0.55173 6.36548,-1.59296 1.6386,-1.53205 2.75763,-5.53523 2.45563,-8.78463 -0.22322,-2.40186 -1.06324,-4.95142 -2.00169,-6.07542 -0.73631,-0.88189 -0.81235,-0.91027 -1.62117,-0.60497 -2.15636,0.81393 -4.97262,2.71313 -7.03328,4.74303 -2.52824,2.49049 -3.55733,3.99607 -4.34099,6.35097 -0.30816,0.92602 -0.96711,2.1706 -1.46432,2.76573 -0.49723,0.59514 -0.90404,1.18986 -0.90404,1.32161 0,0.48006 -0.45194,0.22264 -0.74732,-0.42566 -0.34502,-0.75724 -0.25395,-0.76017 -5.47039,0.17654 -5.80577,1.04253 -9.86719,2.3154 -10.8488,3.40007 -0.4197,0.46376 -0.40256,0.5112 0.3196,0.88464 2.07358,1.0723 10.11737,2.30368 17.27608,2.64472 3.30346,0.15737 11.00456,0.0944 14.02291,-0.11473 z m 71.018812,-2.92396 c 0.61646,-1.46611 0.14788,-2.16966 -1.90571,-2.86136 -1.39367,-0.46943 -1.6941,-0.95857 -0.80596,-1.31225 0.90958,-0.36222 2.07203,-1.55758 2.07203,-2.13068 0,-1.10643 -0.71041,-1.38556 -3.03379,-1.19202 -2.11219,0.17594 -2.1713,0.16476 -2.602,-0.49259 -0.44008,-0.67164 -1.50796,-0.87934 -1.50796,-0.29329 0,0.16441 -0.55688,0.76415 -1.2375,1.33276 -1.75078,1.46262 -2.00006,1.74121 -1.75608,1.96254 0.1185,0.1075 1.46561,1.03012 2.99358,2.05027 6.16813,4.11816 7.13345,4.48238 7.78339,2.93662 z m -79.833902,-7.15584 c -0.0845,-0.21107 -0.14716,-0.14838 -0.15985,0.15985 -0.0115,0.27891 0.051,0.43518 0.13896,0.34727 0.0879,-0.0879 0.0973,-0.31613 0.0209,-0.50712 z m -29.16447,-7.52308 c 0.23557,-0.0904 0.6061,-0.50819 0.82342,-0.92843 0.45191,-0.8739 0.39941,-1.0178 -1.2759,-3.49692 -0.69697,-1.03137 -1.13361,-1.45881 -1.31001,-1.28241 -0.15246,0.15246 -0.225,1.29375 -0.17116,2.69297 0.0782,2.03253 0.17714,2.48956 0.60701,2.80376 0.57729,0.42194 0.71849,0.4444 1.32664,0.21103 z m -6.8158801,-1.88617 c 0.75132,-0.85127 1.4693601,-2.18565 1.9106701,-3.55071 0.40181,-1.24285 0.96845,-1.73887 1.56511,-1.37002 1.10177,0.68109 1.44095,-0.35873 0.59073,-1.81102 -1.00722,-1.72046 -3.02431,-8.86308 -2.77899,-9.84053 0.22483,-0.89582 -0.32274,-2.45857 -0.9158101,-2.61366 -0.26415,-0.0691 -0.69308,-0.006 -0.95319,0.13906 -0.58812,0.32914 -3.75876,0.0593 -4.26787,-0.36324 -0.23838,-0.19784 -0.8986,-0.25378 -1.84382,-0.15623 -1.64702001,0.16999 -2.22180001,0.0396 -2.22180001,-0.50414 0,-0.20271 -0.23788,-0.36857 -0.52863,-0.36857 -0.29074,0 -1.21347999,-0.52485 -2.05051999,-1.16633 -1.49228,-1.14363 -1.52352,-1.15393 -1.60561,-0.52916 -0.0461,0.35043 -0.18516,0.63716 -0.30913,0.63716 -0.30449,0 -2.84313,-2.18075 -2.92605,-2.51354 -0.0363,-0.14552 -0.39108,-0.46232 -0.78848,-0.704 -0.39741,-0.24167 -1.1303,-0.84715 -1.62866,-1.34551 -1.1263999,-1.1264 -2.4649499,-1.47224 -2.8577099,-0.73835 -0.14839,0.27726 -0.26979,0.79781 -0.26979,1.15679 0,0.61353 -0.0807,0.65027 -1.34577,0.6127 -1.12479,-0.0334 -1.42946,0.0633 -1.85544,0.5888 -1.28731,1.58812 -0.75954,3.23737 1.61916,5.05977 0.85474,0.65485 1.62232,1.35551 1.70573,1.55703 0.14078,0.3401 -1.79713,2.41172 -2.25607,2.41172 -0.33021,0 -0.52026,0.80678 -0.34992,1.48547 0.2345,0.93432 1.45749,1.45218 3.7699,1.5963 3.2255599,0.20103 3.2103199,0.19391 3.2103199,1.50057 0,1.21415 -0.34797,1.76766 -1.11125,1.76766 -0.26194,0 -0.47625,0.11492 -0.47625,0.25538 0,0.14046 -0.3597199,0.66508 -0.7993799,1.16582 -0.70763,0.80595 -0.76418,0.9877 -0.4927,1.58354 0.3174,0.69661 1.4208499,1.2286 2.5483499,1.2286 0.95692,0 2.15809,-0.64801 3.69775,-1.99487 1.11413,-0.97461 1.49445,-1.1655 2.04619,-1.02702 0.37274,0.0935 0.74765,0.28326 0.83314,0.42158 0.36439,0.5896 0.35571,1.77693 -0.0208,2.84404 -0.55973,1.58643 -0.51518,2.82032 0.12493,3.46043 0.58528,0.58528 0.98203,0.64568 1.91389999,0.29138 0.77958,-0.2964 2.37227001,-1.87067 3.12542001,-3.08929 0.81282,-1.31518 1.26142,-1.7 1.98173,-1.7 0.93933,0 1.2649,0.87688 1.21916,3.2837 -0.0536,2.81841 0.0439,3.0663 1.20569,3.0663 0.69729,0 1.11119,-0.18992 1.58574,-0.72761 z m 0.82169,-21.81489 c 0.1746301,-0.17463 0.3175001,-0.89923 0.3175001,-1.61022 0,-2.33409 2.64808,-12.01113 3.36173,-12.28499 0.18834,-0.0723 0.34244,-0.39251 0.34244,-0.71164 0,-0.31913 0.13009,-0.71033 0.28909,-0.86933 0.51181,-0.5118 -0.19463,-1.39779 -1.15829,-1.45271 -1.66593,-0.0949 -2.13715,0.0376 -2.95644,0.83174 -0.8242501,0.79889 -1.4660301,1.03877 -1.4660301,0.54795 0,-0.14095 -0.16655,-0.19237 -0.37011,-0.11425 -0.67106,0.25751 -0.72078,-0.38912 -0.17169,-2.23286 0.762,-2.55867 0.72385,-3.42591 -0.16562,-3.76408 -0.90193,-0.34292 -2.16994,-0.0772 -2.92076,0.61208 -0.55442,0.50898 -0.62107,0.51415 -1.25677,0.0976 -0.83266,-0.54558 -0.87482,-1.49648 -0.14213,-3.20578 0.29104,-0.67897 0.52917,-1.49952 0.52917,-1.82345 0,-1.51171 -1.60735,-2.05457 -2.79097,-0.94261 -0.35559001,0.33406 -0.73630001,0.51793 -0.84601001,0.40859 -0.10972,-0.10933 -0.33897,-1.0943 -0.50945,-2.1888 -0.33969,-2.18076 -1.03711999,-3.25894 -2.10808999,-3.25894 -0.816,0 -1.15382,0.73083 -1.15382,2.49615 0,0.80993 -0.10167,1.4726 -0.22594,1.4726 -0.12427,0 -0.54481,-0.29551 -0.93454,-0.65669 -1.50437,-1.39421 -2.67493,-1.50724 -3.3105,-0.31967 -0.34399,0.64276 -0.21256,1.10147 0.88625,3.09303 0.77803,1.41017 0.66,1.68146 -0.96072,2.20809 -0.82651,0.26857 -1.56731,0.65656 -1.64622,0.8622 -0.30781,0.80213 0.35936,1.69362 1.76586,2.35957 1.34906,0.63875 2.30915,1.71088 2.30915,2.57862 0,0.21242 -0.48454,0.722 -1.07675,1.1324 -0.59221,0.41041 -1.25321,1.08745 -1.4689,1.50454 -0.37696,0.72896 -0.35979,0.78859 0.44327,1.53876 0.53336,0.49823 1.11705,0.7804 1.61433,0.7804 0.4284,0 1.14312,0.18834 1.58826,0.41853 0.73236,0.37872 0.78963,0.49828 0.602,1.25677 -0.11405,0.46104 -0.21628,1.42915 -0.22718,2.15137 -0.0173,1.14445 0.0651,1.35636 0.64163,1.64974 0.36381,0.18515 1.28235,0.33838 2.04122,0.34053 1.09084999,0.003 1.43709999,0.11105 1.65363999,0.51567 0.43648,0.81557 0.33263,1.1678 -0.65215,2.21184 -0.50932,0.53998 -0.92603999,1.11221 -0.92603999,1.27162 0,0.4623 2.73743,2.89009 3.17299,2.81408 0.21717,-0.0379 0.55475,-0.40251 0.75017,-0.81024 0.54231,-1.1315 1.02823,-1.1531 2.11478,-0.094 0.81922,0.79854 1.2461,0.98769 2.69331,1.19344 0.94589,0.13448 1.78528,0.2592 1.86531,0.27716 0.08,0.018 0.2884,-0.11022 0.46302,-0.28484 z m 6.5437801,-20.12156 c 2.89741,-4.00999 4.6677,-6.12542 7.36967,-8.80648 3.09658,-3.0726 5.87764,-5.414877 6.42928,-5.414877 0.14612,0 0.48162,-0.23861 0.74555,-0.53025 0.41228,-0.45557 0.4379,-0.66985 0.18192,-1.52135 -0.23894,-0.79479 -0.84436,-3.56629 -0.84436,-3.86528 0,-0.0385 0.73422,-0.0169 1.6316,0.048 1.35986,0.0984 1.69037,0.0377 1.98438,-0.36441 0.84596,-1.15692 0.006,-2.290194 -2.57612,-3.475377 -1.46315,-0.671602 -1.50872,-0.724482 -1.64368,-1.907193 -0.0763,-0.669041 -0.061,-1.679003 0.0341,-2.244362 0.17004,-1.01109 0.21208,-1.043588 2.567,-1.984375 1.31678,-0.526047 2.61158,-1.088575 2.87735,-1.250061 0.99835,-0.606621 0.29482,-2.771471 -1.06921,-3.290073 -0.92427,-0.351409 -3.64093,-0.316367 -4.46158,0.05755 -1.01056,0.460447 -1.33919,0.0076 -0.92764,-1.278152 0.21636,-0.675952 0.97672,-1.647121 2.26943,-2.898581 1.87622,-1.816378 1.93549,-1.91189 1.69867,-2.737623 -0.29563,-1.030795 -0.73228,-1.598049 -1.23012,-1.598049 -0.2027,0 -1.01389,0.428485 -1.80264,0.952188 -0.78876,0.523703 -1.56083,0.873863 -1.71572,0.778134 -0.16117,-0.09961 -0.28163,-1.080153 -0.28163,-2.292498 0,-3.318642 -0.96133,-4.416718 -3.31336,-3.784687 -0.46385,0.124645 -1.9783,2.505964 -1.9783,3.110672 0,0.115845 -0.29995,0.844656 -0.66654,1.619578 -0.93451,1.975387 -1.67553,2.094394 -3.21002,0.515517 -0.62193,-0.639916 -1.31557,-1.163487 -1.54142,-1.163487 -0.22585,0 -0.64656,0.386953 -0.93492,0.859896 -0.6344,1.040487 -0.71505,3.649646 -0.15439,4.994772 0.20453,0.490712 0.41289,1.308926 0.46302,1.818248 0.0857,0.87098 0.0408,0.930918 -0.75642,1.008031 -0.46615,0.04509 -1.26982,-0.0346 -1.78593,-0.177109 -1.9754,-0.545434 -3.71966,0.722503 -3.38711,2.462149 0.0819,0.428643 0.5176,1.183317 0.96813,1.677053 1.08802,1.192366 1.28209,1.569693 1.34563,2.616282 0.0649,1.069004 -0.0251,1.144696 -2.44319,2.055497 -3.6095101,1.359549 -4.0204801,3.284014 -0.9937201,4.65329 0.58209,0.26333 1.3275301,0.55636 1.6565501,0.65117 0.88696,0.25559 1.46143,1.55219 1.24784,2.81641 -0.165,0.9766 -0.29351,1.10236 -1.93572,1.89424 -1.6348801,0.78835 -1.7829001,0.93219 -2.0980501,2.03882 -0.32658,1.146767 -0.31392,1.212547 0.34377,1.785927 0.56386,0.4916 0.99515,0.59532 2.4754501,0.59532 1.60367,0 1.82721,0.0646 2.12076,0.61314 0.42485,0.79384 0.27444,2.58246 -0.23872,2.83884 -0.21828,0.10905 -0.87313,0.39652 -1.45521,0.63881 -0.58208,0.24229 -1.27902,0.73964 -1.5487401,1.10522 -0.483,0.65464 -0.481,0.67472 0.13207,1.3273 0.6393901,0.6806 0.8099701,0.69513 3.6603301,0.3118 0.82414,-0.11083 1.37295,0.90718 1.52011,2.81971 0.14031,1.82366 0.30392,2.51601 0.59454,2.51601 0.13596,0 0.44076,-0.26789 0.67734,-0.59531 z"
       id="path711" /></g></svg>
