<?xml version="1.0" encoding="UTF-8" standalone="no"?>
<!-- Created with Inkscape (http://www.inkscape.org/) -->

<svg
   width="211.89799mm"
   height="205.47437mm"
   viewBox="0 0 211.89801 205.47434"
   version="1.1"
   id="svg5"
   xml:space="preserve"
   xmlns="http://www.w3.org/2000/svg"
   xmlns:svg="http://www.w3.org/2000/svg"><defs
     id="defs2" /><g
     id="layer1"
     transform="translate(37.494361,-24.016506)"><path
       style="fill:#000000;stroke-width:0.264583"
       d="m 57.075997,229.32528 c -4.1955,-0.47185 -8.80366,-1.91549 -11.57551,-3.62637 -1.5865,-0.97925 -2.31511,-1.25529 -2.31511,-0.8771 0,0.28755 -3.53478,1.73854 -5.42923,2.22866 -4.0139,1.03843 -11.154729,1.05041 -16.134311,0.027 -2.192007,-0.45048 -6.226987,-1.7487 -6.095788,-1.96127 0.05054,-0.0819 -0.202131,-0.16653 -0.561483,-0.18811 -0.359352,-0.0216 -0.806114,-0.24813 -0.992806,-0.50344 -0.18669,-0.25532 -0.461585,-0.38872 -0.610873,-0.29645 -0.149289,0.0923 -0.590203,-0.12767 -0.979813,-0.48875 -0.389607,-0.36107 -0.780299,-0.6565 -0.868206,-0.6565 -0.08791,0 -0.569101,-0.31217 -1.069319,-0.6937 -0.9066236,-0.69152 -0.9136696,-0.69235 -2.2381706,-0.26458 -4.01642,1.29716 -11.386285,-0.34344 -13.753928,-3.06175 l -0.712054,-0.81752 -1.007737,0.47255 c -0.554255,0.2599 -1.098463,0.62595 -1.209347,0.81345 -0.660236,1.1164 -6.2923814,2.16381 -9.0588064,1.68467 -2.17578,-0.37685 -4.190402,-1.04698 -4.444918,-1.47853 -0.116372,-0.19732 -0.39129,-0.35876 -0.610928,-0.35876 -0.219639,0 -0.341032,-0.0943 -0.269767,-0.20966 0.07127,-0.11531 -0.08999,-0.2262 -0.358349,-0.24641 -1.140746,-0.0859 -3.273372,-2.7644 -3.694938,-4.64066 -0.268983,-1.19716 -1.141706,-2.04847 -1.897388,-1.85086 -1.183968,0.30962 -6.692553,-3.34563 -6.212516,-4.12234 0.08395,-0.13585 -0.05572,-0.30148 -0.310399,-0.36808 -0.254675,-0.0666 -0.809112,-0.82427 -1.232085,-1.68372 -1.308709,-2.65921 -1.224537,-6.22501 0.210907,-8.93468 0.679641,-1.28296 2.365351,-2.95196 3.788159,-3.7506 0.827169,-0.46431 1.023958,-0.77007 1.414983,-2.19856 0.566669,-2.07013 1.310257,-3.74443 1.662978,-3.74443 0.147674,0 0.193312,-0.0752 0.101417,-0.16707 -0.185417,-0.18542 0.177234,-0.95863 0.768678,-1.63889 1.488784,-1.71235 4.018926,-4.21597 4.403437,-4.35727 0.254661,-0.0936 0.463021,-0.29296 0.463021,-0.44305 0,-0.15008 0.172677,-0.27288 0.383727,-0.27288 0.211051,0 0.478941,-0.16169 0.595313,-0.3593 0.362244,-0.61514 4.954722,-2.82803 5.976366,-2.87971 0.32187,-0.0163 0.704281,-0.11742 0.849802,-0.22473 0.555233,-0.40948 4.787288,-1.03418 7.0060284,-1.03418 2.337499,0 6.555928,0.59924 7.400541,1.05126 0.487773,0.26105 1.67154497,0.0711 1.48076497,-0.23755 -0.155959,-0.25234 1.72821003,-2.28593 2.30522403,-2.48803 0.256011,-0.0897 0.434605,-0.30016 0.396875,-0.46776 -0.03773,-0.1676 0.549661,-0.72726 1.305319,-1.24368 1.184323,-0.80938 1.336371,-1.00911 1.101826,-1.44736 -0.192207,-0.35914 -0.44023,-0.4609 -0.844754,-0.34658 -0.314963,0.089 -1.725411,0.36378 -3.134331,0.6106 -2.148633,0.37641 -2.896221,0.4 -4.636539,0.14635 -2.353765,-0.34307 -4.935556,-1.22872 -5.642406,-1.93557 -0.262208,-0.26221 -0.532728,-0.42076 -0.601152,-0.35234 -0.2504074,0.25041 -2.4961404,-2.23178 -3.3166214,-3.66583 -1.324332,-2.31469 -1.895718,-5.01107 -1.889008,-8.91427 0.0065,-3.75491 0.49866,-6.44064 1.846958,-10.07799 0.458507,-1.23692 0.897953,-2.45731 0.976551,-2.71198 0.07859,-0.25466 0.267919,-0.46302 0.420721,-0.46302 0.152803,0 0.203965,-0.0739 0.113695,-0.16412 -0.392227,-0.39223 4.2186514,-8.10503 5.5444284,-9.27439 0.358534,-0.31623 0.639762,-0.64791 0.624951,-0.73705 -0.05096,-0.30673 0.722976,-0.91151 0.928933,-0.7259 0.113414,0.10221 0.132334,0.0561 0.04204,-0.10256 -0.09029,-0.15863 0.300913,-0.77242 0.869344,-1.36398 l 1.033512,-1.07558 -0.368276,-4.45686 c -1.151644,-13.93719 -1.433039,-33.573336 -0.57001,-39.776566 0.252904,-1.81782 0.564602,-3.40991 0.692658,-3.53797 0.128055,-0.12805 0.171622,-0.39234 0.09681,-0.58729 -0.132686,-0.34578 0.926277,-4.34524 1.220131,-4.60814 0.08133,-0.0728 0.183854,-0.34501 0.227833,-0.60499 0.112977,-0.66782 2.19241997,-4.8007 2.469028,-4.90716 0.126021,-0.0485 0.229132,-0.25268 0.229132,-0.45371 0,-0.20104 0.238125,-0.49296 0.529167,-0.64872 0.291041,-0.15576 0.529166,-0.45342 0.529166,-0.66146 0,-0.20804 0.23694,-0.50506 0.526534,-0.66005 0.289592,-0.15499 0.497951,-0.38229 0.463021,-0.50513 -0.07126,-0.2506 2.327397,-2.67128 2.646984,-2.67128 0.112707,0 0.353634,-0.23812 0.535393,-0.52917 0.181758,-0.29104 0.508052,-0.52916 0.725101,-0.52916 0.217048,0 0.394634,-0.0938 0.394634,-0.20847 0,-0.78066 9.3924636,-5.624447 10.0810336,-5.198885 0.112546,0.06956 0.157602,-0.143849 0.100129,-0.474237 -0.682365,-3.922464 -0.696108,-5.151882 -0.07123,-6.372561 0.135197,-0.264104 0.289748,-0.708313 0.343442,-0.987131 0.252582,-1.311558 2.94943,-3.657113 5.985103,-5.205481 3.981786,-2.030942 11.048498,-3.948549 15.745838,-4.272759 l 2.41869,-0.166936 -0.52584,-1.5875 c -0.7287,-2.199902 -0.7687,-5.024929 -0.0871,-6.151901 0.28615,-0.47313 0.74837,-0.932632 1.02715,-1.021114 0.32842,-0.104235 0.40119,-0.226198 0.20668,-0.346408 -0.19728,-0.121923 -0.0279,-0.446458 0.49421,-0.946616 0.43692,-0.4186 0.7944,-0.684966 0.7944,-0.591928 0,0.09304 0.28424,-0.09305 0.63164,-0.41352 0.77125,-0.711462 5.69003,-3.187557 6.7767,-3.411358 0.21828,-0.04495 0.4564,-0.146608 0.52916,-0.225893 0.33103,-0.360712 7.43231,-2.46185 9.26042,-2.739983 0.50932,-0.07749 1.56737,-0.263929 2.35122,-0.414313 0.78384,-0.150381 2.39119,-0.273328 3.57187,-0.273214 1.83593,1.77e-4 2.3897,0.115168 3.82526,0.794297 0.98142,0.464286 1.73247,1.000239 1.80836,1.290455 0.0714,0.273003 0.39468,0.617051 0.71841,0.764556 0.66445,0.302742 2.00682,2.860786 2.91569,5.556202 l 0.60045,1.780739 1.36765,0.219075 c 0.7522,0.120488 1.31907,0.299082 1.25969,0.396875 -0.0594,0.09779 0.3263,0.196707 0.85704,0.219813 0.53074,0.0231 2.07599,0.417393 3.4339,0.876191 2.4615,0.831673 4.00185,0.902618 4.02213,0.185251 0.012,-0.42349 3.57772,-2.692649 6.47354,-4.119613 2.02258,-0.996667 2.68358,-1.191405 4.38856,-1.292928 1.631793,-0.09717 2.238143,-0.01744 3.241153,0.426256 0.80723,0.357079 1.23523,0.711015 1.23788,1.023681 0.003,0.377315 0.053,0.400601 0.23663,0.110631 0.28185,-0.445056 0.29292,-0.436989 3.22715,2.351643 1.1484,1.091406 2.08809,2.136938 2.0882,2.323406 1.2e-4,0.186471 0.16504,0.402283 0.36649,0.479587 0.35455,0.136054 2.66559,3.246725 3.81463,5.134506 1.19365,1.961089 2.92933,5.501568 2.77348,5.657419 -0.0899,0.08988 -0.0388,0.163414 0.11343,0.163414 0.33145,0 2.48188,5.19539 3.23295,7.810764 0.53695,1.869755 0.91623,2.258272 2.58481,2.64777 1.09236,0.254993 4.82989,2.409203 6.1472,3.543078 0.5188,0.44656 1.33022,1.12087 1.80316,1.49846 0.47295,0.3776 0.8599,0.78172 0.8599,0.89803 0,0.11632 0.51088,0.73081 1.13529,1.36555 1.27208,1.2931 3.16198,4.21392 3.28897,5.08306 0.0457,0.3129 0.32922,0.90517 0.63,1.31616 1.84617,2.52259 3.59312,11.01643 4.52622,22.00692 0.45901,5.40643 0.46183,27.779596 0.004,31.809066 -0.37847,3.33108 -0.38257,3.31552 1.36137,5.16299 0.96674,1.02412 2.45958,3.10665 3.34165,4.66163 0.21828,0.3848 0.46888,0.75917 0.55689,0.83193 0.3072,0.25396 2.39989,4.23333 2.22625,4.23333 -0.0963,0 -0.006,0.16943 0.20139,0.3765 0.20708,0.20708 0.86159,1.67591 1.45447,3.26406 2.6344,7.05674 2.856,13.6804 0.61792,18.4693 -0.80725,1.7273 -2.54465,3.81931 -3.1719,3.81931 -0.21215,0 -0.31038,0.0753 -0.2183,0.16741 0.42248,0.42249 -2.4745,2.0147 -4.76751,2.62027 -1.58918,0.4197 -5.34917,0.56225 -6.9545,0.26366 -0.90519,-0.16836 -0.93903,-0.14262 -1.58638,1.20696 -0.3638,0.75844 -0.69571,1.46351 -0.73758,1.56682 -0.0419,0.10331 0.28556,0.33765 0.72761,0.52075 0.44205,0.1831 0.80372,0.44455 0.80372,0.58101 0,0.13645 0.11175,0.17904 0.24832,0.0946 0.13658,-0.0844 0.37108,0.0574 0.52112,0.31511 0.15004,0.25772 0.27642,0.3656 0.28085,0.23972 0.0236,-0.673 3.4624,2.38386 4.94979,4.40012 l 0.93012,1.26083 2.025,-0.16089 c 1.18884,-0.0944 2.51665,-0.0384 3.21563,0.1357 0.65485,0.16312 1.40612,0.34729 1.6695,0.40927 1.20965,0.28465 3.34331,1.51322 4.54821,2.61888 l 1.32292,1.21395 2.0082,0.004 c 2.23612,0.005 5.39575,0.71886 7.55682,1.70823 1.97178,0.90271 4.3256,2.509 4.3256,2.95186 0,0.20413 0.13946,0.37115 0.3099,0.37115 0.48215,0 1.25599,0.80679 1.11822,1.16582 -0.068,0.1773 0.20788,0.49353 0.61315,0.70275 1.08599,0.56062 1.54782,1.18256 2.8366,3.81997 1.3587,2.78052 1.64921,4.00762 1.71467,7.24277 0.0394,1.94785 -0.077,2.74894 -0.64617,4.44577 -0.38184,1.13839 -0.8824,2.27815 -1.11236,2.53281 -0.22996,0.25466 -0.32578,0.46302 -0.21294,0.46302 0.60484,0 -2.94334,3.68781 -4.66172,4.84517 -4.2177,2.84071 -11.62381,3.79736 -18.80152,2.4286 -0.65412,-0.12474 -0.77913,-0.008 -1.40104,1.30643 -0.75321,1.59218 -2.87695,4.1198 -3.4615,4.1198 -0.2048,0 -0.37236,0.0997 -0.37236,0.22165 0,0.38037 -2.83948,1.63327 -4.97235,2.194 -3.10843,0.81721 -7.5972,0.40288 -10.41096,-0.96096 -0.95303,-0.46194 -0.97318,-0.45991 -1.85208,0.18646 -1.15519,0.84958 -3.40211,2.12805 -3.40211,1.93577 0,-0.0822 -0.26789,0.0233 -0.59531,0.23459 -0.32742,0.21127 -1.66688,0.66001 -2.97656,0.99721 -2.0611,0.53064 -3.00378,0.6113 -7.01146,0.59989 -4.17155,-0.0119 -4.91565,-0.0861 -7.51181,-0.7492 -3.12554,-0.79833 -4.12986,-1.17345 -4.12986,-1.5425 0,-0.13075 -0.0915,-0.18115 -0.20342,-0.112 -0.25861,0.15982 -1.807033,-0.56923 -2.929933,-1.37952 l -0.86415,-0.62356 -1.50698,1.05184 c -2.78221,1.94193 -5.97007,3.12789 -10.47132,3.89557 -2.69481,0.4596 -7.95704,0.52478 -10.79411,0.13369 -1.54438,-0.21289 -2.31307,-0.1833 -3.78946,0.14586 -2.22769,0.49667 -10.1592,0.72334 -13.22917,0.37807 z m 13.19379,-5.3848 c 1.55986,-0.27183 2.62044,-0.29878 4.23333,-0.10761 6.39361,0.75783 14.65946,-0.89551 18.35933,-3.67224 0.4738,-0.35559 0.99822,-0.562 1.16536,-0.45869 0.18963,0.11719 0.23166,0.0709 0.11178,-0.12306 -0.10797,-0.1747 0.11448,-0.67528 0.50785,-1.14277 0.385,-0.45755 0.88271,-1.28854 1.10603,-1.84667 0.22332,-0.55813 0.4824,-1.01456 0.57574,-1.0143 0.0933,2.6e-4 0.50817,0.53622 0.92186,1.19101 1.91462,3.03059 5.457783,4.86438 11.267683,5.8317 2.01422,0.33535 3.51471,0.41751 5.55625,0.30422 5.90929,-0.32792 9.33268,-1.90731 12.44141,-5.7399 l 0.53653,-0.66146 0.92774,0.98723 c 1.9369,2.06112 5.8359,3.19098 8.99951,2.60791 2.00275,-0.36912 4.14698,-1.40685 4.99889,-2.41929 1.39196,-1.65425 1.04851,-4.91908 -0.73603,-6.99668 -0.89823,-1.04575 -1.1432,-1.56654 -0.75715,-1.60967 0.10914,-0.0122 0.53598,-0.16193 0.94853,-0.33274 0.63965,-0.26483 0.85992,-0.23235 1.49605,0.22061 0.41028,0.29214 0.81163,0.53117 0.89191,0.53117 0.0803,0 0.77627,0.37285 1.54665,0.82855 2.92853,1.73229 7.0515,2.54269 11.53313,2.26692 2.4062,-0.14806 5.86168,-0.96512 6.59089,-1.55844 0.17552,-0.14282 0.46181,-0.17149 0.63619,-0.0637 0.19153,0.11838 0.24784,0.084 0.14223,-0.0869 -0.0964,-0.1559 0.24528,-0.54251 0.76112,-0.86131 4.57021,-2.82455 4.77085,-10.69387 0.39027,-15.30705 -1.76366,-1.85732 -3.82632,-3.25943 -5.95312,-4.04671 -1.32079,-0.48892 -2.1592,-0.59086 -4.99035,-0.60679 l -3.40285,-0.0192 -0.94381,-1.34277 c -0.99117,-1.41015 -1.02059,-1.43368 -3.10872,-2.48595 -1.11939,-0.56409 -1.66312,-0.65939 -3.69385,-0.6474 -2.1629,0.0128 -2.94909,0.17549 -4.90349,1.0149 -0.30952,0.13294 -0.61648,-0.29836 -1.29612,-1.82112 -1.20364,-2.69682 -3.35382,-5.03274 -5.67376,-6.1639 -0.95785,-0.46702 -1.83782,-0.84914 -1.95549,-0.84914 -0.11767,0 -0.80031,0.59531 -1.51698,1.32292 -0.71666,0.7276 -1.45632,1.32292 -1.6437,1.32292 -0.18737,0 -0.34067,0.10324 -0.34067,0.22942 0,0.35593 -2.10327,1.66217 -2.39052,1.48464 -0.14042,-0.0868 -0.25531,0.0278 -0.25531,0.25469 0,0.22687 -0.10518,0.41249 -0.23373,0.41249 -0.12855,0 -0.29599,0.23813 -0.3721,0.52917 -0.0761,0.29104 -0.0427,0.52917 0.0743,0.52917 0.36648,0 0.79614,3.23733 0.79614,5.99862 0,3.11049 -0.61062,5.82956 -1.86894,8.32226 -0.85439,1.69254 -2.59813,4.17998 -2.75876,3.93537 -0.0478,-0.0728 -0.35575,0.22489 -0.68439,0.66146 -0.32863,0.43656 -0.9583,1.18093 -1.39928,1.65416 -0.62287,0.66843 -0.73104,0.93113 -0.48478,1.17739 0.17434,0.17434 0.31698,0.5313 0.31698,0.79324 0,0.26193 0.11104,0.47625 0.24676,0.47625 0.22671,0 0.61263,0.82283 0.68251,1.45521 0.0695,0.62845 -0.53716,0.92604 -1.8877,0.92604 -0.95575,0 -1.42658,-0.10857 -1.43428,-0.33073 -0.0167,-0.48163 -2.802,-2.1823 -4.43757,-2.70952 -1.8156,-0.58526 -6.97056,-0.68866 -7.45796,-0.1496 -0.0732,0.0809 -0.62287,0.40947 -1.22157,0.7301 -0.96559,0.5171 -1.304053,0.55992 -2.996463,0.37909 -1.74659,-0.18662 -2.57202,-0.59518 -2.2512,-1.11428 0.0603,-0.0976 -0.60437,-0.43785 -1.47711,-0.75607 -0.87274,-0.31822 -1.79317,-0.79357 -2.04538,-1.05634 -0.25222,-0.26277 -0.90506,-0.68593 -1.45077,-0.94036 -0.5457,-0.25442 -0.99218,-0.6085 -0.99218,-0.78685 0,-0.17834 -0.30437,-0.46293 -0.67638,-0.63243 -0.37201,-0.1695 -0.60634,-0.4215 -0.52074,-0.56001 0.0856,-0.13851 -0.14478,-0.44869 -0.51197,-0.68928 -0.36719,-0.24059 -0.60522,-0.53841 -0.52895,-0.66181 0.0763,-0.12341 -0.21302,-0.40624 -0.64287,-0.62853 -0.90486,-0.46792 -1.99147,-1.87237 -1.75042,-2.26241 0.0906,-0.14651 -0.002,-0.26639 -0.20538,-0.26639 -0.3665,0 -1.11506,-1.28017 -0.88379,-1.51145 0.0661,-0.0661 -0.12211,-0.3624 -0.4182,-0.65849 -0.39054,-0.39055 -0.45099,-0.59234 -0.22017,-0.735 0.6792,-0.41977 -0.96828,-0.49331 -4.98335,-0.22247 -2.37953,0.16052 -8.06592,0.22078 -13.39026,0.1419 l -9.25435,-0.1371 -0.57361,0.61893 c -0.31548,0.34042 -0.52625,0.6663 -0.46837,0.72418 0.0579,0.0579 -0.87735,1.1074 -2.07829,2.33227 -2.25712,2.3021 -4.58287,3.89783 -5.83164,4.00118 -0.39463,0.0327 -0.71751,0.14942 -0.71751,0.25946 0,0.69651 -5.28279,2.20091 -8.13594,2.31689 -0.1819,0.007 -0.33073,0.18259 -0.33073,0.3893 0,0.20752 -0.37829,0.45894 -0.84462,0.56137 -0.6793,0.1492 -0.93358,0.0756 -1.29918,-0.37586 -0.25001,-0.30875 -0.52599,-0.56136 -0.6133,-0.56136 -0.0873,0 -0.72307,-0.38954 -1.4128,-0.86566 -2.47976,-1.71173 -7.171334,-2.78344 -10.78288,-2.46315 -2.585252,0.22926 -6.050645,1.3314 -6.97861,2.21947 -0.953606,0.91261 -1.536115,1.11778 -2.568657,0.90469 -0.852636,-0.17595 -1.046512,-0.33475 -1.114266,-0.91266 -0.23036,-1.96488 2.651164,-4.61534 6.36561,-5.85516 0.505984,-0.1689 0.556215,0.0106 -0.904211,-3.23138 -0.553548,-1.22882 -0.608613,-1.7024 -0.197951,-1.7024 0.15765,0 0.24397,-0.12799 0.191823,-0.28443 -0.05214,-0.15643 -0.200192,-0.26483 -0.328993,-0.24087 -0.573225,0.1066 -0.808178,-1.15379 -0.839034,-4.50096 l -0.03292,-3.57105 -1.953855,-1.16915 c -1.131043,-0.6768 -2.854412,-2.08244 -4.092313,-3.33785 l -2.1384576,-2.16869 -0.795157,0.4266 c -1.204648,0.6463 -3.502861,2.50391 -3.515617,2.84161 -0.0062,0.16408 -0.177934,0.43665 -0.381635,0.60571 -0.2037,0.16905 -0.638357,0.9873 -0.965906,1.81833 -0.919956,2.33404 -0.949185,2.34773 -3.06274803,1.43438 -5.22101697,-2.25618 -9.83377137,-2.63938 -14.67763837,-1.21935 -1.952185,0.57231 -5.106476,2.15141 -5.824764,2.91599 -0.324951,0.34589 -0.74866,0.6289 -0.941573,0.6289 -0.192916,0 -0.350756,0.0925 -0.350756,0.20562 0,0.11309 -0.327421,0.57214 -0.727604,1.02011 -1.61526,1.80815 -2.607339,3.94808 -3.228633,6.96419 -0.41783,2.02838 -0.526158,2.25428 -1.162677,2.42451 -0.386056,0.10325 -0.701919,0.12391 -0.701919,0.0459 0,-0.078 -0.173378,0.002 -0.385286,0.17796 -0.211905,0.17586 -0.527957,0.23158 -0.702336,0.1238 -0.200576,-0.12396 -0.247698,-0.0837 -0.128268,0.10952 0.106262,0.17193 0.03621,0.30546 -0.16026,0.30546 -0.478602,0 -1.720019,1.1869 -1.928522,1.84383 -0.09381,0.29558 -0.295044,0.53742 -0.44718,0.53742 -0.175514,0 -0.239125,0.66342 -0.174045,1.81518 0.0805,1.42462 0.258193,2.05034 0.825867,2.90816 1.401673,2.11807 4.0987,3.21416 7.908716,3.21416 h 2.051677 l -0.519766,1.21256 c -1.056524,2.46477 -0.471334,4.64906 1.596903,5.96064 1.137883,0.72159 3.355401,1.11058 5.233942,0.91812 2.426666,-0.24862 4.185251,-1.06108 5.7462664,-2.65476 1.399611,-1.42889 2.322618,-2.52614 2.124995,-2.52614 -0.06533,0 0.199076,-0.62508 0.587571,-1.38907 l 0.706353,-1.38906 0.185682,1.24871 c 0.23431,1.57572 1.259988,3.79598 2.248887,4.86812 1.801561,1.9532 5.375068,3.27588 8.850529,3.27588 h 2.025131 l 0.454332,-1.25677 c 0.24988,-0.69122 0.577532,-1.58268 0.728112,-1.98102 l 0.273783,-0.72424 0.498456,0.63368 c 0.274154,0.34853 0.4984596,0.82327 0.4984596,1.05498 0,0.23171 0.09346,0.39152 0.207684,0.35514 0.114226,-0.0364 0.679773,0.39355 1.256771,0.9554 2.703243,2.63228 6.535036,4.44562 11.503091,5.44368 7.381737,1.48295 16.166267,0.27266 18.842087,-2.59596 0.54928,-0.58886 1.00134,-0.98596 1.00458,-0.88246 0.003,0.10351 0.21402,-0.0822 0.46842,-0.41276 l 0.46253,-0.60096 1.021,1.22144 c 2.34565,2.80614 7.7705,5.02203 13.85085,5.65764 2.90563,0.30375 8.80398,0.12278 11.54031,-0.35406 z m 0.55058,-8.87238 c 0.0823,-0.13309 0.007,-0.28955 -0.16756,-0.34769 -0.53357,-0.17786 -0.36931,-2.59633 0.25901,-3.81367 0.6378,-1.23569 2.40305,-2.86523 3.69322,-3.40929 3.33652,-1.40699 7.3447,-0.66157 8.92171,1.65921 0.8852,1.3027 0.8929,2.38299 0.0185,2.60244 -0.78825,0.19784 -2.38768,0.0161 -3.40161,-0.38657 -2.35264,-0.93426 -6.01014,0.50972 -6.66199,2.63017 -0.10922,0.35526 -0.31764,0.79475 -0.46317,0.97665 -0.30035,0.37542 -2.42842,0.46134 -2.19815,0.0888 z m 32.293133,-13.75 c 1.53272,-0.40969 3.71085,-0.35814 5.44669,0.12891 l 1.51265,0.42443 1.54741,-1.08046 c 2.04016,-1.42452 3.26721,-2.51235 3.26721,-2.89652 0,-0.1713 0.10013,-0.31146 0.22251,-0.31146 0.36237,0 1.80379,-3.19347 2.12564,-4.70938 0.62132,-2.92643 0.24513,-7.38908 -0.5666,-6.72135 -0.95711,0.78733 -9.33999,3.54715 -14.48155,4.76763 -1.76217,0.41829 -7.269953,1.31111 -9.392713,1.52257 -2.71558,0.27052 -2.65277,0.24862 -2.57818,0.89886 0.0806,0.70286 0.8478,1.76115 2.37974,3.28279 0.61847,0.61431 1.12448,1.2798 1.12448,1.47887 0,0.19908 0.0759,0.2861 0.16858,0.19338 0.0927,-0.0927 0.53714,0.0958 0.98762,0.41893 0.45048,0.32312 1.89267,1.15456 3.20487,1.84764 2.492793,1.31665 2.773433,1.35877 5.031643,0.75516 z m -63.518583,-3.10346 c 1.65887,-0.39151 3.52997,-1.03018 4.31487,-1.4728 0.76223,-0.42983 1.52476,-0.69568 1.69452,-0.59076 0.18738,0.1158 0.2377,0.0759 0.12808,-0.10142 -0.0993,-0.16071 0.0714,-0.42705 0.37941,-0.59189 0.72615,-0.38862 2.62983,-2.10867 2.62983,-2.37614 0,-0.11356 -1.0418,-0.34923 -2.3151,-0.52371 -7.53796,-1.03292 -19.511768,-4.0253 -21.633573,-5.40646 -0.293174,-0.19084 -0.936064,-0.4355 -1.428644,-0.54368 l -0.895596,-0.19671 0.184674,1.80252 c 0.176977,1.72742 1.252069,4.94236 1.855586,5.54893 0.158324,0.15912 0.660006,0.71392 1.114849,1.23287 0.948161,1.08182 1.424434,1.27637 3.423205,1.39835 2.189779,0.13363 5.346819,1.4384 4.967069,2.05283 -0.0991,0.16032 -0.0434,0.19773 0.13247,0.089 0.16685,-0.10312 0.51267,-0.0656 0.76849,0.0834 0.71152,0.41435 1.49949,0.34627 4.67986,-0.40433 z m 36.92796,-10.95635 c 7.73222,-0.47856 10.18988,-0.74016 17.4625,-1.85876 7.501663,-1.15384 16.318673,-3.53255 21.906073,-5.90995 0.91599,-0.38975 1.79759,-0.62697 1.95911,-0.52715 0.17076,0.10554 0.21958,0.0616 0.11665,-0.10492 -0.0974,-0.15752 0.051,-0.35877 0.32959,-0.4472 0.74297,-0.23581 3.67568,-2.16744 5.11727,-3.37048 0.72716,-0.60684 1.38102,-0.96302 1.56224,-0.85102 0.20201,0.12485 0.24098,0.0783 0.11077,-0.13243 -0.11495,-0.18598 0.0124,-0.57137 0.29769,-0.90078 0.96731,-1.11699 2.12826,-2.97652 2.91982,-4.67676 0.74713,-1.60482 2.10869,-6.63136 2.36507,-8.73125 0.0622,-0.50933 0.23369,-1.58089 0.38112,-2.38125 0.14743,-0.80037 0.37741,-2.70537 0.51107,-4.23334 0.13366,-1.52797 0.29614,-3.19484 0.36107,-3.70416 0.13481,-1.05751 0.30622,-2.95655 0.69258,-7.67292 0.14901,-1.81901 0.33037,-3.84307 0.40301,-4.49792 0.24057,-2.16843 0.91479,-11.42937 1.21352,-16.66875 0.36686,-6.434 0.13597,-22.732756 -0.39916,-28.178116 -1.06713,-10.8589 -1.89792,-14.80848 -3.9515,-18.78541 -1.17289,-2.27142 -1.70918,-2.99371 -3.69344,-4.97443 -1.36256,-1.36013 -5.82089,-4.41828 -6.44118,-4.41828 -0.20596,0 -0.47857,0.26789 -0.60581,0.59531 -0.30052,0.77335 -2.46044,3.10885 -2.87513,3.10885 -0.17601,0 -0.32002,0.11073 -0.32002,0.24605 0,0.68748 -6.39165,3.48944 -8.73899,3.83098 -0.50506,0.0735 -1.51361,0.26052 -2.24122,0.41562 -1.73735,0.37035 -8.747353,0.39803 -9.889663,0.0391 -0.78578,-0.24693 -1.03491,-0.19398 -2.06076,0.43798 -2.38655,1.4702 -3.14251,1.86737 -3.59385,1.88816 -0.25466,0.0117 -0.46302,0.15313 -0.46302,0.31422 0,0.16109 -0.1709,0.22731 -0.37978,0.14716 -0.20888,-0.0802 -0.41724,-0.0441 -0.46302,0.0801 -0.0458,0.12421 -0.44043,0.29437 -0.87699,0.37811 -0.43656,0.0837 -1.86872,0.43784 -3.18257,0.78686 -7.58928,2.01612 -22.20787,1.53434 -30.15714,-0.99387 -2.21017,-0.70293 -4.49134,-2.12231 -4.19125,-2.60787 0.10418,-0.16855 0.0484,-0.20411 -0.13867,-0.0885 -0.36234,0.22393 -1.13282,-0.59585 -1.88414,-2.0047 l -0.51572,-0.96707 -1.92567,0.48923 c -3.70111,0.94029 -11.01732,1.90106 -14.75796,1.93802 -3.828692,0.0378 -4.84719,-0.16666 -6.771682,-1.3596 -0.99437,-0.61638 -2.710579,-2.83359 -2.554877,-3.30071 0.03638,-0.10914 -0.03674,-0.19843 -0.162494,-0.19843 -0.125751,0 -0.433255,-0.53578 -0.683342,-1.19063 -0.250087,-0.65484 -0.483423,-1.19062 -0.518525,-1.19062 -0.310584,0 -4.768194,2.09236 -6.29349,2.9541 -4.7094766,2.66071 -8.0405356,6.73858 -9.6900696,11.86256 -1.74755,5.42845 -2.276219,15.14271 -1.627304,29.901636 0.693991,15.78421 3.017316,37.53077 5.045283,47.2244 1.599266,7.64444 3.7763766,13.35473 6.2423246,16.37283 0.699307,0.85589 1.393706,1.74886 1.543108,1.98437 0.149403,0.23552 0.445932,0.46753 0.658956,0.51558 0.213021,0.048 0.447971,0.16711 0.52211,0.26458 0.07414,0.0975 0.491982,0.38894 0.928545,0.6477 8.255219,4.89306 24.711637,9.21708 39.371267,10.34501 4.91339,0.37805 15.17081,0.45936 20.02769,0.15876 z m -18.38854,-38.46242 c -1.545,-0.4861 -2.28875,-0.94069 -2.0832,-1.27327 0.0993,-0.16071 0.0625,-0.2192 -0.0819,-0.12998 -0.37058,0.22904 -2.01758,-1.55375 -2.8853,-3.12316 -1.00621,-1.81992 -1.69649,-4.6235 -1.69649,-6.89036 0,-1.71681 -0.0635,-1.94673 -0.66146,-2.39579 -0.3638,-0.27321 -0.66145,-0.64707 -0.66145,-0.83081 0,-0.18375 -0.10983,-0.33408 -0.24407,-0.33408 -0.38089,0 -0.88289,-1.80723 -0.70209,-2.52759 0.0894,-0.35608 0.33881,-0.64741 0.55432,-0.64741 0.21551,0 0.36207,-0.13014 0.32569,-0.2892 -0.10702,-0.46791 0.72427,-0.86054 1.44107,-0.68063 0.37089,0.0931 1.00103,0.66406 1.43002,1.29573 1.27763,1.88132 1.11868,1.83762 3.57458,0.98283 2.49481,-0.86833 2.80522,-0.90625 3.85586,-0.471 0.40965,0.1697 0.80435,0.32252 0.87712,0.33958 0.0728,0.0171 0.70134,0.25291 1.39685,0.52411 1.5174,0.59168 2.31999,0.34694 2.96731,-0.90485 0.23148,-0.44763 0.53137,-0.74558 0.66643,-0.66211 0.13506,0.0835 0.32149,-0.15076 0.41429,-0.52051 0.23199,-0.92431 1.38723,-0.91175 2.32424,0.0253 1.09169,1.09169 0.93887,2.978 -0.36148,4.46184 -0.34198,0.39023 -0.51142,1.22385 -0.64534,3.175 -0.0999,1.45521 -0.30955,3.18162 -0.46591,3.83646 -0.38197,1.59962 -1.50298,3.97349 -1.95905,4.1485 -0.20272,0.0778 -0.37719,0.27754 -0.3877,0.44387 -0.0322,0.50961 -1.6652,1.69922 -3.11938,2.2724 -1.56271,0.61597 -2.35772,0.65193 -3.87297,0.17518 z m 3.70416,-2.73467 c 1.01589,-0.55704 2.33233,-2.35881 2.67566,-3.66208 0.52772,-2.0032 0.45431,-2.88015 -0.31793,-3.7979 -0.59563,-0.70786 -0.85644,-0.81405 -1.9995,-0.81405 -2.1321,0 -3.55885,0.48757 -4.71771,1.61221 -0.57802,0.56095 -1.12394,1.35042 -1.21315,1.75437 -0.0892,0.40396 -0.24998,1.02906 -0.35727,1.38912 -0.32023,1.07467 0.92998,2.99792 2.44905,3.76749 0.80317,0.40689 2.50681,0.28494 3.48085,-0.24916 z m 21.29896,-6.01001 c -2.04672,-0.47279 -3.73366,-1.2085 -3.52928,-1.53919 0.095,-0.15366 0.0456,-0.19966 -0.11058,-0.10311 -0.38558,0.2383 -1.88269,-0.64537 -2.06841,-1.22087 -0.0829,-0.25678 -0.2719,-0.39194 -0.42008,-0.30036 -0.32949,0.20364 -2.33832,-1.7078 -2.33832,-2.22496 0,-0.20419 -0.29714,-0.60498 -0.66032,-0.89066 -0.8969,-0.7055 -2.45068,-4.01864 -2.9172,-6.22039 -0.51261,-2.41924 -0.49144,-6.49128 0.0465,-8.93925 0.24073,-1.09554 0.53098,-1.9919 0.64502,-1.9919 0.11403,0 0.19393,-0.20835 0.17756,-0.46302 -0.0352,-0.54698 1.54141,-3.87985 2.02528,-4.28142 0.18426,-0.15293 0.40697,-0.20609 0.49492,-0.11814 0.088,0.0879 0.14184,-0.0799 0.11976,-0.373 -0.0469,-0.62284 1.28763,-2.19767 2.97894,-3.51532 1.70321,-1.3269 4.37489,-2.58123 6.21771,-2.91914 2.00875,-0.36834 6.02206,-0.19878 6.59744,0.27873 0.23474,0.19482 0.49749,0.28354 0.58388,0.19715 0.24863,-0.24863 2.4718,0.68671 4.06347,1.7096 1.57487,1.01209 3.43958,2.58336 3.43958,2.89831 0,0.10755 0.35719,0.55274 0.79375,0.9893 0.43657,0.43656 0.793753,0.9815 0.793753,1.21098 0,0.22947 0.11907,0.41723 0.26459,0.41723 0.14552,0 0.26458,0.17859 0.26458,0.39687 0,0.21828 0.10462,0.39687 0.23248,0.39687 0.12787,0 0.37801,0.38696 0.55587,0.8599 0.17786,0.47294 0.43291,1.09802 0.56678,1.38906 0.13387,0.29104 0.28987,0.76729 0.34668,1.05834 0.0568,0.29104 0.24204,0.88635 0.41163,1.32291 0.47898,1.23296 0.65378,7.30933 0.26323,9.14971 -0.18277,0.86126 -0.40977,1.56592 -0.50444,1.56592 -0.0947,0 -0.19199,0.26789 -0.21628,0.59531 -0.0648,0.87298 -1.80674,4.04716 -2.17443,3.96219 -0.173033,-0.04 -0.246513,0.0375 -0.163303,0.17212 0.437493,0.70786 -5.1344,5.15653 -5.88074,4.69526 -0.13008,-0.0804 -0.49434,0.094 -0.80947,0.38763 -0.51594,0.48067 -2.94676,1.41488 -2.94676,1.13249 0,-0.0636 -0.21515,-5.3e-4 -0.4781,0.14017 -0.80298,0.42974 -5.07665,0.54174 -6.66565,0.17468 z m 9.9708,-4.92748 c 1.88097,-0.71268 2.62523,-2.61315 1.8157,-4.63637 -0.31512,-0.78757 -0.6546,-1.14919 -1.29682,-1.38142 -1.21777,-0.44035 -2.4335,-0.39184 -3.42521,0.13669 -0.46572,0.2482 -0.90629,0.43691 -0.97905,0.41936 -0.1543,-0.0372 -0.33785,1.27154 -0.3497,2.49348 -0.0226,2.32645 2.06585,3.79016 4.23508,2.96826 z m -3.72873,-8.03932 c 1.09755,-1.0953 1.14474,-2.32403 0.12828,-3.34049 -1.19607,-1.19607 -2.90073,-1.05227 -3.60201,0.30386 -0.55026,1.06408 -0.483,1.67857 0.2834,2.58939 0.88283,1.04918 2.37722,1.25868 3.19033,0.44724 z m -4.58842,-4.95076 c 0.25466,-0.13204 0.46302,-0.16178 0.46302,-0.0661 0,0.0957 0.15978,0.0414 0.35507,-0.12069 0.19529,-0.16207 0.4525,-0.20642 0.57159,-0.0985 0.11908,0.10788 0.13086,0.0473 0.0262,-0.13459 -0.17387,-0.30213 0.139,-0.45651 0.72047,-0.3555 0.11995,0.0208 0.1451,-0.0802 0.0559,-0.2246 -0.0892,-0.14437 0.0805,-0.41408 0.3772,-0.59937 0.29669,-0.18528 0.53944,-0.47225 0.53944,-0.63771 0,-0.16546 0.1626,-0.43578 0.36133,-0.60072 0.19874,-0.16493 0.50496,-0.98319 0.6805,-1.81833 0.53151,-2.52876 -0.23739,-4.85473 -2.16837,-6.55941 -1.05204,-0.92874 -1.16036,-0.96442 -3.38207,-1.11383 -1.1842,-0.0796 -2.03545,0.0111 -2.69657,0.28729 -0.71317,0.29798 -0.9993,0.3223 -1.09291,0.0929 -0.0771,-0.18903 -0.13529,-0.15531 -0.14845,0.0861 -0.0119,0.21828 -0.37198,0.63159 -0.80017,0.91846 -0.42818,0.28688 -0.73064,0.56946 -0.67214,0.62797 0.0585,0.0585 -0.21098,0.52245 -0.59885,1.03098 -0.86333,1.13188 -0.91286,1.32188 -0.94891,3.64029 -0.0332,2.13357 0.36662,3.08641 1.94362,4.63219 0.71222,0.69811 1.38878,1.07023 2.29034,1.25969 1.3401,0.28162 3.33527,0.16238 4.12379,-0.24646 z m -54.04115,17.84303 c -2.646798,-0.47899 -5.989581,-2.12232 -8.069788,-3.96716 -1.506601,-1.33613 -3.061242,-3.26995 -2.873285,-3.57407 0.06951,-0.11248 0.0222,-0.20451 -0.105121,-0.20451 -0.265539,0 -1.20224,-2.21307 -1.679811,-3.96875 -0.36123,-1.32797 -0.454374,-6.83002 -0.149754,-8.8459 0.408803,-2.70533 2.681169,-8.08743 3.414578,-8.08743 0.111521,0 0.202768,-0.13899 0.202768,-0.30886 0,-0.45005 3.968224,-4.22061 4.255207,-4.04325 0.13349,0.0825 0.24271,0.042 0.24271,-0.09 0,-0.20495 1.961353,-1.23864 2.372677,-1.25047 0.07748,-0.002 0.289692,-0.0986 0.471593,-0.21406 0.181902,-0.1155 0.455007,-0.13319 0.606902,-0.0393 0.151897,0.0939 0.43702,0.0372 0.633608,-0.12596 0.196586,-0.16316 0.459266,-0.27011 0.583726,-0.23769 0.12446,0.0324 0.70254,-0.0255 1.28462,-0.12869 1.52883,-0.27107 5.08962,0.44013 7.12964,1.42402 0.95365,0.45993 1.7339,0.94286 1.7339,1.07318 0,0.13031 0.16453,0.23693 0.36563,0.23693 0.39738,0 2.94166,2.23036 2.94166,2.57871 0,0.11742 0.44043,0.75098 0.97873,1.40791 1.05182,1.28361 2.38582,3.90877 2.16656,4.26354 -0.0736,0.11908 -0.0261,0.21651 0.10558,0.21651 0.44909,0 1.11476,3.96261 1.11476,6.63602 0,4.01946 -0.89472,7.29378 -2.82457,10.33684 -0.97615,1.53923 -2.09946,2.87089 -2.42171,2.87089 -0.13935,0 -0.32189,0.17859 -0.40565,0.39687 -0.0838,0.21828 -0.33463,0.39688 -0.55748,0.39688 -0.22285,0 -0.40659,0.14883 -0.40832,0.33073 -0.002,0.1819 -0.7161,0.72235 -1.5875,1.20099 -0.87139,0.47865 -1.58436,0.79149 -1.58436,0.69521 0,-0.0963 -0.17188,-0.0324 -0.38195,0.14193 -0.99337,0.82443 -5.1712,1.31044 -7.55555,0.87896 z m 9.48003,-5.0878 c 1.20286,-0.32389 1.89706,-1.5288 1.89706,-3.29269 0,-2.02354 -1.80853,-3.52679 -3.72342,-3.09491 -1.09924,0.24792 -2.02394,0.79628 -2.26421,1.34272 -0.27056,0.61534 -0.54662,3.18069 -0.34227,3.18069 0.0991,0 0.3294,0.36001 0.51166,0.80002 0.18226,0.44001 0.49578,0.89202 0.69671,1.00447 0.57993,0.32454 2.13407,0.35332 3.22447,0.0597 z m -3.298,-8.23339 c 0.94506,-0.74339 0.96758,-2.25756 0.0483,-3.24946 -1.37169,-1.48008 -3.8491,-0.46836 -3.8491,1.57189 0,0.47948 0.12101,0.94658 0.2689,1.03798 0.1479,0.0914 0.18834,0.30679 0.0899,0.47864 -0.0985,0.17184 -0.0862,0.22882 0.0272,0.1266 0.11341,-0.10221 0.37913,-0.0129 0.59048,0.19844 0.5566,0.5566 2.01591,0.47182 2.82434,-0.16409 z m -2.57931,-5.53483 c 1.77999,-1.19452 2.76675,-2.92514 2.9468,-5.1682 0.11594,-1.44433 0.0334,-1.87524 -0.62674,-3.27329 -0.66642,-1.41131 -0.9446,-1.70826 -2.25407,-2.40619 -1.93508,-1.03139 -3.96861,-1.08777 -5.917665,-0.16408 -1.677807,0.79516 -2.351865,1.44766 -3.176449,3.0749 -1.061429,2.09463 -0.796073,5.51067 0.512415,6.59662 0.225087,0.18681 0.363527,0.41545 0.307642,0.50811 -0.09671,0.16032 0.356473,0.69714 0.636601,0.75409 0.482084,0.098 1.5875,0.72737 1.5875,0.90385 0,0.11765 1.041796,0.18439 2.315106,0.14829 2.14558,-0.0608 2.41423,-0.13214 3.66886,-0.9741 z m -33.1101456,44.69406 1.716206,-0.29886 -0.118044,-0.92199 c -0.06492,-0.5071 -0.406603,-1.65612 -0.759285,-2.5534 -0.743961,-1.89273 -2.28850303,-10.93296 -3.08010403,-18.0279 -0.29177997,-2.61515 -0.53050897,-4.9071 -0.53050897,-5.09322 0,-1.19505 -1.944732,1.35799 -3.733019,4.90068 -0.638974,1.26584 -1.280834,2.38901 -1.426355,2.49592 -0.145521,0.10691 -0.184134,0.19621 -0.08581,0.19844 0.09833,0.002 -0.117986,0.74819 -0.480693,1.6577 -0.362709,0.9095 -0.699934,1.83224 -0.74939,2.05052 -0.810873,3.57889 -0.987594,5.08239 -0.868351,7.38768 0.347839,6.72468 3.576216,9.34317 10.115351,8.20443 z M 140.65601,164.23337 c 2.84304,-1.06371 4.60293,-3.73836 4.85214,-7.37415 0.16865,-2.46052 -0.48349,-6.78196 -1.38009,-9.14516 -1.1924,-3.1429 -2.59739,-6.34022 -2.93395,-6.67679 -0.18855,-0.18855 -0.41939,-0.58407 -0.51298,-0.87894 -0.16852,-0.53096 -1.25066,-1.84199 -1.5204,-1.84199 -0.077,0 -0.21911,1.10133 -0.31579,2.44739 -0.58809,8.18823 -1.91557,19.21684 -2.65456,22.05403 -0.22046,0.84641 -0.40084,1.63297 -0.40084,1.74791 0,0.4395 3.42957,0.20532 4.86647,-0.3323 z M 78.554247,71.372254 c 1.13832,-0.148 2.50368,-0.32135 3.03415,-0.38522 1.39427,-0.16788 5.4516,-1.54901 6.84073,-2.32862 0.65484,-0.36751 1.39959,-0.94803 1.65499,-1.29003 0.64241,-0.86024 1.17735,-4.17722 1.54149,-9.558366 0.34361,-5.077655 0.19346,-8.356335 -0.46005,-10.045466 -0.47717,-1.233347 -1.97485,-3.382267 -2.24343,-3.218958 -0.0926,0.05633 -0.32366,-0.08457 -0.51334,-0.313126 -0.18968,-0.228555 -1.03988,-0.76639 -1.88934,-1.195192 -5.20598,-2.627974 -15.82245,-4.761566 -23.8872,-4.80061 -3.48927,-0.01691 -4.14455,0.05067 -5.42395,0.559284 -2.51488,0.999754 -3.29014,2.03772 -4.21089,5.637839 -0.82034,3.207512 -1.10046,5.796187 -1.2549,11.597139 -0.11433,4.29445 -0.0546,5.974936 0.28696,8.069796 0.54105,3.3186 0.48399,3.09963 1.02132,3.91971 0.24934,0.38053 0.45334,0.79838 0.45334,0.92854 0,0.57476 6.92712,2.21452 10.58333,2.50525 2.78035,0.22108 12.56221,0.16566 14.46679,-0.082 z m 27.777863,-5.0278 c 1.18816,-0.27682 2.96711,-0.88452 3.95323,-1.35044 2.87374,-1.35778 4.07295,-2.70309 4.07295,-4.56915 0,-0.732219 -1.06747,-4.47943 -2.00543,-7.039769 -0.08,-0.218281 -0.14783,-0.456406 -0.15081,-0.529166 -0.003,-0.07276 -0.1022,-0.251355 -0.22048,-0.396875 -0.53427,-0.65731 -3.14226,-6.063962 -3.02026,-6.261351 0.0751,-0.121518 0.0122,-0.220941 -0.1398,-0.220941 -0.15199,0 -0.54597,-0.401574 -0.87551,-0.892386 -1.94122,-2.891229 -3.08591,-4.37719 -4.65723,-6.045742 -1.73501,-1.84236 -2.90011,-2.586871 -4.048273,-2.586871 -0.92702,0 -4.21383,1.600038 -5.57241,2.71268 -1.2784,1.04698 -1.40988,1.617805 -0.43154,1.873647 0.29562,0.07731 0.46732,0.254095 0.38155,0.392866 -0.0858,0.138772 0.0741,0.312457 0.35517,0.385969 0.28111,0.07351 0.92576,0.781854 1.43255,1.574096 1.07128,1.674683 1.6199,4.024649 1.86992,8.009699 0.18575,2.960473 -0.19177,10.517724 -0.6596,13.204234 -0.45725,2.62567 -0.42534,2.64511 3.977093,2.4232 1.96823,-0.0992 4.55073,-0.40688 5.73888,-0.6837 z m -68.835273,-0.67188 c 2.32833,-0.36356 5.18583,-0.84656 6.35,-1.07332 l 2.11666,-0.41231 v -5.599363 c 0,-3.079649 0.0944,-6.523119 0.20968,-7.652157 l 0.20968,-2.052796 -0.73885,-0.316558 c -0.45758,-0.196056 -2.1489,-0.315312 -4.44301,-0.31328 -3.13066,0.0028 -4.15477,0.114472 -6.61458,0.721471 -4.971432,1.226788 -7.986859,2.370378 -9.622243,3.649205 -0.344524,0.269409 -0.734428,0.423076 -0.866449,0.341484 -0.132025,-0.0816 -0.211797,-0.05021 -0.177274,0.06975 0.03452,0.119956 -0.09687,0.506722 -0.291989,0.859475 -0.517943,0.936408 -0.205459,3.326227 0.884825,6.766962 1.039183,3.279477 1.709891,5.140747 1.727145,4.792967 0.0064,-0.12877 0.257622,0.0786 0.558299,0.46088 0.54518,0.69308 0.554866,0.69462 3.505726,0.55681 1.62748,-0.076 4.86405,-0.43565 7.19238,-0.79922 z m 12.79291,-27.96404 c 0.27129,0.05904 0.41332,-0.264253 0.34109,-0.776365 -0.0384,-0.272042 2.36247,-2.326431 3.27016,-2.798273 1.73973,-0.90434 4.89024,-1.386533 9.12813,-1.397076 2.25557,-0.0056 4.63682,0.08671 5.29167,0.205158 2.527,0.457086 2.97163,-0.20315 1.38506,-2.056696 -1.15445,-1.348724 -2.04466,-1.496796 -5.57872,-0.927934 -4.52866,0.728962 -9.43305,2.390622 -14.19489,4.809382 -3.2782,1.665155 -3.53416,2.18242 -2.35524,4.759798 l 0.68746,1.50295 0.86066,-1.693545 c 0.47337,-0.93145 0.99745,-1.66378 1.16462,-1.627399 z"
       id="path2761" /></g></svg>
