<?xml version="1.0" encoding="UTF-8" standalone="no"?>
<!-- Created with Inkscape (http://www.inkscape.org/) -->

<svg
   width="160.93166mm"
   height="198.45465mm"
   viewBox="0 0 160.93165 198.45466"
   version="1.1"
   id="svg1"
   xml:space="preserve"
   xmlns="http://www.w3.org/2000/svg"
   xmlns:svg="http://www.w3.org/2000/svg"><defs
     id="defs1"><clipPath
       clipPathUnits="userSpaceOnUse"
       id="clipPath17"><path
         id="path18"
         style="fill:#ff0000;fill-opacity:1;fill-rule:nonzero;stroke:none;stroke-width:0.264583"
         d="M -25.235152,37.242689 V 270.91164 H 238.30018 V 37.242689 Z M 163.00865,61.136321 c 1.00593,0.01027 2.01177,0.129151 3.00654,0.274402 0.0945,0.0123 0.18828,0.02967 0.28267,0.04289 1.40013,-0.11035 2.80207,-0.195723 4.20543,-0.250629 1.04583,-0.03982 2.09242,-0.04861 3.13882,-0.05581 1.05602,-0.03355 2.10497,0.112498 3.15382,0.210841 0.83941,0.07881 1.68308,0.09226 2.52542,0.108519 1.19372,0.01828 2.38786,0.02246 3.5817,0.02635 1.4785,0.0049 2.57492,0.376328 3.37344,0.906923 5.8149,-0.01598 6.05459,6.055249 -0.154,6.516915 -1.17055,0.08704 -2.34244,0.197146 -3.51762,0.166396 -1.76579,-0.0094 -3.53186,-0.01873 -5.29735,-0.05684 -1.64332,-0.04029 -3.2879,-0.09339 -4.92476,-0.253732 -1.29446,-0.13066 -2.58749,-0.268216 -3.88245,-0.39274 -0.12659,-0.01751 -0.25236,-0.0399 -0.37879,-0.05839 -0.29575,0.03227 -0.60747,0.05013 -0.93689,0.05013 h -1.52601 -2.64997 c -0.33347,0 -0.64877,-0.0181 -0.94774,-0.05116 -1.01589,0.08506 -2.0302,0.1925 -3.04839,0.243911 -1.67197,0.0616 -3.34266,0.180295 -5.01624,0.168984 -6.44593,-0.04358 -6.44599,-6.545336 0,-6.511747 1.59323,0.0083 3.18409,-0.105273 4.77594,-0.164333 0.12324,-0.0066 0.24607,-0.01871 0.36897,-0.02997 0.35481,-0.158716 0.75343,-0.28857 1.20044,-0.378788 0.72307,-0.302107 1.56707,-0.523341 2.66702,-0.512112 z" /></clipPath><clipPath
       clipPathUnits="userSpaceOnUse"
       id="clipPath40"><path
         id="path41"
         style="fill:#ff0000;fill-opacity:1;fill-rule:nonzero;stroke:none;stroke-width:0.264583"
         d="M -19.272076,65.911675 V 212.42263 H 205.01243 V 65.911675 Z m 87.229818,18.252633 c 0.602083,-0.0053 1.295733,0.07598 2.079977,0.260966 2.779273,0.655569 5.139084,2.406764 7.5029,3.929992 2.162752,1.483292 1.105906,0.742341 3.170865,2.219503 5.242782,3.750407 1.450276,9.048741 -3.789947,5.294767 C 75.012065,94.50164 75.98144,95.182828 74.012668,93.828318 72.97484,93.159102 72.22527,92.666707 71.187518,92.029461 70.533669,91.627955 69.787722,91.18794 69.116844,90.871392 64.015828,88.464502 63.743162,84.201087 67.957742,84.164308 Z M 189.15396,131.8415 c 4.41004,-0.007 5.1514,4.97266 -0.25631,6.57583 -0.15651,0.0464 -0.31323,0.0926 -0.46974,0.13901 -1.2158,0.35863 -2.45051,0.63735 -3.69487,0.8785 -1.85992,0.32882 -3.70994,0.71297 -5.57227,1.02887 -1.8602,0.32087 -3.74167,0.4938 -5.59294,0.87127 -2.62623,0.48763 -5.26523,0.8618 -7.93181,1.0511 -2.23508,0.193 -4.46586,0.44879 -6.70554,0.57929 -6.43519,0.37496 -6.4258,-6.00049 0,-6.51175 2.05016,-0.16311 4.09582,-0.37773 6.14485,-0.555 2.45631,-0.16972 4.88515,-0.51651 7.30343,-0.96583 1.87059,-0.39855 3.77979,-0.54871 5.66012,-0.88367 1.8577,-0.31636 3.70346,-0.69731 5.55883,-1.0263 0.99821,-0.20361 1.99435,-0.41081 2.96985,-0.70641 0.1597,-0.0473 0.31934,-0.0948 0.47904,-0.14211 0.77253,-0.22904 1.47735,-0.33173 2.10736,-0.3328 z M -5.7530046,148.16195 c 0.85623,-0.025 1.8546305,0.17139 2.9569254,0.66714 1.86272594,0.83773 3.39043514,2.21443 4.9015097,3.55586 4.8206414,4.27944 0.4632071,9.16414 -4.334619,4.85913 -1.0757043,-0.96515 -2.1401405,-1.99981 -3.4788576,-2.59053 -4.7916119,-2.11454 -3.7552844,-6.38335 -0.044958,-6.4916 z m 81.8099936,13.64 c 1.098045,0.0233 2.40573,0.5574 3.718119,1.80815 0.829405,0.79047 1.643962,1.59649 2.452563,2.40864 1.493176,1.49974 1.98537,2.99575 1.829863,4.17598 1.492433,0.0351 3.031784,1.43061 3.386357,4.36407 l 0.05426,0.44907 c 0.773512,6.39952 -5.724562,7.17178 -6.465755,0.76843 -0.0114,-0.0989 -0.02323,-0.19773 -0.03462,-0.29663 -0.138457,-1.19611 -0.02635,-2.2 0.251145,-3.00136 -1.083416,-0.0411 -2.358634,-0.58239 -3.635952,-1.86552 -0.805148,-0.80881 -1.615628,-1.61173 -2.442229,-2.39831 -3.356371,-3.19383 -1.919856,-6.47215 0.886251,-6.41252 z m -60.033029,6.8957 c 1.002662,0.0364 2.189181,0.48856 3.431833,1.51464 1.40874,1.16318 2.99021,2.10926 4.527889,3.09076 1.609955,1.01014 3.261037,1.9498 4.937683,2.84376 5.688074,3.03277 2.61583,8.78453 -3.068031,5.74383 -1.824244,-0.97593 -3.622934,-1.99749 -5.374349,-3.10007 -1.732079,-1.10684 -3.50374,-2.18295 -5.09116,-3.49384 -3.727815,-3.0784 -2.371834,-6.70818 0.636135,-6.59908 z" /></clipPath><clipPath
       clipPathUnits="userSpaceOnUse"
       id="clipPath86"><path
         id="path87"
         style="fill:#ff0000;fill-opacity:1;fill-rule:nonzero;stroke:none;stroke-width:0.264583"
         d="M 114.72956,75.257996 V 249.26495 H 351.20143 V 75.257996 Z m 48.22445,8.320422 c 6.44589,-0.03899 6.30384,5.165408 0,6.511748 -0.81337,0.173702 -1.53987,0.716689 -2.24741,1.133264 -0.80856,0.544762 -0.40718,0.264098 -1.20406,0.843359 -1.74642,1.269504 -3.32706,1.502955 -4.47466,1.13068 -0.20928,0.20013 -0.41583,0.403472 -0.62529,0.601514 -0.48804,0.499343 -0.98536,0.98857 -1.46606,1.494999 -4.43771,4.675337 -9.16812,0.167387 -4.71392,-4.492232 0.56123,-0.587108 1.13493,-1.161141 1.70842,-1.736328 1.32776,-1.25334 2.69546,-2.488553 4.45916,-3.086633 0.95385,-0.323463 1.80379,-0.459417 2.53628,-0.448035 0.19299,0.003 0.37543,0.01867 0.5519,0.04134 1.6975,-0.99261 3.45056,-1.981427 5.47564,-1.993677 z m 85.15604,17.535882 c 2.69441,-0.0723 4.70159,3.81672 1.26969,6.92929 -0.13983,0.12681 -0.27979,0.25353 -0.41961,0.38034 -4.77483,4.33053 -7.55221,0.33851 -4.06746,-5.08444 0.008,-0.0122 0.0158,-0.0245 0.0238,-0.0367 0.98005,-1.52522 2.13926,-2.16022 3.1936,-2.1885 z m -25.82426,41.77574 c 0.75739,-0.0101 1.69941,0.42466 2.6634,1.4733 0.33877,0.36851 0.6388,0.76818 0.93741,1.16892 1.38184,1.85445 1.10139,3.47849 0.13849,4.14858 0.55609,0.58353 1.07037,1.36846 1.45831,2.46187 0.38898,1.0963 0.56368,2.24835 0.7183,3.39824 0.14974,0.33082 0.28741,0.69057 0.40721,1.08779 0.44935,1.48987 0.59951,3.04827 0.76998,4.58887 0.70895,6.40695 -5.76928,7.12078 -6.47247,0.71313 -0.0931,-0.84866 -0.17398,-1.70417 -0.32815,-2.54506 -0.35012,-0.64992 -0.62338,-1.44697 -0.74982,-2.4381 -0.10766,-0.84384 -0.20161,-1.7004 -0.44183,-2.51871 -0.84643,-2.88319 -0.0396,-4.87508 1.2733,-5.58622 -0.16056,-0.17017 -0.31929,-0.3597 -0.47439,-0.57154 -0.16107,-0.21999 -0.33196,-0.43171 -0.49247,-0.65164 -1.84732,-2.53128 -1.07356,-4.70723 0.59273,-4.72943 z m -94.29761,13.52631 c 1.86003,-0.0561 3.51897,2.2284 2.71922,5.97121 -0.47718,2.23323 -0.59124,4.52771 -0.74311,6.80062 -0.11841,2.0914 -0.0641,1.06801 -0.1633,3.06906 -0.31909,6.43821 -6.82328,6.11572 -6.50348,-0.32246 0.1028,-2.06947 0.0465,-1.00871 0.17002,-3.18223 0.19481,-2.89694 0.31917,-5.8502 1.14256,-8.65115 0.73856,-2.51243 2.10544,-3.64667 3.37809,-3.68505 z m 212.17465,26.37617 c 0.0442,-0.001 0.0887,-7.9e-4 0.13332,0.001 0.97667,0.0407 2.0297,0.84807 2.53215,2.63033 0.64906,2.30226 0.7209,4.74418 0.89917,7.11998 0.0393,0.48142 0.0785,0.96295 0.11782,1.44436 0.37088,4.54297 -4.21882,4.91767 -4.58938,0.37465 -0.0401,-0.49154 -0.0798,-0.98331 -0.11989,-1.47484 -0.0904,-1.2086 -0.13175,-1.83925 -0.24547,-3.0453 -0.0795,-0.84346 -0.11128,-1.80821 -0.32349,-2.6417 -0.0278,-0.10929 -0.0713,-0.21443 -0.10697,-0.32142 -0.82908,-2.48725 0.33164,-4.0462 1.70274,-4.08709 z m -212.3581,14.28388 c 1.29066,-0.0977 2.87005,0.69407 4.15685,2.7404 1.03993,1.65373 2.07054,3.31379 3.16105,4.93458 1.35653,1.93395 2.82868,3.79654 4.61057,5.36143 1.8796,1.72787 3.80331,3.40858 5.74332,5.06791 1.66467,1.39921 3.37114,2.74111 5.19917,3.92379 1.57522,1.03023 3.13828,2.09964 4.83949,2.91455 1.6033,0.78955 3.19667,1.59925 4.82555,2.33578 1.66808,0.81743 3.33808,1.64111 5.07669,2.29908 1.42149,0.53349 2.85835,1.02583 4.29121,1.52756 1.10813,0.36494 2.22452,0.70494 3.37034,0.92914 1.2128,0.28649 2.44101,0.50997 3.67161,0.70435 1.15446,0.14526 2.30313,0.32256 3.47111,0.21601 1.09196,-0.0323 2.18723,-0.0596 3.27215,-0.19689 0.93985,-0.13748 1.87283,-0.31481 2.80965,-0.46974 1.11323,-0.24861 2.22544,-0.4978 3.34915,-0.6966 1.09352,-0.19069 2.16338,-0.49277 3.25664,-0.68678 1.17473,-0.1974 2.34195,-0.44017 3.5078,-0.68316 1.50419,-0.35882 3.00148,-0.74433 4.50825,-1.09192 1.06162,-0.2774 2.09294,-0.64314 3.08457,-1.1157 0.92405,-0.41652 1.83353,-0.86392 2.76779,-1.25677 0.85291,-0.32719 1.67301,-0.73108 2.48874,-1.1405 0.66896,-0.34686 1.34883,-0.66919 1.95595,-1.12189 0.66236,-0.4741 1.35124,-0.91656 2.06654,-1.30638 0.49182,-0.3145 0.97493,-0.647 1.47846,-0.93845 0.5495,-0.41714 1.08595,-0.85098 1.65055,-1.2485 0.42101,-0.30896 0.78779,-0.73855 1.20767,-1.0666 0.44604,-0.42406 0.91731,-0.81869 1.33997,-1.26659 0.31068,-0.40143 0.66676,-0.76917 0.8692,-1.23765 0.36799,-0.79174 0.76009,-1.58102 1.31827,-2.25929 0.47029,-0.71337 0.93625,-1.42802 1.35599,-2.173 0.5469,-0.89569 1.09493,-1.79448 1.49913,-2.76624 0.23749,-0.5292 0.46891,-1.06156 0.68213,-1.60093 -0.067,-0.34557 -0.11463,-0.71623 -0.13798,-1.11363 -0.0405,-0.68981 -0.0771,-1.38019 -0.15503,-2.06706 -0.38601,-3.40262 1.24725,-5.22494 2.97708,-5.22552 1.49393,-5.3e-4 3.04387,1.38052 3.44372,4.25142 0.7939,0.94343 1.16286,2.54466 0.56999,4.68912 -0.35654,1.28964 -0.89231,2.51504 -1.43867,3.73259 -0.51421,1.22061 -1.19309,2.35856 -1.87947,3.48764 -0.45927,0.80787 -0.96638,1.58492 -1.47485,2.36213 -0.36516,0.42449 -0.61643,0.88712 -0.83974,1.39268 -0.38897,0.93466 -1.02612,1.71924 -1.63918,2.51199 -0.584,0.74548 -1.31747,1.34487 -1.99781,1.99575 -0.6128,0.54422 -1.20234,1.10817 -1.85311,1.60714 -0.51855,0.37139 -1.02694,0.75562 -1.52601,1.15393 -0.62959,0.42835 -1.27598,0.83184 -1.91461,1.24747 -0.60354,0.35195 -1.21728,0.68843 -1.77767,1.10794 -0.86749,0.64425 -1.82635,1.13578 -2.78174,1.63194 -1.01747,0.52086 -2.05305,1.00431 -3.11609,1.42472 -0.82438,0.36449 -1.63713,0.75504 -2.45876,1.12707 -1.31195,0.6236 -2.68282,1.09156 -4.08244,1.47174 -1.5628,0.36405 -3.11717,0.76141 -4.67775,1.13481 -1.30715,0.27871 -2.61777,0.54615 -3.93568,0.76998 -1.06885,0.21243 -2.1237,0.48161 -3.19619,0.67645 -1.03182,0.18118 -2.05145,0.41242 -3.0732,0.6413 -1.09244,0.19403 -2.18454,0.39494 -3.28248,0.55759 -1.33451,0.18204 -2.68251,0.22283 -4.02715,0.26303 -1.50244,0.11325 -2.99086,-0.077 -4.47776,-0.26406 -1.45351,-0.21412 -2.89746,-0.49388 -4.32945,-0.82166 -1.33275,-0.26881 -2.63543,-0.66282 -3.92689,-1.08417 -1.51982,-0.52898 -3.04132,-1.05441 -4.54856,-1.6185 -1.9366,-0.72851 -3.79837,-1.63971 -5.65547,-2.54817 -1.63357,-0.73816 -3.23122,-1.5508 -4.83898,-2.34249 -1.94046,-0.92849 -3.73048,-2.13149 -5.5268,-3.30626 -2.04413,-1.32509 -3.95883,-2.82307 -5.8229,-4.38733 -2.0142,-1.72155 -4.00982,-3.46648 -5.96139,-5.25911 -2.12684,-1.87813 -3.89795,-4.0986 -5.52886,-6.40788 -1.15848,-1.71139 -2.24908,-3.46788 -3.34915,-5.21725 -2.14468,-3.41054 -0.79562,-6.04345 1.35547,-6.20634 z m 67.15404,37.62923 c 1.44667,0.002 3.12446,1.21566 4.02508,3.88813 0.12205,0.36218 0.0486,0.13868 0.21239,0.67335 1.8881,6.16335 -4.33865,8.07045 -6.22598,1.90686 -0.19147,-0.62532 -0.0902,-0.29194 -0.30386,-1.00098 -1.04595,-3.47176 0.43237,-5.47038 2.29237,-5.46736 z" /></clipPath><clipPath
       clipPathUnits="userSpaceOnUse"
       id="clipPath97"><path
         id="path98"
         style="fill:#ff0000;fill-opacity:1;fill-rule:nonzero;stroke:none;stroke-width:0.264583"
         d="M 223.02424,80.592554 V 256.79162 H 467.43206 V 80.592554 Z m 92.78659,36.018476 c 3.08109,0.0896 3.3371,3.56095 -0.49093,4.68033 -1.18504,0.34653 -2.30916,0.87331 -3.44217,1.35754 -4.19131,1.79133 -6.00109,-2.44264 -1.8097,-4.23385 1.39363,-0.59558 2.78029,-1.2397 4.25297,-1.6185 0.55181,-0.14194 1.04967,-0.19832 1.48983,-0.18552 z m -38.88858,2.66702 c 2.55963,-0.0555 3.30316,2.98343 0.0243,4.70514 -2.83749,1.48994 -5.64852,3.03062 -8.46615,4.55786 -3.15893,1.707 -6.29857,3.44707 -9.38599,5.2803 -3.91922,2.32713 -6.2706,-1.63414 -2.35024,-3.95945 3.1396,-1.86222 6.32989,-3.63505 9.54205,-5.36918 2.86222,-1.55141 5.71716,-3.11682 8.60103,-4.62763 0.75704,-0.3966 1.44433,-0.57424 2.03502,-0.58704 z m -26.27282,28.03601 c 1.14598,2.5e-4 2.34682,1.13891 2.46703,3.41478 0.20428,3.86743 0.88974,7.69403 1.54978,11.50369 1.05692,5.64397 2.03739,11.30245 2.7528,17.00103 0.4513,3.59484 0.5646,4.98522 0.91623,8.55659 0.44296,4.81769 0.60643,9.65371 0.74827,14.48748 0.1337,4.55613 -4.46896,4.69101 -4.6023,0.13488 -0.13838,-4.72829 -0.29646,-9.45852 -0.72812,-14.17123 -0.34413,-3.50075 -0.45531,-4.86779 -0.89659,-8.38967 -0.70705,-5.6429 -1.68145,-11.24541 -2.72748,-16.83411 -0.70303,-4.06792 -1.43588,-8.15662 -1.61696,-12.28866 -0.0998,-2.27686 0.99136,-3.41502 2.13734,-3.41478 z" /></clipPath><clipPath
       clipPathUnits="userSpaceOnUse"
       id="clipPath124"><path
         id="path125"
         style="fill:#ff0000;fill-opacity:1;fill-rule:nonzero;stroke:none;stroke-width:0.264583"
         d="M 213.922,2.5205054 V 209.67737 H 482.05551 V 2.5205054 Z M 472.52172,59.980563 c 1.14524,-1.6e-4 2.25956,1.138898 2.20865,3.417363 -0.0395,1.767795 -0.29555,3.518314 -0.63303,5.250842 -0.32021,1.662208 -0.90755,3.245756 -1.47381,4.833814 -0.3945,1.04846 -0.73321,2.113653 -1.15394,3.152262 -0.25667,0.578417 -0.13651,0.307636 -0.3607,0.812354 -1.85037,4.165584 -6.05852,2.296389 -4.20801,-1.869137 0.20676,-0.465438 0.10599,-0.240968 0.30127,-0.672827 0.39687,-0.978062 0.70933,-1.984641 1.08521,-2.970878 0.49081,-1.373359 1.0113,-2.738642 1.29242,-4.175973 0.28758,-1.43825 0.49832,-2.892527 0.54622,-4.360457 0.0744,-2.277821 1.25049,-3.417201 2.39572,-3.417363 z m -117.5675,85.493487 c 1.80275,0.0423 2.69872,2.30289 0.55604,4.64416 -0.46326,0.5062 -0.89256,1.04204 -1.3286,1.57148 -2.89771,3.51845 -6.45175,0.59078 -3.55379,-2.92747 0.53004,-0.64348 1.05163,-1.29574 1.62677,-1.90014 0.88376,-0.92866 1.77142,-1.3433 2.52233,-1.38493 0.06,-0.003 0.1191,-0.004 0.17725,-0.003 z m -27.82466,5.1139 c 3.77249,0.0585 3.98664,4.1124 -0.25683,4.61574 -1.21784,0.14446 -2.43006,0.31895 -3.63337,0.55759 -4.47098,0.88669 -4.96274,-3.60853 -0.50849,-4.57595 1.18673,-0.25775 2.39206,-0.4098 3.59668,-0.55397 0.28282,-0.0339 0.55051,-0.0473 0.80201,-0.0434 z m 20.19309,1.17151 c 1.74702,0.0529 2.68021,2.01197 0.70538,4.31756 -0.83563,0.97559 -1.74676,1.87944 -2.68614,2.75384 1.27203,0.77054 1.30662,2.85083 -1.04955,4.4018 -0.077,0.0507 -0.15348,0.10127 -0.23048,0.15193 -2.33017,1.53384 -4.18294,0.68136 -4.39508,-0.78238 -2.21735,0.0868 -3.1918,-2.52858 -0.42426,-4.62453 0.30802,-0.23327 0.61595,-0.46643 0.92397,-0.6997 1.46715,-1.24074 2.88737,-2.53721 4.17804,-3.96358 0.95572,-1.05619 1.96321,-1.52029 2.80655,-1.55391 0.058,-0.002 0.11521,-0.003 0.17157,-0.001 z m -93.76327,10.43967 c 0.19473,-0.001 0.39857,0.007 0.61133,0.0269 0.44623,0.0411 0.89416,0.0634 1.34152,0.0879 4.55135,0.24684 4.30009,4.84748 -0.25115,4.59765 -0.51651,-0.0283 -1.03311,-0.055 -1.54822,-0.10387 -4.325,-0.41042 -4.11297,-4.58028 -0.15348,-4.6085 z m 73.5676,2.2686 c 0.0649,-7.9e-4 0.12885,-7.9e-4 0.19172,5.3e-4 3.77219,0.0827 3.96093,4.13477 -0.28525,4.61419 -1.18197,0.13345 -2.36701,0.28691 -3.55896,0.27234 -4.55775,-0.0557 -4.55781,-4.65524 0,-4.60437 1.01885,0.0114 2.03197,-0.12919 3.04219,-0.2434 0.21231,-0.024 0.41571,-0.0367 0.6103,-0.0393 z" /></clipPath><clipPath
       clipPathUnits="userSpaceOnUse"
       id="clipPath168"><path
         id="path169"
         style="fill:#ff0000;fill-opacity:1;fill-rule:nonzero;stroke:none;stroke-width:0.264583"
         d="M 258.04047,-57.932165 V 172.86925 H 527.00028 V -57.932165 Z m 75.45483,79.92742 c 2.91169,-0.02555 3.73073,2.387283 2.01796,3.75946 0.26244,0.746154 0.57877,1.475073 0.87954,2.206067 0.64271,1.558858 1.25746,3.129166 1.89755,4.689119 0.46388,1.147894 0.98523,2.272063 1.50534,3.395659 0.51294,1.122482 1.10866,2.204418 1.67845,3.298506 0.49518,0.929727 1.01655,1.844689 1.53944,2.759005 0.49539,0.911531 0.97329,1.833273 1.41542,2.771924 0.29973,0.727148 0.60701,1.453161 0.84801,2.20245 0.11129,0.354766 0.17658,0.72026 0.23978,1.085721 0.77691,4.491361 -3.84861,5.263725 -4.54133,0.75861 -0.0238,-0.154854 -0.0476,-0.310379 -0.0904,-0.46147 -0.16745,-0.55764 -0.42084,-1.085914 -0.62477,-1.630392 -0.38594,-0.827795 -0.81252,-1.635906 -1.24385,-2.440677 -0.55288,-0.966768 -1.10371,-1.935088 -1.62626,-2.918685 -0.60302,-1.157972 -1.23178,-2.303246 -1.77353,-3.491777 -0.54762,-1.185037 -1.09662,-2.3711 -1.58647,-3.581177 -0.63932,-1.558674 -1.25368,-3.127827 -1.89549,-4.685502 -0.34547,-0.839983 -0.7107,-1.6841 -1.00459,-2.548165 -0.29384,0.109213 -0.59121,0.2085 -0.88264,0.319361 -0.53088,0.255907 -1.07037,0.502548 -1.57044,0.815454 -3.86398,2.417798 -6.36131,-1.324897 -2.55385,-3.830774 0.67008,-0.441019 1.39983,-0.781011 2.12028,-1.130164 0.74126,-0.323646 1.49929,-0.613577 2.2779,-0.834057 0.71849,-0.180354 1.44024,-0.337693 2.17351,-0.444418 0.28191,-0.04103 0.54902,-0.06187 0.80047,-0.06408 z m -29.69431,9.546187 c 2.57926,0.06047 3.22785,3.110728 -0.1323,4.667932 -0.15523,0.07194 -0.25084,0.09397 -0.38395,0.187586 -0.48817,0.349876 -0.96729,0.71236 -1.46968,1.04283 -0.61798,0.366867 -1.22926,0.751422 -1.87999,1.057816 -4.1237,1.941745 -5.80657,-2.03403 -1.81332,-4.231783 0.45279,-0.249197 0.89628,-0.519185 1.341,-0.783931 0.36517,-0.277525 0.74784,-0.531548 1.11363,-0.808219 0.3531,-0.269757 0.75544,-0.455513 1.156,-0.641305 0.7753,-0.35961 1.47338,-0.504879 2.06861,-0.490926 z m 43.33792,23.493656 c 1.18714,0.0405 1.91526,0.600697 2.21537,1.310515 2.18209,0.300918 2.67463,3.038054 -0.39171,4.642093 -0.57522,0.300908 -1.15384,0.595876 -1.72496,0.904338 -2.52379,1.363099 -4.35734,0.29387 -4.37493,-1.231448 -0.0351,-0.01746 -0.0884,-0.02021 -0.12195,-0.03876 -3.69805,0.83002 -5.13807,-2.499553 -1.27848,-4.300513 1.00567,-0.469246 2.10185,-0.66159 3.18327,-0.867647 0.68642,-0.147027 0.35479,-0.06831 0.99632,-0.235127 0.55143,-0.143391 1.0521,-0.198639 1.49707,-0.183451 z m 9.57151,19.504754 c 2.95806,-0.01886 3.66453,2.781898 1.21904,4.118094 0.10883,0.261329 0.20877,0.538859 0.28836,0.849559 0.35967,1.404125 0.78784,2.797942 1.19683,4.190444 0.35992,1.244679 0.77341,2.471473 1.20612,3.691763 0.11636,0.06951 0.23431,0.144505 0.35347,0.226343 2.07621,1.425938 3.33868,3.655338 4.60179,5.768642 0.86597,1.469805 1.66413,2.977269 2.45514,4.488098 0.95008,1.814645 0.64743,3.242465 -0.16381,3.901055 1.49302,1.78617 3.00191,3.57014 4.28398,5.51232 0.28286,0.42851 0.48074,0.83545 0.61184,1.2175 0.006,0.009 0.014,0.0172 0.0202,0.0263 0.48628,0.73085 0.80357,1.54566 1.14567,2.34818 0.23487,0.57302 0.42494,1.16205 0.61701,1.75028 0.14548,0.44556 0.19435,0.83905 0.22686,1.22008 2.34906,0.44675 2.5955,3.38865 -0.78083,4.60127 -1.08384,0.38926 -2.18194,0.79121 -3.33985,0.87695 -3.16339,0.23425 0.21419,-1.54152 1.07281,-3.02307 -0.61618,-0.39712 -1.18727,-1.11709 -1.55598,-2.24637 -0.15067,-0.46147 -0.29592,-0.9239 -0.47594,-1.37511 -0.23684,-0.55681 -0.43839,-1.12898 -0.76895,-1.64021 -0.57627,-0.89418 -1.24253,-1.72189 -1.94355,-2.5213 -0.98942,-1.22248 -1.99858,-2.42791 -3.01273,-3.62975 -0.81308,-1.04518 -1.55595,-2.14097 -2.22467,-3.28249 -1.346,-1.659349 -2.64347,-3.355923 -3.87057,-5.107693 -1.22065,-1.742553 -1.04515,-3.243331 -0.24908,-3.972885 -0.95869,-2.481191 -1.88718,-4.975431 -2.62671,-7.532357 -0.47085,-1.603319 -0.98573,-3.203493 -1.33739,-4.836914 -0.0217,-0.100589 -0.0369,-0.196342 -0.0532,-0.293005 -1.11015,0.310409 -2.22275,0.625607 -3.27835,1.094507 -4.16555,1.85038 -5.97985,-2.382289 -1.81384,-4.231783 1.31263,-0.582744 2.69661,-0.975222 4.07624,-1.362191 0.98158,-0.253166 1.97082,-0.473943 2.96106,-0.68988 0.41751,-0.09104 0.80426,-0.134162 1.1591,-0.136424 z" /></clipPath><clipPath
       clipPathUnits="userSpaceOnUse"
       id="clipPath179"><path
         id="path180"
         style="fill:#ff0000;fill-opacity:1;fill-rule:nonzero;stroke:none;stroke-width:0.264583"
         d="M 423.88044,-172.85596 V 59.951016 H 663.75262 V -172.85596 Z m 56.58879,65.25286 c 0.97139,-0.0248 1.78116,0.69824 1.91823,1.89291 0.16861,-0.0426 0.33824,-0.0647 0.50591,-0.0584 1.23028,0.0461 2.33646,1.37531 1.94304,3.76462 -0.14485,0.87964 -0.32744,1.75513 -0.64234,2.592094 -0.45918,1.195296 -1.02659,2.337674 -1.65055,3.455603 -0.80616,1.474775 -1.63258,2.939187 -2.32802,4.471045 -0.69579,1.421302 -1.40563,2.839111 -1.94665,4.328935 -0.0901,0.27913 -0.19407,0.565435 -0.25012,0.855245 -0.14038,0.725833 -0.15329,1.476041 -0.34778,2.193148 -0.38697,1.545795 -0.93094,2.889522 -2.17713,3.952213 -0.21049,0.150001 -0.41152,0.313841 -0.63148,0.449585 -1.10077,0.679319 -2.41651,0.918309 -3.69228,0.875399 -1.62569,-0.184516 -3.22242,-0.608262 -4.53668,-1.631425 -0.2295,-0.238893 -0.4891,-0.451568 -0.68833,-0.716235 -0.8485,-1.127193 -0.95557,-2.556835 -0.49816,-3.857129 0.33804,-0.836911 0.78127,-1.610125 1.35134,-2.313037 0.46349,-0.625896 0.91517,-1.259776 1.37821,-1.88619 0.43165,-0.641711 0.89377,-1.261157 1.34462,-1.88929 0.49286,-0.725686 0.95649,-1.466839 1.3317,-2.262395 0.46806,-0.987779 0.83924,-2.014961 1.2175,-3.039607 0.39896,-0.936412 0.77104,-1.8847 1.23662,-2.791561 0.68316,-1.267198 1.44621,-2.502108 2.49752,-3.502108 0.39431,-0.37636 0.80045,-0.74255 1.22628,-1.08159 0.24763,-0.5222 0.49367,-1.04518 0.74466,-1.5658 0.74227,-1.5397 1.7849,-2.21283 2.69389,-2.23604 z m -4.24367,13.790376 c -0.0774,0.02435 -0.15232,0.02895 -0.22893,0.04444 -0.29668,0.789543 -0.61863,1.568634 -0.9741,2.334224 -0.48032,1.014879 -1.06271,1.969806 -1.6924,2.896981 -0.43846,0.625506 -0.90504,1.230985 -1.32912,1.866553 -0.50038,0.687417 -0.99638,1.377214 -1.50171,2.060856 -0.1903,0.268613 -0.40627,0.52806 -0.57,0.814937 0.54503,0.177475 1.09024,0.359954 1.66812,0.379822 0.35252,-0.02857 0.87441,-0.07551 1.09864,-0.397909 0.28965,-0.413748 0.38926,-0.903175 0.50178,-1.385962 0.15615,-1.125779 0.3434,-2.227024 0.67179,-3.317627 0.59744,-1.723458 1.41038,-3.357819 2.21072,-4.992977 0.0465,-0.102087 0.0977,-0.201787 0.14521,-0.30334 z m -6.42855,10.284127 c -0.0184,0.04633 -0.0362,0.09275 -0.0506,0.141076 -0.0121,0.05275 -0.04,0.10411 -0.0367,0.15813 0.004,0.0679 0.0721,-0.119272 0.0822,-0.186552 0.006,-0.0384 0.007,-0.07571 0.005,-0.112654 z" /></clipPath><clipPath
       clipPathUnits="userSpaceOnUse"
       id="clipPath214"><path
         id="path215"
         style="fill:#ff0000;fill-opacity:1;fill-rule:nonzero;stroke:none;stroke-width:0.264583"
         d="M 429.74106,-204.49641 V 8.8900521 H 657.8398 V -204.49641 Z m 155.81633,7.42022 c 0.4665,0.0109 0.99784,0.10634 1.58802,0.30644 1.31125,0.4446 2.51476,1.14089 3.73362,1.78801 0.42391,-0.3182 0.87829,-0.48015 1.31155,-0.47956 1.29575,0.002 2.37943,1.3699 1.77095,3.72639 0.008,0.34848 -0.0738,0.66951 -0.23771,0.95188 -0.26926,1.16035 -0.41974,2.34227 -0.54054,3.52846 -0.11498,1.77638 -0.27598,3.5478 -0.42943,5.32009 0.49761,0.42963 0.94121,1.12954 1.22576,2.15336 0.47867,1.7222 0.53783,3.52672 0.59273,5.30252 0.0554,3.52088 -0.20391,7.03889 -0.45992,10.54819 -0.30211,3.6789 -0.65583,7.35272 -0.92914,11.03395 -0.15348,2.13434 -0.26813,4.27108 -0.34623,6.40943 -0.0466,1.27614 -0.44139,2.18123 -0.98185,2.72335 0.0722,0.1083 0.12428,0.22833 0.19688,0.3359 0.33209,0.4701 0.6487,0.96925 1.0542,1.38079 3.19913,3.24681 -0.37115,6.51065 -3.40031,3.10472 -0.53595,-0.6026 -1.03127,-1.24203 -1.47484,-1.91616 -0.47161,-0.70336 -0.93727,-1.41641 -1.25057,-2.20762 -0.27817,-0.68707 -0.56235,-1.37462 -0.75965,-2.09031 -0.20075,-0.89147 -0.34424,-1.79455 -0.43304,-2.70423 -0.13255,-1.20449 -0.20278,-2.4129 -0.12558,-3.62458 0.0522,-1.428 0.13584,-2.85481 0.26252,-4.27829 0.19543,-2.26016 0.36645,-4.52214 0.42685,-6.7908 0.14995,-3.17998 0.34834,-6.35712 0.65215,-9.52655 0.28831,-2.60628 0.61219,-5.20829 0.9679,-7.80625 0.29689,-2.60691 0.4532,-5.22237 0.63149,-7.83931 0.10567,-1.01488 0.23507,-2.0266 0.41703,-3.02876 -0.0374,-0.02 -0.0748,-0.04 -0.11214,-0.0599 -1.00017,-0.52607 -1.9822,-1.0945 -3.02772,-1.52756 -3.55316,-1.47173 -3.28297,-4.65376 -0.51883,-4.73304 0.064,-0.002 0.12921,-0.002 0.19585,-5.3e-4 z m -40.95151,59.51885 c 0.31833,-10e-4 0.62887,0.0487 0.93948,0.0971 0.20985,-0.0586 0.43997,-0.0927 0.6904,-0.0966 0.58444,-0.009 1.27404,0.14206 2.04639,0.50798 0.47814,0.22655 0.22595,0.0975 0.75447,0.39429 3.88299,2.1803 1.60888,6.28679 -2.05155,4.14238 -0.38291,-0.0219 -0.77968,-0.0616 -1.23094,-0.19792 -0.37687,-0.11385 -0.75004,-0.23618 -1.14825,-0.24288 -4.5574,-0.0764 -4.55802,-4.59005 0,-4.60437 z m -48.30247,14.49369 c 3.13957,-0.14303 3.90993,3.33218 0.13229,4.61109 -1.07261,0.36311 -2.07915,0.88013 -3.0856,1.39216 -1.24892,0.6684 -2.40987,1.48672 -3.59772,2.25568 -1.05177,0.68434 -2.13799,1.3137 -3.23907,1.91461 -0.83469,0.44517 -1.68001,0.8712 -2.53112,1.28416 -0.70134,0.33552 -1.41859,0.62252 -2.16782,0.83044 -0.53588,0.12729 -1.06145,0.28531 -1.60301,0.39067 -0.39682,0.0987 -0.79851,0.22779 -1.15238,0.43615 -0.81222,0.40192 -1.50167,1.01611 -2.21795,1.56476 -0.81535,0.63987 -1.65344,1.24924 -2.42828,1.93839 -0.23532,0.19865 -0.43066,0.43318 -0.63303,0.66145 -0.0219,0.34448 -0.0794,0.71375 -0.18759,1.1126 -0.48727,1.79612 -0.85123,3.6217 -1.05937,5.472531 -0.20877,1.804471 -0.44695,3.602041 -0.76222,5.390369 -0.2248,1.275098 -0.75263,2.150548 -1.37563,2.648934 0.0691,0.480569 0.0947,0.966465 0.17983,1.444873 0.15924,1.187381 0.4781,2.333429 0.86972,3.461804 0.0764,0.193471 0.15302,0.386865 0.22944,0.580326 0.41263,1.044579 0.45611,1.930192 0.2713,2.614311 0.18788,0.154192 0.38026,0.308591 0.56586,0.460437 2.45924,2.097624 4.85311,4.273289 7.21506,6.479708 1.84759,1.747195 3.64763,3.544075 5.52835,5.256009 0.79619,0.74101 1.68663,1.360514 2.58382,1.969389 2.56341,1.739643 2.15754,4.01107 0.47129,4.513421 -0.78726,0.760381 -2.29476,0.778026 -3.87832,-0.706935 -1.39,-1.303441 -2.87972,-2.497476 -4.33978,-3.720703 -2.24102,-1.869673 -4.45101,-3.776461 -6.68538,-5.653918 -1.01898,-0.856189 -1.48767,-1.762824 -1.55392,-2.544546 -0.7585,-0.672306 -1.49111,-1.373894 -2.26136,-2.032435 -1.10649,-0.910454 -2.22845,-1.936448 -3.5667,-2.494939 -3.81213,-1.590885 -3.92259,-4.754238 -0.57775,-4.695837 0.34603,0.006 0.72906,0.04631 1.14877,0.126607 0.031,0.0059 0.0611,0.01431 0.092,0.02067 -0.27234,-0.929096 -0.51072,-1.867033 -0.64596,-2.830318 -0.23748,-1.345291 -0.44289,-2.695743 -0.49971,-4.062801 -0.0728,-1.525185 -0.0161,-3.048729 0.19637,-4.562513 0.24356,-1.772002 0.56488,-3.534474 1.11518,-5.240504 0.52592,-1.45914 1.12062,-2.88537 2.01848,-4.16202 0.72292,-1.07007 1.49772,-2.11148 2.48822,-2.95279 0.85948,-0.75874 1.77553,-1.44481 2.68149,-2.14664 0.92682,-0.70975 1.83107,-1.47772 2.88664,-1.99161 0.77136,-0.388 1.57706,-0.71398 2.4288,-0.8785 0.42731,-0.0755 0.83464,-0.22516 1.25935,-0.31213 0.47514,-0.11901 0.91432,-0.32937 1.36012,-0.52865 0.78897,-0.38076 1.57027,-0.77792 2.34405,-1.18855 1.00012,-0.53585 1.97628,-1.11793 2.93057,-1.73168 1.32173,-0.85524 2.61427,-1.76357 4.01164,-2.49391 1.15944,-0.5897 2.32372,-1.17639 3.55689,-1.5999 0.53887,-0.18506 1.03563,-0.27929 1.48415,-0.29972 z" /></clipPath><clipPath
       clipPathUnits="userSpaceOnUse"
       id="clipPath221"><path
         id="path222"
         style="fill:#ff0000;fill-opacity:1;fill-rule:nonzero;stroke:none;stroke-width:0.264583"
         d="M 401.4818,-247.60793 V -31.517244 H 600.03402 V -247.60793 Z m 35.71617,159.475536 c 1.48858,0.0136 2.59128,1.846811 1.35134,4.411618 -0.7903,1.634709 -1.66386,3.223485 -2.54507,4.810559 0.58177,0.652134 0.87935,1.783162 0.5302,3.304709 -0.24709,1.076817 -0.51871,2.142345 -0.84801,3.198252 -0.27074,0.820311 -0.1401,0.423013 -0.39222,1.192694 -0.87303,2.665206 -2.86401,3.145165 -3.93723,2.113047 -0.0331,0.148622 -0.0943,0.289496 -0.12299,0.439251 -0.0161,0.100009 -0.0324,0.199715 -0.0486,0.299722 -0.72584,4.499915 -5.29389,3.748122 -4.5434,-0.747757 0.0241,-0.14418 0.0483,-0.288348 0.0723,-0.43253 0.20787,-1.053839 0.4859,-2.091926 0.88884,-3.089736 0.49904,-1.148506 1.15654,-2.203212 1.77508,-3.289721 0.88558,-1.712457 1.61457,-3.504369 2.57659,-5.178496 0.88987,-1.602126 1.76671,-3.208115 2.56935,-4.856033 0.74847,-1.536697 1.78059,-2.183749 2.67374,-2.175579 z" /></clipPath><clipPath
       clipPathUnits="userSpaceOnUse"
       id="clipPath264"><path
         id="path265"
         style="fill:#ff0000;fill-opacity:1;fill-rule:nonzero;stroke:none;stroke-width:0.264583"
         d="M 434.62861,-266.2993 V -32.891837 H 645.52272 V -266.2993 Z m 154.24692,178.009293 c 0.46983,-0.02408 1.00007,0.201925 1.53221,0.656807 0.81545,0.148211 1.71491,0.760476 2.45256,1.981792 0.64639,1.07024 1.13396,2.219876 1.64383,3.357936 0.36227,0.823529 0.18691,0.414965 0.5271,1.227315 1.35995,3.247612 -0.8676,5.036222 -2.76108,3.747574 -0.0778,0.257416 -0.15491,0.514921 -0.22789,0.773597 -0.58222,2.063739 -1.87233,2.87823 -2.94607,2.706293 -1.10714,3.253407 -4.8071,2.450817 -4.28966,-1.650545 0.13829,-1.096095 0.21521,-2.200127 0.32814,-3.299021 0.121,-1.177393 0.51912,-2.016514 1.03353,-2.536798 v -0.02582 c 0,-1.589058 0.57218,-2.58854 1.30121,-3.069582 -0.63089,-2.265402 0.18285,-3.806838 1.40612,-3.869531 z m -50.00212,10.174057 c 0.0436,-0.0011 0.0876,-5.29e-4 0.13178,0.0021 0.8487,0.04753 1.8062,0.755623 2.5001,2.317689 0.27595,0.621091 0.47227,1.272696 0.67903,1.918745 0.18143,0.566888 0.26337,1.083165 0.26717,1.543577 1.62889,4.026741 -2.44769,5.780897 -4.26382,1.680001 -0.42303,-0.955231 -0.83037,-1.921749 -1.38028,-2.813267 -1.57036,-2.545856 -0.48832,-4.503233 1.13585,-4.463294 0.0559,0.0013 0.11655,0.02588 0.17363,0.03204 0.2307,-0.135638 0.48678,-0.210857 0.75654,-0.217559 z m -45.34968,11.774993 h 5.3e-4 c 0.43787,-0.01482 0.93433,0.04064 1.4857,0.183449 2.3523,0.609269 4.65725,1.381739 6.97064,2.121318 3.79679,1.278059 7.63775,2.417093 11.52746,3.375504 2.49389,0.542721 5.02889,1.020969 7.58971,1.065569 0.53932,0.0094 1.07866,-0.01683 1.61799,-0.02585 3.9001,-0.190429 7.7802,-0.658554 11.66492,-1.037662 0.11366,-0.01318 0.22789,-0.0208 0.34159,-0.03359 0.007,-1.137353 1.12413,-2.280925 3.3755,-2.32079 2.12345,-0.0376 1.04069,-0.01691 3.24941,-0.06201 2.34197,-0.0581 4.68982,-0.09214 7.02231,-0.326078 0.14173,-0.01421 0.27976,-0.02376 0.41342,-0.02842 4.14336,-0.14414 4.39841,4.173183 0.004,4.613672 -0.60469,0.06063 -1.21014,0.108492 -1.81643,0.147277 -0.40965,0.742106 -1.29031,1.395805 -2.78949,1.605071 -1.08811,0.151919 -0.52669,0.07549 -1.68362,0.22841 -2.5552,0.26248 -5.11655,0.465037 -7.66879,0.759127 -4.01393,0.391628 -8.02328,0.877712 -12.05404,1.058849 -0.49118,0.0048 -0.98256,0.01291 -1.47382,0.01447 0.49893,1.740013 -1.35777,3.291848 -4.21472,1.93735 -2.6213,-1.24279 -5.44193,-2.007298 -8.20105,-2.878894 -1.31683,-0.39964 -2.61917,-0.844516 -3.92379,-1.282094 -0.29785,1.140851 -1.74152,1.954228 -3.96875,1.259356 -2.09781,-0.6545 -4.20011,-1.302065 -6.25233,-2.089796 -3.01359,-1.156742 -3.70078,-3.472466 -2.26705,-4.367175 -2.00788,-1.438458 -1.4686,-3.831244 1.05059,-3.917072 z" /></clipPath><clipPath
       clipPathUnits="userSpaceOnUse"
       id="clipPath307"><path
         id="path308"
         style="fill:#ff0000;fill-opacity:1;fill-rule:nonzero;stroke:none;stroke-width:0.264583"
         d="m 441.40486,-281.84324 v 240.392559 h 229.9038 V -281.84324 Z m 167.35464,112.27325 c 0.48377,-0.01 1.03442,0.0712 1.64486,0.26665 0.40914,0.13102 0.82319,0.24548 1.23765,0.35811 3.33639,0.90666 3.43331,3.67401 1.37201,4.43849 -0.55288,0.80638 -1.81878,1.28328 -3.63698,0.80357 -1.18652,-0.31304 -2.3695,-0.63907 -3.56206,-0.92811 -4.01454,-0.97302 -3.47317,-4.7349 -0.0398,-4.63072 0.35518,0.0108 0.74128,0.0629 1.15652,0.16381 0.0718,0.0174 0.14327,0.0361 0.21497,0.0537 0.39522,-0.30493 0.9286,-0.51208 1.61282,-0.52555 z m -35.9885,0.0775 c 0.86322,-0.0395 1.90125,0.56617 2.74609,2.05207 0.6745,1.18628 0.96652,2.51842 0.93172,3.87987 -0.009,0.35638 -0.0582,0.71077 -0.0873,1.06608 -0.20013,1.75873 -0.79643,3.42582 -1.40973,5.07411 -0.3288,0.83598 -0.6581,1.67211 -0.99012,2.50683 -0.27837,0.6998 -0.63819,1.18308 -1.01958,1.57406 0.009,4.36202 -4.47261,4.30114 -4.60437,-0.18965 -0.0573,-1.95154 0.14385,-3.89124 0.41186,-5.82084 0.1733,-1.20857 0.44005,-2.39895 0.71934,-3.58634 0.3604,-1.53226 1.13265,-2.40624 1.9451,-2.71456 -0.76944,-2.20622 0.0502,-3.78182 1.35702,-3.84163 z m 28.1249,26.41234 c 0.80843,-0.0142 1.7851,0.52154 2.66805,1.81591 0.13428,0.19685 0.27842,0.38757 0.40308,0.59066 0.42865,0.6983 0.7706,1.38868 1.15755,2.11357 0.83054,1.55588 0.67628,1.26093 1.57717,2.87063 2.22597,3.97745 -1.79378,6.22625 -4.01836,2.24792 -0.92804,-1.65959 -1.79666,-3.35434 -2.75384,-4.99556 -1.50697,-2.58392 -0.57701,-4.61595 0.96635,-4.64313 z m 7.66,13.40125 c 0.0405,-7.9e-4 0.0813,2.6e-4 0.12195,0.002 1.0126,0.0515 2.05784,0.98606 2.37815,2.95434 0.25119,1.5435 0.61031,3.06668 0.95188,4.59196 0.99608,4.4479 -3.49683,5.45398 -4.49275,1.00615 -0.3492,-1.55956 -0.71636,-3.11736 -0.9741,-4.69532 -0.4004,-2.45133 0.75841,-3.83535 2.01487,-3.85921 z m -41.41505,11.7414 c 1.56864,0.0526 2.54696,1.90787 0.99219,4.35323 -0.52701,0.82889 -0.85795,1.75716 -1.28623,2.6386 -0.63337,1.24057 -1.34002,2.44059 -2.00091,3.66644 -0.0914,0.16249 -0.18248,0.32482 -0.27388,0.48731 -2.23408,3.973 -6.25181,1.71033 -4.01164,-2.2593 0.0777,-0.13765 0.15536,-0.27576 0.23306,-0.41341 0.63186,-1.17195 1.30461,-2.31959 1.91668,-3.50211 0.50289,-1.02182 0.8828,-2.10564 1.51825,-3.05821 0.86952,-1.30343 1.89138,-1.87692 2.759,-1.91203 0.0518,-0.002 0.10288,-0.002 0.15348,-5.3e-4 z m 22.81928,11.12749 c 0.0403,-7.9e-4 0.0805,1e-4 0.12093,0.002 1.00592,0.0525 2.03103,0.98954 2.32388,2.96209 0.0735,0.49506 0.17889,0.98416 0.25839,1.47795 1.48527,1.45203 2.77788,3.091662 4.08295,4.704096 l 0.70022,0.902788 c 0.73267,0.94456 1.00519,1.825514 0.98392,2.561084 0.47405,0.08742 0.94815,0.173961 1.4211,0.264584 0.3389,0.07218 0.67809,0.144325 1.01699,0.216524 4.4581,0.949539 3.49542,5.456677 -0.9617,4.502568 -0.30733,-0.06579 -0.61458,-0.131606 -0.92191,-0.197405 -1.65089,-0.316479 -3.31686,-0.578933 -4.93664,-1.036111 -2.7092,-0.764641 -3.31679,-2.760663 -2.35387,-3.884002 -1.09472,0.163767 -2.35694,-0.68866 -2.79672,-2.846337 -0.28089,-1.378024 -0.50149,-2.765864 -0.72606,-4.153229 -0.005,-0.0274 -0.01,-0.0546 -0.0145,-0.0816 -0.0822,-0.51039 -0.19367,-1.01549 -0.26717,-1.52757 -0.35289,-2.45855 0.82061,-3.84465 2.07016,-3.86746 z m -5.90196,9.228894 c 3.42681,-0.0989 3.93506,3.697832 -0.0863,4.642093 -0.5088,0.11947 -1.01385,0.25658 -1.52652,0.358119 -1.71496,0.339696 -3.44626,0.413337 -5.18883,0.364834 -4.55633,-0.12691 -4.55807,-4.588968 0,-4.604369 1.09057,-0.0037 2.17717,0.04611 3.26181,-0.101801 1.06774,-0.145611 1.32773,-0.238348 2.38435,-0.495578 0.4152,-0.101071 0.80098,-0.153059 1.15549,-0.163298 z m 8.86767,2.51561 c -0.009,0.01222 -0.022,0.01855 -0.0315,0.03049 0.0156,-0.0039 0.0323,-0.0067 0.0481,-0.01035 -0.005,-0.0068 -0.0111,-0.01339 -0.0165,-0.02016 z" /></clipPath><clipPath
       clipPathUnits="userSpaceOnUse"
       id="clipPath414"><path
         id="path415"
         style="fill:#ff0000;fill-opacity:1;fill-rule:nonzero;stroke:none;stroke-width:0.264583"
         d="M 419.90565,-280.30842 V -59.592694 H 639.67053 V -280.30842 Z m 168.31686,5.54126 c 0.75159,-0.0283 1.63784,0.52207 2.2226,1.83813 0.14222,0.32013 0.36396,0.57953 0.58188,0.84595 0.15344,0.0668 0.31158,0.14523 0.47439,0.23771 0.44723,0.25405 0.87043,0.54606 1.28312,0.85318 0.15749,-0.50908 0.56909,-0.85392 1.1095,-0.95292 0.30209,-0.55518 0.79564,-0.85326 1.31516,-0.85111 0.43844,0.002 0.89498,0.21731 1.26969,0.67076 0.57478,0.24321 1.12383,0.86511 1.43712,1.93787 0.1574,0.53885 0.0815,0.26371 0.22841,0.82631 0.18215,0.69745 0.18373,1.29043 0.0625,1.76371 0.11055,1.74932 -1.80459,2.53277 -3.35173,0.63976 -0.58627,0.62412 -1.76697,0.73956 -3.09904,-0.30179 -0.39018,-0.30506 -0.78025,-0.61186 -1.17925,-0.90589 -0.59653,-0.0619 -1.27213,-0.38822 -1.92547,-1.15187 -0.0888,-0.10377 -0.17785,-0.20732 -0.26665,-0.31109 -0.47914,-0.58557 -0.92745,-1.19145 -1.23145,-1.88981 -0.84013,-1.93003 -0.0293,-3.20753 1.06919,-3.2489 z m -50.34783,18.76578 c 1.64448,0.0857 2.59429,2.11395 0.78961,4.49947 -2.12281,2.80606 -4.037,5.75971 -5.94951,8.71058 -1.67976,2.63016 -0.86862,1.33822 -2.43706,3.87418 -2.39734,3.87658 -6.31422,1.45376 -3.91604,-2.42207 1.60933,-2.60083 0.78073,-1.28177 2.48926,-3.95635 0.45879,-0.70774 0.91842,-1.41529 1.38028,-2.12132 -0.081,0.0638 -0.13462,0.13115 -0.22273,0.19379 -1.66825,1.18595 -0.82753,0.57173 -2.52078,1.84485 -1.51599,1.18411 -3.10057,2.3251 -4.39818,3.75532 -0.1383,0.15246 -0.27735,0.28744 -0.41651,0.41445 -0.31337,0.39068 -0.63886,0.77153 -0.94826,1.1653 -2.81616,3.58405 -6.43775,0.73601 -3.61942,-2.84634 0.41691,-0.5297 0.85291,-1.04427 1.27693,-1.56838 -0.0905,-0.007 -0.18082,-0.0146 -0.27131,-0.0212 -4.40388,-0.3193 -4.27266,-4.63612 -0.1266,-4.61161 0.13374,8e-4 0.27133,0.006 0.41341,0.0165 1.00797,0.0717 2.01427,0.17061 3.02049,0.26303 0.22097,0.0203 0.42979,0.0509 0.62735,0.0899 0.67031,-0.7446 1.32945,-1.49919 1.99833,-2.24586 0.97986,-1.09411 2.02452,-1.57165 2.89181,-1.59938 0.0578,-0.002 0.11487,-0.002 0.17105,5.3e-4 0.60856,0.0227 1.10686,0.28325 1.42317,0.70074 0.10729,-0.009 0.21266,-0.0134 0.31419,-0.0103 1.27875,0.0382 2.06051,0.98772 1.90893,2.16318 1.04952,-1.55868 2.12642,-3.09889 3.26181,-4.59714 0.94634,-1.24878 1.99838,-1.73677 2.85978,-1.69189 z m 27.8691,1.26194 c 0.19522,0.001 0.40273,0.0164 0.62218,0.047 0.81094,0.11321 1.59756,0.33705 2.3828,0.5612 0.71533,0.23881 1.44104,0.44485 2.15491,0.68782 0.616,0.20342 1.23754,0.39106 1.86035,0.57309 0.66737,0.16828 1.33266,0.34586 1.99006,0.54984 0.57478,0.1673 1.13528,0.36962 1.68207,0.61288 0.45309,0.23917 0.89969,0.48754 1.34772,0.73587 0.40583,0.26488 0.82814,0.5013 1.23972,0.75706 0.49409,0.27024 0.95801,0.5927 1.4118,0.92501 0.4524,0.29291 0.84444,0.66282 1.2516,1.01234 0.37832,0.37222 0.74449,0.75568 1.11931,1.1312 0.36523,0.29313 0.73311,0.58309 1.079,0.90072 0.35163,0.27568 0.71006,0.54286 1.06247,0.81855 0.43794,0.3441 0.89223,0.66612 1.31827,1.02526 0.2771,0.24149 0.53516,0.49372 0.85628,0.67541 0.47242,0.31949 0.91747,0.67869 1.36684,1.02991 0.50439,0.42895 0.94602,0.9275 1.37873,1.42731 0.35907,0.37176 0.65499,0.79805 0.95343,1.21853 0.3541,0.44987 0.63209,0.95164 0.94257,1.4304 0.27579,0.43691 0.57164,0.86015 0.8506,1.29553 0.26858,0.51835 0.59539,1.00245 0.88987,1.50585 0.2146,0.45703 0.50533,0.87119 0.80305,1.27693 0.36738,0.54961 0.76907,1.07516 1.16478,1.60455 0.43157,0.59148 0.85916,1.18302 1.24386,1.80661 0.28225,0.51721 0.53508,1.04565 0.84181,1.54822 0.31374,0.5204 0.56882,1.07105 0.80873,1.62833 0.24731,0.67225 0.48944,1.34388 0.7028,2.02778 0.24391,0.86451 0.48267,1.72995 0.73691,2.59157 0.0427,0.15316 0.0854,0.30626 0.12815,0.45941 0.13731,0.49154 0.16425,0.91547 0.13953,1.29966 0.84033,1.04208 1.1644,2.37201 1.47226,3.65611 0.30818,1.37517 0.44981,2.77928 0.68161,4.1677 0.20002,1.04893 0.3429,2.1058 0.4346,3.16932 0.0876,1.14211 0.10004,2.28805 0.11524,3.43286 0.0452,1.42463 -0.0116,2.84632 -0.18758,4.26021 -0.18973,1.42523 -0.63245,2.79501 -1.09864,4.1491 -0.16401,0.52913 -0.37721,1.03474 -0.61082,1.53065 0.4364,0.51017 0.53374,1.42831 -0.0501,2.6324 -0.56155,1.15717 -1.15607,2.30092 -1.76216,3.43597 -0.44988,0.87949 -0.98828,1.7071 -1.5105,2.54403 0.0334,0.41866 -0.0303,0.92052 -0.22583,1.49965 -0.31516,0.93347 -0.73081,1.8284 -1.16789,2.70991 -0.55402,1.05334 -1.33178,1.96166 -2.18539,2.78174 -0.60617,0.51275 -1.20689,1.03317 -1.82573,1.53066 -0.28864,0.21996 -0.60205,0.40847 -0.91054,0.60306 -0.34164,0.47849 -0.70624,0.78359 -1.07074,1.00408 -0.62769,1.26829 -1.71665,1.58895 -2.46496,1.10225 -1.68411,0.0721 -2.48767,-1.88802 -0.53795,-3.46852 0.085,-0.40363 0.15833,-0.80976 0.25993,-1.20974 -0.57575,-0.53284 -0.74669,-1.55823 0.0941,-2.87166 0.82679,-1.29271 1.52493,-2.66357 2.26136,-4.00854 1.03542,-2.01347 1.83057,-4.13563 2.76004,-6.19756 0.91964,-1.8358 1.64191,-3.75754 2.30993,-5.69577 0.59582,-1.7096 0.94935,-3.4791 1.27435,-5.25498 0.15855,-0.91814 0.3645,-1.82679 0.56534,-2.73627 0.33446,-1.51452 1.19228,-2.21876 1.98695,-2.24172 0.10533,-0.003 0.20882,0.009 0.31058,0.0295 -0.0809,-0.71728 -0.16133,-1.43467 -0.29662,-2.14457 -0.21598,-1.30812 -0.3563,-2.62876 -0.63304,-3.92637 -0.17479,-0.74532 -0.30763,-1.5711 -0.74156,-2.21589 -0.63367,-0.94158 -0.84762,-1.80117 -0.77101,-2.45411 -0.0181,-0.057 -0.0475,-0.0912 -0.0641,-0.1509 -0.0379,-0.13599 -0.0758,-0.27225 -0.11369,-0.40824 -0.24901,-0.84393 -0.48418,-1.69103 -0.72088,-2.53835 -0.17719,-0.56799 -0.37725,-1.12575 -0.57619,-1.6862 -0.16984,-0.40089 -0.34968,-0.79602 -0.5731,-1.17047 -0.30621,-0.50173 -0.57783,-1.01914 -0.83974,-1.54513 -0.32167,-0.53258 -0.69574,-1.0271 -1.05781,-1.5322 -0.40383,-0.54045 -0.8143,-1.07629 -1.18908,-1.63763 -0.36818,-0.5068 -0.73301,-1.02325 -1.00666,-1.58853 -0.2646,-0.46047 -0.5738,-0.89624 -0.80873,-1.37305 -0.27961,-0.43641 -0.57662,-0.86161 -0.8537,-1.29966 -0.27412,-0.43308 -0.52796,-0.88025 -0.84439,-1.28519 -0.2368,-0.33363 -0.46438,-0.67447 -0.75551,-0.96428 -0.27118,-0.32543 -0.56434,-0.63506 -0.86351,-0.93431 -0.33976,-0.26631 -0.68115,-0.53067 -1.02423,-0.7922 -0.47798,-0.29864 -0.91901,-0.63946 -1.33222,-1.02216 -0.36642,-0.33952 -0.80982,-0.59044 -1.18701,-0.91778 -0.42767,-0.33587 -0.87014,-0.65297 -1.28364,-1.00665 -0.38092,-0.35582 -0.81505,-0.64668 -1.19062,-1.00873 -0.30992,-0.31517 -0.62795,-0.62147 -0.92501,-0.94929 -0.33677,-0.29436 -0.66223,-0.60175 -1.04128,-0.84336 -0.3684,-0.28362 -0.76525,-0.53145 -1.16996,-0.75965 -0.36055,-0.22633 -0.7351,-0.43009 -1.0883,-0.66765 -0.35326,-0.19779 -0.71108,-0.38946 -1.0604,-0.59222 -0.42499,-0.18932 -0.86027,-0.34308 -1.30845,-0.47129 -0.62812,-0.20816 -1.27646,-0.35158 -1.91409,-0.52658 -0.67488,-0.19829 -1.34887,-0.40131 -2.01642,-0.6227 -0.65291,-0.22716 -1.32209,-0.40565 -1.97559,-0.63149 -0.60864,-0.17398 -1.21529,-0.35567 -1.84278,-0.45113 -3.2858,-0.49988 -3.10665,-3.61656 -0.17828,-3.6003 z m -44.77298,38.66224 c 3.27058,-0.0114 3.74477,3.63722 -0.1881,4.64261 -0.48726,0.12456 -0.97286,0.2567 -1.46555,0.35864 -4.46336,0.92346 -5.36003,-3.55906 -0.9033,-4.51497 0.41252,-0.0885 0.81969,-0.20043 1.22835,-0.30489 0.48301,-0.12348 0.92695,-0.17999 1.3286,-0.18139 z m 74.5138,39.21931 c 1.08249,0.0349 1.95557,1.33716 1.22266,3.3104 -0.0493,0.1327 -0.1061,0.26222 -0.16071,0.39274 0.794,0.23664 1.5923,1.01049 2.08256,2.46445 0.32272,0.95679 0.57112,1.93503 0.93896,2.87682 0.27267,0.7794 0.57678,1.5477 0.95084,2.2841 0.38632,0.63517 0.70728,1.30219 0.97152,1.99626 0.2206,0.67121 0.36856,1.3656 0.50798,2.05776 0.13043,0.66601 0.19201,1.34206 0.23461,2.01848 0.0317,0.56476 0.0411,1.13052 0.0481,1.69602 0.0608,0.36616 0.1644,0.72427 0.2434,1.0883 0.0428,0.3992 0.14348,0.77197 0.27388,1.14722 0.0786,0.17389 0.10693,0.25301 0.11679,0.29301 0.0208,0.0166 0.0417,0.0327 0.11421,0.12299 0.47139,0.52813 0.81412,1.14017 1.08572,1.78955 0.25805,0.60243 0.46815,1.22082 0.63303,1.85467 0.16971,0.71949 0.24271,1.45621 0.29301,2.19211 0.0835,0.50447 -0.0317,1.04058 0.0646,1.54099 0.0607,0.4432 0.1063,0.88662 0.1943,1.32499 0.054,0.39315 0.14408,0.77014 0.2806,1.13895 0.17923,0.53567 0.35984,1.07067 0.50075,1.61799 0.17691,0.73203 0.21808,1.48586 0.25218,2.23552 0.03,0.8448 0.0363,1.69052 0.0413,2.53576 0.005,0.83809 0.006,1.67596 0.007,2.51406 0.027,0.85762 -0.0669,1.71113 -0.12195,2.56573 -0.0912,0.89175 -0.20327,1.78099 -0.27957,2.67426 -0.0509,0.60426 -0.0725,1.2104 -0.0868,1.81643 0.0139,0.70182 -0.0747,1.39799 -0.14934,2.09444 -0.0731,0.74965 -0.0828,1.50397 -0.0982,2.25619 -0.007,0.36872 -0.0116,0.73767 -0.0176,1.1064 -0.0742,4.55717 -4.67805,4.48154 -4.60385,-0.0749 0.006,-0.3752 0.0111,-0.75033 0.0181,-1.12552 0.0182,-0.88484 0.0328,-1.77141 0.12298,-2.65255 0.0611,-0.57041 0.14304,-1.1387 0.12454,-1.71411 0.0169,-0.70055 0.043,-1.40141 0.10232,-2.10013 0.0743,-0.86075 0.17404,-1.71915 0.27287,-2.57762 0.0489,-0.75407 0.13693,-1.50679 0.11212,-2.26342 -10e-4,-0.83033 -0.003,-1.66049 -0.007,-2.49081 -0.005,-0.7861 -0.0102,-1.57226 -0.0367,-2.35799 -0.0194,-0.44091 -0.0323,-0.88571 -0.11834,-1.31982 -0.093,-0.39191 -0.23868,-0.76845 -0.35709,-1.1529 -0.21704,-0.59429 -0.38095,-1.20136 -0.47438,-1.8278 -0.11606,-0.58743 -0.18757,-1.18078 -0.26097,-1.77456 -0.0455,-0.55991 -0.047,-1.12061 -0.0765,-1.68156 -0.0304,-0.46346 -0.069,-0.92764 -0.16537,-1.38286 -0.0985,-0.44006 -0.2791,-0.8553 -0.44596,-1.27279 -0.038,-0.18062 -0.16909,-0.32384 -0.27906,-0.46509 -0.47923,-0.57524 -0.91204,-1.19547 -1.10794,-1.93011 -0.19098,-0.55085 -0.35201,-1.10929 -0.42581,-1.6893 -0.14023,-0.66208 -0.33972,-1.31546 -0.34572,-1.99885 -0.006,-0.48946 -0.013,-0.97874 -0.0393,-1.46761 -0.0285,-0.46978 -0.0672,-0.93995 -0.15503,-1.40301 -0.0893,-0.45409 -0.19118,-0.90645 -0.30799,-1.35393 -0.19065,-0.54344 -0.49356,-1.03306 -0.77102,-1.5353 -0.19045,-0.38255 -0.3657,-0.77196 -0.53433,-1.16427 -1.15515,0.7586 -2.71266,0.13813 -3.1626,-1.87276 -0.39892,0.53803 -0.81251,1.06548 -1.22421,1.5937 -0.68146,0.80577 -1.36723,1.60788 -2.06189,2.40244 -0.59164,0.67984 -1.16106,1.3753 -1.79007,2.02158 -0.12185,0.11335 -0.24352,0.22669 -0.36536,0.34004 -2.59553,2.41458 -5.05352,-0.25479 -2.42569,-2.63447 0.0761,-0.0689 0.15231,-0.13781 0.22841,-0.20671 0.58518,-0.59752 1.10374,-1.25103 1.65726,-1.8774 0.65047,-0.74371 1.29029,-1.49684 1.9327,-2.24741 0.66427,-0.85211 1.34386,-1.69339 1.92547,-2.60604 0.62961,-0.98636 1.273,-1.96367 1.77095,-3.02617 0.38117,-0.7244 0.78254,-1.4453 1.06143,-2.2164 0.48977,-1.3544 1.32848,-1.92403 2.06913,-1.90015 z m -113.39773,23.22443 c 0.0419,-0.002 0.0846,-10e-4 0.12815,5.3e-4 0.54503,0.0241 1.21656,0.33175 1.93735,1.02061 1.62413,1.55204 2.07164,3.84556 2.58383,5.94227 0.3757,1.77767 0.2325,1.06436 0.52555,2.63447 0.71014,0.26059 1.31389,1.11403 1.31878,2.5647 0.003,0.77167 0.0115,1.54488 -0.0718,2.31355 -0.099,0.90896 -0.1359,2.06809 -0.94413,2.70475 -0.99491,0.78371 -1.99849,0.49902 -2.86132,-0.15916 -0.65133,-0.6198 -1.27181,-1.27493 -1.96578,-1.84795 -0.74629,-0.59771 -1.54277,-1.13407 -2.25619,-1.77251 -0.69789,-0.69953 -1.3404,-1.4593 -1.64486,-2.41949 -0.0579,-0.19246 -0.13187,-0.38052 -0.17312,-0.57722 -0.17082,-0.81444 -0.0439,-1.64481 0.0801,-2.45515 0.16267,-0.80158 0.39296,-1.58339 0.77412,-2.31149 0.27478,-0.63281 0.5482,-1.26673 0.83509,-1.89394 0.23268,-0.5087 0.51078,-0.90064 0.80822,-1.18959 -0.56903,-1.41399 -0.0969,-2.5143 0.92604,-2.55436 z m 0.89193,6.65799 c -0.0585,0.1351 -0.11716,0.27005 -0.1757,0.40514 -0.27133,0.49977 -0.44107,1.02704 -0.54673,1.58233 -0.0244,0.3719 -0.14986,0.76197 -0.0951,1.13688 0.004,0.0257 0.0455,0.0254 0.0646,0.0429 0.13445,0.42021 0.45823,0.72857 0.76998,1.02681 0.51875,0.42032 1.05546,0.81797 1.58543,1.22421 -0.36506,-0.37941 -0.67361,-0.93464 -0.82217,-1.73219 -0.31215,-1.67578 -0.14542,-0.83123 -0.50281,-2.53318 -0.0898,-0.37013 -0.18828,-0.76443 -0.27751,-1.1529 z m 88.73412,4.03231 c 0.95889,0.0456 1.81312,1.08827 1.4857,2.94297 -0.0681,0.38576 -0.13848,0.77171 -0.26045,1.14515 -0.25461,0.72568 -0.59164,1.41865 -0.96842,2.08876 -0.39456,0.6672 -0.72391,1.37525 -1.19114,1.9973 -2.12914,2.8346 -4.51373,0.78367 -2.75125,-2.29237 0.28911,-0.50459 0.56137,-1.01844 0.85524,-1.52032 0.23443,-0.46218 0.51266,-0.91691 0.66198,-1.41645 0.0577,-0.19972 0.0908,-0.40457 0.12454,-0.60927 0.26999,-1.6397 1.19772,-2.376 2.0438,-2.33577 z m -86.73786,1.68775 v 5.3e-4 c 7.9e-4,5.3e-4 0.001,5.3e-4 0.002,0.001 z m 0.002,0.002 c 0.007,0.006 0.0147,0.0125 0.0222,0.0186 -10e-6,-0.002 1e-5,-0.004 0,-0.006 -0.007,-0.005 -0.0148,-0.008 -0.0222,-0.0124 z m 2.06292,1.92029 c 0.0429,0.0411 0.085,0.0832 0.12816,0.12402 -0.0397,-0.0475 -0.0831,-0.0877 -0.12816,-0.12402 z m 73.22809,8.6217 c 1.82474,-0.0591 2.54073,2.13615 0.21394,3.63853 -0.39593,0.25567 -0.79476,0.50381 -1.22008,0.70901 -0.87326,0.44335 -1.76144,0.87258 -2.73575,1.04025 -1.06664,0.23103 -2.14535,0.42447 -3.23494,0.50435 -1.0184,0.0329 -2.03754,0.003 -3.05563,-0.0336 -0.74158,-0.0362 -1.48251,-0.0849 -2.2195,-0.17725 -3.51764,-0.44111 -3.07412,-3.99183 0.4439,-3.55379 0.64683,0.0805 1.29738,0.12298 1.9482,0.15399 0.91802,0.0257 1.8378,0.0689 2.7559,0.032 0.87237,-0.0836 1.73902,-0.23287 2.59416,-0.42373 0.67676,-0.1054 1.27446,-0.42345 1.87637,-0.73227 0.30684,-0.14987 0.5997,-0.322 0.88212,-0.51314 0.64226,-0.43465 1.24039,-0.62788 1.75131,-0.6444 z m -72.69789,2.60088 c 0.10378,-0.003 0.21073,-0.002 0.32143,0.003 1.82867,0.0735 3.65486,0.15418 5.4808,0.28008 2.42441,0.13788 4.81162,0.57774 7.17269,1.12448 1.43272,0.41486 2.91384,0.8429 4.15685,1.70067 0.2203,0.15201 0.42159,0.32927 0.63252,0.49403 0.79712,0.7482 1.5142,1.70785 1.77199,2.79518 0.0559,0.23567 0.074,0.47844 0.1111,0.71778 -0.0465,0.31346 -0.0226,0.64596 -0.13952,0.94051 -0.60585,1.52692 -2.12543,1.87618 -3.58325,1.98645 -0.17051,0.43749 -0.60029,0.77675 -0.9741,1.07073 -0.56134,0.44147 -1.89792,0.33601 -2.56987,0.31161 -1.24283,-0.10729 -2.47251,-0.31968 -3.70106,-0.52917 -1.40184,-0.23903 -2.14316,-0.95025 -2.30425,-1.67793 -0.4119,-0.0388 -0.82429,-0.0742 -1.23714,-0.10387 -1.13825,-0.0785 -2.27851,-0.0747 -3.41116,-0.21859 -0.83314,-0.11816 -1.64416,-0.24051 -2.32906,-0.79065 -0.65928,-0.52957 -0.7,-0.82772 -1.04696,-1.56063 -0.04,-0.35186 -0.13935,-0.70164 -0.11989,-1.05523 0.0458,-0.83229 0.43212,-1.53536 0.9989,-2.0867 -2.31552,-0.72592 -2.0603,-3.33082 0.76998,-3.40134 z m 99.84404,3.40443 c 0.89444,2e-5 1.80201,0.88639 1.82986,2.65875 0.0122,0.77299 5.3e-4,1.54321 -0.0584,2.31407 -0.0189,0.8371 -0.27326,1.63603 -0.44959,2.44688 -0.16607,0.68172 -0.37909,1.35047 -0.58601,2.02056 -0.19246,0.55563 -0.39009,1.10268 -0.54984,1.6681 -0.15099,0.55122 -0.23754,1.11651 -0.30024,1.68362 -0.0863,0.91572 -0.34559,1.77959 -0.71623,2.61691 -0.47349,0.94375 -1.04185,1.83552 -1.56528,2.75177 -0.54649,0.8329 -1.07552,1.68099 -1.66708,2.48304 -0.57984,0.76449 -1.24127,1.45179 -1.94562,2.10066 -0.52224,0.50847 -1.02633,1.0339 -1.49913,1.58852 -0.3433,0.374104 -0.19,0.20189 -0.46354,0.514185 -2.33593,2.666788 -5.03425,0.294085 -2.68924,-2.364715 0.30177,-0.34215 0.1584,-0.18438 0.42943,-0.4749 0.56693,-0.66299 1.16901,-1.29381 1.79782,-1.8986 0.54246,-0.49826 1.05444,-1.01953 1.50069,-1.60817 0.51583,-0.67701 0.94427,-1.41909 1.42833,-2.11874 0.47149,-0.82274 0.97633,-1.62708 1.41852,-2.466 0.23903,-0.48103 0.35498,-0.99089 0.41238,-1.52444 0.0867,-0.76114 0.20744,-1.5186 0.41341,-2.25774 0.1687,-0.59517 0.37096,-1.17415 0.57619,-1.75649 0.17924,-0.5715 0.35625,-1.14371 0.50695,-1.7234 0.14297,-0.64949 0.35764,-1.28722 0.37724,-1.957 0.0532,-0.67895 0.0571,-1.35709 0.048,-2.03812 -0.0244,-1.77241 0.85688,-2.65876 1.75132,-2.65875 z m -89.44725,1.10639 v 5.3e-4 c -0.0581,0.15035 -0.12095,0.2986 -0.18449,0.44131 -0.10296,0.23124 -0.28388,0.43843 -0.48783,0.62787 0.65991,0.18636 1.31722,0.38129 1.96474,0.60823 0.0214,0.008 0.0427,0.0158 0.0641,0.0238 1.0999,0.12821 2.20007,0.25055 3.30729,0.293 0.37222,-0.002 0.4926,7.9e-4 0.60255,-0.004 -0.0857,-0.12905 -0.14974,-0.1971 -0.15089,-0.11576 -0.93846,-0.82023 -2.17627,-1.1419 -3.34709,-1.49035 -0.5876,-0.13677 -1.1771,-0.26564 -1.76836,-0.38447 z m -9.08731,0.632 c -0.0153,0.002 -0.0285,0.005 -0.0393,0.0119 -0.0438,0.0269 0.0931,0.0458 0.14314,0.0574 0.0177,0.004 0.15174,0.0253 0.262,0.0439 -0.0839,-0.0379 -0.26451,-0.12347 -0.36587,-0.11318 z m 2.84634,0.11784 c -0.32102,0.0507 -0.64023,0.10949 -0.95756,0.17363 0.28124,0.0152 0.56309,0.0273 0.84491,0.0362 0.0355,-0.0703 0.0738,-0.14003 0.11265,-0.20979 z m 11.91142,2.0009 c 0.004,0.0532 0.01,0.10367 0.015,0.18966 0.0928,0.10138 0.0618,-0.0113 -0.015,-0.18966 z m 5.52783,6.52002 c 0.70697,0.0318 1.49693,0.59052 2.01073,1.83916 0.27376,0.66529 0.55363,1.32792 0.83819,1.98851 0.45,-0.20402 1.0374,-0.29938 1.47898,-0.42167 1.12375,-0.43673 2.1441,-0.93448 3.35742,-0.30179 0.12407,0.0647 0.23037,0.15466 0.33228,0.25114 0.24703,-0.28861 0.48976,-0.58063 0.74569,-0.86144 0.64467,-0.64229 1.42789,-1.22749 2.37246,-1.29708 0.25433,-0.0188 0.50999,0.0203 0.76481,0.0305 0.26477,0.0959 0.54403,0.15867 0.79427,0.28784 0.66462,0.34303 1.17571,1.0291 1.35031,1.75079 0.18558,0.76708 0.0421,1.02234 -0.11989,1.76475 -0.47113,1.20941 -1.33875,2.19679 -2.11925,3.2153 -0.55897,0.6636 -1.11743,1.3851 -1.88671,1.82161 -0.20953,0.11889 -0.43596,0.20647 -0.65371,0.30953 -1.50343,0.52609 -3.0401,0.19253 -4.53667,-0.1695 -0.43169,-0.0894 -0.85734,-0.19155 -1.27796,-0.30644 -0.29922,0.0377 -0.59781,0.0763 -0.88057,0.14832 -0.18283,-0.13698 -0.37882,-0.25821 -0.5488,-0.41084 -0.1113,-0.0999 -0.214,-0.20724 -0.31213,-0.31883 -0.35476,-0.14337 -0.70495,-0.30063 -1.05006,-0.47698 -1.50964,-0.86505 -2.5445,-2.10229 -1.11259,-3.62665 -0.27102,-0.62943 -0.53715,-1.26102 -0.79634,-1.89549 -0.79601,-1.94864 0.027,-3.26138 1.10949,-3.32022 0.0463,-0.003 0.0929,-0.003 0.14005,-5.3e-4 z m 11.79153,4.63175 c -0.0672,-0.006 -0.1455,0.0585 -0.21808,0.12868 0.0579,-0.007 0.10678,-0.0189 0.16743,-0.0713 0.0194,-0.0167 0.0761,-0.0554 0.0507,-0.0574 z m -2.70992,0.49971 c 0.0184,0.0545 0.0314,0.095 0.0563,0.16589 0.0133,0.0377 0.008,-0.0881 -0.0186,-0.11834 -0.0131,-0.0149 -0.025,-0.0321 -0.0377,-0.0476 z m -4.16253,0.73227 c 0.009,0.0575 0.0277,0.13494 0.0429,0.20464 -0.004,-0.0662 -0.0156,-0.13366 -0.0429,-0.20464 z m 1.93011,0.41185 c 5.3e-4,-1.3e-4 -0.002,0.001 -0.002,0.001 5.3e-4,-1.1e-4 10e-4,-5.3e-4 0.002,-5.3e-4 z m -0.002,0.001 c -0.0905,0.0195 -0.17848,0.0473 -0.26562,0.0785 0.0548,-0.002 0.0907,-0.003 0.16226,-0.007 0.0418,-0.002 0.14013,-0.0778 0.10336,-0.0713 z m -0.98754,0.39119 c -0.0642,0.0282 -0.1279,0.0582 -0.19327,0.0827 0.0894,0.0223 0.17935,0.0444 0.26923,0.0667 -0.0263,-0.0494 -0.0519,-0.0988 -0.076,-0.14935 z" /></clipPath><clipPath
       clipPathUnits="userSpaceOnUse"
       id="clipPath418"><path
         id="path418"
         style="fill:#ff0000;fill-opacity:1;fill-rule:nonzero;stroke:none;stroke-width:0.264583"
         d="M 431.83034,-311.57484 V -68.378315 H 611.33463 V -311.57484 Z m 91.50914,42.05635 c 0.89975,2.6e-4 1.73646,0.88459 1.60146,2.65203 -0.0401,0.5256 0.026,1.00829 0.25528,1.4826 0.15958,0.18397 0.31701,0.37048 0.49144,0.54105 2.53472,2.47862 -0.1189,5.06345 -2.56573,2.49804 -0.47202,-0.49489 -0.92657,-1.0116 -1.22112,-1.63711 -0.37492,-0.92434 -0.6077,-1.87879 -0.54105,-2.88458 0.1172,-1.76871 1.07998,-2.65235 1.97972,-2.65203 z" /></clipPath><clipPath
       clipPathUnits="userSpaceOnUse"
       id="clipPath424"><path
         id="path425"
         style="fill:#ff0000;fill-opacity:1;fill-rule:nonzero;stroke:none;stroke-width:0.264583"
         d="m 497.34634,-327.05851 v 198.45455 h 160.93178 v -198.45455 z m 47.43173,178.18241 c 2.15595,-0.0109 2.41694,2.31764 -0.25373,3.66489 -0.0575,0.029 -0.36225,0.12375 -0.32298,0.26458 0.006,0.0208 0.0493,0.008 0.0574,0.0279 0.0307,0.0745 7.9e-4,0.16124 0.002,0.24184 0.014,0.0278 0.0131,0.17579 0.0791,0.13229 2.95924,-1.95221 -2.36403,4.57524 -3.3817,1.17926 -0.18868,-0.62961 -0.33147,-1.23289 -0.23049,-1.89859 0.0463,-0.23087 0.0717,-0.46685 0.13901,-0.69247 0.37887,-1.26974 1.27803,-2.21404 2.52491,-2.65203 0.52264,-0.18358 0.98723,-0.26566 1.38648,-0.26768 z m 64.75522,1.15651 c 0.57126,0.0133 1.24334,0.24916 1.94097,0.79582 0.52536,0.41167 0.94291,0.92543 1.34203,1.45469 2.13453,2.83057 -0.81956,5.01637 -2.87889,2.13062 -0.22997,-0.32227 -0.47312,-0.6268 -0.79375,-0.86609 -2.13078,-1.59043 -1.32413,-3.55481 0.38964,-3.51504 z" /></clipPath></defs><g
     id="layer1"
     transform="translate(-497.34634,327.05851)"><path
       style="fill:#000000"
       d="m 543.18236,-128.77798 c -2.98545,-0.51505 -5.42081,-2.60194 -6.88714,-5.90164 -0.66418,-1.49463 -0.96806,-5.94532 -0.5172,-7.57509 0.24669,-0.89173 0.21084,-1.11785 -0.2831,-1.78594 -0.69002,-0.93331 -0.99078,-0.95311 -1.7763,-0.11696 -2.76734,2.9457 -10.88957,0.97273 -15.38615,-3.73745 -4.47567,-4.68829 -7.74703,-13.98933 -8.69761,-24.72886 -0.39256,-4.43517 -0.32754,-11.45175 0.14147,-15.26559 0.46431,-3.77564 2.08665,-12.28858 2.66915,-14.0059 l 0.38344,-1.13044 -0.97557,-0.92008 c -0.53656,-0.50605 -1.21888,-0.92008 -1.51626,-0.92008 -0.80806,0 -3.60753,-1.0474 -4.78888,-1.79171 -3.37417,-2.12592 -6.32644,-6.43547 -7.62799,-11.1349 -0.47919,-1.73015 -0.56204,-2.7678 -0.57344,-7.18172 -0.0146,-5.64585 0.32918,-7.69274 1.94629,-11.58861 2.57632,-6.2068 7.5248,-11.10623 11.29255,-11.18063 0.59627,-0.0118 0.98281,-0.30348 1.76845,-1.3346 0.55296,-0.72575 1.26734,-1.43909 1.5875,-1.58521 0.42794,-0.19531 0.75063,-0.82506 1.21844,-2.37783 0.75426,-2.50361 2.93319,-6.88809 4.79234,-9.64323 7.0936,-10.51227 18.67367,-18.79112 32.93591,-23.5466 1.89177,-0.63078 4.27302,-1.31665 5.29166,-1.52416 l 1.85209,-0.37728 -0.0706,-1.95686 c -0.20095,-5.56973 -3.02275,-12.21306 -7.04681,-16.59022 -1.34722,-1.46545 -3.95518,-3.5308 -5.35114,-4.2378 -1.27427,-0.64537 -3.81761,-1.63416 -4.2002,-1.63294 -0.14552,4.6e-4 -0.66036,0.76627 -1.14409,1.70179 -1.09453,2.11681 -2.98079,3.90926 -5.21317,4.95392 -5.42407,2.53823 -11.6409,0.11885 -14.38586,-5.59849 -0.90742,-1.89003 -0.95272,-2.11646 -0.95272,-4.7625 0,-2.55861 0.0649,-2.915 0.82091,-4.51045 1.33721,-2.82187 3.29531,-4.67295 5.92597,-5.60211 1.46377,-0.51701 1.71143,-0.54743 4.42108,-0.54313 1.92746,0.003 2.38939,0.1068 4.10104,0.92096 3.41759,1.6256 6.00375,5.09985 6.24135,8.38462 l 0.10965,1.51584 1.22854,0.36174 c 2.084,0.61363 5.7724,2.60639 7.7808,4.20379 5.48376,4.36157 9.42157,11.54973 10.67048,19.47811 0.25215,1.60073 0.4763,2.93778 0.49811,2.97122 0.0218,0.0334 1.69901,-0.19861 3.72711,-0.51568 6.45998,-1.00994 19.43125,-0.74972 24.36592,0.4888 0.53434,0.13411 0.58604,0.0204 0.75718,-1.66478 0.44046,-4.33714 1.8097,-8.62607 4.01105,-12.56395 0.67928,-1.21515 1.30661,-2.26889 1.39405,-2.34165 0.0874,-0.0728 0.36881,-0.46196 0.62526,-0.86489 0.79253,-1.24518 3.63576,-4.12727 5.32305,-5.39579 1.92219,-1.44513 5.05529,-3.05984 7.07827,-3.64793 l 1.46798,-0.42676 0.1406,-1.55056 c 0.21597,-2.38173 1.31482,-4.53124 3.23434,-6.32687 2.6445,-2.47379 5.30068,-3.42345 8.72172,-3.11825 6.76298,0.60333 11.21303,7.42865 9.18871,14.09328 -1.00233,3.29996 -2.9437,5.53895 -6.13213,7.07221 -1.57318,0.75652 -1.94535,0.82702 -4.36562,0.82702 -2.4278,0 -2.79313,-0.0698 -4.43319,-0.84666 -2.2727,-1.07656 -3.9582,-2.65775 -5.16,-4.84068 -0.52112,-0.94655 -0.97914,-1.76289 -1.01782,-1.81409 -0.0387,-0.0512 -0.70313,0.1225 -1.47654,0.38601 -0.77341,0.26352 -1.46573,0.48525 -1.53849,0.49274 -0.0728,0.007 -0.96573,0.47912 -1.98438,1.04806 -2.58416,1.44333 -6.19997,5.15219 -8.002,8.20793 -2.3343,3.95834 -3.51383,7.59396 -3.92079,12.08497 l -0.1821,2.0095 1.9514,0.46858 c 8.28937,1.99046 18.06496,6.51082 24.64758,11.39737 8.99315,6.67598 15.61684,15.16467 18.3036,23.45727 0.47644,1.47051 0.76366,1.91555 1.6512,2.55848 0.59094,0.42807 1.23123,1.13253 1.42286,1.56545 0.27954,0.63152 0.55345,0.81462 1.38559,0.92624 1.76382,0.23658 4.37095,1.71524 6.13554,3.47983 5.18018,5.18018 7.84343,12.69706 7.45558,21.04296 -0.27355,5.88651 -2.11473,10.81248 -5.31901,14.23074 -1.84725,1.9706 -5.64547,4.16437 -7.56391,4.36874 -0.56197,0.0599 -1.27248,0.41333 -1.80076,0.89585 l -0.87257,0.79696 0.65824,2.62 c 3.13504,12.47843 3.65306,22.35705 1.75375,33.44395 -1.59614,9.31714 -4.13072,15.232 -8.33545,19.45215 -3.32287,3.33504 -6.55561,4.76682 -10.71563,4.74593 -2.42261,-0.0122 -3.33466,-0.32732 -4.47269,-1.54554 l -0.63625,-0.68107 -0.63107,0.68094 c -0.60954,0.65771 -0.6226,0.75808 -0.38269,2.9414 0.48346,4.39978 -0.50486,7.81777 -2.94899,10.19869 -2.07305,2.01944 -2.85592,2.3075 -6.27114,2.3075 -2.72115,0 -3.03867,-0.0556 -4.48434,-0.78538 -0.85571,-0.43197 -2.27897,-1.45488 -3.16281,-2.27315 l -1.60696,-1.48777 -2.84892,0.67848 c -6.79489,1.61822 -12.85169,2.28133 -20.80248,2.27749 -7.7707,-0.004 -15.10043,-0.78633 -21.21633,-2.26521 l -2.65739,-0.64258 -1.57595,1.45521 c -0.86677,0.80036 -1.66779,1.45525 -1.78005,1.45531 -0.11226,5e-5 -0.64804,0.28531 -1.19063,0.6339 -1.85368,1.19092 -3.74558,1.52881 -6.19449,1.10632 z m 2.78546,-3.04709 c 1.37097,-0.31815 3.9948,-1.97059 5.16917,-3.25544 1.11346,-1.21822 2.42955,-3.63949 3.11946,-5.739 1.07479,-3.27076 0.44042,-8.12069 -1.37322,-10.49849 -2.388,-3.13083 -7.17565,-2.54297 -10.49027,1.28807 -1.85424,2.14312 -2.12549,2.59354 -2.98902,4.96337 -0.5372,1.47425 -0.75631,2.65733 -0.85688,4.62659 -0.17115,3.35138 0.41925,5.17715 2.27698,7.04139 1.69798,1.70392 2.94195,2.08446 5.14378,1.57351 z m -3.00144,-13.50139 c 0,-0.14096 0.1786,-0.18775 0.39688,-0.10399 0.21828,0.0838 0.39687,0.0292 0.39687,-0.12119 0,-0.15042 -0.20836,-0.31478 -0.46302,-0.36524 -0.27002,-0.0535 -0.34747,-0.16461 -0.1858,-0.26653 0.42792,-0.26979 1.01007,0.21511 0.82797,0.68965 -0.17461,0.45504 -0.9729,0.59231 -0.9729,0.1673 z m 70.7177,12.77401 c 2.20705,-1.52689 3.36563,-4.01178 3.36563,-7.2185 0,-6.0208 -4.51262,-12.60702 -9.21454,-13.44874 -1.72396,-0.30861 -2.9496,-0.0577 -4.13506,0.84648 -2.06197,1.57274 -2.92016,3.93445 -2.89411,7.96449 0.015,2.32399 0.11699,2.89278 0.83824,4.67605 1.07559,2.6594 1.80241,3.76855 3.54589,5.4112 2.24768,2.11768 3.78969,2.7913 6.0012,2.62158 0.99787,-0.0766 1.73601,-0.32904 2.49275,-0.85256 z m -2.19062,-13.0469 c 0,-0.35278 0.17639,-0.52917 0.52917,-0.52917 0.35278,0 0.52917,0.17639 0.52917,0.52917 0,0.35278 -0.17639,0.52917 -0.52917,0.52917 -0.35278,0 -0.52917,-0.17639 -0.52917,-0.52917 z m -25.79687,11.77045 c 6.12061,-0.61566 13.89142,-2.07624 13.88963,-2.61067 -5.4e-4,-0.16293 -0.24077,-0.68953 -0.53384,-1.17021 -1.63518,-2.68201 -2.15839,-8.32548 -1.08527,-11.70616 2.1968,-6.9207 9.25392,-9.18772 15.05268,-4.83551 l 0.86487,0.64912 1.30603,-1.14174 c 0.71831,-0.62795 1.31139,-1.33146 1.31794,-1.56334 0.007,-0.23188 -0.20753,-1.06531 -0.47575,-1.85208 -0.26822,-0.78677 -0.70185,-2.56158 -0.96364,-3.94402 -0.26179,-1.38245 -0.51571,-2.56028 -0.56428,-2.6174 -0.0486,-0.0571 -0.24539,0.0265 -0.43741,0.18589 -0.83725,0.69486 -5.36508,2.72366 -8.54264,3.82773 -3.32733,1.15612 -8.89726,2.64483 -11.09707,2.966 -6.81099,0.99439 -8.9932,1.18484 -15.08125,1.3162 -14.70222,0.31722 -29.17678,-2.67222 -36.90581,-7.62219 -0.7984,-0.51132 -1.47926,-0.90207 -1.51301,-0.86832 -0.0337,0.0338 -0.29664,1.24582 -0.5842,2.69349 -0.28757,1.44768 -0.75936,3.46386 -1.04844,4.48041 -0.28908,1.01656 -0.50404,1.85574 -0.47769,1.86486 0.0263,0.009 0.66572,0.52186 1.42084,1.13942 l 1.37295,1.12285 1.27289,-0.8881 c 2.14632,-1.49751 3.3962,-1.9123 5.76223,-1.9123 2.52167,0 3.90808,0.4865 5.72756,2.00986 3.95482,3.31116 4.91373,10.41571 2.20604,16.3445 -0.35694,0.78157 -0.64899,1.50603 -0.64899,1.60992 0,0.46093 7.97849,1.89574 13.22917,2.37906 1.67349,0.15404 3.45943,0.3202 3.96875,0.36925 2.54884,0.24545 9.0384,0.12848 12.56771,-0.22652 z m -54.19104,-12.63034 c 0.46179,-0.48795 1.18151,-1.83269 1.6639,-3.10886 0.46756,-1.23693 1.19051,-3.14193 1.60656,-4.23333 2.56361,-6.72504 4.05246,-14.96153 4.34347,-24.02859 0.31693,-9.87463 -1.95774,-17.7421 -7.61852,-26.35038 -1.77867,-2.70479 -5.38118,-6.77103 -5.99884,-6.77103 -0.33559,0 -0.3448,0.97644 -0.0112,1.18264 0.47397,0.29293 3.65348,5.2981 4.71117,7.41632 4.04212,8.09502 5.62174,15.33557 5.6196,25.75876 -10e-4,5.52629 -0.35181,9.33585 -1.35522,14.72249 -1.26434,6.78739 -2.70578,11.96853 -4.10129,14.74172 -0.75328,1.49692 -0.75655,1.53015 -0.15074,1.53015 0.2625,0 0.84348,-0.38695 1.29107,-0.85989 z m 94.01083,0.38364 c 0,-0.26194 -0.10305,-0.58936 -0.22899,-0.7276 -0.95973,-1.05346 -4.4083,-13.36701 -5.0351,-17.97844 -1.01681,-7.48085 -1.03534,-16.07832 -0.0489,-22.66664 0.77541,-5.17869 2.53141,-10.27781 5.49707,-15.96252 1.08462,-2.07906 3.29931,-5.4678 4.09055,-6.25904 0.52361,-0.52361 0.56438,-1.04239 0.0843,-1.07331 -0.14188,-0.009 -0.37796,0.21776 -0.52462,0.50422 -0.14666,0.28647 -0.4248,0.46813 -0.61809,0.4037 -0.19328,-0.0644 -0.93309,0.51225 -1.64402,1.28151 -3.14528,3.40339 -7.35538,10.90182 -8.97827,15.99083 -1.5379,4.82249 -1.89214,7.3233 -1.87589,13.24304 0.0205,7.48031 0.63324,12.281 2.44646,19.16842 1.27935,4.85951 4.33114,12.91476 5.27248,13.91677 0.70993,0.75569 1.56294,0.8425 1.56294,0.15906 z m -97.13522,-0.64823 c 2.58799,-6.40487 4.39749,-13.90093 5.22125,-21.62968 0.70377,-6.60296 0.21407,-16.70344 -1.08451,-22.36891 -1.32862,-5.79659 -3.76995,-11.55163 -7.04067,-16.59732 -0.68385,-1.05497 -1.29626,-1.28817 -1.29626,-0.49361 0,0.6047 -1.07354,2.2219 -2.05206,3.09127 -1.30458,1.15906 -3.34034,1.97273 -4.93563,1.97273 h -1.4642 l -0.40326,1.38907 c -1.20206,4.14052 -3.0511,14.87534 -3.0511,17.71351 0,0.83949 0.084,1.03016 0.40014,0.90882 0.31893,-0.12238 0.3657,-0.007 0.23043,0.56701 -0.0933,0.3963 -0.27342,0.83366 -0.40015,0.97191 -0.34555,0.37694 -0.27742,1.73302 0.0871,1.73302 0.24694,0 0.24694,0.0705 0,0.3175 -0.44843,0.44842 -0.37922,2.359 0.10831,2.98979 0.27078,0.35035 0.38351,0.39505 0.3336,0.13229 -0.13166,-0.6931 0.30546,-1.90616 0.64073,-1.77813 0.2001,0.0764 0.33003,-0.15894 0.34741,-0.62929 0.0153,-0.41325 -0.0639,-0.69474 -0.17584,-0.62553 -0.11198,0.0692 -0.26774,-0.0237 -0.34614,-0.20655 -0.0784,-0.18281 -0.0965,-0.005 -0.0401,0.39523 0.0563,0.40018 -0.008,0.7276 -0.14221,0.7276 -0.13455,0 -0.18284,-0.50601 -0.10731,-1.12448 0.20036,-1.64068 0.36751,-2.04138 0.78476,-1.88127 0.28775,0.11042 0.35244,-0.0983 0.28915,-0.93303 -0.1188,-1.56684 0.45365,-1.99675 2.41765,-1.81562 5.98046,0.55157 9.99356,6.62802 9.03961,13.68736 -0.71255,5.27292 -4.20181,8.89924 -9.03533,9.39024 -0.98227,0.0998 -1.78594,0.30601 -1.78594,0.45829 0,0.74322 2.09143,5.36421 3.34589,7.39269 2.08139,3.36565 4.56926,5.45043 8.02356,6.72358 1.41921,0.52308 1.71369,0.4557 2.09116,-0.47849 z m -14.78353,-36.19738 c 0,-0.15411 0.11907,-0.20662 0.26459,-0.11668 0.14552,0.0899 0.26458,0.21603 0.26458,0.2802 0,0.0642 -0.11906,0.11668 -0.26458,0.11668 -0.14552,0 -0.26459,-0.12609 -0.26459,-0.2802 z m 117.34271,35.85583 c 3.17906,-1.52111 5.48271,-3.96515 7.47136,-7.92668 0.67356,-1.34178 2.18593,-5.19686 2.18593,-5.57201 0,-0.0641 -0.51077,-0.11653 -1.13504,-0.11653 -2.63012,0 -5.54558,-1.22728 -7.14962,-3.00969 -3.18322,-3.5372 -3.77259,-10.26097 -1.29794,-14.8077 0.99742,-1.83259 3.09044,-3.8374 4.8201,-4.61696 1.93552,-0.87235 4.84223,-1.09498 6.06183,-0.4643 0.47658,0.24645 0.92306,0.39154 0.99218,0.32242 0.0691,-0.0691 -0.0117,-1.59595 -0.17963,-3.39295 -0.31419,-3.36241 -1.01336,-7.24615 -2.30293,-12.79227 l -0.73824,-3.175 -1.22866,-0.0369 c -2.97824,-0.0894 -5.65991,-1.77604 -7.00322,-4.40468 -0.35599,-0.69661 -0.74307,-1.20735 -0.86017,-1.13497 -0.46679,0.28849 -2.72471,3.91069 -3.82227,6.13175 -3.99878,8.09213 -5.47098,14.98066 -5.47098,25.59918 0,7.05769 0.6573,12.32854 2.4075,19.30563 0.7925,3.15926 2.4709,8.46001 3.26751,10.31945 0.40429,0.9437 0.48928,0.99905 1.2816,0.83455 0.46673,-0.0969 1.68204,-0.57495 2.70069,-1.06235 z m -91.28413,-4.35162 c 0.21987,-0.24295 0.39976,-0.59805 0.39976,-0.78912 0,-0.36441 -1.43706,-1.86136 -1.78353,-1.85787 -0.11047,10e-4 -0.63649,1.16197 -1.16895,2.57968 l -0.9681,2.57767 0.68849,0.72929 0.68849,0.72929 0.87205,-1.76361 c 0.47962,-0.96999 1.05193,-1.96239 1.27179,-2.20533 z m 79.21651,3.28097 c 0.53022,-0.67406 0.53103,-0.70356 0.0526,-1.91822 -1.78566,-4.53397 -1.66007,-4.29904 -2.11137,-3.94994 -0.8628,0.6674 -1.60736,1.3986 -1.6118,1.58289 -0.003,0.10423 0.45275,0.89707 1.01169,1.76187 0.55895,0.8648 1.16871,1.94038 1.35502,2.39018 0.41235,0.99549 0.60969,1.01566 1.30381,0.13322 z m -32.38238,-9.39245 c 10.44077,-0.79276 20.4181,-3.61214 25.88896,-7.31565 l 1.81189,-1.22656 -0.17467,-1.07527 c -0.43169,-2.6574 -0.66711,-5.52662 -0.66897,-8.15287 -10e-4,-1.56435 -0.0347,-2.84427 -0.0747,-2.84427 -0.04,0 -0.75214,0.64249 -1.58254,1.42776 -4.99195,4.72058 -14.26158,6.01968 -17.03235,2.38701 -0.54078,-0.709 -0.67087,-1.18981 -0.69159,-2.55614 -0.0296,-1.95263 0.68015,-3.52061 2.46895,-5.45426 0.5866,-0.63411 1.00207,-1.2174 0.92327,-1.2962 -0.0788,-0.0788 -1.66342,0.0539 -3.52138,0.29496 -7.80259,1.01223 -16.55503,1.29888 -24.0156,0.78652 -5.33455,-0.36635 -6.12295,-0.45147 -9.63384,-1.04013 -1.22403,-0.20524 -2.28135,-0.31731 -2.3496,-0.24906 -0.0683,0.0683 0.46217,0.81302 1.17872,1.65505 1.68383,1.97869 2.09562,2.65288 2.47032,4.0444 0.76895,2.85565 -1.01892,5.04279 -4.7819,5.84981 -1.02026,0.21881 -1.89785,0.20976 -3.51447,-0.0362 -3.9831,-0.6061 -7.09658,-2.10134 -9.7251,-4.67044 l -1.48503,-1.45147 -0.0494,3.80853 c -0.0272,2.09469 -0.16017,4.5751 -0.29558,5.51203 -0.41945,2.90204 -0.42006,2.90022 1.40383,4.19851 1.8858,1.34237 5.50058,3.09687 8.39348,4.07394 9.3544,3.15942 21.771,4.33885 35.05729,3.33004 z m -29.96156,-17.98339 c 1.21469,-0.33733 1.91206,-1.28899 1.66522,-2.27245 -0.56532,-2.25242 -5.50375,-5.86193 -9.37813,-6.8545 -2.91375,-0.74647 -5.2924,0.43692 -4.96265,2.46894 0.20748,1.27855 0.72456,1.96453 2.72396,3.61373 1.17721,0.97102 2.3821,1.67345 3.68656,2.14922 3.28626,1.19856 4.53154,1.37647 6.26504,0.89506 z m 46.33244,-0.12013 c 4.33406,-1.12888 8.28953,-4.11781 8.74049,-6.6047 0.17861,-0.985 -1.23836,-2.39873 -2.63453,-2.6285 -3.31149,-0.54497 -10.41167,3.55133 -11.78685,6.80017 -0.93055,2.19841 1.91036,3.41513 5.68089,2.43303 z m -88.92234,-1.18818 c -0.0761,-0.29104 -0.24356,-0.52917 -0.37211,-0.52917 -0.12854,0 -0.23372,0.23813 -0.23372,0.52917 0,0.29104 0.16745,0.52917 0.37211,0.52917 0.24184,0 0.32366,-0.18525 0.23372,-0.52917 z m 0.0938,-3.30748 c 0.021,-0.3637 -0.0683,-0.66127 -0.19844,-0.66127 -0.27442,0 -0.32094,0.8858 -0.0602,1.14653 0.097,0.097 0.18631,0.1763 0.19844,0.1762 0.0121,-1e-4 0.0392,-0.29776 0.0602,-0.66146 z m 71.57672,-3.30688 c 2.23077,-0.1454 6.13954,-0.52071 8.68616,-0.83402 4.36643,-0.53721 4.76779,-0.63534 7.04531,-1.72258 2.56037,-1.22227 5.90721,-2.20783 7.48295,-2.20354 1.05393,0.003 3.39492,0.99342 3.95882,1.6751 0.19972,0.24144 0.44305,0.43898 0.54073,0.43898 0.0977,0 0.33631,-0.74414 0.53028,-1.65364 1.04272,-4.88934 2.32138,-8.51706 4.63936,-13.16251 3.03956,-6.09156 7.26132,-11.38629 10.6614,-13.37099 0.66874,-0.39036 0.86076,-0.68042 0.86377,-1.3048 0.0122,-2.52725 -0.61547,-15.23216 -0.9426,-19.07943 -0.45597,-5.36236 -0.48768,-8.46249 -0.10222,-9.99329 0.26924,-1.06926 0.23159,-1.203 -0.83368,-2.96143 -3.57812,-5.9064 -6.71395,-9.57157 -11.48683,-13.42591 -8.45978,-6.83167 -17.57882,-10.76577 -29.67901,-12.80398 -4.04566,-0.68147 -15.52186,-0.68029 -19.00432,0.002 -3.64778,0.71463 -11.31618,2.74928 -13.30409,3.52996 -5.42021,2.12859 -13.931,7.2335 -17.75016,10.64684 -3.84202,3.43376 -7.45798,8.01936 -9.46266,12.00013 l -0.95672,1.89978 -0.0825,5.69544 c -0.0454,3.13248 -0.20904,6.70746 -0.36368,7.94439 -0.15465,1.23692 -0.35724,5.64224 -0.4502,9.78958 l -0.16901,7.54062 1.23759,0.77246 c 3.73875,2.33359 8.88028,9.60215 11.9233,16.85591 1.47706,3.52094 3.31668,9.92427 3.31668,11.54469 0,0.0572 0.30043,-0.25305 0.66763,-0.68944 0.90359,-1.07385 2.68536,-1.89299 4.11758,-1.89299 1.6364,0 4.68363,0.89008 6.94139,2.02755 1.35113,0.6807 2.58683,1.06186 4.28069,1.3204 1.30969,0.19989 3.5722,0.54371 5.02781,0.76403 5.51364,0.83454 15.46354,1.1202 22.66624,0.65074 z m -9.97749,-33.33893 c -1.31001,-0.40668 -2.8707,-1.95321 -3.77995,-3.74565 -0.87409,-1.72313 -1.89807,-6.00177 -1.89807,-7.93099 0,-0.87604 -0.17267,-1.20761 -1.07684,-2.06772 -0.89368,-0.85013 -1.06244,-1.1695 -0.99219,-1.8776 0.0503,-0.50691 0.31102,-1.00262 0.64234,-1.22128 0.50892,-0.33586 0.66754,-0.27727 1.814,0.67012 0.69098,0.57099 1.617,1.1103 2.05783,1.19846 1.25849,0.2517 2.80311,-0.3086 3.98711,-1.44629 0.59547,-0.57219 1.23332,-1.04034 1.41743,-1.04034 0.18411,0 0.92516,0.52437 1.64677,1.16527 0.72162,0.6409 1.66813,1.24349 2.10336,1.33908 1.12969,0.24812 2.6785,-0.24391 3.69621,-1.17421 0.93014,-0.85026 1.59475,-1.00229 2.11356,-0.48347 0.70895,0.70895 0.0258,2.92706 -1.0019,3.25325 -0.59611,0.1892 -0.64733,0.36491 -1.08021,3.70529 -0.84682,6.53469 -3.08476,9.62314 -7.11643,9.82094 -0.95081,0.0466 -2.09067,-0.0275 -2.53302,-0.16486 z m 4.62132,-3.47708 c 1.01072,-0.94163 1.29893,-1.65706 1.98461,-4.92644 0.37435,-1.78495 0.68063,-3.36253 0.68063,-3.50573 0,-0.14321 -0.519,-0.26037 -1.15334,-0.26037 -0.7461,0 -1.68951,-0.27045 -2.67183,-0.76595 l -1.51849,-0.76594 -1.45607,0.76594 c -0.88376,0.46489 -1.86151,0.76595 -2.48755,0.76595 -0.668,0 -1.03147,0.12076 -1.03147,0.3427 0,1.0331 1.20415,5.78307 1.72833,6.81766 0.71978,1.42069 1.10959,1.78194 2.40235,2.22637 1.14439,0.39342 2.68027,0.0908 3.52283,-0.69419 z m -33.45038,-3.53299 c -4.58582,-1.02443 -7.30161,-3.11499 -9.02692,-6.94876 -2.04144,-4.53625 -0.93638,-10.00814 2.74881,-13.61117 1.90448,-1.86202 3.75501,-2.82228 6.15458,-3.1937 8.07198,-1.24943 15.21732,7.06952 13.08937,15.23927 -0.60591,2.32625 -1.36829,3.59423 -3.28976,5.47147 -1.84781,1.80528 -3.33289,2.54695 -6.31567,3.15416 -1.62551,0.33091 -1.33843,0.34042 -3.36041,-0.11127 z m 7.94076,-5.06832 c 1.02771,-1.02771 1.04215,-2.09063 0.0435,-3.20009 -1.45463,-1.61601 -4.24639,0.38323 -3.33336,2.3871 0.53958,1.18425 2.44721,1.65566 3.28988,0.81299 z m -7.3342,-7.38947 c 2.72491,-1.35788 4.37547,-4.17095 3.76893,-6.42344 -0.49421,-1.83538 -2.38559,-2.88301 -4.37549,-2.42357 -0.58208,0.1344 -1.05833,0.23258 -1.05833,0.21818 0,-0.0144 -0.4945,0.2261 -1.09889,0.53443 -1.44405,0.7367 -2.64507,2.22741 -3.19373,3.96406 -0.39593,1.25324 -0.40234,1.52177 -0.0598,2.50492 0.79362,2.27783 3.33208,2.96353 6.01731,1.62542 z m 57.31121,12.46432 c -5.35524,-1.17483 -9.36045,-6.10242 -9.36045,-11.51608 0,-4.45051 2.94238,-9.2591 6.79036,-11.09718 0.98885,-0.47234 2.06698,-0.88749 2.39584,-0.92256 0.32887,-0.0351 0.67713,-0.14293 0.77391,-0.23971 0.25726,-0.25726 2.19171,-0.21487 3.75901,0.0824 4.69399,0.89019 8.58469,5.03473 9.55528,10.17867 1.06433,5.6407 -2.82302,11.64225 -8.56655,13.22559 -2.1416,0.59039 -3.61122,0.66979 -5.3474,0.2889 z m -0.43704,-4.97803 c 0.79583,-0.72841 0.77273,-1.88677 -0.0541,-2.71362 -1.78005,-1.78005 -4.595,0.43512 -3.15872,2.48569 0.82857,1.18295 2.07296,1.27123 3.21284,0.22793 z m 2.14525,-7.31264 c 1.20274,-0.6136 2.85972,-2.38915 3.37056,-3.61176 1.14679,-2.74467 -0.52538,-5.39999 -3.40203,-5.40225 -2.57021,-0.002 -5.26555,2.10267 -6.1665,4.81518 -0.55354,1.66653 -0.22772,3.02095 0.96894,4.02788 0.68672,0.57783 1.06823,0.68095 2.5193,0.68095 1.16648,0 2.0278,-0.16211 2.70973,-0.51 z m -62.99942,-15.38619 c -0.56615,-0.32975 -0.59865,-1.25493 -0.0706,-2.00887 0.61412,-0.87679 2.56824,-1.89444 4.54644,-2.36767 2.30847,-0.55224 4.40554,-0.19915 5.63428,0.94866 0.94001,0.87811 1.0027,1.33507 0.27365,1.99485 -0.4729,0.42797 -0.64298,0.44267 -1.57257,0.13587 -1.62555,-0.53647 -4.15651,-0.22338 -6.11811,0.75684 -1.80261,0.90077 -2.00467,0.94131 -2.69313,0.54032 z m 65.9937,-0.5596 c -1.67652,-0.97054 -4.43363,-1.30254 -6.14007,-0.73937 -0.83604,0.27592 -1.11008,0.27675 -1.43828,0.004 -1.06154,-0.881 0.21264,-2.69182 2.18202,-3.10103 2.80665,-0.58317 5.68484,0.16955 7.53284,1.97004 1.10381,1.07543 1.22639,1.62365 0.50833,2.27348 -0.65718,0.59474 -1.00654,0.54092 -2.64484,-0.40749 z m -89.77023,45.39366 c 1.24844,-0.88657 2.0196,-2.45243 2.26358,-4.5962 0.0911,-0.80037 0.34601,-5.38427 0.5665,-10.18646 0.22049,-4.80219 0.50778,-10.04094 0.63841,-11.64167 0.79551,-9.74795 0.78657,-9.50778 0.40764,-10.9442 -0.8004,-3.03421 -2.96299,-4.84433 -5.77471,-4.83351 -1.58644,0.006 -2.7879,0.7144 -3.56889,2.10397 -0.47202,0.83984 -0.63193,1.73436 -0.84193,4.70942 -0.74228,10.51618 -1.09706,31.37222 -0.56711,33.33759 0.33756,1.25185 1.17195,2.41703 1.9823,2.76814 0.30732,0.13316 1.29353,0.19723 2.19157,0.14239 1.27225,-0.0777 1.86905,-0.26749 2.70264,-0.85947 z m 120.85777,0.67824 c 0.77945,-0.29635 1.2818,-0.77519 1.93907,-1.84833 0.33089,-0.54025 0.40395,-2.20962 0.43942,-10.04069 0.0583,-12.86484 -0.53375,-24.907 -1.37266,-27.9209 -1.12551,-4.04357 -6.41056,-4.3358 -8.84991,-0.48934 -0.85906,1.35459 -1.45084,3.68555 -1.219,4.80147 0.37217,1.79138 0.97033,9.9611 1.3508,18.44939 0.50516,11.26995 0.66171,12.71088 1.57772,14.52133 1.2149,2.40122 3.73504,3.43937 6.13456,2.52707 z m -131.10626,-6.53086 c -0.12696,-6.10192 0.41737,-22.82658 0.91307,-28.05432 0.22464,-2.36918 0.36821,-4.42831 0.31903,-4.57584 -0.16935,-0.50806 -4.58801,2.85063 -5.71631,4.34505 -1.94,2.56951 -3.97816,7.55829 -4.44844,10.8884 -0.39815,2.81931 -0.25492,9.06841 0.25166,10.98021 0.65735,2.4808 2.43498,5.91115 3.8837,7.49452 1.0194,1.11413 4.19019,3.35232 4.75119,3.35375 0.0761,1.9e-4 0.0968,-1.9941 0.0461,-4.43177 z m 138.22305,3.62717 c 2.32587,-1.33073 4.57608,-3.97015 5.9019,-6.92273 2.10481,-4.68738 2.23266,-12.99553 0.27701,-18.00197 -0.75893,-1.94286 -1.82008,-4.16897 -1.98729,-4.16897 -0.0771,0 -0.0552,0.13746 0.0486,0.30547 0.11432,0.18497 0.0729,0.23381 -0.10512,0.12381 -0.16165,-0.0999 -0.23451,-0.33644 -0.1619,-0.52563 0.29475,-0.76812 -3.38403,-5.00931 -5.64278,-6.50545 -1.49829,-0.99242 -1.76403,-1.00805 -1.53366,-0.0902 0.31633,1.26039 0.89173,6.72965 1.24979,11.87946 0.19136,2.75217 0.34757,9.42876 0.34757,14.85481 0,5.4207 0.045,9.85578 0.10009,9.85573 0.0551,-4e-5 0.73264,-0.36199 1.50576,-0.80433 z m -15.76105,-40.78782 c 0,-0.69611 4.83212,-2.37942 5.55244,-1.93424 1.10872,0.68522 -1.76038,-5.46038 -4.44568,-9.52265 -5.53384,-8.37148 -14.61122,-15.47567 -26.10989,-20.43426 -24.11607,-10.39962 -54.17724,-6.68654 -74.06113,9.14785 -4.02261,3.20337 -9.04464,8.82991 -11.52079,12.90755 -1.26721,2.08679 -3.34447,6.33149 -3.60344,7.36329 -0.16143,0.64323 -0.12222,0.68563 0.4916,0.53158 1.11274,-0.27928 3.8684,0.58506 5.11069,1.60302 0.61717,0.50573 1.22344,0.91951 1.34726,0.91951 0.12382,0 0.63077,-0.74414 1.12655,-1.65364 0.49578,-0.90951 0.97009,-1.71318 1.05401,-1.78594 0.0839,-0.0728 0.59643,-0.8116 1.1389,-1.64186 3.13649,-4.80043 8.31032,-9.5881 14.35802,-13.28639 2.91068,-1.77994 7.23052,-4.12175 7.60321,-4.12175 0.0852,0 1.02865,-0.40121 2.09665,-0.89159 4.32937,-1.98783 9.4976,-3.42944 16.75848,-4.67454 4.17353,-0.71569 14.7289,-0.5705 19.18229,0.26384 6.17892,1.15762 12.53328,2.94774 16.08089,4.53023 6.18121,2.75726 10.87192,5.51487 14.59002,8.57727 4.35869,3.59001 7.89528,7.68565 10.71068,12.40378 1.38265,2.31707 1.55396,2.50404 2.02484,2.20997 0.28292,-0.17669 0.5144,-0.40665 0.5144,-0.51103 z m -95.72037,-58.98643 c 1.54963,-0.77979 2.69045,-1.92574 3.43539,-3.45085 1.6116,-3.29939 1.07964,-6.91781 -1.38287,-9.40631 -1.96615,-1.9869 -3.34164,-2.5792 -5.95725,-2.56525 -1.64807,0.009 -2.40284,0.14529 -3.35662,0.60701 -1.54052,0.74575 -2.97981,2.31956 -3.84039,4.19931 -0.57456,1.255 -0.64736,1.72003 -0.54346,3.47134 0.2176,3.66773 2.25671,6.2593 5.98893,7.61153 1.25716,0.45548 4.32693,0.20215 5.65627,-0.46678 z m 90.67937,-0.24168 c 1.66412,-0.88697 2.43347,-1.7053 3.46931,-3.69023 0.50564,-0.96894 0.6236,-1.60938 0.63349,-3.43959 0.0105,-1.94545 -0.0885,-2.45387 -0.73346,-3.76736 -1.36226,-2.77414 -3.78263,-4.23439 -7.08448,-4.2742 -1.71325,-0.0206 -2.22909,0.087 -3.50151,0.73079 -1.73395,0.8773 -3.17954,2.37093 -3.9714,4.10339 -0.80518,1.76161 -0.79585,5.00544 0.0191,6.64697 2.15704,4.34476 6.96221,5.93239 11.16894,3.69023 z"
       id="path419"
       clip-path="url(#clipPath424)" /></g></svg>
