<?xml version="1.0" encoding="UTF-8" standalone="no"?>
<!-- Created with Inkscape (http://www.inkscape.org/) -->

<svg
   width="212.19052mm"
   height="222.81255mm"
   viewBox="0 0 212.19052 222.81253"
   version="1.1"
   id="svg1"
   xml:space="preserve"
   xmlns="http://www.w3.org/2000/svg"
   xmlns:svg="http://www.w3.org/2000/svg"><defs
     id="defs1" /><g
     id="layer1"
     transform="translate(-13.718445,-5.9171469)"><path
       style="fill:#000000"
       d="m 144.64022,228.5758 c -3.11668,-0.44306 -5.95486,-1.54105 -7.98499,-3.08911 l -0.87085,-0.66407 -3.62706,0.41378 c -12.79515,1.4597 -29.2665,1.00455 -43.387949,-1.19894 l -3.512968,-0.54816 -1.157082,1.06656 c -1.293611,1.19241 -2.512628,1.86694 -4.62087,2.55689 -1.935423,0.6334 -8.524652,0.42952 -12.199235,-0.37746 -6.296758,-1.38285 -14.66774,-5.03837 -17.927884,-7.82894 -3.661288,-3.13392 -2.51162,-7.70755 2.562434,-10.19391 1.023414,-0.50149 1.863215,-0.99108 1.866226,-1.08798 0.003,-0.0969 -0.539428,-0.75174 -1.20542,-1.4552 -2.634342,-2.78258 -7.328893,-9.3028 -8.9711,-12.45989 -0.4697,-0.90298 -0.922487,-1.42592 -1.290118,-1.48998 -3.404403,-0.59331 -5.101633,-1.00267 -6.501644,-1.56816 -9.387157,-3.79164 -17.619372,-14.90913 -20.607214,-27.82975 -1.239983,-5.36218 -1.496881,-8.0843 -1.485708,-15.74271 0.01191,-8.16674 0.28284,-10.77966 1.841253,-17.75782 2.338997,-10.47341 6.120198,-20.27505 11.035017,-28.605 l 1.050546,-1.780536 -0.291526,-3.482872 c -0.740751,-8.849769 0.07604,-15.639175 2.907724,-24.169958 2.094383,-6.309569 5.238199,-12.239514 9.566895,-18.045317 0.982265,-1.31745 1.785937,-2.462526 1.785937,-2.544612 0,-0.08209 -0.679524,-0.346791 -1.510053,-0.588233 -3.990541,-1.160081 -7.731878,-3.92568 -11.447641,-8.462105 -6.32277,-7.719213 -7.316654,-14.373701 -2.52043,-16.875395 1.414899,-0.738006 4.823532,-0.713875 7.262362,0.05141 0.938362,0.294451 1.759822,0.481657 1.825467,0.416013 0.06564,-0.06564 -0.0175,-0.948017 -0.184759,-1.960826 -0.482818,-2.923577 -0.38598,-6.307593 0.216351,-7.560372 0.712143,-1.481176 1.036573,-1.823099 2.380254,-2.508593 1.545351,-0.78838 3.86527,-0.625496 6.491991,0.45581 5.284176,2.175264 10.281731,4.423649 14.879134,6.694078 l 5.116531,2.526801 3.099042,-1.834895 C 78.943306,14.106873 91.313951,9.7106527 105.6438,7.3925131 c 10.91862,-1.7663066 22.86681,-1.9515756 34.13125,-0.5292404 13.6205,1.7198312 26.7559,5.9682623 37.54874,12.1445333 l 2.32892,1.332734 6.18877,-2.997038 c 3.40382,-1.64837 6.60549,-3.183128 7.11481,-3.410572 8.28173,-3.698306 9.31233,-4.0469269 11.37706,-3.848533 1.70668,0.163991 3.20504,1.166565 4.15259,2.778559 0.69798,1.187421 0.74197,1.444086 0.73789,4.305404 -0.003,1.84294 -0.14344,3.440927 -0.3571,4.052623 -0.19402,0.555453 -0.29453,1.068142 -0.22337,1.139307 0.0712,0.07117 0.88671,-0.06752 1.81231,-0.308184 4.25422,-1.106143 7.38872,0.557033 8.19371,4.347609 0.26115,1.229708 0.24274,1.840572 -0.1073,3.561763 -0.53076,2.60977 -2.83898,7.214879 -4.48552,8.949025 -0.18307,0.19281 -0.85506,0.982371 -1.4933,1.75458 -0.63825,0.772209 -1.9474,2.068773 -2.90923,2.881253 -0.96183,0.81248 -1.78651,1.57379 -1.83263,1.6918 -0.0461,0.118009 0.44332,1.024102 1.08764,2.013538 3.15413,4.843614 7.33737,12.894503 9.44468,18.176862 4.14921,10.400777 5.92356,19.376461 7.19697,36.406484 0.4765,6.37246 0.47822,34.10305 0.002,38.49688 -0.80434,7.42723 -2.54224,15.40391 -4.6715,21.44143 -1.04026,2.94965 -3.86084,8.81927 -4.76295,9.91169 -0.18026,0.21828 -0.39476,0.58734 -0.47668,0.82012 -0.44449,1.26311 -5.28087,7.10774 -8.2127,9.92483 -1.85065,1.77822 -3.51758,3.62381 -3.80546,4.21332 -0.65473,1.34075 -2.07724,3.88703 -3.02151,5.40845 -0.40431,0.65144 -0.70762,1.21192 -0.67402,1.24552 0.0336,0.0336 1.24686,-0.13258 2.69612,-0.36928 1.66102,-0.27129 4.34655,-0.43829 7.26525,-0.45177 4.29102,-0.0198 4.71014,0.0214 5.7214,0.56231 3.10132,1.65898 3.85403,5.11683 1.95399,8.97636 -1.58205,3.21359 -4.22064,5.67273 -8.27571,7.71286 l -2.55545,1.28567 0.66493,0.97852 c 0.85684,1.26096 1.11206,3.23658 0.55681,4.31031 -1.44081,2.7862 -6.92922,5.24615 -13.76168,6.16809 -5.09114,0.68697 -14.40129,0.20179 -20.00964,-1.04276 -1.22955,-0.27285 -2.36064,-0.41961 -2.51354,-0.32613 -0.15289,0.0935 -0.94465,0.67602 -1.75946,1.29454 -3.29016,2.49751 -8.82221,4.82198 -13.73207,5.76997 -2.62681,0.50718 -9.20961,0.74099 -11.53899,0.40985 z m 7.61594,-5.03609 c 5.47263,-0.51897 10.07354,-2.12146 14.32214,-4.98839 2.60384,-1.75705 2.8601,-2.20713 1.8616,-3.26956 -1.17293,-1.24803 -2.13316,-1.52799 -5.24073,-1.52799 -3.13882,0 -3.17684,-0.0324 -2.40322,-2.04517 0.97687,-2.54161 1.33974,-6.54649 0.66664,-7.35753 -0.45062,-0.54297 -1.56938,-0.48173 -3.35522,0.18365 -2.0346,0.75806 -3.24084,1.54263 -5.26064,3.42165 -0.92469,0.86023 -1.89262,1.56083 -2.15095,1.55688 -0.32345,-0.005 -0.77358,-0.64947 -1.44568,-2.07003 -1.08769,-2.29894 -2.95309,-4.55693 -4.18683,-5.06796 -0.73317,-0.30369 -0.87327,-0.27747 -1.45942,0.2732 -0.79864,0.75028 -1.63994,2.92325 -2.14841,5.54906 -0.70642,3.64812 -0.44142,3.27494 -2.15738,3.03808 -0.82907,-0.11444 -2.2813,-0.21975 -3.22718,-0.23401 l -1.71979,-0.0259 0.0423,0.88994 c 0.0596,1.25444 2.41009,5.94359 3.95294,7.88598 1.95178,2.45721 3.43382,3.27718 6.85269,3.79139 1.96852,0.29607 3.91029,0.29517 7.05716,-0.003 z m -73.166025,-1.7182 c 2.863715,-1.42705 5.228242,-6.5535 5.246632,-11.37504 l 0.0081,-2.11666 -0.835976,-0.0811 c -0.568736,-0.0552 -1.518388,0.26199 -2.970689,0.99219 -3.126984,1.57222 -3.26856,1.53406 -4.116191,-1.1095 -0.759495,-2.36868 -2.134524,-4.6908 -3.185331,-5.37932 -0.996896,-0.65319 -1.864112,-0.28678 -3.686985,1.5578 -1.51758,1.53565 -2.213945,2.70117 -3.903593,6.5335 l -0.408285,0.92604 -4.204807,0.008 c -3.807149,0.008 -4.329919,0.0656 -5.527725,0.61313 -1.415171,0.64684 -2.513541,1.52992 -2.513541,2.02086 0,0.40797 1.205113,1.50431 2.612731,2.3769 2.790196,1.72965 9.151439,4.05713 13.356737,4.88703 3.710465,0.73223 3.715138,0.7328 6.402019,0.77321 2.070256,0.0311 2.5762,-0.054 3.726931,-0.62747 z m 48.030005,-1.4854 c 2.23077,-0.16326 4.2127,-0.30216 4.40429,-0.30868 0.48129,-0.0164 0.21757,-0.93661 -0.72801,-2.54031 -1.02895,-1.7451 -2.09424,-4.75835 -2.29941,-6.50405 -0.22075,-1.87821 0.49549,-3.41864 2.07645,-4.46586 1.09233,-0.72355 1.21695,-0.74448 3.57396,-0.60046 l 2.44216,0.14924 0.42857,-1.51393 c 1.16269,-4.10725 3.65892,-7.47978 5.83899,-7.88876 2.50937,-0.47076 4.93216,0.70041 7.7019,3.7231 0.90828,0.99123 1.65142,1.89749 1.65142,2.01391 0,0.11642 1.00995,-0.38274 2.24433,-1.10925 3.02422,-1.77997 4.8757,-2.4138 7.16742,-2.45368 1.57565,-0.0274 2.01811,0.0681 2.80198,0.60503 2.02236,1.38522 2.70701,3.17621 2.69478,7.04935 l -0.008,2.65987 1.21505,0.49566 c 0.66828,0.27261 1.67774,0.78403 2.24326,1.1365 0.79957,0.49834 1.15257,0.58319 1.5875,0.38156 0.87638,-0.40628 6.96131,-4.73272 9.15825,-6.5116 4.26523,-3.4536 14.43646,-14.12255 13.93847,-14.62054 -0.0486,-0.0486 -1.03181,0.25407 -2.18481,0.6727 -4.12572,1.49795 -6.12153,1.4279 -7.82404,-0.2746 l -1.05932,-1.05932 -3.47323,0.32149 c -4.24932,0.39332 -10.24164,0.18667 -12.62624,-0.43545 -3.26852,-0.85271 -5.87046,-2.29197 -6.5967,-3.64897 -0.30458,-0.56911 -0.58077,-0.65714 -2.58601,-0.82417 -6.12289,-0.51004 -12.003,-3.2231 -18.06937,-8.33715 -4.1749,-3.5195 -6.08542,-5.87049 -6.08542,-7.48843 0,-0.51238 -0.2101,-0.6927 -1.12448,-0.96507 -0.61846,-0.18423 -1.63412,-0.67774 -2.25701,-1.0967 l -1.13253,-0.76174 -1.42838,1.16343 c -5.78547,4.71233 -14.24719,7.03162 -25.6542,7.03162 -6.779375,0 -10.68603,-0.72628 -15.198288,-2.82551 -2.915553,-1.35639 -5.366594,-3.05921 -6.997444,-4.86136 -0.783185,-0.86545 -1.497095,-1.57354 -1.586466,-1.57354 -0.08937,0 -0.721534,0.59766 -1.404809,1.32813 -0.683274,0.73048 -2.060175,1.95087 -3.059779,2.71198 -1.419439,1.08078 -1.875822,1.59964 -2.083943,2.36922 -0.321183,1.18767 -2.682338,4.19217 -5.174559,6.58447 -3.350807,3.21648 -8.232928,6.11146 -12.694278,7.52741 -2.275788,0.7223 -2.753827,1.02016 -2.753827,1.71588 0,0.78891 -1.292703,2.07428 -2.42829,2.41451 -0.586507,0.17572 -1.121822,0.46398 -1.18959,0.64058 -0.233221,0.60777 2.45896,5.20086 5.178582,8.8351 1.931795,2.58147 5.705005,6.36665 7.003153,7.02537 0.994759,0.50477 1.031569,0.50552 1.322916,0.027 1.991717,-3.27146 4.364382,-5.82322 6.996109,-7.52419 2.749482,-1.77708 5.082479,-1.9457 7.096233,-0.51289 1.081259,0.76933 2.846162,3.06531 3.573387,4.64866 0.406957,0.88604 0.627931,1.1045 0.972958,0.96187 3.351244,-1.38534 5.359353,-1.50597 6.892796,-0.41406 2.385007,1.69827 2.962614,7.13311 1.339258,12.6014 -0.324074,1.09165 -0.529008,2.04503 -0.45541,2.11863 0.482789,0.48279 9.93453,1.79106 15.953101,2.20816 4.81619,0.33377 18.09754,0.33287 22.66697,-0.002 z m 69.08743,-3.66134 c 3.98912,-0.8545 6.27372,-1.83333 6.27372,-2.68795 0,-0.47876 -1.44511,-1.62582 -2.89322,-2.2965 -0.79091,-0.3663 -2.50387,-0.98465 -3.80657,-1.37412 l -2.36854,-0.70811 0.7823,-0.55704 c 0.43026,-0.30638 2.26228,-0.92758 4.07114,-1.38046 4.55354,-1.14004 6.89002,-1.98045 9.47233,-3.4071 3.48609,-1.92596 5.98891,-4.97593 4.85531,-5.91673 -0.87861,-0.72918 -6.13369,-0.52019 -11.93334,0.47458 -1.21961,0.20919 -2.9778,0.38034 -3.90709,0.38034 h -1.68962 l -3.63354,3.6408 c -4.0714,4.07953 -8.94731,8.09512 -13.29723,10.95103 -1.60104,1.05115 -2.81599,2.00619 -2.69988,2.12231 0.11612,0.11611 1.63574,0.44593 3.37693,0.73294 1.7412,0.287 3.46347,0.57811 3.82727,0.64692 0.36381,0.0688 2.98318,0.0821 5.82084,0.0295 3.95553,-0.0733 5.76366,-0.22506 7.74919,-0.65038 z m -150.941686,-30.226 c 0.425772,-0.42577 0.401088,-1.61611 -0.05621,-2.71058 l -0.373711,-0.89442 1.720559,-0.29962 c 2.657905,-0.46285 7.501043,-2.01061 9.986575,-3.19149 2.74866,-1.30589 5.753749,-3.29582 7.147935,-4.73328 l 1.042023,-1.07437 -0.624143,-0.66437 c -0.343278,-0.3654 -0.572729,-0.71578 -0.509891,-0.77862 0.06284,-0.0628 1.065416,-0.73372 2.227952,-1.49085 4.711127,-3.06825 7.794785,-6.23993 8.960353,-9.21613 0.928205,-2.37011 -0.06829,-3.53819 -3.447161,-4.04071 -2.244715,-0.33384 -3.206271,-0.84783 -2.708396,-1.44773 0.160792,-0.19374 1.491478,-1.20839 2.957079,-2.25476 5.096619,-3.63878 8.131027,-7.00041 10.161341,-11.25713 1.358384,-2.84797 1.700215,-4.74637 1.036923,-5.75868 -0.695402,-1.06132 -2.143615,-0.91181 -5.321437,0.54936 -3.804919,1.74952 -4.947312,2.06691 -6.086406,1.69097 -0.508779,-0.16791 -0.925052,-0.34579 -0.925052,-0.39528 0,-0.0495 0.923516,-1.02253 2.052259,-2.1623 2.879131,-2.90725 3.886071,-4.21211 4.865445,-6.30499 1.106987,-2.36558 1.307765,-4.34288 0.520883,-5.12976 -0.307681,-0.30769 -0.827311,-0.55801 -1.154733,-0.55629 -1.545036,0.008 -6.52803,1.75163 -11.119757,3.89064 -2.077968,0.968 -3.312023,1.40127 -3.704166,1.3005 -0.323431,-0.0831 -0.945243,-0.68159 -1.381806,-1.32995 -1.149402,-1.70705 -2.005274,-2.13021 -4.243595,-2.09816 -2.998971,0.043 -9.984422,2.69849 -13.880182,5.27658 -0.539576,0.35707 -1.75306,0.92925 -2.696631,1.27149 -0.943571,0.34225 -3.495691,1.46906 -5.671378,2.50402 -2.175686,1.03496 -4.284015,1.88174 -4.685175,1.88174 -0.833491,0 -1.928008,-0.9637 -2.16445,-1.90577 -0.245519,-0.97822 0.277285,-1.9696 1.515359,-2.87353 1.506893,-1.1002 6.410304,-3.5703 9.171813,-4.62032 l 2.216592,-0.84282 -0.915333,-1.03034 c -3.955602,-4.4526 -6.902099,-10.21532 -9.353996,-18.2944 -0.229236,-0.75534 -0.66942,-0.16611 -2.174228,2.91041 -3.935048,8.04507 -6.780217,17.6984 -8.012631,27.18594 -0.487969,3.75655 -0.548435,5.23309 -0.433396,10.58333 0.146669,6.82132 0.532104,9.98686 1.804071,14.81667 3.012878,11.44025 10.435087,20.57777 18.914995,23.28634 1.778772,0.56816 4.861776,0.68859 5.341708,0.20866 z m 147.913906,-1.43662 c 6.30994,-2.33906 12.92685,-8.02808 17.65496,-15.17921 4.82424,-7.29651 7.96378,-17.65755 9.28769,-30.65097 0.50287,-4.93548 0.55947,-25.9852 0.0925,-34.41929 -0.84577,-15.277046 -2.7147,-26.260016 -5.95977,-35.023161 -1.89356,-5.113459 -6.44702,-14.102623 -9.42534,-18.606944 -0.7824,-1.183274 -1.54161,-2.352194 -1.68713,-2.597601 -0.24295,-0.409706 -0.45932,-0.380997 -2.64583,0.351058 -5.27077,1.764675 -11.66797,2.046352 -13.62604,0.599973 -0.99754,-0.736858 -1.06753,-2.599459 -0.13074,-3.479528 0.63949,-0.60077 0.94869,-0.657906 4.44392,-0.821194 7.01958,-0.327937 11.11771,-2.017826 15.8472,-6.5347 3.24197,-3.096229 5.68937,-6.9038 6.17151,-9.601412 0.19567,-1.094801 -0.32281,-1.826645 -1.29411,-1.826645 -0.32395,0 -2.94202,1.188068 -5.81795,2.64015 -2.87593,1.452083 -5.96589,2.866117 -6.86658,3.142299 -1.60464,0.492034 -3.35742,0.488305 -3.35742,-0.0071 0,-0.137527 0.99147,-1.347819 2.20326,-2.689538 3.53268,-3.911443 5.34494,-7.83273 5.65581,-12.237789 l 0.15703,-2.225063 h -0.79942 c -0.43968,0 -1.32056,0.226202 -1.95753,0.50267 -8.12331,3.525863 -12.63851,5.540595 -18.7529,8.367754 -11.10911,5.136604 -12.38278,5.684567 -13.60119,5.851568 -1.0084,0.138218 -1.19117,0.07674 -1.70177,-0.572378 -0.31462,-0.399975 -0.57204,-0.880487 -0.57204,-1.067804 0,-0.599804 2.17294,-2.227412 4.82865,-3.616817 1.41882,-0.7423 2.57968,-1.480506 2.57968,-1.640458 0,-0.700916 -9.66158,-5.079564 -16.42523,-7.443943 -10.41379,-3.640366 -26.00997,-5.615475 -38.65531,-4.89533 -17.41887,0.991995 -31.735557,4.750489 -44.950398,11.800621 -2.950499,1.574094 -7.752926,4.507724 -8.752766,5.346748 -0.467972,0.392703 -1.248801,0.118564 -6.045453,-2.122481 -10.399384,-4.858699 -16.680569,-7.591984 -17.902222,-7.790231 -1.177898,-0.191147 -1.3153,0.261431 -0.891953,2.937934 0.616397,3.897014 1.745892,6.525853 4.114376,9.575992 1.33504,1.719268 1.396333,1.956337 0.674653,2.609448 -0.643248,0.582131 -1.230334,0.463082 -5.441728,-1.103471 -4.539708,-1.688679 -7.18788,-2.473189 -8.91574,-2.641252 -1.465958,-0.142588 -1.51233,-0.127008 -1.686417,0.566608 -0.375425,1.495812 2.05933,5.921679 4.968383,9.031466 3.716009,3.972426 6.480328,5.374776 12.248357,6.213642 2.597118,0.377708 3.429103,0.784902 3.804604,1.862066 0.345185,0.990197 0.371381,0.93935 -1.692395,3.284938 -7.965543,9.053249 -13.015375,19.165279 -14.996741,30.030207 -0.759298,4.163649 -0.830305,13.250636 -0.138521,17.727082 1.073313,6.945286 3.86931,14.507156 7.386124,19.976036 1.030901,1.60312 3.695835,4.63596 4.478634,5.09693 0.654101,0.38519 0.797882,0.35959 2.513541,-0.44747 3.525435,-1.65839 6.432559,-2.39095 9.510794,-2.39659 2.535028,-0.005 4.386712,0.49243 5.889412,1.58098 0.604637,0.438 1.243287,0.79636 1.419223,0.79636 0.175935,0 1.397356,-0.41691 2.71427,-0.92646 1.316913,-0.50955 3.523314,-1.2113 4.903113,-1.55943 2.536622,-0.64001 2.768249,-0.79625 3.027818,-2.04236 0.246687,-1.18426 1.814026,-3.23835 3.154576,-4.13426 3.483802,-2.32826 12.048622,-3.68749 24.910966,-3.95335 13.6494,-0.28212 22.48343,0.7876 26.26126,3.18001 1.26094,0.79852 2.53213,2.40481 2.98209,3.7682 0.268,0.81205 0.39872,0.90515 1.27091,0.90515 1.21376,0 10.64673,1.91695 13.14198,2.67069 1.01865,0.3077 2.19166,0.73498 2.60669,0.94951 0.69309,0.35827 0.80093,0.34677 1.32292,-0.14107 1.06264,-0.99314 3.55071,-2.09823 5.44246,-2.41731 3.37918,-0.56998 7.74386,0.37079 14.30814,3.08398 1.96453,0.81199 5.13959,2.12072 7.05569,2.90829 6.60233,2.71374 12.11694,3.56653 17.04201,2.63541 3.2455,-0.61359 3.84789,-0.57003 4.76224,0.34431 0.88758,0.88759 0.99071,1.81978 0.32584,2.94532 -1.08428,1.83553 -6.83659,2.96922 -12.09221,2.38319 -4.79635,-0.53483 -10.71601,-2.36921 -15.65574,-4.8514 -2.65675,-1.335 -6.52416,-2.93799 -9.11075,-3.77628 -1.69541,-0.54947 -2.81353,-0.73535 -4.54275,-0.75519 -2.67663,-0.0307 -3.24228,0.25669 -4.67221,2.37397 -0.48432,0.71713 -1.05056,1.3425 -1.2583,1.38971 -0.20775,0.0472 -1.55391,-0.33243 -2.99147,-0.84365 -1.43755,-0.51122 -4.086,-1.24028 -5.88544,-1.62013 -1.79943,-0.37985 -4.66372,-1.042 -6.36508,-1.47145 -3.69502,-0.93268 -5.28554,-1.00085 -6.02801,-0.25838 -0.7819,0.7819 -0.88913,1.63222 -0.43124,3.41954 0.52908,2.06519 1.14699,3.26112 2.79771,5.41483 0.73203,0.95508 1.33096,1.85314 1.33096,1.99568 0,0.41332 -1.11767,1.08293 -1.80757,1.08293 -0.34733,0 -1.83888,-0.52243 -3.31457,-1.16096 -3.38376,-1.46415 -5.23967,-1.88624 -6.21363,-1.41318 -0.65627,0.31876 -0.7016,0.45461 -0.68517,2.05326 0.0479,4.66208 4.93474,10.14249 13.01187,14.59245 1.05433,0.58087 1.99525,1.1828 2.09094,1.33762 0.37574,0.60797 -0.80331,0.99498 -3.06629,1.0065 -4.47854,0.0228 -5.72764,0.6403 -5.63428,2.7854 0.0777,1.78576 1.41087,4.07868 3.48352,5.99144 3.14861,2.90569 5.95112,4.42862 10.03999,5.4559 3.48656,0.87595 3.69533,1.2434 1.37262,2.4159 -0.88248,0.44547 -1.60451,0.86398 -1.60451,0.93002 0,0.34518 2.79117,2.9037 4.73217,4.33773 2.99507,2.21278 6.07495,3.63871 9.51685,4.40612 3.35466,0.74797 5.25321,0.83662 11.48171,0.53613 4.14255,-0.19985 4.69635,-0.17871 4.69635,0.17924 0,0.38715 -1.45684,1.08096 -3.73832,1.78034 -1.22901,0.37675 -1.97451,1.14064 -1.49387,1.53073 0.8836,0.71715 3.62424,0.99237 9.73011,0.97711 4.75515,-0.0119 6.8067,-0.12502 8.72167,-0.48098 2.38959,-0.44417 2.5195,-0.44417 2.84427,-3e-5 0.18717,0.25597 0.34031,0.89905 0.34031,1.42906 0,0.53002 0.0702,1.03383 0.15592,1.11959 0.25243,0.25243 1.9679,-0.0948 3.77174,-0.76351 z M 148.374,111.35281 c -11.63006,-1.25552 -20.2656,-10.85516 -20.9385,-23.276121 -0.55608,-10.264577 5.18675,-20.103292 14.43774,-24.73498 5.55353,-2.780485 12.9322,-3.096351 18.59352,-0.795953 5.53534,2.249212 9.90168,6.45324 12.63932,12.169476 1.89879,3.964705 2.49245,6.600945 2.50242,11.112499 0.006,2.641773 -0.12457,4.256051 -0.45466,5.628381 -2.27747,9.468248 -8.23044,16.023648 -17.21416,18.956238 -1.63135,0.53252 -6.78489,1.3362 -7.54319,1.17633 -0.0937,-0.0198 -1.00384,-0.1259 -2.02249,-0.23587 z m 12.54805,-12.285748 c 0.75911,-0.392548 1.60716,-2.020094 1.60716,-3.084387 0,-1.850315 -1.77765,-3.329608 -3.69252,-3.072771 -2.03963,0.273572 -3.21507,2.09187 -2.66732,4.126082 0.55935,2.077257 2.8064,3.037544 4.75268,2.031076 z m -20.35856,-9.424344 c 1.39938,-0.322442 2.6695,-1.230709 3.6889,-2.637958 l 0.73701,-1.017405 0.88682,0.914963 c 1.96837,2.030843 4.77122,1.567174 6.11936,-1.01231 0.47118,-0.901552 0.60332,-1.663682 0.67594,-3.898735 0.0989,-3.043285 -0.0829,-3.67101 -1.33139,-4.598007 -0.78046,-0.579472 -2.27231,-0.705311 -3.79578,-0.320179 -0.81402,0.205783 -0.83803,0.184524 -1.27394,-1.127869 -0.45828,-1.379761 -1.72569,-2.758958 -2.97011,-3.232085 -0.35711,-0.135773 -1.24081,-0.246859 -1.96377,-0.246859 -2.64588,0 -5.34795,2.144221 -6.94191,5.508728 -0.77462,1.635037 -0.83728,1.975243 -0.83728,4.545438 0,2.38224 0.0887,2.95824 0.6224,4.042089 0.68511,1.391324 1.88779,2.444826 3.41196,2.988749 1.20727,0.430835 1.46449,0.438749 2.97179,0.09144 z M 63.839633,110.96714 C 55.725494,109.34806 49.494978,103.28834 47.132172,94.717666 46.344818,91.861673 46.139634,85.24535 46.75314,82.495434 c 0.866596,-3.884347 1.7887,-6.143424 3.818865,-9.355896 3.158278,-4.997565 8.601937,-8.755851 14.422146,-9.957009 11.765327,-2.428093 22.147236,4.3723 25.483178,16.692078 0.35488,1.310587 0.466886,2.758541 0.470737,6.085416 0.0043,3.734321 -0.0828,4.690842 -0.602455,6.614583 -1.246073,4.612883 -4.441829,10.101384 -7.409115,12.724664 -5.446718,4.81527 -12.65219,6.95382 -19.096863,5.66787 z M 78.596748,98.923495 c 2.033122,-1.239594 1.838136,-4.637374 -0.325028,-5.663862 -2.149443,-1.019978 -4.377921,0.488326 -4.377921,2.963113 0,1.426814 0.32614,2.056622 1.405949,2.715029 1.078781,0.65778 2.202704,0.652912 3.297,-0.01428 z M 60.267758,88.732934 c 0.582083,-0.332491 1.344611,-0.993401 1.694507,-1.46869 0.618218,-0.839772 0.648088,-0.849772 1.058333,-0.354308 2.152445,2.599564 5.116481,2.204893 6.685615,-0.890213 0.854502,-1.685499 1.20852,-4.352862 0.75864,-5.71601 -0.170799,-0.517526 -0.6836,-1.254862 -1.139558,-1.638525 -0.742887,-0.625099 -1.000727,-0.686636 -2.481831,-0.592327 l -1.652818,0.105244 -0.173211,-1.025231 c -0.195805,-1.158956 -1.374215,-2.646689 -2.60614,-3.290229 -1.163059,-0.607566 -3.724802,-0.541115 -5.256317,0.136347 -1.711178,0.756936 -3.415963,2.56529 -4.442092,4.711961 -1.910389,3.996547 -1.138833,8.594972 1.691255,10.079781 1.864905,0.978425 4.087883,0.956512 5.863617,-0.0578 z m 44.670252,15.797716 c -2.53265,-0.89447 -4.93674,-3.34233 -5.782048,-5.887321 -2.189033,-6.590561 4.762858,-13.731705 11.061048,-11.362169 3.08743,1.161567 6.14863,4.963789 6.45199,8.013804 0.20161,2.027023 -0.55961,3.565107 -2.90053,5.860666 -3.28121,3.21764 -6.16034,4.31805 -8.83046,3.37502 z m 3.48391,-4.52442 c 1.7327,-1.099966 4.10104,-3.711402 4.10104,-4.521987 0,-0.731407 -2.25847,-3.344548 -3.5394,-4.095222 -2.02424,-1.18628 -3.94587,-0.679988 -5.32416,1.402752 -1.46261,2.210142 -1.22955,4.160994 0.74676,6.250907 1.16633,1.23338 1.53672,1.46927 2.30578,1.46844 0.50393,-5.5e-4 1.27342,-0.22775 1.70998,-0.50489 z m 3.04271,69.69806 c 4.41775,-0.68565 7.85237,-1.86058 10.31308,-3.52796 1.21727,-0.82482 2.29579,-2.07897 2.02268,-2.35207 -0.0403,-0.0403 -1.13569,0.15656 -2.4342,0.43747 -8.5418,1.84786 -22.127975,2.13311 -30.329251,0.63678 -3.428835,-0.62559 -4.469609,-0.16783 -2.921786,1.28508 1.58215,1.48513 5.749972,3.07693 9.481276,3.62113 2.670121,0.38944 11.105481,0.32835 13.868201,-0.10043 z m -0.13229,-8.07819 c 4.96453,-0.40805 11.74172,-1.75291 13.02065,-2.58382 0.24503,-0.15919 0.19823,-0.60166 -0.19844,-1.87616 -0.88364,-2.83915 -0.60149,-5.20553 0.86432,-7.24901 0.29253,-0.40781 0.21566,-0.56251 -0.58966,-1.1866 -4.41093,-3.41836 -7.20443,-8.84604 -7.24211,-14.0712 -0.0226,-3.12839 0.729,-4.55712 3.00434,-5.7113 0.97704,-0.4956 3.85143,-0.65558 4.9939,-0.27793 0.61989,0.2049 0.62245,0.19723 0.40398,-1.20974 -0.12093,-0.77877 -0.18641,-2.20851 -0.14552,-3.17719 l 0.0743,-1.76125 -1.00748,0.22477 c -3.92392,0.87547 -18.5593,1.69273 -25.746029,1.4377 -4.799082,-0.17029 -11.422176,-0.74825 -13.493749,-1.17751 -0.654844,-0.13569 -1.45244,-0.2519 -1.772437,-0.25823 -0.561656,-0.0111 -0.56853,0.0203 -0.198437,0.90602 0.556706,1.33238 0.486817,4.09628 -0.145659,5.76035 -0.290969,0.76554 -0.529094,1.45228 -0.529167,1.52609 -7.3e-5,0.0738 0.505882,0.10009 1.124346,0.0584 3.042104,-0.20505 5.230804,3.00059 4.801661,7.03267 -0.6229,5.85254 -3.533703,10.76722 -8.925811,15.07058 l -1.809047,1.44377 0.87286,0.90056 c 1.071809,1.10583 5.233506,3.27592 8.03814,4.19145 2.714382,0.88606 6.749908,1.70005 9.762284,1.96912 3.485613,0.31133 11.163265,0.32087 14.842725,0.0185 z m 5.15226,-41.55633 c 4.36385,-0.15734 8.26402,-0.37357 8.66705,-0.4805 0.52136,-0.13833 0.75583,-0.38791 0.81268,-0.86509 0.15309,-1.28479 -1.70376,-1.92877 -8.01741,-2.78053 -2.72733,-0.36794 -5.38457,-0.46505 -12.83229,-0.46896 -8.176511,-0.004 -10.052198,0.074 -14.485968,0.60472 -5.314663,0.63615 -8.261989,1.30353 -9.098023,2.06014 -0.6908,0.62516 -0.63709,1.64631 0.102222,1.94348 0.841671,0.33831 25.359969,0.32898 34.851739,-0.0133 z"
       id="path46" /></g></svg>
