<?xml version="1.0" encoding="UTF-8" standalone="no"?>
<!-- Created with Inkscape (http://www.inkscape.org/) -->

<svg
   width="233.83109mm"
   height="262.15009mm"
   viewBox="0 0 233.83108 262.15007"
   version="1.1"
   id="svg1"
   xml:space="preserve"
   xmlns="http://www.w3.org/2000/svg"
   xmlns:svg="http://www.w3.org/2000/svg"><defs
     id="defs1" /><g
     id="layer1"
     transform="translate(76.225859,159.87228)"><path
       id="path74"
       style="fill:#000000"
       d="m -16.119967,-159.83921 c -2.874184,0.2238 -5.956478,1.57115 -8.62583,3.90002 -1.008156,0.87961 -1.901175,1.59292 -1.984375,1.58492 -0.08324,-0.008 -0.517443,-0.57087 -0.964799,-1.25109 -1.082626,-1.64612 -2.857408,-2.57706 -4.86947,-2.55436 -1.749856,0.0198 -3.144813,0.68223 -4.596619,2.18281 l -1.019576,1.05368 -1.000456,-1.00045 c -0.550276,-0.55029 -1.447964,-1.14829 -1.99471,-1.3286 -1.416066,-0.46735 -4.230296,-0.21042 -5.653402,0.51624 -2.423098,1.23728 -5.247558,4.57549 -6.264734,7.4042 l -0.484208,1.34617 -0.938961,-0.2005 c -1.571872,-0.33554 -3.713668,-0.11712 -5.01313,0.51108 -1.642206,0.79389 -3.461707,2.7498 -4.546493,4.88704 -0.810016,1.59589 -0.904305,2.01949 -0.995805,4.49223 l -0.100769,2.73007 -1.35909,0.62942 c -1.722342,0.79776 -3.429403,2.53241 -4.334619,4.40541 -0.583086,1.2065 -0.704677,1.82471 -0.704867,3.57549 -2.4e-4,2.17735 0.438377,3.47271 1.740463,5.13974 l 0.501261,0.64182 -1.313098,1.14825 c -0.806016,0.7051 -1.626285,1.77625 -2.124935,2.77399 -1.879112,3.7605 -0.484481,8.02021 3.070097,9.37773 0.629706,0.24049 1.144633,0.48288 1.144633,0.53898 0,0.0561 -0.292997,0.54624 -0.651123,1.08882 -1.961712,2.97202 -1.893458,6.563524 0.160714,8.452201 0.670046,0.616075 2.591149,1.397848 3.434415,1.397848 0.42661,0 0.496262,0.212487 0.501262,1.521354 0.01894,4.957877 4.868392,7.734599 10.296012,5.895764 0.936446,-0.317265 1.945254,-0.746292 2.241724,-0.953947 0.296456,-0.207656 0.619385,-0.377754 0.717785,-0.377754 0.09837,0 0.260165,0.863217 0.359151,1.918229 0.09901,1.055012 0.41468,2.94389 0.701766,4.197676 0.48977,2.138775 0.497257,2.416754 0.124541,4.497917 -0.28616,1.597909 -0.372876,3.587303 -0.310576,7.113261 0.09307,5.271449 0.33432,6.817892 1.757516,11.260811 l 0.837675,2.614828 -0.45837,1.273824 c -0.25198,0.700742 -0.533719,1.884835 -0.626319,2.631364 -0.158096,1.274763 -0.240884,1.396971 -1.35909,2.007629 -4.093704,2.235602 -8.072763,6.671982 -10.592635,11.809098 -3.968084,8.089573 -4.153534,17.699991 -0.4408,22.867855 l 0.954981,1.329118 -1.425236,0.296106 c -3.423248,0.710658 -7.710205,4.893008 -9.702767,9.4660888 -1.669066,3.8305928 -2.061713,5.983936 -2.096513,11.4949056 -0.02286,3.6186196 0.06226,4.8377814 0.408244,5.8451216 0.402666,1.172556 0.40353,1.373012 0.01344,2.547648 -0.23293,0.701266 -0.894762,4.533909 -1.470712,8.516793 -0.938486,6.490122 -1.047071,7.781881 -1.047481,12.444201 -5e-4,5.62814 0.290088,7.879065 1.395264,10.808643 1.063276,2.818538 2.186344,4.834744 3.878316,6.963916 2.726198,3.430624 5.450881,5.413316 14.157275,10.300146 5.06435,2.842582 8.441449,4.858536 11.623063,6.938078 3.672308,2.400432 4.412748,2.611398 8.438762,2.405538 1.857722,-0.09498 3.545312,-0.237343 3.749642,-0.315743 0.24005,-0.09211 0.691131,0.35657 1.274857,1.267106 1.181936,1.843692 3.782622,4.227337 5.542298,5.079793 1.707992,0.82744 4.193238,1.488799 5.59449,1.488799 0.841626,0 1.254044,0.197913 2.16731,1.039729 3.036628,2.799112 7.258276,3.590401 15.2771035,2.864425 2.15068031,-0.19472 4.00289941,-0.28954 4.11602787,-0.21084 0.11311863,0.07871 0.35999973,0.523914 0.54828693,0.989604 0.7239902,1.790622 5.2449766,5.105368 6.9644328,5.106148 0.2840758,1.3e-4 0.5191851,0.276781 0.6190837,0.728121 0.3976144,1.795862 0.7466872,2.474297 2.0401852,3.965649 2.295012,2.646072 7.261395,6.296763 11.122319,8.175728 1.796392,0.87422 2.022849,0.91926 4.149101,0.82786 1.880372,-0.0808 2.470768,-0.22122 3.60288,-0.85835 l 1.35444,-0.76223 1.555977,0.5023 c 1.853812,0.59845 4.634417,0.66387 5.922119,0.13901 2.001312,-0.81571 3.116624,-1.818239 3.98477,-3.581695 0.737096,-1.496932 0.827555,-1.913338 0.732255,-3.37137 -0.12973,-1.985372 -0.9318,-3.730344 -2.534212,-5.515426 -0.61846,-0.688956 -1.124479,-1.324517 -1.124479,-1.412317 0,-0.08776 0.27013,-0.15968 0.60048,-0.15968 1.005576,0 4.489505,-1.053892 5.686991,-1.720308 l 1.128613,-0.627869 1.146184,0.506946 c 2.281548,1.009236 4.602607,1.380602 7.577315,1.211812 l 2.778125,-0.157613 0.721403,1.308447 c 1.368096,2.481832 4.002874,4.06626 12.356868,7.431588 3.539108,1.425696 4.313938,1.645612 5.820834,1.652612 1.859562,0.0085 3.860819,-0.679332 4.948535,-1.701188 0.499166,-0.468946 0.699351,-0.500834 1.591117,-0.253214 1.884162,0.523176 4.341616,0.359329 5.845638,-0.390157 3.560368,-1.774216 4.877461,-5.564339 3.236495,-9.311577 -0.638616,-1.458322 -2.861069,-3.798969 -4.365625,-4.597135 -0.650846,-0.34528 -1.180706,-0.68716 -1.177706,-0.76016 0.0031,-0.07301 0.725931,-0.668584 1.606621,-1.323434 3.266254,-2.428658 6.679522,-6.38469 9.51208,-11.02465 l 1.480534,-2.425175 1.10329,1.281059 c 2.49606,2.897708 6.7319,3.142568 10.36474,0.59893 2.68682,-1.881252 4.76663,-5.89356 4.76663,-9.194788 v -1.611271 l 2.63137,0.10542 c 3.6223,0.1455 5.85182,-0.516703 7.68428,-2.283065 0.92932,-0.895736 1.38556,-1.59132 1.62006,-2.468066 l 0.32659,-1.220598 2.26963,-0.136942 c 2.92775,-0.17657 5.02484,-0.964822 6.67505,-2.508374 1.43599,-1.343176 1.93054,-2.536369 1.74253,-4.204395 -0.11588,-1.028026 -0.0661,-1.174356 0.43201,-1.268656 2.8293,-0.53576 3.72032,-0.815807 4.93717,-1.551843 2.17815,-1.317506 2.98834,-2.500873 3.11919,-4.555795 0.10667,-1.675262 0.12593,-1.713137 1.20251,-2.348693 1.53096,-0.90383 4.2597,-3.712141 5.36143,-5.517493 3.00639,-4.92644 3.74527,-11.416216 2.07119,-18.1942385 -1.86028,-7.5318536 -6.13208,-12.4301752 -11.24479,-12.8937866 -1.51334,-0.1372222 -1.53492,-0.1502805 -1.16375,-0.7167521 0.208,-0.3174398 0.60205,-1.4625439 0.87591,-2.5445475 1.45113,-5.7332023 0.67442,-11.0245303 -2.02985,-13.8301633 -2.95547,-3.066252 -7.66248,-3.167738 -10.12031,-0.218075 -0.44381,0.532637 -1.41821,2.218587 -2.16576,3.746542 -1.51393,3.094315 -3.38924,6.35 -3.65766,6.35 -0.0963,0 0.0356,-0.884218 0.29301,-1.964738 0.81669,-3.427823 1.12543,-7.492477 0.97203,-12.788884 -0.14974,-5.170071 -0.5427,-8.136138 -1.68103,-12.692765 l -0.67645,-2.708362 0.7829,-0.995805 c 1.10525,-1.406322 1.59094,-2.442565 2.04225,-4.35684 1.07216,-4.547625 -0.0501,-12.220628 -2.99413,-20.470585 -0.56753,-1.590393 -1.28047,-4.082466 -1.58388,-5.537646 -3.72018,-17.842689 -4.17555,-19.586662 -6.0818,-23.278166 -1.65973,-3.214114 -3.90041,-5.483465 -6.87607,-6.963915 -1.20643,-0.60022 -2.57565,-1.16427 -3.04271,-1.25367 -0.76329,-0.14616 -1.00923,-0.46167 -2.43137,-3.11867 -3.29956,-6.16491 -6.793892,-10.8199 -12.165152,-16.20573 -4.90397,-4.91741 -9.316236,-8.29431 -15.092102,-11.54969 -2.555902,-1.44041 -7.608535,-3.68277 -9.789583,-4.34443 -0.988166,-0.29977 -2.136893,-0.92565 -3.042709,-1.65778 -0.800346,-0.64688 -2.419851,-1.80516 -3.598747,-2.57452 -12.555298,-8.19369 -28.669761,-12.40059 -45.613753,-11.9078 -8.0225942,0.23333 -14.7527387,1.06951 -20.6814247,2.56935 -1.1156346,0.28223 -2.1410267,0.51315 -2.2784139,0.51315 -0.1373786,0 -0.3191111,-0.58732 -0.4041097,-1.30483 -0.3029558,-2.55808 -2.1397495,-5.06875 -4.5831827,-6.26422 -1.440833,-0.70494 -3.090702,-0.97506 -4.81521,-0.84078 z m 0.826306,4.4726 c 0.696198,0.008 1.315999,0.19506 2.04587,0.56379 1.526226,0.77104 2.373499,2.03842 2.373499,3.55069 0,0.95035 -0.106333,1.20126 -0.595313,1.40404 -0.32743,0.13579 -2.02409,0.79716 -3.770312,1.4702 -6.460606,2.49008 -12.93239,6.18261 -18.16685,10.36526 -1.771012,1.41514 -7.585364,7.28958 -8.76639,8.85682 -0.36369,0.48261 -1.42557,2.13097 -2.359546,3.66283 -4.72163,7.74394 -6.505524,13.90277 -7.14375,24.66774 l -0.311092,5.253428 -1.279509,0.939477 c -0.703716,0.516586 -1.872591,1.164348 -2.597257,1.439706 -2.082712,0.791364 -3.796686,0.605078 -4.685502,-0.509013 -0.41762,-0.52344 -0.427832,-2.600243 -0.0186,-3.779614 0.48801,-1.406526 1.930606,-3.509714 3.728972,-5.436364 0.906116,-0.97077 1.528381,-1.71624 1.382861,-1.65674 -0.14552,0.0596 -1.83282,0.90381 -3.749642,1.87533 -4.91601,2.49197 -6.965983,2.67383 -6.965983,0.61909 0,-1.16898 1.603967,-4.2611 3.383773,-6.52415 1.580792,-2.00999 1.543375,-2.07946 -1.109493,-2.07946 -3.396028,0 -5.640504,-1.47467 -5.365564,-3.52433 0.283366,-2.11273 2.614989,-4.11459 5.737117,-4.92632 1.091386,-0.28375 1.847678,-0.52272 1.680518,-0.53072 -0.61436,-0.0295 -4.298309,-3.75902 -4.860685,-4.92062 -1.190336,-2.45894 -0.435662,-5.29555 1.67535,-6.2973 1.334152,-0.63297 2.112022,-0.55028 4.519104,0.4806 3.419834,1.46447 5.761073,2.25586 5.645133,1.90789 -0.05736,-0.17215 -0.956208,-0.96801 -1.997294,-1.76837 -3.182848,-2.4469 -4.142416,-4.00861 -4.143416,-6.74687 -0.0013,-2.62873 1.365505,-5.4856 3.038057,-6.35052 1.521332,-0.78673 3.698816,-0.32225 4.613672,0.98392 0.24226,0.34586 0.42385,1.19408 0.43925,2.05207 l 0.02584,1.46244 0.370003,-1.17977 c 0.20347,-0.6489 0.832198,-1.66093 1.396814,-2.24896 0.885466,-0.92216 1.05017,-1.28742 1.19941,-2.65668 0.582596,-5.34542 5.777384,-9.8982 8.354012,-7.32152 1.021396,1.0214 1.322453,2.31338 1.336353,5.73402 0.01105,2.71744 0.03627,2.85428 0.379305,2.0655 0.224016,-0.51514 0.766409,-1.04788 1.389579,-1.3658 0.876856,-0.44735 1.090261,-0.7409 1.505851,-2.06603 1.454166,-4.63666 4.014954,-6.83765 5.836336,-5.01623 0.34602,0.34602 0.77334,1.10973 0.949296,1.69706 0.23046,0.76908 0.566351,1.20101 1.201477,1.54305 1.113886,0.59988 1.547073,1.61926 1.337387,3.14917 -0.0893,0.65085 -0.107304,1.1839 -0.03979,1.1839 0.06753,0 0.437072,-0.62026 0.821138,-1.37821 1.993252,-3.93342 5.235574,-6.84484 9.055778,-8.1318 1.035606,-0.34886 1.808043,-0.52046 2.50424,-0.51263 z m 33.92041,5.34644 c 5.347645,0.0726 10.74989,0.45183 14.600659,1.1157 4.797124,0.82701 13.672704,3.31234 15.446086,4.32531 0.22747,0.12993 1.358576,0.61459 2.513542,1.07694 2.063922,0.82621 5.816124,2.77431 6.036324,3.13418 0.06171,0.10092 -2.168005,0.18888 -4.954737,0.19688 -4.3309,0.0117 -9.669601,0.33973 -13.136665,0.80667 -24.401194,3.28624 -50.337383,14.35885 -67.071875,28.63391 -3.185468,2.71736 -8.894759,8.4156 -10.412285,10.39213 -4.078804,5.312876 -5.108659,6.850381 -7.202661,10.754903 -0.643766,1.20039 -1.250121,2.182668 -1.347721,2.182812 -0.7288,0.0011 -0.846447,-14.274135 -0.160197,-19.446355 1.441932,-10.86821 7.615587,-21.34232 16.603121,-28.16986 9.81579,-7.45674 21.3802527,-12.20071 34.8123451,-14.27975 3.6328848,-0.5623 8.9264329,-0.79604 14.2740639,-0.72347 z m 32.188733,13.67669 c 5.188812,-0.009 9.904735,0.46917 13.874089,1.43453 10.730416,2.61004 20.798029,9.21249 29.794563,19.54041 1.839946,2.11225 5.556076,7.26756 5.917466,8.20932 0.10327,0.26911 -0.506733,0.12141 -2.052585,-0.49609 -5.17061,-2.06544 -13.589919,-4.09697 -20.852991,-5.03225 -5.06705,-0.6525 -18.793134,-0.80537 -24.36027,-0.2713 -16.856172,1.61692 -34.188872,6.64393 -50.7002645,14.704524 -12.3491878,6.028693 -22.1673995,12.366561 -33.9472815,21.913391 -3.437358,2.78576 -10.018652,9.364685 -11.765174,11.76104 -1.309782,1.797132 -1.650198,2.063991 -1.857768,1.455208 -0.320536,-0.940114 -0.94586,-3.803885 -1.34307,-6.151562 -0.584176,-3.452825 -0.386004,-8.283071 0.453202,-11.054623 0.73343,-2.422185 4.120126,-9.083524 6.284888,-12.361002 1.971092,-2.984305 2.752479,-3.963909 6.225977,-7.805206 7.042302,-7.78822 14.347504,-13.33103 26.4547156,-20.07216 1.7346648,-0.96586 3.1970154,-1.75597 3.249414,-1.75597 0.05239,0 1.4907912,-0.66688 3.19618736,-1.48208 10.21466724,-4.8826 23.88247804,-9.23283 34.71829404,-11.04945 5.859846,-0.9824 11.521796,-1.47781 16.710608,-1.48673 z m 10.683586,26.90585 0.837675,0.95394 c 1.902882,2.1673 3.922159,6.71157 5.635315,12.682435 2.288058,7.974685 3.097412,13.854729 2.289266,16.634643 l -0.428915,1.475362 -6.288505,0.167432 c -3.458434,0.09189 -7.954893,0.35327 -9.992155,0.58136 -2.037272,0.22809 -4.429952,0.483864 -5.316988,0.567924 l -1.612821,0.152445 -0.148312,-2.479952 c -0.08157,-1.36416 -0.579119,-4.409719 -1.105875,-6.767545 -1.805306,-8.080642 -4.79804,-15.430474 -7.730278,-18.985404 -0.804176,-0.97496 -1.422143,-1.80051 -1.373043,-1.83451 0.21736,-0.15054 4.380531,-0.9925 7.894609,-1.59681 4.68365,-0.80543 7.991802,-1.14818 13.290662,-1.37666 z m 6.805269,0.13126 c 5.1018,-0.1335 13.727344,0.98376 20.793046,2.69285 l 3.6127,0.87385 1.112593,1.63505 c 2.576232,3.78618 5.084054,14.820577 5.54023,24.377319 0.13927,2.91761 0.08989,3.84884 -0.269234,5.083927 -0.2418,0.831612 -0.705578,1.809438 -1.030428,2.172994 -0.571076,0.639179 -0.621297,0.647704 -1.516703,0.254248 -4.91003,-2.157513 -14.573874,-4.410249 -21.514966,-5.015197 l -2.068608,-0.180351 0.216525,-1.091923 c 0.365356,-1.84529 0.219596,-6.77333 -0.28267,-9.558073 -1.511306,-8.379076 -4.11266,-16.064774 -6.760828,-19.976044 l -0.806152,-1.19062 z m -36.379175,4.14755 c 0.264589,0.0451 0.475206,0.15466 0.786516,0.29404 2.290998,1.02559 5.0791,5.488302 7.348388,11.761551 1.885062,5.211073 3.564258,12.76765 3.568258,16.059485 0.0018,1.444114 0.116761,1.376906 -3.561023,2.09703 -6.936092,1.358086 -15.176413,3.91722 -22.462195,6.976835 -1.580602,0.663759 -3.026827,1.207161 -3.213757,1.207161 -0.60823,0 -2.052194,-1.927806 -3.06803,-4.096391 -1.034266,-2.20792 -1.9082423,-5.115691 -4.2162801,-14.023433 -1.6376362,-6.320338 -1.9189323,-8.062804 -1.5415079,-9.56169 0.2730558,-1.084414 0.3258707,-1.124468 3.3620687,-2.560568 4.3472543,-2.056196 9.1544803,-3.94077 14.9908163,-5.87613 5.934126,-1.96765 7.212993,-2.41323 8.006746,-2.27789 z m 65.345882,1.30431 c 0.269989,0.004 0.832007,0.16451 1.722893,0.48317 5.027703,1.79841 8.336233,3.960437 9.448003,6.174821 0.66844,1.331382 0.94979,2.762095 1.98024,10.060885 2.18445,15.472665 2.13419,18.941797 -0.31316,21.497395 -0.83251,0.869332 -0.90776,0.878944 -1.52549,0.196371 -0.65335,-0.721926 -4.07358,-2.890547 -6.41459,-4.067452 -1.98316,-0.996943 -2.173982,-1.209367 -1.5503,-1.727027 0.70456,-0.58472 1.53079,-3.008214 1.67484,-4.912878 0.30469,-4.028711 -0.88164,-13.778362 -2.43448,-20.008598 -0.662646,-2.658653 -2.098937,-6.720097 -2.559017,-7.236247 -0.276661,-0.3104 -0.298901,-0.46407 -0.02894,-0.46044 z m 13.976406,6.889501 c 0.38539,0.08108 1.95109,1.717357 2.84066,3.138827 1.50129,2.399161 3.02154,7.893561 5.21828,18.861381 0.13116,0.65483 0.5455,2.619403 0.92088,4.365625 1.336,6.215529 1.13282,9.821693 -0.66921,11.87421 -0.43291,0.493057 -0.99713,0.951453 -1.25367,1.018543 -0.32217,0.08425 -1.41803,-0.786373 -3.54242,-2.813782 l -3.0763,-2.935221 1.01854,-1.146183 c 1.54114,-1.734417 2.09858,-3.509223 2.09858,-6.681246 0,-5.521898 -2.44509,-23.218679 -3.47886,-25.179342 -0.20258,-0.384229 -0.20468,-0.529838 -0.0765,-0.502812 z m -108.7602841,2.940906 0.1782837,2.319755 c 0.09791,1.275867 0.4825205,3.450863 0.8552449,4.833297 0.3727258,1.38242 1.156781,4.333777 1.7420126,6.558256 2.2256192,8.459644 3.7656069,12.390662 5.4942379,14.0255 0.50721,0.479686 0.878139,0.911402 0.824239,0.959632 -0.05389,0.04823 -1.7055564,0.916359 -3.6700598,1.929081 -6.6108176,3.407953 -13.8888292,8.094836 -17.635616,11.357446 -0.8954762,0.779755 -1.8572272,1.418002 -2.1373372,1.418002 -0.820766,0 -2.808294,-1.472005 -3.74034,-2.769857 -2.307672,-3.213363 -3.476392,-7.741471 -4.291728,-16.628443 -0.560006,-6.103924 -0.104014,-9.358398 1.559078,-11.125936 2.210132,-2.348875 12.6728449,-8.966623 18.89858809,-11.953792 z m -25.4041339,16.18971 c 0.04991,0.05041 -0.0092,0.627249 -0.130742,1.282092 -0.349056,1.87998 0.419303,10.904597 1.351339,15.875 0.942506,5.026259 3.913198,10.378181 6.312276,11.371916 0.44309,0.183518 0.799717,0.408737 0.792717,0.500227 -0.007,0.09149 -0.644482,0.642649 -1.416968,1.224732 -3.391288,2.555352 -11.159294,9.893933 -12.751676,12.04681 -0.79207,1.070852 -1.197199,1.192778 -2.580205,0.778247 -1.948392,-0.584018 -3.746434,-2.73588 -4.41265,-5.280815 -0.850026,-3.247045 -3.803805,-17.502423 -4.082955,-19.705257 -0.34752,-2.742342 1.271475,-5.12591 7.080705,-10.42572 3.577914,-3.264165 9.572349,-7.935712 9.838159,-7.667232 z m 85.536898,4.248836 c 5.630586,-0.07841 12.774484,0.152854 15.409395,0.577742 8.521804,1.374201 15.154826,3.312886 20.527946,6.000151 2.177509,1.089037 2.863039,1.53015 2.222599,1.430404 -0.50932,-0.07934 -1.923877,-0.31861 -3.143473,-0.532268 -7.551722,-1.322943 -16.725933,1.043197 -24.505481,6.321061 -6.465856,4.386626 -12.571284,12.774192 -13.2302,18.175118 -0.14163,1.160825 -0.09341,1.5403 0.22996,1.808676 0.584926,0.48544 0.853396,0.216904 1.492932,-1.492416 1.686832,-4.508486 4.68841,-9.045032 8.454264,-12.779065 4.586744,-4.547968 9.287823,-7.235339 15.601115,-8.917802 2.222392,-0.592247 3.084782,-0.677444 7.031096,-0.694014 3.915254,-0.01644 4.806384,0.06186 6.879166,0.605131 3.586081,0.93988 7.184151,2.619186 10.186461,4.753715 1.67734,1.192525 5.40538,5.156656 6.74946,7.176823 6.79753,10.216944 9.59472,26.465964 6.59598,38.314974 -2.33096,9.2099644 -9.34304,17.7255453 -17.24391,20.9408405 -5.56967,2.2665615 -11.686503,2.4458635 -16.424323,0.4821411 -1.395216,-0.578263 -1.432839,-0.5797788 -1.793689,-0.0863 -0.32028,0.4379944 -0.30843,0.5719755 0.09198,1.0221599 0.745116,0.8376162 4.41951,2.4854352 6.623368,2.9703612 1.121886,0.24686 2.20717,0.497255 2.41174,0.556555 0.903766,0.26216 -3.465046,2.747297 -5.982064,3.402893 -2.176692,0.56697 -5.056688,0.505345 -7.00164,-0.149861 -0.887976,-0.29914 -1.77677,-0.48143 -1.97559,-0.405144 -0.680296,0.26106 -0.383329,1.119032 0.564307,1.629358 0.509306,0.27429 0.926041,0.584821 0.926041,0.690397 0,0.30597 -1.873971,0.742658 -3.193087,0.744658 -1.511882,0.0018 -3.665164,-0.624194 -4.55476,-1.32395 -0.37238,-0.29291 -0.884652,-1.096795 -1.138432,-1.786455 -0.653486,-1.775972 -0.79388,-1.843519 -1.391646,-0.671793 -0.63789,1.250356 -2.39831,2.896164 -3.661792,3.42408 -1.291976,0.53982 -3.984821,0.738257 -5.274097,0.388607 -1.538486,-0.41724 -2.368036,-1.163221 -2.904732,-2.611727 -0.25554,-0.689646 -0.498502,-1.298289 -0.539502,-1.352889 -0.04096,-0.05465 -0.668314,0.550355 -1.39423,1.344621 -1.537326,1.682062 -3.743108,2.942416 -6.135026,3.506246 -2.907552,0.685346 -6.031352,0.444487 -8.133354,-0.627869 -1.694522,-0.864486 -1.8451,-1.227876 -0.919324,-2.216402 1.637616,-1.748602 2.084314,-2.882098 1.260388,-3.198254 -0.257696,-0.09889 -1.063696,0.383777 -2.182812,1.306897 -2.110632,1.740942 -4.429595,2.887094 -7.317383,3.61735 -1.749802,0.442486 -2.644638,0.510564 -5.165576,0.392224 -3.512628,-0.1649 -5.748415,-0.707558 -9.887769,-2.399854 -3.630444,-1.484222 -3.931667,-1.758032 -1.934765,-1.758032 4.33038,0 11.551233,-2.800771 11.551233,-4.480347 0,-0.7450632 -0.752593,-0.780956 -2.248959,-0.10697 -2.814598,1.267746 -4.477996,1.544991 -9.260416,1.540991 -4.049314,-0.0031 -4.778771,-0.0763 -7.313249,-0.734322 C 6.390227,9.8659917 2.4167082,7.9889133 -1.6138758,4.9807067 -9.4156966,-0.84215837 -14.382479,-8.7648092 -16.069841,-18.079384 c -0.639566,-3.532064 -0.63563,-10.121725 0.0072,-13.626042 1.263176,-6.880826 4.430482,-13.157482 8.4956052,-16.834632 5.8634288,-5.303801 16.1902916,-11.514838 24.9695358,-15.018204 2.188248,-0.873231 2.255482,-0.882218 5.55625,-0.760677 13.109984,0.482721 25.977907,9.133175 32.452799,21.816239 1.235186,2.419491 1.727663,3.14312 2.182813,3.20859 0.521526,0.07502 0.587561,-0.03164 0.587561,-0.95033 0,-4.924093 -7.329727,-14.515712 -15.036809,-19.676318 -4.83657,-3.238541 -10.92487,-5.703155 -16.5809,-6.712769 -1.014886,-0.181162 -1.031171,-0.199311 -0.396875,-0.445967 1.475806,-0.573914 8.215298,-2.600845 10.31875,-3.10317 7.924118,-1.892384 12.152892,-2.532877 21.230746,-3.216858 1.317505,-0.09927 3.026184,-0.1599 4.90306,-0.186035 z m -105.385816,13.331486 0.454236,2.500106 c 1.619762,8.923402 3.3269,16.830229 4.210596,19.500618 0.790216,2.387904 2.497897,4.587839 4.231783,5.451864 0.771766,0.384583 1.558517,0.699182 1.748213,0.699182 0.47018,0 0.478082,-0.02509 -0.692464,2.162659 -0.570456,1.066171 -1.410096,3.149502 -1.866036,4.629691 -0.455916,1.480202 -0.996667,2.830359 -1.201477,3.000334 -0.553676,0.459507 -2.258903,0.557303 -3.240629,0.186035 -2.921068,-1.104662 -4.52459,-4.292849 -5.218286,-10.375594 -0.13929,-1.221375 -0.119805,-1.283428 0.253215,-0.809253 0.222196,0.282475 0.404109,0.609897 0.404109,0.727604 0,0.117704 0.416722,0.213941 0.926042,0.213941 0.631466,0 0.926042,-0.121975 0.926042,-0.382923 0,-0.210469 -0.409069,-1.966669 -0.908989,-3.902604 -0.499906,-1.935936 -1.209111,-5.067523 -1.576131,-6.959265 -1.726622,-8.899831 -1.596489,-11.739223 0.702283,-15.321546 z m 165.870496,0.341581 c 0.13198,-0.09724 0.28321,0.268259 0.63665,1.362708 1.29751,4.017747 1.7532,8.85659 1.08417,11.513509 -0.16266,0.646509 -0.39153,1.175639 -0.50849,1.175639 -0.11696,0 -0.35374,-0.446499 -0.52607,-0.992188 -0.40942,-1.296486 -2.43008,-5.076608 -3.76721,-7.047632 -0.82955,-1.222818 -0.97816,-1.603229 -0.69143,-1.768367 1.62776,-0.937536 3.1087,-2.565376 3.64009,-4.001823 0.0464,-0.125443 0.0883,-0.209432 0.13229,-0.241846 z m -29.071611,11.284583 c -3.348284,0.0097 -3.907521,0.0809 -5.820833,0.744657 -2.960628,1.027074 -5.531292,2.71325 -7.869804,5.160925 -3.725694,3.899649 -5.707533,8.634005 -5.940723,14.191899 -0.264046,6.293567 1.541911,11.009354 5.878195,15.348417 1.704142,1.705234 2.615406,2.369577 4.630208,3.3770548 1.379642,0.6898796 3.163226,1.4243356 3.963582,1.6319418 1.887752,0.489669 6.52978,0.5052624 8.774658,0.029455 5.497848,-1.1652672 10.422908,-5.1621171 13.058118,-10.5972861 1.77056,-3.651799 2.1021,-5.179507 2.0991,-9.657291 -0.003,-4.445471 -0.47518,-6.569835 -2.22106,-9.997323 -1.93037,-3.789961 -4.55267,-6.457939 -8.21707,-8.359697 -3.16842,-1.644383 -4.238597,-1.884666 -8.334371,-1.872753 z m -143.40365,0.430464 c 0.06261,0.0626 0.296662,1.251466 0.520382,2.641699 0.22371,1.390246 0.665796,3.468126 0.981852,4.61729 0.66975,2.43509 0.698319,3.203144 0.225309,6.034257 -0.278226,1.66519 -0.286996,2.669493 -0.04393,4.911328 0.47419,4.371959 1.872641,7.681961 4.123263,9.75651 1.640022,1.511728 3.014879,2.127741 5.506641,2.4691 1.198902,0.164252 2.226164,0.336889 2.283064,0.383439 0.261812,0.214043 -2.005921,2.582281 -2.784326,2.907833 -0.480483,0.200689 -1.085914,0.349566 -1.345137,0.330213 -4.007144,-0.299093 -7.650716,-1.087541 -9.582878,-2.073259 -1.875902,-0.957015 -3.45612,-4.410858 -3.45612,-7.554061 0,-2.642502 -1.34499,-2.879372 -2.469616,-0.435115 -0.43954,0.955294 -0.568508,1.746179 -0.570508,3.501078 l -0.0031,2.267045 -0.847493,-0.499711 c -1.052416,-0.620936 -2.336867,-2.525414 -2.891813,-4.287077 -0.57966,-1.840058 -0.779012,-6.906743 -0.363286,-9.233028 0.896926,-5.018905 3.365375,-9.617196 7.279659,-13.559896 1.221776,-1.230646 3.158377,-2.457304 3.438033,-2.177645 z m 67.642383,0.835608 c -5.688166,0.304189 -9.7793442,2.199257 -13.7319782,6.360335 -2.2599978,2.379197 -3.74703293,4.856809 -4.88755697,8.144723 -0.82461873,2.377348 -0.85775203,2.634512 -0.85731203,6.575309 4e-4,3.558296 0.082021,4.363669 0.61960044,6.085417 2.31837776,7.425434 7.82724816,12.8540539 15.26211776,15.0404255 1.008496,0.2965698 2.250215,0.5945051 2.759521,0.6619751 3.037808,0.4023974 8.318028,-0.4089691 11.00398,-1.6908529 5.06027,-2.4150414 8.863096,-6.7594647 10.820528,-12.3620357 3.219338,-9.214473 -0.625417,-20.383756 -8.845455,-25.696623 -3.690564,-2.385337 -7.510161,-3.366447 -12.143445,-3.118673 z m -34.849035,5.469951 c 0.08473,0 -0.03553,0.446498 -0.267168,0.992187 -3.088988,7.276957 -3.953648,15.019343 -2.641182,23.651786 0.822346,5.408802 3.677447,12.2329111 6.958231,16.63102651 1.950056,2.61416459 5.288514,6.03558249 7.6724004,7.86308589 1.0548341,0.8086581 1.9174334,1.5135118 1.9177124,1.5663127 0,0.6073716 -9.7285718,-3.1478221 -14.4197918,-5.5660685 -3.345756,-1.7246708 -3.403779,-1.7455244 -2.942456,-2.1068482 -0.123417,-0.046483 -0.247064,-0.092094 -0.37052,-0.1384928 -0.404912,0.089477 -0.711795,0.016679 -0.705383,-0.26251627 -0.148817,-0.0549724 -0.298371,-0.10826597 -0.447518,-0.162264 -0.01371,0.0148745 -0.01204,0.0308781 -0.02791,0.0454753 -0.2646,0.24344664 -0.625565,0.16253034 -1.627291,-0.36535238 -3.453208,-1.81973381 -3.83919,-2.28246741 -5.302002,-6.36085201 -2.934469,-8.1813562 -3.366763,-15.5379452 -1.238168,-20.4979732 0.08443,-0.378302 0.248956,-0.789831 0.512114,-1.224732 0.162558,-0.26864 0.07242,-0.112543 0.261999,-0.473873 0.241238,-0.459773 0.511623,-0.818845 0.79375,-1.087789 0.04778,-0.08255 0.04399,-0.132611 0.09819,-0.218074 0.488781,-0.770739 0.755747,-1.10629 0.784965,-1.041797 0.01957,0.04319 -0.231418,0.517867 -0.429948,0.908988 0.07783,-0.04744 0.151609,-0.03178 0.229443,-0.06718 0.04171,-0.08062 0.08597,-0.162014 0.134359,-0.24443 0.32353,-0.551031 0.632129,-1.110756 0.966866,-1.655196 0.454756,-0.73964 0.96009,-1.191808 1.444873,-1.409733 1.058838,-1.822956 4.476445,-5.424273 5.010547,-5.219319 0.20285,0.07785 0.308514,0.0444 0.235128,-0.07441 -0.12645,-0.204599 3.072609,-3.481958 3.398759,-3.481958 z m 116.094205,0.401525 c 1.522308,0.03326 3.048818,0.662944 4.267438,1.881539 1.22105,1.221036 1.60696,2.191848 1.61696,4.066936 0.007,1.417696 -0.12143,1.941346 -0.73329,2.982246 -0.40823,0.694482 -1.19464,1.562569 -1.7477,1.928565 -1.72348,1.140531 -4.430525,1.278861 -6.241477,0.31936 -3.403848,-1.803457 -4.146524,-6.821167 -1.403532,-9.483142 1.201202,-1.165737 2.719323,-1.728765 4.241601,-1.695504 z m -73.458565,2.046904 c 6.475382,0.519776 8.192304,9.03017 2.368848,11.741919 -4.646224,2.163562 -9.910404,-1.924699 -8.878528,-6.895187 0.411126,-1.98044 1.490908,-3.373532 3.30109,-4.259171 1.296496,-0.63431 1.701214,-0.708559 3.20859,-0.587561 z m 81.851333,8.322489 c 1.16482,-0.158624 2.00841,1.202831 1.27899,2.473751 -0.30391,0.529532 -0.35008,0.821932 -0.14986,0.945679 0.16738,0.103424 0.21464,0.05733 0.11214,-0.108521 -0.0976,-0.15795 -0.0564,-0.361802 0.0915,-0.453202 0.36823,-0.227579 0.32774,1.151269 -0.10491,3.576009 -0.43593,2.443122 -1.75146,5.697439 -3.1321,7.749398 -1.69168,2.513972 -5.38963,4.952646 -8.8837,5.85804 -3.531338,0.915057 -7.666302,0.347654 -11.423076,-1.567863 -2.246012,-1.145208 -5.219053,-4.315232 -6.449735,-6.876583 -1.177796,-2.451255 -2.085602,-5.778097 -1.967322,-7.210929 0.08239,-0.997927 0.08675,-1.001489 1.272274,-1.001489 h 1.189591 l 0.185519,1.486731 c 0.293616,2.350573 1.422182,5.218092 2.691308,6.837825 5.48962,7.006178 14.907441,7.405282 20.804931,0.882117 1.71043,-1.891863 2.76021,-4.046393 3.40083,-6.977869 0.47141,-2.157392 0.47272,-2.278549 0.0191,-3.12384 -0.55381,-1.032627 -0.35755,-1.862362 0.54932,-2.323372 0.17585,-0.0894 0.34881,-0.143221 0.51521,-0.165882 z m -71.902586,3.022555 c 0.295291,-0.01563 0.586505,0.15805 0.971,0.516247 0.513316,0.478241 0.568041,0.715387 0.410311,1.785938 -0.10004,0.678948 -0.31424,1.32194 -0.47594,1.428853 -0.19738,0.130527 -0.201304,0.195738 -0.01189,0.198438 0.30834,0.0044 0.08151,2.424568 -0.361218,3.852995 -0.588506,1.898744 -2.302302,5.397905 -3.391008,6.923608 -0.973336,1.364005 -1.612301,1.908789 -3.704683,3.15743 -1.538612,0.91817 -3.360253,1.7496349 -4.652429,2.1239013 -4.12937,1.1960352 -9.184471,0.6044802 -13.221415,-1.5471924 -1.7837288,-0.9507159 -4.4521702,-3.1942359 -5.5092248,-4.6317589 -0.9402974,-1.27872 -2.4512551,-4.314029 -3.0060181,-6.038391 -0.501773,-1.559669 -1.0336205,-5.097688 -0.8185547,-5.445662 0.08252,-0.133527 0.7358776,-0.242879 1.4521078,-0.242879 1.1377746,0 1.3181574,0.07519 1.425236,0.595312 0.7930788,3.852087 1.0938302,4.9081 1.8014404,6.324162 1.2303332,2.462115 4.1938924,5.436415 6.6001144,6.623885 4.23139,2.088197 8.075585,2.304874 11.990999,0.675928 2.783518,-1.158043 5.891863,-3.849823 7.382495,-6.393409 0.576006,-0.982892 1.647999,-3.898165 1.881539,-5.116483 0.04854,-0.253204 0.107441,-0.460437 0.130741,-0.460437 0.2282,0 0.104316,-1.505336 -0.179834,-2.185396 -0.340296,-0.814473 -0.321994,-0.911006 0.291972,-1.524972 0.399715,-0.399714 0.69895,-0.604488 0.994255,-0.620117 z m 23.122103,1.826245 c -2.034207,0.09314 -4.057711,0.940726 -5.719548,2.613277 -2.741748,2.759436 -3.766699,6.36881 -2.765723,9.739457 0.83286,2.804493 4.390694,6.3923422 8.067208,8.135421 1.030636,0.4886344 1.721488,0.6507203 2.367298,0.5555217 2.187438,-0.3224448 5.682523,-3.8604919 6.944795,-7.0300617 0.45538,-1.14344 0.582896,-2.023376 0.594796,-4.106726 0.0142,-2.476047 -0.04212,-2.767828 -0.851111,-4.4111 -1.826641,-3.710444 -5.24738,-5.651014 -8.637715,-5.495789 z m 0.813903,3.215308 c 2.009991,0.138931 4.010502,1.304526 5.069975,3.241662 0.32109,0.587084 0.443171,1.464776 0.443901,3.19102 9.1e-4,2.14811 -0.08262,2.552584 -0.854212,4.129464 -0.494126,1.009869 -1.35775,2.210944 -2.044836,2.8442704 -0.696076,0.6416322 -1.448807,1.0960571 -1.815393,1.0960571 -0.854136,0 -3.66928,-1.8617705 -5.215186,-3.4488855 -1.568872,-1.610703 -1.948289,-2.689858 -1.778703,-5.060156 0.15679,-2.191358 1.086641,-3.898596 2.767273,-5.079793 1.011609,-0.710982 2.221197,-0.997006 3.427181,-0.913639 z m 77.62679,5.183662 c 1.39253,-0.204365 2.32275,0.4259 3.10058,2.100647 0.63322,1.363302 0.71075,1.845958 0.71675,4.44004 0.007,3.1085686 -0.31135,4.684778 -1.38802,6.8791662 -1.01408,2.0665556 -1.78735,2.9356178 -3.72794,4.19095863 -3.42963,2.21858917 -6.13891,5.57911077 -7.05642,8.75243737 -0.58739,2.0315518 -0.43089,4.8777648 0.35192,6.4047768 0.84751,1.653216 2.78851,3.223082 4.61367,3.730522 1.21968,0.339086 1.50901,0.517073 1.37149,0.845943 -0.36513,0.873146 -0.4371,4.193353 -0.11214,5.177979 0.41862,1.268412 1.90388,2.918094 3.28973,3.65404 1.5585,0.827696 5.24017,0.81683 7.32203,-0.0217 1.76299,-0.710146 3.58129,-1.878173 4.74493,-3.047359 0.80938,-0.813256 0.83622,-0.820802 0.65112,-0.186552 -0.28496,0.976406 -2.06047,3.250934 -3.36103,4.30568 -1.42933,1.159186 -2.94784,1.929092 -4.60696,2.335258 -0.71078,0.174 -1.33111,0.34719 -1.37821,0.38499 -0.0471,0.03776 0.28033,0.573705 0.72761,1.191141 2.23333,3.083178 0.10882,4.726589 -6.39651,4.948019 -4.26071,0.14503 -4.30106,0.185578 -2.4567,2.43396 1.40639,1.714452 1.68984,2.670954 1.07074,3.6158 -0.73126,1.116046 -2.07965,1.535971 -4.8979,1.524971 -2.03201,-0.0079 -2.89714,-0.145559 -4.51755,-0.717785 -3.497,-1.234916 -3.58099,-1.060444 -1.35082,2.80603 0.31731,0.550116 0.57671,1.278239 0.57671,1.617989 0,0.918396 -0.88734,1.876965 -2.06344,2.229321 -1.31846,0.39502 -5.60948,0.310829 -5.60948,-0.110071 0,-0.06725 0.37432,-0.863021 0.83199,-1.768367 1.90169,-3.761804 3.69383,-10.051955 4.46381,-15.668811 0.47501,-3.465168 0.62878,-11.584869 0.2806,-14.816667 -0.57033,-5.295154 -1.63974,-9.5534121 -3.3631,-13.3934975 l -0.73432,-1.6371094 1.17874,-1.0516154 c 0.64838,-0.5786016 2.48843,-2.1541766 4.08916,-3.50107831 5.51506,-4.64066059 7.92585,-7.72405959 10.47326,-13.39401439 1.51011,-3.361169 2.05403,-4.091879 3.1657,-4.255038 z m -190.074706,3.950147 c 0.256621,0.04079 0.534756,0.162832 0.881083,0.339514 0.584136,0.298012 1.061951,0.591737 1.061951,0.652673 0,0.06095 -0.446478,0.639368 -0.992188,1.285193 -1.811992,2.1445038 -3.064176,3.9931897 -4.244702,6.2662845 -1.537946,2.961307 -1.727717,3.624694 -1.236617,4.3258342 0.845746,1.20747351 0.22016,3.9042424 -1.193726,5.1449056 -0.913656,0.8017088 -2.718091,1.0085501 -3.775997,0.4330485 -0.400166,-0.2176972 -0.727604,-0.5107713 -0.727604,-0.6516399 0,-0.1408772 -0.178595,-0.2563151 -0.396875,-0.2563151 -0.21828,0 -0.396875,-0.093616 -0.396875,-0.208256 0,-0.1146386 -0.365307,-0.6206575 -0.811837,-1.1244791 -0.446516,-0.503863 -0.726564,-0.7376254 -0.622184,-0.5193482 0.10437,0.2182772 0.439921,0.6880895 0.745691,1.0438639 0.44003,0.511983 0.328228,0.4710966 -0.536918,-0.1958536 -2.665878,-2.05517171 -2.86309,-5.8770308 -0.413928,-8.027417 0.792636,-0.6959372 1.08186,-0.7963356 1.95647,-0.6790284 1.079732,0.1448256 1.800306,0.5775014 1.797306,1.0779704 -0.0011,0.1640816 -0.464345,0.5620981 -1.029395,0.8847005 -0.620976,0.3545428 -1.135979,0.8975885 -1.301729,1.3730429 -0.25605,0.7345028 -0.195557,0.8588793 0.910539,1.87843827 0.651486,0.6005266 1.305011,1.05203885 1.452107,1.00303955 0.1471,-0.0490293 0.563179,-0.97965307 0.925009,-2.06809082 1.071996,-3.2248172 3.123513,-7.120943 4.969205,-9.4381832 1.635856,-2.053772 2.211312,-2.66227 2.981214,-2.539897 z m -5.674589,0.09767 c 0.347773,0.01527 0.708194,0.176685 1.036629,0.482658 0.432856,0.403281 0.468781,0.548133 0.181901,0.727604 -0.5346,0.334481 -3.092996,3.4940246 -3.558956,4.395081 -0.29844,0.5770966 -0.483826,0.7068138 -0.700732,0.4898926 -0.41076,-0.4107544 -2.675195,-0.3689756 -3.722771,0.06873 -3.379824,1.412187 -5.040788,6.1987898 -3.225642,9.2960734 0.751826,1.2829018 3.916573,3.9810098 5.796545,4.9418172 2.873458,1.468529 6.08617,-0.215702 7.350972,-3.8535116 0.1961,-0.5640216 0.505911,-1.0823858 0.688331,-1.1523844 0.462356,-0.1774272 0.417891,-0.587494 -0.235645,-2.16007488 l -0.567924,-1.36529132 0.836125,-2.1363037 c 0.839026,-2.1435136 1.622123,-3.5527243 1.622123,-2.9192017 0,0.1864872 0.12723,0.2603997 0.28267,0.1643311 0.15542,-0.096068 0.218993,-0.3397559 0.141593,-0.5415691 -0.0774,-0.2018118 -0.04502,-0.338486 0.07183,-0.3038574 0.288636,0.085552 1.726449,-1.6392406 1.530139,-1.8355468 -0.16854,-0.1685406 0.65628,-0.8759751 1.600936,-1.3730431 0.411906,-0.216748 0.919775,-0.232135 1.719791,-0.05323 1.729096,0.386775 7.995907,1.0759028 9.783383,1.0759028 h 1.585949 l -1.280542,1.0128581 c -0.704276,0.557162 -1.667498,1.4543828 -2.140438,1.9936768 -0.472936,0.5392926 -0.859895,0.8621811 -0.859895,0.7172689 0,-0.3900628 -1.006555,-1.2578274 -2.013831,-1.7358114 -2.008082,-0.9528984 -4.679811,-0.3010994 -6.506063,1.5875 -1.440322,1.489499 -2.37684,3.5021532 -3.629752,7.801591 -2.317652,7.953088 -3.37128,10.0562128 -5.829102,11.6333988 h -5.17e-4 c -1.216096,0.780356 -1.645193,0.903518 -3.413745,0.977718 -2.835918,0.11901 -4.627428,-0.505858 -6.47609,-2.257744 -2.368642,-2.2446136 -3.032422,-5.4457207 -2.163176,-10.4303707 1.420416,-8.1452516 5.104097,-13.6823413 9.808187,-14.7432863 0.550256,-0.124106 0.909505,-0.104573 0.909505,0.05013 0,0.14059 0.187326,0.06848 0.415996,-0.160197 0.279296,-0.279295 0.614429,-0.410073 0.962215,-0.394808 z m 24.990722,7.499801 c 0.30065,0.1153696 0.229406,0.2931133 -0.321944,0.8040853 -0.554326,0.513743 -0.670144,0.8060866 -0.534334,1.3472046 0.10294,0.4103294 0.07121,0.62833 -0.07752,0.5364014 -0.14094,-0.087098 -0.189087,0.078527 -0.110587,0.3787882 0.392596,1.50133 6.856778,5.9816329 13.285494,9.2077067 7.061882,3.543831 11.8479804,5.3315458 23.5670366,8.8025638 8.1772984,2.421988 10.9827384,3.521679 12.7542604,4.999695 2.786008,2.324398 4.472805,9.866233 4.084505,18.261417 -0.16219,3.506668 -0.735705,8.090586 -1.208195,9.657292 -2.652978,8.797134 -4.085001,11.443142 -8.067725,14.90555 -0.3911692,0.34007 -0.8623369,0.560779 -1.0469641,0.489893 -0.1846172,-0.07085 -0.9783678,0.03761 -1.7637166,0.241328 -0.7853488,0.20372 -1.8720467,0.370521 -2.4148397,0.370521 -0.976806,0 -0.9841812,-0.008 -0.7162354,-0.776697 0.2817322,-0.808126 1.0880712,-1.764025 1.9678386,-2.333191 0.2818158,-0.18232 0.9883752,-0.638829 1.5704468,-1.014925 4.1199044,-2.662116 5.1741844,-8.66099 2.5192264,-14.334526 -0.957112,-2.045272 -0.9726654,-2.241484 -0.204122,-2.578654 0.983996,-0.431696 1.878131,-2.634549 1.877921,-4.626591 -2.7e-4,-2.423698 -0.827923,-4.257645 -2.6933754,-5.967077 C 7.9499872,30.827779 7.788499,30.556012 7.4718746,29.002496 7.0334652,26.851392 5.7447155,24.207389 4.7464595,23.410589 4.3250051,23.074193 3.5355576,22.441547 2.9920446,22.004991 1.4922456,20.800335 0.68464553,20.359361 -1.5503138,19.525555 -2.676607,19.105369 -5.4437546,18.076156 -7.6992924,17.238356 -19.433254,12.879936 -33.405825,6.5844567 -37.755339,3.6965473 l -1.482597,-0.984436 0.166398,-1.2562541 c 0.22002,-1.65855661 1.351685,-4.634009 2.173511,-5.7148966 0.735996,-0.9679924 3.116418,-2.2940634 3.709334,-2.0665406 z m -11.614795,2.6091431 c 0.487477,-0.1689404 0.911614,0.085858 1.489315,0.6888468 0.44853,0.4681624 0.786282,1.1668727 0.871782,1.8040243 0.135206,1.00814473 -0.282653,8.234716 -1.121379,19.3920978 l -0.407727,5.423959 -1.302763,2.790527 c -1.517132,3.249148 -2.38954,6.609402 -2.41794,9.31571 -0.02589,2.467422 0.39869,3.989792 1.549776,5.559868 l 0.925525,1.262455 -0.28422,4.029211 c -0.15627,2.216162 -0.36257,6.411017 -0.45837,9.321395 -0.09577,2.910368 -0.274632,5.559563 -0.397392,5.886979 -0.28448,0.75874 -0.596904,0.734978 -2.220536,-0.169498 -0.72761,-0.40533 -3.177394,-1.75246 -5.443596,-2.993616 -6.995962,-3.831544 -9.441215,-5.448428 -11.924337,-7.88324 -3.767364,-3.694064 -5.026081,-6.16432 -5.931937,-11.641666 -0.38316,-2.316882 -0.376448,-6.64521 0.01705,-11.1125 0.04487,-0.50933 0.167788,-2.149 0.273368,-3.643706 0.10558,-1.494702 0.270153,-2.765734 0.365353,-2.824634 0.09525,-0.05886 1.150217,0.211591 2.344559,0.600997 l 2.171444,0.707968 0.0021,1.173055 c 0.0046,2.665448 1.896958,4.626912 3.84421,3.984252 1.101786,-0.363616 1.904997,-1.321888 2.134753,-2.546614 0.14691,-0.783086 0.247683,-0.880865 0.734839,-0.716235 0.3104,0.104876 2.17168,0.62947 4.136182,1.16582 3.175368,0.866926 3.59063,0.927706 3.74034,0.545186 0.0926,-0.23665 0.0926,-0.498026 0,-0.580326 -0.09262,-0.08232 -2.028374,-0.60548 -4.301546,-1.16272 l -4.133081,-1.013375 -0.562757,-1.158585 c -0.354816,-0.73034 -0.832057,-1.262466 -1.290877,-1.439706 -1.080626,-0.417426 -3.002035,-0.129889 -3.535701,0.529167 -0.44588,0.550616 -0.45022,0.550692 -1.597836,0.04496 -0.632946,-0.278926 -1.723972,-0.650796 -2.424658,-0.826306 l -1.274341,-0.318843 0.15813,-1.088823 c 0.08694,-0.598786 0.286307,-1.830104 0.442867,-2.73575 l 0.284737,-1.646411 1.101742,0.758093 c 1.140626,0.784766 3.708731,1.935338 5.010547,2.244824 0.410016,0.09752 1.63911,0.181586 2.731616,0.187586 1.731912,0.009 2.229952,-0.106464 3.885034,-0.90072 1.882212,-0.90326 4.501459,-3.18791 4.825545,-4.209046 0.08312,-0.2619 0.262189,-0.47594 0.397909,-0.47594 0.31702,0 0.310742,0.16692 -0.03256,0.877466 -0.25021,0.517976 -0.241292,0.530773 0.08837,0.124023 0.279926,-0.345426 0.441774,-0.380397 0.676444,-0.145727 0.23469,0.23467 0.307992,0.200786 0.307992,-0.141594 0,-0.247376 0.122181,-0.449584 0.271301,-0.449584 0.425246,0 0.728227,-1.068081 1.024227,-3.608049 0.15032,-1.2898618 0.333827,-2.6427404 0.407727,-3.0065348 0.973586,-4.7893828 1.468804,-6.13894785 2.980696,-8.126119 0.829955,-1.0908381 1.380639,-1.6836597 1.868103,-1.8526001 z m 189.763608,5.266862 c 2.52101,0.1823472 4.23053,1.7148992 6.08594,5.4544474 1.26491,2.549405 1.87424,5.1422125 2.04328,8.6950765 0.14887,3.128908 0.1337,3.253456 -0.53898,4.401282 -0.90586,1.545712 -2.87983,3.297964 -4.96817,4.4111 -1.3855,0.738456 -2.02402,0.911034 -3.66851,0.99012 -3.43134,0.16492 -4.8742,-1.08132 -4.70669,-4.064868 0.12035,-2.143632 1.04594,-3.632455 3.64163,-5.858557 3.08968,-2.649608 4.95978,-4.379853 4.23334,-3.916557 -3.94364,2.515102 -5.88697,3.195738 -9.12813,3.197738 -2.033,10e-4 -2.54398,-0.09202 -3.49384,-0.636137 -1.31098,-0.750986 -2.01393,-2.16329 -1.7539,-3.522782 0.90678,-4.7409384 7.29286,-9.5097287 12.25403,-9.1508629 z m -29.32896,6.0347737 c 0.0927,0 0.41144,0.6250937 0.70849,1.3890625 2.36338,6.0782557 3.1019,18.2564737 1.62626,26.8169677 -1.53136,8.882894 -4.89681,16.471874 -7.85276,17.70693 -0.5119,0.213936 -1.62511,0.389123 -2.47323,0.389123 -2.00185,0 -2.17166,-0.290954 -1.52187,-2.606042 1.01775,-3.626068 2.4023,-14.074666 2.88044,-21.734074 0.33589,-5.38063 0.15532,-11.399466 -0.43718,-14.553634 -0.20502,-1.091386 -0.37308,-2.057222 -0.3731,-2.146122 -3e-5,-0.08887 0.74413,-0.644424 1.65364,-1.23455 0.9095,-0.590126 2.54653,-1.7376732 3.63751,-2.550232 1.09098,-0.8125574 2.0591,-1.4774292 2.1518,-1.4774292 z M -39.778471,9.8935851 c 0.107328,0.00774 0.24224,0.07736 0.42478,0.2108399 0.26894,0.19665 0.437671,0.510759 0.375171,0.698149 -0.07779,0.233376 -0.209913,0.176455 -0.419613,-0.181385 -0.263446,-0.449586 -0.343141,-0.467163 -0.571541,-0.125573 -0.30266,0.452646 -0.368954,0.03038 -0.06925,-0.4408 0.0732,-0.1150392 0.153121,-0.1689697 0.26045,-0.1612309 z m -0.651123,2.2887489 c 0.04796,-0.02115 0.113792,-0.01188 0.186552,0.03307 0.145506,0.08994 0.264583,0.2159 0.264583,0.280086 0,0.06417 -0.119077,0.116789 -0.264583,0.116789 -0.14552,0 -0.264584,-0.125976 -0.264584,-0.280086 0,-0.07704 0.03008,-0.128714 0.07803,-0.149862 z m 1.796272,0.694532 c 0.15761,0 0.23647,0.148829 0.175184,0.330729 -0.06128,0.181886 0.06551,0.460857 0.281636,0.620117 0.27246,0.2008 0.3372,0.512002 0.21084,1.015442 -0.15406,0.613826 -0.244561,0.674754 -0.584977,0.392224 -0.34838,-0.28913 -0.378976,-0.239236 -0.22531,0.373104 v 5.16e-4 c 0.23964,0.9548 -0.01247,0.893072 -0.521415,-0.127124 -0.529576,-1.061522 -0.543924,-1.014345 0.311092,-1.034045 l 0.727605,-0.01705 -0.661459,-0.278019 c -0.390716,-0.1642 -0.526089,-0.328743 -0.330729,-0.402043 0.1819,-0.06829 0.330729,-0.293048 0.330729,-0.499194 0,-0.20615 0.129168,-0.374654 0.286804,-0.374654 z m 6.850745,0 c 0.23381,0 3.454298,1.514112 11.515576,5.414656 4.666694,2.258032 11.8562668,5.582212 14.6264976,6.762378 0.7684002,0.32736 1.3428233,0.648785 1.2769247,0.714685 -0.0659,0.0659 -0.784263,-0.029 -1.5968018,-0.21084 -0.8125388,-0.18181 -1.5596884,-0.248471 -1.659847,-0.148311 -0.3675744,0.367566 0.9526525,1.250274 5.6094767,3.751192 6.1445446,3.299918 7.0335425,3.874184 8.4640829,5.4653 2.1424392,2.382898 2.2458287,4.525789 0.3105753,6.447151 -1.1113332,1.103346 -3.5371906,2.230872 -4.8002238,2.230872 -0.3497544,0 -0.7095358,0.119063 -0.7994344,0.264583 -0.08994,0.14552 0.00308,0.264584 0.2067058,0.264584 0.8562174,0 3.6831071,1.699091 4.6451945,2.792077 1.2495118,1.419526 1.7561407,3.056987 1.5533935,5.021399 -0.3878444,3.757804 -3.1796308,5.72781 -6.92670897,4.888074 -2.62044353,-0.58726 -4.60054743,-2.179168 -7.69410403,-6.185152 -1.2942918,-1.676036 -2.3918122,-3.008893 -2.4386108,-2.962093 -0.04678,0.04678 0.6837407,2.093814 1.6231567,4.549076 0.9394274,2.455258 1.847981,4.991332 2.0189982,5.635832 0.4208544,1.586012 0.141207,3.234407 -0.6800618,4.005957 -0.8349788,0.784426 -3.4049533,0.972095 -5.0079633,0.365869 -5.01942,-1.898272 -8.107647,-4.971482 -11.685591,-11.628748 -0.62568,-1.164156 -1.14005,-1.980766 -1.14205,-1.814876 -0.0024,0.16588 0.225793,1.416049 0.507463,2.778125 0.515116,2.490938 0.779192,3.25994 2.121318,6.182568 1.172982,2.554352 1.182899,2.648825 0.352433,3.304191 -1.626756,1.283756 -5.340302,0.164336 -8.18193,-2.466516 -3.014898,-2.791258 -4.484826,-6.696609 -4.776452,-12.691215 -0.09057,-1.861692 -0.255133,-3.29047 -0.365869,-3.175 -0.51979,0.54188 -1.828155,3.276371 -2.227255,4.655013 l -0.444417,1.53479 -1.207161,-0.07958 c -0.96728,-0.06386 -1.317964,-0.228294 -1.7632,-0.82734 -0.48319,-0.650176 -0.556039,-1.116457 -0.556039,-3.571875 0,-2.513542 0.0998,-3.122264 0.907438,-5.532996 0.49908,-1.489672 0.82455,-2.79125 0.72347,-2.89233 -0.101056,-0.10107 -0.568983,0.176614 -1.039729,0.6165 -0.86623,0.809436 -2.415279,1.942001 -2.656169,1.942001 -0.07217,0 -0.268112,-0.571434 -0.435632,-1.26969 -0.876266,-3.652708 1.983865,-11.285718 5.819799,-15.531352 1.305856,-1.445326 3.830966,-5.160586 4.789372,-7.046598 0.43389,-0.85385 0.890005,-1.55236 1.013375,-1.55236 z m -5.814632,0.396875 c 0.14552,-0.08993 0.264583,0.02221 0.264583,0.24908 0,0.22687 -0.119063,0.412378 -0.264583,0.412378 -0.14552,0 -0.264583,-0.112141 -0.264583,-0.249081 0,-0.136916 0.119063,-0.322491 0.264583,-0.412377 z m 142.580959,1.490865 0.34572,1.503267 c 0.4139,1.801802 0.40571,9.242137 -0.007,10.019543 -0.15397,0.287725 -0.98761,0.900073 -1.8526,1.361158 -0.86487,0.460944 -1.64246,0.838708 -1.72754,0.838708 -0.14425,0 0.0107,-1.291346 0.24701,-2.059306 0.20084,-0.652776 -0.44073,-7.345971 -0.83871,-8.750887 -0.22083,-0.779616 -0.36436,-1.435158 -0.31936,-1.456758 0.045,-0.02165 0.99768,-0.358312 2.11719,-0.747758 z m -144.84232,0.987536 c 0.07409,-0.06304 0.149419,-0.06672 0.220142,0.0047 0.18726,0.18727 0.156036,0.415978 -0.09974,0.730188 -0.330456,0.40607 -0.319023,0.437453 0.103353,0.279053 0.45658,-0.17126 0.457264,-0.146447 0.0093,0.611849 -0.55712,0.943116 -0.781421,1.003403 -0.728121,0.195337 0.0595,-0.902409 0.272798,-1.63197 0.49506,-1.821078 z m 138.41119,1.093474 c 0.17436,0 0.583205,0.982276 0.907955,2.182812 0.518296,1.916242 0.573755,2.61901 0.454753,5.754688 -0.07455,1.964502 -0.222789,3.784634 -0.329179,4.044714 -0.22469,0.549286 -1.3843,1.075897 -3.923792,1.781803 -0.995546,0.27674 -2.055135,0.580828 -2.354895,0.675928 -0.452516,0.14363 -0.512223,0.08941 -0.350883,-0.320394 0.44722,-1.135816 0.559461,-3.067877 0.357601,-6.163965 -0.11793,-1.808892 -0.279001,-3.353232 -0.357601,-3.431832 -0.07864,-0.07864 -0.253757,0.03243 -0.389123,0.246497 -0.13538,0.21407 -0.248114,0.263904 -0.250114,0.111104 -0.0022,-0.1528 0.135761,-0.417411 0.306441,-0.588077 0.23734,-0.23737 0.234154,-0.47682 -0.01292,-1.01906 -0.17769,-0.389876 -0.227721,-0.798735 -0.111621,-0.908471 0.283186,-0.2677 5.651564,-2.365747 6.053377,-2.365747 z m -8.569503,3.118672 c 0.558407,-0.0185 0.630453,0.182418 0.745174,0.585494 0.87549,3.075818 1.014164,5.62274 0.496094,9.105904 l -0.295072,1.984375 -1.226282,0.403076 c -0.674436,0.22188 -2.178816,0.584353 -3.342948,0.805119 -3.093768,0.58672 -3.016769,0.607333 -2.710429,-0.722953 0.14242,-0.618446 0.355893,-1.317404 0.473873,-1.553394 0.123626,-0.247306 0.09519,-0.548687 -0.06718,-0.711067 -0.15494,-0.15493 -0.282153,-0.765697 -0.282153,-1.357023 0,-0.59134 -0.115075,-1.07487 -0.256315,-1.07487 -0.1413,0 -0.182086,-0.195402 -0.09043,-0.434082 0.10466,-0.27273 -0.03215,-0.5732 -0.368453,-0.808736 -0.561396,-0.39323 -0.774792,-1.317525 -0.225826,-0.978235 0.21431,0.13248 0.253824,0.03545 0.128674,-0.315226 -0.137346,-0.38488 -0.06118,-0.353819 0.317294,0.129191 l 0.49816,0.63562 -0.106453,-1.501717 c -0.0586,-0.8259 -0.210754,-1.775359 -0.337964,-2.109949 -0.22528,-0.59254 -0.14786,-0.627529 2.985348,-1.349789 2.061407,-0.475186 3.106498,-0.713235 3.664892,-0.731738 z m -69.773002,0.01189 c 0.175997,-0.0459 0.634977,0.09293 1.462443,0.393257 l 1.591118,0.577226 -0.157097,1.962671 c -0.16186,2.024332 -0.563133,4.44376 -0.614433,3.7052 -0.04896,-0.704666 -1.661053,-5.371183 -2.046903,-5.925219 -0.30418,-0.43679 -0.411125,-0.66724 -0.235128,-0.713135 z m 4.722193,1.42937 c 0.06732,-0.02548 0.183702,2.86e-4 0.355533,0.07441 0.63934,0.27598 3.993663,0.898272 4.914429,0.911572 0.705386,0.01018 0.727604,0.0554 0.727604,1.483631 0,1.244592 -0.412719,4.840684 -0.947229,8.250142 -0.12081,0.770616 -0.223016,0.856924 -0.982886,0.833024 -0.466326,-0.01466 -1.782453,-0.206324 -2.924369,-0.425814 l -2.075842,-0.398942 0.16123,-1.09554 c 0.08873,-0.60258 0.218888,-2.345723 0.289388,-3.873665 0.07046,-1.527956 0.207925,-3.313924 0.305925,-3.96875 0.09801,-0.65485 0.149388,-1.355868 0.113688,-1.557528 -0.02307,-0.130485 -0.0048,-0.207065 0.06253,-0.232544 z m 13.042614,0.430465 c 0.724338,-0.0265 1.190854,0.02637 1.404049,0.158129 0.443106,0.27386 0.32737,4.133109 -0.244946,8.162293 -0.28543,2.009372 -0.588128,3.765574 -0.672828,3.902604 -0.08469,0.13698 -0.414975,0.237542 -0.733805,0.223242 -0.762126,-0.03414 -5.571238,-0.776712 -5.669938,-0.875398 -0.04213,-0.04212 0.04974,-1.53096 0.204122,-3.308842 0.2857,-3.290248 0.201857,-4.293915 -0.349333,-4.185275 -0.16958,0.03343 -0.349042,-0.206651 -0.398942,-0.533817 -0.06705,-0.43945 0.08693,-0.662765 0.589111,-0.853695 0.54406,-0.20685 0.679546,-0.435994 0.679546,-1.14825 v -0.889868 l 2.242757,-0.33383 c 1.243862,-0.18506 2.225882,-0.290798 2.950207,-0.317293 z m 39.89989,0.03669 h 3.288172 l 0.445451,1.521354 c 0.356086,1.217016 0.417241,2.209426 0.306441,4.960938 -0.07617,1.891742 -0.269361,3.870554 -0.429431,4.397664 -0.27344,0.900426 -0.38274,0.976293 -1.809192,1.250053 -0.835026,0.16026 -2.335694,0.371855 -3.33468,0.470255 -1.702296,0.16774 -1.806755,0.147622 -1.666049,-0.323494 0.36516,-1.222516 0.472051,-1.956352 0.531751,-3.638538 0.03502,-0.987296 -0.03645,-1.857415 -0.159163,-1.933215 -0.12269,-0.07584 -0.08065,-0.309468 0.09353,-0.519348 0.24979,-0.30092 0.231382,-0.449543 -0.08682,-0.703833 -0.559066,-0.44687 -0.828617,-2.022439 -0.375687,-2.196249 0.26193,-0.100496 0.29779,-0.443548 0.14366,-1.379244 -0.11281,-0.684866 -0.211658,-1.393714 -0.220658,-1.575614 -0.01181,-0.24773 0.80987,-0.330729 3.272668,-0.330729 z m -141.822351,0.03979 c 0.292696,-0.02135 0.593395,0.151716 1.046965,0.508496 0.579866,0.456116 0.697115,0.76171 0.697115,1.816426 0,0.88221 -0.166767,1.480259 -0.548287,1.965255 -0.813716,1.034486 -1.568409,0.925129 -2.443779,-0.353983 -0.688896,-1.006666 -0.578662,-2.449577 0.250114,-3.278353 0.420545,-0.420545 0.705189,-0.63649 0.997872,-0.657841 z m 105.86589,0.280603 c 0.147988,-0.032 0.349678,-0.02332 0.624251,0.01602 0.366099,0.05245 0.861919,0.159117 1.53324,0.296106 0.991756,0.2024 2.358374,0.446386 3.037024,0.542086 l 1.234033,0.173633 0.09974,1.641243 c 0.10726,1.757396 -0.357118,6.572341 -0.853694,8.850623 l -0.302824,1.389063 -1.366842,-0.04082 c -0.751906,-0.02251 -2.29896,-0.161355 -3.437516,-0.307991 -1.919972,-0.24731 -2.058491,-0.306289 -1.909961,-0.818555 0.21338,-0.735876 0.662176,-4.795333 0.668176,-6.042525 0.0042,-0.883186 -0.06801,-0.992188 -0.656807,-0.992188 -0.3638,0 -0.661458,-0.124569 -0.661458,-0.276469 0,-0.15193 0.148829,-0.25666 0.330729,-0.23306 0.855796,0.111116 1.065804,-0.009 0.727604,-0.416512 -0.26975,-0.32507 -0.251886,-0.396875 0.09974,-0.396875 0.35198,0 0.429432,-0.30982 0.429432,-1.719792 0,-1.105113 -0.03882,-1.56797 0.405143,-1.663981 z m 30.49633,0.167431 0.273368,0.880567 c 0.15036,0.484226 0.361108,1.416365 0.468188,2.071191 0.40915,2.501972 -0.112511,8.535243 -0.797367,9.220109 h -0.001 c -0.236376,0.23639 -1.331997,0.408462 -3.210139,0.504362 -2.725112,0.13909 -2.842795,0.123339 -2.653069,-0.357601 0.1092,-0.276776 0.264082,-0.92004 0.344682,-1.42937 0.08057,-0.509306 0.263544,-1.074871 0.406694,-1.256771 0.17129,-0.217236 0.171586,-0.330729 -0.0016,-0.330729 -0.159196,0 -0.218811,-0.714079 -0.151411,-1.810225 l 0.111104,-1.810742 -0.807186,0.04806 c -0.770106,0.04581 -0.807186,5.23e-4 -0.807186,-0.983403 0,-0.631256 0.104668,-0.966773 0.269234,-0.865063 0.14787,0.09141 0.205141,0.268881 0.127641,0.394291 -0.07751,0.12541 -0.01974,0.302891 0.128158,0.394291 0.15648,0.09671 0.276521,-0.144736 0.287321,-0.577226 0.01636,-0.653726 0.04597,-0.6794 0.245979,-0.21394 0.34197,0.794856 0.334908,-1.766311 -0.0067,-2.665471 -0.14954,-0.393446 -0.238938,-0.743747 -0.198438,-0.778247 0.04045,-0.03449 1.400469,-0.14592 3.022555,-0.248046 z m 20.292818,0.08837 c 0.103161,0.06105 0.134875,0.307316 0.134875,0.762227 0,0.44515 -0.108759,0.742208 -0.241845,0.659908 -0.13309,-0.08225 -0.293134,1.25e-4 -0.355534,0.182935 -0.0646,0.18925 -0.196178,0.07537 -0.305408,-0.264067 -0.12605,-0.391706 -0.05561,-0.731927 0.204639,-0.992187 0.285791,-0.285805 0.460112,-0.409861 0.563273,-0.348816 z M 57.93081,22.931032 h 3.295406 3.295923 l 0.141077,0.727604 c 0.07785,0.40018 0.258832,1.235165 0.402042,1.855701 0.37902,1.642422 0.319693,4.217433 -0.161747,7.007841 -0.23225,1.346116 -0.477283,2.536693 -0.544669,2.645833 -0.06738,0.10914 -1.617906,0.198438 -3.445268,0.198438 -3.320488,0 -3.322272,-3.63e-4 -3.149162,-0.595313 0.26958,-0.926516 0.716577,-5.811905 0.567407,-6.200655 -0.07337,-0.19119 -0.434682,-0.347782 -0.803052,-0.347782 -0.569316,0 -0.669726,-0.120252 -0.669726,-0.802018 0,-0.85376 0.691145,-1.379654 1.050065,-0.798918 0.25366,0.41042 0.566768,-0.690641 0.412378,-1.450041 -0.05828,-0.286646 -0.170164,-0.907854 -0.248564,-1.380794 z m -1.88929,0.187586 c 0.05977,0.0405 0.233099,1.220096 0.384989,2.621028 0.227,2.093742 0.19545,3.103771 -0.17725,5.674589 -0.24938,1.720186 -0.5269,3.318728 -0.6165,3.552238 -0.13622,0.35494 -0.580193,0.414753 -2.709395,0.365353 -3.843804,-0.08924 -3.671953,0.03171 -3.226677,-2.267562 0.13525,-0.69839 0.314956,-2.132913 0.398942,-3.187919 l 0.152446,-1.918229 H 49.49825 c -0.682566,0 -0.739096,-0.07114 -0.633036,-0.79375 0.104956,-0.71518 0.850077,-1.179017 0.850077,-0.529167 0,0.14552 0.09293,0.264583 0.206706,0.264583 0.242856,0 0.412948,-1.011114 0.429948,-2.557466 l 0.0124,-1.102259 2.784326,-0.09767 c 1.531446,-0.0536 2.833047,-0.06427 2.892847,-0.02377 z m -24.03781,1.929081 c -0.154096,0 -0.280086,0.119063 -0.280086,0.264583 0,0.14553 0.05259,0.264584 0.116789,0.264584 0.06417,0 0.190186,-0.119054 0.280086,-0.264584 0.08993,-0.14552 0.03732,-0.264583 -0.116789,-0.264583 z m 41.892534,0.79375 c 0.0572,0 0.172515,0.178585 0.256315,0.396875 0.08377,0.21828 0.03708,0.396875 -0.10387,0.396875 -0.14095,0 -0.256315,-0.178595 -0.256315,-0.396875 0,-0.21829 0.04667,-0.396875 0.10387,-0.396875 z m -24.632605,1.157552 c -0.04795,0.02115 -0.07751,0.07281 -0.07751,0.149862 0,0.154096 0.119064,0.280086 0.264584,0.280086 0.145516,0 0.264583,-0.05259 0.264583,-0.116789 0,-0.06417 -0.119067,-0.190186 -0.264583,-0.280086 -0.07276,-0.04497 -0.139114,-0.05422 -0.187069,-0.03307 z m 17.197917,3.704167 c 0.04796,-0.02115 0.114308,-0.01188 0.187068,0.03307 0.14552,0.08994 0.264584,0.215886 0.264584,0.280086 0,0.06418 -0.119064,0.116789 -0.264584,0.116789 -0.14552,0 -0.264583,-0.125977 -0.264583,-0.280087 0,-0.07704 0.02956,-0.128714 0.07752,-0.149861 z m 37.927404,0.775663 c 0.4376,0.437586 -0.97473,10.834396 -2.31562,17.048572 -0.67756,3.139714 -2.553577,8.467193 -4.170293,11.842171 -4.66625,9.74105 -12.971183,17.831459 -19.817395,19.305281 l -0.866614,0.186552 1.334803,-1.763716 c 1.726812,-2.281442 2.382283,-3.591191 2.382283,-4.761467 0,-0.738136 -0.130376,-0.993497 -0.595312,-1.166337 -0.840356,-0.31238 -1.093715,-0.157257 -2.262911,1.385445 -2.507652,3.308738 -6.298537,6.26014 -9.375655,7.299296 -0.894936,0.30223 -1.728867,0.549321 -1.853117,0.549321 -0.12426,0 0.147084,-0.542355 0.603064,-1.205095 1.114526,-1.619902 1.368662,-2.566811 0.876432,-3.269567 -0.590076,-0.84247 -1.057786,-0.684493 -2.863908,0.968933 -3.473324,3.179654 -7.02275,4.664664 -11.134204,4.659664 -2.881158,-0.0037 -4.238706,-0.532074 -4.931482,-1.91978 -0.740486,-1.483282 -0.862618,-1.502749 -2.243274,-0.353983 -2.590818,2.155668 -5.547525,3.051224 -8.238257,2.495454 -2.104442,-0.434656 -2.07911,-0.441981 -2.258776,0.674895 -0.21454,1.333572 -0.783493,2.077748 -2.108399,2.758488 -0.864186,0.444016 -1.68724,0.588107 -3.752742,0.656807 -4.091424,0.13618 -6.480493,-0.713169 -9.140011,-3.249931 -1.569902,-1.497432 -2.142597,-1.68381 -3.104203,-1.010274 -0.32342,0.22657 -0.588078,0.346767 -0.588078,0.267167 0,-0.07959 -0.239834,0.06025 -0.532784,0.311092 -1.611516,1.379816 -6.216573,1.827958 -8.8108318,0.857312 C 6.7833304,83.357325 5.3316045,82.07706 4.8803015,80.745074 4.6714743,80.128748 4.1538095,79.412899 3.6369665,79.025283 3.0282749,78.568773 2.8741808,78.516378 3.1434566,78.858368 c 0.3714344,0.471706 0.3440621,0.487899 -0.5291667,0.313159 -1.98583187,-0.39738 -4.3319043,-1.796452 -6.3024577,-3.758944 -1.0682146,-1.063846 -1.8914275,-2.086049 -1.8288289,-2.271179 0.07414,-0.21939 0.6357987,-0.336413 1.6123047,-0.336413 0.8240188,0 1.497843,-0.08709 1.497583,-0.19327 -2.7e-4,-0.10618 0.4699245,-0.432738 1.0448975,-0.726054 0.75384893,-0.38459 1.18767252,-0.855653 1.55597734,-1.688269 l 0.51107991,-1.154452 1.28777665,0.211357 c 3.2757452,0.538166 5.4681608,0.182968 8.2925176,-1.344104 4.287,-2.317932 8.532893,-8.096753 10.789005,-14.684375 1.348236,-3.936684 2.348264,-10.229863 2.490804,-15.676563 0.03142,-1.200512 0.09294,-2.182812 0.136943,-2.182812 0.044,0 2.537922,0.417919 5.54178,0.928625 9.75267,1.658156 25.905507,2.76046 34.891411,2.38125 10.417766,-0.439616 21.466638,-1.933815 29.36875,-3.971333 2.965598,-0.76469 8.211857,-2.376639 9.726017,-2.988449 0.54719,-0.221106 1.06891,-0.327911 1.15911,-0.237711 z m 29.39097,2.393652 c -0.001,0.0412 -0.005,0.08045 -0.008,0.120406 0.17476,-0.01392 0.3432,-0.04023 0.27388,-0.109554 -0.046,-0.04606 -0.16811,-0.009 -0.26562,-0.01085 z M -42.923499,50.213088 c 0.01617,0.0085 -0.0081,0.104587 -0.06615,0.291972 -0.07739,0.249986 -0.01882,0.530084 0.130225,0.622184 0.14904,0.09211 0.236603,0.569641 0.194303,1.060917 -0.04233,0.49129 0.04658,1.017064 0.197921,1.168404 0.19051,0.1905 0.25544,-0.100222 0.21084,-0.944128 -0.05198,-0.984586 -0.0043,-1.138755 0.247013,-0.803569 0.17116,0.22826 0.549219,0.596248 0.840259,0.818038 0.37003,0.28198 0.398048,0.357761 0.09302,0.252181 -0.239936,-0.08304 -0.506425,-0.0371 -0.592211,0.101803 -0.08584,0.1389 0.0806,0.314457 0.370003,0.390157 0.28941,0.07568 0.526066,0.323531 0.526066,0.550871 0,0.272736 -0.157511,0.36377 -0.463021,0.267684 -0.25466,-0.08007 -0.163001,0.05363 0.203605,0.297139 0.36663,0.2435 0.806578,0.739632 0.977718,1.102258 0.34807,0.73756 0.247109,3.911481 -0.236161,7.417635 -0.33978,2.465142 -0.115972,3.073678 1.080554,2.934188 0.956346,-0.11149 1.404358,-1.210001 1.594218,-3.911389 l 0.15813,-2.253609 2.011247,2.039152 c 1.960872,1.988122 2.346627,2.695965 2.346627,4.307747 0,0.50421 -0.18258,0.617477 -1.227316,0.760677 -3.350184,0.4592 -6.996579,-0.336067 -9.127091,-1.991093 l -0.961699,-0.747241 0.391708,-1.126546 c 0.27342,-0.786056 0.433967,-2.764424 0.532267,-6.549988 0.07747,-2.983128 0.253781,-5.602553 0.391707,-5.820833 0.103385,-0.163595 0.160045,-0.243089 0.176217,-0.234611 z m 0.906405,1.92133 c -0.04796,0.02115 -0.07803,0.07281 -0.07803,0.149861 0,0.15411 0.119064,0.280087 0.264584,0.280087 0.145506,0 0.264583,-0.05259 0.264583,-0.116789 0,-0.06417 -0.119077,-0.1902 -0.264583,-0.280086 -0.07276,-0.04497 -0.138597,-0.05422 -0.186552,-0.03307 z m 155.758454,4.877738 -0.17157,0.884701 c -0.24448,1.260192 -1.29086,3.394693 -2.21175,4.511869 -0.43319,0.525516 -1.40677,1.264317 -2.16318,1.641243 -1.93727,0.965436 -3.49297,0.874762 -4.64467,-0.270784 -0.50848,-0.50578 -0.3939,-0.896204 0.26458,-0.900204 1.2545,-0.0084 5.0029,-1.759741 4.47053,-2.088761 -0.19164,-0.11844 0.0201,-0.344898 0.56689,-0.605648 0.48018,-0.22898 1.55185,-1.036186 2.38125,-1.794206 z m -5.60276,4.102592 c 0.191,-0.0764 0.41904,-0.06723 0.50694,0.02067 0.0879,0.08787 -0.0683,0.150509 -0.34726,0.139009 -0.30822,-0.0127 -0.37074,-0.07518 -0.15968,-0.15968 z m -0.34727,0.115755 -0.52916,0.395325 c -0.6918,0.517196 -1.97984,0.751991 -2.64584,0.482141 -0.40219,-0.16296 -0.21172,-0.24326 0.79375,-0.334346 0.7276,-0.06591 1.56105,-0.21478 1.85209,-0.331246 z M 8.8345821,63.223146 c 0.083555,0.01288 0.1348755,0.05681 0.1348755,0.129708 0,0.14411 -0.2083637,0.336014 -0.4630209,0.425814 -0.2546658,0.08983 -0.6008948,0.228625 -0.769462,0.309025 -0.1685586,0.08035 -0.3754217,0.03433 -0.4599203,-0.102319 -0.08446,-0.13666 0.053421,-0.308069 0.3064413,-0.380855 0.2530258,-0.07279 0.6682752,-0.218138 0.922941,-0.322978 0.1287986,-0.05303 0.2445918,-0.07128 0.3281454,-0.05839 z m -25.4904341,0.203606 c 0.0243,-0.02201 0.146182,0.07973 0.385507,0.286287 0.752276,0.649286 2.96379,1.702553 4.584216,2.183329 2.8903062,0.857546 6.2960077,0.296661 7.9767739,-1.313615 l 0.7312215,-0.700732 0.1824178,1.21698 c 0.2337972,1.559062 0.023241,2.3607 -0.8743652,3.330546 -0.7212002,0.779236 -1.9975452,1.151264 -3.1031698,0.904338 -2.1409992,-0.47821 -3.124891,-0.816689 -4.6302082,-1.593185 -2.039242,-1.051926 -4.609922,-3.015673 -5.052922,-3.859713 -0.150571,-0.286896 -0.223776,-0.432228 -0.199471,-0.454235 z m 23.5380985,0.721403 c 0.2881245,0.05743 0.4997111,0.19 0.4997111,0.371036 0,0.1384 -0.22816,0.179464 -0.5069458,0.09095 -0.2787972,-0.08848 -0.5833627,-0.03723 -0.6769613,0.114205 -0.09359,0.15147 -0.4905223,0.26358 -0.8821167,0.24908 l -0.7121012,-0.02635 0.6614583,-0.211873 c 0.3637744,-0.11651 0.5423936,-0.232132 0.396875,-0.256832 -0.1455286,-0.02473 -0.028261,-0.137354 0.2604492,-0.250114 0.3069208,-0.119875 0.6715068,-0.137504 0.9596314,-0.0801 z m -27.0810345,7.158219 c 6.498926,-0.08159 8.257095,0.04651 8.264095,0.602547 0.0027,0.21339 -2.990027,1.552824 -4.459159,1.995744 -1.753862,0.528756 -5.005965,0.661062 -6.388241,0.259932 -1.522352,-0.441776 -2.052006,-0.730771 -3.397208,-1.854667 l -1.095024,-0.914673 z m 20.04012057,1.639176 c -0.14551804,0 -0.44317141,0.115246 -0.66145833,0.256316 -0.21828714,0.141046 -0.27781024,0.256315 -0.13229167,0.256315 0.1455179,0 0.44318141,-0.115269 0.66145833,-0.256315 0.21828692,-0.14107 0.27780957,-0.256316 0.13229167,-0.256316 z m -9.35601807,0.497644 c 0.2088084,-0.06885 0.2523188,0.08443 0.3302124,0.394808 0.0867,0.34541 0.9904402,1.519914 2.0081462,2.60966 l 1.850533,1.981275 -0.8232056,0.164331 c -1.3334704,0.266686 -5.0129345,0.146089 -6.4936605,-0.212907 -1.253756,-0.30398 -2.729549,-1.034419 -2.729549,-1.351339 0,-0.07124 0.684618,-0.432392 1.521354,-0.802018 0.836726,-0.36964 2.193794,-1.199456 3.01532,-1.844332 0.738186,-0.579446 1.1120411,-0.870626 1.3208495,-0.939478 z m 7.3716431,0.552422 c -0.013657,0.01366 0.066439,0.120909 0.2309936,0.330729 0.3456458,0.440716 0.5627564,0.581045 0.5627564,0.363285 0,-0.05494 -0.2083637,-0.263301 -0.4630209,-0.463021 -0.2098222,-0.16455 -0.3170716,-0.244651 -0.3307291,-0.230993 z m 3.7940836,2.301668 c -0.2588258,0.09933 -0.2613262,0.205976 -0.011886,0.489892 0.4156644,0.47314 0.4245372,0.470438 0.3803386,-0.116788 -0.02129,-0.28259 -0.181431,-0.444904 -0.368453,-0.373104 z m -1.01595863,0.476457 0.64130453,0.727604 c 0.3527744,0.400176 0.6802042,0.727604 0.7276042,0.727604 0.2075072,0 0.038732,-0.214398 -0.6413046,-0.813904 z m 7.61245523,2.542997 c -0.022314,0.02231 0.00572,0.124102 0.077515,0.312642 0.09936,0.26092 0.2471621,0.407578 0.3286621,0.326078 0.08146,-0.08146 4.664e-4,-0.294919 -0.1803508,-0.474389 -0.1306486,-0.12968 -0.2035084,-0.186644 -0.225826,-0.164331 z m 1.3286011,0.334346 c -0.047958,0.02115 -0.077515,0.07281 -0.077515,0.149862 0,0.15411 0.1190648,0.280086 0.2645834,0.280086 0.1455172,0 0.2645834,-0.05259 0.2645834,-0.116789 0,-0.06417 -0.1190662,-0.190186 -0.2645834,-0.280086 -0.07276,-0.04497 -0.1391126,-0.05422 -0.1870687,-0.03307 z m 74.2760861,2.752804 2.005046,0.881083 c 1.174116,0.515976 2.319799,1.23907 2.763655,1.744596 1.510476,1.720336 1.673124,4.160074 0.359668,5.393986 -0.579866,0.54479 -0.935649,0.636386 -2.443261,0.628386 -2.035132,-0.01043 -3.682336,-0.651286 -4.964038,-1.932182 l -0.818038,-0.818038 -0.02015,1.115177 c -0.02818,1.586786 -0.450001,2.491313 -1.445907,3.098519 -1.476902,0.900466 -2.855744,0.706732 -6.290572,-0.88315 -7.336858,-3.396038 -9.789583,-4.76998 -9.789583,-5.483386 0,-0.15329 0.09296,-0.220895 0.206189,-0.150895 0.485086,0.299786 4.833941,-0.476123 6.791833,-1.211813 2.321162,-0.872176 2.60169,-0.90455 5.226038,-0.60203 2.074202,0.2391 4.286795,-0.125895 6.756693,-1.114661 z m -63.818327,4.892208 c 0.230857,0.05519 0.468262,0.23605 0.879533,0.58291 1.432396,1.208026 4.81729,2.708218 6.904488,3.060278 2.309952,0.38963 5.244764,0.182209 7.032646,-0.497127 l 1.30483,-0.495577 1.069702,0.689363 c 0.5883,0.37931 1.317613,1.12297 1.620573,1.652096 0.62154,1.085546 0.723554,2.921748 0.216524,3.904154 -0.455386,0.88237 -1.957729,1.615923 -3.309875,1.615923 -1.915532,0 -4.719031,-1.688773 -5.575887,-3.358969 l -0.487309,-0.949812 -0.168982,1.232999 c -0.20583,1.501686 -0.784644,2.676457 -1.572514,3.192053 -1.532592,1.003006 -3.429664,0.711694 -6.167582,-0.946712 -3.184658,-1.928992 -8.841837,-6.874491 -8.841837,-7.729761 0,-0.09419 0.352911,-0.171048 0.783931,-0.171048 0.730116,0 3.559849,-0.831962 5.471501,-1.608688 0.385066,-0.156465 0.609415,-0.227276 0.840258,-0.172082 z" /></g></svg>
