<?xml version="1.0" encoding="UTF-8" standalone="no"?>
<!-- Created with Inkscape (http://www.inkscape.org/) -->

<svg
   width="221.2471mm"
   height="219.97473mm"
   viewBox="0 0 221.24717 219.9747"
   version="1.1"
   id="svg1"
   xml:space="preserve"
   xmlns="http://www.w3.org/2000/svg"
   xmlns:svg="http://www.w3.org/2000/svg"><defs
     id="defs1" /><g
     id="layer1"
     transform="translate(43.666223,-30.286746)"><path
       id="path7"
       style="fill:#000000"
       d="m 65.028434,30.286746 c -2.796433,0.01036 -3.541179,0.105198 -4.822444,0.612366 -2.42713,0.960737 -3.064901,2.189394 -2.141472,4.125846 0.244367,0.512433 0.385208,0.990418 0.31316,1.062468 -0.128169,0.128166 -0.433925,0.176464 -3.40341,0.5333 -5.512671,0.662446 -12.874607,3.084887 -19.244304,6.332947 -3.777059,1.926012 -8.178309,4.762285 -8.067208,5.198649 0.03999,0.157048 -0.03454,0.219156 -0.165881,0.137976 -0.356433,-0.220288 -2.726281,1.679083 -2.517159,2.017448 0.112529,0.18207 0.05468,0.213124 -0.155546,0.0832 -0.411597,-0.254381 -5.884682,5.107475 -5.644617,5.529895 0.08849,0.1557 0.06122,0.192634 -0.06046,0.08217 -0.121676,-0.110471 -0.497908,0.05898 -0.836125,0.376721 -0.634978,0.596531 -0.849654,1.191121 -0.309542,0.857312 0.19078,-0.117905 0.233776,-0.07255 0.114205,0.120923 -0.1053,0.170383 -0.285473,0.251439 -0.400492,0.180351 -0.115018,-0.07109 -0.535869,0.237469 -0.934827,0.685229 -0.624744,0.701169 -0.840477,0.787463 -1.558044,0.624251 -8.0720792,-1.836007 -19.477549,0.359119 -30.996041,5.965528 -3.36927,1.639927 -4.703547,2.46824 -4.441073,2.756421 0.114404,0.125608 0.05841,0.142214 -0.124023,0.03721 -0.42036,-0.241959 -3.556474,1.924966 -3.325895,2.298051 0.09775,0.158168 0.03719,0.190571 -0.145728,0.07751 -0.375555,-0.232107 -4.907248,3.620715 -6.647656,5.651852 -0.654841,0.764231 -1.461627,1.640595 -1.793172,1.947684 -0.331545,0.307092 -0.54134,0.718662 -0.466122,0.914673 0.07522,0.196011 0.02833,0.289439 -0.103869,0.207739 -0.324893,-0.200793 -1.377901,1.170524 -1.16427,1.516187 0.09326,0.150897 0.04395,0.196476 -0.110071,0.101286 -0.302281,-0.18682 -2.359534,2.868097 -4.035929,5.993432 -3.582516,6.678953 -5.950717,17.360943 -5.436878,24.525123 0.838755,11.69422 3.782572,19.62927 10.276892,27.70218 1.863942,2.31702 5.914689,5.98888 6.326229,5.73453 0.172398,-0.10654 0.218883,-0.0608 0.112655,0.11111 -0.210775,0.34104 0.722715,0.91993 1.032495,0.64027 0.11523,-0.10399 0.13885,-0.0651 0.05271,0.0868 -0.201333,0.35504 3.393053,2.5455 6.07043,3.69951 4.259295,1.83587 9.614118,2.88796 13.1175459,2.57659 0.9639499,-0.0857 1.5213542,-0.0344 1.5213542,0.14004 0,0.15141 -0.1337543,0.31964 -0.2971395,0.37414 -0.1858467,0.062 -0.3470227,1.23783 -0.4309815,3.14038 -0.1191928,2.70094 -0.05344,3.36259 0.5865275,5.9185 l 0.7203695,2.87786 -0.5214152,0.94929 c -1.0999723,2.00396 -1.4269983,3.5962 -1.3782105,6.70761 0.05063,3.22884 -0.018533,4.18497 -0.291455,4.01629 -0.1875608,-0.11591 -1.6297199,2.74615 -2.2742798,4.51342 -1.7925606,4.91487 -2.2032026,7.63694 -2.2546426,14.94896 -0.03559,5.05829 0.03864,6.5384 0.398942,7.9375 0.575527,2.23485 0.574808,2.2406 -0.276986,2.62102 -1.284325,0.57359 -2.707952,1.66915 -2.534212,1.95027 0.09292,0.1503 0.04098,0.19388 -0.116272,0.0966 -0.394868,-0.24404 -2.026109,1.81496 -2.831868,3.57497 -0.367487,0.8027 -0.743665,2.18343 -0.836125,3.06803 l -0.167949,1.60817 -1.948718,0.71055 c -1.071533,0.39081 -1.900108,0.78814 -1.841748,0.88264 0.05836,0.0945 -0.1733,0.18879 -0.514697,0.20929 -1.24517,0.0746 -2.124007,1.03228 -2.900598,3.16156 -0.885841,2.42883 -0.770112,3.00318 0.856278,4.24367 0.855391,0.65243 1.577668,0.92602 3.089734,1.16995 l 1.973523,0.31833 -0.543636,0.73484 c -0.316363,0.4279 -0.457951,0.8731 -0.338997,1.06557 0.12881,0.20839 0.09628,0.26418 -0.08785,0.15038 -0.456601,-0.2822 -0.694372,1.59513 -0.3483,2.75022 0.541874,1.80859 2.444766,2.90018 5.062224,2.90318 1.262682,0.002 4.978834,-0.91855 5.4053546,-1.33842 0.3927487,-0.38663 0.9389608,-0.29079 0.9389608,0.16485 0,0.22689 0.1018437,0.34933 0.2263428,0.27233 0.1244989,-0.0769 0.1731365,0.13936 0.1080037,0.48008 -0.065133,0.34072 0.060369,0.96193 0.2790527,1.38079 0.4602418,0.88152 1.8018183,2.22059 2.3311239,2.32699 0.1995878,0.0401 0.7199569,0.22225 1.1565186,0.40463 0.9491801,0.39654 4.469434,0.21255 5.04310298,-0.26355 0.20953564,-0.17374 0.38085531,-0.24859 0.38085531,-0.16589 0,0.0827 0.67340521,-0.0811 1.49654951,-0.36431 0.8231441,-0.28321 1.5361348,-0.5147 1.5838826,-0.5147 0.047748,0 0.01354,0.69632 -0.075448,1.54771 -0.2096898,2.00621 0.198252,3.20419 1.4872477,4.36872 1.8500751,1.67144 4.2033831,1.55264 6.3934084,-0.32194 0.575258,-0.49241 1.099143,-0.84233 1.163753,-0.77773 0.06461,0.0646 0.279237,0.58485 0.476974,1.156 0.197734,0.57115 0.486173,1.0387 0.641304,1.0387 0.15513,0 0.381545,0.10834 0.502812,0.24081 0.128102,0.1399 0.08156,0.16126 -0.110588,0.0506 -0.679929,-0.39128 -0.300131,0.46864 0.568958,1.2883 1.72209,1.62413 3.343407,2.06746 4.996077,1.36632 0.957892,-0.40639 2.361825,-1.86565 2.088245,-2.17041 -0.09831,-0.1095 -0.03499,-0.11679 0.14056,-0.016 0.175573,0.10076 0.257301,0.34403 0.181901,0.54054 -0.179577,0.46797 2.144452,2.38468 2.571419,2.1208 0.183908,-0.11366 0.247132,-0.0836 0.151412,0.0713 -0.233408,0.37766 0.986481,0.8733 2.146122,0.8723 0.538856,-5.5e-4 1.369631,-0.2388 1.845882,-0.52917 l 0.866097,-0.52761 0.985987,0.64233 c 3.964899,2.58269 8.114821,-0.71897 6.44095,-5.12423 -0.360687,-0.94926 -0.459083,-1.53931 -0.290421,-1.74253 0.14026,-0.16901 0.16679,-0.4044 0.05891,-0.52348 -0.107878,-0.11908 -0.03766,-0.12493 0.156063,-0.0129 0.222954,0.12889 0.638782,-0.0714 1.133264,-0.54519 0.627044,-0.60075 0.871493,-0.69181 1.238684,-0.4625 0.714465,0.44619 4.94235,1.58209 7.858952,2.1115 2.816603,0.51125 12.59584,0.70554 14.882812,0.29559 l 1.124479,-0.20154 v 0.87333 c 0,1.30518 0.729779,3.85599 1.353923,4.73253 0.471542,0.66222 0.612121,0.72346 0.98702,0.43046 0.384399,-0.30042 0.396483,-0.28941 0.09767,0.093 -0.281446,0.36024 -0.265265,0.50988 0.09405,0.8692 0.238638,0.23865 0.629353,0.37309 0.868681,0.29869 0.239327,-0.0744 0.61371,-0.0112 0.831991,0.14056 0.304782,0.21185 0.243389,0.23808 -0.264584,0.11265 -0.636333,-0.15712 -0.641878,-0.14797 -0.147794,0.24701 0.578552,0.46251 2.4114,0.5428 3.442167,0.1509 0.964325,-0.36664 2.261877,-1.76923 2.261877,-2.44481 0,-0.55893 0.01356,-0.55714 0.727605,0.0992 1.35563,1.24617 2.681254,1.87239 4.006473,1.89239 2.466036,0.0372 3.961539,-1.51781 4.239018,-4.40749 l 0.155029,-1.61643 1.03818,1.45004 c 1.445843,2.0205 2.304788,2.91476 2.615344,2.72283 0.14573,-0.0901 0.186592,-0.0369 0.09095,0.11782 -0.318789,0.51581 2.420421,2.41103 4.325317,2.99258 2.155187,0.65795 4.735172,-0.11738 6.025989,-1.81022 0.627818,-0.82337 0.722545,-1.19281 0.733805,-2.87425 0.0071,-1.06117 0.115448,-2.02266 0.240812,-2.13682 0.12536,-0.11416 0.143582,-0.061 0.04082,0.11783 -0.467699,0.81374 2.355078,3.27009 4.367178,3.80028 0.87798,0.23134 1.43201,0.23042 2.28668,-0.003 1.3204,-0.36092 3.06566,-1.78012 2.85719,-2.32337 -0.0785,-0.20487 -0.0252,-0.29881 0.11885,-0.20981 0.14385,0.0889 0.262,0.0358 0.262,-0.11834 0,-0.36886 0.97601,-0.36287 1.20458,0.007 0.0978,0.15797 0.40266,0.22899 0.67748,0.15709 0.27483,-0.0718 0.44022,-0.0341 0.36742,0.0837 -0.21739,0.35173 1.43237,0.79478 2.95951,0.79478 3.14247,0 5.37435,-2.13908 5.37435,-5.1511 0,-1.22338 0.23119,-1.47931 0.76067,-0.8413 0.49096,0.59158 3.99108,2.08788 4.54495,1.94304 0.28358,-0.0741 0.44902,-0.027 0.36742,0.1049 -0.2472,0.39998 2.61489,0.26881 3.93309,-0.18035 1.4448,-0.49229 2.43547,-1.55791 2.83807,-3.05304 0.22787,-0.8462 0.3809,-1.03146 0.73484,-0.88936 3.05432,1.22631 4.98349,1.16673 6.78666,-0.21032 0.46356,-0.35401 0.47774,-0.44934 0.1323,-0.88832 -0.35139,-0.44657 -0.34613,-0.45981 0.0543,-0.14676 0.37641,0.29433 0.4658,0.26539 0.61236,-0.19637 0.0944,-0.2974 0.086,-0.67922 -0.0186,-0.84853 -0.11839,-0.19154 -0.0749,-0.23634 0.11524,-0.11885 0.19196,0.11864 0.3054,-0.008 0.3054,-0.34003 0,-0.51475 0.0505,-0.5105 1.91823,0.14986 2.32709,0.82277 5.11975,1.08353 6.54896,0.61185 1.60244,-0.52885 2.69523,-1.82936 2.84479,-3.38584 0.0697,-0.72543 -0.009,-1.55008 -0.17881,-1.86707 -0.16708,-0.31226 -0.2699,-0.56753 -0.2284,-0.56741 0.0415,1.2e-4 0.96842,0.18746 2.05982,0.41651 1.29848,0.27254 2.48736,0.35568 3.43958,0.2403 1.6551,-0.20055 3.52209,-1.11768 3.32435,-1.63298 -0.0719,-0.18726 0.014,-0.3121 0.19068,-0.2775 0.18228,0.0357 0.42756,-0.4154 0.56689,-1.04335 0.21563,-0.97189 0.37896,-1.15792 1.34411,-1.52652 1.25721,-0.48013 2.33313,-1.37876 2.10064,-1.75493 -0.0868,-0.14047 -0.0134,-0.22293 0.16278,-0.18293 0.44003,0.0999 0.8143,-1.34742 0.50023,-1.93425 -0.37665,-0.70378 -0.31024,-0.98172 0.27957,-1.16892 1.2034,-0.38194 1.67202,-2.61694 0.89297,-4.25866 -0.39268,-0.82746 -0.66037,-1.02621 -1.24592,-0.92449 -0.12,0.0208 -0.14406,-0.0826 -0.0532,-0.22944 0.22459,-0.36341 -1.1504,-1.16086 -3.69434,-2.14302 -1.16613,-0.45023 -2.27641,-0.89884 -2.46755,-0.99684 -0.19115,-0.098 -0.6939,-1.00001 -1.11725,-2.00505 -0.81496,-1.93474 -1.74322,-3.16005 -2.18643,-2.88613 -0.1468,0.0908 -0.18802,0.037 -0.0915,-0.11937 0.23426,-0.37905 -0.90331,-1.24652 -2.36989,-1.80661 -1.06628,-0.40723 -1.17243,-0.52356 -1.03921,-1.1405 0.60482,-2.80024 0.60812,-12.54859 0.005,-13.52475 -0.28383,-0.45925 -0.61323,-2.05048 -0.91622,-4.42402 -0.35439,-2.77624 -1.70652,-6.54726 -3.88556,-10.83655 l -1.90841,-3.75636 0.20981,-2.08411 c 0.11557,-1.14607 0.12032,-2.72956 0.0103,-3.51916 -0.18736,-1.34559 -1.02432,-3.89455 -1.54616,-4.70824 -0.14695,-0.22913 -0.0272,-0.90956 0.32608,-1.85209 0.45937,-1.22574 0.5593,-2.08813 0.5643,-4.86327 l 0.006,-3.37292 1.19062,-0.005 c 3.13566,-0.0144 7.76377,-1.14745 11.24479,-2.7528 2.64084,-1.21787 6.55231,-3.79431 6.32313,-4.16512 -0.11754,-0.19013 -0.0693,-0.22999 0.12971,-0.10697 0.69354,0.42863 7.6216,-6.6508 7.31015,-7.46983 -0.072,-0.18985 -0.0189,-0.27518 0.11782,-0.19068 0.48802,0.30161 3.58231,-5.21079 4.97179,-8.85734 0.9665,-2.53649 2.12542,-6.68499 2.62413,-9.39271 0.53769,-2.91938 0.62003,-11.68088 0.13901,-14.79497 -1.97108,-12.760654 -8.59064,-25.165039 -17.5147,-32.820731 -10.70357,-9.182296 -25.99792,-14.330315 -36.90937,-12.423531 -0.7413,0.129543 -0.89653,-0.0037 -2.34973,-2.021065 -1.95921,-2.719731 -5.99668,-6.940778 -8.75915,-9.157064 -9.2167,-7.394306 -20.620329,-11.9178 -31.264761,-12.401827 -2.555453,-0.116202 -2.87576,-0.19121 -3.939295,-0.922941 -1.70085,-1.170216 -4.945669,-2.674217 -5.479769,-2.539897 -0.254864,0.0641 -0.406217,0.02334 -0.335897,-0.09043 0.297118,-0.480745 -2.496116,-0.934234 -5.683374,-0.922424 z m 0.358118,3.56309 c 2.209698,-0.0031 2.975499,0.119632 5.027083,0.805636 3.275776,1.095342 5.492462,2.438726 8.243425,4.994527 1.114081,1.035043 1.717208,1.120511 1.717208,0.243913 0,-0.294547 0.120374,-0.448264 0.275435,-0.352434 0.17993,0.111204 0.212737,-0.07799 0.09508,-0.546736 l -0.179834,-0.716753 1.823144,0.162781 c 3.131305,0.279676 8.378245,1.619149 12.754777,3.256132 0.919397,0.343889 1.800943,0.545238 1.959054,0.447518 0.158109,-0.09771 0.217258,-0.06371 0.131258,0.07545 -0.086,0.139154 1.175583,0.930855 2.803443,1.759582 3.7313,1.899556 5.79124,3.210359 9.22683,5.869926 1.50068,1.161709 2.82663,2.081333 2.94659,2.043803 0.1199,-0.03753 0.14852,0.04443 0.0636,0.181901 -0.085,0.137474 0.11458,0.471345 0.44339,0.742074 1.32156,1.08813 5.32913,5.702695 5.88801,6.779948 0.34279,0.660713 0.31419,0.70614 -0.88005,1.391646 -1.5595,0.895171 -2.72008,1.963646 -2.50734,2.307869 0.0903,0.1461 0.0315,0.18345 -0.13074,0.0832 -0.17044,-0.105335 -0.46584,0.149951 -0.70229,0.607199 -0.44899,0.868288 -0.5507,1.445296 -0.14366,0.815454 0.21923,-0.339164 0.25745,-0.329544 0.26045,0.06614 0.005,0.573255 0.27951,0.586737 0.94568,0.04651 0.28248,-0.229062 0.33507,-0.32909 0.11679,-0.222208 -0.22937,0.112333 -0.30533,0.09438 -0.17983,-0.04289 0.11941,-0.130615 0.35753,-0.240963 0.52916,-0.245463 0.17163,-0.0045 1.02651,-0.377069 1.89963,-0.827856 2.51103,-1.296428 4.57256,-1.725998 9.00462,-1.875855 3.37652,-0.114168 4.43602,-0.04694 7.01146,0.445451 5.88743,1.125595 12.29298,3.650821 17.45371,6.8802 1.23693,0.774016 2.39141,1.410167 2.56522,1.413867 0.17379,0.0037 0.29288,0.135875 0.26458,0.293523 -0.0283,0.157641 0.15206,0.270924 0.40101,0.251664 0.24897,-0.01926 0.42758,0.08492 0.39688,0.23151 -0.0307,0.14659 0.10996,0.326526 0.31212,0.399976 0.24654,0.08957 0.29797,0.02172 0.1571,-0.206189 -0.14176,-0.229382 -0.10491,-0.275349 0.11317,-0.14056 0.1776,0.109816 0.2554,0.267606 0.1726,0.350366 -0.18153,0.181524 0.62773,1.119312 0.96583,1.119312 0.1315,0 0.15399,-0.137403 0.0501,-0.305408 -0.11791,-0.190779 -0.072,-0.233259 0.12144,-0.113688 0.17037,0.1053 0.25295,0.283433 0.18345,0.395841 -0.18888,0.305608 1.61665,1.961137 1.92856,1.768368 0.14804,-0.09149 0.35514,-0.02672 0.46044,0.14366 0.11958,0.193472 0.0766,0.238829 -0.1142,0.120923 -0.61083,-0.377517 -0.28498,0.158143 0.49557,0.814937 1.19829,1.008291 4.47899,4.970718 6.03891,7.293612 4.20687,6.264505 7.34508,14.577475 8.21604,21.764046 0.15873,1.30969 0.2881,3.86953 0.28732,5.68854 -0.005,11.97274 -3.94426,21.84331 -11.67009,29.24473 -5.36314,5.13791 -11.10028,7.75774 -17.97255,8.20673 l -2.50165,0.1633 -1.56218,-3.17293 c -1.49675,-3.04031 -3.40553,-5.75179 -3.85403,-5.4746 -0.11683,0.0722 -0.19612,-0.0328 -0.17622,-0.23358 0.049,-0.49376 -2.62338,-2.81087 -4.4421,-3.85145 -0.81116,-0.4641 -1.47485,-0.90455 -1.47485,-0.97875 0,-0.0742 0.23168,-1.04751 0.5147,-2.16317 1.39301,-5.49109 2.00302,-12.81378 1.77818,-21.3434 -0.19181,-7.27723 -0.75657,-12.810448 -1.75544,-17.19792 -1.13698,-4.994095 -1.49009,-6.39775 -2.15181,-8.550899 -0.41673,-1.355991 -0.82202,-2.569597 -0.90072,-2.696993 -0.13596,-0.219988 -2.77658,1.249952 -2.77658,1.545642 0,0.07734 0.4113,1.577865 0.91364,3.334164 1.16448,4.071352 2.13656,8.892524 2.70268,13.402286 0.57624,4.59057 0.66573,20.23398 0.13746,24.05434 -0.78478,5.67543 -1.77981,9.556 -3.15433,12.30313 -2.84334,5.68269 -8.2345,10.68991 -15.35048,14.25701 -6.65275,3.33487 -11.667803,4.74159 -22.258076,6.24354 -5.914468,0.83883 -19.611723,1.39645 -19.611723,0.79841 0,-0.14552 0.131764,-0.26459 0.292489,-0.26459 0.160725,0 1.449804,-1.16086 2.864941,-2.57969 3.188584,-3.19688 4.638993,-5.79131 4.638993,-8.2982 0,-1.56297 -0.590598,-2.81706 -1.462443,-3.10523 -0.3208,-0.10603 -0.318347,-0.0486 0.01602,0.36483 0.228656,0.28299 0.256685,0.40645 0.06615,0.29197 -0.196992,-0.11835 -0.332463,-0.0585 -0.334863,0.1478 -0.0033,0.28391 -0.04376,0.28336 -0.224793,-0.002 -0.244372,-0.38539 -0.398734,-0.0571 -1.334802,2.84117 -0.826715,2.55967 -3.231121,5.50465 -6.638355,8.13077 -6.260806,4.82551 -10.21083,9.30805 -13.150618,14.92312 -2.679975,5.11885 -3.4898,9.06338 -2.578654,12.56151 0.457742,1.7574 1.506608,4.03107 1.654679,3.58686 0.05417,-0.16251 0.748357,-0.28574 1.595252,-0.28474 2.781463,0.005 5.473111,1.88613 6.714835,4.69326 0.415086,0.93838 0.488669,1.48823 0.3483,2.61172 -0.09781,0.78281 -0.288697,1.42369 -0.423747,1.42369 -0.13505,0 -0.245463,0.17533 -0.245463,0.38964 0,0.68119 -1.307239,3.13127 -2.474268,4.63744 -1.391974,1.79648 -3.307531,3.27866 -5.119067,3.96152 -3.538306,1.33376 -8.358252,0.65946 -12.779582,-1.78801 -0.945884,-0.52361 -1.779323,-1.01889 -1.852083,-1.10019 -0.07276,-0.0813 -1.025263,-0.92172 -2.116667,-1.86758 -1.091404,-0.94589 -2.191734,-1.95792 -2.445329,-2.24896 -0.539479,-0.61914 -3.904671,-5.58849 -3.904671,-5.76606 0,-0.0664 -0.414078,-1.03001 -0.920357,-2.14095 -0.506281,-1.11096 -0.923492,-2.07771 -0.927592,-2.14871 -0.0041,-0.071 -0.180594,-0.57579 -0.391708,-1.1219 -0.593843,-1.53614 -1.657417,-5.5041 -2.181262,-8.13697 -0.682986,-3.43255 -0.677519,-15.85226 0.0088,-20.24062 1.212775,-7.75489 3.753476,-15.51784 6.289022,-19.21485 0.411472,-0.59995 0.663568,-1.17507 0.560173,-1.27847 -0.103394,-0.1038 -0.06613,-0.14828 0.08268,-0.0997 0.377088,0.12292 2.191531,-1.95605 2.052588,-2.35179 -0.07262,-0.20685 -0.344754,-0.0737 -0.75551,0.36948 -0.353043,0.38091 -0.641821,0.56282 -0.641821,0.40463 0,-0.15818 0.119065,-0.36124 0.264583,-0.45114 0.145521,-0.0899 0.260599,-0.3052 0.255799,-0.47852 -0.0048,-0.17331 -0.242967,-0.034 -0.529167,0.30954 -0.460834,0.55318 -0.520916,0.5683 -0.524516,0.13229 -0.0023,-0.27954 -0.08805,-0.37541 -0.198437,-0.22169 -0.211503,0.29453 -1.543249,1.18443 -1.772502,1.18443 -0.272314,0 -0.137728,-0.82691 0.270785,-1.66657 l 0.411861,-0.84698 -0.797884,0.92605 c -1.980343,2.29903 -5.238064,10.03662 -6.773747,16.08842 -0.347853,1.37081 -0.690384,2.55023 -0.761194,2.62103 -0.428787,0.42879 -6.059914,-2.66146 -9.041825,-4.96197 -2.86373,-2.20935 -6.2778877,-6.3751 -7.5804161,-9.24957 -1.4383772,-3.17425 -2.5360224,-7.62533 -3.1326253,-12.7 C 2.702536,122.76618 2.562854,110.22791 2.8761557,105.68059 3.2181968,100.71617 4.2818281,92.882536 5.1214967,89.144135 6.7561195,81.866418 9.9776737,73.767742 13.450704,68.205878 c 0.75997,-1.217049 1.384846,-2.356128 1.388546,-2.531628 0.0037,-0.175523 0.106108,-0.257883 0.227376,-0.182935 0.338558,0.209241 0.26119,-0.272445 -0.110587,-0.689363 -0.277701,-0.311418 -0.262155,-0.319337 0.09715,-0.04961 0.341838,0.256608 0.492742,0.243209 0.750342,-0.06718 0.177356,-0.213702 0.234379,-0.531003 0.126607,-0.705383 -0.120782,-0.195431 -0.08347,-0.247737 0.09663,-0.136426 0.341042,0.210775 0.919412,-0.722715 0.639754,-1.032495 -0.104019,-0.11522 -0.05469,-0.133048 0.109555,-0.03927 0.167175,0.09544 0.691267,-0.331639 1.190625,-0.970484 0.490597,-0.627637 1.54678,-1.890544 2.347143,-2.80603 0.800362,-0.915485 1.422851,-1.777823 1.382861,-1.916679 -0.03999,-0.138852 0.02327,-0.193216 0.141077,-0.120406 0.11781,0.07281 1.103192,-0.697635 2.18953,-1.712557 5.179621,-4.839107 10.900592,-8.469421 18.003036,-11.423592 6.49347,-2.700876 14.958023,-4.69463 18.571993,-4.374927 1.244096,0.110057 1.417825,0.588174 0.254248,0.700216 -0.475706,0.04581 -0.803324,0.183917 -0.727604,0.306441 0.07572,0.12252 -0.100465,0.160396 -0.391708,0.08423 -0.307898,-0.08052 -0.529683,-0.0083 -0.529683,0.172599 0,0.171076 -0.1157,0.239469 -0.257349,0.151929 -0.331326,-0.204772 -3.838465,1.413202 -5.416723,2.499072 -0.741147,0.509925 -1.1454,0.959286 -1.035596,1.150834 0.09909,0.172854 0.08577,0.229078 -0.02946,0.125057 -0.309779,-0.279655 -1.24327,0.299232 -1.032496,0.640271 0.09932,0.160702 0.06226,0.218771 -0.08268,0.129191 -0.286195,-0.176876 -1.560923,1.086564 -2.302702,2.282548 -1.596508,2.574087 -1.407445,4.390836 0.547254,5.255494 1.2321,0.545016 1.754512,0.533552 4.886523,-0.10542 1.046619,-0.213525 1.454241,-0.409271 1.360641,-0.653191 -0.08284,-0.215878 0.06624,-0.348299 0.391707,-0.348299 0.643961,0 1.037679,-0.449561 1.159102,-1.322916 l 0.09198,-0.661459 -2.976562,0.05064 c -1.637106,0.02774 -2.975908,-0.03179 -2.975012,-0.132291 8.97e-4,-0.100502 0.179229,-0.5226 0.395841,-0.937928 0.216617,-0.415326 0.326206,-0.864924 0.243396,-0.998905 -0.0828,-0.133978 -0.05278,-0.213984 0.06718,-0.178284 0.119955,0.0357 0.634793,-0.33029 1.144116,-0.81287 0.509321,-0.482582 1.370779,-1.178007 1.914095,-1.545642 0.543314,-0.367637 0.911931,-0.791298 0.819071,-0.941545 -0.09286,-0.15025 -0.04452,-0.196259 0.107487,-0.102319 0.152004,0.09394 0.795424,-0.118618 1.429887,-0.472323 2.311657,-1.288718 4.916851,-1.784189 8.880078,-1.688269 3.146977,0.07616 3.626063,0.03176 3.874699,-0.361218 0.23088,-0.364916 0.105181,-0.611323 -0.676444,-1.322917 -1.665825,-1.516569 -2.570684,-2.108517 -2.918169,-1.90841 -0.183618,0.105734 -0.243928,0.0939 -0.134358,-0.02687 0.256561,-0.282798 -1.832073,-1.53776 -2.190564,-1.316199 -0.148848,0.09199 -0.237911,0.05226 -0.197921,-0.08785 0.03999,-0.140109 -0.521794,-0.654944 -1.247986,-1.144116 -0.726193,-0.489169 -1.356625,-1.082419 -1.401465,-1.318266 -0.113095,-0.594891 0.671639,-0.753793 3.741374,-0.758093 z m 37.606488,7.79539 c 0.0444,0.01854 0.048,0.06712 0.002,0.14211 -0.0889,0.143854 -0.2739,0.261483 -0.41083,0.261483 -0.38058,0 -0.29662,-0.189978 0.16175,-0.365869 0.1175,-0.04509 0.20255,-0.05612 0.24701,-0.03772 z m 5.90817,4.270023 c 0.12364,-0.07641 0.22479,0.0341 0.22479,0.24598 0,0.446132 -0.0837,0.485184 -0.29766,0.13901 -0.0837,-0.135465 -0.0508,-0.30858 0.0729,-0.38499 z m -83.377341,4.88549 c 0.173313,-0.01149 0.383435,0.08984 0.467155,0.22531 0.08372,0.135463 0.01328,0.332399 -0.157096,0.437699 -0.184639,0.114114 -0.239592,0.07764 -0.135393,-0.09095 0.09615,-0.155574 0.0252,-0.343328 -0.157613,-0.417028 -0.237894,-0.09591 -0.242597,-0.14008 -0.01705,-0.15503 z m -3.044775,5.168677 c 0.123638,0.07641 0.156062,0.249524 0.07235,0.38499 -0.213952,0.346174 -0.29714,0.30712 -0.29714,-0.13901 0,-0.211881 0.101152,-0.32239 0.224793,-0.24598 z M 10.389392,61.68793 c 1.843873,0.02798 3.045292,0.277097 3.045292,0.77618 0,0.137697 -0.655624,1.137059 -1.457275,2.221053 -2.7182016,3.675555 -4.7972245,7.838855 -7.260022,14.537614 -3.98353771,10.835143 -5.51491477,22.242463 -5.23843992,39.026043 0.15851917,9.62301 0.56527787,12.65965 2.61121012,19.49287 l 0.3307292,1.10484 -1.2350668,1.10484 c -1.54739071,1.38495 -3.5747384,4.11774 -4.65708,6.27714 l -0.8283732,1.65364 -2.7083619,-0.0289 c -4.4830745,-0.048 -8.1825505,-0.76874 -11.5155765,-2.24275 -0.789841,-0.3493 -1.572147,-0.55699 -1.738395,-0.46199 -0.166248,0.095 -0.21132,0.0727 -0.100252,-0.0496 0.111067,-0.12227 -0.550355,-0.64733 -1.469678,-1.16685 -2.439799,-1.37877 -4.493265,-3.05939 -7.340637,-6.00636 -5.273296,-5.45773 -8.534359,-11.81237 -10.316166,-20.10213 -0.731358,-3.40259 -0.981619,-9.93924 -0.529167,-13.82086 0.629719,-5.402397 2.692628,-12.250878 4.929932,-16.365409 0.526955,-0.969103 0.828592,-1.834843 0.737422,-2.116667 -0.111801,-0.345626 -0.08573,-0.381891 0.09457,-0.130741 0.19221,0.267733 0.35099,0.19108 0.697632,-0.337964 0.246756,-0.376595 0.391671,-0.77634 0.322461,-0.888318 -0.06921,-0.111979 -0.0034,-0.376744 0.146244,-0.588078 0.213184,-0.301062 0.237558,-0.269403 0.111621,0.145211 -0.132371,0.435801 -0.06795,0.412462 0.36587,-0.132292 0.653154,-0.820168 0.694982,-1.244586 0.07545,-0.764811 -0.376932,0.291902 -0.368976,0.248892 0.04134,-0.232027 0.552115,-0.647119 0.824719,-0.780678 0.530717,-0.259933 -0.286374,0.507239 0.173105,0.0135 1.8526,-1.990576 0.846814,-1.010465 1.421065,-1.922505 1.316716,-2.091345 -0.10226,-0.165455 -0.0681,-0.227326 0.07648,-0.137976 0.343659,0.212393 2.539374,-2.028707 2.273763,-2.320789 -0.112418,-0.12362 -0.06693,-0.146342 0.101286,-0.05013 0.281468,0.161002 4.017963,-2.756266 4.787305,-3.737756 0.181899,-0.232062 0.332663,-0.31007 0.334863,-0.173116 0.0022,0.13702 0.09147,0.127559 0.198437,-0.02119 0.106912,-0.148675 1.623056,-1.111456 3.369304,-2.139404 3.473216,-2.044549 6.94293,-3.616194 10.5022011,-4.757332 1.2650222,-0.405579 2.2289499,-0.852513 2.1419881,-0.993221 -0.086962,-0.14071 -0.026692,-0.174666 0.1338419,-0.07545 0.1605336,0.09922 1.6373929,-0.166793 3.2819703,-0.590662 C 2.4588809,62.20811 7.3162708,61.641291 10.389392,61.68793 Z m -35.36735,9.098153 c 0.123641,-0.07641 0.224792,0.0341 0.224792,0.24598 -1e-6,0.44613 -0.08371,0.485185 -0.297656,0.139009 -0.08372,-0.135465 -0.05078,-0.308579 0.07286,-0.384989 z m 165.556818,5.075142 c -0.68931,-0.04426 -1.31992,-0.007 -1.88205,0.113688 -0.97654,0.2097 -1.17643,0.325553 -0.79479,0.460954 0.45509,0.161476 0.46228,0.198892 0.0661,0.350883 -0.58261,0.223553 -0.57013,0.70903 0.0191,0.74259 0.30868,0.01758 0.24253,0.097 -0.19844,0.238229 -0.51105,0.16367 -0.32786,0.217848 0.8046,0.238228 4.61701,0.08307 10.17671,3.140071 15.0704,8.286833 5.13161,5.396953 8.12693,10.776265 10.42779,18.72702 0.35951,1.24232 1.44053,6.67632 1.49706,7.52512 0.0102,0.15383 0.12091,0.042 0.24598,-0.24908 0.19448,-0.45245 0.23008,-0.46211 0.24598,-0.0661 0.0126,0.31254 0.23358,0.46302 0.68007,0.46302 0.65261,0 0.66178,-0.0307 0.66094,-2.18281 -0.003,-6.98079 -3.31454,-15.791627 -8.41293,-22.3821 -2.28705,-2.956406 -6.99396,-7.580576 -8.08839,-7.946285 -0.1643,-0.0549 -0.53733,-0.306522 -0.82837,-0.559139 -0.29104,-0.252618 -1.18402,-0.809067 -1.98438,-1.2361 -2.86438,-1.528286 -5.46079,-2.392133 -7.52874,-2.524911 z m -151.152529,1.501201 c -1.52625,0.292513 -6.337758,2.758405 -5.950541,3.186368 0.106465,0.11767 0.0548,0.134758 -0.114722,0.03772 -0.545201,-0.312054 -4.979361,3.374288 -4.666899,3.879867 0.08897,0.14396 0.0385,0.185408 -0.112654,0.09198 -0.309773,-0.19145 -1.745338,1.297775 -3.528467,3.660241 -4.667765,6.184323 -8.18503,15.54395 -8.18503,21.78162 0,1.16579 0.08059,2.32893 0.1788,2.58485 0.165695,0.4318 0.192939,0.42862 0.378272,-0.0444 0.140278,-0.35808 0.210287,-0.39141 0.235127,-0.11265 0.02011,0.2257 0.154359,0.11159 0.311093,-0.26459 0.26257,-0.6302 0.285619,-0.63645 0.493509,-0.13229 0.120011,0.29107 0.226449,0.46247 0.236679,0.38137 0.124704,-0.98848 1.148309,-6.14367 1.475362,-7.43107 1.137353,-4.47702 3.722879,-10.235851 6.186185,-13.779002 1.647372,-2.369532 4.529421,-5.570275 6.572209,-7.29878 1.891214,-1.60025 5.037489,-3.60628 6.320544,-4.029728 0.476928,-0.1574 0.8332132,-0.427775 0.7922002,-0.600997 -0.041013,-0.173221 -0.024347,-0.225413 0.03669,-0.116272 0.186796,0.334011 0.795331,0.220452 0.9477457,-0.176733 0.1751052,-0.456316 -0.3479001,-0.689101 -1.1859742,-0.527617 -0.405192,0.07808 -0.481243,0.04882 -0.218591,-0.08423 0.4111885,-0.208305 0.521776,-0.690553 0.226343,-0.985986 -0.05921,-0.05921 -0.209846,-0.06142 -0.427881,-0.01964 z m 102.434057,3.429248 c -1.465994,0.207737 -2.373749,2.024517 -1.564762,3.588928 0.488687,0.945018 1.947393,2.172631 2.313037,1.946651 0.164166,-0.101461 0.205844,-0.05077 0.09974,0.120923 -0.226299,0.366156 2.374325,1.736346 2.798278,1.474328 0.164268,-0.101523 0.221865,-0.06405 0.130225,0.08423 -0.204786,0.331351 1.075745,0.945183 1.467094,0.703316 0.166446,-0.102868 0.20924,-0.05331 0.102836,0.118856 -0.11225,0.181625 0.15238,0.392089 0.68678,0.54622 1.258821,0.363067 1.471014,0.348557 2.267558,-0.15813 0.96698,-0.615098 1.10605,-0.850166 1.11105,-1.873787 0.003,-0.595114 -0.0936,-0.815105 -0.30128,-0.68678 -0.19328,0.119439 -0.23354,0.07194 -0.10955,-0.128674 0.25815,-0.417701 -0.58079,-1.686051 -0.960149,-1.451591 -0.168843,0.104347 -0.220256,0.06182 -0.120406,-0.09974 0.366955,-0.593747 -5.215537,-3.799325 -7.261572,-4.169771 -0.22884,-0.04143 -0.449447,-0.04466 -0.658875,-0.01499 z m -70.0288,2.002978 c -1.171018,0 -3.911465,1.617674 -5.775875,3.409611 -1.702077,1.635913 -1.827279,1.833619 -1.827279,2.889229 0,0.850368 0.162231,1.295495 0.649573,1.782837 0.363436,0.363436 0.958669,0.649573 1.351856,0.649573 0.86166,0 3.429386,-1.339196 4.575948,-2.386418 0.465217,-0.424911 0.913011,-0.761494 0.994771,-0.748274 0.418971,0.06776 1.711316,-1.186136 1.578715,-1.53169 -0.08192,-0.213479 -0.04334,-0.323391 0.08527,-0.243913 0.303637,0.187658 0.553455,-0.481997 0.553455,-1.48208 0,-0.980472 -1.270049,-2.338875 -2.18643,-2.338875 z m 79.003962,4.696871 c 0.0591,0.03531 0.0899,0.145673 0.10439,0.338481 0.0211,0.280756 -0.0716,0.578278 -0.20619,0.661458 -0.1362,0.08417 -0.1678,-0.05016 -0.0708,-0.302824 0.11821,-0.308031 0.0746,-0.392312 -0.13539,-0.262516 -0.41677,0.257556 -0.39419,0.0308 0.032,-0.322978 0.12902,-0.107077 0.21682,-0.146932 0.27595,-0.111621 z m -124.886433,2.401921 c 0.04186,0.05064 0.06615,0.157796 0.06615,0.313159 0,0.601192 -0.04888,0.640244 -0.297656,0.237711 -0.09777,-0.158199 -0.07081,-0.394787 0.05994,-0.525549 0.07031,-0.0703 0.129705,-0.07597 0.171566,-0.02532 z m 181.755313,0.338997 c 0.0223,-0.02231 0.0952,0.03465 0.22583,0.164331 0.18082,0.179476 0.26185,0.39293 0.18035,0.47439 -0.0815,0.08146 -0.22926,-0.06514 -0.32866,-0.326079 -0.0718,-0.18854 -0.0998,-0.290329 -0.0775,-0.312642 z M 94.005477,110.86322 c -1.54445,-0.0603 -3.231229,0.12644 -4.419885,0.58601 -1.801029,0.69633 -4.01157,2.20295 -3.780648,2.57659 0.09085,0.14697 0.01509,0.2343 -0.168465,0.1943 -0.480574,-0.10469 -2.23388,2.58642 -2.797245,4.29328 -0.728761,2.20797 -0.654344,6.51803 0.147794,8.54108 0.685589,1.72911 2.179248,3.7987 2.66237,3.68918 0.176387,-0.04 0.254816,0.0336 0.174666,0.1633 -0.218904,0.3542 0.815969,1.1835 1.189075,0.95291 0.193027,-0.11929 0.253949,-0.0886 0.151929,0.0765 -0.256801,0.4155 0.399746,0.83878 2.389518,1.54099 2.860239,1.0094 5.481042,0.74044 8.176245,-0.8382 1.647708,-0.96509 3.924699,-3.14351 3.687109,-3.52795 -0.10185,-0.16479 -0.0281,-0.26062 0.1695,-0.21962 0.19379,0.0402 0.3343,-0.13306 0.3142,-0.38757 -0.0199,-0.25314 0.0647,-0.39773 0.1881,-0.32143 0.12337,0.0762 0.48291,-0.71249 0.79892,-1.75287 0.47905,-1.57699 0.55079,-2.30416 0.43149,-4.37182 l -0.14314,-2.47995 1.06815,-0.84646 c 1.14152,-0.9041 1.912,-2.33941 1.66812,-3.10782 -0.082,-0.25828 -0.45787,-0.61028 -0.83561,-0.78239 -0.57997,-0.26423 -0.83248,-0.22757 -1.62109,0.23772 -1.59923,0.94357 -2.12681,0.31843 -0.9896,-1.17254 0.71142,-0.93271 0.85561,-1.97264 0.34416,-2.48409 -0.5499,-0.5499 -1.96239,-0.36877 -2.832384,0.36329 -0.841021,0.70766 -1.558754,0.70051 -2.406572,-0.0243 -0.620258,-0.53026 -2.022257,-0.83779 -3.566707,-0.89814 z m -80.474674,0.0966 c -0.18126,0.016 -0.357574,0.0728 -0.535368,0.16795 -0.363147,0.19435 -0.577558,0.49619 -0.498678,0.70176 0.07618,0.19853 0.02035,0.28837 -0.123507,0.19947 -0.346786,-0.21433 -0.33513,0.82499 0.01654,1.48208 0.152822,0.28552 0.39406,0.44727 0.535885,0.35967 0.141825,-0.0877 0.235219,-0.061 0.207739,0.0589 -0.02748,0.11996 0.04542,0.5583 0.161747,0.9741 0.326852,1.16831 -0.33292,1.38618 -1.275891,0.42168 -0.805056,-0.82343 -1.931444,-1.03219 -2.5001059,-0.46353 -0.9547777,0.95476 0.1350688,3.66992 1.9967769,4.97437 l 0.944129,0.66146 -0.05116,2.11666 c -0.124843,5.20416 2.394153,9.27769 6.803203,11.00192 1.832575,0.71666 4.090853,0.64963 5.864241,-0.17364 1.562047,-0.72517 2.981588,-1.90031 2.749186,-2.27634 -0.0784,-0.12685 0.01071,-0.19813 0.197921,-0.15813 0.559396,0.11948 2.039989,-2.99041 2.386934,-5.01365 0.272138,-1.58698 0.251592,-2.19712 -0.141076,-4.19561 -0.476995,-2.42767 -1.910036,-5.58715 -2.481503,-5.4715 -0.17111,0.0346 -0.251126,-0.0936 -0.177766,-0.28474 0.214212,-0.55823 -2.408938,-2.79759 -4.260206,-3.63699 -1.993516,-0.90389 -3.718788,-1.00048 -5.854939,-0.32711 -1.37312,0.43287 -1.426415,0.43019 -2.00763,-0.0992 -0.822263,-0.74901 -1.412693,-1.06756 -1.956469,-1.01957 z m 75.412451,4.46691 c 0.577046,-0.0638 1.110087,0.0887 1.581299,0.4594 0.690255,0.54296 0.746178,0.71004 0.632519,1.89291 -0.0725,0.75455 -0.366882,1.62493 -0.703316,2.07998 -0.318168,0.43035 -0.511748,0.89032 -0.429948,1.02267 0.08179,0.13235 0.0097,0.32672 -0.160714,0.43202 -0.193472,0.11957 -0.239345,0.0771 -0.121439,-0.11369 0.269542,-0.43614 0.02874,-0.38019 -0.960149,0.22273 -1.188694,0.72473 -2.201641,0.67415 -3.026688,-0.1509 -0.758242,-0.75824 -0.74939,-1.77758 0.02842,-3.33675 0.47772,-0.95763 0.503813,-1.09716 0.165881,-0.88832 -0.438025,0.27071 -0.554941,-0.31473 -0.132808,-0.66507 0.22489,-0.1866 0.388208,-0.22991 0.362768,-0.0961 -0.118201,0.62149 0.08195,0.61687 0.917774,-0.0207 0.648294,-0.49448 1.269352,-0.77437 1.846399,-0.83819 z m -70.860791,0.59014 c 0.976717,-0.20466 2.081106,0.53882 2.341459,1.57613 0.235827,0.93961 -0.289678,2.72865 -1.125513,3.83078 -0.38626,0.50932 -0.669932,1.02418 -0.630452,1.14411 0.03948,0.12 -0.0379,0.1503 -0.171566,0.0677 -0.133667,-0.0826 -0.668451,0.0276 -1.188558,0.24495 -1.011805,0.42276 -1.142912,0.43754 -1.756482,0.19895 -1.136745,-0.44203 -1.414184,-2.57435 -0.552421,-4.24625 0.680362,-1.31996 2.091456,-2.60849 3.083533,-2.81637 z M 129.53923,137.8347 c 0.36756,-0.007 2.15421,1.14708 3.80648,2.45928 2.17346,1.72614 4.9538,6.10512 6.07973,9.57513 0.83885,2.58532 0.83311,6.13017 -0.0145,8.84236 -1.29544,4.14555 -3.51355,8.00255 -7.2378,12.58631 -0.11823,0.14553 -0.45765,0.56223 -0.75447,0.92604 -1.12635,1.38054 -5.22338,5.41223 -7.25589,7.14013 -5.78732,4.92001 -6.16336,5.20201 -15.34583,11.51299 -5.96704,4.10108 -6.24515,4.32017 -6.15725,4.84777 0.0396,0.23765 -0.0669,0.4347 -0.23668,0.4377 -0.16978,0.003 -0.4079,0.11454 -0.52917,0.24701 -0.12984,0.14182 -0.073,0.15545 0.1385,0.0331 0.26975,-0.15613 0.31726,-0.0759 0.19068,0.32297 -0.29262,0.92197 0.4346,0.82506 2.29185,-0.3054 7.36929,-4.48561 7.8601,-4.80755 11.7104,-7.67344 3.79641,-2.8258 5.47753,-4.17119 7.91683,-6.3376 2.84583,-2.52743 6.64498,-6.15934 7.41608,-7.08949 0.28375,-0.34226 1.41485,-1.64432 2.51355,-2.89336 1.95498,-2.22252 3.93272,-4.89471 5.15834,-6.97012 l 0.6134,-1.03921 0.39119,0.77463 c 0.21514,0.42602 0.46328,1.25088 0.55138,1.83296 0.15508,1.02487 -0.42903,6.49511 -0.74879,7.0125 -0.29147,0.47161 -0.61359,3.03724 -0.47335,3.77082 0.0763,0.39927 0.29986,0.72606 0.49661,0.72606 0.22389,0 0.29902,0.17316 0.20102,0.46302 -0.33784,0.99925 0.69529,-0.68637 1.18546,-1.93425 l 0.50074,-1.27589 0.68575,1.04283 c 0.92121,1.40067 2.2332,4.54153 2.97759,7.12825 2.36511,8.21872 2.54236,16.91215 0.5147,25.2491 -0.33869,1.39258 -0.69988,3.06792 -0.80305,3.72277 -0.10317,0.65484 -0.22874,1.40993 -0.27854,1.67794 -0.0665,0.35797 0.0242,0.44354 0.34107,0.32194 0.23724,-0.091 0.54142,-0.0127 0.67592,0.17415 0.1753,0.24349 0.20239,0.20838 0.0956,-0.12351 -0.093,-0.28922 -0.012,-0.46302 0.216,-0.46302 0.33182,0 2.48772,-4.05956 2.91559,-5.4901 0.20731,-0.6931 0.66654,-0.74819 1.71566,-0.20567 0.69891,0.36143 0.95644,0.77459 2.26084,3.63182 0.59902,1.31211 1.87174,2.2315 4.17597,3.01635 2.98729,1.0175 3.85258,1.49198 4.18889,2.29702 0.16908,0.40485 0.23548,0.80838 0.14728,0.89658 -0.40954,0.40954 -4.48787,-1.14624 -6.38307,-2.43499 -0.63423,-0.43127 -1.0873,-0.59635 -1.1467,-0.41806 -0.054,0.16208 -0.29645,0.29669 -0.53899,0.29869 -0.25199,0.002 -0.32795,0.0873 -0.17673,0.19843 0.14552,0.10691 0.30035,0.3729 0.34365,0.59118 0.13433,0.67687 2.73221,2.87834 4.89014,4.14394 1.78085,1.04444 2.03502,1.28403 1.88257,1.77301 -0.34375,1.10247 -0.82845,1.17205 -3.28249,0.47026 -2.79053,-0.79802 -4.33964,-1.70998 -5.09943,-3.00188 -0.7961,-1.35367 -1.70696,-2.17088 -2.51716,-2.25826 l -0.59117,-0.0641 0.5333,1.04541 c 0.88548,1.73567 0.74304,1.93342 -0.85576,1.18908 -1.75433,-0.81676 -2.42869,-0.8503 -2.23553,-0.11163 0.11878,0.45421 0.0503,0.51172 -0.43201,0.36174 l -0.57361,-0.17828 0.52452,0.58652 c 1.19621,1.33865 3.02269,2.35558 5.90868,3.28869 1.64647,0.53234 3.13475,0.88697 3.30729,0.78807 0.17251,-0.0988 0.22489,-0.0821 0.11627,0.0377 -0.10862,0.11982 0.16333,0.43733 0.6041,0.70538 0.68175,0.4146 0.75914,0.56642 0.51883,1.01545 -0.24487,0.45753 -0.55505,0.52761 -2.32906,0.52761 -2.27721,0 -5.44322,-0.75701 -6.93032,-1.65726 -0.50939,-0.30837 -1.67944,-1.21507 -2.59984,-2.01487 -1.33538,-1.16043 -1.72153,-1.37741 -1.91203,-1.07383 -0.29133,0.46425 -0.0883,1.19552 0.60616,2.18126 0.28785,0.40856 0.44847,0.81812 0.35657,0.91002 -0.0919,0.0919 -0.7598,-0.0933 -1.48415,-0.41186 -0.72435,-0.31855 -1.90961,-0.84003 -2.63394,-1.15858 -1.22417,-0.53838 -2.19771,-0.4938 -1.32137,0.0605 0.21405,0.13538 0.30572,0.24811 0.2036,0.25011 -0.10211,0.002 -0.0386,0.35396 0.14108,0.78135 0.3945,0.93823 2.24785,2.47168 2.7528,2.2779 0.19917,-0.0764 0.29438,-0.0292 0.21188,0.10438 -0.0825,0.13356 0.96697,0.78979 2.33216,1.45831 1.36518,0.66853 2.68744,1.44206 2.93832,1.71928 0.59631,0.65891 0.31562,1.54701 -0.55811,1.7663 -1.7629,0.44246 -5.72592,-0.47043 -6.82852,-1.57303 -0.20464,-0.20463 -1.02812,-1.38931 -1.83038,-2.63292 -0.80225,-1.2436 -1.585,-2.33959 -1.73943,-2.43499 -0.35424,-0.21893 -1.07074,0.47743 -1.07074,1.04076 0,0.23351 0.30596,1.02803 0.67955,1.76527 0.37358,0.73723 0.62094,1.39858 0.54984,1.46968 -0.16257,0.16257 -1.54961,-0.80555 -3.00912,-2.10013 -1.02353,-0.90789 -1.90365,-1.33628 -1.54151,-0.75035 0.0823,0.13309 3.9e-4,0.30263 -0.18242,0.37673 -0.25146,0.10194 -0.2362,0.20313 0.0641,0.41547 0.26902,0.19033 0.29042,0.28174 0.0661,0.28474 -0.68364,0.008 -0.26436,0.62555 2.05052,3.01842 1.30969,1.35381 2.38125,2.64341 2.38125,2.86598 0,1.7842 -4.43714,1.24326 -5.93762,-0.72399 -0.37808,-0.49569 -1.11356,-1.74025 -1.63453,-2.76572 -0.68842,-1.35508 -1.12423,-1.90917 -1.59473,-2.02727 -0.35608,-0.0895 -0.72081,-0.089 -0.81081,0.001 -0.15153,0.15153 0.38937,2.3405 0.84181,3.406 0.14713,0.3465 0.0731,0.4602 -0.29455,0.4532 -0.68075,-0.013 -1.45312,-0.48195 -2.70578,-1.64383 -0.58833,-0.54571 -1.30022,-0.99218 -1.58182,-0.99218 -0.64898,0 -0.99413,1.19213 -0.52451,1.81125 0.78653,1.03692 2.28166,2.47434 3.26233,3.13625 1.79077,1.20868 2.24896,1.71753 2.24896,2.49752 0,1.02658 -0.78624,1.38404 -2.66857,1.21336 -2.61266,-0.23691 -4.45512,-1.87186 -6.2389,-5.53713 -0.80254,-1.64903 -0.94699,-1.81029 -1.33842,-1.49293 -0.30936,0.2508 -0.38034,0.25845 -0.24029,0.0253 0.13251,-0.22058 0.0227,-0.33073 -0.33022,-0.33073 -0.29105,0 -0.61446,0.13741 -0.7183,0.30541 -0.11922,0.19292 -0.072,0.23344 0.12764,0.11007 0.22583,-0.13959 0.26988,-0.0116 0.15451,0.44804 -0.10115,0.403 0.0923,1.26813 0.51832,2.31665 0.80806,1.98864 0.7917,1.85 0.21704,1.834 -0.25467,-0.007 -0.98493,-0.65185 -1.62316,-1.43299 -0.77433,-0.9477 -1.31973,-1.39 -1.63866,-1.3286 -0.3366,0.0648 -0.43235,-0.0262 -0.32401,-0.30851 0.12492,-0.32553 0.19611,-0.33458 0.37776,-0.0481 0.12304,0.19414 0.22537,0.23068 0.22737,0.0811 0.008,-0.54729 -0.80993,-1.4236 -1.19217,-1.27692 -0.21347,0.0819 -0.31911,0.26075 -0.23461,0.39739 0.0845,0.13665 0.027,0.40073 -0.12764,0.58704 -0.39649,0.47773 -0.22073,1.11954 1.01337,3.7052 1.75934,3.68618 1.727,5.52623 -0.10232,5.86941 -2.82165,0.52935 -5.67143,-2.50225 -6.95616,-7.40058 -0.24977,-0.95231 -0.60453,-1.78975 -0.78858,-1.86035 -0.18449,-0.0708 -0.51767,0.22598 -0.7426,0.66094 -0.34159,0.66061 -0.49057,0.74524 -0.91363,0.51883 -0.27794,-0.14875 -0.58613,-0.40197 -0.68523,-0.56224 -0.12491,-0.20208 -0.2513,-0.18128 -0.41187,0.0677 -0.19196,0.29765 -0.27595,0.29133 -0.49195,-0.0377 -0.22688,-0.3457 -0.26059,-0.34146 -0.26459,0.0336 -0.002,0.23682 0.17446,0.579 0.39274,0.76016 0.21828,0.18116 0.39688,0.45633 0.39688,0.61184 0,0.15552 -0.17443,0.052 -0.38809,-0.23047 -0.21365,-0.28248 -0.39188,-0.38599 -0.39688,-0.22945 -0.0104,0.35286 1.17107,1.49027 1.35599,1.30535 0.0741,-0.0741 0.13488,0.0221 0.13488,0.21342 0,0.19137 0.26508,0.70636 0.58911,1.14464 0.84364,1.14109 1.25303,3.87897 0.78496,5.24981 -0.3115,0.91232 -0.48869,1.07514 -1.31723,1.20974 -0.52643,0.0856 -1.21227,0.061 -1.52394,-0.0543 -1.10985,-0.41056 -2.905437,-2.62861 -4.255034,-5.25601 -1.080147,-2.10283 -1.578594,-2.78995 -2.401403,-3.30936 -0.571123,-0.36054 -1.092573,-0.65525 -1.159103,-0.65525 -0.06653,0 -0.114336,0.49919 -0.105936,1.10949 0.01315,0.95262 0.420005,2.46528 1.143082,4.24832 0.139364,0.34366 0.06133,0.45965 -0.30334,0.45165 -0.520607,-0.0119 -1.979954,-1.76776 -2.997233,-3.60598 -0.520081,-0.93978 -0.679794,-1.06057 -1.076421,-0.81287 -0.25617,0.15998 -0.410256,0.43628 -0.342098,0.61391 0.06816,0.17762 -0.0091,0.40549 -0.171565,0.50592 -0.212475,0.13132 -0.199014,0.3017 0.04806,0.60668 0.286403,0.35354 0.282167,0.38695 -0.02635,0.20102 -0.485087,-0.29232 0.517844,1.53236 2.288232,4.16305 1.153044,1.71336 1.389063,2.26188 1.389063,3.22926 0,0.90436 -0.13176,1.25806 -0.588078,1.57768 -0.323437,0.22641 -0.829041,0.40918 -1.123962,0.40618 -1.559677,-0.0169 -4.881248,-2.52361 -6.08025,-4.58887 -0.757068,-1.30402 -1.468127,-3.92724 -1.468127,-5.4162 0,-1.12782 -0.234717,-1.46249 -0.858345,-1.22318 -0.503039,0.19303 -1.257439,1.8126 -1.261939,2.70991 -0.01439,2.86266 -1.660703,2.48902 -3.535701,-0.80254 -0.704152,-1.23614 -1.042398,-1.44725 -1.6738,-1.04593 -0.469988,0.29873 -0.212082,2.03509 0.595829,4.01216 0.384251,0.94032 0.762459,2.32662 0.840259,3.08043 0.12599,1.22072 0.08112,1.38965 -0.408761,1.54513 -0.846174,0.26857 -2.095495,-0.53358 -2.711462,-1.74098 -0.705067,-1.38205 -0.759952,-1.67301 -0.911572,-4.83537 -0.06915,-1.44236 -0.174288,-2.67076 -0.233578,-2.73006 -0.180893,-0.18089 -1.118965,0.50315 -1.477946,1.07797 -0.186116,0.29802 -0.398889,1.29564 -0.472839,2.21692 -0.07395,0.92128 -0.223038,1.72989 -0.331246,1.79679 -0.284054,0.17555 -1.31655,-2.34758 -1.32085,-3.22771 -0.01081,-2.22887 -0.806539,-2.55347 -1.457275,-0.59428 -0.502192,1.51196 -0.403411,2.73274 0.44235,5.47098 0.286936,0.92899 0.48439,2.00858 0.43925,2.39934 -0.07049,0.61027 -0.220279,0.72178 -1.061434,0.79168 -0.896969,0.0745 -1.038,-0.0118 -1.681034,-1.03043 -1.009457,-1.59906 -1.163264,-4.35805 -0.410311,-7.3551 0.714223,-2.84292 0.707464,-3.05038 -0.221175,-6.80527 -2.731887,-11.04621 -3.473472,-17.50805 -2.950208,-25.71419 0.705044,-11.05692 2.670159,-19.88316 5.464266,-24.54269 2.072982,-3.45699 4.409769,-5.0665 9.050094,-6.23373 4.900092,-1.23257 9.042957,-1.19 16.466178,0.1695 3.664364,0.67109 3.928933,0.69876 3.307292,0.34313 -0.291041,-0.16651 -0.621333,-0.4572 -0.734322,-0.64596 -0.112989,-0.18859 -0.38088,-0.27608 -0.595313,-0.19378 -0.270659,0.10386 -0.390157,-0.0283 -0.390157,-0.43253 0,-0.35438 -0.201242,-0.63527 -0.514697,-0.71727 -0.283247,-0.0741 -0.551143,-0.31831 -0.595313,-0.54312 -0.09333,-0.47498 -4.44733,-1.72325 -7.687386,-2.204 -1.127784,-0.16734 -2.050521,-0.38654 -2.050521,-0.48679 0,-0.52547 10.874805,-7.73037 13.990361,-9.26921 4.442365,-2.19416 11.449295,-5.30406 11.950695,-5.30406 0.1431,0 0.46664,-0.10569 0.71933,-0.23462 0.25269,-0.12894 1.11427,-0.49869 1.91461,-0.82217 4.58296,-1.85231 10.1211,-4.64677 11.96672,-6.03787 0.68802,-0.51857 1.19719,-0.99699 1.13119,-1.06299 -0.066,-0.066 -0.32404,0.0459 -0.57309,0.24857 -0.39883,0.3245 -0.43241,0.31329 -0.27957,-0.0946 0.0954,-0.25466 0.0514,-0.46302 -0.0982,-0.46302 -0.14957,0 -0.19842,-0.11905 -0.10852,-0.26458 0.30702,-0.49677 -0.2773,-0.26425 -3.64371,1.45004 -1.85206,0.94313 -3.36775,1.62397 -3.36775,1.51257 0,-0.11139 0.34776,-0.40794 0.77256,-0.65888 0.61162,-0.36129 3.22822,-2.90328 5.19297,-5.04465 0.90422,-0.98554 3.08575,-4.08616 3.48557,-4.95422 0.25904,-0.56241 0.62805,-1.0254 0.82011,-1.0294 z M 3.858008,142.2055 c 1.0406229,1.22324 2.9811411,4.44328 2.760555,4.58059 -0.1500866,0.0934 -0.307998,0.40814 -0.350883,0.69919 -0.103492,0.70234 0.2668319,1.76412 0.5534546,1.58698 0.1249884,-0.0772 0.3132795,-0.001 0.4185791,0.16898 0.1195712,0.19349 0.07657,0.23935 -0.1142049,0.12144 -0.8842667,-0.5465 0.1708501,0.99718 2.589506,3.78892 2.1098082,2.43526 5.4105352,5.24539 8.7255652,7.42849 l 2.875277,1.89342 0.126607,6.92567 c 0.08723,4.77142 0.258252,7.61308 0.549838,9.13588 0.556032,2.90386 1.927979,7.80987 2.591056,9.2661 0.289879,0.63662 0.757775,1.74368 1.040246,2.46032 1.940375,4.92275 6.488225,10.93573 10.224183,13.51804 1.468068,1.01472 1.533652,1.33629 1.513602,7.44554 -0.01007,3.06948 -0.156653,6.83121 -0.325561,8.35918 -0.168908,1.52795 -0.376631,3.55202 -0.461471,4.49791 -0.59336,6.61563 -1.454832,11.25848 -2.516125,13.5599 -0.354218,0.76813 -0.779798,0.97081 -0.779798,0.37155 0,-0.19573 -0.24526,-0.57813 -0.545186,-0.84956 -0.468198,-0.42371 -0.582286,-0.43868 -0.805636,-0.10697 -0.57075,0.84767 -0.08689,2.83795 1.194243,4.91391 0.708905,1.14872 1.209146,2.25883 1.163236,2.58072 -0.209738,1.47068 -3.156603,0.26977 -4.442106,-1.81022 -0.641669,-1.03825 -1.3158,-3.95975 -1.3224,-5.73247 -0.0033,-0.89252 -0.123395,-1.27457 -0.439249,-1.39578 -0.239109,-0.0914 -0.453754,-0.1339 -0.476974,-0.094 -0.02322,0.0398 -0.26707,0.42954 -0.542086,0.8661 -0.38052,0.60405 -0.501845,1.29964 -0.506945,2.91041 -0.0066,2.10661 0.170405,3.22703 0.650606,4.1243 1.036916,1.9375 -1.528655,1.67013 -2.935738,-0.30592 -0.745963,-1.04761 -1.066687,-3.20414 -0.829924,-5.58416 0.11108,-1.11662 0.116616,-2.24771 0.01189,-2.51354 -0.163682,-0.41544 -0.19331,-0.39749 -0.20929,0.12764 -0.01023,0.33601 -0.131531,0.54119 -0.269751,0.45579 -0.301103,-0.1861 -0.699947,0.51497 -1.331185,2.34145 l -0.467671,1.35444 -0.176217,-1.19062 c -0.09682,-0.65484 -0.20094,-1.72468 -0.23151,-2.37763 -0.06086,-1.29973 -0.753966,-2.32814 -1.194243,-1.77199 -0.83507,1.05485 -1.220214,5.79457 -0.60203,7.40782 0.156976,0.40966 0.285254,1.09186 0.285254,1.51618 0,0.61 -0.143828,0.80773 -0.687297,0.94413 -0.54767,0.13746 -0.856811,0.003 -1.521354,-0.66301 -0.805817,-0.80714 -0.833023,-0.90904 -0.809253,-3.0117 0.01353,-1.19697 0.221889,-3.0941 0.463021,-4.21576 0.528015,-2.45612 0.53392,-2.61082 0.09457,-2.44223 -0.189068,0.0726 -0.695086,0.84102 -1.124479,1.70739 -0.429396,0.86637 -0.887364,1.57723 -1.017509,1.57923 -0.130142,0.002 -0.175163,-0.85856 -0.100253,-1.91358 0.14382,-2.02564 0.05088,-2.67919 -0.346748,-2.43344 -0.133092,0.0823 -0.242363,-0.0362 -0.242363,-0.26303 0,-0.22687 -0.104325,-0.41238 -0.232027,-0.41238 -0.422538,0 -0.753996,0.64362 -1.089856,2.11667 -0.963942,4.22776 -2.577194,6.57888 -4.53254,6.60528 -1.7101262,0.0231 -1.7047713,-2.12218 0.012402,-5.01262 1.708937,-2.87655 2.2485356,-4.8237 1.6143717,-5.826 -0.204726,-0.32357 -0.4360287,-0.17763 -1.2526367,0.79013 -1.5748175,1.86635 -3.0929778,3.25467 -3.2018717,2.92799 -0.054749,-0.16424 0.028686,-1.03856 0.1855184,-1.94252 0.298318,-1.71945 0.1358091,-3.70707 -0.2914551,-3.56464 -0.2563329,0.0854 -0.4152209,0.35414 -1.6805176,2.84738 -0.4061774,0.80034 -0.969372,1.77109 -1.2516032,2.15749 -0.8015557,1.09742 -2.73931849,2.00355 -4.7330444,2.21278 -1.666785,0.17492 -1.8081452,0.14626 -2.4473959,-0.49299 -1.4292256,-1.42923 -0.5088143,-3.23498 2.0277832,-3.97857 1.4708813,-0.43117 3.9799357,-2.24199 3.79046636,-2.73575 -0.0713606,-0.18596 -0.0339456,-0.33796 0.0837158,-0.33796 0.11766142,0 0.37231022,-0.48016 0.56585692,-1.06661 0.4368323,-1.3236 0.066213,-1.9091 -0.69918212,-1.10432 -0.78956388,0.83019 -3.46084388,2.43551 -4.05298258,2.43551 -0.6471895,0 -0.6536071,-0.0767 -0.1477946,-1.74408 0.4533285,-1.49436 0.5212957,-3.01842 0.1348755,-3.01842 -0.1455206,0 -0.2645833,-0.1786 -0.2645833,-0.39688 0,-0.83741 -0.4345226,-0.30082 -1.4417725,1.78026 -0.5748115,1.18762 -1.4886224,2.58984 -2.0308838,3.11609 -2.1192306,2.05662 -7.5362218,3.94696 -9.4200968,3.28713 -2.003222,-0.70164 -0.464323,-2.72325 3.65094,-4.79609 1.645201,-0.82868 3.3521419,-2.33422 4.2478026,-3.74654 0.8198077,-1.2927 0.7970564,-1.63129 -0.099219,-1.46502 -0.3272762,0.0607 -0.4464842,0.0395 -0.2645833,-0.047 0.1819006,-0.0865 0.3307291,-0.26956 0.3307291,-0.40669 0,-0.32674 -1.6573457,0.52343 -1.9311487,0.99063 -0.244197,0.41667 -0.979268,0.48965 -0.979268,0.0972 0,-0.14533 0.484599,-1.34066 1.076937,-2.65617 0.5923373,-1.3155 1.0187557,-2.53621 0.9472289,-2.7125 -0.071527,-0.17628 -0.1394062,-0.10512 -0.1508952,0.15813 -0.011489,0.26321 -0.1402501,0.40513 -0.2857706,0.31523 -0.1455206,-0.0899 -0.2645831,-0.0304 -0.2645831,0.13229 0,0.16266 -0.114552,0.22467 -0.254765,0.13797 -0.437417,-0.27032 -1.340343,0.88646 -2.121318,2.71715 -0.942823,2.21008 -1.510217,2.79677 -3.393074,3.5078 -3.341456,1.26183 -7.827285,-0.22828 -5.910234,-1.96319 0.270178,-0.24451 1.91759,-0.94739 3.660759,-1.56218 3.197185,-1.12761 4.468064,-1.92994 5.445145,-3.437 0.257983,-0.39796 0.37708,-0.7256 0.264584,-0.7276 -0.112495,-0.002 -0.02604,-0.12933 0.192236,-0.28216 0.303456,-0.21246 0.241175,-0.2353 -0.264583,-0.0982 -0.363802,0.0986 -0.774362,0.28476 -0.912606,0.41393 -0.563299,0.5263 -0.742407,0.18214 -0.587044,-1.12965 0.219402,-1.85253 1.116168,-3.19154 3.651973,-5.45496 l 0.6743776,-0.60203 1.563212,2.45411 c 1.8918535,2.9696 4.0676291,5.40654 4.383195,4.90926 0.1624965,-0.25607 0.2155313,-0.2371 0.2185913,0.0786 0.00303,0.3125 0.203332,0.38806 0.7978842,0.30076 0.4365615,-0.0641 0.79375,-0.23473 0.79375,-0.37931 0,-0.1446 -0.1918474,-0.18924 -0.4263306,-0.0992 -0.3132269,0.1202 -0.3829734,0.0506 -0.2630331,-0.262 0.095997,-0.25017 -0.1561402,-0.89911 -0.6123657,-1.57509 -0.6718542,-0.99551 -2.6590865,-4.90686 -2.6804565,-5.27617 -0.00414,-0.0715 -0.1882838,-0.63783 -0.4092774,-1.25832 -1.5337768,-4.30642 -2.2947142,-11.65182 -1.7352946,-16.7473 0.5481115,-4.99247 3.2193106,-13.79651 3.8560954,-12.7093 0.3734043,0.63753 2.2706625,2.87376 2.2706625,2.67632 0,-0.0836 -0.1488286,-0.40402 -0.3307292,-0.7121 -0.2645828,-0.44812 -0.2645828,-0.58426 0,-0.68006 0.5173932,-0.18737 0.4086623,-3.20573 -0.1767334,-4.90719 -0.8760521,-2.5463 -1.0316226,-6.01617 -0.269751,-6.01617 0.1315069,0 0.5402701,0.59372 0.9079549,1.31929 0.87789305,1.73244 4.1479241,6.92319 5.2327556,8.30647 1.9390595,2.47255 5.0275955,5.80032 4.9407837,5.32319 -0.1124392,-0.61798 0.043528,-0.92763 0.4774902,-0.94723 0.2766047,-0.0125 0.3298666,-0.0743 0.1322917,-0.15399 -0.1819008,-0.0734 -0.3307292,-0.30883 -0.3307292,-0.52297 0,-0.39854 -1.3656954,-2.52896 -3.2866211,-5.12682 -1.2186526,-1.64808 -1.2952615,-1.77587 -3.2530314,-5.41982 -2.87425155,-5.34977 -4.577613,-10.68264 -4.563029,-14.2875 0.016382,-4.04918 1.0476967,-7.91332 2.78587648,-10.44019 0.49979298,-0.72657 0.90847172,-1.41813 0.90847172,-1.53686 0,-0.4373 2.3820331,-2.54791 2.5941569,-2.29856 z m -31.779972,0.6537 c 0.173311,-0.002 0.388583,0.11493 0.478523,0.26045 0.203016,0.32849 0.111422,0.32849 -0.396875,0 -0.238464,-0.15411 -0.270986,-0.25845 -0.08165,-0.26045 z m 37.0308142,5.97483 c 0.1187083,0.0439 0.5115508,0.35733 1.2877768,0.9803 3.141611,2.52134 7.870231,5.47616 8.763806,5.47616 0.197796,0 0.359668,0.11906 0.359668,0.26458 0,0.14552 0.10432,0.26458 0.23151,0.26458 0.127192,0 0.761469,0.29656 1.409734,0.65888 l 1.178739,0.65835 -0.271301,1.32602 c -0.291611,1.42356 -0.567665,1.59482 -1.374077,0.85421 -0.282099,-0.25908 -0.887438,-0.70556 -1.345137,-0.99218 -3.409843,-2.13532 -8.133534,-6.36697 -9.8846681,-8.85528 -0.3195112,-0.45401 -0.4747588,-0.67953 -0.3560507,-0.63562 z M 93.68715,160.16512 c 0.224851,0.0325 0.08934,0.19375 -0.39119,0.48628 -2.665167,1.62242 -3.909112,2.44975 -6.557223,4.36046 -1.665522,1.20172 -3.119757,2.18488 -3.231844,2.18488 -0.112086,0 -0.544972,0.32742 -0.962215,0.7276 -2.564875,2.45999 -3.56972,3.24115 -4.168738,3.24115 -0.860121,0 -5.182633,1.7198 -6.630603,2.63808 -3.994186,2.53302 -6.612946,6.58709 -8.421708,13.03848 -0.459663,1.6395 -0.558222,1.77112 -0.793233,1.05833 -0.163456,-0.49576 -1.118506,-1.59116 -2.434994,-2.79208 -1.007869,-0.9194 -4.338106,-2.30115 -5.545398,-2.30115 -0.895916,0 -0.898386,-0.004 -0.896586,-1.25677 0.0024,-1.63709 0.849502,-5.13943 1.719275,-7.10758 1.756798,-3.9753 4.185528,-7.51921 7.309115,-10.66498 l 1.949751,-1.9637 9.789584,-0.045 c 9.995591,-0.046 12.983147,-0.27108 17.494022,-1.31723 0.961518,-0.22299 1.547134,-0.31931 1.771985,-0.28681 z m -96.0535683,17.7152 c 0.027818,-0.0278 0.064739,0.009 0.1069702,0.11472 0.076431,0.191 0.067248,0.41905 -0.020671,0.50695 -0.087918,0.0879 -0.1504986,-0.0684 -0.1390096,-0.34727 0.00635,-0.15411 0.024892,-0.24658 0.05271,-0.2744 z M 103.04885,196.41511 c 0.0909,0.0273 0.10056,0.16701 -0.0419,0.39739 -0.0959,0.1552 -0.30103,0.28215 -0.45578,0.28215 -0.17546,0 -0.15491,-0.15213 0.0537,-0.40359 0.18143,-0.21863 0.35305,-0.30329 0.4439,-0.27595 z m -42.222226,5.30975 -0.214458,1.71979 c -0.306263,2.46088 -0.19642,12.14136 0.171049,15.09314 0.311574,2.50277 1.378647,8.2982 1.848983,10.04228 0.137352,0.50933 0.572008,1.99761 0.96635,3.30729 0.654373,2.17331 0.692071,2.52754 0.431498,4.05918 -0.157029,0.92302 -0.349324,1.74205 -0.427364,1.82005 -0.07804,0.078 -1.069208,0.23924 -2.20245,0.35812 -4.056642,0.42555 -10.083882,0.15129 -14.743286,-0.67076 -3.063593,-0.54051 -7.822262,-2.18092 -7.822262,-2.69648 0,-0.20858 0.173458,-1.23728 0.38499,-2.28617 0.944043,-4.68106 1.975436,-17.47703 1.83348,-22.74279 -0.04217,-1.56435 0.0073,-2.84429 0.109554,-2.84427 0.102213,2e-5 1.138021,0.30311 2.302185,0.67386 4.27664,1.36195 9.30053,1.11174 11.90625,-0.59325 1.946971,-1.27396 4.035901,-3.11311 4.749064,-4.18166 z m 100.846556,12.86175 c 0.0223,-0.0223 0.0952,0.0346 0.22583,0.16433 0.18082,0.17947 0.26185,0.39289 0.18035,0.47439 -0.0815,0.0815 -0.22926,-0.0652 -0.32866,-0.32608 -0.0718,-0.18854 -0.0998,-0.29033 -0.0775,-0.31264 z m 2.04484,4.46846 c 0.0137,-0.0137 0.12091,0.0659 0.33073,0.23048 0.25466,0.19972 0.46302,0.40812 0.46302,0.46302 0,0.21776 -0.21712,0.078 -0.56276,-0.36277 -0.16455,-0.20983 -0.24465,-0.31707 -0.23099,-0.33073 z" /></g></svg>
