<?xml version="1.0" encoding="UTF-8" standalone="no"?>
<!-- Created with Inkscape (http://www.inkscape.org/) -->

<svg
   width="260.33371mm"
   height="249.42596mm"
   viewBox="0 0 260.3338 249.42594"
   version="1.1"
   id="svg1"
   xml:space="preserve"
   xmlns="http://www.w3.org/2000/svg"
   xmlns:svg="http://www.w3.org/2000/svg"><defs
     id="defs1" /><g
     id="layer1"
     transform="translate(-60.473781,12.669586)"><path
       style="fill:#000000"
       d="m 210.83714,236.41373 c -3.93454,-0.57256 -7.59308,-2.01268 -10.41603,-4.1001 -1.56417,-1.15662 -4.55549,-4.28744 -4.974,-5.20596 -0.36686,-0.80516 -0.49764,-0.82781 -5.75581,-0.99679 -7.78874,-0.25031 -13.40941,-1.43829 -20.07142,-4.2423 -1.09945,-0.46275 -1.77602,-0.61755 -1.97836,-0.45265 -0.16913,0.13783 -3.7008,0.86539 -7.84814,1.6168 -4.14734,0.75141 -10.56618,1.95859 -14.26407,2.68262 -13.96166,2.73363 -23.79462,4.20749 -28.07056,4.20749 -3.17093,0 -4.62933,-0.34292 -7.57955,-1.78221 -2.07973,-1.01461 -4.96596,-3.37975 -4.68303,-3.83754 0.0961,-0.15557 0.0562,-0.20955 -0.0887,-0.11997 -0.14495,0.0896 -0.61681,-0.21944 -1.04859,-0.68672 -4.476694,-4.84482 -7.998202,-13.9239 -9.102314,-23.4674 -0.603203,-5.21386 0.281601,-10.49903 2.449062,-14.6289 1.981737,-3.776 6.573342,-7.83996 9.980452,-8.83356 1.55167,-0.45251 4.00919,-0.35681 4.65766,0.18137 0.55573,0.46122 0.31473,-0.4145 -0.52378,-1.90321 -2.41556,-4.28864 -3.64325,-10.93603 -3.04581,-16.49165 0.6731,-6.25918 2.70321,-11.52832 5.98135,-15.52461 0.63387,-0.77273 1.1525,-1.49511 1.1525,-1.60528 0,-0.11018 -1.30359,-0.20032 -2.89687,-0.20032 -9.48464,0 -20.533134,-3.38055 -28.818548,-8.81773 -3.253237,-2.13489 -5.921771,-4.3546 -5.68862,-4.73185 0.109973,-0.17794 0.05731,-0.21497 -0.135903,-0.0956 -0.628749,0.38859 -6.69902,-6.35361 -9.223693,-10.24467 -1.432647,-2.20802 -4.021409,-7.34922 -4.957064,-9.84457 -3.189903,-8.507342 -4.222487,-19.347759 -2.7653,-29.031064 0.944387,-6.275648 4.013058,-15.680678 7.18909,-22.033518 2.889079,-5.778863 8.821946,-14.59667 13.707467,-20.372916 2.19311,-2.592956 8.189442,-8.465226 10.70298,-10.481539 6.770738,-5.431359 12.883561,-8.448062 20.645821,-10.188797 2.72445,-0.610976 3.79481,-0.71295 7.66459,-0.730211 4.75402,-0.0212 6.08874,0.163533 9.84594,1.362771 l 2.17301,0.693593 1.66846,-1.5727 c 0.91766,-0.864984 2.08292,-1.886923 2.58949,-2.270974 0.50656,-0.384051 1.49222,-1.131723 2.19036,-1.661492 0.69814,-0.52977 1.40114,-0.881759 1.56223,-0.782199 0.16926,0.104606 0.21869,0.06095 0.11711,-0.103417 -0.41197,-0.6665804 8.24428,-5.4135303 12.92632,-7.0885914 2.22694,-0.7967171 2.38982,-0.9055413 2.51354,-1.6793514 0.20357,-1.27323918 1.38896,-2.5536546 2.81349,-3.0390435 1.54417,-0.5261486 4.69791,-0.540227 6.8328,-0.030502 0.86707,0.2070218 1.6195,0.3334039 1.67205,0.280849 0.0526,-0.052555 -0.18062,-0.7321931 -0.51816,-1.5103072 -0.49428,-1.1394084 -0.61372,-1.886453 -0.61372,-3.8384037 0,-2.2727414 0.0501,-2.4950054 0.80475,-3.5696298 2.11518,-3.012039 4.15694,-3.055717 12.55671,-0.26862 6.46008,2.143497 8.53326,2.6976219 17.06562,4.5613471 16.56899,3.6191664 23.10768,5.85423553 32.27916,11.0337285 2.80491,1.5840387 6.38288,3.9436974 7.02507,4.6330041 0.28356,0.3043657 0.51556,0.4663393 0.51556,0.3599409 0,-0.250164 3.31086,2.3736614 5.68854,4.5081214 1.01865,0.914444 2.62599,2.553437 3.57188,3.642209 0.94588,1.088771 1.79271,1.983617 1.88184,1.988545 0.0891,0.0049 0.62492,-0.36518 1.19063,-0.822465 1.35271,-1.09344 4.79662,-2.69192 7.11398,-3.301929 2.67199,-0.703358 11.20595,-0.70722 14.41979,-0.0065 2.91117,0.634701 7.34283,2.115484 9.37693,3.133177 11.81628,5.911866 21.80551,17.239102 30.17072,34.211911 8.67538,17.602134 11.7359,32.174921 9.7683,46.512159 -1.41888,10.338934 -7.02924,20.745624 -15.29184,28.364924 -2.98518,2.75276 -6.70191,5.49852 -7.1054,5.24915 -0.15265,-0.0943 -0.20475,-0.0537 -0.11576,0.0902 0.20547,0.33246 -3.22453,2.37905 -6.76488,4.03642 -4.61452,2.16023 -10.12362,3.75408 -16.05537,4.64501 -3.57478,0.53693 -11.53276,0.52522 -14.69832,-0.0216 -1.30969,-0.22624 -2.91301,-0.48068 -3.56293,-0.5654 l -1.18168,-0.15406 0.4763,0.72692 c 2.57624,3.93184 6.96054,11.79942 9.2242,16.55271 3.77073,7.9179 6.94193,18.37264 7.90513,26.06146 0.36277,2.89584 0.46784,11.20796 0.15635,12.36927 -0.2734,1.01932 0.0771,0.88073 1.00555,-0.39759 1.09977,-1.5142 2.93164,-2.40816 5.19705,-2.53616 0.98713,-0.0558 2.18104,0.0332 2.65314,0.19781 1.29067,0.44993 1.95548,-0.36177 2.70778,-3.30608 0.54616,-2.13753 1.55716,-4.60746 1.88595,-4.60746 0.0715,0 0.0555,0.46587 -0.0355,1.03527 -0.12718,0.79537 -0.0122,1.36248 0.49624,2.44739 0.90892,1.93948 1.36699,4.81275 1.34293,8.42359 -0.0247,3.71358 -0.52918,5.98952 -1.97777,8.92354 -1.06781,2.16276 -2.67992,4.23975 -3.1828,4.10064 -0.14454,-0.04 -0.19429,0.0382 -0.11055,0.17365 0.24903,0.40294 -2.47472,2.66072 -4.34783,3.604 -0.9572,0.48205 -2.49685,1.12478 -3.42143,1.4283 -1.63679,0.53733 -6.81846,1.19331 -7.48773,0.94792 -0.47048,-0.17251 -0.77147,0.0919 -1.73682,1.5256 -0.46541,0.69122 -1.19711,1.77076 -1.62602,2.39898 -1.08431,1.5882 -4.57049,4.85935 -6.62851,6.21966 -7.18251,4.7475 -17.66971,7.46928 -33.3375,8.6522 -6.07552,0.45871 -10.63534,0.45931 -13.77915,0.002 z m 15.11533,-3.06388 c 5.715,-0.4451 13.4597,-1.67656 18.27326,-2.90557 15.75487,-4.02258 23.65771,-13.8806 25.91154,-32.32215 0.49767,-4.07213 0.18558,-12.50089 -0.62511,-16.88262 -1.57849,-8.53163 -4.2323,-16.00459 -8.83216,-24.87084 -2.61397,-5.03844 -3.74579,-7.00611 -3.92619,-6.82571 -0.0569,0.0569 0.0643,0.73936 0.26933,1.51658 1.09968,4.16868 1.02977,11.9937 -0.14886,16.66283 -0.49006,1.94139 -3.34538,8.11043 -3.01113,6.50568 0.98203,-4.71468 1.48777,-16.11787 0.93005,-20.97038 -0.55821,-4.85681 -2.10576,-11.14262 -3.12701,-12.70124 -0.35829,-0.54683 -4.71365,-3.65153 -6.35394,-4.52939 -0.4939,-0.26432 -0.97517,-0.15086 -3.16474,0.74611 -1.42024,0.58181 -3.77288,1.42469 -5.22809,1.87308 -1.45521,0.44839 -2.91933,0.92844 -3.2536,1.06677 -0.33427,0.13833 -0.84028,0.25151 -1.12448,0.25151 -0.90413,0 -0.56699,0.4181 1.38237,1.71434 1.0445,0.69454 2.46007,1.78753 3.1457,2.42886 1.32977,1.24384 3.48849,4.28742 3.81716,5.3818 0.10926,0.3638 0.32665,0.84005 0.4831,1.05833 0.15644,0.21828 -0.30461,-0.14934 -1.02457,-0.81694 -2.06091,-1.91104 -6.07452,-4.66651 -8.73531,-5.99709 -4.37086,-2.18571 -10.5028,-3.29142 -15.21722,-2.74395 -2.02846,0.23556 -4.22892,0.93671 -4.2015,1.33876 0.006,0.0822 0.39256,0.39715 0.8599,0.69993 0.46733,0.30277 0.81698,0.69857 0.777,0.87956 -0.04,0.18099 0.0433,0.25735 0.18516,0.1697 0.35618,-0.22014 0.89036,0.85617 0.72975,1.47036 -0.0723,0.27637 -0.0359,0.44347 0.0808,0.37135 0.36036,-0.22271 0.53234,0.62183 0.52935,2.59944 -0.004,2.5055 -0.57269,4.29667 -1.74653,5.49879 -0.59915,0.61358 -0.83732,1.03331 -0.65151,1.14815 0.16108,0.0995 0.213,0.31024 0.11538,0.46819 -0.10103,0.16347 -0.0554,0.2117 0.10604,0.11195 0.2791,-0.17249 0.89488,1.39656 1.25467,3.19702 0.21931,1.09741 -0.33215,3.8476 -0.72306,3.60601 -0.16836,-0.10405 -0.20971,-0.0534 -0.10056,0.12326 0.10198,0.16499 0.0581,0.53784 -0.0975,0.82855 -0.2473,0.4621 -0.16646,0.57719 0.64301,0.91541 1.22684,0.5126 2.10658,1.35004 1.85161,1.76258 -0.13027,0.21079 -0.0919,0.2581 0.10881,0.13407 0.46434,-0.28698 1.34648,1.87565 1.35333,3.31778 0.0113,2.38623 -1.27149,4.6896 -3.22249,5.78612 -0.55697,0.31304 -0.951,0.66895 -0.87562,0.79091 0.2012,0.32556 3.27125,0.7562 6.78205,0.95132 1.69125,0.094 3.22217,0.26186 3.40205,0.37303 0.29982,0.1853 -1.11376,1.01526 -2.41713,1.41919 -0.38883,0.1205 -0.39903,0.2491 -0.0908,1.14559 0.32534,0.94636 0.4028,1.00155 1.23175,0.8778 0.48652,-0.0726 3.38489,-0.12849 6.44083,-0.12413 4.69978,0.007 6.02526,0.10105 8.59895,0.61211 1.67349,0.3323 3.59704,0.79919 4.27456,1.03752 l 1.23185,0.43333 1.0811,-0.7492 c 1.71337,-1.18736 4.81258,-4.5933 6.24951,-6.86801 1.44327,-2.28474 1.75594,-2.17581 1.19968,0.41795 -0.46725,2.17872 -1.71364,4.44488 -3.54499,6.44543 l -1.70838,1.86621 1.71265,1.04421 c 1.59125,0.97018 3.56141,2.81936 4.44611,4.17306 0.20679,0.31642 0.6877,1.28098 1.06869,2.14347 0.7396,1.67432 0.70405,1.67657 -1.04447,0.066 -1.48817,-1.37078 -5.85013,-4.12806 -7.80728,-4.93512 -5.14634,-2.12218 -8.82771,-2.76154 -15.89028,-2.75975 -4.49718,0.001 -5.87903,0.0968 -8.08726,0.55977 -2.88626,0.60515 -4.61274,1.21843 -4.61274,1.63855 0,0.14609 0.47621,0.6483 1.05823,1.11603 0.58203,0.46773 0.99502,0.91364 0.91775,0.99091 -0.0773,0.0773 0.0848,0.26573 0.36019,0.41882 1.60991,0.89497 5.56542,6.73838 7.16933,10.59114 1.11481,2.67789 2.29181,7.38789 2.67825,10.71756 0.5476,4.71818 -0.0495,12.12566 -1.10862,13.75394 -0.20761,0.31917 -0.23691,0.27879 -0.13789,-0.19004 0.0692,-0.32742 0.0735,-0.59531 0.01,-0.59531 -0.0638,0 -0.22373,0.26789 -0.35534,0.59531 -0.22062,0.54888 -0.24132,0.55404 -0.26543,0.0661 -0.0236,-0.47814 -0.0649,-0.46539 -0.42817,0.13229 l -0.40201,0.66146 0.11693,-0.66146 c 0.0643,-0.3638 0.32713,-1.55443 0.58404,-2.64584 0.72067,-3.06154 0.67336,-10.37648 -0.09,-13.91815 -0.60398,-2.80216 -1.69141,-6.30525 -2.37005,-7.63499 l -0.3998,-0.78335 -0.4483,1.7094 c -0.61129,2.33086 -1.15076,3.27367 -2.26835,3.96439 -0.54385,0.33611 -0.89205,0.73378 -0.81601,0.93194 0.16547,0.4312 -1.90661,-0.94809 -2.61818,-1.7428 -1.14554,-1.27941 -5.14531,-3.61069 -7.46254,-4.34957 -1.27746,-0.40734 -2.49039,-0.81934 -2.69538,-0.91557 -0.6827,-0.32045 -5.57275,0.70332 -6.60286,1.38236 -1.82231,1.20127 -2.4818,1.56669 -2.3018,1.27546 0.11102,-0.17964 -0.0466,-0.29203 -0.40965,-0.29203 -0.35403,0 -1.04658,-0.47637 -1.73096,-1.19063 -0.62745,-0.65484 -1.18998,-1.19062 -1.25007,-1.19062 -0.0601,0 -0.31617,1.10133 -0.56906,2.44739 -0.56142,2.98828 -0.64434,10.24619 -0.15038,13.16302 1.46636,8.65896 4.51292,13.90966 9.92241,17.10115 1.90067,1.12135 4.75009,2.10515 7.04737,2.4332 2.40584,0.34354 10.8552,0.36161 15.0841,0.0323 z m -105.01473,-6.61561 c 1.50701,-0.15301 4.94267,-0.63213 7.63481,-1.06473 5.83479,-0.93759 33.22389,-5.98161 34.925,-6.43185 l 1.19062,-0.31512 -0.95901,-0.65328 c -2.22798,-1.51771 -5.4118,-4.95289 -7.26163,-7.83496 -1.31066,-2.04204 -2.57219,-4.83615 -3.43961,-7.61828 -0.38788,-1.24406 -0.80879,-2.26193 -0.93534,-2.26193 -0.37499,0 -5.80748,-3.29176 -7.38192,-4.47299 -4.69881,-3.52531 -9.68817,-9.30548 -12.35429,-14.31243 -0.91246,-1.7136 -1.66727,-2.1655 -4.71719,-2.82414 -3.30714,-0.71419 -11.50205,-0.61056 -11.50205,0.14545 0,0.11425 0.50602,0.57297 1.12448,1.01936 0.61847,0.4464 1.3756,1.03213 1.68252,1.30163 1.94052,1.7039 3.05052,2.73895 2.93728,2.73895 -0.0719,0 0.39425,0.56555 1.03579,1.25677 3.13613,3.37899 6.45048,10.45254 7.91242,16.88683 0.39232,1.72668 0.84558,12.08748 0.47371,10.82828 l -0.15628,-0.52917 -0.21032,0.52917 c -0.19711,0.49592 -0.21149,0.49079 -0.22892,-0.0818 -0.0102,-0.33601 -0.11973,-0.54843 -0.24334,-0.47203 -0.1236,0.0764 -0.30372,-1.33844 -0.40024,-3.14407 -0.22801,-4.26509 -0.76862,-7.29143 -1.91529,-10.72193 -1.22451,-3.66337 -2.84889,-7.02695 -4.7277,-9.78959 -0.84121,-1.23692 -1.53442,-2.39778 -1.54047,-2.57968 -0.006,-0.18191 -0.074,-0.26775 -0.15097,-0.19077 -0.22809,0.2281 -3.72936,-3.38365 -3.55447,-3.66663 0.0881,-0.1426 0.0327,-0.18047 -0.12307,-0.0842 -0.15582,0.0963 -1.00595,-0.32357 -1.88917,-0.93305 -0.88323,-0.60948 -1.67874,-1.03528 -1.7678,-0.94622 -0.0891,0.0891 0.11035,0.85475 0.44313,1.70154 0.49198,1.25187 0.60623,2.05881 0.61132,4.31773 0.004,1.79659 -0.13068,3.15204 -0.38136,3.83646 l -0.38762,1.05833 -1.913,0.17094 c -3.6251,0.32391 -6.05278,1.17792 -7.31579,2.57353 -0.27393,0.30269 -0.60416,0.48477 -0.73384,0.40463 -0.12967,-0.0802 -0.20306,-0.0331 -0.16307,0.10464 0.04,0.13769 -0.6138,0.97312 -1.45284,1.85649 l -1.52555,1.60615 -0.88348,-0.36915 c -0.982941,-0.41069 -2.392074,-1.88245 -2.703955,-2.82411 -0.711655,-2.1487 -0.473645,5.04318 0.290963,8.79197 1.606294,7.87547 4.604822,14.37683 8.463002,18.34934 2.68763,2.76726 5.40039,4.21129 8.7296,4.64686 2.30912,0.3021 2.46046,0.30202 5.46494,-0.003 z m 72.24179,-3.56283 c 0.0753,-0.0753 -0.20932,-1.11505 -0.6324,-2.31063 -1.03276,-2.91845 -1.77972,-7.46063 -1.97973,-12.03846 -0.10756,-2.46175 -0.26522,-3.76743 -0.45427,-3.762 -0.15925,0.005 -1.59923,0.24556 -3.19996,0.53552 -1.77296,0.32116 -4.77543,0.59115 -7.68244,0.69084 -7.44522,0.2553 -13.30309,-0.52721 -19.37348,-2.58799 -1.70862,-0.58004 -3.3191,-1.12312 -3.57886,-1.20685 -0.43743,-0.141 -0.43119,-0.0473 0.0846,1.27011 1.94566,4.96935 5.30333,9.23837 9.64808,12.26681 5.48453,3.82291 11.01464,5.75301 19.31458,6.74113 3.79125,0.45136 7.60885,0.64653 7.85386,0.40152 z m 79.45864,-8.85705 c 5.53348,-0.90481 10.46773,-5.14769 12.31013,-10.58527 0.61222,-1.80687 1.08562,-7.40999 0.62577,-7.40659 -0.12975,9.6e-4 -0.59309,0.24029 -1.02965,0.53186 -0.70765,0.4726 -1.06642,0.51196 -3.3073,0.36282 -1.94556,-0.12949 -2.72986,-0.0767 -3.47085,0.23382 -2.19671,0.92042 -3.46824,4.24466 -2.58868,6.76777 0.33202,0.95242 0.65814,1.06662 0.89698,0.31408 0.15608,-0.49176 3.5667,-3.81073 3.73895,-3.63848 0.0447,0.0447 -0.0825,0.62562 -0.28277,1.29092 -1.15807,3.84798 -3.67805,6.39777 -7.54137,7.63058 -1.42298,0.45408 -1.45278,0.48499 -2.1982,2.28 -0.41562,1.00082 -0.82102,1.9685 -0.90088,2.15041 -0.18049,0.41108 1.46716,0.44101 3.74787,0.0681 z m 0.5107,-7.68834 c 0.15099,-0.14763 0.002,-0.76089 -0.38438,-1.58677 -0.7042,-1.50348 -0.84934,-1.3895 -1.19889,0.9415 l -0.18943,1.2632 0.76329,-0.18865 c 0.41981,-0.10376 0.87404,-0.29694 1.00941,-0.42928 z m -91.30653,-3.55473 c 2.19176,-0.12616 7.14236,-0.89515 8.68012,-1.34831 0.28428,-0.0838 0.49799,-0.55904 0.61873,-1.37604 0.41322,-2.79602 1.65426,-6.60133 3.08202,-9.45014 0.97719,-1.9498 1.02388,-2.13753 0.59224,-2.38125 -0.25772,-0.14552 -0.97324,-0.77813 -1.59004,-1.4058 -3.31536,-3.37377 -2.19413,-9.44282 2.1359,-11.56131 1.67004,-0.81708 4.18759,-0.93854 5.76336,-0.27806 2.46933,1.03501 4.15329,3.52244 4.22835,6.24583 0.0243,0.88174 0.11999,1.65002 0.21265,1.70728 0.0926,0.0573 0.69625,-0.0799 1.34131,-0.30483 1.41962,-0.495 3.65758,-0.35429 5.06155,0.31823 0.96716,0.46328 0.99612,0.46061 2.54663,-0.23522 0.86259,-0.38711 1.75763,-0.70383 1.98897,-0.70383 0.51695,0 0.96841,-0.79365 0.96841,-1.7024 0,-0.58869 -0.1142,-0.67937 -0.85989,-0.68276 -1.26661,-0.006 -3.89665,-0.67687 -5.59349,-1.42729 -1.67433,-0.74047 -3.57778,-2.52408 -4.38751,-4.11129 -0.76142,-1.4925 -1.4029,-4.44854 -1.23744,-5.7023 0.10785,-0.81717 0.0218,-1.18388 -0.37771,-1.60927 -0.83032,-0.88414 -1.59673,-3.47523 -1.75019,-5.91704 -0.11687,-1.85969 -0.0455,-2.53607 0.40037,-3.79311 0.4917,-1.38631 0.50697,-1.61512 0.16278,-2.4389 -0.7594,-1.81749 -0.30553,-5.77088 0.9688,-8.43867 2.7585,-5.77488 8.38318,-8.98892 14.98897,-8.56499 1.05526,0.0677 1.91865,0.0502 1.91865,-0.0389 0,-0.30909 -2.59008,-3.9807 -4.47958,-6.35011 -6.30168,-7.90219 -16.27242,-14.18004 -24.45398,-15.39689 l -2.05214,-0.30522 -0.97746,0.78271 c -2.56109,2.0508 -3.88301,7.71346 -2.83655,12.15081 0.3929,1.66605 0.78687,2.45023 2.6913,5.35687 0.76155,1.16231 1.20137,2.20042 1.41744,3.34557 0.60468,3.20469 -0.52557,7.21433 -2.774,9.8409 -1.1744,1.37191 -3.71552,2.65616 -5.70065,2.88103 -2.69574,0.30537 -8.11771,-0.91024 -11.47654,-2.57303 -3.52085,-1.743 -6.01323,-3.73615 -8.89073,-7.1099 -0.93087,-1.09141 -1.77798,-1.95781 -1.88247,-1.92533 -0.10449,0.0325 -0.50926,0.35495 -0.8995,0.71661 -1.49753,1.38787 -5.38719,1.89646 -7.42515,0.97089 -2.2037,-1.00086 -3.77267,-3.64539 -3.47582,-5.85859 0.31894,-2.37788 2.39083,-4.98478 4.40687,-5.54483 0.51884,-0.14413 1.40371,-0.26272 1.96638,-0.26353 0.93379,-10e-4 1.00847,-0.0534 0.85596,-0.59679 -0.83778,-2.98495 -1.2674,-4.94107 -1.55447,-7.0776 -0.32791,-2.44057 -0.35673,-2.51141 -0.99258,-2.43998 -2.17478,0.24429 -7.61969,3.77932 -11.16219,7.24688 -3.42786,3.35535 -8.0475,9.74839 -7.42522,10.27564 0.113,0.0958 0.68171,0.30987 1.26379,0.47584 1.55437,0.44318 4.58487,2.4919 5.62745,3.80433 2.08013,2.61856 2.85199,5.24286 2.64493,8.99261 -0.14117,2.55634 -0.45507,3.62806 -1.36458,4.65894 -0.46179,0.52343 -0.52206,0.91149 -0.45763,2.94672 0.0944,2.98102 -0.70098,6.17033 -1.94528,7.80045 -0.68232,0.89388 -0.87773,1.44509 -1.00841,2.84452 -0.40766,4.36561 -2.55991,7.10144 -6.09266,7.74471 -0.58464,0.10646 -0.97394,0.31637 -0.92604,0.49932 0.29139,1.11298 3.24883,6.12526 5.04364,8.54798 6.9059,9.32194 17.0904,15.57779 29.24973,17.9667 3.29234,0.64683 9.60153,1.19725 11.69447,1.02022 0.50933,-0.0431 2.09698,-0.14573 3.52813,-0.2281 z m -12.34828,-5.62606 c -0.0661,-0.10914 0.046,-0.35196 0.24897,-0.53959 0.203,-0.18764 0.37092,-0.24717 0.37315,-0.1323 0.002,0.11488 0.12129,0.0303 0.26458,-0.188 0.23159,-0.35278 0.29271,-0.35278 0.55008,0 0.25258,0.34621 0.27259,0.34315 0.15677,-0.024 -0.073,-0.23148 -0.0266,-0.58867 0.10328,-0.79375 0.16699,-0.2638 0.23724,-0.12404 0.2401,0.4777 0.003,0.57299 -0.16297,0.93998 -0.50772,1.12448 -0.60064,0.32145 -1.25923,0.35622 -1.42921,0.0755 z m 8.68236,-0.32858 c -2.45416,-1.21482 -3.31686,-4.48459 -1.85048,-7.0136 2.17945,-3.75884 7.12399,-3.59299 9.03006,0.30288 0.79787,1.6308 0.74193,2.92591 -0.19866,4.59947 -1.24383,2.21309 -4.67739,3.25151 -6.98092,2.11125 z m 0.23347,-2.2511 c -0.12406,-0.3233 0.11899,-0.39688 1.31092,-0.39688 1.17088,0 1.61873,-0.13085 2.2416,-0.65496 0.9606,-0.8083 1.24943,-2.21363 0.71689,-3.48817 -0.33367,-0.7986 -0.33049,-0.8734 0.0286,-0.67245 0.22221,0.12436 0.63344,0.57413 0.91384,0.99949 0.28041,0.42536 0.51061,0.60603 0.51157,0.40148 0.003,-0.70012 -1.31473,-2.09847 -2.27736,-2.41617 -1.33245,-0.43975 -2.76746,0.0676 -3.92441,1.38748 -1.47741,1.68546 -1.5021,3.5136 -0.0645,4.77403 0.64563,0.56604 0.73903,0.57743 0.54283,0.0662 z m 4.26995,0.13229 c 0.0899,-0.14552 0.39462,-0.26458 0.67707,-0.26458 0.31425,0 0.51198,-0.17969 0.5095,-0.46303 -0.002,-0.26191 -0.0885,-0.34789 -0.19844,-0.19795 -0.10691,0.14579 -0.6111,0.4656 -1.12042,0.71069 -0.51982,0.25013 -0.72978,0.45303 -0.47864,0.46253 0.24607,0.009 0.52099,-0.10214 0.61093,-0.24766 z m -13.89063,1.33853 c 0,-0.13693 0.1177,-0.32171 0.26156,-0.41062 0.14998,-0.0927 0.19433,0.0135 0.10398,0.24897 -0.17589,0.45837 -0.36554,0.54224 -0.36554,0.16165 z m -14.20041,-3.70328 c -3.34129,-1.51706 -4.69315,-5.08012 -3.16914,-8.3528 1.2346,-2.65118 3.64925,-3.99757 6.76902,-3.77435 1.55142,0.111 2.02972,0.27061 3.0801,1.0278 3.4505,2.48738 3.84919,7.08241 0.86289,9.94496 -0.48569,0.46557 -1.32574,1.03111 -1.86677,1.25677 -1.38764,0.57877 -4.29124,0.5264 -5.6761,-0.10238 z m 4.70847,-2.77847 c 1.11246,-0.75593 1.76906,-1.99565 1.87533,-3.54074 0.0817,-1.18777 0.17378,-1.28695 0.71952,-0.77489 0.78184,0.73358 -0.006,-1.52112 -0.82806,-2.369 -1.46125,-1.50763 -3.84193,-1.87289 -6.04156,-0.92695 -2.03024,0.87311 -3.3557,3.52654 -2.82549,5.65634 0.27323,1.09753 1.13372,2.02911 2.03451,2.20259 0.33351,0.0642 0.66964,0.18004 0.74697,0.25736 0.0773,0.0773 0.86701,0.14059 1.75486,0.14059 1.27515,0 1.81378,-0.13556 2.56392,-0.6453 z m -14.14726,-5.13022 c -0.5518,-0.60973 -0.5549,-1.20825 -0.0106,-2.03899 0.49349,-0.75318 1.69473,-0.88642 2.22552,-0.24685 0.2954,0.35594 0.24891,0.37205 -0.3817,0.13229 -1.07346,-0.40813 -1.36188,-0.34009 -1.69949,0.4009 -0.45869,1.0067 -0.37715,1.42217 0.34356,1.75054 0.80778,0.36805 1.89571,-0.24157 2.07222,-1.16116 l 0.11552,-0.60183 0.036,0.585 c 0.0442,0.71744 -0.91864,1.66396 -1.69264,1.66396 -0.31381,0 -0.76761,-0.21774 -1.00845,-0.48386 z m 30.30368,-2.70145 c -0.67132,-0.62543 -0.70175,-0.93275 -0.1824,-1.84178 0.37183,-0.6508 0.37701,-0.64441 0.32136,0.39688 -0.0511,0.95688 0.009,1.06591 0.62269,1.13739 0.51903,0.0604 0.75491,-0.087 1.00001,-0.62493 0.37467,-0.82231 0.0737,-1.35747 -0.83858,-1.49115 -0.48518,-0.0711 -0.50569,-0.11303 -0.12996,-0.26569 0.63366,-0.25746 1.80282,0.73358 1.80282,1.52816 0,0.75548 -0.85454,1.70059 -1.53761,1.70059 -0.2636,0 -0.73985,-0.24276 -1.05833,-0.53947 z m -9.4748,-3.2803 c -1.13589,-0.49436 -1.68759,-1.38267 -1.68759,-2.71722 0,-1.6832 1.04002,-2.7485 2.85341,-2.92274 1.28733,-0.1237 1.42098,-0.0771 2.29939,0.80129 0.72638,0.72638 0.93261,1.14614 0.93261,1.89825 0,2.52233 -2.11276,3.93494 -4.39782,2.94042 z m 2.74418,-1.81633 c 0.82054,-0.74645 0.77617,-1.85614 -0.10183,-2.54678 -1.02019,-0.80248 -2.03173,-0.70822 -2.85122,0.26568 -0.88592,1.05286 -0.86452,1.63367 0.0898,2.43666 0.90118,0.7583 1.91949,0.70298 2.86326,-0.15556 z m -25.68967,-0.29745 c -1.80293,-0.65813 -2.91578,-2.05082 -3.23527,-4.0488 -0.13108,-0.81978 -0.0202,-1.33106 0.5199,-2.39687 1.67636,-3.30814 5.83644,-3.64894 7.9397,-0.65043 1.44699,2.06291 0.87018,4.92799 -1.29664,6.4405 -1.32005,0.92143 -2.60974,1.1367 -3.92769,0.6556 z m 4.02097,-3.72374 c -0.0154,-0.54449 -0.0623,-0.62758 -0.14965,-0.26458 -0.19472,0.80954 -0.55717,1.08015 -0.93582,0.6987 -0.26518,-0.26714 -0.23896,-0.29824 0.13229,-0.1569 0.37596,0.14313 0.46302,0.03 0.46302,-0.60169 0,-0.42788 0.0828,-0.86078 0.18405,-0.96201 0.25303,-0.25302 0.35383,-1.00942 0.20132,-1.51069 -0.195,-0.64093 -2.12488,-1.61389 -2.96175,-1.49318 -1.182,0.17049 -1.59997,0.44591 -2.18729,1.44134 -0.78316,1.32736 -0.63946,2.8794 0.33359,3.60308 0.82625,0.6145 2.49932,0.72738 2.83083,0.19099 0.26065,-0.42175 0.8055,-0.14724 0.8055,0.40583 0,0.32634 0.11162,0.31237 0.65315,-0.0818 0.45715,-0.33272 0.64643,-0.71356 0.63076,-1.26912 z m 30.28495,0.39503 c -0.60937,-0.24552 -1.14177,-1.02481 -1.14177,-1.67124 0,-0.21173 0.24401,-0.66604 0.54225,-1.00958 l 0.54225,-0.62462 -0.41675,0.85989 c -0.27699,0.57151 -0.31625,0.8599 -0.11707,0.8599 0.16482,0 0.23692,0.16356 0.1602,0.36347 -0.0806,0.21012 0.13795,0.51194 0.51809,0.71538 0.82783,0.44305 1.44275,0.10269 1.72566,-0.95515 0.23281,-0.8705 -0.26043,-1.60962 -1.19633,-1.79268 -0.48146,-0.0942 -0.4634,-0.11652 0.11892,-0.14707 0.74174,-0.0389 1.39187,0.53599 1.68179,1.48723 0.13869,0.45505 -0.006,0.78574 -0.60981,1.38907 -0.85354,0.85354 -0.93455,0.87709 -1.80743,0.5254 z m 7.51473,-4.77036 c -4.0378,-1.0094 -5.88931,-4.60991 -4.40737,-8.57075 1.56941,-4.19462 7.0707,-5.50961 10.25999,-2.45249 1.76487,1.69174 2.45182,3.94955 1.90067,6.24699 -0.82825,3.45252 -4.35578,5.62559 -7.75329,4.77625 z m -0.11866,-2.54509 c -0.17913,-0.0725 -0.53632,-0.0769 -0.79375,-0.01 -0.25743,0.0671 -0.11087,0.12638 0.3257,0.13178 0.43656,0.005 0.64719,-0.0495 0.46805,-0.12197 z m 3.58762,-1.11706 c 1.08544,-0.77291 1.63287,-1.84376 1.63287,-3.19417 0,-0.58931 0.10094,-1.07147 0.22432,-1.07147 0.12337,0 0.23404,-0.34197 0.24592,-0.75993 0.0306,-1.0758 -1.30625,-2.26477 -3.02788,-2.69297 -1.206,-0.29996 -1.51401,-0.28386 -2.61517,0.13667 -1.59039,0.60738 -2.58985,1.56219 -3.13071,2.99085 -0.54247,1.43293 -0.54216,2.50693 0.001,3.57966 0.88904,1.75567 1.06537,1.84106 3.55675,1.72243 1.82264,-0.0868 2.43141,-0.22584 3.11285,-0.71107 z m -28.18746,-1.47393 c -4.44033,-1.38783 -5.97876,-6.88496 -2.95385,-10.5547 1.89929,-2.30417 5.60244,-3.07781 8.30375,-1.73478 1.52138,0.7564 3.1686,2.72328 3.59171,4.28871 0.38467,1.4232 0.1652,3.53823 -0.50271,4.84457 -1.43982,2.81608 -5.12152,4.19306 -8.4389,3.1562 z m 0.11534,-2.68698 c -0.0879,-0.0879 -0.31612,-0.0973 -0.50712,-0.0209 -0.21107,0.0845 -0.14837,0.14716 0.15985,0.15985 0.27892,0.0115 0.43519,-0.051 0.34727,-0.13896 z m 3.8068,-0.94768 c 0.70454,-0.39598 1.23506,-0.99176 1.6823,-1.88926 0.35929,-0.72099 0.58648,-1.41893 0.50487,-1.55097 -0.0816,-0.13204 -0.0719,-0.4394 0.0216,-0.68301 0.11857,-0.30898 0.22779,-0.34938 0.36116,-0.13359 0.11155,0.18049 0.33643,0.21958 0.53988,0.0938 0.73024,-0.45132 -1.19155,-2.96146 -2.77333,-3.62236 -2.14775,-0.89739 -5.2371,0.0684 -6.62501,2.07122 -1.42372,2.05442 -0.76174,5.66039 1.11299,6.06272 1.84318,0.39556 4.12494,0.24188 5.17554,-0.34859 z m 2.61486,-1.67059 c 0,-0.21829 -0.0468,-0.39688 -0.10399,-0.39688 -0.0572,0 -0.17251,0.17859 -0.25628,0.39688 -0.0838,0.21828 -0.037,0.39687 0.10399,0.39687 0.14095,0 0.25628,-0.17859 0.25628,-0.39687 z m 0.18074,-1.76941 c -0.0845,-0.21106 -0.14716,-0.14837 -0.15986,0.15986 -0.0115,0.27891 0.0511,0.43518 0.13897,0.34726 0.0879,-0.0879 0.0973,-0.31612 0.0209,-0.50712 z m 32.35627,6.67093 c 0.6859,-0.6859 0.94434,-1.76356 0.53982,-2.25098 -0.31781,-0.38292 -1.43349,-0.39523 -2.14867,-0.0237 -0.20283,0.10537 -0.0877,-0.0556 0.25583,-0.35774 0.74771,-0.65757 1.05457,-0.68061 1.83005,-0.13744 0.86026,0.60254 0.67599,2.43045 -0.31147,3.08979 -0.57684,0.38517 -0.67704,0.19154 -0.16556,-0.31994 z m -2.11524,-0.14542 c -0.18407,-0.2218 -0.28344,-0.45451 -0.22082,-0.51713 0.0626,-0.0626 0.2592,0.11884 0.43682,0.40327 0.38413,0.61508 0.25602,0.68261 -0.216,0.11386 z m -2.24365,-12.92208 c -1.7146,-0.77912 -2.3649,-2.44968 -1.63427,-4.19831 0.46876,-1.1219 1.67606,-1.84944 3.13237,-1.88763 1.18147,-0.031 2.42304,0.99886 2.88245,2.39088 0.74444,2.25568 -2.15882,4.70462 -4.38055,3.69506 z m 2.71198,-2.08423 c 0.68893,-0.64536 0.80522,-2.0785 0.20881,-2.57347 -0.21257,-0.17642 -0.85836,-0.38406 -1.43509,-0.46141 -0.87989,-0.11802 -1.15826,-0.031 -1.73017,0.54092 -0.90694,0.90694 -0.87537,1.87544 0.0927,2.84351 0.68775,0.68775 0.85773,0.74263 1.52135,0.49119 0.4109,-0.15569 1.01499,-0.53402 1.34241,-0.84074 z m -51.99447,-2.32717 c -0.68513,-0.27525 -1.20797,-1.415 -0.97943,-2.13507 0.21961,-0.69193 1.60697,-1.6117 2.28011,-1.51162 0.31257,0.0465 0.8062,0.40432 1.09695,0.79524 0.46789,0.62907 0.48947,0.80534 0.18772,1.53383 -0.26983,0.65141 -1.49387,1.66247 -1.90691,1.5751 -0.0436,-0.009 -0.3489,-0.12509 -0.67844,-0.25748 z m 1.98822,-0.84886 c 0.1819,-0.14553 0.33073,-0.37611 0.33073,-0.5124 0,-0.13629 -0.14883,-0.16378 -0.33073,-0.0611 -0.26458,0.14938 -0.26458,0.11546 0,-0.16959 0.52452,-0.5651 0.38733,-1.18911 -0.34795,-1.58262 -0.49224,-0.26344 -0.80115,-0.28676 -1.12448,-0.0849 -0.64803,0.40459 -1.04986,1.33342 -0.90491,2.09167 0.10304,0.53902 0.1958,0.60221 0.50601,0.34476 0.20891,-0.17338 0.35902,-0.20579 0.33357,-0.072 -0.10386,0.54606 0.0458,0.66674 0.61172,0.49325 0.32742,-0.10038 0.74414,-0.30157 0.92604,-0.4471 z m 53.92418,-3.62246 c -1.13202,-1.25086 0.97807,-3.13757 2.23592,-1.99923 0.65819,0.59566 0.67695,1.49989 0.043,2.07359 -0.51353,0.46474 -1.5074,0.61254 -1.24308,0.18485 0.086,-0.13916 0.30882,-0.19453 0.49513,-0.12304 0.55299,0.2122 1.07964,-1.03618 0.72034,-1.70753 -0.32658,-0.61021 -0.83803,-0.70823 -1.59146,-0.305 -0.72182,0.3863 -0.8799,1.0763 -0.37452,1.63473 0.24515,0.27089 0.3862,0.55206 0.31344,0.62482 -0.0728,0.0728 -0.34222,-0.0997 -0.59879,-0.38319 z m -7.34243,-6.49879 c -3.08375,-1.13351 -4.70694,-4.52916 -3.52138,-7.3666 0.98509,-2.35765 3.17343,-3.86259 5.63146,-3.87281 3.30932,-0.0138 5.99191,2.54337 5.96489,5.6859 -0.0341,3.96893 -4.33633,6.92774 -8.07497,5.55351 z m 3.6955,-3.36752 c 0.47647,-0.28625 1.04201,-0.86024 1.25677,-1.27552 0.50893,-0.98416 0.49849,-2.62604 -0.0214,-3.36831 -0.53794,-0.76802 -0.21107,-0.76226 0.41284,0.007 0.63031,0.77743 0.96227,0.43848 0.40441,-0.41293 -0.48227,-0.73603 -2.64946,-1.76989 -3.71008,-1.76989 -1.20191,0 -3.00291,1.00457 -3.68879,2.05754 -0.799,1.22664 -1.1217,3.20148 -0.66313,4.0583 0.44337,0.82845 0.99083,1.35538 1.24499,1.1983 0.11385,-0.0704 0.62078,-0.037 1.12651,0.0742 1.23831,0.27221 2.58952,0.0609 3.6379,-0.56896 z m -5.36423,-0.20478 c -0.0899,-0.14553 -0.0445,-0.26459 0.10106,-0.26459 0.14552,0 0.33817,0.11906 0.42811,0.26459 0.0899,0.14552 0.0445,0.26458 -0.10106,0.26458 -0.14553,0 -0.33817,-0.11906 -0.42811,-0.26458 z m -0.49648,-0.93627 c -0.0907,-0.23646 -0.15743,-0.56902 -0.14821,-0.73902 0.009,-0.17 0.13085,-0.0239 0.27027,0.32464 0.13942,0.34855 0.20612,0.6811 0.14821,0.73901 -0.0579,0.0579 -0.17953,-0.0882 -0.27027,-0.32463 z m 17.36894,1.27614 c -0.32452,-0.0609 -0.83054,-0.41646 -1.12448,-0.79014 -1.3655,-1.73595 0.34709,-4.5593 2.37514,-3.91563 0.71667,0.22747 1.58605,1.63241 1.58735,2.5652 0.002,1.31751 -1.43774,2.4033 -2.83801,2.14057 z m 1.47018,-0.96378 c 0.4747,-0.60767 0.55336,-1.93518 0.14889,-2.51265 -0.43576,-0.62213 -1.40296,-0.74931 -1.90216,-0.25011 -0.3953,0.39531 -0.41493,1.44313 -0.0315,1.68012 0.15731,0.0972 0.21704,0.45159 0.13274,0.78747 -0.2214,0.88216 1.02017,1.104 1.652,0.29517 z m -64.45356,-0.84631 c -0.74132,-0.51924 -0.79931,-1.96073 -0.10418,-2.58982 0.26612,-0.24083 0.58653,-0.43788 0.71203,-0.43788 0.12549,0 0.0192,0.15283 -0.23629,0.33962 -0.48086,0.35162 -0.79694,1.77705 -0.39405,1.77705 0.12551,0 0.19844,0.14882 0.16206,0.33072 -0.0396,0.198 0.27902,0.36401 0.79392,0.41366 0.72177,0.0696 0.90258,-0.0289 1.12448,-0.61254 0.36427,-0.95812 0.34021,-1.11438 -0.26476,-1.71934 -0.29104,-0.29105 -0.43085,-0.52917 -0.3107,-0.52917 0.12015,0 0.48858,0.28753 0.81872,0.63895 0.71346,0.75944 0.57884,1.47334 -0.42704,2.26456 -0.81897,0.6442 -1.10474,0.66314 -1.87419,0.12419 z m 57.13648,-3.36994 c -0.22521,-0.27135 -0.0949,-0.32015 0.62906,-0.23563 0.77724,0.0907 0.91309,0.0264 0.91309,-0.43262 0,-0.29657 -0.1871,-0.72631 -0.41578,-0.95499 -0.22867,-0.22867 -0.29671,-0.41577 -0.15119,-0.41577 0.42373,0 1.09613,0.79065 1.09613,1.2889 0,0.97657 -1.44813,1.501 -2.07131,0.75011 z m 16.33778,76.65162 c 1.47705,-1.24285 1.99304,-4.48073 1.04547,-6.56042 -0.76493,-1.67883 -3.6443,-1.4592 -5.69894,0.4347 -1.53221,1.41234 -2.10132,2.46053 -1.63863,3.01804 0.3703,0.4462 3.75921,3.01377 4.59334,3.48011 0.73271,0.40964 0.78223,0.39878 1.69876,-0.37243 z m -18.69351,-4.74551 c 1.17246,-0.53677 1.51574,-0.82503 1.51272,-1.27025 -0.008,-1.12192 -0.80553,-3.95584 -1.3154,-4.67189 -0.28443,-0.39944 -0.43136,-0.8212 -0.32652,-0.93725 0.10484,-0.11604 0.0542,-0.133 -0.11257,-0.0377 -0.16676,0.0953 -0.64301,-0.004 -1.05834,-0.22054 -1.50252,-0.78363 -2.6162,-0.43677 -3.52093,1.09663 -1.14307,1.93735 -0.95787,4.83799 0.40262,6.30598 0.59702,0.6442 0.81582,0.71525 1.79095,0.58159 0.61097,-0.0837 1.79333,-0.46471 2.62747,-0.84659 z m 10.82022,-0.32481 c 1.90673,-2.06654 2.08633,-6.84345 0.39088,-10.39631 -1.17404,-2.46021 -4.77539,-2.8072 -6.49154,-0.62546 -0.26777,0.34041 -0.53667,0.5691 -0.59757,0.50821 -0.0609,-0.0609 -0.12673,0.092 -0.14629,0.3397 -0.0196,0.24773 -0.28321,1.28128 -0.58587,2.29678 -0.81532,2.73561 -0.62396,6.00648 0.41158,7.03494 0.47147,0.46825 4.23858,1.49541 5.66936,1.54584 0.42208,0.0149 0.93157,-0.25081 1.34945,-0.7037 z m -108.50895,-3.1198 c 2.59666,-2.12441 2.53478,-1.99202 1.67196,-3.5773 -1.68954,-3.10424 -5.168794,-4.35345 -6.146794,-2.20697 -0.386891,0.84913 -0.386407,3.06768 9.51e-4,4.36057 0.359843,1.20105 1.684943,2.88985 2.267493,2.88985 0.22787,0 1.22074,-0.65977 2.20639,-1.46615 z m 115.79213,-1.05541 c 0.48165,0.0904 0.87573,0.0577 0.87573,-0.0726 0,-0.94507 -5.22264,-6.33101 -5.66508,-5.84222 -0.0508,0.0561 0.0666,0.6973 0.26077,1.4249 0.1942,0.72761 0.43396,2.23106 0.53279,3.341 l 0.17969,2.01807 1.47018,-0.51673 c 0.95204,-0.33461 1.77883,-0.45882 2.34592,-0.35244 z m -108.26489,-2.56159 c 0.7276,-0.15882 1.58859,-0.46154 1.9133,-0.67272 2.14896,-1.39755 0.90024,-9.04089 -1.77206,-10.84673 -1.4428,-0.97498 -3.35965,-0.68624 -4.609,0.69428 -0.27376,0.3025 -0.6193,0.47489 -0.76786,0.38308 -0.14855,-0.0918 -0.19771,-0.0498 -0.10923,0.0934 0.0885,0.14316 -0.0207,0.84617 -0.24265,1.56224 -0.61988,1.99998 -0.38049,5.16582 0.52429,6.93337 0.39361,0.76895 0.95426,1.6367 1.24588,1.92832 0.56218,0.56218 0.9305,0.55492 3.81733,-0.0752 z m 92.11809,-2.65846 c 0.3362,-1.05362 0.61287,-1.9587 0.61482,-2.01127 0.002,-0.0526 -0.44294,-0.0152 -0.98865,0.083 -1.01597,0.18292 -3.77031,1.81605 -3.77031,2.23553 0,0.12826 0.31297,0.31175 0.69548,0.40775 0.38252,0.096 1.11989,0.46295 1.63861,0.81543 0.51872,0.35247 1.00065,0.58334 1.07095,0.51304 0.0703,-0.0703 0.40291,-0.98989 0.7391,-2.04352 z m -99.91969,-3.04016 c 0.002,-0.83674 0.0796,-1.80518 0.17242,-2.15209 0.26932,-1.00635 -0.42607,-0.57385 -1.68666,1.049 -0.61257,0.7886 -1.11858,1.49851 -1.12448,1.57758 -0.0101,0.13509 2.00587,0.98509 2.43667,1.02738 0.10914,0.0107 0.20007,-0.66512 0.20205,-1.50187 z m 93.42381,0.87813 c 0.29138,0.18009 3.97547,-2.01622 5.06372,-3.01879 0.40018,-0.36868 0.7276,-0.80818 0.7276,-0.97669 0,-0.1685 0.23813,-0.52186 0.52917,-0.78525 1.68867,-1.52822 -0.72691,-4.78343 -3.90426,-5.26136 -2.44449,-0.36768 -4.64857,0.8641 -5.7787,3.2295 -1.11155,2.32653 -0.0971,5.43406 2.27463,6.96818 0.54849,0.35477 0.67617,0.36462 0.74763,0.0576 0.0474,-0.20362 0.20049,-0.29957 0.34021,-0.21322 z m 6.05591,-6.76511 c 0,-0.29104 0.0456,-0.52916 0.10143,-0.52916 0.0558,0 0.16371,0.23812 0.23981,0.52916 0.0761,0.29104 0.0305,0.52917 -0.10143,0.52917 -0.1319,0 -0.23981,-0.23813 -0.23981,-0.52917 z m 0.99231,2.71198 c 0.0646,-0.19399 -0.11778,-0.33073 -0.4411,-0.33073 -0.32499,0 -0.55121,0.17084 -0.55121,0.41628 0,0.48627 0.82562,0.41509 0.99231,-0.0855 z m -81.95481,-6.73177 c 1.87277,-0.004 4.14305,0.16106 5.23413,0.37992 1.05975,0.21257 1.99008,0.28416 2.06739,0.15907 0.27335,-0.44229 -0.58219,-0.9253 -2.93589,-1.6575 -2.18707,-0.68036 -5.075,-1.9386 -4.85496,-2.11525 0.0509,-0.0408 1.93793,0.0789 4.1935,0.26608 5.86593,0.48674 5.47695,0.53891 4.24955,-0.56997 -1.65843,-1.4983 -2.22483,-2.9421 -2.07431,-5.2876 0.15929,-2.48206 0.9644,-3.83209 2.79458,-4.68608 0.68634,-0.32025 1.28463,-0.60155 1.32953,-0.6251 0.0449,-0.0236 -0.1189,-0.50218 -0.36402,-1.06362 -1.06575,-2.44102 -0.14484,-6.56548 1.71067,-7.66155 0.45415,-0.26828 0.78875,-0.55073 0.74355,-0.62767 -1.17847,-2.00597 -1.55179,-4.07757 -1.10647,-6.13992 0.50302,-2.32961 2.42601,-4.56608 4.18097,-4.86258 l 1.06181,-0.17939 -0.64054,-0.49524 c -1.91595,-1.48133 -6.54479,-2.20163 -10.18158,-1.58436 -5.00234,0.84904 -8.37419,3.07825 -11.50388,7.60552 -1.72151,2.49024 -2.6837,4.7426 -3.61611,8.46476 -0.62107,2.47932 -0.72026,3.41496 -0.72522,6.8409 -0.005,3.25375 0.10132,4.39189 0.58858,6.31745 0.59465,2.34993 2.20077,6.12193 3.21053,7.54002 l 0.5366,0.75358 1.39715,-0.38244 c 0.86321,-0.2363 2.66108,-0.38497 4.70444,-0.38903 z m 91.429,-1.08144 c 1.70441,-0.88636 2.49808,-2.35851 2.49808,-4.6336 0,-2.37621 -1.36038,-3.75892 -3.69823,-3.75892 -2.15307,0 -3.75244,0.87152 -4.09464,2.23121 -0.4915,1.95294 1.1352,6.20753 2.57735,6.74102 0.63415,0.23458 1.51153,0.0474 2.71744,-0.57971 z m -77.92805,-2.84397 c 1.08071,-1.15691 1.71158,-3.00552 1.71213,-5.01698 l 4.6e-4,-1.71739 -1.69422,-0.8623 c -1.93598,-0.98533 -3.21914,-1.09101 -4.41237,-0.36337 -3.25215,1.98315 -1.24333,8.76149 2.59654,8.76149 0.8264,0 1.20754,-0.16994 1.79746,-0.80145 z m 74.56957,-7.11896 c 1.46729,-0.40458 2.29714,-1.23638 2.6923,-2.69865 0.3804,-1.40761 0.17623,-3.74055 -0.40499,-4.6276 -0.94993,-1.44978 -3.49599,-2.17211 -4.9373,-1.40074 -1.73544,0.92878 -2.14332,6.55685 -0.64133,8.84918 0.42385,0.64688 0.51432,0.64352 3.29132,-0.12219 z m -70.75846,-1.93662 c 0.52156,-0.79601 1.20036,-3.74283 1.20339,-5.22422 0.006,-2.8871 -0.85274,-3.91394 -3.36423,-4.02322 -2.4612,-0.10708 -3.86361,1.08431 -4.20458,3.57193 -0.36711,2.67839 0.552,4.26391 3.19719,5.5153 1.92863,0.91241 2.65142,0.94896 3.16823,0.16021 z m 73.57002,-9.83383 c 0.94534,-1.00235 1.19292,-1.8579 1.19292,-4.1224 0,-1.6504 -0.46833,-3.06989 -1.23493,-3.74301 -0.48736,-0.42794 -2.04333,-1.28331 -2.33441,-1.28331 -0.0858,0 -0.6339,0.50236 -1.21798,1.11635 -1.48654,1.56267 -2.84992,4.45027 -3.05538,6.4712 -0.25416,2.49992 -0.29433,2.46662 2.97451,2.46662 h 2.82133 z m -71.02798,-1.63944 c 0.18948,-0.57413 0.27184,-1.88019 0.20575,-3.26254 -0.0872,-1.82309 -0.26088,-2.6131 -0.83069,-3.77775 -0.8666,-1.77127 -1.27319,-2.14352 -2.30906,-2.11407 -1.41224,0.0402 -2.96382,1.11572 -3.67255,2.54584 -1.16262,2.34598 -0.98454,5.50652 0.35988,6.38742 0.62646,0.41047 3.66375,1.09509 5.09132,1.14761 0.74021,0.0272 0.87671,-0.0822 1.15535,-0.92651 z m 42.82601,-3.92389 c 1.06713,-0.55183 2.38132,-2.14456 3.16674,-3.8379 0.55941,-1.20609 0.68192,-1.86761 0.68821,-3.71624 l 0.008,-2.24896 -1.32292,-1.93941 c -1.87583,-2.74998 -2.4159,-3.87635 -2.92905,-6.10874 -0.82064,-3.57012 -0.0712,-8.37255 1.93368,-12.39107 0.52641,-1.05512 1.29895,-2.30527 1.71677,-2.77813 0.50216,-0.56831 0.66559,-0.66383 0.48215,-0.28181 -0.29956,0.62385 -0.38142,2.20021 -0.11425,2.20021 0.0898,0 0.62274,-0.47347 1.18433,-1.05216 1.43093,-1.47448 2.51565,-1.85826 5.25217,-1.85826 2.86188,0 4.51178,-0.5282 5.85943,-1.87585 1.27261,-1.27262 1.69275,-2.70763 1.35933,-4.6429 -0.28505,-1.6545 0.0656,-1.88132 1.13101,-0.73167 2.05213,2.21428 1.26089,6.357 -1.5992,8.37298 l -1.15286,0.81261 2.6823,1.30871 c 6.52932,3.1857 11.70354,7.22884 16.33402,12.76341 2.01499,2.40841 4.9628,6.60786 5.79131,8.25028 0.30699,0.60859 0.66044,1.16973 0.78543,1.24698 0.3997,0.24703 8.08626,-1.78839 12.21572,-3.23475 9.46855,-3.31639 17.17988,-8.98727 21.82784,-16.05209 6.22926,-9.46837 7.89075,-19.646964 6.08964,-37.30625 -1.49565,-14.664362 -2.42589,-21.835799 -3.60362,-27.781249 -0.71002,-3.58433 -1.96893,-8.694899 -2.26384,-9.190111 -0.0636,-0.106854 -0.72094,0.28414 -1.46068,0.868874 -0.73975,0.584735 -1.40591,1.002237 -1.48037,0.927782 -0.17144,-0.171446 0.65085,-2.352269 1.37444,-3.64516 0.73957,-1.321452 3.07908,-3.69475 4.6115,-4.6781 1.65837,-1.064171 4.24659,-2.009316 6.55702,-2.39444 4.02679,-0.671223 9.79544,0.992899 13.19494,3.806438 0.59646,0.493644 0.28541,0.393316 -1.25135,-0.403634 -2.81196,-1.458247 -5.23452,-1.939894 -7.85111,-1.560936 -4.38086,0.634474 -9.05126,2.572737 -10.70516,4.442745 -0.48314,0.546279 -0.47627,0.612105 0.34281,3.281585 1.56725,5.107822 2.89003,12.519957 4.09833,22.964748 2.30779,19.948866 2.61532,25.142851 1.88777,31.882288 -0.89481,8.28876 -2.78798,13.93924 -6.69288,19.97604 -3.35135,5.18104 -8.05793,9.7658 -12.82731,12.4953 -0.83242,0.47639 -1.51679,0.98522 -1.52084,1.13074 -0.0163,0.5876 4.3783,3.08742 6.9124,3.932 3.95507,1.31818 8.75673,1.8822 14.24588,1.67338 10.06059,-0.38273 18.78803,-3.11874 27.11979,-8.50193 6.37296,-4.11759 12.1639,-10.27711 15.96261,-16.97859 0.75218,-1.32696 1.3676,-2.48484 1.3676,-2.57307 0,-0.0882 0.36688,-0.96143 0.81528,-1.94045 1.16881,-2.55194 2.52937,-7.49024 3.00687,-10.91375 0.8218,-5.892023 0.42136,-14.551452 -0.94913,-20.524667 -2.34888,-10.237537 -7.21731,-22.111181 -12.74694,-31.08854 -2.98722,-4.84977 -6.49439,-9.784372 -8.70987,-12.25482 -9.56552,-10.666368 -17.89843,-15.430062 -29.02849,-16.594781 -4.71914,-0.49384 -10.51501,0.530207 -13.64532,2.410933 -1.61419,0.969821 -3.3336,2.812223 -4.42622,4.742836 -0.37061,0.654844 -1.1881,2.678198 -1.81666,4.496342 l -1.14282,3.305718 -0.31843,-1.056759 c -0.65232,-2.164832 -0.27091,-4.89031 1.0635,-7.599461 0.73826,-1.498825 0.78405,-1.722557 0.42949,-2.098427 -7.7571,-8.223297 -13.60807,-12.6717657 -22.35729,-16.9981379 -8.0476,-3.9794292 -16.3415,-6.5071967 -30.51167,-9.2991708 -4.08993,-0.8058458 -9.73311,-2.3962941 -16.31958,-4.5994311 -2.18281,-0.7301387 -4.38874,-1.330389 -4.90207,-1.3338897 -3.9755,-0.027111 -3.172,6.5719075 1.31534,10.8025926 1.38873,1.3093041 2.34555,1.9925988 4.11589,2.9392906 1.57017,0.8396472 1.57595,0.8469621 0.52917,0.6700256 -0.58208,-0.098389 -3.05784,-0.8200452 -5.50169,-1.6036799 -5.25761,-1.6858884 -8.40828,-2.32536932 -10.72888,-2.17760506 -1.26922,0.0808182 -1.78408,0.23264806 -2.05766,0.60680246 -0.52919,0.7237003 -0.46368,1.0206616 0.50638,2.2955355 1.16578,1.532091 4.20216,3.6727939 6.66198,4.6968195 2.08968,0.8699375 6.19699,1.8437922 8.08902,1.9179292 1.09653,0.04297 1.09824,0.04464 0.41279,0.403784 -0.54227,0.284123 -5.5287,2.302259 -9.02361,3.652082 -0.44569,0.172137 -0.34134,0.267165 0.66146,0.602391 0.8055,0.269268 2.36124,0.40729 4.80957,0.426694 1.99041,0.01577 3.47869,0.107108 3.30729,0.202965 -0.81445,0.455471 -3.78638,1.024516 -6.15435,1.178394 -3.22495,0.209567 -5.33029,-0.166754 -6.21773,-1.111395 -1.00869,-1.073701 -0.37742,-1.64929 3.32918,-3.035533 2.43477,-0.910588 2.54095,-1.096386 0.84646,-1.481226 -0.80036,-0.181771 -2.25062,-0.70631 -3.2228,-1.165641 -1.92493,-0.909487 -5.00485,-3.3028246 -4.76004,-3.698928 0.0838,-0.135631 -0.0235,-0.179097 -0.23851,-0.096591 -0.23816,0.091387 -0.56561,-0.1165923 -0.83793,-0.5321973 -0.24585,-0.3752144 -0.66083,-0.682208 -0.92219,-0.682208 -1.3013,0 -8.59407,3.4304424 -11.8339,5.5665423 -1.09498,0.721943 -2.03334,1.312624 -2.08526,1.312624 -0.25596,0 -5.22596,3.933425 -7.72179,6.111291 -5.01551,4.376535 -8.82238,8.938847 -12.31125,14.754313 -5.11615,8.52791 -7.6252,15.735481 -9.97846,28.664339 -1.23132,6.764944 -1.68091,8.650953 -3.33015,13.970054 -1.38904,4.479903 -2.80569,10.117005 -3.29386,13.106857 -0.51113,3.130462 -0.45163,11.078316 0.1051,14.039284 1.10824,5.89424 4.00755,12.83717 7.06021,16.90698 3.36512,4.48638 8.12551,8.77129 13.0297,11.72824 2.15307,1.29819 5.21489,2.81169 5.34994,2.64457 0.0379,-0.0469 0.90275,-1.33547 1.92187,-2.86343 4.45865,-6.68489 9.75797,-11.37031 16.6377,-14.71031 l 2.93566,-1.42521 0.17309,-3.50776 c 0.35993,-7.29405 2.43707,-14.238951 5.70887,-19.087553 4.02721,-5.968072 9.01939,-8.686486 16.02796,-8.727785 3.26638,-0.01925 6.15091,0.524586 8.3119,1.567082 1.52424,0.735317 1.82805,1.121138 0.41935,0.532544 -0.50933,-0.212809 -0.92604,-0.354878 -0.92604,-0.31571 0,0.03917 0.83039,0.59864 1.84531,1.24327 2.08561,1.324679 2.40703,1.781123 0.73437,1.042865 -2.71275,-1.197324 -5.47869,-1.719111 -9.06198,-1.709519 -3.85763,0.01033 -5.82931,0.40989 -8.53884,1.730408 -5.1931,2.530904 -9.32164,9.530459 -10.98801,18.629138 -0.77638,4.23917 -0.8247,12.49573 -0.0945,16.13958 2.20394,10.99756 7.23677,18.70939 14.65477,22.4556 1.73941,0.87843 4.03726,1.74214 5.75625,2.16364 1.92489,0.47198 5.8125,0.47228 6.72478,5.2e-4 z m -2.2137,-4.75303 c 0.14451,-1.50423 0.74066,-2.64809 1.78635,-3.42754 0.57144,-0.42594 0.83908,-0.48526 1.19063,-0.26388 0.59446,0.37435 0.6773,0.89067 0.29474,1.8372 -0.29864,0.7389 -0.31948,0.74706 -0.4737,0.18552 -0.0937,-0.34137 -0.2802,-0.50759 -0.44519,-0.39687 -0.28025,0.18806 -0.74819,1.1146 -0.70276,1.39147 0.0129,0.0785 -0.32219,0.37491 -0.74457,0.65879 -0.42239,0.28389 -0.82702,0.69595 -0.89918,0.9157 -0.0722,0.21975 -0.075,-0.18543 -0.006,-0.90039 z m -17.07474,-8.5983 c 0.3638,-0.29757 0.78052,-0.54187 0.92604,-0.54287 0.28312,-0.002 -0.19533,0.36441 -1.05833,0.81043 -0.35148,0.18165 -0.30706,0.0918 0.13229,-0.26756 z m -0.19341,-19.78616 c 0.25744,-0.0671 0.61462,-0.0627 0.79375,0.01 0.17914,0.0725 -0.0315,0.12737 -0.46805,0.12197 -0.43656,-0.005 -0.58313,-0.0647 -0.3257,-0.13177 z m 2.11164,-0.26361 c 0.25466,-0.0666 0.67138,-0.0666 0.92604,0 0.25466,0.0665 0.0463,0.121 -0.46302,0.121 -0.50933,0 -0.71769,-0.0545 -0.46302,-0.121 z m -2.84427,-10.83929 c 0.58208,-0.21159 1.39167,-0.32038 1.79909,-0.24175 0.494,0.0953 0.68167,0.0473 0.56338,-0.14404 -0.11601,-0.18771 0.0246,-0.17891 0.40638,0.0254 0.32107,0.17183 0.54379,0.34605 0.49495,0.38715 -0.0488,0.0411 -1.04131,0.13846 -2.20547,0.21633 -2.09093,0.13988 -2.1038,0.13692 -1.05833,-0.24311 z m 7.8495,0.15743 c -0.33944,-0.13606 -0.93475,-0.1853 -1.32292,-0.10944 -0.68385,0.13365 -0.6865,0.12951 -0.0854,-0.13345 0.45053,-0.19711 0.95744,-0.16761 1.85209,0.10777 0.67747,0.20855 0.99365,0.37992 0.70261,0.38083 -0.29104,9.1e-4 -0.80689,-0.10966 -1.14633,-0.24571 z m -3.23669,-0.17871 c 0.66943,-0.0813 0.80874,-0.17357 0.52917,-0.35048 -0.2663,-0.16851 -0.10328,-0.23219 0.54656,-0.21349 0.50932,0.0147 0.71768,0.0811 0.46302,0.14764 -0.25466,0.0665 -0.46302,0.23133 -0.46302,0.36618 0,0.13485 -0.44649,0.22613 -0.99219,0.20284 l -0.99219,-0.0423 z M 218.134,98.029083 c -2.37664,-0.648576 -3.31175,-1.186316 -5.00169,-2.876252 -2.33398,-2.333982 -3.20391,-4.377974 -3.84364,-9.031028 -0.12005,-0.873125 -0.23278,-1.323346 -0.25053,-1.000491 -0.0223,0.406674 -0.15419,0.540222 -0.42914,0.434713 -0.21828,-0.08376 -0.39687,-0.03438 -0.39687,0.109737 0,0.144117 -0.22878,0.321858 -0.50839,0.394979 -0.67408,0.176274 -1.06903,1.665528 -1.1038,4.162103 l -0.0276,1.984375 -0.41311,-1.190625 c -0.29213,-0.841981 -0.42006,-2.275295 -0.43686,-4.894791 -0.0204,-3.179068 0.0637,-3.985469 0.59314,-5.688541 0.90958,-2.925875 2.25806,-5.140086 4.51724,-7.417334 3.50017,-3.528173 7.5029,-5.16162 12.19675,-4.977298 l 2.33029,0.09151 0.1682,-1.269204 c 0.28857,-2.177602 1.66714,-1.886508 1.92561,0.406606 0.12675,1.12454 0.1872,1.195955 1.37337,1.622495 0.68243,0.245398 2.24636,1.038015 3.4754,1.76137 1.22903,0.723355 2.38963,1.315191 2.57909,1.315191 0.51178,0 1.59818,-0.619576 3.21025,-1.830826 0.79027,-0.593774 1.59394,-1.07959 1.78594,-1.07959 0.95924,0 -0.2001,2.295309 -1.96942,3.899127 -0.9166,0.830858 -0.93068,0.872018 -0.47178,1.379102 1.10848,1.224856 3.73505,1.350341 6.12608,0.292675 1.47412,-0.652075 1.82263,-0.506929 1.28396,0.534744 -0.51435,0.994635 -2.26914,2.273812 -3.67026,2.675486 -0.59498,0.170569 -1.11985,0.336648 -1.16639,0.369064 -0.0465,0.03242 0.16309,0.544448 0.46582,1.137847 1.53179,3.002556 2.02869,8.662593 1.08279,12.333829 l -0.47719,1.852083 -0.0304,-1.267925 c -0.11201,-4.673677 -2.89438,-11.35258 -6.36074,-15.268533 -1.48123,-1.673359 -2.03371,-1.643318 -0.8745,0.04755 1.10315,1.60908 2.04704,3.547195 2.54513,5.22599 0.58006,1.955023 0.54523,2.357233 -0.12982,1.499055 -0.41444,-0.526878 -0.64259,-0.635404 -0.89514,-0.425803 -0.24664,0.204696 -0.37892,0.177105 -0.48576,-0.101324 -0.24836,-0.647199 -1.08182,-0.295913 -1.55591,0.655785 -0.24768,0.497174 -0.4579,1.499265 -0.46716,2.226869 -0.0238,1.869985 -0.62252,4.197396 -1.37852,5.358801 -0.35487,0.545159 -0.80285,1.381265 -0.99552,1.858012 -0.40034,0.990649 -2.57898,3.048825 -3.97071,3.751165 -2.54989,1.286806 -5.75382,1.647298 -8.3482,0.939302 z m -2.64313,-14.537192 c 1.7895,-0.7477 2.50879,-3.116931 1.46568,-4.827681 -0.69416,-1.138439 -1.44828,-1.491944 -2.84651,-1.334343 -1.36074,0.153374 -2.30838,0.921297 -2.73606,2.217176 -0.54694,1.657266 0.15448,3.25797 1.73294,3.95472 1.02254,0.45136 1.28265,0.450283 2.38395,-0.0099 z m 8.38106,-4.032824 c 3.77913,-2.21322 2.08801,-7.77705 -2.35599,-7.751244 -1.16927,0.0068 -2.90905,0.743523 -3.60553,1.526807 -1.84171,2.071237 -1.06954,5.354192 1.54651,6.575221 1.0184,0.475333 3.31611,0.292774 4.41501,-0.350784 z m -82.79371,18.045924 c -0.76172,-0.214517 -1.85963,-0.704158 -2.43979,-1.088092 -1.36226,-0.901498 -3.36172,-3.319297 -4.13773,-5.00343 -0.77967,-1.692086 -1.24087,-4.597496 -1.01579,-6.399038 0.15717,-1.257891 0.12365,-1.406597 -0.31781,-1.410221 -0.42049,-0.0035 -0.43479,-0.04516 -0.0966,-0.281915 0.30608,-0.214301 0.2532,-0.237183 -0.23116,-0.100028 -0.34541,0.09781 -0.79708,0.202649 -1.0037,0.232974 -0.20662,0.03033 -0.60862,0.25459 -0.89333,0.498365 -0.35148,0.300947 -0.51895,0.337891 -0.5217,0.115087 -0.003,-0.241913 -0.0629,-0.235294 -0.22802,0.02519 -0.12318,0.19433 -0.32972,0.313393 -0.45897,0.264584 -0.12925,-0.04881 -0.38327,0.447037 -0.5645,1.101881 l -0.32949,1.190625 0.14487,-1.322917 c 0.14791,-1.35057 1.10808,-4.630208 1.35558,-4.630208 0.0753,0 0.46191,0.34797 0.8592,0.773268 1.2413,1.328819 3.25953,1.34059 4.77315,0.02784 0.61578,-0.534062 1.3314,-2.111844 1.3314,-2.935435 0,-1.031379 -0.78795,-2.262813 -1.73768,-2.715708 -2.11691,-1.009483 -3.31771,-0.332486 -5.77874,3.257992 -3.10637,4.531972 -4.89209,9.281293 -4.94266,13.145501 l -0.0236,1.808001 -0.39394,-1.322917 c -0.21667,-0.727604 -0.45684,-2.93026 -0.53372,-4.894791 -0.15767,-4.028817 0.16118,-5.806277 1.52685,-8.511655 0.75103,-1.487788 0.75917,-1.542512 0.2293,-1.542512 -1.63645,0 -4.74993,-2.314304 -4.74993,-3.530703 0,-0.555058 0.102,-0.549855 1.78878,0.09125 1.84427,0.700972 3.83771,0.692303 4.99301,-0.02171 0.94619,-0.584773 1.15483,-1.216755 0.48638,-1.473261 -0.62993,-0.241729 -2.50567,-3.017227 -2.50567,-3.707606 0,-0.870299 0.5561,-0.775112 1.86619,0.319436 0.61737,0.515802 1.64035,1.241305 2.27328,1.612228 l 1.15079,0.674405 1.88409,-1.205424 c 1.58364,-1.013199 3.1871,-1.760645 4.63256,-2.159441 0.16364,-0.04515 0.37547,-0.597573 0.47074,-1.22761 0.23912,-1.581446 0.54307,-2.019458 1.14242,-1.64633 0.25881,0.161118 0.50496,0.518306 0.547,0.79375 0.25701,1.683685 0.1603,1.616048 2.49991,1.748323 2.78965,0.157718 5.55495,1.117672 7.9668,2.765615 4.69338,3.206845 7.58529,9.312197 7.22348,15.250077 -0.0727,1.192423 -0.16089,2.311632 -0.19607,2.487132 -0.0715,0.356578 -0.50494,0.185415 -0.50494,-0.199389 0,-0.135269 -0.20445,-0.484723 -0.45433,-0.776565 -0.44042,-0.514374 -0.47341,-0.464358 -1.07742,1.633565 -1.02149,3.547958 -3.79905,6.733329 -6.89232,7.904252 -1.94306,0.735527 -5.23925,0.914123 -7.11609,0.385568 z m 2.65022,-17.965185 c 1.78928,-0.765579 2.87952,-2.65217 2.56675,-4.441582 -0.59714,-3.416399 -4.66358,-4.73539 -7.42794,-2.40933 -1.98221,1.667916 -2.06954,4.328738 -0.19939,6.074829 1.22556,1.144263 3.41525,1.480071 5.06058,0.776083 z m 26.02933,-0.243093 c 2.74273,-1.639409 7.57345,-2.549017 10.98921,-2.06923 2.00036,0.280976 5.13387,1.199101 5.61939,1.646489 0.51541,0.474943 -0.10121,0.495431 -1.99345,0.06623 -2.95508,-0.670271 -8.90922,-0.626039 -12.14412,0.09022 -1.38245,0.306094 -2.75167,0.639282 -3.04271,0.740417 -0.29104,0.101136 -0.0338,-0.112221 0.57168,-0.474126 z M 134.79056,55.280379 c -0.99831,-0.297651 -1.45714,-0.915244 -1.4497,-1.951332 0.021,-2.925547 4.35864,-6.681095 8.79024,-7.610632 3.44399,-0.722386 5.92747,1.521554 4.99335,4.511724 -0.36913,1.181589 -1.13128,2.065864 -2.68517,3.115422 -1.49388,1.009025 -2.31386,1.331487 -4.62194,1.817603 -2.05815,0.433478 -3.82765,0.474739 -5.02678,0.117215 z m 1.33391,-3.668417 c -0.0837,-0.135466 -0.0179,-0.329313 0.14626,-0.430772 0.16416,-0.101459 0.39103,-0.03473 0.50414,0.148286 0.15639,0.253049 1.05181,0.0354 3.73812,-0.908641 3.62166,-1.272741 4.46372,-1.750264 4.46372,-2.531322 0,-0.931415 -0.9438,-1.408769 -2.47325,-1.250915 -2.96495,0.30601 -7.48122,3.454251 -6.94813,4.843465 0.0794,0.20691 0.27419,0.3762 0.43286,0.3762 0.15868,0 0.22,-0.110835 0.13628,-0.246301 z m 86.72366,3.552801 c -4.47961,-0.973756 -7.58045,-3.467475 -7.58045,-6.096259 0,-3.133076 2.80684,-4.337751 7.05184,-3.026603 3.74834,1.157745 7.58502,4.791687 7.58745,7.186526 0.001,1.042538 -0.47127,1.695702 -1.5125,2.091578 -0.89702,0.341045 -3.61297,0.265025 -5.54634,-0.155242 z m 4.78162,-3.722542 c 0.22958,-0.598281 -0.20806,-1.272971 -1.4918,-2.299823 -2.32368,-1.858701 -4.52489,-2.845629 -6.43216,-2.883912 -1.09883,-0.02206 -2.12,0.425128 -2.35212,1.030023 -0.37998,0.9902 0.59757,1.556983 5.80946,3.368336 3.78972,1.317088 4.23269,1.394977 4.46662,0.785376 z m -73.9009,87.133229 c 0.0167,-0.26459 0.0476,-0.26459 0.15434,0 0.0734,0.1819 0.40342,0.33073 0.73338,0.33073 0.6729,0 2.2779,-0.49274 2.62652,-0.80635 0.12531,-0.11272 -0.0192,-0.95967 -0.32116,-1.88212 -0.30195,-0.92244 -0.74175,-2.54171 -0.97733,-3.59838 -0.52579,-2.35836 -0.92034,-2.81326 -2.28167,-2.63067 -1.23867,0.16614 -2.54183,1.2133 -3.31645,2.66493 -0.68957,1.29226 -0.74849,2.22742 -0.22002,3.49223 0.47924,1.14698 0.94025,1.61786 2.20039,2.24749 1.17994,0.58956 1.37467,0.61486 1.402,0.18214 z m -35.31243,-0.87259 c 3.94453,-0.68786 8.03946,-2.24031 8.03946,-3.04787 0,-0.11023 -0.94488,-0.74543 -2.09973,-1.41155 -2.63826,-1.52174 -6.78452,-4.8264 -8.95338,-7.13604 -11.02857,-11.74439 -14.72872,-27.320035 -10.48917,-44.153832 0.35748,-1.419405 1.24913,-4.51503 1.98146,-6.879167 1.44137,-4.653116 2.21812,-7.96649 3.4577,-14.749472 1.39719,-7.645458 3.2635,-14.623915 4.98515,-18.640348 0.29405,-0.685999 0.53464,-1.470507 0.53464,-1.743349 0,-1.206021 -5.11464,-3.164218 -8.26466,-3.164218 -2.34368,0 -5.5317,0.925697 -7.708541,2.23831 -0.854375,0.515179 -1.603337,0.93669 -1.664359,0.93669 -0.06102,0 -0.464134,0.26112 -0.895803,0.580267 -0.557548,0.412212 -0.866858,0.498261 -1.068005,0.297115 -0.834055,-0.834055 6.517438,-4.329592 10.792058,-5.131481 0.90296,-0.169388 2.75944,-0.259094 4.12553,-0.199346 2.30863,0.100972 2.60227,0.179205 4.16369,1.109339 l 1.67989,1.000706 0.47255,-0.614238 c 0.2599,-0.33783 0.4752,-0.692874 0.47843,-0.788986 0.007,-0.193357 1.58284,-3.049922 3.26167,-5.910667 1.33917,-2.28197 5.17525,-7.346969 7.31414,-9.657292 1.34304,-1.450689 1.53,-1.766308 1.19484,-2.017075 -0.21854,-0.163507 -1.7728,-0.567591 -3.45392,-0.897965 -2.54128,-0.499415 -3.57753,-0.575203 -6.14673,-0.449554 C 107.12288,17.910105 95.924535,24.309806 84.346428,37.735985 73.036862,50.85076 65.897936,65.437422 63.83823,79.639512 c -0.545035,3.758123 -0.609151,11.819057 -0.122059,15.345832 2.294788,16.615386 11.746474,29.911136 26.705973,37.567476 3.904766,1.99847 6.716433,3.02949 11.157646,4.09143 6.07298,1.45211 12.32569,1.84525 16.83663,1.05861 z M 94.970467,41.893739 c 0,-0.200932 0.851367,-0.863396 1.124479,-0.874977 0.450997,-0.01913 0.151955,0.456991 -0.463021,0.737193 -0.363802,0.165759 -0.661458,0.227762 -0.661458,0.137784 z"
       id="path26" /></g></svg>
