<?xml version="1.0" encoding="UTF-8" standalone="no"?>
<!-- Created with Inkscape (http://www.inkscape.org/) -->

<svg
   width="209.39908mm"
   height="207.24065mm"
   viewBox="0 0 209.39915 207.24063"
   version="1.1"
   id="svg1"
   xml:space="preserve"
   xmlns="http://www.w3.org/2000/svg"
   xmlns:svg="http://www.w3.org/2000/svg"><defs
     id="defs1" /><g
     id="layer1"
     transform="translate(-57.580639,53.721294)"><path
       style="fill:#000000"
       d="m 159.69925,153.4347 c -0.3638,-0.0642 -1.37584,-0.24387 -2.24896,-0.39927 -3.15935,-0.56229 -6.7082,-2.03971 -9.56744,-3.98303 -1.04297,-0.70886 -1.1479,-0.72846 -1.9981,-0.37323 -0.49352,0.20621 -1.9627,0.57524 -3.26484,0.82008 -4.30049,0.80859 -9.24826,0.0672 -13.59804,-2.03766 -4.08598,-1.97717 -7.16935,-5.85232 -7.94933,-9.99064 -0.53968,-2.86341 -0.33705,-7.69013 0.50832,-12.10799 1.12132,-5.85998 4.37772,-14.91887 7.32321,-20.37221 l 1.16861,-2.1636 -0.39396,-1.16039 c -0.86094,-2.535835 -1.23056,-5.014961 -1.38106,-9.262932 -0.0864,-2.437474 -0.263,-4.43177 -0.39254,-4.43177 -0.12955,0 -0.95635,0.363862 -1.83734,0.808583 -4.40295,2.222602 -8.0241,3.586099 -13.26001,4.992887 -4.46268,1.199037 -7.6931,1.612407 -12.63977,1.617408 -6.085796,0.0062 -10.104854,-0.667778 -14.942508,-2.505611 C 77.954627,90.12311 74.135293,85.055907 74.386566,78.50506 c 0.146913,-3.830109 1.401793,-6.64227 3.766549,-8.440762 1.967603,-1.49644 3.230306,-1.718603 8.653428,-1.522509 3.894507,0.140821 5.100053,0.09448 6.614583,-0.254242 1.908439,-0.439425 3.846004,-1.177268 3.82394,-1.456192 -0.0069,-0.08704 -0.666577,-0.681638 -1.465982,-1.321329 -0.799405,-0.639691 -2.047874,-1.962436 -2.774375,-2.939432 l -1.320912,-1.776358 -1.11571,0.21593 c -0.613641,0.118762 -2.197993,0.221116 -3.520783,0.227454 -5.855653,0.02805 -11.611307,-2.779401 -15.616281,-7.617208 -1.843169,-2.226456 -3.693665,-5.939081 -4.242093,-8.510852 -0.560792,-2.629755 -0.552525,-6.876013 0.02025,-10.4002 0.255616,-1.572767 0.397813,-3.120579 0.315992,-3.439584 -0.08182,-0.319004 -0.998603,-1.532507 -2.037294,-2.696674 -3.16807,-3.550776 -5.05305,-6.789014 -5.936524,-10.198454 C 58.879127,15.780443 59.185651,9.785436 60.063111,8.3656766 60.15631,8.2148768 59.915625,7.3420446 59.528255,6.4260494 57.259358,1.0608987 56.973089,-4.7136316 58.66816,-10.923511 61.703948,-22.0451 71.42219,-32.696998 82.120165,-36.62861 c 6.127015,-2.251739 13.077043,-2.621351 19.635335,-1.044234 2.50194,0.601658 7.10006,2.709817 9.90479,4.541173 l 1.835,1.198169 2.2003,-1.81337 c 8.79539,-7.248692 20.92349,-12.375512 32.49428,-13.73607 4.6349,-0.544997 4.36563,-0.444276 4.36563,-1.632957 0,-2.835698 2.77926,-5.196109 5.26789,-4.473983 1.00645,0.292043 2.20206,1.283615 1.98033,1.642379 -0.0791,0.127973 -0.002,0.199963 0.17037,0.159978 0.1728,-0.03999 0.50907,0.311548 0.74727,0.781186 0.2382,0.469638 0.52579,0.856591 0.63908,0.859895 0.11329,0.0033 0.8872,-0.334771 1.71979,-0.751281 4.28007,-2.141123 9.28469,-1.692363 11.09471,0.994855 0.33306,0.494463 0.60556,1.289596 0.60556,1.766962 0,0.843387 0.043,0.87693 1.52135,1.185742 6.8074,1.422025 11.74174,3.307482 17.31236,6.615216 3.77631,2.242303 6.28819,4.200165 9.87481,7.696832 2.59294,2.527907 3.25944,3.050013 3.62931,2.843025 1.24259,-0.695389 5.79092,-2.131443 8.68841,-2.743212 8.89376,-1.877806 17.46271,-1.34935 25.02838,1.543526 11.45685,4.380747 20.32865,13.770583 24.15826,25.5689249 1.67373,5.15643365 1.9802,7.2385175 1.98622,13.4937493 0.006,6.3347428 -0.22396,7.7398538 -1.84862,11.2910018 -1.2395,2.709296 -2.23627,4.062109 -5.4493,7.39576 -1.93015,2.002606 -2.91959,3.241271 -3.09416,3.873498 -0.18851,0.682719 -0.12607,1.72731 0.2352,3.935112 1.08877,6.65377 0.9274,10.953867 -0.57366,15.286005 -2.12577,6.135107 -6.03931,10.110936 -11.88315,12.072309 -2.53296,0.850139 -2.51505,0.808993 -2.50359,5.751167 0.005,2.36061 0.16918,5.958894 0.3638,7.996185 0.63342,6.630723 0.0259,9.776512 -2.40071,12.431638 -1.36861,1.497476 -3.83048,2.937615 -6.37356,3.72839 l -1.52136,0.473067 -0.0441,1.274598 c -0.0243,0.701029 -0.054,1.481455 -0.0662,1.734279 -0.0267,0.557352 2.77941,1.818078 6.32795,2.842985 2.63484,0.761006 8.12361,1.724284 9.82545,1.724365 l 1.09419,5.2e-5 -0.0253,-1.653646 c -0.0652,-4.259786 1.94306,-6.617514 7.24447,-8.505059 0.92819,-0.330481 1.38131,-0.707419 1.97006,-1.638839 0.93773,-1.483531 1.58715,-1.960789 2.66811,-1.960789 1.20204,0 2.12492,1.057236 2.74469,3.14428 1.55968,5.252112 1.76801,11.344886 0.48268,14.116026 -1.46461,3.15765 -4.83161,5.48384 -9.25828,6.39637 -2.33542,0.48144 -8.28636,0.5594 -11.1898,0.14661 -3.62951,-0.51603 -7.2741,-1.60459 -10.6861,-3.19172 -1.22069,-0.56782 -2.24553,-1.0324 -2.27741,-1.0324 -0.0319,0 -0.13418,0.72908 -0.22732,1.62018 -0.64416,6.16297 -4.1196,18.19851 -8.28023,28.67461 -2.00022,5.03638 -2.8738,6.62606 -4.58576,8.3448 -2.57095,2.58115 -5.66061,3.72858 -10.493,3.89686 -7.19894,0.25069 -12.52701,-1.9326 -14.76903,-6.05193 -0.61845,-1.13629 -0.79473,-1.85059 -0.91713,-3.71631 l -0.15152,-2.30965 -2.02101,0.89256 c -2.3595,1.04204 -5.72929,2.11984 -8.16537,2.61162 l -1.71972,0.34717 -1.08737,2.68074 c -1.44082,3.55209 -2.58641,5.40479 -4.2809,6.92329 -1.69728,1.52101 -3.63807,2.50346 -6.3511,3.21501 -1.94643,0.51049 -6.55487,0.86027 -7.99223,0.60661 z m 2.42472,-4.2116 c -0.26962,-2.40953 -2.08191,-4.30252 -4.36551,-4.55992 -1.89419,-0.2135 -2.87137,0.63018 -3.21701,2.77751 -0.17948,1.11497 -0.16988,1.1329 0.82942,1.55044 1.54362,0.64496 4.04732,1.13341 5.519,1.0767 1.30391,-0.0502 1.32164,-0.0624 1.2341,-0.84473 z m 4.58674,0.50937 c 1.79706,-0.28896 4.76065,-1.85605 5.79473,-3.06414 1.88809,-2.2058 4.26261,-7.56797 8.76911,-19.80252 2.1131,-5.73679 2.97684,-7.95363 3.18465,-8.17364 0.0539,-0.0571 0.27435,0.0424 0.48977,0.22121 0.21542,0.17879 0.50146,0.25722 0.63564,0.17429 0.44711,-0.27633 0.54606,1.31732 0.18855,3.03677 -0.19426,0.93426 -0.32943,1.72513 -0.3004,1.75747 0.0783,0.0872 4.31741,-0.93433 5.84419,-1.40836 3.20753,-0.99584 3.94152,-1.40895 4.8948,-2.75496 0.50932,-0.71916 1.02236,-1.31024 1.14009,-1.31351 0.11773,-0.003 0.14047,0.11312 0.0505,0.25864 -0.0899,0.14552 -0.0374,0.26459 0.11668,0.26459 0.15411,0 0.2802,-0.11907 0.2802,-0.26459 0,-0.14552 0.12325,-0.26458 0.27389,-0.26458 0.17764,0 0.18793,0.16272 0.0293,0.46302 -0.4557,0.86267 -2.11345,7.85252 -2.68115,11.30501 -0.31054,1.88851 -0.63274,4.86507 -0.716,6.61458 l -0.1514,3.18093 0.76278,-0.68703 c 1.44353,-1.30016 2.0297,-1.56193 3.49761,-1.56193 1.69588,0 3.01092,0.65121 4.27831,2.11861 l 0.86572,1.00234 1.19321,-0.63443 c 1.53544,-0.8164 2.28169,-0.79921 4.04351,0.0932 1.1663,0.59074 1.57653,0.98889 2.1809,2.11667 0.46014,0.85862 0.92028,1.38906 1.20497,1.38906 0.64949,0 2.73898,-1.37387 3.43474,-2.25839 1.61762,-2.05647 5.71453,-12.49507 8.3784,-21.34747 1.32952,-4.41819 2.731,-10.64301 3.19207,-14.17794 l 0.18308,-1.40358 -1.0282,0.52376 c -3.30719,1.68466 -9.96476,3.78718 -10.65034,3.36347 -0.14,-0.0865 -0.29448,-0.0416 -0.34329,0.0999 -0.0488,0.1415 -1.45796,0.38424 -3.13145,0.53943 -9.60073,0.89033 -21.36752,-2.25342 -26.78866,-7.15716 -2.95542,-2.673353 -8.31677,-9.269812 -7.97871,-9.816798 0.11076,-0.17922 0.0731,-0.233884 -0.0912,-0.132335 -0.3459,0.213777 -3.78339,-4.723568 -6.32664,-9.087092 -1.227,-2.105214 -1.72162,-2.942329 -2.1011,-3.556044 -0.27842,-0.45026 -0.43917,-0.44532 -3.56694,0.109627 -1.80146,0.319626 -5.12307,0.74609 -7.38136,0.947698 -4.53615,0.404963 -14.44429,0.480144 -17.33515,0.131536 -1.7878,-0.21559 -1.88881,-0.19676 -2.91041,0.542565 -0.58209,0.421249 -2.39779,1.680619 -4.0349,2.798599 l -2.97656,2.032691 v 3.82052 c 0,8.820641 1.91921,14.953593 6.69845,21.405293 0.56114,0.75751 0.94157,1.5046 0.8454,1.66021 -0.0962,0.1556 -0.0744,0.2502 0.0483,0.21021 0.12272,-0.04 1.46265,1.21376 2.97761,2.78609 2.36075,2.45015 5.87932,5.46478 6.38794,5.47304 0.0862,0.001 0.47331,-0.80113 0.86036,-1.78339 0.38705,-0.98227 0.92867,-2.12626 1.2036,-2.54221 l 0.49988,-0.75627 -0.0871,1.15315 c -0.0787,1.04158 -0.19977,1.96702 -0.51432,3.93127 -0.0583,0.3638 -0.33968,1.79255 -0.62539,3.175 -1.22153,5.91062 -1.706,9.88144 -1.73223,14.19771 -0.0143,2.35172 0.057,4.35959 0.15851,4.46194 0.10148,0.10235 0.50449,-0.0656 0.89558,-0.37324 0.47703,-0.37524 1.09095,-0.55933 1.86525,-0.55933 0.95694,0 1.33727,0.1654 2.22553,0.96789 0.7011,0.63341 1.01841,1.11344 0.91819,1.38906 -0.0842,0.23165 0.11862,0.096 0.45077,-0.30132 0.69887,-0.83607 2.22126,-1.52647 3.36601,-1.52647 1.24889,0 3.4967,1.13731 4.5427,2.29844 0.95853,1.06403 1.71512,2.70467 1.92942,4.18386 0.0632,0.43656 0.12478,0.83297 0.13675,0.88091 0.012,0.048 0.34918,0.0223 0.74936,-0.0571 0.40018,-0.0794 1.20385,-0.22085 1.78594,-0.31445 z m -9.32657,-23.30343 c -0.1819,-0.0751 -0.33073,-0.32793 -0.33073,-0.56189 0,-0.35292 0.07,-0.33789 0.41058,0.0882 0.39498,0.49408 0.40437,0.48847 0.24725,-0.14787 -0.12703,-0.51446 -0.10067,-0.57326 0.11859,-0.26458 0.25059,0.35278 0.31259,0.35278 0.558,0 0.21972,-0.31584 0.26023,-0.26237 0.19844,0.26188 -0.0763,0.64748 -0.54994,0.89343 -1.20213,0.62427 z m 47.12099,-1.8236 c -0.0862,-0.22456 -0.0976,-0.46741 -0.0253,-0.53966 0.0723,-0.0723 0.19488,0.11147 0.2725,0.40828 0.16488,0.63048 -0.0183,0.72784 -0.2472,0.13138 z m 1.01691,0.24453 c 0.24571,-0.0734 0.50677,-0.3344 0.58012,-0.58012 0.0967,-0.32399 0.11853,-0.30218 0.0794,0.0794 -0.0317,0.30838 -0.27174,0.54847 -0.58012,0.58012 -0.38156,0.0392 -0.40338,0.0173 -0.0794,-0.0794 z m -25.07174,-8.33323 c -0.13595,-0.21998 -0.0685,-0.27358 0.20997,-0.16673 0.30441,0.11681 0.37615,0.0267 0.27791,-0.34894 -0.0728,-0.27852 -0.22686,-0.44803 -0.34228,-0.3767 -0.11542,0.0713 -0.0819,-0.28719 0.0745,-0.79672 0.15638,-0.50954 0.44294,-0.92643 0.63681,-0.92643 0.19387,0 0.35411,0.0893 0.3561,0.19844 0.002,0.10914 0.0803,0.48495 0.17397,0.83512 0.12541,0.46873 0.0835,0.58303 -0.15874,0.4333 -0.2392,-0.14784 -0.30479,0.002 -0.24011,0.54903 0.0634,0.53618 -0.037,0.77705 -0.34938,0.83812 -0.24109,0.0471 -0.52852,-0.0602 -0.63872,-0.23849 z m -27.94961,29.80004 c -0.13208,-1.59275 -0.73515,-2.51827 -1.63984,-2.51665 -0.605,0.001 -2.27923,0.92617 -2.26569,1.25189 0.0178,0.427 0.70289,1.07747 1.97596,1.87601 1.89418,1.18813 2.07406,1.13114 1.92957,-0.61125 z m -13.98654,-1.59338 c -0.22423,-2.16639 -1.08715,-3.55418 -2.69348,-4.33179 -1.58773,-0.76861 -2.95753,-0.73666 -3.78241,0.0882 -0.566,0.566 -0.64943,0.88772 -0.64943,2.50423 0,1.54416 0.0833,1.89936 0.49713,2.12086 1.00585,0.53831 4.17153,1.30302 5.46973,1.32127 l 1.33665,0.0188 z m 5.66294,1.15208 c 0.77315,-0.19557 0.97547,-0.35773 0.851,-0.68211 -0.0898,-0.23405 -0.2911,-1.32811 -0.4473,-2.43125 -0.44551,-3.14636 0.10536,-9.23097 1.3726,-15.16094 0.28418,-1.32981 0.51669,-2.66854 0.51669,-2.97496 0,-0.39001 -0.58617,-0.97634 -1.95414,-1.95467 -4.13653,-2.95833 -10.04066,-9.93504 -12.20581,-14.42319 l -0.74862,-1.55182 -0.64087,1.26101 c -1.00211,1.97184 -3.95507,9.64705 -4.70105,12.21879 -0.89292,3.07833 -1.92285,8.21552 -2.19733,10.96009 -0.20527,2.05245 -0.0265,5.62244 0.29782,5.94673 0.0776,0.0776 0.62501,-0.17925 1.21655,-0.57071 0.81258,-0.53774 1.25513,-0.66801 1.81021,-0.53288 1.14788,0.27945 2.66251,1.38646 3.12765,2.28594 0.40141,0.77625 0.44875,0.79561 0.91448,0.37413 0.27014,-0.24447 0.99537,-0.55778 1.61162,-0.69624 3.20162,-0.71936 7.35109,2.79533 7.38188,6.25261 0.005,0.58209 0.0825,1.33124 0.17187,1.6648 0.14862,0.55481 0.2666,0.59218 1.38545,0.43884 0.67265,-0.0922 1.67943,-0.28306 2.2373,-0.42417 z m 64.83002,-0.92168 c 1.08539,-0.14877 1.22755,-0.2443 1.22755,-0.82488 0,-0.40996 -0.38586,-1.04248 -1.0272,-1.68383 -1.03017,-1.03016 -2.14023,-1.31809 -3.32657,-0.86285 -0.85023,0.32627 -1.6013,2.78821 -1.02609,3.36343 0.22357,0.22356 2.54733,0.22812 4.15231,0.008 z m -6.44536,-1.51241 c 0,-2.99679 -2.97143,-5.0718 -5.29626,-3.6985 -0.99029,0.58499 -1.51474,1.56433 -1.15415,2.15524 0.49746,0.81521 4.59181,2.73775 6.25197,2.93568 0.10914,0.013 0.19844,-0.61358 0.19844,-1.39242 z m -73.025,-1.52309 c 0,-1.76372 -0.43055,-2.82215 -1.4856,-3.65205 -0.88645,-0.69728 -1.11652,-0.69074 -2.05256,0.0583 -0.66185,0.52961 -0.7352,0.72129 -0.56776,1.48363 0.30616,1.39396 3.20717,4.25063 3.88879,3.82936 0.11942,-0.0738 0.21713,-0.84746 0.21713,-1.71922 z m -3.84776,-3.92171 c 0.0837,-0.13547 0.0511,-0.30882 -0.0726,-0.38524 -0.12364,-0.0764 -0.2248,0.0344 -0.2248,0.2463 0,0.44613 0.0834,0.48511 0.29738,0.13894 z m 55.70609,-2.01827 c 0,-0.22687 -0.11906,-0.33891 -0.26458,-0.24897 -0.14552,0.0899 -0.26459,0.27555 -0.26459,0.41249 0,0.13693 0.11907,0.24897 0.26459,0.24897 0.14552,0 0.26458,-0.18563 0.26458,-0.41249 z m 5.36937,-1.29628 c 1.33971,-0.50326 3.02463,-1.20049 3.74425,-1.54939 l 1.30842,-0.63438 0.72951,-3.41154 c 0.40123,-1.87635 0.73517,-3.54946 0.7421,-3.71802 0.009,-0.21039 -0.50586,-0.14945 -1.64105,0.19436 -1.84471,0.5587 -5.14119,1.24477 -6.53353,1.35977 -0.90242,0.0745 -0.91976,0.10031 -1.81275,2.69425 l -0.90162,2.619 0.60008,1.28119 c 0.33004,0.70466 0.60008,1.46088 0.60008,1.68049 0,0.57818 0.44589,0.50551 3.16451,-0.51573 z m -1.53291,-14.95998 c 0.0899,-0.14552 0.0374,-0.26459 -0.11668,-0.26459 -0.15411,0 -0.2802,0.11907 -0.2802,0.26459 0,0.14552 0.0525,0.26458 0.11668,0.26458 0.0642,0 0.19026,-0.11906 0.2802,-0.26458 z m 31.95167,-12.95194 c 4.51763,-1.01364 10.11145,-3.23161 11.85914,-4.7022 0.46389,-0.39033 1.00583,-1.09839 1.20433,-1.57345 0.41194,-0.985905 0.48129,-2.468246 0.11547,-2.468246 -0.13498,0 -0.68849,0.74414 -1.23002,1.653646 -0.54153,0.9095 -1.25933,1.92154 -1.59511,2.24896 -0.71769,0.69982 -1.74277,0.77127 -2.35022,0.16382 -0.39893,-0.39893 -0.44206,-0.39107 -0.57158,0.10419 -0.25404,0.97149 -5.84781,2.86916 -10.27075,3.48434 -8.05563,1.12043 -15.61295,-0.77181 -21.7582,-5.44794 -3.61613,-2.751629 -7.79836,-7.66212 -10.66811,-12.525766 -0.47224,-0.800364 -1.8704,-3.47927 -3.10702,-5.953124 -1.23661,-2.473854 -2.27744,-4.532764 -2.31296,-4.575355 -0.1636,-0.196189 -4.09893,1.142825 -4.09893,1.394678 0,0.608659 1.89858,4.198186 4.14586,7.83831 5.09437,8.251809 10.01505,13.934017 14.24814,16.453197 3.15818,1.87948 9.37401,3.7645 14.59292,4.42546 2.81721,0.35679 9.12802,0.0783 11.79704,-0.52052 z M 177.58693,85.172293 c -0.20971,-0.546489 -0.20275,-0.639818 0.0477,-0.639818 0.11455,0 0.22622,0.238125 0.24814,0.529166 0.0479,0.636023 -0.0764,0.682513 -0.29582,0.110652 z m 75.77481,21.631717 c 1.17319,-0.17621 1.18927,-0.19233 1.09799,-1.1012 -0.12954,-1.28977 -0.99846,-2.88008 -1.76427,-3.22901 -0.47446,-0.21618 -1.13142,-0.21338 -2.48759,0.0106 -4.88831,0.80729 -9.81909,0.0761 -16.52294,-2.45033 -0.99959,-0.376699 -1.86279,-0.68491 -1.91823,-0.68491 -0.0554,0 -0.10152,0.267891 -0.10242,0.595313 -9e-4,0.327417 -0.17949,0.936347 -0.39687,1.353157 -0.21739,0.41682 -0.39525,0.84873 -0.39525,0.95981 0,0.32713 4.68664,2.24842 7.40833,3.03705 4.06261,1.17716 7.24658,1.67726 10.71563,1.68306 1.74625,0.003 3.71078,-0.0752 4.36562,-0.17352 z m 4.57256,-1.47053 c 2.34084,-1.00534 3.89411,-3.63988 3.89411,-6.604917 0,-1.291582 -0.85141,-6.966106 -1.23427,-8.22628 -0.1336,-0.439734 -0.19789,-0.456985 -0.4529,-0.121526 -0.6124,0.805581 -2.22132,1.796577 -4.47999,2.75939 -3.35582,1.430505 -4.19044,2.703826 -3.63626,5.547535 l 0.25781,1.322918 -0.0994,-1.322918 c -0.0741,-0.986705 0.0349,-1.541454 0.42876,-2.182812 0.66596,-1.084315 0.7771,-1.084731 0.4665,-0.0017 -0.29527,1.029539 -0.32576,2.847403 -0.0477,2.842564 0.10914,-0.0019 0.59532,-0.948058 1.08039,-2.102575 0.81545,-1.94083 1.46911,-2.907146 1.76583,-2.610432 0.15586,0.155863 -1.36349,4.125332 -1.88801,4.932605 -0.44725,0.688378 -0.18793,1.223278 0.73508,1.516228 0.68644,0.21787 1.46589,-0.69816 2.6147,-3.072884 0.99462,-2.055967 1.45303,-2.348522 1.24456,-0.794265 -0.18444,1.375145 -1.18486,3.359829 -2.21739,4.399019 -0.84253,0.84796 -0.85339,1.21269 -0.0449,1.51051 0.71651,0.26396 2.0569,-0.84922 3.36864,-2.79761 1.30911,-1.944503 1.742,-1.828972 0.94699,0.25273 -0.63122,1.65283 -1.4991,2.57917 -3.03568,3.24019 -0.89381,0.38451 -1.32902,0.72817 -1.32902,1.04945 0,0.90829 0.38131,1.01492 1.66214,0.46483 z m -41.74296,-2.42689 c 2.07684,-0.35589 6.16092,-1.43511 7.60322,-2.00914 0.7378,-0.29365 0.95357,-1.04709 0.50316,-1.757001 -0.16467,-0.259541 -0.39309,-0.273782 -0.95637,-0.05962 -2.00277,0.761453 -7.50877,1.383451 -12.57752,1.420861 -6.56261,0.0484 -7.6786,-0.2039 -10.99585,-2.48622 -3.19658,-2.199306 -5.28312,-6.490855 -8.43971,-17.35856 -1.76906,-6.090647 -2.51747,-8.101607 -2.89768,-7.786055 -0.28103,0.233228 -4.06136,1.740833 -7.74688,3.089474 l -1.37283,0.502358 0.92963,2.116667 c 0.5113,1.164166 1.87734,3.783541 3.03565,5.820833 8.02564,14.11593 15.94066,19.536583 27.75225,19.006323 1.67349,-0.0751 3.99681,-0.30009 5.16293,-0.49992 z m 10.51375,-2.85842 c -0.0659,-1.263013 -1.57285,-6.258906 -1.88561,-6.251228 -0.0908,0.0022 -0.32754,0.107009 -0.52616,0.232845 -0.2957,0.187335 -0.2118,0.709474 0.46302,2.881574 0.45328,1.45903 0.82415,3.001281 0.82415,3.427229 0,0.898 0.20735,1.17955 0.78085,1.06032 0.31273,-0.065 0.39414,-0.38492 0.34375,-1.35074 z M 215.9855,98.962091 c 1.61472,-0.137895 3.46352,-0.495497 7.16758,-1.386375 0.50274,-0.120915 0.5851,-0.268299 0.45023,-0.805649 -0.0908,-0.361713 -0.23372,-1.000958 -0.31763,-1.420544 -0.17584,-0.879174 -0.28719,-0.89812 -2.07081,-0.352373 -2.24814,0.68788 -7.29523,1.438685 -9.68111,1.440164 -4.3762,0.0027 -8.83931,-1.632259 -10.90652,-3.995391 -2.11962,-2.423043 -4.63999,-8.250668 -7.45435,-17.23601 -0.67229,-2.146433 -1.31239,-3.902604 -1.42243,-3.902604 -0.11004,0 -0.38966,0.148828 -0.62138,0.330729 -0.45744,0.359104 -0.3442,0.84852 2.55605,11.046353 4.05107,14.244334 8.4604,17.463619 22.30037,16.2817 z m 12.88041,-3.151752 c 0.24192,-1.193663 0.18058,-2.811198 -0.10662,-2.811198 -0.74868,0 -2.64905,0.679811 -2.5621,0.91653 0.0554,0.150752 0.37019,1.151196 0.69961,2.223208 l 0.59894,1.949113 0.608,-0.758488 c 0.3344,-0.417169 0.67737,-1.100793 0.76217,-1.519165 z M 210.8174,94.309161 c -1.30269,-0.522755 -2.3858,-1.626659 -3.04336,-3.101802 -0.69104,-1.550234 -0.95051,-3.008564 -1.63708,-9.201076 -0.21547,-1.943414 -0.52444,-4.045289 -0.68661,-4.670832 -0.4929,-1.90134 -0.99873,-4.63211 -1.68515,-9.0974 -0.62666,-4.076478 -1.14091,-6.132286 -1.37697,-5.504636 -0.0607,0.161507 0.35927,3.614319 0.93337,7.672916 0.57409,4.058598 1.18296,8.688956 1.35304,10.289685 0.95992,9.034656 1.38434,10.948556 2.71357,12.236901 0.87988,0.852811 2.53172,1.614856 3.50791,1.61831 0.47154,0.0017 0.46296,-0.02469 -0.0787,-0.242066 z m 8.46607,-1.56003 c 5.67477,-1.042604 12.57164,-3.133466 15.90009,-4.820287 1.52573,-0.773222 3.11881,-2.33487 3.73464,-3.660953 0.49393,-1.063603 0.54749,-1.624166 0.50201,-5.254376 -0.028,-2.235064 -0.11405,-4.126901 -0.19123,-4.204083 -0.0772,-0.07718 -0.55216,0.173781 -1.0555,0.557697 -0.50334,0.383916 -1.24668,0.824074 -1.65188,0.978129 -0.52666,0.200235 -0.63879,0.340624 -0.39326,0.49237 0.40367,0.249482 0.71746,3.754639 0.45931,5.13069 -0.35377,1.885788 -3.18892,4.550009 -3.76769,3.540542 -0.0993,-0.17321 -0.0937,-0.237232 0.0125,-0.142271 0.26276,0.23503 2.18141,-1.88151 2.52514,-2.785584 0.62847,-1.653023 0.13885,-5.928076 -0.64452,-5.627469 -0.18115,0.06952 -1.74454,0.572567 -3.47419,1.11789 -1.72965,0.545324 -3.22038,1.061287 -3.31274,1.146586 -0.0924,0.0853 0.0486,1.583838 0.31325,3.330088 0.56581,3.733523 0.48942,4.018339 -1.43099,5.335745 -1.41709,0.972123 -2.83107,1.159149 -3.77341,0.499109 -0.49164,-0.344358 -0.56305,-0.746832 -0.71022,-4.00274 -0.09,-1.990937 -0.22007,-3.676333 -0.28906,-3.745323 -0.069,-0.06899 -1.47252,0.209717 -3.11896,0.61935 -2.104,0.523474 -3.77974,0.761538 -5.63936,0.801157 -1.45521,0.031 -2.75071,0.06525 -2.87889,0.0761 -0.12818,0.01085 -0.17302,0.406682 -0.0996,0.879624 0.0734,0.472943 0.0443,1.395677 -0.0646,2.050521 -0.16532,0.99427 -0.20343,0.789947 -0.23108,-1.238941 -0.0298,-2.183796 -0.0868,-2.446601 -0.56372,-2.59797 -0.29182,-0.09262 -0.89195,-0.472469 -1.33361,-0.844104 l -0.80303,-0.675699 0.16678,1.818461 c 0.30168,3.289279 1.18202,8.137499 1.64701,9.070393 1.25788,2.523639 4.46344,3.203211 10.16684,2.15535 z m -4.70216,-1.571367 c 0.0795,-0.128632 -0.1955,-0.374727 -0.61111,-0.546878 -1.07358,-0.444691 -2.48473,-1.98592 -2.57256,-2.809689 -0.0651,-0.610219 0.0184,-0.552614 0.65724,0.453534 0.47531,0.748612 1.20899,1.411767 2.09346,1.892216 1.63123,0.886099 1.91389,1.244694 0.98111,1.244694 -0.38098,0 -0.62764,-0.105245 -0.54814,-0.233877 z m 1.73877,-0.01509 c 0,-0.154109 0.20836,-0.29012 0.46302,-0.302246 0.25466,-0.01213 0.73595,-0.05213 1.06953,-0.0889 0.33359,-0.03677 0.65332,0.0089 0.71051,0.101415 0.0572,0.09255 -0.32456,0.197127 -0.84835,0.232403 -0.5238,0.03528 -1.05189,0.12565 -1.17353,0.200833 -0.12165,0.07518 -0.22118,0.01061 -0.22118,-0.143504 z m 3.43958,-0.381631 c 0,-0.05579 0.23829,-0.163747 0.52953,-0.239908 0.29125,-0.07616 0.46281,-0.03052 0.38126,0.101433 -0.14241,0.230427 -0.91079,0.347251 -0.91079,0.138475 z m 3.10886,-0.867545 c 0.1819,-0.0734 0.47955,-0.0734 0.66145,0 0.1819,0.0734 0.0331,0.133452 -0.33073,0.133452 -0.3638,0 -0.51263,-0.06005 -0.33072,-0.133452 z m 4.16718,-1.147688 c 0.72736,-0.312559 1.14511,-0.312559 0.66146,0 -0.21828,0.141064 -0.57547,0.249935 -0.79375,0.241935 -0.26169,-0.0096 -0.21662,-0.092 0.13229,-0.241935 z m 5.35341,-1.884915 c 0.17947,-0.180821 0.39297,-0.262115 0.47443,-0.180653 0.0815,0.08146 -0.0654,0.229406 -0.32632,0.328765 -0.37709,0.143586 -0.40748,0.113195 -0.14811,-0.148112 z M 109.2157,91.31034 c 11.06113,-2.36457 20.16254,-6.989279 31.03667,-15.770691 1.6214,-1.309362 5.53711,-5.483095 6.71755,-7.160209 1.30455,-1.853436 1.77468,-2.136175 1.65501,-0.995345 -0.041,0.391046 0.0472,0.938606 0.19612,1.216798 0.42342,0.791176 -1.61919,4.021617 -4.16072,6.580281 -1.1726,1.180499 -2.05869,2.219661 -1.96911,2.309248 0.32267,0.322665 11.19393,0.154166 15.31189,-0.237326 7.14399,-0.679176 14.58647,-2.175687 21.64381,-4.352071 4.84608,-1.494464 10.06514,-3.95766 14.18358,-6.694105 2.48204,-1.649163 6.87916,-5.998959 6.87916,-6.805122 0,-0.316943 -0.36081,-1.598507 -0.80179,-2.847921 -1.05375,-2.985495 -1.68925,-8.157788 -1.47114,-11.973484 0.45401,-7.942652 0.86708,-12.217854 2.13459,-22.092707 0.61822,-4.81641 0.80294,-7.998692 0.76788,-13.2291659 -0.0353,-5.2740193 -0.47394,-8.0739197 -1.94538,-12.4189027 -1.04009,-3.0712491 -1.02087,-3.5278309 0.21411,-5.0859832 2.87703,-3.6299112 8.34922,-7.2690832 13.40486,-8.9146402 13.01696,-4.236886 24.513,-2.103337 32.52055,6.035489 2.34978,2.3883123 3.48617,4.0318785 4.93776,7.1415247 1.10412,2.3653081 2.43858,6.6859919 2.18948,7.0890522 -0.0882,0.142724 -0.0423,0.3354835 0.10199,0.4283544 0.1443,0.092871 0.1764,0.4069811 0.0713,0.6980228 -0.16355,0.4530559 -0.21886,0.403668 -0.38456,-0.3433739 -0.14733,-0.6642038 -0.27356,-0.8061269 -0.52869,-0.5943916 -0.25857,0.2145959 -0.3287,0.09607 -0.30693,-0.5187463 0.0191,-0.5380494 0.14011,-0.7541865 0.37269,-0.6654098 0.18946,0.072317 0.27173,0.013787 0.18282,-0.1300673 -0.0889,-0.143854 -0.34123,-0.2615527 -0.56073,-0.2615527 -0.29078,0 -0.35028,0.1615727 -0.21923,0.5953125 0.35373,1.1708258 -0.31609,0.060327 -1.07724,-1.7859374 -3.29057,-7.9817655 -10.56261,-14.1321876 -18.99744,-16.0673436 -3.15233,-0.723223 -8.98739,-0.766799 -12.4332,-0.09285 -6.73674,1.317604 -11.07486,3.443878 -16.10069,7.8915552 -0.97098,0.859278 -1.82484,1.7171767 -1.89746,1.9064415 -0.0726,0.1892648 0.22542,1.7577171 0.66232,3.4854495 2.23194,8.8261247 2.63507,18.8017638 1.14271,28.2767468 -1.20969,7.680308 -1.97278,14.597305 -1.97607,17.911969 -0.006,5.934572 1.39033,12.006158 3.51621,15.29061 2.6557,4.102995 6.99931,7.033993 12.50868,8.440662 9.45227,2.413377 17.36566,0.231385 22.8972,-6.313538 1.32026,-1.562142 1.60798,-1.761483 3.28769,-2.277812 2.80359,-0.861807 4.03928,-1.616953 6.21807,-3.79994 2.29017,-2.294592 3.66328,-4.678483 4.53507,-7.873491 0.72148,-2.64415 0.78041,-8.030705 0.12751,-11.65514 -0.97698,-5.423427 -0.52333,-6.852492 3.48801,-10.987816 5.21038,-5.371434 6.6948,-9.031716 6.6673,-16.4402096 -0.0394,-10.6038385 -3.88954,-20.1688414 -10.96865,-27.2494614 -5.36782,-5.368959 -11.21887,-8.636417 -18.57774,-10.374535 -3.98007,-0.940068 -10.65731,-1.164861 -14.97256,-0.50406 -9.85414,1.50898 -17.8324,5.164261 -23.57325,10.800204 -1.21575,1.193533 -2.55621,2.694463 -2.9788,3.3354 l -0.76835,1.16534 -0.22867,-0.966902 c -0.12577,-0.531796 -0.3359,-0.966903 -0.46697,-0.966903 -0.81822,0 0.57841,-2.632761 2.46847,-4.653238 1.96732,-2.103069 3.78461,-3.523729 6.88438,-5.381841 1.27331,-0.763265 2.3151,-1.444819 2.3151,-1.514565 0,-0.442462 -0.80866,-1.308533 -3.27426,-3.506699 -1.53528,-1.368749 -2.71792,-2.607536 -2.62811,-2.752859 0.0898,-0.145323 0.0351,-0.185017 -0.1215,-0.08821 -0.15664,0.09681 -1.43037,-0.600687 -2.83052,-1.549988 -5.63532,-3.820747 -13.47109,-6.947291 -20.59961,-8.219435 -0.72836,-0.129983 -1.07814,-0.356291 -1.25022,-0.808902 -0.31371,-0.825122 -0.55902,-0.805215 -0.40701,0.03303 0.0941,0.51887 0.01,0.661458 -0.3917,0.661458 -0.61075,0 -0.627,-0.102212 -0.13817,-0.869205 0.20542,-0.322302 0.34826,-1.062253 0.31744,-1.644337 -0.0485,-0.916701 -0.17819,-1.120242 -0.96879,-1.520943 -2.03663,-1.032221 -5.78526,-0.373181 -8.63329,1.517803 -1.5573,1.033988 -2.10373,1.228621 -1.99635,0.711078 0.04,-0.192717 -0.044,-0.278245 -0.18672,-0.190062 -0.14268,0.08818 -0.55889,-0.472689 -0.92491,-1.246383 -0.88276,-1.865996 -2.11864,-3.069493 -2.741,-2.669182 -0.3752,0.241332 -0.44678,0.67924 -0.41501,2.539073 l 0.0384,2.247445 -0.96444,0.288024 c -0.53044,0.158413 -1.91693,0.362001 -3.0811,0.452418 -3.15144,0.244761 -7.76906,1.074555 -11.64167,2.09203 -20.91399,5.494866 -37.22765,21.569057 -42.573413,41.94848866 C 95.788584,6.5432331 95.306137,11.78583 95.490411,23.118866 c 0.07745,4.763077 0.0273,9.696108 -0.111939,11.010486 -0.138737,1.309688 -0.860466,4.881562 -1.603842,7.9375 -2.04832,8.420418 -2.046471,11.7391 0.009,16.139582 0.407836,0.873125 1.374861,2.279324 2.148942,3.124887 1.677915,1.832858 4.468488,3.886571 5.281028,3.886571 0.74412,0 3.6749,-1.919968 5.62836,-3.687171 2.59809,-2.350368 5.4769,-7.117879 7.33713,-12.150813 0.41092,-1.111764 0.96093,-2.4679 1.22226,-3.013635 l 0.47513,-0.992245 0.60838,0.571539 c 0.96658,0.908059 1.01735,1.997129 0.21564,4.625534 -1.35784,4.45166 -3.60695,8.625218 -6.45099,11.970777 -2.46798,2.903182 -7.13209,5.844297 -12.198171,7.691978 -4.02499,1.467977 -5.185969,1.636223 -10.980207,1.591224 -4.821639,-0.03745 -6.817512,0.02495 -6.635028,0.207437 0.03726,0.03726 -0.384587,0.543255 -0.937443,1.124427 -1.103358,1.159871 -2.08482,3.781822 -2.08482,5.569544 0,1.502997 0.513719,3.638909 1.24929,5.194222 1.192389,2.521224 4.530363,5.089836 6.632604,5.10387 0.897112,0.006 2.785569,-0.811075 3.118068,-1.34907 0.123678,-0.200114 0.314548,-0.08831 0.558156,0.326948 0.322712,0.550101 0.351051,0.559479 0.220903,0.0731 -0.09546,-0.356741 0.01983,-0.6907 0.319692,-0.926042 0.41843,-0.328399 0.432845,-0.321779 0.1337,0.0614 -0.184412,0.236217 -0.261201,0.622569 -0.170643,0.85856 0.107763,0.280824 -0.155925,0.74965 -0.763182,1.356907 -0.510308,0.510309 -0.849133,0.976474 -0.752943,1.035922 0.378187,0.233733 3.72019,1.034261 5.726229,1.371635 3.453272,0.58077 11.657895,0.304146 15.529985,-0.523602 z M 83.234669,84.598209 c -1.163057,-0.581012 -2.517791,-2.578906 -2.867345,-4.228616 -0.497688,-2.348829 0.376173,-4.568368 1.798625,-4.568368 0.938016,0 2.633804,1.558184 3.445286,3.165722 0.621043,1.230279 0.798433,1.930838 0.798433,3.153213 0,1.430037 -0.07329,1.633195 -0.81405,2.256503 -0.963177,0.81046 -1.147458,0.827753 -2.360949,0.221546 z m 0.901276,-3.008717 c -0.01362,-0.497025 -0.235547,-1.34787 -0.493168,-1.890766 -0.471155,-0.992885 -1.173406,-1.328511 -1.234931,-0.59021 -0.01819,0.218282 -0.05414,0.545704 -0.07989,0.727605 -0.108835,0.768882 1.089506,2.918493 1.538854,2.760433 0.161644,-0.05686 0.282753,-0.510036 0.269132,-1.007062 z m 22.667525,-4.884274 c 0.0127,-0.308224 0.0754,-0.370919 0.15985,-0.159852 0.0764,0.190996 0.067,0.419199 -0.0209,0.507118 -0.0879,0.08792 -0.15046,-0.06835 -0.13897,-0.347266 z m -0.24369,-1.168576 c 0,-0.363802 0.06,-0.512631 0.13345,-0.330729 0.0734,0.181901 0.0734,0.479557 0,0.661458 -0.0734,0.181901 -0.13345,0.03307 -0.13345,-0.330729 z m -8.010611,-0.315115 c -0.01723,-0.190489 -0.01428,-0.44449 0.0066,-0.564448 0.02084,-0.119957 -0.06519,-0.154398 -0.191175,-0.07653 -0.125984,0.07786 -0.489686,-0.210943 -0.808226,-0.641792 -0.620319,-0.839026 -0.566634,-0.945352 0.255233,-0.505502 0.28555,0.152822 0.447467,0.393897 0.359814,0.535722 -0.08765,0.141825 -0.02001,0.225148 0.150308,0.185163 0.395018,-0.09274 0.857549,1.043704 0.511766,1.257409 -0.139119,0.08598 -0.267042,4.73e-4 -0.284275,-0.190017 z m 5.719871,-2.639399 c -0.41231,-0.412309 -0.69286,-0.806446 -0.62344,-0.875859 0.2232,-0.2232 1.2849,0.671561 1.2849,1.082866 0,0.218617 0.11084,0.328987 0.2463,0.245264 0.13547,-0.08372 0.30882,-0.05106 0.38524,0.07258 0.33404,0.540493 -0.61144,0.156704 -1.293,-0.524851 z m 5.55625,-3.924653 c 0.0899,-0.14552 0.21603,-0.264583 0.2802,-0.264583 0.0642,0 0.11668,0.119063 0.11668,0.264583 0,0.145521 -0.12609,0.264584 -0.2802,0.264584 -0.15411,0 -0.20661,-0.119063 -0.11668,-0.264584 z m 52.44925,-13.514228 c -4.1306,-0.985048 -6.69174,-5.808821 -5.25053,-9.889123 1.04226,-2.950796 3.4327,-4.728579 6.3794,-4.744398 3.46985,-0.01863 6.02349,1.909563 7.14396,5.39421 0.83949,2.610838 0.3694,4.939845 -1.42571,7.06346 -1.40335,1.660158 -4.66428,2.696404 -6.84712,2.175851 z m 3.98042,-3.566399 c 0.63974,-0.448089 0.77571,-1.411286 0.27054,-1.916455 -0.5031,-0.503097 -1.74402,-0.385752 -2.05444,0.194273 -0.3891,0.727041 -0.34494,1.004679 0.25527,1.604894 0.63699,0.636987 0.77188,0.647337 1.52863,0.117288 z m -4.05933,-5.654577 c 0.58146,-0.642506 0.33806,-1.531869 -0.52712,-1.926072 -1.10311,-0.502612 -2.24108,0.872122 -1.5448,1.866205 0.49557,0.70752 1.46057,0.735403 2.07192,0.05987 z m -34.04794,6.94956 c 0.1819,-0.0734 0.47955,-0.0734 0.66146,0 0.1819,0.0734 0.0331,0.133452 -0.33073,0.133452 -0.36381,0 -0.51263,-0.06005 -0.33073,-0.133452 z m -24.81796,-4.048992 c -1.56083,-0.825297 -3.0819,-2.695782 -3.576918,-4.398579 -1.273918,-4.382124 1.604348,-8.551405 5.915838,-8.569305 4.44226,-0.01844 7.34828,4.94972 5.61109,9.592784 -0.59367,1.586716 -1.4534,2.512874 -3.09755,3.336878 -1.41503,0.709175 -3.5517,0.726005 -4.85246,0.03822 z m 6.46961,-3.23445 c 0.50134,-1.431533 -1.29872,-2.217943 -1.92591,-0.841397 -0.26599,0.583787 -0.24324,0.777285 0.14137,1.202272 0.62134,0.686579 1.47841,0.513261 1.78454,-0.360875 z m -4.65717,-4.500496 c 0.57165,-0.571649 0.38377,-1.780316 -0.32709,-2.104204 -0.82189,-0.374477 -1.39626,-0.150842 -1.78093,0.693413 -0.25268,0.55457 -0.22291,0.75772 0.17559,1.19805 0.537,0.593386 1.45114,0.694024 1.93243,0.212741 z m 26.64354,3.738973 c -0.43656,-0.130467 -1.96376,-0.265471 -3.39377,-0.30001 -2.52143,-0.0609 -3.88304,-0.438382 -1.84737,-0.512149 3.1177,-0.112976 5.23906,0.195724 6.02166,0.876275 0.29045,0.252581 0.27494,0.251307 -0.78052,-0.06412 z m -4.36563,-6.433322 c 0,-0.05579 0.23829,-0.163747 0.52953,-0.239909 0.29125,-0.07616 0.46281,-0.03052 0.38126,0.101433 -0.14241,0.230428 -0.91079,0.347252 -0.91079,0.138476 z m 34.98912,-7.437626 c -2.08106,-0.904449 -3.76829,-2.891998 -3.76829,-4.439051 0,-0.837336 0.92502,-1.780223 1.74649,-1.780223 1.43321,0 5.11931,2.222476 5.85091,3.527715 1.22269,2.181403 -1.15589,3.853359 -3.82911,2.691559 z m -57.81302,-3.491934 c -0.5559,-0.144976 -1.21439,-1.342302 -1.10738,-2.013539 0.20811,-1.305427 1.44714,-2.380425 3.43225,-2.977855 1.18365,-0.356228 1.24337,-0.346909 1.88428,0.294001 0.54128,0.541275 0.62917,0.817241 0.48231,1.514409 -0.22953,1.089639 -1.28875,2.240068 -2.63735,2.864447 -1.08564,0.502637 -1.2503,0.52817 -2.05411,0.318537 z M 197.67825,9.4090941 c -0.0837,-0.1354656 -0.0511,-0.308822 0.0726,-0.3852364 0.12364,-0.076414 0.2248,0.034421 0.2248,0.2463011 0,0.4461318 -0.0834,0.4851113 -0.29738,0.1389353 z M 197.27369,8.054666 c 0.006,-1.5422218 0.26513,-2.1404964 0.88807,-2.051174 0.30697,0.044016 0.57698,0.2907216 0.60004,0.5482356 0.0294,0.328214 0.005,0.3479915 -0.0828,0.066146 -0.17043,-0.5492112 -0.60739,-0.508161 -0.6489,0.060959 -0.0968,1.3272981 -0.18654,1.7152044 -0.46012,1.9887833 -0.22343,0.2234276 -0.29894,0.067187 -0.29625,-0.6129501 z m 54.50055,-3.9711355 c 0,-0.154109 0.11907,-0.2066136 0.26459,-0.1166767 0.14552,0.089937 0.26458,0.216026 0.26458,0.2801982 0,0.064172 -0.11906,0.1166767 -0.26458,0.1166767 -0.14552,0 -0.26459,-0.1260892 -0.26459,-0.2801982 z M 139.8555,-16.179103 c 0,-0.141961 0.18516,-0.489227 0.41147,-0.771702 0.38798,-0.484268 0.39349,-0.475826 0.0965,0.147868 -0.38571,0.809898 -0.50792,0.959998 -0.50792,0.623834 z m 5.55625,-10.665551 c 0,-0.607375 0.64989,-1.597369 1.00797,-1.535474 0.21579,0.0373 0.44352,-0.110777 0.50608,-0.329058 0.1011,-0.352778 0.0825,-0.352778 -0.16694,0 -0.15437,0.218281 -0.27871,0.277812 -0.27631,0.132291 0.009,-0.541111 0.76415,-1.253814 1.16545,-1.099822 0.51724,0.198485 0.52179,0.545028 0.0127,0.967531 -0.21828,0.181157 -0.39688,0.485284 -0.39688,0.675838 0,0.190554 -0.3458,0.592694 -0.76845,0.893645 -0.85187,0.606588 -1.08363,0.669691 -1.08363,0.295049 z m 2.24896,-2.393699 c 0.0899,-0.145521 0.0374,-0.264583 -0.11668,-0.264583 -0.15411,0 -0.2802,0.119062 -0.2802,0.264583 0,0.145521 0.0525,0.264583 0.11668,0.264583 0.0642,0 0.19026,-0.119062 0.2802,-0.264583 z m 46.82559,-0.800002 c -0.36584,-0.404242 -0.40983,-0.610141 -0.17955,-0.840414 0.23027,-0.230273 0.43617,-0.186284 0.84041,0.17955 0.29448,0.266501 0.53542,0.644688 0.53542,0.840415 0,0.52781 -0.64354,0.431221 -1.19628,-0.179551 z m -41.86466,-7.062959 c -0.59687,-0.214106 -0.34818,-0.789272 0.76207,-1.762473 1.21262,-1.062936 1.35948,-1.113051 1.77931,-0.60719 0.22292,0.26861 0.081,0.55429 -0.6062,1.220369 -0.55586,0.538759 -1.02219,0.792452 -1.22559,0.666744 -0.20412,-0.126153 -0.26118,-0.09428 -0.15084,0.08427 0.21222,0.34338 -0.0971,0.563878 -0.55875,0.398284 z m 2.05555,-2.06497 c 0.27961,-0.336907 0.26324,-0.375623 -0.0999,-0.236276 -0.23887,0.09166 -0.4343,0.27298 -0.4343,0.402932 0,0.340243 0.15316,0.292461 0.53419,-0.166656 z m 48.09356,131.173237 c -0.93701,-1.865513 -1.68912,-4.407818 -3.80393,-12.858239 -1.38408,-5.530547 -2.60705,-10.217336 -2.71772,-10.415086 -0.15532,-0.277557 -0.47824,-0.148014 -1.4161,0.56809 -1.13665,0.867901 -1.20169,0.983512 -1.01006,1.795342 1.25202,5.303891 4.91344,15.5782 6.25721,17.558352 0.34623,0.510205 0.62951,1.000003 0.62951,1.08844 0,0.281742 1.71072,2.44484 1.94028,2.453358 0.12127,0.0045 0.17563,-0.08112 0.12081,-0.190257 z m 1.40296,-2.473898 c -0.28248,-1.222351 -0.59129,-2.996362 -0.68624,-3.942247 -0.70667,-7.040171 -2.86229,-20.108332 -3.31691,-20.108332 -0.13036,0 -0.6577,0.420687 -1.17187,0.934861 -1.06849,1.068491 -1.15118,1.690842 -0.53548,4.030071 0.21966,0.834547 1.3548,5.38689 2.52254,10.116317 1.82781,7.402763 3.19371,11.699647 3.59238,11.300978 0.0601,-0.06006 -0.12193,-1.109297 -0.40442,-2.331648 z m 22.25306,-2.95006 c 0.60723,-0.480164 1.00343,-2.003493 0.87738,-3.373437 -0.0602,-0.654844 -0.12836,-1.190625 -0.15135,-1.190625 -0.023,0 -0.0755,-0.55588 -0.1167,-1.235289 -0.0895,-1.476527 -0.24099,-1.761098 -1.11393,-2.092988 -0.48236,-0.183393 -0.88419,-0.143704 -1.46164,0.144365 -0.43802,0.218512 -0.87123,0.351276 -0.96269,0.295033 -0.34299,-0.210906 -0.29014,1.842821 0.0954,3.709567 0.21984,1.064321 0.39971,2.416398 0.39971,3.004616 0,1.062402 0.007,1.069487 1.00777,1.069487 0.55427,0 1.19597,-0.148828 1.42601,-0.330729 z m -1.44159,-3.923797 c -0.78227,-0.455634 -0.51903,-0.692187 0.74075,-0.665636 1.18898,0.02506 1.19674,0.03106 0.63215,0.488392 -0.65687,0.532069 -0.74432,0.543359 -1.3729,0.177244 z m -0.17984,-1.484546 c -0.0102,-0.318834 0.0909,-0.64735 0.22466,-0.730036 0.27286,-0.168641 1.07966,0.541754 1.07966,0.950656 0,0.145521 -0.20168,0.0629 -0.44819,-0.183605 -0.42119,-0.421195 -0.45991,-0.418349 -0.64286,0.04725 -0.17586,0.44757 -0.19647,0.43943 -0.21327,-0.08426 z m -8.76086,-1.412514 c 2.77867,-0.360586 2.92143,-0.426594 2.92143,-1.350739 0,-0.659894 -0.0849,-0.766797 -0.50357,-0.633924 -0.85108,0.270125 -3.54533,0.666434 -4.54164,0.668051 -0.51929,8.43e-4 -1.56397,-0.182532 -2.32152,-0.4075 -1.73523,-0.515309 -3.62336,-2.352625 -4.81122,-4.681761 l -0.84461,-1.656081 0.1317,1.604055 c 0.15439,1.880553 1.11899,3.969833 2.28631,4.952071 1.0118,0.851378 3.36291,1.638341 5.18059,1.734047 0.29105,0.01532 1.41718,-0.08737 2.50253,-0.228219 z m 5.30968,-0.926636 c 0.22973,-0.276812 0.34485,-1.472106 0.36312,-3.770312 l 0.0268,-3.365006 -0.72761,-0.08372 -0.7276,-0.08372 -0.0203,3.391012 c -0.0111,1.865056 -0.0601,3.599371 -0.10888,3.854032 -0.1121,0.585635 0.72284,0.625979 1.19446,0.05772 z m 3.98339,-1.446777 c 0.9803,0 1.30128,-0.09789 1.30128,-0.396875 0,-0.274383 -0.27561,-0.396875 -0.89297,-0.396875 -1.48294,0 -2.54662,0.301917 -2.54662,0.722839 0,0.24885 0.15291,0.333433 0.41852,0.23151 0.23018,-0.08833 1.00409,-0.160599 1.71979,-0.160599 z m 4.60647,-0.362622 c 0.48352,-0.35356 0.48208,-0.404799 -0.0577,-2.05052 -0.30451,-0.928345 -0.63723,-2.134384 -0.73937,-2.680087 -0.15308,-0.817785 -0.29682,-0.992187 -0.81774,-0.992187 -0.46148,0 -0.63201,0.146864 -0.63201,0.544295 0,1.176596 1.22733,5.541121 1.55819,5.541121 0.10602,0 0.41592,-0.16318 0.68867,-0.362622 z m -12.33652,-0.448232 1.31346,-0.281688 0.14234,-1.239666 c 0.0783,-0.681817 0.10768,-1.763337 0.0653,-2.403378 l -0.077,-1.163711 -1.89486,-0.492176 c -3.69632,-0.960095 -7.72005,-2.728301 -9.60403,-4.220442 -0.53136,-0.420842 -1.03827,-0.765168 -1.12647,-0.765168 -0.53833,0 0.59952,4.542799 1.70299,6.799093 0.83737,1.712171 2.74508,3.663497 3.77825,3.864615 1.18258,0.230201 4.43111,0.174646 5.69999,-0.09748 z m 16.34265,-1.140527 c 4.18234,-1.422503 5.62405,-2.630603 5.64388,-4.729348 0.0117,-1.235186 -0.25599,-1.258577 -0.89181,-0.07793 -0.2708,0.502839 -0.92295,1.198025 -1.44923,1.544857 -1.03778,0.683927 -5.05295,2.30339 -5.71084,2.30339 -0.44634,0 -0.47387,0.114455 -0.23864,0.992188 0.19911,0.742982 0.37105,0.740829 2.64664,-0.03315 z m -7.90663,-0.573608 c 0.21215,-0.06687 0.33072,-0.628921 0.33072,-1.567749 v -1.463512 l -1.52135,7e-5 -1.52135,6.9e-5 -0.0728,1.736925 -0.0728,1.736926 1.26338,-0.169246 c 0.69486,-0.09309 1.41221,-0.216153 1.59412,-0.273483 z m 6.42436,-2.069703 c 3.65874,-1.327081 5.06982,-2.290691 5.56891,-3.802948 0.5105,-1.546829 0.0221,-1.611034 -2.45286,-0.32246 -1.20903,0.629469 -2.98303,1.393641 -3.94222,1.69816 -1.53923,0.488661 -1.72004,0.614982 -1.53996,1.075827 0.11223,0.287185 0.21242,0.849577 0.22265,1.249759 0.0102,0.400182 0.10841,0.727604 0.21818,0.727604 0.10977,0 0.97615,-0.281674 1.9253,-0.625942 z M 90.008863,57.738142 c 0.08739,-0.08739 -0.06134,-0.791677 -0.330512,-1.565088 -0.39014,-1.121001 -0.483473,-2.130639 -0.460187,-4.978078 0.02807,-3.431976 0.08737,-3.797435 1.514027,-9.330872 1.860361,-7.21558 2.08259,-9.60662 1.85681,-19.978071 -0.109666,-5.037646 -0.05837,-8.894042 0.152139,-11.436888 0.845099,-10.2085363 3.923528,-20.0283819 8.75153,-27.916406 0.58112,-0.949435 1.05658,-1.849906 1.05658,-2.001047 0,-0.377982 -1.95672,-1.209864 -4.423428,-1.880581 -2.914968,-0.792603 -8.088598,-0.790682 -11.012879,0.0041 -4.747008,1.290157 -10.057814,4.946307 -12.867109,8.85818 -0.489749,0.681963 -0.918654,1.239933 -0.953122,1.239933 -0.03447,0 -0.01296,-0.267891 0.04779,-0.595313 0.06075,-0.327421 0.03968,-0.446484 -0.04682,-0.264583 -0.0865,0.181901 -0.280993,0.330729 -0.432205,0.330729 -0.18744,0 -0.185768,-0.107436 0.0053,-0.337606 0.296197,-0.356895 0.261817,-1.485551 -0.06117,-2.008156 -0.25311,-0.409541 1.004913,-2.099562 3.289196,-4.418683 4.412526,-4.479823 11.465201,-7.072001 17.987829,-6.611343 3.247595,0.229361 6.220978,0.971436 8.539038,2.131114 1.01794,0.509258 1.89059,0.925925 1.93921,0.925925 0.0486,0 0.58374,-0.670522 1.18916,-1.490049 0.60542,-0.819527 1.97904,-2.477198 3.0525,-3.683714 l 1.95173,-2.193665 -0.99363,-0.822121 c -1.55347,-1.285328 -6.02248,-3.365035 -8.93113,-4.15621 -2.400241,-0.652883 -3.075629,-0.72038 -7.276045,-0.727146 -4.233596,-0.0068 -4.865166,0.05523 -7.373209,0.724367 -5.012307,1.337269 -9.409608,3.759324 -13.400766,7.381207 -6.432331,5.83719 -10.357605,12.620076 -11.678723,20.1808717 -0.736026,4.2122991 -0.211112,8.3961058 1.560188,12.435416 l 0.812167,1.8520832 -0.60596,2.3310896 c -1.554695,5.9808075 -0.347339,10.2973795 4.52831,16.1897425 1.324527,1.600729 2.657511,3.419614 2.962187,4.041966 l 0.553956,1.13155 -0.519179,3.366367 c -0.566042,3.670231 -0.637078,7.624341 -0.175013,9.741767 1.486013,6.809685 6.81641,12.014051 13.811043,13.484494 1.647678,0.346382 5.648865,0.376308 5.980444,0.04473 z M 70.801735,-11.164926 c 0.0033,-0.286303 1.561151,-2.992178 1.722661,-2.992178 0.06982,0 0.12694,0.439475 0.12694,0.976612 0,0.929667 -0.02002,0.951923 -0.416496,0.463021 -0.229073,-0.282475 -0.349446,-0.378253 -0.267497,-0.212841 0.08195,0.165413 -0.02828,0.447882 -0.244962,0.627709 -0.216679,0.179828 -0.393962,0.483948 -0.393962,0.675823 0,0.191875 -0.119062,0.422448 -0.264583,0.512385 -0.145521,0.08994 -0.263466,0.0672 -0.262101,-0.05053 z M 251.77424,0.89291575 c 0,-0.14552082 -0.11906,-0.19099865 -0.26458,-0.10106183 -0.14552,0.0899368 -0.26458,0.28258398 -0.26458,0.42810478 0,0.1455208 0.11906,0.1909987 0.26458,0.1010619 0.14552,-0.089937 0.26458,-0.282584 0.26458,-0.42810485 z M 74.092578,-12.856785 c -0.08519,-0.137839 -0.267668,-0.180917 -0.405507,-0.09573 -0.137839,0.08519 -0.180917,0.267667 -0.09573,0.405506 0.08519,0.13784 0.267667,0.180917 0.405507,0.09573 0.137839,-0.08519 0.180916,-0.267668 0.09573,-0.405506 z"
       id="path26" /></g></svg>
