<?xml version="1.0" encoding="UTF-8" standalone="no"?>
<!-- Created with Inkscape (http://www.inkscape.org/) -->

<svg
   width="205.57574mm"
   height="212.93384mm"
   viewBox="0 0 205.57575 212.93385"
   version="1.1"
   id="svg1"
   xml:space="preserve"
   xmlns="http://www.w3.org/2000/svg"
   xmlns:svg="http://www.w3.org/2000/svg"><defs
     id="defs1" /><g
     id="layer1"
     transform="translate(-25.381083,2.1665366)"><path
       id="path3"
       style="fill:#000000"
       d="m 122.51624,-2.1665366 c -3.4071,-0.00345 -6.8538,0.1002621 -8.32559,0.3131592 -3.25363,0.4706411 -3.10111,0.4396845 -3.69487,0.7493082 -0.29105,0.15176763 -1.42214,0.42097788 -2.51354,0.59789637 -3.11029,0.50418635 -6.02597,1.59256683 -9.024769,3.36930343 L 97.737907,3.5855671 96.576221,2.6445392 C 92.316924,-0.80669913 85.908123,-1.396848 79.539534,1.0756428 c -3.060917,1.1883466 -9.391011,5.7434769 -8.957076,6.4456014 0.10581,0.1712034 0.04985,0.2056535 -0.141593,0.087333 -0.185397,-0.1145818 -0.778386,0.1787885 -1.429887,0.7069336 -2.258227,1.8306491 -4.365192,3.0749021 -7.070369,4.1754561 -5.602222,2.279161 -7.188782,3.999737 -7.169072,7.775236 0.03269,6.26029 4.501387,12.262449 10.826729,14.541231 1.063695,0.38321 2.168731,0.696598 2.455664,0.696598 0.837473,0 0.82936,0.530244 -0.04547,2.914034 -1.475416,4.020237 -2.588651,7.822486 -3.01997,10.315133 -0.559785,3.23505 -1.263706,5.147272 -2.614311,7.103442 -2.035479,2.948115 -2.771324,4.314976 -4.147034,7.700305 -0.992328,2.441913 -1.354069,3.064995 -1.865519,3.211691 -3.841123,1.101717 -7.574646,2.617995 -7.971607,3.238045 -0.109127,0.170465 -0.1414,0.465284 -0.07183,0.65474 0.06956,0.189423 0.009,0.271328 -0.134875,0.182418 -0.143854,-0.08891 -0.261483,-0.03943 -0.261483,0.109554 0,0.148989 0.238126,0.398211 0.529167,0.553972 0.392727,0.210178 0.529166,0.201369 0.529166,-0.03462 0,-0.17489 0.07385,-0.243959 0.164331,-0.153479 0.09048,0.09048 0.764319,-0.139505 1.497583,-0.51108 1.607981,-0.814824 5.537295,-2.243625 5.706112,-2.074808 0.0664,0.0664 -0.073,0.985709 -0.310059,2.042769 -0.237053,1.057061 -0.463508,2.216674 -0.503328,2.577104 -0.06048,0.547374 -0.542192,0.887569 -2.923853,2.064473 -1.776394,0.877809 -2.783452,1.518969 -2.671154,1.700672 0.110931,0.179487 0.05852,0.216087 -0.136426,0.0956 -0.34847,-0.215367 -2.50722,1.422388 -2.939356,2.229838 -0.306685,0.57305 -0.11889,1.221886 0.412378,1.425753 0.204554,0.07849 0.939277,-0.331702 1.632976,-0.911572 1.861272,-1.555864 1.882129,-1.571481 2.114599,-1.571481 0.448318,0 2.195802,-1.362962 2.050004,-1.598869 -0.08408,-0.136047 0.02139,-0.180323 0.234095,-0.0987 0.212702,0.08162 0.736948,-0.03248 1.164786,-0.253731 l 0.777731,-0.402559 0.168465,3.095418 c 0.139401,2.557206 0.101114,3.145623 -0.220659,3.38584 -0.214198,0.159909 -0.301699,0.377847 -0.19482,0.484725 0.106879,0.106879 0.04656,0.154963 -0.133842,0.106453 -0.777025,-0.208932 -6.729063,4.493238 -7.077604,5.59139 -0.07915,0.249388 -0.419274,0.600607 -0.756026,0.780831 -0.923442,0.494213 -1.62196,1.800074 -1.221114,2.283065 0.175555,0.21153 0.456998,0.384473 0.625285,0.384473 0.475409,0 3.638834,-3.30783 3.407027,-3.562574 -0.113227,-0.12444 -0.0796,-0.154426 0.07493,-0.06666 0.154527,0.08776 0.713116,-0.220618 1.240751,-0.68523 0.527631,-0.46461 1.261816,-1.068015 1.631942,-1.341003 0.370123,-0.272989 0.597388,-0.61927 0.504878,-0.768945 -0.100475,-0.16257 -0.03708,-0.190799 0.157097,-0.0708 0.188015,0.116202 0.567704,-0.01998 0.90072,-0.322978 0.316649,-0.288103 0.838305,-0.659716 1.159619,-0.825273 0.544018,-0.280303 0.604568,-0.223434 0.874882,0.826823 1.950153,7.577013 6.865846,14.449165 13.490133,18.858283 1.527963,1.01701 2.865516,1.96804 2.972428,2.11356 0.209523,0.28519 0.28359,4.10105 0.07958,4.10105 -0.06769,0 -1.145725,-0.6595 -2.395203,-1.46555 -3.663185,-2.36316 -8.629616,-4.64851 -12.563057,-5.78052 -5.550871,-1.59749 -13.795631,-2.06908 -17.861442,-1.02216 -2.545273,0.65538 -4.697711,1.57791 -6.406844,2.74712 -1.656179,1.13296 -4.345583,3.97155 -4.179074,4.41058 0.07186,0.1895 0.02655,0.27972 -0.100769,0.20102 -0.292544,-0.1808 -1.913007,3.14037 -2.638598,5.40742 -2.422532,7.56894 -1.659614,19.1824 1.829862,27.84585 4.492541,11.15378 11.691579,18.12487 21.23488,20.5636 3.464124,0.88523 9.482637,1.85725 17.195849,2.77658 3.026036,0.36064 5.615656,0.72593 5.754688,0.81183 0.139032,0.0859 0.257666,0.59564 0.264066,1.13275 0.0064,0.53712 0.183555,1.45293 0.393258,2.03502 0.209702,0.58208 0.38279,1.10522 0.38499,1.16272 0.0049,0.12977 -2.548513,-0.095 -6.875033,-0.60565 -1.819005,-0.21471 -4.282067,-0.47246 -5.473051,-0.57258 -2.332955,-0.19611 -4.685663,0.0298 -4.440556,0.42633 0.08313,0.13452 -0.01283,0.18139 -0.213423,0.10439 -0.648749,-0.24895 -2.905213,1.54353 -4.036963,3.20652 -2.552766,3.7511 -3.832544,8.14994 -3.995105,13.72992 -0.101287,3.47667 -0.04718,4.18408 0.444417,5.82083 0.83697,2.78665 2.602715,5.64831 3.241663,5.25342 0.148817,-0.092 0.185845,-0.0335 0.08372,0.13178 -0.240092,0.38848 1.752519,1.82761 2.986898,2.15749 1.102359,0.2946 5.110792,0.96725 7.03678,1.18081 0.727601,0.0807 1.59632,0.2013 1.930632,0.2682 1.400716,0.28023 4.84503,0.54405 7.065201,0.54105 2.003015,-0.003 2.612393,-0.11199 3.836459,-0.68626 2.57968,-1.21025 4.658664,-3.74379 5.568135,-6.78512 0.184944,-0.61846 0.357886,-1.12448 0.383956,-1.12448 0.02607,0 2.239669,0.25268 4.91908,0.56173 2.679407,0.30901 5.228725,0.59705 5.665287,0.63975 3.029555,0.29605 3.571875,0.43067 3.571875,0.8878 0,0.62887 1.124066,3.8933 1.788005,5.19193 0.296168,0.57929 0.843098,1.38059 1.214912,1.78077 0.371818,0.40018 0.592086,0.73081 0.489893,0.73381 -0.297841,0.01 1.832384,1.8554 2.989484,2.59002 1.5653,0.99379 4.07211,1.82963 6.82232,2.27531 4.06134,0.65815 11.01012,1.53644 13.81518,1.74615 v 5.2e-4 c 5.59944,0.41863 8.19695,-0.35346 11.11095,-3.30213 1.88612,-1.90857 3.09489,-4.17775 3.86798,-7.26002 0.48512,-1.93398 0.54488,-2.80563 0.45578,-6.67453 -0.0659,-2.86001 -0.21089,-4.55843 -0.40566,-4.7532 -0.16668,-0.16668 -0.24978,-0.44228 -0.18448,-0.61236 0.36018,-0.93862 -2.52451,-7.50376 -3.13211,-7.12825 -0.1738,0.10744 -0.2071,0.0506 -0.0858,-0.14573 0.31478,-0.50933 -2.16312,-2.82926 -3.9486,-3.69693 -1.93036,-0.93808 -2.33291,-1.01506 -9.13329,-1.74356 -2.11005,-0.22603 -4.11437,-0.47377 -4.45399,-0.55087 -0.35406,-0.0804 -0.55131,-0.0336 -0.46251,0.11007 0.0944,0.15269 -0.18094,0.14821 -0.70538,-0.0119 l -0.86041,-0.26251 1.10949,-1.18856 c 0.7244,-0.77604 1.13743,-1.47952 1.19063,-2.02778 0.0757,-0.78056 0.1435,-0.83321 0.96945,-0.75241 0.48858,0.0478 0.82752,-0.0118 0.75292,-0.13229 -0.0746,-0.12056 1.64525,-0.12926 3.82199,-0.0191 2.61783,0.13237 4.13242,0.10678 4.47311,-0.0754 0.35895,-0.19239 0.5147,-0.19109 0.5147,0.003 0,0.15381 0.26789,0.21893 0.59531,0.14573 0.32743,-0.0732 1.35655,-0.18507 2.28668,-0.24857 1.00692,-0.0687 1.7813,-0.25767 1.9141,-0.46715 0.16438,-0.25937 0.22438,-0.26613 0.22738,-0.0248 0.004,0.32801 0.4206,0.32084 3.84007,-0.0682 0.72761,-0.0828 1.79917,-0.19573 2.38125,-0.25063 2.28571,-0.21565 4.30863,-0.44453 5.94331,-0.67231 0.94036,-0.13103 1.74792,-0.19976 1.79472,-0.15296 0.0468,0.0468 -0.10404,0.64098 -0.33486,1.32085 -1.51936,4.47515 -1.85349,9.60349 -0.88005,13.50046 0.53786,2.15321 0.96472,3.17013 1.87275,4.46123 0.44474,0.63238 0.58219,0.68941 0.95653,0.39688 0.39151,-0.306 0.39926,-0.29302 0.0708,0.12557 -0.32423,0.41321 -0.27822,0.54666 0.39687,1.15032 0.93158,0.83303 2.92166,1.77687 3.27991,1.55546 0.14384,-0.0889 0.26148,-0.0377 0.26148,0.11369 0,0.16011 0.49794,0.24617 1.19062,0.20567 0.65485,-0.0383 1.19063,0.0128 1.19063,0.11369 0,0.10089 0.68461,0.23519 1.52135,0.29869 0.83675,0.0635 3.72401,0.33069 6.41615,0.59324 4.55422,0.44421 4.99738,0.44728 6.36705,0.047 1.68698,-0.4929 3.8002,-1.8992 3.52434,-2.3456 -0.10305,-0.16667 -0.065,-0.2235 0.0868,-0.1297 0.37882,0.23409 1.23058,-0.7738 0.98702,-1.16789 -0.12461,-0.20162 -0.0887,-0.25375 0.0961,-0.13953 0.31475,0.19452 1.4354,-1.72511 1.3379,-2.29185 -0.0305,-0.17728 0.0747,-0.62012 0.23358,-0.98392 0.15886,-0.3638 0.35225,-0.86503 0.42995,-1.11362 0.11513,-0.36828 0.37659,-0.42888 1.41076,-0.32763 0.69811,0.0683 3.65046,0.3026 6.56084,0.52038 8.10773,0.6067 7.72224,0.52698 7.93079,1.63866 0.3098,1.65134 1.5059,4.57828 1.7973,4.39818 0.154,-0.0952 0.19727,-0.0436 0.0982,0.11679 -0.2015,0.32604 1.08369,1.81717 1.47019,1.70584 0.13876,-0.04 0.18591,0.0348 0.10491,0.16588 -0.081,0.1311 0.2971,0.53781 0.84025,0.90382 1.28881,0.86848 3.44945,1.33845 7.60212,1.65416 1.16417,0.0885 3.60495,0.33086 5.42396,0.53847 1.81901,0.20761 4.05041,0.37882 4.95836,0.37982 1.91933,0.003 4.18923,-0.7586 4.91856,-1.65003 0.26835,-0.32798 0.39641,-0.42394 0.28474,-0.21342 -0.12028,0.22676 0.13238,0.14368 0.62011,-0.20361 1.8963,-1.35025 3.68522,-4.46504 4.62711,-8.05738 0.83584,-3.18886 0.83155,-9.50239 -0.009,-12.44421 -0.80377,-2.81355 -1.71268,-4.51304 -3.22255,-6.02288 -1.55636,-1.55637 -2.93824,-1.99774 -6.88536,-2.19987 -1.52797,-0.0782 -4.445,-0.26599 -6.4823,-0.41703 -2.03727,-0.15103 -4.4697,-0.33022 -5.40535,-0.39842 -1.91851,-0.13994 -3.77719,0.23053 -4.82865,0.96273 -0.86728,0.60394 -1.14345,0.26915 -0.61443,-0.74518 0.21662,-0.41533 0.39444,-1.06838 0.39533,-1.45159 0.002,-0.7775 0.42716,-0.98844 2.37246,-1.1777 0.64892,-0.0631 1.28831,-0.22377 1.4211,-0.35657 0.1328,-0.13284 0.38619,-0.18614 0.56276,-0.11834 0.27162,0.10423 5.02781,-0.54047 5.8322,-0.79065 0.14552,-0.0453 0.74083,-0.17246 1.32292,-0.28267 3.50209,-0.66306 8.20763,-2.63957 10.54716,-4.4297 3.70862,-2.83779 6.8063,-6.9319 8.77259,-11.59464 0.82647,-1.95987 2.29745,-6.91335 2.10891,-7.1019 -0.0689,-0.0689 4.2e-4,-0.27693 0.154,-0.46198 0.15358,-0.18506 0.30105,-1.11848 0.32815,-2.0743 0.0271,-0.95578 0.14823,-1.73809 0.26871,-1.73839 0.23488,-6.1e-4 0.10192,-8.86888 -0.1726,-11.52074 -0.22624,-2.18546 -1.35211,-6.41357 -2.34042,-8.78758 -1.79077,-4.30163 -5.72153,-9.02514 -9.24853,-11.11405 -2.35169,-1.39281 -5.68356,-2.422829 -8.88628,-2.747122 -1.57003,-0.15897 -2.99711,-0.328194 -3.17087,-0.376204 -0.17375,-0.04801 -0.45127,-0.599611 -0.61702,-1.225765 -2.17536,-8.21794 -5.00086,-15.562457 -8.53022,-22.172807 -0.73811,-1.382441 -1.51017,-2.84202 -1.71514,-3.243729 -0.20565,-0.403054 -0.50023,-0.651586 -0.65733,-0.554489 -0.1678,0.103753 -0.20877,0.05158 -0.0987,-0.126607 0.37653,-0.609231 -3.84118,-7.217593 -10.55956,-16.544726 -1.45323,-2.017543 -2.8182,-3.92255 -3.03341,-4.233334 -1.12943,-1.630999 -3.04687,-4.080114 -3.6251,-4.630725 -0.36174,-0.344477 -0.55888,-0.714812 -0.4377,-0.823205 0.12119,-0.108393 1.25026,-0.443351 2.50889,-0.744141 2.69458,-0.643955 4.24621,-1.312954 6.30866,-2.720764 4.21588,-2.877747 7.26662,-8.13348 7.60987,-13.109277 0.27238,-3.948379 -1.2934,-6.192602 -5.3914,-7.726144 -1.29176,-0.483406 -3.14535,-1.175746 -4.11861,-1.538407 -2.95372,-1.100637 -5.65435,-3.046535 -7.87187,-5.672005 -1.08271,-1.2819 -2.09476,-2.259004 -2.24896,-2.171444 -0.1542,0.08756 -0.19283,0.06295 -0.0863,-0.05478 0.24138,-0.266765 -1.24095,-1.946037 -3.33313,-3.7765138 -1.73844,-1.5209986 -4.53075,-2.9694595 -6.73499,-3.4938436 -1.76159,-0.4190853 -8.63087,-0.2626437 -9.10074,0.2072225 -0.17237,0.1723727 -0.50854,0.3131591 -0.74724,0.3131591 -0.23869,0 -1.1775,0.3717181 -2.08618,0.8257894 l -1.65209,0.8252727 -0.96997,-0.927592 c -1.21034,-1.1577008 -4.94758,-3.2123248 -5.36918,-2.9517578 -0.19619,0.1212591 -0.24201,0.079599 -0.12351,-0.1121379 0.11696,-0.1892524 7.8e-4,-0.3054077 -0.3054,-0.3054077 -0.27182,0 -0.72523,-0.1749543 -1.0077,-0.3886068 -0.48483,-0.3667248 -0.48589,-0.388935 -0.0279,-0.396875 0.80183,-0.01391 0.36164,-0.5684925 -0.75861,-0.95549719 -1.65898,-0.57312096 -3.23827,-0.86667596 -7.66362,-1.42575281 -1.16415,-0.1470745 -2.95011,-0.4047169 -3.96875,-0.5720581 -1.3131,-0.2157153 -4.68079,-0.3262475 -8.08787,-0.3296956 z m 5.39915,2.08772786 c 0.31439,0.03369447 0.92873,0.07716664 1.36529,0.09663493 l 0.79375,0.03565674 -0.79375,0.41186117 c -0.43656,0.22658684 -1.13195,0.7319507 -1.54512,1.1229289 -0.87495,0.8279441 -1.64072,2.1657592 -1.23972,2.1657592 0.14926,0 0.2713,-0.1044269 0.2713,-0.2320271 0,-0.2922647 2.35771,-1.319679 4.10104,-1.7874878 1.60934,-0.4318433 5.41896,-0.46771 7.32927,-0.06873 1.58144,0.3302956 2.25884,0.7542256 1.25677,0.7865153 -0.36908,0.011893 -0.47763,0.076966 -0.25166,0.151412 0.21828,0.071913 0.635,0.2390833 0.92604,0.3710367 0.29104,0.1319537 1.42213,0.5538032 2.51354,0.9374105 1.09141,0.3836073 2.12822,0.8127788 2.30374,0.953947 0.17553,0.1411684 0.47319,0.16753 0.66146,0.058911 0.18831,-0.1086191 0.25206,-0.097903 0.14211,0.023254 -0.2526,0.2783294 1.92646,1.74323 2.27376,1.5285889 0.1413,-0.087324 0.18046,-0.034728 0.0868,0.1167887 -0.0936,0.1515162 0.007,0.4227202 0.22375,0.6025472 0.56396,0.4680372 0.4896,0.8739946 -0.293,1.60507 -0.37765,0.352787 -0.95855,1.1175566 -1.29088,1.6996376 -0.63567,1.113466 -1.09904,2.912564 -0.68419,2.656169 0.13232,-0.08178 0.29535,0.06085 0.36225,0.317293 0.0903,0.346048 0.12964,0.308722 0.15244,-0.144694 0.0169,-0.33601 0.13654,-0.545188 0.26614,-0.465088 0.30401,0.187887 1.15933,-1.106929 0.95239,-1.441772 -0.0864,-0.13974 0.004,-0.192686 0.19999,-0.117306 0.19644,0.07538 0.64655,-0.170568 0.99994,-0.546736 0.56183,-0.598035 0.57662,-0.659923 0.11937,-0.494544 -0.28765,0.103989 -0.44461,0.101762 -0.34881,-0.0052 0.0958,-0.106865 0.35383,-0.221035 0.57309,-0.253215 0.62342,-0.091498 1.75199,-1.0333264 1.57716,-1.3161987 -0.0865,-0.1400097 -0.0336,-0.178528 0.11731,-0.085266 0.1509,0.093262 0.5562,-0.05032 0.90072,-0.3193604 0.34453,-0.2690401 0.8942,-0.5733433 1.22163,-0.6759277 0.32742,-0.1025844 0.59531,-0.2716732 0.59531,-0.3762044 0,-0.1045311 0.20836,-0.2098375 0.46302,-0.2335775 0.25466,-0.02374 1.29647,-0.2389263 2.31511,-0.4785238 2.16143,-0.5083936 6.38361,-0.3893245 8.35349,0.2356446 1.22436,0.3884428 4.03129,2.0437426 4.35581,2.5688354 0.0971,0.1571319 0.34182,0.2226545 0.54364,0.1452108 0.20182,-0.077444 0.33845,0.00369 0.30385,0.1803507 -0.0346,0.1766632 0.0858,0.2911448 0.26769,0.2547648 0.18189,-0.03638 0.30098,0.037356 0.26458,0.1638143 -0.0837,0.290968 4.21402,5.083701 5.91954,6.601147 0.706,0.628168 1.40308,1.068255 1.54874,0.978235 0.1457,-0.09002 0.20584,-0.0086 0.13384,0.180868 -0.2252,0.592449 3.62603,2.708267 8.33903,4.581632 2.68309,1.066507 4.23333,2.036352 4.23333,2.648418 0,0.456888 -0.86143,0.91054 -3.30729,1.740979 -1.58565,0.538372 -2.32785,0.62509 -5.15938,0.60203 -2.79705,-0.02278 -3.63383,-0.13319 -5.42396,-0.715719 -3.98477,-1.296691 -6.69139,-3.310655 -9.4635,-7.040914 -1.03419,-1.391646 -2.01626,-2.649658 -2.18178,-2.795178 -0.16552,-0.145521 -0.51365,-0.592008 -0.77411,-0.992187 -0.26046,-0.400182 -0.63871,-0.727604 -0.84026,-0.727604 -0.20154,0 -0.36639,-0.109678 -0.36639,-0.243913 0,-0.397738 -1.88687,-0.902392 -3.25923,-0.871782 -2.23441,0.04983 -4.56022,1.801679 -6.83679,5.14904 -0.82422,1.211888 -2.07481,3.636506 -2.07481,4.02301 0,0.04116 0.50601,-0.03061 1.12448,-0.15968 3.91461,-0.816954 9.27358,-1.266538 9.56066,-0.802018 0.0732,0.118391 -0.92584,0.663796 -2.22002,1.211812 -1.2942,0.548019 -3.32757,1.547367 -4.51859,2.221053 -2.50053,1.414396 -2.47482,1.444453 1.47743,1.737362 1.30969,0.09706 3.5412,0.431996 4.95887,0.744141 1.80818,0.398122 2.74528,0.492609 3.13934,0.316776 0.53076,-0.236835 0.5027,-0.289398 -0.50694,-0.957564 -1.23716,-0.818709 -3.6033,-1.678673 -5.58571,-2.02985 -0.061,-0.01081 0.4152,-0.296599 1.05833,-0.635104 2.21388,-1.165258 4.34444,-2.578766 4.34444,-2.882511 0,-0.618626 -4.05036,-1.289879 -7.0776,-1.173055 -1.56435,0.06037 -2.84052,0.0348 -2.83652,-0.05684 0.016,-0.349108 2.61162,-2.919502 3.59409,-3.558956 1.07644,-0.700627 1.44704,-0.78949 3.08509,-0.73949 1.13776,0.03473 2.74143,1.328792 4.05711,3.273185 0.41794,0.617659 1.01691,1.420586 1.33067,1.784388 1.99915,2.317959 3.12233,3.401487 3.37654,3.256648 0.16039,-0.0914 0.20577,-0.07177 0.10128,0.04393 -0.24052,0.266353 1.62503,1.770696 1.94821,1.570964 0.13181,-0.08145 0.20691,-0.0069 0.16691,0.165881 -0.10604,0.458223 3.18012,2.042803 5.55263,2.677356 2.52691,0.675839 7.74289,0.814926 8.79327,0.234611 0.3633,-0.200716 0.98098,-0.389846 1.37252,-0.420646 0.39154,-0.0308 1.4934,-0.493247 2.44843,-1.027327 l 1.73633,-0.971001 v 1.155485 c 0,1.445642 -0.60736,3.520999 -1.6831,5.74952 -0.94719,1.962214 -3.80059,5.009192 -5.75882,6.150012 -3.64749,2.124916 -8.73642,2.769554 -12.54601,1.589051 -1.75083,-0.542542 -5.03009,-2.539877 -5.90971,-3.599781 -0.35846,-0.431917 -1.62048,-0.616579 -1.61748,-0.236678 0.003,0.376315 1.19148,2.128717 2.18023,3.212724 1.99376,2.185839 4.19083,3.404131 6.68021,3.7052 1.2801,0.154816 1.37663,0.229319 3.10472,2.386935 1.91929,2.396293 1.92853,2.407627 3.9331,5.181079 0.73624,1.018643 1.44839,1.89194 1.58285,1.94045 0.13446,0.04851 0.24443,0.207924 0.24443,0.3545 0,0.552513 4.80847,7.100727 5.08754,6.92826 0.16102,-0.0995 0.21047,-0.05413 0.11317,0.103352 -0.21439,0.346898 3.71395,6.311877 4.09071,6.211508 0.1501,-0.03999 0.19356,0.0559 0.0961,0.213423 -0.18067,0.292338 0.82963,2.027485 1.80505,3.100069 0.29776,0.327422 0.45091,0.595313 0.34055,0.595313 -0.11035,0 0.16668,0.463787 0.61547,1.030428 0.44879,0.566642 0.81597,1.116934 0.81597,1.222664 0,0.173362 -1.99506,-1.346802 -2.86288,-2.181262 -0.69021,-0.663757 -0.66051,-0.320555 0.0351,0.40566 0.39103,0.408145 0.71107,0.884398 0.71107,1.058333 0,0.173938 0.18551,0.31626 0.41238,0.31626 0.24758,0 0.33599,0.123762 0.22118,0.309542 -0.1298,0.210012 -0.045,0.253596 0.26303,0.135392 0.28144,-0.107925 0.38927,-0.06971 0.28422,0.100253 -0.0933,0.150907 0.48667,1.250806 1.28881,2.444295 1.84278,2.741834 4.44023,7.932004 5.48339,10.956437 0.44131,1.279468 0.91031,2.564082 1.04231,2.855123 0.21704,0.478512 0.67916,2.003788 1.76217,5.820833 2.05606,7.246653 2.51894,10.436373 2.61224,17.991663 0.10297,8.3396 -0.49238,11.96934 -2.77916,16.94109 -3.09876,6.73706 -8.75168,10.80864 -17.24287,12.4194 -3.27419,0.6211 -5.57413,0.72015 -9.77667,0.42168 -5.83968,-0.41474 -9.80977,-1.57783 -12.14396,-3.55793 -0.65004,-0.55156 -0.65295,-0.55103 -0.19792,-0.009 0.25395,0.30285 0.39788,0.61446 0.31988,0.69246 -0.078,0.078 0.27662,0.50903 0.78806,0.95808 0.51144,0.44905 0.84276,0.8678 0.73639,0.9307 -0.27618,0.16331 -10.1195,-1.05266 -10.88512,-1.34462 -0.49331,-0.18813 -0.54576,-0.27817 -0.231,-0.39895 0.22381,-0.0859 0.95854,-1.0645 1.63246,-2.17454 1.00094,-1.64863 1.17489,-2.11269 0.9493,-2.53421 -0.1893,-0.35424 -0.19023,-0.51625 -0.002,-0.51625 0.15064,0 0.27175,-0.20836 0.26975,-0.46302 -0.003,-0.39575 -0.0413,-0.40625 -0.26045,-0.0672 -0.54481,0.84304 -0.26925,-0.59147 0.28629,-1.49035 0.30291,-0.49012 0.49173,-0.8909 0.42013,-0.8909 -0.0716,0 -0.90624,1.16086 -1.85467,2.57969 -2.84266,4.25259 -5.72134,7.27705 -9.07645,9.53637 -1.68016,1.13142 -3.96017,2.26747 -5.15059,2.56625 -0.55906,0.14032 -0.73747,0.41117 -0.98908,1.5012 -0.39059,1.69212 -1.43502,3.14894 -2.95021,4.11499 -1.94039,1.23716 -2.6331,1.47387 -2.82825,0.96532 -0.13347,-0.34782 0.48397,-2.63923 1.14928,-4.26434 0.35736,-0.8729 -0.45679,-0.14736 -1.70325,1.51825 -1.46793,1.96157 -2.39035,2.54367 -4.48913,2.83135 -1.02035,0.13985 -1.12448,0.1019 -1.12448,-0.41134 0,-0.31109 0.35718,-1.59674 0.79375,-2.85667 0.9081,-2.62083 0.87594,-2.47065 0.52916,-2.47065 -0.14552,0 -0.26458,0.1855 -0.26458,0.41237 0,0.22685 -0.10613,0.34717 -0.23565,0.26717 -0.12953,-0.08 -0.62861,0.36646 -1.10897,0.99219 -0.48037,0.62574 -1.3868,1.53155 -2.01435,2.01331 -0.94014,0.72172 -1.21062,0.818 -1.53686,0.54726 -0.21776,-0.18073 -0.39584,-0.71807 -0.39584,-1.19425 0,-1.25413 0.92018,-4.04029 1.79007,-5.4193 1.1243,-1.78228 1.1629,-1.85209 1.01338,-1.85209 -0.1902,0 -2.44341,2.77168 -3.72949,4.58784 -0.58208,0.82199 -1.20298,1.49525 -1.37976,1.49603 -0.59211,0.003 -0.96144,-1.17386 -0.92914,-2.96158 0.0463,-2.5655 1.17011,-4.55372 3.35432,-5.93555 0.91761,-0.58054 1.16041,-0.87334 1.03973,-1.25367 -0.82229,-2.59079 -0.68854,-7.5214 0.32039,-11.80807 0.22262,-0.94589 0.45688,-1.95792 0.52038,-2.24896 0.0635,-0.29104 -0.12148,-0.0529 -0.41134,0.52917 l -0.5271,1.05833 0.14934,-1.19062 c 0.22849,-1.82139 1.09445,-4.86857 1.82315,-6.41511 l 0.65474,-1.3901 -1.00356,1.10588 c -2.28985,2.5221 -3.92124,7.01092 -4.19458,11.54141 -0.1353,2.24246 -0.21379,2.5687 -0.58032,2.41329 -0.2331,-0.0988 -0.6265,-0.20139 -0.87437,-0.22789 -0.24787,-0.0265 -0.82704,-0.45764 -1.28674,-0.95808 -0.83063,-0.90423 -0.83205,-0.90451 -0.2806,-0.0806 0.30518,0.45594 0.95296,1.17822 1.4397,1.60559 1.1603,1.01875 1.27427,1.22851 1.41852,2.61276 0.11359,1.09009 0.0787,1.17047 -0.5085,1.17047 -0.92614,0 -6.22344,-0.71975 -7.74784,-1.05265 -3.23119,-0.70561 -8.36593,-2.80719 -10.11101,-4.13825 -0.47379,-0.36138 -0.86145,-0.59806 -0.86145,-0.52606 0,0.072 -0.38367,-0.21967 -0.85266,-0.64803 -0.469,-0.42836 -0.9952,-0.77876 -1.16892,-0.77876 -0.17372,0 -0.35561,-0.0893 -0.40411,-0.19844 -0.0485,-0.10914 -0.98083,-0.90068 -2.072227,-1.75906 -1.091404,-0.8584 -2.132123,-1.74288 -2.312521,-1.96526 -0.180394,-0.22243 -0.37943,-0.3528 -0.44235,-0.2899 -0.207377,0.20738 2.257286,3.43039 2.50579,3.2768 0.133662,-0.0826 0.18044,0.0134 0.10387,0.21291 -0.175106,0.45633 3.786588,4.1474 4.463298,4.1584 0.11954,0.002 0.40306,0.18964 0.62993,0.41651 0.37362,0.37362 0.34179,0.48626 -0.33848,1.19631 -0.8825,0.92114 -3.26923,2.31967 -4.290694,2.51406 -0.633937,0.12064 -0.942313,-0.1267 -2.700093,-2.16628 -1.091404,-1.26637 -2.10672,-2.43305 -2.256193,-2.5926 -0.238803,-0.25491 -3.290162,-3.90143 -4.755266,-5.68286 -2.152596,-2.61735 -4.210809,-4.75709 -4.439522,-4.61574 -0.16092,0.0995 -0.192146,0.0383 -0.07648,-0.14883 0.214929,-0.34776 -0.542199,-1.24333 -4.720125,-5.58519 -3.528773,-3.66722 -4.062606,-4.33909 -4.37286,-5.50199 -0.252553,-0.94663 -0.778209,-4.81676 -0.654224,-4.81676 0.03351,0 0.696364,0.22596 1.473295,0.5023 4.214175,1.49886 5.184264,1.72908 5.905583,1.40043 0.385197,-0.17555 0.631393,-0.2075 0.547253,-0.0713 -0.17074,0.27627 0.863298,0.68853 1.109493,0.44236 0.08605,-0.0861 -0.0422,-0.15658 -0.284737,-0.15658 -0.493468,0 -0.571796,-0.29224 -0.182934,-0.6811 0.167277,-0.16728 -1.063273,-0.83533 -3.505729,-1.90324 -3.724289,-1.62836 -7.898507,-3.93413 -9.746176,-5.38365 -0.525343,-0.41214 -1.031359,-0.69264 -1.124479,-0.62374 -0.09312,0.0689 -0.116998,0.0529 -0.05323,-0.0351 0.06378,-0.088 -0.525694,-0.72134 -1.309998,-1.407664 -3.873708,-3.389795 -6.820472,-7.533531 -8.572087,-12.053528 -1.392207,-3.592563 -1.505486,-4.223952 -0.914156,-5.108732 0.263504,-0.394268 0.449896,-0.81487 0.413929,-0.934827 -0.03597,-0.11995 0.05831,-0.141687 0.209806,-0.04806 0.151499,0.09363 0.208864,0.278563 0.127124,0.410828 -0.08174,0.132264 0.75298,-0.292488 1.855184,-0.944128 1.102204,-0.651643 2.105292,-1.184941 2.228804,-1.184941 0.123511,0 0.372815,-0.178594 0.553972,-0.396875 0.266861,-0.321545 0.256687,-0.396875 -0.05219,-0.396875 -0.636516,0 -3.016883,0.768981 -4.482413,1.447974 -0.7604,0.352296 -1.47979,0.580029 -1.598869,0.506429 -0.119079,-0.0736 -0.216524,-1.380272 -0.216524,-2.904216 0,-2.24253 0.07712,-2.800762 0.404626,-2.926436 0.354292,-0.135953 0.349386,-0.195643 -0.04031,-0.480591 -0.384135,-0.280927 -0.330825,-0.318782 0.389123,-0.275952 0.4588,0.02729 0.834058,-0.03507 0.834058,-0.13901 0,-0.103934 0.301619,-0.189136 0.670243,-0.189136 0.368624,0 0.92487,-0.223244 1.2361,-0.496093 0.311233,-0.272852 0.47895,-0.347266 0.372587,-0.165365 -0.237014,0.405344 -0.286939,0.408327 1.160653,-0.07545 l 1.190625,-0.397908 -1.961637,0.125574 c -1.194479,0.07646 -2.046367,0.259618 -2.178679,0.468188 -0.150446,0.237155 -0.218375,0.246702 -0.221175,0.03049 -0.0028,-0.218585 -0.234755,-0.246593 -0.772046,-0.0925 -0.704013,0.201909 -0.776335,0.159168 -0.875915,-0.519348 -0.05971,-0.406851 -0.02672,-0.961356 0.07338,-1.231966 0.100105,-0.27061 0.248853,-0.967607 0.330213,-1.549259 0.282354,-2.018681 0.548671,-2.237108 2.739367,-2.244308 0.631346,-0.0021 1.159671,-0.144942 1.236101,-0.334346 0.09551,-0.236684 0.139045,-0.241312 0.153995,-0.01654 0.02403,0.361366 1.797604,0.17279 2.332674,-0.248047 0.180048,-0.141655 0.477705,-0.201879 0.661459,-0.133842 0.183755,0.06804 0.751068,-0.01979 1.260388,-0.195336 0.895916,-0.308785 0.852881,-0.324734 -1.322917,-0.485759 -1.236921,-0.09154 -2.606146,-0.101252 -3.042708,-0.0217 -1.136701,0.207099 -2.331487,0.132443 -2.627747,-0.163814 -0.297952,-0.297954 2.554515,-6.173917 4.590935,-9.457304 1.56068,-2.516336 1.969357,-3.659206 3.588411,-10.038664 1.964958,-7.742391 4.673787,-14.407302 8.223788,-20.234424 0.794291,-1.303782 1.365059,-2.498834 1.268139,-2.655652 -0.09906,-0.160275 -0.05373,-0.209537 0.10387,-0.112137 0.155796,0.09629 0.87171,-0.62029 1.611271,-1.612822 0.731948,-0.982314 2.047106,-2.491004 2.922819,-3.352767 0.875713,-0.861763 1.532266,-1.664004 1.458826,-1.782837 -0.07344,-0.11883 0.0216,-0.156528 0.211356,-0.08372 0.189758,0.07282 0.484846,-0.09165 0.655774,-0.365352 0.289624,-0.463759 0.194401,-0.506795 -1.404048,-0.635103 -3.030142,-0.243232 -2.698175,-0.608161 1.744079,-1.913579 3.358441,-0.986924 3.446104,-1.030989 3.094902,-1.567346 -1.777703,-2.7147022 -7.38224,-4.2077763 -11.022583,-2.9362547 -0.800365,0.2795553 -1.604037,0.4784693 -1.785938,0.4423503 -0.181901,-0.036119 -0.330729,0.058942 -0.330729,0.2108394 0,0.1519 -0.129057,0.275953 -0.286804,0.275953 -0.157747,0 -0.913282,0.597827 -1.678967,1.328601 -2.336521,2.229977 -5.35721,4.355216 -7.097242,4.993493 -1.169466,0.428986 -2.478028,0.648376 -4.475695,0.750342 -3.079095,0.157164 -3.904601,0.02449 -3.426665,-0.551387 0.16064,-0.193568 0.203484,-0.449359 0.0956,-0.568441 -0.107878,-0.11909 -0.05469,-0.13557 0.117822,-0.03669 0.172514,0.09888 0.756123,-0.06875 1.297078,-0.372588 0.540958,-0.303835 2.151937,-1.066952 3.580144,-1.695503 3.054758,-1.344397 5.509219,-2.900158 8.96431,-5.6828575 6.226241,-5.0145579 9.558602,-6.4735103 14.816667,-6.4869426 3.703361,-0.00946 5.786587,0.5908944 8.003646,2.306836 1.146874,0.8876485 1.188889,1.0659042 0.4408,1.859318 -0.653798,0.6935081 -1.127637,1.5099853 -0.876432,1.5099853 0.09822,0 0.336367,-0.2083599 0.529683,-0.4630208 0.334747,-0.4409707 0.352185,-0.4409707 0.360185,0 0.0046,0.2546609 0.07285,0.4630208 0.151412,0.4630208 0.322348,0 2.4493,-1.1812945 3.561023,-1.977657 0.654841,-0.4690839 2.083597,-1.3169737 3.174997,-1.8846395 1.09141,-0.5676657 2.07177,-1.151558 2.17868,-1.2970785 0.10694,-0.1455204 0.19644,-0.1821193 0.19844,-0.081649 0.002,0.1004712 0.82914,-0.097971 1.8371,-0.4408 1.00793,-0.3428287 2.76413,-0.8287323 3.9026,-1.08003742 1.13847,-0.25130502 2.15702,-0.58864595 2.26394,-0.74982503 0.14033,-0.21150547192 0.19544,-0.20876955 0.19844,0.009819 0.003,0.21441805 0.29389,0.23546744 0.99632,0.072347 1.35813,-0.31538628 4.76087,-0.30259636 4.95939,0.0186035 0.0906,0.14656853 -0.009,0.19590246 -0.22583,0.11265463 -0.51631,-0.19813767 -2.23402,0.96962268 -3.17965,2.16162518 l -0.76171,0.9601481 0.76171,-0.4852417 c 0.41879,-0.266848 0.82069,-0.5589603 0.89349,-0.649056 0.0728,-0.090096 0.48965,-0.2510923 0.92604,-0.3581177 0.75874,-0.1860833 0.77092,-0.2110897 0.28009,-0.569991 -0.55804,-0.4080453 -0.25225,-0.51745917 0.36122,-0.1291911 0.24604,0.1557184 0.97965,0.023609 2.11666,-0.38137207 1.6023,-0.57070338 6.52916,-1.21486745 8.04757,-1.05213217 z M 106.04644,4.1116332 c -0.12304,-0.1230315 -2.29753,1.1916549 -2.29753,1.3890625 0,0.048856 0.19813,0.012824 0.44028,-0.080099 0.3197,-0.1226736 0.38102,-0.073058 0.22376,0.1813843 -0.14518,0.2349024 -0.1146,0.2875011 0.093,0.1591634 0.17052,-0.1052995 0.24423,-0.2975796 0.16433,-0.4268474 -0.0799,-0.1292676 0.22729,-0.4272838 0.68213,-0.6624918 0.45484,-0.2352082 0.76691,-0.4872418 0.69401,-0.5601725 z M 102.2782,5.125008 c -0.1338,-0.172922 -1.10871,0.5785529 -1.44126,1.1110433 -0.25091,0.4017792 -0.0933,0.3371326 0.58085,-0.2377116 0.50906,-0.4340869 0.89631,-0.826869 0.86041,-0.8733317 z m 5.58725,0.2165242 c -0.0642,0 -0.19018,0.1190628 -0.28008,0.2645834 -0.0899,0.1455202 -0.0373,0.2645833 0.11679,0.2645833 0.15411,0 0.28008,-0.1190631 0.28008,-0.2645833 0,-0.1455206 -0.0526,-0.2645834 -0.11679,-0.2645834 z m -1.05833,2.1166667 c -0.0642,0 -0.19019,0.1190631 -0.28009,0.2645833 -0.0899,0.1455205 -0.0373,0.2645834 0.11679,0.2645834 0.15411,0 0.28009,-0.1190629 0.28009,-0.2645834 0,-0.1455202 -0.0526,-0.2645833 -0.11679,-0.2645833 z M 79.079097,11.241431 c 2.462675,-0.232236 6.278379,0.921492 5.769674,1.744596 -0.225295,0.364536 -2.234893,0.944225 -6.299357,1.81746 -1.854141,0.398357 -3.371296,0.843566 -3.371371,0.989087 -7.5e-5,0.145521 0.505118,0.451095 1.122413,0.679028 2.237652,0.826243 2.841952,1.095641 2.837552,1.265039 -0.0025,0.09491 -0.651096,0.452271 -1.441255,0.794267 -2.920594,1.26409 -7.232162,4.832193 -7.79694,6.452319 -0.273165,0.7836 -0.269821,0.787248 0.316259,0.369487 1.341583,-0.956289 4.868752,-2.861594 5.549532,-2.99775 0.920753,-0.184151 0.916791,0.004 -0.02532,1.204578 -1.304714,1.662718 -3.526792,5.373122 -4.578532,7.645011 -0.555775,1.200543 -1.160467,2.173779 -1.343587,2.162659 -0.763315,-0.04636 -3.603548,-1.009122 -4.864819,-1.648995 -0.746261,-0.378597 -1.430875,-0.634154 -1.521355,-0.567924 -0.09049,0.06623 -0.105427,0.04183 -0.03359,-0.05426 0.171847,-0.229869 -0.980035,-1.036651 -1.321367,-0.925525 -0.14552,0.04738 -0.179647,8.53e-4 -0.07545,-0.103353 0.104206,-0.104205 -0.09684,-0.414963 -0.447001,-0.690397 -1.013383,-0.797129 -3.075492,-4.095749 -3.586345,-5.737118 -0.257399,-0.827023 -0.553079,-2.186142 -0.657324,-3.020487 l -0.189653,-1.51722 1.098125,0.387573 c 1.559398,0.550187 5.286195,0.389674 7.194909,-0.309542 1.752052,-0.641825 4.596966,-2.44916 6.45232,-4.099491 2.830282,-2.517531 4.903739,-3.621325 7.212479,-3.839042 z m 82.845073,18.516182 c -0.56402,0.02979 -1.09352,0.09206 -1.55339,0.189652 -0.88234,0.187244 -1.6577,0.427231 -1.7229,0.532785 -0.0652,0.10555 0.73729,0.760652 1.78336,1.456241 2.68912,1.788157 6.2814,4.697153 6.2854,5.089095 0.002,0.181901 -0.19568,0.33073 -0.43821,0.33073 -0.24253,0 -0.35141,0.0893 -0.24237,0.198437 0.10905,0.109141 1.40864,0.264815 2.8882,0.345715 2.32561,0.127168 3.81206,0.07205 4.09019,-0.151412 0.11217,-0.09012 -2.69067,-1.924972 -3.42356,-2.241206 -1.16166,-0.501229 -4.59154,-2.800955 -4.52944,-3.037024 0.034,-0.129176 0.56976,-0.272961 1.19062,-0.319361 4.09614,-0.306129 5.00419,-0.646942 3.05511,-1.146183 -0.62285,-0.15954 -1.66801,-0.465762 -2.32285,-0.681095 -1.36518,-0.448918 -3.3681,-0.655746 -5.06016,-0.566374 z m -83.327214,6.865214 c -1.548963,-0.111199 -1.920013,-0.03444 -3.439583,0.708484 -2.686176,1.313282 -3.269932,1.951107 -4.220931,4.614705 -0.267692,0.749764 -0.734279,2.018071 -1.037146,2.818433 -1.746603,4.615606 -1.801069,9.763803 -0.141594,13.372827 1.038048,2.257543 3.18839,4.304431 5.149557,4.900993 0.364744,0.11095 0.961182,0.208658 1.324984,0.217558 0.814103,0.01992 3.267998,-1.722323 3.011185,-2.137854 -0.110924,-0.179481 -0.06315,-0.221571 0.12144,-0.107487 0.872136,0.539009 3.552105,-3.773691 5.080827,-8.176245 1.605819,-4.624597 1.919778,-7.272823 1.169954,-9.871233 -1.126259,-3.902888 -3.54831,-6.091044 -7.018693,-6.340181 z m 55.248304,1.833997 c -3.64902,0.07138 -6.62923,1.34394 -9.21545,3.915523 -3.57577,3.555493 -5.04592,8.824476 -3.80752,13.647229 1.44745,5.636943 5.7309,9.511726 11.23704,10.165271 1.82179,0.21624 2.76311,0.156845 4.88549,-0.309542 3.82495,-0.840529 7.07811,-3.485321 8.88162,-7.220231 4.32281,-8.951989 -1.11,-19.505559 -10.37559,-20.155359 -0.5494,-0.03853 -1.0843,-0.05309 -1.60559,-0.04289 z m -54.999223,0.573608 c 0.345378,-0.02888 0.659713,-0.02743 0.8847,0.01757 1.200641,0.240129 2.7603,1.332988 3.247864,2.27583 0.23395,0.452405 0.29398,0.794784 0.139526,0.794784 -0.149258,0 -0.271931,-0.0893 -0.272851,-0.198438 -0.0037,-0.43712 -1.80614,-1.198844 -3.249931,-1.373559 -1.284433,-0.155433 -1.507389,-0.122978 -1.382861,0.201538 0.123223,0.321115 0.07874,0.328965 -0.260966,0.04702 -0.225129,-0.186824 -0.481614,-0.26718 -0.569991,-0.1788 -0.08838,0.08838 -0.413117,0.03123 -0.721403,-0.127124 -0.521117,-0.267686 -0.517373,-0.246736 0.05116,0.299206 0.782334,0.751253 1.10846,1.621654 1.10846,2.960026 0,1.44607 -0.688127,2.505273 -2.058789,3.168799 -1.108492,0.536612 -1.428361,0.543145 -3.232878,0.06666 -0.517503,-0.136645 -0.595587,-0.103867 -0.357601,0.151928 0.231089,0.248383 0.167505,0.622803 -0.264583,1.557528 -0.789961,1.708906 -0.76795,6.007286 0.04341,8.495089 0.306447,0.939636 0.532278,1.732036 0.501778,1.760616 -0.0305,0.02858 -0.459402,-0.476803 -0.95343,-1.122929 -1.235877,-1.616365 -2.142138,-4.31997 -2.143538,-6.395992 -0.0014,-2.031718 0.46383,-5.211588 0.907954,-6.20634 l 0.326595,-0.731221 0.500745,0.929659 c 0.275398,0.511381 0.599172,0.929659 0.719853,0.929659 0.12068,0 0.04266,-0.252398 -0.173633,-0.561206 -0.808189,-1.153853 0.03041,-3.886397 1.438672,-4.687569 0.425349,-0.241986 0.774226,-0.535978 0.775146,-0.653707 9.2e-4,-0.11773 0.11777,-0.14212 0.259933,-0.05426 0.330488,0.204251 2.387451,-0.341604 2.387451,-0.633553 0,-0.283906 1.313073,-0.644577 2.349211,-0.731222 z m 55.256573,2.559017 c 1.22223,0 3.13811,0.439746 3.67781,0.844393 0.16346,0.12255 0.52064,0.150485 0.79375,0.0615 0.35296,-0.115021 0.39688,-0.09052 0.15142,0.08578 -0.25199,0.180988 -0.0243,0.371099 0.84284,0.702282 0.65854,0.251496 1.61929,0.930557 2.15491,1.523422 0.87969,0.973786 0.95874,1.18662 0.87694,2.370914 -0.0744,1.077198 -0.0342,1.225399 0.23358,0.858863 0.26215,-0.358847 0.34677,-0.372799 0.44752,-0.07183 0.92826,2.772989 0.97675,3.069458 0.80254,4.928898 -0.0992,1.058758 -0.28551,1.924948 -0.41393,1.924948 -0.12843,0 -0.23788,0.208361 -0.24288,0.46302 -0.005,0.254661 -0.16187,0.737309 -0.34778,1.072286 -0.30381,0.547407 -0.33937,0.440283 -0.35347,-1.058333 -0.0174,-1.850086 -0.54356,-4.634501 -0.98702,-5.22397 -0.18347,-0.243897 -0.18707,-0.322362 -0.0109,-0.217042 0.15169,0.09061 0.29277,-0.06255 0.31367,-0.340547 0.0372,-0.493878 0.026,-0.493908 -0.49247,-0.01085 -1.26286,1.176532 -3.37649,0.836912 -4.83382,-0.77618 -0.8119,-0.898671 -0.95168,-1.238359 -0.95084,-2.30942 6.4e-4,-0.803239 0.19834,-1.580042 0.5488,-2.154907 l 0.54829,-0.89917 -2.73214,0.145727 c -2.91387,0.155331 -4.34471,0.521284 -4.02972,1.030945 0.1296,0.209693 0.0723,0.233343 -0.18242,0.07441 -0.52004,-0.324487 -1.06509,-0.380832 -0.88625,-0.09147 0.082,0.132746 -0.0298,0.241329 -0.24805,0.241329 -0.21829,0 -0.46564,0.111362 -0.54984,0.24753 -0.0936,0.151531 0.15369,0.159842 0.63717,0.02119 1.47645,-0.423436 2.7214,1.220135 2.1208,2.799829 -0.2072,0.544926 -0.19095,0.784793 0.0656,0.96945 0.25318,0.182169 0.23076,0.210303 -0.0873,0.109554 -0.23566,-0.07463 -0.77558,0.07505 -1.19941,0.332797 -0.55642,0.338373 -0.94432,0.404718 -1.39578,0.237711 -0.34389,-0.12722 -0.64243,-0.19919 -0.66353,-0.15968 -1.11102,2.084669 -2.30723,4.828955 -2.39003,5.482869 -0.1481,1.170177 -0.33727,1.285388 -0.67076,0.408244 -0.47376,-1.246068 -0.6172,-3.728006 -0.29352,-5.074109 0.41146,-1.711175 1.11014,-3.276024 1.38648,-3.105236 0.1235,0.07635 0.16318,-0.02132 0.0884,-0.216525 -0.13026,-0.339463 1.9314,-2.678729 3.30678,-3.752225 0.89453,-0.698186 3.5113,-1.476396 4.96455,-1.476396 z m -51.305393,0.877466 c 0.190993,-0.07643 0.419028,-0.06673 0.506945,0.02119 0.08792,0.08792 -0.06835,0.1505 -0.347265,0.13901 -0.308225,-0.0127 -0.370746,-0.07574 -0.15968,-0.160197 z m 0.817004,0.710034 c 0.14267,0 0.338162,0.126951 0.434082,0.282153 0.271479,0.43926 0.02793,0.500022 -0.351916,0.08785 -0.187638,-0.203604 -0.224828,-0.370003 -0.08217,-0.370003 z M 82.0045,43.416211 c 0.395602,-0.08772 0.825316,0.01013 1.229899,0.377755 0.902104,0.819702 1.058854,1.968044 0.412378,3.021004 -0.694206,1.130706 -1.826991,1.187077 -2.656685,0.132291 -1.049271,-1.33393 -0.172396,-3.267879 1.014408,-3.53105 z m 2.116667,3.098002 c 0.123641,-0.07641 0.224792,0.03462 0.224792,0.246496 -10e-7,0.446132 -0.08319,0.484669 -0.297139,0.138493 -0.08372,-0.135466 -0.05129,-0.308569 0.07235,-0.384989 z m 93.130753,0.227376 c 0.0815,0.08146 -5e-5,0.295431 -0.18087,0.474907 -0.2613,0.25936 -0.29138,0.228772 -0.1478,-0.148312 0.0994,-0.260937 0.24717,-0.408055 0.32867,-0.326595 z M 73.90887,52.455452 c 0.415287,0.0085 0.818797,0.164376 1.091407,0.465605 0.548813,0.606437 0.558273,1.343795 0.02636,2.103231 -0.263871,0.376725 -0.686347,0.588078 -1.175639,0.588078 -1.365096,0 -2.103948,-1.832187 -1.103809,-2.737301 0.319506,-0.28915 0.746402,-0.428085 1.161686,-0.419613 z m 53.51973,2.3797 c 0.37151,0.01467 0.73988,0.165146 0.98754,0.446484 0.47992,0.545183 0.75709,2.433737 0.34675,2.362647 -0.15155,-0.02625 -0.25571,0.07152 -0.23151,0.217041 0.0506,0.303455 -1.02699,0.353099 -1.76217,0.08113 -0.64093,-0.237096 -1.07201,-1.054625 -1.00201,-1.900659 0.0305,-0.367812 0.10337,-0.620643 0.16227,-0.561723 0.0589,0.05892 0.28009,-0.06564 0.49144,-0.276986 0.26126,-0.26125 0.63618,-0.382601 1.00769,-0.367936 z m -52.836051,1.091406 c 0.02369,0.01604 0.01128,0.06711 -0.04082,0.151412 -0.09615,0.155576 -0.0252,0.343329 0.157613,0.417029 0.237894,0.09591 0.2426,0.140079 0.01705,0.155029 -0.455314,0.03018 -0.673797,-0.438403 -0.309541,-0.663525 0.09232,-0.05706 0.152015,-0.07599 0.175699,-0.05994 z m 65.068381,0.118339 c 1.04809,-0.134504 2.19163,0.525865 2.17919,1.769401 -0.005,0.46238 -0.15348,1.029497 -0.33072,1.260389 -0.39049,0.50859 -1.2818,0.991619 -1.64487,0.890901 -0.14553,-0.04037 -0.58241,-0.143576 -0.971,-0.228926 -0.86802,-0.190665 -1.22111,-1.396569 -0.74517,-2.545581 0.28935,-0.698546 0.88371,-1.065481 1.51257,-1.146184 z m -33.8739,12.605432 c -0.0396,0.01726 -0.11043,0.208671 -0.24495,0.588078 -1.31643,3.712988 -6.11678,6.229668 -11.185879,5.864242 -1.164163,-0.08392 -2.652449,-0.362265 -3.307292,-0.618567 -2.231332,-0.873328 -4.350933,-2.752588 -5.06429,-4.489649 -0.259422,-0.6317 -0.329844,-0.674203 -0.427364,-0.258382 -0.112927,0.48151 0.07015,1.002438 0.942061,2.677356 0.483108,0.92803 1.9485,2.556653 2.13372,2.371432 0.07009,-0.07009 0.374608,0.09573 0.676445,0.368453 0.680262,0.614645 2.872626,1.361157 3.997688,1.361157 h 0.840776 l 0.185518,2.691309 c 0.101956,1.480324 0.361539,3.355567 0.576709,4.167187 l 0.391191,1.475879 -0.960665,0.843359 c -1.079176,0.947461 -2.746568,1.407015 -5.090645,1.403015 -1.688311,-0.0029 -3.668842,-0.786647 -5.347477,-2.116149 -1.155167,-0.914911 -1.584917,-0.994696 -1.584917,-0.294039 0,0.667755 1.44548,2.057041 2.910417,2.797245 1.527216,0.771675 2.82581,1.007128 5.291667,0.958598 1.686543,-0.03319 2.259982,-0.176374 3.821989,-0.95343 1.01081,-0.502854 1.903785,-0.826221 1.984375,-0.718303 0.365027,0.488794 3.161136,2.186321 4.115513,2.498556 0.58208,0.190433 1.41552,0.322195 1.85208,0.293005 0.43657,-0.02919 1.56786,-0.09932 2.51406,-0.156063 0.9462,-0.05674 2.16595,-0.314476 2.71095,-0.573091 1.74226,-0.826774 3.64344,-2.935572 3.23804,-3.591512 -0.27588,-0.446389 -0.69287,-0.28881 -1.73839,0.655773 -1.69966,1.535537 -3.04878,2.087095 -4.9811,2.037085 -3.87516,-0.100286 -6.056019,-1.430609 -7.223328,-4.406966 -0.54217,-1.382406 -1.071802,-4.743697 -0.959114,-6.085416 l 0.08888,-1.058334 1.322917,-0.06925 c 1.742043,-0.09104 2.568094,-0.289562 2.391585,-0.575159 -0.07891,-0.12768 0.087,-0.172306 0.368457,-0.0987 0.71758,0.187653 3.08658,-1.165325 4.08708,-2.334224 0.90851,-1.06138 1.7676,-3.143532 1.7322,-4.19871 -0.0106,-0.316175 -0.0193,-0.473051 -0.0589,-0.455787 z m -16.317869,6.180502 c 0.06878,-0.06878 0.355958,0.04373 0.638204,0.250114 0.282244,0.206381 0.401537,0.373236 0.264583,0.371036 -0.365722,-0.0059 -1.048403,-0.475534 -0.902787,-0.62115 z M 208.21178,101.12432 c 2.84322,0.0101 7.62309,1.57657 9.86193,3.23184 0.41721,0.30844 0.85708,0.44524 1.04904,0.3266 0.1958,-0.12106 0.26391,-0.096 0.16691,0.061 -0.17607,0.28488 1.6572,2.08296 2.02003,1.98128 0.12,-0.0336 0.15245,0.045 0.0724,0.17466 -0.16633,0.26913 0.64485,1.08705 1.00717,1.01545 0.13165,-0.026 0.26728,0.1419 0.30128,0.37362 0.034,0.23171 0.47801,1.00562 0.9865,1.71979 2.82147,3.96273 4.36896,9.54104 4.61781,16.64446 0.32799,9.36207 -2.19541,17.58372 -7.23677,23.57944 -0.62628,0.74484 -1.05333,1.43903 -0.9493,1.54306 0.104,0.10396 0.0675,0.14978 -0.0811,0.10128 -0.14862,-0.0485 -0.80347,0.34386 -1.45521,0.8723 -5.45088,4.41964 -9.23738,5.4123 -31.61202,8.28787 -10.45788,1.34403 -34.61233,4.15541 -45.50834,5.29683 -3.49246,0.36586 -7.42157,0.80468 -8.73125,0.97462 v 5.2e-4 c -3.86707,0.50183 -19.39883,0.47911 -28.575,-0.0419 -10.757031,-0.61063 -14.916911,-1.03072 -31.485412,-3.17965 -21.389716,-2.77423 -24.351598,-3.47028 -30.1625,-7.08742 -0.582084,-0.36233 -2.084328,-1.68287 -3.338298,-2.93471 -5.495178,-5.48581 -9.278206,-13.73676 -10.809676,-23.5753 -0.619429,-3.97939 -0.239889,-11.02844 0.800468,-14.85956 0.171407,-0.63121 0.335222,-1.2668 0.363802,-1.41232 0.02858,-0.14552 0.506337,-1.15579 1.061951,-2.24482 1.213818,-2.37917 3.894636,-5.16892 5.828068,-6.06578 1.773674,-0.82276 2.577851,-1.1445 3.050976,-1.2206 0.218282,-0.0351 1.289847,-0.21166 2.38125,-0.39222 4.08247,-0.67538 8.52952,0.15261 13.400733,2.49493 3.947845,1.89835 9.153671,5.34131 11.548649,7.6383 0.33482,0.32112 1.317292,1.25364 2.183329,2.07222 3.196946,3.02176 5.818667,5.88563 9.352918,10.21488 1.215435,1.48886 2.332338,2.63085 2.482019,2.53835 0.149675,-0.0925 0.195939,-0.044 0.102319,0.10749 -0.167862,0.2716 2.541489,3.8129 3.066479,4.00802 0.15851,0.0589 0.183599,-0.0406 0.06046,-0.23978 -0.134732,-0.21804 -0.104861,-0.27468 0.08372,-0.15813 0.161653,0.0999 0.233707,0.33864 0.160197,0.5302 -0.158634,0.41339 1.933902,3.15198 2.256193,2.95279 0.122252,-0.0756 0.205985,0.0331 0.186035,0.24133 -0.01995,0.2082 0.05312,0.38478 0.162264,0.39378 0.109139,0.009 0.178069,-0.0142 0.153479,-0.0506 -0.02459,-0.0364 0.09858,-0.33333 0.273368,-0.6599 0.284341,-0.53129 0.173622,-0.78201 -1.048515,-2.38125 -0.751263,-0.98309 -1.498998,-1.87489 -1.661914,-1.9818 -0.16292,-0.10694 -0.192586,-0.19643 -0.06563,-0.19843 0.126954,-0.002 0.08371,-0.18123 -0.09612,-0.39791 -0.179827,-0.21671 -0.450517,-0.31736 -0.60203,-0.22376 -0.15443,0.0954 -0.197321,0.0432 -0.09715,-0.11886 0.232864,-0.37678 -1.463118,-2.82971 -4.396114,-6.35827 -1.292377,-1.55477 -2.788637,-3.36206 -3.324862,-4.01577 -1.31892,-1.60789 -5.800276,-6.47793 -7.272941,-7.90391 -0.757434,-0.73343 -1.313843,-1.08089 -1.523421,-0.95136 -0.206882,0.12789 -0.263042,0.0957 -0.150895,-0.0858 0.09845,-0.15929 -0.210569,-0.58904 -0.68678,-0.95549 -3.167386,-2.43727 -4.721718,-3.42881 -7.945768,-5.06843 -1.48803,-0.75677 -1.900166,-1.06853 -1.49655,-1.13223 0.306282,-0.0483 0.872989,0.0319 1.259355,0.17828 3.082419,1.16805 4.546932,1.76404 5.407938,2.20039 0.550694,0.27904 1.134581,0.42527 1.297596,0.32452 0.193964,-0.11985 0.221829,-0.0624 0.0801,0.16692 -0.162317,0.26263 -0.09187,0.30249 0.281637,0.15916 0.274097,-0.10563 0.413318,-0.10708 0.309542,-0.003 -0.2756,0.2756 0.812664,0.96243 1.172538,0.74001 0.202765,-0.12532 0.232341,-0.0712 0.08837,0.16175 -0.162318,0.26263 -0.09187,0.30248 0.281636,0.15916 0.274099,-0.1053 0.417063,-0.10926 0.317293,-0.01 -0.09977,0.0998 0.101045,0.40369 0.446485,0.67541 0.725174,0.57042 1.056456,0.63956 0.782381,0.1633 -0.11058,-0.19214 -0.08929,-0.23817 0.05064,-0.11007 0.132471,0.12127 0.240812,0.31308 0.240812,0.42633 0,0.11324 0.875806,0.86447 1.946134,1.66967 1.070331,0.80516 2.807882,2.30897 3.861263,3.34139 1.053384,1.03242 2.012335,1.78914 2.131137,1.68155 0.118797,-0.10759 0.146003,-0.0724 0.06046,0.0785 -0.08554,0.15094 0.742436,1.16297 1.839681,2.24896 1.097244,1.08599 2.949236,3.07357 4.115511,4.41679 1.166274,1.34319 2.242597,2.36668 2.392102,2.27428 0.149505,-0.0924 0.200501,-0.0524 0.113171,0.0889 -0.179587,0.29058 4.725363,6.07301 5.078243,5.98671 0.125442,-0.0307 0.21253,0.0986 0.19327,0.28732 -0.01926,0.18867 0.580772,1.04726 1.333769,1.9079 0.752996,0.86064 2.044397,2.39819 2.869592,3.41684 2.803745,3.46102 3.626247,4.36013 3.858163,4.2168 0.12735,-0.0787 0.169522,0.019 0.09353,0.21704 -0.07598,0.19801 0.252873,0.71958 0.730705,1.1591 0.477833,0.43953 1.999773,2.02353 3.382223,3.5202 4.96095,5.37088 10.36795,8.99885 15.47812,10.38593 1.91074,0.5186 2.77304,0.57478 8.86355,0.57878 4.45596,0.003 8.27413,-0.14928 11.24479,-0.44752 4.67328,-0.46918 14.90883,-1.47011 22.225,-2.17351 2.32833,-0.22385 5.78117,-0.58304 7.67291,-0.7984 1.89177,-0.21535 5.166,-0.57149 7.27605,-0.79117 3.96725,-0.41304 6.27626,-0.82589 6.76289,-1.20871 0.1712,-0.13468 0.61904,0.1372 1.14618,0.69608 1.10255,1.16892 2.44879,1.27495 3.25045,0.2558 0.62747,-0.7977 1.15931,-0.84419 1.53893,-0.13487 0.36287,0.678 1.74912,1.3954 2.32957,1.20561 0.59915,-0.1959 1.64076,-1.83758 1.64176,-2.58848 8.9e-4,-0.5366 0.0551,-0.51018 0.5209,0.25374 0.96739,1.58657 2.46617,1.41943 3.85764,-0.43047 l 0.73278,-0.9741 4.12429,-0.59996 c 5.03327,-0.73174 7.88353,-1.42647 9.85005,-2.40192 1.83042,-0.90799 3.44718,-2.11323 3.25406,-2.4257 -0.0789,-0.1277 0.0274,-0.1664 0.23616,-0.0863 0.40752,0.15638 1.77967,-1.39676 2.77709,-3.14347 0.5615,-0.98306 0.81472,-1.76571 0.31626,-0.9772 -0.13798,0.21828 -0.3914,0.39687 -0.56275,0.39687 -0.17135,0 -0.44324,0.23063 -0.60462,0.51263 -0.16138,0.28199 -0.90438,1.12095 -1.65106,1.86449 -2.09843,2.08955 -5.06822,3.49895 -8.65735,4.10827 -0.74915,0.12719 -2.37423,0.40445 -3.61115,0.61599 -3.53557,0.60468 -4.49792,0.72224 -4.49792,0.54932 0,-0.0885 0.19234,-0.82245 0.42737,-1.63091 0.3085,-1.06195 0.3934,-2.13819 0.3054,-3.87728 l -0.12195,-2.40709 1.94768,-2.05207 c 2.95888,-3.11742 4.57227,-5.92565 6.15363,-10.71305 1.26495,-3.82948 1.70027,-7.81042 1.51877,-13.88339 -0.14395,-4.81652 -0.86053,-11.41656 -1.21594,-11.20035 -0.0834,0.0508 -0.17296,-0.31256 -0.19896,-0.80718 -0.0457,-0.86883 -0.0144,-0.89855 0.92604,-0.89555 z m 14.46837,13.56403 c -0.0411,-0.069 -0.0707,-0.0731 -0.0853,0.003 -0.007,0.0372 0.0379,0.2031 0.0455,0.27647 0.0646,0.0882 0.13009,0.17572 0.19379,0.26458 -0.0459,-0.14255 -0.12227,-0.4903 -0.154,-0.54364 z m -100.9711,19.24068 c 0.14552,0 0.3385,0.11907 0.4284,0.26459 0.0899,0.14552 0.0442,0.26458 -0.10128,0.26458 -0.14552,0 -0.33799,-0.11906 -0.42789,-0.26458 -0.0899,-0.14552 -0.0447,-0.26459 0.10077,-0.26459 z m -35.785926,1.0666 c 0.164083,-0.005 0.446712,0.17033 0.627869,0.38861 v 5.2e-4 c 0.418249,0.50354 0.247402,0.50628 -0.412378,0.008 -0.282478,-0.21366 -0.379574,-0.39188 -0.215491,-0.39688 z m 70.691296,0.91054 c 0.0815,0.0815 -4e-5,0.29543 -0.18087,0.47491 -0.2613,0.25936 -0.29138,0.22877 -0.1478,-0.14831 0.0994,-0.26092 0.24717,-0.4081 0.32867,-0.3266 z m -68.915177,0.21136 c -0.06653,-0.0102 -0.08992,0.0557 -0.08992,0.17725 0,0.53215 -0.04623,0.67819 -0.31626,1.00356 -0.194631,0.23451 -0.0575,0.58462 0.485759,1.24126 0.416114,0.50297 1.530451,1.8606 2.476334,3.01687 0.945882,1.15627 1.7615,1.98952 1.81281,1.85209 0.05131,-0.13743 -0.113604,-0.47872 -0.366903,-0.75861 -0.373559,-0.41278 -0.398308,-0.58359 -0.131258,-0.90537 0.274491,-0.33074 0.0082,-0.81836 -1.600419,-2.93057 -1.485493,-1.95061 -2.07056,-2.66583 -2.270146,-2.69648 z m 0.222725,0.6196 c 0.12364,0.0764 0.164994,0.23604 0.09147,0.35502 -0.07353,0.11897 0.03546,0.35693 0.242362,0.52865 0.206904,0.17171 0.358637,0.54238 0.337447,0.82372 -0.04692,0.62282 -0.0063,0.62423 -0.587044,-0.0176 -0.366218,-0.40467 -0.391763,-0.5303 -0.107487,-0.5333 0.246129,-0.003 0.273614,-0.0697 0.08113,-0.19844 -0.33739,-0.22561 -0.394194,-1.16594 -0.05788,-0.95808 z m 18.986442,0.10232 c 0.28245,0 0.58706,0.11906 0.67696,0.26458 0.0927,0.15006 -0.12966,0.26459 -0.51367,0.26459 -0.37239,0 -0.67696,-0.11906 -0.67696,-0.26459 0,-0.14552 0.23121,-0.26458 0.51367,-0.26458 z m 49.36029,0.0884 c 0.20553,0 0.3122,0.0989 0.2372,0.22014 -0.075,0.12129 -0.1816,0.22066 -0.2372,0.22066 -0.0556,0 -0.16271,-0.0994 -0.23771,-0.22066 -0.075,-0.12128 0.0322,-0.22014 0.23771,-0.22014 z m -49.32567,1.80144 c 1.65283,-0.0842 3.50534,0.0703 5.51543,0.46612 1.51593,0.2985 4.43299,0.74706 6.48229,0.99684 2.04927,0.24978 3.77242,0.48753 3.82922,0.52813 0.0568,0.0406 -0.34374,0.56855 -0.88987,1.17305 -1.48378,1.64237 -2.09268,3.20549 -2.10168,5.39967 -0.0101,2.39974 0.63574,3.73556 2.17093,4.48965 0.59908,0.29426 1.09474,0.67472 1.10174,0.84543 0.007,0.17071 0.3914,0.68905 0.85473,1.15238 0.73894,0.739 0.97152,0.82529 1.89239,0.70177 0.88869,-0.11919 1.20237,-0.0182 2.04484,0.65887 0.91979,0.73918 1.11205,0.78892 2.53938,0.65629 1.69885,-0.15784 2.10457,-0.23784 2.81895,-0.55707 0.29289,-0.13087 0.60238,-0.0937 0.79168,0.0956 0.48893,0.48893 -0.2674,0.80853 -1.93373,0.81753 -0.80037,0.004 -1.69334,0.0505 -1.98438,0.10283 -0.81244,0.1461 -7.45843,-0.30408 -9.39271,-0.63614 -4.34127,-0.74526 -7.43388,-2.34526 -11.77396,-6.09161 -3.05589,-2.63788 -8.06979,-8.14651 -8.06979,-8.86613 0,-0.0776 0.80368,-0.51213 1.78594,-0.96583 1.21247,-0.56004 2.66577,-0.88315 4.3186,-0.96738 z m -17.898649,0.0269 c 0.06975,-0.0697 0.202918,0.17702 0.296105,0.54828 0.109501,0.43628 0.301272,0.62416 0.542086,0.53176 0.204937,-0.0786 0.372587,-0.0837 0.372587,-0.0109 0,0.0728 -0.182721,0.20224 -0.40566,0.28784 -0.272524,0.10458 -0.491523,-0.0714 -0.668693,-0.53743 -0.144899,-0.38121 -0.206175,-0.74989 -0.136425,-0.81959 z m 1.860351,2.14044 c 0.211875,0 0.330303,0.0891 0.263033,0.19792 -0.06727,0.10884 0.01073,0.242 0.173116,0.2961 0.178202,0.0594 0.106325,0.25206 -0.181384,0.48576 -0.26217,0.21301 -0.392456,0.24628 -0.289388,0.0744 0.103071,-0.17181 0.06625,-0.38712 -0.08165,-0.47852 -0.394655,-0.24392 -0.327653,-0.57567 0.116272,-0.57567 z m 105.844698,0.4718 0.21084,0.56999 c 0.27122,0.73316 0.17927,4.01929 -0.14624,5.21984 -0.40498,1.4937 -1.45948,3.55596 -2.15026,4.20491 -0.37804,0.35515 -0.62386,0.45726 -0.59996,0.24908 0.0222,-0.19397 -0.43578,-1.29873 -1.01751,-2.45463 l -1.05782,-2.10168 -0.32711,1.80557 c -0.35095,1.93639 -1.05056,3.40827 -1.67741,3.52899 -0.52684,0.10146 -1.13533,-1.03871 -1.70843,-3.20136 -0.51041,-1.92612 -0.73075,-1.90813 -1.04903,0.0858 -0.18003,1.12772 -1.05559,2.93928 -1.5136,3.13159 -0.1163,0.0488 -0.1438,0.19764 -0.0615,0.33073 0.24248,0.39235 0.0332,0.28204 -0.76222,-0.40205 -0.91607,-0.78785 -1.50069,-2.61494 -1.50069,-4.68963 0,-2.58998 -0.45586,-1.93883 -1.233,1.76165 -0.48689,2.3184 -2.20658,0.53955 -2.20658,-2.28255 0,-1.72194 0.11841,-1.81943 2.20452,-1.81643 3.02546,0.005 10.42944,-1.82792 13.33252,-3.29954 z m -104.829256,0.59738 c -0.04796,0.0211 -0.07752,0.0728 -0.07752,0.14986 0,0.15411 0.119063,0.28009 0.264584,0.28009 0.145521,0 0.264583,-0.0526 0.264583,-0.11679 0,-0.0642 -0.119062,-0.19019 -0.264583,-0.28009 -0.07276,-0.045 -0.139113,-0.0542 -0.187069,-0.0331 z m 60.305876,1.92598 2.28565,0.43563 c 3.50999,0.6689 11.42258,1.36273 18.99988,1.66605 5.0154,0.20076 4.83721,0.12553 4.84621,2.03502 0.004,0.76725 0.85471,2.67459 1.3224,2.96364 0.69151,0.42738 0.10504,0.66408 -1.64951,0.66508 -1.05503,6.6e-4 -3.88279,0.23116 -6.28385,0.51211 -6.37872,0.74638 -14.24565,1.53542 -19.97605,2.0035 -2.76486,0.22584 -5.86052,0.52703 -6.87916,0.66921 -1.01865,0.14217 -2.4474,0.31517 -3.175,0.38447 -0.72761,0.0693 -1.8587,0.1926 -2.51354,0.2744 l -1.19063,0.14883 0.6289,-0.47542 c 2.10246,-1.58865 3.26884,-2.93101 3.72949,-4.29173 0.45823,-1.35357 0.55802,-1.45538 2.03037,-2.07171 2.0125,-0.84244 5.42251,-2.86502 6.76548,-4.01319 z m -59.986516,0.22376 0.503846,0.59531 c 0.277213,0.32743 0.545102,0.59532 0.595312,0.59532 0.211734,0 0.0556,-0.21312 -0.503845,-0.68678 z m 1.493449,1.59318 c -0.06263,0.0626 0.03658,0.2955 0.220659,0.51729 0.472017,0.56875 0.600133,0.50087 0.216007,-0.11421 -0.177625,-0.28442 -0.374036,-0.46565 -0.436666,-0.40308 z m 37.210137,1.54668 c -0.0195,-0.0209 -0.0516,-0.0172 -0.0961,0.0124 -0.0594,0.0394 -0.14067,0.12491 -0.24288,0.25994 -0.20853,0.2761 -0.30404,0.62537 -0.21084,0.77618 0.0978,0.15822 0.25438,0.058 0.37,-0.2372 0.18222,-0.46533 0.2383,-0.74868 0.17984,-0.81132 z m -69.897547,6.59546 c -1.554711,0.11573 -2.804997,1.12578 -2.804997,2.53215 0,1.18223 0.612143,1.86241 2.38125,2.64583 1.446848,0.64071 2.794621,0.69684 4.059184,0.16847 2.689991,-1.12396 1.570872,-3.9824 -2.014348,-5.14543 -0.55079,-0.17865 -1.102854,-0.23959 -1.621089,-0.20102 z m -0.519865,1.02526 c 1.413565,-0.005 3.479111,0.70307 4.02146,1.57148 0.283064,0.45325 0.26996,0.65121 -0.07906,1.18391 -0.320662,0.48939 -0.650375,0.63804 -1.405082,0.63304 -0.952006,-0.006 -2.745473,-0.68599 -2.926437,-1.11001 -0.04851,-0.11366 -0.24341,-0.20671 -0.433048,-0.20671 -0.432536,0 -0.679859,-1.52319 -0.293522,-1.80764 0.245702,-0.1809 0.644504,-0.26229 1.115694,-0.26407 z m 18.300692,0.26665 c -0.353014,-0.0225 -0.70171,0.0429 -1.23455,0.18397 -1.593146,0.42188 -2.259294,1.09256 -2.259294,2.2748 0,1.24519 0.827859,2.28913 2.249992,2.83755 0.639843,0.24675 1.800121,0.45502 2.578654,0.46302 1.27444,0.013 1.50818,-0.0778 2.343526,-0.91312 0.762094,-0.76214 0.897072,-1.05743 0.757577,-1.65365 -0.232653,-0.99433 -1.651408,-2.26789 -3.175517,-2.84995 -0.550099,-0.21009 -0.907377,-0.32013 -1.260388,-0.34262 z m -0.442867,1.12397 c 1.136467,0.10638 2.587625,0.69977 3.129008,1.38803 0.670661,0.85259 0.671735,1.01394 0.01137,1.67431 -0.799635,0.79964 -2.208083,0.59116 -3.907771,-0.57826 -0.927099,-0.63786 -1.134349,-0.92403 -1.068669,-1.47536 0.05771,-0.48448 0.305461,-0.75772 0.84956,-0.93793 0.263521,-0.0873 0.60768,-0.10623 0.986504,-0.0708 z m 116.183607,6.76858 c 0.10913,-0.001 0.19844,0.35214 0.19844,0.78496 0,0.59333 -0.17903,0.87679 -0.72761,1.1529 -0.77445,0.3898 -4.15237,1.05895 -7.55974,1.49759 -2.66268,0.34273 -12.0839,0.25057 -14.40067,-0.14108 -1.66875,-0.28209 -0.82237,-0.58331 2.51354,-0.894 1.85536,-0.17281 4.32593,-0.43068 5.4901,-0.57361 2.23729,-0.27468 2.25897,-0.27758 7.01146,-0.91364 3.20754,-0.42929 7.13984,-0.91012 7.47448,-0.91312 z m -26.95546,3.28197 c 0.61464,0.0826 1.04025,0.34736 1.59112,0.83664 0.72358,0.64271 1.00045,1.51187 1.55287,4.87515 0.11191,0.68139 -1.10014,0.61879 -2.15335,-0.1111 -1.1787,-0.81684 -2.20214,-0.86802 -3.19619,-0.1602 -2.52471,1.79778 -2.4891,10.03266 0.0537,12.46281 0.45585,0.43563 0.98542,0.73175 1.17667,0.65835 0.19126,-0.0734 0.34779,-0.0441 0.34779,0.0651 0,0.10922 0.29765,0.22363 0.66145,0.25373 0.36381,0.0301 0.66146,-0.0703 0.66146,-0.22273 0,-0.15251 0.11815,-0.20444 0.26252,-0.11524 0.14437,0.0892 0.47179,0.0404 0.7276,-0.10852 0.25581,-0.14897 0.35297,-0.27453 0.21601,-0.27853 -0.13695,-0.004 -0.0179,-0.18323 0.26458,-0.39688 0.5906,-0.44671 2.15571,-0.52192 3.1316,-0.15089 l 0.66817,0.25373 -0.50384,1.46399 c -0.63645,1.84986 -1.63864,3.16977 -3.02204,3.98012 -1.41242,0.82734 -3.66226,0.98946 -7.43314,0.53485 -1.60073,-0.19298 -3.81871,-0.42308 -4.9289,-0.51108 -7.06937,-0.56037 -7.83947,-0.91824 -9.33741,-4.34444 -1.03188,-2.36018 -1.44905,-5.27485 -1.18804,-8.3013 0.33741,-3.91237 0.55344,-5.35686 0.82579,-5.53041 0.13967,-0.089 0.22236,-0.20808 0.18396,-0.26458 -0.18954,-0.27915 0.94116,-2.61697 1.31465,-2.71818 1.2911,-0.3499 3.25807,-0.62387 5.9862,-0.83406 1.16417,-0.0897 2.53339,-0.27269 3.04271,-0.40618 0.50932,-0.13348 1.62303,-0.24309 2.4753,-0.24391 0.85226,-8.1e-4 2.60333,-0.19433 3.89124,-0.42995 1.30875,-0.23944 2.11284,-0.33889 2.72748,-0.25631 z m 32.77009,0.58807 c 1.63616,-0.0247 4.71522,0.18653 8.93589,0.61857 1.38244,0.14151 3.40652,0.26379 4.49792,0.27079 3.35888,0.0228 4.81478,0.60464 6.47557,2.58692 1.78324,2.12844 2.81448,7.38145 2.31924,11.81323 -0.67463,6.03707 -2.91604,9.94565 -6.37997,11.12594 -1.62015,0.55204 -2.37246,0.52236 -10.1415,-0.39636 -2.43059,-0.28742 -4.95646,-0.52245 -5.6131,-0.52245 -2.46846,0 -4.3481,-1.04309 -5.34179,-2.96468 -1.18793,-2.29721 -1.51691,-3.96365 -1.56631,-7.93285 -0.0438,-3.52084 0.0239,-4.16414 0.7183,-6.84402 0.42155,-1.62682 1.04862,-3.50947 1.39371,-4.18373 0.79306,-1.54957 2.4288,-3.14365 3.55792,-3.46749 0.21361,-0.0613 0.59874,-0.0956 1.14412,-0.10387 z m -6.23528,0.18346 c 0.0522,0.0522 -0.11058,0.64943 -0.36173,1.32705 -0.43413,1.17131 -0.50605,1.23196 -1.46606,1.23196 -1.13898,0 -2.64354,0.55426 -3.30833,1.21905 -0.2446,0.24461 -0.81438,1.16827 -1.26607,2.05259 -0.56352,1.10325 -1.0228,1.66426 -1.46399,1.78748 -1.24778,0.3486 -2.24466,0.18905 -3.55328,-0.56895 -2.91142,-1.68609 -3.00598,-1.71309 -5.95312,-1.69189 -1.52797,0.011 -3.0048,0.0705 -3.28197,0.13229 -0.43504,0.0969 -0.56435,-0.16719 -0.94568,-1.93166 -0.243,-1.12421 -0.3735,-2.14143 -0.2899,-2.26033 0.0836,-0.1189 1.28303,-0.1332 2.66547,-0.0315 4.71078,0.34634 10.37891,0.26877 11.18743,-0.15296 0.40497,-0.21123 0.66397,-0.26683 0.57567,-0.12403 -0.18258,0.29542 0.80966,0.17388 4.747,-0.58136 1.44084,-0.27638 2.66236,-0.45992 2.71456,-0.40772 z m -118.443414,0.37362 1.124479,0.14934 c 0.618464,0.0821 1.422136,0.21067 1.785938,0.28577 0.888654,0.18349 13.123461,1.62997 16.933333,2.00195 5.484054,0.53544 10.114124,0.78836 14.618234,0.79736 2.43744,0.005 4.43177,0.0725 4.43177,0.14987 0,0.67966 -0.8952,2.03057 -1.50844,2.27583 -0.74025,0.29609 -9.35841,0.50445 -13.837397,0.33486 -2.221953,-0.0841 -8.648074,-0.5737 -10.186459,-0.77618 -0.43656,-0.0574 -2.222503,-0.23668 -3.96875,-0.39843 -3.497708,-0.32397 -7.69915,-0.91374 -8.364864,-1.17409 -0.601772,-0.23531 -1.027844,-1.2995 -1.027844,-2.56625 z m -16.362309,4.4545 c 0.101536,-0.005 0.14388,0.0258 0.10232,0.093 -0.139142,0.22513 0.732041,0.29946 3.413228,0.29146 0.574242,-0.002 1.110025,0.1028 1.190625,0.23254 0.171269,0.27568 3.384497,0.67437 4.88549,0.60617 0.569092,-0.0259 1.174451,0.0692 1.345137,0.21084 0.17069,0.14166 1.133976,0.33343 2.140438,0.42633 1.006462,0.0929 2.107763,0.27384 2.447396,0.40256 0.339633,0.12869 0.708983,0.1773 0.821139,0.108 0.112154,-0.0693 0.471567,0.15906 0.7984,0.50694 0.565581,0.60203 1.06761,2.56344 1.520838,5.94073 l 0.156579,1.16582 -1.163753,-0.1633 c -0.639948,-0.0899 -1.633181,-0.40542 -2.2071,-0.70073 -4.042465,-2.0801 -6.501981,0.70485 -6.173267,6.98924 0.138008,2.63841 0.779683,4.50138 1.983342,5.7583 1.370077,1.43072 3.506195,1.56953 4.845182,0.31471 0.591591,-0.55444 0.834676,-0.60828 2.074292,-0.46147 0.798007,0.0945 1.462618,0.31934 1.539958,0.5209 0.222912,0.5809 -0.773209,2.71185 -1.839681,3.93567 -0.547342,0.62811 -1.499845,1.38025 -2.116667,1.67122 -1.153985,0.54438 -3.588515,0.85381 -5.22242,0.66353 -11.788646,-1.3729 -14.081204,-1.7508 -14.938623,-2.46239 -0.177985,-0.14809 -0.378608,-0.21364 -0.445968,-0.14624 -0.281939,0.28193 -2.134215,-3.00749 -2.650484,-4.70721 -0.503177,-1.65657 -0.543845,-2.26522 -0.411345,-6.10453 0.138901,-4.02473 0.201209,-4.42057 1.10846,-7.04247 0.52872,-1.52797 0.984575,-2.95116 1.013375,-3.1626 0.0288,-0.21144 0.231304,-0.58622 0.449585,-0.83302 0.218278,-0.24681 0.694531,-0.87012 1.058333,-1.38493 0.363802,-0.51481 1.0948,-1.21158 1.624707,-1.54822 0.640185,-0.40668 0.862133,-0.68449 0.661458,-0.82786 -0.172957,-0.1236 -0.06253,-0.14909 0.258383,-0.0594 0.308198,0.086 0.880418,0.0351 1.271757,-0.11369 0.196325,-0.0746 0.357351,-0.11503 0.458886,-0.11989 z m 132.219323,0.11214 c 0.32098,0 0.38128,0.84139 0.12815,1.78594 -0.12487,0.46598 -0.35073,0.59531 -1.03921,0.59531 -0.48376,0 -0.94151,-0.10082 -1.01751,-0.22376 -0.16859,-0.27279 1.51616,-2.15749 1.92857,-2.15749 z m 22.68285,0.78962 -1.2547,1.33635 c -1.39642,1.48737 -1.93012,2.79982 -2.34508,5.76554 -0.49921,3.56785 0.55057,7.44136 2.34766,8.66252 0.54184,0.36819 1.33047,0.64389 1.84226,0.64389 0.8328,0 2.95125,-0.94889 2.95125,-1.32188 0,-0.0913 0.24413,-0.42792 0.5426,-0.74828 0.29849,-0.32037 0.45872,-0.71858 0.35605,-0.8847 -0.10956,-0.17738 -0.07,-0.22978 0.0961,-0.12712 0.16763,0.10361 0.48075,-0.33803 0.76843,-1.08366 0.37251,-0.96548 0.48397,-1.96669 0.47697,-4.30103 -0.0132,-4.52551 -0.80492,-5.93387 -4.07675,-7.25382 z m -45.50007,0.76326 c 1.60416,0.0572 3.33008,0.35203 3.46904,0.76894 0.0743,0.22292 -0.25621,0.32402 -1.0604,0.32402 -0.64271,0 -1.22561,-0.0567 -1.29501,-0.12609 -0.0694,-0.0694 -1.04578,-0.14981 -2.17041,-0.17881 -1.78588,-0.0461 -1.99635,-0.1012 -1.6614,-0.43614 0.16969,-0.16969 0.62544,-0.27497 1.21802,-0.32557 0.44444,-0.0379 0.96546,-0.0454 1.50016,-0.0264 z m -88.737731,0.3576 c 0.211352,-0.0111 0.485228,0.005 0.770496,0.0506 4.550251,0.72762 13.504011,1.42358 23.336045,1.81385 l 1.55339,0.0615 -0.70073,0.69867 c -0.46049,0.45911 -1.12691,0.76267 -1.94407,0.88521 -2.55849,0.38367 -4.125067,1.71454 -5.65495,4.80384 -0.663853,1.34053 -0.94547,1.65319 -1.609204,1.78594 -1.462279,0.29245 -2.434662,0.0781 -5.212085,-1.14721 -2.857342,-1.2606 -5.175815,-1.54469 -7.624858,-0.93483 -1.183929,0.29485 -2.032431,0.38753 -2.179712,0.23823 -0.279085,-0.28291 -1.322849,-7.80456 -1.130163,-8.14421 0.0354,-0.0625 0.184489,-0.10056 0.395841,-0.11162 z m 95.908871,0.48679 c 2.7563,0.0188 4.73509,0.30977 5.1723,0.7612 0.25242,0.26062 -0.11764,0.29627 -1.79886,0.17363 -2.64102,-0.19266 -2.32928,-0.0174 0.92604,0.52038 4.79575,0.79228 5.43615,0.86564 7.80521,0.89194 1.30969,0.0145 2.51332,0.11374 2.67477,0.22065 0.19866,0.13153 0.25162,1.11403 0.16382,3.03858 l -0.12971,2.84427 -1.22215,-0.0388 c -1.38827,-0.0443 -3.76946,-0.24982 -10.21798,-0.88056 -2.47385,-0.24198 -6.46245,-0.44054 -8.86354,-0.44132 -2.65796,-8.6e-4 -4.15864,-0.09 -3.83646,-0.22789 0.47064,-0.20149 0.44969,-0.22845 -0.18913,-0.24495 -0.44782,-0.0116 -0.83114,-0.22957 -1.01803,-0.57878 -0.35899,-0.67077 -0.23933,-4.8586 0.14883,-5.20846 0.15108,-0.1362 1.28613,-0.15234 2.64583,-0.0377 4.71058,0.39685 7.02202,0.48166 6.8802,0.25218 -0.0789,-0.12773 0.24569,-0.28061 0.7214,-0.33951 0.53708,-0.0665 0.28842,-0.12305 -0.65629,-0.14935 -2.49639,-0.0695 -1.77686,-0.57302 0.79375,-0.55552 z m 39.83943,0.20774 c 1.67303,0.10461 3.14903,2.67419 3.14916,6.25853 1e-4,2.51208 -0.62973,4.22666 -2.11408,5.75469 -1.58788,1.6346 -2.96887,1.20856 -4.07417,-1.25677 -0.48376,-1.07901 -0.59555,-1.81074 -0.60255,-3.96875 -0.0101,-2.96465 0.49797,-4.53175 1.95027,-6.0172 0.55401,-0.56666 1.1337,-0.80537 1.69137,-0.7705 z m -145.288287,0.30541 c -0.175054,0 -0.318327,0.12598 -0.318327,0.28009 0,0.1541 -0.101024,0.21779 -0.224276,0.14159 -0.621122,-0.38388 -3.367901,3.89935 -3.043225,4.74545 0.125459,0.32697 0.08563,0.41622 -0.127124,0.28473 -0.340193,-0.21026 -0.427706,0.16296 -0.112138,0.47853 0.10871,0.10871 0.629984,-0.71449 1.158069,-1.82935 0.528087,-1.11487 1.415588,-2.49358 1.97249,-3.0639 0.556899,-0.57029 0.869585,-1.03714 0.694531,-1.03714 z m 119.207197,0.68109 c 1.02221,-0.0516 1.38906,0.0238 1.38906,0.28577 0,0.37989 -0.51975,0.40102 -2.24896,0.0915 -1.2153,-0.21759 -1.07401,-0.27954 0.8599,-0.37724 z m -78.95849,1.42472 c 0.75952,0.008 1.64292,0.0829 2.69234,0.21549 1.30969,0.16546 3.37796,0.36564 4.5961,0.44494 1.21814,0.0793 2.94454,0.25569 3.83646,0.39171 0.89191,0.13603 2.57413,0.32783 3.73827,0.42633 5.0744,0.42933 8.69875,4.28594 9.80974,10.43864 0.53941,2.9872 0.47585,8.44635 -0.12506,10.75955 -0.92884,3.57568 -3.04672,6.39742 -5.87612,7.82898 -1.32428,0.67003 -1.65963,0.72298 -4.34186,0.68988 -1.59861,-0.0198 -3.97784,-0.18539 -5.28753,-0.36846 -3.29714,-0.46085 -6.37701,-0.87217 -8.79739,-1.1746 -3.36081,-0.41994 -4.79126,-1.02456 -5.85494,-2.4753 -0.2964,-0.40425 -0.41229,-0.43029 -0.62012,-0.13953 -0.19352,0.2707 -0.21906,0.24428 -0.10542,-0.10852 0.16943,-0.52602 -0.33694,-1.83106 -0.63821,-1.64486 -0.10786,0.0666 -0.18323,-0.0269 -0.16743,-0.20722 0.0158,-0.18034 -0.24415,-1.16107 -0.57774,-2.17972 -1.54809,-4.72728 -0.83275,-13.67834 1.45469,-18.19992 0.35245,-0.69668 0.56836,-1.3844 0.47956,-1.52807 -0.0888,-0.14372 -0.047,-0.22862 0.093,-0.18862 0.14005,0.04 0.62055,-0.38414 1.06763,-0.94258 1.18209,-1.47657 2.34545,-2.0615 4.62401,-2.03812 z m 105.95581,1.88103 c -0.0357,0.004 -0.092,0.071 -0.1757,0.20308 -0.12318,0.19433 -0.33016,0.33623 -0.45941,0.31523 -0.58127,-0.0945 -0.86115,3.62485 -0.31419,4.17287 0.46379,0.46379 0.61921,0.40633 1.39681,-0.5178 0.61685,-0.733 0.68631,-1.00067 0.56483,-2.18281 -0.0761,-0.74104 -0.14338,-1.37695 -0.15038,-1.41335 -0.007,-0.0363 -0.19047,-0.0661 -0.40876,-0.0661 -0.21828,0 -0.39901,-0.14883 -0.40101,-0.33073 -0.002,-0.12367 -0.0165,-0.18389 -0.0522,-0.18035 z m -0.25735,0.7121 c 0.51946,0.19934 0.78155,1.11662 0.64233,2.24637 -0.0725,0.58856 -0.26542,0.99219 -0.47438,0.99219 -0.5546,0 -0.68436,-0.42174 -0.60049,-1.9513 0.0581,-1.05936 0.16886,-1.38844 0.43254,-1.28726 z m -114.34341,0.59273 c 0.22068,0 0.35521,0.0893 0.29921,0.19843 -0.056,0.10914 -0.50043,1.06164 -0.98754,2.11667 -0.64097,1.38828 -1.02342,1.91823 -1.383896,1.91823 -0.657766,0 -0.863623,-0.60404 -0.466639,-1.36839 0.579095,-1.11497 2.129965,-2.86494 2.538865,-2.86494 z m -35.906337,2.11666 c -0.154107,0 -0.206729,0.11906 -0.116789,0.26459 0.08994,0.14552 0.215917,0.26458 0.280087,0.26458 0.06418,0 0.116788,-0.11906 0.116788,-0.26458 0,-0.14553 -0.125977,-0.26459 -0.280086,-0.26459 z m 6.892086,0.52917 c 1.857227,0 6.136121,0.64612 6.822839,1.03043 0.227181,0.12712 -0.912658,0.20828 -2.682523,0.19068 -1.77245,-0.0176 -3.115325,-0.14176 -3.166215,-0.293 -0.0486,-0.14449 -0.821882,-0.25301 -1.718242,-0.24081 -1.334381,0.0181 -1.576431,-0.0418 -1.335319,-0.33228 0.193002,-0.23256 0.90956,-0.35502 2.07946,-0.35502 z m 9.486759,1.09916 c 1.870969,-0.066 6.125573,0.21225 7.449158,0.58342 l 1.455208,0.40825 -2.116666,-0.0816 c -1.164164,-0.0448 -2.379121,0.0154 -2.699577,0.13384 -0.436472,0.16138 -0.548534,0.12713 -0.447001,-0.13746 0.105604,-0.2752 -0.348527,-0.36216 -2.057239,-0.39326 -1.206168,-0.0219 -2.31477,-0.16723 -2.463416,-0.32297 -0.10284,-0.10775 0.255878,-0.16818 0.879533,-0.19017 z m -11.277864,0.0543 c 0.316795,-0.0582 0.720519,-0.0404 1.234033,0.0202 0.817015,0.0962 2.378669,0.23262 3.470072,0.30282 1.091404,0.0702 2.504402,0.24799 3.13986,0.39533 0.635462,0.14734 3.314377,0.50235 5.953125,0.78858 3.528929,0.38278 13.46327,1.6178 14.669389,1.82366 0.0813,0.0139 -0.100538,2.55292 -0.375171,5.23948 -0.13384,1.30926 -0.308922,1.52117 -1.029911,1.24643 -0.145521,-0.0555 -1.990996,-0.28422 -4.101042,-0.50849 -2.110046,-0.22427 -4.729429,-0.52644 -5.820833,-0.67128 -1.091403,-0.14484 -2.401094,-0.31874 -2.910417,-0.38654 -0.50932,-0.0678 -1.878545,-0.19367 -3.042708,-0.27957 -1.164164,-0.0859 -3.400893,-0.3284 -4.970239,-0.53899 -2.648022,-0.35533 -5.234103,-0.49284 -3.694865,-0.19637 0.638314,0.12294 0.829904,0.6072 0.240295,0.6072 -0.904111,0 -2.878379,-0.80548 -3.343982,-1.36426 -0.426785,-0.5122 -0.518249,-1.03572 -0.525549,-3.0086 -0.009,-2.43691 0.157552,-3.29502 1.107943,-3.46955 z m 54.455586,0.27957 c -0.574,0.0825 -1.08461,0.45337 -1.78852,1.1498 -1.18974,1.17709 -1.70852,2.18088 -2.47426,4.78834 -0.77723,2.64648 -0.64206,7.65044 0.26148,9.69449 0.62157,1.40619 1.9261,2.95125 2.80086,3.31711 0.65293,0.27302 2.16387,0.31131 3.30161,0.0837 1.03243,-0.20649 3.40265,-2.45086 4.0504,-3.83542 0.65023,-1.38989 0.85187,-2.88372 0.83457,-6.17999 -0.0127,-2.41202 -0.11316,-3.11775 -0.58704,-4.12068 -0.88316,-1.86912 -2.44528,-3.46312 -4.22972,-4.31601 -0.95763,-0.4577 -1.59535,-0.66384 -2.16938,-0.58136 z m -27.13684,1.1529 c 0.66022,-0.0167 1.257618,0.0313 1.380794,0.15451 0.391976,0.39203 -0.401404,0.56207 -2.035018,0.43563 -1.340149,-0.10373 -1.58389,-0.18255 -1.104325,-0.35605 0.375345,-0.13581 1.098326,-0.21738 1.758549,-0.23409 z m 28.05307,0.32453 c 0.21828,0 0.39687,0.11906 0.39687,0.26458 0,0.14552 -0.0962,0.26458 -0.21394,0.26458 -0.11771,0 -0.44513,0.17291 -0.7276,0.38396 -0.495,0.36981 -0.49215,0.3781 0.0894,0.23151 0.33188,-0.0837 0.7616,-0.37815 0.95498,-0.65423 0.31138,-0.44451 0.3898,-0.45583 0.68575,-0.0992 0.18376,0.22146 0.544,0.40256 0.79995,0.40256 1.91346,0 3.51874,7.09541 2.43396,10.75748 -0.43775,1.47779 -1.85613,3.52673 -2.83187,4.0907 -1.36224,0.78741 -2.43741,0.63578 -3.57756,-0.50436 -1.33104,-1.33105 -1.70836,-2.71712 -1.70636,-6.27403 0.002,-3.37059 0.49024,-5.17844 1.80713,-6.69055 0.45689,-0.52456 0.6821,-0.86382 0.50023,-0.75396 -0.18377,0.11101 -0.33073,0.0726 -0.33073,-0.0863 0,-0.15722 0.29764,-0.42128 0.66145,-0.58704 0.3638,-0.16576 0.66146,-0.40133 0.66146,-0.52349 0,-0.12212 0.1786,-0.2222 0.39688,-0.2222 z m 1.82521,5.82083 c -0.70588,0 -1.81905,1.4069 -1.58853,2.00763 0.0991,0.25816 0.0458,0.33403 -0.14935,0.21342 -0.48288,-0.29843 -0.0517,2.52547 0.47439,3.10679 0.58335,0.64459 0.94475,0.62189 1.62316,-0.10232 0.79703,-0.85083 1.11636,-1.86067 0.95549,-3.02411 -0.20694,-1.49649 -0.62823,-2.20141 -1.31516,-2.20141 z m -0.60875,1.21026 c 0.095,-0.0638 0.1977,-0.0309 0.33331,0.0817 0.19288,0.1601 0.39949,0.24233 0.45889,0.18293 0.0594,-0.0594 0.108,0.29915 0.108,0.79634 0,0.4972 -0.0893,0.90382 -0.19843,0.90382 -0.10914,0 -0.19844,0.22338 -0.19844,0.49661 0,0.55208 -0.61241,1.18386 -0.88418,0.91209 -0.26673,-0.26675 -0.20726,-2.08165 0.0946,-2.87528 0.10401,-0.27357 0.19128,-0.43432 0.28629,-0.49816 z m -29.483988,3.4308 c 0.443191,-0.0272 1.153519,0.26588 1.247986,0.61392 0.06476,0.23859 0.263032,1.0884 0.440282,1.88877 0.34506,1.55806 1.66061,4.6198 2.1022,4.89272 0.14718,0.091 0.26768,0.27002 0.26768,0.39791 0,0.12791 -0.233,0.21529 -0.5178,0.19379 -0.28477,-0.0214 -0.47209,-0.085 -0.41599,-0.14108 0.0561,-0.0561 -0.40471,-0.79006 -1.02371,-1.63091 -1.07888,-1.46552 -2.722435,-5.58547 -2.422075,-6.07146 0.05559,-0.0899 0.173699,-0.1346 0.321427,-0.14366 z" /></g></svg>
