<?xml version="1.0" encoding="UTF-8" standalone="no"?>
<!-- Created with Inkscape (http://www.inkscape.org/) -->

<svg
   width="204.22353mm"
   height="215.53117mm"
   viewBox="0 0 204.22357 215.53121"
   version="1.1"
   id="svg1"
   xml:space="preserve"
   xmlns="http://www.w3.org/2000/svg"
   xmlns:svg="http://www.w3.org/2000/svg"><defs
     id="defs1" /><g
     id="layer1"
     transform="translate(47.994477,49.809411)"><path
       style="fill:#000000"
       d="m 39.006547,165.56524 c -2.91879,-0.37183 -3.85758,-0.69818 -5.30923,-1.84564 -1.38159,-1.09209 -2.53557,-2.7744 -2.96168,-4.31765 -0.20115,-0.72848 -0.46671,-0.98706 -1.37113,-1.33504 -2.0837,-0.80173 -4.27306,-3.08944 -5.77604,-6.03553 -0.29807,-0.58425 -0.47546,-1.23552 -0.39421,-1.44725 0.0812,-0.21173 0.0501,-0.32461 -0.0693,-0.25085 -0.2241,0.13849 -1.09986,-2.33073 -1.09986,-3.10107 0,-0.23891 -0.45562,-0.66683 -1.01249,-0.95092 -1.34025,-0.68375 -2.97954,-2.15293 -2.77374,-2.48592 0.0901,-0.14579 0.0393,-0.18812 -0.11283,-0.0941 -0.32502,0.20087 -1.86687,-1.48027 -3.05443,-3.33037 -0.25688,-0.40018 -0.38632,-0.7276 -0.28765,-0.7276 0.0987,0 -0.004,-0.20836 -0.22719,-0.46302 -0.22362,-0.25466 -0.48822,-0.73091 -0.588,-1.05834 -0.0998,-0.32742 -0.26269,-0.58786 -0.36202,-0.57876 -0.0993,0.009 -0.66141,0.75323 -1.24905,1.65364 -0.58763,0.90041 -1.20843,1.60877 -1.37954,1.57413 -0.17111,-0.0346 -0.25034,0.0954 -0.17607,0.28892 0.32059,0.83544 -6.0300802,5.76701 -6.8319202,5.30528 -0.18349,-0.10566 -0.24234,-0.0917 -0.13077,0.0311 0.4037,0.44424 -3.79837997,1.88557 -6.55284,2.24765 -4.43449,0.58293 -9.0658498,0.14088 -12.3012598,-1.17413 -2.03043,-0.82525 -3.76469,-1.96127 -3.54262,-2.32059 0.11595,-0.18761 0.0624,-0.2215 -0.14626,-0.0925 -0.45627,0.28199 -3.08335,-2.47364 -4.35045,-4.56333 -1.7243,-2.84371 -2.57125,-5.77404 -2.73102,-9.44898 -0.15761,-3.62548 0.21949,-6.1179 1.50714,-9.96129 0.43707,-1.30457 0.79467,-2.40703 0.79467,-2.44992 0,-0.0429 -1.6371,-0.14546 -3.63802,-0.22794 -7.07197,-0.29152 -11.77932,-1.96969 -15.55307,-5.54467 -1.12325,-1.06409 -1.93694,-2.04042 -1.8624,-2.23467 0.0728,-0.18972 0.005,-0.31662 -0.15019,-0.28198 -0.41678,0.0929 -1.99407,-2.83568 -2.67361,-4.96411 -0.78514,-2.45919 -0.85617,-8.828304 -0.12801,-11.477364 1.48216,-5.392116 4.67495,-10.296972 9.32093,-14.319073 1.01865,-0.881859 2.01936,-1.748734 2.22381,-1.926389 0.20445,-0.177655 0.74801,-0.561134 1.20791,-0.852176 0.4599,-0.291041 1.53678,-0.994508 2.39305,-1.563259 1.90198,-1.263322 5.8658,-3.149717 6.1932,-2.947369 0.13129,0.08114 0.20861,-0.0614 0.17183,-0.316757 -0.039,-0.271095 -0.33213,-0.493087 -0.70437,-0.533511 -3.03397,-0.32947 -7.97772,-1.597272 -7.73841,-1.984479 0.0961,-0.155486 0.0448,-0.198918 -0.11682,-0.099 -0.15842,0.09791 -0.77502,-0.01685 -1.37022,-0.255001 -0.94181,-0.376836 -1.03846,-0.489014 -0.74505,-0.864732 0.29941,-0.383395 0.2859,-0.39155 -0.12074,-0.07285 -0.39503,0.3096 -0.61299,0.267853 -1.5875,-0.304056 -1.60705,-0.943124 -3.67701,-2.828687 -3.47109,-3.161871 0.0979,-0.158447 0.0502,-0.205304 -0.10895,-0.106948 -0.40145,0.248106 -1.97507,-1.680559 -3.06769,-3.759814 -2.05256,-3.906021 -2.60805,-8.814906 -1.4834,-13.108698 0.6268,-2.393065 1.53226,-4.450676 1.86738,-4.243555 0.12831,0.0793 0.16592,-0.03139 0.0836,-0.245981 -0.0823,-0.214588 0.0877,-0.627568 0.37786,-0.917735 0.29017,-0.290166 0.46839,-0.586765 0.39604,-0.659108 -0.0723,-0.07234 0.85548,-1.105374 2.06184,-2.295625 2.01497,-1.988072 2.1512,-2.187603 1.67493,-2.453163 -1.07623,-0.600093 -3.35054,-2.988641 -4.24021,-4.453189 -2.56923,-4.229407 -2.80696,-8.803008 -0.69172,-13.307573 0.88149,-1.877182 2.09067,-3.409062 2.49412,-3.159717 0.15474,0.09563 0.20754,0.05445 0.11733,-0.09151 -0.22448,-0.363216 0.83679,-1.459335 1.19725,-1.236561 0.15933,0.09847 0.21543,0.05889 0.12467,-0.08796 -0.30867,-0.499433 3.2944,-3.162166 3.83053,-2.830825 0.17393,0.107495 0.23146,0.07127 0.13491,-0.08495 -0.18873,-0.30537 4.20071,-2.0717899 6.14109,-2.4713246 2.52616,-0.5201529 4.19113,-0.7862301 6.11631,-0.9774432 2.7005,-0.2682202 9.34401,-0.2483982 12.56395,0.037487 2.3185598,0.2058552 2.6023198,0.1866754 2.3173998,-0.1566358 -0.1785698,-0.2151682 -0.2364098,-0.4886457 -0.1285398,-0.6077278 0.1078798,-0.119082 0.0357,-0.1236789 -0.16043,-0.010215 -0.4248,0.2457758 -3.2822,-2.4449856 -3.02991,-2.853211 0.0885,-0.1432337 0.038,-0.1844256 -0.11231,-0.091538 -0.42974,0.2655937 -2.72739,-2.3702204 -4.7475,-5.44623347 -2.75547,-4.19574873 -3.91617,-7.69991573 -3.74282,-11.29963213 0.0909,-1.888144 0.23926,-2.497849 0.90365,-3.714176 0.43718,-0.800365 0.94622,-1.422493 1.13119,-1.382507 0.18498,0.03999 0.26832,-0.03732 0.18522,-0.171783 -0.0831,-0.134466 0.28956,-0.631393 0.82815,-1.104281 2.12686,-1.867406 6.35326,-3.162262 10.3216098,-3.162262 2.70845,0 5.67882,0.382897 7.23805,0.933026 1.02250003,0.36076 1.46843003,0.257865 1.07143003,-0.247224 -0.30917,-0.393353 -1.27866003,-3.026572 -2.03332003,-5.522709 -1.23582,-4.087611 -1.58092,-9.927665 -0.76952,-13.022467 0.49738,-1.89709 1.61992,-3.924357 2.03198003,-3.669689 0.16365,0.101137 0.21605,0.05901 0.11997,-0.09645 -0.22602003,-0.365697 1.59284,-1.740646 1.98334997,-1.499298 0.18402,0.113732 0.2319,0.07132 0.12137,-0.107525 -0.38402997,-0.621375 2.64091,-1.182539 5.63671,-1.04568 3.1941602,0.14592 4.7945002,0.611427 8.8838602,2.584131 3.3929,1.636734 7.72,4.969815 7.43069,5.723724 -0.0719,0.187379 0.0161,0.277604 0.20147,0.206484 0.18104,-0.06947 0.61692,0.204482 0.96862,0.608787 l 0.63946,0.735101 0.19488,-0.79375 c 0.10718,-0.436562 0.44618,-1.865312 0.75333,-3.175 1.36112,-5.803863 5.3923,-9.639516 10.14627,-9.654151 1.92055,-0.0059 6.49957,1.491672 6.05629,1.980729 -0.10849,0.1197 -0.0566,0.137049 0.11527,0.03855 0.36703,-0.210308 2.36714,1.08372 2.2606,1.462561 -0.04,0.142183 0.0508,0.182193 0.20173,0.08891 0.44184,-0.273075 3.17227,2.20602 3.00547,2.728823 -0.10954,0.343312 -0.0835,0.36275 0.1145,0.08561 0.20287,-0.283922 0.35951,-0.210079 0.75256,0.354781 0.27299,0.392332 0.76425,0.962103 1.09167,1.266159 0.61902,0.574845 0.82311,1.158588 0.28985,0.829011 -0.18015,-0.111335 -0.23399,-0.07314 -0.13124,0.09311 0.32547,0.526628 1.57014,-0.09848 1.71553,-0.861596 0.14891,-0.781531 0.37378,-1.181617 0.58927,-1.048433 0.13338,0.08243 0.17819,-0.01773 0.0996,-0.222577 -0.15439,-0.402351 1.28883,-2.434607 2.71381,-3.821417 3.90373,-3.799167 10.12282,-4.000358 14.33744,-0.463822 1.1303,0.948445 1.36118,1.229518 1.21038,1.473508 -0.0817,0.132122 0.007,0.184951 0.19601,0.117398 0.85113,-0.303476 4.12788,5.400709 5.27888,9.189482 0.34201,1.125822 0.69532,2.048064 0.78512,2.049426 0.0898,0.0014 0.46904,-0.459564 0.84275,-1.024281 0.84056,-1.270168 2.83829,-3.344884 4.41793,-4.588188 2.57407,-2.026002 6.5134,-3.386958 9.76576,-3.373871 2.12804,0.0086 5.20133,0.989783 5.14994,1.644238 -0.0183,0.232961 0.10741,0.369585 0.27934,0.303609 0.17193,-0.06598 0.62046,0.225559 0.99672,0.647856 0.86072,0.966009 1.64966,2.159781 1.42736,2.159781 -0.0928,0 0.0261,0.297449 0.26428,0.660999 1.421363,2.169259 2.099993,9.146738 1.322683,13.599253 -0.23873,1.367462 -0.7077,3.302227 -1.04217,4.299479 -0.543273,1.619818 -0.561373,1.813184 -0.1697,1.813184 0.24114,0 0.52772,-0.0893 0.63686,-0.198437 0.10914,-0.109141 0.27782,-0.208415 0.37483,-0.220608 0.097,-0.01219 0.5,-0.156626 0.89552,-0.320959 0.39552,-0.164334 1.70304,-0.498155 2.90561,-0.741825 4.15597,-0.842108 9.44239,-0.06294 12.75862,1.880502 1.72209,1.009207 3.37717,2.531403 3.21419,2.956119 -0.0795,0.207272 -0.0362,0.309841 0.0963,0.227931 0.4084,-0.252401 1.60178,2.65826 1.77692,4.333905 0.30601,2.9278084 -0.82356,6.631406 -3.15947,10.35913653 -1.65637,2.64330397 -3.59171,5.06059187 -3.89939,4.87043807 -0.13788,-0.085216 -0.18723,0.010428 -0.10968,0.212542 0.0855,0.2228055 -0.60443,1.0706984 -1.75246,2.153688 -1.04141,0.9824144 -1.79084,1.8830167 -1.6654,2.0013384 0.12545,0.1183218 0.70433,0.2818338 1.28641,0.3633602 1.7768,0.2488571 8.00101,1.7445548 10.16659,2.4430598 2.50503,0.807997 5.99919,2.591815 5.90029,3.012185 -0.04,0.169971 0.0502,0.233066 0.20047,0.140211 0.33753,-0.208605 1.10845,0.517113 0.85182,0.801874 -0.10221,0.113415 -0.0318,0.117339 0.15648,0.0087 0.41937,-0.241939 1.17263,0.331106 0.93681,0.712677 -0.0936,0.151516 -0.0521,0.202488 0.0922,0.11327 0.32995,-0.203924 1.85124,1.39479 2.9454,3.095306 2.4662,3.832934 2.81769,8.495453 0.92458,12.264834 -0.3837,0.763985 -0.79723,1.389063 -0.91895,1.389063 -0.12173,0 -0.22132,0.16267 -0.22132,0.361489 0,0.409756 -2.62779,3.350575 -2.63875,2.953077 -0.004,-0.14152 -0.19427,0.0099 -0.42304,0.336553 -0.50935,0.727192 -3.46125,2.257523 -3.86878,2.005658 -0.17527,-0.108327 -0.22096,-0.06257 -0.11259,0.11277 0.11849,0.19172 -0.49268,0.490616 -1.74506,0.853427 -3.09868,0.897683 -3.08631,0.890405 -2.31515,1.361716 2.69709,1.648395 3.43045,2.156604 3.43045,2.377256 0,0.138939 0.10457,0.187986 0.23239,0.108994 0.12781,-0.07899 0.75288,0.432364 1.38906,1.136345 1.68035,1.859459 2.10986,2.49243 1.95865,2.886468 -0.074,0.192718 -0.0156,0.276968 0.12957,0.187222 0.14521,-0.08975 0.47127,0.200974 0.72457,0.646044 0.2533,0.44507 0.54,0.80997 0.63711,0.81089 0.0971,9.2e-4 0.38962,-0.556246 0.65004,-1.238147 0.56553,-1.480812 2.93201,-3.995997 4.5238,-4.80807 2.46284,-1.256447 6.08986,-1.698575 8.80481,-1.073293 3.31224,0.762844 7.24629,3.799438 8.81157,6.801434 2.6178,5.020562 1.91276,11.232737 -1.78741,15.749044 -0.76998,0.939821 -1.40269,1.484149 -1.62567,1.398584 -0.20078,-0.07705 -0.33672,-0.0029 -0.30209,0.164847 0.0926,0.448655 -2.47543,2.11249 -3.03479,1.966213 -0.26116,-0.06829 -0.41529,-0.02781 -0.3425,0.08996 0.0728,0.117775 -0.21554,0.33541 -0.64074,0.483635 -0.74502,0.259713 -0.93386,0.833789 -0.42625,1.295743 0.12456,0.113353 0.13478,0.0275 0.0227,-0.190779 -0.11206,-0.218281 0.10329,-0.03969 0.47856,0.396875 1.02159,1.188452 2.74684,4.60984 3.2159,6.377531 0.54355,2.048402 0.54337,5.891756 -3.7e-4,7.909968 -1.20596,4.476211 -4.93075,7.854164 -9.76788,8.85835 -0.81412,0.16901 -1.48022,0.336099 -1.48022,0.371307 0,0.03521 0.29536,0.676262 0.65635,1.424563 0.36099,0.748302 0.68398,1.723085 0.71774,2.166185 0.0338,0.4431 0.12536,0.81384 0.20355,0.823866 0.0782,0.01003 0.49934,0.06257 0.9359,0.116757 2.43768,0.302584 3.28252,0.484992 4.29044,0.926336 1.27654,0.558961 1.46945,0.703091 3.37507,2.521601 4.69476,4.48015 4.97215,12.61939 0.68043,19.96499 -1.87839,3.215 -6.813,7.81464 -7.75749,7.23091 -0.15033,-0.0929 -0.19576,-0.0434 -0.10096,0.10999 0.28083,0.45438 -3.53898,1.70658 -5.33681,1.7495 -0.86929,0.0207 -1.5357,0.0844 -1.4809,0.14152 0.22766,0.23719 -2.63245,3.22207 -2.96507,3.09443 -0.19561,-0.0751 -0.32731,0.008 -0.29268,0.18473 0.0346,0.17667 -0.0947,0.28849 -0.28742,0.24851 -0.19272,-0.04 -0.27708,0.0459 -0.18747,0.19091 0.21322,0.345 -2.70107,2.48292 -4.88609,3.58442 -2.89513,1.45947 -9.24269,2.771 -13.44261,2.77749 -1.39794,0.002 -1.40227,0.005 -0.99219,0.59021 0.54921,0.78411 0.53445,3.27484 -0.029,4.89282 -0.29508,0.84734 -0.45311,2.22851 -0.47786,4.17643 -0.0375,2.95244 -0.31699,4.07998 -1.40995,5.68854 -0.30468,0.44842 -0.45328,1.21537 -0.46139,2.38125 -0.0243,3.50437 -1.96046,5.51263 -5.86335,6.08186 -2.39714,0.34962 -62.265593,0.59046 -64.852643,0.2609 z m 13.73046,-4.56168 c -0.16581,-0.50242 -0.32749,-1.67048 -0.35928,-2.5957 l -0.0578,-1.68222 -1.25109,0.0774 c -1.61029,0.0997 -2.32079,-0.13557 -2.32079,-0.76838 0,-0.57988 0.66895,-0.78972 2.24828,-0.70524 l 1.05766,0.0566 0.20402,-2.24564 c 0.11222,-1.2351 0.31642,-2.65268 0.45378,-3.15017 0.13737,-0.49749 0.18766,-1.005 0.11177,-1.1278 -0.0759,-0.1228 -0.7117,-0.22327 -1.41289,-0.22327 -1.367,0 -2.04981,-0.46977 -1.76429,-1.21382 0.13199,-0.34394 0.48167,-0.40881 1.80111,-0.3341 l 1.63733,0.0927 0.49544,-1.32291 c 1.02327,-2.73229 1.02753,-2.77643 0.29498,-3.05495 -0.92767,-0.3527 -6.97472,-0.31604 -8.06427,0.0489 -1.00027,0.33502 -1.87026,1.03958 -2.68068,2.17091 -1.03317,1.4423 -1.49683,7.78978 -1.04667,14.3289 l 0.18214,2.64583 5.15937,0.13229 c 2.83766,0.0728 5.26153,0.054 5.38637,-0.0418 0.12485,-0.0957 0.0913,-0.58514 -0.0745,-1.08755 z m 9.25982,0.78551 c -0.0108,-0.10193 -0.0196,-0.90266 -0.0196,-1.77939 0,-1.49329 -0.046,-1.61211 -0.72761,-1.87982 -0.40018,-0.15717 -1.46513,-0.34859 -2.36656,-0.42537 -1.55872,-0.13276 -1.67852,-0.10002 -2.44739,0.66885 -0.86189,0.86188 -0.98925,1.57444 -0.52133,2.9167 l 0.2871,0.8236 2.42488,0.0758 c 2.40575,0.0752 3.40827,-0.0439 3.37053,-0.40035 z m 9.1085,0.0597 c 1.38707,-0.39365 3.08283,-2.15987 3.5466,-3.69397 0.19642,-0.64972 0.44637,-2.39652 0.55545,-3.88177 0.19543,-2.66118 0.21367,-2.7179 1.25415,-3.89994 0.58826,-0.6683 1.20392,-1.72842 1.39024,-2.39387 0.56138,-2.00507 -0.078,-4.6023 -0.87727,-3.56373 -0.66824,0.86827 -2.00308,1.57779 -2.96837,1.57779 -1.17285,0 -2.64978,-0.84032 -2.85479,-1.62427 -0.13636,-0.52145 -0.0691,-0.54936 0.97793,-0.40585 2.67885,0.36718 4.74823,-2.66704 3.05505,-4.47947 -0.93982,-1.00601 -1.91434,-1.42791 -3.29826,-1.42791 -1.70019,0 -2.75194,0.5764 -3.74099,2.05022 -1.79634,2.67677 -2.65833,5.27081 -3.37433,10.15457 -0.42633,2.90791 -0.58146,11.60693 -0.21385,11.9919 0.26636,0.27893 5.21897,-0.0264 6.54844,-0.4037 z m 18.82511,0.2003 c 0.0941,-0.0941 0.14728,-1.09604 0.11812,-2.22648 -0.0292,-1.13045 -0.15339,-7.23 -0.27607,-13.55456 l -0.22304,-11.4992 -0.82739,-0.73927 -0.82738,-0.73927 -1.29567,0.65657 c -1.12454,0.56984 -1.36446,0.84087 -1.81644,2.05201 -0.28643,0.7675 -0.64861,2.22 -0.80485,3.22778 -0.15624,1.00778 -0.43753,1.98461 -0.6251,2.17073 -0.18757,0.18613 -0.93635,0.39302 -1.66396,0.45976 -0.93131,0.0854 -1.29641,0.22607 -1.23337,0.4751 0.34446,1.36088 0.52498,3.4567 0.54345,6.30954 0.0239,3.69731 0.61564,9.96209 1.09065,11.5475 0.25002,0.83451 0.49841,1.10488 1.27773,1.39081 1.46415,0.53719 6.1596,0.8727 6.56332,0.46898 z m 14.428133,-0.46037 c 1.18063,-0.61124 1.53947,-1.10313 1.53947,-2.11028 0,-0.54948 -0.17418,-1.12949 -0.39396,-1.31189 -0.21668,-0.17983 -0.33803,-0.41747 -0.26966,-0.52809 0.0684,-0.11062 -2.79045,-0.22286 -6.352923,-0.24943 l -6.47721,-0.0483 v 2.38579 2.38578 l 2.3151,0.0764 c 3.3871,0.11185 8.930743,-0.23322 9.639183,-0.6 z m -65.400113,0.015 c 0.21828,-0.14106 0.27719,-0.2583 0.13092,-0.26053 -0.16687,-0.003 -0.29651,-2.04953 -0.34795,-5.49415 -0.0691,-4.62927 -0.14764,-5.54064 -0.50063,-5.81236 -0.23025,-0.17724 -0.49319,-0.27618 -0.58431,-0.21986 -0.0911,0.0563 -1.21159,-0.40119 -2.48993,-1.01668 -1.27834,-0.61548 -2.39144,-1.01036 -2.47356,-0.87749 -0.30227,0.48909 0.22606,6.72899 0.72877,8.60721 1.0105,3.77537 1.95439,4.77577 5.00752,5.30731 0.0728,0.0127 0.31089,-0.0924 0.52917,-0.23345 z m -4.13765,-6.2177 c -0.23747,-0.61882 0.0978,-1.19063 0.69806,-1.19063 0.75491,0 1.00223,0.7807 0.3893,1.22889 -0.63203,0.46215 -0.89894,0.45276 -1.08736,-0.0383 z m 27.24934,-1.12038 c 0.0955,-1.57235 0.28459,-3.24572 0.42021,-3.7186 0.13562,-0.47287 0.15279,-0.8018 0.0381,-0.73095 -0.11464,0.0709 -0.66795,-0.10544 -1.22956,-0.39177 -2.02565,-1.03273 -3.99247,-0.39368 -5.15513,1.67498 -0.71025,1.26372 -1.01486,3.97711 -0.48391,4.31055 0.63513,0.39886 2.97182,1.14959 4.0269,1.29377 0.55929,0.0764 1.21159,0.24791 1.44956,0.38109 0.23797,0.13317 0.50636,0.19659 0.59641,0.14093 0.0901,-0.0557 0.24188,-1.38766 0.33738,-2.96 z m 44.000783,1.19294 c 1.61496,-0.8838 2.48179,-3.46768 1.67135,-4.98201 -0.73421,-1.37187 -3.44146,-1.71764 -10.840083,-1.38447 l -4.6302,0.2085 -0.0215,3.04271 c -0.0118,1.67349 0.0219,3.16863 0.0749,3.32254 0.0644,0.18694 2.22349,0.27477 6.5038,0.26458 5.550353,-0.0132 6.518973,-0.0763 7.241723,-0.47185 z M 29.753967,149.7636 c -0.096,-3.72297 -0.1879,-4.5164 -0.57458,-4.96094 -0.25316,-0.29104 -0.84106,-1.09471 -1.30645,-1.78593 -0.82363,-1.22332 -0.88193,-1.25678 -2.19017,-1.25678 h -1.34403 l 0.17968,1.12448 c 0.41032,2.56796 1.52411,6.45005 2.30656,8.03942 0.74481,1.51294 2.2688,3.27152 2.83508,3.27152 0.11451,0 0.15677,-1.9943 0.0939,-4.43177 z m 33.39265,-2.96265 c 0.22995,-1.01099 0.41809,-1.96107 0.41809,-2.11129 0,-0.15021 -0.49844,-0.5274 -1.10764,-0.83819 -1.39357,-0.71095 -3.46138,-0.76113 -4.19006,-0.10168 -0.48895,0.44249 -1.70841,3.26308 -1.50062,3.47088 0.0547,0.0547 0.9221,0.20387 1.92754,0.33148 1.00544,0.12762 2.24479,0.41468 2.75411,0.63791 0.50932,0.22324 1.0058,0.41561 1.10327,0.42748 0.0975,0.0119 0.36537,-0.80559 0.59531,-1.81659 z m 44.250233,0.1408 c 1.03152,-0.62426 1.4116,-1.41566 1.4116,-2.93919 0,-0.92354 -0.12623,-1.25477 -0.59531,-1.56207 -0.32742,-0.2145 -2.38125,-0.70092 -4.56406,-1.08093 -3.55358,-0.61866 -4.363163,-0.67203 -7.739063,-0.51016 l -3.77031,0.18078 v 3.23121 c 0,1.77716 0.0493,3.28081 0.10954,3.34145 0.0602,0.0606 3.3047,0.0507 7.2099,-0.0221 6.386913,-0.119 7.184483,-0.18321 7.937703,-0.63904 z M 39.378697,145.6044 c 0.96001,-2.57714 3.52721,-4.34021 7.17714,-4.929 1.64525,-0.26541 2.03846,-0.43745 1.90541,-0.83367 -0.0713,-0.21242 1.17629,-3.00647 1.74413,-3.90598 0.75764,-1.20019 0.76737,-1.19058 -1.45734,-1.44004 -2.58586,-0.28996 -4.58702,-1.10607 -5.73157,-2.33743 -1.33134,-1.43232 -2.02533,-2.58307 -2.74615,-4.55353 -0.31939,-0.87313 -0.71546,-1.72998 -0.88014,-1.90411 -0.36013,-0.3808 -5.74099,0.21077 -8.0998,0.89049 -1.94304,0.5599 -5.01519,2.11735 -5.21772,2.64516 -0.18184,0.47384 0.28832,3.23958 0.89205,5.24762 0.99815,3.31985 3.40228,7.43278 5.38857,9.21862 1.95181,1.75485 5.91174,3.8586 6.37195,3.38515 0.09,-0.0926 0.38407,-0.76007 0.65347,-1.48328 z m -59.31271,-2.51775 c -0.17135,-0.17135 -0.2608,-0.0819 -0.2608,0.2608 0,0.3427 0.0894,0.43216 0.2608,0.26081 0.17135,-0.17135 0.17135,-0.35026 0,-0.52161 z m 84.78636,-1.36198 c 0.31044,-0.74701 0.56444,-1.59184 0.56444,-1.8774 0,-0.77517 -0.73576,-1.87381 -1.69514,-2.53118 -1.91524,-1.31235 -3.97226,-0.40148 -5.47601,2.42482 -0.62959,1.18333 -0.44868,1.52681 0.87635,1.66395 1.83658,0.19008 2.28424,0.31715 3.412,0.96847 0.63965,0.36942 1.29596,0.6802 1.45846,0.69061 0.1625,0.0104 0.54945,-0.59226 0.8599,-1.33927 z m -10.03217,-1.75065 c 0.41602,-1.15421 1.4241,-2.84146 2.22878,-3.73036 1.5801,-1.74546 4.75491,-2.40033 6.72472,-1.3871 1.28961,0.66334 2.55445,2.00116 2.29259,2.42486 -0.13038,0.21096 -0.093,0.25957 0.10526,0.13702 0.16903,-0.10447 0.37381,-0.0167 0.45506,0.19503 0.11843,0.30864 0.28069,0.26175 0.81823,-0.23643 0.36878,-0.34177 1.37303,-0.89381 2.23166,-1.22675 0.85863,-0.33294 1.56114,-0.68292 1.56114,-0.77773 0,-0.34544 -1.90341,-1.83146 -3.11862,-2.43474 -2.15739,-1.07104 -3.52348,-1.31147 -6.60357,-1.16224 -1.83786,0.089 -3.26714,0.30681 -4.03614,0.61494 -1.54231,0.618 -3.6665,1.96897 -4.47023,2.84305 -0.34857,0.37908 -0.75392,0.61498 -0.90078,0.52422 -0.14685,-0.0907 -0.19228,-0.0441 -0.10096,0.10365 0.0913,0.14776 -0.2471,1.08889 -0.75205,2.0914 -0.50496,1.00251 -0.91847,1.95495 -0.91891,2.11655 -6.8e-4,0.24263 2.00096,0.70582 3.71634,0.85998 0.24982,0.0224 0.54951,-0.3506 0.76748,-0.95535 z m 26.43854,0.0331 c 0.72715,-0.14543 0.82682,-0.27144 0.82682,-1.04531 0,-0.48397 0.13069,-1.48933 0.29042,-2.23414 0.15974,-0.74481 0.23761,-1.40701 0.17306,-1.47157 -0.10795,-0.10795 -5.22547,1.65268 -5.44666,1.87387 -0.0535,0.0535 0.21234,0.50335 0.59083,0.99959 0.3785,0.49624 0.68818,1.07953 0.68818,1.2962 0,0.21667 0.0794,0.47332 0.17639,0.57034 0.2221,0.22209 1.61711,0.22779 2.70096,0.011 z m 14.78537,-0.78095 c -0.55456,-0.55456 -3.79427,-2.40685 -3.90273,-2.23137 -0.0775,0.12538 -0.10023,0.74282 -0.0505,1.3721 l 0.0904,1.14413 1.98605,-0.0878 c 1.09232,-0.0483 1.93691,-0.13696 1.87686,-0.19702 z m -71.03334,-0.83962 c 0.18022,-0.336 -1.2951,-5.47398 -1.48403,-5.16829 -0.20566,0.33276 -0.20625,2.99126 -9.3e-4,4.228 0.12281,0.73977 0.37075,0.96954 1.1957,1.10803 0.10055,0.0169 0.23072,-0.0586 0.28926,-0.16774 z m 91.735203,-0.89103 c 6.25553,-0.84168 10.7487,-3.04615 14.84204,-7.28191 2.32086,-2.40162 3.24753,-3.7781 4.16094,-6.18071 0.59396,-1.56233 0.66844,-2.22849 0.81344,-7.27604 0.0878,-3.05594 0.15962,-8.5403 0.15962,-12.18748 0,-6.581337 -0.005,-6.638293 -0.64065,-7.568949 -0.35236,-0.515742 -0.96898,-1.158379 -1.37027,-1.428083 -0.40129,-0.269703 -0.66015,-0.602777 -0.57524,-0.740163 0.0849,-0.137386 0.0194,-0.16636 -0.14561,-0.06439 -0.165,0.101974 -0.54143,0.0562 -0.83651,-0.101727 -0.39916,-0.213624 -1.05522,-0.179995 -2.56256,0.131355 -1.11432,0.23017 -2.1439,0.491333 -2.28796,0.580363 -0.15417,0.09528 -0.17754,0.02535 -0.0568,-0.169987 0.16159,-0.26147 0.084,-0.267032 -0.36599,-0.02622 -0.7047,0.377142 -1.60944,0.123828 -1.60944,-0.45062 0,-0.706972 2.33832,-2.658557 3.87367,-3.233004 1.1128,-0.416354 2.0786,-0.539009 4.2722,-0.542564 4.96954,-0.0081 8.06664,-1.043684 10.12945,-3.387154 2.63017,-2.988031 3.06115,-8.385172 0.9812,-12.287551 -1.03567,-1.94312 -3.15885,-4.011445 -4.98757,-4.858702 -2.04141,-0.945798 -2.27006,-1.442896 -1.16977,-2.543178 0.46051,-0.460519 1.08837,-0.719758 2.05052,-0.846653 1.99562,-0.263197 5.10069,-1.362444 6.42788,-2.275575 4.19547,-2.886558 5.80918,-8.836708 3.60378,-13.288016 -0.99767,-2.013654 -2.61237,-3.714041 -4.39683,-4.630166 -1.04267,-0.535296 -1.8336,-0.711172 -3.58661,-0.797537 -3.733,-0.183913 -6.09445,1.054818 -7.57295,3.972496 -0.58244,1.149397 -0.66485,1.592027 -0.55091,2.959 0.0737,0.884083 0.21522,1.860155 0.31451,2.169049 0.16531,0.514273 0.0203,0.597817 -1.72025,0.990877 -4.93902,1.115372 -8.37214,4.442501 -9.41671,9.126002 -0.67399,3.021913 -0.19205,5.627602 1.54013,8.326972 0.67131,1.046145 1.14922,1.442042 2.43978,2.021098 0.88272,0.396063 1.75582,0.90194 1.94024,1.124171 0.41766,0.50332 0.16725,1.229595 -0.42282,1.226317 -2.59063,-0.01439 -5.90682,1.238633 -7.58084,2.864415 -3.02637,2.939172 -3.34214,8.501914 -0.65862,11.602479 0.58166,0.672051 0.9821,1.344007 0.88987,1.493235 -0.24424,0.395181 -1.5542,0.06416 -3.50285,-0.885158 l -1.70441,-0.830336 -8.2299,0.165275 c -13.877453,0.278692 -20.277103,1.46153 -23.274343,4.301769 -1.2106,1.147182 -1.48571,2.165013 -1.58422,5.86105 -0.14669,5.50393 0.26112,16.13165 0.70331,18.32833 1.01868,5.06061 3.84265,9.19481 8.51702,12.46864 5.58421,3.91106 13.916383,5.41149 23.151043,4.16898 z m -12.12089,-34.37617 c -2.22811,-0.11214 -4.37124,-0.29402 -4.762503,-0.40419 -0.39127,-0.11017 -0.81453,-0.17617 -0.94058,-0.14666 -0.3799,0.0889 -4.63342,-0.7597 -5.40349,-1.07807 -0.39453,-0.16311 -0.84505,-0.27709 -1.00116,-0.2533 -0.52975,0.0807 -1.43319,-1.12306 -1.16325,-1.549984 0.20329,-0.321512 0.24983,-0.296765 0.25646,0.136381 0.004,0.291043 0.0956,0.410103 0.20249,0.264583 0.24625,-0.335183 0.94685,-0.493603 0.74605,-0.168696 -0.0893,0.144506 6.61505,0.226726 16.715233,0.204996 17.64977,-0.038 18.04915,-0.0639 18.05903,-1.170088 0.003,-0.357102 0.0527,-0.376914 0.23255,-0.09304 0.16724,0.263967 0.25688,0.275545 0.33434,0.04318 0.0723,-0.216902 0.417,-0.259107 1.08804,-0.133219 0.54022,0.101346 0.9167,0.290273 0.83663,0.419837 -0.19456,0.314809 0.0697,0.297266 0.71369,-0.04737 0.3849,-0.20599 0.63203,-0.197179 0.90865,0.0324 2.95218,2.45009 -12.20751,4.67878 -26.82218,3.94325 z m 26.54068,-3.163531 c -0.0899,-0.145521 -0.30532,-0.26276 -0.47863,-0.260532 -0.18934,0.0024 -0.15671,0.106423 0.0818,0.260532 0.5083,0.328491 0.59989,0.328491 0.39687,0 z m 0.26459,-0.529167 c -0.0899,-0.145521 -0.30532,-0.26276 -0.47864,-0.260532 -0.18934,0.0024 -0.1567,0.106423 0.0818,0.260532 0.5083,0.328487 0.59989,0.328487 0.39688,0 z M -20.222173,133.0541 c 0.0597,-2.19638 0.21734,-3.85569 0.3757,-3.95512 0.15005,-0.0942 0.53668,-1.06426 0.85919,-2.15566 0.32251,-1.09141 0.67306,-2.10344 0.77901,-2.24896 0.10594,-0.14552 0.35267,-0.6813 0.54828,-1.19062 0.40386,-1.05154 2.6223,-5.09053 2.90649,-5.29167 0.26755,-0.18937 0.79529,-1.23577 0.79529,-1.5769 0,-0.18952 -0.25007,-0.16242 -0.7276,0.0789 -0.40018,0.2022 -1.53735,0.6337 -2.52703,0.95889 -2.04875,0.67318 -2.69124,1.39867 -3.65613,4.12839 -1.02951,2.91252 -1.29132,4.36307 -1.29132,7.15446 0,2.83038 0.44941,6.4542 0.80043,6.4542 0.10654,0 0.34324,0.36101 0.526,0.80224 0.18276,0.44123 0.37201,0.76252 0.42055,0.71398 0.0485,-0.0485 0.13456,-1.79099 0.19114,-3.8721 z m 103.16162,-1.45428 c 1.1245,-0.54093 2.09958,-1.07257 2.16686,-1.18142 0.12053,-0.19502 -1.89786,-3.78092 -2.4247,-4.30776 -0.18455,-0.18455 -0.80665,0.0179 -1.95474,0.63619 -2.01562,1.08547 -4.67865,2.10953 -4.98821,1.91821 -0.12238,-0.0756 -0.26244,-0.0183 -0.31125,0.12738 -0.0488,0.1457 -0.92741,0.49725 -1.95245,0.78122 -1.02504,0.28397 -2.20338,0.64546 -2.61853,0.8033 l -0.75482,0.28698 1.16332,0.73837 c 0.63982,0.40611 1.68598,1.27589 2.32479,1.93285 l 1.16148,1.19448 3.07186,-0.97315 c 1.68952,-0.53523 3.9919,-1.41572 5.11639,-1.95665 z m -30.09226,-0.0622 c 0.23803,-0.23803 0.33583,-0.5244 0.21734,-0.63638 -0.1185,-0.11197 -1.34654,-0.50294 -2.72899,-0.8688 -1.38245,-0.36587 -2.87073,-0.81217 -3.30729,-0.99178 -0.43656,-0.17961 -0.94806,-0.35807 -1.13666,-0.39658 -0.1886,-0.0385 -0.81368,-0.30293 -1.38906,-0.58761 -1.29296,-0.63971 -1.36752,-0.32 -0.35795,1.5349 0.99829,1.83419 2.17708,2.29759 5.97362,2.34834 1.80231,0.0241 2.3893,-0.0624 2.72899,-0.40209 z m 5.8118,-2.82855 1.57657,-0.32783 -0.0761,-2.40245 c -0.0711,-2.24723 -0.0403,-2.41179 0.47741,-2.54717 0.7917,-0.20704 1.0757,0.50183 1.0757,2.68494 0,1.01962 0.10936,1.92145 0.24301,2.00405 0.13366,0.0826 1.2518,0.32611 2.48477,0.54112 1.72451,0.30073 2.59942,0.32752 3.79189,0.11611 2.38461,-0.42276 3.27028,-0.76429 3.26685,-1.25973 -0.005,-0.67273 -1.25973,-7.40721 -1.43256,-7.68685 -0.0876,-0.14177 -0.84821,-0.0379 -1.80528,0.24651 -0.90964,0.27033 -2.42779,0.61507 -3.37368,0.76611 -2.6088,0.41656 -8.26783,0.34032 -10.84791,-0.14616 -1.23693,-0.23322 -2.57501,-0.4845 -2.97352,-0.55839 -0.47276,-0.0877 -0.76582,-0.009 -0.84329,0.22597 -0.0653,0.19817 -0.16474,1.94882 -0.22096,3.89033 l -0.10222,3.53003 0.68093,0.26491 c 2.40558,0.93589 5.52247,1.18996 8.07834,0.6585 z m -4.72112,-0.93834 c -0.65854,-0.72769 -0.15682,-1.6882 0.82055,-1.57087 0.88619,0.10638 1.36975,0.83769 0.9727,1.47106 -0.41342,0.65951 -1.24484,0.70578 -1.79325,0.0998 z m 11.09912,0.14383 c -0.39856,-0.29143 -0.42829,-0.45007 -0.17356,-0.92604 0.33902,-0.63347 1.55376,-0.79105 2.07556,-0.26925 0.4165,0.4165 -0.0994,1.37732 -0.63019,1.17364 -0.21946,-0.0842 -0.31957,-0.0353 -0.22868,0.11177 0.23597,0.38181 -0.48264,0.31972 -1.04313,-0.0901 z m -40.80129,-0.17173 c 1.69162,-1.27718 4.74343,-2.71742 6.98821,-3.29794 0.91199,-0.23585 2.99558,-0.55247 4.63021,-0.7036 1.63462,-0.15113 3.05044,-0.3557 3.14626,-0.4546 0.0958,-0.0989 -0.0416,-1.01327 -0.30526,-2.03191 -0.26371,-1.01865 -0.5207,-2.02453 -0.57109,-2.23529 -0.1966,-0.82232 -1.47815,-1.57538 -3.23043,-1.89825 -3.41286,-0.62885 -9.8262,0.71217 -12.25101,2.56165 -1.05943,0.80807 -1.93794,2.11914 -1.93939,2.89431 -10e-4,0.58864 1.82461,6.2182 2.01661,6.2182 0.067,0 0.74912,-0.47365 1.51589,-1.05257 z m -0.11231,-3.8644 c -0.63912,-0.77009 0.68134,-2.09055 1.45143,-1.45143 0.57269,0.47528 0.52682,1.26502 -0.0927,1.59659 -0.69664,0.37283 -0.95141,0.34561 -1.35871,-0.14516 z m 9.80908,-2.09316 c -0.26454,-0.31876 -0.24396,-0.52423 0.106,-1.05834 0.52234,-0.79718 1.3557,-0.861 1.74499,-0.13361 0.62035,1.15915 -1.00797,2.20772 -1.85099,1.19195 z m 14.41673,4.03357 c 0.0926,-0.76398 0.19049,-2.4989 0.21748,-3.85536 l 0.0491,-2.4663 -1.71979,-0.61451 c -2.12868,-0.76062 -4.52489,-2.03029 -6.06269,-3.21241 -1.90034,-1.4608 -2.02747,-1.18862 -0.81648,1.74806 0.43656,1.05867 0.79423,2.11685 0.79482,2.35149 0.003,1.16026 0.98545,3.09121 1.86259,3.66046 1.44733,0.93928 1.59007,1.1156 1.42752,1.76325 -0.17309,0.68963 0.52341,1.27553 2.03214,1.70943 1.85305,0.53293 2.02978,0.44645 2.21534,-1.08411 z m 27.46083,0.84038 c 1.79716,-0.59933 5.05856,-2.12964 5.84434,-2.74228 0.47334,-0.36904 0.47633,-0.46416 0.0686,-2.18546 -0.34307,-1.44849 -0.94577,-6.18682 -0.96445,-7.58234 -0.002,-0.16648 -0.11093,-0.47156 -0.24157,-0.67795 -0.18697,-0.2954 -0.60129,-0.0419 -1.94694,1.19112 -1.49813,1.37276 -5.84316,4.07893 -6.54915,4.07893 -0.35655,0 -0.31646,0.86589 0.12073,2.60764 0.34873,1.38928 0.84341,5.21194 0.73253,5.66058 -0.0905,0.36622 1.27647,0.20314 2.93586,-0.35024 z m 2.30676,-2.49403 c 0,-0.21828 -0.14883,-0.40083 -0.33073,-0.40567 -0.1819,-0.005 -0.0474,-0.24476 0.29882,-0.53316 0.48936,-0.40759 0.71164,-0.45621 0.99824,-0.21835 0.29473,0.2446 0.33527,0.21886 0.20204,-0.12831 -0.18302,-0.47696 0.0833,-0.55505 0.65612,-0.19237 0.21057,0.13333 0.29666,0.4231 0.20031,0.67418 -0.0929,0.24219 -0.28888,0.36624 -0.43543,0.27567 -0.14655,-0.0906 -0.26645,-0.0518 -0.26645,0.0861 0,0.13794 -0.20836,0.23426 -0.46303,0.21405 -0.25466,-0.0202 -0.43325,0.11208 -0.39687,0.29398 0.0364,0.1819 -0.0529,0.33073 -0.19844,0.33073 -0.14552,0 -0.26458,-0.1786 -0.26458,-0.39688 z m 0.79375,-0.82205 c 0,-0.0572 -0.17859,-0.10399 -0.39688,-0.10399 -0.21828,0 -0.39687,0.11533 -0.39687,0.25628 0,0.14096 0.17859,0.18775 0.39687,0.10399 0.21829,-0.0838 0.39688,-0.19909 0.39688,-0.25628 z m 61.929183,2.77619 c 2.45363,-1.30777 4.74405,-3.77451 6.17403,-6.6493 1.63007,-3.27706 2.09766,-5.24517 1.96184,-8.25749 -0.13199,-2.92757 -0.90778,-4.81963 -2.71871,-6.63055 -1.49836,-1.49837 -2.5934,-1.98034 -4.4993,-1.98034 h -1.46371 l -0.0216,1.38907 c -0.25753,16.57434 -0.52153,20.3372 -1.55731,22.19647 -0.24826,0.44565 -0.1131,0.75613 0.32918,0.75613 0.13728,0 0.94528,-0.3708 1.79556,-0.82399 z m -74.085003,-8.53572 c 4.50076,-1.08372 9.02856,-3.636 10.97677,-6.18749 1.08227,-1.41741 1.1899,-2.0418 0.31406,-1.82198 -0.33022,0.0829 -1.78873,0.33752 -3.24114,0.56586 -3.51144,0.55205 -3.31825,0.44262 -2.89192,1.63802 0.19813,0.55555 0.36547,1.33751 0.37185,1.7377 0.009,0.58941 -0.10577,0.7276 -0.60646,0.7276 -0.53158,0 -0.6813,-0.22739 -1.06979,-1.62469 l -0.4517,-1.62469 -1.6422,0.16164 c -0.9032,0.0889 -2.92859,0.28725 -4.50085,0.44078 -1.57227,0.15353 -2.97745,0.20574 -3.12263,0.11601 -0.17352,-0.10724 -0.2004,0.7598 -0.0785,2.53039 l 0.18552,2.69353 -0.63476,-0.0897 c -0.66471,-0.094 -0.78065,-0.45947 -1.17007,-3.68863 l -0.14684,-1.21765 -3.2308,-0.17673 c -1.77694,-0.0972 -3.97494,-0.2503 -4.88445,-0.34023 l -1.65364,-0.16351 -0.004,0.89643 c -0.006,1.52838 -0.26683,2.12383 -0.89077,2.0348 -0.50494,-0.0721 -0.55425,-0.2287 -0.49487,-1.57198 l 0.066,-1.49194 -0.8597,-0.14726 c -0.47283,-0.081 -1.69314,-0.22402 -2.71178,-0.31784 -1.01865,-0.0938 -2.91594,-0.33623 -4.21621,-0.53868 -1.30027,-0.20246 -2.42072,-0.31152 -2.48987,-0.24236 -0.35808,0.35807 3.12652,3.05754 5.32651,4.12637 0.67165,0.32631 1.14912,0.70988 1.06105,0.85238 -0.0881,0.14249 -0.0267,0.17665 0.13627,0.0759 0.16301,-0.10075 0.74696,0.0466 1.29765,0.32743 2.52887,1.28962 7.6032,2.59769 11.24982,2.89999 2.84853,0.23614 7.81395,-0.0514 10.00708,-0.57946 z m -39.8348,-1.95693 c 1.67099,-0.47761 7.11065,-0.64177 8.79739,-0.2655 0.77936,0.17386 0.8599,0.13398 0.8599,-0.42585 0,-0.90903 -1.51056,-3.68033 -2.65553,-4.87191 -0.81282,-0.8459 -1.24211,-1.06926 -2.33336,-1.21402 -0.7355,-0.0976 -1.83386,-0.3526 -2.44079,-0.56674 -1.77799,-0.62731 -2.50311,-0.51746 -3.10628,0.47056 -0.6811,1.11566 -1.64054,4.38078 -1.8318,6.23388 -0.1485,1.43888 -0.14271,1.45405 0.48634,1.27476 0.35014,-0.0998 1.351,-0.38563 2.22413,-0.63518 z M 9.7548568,113.2453 c 1.4276402,-0.74087 2.3266502,-1.84128 2.8900302,-3.53745 0.41371,-1.24557 0.44504,-2.46651 0.32849,-12.801184 -0.0709,-6.283359 -0.21392,-11.561959 -0.31792,-11.730222 -0.13599,-0.220051 -0.30761,-0.187396 -0.61133,0.116325 -0.67018,0.670176 -2.2356602,1.588844 -3.3066102,1.940406 l -0.98448,0.323177 0.16584,8.911713 c 0.15037,8.080895 0.12379,8.992965 -0.28514,9.783305 -0.91507,1.76858 -3.16281,2.41329 -4.84268,1.38901 -1.59169,-0.97052 -1.77756,-1.54659 -1.96211997,-6.08103 -0.0922,-2.264391 -0.18276,-4.135191 -0.20132,-4.157336 -0.0186,-0.02214 -0.38211,-0.161705 -0.8079,-0.310135 -1.39193003,-0.485229 -1.56607003,-1.087226 -1.63943003,-5.667247 -0.0367,-2.291058 -0.13373,-4.256267 -0.21563,-4.36713 -0.0819,-0.110862 -0.60727,-0.543431 -1.16749,-0.961264 l -1.01858,-0.759695 0.12183,11.212242 c 0.0821,7.555265 0.2236,11.533675 0.43386,12.197745 0.56347,1.77964 1.8673,3.16574 4.00375003,4.25637 l 1.97563997,1.00854 3.175,-0.0999 c 2.59774,-0.0818 3.37339,-0.20289 4.26619,-0.66621 z m 58.3077602,-5.74668 c 4.82352,-0.43317 10.91771,-1.29583 11.9637,-1.69351 0.66706,-0.25362 0.6751,-0.29218 0.78822,-3.78036 0.1452,-4.477566 0.58441,-5.613949 3.04651,-7.882445 1.31673,-1.213185 2.19805,-1.762279 3.85276,-2.400405 1.88239,-0.725924 5.93768,-1.756724 7.07173,-1.797534 0.21828,-0.0079 2.00422,-0.19826 3.96875,-0.423121 1.964533,-0.224861 5.655473,-0.476963 8.202083,-0.560227 2.54662,-0.08326 4.87159,-0.198954 5.16661,-0.25709 0.43474,-0.08567 0.63001,-0.520335 1.03035,-2.293591 0.42684,-1.890661 0.47281,-2.889438 0.33837,-7.351933 -0.0856,-2.840223 -0.27975,-6.414198 -0.43153,-7.942167 -0.15177,-1.527969 -0.46143,-5.099843 -0.68812,-7.9375 -0.2267,-2.837656 -0.4973,-5.754687 -0.60134,-6.482291 l -0.18916,-1.322916 -3.62465,-0.132292 c -4.59247,-0.167614 -4.25171,0.159573 -4.96005,-4.7625 -0.15707,-1.091406 -0.29869,-2.61839 -0.31471,-3.393298 -0.0244,-1.181392 -0.12052,-1.44367 -0.59503,-1.624077 -0.60772,-0.231055 -10.746443,-0.960093 -17.884903,-1.286037 -8.21776,-0.375225 -23.02976,-0.342944 -32.83267,0.07156 -10.03516,0.42432 -12.29666,0.579083 -21.40691,1.464953 -7.86784,0.76506 -9.54867,0.980569 -9.82823,1.260135 -0.15668,0.156673 -0.14923,1.867906 0.02,4.590262 0.14838,2.387256 0.35053,6.742434 0.44923,9.678173 0.19423,5.777229 0.0961,6.432315 -1.16999,7.810977 l -0.65503,0.713269 0.4257,1.694715 c 0.89459,3.561373 0.80458,6.991671 -0.27216,10.372497 -0.44705,1.403692 -1.83319,3.688268 -2.73051,4.500337 -0.51404,0.465194 -0.53824,0.770818 -0.5163,6.520484 l 0.023,6.032413 0.711,0.502386 c 1.17828,0.832563 4.80223,2.560793 7.1933,3.430433 6.53969,2.3785 13.82355,3.7918 24.60624,4.77441 4.20569,0.38325 15.1057,0.33178 19.84375,-0.0937 z m 4.29221,-14.304679 c -0.32342,-0.226533 -0.58804,-0.64744 -0.58804,-0.93535 0,-0.74815 0.80736,-1.879162 1.22659,-1.718291 0.19501,0.07483 0.32664,0.05105 0.29251,-0.05286 -0.0341,-0.103903 0.25836,-0.608228 0.64998,-1.120721 0.94447,-1.23599 1.34047,-3.025942 0.96793,-4.375165 -0.27376,-0.991473 -1.04869,-1.886258 -3.21995,-3.717974 -1.0457,-0.882174 -1.23238,-1.660483 -0.55962,-2.333239 0.46507,-0.465066 1.84418,-0.561501 2.10044,-0.146875 0.0914,0.147895 0.25858,0.211794 0.37151,0.141999 0.11293,-0.06979 0.90233,0.434611 1.75421,1.120903 2.14063,1.724526 3.03098,3.462138 3.03098,5.915243 0,2.803541 -0.93551,4.571587 -3.48543,6.587182 -1.47838,1.16859 -1.70032,1.224062 -2.54111,0.635145 z m -20.4335,-14.916582 c -3.85058,-1.171292 -6.01722,-6.005549 -5.03194,-11.227339 0.34548,-1.831006 1.7874,-4.583511 2.33985,-4.466595 0.1719,0.03638 0.28279,-0.07873 0.2464,-0.255792 -0.098,-0.477134 1.63789,-1.264679 2.78867,-1.265151 1.22672,-5.03e-4 2.90605,0.823344 3.95886,1.942135 1.89778,2.016714 2.93571,6.143118 2.34779,9.333882 -0.46165,2.50545 -1.98897,5.157433 -2.71266,4.710166 -0.19815,-0.122464 -0.24258,-0.07965 -0.12119,0.116765 0.12296,0.198949 -0.21806,0.49606 -0.95131,0.828819 -1.21319,0.550568 -1.79589,0.608159 -2.86447,0.28311 z m 36.44367,-1.11851 c -0.99155,-0.214249 -2.2767,-0.898056 -2.62631,-1.397419 -0.10081,-0.144001 -0.0413,-0.444408 0.1323,-0.667569 0.2722,-0.349965 0.25548,-0.358772 -0.12161,-0.06405 -0.37426,0.292509 -0.51283,0.235381 -0.96263,-0.396875 -1.70691,-2.399285 -1.8354,-8.025911 -0.25251,-11.057319 1.15926,-2.220096 3.68472,-3.204108 5.8154,-2.26589 1.4382,0.633296 2.41878,1.709172 3.28776,3.607266 0.92703,2.024901 1.14768,5.411006 0.49973,7.669055 -0.53387,1.860529 -1.11326,2.850634 -1.52076,2.598786 -0.1628,-0.100616 -0.22025,-0.06253 -0.12882,0.0854 0.15464,0.250221 -0.58682,1.083755 -1.34865,1.516128 -0.76093,0.431863 -1.83292,0.575813 -2.7739,0.372491 z m -2.47026,-13.936014 c 0.075,-0.121268 -0.0318,-0.220486 -0.23733,-0.220486 -0.20547,0 -0.31227,0.09922 -0.23733,0.220486 0.075,0.121267 0.18175,0.220486 0.23733,0.220486 0.0556,0 0.16239,-0.09922 0.23733,-0.220486 z m -38.33732,-7.626837 c -1.74917,-0.08285 -2.19706,-0.196351 -2.57969,-0.653698 -0.61744,-0.738006 -0.58652,-1.958816 0.0661,-2.611479 0.48051,-0.480507 0.88195,-0.529166 4.36563,-0.529166 3.48368,0 3.88512,0.04866 4.36562,0.529166 0.65266,0.652653 0.68327,1.86857 0.0661,2.627363 -0.51867,0.63774 -2.35356,0.823982 -6.28385,0.637814 z m 39.15833,-0.137489 c -0.74179,-0.401209 -1.44236,-1.317792 -1.44933,-1.896219 -0.003,-0.268577 0.24035,-0.834124 0.5413,-1.256771 0.53004,-0.744364 0.61503,-0.767842 2.71198,-0.749132 4.58146,0.04088 6.00125,0.594644 6.00125,2.340676 0,1.413528 -0.37124,1.574104 -3.96874,1.716628 -2.11759,0.08389 -3.49765,0.02807 -3.83646,-0.155182 z m 61.427423,47.816241 c 0,-0.21188 -0.10116,-0.32272 -0.2248,-0.2463 -0.12364,0.0764 -0.1563,0.24977 -0.0726,0.38523 0.21395,0.34618 0.29738,0.3072 0.29738,-0.13893 z m -190.785943,-2.72362 c 0.62775,-1.586452 3.85421,-7.845552 4.19393,-8.135936 0.17025,-0.145521 0.71297,-0.859896 1.20604,-1.5875 0.49308,-0.727604 0.99273,-1.362604 1.11034,-1.411111 0.11761,-0.04851 0.21384,-0.227451 0.21384,-0.397654 0,-0.536637 4.54359,-5.410024 7.35011,-7.88361 0.59976,-0.528619 1.01697,-1.034635 0.92713,-1.124479 -0.0898,-0.08984 -1.30596,-0.163353 -2.70247,-0.163353 -2.47114,0 -2.57653,0.02519 -3.93616,0.94082 -2.90841,1.958635 -7.45944,7.231516 -7.45944,8.642593 0,0.278048 0.11075,0.712488 0.24612,0.965424 0.36553,0.683005 -0.0689,1.19468 -0.84822,0.999079 -0.70166,-0.176107 -0.84835,0.04274 -1.48155,2.210416 -0.28819,0.986567 -0.39023,6.859081 -0.13093,7.534821 0.27411,0.71431 0.90814,0.42926 1.31126,-0.58951 z m 47.9991498,-10.105022 0.13229,-4.350335 1.45521,-0.43508 c 2.17269,-0.649594 3.5425102,-1.439191 4.5610102,-2.629081 0.50254,-0.587102 1.04436,-1.067459 1.20405,-1.067459 0.44498,0 1.1141,1.097978 1.1141,1.828164 v 0.652088 l 0.76569,-0.733571 c 1.65775,-1.588229 2.648,-5.914795 2.16877,-9.475735 -0.99296,-7.378286 -7.5242902,-12.087196 -14.9985802,-10.813574 -3.90692,0.665741 -7.14439,3.030457 -8.76939,6.405355 -1.09339,2.270803 -1.47722,4.432582 -1.34192,7.557801 0.11591,2.677207 0.58105,4.163222 1.76172,5.628296 0.47586,0.590485 0.58715,0.618898 1.18044,0.301377 0.60391,-0.323203 0.78023,-0.262294 2.25842,0.780154 1.34515,0.948624 1.66881,1.076417 2.0097,0.793502 0.22348003,-0.185473 0.58337003,-0.26929 0.79974003,-0.186258 0.3298,0.126554 0.38751,0.91561 0.35688,4.87949 -0.0201,2.600688 0.0522,4.872132 0.1607,5.047652 0.1366,0.221028 0.94292997,0.295831 2.62304997,0.243339 l 2.42582,-0.07579 z m -3.73119,-12.526284 c -2.56393997,-1.72469 -2.32606997,-5.47235 0.43209,-6.807554 3.55528,-1.721081 7.03855,1.880954 5.11999,5.294565 -1.11604,1.985731 -3.77294,2.709759 -5.55208,1.512989 z m 7.59173,-3.325025 c -0.0767,-0.124082 0.0147,-0.43633 0.20299,-0.693883 0.44173,-0.604111 1.4927202,-0.316743 1.4927202,0.408151 0,0.389483 -0.18544,0.511337 -0.77814,0.511337 -0.4279702,0 -0.8408802,-0.101522 -0.9175702,-0.225605 z m 1.0948802,-0.198831 c -0.0879,-0.08792 -0.3161202,-0.09732 -0.5071202,-0.02089 -0.21106,0.08446 -0.14837,0.147156 0.15986,0.159852 0.2789102,0.01149 0.4351802,-0.05105 0.3472602,-0.138964 z M -3.1074932,74.162315 c -0.47144,-0.568044 -0.1224,-1.247831 0.58863,-1.146406 0.6781,0.09673 0.96234,0.966323 0.42679,1.305718 -0.49602,0.31434 -0.64124,0.291557 -1.01542,-0.159312 z m -33.4838898,5.968037 c 0.0837,-0.135465 0.0511,-0.308822 -0.0726,-0.385236 -0.12364,-0.07641 -0.2248,0.03442 -0.2248,0.246301 0,0.446132 0.0834,0.485111 0.29738,0.138935 z m 34.9362998,-23.25116 c 1.17512003,-0.228782 1.19528003,-0.310737 0.82607003,-3.357746 -0.0882,-0.727604 -0.23799003,-2.355737 -0.33295003,-3.618074 -0.095,-1.262337 -0.25196,-2.42348 -0.34889,-2.580317 -0.12385,-0.200389 -0.56475,-0.177189 -1.48315,0.07804 -0.7188,0.199761 -2.29501,0.57804 -3.50269,0.84062 -1.20768,0.26258 -2.25035,0.56572 -2.31705,0.673644 -0.0667,0.107924 0.0531,2.019744 0.2662,4.248489 0.28819,3.014021 0.49216,4.128812 0.79607,4.351038 0.39104,0.285939 2.4828,0.06782 6.09639,-0.635697 z M -42.199373,54.999204 c 0.12787,-0.953366 1.23465,-3.565637 1.90759,-4.502388 0.85017,-1.183469 3.93582,-3.979559 5.23701,-4.745564 0.83246,-0.490066 3.04835,-1.516255 4.92421,-2.28042 3.78322,-1.541167 4.00152,-1.650066 4.00152,-1.996151 0,-0.260226 -1.9642,-0.88434 -4.10104,-1.303081 -0.7276,-0.142584 -1.62057,-0.323286 -1.98438,-0.40156 -2.58963,-0.557178 -3.263,-0.490677 -4.93114,0.486993 -3.17514,1.860902 -5.06746,4.479744 -6.0922,8.43119 -0.40516,1.562326 -0.42339,2.086707 -0.14831,4.2647 0.3387,2.681626 0.53077,3.413447 0.84493,3.219287 0.11063,-0.06838 0.26445,-0.596229 0.34181,-1.173006 z m -0.47701,-0.833902 c -0.0959,-0.155203 -0.11765,-0.338932 -0.0483,-0.408286 0.0694,-0.06936 0.19661,0.05763 0.28278,0.282186 0.1789,0.466224 0.0264,0.548232 -0.23448,0.1261 z m 46.2107098,1.856293 c 1.41714,-0.276409 2.28968,-0.427347 3.80642,-0.658465 6.3560502,-0.968518 9.3129902,-1.578434 9.8621902,-2.034235 0.2489,-0.206564 0.30887,-0.703506 0.20556,-1.703201 -0.49033,-4.744624 -0.37171,-4.321956 -1.21294,-4.321956 -1.61144,0 -1.98438,-0.98604 -2.27938,-6.026675 -0.20411,-3.487622 -0.016,-4.053744 1.55576,-4.682644 2.12453,-0.850071 16.02139,-2.592266 23.21535,-2.910417 l 3.03612,-0.134272 -0.0853,-2.052683 c -0.0469,-1.128976 -0.14258,-2.145689 -0.21256,-2.259363 -0.37364,-0.606869 -15.24372,0.826207 -26.11651,2.516928 l -3.67338,0.571212 -0.60914,-0.708169 c -0.36536,-0.424755 -0.67175,-1.213118 -0.76558,-1.969896 -0.0861,-0.69395 -0.3410102,-2.294155 -0.5665802,-3.55601 -0.44475,-2.487936 -0.34106,-3.005475 0.7445102,-3.71599 0.95837,-0.62726 4.10299,-1.410198 7.74981,-1.929519 0.43656,-0.06217 1.56765,-0.239585 2.51354,-0.394259 4.19573,-0.686099 9.81788,-1.345141 15.03658,-1.762626 l 5.64386,-0.451497 0.52105,-1.108487 c 0.74321,-1.581101 1.57298,-2.250053 3.60543,-2.906644 1.61946,-0.523173 1.79005,-0.646636 1.85263,-1.340838 0.12121,-1.344545 -0.2176,-1.548806 -2.45818,-1.481993 -2.62422,0.07825 -10.76018,0.997987 -14.80866,1.674053 -2.9082,0.485647 -5.97231,1.124908 -11.24479,2.345988 -5.81474,1.346661 -17.7026202,5.075344 -19.69203017,6.17648 -1.33607003,0.739521 -1.40068003,1.009794 -0.38482003,1.609878 2.32193,1.371594 3.96279,3.765729 5.03212,7.342221 0.50815,1.699564 0.58945,2.667508 0.652,7.762514 0.0393,3.201459 0.0791,5.897474 0.0883,5.991146 0.009,0.09367 0.46337,0.07263 1.00907,-0.04675 0.90293,-0.197537 2.6855,-0.345469 3.39192,-0.28149 0.26237,0.02376 0.6984,2.289431 1.04875,5.449594 0.0807,0.727604 0.2063602,1.70987 0.2793102,2.182812 0.10052,0.651642 0.0351,0.859896 -0.27012,0.859896 -0.7789602,0 -1.2040202,-1.165847 -1.3574502,-3.723167 -0.2289,-3.815365 -0.15509,-3.658945 -1.59917,-3.389162 -2.61585,0.488694 -6.57910997,1.594712 -6.75932997,1.886311 -0.10412,0.168468 -0.13848,0.609569 -0.0764,0.980224 0.0621,0.370656 0.30454,2.340794 0.5387,4.378086 0.23417,2.037291 0.48021997,3.793463 0.54677997,3.902604 0.16118,0.264298 0.54332,0.250707 2.23649,-0.07954 z m 104.3480832,-2.601102 0.79375,-0.170636 -0.60362,-0.424106 c -0.78469,-0.551318 -1.05295,-1.550595 -1.14022,-4.24741 -0.0392,-1.210354 -0.12205,-2.349472 -0.18418,-2.531373 -0.0652,-0.191042 -0.56245,-0.33073 -1.17717,-0.33073 h -1.0642 l 0.16076,1.521354 c 0.0884,0.836745 0.23861,2.473855 0.33377,3.638021 0.0952,1.164167 0.2909,2.265495 0.43498,2.447396 0.27581,0.3482 1.12285,0.381957 2.44613,0.09748 z m 4.13159,-8.407924 c -0.91599,-20.617429 -1.16558,-24.614282 -1.56186,-25.010561 -0.92283,-0.922832 -21.280743,-6.704456 -28.717833,-8.155831 -0.7818,-0.152572 -1.04696,-0.108303 -1.16303,0.19417 -0.20808,0.542233 0.29081,0.787541 2.01793,0.992235 2.82759,0.335118 6.73523,1.433115 7.8307,2.200329 1.19696,0.838282 2.14478,2.378302 2.60078,4.225721 l 0.30964,1.254483 1.85208,0.289877 c 3.99002,0.624495 11.321373,2.261638 11.938403,2.66593 0.35794,0.234533 0.76164,0.633522 0.8971,0.886644 0.13547,0.253121 0.3157,2.230557 0.40051,4.394301 0.20595,5.254057 0.32687,5.102599 -3.49766,4.381127 -4.73189,-0.892638 -9.790973,-1.637672 -11.120473,-1.637672 -0.37512,0 -0.49399,2.517992 -0.1295,2.743258 0.11449,0.07076 1.98973,0.370337 4.16719,0.665726 7.672653,1.040853 9.358403,1.539964 9.880203,2.925292 0.14029,0.37245 0.39477,3.475151 0.56552,6.89489 0.17074,3.41974 0.42112,6.333741 0.55639,6.475559 0.30807,0.322993 2.93111,0.6254 3.23849,0.373363 0.12654,-0.103751 0.0979,-3.101978 -0.0646,-6.758841 z M -7.5648832,45.87594 c 1.26249,-0.450937 2.38846,-1.376361 3.15182,-2.590464 0.33736,-0.536554 0.69552,-0.924789 0.79591,-0.862743 0.10039,0.06205 0.16621,-0.09427 0.14626,-0.347363 -0.0477,-0.604718 0.72365,-0.59817 0.84022,0.0071 0.0495,0.257018 -0.2157,1.01425 -0.58932,1.682738 -0.37363,0.668488 -0.62291,1.30671 -0.55396,1.418271 0.1592,0.257592 3.77771003,-0.697746 4.55579003,-1.202795 1.36428997,-0.88556 1.73425997,-4.727335 0.98047997,-10.181354 -0.93660997,-6.776898 -2.86078,-9.669116 -6.79119,-10.207839 -1.32505,-0.181618 -4.72111,0.23517 -7.0772498,0.868568 -4.12678,1.109396 -5.42458,3.860441 -4.80846,10.192892 0.4952,5.08972 1.43325,7.702114 3.51602,9.791866 1.70995,1.71568 3.6822898,2.199524 5.8336798,1.43109 z M -10.367433,35.775465 c -0.49518,-0.495173 -0.53772,-1.208537 -0.0983,-1.647976 0.4877698,-0.487764 0.9517498,-0.380797 1.4149998,0.326216 0.76987,1.174966 -0.34469,2.29379 -1.3167198,1.32176 z m 4.9496498,-0.567397 c -0.083,-0.216234 0.0153,-0.496345 0.21842,-0.62247 0.94157,-0.584699 4.91999003,-1.031499 5.35058003,-0.600903 0.29202,0.292016 -0.75499,0.861474 -1.84093003,1.001265 -0.56304,0.07248 -1.59824,0.240563 -2.30046,0.37352 -1.04188,0.197269 -1.3045,0.169416 -1.42761,-0.151412 z M 117.16299,44.536734 c 0.79146,-0.518586 1.81052,-2.28495 2.31358,-4.010213 0.4892,-1.677685 0.82174,-4.643691 0.61362,-5.472912 -0.15223,-0.606544 -0.19825,-0.615338 -2.05786,-0.393238 -1.87873,0.224383 -2.79499,-0.0054 -2.19919,-0.551639 0.33448,-0.306629 1.7865,-0.642612 1.62277,-0.375494 -0.0705,0.114974 0.48743,0.209043 1.23979,0.209043 h 1.36791 l -0.20382,-2.322303 c -0.40119,-4.570831 -2.35674,-8.291153 -4.68815,-8.918939 -1.41224,-0.380275 -1.92283,-0.208287 -1.73956,0.585953 0.31953,1.384717 0.69229,6.903815 0.95083,14.077879 0.15175,4.210758 0.3304,7.744095 0.397,7.851861 0.15534,0.251348 1.5837,-0.156226 2.38308,-0.679998 z M 20.408227,43.88198 c 3.40145,-0.56616 4.95539,-0.786552 5.65179,-0.801582 0.37196,-0.008 0.46302,-0.247761 0.46302,-1.21902 0,-1.102468 0.0525,-1.201575 0.59531,-1.124479 0.40993,0.05822 0.67415,0.352329 0.84847,0.944444 0.22443,0.762333 0.35952,0.859301 1.19062,0.854655 0.51561,-0.0029 1.71138,-0.114119 2.65727,-0.247191 2.58047,-0.363033 8.07836,-0.770253 12.83229,-0.950465 2.32833,-0.08826 4.38225,-0.207202 4.56425,-0.26431 0.18201,-0.05711 2.29435,-0.117259 4.6941,-0.133671 2.39974,-0.01641 4.40712,-0.109413 4.46084,-0.206669 0.0537,-0.09725 0.041,-0.629445 -0.0283,-1.182643 l -0.12595,-1.005816 -7.23056,0.186136 c -8.3117,0.213967 -8.29238,0.218069 -8.8187,-1.87214 -0.16879,-0.670327 -0.47207,-1.282165 -0.67397,-1.359638 -0.36776,-0.141126 -9.26261,0.527461 -12.68709,0.953636 -1.03713,0.129069 -2.00217,0.40652 -2.23951,0.643865 -0.27452,0.274521 -0.30726,0.417063 -0.0958,0.417063 0.1767,0 0.32128,0.238125 0.32128,0.529167 0,0.77376 -0.48716,0.646256 -1.0045,-0.26291 -0.2645,-0.464834 -0.66934,-0.79234 -0.97988,-0.792713 -1.06977,-0.0013 -8.44826,1.328259 -8.68496,1.56496 -0.14328,0.143274 -0.16555,1.403008 -0.0538,3.042586 0.22311,3.273352 -0.21094,3.044847 4.34373,2.286735 z m 85.754393,-2.813344 c 0,-2.870439 0.16749,-2.776107 -6.746873,-3.799905 -6.18182,-0.915331 -5.60965,-0.927615 -5.95801,0.127915 -0.56685,1.717591 -1.06318,1.809558 -8.65819,1.604311 l -6.68276,-0.180595 v 0.934397 c 0,0.513918 0.0893,0.949767 0.19844,0.968552 0.45249,0.07789 2.61169,0.173655 7.73906,0.343258 5.72932,0.189514 12.6547,0.748648 16.404163,1.324421 3.9513,0.606767 3.70417,0.694988 3.70417,-1.322354 z m -29.685223,-1.263298 0.0804,-0.910677 -4.31373,-0.179399 c -2.37256,-0.09867 -6.09968,-0.141393 -8.28249,-0.09494 l -3.96875,0.08446 -0.0223,0.79375 c -0.0122,0.436563 0.0669,0.912813 0.17593,1.058334 0.12605,0.168285 3.11939,0.245397 8.22433,0.211867 l 8.02616,-0.05271 z m 14.28297,-5.493216 0.0759,-2.275991 -2.06025,0.08167 c -1.7753,0.07038 -1.89088,0.05034 -0.83568,-0.144866 3.01872,-0.55844 3.26901,-1.069807 3.04674,-6.224812 -0.26468,-6.138435 -0.81034,-8.240182 -2.34543,-9.034007 -3.13155,-1.619389 -17.51809,-2.601197 -29.04567,-1.982221 -6.21803,0.333878 -11.65149,0.935933 -13.17893,1.460292 -1.34298,0.461034 -2.08656,1.6504 -2.30457,3.686196 -0.21267,1.985819 0.4818,15.951434 0.80951,16.279142 0.0694,0.0694 1.40514,0.07561 2.96831,0.0138 5.02924,-0.198861 32.08779,-0.02304 35.91505,0.233373 2.03729,0.13649 4.41854,0.233594 5.29167,0.215788 l 1.5875,-0.03238 z m -41.47498,-2.692583 c -0.53061,-0.26849 -0.66469,-0.553445 -0.714,-1.517453 -0.0365,-0.71284 0.0131,-0.973388 0.12412,-0.652342 0.35542,1.027935 1.03241,1.711951 1.85775,1.877019 0.45762,0.09152 0.7674,0.27097 0.68841,0.398773 -0.20588,0.333127 -1.19431,0.279572 -1.95628,-0.105997 z m 28.56682,-3.154902 c -3.71079,-0.129611 -10.24731,-0.188412 -14.52562,-0.130669 -7.29512,0.09846 -7.80918,0.07456 -8.26823,-0.384495 -0.42425,-0.424251 -0.48949,-0.931993 -0.48949,-3.809914 0,-3.693355 0.29359,-4.688242 1.53403,-5.198439 1.05957,-0.435806 16.9076,-0.598913 22.90225,-0.235709 7.41965,0.449541 7.58228,0.569879 7.85061,5.80872 0.0942,1.838503 0.0672,3.551093 -0.0599,3.805754 -0.16462,0.329853 -0.51376,0.451141 -1.21395,0.421715 -0.54058,-0.02272 -4.01897,-0.147352 -7.72975,-0.276963 z m 29.020533,0.263858 c -0.11221,-2.390776 -0.22724,-3.029245 -0.59413,-3.297523 -0.52933,-0.387053 -3.74241,-1.130576 -5.26381,-1.218073 l -1.046793,-0.0602 0.0875,1.190625 c 0.0481,0.654844 0.16198,2.138234 0.25303,3.296424 l 0.16555,2.105799 2.2307,0.345383 c 1.22688,0.18996 2.28852,0.40321 2.3592,0.473888 0.0707,0.07068 0.53787,0.128505 1.0382,0.128505 h 0.9097 z m -8.176843,-1.539606 c -0.0721,-1.749834 -0.20602,-3.256502 -0.29767,-3.34815 -0.20535,-0.205348 -3.50016,-0.855439 -4.40644,-0.869423 l -0.66146,-0.01021 0.0813,3.307774 c 0.0447,1.819275 0.16376,3.320624 0.26458,3.336331 0.10082,0.01571 0.95722,0.177211 1.90311,0.358897 0.94588,0.181687 2.06356,0.347429 2.48371,0.368317 l 0.76393,0.03798 z m -82.22702,2.370396 c 0.94588,-0.154349 3.3602,-0.4947 5.36515,-0.756337 2.00495,-0.261637 3.71118,-0.541513 3.79161,-0.621948 0.19429,-0.194291 -0.43056,-6.352109 -0.67102,-6.612817 -0.31681,-0.343481 -12.70808,1.823864 -13.19153,2.307317 -0.16276,0.162761 0.43882,5.67708 0.65973,6.04731 0.1292,0.216545 0.93482,0.144162 4.04606,-0.363525 z m 16.13958,-2.07434 c 1.52797,-0.122961 3.84969,-0.24418 5.15937,-0.269375 3.81988,-0.07348 3.4527,0.322735 3.35578,-3.621167 -0.0461,-1.87575 -0.16516,-3.483608 -0.26459,-3.573018 -0.19764,-0.177735 -7.38083,0.346807 -11.49171,0.839166 -1.52799,0.183007 -2.59247,0.431666 -2.61103,0.609932 -0.0711,0.682881 0.53789,6.003431 0.72112,6.299906 0.083,0.134285 0.64635,0.175297 1.25191,0.09114 0.60556,-0.08416 2.35118,-0.253622 3.87915,-0.376582 z M 132.82215,25.938628 c -0.0575,-1.654856 -0.22159,-2.347803 -0.85065,-3.591119 -0.94565,-1.869052 -3.43095,-4.271781 -5.75634,-5.565094 -1.53888,-0.855879 -6.8751,-2.783641 -8.87389,-3.205779 -1.00202,-0.211624 -1.00997,-0.171798 -0.49959,2.505201 0.25968,1.362079 0.43473,1.734917 0.84358,1.796768 4.11284,0.622185 6.93118,1.563838 9.10886,3.043415 1.95457,1.327996 4.0614,3.730482 5.06492,5.775705 0.34629,0.705762 0.72067,1.285054 0.83195,1.287317 0.11128,0.0023 0.1703,-0.918624 0.13116,-2.046414 z M -41.654883,24.74801 c -0.10696,-0.488028 -0.0767,-0.523789 0.16783,-0.198437 0.25228,0.335646 0.4293,0.237607 1.14743,-0.635477 3.21796,-3.912334 5.07925,-5.323533 8.52204,-6.461268 2.58203,-0.853279 3.84526,-1.08081 7.03309,-1.266784 3.0793,-0.179643 3.58569,-0.328713 5.58709,-1.644718 0.62598,-0.411611 1.99807,-1.155876 3.04907,-1.653922 1.05101,-0.498046 1.87447,-1.024601 1.8299,-1.170122 -0.1182,-0.385997 -9.91426,-0.304436 -12.47207,0.103842 -7.51757,1.199957 -11.60747,3.406752 -14.47778,7.811803 -0.72708,1.115852 -0.86044,1.583309 -0.93681,3.283794 -0.0794,1.767652 0.079,2.367682 0.6393,2.42255 0.0228,0.0022 -0.0173,-0.263839 -0.0891,-0.591261 z m 28.30085,-2.435418 c 0.98403,-0.370389 2.01753,-0.673436 2.29667,-0.673436 0.27913,0 0.56964,-0.10054 0.64559,-0.223423 0.21049,-0.340576 -1.19462,-6.761792 -1.52598,-6.973624 -0.31141,-0.199073 -4.76531,2.056278 -6.18764,3.133275 -0.69988,0.52995 -0.85917,0.833253 -0.85599,1.629842 0.004,1.060431 0.62196,3.979109 1.08733,5.137522 l 0.28893,0.719216 1.23097,-1.037968 c 0.67703,-0.570882 2.03608,-1.341014 3.02012,-1.711404 z m 7.4227498,-2.149885 c 1.18774,-0.521005 2.51672,-1.105848 2.95328,-1.299651 0.43656,-0.193803 1.50813,-0.604013 2.38125003,-0.911579 2.74498997,-0.966945 2.68648997,-0.906416 2.91856997,-3.019754 0.25919,-2.360197 0.31365,-6.6860949 0.087,-6.9121059 -0.0932,-0.092923 -1.53227997,0.3700771 -3.19800997,1.0288892 -2.62324003,1.0375197 -4.24134003,1.7491257 -8.62681003,3.7938907 -0.8219998,0.383268 -0.8699598,0.475593 -0.7078298,1.362794 0.2649598,1.449912 1.4832398,6.468171 1.6265898,6.700106 0.18439,0.298357 0.20938,0.291125 2.56595,-0.74259 z M 114.6277,19.324052 c -8.7e-4,-0.545703 -0.0781,-1.975708 -0.17172,-3.17779 -0.16229,-2.084758 -0.20799,-2.208625 -0.9906,-2.684577 -1.07349,-0.652852 -5.13755,-2.013428 -5.35742,-1.793566 -0.0939,0.09393 0.0848,0.838623 0.39715,1.654871 0.31236,0.816248 0.56793,1.821952 0.56793,2.234898 0,0.653498 0.18979,0.8377 1.46434,1.421207 1.18115,0.540752 1.54466,0.864295 1.8797,1.673042 0.56659,1.36766 0.84861,1.664103 1.58315,1.664103 0.5508,0 0.62886,-0.123425 0.62747,-0.992188 z M 8.5313768,14.900811 c 3.4423002,-1.101848 11.0299902,-3.051237 11.8764702,-3.051237 0.52535,0 0.71403,-0.317358 0.55054,-0.926042 -0.0391,-0.14552 -0.39921,-1.5110182 -0.80027,-3.0344392 -0.40107,-1.5234209 -0.83973,-2.8066942 -0.9748,-2.8517183 -0.31139,-0.1037967 -7.07788,2.1310403 -8.1384,2.6879506 -0.43656,0.2292523 -0.88074,0.4175559 -0.98705,0.4184524 -0.5131402,0.00433 -3.1402302,1.9441565 -3.8374502,2.8335525 -1.11928,1.427796 -1.30309,1.86687 -1.516,3.621271 -0.17399,1.433696 -0.15018,1.547108 0.29756,1.417277 0.26768,-0.07762 1.85591,-0.579399 3.5294,-1.115067 z M 106.20227,14.613082 c -0.30231,-2.487276 -2.99017,-7.8386836 -3.62053,-7.2083186 -0.0707,0.070682 -0.19436,1.618591 -0.27484,3.4397986 l -0.14633,3.311285 1.40571,0.545983 c 2.62355,1.01899 2.77003,1.014058 2.63599,-0.08875 z m -6.12706,-3.903602 c -0.001,-1.4830003 -0.133863,-3.4702703 -0.295033,-4.4161557 -0.16116,-0.9458854 -0.29917,-1.8747105 -0.30668,-2.0640559 -0.0249,-0.6286355 -2.0639,-2.4682436 -3.45212,-3.1146026 -1.32926,-0.61890641 -3.19041,-0.85391911 -3.449,-0.43551501 -0.0702,0.1136628 -0.14669,2.46514701 -0.16988,5.22552061 -0.0495,5.8949836 -0.0447,6.0795646 0.15381,5.8810716 0.16013,-0.16013 6.64118,1.477176 6.90957,1.745563 0.43556,0.435556 0.611143,-0.37757 0.609333,-2.821826 z m -45.506343,1.717864 c 0.94589,-0.09949 6.57161,-0.180895 12.5016,-0.180895 h 10.78181 l -0.002,-1.322917 c -0.002,-1.8029707 -0.70222,-6.3297706 -1.22142,-7.8982088 -0.83809,-2.53174451 -2.66789,-3.84965391 -5.97409,-4.3028196 l -1.18893,-0.1630151 0.19631,1.44659649 c 0.10797,0.7956282 0.28102,2.68936551 0.38455,4.20830531 0.25283,3.709408 0.48714,3.5518279 -5.13098,3.45074 -2.41655,-0.043481 -4.59599,-0.1378909 -4.84321,-0.209799 -0.59381,-0.1727204 -0.64599,-0.3781686 -1.25433,-4.9384058 -0.28679,-2.14977971 -0.59774,-4.0321521 -0.691,-4.1830498 -0.26657,-0.4313173 -6.70704,0.4355668 -10.15099,1.36631749 -1.07936,0.2917048 -2.14729,0.4594503 -2.37318,0.3727679 -0.2259,-0.086682 -0.32547,-0.0723640023 -0.22129,0.031818 0.10418,0.1041826 -0.15941,0.4015623 -0.58577,0.6608439 -0.73378,0.44624121 -0.76824,0.54639431 -0.64511,1.87508181 0.0715,0.7720134 0.21244,2.2966295 0.31311,3.3880357 l 0.18305,1.9843749 1.70269,0.1626747 c 1.40769,0.1344903 1.80846,0.2856479 2.31321,0.8724538 0.61007,0.7092425 0.70274,0.9743611 1.01436,2.9017391 l 0.16595,1.026451 1.50294,-0.184098 c 0.82661,-0.101254 2.27684,-0.265501 3.22272,-0.364992 z m -28.52527,-1.757886 c 0.91854,-0.212502 2.20585,-0.450543 2.86069,-0.528981 2.84406,-0.3406657 3.48955,-0.4945103 3.63197,-0.8656252 0.0827,-0.2154135 -0.0415,-1.3018028 -0.27592,-2.4141984 -0.87483,-4.151368 -0.89589,-5.750584 -0.0716,-5.4342633 0.53018,0.2034506 0.86972,1.3214737 1.47799,4.8667658 0.28131,1.6395778 0.55039,3.0199662 0.59795,3.0675299 0.0886,0.088612 4.14736,-0.3275659 6.28125,-0.6440699 1.1471,-0.170141 1.19362,-0.2127328 1.27259,-1.1650942 0.0901,-1.0872853 -0.57133,-6.1326526 -0.99976,-7.62548811 -0.40613,-1.41514269 -1.90608,-2.99840489 -3.48351,-3.67699629 -1.21153,-0.5211855 -1.73182,-0.5823673 -4.22636,-0.4969846 -1.56462,0.053553 -2.90823,0.16085 -2.98582,0.2384374 -0.0776,0.077587 0.0332,0.719982 0.2461,1.4275435 0.54239,1.80222049 0.51056,2.78987439 -0.0899,2.78987439 -0.35817,0 -0.62805,-0.4687038 -1.08268,-1.88028779 -0.58922,-1.8294662 -0.62601,-1.8762019 -1.36143,-1.7291187 -1.3556,0.2711201 -4.23819,1.8375678 -5.01992,2.72790769 -0.42022,0.4786016 -0.84712,1.3130478 -0.94866,1.85432491 -0.2085,1.1114202 0.15933,3.8157333 1.0103,7.4276943 0.65059,2.7614196 0.5165,2.6741496 3.1667,2.0610296 z m 64.77319,-4.8658184 c 0,-3.1257384 -0.11741,-5.58896931 -0.28998,-6.08402161 -0.63949,-1.83442399 -6.01019,-3.33681859 -9.6577,-2.70163229 -2.36119,0.4111829 -3.50339,1.2605855 -3.46605,2.57755329 0.0149,0.5240165 0.074,0.8116692 0.13151,0.6392283 0.0667,-0.2001389 0.21482,-0.2248268 0.40951,-0.068263 0.16775,0.1348962 1.11016,0.294431 2.09424,0.3545219 2.67085,0.1630902 2.69699,0.2105524 2.7658,5.02273581 0.0314,2.1970906 0.0939,4.0314765 0.13883,4.0764132 0.0449,0.044937 0.67407,0.1591138 1.39808,0.253727 1.69516,0.2215228 4.95375,0.8946378 5.11588,1.0567698 0.0688,0.06883 0.40297,0.125152 0.74252,0.125152 h 0.61736 z m -9.78958,0.5940945 c 0.18325,-3.2792939 0.026,-4.1830216 -0.74685,-4.2925206 -1.27034,-0.179981 -1.34233,0.014695 -0.83162,2.2491458 0.26037,1.1391912 0.55181,2.643937 0.64765,3.3438797 0.28478,2.0799462 0.78062,1.3871819 0.93082,-1.3005049 z M 11.309497,5.5200848 c 0.58208,-0.177079 1.29646,-0.4281456 1.5875,-0.5579257 0.29104,-0.1297801 1.24354,-0.4286661 2.11667,-0.6641912 3.50019,-0.9441751 3.76521,-1.1052054 3.96033,-2.4063484 0.52773,-3.5191445 3.26411,-5.9750539 8.55926,-7.68195 3.53879,-1.14073 8.48028,-1.117236 10.7321,0.05103 1.49129,0.7736904 1.56694,0.428117 0.42062,-1.921521 -1.55355,-3.1843805 -4.54877,-5.7244535 -7.75768,-6.5788585 -1.74653,-0.465033 -4.94732,-0.465033 -6.69385,0 -3.19228,0.849976 -5.19676,2.522527 -6.21661,5.1871755 -0.51824,1.354067 -0.5357,1.631538 -0.25113,3.992218 0.39834,3.3046353 0.18367,3.9327353 -1.00932,2.9530944 -0.40894,-0.335803 -0.66179,-1.0313213 -0.9203,-2.5314031 -0.19604,-1.1376103 -0.48031,-2.1922583 -0.63172,-2.3436623 -0.74888,-0.748882 -4.63093,1.749549 -6.3989602,4.118277 -1.95605,2.62062649 -2.78175,4.804429 -3.0712,8.1226188 -0.2659,3.0482059 -0.25976,3.0527592 2.31884,1.7194593 1.20842,-0.6248258 2.6733702,-1.2809298 3.2554502,-1.4580088 z m 11.07589,-12.5882183 c -0.23363,-0.608824 0.11383,-1.240031 0.62808,-1.140995 0.57408,0.110558 0.77481,0.999264 0.29446,1.303677 -0.51666,0.327419 -0.75028,0.286222 -0.92254,-0.162682 z m 9.23088,-0.854774 c -0.1819,-0.06345 -0.33073,-0.333646 -0.33073,-0.600434 0,-0.587095 0.49852,-0.805972 1.11463,-0.489378 0.76485,0.39303 0.0535,1.381928 -0.7839,1.089812 z M 111.2663,4.5311328 c 5.61678,-5.38005961 8.74881,-12.4291603 7.18541,-16.1718268 -0.87495,-2.094576 -3.30868,-3.833132 -6.23901,-4.456905 -2.8448,-0.605568 -7.20132,-0.376784 -9.49903,0.498844 -2.51579,0.958732 -4.222123,1.878811 -5.347293,2.883343 l -0.99104,0.884778 1.85365,2.1166675 c 2.505303,2.860789 3.788653,4.8172157 4.650763,7.0899325 0.39763,1.0482452 1.29135,3.21600139 1.98606,4.817236 0.6947,1.6012347 1.47146,3.5879978 1.72612,4.4150293 l 0.46303,1.5036936 1.33977,-1.0567748 c 0.73687,-0.5812261 2.02908,-1.7170339 2.87157,-2.5240173 z m -0.17115,-4.65395401 c -0.20424,-0.3274218 -0.96119,-1.60740599 -1.68211,-2.84440919 -1.3372,-2.2944351 -4.14793,-6.1965921 -4.93234,-6.8475971 -0.55025,-0.4566695 -0.56274,-1.3218395 -0.0221,-1.5293115 0.54288,-0.208321 1.58951,0.811643 3.70906,3.6145475 1.78261,2.357324 4.08036,6.6543257 4.08036,7.63063469 0,0.7511022 -0.67825,0.7370628 -1.15289,-0.023864 z M 110.73972,-12.558238 c -0.96297,-1.057256 -1.1793,-1.686465 -0.7129,-2.073541 0.52806,-0.438257 1.11722,-0.0926 1.78494,1.047225 0.83801,1.430536 0.0143,2.219072 -1.07204,1.026316 z M -0.85270317,5.5657202 C 2.0893568,4.1002818 2.7577868,3.6610794 2.8719968,3.1183245 c 0.29689,-1.4107796 1.51689,-4.7035509 2.30374,-6.217708 0.54942,-1.0572876 1.65877,-2.404847 3.32148,-4.034704 L 10.993737,-9.5812915 9.6964068,-10.7833 c -1.92317,-1.78187 -5.33462,-4.171304 -7.26782,-5.090507 -0.93633,-0.44521 -2.83351997,-1.139921 -4.21596,-1.543802 -2.15796,-0.630445 -3.00013,-0.736359 -5.95313,-0.748677 -3.8181698,-0.01593 -6.2207898,0.527154 -8.1365098,1.839151 -5.03634,3.449177 -1.38787,13.3806031 7.7396398,21.0679335 1.34187,1.1301503 3.38713,2.6108591 3.60629,2.6108591 0.0511,0 1.70635,-0.8036718 3.67838003,-1.7859374 z M -11.246233,-1.8194037 c -0.1819,-0.073399 -0.33073,-0.2496194 -0.33073,-0.3916017 0,-0.1419823 0.10562,-0.1928731 0.23471,-0.1130905 0.1291,0.079782 0.21839,-0.020414 0.19844,-0.2226589 -0.062,-0.6288968 2.9446198,-4.0518137 5.7308298,-6.5242447 1.46444,-1.2995175 2.73747,-2.3627595 2.82896,-2.3627595 0.0915,0 0.39746,0.174494 0.67993,0.387763 0.4919,0.371388 0.45772,0.435112 -0.80932,1.5089415 -0.72761,0.616648 -2.83624,2.644811 -4.68585,4.507029 -1.84961,1.8622175 -3.3974198,3.3764506 -3.4395798,3.3649621 -0.0422,-0.011488 -0.22549,-0.080942 -0.40739,-0.1543403 z m 4.3435798,-12.7011603 c -0.30674,-0.306736 -0.19811,-0.53334 0.65597,-1.36836 0.66438,-0.649549 0.93137,-0.760804 1.32292,-0.551253 0.65309,0.349526 0.62028,0.571195 -0.20698,1.398464 -0.67295,0.672948 -1.40485,0.888211 -1.77191,0.521149 z M 68.639647,6.0174529 c 0.15677,-0.4703093 -0.32465,-6.60095991 -0.56878,-7.2430536 -0.21205,-0.5577403 -0.43171,-0.6188182 -2.68816,-0.7474753 -1.35148,-0.077058 -3.1544,-0.076889 -4.00649,3.761e-4 l -1.54926,0.1404816 0.18826,1.08620899 c 0.10354,0.5974149 0.31945,2.33636511 0.47981,3.86433381 l 0.29155,2.7781248 3.70417,0.1437137 c 2.03729,0.079042 3.78354,0.1683393 3.88055,0.1984375 0.097,0.030098 0.21777,-0.069418 0.26835,-0.2211476 z M 102.03493,3.4348993 c -0.23034,-0.5379182 -0.44099,-1.0970956 -0.4681,-1.2426164 -0.0271,-0.1455209 -0.12124,-0.3836459 -0.20918,-0.5291667 -0.0879,-0.1455208 -0.2477,-0.68130201 -0.35503,-1.19062491 -0.44108,-2.09309889 -2.365933,-5.55624979 -3.088203,-5.55624979 -0.12016,0 -0.22752,0.2678907 -0.23859,0.5953125 -0.0111,0.3274219 -0.17016,1.0109449 -0.35353,1.5189399 -0.25504,0.7065628 -0.48348,0.9241948 -0.97205,0.9260417 -0.62863,0.00238 -0.63719,-0.029941 -0.54486,-2.0550275 0.0822,-1.8020456 0.006,-2.2360536 -0.61017,-3.4963196 -1.65237,-3.3773315 -6.44259,-5.9438585 -10.46385,-5.6063775 -2.03106,0.170455 -3.44386,0.713032 -4.89479,1.879814 -1.42156,1.143161 -1.86201,1.3982725 -1.58956,0.920684 0.16527,-0.289715 0.13802,-0.30328 -0.12366,-0.06156 -0.1846,0.170529 -0.48915,0.251143 -0.67679,0.179142 -0.35475,-0.136131 -2.24378,0.9896275 -3.13538,1.8685125 -0.50706,0.499827 -0.49993,0.530922 0.62198,2.712552 l 1.13493,2.2069295 0.89205,-0.5513197 c 0.49063,-0.3032258 0.89206,-0.479333 0.89206,-0.3913493 0,0.087984 0.26789,-0.013897 0.59531,-0.2264017 0.32742,-0.2125046 1.36922,-0.5176178 2.3151,-0.6780288 1.6068,-0.272493 2.78552,-0.196315 5.82084,0.376188 2.06546,0.3895756 4.58117,1.5526534 5.28002,2.4410962 0.43158,0.5486715 0.77548,0.6571301 2.34567,0.739786 2.13906,0.1126011 3.08142,0.5895782 5.801993,2.9366694 0.73642,0.6353299 1.28065,1.4096823 1.57682,2.2435695 0.24875,0.7003635 0.54531,1.2158885 0.65902,1.145611 0.11371,-0.070277 0.0183,-0.567892 -0.21205,-1.1058103 z M 89.901867,-5.9689515 c -0.60224,-0.440363 -0.37794,-1.231473 0.34914,-1.231473 0.64749,0 0.95948,0.778026 0.49732,1.240187 -0.2936,0.293595 -0.43502,0.292139 -0.84646,-0.0087 z m -6.55283,-1.379086 c -0.29343,-0.293428 0.13166,-1.175304 0.56652,-1.175304 0.59615,0 1.07216,0.507338 0.89912,0.958282 -0.13679,0.356467 -1.17279,0.509871 -1.46564,0.217022 z m -39.00553,3.5808686 c 1.40512,-3.4650766 3.80094,-6.1030576 7.40361,-8.1519431 1.87309,-1.065244 2.68806,-1.369939 4.10105,-1.533254 2.50961,-0.290066 6.55536,-0.211854 8.35377,0.161495 0.96709,0.200767 1.62884,0.226035 1.78666,0.06822 0.13786,-0.137858 0.21442,-0.952614 0.17015,-1.810568 l -0.0805,-1.559916 -2.11667,-0.454216 c -1.16417,-0.249819 -3.38889,-0.535142 -4.94383,-0.634052 l -2.82716,-0.179836 -0.0833,1.163219 c -0.075,1.047956 -0.15535,1.171514 -0.81085,1.246938 -0.66367,0.07636 -0.72796,0.0066 -0.73166,-0.79375 -0.007,-1.614462 -0.0842,-1.641449 -4.13872,-1.455454 -4.32386,0.19835 -6.70002,0.833925 -7.1972,1.925107 -0.19967,0.438236 -0.30169,2.856573 -0.30169,7.1513935 0,5.7331437 0.048,6.4792748 0.41182,6.4036961 0.2265,-0.04705 0.67852,-0.7432371 1.00448,-1.5470815 z m 5.99203,0.9500249 c 4.63481,-0.8993499 9.99149,-1.3117589 14.41979,-1.1101756 3.55777,0.1619553 7.46528,0.6839345 7.18822,0.9602277 -0.073,0.07276 0.16051,0.1322917 0.51883,0.1322917 0.56149,0 0.62924,-0.091376 0.4904,-0.6614583 -0.42199,-1.732752 -3.66188,-5.062222 -6.00304,-6.169015 -5.74192,-2.7145205 -14.18297,-1.5892845 -17.62515,2.349525 -1.06048,1.213475 -2.53986,3.6002973 -2.81835,4.5470941 -0.21936,0.7457554 -0.26696,0.7463581 3.8293,-0.04849 z m -9.27436,-9.416442 c 0.19308,-1.894059 0.43397,-2.98155 0.76055,-3.433506 1.02863,-1.423529 1.03007,-1.419029 -0.40084,-1.24956 -2.35821,0.279295 -6.1666,1.278266 -6.1666,1.617547 0,0.178144 0.52469,0.693734 1.16598,1.145756 1.15703,0.815552 4.12569,4.1738915 4.12569,4.6672515 0,0.14146 0.0523,0.204856 0.11632,0.14088 0.064,-0.06398 0.24348,-1.3637415 0.3989,-2.8883685 z m 33.2519,1.924307 c 0.73778,-0.545704 1.67867,-1.236887 2.09087,-1.535963 0.49886,-0.361961 0.67774,-0.659789 0.53499,-0.890756 -0.40022,-0.647578 -5.52937,-2.732939 -8.12702,-3.304209 l -0.70591,-0.155243 -0.0878,1.89802 -0.0878,1.898019 1.45521,0.923087 c 0.80036,0.507697 1.51474,0.994867 1.5875,1.082598 0.2565,0.309278 1.45859,1.0490515 1.72691,1.0627565 0.14944,0.0076 0.87535,-0.432606 1.61313,-0.9783095 z m -56.7143,-4.083502 c 2.75822,-1.873067 5.02226,-2.743018 8.3951,-3.225792 l 2.24895,-0.321906 -0.0812,-1.17841 c -0.16556,-2.404167 -2.17445,-8.983619 -2.74296,-8.983619 -0.14328,0 -1.35242,0.706599 -2.68695,1.570219 -2.66909,1.727246 -3.78118,2.245968 -4.01255,1.871603 -0.2908,-0.470517 1.87863,-2.381425 3.85737,-3.397709 0.37606,-0.193147 1.02605,-0.624121 1.44443,-0.95772 l 0.76068,-0.606545 -0.51839,-1.151212 c -0.28512,-0.633167 -0.97004,-1.722906 -1.52204,-2.421642 -0.55201,-0.698736 -0.92057,-1.404865 -0.81902,-1.569175 0.10574,-0.171094 0.0669,-0.225996 -0.0908,-0.128487 -0.30297,0.187249 -0.93838,-0.429121 -0.73002,-0.708155 0.0715,-0.09575 0.0516,-0.115595 -0.0441,-0.0441 -0.26045,0.194479 -0.90158,-0.417054 -0.72937,-0.695697 0.082,-0.132638 0.0508,-0.208444 -0.0693,-0.168459 -0.12008,0.03999 -0.9326,-0.47648 -1.8056,-1.147703 -2.37006,-1.822255 -5.81373,-3.570369 -8.24595,-4.185895 -2.3463902,-0.593806 -5.6751502,-0.722145 -6.8840002,-0.265409 -1.76241,0.665884 -2.74288997,2.381668 -3.13452997,5.48526 -0.20405,1.617055 0.0907,5.610407 0.41415,5.610407 0.12009,0 0.93534997,-0.47625 1.81168997,-1.058334 1.61323,-1.071538 2.77534,-1.34506 3.01883,-0.710534 0.12601,0.328356 -0.44242,0.766086 -3.45028,2.656974 -0.61846,0.388796 -1.12447997,0.889005 -1.12447997,1.111577 0,0.865727 1.97571997,5.658266 3.26591997,7.922191 1.62608,2.853318 1.77039,3.016384 4.80387,5.428467 1.3096902,1.041402 2.8599802,2.340368 3.4451002,2.886592 0.58512,0.546223 1.23996,1.052546 1.45521,1.125161 0.22021,0.07429 0.79002,-0.265399 1.30298,-0.776761 0.50139,-0.499833 1.61165,-1.384168 2.46724,-1.96519 z m -11.9778202,-9.95944 c 0,-0.392191 1.17581,-1.334572 2.19807,-1.761701 1.97915,-0.826942 1.88808,0.320695 -0.10563,1.33098 -1.30498,0.661284 -2.09244,0.82338 -2.09244,0.430721 z m 2.90231,-6.538184 c -0.27314,-0.32911 -0.1112,-0.628074 0.9644,-1.780378 1.5226802,-1.631265 3.6442702,-3.5027 4.6609002,-4.111324 0.57705,-0.345466 0.78879,-0.366087 1.05238,-0.102491 0.4809,0.480897 0.13554,0.910555 -2.85893,3.556785 -3.2124902,2.838891 -3.3910002,2.952825 -3.8187502,2.437408 z m 85.8360002,15.686334 c 1.56729,-2.693245 3.29926,-8.207652 3.51752,-11.199384 l 0.15594,-2.137404 -2.3008,-1.124056 c -1.94433,-0.949906 -2.28806,-1.213141 -2.21863,-1.699054 0.11469,-0.802761 1.08938,-0.692797 2.80016,0.315914 0.7512,0.442927 1.43262,0.697242 1.51426,0.565144 0.20464,-0.331114 -0.28527,-3.230575 -0.8225,-4.867843 -0.62888,-1.916581 -1.64131,-3.244483 -2.9733,-3.899792 -0.95964,-0.472126 -1.44242,-0.540403 -2.91041,-0.41161 -2.05227,0.180053 -4.0425,0.811724 -4.64091,1.472955 -0.39034,0.431322 -0.3346,0.55783 0.767,1.740768 1.25942,1.352406 1.40694,1.749379 0.82847,2.229467 -0.4939,0.409901 -1.49894,-0.40782 -2.40821,-1.959379 l -0.70254,-1.198796 -0.73805,0.52554 c -0.91691,0.652897 -3.99381,3.920975 -3.99381,4.241958 0,0.129803 -0.14899,0.393337 -0.33108,0.585633 -0.18209,0.192295 -0.62472,0.787125 -0.98362,1.321845 -0.3589,0.534719 -0.76409,0.903276 -0.90043,0.819015 -0.13634,-0.08426 -0.15969,-0.01051 -0.0519,0.163897 0.10779,0.174405 0.025,0.579754 -0.18395,0.900776 -0.25842,0.397011 -0.44034,1.810623 -0.56882,4.420136 -0.10389,2.110052 -0.29029,4.610364 -0.41422,5.556249 -0.22167,1.691964 -0.21272,1.730904 0.55326,2.406559 1.52385,1.344165 1.92791,1.445354 3.61261,0.904697 3.33414,-1.069994 8.38215,-0.688504 10.83388,0.818741 1.41602,0.870527 1.81142,0.794543 2.56009,-0.491976 z m -3.2779,-3.665968 c -0.50932,-0.440106 -1.67994,-1.224881 -2.60138,-1.743945 -1.75243,-0.987172 -2.22547,-1.562996 -1.60436,-1.952937 0.48535,-0.304709 1.0343,-0.115456 2.84016,0.979159 2.23289,1.353462 3.59483,2.599831 3.39888,3.110466 -0.24769,0.64547 -0.99996,0.500165 -2.0333,-0.392743 z m -10.38489,-6.26151 c -0.89767,-0.298584 -1.25677,-0.558332 -1.25677,-0.909048 0,-0.27006 0.16654,-0.554926 0.37009,-0.633036 0.52113,-0.199977 3.06949,1.143564 3.06949,1.618291 0,0.484265 -0.55618,0.464847 -2.18281,-0.07621 z m -41.61576,5.513244 c 5.83259,-0.924745 7.12912,-1.084018 10.67898,-1.311869 1.93885,-0.124447 3.62662,-0.330617 3.7506,-0.458155 0.53387,-0.549225 -1.47565,-8.752174 -2.92962,-11.958851 -0.42261,-0.932038 -0.69179,-1.818546 -0.59817,-1.970018 0.0988,-0.159904 0.0421,-0.196229 -0.13526,-0.08662 -0.168,0.103832 -0.30546,0.04335 -0.30546,-0.134394 0,-0.411896 -1.4231,-2.674671 -2.61528,-4.158369 -0.90539,-1.126777 -1.07339,-1.17845 -2.25677,-0.69411 -0.39396,0.161243 -0.45799,0.123841 -0.28831,-0.16842 0.11996,-0.20663 0.12957,-0.296317 0.0214,-0.199303 -0.10822,0.09701 -0.15708,0.240717 -0.10857,0.31934 0.1013,0.164189 -0.86272,0.938428 -1.18419,0.951065 -0.11773,0.0046 -0.14047,-0.110648 -0.0505,-0.256169 0.0899,-0.145521 0.0473,-0.264583 -0.0946,-0.264583 -0.14198,0 -0.30486,0.140143 -0.36196,0.311428 -0.1154,0.346222 -0.73404,0.06732 -0.73404,-0.330932 0,-0.399161 1.67782,-1.32031 2.10861,-1.157661 0.21384,0.08074 0.30417,0.06217 0.20073,-0.04128 -0.10344,-0.103442 -0.0683,-0.332415 0.0781,-0.508828 0.1913,-0.230501 -0.0263,-0.584982 -0.77324,-1.259823 -0.57169,-0.51649 -0.9604,-1.027273 -0.86381,-1.135075 0.0966,-0.107802 0.026,-0.109854 -0.1569,-0.0046 -0.18464,0.106298 -0.68721,-0.06111 -1.13,-0.376406 -1.24281,-0.884959 -4.36153,-1.669633 -5.9744,-1.503169 -3.02298,0.311999 -5.57554,3.366204 -5.99991,7.179048 -0.0631,0.56676 -0.28067,0.554118 4.31514,0.250692 2.1315,-0.140726 2.57455,-0.100599 2.87407,0.260298 0.44694,0.53853 0.24902,0.615463 -2.08674,0.811118 -0.94588,0.07923 -2.57822,0.221972 -3.62741,0.3172 l -1.90763,0.17314 -0.1798,1.198977 c -0.27442,1.830007 0.078,6.167414 0.53859,6.627969 0.29614,0.296142 0.47336,0.315688 0.75359,0.08311 0.51484,-0.427278 4.27004,-1.108555 6.01016,-1.090376 1.33372,0.01393 4.00829,0.41287 3.24115,0.483447 -0.52253,0.04807 -0.54348,0.0525 -1.36996,0.289529 -0.43143,0.123734 -1.53496,0.304995 -2.45229,0.402802 -1.91113,0.203768 -5.21242,1.057029 -5.60375,1.448363 -0.17594,0.175945 0.0118,1.392691 0.56178,3.641054 0.45432,1.857241 0.88758,3.833911 0.96279,4.392599 0.23123,1.717542 0.4571,1.810542 2.6148,1.07666 1.04122,-0.354145 3.3264,-0.871139 5.07816,-1.148878 z m 4.77253,-11.394619 c -0.31273,-0.506011 0.14524,-0.748124 2.01014,-1.062679 1.94418,-0.327929 2.5764,-0.159224 2.28166,0.608858 -0.2279,0.59389 -3.96125,0.98866 -4.2918,0.453821 z m 29.51143,9.809851 c 0.41568,-3.261833 0.18744,-11.054429 -0.39367,-13.440626 -0.22052,-0.905519 -0.66068,-2.198957 -0.97813,-2.874305 l -0.57718,-1.227905 -1.21352,0.200544 c -0.66743,0.1103 -1.66672,0.230955 -2.22063,0.268123 -0.88538,0.05941 -0.99732,0.0014 -0.92604,-0.480046 0.0612,-0.413195 0.49231,-0.684605 1.75634,-1.105646 l 1.67528,-0.558023 -1.18323,-1.607299 c -1.85823,-2.524229 -4.03763,-3.805953 -6.8099,-4.004974 -1.49516,-0.107337 -1.91149,-0.03039 -3.04271,0.562377 -1.47379,0.772273 -2.10593,1.281342 -2.96647,2.388923 -0.72401,0.931865 -0.746,1.22109 -0.0928,1.22109 1.05958,0 5.77133,1.384644 6.84199,2.010657 2.04101,1.193377 1.19741,1.771283 -1.31234,0.899015 -0.91532,-0.318123 -2.85308,-0.809893 -4.30612,-1.092821 -3.05242,-0.59435 -2.90036,-0.667765 -3.87616,1.871488 -0.77103,2.006393 -0.73021,2.644116 0.36665,5.727984 1.00186,2.816749 2.31495,8.636085 2.31495,10.259344 0,0.529007 0.0893,0.96285 0.19843,0.964095 1.30567,0.01489 6.70796,0.616783 8.13594,0.906462 1.01865,0.206641 2.62599,0.524461 3.57188,0.706266 0.94588,0.181806 2.31279,0.537712 3.03756,0.790904 0.72477,0.253193 1.39579,0.41213 1.49115,0.353196 0.0954,-0.05893 0.3243,-1.291405 0.50876,-2.738823 z m -7.67369,-8.607636 c -0.49562,-0.597183 -0.0843,-0.937773 1.13048,-0.936156 1.5388,0.002 3.09324,0.472915 3.09324,0.937002 0,0.551649 -3.76581,0.550894 -4.22372,-8.46e-4 z"
       id="path16" /></g></svg>
