<?xml version="1.0" encoding="UTF-8" standalone="no"?>
<!-- Created with Inkscape (http://www.inkscape.org/) -->

<svg
   width="234.4248mm"
   height="229.54384mm"
   viewBox="0 0 234.42482 229.54387"
   version="1.1"
   id="svg1"
   xml:space="preserve"
   xmlns="http://www.w3.org/2000/svg"
   xmlns:svg="http://www.w3.org/2000/svg"><defs
     id="defs1" /><g
     id="layer1"
     transform="translate(101.66663,2.3673989)"><path
       style="fill:#000000"
       d="m -70.130551,227.02473 c -9.072517,-0.95235 -16.930432,-4.55459 -19.065748,-8.74015 -3.566441,-6.99081 3.471403,-14.5214 16.298577,-17.43973 l 1.343218,-0.30559 0.311931,-2.69659 c 0.171562,-1.48312 0.311255,-2.8722 0.310428,-3.08684 -8.27e-4,-0.21464 -0.864707,0.4487 -1.919733,1.47408 -4.063984,3.9498 -7.536922,6.4568 -8.944586,6.4568 -1.771615,0 -2.896848,-2.20478 -2.893957,-5.67042 0.0028,-3.39128 0.953477,-8.304 2.332804,-12.05535 0.294019,-0.79965 0.501177,-1.4873 0.46035,-1.52813 -0.04083,-0.0408 -1.03578,0.87449 -2.211007,2.03403 -3.728693,3.67892 -5.939175,4.51531 -7.575037,2.86622 -1.222526,-1.23241 -1.588741,-3.23156 -1.406564,-7.67838 0.164287,-4.01012 0.59712,-6.31229 2.025103,-10.77124 0.556729,-1.73842 0.952549,-3.22045 0.8796,-3.29339 -0.07295,-0.0729 -0.336963,-0.0233 -0.586697,0.11037 -0.249734,0.13365 -1.426871,0.49517 -2.615859,0.80337 -1.816522,0.47086 -2.312204,0.51072 -3.103502,0.24957 -2.458454,-0.81136 -2.54117,-3.92768 -0.236646,-8.91552 0.507868,-1.09921 0.923396,-2.10087 0.923396,-2.22589 0,-0.12503 -0.357188,-0.22732 -0.79375,-0.22732 -1.144385,0 -1.852084,-0.82229 -1.852084,-2.15198 0,-2.17936 3.801278,-8.27172 9.190829,-14.73027 1.301239,-1.55933 1.392504,-1.76206 1.392504,-3.09324 0,-0.78349 -0.0893,-1.47826 -0.198437,-1.54394 -0.109141,-0.0657 -1.432239,0.15904 -2.940218,0.49935 -4.059658,0.91616 -7.436899,1.27006 -8.748835,0.9168 -2.108739,-0.56783 -2.469689,-2.27153 -1.100929,-5.19649 1.379536,-2.948 3.803395,-6.24999 7.201504,-9.8105 0.999991,-1.04778 1.818165,-1.96359 1.818165,-2.03513 0,-0.0715 -0.820412,-0.0613 -1.823138,0.0228 -3.143981,0.26358 -4.262278,-0.39668 -4.262278,-2.51651 0,-3.66299 6.600105,-12.60201 13.305085,-18.020095 0.97689,-0.789393 1.776164,-1.516046 1.776164,-1.614784 0,-0.09874 -1.698019,-0.243084 -3.773376,-0.320769 -4.057123,-0.151866 -5.363994,-0.484231 -6.113919,-1.5549 -0.532253,-0.759898 -0.556168,-2.140833 -0.05353,-3.091071 0.548001,-1.035999 4.700156,-5.017621 7.169154,-6.874709 2.353847,-1.770477 7.117853,-4.510547 8.817497,-5.07148 0.603858,-0.199292 1.097925,-0.442835 1.097925,-0.541208 0,-0.09837 -1.220391,-0.505836 -2.711979,-0.905473 -4.738422,-1.269554 -6.550299,-2.397788 -6.547082,-4.07679 0.007,-3.629876 11.105658,-10.12225 20.040831,-11.723225 1.055026,-0.189036 1.918229,-0.425702 1.918229,-0.525925 0,-0.100222 -1.20946,-1.045726 -2.687688,-2.101121 -6.954477,-4.965209 -8.378723,-7.050762 -6.211121,-9.095073 1.509667,-1.4238 7.445891,-2.791023 12.127487,-2.793186 l 2.302636,-0.0011 0.872363,-1.087341 c 0.788364,-0.982641 4.406291,-3.924694 5.280863,-4.294332 0.237643,-0.10044 -0.07934,-0.52333 -0.964363,-1.286577 -2.594757,-2.237719 -4.69408,-4.323848 -5.058214,-5.026423 -0.618436,-1.193234 -0.472365,-2.531463 0.368049,-3.371877 1.548902,-1.548902 9.980682,-2.630981 15.004362,-1.925561 1.018646,0.143037 1.930156,0.214688 2.025578,0.159224 0.09542,-0.05546 -0.07273,-0.82197 -0.373679,-1.703346 -0.666266,-1.951288 -0.451986,-3.219389 0.686096,-4.060287 0.633545,-0.468108 1.094208,-0.548512 2.956153,-0.515966 l 2.205658,0.03855 -1.276247,-2.553334 c -0.701936,-1.404333 -1.475474,-3.23865 -1.718974,-4.07626 -1.374163,-4.726956 2.844868,-5.864475 9.444314,-2.546339 1.20027,0.603484 2.425511,1.029033 2.962792,1.029033 0.50388,0 1.76719,0.306989 2.807356,0.682198 1.040165,0.375208 1.959159,0.614247 2.042209,0.531198 0.08305,-0.08305 -0.106055,-1.088971 -0.420233,-2.235379 -0.791881,-2.889507 -0.760456,-4.082433 0.125907,-4.779646 1.476316,-1.16127 3.454279,-0.487849 7.392169,2.516753 1.659362,1.26609 2.230208,1.587442 2.101925,1.183256 -0.69326,-2.184269 -1.724567,-6.893555 -1.724567,-7.8749388 0,-0.9992555 0.143467,-1.3323242 0.899583,-2.0884401 0.786813,-0.7868128 1.067982,-0.8995833 2.2429185,-0.8995833 2.850073,0 6.242109,1.8231435 9.98649699,5.3675184 1.21925901,1.1541298 2.21683401,1.9759208 2.21683401,1.8262008 0,-0.14972 -0.290232,-1.6211966 -0.64496,-3.2699479 C 0.73667849,2.4147584 0.45174849,0.31396005 0.77627449,-0.66936365 1.4317005,-2.6553239 3.3208845,-2.9014451 6.3552785,-1.3961916 c 1.560872,0.77429235 2.541692,1.55910755 4.8772655,3.9026039 1.60792,1.613373 3.15164,3.3203586 3.43048,3.7933012 0.27885,0.4729427 0.60122,0.8598958 0.71638,0.8598958 0.11516,0 0.14286,-0.8036718 0.0616,-1.7859374 -0.16618,-2.0076186 0.13386,-2.8600294 1.22161,-3.470569 0.97653,-0.5481144 2.308,-0.207711 4.24381,1.0849736 2.20757,1.4741587 6.15033,5.4418898 7.75115,7.8002385 0.71266,1.049903 1.39074,1.850206 1.50684,1.778452 0.1161,-0.07175 0.92931,-2.370581 1.80712,-5.1085036 0.87782,-2.7379227 1.83769,-5.2852564 2.13305,-5.6607415 1.34475,-1.70956925 3.44182,-0.99526001 6.44247,2.1944412 3.25817,3.463458 5.80196,7.8646509 7.06845,12.2296249 0.32723,1.127786 0.69228,2.050521 0.81123,2.050521 0.20012,0 0.60993,-0.807283 3.24922,-6.400633 2.39988,-5.085974 4.99273,-4.0764685 8.07954,3.145704 1.52183,3.5606 2.92548,9.518638 2.92548,12.417711 0,1.305091 0.27055,1.457795 0.8948,0.505057 0.7764,-1.184937 3.68289,-4.139251 4.47546,-4.549106 1.02523,-0.530167 2.47695,-0.261375 3.42007,0.633241 1.24568,1.181616 1.66294,2.925197 1.64347,6.867358 l -0.0172,3.491208 1.6294,-0.152156 c 6.69594,-0.625276 11.81065,3.572034 14.18433,11.64014 l 0.5821,1.978559 4.78392,0.113875 c 3.81446,0.0908 5.01279,0.209955 5.913336,0.588001 3.74919,1.57388 2.77551,5.189025 -3.195466,11.864383 -1.01294,1.132434 -1.79591,2.093445 -1.73992,2.135582 0.056,0.04214 1.47101,0.209362 3.1445,0.371612 3.757976,0.364349 6.890676,1.085382 10.171196,2.34104 4.00396,1.532557 5.32516,3.14722 4.13649,5.055274 -0.61212,0.982579 -4.78597,4.367745 -7.76011,6.293772 -1.12356,0.727604 -2.04436,1.388151 -2.04624,1.467881 -0.002,0.07973 1.26178,0.784805 2.80813,1.566831 4.85548,2.455527 9.66584,6.329133 12.94346,10.422891 2.83105,3.536 3.79753,5.878793 3.02256,7.326843 -0.69116,1.29145 -3.26425,1.667503 -6.19193,0.904941 -0.85165,-0.221826 -1.59107,-0.360701 -1.64316,-0.30861 -0.0521,0.05209 0.58742,0.561006 1.42112,1.130924 5.38954,3.684268 13.0364,11.666888 13.0364,13.608808 0,1.01512 -0.47921,2.01819 -1.18514,2.48073 -0.93555,0.613 -4.86366,1.72519 -7.28153,2.06167 -1.23693,0.17213 -2.29762,0.34956 -2.3571,0.39429 -0.0595,0.0447 1.01524,1.24312 2.38827,2.6631 1.37303,1.41998 3.04245,3.29616 3.70981,4.16929 4.82819,6.31681 8.34984,14.01541 7.31071,15.98178 -0.64791,1.22606 -1.60081,1.68648 -3.40597,1.64568 -1.79225,-0.0405 -6.3836,-1.0998 -7.68587,-1.77323 -1.15766,-0.59865 -1.20563,-0.29982 -0.1603,0.99845 1.52343,1.89206 3.50715,4.98748 4.63933,7.23928 1.48994,2.96333 3.1476,8.01079 3.54276,10.78745 0.39034,2.74281 0.1662,3.41322 -1.42911,4.2745 -0.95704,0.5167 -1.00163,0.51727 -2.90236,0.0371 -1.06171,-0.2682 -2.69645,-0.8892 -3.63276,-1.38001 -0.93632,-0.4908 -1.73772,-0.85704 -1.7809,-0.81386 -0.0432,0.0432 0.27257,0.91411 0.70167,1.9354 1.42852,3.39998 2.64118,9.24201 2.64731,12.75348 0.003,1.61583 -0.6886,2.93431 -1.77731,3.3892 -1.18339,0.49445 -2.34864,0.25223 -4.22655,-0.87859 -1.23871,-0.74591 -1.68362,-0.88214 -2.45525,-0.75177 -1.7422,0.29434 -1.74844,0.32344 -0.71684,3.34275 0.86172,2.52209 1.15376,3.94056 1.70367,8.27491 l 0.19825,1.56255 2.30102,0.47467 c 4.72075,0.97381 9.54577,3.2966 12.40664,5.97261 2.4254,2.26868 4.1512,6.01389 3.87999,8.42006 -0.20805,1.84587 -1.37849,4.01488 -3.04806,5.64856 -3.78265,3.70132 -10.28427,5.60995 -19.24376,5.64923 -10.30813,0.0452 -18.467806,-2.12947 -23.469196,-6.25485 l -1.72631,-1.42393 -0.94871,1.24404 c -2.9496,3.86776 -8.27006,7.29791 -13.01416,8.39036 -2.76644,0.63704 -7.49013,0.64288 -10.05411,0.0124 -2.72705,-0.67054 -5.83489,-2.27926 -7.73869,-4.0058 l -1.65326,-1.49933 -2.0509,0.67264 c -5.14953,1.6889 -12.96068,3.28876 -19.64569,4.02378 -5.05478,0.55577 -15.00094,0.62735 -20.3706615,0.14659 l -3.8342,-0.34327 -0.378807,0.61625 c -0.965953,1.57145 -4.322708,4.48039 -6.34125001,5.4953 -6.10996199,3.07202 -14.38325249,2.14123 -20.24023449,-2.27714 -1.036094,-0.78161 -2.360057,-1.55004 -2.942141,-1.70763 -3.58905,-0.97169 -11.682601,-4.4194 -13.666884,-5.82186 -0.386267,-0.273 -0.816358,-0.49637 -0.95576,-0.49637 -0.139401,0 -0.331,0.65978 -0.425776,1.46617 -0.601594,5.11863 -7.423704,9.413 -17.627619,11.09621 -3.049608,0.50305 -10.415045,0.72075 -13.484402,0.39856 z m 10.335322,-3.96132 c 8.177637,-0.79586 15.166912,-3.78291 16.549595,-7.07289 1.2863,-3.06065 -0.921485,-6.5697 -5.670637,-9.0129 -4.285171,-2.2045 -8.480382,-3.0602 -15.00592,-3.06076 -6.886378,-5.8e-4 -11.162695,0.90107 -15.857308,3.34348 -2.432367,1.26545 -5.159008,3.76274 -5.810341,5.3216 -0.478451,1.1451 -0.5505,2.70496 -0.17104,3.70302 0.91505,2.40676 5.965846,5.03296 11.759642,6.1145 4.785358,0.8933 9.557614,1.11634 14.206009,0.66395 z m -7.16967,-6.05566 c -3.007655,-0.66104 -3.762347,-2.31807 -1.695458,-3.72262 1.139334,-0.77423 3.384256,-1.01569 5.113612,-0.55003 2.327306,0.62668 3.510216,2.88083 2.023103,3.85523 -0.735946,0.48221 -4.005337,0.73302 -5.441257,0.41742 z m 4.210895,-2.25546 c 0.243134,-0.29296 0.159951,-0.48546 -0.40016,-0.92605 -1.104471,-0.86877 -4.636946,-0.74898 -4.989285,0.1692 -0.210043,0.54736 -0.131674,0.59659 1.206642,0.7579 0.634283,0.0764 1.204942,0.19071 1.268131,0.25389 0.288739,0.28874 2.63368,0.0836 2.914672,-0.25494 z m -14.525837,-1.48867 c -1.287315,-0.30267 -2.482835,-1.6821 -2.254727,-2.60159 0.404405,-1.63012 2.527266,-2.9464 5.08269,-3.15153 1.648342,-0.13231 1.66208,-0.12761 2.719761,0.93007 0.584679,0.58468 1.063052,1.25831 1.063052,1.49696 0,0.23866 -0.477197,0.95161 -1.060437,1.58435 -0.817524,0.88691 -1.412426,1.24921 -2.597045,1.58159 -1.685606,0.47296 -1.634626,0.4702 -2.953294,0.16015 z m 3.886611,-2.57327 c 0.716892,-0.62417 0.994622,-1.58406 0.596961,-2.06321 -0.388238,-0.4678 -2.936876,-0.5246 -3.760501,-0.0838 -1.204727,0.64475 -1.589149,1.19388 -1.262742,1.80378 0.212663,0.39736 0.457074,0.51837 0.816561,0.40427 0.288944,-0.0917 0.513053,-0.0395 0.513053,0.11958 0,0.48344 2.501549,0.33754 3.096668,-0.18061 z m -4.265214,-0.50089 c -0.09176,-0.23911 -0.104493,-0.49708 -0.02831,-0.57326 0.07618,-0.0762 0.138519,0.003 0.138519,0.1752 0,0.1987 0.23193,0.25551 0.632594,0.15495 0.347927,-0.0873 0.711298,-0.0314 0.807492,0.12422 0.104887,0.16971 0.02124,0.22403 -0.208956,0.13569 -0.21112,-0.081 -0.462455,-0.0201 -0.558524,0.13533 -0.254404,0.41163 -0.59163,0.3461 -0.782818,-0.15213 z m 22.436414,2.83882 c -2.57701,-1.17026 -2.622844,-3.49888 -0.09426,-4.78887 3.780982,-1.92891 9.607511,1.9158 6.379783,4.20978 -1.596861,1.13491 -4.477199,1.40028 -6.285523,0.57909 z m 4.481994,-1.78962 c 0.271624,-0.075 0.42192,-0.29007 0.344204,-0.49259 -0.08118,-0.21155 -0.0035,-0.30792 0.188653,-0.23417 0.754171,0.28941 0.365875,-0.97578 -0.502831,-1.63838 -0.802555,-0.61214 -1.096233,-0.68062 -2.487117,-0.58002 -2.26845,0.16409 -3.227232,1.18278 -2.302931,2.44684 0.577009,0.78911 2.84603,1.02665 4.760022,0.49832 z m -14.626625,-1.87547 c -0.572573,-0.46364 -0.573073,-0.47186 -0.06442,-1.05833 0.624601,-0.72017 1.552227,-0.74931 2.428124,-0.0763 0.643754,0.49466 0.646374,0.51217 0.15743,1.05245 -0.608555,0.67244 -1.74636,0.70952 -2.521131,0.0822 z m 61.2683863,12.0955 c 3.96523999,-1.35317 6.97422,-4.79879 8.075184,-9.24698 0.548036,-2.21422 0.478076,-8.88306 -0.120055,-11.44418 -1.409227,-6.03412 -5.270237,-9.79686 -10.072345,-9.81599 -2.043895,-0.008 -3.121985,0.4021 -5.0075083,1.90549 -0.842727,0.67193 -1.121136,0.76448 -1.67087,0.55548 -1.896377,-0.72101 -4.82874,0.19658 -6.420003,2.00893 -1.632154,1.85892 -2.010404,3.05934 -2.010404,6.3802 0,1.62327 -0.0893,2.89616 -0.198438,2.82866 -0.10914,-0.0675 -0.198437,-0.27973 -0.198437,-0.4716 0,-0.19188 -0.16278,-0.48396 -0.361732,-0.64908 -0.483256,-0.40106 -0.691328,0.86838 -0.689096,4.20417 0.0033,4.91414 1.187904,8.10554 3.96204,10.6739 0.895407,0.82899 2.065203,1.72673 2.599546,1.99499 3.558295,1.78636 8.6936823,2.24257 12.1121183,1.07601 z m 73.2344987,-5.81711 c 5.01364,-0.7247 9.05782,-3.23522 12.30523,-7.63875 1.52566,-2.06881 3.22604,-5.38944 3.82692,-7.47351 0.5537,-1.92046 0.55992,-2.24748 0.0344,-1.81136 -0.53995,0.44812 -0.49925,0.17939 0.17193,-1.13502 0.79952,-1.56575 0.96733,-4.31576 0.36034,-5.90513 -0.97338,-2.54875 -2.77093,-3.76352 -5.06092,-3.42012 -1.07417,0.16109 -1.26921,0.10036 -2.14373,-0.66749 -1.36335,-1.19703 -2.55424,-1.61893 -4.56974,-1.61893 -2.15427,0 -5.14186,0.94816 -7.70572,2.44553 -5.72618,3.34428 -12.68587,13.57478 -12.66406,18.61573 0.0106,2.44079 1.46412,4.79142 4.01705,6.4962 2.97261,1.98503 7.07081,2.74271 11.42827,2.11285 z m -95.133035,-1.77623 c -0.843744,-2.364 -0.964011,-7.37428 -0.257169,-10.71357 1.228574,-5.80408 3.541876,-9.74407 7.031859,-11.97658 1.738814,-1.11231 2.989795,-1.44977 5.381119,-1.4516 1.511618,-0.001 2.1992,-0.1394 3.189612,-0.64128 0.6944243,-0.35189 1.7322623,-0.72471 2.3063093,-0.8285 1.466334,-0.2651 1.54452,-0.35817 0.795743,-0.94715 -0.976979,-0.7685 -5.3894053,-2.80324 -6.7634803,-3.11891 -1.777403,-0.40834 -4.347858,-0.3353 -6.954347,0.19759 -2.310267,0.47232 -4.430443,0.43211 -4.596628,-0.0872 -0.09143,-0.2857 2.24629,-1.44688 4.641185,-2.30535 2.330752,-0.83548 6.500375,-0.94547 9.271994,-0.24458 3.5327723,0.89336 6.3540393,2.39099 9.2133143,4.89076 0.691225,0.60431 1.81838699,1.39177 2.50480499,1.74991 3.76527501,1.96452 6.76533101,6.68096 8.02206701,12.61161 0.692956,3.27012 0.565846,9.00333 -0.272919,12.30977 -0.156221,0.61583 -0.08624,0.72116 0.571781,0.86063 2.9351797,0.62212 15.2929297,0.8788 20.0643697,0.41676 6.13408,-0.59399 14.36001,-2.29006 18.77774,-3.87169 4.15891,-1.48898 4.20251,-1.51977 4.02153,-2.84018 -0.18104,-1.3208 0.19417,-4.26442 0.77946,-6.11514 1.25352,-3.96368 4.89017,-9.75112 8.06342,-12.8323 0.82428,-0.80036 1.74574,-1.94558 2.04768,-2.54492 1.11156,-2.20638 6.0954,-6.01776 9.83413,-7.52062 1.01543,-0.40817 2.24228,-0.62583 4.05964,-0.72023 2.86689,-0.14891 4.52953,0.12384 7.0851,1.16226 0.88821,0.36091 1.67881,0.59232 1.75689,0.51424 0.0781,-0.0781 -0.0256,-0.7691 -0.23042,-1.53561 l -0.37239,-1.39366 -3.17285,-0.0533 c -3.50732,-0.059 -6.44133,-0.73306 -9.62695,-2.21184 -1.84424,-0.8561 -4.549,-2.69912 -5.56441,-3.79159 -0.35279,-0.37955 -0.73403,-0.6901 -0.84719,-0.6901 -0.11316,0 -0.59422,0.56462 -1.06902,1.25471 -4.40105,6.39671 -12.78361,12.03807 -20.5934,13.8591 -4.97088,1.15908 -12.55788,1.37391 -17.85938,0.50571 -7.29085,-1.19398 -14.936882,-4.60321 -20.6374947,-9.2019 -1.702586,-1.37348 -5.26599401,-5.04305 -6.42464,-6.61606 -0.669924,-0.9095 -1.284378,-1.65044 -1.365452,-1.64653 -0.08107,0.004 -0.43902,0.47983 -0.795435,1.05759 -0.678929,1.10055 -4.064346,4.55802 -6.0980003,6.22778 -4.64797,3.81627 -11.844324,6.70603 -18.124805,7.27816 -4.169308,0.37982 -7.022725,0.0593 -11.013916,-1.23701 -5.051899,-1.64088 -9.893955,-5.93342 -12.503702,-11.08468 l -0.938309,-1.85208 -0.009,4.03664 c -0.0093,4.17946 0.46137,8.3226 1.239753,10.91232 0.240562,0.80036 0.512082,1.54615 0.603377,1.65729 0.09129,0.11115 0.321293,-0.57923 0.511106,-1.53418 0.189814,-0.95495 0.391342,-1.69005 0.447839,-1.63355 0.0565,0.0565 0.273692,1.48093 0.482653,3.1654 0.652709,5.26162 1.820983,9.41007 3.683267,13.07903 3.27684,6.45582 8.268665,11.57852 14.321948,14.69745 1.737919,0.89545 5.105787,2.27853 5.608144,2.30309 0.217547,0.0106 0.146739,-0.46011 -0.226513,-1.50589 z M -39.3465,204.73723 c -1.526597,-1.58795 -3.125324,-3.61304 -2.972773,-3.76559 0.05674,-0.0567 0.748485,0.67144 1.537205,1.61819 0.78872,0.94674 1.854504,2.12975 2.368408,2.62891 0.513905,0.49915 0.814714,0.90755 0.668465,0.90755 -0.146249,0 -0.866836,-0.62508 -1.601305,-1.38906 z m 156.79617,8.16421 c 7.16404,-1.3 11.1125,-4.05751 11.1125,-7.76071 0,-3.04319 -3.29754,-6.3702 -8.15057,-8.22339 -10.3217,-3.94149 -24.415536,-3.43126 -29.505326,1.06816 -0.83132,0.73489 -1.13395,1.34153 -2.01532,4.03975 -0.57041,1.74625 -1.18954,3.55884 -1.37584,4.02798 -0.32464,0.81749 -0.30065,0.88717 0.57656,1.67451 2.76926,2.48556 8.14278,4.36547 15.467376,5.41122 3.28764,0.46938 10.69284,0.34276 13.89062,-0.23752 z m -12.83229,-5.33959 c -1.3989,-0.50128 -2.24896,-1.49235 -2.24896,-2.62204 0,-1.45616 1.25274,-2.41153 3.51002,-2.67682 1.86177,-0.21882 3.56771,0.35131 4.55225,1.52136 0.76427,0.90829 0.83189,1.52402 0.28376,2.58399 -0.7722,1.49327 -3.67487,2.06147 -6.09707,1.19351 z m 4.84796,-2.41336 c 0.49351,-0.48773 0.29788,-1.12649 -0.53532,-1.74797 -1.03129,-0.76923 -3.5785,-0.78405 -4.39264,-0.0256 l -0.58959,0.54929 0.82049,0.63801 c 0.85298,0.66326 3.25971,1.31675 3.95014,1.07256 0.21828,-0.0772 0.5544,-0.29605 0.74692,-0.48632 z m 12.21766,-0.6097 c -0.55124,-0.55125 -0.72395,-1.5875 -0.26458,-1.5875 0.14552,0 0.26458,0.22424 0.26458,0.49831 0,0.52108 0.60078,0.78943 1.38907,0.62047 0.40643,-0.0871 0.62028,-0.75368 0.47942,-1.4943 -0.0254,-0.13377 0.13905,-0.0894 0.36554,0.0985 0.91071,0.75582 0.13726,2.39364 -1.13038,2.39364 -0.31596,0 -0.8126,-0.23813 -1.10365,-0.52917 z m -27.384366,-1.24742 c -1.22371,-0.29532 -2.22027,-0.95496 -2.51399,-1.66408 -0.80079,-1.93328 0.80267,-3.81684 3.826,-4.49439 1.76342,-0.39519 2.95434,-0.003 4.19764,1.38325 0.839846,0.93623 0.985146,1.26108 0.855196,1.91203 -0.40816,2.04462 -3.672306,3.51298 -6.364846,2.86319 z m 3.5281,-2.10019 c 0.46134,-0.12353 0.52831,-0.22204 0.26458,-0.38921 -0.26948,-0.17082 -0.24189,-0.22479 0.11647,-0.22788 0.61474,-0.005 1.11101,-1.25397 0.69677,-1.75311 -0.16514,-0.19898 -0.43559,-0.28447 -0.601,-0.18998 -0.16542,0.0945 -0.21249,0.0744 -0.10461,-0.0447 0.35166,-0.38818 -0.3732,-0.92666 -1.24739,-0.92666 -1.14565,0 -2.52109,0.4832 -3.24823,1.14111 -0.69234,0.62642 -0.78547,1.10514 -0.16898,0.86858 0.30032,-0.11525 0.38251,-0.0494 0.27806,0.2228 -0.0981,0.25577 -0.0221,0.33797 0.225,0.24316 0.20531,-0.0788 0.71722,0.0283 1.13759,0.23804 0.42036,0.2097 1.13929,0.32624 1.59762,0.25898 0.87486,-0.12841 1.1877,0.33551 0.37029,0.54912 -0.25466,0.0666 -0.34396,0.13318 -0.19844,0.14808 0.14552,0.0149 0.54254,-0.0473 0.88227,-0.13831 z m 18.100966,-0.32474 c -1.68007,-0.5804 -2.44678,-1.22625 -2.44678,-2.06109 0,-2.19652 6.51083,-2.25878 7.68038,-0.0734 0.45729,0.85444 0.20865,1.91597 -0.53663,2.29112 -0.94274,0.47455 -3.07588,0.40343 -4.69697,-0.15659 z m 3.85548,-1.3134 c 0.4681,-0.0315 0.59365,-0.17599 0.52916,-0.60887 -0.17079,-1.14645 -4.67676,-1.81513 -5.23262,-0.7765 -0.2383,0.44527 -0.13319,0.55758 0.85059,0.90891 1.7702,0.63219 1.68929,0.62218 3.85287,0.47646 z m -14.59136,-0.2036 c -0.48574,-0.26327 -0.69471,-0.54577 -0.59531,-0.8048 0.0842,-0.21952 0.15316,-0.50845 0.15316,-0.64207 0,-0.13362 0.12609,-0.24295 0.2802,-0.24295 0.15411,0 0.20762,0.11744 0.11891,0.26098 -0.0964,0.15591 0.15496,0.22415 0.62429,0.16951 0.43208,-0.0503 0.94097,0.005 1.13088,0.12193 0.20053,0.12393 0.42972,0.0806 0.54667,-0.10336 0.12075,-0.18996 0.20299,-0.0292 0.20542,0.40153 0.007,1.18279 -1.12145,1.56699 -2.46422,0.83923 z m -156.215792,0.52479 c 0.79699,-1.48715 0.788506,-1.552 -0.573516,-4.38348 l -0.470566,-0.97826 -0.949331,0.97826 c -1.122097,1.15628 -2.570431,3.80977 -2.570431,4.70928 0,0.53575 0.13394,0.63749 0.859896,0.65319 0.472942,0.0102 1.09802,0.12315 1.389062,0.25093 1.030262,0.45233 1.565831,0.16778 2.314886,-1.22992 z m -11.926489,-0.2293 c 0.698797,-0.27496 0.77926,-0.86445 0.312692,-2.2909 -0.330808,-1.01139 -0.398348,-1.90018 -0.285048,-3.75107 0.08166,-1.33409 0.216979,-2.60422 0.300699,-2.8225 0.09927,-0.25884 -0.167527,-0.60358 -0.767062,-0.99115 -0.505604,-0.32684 -0.994105,-0.89239 -1.085558,-1.25677 -0.09145,-0.36437 -0.279459,-0.6625 -0.417792,-0.6625 -0.138334,0 -0.177931,-0.11906 -0.08799,-0.26458 0.08994,-0.14552 0.04083,-0.26459 -0.109115,-0.26459 -0.411641,0 -2.314735,4.16415 -2.660234,5.82084 -0.166915,0.80036 -0.375229,2.69422 -0.46292,4.20858 l -0.15944,2.75337 2.489604,-0.1523 c 1.369283,-0.0838 2.688758,-0.23066 2.932168,-0.32643 z m -15.600869,-3.32846 c 1.061027,-0.88425 2.858805,-2.50762 3.995062,-3.60749 2.373237,-2.29723 8.618763,-9.14722 9.236652,-10.1306 0.228587,-0.36381 0.555253,-1.49123 0.725923,-2.50538 0.443027,-2.63255 1.852407,-6.75503 3.279968,-9.59402 0.675396,-1.34316 1.227847,-2.53379 1.227669,-2.64584 -3.32e-4,-0.20919 -0.92394,0.80561 -1.940105,2.13167 -0.745164,0.97241 -2.929094,3.76007 -3.870639,4.94065 -0.406201,0.50932 -1.304841,1.64042 -1.996978,2.51354 -1.785934,2.25294 -3.316781,3.81587 -4.183661,4.27134 -1.444905,0.75916 -3.085648,-0.19769 -3.489147,-2.03481 -0.242138,-1.10245 -0.550709,-0.9769 -1.317345,0.53599 -1.351951,2.66794 -2.581797,6.88041 -3.429898,11.74807 -0.380892,2.18613 -0.563702,5.98462 -0.288021,5.98462 0.06676,0 0.989494,-0.72348 2.05052,-1.60774 z m 21.841213,-1.82063 c 1.607259,-1.34299 3.768134,-3.91077 3.768134,-4.47769 0,-0.17411 -0.433288,-1.26444 -0.962861,-2.42296 -0.766046,-1.67583 -1.077022,-2.10425 -1.521355,-2.09589 -0.645288,0.0121 -3.183863,2.24033 -2.961786,2.59966 0.08175,0.13227 -0.04818,0.22418 -0.288738,0.20423 -0.817803,-0.0678 -1.499214,1.5948 -1.623412,3.96107 -0.160061,3.04957 -0.0037,3.54328 1.122348,3.54328 0.688927,0 1.263166,-0.30524 2.46767,-1.3117 z m 153.984581,-3.13092 1.9175,-0.45217 -0.51137,-0.83824 c -0.56615,-0.92801 -3.73266,-2.62253 -4.41288,-2.36151 -0.22191,0.0852 -0.32297,0.037 -0.23179,-0.11057 0.0889,-0.14386 0.003,-0.26156 -0.19056,-0.26156 -0.19371,0 -0.81064,-0.37788 -1.37096,-0.83974 -0.81522,-0.67197 -0.99046,-0.73804 -0.87713,-0.33073 0.0779,0.27996 0.28284,1.13364 0.45545,1.89707 0.2591,1.14601 0.54495,1.59585 1.63922,2.57969 0.72896,0.6554 1.4018,1.18675 1.4952,1.18079 0.0934,-0.006 1.0327,-0.21433 2.08732,-0.46303 z m 12.502286,-2.0164 c 0,-2.79408 -2.03407,-9.9175 -3.74473,-13.11424 -0.43004,-0.80361 -0.71363,-1.23711 -0.63021,-0.96333 0.0834,0.27378 0.15619,1.46441 0.16169,2.64583 0.0124,2.65547 -0.63404,4.25737 -1.82339,4.51859 -1.09781,0.24112 -2.83164,-0.22607 -3.920126,-1.0563 l -0.94875,-0.72365 0.14693,0.76304 c 0.0808,0.41967 0.22561,1.29882 0.32176,1.95366 0.20355,1.38623 0.827156,2.28603 3.529886,5.09323 l 1.9742,2.05052 h 2.46637 2.46637 z m -21.803466,-3.74794 c -1.25148,-2.73358 -2.40346,-3.74343 -5.27817,-4.62695 -4.01814,-1.23495 -8.14558,-0.69921 -11.54752,1.49885 -1.3996,0.9043 -1.42035,0.93426 -0.54313,0.78383 3.36898,-0.57774 5.08053,-0.42215 7.59581,0.69048 0.61497,0.27202 2.10743,0.61354 3.31657,0.75892 1.20915,0.14538 2.52684,0.33118 2.92819,0.4129 1.02587,0.20887 3.59237,2.37022 3.83258,3.22756 0.18958,0.67665 0.20456,0.66159 0.2827,-0.28431 0.0538,-0.65143 -0.15035,-1.50744 -0.58703,-2.46128 z m -147.087885,-1.26212 c 3.261311,-3.74748 2.937262,-2.67018 2.757824,-9.16842 l -0.157081,-5.68854 -0.987349,1.32292 c -2.809294,3.76408 -4.701192,9.16768 -4.701192,13.42744 0,1.76244 0.360734,2.70108 0.917563,2.38752 0.199783,-0.1125 1.176388,-1.13891 2.170235,-2.28092 z m -26.865874,-1.94973 c 2.954334,-2.7484 3.694077,-3.49583 7.547941,-7.62643 3.7975,-4.07018 5.059402,-5.59947 5.530344,-6.70217 0.518867,-1.21493 0.495328,-1.28188 -0.40427,-1.14985 -0.610976,0.0897 -0.963392,-0.0628 -1.5875,-0.68693 -0.737106,-0.7371 -0.802021,-0.94873 -0.800124,-2.60848 0.0011,-0.99346 0.222887,-2.72902 0.49278,-3.85681 0.385456,-1.61067 0.41674,-2.05052 0.145842,-2.05052 -0.18968,0 -0.419573,0.12087 -0.510872,0.2686 -0.0913,0.14772 -0.544811,0.44364 -1.007803,0.6576 -0.462992,0.21396 -1.972897,1.04692 -3.355344,1.85102 -1.382448,0.80409 -3.61487,1.99487 -4.960938,2.64617 -2.357659,1.14075 -2.447395,1.21638 -2.447395,2.06269 0,0.48319 -0.23983,2.18141 -0.532954,3.77382 -0.850244,4.619 -1.319129,8.99182 -1.319129,12.30217 0,2.89218 0.0843,3.42543 0.541541,3.42543 0.103819,0 1.304366,-1.03784 2.667881,-2.30631 z m 182.102889,1.62321 c 0.26089,-0.67988 0.18692,-1.65166 -0.25728,-3.37975 -0.43941,-1.70947 -2.73327,-6.85358 -2.99904,-6.72549 -4.34044,2.09191 -4.77805,2.36976 -4.51286,2.86528 0.82908,1.54914 6.57103,7.65848 7.19794,7.65848 0.22585,0 0.48291,-0.18833 0.57124,-0.41852 z m -56.85711,-2.11484 c 8.91029,-1.55289 15.79581,-5.71046 21.06278,-12.71797 2.71061,-3.60638 2.68741,-3.39203 0.78761,-7.27729 -2.00969,-4.11 -3.57065,-9.38094 -3.38169,-11.41905 0.25302,-2.72906 0.74435,-5.88838 1.03666,-6.66587 0.16413,-0.43656 0.69437,-1.40139 1.1783,-2.14405 0.48393,-0.74267 0.87988,-1.66923 0.87988,-2.05902 0,-0.86699 0.59544,-2.34052 1.31588,-3.25641 0.71509,-0.90909 0.67058,-1.55742 -0.20951,-3.05196 -2.10361,-3.5723 -6.27286,-7.82616 -10.2706,-10.47905 -1.86628,-1.23846 -4.69239,-2.68972 -5.23782,-2.68972 -0.23514,0 -0.50767,0.42133 -0.67538,1.04415 -0.32974,1.22455 -1.35542,2.13085 -2.41154,2.13085 -1.03708,0 -2.42904,-1.29657 -3.12247,-2.90849 -0.31347,-0.72866 -0.59639,-1.329 -0.62873,-1.33407 -2.41177,-0.37868 -4.41025,-0.86464 -5.70284,-1.38674 l -1.64321,-0.66372 -1.38345,0.74695 c -1.67815,0.90607 -4.89053,1.99684 -6.62803,2.25056 -1.05068,0.15343 -1.32227,0.30891 -1.53898,0.88102 -0.5307,1.40102 -2.20121,2.67907 -3.50175,2.67907 -0.8396,0 -2.25318,-1.18835 -2.70777,-2.27633 l -0.35341,-0.84583 -1.97431,0.60914 c -3.926,1.21131 -6.6935327,2.99144 -10.1291437,6.51528 -2.279936,2.33848 -3.33199901,3.70434 -4.80315701,6.23575 -0.93745799,1.61308 -2.15835899,4.13105 -2.15835899,4.45138 0,0.0514 0.457209,0.35039 1.016019,0.66446 1.16327399,0.65379 1.89439799,1.72954 1.89439799,2.78733 0,0.47439 0.273899,0.97387 0.783568,1.4289 1.04805001,0.9357 1.84933301,2.77766 1.85645401,4.26756 0.0041,0.84941 0.156023,1.35171 0.5043,1.66689 0.832032,0.75298 1.172209,2.47618 0.844511,4.27794 -0.83961,4.61638 -2.191859,8.17543 -3.89176401,10.24293 -0.816512,0.99307 -0.585831,1.5579 1.93486701,4.73755 5.553087,7.00476 14.9042167,12.09463 24.9555667,13.58345 3.27061,0.48445 9.4503,0.4716 12.30312,-0.0256 z m -3.04271,-9.73891 c 0,-0.0558 0.23829,-0.16374 0.52953,-0.23991 0.29125,-0.0762 0.46281,-0.0305 0.38126,0.10144 -0.14241,0.23042 -0.91079,0.34725 -0.91079,0.13847 z m -11.52214,-1.19046 c -3.57987,-1.62607 -4.68681,-6.03535 -2.31661,-9.22773 2.05764,-2.77141 7.14272,-2.69585 9.63541,0.14316 1.07507,1.22445 1.55814,2.41105 1.55492,3.81953 -0.003,1.23774 -0.94459,3.51189 -1.75061,4.22728 -1.67778,1.48916 -5.04829,1.9802 -7.12311,1.03776 z m 5.35813,-3.79352 c 0.40703,-0.1776 0.99974,-0.5916 1.31713,-0.91999 0.5153,-0.53317 0.5899,-0.54817 0.69691,-0.14011 0.0659,0.25134 0.13365,-0.11996 0.15053,-0.8251 0.0359,-1.5011 -0.5316,-2.45631 -2.16044,-3.63624 -0.85678,-0.62065 -1.33642,-0.77023 -2.4698,-0.77023 -1.49507,0 -3.10658,0.59456 -3.87188,1.4285 -1.05283,1.14727 -0.20331,3.35436 1.73929,4.51875 1.24182,0.74435 3.32423,0.90033 4.59826,0.34442 z m -12.29795,3.6152 c -0.73922,-0.51776 -0.7597,-1.53312 -0.0453,-2.24749 0.54767,-0.54766 1.29025,-0.51911 2.03699,0.0783 0.53417,0.42736 0.41155,1.99001 -0.18104,2.30716 -0.70286,0.37615 -1.1222,0.3442 -1.81061,-0.13799 z m 27.63212,-4.63695 c -1.29147,-0.31081 -3.03312,-1.56125 -3.85266,-2.76609 -0.48255,-0.7094 -0.66561,-1.40148 -0.76008,-2.87356 -0.14959,-2.33094 0.16586,-3.41342 1.42255,-4.88158 1.5603,-1.82286 4.95534,-2.41718 7.19425,-1.25939 1.98211,1.02498 3.49453,3.47775 3.49453,5.66724 0,3.90083 -3.80438,7.00242 -7.49859,6.11338 z m 2.59632,-3.79453 c 1.50193,-0.62755 3.31477,-2.47528 3.31477,-3.37856 0,-1.40572 -0.62974,-2.23036 -2.38837,-3.12754 -1.4938,-0.76208 -3.7339,-0.79372 -4.72982,-0.0668 -0.84498,0.61675 -1.68151,2.23003 -1.45814,2.8121 0.0908,0.23666 0.25683,0.37361 0.36893,0.30433 0.11209,-0.0693 0.27529,0.31835 0.36266,0.86141 0.20524,1.27578 0.82688,2.14219 1.85942,2.59157 1.06587,0.4639 1.56707,0.46455 2.67055,0.003 z m -40.9367887,1.99926 c -0.545703,-0.56254 -0.992188,-1.15775 -0.992188,-1.32268 0,-0.36593 0.906744,0.50999 1.312199,1.26759 0.178303,0.33316 0.556592,0.54919 0.961683,0.54919 0.377802,0 0.596759,0.11489 0.504243,0.26459 -0.297738,0.48175 -0.782321,0.27589 -1.785937,-0.75869 z m 5.3103287,-3.83785 c -1.826998,-0.50063 -2.9761787,-1.51341 -3.9409817,-3.4732 -0.763512,-1.55091 -0.832915,-1.89011 -0.717036,-3.50442 0.27602,-3.84523 2.4631647,-5.95953 6.1851077,-5.97909 4.73701,-0.0249 8.0625,5.39746 5.91261,9.6408 -1.32433,2.61388 -4.62803,4.08635 -7.4397,3.31591 z m 4.8902,-4.57918 c 1.73985,-0.88538 2.25549,-2.36025 1.39861,-4.00044 -0.63775,-1.22075 -2.50759,-2.70077 -3.84011,-3.03954 -0.98258,-0.24979 -3.11931,0.3112 -3.99644,1.04926 -0.669064,0.56297 -0.786027,0.84893 -0.786027,1.92166 0,1.59668 0.790297,2.82601 2.381437,3.7044 1.96956,1.08729 3.23522,1.1826 4.84253,0.36466 z m 11.70477,-1.33603 c -1.811,-0.46002 -2.3262,-2.06585 -1.04805,-3.26661 0.55911,-0.52525 0.95821,-0.64143 2.20341,-0.64143 1.25793,0 1.68849,0.12802 2.49223,0.74106 1.92356,1.46718 0.89784,3.38992 -1.77607,3.32928 -0.74436,-0.0169 -1.58655,-0.0899 -1.87152,-0.1623 z m 3.82543,-2.18146 c 0,-1.03608 -3.09256,-1.83548 -3.91583,-1.01221 -0.41777,0.41776 -0.40847,1.02364 0.0132,0.86219 0.18191,-0.0696 0.86651,0.0414 1.52136,0.24673 1.75942,0.55171 2.38125,0.52645 2.38125,-0.0967 z m 12.7,-3.44638 c -0.62926,-0.62925 -0.68914,-1.65452 -0.12402,-2.12353 0.33122,-0.27489 0.46397,-0.26282 0.7276,0.0661 0.34636,0.43218 1.61264,0.84505 1.36554,0.44524 -0.0815,-0.13195 -0.0349,-0.23991 0.10362,-0.23991 0.82565,0 0.4645,1.60838 -0.47391,2.1106 -0.7207,0.38571 -0.99972,0.34059 -1.59883,-0.25852 z m -10.47759,-0.37781 c -2.2435,-0.97665 -1.10117,-4.1201 1.49724,-4.1201 1.3504,0 2.89493,1.38961 2.89493,2.60457 0,1.61915 -2.31735,2.41876 -4.39217,1.51553 z m 3.59842,-2.26957 c 0,-0.11242 -0.22278,-0.47954 -0.49508,-0.8158 -0.63921,-0.7894 -2.29976,-0.85425 -2.84321,-0.11104 -0.56241,0.76914 -0.46958,0.87073 1.02319,1.11971 1.43123,0.23871 2.3151,0.16508 2.3151,-0.19287 z m 11.28804,-1.7666 c -1.81277,-0.62361 -3.47156,-2.31536 -3.99347,-4.07283 -0.52036,-1.75223 -0.52176,-2.52228 -0.007,-3.9805 0.833,-2.36099 3.09545,-3.92523 5.67728,-3.92523 3.4571,0 6.0925,2.59964 6.07961,5.99711 -0.0166,4.37982 -3.84024,7.32856 -7.75615,5.98145 z m 4.85928,-4.55625 c 0.67198,-0.54002 1.04905,-0.70193 1.12832,-0.48448 0.19716,0.54081 0.52237,-1.60375 0.34835,-2.29711 -0.22044,-0.87829 -1.37473,-2.20079 -2.37015,-2.71554 -1.83131,-0.947 -5.20204,-0.53394 -5.58888,0.68488 -0.0966,0.30432 -0.27533,0.55332 -0.3972,0.55332 -0.37848,0 0.0321,2.20357 0.58026,3.11452 1.49418,2.48286 4.05488,2.94807 6.2993,1.14441 z m -7.23533,-3.25021 c -0.0845,-0.21107 -0.14716,-0.14837 -0.15985,0.15985 -0.0115,0.27892 0.051,0.43519 0.13896,0.34727 0.0879,-0.0879 0.0973,-0.31612 0.0209,-0.50712 z m -33.07273,6.54545 c -0.90129,-0.32144 -1.3936,-0.64608 -2.46486,-1.62536 -0.17381,-0.15889 -0.56017,-0.74442 -0.85857,-1.30117 -2.1284857,-3.97129 0.37044,-8.38274 4.97544,-8.78336 4.49913,-0.3914 8.1647,4.31607 6.48741,8.3314 -1.22978,2.94399 -4.98603,4.50312 -8.13942,3.37849 z m 4.38314,-3.50409 c 0.69122,-0.24775 1.25677,-0.54599 1.25677,-0.66277 0,-0.11677 0.15292,-0.21231 0.33983,-0.21231 0.1869,0 0.55243,-0.35991 0.81227,-0.79979 0.40433,-0.68448 0.42703,-0.94198 0.15743,-1.78594 -0.65907,-2.06313 -2.30302,-3.20217 -4.86617,-3.3716 -1.4198,-0.0939 -1.82,-0.0183 -2.56834,0.48484 -1.19593,0.80408 -1.62619,2.10585 -1.10916,3.35582 0.51593,1.24731 1.5876,2.34493 2.86851,2.93797 1.31444,0.60856 1.54965,0.61263 3.10886,0.0538 z m 8.87019,3.47498 c -0.97538,-0.52932 -1.3203,-1.26426 -1.1127,-2.37089 0.18805,-1.00235 1.54304,-2.37284 2.04146,-2.06479 0.21172,0.13085 0.20452,0.21276 -0.0254,0.28941 -0.59344,0.19781 -0.86093,1.03972 -0.57189,1.79995 0.14962,0.39352 0.34704,0.64047 0.43872,0.54879 0.0917,-0.0917 0.32588,-0.0346 0.52044,0.12689 0.47864,0.39724 1.72662,-0.3962 1.51021,-0.96016 -0.0836,-0.21799 -0.033,-0.39635 0.11249,-0.39635 0.33317,0 0.58578,0.64233 0.58578,1.48949 0,0.84102 -1.198,1.95321 -2.08916,1.9395 -0.37893,-0.006 -1.01339,-0.18665 -1.40992,-0.40184 z m 2.407,-3.75475 c -0.32911,-0.41964 -0.31975,-0.429 0.0999,-0.0999 0.25466,0.19972 0.46302,0.40808 0.46302,0.46303 0,0.21776 -0.21727,0.0776 -0.56291,-0.36313 z m 1.88583,-7.98648 c -2.10066,-0.64131 -3.71725,-1.95585 -4.66927,-3.79687 -0.98516,-1.90508 0.25798,-5.05345 2.42525,-6.14217 0.84676,-0.42536 1.58091,-0.52917 3.74258,-0.52917 2.56555,0 2.74193,0.0369 3.83646,0.80213 3.3785,2.36211 3.80397,6.00964 0.98269,8.42454 -0.56212,0.48116 -1.48324,1.01301 -2.04692,1.18189 -1.1376,0.34083 -3.25297,0.37038 -4.27079,0.0597 z m 4.74047,-3.9796 c 1.21926,-0.34968 2.13869,-1.26512 2.13869,-2.1294 0,-0.99918 -1.44012,-2.86942 -2.57446,-3.34338 -0.52478,-0.21927 -1.73779,-0.41695 -2.69557,-0.4393 -2.91964,-0.0681 -4.86875,1.41598 -4.1275,3.14278 0.93919,2.18789 4.5212,3.55445 7.25884,2.7693 z m -61.890468,50.65155 c 3.517796,-0.74126 8.152183,-2.69768 11.096598,-4.68445 3.399244,-2.29367 7.4229343,-6.24225 6.6302423,-6.50648 -0.644475,-0.21483 -2.6732433,0.58902 -3.7589953,1.4894 l -1.135554,0.94168 1.190624,-1.26268 c 0.654844,-0.69447 1.9050003,-1.74727 2.7781253,-2.33955 0.873125,-0.59228 2.136311,-1.53055 2.80708,-2.08504 2.394782,-1.97964 4.73354499,-5.66556 4.73354499,-7.46012 0,-0.51598 0.131299,-1.01929 0.291776,-1.11847 0.505582,-0.31247 1.508724,-2.76913 1.361157,-3.33343 -0.196311,-0.7507 -1.59927,-1.54239 -2.73536199,-1.54357 -0.522575,-5.4e-4 -1.489434,0.16131 -2.148576,0.35969 -1.156356,0.34801 -1.193532,0.34191 -1.058706,-0.17367 0.09441,-0.36101 0.04039,-0.47294 -0.166527,-0.34506 -0.18337,0.11333 -0.306262,0.0189 -0.306262,-0.23538 0,-0.53543 2.476241,-1.71712 3.605624,-1.72065 0.455124,-10e-4 0.942233,-0.15141 1.08246299,-0.33332 0.395774,-0.51338 0.0059,-1.54906 -0.81278099,-2.15896 -1.314776,-0.9795 -3.74034,-0.67009 -6.566466,0.83765 -0.366762,0.19567 0.141852,-1.158 0.736013,-1.95889 0.668998,-0.90177 2.553143,-1.94532 3.512293,-1.94532 0.997925,0 0.62981,-1.11929 -0.498813,-1.51669 -3.214667,-1.13192 -7.9723063,1.63925 -11.9159533,6.94065 -1.012865,1.36159 -1.192953,1.50278 -1.265469,0.99219 -0.0465,-0.32742 -0.178957,-0.59531 -0.294347,-0.59531 -0.67597,0 -3.603759,2.99081 -4.761369,4.86387 -0.32529,0.52633 -0.633293,0.95696 -0.684452,0.95696 -0.05116,0 -0.08335,-0.34003 -0.07153,-0.75562 0.01182,-0.41559 -0.06271,-0.89184 -0.165603,-1.05833 -0.306069,-0.49523 -3.79329,-0.36011 -5.844398,0.22645 -1.01772,0.29104 -1.876807,0.52917 -1.909083,0.52917 -0.03228,0 0.0098,-0.1786 0.09361,-0.39688 0.116366,-0.30324 -0.05725,-0.39912 -0.735908,-0.40639 l -0.888203,-0.01 0.79375,-0.65416 c 0.436562,-0.35979 1.597421,-0.91472 2.579687,-1.23319 0.982266,-0.31847 1.785937,-0.66232 1.785937,-0.76413 0,-0.1018 -0.406834,-0.5423 -0.904075,-0.97888 -0.608951,-0.53467 -1.79654,-1.06837 -3.638021,-1.63494 -7.421359,-2.2833 -9.854592,-3.44267 -14.581836,-6.94782 -1.13207,-0.8394 -2.145463,-1.52619 -2.251984,-1.52619 -0.106521,0 -0.454407,0.92274 -0.773079,2.05052 -1.881966,6.66031 -2.293546,15.04385 -1.010223,20.57743 1.059968,4.57049 3.706222,9.56107 6.601342,12.44949 1.788516,1.78437 4.676537,3.50111 7.051137,4.19142 3.365372,0.97834 8.290171,1.0904 12.152573,0.27651 z m 11.906249,-8.15985 c 0,-0.0549 0.208359,-0.2633 0.463021,-0.46302 0.419644,-0.3291 0.429002,-0.31975 0.0999,0.0999 -0.345644,0.44073 -0.562916,0.58089 -0.562916,0.36312 z m 115.726895,8.41263 c 0.55293,-1.44092 -0.30771,-6.59829 -1.67418,-10.03252 -0.78624,-1.97597 -1.508616,-3.28518 -1.668216,-3.0234 -0.0379,0.0621 -0.48408,0.94642 -0.99155,1.96506 -0.50747,1.01865 -1.4302,2.47548 -2.05052,3.23741 -0.62032,0.76193 -1.12785,1.47718 -1.12785,1.58945 0,0.31785 2.63201,3.25013 4.10104,4.56888 0.7276,0.65318 1.382446,1.2573 1.455206,1.3425 0.2307,0.27013 1.17886,0.75473 1.49304,0.76309 0.16634,0.004 0.3747,-0.18028 0.46303,-0.41047 z m -170.325223,-5.761 c 1.110906,-1.43421 2.278718,-3.09721 2.595138,-3.69557 l 0.57531,-1.08793 -1.008975,-0.95981 c -0.712969,-0.67824 -1.010164,-1.1853 -1.013027,-1.72839 -0.0053,-1.00275 -0.366618,-1.54747 -0.892603,-1.34563 -1.027923,0.39445 -3.34141,5.15764 -4.258911,8.76858 -0.419615,1.65145 -0.5395,4.41376 -0.206031,4.74723 0.229306,0.2293 1.43224,-1.11349 4.209099,-4.69848 z m 178.952483,2.57895 c 0,-0.27575 -3.45811,-4.39571 -4.97269,-5.92443 l -1.44176,-1.45521 0.19585,0.92604 c 0.10772,0.50933 0.33058,1.18209 0.49525,1.49503 0.36905,0.70138 3.54944,4.07038 4.41446,4.67627 0.63079,0.44182 1.30889,0.58807 1.30889,0.2823 z m 6.05507,-2.40962 c -0.3949,-3.93163 -2.22936,-9.89706 -4.0381,-13.13139 -0.816,-1.45913 -1.12556,-1.76715 -2.27139,-2.26007 -1.74957,-0.75265 -2.92058,-0.98315 -2.92058,-0.57489 0,0.17304 0.29804,0.96619 0.6623,1.76255 0.67714,1.48039 1.25338,3.56984 1.04262,3.7806 -0.0646,0.0646 -0.11742,-0.0257 -0.11742,-0.20057 0,-0.23303 -0.13752,-0.24439 -0.51475,-0.0425 -0.46141,0.24694 -0.6854,-0.0115 -2.16148,-2.49434 -1.55991,-2.62379 -1.76326,-2.84737 -3.85696,-4.2407 -2.56387,-1.70622 -2.59781,-1.68751 -2.40446,1.32532 l 0.12591,1.96193 3.31575,3.51369 c 6.98527,7.40227 13.00169,13.21993 13.29321,12.85405 0.035,-0.044 -0.0346,-1.05812 -0.15465,-2.25367 z m -30.467216,-0.9411 c 4.28757,-1.49107 7.54929,-4.74705 9.09316,-9.07714 0.8103,-2.27266 0.9858,-7.34621 0.38037,-10.99613 -0.76603,-4.61804 -3.02203,-10.96196 -5.1499,-14.48163 -1.67325,-2.76768 -1.44834,-2.59869 -2.44606,-1.83783 -1.3587,1.03616 -3.95664,2.26776 -6.643,3.14926 -1.34207,0.44038 -2.59493,0.85229 -2.78415,0.91536 -0.25417,0.0847 -0.20859,0.26003 0.17452,0.67124 0.28519,0.30612 0.79719,1.09214 1.13777,1.74669 0.50722,0.97483 0.93195,1.34873 2.348,2.06699 1.87017,0.94861 3.59949,2.62392 4.47015,4.33055 0.73854,1.44767 0.69083,1.59565 -0.23,0.71344 -0.43099,-0.41292 -0.94798,-0.68009 -1.15918,-0.59904 -0.20967,0.0805 -0.81869,-0.15097 -1.35337,-0.5143 -1.33095,-0.9044 -3.06589,-1.66711 -3.80812,-1.67411 -0.53387,-0.005 -0.59588,0.0915 -0.46349,0.72179 0.0841,0.40019 0.0358,0.9062 -0.10722,1.12448 -0.23116,0.35278 -0.26053,0.35278 -0.26429,0 -0.002,-0.21828 -0.60216,-1.42709 -1.33296,-2.68624 -1.45172,-2.50128 -4.16442,-5.61234 -5.98726,-6.86649 -1.31632,-0.90565 -3.77908,-1.82435 -4.89055,-1.82435 -1.32825,0 -2.77176,0.75799 -3.29547,1.73045 -0.60537,1.12412 -0.40964,1.35087 1.47447,1.70819 1.75642,0.3331 3.15222,1.0071 3.63294,1.75427 0.36169,0.56217 0.35981,0.56257 -2.02008,0.42688 -1.59661,-0.091 -2.64612,-0.0265 -3.18276,0.19582 -1.01602,0.42085 -2.65845,2.22265 -2.65845,2.9164 0,0.45717 0.17702,0.52841 1.31299,0.52841 1.31205,0 4.0876,0.85699 4.39702,1.35765 0.31702,0.51295 -0.81112,1.00674 -2.31935,1.01518 -1.71959,0.01 -2.47978,0.25009 -3.32451,1.05165 -0.80118,0.76022 -0.7889,2.12345 0.0279,3.10365 0.3428,0.41135 0.71094,1.22416 0.81808,1.80624 0.29935,1.62635 1.4759,3.80151 2.73998,5.06559 0.64118,0.64118 2.09369,1.60977 3.30935,2.20679 l 2.16661,1.06405 -2.31514,-0.0672 c -2.76733,-0.0803 -2.85791,0.0797 -1.05829,1.86914 1.35574,1.34808 3.58026,2.52589 6.61914,3.50463 1.05252,0.33898 1.91367,0.72513 1.91367,0.85811 0,0.26978 -5.29337,0.0919 -6.35,-0.2134 -0.8718,-0.25188 1.59297,1.419 3.175,2.15235 3.22076,1.493 5.57427,1.95465 9.29522,1.82327 2.09832,-0.0741 3.28146,-0.26225 4.65721,-0.74069 z M -62.648026,164.552 c 0.739736,-0.38308 5.701447,-4.14611 6.398752,-4.85289 0.493665,-0.50037 0.520291,-0.79374 0.396874,-4.37282 l -0.132291,-3.83646 -2.788064,2.77813 c -3.049364,3.03849 -4.392879,5.16787 -5.1669,8.18917 -0.586057,2.2876 -0.221681,2.87858 1.291629,2.09487 z m -28.97429,-1.70586 c 3.159897,-1.30072 12.812129,-6.44716 13.166174,-7.02002 0.07996,-0.12938 -0.24859,-0.23789 -0.730121,-0.24113 -0.932477,-0.006 -1.883826,-0.61927 -2.15346,-1.3876 -0.24901,-0.70955 0.549003,-3.47006 1.690752,-5.84871 0.561681,-1.17017 0.979339,-2.16948 0.928129,-2.22069 -0.05121,-0.0512 -0.552464,0.0994 -1.113896,0.33459 -1.779269,0.74551 -4.799784,1.45538 -6.19269,1.45538 -1.499518,0 -2.231551,-0.30147 -3.064086,-1.26185 l -0.563075,-0.64955 -2.016612,3.02816 c -1.109137,1.66549 -2.016613,3.10758 -2.016613,3.20466 0,0.28895 0.717526,0.20174 1.644669,-0.1999 1.962122,-0.85001 5.1274,-2.00761 5.485852,-2.00628 0.298391,0.001 0.31309,0.072 0.06615,0.31893 -0.174625,0.17462 -0.3175,0.65641 -0.3175,1.07064 0,0.58085 -0.196709,0.85624 -0.859896,1.20385 -1.675529,0.87823 -2.996115,2.54996 -4.667804,5.90897 -1.473643,2.96108 -2.245857,5.25737 -1.767983,5.25737 0.100038,0 1.216944,-0.42607 2.482014,-0.94682 z m 22.119728,-1.81589 c 1.542023,-1.37397 4.619064,-4.36585 6.837871,-6.64862 2.218806,-2.28277 4.707302,-4.66906 5.529992,-5.30288 l 1.495799,-1.15239 0.235327,-1.92243 c 0.12943,-1.05733 0.204406,-1.96809 0.166614,-2.0239 -0.03779,-0.0558 -1.947893,1.02663 -4.244668,2.40542 -2.296775,1.3788 -4.890329,2.90281 -5.763454,3.3867 -3.910067,2.16697 -4.184221,2.42744 -5.496629,5.2223 -1.652672,3.51947 -2.733549,7.75618 -2.13219,8.35754 0.334715,0.33471 0.578018,0.16716 3.371338,-2.32174 z m 193.302258,-1.58562 c 0,-0.61749 -0.90805,-4.14087 -1.47157,-5.70996 -2.28394,-6.35943 -7.15852,-12.88198 -12.17243,-16.28761 -1.22972,-0.83528 -2.29395,-1.46059 -2.36495,-1.38959 -0.071,0.071 0.0582,0.67889 0.28721,1.35087 0.80407,2.35979 0.0852,3.22925 -2.28275,2.76104 -0.72885,-0.14411 -1.38642,-0.20078 -1.46127,-0.12593 -0.0748,0.0748 0.69018,1.31169 1.70008,2.74853 2.34513,3.33656 3.63413,5.89182 4.1048,8.13719 0.20534,0.97962 0.41625,1.81853 0.46868,1.86426 1.02727,0.89591 7.38827,4.35114 11.6047,6.30355 0.91506,0.42372 1.5875,0.57098 1.5875,0.34765 z m -16.45324,-6.89335 c 0.22557,-3.57757 -3.89798,-9.75887 -9.290236,-13.92628 -1.29487,-1.00075 -2.46411,-1.81954 -2.59829,-1.81954 -0.13419,0 -0.0181,0.44649 0.25791,0.99219 1.58631,3.13591 3.29314,7.56035 3.73187,9.67369 0.3644,1.75533 0.927546,2.37115 4.519716,4.94253 2.75101,1.96925 3.26222,1.99003 3.37903,0.13741 z m -181.13708,-1.73462 c 6.016093,-2.72288 10.960488,-5.46911 16.747626,-9.30201 2.151277,-1.42482 2.749765,-2.19938 3.157417,-4.08633 l 0.179819,-0.83235 -2.509331,0.9053 c -1.380131,0.49791 -3.826905,1.55462 -5.437274,2.34825 -3.310336,1.63139 -3.971827,1.84667 -4.933066,1.60541 -0.872541,-0.21899 -1.498248,-1.63511 -1.256514,-2.84379 l 0.174611,-0.87305 -1.424219,1.18733 c -3.04968,2.54243 -4.800137,4.36681 -5.931453,6.18193 -1.275305,2.04615 -2.897025,5.39889 -3.20503,6.62608 -0.185901,0.74069 -0.166598,0.75913 0.628163,0.60018 0.450977,-0.0902 2.16514,-0.77282 3.809251,-1.51695 z m 48.809568,-1.62893 c 0.483275,-0.17476 0.878681,-0.40341 0.878681,-0.50811 0,-0.23875 -3.406538,-0.61832 -3.621347,-0.40351 -0.21034,0.21034 1.005882,1.20937 1.485895,1.22055 0.20795,0.005 0.773497,-0.13418 1.256771,-0.30893 z m 8.166293,-6.27512 c 2.987616,-3.1271 6.759253,-5.3134 9.1662783,-5.3134 0.490132,0 0.814676,-0.16466 0.912599,-0.46302 0.08358,-0.25466 0.679597,-1.53458 1.32448,-2.84427 3.037597,-6.16904 8.603715,-12.03598 14.623014,-15.41334 l 1.6962817,-0.95176 -0.9376157,-0.81328 c -1.304935,-1.1319 -1.823666,-2.05214 -1.840404,-3.2649 -0.01732,-1.25515 0.235326,-2.15286 0.78068,-2.77391 0.608618,-0.69309 1.1181737,-0.57264 1.1193117,0.26459 0.0019,1.42148 1.906488,3.65235 3.942798,4.61832 4.98774,2.36604 15.98524,-0.0131 18.78259,-4.06331 0.78769,-1.14048 1.21666,-1.30959 0.98548,-0.38848 -0.21108,0.84101 0.51265,1.72542 2.1269,2.59911 2.32655,1.25921 4.0805,1.60773 7.48096,1.48649 2.88293,-0.10279 3.16504,-0.16253 4.57397,-0.96864 1.79032,-1.02432 2.85064,-2.20169 2.8562,-3.1715 0.002,-0.38902 0.0974,-0.8543 0.21153,-1.03396 0.31098,-0.4896 1.34472,0.32924 1.80433,1.42924 0.58042,1.38915 0.0811,2.84184 -1.50495,4.37829 l -1.28781,1.24754 2.27659,1.33992 c 5.42542,3.19322 9.95774,7.63492 13.11392,12.8517 0.86006,1.42158 0.8611,1.42225 2.22165,1.42975 1.91375,0.0105 4.51212,0.88041 6.34108,2.12281 0.85698,0.58214 1.79866,1.05872 2.09263,1.05906 1.80705,0.002 7.75378,-2.18726 11.06002,-4.07195 7.15246,-4.07718 10.25601,-9.98109 9.89003,-18.81387 -0.16018,-3.86574 -0.72699,-6.42932 -2.14854,-9.71735 -1.45931,-3.37536 -2.51231,-4.909926 -5.21175,-7.595228 -2.5024,-2.489295 -2.54762,-2.556561 -2.73259,-4.065095 -0.92521,-7.545636 -4.09793,-16.583346 -7.87576,-22.434685 -4.08627,-6.329077 -10.42479,-12.699782 -13.06132,-13.127631 -0.88417,-0.143481 -0.92251,-0.19302 -0.75418,-0.974342 0.73564,-3.414489 2.47608,-6.487301 5.27252,-9.308834 3.22182,-3.250727 6.36828,-5.119391 8.64481,-5.134101 1.00253,-0.0065 2.62181,1.042583 2.57909,1.670886 -0.0138,0.202992 -0.0668,0.193125 -0.15619,-0.02909 -0.19267,-0.478865 -1.5267,-1.118912 -2.33212,-1.118912 -1.30972,0 -3.40909,1.352552 -5.72573,3.688884 -1.99951,2.016499 -2.46437,2.675371 -3.75733,5.325433 -2.10331,4.310985 -2.11337,3.920295 0.14315,5.558061 1.05998,0.769328 2.60986,2.048214 3.44418,2.84197 1.25214,1.191276 1.58483,1.386844 1.90589,1.120384 0.38286,-0.317745 0.97988,-2.044546 1.60565,-4.644108 l 0.31845,-1.322917 0.34272,1.058334 c 0.20594,0.635947 0.3684,2.707301 0.40707,5.190002 0.0421,2.703403 0.17992,4.349738 0.39867,4.762499 0.82696,1.560387 4.29443,6.319373 4.60439,6.319373 0.61696,0 2.00648,-3.925399 2.80975,-7.9375 0.50368,-2.515778 0.7186,-7.101946 0.48161,-10.277209 -0.44792,-6.001503 -2.19711,-10.785321 -4.82021,-13.182688 -1.67807,-1.533663 -2.83262,-1.940101 -5.51114,-1.940101 -4.57175,0 -8.77543,1.961495 -12.56783,5.864322 -1.587,1.633209 -3.61267,4.536173 -4.33457,6.21181 -0.30365,0.704812 -0.52823,0.85051 -1.47555,0.957288 -1.12318,0.126598 -3.44526,1.143121 -5.65788,2.476817 l -1.19063,0.717668 1.19063,-1.277516 c 0.65484,-0.702634 1.48828,-1.552181 1.85208,-1.887883 1.20001,-1.107321 0.0153,-0.671076 -2.87336,1.058055 -1.54835,0.926829 -4.20116,2.343599 -5.89513,3.148376 -1.69396,0.804777 -3.77756,1.905789 -4.6302,2.446693 -2.32701,1.476214 -7.04088,5.029035 -8.39891,6.330218 -1.39703,1.338543 -3.74352,4.369165 -3.99406,5.158546 -0.21167,0.66692 -0.59305,0.710317 -0.72575,0.08258 -0.077,-0.364051 -0.18985,-0.293358 -0.52817,0.330729 -0.53697,0.990556 -0.5906,0.83496 -0.9843,-2.855719 -0.36033,-3.377878 -1.91669,-11.935447 -2.67558,-14.711533 -1.56637,-5.729941 -5.54161,-12.813948 -9.62851,-17.158354 -1.9398,-2.062017 -4.7594637,-4.274357 -5.0620687,-3.971753 -0.191035,0.191036 0.316557,5.601391 0.836903,8.920441 0.215761,1.376235 0.811838,4.216808 1.3246167,6.312383 0.512779,2.095574 0.882299,3.860166 0.821149,3.921315 -0.0612,0.06115 -1.3920337,-1.291143 -2.9575197,-3.005091 -3.862574,-4.22888 -6.998302,-6.952729 -8.00406701,-6.952729 -1.012085,0 0.375395,5.974235 2.31460601,9.966268 1.626381,3.348047 3.153577,4.798109 7.9332707,7.532587 1.81901,1.040662 3.71724,2.169428 4.21829,2.50837 1.07533,0.727415 1.39066,0.608896 0.61371,-0.230665 -0.89655,-0.968799 -5.149766,-7.905323 -4.962234,-8.092855 0.381294,-0.381291 6.318144,6.401253 8.833454,10.091761 1.10568,1.62228 2.68895,4.418283 2.5019,4.418283 -0.0788,0 -0.48041,-0.240098 -0.89253,-0.533551 -0.41211,-0.293453 -3.40706,-1.839684 -6.65542,-3.436068 -6.6627767,-3.274365 -8.7882947,-4.498886 -12.3884197,-7.137019 -2.49508401,-1.828372 -4.968588,-3.327551 -5.165408,-3.130731 -0.05643,0.05643 0.672169,0.990971 1.619111,2.076756 2.47301699,2.83562 2.56948099,3.084493 0.85973599,2.2181 -2.28965999,-1.160259 -4.46703699,-1.890998 -6.97988699,-2.342489 -2.8685293,-0.515396 -7.3045523,-0.896083 -8.6313943,-0.740721 -0.860455,0.100752 -0.986429,0.213483 -1.137312,1.017763 -0.09332,0.497454 -0.09735,1.021499 -0.0089,1.164544 0.08841,0.143046 0.06442,0.255851 -0.05331,0.250678 -0.117729,-0.0052 -0.866937,-0.911607 -1.664907,-2.0143 -2.460503,-3.400101 -6.007038,-6.321765 -9.926228,-8.177305 -3.303118,-1.563862 -5.865571,-2.107794 -9.789583,-2.078037 -3.756695,0.02849 -6.160173,0.599594 -9.419037,2.238119 -2.586476,1.300455 -5.761014,4.272734 -6.607623,6.186634 -0.625972,1.415115 -0.545529,1.797375 0.187643,0.891665 1.515675,-1.87236 4.018729,-2.960297 7.814769,-3.396641 5.385418,-0.619038 10.360497,0.829962 15.167998,4.417704 2.153805,1.607343 5.502785,5.012376 5.357764,5.44744 -0.0439,0.131708 -0.687748,0.445272 -1.430766,0.696808 -0.743019,0.251537 -2.048996,0.86735 -2.902172,1.368474 -2.139256,1.25652 -7.103587,6.2498 -8.797334,8.848635 -1.797295,2.757715 -5.796725,10.833657 -6.25207,12.624639 -0.244297,0.960877 -0.258258,1.243625 -0.04463,0.903886 0.170981,-0.271915 0.525123,-0.748165 0.786982,-1.058334 0.467388,-0.553612 0.469109,-0.549403 0.09399,0.229808 -0.886417,1.841307 -2.549643,7.336469 -2.963023,9.789583 -0.341805,2.028369 -0.406764,3.455466 -0.278351,6.11511 0.145277,3.008903 0.110628,3.516483 -0.261103,3.824993 -0.612309,0.50817 -2.204551,3.05097 -2.920479,4.66398 -1.090953,2.45796 -1.971552,6.37454 -2.129898,9.473 -0.255907,5.00749 0.93632,9.76633 3.404601,13.58966 1.51578,2.34792 5.464671,6.30899 7.753153,7.77707 5.899131,3.78434 11.398484,5.46782 21.695832,6.64163 1.926247,0.21957 1.935544,0.21507 3.980321,-1.92517 z m 0.982158,-31.10694 c -7.287292,-1.88335 -12.019413,-7.36078 -13.050033,-15.105428 -0.555956,-4.177757 0.623301,-9.311827 3.02333,-13.162516 1.512669,-2.426978 4.842169,-5.62691 7.263886,-6.981212 3.612663,-2.020316 8.7212683,-2.816611 12.4847133,-1.946033 7.820913,1.809172 14.822879,10.747499 14.814812,18.91178 -0.0024,2.411307 -0.840996,5.895462 -1.894953,7.872889 -0.455281,0.8542 -0.889618,1.49125 -0.965193,1.41567 -0.07558,-0.0756 -0.0052,-0.40512 0.156321,-0.73232 0.475905,-0.96389 0.915198,-4.335727 0.723582,-5.553932 -0.282858,-1.798277 -0.665975,-3.110777 -0.908032,-3.110777 -0.123144,0 -0.306947,0.664693 -0.40845,1.477096 -0.269557,2.157458 -1.995955,5.389003 -3.42865,6.417883 -0.973535,0.69915 -1.17591301,0.75724 -1.50197701,0.43117 -0.207262,-0.20726 -0.757428,-0.45295 -1.222591,-0.54599 -0.71004299,-0.14201 -0.97481899,-0.0401 -1.65010299,0.63521 -0.459135,0.45913 -0.80435,1.08307 -0.80435,1.45376 0,1.09374 -0.571394,1.32199 -2.977449,1.18938 -1.658777,-0.0914 -2.499114,-0.28335 -3.504842,-0.80048 -1.9178623,-0.98613 -3.7905063,-2.95586 -4.7215853,-4.966362 -0.701708,-1.515219 -0.79872,-2.018783 -0.815556,-4.233333 -0.02388,-3.140691 -0.436534,-3.987548 -2.168824,-4.450865 -1.619304,-0.433097 -2.428214,-0.383749 -3.782751,0.230772 -0.643482,0.291931 -1.262541,0.438145 -1.375686,0.324918 -0.113146,-0.113227 -0.304265,-0.979773 -0.42471,-1.925658 l -0.218989,-1.719792 -0.747118,1.259412 c -1.173882,1.978808 -1.553382,3.511395 -1.588115,6.413504 -0.05919,4.945551 1.275428,8.421904 4.466251,11.633474 4.147209,4.17418 11.3968763,5.82865 17.5936243,4.01509 1.236285,-0.36181 2.2796,-0.62603 2.318478,-0.58715 0.03888,0.0389 -0.742474,0.44549 -1.736336,0.9036 -4.291529,1.97809 -8.5172023,2.38152 -12.9487043,1.23624 z M -5.5439157,91.051014 c 2.628691,-1.353878 3.919475,-3.32048 3.919475,-5.971597 0,-2.720002 -1.44745,-4.887217 -4.089419,-6.12294 -1.884245,-0.881314 -5.2576883,-0.881761 -7.1437503,-9.47e-4 -2.513686,1.173922 -3.884792,2.826271 -4.252299,5.124532 -0.316485,1.979187 1.074743,4.850754 2.983902,6.158931 2.451797,1.679998 6.2069633,2.035304 8.5820913,0.812021 z M 30.666344,110.05663 c -0.65484,-0.12789 -1.927,-0.59473 -2.82702,-1.03743 -4.15871,-2.04559 -7.04546,-7.95267 -5.91977,-12.113476 0.84673,-3.129709 6.62886,-5.706052 11.75861,-5.239276 3.868,0.351964 6.18114,1.34922 8.04746,3.469466 1.66463,1.891118 2.038,2.861668 2.03483,5.289336 -0.002,1.73377 -0.13006,2.38932 -0.70648,3.62387 -1.3286,2.84553 -4.42906,5.19114 -7.80814,5.90713 -2.00188,0.42418 -2.82868,0.4423 -4.57949,0.10038 z m 8.14632,-9.19779 c 1.40009,-0.72447 2.17013,-1.926584 2.17144,-3.389853 0.002,-1.684263 -0.8213,-2.472417 -3.51589,-3.3678 -2.07726,-0.690252 -2.4729,-0.735867 -5.51207,-0.635511 -2.44674,0.08079 -3.54163,0.231445 -4.33251,0.59613 -0.58208,0.268408 -1.17739,0.518242 -1.32291,0.555186 -1.53051,0.388562 -2.77813,1.630537 -2.77813,2.76557 0,0.865579 0.83733,2.117502 1.53305,2.292117 0.33679,0.08453 1.03293,0.08544 1.54698,0.002 0.63053,-0.102321 1.37913,0.02802 2.30074,0.400601 3.32018,1.34223 4.21972,1.54276 6.52548,1.45468 1.68288,-0.0643 2.53461,-0.23371 3.38382,-0.67313 z m 22.67764,7.11866 -0.79375,-0.19035 0.79375,-0.17592 c 3.41601,-0.75708 4.47065,-1.09174 6.17507,-1.95948 6.10468,-3.10795 7.88367,-9.452023 5.02168,-17.907784 -0.85947,-2.539308 -1.1284,-2.613092 -1.52082,-0.41726 -0.22657,1.267815 -0.55103,2.131419 -1.00225,2.667666 -0.6315,0.750493 -0.70044,0.771181 -1.28771,0.386393 -0.57223,-0.374943 -0.64178,-0.366762 -0.89437,0.105216 -0.15064,0.281475 -0.27389,0.734246 -0.27389,1.006158 0,0.904197 -1.2648,5.365064 -1.7285,6.096289 -1.92018,3.028042 -4.97189,4.085662 -7.87208,2.728212 -1.52448,-0.713548 -1.8714,-1.035062 -2.54807,-2.361446 -0.32137,-0.629942 -0.93333,-1.343914 -1.35991,-1.586605 -0.72472,-0.412308 -0.77571,-0.547399 -0.77727,-2.05922 -0.001,-1.234884 0.1274,-1.78205 0.54346,-2.31099 1.21322,-1.542364 0.80537,-3.70252 -0.86185,-4.564672 -0.7146,-0.369535 -1.04099,-0.387124 -2.23309,-0.120343 -0.7679,0.171846 -1.86284,0.318889 -2.43322,0.32676 -0.98174,0.01355 -1.0547,0.07264 -1.36798,1.108053 -0.3223,1.065217 -0.42776,5.773399 -0.13976,6.239394 0.0792,0.128209 0.006,0.279129 -0.16274,0.335377 -0.21092,0.07031 -0.16058,0.325446 0.16107,0.816348 0.25733,0.392743 0.38096,0.714079 0.27473,0.714079 -0.10623,0 0.0199,0.327421 0.28036,0.727604 0.37599,0.57775 0.38696,0.656714 0.0532,0.383403 -0.23115,-0.189311 -0.84548,-1.201342 -1.36517,-2.248958 -3.75996,-7.579444 -1.07378,-16.676032 6.1797,-20.927176 8.33855,-4.887095 17.69266,-1.479142 22.37846,8.153074 3.87023,7.955705 3.24992,17.025994 -1.47666,21.592108 -1.6967,1.63911 -3.59088,2.69039 -5.93103,3.29178 -1.61998,0.41631 -4.425,0.48957 -5.83139,0.15229 z m -15.0328,-13.819568 c -0.0845,-0.211067 -0.14716,-0.148372 -0.15985,0.159852 -0.0115,0.278915 0.051,0.435185 0.13896,0.347266 0.0879,-0.08792 0.0973,-0.316122 0.0209,-0.507118 z m 21.30891,-5.53121 c 2.40646,-1.577474 3.11439,-4.667205 1.67521,-7.311443 -0.99513,-1.828388 -2.57446,-3.366016 -4.35588,-4.240882 -1.21793,-0.598127 -1.8328,-0.72623 -3.48577,-0.72623 -1.77312,0 -2.13313,0.08741 -3.08938,0.750091 -2.62739,1.820786 -2.79876,5.614218 -0.39594,8.764713 1.88995,2.47803 4.37655,3.672304 7.23814,3.476365 0.96752,-0.06625 1.8046,-0.313393 2.41362,-0.712614 z M -81.828215,143.79745 c 1.117064,-0.3745 2.626338,-1.02031 3.353942,-1.43513 0.727604,-0.41482 1.957323,-1.08264 2.732709,-1.48406 1.098496,-0.56869 5.557271,-4.10868 7.614758,-6.04564 2.696027,-2.53809 3.551227,-3.39895 3.46363,-3.48655 -0.05802,-0.058 -1.282727,0.20785 -2.721576,0.59082 -3.263073,0.8685 -4.979221,0.91001 -5.750152,0.13908 -0.853414,-0.85342 -0.674384,-2.3552 0.534263,-4.48163 1.25194,-2.2026 1.236385,-2.16596 0.919545,-2.16596 -1.090146,0 -8.27365,7.13217 -10.68771,10.61134 -1.920081,2.76724 -3.812787,6.29557 -4.071771,7.59049 l -0.169633,0.84817 h 1.375485 c 0.775155,0 2.261924,-0.29719 3.40651,-0.68093 z m 22.110663,-7.78574 c 2.667402,-1.30969 4.978433,-2.38125 5.135623,-2.38125 0.15719,0 0.361336,-0.12222 0.453659,-0.2716 0.218143,-0.35296 -2.026501,-4.75272 -2.425518,-4.75429 -1.019786,-0.004 -5.591719,4.3128 -7.379874,6.96806 -0.778645,1.15622 -1.23542,2.82033 -0.774142,2.82033 0.07724,0 2.322849,-1.07156 4.990252,-2.38125 z m 186.163052,1.5704 c 0,-1.30924 -2.45642,-5.97745 -5.14132,-9.77062 -1.84899,-2.61222 -5.33071,-6.35186 -5.91376,-6.35186 -0.22085,0 -1.00873,0.29276 -1.75084,0.65057 -0.7421,0.35782 -1.97657,0.69736 -2.74324,0.75455 -0.76668,0.0572 -1.44631,0.15633 -1.51029,0.22031 -0.064,0.064 0.24582,0.5281 0.68846,1.03138 3.91156,4.44755 5.40577,7.00836 5.1351,8.80064 l -0.15199,1.00641 2.57727,1.22086 c 2.19872,1.04155 7.42123,2.86133 8.47988,2.95482 0.18191,0.0161 0.33073,-0.21661 0.33073,-0.51706 z m -21.31737,-0.57821 c -0.55789,-1.78204 -3.15303,-4.46354 -6.226226,-6.43341 -1.7541,-1.12435 -1.96539,-1.19911 -2.21293,-0.78299 -0.15052,0.25303 -0.67949,1.00065 -1.1755,1.66138 -0.87022,1.15923 -0.88412,1.21447 -0.39687,1.57641 1.85641,1.37898 8.619426,4.55931 9.717046,4.56947 0.37804,0.004 0.441,-0.12282 0.29448,-0.59086 z m 9.01425,-1.25677 c -0.43656,-0.28913 -0.97234,-0.52148 -1.19063,-0.51634 -0.21828,0.005 0.0199,0.23749 0.52917,0.51634 1.22035,0.66811 1.67028,0.66811 0.66146,0 z M -83.369064,133.0791 c 0,-0.28228 -1.440935,0.62933 -1.727406,1.09285 -0.08575,0.13874 -0.07033,0.39073 0.03427,0.55997 0.202163,0.32711 1.693137,-1.12836 1.693136,-1.65282 z m 194.667174,-0.14457 c 1.82512,-0.48911 -0.87553,-4.92534 -5.23184,-8.59407 -1.92888,-1.62444 -4.7747,-3.44605 -5.2378,-3.35271 -0.21693,0.0437 -0.63728,0.99432 -1.007796,2.27907 -0.3496,1.21224 -0.82113,2.56276 -1.04783,3.00115 -0.2267,0.4384 -0.37364,0.8323 -0.32653,0.87535 0.16077,0.14691 5.374846,3.98835 6.234456,4.59321 1.34192,0.94423 5.05554,1.61655 6.61734,1.198 z m -203.59332,-1.18342 c 3.421902,-0.68003 8.084715,-2.10896 11.041401,-3.38366 2.541236,-1.09559 5.392312,-3.03663 5.221021,-3.55453 -0.0694,-0.20985 -1.326499,-0.35349 -3.875737,-0.44288 -3.567297,-0.12507 -3.80056,-0.16634 -4.278235,-0.75691 -1.08609,-1.34278 -0.435607,-3.03256 2.403272,-6.24308 0.836797,-0.94635 1.263859,-1.61929 1.068875,-1.68428 -0.1786,-0.0595 -1.533525,0.70281 -3.010944,1.69411 -4.299328,2.8847 -9.475593,8.38821 -12.427425,13.21309 -0.535928,0.876 -0.974415,1.69013 -0.974415,1.80919 0,0.24215 1.048622,0.10086 4.832187,-0.65105 z m 25.912963,-3.27192 c 2.582538,-0.86417 6.944582,-1.72257 8.772593,-1.72634 0.650081,-10e-4 0.736165,-0.0852 0.612998,-0.59687 -0.07881,-0.32742 -0.274217,-1.36922 -0.43424,-2.3151 -0.58207,-3.44057 -0.464105,-3.21073 -1.553077,-3.02601 -0.533207,0.0904 -2.316523,0.57664 -3.962924,1.08043 l -2.993456,0.916 -2.000192,2.08901 c -2.287601,2.38918 -3.257687,3.7157 -3.257687,4.45466 0,0.45949 0.108314,0.49074 1.003656,0.28957 0.552011,-0.12403 2.267559,-0.64844 3.812329,-1.16535 z m 87.138741,-6.61066 c 0.49902,-0.49902 0.64944,-0.92797 0.64944,-1.85208 0,-1.07856 -0.0628,-1.20265 -0.60855,-1.20265 -0.33469,0 -0.73797,0.12943 -0.89617,0.28763 -0.20713,0.20713 -0.3374,0.20713 -0.46541,0 -0.24581,-0.39773 -1.07949,-0.36064 -1.43165,0.0637 -0.33606,0.40492 -0.0361,1.72168 0.62059,2.72385 0.52908,0.80748 1.31134,0.79998 2.13175,-0.0204 z m 23.65376,0.12798 c 0.61894,-0.33124 1.33734,-2.13146 1.33734,-3.35118 v -0.95151 l -1.70963,0.10886 c -0.9403,0.0599 -1.77467,0.17389 -1.85415,0.25337 -0.0795,0.0795 -0.0417,0.89663 0.0841,1.8159 0.28423,2.07835 0.9658,2.75425 2.14237,2.12456 z m -121.487197,-0.52642 c 1.996364,-0.28528 4.326053,-0.6127 5.177086,-0.7276 1.493839,-0.20168 1.55931,-0.24388 1.893795,-1.22071 0.556414,-1.62494 2.142052,-3.79782 4.703863,-6.44594 1.31392,-1.35818 2.322282,-2.53609 2.240804,-2.61757 -0.282897,-0.2829 -4.961837,0.68484 -6.726217,1.39117 -1.440065,0.57649 -5.359883,2.90583 -5.908536,3.51112 -0.07276,0.0803 -0.668073,0.58152 -1.322917,1.11389 -2.467787,2.00624 -5.187135,5.00151 -4.848351,5.3403 0.261826,0.26183 0.835046,0.22058 4.790473,-0.34466 z m 12.717156,-2.01658 c 0.822761,-0.23024 2.597258,-0.77982 3.943325,-1.22128 2.390146,-0.78389 2.44762,-0.82206 2.456958,-1.6319 0.0053,-0.45609 0.224724,-2.05414 0.487698,-3.55124 0.262975,-1.49709 0.401478,-2.76937 0.307786,-2.82727 -0.38682,-0.23907 -3.522931,1.83189 -5.10207,3.3692 -1.774003,1.72701 -4.698809,5.44553 -4.698809,5.97393 0,0.42069 0.830495,0.38517 2.605112,-0.11144 z m 177.555817,-0.29626 c -0.78325,-2.06011 -7.31381,-7.5482 -10.9599,-9.21038 -0.58208,-0.26536 -1.16369,-0.53894 -1.29246,-0.60795 -0.13372,-0.0717 -0.14656,0.4297 -0.0299,1.16897 0.11229,0.71195 0.27718,2.65672 0.36642,4.32173 l 0.16224,3.02728 1.5875,0.65717 c 2.16681,0.89698 4.52008,1.30257 7.73251,1.33269 l 2.70543,0.0254 z m -202.469371,-3.89952 c 0.991779,-0.20959 3.112923,-0.79137 4.713652,-1.29286 3.704587,-1.16059 5.817191,-1.59441 6.803653,-1.39711 0.840609,0.16812 1.580202,-0.11826 2.522908,-0.9769 0.760022,-0.69224 0.748989,-0.88321 -0.0628,-1.08696 -1.659892,-0.4166 -1.853344,-2.49741 -0.414128,-4.45444 0.735779,-1.00051 3.44079,-3.42463 5.440173,-4.87527 l 0.791099,-0.57398 -2.645662,0.14389 c -1.542282,0.0839 -3.418078,0.0129 -4.497745,-0.17012 -4.204694,-0.712885 -3.68367,-0.836158 -6.352411,1.50296 -1.311013,1.14908 -3.01699,2.79535 -3.79106,3.65836 -2.749405,3.06533 -6.922153,8.94916 -6.922153,9.76066 0,0.27933 2.63936,0.13689 4.414474,-0.23823 z m 210.388211,-2.01655 c 0.71699,-0.15376 1.5205,-0.43815 1.78557,-0.63198 0.4583,-0.33511 0.44487,-0.4059 -0.2738,-1.44293 -1.24622,-1.79829 -7.25389,-7.43395 -10.07806,-9.454 -2.47017,-1.766834 -6.0878,-3.800562 -6.76052,-3.800562 -0.16375,0 0.30952,0.664438 1.05173,1.47653 1.52645,1.670182 1.65856,2.277492 0.64053,2.944532 -0.61094,0.40031 -1.24934,0.45363 -4.61867,0.38576 l -3.909736,-0.0788 0.53618,1.58772 c 0.626846,1.85622 0.672536,1.90056 2.746626,2.66537 2.3111,0.85221 5.46988,2.81451 7.55803,4.69522 1.19883,1.07973 2.12147,1.6914 2.69024,1.78348 0.4761,0.0771 1.1633,0.1938 1.5271,0.25937 1.00183,0.18058 5.62905,-0.0733 7.10478,-0.38975 z M -67.5144,108.35787 c 2.557799,-0.22096 6.174391,-0.53403 8.036872,-0.69569 l 3.386329,-0.29394 0.66166,-1.30572 c 0.363913,-0.71815 1.183674,-2.01483 1.821691,-2.88152 1.02018,-1.38582 1.141503,-1.69477 1.006343,-2.56265 -0.366037,-2.350371 -0.231601,-2.274723 -3.722026,-2.094384 -1.705409,0.08811 -3.815118,0.354764 -4.688243,0.592559 -3.498914,0.952925 -8.509632,3.880985 -11.443229,6.686945 -1.766741,1.68988 -2.008012,2.30161 -1.058333,2.68333 0.807055,0.3244 0.733058,0.32599 5.998936,-0.12893 z m 172.91064,-8.04081 c 0.23547,-0.381009 -3.22088,-3.391082 -5.517816,-4.805369 -1.96086,-1.207352 -7.02701,-3.156233 -8.20469,-3.156233 -0.37763,0 -0.0378,0.490127 1.32997,1.918229 1.7053,1.780516 2.99075,3.279167 3.91325,4.562316 0.3055,0.424937 1.09047,0.637412 4.039796,1.093491 4.52022,0.698996 4.261,0.676366 4.43949,0.387566 z M -70.933649,97.514833 c 1.819011,-0.215752 4.170495,-0.393312 5.225521,-0.394576 1.888593,-0.0023 1.918229,-0.01292 1.918229,-0.689917 0,-2.367458 3.626136,-5.766505 9.645448,-9.041396 1.594215,-0.867356 2.949965,-1.731185 3.012777,-1.91962 0.09135,-0.274044 -0.462265,-0.304637 -2.766282,-0.152866 -4.006675,0.263929 -7.554741,0.831193 -6.783089,1.08448 1.202862,0.394826 1.129908,0.436461 -4.925154,2.810823 -2.948523,1.1562 -3.465071,1.438533 -3.108677,1.699135 0.357056,0.261085 -0.0626,0.500203 -2.549325,1.452599 -5.706665,2.185605 -9.579253,4.763974 -8.069968,5.372984 0.683964,0.275986 5.212312,0.156506 8.40052,-0.221646 z m 16.438026,-2.153793 1.753652,-0.165656 0.165903,-1.411581 c 0.09125,-0.776369 0.457406,-2.21466 0.813686,-3.196201 0.356281,-0.981542 0.603421,-1.828983 0.549201,-1.883203 -0.167944,-0.167944 -4.532941,1.965017 -5.786966,2.827809 -1.566932,1.078077 -3.343741,2.954633 -3.347317,3.535229 -0.0025,0.401548 0.269383,0.462771 2.047669,0.46114 1.127786,-0.001 2.839664,-0.07643 3.804172,-0.167537 z M 117.44967,94.782162 c 0,-0.44123 -4.17948,-5.24383 -5.70508,-6.555659 -7.10036,-6.105423 -15.473086,-9.546445 -21.017826,-8.637904 l -1.45521,0.238445 0.88206,0.50952 c 5.16037,2.980861 9.32307,6.659061 9.29559,8.213666 -0.0123,0.698892 -0.86615,1.645326 -1.96759,2.181075 l -0.93499,0.454783 1.52184,0.756769 c 0.83701,0.416223 2.212616,1.176317 3.056916,1.689099 1.17596,0.714217 1.94968,0.974659 3.30729,1.113268 2.58832,0.264262 13.017,0.293855 13.017,0.03694 z M -79.202523,92.594937 c 2.345602,-0.226362 3.041549,-0.416661 5.159374,-1.410777 1.346423,-0.632017 3.519604,-1.650113 4.829292,-2.262437 1.309687,-0.612324 3.12539,-1.34517 4.034895,-1.628547 1.037996,-0.32341 1.653646,-0.659028 1.653646,-0.901474 0,-0.212434 -0.172733,-0.386244 -0.383852,-0.386244 -0.211118,0 -1.01479,-0.137757 -1.785937,-0.306127 -1.364653,-0.297954 -1.380894,-0.312128 -0.608336,-0.530902 0.436563,-0.123627 1.984375,-0.467419 3.439584,-0.763983 3.552374,-0.723956 6.746874,-1.588152 6.746874,-1.825207 0,-0.106287 -0.506015,-0.345259 -1.124479,-0.531048 -0.618463,-0.18579 -1.481667,-0.451353 -1.918229,-0.590141 -1.362489,-0.43315 -6.284075,-0.5604 -8.370152,-0.216415 -4.51821,0.745034 -9.901425,2.969395 -14.284337,5.902332 -2.51509,1.683035 -6.665778,5.390997 -6.441285,5.754234 0.158734,0.256837 4.892129,0.09827 9.052942,-0.303264 z M 96.600634,88.698463 c 0.28331,-0.288143 0.01,-0.669008 -1.55254,-2.163554 -1.74634,-1.670349 -5.5927,-4.233617 -6.35282,-4.233617 -0.24445,0 -0.23284,0.215227 0.0478,0.886991 0.32548,0.778992 0.84435,2.755565 1.30816,4.983288 0.175,0.840536 0.73588,0.967367 4.0358,0.912603 1.40632,-0.02334 2.29069,-0.159048 2.51355,-0.385711 z M -51.88365,81.08658 c 0,-0.08601 -0.392561,-0.614997 -0.872358,-1.175533 -0.479798,-0.560535 -1.343001,-1.827692 -1.918229,-2.815905 -1.649389,-2.833564 -1.556845,-2.783627 -3.999137,-2.15797 -3.415818,0.875051 -6.172977,2.444752 -5.491384,3.126344 0.1362,0.136201 1.402322,0.433445 2.813604,0.660543 2.467562,0.39707 5.788132,1.262658 8.012296,2.088601 1.205351,0.447608 1.455208,0.494639 1.455208,0.27392 z m 6.612043,-3.310421 c 0.672749,-1.391158 0.996691,-2.389791 0.922641,-2.84427 -1.293072,-7.936187 -1.462915,-9.381192 -1.159037,-9.86095 0.182473,-0.288088 0.231682,-0.267434 0.234885,0.09858 0.0022,0.254661 0.136807,0.463021 0.299064,0.463021 0.178235,0 0.119385,-0.268043 -0.14867,-0.677147 -0.244026,-0.372431 -0.406548,-0.852469 -0.361159,-1.066751 0.04641,-0.219086 0.835227,0.648334 1.802316,1.981901 0.945886,1.304328 1.852907,2.429443 2.015603,2.500256 0.162697,0.07081 0.78965,-0.546092 1.393231,-1.3709 1.643791,-2.246283 5.254776,-5.781337 6.976061,-6.829371 0.836745,-0.509466 1.521355,-1.080113 1.521355,-1.268105 0,-0.608667 -2.573889,-2.977563 -4.994349,-4.596582 -5.426159,-3.629499 -10.918521,-4.58965 -15.349764,-2.683381 -1.607606,0.691574 -3.27596,2.559021 -3.722463,4.166685 -0.661045,2.380138 -0.164611,7.623615 1.08188,11.427129 0.811951,2.477567 2.956505,6.951438 4.099555,8.552304 1.273283,1.783259 3.556686,4.151461 4.002809,4.151461 0.192106,0 0.815826,-0.964747 1.386042,-2.143883 z M 92.578844,76.240303 c 0.3638,0.0095 0.51263,0.0774 0.33073,0.150801 -0.9001,0.363196 -0.10433,0.618522 1.92772,0.618522 h 2.25845 l 2.45818,-1.56435 c 2.767706,-1.761336 7.060876,-4.690443 8.197896,-5.593187 0.67383,-0.535001 0.70535,-0.624771 0.29914,-0.852095 -0.75542,-0.422755 -5.72955,-1.739302 -8.197196,-2.169624 -3.03706,-0.529618 -8.07607,-0.530503 -9.85664,-0.0017 -1.32228,0.392674 -1.9197,1.066492 -1.51959,1.713892 0.0914,0.14789 -0.45384,1.574606 -1.21166,3.170479 -1.75318,3.692012 -1.68907,3.837701 1.60289,3.642451 l 2.25487,-0.13374 -1.5875,0.517179 c -1.77588,0.578548 -2.39388,1.040605 -2.17048,1.622781 0.12721,0.331481 0.49571,0.273051 2.35129,-0.372819 1.21024,-0.421249 2.4981,-0.7581 2.8619,-0.748559 z M -64.783202,75.323097 c 3.477658,-2.006087 4.382924,-2.432074 5.95424,-2.801857 0.763984,-0.179792 1.38666,-0.344784 1.383725,-0.36665 -0.0029,-0.02187 -0.402946,-1.289912 -0.888911,-2.817881 l -0.883572,-2.778125 -1.591484,-0.07791 c -1.719407,-0.08417 -6.065075,0.703576 -8.661861,1.570154 -4.138328,1.381011 -11.325291,5.526164 -10.691485,6.166423 0.204057,0.206134 5.726097,1.561501 8.567443,2.102851 1.164167,0.221804 2.354792,0.456129 2.645833,0.520721 0.913685,0.20278 1.645927,-0.06398 4.166072,-1.517726 z m 22.270181,-7.403727 c -0.170106,-0.443287 -0.639379,-0.607015 -0.639379,-0.223077 0,0.257404 0.590273,0.873755 0.716193,0.747834 0.04951,-0.04951 0.01494,-0.285647 -0.07681,-0.524757 z m 71.726135,-2.485265 c 0.6657,-1.272184 1.90068,-3.257635 4.00135,-6.432851 2.91653,-4.408433 4.61927,-8.830265 5.15742,-13.393333 0.52767,-4.474192 -0.36683,-12.280294 -1.85903,-16.223293 -0.64508,-1.704573 -1.50242,-3.175 -1.85121,-3.175 -0.36996,0 -2.78094,5.096565 -3.69541,7.811722 -0.78368,2.326811 -1.59742,5.789529 -2.7181,11.56637 -0.3032,1.562899 -0.63959,2.787045 -0.74755,2.720325 -0.10795,-0.06672 -0.27579,-0.976812 -0.37297,-2.022426 -0.35477,-3.81714 -2.13096,-10.49523 -3.54518,-13.329116 -0.91252,-1.828551 -2.1657,-3.609782 -2.42633,-3.448706 -0.1193,0.07373 -0.29777,0.939385 -0.3966,1.923673 -0.21892,2.180388 -0.36288,2.715658 -0.73037,2.715658 -0.40151,0 -0.11793,-4.898143 0.31369,-5.418208 0.51252,-0.617553 1.26778,-0.482155 2.10863,0.378022 1.81684,1.858605 3.67279,5.255574 4.49762,8.232065 0.29119,1.050814 0.58293,1.964057 0.6483,2.029428 0.0654,0.06537 0.20254,-0.457602 0.30482,-1.162163 0.10227,-0.70456 0.294,-1.489408 0.42606,-1.744104 0.13206,-0.254697 0.58742,-1.786863 1.01191,-3.404814 0.42448,-1.617951 0.93411,-3.135969 1.13251,-3.373373 0.19839,-0.237405 0.69783,-1.312666 1.10986,-2.38947 0.60104,-1.570765 0.68914,-2.054613 0.44564,-2.447396 -0.52981,-0.854642 -0.7788,-1.3378 -2.55434,-4.956767 -2.1126,-4.305975 -4.22056,-7.436403 -7.02829,-10.4373695 -1.90747,-2.0387496 -2.96923,-2.8331779 -3.31904,-2.4833673 -0.0676,0.067585 0.0615,1.0011902 0.28694,2.0746788 0.2254,1.073489 0.59032,3.485693 0.81093,5.360455 0.37246,3.165237 0.34177,4.563137 -0.0943,4.293166 -0.0987,-0.06109 -0.15273,0.383667 -0.12014,0.988345 0.1456,2.701757 -0.13524,2.588306 -1.88393,-0.761032 -2.91308,-5.579638 -4.9054,-8.563687 -8.2480867,-12.3538506 -1.832528,-2.077844 -4.678146,-4.3713897 -4.836013,-3.897789 -0.169126,0.5073789 1.159367,9.7342696 2.474457,17.1860446 0.458079,2.595642 0.505773,3.968749 0.137851,3.968749 -0.144756,0 -0.193564,0.377376 -0.111216,0.859896 0.109018,0.638785 -0.161451,0.298076 -1.051847,-1.32501 -3.051379,-5.562298 -6.68688801,-9.868444 -10.752323,-12.735787 -2.235841,-1.576933 -3.944838,-2.5190988 -4.166794,-2.2971426 -0.500313,0.5003131 2.978713,14.3772096 4.439028,17.7060856 0.265221,0.604587 0.55572,1.5755 0.645554,2.157583 l 0.163333,1.058333 -0.605446,-0.769117 c -3.655209,-4.643333 -7.2955063,-8.406723 -10.4885163,-10.843174 -2.066375,-1.576762 -2.420053,-1.732714 -2.420053,-1.067102 0,1.229089 4.19071,14.413985 5.519818,17.366564 0.797165,1.77088 2.3922053,4.297216 4.1402513,6.55762 0.506413,0.654844 1.322509,2.025663 1.813548,3.046265 1.43327,2.978988 4.131844,6.834899 4.51561899,6.452233 0.08759,-0.08734 -0.06804,-1.1589 -0.34584799,-2.38125 -0.277805,-1.222351 -0.649245,-3.603668 -0.825422,-5.291815 -0.282186,-2.703954 -0.270178,-3.166324 0.100871,-3.883853 0.231656,-0.447972 0.651883,-0.887713 0.93383899,-0.977203 1.13298,-0.359593 3.79629801,1.291901 6.96398801,4.318295 1.13485,1.084229 2.125013,1.909677 2.200362,1.834329 0.07535,-0.07535 -0.100478,-0.777733 -0.390727,-1.560853 -0.866179,-2.337042 -1.540217,-5.985502 -1.729472,-9.361355 -0.0979,-1.74625 -0.273121,-3.681016 -0.389385,-4.299479 -0.207689,-1.104792 -0.106424,-1.338849 0.392244,-0.906608 0.138245,0.11983 1.005704,0.506783 1.927688,0.859896 3.2196477,1.233103 7.9196677,5.641709 10.5669477,9.911765 2.27628,3.671638 4.99197,9.415417 6.37552,13.484425 0.69545,2.045314 1.61913,5.631848 1.6312,6.333684 0.009,0.499301 0.0414,0.489482 0.3875,-0.115976 0.36256,-0.634238 0.37849,-0.601574 0.38717,0.79375 0.0109,1.750652 0.82151,7.672916 1.05025,7.672916 0.0891,0 0.39567,-0.446485 0.68122,-0.992188 z m 64.29149,-7.086201 c 3.5265,-3.981113 4.96937,-5.958428 4.61008,-6.317714 -0.2956,-0.295601 -3.78302,-0.474883 -5.86459,-0.301489 l -2.2373,0.186366 0.0262,2.956134 c 0.0144,1.625874 -0.0732,4.073186 -0.19478,5.438472 l -0.22103,2.482338 0.88221,-1.02713 c 0.48521,-0.564921 1.83484,-2.102561 2.99916,-3.416977 z M -59.590915,53.858585 c 0.16279,-0.582083 0.296645,-1.14763 0.297457,-1.256771 0.0041,-0.547613 -7.940307,0.229179 -8.546827,0.835699 -0.180487,0.180487 -0.05998,0.445806 0.37001,0.814667 0.699108,0.599715 5.269835,3.888826 6.326209,4.552362 l 0.661458,0.415478 0.297856,-2.151551 c 0.16382,-1.183353 0.431047,-2.627801 0.593837,-3.209884 z m 100.621159,-0.17637 c 5.18895,-5.234391 6.66347,-8.744515 6.6502,-15.830921 -0.009,-4.709819 -0.95691,-8.731249 -2.05847,-8.731249 -0.88586,0 -2.6453,3.382911 -4.19708,8.069791 -0.69782,2.107655 -1.83665,7.015399 -2.85491,12.303124 -0.29424,1.527969 -0.82371,3.867588 -1.1766,5.199155 -0.35289,1.331566 -0.64162,2.574232 -0.64162,2.76148 0,0.420649 0.97355,-0.437514 4.27848,-3.77138 z M -6.2503577,51.146606 c -1.133831,-2.675263 -1.106045,-3.333815 0.125757,-2.980539 0.444189,0.127392 0.807616,0.137338 0.807616,0.0221 0,-0.115235 -0.341158,-0.970126 -0.758128,-1.899759 -0.41697,-0.929633 -0.961816,-2.313801 -1.210767,-3.075928 -0.312442,-0.956491 -0.771919,-1.658977 -1.483453,-2.268024 -2.4729543,-2.116757 -8.7881843,-4.459775 -9.6629143,-3.585045 -0.295593,0.295593 -0.311467,0.580503 -0.07927,1.422926 0.694347,2.519193 3.614998,7.215467 5.659215,9.09976 1.197693,1.103996 3.4736323,2.499735 5.2784743,3.237072 1.40453,0.573796 1.556368,0.576943 1.323475,0.02743 z M 48.836124,49.791404 c 2.62161,-2.526893 4.00878,-5.236825 4.69819,-9.178237 0.66482,-3.800811 0.42817,-8.847289 -0.41489,-8.847289 -0.25401,0 -1.06335,1.531169 -1.80825,3.420985 -0.28843,0.731756 -0.82964,3.133951 -1.20268,5.338211 -0.63043,3.725071 -1.576,7.186497 -2.61242,9.563199 -0.23796,0.545703 -0.33471,0.992187 -0.21499,0.992187 0.11972,0 0.81948,-0.580075 1.55504,-1.289056 z m -63.678109,0.880884 c 0,-0.07897 -0.457637,-0.763584 -1.016972,-1.521354 -1.930602,-2.615525 -4.22772,-7.033286 -5.050054,-9.71214 -0.53962,-1.757879 -1.178582,-2.250667 -4.292572,-3.310574 -1.766494,-0.601261 -2.790184,-0.770949 -5.118526,-0.848455 -1.622145,-0.054 -3.079431,0.01684 -3.292249,0.160043 -0.536258,0.360834 -0.124697,1.165616 1.511766,2.956168 1.369979,1.498976 2.71421,2.494361 8.158827,6.041509 1.761839,1.147832 3.997483,2.760656 4.968097,3.584054 2.587357,2.194923 4.131683,3.185711 4.131683,2.650749 z m 71.640939,-4.085536 c 1.3881,-1.49135 3.50072,-7.336285 3.50072,-9.685359 0,-0.787242 -0.0978,-1.431349 -0.21739,-1.431349 -0.20845,0 -2.03717,3.122119 -2.63457,4.497917 l -0.28722,0.661458 -0.022,-0.661458 c -0.0175,-0.526739 -0.0742,-0.580627 -0.27844,-0.264583 -0.20634,0.319291 -0.25727,0.277447 -0.26053,-0.214053 -0.002,-0.33601 0.10195,-0.545411 0.23152,-0.465336 0.12956,0.08008 0.31355,-0.270085 0.40886,-0.778135 0.0953,-0.508049 0.25722,-0.923726 0.3598,-0.923726 0.10257,0 0.4246,-0.744141 0.71561,-1.653646 0.71448,-2.232968 0.73194,-8.276261 0.0334,-11.57552 -1.00324,-4.738641 -2.59964,-9.463822 -3.35509,-9.930718 -0.11672,-0.07214 -0.83399,0.971904 -1.59393,2.320092 -0.75993,1.348188 -1.93868,3.34422 -2.61943,4.435626 -0.68074,1.091406 -1.63598,2.736104 -2.12275,3.654883 -0.48677,0.91878 -1.15862,1.885708 -1.49299,2.148729 -0.60602,0.476695 -0.60628,0.479742 -0.0799,0.956075 0.70735,0.640146 2.00958,3.356607 2.44953,5.109731 l 0.35594,1.418377 0.71897,-1.469511 c 0.88575,-1.810423 2.04372,-3.087035 2.80014,-3.087035 0.42236,0 0.72066,0.325815 1.15061,1.256771 0.54077,1.170887 0.57881,1.627427 0.55662,6.680729 -0.0242,5.51775 -0.0469,5.69274 -1.3274,10.257877 l -0.16846,0.600586 1.36016,-0.683171 c 0.74809,-0.375744 1.56627,-0.904607 1.81817,-1.175251 z m 8.99062,-8.948427 c 0.63158,-0.39219 1.3861,-0.891666 1.67672,-1.109947 0.646,-0.485209 1.5168,-3.713255 1.67776,-6.219392 0.11849,-1.844971 0.006,-2.511858 -0.42257,-2.511858 -0.37959,0 -5.63132,5.182826 -6.38593,6.30214 -0.48932,0.725813 -0.70029,1.479394 -0.8282,2.958276 -0.0944,1.091407 -0.2452,2.57793 -0.33512,3.303385 l -0.16349,1.31901 1.81626,-1.664271 c 0.99894,-0.915349 2.333,-1.985153 2.96457,-2.377343 z m -110.639748,2.821509 c 2.036814,-0.392764 2.218032,-0.596094 0.886757,-0.994954 -0.600921,-0.18004 -1.051066,-0.368864 -1.000322,-0.419607 0.05074,-0.05074 1.699444,0.06627 3.663779,0.260025 1.964335,0.193758 4.389825,0.426937 5.389979,0.518176 l 1.818461,0.165888 -0.703777,-0.836391 c -0.387077,-0.460016 -0.869466,-1.232941 -1.071974,-1.717612 -0.308534,-0.738425 -0.596346,-0.947111 -1.776143,-1.287841 -3.510056,-1.013718 -7.651653,-1.36121 -11.608589,-0.973993 -2.883723,0.282195 -3.68998,0.463885 -3.68998,0.831537 0,0.276747 5.862321,4.738222 6.239726,4.748695 0.157631,0.0044 0.991069,-0.127891 1.852083,-0.293923 z m 30.442805,-6.792132 c -0.5112,-1.16268 -1.53727,-3.807792 -2.280155,-5.878027 -0.742885,-2.070235 -1.512608,-4.07716 -1.710497,-4.459834 -0.580255,-1.122089 -5.328653,-3.669551 -5.856342,-3.141862 -0.148244,0.148244 2.095778,3.46654 3.161471,4.674954 0.476839,0.5407 0.491017,0.612023 0.09322,0.468976 -0.405786,-0.145922 -0.42902,-0.09373 -0.172041,0.386436 0.230935,0.431506 0.224286,0.510138 -0.02986,0.35307 -0.179828,-0.11114 -0.545415,-0.214805 -0.812418,-0.230367 -0.267002,-0.01556 -1.173546,-0.630938 -2.014542,-1.367502 -2.621764,-2.296202 -4.90112,-3.98812 -6.710431,-4.981011 -1.847934,-1.014086 -2.62386,-1.188118 -2.62386,-0.588505 0,0.517402 6.262588,12.803435 7.079709,13.889072 0.445499,0.591896 1.398131,1.2355 2.813331,1.900706 l 2.139746,1.005774 0.827857,-0.511644 c 0.455322,-0.281404 1.170991,-0.507577 1.590377,-0.502607 0.875245,0.01037 4.808533,0.906073 5.053188,1.150729 0.472765,0.472764 0.283282,-0.275953 -0.54876,-2.168358 z M 42.433104,30.48464 c 1.35788,-2.629102 2.5965,-3.900022 3.47829,-3.569002 0.42062,0.157896 0.44689,0.124264 0.16967,-0.217255 -0.18039,-0.222239 -0.56834,-1.810012 -0.86211,-3.528385 -0.59267,-3.466724 -1.90952,-7.681596 -3.19652,-10.231121 -1.10457,-2.188149 -2.91611,-5.0470054 -3.08871,-4.8744087 -0.0748,0.074839 -0.23784,1.2413191 -0.36224,2.5921777 -0.22478,2.441058 -1.20195,8.664219 -1.47025,9.363403 -0.0772,0.201139 -0.23143,0.30941 -0.34276,0.240603 -0.11133,-0.06881 -0.40764,0.527338 -0.65846,1.324767 -0.25083,0.79743 -0.54726,1.3935 -0.65874,1.324602 -0.11148,-0.0689 -0.21422,-2.182407 -0.22831,-4.696686 -0.0284,-5.073975 -0.27074,-8.8795127 -0.5774,-9.0690417 -0.34035,-0.2103505 -2.74816,5.4786587 -2.74343,6.4820017 0.004,0.788359 1.15515,3.977043 1.91395,5.300351 0.12791,0.223058 0.31669,0.788605 0.41952,1.256771 0.10282,0.468166 0.28742,0.851211 0.41021,0.851211 0.602,0 2.01713,1.615707 2.66013,3.037167 0.76978,1.701735 2.21877,6.649735 2.51457,8.586762 l 0.17912,1.172888 0.5901,-1.450444 c 0.32456,-0.797745 1.15858,-2.551107 1.85337,-3.896361 z m -73.000332,1.580286 c -1.100246,-2.171232 -2.288754,-2.895161 -5.507568,-3.354705 -1.1144,-0.1591 -1.256478,-0.123571 -1.254186,0.313636 0.0037,0.704079 1.174653,3.125509 1.826818,3.777674 0.482092,0.482092 0.87013,0.551847 3.069845,0.551847 h 2.517999 z"
       id="path35" /></g></svg>
