<?xml version="1.0" encoding="UTF-8" standalone="no"?>
<!-- Created with Inkscape (http://www.inkscape.org/) -->

<svg
   width="192.22227mm"
   height="201.22792mm"
   viewBox="0 0 192.22227 201.22794"
   version="1.1"
   id="svg1"
   xml:space="preserve"
   xmlns="http://www.w3.org/2000/svg"
   xmlns:svg="http://www.w3.org/2000/svg"><defs
     id="defs1" /><g
     id="layer1"
     transform="translate(-91.847021,-15.40232)"><path
       style="fill:#000000"
       d="m 221.82676,216.3615 c -2.38706,-0.53748 -4.59766,-1.72812 -6.76396,-3.64309 l -0.54626,-0.48287 -22.3402,-0.11211 c -21.89876,-0.10989 -27.03269,-0.20561 -36.62771,-0.68291 l -4.76249,-0.23691 -0.88297,1.04652 c -0.48563,0.57558 -1.01004,0.96798 -1.16536,0.87199 -0.15922,-0.0984 -0.20576,-0.0505 -0.1067,0.10975 0.2539,0.41082 -0.97013,1.28196 -2.52862,1.7996 l -1.34641,0.44721 -2.40893,-0.13503 c -2.5738,-0.14428 -5.60832,-1.05298 -5.28161,-1.58161 0.10315,-0.16689 0.0528,-0.20893 -0.12138,-0.1013 -0.46754,0.28896 -1.6905,-0.47643 -2.95745,-1.8509 -0.64294,-0.69752 -1.99532,-1.70511 -3.02898,-2.25676 -1.02709,-0.54813 -1.83471,-1.13015 -1.79473,-1.29338 0.04,-0.16322 -0.0505,-0.22065 -0.20099,-0.12761 -0.3144,0.19431 -1.72379,-0.83019 -1.72379,-1.25304 0,-0.15485 -0.19544,-0.31023 -0.43431,-0.34529 -0.62961,-0.0924 -2.09392,-1.46868 -1.8987,-1.78455 0.0912,-0.14756 0.0421,-0.19185 -0.10901,-0.0984 -0.15116,0.0934 -0.77339,-0.37103 -1.38275,-1.0321 l -1.10792,-1.20195 -1.15134,0.4397 c -0.63324,0.24183 -1.29796,0.34909 -1.47714,0.23835 -0.20227,-0.12501 -0.2582,-0.092 -0.14751,0.0871 0.11393,0.18434 -0.25938,0.35412 -1.03408,0.47029 -5.09768,0.76444 -7.36821,-2.0256 -6.86123,-8.43113 0.10588,-1.33779 0.18195,-2.49187 0.16904,-2.56464 -0.0129,-0.0728 -1.00029,-0.27253 -2.19418,-0.44394 -2.89486,-0.41563 -4.36109,-1.01353 -5.54978,-2.26311 l -0.98752,-1.03809 -0.31837,-1.32713 -0.31837,-1.32713 0.31926,-1.97907 c 0.17559,-1.08849 0.60659,-2.82388 0.95778,-3.85642 0.35119,-1.03255 0.60902,-1.89318 0.57296,-1.91252 -0.0361,-0.0194 -0.76619,-0.2485 -1.62248,-0.50923 -1.58965,-0.48403 -2.50229,-1.22402 -3.297359,-2.67356 l -0.435366,-0.79375 0.02564,-2.11667 0.02564,-2.11667 0.73324,-2.11666 c 0.403285,-1.16417 0.854735,-2.26837 1.003225,-2.45379 0.42544,-0.53124 0.10615,-0.63984 -2.181058,-0.74186 -8.524188,-0.38022 -8.24329,-9.57767 0.592464,-19.39911 l 0.808711,-0.89893 -0.504955,-0.36287 c -0.277726,-0.19957 -0.714676,-0.5392 -0.971001,-0.75471 -0.256325,-0.21552 -0.588854,-0.39186 -0.738954,-0.39186 -0.570757,0 -4.67595,-4.39926 -5.267871,-5.64523 l -0.607905,-1.27961 0.146969,-1.42399 c 0.343925,-3.33231 8.58235,-12.59027 10.31735,-11.59415 0.17634,0.10124 0.23208,0.0864 0.12387,-0.033 -0.10822,-0.11942 0.051,-0.39069 0.35391,-0.60283 l 0.55067,-0.38571 -0.95461,-0.97761 c -0.52503,-0.53768 -0.86289,-1.06933 -0.75079,-1.18143 0.1121,-0.1121 0.0381,-0.16413 -0.16439,-0.11562 -0.44233,0.10595 -2.643281,-2.52003 -3.801027,-4.53504 l -0.832098,-1.44824 -0.01287,-1.33705 c -0.01281,-1.33094 0.761073,-3.57168 1.233551,-3.57168 0.132008,0 0.177064,-0.10186 0.100125,-0.22635 -0.448618,-0.72588 8.637689,-7.49352 11.287309,-8.40699 0.70985,-0.24473 0.56828,-0.693376 -0.75139,-2.381183 -1.47315,-1.884096 -3.11852,-5.068803 -3.70077,-7.163025 l -0.42953,-1.544953 0.30776,-1.14294 c 0.61546,-2.285625 3.6825,-4.712962 7.5657,-5.987694 1.1558,-0.379413 2.25036,-0.739746 2.43236,-0.80074 l 0.33089,-0.110897 -0.77279,-1.529595 c -0.42504,-0.841276 -1.03767,-2.3035 -1.3614,-3.249385 l -0.5886,-1.719792 0.007,-3.307291 c 0.0161,-8.163472 3.49577,-12.934715 9.19821,-12.612552 l 0.79375,0.04484 0.16474,-2.910417 c 0.29728,-5.252111 1.4116,-9.193288 3.10087,-10.967294 l 0.96772,-1.016268 1.18789,-0.319345 c 1.64548,-0.442361 3.24257,-0.158574 5.2178,0.927148 2.17914,1.197807 2.03604,1.278969 2.41936,-1.372179 0.5616,-3.88422 4.10138,-13.349031 4.82516,-12.901711 0.12889,0.07966 0.17271,-0.0158 0.0974,-0.212146 -0.20331,-0.529797 2.73677,-3.640699 3.97036,-4.201056 2.64728,-1.202521 5.20307,0.04716 8.69706,4.252518 l 0.97804,1.177165 0.41065,-0.586279 c 0.22585,-0.322454 0.53996,-0.50636 0.698,-0.408681 0.17219,0.106415 0.21125,0.05444 0.0975,-0.129671 -0.20999,-0.339778 0.39416,-1.288943 2.21025,-3.47247 3.44822,-4.145865 5.65409,-5.562437 8.6618,-5.562437 h 1.42452 l 1.24797,0.655025 c 1.28404,0.67395 2.4386,1.549023 2.4386,1.848271 0,0.191161 1.91183,1.99148 2.11667,1.993209 0.0728,6.15e-4 0.8312,-0.780434 1.68542,-1.735664 1.9712,-2.204287 6.38758,-5.782264 6.8128,-5.519465 0.19009,0.117484 0.24513,0.08185 0.13895,-0.08997 -0.22036,-0.356538 2.17118,-1.746739 4.21389,-2.449532 4.45177,-1.531634 6.64178,0.297933 8.47056,7.076431 l 0.0872,0.3231 1.79717,-0.697667 c 11.36331,-4.411273 16.16745,-3.642214 16.91375,2.707595 l 0.17468,1.486306 0.42416,-0.134804 c 0.23329,-0.07414 2.00268,-0.68802 3.93197,-1.364173 l 3.5078,-1.229369 1.92629,-0.145685 1.92629,-0.145684 1.08646,0.55427 1.08645,0.554271 0.6205,1.26562 0.6205,1.26562 0.0951,2.16031 c 0.0523,1.188171 -0.0204,2.701759 -0.16155,3.363529 -0.32785,1.537177 -0.37206,1.515014 1.87105,0.938032 5.53584,-1.423951 8.674,-0.60575 9.70938,2.531486 l 0.33371,1.011148 -0.17064,1.835994 c -0.0939,1.009798 -0.29332,2.065229 -0.44326,2.345403 -0.40445,0.755722 -0.0812,1.056903 0.7534,0.70191 0.416,-0.176952 2.1656,-0.308543 4.15782,-0.312719 l 3.43958,-0.0072 1.25366,0.615089 c 3.79136,1.860167 4.3992,5.648635 1.68536,10.504225 -0.74636,1.335391 -0.69303,1.432593 0.78597,1.432593 4.76115,0 10.4794,2.805485 12.06895,5.921262 l 0.5358,1.050255 -0.11266,1.358545 c -0.14225,1.715331 -1.36287,4.344048 -2.88999,6.223856 -0.64939,0.799355 -1.262,1.586799 -1.36138,1.749876 -0.11698,0.19198 0.68012,0.601679 2.26118,1.162203 3.90257,1.383558 8.0624,3.697706 7.70023,4.283701 -0.0994,0.160863 -0.0622,0.219184 0.0828,0.129602 0.14495,-0.08958 0.62627,0.219443 1.0696,0.686724 2.66729,2.811395 2.17271,5.441862 -1.79073,9.524154 -2.5056,2.580736 -2.50404,2.572667 -0.64667,3.342502 10.38263,4.303363 12.40253,10.831195 5.02248,16.231465 -1.01864,0.74539 -1.90333,1.3933 -1.96596,1.43981 -0.0626,0.0465 0.32432,0.48594 0.85989,0.97651 0.53558,0.49057 0.97378,0.84226 0.97378,0.78154 0,-0.18708 2.75111,1.96284 3.21941,2.51588 0.24271,0.28663 0.3654,0.59702 0.27265,0.68977 -0.0928,0.0928 0.006,0.11355 0.22017,0.0462 0.5166,-0.16266 4.04468,3.72728 3.84723,4.24182 -0.0798,0.20792 -0.039,0.31247 0.0907,0.23232 0.83398,-0.51542 1.04835,3.30006 0.25936,4.61616 -1.04213,1.73837 -4.43154,4.7164 -4.98124,4.37666 -0.67264,-0.41571 0.0395,0.79396 1.19165,2.02415 8.09442,8.64278 7.9841,16.19694 -0.24886,17.04043 -0.96493,0.0989 -1.75441,0.22509 -1.75441,0.28052 0,0.0554 0.5814,1.3189 1.292,2.80773 2.4926,5.22238 3.75745,13.65502 1.87355,12.49071 -0.12021,-0.0743 -0.30473,0.004 -0.41003,0.17469 -0.11957,0.19347 -0.0768,0.2389 0.11401,0.12099 0.63728,-0.39385 0.27052,0.45654 -0.51226,1.18776 -1.14085,1.06572 -2.58536,1.39452 -5.20154,1.18399 -2.06558,-0.16622 -2.48263,-0.0538 -1.95383,0.52663 2.69067,2.95344 3.39365,13.88419 1.08073,16.80448 l -0.79518,1.004 -1.35163,0.44894 -1.35163,0.44894 -1.90976,-0.17306 -1.90977,-0.17306 -0.1506,4.5716 -0.15059,4.5716 -0.549,2.09111 c -0.60181,2.29224 -1.45377,3.63174 -2.72951,4.29145 l -0.82936,0.42887 -1.47207,-0.1522 c -0.80964,-0.0837 -1.7102,-0.22243 -2.00124,-0.30826 l -0.52917,-0.15606 -0.0253,3.00391 c -0.016,1.89957 -0.19811,3.70891 -0.49529,4.92157 l -0.46995,1.91765 -0.83072,0.88082 c -1.29537,1.3735 -3.80654,1.83771 -6.31373,1.16714 l -1.13117,-0.30254 -1.45232,0.81165 c -0.79877,0.44641 -2.16668,1.02334 -3.03981,1.28208 l -1.5875,0.47042 -2.64583,-0.0103 c -1.66921,-0.007 -3.28065,-0.18242 -4.36563,-0.47658 -2.44605,-0.66315 -2.37638,-0.68161 -2.93124,0.77679 -1.33381,3.50584 -5.18414,5.23092 -9.50417,4.25819 z m 4.90032,-4.66043 c 1.00952,-0.97846 1.44591,-2.15337 1.4482,-3.89899 l 0.001,-1.12623 0.59531,-0.50973 c 0.32742,-0.28036 1.41875,-0.94399 2.42517,-1.47475 3.10017,-1.63492 5.33775,-3.86258 7.14073,-7.10907 1.152,-2.0743 1.61721,-2.54462 2.51699,-2.54462 h 0.77714 l 0.55868,0.71025 0.55867,0.71024 -0.1643,0.81111 c -0.4803,2.37105 -5.16972,8.32221 -7.51235,9.53363 -1.28289,0.66341 -0.73572,0.92924 2.29244,1.11372 3.62631,0.22092 6.62599,-0.64885 7.08663,-2.05481 0.0758,-0.23136 0.44296,-0.58397 0.81592,-0.78357 l 0.6781,-0.36291 1.76491,0.49352 c 0.9707,0.27143 2.27196,0.54681 2.89169,0.61195 l 1.12677,0.11844 0.43823,-1.01901 0.43823,-1.01901 0.12109,-4.68072 0.1211,-4.68073 0.62565,-0.58777 0.62566,-0.58777 1.78929,0.29971 c 1.77341,0.29706 2.81134,0.40118 3.43614,0.34469 0.55668,-0.0503 1.07293,-1.41581 1.41201,-3.73477 l 0.32646,-2.23268 -0.15389,-4.67859 -0.15389,-4.67859 0.50597,-0.4579 0.50598,-0.4579 2.59701,0.43265 c 3.44297,0.57359 4.15996,0.55409 4.79778,-0.13052 1.93856,-2.08081 0.2632,-10.53926 -3.19717,-16.14164 l -0.59425,-0.96211 0.3175,-0.69685 c 0.50064,-1.09879 1.22143,-1.21415 5.06642,-0.81087 3.74912,0.39321 4.53691,0.28434 5.06362,-0.69984 0.99326,-1.85591 -1.21034,-8.4475 -4.36396,-13.05383 -1.3758,-2.00956 -1.41427,-2.19318 -0.66037,-3.15162 l 0.54837,-0.69714 2.69278,-0.006 c 3.32848,-0.008 4.63645,-0.29463 5.40475,-1.18522 l 0.59532,-0.69006 v -0.9849 c 0,-2.24079 -2.78404,-6.52025 -6.72167,-10.33218 l -1.745,-1.68928 v -0.71199 c 0,-0.8373 0.60253,-1.42285 2.7513,-2.67379 0.85836,-0.49971 2.07875,-1.4139 2.71197,-2.03153 l 1.15131,-1.12296 v -0.91382 -0.91382 l -1.27959,-1.53509 c -0.70378,-0.8443 -2.04323,-2.24231 -2.97656,-3.10668 -0.93334,-0.86437 -1.66426,-1.67689 -1.62427,-1.8056 0.04,-0.12871 -0.05,-0.15821 -0.1999,-0.0655 -0.14993,0.0927 -0.77796,-0.23194 -1.39562,-0.72133 -0.61766,-0.48939 -1.63379,-1.21604 -2.25806,-1.61477 -1.29712,-0.82848 -1.7868,-1.68232 -1.53657,-2.6793 l 0.17366,-0.69194 2.28307,-1.47283 c 2.6915,-1.73631 4.66149,-3.50864 5.11386,-4.60073 l 0.3246,-0.783664 -0.30375,-0.733317 c -0.65045,-1.570323 -4.64397,-4.388489 -9.45954,-6.675448 l -2.95222,-1.402036 -0.28278,-0.620634 c -0.45558,-0.999906 0.0445,-1.773243 2.19144,-3.389105 7.24582,-5.453363 5.99439,-8.480978 -4.98843,-12.068553 -1.5501,-0.506344 -2.89616,-1.122427 -3.27071,-1.496978 l -0.63651,-0.636504 0.16449,-0.822415 c 0.0905,-0.452328 0.85605,-1.664826 1.70129,-2.69444 1.61114,-1.962566 3.133,-4.440107 3.47286,-5.653707 0.85027,-3.036221 -6.20127,-5.639146 -13.05878,-4.820373 l -2.5703,0.306888 -0.38146,-0.316584 c -0.73648,-0.611219 -0.42052,-1.657819 1.11476,-3.692667 0.82293,-1.090695 1.90193,-2.834118 2.39779,-3.874272 l 0.90155,-1.891189 -0.0827,-1.149543 -0.0827,-1.149543 -0.79375,-0.398851 -0.79375,-0.398851 -3.0427,0.0095 -3.04271,0.0095 -1.66579,0.491842 -1.66579,0.491841 -0.88309,1.031696 -0.8831,1.031696 -0.96283,0.156247 -0.96283,0.156246 -0.52318,-0.473472 c -0.71241,-0.644718 -0.65855,-1.183536 0.24268,-2.42764 1.46163,-2.01772 2.68497,-5.476192 2.79412,-7.899146 l 0.0483,-1.071787 -0.54736,-0.102928 c -0.30105,-0.05661 -1.32127,-0.09059 -2.26715,-0.0755 l -1.7198,0.02743 -2.55683,0.821659 c -1.40626,0.451913 -3.94279,1.534477 -5.63672,2.405699 l -3.07989,1.584039 -0.50878,-0.272289 c -1.86671,-0.999036 -0.87397,-2.851748 2.42655,-4.528544 0.63447,-0.322339 1.19109,-0.612803 1.23692,-0.645476 0.3213,-0.229037 0.90838,-3.829353 0.93849,-5.755352 l 0.0365,-2.334836 -0.52916,-0.393774 -0.52917,-0.393773 -1.102,0.161762 c -4.49035,0.659142 -10.12065,3.407146 -8.56739,4.181528 0.35714,0.178056 1.02051,0.810362 1.47415,1.405124 l 0.8248,1.081386 0.45931,2.125817 c 0.25262,1.169199 0.48222,3.424148 0.51022,5.010997 l 0.0509,2.885181 -0.46637,0.714657 c -0.59062,0.905072 -1.65784,1.192341 -2.558,0.688557 l -0.67979,-0.380451 -0.29919,-3.61758 c -0.35404,-4.280843 -0.48799,-4.904797 -1.22176,-5.690905 l -0.55567,-0.595313 -1.07836,0.0038 -1.07836,0.0038 -2.64583,1.275266 c -2.97964,1.436157 -5.5713,3.043561 -8.3732,5.193235 l -1.90478,1.461392 h -0.86138 c -6.15218,0 4.01784,-9.368249 12.68714,-11.686934 l 1.23034,-0.329067 0.0208,-1.069603 c 0.11063,-5.677285 -0.2938,-6.758145 -2.52876,-6.758145 -2.46956,0 -10.66713,2.625048 -12.96294,4.151024 -1.30138,0.865009 -2.26007,0.204458 -2.76053,-1.902066 -2.10424,-8.856952 -4.37884,-8.693816 -14.10055,1.0113 l -3.36006,3.354325 h -0.70064 -0.70063 l -2.5887,-2.508175 c -1.42378,-1.379496 -2.92047,-2.634318 -3.32599,-2.788495 l -0.73729,-0.28032 -0.76249,0.265805 c -0.41937,0.146193 -1.39288,0.80436 -2.16335,1.462594 -0.77047,0.658234 -1.49798,1.108836 -1.61668,1.001336 -0.1187,-0.107499 -0.13649,-0.05684 -0.0395,0.112576 0.0972,0.169777 -0.59639,1.332525 -1.54529,2.590637 -0.94687,1.255434 -1.975,2.779347 -2.28473,3.386473 -2.00922,3.938389 -3.80739,4.714852 -5.28492,2.282059 -0.34859,-0.57397 -1.07686,-1.65198 -1.61838,-2.395577 -0.54152,-0.743597 -0.91007,-1.472541 -0.81902,-1.619876 0.0911,-0.147335 0.0478,-0.195085 -0.0962,-0.106111 -0.14396,0.08897 -0.70162,-0.302432 -1.23925,-0.869791 -1.78478,-1.88348 -2.78746,-1.766814 -4.22633,0.491752 -3.84271,6.03183 -6.10184,15.032397 -5.18703,20.665587 l 0.33776,2.079849 -0.43407,0.662479 c -1.48546,2.267105 -3.51527,0.769351 -3.81582,-2.815618 l -0.15854,-1.891036 -0.55201,-0.468735 c -0.86699,-0.7362 -4.13275,-2.32408 -4.77988,-2.32408 -1.69061,0 -3.30667,5.2531 -3.31119,10.763208 l -0.002,1.899668 1.15394,0.576308 c 1.69283,0.845438 4.51697,3.031832 5.46925,4.234183 0.96595,1.219612 1.18326,1.26363 2.09358,0.424072 3.71528,-3.426478 9.39126,-5.902402 10.5875,-4.618383 1.05008,1.127121 0.50153,1.88955 -2.76599,3.844483 -13.47689,8.063115 -24.74036,25.098556 -24.74036,37.418569 v 1.82071 l -1.52136,0.96838 c -3.51253,2.2358 -6.45978,6.08292 -7.36399,9.61242 l -0.43698,1.7057 0.17875,1.9726 c 0.30358,3.35015 1.94727,7.14699 4.47083,10.32744 0.51386,0.64761 0.86408,1.29109 0.77826,1.42994 -0.0858,0.13885 -0.0321,0.17584 0.11946,0.0822 0.34291,-0.21193 0.93223,0.45435 0.66388,0.75057 -0.10788,0.11909 -0.0398,0.12623 0.15126,0.0159 0.39784,-0.22976 1.43966,0.58663 1.21419,0.95145 -0.0802,0.12968 -0.0476,0.20595 0.0724,0.16949 0.24558,-0.0746 4.00831,2.66713 4.54075,3.30869 0.36572,0.44066 0.3401,0.75855 -0.31344,3.88824 -2.19489,10.51107 -1.8556,24.38966 0.76391,31.24785 l 0.6672,1.7468 -0.43302,2.35424 c -0.2504,1.36134 -0.49104,4.4841 -0.57059,7.40431 l -0.13756,5.05007 0.44645,2.62284 c 1.40432,8.25011 5.58177,14.20583 12.20088,17.39454 l 2.10353,1.01336 0.76851,1.07021 0.76852,1.0702 1.66292,0.77818 c 3.96942,1.85751 6.75986,1.07607 8.64705,-2.42152 l 0.46992,-0.87093 5.56582,0.19381 c 22.14115,0.771 59.89055,1.10861 61.52422,0.55023 l 0.56114,-0.19179 0.95936,0.84233 c 0.52765,0.46328 0.88181,0.96779 0.78704,1.12114 -0.0948,0.15334 -0.049,0.20262 0.10163,0.1095 0.15067,-0.0931 0.73462,0.19773 1.29766,0.64634 2.02716,1.61518 3.34798,2.09791 5.45842,1.99493 l 1.52429,-0.0744 z M 149.7278,162.83414 c -0.75041,-0.18799 -1.21395,-0.61757 -1.01454,-0.94023 0.0993,-0.16058 0.0421,-0.19626 -0.13707,-0.0855 -0.17223,0.10644 -0.37746,0.007 -0.46685,-0.22575 -0.29376,-0.76553 0.61813,-1.64857 2.46164,-2.38374 3.01144,-1.20094 5.6958,-3.2551 6.98978,-5.3488 0.30064,-0.48644 0.6739,-0.80577 0.82948,-0.70962 0.15557,0.0962 0.20792,0.0536 0.11632,-0.0947 -0.0916,-0.14821 0.0897,-0.79169 0.40289,-1.42994 0.3132,-0.63826 0.62202,-1.84283 0.68628,-2.67684 l 0.11683,-1.51637 -0.89134,-0.88872 -0.89134,-0.88872 -2.18563,-0.72643 c -2.96755,-0.98631 -3.64525,-2.38361 -1.65082,-3.40369 l 0.92604,-0.47364 1.19062,0.15685 c 4.16654,0.54891 6.72442,2.84057 7.276,6.51872 l 0.18153,1.21057 -0.42787,1.67014 c -1.11221,4.3414 -7.72396,12.01276 -9.43961,10.95243 -0.18969,-0.11724 -0.24858,-0.0846 -0.14618,0.0811 0.31797,0.5145 -2.82736,1.47815 -3.92616,1.20288 z m 34.94931,-1.68187 c -2.25824,-1.14322 -3.84044,-2.37798 -5.97248,-4.66094 l -1.87951,-2.01256 -1.11324,-2.27627 -1.11325,-2.27627 v -2.77813 -2.77812 l 0.55534,-1.19063 c 0.77387,-1.65918 2.53094,-3.36767 4.29311,-4.17442 l 1.49108,-0.68264 2.03674,-0.1179 c 4.54966,-0.26338 7.37872,1.32918 5.48887,3.08984 l -0.55466,0.51674 -2.81878,0.0889 -2.81878,0.0889 -1.16834,0.58382 c -0.64259,0.3211 -1.28606,0.51106 -1.42994,0.42214 -0.14388,-0.0889 -0.18174,-0.0324 -0.0841,0.1255 0.0976,0.15795 0.0441,0.36963 -0.11896,0.4704 -1.80838,1.11764 -1.43907,5.95601 0.6652,8.71485 0.4029,0.52822 0.62831,1.07364 0.52089,1.26037 -0.10415,0.18104 -0.0885,0.23745 0.0348,0.12535 0.1233,-0.1121 0.64841,0.20101 1.1669,0.6958 1.55179,1.48087 3.36745,2.7459 5.18848,3.615 1.04395,0.49823 1.64839,0.93375 1.53979,1.10947 -0.10953,0.17722 -0.056,0.21336 0.13827,0.0933 1.02355,-0.63259 1.39452,1.15426 0.43819,2.11059 l -0.64943,0.64943 -1.1365,-0.0106 c -0.72025,-0.007 -1.70905,-0.30041 -2.6997,-0.80193 z M 130.81009,129.6791 c -2.5222,-0.43924 -4.02725,-1.43303 -5.33966,-3.52578 l -0.85445,-1.36251 -0.0118,-1.98437 c -0.006,-1.09141 0.0852,-2.29116 0.20381,-2.66611 l 0.21561,-0.68173 -0.93817,-0.64119 c -0.59246,-0.40491 -1.14667,-1.12508 -1.50401,-1.95438 l -0.56584,-1.3132 0.1378,-1.51965 c 0.17439,-1.9232 1.05462,-3.53515 2.49795,-4.57444 0.68035,-0.48989 1.07207,-0.95971 1.00167,-1.20138 -0.0636,-0.21829 -0.43741,-1.28985 -0.83072,-2.38125 l -0.71509,-1.98438 0.002,-2.77812 c 0.006,-7.220431 3.74039,-12.956722 9.3991,-14.437789 l 1.66712,-0.436338 1.83717,0.149922 1.83717,0.149921 1.64949,0.812041 c 3.75335,1.847769 6.22869,5.910131 6.61238,10.851823 l 0.15407,1.98437 -0.41977,1.98438 c -0.75306,3.55985 -2.64541,6.35478 -5.82575,8.60441 l -0.75581,0.53463 0.72626,1.43319 c 0.43043,0.84943 0.78269,2.05562 0.86482,2.96128 l 0.13856,1.52809 -0.72173,1.47516 c -0.39696,0.81134 -1.06794,1.73112 -1.49107,2.04396 l -0.76933,0.56879 -0.003,1.60389 -0.003,1.60389 -0.62107,1.33373 c -1.28677,2.76333 -4.45814,4.36208 -7.57585,3.81914 z m 3.75354,-2.80102 c 0.39095,-0.20004 0.78613,-0.48556 0.87818,-0.63449 0.092,-0.14893 0.30795,-0.19022 0.4798,-0.0918 0.17184,0.0985 0.23387,0.0913 0.13784,-0.0159 -0.096,-0.10723 0.0603,-0.7259 0.34731,-1.37481 l 0.5219,-1.17985 -0.12197,-1.51187 -0.12197,-1.51188 1.40625,-1.32292 1.40624,-1.32291 0.18381,-0.99219 c 0.29888,-1.61339 -0.0702,-2.81703 -1.20993,-3.94538 l -1.03125,-1.02099 0.27231,-0.71622 c 0.14976,-0.39392 0.39362,-0.86239 0.54189,-1.04105 0.43346,-0.52229 0.15256,-1.44994 -0.61103,-2.01787 l -0.7077,-0.52637 -1.27667,0.75134 c -0.70217,0.41323 -1.73877,0.97589 -2.30355,1.25036 l -1.02688,0.49903 -0.84212,-0.15798 c -0.84998,-0.15946 -1.94907,-1.14985 -3.0355,-2.73527 -0.85307,-1.2449 -1.13761,-0.85091 -0.92725,1.28393 l 0.18013,1.82803 h -0.55415 c -0.30478,0 -0.95787,0.35448 -1.45132,0.78773 -0.49344,0.43325 -0.99293,0.70114 -1.10996,0.59531 -0.11703,-0.10583 -0.14157,-0.0669 -0.0545,0.0864 0.087,0.15336 0.0442,0.78651 -0.0952,1.40701 l -0.25349,1.12819 0.28593,1.06186 0.28593,1.06186 0.81117,0.44155 c 1.97222,1.07354 2.26671,1.65222 1.63908,3.22081 l -0.42821,1.07019 0.11249,1.55513 0.11249,1.55513 0.73021,0.95736 c 1.62242,2.1271 4.47092,2.78546 6.82976,1.57852 z m -0.38179,-30.6948 c 0.54664,-0.417657 1.08318,-0.730024 1.19232,-0.694149 0.10914,0.03587 0.18005,-0.02407 0.15757,-0.133212 -0.0225,-0.10914 0.15612,-0.641098 0.39688,-1.182127 0.63903,-1.436038 0.5468,-2.002866 -0.49545,-3.045123 l -0.93319,-0.933187 -1.17966,0.132965 c -1.45666,0.164187 -2.28986,0.692961 -3.30922,2.100148 l -0.7885,1.08849 v 1.038989 1.038988 l 0.80639,0.806383 0.80638,0.806383 1.1763,-0.132586 c 0.73404,-0.08274 1.54998,-0.418095 2.17018,-0.891962 z m 68.99179,33.13478 c -1.53813,-0.72896 -2.20068,-1.31501 -3.073,-2.71821 l -0.63116,-1.01529 -0.003,-1.88066 c -10e-4,-1.0969 -0.13837,-2.0443 -0.32843,-2.2733 -0.17922,-0.21595 -0.25943,-0.45908 -0.17823,-0.54028 0.0812,-0.0812 -0.0627,-0.12977 -0.31978,-0.10794 -0.2992,0.0254 -0.70993,-0.3888 -1.1413,-1.15094 l -0.6739,-1.19063 0.0195,-1.71979 0.0195,-1.71979 0.55813,-1.13926 0.55813,-1.13925 -0.44615,-0.16087 c -2.38389,-0.85958 -5.18898,-2.54951 -6.1347,-3.69587 -2.41935,-2.93265 -3.2346,-4.58029 -3.67692,-7.43111 -1.33428,-8.599638 4.56824,-15.654511 13.10791,-15.666956 l 2.15494,-0.0031 1.68152,0.532426 c 1.8679,0.591442 3.76795,1.658565 3.47491,1.951608 -0.10437,0.104372 -0.01,0.120658 0.21044,0.03619 0.59084,-0.226725 3.45088,2.735644 4.44884,4.608011 2.27366,4.265831 2.43439,9.637541 0.41603,13.904001 l -0.70917,1.49907 0.59722,0.41831 c 1.47926,1.03611 2.37047,2.03347 2.78353,3.11504 l 0.44651,1.16917 -0.11575,1.60019 -0.11575,1.60018 -0.54058,0.72405 c -0.29732,0.39822 -0.6706,0.72404 -0.82952,0.72404 -0.15892,0 -0.44373,0.17286 -0.63291,0.38412 l -0.34395,0.38411 0.46302,-0.35036 c 0.29933,-0.22651 0.46302,-0.24778 0.46302,-0.0602 0,0.1596 -0.36634,0.47962 -0.81409,0.71116 l -0.81408,0.42098 0.21877,1.10717 c 0.12033,0.60894 0.20573,1.82227 0.18978,2.69629 l -0.029,1.58911 -0.68803,1.35778 c -1.29807,2.5616 -3.80775,4.06557 -6.7756,4.06036 l -1.47422,-0.003 z m 5.09205,-2.15609 c 2.64373,-1.10462 3.57353,-3.73197 2.45099,-6.9258 l -0.52676,-1.49872 0.3925,-0.59904 c 0.21588,-0.32947 0.93189,-0.91513 1.59113,-1.30147 2.54686,-1.49256 2.50506,-4.50633 -0.0855,-6.16872 l -1.2887,-0.82696 0.13225,-2.71168 c 0.0727,-1.49142 0.13311,-4.19996 0.13416,-6.01897 l 0.002,-3.307295 -0.55727,-1.690462 c -0.3065,-0.929754 -0.95155,-2.268977 -1.43345,-2.976051 l -0.87618,-1.285589 -0.56292,-5.11e-4 c -0.3096,-2.82e-4 -0.71713,0.185309 -0.90562,0.412424 l -0.34271,0.412935 0.60117,1.373002 c 1.24263,2.838006 1.97441,6.706537 1.41958,7.504587 l -0.21604,0.31075 -1.08809,-0.29042 -1.08809,-0.29043 -0.80417,0.3331 c -0.45707,0.18933 -0.94203,0.66591 -1.12356,1.10415 l -0.31938,0.77106 0.32344,0.78085 c 0.40232,0.97129 1.33068,1.6004 2.36167,1.6004 1.14614,0 1.23185,0.41201 0.37426,1.79911 -1.48573,2.40312 -3.08915,2.93181 -5.37642,1.77276 -0.71793,-0.3638 -1.59403,-0.66146 -1.9469,-0.66146 h -0.64157 l -0.16896,0.67322 -0.16897,0.67322 0.79925,1.11294 c 0.84738,1.17995 0.85894,1.42448 0.16413,3.47101 -0.81681,2.40585 -0.54873,3.35524 1.46668,5.19419 l 1.31811,1.20269 -0.27859,0.73276 c -0.15323,0.40301 -0.2786,1.24318 -0.2786,1.86703 v 1.13427 l 0.59532,0.87214 c 1.18184,1.73141 3.76531,2.35861 5.95194,1.44498 z M 196.66843,96.938468 c 0.37641,-0.278699 0.95226,-0.900338 1.27968,-1.381421 l 0.59531,-0.874695 v -1.17185 -1.17185 l -0.77339,-0.773398 -0.7734,-0.773397 h -0.82464 c -3.48593,0 -5.66609,4.711364 -2.97741,6.434227 l 0.71864,0.460489 1.03542,-0.120689 c 0.56949,-0.06638 1.34339,-0.348716 1.71979,-0.627416 z M 172.9186,122.40956 c 0.0622,-3.64759 -2.77753,-8.35266 -5.49382,-9.10267 l -1.01155,-0.2793 -1.004,0.27035 c -2.56159,0.68977 -4.9273,4.46627 -5.00674,7.99253 l -0.0303,1.3446 -0.3504,-0.47921 c -2.02443,-2.76857 0.0832,-10.14 3.45161,-12.07209 l 1.33565,-0.76611 1.59142,-0.002 1.59142,-0.002 1.05441,0.55626 c 2.08262,1.09869 3.33645,2.72345 4.38523,5.68259 l 0.55515,1.56636 0.0414,2.09342 0.0414,2.09343 -0.33238,0.11198 c -0.18281,0.0616 -0.27592,0.20334 -0.20691,0.31499 0.069,0.11166 -0.0424,0.42891 -0.24757,0.70501 l -0.37303,0.502 z m -9.50521,-20.24173 c -0.98549,-0.60086 -1.39001,-1.42761 -1.19575,-2.443846 0.45191,-2.363991 5.36664,-2.559416 6.51811,-0.25918 l 0.36031,0.719756 -0.23126,0.85379 c -0.19934,0.73596 -1.27762,1.765 -1.27762,1.21927 0,-0.10698 -0.14288,-0.0516 -0.3175,0.12299 -0.17463,0.17462 -0.91877,0.31705 -1.65365,0.31651 l -1.33615,-9.9e-4 z m 66.86785,-19.005553 -0.59998,-0.48583 0.0237,-0.833556 c 0.0298,-1.049514 0.27025,-1.446977 0.76126,-1.25856 0.21112,0.08101 0.32067,0.04507 0.24345,-0.07987 -0.0772,-0.124943 0.55134,-0.712394 1.39679,-1.305446 3.84611,-2.697889 5.96349,-5.312517 6.96057,-8.595175 l 0.55325,-1.821451 -0.12262,-1.910699 -0.12262,-1.910698 -0.74805,-1.330749 c -0.41143,-0.731912 -1.14338,-1.601631 -1.62656,-1.932708 -0.48317,-0.331078 -0.8023,-0.725255 -0.70916,-0.875948 0.0931,-0.150694 0.0583,-0.205395 -0.0773,-0.121559 -0.13565,0.08384 -0.89818,-0.07247 -1.69452,-0.347357 -6.08147,-2.099216 -13.79369,2.454917 -15.58876,9.2053 -0.51084,1.920993 -2.0469,2.752993 -3.33721,1.807578 l -0.51359,-0.37631 0.0359,-1.409628 c 0.16968,-6.672745 8.48831,-13.537778 16.36832,-13.508126 l 2.64583,0.01 1.71979,0.635541 c 1.01763,0.376058 1.69011,0.772385 1.64709,0.970709 -0.04,0.184342 0.0563,0.255439 0.21398,0.157993 2.43194,-1.503026 6.4383,7.1712 5.58234,12.086442 -1.19233,6.846895 -9.927,15.728107 -13.01184,13.230152 z m -86.14256,-1.389058 c -2.71176,-0.786225 -1.96328,-3.215622 1.07821,-3.499641 2.84549,-0.265716 4.06625,-1.095322 5.32871,-3.621304 1.93462,-3.870878 4.82453,-2.193934 3.28862,1.908304 -1.42888,3.816327 -6.0123,6.280528 -9.69554,5.212641 z m 45.27662,-0.754623 c -2.26873,-0.554771 -4.22798,-2.063081 -5.58794,-4.301823 l -0.97765,-1.609391 -0.0245,-1.176841 -0.0245,-1.176841 0.62462,-0.505921 c 1.13414,-0.918608 2.12786,-0.341156 3.45273,2.006392 1.05059,1.861543 2.52884,2.937577 4.59373,3.343818 0.88059,0.173247 1.82714,0.541048 2.10342,0.817334 0.56882,0.568817 0.55943,1.971437 -0.0124,1.852791 -0.19272,-0.03999 -0.27485,0.04954 -0.18252,0.198933 0.39494,0.639024 -2.15608,0.993882 -3.965,0.551549 z M 119.76374,199.397 c 0.65314,-0.25757 0.57961,-0.8955 -0.32964,-2.85994 -0.43596,-0.9419 -1.11561,-3.00403 -1.51033,-4.58252 l -0.71767,-2.86998 -0.011,-5.42396 -0.011,-5.42396 0.49294,-3.07946 0.49294,-3.07946 -0.71986,-1.79935 c -0.39592,-0.98965 -0.96749,-2.93764 -1.27017,-4.32887 l -0.55032,-2.52952 -0.0122,-8.46667 c -0.0122,-8.46947 0.11721,-10.3254 1.096,-15.72059 l 0.45199,-2.49143 -1.01712,-0.81586 c -2.17939,-1.74816 -3.57842,-3.14126 -3.41697,-3.40249 0.0929,-0.15029 0.0416,-0.1946 -0.11395,-0.0985 -0.44146,0.27284 -2.86909,-2.61834 -4.46958,-5.32302 -0.91644,-1.5487 -1.56604,-2.38844 -1.76354,-2.2797 -2.68193,1.47656 -6.929821,4.9189 -8.614038,6.98051 -0.653853,0.80037 -1.26044,1.43395 -1.347971,1.40796 -0.164316,-0.0488 -0.229436,0.32807 -0.323568,1.8725 l -0.05481,0.89921 0.716859,1.08325 c 0.932621,1.40928 3.158887,3.14105 5.571618,4.33405 2.3326,1.15338 2.60647,1.45512 2.49954,2.75384 l -0.0832,1.01065 -0.39688,-0.0882 c -0.21828,-0.0485 -0.30548,0.003 -0.19378,0.1149 0.27223,0.27223 -1.40535,1.98171 -1.7411,1.77421 -0.14835,-0.0917 -0.181,-0.0293 -0.0747,0.14268 0.10701,0.17314 -0.26269,0.85013 -0.85312,1.56223 -2.635198,3.17823 -4.909127,7.51473 -5.251922,10.01569 l -0.153617,1.12076 0.68251,0.68251 c 0.383736,0.38374 1.006288,0.69373 1.42214,0.70815 1.473297,0.0511 2.892969,-0.048 4.756049,-0.33194 2.26151,-0.34464 3.17596,-0.16681 3.5681,0.69385 l 0.29048,0.63753 -1.19964,2.06715 c -0.65981,1.13693 -1.52316,2.96011 -1.91856,4.05152 l -0.71891,1.98437 -0.0346,1.6759 -0.0346,1.6759 0.62463,0.50692 0.62462,0.50691 h 2.17353 2.17352 l 0.60027,0.63895 0.60026,0.63895 -0.19153,0.61782 c -0.10535,0.3398 -0.45872,1.1536 -0.78527,1.80845 -0.88161,1.76791 -1.91007,5.00814 -2.11811,6.67328 l -0.1832,1.46628 0.44091,0.67292 c 0.59858,0.91355 1.67081,1.23741 4.63933,1.40128 3.30452,0.18242 3.621,0.26126 4.12277,1.02706 l 0.4253,0.64909 -0.31417,3.31771 c -0.1728,1.82475 -0.23129,3.92041 -0.12998,4.65704 l 0.1842,1.33932 0.54115,0.20019 c 0.53443,0.19769 2.54023,-0.0217 3.43896,-0.37611 z m -14.59383,-83.43735 c 0.55363,-4.95877 4.31386,-11.203 7.90313,-13.12391 0.30565,-0.16359 0.48429,-0.36887 0.39697,-0.45619 -0.0873,-0.0873 -0.8352,0.2859 -1.66195,0.8294 -0.82674,0.54349 -3.07113,2.02168 -4.98753,3.28486 -1.96661,1.29629 -4.01228,2.88389 -4.69635,3.64474 l -1.212,1.34804 v 0.91056 c 0,0.50081 0.18346,1.26534 0.40769,1.69895 0.22423,0.43361 0.32489,0.92234 0.2237,1.08607 -0.10513,0.17011 -0.0659,0.22473 0.0915,0.12744 0.37386,-0.23106 0.95891,0.51562 0.71422,0.91154 -0.11977,0.19378 -0.0839,0.2478 0.0922,0.13895 0.15994,-0.0988 0.73045,0.351 1.2821,1.01095 1.20793,1.44507 1.11753,1.53328 1.4463,-1.4114 z m 9.5006,-18.026221 c 0,-2.16746 1.88592,-8.312414 3.57275,-11.641219 0.91921,-1.813964 -0.5818,-1.966139 -4.60606,-0.466968 -5.34768,1.992189 -5.90325,3.888165 -2.62963,8.973946 2.2056,3.426548 3.66294,4.673536 3.66294,3.134241 z m 6.7064,-16.732068 c -0.30743,-0.497423 5.87783,-8.760349 6.35398,-8.488332 0.16559,0.0946 0.21282,0.07457 0.10494,-0.04451 -0.26835,-0.29622 0.32097,-0.962502 0.66387,-0.750574 0.15152,0.09364 0.20253,0.0522 0.11335,-0.09209 -0.23651,-0.382677 0.58923,-1.448157 0.95838,-1.236631 0.17194,0.09853 0.22754,0.08489 0.12355,-0.0303 -0.10399,-0.115193 0.15741,-0.629778 0.58088,-1.143521 l 0.76994,-0.934078 -0.48804,-0.620442 c -0.85841,-1.091289 -2.98642,-2.701562 -4.89689,-3.705485 l -1.85538,-0.974975 -1.9878,-0.101327 -1.9878,-0.101327 -0.87772,0.552535 c -3.42199,2.154196 -3.5576,10.618174 -0.25088,15.658472 0.60663,0.924665 1.07602,1.779356 1.04308,1.899313 -0.0329,0.119957 0.0621,0.142696 0.21125,0.05053 0.14913,-0.09216 0.27114,-0.04282 0.27114,0.109662 0,0.152479 0.28907,0.25331 0.64239,0.224069 0.35331,-0.02924 0.5818,-0.151185 0.50776,-0.270987 z"
       id="path36" /></g></svg>
