<?xml version="1.0" encoding="UTF-8" standalone="no"?>
<!-- Created with Inkscape (http://www.inkscape.org/) -->

<svg
   width="240.62521mm"
   height="171.45267mm"
   viewBox="0 0 240.6252 171.45268"
   version="1.1"
   id="svg1"
   xml:space="preserve"
   xmlns="http://www.w3.org/2000/svg"
   xmlns:svg="http://www.w3.org/2000/svg"><defs
     id="defs1" /><g
     id="layer1"
     transform="translate(93.478227,6.0139305)"><path
       style="fill:#000000"
       d="m 38.998568,165.15403 c -1.45521,-0.11367 -3.78598,-0.39125 -5.17948,-0.61685 l -2.53366,-0.41017 -3.02259,0.41916 -3.0226,0.41915 -6.35,0.007 c -3.92042,0.004 -7.41294,-0.13315 -9.1281296,-0.35861 -3.35947,-0.44162 -5.66625,-0.44569 -8.99583002,-0.0159 -9.21393998,1.18942 -21.08719438,0.40748 -26.47563938,-1.74361 l -1.877152,-0.74937 -3.352249,0.36111 c -2.087601,0.22488 -4.799565,0.3099 -7.188706,0.22538 l -3.836459,-0.13574 -2.140267,-0.52979 c -1.177146,-0.29138 -3.05548,-0.89334 -4.174074,-1.3377 -1.118594,-0.44435 -2.536724,-0.81049 -3.1514,-0.81364 -5.073255,-0.026 -12.640025,-3.45123 -18.924506,-8.56653 l -2.041129,-1.66139 -1.585353,-0.15354 c -3.475729,-0.33661 -9.896395,-3.11106 -12.087769,-5.22326 l -1.271541,-1.2256 0.01109,-0.64396 c 0.01644,-0.95453 0.734528,-2.11499 2.428169,-3.92401 l 1.513216,-1.61632 -2.238505,-3.24035 c -3.013238,-4.36182 -5.51268,-8.31631 -6.793685,-10.74862 l -1.058546,-2.00992 0.139702,-1.06174 0.139701,-1.06174 1.143492,-0.99183 c 0.62892,-0.54551 1.887632,-1.49706 2.797137,-2.11457 1.84907,-1.25541 1.853963,-1.26774 1.141951,-2.87923 -1.516137,-3.43186 -3.293516,-11.77926 -3.739464,-17.562681 -0.802942,-10.413214 0.916261,-12.733769 6.103242,-8.238066 l 0.926042,0.802626 0.07988,-0.805795 c 0.04394,-0.443187 -0.218959,-2.103963 -0.584214,-3.690613 -0.365254,-1.58665 -0.860128,-4.373099 -1.099719,-6.192109 l -0.435621,-3.307292 0.117736,-3.174999 0.117735,-3.175 0.426601,-0.822628 c 0.863833,-1.665757 2.290141,-1.743492 5.601955,-0.305312 l 1.843108,0.800384 0.273558,-0.466306 c 0.150457,-0.256468 1.081894,-1.523394 2.06986,-2.815392 l 1.796301,-2.349088 -0.605676,-0.224638 c -0.333122,-0.12355 -1.437254,-0.379249 -2.453626,-0.568218 l -1.84795,-0.34358 -0.731738,-0.731738 c -2.444652,-2.444652 3.177373,-8.058946 14.012957,-13.993689 3.57539,-1.958271 3.515184,-1.878316 2.091824,-2.778013 -5.128588,-3.24175 1.771424,-9.595576 14.854705,-13.678848 1.346094,-0.420114 1.377949,-0.564903 0.242793,-1.10357 -0.480874,-0.228189 -1.195249,-0.71232 -1.5875,-1.075847 l -0.713184,-0.660956 v -0.786084 c 0,-3.500188 14.932542,-9.173358 26.259894,-9.976656 3.047004,-0.216084 3.035722,-0.1922 0.94598,-2.002493 -4.993645,-4.3258732 -4.15934,-6.5307388 2.996041,-7.9178088 l 2.625177,-0.5088907 3.89322,0.0022 c 4.52027,0.0025 6.9071904,0.24001 13.3192904,1.3252169 2.56496,0.4341033 4.75555,0.7892787 4.86797,0.7892787 0.11242,0 -0.54772,-0.7441406 -1.46697,-1.6536457 C 1.1647134,4.6520845 0.07545338,3.4435955 -0.33660662,2.8760585 L -1.0858066,1.8441735 v -1.04509404 -1.045094 l 0.86433998,-0.86434296 0.86434,-0.864343 1.89987002,-0.432115 c 1.16861,-0.265795 3.08164,-0.432116 4.97021,-0.432116 h 3.0703396 l 2.77688,0.558887 2.77688,0.558887 0.48388,-0.437904 c 0.26613,-0.240848 0.89259,-0.504231 1.39214,-0.585295 l 0.90826,-0.147391 2.88328,1.491826 c 1.5858,0.82050396 3.2675,1.78488796 3.73711,2.14307496 0.4696,0.35818704 0.89154,0.65139504 0.93763,0.65157504 0.0461,1.79e-4 0.0435,-1.30816904 -0.006,-2.907439 l -0.0895,-2.907765 0.79673,-0.796728 0.79673,-0.796727 h 0.77268 c 3.6766,0 15.02392,6.75064896 21.31419,12.6800583 2.93457,2.7662162 2.84477,2.7328665 2.54728,0.9459823 -0.12113,-0.7276041 -0.22733,-2.0670572 -0.23601,-2.9765626 l -0.0158,-1.653645 0.52917,-0.529167 c 0.95145,-0.951459 2.08329,-0.5977 4.82864,1.509205 l 1.52136,1.167556 v -1.61499 -1.614991 l 0.64943,-0.649432 0.64943,-0.64943104 h 1.15879 1.15878 l 1.56522,1.08275204 c 3.1953,2.210378 7.04532,6.4695525 11.30849,12.5102775 1.11688,1.582573 2.03559,2.773198 2.04159,2.645833 0.0374,-0.793806 0.27992,-3.549668 0.37839,-4.299284 0.1508,-1.148086 0.78251,-1.833085 1.88042,-2.039054 l 0.87414,-0.163991 1.40464,0.657257 c 4.87346,2.280396 11.24295,8.947724 15.2075,15.918602 1.56509,2.751908 1.30578,2.789079 2.876427,-0.412332 1.42067,-2.895681 1.90415,-3.410479 3.20302,-3.410479 2.95311,0 9.31805,11.027158 10.29947,17.843666 l 0.18821,1.307208 0.64595,-0.778042 c 0.35527,-0.427923 1.15904,-1.563045 1.78615,-2.522495 0.62711,-0.959449 1.47522,-2.007976 1.88469,-2.330059 l 0.74447,-0.585607 0.67291,0.166861 c 2.78805,0.69135 6.09687,10.866343 6.09687,18.748568 v 2.545731 h 0.31333 c 0.17232,0 2.48172,-0.714375 5.13198,-1.5875 6.04344,-1.991 6.62209,-1.990779 7.65308,0.0029 l 0.39536,0.764549 v 3.443341 3.44334 l -0.52504,2.708471 c -0.28877,1.489658 -0.95595,4.001693 -1.48263,5.582299 -0.52668,1.580606 -0.9155,2.911789 -0.86403,2.958184 0.0515,0.0464 0.98654,0.791182 2.07795,1.65508 4.18904,3.315816 8.09789,9.036383 8.41277,12.311988 l 0.1204,1.252467 -0.42076,0.64215 c -0.23141,0.353182 -0.81192,0.768402 -1.29002,0.92271 l -0.86926,0.28056 -3.64315,-0.472306 c -4.39645,-0.569966 -4.15875,-0.79998 -2.37044,2.293801 3.98145,6.887921 6.15836,13.261531 6.58104,19.268131 l 0.17038,2.42124 -0.68762,0.68762 c -0.42681,0.42681 -0.98099,0.68762 -1.46108,0.68762 h -0.77347 l -1.53531,-1.78594 c -2.96859,-3.4532 -2.65987,-3.32227 -4.36706,-1.85208 -1.60494,1.38214 -1.61805,1.22406 0.21535,2.59725 6.27301,4.69839 9.81014,11.99019 6.6172,13.64133 l -0.79992,0.41365 -1.22192,-0.17152 c -1.00917,-0.14166 -3.86937,-0.82762 -5.58755,-1.34006 l -0.39687,-0.11837 -0.0199,2.70839 c -0.0379,5.15854 -2.2788,12.26435 -4.28157,13.57661 l -0.66615,0.43648 -1.02121,-0.13698 c -0.56167,-0.0753 -1.80881,-0.50553 -2.77142,-0.95599 -0.96262,-0.45046 -1.79305,-0.81902 -1.84541,-0.81902 -0.0524,0 -0.28598,0.65628 -0.51916,1.4584 l -0.42397,1.4584 0.82248,1.03847 c 0.45237,0.57116 1.83227,1.95522 3.06645,3.0757 2.86386,2.6 3.21528,3.82606 1.37013,4.78022 l -0.82826,0.42831 -2.81063,0.13322 c -1.61918,0.0768 -3.56779,0.001 -4.59678,-0.17783 l -1.78615,-0.31104 -2.33576,2.22278 c -4.14404,3.94359 -7.98844,6.07895 -13.06394,7.25633 l -2.94918,0.68412 -4.497907,0.0217 -4.49792,0.0217 -2.1577,-0.47422 -2.1577,-0.47422 -3.92771,0.43772 -3.92772,0.43772 -3.96875,-0.14719 c -2.18281,-0.081 -4.68313,-0.32326 -5.55625,-0.53846 l -1.5875,-0.39127 -1.70544,0.39542 c -4.42739,1.0265 -19.57164,1.50365 -27.66331,0.87158 z m 62.593482,-4.63869 c 7.61798,-1.29137 13.48908,-5.39718 17.1081,-11.96411 2.62528,-4.76375 3.79274,-9.53761 4.69564,-19.20097 0.0668,-0.71538 0.32975,-1.52393 0.58849,-1.80983 l 0.46768,-0.51678 -0.48935,-0.35782 -0.48935,-0.35782 -0.49458,-3.78547 c -1.18209,-9.04778 -3.23413,-15.94554 -5.5173,-18.54592 l -0.86578,-0.98608 0.17143,-0.9138 c 0.31313,-1.66913 4.35167,-5.330073 6.69977,-6.073341 3.62416,-1.147196 -6.57917,-1.438688 -15.1474,-0.432737 -18.944492,2.224175 -18.071082,2.275588 -21.070792,-1.240318 -4.10019,-4.805755 -13.25587,-13.900568 -17.03167,-16.918439 -3.51768,-2.811566 -7.37801,-5.466524 -9.20782,-6.332723 l -1.00821,-0.477263 -3.48971,1.807474 c -1.91934,0.99411 -5.17018,2.805536 -7.22407,4.025391 -3.79251,2.252454 -4.74717,2.562132 -5.51901,1.790291 l -0.42763,-0.427627 0.36216,-0.564561 c 0.19919,-0.310508 1.42491,-1.371515 2.72383,-2.357793 l 2.36167,-1.793233 5.3141,-2.638537 c 6.16332,-3.060189 5.66877,-2.977878 8.78354,-1.461887 5.32859,2.59348 10.59076,6.703412 17.79645,13.899612 5.09199,5.085298 6.02099,6.066398 9.07257,9.581373 l 1.53768,1.77118 1.23741,-0.113492 c 0.68058,-0.06242 2.66617,-0.244743 4.41242,-0.40516 1.74625,-0.160418 5.496722,-0.588162 8.334372,-0.950543 3.34077,-0.42663 7.17469,-0.710944 10.87678,-0.806597 l 5.7174,-0.147722 2.2201,0.32321 c 1.22105,0.177766 2.79211,0.568547 3.49123,0.868403 l 1.27114,0.545192 0.151,0.754987 0.151,0.754988 h 0.90815 c 0.49948,0 1.73681,0.13685 2.74962,0.304112 2.3313,0.385007 2.31731,0.409849 1.1521,-2.045583 -1.21064,-2.551183 -2.67835,-4.145863 -6.00014,-6.519206 -3.51003,-2.507829 -3.63599,-2.994104 -0.71579,-2.763224 l 1.46737,0.116016 3.42742,1.469938 3.42741,1.469938 3.13465,0.430436 c 1.72405,0.236739 3.20023,0.364849 3.28039,0.284689 0.57014,-0.570142 -4.22974,-6.598845 -6.86142,-8.618019 -1.67144,-1.282423 -7.80561,-3.44368 -9.774,-3.44368 -2.26957,0 0.32974,-1.010642 3.42472,-1.331575 1.46155,-0.151555 2.62191,-0.40151 2.73963,-0.590146 1.14837,-1.840232 3.97961,-13.890723 3.41636,-14.540963 -0.0909,-0.104946 -1.59151,0.27264 -3.33468,0.83908 -5.24115,1.703101 -10.75039,2.434875 -12.03294,1.598296 l -0.39687,-0.258872 0.8247,-0.654749 0.8247,-0.654748 0.17236,-1.299377 c 0.39134,-2.950043 -0.87975,-12.929996 -1.9874,-15.604106 l -0.36428,-0.879453 -1.31784,1.594802 c -0.72482,0.877142 -1.90707,2.046802 -2.62722,2.599245 -0.72016,0.552444 -1.86572,1.510458 -2.54568,2.128922 -1.58051,1.437557 -1.47166,1.508096 -1.83738,-1.190625 -0.84251,-6.216929 -3.85289,-15.095112 -6.15724,-18.158863 l -0.3745,-0.497926 -0.85154,1.383923 c -1.2099,1.966339 -5.033612,6.623387 -5.438192,6.623387 -0.18676,0 -0.78309,-0.982265 -1.32518,-2.182812 -3.16127,-7.001116 -12.12201,-18.983853 -14.1962,-18.983853 -0.0929,0 -0.2219,1.935754 -0.28665,4.301674 -0.0647,2.365921 -0.23782,4.516291 -0.38462,4.778601 l -0.2669,0.476926 -2.8553,-2.992662 c -5.46559,-5.728528 -15.2296,-15.5444246 -15.2296,-15.3105328 0,0.1295014 0.22488,0.7600825 0.49974,1.4012913 0.60492,1.4112181 1.23476,4.1109015 1.01123,4.3344295 -0.0888,0.08881 -1.20925,-0.656919 -2.48986,-1.657169 -2.60583,-2.0353244 -3.8215,-2.930445 -4.94296,-3.6395744 l -0.76249,-0.4821364 0.18494,0.9858073 c 0.10172,0.542194 0.6532,2.4867135 1.22551,4.3211545 1.6811,5.388486 2.22195,5.47363 -7.95527,-1.252383 -8.20836,-5.4248123 -19.26356,-11.80881654 -19.69765,-11.37472554 -0.0838,0.08385 0.15453,1.153131 0.52971,2.37618704 0.37519,1.223056 0.83446,2.94707 1.0206,3.831142 l 0.33843,1.6074036 -2.1419,-1.046184 c -1.17805,-0.5754013 -3.38401,-1.7613736 -4.90214,-2.6354936 -2.21432,-1.274977 -5.3279,-2.84042104 -5.64943,-2.84042104 -0.0331,0 -0.0821,0.78656004 -0.10877,1.74791104 -0.0618,2.224702 0.12661,2.155057 -2.83222,1.046845 -3.79057,-1.419733 -6.5444496,-2.021577 -10.0144396,-2.188593 l -3.10886,-0.149634 v 0.285894 c 0,0.351502 3.97863,3.8873496 7.4509496,6.6217275 3.50455,2.759761 3.52502,2.744432 -3.0489196,2.283381 l -2.87402,-0.201564 -2.97542,0.342717 -2.97542,0.342718 -3.41098,-0.558855 C -11.432782,9.3324074 -21.961328,8.9333343 -22.778813,9.7519763 l -0.287405,0.2878117 2.457395,1.846375 c 1.351571,1.015506 2.933641,2.189384 3.515731,2.608618 2.57985,1.858086 1.30854,3.20567 -3.74288,3.96745 -9.177516,1.384014 -20.222556,4.332778 -23.340607,6.231388 -1.113345,0.677926 -1.240721,0.582937 2.504205,1.867474 1.731417,0.593889 3.444292,1.234945 3.806389,1.424569 l 0.658358,0.344771 -1.452108,0.419459 c -0.79866,0.230702 -2.075076,0.53645 -2.83648,0.679439 -4.185593,0.78604 -20.443752,8.967588 -20.443752,10.287852 0,0.107842 1.324245,0.957733 2.942768,1.888646 1.618522,0.930914 3.182234,1.88648 3.474916,2.123479 l 0.532149,0.430908 -2.028955,0.740001 -2.028956,0.740002 0.472268,0.358244 c 0.259747,0.197035 0.346884,0.362031 0.193637,0.366659 -1.05014,0.03171 -13.132514,7.1176 -15.938276,9.347237 l -1.984499,1.577008 0.369454,0.196717 c 0.203199,0.108195 1.619609,0.519683 3.147578,0.914419 1.527968,0.394737 2.92788,0.86166 3.110915,1.037608 l 0.33279,0.319905 -2.00985,2.502031 c -1.105417,1.376117 -2.896022,3.836768 -3.979121,5.468114 -2.439231,3.673927 -1.952372,3.490296 -5,1.885878 l -2.580467,-1.358484 0.138896,0.766803 c 0.07639,0.421741 0.45172,2.671803 0.834062,5.000136 l 0.695166,4.233333 -0.175837,5.963277 -0.175837,5.963278 0.468574,2.106514 c 0.257715,1.158582 0.751523,2.746406 1.097349,3.528498 0.345827,0.782092 0.628777,1.606518 0.628777,1.832058 v 0.410073 l -0.694497,-0.641433 c -0.381973,-0.352788 -2.240849,-2.34451 -4.130836,-4.426048 -1.889986,-2.081538 -3.481135,-3.739819 -3.535887,-3.685067 -0.460067,0.460067 2.895339,18.715633 4.388056,23.873853 l 0.535968,1.85208 -0.861089,0.80784 c -0.4736,0.44431 -1.515934,1.30171 -2.316298,1.90532 -0.800365,0.60361 -1.7465,1.32981 -2.102522,1.61377 l -0.647314,0.51629 2.367105,3.51885 c 2.306966,3.42945 5.238983,7.22762 7.229377,9.36501 0.542051,0.58208 1.072734,1.2022 1.179295,1.37804 0.28553,0.47116 -1.531851,4.113 -2.876061,5.76333 l -1.165775,1.43126 0.672642,0.5291 c 2.301562,1.81041 8.700118,3.41989 14.500333,3.64738 l 4.208122,0.16505 0.488232,0.48823 c 0.730199,0.7302 0.637249,0.88019 -1.218075,1.96551 -0.938468,0.54898 -1.650508,1.08843 -1.58231,1.19877 0.902651,1.46052 10.062584,5.79062 12.249534,5.79062 0.157068,0 -0.384831,-0.98227 -1.204219,-2.18281 -1.818701,-2.66472 -3.330723,-5.76859 -3.213412,-6.59648 l 0.08692,-0.61342 h 0.630386 0.630385 l 2.296336,2.64583 c 5.392556,6.2133 9.724855,8.86949 15.780677,9.67537 2.760676,0.36738 2.80628,0.3316 1.168913,-0.91707 -4.431908,-3.37982 -5.64528,-6.47473 -1.659449,-4.23271 7.389658,4.15666 15.007864,6.80111 21.237126,7.37188 0.94588,0.0867 2.28534,0.2175 2.97656,0.29073 1.35065,0.1431 1.64884,-0.15066 0.62601,-0.61669 -2.75286,-1.25429 -9.706085,-10.1163 -7.937351,-10.1163 h 0.427719 l -0.133044,-0.59531 c -0.07318,-0.32742 -0.692149,-2.67891 -1.375498,-5.22552 -2.125425,-7.92075 -1.981715,-10.00334 1.369322,-19.84375 6.223273,-18.27481 16.0120434,-33.356285 28.8613234,-44.466422 l 1.66401,-1.438781 -0.55137,-1.5875 C 3.4259984,60.715119 20.227808,46.637482 33.811328,55.85204 l 1.48307,1.006064 0.90833,-0.618341 c 0.49957,-0.340088 1.89884,-0.92047 3.10949,-1.289739 l 2.20117,-0.671398 -0.26522,-0.495567 c -0.63655,-1.18939 -0.0683,-1.691248 2.7152,-2.39791 l 1.26063,-0.320045 0.15053,-0.692138 c 0.25877,-1.189838 0.32658,-1.312385 0.95201,-1.720621 0.33524,-0.218823 1.74062,-0.709977 3.12307,-1.091454 1.38245,-0.381477 4.04724,-1.15769 5.92177,-1.724917 l 3.40822,-1.031321 0.49164,0.263118 c 0.27041,0.144716 0.68821,0.646543 0.92847,1.115172 1.84515,3.599106 9.33969,10.3505 9.73618,8.770756 0.46524,-1.853657 1.34396,0.530552 1.63977,4.449177 0.2126,2.816229 0.46717,2.842275 -2.69558,-0.275802 -1.44618,-1.425763 -3.16521,-3.047236 -3.82005,-3.603274 -2.64833,-2.248739 -5.39308,-5.127208 -6.13919,-6.438284 -0.43477,-0.763984 -0.86842,-1.389344 -0.96367,-1.389688 -0.65618,-0.0024 -9.32363,3.016016 -9.59314,3.340747 l -0.33733,0.406467 0.30623,0.811311 c 0.38616,1.023051 0.29252,1.162003 -0.93092,1.381385 -2.96802,0.532216 -3.6927,1.059147 -2.31802,1.68549 0.9571,0.436083 0.81641,0.778464 -0.46302,1.126801 -2.75993,0.751417 -6.18561,1.849371 -6.54844,2.098821 l -0.39688,0.272853 0.66146,0.512435 c 0.36381,0.281839 0.98888,0.764726 1.38907,1.073082 1.05152,0.810242 0.92586,1.126223 -0.99219,2.494918 -2.03949,1.455346 -1.98868,1.218021 -0.59531,2.780828 3.82779,4.293278 5.5744,13.62728 2.82529,15.09856 -1.41617,0.757907 -1.74156,0.106923 -1.92276,-3.846616 l -0.12126,-2.645833 -0.6855,-1.956369 c -2.0687,-5.903857 -6.18111,-9.288422 -11.28591,-9.288422 -2.05187,0 -2.08117,0.195589 -0.19408,1.29551 4.84843,2.825973 8.3153,8.966596 8.84973,15.674872 l 0.16103,2.021425 -0.56613,0.302988 -0.56614,0.302989 -0.50798,-0.271861 c -0.53562,-0.286657 -0.78682,-0.917844 -1.4787,-3.715507 -1.4328,-5.793653 -4.74465,-11.524897 -7.23575,-12.521636 l -1.03453,-0.413939 -1.55225,0.80378 c -0.85374,0.442079 -1.84991,1.083123 -2.21371,1.424543 -0.3638,0.34142 -1.12057,1.008649 -1.68172,1.482731 -0.58781,0.496617 -1.29833,1.484739 -1.67631,2.331265 -0.36082,0.808114 -0.76894,1.6825 -0.90693,1.943081 -0.13798,0.260581 -0.17206,0.601314 -0.0757,0.757186 0.0963,0.155871 0.0422,0.365583 -0.12034,0.466026 -0.35356,0.218512 -0.48559,3.742554 -0.18804,5.01896 l 0.20867,0.895123 0.26079,-0.365956 0.26078,-0.365956 -0.16218,0.497508 c -0.097,0.297563 0.0955,0.935569 0.47903,1.5875 0.64453,1.095634 2.01448,2.561286 2.01448,2.155204 0,-0.119709 0.34454,0.127427 0.76565,0.549192 0.4211,0.421765 1.24929,1.098215 1.84041,1.503221 l 1.07477,0.736375 -0.16747,0.45425 c -0.99178,2.690135 -7.75078,-1.118147 -9.79925,-5.521271 -0.90011,-1.934775 -0.6794,-1.967921 -3.4397996,0.51659 -24.0529504,21.649001 -36.0411734,55.705361 -24.6290904,69.966741 4.64021,5.79874 7.6631604,6.52237 28.07093,6.71953 l 13.69218,0.13229 v -1.79625 c 0,-7.77032 -4.84102,-12.38336 -13.01934,-12.40621 l -2.56829,-0.007 -0.38254,0.52315 -0.38253,0.52314 -0.7259296,-0.25856 c -0.94818,-0.33772 -1.29832,-0.93226 -1.07441,-1.82435 l 0.18112,-0.72166 1.2469,-0.56429 1.2468996,-0.56429 3.04271,0.025 3.04271,0.025 1.90243,0.52419 c 2.38706,0.65771 4.02387,1.60789 5.98502,3.47435 l 1.53746,1.46323 1.17457,2.39176 1.17456,2.39176 0.29172,1.98437 c 0.16044,1.09141 0.3402,2.24794 0.39946,2.57008 0.20908,1.13659 2.79854,2.15595 7.51082,2.95668 1.33132,0.22623 2.19064,0.12502 1.38346,-0.16294 -3.05071,-1.08833 -8.7918,-8.74508 -8.7918,-11.7254 0,-2.35714 2.45087,-2.6039 3.18993,-0.32118 2.9411,9.08405 16.23646,14.77745 29.41997,12.59836 l 0.99218,-0.164 -0.005,-0.69299 c -0.003,-0.38114 -0.5975,-1.60659 -1.32125,-2.72323 l -1.31591,-2.03025 -1.39073,-0.67132 c -0.7649,-0.36922 -2.61647,-1.02301 -4.11461,-1.45285 -3.18109,-0.91272 -4.02299,-1.38563 -4.02299,-2.25979 0,-3.57871 14.59528,2.8868 16.41076,7.26974 l 0.30852,0.74483 1.3638,0.29263 c 6.43602,1.38098 13.41048,1.98286 24.00519,2.0716 l 5.97265,0.05 z m -2.136192,-13.95008 c -6.22674,-1.78515 -8.89702,-8.2032 -6.30978,-15.16567 l 0.50551,-1.36039 0.80444,-0.33321 0.80444,-0.33321 0.90012,0.42924 c 1.17695,0.56125 1.30796,1.20845 0.77602,3.83364 l -0.43711,2.15726 0.29778,1.39395 c 0.39466,1.84749 1.32166,3.19275 2.79506,4.05623 l 1.206672,0.70715 1.55265,-0.11231 1.55265,-0.11231 0.88463,-0.60767 c 1.25212,-0.86012 2.55612,-2.65883 3.3256,-4.58726 0.363,-0.90972 0.91106,-1.92757 1.21792,-2.26188 l 0.55792,-0.60783 0.90802,0.0787 0.90802,0.0787 0.53361,0.71776 0.53361,0.71775 -0.31493,1.40727 c -1.47697,6.59979 -7.78072,11.4013 -13.002852,9.90416 z m -24.46146,-1.5316 c -4.54389,-0.66212 -9.26794,-3.70342 -10.88435,-7.00725 l -0.70557,-1.44212 0.14368,-1.07117 c 0.39814,-2.9684 3.72892,-5.34583 7.99291,-5.70516 l 1.85333,-0.15618 1.68992,0.43344 c 10.11659,2.59479 12.88783,13.28779 3.87549,14.95381 -1.72834,0.3195 -1.73606,0.31949 -3.96541,-0.005 z m -38.68818,-17.79901 c -2.44811,-0.7985 -4.65893,-2.83754 -5.86417,-5.40853 l -0.70389,-1.50155 0.0159,-2.91041 0.0159,-2.91042 0.84298,-2.53777 c 1.27891,-3.85014 3.38697,-4.75837 4.82178,-2.0774 l 0.26917,0.50294 -0.69967,2.43201 -0.69967,2.43201 0.12396,1.93155 0.12396,1.93155 0.70395,1.06373 c 0.96887,1.46407 2.53077,2.44143 4.15029,2.59705 l 1.32119,0.12695 1.23647,-0.47222 c 1.51706,-0.57937 3.3239,-2.20451 4.24059,-3.81414 1.40471,-2.46656 2.49782,-2.99927 3.75365,-1.82929 l 0.60879,0.56718 -0.13229,0.98633 c -0.40048,2.98581 -3.27153,6.67712 -6.38256,8.20608 l -1.82516,0.897 -2.40817,0.0739 c -1.51099,0.0463 -2.81979,-0.0604 -3.51302,-0.28651 z m -104.63882,-0.81258 -0.295873,-0.64937 0.739557,-1.53344 0.739557,-1.53344 3.640576,-3.63802 c 2.348515,-2.34687 3.83635,-3.63802 4.192197,-3.63802 h 0.551621 v 0.54231 c 0,1.24326 -3.824498,6.88761 -6.848415,10.10717 l -0.931895,0.99219 h -0.745725 -0.745726 z m 36.118514,-7.42858 c -0.548785,-1.43011 1.49059,-4.45436 5.67844,-8.42073 3.748024,-3.54981 4.907803,-2.26354 1.978926,2.19476 -2.950598,4.49136 -7.045403,7.82072 -7.657366,6.22597 z m 10.543702,-21.608289 c -2.008476,-2.008476 4.833264,-8.108847 10.405024,-9.277535 l 1.4517404,-0.304507 0.40603,0.406031 0.40604,0.406032 -0.24561,0.641135 C -10.432982,92.35188 -20.268238,98.787349 -21.670386,97.385201 Z M -48.474093,87.208938 c -0.233612,-0.0625 -0.57345,-0.391479 -0.755195,-0.731073 l -0.330446,-0.617444 0.44836,-0.944847 c 1.308827,-2.758148 12.219266,-7.307635 17.551743,-7.318808 l 1.14388,-0.0024 -0.08851,0.459594 c -0.192053,0.997249 -11.549527,7.547121 -15.221631,8.778338 -1.640569,0.550064 -1.944318,0.591693 -2.748201,0.376637 z m -24.405075,-1.102591 c -0.649527,-0.71772 -0.536212,-1.726907 0.286255,-2.549373 3.800742,-3.800742 18.386548,-5.785431 14.769101,-2.00963 -1.798157,1.87687 -10.284777,5.042857 -13.517687,5.042857 h -1.099787 z m 97.110076,-0.451164 c -0.77209,-1.619081 -0.38631,-2.641423 0.92741,-2.457723 l 0.61109,0.08545 -0.0867,-0.926042 c -0.18365,-1.96111 -0.16793,-2.200729 0.15159,-2.3109 0.1812,-0.06248 0.69246,0.249402 1.13612,0.693068 0.48945,0.489444 0.84413,0.680032 0.90193,0.484646 0.31853,-1.076706 0.44611,-1.248064 0.92924,-1.248064 0.29437,0 0.6752,0.224127 0.84627,0.498059 l 0.31104,0.498059 0.95895,-0.128621 0.95895,-0.128622 0.35215,0.424313 0.35214,0.424312 -0.34542,0.416213 c -0.18999,0.228917 -0.82964,0.661506 -1.42146,0.961307 -0.59182,0.299802 -2.09883,1.2436 -3.34892,2.097329 -2.67286,1.825386 -2.65945,1.822827 -3.23436,0.617216 z m -45.623481,-10.46075 c -4.221995,-1.281618 8.382971,-5.008397 16.9397414,-5.008397 3.77550998,0 4.34301998,1.560962 0.85349,2.34757 -7.0430104,1.587631 -16.6137794,3.018859 -17.7932314,2.660827 z M 117.06849,73.904398 c -1.94568,-1.282603 -1.88982,-3.872539 0.10579,-4.904509 2.44331,-1.263483 5.1847,1.493001 3.806,3.826953 -0.84383,1.428496 -2.63214,1.921109 -3.91179,1.077556 z M 80.538148,52.498725 c -1.43503,-0.466613 -2.24896,-1.667248 -2.24896,-3.317454 v -1.179634 l 0.67308,-0.799908 c 0.88855,-1.055984 1.50105,-1.215888 2.62124,-0.684323 l 0.92675,0.43977 0.69235,1.415119 0.69236,1.41512 -0.31663,0.959371 c -0.19315,0.58526 -0.6413,1.157352 -1.14924,1.467072 -0.87831,0.535562 -1.04345,0.56044 -1.89095,0.284867 z M 13.969108,43.895031 C 6.4753984,40.855031 3.1679084,38.489002 5.1497184,37.58603 l 0.67927,-0.309496 1.7121,0.45621 c 2.09256,0.557589 6.5613396,2.603249 8.6804996,3.973653 1.56922,1.014769 1.82914,1.231678 2.50261,2.088491 l 0.36312,0.461982 -0.32937,0.396875 c -0.53838,0.648701 -1.82007,0.445637 -4.78884,-0.758714 z m 46.688,-3.45467 c -1.49594,-1.544479 -2.79397,-3.840681 -3.29427,-5.827569 l -0.31164,-1.237636 0.34878,-0.651698 c 0.92981,-1.73738 2.42384,-1.023643 5.46553,2.611041 0.80357,0.960238 1.64891,2.773226 1.83465,3.934774 l 0.15488,0.968603 -0.48372,0.818872 -0.48372,0.818872 h -0.92016 -0.92017 z m -13.05958,0.979041 c -1.17409,-0.443333 -6.13395,-4.853571 -6.75464,-6.006141 l -0.48759,-0.905387 0.3677,-0.443045 0.36769,-0.443044 0.86471,0.140322 c 2.41582,0.392034 8.40333,6.327409 7.6358,7.569309 -0.18135,0.293434 -1.31686,0.343547 -1.99367,0.08799 z m -70.881364,-0.817747 c -0.533644,-0.107576 -1.12291,-0.481908 -1.449776,-0.920972 l -0.5507,-0.73973 0.393826,-0.715479 c 0.216605,-0.393513 0.988066,-1.012468 1.714359,-1.375455 l 1.320533,-0.659977 4.630212,-0.0015 4.6302,-0.0015 1.45521,0.482319 c 0.80037,0.265275 1.7954404,0.756211 2.2112804,1.090969 l 0.75607,0.608651 -0.17099,0.538742 -0.17099,0.538741 -1.24654,0.289395 c -3.1063204,0.721163 -11.5563314,1.262154 -13.5226944,0.865759 z M 128.79232,139.30842 c 2.1466,-5.81716 2.19589,-10.68665 0.15019,-14.83913 -1.59166,-3.23086 -1.20146,-3.50092 2.43254,-1.68351 2.3363,1.16841 6.35864,2.64902 8.38473,3.08639 l 0.74872,0.16162 -0.18692,-0.60565 c -0.8242,-2.67051 -3.31686,-5.69631 -6.29785,-7.64484 -2.15991,-1.41184 -2.25406,-1.42178 -4.89087,-0.51643 -1.29549,0.44481 -2.54966,0.80874 -2.78705,0.80874 h -0.43162 v 0.83037 c 0,0.45671 0.14106,2.18364 0.31347,3.83764 l 0.31347,3.00726 -0.54547,0.7378 -0.54548,0.73779 0.49659,0.61326 0.49659,0.61326 v 2.66474 c 0,1.46562 -0.13361,3.70659 -0.29691,4.97994 l -0.29691,2.31519 0.99024,1.20846 c 1.24856,1.5237 1.27646,1.51923 1.95254,-0.3129 z m -1.27294,-24.83444 c 6.5502,-1.9452 12.5867,-9.29832 9.64062,-11.74335 l -0.39585,-0.32853 -1.45623,0.71247 c -0.80093,0.39186 -1.45623,0.80894 -1.45623,0.92686 0,0.11792 -0.68461,0.48749 -1.52135,0.82128 -1.92218,0.76678 -4.03107,2.08403 -5.85029,3.65421 -0.78019,0.67338 -1.65069,1.40893 -1.93445,1.63457 l -0.51592,0.41024 0.437,1.83871 c 0.60773,2.55707 0.58209,2.50018 1.1266,2.50018 0.2692,0 1.13594,-0.19199 1.9261,-0.42664 z m 1.04064,-11.65193 c 0.65485,-0.4494 2.32172,-1.38706 3.70417,-2.08369 l 2.51354,-1.266597 -0.92604,-0.42151 -0.92604,-0.421511 -3.43958,0.0013 -3.43959,0.0013 -1.32291,0.602361 c -1.55738,0.709116 -4.63021,2.733867 -4.63021,3.050927 0,0.12129 0.4563,1.01521 1.01401,1.98648 0.5577,0.97128 1.16577,2.14883 1.35126,2.61679 l 0.33726,0.85084 2.28675,-2.04981 c 1.25772,-1.12739 2.82254,-2.4175 3.47738,-2.86689 z M 12.147278,75.131358 c 0.007,-1.520116 0.78335,-4.193576 1.77381,-6.108665 l 0.97199,-1.879366 1.99858,-1.984435 c 2.04692,-2.032438 3.96927,-3.230992 6.62879,-4.132953 l 1.45521,-0.493526 3.0427,0.01632 3.04271,0.01632 1.45521,0.549986 c 0.80036,0.302493 1.67466,0.638738 1.94287,0.747212 l 0.48767,0.197226 -0.53111,-1.029951 c -1.35033,-2.618612 -5.30897,-5.131186 -8.88145,-5.637112 l -1.81644,-0.25724 -1.47936,0.273474 c -6.76995,1.251493 -13.1773496,13.002519 -10.88203,19.957401 0.35657,1.080442 0.78534,0.9532 0.79085,-0.234694 z"
       id="path36" /></g></svg>
