<?xml version="1.0" encoding="UTF-8" standalone="no"?>
<!-- Created with Inkscape (http://www.inkscape.org/) -->

<svg
   width="647.49799mm"
   height="799.24835mm"
   viewBox="0 0 647.49802 799.24834"
   version="1.1"
   id="svg1"
   xml:space="preserve"
   xmlns="http://www.w3.org/2000/svg"
   xmlns:svg="http://www.w3.org/2000/svg"><defs
     id="defs1" /><g
     id="layer1"
     transform="translate(1139.9117,278.18642)"><path
       style="fill:#000000"
       d="m -907.60756,520.75607 c -21.23197,-1.04609 -50.22869,-6.84415 -65.14967,-13.02705 -4.33613,-1.79679 -12.57577,-7.07137 -13.89815,-8.89686 -2.14928,-2.967 -3.41062,-8.57103 -2.99673,-13.31424 0.52672,-6.03619 2.36734,-11.24687 5.74318,-16.25861 2.43938,-3.62148 3.01791,-4.83701 2.7708,-5.82158 -0.27208,-1.08408 -1.42115,-1.64866 -5.31526,-2.6116 -1.74625,-0.43182 -4.7625,-1.32226 -6.70278,-1.97877 -5.1456,-1.74104 -4.92785,-1.82073 -5.64084,2.06431 -0.32938,1.79476 -0.82549,3.80658 -1.10247,4.47072 -0.80292,1.92519 -2.81892,4.13021 -4.53612,4.96153 -1.479,0.71598 -2.0055,0.75959 -7.8529,0.65057 -5.1667,-0.0963 -6.4226,-0.22155 -7.1496,-0.71292 -0.4851,-0.32785 -2.0622,-0.86317 -3.5047,-1.18962 -5.9447,-1.3453 -24.3964,-9.90282 -27.3415,-12.68043 -0.7188,-0.67787 -1.4763,-1.23249 -1.6834,-1.23249 -0.6647,0 -6.162,-3.83268 -7.8491,-5.47239 -0.8977,-0.87252 -2.1951,-1.82155 -2.8829,-2.10895 -3.262,-1.36294 -9.9571,-7.56334 -27.3538,-25.33272 -16.4127,-16.76419 -22.6217,-22.85789 -30.1368,-29.57678 -4.6162,-4.12721 -6.845,-6.40807 -6.845,-7.00491 0,-0.55257 -1.4664,-1.72986 -3.155,-2.53297 -2.0066,-0.95437 -7.7457,-6.61367 -8.8808,-8.75739 -0.7063,-1.33377 -0.8406,-2.09633 -0.8406,-4.77113 v -3.18364 l 2.1833,-4.40108 c 2.3759,-4.78905 2.7215,-5.31608 8.2663,-12.60296 4.6032,-6.0494 5.0062,-7.14876 5.7877,-15.78702 0.3434,-3.79575 1.8467,-12.23822 3.0014,-16.85611 1.0325,-4.1293 1.6167,-5.61933 2.8654,-7.30917 0.9098,-1.23121 1.6119,-4.93298 2.2437,-11.82888 0.5776,-6.30341 0.9581,-8.49698 1.7344,-9.99828 0.2677,-0.51768 0.6506,-1.81116 0.8508,-2.8744 0.2002,-1.06324 1.0087,-3.17201 1.7967,-4.68617 1.4561,-2.79781 1.728,-3.90204 1.0623,-4.3135 -0.2038,-0.12595 -1.848,-0.53082 -3.6538,-0.89973 -5.2271,-1.06782 -7.3212,-2.25505 -8.6818,-4.92215 -1.549,-3.03626 -1.2155,-6.31688 1.0781,-10.60448 0.7687,-1.43697 2.0402,-3.92237 2.8256,-5.5231 0.7854,-1.60073 1.6462,-2.91042 1.9128,-2.91042 0.2667,0 0.6766,-0.59531 0.9109,-1.32291 0.2992,-0.92893 1.8666,-2.79379 5.263,-6.26181 2.6603,-2.71639 5.9799,-6.32625 7.3768,-8.02192 1.397,-1.69567 4.3194,-4.79086 6.4943,-6.87819 9.8854,-9.48747 11.5365,-11.45474 15.5725,-18.55441 1.1656,-2.05036 12.3611,-13.59282 14.0844,-14.5209 0.7861,-0.42332 1.3289,-1.04109 1.5293,-1.74042 0.2054,-0.71667 1.02,-1.62226 2.4032,-2.67166 1.1508,-0.87312 2.9132,-2.39928 3.9164,-3.39146 1.0032,-0.99218 2.2247,-1.90455 2.7146,-2.02749 0.4898,-0.12294 1.8165,-1.27821 2.9483,-2.56728 1.3432,-1.52993 2.6033,-2.57762 3.629,-3.01728 0.8642,-0.37045 2.3265,-1.37995 3.2495,-2.24335 0.9231,-0.86339 1.9041,-1.5698 2.1801,-1.5698 0.6306,0 4.2223,-2.76847 5.1935,-4.0031 1.6026,-2.03733 1.2063,-4.14733 -1.3351,-7.1094 -5.1401,-5.99096 -11.319,-28.64497 -12.6296,-46.30453 -0.1333,-1.7961 -0.3993,-3.36264 -0.5911,-3.48119 -0.6427,-0.39718 -2.0873,0.6942 -2.2952,1.73402 -0.1173,0.58659 -0.5438,1.17182 -1.008,1.38333 -0.4425,0.20164 -0.8935,0.72058 -1.002,1.15321 -0.1086,0.43262 -1.0788,1.64302 -2.1561,2.68976 -1.4348,1.39416 -2.0943,2.35985 -2.466,3.61063 -0.3501,1.17841 -0.9546,2.1075 -1.9509,2.99861 -0.794,0.71014 -2.271,2.64053 -3.2822,4.28977 l -1.8385,2.99861 -2.2782,0.45247 c -3.317,0.65877 -7.4044,-0.36459 -7.4044,-1.85383 0,-0.27674 -0.459,-0.94776 -1.02,-1.49118 -1.1357,-1.10019 -1.692,-2.62957 -3.1182,-8.57274 -0.9557,-3.98301 -0.9734,-4.25622 -0.9661,-14.99305 0.01,-15.202871 1.2745,-25.211325 3.8698,-30.634973 1.0701,-2.236253 1.9683,-5.524751 1.5091,-5.524751 -0.093,0 -2.137,0.934227 -4.5431,2.07606 -9.4816,4.499701 -13.931,4.758412 -17.5214,1.018785 -0.6339,-0.660174 -1.3086,-1.744599 -1.4994,-2.409835 -0.4653,-1.622533 -0.4423,-15.021606 0.033,-19.307942 0.209,-1.884123 0.7647,-5.20892 1.2348,-7.388437 0.4701,-2.179517 0.8547,-4.354516 0.8547,-4.83333 0,-1.669622 0.7575,-4.385049 1.4442,-5.176756 0.3804,-0.438649 0.7715,-1.204831 0.8691,-1.702627 0.6049,-3.086275 2.0524,-6.416677 5.913,-13.605084 2.5585,-4.763977 4.8954,-8.66412 5.6602,-9.446615 0.7164,-0.733 2.239,-2.650359 3.3835,-4.2607975 3.7165,-5.229381 17.0677,-18.7069825 21.0757,-21.2751455 1.0082,-0.646056 2.2782,-1.759341 2.8222,-2.473966 1.2743,-1.674091 4.1831,-3.54425 8.1027,-5.209539 4.8269,-2.050723 4.5997,-1.549136 3.7946,-8.380509 -0.4736,-4.019129 -0.6777,-8.087518 -0.6777,-13.511759 0,-7.114352 0.059,-7.864005 0.7055,-8.995833 0.6422,-1.123753 0.7006,-1.821279 0.6495,-7.761111 -0.031,-3.589514 -0.2092,-9.701389 -0.3964,-13.581944 -0.5893,-12.214203 0.1441,-18.79965 2.9262,-26.276866 0.8313,-2.234115 1.6971,-4.972755 1.9242,-6.085875 0.2522,-1.23679 0.9066,-2.74182 1.6827,-3.87005 1.5563,-2.26257 3.9736,-7.34654 3.9736,-8.35738 0,-1.01974 -0.3963,-0.93659 -2.2387,0.46976 -0.873,0.66634 -2.1155,1.47716 -2.7611,1.80182 -0.6456,0.32467 -1.8882,1.28021 -2.7613,2.12342 -2.2336,2.15704 -4.5285,3.10404 -7.5848,3.12992 -1.866,0.0158 -2.7109,-0.14241 -3.4576,-0.6475 -2.0802,-1.40707 -2.4932,-3.6243 -1.3049,-7.00524 0.3881,-1.10409 0.7056,-2.4628 0.7056,-3.01936 0,-1.3766 1.0787,-4.40602 3.1754,-8.918 0.9645,-2.07552 1.987,-4.66992 2.2724,-5.76535 0.2853,-1.09542 1.2797,-3.16398 2.2098,-4.5968 0.93,-1.43282 2.7229,-4.47841 3.9841,-6.76798 3.1347,-5.69093 11.568,-18.32584 13.3847,-20.0534 0.8162,-0.77612 1.896,-2.28424 2.3996,-3.35139 0.7005,-1.48438 2.3315,-3.35695 6.9414,-7.96946 6.0359,-6.03941 10.1399,-9.54648 15.7036,-13.41929 2.0225,-1.40789 3.4043,-2.69221 4.3155,-4.01125 0.7373,-1.06716 2.41469,-3.18174 3.72766,-4.69908 1.31296,-1.51734 2.49494,-3.04835 2.62661,-3.40224 0.52371,-1.40758 8.22924,-8.47924 9.23927,-8.47924 0.23072,0 1.44678,-1.05058 2.70235,-2.33462 4.92715,-5.03885 15.42043,-13.22892 20.67459,-16.13663 2.56475,-1.41936 4.84697,-2.9578 8.9782,-6.05217 2.43388,-1.82304 13.34783,-7.67517 21.49383,-11.52514 14.13391,-6.67998 22.0929,-9.55895 27.68902,-10.01582 4.0231,-0.32845 5.37131,0.12547 7.85013,2.64301 3.51346,3.56834 4.51492,3.70071 7.25652,0.95911 1.91374,-1.91375 7.65007,-5.16274 9.11517,-5.16274 0.37971,0 1.27639,-0.45253 1.99262,-1.00563 0.71622,-0.5531 2.81035,-1.57399 4.65362,-2.26864 1.84326,-0.69465 4.62138,-1.82115 6.17361,-2.50333 3.27741,-1.44038 9.37412,-3.23158 12.17083,-3.57576 1.06715,-0.13133 2.31316,-0.47574 2.7689,-0.76536 1.30835,-0.83143 7.359,-1.35522 10.64445,-0.92145 2.6675,0.35218 2.86203,0.44107 4.37733,2.0002 1.16111,1.19469 1.85754,1.63164 2.60059,1.63164 0.70583,0 1.34869,0.36692 2.11143,1.20511 1.54477,1.69759 2.3971,1.88867 3.54777,0.79536 0.61882,-0.58798 1.94995,-1.14754 3.91983,-1.64777 1.64054,-0.41661 3.86304,-1.12205 4.93889,-1.56767 2.84968,-1.18032 5.96688,-2.14156 10.95192,-3.3772 2.42535,-0.60116 5.38982,-1.39246 6.58772,-1.75843 2.00335,-0.61205 9.19406,-1.91288 15.63728,-2.82885 10.2749,-1.46069 25.76658,-2.27246 38.1,-1.99646 7.7458,0.17334 9.6331,0.32864 13.58194,1.11764 2.52236,0.50399 7.52299,1.46662 11.1125,2.13919 8.47117,1.58726 11.94746,2.65055 13.52268,4.13617 1.87563,1.76895 2.58984,5.57753 1.52193,8.11577 -0.67013,1.59277 -5.3281,5.89988 -8.21387,7.59515 -1.33156,0.78224 -3.11108,2.13106 -3.95449,2.99737 l -1.53347,1.57512 7.3543,0.21721 c 13.62367,0.40238 21.78709,1.34413 32.93069,3.79894 12.85635,2.83211 23.86988,6.60442 34.39584,11.78111 7.46662,3.6721 11.49913,6.17565 14.07244,8.73677 l 1.72522,1.71704 -0.22839,2.97129 c -0.35459,4.61307 0.3839,5.88041 3.79385,6.51078 2.49473,0.46117 14.31139,6.13338 16.3829,7.86407 0.81923,0.68445 3.27152,2.22378 5.44952,3.42073 4.18303,2.29883 6.47354,3.83536 9.07529,6.08788 0.87312,0.75592 2.1521,1.66318 2.84218,2.01613 2.1581,1.10377 9.76234,8.06559 16.73909,15.32492 7.25754,7.5515 8.44638,9.06091 8.78005,11.14754 0.14595,0.91274 0.4811,1.50606 1.00982,1.78769 0.43524,0.23184 0.9981,0.67342 1.25079,0.98127 1.04725,1.27588 2.9055,5.59946 3.44087,8.00581 0.71374,3.20814 0.45857,4.12662 -1.95166,7.0249 -0.96488,1.16027 -1.75837,2.35863 -1.7633,2.66302 -0.005,0.30439 1.49666,2.20939 3.33685,4.23333 1.84019,2.02395 3.54676,4.12318 3.79236,4.66497 0.24561,0.54179 0.95737,1.28747 1.58169,1.65707 0.66721,0.395 1.23549,1.07959 1.37859,1.66077 0.1339,0.54381 0.76199,1.59858 1.39575,2.34392 1.42615,1.67722 3.54856,5.67194 4.57648,8.61365 0.42578,1.21851 1.16886,2.58128 1.6513,3.02839 0.48244,0.44711 1.16028,1.6744 1.50632,2.72731 0.34604,1.0529 1.50691,3.89875 2.5797,6.3241 2.29965,5.19899 2.8035,8.01712 1.49458,8.35941 -0.6028,0.15764 -0.73175,0.38431 -0.57466,1.01019 0.50472,2.01098 -3.67487,4.731891 -7.27813,4.73806 l -2.01272,0.0034 0.0557,15.434027 c 0.0701,19.44782 -0.52206,25.241805 -2.72768,26.686982 -1.402,0.918624 -2.08681,2.547545 -1.58267,3.764631 0.23019,0.555726 0.65117,1.203491 0.93552,1.439479 1.5962,1.324729 2.64133,5.701876 3.23251,13.538195 0.32467,4.303655 0.15142,6.811259 -0.56134,8.124791 -0.21656,0.399084 -0.54526,2.647482 -0.73046,4.996441 -0.26849,3.405408 -0.52356,4.665785 -1.25878,6.219907 -0.50713,1.071991 -0.92206,2.226284 -0.92206,2.565096 0,1.090527 1.47489,3.702714 2.25893,4.000805 0.41817,0.158989 1.8304,1.258825 3.13828,2.4440794 1.30788,1.1852544 2.51954,2.155008 2.69257,2.155008 0.17303,0 2.63953,2.2231001 5.48112,4.9402221 2.84159,2.717123 5.61513,5.172206 6.16342,5.45574 0.5483,0.283534 1.09882,0.921611 1.2234,1.417949 0.12457,0.496337 1.30048,2.049691 2.61312,3.451899 3.59449,3.8397395 4.18213,4.6541865 4.82233,6.6836575 1.03969,3.295836 1.32193,3.827473 2.30068,4.333605 0.79842,0.41288 1.20147,1.201391 2.38075,4.657669 0.78079,2.288356 2.18823,5.827522 3.12766,7.864813 1.57355,3.412493 1.69918,3.884727 1.59552,5.997223 -0.22936,4.674218 -0.18156,5.143866 0.76009,7.468501 0.52428,1.294273 0.95324,2.759051 0.95324,3.255062 0,0.572676 0.3219,1.112755 0.88195,1.47971 0.48507,0.31783 0.88194,0.80689 0.88194,1.086801 0,0.279911 0.87704,2.490843 1.94898,4.913183 3.0556,6.904972 6.55498,19.265543 7.65437,27.036896 0.25019,1.768522 0.41982,7.97568 0.43153,15.7904 0.018,11.985498 -0.0336,13.108258 -0.74589,16.227778 -1.6729,7.32707 -3.8595,12.74796 -5.24159,12.99462 -0.38281,0.0683 -1.27068,0.67704 -1.97306,1.35271 -1.53336,1.47508 -3.28064,1.93421 -5.80026,1.52413 -3.92111,-0.63818 -6.88602,-2.70094 -16.91158,-11.76578 l -5.29166,-4.78458 -0.25057,1.48598 c -0.13781,0.81728 -0.65758,5.03863 -1.15505,9.38077 -1.05967,9.24932 -1.91368,13.50641 -3.57706,17.83095 -0.66596,1.73138 -1.36625,4.24378 -1.5562,5.58311 -0.22853,1.61138 -0.6297,2.81391 -1.18588,3.55481 -1.8227,2.42805 -4.08458,7.94326 -4.61757,11.25915 -0.14207,0.88388 -0.7757,1.96401 -1.91769,3.26902 -0.93803,1.07194 -1.7958,2.40045 -1.90616,2.95223 -0.11036,0.55179 -0.58056,1.46198 -1.04489,2.02265 -0.98252,1.18636 -1.66254,2.99455 -1.66254,4.4207 0,0.66683 -0.35023,1.31502 -1.04499,1.93406 -0.57475,0.5121 -1.96276,2.14051 -3.08448,3.6187 -1.12172,1.47818 -3.18486,4.07474 -4.58476,5.77014 -2.85575,3.45855 -3.41463,4.34861 -3.15516,5.02479 0.0987,0.25711 1.67272,1.19874 3.4979,2.09252 1.82519,0.89378 4.44466,2.47822 5.82105,3.52097 1.72519,1.30701 3.08527,2.03297 4.37857,2.33713 3.51924,0.82764 5.67002,1.84101 8.53631,4.022 2.69518,2.05078 4.84954,3.43637 8.76486,5.63718 2.5694,1.44427 6.89128,4.81262 10.91146,8.5041 2.00723,1.84312 4.24366,3.61894 4.96984,3.94628 0.72618,0.32733 1.40165,0.85136 1.50103,1.1645 0.0994,0.31315 0.89055,0.91422 1.75814,1.33573 1.08672,0.52797 1.72772,1.12607 2.06056,1.92268 0.26573,0.63597 1.18229,1.73138 2.03682,2.43424 2.22724,1.83194 7.82171,7.59681 8.34913,8.60343 0.24573,0.46899 0.54578,1.61204 0.66676,2.54009 0.26205,2.01008 0.63817,2.56932 1.72801,2.56932 1.59363,0 1.92228,0.80758 1.92228,4.72367 0,6.17036 -1.31449,9.10345 -4.61851,10.30558 -2.4537,0.89276 -3.24764,2.01422 -3.42768,4.84169 -0.13246,2.08025 -0.0821,2.26347 0.77676,2.82623 0.50513,0.33097 1.49132,1.74919 2.19155,3.1516 0.70022,1.40241 1.86345,3.34359 2.58496,4.31373 0.7215,0.97014 1.89998,2.8198 2.61884,4.11036 0.71886,1.29057 1.75816,2.91416 2.30954,3.60799 0.5711,0.71864 1.2535,2.26063 1.58572,3.58321 0.5795,2.30701 1.3941,4.1796 3.14045,7.21927 0.50824,0.88464 1.0859,2.67786 1.30472,4.05022 0.21596,1.35449 1.01282,4.29137 1.77079,6.52639 0.75797,2.23502 1.55378,5.07779 1.76847,6.31728 0.21468,1.23949 0.7132,3.06511 1.10782,4.05694 0.58136,1.46122 0.75334,2.90787 0.90652,7.62544 0.28432,8.75657 -0.33846,15.12554 -2.19036,22.40012 -1.88375,7.3997 -4.13183,14.10682 -5.06651,15.11588 -0.38674,0.41751 -1.32731,2.10849 -2.09015,3.75773 -0.76284,1.64923 -2.08664,3.84547 -2.94177,4.88051 -0.85512,1.03505 -2.51008,3.25426 -3.67769,4.93159 -1.1676,1.67732 -2.43984,3.21171 -2.8272,3.40976 -2.20225,1.12594 -6.13847,3.93756 -9.51377,6.79564 -1.67233,1.41606 -4.85858,2.99158 -8.03277,3.97198 -1.2593,0.38896 -2.48599,0.94378 -2.72597,1.23294 -1.02559,1.23576 -14.06329,4.31664 -21.69682,5.12708 -5.15786,0.5476 -6.52639,0.907 -6.52639,1.71394 0,0.66695 1.18362,2.43155 3.71842,5.5436 0.82307,1.01051 1.68232,2.40035 1.90945,3.08854 0.22712,0.6882 0.70737,1.34471 1.06722,1.45892 0.35985,0.11421 0.81362,0.66475 1.00837,1.22341 0.42378,1.21566 2.91928,3.79263 4.11179,4.24602 2.03677,0.77438 2.46489,4.28936 0.94983,7.79849 -0.87103,2.01745 -2.62509,4.05472 -3.72976,4.33198 -0.45917,0.11524 -1.09612,0.60827 -1.41544,1.09562 -0.36358,0.5549 -0.91001,0.88609 -1.46196,0.88609 -0.59779,0 -1.01067,0.28377 -1.28322,0.88194 -0.24826,0.54489 -0.69333,0.88195 -1.16457,0.88195 -1.15523,0 -7.09958,3.01121 -9.48675,4.80568 -1.16144,0.87307 -2.55464,1.67599 -3.09599,1.78426 -0.54136,0.10827 -1.07579,0.48516 -1.18763,0.83753 -0.11293,0.35582 -0.94103,0.90995 -1.86252,1.24631 -0.91255,0.33309 -2.10379,1.05776 -2.6472,1.61037 -0.63697,0.64775 -1.35262,1.00474 -2.01419,1.00474 -0.61828,0 -1.34737,0.33309 -1.83421,0.83799 -0.44441,0.46089 -1.23401,0.93751 -1.75465,1.05915 -0.52064,0.12164 -1.04716,0.53792 -1.17004,0.92508 -0.12288,0.38715 -0.6494,0.80449 -1.17004,0.92742 -0.52065,0.12293 -1.26413,0.50341 -1.65218,0.84551 -0.38806,0.34209 -2.1772,1.35634 -3.97586,2.25387 -1.79867,0.89752 -3.624,1.98585 -4.0563,2.4185 -0.43229,0.43265 -1.50065,1.11943 -2.37413,1.52617 -1.77659,0.82727 -5.79175,3.43697 -11.19698,7.27761 -1.98639,1.41141 -4.1692,2.85957 -4.8507,3.21814 -0.6815,0.35857 -1.23909,0.78548 -1.23909,0.94868 0,0.16321 0.63021,1.02488 1.40045,1.91484 2.13367,2.46525 3.4013,4.43547 5.28181,8.20927 3.16058,6.34263 5.00387,12.77187 5.65571,19.72669 1.05806,11.28887 -2.40227,15.66132 -16.11012,20.35662 -11.85326,4.06006 -32.30609,8.11336 -45.94518,9.10532 -17.03072,1.23864 -51.6145,-2.47917 -72.90629,-7.83754 -14.73482,-3.70821 -20.2475,-6.86609 -22.02343,-12.61588 -0.39057,-1.26453 -0.87682,-4.2972 -1.08056,-6.73927 -0.20373,-2.44207 -0.43204,-4.75762 -0.50735,-5.14568 -0.13519,-0.69661 -0.41776,-0.70555 -22.28917,-0.70555 -25.31883,0 -35.11569,-0.50175 -46.89369,-2.40168 l -2.86922,-0.46284 -0.21452,1.78504 c -0.11798,0.98177 -0.21999,3.21378 -0.22669,4.96003 -0.0189,4.93844 -0.60881,9.92375 -1.38069,11.66873 -0.85361,1.92972 -3.72327,4.85119 -6.55077,6.66903 -8.03753,5.16744 -24.46186,10.78316 -37.04166,12.66508 -5.57152,0.83349 -6.26814,0.90432 -14.2875,1.4528 -8.19919,0.56078 -9.2257,0.56858 -17.99167,0.13668 z m 23.98889,-13.89239 c 13.79153,-1.79265 29.06082,-6.31179 36.59089,-10.82954 2.45804,-1.47472 2.8197,-2.03668 3.25665,-5.06016 0.4668,-3.23006 0.48554,-17.80328 0.0229,-17.80328 -0.19042,0 -1.42757,0.18543 -2.74921,0.41206 -2.27635,0.39036 -2.50442,0.36528 -4.32807,-0.47576 -2.66285,-1.22808 -5.48101,-3.55436 -6.33586,-5.23001 -0.45556,-0.89298 -1.13205,-1.57831 -1.85709,-1.88138 -1.55408,-0.64962 -2.14888,-1.44527 -1.88032,-2.5153 0.67666,-2.69601 7.03387,-2.52149 10.03459,0.27548 0.45544,0.42452 1.13336,1.36717 1.50647,2.09477 0.37312,0.7276 0.85103,1.32292 1.06202,1.32292 0.211,0 2.41475,-1.14239 4.89722,-2.53864 l 4.51359,-2.53865 0.21786,-5.83983 c 0.30628,-8.21004 0.81317,-13.03417 1.61415,-15.36227 1.53511,-4.46187 5.40892,-10.56934 10.40783,-16.40901 3.78574,-4.42247 4.37199,-5.64166 2.7132,-5.64244 -1.08528,-5e-4 -4.87388,-2.01319 -5.65228,-3.00277 -1.01297,-1.28778 -0.96505,-1.87221 0.17702,-2.15885 1.00654,-0.25262 1.66256,-0.1629 12.81622,1.75285 9.50092,1.63188 15.99065,2.11344 28.39861,2.10729 14.35453,-0.007 21.62347,-0.59287 32.58811,-2.62603 3.17736,-0.58917 6.74923,-1.09738 7.9375,-1.12935 2.08363,-0.0561 2.1643,-0.0254 2.26736,0.86254 0.14967,1.28961 -2.29815,3.40825 -7.50754,6.49792 -2.2805,1.35255 -4.21607,2.63611 -4.30127,2.85236 -0.0852,0.21624 1.22844,2.50692 2.91919,5.09039 3.86721,5.90909 5.81868,9.72266 6.88642,13.45743 0.75741,2.6493 0.83801,3.61467 0.83801,10.03712 0,6.4236 0.0628,7.17537 0.65394,7.82931 0.35967,0.39788 1.07404,0.81457 1.5875,0.92598 2.3651,0.5132 9.01224,-2.41188 14.52237,-6.39058 4.16793,-3.00954 7.09816,-4.70811 8.12205,-4.70811 1.1327,0 2.70646,1.61521 5.66331,5.81247 1.22693,1.74165 3.30764,4.28165 4.62378,5.64444 l 2.39298,2.47782 4.86294,-4.93889 c 2.67461,-2.71639 5.96167,-6.36764 7.30457,-8.11389 2.87337,-3.7364 4.66264,-5.82233 5.53432,-6.4519 0.51795,-0.37409 0.80309,-0.36406 1.60866,0.0566 1.00929,0.52701 4.87175,4.43006 10.61689,10.72845 1.80827,1.9824 3.51337,3.60437 3.78911,3.60437 0.27574,0 1.33625,-1.21275 2.35669,-2.695 1.02043,-1.48225 2.82388,-4.00489 4.00766,-5.60586 1.18378,-1.60098 2.96428,-4.49158 3.95667,-6.42356 1.81609,-3.53556 3.42855,-5.53512 4.93827,-6.12379 1.5417,-0.60114 2.71223,-0.36381 3.79159,0.76877 0.56988,0.59798 1.5256,1.29318 2.12382,1.54491 0.59822,0.25173 1.79128,0.99279 2.65124,1.6468 0.85995,0.65401 3.05754,1.98023 4.88353,2.94716 1.826,0.96692 3.86089,2.26817 4.52199,2.89167 1.30107,1.22707 1.41353,2.32508 0.25706,2.50977 -1.47377,0.23537 -2.64178,0.88605 -2.64178,1.4717 0,0.80565 -1.0086,1.60402 -2.17667,1.72295 -1.10365,0.11238 -3.34322,-0.95025 -4.34972,-2.06386 -1.70961,-1.89152 -6.92931,-3.17258 -8.32058,-2.0421 -0.30771,0.25003 -1.45471,1.80398 -2.54888,3.45322 -2.84132,4.28268 -6.81832,8.93902 -10.19948,11.94171 -3.52924,3.13419 -4.50878,3.69666 -5.6693,3.25543 -1.42256,-0.54085 -4.82674,-3.61029 -8.53953,-7.69981 l -3.52778,-3.88573 -4.23333,4.11645 c -7.68291,7.47079 -12.19072,10.85706 -14.92182,11.20928 -1.66755,0.21506 -3.8804,-1.19489 -6.27575,-3.99868 -0.92674,-1.08476 -3.01828,-3.13794 -4.64787,-4.56263 l -2.96289,-2.59033 -6.05695,3.06512 -6.05695,3.06512 -3.23986,0.009 c -3.11153,0.009 -3.28397,0.0513 -4.35303,1.06773 -2.18856,2.08078 -2.29518,2.53694 -2.18522,9.34861 0.0548,3.39549 0.21357,7.98051 0.35278,10.18895 l 0.25311,4.01533 3.52778,1.37773 c 5.8529,2.28577 25.12562,6.8084 34.925,8.19567 3.61148,0.51126 17.3039,1.76768 29.63333,2.71916 2.91042,0.22461 7.91104,0.42689 11.1125,0.44952 5.27317,0.0373 5.97614,-0.0306 7.47148,-0.72169 1.97545,-0.91294 2.58883,-1.95219 3.11533,-5.27829 0.49494,-3.12679 1.3098,-4.76799 2.5693,-5.1748 2.59595,-0.83848 3.42445,0.5222 3.42445,5.62412 v 3.29875 l 1.14652,-0.004 c 0.63059,-0.002 3.18716,-0.31871 5.68126,-0.70367 5.18476,-0.80027 6.78065,-1.5128 8.03076,-3.58557 1.98401,-3.28966 2.28766,-3.64613 3.19662,-3.75267 0.70713,-0.0829 1.3014,0.27604 2.54409,1.53657 1.83202,1.8583 2.03994,1.87992 6.74102,0.70091 4.88927,-1.22622 6.78127,-2.69546 7.79085,-6.05005 1.3078,-4.34549 -0.25743,-9.95089 -4.60951,-16.50757 -0.80134,-1.20728 -1.32363,-2.50493 -1.49985,-3.72646 -0.2762,-1.91455 -0.47668,-2.14438 -2.35816,-2.70332 -0.64347,-0.19115 -1.83392,-1.28 -3.175,-2.904 -2.57238,-3.11506 -5.29993,-4.76347 -10.60599,-6.40977 -5.22154,-1.62008 -6.68301,-2.40553 -6.82692,-3.66902 -0.1026,-0.90086 0.25875,-1.38988 2.78258,-3.76568 l 2.9005,-2.73037 -0.20486,-8.93433 c -0.22513,-9.81852 -0.56194,-12.17392 -2.91322,-20.37313 -1.91172,-6.66642 -4.17204,-12.68269 -6.88684,-18.33069 -1.34168,-2.79128 -2.43941,-5.28547 -2.43941,-5.54265 0,-0.25718 0.67469,-0.64855 1.49931,-0.86972 0.82461,-0.22117 1.61778,-0.47442 1.76259,-0.56278 0.52999,-0.32341 -0.82415,-2.15237 -4.52959,-6.11785 -4.39259,-4.70085 -7.19898,-8.00816 -7.19898,-8.48396 0,-0.1834 -0.57028,-0.96468 -1.26729,-1.73619 -1.91804,-2.12304 -5.29209,-7.95708 -10.03331,-17.34852 -3.39603,-6.72688 -4.39197,-8.42478 -4.84073,-8.25257 -1.75638,0.67399 -15.7842,4.94063 -19.78008,6.01623 -9.82373,2.64431 -22.74014,5.40341 -32.16469,6.87075 -10.49723,1.63435 -11.94328,2.12999 -15.28538,5.23913 -1.25399,1.16658 -2.94437,2.46 -3.7564,2.87427 -5.00167,2.55166 -13.25575,3.15519 -46.57489,3.40548 l -25.57639,0.19213 -2.21681,-1.33948 c -1.21925,-0.73672 -3.40968,-2.43863 -4.86762,-3.78203 l -2.65081,-2.44256 -9.94904,-0.65074 c -27.06014,-1.76995 -48.7129,-5.03319 -73.3374,-11.05255 -3.5539,-0.86873 -7.10952,-1.68224 -7.90136,-1.80779 -1.42913,-0.22659 -1.44842,-0.2147 -2.62475,1.61845 -0.65177,1.0157 -2.51869,4.55669 -4.14871,7.86887 -5.23342,10.63424 -9.38739,17.48282 -16.83156,27.74997 -4.93219,6.80257 -4.99259,6.91214 -3.96281,7.18819 0.43193,0.11578 1.10282,0.21356 1.49088,0.2173 1.42436,0.0137 3.35314,0.75806 3.71467,1.43358 0.52365,0.97845 -0.44241,2.95475 -3.35309,6.85954 -5.10127,6.84358 -8.87161,14.74872 -10.96916,22.99866 -1.70036,6.68776 -2.52547,16.47712 -1.4244,16.89964 0.55772,0.21402 3.95024,-1.43073 9.25969,-4.48925 4.98559,-2.87196 9.9994,-5.25426 11.2516,-5.34618 0.87812,-0.0645 1.14235,0.1211 1.64889,1.15797 0.76455,1.565 2.1579,6.78968 3.62893,13.60745 1.12194,5.19985 2.11518,7.61926 3.32184,8.0916 0.7805,0.30553 2.50707,-1.61106 2.95382,-3.2789 0.31466,-1.17474 0.60417,-1.55564 1.29858,-1.70848 1.88514,-0.41494 2.19842,-0.57748 3.36891,-1.74798 0.73922,-0.73921 1.55189,-1.20536 2.1014,-1.20536 0.52768,0 1.22139,-0.37779 1.68746,-0.91899 0.43528,-0.50544 2.03449,-1.53495 3.5538,-2.28778 1.56683,-0.77639 3.72454,-2.249 4.98552,-3.40254 3.26673,-2.98843 7.62946,-5.47684 9.93773,-5.66826 1.65668,-0.13738 1.94177,-0.054 2.73294,0.79974 0.48583,0.52421 1.63022,2.40837 2.54309,4.187 2.27678,4.43609 4.07576,7.16472 7.92264,12.01684 3.22185,4.06377 4.96077,5.50454 6.64362,5.50454 1.064,0 1.80679,-0.37765 1.80679,-0.91862 0,-0.8163 4.83011,-5.63477 7.42713,-7.40924 1.91982,-1.31175 2.75498,-1.67088 3.94253,-1.69531 1.29057,-0.0265 1.52242,0.0792 1.61611,0.73714 0.15818,1.11094 0.98211,1.65208 2.84107,1.86593 1.43818,0.16544 1.64847,0.29829 1.74169,1.1003 0.13146,1.1309 -0.45182,1.64164 -2.04772,1.79306 -1.13189,0.1074 -1.23621,0.21416 -1.26858,1.29822 -0.0429,1.43495 -0.56079,1.80496 -2.53642,1.81201 -2.02971,0.007 -3.7412,0.95694 -6.07136,3.36896 -2.88607,2.98745 -3.83702,3.3222 -9.46394,3.33147 l -4.70145,0.008 -1.06958,-1.06959 c -0.81617,-0.81617 -1.03451,-1.30855 -0.92155,-2.07822 0.1281,-0.87278 -0.0212,-1.08589 -1.10814,-1.58224 -0.6909,-0.31549 -1.8118,-1.30576 -2.4909,-2.20061 -5.32176,-7.01251 -8.55632,-10.35545 -10.01971,-10.35545 -0.58291,0 -1.65466,0.68456 -3.10792,1.98511 -3.31776,2.96914 -8.81122,6.67834 -12.97792,8.76274 -2.03729,1.01916 -4.79484,2.43095 -6.12789,3.13731 -3.12255,1.65458 -5.57595,1.78011 -7.2506,0.37098 -0.59697,-0.50232 -1.0854,-1.15559 -1.0854,-1.45173 0,-0.29613 -0.54165,-1.03608 -1.20367,-1.64433 -1.08352,-0.99551 -4.72692,-6.46294 -6.90795,-10.36633 -0.46076,-0.82462 -1.06506,-1.49931 -1.34289,-1.49931 -0.718,0 -16.84585,7.59051 -18.83519,8.86471 -4.4772,2.86771 -11.89035,12.28714 -15.24738,19.37391 -2.42291,5.11481 -2.96448,9.17492 -1.51824,11.38216 1.16897,1.78408 12.63923,8.357 14.58361,8.357 0.81634,0 0.83838,-0.0782 0.83838,-2.97341 0,-3.388 0.38491,-4.08214 2.26358,-4.08214 1.46182,0 2.17335,0.7807 2.87989,3.15989 0.78721,2.65081 3.08101,4.99171 6.46977,6.60261 3.11836,1.48236 10.32255,3.1171 11.33916,2.57302 0.34363,-0.1839 0.88593,-1.12064 1.20513,-2.08165 0.74105,-2.2311 1.78219,-3.5511 2.8009,-3.5511 0.99784,0 1.73866,0.79992 2.65106,2.86255 0.97311,2.19987 1.97331,3.38781 3.51434,4.17399 2.06746,1.05474 6.30315,1.76884 11.93958,2.01292 l 5.20742,0.2255 -0.1237,-3.23727 c -0.068,-1.7805 -0.0243,-3.63328 0.0972,-4.11729 0.53075,-2.1147 2.8822,-3.00492 3.88691,-1.47153 0.2889,0.44091 0.76792,1.95521 1.0645,3.36511 0.84094,3.99767 1.47692,4.90127 4.05035,5.75475 1.32837,0.44055 11.51748,0.0906 16.60116,-0.57019 z m 119.92632,-36.51486 c 4.51421,-0.49007 4.60295,-0.68264 2.63514,-5.71853 -1.46085,-3.73849 -1.47049,-4.51422 -0.1335,-10.74367 0.77494,-3.61068 0.80694,-4.12418 0.38469,-6.17361 -0.87814,-4.26216 -2.3308,-7.30234 -5.51871,-11.54973 -1.6606,-2.21249 -3.14717,-4.25125 -3.3035,-4.53059 -0.23542,-0.42067 -2.73217,-0.56127 -14.53942,-0.81876 -7.84036,-0.17098 -17.62119,-0.47977 -21.73518,-0.6862 -6.00117,-0.30113 -7.62748,-0.28552 -8.226,0.079 -1.58254,0.9637 -7.1971,9.52796 -9.68079,14.76673 -1.60754,3.39075 -1.80695,5.23895 -1.06307,9.85283 0.32847,2.0373 0.67666,4.59222 0.77376,5.67761 0.17363,1.94088 0.14972,2.00364 -1.44938,3.80414 -0.89426,1.00688 -1.62592,1.95474 -1.62592,2.10636 0,1.35891 11.58091,3.36245 24.79042,4.28883 5.50798,0.38628 34.29797,0.1226 38.69146,-0.35437 z m -246.16195,-13.41633 c 1.1761,-0.32667 1.3895,-0.59061 2.3518,-2.90845 0.582,-1.40205 1.6325,-4.59149 2.3343,-7.08765 0.7019,-2.49616 1.5165,-5.00329 1.8103,-5.5714 1.1061,-2.13903 5.08645,-2.3644 5.08645,-0.28801 0,0.8754 1.36089,1.94543 3.73315,2.93529 7.22213,3.01355 14.51927,5.36266 18.33833,5.90351 2.03515,0.28821 2.52195,0.23567 4.09781,-0.44225 2.53029,-1.0885 2.8803,-2.04934 2.38022,-6.53408 -0.70126,-6.28898 0.39119,-13.3791 3.38309,-21.95662 1.50463,-4.31363 2.8475,-7.07451 4.36751,-8.97939 0.60188,-0.75428 1.09434,-1.50666 1.09434,-1.67196 0,-0.16529 -0.79015,-1.17304 -1.75589,-2.23944 -0.96574,-1.06641 -1.84796,-2.30575 -1.96049,-2.75411 -0.47932,-1.90978 3.59512,-10.41503 6.20531,-12.95334 0.89785,-0.87313 2.17358,-2.61698 2.83495,-3.87522 0.66138,-1.25825 2.97976,-4.78704 5.15196,-7.84175 2.17219,-3.05471 4.38327,-6.31149 4.9135,-7.23728 0.53023,-0.92579 1.78898,-2.87387 2.79724,-4.32908 1.00825,-1.45521 2.57944,-4.15396 3.49153,-5.99723 0.91209,-1.84326 2.90724,-5.49451 4.43366,-8.11388 1.52642,-2.61938 2.87908,-5.1912 3.00591,-5.71517 0.15968,-0.65971 -0.0526,-1.57124 -0.69029,-2.96414 -0.50648,-1.10631 -0.97945,-1.9476 -1.05104,-1.86955 -0.0716,0.0781 -0.45846,1.45131 -0.85972,3.05169 -2.39387,9.54763 -12.4892,22.2516 -20.6958,26.04359 -2.30938,1.06709 -9.63058,2.96344 -11.50775,2.98077 -1.10732,0.0102 -3.50502,1.1273 -4.27111,1.9899 -0.33518,0.3774 -1.01776,2.26513 -1.51685,4.19496 -1.63651,6.3279 -6.13682,12.47672 -12.54072,17.13452 -1.32096,0.96079 -2.73271,2.28239 -3.13722,2.9369 -0.4045,0.6545 -1.27657,3.38691 -1.93793,6.07201 -1.58801,6.4473 -3.95298,14.1183 -4.80138,15.57371 -0.47837,0.82064 -0.68009,1.83338 -0.68009,3.41438 0,3.33531 -1.08598,4.17814 -3.14794,2.44312 -0.93093,-0.78333 -1.0854,-1.1513 -1.0854,-2.58565 0,-0.9198 0.77484,-4.91753 1.72187,-8.88385 1.77525,-7.43508 2.76026,-13.27112 2.39886,-14.21291 -0.17915,-0.46686 -0.52209,-0.43034 -2.60449,0.27734 -1.319,0.44824 -4.03958,1.16613 -6.04568,1.59531 -2.0062,0.42918 -5.1393,1.2395 -6.9625,1.80072 -5.0248,1.54673 -11.0102,1.87994 -29.4032,1.63686 -8.4551,-0.11174 -16.2836,-0.35486 -17.3967,-0.54027 -2.7644,-0.46048 -16.6409,-4.08054 -20.599,-5.37378 -3.1295,-1.02253 -6.2385,-2.48436 -11.8598,-5.57652 -1.5029,-0.82673 -2.9111,-1.44364 -3.1293,-1.37092 -0.2181,0.0727 0.7167,1.03178 2.0775,2.13124 1.3608,1.09946 5.0649,4.82372 8.2314,8.27613 21.7389,23.70178 35.4095,35.13676 52.1738,43.64153 9.8356,4.98973 17.0958,6.98745 21.2255,5.84042 z m 394.79359,-13.09034 c 0.81239,-0.41446 3.5445,-2.05562 6.07136,-3.64704 6.12381,-3.85678 9.27519,-5.65221 10.76789,-6.13476 0.6791,-0.21954 1.83997,-1.02358 2.57972,-1.78676 0.73976,-0.76319 2.72413,-2.10176 4.40973,-2.97461 1.68559,-0.87285 5.92221,-3.27416 9.41471,-5.33625 3.4925,-2.06209 7.77875,-4.45607 9.525,-5.31996 2.00772,-0.99324 4.24943,-2.49815 6.09744,-4.09334 l 2.92244,-2.52264 -3.64536,-3.73568 c -3.93981,-4.03743 -5.56814,-6.03173 -10.25119,-12.55513 -1.67147,-2.32833 -3.34949,-4.59335 -3.72893,-5.03336 -0.93354,-1.08259 -2.82039,-1.69598 -8.29107,-2.69534 -2.54252,-0.46446 -5.33714,-1.11169 -6.21027,-1.43831 -0.87312,-0.32661 -2.57458,-0.87635 -3.78101,-1.22165 -3.50132,-1.00214 -6.85544,-3.49404 -7.8612,-5.84038 -0.49954,-1.1654 -0.86832,-1.53071 -1.71646,-1.70033 -1.44303,-0.28861 -2.60637,-2.13846 -3.54967,-5.64437 -1.45087,-5.3924 -2.90733,-7.11983 -8.09001,-9.59514 -7.61503,-3.63703 -9.85542,-5.15559 -13.17936,-8.93308 -5.56358,-6.32272 -8.32002,-10.95411 -11.08982,-18.63321 -0.81021,-2.24624 -1.73087,-4.13629 -2.28715,-4.69533 -0.974,-0.97885 -3.69217,-2.01969 -6.16796,-2.36184 l -1.45459,-0.20103 -0.59737,2.77585 c -1.17911,5.47903 -2.01056,8.12118 -3.62003,11.50361 l -1.635,3.43609 1.71857,3.75672 c 2.19829,4.80536 5.30109,10.40767 7.93075,14.3195 2.77983,4.13523 10.73345,14.73213 14.33183,19.09482 1.86351,2.25934 3.68926,5.00455 5.06409,7.6144 1.18246,2.2447 2.77769,5.24042 3.54494,6.65716 1.03837,1.91735 1.39501,2.983 1.39501,4.16833 0,1.89017 -0.369,2.6941 -2.03833,4.44084 l -1.24934,1.30729 2.50614,5.04271 c 1.37838,2.77349 2.97182,6.39209 3.541,8.04133 1.16019,3.3618 3.40704,12.04051 4.83903,18.69129 1.43702,6.67417 1.31738,6.50821 3.78447,5.2496 z m -412.84409,-47.23881 c 6.3244,-0.44557 10.3905,-1.08024 16.757,-2.6156 13.98171,-3.37186 22.46289,-7.96903 24.97144,-13.53562 0.60209,-1.33607 0.77174,-2.54752 0.8929,-6.37601 l 0.14957,-4.72653 -0.83614,0.23736 c -3.93786,1.11791 -5.05883,1.27809 -8.93595,1.27686 -5.17832,-0.002 -9.55942,-0.67671 -12.30672,-1.89635 -1.1342,-0.50349 -2.7217,-1.09205 -3.5278,-1.30791 -0.8061,-0.21587 -2.4975,-1.15101 -3.7587,-2.0781 -1.2612,-0.92709 -2.9425,-2.01286 -3.7363,-2.41283 -1.1314,-0.57011 -1.5767,-1.07699 -2.0615,-2.34636 -0.3401,-0.89053 -1.3963,-2.52738 -2.3471,-3.63743 -1.9011,-2.21959 -4.2023,-6.2923 -4.2023,-7.43732 0,-0.90526 0.9839,-1.46013 2.5892,-1.46013 0.8754,0 1.633,0.34122 2.6569,1.19666 0.8581,0.71698 2.4137,1.49475 3.8806,1.9403 1.4972,0.45478 3.0223,1.22326 3.9261,1.97834 0.8128,0.67908 1.7732,1.2347 2.1342,1.2347 0.361,0 2.1271,0.64723 3.9247,1.43828 4.808,2.11578 6.8979,2.56594 10.89854,2.34748 2.5423,-0.13883 3.97918,-0.42411 5.82083,-1.15565 2.75047,-1.09255 5.25812,-2.68216 5.78539,-3.66739 0.19365,-0.36183 1.04734,-0.99445 1.8971,-1.40581 2.20999,-1.06984 5.86516,-5.64512 8.15058,-10.20234 3.7598,-7.4972 4.40761,-33.97488 1.10693,-45.24322 -0.92846,-3.1697 -1.13874,-3.3358 -3.59683,-2.84104 -2.77742,0.55902 -9.82132,0.91967 -11.89342,0.60894 -1.13989,-0.17094 -1.82253,-0.49227 -2.16822,-1.02062 -0.58833,-0.8992 -1.46494,-4.10428 -1.94767,-7.12113 -0.4196,-2.62227 -1.18083,-3.35363 -3.48253,-3.34588 -1.65572,0.006 -2.19384,0.12089 -9.6999,2.07857 -5.2497,1.36919 -9.8124,1.52353 -11.2648,0.38107 -1.3004,-1.02286 -1.419,-2.20754 -0.6133,-6.12347 1.1158,-5.42297 1.6717,-4.91301 -5.0349,-4.61928 -5.7199,0.25051 -5.7549,0.24745 -6.6895,-0.58598 -2.4462,-2.18124 -1.2411,-4.09702 3.1965,-5.08175 1.4941,-0.33155 4.2246,-1.07153 6.0679,-1.6444 3.9425,-1.22529 6.7825,-1.24206 8.3832,-0.0495 0.9566,0.71266 0.9674,0.76743 1.1845,5.97437 0.1204,2.89031 0.2395,5.45355 0.2645,5.69608 0.079,0.76792 1.2669,0.48565 4.6727,-1.11062 3.8398,-1.79974 9.53571,-3.75478 13.46434,-4.62147 4.75753,-1.04954 5.43299,-0.27259 6.44011,7.40779 0.64077,4.88657 1.5671,7.22454 3.06609,7.73848 0.75803,0.2599 1.4539,0.12853 3.27018,-0.61736 1.26898,-0.52113 2.93434,-0.94751 3.7008,-0.94751 1.13934,0 1.53631,-0.19307 2.17603,-1.05834 0.43035,-0.58208 1.06458,-1.05833 1.40939,-1.05833 0.34482,0 1.18927,-0.49373 1.87657,-1.09718 1.20044,-1.05401 1.28393,-1.07471 2.1216,-0.52585 0.47958,0.31424 1.10275,1.01761 1.38481,1.56306 0.69548,1.34491 1.8192,5.86955 2.46809,9.93775 0.29401,1.84326 0.79766,5.01826 1.11921,7.05555 0.82309,5.21483 1.53638,6.41278 3.01926,5.07079 0.34864,-0.31551 1.6244,-1.06957 2.83502,-1.67569 1.43939,-0.72066 2.57258,-1.60535 3.27445,-2.55641 0.59032,-0.7999 1.81166,-2.46677 2.71407,-3.70416 3.89979,-5.34737 11.83976,-14.26969 15.85537,-17.81705 7.95788,-7.0299 19.67107,-12.12581 27.87175,-12.12581 2.90973,0 3.49184,0.20331 3.49184,1.21954 0,1.24838 -1.65796,3.23257 -6.58973,7.88635 l -4.58256,4.32424 1.57766,8.54258 c 0.86771,4.69841 1.69726,8.86448 1.84344,9.25793 0.22254,0.59896 1.49195,1.01287 7.80085,2.54363 13.23976,3.21241 29.5564,6.35569 42.60986,8.20847 4.15697,0.59003 9.29043,1.47173 11.40768,1.95933 6.89898,1.58881 17.27506,2.61798 21.09613,2.09245 2.02943,-0.27912 3.98889,-1.70722 4.35749,-3.17583 0.12973,-0.51689 0.4742,-0.87813 0.83734,-0.87813 0.7129,0 2.86035,-1.37568 4.70146,-3.01179 1.62745,-1.44624 3.83116,-2.15044 8.2501,-2.63633 8.33289,-0.91625 39.83341,-1.40207 44.75734,-0.69028 1.71255,0.24757 2.73004,0.60792 3.46665,1.22774 1.29565,1.09021 1.62788,1.09734 2.02855,0.0435 0.41688,-1.09646 1.05008,-1.31495 4.46317,-1.54002 4.4951,-0.29642 8.07802,0.15372 9.28108,1.16602 0.5535,0.46574 1.87754,1.18018 2.9423,1.58764 1.06476,0.40746 2.71093,1.41285 3.65814,2.23418 0.94722,0.82134 2.01579,1.60213 2.3746,1.7351 1.13153,0.41932 16.41485,-2.22647 24.34519,-4.21455 1.91297,-0.47956 4.92922,-1.17413 6.70277,-1.54348 1.77356,-0.36935 3.93903,-0.91633 4.81215,-1.21551 0.87313,-0.29918 7.14375,-2.41076 13.93472,-4.6924 l 12.34723,-4.14843 0.24912,-5.11527 c 0.22367,-4.59268 0.57176,-10.95543 1.70564,-31.17704 0.3635,-6.48268 0.22989,-8.68685 -0.52658,-8.68685 -0.23846,0 -2.24485,1.25966 -4.45865,2.79925 -7.85547,5.4631 -14.98577,9.50075 -25.3,14.32654 -7.89308,3.69298 -13.13381,5.50313 -16.14241,5.5756 -3.93591,0.0948 -4.32698,-0.84415 -4.75326,-11.4125 -0.16044,-3.97757 -0.30238,-7.28472 -0.31543,-7.34923 -0.013,-0.0645 -2.66043,3.428 -5.88309,7.76111 -11.50188,15.46516 -21.97128,32.16987 -22.59951,36.0592 -0.14841,0.91877 -0.43642,1.42596 -0.87485,1.54061 -0.362,0.0947 -0.77897,0.65472 -0.9346,1.25531 -0.38056,1.46863 -1.61971,1.78103 -5.1197,1.29071 -9.54963,-1.33782 -29.3909,-9.08024 -51.01994,-19.90891 -11.3635,-5.68919 -25.60874,-14.20092 -28.07515,-16.77529 -0.57717,-0.60243 -1.68489,-1.37917 -2.4616,-1.72609 -0.77672,-0.34692 -2.68023,-1.59576 -4.23004,-2.77519 -1.54981,-1.17944 -2.86875,-2.09352 -2.93098,-2.03129 -0.0622,0.0622 0.28952,1.06986 0.78168,2.23917 1.84659,4.38731 2.02874,10.07465 0.38384,11.98487 -0.79789,0.92659 -0.94143,0.95765 -4.29471,0.92927 -8.1712,-0.0692 -22.9663,-4.65897 -35.78834,-11.10247 -8.56978,-4.3066 -21.50734,-13.77674 -30.97242,-22.67145 -2.60174,-2.44496 -4.84125,-4.37689 -4.97669,-4.29318 -0.13544,0.0837 -0.45202,1.12181 -0.70351,2.3069 -0.72876,3.43408 -1.08637,3.69491 -4.99511,3.64341 -9.66642,-0.12736 -21.71196,-7.63399 -38.2819,-23.85679 -7.10528,-6.95642 -7.54417,-7.24006 -13.69291,-8.84916 -11.74397,-3.07335 -22.55679,-4.22494 -32.08329,-3.41695 -33.0002,2.79894 -62.3349,18.7556 -83.9986,45.69127 -3.3726,4.1933 -6.1556,8.27022 -6.1556,9.01751 0,0.82821 0.6808,0.96508 7.9375,1.59576 6.836,0.59412 8.7329,1.12605 8.929,2.50383 0.1364,0.95755 -0.4178,2.05574 -3.6169,7.16762 -2.8044,4.48125 -3.5548,6.06983 -3.2467,6.87283 0.3199,0.83354 0.9981,0.65092 3.4362,-0.92526 9.1568,-5.91976 32.5848,-15.95459 44.3972,-19.0165 l 2.9285,-0.75912 0.7195,0.71945 c 1.0136,1.01361 1.144,3.57311 0.4656,9.13766 -0.787,6.45505 -0.9328,5.88088 1.7321,6.82168 3.8641,1.36411 4.5619,2.59409 2.3265,4.10053 -1.536,1.03508 -3.2882,1.51097 -5.5723,1.51343 -2.4883,0.003 -3.5689,-0.46364 -3.8497,-1.66125 -0.1267,-0.54044 -0.5409,-1.23117 -0.9205,-1.53496 -0.5056,-0.40471 -0.8108,-1.3694 -1.1416,-3.60899 -0.2483,-1.68115 -0.6636,-3.31228 -0.9229,-3.62473 -0.6247,-0.75276 -3.5096,-0.4098 -6.676,0.79367 -1.2645,0.48059 -3.4104,1.23478 -4.7686,1.67598 -1.3582,0.44121 -3.4862,1.46071 -4.729,2.26555 -1.2427,0.80485 -2.533,1.46337 -2.8673,1.46337 -0.9392,0 -2.8179,0.89955 -4.6719,2.23707 -0.9267,0.66854 -2.4798,1.47553 -3.4514,1.79331 -0.9716,0.31778 -2.7533,1.18139 -3.9595,1.91913 -1.2062,0.73774 -3.9675,2.24859 -6.1362,3.35743 -2.5713,1.31471 -4.3846,2.50478 -5.2122,3.42083 -1.7481,1.93486 -7.2309,13.25513 -9.1278,18.84584 -2.7547,8.11916 -5.5432,20.66886 -6.0749,27.34027 -0.2753,3.4551 0.065,6.1479 1.8183,14.38257 2.1094,9.90772 3.8237,13.94628 9.6145,22.65008 2.9783,4.47642 8.5703,9.64264 15.3353,14.16772 5.3788,3.59789 6.7027,4.24969 11.7541,5.78706 13.0231,3.96349 28.8713,5.71607 42.8094,4.7341 z m -72.2651,-5.89444 c -0.3845,-0.53358 -2.4722,-3.03389 -4.6393,-5.55625 -5.0537,-5.88236 -7.202,-9.11499 -11.1136,-16.72304 -1.7463,-3.39641 -3.3711,-6.23466 -3.6107,-6.30722 -0.5304,-0.16065 -2.2092,1.62107 -3.6855,3.91147 -0.9819,1.52343 -1.0458,1.78248 -0.6307,2.558 0.6104,1.14055 23.621,23.08717 24.2065,23.08717 0.095,0 -0.1421,-0.43656 -0.5267,-0.97013 z m 548.86788,-14.40358 c 7.47049,-0.70346 9.51237,-1.08742 13.40556,-2.52086 12.39139,-4.56238 20.34587,-11.59327 26.28954,-23.23706 3.62763,-7.10663 4.55923,-12.04702 4.51728,-23.95586 -0.0555,-15.75066 -2.04505,-23.85012 -9.29673,-37.84658 -3.46403,-6.68592 -5.48372,-9.83141 -8.01998,-12.49042 -1.61004,-1.68796 -2.33133,-2.16688 -3.93822,-2.61489 -1.08194,-0.30165 -4.1103,-1.24757 -6.72967,-2.10204 -2.61938,-0.85447 -5.44358,-1.69989 -6.27601,-1.87871 -2.93001,-0.62943 -4.29169,0.4326 -4.30212,3.35541 -0.007,1.99147 -0.70483,2.54979 -2.25975,1.8083 -1.51208,-0.72106 -2.34467,-2.51066 -2.71838,-5.84295 -0.1623,-1.4473 -0.51116,-2.88795 -0.77523,-3.20145 -0.26406,-0.3135 -0.68112,-1.28438 -0.92679,-2.15751 -0.24566,-0.87312 -1.30492,-3.42285 -2.35391,-5.66606 -2.07106,-4.42886 -2.28593,-5.45509 -1.21343,-5.79549 0.95014,-0.30156 4.28477,0.35394 6.27171,1.23286 2.53435,1.12106 3.83253,2.2915 4.85143,4.37404 1.42979,2.92241 2.01344,3.29582 8.49871,5.43741 4.67137,1.5426 7.02731,2.04201 7.32915,1.55362 0.4682,-0.75757 -4.28606,-9.21072 -6.49224,-11.54332 -0.55054,-0.58208 -1.16947,-1.50523 -1.37539,-2.05144 -1.34389,-3.56455 1.02491,-4.80363 9.21581,-4.82063 4.09541,-0.009 5.22644,-0.34761 5.22644,-1.56701 0,-0.65949 -0.45107,-1.17302 -1.85209,-2.10854 -1.01864,-0.68019 -3.59833,-2.82864 -5.73263,-4.77434 -12.34919,-11.25785 -15.38538,-13.72756 -23.22147,-18.88884 -8.02928,-5.28853 -23.0809,-13.32981 -28.1077,-15.01644 -3.44548,-1.15606 -7.17828,-1.27629 -11.85056,-0.3817 -2.15219,0.41207 -4.09227,0.74922 -4.31129,0.74922 -0.27044,0 -0.42981,-1.47895 -0.49666,-4.60886 l -0.0984,-4.60885 -3.32223,4.87344 c -4.98907,7.31855 -9.45307,12.71999 -15.721,19.02244 -15.41618,15.50108 -32.29964,26.06746 -38.62413,24.1726 -2.17642,-0.65207 -2.37212,-1.09704 -3.39451,-7.71813 -0.2163,-1.40074 -0.98674,-1.49221 -1.48565,-0.17639 -0.62602,1.65104 -0.75696,4.85222 -1.1256,27.51922 l -0.3572,21.96298 3.1734,6.33939 c 7.99337,15.96804 14.66518,24.56425 22.31595,28.75272 2.74711,1.50393 2.65652,1.64038 1.87102,-2.81806 -0.76658,-4.35107 -2.43395,-20.8692 -2.17475,-21.54465 0.36177,-0.94275 3.48877,-0.4716 9.30707,1.40231 2.76903,0.89183 5.32928,1.6215 5.68944,1.6215 1.31583,0 1.45524,-0.73234 1.36115,-7.15036 -0.0852,-5.8123 -0.0455,-6.25116 0.65021,-7.19272 0.40752,-0.55151 1.09255,-1.05483 1.52228,-1.11849 0.42973,-0.0637 3.07732,0.92886 5.88354,2.20559 2.80621,1.27673 6.29106,2.67109 7.7441,3.09858 l 2.6419,0.77726 0.74301,-0.74301 c 0.40865,-0.40866 1.40628,-1.98821 2.21694,-3.51012 1.58562,-2.9768 3.11639,-4.35839 4.82898,-4.35839 1.95442,0 2.00407,1.72534 0.21755,7.56036 -1.03393,3.37695 -2.50083,5.434 -4.66086,6.53597 -1.6216,0.82728 -2.09285,0.89284 -6.08541,0.84659 l -4.3277,-0.0501 0.003,8.5168 c 0.006,17.83155 1.24093,25.69307 5.09686,32.45935 4.91318,8.62151 13.52879,15.39217 19.58642,15.39217 2.4561,0 8.08194,-1.6971 12.13603,-3.66096 4.20686,-2.03787 7.98037,-4.99384 7.98037,-6.2514 0,-0.36814 0.57669,-1.26502 1.28152,-1.99308 1.37152,-1.4167 5.70254,-9.99206 7.31942,-14.49238 1.16503,-3.24266 1.49159,-3.87517 2.64286,-5.11909 1.19195,-1.28787 2.56436,-1.99698 3.86493,-1.99698 1.86502,0 1.98179,0.49286 1.5233,6.42908 -0.62526,8.09538 -2.71953,16.4123 -5.41621,21.50929 -2.75395,5.20522 -10.49998,12.2466 -16.50748,15.00581 -3.53939,1.62562 -5.15064,1.90005 -12.37099,2.10702 -9.12605,0.2616 -12.90057,-0.17234 -16.27343,-1.87088 l -2.49869,-1.25832 0.24771,1.88136 c 0.54901,4.1697 3.72232,8.54002 7.65937,10.54855 1.42088,0.72488 14.9926,3.65003 19.53186,4.20976 3.21719,0.3967 15.1075,0.096 22.04861,-0.55761 z m -227.18888,-9.68348 c 18.39804,-0.94792 22.0375,-1.39651 25.61373,-3.15709 5.37288,-2.64506 6.67645,-7.21167 6.64868,-23.29127 -0.0153,-8.85097 -0.0999,-10.19618 -0.96579,-15.34583 l -0.94904,-5.64445 -2.54756,-2.41936 -2.54757,-2.41936 -23.65053,0.24195 c -23.70761,0.24253 -32.56937,0.55922 -32.96407,1.178 -0.1163,0.18234 -0.7202,0.44187 -1.342,0.57675 -0.6638,0.14399 -1.21966,0.52605 -1.34642,0.92544 -0.11875,0.37412 -0.5848,0.77281 -1.03567,0.88597 -2.03094,0.50973 -4.12797,4.22763 -4.02503,7.13611 0.0415,1.17347 -0.19142,2.26023 -0.71741,3.34677 -0.62141,1.28366 -0.84486,2.63071 -1.10506,6.66171 -0.41092,6.36574 -0.41315,12.57879 -0.006,16.78657 0.28287,2.92357 0.44502,3.44303 1.54169,4.93888 0.67406,0.91943 1.40671,2.34625 1.62812,3.17072 0.32765,1.2201 0.66526,1.63306 1.81436,2.21928 0.77649,0.39614 1.56314,1.11831 1.74812,1.60483 0.40164,1.05641 1.86774,1.72401 4.97393,2.26493 6.13949,1.06915 13.42835,1.15378 29.23354,0.33945 z m -186.54889,-4.25542 c 3.88828,-1.71036 7.90824,-3.14294 8.81942,-3.14294 0.36551,0 0.79515,-0.37521 0.97683,-0.85307 0.17839,-0.46919 0.91458,-1.62013 1.63598,-2.55764 1.56065,-2.02818 3.99621,-7.09474 5.04354,-10.49176 0.41327,-1.34045 1.05251,-2.92795 1.42055,-3.52778 0.87908,-1.43273 1.31225,-6.00872 1.82306,-19.25864 0.36532,-9.47632 0.3,-14.95266 -0.18413,-15.4368 -0.1011,-0.10109 -1.65657,0.69198 -3.45661,1.7624 -1.80004,1.07041 -4.30467,2.46303 -5.56585,3.0947 -3.0074,1.50629 -5.16765,3.00692 -5.86855,4.07663 -0.4707,0.71837 -0.55623,1.88872 -0.50767,6.94669 0.06,6.25367 -0.44138,14.38291 -1.05641,17.12727 -0.76937,3.43311 -2.59091,7.19678 -6.17614,12.7612 -2.06033,3.19772 -4.04073,6.39165 -4.40089,7.09763 -0.65033,1.27475 -0.64949,1.28847 0.12255,1.99237 1.00042,0.91213 2.72678,1.82072 3.49377,1.83879 0.32984,0.008 2.07609,-0.6353 3.88055,-1.42905 z m 134.9811,-3.30512 c 0.93369,-0.88803 1.10385,-3.43178 1.11011,-16.59476 0.007,-13.83253 -0.22291,-17.01458 -1.33445,-18.50337 -0.96664,-1.2947 -2.5159,-1.52574 -8.4015,-1.25293 l -5.3367,0.24737 -1.09416,6.75585 c -1.51771,9.37098 -1.89281,13.05835 -1.62028,15.92808 0.30393,3.20038 1.81886,11.14992 2.19686,11.52791 0.5035,0.50351 11.84197,2.70576 12.95486,2.5162 0.58208,-0.0991 1.26845,-0.3801 1.52526,-0.62435 z m -23.83512,-14.03713 c 0.0966,-6.83947 0.38496,-14.76951 0.64087,-17.6223 0.63915,-7.12496 1.17094,-6.67633 -9.76012,-8.23382 -3.47496,-0.49512 -6.91852,-1.0781 -7.65235,-1.29552 -0.856,-0.2536 -1.4561,-0.27343 -1.67422,-0.0553 -0.79447,0.79448 -2.10682,13.50842 -2.10682,20.41078 0,3.39093 0.99182,13.31792 1.59489,15.96303 0.20398,0.89467 0.17886,0.88771 5.98983,1.65958 2.32833,0.30927 4.86833,0.79085 5.64445,1.07017 0.77611,0.27932 2.70188,0.51482 4.2795,0.52334 l 2.8684,0.0155 z m 126.29411,11.1863 c 6.82343,-1.1375 8.41963,-1.65764 9.75528,-3.17886 1.75132,-1.99463 1.97044,-3.3734 1.9594,-12.32896 -0.0143,-11.58368 -0.9491,-18.40542 -2.86674,-20.91957 -1.84974,-2.42513 -5.03181,-2.84081 -8.88001,-1.15999 -1.2937,0.56506 -3.30469,1.29761 -4.46885,1.62789 -2.41185,0.68425 -4.17832,1.87117 -4.92032,3.30604 -0.39492,0.76368 -0.44118,1.49523 -0.2052,3.24496 0.16756,1.24245 0.40484,5.67213 0.52729,9.84372 0.27011,9.20218 0.76744,15.34215 1.41773,17.50288 0.47646,1.58316 1.40773,2.95823 2.00345,2.95823 0.16561,0 2.72069,-0.40335 5.67797,-0.89634 z m -155.30993,-13.15444 c 0.004,-11.44466 0.46197,-19.39344 1.28902,-22.37056 0.46661,-1.67963 0.48363,-2.12077 0.0997,-2.58342 -0.80984,-0.97579 -3.00053,-1.8794 -5.49753,-2.26759 -5.15978,-0.80217 -12.09187,-2.44086 -18.70788,-4.42239 -2.16679,-0.64897 -5.06385,-1.33573 -6.43791,-1.52615 -1.37405,-0.19041 -3.03308,-0.67673 -3.68674,-1.08071 -1.3621,-0.84183 -3.64948,-0.9681 -4.62433,-0.25527 -0.52946,0.38715 -0.70807,1.18363 -0.92954,4.14514 -0.34989,4.67871 -0.35065,19.78226 -10e-4,24.79826 0.25628,3.67919 0.31277,3.88322 1.3006,4.69729 2.90542,2.39434 13.81719,6.82613 20.27989,8.23663 1.79254,0.39123 4.14806,1.13184 5.23449,1.64581 2.16564,1.02451 4.9936,1.40078 9.12038,1.21351 l 2.55764,-0.11606 z m 180.61873,8.38244 c 0.87312,-0.19769 2.81269,-0.82881 4.31014,-1.40249 1.49746,-0.57368 3.18167,-1.04306 3.7427,-1.04306 1.35833,0 3.87249,-2.22789 4.95088,-4.38715 0.45443,-0.9099 0.97441,-2.79534 1.15551,-4.18986 0.5738,-4.41846 -0.24698,-23.911 -1.10147,-26.15847 -0.18716,-0.49229 -0.54954,-0.89507 -0.80527,-0.89507 -0.25574,0 -1.40373,-0.79375 -2.5511,-1.76389 -1.14737,-0.97014 -2.2678,-1.76389 -2.48983,-1.76389 -0.22204,0 -1.10203,0.37094 -1.95555,0.82431 -1.5526,0.82471 -5.79667,2.30805 -8.78379,3.07002 -2.83341,0.72275 -4.93889,1.78285 -4.93889,2.4867 0,0.35734 0.30479,0.81282 0.6773,1.01218 1.14919,0.61503 2.1247,4.75774 3.03563,12.89151 0.77671,6.93537 0.68101,10.97496 -0.362,15.28012 -1.04802,4.32585 -1.10147,5.54697 -0.26412,6.03468 0.79302,0.46189 3.34991,0.46396 5.37986,0.004 z m 90.94964,-1.45198 c 0.13517,-1.17013 -0.61807,-2.70434 -2.56623,-5.2269 -2.00853,-2.60073 -2.47824,-3.58647 -3.36629,-7.06465 -0.41537,-1.62684 -1.1611,-3.91751 -1.65717,-5.09037 -1.29921,-3.07171 -1.84101,-7.37007 -2.10305,-16.68456 -0.1269,-4.51115 -0.24506,-8.20263 -0.26257,-8.20329 -0.0175,-6.7e-4 -1.19922,-0.47692 -2.62603,-1.05834 -4.4337,-1.80671 -4.04319,-2.96024 -3.74426,11.06034 l 0.25836,12.11746 -0.84051,0.22494 c -0.46228,0.12372 -1.4408,0.22712 -2.17449,0.22977 -0.82487,0.003 -1.40754,0.19646 -1.52669,0.50697 -0.10598,0.27619 0.78498,2.4198 1.97991,4.76359 1.72333,3.3802 2.72245,4.84591 4.83152,7.08787 2.71851,2.8898 6.89588,5.94309 10.34427,7.56077 2.3859,1.11925 3.30497,1.05974 3.45323,-0.2236 z m -68.60219,-5.56112 c 4.2899,-1.47594 9.80622,-5.02638 11.61692,-7.47693 1.03516,-1.40097 1.28188,-3.3806 1.29075,-10.3569 0.009,-6.96732 -0.56016,-22.27031 -0.89432,-24.05153 -0.11589,-0.61777 -0.44405,-1.21275 -0.72924,-1.32219 -0.28519,-0.10944 -2.1349,0.50424 -4.11046,1.36372 -1.97557,0.85948 -4.78256,1.98918 -6.23777,2.51043 -3.3431,1.19751 -5.15384,2.40301 -6.51194,4.33536 l -1.07153,1.52459 1.15626,1.03312 c 0.63595,0.56822 1.33159,1.46775 1.54587,1.99897 0.3452,0.8558 0.89322,16.32737 0.97451,27.51239 0.0298,4.10098 -0.0906,3.98229 2.97095,2.92897 z m -85.41108,-59.60385 c 0.64157,-0.5633 1.94477,-2.50799 2.89601,-4.32153 2.51162,-4.78838 7.67102,-12.39309 17.43526,-25.69873 6.08803,-8.29609 10.08228,-13.51233 13.18428,-17.21782 1.34919,-1.61168 4.02691,-5.3042 5.9505,-8.2056 3.7162,-5.60525 5.72559,-8.09047 6.54144,-8.09047 1.72285,0 4.66772,13.31906 6.31798,28.575 0.32533,3.00743 0.64402,5.52623 0.70822,5.59733 0.28882,0.31987 11.95434,-6.24664 16.98437,-9.56049 13.10156,-8.63149 20.3972,-15.64602 29.10399,-27.98262 4.55633,-6.45584 6.05196,-9.05596 9.77549,-16.99453 6.22221,-13.26575 8.84992,-18.08746 9.85722,-18.08746 0.47378,0 1.69733,1.51836 2.47958,3.07705 1.30526,2.60078 1.54641,6.04721 1.10403,15.77846 -0.4043,8.89365 -1.18865,19.0986 -1.63925,21.32779 l -0.24284,1.20136 1.67441,-1.15203 c 2.65135,-1.82417 6.25949,-4.93431 12.82711,-11.05666 3.35562,-3.12811 6.50884,-5.95494 7.00715,-6.28182 0.49832,-0.32689 1.1823,-1.20649 1.51995,-1.95467 0.33766,-0.74817 1.68539,-2.70969 2.99495,-4.35893 3.09188,-3.89385 8.9059,-12.65398 12.4683,-18.78629 3.35248,-5.77096 5.22534,-9.95108 8.3586,-18.65592 4.74661,-13.18704 6.12704,-16.20399 7.75329,-16.94496 2.70829,-1.23398 3.90511,1.35335 4.7598,10.28995 0.43024,4.49856 1.77712,22.52907 1.77712,23.79011 0,0.55358 0.19781,0.90433 0.51001,0.90433 0.67016,0 4.3308,-4.7215 7.93189,-10.23055 12.5093,-19.13711 20.46378,-48.74547 20.48238,-76.240041 l 0.003,-5.15531 1.85209,0.33396 c 2.64288,0.47654 4.60413,1.68199 8.02569,4.93283 1.64924,1.56695 3.50882,3.06476 4.13242,3.32847 0.62359,0.26372 1.29632,0.78316 1.49496,1.15432 0.19864,0.37115 2.19769,2.054241 4.44233,3.740191 2.24464,1.68594 6.12466,4.79565 8.62226,6.91047 2.49761,2.11481 4.61863,3.84511 4.71339,3.84511 0.37958,0 0.98989,-3.96721 1.31891,-8.57335 0.401,-5.613741 -0.064,-16.102791 -0.9493,-21.412762 -1.56688,-9.398188 -5.4821,-21.569532 -9.39534,-29.207474 -3.71149,-7.24417 -4.62894,-8.682417 -10.49918,-16.459073 -5.42848,-7.191438 -8.5195,-11.737995 -9.37947,-13.796196 -0.49387,-1.182005 -0.48839,-1.346705 0.0651,-1.958343 0.90595,-1.001058 2.6638,-0.827287 5.86377,0.579659 1.56048,0.686103 2.91119,1.173509 3.00157,1.083124 0.1777,-0.177699 -1.47585,-2.706672 -3.2538,-4.976418 -5.18024,-6.613158 -6.98071,-8.7731255 -8.98228,-10.7758085 -3.00269,-3.004352 -11.55751,-9.82341 -12.67614,-10.104167 -0.59455,-0.149222 -1.39635,0.0778 -2.53463,0.717659 -2.57211,1.445857 -5.14565,1.323583 -8.49131,-0.403439 -1.42707,-0.7366524 -3.10037,-1.6464841 -3.71843,-2.0218487 -0.61807,-0.3753645 -1.20769,-0.5985404 -1.31029,-0.4959463 -0.10259,0.1025941 0.28366,2.163363 0.85834,4.579487 1.72295,7.243853 2.14626,11.2769815 2.35382,22.4263775 0.2688,14.438932 -0.40804,21.481127 -2.89508,30.121762 -1.64045,5.699378 -4.56379,13.276452 -5.78414,14.992034 -0.55207,0.776111 -1.571,2.540512 -2.2643,3.92089 -1.71808,3.420761 -4.70783,7.106363 -10.79864,13.311991 -8.32344,8.480351 -12.83952,11.901971 -21.01651,15.923232 -12.84468,6.31672 -28.35196,9.48549 -46.21389,9.44338 -18.64134,-0.0439 -38.87945,-3.91248 -46.59567,-8.9068 -0.59804,-0.38708 -1.94741,-0.864241 -2.99861,-1.060351 -7.44473,-1.38891 -25.32152,-14.342626 -43.56702,-31.569158 -9.40836,-8.882927 -14.60353,-12.562575 -20.62838,-14.61072 -15.89624,-5.403916 -30.16978,-0.46283 -54.48531,18.861239 -18.89903,15.019459 -27.60716,19.829519 -44.99395,24.853069 -12.50278,3.612411 -14.76316,3.877891 -32.95653,3.870701 -15.71648,-0.006 -20.45834,-0.28534 -26.65418,-1.568981 -8.51301,-1.7637 -22.97139,-7.25283 -30.66047,-11.64026 -7.90131,-4.508527 -14.4263,-10.240524 -20.89862,-18.358788 -7.36219,-9.234429 -13.54269,-22.128834 -15.30289,-31.926388 -0.7752,-4.31474 -1.1558,-27.7603945 -0.5511,-33.9525195 0.6125,-6.273518 3.1405,-14.5590885 7.1327,-23.3784675 2.93104,-6.47495 2.86319,-6.615965 -1.5282,-3.175907 -4.2626,3.339225 -11.3161,7.999861 -14.5791,9.633255 -6.5524,3.279946 -9.7978,3.5624376 -15.6364,1.361057 l -3.3064,-1.246685 -5.1602,3.19567 c -8.7637,5.4272894 -12.6921,8.4151635 -18.6944,14.2186035 -11.8367,11.4445345 -21.0273,25.8701505 -25.4269,39.9098325 -1.3136,4.192086 -3.102,12.58629 -3.4274,16.087841 l -0.2353,2.531524 1.2036,-0.731918 c 0.6619,-0.402554 2.5529,-1.548053 4.2021,-2.545552 3.9337,-2.379165 25.085,-12.973805 28.9278,-14.489824 1.6493,-0.650641 3.9038,-1.254767 5.01,-1.342503 1.9146,-0.151837 2.0222,-0.116572 2.2353,0.732243 0.3281,1.307306 -0.7203,3.39085 -4.5642,9.07092 -6.0563,8.949152 -9.5229,15.832342 -12.9054,25.624581 -3.6247,10.493175 -5.2957,18.808405 -5.555,27.642296 l -0.1812,6.17361 5.0698,-4.95174 c 9.2305,-9.015421 22.0304,-18.860761 24.5209,-18.860761 1.3032,0 1.4227,0.8393 2.0641,14.502191 0.295,6.28483 0.702,13.33197 0.9044,15.66031 1.3356,15.36504 4.4821,26.36936 11.1465,38.98194 3.8915,7.36481 10.9803,16.40214 14.489,18.47166 0.5204,0.30699 1.978,-2.54137 6.1127,-11.94527 4.5698,-10.3938 11.73035,-24.49002 13.40897,-26.39704 2.79509,-3.17539 3.60913,-2.23883 4.5635,5.25039 2.11237,16.57647 4.95852,26.66878 10.82009,38.36743 6.28355,12.54086 14.07264,22.11187 28.16472,34.60798 4.13222,3.66424 8.96627,7.40867 9.22742,7.14752 0.10055,-0.10056 0.0136,-1.02885 -0.19314,-2.06289 -0.35695,-1.785 -0.59125,-5.09073 -1.45844,-20.57728 -0.20644,-3.68653 -0.53097,-8.11308 -0.72119,-9.83678 -0.4614,-4.18113 -0.18469,-4.91497 1.5957,-4.23177 0.88925,0.34123 3.303,3.97362 7.23888,10.89355 8.3646,14.70637 15.55997,23.69482 28.73387,35.89432 5.29875,4.90682 6.75415,6.00421 15.90189,11.99018 6.19545,4.05408 9.845,5.93667 17.53078,9.04309 4.75921,1.92357 5.92895,2.16808 5.92895,1.23932 0,-0.31382 -1.1318,-3.29038 -2.5151,-6.61458 -6.30959,-15.16253 -9.12657,-24.06182 -9.12657,-28.8323 0,-3.33227 0.67143,-2.95782 11.07318,6.17539 26.59022,23.34743 53.72664,40.77881 81.2887,52.21669 3.55327,1.47456 7.09088,3.00262 7.86135,3.39569 2.75,1.40294 8.58223,3.37585 10.27213,3.47482 0.3328,0.0195 1.13,-0.42545 1.77156,-0.98875 z m -34.2177,-174.32186 c -6.12349,-0.50197 -11.58793,-2.09664 -18.65104,-5.44289 -3.56865,-1.69069 -5.01701,-2.56296 -10.91948,-6.576211 -1.03126,-0.70118 -2.48785,-1.37286 -3.23688,-1.49264 -1.58466,-0.2534 -2.78185,-1.38169 -3.26924,-3.08111 -0.99461,-3.468 2.98532,-6.67499 8.28379,-6.67499 2.13909,0 3.22051,0.65184 3.54691,2.13795 0.40496,1.84376 2.40366,3.39483 7.69506,5.97168 5.287,2.57471 7.39322,3.24952 15.05443,4.823291 5.74687,1.18052 7.7465,1.2014 18.52084,0.19341 9.87192,-0.923571 15.85615,-2.347761 17.72733,-4.218941 0.56289,-0.56289 1.39265,-0.71768 4.83648,-0.90224 2.74015,-0.14685 4.41288,-0.0915 4.90771,0.16247 1.20183,0.61677 2.69098,2.14572 2.69098,2.7629 0,0.96391 -4.6015,4.933261 -6.35,5.477641 -0.48507,0.15102 -1.88545,0.90796 -3.11195,1.6821 -4.41948,2.78946 -10.23462,4.42331 -18.4075,5.17187 -4.51506,0.41353 -14.30709,0.41642 -19.31744,0.006 z m -8.81215,-37.397857 c -1.25019,-0.38504 -2.2093,-1.830241 -2.2093,-3.329019 0,-1.461959 1.31168,-3.631178 2.88474,-4.770693 2.99689,-2.170935 5.44074,-0.969138 6.7969,3.342477 0.76298,2.425688 0.4959,3.656478 -0.94311,4.346175 -1.2659,0.606733 -5.10842,0.848646 -6.52923,0.41106 z m 29.80799,-0.07822 c -2.73466,-0.894925 -3.59391,-2.518622 -2.50723,-4.737853 1.2455,-2.543572 4.80586,-3.632293 7.79461,-2.383513 2.6657,1.113797 3.05769,2.036189 1.86165,4.380613 -1.31081,2.569399 -4.24051,3.692572 -7.14903,2.740753 z M -1049.7461,200.79534 c 0.9692,-0.96921 2.2729,-1.49065 6.8912,-2.75643 6.1189,-1.67702 13.1067,-2.8998 21.4747,-3.75785 5.6939,-0.58385 7.3279,-1.13395 6.4636,-2.1761 -0.2555,-0.30812 -1.0166,-0.79097 -1.6913,-1.073 -1.8834,-0.78723 -3.9124,-2.2924 -7.2156,-5.35261 -1.6596,-1.5375 -3.3282,-2.8941 -3.7081,-3.01467 -0.8576,-0.2722 -2.2251,0.4127 -5.8412,2.92553 -3.6245,2.51867 -6.5151,4.74057 -11.0655,8.5058 -2.0114,1.66435 -4.6188,3.81983 -5.7941,4.78997 -1.1753,0.97014 -2.2019,1.96233 -2.2813,2.20486 -0.2467,0.75381 1.9532,0.51892 2.7676,-0.2955 z m 61.43211,-5.10523 c 0.10849,-0.1085 -1.07111,-3.00569 -2.62133,-6.4382 -2.33981,-5.18079 -3.95429,-9.04223 -6.4443,-15.41315 -0.39714,-1.01614 -0.96464,1.29512 -2.51198,10.23056 -0.7056,4.07458 -1.3617,7.84213 -1.458,8.37232 -0.2285,1.25786 0.1119,1.37894 6.96452,2.47703 3.00424,0.48142 5.55485,0.89632 5.66803,0.922 0.11319,0.0257 0.29456,-0.0421 0.40306,-0.15056 z m 323.77031,-98.231621 c 6.59363,-0.45075 13.71905,-1.31697 16.40416,-1.99421 3.58037,-0.90304 13.62109,-3.96302 16.22778,-4.94553 1.3582,-0.51193 3.66007,-1.53995 5.11528,-2.2845 1.45521,-0.74454 3.05858,-1.35405 3.56304,-1.35446 1.22089,-0.001 3.19421,-1.476837 6.34045,-4.742012 1.42621,-1.480115 2.99606,-2.785925 3.48856,-2.901802 3.17213,-0.746349 8.9485,-8.795411 14.64192,-20.402767 4.91781,-10.026059 7.19343,-16.825143 7.96262,-23.790639 0.58746,-5.319832 0.2584,-21.431977 -0.54081,-26.4801935 -1.33159,-8.410975 -7.3294,-22.7192485 -13.30913,-31.7499985 -3.47733,-5.25156 -10.36784,-12.054804 -13.63042,-13.457801 -0.84586,-0.363745 -2.27461,-1.315474 -3.175,-2.114955 -0.90039,-0.799481 -2.14541,-1.669754 -2.76672,-1.93394 -1.4071,-0.598313 -2.15144,-0.342187 -5.79718,1.994818 -7.56578,4.849842 -12.03458,5.432046 -27.11622,3.532759 -4.55965,-0.574214 -10.41492,-1.30081 -13.01171,-1.614657 -2.59678,-0.313848 -5.13309,-0.727144 -5.63622,-0.918436 -2.45657,-0.933984 -9.25879,-2.016439 -25.09651,-3.993672 -23.93786,-2.98848 -52.55914,-7.900968 -59.86413,-10.274936 -4.69708,-1.526449 -10.64366,-5.051882 -11.58197,-6.866367 -0.31686,-0.612737 -0.82159,-1.041701 -1.2257,-1.041701 -0.37786,0 -2.0082,-1.244474 -3.62298,-2.765498 -3.84588,-3.622593 -5.02909,-4.084296 -9.91044,-3.8672 -4.36172,0.193987 -5.84774,0.882321 -8.42992,3.904789 -3.15687,3.695166 -9.00084,7.045748 -15.82475,9.072978 -5.3807,1.598483 -24.19803,4.675758 -32.31596,5.28476 -2.28585,0.171483 -5.66582,0.705725 -7.51105,1.187204 -1.84523,0.481479 -5.34434,1.045426 -7.77581,1.253214 -4.23165,0.361627 -7.06068,0.853384 -14.44562,2.511011 -1.84326,0.41374 -4.78014,0.888157 -6.52639,1.05426 -1.74625,0.166103 -4.68702,0.6214 -6.53504,1.011772 -8.3918,1.772657 -30.59539,4.302075 -38.62051,4.399621 l -4.93889,0.06003 -3.35139,-1.628534 c -1.84326,-0.895694 -4.70076,-2.059873 -6.35,-2.587065 -3.54829,-1.134242 -5.70663,-2.389155 -8.81944,-5.127854 -2.72535,-2.397809 -3.47522,-2.82738 -4.93548,-2.82738 -1.75742,0 -7.84354,3.335052 -12.89174,7.064377 -12.6802,9.367415 -23.70612,25.9978 -27.68698,41.7602465 -1.5144,5.996381 -2.11665,10.6193855 -2.34837,18.0267635 -0.30767,9.835438 0.66442,18.283295 2.6995,23.459722 3.60755,9.176148 10.72623,20.286984 16.8712,26.332548 4.40928,4.337962 16.33605,11.549497 25.20724,15.241586 9.7757,4.068536 22.43,6.151916 37.30407,6.141686 8.41142,-0.006 13.26275,-0.49897 21.67866,-2.20382 14.08155,-2.852559 25.73078,-7.071818 32.62515,-11.816566 1.63605,-1.125941 4.02629,-2.566908 5.31165,-3.202149 2.99215,-1.478758 4.67271,-2.82693 10.94009,-8.776298 4.89964,-4.651022 9.80641,-8.824445 13.58195,-11.552037 2.73035,-1.972513 8.94075,-5.131064 11.28889,-5.741424 1.16416,-0.302607 2.75166,-1.006139 3.52777,-1.563405 1.94057,-1.393373 3.29566,-1.911967 7.77784,-2.976595 5.47989,-1.301607 9.77606,-1.781534 15.85827,-1.77154 8.41153,0.01382 10.78327,0.562261 17.99167,4.160372 4.06288,2.028006 7.12802,3.850209 9.50313,5.649538 1.92825,1.460796 3.77691,2.742006 4.10814,2.847132 0.33507,0.106349 0.69883,0.706121 0.82001,1.35204 0.11978,0.638496 0.71046,1.625271 1.31263,2.192833 0.60216,0.567562 1.70048,1.843765 2.44071,2.836007 1.0789,1.446208 1.6491,1.880428 2.8745,2.188989 0.84075,0.211703 2.00264,0.831601 2.58198,1.377552 2.85497,2.690434 8.88541,8.088645 12.49584,11.18577 11.06026,9.487813 18.37212,13.710481 31.15453,17.992051 16.51177,5.53074 27.60269,7.17043 41.89325,6.19351 z m -38.98194,-19.732203 c -3.16819,-0.244796 -4.03122,-0.479633 -8.46667,-2.303838 -6.07784,-2.499683 -7.03376,-2.980769 -9.18376,-4.621901 -0.93795,-0.715947 -2.43838,-1.6699 -3.3343,-2.119896 -1.10637,-0.555699 -1.99019,-1.375671 -2.755,-2.55597 -1.40456,-2.167596 -5.34861,-5.893268 -6.94467,-6.560146 -1.34022,-0.559978 -3.00588,-2.887147 -3.00588,-4.199645 0,-0.92598 -0.79362,-2.04306 -4.32284,-6.08474 -1.46318,-1.675641 -2.52343,-3.251671 -2.74763,-4.084258 -0.20078,-0.745657 -0.51403,-1.355739 -0.69611,-1.355739 -1.81594,0 -3.53691,-11.369582 -3.5553,-23.48801 -0.007,-4.919576 0.14054,-7.388039 0.54994,-9.172222 1.61177,-7.0242175 6.31462,-15.6230436 11.36801,-20.7856004 4.79281,-4.8963486 10.49141,-9.2021836 14.78503,-11.1714946 3.41762,-1.567528 6.16097,-2.898574 8.25501,-4.005252 0.87312,-0.461436 2.93687,-1.093871 4.58611,-1.405411 1.64924,-0.31154 4.39966,-0.875189 6.11206,-1.252555 3.83909,-0.84603 8.69411,-0.88732 16.54872,-0.14074 6.82991,0.649182 10.17587,1.295509 11.68279,2.256721 1.25316,0.799346 4.08492,2.217545 7.98976,4.001431 1.45521,0.664797 3.61205,1.9399 4.79299,2.833562 3.16078,2.391894 11.26432,10.8854214 12.53681,13.1401522 0.60353,1.0693928 1.6448,2.3619313 2.31394,2.8723083 1.55014,1.182353 2.33368,2.757339 3.09416,6.219587 0.35545,1.618232 0.89494,3.052582 1.30079,3.458438 0.43232,0.43232 0.7686,1.383812 0.893,2.52669 0.10974,1.0082765 0.44065,2.2182465 0.73535,2.6888235 1.09627,1.750514 1.20108,23.325923 0.11656,23.996188 -0.27748,0.171493 -0.57392,1.352207 -0.72522,2.88858 -0.14515,1.473841 -0.57433,3.221124 -0.99161,4.037005 -0.40464,0.791163 -1.05668,2.696163 -1.44898,4.233333 -0.73278,2.871327 -0.88002,3.075039 -3.86372,5.345765 -0.61673,0.469362 -1.12295,1.252502 -1.25417,1.940278 -0.31555,1.653863 -3.10475,5.191042 -7.34354,9.312874 -2.5379,2.467872 -4.02861,3.651193 -4.81811,3.824595 -0.62876,0.138098 -2.28552,1.162687 -3.68169,2.276862 -2.92441,2.333738 -4.03639,2.966949 -6.24267,3.554856 -0.87312,0.232662 -3.03152,1.035123 -4.79643,1.783246 -1.76492,0.748124 -4.22554,1.518583 -5.46806,1.712131 -3.04803,0.474795 -17.63412,0.742465 -22.01467,0.403992 z m 28.96278,-27.095161 c 0.12367,-0.533576 0.62066,-1.663641 1.10443,-2.511255 0.66509,-1.165301 0.83007,-1.846227 0.67655,-2.7923 -0.50758,-3.127862 -6.08089,-6.288303 -9.44912,-5.35829 -0.67453,0.186247 -1.69291,0.825538 -2.26306,1.420647 -0.93763,0.978676 -1.0488,1.349951 -1.16403,3.887383 -0.20853,4.59178 0.96464,5.681793 6.45797,6.000205 1.94916,0.11298 3.73933,0.232042 3.97817,0.264583 0.23884,0.03254 0.53543,-0.377396 0.65909,-0.910973 z m -45.28177,-6.302072 c 0.72595,-0.466236 1.75353,-1.502948 2.28351,-2.303804 0.87511,-1.322378 1.041,-1.903401 1.13043,-3.959238 0.0158,-0.362375 0.62397,-1.252824 1.35157,-1.978775 1.2274,-1.224609 1.47784,-1.321998 3.46854,-1.348829 3.35936,-0.04528 8.92272,-2.380281 11.36305,-4.769197 2.56399,-2.509962 5.16956,-6.378748 5.86393,-8.706834 1.38699,-4.650322 1.34433,-12.6829785 -0.0824,-15.5222225 -0.83092,-1.653511 -6.5033,-8.867988 -8.01834,-10.1982119 -1.75964,-1.5449833 -4.28808,-2.2081834 -9.18244,-2.4085148 -3.47836,-0.1423729 -4.4629,-0.069789 -5.36234,0.3953344 -0.7099,0.3671016 -1.99026,0.569726 -3.60003,0.569726 -3.07935,0 -4.41221,0.5351104 -6.75732,2.712907 -2.33,2.1637513 -5.94887,6.6837733 -5.94887,7.4302203 0,0.314548 -0.72229,2.117088 -1.6051,4.005645 -0.88281,1.8885575 -1.6998,4.0172455 -1.81553,4.7304185 -0.18051,1.112397 -0.0769,1.404685 0.72888,2.05666 0.81479,0.659245 1.08232,1.438026 2.01828,5.87526 1.46877,6.963188 2.18648,8.472725 4.70383,9.893432 1.08353,0.611504 2.28683,1.514552 2.67401,2.006772 0.91975,1.169265 0.9062,2.754273 -0.0302,3.537276 -1.26827,1.060471 -2.08801,3.086569 -2.08801,5.160767 0,2.621062 0.34474,2.922137 4.40972,3.851109 1.23102,0.281327 3.13116,-0.154044 4.4949,-1.029901 z m -184.39686,26.064879 c -0.37997,-0.09652 -1.01901,-0.390506 -1.4201,-0.653309 -0.40108,-0.262802 -2.41784,-0.876812 -4.48168,-1.364466 -4.71914,-1.115063 -7.62119,-2.173076 -8.7532,-3.191191 -0.48507,-0.436266 -1.80817,-1.077649 -2.94024,-1.425295 -1.47288,-0.452311 -2.4965,-1.070296 -3.59905,-2.172844 -0.84742,-0.847418 -2.06438,-1.759543 -2.70436,-2.026944 -0.63998,-0.267402 -2.58492,-1.703868 -4.32207,-3.192149 -1.73716,-1.48828 -3.57747,-2.922636 -4.08958,-3.187456 -0.5843,-0.302155 -1.1646,-1.092915 -1.55803,-2.123076 -0.3448,-0.902871 -1.53968,-2.856376 -2.65527,-4.341122 -2.42368,-3.225689 -3.59588,-5.46897 -4.73941,-9.069977 -0.46878,-1.47619 -1.10651,-2.964853 -1.41718,-3.308141 -0.86867,-0.959869 -1.55899,-4.902142 -2.00209,-11.4335 -0.49877,-7.352056 -0.0726,-13.0276185 1.44174,-19.2001255 1.1353,-4.627517 1.56006,-5.631386 3.94814,-9.330984 0.84175,-1.3040324 2.06685,-3.317211 2.72245,-4.4737305 0.65559,-1.156519 2.26301,-3.14588 3.57203,-4.420803 1.43938,-1.401877 2.45845,-2.710043 2.57841,-3.309866 0.40829,-2.041428 6.71297,-7.240161 12.43865,-10.256695 1.1782,-0.620729 2.88874,-1.745512 3.80119,-2.499518 1.94962,-1.611071 3.02915,-1.987413 6.52852,-2.275952 1.49463,-0.123239 4.13768,-0.730327 6.23596,-1.432355 2.20009,-0.73609 4.73443,-1.308848 6.40171,-1.446781 4.91664,-0.406751 18.78268,1.349635 22.69181,2.874329 0.87313,0.340549 2.5718,1.310969 3.77483,2.156489 1.20303,0.845521 2.71116,1.637392 3.35139,1.759714 2.87292,0.548895 9.00007,4.44765 10.56549,6.722907 0.62717,0.911557 1.81429,1.961143 2.93085,2.591291 1.79276,1.011771 3.33266,2.790552 3.86338,4.462687 0.13467,0.424319 0.99074,1.396784 1.90238,2.161035 2.8726,2.408187 7.08946,10.4377195 7.8006,14.8535205 0.18295,1.13598 0.64663,2.68091 1.03041,3.433178 1.27807,2.505226 2.1912,15.7610405 1.47812,21.4576285 -0.69456,5.548628 -3.98343,14.047757 -7.69903,19.895951 -1.96399,3.09124 -8.40514,9.914622 -11.8887,12.594202 -1.35819,1.044735 -3.23257,2.532227 -4.16528,3.305538 -0.93272,0.773312 -2.30082,1.568922 -3.04022,1.768024 -0.73941,0.199101 -2.67503,0.980966 -4.30138,1.737477 -4.27476,1.98844 -6.18263,2.571499 -8.85357,2.705712 -1.30283,0.06547 -2.81751,0.351075 -3.36595,0.634686 -1.6787,0.868091 -6.15846,1.28118 -13.42898,1.23832 -3.81801,-0.02251 -7.25272,-0.119892 -7.63269,-0.216409 z m 31.10787,-25.445314 c 2.21555,-1.130293 3.27436,-2.612846 3.26746,-4.575115 -0.0109,-3.101308 -2.14614,-5.637163 -5.01924,-5.961003 -3.28293,-0.370035 -6.0696,2.082254 -6.05303,5.326729 0.011,2.151234 0.91819,4.100924 1.90819,4.100924 0.46111,0 0.7666,0.321602 0.92153,0.970139 0.48551,2.032397 1.22225,2.052881 4.97509,0.138326 z m -43.35926,-6.584307 c 2.37273,-2.133284 3.24086,-3.992189 3.24086,-6.939565 0,-1.425914 0.16934,-2.452246 0.44097,-2.672607 0.47957,-0.389057 3.19282,-0.957966 6.2618,-1.312965 4.68462,-0.541886 9.75081,-2.975605 13.14234,-6.313387 3.35859,-3.305355 4.47215,-6.741799 4.47119,-13.7981335 -7.1e-4,-5.27797 -0.59491,-8.502175 -1.91901,-10.412852 -1.67094,-2.4111625 -6.67989,-6.8970427 -8.99055,-8.0516945 -3.02007,-1.509149 -5.46778,-1.927635 -10.21948,-1.747232 -3.61911,0.137402 -4.3489,0.278487 -6.59778,1.275496 -1.39072,0.616553 -3.13697,1.126631 -3.88056,1.133506 -1.60496,0.01484 -2.60709,0.5211576 -3.64101,1.8395825 -0.41843,0.5335764 -1.04216,0.9701389 -1.38606,0.9701389 -0.89206,0 -1.71515,1.0404195 -2.26287,2.8603382 -0.2606,0.8659167 -1.14124,2.6800169 -1.95698,4.0313329 -1.90213,3.150994 -2.6471,5.676935 -2.64942,8.983328 -0.002,2.7178225 0.91984,7.5944275 1.7365,9.1870675 0.25291,0.493233 1.11235,1.683858 1.90987,2.645833 0.79752,0.961974 1.72299,2.364322 2.05662,3.116327 0.47863,1.078881 1.01586,1.562556 2.54692,2.293055 2.67511,1.276349 2.85713,1.960191 1.45427,5.463659 -1.35399,3.381428 -1.37923,4.42486 -0.14261,5.894504 1.11028,1.319495 3.53477,3.149555 4.17257,3.149555 0.24094,0 1.23653,-0.717879 2.21242,-1.595287 z m 346.51888,-55.775256 c 1.93254,-3.377725 2.539,-6.591966 2.55431,-13.537789 0.014,-6.343628 -0.76988,-14.438494 -1.69619,-17.516377 -0.26521,-0.881237 -0.8964,-2.199934 -1.40264,-2.930436 -0.50624,-0.730503 -1.01934,-1.937681 -1.14023,-2.682618 -0.14576,-0.898211 -0.84779,-2.13257 -2.08419,-3.664583 -1.02542,-1.270583 -2.70602,-3.738902 -3.73467,-5.485152 -1.44035,-2.445165 -2.80283,-4.087287 -5.92721,-7.143726 -2.23132,-2.182799 -4.85738,-4.561358 -5.8357,-5.285685 -0.97832,-0.724328 -2.0102,-1.794417 -2.29306,-2.377977 -0.79987,-1.65019 -6.05548,-5.665598 -10.42142,-7.96222 -2.80168,-1.473766 -3.20282,-1.175286 -3.45174,2.568333 -1.0408,15.652974 -1.26484,17.123546 -3.24462,21.296679 -0.65402,1.378583 -2.09954,3.680457 -3.21227,5.115277 -6.59212,8.500276 -7.19917,10.172459 -3.7033,10.201233 1.351,0.01112 3.76212,1.190167 5.65564,2.765636 0.8996,0.748497 2.37149,1.683707 3.27087,2.078244 1.05314,0.461994 3.23046,2.243077 6.11672,5.003579 4.68827,4.484006 8.52583,7.55193 10.9957,8.790473 2.48373,1.245492 6.86067,4.759099 11.93606,9.581724 l 4.86097,4.618882 0.85678,-0.804902 c 0.47123,-0.442697 1.32632,-1.625564 1.90019,-2.628595 z m -453.72782,-5.169065 c 2.0695,-0.589264 3.0268,-1.10644 4.5861,-2.477598 3.0033,-2.640969 22.8798,-15.72376 28.17098,-18.542296 5.12881,-2.732043 7.21735,-4.065746 9.56771,-6.109759 0.85174,-0.740718 2.20111,-1.51834 2.99862,-1.728049 1.72475,-0.453536 12.09167,-5.737737 14.85451,-7.571605 1.06773,-0.708718 1.94132,-1.531714 1.94132,-1.828879 0,-0.297166 -0.55215,-1.151463 -1.22699,-1.898439 -1.73412,-1.919464 -4.03127,-6.67539 -4.64426,-9.615296 -0.28617,-1.372478 -0.65418,-2.659165 -0.81781,-2.859303 -0.52987,-0.648089 -1.01865,-3.100977 -1.40818,-7.066665 -0.20964,-2.134306 -0.60968,-4.515556 -0.88897,-5.291667 -0.2793,-0.776111 -0.51713,-2.601736 -0.5285,-4.056944 -0.0114,-1.455208 -0.22434,-3.042708 -0.47325,-3.527778 -0.38652,-0.753249 -0.68976,-0.879014 -2.07811,-0.861865 -1.32137,0.01632 -2.18713,0.364459 -4.62656,1.860431 -1.65054,1.012193 -3.85193,2.133117 -4.89197,2.490943 -2.58851,0.890577 -5.29109,2.294124 -8.22512,4.271602 -1.35819,0.915395 -3.28347,2.076461 -4.27838,2.580146 -0.99492,0.503684 -2.97929,1.844299 -4.40974,2.979143 -2.4685,1.958395 -3.4051,2.555619 -5.7179,3.645778 -0.5502,0.259365 -4.0094,3.334642 -7.6872,6.833948 -3.6777,3.499305 -8.4343,7.963902 -10.5702,9.921325 -5.9945,5.49351 -9.3534,10.653947 -10.1994,15.669481 -0.7024,4.164419 -0.3113,10.025235 1.024,15.343789 1.3102,5.218333 2.1712,7.037958 3.8723,8.183786 1.3017,0.876781 1.387,0.871589 5.657,-0.344229 z m 383.25657,-23.540215 c 2.03453,-0.197884 4.12887,-0.632071 5.08151,-1.053471 1.85942,-0.822508 6.2457,-4.252462 6.8269,-5.338456 0.3666,-0.684996 0.32151,-0.715942 -0.71236,-0.488866 -1.54622,0.339607 -2.83895,-0.549686 -2.83895,-1.952968 0,-0.805632 0.38662,-1.414568 1.61869,-2.549507 6.09787,-5.617108 7.34955,-7.321076 8.50806,-11.582344 0.51346,-1.888662 0.60547,-3.691838 0.56511,-11.075396 -0.0443,-8.104302 -0.19776,-10.082417 -1.13578,-14.640277 -0.1797,-0.873125 -0.50516,-4.333762 -0.72326,-7.6903 -0.5215,-8.02607 -0.8077,-9.39353 -2.86174,-13.67324 -1.34751,-2.8076 -2.39005,-4.34915 -4.68319,-6.92474 -2.99131,-3.35977 -7.84379,-7.72414 -11.69483,-10.51846 -1.16417,-0.84473 -2.91042,-2.19605 -3.88056,-3.00296 -1.7137,-1.42535 -8.30274,-5.05509 -11.41921,-6.29056 -0.84779,-0.33609 -2.73768,-0.76274 -4.19974,-0.94811 -1.99652,-0.25314 -3.0851,-0.61091 -4.37265,-1.43713 -1.55309,-0.99662 -1.88925,-1.07823 -3.57413,-0.86772 -1.44467,0.1805 -3.43182,-0.0825 -8.90259,-1.17825 -11.34315,-2.27196 -21.63388,-3.87433 -35.4414,-5.51861 -2.61937,-0.31193 -7.14375,-0.946 -10.05416,-1.40905 -9.42453,-1.49945 -14.80165,-2.18345 -34.925,-4.44261 -8.822,-0.99041 -11.28959,-1.12661 -23.08659,-1.27426 -14.32608,-0.1793 -34.12104,0.35192 -43.40431,1.16481 -16.31485,1.42862 -61.43966,7.78816 -76.53724,10.78656 -9.23123,1.83334 -17.65005,4.33026 -21.95429,6.51139 -0.97793,0.49555 -2.64494,1.04209 -3.70447,1.21453 -2.66496,0.43374 -5.25443,2.37194 -10.88957,8.15079 -7.10768,7.28894 -8.27031,9.00878 -8.27572,12.24193 -10e-4,0.64678 -0.45701,2.31365 -1.01318,3.70417 -1.30897,3.27266 -1.80629,5.66497 -1.83092,8.80738 -0.0279,3.55649 -0.5652,4.98394 -1.92037,5.10162 -1.4099,0.12244 -1.89506,-0.24992 -2.46397,-1.89106 l -0.47695,-1.37584 -0.38909,1.01275 c -0.51981,1.35297 -1.06408,5.229366 -1.07272,7.640003 -0.0115,3.218535 -1.63181,4.535159 -2.44597,1.987577 -0.19604,-0.613433 -0.59666,-2.983727 -0.89026,-5.26732 -0.55945,-4.35132 -0.94597,-5.5494 -1.79032,-5.5494 -1.51677,0 -2.3227,3.61021 -2.32321,10.406943 -5e-4,6.660944 1.27753,14.447775 2.74344,16.715278 0.95367,1.475153 1.18474,0.183127 1.11386,-6.228168 -0.075,-6.781192 0.0155,-7.094966 1.8946,-6.567794 1.675,0.469922 2.23189,1.902657 3.27751,8.432124 1.1791,7.362972 2.00763,10.319566 3.85434,13.754115 0.83461,1.552222 1.70573,3.59762 1.93582,4.545328 0.63408,2.611703 1.6798,4.391165 4.0011,6.808556 2.76704,2.881585 6.8229,5.653903 9.77203,6.67951 3.38062,1.175664 8.44471,1.664633 14.30423,1.381162 6.19613,-0.299755 15.05633,-1.309219 21.70007,-2.472342 17.80946,-3.117911 23.98186,-4.085336 29.27632,-4.5886 5.8047,-0.551763 12.00447,-1.346824 13.93472,-1.786994 1.16417,-0.265473 7.83229,-1.438514 14.81805,-2.606757 28.40125,-4.749597 30.18919,-5.246257 36.72812,-10.202453 2.48705,-1.88506 3.33282,-2.766127 4.09522,-4.266089 0.52845,-1.039709 1.66287,-2.783974 2.52093,-3.876146 0.85806,-1.092172 1.79149,-2.536134 2.07428,-3.208804 0.68201,-1.622268 3.68822,-5.365711 5.074,-6.318331 1.42702,-0.980974 5.4352,-1.363675 7.68501,-0.733767 0.87305,0.244437 2.20267,0.971119 2.95472,1.614848 2.19187,1.876155 5.45098,6.077922 6.63577,8.555066 1.24509,2.603241 6.80524,9.788001 8.49661,10.979231 3.24711,2.286936 12.61113,5.510798 18.08124,6.225046 2.24274,0.292842 7.25271,1.155045 11.13327,1.916007 8.82125,1.729815 11.95993,2.267401 28.78548,4.930311 7.45132,1.179289 15.45285,2.52512 17.78118,2.990735 4.2044,0.840786 10.99341,1.958354 20.46111,3.368191 8.22559,1.224873 17.5752,2.795038 18.69723,3.139995 1.40607,0.432283 5.20557,0.444814 9.45817,0.03119 z m -21.27623,-23.626968 c -1.64924,-0.15867 -4.34799,-0.546375 -5.99722,-0.861567 -1.64924,-0.315191 -7.84049,-1.45217 -13.75833,-2.52662 -5.91785,-1.074449 -12.82348,-2.32879 -15.34584,-2.787425 -9.47968,-1.723666 -36.02266,-6.959485 -41.19324,-8.125702 -7.40417,-1.670001 -12.46435,-4.274553 -16.44379,-8.463876 -3.09299,-3.256107 -4.47249,-5.354415 -5.21583,-7.933567 -0.30756,-1.06716 -1.21399,-3.20183 -2.01428,-4.74372 l -1.45508,-2.80344 v -12.02755 -12.02755 l 1.76389,-2.58386 c 1.93819,-2.83918 2.74318,-3.5611 3.97081,-3.5611 0.46152,0 1.35167,-0.53647 2.05167,-1.23646 2.62103,-2.62103 8.35695,-4.80441 13.20391,-5.02608 3.96653,-0.1814 14.2578,0.73817 16.83869,1.50461 1.74613,0.51855 2.57051,1.42188 2.05655,2.25349 -0.33152,0.5364 0.18904,1.4461 0.8275,1.4461 0.78254,0 1.44393,-0.68374 1.44393,-1.49274 0,-1.32426 -0.73917,-1.39202 20.01707,1.8349 15.79792,2.45607 19.59832,3.14147 22.84542,4.12016 1.55223,0.46784 3.8541,1.01487 5.11528,1.21561 5.82764,0.92759 20.3556,4.26067 24.69445,5.66553 3.35637,1.08675 7.9245,3.32849 9.37135,4.59884 0.69365,0.60903 1.52854,1.67647 1.85532,2.3721 0.37779,0.80423 0.88123,1.30563 1.38257,1.37698 1.91067,0.27194 5.7352,6.97074 5.7352,10.04539 0,1.00722 0.20594,1.91679 0.50074,2.21159 1.58165,1.58165 0.75505,17.31266 -1.05486,20.07493 -0.47918,0.731321 -0.61013,1.576711 -0.55787,3.601301 0.065,2.517745 0.008,2.727157 -1.16944,4.331795 -1.63747,2.230684 -5.63625,5.977062 -7.62165,7.140586 -3.53396,2.071038 -5.60543,2.502479 -12.49831,2.603121 -3.4925,0.05099 -7.69937,-0.03711 -9.34861,-0.195776 z m 12.79512,-8.67168 c 2.31964,-0.597786 4.40292,-1.538985 6.91113,-3.122347 3.48584,-2.200513 5.49885,-10.793671 4.96574,-21.19779 -0.24783,-4.83671 -0.8399,-6.10872 -5.03811,-10.82404 -3.52243,-3.95631 -5.22614,-5.43261 -6.58256,-5.70389 -0.54384,-0.10877 -2.60848,-0.83979 -4.58808,-1.6245 -2.65746,-1.0534 -4.10327,-1.42674 -5.52529,-1.42674 -2.3492,0 -3.10467,-0.36981 -3.58805,-1.75644 -0.45129,-1.29457 -1.33801,-1.38112 -1.88353,-0.18383 -0.5172,1.13512 -1.05168,1.11815 -5.581,-0.17723 -5.28185,-1.5106 -12.84036,-3.11994 -16.4682,-3.50637 -1.71062,-0.18222 -4.7771,-0.81059 -6.81439,-1.39639 -4.17136,-1.19943 -6.53132,-1.61268 -12.26766,-2.14821 -2.18756,-0.20423 -5.28231,-0.683 -6.87721,-1.06393 -5.72844,-1.3682 -23.02745,-3.52593 -28.26818,-3.52593 -3.58297,0 -7.84075,0.62419 -9.63559,1.41257 -1.11282,0.4888 -1.53821,0.90293 -1.69339,1.64858 -0.11398,0.54769 -0.66555,1.97074 -1.2257,3.16234 -2.05044,4.3619 -2.97455,12.67413 -1.63184,14.67827 0.47031,0.702 0.72783,2.02507 0.93252,4.79113 0.5514,7.45125 2.32203,11.610358 5.28214,12.407434 0.76628,0.206336 2.11524,1.000052 2.9977,1.763811 1.80916,1.565818 3.17328,2.043367 10.06044,3.521945 2.62299,0.563119 6.03611,1.418883 7.58472,1.901699 3.53102,1.100878 7.67183,1.823648 20.53419,3.584204 2.17811,0.298131 5.42146,1.02361 7.20746,1.612175 1.96293,0.646874 6.95443,1.69194 12.62036,2.642314 11.28558,1.892987 16.15047,2.796633 20.13282,3.739645 7.53312,1.78383 13.58156,2.04346 18.43956,0.79152 z m -265.384,5.805439 c -1.06715,-0.157997 -3.70059,-0.506508 -5.85208,-0.774469 -4.40803,-0.549004 -6.36443,-1.332573 -7.20921,-2.887403 -0.43933,-0.808578 -0.90708,-1.110145 -2.01535,-1.299343 -2.74183,-0.468066 -6.73253,-3.701066 -9.41564,-7.627926 -1.37845,-2.017434 -1.74883,-2.933562 -2.31873,-5.735357 -1.80997,-8.898384 -2.31769,-17.964018 -1.1024,-19.684118 0.36388,-0.51502 1.33237,-2.27437 2.15221,-3.90967 0.81983,-1.63529 2.08668,-3.5634 2.81521,-4.28469 0.91255,-0.90347 1.39379,-1.74416 1.54704,-2.70255 0.12235,-0.76512 0.59137,-1.78921 1.04228,-2.27574 2.01913,-2.17868 7.41591,-4.34204 13.93269,-5.58507 5.78658,-1.10376 6.72417,-1.39128 9.92873,-3.04475 1.63657,-0.84443 3.3675,-1.53532 3.84652,-1.53532 0.47901,0 1.69394,-0.38935 2.69984,-0.86521 1.77444,-0.83945 4.68083,-1.34107 13.05584,-2.25335 1.74625,-0.19022 3.88937,-0.6091 4.7625,-0.93085 2.628,-0.96842 3.94505,-1.22488 6.35,-1.23652 3.84662,-0.0186 8.08599,-0.63807 9.28685,-1.35701 3.11805,-1.86672 21.99213,-4.63569 31.64507,-4.64255 3.97378,-0.003 4.91812,-0.10669 5.64444,-0.62076 1.68572,-1.19313 9.64802,-0.42563 14.23825,1.37244 3.36368,1.31762 5.12674,2.70327 6.15448,4.837 0.76407,1.58633 1.17238,2.02676 2.17535,2.34646 0.86746,0.2765 1.42137,0.76907 1.86222,1.65599 2.41347,4.85543 2.62965,19.69594 0.41414,28.42974 -1.19454,4.70902 -2.9383,8.01303 -6.11707,11.590359 -1.47712,1.662332 -2.89897,3.41575 -3.15966,3.896485 -0.68918,1.270915 -3.1825,2.721999 -6.5003,3.783105 -4.34722,1.390333 -24.31199,5.504756 -36.94655,7.6141 -8.76131,1.462701 -18.72876,3.167399 -29.80972,5.09825 -17.66339,3.077832 -19.02631,3.232883 -23.10695,2.628727 z m 4.58611,-7.913982 c 5.59365,-1.0686 16.94868,-2.945652 21.16667,-3.498971 7.94616,-1.042385 11.68603,-1.649433 14.24076,-2.311529 5.01302,-1.299198 17.22317,-3.171927 20.6809,-3.171927 1.62636,0 3.87137,-0.526116 6.59961,-1.546612 0.81455,-0.304681 3.51944,-0.866396 6.01088,-1.248256 5.7929,-0.887872 10.42551,-1.897108 14.19026,-3.091419 4.16907,-1.322574 5.30902,-2.537612 8.44778,-9.00421 1.34586,-2.7728 2.69667,-5.79855 3.0018,-6.7239 1.49929,-4.54681 1.43116,-15.99869 -0.11599,-19.49628 -0.381,-0.86132 -1.69478,-2.58588 -2.91951,-3.83236 -2.74687,-2.79565 -4.22755,-3.30378 -10.50041,-3.60343 -7.28771,-0.34813 -17.70044,0.77565 -37.94025,4.09468 -20.62102,3.38153 -23.78662,3.93709 -26.28194,4.6124 -9.80871,2.65453 -16.51239,4.14048 -22.11615,4.90229 -8.92098,1.21278 -15.83691,6.01056 -18.14974,12.59098 -1.73735,4.94308 -1.66444,10.63495 0.22957,17.919736 1.92919,7.420116 4.76237,10.672469 11.28493,12.954526 2.34614,0.820847 3.38757,0.985081 6.17361,0.973576 1.84327,-0.0076 4.54201,-0.241293 5.99722,-0.519294 z m -110.49107,0.77195 c 4.1921,-3.79011 6.4187,-5.405138 13.8409,-10.039369 11.94822,-7.460126 21.59813,-12.374475 28.52577,-14.527135 1.86432,-0.57931 3.97545,-1.41264 4.6914,-1.85183 2.17489,-1.3342 7.93365,-7.92725 9.17126,-10.49993 0.6067,-1.26118 1.46652,-2.77312 1.91071,-3.35987 0.44419,-0.58675 1.30964,-2.38148 1.92323,-3.9883 0.73142,-1.91538 1.90314,-3.97779 3.40241,-5.98874 1.25773,-1.68699 2.48638,-3.54351 2.73033,-4.12559 1.15611,-2.7586 9.17208,-11.49795 11.74585,-12.80582 0.82161,-0.41751 2.4043,-1.50068 3.51709,-2.40706 2.0552,-1.67398 4.38697,-2.93338 5.45714,-2.94743 0.32466,-0.004 1.03904,-0.38332 1.5875,-0.84235 1.08083,-0.90461 3.99056,-2.44447 5.40693,-2.86143 0.48507,-0.14279 2.64016,-0.9483 4.7891,-1.79001 2.80829,-1.09998 6.08244,-1.97595 11.64166,-3.11464 10.33275,-2.11644 11.1816,-2.26154 16.90674,-2.88994 2.71639,-0.29815 6.60576,-0.92098 8.64305,-1.38406 2.03729,-0.46309 6.40292,-1.24197 9.70139,-1.73086 5.69045,-0.84342 8.34348,-1.18818 25.04722,-3.25484 3.88056,-0.48012 9.15326,-0.92 11.71712,-0.97751 2.74862,-0.0616 4.85573,-0.2657 5.13472,-0.49724 1.41037,-1.17051 5.36515,-1.30236 39.06344,-1.30236 35.80443,0 35.77201,-0.001 47.36715,1.92655 3.4477,0.57324 7.97207,1.21467 10.05416,1.42542 5.59713,0.56652 9.13088,1.03544 11.89952,1.57902 1.35819,0.26666 4.93007,0.73708 7.9375,1.04537 8.76421,0.89842 11.6618,1.30057 12.83444,1.78124 1.08832,0.44611 3.3002,0.85206 12.56556,2.30617 2.61937,0.41109 6.58812,1.20767 8.81944,1.77018 4.61071,1.16235 9.83385,1.97252 15.81876,2.45369 6.71144,0.53957 11.1463,2.10492 22.63402,7.98902 8.4515,4.32893 14.24697,8.17642 15.72621,10.44031 0.60106,0.91989 2.59744,3.30114 4.43639,5.29167 4.94828,5.35614 7.58724,8.61457 8.46332,10.44999 0.42944,0.8997 1.12708,1.96484 1.55033,2.36699 0.50399,0.47889 0.98154,1.69619 1.38396,3.52778 0.33794,1.53813 0.89703,3.27284 1.24242,3.85493 0.34539,0.58208 1.46183,3.28083 2.48098,5.99722 1.80802,4.819 3.36234,8.19505 4.34294,9.433061 0.26732,0.33749 1.02539,0.840425 1.6846,1.117633 0.65921,0.277208 1.66294,0.99129 2.2305,1.58685 0.60733,0.637288 1.55084,1.174298 2.29305,1.305124 0.72586,0.127942 1.78519,0.72142 2.49585,1.398279 0.6791,0.646794 1.81595,1.418111 2.52634,1.714037 2.24698,0.936023 6.55606,4.701959 15.7234,13.741516 5.56616,5.488568 8.96226,8.594677 9.06428,8.290278 0.46866,-1.398301 0.9082,-6.025454 0.9082,-9.560723 0,-4.866265 -0.73222,-11.061153 -2.12874,-18.010055 -1.67679,-8.34346 -3.41266,-13.15289 -10.15145,-28.12572 -2.59111,-5.75715 -2.81159,-6.52172 -1.97345,-6.84335 1.23869,-0.47533 4.2611,1.52421 9.01891,5.96664 2.9448,2.7496 4.74729,4.20264 4.81707,3.88317 0.38494,-1.76228 -12.22721,-19.09426 -18.60048,-25.56133 -3.07727,-3.12255 -6.39445,-5.94389 -10.75339,-9.146 -6.26375,-4.6014 -8.68879,-7.79352 -6.36399,-8.37701 1.89542,-0.47572 8.54173,0.12396 14.33424,1.29333 3.24048,0.65418 6.00889,1.07231 6.15203,0.92917 0.14313,-0.14313 -0.78393,-1.24892 -2.06015,-2.45729 -1.50365,-1.42373 -2.46801,-2.6627 -2.73979,-3.51997 -0.23068,-0.7276 -0.53978,-1.32292 -0.6869,-1.32292 -0.14712,0 -2.31762,-1.84825 -4.82334,-4.10723 -11.65906,-10.51098 -17.79895,-14.96346 -28.5874,-20.73078 -7.09826,-3.79461 -10.68767,-5.3108 -16.78349,-7.08942 -9.05027,-2.64068 -16.82727,-3.83892 -28.85856,-4.4464 -4.36563,-0.22043 -8.29469,-0.53631 -8.73125,-0.70196 -3.6126,-1.37078 5.57027,-5.70584 19.31458,-9.11805 4.59806,-1.14153 5.99722,-1.62753 5.99722,-2.08315 0,-0.42934 -4.27717,-2.48415 -10.14417,-4.87339 -24.05274,-9.79508 -37.98917,-12.19154 -66.23221,-11.38906 -10.17255,0.28903 -13.98549,0.61457 -18.62206,1.5899 -4.95314,1.04193 -6.95433,0.71378 -6.95433,-1.14034 0,-1.68309 2.83922,-6.02301 8.49956,-12.99206 4.58183,-5.64119 8.26145,-9.33769 10.62012,-10.66884 1.06547,-0.60131 2.37579,-1.61452 2.91183,-2.25157 l 0.97463,-1.15827 -0.74025,-0.59942 c -1.15937,-0.9388 -6.57286,-1.19817 -24.73534,-1.18508 -17.5677,0.0127 -20.02719,0.17744 -31.59635,2.11704 -20.14004,3.37651 -41.90962,10.05721 -47.38058,14.54025 -1.5344,1.25732 -1.73976,1.32256 -4.1634,1.32256 -1.57581,0 -2.71862,-0.16923 -2.99253,-0.44315 -0.27933,-0.27933 -0.52957,-2.07116 -0.67692,-4.84698 -0.14242,-2.68302 -0.40658,-4.61206 -0.67602,-4.93672 -0.27286,-0.32877 -1.04166,-0.53287 -2.00719,-0.53287 -3.78267,0 -20.13724,5.05819 -26.10493,8.07382 -1.92517,0.97284 -4.20665,1.92527 -5.06994,2.11653 -1.16502,0.25809 -1.89486,0.72249 -2.8313,1.80158 -0.69392,0.79962 -2.04329,1.82223 -2.99861,2.27248 -0.95532,0.45024 -2.28402,1.39369 -2.95267,2.09655 -0.66866,0.70286 -1.4992,1.27792 -1.84565,1.27792 -1.21903,0 -11.36994,10.85931 -14.49232,15.5037 -0.53524,0.79613 -1.35697,1.62238 -1.82607,1.83612 -1.10383,0.50294 -2.54478,0.13172 -3.03352,-0.78149 -0.21797,-0.40729 -0.53448,-4.54399 -0.72946,-9.53396 -0.36282,-9.28544 -0.60367,-10.80353 -1.64479,-10.36717 -0.33686,0.14118 -4.48636,1.59601 -9.22113,3.23294 -10.70711,3.70174 -14.69318,5.68213 -19.48765,9.68201 -0.90089,0.75159 -2.14195,1.46731 -2.75792,1.59051 -0.61596,0.12319 -1.35996,0.59031 -1.65332,1.03804 -0.29337,0.44773 -1.27497,1.06037 -2.18135,1.36142 -0.90637,0.30105 -2.081,1.00618 -2.61029,1.56696 -0.52929,0.56078 -2.40374,1.76406 -4.16545,2.67395 -1.93906,1.00148 -4.6091,2.83471 -6.76586,4.64538 -1.9595,1.64506 -4.02522,3.23019 -4.59049,3.5225 -0.56526,0.29231 -3.44146,2.54562 -6.39156,5.00737 -2.9501,2.46174 -6.35135,5.26964 -7.55834,6.23978 -2.18616,1.75717 -2.59407,2.29045 -1.75618,2.29595 3.84795,0.0253 12.07429,1.99876 15.43916,3.70387 4.76665,2.41545 3.4568,3.40503 -7.68356,5.80482 -18.37,3.95717 -28.7235,9.57736 -41.90924,22.74956 -4.3705,4.366 -8.7538,9.61486 -11.7509,14.07124 -3.3834,5.03073 -9.3051,14.49762 -10.3294,16.51341 -1.7809,3.50455 -1.1912,3.5555 5.5787,0.48197 9.0035,-4.0876 25.4527,-10.4111 27.0822,-10.4111 0.8338,0 1.05585,0.90579 0.5321,2.1702 -0.6141,1.48266 -2.3561,3.63166 -6.5803,8.118 -4.5807,4.86493 -7.5676,8.71255 -10.8045,13.91827 -8.5263,13.71191 -14.021,29.270492 -15.4641,43.786839 -0.3455,3.475413 -0.3398,4.850773 0.029,7.055555 0.2521,1.506248 0.5345,2.863529 0.6276,3.016181 0.093,0.152651 2.229,-1.672974 4.7466,-4.056945 2.5176,-2.383971 5.9558,-5.580648 7.6404,-7.103726 z m 406.98134,7.252239 c 0.89302,-2.620865 1.35482,-7.852276 1.16963,-13.249855 -0.2146,-6.254983 -0.88542,-8.979013 -2.99199,-12.149846 -0.86477,-1.30165 -1.4752,-2.066425 -1.35653,-1.699499 0.5698,1.761696 0.8936,8.024036 0.89916,17.389756 0.006,10.485492 0.22515,12.595771 1.22097,11.769317 0.27368,-0.227137 0.75012,-1.154079 1.05876,-2.059873 z"
       id="path1" /></g></svg>
