<?xml version="1.0" encoding="UTF-8" standalone="no"?>
<!-- Created with Inkscape (http://www.inkscape.org/) -->

<svg
   width="759.41956mm"
   height="846.57745mm"
   viewBox="0 0 759.41958 846.57743"
   version="1.1"
   id="svg1"
   xml:space="preserve"
   xmlns="http://www.w3.org/2000/svg"
   xmlns:svg="http://www.w3.org/2000/svg"><defs
     id="defs1" /><g
     id="layer1"
     transform="translate(1059.6781,306.97691)"><path
       style="fill:#000000"
       d="m -819.49963,539.26082 c -22.49622,-1.08628 -61.92734,-7.18547 -72.72366,-11.24886 -4.76262,-1.79251 -8.79669,-5.58433 -9.99533,-9.39511 -0.74882,-2.38069 -0.74144,-6.5708 0.0156,-8.83184 0.72345,-2.16084 1.62002,-3.6584 3.69293,-6.1684 2.00724,-2.43048 3.81143,-5.61626 5.27811,-9.31994 5.27625,-13.32367 14.74322,-22.28485 34.59694,-32.74852 l 3.72705,-1.96429 -0.65942,-3.10264 c -0.54698,-2.57356 -0.69491,-5.3142 -0.86748,-16.07169 l -0.20806,-12.96905 -2.00684,-2.2004 c -2.65981,-2.91634 -4.49188,-5.64023 -5.00241,-7.43752 -0.22898,-0.8061 -0.52043,-1.58857 -0.64766,-1.73881 -0.12724,-0.15024 -0.93391,0.26308 -1.79261,0.9185 -5.11116,3.90118 -16.23326,9.76161 -18.52588,9.76161 -0.46787,0 -1.15974,0.30906 -1.53747,0.68679 -1.30319,1.30319 -4.6227,2.58491 -10.55742,4.0764 -5.52402,1.38828 -15.80899,2.05902 -38.32107,2.49912 -12.78911,0.25003 -20.21727,-0.11865 -26.10555,-1.29566 -5.24343,-1.04811 -12.48486,-3.62197 -17.4625,-6.2068 -5.5711,-2.89299 -12.07294,-7.22102 -13.48206,-8.97449 -1.35819,-1.69008 -2.29049,-1.97863 -7.33183,-2.26925 -2.60555,-0.1502 -4.56175,-0.45242 -5.46805,-0.84476 -2.1923,-0.94906 -7.1194,-5.22114 -10.2306,-8.87055 -4.3226,-5.07039 -5.7095,-6.59551 -13.6046,-14.96052 -10.995,-11.64943 -13.8924,-15.42652 -18.266,-23.8125 -6.9534,-13.33217 -10.3168,-25.21202 -11.8891,-41.99299 -0.7533,-8.04023 -1.0633,-34.20732 -0.5517,-46.57102 0.6085,-14.70565 1.5166,-19.81064 5.9244,-33.30395 3.6051,-11.03611 6.4389,-17.81793 12.6103,-30.17927 5.6076,-11.23205 8.8865,-16.92445 15.1786,-26.35115 l 3.7075,-5.55458 -2.0586,-0.56351 c -1.1323,-0.30993 -2.7623,-0.9759 -3.6224,-1.47993 -1.916,-1.12283 -4.7613,-4.10748 -5.421,-5.68637 -1.2744,-3.04984 -0.8403,-10.0813 0.8416,-13.6339 2.9097,-6.14609 22.4884,-27.13681 33.72955,-36.1622 4.60157,-3.69455 14.9365,-13.8019 16.91242,-16.54001 2.10263,-2.91372 14.28454,-14.847015 24.05203,-23.561185 2.64613,-2.36076 4.86656,-4.643314 5.19952,-5.344979 0.38705,-0.815654 0.58113,-2.154063 0.58113,-4.007625 0,-3.566472 0.73081,-6.333676 2.33501,-8.841445 1.58535,-2.478294 7.17911,-8.226925 17.16143,-17.636565 l 7.67838,-7.23788 -2.92626,-3.040304 c -4.51656,-4.692573 -12.72846,-15.988933 -17.98196,-24.736138 -8.57645,-14.27997733 -16.98912,-35.186436 -21.26392,-52.843281 -2.60797,-10.772121 -2.89936,-11.652407 -5.74056,-17.34231 l -2.72184,-5.450869 v -5.688228 -5.688228 l 1.54725,-3.122486 c 1.53963,-3.107101 2.72883,-4.504299 7.31264,-8.591656 2.53027,-2.256227 6.55271,-4.098064 10.63443,-4.869412 4.92138,-0.930022 22.84444,-0.939221 28.30706,-0.01453 5.31355,0.899458 13.88282,3.184994 17.39914,4.640576 4.62626,1.915048 4.578,1.956111 7.65166,-6.510133 4.64485,-12.793992 9.77263,-22.865032 18.2881,-35.918122 2.16333,-3.3161 3.93333,-6.20754 3.93333,-6.42543 0,-0.21788 -0.69288,-1.29691 -1.53974,-2.39783 -4.79636,-6.23535 -14.13151,-25.96379 -16.2588,-34.36057 -2.32302,-9.16931 -3.20043,-18.56986 -2.9062,-31.13703 0.50459,-21.55206 5.47485,-42.40418 14.33786,-60.15269 4.22536,-8.46144 10.26591,-18.17014 13.7182,-22.04861 0.86353,-0.97014 1.78185,-2.2666 2.04071,-2.88102 0.25886,-0.61442 0.95369,-1.46109 1.54408,-1.88148 0.59039,-0.42039 1.3155,-1.34644 1.61136,-2.05787 0.66086,-1.58912 7.06774,-7.92241 11.05022,-10.9233 3.72235,-2.80487 5.64776,-3.41458 10.79814,-3.41938 3.02675,-0.003 4.42389,0.16756 6.35,0.77437 6.57141,2.07031 12.05335,7.24774 14.46885,13.66513 1.23693,3.28622 1.47889,5.46141 2.10173,18.89438 0.71989,15.52579 0.87284,17.30094 1.51187,17.54616 0.74253,0.28493 3.0701,-0.92887 9.25783,-4.82785 9.81966,-6.18751 16.76459,-9.51063 26.9875,-12.91341 12.72143,-4.23443 25.66348,-6.26241 43.74444,-6.85462 11.39687,-0.37329 15.60646,-0.65081 16.42937,-1.08311 0.49455,-0.25981 0.46045,-0.64567 -0.31598,-3.57573 -0.67661,-2.55337 -0.87851,-4.22683 -0.90701,-7.51783 -0.0458,-5.28607 0.39024,-6.86137 2.46528,-8.90705 0.8551,-0.84301 1.55473,-1.73126 1.55473,-1.97389 0,-0.78612 2.595,-2.99373 4.58611,-3.90149 10.78256,-4.91583 35.16383,2.18286 52.3875,15.25279 7.40675,5.62051 21.74632,19.23806 22.95167,21.79603 0.37645,0.79887 1.0967,1.69035 1.60058,1.98107 0.50387,0.29071 2.15135,2.19739 3.66107,4.23706 l 2.74494,3.70848 8.33337,0.18627 c 7.1562,0.15996 8.93994,0.31513 12.62735,1.09847 20.97825,4.45654 39.92542,16.73352 57.97146,37.5631 l 4.39368,5.07139 0.49063,-1.19084 c 0.78493,-1.90517 4.93927,-18.67689 5.51437,-22.26237 1.39607,-8.70394 1.39219,-24.94645 -0.008,-34.23174 -0.7305,-4.84366 -0.71226,-10.81077 0.0407,-13.312 0.96145,-3.19384 2.58975,-6.02741 4.58049,-7.97099 3.37526,-3.29531 7.50331,-4.73379 13.54908,-4.72137 9.91451,0.0204 20.49345,4.72858 29.99429,13.34915 3.28496,2.98061 11.64604,12.19721 11.65072,12.84286 0.002,0.23929 0.78666,1.44448 1.74427,2.67821 0.95761,1.23372 1.84616,2.72142 1.97455,3.30601 0.13859,0.63097 0.51226,1.13578 0.91956,1.2423 0.40976,0.10715 0.7696,0.59685 0.89339,1.21579 0.114,0.57001 0.58215,1.28201 1.04034,1.58223 0.45819,0.30021 0.83307,0.83543 0.83307,1.18937 0,0.35394 0.65204,1.3969 1.44898,2.31769 2.49167,2.87891 9.50582,18.25485 12.09385,26.51134 2.15549,6.87659 3.92079,15.25166 4.8129,22.8338 0.64084,5.44659 0.83436,18.29772 0.36712,24.38029 -1.2116,15.77292 -4.37601,26.92764 -12.23593,43.13238 l -3.65741,7.54046 1.82889,2.51371 c 7.59681,10.44145 11.2166,15.85557 11.2166,16.7767 0,0.24498 0.60391,1.1315 1.34203,1.97004 3.31462,3.76561 11.49336,20.478341 14.71888,30.077065 0.33193,0.987809 1.50719,0.800362 6.80813,-1.085856 13.10155,-4.661885 22.00173,-6.242284 35.15407,-6.242284 10.24585,0 14.90973,1.187828 19.7601,5.032635 3.09212,2.451073 7.07672,7.080247 8.38822,9.745175 1.10726,2.249895 1.14043,2.449492 1.11954,6.734983 -0.0243,4.987696 -0.46519,7.627136 -3.49981,20.953058 -4.98573,21.893865 -10.31375,37.421695 -18.35376,53.4897047 -6.42654,12.8434593 -12.99309,22.6270643 -23.94095,35.6699863 l -1.95782,2.332485 1.72377,2.430015 c 0.94808,1.336508 2.54289,3.382515 3.54403,4.546681 3.66191,4.258216 5.18995,8.013272 5.52687,13.581945 0.3811,6.298965 -0.87192,10.791358 -3.91835,14.048236 -0.88669,0.947949 -1.61217,1.900033 -1.61217,2.115741 0,0.620538 4.73705,7.247794 8.49295,11.881854 4.43031,5.46616 13.19939,14.036126 19.90566,19.453686 4.7506,3.83769 6.88716,5.89372 12.17083,11.71209 1.36485,1.50297 1.95308,1.85621 4.19403,2.5186 6.17423,1.82501 17.37358,6.57195 21.37324,9.05923 1.35317,0.8415 2.75866,1.53 3.1233,1.53 0.7812,0 4.91896,4.06278 6.49698,6.37926 4.45989,6.54696 2.84896,16.17924 -3.41305,20.40769 -1.08063,0.7297 -3.6052,2.16642 -5.61017,3.19272 -2.00497,1.0263 -3.73263,2.09331 -3.83924,2.37113 -0.29742,0.77507 0.438,1.89439 4.79023,7.29078 7.66828,9.50798 12.56701,16.25223 13.59907,18.72229 0.3104,0.74291 1.33964,2.40089 2.2872,3.68441 6.74558,9.13727 20.30377,37.7119 25.54582,53.83922 3.84924,11.84231 5.59807,20.35634 6.79462,33.07905 0.75168,7.99239 1.09293,34.55985 0.52965,41.2346 -1.0906,12.9234 -5.10596,26.91334 -11.47677,39.98636 -3.79735,7.79221 -7.13296,12.9188 -14.1164,21.69583 -1.77535,2.23132 -4.24664,5.40551 -5.49176,7.05375 -1.24513,1.64824 -3.00636,3.81669 -3.91385,4.81877 -0.90749,1.00208 -2.43634,2.98727 -3.39746,4.41153 -2.07151,3.06975 -7.61593,8.45483 -10.42809,10.1284 -1.78733,1.06367 -2.38091,1.21656 -5.63826,1.45222 -2.00235,0.14486 -4.02697,0.46666 -4.49916,0.7151 -0.4722,0.24844 -2.48706,2.01503 -4.47749,3.92576 -4.4453,4.26731 -7.7404,6.90579 -12.88675,10.31879 -7.99438,5.30177 -16.14294,9.20363 -21.49892,10.29454 -3.6728,0.74808 -13.36667,1.03172 -18.43982,0.53954 -2.32834,-0.22588 -5.97959,-0.74309 -8.11389,-1.14934 -4.12168,-0.78454 -7.44832,-0.77673 -15.69861,0.0369 -8.77727,0.86555 -21.45096,-1.41398 -32.01937,-5.7591 -2.08317,-0.85648 -6.13672,-2.67837 -9.00789,-4.04865 -3.43888,-1.64122 -5.27074,-2.34607 -5.36807,-2.06548 -0.0813,0.23426 -0.63589,3.28343 -1.23252,6.77593 -1.18486,6.93598 -1.77168,9.46604 -2.88684,12.44656 -0.88879,2.37552 -0.85234,2.41752 3.29707,3.7994 2.6453,0.88097 9.36098,4.13298 11.23428,5.44011 0.48507,0.33847 2.9457,1.77514 5.46806,3.1926 10.13388,5.69481 13.55952,8.11885 15.78716,11.17126 3.18138,4.35925 6.4339,12.57131 7.86157,19.84913 1.0264,5.23226 1.61327,6.93193 2.9929,8.66796 1.73528,2.18357 2.55242,4.86293 2.57948,8.45798 0.0421,5.59168 -1.87725,9.45247 -6.02048,12.1104 -8.05318,5.16621 -39.80564,11.80528 -70.64924,14.77195 -9.21394,0.88623 -32.02944,0.88905 -38.53184,0.005 -6.8191,-0.92737 -13.39249,-2.206 -22.14594,-4.30776 -11.01795,-2.64547 -13.29722,-2.95519 -33.86667,-4.60196 -19.12277,-1.53095 -37.32234,-4.43932 -42.96232,-6.86558 -2.14383,-0.92225 -4.91848,-3.71312 -6.16602,-6.20208 -1.40409,-2.80129 -1.82653,-5.21289 -1.81788,-10.37777 0.009,-5.39768 0.37079,-7.97459 2.10308,-14.98126 1.40215,-5.67137 1.48631,-6.85733 0.54388,-7.66427 -0.96505,-0.82629 -1.37087,-3.3066 -1.98028,-12.10309 -0.66487,-9.597 -1.33451,-15.52671 -2.45013,-21.69583 -0.47368,-2.61937 -0.96217,-5.55625 -1.08552,-6.52639 -0.56485,-4.44257 -0.88413,-4.86949 -4.09745,-5.47888 -2.82597,-0.53593 -4.1423,-0.1563 -4.78492,1.38001 -1.01492,2.42635 -2.02678,9.37686 -3.62682,24.91276 -0.89847,8.72389 -2.1765,13.62461 -4.02375,15.42944 -0.64799,0.63311 -1.29044,1.66965 -1.42765,2.30342 -0.13721,0.63377 -0.37279,5.55502 -0.5235,10.93611 -0.24783,8.84897 -0.34826,9.97678 -1.05105,11.80338 -2.05937,5.35247 -10.49465,13.81896 -19.02556,19.09597 -8.37753,5.18213 -13.33603,6.45799 -30.39077,7.81979 -11.54722,0.92203 -12.98777,1.20922 -17.57803,3.50443 -5.03643,2.5183 -14.63348,5.2379 -21.75669,6.16538 -7.80692,1.01651 -30.4203,1.37937 -44.27362,0.71043 z m 37.02923,-21.17343 c 6.89005,-0.70867 23.72471,-6.5747 30.42452,-10.6014 1.59719,-0.95995 3.22831,-1.82676 3.62469,-1.92624 0.39638,-0.0995 1.51245,0.18099 2.48016,0.62327 1.63845,0.74885 2.20834,0.80216 8.28585,0.77504 12.99754,-0.058 18.56234,-2.03093 25.49817,-9.04011 5.78982,-5.85105 5.97841,-6.3545 5.49515,-14.67008 -0.54135,-9.31526 -1.29414,-14.82979 -2.31971,-16.9929 l -0.91993,-1.94028 0.93069,-9.14575 c 0.62687,-6.16021 1.07762,-9.23814 1.3808,-9.42875 0.82658,-0.5197 2.15122,0.1493 5.72321,2.89049 2.39466,1.83768 2.92166,1.1694 2.98201,-3.78143 0.0756,-6.19923 1.42232,-12.31428 5.1529,-23.39706 2.74168,-8.145 3.46608,-10.8028 3.21062,-11.7797 -0.32347,-1.23695 0.15528,-2.25284 1.28153,-2.71935 0.86379,-0.35779 3.61289,-0.373 13.63945,-0.0755 17.04165,0.50568 20.7116,0.22265 33.3112,-2.56902 3.27399,-0.72541 6.26584,-1.19326 7.23195,-1.13089 1.51374,0.0977 1.65704,0.18705 1.76148,1.09786 0.13773,1.20122 -0.35489,1.85944 -1.62746,2.17455 -0.52562,0.13016 -2.06223,1.04193 -3.4147,2.02617 -3.36833,2.45127 -5.06809,3.30283 -9.08137,4.54966 -1.89367,0.58832 -3.53749,1.22251 -3.65294,1.40931 -0.11545,0.1868 0.35655,2.13823 1.0489,4.3365 2.35075,7.46392 3.40035,13.23532 4.78358,26.30334 0.39971,3.7763 0.84922,6.98847 0.99891,7.13816 0.14969,0.14969 0.87256,-0.15504 1.60638,-0.67716 1.03496,-0.73638 1.85383,-0.9824 3.65075,-1.09682 l 2.31653,-0.14751 -0.24186,6.48228 c -0.3228,8.65165 -1.08141,16.6991 -2.14082,22.71005 -1.19835,6.79922 -2.20992,13.8856 -2.49277,17.4625 -0.21033,2.6599 -0.16286,3.06467 0.42026,3.58346 0.93008,0.82747 4.56057,1.84352 12.29903,3.44209 9.77173,2.01859 12.84645,2.32306 23.45973,2.32306 9.72056,0 10.24457,-0.0691 12.38081,-1.63236 0.867,-0.63445 2.24636,-0.10252 4.17432,1.60978 1.49724,1.32976 2.0462,1.58982 3.79823,1.79932 1.12641,0.1347 2.56557,0.55804 3.19813,0.94076 1.58254,0.95749 19.80251,5.4142 24.77906,6.0611 13.05686,1.69725 29.14735,1.52874 32.00724,-0.3352 1.5773,-1.02801 2.03695,-2.5067 2.02149,-6.50312 -0.0129,-3.33669 -0.1454,-4.08704 -1.33553,-7.5635 -1.64133,-4.7944 -2.18474,-5.70461 -5.41186,-9.06474 -1.94634,-2.02657 -2.58689,-2.93609 -2.58689,-3.67317 0,-1.34084 1.6282,-4.04026 2.43695,-4.04026 1.13739,0 7.44082,6.702 7.44082,7.91131 0,0.24179 0.635,1.00967 1.41111,1.70639 0.77612,0.69673 1.41112,1.59224 1.41112,1.99002 0,0.39778 0.39594,0.98267 0.87988,1.29976 1.33799,0.87668 2.26617,4.38872 2.69559,10.19946 0.20074,2.71639 0.51737,5.31916 0.70361,5.78393 0.32893,0.82081 0.42161,0.83913 3.23325,0.63907 5.18409,-0.36887 14.84356,-1.67339 16.79443,-2.2681 2.45471,-0.7483 4.03035,-2.30808 4.59441,-4.54817 0.23661,-0.93968 0.57336,-4.0931 0.74832,-7.00761 0.52222,-8.69901 0.81375,-9.66542 2.76858,-9.1777 2.65972,0.66358 3.59661,3.70406 3.83121,12.43345 0.0952,3.541 0.20419,6.43819 0.24229,6.43819 0.0381,0 0.85213,-0.23141 1.80898,-0.51425 0.95685,-0.28283 3.16847,-0.761 4.91472,-1.06258 3.4903,-0.60279 5.99621,-1.34002 8.03434,-2.36366 l 1.33155,-0.66877 -0.18778,-2.19329 c -1.07385,-12.5429 -1.30915,-13.64945 -3.54195,-16.65717 -0.43212,-0.58209 -1.05259,-1.6345 -1.37883,-2.3387 -0.74247,-1.60263 -3.97143,-4.83315 -5.45381,-5.45645 -0.61344,-0.25793 -1.86519,-1.09706 -2.78166,-1.86472 -0.91646,-0.76767 -3.01568,-1.951 -4.66491,-2.62963 -4.74056,-1.95065 -17.4947,-6.12684 -21.09544,-6.90745 -1.80409,-0.39111 -3.73082,-1.03202 -4.28164,-1.42423 -0.59309,-0.42232 -2.06068,-0.86274 -3.599,-1.08004 -1.45154,-0.20505 -3.58776,-0.82954 -4.842,-1.4155 -1.23446,-0.57671 -2.51954,-1.04856 -2.85574,-1.04856 -0.77758,0 -1.56444,0.88525 -2.23872,2.51868 -1.13706,2.7545 -4.22089,5.24243 -6.49807,5.24243 -1.59941,0 -4.21775,-1.02219 -5.36609,-2.0949 l -1.04073,-0.97219 -0.41046,0.99092 c -0.76961,1.858 -5.17686,5.38054 -7.65821,6.12091 -2.24806,0.67076 -7.14168,-2.17221 -7.14168,-4.14898 0,-1.39656 1.566,-2.4345 3.51936,-2.33262 2.6527,0.13835 3.50551,-0.002 4.19321,-0.6896 0.36136,-0.36136 1.3957,-2.55588 2.29852,-4.8767 3.52135,-9.05206 5.04715,-9.58593 8.47934,-2.96687 0.86485,1.66789 1.82081,3.35003 2.12435,3.73809 0.53998,0.69034 0.56303,0.69115 1.06865,0.0377 0.28423,-0.36731 1.17934,-2.66918 1.98915,-5.11528 0.80981,-2.44609 1.78061,-5.06136 2.15733,-5.8117 l 0.68494,-1.36426 1.93339,0.16033 c 1.61592,0.13401 2.35832,0.45575 4.52125,1.95943 1.42332,0.9895 2.68371,1.70324 2.80085,1.5861 0.44355,-0.44355 0.18923,-11.72905 -0.36452,-16.17533 -0.89914,-7.21963 -0.28388,-8.6899 2.54517,-6.08217 0.93622,0.86298 1.71283,1.33072 1.89421,1.14085 0.61887,-0.64785 1.429,-4.21452 1.79985,-7.92404 0.2706,-2.70675 0.2719,-5.1621 0.004,-8.5082 -0.50092,-6.26822 -1.04402,-9.2187 -3.44536,-18.71761 -2.65631,-10.50746 -2.54387,-10.63636 4.38364,-5.02504 1.7892,1.44927 3.35666,2.63503 3.48324,2.63503 0.12658,0 0.1467,-2.34156 0.0447,-5.20347 -0.21383,-6.00088 -1.03468,-9.87086 -2.85802,-13.47445 -0.6435,-1.2718 -1.2672,-2.93031 -1.38598,-3.68558 -0.14707,-0.93512 -0.59554,-1.72296 -1.40571,-2.46945 -1.48037,-1.364 -6.11566,-7.57317 -7.63183,-10.22317 -1.6748,-2.92724 -1.46232,-3.71061 1.29701,-4.78165 1.21927,-0.47326 2.20486,-1.07244 2.20486,-1.34043 0,-1.39405 -3.1384,-5.91638 -10.71687,-15.44263 -3.08712,-3.88056 -5.74374,-7.22455 -5.9036,-7.4311 -0.1627,-0.21022 0.16335,-1.95303 0.74064,-3.95894 2.35396,-8.1792 2.26291,-15.81278 -0.35223,-29.53276 -1.88155,-9.87127 -1.80144,-12.17026 0.4241,-12.17026 1.27172,0 2.92686,1.55527 5.16929,4.85741 4.30901,6.34528 5.17154,5.82906 5.16887,-3.09352 -0.002,-6.84003 -0.49993,-9.10076 -3.53505,-16.05139 -1.01671,-2.32833 -1.95724,-4.59052 -2.09007,-5.02708 -0.35677,-1.17256 0.0788,-2.14538 1.22632,-2.73878 1.39425,-0.72099 1.57566,-2.03543 1.05591,-7.65058 -0.65237,-7.04795 -1.33683,-9.15591 -5.13916,-15.82723 -1.05773,-1.85583 -1.92315,-3.64569 -1.92315,-3.97748 0,-0.72408 1.34457,-1.29135 3.06084,-1.29135 h 1.25102 l -0.23718,-1.32292 c -1.86537,-10.40483 -8.93459,-31.83819 -10.50096,-31.83819 -0.26123,0 -1.4225,0.96363 -2.58059,2.14141 -1.1581,1.17778 -2.82,2.62611 -3.69313,3.21853 -0.87312,0.59241 -2.41134,1.98471 -3.41826,3.09398 -3.63621,4.00585 -11.29303,9.9242 -20.04146,15.49107 -8.00482,5.09368 -11.281,6.3939 -16.11087,6.3939 -2.82429,0 -4.16695,-0.64486 -6.96302,-3.34424 l -2.38119,-2.29885 -2.61829,1.99205 c -1.44006,1.09563 -3.2533,2.28243 -4.02941,2.63734 -0.77611,0.35491 -2.4297,1.51693 -3.67465,2.58227 -3.48986,2.98637 -16.04317,11.19241 -20.71388,13.54056 -5.26113,2.64498 -9.61474,4.4364 -12.15077,4.99979 -2.49147,0.55348 -4.61683,0.13641 -8.15986,-1.60125 -3.14609,-1.54298 -3.45745,-1.78471 -4.30083,-3.33913 -0.36818,-0.6786 -0.90872,-1.51163 -1.2012,-1.85118 -0.95955,-1.11399 -1.36242,-0.99437 -10.17212,3.02031 -2.3549,1.07316 -5.80736,2.45454 -7.67213,3.06973 -1.86477,0.6152 -3.47659,1.25785 -3.58182,1.42812 -0.25754,0.4167 -6.2596,2.24174 -10.35821,3.1496 -5.64001,1.2493 -12.38125,2.11571 -16.48032,2.11812 -3.7723,0.002 -4.01367,-0.0441 -6.35,-1.21867 -3.19269,-1.60509 -5.86703,-4.00159 -7.75845,-6.9524 -0.8444,-1.31734 -1.87222,-2.59693 -2.28405,-2.84353 -0.41182,-0.2466 -1.54311,-1.61712 -2.51396,-3.0456 l -1.76519,-2.59724 -0.87222,1.5389 c -1.24225,2.19178 -1.69823,2.63307 -5.01142,4.85 -5.12459,3.42897 -5.39209,3.55248 -8.21072,3.79074 -7.07922,0.59841 -14.11537,-3.97494 -29.77363,-19.35224 -3.1166,-3.06068 -5.82794,-5.56487 -6.0252,-5.56487 -0.19727,0 -1.60186,0.70847 -3.12133,1.57438 -2.96154,1.6877 -4.93858,2.17072 -7.46669,1.8242 -3.48573,-0.47777 -10.22045,-3.95932 -12.88655,-6.66177 -0.90924,-0.92164 -1.97151,-1.6757 -2.36062,-1.6757 -0.41545,0 -1.32135,-0.72804 -2.19479,-1.76389 -0.81803,-0.97014 -1.68393,-1.76389 -1.9242,-1.76389 -1.09712,0 -10.149,-7.19191 -17.09158,-13.57961 -4.13317,-3.80284 -6.75286,-5.82316 -7.55071,-5.82316 -1.27613,0 -3.88124,7.61695 -6.87735,20.10833 -2.64135,11.01234 -4.08242,19.43535 -4.4808,26.19021 l -0.24426,4.14159 1.28628,0.53745 c 1.17071,0.48915 1.28629,0.6621 1.28629,1.92484 0,0.84662 -0.7047,3.14798 -1.80795,5.90429 -2.14049,5.34773 -3.44955,10.31241 -4.68232,17.75792 -1.63903,9.89922 -1.87691,16.45653 -0.64178,17.69165 0.20764,0.20764 1.17202,-0.31262 2.57308,-1.38812 1.63977,-1.25874 2.51388,-2.25623 3.25825,-3.71813 0.61304,-1.20399 1.92823,-2.85004 3.30974,-4.14238 1.9425,-1.81711 2.46231,-2.12801 3.40492,-2.03649 1.06955,0.10384 1.11194,0.16922 1.09929,1.6955 -0.007,0.87313 -0.30731,5.08 -0.66683,9.34861 -0.35952,4.26862 -0.6711,10.06937 -0.6924,12.89058 l -0.0387,5.12946 1.49931,2.87831 c 1.02898,1.9754 1.49931,3.31777 1.49931,4.27923 0,2.78269 -2.49782,8.77459 -10.43668,25.03608 -2.60302,5.33187 -4.73277,9.7724 -4.73277,9.86784 0,0.19187 5.68727,-0.16865 7.98499,-0.50616 l 1.45859,-0.21426 -0.33873,1.86366 c -0.38557,2.12137 -1.89112,6.41348 -6.92348,19.73776 -3.59629,9.52198 -4.67534,13.40642 -6.02688,21.69584 -1.03492,6.34752 -1.22024,8.52301 -0.75074,8.81317 0.2422,0.14969 2.37105,-1.74199 5.34032,-4.74538 3.17813,-3.21466 5.15092,-4.95376 5.53633,-4.88052 0.96456,0.18329 0.92838,3.26353 -0.0981,8.35458 -1.7134,8.49765 -2.00744,11.66438 -2.19868,23.67898 -0.26306,16.52772 0.42867,22.99619 3.31062,30.95821 0.89506,2.47278 1.73526,4.61888 1.86711,4.76913 0.23628,0.26921 2.74761,-1.4494 4.7311,-3.23769 0.55881,-0.50382 1.85698,-2.04294 2.88481,-3.42027 2.94187,-3.9422 4.74012,-4.23199 7.56445,-1.21904 0.87312,0.93144 2.20746,2.8646 2.9652,4.2959 1.79041,3.38196 4.82576,8.07436 6.75506,10.44279 l 1.53034,1.87864 1.504,-2.21369 c 0.8272,-1.21754 2.463,-4.03933 3.63511,-6.27064 1.88267,-3.58399 2.24786,-4.07031 3.13246,-4.17159 1.27167,-0.14558 2.04356,0.53787 4.00038,3.54209 2.16214,3.31942 3.64096,6.58518 3.63974,8.03783 -0.001,1.66742 -1.16629,3.53105 -2.19808,3.51656 -0.98725,-0.0139 -1.61822,-0.48312 -3.2076,-2.38548 l -1.24234,-1.48699 -0.92891,2.029 c -1.02226,2.2329 -2.0133,3.45219 -3.35758,4.13088 -4.30408,2.17298 -10.62008,-0.55129 -15.09181,-6.50953 -3.94531,-5.25682 -4.15011,-5.35444 -6.71713,-3.20179 -2.77581,2.32774 -10.02958,5.66535 -12.33464,5.67542 -1.54003,0.007 -4.31724,0.86369 -6.68802,2.06371 -1.21133,0.61314 -3.11633,1.35162 -4.23333,1.64106 -1.117,0.28945 -2.42778,0.83532 -2.91285,1.21305 -2.34879,1.82903 -5.99372,4.12555 -9.49856,5.98466 -2.12726,1.12838 -4.5907,2.68797 -5.47431,3.46576 -0.88362,0.77779 -2.08308,1.50946 -2.66546,1.62594 -0.63524,0.12705 -1.05889,0.43261 -1.05889,0.76373 0,0.30357 -1.04619,1.66587 -2.32486,3.02732 -2.68715,2.86113 -5.15214,7.60433 -5.96102,11.47036 -0.54213,2.59108 -0.41611,3.87303 0.57562,5.85589 0.57191,1.14347 0.94498,1.39843 2.95469,2.01916 1.91125,0.59033 6.66365,1.57367 11.18681,2.31473 1.35197,0.2215 1.68264,-0.60049 1.68264,-4.18278 0,-4.00227 0.60345,-8.13914 1.48776,-10.19922 0.82276,-1.9167 2.41654,-3.43144 3.61049,-3.43144 1.12436,0 1.24797,0.88724 1.27167,9.12812 0.0235,8.1624 0.23761,9.11418 2.20242,9.78927 2.49626,0.8577 8.50958,1.56806 15.11509,1.78556 l 6.5777,0.21659 0.22356,-3.49241 c 0.41967,-6.55604 1.74281,-10.59273 4.35355,-13.28199 1.09333,-1.12622 1.51081,-1.32292 2.80776,-1.32292 2.43747,0 2.58758,0.78629 1.16132,6.0835 -1.4127,5.24685 -1.67866,10.38665 -0.62105,12.00194 0.73025,1.11531 2.93413,1.83976 7.14168,2.34759 3.62822,0.43791 24.52107,0.19208 29.79728,-0.35061 z m 380.46163,-99.82619 c 5.36793,-1.08804 7.91969,-1.96355 9.18947,-3.15289 1.014,-0.94976 4.41935,-2.46805 5.54466,-2.47212 0.80412,-0.003 0.98941,-0.19135 1.17834,-1.19845 0.12431,-0.66262 0.51785,-1.33057 0.88334,-1.4993 1.15698,-0.53412 6.32731,-5.44006 9.46761,-8.98349 2.08617,-2.35396 4.53176,-5.82096 7.80128,-11.0595 2.61938,-4.19685 5.44115,-8.53692 6.27061,-9.64459 0.92318,-1.23283 1.78398,-2.93698 2.21938,-4.3938 0.78981,-2.64263 3.24708,-6.52086 4.62045,-7.29231 1.43604,-0.80666 2.05931,-0.31114 2.05704,1.6354 -0.003,2.13918 -0.17005,2.76946 -3.4156,12.84806 -1.50975,4.68833 -2.58624,8.59744 -2.45892,8.92923 0.20969,0.54644 0.30806,0.54282 1.32784,-0.0488 1.57363,-0.91292 6.69758,-6.41302 9.63316,-10.34034 4.95269,-6.62585 8.32501,-13.03296 11.51222,-21.87222 2.18177,-6.05082 3.55606,-8.91626 4.64066,-9.67594 1.11978,-0.78433 1.51915,-0.70254 2.69073,0.55104 0.56833,0.60812 1.19354,1.00665 1.38935,0.88563 0.77113,-0.47658 3.00741,-10.32261 3.81061,-16.77753 1.40472,-11.28901 0.8709,-22.98629 -1.82061,-39.89431 -1.14064,-7.16543 -2.36942,-12.58968 -4.05964,-17.92055 -1.74238,-5.49537 -1.74629,-5.71556 -0.10149,-5.71556 1.14069,0 1.60805,0.34036 4.46311,3.25031 l 3.18899,3.25032 -0.249,-1.39823 c -0.13696,-0.76903 -0.80538,-3.67991 -1.48539,-6.46863 -5.69171,-23.34185 -21.41542,-54.54217 -39.50032,-78.37989 -4.86706,-6.41528 -7.41001,-9.27384 -16.93041,-19.03166 -4.44871,-4.55965 -8.60426,-9.07156 -9.23455,-10.02645 -1.48407,-2.24837 -1.5483,-3.84474 -0.17586,-4.37121 1.44598,-0.55468 5.83912,-1.34 13.11318,-2.34412 3.99012,-0.55081 6.71359,-1.09095 7.05556,-1.39934 0.30632,-0.27624 1.46977,-0.84327 2.58543,-1.26008 1.11566,-0.4168 2.02847,-0.87094 2.02847,-1.0092 0,-0.50831 -2.08893,-1.43501 -8.41786,-3.7344 -7.24494,-2.63218 -17.02828,-5.76537 -21.56825,-6.9074 -10.48971,-2.63868 -21.16667,-7.26832 -21.16667,-9.17809 0,-1.00406 1.40935,-1.5177 6.65614,-2.42584 2.3997,-0.41536 4.69206,-0.93125 5.09413,-1.14644 l 0.73105,-0.39124 -0.76937,-0.62299 c -0.42315,-0.34265 -2.00113,-1.13437 -3.50663,-1.75937 -8.44191,-3.50465 -14.87482,-8.14817 -15.99649,-11.54686 -0.34854,-1.0561 -0.31427,-1.30256 0.25462,-1.83086 0.36156,-0.33576 1.33207,-0.80112 2.15669,-1.03412 0.82462,-0.23301 1.49931,-0.56369 1.49931,-0.73486 0,-0.31103 -0.54982,-0.96999 -6.54854,-7.84849 -3.74285,-4.291765 -7.28303,-8.938225 -11.54919,-15.158215 -3.43328,-5.00565 -6.27298,-8.292698 -6.85393,-7.933651 -0.4961,0.30661 -1.04275,3.801111 -1.50729,9.635561 -0.99697,12.521535 -4.46193,26.397615 -11.23419,44.989365 -4.25075,11.66951 -6.18268,15.32226 -10.17377,19.23584 -2.09785,2.0571 -3.43628,2.57416 -6.63726,2.56409 -3.17186,-0.01 -5.08198,-0.58347 -7.08165,-2.12621 -0.99163,-0.76504 -2.04967,-1.39098 -2.3512,-1.39098 -0.92799,0 -2.7398,2.42422 -4.40664,5.89611 -1.05908,2.20599 -1.99441,3.63137 -2.7986,4.26488 -0.66434,0.52333 -1.4937,1.58651 -1.84303,2.36263 -0.91932,2.04247 -4.44495,6.57493 -7.94158,10.2095 -1.66883,1.73467 -3.03424,3.3465 -3.03424,3.58185 0,0.62758 -8.94603,9.12003 -14.00451,13.29447 -5.09495,4.20452 -4.82221,2.87922 -2.35116,11.42491 4.0966,14.16739 6.57065,23.62408 7.36831,28.16427 1.83098,10.42165 3.92048,29.46589 4.28696,39.07247 l 0.22552,5.91136 2.20151,-3.29213 c 2.5336,-3.78873 4.00179,-5.1792 5.46871,-5.1792 2.01529,0 1.90246,1.45893 -0.90636,11.71968 -2.52889,9.23813 -3.71232,15.40144 -3.9477,20.55948 l -0.19317,4.23334 4.01275,-3.9235 c 4.27508,-4.18 5.4102,-4.88086 6.18624,-3.81956 0.67516,0.92334 0.76925,1.87686 1.16439,11.8 0.19702,4.94771 0.61274,10.98021 0.92383,13.40556 0.91758,7.15382 0.33793,13.05277 -1.28261,13.05277 -0.19582,0 -1.64649,0.49766 -3.22372,1.1059 -3.76189,1.45074 -5.29562,2.99316 -7.6472,7.69052 -1.5219,3.04004 -1.80957,3.92398 -1.80957,5.56029 0,4.14329 2.29904,10.6514 7.95133,22.50857 2.69578,5.65511 4.28109,9.48251 4.94625,11.94173 0.25455,0.94114 0.7122,1.98672 1.01699,2.32351 0.30685,0.33906 0.69734,1.75259 0.87497,3.1673 0.17645,1.40522 0.56012,2.82027 0.8526,3.14454 0.29248,0.32427 0.88407,1.54209 1.31464,2.70626 1.17064,3.16513 4.82676,6.58484 11.1029,10.38498 2.70385,1.63717 5.60496,3.50248 6.4469,4.14514 0.84194,0.64267 1.75248,1.16849 2.02342,1.16849 0.27094,0 3.31472,1.24948 6.76395,2.77664 7.14565,3.16374 7.84576,3.41046 11.13142,3.92273 3.55807,0.55474 13.91727,0.46758 18.63517,-0.15679 7.11277,-0.9413 11.09739,-2.1899 20.42557,-6.40042 2.37353,-1.07136 3.43604,-1.35594 5.09706,-1.36519 1.90782,-0.0106 2.14657,0.0733 2.62829,0.92392 0.91882,1.6225 0.20572,3.4175 -1.90452,4.79405 -1.854,1.20941 -2.52385,2.15588 -2.17295,3.0703 0.31096,0.81035 2.13893,0.69242 8.14853,-0.52568 z m -76.65881,-42.51192 c -1.24004,-1.57647 -1.5994,-8.1155 -0.76798,-13.97463 l 0.48382,-3.40948 -1.51824,-2.51276 -1.51823,-2.51276 1.6205,-2.36804 c 1.91874,-2.80384 2.92224,-5.06206 3.63894,-8.18886 1.58849,-6.93016 4.05776,-13.83685 6.19922,-17.33955 1.61597,-2.64319 4.91861,-3.55855 5.43376,-1.50603 0.35632,1.41967 -0.13021,3.62032 -3.25007,14.70075 -2.042,7.25233 -3.14402,11.8633 -3.50837,14.67937 -0.72356,5.59251 -2.53756,16.29777 -3.22615,19.03909 -0.51652,2.05628 -1.86249,4.29303 -2.58333,4.29303 -0.1627,0 -0.61444,-0.40506 -1.00387,-0.90013 z m -469.33135,35.95556 c 1.54989,-0.41535 0.66842,-1.64927 -2.44639,-3.42456 -1.89408,-1.07953 -3.1224,-2.61327 -3.2193,-4.0198 -0.0541,-0.78476 0.17062,-1.09452 1.16777,-1.60987 1.81895,-0.94008 3.34689,-0.59095 7.28566,1.6648 1.91074,1.09428 4.90281,2.44 6.64906,2.99048 1.74625,0.55048 3.81,1.26886 4.58612,1.5964 1.92105,0.81073 8.14089,1.83301 14.12787,2.32203 5.66689,0.46287 9.25904,0.18236 16.3874,-1.27966 5.79193,-1.18792 8.70624,-2.34986 15.03701,-5.9953 2.88625,-1.66197 6.51772,-3.6611 8.06994,-4.44249 1.55222,-0.7814 3.8541,-2.24981 5.11528,-3.26313 1.26118,-1.01333 3.52097,-2.74033 5.02177,-3.83779 1.52839,-1.11765 3.14987,-2.65553 3.68614,-3.4961 1.71183,-2.6832 5.39554,-11.16089 6.47922,-14.9113 0.58173,-2.01322 1.44506,-4.68956 1.91852,-5.94744 2.00646,-5.33068 4.06101,-15.57661 4.06101,-20.25206 0,-8.78035 -5.10327,-16.22622 -12.64852,-18.45466 -0.84482,-0.24952 -1.61398,-0.65679 -1.70925,-0.90507 -0.0953,-0.24827 0.009,-2.00413 0.23083,-3.9019 0.22222,-1.89778 0.54673,-10.27676 0.72111,-18.61995 0.19062,-9.11945 0.4737,-15.70484 0.70981,-16.51186 0.78772,-2.69254 1.88274,-2.14501 6.00137,3.00079 1.59943,1.99831 2.98542,3.71267 3.07999,3.80968 0.0946,0.097 0.0898,-2.76049 -0.0105,-6.35 -0.25543,-9.1353 -1.81215,-17.90178 -4.66704,-26.28194 -1.98159,-5.8167 -2.07903,-8.29028 -0.32656,-8.29028 1.94475,0 3.93716,1.74298 7.38262,6.45837 1.43348,1.96184 1.80019,2.28473 2.00332,1.76389 0.13674,-0.35065 0.81988,-4.76504 1.51808,-9.80976 2.29735,-16.59923 5.2072,-31.72497 7.43139,-38.62917 1.49437,-4.63875 4.38899,-15.76955 4.39215,-16.88935 0.002,-0.61043 -1.12311,-1.91764 -4.14278,-4.81445 -6.11262,-5.86394 -15.82466,-17.15465 -17.55069,-20.40352 -0.77611,-1.46086 -2.78446,-4.68902 -4.463,-7.1737 -1.67854,-2.48467 -4.03658,-6.26384 -5.24008,-8.39815 -3.68097,-6.52784 -5.39414,-9.31309 -5.83164,-9.48098 -0.23006,-0.0883 -1.27281,0.54044 -2.31721,1.39716 -2.14425,1.75892 -3.24649,2.0866 -7.0189,2.0866 -4.02313,0 -3.87563,0.0754 -8.70563,-4.4511 -1.66334,-1.55883 -7.3936,-16.40526 -9.78763,-25.35862 -2.07061,-7.74379 -2.68854,-9.55245 -4.27873,-12.52361 -3.20708,-5.99225 -3.97101,-10.582175 -4.51573,-27.131696 l -0.40534,-12.315033 -13.40555,13.395174 c -26.35262,26.332205 -35.56008,35.788145 -35.19916,36.149065 0.59535,0.59535 5.67928,1.29257 11.21027,1.5374 6.01133,0.26609 7.42034,0.5748 7.71188,1.68962 0.52717,2.01592 -1.20662,3.05835 -14.59105,8.77279 -16.66824,7.11644 -30.20379,14.10519 -34.39583,17.75946 -0.58209,0.50741 -3.10302,2.61008 -5.60208,4.6726 -4.93997,4.07709 -7.97987,6.96284 -7.97987,7.57535 0,0.68365 7.98977,-0.0904 22.85228,-2.21383 2.77035,-0.39581 5.35004,-0.6203 5.73264,-0.49887 2.01813,0.64053 -0.11968,3.64051 -9.67672,13.57929 -5.75714,5.98709 -7.46728,7.94752 -9.77571,11.20643 -1.20017,1.69432 -2.99189,3.9674 -3.98159,5.0513 -0.9897,1.08389 -2.3551,3.03886 -3.0342,4.34437 -0.6791,1.30551 -1.7507,2.84347 -2.3813,3.4177 -0.6951,0.633 -1.1465,1.38301 -1.1465,1.90502 0,0.48013 -0.292,1.01723 -0.66,1.21421 -0.363,0.19428 -1.3207,1.58893 -2.1281,3.09922 -0.8074,1.51029 -2.0807,3.61911 -2.8294,4.68626 -0.7487,1.06716 -2.6745,4.40091 -4.2795,7.40834 -1.605,3.00743 -3.3478,6.10305 -3.873,6.87916 -4.1729,6.16718 -14.882,34.29037 -16.7524,43.99354 -0.3102,1.60925 -0.7926,3.98912 -1.0722,5.2886 -0.6714,3.12153 -0.6583,4.83377 0.039,5.10134 0.7361,0.28246 2.1603,-1.10629 2.9417,-2.86841 0.7735,-1.74443 1.5158,-2.3923 2.5684,-2.24145 1.7851,0.25584 2.1275,3.02516 1.0174,8.22916 -0.3725,1.74625 -1.0836,5.08 -1.5802,7.40833 -2.7499,12.89453 -3.5728,26.33748 -2.3106,37.74723 1.2788,11.55939 4.7895,26.28194 6.267,26.28194 0.1747,0 0.6022,-0.31439 0.9499,-0.69865 0.7,-0.7735 2.5743,-1.24946 3.617,-0.91852 1.0088,0.3202 1.9329,2.24531 4.1631,8.67273 4.1487,11.95669 6.5954,16.42313 13.0264,23.78008 4.3372,4.96159 11.9768,11.11741 12.78911,10.30511 0.25115,-0.25116 -2.1827,-6.12622 -4.33561,-10.46587 -1.7112,-3.44903 -2.1786,-5.69547 -1.5694,-7.54148 0.5797,-1.7565 1.94332,-1.74253 3.91649,0.0401 1.30329,1.17744 6.94146,9.32575 8.7801,12.68904 0.40757,0.74553 1.37011,2.14926 2.13899,3.1194 0.76888,0.97013 1.49545,2.27871 1.61462,2.90793 0.20593,1.08739 0.80774,1.73232 3.6303,3.89034 0.57625,0.44058 1.09802,1.15434 1.1595,1.58613 0.0699,0.49128 0.57383,1.00482 1.34649,1.37229 0.6791,0.32298 2.23698,1.71266 3.46196,3.08818 1.22498,1.37553 2.47453,2.50096 2.77676,2.50096 0.30224,0 1.91936,0.78807 3.5936,1.75127 1.67424,0.9632 4.0902,2.14289 5.36881,2.62153 5.87013,2.19747 13.4595,3.52292 16.1079,2.81318 z m 65.07118,-42.55355 c -0.39945,-0.4813 -0.90591,-3.88795 -1.48138,-9.96438 -0.61846,-6.53023 -1.42004,-11.39001 -2.50021,-15.15805 -0.56745,-1.97948 -1.18675,-4.8218 -1.37623,-6.31627 -0.19758,-1.55832 -0.78674,-3.7272 -1.3814,-5.08533 -0.57029,-1.30247 -1.19925,-3.55875 -1.39769,-5.01396 -0.26567,-1.94813 -0.74892,-3.39004 -1.83263,-5.46805 -1.10581,-2.12039 -1.51708,-3.36311 -1.65382,-4.99722 -0.16664,-1.99157 -0.10509,-2.25189 0.72983,-3.08681 1.30389,-1.30389 2.24283,-1.15509 3.94931,0.62589 1.93818,2.0228 3.40947,5.62918 4.55043,11.15385 0.69776,3.37863 1.18816,4.85405 2.11062,6.35 0.71376,1.15749 1.30133,2.66492 1.44712,3.71262 0.53226,3.82493 2.81579,10.08787 4.94319,13.55747 1.72097,2.80677 1.89629,4.41204 0.67692,6.19809 -1.47752,2.16417 -1.85166,3.30919 -2.59512,7.94217 -0.37797,2.35543 -0.93932,4.66733 -1.24743,5.13757 -0.61767,0.94268 -2.30509,1.17926 -2.94151,0.41241 z m 189.4688,-122.30818 c 15.45568,-3.18013 33.07605,-10.36472 42.97705,-17.52361 3.06023,-2.21269 5.12028,-2.94615 8.2855,-2.94997 l 2.85461,-0.003 0.22636,6.7675 c 0.1245,3.72213 0.35906,6.9002 0.52125,7.06239 0.16219,0.16219 0.97156,0.0562 1.7986,-0.23565 3.1342,-1.10581 11.58976,-5.45986 13.7194,-7.06457 1.22133,-0.9203 2.87158,-1.81882 3.6699,-1.99819 0.95933,-0.21555 2.08866,-0.90905 3.33444,-2.04763 1.0361,-0.94693 3.51214,-2.80232 5.50232,-4.12308 6.30774,-4.18608 9.74869,-6.80939 18.43517,-14.0546 9.92004,-8.27409 10.76686,-8.94202 12.90739,-10.1807 2.01673,-1.16703 2.56987,-1.17385 3.08738,-0.038 0.77096,1.69208 0.45235,3.07027 -1.70852,7.39061 -2.17782,4.35422 -2.89291,6.52752 -2.14778,6.52752 1.52567,0 12.37992,-7.1351 17.84764,-11.73226 1.94028,-1.63134 6.95587,-6.52489 11.14576,-10.87455 8.99868,-9.34182 10.22701,-10.69699 13.89297,-15.32752 4.52537,-5.71608 5.74937,-6.86845 7.29537,-6.86845 1.86856,0 2.41592,0.91953 2.40916,4.04724 -0.003,1.36353 -0.32045,4.2126 -0.70556,6.33127 -0.84223,4.63352 -0.88255,5.84927 -0.194,5.84927 3.84409,0 18.41496,-14.12529 25.09007,-24.32281 4.42174,-6.75506 11.16919,-19.47227 14.53389,-27.39265 1.06766,-2.51322 2.85151,-8.90973 4.47365,-16.04153 1.36808,-6.01484 3.1755,-9.44085 4.6933,-8.89631 0.52651,0.1889 2.35956,5.86811 4.14106,12.82997 0.71643,2.79972 1.53799,5.40686 1.82569,5.79366 0.51335,0.6902 0.53852,0.68413 1.35342,-0.32626 1.71291,-2.12383 5.45663,-10.76086 7.05491,-16.27621 3.03614,-10.47708 4.65193,-24.413865 4.06726,-35.081749 -0.14356,-2.619375 -0.70507,-7.866131 -1.24781,-11.659458 -0.54274,-3.793327 -0.88241,-7.312868 -0.75483,-7.821203 0.30828,-1.228284 1.87461,-1.59159 3.512,-0.814598 0.65766,0.312084 1.98587,1.341115 2.95156,2.286735 1.17721,1.152745 2.26612,1.856723 3.30442,2.136308 0.85174,0.229349 2.9385,1.04283 4.63725,1.807736 5.13007,2.309946 9.38973,3.307128 12.10935,2.834784 2.13407,-0.370644 2.02431,-1.201429 -0.61912,-4.686397 -1.23384,-1.626635 -3.02097,-4.055265 -3.9714,-5.396955 -0.95043,-1.341689 -2.54414,-3.326064 -3.54156,-4.409722 -0.99743,-1.083657 -1.92634,-2.430796 -2.06426,-2.99364 -0.13792,-0.562845 -0.6443,-1.332919 -1.12531,-1.711276 -1.9096,-1.502091 -14.23467,-17.945065 -15.66372,-20.897096 -0.43052,-0.889335 -0.80556,-2.127265 -0.83342,-2.750957 -0.0806,-1.804051 1.30192,-1.721974 4.7168,0.280029 1.53868,0.902067 3.07984,1.586099 3.4248,1.520072 0.95117,-0.182061 1.20753,-4.193234 0.78259,-12.245067 -0.65829,-12.47358633 -3.32178,-23.847481 -7.88873,-33.687253 -0.85244,-1.83662 -1.79982,-4.184611 -2.10531,-5.217759 -0.30548,-1.033148 -1.27805,-2.989701 -2.16127,-4.347895 -2.84185,-4.370127 -3.32223,-8.023778 -1.15517,-8.785892 0.76122,-0.267708 1.36252,-0.107017 3.28039,0.876658 2.25048,1.15427 2.36829,1.177128 2.82785,0.54864 0.75788,-1.036456 0.99214,-4.177312 0.7663,-10.274158 -0.58956,-15.915919 -4.19082,-29.67338 -11.4058,-43.572193 -4.68377,-9.022754 -7.93749,-13.461834 -15.64381,-21.343054 -5.5864,-5.71318 -6.00457,-6.26872 -6.00457,-7.97695 0,-1.46162 0.68089,-2.15932 2.55764,-2.62074 0.53358,-0.13119 0.97014,-0.43253 0.97014,-0.66965 0,-1.834 -22.17587,-13.61882 -35.45417,-18.84125 -9.99559,-3.93132 -10.40694,-4.12918 -10.40694,-5.00574 0,-1.29416 1.06896,-2.84973 2.31648,-3.37098 1.38813,-0.58 1.57756,-1.43318 0.41624,-1.87472 -2.62423,-0.99773 -17.54096,-16.64235 -19.45124,-20.4004 -0.31898,-0.62754 -1.26816,-3.00879 -2.10928,-5.29167 -2.01358,-5.46503 -3.51401,-8.37522 -6.90818,-13.39891 -4.11823,-6.09535 -9.47209,-12.63547 -15.1804,-18.54394 -5.67674,-5.87579 -9.47098,-9.17386 -15.25706,-13.26192 -2.18634,-1.54472 -4.35631,-3.16767 -4.82214,-3.60654 -0.46583,-0.43888 -2.05333,-1.22416 -3.52777,-1.74507 -1.47445,-0.52092 -4.96637,-1.76763 -7.75982,-2.77049 -7.81197,-2.80451 -16.27396,-4.61523 -18.55711,-3.97089 -0.93635,0.26424 -1.04696,0.43468 -0.95963,1.47868 0.0543,0.64901 1.18717,3.49115 2.51752,6.31587 2.60878,5.53924 3.61301,8.32503 4.3948,12.19141 1.12315,5.55464 1.01879,9.39565 -0.26198,9.64231 -1.44207,0.27771 -2.64952,-0.54857 -7.05519,-4.82802 -2.54801,-2.47502 -6.66095,-6.12821 -9.13986,-8.11821 -2.47892,-1.99 -4.88276,-4.20384 -5.34187,-4.91963 -0.45911,-0.7158 -1.34816,-2.88895 -1.97567,-4.82922 -2.21352,-6.84437 -7.63731,-17.04729 -12.02873,-22.62779 -2.88287,-3.66347 -16.02507,-16.80208 -17.598,-17.59319 -0.6791,-0.34155 -1.80823,-1.13488 -2.50917,-1.76295 -0.70095,-0.62807 -2.42288,-1.74542 -3.82651,-2.48301 -1.40363,-0.73759 -2.97325,-1.86895 -3.48805,-2.51414 -0.5148,-0.64519 -1.13183,-1.17308 -1.37119,-1.17308 -0.23936,-1e-5 -2.41718,-0.79074 -4.83961,-1.75717 -5.45902,-2.17791 -8.88999,-3.09277 -9.4602,-2.52256 -0.54254,0.54255 0.1003,2.95736 1.68099,6.31454 0.66397,1.4102 1.38658,3.55332 1.60581,4.7625 0.21923,1.20918 0.68482,2.83351 1.03464,3.60962 0.34983,0.77611 0.89938,3.10674 1.22123,5.17917 0.32185,2.07242 0.90013,4.85055 1.28507,6.17361 0.91429,3.14246 1.22925,7.75537 0.6075,8.89732 -0.25374,0.46602 -0.7319,1.01625 -1.06257,1.22274 -0.98658,0.61605 -4.03472,-0.23755 -9.34415,-2.61674 -10.07268,-4.51364 -17.24141,-6.5227 -27.62546,-7.74215 -5.99953,-0.70455 -17.95139,-0.42723 -24.34167,0.56479 -15.81294,2.45481 -32.47874,8.52026 -44.09722,16.04899 -2.42534,1.57162 -5.91784,4.06238 -7.76111,5.53504 -3.97787,3.17807 -10.23055,9.23905 -10.23055,9.9169 0,0.59905 2.02847,0.32079 4.82396,-0.66175 4.51741,-1.58774 7.3274,-1.93686 15.63715,-1.9428 6.51845,-0.005 8.34744,0.10627 10.23055,0.62051 8.87461,2.42345 14.98551,5.3165 19.95508,9.44722 1.91473,1.59152 4.16008,3.18462 4.98968,3.54023 1.16743,0.50042 1.63233,0.95639 2.05684,2.01733 0.30166,0.75392 1.0318,1.72811 1.62253,2.16486 2.82802,2.09084 2.68853,6.71665 -0.23942,7.94003 -0.67747,0.28306 -3.3395,0.917 -5.91562,1.40875 -14.90798,2.84574 -32.80179,10.08265 -37.70381,15.24881 -1.23835,1.30508 -2.81626,4.57342 -3.8031,7.87742 -0.43464,1.45521 -1.32508,3.75708 -1.97876,5.11528 -0.65367,1.35819 -1.35785,3.14413 -1.56483,3.96875 -0.22799,0.90828 -0.57957,1.4993 -0.89191,1.4993 -0.87577,0 -1.92668,1.35172 -1.92668,2.47818 0,0.79681 -0.21092,1.14726 -0.83279,1.38369 -0.46121,0.17535 -1.31227,1.16621 -1.90738,2.22068 -0.59101,1.04723 -2.12126,3.0446 -3.40053,4.4386 -1.27928,1.39401 -2.32596,2.58529 -2.32596,2.64729 0,0.062 1.13409,-0.26763 2.52021,-0.73252 2.82762,-0.94835 3.90021,-0.84757 4.74784,0.44607 1.14122,1.74172 -0.44846,3.03977 -8.32639,6.79894 -13.06506,6.23434 -17.83547,8.73082 -22.04861,11.53862 -2.52236,1.681 -5.37986,3.46194 -6.35,3.95765 -1.68546,0.8612 -11.46528,9.70806 -11.46528,10.37152 0,0.17182 0.36654,0.3124 0.81452,0.3124 0.44799,0 1.12267,0.23104 1.49931,0.51344 0.67717,0.50773 0.67694,0.52723 -0.0208,1.7547 -0.38806,0.68269 -2.13431,2.40033 -3.88056,3.81697 -2.60557,2.11376 -3.64064,3.27008 -5.77133,6.44738 -11.27274,16.810012 -15.92997,29.476607 -17.35603,47.204422 -0.76794,9.546474 -0.10322,16.986453 1.69938,19.020729 0.84031,0.948303 1.11381,0.771742 2.03653,-1.314694 1.4123,-3.193452 4.27119,-8.034367 5.59369,-9.471687 2.36183,-2.566899 3.75221,-1.066515 3.02419,3.263462 -0.5926,3.52459 -2.0912,6.376391 -3.35073,6.376391 -0.2608,0 -0.48695,0.841857 -0.59809,2.226453 -0.20814,2.59298 -1.30574,5.313714 -2.53314,6.279192 -0.4738,0.372686 -1.0544,1.27044 -1.29022,1.99501 -0.23583,0.724571 -1.69982,4.254276 -3.25331,7.843789 -4.33033,10.005733 -6.84121,17.9400117 -8.14971,25.75277867 -1.20981,7.22344603 -1.3927,22.24547333 -0.28433,23.35383833 0.47361,0.473613 3.00522,-1.139564 3.87746,-2.470779 0.99034,-1.51145 3.6045,-3.24417 4.89449,-3.24417 1.71579,0 2.15907,1.105835 1.57562,3.930638 -0.46454,2.24907 -0.8743,3.356421 -5.07259,13.708251 -4.81715,11.877785 -7.59344,21.30353 -9.25253,31.413195 -1.53023,9.324386 -1.98919,19.487796 -0.92796,20.549026 0.2649,0.2649 1.04181,-0.26517 2.64506,-1.80469 1.24849,-1.19886 2.57574,-2.17975 2.94945,-2.17975 1.37125,0 2.03042,3.13353 2.37473,11.28889 0.60312,14.285055 2.17879,26.415515 3.95673,30.461135 0.56977,1.2965 0.65465,1.34766 1.90417,1.14786 1.62218,-0.2594 6.96296,-2.51937 7.84923,-3.32143 0.3603,-0.32607 0.88104,-1.02979 1.1572,-1.56382 0.63481,-1.22759 1.96239,-1.28853 3.10823,-0.14269 0.81904,0.81903 1.46327,2.63202 3.17636,8.93885 1.45466,5.35541 10.52511,24.04999 14.95013,30.81282 5.60537,8.56681 18.79128,23.38979 20.29372,22.81325 0.24906,-0.0956 0.81437,-1.49296 1.25624,-3.1053 0.97269,-3.54926 2.06256,-5.96013 2.69436,-5.96013 0.93038,0 2.15559,0.6672 5.09939,2.77693 1.64924,1.18195 3.0485,2.00225 3.10948,1.82288 0.061,-0.17937 -0.76241,-2.51802 -1.82975,-5.197 -3.11817,-7.82649 -4.80751,-14.49516 -4.80751,-18.97775 0,-2.58126 0.57477,-3.43356 1.61691,-2.39765 0.34832,0.34624 2.45342,3.40766 4.67799,6.80315 15.49665,23.65335 17.311,26.21804 24.82419,35.09034 2.4895,2.93984 3.71115,4.08617 5.08484,4.77135 0.99446,0.49601 2.23427,1.40832 2.75516,2.02736 2.70643,3.2164 13.7271,11.39921 14.41973,10.70658 0.43279,-0.43279 -0.51938,-5.7871 -1.54497,-8.68778 -0.41884,-1.18462 -0.82715,-3.42809 -0.9346,-5.13518 -0.2178,-3.46036 0.12757,-3.94301 2.09388,-2.92619 2.22957,1.15296 8.25359,7.83886 10.28474,11.41477 0.43793,0.77098 1.97675,2.41977 3.4196,3.66398 1.44285,1.24421 6.90962,6.4323 12.14837,11.52909 5.23875,5.09679 11.25603,10.83024 13.37173,12.741 3.39157,3.06305 3.99946,3.47412 5.13747,3.47412 0.95285,0 1.52835,-0.25396 2.19841,-0.97014 2.36496,-2.52771 3.05803,-5.62898 3.42784,-15.33858 0.23536,-6.17962 0.4049,-7.83805 0.87458,-8.55486 0.84213,-1.28526 2.45701,-1.20576 3.7561,0.18492 1.64553,1.76154 8.89524,13.20879 12.18355,19.23776 3.48525,6.39004 6.22918,10.4065 8.6677,12.68744 1.9617,1.83495 2.28302,1.87491 7.10246,0.88327 z m 84.01956,-167.763894 c -0.95973,-0.48625 -3.25308,-2.246734 -5.09635,-3.912187 -3.8529,-3.481228 -6.77121,-5.798937 -8.29027,-6.584105 -0.58209,-0.300863 -1.45521,-0.976191 -1.94028,-1.500729 -0.88677,-0.958919 -10.74822,-5.923503 -16.10375,-8.107165 -3.23958,-1.320906 -16.20124,-4.420433 -22.34903,-5.344334 -5.42443,-0.815193 -15.85299,-0.824342 -22.04861,-0.01935 -9.82166,1.276129 -19.17768,3.195078 -23.71949,4.864942 -1.11831,0.411164 -2.98579,1.022133 -4.14996,1.357709 -3.34933,0.965461 -17.67696,8.295008 -26.45833,13.535215 -3.98075,2.375478 -6.66561,3.419089 -8.79618,3.419089 -1.86148,0 -2.89808,-0.739689 -3.40427,-2.429196 -0.34346,-1.146373 -0.30035,-1.57756 0.29152,-2.915576 0.93161,-2.106065 2.59955,-3.943218 4.41655,-4.864621 0.82234,-0.417009 2.57847,-1.603176 3.90251,-2.635927 4.12658,-3.218729 17.15712,-9.956887 21.82266,-11.284607 1.10276,-0.313823 2.47292,-0.964303 3.0448,-1.445512 0.65163,-0.548306 1.97872,-1.072435 3.55492,-1.404 1.38333,-0.29099 3.31176,-0.932757 4.28542,-1.426148 3.62346,-1.836144 11.79861,-3.536257 23.00685,-4.784529 5.67734,-0.632291 8.00228,-0.722886 14.19744,-0.553229 4.07459,0.111584 8.59896,0.370033 10.05417,0.574331 1.45521,0.204298 4.47146,0.621962 6.70278,0.928142 4.88966,0.670957 11.86594,2.052899 14.2875,2.83023 0.97014,0.311419 3.99395,1.491981 6.71959,2.623471 2.72564,1.131489 5.71625,2.260667 6.6458,2.509284 0.92955,0.248617 1.84077,0.733581 2.02494,1.077697 0.18416,0.344116 1.32105,1.118031 2.52642,1.719811 5.23156,2.611853 11.33501,6.810905 14.36241,9.881048 3.77678,3.830093 7.17159,8.480304 7.13403,9.772169 -0.039,1.341666 -0.56791,2.574529 -1.66263,3.875521 -1.18687,1.410512 -2.52663,1.476013 -4.96116,0.242551 z m 7.95643,-44.4922 c -0.48507,-0.06856 -2.23132,-0.305154 -3.88055,-0.52577 -3.58512,-0.479577 -8.18522,-1.922575 -11.58185,-3.633093 -2.79713,-1.408612 -3.74623,-2.425936 -3.20563,-3.436055 0.47883,-0.894704 2.17936,-0.844747 6.89076,0.20243 11.95905,2.658069 21.31259,1.774401 31.44105,-2.970367 11.30798,-5.297319 18.86064,-14.075594 22.99464,-26.7261023 1.90973,-5.8440189 2.32264,-8.5178507 2.30116,-14.9014207 -0.0168,-5.005633 -0.15252,-6.404429 -0.96878,-9.987932 -0.52206,-2.291904 -1.35551,-5.387529 -1.85211,-6.879166 -0.86604,-2.601318 -2.86888,-6.416235 -3.36855,-6.416235 -0.13152,0 -1.32829,0.639586 -2.65949,1.421302 -1.3312,0.781716 -3.2935,1.673017 -4.36065,1.980669 -2.90364,0.837099 -7.41577,4.453443 -7.40126,5.931897 0.004,0.396165 0.40947,2.228424 0.9013,4.071688 1.45141,5.439581 1.58768,14.816666 0.21532,14.816666 -0.51249,0 -1.04226,-1.5217 -2.33489,-6.706625 -1.08995,-4.371945 -2.46021,-8.011606 -3.3658,-8.940155 -0.32131,-0.329459 -3.99539,2.034632 -5.12439,3.297302 -0.63162,0.706397 -0.68748,1.145268 -0.53305,4.188033 0.33702,6.640084 0.17336,8.843407 -0.86823,11.6892233 -2.34964,6.4196434 -5.16635,10.3454174 -9.64876,13.4479374 -6.67507,4.620176 -14.36251,5.9140413 -22.57264,3.799177 -7.05822,-1.81814 -13.12038,-6.172592 -13.12038,-9.424374 0,-2.124457 -2.65299,-3.348727 -8.47012,-3.90868 -5.35894,-0.515848 -9.62023,-1.959888 -14.05831,-4.7639965 -2.38648,-1.5078492 -5.88245,-5.2714892 -6.98814,-7.5231872 -0.9775,-1.990634 -0.9987,-2.161169 -0.9987,-8.031044 0,-6.798253 0.22243,-7.798786 2.84497,-12.796954 2.8555,-5.442141 5.1059,-7.70983 15.4168,-15.535215 2.08884,-1.585309 4.54987,-3.263435 5.46895,-3.729168 1.01626,-0.51498 2.12542,-1.479488 2.83063,-2.461469 2.09171,-2.912658 17.29911,-16.120842 20.99329,-18.23345 1.38861,-0.79411 2.36433,-1.631232 2.67271,-2.293056 0.26712,-0.573295 0.90212,-1.493964 1.41111,-2.045932 2.51117,-2.723236 12.08863,-9.725665 17.85876,-13.057186 8.76872,-5.062828 22.6421,-7.071358 33.0586,-4.786078 10.9328,2.398549 20.02055,9.122241 24.55129,18.164595 1.59752,3.188289 2.25324,6.893492 2.24342,12.676691 -0.009,5.483789 -0.49697,7.990609 -2.07985,10.691598 -1.33213,2.273097 -5.29324,6.384231 -6.40378,6.646308 -0.50735,0.11973 -1.3251,0.645652 -1.81722,1.168715 -0.49211,0.523063 -2.16209,1.839075 -3.71107,2.924471 -3.21802,2.254923 -4.74278,3.587818 -4.74278,4.145971 0,0.212928 0.21948,0.815821 0.48772,1.339762 0.26825,0.523941 0.82658,2.194554 1.24073,3.712473 0.41415,1.517919 1.083,3.406696 1.48633,4.197282 1.60319,3.142527 1.68673,25.8592946 0.12535,34.09019867 -1.14352,6.02814303 -2.82127,10.10655203 -6.33542,15.40061333 -2.26299,3.409191 -7.44786,8.51512 -11.25613,11.084762 -6.06873,4.094896 -14.12245,7.202706 -21.5069,8.299191 -3.27067,0.485647 -9.84212,0.659758 -12.21946,0.323755 z m -29.65941,-47.935249 c 4.86621,-0.946387 8.33402,-2.20089 14.66636,-5.305654 7.43939,-3.64756 12.43084,-6.575327 25.93049,-15.209722 6.28266,-4.018398 20.65944,-12.49299 31.21951,-18.402781 1.55222,-0.868679 3.4929,-1.956713 4.31263,-2.417853 2.9818,-1.677422 7.14316,-5.119398 8.71104,-7.205139 3.58238,-4.765616 3.93262,-10.173915 1.04149,-16.08245 -1.53109,-3.129065 -6.92485,-8.367089 -10.54233,-10.237942 -6.11624,-3.163137 -12.14083,-4.331195 -18.64687,-3.615287 -11.7197,1.289606 -23.10972,8.551414 -47.49402,30.280232 -11.12344,9.912084 -17.53915,14.848601 -25.75278,19.815271 -7.18088,4.342185 -8.82633,5.983102 -10.24329,10.215086 -1.50674,4.500154 -0.41149,8.871096 3.21796,12.842301 2.80073,3.064438 5.53057,4.56478 10.37672,5.703119 2.63766,0.619574 9.00838,0.436612 13.20309,-0.379181 z M -763.4488,34.064361 c -7.03832,-0.908809 -16.40146,-5.896715 -22.67644,-12.080121 -4.29908,-4.236341 -6.10377,-6.762941 -8.82761,-12.3587953 -2.66722,-5.479527 -3.80303,-8.558261 -4.57037,-12.388528 -2.34142,-11.6873457 -1.19729,-25.5786667 3.04526,-36.9735687 l 1.41945,-3.812457 -1.19625,-1.239409 c -0.65794,-0.681676 -3.27702,-2.726988 -5.82018,-4.545139 -9.93742,-7.104451 -12.84908,-12.532023 -12.38783,-23.091915 0.29796,-6.821437 1.71275,-10.349596 6.37628,-15.900944 4.83286,-5.752917 12.83216,-10.289797 21.18054,-12.012754 6.01294,-1.24096 17.81649,-0.76925 23.49363,0.938888 2.47036,0.743283 7.27194,3.142328 11.99881,5.995053 4.54866,2.745178 6.03432,3.791109 10.49214,7.386689 1.92446,1.552223 4.87635,3.903544 6.55976,5.225159 1.6834,1.321615 3.30197,2.869428 3.59681,3.439584 0.29484,0.570155 0.70916,1.036646 0.92072,1.036646 0.72313,0 3.98926,2.64385 8.23249,6.66399 2.33262,2.209986 5.43176,5.020179 6.88696,6.244872 7.46387,6.281536 10.52486,8.725049 11.68236,9.325708 0.91611,0.475401 1.3364,0.966869 1.49195,1.744601 0.16944,0.847181 0.44548,1.128537 1.26879,1.293199 0.57874,0.115747 1.28567,0.566696 1.57096,1.002109 0.28529,0.435412 0.98655,0.885226 1.55835,0.999585 0.71942,0.143884 1.10652,0.474449 1.25681,1.073251 0.24681,0.983357 1.87012,3.096508 5.32022,6.925593 2.96673,3.292617 3.71653,4.726035 3.73198,7.134567 0.007,1.099643 0.29194,2.445734 0.69358,3.277248 1.37098,2.838253 0.66372,8.405696 -1.18021,9.290507 -1.33061,0.638492 -1.52456,1.349627 -0.62831,2.303652 0.98918,1.05293 0.94639,2.16109 -0.16995,4.401294 -1.60021,3.211202 -6.48699,6.7497726 -11.59603,8.3968147 -2.41961,0.780029 -3.57092,0.92577 -7.94494,1.00573 -2.8134,0.05143 -5.53582,0.261338 -6.04982,0.466462 -1.14549,0.45714 -1.88613,1.475638 -2.60085,3.576596 -0.70039,2.05885897 -1.19272,2.621359 -4.41514,5.044459 -4.83699,3.63717 -8.64717,4.835804 -15.39793,4.843993 -6.04757,0.0073 -11.21982,-1.161721 -12.0565,-2.725067 -0.1982,-0.37034 -0.96504,-0.855708 -1.70409,-1.078594 -2.79876,-0.844064 -7.58146,-6.120033 -8.72943,-9.629741 -0.33541,-1.025445 -1.05007,-2.509069 -1.58815,-3.2969422 -2.26303,-3.3136365 -2.49731,-7.0378335 -0.76085,-12.0951925 0.60041,-1.748658 1.09165,-3.351526 1.09165,-3.561929 0,-0.210403 -0.51594,-0.627914 -1.14653,-0.927802 -0.63059,-0.299888 -2.31163,-1.497961 -3.73565,-2.662385 -2.80687,-2.295181 -3.58192,-2.544629 -4.11819,-1.325444 -0.53262,1.210869 -1.46207,1.158996 -2.65639,-0.148255 -2.89188,-3.165321 -4.29158,-4.400289 -7.19195,-6.345544 -3.55325,-2.383135 -6.67773,-4.043707 -7.95512,-4.227921 -0.76227,-0.109926 -0.97084,0.139334 -1.82213,2.177649 -2.52302,6.041039 -3.11728,10.758951 -3.12115,24.778947 l -0.003,10.5001767 2.33022,4.669268 c 1.28162,2.568098 3.2216,6.018643 4.31105,7.6678793 4.11076,6.22294 10.69314,11.891204 16.72482,14.402198 1.47973,0.616014 2.87261,1.120025 3.09528,1.120025 0.22268,0 1.5828,0.566563 3.0225,1.25903 2.42686,1.167275 2.95413,1.279448 7.23504,1.539208 5.23185,0.317461 12.65956,-0.06636 15.9349,-0.823414 1.21172,-0.280077 3.52917,-0.690047 5.14988,-0.911044 2.63991,-0.359972 3.01644,-0.338747 3.61598,0.203824 0.91706,0.829931 0.84183,1.346657 -0.34097,2.341914 -1.29877,1.092846 -9.77108,4.030481 -12.9487,4.48975 -2.91138,0.420789 -16.63369,0.404822 -19.94862,-0.02321 z m 59.99123,-47.406184 c 3.20871,-0.674975 4.78385,-1.346038 6.0009,-2.556592 0.53956,-0.536679 1.70611,-1.572803 2.59233,-2.302498 3.5248,-2.902242 4.49847,-10.516668 1.95425,-15.282775 -1.62643,-3.046794 -4.04965,-5.157976 -10.42022,-9.078402 -7.26842,-4.472968 -12.56035,-8.697983 -25.46387,-20.330066 -17.36074,-15.650108 -24.39425,-21.015659 -32.6735,-24.925159 -6.82429,-3.222459 -11.33982,-4.198064 -18.15275,-3.922 -5.01858,0.203355 -7.84604,0.789448 -11.93076,2.473079 -5.13012,2.114527 -9.92923,6.365922 -12.01503,10.643767 -1.58208,3.244764 -1.95284,4.950769 -1.95768,9.007996 -0.004,3.111033 0.12066,3.9612 0.77675,5.309356 0.90265,1.854817 3.39563,4.374233 7.00599,7.080291 2.51579,1.885646 15.31124,9.849804 23.74987,14.782422 5.98916,3.500832 14.82667,9.067508 15.73466,9.911133 0.40788,0.378969 1.86861,1.229136 3.24606,1.88926 1.37744,0.660125 5.64747,3.016243 9.48895,5.235818 17.34326,10.020806 26.32749,13.187234 36.15558,12.742776 1.88007,-0.08502 4.53888,-0.390305 5.90847,-0.678406 z m 37.20461,37.425129 c -1.84238,-1.842383 -1.48162,-3.926756 0.88896,-5.136134 2.51009,-1.280555 6.93815,-0.76387 7.57024,0.883328 0.59946,1.562186 0.23554,2.585165 -1.28017,3.598512 -3.43858,2.298902 -5.35936,2.473962 -7.17903,0.654294 z m -21.95685,0.01362 c -1.68861,-0.611376 -2.8787,-1.879699 -2.8787,-3.067938 0,-3.090707 2.55878,-4.33251 5.84856,-2.838366 5.41658,2.460088 2.65898,7.944267 -2.96986,5.906304 z m 245.69386,5.699806 c 0.55974,-0.427727 1.79059,-1.461083 2.73522,-2.296347 0.94463,-0.835264 2.25624,-1.774304 2.91468,-2.086755 1.52354,-0.722967 7.43182,-6.9185 9.194,-9.640993 0.73879,-1.141408 2.28353,-3.534814 3.43276,-5.318679 1.14922,-1.7838663 3.12368,-4.6143393 4.38769,-6.2899403 2.73104,-3.62034103 4.78656,-7.864328 9.33528,-19.2743247 3.41528,-8.566885 4.69553,-12.443623 5.67445,-17.182903 0.97382,-4.714546 1.06014,-6.382935 0.39663,-7.666016 -0.93255,-1.80335 -3.35705,-4.255248 -4.2077,-4.255248 -2.91616,0 -19.61613,15.920011 -19.61613,18.699975 0,0.362968 0.95127,1.386474 2.20486,2.3723 3.45116,2.713991 4.9385,6.157279 4.35124,10.073418 -0.12928,0.862055 -0.44124,1.849368 -0.69327,2.194029 -0.7065,0.9662062 -2.55971,0.428062 -4.7702,-1.385201 -1.0457,-0.857781 -2.66633,-1.976002 -3.60141,-2.484934 -1.57741,-0.858536 -1.77224,-0.888047 -2.69896,-0.408819 -1.30965,0.677247 -7.51886,7.1430289 -9.87038,10.2782417 -2.14765,2.863391 -2.42841,3.90840697 -1.88634,7.021197 0.77192,4.43269 1.1011,12.8565853 0.73181,18.7272943 -0.19529,3.104444 -0.43824,6.011137 -0.5399,6.459318 -0.10165,0.44818 -0.0824,1.360992 0.0428,2.028472 0.2716,1.447741 0.99296,1.574392 2.48283,0.435915 z m -463.0125,-1.427177 c 0.28743,-0.534866 0.5095,-4.188007 0.68089,-11.200695 0.19345,-7.9151973 0.44247,-11.6586403 1.04004,-15.6347333 0.48923,-3.255278 0.6696,-5.460139 0.47804,-5.843592 -0.63256,-1.266182 -15.07395,-20.2199587 -15.54338,-20.4000967 -0.26904,-0.103237 -0.82501,0.109361 -1.23549,0.472442 -1.16767,1.03282 -3.36156,4.589271 -3.98045,6.452585 -1.12127,3.375827 -3.36726,4.154495 -4.58447,1.589405 -0.52014,-1.096115 -0.54783,-1.580568 -0.2034,-3.558474 0.78043,-4.481554 2.21078,-7.448766 4.66205,-9.671293 l 1.39167,-1.261812 -3.43012,-3.279221 c -3.7162,-3.552707 -11.64958,-10.562065 -13.22043,-11.680612 l -0.97287,-0.692744 -1.219,2.032545 c -1.7464,2.911931 -2.12169,4.354824 -1.93998,7.458726 0.12368,2.112816 0.43013,3.291373 1.4327,5.50993 0.70145,1.552223 1.43352,3.806669 1.62682,5.009882 0.1933,1.203213 0.85045,3.265734 1.46033,4.583381 0.60988,1.317646 1.73775,4.219549 2.50639,6.448672 1.83186,5.3125965 3.45243,8.6279717 5.36463,10.9750147 0.85624,1.050956 1.74255,2.488358 1.96959,3.194227 0.22703,0.70586897 0.9477,1.97586897 1.60148,2.822222 0.65379,0.846353 2.23885,3.352225 3.52237,5.568603 3.71388,6.4131073 6.0231,9.3823653 11.55841,14.8620793 2.85209,2.823439 5.34847,5.561877 5.54752,6.085417 0.44106,1.160069 0.92081,1.211102 1.48666,0.158142 z M -446.0151,-15.87154 c 9.6991,-12.00355 18.10028,-20.872937 26.67964,-28.166544 5.02573,-4.272538 7.34643,-5.87097 10.02342,-6.90383 2.64492,-1.020486 6.27331,-1.104354 7.68757,-0.177692 0.9251,0.60615 1.0181,0.609588 1.42531,0.0527 0.57028,-0.779904 1.49751,-5.741944 1.98265,-10.610064 0.41103,-4.124454 0.12364,-6.285902 -0.98291,-7.392457 -0.71933,-0.719325 -5.11538,-0.725139 -11.25653,-0.01489 -9.94007,1.149611 -17.13454,3.131723 -20.39567,5.619104 -0.64929,0.495244 -1.72291,1.003809 -2.3858,1.130144 -1.46587,0.279367 -2.79966,0.932285 -4.6654,2.283824 -0.77611,0.562207 -2.03958,1.191425 -2.80772,1.398264 -0.92374,0.248738 -2.21449,1.144219 -3.81222,2.64479 -1.35967,1.276995 -2.73394,2.268721 -3.14385,2.268721 -0.47043,0 -0.85801,0.343464 -1.09475,0.970139 -0.20156,0.533577 -0.74475,1.367014 -1.20707,1.852084 -1.33339,1.398993 -2.19082,3.746752 -3.16224,8.658684 -1.11538,5.639824 -1.76637,7.936698 -2.86257,10.099937 -1.27191,2.509994 -1.15487,4.569997 0.43003,7.569045 0.70447,1.333047 1.8951,3.591327 2.64583,5.018399 0.75074,1.427072 1.36846,2.935197 1.37272,3.351389 0.004,0.416192 0.314,1.4314 0.68831,2.256018 1.03475,2.279589 1.65541,2.035007 4.84125,-1.907762 z m -451.59594,-0.333888 c 0.54461,-1.281414 1.35476,-2.568716 1.80034,-2.860669 0.45111,-0.295576 0.98154,-1.167353 1.19689,-1.967113 0.21272,-0.789958 1.3365,-3.444717 2.49729,-5.899463 l 2.11054,-4.463174 -1.99928,-5.262785 c -1.09961,-2.894532 -2.84797,-7.617299 -3.88524,-10.495039 -1.03728,-2.87774 -2.28806,-5.759435 -2.77951,-6.403767 -0.59069,-0.774434 -2.21237,-1.846099 -4.78447,-3.161765 -2.14001,-1.094638 -4.13044,-2.355813 -4.4232,-2.80261 -0.29275,-0.446797 -1.70666,-1.385293 -3.14203,-2.085546 -1.43537,-0.700254 -2.82211,-1.574056 -3.08164,-1.941784 -0.72849,-1.032162 -2.25488,-1.673659 -6.40308,-2.691011 -9.31977,-2.28569 -21.49854,-3.725347 -26.16851,-3.093392 -4.62258,0.625543 -4.79285,1.257483 -2.81567,10.450621 1.31005,6.091255 2.18546,9.376786 2.49839,9.376786 0.10319,0 0.9681,-0.658105 1.92201,-1.462454 1.37226,-1.157106 2.08521,-1.495345 3.41468,-1.619983 4.86159,-0.455775 12.43589,4.996412 24.37304,17.544394 9.52877,10.016362 16.18817,17.723565 17.2648,19.981291 0.3114,0.653019 0.75705,1.187307 0.99032,1.187307 0.23327,0 0.86972,-1.04843 1.41433,-2.329844 z m 49.71513,-127.705742 c 3.68525,-2.44568 7.60493,-4.90439 8.7104,-5.46378 3.3376,-1.68892 13.89759,-10.98838 15.85064,-13.95857 4.62027,-7.02649 6.70561,-10.36521 7.12581,-11.40874 0.27345,-0.67909 0.59033,-2.63254 0.70418,-4.34098 0.11384,-1.70844 0.39754,-3.63323 0.63044,-4.2773 0.37984,-1.05042 0.32587,-1.34565 -0.52391,-2.86608 -1.69944,-3.04063 -4.91716,-7.23577 -8.34153,-10.8754 -4.53622,-4.82135 -5.14596,-5.68635 -6.01248,-8.52952 -0.92262,-3.02726 -3.37535,-7.61819 -5.36157,-10.03558 -3.29557,-4.01098 -3.43565,-4.25386 -3.43664,-5.95884 -0.002,-2.91722 -2.97327,-13.35843 -4.57838,-16.08713 -0.46955,-0.79823 -0.67702,-2.20211 -0.84419,-5.71229 -0.1219,-2.55967 -0.44561,-5.6553 -0.71935,-6.87916 -0.36392,-1.62709 -0.54179,-5.9708 -0.66174,-16.15994 -0.0902,-7.6641 -0.27844,-14.20861 -0.41827,-14.54336 -0.23084,-0.55259 -0.34708,-0.56063 -1.26248,-0.0873 -3.35521,1.73505 -15.56559,19.10942 -18.64733,26.53363 -0.54438,1.31147 -2.10544,4.6883 -3.46902,7.50406 -2.395,4.94564 -3.60041,8.18225 -4.12675,11.08057 l -0.25124,1.38347 1.19286,-1.04734 c 2.90779,-2.55308 5.59699,-3.47655 7.15367,-2.45658 1.51609,0.99338 0.85146,4.42313 -0.96783,4.99436 -1.18787,0.37298 -4.36285,2.45364 -7.10144,4.65381 -1.80225,1.44792 -2.63158,2.40889 -3.2361,3.74977 -1.32327,2.93518 -2.84407,12.30883 -2.25036,13.87041 l 0.32655,0.8589 0.92875,-0.73055 c 1.3313,-1.04721 3.07112,-0.9603 3.98299,0.19896 1.34206,1.70616 1.00825,2.68069 -2.01912,5.89467 -3.80915,4.04395 -4.14172,4.81404 -4.06098,9.40359 0.0687,3.90698 0.83085,9.712 1.73154,13.18922 0.65852,2.54228 1.54239,4.80245 1.87806,4.80245 0.13724,0 0.58603,-0.59531 0.99732,-1.32292 1.02616,-1.81536 3.37232,-4.18202 4.95055,-4.99382 0.7209,-0.37081 1.78698,-1.17953 2.36907,-1.79715 2.32439,-2.4663 5.99965,-3.37331 7.27699,-1.79586 1.63674,2.02129 1.11074,3.99866 -1.59938,6.01247 -0.98838,0.73444 -3.43831,2.85719 -5.44429,4.71724 -2.00597,1.86005 -4.10941,3.58649 -4.6743,3.83653 -0.89008,0.39399 -1.02606,0.64313 -1.01944,1.86782 0.004,0.77725 0.31807,2.81731 0.6975,4.53346 0.59903,2.7094 0.86512,3.29129 2.02084,4.41901 0.82675,0.80673 2.3333,3.25906 3.9768,6.47336 2.32806,4.55315 2.71607,5.12402 3.23061,4.75322 0.32163,-0.23178 3.77485,-3.24298 7.67382,-6.69156 7.86119,-6.9531 9.82115,-8.37013 11.5771,-8.37013 2.02948,0 1.89307,1.17967 -0.4754,4.11124 -0.65116,0.80598 -1.32677,1.83785 -1.50135,2.29306 -0.17458,0.4552 -1.84343,2.53573 -3.70857,4.6234 -4.37316,4.89493 -5.39852,6.33684 -6.03837,8.49146 -0.28825,0.97064 -0.79468,2.06381 -1.12541,2.42926 -0.71519,0.79027 -0.79071,2.80466 -0.13479,3.595 0.96967,1.16838 2.22693,0.62725 9.02552,-3.88456 z m 347.66017,1.09836 c 0,-0.0953 -0.54579,-0.88836 -1.21286,-1.76228 -2.49232,-3.26512 -1.82578,-7.94217 1.13186,-7.94217 0.36901,0 1.65996,0.79375 2.86878,1.76389 1.20881,0.97014 2.38831,1.76389 2.6211,1.76389 0.2328,0 0.97316,-0.83344 1.64525,-1.85208 1.65727,-2.5118 7.22135,-13.48736 7.77559,-15.33791 0.42467,-1.41795 0.39679,-1.56335 -0.56615,-2.95288 -1.48498,-2.14282 -7.19461,-7.3753 -10.96149,-10.04545 -5.11701,-3.62718 -6.4284,-5.44788 -5.15738,-7.16032 2.3391,-3.15147 5.71911,-2.12994 14.37891,4.3457 2.71639,2.03126 5.0401,3.69977 5.16379,3.7078 0.50492,0.0327 1.05856,-7.35523 1.12039,-14.95104 l 0.0658,-8.08647 -3.31809,-2.39268 c -4.66808,-3.36616 -5.47138,-4.22873 -6.20998,-6.66815 -0.51479,-1.70023 -0.54842,-2.18371 -0.18259,-2.62451 0.64206,-0.77363 2.59471,-0.66357 5.65372,0.31868 1.45521,0.46727 2.778,0.72191 2.93953,0.56588 0.62955,-0.6081 -1.838,-10.92146 -3.29756,-13.78243 -0.45568,-0.8932 -1.2828,-1.70534 -2.3754,-2.33239 -0.92196,-0.52911 -2.25476,-1.40908 -2.96178,-1.95549 -0.7591,-0.58667 -1.72201,-0.99348 -2.3515,-0.99348 -0.78563,0 -1.41771,-0.37115 -2.40318,-1.41111 -0.73544,-0.77611 -1.61636,-1.41111 -1.95761,-1.41111 -0.82784,0 -1.33802,-1.04798 -0.97627,-2.00541 0.50358,-1.33279 1.51024,-1.61735 4.14532,-1.17177 3.89336,0.65835 5.35789,0.81229 5.35789,0.56317 0,-0.62324 -1.5652,-3.17572 -3.18512,-5.19417 -2.23649,-2.78672 -4.57303,-4.75518 -6.86904,-5.78695 -2.16892,-0.97466 -3.49883,-2.31792 -3.20657,-3.23874 0.11628,-0.36636 0.92501,-1.0128 1.79719,-1.43654 2.21491,-1.07608 2.13208,-1.89791 -0.49544,-4.91567 -7.039,-8.08447 -20.53582,-19.2256 -21.78154,-17.97988 -0.0954,0.0954 -0.012,1.34021 0.18537,2.76624 0.19736,1.42602 0.61849,6.40277 0.93584,11.05944 0.31736,4.65667 0.62255,8.62542 0.67822,8.81944 0.0662,0.2307 2.12277,0.26107 5.94289,0.0878 6.87576,-0.31193 7.65376,-0.14627 7.65376,1.62965 0,0.81277 -0.2012,1.29155 -0.61736,1.4691 -0.33955,0.14486 -3.42295,0.34 -6.85199,0.43364 l -6.23464,0.17025 -0.19002,1.63257 c -0.10452,0.89792 -0.2873,3.69633 -0.40618,6.21869 -0.22348,4.74172 -0.98802,9.32821 -2.46983,14.81667 -0.47146,1.74625 -1.02006,4.03789 -1.2191,5.09254 -0.344,1.82276 -0.31644,1.965 0.55762,2.87731 1.10209,1.15034 0.92272,2.19577 -0.4928,2.87221 -0.52212,0.24951 -1.538,1.32524 -2.25752,2.39052 -1.57734,2.33534 -4.07402,7.97864 -4.38203,9.90483 l -0.22256,1.39183 2.9788,-0.22897 2.97881,-0.22897 1.28704,1.13004 c 0.70787,0.62152 1.81948,1.27705 2.47024,1.45673 1.11744,0.30854 1.20885,0.45572 1.64461,2.64804 0.29961,1.50731 0.34084,2.4419 0.11757,2.66517 -0.41626,0.41626 -6.05339,-0.42991 -10.10407,-1.51669 l -2.77591,-0.74477 -1.55177,0.75391 c -1.9883,0.96599 -4.48047,3.26639 -5.9764,5.51655 -0.64609,0.97181 -1.97516,2.79881 -2.95351,4.05999 -0.97835,1.26119 -1.96096,2.84058 -2.18359,3.50977 -0.36663,1.10202 -0.33097,1.26572 0.37834,1.73668 0.43072,0.28599 2.2576,2.75472 4.05973,5.48607 5.3034,8.03792 14.40991,17.87379 18.18874,19.64551 0.87313,0.40937 2.38125,1.48839 3.35139,2.39783 3.36363,3.15317 8.98739,6.32051 12.52361,7.05338 1.06716,0.22116 3.13091,1.09821 4.58611,1.94899 2.60709,1.52423 3.175,1.78182 3.175,1.44011 z"
       id="path1" /></g></svg>
