<?xml version="1.0" encoding="UTF-8" standalone="no"?>
<!-- Created with Inkscape (http://www.inkscape.org/) -->

<svg
   width="137.29042mm"
   height="216.68173mm"
   viewBox="0 0 137.29044 216.68173"
   version="1.1"
   id="svg1"
   xml:space="preserve"
   xmlns="http://www.w3.org/2000/svg"
   xmlns:svg="http://www.w3.org/2000/svg"><defs
     id="defs1" /><g
     id="layer1"
     transform="translate(-159.87542,139.23876)"><path
       style="fill:#000000"
       d="m 214.75493,77.176556 c -1.30817,-0.5164 -2.5254,-1.558904 -3.14543,-2.693917 l -0.63143,-1.155882 -4.10932,-0.448478 c -15.33868,-1.674012 -18.55957,-3.428577 -16.45562,-8.964127 0.69768,-1.835623 0.70346,-1.810448 -0.60516,-2.637132 -1.37629,-0.869435 -3.73451,-3.163613 -4.6134,-4.488112 l -0.64421,-0.970844 -1.36803,-0.324169 c -8.89045,-2.106687 -13.85117,-7.809753 -14.36927,-16.519559 l -0.15739,-2.645833 0.42653,-2.440399 c 0.56874,-3.254114 1.58112,-6.333863 4.4442,-13.519631 3.081,-7.732719 4.35071,-11.3103358 6.03067,-16.9923239 0.75104,-2.54016259 1.66683,-5.5925122 2.03511,-6.7829992 l 0.66959,-2.1645217 -0.77981,-1.1427698 c -0.42889,-0.6285233 -0.82723,-1.2618322 -0.88519,-1.407353 -0.058,-0.1455209 -1.48415,-2.5863024 -3.16931,-5.4239584 -5.54096,-9.330474 -8.16026,-14.34001 -11.13644,-21.298957 -3.41621,-7.987855 -4.81347,-12.775576 -5.50525,-18.86367 l -0.25638,-2.256281 0.25831,-1.8213 c 0.45248,-3.190393 1.732,-4.953397 3.99532,-5.505012 l 1.22497,-0.298549 1.12748,0.303597 c 1.65498,0.445641 3.02982,1.412548 4.15663,2.923308 l 0.9972,1.336997 0.68855,-2.197044 c 0.3787,-1.208375 1.11351,-3.238841 1.63291,-4.512148 l 0.94437,-2.315104 h -0.36534 c -0.20093,0 -1.29293,0.133137 -2.42666,0.295862 l -2.06133,0.295862 -0.85845,0.862214 c -4.12676,4.144825 -8.95532,-1.836934 -6.5476,-8.111355 l 0.16828,-0.438527 -0.61445,-0.185382 c -3.58736,-1.082325 -4.06627,-9.137382 -0.68658,-11.547954 l 0.86589,-0.617594 1.36116,0.01347 1.36117,0.01347 0.95422,0.727815 c 0.52481,0.400298 1.13574,1.078848 1.3576,1.507888 l 0.40339,0.780073 h 0.86827 c 0.86258,0 8.82137,0.932848 10.38798,1.217573 l 0.81879,0.148813 0.32369,-0.781453 c 0.17803,-0.4298 0.80491,-1.267489 1.39308,-1.861532 l 1.06939,-1.080079 -0.42594,-1.250043 c -1.42842,-4.192192 1.53921,-9.407656 5.65949,-9.946254 0.99648,-0.130259 1.32231,-0.427755 1.32872,-1.21316 0.0376,-4.604671 6.3408,-7.268081 10.2775,-4.342731 l 0.89061,0.66181 1.75523,-0.31072 c 0.96537,-0.1709 2.38031,-0.33257 3.14429,-0.35928 0.76398,-0.0267 1.38906,-0.0758 1.38906,-0.10903 0,-0.0333 -0.61518,-0.87045 -1.36707,-1.86042 -1.55279,-2.04448 -2.86376,-4.70617 -3.55802,-7.22391 l -0.47422,-1.71979 -0.009,-2.91042 c -0.0107,-3.62939 0.3385,-5.10267 2.03095,-8.56928 l 1.34183,-2.74844 2.03315,-2.0579 c 13.39142,-13.55439 42.34025,-10.34198 54.88753,6.09079 2.81993,3.69317 5.43941,9.70677 5.43941,12.48738 v 0.72575 l 0.93522,0.44379 c 1.10675,0.52519 2.41988,2.03368 2.63909,3.03171 l 0.15594,0.71001 1.59191,0.16638 1.59192,0.16639 0.84244,-0.44318 0.84244,-0.44319 1.76567,0.0102 1.76567,0.0102 1.40933,0.73323 c 2.22424,1.15721 2.83746,1.68472 3.66687,3.15435 l 0.7759,1.37482 1.03764,0.4578 c 1.73747,0.76657 2.63743,2.245894 2.90687,4.77821 l 0.1658,1.558215 1.38888,0.354546 c 2.75541,0.703384 4.20712,1.799103 5.39185,4.069648 l 0.62125,1.190625 v 2.248959 2.248958 l -0.57659,1.058333 c -0.6917,1.269604 -1.90371,2.576026 -2.97932,3.211406 l -0.78667,0.4647 0.66994,0.878335 c 0.36846,0.483084 0.92178,1.441898 1.2296,2.130697 l 0.55966,1.252362 0.0181,1.719791 0.0182,1.719792 -0.61088,1.485666 -0.61089,1.485666 0.6777,0.998651 0.67771,0.998652 v 1.809807 c 0,4.655737 -2.08092,5.993551 -6.12088,3.935089 -1.14466,-0.583234 -2.08121,-1.016615 -2.08121,-0.963069 0,0.05355 0.75976,1.691597 1.68835,3.640113 3.27014,6.861921 5.54034,14.229277 6.37488,20.688078 l 0.40344,3.122405 v 8.173778 8.173778 l -0.59821,0.695457 c -0.32901,0.382502 -1.25174,0.916156 -2.05052,1.185899 l -1.45231,0.490441 -0.2928,1.6014 c -1.12609,6.1588739 -10.71114,7.1404837 -11.60372,1.188343 l -0.17445,-1.163282 h -1.47318 -1.47318 l 0.18656,1.918229 c 0.84483,8.6864789 4.20374,20.776084 9.52508,34.283217 2.51149,6.374913 3.72521,9.795127 4.56845,12.873714 l 0.4362,1.592545 0.0115,3.836459 0.0114,3.836458 -0.72498,2.159534 -0.72499,2.159534 -1.3849,1.923218 c -2.72336,3.781933 -6.42283,5.734447 -13.6907,7.225703 -0.36527,0.07495 -0.86092,0.469428 -1.10146,0.876623 -0.61476,1.040701 -2.12587,2.54949 -3.76953,3.763731 l -1.40129,1.035196 0.73435,1.54073 c 0.4039,0.847401 0.80851,2.076511 0.89914,2.731354 l 0.16478,1.190625 -0.47364,0.922361 c -0.2605,0.507299 -0.71419,1.04308 -1.00819,1.190625 -0.294,0.147545 -1.06791,0.582025 -1.71979,0.965511 -1.6385,0.963884 -4.49737,1.505529 -13.18053,2.497197 l -4.05779,0.463423 -0.24828,0.653019 c -1.5802,4.156224 -7.48778,4.685536 -10.46281,0.937455 l -1.01708,-1.281357 -1.85208,0.219022 c -1.01865,0.120463 -4.46954,0.171493 -7.66864,0.1134 l -5.81656,-0.105622 -1.22944,1.345204 -1.22944,1.345204 -1.28838,0.461817 c -1.40554,0.503814 -3.29025,0.575418 -4.33108,0.164546 z m 16.79899,-6.492966 1.26244,-0.173037 -0.17807,-2.406651 c -0.0979,-1.323658 -0.47082,-4.778101 -0.82863,-7.67654 -0.35782,-2.89844 -0.63676,-5.696408 -0.61988,-6.217708 0.0465,-1.434965 0.16016,-0.683425 0.8973,5.931348 0.90519,8.12284 1.24205,10.223548 1.66547,10.386026 0.99736,0.382723 9.02589,-0.627289 9.23079,-1.16126 0.11175,-0.291211 -2.85759,-8.779003 -6.44365,-18.419037 l -0.66436,-1.785937 h -2.35812 -2.35812 l -0.0313,2.050521 -0.0313,2.05052 -0.20197,-0.793749 c -0.11109,-0.436563 -0.21606,-1.359297 -0.23328,-2.050521 l -0.0313,-1.256771 h -1.83587 -1.83587 l -0.13569,1.124479 c -0.0746,0.618464 -0.32106,3.794474 -0.54762,7.057802 -0.22657,3.263327 -0.47978,6.001168 -0.56271,6.08409 -0.14056,0.140566 -0.0852,-0.943926 0.3975,-7.78408 0.10269,-1.455208 0.17949,-3.47927 0.17067,-4.497916 l -0.016,-1.852083 -2.02203,-0.07676 -2.02203,-0.07676 -0.44565,1.267387 c -0.2451,0.697063 -0.72378,2.160356 -1.06372,3.251762 -0.6073,1.949804 -4.57638,13.466321 -5.12601,14.873445 -0.1543,0.395031 -0.1958,0.768762 -0.0922,0.830514 0.56366,0.336039 7.2576,1.227737 9.22721,1.229153 0.17392,1.25e-4 0.418,-0.718478 0.56159,-1.653425 l 0.25397,-1.653646 0.0337,1.634246 0.0337,1.634245 0.46302,0.121 c 0.73756,0.192745 4.10815,0.198486 5.48806,0.0093 z m 22.62392,-1.17224 c 2.25557,-0.278185 4.19034,-0.506019 4.29948,-0.506299 0.74322,-0.0019 -1.57418,-2.99096 -5.49011,-7.081309 -3.63473,-3.796634 -4.94121,-6.252212 -5.87544,-11.043156 -0.22701,-1.164167 -0.44504,-2.245581 -0.48451,-2.403143 l -0.0718,-0.286476 -1.67893,0.19457 c -0.92341,0.107013 -3.01838,0.278706 -4.65549,0.381539 -1.63711,0.102834 -2.97656,0.28658 -2.97656,0.408325 0,0.378806 2.01386,5.83155 2.97502,8.055184 0.50321,1.164167 1.7885,4.140729 2.8562,6.614583 1.0677,2.473854 2.21843,4.945055 2.55718,5.491558 l 0.6159,0.993641 1.914,-0.156614 c 1.05269,-0.08614 3.75946,-0.384219 6.01503,-0.662403 z m -39.59386,-4.017241 c 3.95905,-9.95392 6.0683,-15.752285 5.8947,-16.204659 -0.13717,-0.357463 -8.87828,-1.064527 -9.15521,-0.74056 -0.1011,0.118266 -0.56339,1.681667 -1.02731,3.474224 -1.26138,4.873816 -1.56296,5.395558 -6.99675,12.104768 l -3.38572,4.180418 0.40574,0.227061 c 0.60387,0.337942 8.74826,1.474835 10.73133,1.498009 l 1.71979,0.0201 z m 51.6989,1.693564 c 0.84457,-0.452001 0.30625,-2.771271 -0.86977,-3.747284 l -0.36079,-0.299425 -1.99246,0.321418 c -1.09585,0.176781 -2.41152,0.253415 -2.9237,0.1703 -1.05314,-0.170901 -1.13875,8.26e-4 -0.45088,0.904409 0.59446,0.780891 1.81518,2.846058 1.46774,2.483077 -0.13929,-0.145521 -0.825,-0.952244 -1.5238,-1.792718 -1.29788,-1.561004 -2.51474,-2.404771 -3.25666,-2.258157 l -0.41558,0.08212 1.55782,1.739302 c 0.85681,0.956617 1.98809,2.228166 2.51396,2.825666 l 0.95612,1.086364 2.35152,-0.598332 c 1.29333,-0.329082 2.61925,-0.741618 2.94648,-0.916745 z m -67.63747,0.427808 c 0.17229,-0.327422 1.08484,-1.524177 2.02787,-2.659456 l 1.71461,-2.064144 -0.76179,0.171906 c -1.18932,0.26838 -1.99249,0.963356 -3.20919,2.776887 -1.33065,1.983365 -1.42433,1.890693 -0.31341,-0.310033 0.96715,-1.915921 1.14123,-1.708571 -1.61536,-1.924191 l -2.2595,-0.176737 -0.45379,1.266061 c -0.61018,1.702379 -0.59166,1.797536 0.47858,2.458982 1.12107,0.692859 2.08953,1.002853 3.22812,1.033295 l 0.85059,0.02274 z m -0.0626,-7.540625 c 1.56667,-1.306506 4.66581,-8.303741 6.65033,-15.015103 1.93297,-6.537035 2.07787,-7.080896 2.91469,-10.939768 0.91313,-4.210778 0.91302,-4.213182 -0.2314,-4.87747 l -0.81212,-0.471404 -0.37063,0.735988 c -0.20385,0.404793 -0.99472,2.700519 -1.75748,5.101612 -0.76276,2.401094 -1.71844,5.258594 -2.12372,6.35 -2.16338,5.825851 -5.56001,17.214898 -5.56001,18.642953 0,1.027287 0.43474,1.186714 1.29034,0.473192 z M 194.3304,59.58991 c 0.54868,-3.449396 5.92414,-20.290459 9.81628,-30.753935 0.94904,-2.551363 0.52945,-5.335535 -0.80465,-5.33929 -0.96351,-0.0027 -10.28294,32.466793 -10.28294,35.826427 0,1.004706 1.11666,1.23905 1.27131,0.266798 z m 65.93286,0.531826 c 0,-0.25941 -1.07756,-4.627399 -1.75757,-7.124484 -1.14844,-4.217211 -5.40739,-17.273082 -6.18784,-18.968869 l -0.32796,-0.71262 -0.97951,0.822351 -0.97952,0.822351 0.4682,2.282661 c 1.89865,9.256793 5.09523,18.406494 7.6745,21.967071 l 0.7701,1.063096 h 0.6598 c 0.36289,0 0.6598,-0.0682 0.6598,-0.151557 z m 4.08245,-0.08295 c 0.14782,-0.239178 -1.44326,-8.402668 -1.96544,-10.084241 -0.15816,-0.509323 -0.70639,-2.592917 -1.21828,-4.630208 -2.25789,-8.986236 -5.4382,-16.961387 -8.14166,-20.416527 l -1.47752,-1.888329 -1.14727,-0.555384 c -1.31851,-0.638279 -3.53475,-0.741646 -4.27625,-0.199447 l -0.48677,0.355936 0.83652,0.167305 c 3.97502,0.795003 7.15172,6.040208 11.32546,18.699988 0.79161,2.401093 1.54692,4.60375 1.67847,4.894791 0.44431,0.98299 1.81848,5.796835 2.81344,9.855729 l 0.98907,4.034895 h 0.46265 c 0.25445,0 0.52787,-0.105529 0.60758,-0.234508 z m -61.25274,-1.14698 c 1.29351,-0.966918 2.01286,-1.841689 2.78031,-3.381011 1.65868,-3.326904 3.24312,-10.534814 3.46056,-15.742708 l 0.12152,-2.910416 -0.66316,2.116666 c -3.14443,10.036368 -5.0542,15.192011 -6.88412,18.584465 -0.64684,1.199164 -1.17607,2.242559 -1.17607,2.318654 0,0.179193 1.81801,-0.579787 2.36096,-0.98565 z m 51.76349,-2.647799 c -1.76164,-3.734763 -3.14021,-7.850674 -4.65435,-13.896232 -1.19888,-4.786782 -1.58052,-5.53495 -1.58052,-3.098426 0,6.370537 2.16135,15.62664 4.16719,17.846242 0.32742,0.362315 0.59531,0.74686 0.59531,0.854544 0,0.29049 2.76615,1.818872 2.84959,1.574488 0.0393,-0.115119 -0.58044,-1.591396 -1.37722,-3.280616 z m 12.54382,2.423806 c 10.99924,-7.452088 3.59414,-33.112716 -14.80731,-51.3111824 -2.33027,-2.3045687 -5.52893,-4.8809053 -5.76506,-4.6434314 -0.2237,0.2249652 -0.16835,14.7526898 0.0597,15.6611688 l 0.15497,0.617466 1.37889,-1.329069 c 0.75838,-0.730989 1.78346,-1.567779 2.27795,-1.859534 l 0.89907,-0.530464 -1.56247,1.705164 c -2.49237,2.719976 -2.79196,3.602409 -1.06078,3.124405 l 0.93241,-0.257451 -0.13437,0.350165 c -0.0739,0.19259 0.13961,0.496793 0.47448,0.676007 3.75914,2.011832 7.64719,9.080882 10.53907,19.161613 0.45921,1.60073 1.23536,4.279636 1.72479,5.953125 0.98785,3.377767 1.91991,7.018361 2.7942,10.914062 0.65881,2.935519 0.53073,2.827414 2.09449,1.767956 z m -74.73862,-4.612227 c 1.77876,-7.30813 4.2824,-15.273673 9.49715,-30.215885 0.67047,-1.921133 1.21903,-3.558243 1.21903,-3.63802 0,-0.317294 -0.96635,-0.103164 -3.60821,0.799526 l -2.76444,0.944576 -0.73234,-0.16085 -0.73235,-0.16085 -0.39988,0.473044 c -8.98809,10.63259 -11.77599,28.519644 -5.42795,34.825567 1.8897,1.877167 1.76469,1.998709 2.94899,-2.867108 z m 85.73536,-2.237511 c 11.55249,-4.002865 12.41272,-10.675171 4.09484,-31.761445 -4.00435,-10.151262 -5.83302,-16.1494154 -7.94541,-26.0614571 -0.58924,-2.7648957 -1.14186,-5.3545049 -1.22805,-5.7546869 -0.22485,-1.043973 -0.30108,-0.981196 -2.26959,1.8689229 -4.27208,6.1853678 -12.37999,13.6644031 -15.72295,14.5034325 -0.91525,0.2297135 -0.83826,0.361523 1.86279,3.1888393 9.11209,9.5380533 15.50242,21.3037833 17.93677,33.0247393 l 0.54952,2.645834 0.002,3.571874 c 8.7e-4,1.964532 -0.12341,4.01836 -0.27618,4.564063 l -0.27776,0.992187 h 0.50833 c 0.27959,0 1.52434,-0.352036 2.76611,-0.782303 z m -95.31683,-1.135926 c -1.17686,-7.876288 1.74408,-18.049555 7.72964,-26.921353 2.16633,-3.210931 2.15481,-3.18467 1.86728,-4.258192 l -0.18383,-0.686317 1.74444,-2.286223 1.74443,-2.286224 -1.23179,-1.525375 c -0.67749,-0.838957 -1.28212,-1.581459 -1.34362,-1.650006 -0.0615,-0.06855 -0.2226,0.05052 -0.35798,0.264584 l -0.24615,0.389212 -0.005,-0.79375 c -0.006,-0.861802 -0.30697,-1.3968627 -2.11933,-3.7666247 -1.6944,-2.2155278 -3.54874,-4.8944184 -5.29166,-7.64464262 -0.64193,-1.01292808 -0.83711,-0.67352588 -2.16008,3.75624652 -1.74976,5.8588056 -3.36925,10.4358228 -5.98518,16.9154378 -3.90375,9.669484 -4.78634,12.679079 -5.00467,17.065624 l -0.13827,2.778124 0.44529,1.698635 c 1.31821,5.028497 6.43413,10.103437 10.40462,10.321262 l 0.33985,0.01864 z m 42.51974,-5.688541 c -0.002,-0.836745 -0.077,-1.969293 -0.16744,-2.516773 l -0.16452,-0.995418 -0.35674,0.296067 c -0.43319,0.359519 -3.54172,0.75938 -3.54172,0.455584 0,-0.118812 -0.18562,-0.216023 -0.41249,-0.216023 -0.22687,0 -0.33891,-0.119062 -0.24897,-0.264583 0.0899,-0.145521 0.0385,-0.264583 -0.11438,-0.264583 -0.15284,0 -0.63612,-0.374846 -1.07394,-0.832992 l -0.79606,-0.832991 -0.005,1.163721 c -0.003,0.640046 -0.11437,1.917966 -0.24766,2.839823 -0.38133,2.637422 -0.46845,2.583586 4.28788,2.649879 l 2.84427,0.03964 z m 6.58878,-0.926042 c -0.0261,-2.226459 -0.36835,-6.12717 -0.46155,-5.260808 -0.0243,0.225577 -0.23795,0.309537 -0.56807,0.223208 -0.29104,-0.07611 -0.52917,-0.03046 -0.52917,0.101433 0,0.355766 -0.63426,0.291174 -1.48748,-0.151481 l -0.75422,-0.391294 -0.59894,0.697031 c -0.32942,0.383366 -0.61472,0.827339 -0.63401,0.986606 -0.0193,0.159267 -0.0839,1.003951 -0.14359,1.877076 -0.0597,0.873125 -0.17445,2.212578 -0.25504,2.976562 l -0.14654,1.389063 h 2.80366 2.80366 z m 8.57881,1.940635 c 0.27141,-0.271409 0.14217,-7.294117 -0.13941,-7.575223 -0.20264,-0.20231 -4.18782,0.340842 -5.16954,0.704572 -0.36938,0.136857 -0.59531,0.119401 -0.59531,-0.046 0,-0.146608 0.26789,-0.374239 0.59531,-0.505847 l 0.59531,-0.239286 -1.08622,-0.01677 -1.08622,-0.01677 -0.16867,1.785937 c -0.0928,0.982266 -0.16951,2.846072 -0.17055,4.141793 l -0.002,2.355855 3.49642,-0.17696 c 1.92303,-0.09733 3.60187,-0.282414 3.73076,-0.411303 z m -23.70772,-3.622467 0.0559,-3.732353 -2.01792,-0.170577 c -2.55484,-0.215963 -2.4869,-0.328727 -2.87391,4.7696 l -0.18415,2.425984 1.29144,0.170518 c 0.7103,0.09378 1.47005,0.211336 1.68833,0.261223 0.21828,0.04989 0.75406,0.07209 1.19062,0.04933 l 0.79375,-0.04137 z m 27.86878,3.200379 1.20177,-0.173074 -0.10238,-1.764143 c -0.0563,-0.970278 -0.18038,-2.835705 -0.27573,-4.145392 l -0.17336,-2.38125 -1.03974,0.09226 c -1.03478,0.09182 -2.43494,0.520457 -1.80453,0.552424 0.47432,0.02405 0.41014,0.810521 -0.0661,0.810521 h -0.39688 l 0.004,3.108854 c 0.002,1.70987 0.0777,3.385587 0.16829,3.723815 l 0.16468,0.614961 0.55931,-0.132953 c 0.30763,-0.07312 1.10012,-0.210836 1.7611,-0.306026 z M 231.61977,36.08831 c 0.0849,-0.08486 0.16475,-1.315688 0.17753,-2.735174 l 0.0232,-2.580883 h -2.51354 -2.51354 l 0.072,1.440881 c 0.0396,0.792484 0.23334,1.625922 0.43048,1.852083 0.19715,0.226162 0.5211,0.871599 0.7199,1.434305 l 0.36146,1.023101 1.54407,-0.140011 c 0.84924,-0.07701 1.6135,-0.209442 1.69836,-0.294302 z m 16.84117,-3.468249 c 3.08706,-1.464908 1.37633,-7.078127 -2.27027,-7.449135 l -1.14095,-0.116081 -0.92077,0.477454 c -0.50642,0.2626 -1.19103,0.882015 -1.52136,1.376478 l -0.60058,0.899023 v 1.244662 1.244661 l 0.60058,0.899024 c 1.12767,1.688007 3.88387,2.358494 5.85335,1.423914 z m -23.0187,-3.721531 c 0.0883,-0.230183 0.1606,-2.005655 0.1606,-3.945493 v -3.526979 l -0.99219,-0.149718 c -1.46724,-0.221404 -6.35028,-0.315432 -6.53978,-0.12593 -0.48975,0.489749 2.23112,5.343207 4.09618,7.306739 l 0.81678,0.859896 h 1.14891 1.1489 z m 6.5106,-3.677469 v -4.095984 l -2.51354,0.02536 -2.51354,0.02536 v 4.070626 4.070626 h 2.51354 2.51354 z m 4.36563,3.697492 c 0.7276,-0.08467 1.69989,-0.211769 2.16065,-0.282436 l 0.83773,-0.128485 0.46866,-1.513522 c 0.25777,-0.832438 0.56747,-1.581362 0.68823,-1.664276 0.12076,-0.08291 0.29467,-1.12471 0.38646,-2.315104 l 0.16691,-2.164351 -1.69287,0.0016 c -0.93107,8.72e-4 -2.67988,0.07842 -3.88625,0.172323 l -2.19339,0.170737 0.12528,1.613614 c 0.0689,0.887488 0.1332,2.724403 0.14287,4.082033 l 0.0176,2.468418 0.7276,-0.143293 c 0.40019,-0.07881 1.32292,-0.212571 2.05053,-0.297244 z M 212.6533,26.406827 c 0.51759,-0.143788 1.28389,-0.619253 1.70289,-1.056588 l 0.76181,-0.795155 0.11378,-1.573036 0.11378,-1.573036 -0.58606,-1.210648 c -0.37674,-0.77824 -1.0218,-1.510437 -1.80601,-2.04999 l -1.21994,-0.839341 h -1.20703 c -1.40508,0 -2.98674,0.804529 -3.95461,2.011561 l -0.64239,0.801125 -0.11439,1.379385 -0.11439,1.379385 0.40243,0.770883 c 1.18902,2.277652 4.00534,3.4624 6.55013,2.755455 z m 11.65537,-9.452706 c 2.43334,-2.324795 2.40974,-2.231637 0.95896,-3.785975 -0.616,-0.659968 -1.65447,-1.850593 -2.30772,-2.645833 -0.65325,-0.7952407 -1.68534,-1.9816731 -2.29352,-2.6365168 -0.60819,-0.6548437 -1.3793,-1.5478124 -1.71357,-1.9843749 -0.33428,-0.4365625 -0.67141,-0.8532812 -0.74919,-0.9260416 -0.0778,-0.07276 -0.61029,-0.8283614 -1.18336,-1.6791133 -1.04267,-1.5478941 -1.73637,-2.0250532 -2.94403,-2.0250532 h -0.64423 v 1.1494657 c 0,0.6322061 0.0787,2.4358826 0.17491,4.00817 l 0.17491,2.8587043 1.84734,2.8048508 c 1.50635,2.287101 3.5115,4.940521 5.34346,7.071004 l 0.26459,0.307697 0.49176,-0.261098 c 0.27048,-0.143604 1.43133,-1.158753 2.57969,-2.255886 z m 11.63641,1.89197 c 0.63216,-0.570578 5.47653,-7.173652 6.81153,-9.2843676 0.96191,-1.5208471 0.95408,-1.4727159 0.88636,-5.4462395 l -0.0485,-2.8442707 h -1.00548 -1.00547 l -2.84477,3.2804166 c -1.56463,1.8042292 -5.52852,5.9278502 -8.80865,9.1636022 l -5.96387,5.883187 5.7073,-0.121538 5.70731,-0.121537 z M 198.9712,18.485642 c 4.6991,-1.792328 13.31646,-9.3159503 12.74229,-11.125004 -0.39025,-1.2295638 -2.45067,-0.3910164 -4.00612,1.6304022 -1.61905,2.1040838 -4.88527,4.6351278 -8.36002,6.4783198 -1.56193,0.82853 -3.16927,1.851266 -3.57188,2.272747 l -0.732,0.766329 0.46609,0.342489 0.46609,0.342489 1.12141,-0.210333 c 0.61677,-0.115682 1.46014,-0.33953 1.87414,-0.497439 z m 2.50689,-5.889818 c 0.68106,-0.465422 1.79804,-1.285825 2.48218,-1.823117 l 1.24388,-0.9768957 -1.38556,-1.8149033 c -5.09851,-6.6783994 -12.01494,-17.2565735 -17.07181,-26.110111 -5.34997,-9.366691 -13.34743,-26.836979 -15.70626,-34.309998 -1.35662,-4.297899 -1.52751,-4.685914 -2.60077,-5.905207 -2.88207,-3.274199 -4.35406,-1.975233 -4.14328,3.656249 l 0.12874,3.439583 0.83686,3.147273 c 3.34468,12.578688 13.38012,31.855501 26.39187,50.6954328 7.81048,11.3089392 7.85095,11.3501332 9.82415,10.0016942 z m 31.40079,-12.91366904 c 11.8962,-0.84782146 19.72957,-2.96970106 24.11281,-6.53160966 l 1.09406,-0.8890522 0.42591,-1.6955743 c 0.4243,-1.6891288 1.21931,-9.2159578 1.22136,-11.5631868 l 10e-4,-1.234107 -2.25242,-1.090235 c -5.36381,-2.596231 -10.68551,-2.861858 -15.26119,-0.761746 l -1.7709,0.812794 -0.66955,-0.759841 c -3.00957,-3.415381 4.17498,-8.55333 12.67802,-9.066537 3.02961,-0.182854 4.36562,-0.521991 4.36562,-1.10818 0,-0.579687 -4.02663,-7.099194 -8.7687,-14.197364 -3.44927,-5.163046 -7.94956,-12.378012 -8.97748,-14.39291 l -0.56348,-1.104515 -0.68586,0.901709 c -1.82845,2.403887 -6.28057,6.127384 -9.50302,7.947778 -3.97434,2.245148 -7.02213,3.719238 -13.8753,6.710897 l -2.55405,1.114939 -1.01782,-0.354366 c -0.55981,-0.194901 -1.45373,-0.356158 -1.98649,-0.358349 l -0.96867,-0.004 -0.68498,0.81405 -0.68498,0.81405 v 1.118781 1.118781 l -2.3151,2.900037 c -5.95067,7.454166 -5.96517,7.812134 -0.33073,8.1687 3.913,0.247627 5.38558,0.574699 7.80521,1.733597 l 2.11666,1.013794 1.54385,1.534494 c 2.48307,2.46802 2.75509,3.439673 1.3758,4.914359 l -0.66876,0.715019 -1.9192,-0.910764 c -4.65941,-2.211156 -8.90985,-1.913999 -15.90652,1.112059 l -2.34566,1.0145 0.15181,5.291666 c 0.0835,2.910417 0.26388,5.827448 0.40084,6.482291 l 0.24902,1.1906254 1.94244,1.8006223 c 5.55177,5.146445 19.24051,7.86479447 34.22638,6.79677726 z M 222.06187,-17.911077 c -0.40635,-3.569958 -0.15976,-4.894792 0.91106,-4.894792 h 0.52647 l 0.15875,0.79375 c 0.0873,0.436563 0.24517,0.79375 0.35078,0.79375 0.59789,0 2.12027,-0.695468 2.96746,-1.35562 1.21194,-0.944374 1.02865,-0.965931 2.64407,0.310986 l 1.35623,1.072032 0.8188,-0.07984 0.81881,-0.07984 0.0837,-0.727604 c 0.0993,-0.863056 0.63007,-0.939852 1.37149,-0.198437 l 0.52916,0.529166 -0.0152,1.521355 c -0.008,0.836744 -0.0999,1.997604 -0.20345,2.579687 l -0.18819,1.058333 -0.5559,-1.455208 -0.55591,-1.455208 -0.5489,0.08029 c -0.86407,0.126394 -2.71189,-0.463195 -3.61819,-1.15446 l -0.82738,-0.631072 -0.99337,0.675015 c -0.62613,0.425466 -1.51672,0.729029 -2.40901,0.821121 l -1.41565,0.146107 -0.16717,0.825249 c -0.0919,0.453886 -0.32255,1.182435 -0.51245,1.618998 l -0.34529,0.793749 z m 39.0989,14.5760532 c 7.34312,-6.3390622 11.40286,-13.0196082 12.6363,-20.7937612 l 0.35681,-2.248959 v -8.466666 c 0,-9.222604 -0.29348,-13.013922 -1.33204,-17.208105 -0.77579,-3.132992 -0.63467,-2.990586 -2.2253,-2.245575 l -1.30685,0.612094 -1.27207,-0.173326 c -0.7023,-0.09569 -1.85634,-0.535896 -2.5765,-0.982796 l -1.30442,-0.809472 -0.99133,0.447027 c -1.94675,0.877862 -3.88179,0.446324 -5.92805,-1.322027 l -1.05511,-0.911809 v -2.384837 -2.384836 l -0.98505,-0.4442 c -5.18026,-2.335971 -5.0425,-8.829347 0.23274,-10.970411 l 1.41377,-0.573809 v -0.597371 -0.597372 l -2.05052,-1.344736 c -11.40212,-7.477538 -27.61686,-9.588632 -40.74366,-5.304661 l -1.65147,0.538963 -0.72453,1.00795 c -0.99512,1.384391 -2.01899,2.025615 -4.11021,2.574099 l -1.78223,0.467443 -0.39859,1.371086 -0.39858,1.371086 -0.82835,0.697007 c -0.45559,0.383355 -1.31219,0.943848 -1.90356,1.245542 l -1.07522,0.548533 -1.53738,-0.139405 c -0.85743,-0.07775 -1.95271,-0.384457 -2.47645,-0.693471 -1.2688,-0.748612 -1.27516,-0.746501 -2.51229,0.834995 -0.59763,0.763985 -1.3278,1.672841 -1.6226,2.01968 -5.68588,6.689561 -10.02495,19.04084 -10.81666,30.789953 l -0.30672,4.551669 3.06729,6.090963 c 2.56001,5.083606 8.3764,15.567202 8.54389,15.399706 0.0267,-0.02667 0.0979,-2.136506 0.15826,-4.688522 l 0.10976,-4.640028 -2.11591,-0.98264 c -2.2347,-1.037807 -2.31828,-1.135626 -1.15111,-1.347273 0.4032,-0.07312 1.36536,-0.316741 2.13813,-0.54139 l 1.40503,-0.408453 0.006,-6.684594 0.006,-6.684593 0.42546,-2.684644 c 0.74424,-4.696084 1.26382,-5.377378 0.91404,-1.198518 -0.12575,1.502281 -0.19609,4.775784 -0.15632,7.274451 l 0.0723,4.543029 1.03371,-1.982784 c 3.89007,-7.46167 10.60371,-15.104775 13.78296,-15.691134 0.43656,-0.08052 2.16297,-0.795583 3.83646,-1.589036 1.67348,-0.793453 4.41192,-2.05932 6.08541,-2.813036 9.0319,-4.067844 15.63536,-8.938143 17.79955,-13.127844 0.56365,-1.091184 2.0442,-0.53125 2.0442,0.773103 0,0.446973 7.16007,12.126679 8.13329,13.267247 1.05745,1.239283 5.90882,8.785686 9.04139,14.064055 1.39523,2.35096 2.8099,4.73221 3.14372,5.291666 l 0.60694,1.017194 -0.1249,-4.497916 -0.12491,-4.497917 -0.45021,-1.455208 c -0.24761,-0.800364 -0.44201,-1.80769 -0.432,-2.238502 0.01,-0.430812 -0.0675,-0.644635 -0.17223,-0.475164 -0.10474,0.169472 -0.34141,-0.487714 -0.52593,-1.460413 -0.18451,-0.972699 -0.74641,-3.195895 -1.24866,-4.940436 -1.06913,-3.713619 -1.14773,-4.403097 -0.22777,-1.997984 1.34526,3.51704 2.94163,9.425754 2.63059,9.736789 -0.075,0.07502 -0.0275,0.267617 0.10561,0.427996 0.62935,0.758325 1.33239,8.645499 1.33865,15.018002 l 0.002,2.296329 1.52136,0.417987 c 0.83674,0.229893 1.99413,0.548657 2.57198,0.708364 l 1.05063,0.290376 -0.78605,0.419349 c -0.43232,0.230643 -1.50042,0.680695 -2.37354,1.000117 l -1.5875,0.580767 -0.16695,4.197273 c -0.26341,6.622608 -1.11606,13.0397098 -2.06289,15.5254349 -0.50928,1.3370346 -0.33596,1.3134308 1.40756,-0.1916907 z m 19.75736,-15.5157882 c 0.13515,-0.21075 0.2163,-2.526307 0.18033,-5.145682 l -0.0654,-4.7625 -0.66146,0.08327 c -0.3638,0.0458 -1.2163,0.08773 -1.89444,0.09319 l -1.23299,0.0099 -0.12016,0.459524 c -0.19993,0.764532 -0.23753,9.252827 -0.0424,9.568577 0.26971,0.436403 3.527,0.176354 3.83652,-0.306291 z m 5.53887,-5.044249 v -5.322525 l -0.59531,0.159538 c -0.32742,0.08774 -0.98226,0.161163 -1.45521,0.16315 l -0.85989,0.0036 0.004,4.564062 c 0.002,2.510234 0.0754,4.831953 0.16315,5.159375 l 0.15954,0.595312 h 1.29206 1.29205 z m 5.75959,3.146902 0.33858,-0.280999 -0.0725,-4.236826 -0.0725,-4.236826 -0.52917,-0.0742 c -0.29104,-0.04081 -1.03518,-0.148638 -1.65364,-0.239616 l -1.12448,-0.165415 v 4.624371 4.624371 l 0.7276,0.271246 c 0.78444,0.292431 1.84182,0.165648 2.38615,-0.286105 z m -11.73862,-16.883736 c -0.0217,-2.985092 -0.50867,-8.945648 -0.75076,-9.189395 -0.0386,-0.03885 -0.68149,0.07048 -1.42868,0.242958 l -1.35854,0.313588 0.12658,0.947667 c 0.32708,2.448741 0.65919,6.939059 0.65919,8.912717 v 2.184604 l 0.59531,0.110233 c 0.32742,0.06063 0.9525,0.09446 1.38906,0.07519 l 0.79375,-0.03505 z m 5.74728,2.721339 c 0.13817,-3.062287 -1.13396,-13.161726 -1.73336,-13.761124 -0.15314,-0.153138 -2.7983,0.775316 -2.79515,0.9811 0.001,0.08039 0.28843,1.813046 0.63823,3.850337 0.3498,2.037292 0.71082,4.537604 0.80227,5.55625 0.0914,1.018646 0.22249,2.21841 0.2912,2.666144 l 0.12493,0.814061 0.9888,0.276983 c 1.52474,0.427113 1.64776,0.399064 1.68308,-0.383751 z m 6.05259,-1.044782 c 0,-2.912005 -1.39688,-10.41398 -2.43942,-13.100958 l -0.58661,-1.511886 -0.6698,0.158038 c -0.36839,0.08692 -1.06185,0.31684 -1.54102,0.510932 l -0.87123,0.352893 0.37392,0.736372 c 0.82535,1.625421 2.55328,9.915043 2.55716,12.267794 0.002,1.500619 -0.0775,1.43316 1.69974,1.43316 h 1.47726 z m -112.14958,-13.5073 c 0.15688,-0.400183 0.94264,-2.632604 1.74612,-4.960938 0.80349,-2.328333 1.80328,-4.959238 2.22176,-5.846456 1.08499,-2.300295 1.36039,-1.913504 -2.89262,-4.062658 -3.2441,-1.639326 -3.01229,-1.650548 -3.83525,0.185677 -2.13167,4.756308 -3.40682,10.896483 -2.47641,11.924576 0.24208,0.267499 0.44015,0.696741 0.44015,0.953872 0,0.25713 0.20203,0.809521 0.44896,1.227536 l 0.44896,0.760025 1.20468,0.157508 c 0.66258,0.08663 1.38329,0.195661 1.60157,0.242293 0.21828,0.04663 0.48912,0.0986 0.60186,0.115477 0.11274,0.01688 0.33334,-0.29673 0.49022,-0.696912 z m 107.38172,-2.079249 c 1.47669,-0.590855 1.23602,-1.663693 -1.64065,-7.313459 -1.48887,-2.924139 -1.52735,-2.952284 -2.13953,-1.564741 -0.60832,1.378786 -0.60919,1.372822 0.76022,5.235183 0.66441,1.873939 1.25598,3.55599 1.31461,3.737891 0.13965,0.433278 0.42505,0.4174 1.70535,-0.09487 z m -17.22348,-5.032934 c 1.34532,-0.942302 1.69998,-3.14574 0.81886,-5.087543 -0.28784,-0.634355 -0.52335,-1.196593 -0.52335,-1.249416 0,-0.05282 0.59617,-0.352513 1.32484,-0.665976 0.72866,-0.313462 1.68116,-0.975758 2.11666,-1.471769 l 0.79183,-0.901838 -0.006,-0.850689 c -0.009,-1.300193 -0.90978,-3.020446 -1.89704,-3.622359 l -0.87528,-0.533644 -1.48567,-9.89e-4 -1.48567,-9.89e-4 -0.67273,0.529167 c -0.86319,0.678987 -0.93903,0.666595 -0.78701,-0.128599 0.34775,-1.819173 -0.99935,-3.933063 -2.71103,-4.254177 l -0.87623,-0.164381 -0.93132,0.44194 c -1.07333,0.509329 -1.76596,1.745978 -1.76596,3.153015 0,1.107801 -0.0629,1.131884 -1.07429,0.411677 -0.4175,-0.297289 -1.32885,-0.601948 -2.02521,-0.677021 l -1.26613,-0.136495 -0.92076,0.478583 c -3.48705,1.812446 -2.49719,6.064925 1.72128,7.394681 1.60565,0.506136 1.6118,0.5154 1.0532,1.58647 -2.05674,3.943625 2.80776,7.548442 5.38594,3.991221 l 0.36049,-0.497381 0.49699,0.817235 c 1.0374,1.705867 3.77708,2.459326 5.2334,1.439277 z m 8.88921,-0.357359 c 0.70438,-0.661731 0.83255,-1.31736 0.41137,-2.104332 l -0.25534,-0.477107 -1.90065,0.135991 -1.90065,0.135991 0.16794,-0.271731 c 0.0924,-0.149452 0.95003,-0.355486 1.90592,-0.457853 1.88236,-0.201585 2.1591,-0.617792 0.66772,-1.004248 -0.48013,-0.124413 -1.24593,-0.575816 -1.7018,-1.003119 -0.98231,-0.920765 -1.01135,-0.925611 -1.60644,-0.268039 -0.25451,0.281228 -0.61474,0.452996 -0.80052,0.381708 l -0.33777,-0.129616 0.12881,1.801105 c 0.0709,0.990607 0.008,2.23956 -0.14028,2.775449 -0.36009,1.303848 -0.27993,1.344856 2.38513,1.220193 l 2.30984,-0.108047 z m 2.43627,-6.793163 c 1.15651,-0.548796 2.12222,-1.985055 2.62228,-3.899986 l 0.38594,-1.477927 -0.43495,-0.663805 c -0.5799,-0.885052 -0.78256,-0.841639 -1.53292,0.328382 -1.15496,1.800895 -3.50201,3.492528 -4.86043,3.503144 -0.5377,0.0042 -0.37951,0.814716 0.3442,1.763548 l 0.67492,0.88487 h 0.93873 c 0.51631,0 1.35431,-0.197201 1.86223,-0.438226 z m -95.29655,-0.950836 c 0.27861,-0.96906 0.91762,-2.280653 1.19449,-2.451772 0.14163,-0.08753 0.25751,-0.39727 0.25751,-0.688312 0,-0.291042 -0.11557,-0.457743 -0.25682,-0.370447 -0.27954,0.172766 -1.72379,-0.485459 -2.43849,-1.111356 -0.24549,-0.214989 -0.59131,-0.301297 -0.76848,-0.191797 l -0.32214,0.199091 0.20707,-0.335045 c 0.11389,-0.184275 0.0998,-0.411031 -0.0314,-0.503902 -0.71747,-0.508078 -1.21728,-1.826537 -1.29559,-3.417674 -0.0504,-1.023898 -0.23559,-1.873701 -0.45648,-2.094591 l -0.37169,-0.37169 -0.2854,0.344008 c -0.29989,0.361468 -3.24102,7.736724 -3.24102,8.127258 0,0.242413 0.75398,0.626876 3.37059,1.718699 0.90794,0.378852 2.03903,0.925532 2.51354,1.214843 1.12685,0.687047 1.7133,0.666533 1.92429,-0.06731 z m 93.20339,-4.515184 c 1.91535,-1.276974 2.91422,-4.967684 2.04927,-7.571822 l -0.45194,-1.360646 -0.57072,0.208462 c -0.31389,0.114654 -1.30821,0.203162 -2.2096,0.196684 l -1.63888,-0.01178 -0.53897,-0.487759 -0.53897,-0.48776 -0.401,0.332803 c -0.57426,0.476592 -1.19642,2.773962 -1.19642,4.417845 v 1.406573 l 0.94662,0.992801 c 0.52064,0.54604 1.13084,1.349988 1.35599,1.786551 0.86309,1.673537 1.40452,1.771506 3.19462,0.578045 z m -89.17644,-2.085894 c 0.47034,-0.282608 1.09564,-0.851553 1.38956,-1.264321 l 0.53439,-0.750489 -1.18301,-0.748429 c -1.3293,-0.840981 -2.49352,-2.694795 -2.68153,-4.269905 -0.0646,-0.541203 -0.38194,-1.341194 -0.7052,-1.777757 l -0.58773,-0.793749 -0.0947,-2.182813 -0.0947,-2.182812 h -0.59171 c -4.02407,0 -4.58931,7.364707 -0.62759,8.17719 l 0.76644,0.157184 -0.69327,0.926042 -0.69327,0.926042 0.10889,1.391097 0.10889,1.391097 0.62494,0.665221 c 1.14994,1.224049 2.74085,1.345141 4.41968,0.336402 z m 99.82292,0.356969 c 4.79144,-2.543658 1.7267,-9.510225 -4.50205,-10.233753 l -1.4552,-0.169037 -0.32113,0.749752 c -0.17661,0.412363 -0.46528,0.94482 -0.64147,1.183237 l -0.32035,0.433485 0.57533,1.822938 c 0.31643,1.002616 0.57532,2.13925 0.57532,2.525853 0,2.895795 3.54139,5.040281 6.08955,3.687525 z m -25.76766,-6.062037 c 0.74615,0.05901 2.02755,0.435697 2.84853,0.837361 l 1.49226,0.730099 1.17433,-0.56848 c 0.64587,-0.312664 1.84175,-1.289383 2.6575,-2.170487 l 1.48317,-1.602007 -0.19156,-0.430742 c -0.10536,-0.236909 -0.31435,-1.042821 -0.46441,-1.790916 l -0.27284,-1.360173 -1.20516,-0.168927 c -0.66284,-0.09291 -2.29315,-0.242053 -3.62291,-0.33143 l -2.41774,-0.162504 -1.20514,0.583402 c -2.80581,1.358266 -5.51342,5.62675 -4.78059,7.536476 l 0.15428,0.402056 1.49701,-0.805495 1.49701,-0.805495 z m -84.03855,-2.435369 c 0,-1.007464 -4.13691,-1.764989 -11.90625,-2.180195 l -1.4552,-0.07777 v 1.058333 1.058333 l 2.64583,0.188301 c 1.45521,0.103566 3.71739,0.282775 5.02708,0.398244 1.30969,0.115468 3.12539,0.236118 4.0349,0.26811 l 1.65364,0.05817 z m 13.95677,-1.238258 c 0.61847,-0.354825 1.12631,-0.729415 1.12853,-0.832421 0.002,-0.103007 0.11643,-0.365029 0.25377,-0.582272 l 0.24972,-0.394988 1.05872,1.033813 1.05872,1.033814 1.45981,0.121059 1.45982,0.121059 0.96775,-0.967756 0.96776,-0.967756 -0.14395,-1.587525 c -0.0792,-0.873138 -0.34296,-1.891255 -0.5862,-2.26248 -0.52165,-0.79613 -0.58132,-0.724409 0.94766,-1.138899 3.78057,-1.02487 4.58956,-5.259777 1.41527,-7.408724 l -0.94911,-0.642539 -1.28111,-0.01892 -1.28111,-0.01892 -0.8105,0.598869 -0.81051,0.598869 0.19253,-0.863452 c 0.1059,-0.474899 0.18784,-1.582751 0.18209,-2.461894 l -0.0105,-1.598441 -0.61041,-0.987661 c -1.0407,-1.683893 -2.6589,-2.178173 -4.41024,-1.347113 l -0.88819,0.42148 -0.5685,1.174358 -0.56849,1.174362 0.0957,2.108332 c 0.0527,1.159583 0.0834,2.108333 0.0683,2.108333 -0.0151,0 -0.42266,-0.197153 -0.90569,-0.438118 -2.38674,-1.190664 -5.27294,0.127135 -6.32207,2.886573 -0.64176,1.687935 0.81194,3.786341 3.16431,4.567671 0.71987,0.239104 1.30886,0.459522 1.30886,0.489818 0,0.0303 -0.23813,0.522152 -0.52917,1.093014 -2.00626,3.935167 0.98821,7.115892 4.69635,4.988455 z m 14.55868,0.169809 c 1.03257,-0.629557 1.38247,-1.43489 1.38247,-3.181907 v -1.296486 l -0.83004,-0.945359 c -0.45652,-0.519947 -1.06394,-1.070543 -1.34983,-1.223545 l -0.5198,-0.278187 -0.70068,0.654967 c -0.38538,0.360232 -1.07239,0.842324 -1.52669,1.071315 l -0.82601,0.416347 0.28299,1.060195 0.28298,1.060195 -0.34917,1.362364 -0.34916,1.362364 0.36302,0.229956 c 0.19966,0.126475 1.01786,0.231333 1.81822,0.233018 l 1.45521,0.0031 z m 71.62027,0.154245 c 3.30373,-1.380389 1.80352,-6.238551 -1.92648,-6.238551 h -1.30038 l -0.69076,0.543353 c -3.18301,2.50376 0.10742,7.287199 3.91762,5.695198 z m -29.15061,-2.256547 c 0.48891,-0.429272 1.28485,-1.56052 1.76875,-2.513883 l 0.87982,-1.733388 0.12694,-1.977966 0.12694,-1.977965 -0.43377,-0.66202 c -0.23858,-0.364111 -0.77814,-0.840098 -1.19903,-1.057749 l -0.76526,-0.395729 -0.30418,1.746744 c -0.42318,2.430121 -1.79858,5.037528 -3.4319,6.50602 l -1.3358,1.200998 1.25317,0.819604 c 1.56451,1.023231 2.1908,1.031798 3.31432,0.04533 z m 40.29205,-0.936955 c 1.35577,-0.794533 2.17341,-2.035781 2.39212,-3.631464 l 0.16232,-1.184268 -0.52811,-1.193878 c -0.96116,-2.172872 -3.37648,-3.342698 -5.88266,-2.849189 -0.65484,0.12895 -1.28258,0.23964 -1.39497,0.245978 -0.39031,0.02201 -2.65168,2.266106 -3.27241,3.24741 -0.7792,1.231838 -0.77704,1.400972 0.0301,2.360238 0.35993,0.427747 0.79025,1.278372 0.95626,1.890277 0.16602,0.611905 0.34405,1.261383 0.39562,1.443284 l 0.0938,0.33073 h 2.96162 2.96162 z m -17.89726,-2.49058 c 1.33083,-1.868981 -2.53512,-9.201471 -5.78349,-10.969455 l -1.28156,-0.697513 h -1.24743 -1.24742 l -0.89958,0.899583 -0.89959,0.899583 v 1.624499 1.624499 l 0.52496,1.028994 c 0.28872,0.565947 1.11745,1.740955 1.84162,2.611128 l 1.31666,1.582133 1.49862,0.708962 c 1.35095,0.639103 4.02936,1.380375 5.18502,1.435 0.24475,0.01157 0.69124,-0.324767 0.99219,-0.747413 z m -26.19514,-0.620615 c 1.34567,-1.402756 2.19266,-3.532803 2.23568,-5.622395 l 0.0327,-1.5875 -1.4552,-0.710164 -1.45521,-0.710163 -0.16015,0.710163 c -0.0881,0.39059 -0.30859,1.365008 -0.49004,2.165372 -0.18144,0.800365 -0.49633,1.965385 -0.69975,2.588934 -1.0477,3.21154 0.13895,5.097411 1.99199,3.165753 z m -34.52753,-0.593037 0.43836,-0.923766 -0.52101,-1.686823 c -0.28655,-0.927753 -0.60469,-2.53612 -0.70698,-3.57415 -0.10228,-1.03803 -0.22686,-1.887327 -0.27684,-1.887327 -0.05,0 -0.7406,0.307628 -1.5347,0.683618 l -1.44382,0.683618 0.1529,2.425236 0.15291,2.425236 1.48212,1.377133 c 1.77371,1.648067 1.70805,1.634184 2.25706,0.477225 z m 21.6877,-0.597588 c 0.68404,-0.691224 1.61064,-1.999469 2.05913,-2.907211 l 0.81543,-1.65044 0.009,-1.789143 0.009,-1.789143 -0.8076,-1.595619 c -0.92678,-1.831061 -2.52034,-3.388154 -4.25099,-4.153704 l -1.1989,-0.53033 -2.18678,0.11478 -2.18679,0.11477 -1.0635,0.70379 c -1.64821,1.09074 -2.94634,2.518035 -3.6347,3.996364 l -0.62858,1.349949 -0.003,1.516 c -0.001,0.8338 0.17783,1.964894 0.39833,2.513542 l 0.40092,0.997541 1.04056,0.595313 c 0.59956,0.343012 1.48631,0.595312 2.09232,0.595312 h 1.05176 l 0.81405,-0.684978 c 1.35045,-1.136326 0.99587,-1.544278 -1.83178,-2.107474 -2.78591,-0.554885 0.42784,-3.314175 3.89012,-3.340009 l 1.64116,-0.01225 1.20208,0.581917 c 0.66115,0.320054 1.44128,0.886007 1.73363,1.257674 l 0.53155,0.675758 -0.30685,0.369736 c -0.16877,0.203355 -1.00282,0.563232 -1.85344,0.799725 l -1.54658,0.429989 v 0.444781 c 0,1.125029 2.64642,2.028232 3.93001,1.341279 0.33051,-0.176885 0.5679,-0.197343 0.5679,-0.04894 0,0.461595 -0.79563,1.062189 -1.7598,1.328409 l -0.9482,0.261811 -1.33872,-0.253884 c -0.7363,-0.139636 -2.42661,-0.177412 -3.75625,-0.08395 l -2.41753,0.169935 -0.63941,-0.342201 c -0.35167,-0.188211 -0.8636,-0.62722 -1.13762,-0.975575 -0.27401,-0.348355 -0.55775,-0.573834 -0.63052,-0.501064 -0.23242,0.232422 0.96233,1.928913 2.05126,2.912699 l 1.05332,0.951609 h 3.79569 3.79569 z m -15.91009,-0.696534 1.22951,-1.424138 0.004,-3.335364 0.004,-3.335363 -0.81591,-0.421922 c -1.71031,-0.884434 -4.41467,-0.291518 -5.05218,1.107662 l -0.30358,0.666283 0.32852,2.272136 c 0.39987,2.765678 0.74378,3.632329 1.9481,4.909278 1.18519,1.256667 1.19489,1.255066 2.65707,-0.438572 z m 23.21308,1.033363 c 0,-0.214927 0.29107,-0.581492 0.64682,-0.814589 0.74804,-0.490137 1.55554,-2.697536 2.04353,-5.586227 l 0.32043,-1.8968 -0.36164,-0.43575 c -0.19891,-0.239662 -0.71745,-0.619746 -1.15233,-0.844631 l -0.79069,-0.408882 -1.27033,0.122062 c -0.69867,0.06713 -1.44987,0.271074 -1.66932,0.453201 l -0.399,0.331139 0.008,2.885342 c 0.004,1.586939 -0.0662,3.005201 -0.15676,3.151694 -0.0905,0.146493 0.34942,0.97238 0.97768,1.835305 1.11568,1.532397 1.80376,1.993261 1.80376,1.208136 z m 18.26679,-0.672935 c 1.23538,-0.630247 1.24229,-0.674593 0.38657,-2.483421 -0.36367,-0.768733 -0.73124,-2.100814 -0.81683,-2.960178 l -0.15561,-1.562482 0.41939,-0.982337 c 1.86457,-4.367396 6.29882,-5.202446 10.29276,-1.938327 l 1.53787,1.256848 0.37194,-0.491009 c 0.20458,-0.270054 0.37574,-0.646963 0.38037,-0.837575 0.005,-0.190612 0.62922,-1.002985 1.388,-1.805273 l 1.37958,-1.45871 -0.3942,-0.70231 c -0.21681,-0.38627 -0.80786,-0.9834 -1.31344,-1.32694 l -0.91924,-0.62463 -1.14713,0.1257 -1.14713,0.12571 -0.86606,0.83942 -0.86606,0.83942 0.12881,-1.34056 c 0.0709,-0.73731 -0.0201,-1.87252 -0.20216,-2.52268 l -0.33098,-1.18212 -0.94535,-0.72106 -0.94535,-0.72105 -1.4695,-0.0939 -1.4695,-0.0939 -0.8779,0.55082 c -0.53462,0.33543 -1.09052,1.03149 -1.42166,1.78009 l -0.54377,1.22928 0.14036,1.47564 c 0.0772,0.81161 0.21903,1.67191 0.31518,1.91179 l 0.17482,0.43614 -1.27477,-0.64879 -1.27476,-0.6488 -0.92604,0.17078 c -1.36488,0.25171 -2.31754,0.90878 -2.80404,1.934 l -0.43134,0.908978 0.13641,1.210202 0.13641,1.210203 0.75367,0.603806 c 0.72595,0.581589 1.52225,0.905369 3.06878,1.247779 0.90527,0.200432 0.92661,0.504568 0.063,0.898051 -0.36553,0.166545 -1.02037,0.86381 -1.45521,1.549478 l -0.79061,1.246668 v 1.023927 c 0,2.357713 1.75378,3.571652 3.71471,2.571262 z m 18.59496,-0.643561 1.80447,-0.01252 0.28093,-0.501855 c 0.15452,-0.276021 0.56861,-1.228521 0.9202,-2.116667 l 0.63927,-1.614811 -9e-5,-1.789931 -9e-5,-1.78993 -0.4318,-0.723611 c -0.63527,-1.064566 -1.53678,-1.636024 -2.86898,-1.818623 l -1.18253,-0.162085 -1.22799,0.594457 c -0.75565,0.365808 -1.4953,0.9984 -1.92297,1.644662 l -0.69499,1.050206 -0.10862,1.501601 -0.10862,1.501601 0.68966,1.697261 c 0.37931,0.933494 0.87672,1.98275 1.10535,2.33168 l 0.41569,0.634419 0.44332,-0.206667 c 0.24383,-0.113667 1.25534,-0.212301 2.24779,-0.219187 z m -23.89717,-5.153878 c 0,-0.135612 -0.34879,-0.49493 -0.7751,-0.798484 -0.4263,-0.303555 -1.04509,-0.988784 -1.37509,-1.522732 l -0.6,-0.970815 0.0284,-1.73643 c 0.0156,-0.955037 0.0688,-1.915024 0.11832,-2.133304 l 0.09,-0.39688 -2.24896,0.0952 c -1.23693,0.0524 -2.40269,0.17889 -2.59058,0.2812 l -0.34163,0.18601 0.60621,0.7708 c 0.36803,0.467962 0.60621,1.132487 0.60621,1.691342 v 0.92053 l 1.5875,1.135206 c 2.52734,1.807277 4.89479,3.005981 4.89479,2.478367 z m -45.61174,-2.539537 c 4.45458,-1.992866 4.36816,-1.891009 2.28234,-2.689885 -2.80295,-1.073543 -6.28219,-1.453213 -8.26435,-0.901853 l -0.66146,0.183991 v 1.149417 1.149417 l 1.24432,0.315944 c 0.68437,0.173769 1.6964,0.626272 2.24896,1.005562 0.55255,0.37929 1.01764,0.696775 1.03352,0.705523 0.0159,0.0087 0.96839,-0.404405 2.11667,-0.918116 z m 30.34291,-2.546774 c 0.31426,-0.168187 1.22917,-0.376547 2.03313,-0.463021 l 1.46174,-0.157226 -0.0954,-1.565027 c -0.16357,-2.6828 -1.68419,-6.01965 -3.53593,-7.75928 l -0.6146,-0.57738 0.0963,2.70188 0.0963,2.70189 -0.6726,1.84141 -0.6726,1.84141 0.53804,0.870568 c 0.60954,0.986253 0.59181,0.978919 1.36564,0.564776 z m -18.2071,-0.950976 c 0.36408,-0.545708 0.8544,-1.257148 1.0896,-1.580988 l 0.42765,-0.58881 -0.31266,-1.3033 c -0.17196,-0.71682 -0.3929,-2.35536 -0.49097,-3.64119 l -0.17831,-2.33789 -0.94834,1.45187 c -1.35349,2.07215 -1.86409,3.54706 -2.02459,5.84826 l -0.14055,2.01514 0.56455,0.564547 c 0.80212,0.802113 1.25772,0.705355 2.01362,-0.427639 z m 15.96158,-5.490108 c 0.12741,-3.34937 -0.13369,-4.60561 -1.28863,-6.19996 l -0.81288,-1.12215 -1.45097,-0.66428 -1.45097,-0.66428 -1.93429,0.008 -1.93428,0.008 -1.18314,0.55614 c -2.91406,1.36977 -4.78645,6.79777 -3.50069,10.14839 l 0.15062,0.39253 1.63531,-0.67252 c 1.00521,-0.41339 2.36409,-0.72197 3.52669,-0.80084 l 1.89138,-0.12831 1.41591,0.44723 c 0.77875,0.24598 2.07076,0.89138 2.87112,1.43424 l 1.45521,0.987 0.24945,-0.40898 c 0.13719,-0.22493 0.29927,-1.71866 0.36016,-3.31939 z m -20.85023,2.82615 c 0,-1.02196 0.71581,-3.34864 1.52067,-4.94281 l 0.66791,-1.32292 3.20519,-3.11579 3.20519,-3.1158 1.4552,-0.72066 1.45521,-0.72067 2.51354,0.003 2.51355,0.003 1.2481,0.57382 c 0.68645,0.3156 1.82989,1.11802 2.54098,1.78315 0.71108,0.66514 1.38341,1.20934 1.49407,1.20934 0.11066,0 0.64785,0.50331 1.19375,1.11847 l 0.99255,1.11846 1.02777,-0.002 1.02778,-0.002 4.47249,-2.1779 c 6.05376,-2.9479 5.81557,-2.60742 -1.35889,1.94251 -2.07016,1.31287 -2.09312,1.38529 -1.02363,3.22852 0.4855,0.83674 1.02623,1.96618 1.20162,2.50986 0.17539,0.54367 0.42972,1.057 0.56519,1.14072 0.45966,0.28409 7.77626,-0.47972 9.3407,-0.97511 0.85571,-0.27096 1.77385,-0.49266 2.04033,-0.49266 h 0.4845 l 0.27837,-1.03381 c 0.15311,-0.5686 0.66372,-1.60787 1.13468,-2.30949 l 0.8563,-1.27567 1.71979,-0.89109 1.71979,-0.89109 -0.0798,-0.83432 c -0.35532,-3.71447 -3.03019,-8.35618 -7.26576,-12.60828 -17.2084,-17.27558 -51.20496,-12.02266 -51.37101,7.9375 l -0.0209,2.51354 0.76365,2.32986 c 1.28812,3.93 3.73912,7.10323 7.19315,9.31274 2.59383,1.65925 3.28799,1.80884 3.28799,0.70855 z"
       id="path66" /></g></svg>
