<?xml version="1.0" encoding="UTF-8" standalone="no"?>
<!-- Created with Inkscape (http://www.inkscape.org/) -->

<svg
   width="225.70326mm"
   height="241.62358mm"
   viewBox="0 0 225.70328 241.62363"
   version="1.1"
   id="svg1"
   xml:space="preserve"
   xmlns="http://www.w3.org/2000/svg"
   xmlns:svg="http://www.w3.org/2000/svg"><defs
     id="defs1"><clipPath
       clipPathUnits="userSpaceOnUse"
       id="clipPath3"><path
         id="path3"
         style="fill:#ff0000;fill-opacity:1;fill-rule:nonzero;stroke:none;stroke-width:0.264583"
         d="M 117.46378,-9.1863687 V 177.1666 H 291.49502 V -9.1863687 Z M 147.33431,111.9313 c 4.14894,-0.0917 4.55169,4.35712 -0.092,5.08445 -1.19542,0.18724 -2.39032,0.38079 -3.5698,0.65474 -1.90165,0.43105 -3.80094,0.86919 -5.68493,1.37304 -4.84343,1.29532 -6.43119,-3.45704 -1.60197,-4.80436 2.03917,-0.56891 4.10352,-1.04005 6.16758,-1.50792 1.28939,-0.29942 2.59504,-0.5123 3.90158,-0.71882 0.30951,-0.0489 0.60293,-0.075 0.87953,-0.0811 z" /></clipPath><clipPath
       clipPathUnits="userSpaceOnUse"
       id="clipPath29"><path
         id="path30"
         style="fill:#ff0000;fill-opacity:1;fill-rule:nonzero;stroke:none;stroke-width:0.264583"
         d="M -43.229648,-9.2280016 V 216.91788 H 174.31521 V -9.2280016 Z M 64.45887,27.798679 c 2.205167,0.07543 3.149314,2.777559 0.336931,5.092713 -1.01463,0.835234 -0.499494,0.392851 -1.540992,1.333252 -0.05085,0.0495 -0.09987,0.101018 -0.150379,0.150894 0.220084,0.811057 0.124675,1.87329 -0.520898,3.115572 -0.875451,1.684613 -1.748676,3.370175 -2.654102,5.038968 -0.9775,1.836439 -1.88347,3.711528 -2.891295,5.530414 -2.429936,4.385429 -6.499333,1.653471 -4.214214,-2.809132 0.315439,-0.616018 0.63763,-1.228696 0.952912,-1.844849 -0.0069,-0.02252 -0.01495,-0.04284 -0.0217,-0.06563 -0.595128,-2.008016 -0.06926,-3.784214 0.689364,-5.659086 1.273995,-2.682428 3.163792,-4.981609 5.254458,-7.063137 1.251259,-1.138375 0.627229,-0.597072 1.867588,-1.628325 0.963808,-0.80132 1.889408,-1.157192 2.675289,-1.190625 0.07368,-0.0031 0.145905,-0.0035 0.217041,-0.0011 z M 107.156,139.45233 v 5.3e-4 h 1.33171 c 3.18466,0 4.31777,2.03379 3.45198,3.52174 1.2611,1.23575 0.77004,3.28353 -1.76526,3.91088 -0.54914,0.61592 -1.49045,1.10474 -2.85099,1.26142 -0.13698,0.0157 -0.27436,0.0312 -0.41135,0.047 -2.65141,0.30532 -4.05473,-0.97849 -4.03644,-2.33215 -0.3479,-0.33509 -0.56463,-0.74464 -0.62167,-1.18649 -3.34332,-0.94574 -2.811804,-4.86069 1.59628,-4.86069 h 0.98857 c 0.11851,0 0.23333,0.004 0.34624,0.009 0.53882,-0.2172 1.16849,-0.37104 1.97093,-0.37104 z" /></clipPath><clipPath
       clipPathUnits="userSpaceOnUse"
       id="clipPath48"><path
         id="path49"
         style="fill:#ff0000;fill-opacity:1;fill-rule:nonzero;stroke:none;stroke-width:0.264583"
         d="M 41.090804,5.5343725 V 221.55581 H 225.28628 V 5.5343725 Z M 200.73584,27.81415 c 1.72945,0.01908 2.64943,1.415222 2.08618,2.936254 0.0339,0.915892 -0.44821,2.031525 -1.67277,3.09025 -1.14726,0.991904 -0.56367,0.491389 -1.75183,1.502235 -1.46438,1.223881 -2.91427,2.468533 -4.41523,3.645773 -1.77565,1.392637 -3.30034,1.324822 -4.09174,0.539502 -1.31401,0.83852 -2.64966,1.641588 -3.98426,2.445845 -4.29416,2.587749 -6.80634,-1.80888 -2.51251,-4.397148 1.38418,-0.834355 2.77707,-1.656016 4.13257,-2.53783 2.02228,-1.284452 4.05223,-2.553893 5.99602,-3.95583 1.19062,-0.885809 2.41863,-1.714333 3.69021,-2.478919 0.9399,-0.565155 1.79944,-0.798117 2.52336,-0.790132 z m -20.13521,16.378329 c 1.02365,0.01453 1.87727,0.799764 2.03296,2.110465 0.71756,0.616212 1.16959,1.820418 0.93741,3.568774 -0.19898,1.498301 -0.82482,2.881966 -1.4888,4.223515 -0.63096,1.325187 -1.47451,2.521106 -2.32492,3.70985 -0.38328,0.580088 -0.18725,0.28308 -0.58808,0.890902 -1.63866,2.484932 -3.79495,2.511833 -4.69894,1.247471 -2.33551,3.060126 -5.91882,0.907738 -3.88814,-3.193087 0.88107,-1.779241 1.75108,-3.563456 2.63189,-5.342829 0.83405,-1.68497 1.98081,-2.401348 2.97139,-2.401401 0.1436,-8e-6 0.2783,0.0337 0.41393,0.06305 0.3156,-0.730126 0.62695,-1.462167 0.92862,-2.198317 0.77233,-1.88468 2.00662,-2.693514 3.07268,-2.678388 z" /></clipPath><clipPath
       clipPathUnits="userSpaceOnUse"
       id="clipPath83"><path
         id="path84"
         style="fill:#ff0000;fill-opacity:1;fill-rule:nonzero;stroke:none;stroke-width:0.264583"
         d="M 132.47438,-7.0202515 V 208.9707 H 400.12987 V -7.0202515 Z M 255.34182,107.77274 c 0.0472,-0.001 0.0949,-5.3e-4 0.14262,0.002 1.04471,0.054 2.1902,0.94645 2.81327,2.8856 0.30713,0.9559 0.45596,1.9522 0.57981,2.94557 0.10458,0.89626 0.14611,1.79819 0.17311,2.69957 0.0488,0.45711 0.0906,0.91485 0.13385,1.37252 0.0315,0.33386 -0.006,0.60608 -0.0331,0.88729 0.91737,0.0871 1.97159,0.68687 2.89285,1.9823 0.56984,0.80129 1.07462,1.64469 1.57303,2.49133 0.43109,0.67097 0.92631,1.29541 1.37563,1.95389 0.093,0.15699 0.18605,0.31429 0.27905,0.47128 1.3533,2.28542 0.70235,4.10077 -0.55914,4.6452 -1.0202,0.91063 -2.90824,0.69124 -4.38526,-1.56166 -0.23927,-0.36498 -0.47787,-0.72951 -0.72864,-1.08675 -0.21649,-0.33577 -0.38754,-0.69537 -0.57412,-1.04646 0.60841,2.15867 -0.88886,3.60669 -2.70992,3.036 -0.61576,0.27533 -1.36103,0.46037 -2.34197,0.39946 -1.46689,-0.0911 -2.93256,-0.19318 -4.3987,-0.29559 -1.7965,-0.11093 -3.59744,-0.19829 -5.3976,-0.19327 -5.01363,0.0148 -5.01363,-5.04892 0,-5.06481 1.90344,-0.006 3.80708,0.0877 5.70662,0.20308 0.63529,0.0442 1.27091,0.0848 1.90635,0.12817 -2.17205,-2.83957 -4.35986,-5.66727 -6.60115,-8.45273 -2.16084,-2.68543 -1.06507,-5.11916 0.85783,-5.11337 0.62825,0.002 1.34535,0.27748 2.06551,0.87642 0.36368,-0.69499 0.98791,-1.10018 1.68982,-1.13222 0.5054,-0.0231 1.05025,0.14938 1.56682,0.54311 0.0929,-0.0187 0.17783,-0.0646 0.27389,-0.0698 0.59436,-0.0317 1.23871,0.20301 1.81539,0.73433 -0.66441,-2.60236 0.46874,-4.21014 1.88413,-4.24058 z m 0.76842,13.7263 c -0.0318,0.10382 -0.0684,0.20282 -0.10852,0.29765 0.1244,0.16259 0.24889,0.32511 0.37311,0.48783 -0.0977,-0.26391 -0.21978,-0.53471 -0.25425,-0.77928 -0.004,-0.001 -0.007,-0.005 -0.0104,-0.006 z m 30.3289,39.33455 h 0.77722 c 5.01355,0 5.01355,5.0648 0,5.0648 h -0.77722 c -5.01356,0 -5.01356,-5.0648 0,-5.0648 z" /></clipPath><clipPath
       clipPathUnits="userSpaceOnUse"
       id="clipPath102"><path
         id="path103"
         style="fill:#ff0000;fill-opacity:1;fill-rule:nonzero;stroke:none;stroke-width:0.264583"
         d="M 245.09482,-91.085287 V 149.53775 H 484.24663 V -91.085287 Z M 386.76007,31.187352 h 1.65003 c 5.01366,0 5.01366,5.064808 0,5.064808 h -1.65003 c -5.01363,0 -5.01363,-5.064808 0,-5.064808 z M 278.24163,82.628657 c 1.01789,-0.02799 2.2471,0.632241 3.22823,2.236039 0.35364,0.578075 0.76779,1.114584 1.156,1.669148 -0.17857,-0.354603 -0.18541,-0.571659 0.17415,-0.552421 0.23066,0.01233 0.61185,0.121491 1.19424,0.352951 1.53042,0.608219 2.70481,1.775786 3.91915,2.844787 1.81743,1.599938 0.34244,0.262279 2.18642,1.956988 3.60359,3.311803 0.41639,6.943077 -3.16724,3.953764 -0.79615,1.298192 -2.87067,1.492136 -4.73046,-0.775663 -1.83595,-2.238679 -3.67165,-4.498713 -5.15938,-6.989754 -1.6067,-2.690249 -0.49754,-4.649169 1.19889,-4.695839 z m 48.66887,29.818333 c 0.83168,-0.0227 1.84441,0.35214 2.89336,1.2945 1.31333,1.17988 2.46338,2.50869 3.55327,3.89278 0.66124,0.8467 0.33676,0.43396 0.97307,1.24024 1.19229,1.51076 1.33855,2.90191 0.89349,3.8225 -0.0163,1.85972 -2.19841,3.00623 -4.86947,1.01441 -1.74706,-1.30277 -3.55293,-2.52496 -5.46892,-3.56826 -3.57759,-1.94805 -3.2943,-5.2782 -0.6165,-5.34076 0.19127,-0.004 0.4163,0.0413 0.63148,0.0718 -0.16797,-1.35773 0.69344,-2.39125 2.01022,-2.42724 z" /></clipPath><clipPath
       clipPathUnits="userSpaceOnUse"
       id="clipPath113"><path
         id="path114"
         style="fill:#ff0000;fill-opacity:1;fill-rule:nonzero;stroke:none;stroke-width:0.264583"
         d="m 157.06646,-116.17763 v 259.5609 h 295.04349 v -259.5609 z M 393.26393,24.765705 c 0.58122,0.01077 1.2423,0.145151 1.96835,0.439251 0.12003,0.04866 0.24016,0.09764 0.36019,0.146243 4.64687,1.882275 2.73607,6.583688 -1.90686,4.691703 -0.14942,-0.06089 -0.29912,-0.121518 -0.44855,-0.182417 -3.9175,-1.596369 -3.11177,-5.15297 0.0269,-5.09478 z M 342.53524,35.83583 c 1.18144,-0.02069 2.40504,1.064402 2.64894,3.401861 0.1717,1.645558 0.30485,3.295441 0.42064,4.945949 0.0645,0.913149 0.11065,1.827168 0.15555,2.741435 0.24595,5.007597 -4.81334,5.255694 -5.05861,0.248047 -0.043,-0.878927 -0.0868,-1.757637 -0.14883,-2.635496 -0.10709,-1.52953 -0.23333,-3.057792 -0.3824,-4.583702 -0.25896,-2.650887 1.02575,-4.094644 2.36471,-4.118094 z m -33.1494,10.456727 c 3.77235,0.03375 4.17655,4.205814 -0.27905,5.095812 -2.7794,0.55518 -5.59728,1.027409 -8.44083,1.011309 -5.01353,-0.0284 -5.01357,-5.084189 0,-5.064292 2.50698,0.0099 4.99365,-0.416576 7.44296,-0.912606 0.46068,-0.09329 0.8867,-0.133723 1.27692,-0.130223 z" /></clipPath><clipPath
       clipPathUnits="userSpaceOnUse"
       id="clipPath120"><path
         id="path121"
         style="fill:#ff0000;fill-opacity:1;fill-rule:nonzero;stroke:none;stroke-width:0.264583"
         d="M 344.49101,-224.74208 V 93.739762 H 637.43746 V -224.74208 Z m 57.97992,209.900367 c 0.17961,0.01947 0.44237,0.736351 1.12035,2.611725 1.04876,2.9010165 1.04829,6.0186442 1.03043,9.064046 0.0143,1.3839481 -0.10427,2.76298025 -0.22014,4.14031642 -0.59446,7.06539898 -7.74229,6.45877818 -7.13652,-0.60564713 0.10217,-1.19155898 0.21192,-2.38444349 0.1943,-3.58220959 0.01,-1.3333704 0.0121,-2.6497942 -0.0997,-3.9796032 -0.0279,-0.3318299 -0.0672,-0.6624188 -0.10077,-0.993738 -0.0503,-0.2728383 -0.12659,-0.5421736 -0.1509,-0.8185547 -0.002,-0.026405 0.0513,-0.014711 0.077,-0.021696 v 5.291e-4 c 4.91136,-1.3600639 4.82699,-5.8648859 5.28598,-5.8151469 z m 133.45697,6.2301089 c 1.67324,0.041132 3.33082,1.6477562 3.50832,4.9666234 0.11004,2.0573682 0.32592,4.10132476 0.64854,6.135542 0.18985,1.1819096 0.0857,0.6294014 0.30127,1.6577812 1.45485,6.9395025 -5.61446,8.3885985 -7.01611,1.4381533 -0.26963,-1.3368866 -0.15081,-0.6772169 -0.35967,-1.9776572 -0.34188,-2.1687869 -0.5874,-4.34761481 -0.70073,-6.5412011 -0.19434,-3.7617374 1.72206,-5.7258612 3.61838,-5.6792416 z" /></clipPath><clipPath
       clipPathUnits="userSpaceOnUse"
       id="clipPath135"><path
         id="path136"
         style="fill:#ff0000;fill-opacity:1;fill-rule:nonzero;stroke:none;stroke-width:0.264583"
         d="M 477.20433,-278.28082 V 24.963721 H 771.33006 V -278.28082 Z m 210.63107,135.23516 c 0.64896,0.035 1.7578,0.6255 3.62924,1.81177 2.19626,1.39221 3.0073,3.9804 3.71812,6.32623 2.05612,6.78565 -4.88195,8.85363 -6.86367,2.04587 -0.0268,-0.092 -0.73029,-2.14343 -0.73122,-2.21433 -7.9e-4,-0.0632 0.20677,0.0905 0.18707,0.0305 -0.10221,-0.31196 -0.80107,-0.22791 -0.78497,-0.59531 0.21365,-4.86991 -0.58229,-7.48164 0.84543,-7.40471 z m -130.47369,16.81964 c 0.91327,0.0304 1.9753,0.32094 3.14296,0.95653 2.78354,1.51516 5.89063,2.18265 8.94106,2.92644 0.0491,0.0113 0.0982,0.0228 0.14728,0.0341 0.39361,-0.23297 0.86771,-0.35577 1.40508,-0.34261 0.5856,0.0143 1.246,0.19084 1.95647,0.55604 0.81659,-0.371 1.60361,-0.61361 2.29702,-0.62064 2.81826,-0.0285 4.29465,2.61341 2.36678,5.30459 3.08911,4.80056 -0.8845,8.35677 -4.59714,5.38055 -3.03493,3.4549 -7.30869,1.00926 -5.86579,-3.50986 -3.37628,-0.82322 -6.77463,-1.65732 -9.85418,-3.32228 -5.06768,-2.73985 -3.89711,-7.49447 0.0605,-7.36286 z" /></clipPath><clipPath
       clipPathUnits="userSpaceOnUse"
       id="clipPath194"><path
         id="path195"
         style="fill:#ff0000;fill-opacity:1;fill-rule:nonzero;stroke:none;stroke-width:0.264583"
         d="M 586.95278,-316.37262 V -43.138126 H 818.30765 V -316.37262 Z m 53.82824,72.49015 c 5.33405,0.12466 5.82153,6.02581 -0.49609,7.19904 -2.32153,0.43113 -4.65251,0.82017 -7.00009,1.08107 -7.04698,0.78317 -7.75784,-6.32329 -0.71314,-7.12669 2.14582,-0.24472 4.27842,-0.59779 6.40064,-0.99529 0.65336,-0.12238 1.25688,-0.17103 1.80868,-0.15813 z m 77.85158,114.10828 c 5.86642,-0.17632 6.48709,6.10528 -0.0708,7.19077 -0.65044,0.10768 -1.3006,0.21896 -1.95027,0.33383 -0.18624,1.569 -1.65678,3.15205 -4.701,3.58842 -1.37462,0.19703 -2.74876,0.39523 -4.11551,0.64182 -5.88106,1.06099 -7.65071,-3.73734 -3.89021,-6.03064 -0.44358,-1.62905 0.75127,-3.61238 4.07469,-4.51549 1.14165,-0.31024 2.30177,-0.54546 3.4587,-0.7891 0.65046,-0.13696 1.25255,-0.19937 1.80455,-0.19895 0.72259,5.3e-4 1.35538,0.11212 1.89962,0.3023 0.74992,-0.13205 1.49887,-0.27349 2.24793,-0.3979 0.43716,-0.0726 0.8512,-0.11331 1.2423,-0.12506 z m -47.0023,6.36447 c 0.3571,0.005 0.66572,0.0637 0.9803,0.11524 0.23275,-0.014 0.45893,-0.0202 0.67645,-0.0165 5.13714,0.0853 6.02792,4.92424 1.74201,6.65282 -0.2791,1.55409 -1.86787,3.01524 -4.95267,3.20911 -1.32588,0.0833 -2.65349,0.19317 -3.9827,0.18087 -6.21432,-0.0577 -6.9134,-5.51225 -2.23294,-6.82749 0.30073,-1.44555 1.79244,-2.7352 4.47414,-2.882 1.03806,-0.21146 0.52502,-0.11858 1.7632,-0.31522 0.54708,-0.0869 1.05812,-0.12365 1.53221,-0.11679 z m 99.07302,6.165 c 0.89914,0.004 1.96602,0.25118 3.1688,0.81752 2.02316,0.95264 3.73174,2.45062 5.49734,3.79977 0.85474,0.65313 1.4131,1.33352 1.83865,2.01073 0.18957,0.0836 0.37745,0.17091 0.56792,0.25269 0.0841,0.0361 0.12724,0.0867 0.20826,0.12403 0.48889,0.0224 1.01285,0.0896 1.57458,0.21497 1.25277,0.27955 2.42252,0.78954 3.56929,1.35082 4.5691,2.23635 4.09908,6.2244 1.18442,7.09518 -0.84566,1.19607 -2.70575,1.953181 -5.42086,1.42885 -0.56167,-0.10847 -1.18835,-0.18392 -1.73322,-0.32814 -1.77621,-0.47013 -3.09656,-1.21518 -3.96979,-2.04794 -0.96364,0.14729 -2.14051,0.0288 -3.48919,-0.46922 -0.12293,-0.0454 -0.24553,-0.0905 -0.36845,-0.13591 -3.71486,-1.37187 -4.65119,-4.08343 -3.5941,-5.79035 -0.64028,-0.86861 -0.889,-1.77578 -0.75706,-2.58382 -2.49519,-2.69142 -1.48083,-5.75432 1.72341,-5.73918 z m -62.23289,1.0852 c 4.84574,0.17549 5.45198,5.70478 -0.56379,7.22127 -1.72557,0.43498 -3.46058,0.81409 -5.21054,1.13895 -6.97116,1.29401 -8.37135,-5.70476 -1.40456,-7.02283 1.62737,-0.30789 3.24545,-0.6453 4.84931,-1.05782 0.85837,-0.22076 1.63731,-0.30464 2.32958,-0.27957 z m -33.07964,3.91449 h 1.59319 c 7.09025,0 7.09025,7.16236 0,7.16236 h -1.59319 c -7.09025,0 -7.09025,-7.16236 0,-7.16236 z m 63.15894,22.509223 c 0.18274,-0.0026 0.36585,-0.0024 0.5488,0.0011 7.0892,0.127804 7.08901,7.300471 0,7.162356 -1.22004,-0.02376 -2.43464,0.137451 -3.64577,0.261482 -7.05346,0.722336 -7.78189,-6.405898 -0.72812,-7.125147 1.27158,-0.12967 2.54589,-0.281474 3.82509,-0.299723 z" /></clipPath><clipPath
       clipPathUnits="userSpaceOnUse"
       id="clipPath198"><path
         id="path198"
         style="fill:#ff0000;fill-opacity:1;fill-rule:nonzero;stroke:none;stroke-width:0.264583"
         d="m 554.03185,-616.4713 v 310.77225 H 874.62933 V -616.4713 Z m 150.94479,162.1224 c 5.8689,-0.0614 6.36637,6.22908 -0.21136,7.18768 -4.82558,0.70325 -2.39096,0.32839 -7.30239,1.12551 -4.89024,0.87553 -9.75275,2.07615 -14.7097,2.48409 -7.06647,0.58153 -7.04151,-6.33154 0,-7.16236 4.51891,-0.53317 8.96847,-1.56836 13.44621,-2.37143 5.06452,-0.82325 2.55383,-0.4364 7.53236,-1.16323 0.4385,-0.064 0.85362,-0.0962 1.24488,-0.10026 z" /></clipPath><clipPath
       clipPathUnits="userSpaceOnUse"
       id="clipPath220"><path
         id="path221"
         style="fill:#ff0000;fill-opacity:1;fill-rule:nonzero;stroke:none;stroke-width:0.264583"
         d="M 393.39821,-651.94391 V -304.562 h 319.20222 v -347.38191 z m 253.47445,152.84648 c 0.97519,-0.028 1.95483,0.53887 2.71766,1.60559 0.25308,-0.0651 0.51365,-0.0964 0.77825,-0.0858 1.68815,0.0678 3.49734,1.686 3.9765,4.97489 0.84226,5.78109 2.19851,11.47204 3.51658,17.15864 0.23459,1.01207 0.24242,1.87037 0.15347,2.64222 0.62865,1.27278 1.16636,2.59515 1.68672,3.90467 0.15856,0.44064 0.31739,0.88124 0.47596,1.32188 2.40064,6.67159 -4.3622,9.09415 -6.74275,2.41536 -0.11305,-0.31715 -0.22599,-0.63423 -0.339,-0.95137 0.0251,0.30283 0.0125,0.32792 0.0615,0.93328 0.57252,7.06718 -6.57554,7.64151 -7.1391,0.57361 -0.0919,-1.1518 -0.0883,-1.40843 -0.11524,-1.75648 -0.91174,-0.59411 -1.77262,-1.65035 -2.39469,-3.24425 -0.40909,-1.04827 -0.80467,-2.10341 -1.28209,-3.12332 -1.87871,-4.01354 -0.19908,-6.82372 2.10375,-6.82077 0.41546,5.3e-4 0.85109,0.0947 1.28984,0.28783 2.2e-4,-0.15852 -0.004,-0.31689 -0.004,-0.47542 2.6e-4,-0.37587 0.0247,-0.72748 0.063,-1.0635 -0.74016,-4.13745 -1.42555,-8.28394 -1.97921,-12.45092 -0.49611,-3.73395 1.269,-5.79138 3.17293,-5.84616 z m 19.15076,17.41961 c 1.4922,0.0319 3.16098,1.24477 4.11086,3.9641 0.81208,2.32479 1.34234,4.73112 1.84176,7.13807 1.44053,6.94245 -5.58069,8.39552 -7.01405,1.45159 -0.42714,-2.06936 -0.87291,-4.13995 -1.55908,-6.14226 -1.36478,-3.98255 0.43963,-6.45817 2.62051,-6.4115 z" /></clipPath><clipPath
       clipPathUnits="userSpaceOnUse"
       id="clipPath323"><path
         id="path324"
         style="fill:#ff0000;fill-opacity:1;fill-rule:nonzero;stroke:none;stroke-width:0.264583"
         d="m 515.643,-800.92415 v 283.04837 c 1.96864,0.45505 3.92074,0.97988 5.86941,1.51773 0.75178,-0.40982 1.76532,-0.66152 3.05149,-0.65371 0.20718,0 0.42127,0.009 0.64234,0.0243 0.3072,0.0209 0.61219,0.0597 0.91777,0.0935 -3.05808,-2.22591 -2.44478,-5.81096 2.07275,-5.8043 0.38395,0 0.79597,0.0274 1.23558,0.0832 1.63336,0.20746 2.23047,0.23587 3.92327,0.68468 7.72797,2.04896 15.19813,5.06519 22.6379,7.95044 6.35097,2.39718 12.40816,5.45587 18.44952,8.5266 4.5164,2.29576 4.14489,6.21064 1.26039,7.08588 h 142.14791 c -3.63988,-2.85654 -7.37407,-5.60646 -11.35331,-7.97573 -4.94996,-2.94725 -3.98103,-7.70191 -0.12764,-7.51893 0.88924,0.0422 1.93214,0.34737 3.09128,0.99838 4.77238,2.68034 9.16928,5.98736 13.46016,9.36998 l 2.79983,2.31354 c 1.12231,0.92734 1.81595,1.89619 2.17144,2.81276 h 76.09976 c -1.67383,-6.3229 -3.43215,-12.62271 -5.28238,-18.89704 -0.11007,1.47108 -0.19807,2.94433 -0.28009,4.41626 -0.39428,7.07941 -7.54708,6.67976 -7.15097,-0.39944 0.20534,-3.66977 0.42301,-7.34708 0.99528,-10.98177 0.46456,-2.84773 0.92528,-5.70404 1.65468,-8.49817 -3.09661,-9.82739 -6.25898,-19.63409 -9.66658,-29.3574 -1.46571,-4.18208 0.51856,-6.90348 2.79363,-6.72569 1.36501,0.10668 2.8349,1.25742 3.72636,3.76204 2.00959,5.64337 3.88822,11.33293 5.75575,17.02584 -0.78774,-4.20427 -1.48442,-8.42519 -2.01282,-12.67416 -0.43746,-3.51809 1.12255,-5.45476 2.90267,-5.63273 1.78014,-0.17798 3.78034,1.4028 4.22404,4.92011 0.41349,3.2779 0.9279,6.53855 1.50482,9.78803 0.25104,-1.38776 0.99862,-2.30302 1.93167,-2.68407 -0.0774,-0.38891 -0.14282,-0.7801 -0.22066,-1.16892 -0.59719,-2.98202 0.36909,-4.86072 1.77197,-5.50768 -0.54941,-2.09913 -1.04839,-4.20936 -1.37406,-6.3531 -0.56576,-3.72391 1.12958,-5.64423 3.0308,-5.5795 1.67756,0.0571 3.51533,1.65968 4.1021,4.93096 0.20582,1.14762 0.46193,2.28496 0.73533,3.41892 0.33189,-1.81197 1.40478,-2.97414 2.7156,-3.09646 1.55684,-0.14526 3.33256,1.06988 4.20648,4.04627 0.0861,0.29339 0.16703,0.5881 0.25837,0.88005 0.60512,-2.30104 2.09536,-3.4535 3.53777,-3.45354 1.5667,-3e-5 3.07509,1.35727 3.32589,4.07211 0.49569,-0.38827 1.03992,-0.6553 1.63298,-0.65526 1.74337,1.3e-4 3.6146,1.69173 3.98425,5.0462 v -243.19864 z m 285.96188,83.17735 c 1.34427,-0.017 2.48211,0.8601 2.85099,2.33939 0.10766,-0.0163 0.21923,-0.0679 0.32504,-0.0729 0.0741,-0.003 0.14774,-0.004 0.22066,-0.002 v -5.3e-4 c 2.26031,0.0603 3.91808,2.70906 2.09444,6.59546 -0.37414,0.79734 -0.74826,1.59476 -1.12241,2.3921 -1.84989,3.89082 -3.61691,7.82206 -5.54231,11.67577 -1.34159,2.68533 -3.21098,3.54589 -4.71236,3.25045 -1.58319,3.55852 -4.2105,4.16373 -5.76813,2.87786 -0.93961,1.04094 -2.17728,1.34879 -3.26906,0.88987 -2.38053,2.16666 -4.82031,1.72746 -5.72211,-0.0382 -1.75098,-0.90875 -2.31944,-3.57364 0.14107,-6.57324 0.93009,-1.13389 1.77774,-2.33568 2.64427,-3.51917 0.46636,-0.63708 0.90435,-1.29314 1.36168,-1.9358 0.0999,-0.29933 0.1986,-0.59928 0.29509,-0.89968 0.37492,-1.28856 0.99068,-2.4872 1.41695,-3.75585 0.45215,-1.29034 1.02092,-2.52946 1.6211,-3.75584 0.27268,-0.62218 0.5197,-1.25602 0.76325,-1.89032 1.03251,-2.68905 2.75108,-3.85942 4.25659,-3.85765 0.16748,2e-4 0.33099,0.0198 0.49196,0.0486 0.71787,-0.55159 1.46667,-0.82768 2.16681,-0.85318 0.0341,-10e-4 0.0668,0.004 0.10075,0.004 0.49226,-0.19199 0.97846,-0.31288 1.43299,-0.29093 0.034,0.002 0.0619,0.0199 0.0956,0.0227 1.15358,-1.82971 2.59527,-2.63499 3.85715,-2.651 z m -34.44803,83.20939 c 2.37986,0.0878 3.99612,2.93052 1.7694,6.76186 -0.20544,0.3535 -0.41106,0.70699 -0.6165,1.0604 -0.79094,1.59312 -1.4935,3.22086 -1.96732,4.93975 -1.88412,6.83547 -8.4573,6.07224 -7.10706,-0.88831 0.49132,-2.53283 1.52099,-4.91295 2.64996,-7.21765 0.27593,-0.48589 0.55192,-0.97139 0.82786,-1.45728 1.31303,-2.31199 3.0157,-3.25143 4.44366,-3.19877 z m 3.13986,59.73434 c 0.96371,-0.0386 2.15089,0.25517 3.50986,1.00252 1.76919,0.97322 3.42225,2.13832 5.1387,3.19929 6.03142,3.72767 2.25772,9.82517 -3.76927,6.09059 -1.4404,-0.89259 -2.86137,-1.81598 -4.2783,-2.74506 -4.63214,-3.0372 -4.04283,-7.40945 -0.60099,-7.54734 z m 56.24668,30.71389 c -0.12663,3.35824 -0.25307,6.71664 -0.38084,10.07484 0.35041,1.9471 0.71697,3.89123 1.06402,5.83891 -0.18018,-5.30696 -0.40359,-10.6123 -0.68318,-15.91375 z m -280.20511,34.07906 c 0.61497,0.27607 1.12432,0.507 1.91565,0.85781 8.57736,4.1045 4.32858,2.03427 12.74806,6.21151 0.48323,0.23982 0.90438,0.50015 1.28002,0.77206 3.19034,1.26098 6.38277,2.51706 9.56376,3.80132 h 1.21801 c -0.58497,-0.14102 -1.20866,-0.36663 -1.8681,-0.70228 -5.82556,-2.96556 -11.66546,-5.92262 -17.79271,-8.2331 -2.34496,-0.90998 -4.70667,-1.80702 -7.06469,-2.70732 z m -30.69528,2.27428 v 9.36842 h 8.184 c -3.18957,-1.73413 -2.46027,-5.88113 2.98173,-6.35878 0.15243,-0.0135 0.30489,-0.0101 0.45733,-0.0217 -3.60784,-1.02383 -8.16988,-2.26081 -11.62306,-2.98794 z" /></clipPath><clipPath
       clipPathUnits="userSpaceOnUse"
       id="clipPath358"><path
         id="path359"
         style="fill:#ff0000;fill-opacity:1;fill-rule:nonzero;stroke:none;stroke-width:0.264583"
         d="m 832.16181,-950.67075 -219.81604,5.2e-4 v 210.74011 c 0.68725,0.0894 1.37365,0.18308 2.05827,0.28784 4.70913,0.58962 9.41553,1.215 14.06426,2.17867 1.39323,0.34268 2.65167,0.62918 4.02094,1.05575 0.17678,0.0551 0.34692,0.12845 0.5209,0.19121 3.41599,-0.13085 6.83306,-0.23462 10.25002,-0.33177 5.90712,-0.16302 11.81639,-0.25029 17.72502,-0.25063 5.9086,-2.6e-4 11.81711,0.086 17.72346,0.27027 3.92925,0.14551 7.85323,0.38005 11.77551,0.64906 5.0019,0.34306 4.65509,5.39677 -0.34675,5.05292 -3.85939,-0.26532 -7.72064,-0.49567 -11.58689,-0.63976 -0.77619,-0.0243 -1.55276,-0.0329 -2.32905,-0.0537 4.48993,0.59516 4.08568,5.26645 -0.74983,4.96921 -0.66826,-0.0411 -1.33678,-0.0819 -2.00504,-0.12299 -4.25749,-0.23178 -8.51834,-0.42323 -12.77338,-0.69815 3.35205,0.69586 6.74829,1.10722 10.15855,1.41593 4.07453,0.43864 8.14465,0.91157 12.21734,1.36633 4.29169,0.42747 8.58543,0.83133 12.88139,1.21336 4.88708,0.44612 9.78806,0.73067 14.69522,0.82527 5.43075,0.0779 10.86126,0.12207 16.29203,0.007 4.76368,-0.0757 9.52798,-0.17721 14.28492,-0.45682 4.6666,-0.248 9.34261,-0.43874 13.97796,-1.07229 4.19173,-0.59348 8.35735,-1.3453 12.44575,-2.46083 3.40293,-0.88059 6.79756,-1.78821 10.17147,-2.77554 1.77557,-0.53607 3.55301,-1.0651 5.32939,-1.59784 -8.29587,1.34052 -16.57873,2.75412 -24.80314,4.49017 -2.41286,0.49975 -4.59758,0.98576 -7.01766,1.37149 -2.17981,0.34746 -4.4598,0.66829 -6.63112,0.0971 -4.84874,-1.2752 -3.46941,-5.79135 1.45521,-4.85086 1.46906,0.28056 3.04715,-0.0259 4.49585,-0.2651 2.42959,-0.4012 4.20673,-0.80092 6.66988,-1.31207 13.82186,-2.91905 27.80371,-4.95989 41.74525,-7.20576 3.07421,-1.727 6.1152,-3.50987 9.02116,-5.51129 0.87725,-0.60419 1.72186,-1.25432 2.58279,-1.88154 4.84862,-4.12685 8.64209,-9.27208 12.03596,-14.61513 0.87289,-1.41783 1.67362,-2.87631 2.45876,-4.3434 0.26584,-4.55726 0.50503,-9.11627 0.49971,-13.68289 -0.001,-1.96203 0.016,-3.9241 -0.003,-5.88594 -0.006,-0.59181 -0.0252,-1.18302 -0.0367,-1.77457 -0.16468,-0.52809 -0.32075,-1.05997 -0.48834,-1.58647 -1.47974,-4.35824 -2.96096,-8.77301 -5.23431,-12.79612 -1.5416,-2.7281 -0.55271,-4.87617 1.03455,-5.05344 0.95246,-0.10635 2.12044,0.4966 3.08665,2.10944 0.37873,0.63212 0.69753,1.29527 1.03818,1.94716 -0.0634,-2.45382 1.14078,-3.68302 2.39262,-3.68298 1.26474,5e-5 2.57616,1.25301 2.67218,3.75791 0.0945,2.46519 0.17681,4.93011 0.27854,7.39438 0.40952,0.44479 0.77996,1.06683 1.05782,1.91048 0.32811,0.99638 0.43244,1.19404 0.58756,2.40296 0.0424,0.33086 0.0791,0.73288 0.11626,1.12809 z m -2.26239,195.55086 c -0.46831,0.49162 -0.91483,1.0029 -1.37098,1.50585 0.61161,0.0108 1.12724,0.18294 1.51154,0.47594 0.008,-0.25289 0.0184,-0.50572 0.0258,-0.75861 0.009,-0.32204 0.008,-0.77125 0.0181,-1.13223 -0.0634,-0.0209 -0.12226,-0.0634 -0.18448,-0.091 z m 0.0181,5.56452 c -0.34704,0.37475 -0.79087,0.73775 -1.36581,1.06608 -3.72115,2.12508 -7.42903,4.27322 -11.13265,6.42855 1.91922,-0.44005 3.83361,-0.90151 5.73712,-1.4087 2.85719,-0.76131 4.70892,-1.33603 6.62027,-1.96164 0.0493,-1.37472 0.0929,-2.74955 0.14107,-4.12429 z m -0.32659,9.50433 c -1.46945,0.45969 -3.00044,0.9077 -5.23069,1.50068 -6.58934,1.75199 -13.28224,3.06964 -19.99981,4.22145 -0.17943,0.0947 -0.35694,0.1932 -0.53641,0.28783 -0.24369,0.13174 -0.49853,0.24151 -0.7431,0.37156 -2.96534,1.74204 -5.93093,3.48365 -8.89817,5.22242 -4.06518,2.41182 -8.09321,4.76772 -12.10313,7.26364 -0.86323,0.5373 -1.7143,1.09208 -2.56264,1.65106 h 52.64485 v -3.81527 c -1.46817,0.45925 -3.16571,-0.82125 -3.02566,-3.7729 0.20455,-4.30827 0.31324,-8.6198 0.45476,-12.93047 z m -217.24513,5.24464 v 15.274 h 70.41379 c -0.064,-0.006 -0.12819,-0.0117 -0.19224,-0.0181 -4.08617,-0.45535 -8.16973,-0.93038 -12.25765,-1.37046 -3.82814,-0.33804 -7.63806,-0.80428 -11.39362,-1.62522 -3.64605,-0.91843 -7.26235,-1.95024 -10.89545,-2.91765 -3.82775,-0.84425 -7.51197,-2.13713 -11.08977,-3.7207 -1.3245,-0.57849 -2.65735,-1.14494 -4.00595,-1.66915 -0.44078,-0.0786 -0.88137,-0.15824 -1.3224,-0.23513 -2.25191,0.0925 -4.50325,0.19375 -6.7536,0.32091 -2.64777,0.14962 -4.0209,-1.18708 -4.00027,-2.52284 -2.40175,-0.49455 -4.80579,-0.97723 -7.22902,-1.34773 -0.42499,-0.0531 -0.8488,-0.11534 -1.27382,-0.16793 z m 156.67881,13.14545 c -0.0367,0.01 -0.0729,0.0205 -0.10956,0.03 -3.33824,0.90963 -6.73308,1.54833 -10.14408,2.09858 h 6.52363 c 0.0325,-0.0186 0.0652,-0.0372 0.0977,-0.0558 1.21101,-0.69045 2.42183,-1.38139 3.63234,-2.07274 z" /></clipPath><clipPath
       clipPathUnits="userSpaceOnUse"
       id="clipPath393"><path
         id="path394"
         style="fill:#ff0000;fill-opacity:1;fill-rule:nonzero;stroke:none;stroke-width:0.264583"
         d="m 601.82618,-975.8917 v 251.33608 h 51.45061 c -0.45263,-0.0989 -0.90376,-0.20529 -1.35238,-0.32556 -1.1811,-0.29218 -2.3608,-0.60251 -3.49436,-1.05007 -0.81541,-0.34184 -1.64277,-0.65569 -2.45411,-1.00769 -0.82956,-0.37049 -1.65591,-0.75314 -2.53525,-0.99477 -1.34052,-0.46814 -2.67048,-0.97258 -4.04988,-1.3193 -1.10146,-0.27173 -2.21499,-0.49842 -3.34036,-0.64595 -4.81576,-0.63133 -4.99613,-5.09746 -0.45424,-5.08031 0.14652,5.3e-4 0.29789,0.005 0.45424,0.0155 1.53571,0.0998 3.05031,0.42891 4.54287,0.79118 1.53834,0.37952 3.02188,0.93637 4.51549,1.45675 1.01304,0.28843 1.97244,0.72399 2.9316,1.15186 0.77366,0.33105 1.55839,0.63516 2.33578,0.95706 0.84841,0.32123 1.7277,0.54683 2.60759,0.76378 0.34573,-0.24593 0.75569,-0.47303 1.2423,-0.6687 1.35032,-0.54295 2.68105,-1.12955 4.03593,-1.66243 1.5628,-0.65216 3.17362,-1.16999 4.81159,-1.59371 0.72428,-0.18171 1.45932,-0.31152 2.1947,-0.4377 0.30884,-0.053 0.60157,-0.0833 0.87798,-0.093 4.14722,-0.14563 4.60729,4.30241 -0.0274,5.08546 -0.5991,0.10123 -1.19768,0.20567 -1.78801,0.35141 -0.37799,0.0957 -0.75336,0.19968 -1.12706,0.30953 3.1546,0.30158 4.02556,2.61248 2.69337,3.99667 h 12.77752 c 0.27438,-0.81901 0.99636,-1.67094 2.27996,-2.33888 3.49012,-1.81608 7.30029,-2.83779 11.09597,-3.80286 0.5505,-0.76855 1.66863,-1.35577 3.35897,-1.37201 0.58646,-0.006 1.17273,-0.007 1.75906,-0.003 0.28103,0.002 0.56185,0.0109 0.84284,0.0145 3.54491,-0.75942 7.10383,-1.45186 10.69754,-1.9327 1.34324,-0.17603 2.69554,-0.28761 4.04782,-0.28784 0.81136,-1.5e-4 1.62269,0.0396 2.43241,0.12971 1.31159,0.14592 1.75204,0.27273 3.04581,0.54725 1.38843,0.41465 3.87891,0.71662 4.98677,1.70429 0.4687,0.41784 1.06524,0.84727 1.18598,1.46348 0.0315,0.16106 -0.0195,0.32555 -0.0165,0.48782 3.98733,1.07835 3.13121,5.44256 -1.52394,4.85138 -0.18678,-0.0237 -0.37387,-0.0453 -0.56069,-0.0687 0.0125,0.20511 0.0231,0.38351 0.0372,0.60771 h 39.29424 c -0.0218,-0.0679 -0.0453,-0.13257 -0.0656,-0.20309 -0.80935,-2.80501 -1.12095,-3.76379 -1.80144,-6.6089 -0.50026,-2.09159 -0.85049,-4.20119 -1.28416,-6.30452 -0.0343,-0.16606 -0.0849,-0.32837 -0.12764,-0.49248 -0.74907,-2.88107 0.57007,-4.66498 2.05827,-4.63124 0.77667,0.0176 1.5955,0.53981 2.19418,1.65003 0.38036,-0.40868 0.85977,-0.64197 1.3653,-0.66869 0.50747,-0.0269 1.0338,0.17809 1.51153,0.58497 -0.0915,-2.20786 1.04562,-3.5696 2.29444,-3.48557 0.90087,0.0606 1.8577,0.87195 2.44739,2.6572 0.13011,0.39389 0.27106,0.78448 0.39016,1.18184 0.68757,2.29387 1.26135,4.62456 1.92288,6.92619 0.47811,1.66345 0.75216,2.5043 1.01441,3.36052 0.57149,0.92118 1.14362,1.84218 1.71152,2.76521 0.79038,1.28464 0.94996,2.42094 0.71882,3.26853 h 59.3664 V -975.8917 Z m 180.87165,244.81296 c 0.91016,-0.0148 1.80252,0.13615 2.69337,0.29818 4.93273,0.89721 3.9709,5.97105 -0.94309,4.97644 -0.55256,-0.11184 -1.10641,-0.21333 -1.67328,-0.21033 -0.78594,0.009 -1.58067,0.0294 -2.33836,0.26407 -4.78917,1.48343 -6.36384,-3.23603 -1.60197,-4.80487 1.24809,-0.4112 2.55942,-0.50049 3.86333,-0.52349 z m -84.23827,4.08709 c -1.40027,0.3048 -2.80118,0.60769 -4.19509,0.93793 -1.85251,0.4656 -3.71752,0.93134 -5.54747,1.4981 h 21.89634 c 0.0147,-0.11026 0.0237,-0.20709 0.0439,-0.33073 -0.0889,-0.16515 -0.1646,-0.31345 -0.23874,-0.4594 -0.32941,-0.0461 -0.65955,-0.0875 -0.98857,-0.13695 -1.21069,-0.18187 -2.07726,-0.61942 -2.62775,-1.16427 -2.77891,-0.16294 -5.55963,-0.29875 -8.34264,-0.34468 z" /></clipPath><clipPath
       clipPathUnits="userSpaceOnUse"
       id="clipPath404"><path
         id="path405"
         style="fill:#ff0000;fill-opacity:1;fill-rule:nonzero;stroke:none;stroke-width:0.264583"
         d="m 623.00568,-1077.529 v 245.5137 h 223.53106 v -245.5137 z m 161.47025,120.34356 c 1.35196,0.0291 2.58864,1.47116 2.20038,4.10621 -0.27953,1.89705 -0.60667,3.81115 -1.38493,5.57795 -2.02109,4.58824 -6.28793,2.43036 -4.52995,-2.26498 0.48697,-1.30067 0.70594,-2.67605 0.9033,-4.04419 0.33554,-2.32607 1.61829,-3.40064 2.8112,-3.37499 z m -13.22555,14.73657 v 5.3e-4 c 1.10637,0.0256 1.9668,0.88555 2.01176,2.20917 0.50767,-0.27768 1.00583,-0.39793 1.45883,-0.38292 1.81767,0.0602 2.90686,2.26458 0.95653,4.91443 -1.23346,1.67586 -2.54867,3.73053 -4.35271,4.84156 -0.27911,0.17189 -0.59567,0.27386 -0.89348,0.41083 -0.96406,0.44338 -1.36092,0.52437 -1.43609,0.36845 -1.47174,1.41449 -3.36477,0.67846 -3.47421,-2.74298 -0.0874,-2.73109 1.24437,-5.17059 2.61483,-7.43727 0.89169,-1.47483 1.99224,-2.12898 2.94556,-2.17868 0.0569,-0.003 0.11322,-0.004 0.16898,-0.003 z m -0.56224,8.55141 c -0.0435,0.16996 -0.10333,0.33384 -0.13384,0.5085 -0.0565,0.32318 -0.15781,0.57656 -0.23927,0.86248 0.22878,-0.46731 0.38863,-0.9425 0.37311,-1.37098 z" /></clipPath><clipPath
       clipPathUnits="userSpaceOnUse"
       id="clipPath419"><path
         id="path420"
         style="fill:#ff0000;fill-opacity:1;fill-rule:nonzero;stroke:none;stroke-width:0.264583"
         d="m 544.33316,-1151.0606 v 250.29738 h 258.0566 v -250.29738 z m 123.17853,58.0952 c 4.14974,0.01 4.44669,4.4675 -0.21343,5.0808 -0.17148,0.023 -0.3427,0.045 -0.51418,0.068 -1.1067,0.1718 -2.19818,0.4056 -3.25923,0.7715 -1.19977,0.4119 -2.3854,0.8764 -3.53363,1.4154 -1.0053,0.5226 -1.98146,1.102 -3.02101,1.5565 -4.59368,2.0086 -6.56414,-2.5913 -1.99471,-4.6545 0.91719,-0.4141 1.7839,-0.9276 2.67529,-1.3932 1.36635,-0.6619 2.7865,-1.2139 4.22042,-1.7115 1.343,-0.4635 2.72665,-0.7656 4.12739,-0.9875 0.21081,-0.028 0.42118,-0.056 0.632,-0.085 0.31058,-0.042 0.60444,-0.061 0.88109,-0.06 z m 26.64592,5.2022 c 0.27675,0 0.57078,0.023 0.88108,0.066 0.81546,0.1147 1.63748,0.1691 2.45928,0.2129 0.55185,0.046 1.10048,0.1218 1.64951,0.1922 4.97287,0.6382 4.32794,5.6618 -0.64492,5.0235 -0.42543,-0.055 -0.85051,-0.1121 -1.27692,-0.1587 -0.97028,-0.053 -1.94057,-0.1193 -2.90319,-0.2563 -4.65339,-0.6621 -4.31609,-5.1026 -0.16484,-5.0798 z m 96.11144,13.346 c 1.12411,-0.053 2.10973,0.862 2.22881,2.4474 1.1739,0.4274 1.97527,2.0139 1.25263,4.378 -0.68372,2.2368 -1.39124,4.4667 -2.07739,6.703 -0.13588,0.423 -0.27133,0.8461 -0.40721,1.2691 -0.98167,3.0563 -3.31025,3.517 -4.45709,2.2025 -1.51247,0.116 -2.88577,-1.4399 -2.15956,-4.2731 l 0.38447,-1.5002 c 0.75162,-2.7959 1.52464,-5.588 2.40244,-8.3473 0.61746,-1.941 1.77623,-2.8291 2.8329,-2.8794 z" /></clipPath><clipPath
       clipPathUnits="userSpaceOnUse"
       id="clipPath442"><path
         id="path443"
         style="fill:#ff0000;fill-opacity:1;fill-rule:nonzero;stroke:none;stroke-width:0.264583"
         d="m 628.3642,-1485.6495 v 167.4032 c 0.55215,-1.8204 1.06499,-3.652 1.50275,-5.504 0.76454,-3.2345 2.68223,-4.8345 4.36253,-4.9052 1.90428,-0.08 3.50375,1.8044 2.77502,5.5 -0.89018,4.5142 -2.33603,8.8918 -3.84266,13.2446 1.36737,-1.3948 2.71456,-2.8089 3.97805,-4.2896 0.22197,-0.2602 0.40733,-0.55 0.61082,-0.8248 1.45035,-1.9588 3.11641,-2.8297 4.5129,-2.8939 0.68773,-0.032 1.3076,0.1357 1.80661,0.462 0.58887,-0.289 1.17124,-0.4811 1.71204,-0.5069 2.08924,-0.1 3.56788,1.6514 2.83548,4.256 0.58814,-0.3048 1.1688,-0.4547 1.70894,-0.4547 2.13252,-10e-5 3.60737,2.2114 2.51251,5.2281 0.032,0.1968 0.0602,0.399 0.0816,0.6082 0.21127,2.0568 0.29646,4.1192 0.24753,6.1852 -0.17985,3.2488 -0.68384,6.462 -1.40456,9.6314 -0.47689,2.6943 -1.85803,4.9805 -3.46078,7.1412 -1.66612,2.1516 -3.78878,3.7106 -6.23837,4.8436 -2.05875,0.8315 -4.26981,1.1124 -6.46369,1.3178 -0.98546,0.081 -1.9738,0.1199 -2.96106,0.171 -1.93036,0.1 -3.35784,-0.3613 -4.27571,-1.0893 v 119.5271 h 234.43634 v -325.051 z" /></clipPath><clipPath
       clipPathUnits="userSpaceOnUse"
       id="clipPath457"><path
         id="path458"
         style="fill:#ff0000;fill-opacity:1;fill-rule:nonzero;stroke:none;stroke-width:0.264583"
         d="m 446.91405,-1524.2843 v 342.5011 h 266.27574 v -342.5011 z m 127.55139,35.6562 v 5e-4 c 2.32277,0.079 3.59463,3.2462 1.34255,7.3179 -0.98877,1.7877 -1.51992,3.8186 -2.04535,5.7826 -0.62808,2.0194 -0.6855,4.036 -0.39688,6.103 0.26673,1.7038 1.05838,3.2523 1.78594,4.7961 0.87066,1.8253 1.62663,3.7079 2.70526,5.424 0.82469,1.3255 1.91193,2.4382 3.00809,3.5362 1.44558,1.354 2.93021,2.6665 4.35012,4.0478 5.08215,4.9442 0.0643,10.0875 -5.00176,5.1268 -0.17915,-0.1754 -0.36888,-0.3397 -0.55036,-0.5126 0.57657,1.7568 -0.002,3.1955 -1.1405,3.8995 4.42541,1.932 3.8893,6.0714 0.34004,6.7463 -0.93883,0.6692 -2.35674,1.0627 -4.23282,0.9137 -1.52524,-0.1211 -3.04941,-0.2522 -4.5775,-0.3318 -5.17023,-0.2692 -6.56574,-4.1097 -4.18527,-6.0559 0.11026,-1.597 1.59585,-3.0715 4.40024,-3.142 0.39124,-0.01 0.80745,0.01 1.24799,0.055 0.4457,0.049 0.8876,0.1174 1.32705,0.1969 -0.0331,-0.034 -0.0661,-0.05 -0.0992,-0.085 -1.31037,-1.3869 -2.63952,-2.757 -3.83232,-4.2494 -2.07457,-2.8108 -3.51027,-5.5034 -4.18838,-8.9684 -0.29353,-1.607 -0.42144,-2.0376 -0.51624,-3.7063 -0.12442,-2.1899 0.11511,-4.3901 0.13901,-6.5789 0.13136,-2.6358 0.24526,-5.2911 0.76636,-7.8848 0.46018,-2.2905 1.49847,-3.6412 2.64221,-4.1739 0.61781,-1.9536 1.34311,-3.87 2.5523,-5.5247 1.43806,-1.9679 2.94274,-2.7739 4.15944,-2.7327 z" /></clipPath><clipPath
       clipPathUnits="userSpaceOnUse"
       id="clipPath464"><path
         id="path465"
         style="fill:#ff0000;fill-opacity:1;fill-rule:nonzero;stroke:none;stroke-width:0.264583"
         d="m 615.14241,-1578.4717 v 208.3831 h 212.0837 v -208.3831 z m 135.09356,126.5287 c 4.14864,0.092 4.35243,4.5587 -0.31936,5.0757 -0.76557,0.085 -1.53238,0.151 -2.2996,0.2108 -0.19151,0.8883 -0.90106,1.8423 -2.31717,2.5787 -2.15485,1.1205 -4.26751,2.36 -6.53397,3.2416 -4.67259,1.8175 -6.22275,-2.8601 -1.60145,-4.8043 1.49179,-0.6277 2.92199,-1.3966 4.35167,-2.1627 -0.9358,-1.4075 0.0197,-3.4491 3.13676,-3.7088 1.56754,-0.1306 3.1373,-0.211 4.70101,-0.3881 0.31136,-0.035 0.60554,-0.049 0.88211,-0.043 z" /></clipPath><clipPath
       clipPathUnits="userSpaceOnUse"
       id="clipPath484"><path
         id="path485"
         style="fill:#ff0000;fill-opacity:1;fill-rule:nonzero;stroke:none;stroke-width:0.264583"
         d="m 514.63711,-1610.992 v 264.1069 h 257.81941 v -264.1069 z m 78.38953,137.466 v 5e-4 h 4.45348 c 2.58857,0.034 5.17093,0.2016 7.75353,0.3664 1.95415,0.1319 3.91069,0.2209 5.86837,0.277 1.62331,0.038 3.24163,0.1861 4.86276,0.2755 1.2642,0.069 2.52985,0.106 3.79563,0.1322 0.47241,0.01 0.94501,0.015 1.41748,0.02 0.0371,5e-4 0.0606,0.013 0.0972,0.014 h 2.03036 c 5.01365,0 5.01365,5.0649 0,5.0649 h -4.52479 -2.42775 c 1.6093,1.4237 0.67541,4.0606 -2.91972,4.1728 -1.5083,0.047 -3.01627,0.096 -4.52479,0.1359 -2.37866,0.048 -4.75798,0.03 -7.13703,0.032 -4.36679,0 -4.92826,-3.8348 -1.68827,-4.8302 -0.72276,-0.1015 -1.34833,-0.2831 -1.8154,-0.5586 -0.2628,-0.01 -0.52461,-0.034 -0.78754,-0.038 h -4.45348 c -5.0136,0 -5.0136,-5.0643 0,-5.0643 z m 69.42574,0.3623 c 4.96371,-0.016 9.92482,0.2101 14.88384,0.3984 5.94697,0.2289 3.02193,0.1162 8.77363,0.3375 5.00992,0.1927 4.81564,5.2534 -0.19431,5.0606 -0.5614,-0.022 -0.44388,-0.017 -0.85627,-0.033 -0.22224,1.1419 -1.48181,2.1723 -3.76773,2.1301 -4.06061,-0.075 -8.12806,-0.047 -12.18324,-0.2812 -2.35505,-0.1357 -3.47502,-1.3128 -3.48299,-2.4954 -1.0577,-0.016 -2.11499,-0.056 -3.17293,-0.053 -5.01363,0.015 -5.01363,-5.0485 0,-5.0643 z" /></clipPath></defs><g
     id="layer1"
     transform="translate(-504.74546,1613.9993)"><path
       style="fill:#000000"
       d="m 591.74902,-1372.4794 c -0.73323,-0.1052 -1.69774,-0.3798 -2.14336,-0.6103 -0.72915,-0.377 -0.86812,-0.3784 -1.38887,-0.014 -0.50539,0.354 -2.1769,0.3918 -13.20247,0.2991 l -12.62382,-0.1062 -2.63334,-0.7227 c -5.01638,-1.3766 -7.87632,-3.4875 -9.67338,-7.1398 -1.27477,-2.5907 -1.68638,-4.6156 -1.51388,-7.4473 0.156,-2.5609 1.04718,-5.263 2.59511,-7.8686 1.30229,-2.1921 4.63706,-5.7671 7.11607,-7.6288 1.92111,-1.4428 5.32786,-3.2129 7.15213,-3.7164 0.65484,-0.1807 1.23879,-0.3651 1.29766,-0.4099 0.0589,-0.045 -0.47691,-0.5858 -1.19062,-1.2024 -0.71372,-0.6165 -3.23232,-3.0269 -5.5969,-5.3563 -4.73088,-4.6605 -5.11757,-5.2628 -4.57311,-7.1229 0.69835,-2.3859 4.48735,-8.119 8.80924,-13.3292 0.99662,-1.2015 1.73893,-2.3028 1.64956,-2.4474 -0.0894,-0.1446 -0.619,-0.2629 -1.17697,-0.2629 -0.55797,0 -2.42618,-0.3569 -4.15157,-0.793 -1.7254,-0.4362 -3.15489,-0.7934 -3.17666,-0.7938 -0.0218,-4e-4 -0.25758,0.6056 -0.52404,1.3466 -0.56264,1.5646 -2.14234,3.1506 -3.13815,3.1506 -0.92021,0 -5.35138,-1.4517 -8.19244,-2.6839 -3.32729,-1.4432 -7.3732,-3.7811 -8.65758,-5.0029 -1.01557,-0.9661 -1.07408,-1.102 -0.9497,-2.2056 0.13398,-1.1886 1.27187,-3.0924 3.65479,-6.1149 0.57364,-0.7276 1.04359,-1.4122 1.04432,-1.5213 7.4e-4,-0.1092 -0.86187,-0.2007 -1.91689,-0.2033 -6.58843,-0.017 -14.11951,-2.3487 -19.64531,-6.0832 -7.37015,-4.981 -11.71606,-12.5371 -13.64696,-23.7278 -0.6779,-3.9287 -0.816,-11.9202 -0.2689,-15.5602 0.87572,-5.8264 2.49596,-11.6436 4.30122,-15.4429 3.1233,-6.5733 10.36556,-14.5873 13.18249,-14.5873 0.37176,0 0.77653,-0.3964 1.26731,-1.2409 1.05651,-1.8181 2.59296,-3.42 3.87624,-4.0412 l 1.12765,-0.5459 0.17219,-4.3658 c 0.20282,-5.1429 0.58249,-7.2204 2.19869,-12.0312 3.11218,-9.2638 8.72267,-17.9272 16.88155,-26.0675 3.38911,-3.3814 4.04866,-3.9572 6.74812,-5.8907 1.0977,-0.7863 2.03372,-1.4661 2.08004,-1.5107 0.14761,-0.1422 -2.33862,-6.3073 -3,-7.4391 -1.12629,-1.9274 -3.9164,-3.9553 -9.99667,-7.2657 -5.25412,-2.8606 -6.79902,-4.3262 -6.79902,-6.4501 0,-5.4067 11.78454,-9.8601 24.61283,-9.3013 12.51935,0.5453 25.08109,4.4638 34.65384,10.8099 2.50657,1.6617 3.35357,2.4505 4.01745,3.7417 1.09774,2.1349 0.52639,4.404 -1.57461,6.2534 -1.39515,1.228 -1.37576,1.2332 2.47149,0.6601 10.93734,-1.6291 24.4131,-1.5175 34.83931,0.2886 1.11469,0.1931 1.32018,-0.1538 0.39688,-0.6699 -1.59948,-0.8942 -2.72835,-3.3402 -2.33975,-5.0697 0.40924,-1.8214 1.53358,-3.089 4.516,-5.0912 11.31397,-7.5956 28.28989,-11.9832 41.74439,-10.7893 9.78278,0.8682 17.52883,4.915 17.52883,9.1576 0,2.1887 -1.24798,3.385 -6.48229,6.2136 -5.63188,3.0436 -8.62395,5.131 -9.9208,6.9212 -0.70527,0.9736 -3.61396,7.8152 -3.4076,8.0151 0.0546,0.053 0.9922,0.7368 2.08361,1.5199 7.39072,5.3024 14.01606,12.8118 19.11384,21.6643 2.63567,4.5769 4.50989,9.1841 5.78908,14.2306 0.68035,2.684 0.76166,3.4514 0.76166,7.1883 0,2.3009 0.0742,4.3768 0.16493,4.6132 0.0907,0.2364 0.63494,0.6696 1.20941,0.9627 1.33137,0.6792 3.23042,2.6558 3.91983,4.0799 0.43598,0.9007 0.7398,1.1656 1.64896,1.438 3.98503,1.1939 10.41617,8.6261 13.30546,15.3765 3.83339,8.9562 5.15242,19.6143 3.69395,29.8484 -1.81258,12.7188 -7.46069,21.3712 -17.14198,26.2597 -4.26523,2.1538 -9.67232,3.5826 -14.47347,3.8246 -1.67349,0.084 -3.19332,0.1999 -3.3774,0.2568 -0.20788,0.064 0.40681,1.0833 1.62237,2.6898 2.11181,2.791 3.07794,4.4155 3.07794,5.1754 0,0.9938 -0.83883,2.0305 -2.57403,3.1814 -3.57243,2.3694 -10.40801,5.4217 -14.02216,6.2613 -1.21921,0.2832 -1.5007,0.2635 -2.38125,-0.1667 -0.79584,-0.3888 -1.17845,-0.8553 -1.88436,-2.2979 -0.77047,-1.5744 -0.95988,-1.7882 -1.45521,-1.6427 -0.31319,0.092 -2.17679,0.5375 -4.14132,0.9898 -1.96453,0.4523 -3.6121,0.8547 -3.66127,0.8942 -0.0492,0.039 0.80279,1.1438 1.89323,2.454 2.11629,2.5427 6.46592,8.9473 7.82453,11.5213 0.57134,1.0824 0.82419,1.9312 0.82762,2.7781 l 0.005,1.2195 -5.67957,5.6154 c -3.12377,3.0885 -5.59654,5.6622 -5.49505,5.7195 0.10149,0.057 0.83937,0.3115 1.63974,0.5651 4.33521,1.3733 10.01266,5.77 12.93424,10.0164 1.98175,2.8803 3.46074,7.0829 3.46074,9.8336 0,1.8533 -0.74361,4.7017 -1.74657,6.6903 -1.76688,3.5033 -4.99002,5.8413 -9.82226,7.1249 -2.56229,0.6806 -2.64933,0.6852 -15.04916,0.799 -10.83693,0.099 -12.57472,0.061 -13.25579,-0.2909 -0.72553,-0.3752 -0.86699,-0.3642 -1.90189,0.1478 -0.94097,0.4656 -1.58928,0.5509 -4.09296,0.539 -3.13617,-0.015 -4.48786,-0.3546 -5.61099,-1.4097 -0.55224,-0.5188 -0.91572,-0.5294 -17.82168,-0.5192 l -17.25793,0.011 -0.7622,0.6413 c -0.4192,0.3527 -1.15217,0.7599 -1.62881,0.9048 -1.21261,0.3686 -4.57868,0.5373 -6.16851,0.3093 z m 4.6243,-4.2732 c 1.5038,-1.401 2.66453,-5.3093 2.65616,-8.9435 -0.007,-3.0681 -0.50098,-4.389 -1.98376,-5.3055 -2.60814,-1.6119 -5.24798,-0.1372 -6.3579,3.5517 -1.37891,4.583 -0.67147,9.8432 1.46948,10.9264 0.36316,0.1837 1.32244,0.3358 2.13175,0.3379 1.14514,0 1.60736,-0.1227 2.08427,-0.567 z m 47.073,-0.098 c 2.54086,-2.138 2.29905,-10.4124 -0.39796,-13.6176 -2.0199,-2.4005 -5.92853,-1.1283 -6.72427,2.1887 -0.76388,3.1843 0.51009,9.4344 2.29072,11.2382 0.77095,0.781 0.995,0.8599 2.44247,0.8599 1.31885,0 1.73081,-0.1154 2.38904,-0.6692 z m -58.00639,-0.8521 c -0.50336,-2.2427 -0.7535,-5.6987 -0.47959,-6.6261 0.27889,-0.9442 1.50809,-4.7908 1.79387,-5.6136 0.10514,-0.3027 -0.21879,-0.4826 -1.33679,-0.7426 -2.06906,-0.481 -3.91587,-1.3901 -5.4472,-2.6813 -0.86452,-0.729 -1.47187,-1.0549 -1.78223,-0.9564 -1.73789,0.5516 -5.09901,7.7698 -4.53451,9.7381 0.1152,0.4017 0.12411,0.7303 0.0198,0.7303 -0.37895,0 0.19121,4.1286 0.73794,5.3436 0.65555,1.4567 0.42841,1.4093 7.12626,1.4879 l 4.06574,0.048 z m 74.70566,0.4682 c 0.12682,-0.078 0.49603,-0.7962 0.82047,-1.5952 0.82051,-2.0206 0.91391,-5.9909 0.20143,-8.562 -0.55009,-1.985 -2.08427,-4.8084 -3.36144,-6.186 -0.84688,-0.9135 -1.52348,-1.1484 -1.24919,-0.4336 0.11922,0.3107 0.0504,0.3829 -0.25358,0.2663 -0.31693,-0.1217 -0.37864,-0.039 -0.25682,0.3451 0.0882,0.2779 0.0378,0.581 -0.11196,0.6735 -0.16202,0.1002 -0.2085,0 -0.11475,-0.2423 0.22514,-0.5867 0.0623,-0.5309 -1.80199,0.6172 -0.99934,0.6154 -2.44737,1.2129 -3.60915,1.4891 -1.56011,0.3709 -1.91291,0.5454 -1.80079,0.8904 0.0767,0.2361 0.51125,1.7389 0.96568,3.3396 0.85437,3.0095 0.90381,4.1771 0.35581,8.4022 l -0.16322,1.2584 5.07446,-0.06 c 2.79096,-0.033 5.17823,-0.1242 5.30504,-0.2026 z m -98.27338,-0.5168 c -0.0959,-0.1552 -0.37573,-0.284 -0.6218,-0.2862 -0.32819,0 -0.35795,-0.061 -0.11168,-0.2172 0.26826,-0.1702 0.25529,-0.441 -0.0645,-1.3475 -0.63212,-1.7916 -0.59881,-6.0847 0.0658,-8.4854 0.85932,-3.1039 0.99722,-3.4901 1.8849,-5.2792 1.32834,-2.6773 3.16811,-5.2858 5.19132,-7.3604 1.77707,-1.8221 1.85124,-1.9465 1.40274,-2.3524 -0.40931,-0.3704 -0.6804,-0.3871 -1.99894,-0.1233 -5.49439,1.0995 -11.76783,6.6208 -13.7172,12.0726 -0.72039,2.0147 -0.65481,5.8825 0.13458,7.9375 0.92691,2.413 3.03434,4.3316 5.74216,5.2277 2.09746,0.6942 2.40916,0.726 2.0926,0.2138 z m -1.99525,-0.5467 c -0.23847,-0.1542 -0.2711,-0.2581 -0.0818,-0.2606 0.17331,0 0.3887,0.115 0.47863,0.2606 0.20302,0.3284 0.11143,0.3284 -0.39687,0 z m 12.43255,0.9658 c -0.002,-0.022 -0.18017,-0.6243 -0.39687,-1.3386 -0.43801,-1.4439 -0.53927,-5.9756 -0.1499,-6.7084 0.13426,-0.2527 0.51042,-1.3352 0.8359,-2.4056 0.57684,-1.897 2.50402,-5.4488 3.58738,-6.6117 1.26828,-1.3613 1.29827,-1.718 0.27384,-3.2568 -0.57761,-0.8676 -1.28015,-1.56 -1.817,-1.7907 -0.4814,-0.2069 -1.32466,-0.6567 -1.8739,-0.9996 l -0.99862,-0.6234 -1.25034,0.7243 c -1.96475,1.1382 -4.14076,3.5945 -5.44681,6.1484 -1.97113,3.8545 -2.35801,5.2692 -2.48435,9.0848 -0.10272,3.1023 -0.0629,3.4764 0.49326,4.6302 0.33275,0.6904 1.02765,1.7025 1.5442,2.2491 l 0.9392,0.994 3.37344,-0.028 c 1.85539,-0.015 3.37215,-0.046 3.37057,-0.068 z m 98.21288,-0.4189 c 1.13697,-0.8943 2.10575,-3.3149 2.26775,-5.6662 0.11096,-1.6103 0.0599,-2.1293 -0.22724,-2.3111 -0.20368,-0.1289 -0.23952,-0.2363 -0.0797,-0.2385 0.38512,-0.01 0.005,-2.442 -0.71807,-4.6041 -2.13152,-6.3728 -7.4402,-11.7039 -9.55184,-9.5923 -0.19742,0.1974 -0.81784,0.5247 -1.37871,0.7272 -1.00532,0.3631 -1.16246,0.5193 -2.36649,2.3526 l -0.60816,0.9261 0.73479,0.9447 c 1.89372,2.4348 3.62966,5.9895 4.77159,9.7709 0.50522,1.673 0.43996,5.4328 -0.11852,6.8286 -0.24638,0.6158 -0.44797,1.1652 -0.44797,1.2208 0,0.056 1.58583,0.1171 3.52406,0.1365 3.15769,0.032 3.59417,-0.02 4.19846,-0.4952 z m -10.3463,-20.1951 c 0.0606,-0.038 0.4079,-0.3058 0.7717,-0.5953 l 0.66146,-0.5263 -0.50403,0.5953 c -0.27722,0.3274 -0.62448,0.5953 -0.7717,0.5953 -0.14722,0 -0.21807,-0.031 -0.15743,-0.069 z m 15.02615,19.9434 c 3.47849,-1.0826 5.1578,-2.6712 6.12131,-5.7907 1.11905,-3.6231 0.4812,-7.5936 -1.73735,-10.8148 -2.75845,-4.0052 -8.02216,-7.8339 -11.81133,-8.5913 -2.64883,-0.5294 -2.94178,0 -1.12365,2.0151 3.80559,4.2264 6.23822,8.4494 7.39193,12.8323 1.01749,3.8654 0.84239,8.1253 -0.40466,9.845 -0.8664,1.1948 -0.76223,1.2284 1.56375,0.5044 z m -42.0357,-0.5759 c 0,-0.1003 -0.0744,-0.5544 -0.16537,-1.0092 l -0.16536,-0.8268 h -15.18702 -15.18701 l -0.26884,0.7071 c -0.57695,1.5175 -1.32955,1.4506 15.49393,1.378 8.51382,-0.037 15.47967,-0.1488 15.47967,-0.2491 z m -25.71864,-4.548 0.0782,-1.7859 h -1.99143 c -1.85303,0 -1.99981,0.041 -2.11209,0.5953 -0.29428,1.4517 -0.39717,2.7775 -0.22865,2.946 0.10073,0.1007 1.08148,0.1488 2.17943,0.1068 l 1.99627,-0.076 z m 6.08704,1.6917 c 0.37185,-0.2359 0.35857,-3.6679 -0.0137,-3.5438 -0.10914,0.036 -1.09141,0.066 -2.18281,0.066 h -1.98438 v 1.7071 1.7072 l 1.65365,0.094 c 0.9095,0.052 1.7727,0.1151 1.91823,0.1409 0.14552,0.026 0.41958,-0.051 0.60902,-0.1715 z m 6.35717,-0.2365 c 0.13087,-0.2546 0.24184,-1.0881 0.2466,-1.8521 l 0.009,-1.389 h -2.35395 -2.35395 v 1.7004 c 0,1.9489 -0.0319,1.9245 2.57038,1.973 1.31907,0.025 1.6914,-0.061 1.88227,-0.4323 z m 6.34121,-1.4552 0.0782,-1.7859 h -2.26105 -2.26104 v 1.7046 1.7045 l 1.12448,0.1072 c 0.61846,0.059 1.60072,0.096 2.18281,0.081 l 1.05833,-0.026 z m 6.13947,1.7415 c 0,-0.097 -0.13129,-0.9307 -0.29174,-1.8521 l -0.29175,-1.6753 h -1.78082 c -0.97946,0 -1.83044,0.049 -1.89107,0.1092 -0.0606,0.06 -0.0703,0.8935 -0.0215,1.8521 l 0.0887,1.7428 h 2.09409 c 1.15175,0 2.09409,-0.08 2.09409,-0.1767 z m -24.62943,-9.0175 0.0232,-1.1245 h -2.27982 c -2.23513,0 -2.27669,0.012 -2.12028,0.5953 0.0877,0.3274 0.16117,1.3342 0.16315,2.2374 l 0.004,1.642 1.91823,0.078 1.91823,0.078 0.17525,-1.1906 c 0.0964,-0.6549 0.18569,-1.6967 0.19844,-2.3151 z m 23.98043,3.2457 c 0.0445,-0.148 0.13133,-1.1919 0.19293,-2.3197 l 0.11201,-2.0505 h -2.07693 -2.07693 v 2.2049 c 0,1.2126 0.0859,2.2907 0.19091,2.3957 0.28658,0.2866 3.56467,0.08 3.65801,-0.2304 z m -17.87183,-2.1212 v -2.249 h -2.24896 -2.24896 v 2.249 2.2489 h 2.24896 2.24896 z m 6.35,0 v -2.249 h -2.38125 -2.38125 v 2.249 2.2489 h 2.38125 2.38125 z m 6.08541,0 v -2.249 h -2.24896 -2.24895 v 2.249 2.2489 h 2.24895 2.24896 z m -18.5756,-6.4577 c 0.0426,-1.2234 -0.0169,-2.3067 -0.1323,-2.4072 -0.11539,-0.1006 -1.07301,-0.128 -2.12803,-0.061 l -1.91823,0.1219 v 2.3625 2.3626 l 2.05052,-0.077 2.05052,-0.077 z m 6.14019,-0.1569 v -2.5136 h -2.24896 -2.24896 v 2.5136 2.5135 h 2.24896 2.24896 z m 6.21771,0 v -2.3813 h -2.24896 -2.24896 l -0.0762,2.4579 -0.0762,2.4578 2.32517,-0.077 2.32518,-0.077 z m 6.26441,0.241 c 0.0567,-1.5047 -0.0186,-2.3586 -0.22288,-2.5274 -0.16965,-0.1403 -1.18168,-0.219 -2.24895,-0.1749 l -1.9405,0.08 -0.0761,2.4474 -0.0761,2.4474 h 2.23945 2.23944 z m 5.6985,-0.1249 c -0.0732,-1.3186 -0.19813,-2.4625 -0.27764,-2.542 -0.0795,-0.079 -0.98505,-0.06 -2.01231,0.043 l -1.86776,0.1876 v 2.178 c 0,1.1979 0.0794,2.2574 0.17639,2.3544 0.097,0.097 1.06244,0.1764 2.1454,0.1764 h 1.969 z m -30.08687,-0.097 c 0,-2.3954 -0.11316,-2.5675 -1.52136,-2.3139 -0.53313,0.096 -0.59531,0.2609 -0.59531,1.5784 0,1.3325 0.0811,1.5407 0.8599,2.2074 0.47294,0.4049 0.94919,0.741 1.05833,0.7469 0.10914,0.01 0.19844,-0.9926 0.19844,-2.2188 z m 32.55446,1.386 c 0.70983,-0.5248 0.78304,-0.7212 0.78304,-2.101 0,-1.6717 -0.1738,-1.9172 -1.17846,-1.6651 -0.65059,0.1633 -0.67363,0.2405 -0.67363,2.2571 0,1.1483 0.0644,2.0879 0.14301,2.0879 0.0787,0 0.49537,-0.2605 0.92604,-0.5789 z m -43.56928,-0.7537 c 1.50176,-0.5619 3.17886,-2.1 3.98092,-3.651 1.43713,-2.7792 -0.94018,-7.8147 -4.38998,-9.2988 -1.79477,-0.772 -4.77264,-0.6682 -6.51356,0.2272 -2.70571,1.3915 -4.36316,3.6652 -4.36316,5.9855 0,2.9394 2.86801,6.3098 6.02872,7.0849 1.35762,0.3329 3.88455,0.1657 5.25706,-0.3478 z m 60.17309,-0.2206 c 2.79721,-1.4432 4.54472,-3.9757 4.54956,-6.5932 0.003,-1.7298 -0.63679,-3.0551 -2.12414,-4.3989 -3.46801,-3.1331 -8.19243,-3.0724 -11.28822,0.145 -1.26495,1.3147 -2.12305,3.0668 -2.36443,4.8279 -0.32657,2.3826 1.96319,5.5221 4.65877,6.3877 1.76619,0.5672 5.11951,0.379 6.56846,-0.3685 z m -49.21412,-6.9825 0.0765,-2.3122 h -1.06863 -1.06864 v 2.2306 c 0,2.102 0.0343,2.2373 0.59531,2.3478 1.33373,0.2628 1.38449,0.1843 1.46551,-2.2662 z m 5.54025,1.9913 c 0.0969,-0.2524 0.18243,-1.2942 0.19013,-2.3151 l 0.014,-1.8561 -2.05052,-0.077 -2.05052,-0.077 v 2.216 c 0,1.2188 0.0794,2.2953 0.17639,2.3923 0.097,0.097 0.93418,0.1764 1.86038,0.1764 1.35408,0 1.71851,-0.09 1.86013,-0.459 z m 6.366,-1.9884 0.0765,-2.3151 h -2.25926 -2.25926 v 2.2049 c 0,1.2127 0.0839,2.2888 0.18654,2.3914 0.1026,0.1026 1.08487,0.1522 2.18281,0.1102 l 1.99628,-0.076 z m 6.35015,-0.01 0.0766,-2.3256 -2.32555,0.077 -2.32556,0.077 -0.0786,1.9596 c -0.0432,1.0778 -0.0153,2.1245 0.062,2.3259 0.10748,0.2801 0.65505,0.3482 2.32753,0.2893 l 2.18699,-0.077 z m 6.08527,0.01 0.0764,-2.3151 h -2.25926 -2.25926 v 2.2049 c 0,1.2127 0.0839,2.2888 0.18654,2.3914 0.1026,0.1026 1.08486,0.1522 2.18281,0.1102 l 1.99627,-0.076 z m 5.55642,-0.012 0.0766,-2.3269 -1.9287,0.078 -1.92871,0.078 -0.0786,1.9596 c -0.0432,1.0778 -0.0151,2.1251 0.0625,2.3273 0.10554,0.275 0.59204,0.3479 1.93066,0.2894 l 1.78957,-0.078 z m 2.9101,2.2898 c 0.57637,-0.1544 0.60181,-0.2655 0.52917,-2.3115 l -0.0763,-2.1493 h -0.79375 -0.79375 l -0.026,2.1167 c -0.0329,2.6847 -0.0421,2.6663 1.1606,2.3441 z m -58.28519,-6.4442 c 1.78443,-2.9375 6.53378,-6.1667 9.59943,-6.527 1.67192,-0.1964 1.91123,-0.4436 0.85357,-0.8817 -1.2838,-0.5318 -4.11109,-0.2241 -6.05549,0.659 -3.13767,1.425 -5.51399,3.6212 -6.94425,6.4179 -0.98354,1.9231 -0.96599,2.5116 0.0999,3.3504 l 0.8599,0.6767 0.31608,-1.0618 c 0.17384,-0.584 0.74573,-1.7691 1.27086,-2.6335 z m 85.30373,2.7576 c 0.80106,-0.6741 0.80529,-0.6911 0.41,-1.6537 -0.71396,-1.7385 -2.75907,-4.4735 -4.30138,-5.7523 -2.20189,-1.8258 -4.47509,-2.8198 -6.7698,-2.9602 -2.99344,-0.1833 -4.68707,0.7797 -1.88079,1.0693 2.36393,0.244 5.78997,2.1073 8.12322,4.418 1.11563,1.1049 2.55309,3.3759 2.86133,4.5207 0.15392,0.5716 0.38519,1.0392 0.51393,1.0392 0.12875,0 0.59832,-0.3065 1.04349,-0.681 z m -26.43338,-5.0333 c 0,-2.1262 -0.0254,-2.2195 -0.64642,-2.3753 -1.12627,-0.2827 -1.28864,0.045 -1.13481,2.2891 0.0777,1.1342 0.20982,2.1729 0.29351,2.3083 0.0837,0.1355 0.45267,0.1888 0.81994,0.1186 0.65058,-0.1244 0.66778,-0.1846 0.66778,-2.3407 z m -33.39335,-0.04 -0.0764,-2.3151 h -0.92605 -0.92604 l -0.0764,2.3151 -0.0764,2.3151 h 1.07893 1.07894 z m 5.67555,1.9844 c 0.066,-0.1819 0.14713,-1.1517 0.18022,-2.1551 0.0703,-2.1313 -0.0494,-2.2668 -2.00797,-2.2726 -2.1916,-0.01 -2.20445,0.01 -2.20445,2.5378 v 2.2206 h 1.95607 c 1.32443,0 1.99483,-0.1068 2.07613,-0.3307 z m 6.2307,-1.9844 -0.0764,-2.3151 h -2.11667 -2.11667 l -0.0764,2.3151 -0.0765,2.3151 h 2.26956 2.26956 z m 6.35,0 -0.0764,-2.3151 -2.31511,-0.076 -2.3151,-0.076 v 2.3916 2.3915 h 2.39155 2.39155 z m 6.08542,0 -0.0765,-2.3151 -2.18281,-0.077 -2.18281,-0.077 v 2.392 2.3919 h 2.25926 2.25926 z m 5.61209,-0.066 v -2.3813 h -1.15755 c -0.63665,0 -1.52962,0.074 -1.98437,0.1654 l -0.82683,0.1654 v 2.2159 2.2158 h 1.98438 1.98437 z m -59.98191,-0.124 c -0.50096,-0.6883 -0.87225,-0.856 -0.87225,-0.394 0,0.4004 0.60535,1.0254 1.00454,1.0371 0.24347,0.01 0.20507,-0.1796 -0.13229,-0.6431 z m 91.84256,0.4926 c 0.42206,-0.162 0.5691,-0.9236 0.24155,-1.2511 -0.23533,-0.2354 -1.14595,0.6036 -1.14595,1.0558 0,0.3881 0.25721,0.4436 0.9044,0.1953 z m -88.75161,-3.4359 c 0.94612,-1.0265 1.0958,-1.3372 0.96328,-1.9998 -0.0863,-0.4314 -0.32336,-0.9509 -0.52681,-1.1544 -0.44795,-0.4479 -0.69045,-0.2145 -2.11948,2.04 l -0.95525,1.5071 0.58703,0.4111 c 0.32286,0.2262 0.66443,0.4112 0.75904,0.4112 0.0946,0 0.67609,-0.5469 1.29219,-1.2152 z m 87.36336,0.7773 c 0.63573,-0.5753 0.61054,-0.8861 -0.13717,-1.6925 -0.34157,-0.3683 -0.67088,-0.7838 -0.73181,-0.9233 -0.60027,-1.3741 -1.77393,-2.6721 -1.84422,-2.0395 -0.0415,0.3734 -0.21632,1.2565 -0.38537,1.9466 -0.13091,0.5343 -0.0257,0.8026 0.46702,1.1906 0.3498,0.2754 0.85037,0.8282 1.11238,1.2284 0.55059,0.841 0.84749,0.8976 1.51917,0.2897 z m -68.02019,-0.6866 c 0.0127,-0.3274 0.13718,-1.6668 0.27669,-2.9765 0.26162,-2.456 0.28834,-3.3736 0.16759,-5.7547 -0.086,-1.6965 0.61681,-2.8485 2.15066,-3.5252 l 1.01768,-0.449 0.32267,-2.8085 c 0.35239,-3.0672 1.12715,-7.0455 1.79582,-9.2214 0.23423,-0.7622 0.35252,-1.4592 0.26287,-1.5489 -0.26813,-0.2681 -4.50508,-0.6675 -4.72546,-0.4454 -0.37333,0.3762 -2.55721,8.3605 -3.24037,11.8468 -1.23187,6.2866 -2.02877,11.4191 -2.00984,12.9445 0.009,0.7416 0.1678,0.8883 1.78594,1.6526 2.16587,1.023 2.16721,1.0232 2.19575,0.2857 z m 48.61896,-0.1984 c 0.8591,-0.4366 1.6961,-0.7938 1.86,-0.7938 0.46861,0 0.36304,-1.8676 -0.3739,-6.6145 -1.09574,-7.0582 -2.1961,-11.8674 -4.056,-17.7271 l -0.46189,-1.4552 -2.23375,0.096 c -1.22856,0.053 -2.284,0.1425 -2.3454,0.1998 -0.0614,0.057 0.14824,1.4515 0.46589,3.0983 0.31765,1.6468 0.75946,4.4739 0.9818,6.2825 0.54532,4.4358 0.48921,4.2771 1.71906,4.8613 2.06768,0.9823 2.77942,2.857 1.95503,5.1495 -0.44866,1.2477 -0.45063,1.3597 -0.0321,1.8222 0.3384,0.3739 0.44681,0.9982 0.44955,2.5886 0.003,1.9113 0.17745,3.2864 0.41621,3.2864 0.0514,0 0.79641,-0.3571 1.65551,-0.7937 z m -73.85416,-1.9182 c 0.39849,-0.6185 1.1278,-1.6292 1.6207,-2.246 0.49602,-0.6208 0.83032,-1.2932 0.74867,-1.506 -0.14966,-0.39 -1.45958,-1.3658 -1.58222,-1.1787 -1.07334,1.6378 -2.82707,4.8008 -2.82707,5.0988 0,0.3693 0.66182,0.9293 1.12072,0.9483 0.10708,0 0.52072,-0.498 0.9192,-1.1164 z m 44.73677,-0.9472 0.0777,-1.8971 h -2.26055 -2.26055 v 1.8361 1.8361 l 0.99219,0.1095 c 0.5457,0.06 1.52797,0.088 2.18281,0.061 l 1.19063,-0.048 z m 6.35,-0.012 0.0777,-1.8856 h -2.39284 -2.39284 v 1.8327 c 0,2.1138 -0.0908,2.0491 2.77812,1.9819 l 1.85209,-0.043 z m 47.62664,1.7656 c 0.52544,-0.5254 0.37018,-1.1064 -0.76498,-2.8627 -0.59537,-0.9212 -1.18773,-1.9517 -1.31637,-2.29 -0.2888,-0.7596 -0.44741,-0.7568 -1.40285,0.025 l -0.75898,0.6208 1.12806,1.5525 c 2.66865,3.6728 2.52931,3.5407 3.11512,2.9548 z m -65.82833,-1.7683 c 0,-1.5987 -0.0647,-1.8381 -0.52917,-1.9596 -0.29104,-0.076 -0.76729,-0.076 -1.05833,0 -0.46452,0.1215 -0.52917,0.3609 -0.52917,1.9596 v 1.8213 h 1.05833 1.05834 z m 5.68854,-0.031 v -1.7198 l -2.05052,-0.077 -2.05052,-0.077 v 1.8744 1.8743 l 2.05052,-0.077 2.05052,-0.077 z m 18.65312,0 v -1.8521 h -2.24896 -2.24895 v 1.8521 1.8521 h 2.24895 2.24896 z m 5.58092,1.1245 c 0.0136,-0.4002 0.0618,-1.2337 0.1072,-1.8521 l 0.0825,-1.1245 h -2.09158 -2.09158 v 1.8521 1.8521 h 1.98438 c 1.9824,0 1.9844,-8e-4 2.00904,-0.7276 z m 3.41492,-1.1245 v -1.8521 h -0.92605 -0.92604 v 1.6757 c 0,0.9216 0.0794,1.7551 0.17639,1.8521 0.097,0.097 0.51373,0.1764 0.92604,0.1764 h 0.74966 z m -67.99792,-1.5038 c 0.80037,-0.9691 1.68673,-1.9804 1.96969,-2.2473 0.30842,-0.2908 0.41439,-0.5713 0.26458,-0.7003 -1.97905,-1.7036 -7.21493,-5.3992 -7.50119,-5.2945 -0.25818,0.094 -2.67058,3.2965 -2.67058,3.5448 0,0.3737 1.88943,2.5576 3.43827,3.9741 2.56745,2.3482 2.73457,2.4918 2.89548,2.4884 0.0817,0 0.80339,-0.796 1.60375,-1.7652 z m 11.52583,1.2654 c 0.57303,-0.2766 1.73364,-0.7038 2.57912,-0.9494 1.51966,-0.4414 1.53536,-0.4561 1.37341,-1.283 -0.28534,-1.4569 -1.27899,-4.1438 -1.53244,-4.1438 -0.13404,0 -0.48279,0.3039 -0.77498,0.6754 -0.7264,0.9235 -0.92916,0.6043 -0.23522,-0.3703 0.58166,-0.8169 0.7364,-1.628 0.31057,-1.628 -0.1361,0 -0.39706,0.4137 -0.57991,0.9194 -0.18285,0.5056 -0.38296,0.8689 -0.44468,0.8071 -0.1383,-0.1383 -2.22139,2.4021 -2.68511,3.2745 -0.30667,0.577 -0.29231,0.6182 0.15607,0.4474 0.39607,-0.1509 0.42834,-0.1222 0.16307,0.1451 -0.41298,0.416 -0.42089,1.0629 -0.0237,1.9347 0.36757,0.8067 0.37513,0.8075 1.69377,0.1709 z m 79.3688,-0.6777 c 0.46799,-1.2254 0.44072,-1.4285 -0.33725,-2.5122 -0.25672,-0.3576 -0.31793,-0.559 -0.13603,-0.4474 0.1819,0.1115 0.33073,0.1447 0.33073,0.074 0,-0.071 -0.14883,-0.2863 -0.33073,-0.4786 -0.60593,-0.6406 -1.91277,-2.4562 -2.34651,-3.26 -0.41187,-0.7634 -0.93407,-0.8842 -0.85789,-0.1985 0.0202,0.1819 -0.066,0.3307 -0.19164,0.3307 -0.38381,0 -0.9753,1.3901 -1.50909,3.5465 l -0.50798,2.0522 0.68911,0.2508 c 2.04356,0.7439 3.62841,1.4025 3.85088,1.6001 0.52106,0.463 0.90945,0.1868 1.3464,-0.9573 z m 14.14495,-1.2823 c 1.38245,-1.343 2.79723,-2.7617 3.14396,-3.1527 l 0.63042,-0.7109 -0.85644,-1.3346 c -0.47104,-0.7341 -0.9492,-1.3347 -1.06258,-1.3347 -0.11338,0 -0.26841,-0.2381 -0.34452,-0.5291 -0.26404,-1.0097 -0.41265,-0.9282 -6.75257,3.7054 -0.62738,0.4585 -1.20148,0.9921 -1.27579,1.1857 -0.0743,0.1937 0.46645,0.9881 1.20167,1.7654 0.73521,0.7773 1.33908,1.5229 1.34193,1.657 0.008,0.3622 0.8371,1.2131 1.17066,1.2009 0.15934,-0.01 1.42081,-1.1094 2.80326,-2.4524 z m -86.51874,0.079 c 0,-1.1679 -2.04674,-4.3885 -2.50054,-3.9347 -0.13639,0.1363 0.74445,3.7154 1.02688,4.1723 0.10008,0.162 0.4726,0.2945 0.82781,0.2945 0.47062,0 0.64585,-0.1444 0.64585,-0.5321 z m 64.97702,0.3296 c 0.26338,-0.1788 0.79997,-2.2454 1.08093,-4.1631 0.10561,-0.7209 0.0862,-0.7455 -0.21093,-0.2677 -0.17997,0.2893 -0.54407,0.7588 -0.8091,1.0433 -0.60675,0.6512 -1.53793,2.5551 -1.53793,3.1443 0,0.4633 0.92777,0.616 1.47703,0.2432 z m -75.36192,-5.8788 c 0.90951,-1.2947 1.65365,-2.4759 1.65365,-2.625 0,-0.2767 -0.83371,-0.8187 -1.25935,-0.8187 -0.21566,0 -2.20461,2.9906 -2.95867,4.4487 -0.33713,0.6518 -0.007,1.3846 0.61239,1.3605 0.16408,-0.01 1.04247,-1.0708 1.95198,-2.3655 z m 60.72187,2.0181 c 0.63746,-0.3122 0.58055,-0.5608 -0.21089,-0.9214 -0.88628,-0.4039 -35.45478,-0.4399 -36.51158,-0.038 -0.57299,0.2178 -0.64801,0.3406 -0.39473,0.6457 0.17198,0.2073 0.63141,0.4276 1.02094,0.4896 1.35729,0.2162 35.63671,0.049 36.09626,-0.1758 z m 25.97367,0.1984 c 0.65105,-0.2498 0.51723,-0.6997 -0.9044,-3.0403 -0.7276,-1.198 -1.32292,-2.2775 -1.32292,-2.399 0,-0.3512 -0.90875,-0.2563 -1.469,0.1533 -0.49208,0.3598 -0.45673,0.4542 0.91706,2.4474 1.37119,1.9895 2.14254,2.9992 2.2911,2.9992 0.0383,0 0.25798,-0.072 0.48816,-0.1606 z m -73.54834,-2.0971 c 0.21786,-1.1613 1.81634,-6.9075 3.7378,-13.4367 0.72001,-2.4466 0.70449,-3.0834 -0.0757,-3.1026 -0.25922,-0.01 -0.92137,-0.1722 -1.47143,-0.3684 -0.9756,-0.3481 -1.0093,-0.3391 -1.37555,0.3692 -0.36353,0.703 -0.35505,0.7221 0.26768,0.6031 0.8351,-0.1597 1.27058,0.8849 1.03205,2.4755 -0.31439,2.0965 -1.36528,1.628 -1.67727,-0.7478 -0.14546,-1.1077 -0.22448,-1.2728 -0.38475,-0.8038 -0.11094,0.3245 -1.32551,2.6702 -2.69906,5.2126 -1.37355,2.5424 -2.49736,4.7471 -2.49736,4.8993 0,0.6335 4.44934,6.1602 4.78993,5.9497 0.0974,-0.06 0.25657,-0.5327 0.35362,-1.0501 z m -2.20888,-3.0934 c -0.43483,-0.6963 -1.07498,-2.9869 -1.07945,-3.8626 -0.004,-0.8126 0.69097,-0.6793 1.3975,0.2679 0.38809,0.5203 0.53781,1.153 0.55721,2.3548 0.0284,1.7575 -0.27955,2.1937 -0.87526,1.2399 z m 62.78297,1.6515 c 1.00142,-1.2984 2.06374,-2.6216 2.3607,-2.9403 l 0.53993,-0.5796 -0.63774,-1.2189 c -0.35076,-0.6704 -0.8773,-1.5848 -1.17008,-2.0321 -0.29278,-0.4473 -1.4253,-2.6141 -2.51671,-4.8152 -1.34893,-2.7203 -2.12562,-4.0062 -2.42546,-4.0153 -0.2426,-0.01 -1.00022,0.2261 -1.6836,0.519 -1.07235,0.4597 -1.21953,0.6137 -1.07466,1.1245 0.48131,1.6971 1.63661,6.0822 2.56082,9.72 0.9069,3.5697 1.23439,4.7741 1.70865,6.2839 0.19044,0.6062 0.50481,0.3311 2.33815,-2.046 z m -1.29133,-2.9811 c 0.22174,-1.9873 0.62395,-2.9367 1.29917,-3.0667 0.46571,-0.09 0.49045,0.037 0.34524,1.7692 -0.18185,2.169 -0.5219,2.9511 -1.2831,2.9511 -0.51285,0 -0.53469,-0.1 -0.36131,-1.6536 z m -3.00267,-8.0797 c -0.52911,-1.0319 -0.5609,-2.5535 -0.0669,-3.2022 l 0.48163,-0.6323 0.57632,0.5763 c 0.56568,0.5657 0.59486,1.2551 0.12608,2.9791 -0.17342,0.6377 -0.84701,0.806 -1.11714,0.2791 z m -71.69978,11.387 c 0.61495,-0.8368 1.39397,-1.8269 1.73116,-2.2002 l 0.61307,-0.6789 -0.59811,-0.5492 c -0.45942,-0.4218 -5.24791,-3.556 -7.51918,-4.9215 -0.18721,-0.1126 -0.94351,0.6137 -1.94341,1.8664 l -1.63692,2.0506 1.01737,0.8883 c 1.37006,1.1962 6.71211,5.0658 6.99342,5.0658 0.12348,0 0.72765,-0.6846 1.3426,-1.5213 z m 91.37396,0.9888 c 0.26506,-0.2929 1.89085,-1.551 3.61288,-2.7957 1.72273,-1.2453 3.13096,-2.4514 3.13096,-2.6814 0,-0.23 -0.44649,-0.9527 -0.99219,-1.6061 -0.5457,-0.6533 -1.23747,-1.4848 -1.53725,-1.8477 l -0.54507,-0.6599 -4.15129,2.7158 c -2.28321,1.4937 -4.15129,2.7924 -4.15129,2.886 0,0.2324 2.00223,2.8976 2.85024,3.7939 0.82065,0.8675 1.14264,0.9027 1.78301,0.1951 z m 5.90643,-2.4249 c 0.93879,-0.7017 1.55226,-1.2759 1.36327,-1.2759 -0.37943,0 -1.48774,0.8049 -2.90711,2.1112 -1.18066,1.0866 -0.62512,0.786 1.54384,-0.8353 z m -105.38555,-0.3617 c -0.72362,-0.6483 -1.43204,-1.1788 -1.57427,-1.1788 -0.32422,0 -0.0996,0.2228 1.43473,1.4228 1.64714,1.2883 1.7158,1.1682 0.13954,-0.244 z m 46.64761,0.1599 c -0.0485,-0.1368 -0.72412,-1.0158 -1.50136,-1.9532 -2.04831,-2.4705 -3.77875,-4.9782 -5.48894,-7.9544 -1.72252,-2.9977 -1.95575,-2.9775 -2.06682,0.1791 -0.0369,1.0491 -0.2834,3.5475 -0.54776,5.5519 -0.26435,2.0044 -0.41868,3.7064 -0.34296,3.7821 0.0757,0.076 1.66249,0.194 3.52615,0.2629 1.86366,0.069 3.44587,0.1827 3.51602,0.2529 0.24186,0.2418 2.99368,0.127 2.90567,-0.1213 z m 14.92755,0.094 c 0.0852,-0.085 1.6156,-0.2027 3.4008,-0.261 1.78521,-0.058 3.32774,-0.197 3.42786,-0.3081 0.10012,-0.1111 0.0241,-1.5116 -0.16901,-3.1123 -0.19307,-1.6008 -0.35807,-3.8034 -0.36665,-4.8948 -0.0191,-2.4291 -0.26249,-4.0168 -0.59856,-3.9048 -0.13845,0.046 -0.60785,0.7352 -1.04311,1.5313 -1.72132,3.1482 -4.33068,6.9057 -6.49116,9.3474 -0.62555,0.707 -1.13737,1.3916 -1.13737,1.5213 0,0.258 2.72604,0.3322 2.9772,0.081 z m -46.1059,-5.0269 c 1.44619,-2.092 1.46626,-2.3779 0.21396,-3.0481 -0.41754,-0.2235 -0.55283,-0.1196 -0.88754,0.6815 -0.2172,0.5198 -0.74945,1.5213 -1.18277,2.2256 -0.85672,1.3923 -0.95456,1.8754 -0.47666,2.3533 0.42095,0.4209 0.68714,0.1685 2.33301,-2.2123 z m 76.69295,2.3005 c 0.47546,-0.3013 0.22691,-1.0515 -1.0559,-3.1873 -0.56261,-0.9367 -1.02294,-1.7999 -1.02294,-1.9182 0,-0.358 -0.62562,-0.2312 -1.25163,0.2537 l -0.59018,0.4572 1.11935,1.5933 c 2.31788,3.2995 2.20041,3.182 2.8013,2.8013 z m 6.06647,-4.7893 c 1.48644,-0.9447 2.70261,-1.8785 2.70261,-2.075 0,-0.3911 -0.52213,-1.106 -2.01319,-2.7564 -0.87266,-0.966 -1.04627,-1.0511 -1.6634,-0.8158 -1.02817,0.3919 -6.90674,4.335 -6.90674,4.6326 0,0.1416 0.66796,1.1904 1.48436,2.3307 l 1.48435,2.0733 1.10471,-0.8359 c 0.60758,-0.4598 2.32087,-1.6088 3.8073,-2.5535 z m -88.3361,3.0979 c -0.0606,-0.041 -0.34837,-0.2495 -0.63941,-0.463 -0.48948,-0.359 -0.50193,-0.3534 -0.16604,0.075 0.19972,0.2546 0.48745,0.463 0.63941,0.463 0.15196,0 0.22667,-0.034 0.16604,-0.075 z m 2.75634,-0.7159 c 0.25692,-0.4349 0.88143,-1.3336 1.38781,-1.9969 0.50637,-0.6634 0.84633,-1.3265 0.75546,-1.4735 -0.23741,-0.3842 -6.96336,-4.7346 -7.31983,-4.7346 -0.54379,0 -3.11398,3.0596 -3.11398,3.7069 0,0.3767 2.33278,2.2481 3.33267,2.6736 0.49738,0.2116 3.41805,2.2271 3.5024,2.4169 0.20844,0.469 1.02477,0.1367 1.45547,-0.5924 z m 84.5226,0.018 c 1.22982,-0.6373 2.89719,-1.8726 2.52749,-1.8726 -0.15222,0 -1.0925,0.5357 -2.08952,1.1906 -1.90584,1.2517 -2.0895,1.5377 -0.43797,0.682 z m -43.29473,-0.6159 c 0.49587,-0.4729 1.37404,-1.4352 1.95148,-2.1385 0.57745,-0.7032 1.54895,-1.8867 2.15891,-2.63 0.60995,-0.7432 1.04011,-1.4628 0.9559,-1.5991 -0.0903,-0.146 -1.07673,-0.1727 -2.40337,-0.065 l -2.25027,0.1826 -2.07481,1.8979 c -1.14115,1.0438 -2.12627,2.032 -2.18916,2.1959 -0.14324,0.3732 2.14081,3.0162 2.60663,3.0162 0.1887,0 0.74881,-0.3869 1.24469,-0.8599 z m -48.46008,-1.3586 c 0,-0.056 -0.32742,-0.3126 -0.7276,-0.5701 l -0.72761,-0.4683 0.50403,0.5701 c 0.44603,0.5045 0.95118,0.7532 0.95118,0.4683 z m 45.50833,-3.5439 c 0,-0.089 -0.31993,-0.4957 -0.71096,-0.9038 -0.61929,-0.6464 -0.90924,-0.7421 -2.24895,-0.7421 -0.8459,0 -1.538,0.1081 -1.538,0.2403 0,0.1322 0.54471,0.909 1.21047,1.7263 l 1.21047,1.486 1.03848,-0.8225 c 0.57117,-0.4524 1.03849,-0.8953 1.03849,-0.9842 z m -31.28202,-1.0506 c 0.76135,-1.1278 1.38423,-2.1952 1.38419,-2.3719 -8e-5,-0.3175 -0.80058,-0.8692 -1.2612,-0.8692 -0.13067,0 -0.76025,0.9977 -1.39908,2.2171 -0.99907,1.9071 -1.11175,2.2772 -0.80576,2.6459 0.19567,0.2357 0.43267,0.4286 0.52667,0.4286 0.094,0 0.79384,-0.9227 1.55518,-2.0505 z m 68.03882,1.4135 c 0.24458,-0.2947 0.0959,-0.7226 -0.71237,-2.0505 -0.56181,-0.923 -1.10268,-1.8953 -1.20194,-2.1607 -0.20905,-0.559 -0.93216,-0.5005 -1.31422,0.1063 -0.20022,0.318 0.0451,0.9008 1.02998,2.4469 1.31658,2.0667 1.65039,2.3185 2.19855,1.658 z m 2.05152,-1.0918 c 0.40803,-0.4081 3.17939,-2.2503 4.78179,-3.1787 0.47294,-0.274 0.85989,-0.685 0.85989,-0.9132 0,-0.2283 -0.65122,-1.0582 -1.44716,-1.8442 l -1.44717,-1.4292 -3.08939,1.4403 c -3.44721,1.6072 -3.88306,2.0016 -3.11799,2.8215 0.27652,0.2964 0.97006,1.2072 1.5412,2.0241 1.11863,1.6 1.29757,1.7006 1.91883,1.0794 z m -72.38435,-0.8509 c 0.3291,-0.5457 0.93412,-1.426 1.34449,-1.9563 0.41037,-0.5302 0.74613,-1.0353 0.74613,-1.1224 0,-0.192 -6.23045,-3.3374 -6.61069,-3.3374 -0.14786,0 -0.93415,0.6814 -1.74731,1.5143 l -1.47848,1.5144 0.75105,0.6172 c 0.41308,0.3395 1.28684,0.9043 1.94168,1.2552 0.65484,0.3508 1.72641,1.0505 2.38125,1.5549 0.65484,0.5043 1.38927,0.9249 1.63207,0.9346 0.24279,0.01 0.7107,-0.4288 1.03981,-0.9745 z m -5.5823,-0.8315 c 0,-0.13 -0.19543,-0.3113 -0.4343,-0.403 -0.36313,-0.1393 -0.3795,-0.1006 -0.0999,0.2363 0.38103,0.4591 0.53419,0.5069 0.53419,0.1667 z m -23.32164,-2.7884 c 0.38964,-0.9042 0.56254,-1.6072 0.40797,-1.6587 -0.54924,-0.1831 -6.61058,-3.6219 -8.35546,-4.7403 -0.99506,-0.6379 -1.91374,-1.1597 -2.04152,-1.1597 -0.28808,0 -2.4081,3.3465 -2.4081,3.8013 0,0.469 3.70816,2.6144 6.21771,3.5972 1.16417,0.4559 2.47386,0.9874 2.91042,1.181 2.19327,0.9727 2.44372,0.8945 3.26898,-1.0208 z m 131.85118,1.0125 c 2.16668,-0.7722 7.20341,-3.3223 8.31958,-4.2123 l 0.72853,-0.5809 -0.91569,-1.2937 c -0.50363,-0.7115 -1.06301,-1.6278 -1.24308,-2.0362 -0.35243,-0.7993 -0.32794,-0.8037 -2.05166,0.3625 -1.54892,1.0479 -3.65207,2.2744 -6.21097,3.622 -1.23693,0.6515 -2.38011,1.2897 -2.54041,1.4184 -0.38478,0.3089 1.07057,3.4094 1.60034,3.4094 0.20865,0 1.24966,-0.3101 2.31336,-0.6892 z m -55.69952,-1.8297 c 13.36586,-1.5433 24.74152,-4.7154 33.55342,-9.3563 4.17208,-2.1973 6.72227,-3.9086 6.86465,-4.6065 0.0655,-0.3212 0.41882,-2.0127 0.78513,-3.7589 1.04439,-4.9789 1.20515,-6.1135 1.48326,-10.4688 0.52551,-8.2297 -0.40807,-16.1363 -3.57669,-30.2911 -0.65324,-2.9182 -1.18771,-5.4016 -1.18771,-5.5188 0,-0.2236 -0.56975,-0.1192 -2.81266,0.5151 l -1.35745,0.384 -0.9762,2.4491 c -2.64491,6.6359 -3.94933,8.3502 -6.09848,8.015 -1.61961,-0.2526 -6.57819,-2.8284 -9.47858,-4.9238 l -2.59941,-1.8779 -4.62416,0.4793 c -4.39765,0.4559 -4.61762,0.5056 -4.49084,1.0149 0.49856,2.0027 1.52223,8.2126 1.56366,9.4856 0.0467,1.435 -0.01,1.5953 -0.81391,2.3151 -1.02888,0.9208 -2.04365,0.9886 -5.36622,0.3583 -5.42315,-1.0287 -10.68951,-2.9748 -15.36875,-5.6793 -2.08563,-1.2054 -6.68293,-4.4664 -8.10475,-5.7488 -0.83261,-0.751 -1.01161,-0.7914 -4.89479,-1.1046 -9.74346,-0.786 -20.74291,-2.5555 -29.93173,-4.8154 -2.31293,-0.5688 -4.24228,-0.9973 -4.28745,-0.9521 -0.15406,0.1541 -1.99369,8.2178 -2.90748,12.7444 -2.57849,12.7732 -2.85829,22.9215 -0.88681,32.1646 0.29486,1.3824 0.68842,3.2191 0.87456,4.0815 0.21693,1.005 0.52153,1.6794 0.84839,1.8782 0.28047,0.1706 1.46589,0.9108 2.63428,1.645 2.55931,1.6082 7.19498,3.9646 9.9142,5.0395 2.48384,0.982 8.85464,3.0719 11.03718,3.6207 6.16642,1.5507 14.69699,2.9016 20.84511,3.301 4.82614,0.3135 15.0568,0.108 19.36023,-0.389 z m -15.52377,-18.5397 c -4.18371,-1.1105 -8.46667,-4.7841 -8.46667,-7.2622 0,-1.5107 0.73202,-2.2386 2.25146,-2.2386 1.33985,0 1.14492,-0.1586 3.30109,2.686 1.78764,2.3583 5.17486,3.4496 8.53937,2.7511 1.95783,-0.4064 3.72325,-1.6124 5.18312,-3.5405 0.64257,-0.8487 1.44133,-1.6675 1.77504,-1.8196 1.39537,-0.6357 3.02701,0.5491 3.02701,2.1981 0,1.7371 -3.23824,5.1377 -6.08542,6.3906 -2.94236,1.2948 -6.5887,1.6145 -9.525,0.8351 z m -32.52704,-13.484 c -2.48124,-0.5381 -4.32551,-1.5814 -6.50998,-3.6826 -2.03789,-1.9604 -3.87386,-4.6132 -4.83589,-6.9877 -1.51021,-3.7274 0.11604,-7.4392 3.25937,-7.4392 1.77922,0 2.89164,0.9178 4.86214,4.0115 1.32177,2.0752 3.5981,4.3137 4.9691,4.8865 1.40436,0.5868 3.47087,0.5394 4.73031,-0.1086 0.57688,-0.2968 1.86905,-1.4488 2.8715,-2.56 2.21987,-2.4607 2.96335,-2.8863 4.77969,-2.7357 1.66712,0.1383 2.85536,0.954 3.58489,2.461 0.67344,1.3911 0.66668,2.3872 -0.0288,4.246 -1.25278,3.3484 -4.72349,6.5458 -8.35796,7.7 -2.3003,0.7305 -6.48632,0.8242 -9.32438,0.2088 z m 63.57202,0.048 c -3.49275,-0.8796 -7.1903,-3.8341 -8.73487,-6.9795 -1.0634,-2.1656 -1.06554,-4.583 -0.005,-5.973 0.83394,-1.0934 1.70664,-1.6106 3.16197,-1.8741 1.4705,-0.2663 2.49923,0.3542 4.82675,2.911 2.85629,3.1377 4.1528,3.6909 6.82797,2.9132 1.96931,-0.5725 3.73798,-2.2215 5.88293,-5.4849 1.94595,-2.9606 2.8369,-3.6679 4.62056,-3.6679 3.51839,0 4.98965,3.5252 3.21092,7.6935 -2.03375,4.7659 -5.85554,8.5674 -10.1201,10.0665 -2.07776,0.7303 -7.46575,0.9505 -9.67084,0.3952 z m -82.37414,31.5551 c -1.9642,-0.7017 -3.43959,-1.0219 -3.43959,-0.7464 0,0.1244 0.44649,0.3426 0.99219,0.4848 0.5457,0.1423 1.40891,0.3742 1.91823,0.5155 1.65308,0.4586 2.02457,0.2804 0.52917,-0.2539 z m 111.72387,-0.2253 c 0.8387,-0.1724 1.46436,-0.4114 1.39035,-0.5312 -0.1658,-0.2683 -3.31215,0.5465 -3.31215,0.8577 0,0.1232 0.0893,0.1707 0.19844,0.1055 0.10914,-0.065 0.88465,-0.2596 1.72336,-0.432 z m -118.23926,-4.5529 c 0.382,-0.9707 0.69455,-1.8161 0.69455,-1.8787 0,-0.063 -1.54081,-0.1951 -3.42404,-0.2945 -3.18726,-0.1683 -5.80118,-0.7286 -6.73362,-1.4434 -0.16136,-0.1237 -0.51858,-0.3056 -0.79382,-0.4043 -0.85632,-0.307 -3.7e-4,0.5192 1.11179,1.0732 1.92156,0.9572 7.10815,4.058 7.6092,4.5491 0.28089,0.2754 0.58511,0.4248 0.67604,0.3321 0.0909,-0.093 0.47789,-0.9628 0.8599,-1.9335 z m 130.47267,-2.0301 c 3.1127,-1.715 2.91466,-1.5806 2.6779,-1.8174 -0.10363,-0.1036 -0.4404,-0.031 -0.74837,0.1613 -1.51651,0.9471 -3.57599,1.4086 -6.89707,1.5458 -3.84855,0.1589 -3.64362,-0.065 -2.42842,2.6518 l 0.6228,1.3923 2.06366,-1.238 c 1.13502,-0.6808 3.25429,-1.8939 4.7095,-2.6958 z m -139.03853,0.62 c -0.18116,-0.2183 -0.46363,-0.3931 -0.62771,-0.3885 -0.16408,0 -0.0672,0.1832 0.21526,0.3969 0.65978,0.499 0.8307,0.4955 0.41245,-0.01 z m 139.77023,-6.2023 c 0.29102,-0.262 2.21492,-10.2245 2.96648,-15.3613 1.0645,-7.2755 1.27319,-11.337 1.12555,-21.905 -0.14815,-10.6048 -0.6258,-16.8866 -2.05624,-27.0429 -0.92923,-6.5976 -1.40291,-9.1923 -1.73961,-9.529 -0.26113,-0.2611 -3.9348,0.5507 -4.32721,0.9563 -0.13174,0.1362 0.10051,2.1102 0.54166,4.604 0.81944,4.6321 2.37599,16.5374 2.9404,22.4896 0.45373,4.785 0.4555,22.908 0.003,28.3104 -0.41766,4.9836 -1.24653,12.0055 -1.78916,15.1568 -0.22014,1.2785 -0.33631,2.428 -0.25814,2.5545 0.1552,0.2511 2.26634,0.061 2.59351,-0.2334 z m -137.22148,-0.6107 c -0.30938,-1.7056 -1.49188,-10.9753 -1.74666,-13.6922 -0.14329,-1.528 -0.39808,-6.3112 -0.56621,-10.6295 -0.43006,-11.0459 -0.0549,-18.6646 1.60018,-32.4976 0.48617,-4.0633 1.90285,-13.1473 2.29245,-14.6996 0.0764,-0.3043 -0.0176,-0.6758 -0.2089,-0.8257 -0.31457,-0.2465 -3.55759,-1.1435 -4.13415,-1.1435 -0.54466,0 -2.08093,9.6457 -2.82339,17.7271 -0.6,6.5307 -1.18288,17.1681 -1.18966,21.7108 -0.0102,6.8642 0.84035,17.4315 1.84101,22.8715 0.73106,3.9744 2.1707,11.4225 2.26298,11.7078 0.0672,0.2079 0.61257,0.3308 1.46766,0.3308 h 1.36066 z m 128.65941,-0.8237 c 0.59302,-0.4799 1.0835,-1.9077 1.0835,-3.1541 0,-0.6328 0.13172,-1.857 0.29271,-2.7205 0.48072,-2.5784 0.48091,-2.7885 0.002,-2.6489 -0.23505,0.069 -0.9036,0.201 -1.48569,0.2942 -1.73914,0.2785 -2.0334,0.4076 -1.87425,0.8224 0.0831,0.2166 0.0333,0.3156 -0.11315,0.225 -0.14386,-0.089 -0.26156,0.028 -0.26156,0.2602 0,0.232 -0.17938,0.6956 -0.39863,1.0302 -0.21925,0.3346 -0.51312,1.4317 -0.65305,2.4381 -0.13992,1.0063 -0.33224,2.327 -0.42736,2.9349 l -0.17296,1.1052 1.81819,-0.143 c 1,-0.079 1.98546,-0.2783 2.1899,-0.4437 z m -118.60287,-0.1024 c -0.29135,-1.0347 -0.50967,-2.3813 -0.57167,-3.5259 -0.0369,-0.6813 -0.36353,-1.7706 -0.74685,-2.4906 -0.37469,-0.7039 -0.62888,-1.3645 -0.56486,-1.4681 0.13158,-0.2129 -1.64681,-0.7366 -3.05903,-0.9008 -0.83113,-0.097 -0.94196,-0.038 -0.98858,0.5256 -0.0289,0.349 0.0762,0.9653 0.23349,1.3698 0.15731,0.4044 0.34867,1.5688 0.42525,2.5874 0.27754,3.6916 0.84505,4.355 3.73114,4.3617 1.46614,0 1.65546,-0.053 1.54111,-0.4591 z m -22.92404,-1.7422 c 0,-0.049 -0.24771,-0.8432 -0.55046,-1.7654 -0.65098,-1.983 -0.9044,-3.4238 -1.43509,-8.1593 -0.53957,-4.8147 -0.53066,-8.5953 0.0213,-9.0535 0.34562,-0.2868 0.4582,-0.281 0.65741,0.034 0.1322,0.2089 0.24228,0.5584 0.24463,0.7767 0.0311,2.8856 0.98594,8.8148 1.98138,12.3032 0.61727,2.1631 1.97097,5.0949 2.4346,5.2729 0.20896,0.08 0.80376,-0.031 1.32176,-0.2478 l 0.94183,-0.3935 -0.16856,-1.3898 c -1.04494,-8.6153 -1.30181,-30.0219 -0.50645,-42.2059 0.6278,-9.6173 0.70718,-8.6288 -0.70906,-8.8308 -2.07422,-0.2959 -9.41578,-2.2772 -10.51387,-2.8374 -1.41678,-0.7228 -2.04131,-2.0278 -1.80889,-3.7799 0.12506,-0.9427 0.0794,-1.3205 -0.16908,-1.3982 -0.18725,-0.058 -1.37097,-0.424 -2.63051,-0.8123 -1.25953,-0.3883 -2.54644,-0.9448 -2.8598,-1.2367 -0.86692,-0.8077 -1.6113,-0.4465 -3.50462,1.7003 -3.32854,3.7743 -4.74114,5.825 -6.37063,9.2482 -1.85322,3.8933 -3.13098,8.7586 -3.7611,14.3212 l -0.17463,1.5416 0.72364,-0.4742 c 1.07629,-0.7052 3.23877,-0.6081 4.32391,0.1942 1.35928,1.005 1.96294,2.2111 1.96294,3.9221 0,3.0262 -2.48473,5.0726 -5.18142,4.2676 -0.61846,-0.1847 -1.2073,-0.468 -1.30853,-0.6296 -1.21935,-1.9466 0.40589,8.5146 1.95585,12.5893 0.32913,0.8653 0.57199,0.8996 1.45446,0.2054 1.00562,-0.791 2.2965,-0.9359 3.66887,-0.4118 1.69293,0.6465 2.57025,1.8995 2.71314,3.8749 0.098,1.3553 0.0201,1.707 -0.57918,2.6126 -0.38085,0.5755 -1.05015,1.2313 -1.48734,1.4574 -0.43718,0.2261 -0.79487,0.5098 -0.79487,0.6304 0,0.3092 2.52373,2.6362 4.10159,3.7819 3.32818,2.4166 8.27355,4.2505 12.96403,4.8074 1.14355,0.1358 3.04271,0.1888 3.04271,0.085 z m 167.08436,-0.5831 c 3.84345,-1.005 7.03786,-2.5124 10.05156,-4.743 2.84545,-2.1061 4.1785,-3.8457 2.94691,-3.8457 -0.39473,0 -1.55889,-1.2027 -2.00798,-2.0744 -0.48172,-0.935 -0.38323,-2.763 0.21077,-3.9122 0.84956,-1.6437 2.1311,-2.4801 3.79984,-2.4801 0.88676,0 2.59369,0.9221 2.59369,1.4012 0,0.1811 0.14541,0.1464 0.36743,-0.088 0.94442,-0.9959 2.43399,-7.1049 2.72211,-11.1639 l 0.16399,-2.3104 -1.13529,0.5486 c -2.10817,1.0185 -4.33105,0.1859 -5.32066,-1.993 -1.73228,-3.8141 1.48907,-7.72 5.28762,-6.4113 l 1.15364,0.3974 -0.17776,-1.6337 c -0.52777,-4.8504 -2.20027,-10.9532 -3.92826,-14.3337 -2.14908,-4.2042 -6.93786,-10.386 -8.40689,-10.8522 -0.31201,-0.099 -0.80499,0.042 -1.24748,0.3572 -0.72437,0.5158 -4.59452,1.8961 -5.31639,1.8961 -0.29894,0 -0.33948,0.2979 -0.20093,1.4767 0.14399,1.2252 0.0778,1.647 -0.38829,2.4764 -0.69399,1.2348 -1.97166,1.8017 -6.59158,2.9248 -1.81901,0.4423 -3.94805,0.978 -4.7312,1.1905 -0.78315,0.2125 -1.54372,0.3124 -1.69016,0.2219 -0.28423,-0.1757 -0.14737,3.0673 0.39268,9.3045 0.39858,4.6033 0.38483,31.7351 -0.0183,36.1156 -0.1674,1.819 -0.37964,4.156 -0.47165,5.1932 l -0.16728,1.886 1.01036,0.3334 c 0.9724,0.3209 1.03332,0.3047 1.62111,-0.4307 1.47967,-1.8514 3.05362,-7.8885 3.5448,-13.5965 0.15652,-1.819 0.39773,-3.5873 0.53601,-3.9295 0.21758,-0.5385 0.30921,-0.5743 0.68094,-0.2658 0.37978,0.3152 0.40931,0.9162 0.25496,5.189 -0.096,2.6578 -0.30085,5.7403 -0.45519,6.85 -0.25252,1.8155 -1.14077,5.2316 -1.70383,6.5526 -0.20655,0.4847 -0.10607,0.4986 2.40884,0.3348 1.4434,-0.094 3.33875,-0.3578 4.21187,-0.5861 z m -146.02373,-13.3525 -0.0263,-4.7637 -0.79375,-0.2485 c -0.7471,-0.2338 -1.97111,-0.5428 -3.63802,-0.9182 -0.72057,-0.1623 -0.7276,-0.1507 -0.7276,1.195 0,1.2411 0.0471,1.3465 0.54428,1.2165 0.46322,-0.1212 0.49436,-0.082 0.20907,0.2616 -0.45445,0.5475 -0.36475,2.3432 0.15683,3.1392 0.56574,0.8634 1.54487,0.8422 2.24561,-0.049 0.765,-0.9725 0.70616,-2.0923 -0.15172,-2.8874 -0.38505,-0.3568 -0.9506,-0.6582 -1.25677,-0.6697 -0.30804,-0.012 -0.40295,-0.082 -0.2125,-0.1588 1.11596,-0.4473 3.2277,1.5098 3.2277,2.9913 0,2.2316 -2.0866,3.756 -3.58745,2.6208 -0.76726,-0.5804 -0.80478,-0.5238 -0.65323,0.9837 l 0.13964,1.3891 1.85208,0.2994 c 1.01864,0.1646 2.04249,0.3135 2.27522,0.3307 0.37418,0.028 0.4201,-0.5198 0.39687,-4.7324 z m 120.86882,4.5039 c 1.76104,-0.2884 1.99405,-0.5116 1.99982,-1.9164 0.004,-0.9629 -0.0125,-0.9794 -0.71322,-0.7129 -0.94182,0.358 -1.75043,0.1328 -2.61035,-0.7271 -0.6068,-0.6068 -0.6845,-0.8663 -0.5812,-1.9414 0.14054,-1.4626 0.83029,-2.5144 1.90121,-2.8992 0.42378,-0.1522 0.8197,-0.2276 0.87983,-0.1674 0.0601,0.06 -0.13907,0.1881 -0.44268,0.2845 -0.69707,0.2212 -1.39717,1.5481 -1.28969,2.4442 0.099,0.8252 1.25045,1.7557 1.87571,1.5157 1.30659,-0.5013 1.86276,-3.2483 0.81309,-4.0158 -0.39587,-0.2895 -0.40135,-0.3356 -0.0398,-0.3356 0.47661,0 0.74034,-0.5336 0.74034,-1.4979 0,-0.744 -0.0682,-0.7408 -3.2447,0.1545 l -1.65009,0.4651 -0.0721,4.8048 c -0.082,5.4602 -0.32974,4.9975 2.43387,4.5449 z m -161.50974,-2.5162 c 0.43126,-0.8058 0.20191,-2.6489 -0.41434,-3.3299 -0.67771,-0.7488 -1.74107,-0.6398 -2.61047,0.2676 -0.64376,0.672 -0.71891,0.9084 -0.55921,1.7596 0.10146,0.5409 0.52152,1.3204 0.93347,1.7324 0.66263,0.6626 0.83906,0.7176 1.53011,0.4767 0.42961,-0.1498 0.93381,-0.5576 1.12044,-0.9064 z m 202.52619,0.039 c 0.84889,-1.1129 0.88893,-2.4251 0.0996,-3.2653 -0.76219,-0.8113 -1.55388,-0.7732 -2.39904,0.1153 -0.93126,0.979 -1.13567,1.9359 -0.62464,2.9241 0.72691,1.4057 1.95198,1.5004 2.92405,0.2259 z m -161.4011,-11.6108 c 0.10069,-1.0583 0.41414,-3.0451 0.69656,-4.4153 0.28241,-1.3701 0.48356,-2.5162 0.44699,-2.5468 -0.0366,-0.031 -0.31869,-0.133 -0.62695,-0.2276 -0.53986,-0.1656 -0.55627,-0.106 -0.44624,1.6208 0.0944,1.4818 0.0199,1.9424 -0.4299,2.656 -1.06355,1.6874 -3.37931,2.1057 -4.72368,0.8532 -0.31045,-0.2892 -0.63465,-0.5259 -0.72044,-0.5259 -0.0858,0 -0.12053,0.7327 -0.0772,1.6281 l 0.0788,1.6281 1.05833,0.3717 c 1.27795,0.4489 4.16906,1.0843 4.397,0.9664 0.09,-0.046 0.24606,-0.9505 0.34676,-2.0087 z m 120.31802,1.6177 c 1.35706,-0.3076 2.54134,-0.635 2.63175,-0.7276 0.0904,-0.093 0.23774,-0.9158 0.32743,-1.8293 l 0.16307,-1.661 -0.98417,0.6688 c -1.65287,1.1231 -3.36043,0.7827 -4.49141,-0.8956 -0.6523,-0.9679 -0.78539,-2.4201 -0.33126,-3.6145 0.3444,-0.9058 0.1729,-1.0737 -0.69369,-0.6788 -0.47126,0.2147 -0.63709,0.4477 -0.52553,0.7385 0.24272,0.6325 1.21181,6.8387 1.21181,7.7606 0,0.439 0.0505,0.7981 0.11231,0.7981 0.0618,0 1.22263,-0.2516 2.57969,-0.5592 z m 1.70009,-5.632 c 0.76498,-0.765 0.89958,-1.0836 0.89958,-2.1293 0,-2.2476 -1.89222,-3.1642 -3.86444,-1.8719 -1.14041,0.7472 -0.7753,3.9635 0.52119,4.5913 0.97133,0.4703 1.51435,0.3392 2.44367,-0.5901 z m -123.97525,0.3659 c 0.56852,-0.3043 1.34434,-2.6021 1.14104,-3.3795 -0.15345,-0.5868 -1.88403,-1.6431 -2.69191,-1.6431 -0.29936,0 -0.72963,0.2646 -0.95617,0.5881 -0.28664,0.4092 -0.42011,0.4695 -0.43896,0.1984 -0.0149,-0.2143 -0.13334,0.027 -0.26321,0.5364 -0.27924,1.0951 -0.0869,2.5425 0.44826,3.3735 0.4204,0.6527 1.83784,0.8202 2.76095,0.3262 z m -43.23091,-3.8214 c 1.41359,-0.9901 1.44799,-3.3297 0.066,-4.4925 -0.97511,-0.8205 -1.78513,-0.859 -2.71315,-0.1291 -0.60228,0.4738 -0.69714,0.7466 -0.69714,2.0048 0,1.2568 0.10593,1.5623 0.7734,2.2297 0.84972,0.8497 1.72267,0.9812 2.57085,0.3871 z m 210.19484,-0.3871 c 0.78815,-0.7881 0.86544,-1.0421 0.8091,-2.6583 -0.04,-1.1483 -1.01274,-2.1907 -2.04427,-2.1907 -0.50138,0 -0.98861,0.2785 -1.51193,0.8642 -0.70084,0.7844 -0.76097,0.9992 -0.65094,2.326 0.0918,1.1073 0.26653,1.5794 0.72043,1.947 0.86586,0.7011 1.78749,0.6019 2.67761,-0.2882 z m -170.38713,-0.7805 c 0.47481,-0.4423 0.48526,-0.5134 0.0974,-0.6623 -0.57782,-0.2217 -0.91598,0.016 -0.91598,0.6443 0,0.6406 0.14691,0.6438 0.81863,0.018 z m 128.8272,-0.1659 c 0,-0.6538 -0.3585,-0.8871 -0.6467,-0.4207 -0.19124,0.3094 0.10185,1.0822 0.41042,1.0822 0.12995,0 0.23628,-0.2977 0.23628,-0.6615 z m -121.70833,-1.1384 c 0,-0.5831 1.74855,-7.7784 2.18907,-9.0081 0.28977,-0.8089 0.2633,-0.93 -0.30367,-1.3891 -1.0419,-0.8437 -1.33745,-0.6678 -1.04445,0.6216 0.28949,1.2739 -0.0598,2.8604 -0.80598,3.6614 -0.6605,0.709 -2.24025,1.2995 -3.4763,1.2995 -0.88648,0 -1.27281,-0.1826 -2.18318,-1.0318 -1.04873,-0.9782 -1.105,-1.1075 -1.08497,-2.4935 0.0247,-1.7091 1.00295,-3.6488 2.1409,-4.245 l 0.70519,-0.3695 -1.34795,-0.683 -1.34794,-0.6831 -0.14612,0.8503 c -0.0804,0.4677 -0.35299,3.1458 -0.60581,5.9513 -0.40474,4.4913 -0.41313,5.1475 -0.0702,5.4905 0.40315,0.4031 6.09997,2.4496 6.91837,2.4853 0.27719,0.012 0.46302,-0.1712 0.46302,-0.4568 z m 118.02995,-0.6688 3.2815,-1.1457 0.0806,-1.2337 c 0.0796,-1.2183 -0.89149,-10.7354 -1.11851,-10.9624 -0.18049,-0.1805 -1.97512,0.4672 -2.17052,0.7834 -0.0952,0.154 0.0222,0.3894 0.2609,0.523 0.23871,0.1336 0.43402,0.4354 0.43402,0.6707 0,0.2353 0.0762,0.3516 0.16939,0.2584 0.3228,-0.3228 1.20133,1.7614 1.35011,3.203 0.43037,4.1699 -4.12137,5.8551 -6.67887,2.4728 -0.42986,-0.5684 -0.52917,-1.1094 -0.52917,-2.8826 0,-1.2005 -0.0595,-2.1788 -0.13229,-2.174 -0.0728,0 -0.42144,0.2495 -0.77484,0.5437 l -0.64254,0.5349 0.42024,1.6391 c 0.23113,0.9015 0.78723,3.0679 1.23577,4.8141 0.44855,1.7463 0.81648,3.3834 0.81762,3.638 0.003,0.6556 0.3175,0.6019 3.99662,-0.6827 z m -51.09037,-3.8382 c 0,-0.1219 -0.4828,-0.8958 -1.0729,-1.7198 l -1.07289,-1.4983 h -4.08648 c -2.24756,0 -4.08648,0.09 -4.08648,0.2009 0,0.5089 2.51342,1.4928 6.61458,2.5894 2.38926,0.6388 3.70417,0.7907 3.70417,0.4278 z m 51.45363,-2.3086 c 1.37652,-1.4853 1.01924,-4.3451 -0.65475,-5.241 -0.86355,-0.4621 -0.99139,-0.4671 -1.92663,-0.076 -2.20126,0.9214 -2.35983,4.4366 -0.25174,5.5804 1.11083,0.6027 2.11683,0.509 2.83312,-0.2638 z m -119.66284,-0.8485 c 0.90804,-0.8443 1.13656,-1.88 0.66416,-3.0102 -0.494,-1.1818 -1.04261,-1.5953 -2.15838,-1.627 -1.72552,-0.049 -2.8109,1.7356 -1.98934,3.2707 0.15064,0.2814 0.20442,0.5117 0.11952,0.5117 -0.0849,0 -0.32256,-0.3869 -0.52812,-0.8599 -0.35536,-0.8176 -0.3758,-0.8273 -0.41545,-0.1984 -0.0676,1.0724 0.0366,1.4226 0.60596,2.0364 0.95702,1.0318 2.51518,0.9799 3.70165,-0.1233 z m 4.66674,-5.2328 c 0.47037,-1.0324 0.37349,-1.4309 -0.42055,-1.73 -0.40018,-0.1507 -2.48984,-1.0545 -4.64369,-2.0084 -2.15384,-0.9539 -3.96831,-1.6822 -4.03214,-1.6183 -0.0638,0.064 -0.19185,0.495 -0.2845,0.9583 -0.16838,0.8419 -0.16739,0.8427 2.18005,1.9004 1.29168,0.5821 3.30101,1.5268 4.46518,2.0994 1.16416,0.5727 2.18685,1.0483 2.27263,1.0569 0.0858,0.01 0.29414,-0.2877 0.46302,-0.6583 z m 113.94559,-2.3565 c 1.01865,-0.3987 2.01326,-0.8788 2.21026,-1.067 0.41098,-0.3925 0.17922,-1.9881 -0.28878,-1.9881 -0.15699,0 -1.36792,0.4897 -2.69095,1.0881 -1.32304,0.5985 -3.23897,1.4537 -4.25761,1.9005 -1.01865,0.4468 -1.964,0.9084 -2.10079,1.0259 -0.1515,0.1301 -0.0749,0.5781 0.19601,1.1462 l 0.44471,0.9325 2.31753,-1.1566 c 1.27465,-0.6362 3.15098,-1.4828 4.16962,-1.8815 z m -44.84687,2.1189 c 15.02656,-1.5281 33.45873,-5.4927 43.39166,-9.3332 3.81318,-1.4743 3.77018,-1.4338 3.56509,-3.3564 -0.0946,-0.8869 -0.52816,-3.3984 -0.96346,-5.5812 -0.99933,-5.0111 -1.01173,-6.2209 -0.0763,-7.4473 0.38674,-0.507 0.63455,-0.9905 0.55069,-1.0743 -0.1951,-0.1951 -3.07636,-0.1578 -4.79576,0.062 -3.45134,0.4413 -15.42132,2.5401 -16.00729,2.8066 -0.3638,0.1655 -1.64598,0.4507 -2.84929,0.6338 -1.86151,0.2832 -2.39426,0.4874 -3.57187,1.3691 -4.83578,3.6205 -12.13207,6.9914 -18.49664,8.5456 -6.00074,1.4653 -8.41734,1.7191 -16.3572,1.7175 -8.00296,0 -10.72837,-0.2872 -16.43936,-1.7233 -4.60164,-1.1571 -11.60189,-4.0115 -14.23213,-5.8032 -5.04523,-3.4367 -5.96968,-3.9314 -7.67628,-4.1076 -0.93665,-0.097 -2.02795,-0.3439 -2.42513,-0.5493 -0.39718,-0.2054 -1.77397,-0.5466 -3.05952,-0.7582 -1.28555,-0.2116 -4.48049,-0.7567 -7.09987,-1.2114 -4.84433,-0.8408 -10.00295,-1.2891 -10.8881,-0.9462 -0.44129,0.171 -0.44779,0.2199 -0.0666,0.5013 0.59736,0.4411 1.29743,1.8838 1.29743,2.6739 0,0.3676 -0.41186,2.7415 -0.91525,5.2751 -0.50338,2.5337 -0.94987,5.2401 -0.99218,6.0143 l -0.0769,1.4076 2.69042,1.1125 c 5.77555,2.3882 10.90082,3.8671 20.96938,6.0505 10.2319,2.2188 21.33671,3.7518 30.44749,4.2033 4.62712,0.2294 20.13719,-0.081 24.07708,-0.4816 z m -90.91269,-13.9713 c 0.25329,-1.6372 0.89112,-5.1076 1.41739,-7.7121 l 0.95685,-4.7355 -0.77608,-0.6243 c -0.42685,-0.3433 -1.41665,-0.8656 -2.19957,-1.1606 -1.1713,-0.4414 -1.57833,-0.4853 -2.29765,-0.2479 -2.30861,0.7619 -4.95128,5.4976 -6.20251,11.1149 -0.70849,3.1806 -0.70205,4.2253 0.026,4.2253 0.52021,0 5.77779,1.274 7.51638,1.8213 0.43656,0.1375 0.86235,0.2602 0.9462,0.2727 0.0838,0.013 0.35968,-1.3167 0.61298,-2.9538 z m 154.98257,1.9488 c 1.55036,-0.4314 3.36753,-0.8666 4.03815,-0.9672 0.67062,-0.1005 1.28177,-0.2839 1.35812,-0.4074 0.19924,-0.3224 -0.59314,-4.6821 -1.23382,-6.7885 -0.65643,-2.1582 -2.27131,-5.2488 -3.57178,-6.8359 -1.53654,-1.8751 -2.99436,-1.9908 -5.9892,-0.4753 -1.50306,0.7606 -1.50352,0.7643 -0.58235,4.7329 0.37094,1.5981 0.97233,4.751 1.33643,7.0066 0.78932,4.8898 0.77365,4.8362 1.36128,4.659 0.25538,-0.077 1.73281,-0.4929 3.28317,-0.9242 z m -72.66884,-4.2698 c 7.77733,-0.869 15.63283,-3.4771 21.80014,-7.2376 3.2618,-1.9889 5.12748,-3.4446 7.78358,-6.0732 6.85814,-6.787 9.76421,-13.7619 14.34948,-34.4406 1.68161,-7.5838 4.89565,-17.3487 7.43918,-22.6019 1.43111,-2.9556 1.99369,-3.8246 3.35181,-5.177 1.93997,-1.9319 6.35347,-4.8972 10.14977,-6.8194 1.84068,-0.9319 2.71168,-1.5149 2.66248,-1.7819 -0.11636,-0.6317 -3.79733,-2.3313 -6.68227,-3.0855 -2.32324,-0.6073 -3.3175,-0.707 -8.15456,-0.8178 -9.31534,-0.2133 -16.98105,1.2006 -26.37357,4.8646 -4.57683,1.7854 -9.9232,4.7221 -11.23422,6.1707 -0.4626,0.5112 -0.43838,0.5651 0.92276,2.0543 2.79092,3.0534 3.92556,5.4029 5.0351,10.4262 1.1575,5.2404 1.34532,15.635 0.37947,21.001 -2.6059,14.4776 -13.21116,23.1501 -28.30831,23.1491 -7.51392,-5e-4 -13.68913,-1.9176 -18.65313,-5.791 -5.70419,-4.451 -9.34143,-11.5095 -10.30802,-20.0039 -0.55723,-4.897 -0.22904,-13.6764 0.67613,-18.087 0.99419,-4.8445 2.33624,-7.6551 5.08875,-10.6574 0.75248,-0.8208 1.36814,-1.6002 1.36814,-1.732 0,-0.4008 -4.18166,-3.0077 -7.40833,-4.6185 -6.17158,-3.0808 -13.52618,-5.3355 -20.99406,-6.4359 -3.73139,-0.5498 -11.64128,-0.5622 -14.73323,-0.023 -4.65373,0.8115 -9.64875,2.6655 -9.64875,3.5813 0,0.1808 1.32995,1.0168 2.95544,1.8576 3.99571,2.0668 7.51232,4.4973 9.7495,6.7381 1.48076,1.4832 2.11795,2.3962 3.14482,4.5059 3.03518,6.2359 5.85377,14.9367 8.2283,25.4 2.66881,11.7601 4.62353,18.1396 7.02365,22.9225 5.92377,11.8049 19.58862,20.564 35.2126,22.571 3.32453,0.4271 11.9051,0.507 15.17735,0.1413 z m -94.16291,-5.0893 c 0.45237,-1.1995 0.91159,-2.3893 1.02049,-2.6439 0.36602,-0.856 -1.291,-0.5829 -2.40835,0.3969 -1.02244,0.8965 -2.47735,2.752 -2.47735,3.1594 0,0.2645 2.0319,1.2258 2.64583,1.2517 0.25981,0.011 0.68095,-0.7364 1.21938,-2.1641 z m 177.29357,1.5188 c 1.0272,-0.4292 1.07036,-0.6858 0.30388,-1.8068 -1.27301,-1.8617 -2.40767,-2.8189 -3.34154,-2.8189 -0.49191,0 -0.8547,0.1056 -0.8062,0.2348 0.0485,0.1291 0.44538,1.3215 0.88195,2.6497 0.87765,2.6701 0.8199,2.6362 2.96191,1.7412 z m -131.60209,-7.1888 -0.74107,-0.9755 -0.0873,0.7484 c -0.0915,0.7839 0.28038,1.1917 1.09299,1.1986 0.41036,0 0.37365,-0.1313 -0.26459,-0.9715 z m 82.94957,0.8136 c 0.90644,-0.1813 1.09168,-0.4779 0.86369,-1.3827 -0.15101,-0.5993 -0.18619,-0.5849 -1.12689,0.463 -1.02539,1.1422 -1.01587,1.1755 0.2632,0.9197 z m -87.9198,-1.4917 c 0.0659,-0.1819 0.23903,-1.4023 0.38469,-2.712 l 0.26483,-2.3812 -0.8904,-1.4552 c -2.43735,-3.9835 -4.32073,-9.0364 -6.54434,-17.5578 l -0.26651,-1.0214 -0.68175,0.6245 c -0.83895,0.7685 -2.67542,4.5766 -3.7462,7.7682 -1.8137,5.406 -3.43733,13.2398 -2.85673,13.7834 0.28935,0.2709 11.26817,2.8917 13.00932,3.1055 0.43657,0.054 0.88679,0.1153 1.0005,0.1371 0.1137,0.022 0.26067,-0.1092 0.32659,-0.2911 z m 95.10712,0.049 c 1.84495,-0.2994 11.9998,-2.7522 12.38838,-2.9923 0.29991,-0.1854 -0.29132,-4.2454 -1.12217,-7.706 -1.35508,-5.6441 -3.26175,-10.6044 -4.86797,-12.6643 -0.3868,-0.496 -0.8784,-1.1535 -1.09242,-1.461 -0.21403,-0.3074 -0.47145,-0.559 -0.57204,-0.559 -0.16403,0 -0.63454,1.7301 -1.65493,6.0854 -0.76362,3.2593 -3.21296,9.3647 -4.67969,11.6648 -0.4257,0.6676 -0.774,1.3423 -0.774,1.4993 0,0.1571 -0.13767,0.3314 -0.30593,0.3875 -0.4129,0.1376 0.24407,6.0284 0.67199,6.0256 0.16247,0 1.06642,-0.1271 2.00878,-0.28 z m 17.7335,-0.8052 1.45521,-0.4915 -2.10105,0.1435 c -2.3206,0.1584 -2.52916,0.2253 -2.52916,0.8103 0,0.4635 0.76276,0.3524 3.175,-0.4623 z m -129.64583,0.2851 c 0,-0.1501 -0.14883,-0.3298 -0.33073,-0.3995 -0.57648,-0.2206 -3.9026,-0.5627 -3.9026,-0.4014 0,0.2209 2.64008,1.0063 3.50573,1.043 0.40018,0.017 0.7276,-0.092 0.7276,-0.2421 z m -0.93281,-4.2912 c 0.0746,-0.3274 0.3852,-1.7756 0.69026,-3.2181 0.98608,-4.663 3.28702,-11.0553 5.45116,-15.1441 1.27051,-2.4004 1.32106,-2.6304 0.72343,-3.2908 -0.32307,-0.357 -0.35311,-0.583 -0.1323,-0.9956 0.15712,-0.2936 0.28568,-0.6752 0.28568,-0.8482 0,-1.3032 -4.54427,5.7801 -7.03385,10.964 -1.52767,3.181 -3.71259,9.4035 -3.97558,11.3222 l -0.16296,1.1889 1.15442,0.2768 c 2.03585,0.488 2.84618,0.4191 2.99974,-0.2551 z m 131.09478,0.3088 c 1.61219,-0.3457 1.62206,-0.4064 0.66551,-4.088 -0.79342,-3.0537 -2.56704,-7.4854 -4.26982,-10.6689 -1.60204,-2.9952 -3.9802,-6.898 -4.65075,-7.6323 l -0.5324,-0.5831 -0.58469,0.8476 -0.58469,0.8477 1.13225,2.2775 c 2.53389,5.0969 4.60182,10.9234 5.92939,16.7063 0.65933,2.8721 0.56059,2.7939 2.8952,2.2932 z m -139.95155,-1.0238 c 0,-0.2669 0.34173,-1.8375 0.7594,-3.4901 2.29199,-9.0689 7.87904,-19.1201 14.58643,-26.2411 1.38559,-1.471 1.83263,-2.4283 1.13405,-2.4283 -0.4228,0 -3.6399,2.7236 -6.29515,5.3294 -6.2161,6.1004 -11.41995,13.2444 -14.81266,20.3352 -1.0422,2.1782 -2.64636,6.7046 -2.44686,6.9041 0.046,0.046 0.55528,-0.084 1.13179,-0.2898 1.40898,-0.5018 2.91662,-0.466 4.3555,0.1034 1.32467,0.5243 1.5875,0.4874 1.5875,-0.2228 z m 147.25855,0.3973 c 1.21728,-0.6315 3.27043,-0.7704 4.60194,-0.3112 0.64916,0.2239 1.23415,0.3532 1.29998,0.2874 0.26159,-0.2616 -1.73404,-5.6931 -3.02597,-8.2357 -3.17844,-6.2555 -9.11663,-14.2232 -14.16609,-19.0078 -3.00457,-2.8469 -6.12367,-5.444 -6.41981,-5.3452 -0.68313,0.2277 -0.33295,0.8816 1.48523,2.7735 7.41954,7.7203 12.95815,18.3061 15.01696,28.7015 0.16571,0.8368 0.33878,1.5214 0.38459,1.5214 0.0458,0 0.41624,-0.1728 0.82317,-0.3839 z m -155.57519,-9.1411 c 0.75199,-1.528 1.6338,-3.2544 1.95957,-3.8365 0.71805,-1.283 4.7628,-7.3686 5.61393,-8.4465 4.05508,-5.1357 8.63814,-9.8781 13.11241,-13.5683 1.49159,-1.2302 2.71298,-2.3761 2.7142,-2.5464 0.005,-0.6772 -0.92673,-3.8815 -1.12847,-3.8815 -0.2082,0 -1.51516,0.7708 -1.78417,1.0522 -0.0728,0.076 -0.7276,0.6147 -1.45521,1.1968 -3.53744,2.8299 -7.428,7.0644 -11.8243,12.8696 -3.40374,4.4945 -6.06582,9.5267 -7.78189,14.7103 -1.48989,4.5004 -2.26024,8.3671 -1.22613,6.1544 0.23804,-0.5093 1.04807,-2.1762 1.80006,-3.7041 z m 164.68043,2.1166 c -1.60313,-7.4397 -6.12883,-16.1386 -12.11348,-23.2833 -2.53456,-3.0258 -7.08059,-7.4832 -9.95858,-9.7644 -1.94359,-1.5406 -2.12693,-1.6298 -2.4474,-1.1916 -0.19053,0.2606 -0.34642,0.6742 -0.34642,0.9191 0,0.245 -0.17924,0.9534 -0.39831,1.5743 -0.48214,1.3665 -0.57394,1.2347 2.68849,3.8587 6.07854,4.889 12.82888,12.5505 17.88109,20.2946 0.8921,1.3674 4.2222,7.9221 4.65217,9.1569 0.53168,1.5269 0.55146,0.798 0.0424,-1.5643 z m -84.63588,-11.7739 c 0.087,-5.5298 0.20603,-13.2093 0.26458,-17.0656 l 0.10646,-7.0115 -1.85208,0.071 c -1.01865,0.039 -2.46361,0.1353 -3.21104,0.2137 -1.33627,0.1402 -1.36681,0.1633 -1.83039,1.3841 -0.25929,0.6828 -0.90848,2.0749 -1.44263,3.0936 -2.18381,4.1646 -4.31265,12.9867 -5.31595,22.0299 -0.31503,2.8395 -0.30663,2.9984 0.17845,3.3747 1.22367,0.9492 5.47315,2.799 7.52865,3.2772 3.00943,0.7002 3.41213,0.7651 4.48978,0.723 l 0.92605,-0.036 z m 6.32417,9.8166 c 2.74737,-0.4493 5.12027,-1.2302 7.45284,-2.4526 2.83358,-1.4849 2.73789,-1.2271 2.21354,-5.963 -0.52258,-4.7199 -1.90057,-11.9147 -3.00478,-15.6885 -0.42578,-1.4552 -1.3703,-4.1306 -2.09894,-5.9453 -1.54584,-3.85 -1.44169,-3.7799 -5.43124,-3.6557 l -2.43871,0.076 0.011,1.2567 c 0.006,0.6913 0.0358,8.341 0.0661,16.9995 0.0518,14.7961 0.083,15.7427 0.51814,15.7417 0.25466,-5e-4 1.47505,-0.1665 2.71198,-0.3688 z m -22.09834,-8.163 c 0.63197,-6.7211 2.87908,-15.9413 5.22555,-21.4412 0.73183,-1.7154 1.25268,-3.1968 1.15743,-3.292 -0.27631,-0.2763 -6.49842,1.0134 -6.91924,1.4343 -0.20961,0.2096 -0.84376,1.1769 -1.40922,2.1496 -2.6095,4.4889 -4.53118,9.0505 -4.53118,10.7561 0,1.3519 1.29577,5.4218 2.40917,7.567 0.96773,1.8645 3.19983,4.7445 3.67716,4.7445 0.11548,0 0.29113,-0.8633 0.39033,-1.9183 z m 35.90479,0.6579 c 2.13123,-2.2784 3.77107,-5.756 4.6165,-9.7901 0.38724,-1.8477 0.38018,-1.9915 -0.18187,-3.7042 -0.86049,-2.6221 -4.57895,-9.9566 -5.38835,-10.6284 -0.43673,-0.3624 -6.15176,-1.5144 -6.38014,-1.2861 -0.0883,0.088 0.0216,0.6779 0.24419,1.3102 0.22264,0.6323 0.69915,1.983 1.0589,3.0017 2.23324,6.3234 3.55535,12.3491 4.16608,18.9874 0.17052,1.8534 0.39459,3.3699 0.49793,3.3699 0.10334,0 0.71838,-0.5672 1.36676,-1.2604 z m -5.17481,-20.0488 c -0.25532,-0.6654 -0.18,-0.8371 0.1319,-0.3007 0.15444,0.2656 0.22506,0.5386 0.15694,0.6067 -0.0681,0.068 -0.1981,-0.07 -0.28884,-0.306 z m -69.95741,12.4591 c 0.17237,0.1723 1.52994,-1.4032 1.52994,-1.7756 0,-0.5007 -0.61665,-0.061 -1.56535,1.1153 -0.52151,0.6468 -0.75865,1.0282 -0.52698,0.8475 0.23167,-0.1806 0.48475,-0.2649 0.56239,-0.1872 z m 112.24877,-1.0489 c -0.46277,-0.7062 -0.91676,-0.9024 -0.91676,-0.3961 0,0.297 1.12203,1.3217 1.27792,1.1671 0.048,-0.048 -0.11452,-0.3945 -0.36116,-0.771 z m -77.64566,-10.588 c 1.72763,-3.4049 1.99804,-4.1398 1.38344,-3.76 -0.31639,0.1955 -3.76495,7.1603 -3.76495,7.6038 0,0.6646 0.51883,-0.1728 2.38151,-3.8438 z m 44.89606,1.0737 c -0.71116,-1.5533 -3.15625,-5.3024 -3.66204,-5.615 -0.46101,-0.285 -0.11831,0.4854 0.93264,2.0965 1.4382,2.2047 3.07513,5.0161 3.09772,5.3203 0.0115,0.1547 0.0804,0.1339 0.15322,-0.046 0.0728,-0.1801 -0.16191,-0.9701 -0.52154,-1.7557 z m -46.1829,-2.8579 c 0.5621,-0.9713 1.022,-1.8439 1.022,-1.9393 0,-0.2261 -1.63214,0.1241 -2.01659,0.4327 -0.16324,0.1311 -0.35627,0.766 -0.42897,1.4109 -0.14175,1.2576 0.0638,2.9354 0.27671,2.2585 0.0687,-0.2183 0.58475,-1.1915 1.14685,-2.1628 z m 47.22794,-1.4103 c -0.12584,-0.3279 -1.96367,-0.8053 -2.19804,-0.5709 -0.0679,0.068 0.28332,0.7006 0.78045,1.4061 0.49713,0.7055 1.00868,1.5208 1.13677,1.8119 0.17842,0.4054 0.25326,0.1961 0.31996,-0.8945 0.0479,-0.783 0.0303,-1.5717 -0.0391,-1.7526 z m -24.05413,-2.843 c -0.0587,-0.473 -0.10671,-0.086 -0.10671,0.8599 0,0.9459 0.048,1.3328 0.10671,0.8599 0.0587,-0.473 0.0587,-1.2469 0,-1.7198 z m -17.78619,-2.3965 c 7.81053,-1.7786 11.0699,-2.168 18.12396,-2.1654 7.87051,0 12.29207,0.5922 19.70887,2.6268 1.89035,0.5186 3.54098,0.9429 3.66806,0.9429 0.44743,0 -0.68921,-5.6761 -1.25321,-6.2582 -0.44104,-0.4553 -7.35126,-1.6215 -12.46643,-2.1039 -3.4281,-0.3234 -6.29143,-0.3921 -12.03854,-0.2891 -7.92729,0.1421 -12.43087,0.5973 -18.22874,1.8427 l -2.75062,0.5908 -0.35822,1.1906 c -0.50179,1.6678 -0.95929,4.6967 -0.75849,5.0216 0.10309,0.1668 0.34009,0.1818 0.61473,0.039 0.24583,-0.128 2.82822,-0.7749 5.73863,-1.4377 z"
       id="path486" /></g></svg>
