<?xml version="1.0" encoding="UTF-8" standalone="no"?>
<!-- Created with Inkscape (http://www.inkscape.org/) -->

<svg
   width="152.52528mm"
   height="191.17386mm"
   viewBox="0 0 152.52525 191.17372"
   version="1.1"
   id="svg5"
   xml:space="preserve"
   xmlns="http://www.w3.org/2000/svg"
   xmlns:svg="http://www.w3.org/2000/svg"><defs
     id="defs2" /><g
     id="layer1"
     transform="translate(-13.090377,12.307068)"><path
       style="fill:#000000;stroke-width:0.264583"
       d="m 86.740597,178.82223 c -7.80221,-0.35705 -15.25935,-1.16709 -16.8456,-1.82986 -0.87327,-0.36488 -1.71692,-0.37969 -7.08793,-0.12442 -3.35318,0.15936 -6.87059,0.41574 -7.81647,0.56973 -2.71598,0.44214 -8.19725,0.56476 -10.35066,0.23155 -2.81508,-0.4356 -4.50175,-1.30407 -6.5095,-3.35174 -2.52685,-2.57708 -3.93484,-6.09682 -4.22138,-10.55273 -0.28668,-4.45817 1.002,-8.33891 3.32927,-10.02578 1.03389,-0.74939 1.31344,-0.82213 3.15941,-0.82213 1.11383,0 2.37407,0.0595 2.80053,0.13229 0.73666,0.12568 0.79381,0.0662 1.14429,-1.19063 0.71805,-2.57501 0.76628,-2.36793 -0.73424,-3.15253 -0.756,-0.3953 -1.55588,-0.64915 -1.7775,-0.5641 -0.92891,0.35645 -4.30229,-2.42203 -6.42955,-5.29571 -1.44382,-1.95042 -2.86212,-4.91209 -3.45931,-7.22364 -0.72908,-2.82209 -0.71944,-7.3493 0.0217,-10.22235 0.96732,-3.74953 2.42308,-6.25994 5.35787,-9.2395 1.42202,-1.44371 2.55624,-2.64969 2.52048,-2.67997 -0.0358,-0.0303 -0.77938,-0.50701 -1.6525,-1.05941 -6.45711,-4.0852 -12.07412,-10.95634 -14.91242,-18.241945 -0.84001,-2.156212 -2.15224,-7.193232 -2.15287,-8.263771 -2.5e-4,-0.442198 -0.32938,-0.757595 -1.30815,-1.253572 -1.85014,-0.937543 -4.13019,-3.25729 -4.9399,-5.025932 -1.21324,-2.650072 -1.7745,-6.104218 -1.78558,-10.989016 -0.0143,-6.300713 0.69963,-10.187963 2.75725,-15.012666 0.57349,-1.344727 1.04271,-2.505586 1.04271,-2.579688 0,-0.0741 -0.32742,-0.136551 -0.7276,-0.138779 -2.00394,-0.01117 -1.42914,-0.925965 1.05418,-1.677736 1.12121,-0.339426 1.69861,-0.69714 2.21225,-1.370555 0.38227,-0.50119 0.80086,-0.845854 0.93019,-0.765924 0.12933,0.07993 0.23697,0.822913 0.2392,1.651069 0.004,1.570982 0.27937,2.350302 0.73121,2.071052 0.14589,-0.09017 2.27256,-0.346059 4.72593,-0.568653 11.04909,-1.002471 17.97074,-1.772245 21.42879,-2.383147 10.8666,-1.919694 21.63274,-6.64588 28.99403,-12.727973 1.12271,-0.927622 2.16451,-1.686581 2.3151,-1.686581 0.15059,0 0.25505,-0.0893 0.23213,-0.198438 -0.0229,-0.109141 0.99715,-1.27 2.26681,-2.579687 2.38774,-2.463004 5.45051,-6.168033 7.62417,-9.222941 1.83932,-2.585021 2.36962,-2.433352 4.95704,1.417733 3.2705,4.867785 9.400203,11.468001 13.109193,14.115462 8.64046,6.167514 16.17899,9.41961 26.72092,11.527308 3.63771,0.727305 6.32853,1.009105 14.02291,1.468572 3.63802,0.217244 7.30203,0.533381 8.14224,0.702532 0.84022,0.169148 1.58713,0.248079 1.65981,0.175398 0.17695,-0.176954 -1.25562,-6.536425 -2.26788,-10.067594 -2.52144,-8.795755 -6.27858,-16.248808 -11.76872,-23.345636 -1.57727,-2.038856 -1.64911,-2.199341 -1.95423,-4.365625 -0.17423,-1.236927 -0.3681,-2.57638 -0.43082,-2.976562 -0.0627,-0.4001828 -0.0158,-0.7276048 0.10425,-0.7276048 0.22772,0 1.93484,1.9041428 4.44365,4.9564978 2.06194,2.508663 6.13801,8.718851 7.6986,11.72937 1.56205,3.013337 3.66596,8.136914 4.77848,11.636843 1.3912,4.376645 3.21204,12.1437 3.21817,13.727591 0.001,0.353658 0.48824,1.388559 1.08192,2.299784 2.14118,3.286414 3.20216,8.076041 3.18293,14.36893 -0.0161,5.250929 -0.91848,10.032717 -2.47517,13.115356 -0.98164,1.943912 -3.02201,4.197715 -4.91029,5.423958 -1.75866,1.142061 -1.84069,1.242163 -2.01102,2.454174 -0.52293,3.721052 -2.6111,8.37457 -5.9036,13.156236 -2.3118,3.35742 -6.18395,7.25009 -9.62177,9.67279 -1.14359,0.80591 -2.13913,1.56217 -2.2123,1.68057 -0.0732,0.1184 0.74254,1.12563 1.81272,2.23829 2.93784,3.05449 4.32065,6.04818 5.32957,11.53817 0.52926,2.87994 0.41525,6.91457 -0.26557,9.39831 -0.92039,3.35768 -2.64776,6.2597 -5.38499,9.0469 -1.57664,1.60542 -2.05406,1.9147 -4.35066,2.81848 -1.41883,0.55836 -2.57919,1.09362 -2.57858,1.18948 5.3e-4,0.0959 0.29826,0.76003 0.66145,1.47591 0.3632,0.71589 0.66035,1.47354 0.66035,1.68368 0,0.28894 0.2096,0.34133 0.8599,0.21495 3.6154,-0.70259 4.84687,-0.51746 6.4622,0.9715 1.4113,1.30089 2.06636,2.49893 2.597,4.74962 0.73663,3.12442 0.29243,8.0651 -0.99858,11.10689 -1.08174,2.5487 -3.97048,5.84059 -5.86188,6.67994 -2.72213,1.20801 -6.873,1.51872 -11.42042,0.85487 -3.82053,-0.55774 -14.04359,-1.03612 -14.69474,-0.68764 -0.77486,0.4147 -5.13915,1.25169 -8.07953,1.5495 -2.90167,0.29389 -13.248483,0.53917 -16.488943,0.39088 z m 16.580693,-3.55648 c 3.18794,-0.28742 6.379,-0.91261 7.41428,-1.4526 1.11363,-0.58086 6.89382,-0.46313 14.72948,0.3 1.80844,0.17612 1.81394,0.17465 1.5044,-0.40374 -0.53045,-0.99115 -1.05714,-2.99537 -1.22277,-4.65298 -0.24741,-2.47601 0.23603,-4.72236 1.5801,-7.34219 0.65326,-1.2733 1.13162,-2.3151 1.06303,-2.3151 -0.0686,0 -0.80594,0.34166 -1.63853,0.75924 -0.8326,0.41759 -1.75194,0.82661 -2.04298,0.90894 -0.29104,0.0823 -1.37877,0.3965 -2.41718,0.69816 l -1.88802,0.54849 -0.1887,1.51033 c -0.32366,2.59042 -2.07073,3.78432 -7.80922,5.33659 -7.24858,1.96075 -11.93836,2.51419 -21.431253,2.52911 -10.00102,0.0157 -14.27447,-0.41107 -22.55783,-2.25283 -3.79386,-0.84354 -7.45615,-2.21001 -8.14383,-3.03861 -0.19861,-0.23931 -0.57616,-1.28194 -0.83901,-2.31697 -0.26284,-1.03502 -0.58211,-1.98606 -0.70947,-2.11342 -0.17037,-0.17038 -5.62819,-1.77346 -6.04329,-1.77505 -0.0336,-1.3e-4 0.37387,0.79117 0.90554,1.75843 1.3767,2.5046 1.96286,5.15469 1.64468,7.43574 -0.13701,0.9822 -0.43273,2.42368 -0.65715,3.20331 -0.22442,0.77962 -0.35539,1.47014 -0.29105,1.53449 0.0643,0.0643 0.87506,-0.008 1.8016,-0.16043 2.41982,-0.39849 10.99501,-0.78304 12.40023,-0.55608 0.65484,0.10577 1.74306,0.38433 2.41826,0.61903 4.02306,1.3984 22.72061,2.1125 32.418683,1.23814 z m -51.847303,-0.65536 c 1.38151,-0.96764 2.33288,-6.03936 1.66704,-8.88694 -0.6667,-2.85127 -2.339,-5.46224 -4.29972,-6.71318 -0.39893,-0.25452 -0.66811,-0.55536 -0.59816,-0.66853 0.0699,-0.11318 -0.0204,-0.19476 -0.20071,-0.1813 -0.18034,0.0135 -1.23453,-0.42228 -2.34265,-0.96831 -1.51873,-0.74836 -2.47099,-1.03103 -3.8678,-1.14813 -1.82741,-0.15321 -1.86642,-0.14298 -2.8215,0.73999 -0.83915,0.7758 -1.02574,1.17799 -1.39735,3.01202 -0.35992,1.77637 -0.38157,2.52149 -0.13468,4.63469 0.33639,2.87925 0.78676,4.32626 1.94062,6.23501 0.9899,1.63753 3.42048,3.36552 5.51735,3.92249 1.99842,0.53082 5.793,0.5437 6.53756,0.0222 z m 83.881163,-0.78468 c 2.75152,-1.25641 4.39686,-3.34063 5.34868,-6.77537 0.98861,-3.56753 0.56445,-8.42374 -0.87294,-9.99438 -0.85956,-0.93923 -1.62116,-1.13805 -3.03429,-0.79215 -3.93964,0.96435 -7.27488,3.86842 -8.70121,7.57635 -1.01806,2.64657 -0.7492,6.81753 0.62947,9.76537 0.48715,1.04162 0.78589,1.13654 3.1907,1.01382 1.34611,-0.0687 2.36866,-0.30464 3.43959,-0.79364 z m -33.13643,-5.27555 c 5.75621,-0.93463 10.803,-2.05472 12.82618,-2.84665 2.47486,-0.96873 2.33121,-0.68429 3.05022,-6.03979 0.24422,-1.81901 0.6712,-4.73604 0.94886,-6.48229 0.27767,-1.74625 0.50487,-3.59974 0.5049,-4.11887 5e-5,-0.9173 -0.0428,-0.95731 -1.52131,-1.42153 -3.57868,-1.12361 -8.10411,-3.95818 -9.58662,-6.00472 -1.5421,-2.12881 -2.18921,-3.80224 -2.21459,-5.72697 -0.0326,-2.47542 0.62861,-4.23051 2.27091,-6.02744 1.70355,-1.86396 2.39298,-2.22332 7.08291,-3.69203 1.0914,-0.34179 1.69286,-0.62952 1.33657,-0.63941 -0.35629,-0.01 -1.66598,-0.33563 -2.91042,-0.72387 -2.6521,-0.82739 -3.10711,-0.81129 -4.89122,0.17307 -3.5672,1.96818 -5.87392,2.04284 -9.277643,0.30027 -1.16417,-0.59601 -2.27688,-1.08516 -2.4727,-1.08701 -0.19581,-0.002 -0.69585,0.23861 -1.11119,0.53436 -2.84857,2.02836 -5.6495,2.41965 -8.42007,1.17629 -0.88636,-0.39777 -1.55096,-0.82128 -1.47689,-0.94113 0.0741,-0.11984 -0.33173,-0.35763 -0.90177,-0.52842 -0.96545,-0.28926 -1.11547,-0.257 -2.19045,0.47093 -2.63689,1.78559 -4.43929,2.04384 -6.97484,0.99935 -1.88698,-0.77732 -1.7198,-0.75538 -1.7198,-0.22572 0,0.71469 -2.0808,0.23488 -3.04998,-0.7033 -1.20721,-1.1686 -1.99307,-1.19092 -5.1521,-0.14628 -1.52797,0.50527 -2.60567,0.92528 -2.3949,0.93337 1.33462,0.0512 4.96239,1.49182 6.7246,2.67046 2.2872,1.52977 3.38135,3.04873 3.86125,5.36038 0.5634,2.71392 -0.60125,6.20107 -2.84133,8.50734 -2.0715,2.13272 -6.54939,4.62723 -9.79757,5.45798 -2.05734,0.52618 -2.4279,0.77441 -2.28331,1.52959 0.62803,3.28018 1.84919,10.21061 2.24426,12.73685 0.19273,1.23234 0.5012,2.19251 0.81396,2.53356 0.27699,0.30206 1.54416,0.88428 2.81593,1.29382 1.27178,0.40954 2.55044,0.84311 2.84149,0.96349 0.29104,0.12038 1.3626,0.3354 2.38125,0.47784 5.12945,0.71724 9.66241,1.38644 10.84791,1.60145 2.22449,0.40345 17.57705,0.13194 20.637503,-0.36497 z m -43.691553,-9.21085 c -0.0531,-0.3309 -0.40151,-2.2685 -0.77413,-4.3058 -0.37262,-2.03729 -0.7453,-4.09006 -0.82816,-4.56171 -0.14256,-0.81135 -0.20227,-0.85095 -1.10862,-0.73515 -0.52688,0.0673 -1.75213,0.19378 -2.7228,0.28104 -1.14366,0.1028 -1.81445,0.28792 -1.90579,0.52595 -0.0775,0.20203 -0.7121,0.66695 -1.41016,1.03316 -1.56174,0.81931 -1.92443,1.11493 -2.66798,2.17464 -0.67776,0.96594 -0.75816,1.67895 -0.18933,1.67895 0.21794,0 0.96208,0.40297 1.65364,0.89549 2.12461,1.51313 4.02654,2.36259 6.93508,3.09743 1.53393,0.38754 2.8623,0.66255 2.95192,0.61113 0.0896,-0.0514 0.11947,-0.36424 0.0663,-0.69513 z m 65.594683,-0.0621 c 1.09705,-0.35811 2.92795,-1.08589 4.06867,-1.61729 1.14072,-0.5314 2.58005,-1.18667 3.19851,-1.45615 1.26748,-0.55228 1.26008,-0.53742 0.75469,-1.51473 -0.61397,-1.18729 -1.33204,-1.64746 -2.83507,-1.81683 -1.90815,-0.21502 -2.25833,-0.43469 -2.46712,-1.54763 -0.12695,-0.67668 -0.36575,-1.01682 -0.84067,-1.19738 -0.98752,-0.37545 -3.54151,-0.62829 -3.54151,-0.35061 0,0.13194 -0.35719,2.35884 -0.79375,4.94869 -0.43657,2.58984 -0.79375,4.82001 -0.79375,4.95593 0,0.42056 1.16934,0.2752 3.25,-0.404 z M 50.040687,146.94723 c -1.5721,-1.55654 -3.24799,-5.00243 -3.40195,-6.99494 l -0.12267,-1.5875 0.53888,1.52524 c 0.91565,2.59172 2.67103,4.96862 4.49607,6.08799 2.23397,1.37019 8.6652,0.28422 13.96567,-2.35824 4.30391,-2.14564 6.67118,-5.39938 6.33042,-8.70099 -0.17801,-1.72476 -0.65288,-2.66245 -2.07659,-4.10046 -2.433,-2.45743 -6.23516,-3.32526 -13.45701,-3.0715 -2.54661,0.0895 -4.89736,0.23687 -5.22389,0.32753 -0.53506,0.14856 -0.58428,0.084 -0.49835,-0.65399 0.0865,-0.74293 0.0149,-0.83392 -0.77294,-0.98171 -1.17447,-0.22033 -2.47719,0.29538 -4.23882,1.67802 -1.77013,1.38932 -2.75699,2.87618 -3.55387,5.35449 -0.51312,1.5958 -0.57989,2.26042 -0.47728,4.75073 0.10621,2.57788 0.20686,3.06362 0.91789,4.42955 1.30311,2.50338 5.43738,5.31381 7.88021,5.35688 l 0.77982,0.0138 -1.08559,-1.07485 z m 80.612853,0.36361 c 2.48374,-0.83061 4.20442,-2.44209 5.33712,-4.99838 0.80032,-1.8062 0.98455,-5.68614 0.38217,-8.0489 -0.94475,-3.70564 -5.02166,-7.93732 -7.64702,-7.93732 -0.97516,0 -0.8922,0.33216 0.34812,1.39383 1.55896,1.33441 1.28901,1.71123 -0.31667,0.44202 -1.15208,-0.91066 -1.50595,-1.06008 -2.18281,-0.92161 -0.4443,0.0909 -2.57276,0.279 -4.72991,0.418 -4.55275,0.29339 -6.72524,0.7386 -8.84405,1.81244 -1.7192,0.8713 -2.41981,1.54332 -3.21398,3.08281 -0.8375,1.62348 -0.96808,3.2468 -0.4069,5.05834 0.39587,1.27789 0.80358,1.86881 2.34763,3.40252 2.03389,2.02027 3.87687,3.07524 7.42481,4.25017 2.83063,0.93739 6.50585,1.17022 8.2084,0.52001 1.16582,-0.44523 2.85476,-1.87568 4.03891,-3.42077 0.54157,-0.70664 0.58498,-0.72074 0.58498,-0.18994 0,1.5138 -2.11492,4.39598 -3.71081,5.05702 -0.43291,0.17932 -0.7871,0.4439 -0.7871,0.58796 0,0.30649 1.40527,0.081 3.16711,-0.5082 z m -90.066743,-4.53509 c -0.57417,-1.62738 -1.00369,-5.23892 -0.80522,-6.77057 0.59092,-4.56038 2.79809,-8.27243 5.83124,-9.80706 1.20708,-0.61073 1.95745,-0.78763 3.73715,-0.88104 1.87292,-0.0983 2.21412,-0.18508 2.147,-0.54605 -0.0439,-0.23604 -0.49617,-0.64545 -1.00507,-0.9098 -1.3585,-0.7057 -5.01696,-0.48872 -7.67213,0.45502 -3.03117,1.07737 -4.53612,1.47424 -5.6035,1.47769 -1.85862,0.006 -2.48503,1.48203 -2.25204,5.30652 0.18131,2.97607 0.54743,4.62579 1.22619,5.52525 l 0.48461,0.64217 0.48517,-1.63436 c 0.47055,-1.58509 1.14346,-2.37106 0.77633,-0.90676 -0.10034,0.40019 -0.2462,1.52213 -0.32414,2.4932 -0.12276,1.52953 -0.0476,1.97174 0.56229,3.3073 0.60991,1.33566 2.46327,3.67941 2.71249,3.43019 0.0474,-0.0474 -0.0878,-0.57915 -0.30037,-1.1817 z m 99.841893,-3.3801 c 1.42962,-3.20404 2.13899,-5.7951 2.13899,-7.81297 0,-1.73754 -0.45291,-4.15913 -0.87605,-4.68401 -0.52495,-0.65118 -4.4577,-2.45692 -6.47418,-2.97265 -3.11808,-0.79747 -7.25222,-0.6111 -7.76665,0.35013 -0.39184,0.73216 -0.0659,0.92247 1.8268,1.06661 1.96977,0.15002 3.18093,0.84341 5.35473,3.06557 1.37764,1.4083 2.46658,3.24313 3.16104,5.32625 0.76142,2.28396 0.5575,8.89193 -0.29057,9.41606 -0.12473,0.0771 -0.2219,0.3415 -0.21594,0.58757 0.023,0.94875 2.00033,-1.78425 3.14183,-4.34256 z M 59.502817,124.57722 c -1.93753,-1.07837 -2.86294,-1.08976 -4.3163,-0.0531 l -0.85738,0.61154 3.175,0.14522 c 1.74625,0.0799 3.29406,0.1678 3.43958,0.19541 0.14552,0.0276 -0.50288,-0.37696 -1.4409,-0.89903 z m 63.017193,0.63546 c 2.02012,0.0108 2.20263,-0.25914 0.74909,-1.10806 l -0.86755,-0.50667 -1.42539,0.76883 c -1.43334,0.77313 -1.923,1.35872 -0.85187,1.01876 0.31645,-0.10044 1.39452,-0.17822 2.39572,-0.17286 z m 18.72475,-1.09984 c 0,-1.09644 -1.77888,-4.23272 -3.2629,-5.7527 -2.53994,-2.6015 -3.86892,-2.87793 -6.86494,-1.42789 -2.84697,1.37791 -2.8763,1.41181 -2.89877,3.35088 l -0.0194,1.67258 1.82664,-0.0821 c 1.00465,-0.0451 2.75469,0.11071 3.88898,0.34633 2.17633,0.45208 6.16499,1.86695 6.41823,2.2767 0.30348,0.49103 0.91213,0.2349 0.91213,-0.38383 z m -60.261483,-0.20647 c 0.25321,-0.13297 0.43921,-0.3275 0.41334,-0.4323 -0.0259,-0.10479 0.0454,-0.69706 0.15837,-1.31614 0.13658,-0.74842 0.30838,-1.06387 0.5127,-0.9414 0.22908,0.13733 0.23221,0.0871 0.0123,-0.19731 -0.16225,-0.20983 -0.35756,-0.8747 -0.43402,-1.47748 -0.49363,-3.89144 -6.40416,-5.24917 -8.59227,-1.97376 -0.33033,0.49446 -0.60059,1.29163 -0.60059,1.7715 0,0.69112 -0.15124,0.94473 -0.7276,1.22012 -0.81102,0.3875 -1.07895,1.28672 -0.5213,1.74953 0.20028,0.16622 1.12876,0.41401 2.06329,0.55066 0.93453,0.13664 2.47306,0.55273 3.41894,0.92464 1.73278,0.68129 3.1548,0.72165 4.29685,0.12194 z m 12.80486,-0.42362 c 0.70776,-0.4513 1.80066,-1.02423 2.42868,-1.27317 l 1.14185,-0.45261 2.43216,1.2315 c 2.058703,1.04239 2.675613,1.23428 4.017533,1.24965 0.87195,0.01 1.94255,-0.13063 2.37911,-0.3125 0.43656,-0.18186 0.89643,-0.30697 1.02192,-0.27803 0.12549,0.029 0.36362,-0.13024 0.52917,-0.35377 0.16555,-0.22352 0.83678,-0.56 1.49162,-0.74772 1.14866,-0.32929 1.19351,-0.38093 1.27245,-1.46514 0.20304,-2.78864 -2.68511,-4.58776 -5.70389,-3.55311 -0.67656,0.23188 -0.93597,0.21819 -1.21847,-0.0643 -1.00478,-1.00478 -2.185,-1.45408 -3.822083,-1.45506 -1.77737,-10e-4 -3.05824,0.46859 -3.78702,1.38855 -0.48348,0.61031 -0.89429,0.47515 -1.11443,-0.36668 -0.10943,-0.41847 0.0781,-0.7867 0.69567,-1.36607 1.18905,-1.11548 2.29068,-1.50939 4.21042,-1.50552 1.323523,0.003 1.985553,0.16737 3.249643,0.80842 1.46372,0.74229 1.67803,0.78227 2.74849,0.51281 1.92521,-0.48463 3.55735,0.0865 5.33906,1.86818 0.98969,0.98969 1.08143,1.02601 1.65024,0.6533 0.33396,-0.21882 1.38968,-0.43303 2.36964,-0.48082 0.97204,-0.0474 1.85279,-0.17164 1.95722,-0.27607 0.10444,-0.10444 0.23964,-0.87769 0.30045,-1.71833 0.0979,-1.35393 0.0305,-1.62355 -0.59045,-2.36154 -0.38556,-0.4582 -0.93126,-0.90617 -1.21266,-0.99549 -0.3036,-0.0964 -0.61929,-0.55935 -0.77638,-1.13862 -0.84024,-3.09846 -4.03588,-4.8174 -7.46756,-4.01683 -1.78749,0.41701 -3.05002,1.35897 -3.67958,2.7453 -0.27201,0.59898 -0.49717,0.977 -0.50037,0.84004 -0.003,-0.13695 -0.15464,-0.0487 -0.33654,0.196 -0.1819,0.24475 -0.70175,0.48446 -1.15523,0.53269 -0.45348,0.0482 -1.15414,0.34699 -1.55703,0.6639 -0.906353,0.71293 -1.595633,0.77235 -1.313033,0.11319 0.70281,-1.63925 0.95939,-2.79693 0.80376,-3.62652 -0.32351,-1.72448 -2.22585,-3.36949 -4.28471,-3.70514 l -1.09011,-0.17771 -0.17459,-1.4855 c -0.20784,-1.7684 -0.83106,-2.85735 -2.45178,-4.283956 -3.1997,-2.816495 -8.54293,-2.961331 -11.3532,-0.30774 -1.50709,1.42307 -1.96418,2.522676 -1.96418,4.725216 v 1.84044 h -1.16438 c -2.43307,0 -4.16942,1.88642 -4.69675,5.10268 -0.17895,1.09141 -0.35195,2.02379 -0.38445,2.07196 -0.0325,0.0482 -0.32406,-0.0542 -0.6479,-0.22753 -0.55521,-0.29715 -0.57964,-0.43392 -0.42817,-2.39801 0.18885,-2.44908 0.0382,-2.62415 -2.2521,-2.61707 -2.88022,0.009 -4.90348,2.14235 -4.55108,4.79889 l 0.16531,1.24617 -2.01117,-0.15211 c -1.55018,-0.11724 -2.2856,-0.0473 -3.20843,0.30514 -1.33352,0.50927 -3.11457,2.17438 -3.83693,3.58714 -0.99466,1.94533 -1.65099,5.14269 -1.15704,5.63663 0.0927,0.0927 0.4922,-0.0619 0.88774,-0.34353 0.39555,-0.28165 1.2057,-0.58989 1.80032,-0.68498 0.93982,-0.15028 1.34519,-0.0304 3.10132,0.91679 2.6205,1.41349 4.22879,1.38947 7.39946,-0.1105 0.75791,-0.35855 1.52143,-0.65191 1.69672,-0.65191 0.17528,0 0.50263,-0.44648 0.72743,-0.99218 0.22481,-0.54571 0.61954,-1.23032 0.87718,-1.52136 0.25764,-0.29104 0.68192,-1.10205 0.94285,-1.80224 0.75594,-2.02855 3.07583,-3.35713 5.86201,-3.35713 1.9201,0 3.1533,0.56403 4.62372,2.11476 1.78197,1.87928 2.19715,4.29776 1.04284,6.07459 -0.40293,0.62022 -0.39822,0.6387 0.10701,0.42054 1.2298,-0.53103 2.35964,-0.37491 3.85713,0.53298 2.12802,1.29017 2.60003,1.44531 4.11574,1.35267 0.96813,-0.0592 1.72911,-0.31906 2.64583,-0.90362 z m -52.12539,-0.34701 c 3.61886,-1.12109 7.01692,-1.46508 8.8604,-0.89694 0.45921,0.14153 0.75637,-0.95211 0.75856,-2.79172 0.001,-1.06142 -0.61624,-1.58763 -3.30257,-2.81426 -2.26961,-1.03635 -3.93354,-1.11964 -5.57439,-0.27904 -2.29741,1.17694 -5.91478,5.61067 -5.54029,6.79059 0.31813,1.00233 1.54205,1.00013 4.79829,-0.009 z m 78.211773,-0.60544 c 1.90009,-1.20685 2.54932,-1.32709 3.77943,-0.69994 0.56004,0.28552 1.07613,0.46126 1.14685,0.39054 0.29249,-0.29249 0.33842,-2.98772 0.068,-3.99189 -0.56455,-2.09658 -2.68625,-4.27284 -4.5923,-4.7104 l -0.7276,-0.16703 v 1.56264 c 0,1.32611 -0.13093,1.75739 -0.86502,2.84931 l -0.86502,1.28667 -2.25972,-0.0877 c -2.6847,-0.10415 -3.04213,0.12995 -2.81249,1.84202 0.17997,1.34179 0.26964,1.43232 2.05465,2.07423 2.18247,0.78484 3.42301,0.69962 5.07319,-0.34849 z m -66.262933,-7.65479 c 1.44439,-2.55932 3.98621,-4.34928 6.55224,-4.61412 1.21043,-0.12493 1.42373,-0.23307 1.56429,-0.79313 0.43159,-1.71957 2.48084,-3.87591 4.47543,-4.70931 1.07222,-0.448 3.57186,-0.51708 4.9024,-0.13549 0.80972,0.23223 1.02179,0.16699 2.15036,-0.66146 0.68864,-0.5055 1.4422,-0.91909 1.67459,-0.91909 0.24557,0 0.48988,-0.30473 0.58334,-0.7276 0.58425,-2.643446 1.68382,-4.694686 3.26688,-6.094368 0.37589,-0.332346 1.43823,-0.979014 2.36076,-1.437039 1.55516,-0.772126 1.86604,-0.830792 4.26861,-0.805554 2.1506,0.0226 2.90027,0.148919 4.4081,0.742808 2.34224,0.922546 4.2481,2.352007 5.39861,4.049137 0.63631,0.93863 1.03732,1.300276 1.31298,1.1841 1.54882,-0.65277 3.16645,-1.12884 3.860553,-1.13617 1.8352,-0.0194 5.29131,1.560336 5.0166,2.292986 -0.0668,0.1783 0.033,0.25893 0.22808,0.18408 0.21926,-0.0841 0.63205,0.42661 1.12117,1.38721 l 0.77414,1.52038 1.44504,-0.0627 c 3.41455,-0.14813 7.00131,2.09031 8.52265,5.31887 0.58346,1.2382 0.61067,1.25677 1.84129,1.25677 2.59479,0 5.34099,1.48841 6.71235,3.63802 0.41961,0.65775 0.92009,1.12448 1.20578,1.12448 0.54538,0 4.44434,-1.97857 7.16299,-3.63493 6.16889,-3.75846 11.49329,-9.08867 14.73067,-14.746746 1.8967,-3.314932 3.70328,-8.076654 3.06426,-8.076654 -0.0778,0 -1.06009,0.759846 -2.18281,1.688547 -3.14865,2.604532 -6.70877,5.198821 -6.93903,5.056515 -0.11414,-0.07055 0.68601,-0.991965 1.77813,-2.0476 3.14909,-3.043912 4.56408,-5.454197 6.25254,-10.650587 1.74144,-5.359429 2.68182,-9.925835 3.46725,-16.836717 0.54087,-4.759063 1.02919,-14.004313 0.7542,-14.2793 -0.27125,-0.271248 -3.85116,-0.661802 -9.47106,-1.033248 -8.98037,-0.593556 -14.36748,-1.431774 -20.10833,-3.12879 -6.12693,-1.811142 -11.8361,-4.533001 -17.35746,-8.275198 -4.97736,-3.373493 -11.070183,-9.490948 -14.332543,-14.390494 -1.75207,-2.631334 -2.7738,-3.836458 -3.25263,-3.836458 -0.35063,0 -1.66637,1.552887 -3.0264,3.571875 -2.28584,3.393368 -7.11372,8.573028 -10.52995,11.297202 -8.76087,6.986111 -20.12093,11.636353 -33.11596,13.556019 -4.25976,0.629264 -8.15419,1.081836 -16.28089,1.892004 -2.18281,0.217609 -4.12488,0.449503 -4.31571,0.515323 -0.36283,0.125148 -0.36451,0.07608 0.23534,6.8707 0.89281,10.112991 3.4306,21.08125 6.38556,27.598284 0.88743,1.957186 2.80571,4.116723 5.6847,6.399662 1.37656,1.091557 1.82439,1.590267 1.61557,1.799092 -0.20883,0.208823 -0.64961,0.106127 -1.59013,-0.370469 -2.75202,-1.394555 -9.17901,-5.983854 -10.28828,-7.346511 -0.23147,-0.28435 -0.48594,-0.408376 -0.56548,-0.275613 -0.28728,0.479499 1.43283,5.856575 2.70105,8.44347 1.80616,3.684216 3.20375,5.709412 5.81987,8.433372 3.35331,3.49152 6.3582,5.68158 12.70605,9.26052 2.39626,1.35103 6.2786,3.33902 6.52318,3.34027 0.0225,1.1e-4 0.39556,-0.62825 0.82906,-1.39636 z m 43.71234,-21.88676 c 0,-0.145521 -0.17859,-0.264584 -0.39688,-0.264584 -0.21828,0 -0.39687,-0.11104 -0.39687,-0.246753 0,-0.135715 -0.21261,-0.314235 -0.47247,-0.396711 -0.25986,-0.08248 -0.48951,-0.358388 -0.51034,-0.613142 -0.0208,-0.254752 -0.0761,-9.75006 -0.12284,-21.100684 -0.055,-13.352854 -0.17837,-20.706114 -0.34956,-20.831886 -0.16386,-0.120383 -0.13867,-0.195927 0.0661,-0.198437 0.1819,-0.0021 0.33073,-0.178007 0.33073,-0.390618 0,-0.805265 1.10312,-1.465516 2.44853,-1.465516 1.63074,0 2.153143,0.284919 3.009403,1.641326 l 0.68772,1.089409 -0.0265,19.338276 c -0.0146,10.636053 -0.0998,19.83483 -0.1893,20.441728 -0.18451,1.250529 -0.88252,2.132071 -1.995373,2.520013 -0.41772,0.145619 -0.75949,0.372177 -0.75949,0.503463 0,0.131283 -0.29766,0.238699 -0.66146,0.238699 -0.3638,0 -0.66146,-0.119063 -0.66146,-0.264583 z m -14.21473,-0.28212 c -1.17721,-0.244891 -2.15403,-0.933993 -2.52636,-1.782239 -0.22957,-0.522986 -0.33691,-6.03288 -0.40161,-20.614252 -0.0858,-19.342928 -0.0737,-19.933583 0.43422,-21.081738 0.95545,-2.159939 3.43242,-2.632656 5.1248,-0.978042 l 0.76731,0.750189 0.0218,20.618311 c 0.0162,15.346145 -0.0578,20.767145 -0.28967,21.200352 -0.17132,0.320122 -0.22702,0.582039 -0.12377,0.582039 0.10324,0 -0.0806,0.285572 -0.40847,0.634608 -0.69134,0.735904 -1.40256,0.919512 -2.59828,0.670772 z m 28.369943,-0.811514 c -0.52121,-0.525005 -0.52813,-0.840039 -0.46042,-20.952504 l 0.0687,-20.419485 0.59271,-0.475462 c 0.45217,-0.362722 0.90639,-0.446447 1.91562,-0.353105 1.66851,0.154318 11.61294,2.766153 11.72491,3.079467 0.0458,0.128103 0.24957,0.16909 0.45285,0.09108 0.31985,-0.122735 3.09849,0.548899 5.15245,1.245418 0.69888,0.236998 2.82141,0.824005 3.36355,0.930224 0.29225,0.05726 1.12489,0.311137 5.30156,1.616488 0.76398,0.238771 1.38906,0.533852 1.38906,0.655738 0,0.121886 0.0893,0.199491 0.19843,0.172458 0.30085,-0.07452 2.09572,0.752502 2.2799,1.05051 0.0889,0.14388 -0.008,0.402119 -0.21458,0.573865 -0.29345,0.243536 -0.51995,0.218112 -1.02913,-0.115514 -0.78118,-0.511855 -3.30743,-1.459709 -3.89045,-1.459709 -0.34874,0 -0.48667,0.890235 -0.87115,5.622395 -0.58344,7.180995 -1.29013,11.786028 -2.54745,16.599966 -0.55148,2.111502 -1.08996,4.102621 -1.19662,4.424703 -0.18938,0.571865 -0.12897,0.563856 2.57391,-0.341235 1.52231,-0.509768 3.014,-1.156192 3.31488,-1.4365 0.70228,-0.654277 2.99155,-7.650376 3.36751,-10.291278 0.0538,-0.378084 0.22806,-1.342271 0.38718,-2.142635 0.41347,-2.07972 1.11933,-7.166464 1.09349,-7.880173 -0.012,-0.332274 -0.20147,-0.951439 -0.42098,-1.375923 -0.50399,-0.974614 -0.50459,-1.327237 -0.002,-1.327237 0.21828,0 0.39687,0.178594 0.39687,0.396875 0,0.218281 0.11347,0.396875 0.25215,0.396875 1.6496,0 -0.49544,14.344117 -3.21475,21.497395 -0.15213,0.400182 -0.44777,0.727604 -0.65699,0.727604 -0.20921,0 -0.30944,0.114797 -0.22273,0.255106 0.42087,0.680982 -5.05656,2.988254 -14.14935,5.960162 -5.36006,1.751899 -12.83265,3.840975 -13.6754,3.823174 -0.40941,-0.0087 -0.98251,-0.255585 -1.27355,-0.548743 z m 14.88318,-4.770866 c 3.52934,-1.126281 3.76734,-1.314638 4.29104,-3.395917 0.16477,-0.654843 0.45776,-1.607343 0.6511,-2.116666 0.97814,-2.576912 1.34178,-6.326965 1.32129,-13.626041 -0.0116,-4.132659 -0.14059,-7.645598 -0.30603,-8.334375 -0.50897,-2.119013 -1.05166,-3.979478 -1.20575,-4.133569 -0.14157,-0.141576 -1.96727,-0.670219 -5.61192,-1.62497 -0.87312,-0.228725 -1.62718,-0.514903 -1.67569,-0.635953 -0.0485,-0.121049 -0.33009,-0.220091 -0.62573,-0.220091 -0.29564,0 -1.62518,-0.285236 -2.95451,-0.633859 -3.07043,-0.805228 -5.89768,-1.433513 -6.90999,-1.53557 -1.14173,-0.115105 -1.19022,0.643535 -0.0847,1.324808 0.48044,0.296061 2.3618,0.972566 4.18081,1.503344 1.81901,0.530778 3.55537,1.125249 3.85859,1.321046 1.20682,0.779301 2.51456,7.108123 2.46853,11.946532 -0.015,1.581108 -0.02,3.470053 -0.0109,4.197657 0.0757,6.111541 0.0157,7.403904 -0.47604,10.244674 -0.29522,1.705507 -0.78306,3.7891 -1.08409,4.630208 -0.97549,2.725661 -0.97823,2.539082 0.034,2.318747 0.49416,-0.107563 2.35715,-0.661064 4.13999,-1.230005 z m -61.582143,4.114585 c -9.62263,-2.838561 -21.44571,-7.360475 -23.31092,-8.915614 -1.05301,-0.877961 -2.35366,-3.392233 -2.35366,-4.549838 0,-0.34562 -0.10477,-0.693153 -0.23282,-0.772289 -0.31333,-0.193652 -1.0901,-2.609152 -1.0901,-3.389871 0,-0.343734 -0.1306,-0.755576 -0.29022,-0.915199 -0.49372,-0.493721 -1.8406,-6.955311 -2.00584,-9.622903 -0.15074,-2.433519 -0.12923,-2.572906 0.5571,-3.61002 1.08503,-1.639605 4.44611,-3.156315 10.07334,-4.545674 0.58208,-0.143716 2.60614,-0.68435 4.49791,-1.201409 5.59341,-1.528792 15.77597,-4.060042 17.13542,-4.259638 1.46356,-0.214882 2.95583,0.252605 2.72516,0.85372 -0.0787,0.205042 -0.0388,0.308398 0.0885,0.229682 0.42364,-0.261829 0.80261,0.530291 0.98138,2.051291 0.1841,1.566383 0.009,1.928032 -0.43988,0.908616 -0.23989,-0.544785 -0.25003,-0.533773 -0.11936,0.12976 0.11879,0.603229 0.18283,33.911337 0.0712,37.044197 -0.0393,1.103489 -0.46643,1.387755 -0.46643,0.310427 v -0.681757 l -0.68497,0.814049 c -0.86736,1.030801 -1.9677,1.057039 -5.13586,0.12247 z m -5.30869,-4.401648 c -0.12423,-0.472942 -0.40379,-1.489508 -0.62125,-2.259038 -0.9874,-3.49418 -1.71932,-9.84251 -1.50121,-13.020648 0.0349,-0.509323 0.048,-1.938073 0.0291,-3.175 -0.0858,-5.59463 1.36216,-12.726691 2.7712,-13.649928 0.3159,-0.206986 2.22717,-0.737589 4.24727,-1.179121 3.32176,-0.726029 4.07119,-1.027231 4.08373,-1.641263 0.002,-0.10914 0.23477,-0.198437 0.51677,-0.198437 0.34962,0 0.50004,-0.168334 0.47286,-0.529167 -0.0274,-0.364072 -0.22953,-0.529167 -0.64781,-0.529167 -0.85425,0 -8.5104,1.703827 -12.50861,2.783705 -0.80036,0.216173 -2.46723,0.664639 -3.70416,0.996593 l -2.24896,0.603552 -0.73589,2.901304 c -0.588,2.318245 -0.79141,3.938159 -1.01215,8.060679 -0.32816,6.128718 -0.0449,10.475692 0.97036,14.891207 0.96333,4.189666 0.94634,4.164571 3.29122,4.860226 1.09141,0.323787 2.81781,0.886749 3.83646,1.25103 1.01865,0.364278 2.10744,0.669311 2.41953,0.677849 0.51157,0.014 0.54521,-0.06916 0.34157,-0.844376 z m -12.49627,-3.603902 c 0.0299,-0.01876 -0.12283,-0.536461 -0.33945,-1.150438 -0.67689,-1.918504 -2.16627,-9.179189 -2.6223,-12.783636 -0.23999,-1.896901 -0.51746,-5.409245 -0.61659,-7.805208 l -0.18024,-4.356293 -0.66146,0.06387 c -0.3638,0.03513 -0.92935,0.07978 -1.25677,0.09922 -0.32742,0.01945 -0.59531,0.139528 -0.59531,0.266859 0,0.12733 -0.14712,0.23151 -0.32693,0.23151 -0.77702,0 -3.0593,1.424273 -3.5307,2.203355 -1.20731,1.995339 0.23512,10.025186 3.3063,18.405736 0.44757,1.221303 0.93323,2.364499 1.07924,2.540436 0.14601,0.175937 1.09725,0.703273 2.11385,1.171856 1.01661,0.468582 1.90177,0.938373 1.96704,1.043977 0.0946,0.153011 1.44024,0.208637 1.66332,0.06876 z m 57.026403,24.478835 c 0.15578,0.0963 0.20778,0.053 0.11556,-0.0963 -0.0922,-0.14922 0.0723,-0.54805 0.36567,-0.88627 1.2034,-1.38754 -0.37735,-4.09435 -2.89892,-4.964 -1.28091,-0.44176 -2.369083,-0.37621 -3.687623,0.22213 -1.30729,0.59324 -1.31768,0.93781 -0.0488,1.6183 2.04731,1.09798 3.974373,3.7109 3.974373,5.38888 v 0.75784 l 0.94826,-1.10783 c 0.52155,-0.60931 1.07573,-1.02907 1.23151,-0.93279 z m 50.28554,-23.038475 c 3.2299,-1.41011 4.43274,-2.55923 5.80665,-5.547334 2.64514,-5.752893 2.45565,-17.367172 -0.38146,-23.380593 -0.7201,-1.526299 -2.44747,-3.736117 -2.71293,-3.470655 -0.13161,0.131611 -0.32288,2.377947 -0.53795,6.317855 -0.33897,6.209585 -1.60027,15.314448 -2.74897,19.843749 -0.66728,2.631064 -1.41742,5.192887 -1.7621,6.017831 -0.21279,0.509278 -0.38689,0.97095 -0.38689,1.025938 0,0.264459 0.83954,0.01577 2.72365,-0.806791 z M 27.082007,82.868418 c -2.15662,-6.441564 -3.76325,-14.639755 -4.91292,-25.06927 -0.3128,-2.837656 -0.66247,-5.259022 -0.77703,-5.380812 -0.41065,-0.436563 -1.81801,1.305758 -2.52974,3.131854 -1.37838,3.536487 -2.00459,7.410283 -2.03161,12.567708 -0.0276,5.267547 0.38461,7.955462 1.58088,10.308499 0.94158,1.852081 2.1338,2.684417 5.49047,3.833117 2.95561,1.011451 3.33933,1.084926 3.17995,0.608904 z m -3.17162,-45.38358 c -0.0966,-0.25173 -0.4813,-0.309412 -1.36803,-0.205127 -1.80755,0.212585 -2.08147,-0.136813 -1.30516,-1.664827 0.34407,-0.677248 1.70373,-2.838703 3.02146,-4.803235 1.93255,-2.881132 2.81971,-3.932758 4.58757,-5.438028 1.24477,-1.059879 3.01949,-2.957102 4.10767,-4.391202 2.67576,-3.526356 7.73132,-8.331742 12.39448,-11.7811468 3.19559,-2.3638242 4.44731,-3.2121101 7.18935,-4.8721852 5.67128,-3.43349239 12.17524,-6.4311738 24.39892,-11.2455002 2.82976,-1.1145043 5.86585,-2.4210723 6.74687,-2.9034818 0.88103,-0.482409 2.54592,-1.253768 3.69976,-1.714129 2.91141,-1.161598 4.38793,-1.052404 7.95627,0.588393 14.580493,6.7044012 18.180693,8.5223136 22.563033,11.39315111 1.9969,1.30814749 3.67066,2.48472039 3.71947,2.61460699 0.0488,0.129884 0.18414,0.1771915 0.30075,0.1051269 0.1166,-0.072065 0.34807,0.03293 0.51439,0.2333228 0.22711,0.2736506 0.22475,0.5347123 -0.009,1.0487289 -0.2579,0.5660284 -0.21185,0.9889305 0.26629,2.4454355 0.31796,0.968578 0.52834,1.810821 0.46752,1.871649 -0.0608,0.06083 -0.4223,0.03236 -0.80328,-0.06325 -0.50311,-0.126272 -0.69268,-0.345236 -0.69268,-0.800079 0,-0.559652 -0.0707,-0.599329 -0.66545,-0.373221 -0.59798,0.227351 -0.92401,0.03562 -3.21524,-1.8907919 -3.61217,-3.0370381 -6.30988,-4.71517639 -11.81464,-7.3494288 -5.987483,-2.8652495 -7.026793,-3.3169514 -7.210103,-3.1336375 -0.49688,0.4968795 3.803123,9.6875622 6.287003,13.4376362 4.27574,6.4553488 10.70905,12.7013938 16.7776,16.2892178 6.45472,3.816138 16.45977,7.568236 23.19031,8.696838 0.83405,0.139859 0.99219,0.09208 0.99219,-0.299789 0,-0.527635 -0.80908,-2.795434 -1.06938,-2.997398 -0.0938,-0.07276 -0.47818,-0.749922 -0.85424,-1.504802 -0.58003,-1.164302 -1.4534,-2.511872 -3.8916,-6.004523 -0.21519,-0.308255 -1.22722,-1.555723 -2.24896,-2.772148 -2.43048,-2.893612 -2.59778,-3.135587 -2.39489,-3.463866 0.33838,-0.54751 0.82456,-0.251802 2.30157,1.399865 3.30249,3.69302 6.3765,8.189407 8.48049,12.404516 1.12916,2.262155 2.63991,6.029539 2.48878,6.206307 -0.0683,0.07989 -3.74959,-0.974847 -8.76323,-2.51079 -13.54404,-4.149251 -21.9563,-8.838213 -29.11401,-16.228028 -6.24122,-6.443617 -10.66008,-13.6869185 -12.566923,-20.5994461 -0.34121,-1.236927 -0.84189,-2.5006881 -1.11263,-2.8083588 -0.65421,-0.7434685 -4.42601,-2.496804 -5.75446,-2.674985 -1.38014,-0.1851157 -4.14222,0.7014924 -6.66442,2.1392329 l -1.92121,1.0951527 -1.08043,2.9104165 c -2.42795,6.5403356 -5.26278,11.591795 -9.07041,16.1627888 -6.61381,7.939786 -13.79057,13.205295 -23.58576,17.304617 -5.1254,2.144996 -7.09684,2.630252 -17.21771,4.23803 -1.09361,0.173728 -3.32369,0.75298 -4.95572,1.287227 -2.29063,0.749839 -2.99799,0.891492 -3.10173,0.621149 z m 6.64317,-3.627231 c 1.14386,-0.216493 3.80615,-0.629703 5.91621,-0.918245 6.02596,-0.824026 10.83846,-2.210278 16.13958,-4.649046 1.52797,-0.702937 2.93546,-1.435235 3.12775,-1.627325 0.1923,-0.192093 0.47056,-0.349258 0.61835,-0.349258 0.1478,0 1.53828,-0.849852 3.08996,-1.888559 7.75273,-5.189751 13.13651,-10.90264 17.29484,-18.3520649 2.22605,-3.9878368 4.52678,-9.6628051 4.09324,-10.096346 -0.32646,-0.3264508 -13.11513,4.72843731 -18.66207,7.3764216 -6.14075,2.9314535 -13.57259,7.6977653 -18.29332,11.7321823 -2.84389,2.430433 -6.56532,6.245878 -8.75555,8.976741 -0.93252,1.162701 -1.8451,2.273313 -2.02795,2.468028 -0.18286,0.194714 -0.44414,0.562702 -0.58064,0.81775 -0.1365,0.255048 -1.14775,1.748687 -2.24723,3.319195 -1.71728,2.452984 -2.31565,3.584152 -1.89598,3.584152 0.0567,0 1.03895,-0.177131 2.18281,-0.393626 z"
       id="path8404" /></g></svg>
