<?xml version="1.0" encoding="UTF-8" standalone="no"?>
<!-- Created with Inkscape (http://www.inkscape.org/) -->

<svg
   width="134.30794mm"
   height="245.5121mm"
   viewBox="0 0 134.30792 245.51192"
   version="1.1"
   id="svg5"
   xml:space="preserve"
   xmlns="http://www.w3.org/2000/svg"
   xmlns:svg="http://www.w3.org/2000/svg"><defs
     id="defs2" /><g
     id="layer1"
     transform="translate(-46.289677,46.485766)"><path
       style="fill:#000000;stroke-width:0.264583"
       d="m 127.51669,198.841 c -3.85971,-0.68261 -7.52992,-3.41254 -9.10066,-6.76913 -0.80193,-1.71367 -0.83537,-1.93105 -1.02891,-6.68703 -0.18205,-4.47352 -0.003,-8.60473 0.4651,-10.73661 0.0959,-0.43656 0.19838,-2.87734 0.22779,-5.42396 0.0294,-2.54661 0.13409,-5.25528 0.23264,-6.01927 0.13825,-1.07172 0.0985,-1.38906 -0.17417,-1.38906 -0.19434,0 -0.46645,0.11194 -0.6047,0.24876 -0.13824,0.13681 -0.56833,0.30563 -0.95575,0.37514 -0.38742,0.0695 -0.9717,0.26944 -1.29839,0.44429 -0.37874,0.20269 -1.33265,0.27514 -2.63227,0.19991 -2.18279,-0.12636 -3.75235,-0.74104 -5.07066,-1.9858 l -0.70989,-0.67027 -0.94376,0.58327 c -0.51907,0.3208 -0.94376,0.49946 -0.94376,0.39701 0,-0.10245 -0.19506,-0.0244 -0.43348,0.17349 -0.28601,0.23736 -1.12571,0.35556 -2.46815,0.34742 -1.75731,-0.0107 -2.266273,-0.12967 -3.733703,-0.87299 -1.80712,-0.9154 -3.58903,-2.60848 -3.85323,-3.66116 -0.1166,-0.46454 -0.27692,-0.5874 -0.59043,-0.45244 -0.93959,0.40447 -3.10597,0.90462 -3.91838,0.90462 -0.47252,0 -1.40581,-0.1856 -2.07398,-0.41245 -0.91204,-0.30965 -1.42545,-0.34675 -2.05977,-0.14887 -1.29746,0.40476 -4.57299,1.00849 -10.23763,1.88693 -2.83765,0.44005 -5.55997,0.93086 -6.0496,1.09069 -4.46685,1.4581 -9.24528,-2.55986 -13.76693,-11.57595 -0.86706,-1.72891 -1.77111,-3.82462 -2.00901,-4.65713 -0.79254,-2.77352 -0.42988,-6.7672 0.66786,-7.3547 0.2861,-0.15311 0.52063,-0.42302 0.52118,-0.59981 0.002,-0.80247 4.71676,-1.73318 5.38653,-1.06341 0.10122,0.10123 0.32942,0.20846 0.50711,0.23831 0.63664,0.10693 1.70286,0.59816 2.06795,0.95274 0.54206,0.52646 2.40246,1.57722 2.54324,1.43644 0.0662,-0.0662 -0.0202,-0.38313 -0.1921,-0.70425 -0.17186,-0.32113 -0.31247,-0.97808 -0.31247,-1.45988 0,-1.08953 0.53482,-2.76407 0.8828,-2.76407 0.14282,0 0.19666,-0.10197 0.11964,-0.22659 -0.1512,-0.24465 0.12843,-0.55641 1.96089,-2.18625 2.07282,-1.84362 6.86001,-4.45784 8.41994,-4.59802 0.3895,-0.035 1.1249,-0.30692 1.63422,-0.60426 1.15393,-0.67365 7.96415,-2.36789 10.45105,-2.6 1.5565,-0.14528 1.94557,-0.28346 2.43788,-0.86585 0.32219,-0.38115 0.59008,-0.7961 0.59531,-0.92213 0.005,-0.12602 -0.39167,-0.78087 -0.88202,-1.45521 -1.61694,-2.2237 -3.16248,-5.57287 -4.0171,-8.70505 l -0.8364,-3.0654 -1.9178,-0.45065 c -2.58083,-0.60647 -6.53133,-2.60794 -8.25922,-4.18445 -1.3959,-1.27361 -1.42426,-1.28494 -3.26024,-1.3033 -2.15015,-0.0215 -4.33445,-0.70106 -6.05229,-1.882969 -2.32565,-1.600092 -4.39285,-4.513776 -4.81329,-6.784277 -0.1131,-0.610753 -0.68003,-1.678386 -1.36665,-2.573665 -1.3078,-1.705224 -3.16219,-5.536062 -3.90418,-8.065336 -0.53223,-1.814248 -0.53343,-1.814705 -2.43742,-0.934712 -1.52442,0.704565 -3.79187,-0.206608 -4.87488,-1.958972 -0.68683,-1.111313 -0.76317,-2.885601 -0.21658,-5.034325 0.32826,-1.290484 0.31576,-1.424172 -0.18554,-1.984375 -1.81941,-2.033161 -2.50912,-4.957862 -1.99984,-8.480255 0.31268,-2.162627 1.00317,-4.400621 1.45555,-4.7177 0.12702,-0.08903 0.20834,-0.248293 0.18071,-0.353915 -0.0978,-0.37407 1.74081,-2.34977 2.84962,-3.06202 0.96288,-0.618503 1.06761,-0.769961 0.7276,-1.052145 -0.21845,-0.181298 -0.39718,-0.608975 -0.39718,-0.950391 0,-0.409578 -0.1204,-0.574559 -0.3539,-0.484955 -0.76283,0.292727 -4.14991,-6.303777 -4.1369,-8.056826 0.0112,-1.50313 1.11516,-2.638031 2.77101,-2.848563 0.7276,-0.09251 1.58667,-0.153394 1.90903,-0.135294 0.68506,0.03846 0.66896,0.08833 2.03622,-6.309643 2.11024,-9.87471 6.86854,-31.6348386 7.50675,-34.3290641 0.25737,-1.08648759 0.74093,-2.27901489 1.11571,-2.7514707 2.23514,-2.8177277 5.96682,-7.0557466 6.62691,-7.5261121 0.42724,-0.304438 0.7018,-0.628528 0.61012,-0.720201 -0.0917,-0.09167 0.1688,-0.294225 0.57882,-0.450115 1.23145,-0.4681961 1.53899,0.155835 3.14832,6.3883037 l 1.47773,5.7227944 -0.51733,3.5376219 c -0.46065,3.1500575 -3.9413,25.7012189 -5.30353,34.3615759 -0.79834,5.075454 -0.80789,4.822528 0.19198,5.082886 0.47294,0.123151 0.85989,0.339569 0.85989,0.480928 0,0.141362 0.15293,0.257019 0.33983,0.257019 1.05282,0 1.62735,3.024714 0.80549,4.240607 -0.68922,1.019656 -3.51051,3.801149 -3.68179,3.629866 -0.21721,-0.21721 -1.16769,0.785349 -1.16769,1.23167 0,0.203991 0.38695,0.618704 0.85989,0.921583 0.47294,0.302882 0.74083,0.554453 0.59531,0.559051 -0.14552,0.0046 0.0331,0.158819 0.39688,0.342715 0.39319,0.198752 1.03704,1.071562 1.5875,2.152031 0.8755,1.718471 0.9311,1.98655 1.01883,4.912103 l 0.0928,3.094431 0.78542,0.463958 c 0.43198,0.255177 0.71868,0.530701 0.6371,0.612272 -0.0816,0.08157 -0.0419,0.278334 0.0881,0.437243 0.13003,0.158911 0.36936,0.765177 0.53185,1.347261 0.21096,0.755718 0.58994,1.260906 1.32542,1.766786 0.96262,0.662123 3.72255,3.991319 3.72255,4.490379 0,0.12382 0.35719,0.225126 0.79375,0.225126 0.43656,0 0.79375,0.119062 0.79375,0.264583 0,0.595032 0.72396,0.207465 1.07673,-0.576424 0.20816,-0.462552 0.69741,-1.074774 1.08722,-1.36049 0.66323,-0.486129 0.78561,-0.494175 1.90596,-0.125341 1.18683,0.390718 1.19467,0.389321 0.90171,-0.160864 -0.16254,-0.305252 -0.73465,-1.150318 -1.27134,-1.877922 -5.12479,-6.947717 -8.10078,-16.471857 -7.56069,-24.19669 0.21619,-3.092029 0.49754,-4.387598 1.14683,-5.280816 0.27387,-0.376745 0.71561,-1.756555 0.98166,-3.066243 0.26605,-1.309687 0.63331,-2.678906 0.81612,-3.042708 0.18283,-0.363802 0.48273,-1.167474 0.66645,-1.785937 0.18373,-0.618464 0.43405,-1.124479 0.55628,-1.124479 0.12223,0 0.22224,-0.182552 0.22224,-0.40567 0,-0.505068 1.21669,-2.937031 1.58247,-3.163096 0.14828,-0.09165 0.27143,-0.367964 0.27366,-0.614037 0.002,-0.246073 0.42228,-1.042718 0.93345,-1.770322 0.51117,-0.727604 1.13013,-1.620573 1.37545,-1.984375 2.02067,-2.996504 5.54689,-6.637705 8.73413,-9.01891 1.34646,-1.005954 2.55693,-1.829006 2.68993,-1.829006 0.13299,0 0.2815,-0.09145 0.33001,-0.203219 0.24813,-0.571751 5.934673,-3.598087 6.316943,-3.361832 0.0868,0.05364 0.10706,-0.248105 0.0451,-0.670539 -0.15738,-1.0723377 0.67433,-3.550187 1.42992,-4.2600296 0.34686,-0.3258503 0.63064,-0.786429 0.63064,-1.0235088 0,-0.2370799 0.65485,-1.0082953 1.45521,-1.7138094 0.80037,-0.7055167 1.45521,-1.4311179 1.45521,-1.6124501 0,-0.1813322 -0.48664,-1.1307127 -1.08141,-2.10973719 -1.44966,-2.38618431 -2.73111,-5.78542121 -3.44544,-9.13951981 -0.78735,-3.6969751 -0.85783,-10.1654081 -0.14625,-13.4222301 0.55923,-2.559537 1.45042,-5.275027 2.25365,-6.866977 0.31205,-0.618464 0.79837,-1.580242 1.08071,-2.137285 0.28234,-0.557044 0.69906,-1.166935 0.92604,-1.355314 0.22699,-0.188379 0.4127,-0.484169 0.4127,-0.657312 0,-0.502527 2.40793,-3.60389 2.67159,-3.440943 0.13135,0.08118 0.23883,0.02963 0.23883,-0.11456 0,-0.438449 2.7209,-3.116496 3.63802,-3.580725 0.47294,-0.239394 0.86071,-0.521501 0.8617,-0.626905 0.002,-0.261699 1.90058,-1.530834 2.16624,-1.448414 0.11726,0.03638 0.2132,-0.0505 0.2132,-0.19306 0,-0.495018 4.701,-2.51869 6.51954,-2.806515 0.5616,-0.08889 1.10994,-0.216116 1.21853,-0.282736 1.09432,-0.671339 8.44213,-0.942773 11.44422,-0.422759 1.16417,0.201653 2.2655,0.378609 2.4474,0.393235 0.1819,0.01463 0.33073,0.125811 0.33073,0.247079 0,0.121267 0.46922,0.220486 1.04272,0.220486 0.57349,0 1.1175,0.121004 1.2089,0.268899 0.0914,0.147894 0.25949,0.211239 0.37352,0.140767 0.11402,-0.07047 0.43322,0.04286 0.70932,0.251853 0.2761,0.208991 0.64743,0.383771 0.82518,0.388399 0.44043,0.01147 2.90381,1.174287 4.05973,1.916359 3.54405,2.275208 6.58392,4.523884 8.21184,6.07453 0.78053,0.743479 5.31948,3.130025 5.95297,3.130025 0.20349,0 0.36998,0.106037 0.36998,0.235637 0,0.317694 1.60988,0.553319 3.7074,0.542623 1.3986,-0.0071 1.83661,0.09704 2.32634,0.553293 0.993,0.925125 0.2316,2.301607 -1.99884,3.613557 -0.61846,0.363784 -1.12448,0.785593 -1.12448,0.937358 0,0.369649 3.49407,0.04856 5.34217,-0.490916 1.57686,-0.460301 4.35962,-1.920485 5.79494,-3.040742 1.17829,-0.919649 3.011,-1.384011 3.7185,-0.942171 0.27312,0.170568 0.69164,0.820873 0.93005,1.445121 0.39658,1.038452 0.39867,1.31157 0.0245,3.210858 -0.95619,4.853466 -4.49961,10.056965 -9.07435,13.325659 -1.45531,1.039823 -5.10474,2.834722 -5.76364,2.834722 -0.22647,0 -0.4794,0.109427 -0.56206,0.243171 -0.13682,0.221382 -0.8763,0.426736 -3.98198,1.1058051 -1.70521,0.372848 -8.2522,0.28004 -10.49133,-0.148725 -1.14864,-0.219951 -2.59085,-0.3206381 -3.33328,-0.232709 -1.5121,0.179086 -4.99416,-0.4525251 -6.82771,-1.2384751 -0.66955,-0.287007 -1.94891,-0.950569 -2.84301,-1.474586 l -1.62563,-0.952757 -2.59128,0.679114 c -3.88393,1.017884 -7.32526,2.898256 -9.14283,4.9957246 -0.34678,0.4001823 -0.80555,0.7276042 -1.01948,0.7276042 -0.21394,0 -0.32404,0.1050686 -0.24467,0.2334842 0.0794,0.1284181 -0.0815,0.5205994 -0.35758,0.8715162 -1.23381,1.5685452 -3.13734,6.17642251 -2.85521,6.91163869 0.0738,0.1923706 0.59876,0.48894471 1.16654,0.65905591 1.83076,0.5485077 5.90129,3.5899802 5.90225,4.4101224 1.8e-4,0.1516009 0.29538,0.6187201 0.656,1.0380424 0.36062,0.4193195 0.73116,1.1647751 0.82342,1.6565667 0.20463,1.0908056 0.15126,1.0571136 3.41355,2.1548827 2.81544,0.947402 6.55728,2.624773 6.70482,3.005601 0.0488,0.125978 0.18227,0.171251 0.29658,0.100605 0.11431,-0.07065 0.47955,0.107204 0.81164,0.395226 0.33209,0.28802 0.76418,0.523674 0.96019,0.523674 0.19601,0 0.35639,0.111041 0.35639,0.246753 0,0.135716 0.22485,0.318119 0.49967,0.405342 0.27482,0.08723 0.84036,0.474337 1.25677,0.860248 0.41641,0.385913 0.81663,0.680698 0.88939,0.655079 0.17412,-0.06131 5.0253,4.188595 5.0331,4.409276 0.003,0.0936 0.66883,0.884552 1.47892,1.757677 1.37626,1.483336 2.71629,3.276986 3.92124,5.248645 0.93234,1.525574 3.32508,6.305161 3.32508,6.641962 0,0.182168 0.18309,0.698235 0.40687,1.146813 0.22378,0.448577 0.65726,1.984917 0.9633,3.414088 0.36328,1.696532 0.7649,2.848369 1.15705,3.318372 0.33034,0.395933 0.73029,1.324528 0.88878,2.063543 0.52678,2.456289 0.25863,9.100463 -0.4376,10.842617 -0.0872,0.218281 -0.19751,0.739256 -0.24507,1.157721 -0.28883,2.54141 -3.78085,10.482141 -6.00059,13.645112 -0.65848,0.938276 -1.13819,1.801479 -1.06604,1.918229 0.0722,0.116748 0.53127,0.21227 1.02025,0.21227 2.51219,0 6.36433,1.566474 9.3558,3.804537 2.69578,2.016852 2.94848,2.352603 2.78363,3.698615 -0.12687,1.035934 -0.0528,1.199287 1.10083,2.426179 2.58393,2.748126 5.39053,7.797752 4.33402,7.797752 -0.17958,0 -0.24817,0.07834 -0.15242,0.174093 0.0958,0.09575 0.0379,0.338188 -0.12854,0.538747 -0.23444,0.282477 -0.10986,0.748282 0.5528,2.067015 0.47049,0.936297 0.88839,2.117593 0.92866,2.625101 0.0403,0.507507 0.29855,1.241353 0.57397,1.630769 2.13995,3.025719 2.64252,4.474489 2.41657,6.966289 -0.13901,1.53306 -1.13142,4.25423 -1.55152,4.25423 -0.1276,0 -0.23325,0.14883 -0.23478,0.33073 -0.002,0.1819 -0.62413,0.86651 -1.38358,1.52136 -0.75944,0.65484 -1.91905,1.76854 -2.57691,2.47489 -0.65786,0.70635 -1.61283,1.51252 -2.12215,1.79149 -0.50932,0.27896 -1.52135,0.85359 -2.24896,1.27694 -1.89569,1.103 -4.98986,2.09866 -9.07807,2.92119 -2.75637,0.55457 -3.61704,0.82858 -3.828,1.21869 -0.14969,0.27679 -0.61485,0.80091 -1.03371,1.16471 -0.75763,0.65806 -0.75981,0.66875 -0.42234,2.07732 0.30666,1.28001 0.50422,1.5447 2.059,2.75861 1.84424,1.4399 5.82083,5.19164 5.82083,5.49169 0,0.0999 0.42483,0.63215 0.94407,1.1827 1.3108,1.38985 4.15661,5.79421 5.29919,8.20135 0.97531,2.05476 1.40776,4.42079 1.06073,5.80346 -0.19415,0.77358 -1.55934,2.29798 -2.48747,2.77758 -0.33409,0.17264 -1.04734,0.34203 -1.58499,0.37642 -0.89417,0.0572 -0.99028,0.14082 -1.12672,0.9802 -0.2015,1.23966 -0.98916,2.51275 -1.81888,2.93983 -0.37554,0.19331 -0.83565,0.49581 -1.02246,0.67222 -0.92973,0.878 -3.38147,1.0777 -5.72782,0.46655 -0.85165,-0.22183 -1.56764,-0.37065 -1.5911,-0.33073 -0.0234,0.0399 -0.26272,0.57861 -0.5317,1.19707 -0.26897,0.61846 -0.6262,1.12448 -0.79384,1.12448 -0.16763,0 -0.68533,0.39262 -1.15044,0.87249 -0.83872,0.86534 -0.84565,0.8946 -0.84565,3.56808 0,3.10022 -0.22664,4.25031 -1.52332,7.73026 -1.7943,4.81545 -6.82096,14.19513 -8.10255,15.11925 -0.24625,0.17757 -0.19649,0.47238 0.48336,2.86393 0.54228,1.90763 0.52139,4.50452 -0.051,6.33523 -1.21198,3.87659 -5.92183,6.17292 -10.86705,5.29832 z m 4.91195,-3.56536 c 2.11308,-0.8829 3.06336,-2.52428 3.0578,-5.28158 -0.003,-1.67661 -0.56959,-3.83645 -1.00573,-3.83645 -0.0874,0 -0.48801,0.17017 -0.89021,0.37815 -1.22662,0.63431 -3.70656,0.78682 -5.06328,0.31137 -0.65484,-0.22948 -1.36922,-0.419 -1.5875,-0.42115 -0.21828,-0.002 -1.05172,-0.35635 -1.85208,-0.7871 -1.74056,-0.93677 -2.02819,-0.97062 -2.25211,-0.2651 -0.0941,0.2965 -0.65006,0.84144 -1.23545,1.21098 -1.0525,0.66442 -1.0624,0.68565 -0.89015,1.90831 0.43379,3.079 2.54666,5.6206 5.49457,6.6095 2.01179,0.67486 4.83527,0.75337 6.22414,0.17307 z m -0.35863,-10.83919 c 2.81592,-0.85426 4.93757,-3.53782 8.39512,-10.61852 1.14675,-2.34843 2.085,-4.39931 2.085,-4.55751 0,-0.20547 -0.20783,-0.20741 -0.7276,-0.007 -0.40018,0.15445 -1.14432,0.28181 -1.65365,0.28302 -0.50932,0.001 -1.06963,0.12025 -1.24514,0.26454 -0.49862,0.40993 -3.97333,0.42227 -6.16319,0.0219 -2.18239,-0.39902 -4.15873,-1.06246 -5.63495,-1.8916 l -0.96026,-0.53935 -0.27708,0.98223 c -0.15239,0.54022 -0.41275,1.81566 -0.57857,2.83431 -0.16583,1.01864 -0.46004,2.16939 -0.65382,2.55721 -0.27128,0.54293 -0.29043,1.03996 -0.0832,2.16075 0.25573,1.38339 0.20937,1.93318 -0.46639,5.53139 -0.0748,0.3984 -0.0443,0.93418 0.0678,1.19063 0.11211,0.25645 0.17502,0.58533 0.13979,0.73085 -0.0352,0.14552 0.0211,0.17947 0.12508,0.0754 0.10402,-0.10402 0.43719,-0.0564 0.74037,0.10589 2.31628,1.23964 4.69461,1.54186 6.89072,0.87563 z m -10.65724,-0.4723 c 0.23439,-0.17849 0.74041,-0.94465 1.12448,-1.70258 0.57996,-1.1445 0.6983,-1.73328 0.6983,-3.47419 0,-2.31903 -0.39928,-3.15265 -1.56962,-3.27701 -0.54111,-0.0575 -0.67565,0.079 -0.84503,0.85765 -0.31318,1.43965 -0.5873,6.47844 -0.39428,7.24749 0.19231,0.76624 0.35995,0.8255 0.98615,0.34864 z m 1.77668,-11.16948 c 0.2868,-0.36462 0.66091,-1.46373 0.83135,-2.44246 0.17044,-0.97874 0.42111,-1.91353 0.55703,-2.07731 0.48989,-0.59028 -0.0829,-1.98749 -1.29937,-3.1699 -0.66366,-0.64504 -1.30454,-1.07493 -1.42417,-0.9553 -0.11963,0.11963 -0.40757,1.22105 -0.63987,2.4476 -0.44493,2.34924 -0.36867,5.3264 0.16183,6.31766 0.39359,0.73543 1.18119,0.68318 1.8132,-0.12029 z m 16.80895,-4.51606 c 2.996,-0.76756 4.96812,-2.42122 4.11435,-3.44994 -0.24939,-0.3005 -0.43064,-0.25327 -1.05989,0.27621 -1.30721,1.09995 -3.57804,1.80655 -6.23863,1.94125 -2.92398,0.14803 -5.36297,-0.33307 -8.40311,-1.65754 -1.15526,-0.50331 -2.15366,-0.86192 -2.21865,-0.79692 -0.15698,0.15697 0.72981,1.5053 1.25653,1.9105 0.61949,0.47656 3.69975,1.68287 4.91347,1.92425 1.86454,0.3708 5.91792,0.29234 7.63593,-0.14781 z m 0.55138,-3.91545 c 2.59206,-1.28106 3.85244,-2.6677 3.85244,-4.23833 0,-1.10838 -0.04,-1.16792 -0.89243,-1.32784 -0.49083,-0.0921 -1.4731,-0.46202 -2.18281,-0.82208 -0.70971,-0.36007 -1.30527,-0.65517 -1.32346,-0.65578 -0.0182,-5.3e-4 -0.10487,0.35789 -0.19263,0.79666 -0.0877,0.43877 -0.60899,1.27959 -1.15831,1.86849 -0.76681,0.82206 -1.25585,1.10521 -2.10572,1.2192 -1.51306,0.20294 -2.75475,-0.07 -3.92209,-0.8622 l -0.98276,-0.66692 -0.92249,1.07773 c -0.99491,1.16232 -2.10763,1.8576 -2.97291,1.8576 -0.94409,0 -0.59312,0.41465 1.08236,1.27876 0.89356,0.46085 1.51864,0.8518 1.38906,0.86879 -0.12958,0.017 0.65737,0.1854 1.74877,0.37427 1.09141,0.18887 3.0334,0.30857 4.31553,0.26601 2.06061,-0.0684 2.55588,-0.18845 4.26745,-1.03436 z m -20.75381,-4.26701 c 0,-0.21828 -0.11906,-0.39688 -0.26458,-0.39688 -0.14552,0 -0.26459,0.1786 -0.26459,0.39688 0,0.21828 0.11907,0.39687 0.26459,0.39687 0.14552,0 0.26458,-0.17859 0.26458,-0.39687 z m -5.37253,-0.5272 c 1.89178,-0.38015 3.46942,-3.20091 4.0638,-7.26592 0.39527,-2.70325 0.17324,-10.34704 -0.36156,-12.44751 -0.39519,-1.55212 -1.55857,-5.3455 -1.69954,-5.54161 -0.0816,-0.11355 -3.92788,-0.61397 -7.47809,-0.97294 -0.94588,-0.0956 -1.64231,-0.0897 -1.54761,0.0132 0.22173,0.24089 -0.21743,1.84048 -0.87692,3.19409 -0.28359,0.58208 -0.57088,1.46987 -0.63842,1.97287 -0.0675,0.503 -0.30172,1.18761 -0.5204,1.52135 -0.21867,0.33375 -0.32074,0.60682 -0.22681,0.60682 0.0939,0 0.0442,0.15252 -0.11051,0.33894 -0.15472,0.18642 -0.34265,0.67728 -0.41764,1.09079 -0.075,0.41352 -0.33232,0.96841 -0.57187,1.23311 -0.23955,0.2647 -0.45314,0.78579 -0.47466,1.15798 -0.0215,0.3722 -0.14826,0.67681 -0.28165,0.67691 -0.13339,1e-4 -0.1629,0.0798 -0.0656,0.17715 0.0973,0.0973 0.0146,0.36522 -0.18376,0.59531 -0.60381,0.70025 -1.82119,2.93189 -1.59937,2.93189 0.1144,0 -0.018,0.16528 -0.29429,0.36729 -0.27627,0.202 -0.64196,0.76755 -0.81267,1.25677 -0.17071,0.48921 -0.443683,0.85972 -0.606613,0.82334 -0.26898,-0.0601 -0.40886,0.2789 -0.32757,0.79375 0.0172,0.10914 -0.0677,0.19843 -0.18869,0.19843 -0.36255,0 -1.89664,2.54387 -1.89664,3.14506 0,1.00739 1.76652,2.63612 3.362303,3.10003 2.66686,0.77527 3.67787,0.18392 4.83338,-2.82712 0.73513,-1.9156 0.83211,-2.13629 2.08312,-4.74088 l 1.0802,-2.24896 -0.13917,3.43958 c -0.0765,1.89177 -0.1938,3.70748 -0.26058,4.0349 -0.0668,0.32742 -9e-5,0.59531 0.14821,0.59531 0.14829,0 0.26962,0.21477 0.26962,0.47726 0,0.80959 1.63995,2.15728 2.92884,2.40688 0.64471,0.12485 1.35079,0.19073 1.56908,0.14639 0.21828,-0.0443 0.7772,-0.15703 1.24205,-0.25044 z m 13.0317,-0.60999 c 1.71905,-0.84853 2.63921,-3.62371 2.68344,-8.09319 0.0204,-2.06092 0.0618,-2.27673 0.2853,-1.48525 0.14378,0.50933 0.37117,1.03916 0.5053,1.1774 0.13413,0.13824 0.24387,0.56092 0.24387,0.93927 0,0.37835 0.10433,0.80103 0.23184,0.93927 0.12751,0.13825 0.4857,1.02886 0.79597,1.97914 0.80343,2.46068 1.69918,3.69617 2.6798,3.69617 1.42832,0 1.71893,-0.88071 1.69901,-5.14886 -0.0281,-6.02945 -1.66791,-13.00917 -4.1516,-17.67145 -1.24624,-2.33938 -0.8167,-2.19869 -5.28987,-1.73262 -2.68265,0.27952 -3.08986,0.38361 -2.97058,0.75941 0.076,0.23951 -0.0438,0.58652 -0.2662,0.77112 -0.33799,0.2805 -0.49422,0.22145 -0.95122,-0.35953 -0.50641,-0.64379 -0.69851,-0.69515 -2.60017,-0.69515 -1.12935,0 -2.12211,0.0687 -2.20614,0.15277 -0.084,0.084 0.14902,0.82817 0.51788,1.65365 0.73554,1.64607 1.43349,4.23083 1.78055,6.59399 0.0588,0.40024 0.28768,1.79928 0.50867,3.10897 0.22098,1.30968 0.47649,3.98859 0.56779,5.95312 0.27776,5.97678 0.472,6.73844 1.91854,7.52332 0.96578,0.52404 2.89124,0.49454 4.01782,-0.0616 z m -60.046673,-2.45319 c 0,-0.28403 -0.22375,-1.02115 -0.49723,-1.63803 -0.27348,-0.61687 -0.76337,-1.77643 -1.08865,-2.5768 -0.32529,-0.80036 -0.7071,-1.59882 -0.84847,-1.77435 -0.14137,-0.17552 -0.18023,-0.44341 -0.0863,-0.59531 0.0939,-0.15189 0.0461,-0.27617 -0.10619,-0.27617 -0.15228,0 -0.69591,-0.80367 -1.20807,-1.78594 -0.97417,-1.86834 -1.28282,-2.40903 -2.00421,-3.51085 -0.66589,-1.01704 -0.8757,-1.84926 -0.46251,-1.83457 0.34896,0.0124 2.20064,2.40557 2.20064,2.84417 0,0.12808 0.41044,0.8772 0.91209,1.66471 1.4242,2.2358 1.59746,2.57753 2.80517,5.53289 0.63882,1.56323 1.19607,2.60457 1.27428,2.38125 1.60976,-4.59657 0.23145,-9.69352 -3.70179,-13.68907 -2.68389,-2.72642 -5.53586,-3.89324 -7.26027,-2.97037 -0.56936,0.30472 -0.69693,1.04676 -0.18104,1.05308 0.23512,0.003 0.22341,0.072 -0.0405,0.23909 -0.2886,0.18272 -0.33544,0.66211 -0.2104,2.15357 0.0885,1.05519 0.28529,2.04298 0.43739,2.19508 0.15209,0.1521 0.28016,0.46109 0.28459,0.68665 0.011,0.558 1.46876,3.48548 3.05227,6.1294 2.03914,3.40468 5.61685,6.91018 6.53082,6.399 0.10914,-0.061 0.19844,-0.34338 0.19844,-0.62743 z m 4.5455,-0.0282 c 1.36745,-0.51431 1.67849,-1.71948 1.61928,-6.27427 -0.0402,-3.09346 -0.16328,-4.37891 -0.51211,-5.34897 -0.44213,-1.22952 -0.504,-1.28249 -1.66686,-1.42708 -0.66422,-0.0826 -1.62138,-0.26223 -2.12702,-0.3992 -0.50563,-0.13698 -1.00984,-0.15854 -1.12046,-0.0479 -0.11061,0.11062 0.21528,1.05946 0.7242,2.10854 0.95394,1.96641 1.71247,4.90527 1.71247,6.63483 0,0.542 -0.19293,1.69508 -0.42874,2.56239 -0.79697,2.93134 -0.80801,2.78688 0.19955,2.6125 0.48986,-0.0848 1.20972,-0.27415 1.59969,-0.42082 z m 5.50867,-0.74747 c 0.94588,-0.14357 2.70774,-0.46013 3.91524,-0.70347 1.95996,-0.39497 2.187,-0.50156 2.11666,-0.99373 -0.0731,-0.51144 -0.22231,-0.54528 -2.06315,-0.46797 -1.64866,0.0693 -2.26325,-0.0315 -3.63277,-0.59531 -0.90661,-0.37326 -1.69676,-0.67866 -1.75589,-0.67866 -0.0591,0 -0.1891,0.56555 -0.28883,1.25677 -0.0997,0.69123 -0.24522,1.52466 -0.32331,1.85208 -0.16326,0.68451 -0.23012,0.67364 2.03205,0.33029 z m 68.818683,-0.86912 c 1.26495,-0.85124 1.64779,-2.14696 1.46292,-4.95127 -0.0815,-1.23693 -0.50967,-3.60441 -0.9514,-5.26107 -0.44171,-1.65666 -0.80312,-3.11517 -0.80312,-3.24114 0,-0.50797 0.82489,-0.18559 1.10647,0.43242 0.16576,0.3638 0.37532,0.66146 0.46569,0.66146 0.24726,0 3.7195,7.04416 3.7195,7.54578 0,0.34072 1.5084,1.45515 2.26692,1.67485 1.13796,0.3296 3.22312,-0.041 3.86993,-0.6878 0.76956,-0.76956 0.67319,-2.20348 -0.31669,-4.71214 -2.41945,-6.13161 -6.05046,-11.074 -10.82319,-14.7321 -2.41275,-1.84927 -2.64882,-1.90774 -4.88375,-1.20955 -1.03794,0.32425 -1.93175,0.61924 -1.98624,0.65554 -0.0545,0.0363 0.2134,0.43734 0.59531,0.89121 1.34099,1.59367 0.68424,2.31049 -0.84832,0.92591 -0.69144,-0.62467 -1.2878,-0.93195 -1.79666,-0.92574 -0.92084,0.0112 -4.03244,0.65973 -4.26068,0.88797 -0.0897,0.0897 0.0733,0.43058 0.3623,0.75742 0.77454,0.87596 1.27167,1.75764 1.82694,3.24011 0.27253,0.7276 0.64821,1.62057 0.83486,1.98437 0.18664,0.3638 0.34008,0.89021 0.34098,1.16979 7.9e-4,0.27959 0.16084,0.6963 0.35543,0.92604 0.42687,0.50399 2.15117,6.18667 3.34764,11.03265 0.73224,2.96575 3.84767,4.46116 6.11516,2.93529 z M 92.591937,153.596 c 1.51033,-0.76173 5.57845,-4.91415 7.18516,-7.33404 0.704043,-1.06038 1.788223,-2.96538 2.409283,-4.23333 1.20617,-2.46253 3.58667,-8.52733 3.58667,-9.13778 0,-0.31577 -2.4032,-1.13217 -3.96875,-1.34825 -0.21828,-0.0301 -1.44408,-0.55476 -2.724013,-1.16587 -2.11907,-1.01174 -3.89057,-1.37155 -3.89057,-0.7902 0,0.11096 -0.31124,0.0834 -0.69166,-0.0612 -0.56442,-0.21459 -0.66455,-0.19232 -0.54428,0.12109 0.0891,0.23221 -0.17373,0.62646 -0.66475,0.99713 -0.44667,0.33718 -1.03518,0.82142 -1.3078,1.07608 -0.27262,0.25466 -0.60016,0.46302 -0.72786,0.46302 -0.1277,0 -0.37932,0.17728 -0.55915,0.39396 -0.17983,0.21668 -0.42396,0.33401 -0.54251,0.26074 -0.11856,-0.0733 -0.29168,0.10663 -0.38473,0.39979 -0.093,0.29316 -0.33974,0.53301 -0.54821,0.53301 -0.20848,0 -0.37905,0.12609 -0.37905,0.2802 0,0.15411 -0.11312,0.21028 -0.25138,0.12483 -0.13826,-0.0855 -0.64428,0.2916 -1.12448,0.83788 -0.4802,0.54629 -1.37911,1.48425 -1.99758,2.08437 -0.61846,0.60012 -1.12448,1.24081 -1.12448,1.42377 0,0.18296 -0.16874,0.2679 -0.37497,0.18875 -0.40762,-0.15641 -0.78383,0.50442 -0.5253,0.92272 0.0879,0.14218 -0.0903,0.32392 -0.39602,0.40385 -0.30568,0.0799 -0.55579,0.25968 -0.55579,0.39942 0,0.13974 -0.36825,0.62233 -0.81834,1.07242 -0.45008,0.45008 -1.44408,1.6026 -2.20889,2.56114 -2.52869,3.16925 -2.86087,4.42602 -1.40454,5.31396 1.34316,0.81894 3.01471,0.69698 5.00786,-0.36539 0.92008,-0.49041 2.20588,-1.17502 2.85733,-1.52135 0.65145,-0.34633 1.30769,-0.78263 1.45832,-0.96954 0.22137,-0.2747 0.3747,-0.26512 0.79992,0.05 0.5241,0.38838 0.52399,0.39404 -0.0309,1.53046 -0.30633,0.62736 -0.80132,1.91456 -1.09999,2.86044 l -0.54303,1.7198 0.67342,0.71397 c 0.37037,0.39269 0.9249,0.76986 1.23228,0.83815 1.0604,0.23559 3.03959,-0.0694 4.17879,-0.64396 z m 70.066533,-7.39046 c 0.29104,-0.29104 0.52916,-0.70359 0.52916,-0.91679 0,-1.33609 -2.23605,-5.77305 -4.3382,-8.60821 -3.01365,-4.06449 -8.92764,-9.52499 -10.31604,-9.52499 -0.74581,0 -0.74915,0.57241 -0.008,1.34616 1.09444,1.14233 0.53704,1.48481 -1.04637,0.6429 -0.68907,-0.36638 -1.42515,-0.66615 -1.63573,-0.66615 -0.67475,0 -0.40998,0.66365 0.47281,1.18513 1.0755,0.63531 6.32946,5.86002 7.89255,7.84862 1.71889,2.1868 4.02483,5.39785 4.48136,6.24034 0.48337,0.89201 2.65037,2.96638 3.10842,2.97555 0.1819,0.004 0.56886,-0.23151 0.8599,-0.52256 z m -86.768403,-2.71197 c 0.62495,-0.74914 0.63761,-0.99327 0.0512,-0.98814 -0.79451,0.007 -1.1951,0.41496 -1.00267,1.02125 0.22446,0.70721 0.33713,0.70329 0.95146,-0.0331 z m 0.10154,-4.16315 c 1.86606,-0.47725 6.51377,-2.63886 7.15957,-3.32985 0.14552,-0.1557 0.62177,-0.49887 1.05833,-0.76259 0.43657,-0.26372 1.40006,-0.94 2.14111,-1.50284 0.74105,-0.56284 1.41306,-1.02334 1.49337,-1.02334 0.0803,0 0.52839,-0.35719 0.99573,-0.79375 0.46734,-0.43657 1.01571,-0.79375 1.21861,-0.79375 0.20289,0 0.37241,-0.0893 0.37671,-0.19844 0.004,-0.10914 0.82813,-0.79375 1.83073,-1.52136 2.05506,-1.49139 2.69447,-2.78921 1.25055,-2.53828 -0.12001,0.0208 -0.67292,-0.32224 -1.2287,-0.76242 -0.5946,-0.47093 -1.32153,-0.79937 -1.76618,-0.79799 -0.66343,0.002 -6.13747,0.91913 -6.84109,1.14609 -0.60451,0.19499 -2.6749,0.77086 -3.04271,0.84632 -0.21828,0.0448 -0.42664,0.10541 -0.46302,0.13474 -0.0364,0.0293 -0.15545,0.0785 -0.26459,0.10924 -0.2822,0.0795 -1.14562,0.40448 -1.91823,0.72192 -0.3638,0.14948 -1.14803,0.41995 -1.74273,0.60104 -0.5947,0.18109 -1.53732,0.63915 -2.09472,1.01791 -0.55739,0.37876 -1.10054,0.63483 -1.20699,0.56904 -0.10645,-0.0658 -0.47352,0.17554 -0.8157,0.53629 -0.34218,0.36076 -0.74447,0.65798 -0.89397,0.66049 -0.54933,0.009 -2.76454,2.2764 -2.93064,2.99936 -0.1896,0.82528 -0.45042,0.79231 2.55386,0.32292 0.59369,-0.0928 1.12322,-0.0119 1.44023,0.2199 0.47339,0.34615 0.47607,0.39187 0.048,0.81993 -0.24934,0.24933 -0.62893,0.47911 -0.84353,0.5106 -0.64281,0.0943 -1.98048,1.5397 -1.98048,2.1399 0,0.30748 0.14287,0.70192 0.3175,0.87654 0.4936,0.4936 3.8504,0.38026 6.14897,-0.20762 z m 52.535613,-7.78175 c 1.52797,-0.21122 3.98273,-0.63028 5.45503,-0.93124 5.9221,-1.21055 13.08068,-4.14258 13.80836,-5.65566 0.47637,-0.99054 0.23851,-1.23356 -0.93959,-0.95999 -0.54647,0.1269 -1.68412,0.23356 -2.52809,0.23704 -0.90202,0.004 -1.8835,0.1874 -2.38125,0.44568 -3.19671,1.65872 -7.34338,2.89973 -13.23036,3.95958 -4.26835,0.76844 -12.07134,1.05943 -16.0591,0.59887 -4.28223,-0.49456 -11.22993,-2.21252 -10.9274,-2.70201 0.0887,-0.1435 0.0355,-0.18321 -0.1181,-0.0883 -0.41358,0.25561 -3.740353,-1.17491 -5.983053,-2.57273 -1.07862,-0.67228 -2.08026,-1.22232 -2.22585,-1.22232 -0.14559,0 -0.32587,0.38695 -0.40062,0.85989 -0.12088,0.76476 0.0272,1.02684 1.33838,2.36875 0.81086,0.82987 1.5781,1.4447 1.70497,1.36629 0.12688,-0.0784 0.3743,-0.0249 0.54982,0.11898 0.76241,0.62484 5.726413,2.46539 8.584103,3.1828 1.71167,0.42971 4.48134,0.92418 6.15483,1.09882 1.67349,0.17464 3.10224,0.38008 3.175,0.45654 0.25002,0.26273 11.24659,-0.17722 14.02292,-0.56103 z m -12.5298,-5.25302 c -0.31109,-2.13215 -0.48761,-6.71257 -0.65937,-17.10895 L 115.16576,98.758484 113.04,98.074202 c -2.96771,-0.955299 -5.29899,-2.291415 -6.43888,-3.690273 -1.74611,-2.142828 -1.79361,-2.176618 -2.60926,-1.85615 -1.27218,0.499841 -7.322723,0.583229 -10.782133,0.148601 -1.90823,-0.239747 -3.34339,-0.305877 -3.60458,-0.166095 -0.6139,0.328554 -1.03102,3.474969 -1.02539,7.734715 0.009,7.00029 1.37872,11.92243 4.78315,17.19162 1.54892,2.39732 5.24398,5.43794 8.282773,6.8158 3.03255,1.37502 8.15583,2.6021 12.46175,2.98471 0.58208,0.0517 1.28237,0.11406 1.55619,0.13852 0.43911,0.0392 0.4785,-0.0882 0.3338,-1.08 z m 6.80713,0.85589 c 3.80071,-0.31489 8.67295,-1.27333 12.07267,-2.37487 3.43167,-1.1119 3.44276,-1.12096 2.49679,-2.04089 -1.7634,-1.71486 -3.21839,-4.04689 -5.03456,-8.0693 -0.85969,-1.90402 -0.9914,-2.45763 -0.99436,-4.1794 -0.003,-1.62717 0.12174,-2.22808 0.69139,-3.33604 1.77873,-3.45963 7.08384,-6.22948 11.17116,-5.83258 0.8753,0.085 1.82133,0.18834 2.10229,0.22967 0.81184,0.1194 0.93572,-1.03355 0.26177,-2.436213 -0.31522,-0.656056 -0.84104,-1.817905 -1.16847,-2.581889 -0.32744,-0.763984 -0.65874,-1.389062 -0.73622,-1.389062 -0.0775,0 -0.50931,0.280476 -0.95961,0.623281 -3.2364,2.463824 -8.74761,3.466888 -13.10494,2.385158 -1.9118,-0.474612 -3.95952,-1.413296 -4.4977,-2.061758 -0.50914,-0.613476 -0.95699,-0.52306 -2.68146,0.541341 -0.85441,0.527372 -2.4797,1.216144 -3.61176,1.530606 l -2.05828,0.571749 -0.081,11.235537 c -0.0724,10.04264 0.17055,16.45587 0.6537,17.25481 0.1596,0.2639 1.68178,0.24441 5.47861,-0.0701 z m 24.11121,-6.48539 c 0.7276,-0.20821 1.91823,-0.83193 2.64583,-1.38604 1.53683,-1.17039 1.99528,-2.39063 2.06109,-5.48602 0.0346,-1.62648 -0.0724,-2.07666 -0.87856,-3.69564 -1.06029,-2.12944 -3.36724,-4.63383 -4.90038,-5.31976 -0.72934,-0.32631 -1.73239,-0.47019 -3.32317,-0.47668 -2.06206,-0.008 -2.45041,0.0753 -4.08787,0.88145 -3.00877,1.48121 -4.82898,4.25825 -3.82291,5.8325 0.21799,0.34112 0.43356,0.29639 1.53426,-0.31834 1.48282,-0.82814 3.43275,-1.33066 3.97841,-1.0253 0.27851,0.15587 0.178,0.26086 -0.38336,0.40045 -1.14342,0.28433 -2.78618,1.4123 -3.61421,2.48162 -0.58571,0.75639 -0.70061,1.11571 -0.56061,1.75312 0.38203,1.73942 1.46327,2.51909 2.22335,1.60324 0.18116,-0.21828 0.55996,-0.39687 0.84177,-0.39687 0.28181,0 0.44929,-0.1021 0.37216,-0.22688 -0.12796,-0.20704 2.16988,-1.09604 2.83299,-1.09604 0.15509,0 -0.34017,0.4642 -1.10059,1.03154 -1.924,1.4355 -2.41716,2.07416 -2.41716,3.13034 0,0.6484 0.21975,1.12566 0.77304,1.67895 0.8573,0.8573 1.34733,0.81445 1.99531,-0.1745 0.60006,-0.91581 1.6653,-0.8661 1.8933,0.0884 0.36883,1.54396 0.79023,1.62107 3.93731,0.7205 z m 8.53293,-6.09726 c 0.5782,-1.61994 0.31863,-4.6734 -0.56051,-6.5937 -0.3966,-0.86629 -0.90579,-1.77917 -1.13153,-2.02861 -0.22574,-0.24944 -0.35187,-0.55032 -0.28028,-0.66863 0.20235,-0.33442 -3.49707,-2.99324 -4.16471,-2.99324 -0.32675,0 -0.80757,0.2359 -1.06849,0.52421 -0.51613,0.57031 -0.40419,0.8505 0.79475,1.98933 1.06163,1.00841 2.73067,3.44676 3.39921,4.96601 0.60786,1.38135 0.88502,2.51408 1.36356,5.5728 0.15067,0.96303 0.18662,0.99521 0.71782,0.64251 0.30756,-0.20421 0.72614,-0.83902 0.93018,-1.41068 z m 5.75457,-0.24198 c 1.30969,-0.46049 3.27261,-1.31445 4.36206,-1.8977 1.9076,-1.02125 1.98826,-1.10363 2.18215,-2.22903 0.46057,-2.67329 -1.00665,-6.39259 -3.63379,-9.21143 -1.90762,-2.046812 -4.39399,-3.731118 -5.50788,-3.731118 -1.22139,0 -3.04419,1.1517 -5.71686,3.612078 l -1.19332,1.09854 1.34635,1.21049 c 1.50972,1.35737 3.37099,4.24829 3.97171,6.16886 0.22691,0.72545 0.40362,2.32079 0.41149,3.71487 l 0.0138,2.44338 0.69152,-0.17085 c 0.38034,-0.094 1.76309,-0.54761 3.07277,-1.00809 z m 10.35821,-7.60679 c 0.86004,-1.36239 1.10509,-3.63751 0.53472,-4.96457 -0.66773,-1.55361 -1.96891,-3.133393 -3.02424,-3.67178 -1.22137,-0.623099 -3.16826,-0.941718 -4.27241,-0.699207 -0.90471,0.198708 -1.0936,0.808321 -0.32595,1.051962 0.57756,0.183314 1.73868,1.416461 3.03348,3.221675 0.79988,1.11519 1.33668,2.2884 2.61554,5.71638 0.32267,0.86492 0.54298,0.76471 1.43886,-0.65446 z M 85.275197,103.2769 c -0.1051,-0.47294 -0.19557,-0.97896 -0.20103,-1.12448 -0.0351,-0.93336 0.43192,-5.637254 0.73443,-7.397984 0.19903,-1.158478 0.30865,-2.159556 0.24359,-2.224617 -0.0651,-0.06506 -0.009,-0.250129 0.12485,-0.411268 0.13374,-0.161137 0.30266,-0.767403 0.37538,-1.347261 0.18452,-1.471234 0.78049,-3.271541 1.43697,-4.340804 0.55622,-0.905965 0.43439,-1.872853 -0.23599,-1.872853 -0.59991,0 -3.50166,-2.670628 -5.60588,-5.159375 -0.36912,-0.436562 -0.76709,-0.697979 -0.8844,-0.580927 -0.1173,0.117054 -0.0846,0.295648 0.0726,0.396875 0.41916,0.269827 2.06939,3.624236 2.75,5.589915 0.57207,1.652209 0.57558,1.72701 0.12047,2.572084 -0.2578,0.478713 -0.57089,0.807251 -0.69574,0.730083 -0.12486,-0.07717 -0.22702,-0.04245 -0.22702,0.07715 0,0.119602 -0.24976,0.334989 -0.55502,0.478636 -0.50347,0.236922 -0.56024,0.508395 -0.61125,2.922897 -0.0423,2.001748 -0.16709,2.819988 -0.50331,3.300018 -0.2459,0.351063 -0.44709,0.849929 -0.44709,1.108594 0,0.258662 -0.11906,0.470294 -0.26458,0.470294 -0.14552,0 -0.26458,0.127566 -0.26458,0.283483 0,0.391615 -0.69379,1.051202 -0.89455,0.850445 -0.0901,-0.09008 -0.16379,0.03465 -0.16379,0.277182 0,0.242536 -0.11906,0.440973 -0.26458,0.440973 -0.14552,0 -0.26458,0.127567 -0.26458,0.283483 0,0.370425 -0.53389,0.888399 -1.1605,1.1259 -0.48899,0.185343 -0.48899,0.200496 0,0.752837 0.70869,0.8005 2.76057,2.07111 3.34458,2.07111 0.27114,0 0.4194,0.11906 0.32946,0.26458 -0.13969,0.22603 0.48636,0.39099 0.75309,0.19844 0.0504,-0.0364 0.2809,0.0909 0.51224,0.28294 0.42473,0.35249 1.60312,0.77689 2.27347,0.8188 0.275,0.0172 0.31716,-0.18716 0.17272,-0.83716 z m 64.522583,-4.330247 c 0.54502,0.136792 0.69424,0.07488 0.71074,-0.294918 0.0131,-0.293441 0.0719,-0.340918 0.1577,-0.127259 0.14472,0.360518 1.93808,-1.333257 1.93808,-1.830465 0,-0.143748 0.0989,-0.200268 0.21966,-0.1256 0.12082,0.07467 1.06157,-0.43494 2.09056,-1.132467 1.72109,-1.166685 2.01067,-1.272751 3.61679,-1.324747 1.18042,-0.03821 1.74591,0.04287 1.74591,0.250348 0,0.168778 0.17478,0.2398 0.3884,0.157824 0.21362,-0.08197 0.45177,-0.0465 0.52923,0.07882 0.0774,0.125326 0.76588,0.168183 1.52983,0.09524 0.76395,-0.07295 1.6561,-0.133797 1.98256,-0.135229 0.32646,-0.0013 0.53422,-0.09861 0.46169,-0.215963 -0.17568,-0.284261 2.51604,-0.01077 3.13459,0.318487 0.673,0.358238 0.88943,0.04106 0.44782,-0.656273 -0.20316,-0.320804 -0.5348,-0.910701 -0.73697,-1.310883 -0.43275,-0.856607 -1.08711,-0.922679 -3.4163,-0.344948 -0.8485,0.21046 -1.92238,0.437047 -2.38641,0.503529 -0.46402,0.06648 -0.94027,0.179472 -1.05833,0.251092 -0.11806,0.07162 -1.08885,0.213683 -2.1573,0.315693 -1.06846,0.10201 -2.25908,0.273732 -2.64583,0.3816 -0.38676,0.107871 -1.56639,0.185706 -2.62142,0.172966 -1.05503,-0.01273 -1.91823,0.0554 -1.91823,0.151411 0,0.169449 -1.60513,-0.190397 -3.9026,-0.874908 -0.61847,-0.184264 -1.12448,-0.429493 -1.12448,-0.54495 0,-0.115458 -0.23813,-0.209923 -0.52917,-0.209923 -0.29104,0 -0.52917,0.109027 -0.52917,0.242282 0,0.469429 1.93084,4.520218 2.1546,4.520218 0.12466,0 0.22665,0.297656 0.22665,0.661458 0,0.363803 0.11907,0.661459 0.26459,0.661459 0.14552,0 0.25048,0.0893 0.23325,0.198437 -0.0798,0.505378 0.0613,0.693023 0.27157,0.361064 0.15366,-0.242642 0.46532,-0.308012 0.92199,-0.193397 z m -74.632073,-1.16786 c 2.89026,-1.493473 4.24566,-3.554513 4.21871,-6.415072 -0.0165,-1.755253 -0.39708,-2.308172 -1.58862,-2.308172 -0.34321,0 -0.986,-0.187187 -1.42842,-0.41597 l -0.8044,-0.415972 -1.62986,1.559234 c -1.93839,1.854396 -4.31273,3.295163 -6.57462,3.989525 -0.90569,0.27803 -1.68437,0.618511 -1.73041,0.756624 -0.21459,0.643779 2.83657,3.139437 4.5038,3.683822 1.45459,0.474957 3.63924,0.286592 5.03382,-0.434019 z m 60.372973,-1.327238 c 2.96393,-0.42637 6.33947,-1.840026 7.07534,-2.963113 0.38217,-0.583266 0.33516,-0.851734 -0.70914,-4.050136 -0.61513,-1.884005 -1.321,-3.814418 -1.5686,-4.289803 -0.51181,-0.982702 -0.60373,-0.962356 -2.80871,0.621765 -1.64036,1.178484 -5.11285,2.819287 -8.33889,3.940257 -2.55717,0.88855 -2.65085,0.949137 -2.79546,1.807919 -0.0823,0.488707 -0.40942,1.30891 -0.72694,1.822672 l -0.57731,0.934112 1.6695,0.821896 c 1.89961,0.935173 3.3465,1.286029 6.53125,1.583756 0.21828,0.0204 1.23031,-0.08279 2.24896,-0.229325 z m -15.67219,-0.920501 c 1.05197,-0.367535 2.32965,-1.002318 2.8393,-1.410626 0.96628,-0.774139 2.09317,-2.531335 1.80691,-2.817587 -0.091,-0.09097 -0.68343,-0.01953 -1.31659,0.158792 -2.68133,0.755115 -10.48657,0.24058 -14.41106,-0.950002 -1.30638,-0.39632 -2.48283,-0.517107 -2.48283,-0.254916 0,0.385929 1.12941,2.285011 1.65387,2.780953 0.3273,0.309499 1.1904,0.869501 1.918,1.24445 4.01545,2.069232 6.68832,2.40331 9.9924,1.248936 z m 39.18779,-4.244125 c 3.12548,-0.549514 7.78178,-1.73541 8.29907,-2.113664 0.40575,-0.296693 0.33252,-0.498568 -0.79709,-2.197357 -1.44565,-2.174052 -4.49379,-5.49485 -5.26974,-5.741129 -2.85373,-0.905738 -6.79539,0.507626 -9.94638,3.566495 -2.47969,2.407187 -4.6384,5.292204 -4.28159,5.722136 0.2475,0.29822 2.51001,0.987457 4.22283,1.286423 1.05175,0.183575 5.42982,-0.110948 7.7729,-0.522904 z m -92.174973,0.04359 c 2.70947,-0.655426 4.54696,-1.68651 6.74687,-3.785912 1.94206,-1.853335 2.78292,-4.784889 2.24149,-7.814678 -0.36541,-2.044742 -1.12145,-3.361562 -2.97006,-5.173048 l -1.43053,-1.401799 -1.74204,1.708083 c -2.70136,2.648696 -6.36854,4.498533 -9.56785,4.826312 l -1.67014,0.171112 0.5291,1.488627 c 1.28497,3.61528 5.20171,10.352439 6.01107,10.33961 0.21828,-0.0035 1.05172,-0.164698 1.85209,-0.358307 z m 37.257823,-0.574543 c 0.19943,-0.06291 0.31258,-0.39434 0.26458,-0.775009 -0.0716,-0.567412 -0.53075,-0.870479 -3.12657,-2.063486 -1.673493,-0.769114 -4.040023,-2.077841 -5.258943,-2.908283 -1.21893,-0.830443 -2.31162,-1.509895 -2.4282,-1.509895 -0.39477,0 -1.31576,1.399725 -2.56267,3.894769 -1.38782,2.777003 -1.38301,2.798453 0.70243,3.130685 3.10877,0.49526 11.100263,0.644162 12.409373,0.231219 z m 41.32342,-1.3814 c 0,-0.353295 2.04152,-2.422638 2.21698,-2.247188 0.0904,0.09035 0.16427,-0.01966 0.16427,-0.244488 0,-0.626086 3.25969,-4.006487 4.937,-5.119822 1.94975,-1.294167 3.68793,-1.94096 6.41134,-2.385722 2.0945,-0.342053 2.64488,-0.511963 2.38795,-0.737192 -0.27608,-0.242007 -5.02029,-2.259246 -6.29808,-2.677943 -1.78128,-0.583674 -4.22648,-0.435288 -5.76554,0.349882 -1.26767,0.646716 -6.69933,6.030163 -6.70063,6.641142 -0.001,0.67682 2.16992,6.631474 2.41816,6.631474 0.1257,0 0.22855,-0.09457 0.22855,-0.210143 z m -22.88646,-1.549744 c 4.26497,-0.798486 9.58171,-2.915557 14.13802,-5.62961 4.32449,-2.57597 10.00161,-7.863549 13.34942,-12.433445 3.28471,-4.483775 5.65984,-9.921115 6.65464,-15.234348 0.50382,-2.690961 0.42743,-9.145854 -0.12566,-10.616834 -0.27222,-0.72399 -2.55827,-3.004423 -3.6348,-3.625877 -0.29667,-0.171257 -0.31193,-0.302723 -0.0691,-0.595312 0.4072,-0.490641 0.75773,-0.474091 1.35213,0.06383 0.26701,0.241642 0.54156,0.383265 0.61011,0.314717 0.28566,-0.285666 -1.27043,-4.52878 -2.64037,-7.199699 -5.19154,-10.121797 -14.19334,-17.200163 -25.47549,-20.032102 -3.0774,-0.772459 -7.53306,-1.456295 -7.9239,-1.216125 -0.11206,0.06886 -0.14421,1.764622 -0.0714,3.768362 l 0.13229,3.643159 4.56915,2.269805 c 3.20435,1.59182 4.545,2.388351 4.48832,2.666679 -0.12271,0.602536 -0.77368,0.391653 -4.95949,-1.606624 -2.11173,-1.008128 -3.94678,-1.832959 -4.07789,-1.832959 -0.20563,0 -0.034,22.708258 0.1731,22.896909 0.0393,0.03578 1.32155,-0.05231 2.84952,-0.195739 1.52796,-0.143436 6.58812,-0.20487 11.24479,-0.136523 8.26026,0.12124 12.35279,0.455859 16.26184,1.329619 1.34524,0.300691 1.45911,0.386784 1.64684,1.245111 0.11091,0.507142 0.28356,2.339808 0.38366,4.072588 l 0.182,3.150507 -0.9028,-0.182107 c -2.68006,-0.540605 -7.0364,-0.77774 -14.26425,-0.77647 -6.42505,0.0011 -9.11821,0.115863 -13.21376,0.56293 -4.73191,0.516535 -5.33594,0.531159 -7.54062,0.182568 -7.51446,-1.188136 -19.238313,-1.190639 -28.254443,-0.006 -1.62274,0.213209 -3.00551,0.332584 -3.07281,0.265279 -0.27937,-0.279371 0.43067,-7.33893 0.75852,-7.541553 0.56728,-0.350599 5.4828,-1.296765 9.25436,-1.781331 4.24428,-0.545301 19.945553,-0.648356 21.911853,-0.143817 0.93201,0.239146 1.16817,0.225004 1.28402,-0.07689 0.19702,-0.513424 -0.006,-22.782423 -0.20974,-22.985922 -0.0907,-0.09068 -1.40271,0.414592 -2.91557,1.122815 -1.51285,0.708223 -2.89716,1.238843 -3.07623,1.179153 -0.82738,-0.275794 -0.0861,-0.857298 2.85699,-2.24131 l 3.18256,-1.496607 -0.0737,-3.653359 -0.0737,-3.653361 -2.38125,0.06579 c -2.42542,0.067 -8.22032,1.309486 -9.72067,2.084205 -0.39865,0.205848 -0.75584,0.360198 -0.79375,0.342995 -0.0379,-0.0172 -0.78329,0.289124 -1.65641,0.680728 -0.87313,0.391602 -1.73062,0.736828 -1.90554,0.76717 -0.17492,0.03034 -0.53211,0.243028 -0.79375,0.472633 -0.261643,0.229605 -0.892433,0.628356 -1.401763,0.886113 -1.05076,0.531768 -4.64374,3.209515 -6.18963,4.61296 -3.00215,2.725505 -3.73618,3.593404 -6.21669,7.350477 -0.69619,1.054478 -1.36382,1.828384 -1.48362,1.719791 -0.1198,-0.108592 -0.1384,-0.0587 -0.0413,0.110885 0.0971,0.169579 -0.13679,0.680622 -0.51967,1.135652 -0.38288,0.455031 -0.62715,0.896332 -0.54281,0.98067 0.0843,0.08434 -0.12392,0.704387 -0.46278,1.377887 -0.68695,1.365305 -1.84101,4.697724 -2.11921,6.119338 l -0.18122,0.926042 1.1454,-1.190625 c 1.15241,-1.197914 3.59073,-3.330622 5.0613,-4.426939 0.60805,-0.453303 0.87589,-0.520912 1.15289,-0.291021 0.19846,0.164706 0.3271,0.384593 0.28587,0.488641 -0.0412,0.104044 -1.26558,1.088583 -2.72079,2.187863 -2.84889,2.152076 -4.30401,3.488094 -5.39316,4.951695 -0.37908,0.509421 -0.7855,0.996662 -0.90315,1.082757 -0.11765,0.0861 -0.18337,0.264689 -0.14603,0.396875 0.0373,0.132186 -0.0922,1.237052 -0.28796,2.455259 -0.22618,1.407843 -0.29541,3.066193 -0.19001,4.551122 0.75021,10.569003 6.61478,21.401502 15.05166,27.802031 4.41802,3.351678 6.349553,4.473768 10.536443,6.120948 7.40539,2.91338 12.06246,3.530052 18.10929,2.397963 z M 109.60951,78.50834 c -1.7869,-0.812845 -1.49816,0.38734 -3.57321,-14.852787 -0.42599,-3.128697 -0.80189,-6.120193 -0.83533,-6.647769 -0.1049,-1.655104 1.05515,-2.282441 3.62653,-1.961168 1.079,0.13481 1.55465,0.331472 1.8321,0.757491 0.45682,0.701418 1.07089,6.377011 2.01693,18.641414 0.32567,4.221969 0.23791,4.560019 -1.18119,4.550055 -0.45512,-0.0032 -1.30375,-0.222454 -1.88583,-0.487236 z m 12.18134,0.136573 c -0.43825,-0.320455 -0.47178,-0.634542 -0.33193,-3.108854 0.18757,-3.318462 0.81461,-9.749406 1.49038,-15.285508 0.61583,-5.045103 0.72601,-5.209214 3.46592,-5.162682 1.08847,0.01849 2.01279,0.173469 2.26046,0.379024 0.47412,0.39348 0.42909,1.100725 -0.41183,6.468869 -0.5611,3.581895 -1.73363,11.951231 -1.98311,14.155208 -0.19539,1.726099 -0.49406,2.183968 -1.69561,2.599435 -1.1855,0.409914 -2.19392,0.393499 -2.79428,-0.04549 z M 99.423047,74.446198 c -0.65484,-0.332303 -1.3286,-0.901843 -1.49724,-1.265645 -0.40642,-0.876752 -2.99424,-16.377644 -2.81303,-16.849875 0.37938,-0.988634 3.00985,-1.481854 4.43646,-0.831847 0.757023,0.344918 0.851843,0.605583 1.186623,3.261931 0.12838,1.018646 0.60269,4.650052 1.05402,8.069791 0.45133,3.41974 0.78804,6.634427 0.74824,7.14375 -0.0665,0.851445 -0.14695,0.932085 -0.9984,1.001062 -0.56863,0.04607 -1.38558,-0.158171 -2.116673,-0.529167 z m 32.861253,0.268938 c -0.47727,-0.477268 -0.41212,-1.489985 0.66037,-10.265833 1.16253,-9.512601 1.05707,-9.260416 3.8725,-9.260416 1.21885,0 1.79655,0.117039 2.04291,0.413877 0.50644,0.610227 0.34527,2.507176 -0.70669,8.317373 -0.51376,2.837656 -1.05017,5.87375 -1.19202,6.746874 -0.45577,2.805343 -0.75854,3.510304 -1.69941,3.956775 -1.02744,0.487553 -2.5352,0.533808 -2.97766,0.09135 z M 89.554037,66.35977 c -0.57902,-0.639804 -1.23855,-3.214623 -1.43138,-5.588092 -0.13886,-1.709253 -0.097,-2.003171 0.32957,-2.315104 0.63786,-0.466413 1.57473,-0.455171 2.05456,0.02466 0.35991,0.359908 1.30916,5.459487 1.32456,7.115807 0.0113,1.214684 -1.43111,1.697784 -2.27731,0.762733 z M 143.976,66.571315 c -0.83624,-0.337894 -0.88828,-0.745693 -0.47748,-3.741687 0.63232,-4.611526 0.80421,-4.994931 2.23942,-4.994931 1.32519,0 1.67392,0.889985 1.31583,3.358166 -0.44012,3.033726 -0.98679,4.759793 -1.65589,5.228455 -0.65737,0.460438 -0.65437,0.460121 -1.42188,0.149997 z M 80.836077,86.658574 c 0.70557,-0.246687 0.85989,-0.439505 0.85989,-1.074383 0,-1.070756 -1.87433,-4.677458 -2.98356,-5.741167 l -0.91571,-0.878128 -0.12618,2.862503 c -0.0798,1.811424 -0.28626,3.237148 -0.56215,3.8828 -0.23978,0.561162 -0.36078,1.141952 -0.26888,1.290642 0.19724,0.319157 2.72361,0.102796 3.99659,-0.342267 z m 9.71166,-3.828833 0.71249,-0.934122 -1.34285,-1.207331 c -0.76967,-0.692004 -1.26814,-1.337916 -1.16783,-1.513274 0.0963,-0.168267 0.0781,-0.218223 -0.0403,-0.111011 -0.11842,0.107212 -0.58782,-0.0353 -1.04313,-0.316695 -0.82526,-0.510038 -3.28998,-1.191403 -3.51083,-0.970556 -0.44132,0.441325 4.62129,5.931321 5.51291,5.978308 0.0919,0.0048 0.48766,-0.411551 0.87953,-0.925319 z M 54.746077,78.25178 c 0.72398,-0.810265 0.99299,-2.13791 1.10755,-5.465924 l 0.0455,-1.320715 -1.13315,-0.360751 c -1.3958,-0.444368 -2.87616,-0.217202 -3.09588,0.475078 -0.0868,0.27347 -0.20571,0.953942 -0.26425,1.512162 -0.0585,0.558218 -0.12819,1.044707 -0.15476,1.081087 -0.0266,0.03638 -0.065,0.155443 -0.0854,0.264584 -0.0204,0.10914 -0.12406,0.335018 -0.2303,0.501949 -0.10625,0.166931 -0.21928,0.903226 -0.25117,1.636217 -0.0428,0.983975 0.07,1.4741 0.43103,1.873062 0.26896,0.297196 0.58394,0.48169 0.69995,0.409988 0.11602,-0.0717 0.27184,-0.03183 0.34628,0.0886 0.31367,0.507537 1.88843,0.08389 2.58467,-0.695341 z m 8.19078,-0.946206 c 1.70241,-0.519824 3.76105,-1.600697 4.82064,-2.53103 0.49376,-0.433522 0.99349,-0.701633 1.11052,-0.595805 0.11704,0.105828 0.13698,0.0595 0.0443,-0.102952 -0.0927,-0.162454 0.0662,-0.507724 0.35297,-0.767267 0.66686,-0.603499 1.06384,-2.035165 0.8186,-2.95216 -0.23843,-0.891514 -0.72377,-1.081424 -0.94912,-0.371388 -0.29272,0.922282 -2.57527,3.071468 -4.37215,4.116694 -2.02021,1.175139 -5.01826,2.253864 -6.26405,2.253864 -0.93517,0 -1.05754,0.231664 -0.58688,1.111096 0.26632,0.497615 0.45193,0.531908 2.05052,0.378839 0.96674,-0.09257 2.30532,-0.335518 2.97463,-0.539891 z m -2.54731,-3.122175 c 2.54857,-0.801254 5.62937,-2.918106 6.48309,-4.454602 0.55076,-0.991253 0.6714,-1.616689 0.75933,-3.936828 0.16939,-4.469756 -0.64937,-6.705163 -2.78233,-7.596372 -1.94587,-0.813033 -5.01418,-0.14438 -6.70105,1.460309 -1.76092,1.67512 -1.23425,2.676708 1.4075,2.676708 0.60995,0 1.49408,0.11044 1.96473,0.245419 0.63052,0.180833 0.90859,0.155864 1.05658,-0.09487 0.23165,-0.392435 2.14516,-1.072573 2.37394,-0.84379 0.0843,0.08429 -0.32186,0.668684 -0.90255,1.298659 -0.58069,0.629973 -1.26646,1.733738 -1.52393,2.452807 -0.91981,2.568853 -1.99897,4.536265 -3.31004,6.034497 -1.04617,1.195517 -1.33135,1.716463 -1.33135,2.432047 0,1.08154 0.0728,1.091015 2.50608,0.326016 z m -3.12664,-5.37255 c 0.85368,-0.352578 2.0162,-2.008743 2.34306,-3.337999 0.16235,-0.660249 0.0983,-0.713351 -1.23867,-1.027692 -1.98548,-0.466799 -2.7273,-0.901118 -3.40101,-1.991204 -0.58216,-0.941945 -0.58293,-0.957905 -0.0928,-1.924642 0.27181,-0.536154 0.71994,-1.314556 0.99585,-1.729785 0.61478,-0.925251 0.29992,-1.222198 -1.29315,-1.219552 -1.99281,0.0033 -4.36562,1.642938 -4.36562,3.016657 0,0.438238 -0.0467,0.437481 3.0427,0.04943 0.14552,-0.01828 0.26459,0.145359 0.26459,0.36364 0,0.218282 0.17859,0.477803 0.39687,0.576715 0.26927,0.122018 0.17837,0.185822 -0.2827,0.198438 -1.22357,0.03348 -3.30895,0.790358 -3.8653,1.402879 -0.65547,0.721659 -0.94875,1.817886 -0.72493,2.709645 0.15353,0.611711 0.20988,0.63137 0.86493,0.301715 0.38539,-0.193945 1.0579,-0.431207 1.49446,-0.527246 l 0.79375,-0.174617 -1.10233,0.997381 c -1.25063,1.131565 -1.60324,1.958179 -1.06494,2.496482 0.46706,0.467061 6.00182,0.329181 7.23525,-0.18024 z m 3.90899,-13.856038 c 0.0796,-0.12873 0.68537,-0.31514 1.34624,-0.414245 0.91991,-0.137948 1.46995,-0.441002 2.34631,-1.292725 1.06013,-1.030332 2.01486,-2.468226 2.01486,-3.034548 0,-0.299903 -2.59818,-0.155988 -4.00037,0.221583 -0.57792,0.155617 -1.78949,0.258903 -2.69239,0.229518 -2.46354,-0.08017 -3.50207,-1.027755 -1.1345,-1.035158 0.59421,-0.0019 2.02308,-0.304411 3.17527,-0.672346 1.66313,-0.531096 2.39929,-0.635042 3.57187,-0.504362 2.99017,0.333248 3.49734,0.292748 3.90174,-0.311584 0.35798,-0.534961 0.31558,-0.596085 -0.78188,-1.127358 -0.63821,-0.308954 -1.62613,-0.583604 -2.19538,-0.610341 -1.34851,-0.06333 -3.3681,0.291595 -3.57633,0.628513 -0.25014,0.404736 -0.41891,0.330274 -1.86981,-0.824952 -0.98653,-0.785485 -1.60253,-1.077852 -2.30414,-1.093597 l -0.95763,-0.02148 0.78866,-0.347442 0.78865,-0.347441 1.10573,-6.44409 c 1.59919,-9.319985 5.27846,-28.9431799 6.8884,-36.738884 1.19685,-5.7954701 1.27558,-6.2895503 0.94855,-5.9531247 -0.14145,0.1455208 -0.76258,0.919427 -1.38028,1.7197916 -0.61771,0.8003645 -1.54069,1.9103815 -2.05108,2.46670501 -1.02274,1.1147901 -0.86417,0.5102013 -3.7595,14.33433609 -0.73147,3.492499 -1.56168,7.421562 -1.8449,8.731249 -0.28322,1.309688 -1.13401,5.298281 -1.89063,8.863541 -0.75662,3.565261 -1.7042,7.841808 -2.10572,9.503442 l -0.73005,3.02115 0.6447,0.644694 c 0.4441,0.4441 0.84559,0.606293 1.29036,0.521271 0.87017,-0.166346 0.82248,0.278228 -0.0661,0.616064 -0.5801,0.220557 -0.84728,0.170408 -1.44449,-0.271132 -0.40301,-0.297957 -0.85918,-0.541739 -1.01371,-0.541739 -0.15454,0 -0.41244,-0.288542 -0.57312,-0.641202 -0.23311,-0.511604 -0.56619,-0.67868 -1.64798,-0.826627 -0.7457,-0.101981 -1.63051,-0.289333 -1.96625,-0.41633 -0.3701,-0.139996 -0.5507,-0.134252 -0.45871,0.01461 0.0834,0.135028 0.0307,0.320289 -0.11717,0.411692 -0.14789,0.0914 -0.2689,0.397287 -0.2689,0.679741 0,0.282453 -0.12325,0.513551 -0.27389,0.513551 -0.18471,0 -0.18068,0.174162 0.0124,0.534916 0.2401,0.448627 0.46568,0.511198 1.39838,0.387884 0.99338,-0.131339 1.22506,-0.04867 2.17042,0.774391 0.84691,0.737346 0.99226,0.98757 0.72761,1.252532 -0.25724,0.257529 -0.40129,0.260553 -0.64823,0.0136 -0.48375,-0.483745 -1.97606,-0.398481 -2.1767,0.124368 -0.0933,0.243027 -0.0516,0.51476 0.0925,0.60385 0.14415,0.08909 0.43634,0.57486 0.64932,1.079487 0.34846,0.82563 0.34298,0.967621 -0.0547,1.418003 -0.42321,0.479303 -0.41762,0.485579 0.13191,0.148211 0.47389,-0.290936 0.64669,-0.291822 0.99218,-0.0051 0.54835,0.455083 0.53108,0.986787 -0.0425,1.307756 -0.65628,0.367271 -0.19401,0.699431 0.52442,0.376822 0.50596,-0.227197 0.82231,-0.101417 2.0582,0.818333 0.80319,0.597736 1.69616,1.228621 1.98437,1.401963 0.60936,0.36649 4.26017,0.458079 4.47391,0.112236 z m 3.18141,-9.068834 c 0.37065,-0.168878 0.68308,-0.436769 0.69429,-0.595312 0.0863,-1.221452 0.31741,-3.063603 0.66673,-5.315342 0.54895,-3.538606 1.37235,-9.008895 1.5532,-10.318749 0.0804,-0.582083 0.25902,-1.713177 0.397,-2.513542 0.13798,-0.800364 0.554,-3.419739 0.92449,-5.820833 0.37049,-2.401093 1.09939,-6.984999 1.61978,-10.186457 1.55937,-9.5933366 1.49921,-8.7220875 0.76337,-11.05396879 -0.35721,-1.13197481 -0.72549,-2.53359961 -0.81842,-3.11471981 -0.0929,-0.5811176 -0.2594,-1.1124777 -0.36994,-1.1807957 -0.21002,-0.1297993 -1.01209,3.88046361 -3.04352,15.2171923 -0.66494,3.710781 -1.38148,7.639843 -1.59232,8.731249 -0.43176,2.234975 -0.37551,1.908657 -1.30647,7.579275 -0.66477,4.049207 -1.81781,10.523588 -2.69999,15.160606 l -0.42514,2.234673 0.88866,0.741889 c 0.95985,0.80132 1.69029,0.91689 2.74828,0.434835 z M 108.22003,9.8479722 c 4.10332,-1.2976066 6.56499,-1.6040999 11.05373,-1.3762461 2.04256,0.103685 3.97792,0.2358734 4.30079,0.2937563 0.32288,0.05788 0.74142,0.0091 0.9301,-0.1083998 0.49715,-0.3096048 -0.42291,-1.8541496 -1.22809,-2.0616438 -0.46587,-0.1200547 -0.53179,-0.2160852 -0.26459,-0.3854291 0.19573,-0.1240472 0.23681,-0.236474 0.0913,-0.2498354 -0.86843,-0.079743 -1.31008,-0.2630461 -1.51469,-0.6286553 -0.12727,-0.2274173 -0.49932,-0.4134855 -0.82679,-0.4134855 -0.32747,0 -0.72071,-0.125312 -0.87387,-0.2784713 -0.15315,-0.1531594 -0.56392,-0.3101075 -0.91281,-0.3487737 -0.34889,-0.038664 -0.88501,-0.2059834 -1.19139,-0.371819 -0.63495,-0.3436805 -4.60335,-0.2135531 -4.8462,0.1589141 -0.15863,0.2433002 -2.08725,0.7090356 -2.51,0.6061339 -0.13219,-0.032176 -0.32724,0.082111 -0.43346,0.2539682 -0.10621,0.1718575 -0.77196,0.6250993 -1.47945,1.0071999 -0.70749,0.3821033 -1.28634,0.8181737 -1.28634,0.9690444 0,0.1508707 -0.40495,0.6361324 -0.89989,1.0783622 -0.71309,0.6371458 -0.86613,0.9385697 -0.73725,1.452073 0.19778,0.7879898 1.01568,0.9134658 2.62891,0.403307 z m 4.15918,-8.89418 c 0.44104,-0.23603739 0.48327,-0.63341249 0.45687,-4.299479 -0.0252,-3.5034641 0.0484,-4.2749229 0.55499,-5.8145201 0.32124,-0.9763121 0.58407,-1.9055791 0.58407,-2.0650361 0,-0.308512 0.85039,-2.160121 1.39373,-3.034649 2.52607,-4.065822 4.62342,-6.020665 8.26448,-7.702936 3.49941,-1.616829 9.75516,-2.205762 10.63739,-1.001432 0.23011,0.314111 0.54491,0.391171 1.12448,0.275257 0.48167,-0.09633 0.80492,-0.05111 0.80492,0.112601 0,0.150472 0.11083,0.205084 0.2463,0.121362 0.13546,-0.08373 0.32108,-0.03122 0.41249,0.116676 0.0914,0.147894 0.39309,0.268899 0.67043,0.268899 0.27733,0 0.63168,0.238125 0.78744,0.529166 0.15576,0.291042 0.4797,0.529167 0.71986,0.529167 0.53379,0 1.66139,1.018969 1.66139,1.501328 0,0.192915 0.11084,0.32099 0.24632,0.284609 0.42873,-0.115133 1.5588,1.643806 1.41337,2.199908 -0.10013,0.382902 -0.0313,0.479761 0.26127,0.367506 0.27158,-0.104217 0.48427,0.09727 0.67243,0.637026 0.3474,0.996556 0.87694,1.259666 2.69828,1.340679 0.80036,0.0356 1.57427,0.159101 1.71979,0.274447 0.5804,0.460041 3.55911,1.315153 5.60614,1.609386 3.93735,0.565936 9.73951,-0.427289 13.19022,-2.257928 0.96404,-0.511434 1.84331,-0.929878 1.95394,-0.929878 0.48997,0 4.11659,-3.424764 5.46855,-5.164179 1.61157,-2.073416 3.30947,-5.94832 2.60643,-5.94832 -0.0806,0 -0.76524,0.340659 -1.52135,0.757017 -3.85011,2.120075 -8.96699,3.02378 -13.70862,2.42111 -3.76229,-0.478192 -8.67903,-1.923045 -8.91088,-2.618581 -0.0541,-0.16223 -0.27838,-0.294963 -0.49845,-0.294963 -0.22007,0 -0.75086,-0.249746 -1.17954,-0.55499 -0.60075,-0.42777 -0.71234,-0.635812 -0.4868,-0.907566 0.31785,-0.382987 0.36842,-0.37802 2.90432,0.28524 2.90125,0.758817 7.76604,0.07913 8.14357,-1.137788 0.0564,-0.181901 -0.0838,-0.330729 -0.31152,-0.330729 -1.35344,0 -7.7179,-3.812376 -10.47789,-6.276367 -0.87874,-0.784504 -1.67706,-1.39678 -1.82642,-1.400776 -0.0869,-0.0023 -0.55757,-0.356482 -1.04599,-0.787017 -1.34839,-1.188583 -6.5083,-3.605099 -8.99706,-4.213551 -5.02723,-1.229053 -10.43261,-1.285769 -14.25849,-0.149607 l -1.3887,0.412402 v 1.33006 c 0,1.497964 -0.29187,2.20799 -1.08131,2.630486 -0.73149,0.39148 -1.2367,-0.05687 -1.45998,-1.295653 -0.0957,-0.531081 -0.22469,-1.054462 -0.2866,-1.163069 -0.27858,-0.488741 -4.87908,2.521957 -6.74336,4.413046 -2.68971,2.728405 -5.34064,7.090783 -6.52245,10.733379 -1.24664,3.842414 -1.35931,4.607155 -1.36769,9.283279 -0.007,3.925136 0.40314,6.6767761 1.45727,9.7760492 0.36206,1.0644902 0.65829,2.1857811 0.65829,2.4917532 0,0.3059747 0.23812,0.7602034 0.52916,1.0094012 0.29104,0.2491978 0.52917,0.6923775 0.52917,0.9848426 0,0.2924678 0.11104,0.5317569 0.24675,0.5317569 0.13572,0 0.31922,0.22830631 0.40778,0.50734911 0.49295,1.55313057 1.82944,2.26234619 3.04121,1.61382599 z m 3.54821,-0.59982099 c 0.49674,-1.96540961 1.45722,-4.38181991 2.07632,-5.22366321 0.42113,-0.5726482 1.06336,-1.6010201 1.42718,-2.2852696 0.61315,-1.1531783 3.66843,-4.5957544 4.07872,-4.5957544 0.0996,0 0.59572,-0.391072 1.10252,-0.869048 0.5068,-0.477977 2.06919,-1.400712 3.47197,-2.05052 2.55856,-1.185201 2.92573,-1.569159 1.76303,-1.843635 l -0.6252,-0.14759 0.74664,-0.587312 c 0.57326,-0.450924 1.09166,-0.585808 2.23232,-0.580842 2.65604,0.01156 4.7803,0.675762 7.35994,2.301256 1.53329,0.96616 1.93094,1.060415 1.93094,0.457689 0,-0.61237 -1.60716,-3.000626 -2.93303,-4.358505 -1.77673,-1.819632 -3.61948,-2.455015 -7.38572,-2.546617 -1.67349,-0.0407 -3.51181,0.05132 -4.08515,0.204502 -1.54365,0.412406 -4.67683,1.924206 -5.48064,2.644478 -0.38623,0.346099 -0.93404,0.807863 -1.21734,1.026145 -1.34733,1.038108 -2.18145,1.8441 -2.18145,2.107887 0,0.159483 -0.17859,0.358503 -0.39688,0.442264 -0.21828,0.08376 -0.39687,0.305909 -0.39687,0.493657 0,0.187749 -0.31969,0.705689 -0.71043,1.150978 -0.39073,0.445288 -0.73558,0.963546 -0.76634,1.151686 -0.0307,0.188137 -0.29601,0.996913 -0.58945,1.797277 -1.05718,2.8834663 -1.43191,7.2176692 -0.86666,10.02413361 0.15788,0.7838466 0.28705,1.4684559 0.28705,1.5213541 0,0.2689357 1.08689,0.04889 1.15853,-0.2345505 z"
       id="path8784" /></g></svg>
