<?xml version="1.0" encoding="UTF-8" standalone="no"?>
<!-- Created with Inkscape (http://www.inkscape.org/) -->

<svg
   width="166.4597mm"
   height="247.96951mm"
   viewBox="0 0 166.45968 247.96933"
   version="1.1"
   id="svg5"
   xml:space="preserve"
   xmlns="http://www.w3.org/2000/svg"
   xmlns:svg="http://www.w3.org/2000/svg"><defs
     id="defs2" /><g
     id="layer1"
     transform="translate(-20.93844,52.26101)"><path
       style="fill:#000000;stroke-width:0.264583"
       d="m 68.601577,195.56588 c -0.99462,-0.1186 -2.00665,-0.30351 -2.24896,-0.41092 -0.24231,-0.1074 -0.50009,-0.21141 -0.57286,-0.23113 -0.95493,-0.25883 -1.39403,-0.55931 -1.59684,-1.09275 -0.13399,-0.35242 -0.38711,-0.61012 -0.56249,-0.57268 -0.17539,0.0374 -0.48976,-0.27519 -0.6986,-0.69475 -0.63912,-1.28398 -0.0909,-2.40033 2.25874,-4.59991 1.12992,-1.05774 2.70347,-2.37148 3.49677,-2.91942 l 1.44237,-0.99625 -0.062,-2.63683 c -0.0341,-1.45026 -0.12773,-3.11995 -0.20801,-3.71043 l -0.14597,-1.0736 -1.50745,0.10904 c -2.94098,0.21273 -4.52855,-1.27265 -5.13325,-4.80284 l -0.28921,-1.68839 -2.00273,-0.20867 c -3.57202,-0.37216 -4.0486,-0.3534 -4.62326,0.18197 -0.916,0.85339 -2.94868,1.28011 -6.09261,1.27905 -2.46738,-7.9e-4 -3.06601,-0.0848 -3.80153,-0.53324 -0.48015,-0.29274 -0.80584,-0.64091 -0.72376,-0.77371 0.0821,-0.1328 -0.0609,-0.30875 -0.31764,-0.391 -0.25677,-0.0822 -1.24077,-0.86465 -2.18665,-1.73867 -1.52996,-1.41372 -1.84168,-1.58915 -2.82397,-1.5893 -0.79355,-1.2e-4 -1.32654,0.18693 -1.89458,0.66491 -1.33131,1.12022 -2.48342,1.45159 -5.04692,1.45159 -1.30577,0 -2.44772,-0.11907 -2.53765,-0.26459 -0.0899,-0.14552 -0.39052,-0.26458 -0.66796,-0.26458 -0.99617,0 -2.96159,-2.56913 -3.28121,-4.28908 -0.0619,-0.33314 -0.14,-0.66524 -0.17355,-0.738 -0.13606,-0.29509 -0.26309,-1.79037 -0.2467,-2.90368 0.0179,-1.21404 1.71322,-5.02609 2.71206,-6.09822 0.2567,-0.27554 0.46673,-0.54554 0.46673,-0.6 0,-0.23041 3.52091,-5.35488 3.73444,-5.43525 0.12887,-0.0485 0.23431,-0.18785 0.23431,-0.30964 0,-0.20303 2.82405,-4.45717 3.16089,-4.76155 0.0805,-0.0728 0.37717,-0.58556 0.65921,-1.13956 0.28205,-0.55401 0.78501,-1.30098 1.11769,-1.65995 0.33268,-0.35897 0.62035,-0.73913 0.63927,-0.84481 0.11143,-0.62223 2.53986,-4.32902 2.9574,-4.51421 0.11005,-0.0488 0.13279,-0.19764 0.0505,-0.33073 -0.0822,-0.13309 -0.0235,-0.24199 0.13064,-0.24199 0.15411,0 0.2802,-0.17009 0.2802,-0.37797 0,-0.20789 0.15052,-0.53531 0.33448,-0.72761 0.18397,-0.19229 0.73811,-1.12353 1.23142,-2.06942 1.55803,-2.98736 2.38206,-4.01307 3.82165,-4.75698 0.70769,-0.36569 0.84215,-0.344 2.05067,0.33073 1.69175,0.94455 2.95746,0.95184 3.81921,0.022 0.9586,-1.03435 0.81123,-1.6959 -0.48782,-2.1898 -0.40095,-0.15244 -0.80858,-0.48731 -0.90585,-0.74416 -0.0973,-0.25684 -0.33235,-0.62432 -0.52239,-0.81662 -0.73651,-0.74523 -0.0736,-3.22224 0.86237,-3.22224 0.19432,0 0.47466,-0.20836 0.62299,-0.46302 0.14832,-0.25466 0.2733,-0.35634 0.27773,-0.22595 0.004,0.13039 0.29098,-0.0482 0.6368,-0.39687 0.34582,-0.34867 1.81909,-1.40374 3.27394,-2.34459 2.27707,-1.47258 2.60563,-1.77396 2.36099,-2.1657 -0.1563,-0.25028 -0.38073,-0.39539 -0.49874,-0.32245 -0.118,0.0729 -0.58364,-0.23648 -1.03474,-0.68758 -0.78617,-0.78618 -0.81236,-0.8829 -0.63167,-2.33253 0.10368,-0.83179 0.30566,-1.58519 0.44883,-1.67422 0.14318,-0.089 0.22814,-0.2081 0.18879,-0.26458 -0.16397,-0.23542 0.55181,-1.82251 0.82194,-1.82251 0.16168,0 0.22571,-0.11044 0.14228,-0.24542 -0.0834,-0.13499 0.50487,-0.95457 1.3073,-1.8213 0.80245,-0.86673 1.45899,-1.63976 1.45899,-1.71785 0,-0.0781 -0.77391,-0.71021 -1.71979,-1.40473 -0.94589,-0.69451 -1.71979,-1.35886 -1.71979,-1.47631 0,-0.11745 -0.72415,-0.21355 -1.60921,-0.21355 -1.04147,0 -2.30547,-0.240331 -3.58275,-0.681181 -2.26905,-0.78317 -5.69654,-2.42056 -5.98264,-2.85804 -0.10691,-0.16348 -0.19621,-0.20223 -0.19844,-0.0861 -0.006,0.33114 -2.41595,-1.37055 -3.4573,-2.44159 -0.70776,-0.72794 -1.08718,-1.48628 -1.53711,-3.0722 -0.32857,-1.15813 -0.62342,-2.28429 -0.65523,-2.50257 -0.0318,-0.21828 -0.1508,-0.5457 -0.26444,-0.7276 -0.11364,-0.18191 -0.13303,-0.4498 -0.0431,-0.59532 0.0899,-0.14552 0.062,-0.26458 -0.0621,-0.26458 -0.12412,0 -0.69119,-1.90386 -1.26016,-4.230804 l -1.03449,-4.230803 -1.79923,-0.687528 c -0.98959,-0.37814 -1.73866,-0.785543 -1.66462,-0.905343 0.074,-0.119801 -0.065,-0.188529 -0.30887,-0.152729 -0.70872,0.104019 -2.75063,-1.170278 -4.24479,-2.649042 -0.75815,-0.750345 -1.43495,-1.307764 -1.504,-1.238713 -0.22882,0.228814 -3.52098,-4.455837 -4.48791,-6.386182 -1.81299,-3.619341 -3.29212,-9.205372 -3.80191,-14.358169 -0.11264,-1.138534 -0.20228,-4.332248 -0.19921,-7.097143 0.005,-4.280048 0.0806,-5.231495 0.51043,-6.402642 1.31453,-3.58173 4.34164,-4.845084 7.49583,-3.128356 0.75948,0.413356 1.38086,0.897342 1.38086,1.075523 0,0.178181 0.23813,0.386236 0.52917,0.462346 0.47342,0.123802 0.70152,0.801849 0.54557,1.621769 -0.0255,0.133773 0.12688,0.09953 0.3385,-0.07611 0.31193,-0.258871 0.48444,-0.192614 0.91124,0.349975 0.94391,1.199986 3.18909,2.525615 4.27756,2.525615 1.6255,0 2.72549,-0.932302 3.13218,-2.654686 0.57561,-2.437842 1.91311,-6.76116 2.61657,-8.457814 0.0905,-0.218281 0.19591,-0.548031 0.23423,-0.732779 0.14549,-0.701418 3.56709,-7.469304 3.77621,-7.469304 0.12063,0 0.21933,-0.160117 0.21933,-0.355819 0,-0.762892 4.56461,-7.593012 7.18875,-10.75668 2.83517,-3.4180861 9.30361,-9.92863505 9.30361,-9.3641861 0,0.0794 0.29036,-0.200705 0.64524,-0.62246095 0.35489,-0.421759 1.15856,-1.115169 1.78594,-1.54091 0.62738,-0.42574305 1.20022,-0.83787405 1.27298,-0.91584405 0.40365,-0.432554 3.07839,-2.224693 5.0786,-3.402775 1.26526,-0.745212 2.36506,-1.459431 2.444,-1.587153 0.12735,-0.206065 -0.69602,-3.1003237 -0.94283,-3.3141573 -0.0536,-0.046448 -1.39986,-0.7059216 -2.99166,-1.4654976 -2.35096,-1.121831 -3.20498,-1.696466 -4.55004,-3.061528 -0.91071,-0.924264 -1.90028,-2.164043 -2.19904,-2.755067 -1.31973,-2.610791 -1.54704,-3.155225 -1.99521,-4.778753 -0.61742,-2.236687 -0.62521,-5.96928 -0.0168,-8.062052 0.65214,-2.243304 2.1984,-5.052901 3.66345,-6.65662 2.57305,-2.816584 6.57333,-4.841843 9.63714,-4.87909 1.63327,-0.01985 2.48479,-0.241345 2.51122,-0.653192 0.0263,-0.409697 1.10153,-1.435326 1.50998,-1.440307 0.20615,-0.0025 0.29519,-0.08421 0.19786,-0.181537 -0.19714,-0.197135 0.57061,-1.145951 0.92725,-1.145951 0.12502,0 0.55305,-0.350925 0.95119,-0.779834 0.39812,-0.428909 1.09512,-0.994456 1.54887,-1.256771 3.57304,-2.065578 4.24912,-2.43442 4.59896,-2.508997 0.21828,-0.04653 0.46712,-0.179867 0.55297,-0.296297 0.0858,-0.116431 0.41327,-0.231065 0.72761,-0.254742 0.31432,-0.02368 0.5715,-0.136776 0.5715,-0.251329 0,-0.114554 0.0893,-0.189053 0.19844,-0.165554 0.10914,0.0235 0.50422,-0.08439 0.87795,-0.239752 0.37374,-0.155363 1.86202,-0.551651 3.30729,-0.88064 3.33828,-0.759896 11.537923,-0.938233 15.327783,-0.333369 2.57929,0.411656 5.19458,1.12743 5.45354,1.492572 0.089,0.125534 0.20809,0.196404 0.26458,0.157489 0.0565,-0.03891 0.37109,-5.82e-4 0.69912,0.08521 0.43452,0.11363 0.55342,0.288286 0.43806,0.643468 -0.11396,0.350862 -0.0885,0.390254 0.0907,0.140541 0.20005,-0.278702 0.49126,-0.229287 1.48017,0.25116 0.67711,0.328968 1.23112,0.693462 1.23112,0.809986 0,0.116523 0.12409,0.211861 0.27575,0.211861 0.15166,0 0.46873,0.148828 0.70459,0.330729 0.52264,0.403075 3.49904,3.392019 4.04015,4.05718 0.89077,1.094994 3.71076,6.345212 3.71076,6.908663 0,0.335323 0.12388,0.609677 0.27529,0.609677 0.15142,0 0.61916,0.254225 1.03943,0.564944 0.42027,0.310718 1.24597,0.599262 1.83489,0.641209 0.91275,0.06501 1.16933,-0.04087 1.7387,-0.717534 0.59043,-0.701688 0.66794,-1.035544 0.66794,-2.877022 0,-1.530624 0.10029,-2.139344 0.37808,-2.294804 0.20794,-0.116371 0.39844,-0.330647 0.42333,-0.476168 0.0249,-0.145521 0.16126,-0.231868 0.30305,-0.191882 0.14178,0.03999 0.18084,-0.05181 0.0868,-0.203982 -0.27039,-0.437502 1.70038,-1.13163 2.73585,-0.963596 2.03448,0.330151 3.55698,1.916042 4.89427,5.098046 1.4653,3.486605 1.82278,9.220449 0.85562,13.723913 -0.50147,2.335072 -1.79652,5.423958 -2.27404,5.423958 -0.14256,0 -0.2592,0.229545 -0.2592,0.510099 0,0.699894 -2.85254,3.689138 -5.47931,5.741886 -2.24548,1.754791 -2.4698,2.112756 -2.88082,4.5971459 -0.15154,0.916003 -0.13227,0.93848 1.58759,1.852083 0.95754,0.508656 1.74199,1.021152 1.74322,1.138881 0.001,0.117729 0.1213,0.140467 0.26682,0.05053 0.14552,-0.08994 0.26458,-0.03743 0.26458,0.116676 0,0.154109 0.14883,0.283247 0.33073,0.286972 0.55901,0.01146 5.30691,3.21634905 8.00365,5.402582 2.27347,1.843098 3.41079,2.934468 7.47447,7.17251 0.18191,0.189707 0.33073,0.39233 0.33073,0.450279 0,0.05795 0.53579,0.688932 1.19063,1.4021931 0.65484,0.713262 1.19062,1.40484 1.19062,1.536846 0,0.132006 0.29766,0.515869 0.66146,0.85303 0.3638,0.337161 0.66146,0.856829 0.66146,1.154819 0,0.297989 0.16174,0.5418 0.35942,0.5418 0.3095,0 2.28641,2.636872 2.28641,3.049701 0,0.08108 0.2485,0.410337 0.55221,0.731674 0.30372,0.321339 0.79384,1.0605 1.08916,1.642583 0.29533,0.582084 0.69014,1.236927 0.87737,1.455208 0.52455,0.611553 4.3732,8.277508 4.22838,8.422328 -0.0704,0.07037 0.005,0.287726 0.16674,0.483015 0.16208,0.195292 0.206,0.355074 0.0976,0.355074 -0.1084,0 -0.0721,0.150545 0.0806,0.334547 0.35264,0.424899 1.70556,4.439068 2.43601,7.227752 0.54716,2.088917 0.5874,2.151602 1.74083,2.711979 0.64939,0.315502 1.51141,0.573638 1.91559,0.573638 1.06121,0 2.80341,-1.215813 5.06079,-3.531722 1.08534,-1.113491 2.07611,-2.024528 2.20171,-2.024528 0.12559,0 0.39671,-0.168357 0.60247,-0.374123 0.62005,-0.620049 2.9267,-0.996379 4.12665,-0.673264 1.4652,0.394536 2.91173,1.970627 3.48878,3.801268 0.25728,0.816168 0.39159,1.607209 0.29848,1.757871 -0.0931,0.150659 -0.0439,0.425058 0.10943,0.609772 0.18358,0.22121 0.24551,2.362094 0.18141,6.272262 -0.0883,5.387922 -0.17124,6.282954 -0.8975,9.686948 -0.44011,2.06279 -0.94834,4.027321 -1.12939,4.365625 -0.18106,0.338304 -0.31428,0.674629 -0.29605,0.74739 0.15965,0.637132 -2.23573,5.870429 -3.12285,6.822643 -0.28878,0.30996 -0.52504,0.697556 -0.52504,0.861322 0,0.163767 -1.16086,1.45605 -2.57969,2.871737 -2.67834,2.672413 -4.48463,3.875439 -7.79227,5.189823 -2.00273,0.795843 -1.71571,0.290859 -3.23157,5.685731 -2.36614,8.42098 -3.62229,11.37708 -4.83452,11.37708 -0.19105,0 -0.34737,0.0999 -0.34737,0.22204 0,0.25071 -3.64615,2.59761 -3.85369,2.48049 -0.0737,-0.0416 -0.30806,0.0985 -0.52084,0.31129 -0.74623,0.74623 -4.64645,2.04658 -6.57963,2.19369 -1.98755,0.151241 -2.84781,0.552691 -5.12572,2.391981 l -1.13093,0.91317 0.67043,0.52736 c 0.36873,0.29004 0.60357,0.63552 0.52187,0.76772 -0.0817,0.1322 0.0203,0.17557 0.22666,0.0964 0.23983,-0.092 0.73985,0.36256 1.38572,1.2598 2.04251,2.83746 2.54113,5.58007 1.28574,7.07203 -0.37674,0.44773 -0.84597,0.81405 -1.04272,0.81405 -0.99078,0 -0.39547,0.65233 2.19088,2.4007 4.01491,2.71408 4.88295,3.42572 4.71439,3.86499 -0.0794,0.20701 -0.0353,0.30893 0.0981,0.2265 0.37336,-0.23075 0.58794,0.77004 0.31658,1.47651 -0.13314,0.34664 -0.73148,1.18431 -1.32965,1.86148 -0.59817,0.67718 -1.08381,1.33202 -1.07922,1.45521 0.0167,0.44785 1.28701,1.66219 1.89961,1.81595 0.41856,0.10505 0.85953,-0.024 1.32022,-0.38639 0.81848,-0.64382 1.65561,-0.68753 2.93436,-0.15324 0.9583,0.40041 1.35896,0.9785 3.39577,4.89961 0.491,0.94524 0.96005,1.77868 1.04234,1.85209 0.32851,0.29306 2.89309,4.72429 2.89309,4.99885 0,0.16169 0.092,0.29399 0.20442,0.29399 0.11243,0 0.43871,0.44648 0.72507,0.99218 0.28636,0.54571 0.64086,1.07967 0.78777,1.18658 0.17592,0.12802 0.17679,0.19715 0.003,0.20249 -0.15134,0.005 -0.13858,0.0913 0.0298,0.20249 0.34063,0.22492 3.99494,5.84972 3.99391,6.14751 -2.6e-4,0.0728 0.25261,0.42994 0.56192,0.79375 0.97873,1.15115 3.93966,5.41614 5.1908,7.47693 1.51621,2.49761 1.99741,3.85705 1.99741,5.64328 0,1.44095 -0.89662,4.34229 -1.34192,4.34229 -0.13507,0 -0.24558,0.16625 -0.24558,0.36946 0,0.66764 -1.82567,1.98933 -3.36673,2.43732 -0.83176,0.2418 -2.23021,0.52837 -3.10767,0.63683 -1.34385,0.1661 -1.73097,0.11535 -2.45528,-0.32187 -0.47295,-0.28549 -0.8599,-0.68568 -0.8599,-0.88932 0,-0.40113 -0.4149,-0.54077 -2.64583,-0.89049 -1.72727,-0.27076 -2.16327,-0.0867 -2.75652,1.16344 -0.51839,1.09243 -3.18275,2.94984 -4.61748,3.219 -0.51037,0.0957 -2.92847,0.10313 -5.37357,0.0164 -3.53935,-0.12553 -4.6764,-0.25976 -5.57765,-0.65842 -1.04167,-0.46078 -2.82747,-2.03598 -2.83728,-2.50267 -0.009,-0.41925 -1.08837,-1.25677 -1.61998,-1.25677 -0.42291,0 -0.51415,0.11176 -0.37797,0.46302 0.4427,1.14198 0.93545,3.44048 0.93545,4.36357 0,3.47046 -3.23648,5.93182 -6.55019,4.98146 l -0.85815,-0.24611 -0.003,2.95809 c -0.002,1.62695 -0.0701,3.37481 -0.15221,3.88414 -0.13873,0.86047 -0.073,0.97261 0.92895,1.58381 0.59304,0.36178 1.07826,0.74873 1.07826,0.8599 0,0.11116 0.17268,0.20212 0.38373,0.20212 0.21105,0 0.47894,0.15168 0.59531,0.33708 0.11637,0.18539 0.50924,0.52996 0.87304,0.76569 1.84401,1.19488 3.70417,3.5229 3.70417,4.63583 0,0.86386 -0.7197,2.1989 -1.18539,2.1989 -0.20793,0 -0.66364,0.28558 -1.01269,0.63463 -1.15976,1.15976 -2.94655,1.34974 -12.69438,1.34974 -6.28603,0 -8.99537,-0.0876 -9.12813,-0.29507 -0.10383,-0.16228 -0.46978,-0.38283 -0.81322,-0.49009 -0.80522,-0.25148 -1.88911,-1.19463 -1.88911,-1.6438 0,-0.19204 -0.0971,-0.34916 -0.21589,-0.34916 -0.11875,0 -0.49302,-0.68461 -0.83171,-1.52135 -0.65296,-1.61314 -3.74295,-7.94453 -5.06826,-10.3849 -1.06043,-1.95261 -0.91841,-2.90497 0.67219,-4.50739 0.44968,-0.45303 0.46771,-0.59124 0.15373,-1.17793 -0.19565,-0.36557 -0.49962,-0.66468 -0.67549,-0.66468 -0.17588,0 -0.47503,-0.18707 -0.6648,-0.41572 -0.30116,-0.36288 -1.23865,-0.40493 -7.37458,-0.33073 -6.537823,0.079 -7.079993,0.12201 -7.750513,0.61416 -0.96693,0.7097 -1.16995,1.39446 -0.55982,1.88814 0.3751,0.3035 0.40557,0.42753 0.13261,0.53967 -0.24717,0.10156 -0.16711,0.2385 0.26458,0.45259 0.98213,0.48707 0.97166,2.0836 -0.0254,3.87836 -1.22778,2.20998 -3.72118,7.33402 -3.72118,7.64717 0,0.15315 -0.13891,0.27844 -0.30868,0.27844 -0.16977,0 -0.23889,0.0698 -0.15359,0.1551 0.16662,0.16662 -1.28806,3.57839 -1.62361,3.80796 -0.11092,0.0759 -0.27649,0.34097 -0.36792,0.58905 -0.18603,0.50473 -2.15111,1.60271 -2.40823,1.34559 -0.0908,-0.0908 -0.16505,-0.046 -0.16505,0.0995 0,0.14552 -0.14883,0.29885 -0.33073,0.34074 -0.83402,0.19207 -16.14174,0.19419 -17.74954,0.002 z m 11.31836,-4.39699 2.04918,-0.17322 -0.16189,-0.80948 c -0.37917,-1.89582 -3.56439,-4.52618 -5.86237,-4.84116 -1.61362,-0.22117 -4.53444,1.23053 -6.49255,3.2269 -0.78297,0.79828 -1.42359,1.53121 -1.42359,1.62874 0,0.79351 7.10971,1.37241 11.89122,0.96822 z m 57.495763,-0.36414 c 0.76398,-0.191 1.38213,-0.47565 1.37366,-0.63256 -0.0178,-0.32957 -3.581,-3.19612 -5.1428,-4.13731 -2.27927,-1.37355 -5.01835,-0.6316 -7.07889,1.9175 -1.65082,2.04224 -1.93064,3.01 -0.92593,3.20226 1.3267,0.25388 10.44249,-0.017 11.77396,-0.34989 z m -17.44268,-4.43644 c 0.61836,-0.56743 -0.20141,-4.19957 -1.26315,-5.5966 l -0.49287,-0.64853 -1.07107,0.74225 c -0.95638,0.66277 -1.05532,0.83138 -0.92396,1.57457 0.15317,0.86662 0.79757,2.74591 1.5434,4.50106 l 0.43467,1.02292 0.69927,-0.62604 c 0.38461,-0.34432 0.86777,-0.78065 1.07371,-0.96963 z m -30.669543,0.25873 c 0.28365,-0.556 0.77948,-1.82731 1.10185,-2.82513 l 0.58611,-1.81423 -0.71215,-0.61256 c -0.69931,-0.60152 -1.91502,-1.06405 -2.15802,-0.82104 -0.21996,0.21996 -1.42815,4.55276 -1.43387,5.14212 -0.005,0.53946 1.33906,1.94174 1.86145,1.94174 0.1314,0 0.47099,-0.4549 0.75463,-1.0109 z m -3.91037,-3.85434 c 0.40023,-1.27506 0.6647,-2.48246 0.5877,-2.68312 -0.41889,-1.0916 -4.8638,-2.33482 -8.42709,-2.35702 -3.61907,-0.0225 -3.57187,-0.0532 -3.57187,2.32228 v 1.95851 l 1.65364,0.17787 c 1.49864,0.16119 2.82425,0.45964 3.90261,0.87862 0.21828,0.0848 0.46013,0.14397 0.53746,0.13148 0.0773,-0.0125 1.02982,0.43434 2.11666,0.99296 1.08685,0.55863 2.08794,0.98892 2.22464,0.9562 0.13671,-0.0327 0.57602,-1.10272 0.97625,-2.37778 z m 44.283533,-0.29581 2.91041,-0.58739 0.0791,-1.7959 c 0.0435,-0.98775 -0.0364,-1.91142 -0.17755,-2.0526 -0.14118,-0.14118 -1.30789,-0.31404 -2.59269,-0.38412 -2.62087,-0.14298 -4.88856,0.27654 -7.32911,1.35586 -1.38786,0.61378 -1.48917,0.71976 -1.48917,1.55777 0,0.74279 0.40117,2.21625 1.18748,4.36143 0.0878,0.23956 0.7549,0.0187 2.31224,-0.76548 1.5548,-0.78291 3.03186,-1.27232 5.09924,-1.68957 z m -36.804843,-3.37561 c 0.21229,-0.33656 0.1265,-0.59411 -0.37797,-1.13467 -1.06329,-1.13932 -6.12643,-3.40253 -9.7575,-4.36157 -2.91445,-0.76976 -3.37601,-0.82894 -4.10104,-0.52581 -0.44934,0.18787 -1.53136,0.57666 -2.40448,0.86398 -0.87313,0.28733 -1.7661,0.59583 -1.98438,0.68555 -0.21828,0.0897 1.15094,0.23661 3.04271,0.3264 2.33709,0.11093 3.99083,0.33685 5.15937,0.70482 3.01262,0.94866 5.89785,2.08006 7.80521,3.06069 1.9859,1.02101 2.19495,1.0514 2.61808,0.38061 z m 23.500423,-0.30871 c 2.1234,-1.15939 6.67785,-2.86355 9.21735,-3.4489 1.08372,-0.24979 3.12821,-0.46617 4.5433,-0.48083 1.4151,-0.0147 2.53338,-0.0662 2.48508,-0.11448 -0.0483,-0.0483 -0.95515,-0.32817 -2.01522,-0.62193 -1.06007,-0.29377 -2.17509,-0.7076 -2.47781,-0.91963 -0.81889,-0.57358 -2.04791,-0.47423 -5.16565,0.41758 -4.08546,1.16861 -9.28992,3.87001 -9.28992,4.82198 0,0.25934 0.75983,1.25409 0.95794,1.25409 0.0452,0 0.83041,-0.40855 1.74493,-0.90788 z M 92.689997,172.0722 c 0.61235,-0.90575 1.05118,-1.80886 0.97519,-2.00692 -0.076,-0.19806 -0.66632,-0.56179 -1.31181,-0.80831 -0.64549,-0.24651 -1.17362,-0.53758 -1.17362,-0.64681 0,-0.52698 0.45582,-0.46246 1.90651,0.26984 l 1.57825,0.7967 2.42481,-1.18656 c 2.941593,-1.43945 3.725653,-1.69673 5.824233,-1.91122 2.5464,-0.26026 6.73464,1.04921 8.65995,2.70757 0.60972,0.52517 1.05468,0.45206 2.748,-0.45154 0.84186,-0.44925 1.70795,-0.73936 1.94065,-0.65007 0.32905,0.12627 0.25269,0.24819 -0.35188,0.56185 -0.65788,0.34131 -2.4477,1.38195 -2.72612,1.58502 -0.12303,0.0897 1.82158,3.11446 2.12947,3.31225 0.13807,0.0887 1.40217,-0.24933 2.8091,-0.75117 1.40694,-0.50185 3.06198,-0.96352 3.67788,-1.02594 0.61588,-0.0624 1.44279,-0.23629 1.83756,-0.38638 0.70156,-0.26673 0.65328,-0.31512 -2.13769,-2.14265 -2.48904,-1.62982 -2.93367,-1.83413 -3.46482,-1.59212 -0.58847,0.26812 -0.92673,0.17965 -0.92673,-0.2424 0,-0.11146 0.23812,-0.27823 0.52917,-0.3706 0.29104,-0.0924 0.52916,-0.26615 0.52916,-0.38617 0,-0.12002 -0.51868,-1.15379 -1.15264,-2.29728 -0.63395,-1.14348 -1.43575,-2.7781 -1.78177,-3.6325 -0.34603,-0.85439 -0.78544,-1.61342 -0.97647,-1.68672 -0.19103,-0.0733 -2.09791,0.13101 -4.2375,0.45404 -3.62782,0.54773 -3.99479,0.65701 -5.44166,1.62059 -1.532,1.02026 -1.93366,1.14054 -3.45979,1.03606 -0.97565,-0.0668 -4.459693,-1.34094 -5.749603,-2.10268 l -0.9713,-0.57359 -1.51334,0.80756 c -0.83233,0.44416 -1.7872,0.80756 -2.12193,0.80756 -0.7379,0 -1.01927,0.36905 -0.56733,0.74413 0.22982,0.19074 1.0999,0.17692 2.84136,-0.0451 2.98532,-0.38061 4.10149,-0.22462 6.51589,0.91061 1.454563,0.68392 2.130333,0.8482 3.402543,0.82712 1.50314,-0.0249 5.03956,-0.60298 5.99898,-0.98062 0.29295,-0.11531 0.53884,0.005 0.72683,0.35658 0.25535,0.47712 0.13342,0.60212 -1.20492,1.23525 -0.81895,0.38743 -2.37364,0.88482 -3.45487,1.10532 -1.76803,0.36055 -2.13065,0.35926 -3.60344,-0.0129 -0.90067,-0.22756 -2.349743,-0.70467 -3.220153,-1.06025 l -1.58258,-0.64649 -1.49786,0.77955 c -1.88699,0.98208 -2.88548,1.14328 -4.84167,0.78166 -1.13849,-0.21047 -1.65281,-0.2084 -1.91318,0.008 -0.70237,0.58291 -0.38124,1.18684 0.96682,1.81824 1.2806,0.5998 1.69943,1.05833 0.96669,1.05833 -0.19592,0 -0.73729,-0.1901 -1.20303,-0.42245 -0.49913,-0.24899 -1.11697,-0.35463 -1.50481,-0.25729 -0.62834,0.1577 -5.19257,3.42866 -5.34194,3.82831 -0.0394,0.10542 0.85356,0.40092 1.98437,0.65666 1.13081,0.25574 2.88945,0.74923 3.9081,1.09663 2.02333,0.69005 2.77015,0.87972 3.175,0.80634 0.14552,-0.0264 0.76559,-0.78902 1.37794,-1.69478 z m -22.65218,0.76746 c 8.31993,-2.9708 16.11486,-7.59963 16.11486,-9.5694 0,-0.87071 -0.98116,-1.2969 -2.9857,-1.2969 -1.07508,0 -1.43526,0.12518 -1.94607,0.67635 -0.34475,0.372 -0.74535,0.6031 -0.89023,0.51356 -0.14488,-0.0895 -0.26342,-0.0325 -0.26342,0.1267 0,0.40689 -1.06796,-0.16579 -1.63104,-0.87463 -0.35206,-0.44318 -0.80328,-0.57437 -2.24896,-0.65384 l -1.80854,-0.0994 -0.4968,0.93475 c -0.27324,0.51412 -1.18205,1.41544 -2.01958,2.00293 -3.62503,2.54281 -6.49836,7.17074 -5.23591,8.4332 0.46354,0.46353 1.78097,0.38889 3.41139,-0.19329 z m 70.492243,0.0706 c 0.56467,-0.56466 0.38521,-1.53705 -0.68927,-3.7348 -0.86319,-1.76558 -2.18855,-3.17836 -4.34332,-4.62982 -0.7276,-0.49012 -1.61075,-1.32891 -1.96256,-1.86399 -0.59961,-0.91198 -0.7249,-0.97287 -2.00192,-0.97287 -2.47625,0 -6.68631,-1.05025 -6.35553,-1.58546 0.0702,-0.11355 -0.12116,-0.27152 -0.42521,-0.35103 -0.30405,-0.0795 -0.48768,-0.24995 -0.40807,-0.37876 0.0796,-0.1288 -0.087,-0.40123 -0.37026,-0.60538 -0.28324,-0.20415 -0.51499,-0.53888 -0.51499,-0.74383 0,-0.30067 -0.31938,-0.33651 -1.65365,-0.18557 -3.0305,0.34282 -3.48968,0.42086 -3.69723,0.62841 -0.37028,0.37028 0.88041,3.46527 2.03302,5.03099 0.61964,0.84172 1.70895,1.9564 2.42068,2.47705 3.11292,2.27719 14.65504,7.31841 16.81942,7.34616 0.38979,0.005 0.90679,-0.189 1.14889,-0.4311 z m -87.097673,-5.13318 c 0.21045,-0.30046 0.32589,-0.76327 0.25654,-1.02847 -0.0693,-0.26521 0.003,-0.56219 0.16154,-0.65996 0.41405,-0.2559 0.35406,-0.5936 -0.13908,-0.78283 -0.23468,-0.0901 -0.83938,0.0913 -1.34376,0.40303 -0.50438,0.31172 -1.39523,0.57931 -1.97966,0.59463 -0.87925,0.0231 -1.19279,-0.11783 -1.81705,-0.81651 -0.41495,-0.4644 -0.83504,-1.27395 -0.93354,-1.79899 -0.15224,-0.81151 -0.061,-1.10082 0.6086,-1.92993 0.8734,-1.08145 1.35277,-1.28467 3.57701,-1.51637 0.90066,-0.0938 1.5217,-0.28564 1.5222,-0.47017 5.3e-4,-0.17143 -0.26006,-1.19189 -0.57893,-2.2677 -0.39577,-1.33525 -0.72893,-1.99502 -1.0498,-2.07893 -0.53671,-0.14035 -1.36373,-1.44487 -2.13804,-3.37252 -1.28503,-3.19906 -1.97741,-6.74945 -2.32207,-11.90712 -0.30755,-4.6023 -0.35753,-4.97387 -0.68199,-5.06977 -0.21762,-0.0643 -1.95254,2.48074 -6.29665,9.23696 -0.81871,1.2733 -1.61395,2.3151 -1.7672,2.3151 -0.15325,0 -0.22248,0.0909 -0.15384,0.20193 0.0686,0.11106 -1.12575,1.92676 -2.65419,4.03489 -5.08059,7.00753 -6.28645,9.07186 -6.1248,10.48526 0.076,0.66474 0.18232,0.74702 0.88021,0.68134 2.23917,-0.21072 2.36696,-0.19521 2.46522,0.2993 0.0543,0.27305 -0.21664,0.81676 -0.61314,1.23061 -0.39604,0.41339 -0.66748,0.95787 -0.61348,1.23061 0.0853,0.43077 0.36467,0.48796 2.33954,0.47898 2.01864,-0.009 2.35568,-0.0858 3.37368,-0.76707 1.92178,-1.28607 4.70274,-1.17097 5.87642,0.24323 0.18339,0.22096 0.67044,0.40175 1.08233,0.40175 1.11595,0 1.9519,0.47412 2.48892,1.41161 0.98798,1.72475 1.06983,1.76339 3.73485,1.76339 2.18326,0 2.50023,-0.061 2.84016,-0.54628 z m 106.077953,-0.7404 c 0.50787,-0.56215 1.02774,-1.1932 1.15526,-1.40234 0.52503,-0.861 2.02306,-1.59822 3.7764,-1.85846 1.80187,-0.26743 1.8135,-0.27454 2.11953,-1.29598 0.52178,-1.74153 2.22439,-2.14659 3.24132,-0.77112 0.34833,0.47115 0.82777,0.79375 1.17964,0.79375 0.79673,0 1.35374,0.60724 1.68482,1.83678 0.15094,0.56058 0.45799,1.08966 0.68231,1.17574 0.39997,0.15348 1.70306,-0.51562 1.70306,-0.87448 0,-0.1003 -0.35719,-0.74558 -0.79375,-1.43397 -0.94251,-1.48617 -0.96242,-1.65352 -0.24258,-2.03877 0.43553,-0.23308 0.65085,-0.20478 1.02621,0.13492 0.26127,0.23645 0.81691,0.4543 1.23476,0.48411 0.64398,0.046 0.77223,-0.054 0.84176,-0.65582 0.0451,-0.39052 -0.12069,-1.1049 -0.36845,-1.5875 -0.63122,-1.22957 -3.31265,-5.34196 -3.60957,-5.53587 -0.13516,-0.0883 -0.44495,-0.46719 -0.68842,-0.84206 -0.24347,-0.37488 -1.32723,-1.90259 -2.40835,-3.39493 -2.51589,-3.4728 -5.05286,-7.30203 -7.16595,-10.81607 -0.91881,-1.52796 -1.91845,-3.1148 -2.22142,-3.52631 l -0.55086,-0.74818 -0.17323,0.61589 c -0.0953,0.33874 -0.18511,1.34868 -0.19961,2.24431 -0.0388,2.39797 -0.77215,8.69592 -1.24292,10.67471 -0.78513,3.30013 -2.24672,6.44236 -3.28074,7.05317 -0.56622,0.33448 -0.79723,0.75721 -1.04572,1.91359 -0.39553,1.84061 -2.18982,5.55533 -2.98979,6.18974 -1.885,1.4949 -2.69161,2.04142 -3.01296,2.04142 -0.53669,0 -0.43846,0.36368 0.28072,1.03931 0.48866,0.45908 1.13388,0.65849 2.71198,0.83819 1.13892,0.12969 2.60654,0.34257 3.26139,0.47307 0.65484,0.13051 1.86138,0.25033 2.68119,0.26627 1.4096,0.0274 1.54073,-0.0265 2.41397,-0.99311 z M 60.488097,165.9265 c 0,-0.13694 -0.32041,-0.24897 -0.71203,-0.24897 -0.67787,0 -0.68753,0.0179 -0.20136,0.37341 0.51924,0.37968 0.91339,0.32598 0.91339,-0.12444 z m -9.20097,-1.92359 c 0.29063,-0.4569 0.24873,-0.81046 -0.16275,-1.3732 -0.31581,-0.43189 -0.46564,-0.45858 -1.05834,-0.18853 -0.5095,0.23215 -0.69044,0.51254 -0.69044,1.06991 0,0.41543 0.0857,0.84104 0.19047,0.9458 0.2555,0.2555 1.47425,-0.066 1.72106,-0.45398 z m 94.561473,-1.50224 c 2.26653,-0.97186 4.28518,-3.48648 4.73845,-5.90263 0.22619,-1.20571 -0.0449,-1.56851 -1.5259,-2.04182 -0.62054,-0.19833 -1.42059,-0.5453 -1.77787,-0.77106 -0.88429,-0.55877 -5.41514,-2.13055 -6.14155,-2.13055 -0.098,0 -0.25694,0.35823 -0.3531,0.79606 -0.20749,0.94468 -0.55264,0.82855 -0.79324,-0.26689 -0.19773,-0.90026 -0.23589,-0.93326 -1.35688,-1.17346 -0.7391,-0.15838 -0.84657,-0.10223 -1.00385,0.52443 -0.27085,1.07913 0.1257,5.23885 0.46689,4.89765 0.15393,-0.15393 0.36474,-0.27987 0.46846,-0.27987 0.24434,0 -0.003,1.57228 -0.34968,2.21969 -0.14707,0.27495 -0.36795,0.85048 -0.49084,1.27895 -0.42902,1.4959 1.06683,2.94111 3.58881,3.46735 0.9465,0.1975 3.41344,-0.13894 4.5303,-0.61785 z m -78.162303,-0.0969 c 0.66231,-0.32395 1.15601,-0.84214 1.52135,-1.59684 0.65049,-1.34373 0.67757,-1.9602 0.12103,-2.75478 -0.28199,-0.4026 -0.33538,-0.70426 -0.1626,-0.91877 0.35908,-0.44581 0.92464,-4.02361 0.73198,-4.63064 -0.24631,-0.77603 -1.39161,-1.72949 -1.86108,-1.54933 -0.22854,0.0877 -0.67272,0.59534 -0.98705,1.1281 l -0.57151,0.96864 -0.45788,-0.56546 c -0.80321,-0.99192 -3.88171,-0.46672 -4.96952,0.84781 -0.19973,0.24135 -0.50197,0.43881 -0.67167,0.43881 -0.16969,0 -0.78019,0.24105 -1.35666,0.53567 -0.57647,0.29462 -1.49462,0.6564 -2.04032,0.80395 -1.13241,0.30619 -1.17657,0.50287 -0.54944,2.44712 0.75463,2.33955 2.52324,4.10514 5.1135,5.10477 1.30921,0.50525 4.88578,0.35435 6.13987,-0.25905 z m 15.00777,-3.50897 0.84087,-0.16817 -0.15811,-2.91886 c -0.087,-1.60537 -0.20814,-2.99979 -0.26928,-3.09871 -0.19712,-0.31895 -8.28267,-0.57024 -8.83512,-0.27458 -0.79502,0.42548 -1.59475,1.93198 -1.89884,3.57697 -0.23119,1.2506 -0.20832,1.6111 0.13548,2.13581 0.37842,0.57754 0.62196,0.6387 2.86143,0.71858 5.22054,0.18621 6.51177,0.19132 7.32357,0.029 z m 8.24065,-0.66148 c 0.49858,-0.168 1.03889,-0.40818 1.2007,-0.53373 0.18224,-0.1414 0.35799,-1.91411 0.4618,-4.65797 0.0922,-2.43632 0.20881,-4.82127 0.25919,-5.29988 0.0504,-0.4786 0.0212,-0.91159 -0.0649,-0.9622 -0.0861,-0.0506 -1.56572,-0.13528 -3.28809,-0.18815 l -3.13157,-0.0961 -0.001,5.95312 c -7.9e-4,3.27422 0.01,6.05952 0.0227,6.18956 0.0303,0.29808 3.328,0.004 4.54149,-0.40463 z m 43.313253,-0.11139 c 0.75126,-0.5262 0.77814,-1.9126 0.0898,-4.63152 -0.27404,-1.08243 -0.75964,-3.1323 -1.07911,-4.55526 -0.71726,-3.19471 -1.05661,-3.51247 -3.51319,-3.28972 -1.05029,0.0952 -1.74377,0.29826 -1.94124,0.56832 -0.20138,0.27541 -0.30729,1.80901 -0.30743,4.45187 -1.3e-4,2.21745 -0.0829,4.63141 -0.18403,5.36435 -0.28542,2.06943 0.23494,2.34643 4.62011,2.45936 1.1947,0.0308 1.90833,-0.0825 2.3151,-0.3674 z m -31.43858,-0.39897 c 2.76096,-1.25246 4.68913,-4.48265 3.81521,-6.39148 -0.70162,-1.53251 -0.79306,-1.6484 -1.93693,-2.45496 -1.07517,-0.75812 -1.23438,-0.79086 -3.54649,-0.7293 -3.399653,0.0905 -6.030723,0.28228 -6.200383,0.45194 -0.22598,0.22598 -0.33621,1.53864 -0.18438,2.19559 0.12854,0.55614 0.27654,0.59531 2.24922,0.59531 1.93523,0 2.11162,0.0442 2.11162,0.52917 0,0.29104 0.14883,0.4994 0.33073,0.46302 0.19319,-0.0386 0.33073,0.20569 0.33073,0.5875 0,0.93236 -0.971,1.32456 -3.10921,1.25584 -1.03575,-0.0333 -1.80047,0.0538 -1.82005,0.20718 -0.32047,2.51124 -0.0763,2.70293 4.53239,3.55766 1.814553,0.33653 2.154553,0.31 3.427543,-0.26747 z m 8.611,-1.29305 c 9.07052,-1.33555 10.93365,-1.59244 12.03854,-1.65988 l 1.19062,-0.0727 v -4.19569 -4.1957 l -3.70416,0.0361 c -2.03729,0.0199 -5.25198,0.14799 -7.14375,0.2847 -1.89177,0.13671 -4.42185,0.28104 -5.6224,0.32074 -1.20054,0.0397 -2.18281,0.14841 -2.18281,0.24157 0,0.0932 0.43087,0.49803 0.95748,0.8997 2.02455,1.5442 2.53554,4.86247 1.10316,7.16358 -0.35348,0.56786 -0.73062,1.18129 -0.83811,1.36319 -0.25843,0.43736 0.0681,0.42293 4.20143,-0.18567 z m -53.470703,-4.64005 c 2.42598,-0.77383 6.44202,-2.3375 7.85544,-3.05857 1.36777,-0.69779 1.82672,-1.2276 1.82672,-2.10877 0,-0.80791 0.30963,-0.59446 -6.02529,-4.15361 -0.83343,-0.46825 -2.52737,-1.22504 -3.76429,-1.68175 -1.88267,-0.69514 -2.65835,-0.83659 -4.7625,-0.86843 l -2.51355,-0.038 0.0752,1.98437 c 0.14776,3.89685 1.49231,9.13224 2.64013,10.28005 0.74129,0.74129 1.38362,0.69241 4.66809,-0.35525 z m 95.929963,-0.003 c 1.15781,-2.12315 2.38761,-7.52407 2.38761,-10.4857 v -1.55285 h -1.76903 c -3.09885,0 -7.95133,1.6286 -11.23716,3.77143 -0.77748,0.50703 -1.98957,1.25252 -2.69353,1.65664 -1.46544,0.84127 -1.62078,1.09424 -1.25794,2.04856 0.31469,0.82771 1.39956,1.34739 6.50662,3.11685 2.03729,0.70587 4.35901,1.5261 5.15937,1.82273 1.83774,0.68111 2.364,0.61267 2.90406,-0.37766 z m -70.152103,-3.77274 c 0.21551,-0.91083 0.3433,-1.70161 0.284,-1.75729 -0.0593,-0.0557 -1.99035,-0.2421 -4.29122,-0.41427 -4.79558,-0.35885 -5.30973,-0.22696 -5.6229,1.44238 -0.28674,1.52849 -0.12176,1.65416 2.44611,1.86337 1.28321,0.10455 3.10701,0.2809 4.05289,0.3919 2.73902,0.32144 2.68814,0.34623 3.13112,-1.52609 z m -12.53871,-2.11424 c 0.25784,-0.83956 -0.3308,-0.76442 -0.65312,0.0834 -0.14192,0.37327 -0.24833,0.99835 -0.23646,1.38906 l 0.0216,0.71038 0.34259,-0.79375 c 0.18841,-0.43656 0.42485,-1.06164 0.52541,-1.38906 z M 136.30278,145.503 c -0.25687,-0.43864 -0.67302,-0.63379 -0.67302,-0.3156 0,0.0811 0.1458,0.70616 0.324,1.38906 l 0.324,1.24165 0.14808,-0.92605 c 0.0814,-0.50932 0.0261,-1.1344 -0.12306,-1.38906 z m -34.53968,-1.24782 c 2.40109,-0.13649 5.81267,-0.27281 7.58128,-0.30293 3.63398,-0.0619 4.85413,-0.19317 4.85413,-0.52224 0,-0.34546 -4.18876,-2.26423 -5.69328,-2.60795 -0.73021,-0.16682 -3.0702,-0.34189 -5.19999,-0.38904 -3.26934,-0.0724 -4.193533,-1e-5 -5.935003,0.46469 -2.15988,0.57635 -6.25806,2.49673 -6.29897,2.95165 -0.0525,0.58365 4.51425,0.75698 10.691833,0.40582 z m -13.232883,-1.80574 c 0.88652,-0.85842 5.64734,-3.14418 8.37719,-4.02205 l 2.19109,-0.70461 -2.13809,-2.22838 c -2.58295,-2.69201 -5.57857,-6.25141 -6.83898,-8.12606 -0.50932,-0.75754 -1.07869,-1.37756 -1.26527,-1.37785 -0.18657,-2.6e-4 -0.76666,0.17809 -1.28908,0.39637 -0.52242,0.21828 -1.58104,0.39687 -2.35249,0.39687 -1.18735,0 -1.58329,-0.1379 -2.57975,-0.89852 l -1.17713,-0.89852 -0.63865,0.56779 c -0.97467,0.86654 -2.09698,1.60274 -3.26534,2.14196 -0.58208,0.26864 -1.12824,0.59531 -1.21368,0.72594 -0.25461,0.38928 1.37507,8.30287 1.7872,8.67848 0.12113,0.11039 1.0514,0.47243 2.06727,0.80453 2.7437,0.89694 4.10609,1.55642 4.10609,1.9876 0,0.21147 -0.14883,0.38631 -0.33073,0.38854 -0.24764,0.003 -0.24206,0.0603 0.0222,0.22777 0.7771,0.4926 -0.43755,0.50657 -1.9066,0.0219 -1.33391,-0.44006 -3.44758,-0.65969 -4.71878,-0.49031 -0.38033,0.0507 -0.71795,0.45619 -0.85781,1.03031 -0.0177,0.0728 -0.18648,0.41038 -0.37502,0.75027 -0.18853,0.33988 -0.27653,0.68422 -0.19555,0.76521 0.19774,0.19774 10.73455,0.77561 11.4013,0.62529 0.289,-0.0652 0.82478,-0.40831 1.19063,-0.76256 z m 34.928713,0.62071 c 1.41404,-0.12056 5.76068,-0.41724 7.0776,-0.48308 0.42267,-0.0211 0.41894,-0.0539 -0.1212,-1.06596 -0.24856,-0.46571 -0.45692,-0.95447 -0.46302,-1.08611 -0.0336,-0.72457 -2.62494,-0.61461 -5.42328,0.23012 -2.03541,0.61442 -2.27405,0.6377 -2.64583,0.25809 -0.36935,-0.37712 -0.33927,-0.47324 0.31288,-0.9996 0.39684,-0.32029 1.76606,-0.97561 3.04271,-1.45626 1.27665,-0.48064 2.49977,-0.96622 2.71806,-1.07906 0.51798,-0.26775 0.899,-1.44811 1.80914,-5.60453 l 0.74826,-3.41717 -0.81568,-0.60018 c -0.44863,-0.3301 -1.31881,-0.92414 -1.93374,-1.3201 -0.61492,-0.39595 -1.31918,-1.02687 -1.565,-1.40204 l -0.44694,-0.68213 -0.62225,0.79508 c -1.03878,1.32732 -2.32921,1.97527 -3.63966,1.82757 -0.6265,-0.0706 -1.52986,-0.32334 -2.00747,-0.5616 -0.47761,-0.23827 -0.95635,-0.43321 -1.06386,-0.43321 -0.10751,0 -0.9157,0.98227 -1.79598,2.18281 -0.88028,1.20055 -1.81582,2.37092 -2.07898,2.60083 -0.93536,0.81717 -3.38889,3.74069 -3.38889,4.03806 0,0.16624 -0.41671,0.50122 -0.92604,0.7444 -0.50932,0.24317 -1.38272,0.91441 -1.94088,1.49164 l -1.01485,1.04952 1.94089,0.73238 c 1.06749,0.40281 2.47572,1.01243 3.1294,1.35471 0.65369,0.34227 1.58445,0.62232 2.06835,0.62232 0.79108,0 0.86109,-0.0601 0.69405,-0.59532 -0.10218,-0.32742 -0.26531,-0.65484 -0.36252,-0.7276 -0.33755,-0.25265 -1.36463,-2.08969 -1.46777,-2.62526 -0.0571,-0.29623 0.003,-0.60468 0.13383,-0.68543 0.53927,-0.33329 1.29423,0.59842 1.86165,2.29747 0.47256,1.41499 0.86633,2.04839 1.81554,2.92036 1.61124,1.48014 2.86782,2.11706 3.85794,1.95546 0.43656,-0.0712 1.56765,-0.19553 2.51354,-0.27618 z m 19.13473,-1.88217 c 5.80849,-3.0033 10.02046,-4.40022 13.22128,-4.38491 l 1.53242,0.007 -0.077,-2.03498 -0.077,-2.03498 -1.32227,-0.24082 c -1.63214,-0.29725 -4.48377,0.14063 -6.97187,1.07056 -2.73728,1.02307 -8.2601,4.08796 -9.31291,5.16819 -1.3441,1.37911 -2.01098,2.93738 -1.62223,3.79059 0.16513,0.36241 0.40406,0.65893 0.53097,0.65893 0.1269,0 1.9713,-0.89996 4.09867,-1.99991 z M 68.929517,142.328 c 0.72977,-1.95445 -2.6573,-5.12255 -8.26586,-7.73149 -3.42564,-1.5935 -5.40059,-2.08816 -8.28015,-2.0739 -1.32882,0.007 -2.54921,0.0943 -2.71197,0.19487 -0.16836,0.10405 -0.29594,0.91354 -0.29594,1.87776 0,2.03707 0.0832,2.10195 2.99872,2.33708 3.79678,0.3062 7.13099,1.48368 12.61169,4.45383 1.52797,0.82805 2.99033,1.51266 3.24968,1.52135 0.25935,0.009 0.57157,-0.25208 0.69383,-0.5795 z m 66.295693,-1.45228 c 0.30512,-1.64477 1.72135,-3.97516 3.30914,-5.44517 3.75123,-3.47298 6.49814,-5.07929 11.85331,-6.93144 0.54615,-0.18889 -0.94675,-2.24456 -1.63004,-2.2445 -0.30808,3e-5 -1.49336,0.17862 -2.63395,0.39687 -1.34892,0.25813 -3.68409,0.39683 -6.68073,0.39683 -3.73144,0 -4.60693,0.0691 -4.60693,0.36363 0,0.2 -0.65464,2.49195 -1.45476,5.09323 -0.80013,2.60128 -1.45497,5.03857 -1.45521,5.4162 -2.5e-4,0.37763 0.23632,0.90087 0.5257,1.16275 0.28938,0.26188 0.89681,1.05378 1.34984,1.75977 0.45303,0.706 0.91714,1.22587 1.03136,1.15528 0.11422,-0.0706 0.29074,-0.57614 0.39227,-1.12345 z m -62.838343,0.47407 c 0.15164,-0.28335 0.75114,-1.06449 1.33222,-1.73588 0.58108,-0.67138 1.05651,-1.46274 1.05651,-1.75857 0,-0.29582 -0.53086,-2.34241 -1.17968,-4.54797 -0.64883,-2.20555 -1.25936,-4.51611 -1.35674,-5.13458 l -0.17705,-1.12448 h -5.00873 c -2.7548,0 -5.85121,-0.13071 -6.88091,-0.29047 l -1.87218,-0.29048 -0.61638,0.7535 c -0.33901,0.41442 -0.62067,0.88058 -0.6259,1.03591 -0.005,0.15532 0.67509,0.49734 1.51184,0.76004 3.98124,1.24993 8.53935,4.32208 10.81891,7.29192 1.17281,1.52794 2.21182,3.83835 2.21182,4.91833 0,0.76882 0.40653,0.83227 0.78627,0.12273 z m 32.159083,-5.75521 c 2.40123,-1.62771 6.09355,-5.41446 9.27749,-9.51475 1.54581,-1.9907 1.68218,-2.55902 0.82069,-3.4205 -1.14657,-1.14657 -2.04322,-3.17887 -2.21524,-5.02092 -0.10904,-1.16773 -0.27038,-1.70254 -0.5136,-1.70254 -0.19504,0 -1.39821,0.30341 -2.67372,0.67426 -3.2339,0.94024 -5.84271,1.24072 -7.48361,0.86195 -0.72478,-0.1673 -1.31778,-0.40982 -1.31778,-0.53894 0,-0.12911 -0.12063,-0.1602 -0.26806,-0.0691 -0.14743,0.0911 -0.951113,-0.0422 -1.785943,-0.29616 -0.83483,-0.254 -1.57741,-0.47322 -1.65017,-0.48715 -0.0728,-0.014 -0.70907,-0.18991 -1.41402,-0.39107 -1.60939,-0.45922 -1.78887,-0.24278 -1.63031,1.96598 0.1298,1.80805 -0.19395,3.56187 -0.73132,3.96166 -1.31009,0.97469 -1.52097,2.74899 -0.44268,3.72483 0.28279,0.25592 0.51417,0.61553 0.51417,0.79913 0,0.1836 0.0893,0.37351 0.19843,0.42202 0.10915,0.0485 1.32954,1.32969 2.71198,2.84708 3.33092,3.65605 6.801183,6.8984 7.383303,6.8984 0.0917,0 0.6409,-0.32139 1.22039,-0.7142 z M 64.986007,123.75991 c 0,-0.20792 -0.43191,-0.833 -0.95981,-1.38906 -1.26396,-1.33139 -2.21518,-2.85074 -2.21518,-3.53821 0,-0.30433 -0.15933,-0.71265 -0.35406,-0.90738 -0.29568,-0.29568 -0.74279,-0.0917 -2.71198,1.23698 -2.70557,1.8256 -3.46035,2.46674 -3.46035,2.93933 0,0.18452 0.18851,0.35131 0.41892,0.37064 0.23041,0.0193 1.31189,0.30037 2.4033,0.62452 3.59464,1.06762 6.87916,1.38427 6.87916,0.66318 z m 22.10802,-0.79009 c 0.96094,-0.56227 1.82822,-2.57821 2.22931,-5.18187 0.44552,-2.89213 0.37178,-3.57237 -0.42673,-3.93619 -0.3826,-0.17433 -0.72521,-0.28273 -0.76135,-0.2409 -0.0361,0.0418 -0.25393,0.73089 -0.48397,1.53126 -0.28697,0.9984 -0.84486,1.95354 -1.77721,3.0427 -1.75472,2.04986 -1.94286,2.48 -1.72376,3.94105 0.14192,0.94642 0.33295,1.28133 0.89302,1.56567 0.53491,0.27156 0.7784,0.28569 0.97705,0.0567 0.14552,-0.16776 0.62866,-0.51804 1.07364,-0.77841 z m -14.25705,0.49514 c 0.3162,-0.0663 0.93843,-0.42648 1.38272,-0.80033 1.1342,-0.95436 2.18797,-0.809 2.52884,0.34884 0.13923,0.47294 0.39799,0.85989 0.57501,0.85989 0.62994,0 1.91353,-1.34946 2.08307,-2.18996 0.0946,-0.46901 0.81138,-2.22196 1.59283,-3.89545 0.78146,-1.67349 1.5295,-3.66507 1.66232,-4.42573 0.22998,-1.31719 0.209,-1.40429 -0.44076,-1.83003 -0.37522,-0.24586 -0.86449,-0.44104 -1.08726,-0.43373 -0.91555,0.03 -6.16549,-1.97243 -9.86731,-3.76364 -2.42102,-1.17147 -2.63685,-1.22881 -3.43958,-0.91379 -0.47106,0.18486 -0.97553,0.47295 -1.12105,0.64021 -0.14552,0.16726 -0.93899,0.81032 -1.76326,1.42903 -0.82427,0.61871 -1.5608,1.28683 -1.63674,1.48472 -0.0759,0.19789 0.0925,0.96648 0.37419,1.70797 0.3586,0.94375 0.51227,2.01315 0.51227,3.56497 0,2.59409 0.31062,3.1568 2.13666,3.87076 1.02128,0.3993 1.20823,0.6005 1.49901,1.61325 0.20546,0.71558 0.71094,1.51037 1.32483,2.08309 1.00772,0.94013 1.71014,1.06404 3.68421,0.64993 z m 66.006193,-1.25027 c 0.57181,-0.58921 1.01992,-1.31333 1.01992,-1.64812 0,-0.7252 0.39665,-1.07346 1.48813,-1.30659 0.45467,-0.0971 1.10803,-0.47606 1.45191,-0.8421 0.5486,-0.58396 0.64185,-0.99574 0.76083,-3.35971 0.0746,-1.4818 0.2472,-2.86774 0.38361,-3.07986 0.36712,-0.5709 0.42789,-1.65936 0.11377,-2.03784 -0.15128,-0.18228 -0.19642,-0.45865 -0.10032,-0.61415 0.0961,-0.1555 0.0766,-0.25449 -0.0434,-0.21996 -0.40638,0.11694 -1.40873,-0.59503 -1.40873,-1.00063 0,-0.22844 -0.12749,-0.32438 -0.29417,-0.22137 -0.16179,0.1 -0.37015,0.071 -0.46302,-0.0645 -0.0929,-0.13548 -0.61398,-0.58055 -1.15802,-0.98904 l -0.98916,-0.74271 -2.71501,1.20702 c -1.49325,0.66386 -3.84609,1.57755 -5.22854,2.03044 -1.38245,0.45288 -2.88872,0.99438 -3.34728,1.20332 -0.45855,0.20895 -1.00036,0.37991 -1.20402,0.37991 -0.20365,0 -0.70221,0.14883 -1.1079,0.33073 -0.69536,0.31178 -0.73001,0.40653 -0.60471,1.65365 0.16207,1.61316 0.74544,3.37332 1.92889,5.81991 0.49249,1.01814 0.89544,2.04217 0.89544,2.27562 0,0.82071 0.54446,1.97319 1.09444,2.31666 0.50082,0.31276 0.64379,0.25388 1.44431,-0.59483 0.95318,-1.01055 1.36232,-1.02767 2.39485,-0.1002 0.31239,0.28059 1.14582,0.66022 1.85208,0.84361 1.63569,0.42474 2.48862,0.1492 3.83606,-1.23924 z m 7.89909,0.97408 c 0.94589,-0.21511 2.19604,-0.5197 2.77813,-0.67687 1.10586,-0.29861 2.51354,-1.16175 2.51354,-1.54122 0,-0.19827 -4.77721,-3.18273 -5.09458,-3.18273 -0.072,0 -0.19976,0.34408 -0.28387,0.76462 -0.0884,0.44197 -0.94406,1.61786 -2.02778,2.78666 -1.03118,1.11212 -1.79705,2.14795 -1.70194,2.30185 0.18307,0.2962 0.89736,0.21155 3.8165,-0.45231 z m -23.88574,-0.90291 c 0.71992,-1.44798 0.6199,-2.29526 -0.46413,-3.93185 -0.43964,-0.66374 -0.74045,-1.36028 -0.66846,-1.54789 0.072,-0.1876 0.021,-0.34109 -0.1134,-0.34109 -0.13436,0 -0.31608,-0.44648 -0.40381,-0.99219 -0.31646,-1.96824 -0.40278,-2.18281 -0.87813,-2.18281 -0.41586,0 -2.04456,0.65409 -3.21966,1.29301 -0.86107,0.46818 -0.5046,4.34706 0.60624,6.59682 0.70399,1.42577 2.30057,2.4683 3.62522,2.36718 0.80454,-0.0614 1.00079,-0.22467 1.51613,-1.26118 z M 103.10657,98.274929 c 0.0545,-36.322741 -0.0753,-65.306515 -0.29356,-65.528453 -0.14435,-0.146788 -0.84251,-0.100801 -1.76868,0.116502 -0.84161,0.197461 -1.589723,0.370898 -1.662483,0.385415 -0.0728,0.01453 -1.08479,0.347004 -2.24896,0.73886 -1.16417,0.391856 -2.35479,0.747712 -2.64583,0.790797 -0.29105,0.04309 -0.64823,0.145952 -0.79375,0.228595 -0.37963,0.215596 -5.16645,1.770147 -5.95313,1.933315 -0.3638,0.07546 -1.82352,0.553353 -3.24383,1.061982 -1.4203,0.508633 -2.67046,0.943407 -2.77812,0.966166 -0.31759,0.06714 -0.49074,0.123984 -6.0061,1.971892 -2.90465,0.973196 -5.40496,1.793332 -5.55625,1.822529 -0.15129,0.02919 -1.10851,0.439481 -2.12716,0.911744 -1.01864,0.472262 -2.44739,1.111109 -3.175,1.419659 -0.7276,0.308546 -1.60686,0.77702 -1.95391,1.04105 -0.34704,0.264028 -0.74582,0.480052 -0.88616,0.480052 -0.52913,0 -3.43487,1.979703 -4.22262,2.876905 -1.07835,1.228172 -2.16091,3.602833 -2.91012,6.383511 -0.51574,1.91415 -0.60437,2.879188 -0.59536,6.482292 0.009,3.773588 0.0939,4.563774 0.7775,7.276041 0.4218,1.67349 0.74343,3.132005 0.71473,3.241146 -0.0287,0.10914 0.0669,0.198437 0.2124,0.198437 0.14552,0 0.26459,0.155125 0.26459,0.344726 0,0.365231 1.68871,3.849804 2.70353,5.578594 0.33207,0.565689 1.19907,1.683107 1.92667,2.483154 0.72761,0.800044 1.2902,1.566449 1.25022,1.703119 -0.04,0.13667 0.0304,0.18474 0.15651,0.10683 0.12607,-0.0779 0.63504,0.27875 1.13104,0.79258 1.8513,1.91787 5.2948,3.56568 6.31282,3.02085 0.86605,-0.4635 0.64276,-1.18135 -0.92279,-2.96663 -0.80571,-0.91878 -2.15813,-2.682546 -3.00538,-3.919473 -5.44344,-7.947009 -7.78806,-15.798638 -6.91327,-23.151041 0.37774,-3.174862 0.64736,-3.820271 1.85887,-4.449738 0.83694,-0.434851 1.47138,-0.468109 6.61427,-0.346721 6.33775,0.149588 7.94377,0.410787 11.90625,1.93639 3.58044,1.378511 6.14824,3.017451 8.59896,5.488416 2.35446,2.373903 3.52796,4.184991 4.58279,7.072707 0.63331,1.733737 0.70874,2.307283 0.70754,5.380196 -10e-4,2.67322 -0.11228,3.763814 -0.49929,4.894791 -0.58845,1.719654 -1.45285,3.506274 -1.80647,3.733747 -0.1384,0.08903 -0.21527,0.208095 -0.17082,0.264583 0.18568,0.235977 -1.66497,2.579703 -3.00598,3.806883 -1.85208,1.69486 -2.47859,2.16579 -3.77207,2.83541 -0.57963,0.30007 -2.00784,1.14344 -3.17379,1.87415 -1.16594,0.73072 -2.53343,1.42184 -3.03885,1.53583 -0.98872,0.223 -5.86175,-0.31881 -8.68026,-0.96512 -2.52516,-0.57904 -4.68659,-1.82133 -6.80738,-3.91258 -0.75541,-0.74489 -0.79778,-0.7557 -0.87718,-0.22386 -0.0459,0.30737 0.2802,2.08075 0.72463,3.94084 0.44443,1.86009 0.95822,4.03317 1.14176,4.82905 0.30381,1.31738 0.4641,1.5373 1.78891,2.45427 0.80037,0.55397 1.64825,1.16843 1.88418,1.36547 1.05812,0.88368 12.14968,6.103141 15.9752,7.517591 5.27817,1.95155 18.411353,5.81653 19.909893,5.8593 0.26019,0.007 0.33512,-2.911 0.35129,-13.682751 z m 6.75411,12.397401 c 10.90452,-2.98202 21.11249,-6.65004 27.48887,-9.87754 3.26862,-1.654471 6.42679,-3.601311 7.03933,-4.339381 0.19132,-0.23052 0.67489,-2.2818 1.07459,-4.5584 0.39971,-2.2766 0.84063,-4.67505 0.97981,-5.32989 0.13918,-0.65485 0.20339,-1.24071 0.14269,-1.30191 -0.0607,-0.0612 -0.3778,0.12929 -0.70465,0.42332 -0.9921,0.89251 -2.95042,2.13742 -4.8647,3.09249 -5.61568,2.80178 -11.61428,2.84916 -18.62577,0.14712 -3.18054,-1.2257 -6.47008,-3.88566 -8.98674,-7.266776 -4.01471,-5.393743 -4.7987,-12.671644 -1.99988,-18.565156 2.72283,-5.733526 7.19754,-9.447749 14.30366,-11.872724 2.9274,-0.998982 6.34132,-1.460831 7.90229,-1.069052 1.02981,0.258464 2.28416,1.451592 2.28416,2.172663 0,0.350867 0.0893,0.63586 0.19844,0.63332 0.10914,-0.0026 1.27,-0.180681 2.57969,-0.395867 2.66897,-0.438523 7.43149,-0.522255 8.41594,-0.147965 1.14807,0.436494 1.73673,1.806538 2.06574,4.807772 0.73956,6.746333 -0.64363,13.12654 -3.89486,17.965679 -1.14055,1.697596 -3.04338,3.96875 -3.32512,3.96875 -0.0797,0 -0.56569,0.396787 -1.0799,0.88175 -1.93948,1.829165 -5.48159,3.108156 -9.10152,3.286396 -2.2331,0.10995 -2.99206,0.0388 -4.49792,-0.42195 -3.8632,-1.18191 -6.93939,-3.724712 -8.60907,-7.116321 -0.78587,-1.596324 -0.88002,-2.040766 -0.96533,-4.557165 -0.0791,-2.332325 -5.3e-4,-3.067256 0.48102,-4.493849 1.46637,-4.345258 5.81474,-8.460214 12.47462,-11.805007 1.26903,-0.637344 2.39417,-1.299319 2.50031,-1.471054 0.10931,-0.176864 -0.0253,-0.475845 -0.31047,-0.689586 -1.30284,-0.976517 -7.70746,0.840864 -11.93819,3.387589 -1.47851,0.890006 -4.27563,3.381227 -5.16705,4.601972 -0.42854,0.586859 -0.87279,1.041921 -0.98724,1.011248 -0.11444,-0.03068 -0.19829,0.08839 -0.18633,0.264584 0.012,0.176194 -0.29408,0.975196 -0.68011,1.77556 -2.47199,5.125252 -1.85275,11.396572 1.63219,16.529996 1.94312,2.862293 5.46608,5.303283 9.81183,6.798473 2.39626,0.82445 2.69873,0.86514 6.48229,0.87209 3.69826,0.007 4.11302,-0.044 6.08542,-0.74492 3.09604,-1.10026 5.501,-2.62089 7.73316,-4.889555 2.89121,-2.93851 4.1086,-4.902125 5.86857,-9.465865 1.50707,-3.907986 1.98224,-6.619078 1.98915,-11.349177 0.009,-6.391113 -1.03807,-9.57327 -4.18776,-12.722957 -1.85609,-1.856089 -3.13637,-2.566517 -7.81465,-4.33632 -6.59176,-2.493679 -35.03434,-11.648013 -36.19046,-11.648013 -0.27361,0 -0.33863,7.594914 -0.33863,39.555206 0,21.755361 0.0423,39.555212 0.0939,39.555212 0.0517,0 2.22455,-0.58266 4.82865,-1.29479 z M 60.272287,92.917119 c -0.0459,-0.50933 -0.3673,-2.11667 -0.71415,-3.57188 -1.93086,-8.10105 -1.98484,-8.274649 -3.20294,-10.301278 -0.66177,-1.101015 -1.29243,-2.001845 -1.40148,-2.001845 -0.43487,0 -0.4453,0.330645 -0.0605,1.917615 0.8373,3.453022 0.28951,7.272408 -1.23033,8.578368 -0.38096,0.32735 -0.74172,0.54612 -0.80169,0.48616 -0.06,-0.06 -0.29502,0.077 -0.52235,0.3043 -0.30131,0.30131 -0.7589,0.38013 -1.6883,0.29083 -0.70123,-0.0674 -1.27496,-0.0116 -1.27496,0.12397 0,0.40667 2.1488,2.34636 3.69986,3.33983 1.70053,1.08919 4.40536,1.89591 6.08972,1.81627 l 1.19063,-0.0563 z m 91.988253,0.41025 c 0.77947,-0.20747 1.91057,-0.70261 2.51354,-1.10031 1.2563,-0.82862 3.93165,-3.30966 3.7571,-3.48422 -0.0642,-0.0642 -0.64435,-0.13769 -1.28926,-0.16334 -3.00161,-0.1194 -4.89435,-3.76754 -4.14397,-7.987241 0.41752,-2.347902 0.45957,-3.532335 0.1266,-3.565885 -0.14552,-0.01466 -0.99569,1.126668 -1.88927,2.536288 -1.36545,2.153986 -1.69194,2.906747 -2.04613,4.717558 -0.23179,1.18503 -0.71881,3.52382 -1.08227,5.19731 -0.95963,4.41842 -1.00248,4.23397 0.98278,4.2302 0.9095,-0.002 2.2914,-0.17289 3.07088,-0.38036 z M 51.586037,84.910619 c 0.65491,-0.88104 0.90849,-3.656887 0.4586,-5.020065 -0.16483,-0.499441 -0.66833,-1.285124 -1.11889,-1.745964 -2.10314,-2.15115 -4.64033,-0.01871 -4.08793,3.435791 0.21403,1.338468 0.68793,2.268678 1.71704,3.370338 1.0136,1.08506 2.20654,1.06928 3.03118,-0.0401 z m 108.392783,-0.11214 c 1.85602,-2.11389 2.34515,-4.554217 1.24119,-6.19239 -1.96197,-2.911363 -4.7701,-0.732806 -4.80495,3.727693 -0.0193,2.472397 0.49796,3.439587 1.8396,3.439587 0.66926,0 1.06434,-0.2234 1.72416,-0.97489 z M 74.174927,76.598145 c 1.18057,-0.765497 1.38525,-1.197178 1.39081,-2.933353 0.005,-1.551194 -1.23618,-2.940902 -2.81572,-3.152764 -1.03266,-0.13851 -3.74202,0.586102 -3.41483,0.913291 0.0702,0.0702 -0.0462,0.463817 -0.25869,0.874702 -1.13913,2.202844 0.64991,5.006678 3.19461,5.006678 0.44609,0 1.3028,-0.318849 1.90382,-0.708554 z m 58.009873,0.406136 c 0.21533,-0.05195 0.72134,-0.497782 1.12448,-0.990733 1.2558,-1.535567 0.95288,-3.704997 -0.71409,-5.114191 -0.6802,-0.575022 -2.54863,-0.608299 -3.60092,-0.06414 -0.43361,0.224226 -0.8935,0.342722 -1.02197,0.263321 -0.12847,-0.0794 -0.1998,0.06456 -0.1585,0.319918 0.0413,0.255355 -0.0477,0.618453 -0.19777,0.806887 -0.15007,0.188431 -0.29055,0.962337 -0.31218,1.719791 -0.0348,1.220211 0.0529,1.463151 0.76986,2.131396 1.27857,1.191718 2.17682,1.394426 4.11109,0.927746 z m 24.6306,-3.173979 c 2.73574,-1.683316 4.21858,-4.459703 4.21001,-7.882561 -0.006,-2.196711 -0.70224,-3.52189 -2.47872,-4.714478 -0.70449,-0.472943 -1.36861,-0.859896 -1.47581,-0.859896 -0.1072,0 -0.27258,1.160859 -0.36751,2.579687 -0.15164,2.266381 -0.77596,5.21113 -2.11759,9.988021 -0.20435,0.727604 -0.31931,1.412213 -0.25546,1.521354 0.24005,0.410342 1.17902,0.171497 2.48508,-0.632127 z m 8.87345,0.16782 c 1.56899,-0.590568 4.78224,-2.164003 5.13049,-2.512256 0.0728,-0.07276 0.72761,-0.606504 1.45521,-1.186095 0.72761,-0.579593 1.36261,-1.14514 1.41111,-1.256771 0.0485,-0.111633 0.24884,-0.202967 0.44519,-0.202967 0.19635,0 0.43092,-0.232897 0.52126,-0.517546 0.0904,-0.284649 0.51509,-0.812744 0.94387,-1.173543 0.42879,-0.360799 0.77961,-0.731161 0.77961,-0.823024 0,-0.09187 0.28434,-0.546036 0.63186,-1.009269 2.2275,-2.969143 3.97458,-9.070808 4.67298,-16.320367 0.30153,-3.129907 0.21623,-7.352265 -0.16085,-7.962394 -0.10816,-0.175017 -0.40954,-0.05701 -0.80628,0.315701 -0.44651,0.419478 -0.63383,0.483933 -0.63453,0.218334 -5.3e-4,-0.207267 -0.23842,0.01257 -0.5286,0.488519 -0.6575,1.07838 -2.58744,2.325055 -4.49749,2.905214 -3.10139,0.94202 -8.24233,0.393002 -12.27434,-1.310812 -3.24348,-1.370607 -3.68722,-1.447588 -4.52873,-0.785656 -0.40194,0.316164 -0.64063,0.574844 -0.53042,0.574844 0.1102,0 0.0826,0.148829 -0.0614,0.33073 -0.14398,0.181901 -0.49382,0.985572 -0.77741,1.785937 -0.57308,1.617345 -0.55176,1.858237 0.5505,6.217708 0.36794,1.455208 0.80901,3.391424 0.98016,4.302699 0.30735,1.636524 0.33022,1.668439 1.86257,2.599288 1.8491,1.12327 3.83657,3.293313 4.4888,4.901162 0.30235,0.745324 0.47644,1.886455 0.48593,3.185086 0.0129,1.760815 -0.0905,2.224744 -0.79577,3.571875 -0.4458,0.851522 -1.24173,1.992521 -1.76874,2.535552 -0.52701,0.543033 -0.9064,1.031489 -0.8431,1.085458 0.99411,0.847527 1.6892,0.855218 3.84815,0.04259 z M 45.001717,74.145061 c 0.0854,-0.138173 -0.20056,-0.514294 -0.63546,-0.835827 -0.43489,-0.321532 -0.71746,-0.703127 -0.62793,-0.847992 0.0895,-0.144862 0.0358,-0.184941 -0.11928,-0.08906 -0.33219,0.205306 -1.68351,-1.892604 -2.17151,-3.371238 -0.21149,-0.640837 -0.2927,-1.806496 -0.21698,-3.114514 0.11017,-1.903214 0.21372,-2.225169 1.15646,-3.595859 0.5695,-0.828014 1.30264,-1.638512 1.6292,-1.801104 0.32656,-0.162591 0.52599,-0.363373 0.44318,-0.446185 -0.0828,-0.08281 0.7811,-0.590672 1.9198,-1.128583 1.1387,-0.537908 2.24443,-1.064969 2.45719,-1.171239 0.24489,-0.122322 0.49935,-0.961636 0.69348,-2.287383 0.16866,-1.15179 0.62648,-3.255262 1.01739,-4.674378 0.68968,-2.503723 0.69873,-2.62714 0.30522,-4.163126 -0.52245,-2.039355 -1.63798,-4.236868 -2.15077,-4.236868 -0.22021,0 -1.14094,0.313328 -2.04606,0.69628 -4.84199,2.048634 -8.2148,2.7109 -11.67148,2.291742 -2.8218,-0.34217 -4.52546,-1.149274 -6.64294,-3.147073 l -1.5875,-1.49777 -0.16714,0.762265 c -0.66894,3.050931 0.41813,13.026149 1.91718,17.592489 0.66612,2.0291 2.14805,5.07874 3.02951,6.2344 0.35442,0.464672 0.6444,0.920838 0.6444,1.013704 0,0.09286 0.14883,0.319399 0.33073,0.503412 0.1819,0.184012 0.75557,0.806738 1.27483,1.383837 1.8108,2.012537 4.93034,4.1579 7.86914,5.411758 1.80798,0.771385 3.07203,0.966999 3.34934,0.518316 z m 7.90513,0.09791 c 0.35463,-0.136083 0.35571,-0.292208 0.01,-1.389062 -0.61697,-1.95534 -1.63518,-7.629281 -1.82822,-10.187691 l -0.17636,-2.337361 -0.702,0.165704 c -3.53645,0.834757 -4.79461,1.603637 -5.62863,3.439739 -1.28215,2.822638 0.25119,7.101586 3.15453,8.803055 2.09964,1.230476 4.25368,1.85765 5.17106,1.505616 z m 2.53648,-28.124058 c 0.45026,-0.84132 0.67899,-7.541945 0.28954,-8.482155 -0.18483,-0.446217 -0.41822,-0.811303 -0.51865,-0.811303 -0.10042,0 -0.4134,-0.208359 -0.6955,-0.46302 -1.07259,-0.968259 -2.68091,-1.918229 -3.24761,-1.918229 -1.11084,0 -2.31465,0.721206 -3.36159,2.013936 -2.29128,2.829216 -2.25803,3.089278 0.36665,2.867745 2.05599,-0.173535 2.08451,-0.167333 3.024,0.657556 1.16417,1.022156 2.03311,2.501743 2.84576,4.845658 0.65311,1.883751 0.86617,2.095569 1.2974,1.289812 z m 98.560203,-2.266011 c 0.9783,-2.195552 2.36638,-4.134728 3.32808,-4.649417 0.32704,-0.17503 0.73472,-0.167222 1.23343,0.02363 0.75377,0.288448 2.92896,0.397301 3.16774,0.158525 0.37233,-0.372338 -2.04117,-3.631615 -3.31499,-4.476663 -0.85014,-0.563988 -2.13688,-0.598712 -2.82756,-0.0763 -0.28248,0.213651 -0.81125,0.39407 -1.17505,0.400926 -0.50121,0.0094 -0.56941,0.07071 -0.28152,0.252883 0.29739,0.188177 0.16298,0.368433 -0.61858,0.829564 -0.54919,0.324033 -1.08116,0.812522 -1.18216,1.085538 -0.10099,0.273016 -0.0878,1.654058 0.0292,3.068989 0.11708,1.414928 0.14659,2.847615 0.0656,3.183752 -0.17097,0.709462 0.10347,2.431553 0.38751,2.431553 0.10631,0 0.64102,-1.004837 1.18826,-2.23297 z M 59.768857,41.056968 c 0.88001,-0.692216 8.735,-3.864329 10.07339,-4.067976 0.16673,-0.02537 0.45152,-0.138825 0.63287,-0.252122 0.18136,-0.1133 0.53854,-0.256429 0.79375,-0.318063 0.25521,-0.06164 1.59511,-0.518462 2.97756,-1.015164 2.04977,-0.736468 2.49923,-0.99373 2.43598,-1.394291 -0.19795,-1.253614 -1.71205,-6.866569 -1.90718,-7.070161 -0.12157,-0.126849 -0.61296,0.06214 -1.10173,0.423728 -0.48525,0.358984 -2.19196,1.435113 -3.79269,2.391396 -1.60073,0.956284 -3.71288,2.253888 -4.69366,2.883564 -0.98078,0.629677 -2.35,1.489575 -3.04271,1.910885 -0.69271,0.421311 -1.55712,0.953439 -1.92092,1.182507 -0.36381,0.229068 -0.79674,0.388266 -0.96209,0.353774 -0.16534,-0.03449 -0.36609,0.107913 -0.44612,0.316453 -0.1167,0.304133 -0.27032,4.186507 -0.19736,4.98802 0.031,0.340286 0.44915,0.219458 1.15091,-0.33255 z m 89.827603,-1.913824 -0.0761,-2.44481 -2.37564,-1.420289 c -1.3066,-0.781161 -3.15207,-1.842434 -4.10104,-2.358387 -0.94897,-0.515951 -2.02306,-1.137423 -2.38687,-1.381046 -2.0365,-1.363763 -7.42038,-4.26194 -7.65171,-4.118967 -0.14927,0.09226 -0.38104,0.609193 -0.51505,1.148752 -0.92088,3.707919 -1.35527,5.980692 -1.17331,6.1389 0.11657,0.101356 2.23601,0.870174 4.70987,1.708486 4.91191,1.664491 10.29714,3.742292 11.92804,4.602239 1.69822,0.895437 1.72696,0.862613 1.64178,-1.874878 z M 82.580807,35.016806 c 0.69381,-0.422849 2.52642,-1.276651 6.35,-2.958436 3.11886,-1.371819 9.41911,-3.796754 12.314593,-4.73983 2.21352,-0.720952 3.95728,-0.812845 3.95728,-0.208539 0,0.153257 0.0658,0.212823 0.14628,0.132366 0.19231,-0.192307 1.60352,0.247348 5.93914,1.850307 7.66911,2.835418 11.31703,4.296098 14.23019,5.697982 1.00051,0.481468 1.75663,0.703464 1.8989,0.55752 0.13002,-0.133382 0.54737,-1.373606 0.92744,-2.756054 0.38007,-1.382448 0.76486,-2.692135 0.85509,-2.910416 0.0902,-0.218281 0.14854,-0.475991 0.12959,-0.572688 -0.019,-0.09669 0.12834,-0.751539 0.32732,-1.455208 0.75304,-2.663016 0.75455,-2.635814 -0.17971,-3.23414 -0.47224,-0.302435 -0.68002,-0.553712 -0.46174,-0.558392 0.34372,-0.0074 0.34541,-0.04106 0.0126,-0.251582 -0.21133,-0.133691 -0.47303,-0.188204 -0.58153,-0.121142 -0.10851,0.06706 -1.00717,-0.394282 -1.99701,-1.02521 -0.98985,-0.630928 -2.87128,-1.772195 -4.18097,-2.536145 -1.30969,-0.763953 -2.55984,-1.494618 -2.77812,-1.623703 -3.74187,-2.212835 -11.32171,-6.192533 -13.2743,-6.969501 -2.17247,-0.864462 -3.17739,-0.879104 -5.30664,-0.07732 -4.102053,1.544648 -13.883863,7.00134 -21.182443,11.816423 l -1.79566,1.184654 0.16028,1.13815 c 0.13007,0.923636 0.94006,3.825375 2.6919,9.64362 0.17897,0.594413 0.79772,0.586597 1.79748,-0.0227 z m -24.6523,-3.669112 c 0.89845,-0.684437 1.69308,-1.322146 1.76584,-1.417132 0.36565,-0.477342 7.32323,-5.441825 11.64166,-8.306747 10.30863,-6.838915 24.61864,-14.8366761 30.070203,-16.8060171 1.59695,-0.576887 1.63073,-0.609542 1.80028,-1.740122 0.15644,-1.043239 0.0483,-2.37795595 -0.2937,-3.62461495 -0.16889,-0.61566105 -1.03562,-0.59569805 -4.298063,0.09899 -3.83045,0.815634 -4.05558,0.692989 -4.79554,-2.61252705 -0.17103,-0.763984 -0.43357,-1.389063 -0.58344,-1.389063 -0.55401,0 -6.33775,1.365483 -8.33077,1.966815 -14.66725,4.425368 -27.59673,15.4263741 -35.12018,29.8818791 -0.95266,1.830445 -1.73212,3.503736 -1.73212,3.718425 0,0.325231 0.18757,0.305199 1.12448,-0.120079 0.61847,-0.280731 1.60712,-0.513035 2.19701,-0.516231 1.09577,-0.0059 3.50052,1.007501 4.09749,1.726808 0.47252,0.569357 0.67153,0.499669 2.45685,-0.86038 z m 95.113123,0.483381 c 1.78207,-1.388634 3.98937,-1.739884 5.72687,-0.911326 0.51244,0.244364 1.00156,0.374439 1.08694,0.289055 0.29072,-0.290716 -2.8238,-6.104371 -4.95412,-9.247518 -3.81446,-5.627986 -9.93282,-11.900865 -15.56739,-15.9605711 -0.80037,-0.576662 -1.4949,-1.139814 -1.5434,-1.25145 -0.0485,-0.111635 -0.22923,-0.202975 -0.40161,-0.202975 -0.17237,0 -0.728,-0.28013 -1.23472,-0.622511 -1.6293,-1.100881 -5.9294,-3.23871395 -9.02391,-4.48631495 -3.46156,-1.39558405 -11.42127,-3.75102105 -11.96749,-3.54141805 -0.20257,0.07773 -0.45218,0.588404 -0.55469,1.134829 -0.10251,0.546426 -0.36859,1.448898 -0.5913,2.00549905 -0.3781,0.944965 -0.47754,1.012 -1.5012,1.012 -0.60295,0 -2.34596,-0.238125 -3.87335,-0.529167 -4.08409,-0.77821605 -3.73547,-0.98375805 -3.64727,2.15040895 l 0.0754,2.679573 6.35,3.217196 c 13.70294,6.9425231 30.25621,17.0364931 38.32827,23.3720921 1.15878,0.909505 2.154,1.653645 2.21159,1.653645 0.0576,0 0.54421,-0.342471 1.08138,-0.761047 z M 100.66317,-4.1049151 c 2.13165,-0.4484 4.83663,-0.335121 8.06254,0.33764 2.9742,0.620271 2.82697,0.716743 2.82697,-1.852374 V -7.848093 l -0.8599,-0.2632577 c -2.22225,-0.6803469 -5.27484,-1.1969247 -7.0776,-1.1977158 -2.09329,-7.937e-4 -6.038843,0.9240334 -6.406193,1.5018014 -0.22485,0.3536288 -0.28526,3.986405 -0.0699,4.201784 0.16092,0.160925 0.84703,0.06369 3.524063,-0.499438 z M 82.537377,-8.0286076 c 0.89701,-0.2222367 4.48843,-1.112385 7.98093,-1.9781094 8.07126,-2.000716 11.223223,-2.645257 12.927563,-2.643553 1.71159,0.0016 5.67305,0.840984 15.01914,3.1819455 4.04861,1.0140791 7.40936,1.843778 7.46833,1.843778 0.27636,0 1.6369,-4.4435445 1.42533,-4.6551155 -0.0799,-0.07987 -1.79365,-0.18487 -3.80841,-0.233336 -3.91718,-0.09423 -7.23075,-0.588003 -12.79133,-1.906096 -0.94589,-0.224216 -1.99984,-0.458576 -2.34213,-0.5208 -0.34228,-0.06222 -1.41385,-0.299461 -2.38125,-0.527196 -2.49508,-0.587356 -4.33972,-0.476316 -7.453323,0.448665 -5.25246,1.560385 -12.40823,2.631379 -17.5814,2.631379 -1.62715,0 -2.25734,0.09224 -2.25957,0.330729 -0.008,0.832747 1.447,4.4317705 1.79139,4.4317705 0.20559,0 1.10772,-0.181827 2.00473,-0.4040611 z m 46.737293,-8.4736984 c 2.46299,-0.778058 5.0435,-2.426232 6.15099,-3.928642 0.69713,-0.945724 1.47206,-2.461826 2.17701,-4.259223 0.60222,-1.535437 0.71278,-7.662981 0.16231,-8.995832 l -0.32781,-0.79375 -0.54212,1.058333 c -1.42309,2.778154 -4.01674,3.687635 -7.99199,2.802437 -0.71651,-0.159549 -1.49979,-0.468415 -1.74062,-0.686369 -0.24084,-0.217953 -0.54757,-0.399499 -0.68164,-0.403436 -0.71176,-0.0209 -4.02989,-3.801009 -5.5131,-6.28067 -0.54532,-0.911691 -1.71628,-2.399972 -2.60213,-3.307291 -0.88585,-0.907319 -1.62028,-1.738968 -1.63207,-1.848108 -0.0118,-0.109141 -0.11134,-0.197244 -0.22122,-0.195784 -0.10988,0.0015 -1.00284,-0.400302 -1.98437,-0.892803 -4.28384,-2.149493 -9.22437,-3.249896 -13.25744,-2.952823 -10.374703,0.764192 -16.556553,3.813515 -22.369123,11.034019 l -0.76904,0.955318 -2.04899,-0.140441 c -2.82676,-0.193752 -4.38734,0.376838 -6.32967,2.314294 -1.78106,1.776587 -2.45548,3.593346 -2.4558,6.615433 -2.7e-4,2.591199 0.82496,4.645382 2.84754,7.088102 1.73086,2.090409 5.67401,3.492913 9.82035,3.492913 1.483,0 1.67256,-0.06134 1.83969,-0.595313 0.10248,-0.327422 0.43792,-0.90773 0.74543,-1.289574 0.30751,-0.381841 0.76193,-1.06645 1.00983,-1.521354 0.38537,-0.707186 0.59977,-0.827093 1.47888,-0.827093 1.27357,0 1.76238,0.775343 1.36417,2.163829 -0.50192,1.750089 -0.42578,1.849832 1.27029,1.664073 2.58741,-0.283379 5.92865,-0.899946 8.00365,-1.476933 6.299223,-1.751595 8.002693,-1.897481 11.641673,-0.99699 4.16106,1.029684 6.7379,1.482881 7.1754,1.261959 0.2357,-0.119014 0.64158,-0.666993 0.90196,-1.217726 0.83257,-1.760966 1.77094,-2.990368 2.40367,-3.149171 0.39315,-0.09868 0.95741,0.05716 1.56367,0.43185 0.85239,0.526804 0.93032,0.66924 0.76874,1.404922 -0.0989,0.450276 -0.51813,1.444016 -0.93163,2.208313 -0.43908,0.811575 -0.64396,1.456285 -0.49253,1.549873 0.41333,0.255453 4.43868,0.528714 6.55565,0.445032 1.12346,-0.04441 2.8086,-0.351726 4.01039,-0.731374 z"
       id="path8613" /></g></svg>
