<?xml version="1.0" encoding="UTF-8" standalone="no"?>
<!-- Created with Inkscape (http://www.inkscape.org/) -->

<svg
   width="240.77559mm"
   height="248.63876mm"
   viewBox="0 0 240.77561 248.63877"
   version="1.1"
   id="svg1"
   xml:space="preserve"
   xmlns="http://www.w3.org/2000/svg"
   xmlns:svg="http://www.w3.org/2000/svg"><defs
     id="defs1" /><g
     id="layer1"
     transform="translate(-76.101009,-540.44456)"><path
       style="fill:#000000"
       d="m 224.26767,788.93456 c -5.20551,-1.14387 -10.13178,-4.47951 -12.87102,-8.71514 -0.60131,-0.92979 -1.12341,-1.69053 -1.16023,-1.69053 -0.0368,0 -2.13359,0.35598 -4.65951,0.79108 -12.01907,2.0703 -20.29549,3.15936 -33.03528,4.34697 -10.85754,1.01214 -15.21942,1.27941 -18.79633,1.15175 -2.94491,-0.1051 -3.73471,-0.24655 -7.40736,-1.32664 -8.87908,-2.61125 -20.04417,-7.09831 -31.08933,-12.49426 -9.04682,-4.4197 -15.59958,-8.27846 -16.510835,-9.72283 -0.278994,-0.44221 -0.433785,-1.99646 -0.57413,-5.76482 -0.186473,-5.00695 -0.621493,-9.24765 -1.452071,-14.15521 -0.609885,-3.60357 -2.741406,-14.09501 -3.003939,-14.78553 -0.219683,-0.57781 -0.333065,-0.60182 -2.304258,-0.48808 -2.652001,0.15302 -5.906297,-0.45249 -8.126392,-1.51205 -2.18418,-1.04241 -4.395489,-3.37226 -5.172976,-5.45028 -2.718963,-7.26708 0.627992,-18.07367 7.433363,-24.00071 l 1.594083,-1.38835 -0.16522,-2.11666 c -0.187978,-2.40822 -1.037739,-9.0964 -1.630395,-12.83229 -1.202061,-7.57736 -3.037427,-12.6302 -6.585501,-18.13017 -2.213206,-3.43075 -2.202487,-4.09789 0.07506,-4.67138 l 1.195265,-0.30097 -1.036284,-0.9503 c -0.569956,-0.52267 -1.451879,-1.27509 -1.959828,-1.67205 l -0.923543,-0.72174 0.685381,-0.61831 c 1.401415,-1.26428 6.557544,-2.56256 10.192568,-2.56642 8.309986,-0.009 18.223502,6.01003 28.105122,17.06363 6.02678,6.74157 12.46604,15.83197 17.10859,24.15244 0.58209,1.04322 1.13473,1.89952 1.22809,1.90289 0.0934,0.003 0.24905,-0.30981 0.34597,-0.69595 0.26439,-1.05342 1.54429,-2.78317 3.083,-4.16661 1.92047,-1.72667 4.68002,-2.978 8.23517,-3.73429 3.45947,-0.73593 5.61233,-1.43962 7.31386,-2.39062 1.64485,-0.91933 3.45596,-2.30536 3.46594,-2.65247 0.005,-0.15653 -0.28798,-0.56284 -0.64996,-0.9029 -0.36198,-0.34006 -1.27509,-1.52167 -2.02915,-2.62581 -0.75405,-1.10413 -1.4031,-2.04984 -1.44234,-2.10158 -0.0392,-0.0517 -0.80479,0.47032 -1.70122,1.16011 -0.92358,0.71068 -2.44979,1.55101 -3.52191,1.93918 -1.6188,0.58609 -2.33144,0.68561 -4.93474,0.68918 -3.54157,0.005 -5.20753,-0.34459 -7.92227,-1.66174 -5.90091,-2.86305 -10.43045,-10.97109 -9.02336,-16.15214 0.36076,-1.32832 1.32256,-2.41698 2.13535,-2.41698 0.34835,0 1.58595,0.98598 3.27832,2.61178 3.08594,2.96457 3.86117,3.34504 6.40033,3.14122 4.16225,-0.3341 7.03423,-3.9357 7.02252,-8.80656 -0.008,-3.3031 -0.63971,-5.26041 -3.51023,-10.87524 -5.23246,-10.23487 -6.74268,-15.09544 -7.52565,-24.221 -0.39299,-4.58033 0.94673,-12.5124 2.85162,-16.88353 3.51579,-8.06766 8.75302,-14.47858 15.50273,-18.97698 1.20885,-0.80565 2.14774,-1.59815 2.08643,-1.76111 -0.78026,-2.07381 -1.08427,-3.77197 -1.09508,-6.11712 -0.0117,-2.53093 0.0308,-2.73399 0.97909,-4.67595 1.86073,-3.81068 4.5862,-5.4771 9.33825,-5.70962 5.95481,-0.29137 11.63248,2.30752 19.41015,8.88478 l 1.69591,1.43416 1.61138,-0.13837 c 2.20496,-0.18934 7.39268,-2.20636 7.22057,-2.80741 -0.0673,-0.23494 -0.67571,-2.24059 -1.35208,-4.45699 -1.49624,-4.90308 -3.66473,-12.96085 -4.235,-15.73663 -0.49579,-2.41323 -0.53883,-5.05557 -0.11007,-6.7583 0.6731,-2.67315 3.67854,-4.49758 6.97333,-4.23311 2.28418,0.18335 3.97462,1.17079 6.37799,3.72559 1.9866,2.11176 3.15606,3.74202 10.28119,14.33227 3.1109,4.6238 4.03083,5.81472 4.47336,5.7911 0.3064,-0.0164 1.68819,-0.2501 3.07063,-0.51943 3.78226,-0.73686 12.11075,-0.68428 15.75982,0.0995 7.46065,1.60248 12.83082,4.32728 17.41337,8.83545 l 2.34924,2.31111 2.01639,-1.78873 c 2.45518,-2.17798 3.51122,-2.96132 5.04637,-3.74326 3.25495,-1.65793 6.74548,-2.32802 9.61476,-1.84578 3.23822,0.54426 5.5042,1.76148 8.19825,4.40389 2.83721,2.78282 4.89463,6.47086 6.64,11.90257 1.24005,3.85909 1.76196,6.83892 1.94272,11.09194 0.26064,6.13217 -0.79394,12.47412 -2.93289,17.63761 l -0.96008,2.31765 0.72738,0.8135 c 4.1375,4.62742 8.11897,13.06217 9.58646,20.30893 3.01875,14.90723 -0.78687,27.4142 -11.99552,39.42273 -1.44638,1.5496 -2.84998,3.17464 -3.11912,3.6112 -1.10161,1.7869 -0.17797,3.65264 1.96752,3.97438 1.63823,0.24567 3.66912,-0.20292 6.52346,-1.44092 2.78449,-1.2077 2.9843,-1.24627 3.46366,-0.66867 0.48272,0.58164 -0.0453,1.57871 -2.83027,5.34416 -3.77647,5.10606 -9.72611,10.52996 -14.38025,13.10954 -0.94702,0.52488 -2.96462,1.49378 -4.48354,2.1531 -1.51893,0.65932 -2.93322,1.3703 -3.14287,1.57995 -0.64315,0.64315 -0.47436,2.40467 0.33168,3.46144 1.4637,1.91902 4.10126,2.62171 7.00298,1.86572 1.86447,-0.48575 3.0487,-0.25531 3.33576,0.64911 0.22425,0.70656 -0.33509,2.86137 -1.11445,4.2933 -0.74209,1.36348 -3.02476,3.74661 -4.63948,4.84366 -0.5457,0.37075 -0.99219,0.78887 -0.99219,0.92914 0,0.32109 -0.26924,0.35998 2.6709,-0.38584 7.20949,-1.82884 13.66608,-1.46428 20.03426,1.13119 6.22384,2.53664 10.72156,7.18131 13.10449,13.53261 0.96955,2.5842 1.58538,6.61003 1.3862,9.06198 -0.0916,1.12779 -0.0868,2.05052 0.0107,2.05052 0.21896,0 2.39165,-1.43587 5.49178,-3.62937 2.60466,-1.84294 3.42552,-2.03548 4.37392,-1.02596 1.20981,1.28779 1.28112,6.63504 0.14713,11.03214 -1.61478,6.26134 -5.56778,12.813 -9.51155,15.76435 -1.16048,0.86845 -1.79946,1.59733 -2.35665,2.6882 -1.46842,2.8749 -5.17364,5.81982 -9.5,7.55063 -6.78884,2.71597 -17.08266,3.0013 -25.32199,0.70189 -4.71059,-1.31461 -7.95393,-2.9892 -10.57089,-5.45791 -0.98812,-0.93214 -1.86887,-1.6948 -1.95722,-1.6948 -0.0883,0 -0.72018,0.8632 -1.40406,1.91823 -1.73024,2.66925 -8.04733,8.90186 -11.0033,10.85615 -5.97248,3.94861 -11.46103,5.78357 -17.09636,5.71576 -1.40275,-0.0169 -2.78858,-0.083 -3.07962,-0.14697 z m 9.44241,-4.41663 c 6.72224,-2.00477 13.57352,-7.01933 18.76106,-13.73154 7.60407,-9.83899 9.2481,-22.41856 4.71244,-36.05797 -0.61258,-1.84212 -1.67014,-4.4385 -2.35014,-5.76973 -1.20402,-2.3571 -3.62349,-5.9923 -3.98828,-5.9923 -0.0999,0 -0.64389,0.7905 -1.20877,1.75666 -3.78204,6.46871 -11.18374,11.3977 -18.50393,12.32225 l -2.49917,0.31566 0.0268,0.93865 c 0.0147,0.51626 0.16354,2.30787 0.33073,3.98136 l 0.30398,3.04271 3.175,0.17645 c 4.40448,0.24478 7.57894,1.33472 9.50915,3.26493 1.04539,1.04539 1.04865,1.04446 -1.83624,0.5237 -5.27482,-0.95217 -11.60985,-0.72086 -15.47812,0.56515 -8.70259,2.8932 -13.97168,11.34091 -12.93728,20.74183 0.78442,7.12902 4.93476,12.43037 11.21749,14.32842 2.38875,0.72166 7.64894,0.52316 10.76533,-0.40623 z m -73.94901,-3.61541 c 11.11222,-0.89281 13.89479,-1.14203 20.71806,-1.85561 11.19633,-1.1709 27.94118,-3.48254 28.37596,-3.91732 0.12029,-0.12029 0.10324,-0.52238 -0.0379,-0.89354 -0.30833,-0.81097 -0.82142,-5.21857 -0.82142,-7.05624 0,-1.2387 -0.0426,-1.32068 -0.72761,-1.39949 -1.02742,-0.11822 -0.91902,-0.8156 0.18211,-1.1715 0.95718,-0.30938 1.28992,-0.81858 1.32065,-2.02108 0.0176,-0.68731 -0.0465,-0.7276 -1.15641,-0.7276 -1.24273,0 -1.57188,-0.22254 -1.31588,-0.88966 0.11012,-0.28697 0.60162,-0.43162 1.6545,-0.4869 l 1.49785,-0.0787 0.7122,-1.45521 c 0.39171,-0.80036 0.71914,-1.55404 0.72761,-1.67485 0.009,-0.1208 -1.15942,-0.13635 -2.5953,-0.0345 -2.7524,0.19514 -3.4358,-0.0304 -2.60611,-0.8601 0.29043,-0.29043 1.20154,-0.43996 3.2815,-0.53854 l 2.87945,-0.13648 1.04928,-1.45252 c 2.45869,-3.40353 7.14112,-6.60691 11.30189,-7.73192 l 1.25677,-0.33981 v -2.30622 c 0,-1.26841 -0.0758,-3.37388 -0.16841,-4.67881 l -0.16842,-2.3726 -1.8821,-0.4765 c -2.76654,-0.7004 -5.30246,-2.13065 -7.53928,-4.25211 l -1.953,-1.85228 -2.8095,0.0888 c -2.86528,0.0906 -4.40056,-0.20854 -4.19875,-0.81804 0.0751,-0.22682 1.0686,-0.37021 3.19686,-0.46139 l 3.0879,-0.13229 -0.784,-1.65603 c -0.70254,-1.48395 -0.86065,-1.65075 -1.52171,-1.60525 -0.40574,0.0279 -1.66045,0.029 -2.78824,0.002 -1.55314,-0.0367 -2.05052,-0.13779 -2.05052,-0.41695 0,-0.553 0.61117,-0.68977 3.08218,-0.68977 2.01425,0 2.231,-0.0476 2.10759,-0.46302 -0.38256,-1.2877 -0.51122,-2.1942 -0.66086,-4.65601 l -0.16328,-2.68618 -4.0777,0.0648 c -2.24273,0.0357 -4.12232,0.10947 -4.17686,0.16401 -0.0823,0.0823 0.94346,8.12516 2.02914,15.91073 0.14205,1.01864 0.44867,3.56611 0.68138,5.66104 0.34949,3.14616 0.36222,3.84757 0.0732,4.03085 -1.12747,0.71485 -1.25862,0.132 -2.74643,-12.20544 -0.3773,-3.12869 -0.91518,-7.27265 -1.19528,-9.20878 -0.63904,-4.41713 -0.64552,-5.25177 -0.0433,-5.57409 0.25631,-0.13718 2.48804,-0.26569 4.95939,-0.28558 2.47135,-0.0199 4.56305,-0.1202 4.64823,-0.22292 0.0852,-0.10271 0.31035,-1.02019 0.5004,-2.03883 0.88501,-4.74378 3.25495,-10.07453 5.20744,-11.71323 l 1.09712,-0.9208 -0.3888,-1.14108 c -0.21384,-0.62759 -0.53783,-1.26475 -0.71998,-1.41592 -0.18214,-0.15116 -1.21444,-0.46065 -2.294,-0.68774 -9.08635,-1.91137 -13.24827,-1.9585 -58.05812,-0.65747 -7.5432,0.21902 -18.65776,0.74727 -18.83483,0.89518 -0.0272,0.0227 0.35341,2.04036 0.84575,4.48369 0.49234,2.44333 1.26222,7.08437 1.71085,10.31343 2.25832,16.25462 3.06956,20.55935 6.11752,32.46164 3.69281,14.42044 5.82439,23.52633 6.71267,28.67581 0.5102,2.9577 0.51682,2.85852 -0.18448,2.76009 -0.47257,-0.0663 -0.61934,0.075 -0.73839,0.71098 -0.12859,0.68697 -0.22614,0.509 -0.72514,-1.32292 -0.31711,-1.16417 -1.18399,-4.73604 -1.92641,-7.9375 -3.10189,-13.37594 -3.57942,-15.40509 -5.39889,-22.94111 -2.07328,-8.5873 -4.38189,-21.13642 -5.44148,-29.57868 -0.15524,-1.23692 -0.64507,-4.74927 -1.0885,-7.80521 -0.44342,-3.05593 -0.85523,-6.50875 -0.91513,-7.67291 -0.079,-1.53597 -0.19973,-2.08826 -0.43997,-2.01311 -1.14717,0.35884 -3.02116,-0.81567 -8.79774,-5.51391 -8.63608,-7.02395 -9.9005,-8.01114 -14.32938,-11.18761 -7.29222,-5.23011 -17.575496,-10.82447 -24.398361,-13.27331 l -1.95066,-0.70012 0.179505,0.60132 c 1.298051,4.34834 2.18233,8.905 3.448375,17.76933 0.792141,5.54624 2.032454,13.65595 2.756251,18.02157 1.326884,8.00318 1.8654,10.63523 4.790825,23.41563 3.103415,13.55801 4.321025,21.05644 4.675265,28.79195 l 0.17351,3.78883 0.81796,0.62007 c 2.18386,1.65551 14.59958,8.07027 19.94275,10.30371 0.91426,0.38217 2.46208,1.06128 3.43959,1.50915 5.37765,2.4639 14.64467,6.00322 19.90124,7.6008 6.46675,1.96538 7.63216,2.10319 13.67778,1.61745 z m 2.82693,-6.99117 c -0.27732,-0.72269 0.15853,-0.87511 3.00422,-1.0506 2.36441,-0.14582 7.0402,-0.58922 11.10748,-1.05333 0.92595,-0.10566 1.84824,0.38647 1.5695,0.83748 -0.22785,0.36866 -1.07597,0.49084 -7.78519,1.12149 -6.79409,0.63864 -7.70018,0.65527 -7.89601,0.14496 z m 19.63198,-2.32777 c -0.40665,-0.6239 -1.02226,-3.83153 -0.80334,-4.18575 0.2174,-0.35177 1.36,-0.48799 8.71978,-1.0396 3.92906,-0.29448 8.19828,-0.65709 9.48715,-0.80581 1.28887,-0.14872 2.56613,-0.1997 2.83837,-0.1133 0.51258,0.16269 0.87826,1.21826 1.11474,3.21779 0.097,0.82029 0.0179,1.20615 -0.3046,1.48512 -0.61986,0.53624 -14.3178,2.03402 -18.61967,2.03595 -1.82931,8.1e-4 -2.08524,-0.0617 -2.43243,-0.5944 z m 9.76852,-1.2785 c 4.88801,-0.42931 9.97703,-1.00357 10.11485,-1.14139 0.0683,-0.0683 0.0423,-0.60842 -0.0577,-1.20031 -0.22287,-1.31915 0.60876,-1.28582 -10.32176,-0.41364 -4.51115,0.35996 -8.29138,0.65581 -8.40052,0.65744 -0.24108,0.004 -0.25422,1.22276 -0.0225,2.08855 0.16762,0.62633 0.18587,0.62928 2.84066,0.45929 1.46957,-0.0941 4.1007,-0.29657 5.84695,-0.44994 z m -30.03021,-0.18579 c 0,-0.30282 0.20836,-0.61499 0.46302,-0.69372 0.25467,-0.0787 2.42756,-0.26206 4.82865,-0.40741 2.40109,-0.14534 5.61738,-0.34344 7.14731,-0.44023 2.33634,-0.14779 2.83612,-0.11037 3.1217,0.23373 0.26835,0.32335 0.27113,0.45228 0.0132,0.61169 -0.4164,0.25734 -6.61067,0.82045 -11.67128,1.06101 -3.83623,0.18235 -3.9026,0.17614 -3.9026,-0.36507 z m -27.51666,-3.54052 c -2.73742,-1.1527 -6.97323,-2.72444 -10.71563,-3.97614 -3.1821,-1.0643 -13.66511,-5.21105 -14.11662,-5.58409 -0.54405,-0.44951 -0.78406,-1.26672 -1.2409,-4.22513 -0.22993,-1.48898 -0.46747,-2.88582 -0.52787,-3.1041 -0.0604,-0.21828 -0.003,-0.56733 0.1279,-0.77567 0.1969,-0.31375 0.66151,-0.19077 2.70594,0.71626 1.35752,0.60228 4.61135,1.94782 7.23072,2.99009 2.61938,1.04228 5.21027,2.07798 5.75753,2.30156 0.54727,0.22358 1.06949,0.33205 1.1605,0.24105 0.091,-0.091 0.0239,-0.88474 -0.14901,-1.76387 -0.48571,-2.46879 -0.56432,-2.44843 3.54973,-0.91927 5.45583,2.02789 7.29188,2.84173 7.85411,3.48135 0.38525,0.4383 1.80318,9.11116 1.80318,11.02932 0,0.92344 -0.37669,0.87839 -3.43958,-0.41136 z m 1.4611,-4.55806 c -0.79447,-5.98516 -0.54167,-5.37533 -2.58558,-6.23724 l -1.78594,-0.75312 3.6e-4,0.70291 c 2e-4,0.38661 0.16584,1.65542 0.36809,2.81959 0.20224,1.16416 0.45069,2.964 0.55211,3.99964 l 0.1844,1.88297 1.10117,0.54918 c 1.75499,0.87526 2.41205,1.07673 2.5249,0.7742 0.0555,-0.14865 -0.10633,-1.83081 -0.35951,-3.73813 z m -4.63546,1.36078 c 0.001,-1.00352 -1.06609,-7.96822 -1.31191,-8.56193 -0.21686,-0.52378 -3.35831,-2.03911 -3.74232,-1.80517 -0.14729,0.0897 0.0206,1.46511 0.88368,7.24055 l 0.33345,2.23127 1.71979,0.72354 c 2.13185,0.89691 2.11653,0.89566 2.11731,0.17174 z m -5.29235,-1.85208 c -5e-5,-0.62518 -0.74544,-4.73628 -0.88384,-4.87468 -0.0913,-0.0913 -2.85119,-1.13047 -5.59841,-2.10798 -1.01865,-0.36245 -3.67173,-1.44096 -5.89574,-2.39669 -2.22401,-0.95572 -4.084,-1.69201 -4.13331,-1.63619 -0.0901,0.10198 0.58822,5.30498 0.7058,5.41385 0.17901,0.16575 6.87549,2.87195 9.98471,4.03505 1.96453,0.73489 3.98859,1.51731 4.49792,1.7387 1.23113,0.53516 1.32292,0.52322 1.32287,-0.17206 z m 35.22568,5.4473 c -0.3847,-0.28589 -0.38872,-0.36533 -0.0361,-0.71307 0.30299,-0.29876 1.77915,-0.46979 6.2396,-0.72292 3.2135,-0.18237 6.04124,-0.2554 6.28386,-0.1623 0.7536,0.28918 0.50603,0.94417 -0.41877,1.10791 -0.47294,0.0837 -3.28445,0.30073 -6.24779,0.48218 -4.23136,0.25911 -5.48083,0.26087 -5.82083,0.008 z m 14.66722,-1.03443 c -0.22868,-0.22867 -0.4226,-0.49656 -0.43095,-0.59531 -0.008,-0.0987 -0.2167,-1.53203 -0.46302,-3.18508 l -0.44785,-3.00555 -3.70417,0.0906 c -2.03729,0.0498 -5.37104,0.0926 -7.40833,0.0951 -3.5777,0.004 -3.70691,-0.0146 -3.78443,-0.55805 -0.0777,-0.54496 0.0385,-0.56774 3.70417,-0.7255 11.20497,-0.48226 11.70952,-0.48718 12.19691,-0.11881 0.34636,0.26178 0.61503,1.21739 0.99213,3.52879 0.62568,3.83511 0.65572,4.8896 0.13929,4.8896 -0.20789,0 -0.56508,-0.1871 -0.79375,-0.41578 z m 5.09246,-2.77027 c -0.41499,-0.2421 -0.7584,-1.49247 -1.10631,-4.02819 -0.21376,-1.55793 0.18817,-1.6838 6.44599,-2.01861 11.19303,-0.59886 15.18975,-0.66718 15.51871,-0.26525 0.16655,0.20348 0.38753,1.40054 0.49106,2.66013 0.17354,2.1113 0.14763,2.3119 -0.33182,2.56849 -1.47666,0.79028 -19.89283,1.73961 -21.01763,1.08343 z m 9.57301,-1.45738 c 3.56526,-0.22547 7.37154,-0.49333 8.4584,-0.59524 l 1.9761,-0.18529 -0.0783,-1.32292 c -0.0431,-0.7276 -0.16396,-1.41181 -0.26865,-1.52046 -0.18418,-0.19115 -18.08507,0.50688 -18.75264,0.73124 -0.34682,0.11656 -0.4411,1.67335 -0.16397,2.70745 0.19676,0.73421 0.16049,0.73345 8.82907,0.18522 z m -31.91333,-6.58686 c -0.0943,-0.24582 -0.0664,-0.54364 0.0621,-0.66182 0.30078,-0.2767 15.75002,-0.92205 16.65226,-0.6956 0.45666,0.11462 0.65344,0.3211 0.59541,0.62476 -0.10834,0.56687 -1.74721,0.71793 -10.70438,0.98662 -5.90225,0.17705 -6.44801,0.15607 -6.60535,-0.25396 z m 20.6024,-0.32497 c -0.18191,-0.0718 -0.33073,-0.35141 -0.33073,-0.62141 0,-0.62066 0.21873,-0.6476 9.525,-1.17296 4.00182,-0.22591 8.42263,-0.48164 9.82403,-0.56829 2.75046,-0.17006 3.98261,0.12522 3.40859,0.81688 -0.31948,0.38495 -1.01194,0.45229 -10.85137,1.05535 -8.75695,0.5367 -11.19634,0.64006 -11.57552,0.49043 z m 26.00195,-1.92775 c -0.42887,-0.69392 0.44877,-0.9377 3.70849,-1.03008 2.86616,-0.0812 3.31372,-0.037 3.45919,0.34214 0.0919,0.23949 0.0933,0.50926 0.003,0.59949 -0.0902,0.0902 -1.69586,0.21937 -3.56806,0.28697 -2.4983,0.0902 -3.45686,0.0374 -3.60266,-0.19852 z m -47.30091,-0.95476 c -0.18113,-0.18485 -0.28784,-1.14638 -0.13229,-1.19209 0.42531,-0.12497 16.63212,-0.43672 17.07886,-0.32852 0.37935,0.0919 0.57753,0.30972 0.52618,0.5784 -0.0619,0.32386 -0.50918,0.4723 -1.79917,0.59705 -2.92571,0.28295 -15.46398,0.55906 -15.67358,0.34516 z m 20.31995,-0.88674 c -0.2803,-0.45353 0.68127,-1.07966 1.65936,-1.08047 1.18776,-10e-4 15.49685,-0.72688 18.43579,-0.93523 2.18684,-0.15503 2.96756,0.0608 2.70407,0.7474 -0.17833,0.46472 -1.32289,0.56639 -12.62594,1.12161 -9.24327,0.45403 -9.9768,0.46461 -10.17328,0.14669 z m -50.28401,-1.44853 c -3.4282,-1.22655 -10.90133,-4.13571 -12.83229,-4.99539 -0.65485,-0.29154 -1.905,-0.79924 -2.77813,-1.12822 -3.95514,-1.49025 -5.33495,-2.2698 -4.99401,-2.82145 0.26478,-0.42843 1.4085,-0.18718 3.38692,0.71442 2.43185,1.10823 16.50115,6.71085 18.9373,7.54113 1.90238,0.64837 2.91041,1.20033 2.91041,1.59365 0,0.50807 -1.50391,0.2144 -4.6302,-0.90414 z m 77.1093,-0.0482 c -0.54398,-0.65545 -0.006,-0.81307 3.33404,-0.97759 3.38886,-0.1669 4.15458,-0.0589 4.03494,0.56894 -0.0938,0.49209 -1.75439,0.75738 -5.00474,0.79952 -1.53796,0.0199 -2.10048,-0.0731 -2.36424,-0.39087 z m -73.40514,-2.99553 c -1.01864,-0.3945 -3.0427,-1.15133 -4.49791,-1.68182 -6.68472,-2.43693 -18.3801,-6.83557 -19.5287,-7.34474 -0.90066,-0.39927 -1.24538,-0.69373 -1.17978,-1.00779 0.13675,-0.65476 0.90594,-0.48166 5.23035,1.17703 5.16678,1.9818 7.57399,2.87624 10.71563,3.98159 4.19091,1.47452 10.52713,4.0028 11.17864,4.4605 0.63834,0.44845 0.80971,1.19799 0.26459,1.15724 -0.18191,-0.0136 -1.16417,-0.3475 -2.18282,-0.74201 z m 26.33274,-0.75383 c -1.31453,-0.0615 -2.13095,-0.23123 -2.43478,-0.50619 -0.66246,-0.59952 -0.87003,-1.8349 -3.39379,-20.19824 -0.44998,-3.27422 -0.87819,-6.26582 -0.95156,-6.648 -0.0839,-0.43713 0.026,-0.85422 0.29621,-1.12448 0.38933,-0.38933 2.43419,-0.4296 21.81264,-0.4296 19.9773,0 21.41947,0.0304 21.93721,0.46302 0.49678,0.41506 0.67633,1.44952 1.73366,9.98802 2.01198,16.24784 2.07372,16.96015 1.50074,17.31427 -0.66657,0.41197 -3.36253,0.56157 -4.75158,0.26367 -1.15381,-0.24745 -1.53089,-0.22675 -2.27143,0.12466 -1.11234,0.52784 -2.2705,0.53595 -3.49462,0.0245 -0.52242,-0.21828 -1.45349,-0.39688 -2.06904,-0.39688 -1.36817,0 -2.66485,-0.81687 -3.35337,-2.11253 -0.56292,-1.05933 -0.61793,-2.16369 -0.18786,-3.77167 0.27313,-1.0212 0.23731,-1.25703 -0.37418,-2.46375 -1.41866,-2.7996 -3.55199,-4.20074 -6.41016,-4.21011 -1.55925,-0.005 -2.07382,0.11649 -3.25454,0.76909 -1.59398,0.88101 -2.76006,2.30969 -3.3604,4.11714 -0.40869,1.23047 -0.40573,1.25053 0.41329,2.80194 1.31057,2.48254 0.81157,4.25684 -1.38204,4.91406 -0.77597,0.23248 -1.26807,0.22844 -2.08785,-0.0172 -1.02665,-0.30759 -1.11204,-0.28672 -1.99358,0.48729 -0.99801,0.87626 -0.76529,0.85225 -5.92297,0.61099 z m 5.89151,-1.81123 c 0.66294,-0.55782 0.91557,-0.60802 2.32093,-0.46113 1.30063,0.13594 1.66918,0.0814 2.1029,-0.31109 0.77548,-0.7018 0.70649,-2.24865 -0.13558,-3.03973 -0.40445,-0.37997 -0.66146,-0.91341 -0.66146,-1.37293 0,-1.07304 -1.32273,-1.87143 -2.84427,-1.71678 l -1.12448,0.11429 v -1.17126 c 0,-1.42478 -0.43266,-2.29868 -1.76413,-3.56323 -1.51565,-1.43949 -2.60661,-1.88905 -4.9166,-2.02605 l -2.05052,-0.12162 0.0182,0.8939 c 0.01,0.49164 0.4574,3.69185 0.99417,7.11159 l 0.97595,6.21771 1.45322,0.0464 c 0.79928,0.0255 1.81042,0.15486 2.24698,0.28737 1.00718,0.30573 2.40094,-0.0597 3.38466,-0.88747 z m 27.53332,-0.0883 c 0.92453,-0.47135 1.09704,-0.48073 2.29553,-0.12482 1.12492,0.33407 1.415,0.33505 2.19898,0.007 0.49671,-0.20754 0.98546,-0.5106 1.08612,-0.67346 0.20205,-0.32693 -1.1761,-11.76415 -1.47602,-12.24944 -0.27038,-0.43748 -2.88203,-0.32346 -4.08276,0.17824 -2.54064,1.06155 -3.81753,2.68542 -3.81906,4.85686 l -9.8e-4,1.40707 -0.76845,-0.54718 c -0.42265,-0.30095 -0.93615,-0.54718 -1.14113,-0.54718 -0.60035,0 -1.74095,1.36894 -2.18189,2.61869 -0.51743,1.46655 -0.17309,2.94704 0.94562,4.06575 0.65256,0.65256 0.94082,0.76046 1.76448,0.66044 0.6441,-0.0782 1.30332,0.0493 1.90661,0.36883 1.17553,0.62258 2.02083,0.61708 3.27295,-0.0213 z m -23.28192,-8.02315 c 1.29707,-3.00814 4.2176,-4.99401 7.34448,-4.99401 2.88028,0 5.631,1.66941 7.22088,4.38234 l 0.66135,1.1285 1.61632,-0.80113 c 1.47877,-0.73294 1.60203,-0.85908 1.44832,-1.48211 -0.51759,-2.098 -3.5537,-5.2781 -6.35639,-6.65786 -2.36138,-1.16251 -5.77344,-1.37933 -8.53,-0.54205 -4.11892,1.25109 -7.69559,5.34386 -7.00362,8.01424 0.18374,0.70907 0.41306,0.9299 1.19289,1.1487 0.53098,0.14898 1.11325,0.41869 1.29392,0.59936 0.49244,0.49244 0.58483,0.4263 1.11185,-0.79598 z m 20.08349,-3.96875 c 0.61601,-0.61846 1.50698,-1.3273 1.97992,-1.5752 1.12663,-0.59052 1.09237,-1.09194 -0.21254,-3.11089 -3.04004,-4.70352 -7.97343,-7.92692 -13.38837,-8.74773 -4.99513,-0.75718 -10.21996,1.10175 -14.11448,5.02175 -1.49699,1.50679 -3.72964,4.97621 -3.69303,5.73878 0.006,0.12424 0.62236,0.51315 1.36978,0.86423 0.74741,0.35109 1.81724,1.05239 2.3774,1.55846 0.56015,0.50607 1.05641,0.87366 1.1028,0.81687 0.0464,-0.0568 0.57682,-0.83762 1.17874,-1.73517 4.42769,-6.60239 13.77426,-7.16914 19.42605,-1.17795 0.94716,1.00404 1.94085,2.19583 2.20821,2.64843 0.26735,0.45259 0.52196,0.8229 0.56579,0.8229 0.0438,0 0.58371,-0.50602 1.19973,-1.12448 z m 7.11853,-4.04937 c -0.17483,-3.1641 -1.09077,-9.20671 -1.42799,-9.42073 -0.18545,-0.11769 -2.83749,-0.23146 -5.89343,-0.25282 -3.05594,-0.0214 -6.24086,-0.0783 -7.0776,-0.12648 -0.83675,-0.0482 -1.52136,-0.0429 -1.52136,0.0118 0,0.0547 0.77553,0.35003 1.72339,0.65625 4.26351,1.3774 8.29929,4.98952 10.52242,9.41782 l 0.66757,1.32974 1.54696,-0.0213 1.54695,-0.0213 z m -37.653,1.11713 c 0.16092,-0.1939 0.72886,-1.2246 1.26209,-2.29045 1.63999,-3.27815 6.04923,-7.09702 9.19798,-7.96643 0.52459,-0.14485 0.9538,-0.35311 0.9538,-0.4628 0,-0.21068 -7.43746,-0.14044 -12.89681,0.1218 -3.14272,0.15096 -3.23568,0.17261 -3.11093,0.72438 0.10988,0.48598 1.45566,9.84929 1.45566,10.12779 0,0.28714 2.88273,0.0536 3.13821,-0.25429 z m -29.06737,12.28572 c -6.17975,-2.17083 -22.43591,-8.26566 -23.03691,-8.6371 -0.29453,-0.18203 -0.32934,-1.09941 -0.048,-1.26488 0.10914,-0.0642 1.56766,0.40758 3.24115,1.04837 1.67348,0.64079 7.0313,2.65617 11.90624,4.47862 11.70943,4.37744 12.90065,4.85817 13.05866,5.26993 0.15216,0.3965 -0.046,0.67207 -0.4689,0.65213 -0.15765,-0.007 -2.25116,-0.70362 -4.65225,-1.54707 z m -1.97802,-12.23657 c -2.14604,-0.80274 -2.78448,-1.16526 -2.78448,-1.58108 0,-0.78015 5.34536,1.13733 5.5095,1.97636 0.11443,0.58495 -0.24321,0.53307 -2.72502,-0.39528 z m -11.50643,-0.20837 c -0.15064,-0.28148 -0.27389,-0.81981 -0.27389,-1.1963 0,-0.77772 0.009,-0.77294 -3.83646,-2.01101 -1.4552,-0.46851 -2.80158,-0.91033 -2.99193,-0.98183 -0.24524,-0.0921 -0.32235,0.092 -0.26459,0.63181 0.0704,0.65795 -0.009,0.76181 -0.57993,0.76181 -0.55437,0 -0.68288,-0.14993 -0.79375,-0.92604 -0.11618,-0.81322 -0.23466,-0.93597 -0.97249,-1.00748 -0.4621,-0.0448 -0.96561,-0.23257 -1.11891,-0.41728 -0.1533,-0.18471 -0.46129,-1.57681 -0.68444,-3.09356 -0.22314,-1.51675 -0.52331,-3.55456 -0.66702,-4.52848 -0.35495,-2.40533 -0.32841,-3.37948 0.0965,-3.54254 0.30389,-0.11661 4.99876,1.47755 6.65363,2.25927 0.29104,0.13748 2.01683,0.91598 3.8351,1.73001 1.81826,0.81403 3.4206,1.59472 3.56075,1.73486 0.14015,0.14015 0.43841,1.53065 0.66281,3.08999 l 0.40801,2.83518 1.12089,0.41351 c 1.54025,0.56822 1.66611,0.75023 1.71149,2.47493 0.0538,2.04513 -0.27259,2.34659 -2.03863,1.88287 -1.12009,-0.29411 -1.38696,-0.28991 -1.74063,0.0273 -0.60811,0.54551 -1.76178,0.46972 -2.08652,-0.13706 z m 3.67562,-0.97928 c 0.76968,-0.15393 0.83391,-0.24455 0.76068,-1.07318 l -0.08,-0.90505 -6.19107,-2.10215 c -3.40509,-1.15618 -6.54877,-2.28059 -6.98596,-2.49869 -1.12421,-0.56083 -1.24276,-0.51113 -1.24276,0.52099 v 0.91754 l 2.3151,0.69587 c 7.16765,2.15443 8.03294,2.5012 8.32389,3.33581 0.38776,1.11234 1.35424,1.45804 3.10011,1.10886 z m -2.28223,-5.85114 c -0.27871,-3.01855 -0.26058,-2.9908 -2.7394,-4.19179 -2.52695,-1.22431 -9.45923,-3.95988 -9.60575,-3.79056 -0.15055,0.17399 0.6469,5.37906 0.85811,5.60101 0.20834,0.21894 10.81812,4.09481 11.33116,4.1394 0.23714,0.0206 0.27778,-0.43776 0.15588,-1.75806 z m 5.60876,-3.40629 c -3.51538,-1.50239 -5.23387,-2.20235 -9.65729,-3.93352 -7.86701,-3.07888 -10.58333,-4.34827 -10.58333,-4.94581 0,-0.26429 0.16526,-0.48052 0.36724,-0.48052 0.60729,0 20.11229,7.9392 22.87957,9.31277 1.19977,0.59552 1.62151,1.33526 0.83027,1.45634 -0.21828,0.0334 -1.94469,-0.60077 -3.83646,-1.40926 z m -1.71979,-5.95523 c -2.11005,-0.88325 -5.38427,-2.2534 -7.27604,-3.04478 -1.89177,-0.79138 -5.79107,-2.40153 -8.6651,-3.5781 -4.34399,-1.77833 -5.225524,-2.22877 -5.225524,-2.6701 0,-0.45225 0.127352,-0.50943 0.859894,-0.38608 1.50159,0.25286 23.63852,9.56715 24.37378,10.25546 0.44581,0.41735 0.41631,1.05879 -0.0477,1.03779 -0.10056,-0.005 -1.90923,-0.73093 -4.01928,-1.61419 z m 1.5875,-3.51401 c -1.18159,-0.44754 -2.48271,-1.00474 -5.29166,-2.26614 -3.80774,-1.70993 -13.00214,-5.73986 -14.81667,-6.49419 -2.931001,-1.21846 -3.701061,-1.67843 -3.534898,-2.11144 0.261547,-0.68158 0.447432,-0.62396 7.239068,2.24392 2.43198,1.02695 14.731,6.42456 16.00729,7.02504 1.66013,0.78108 2.35169,1.33192 2.12754,1.6946 -0.22332,0.36134 -0.58494,0.34216 -1.73067,-0.0918 z m -2.51354,-5.28139 c -1.60073,-0.62609 -5.47026,-2.18467 -8.59896,-3.46352 -3.12869,-1.27886 -7.22379,-2.9352 -9.10021,-3.68076 -3.333025,-1.32432 -4.280477,-1.97133 -3.714903,-2.53691 0.183432,-0.18343 0.901833,-0.0259 2.243013,0.49187 11.28607,4.35697 21.33894,8.63408 22.27368,9.4766 0.42238,0.38072 0.41691,0.88289 -0.009,0.86061 -0.10056,-0.005 -1.49251,-0.5218 -3.09324,-1.14789 z m -9.525,-9.52569 c -1.16417,-0.4792 -3.80678,-1.55545 -5.87247,-2.39167 -2.0657,-0.83622 -3.88338,-1.67411 -4.0393,-1.86198 -0.155921,-0.18787 -0.519524,-2.82731 -0.808008,-5.86542 -0.288483,-3.03811 -0.594624,-5.97032 -0.680312,-6.51602 -0.130561,-0.83148 -0.07995,-0.99219 0.312476,-0.99219 0.855228,0 10.914544,4.37896 12.231724,5.32464 0.52798,0.37907 0.67456,0.9573 1.24082,4.89479 0.35316,2.45572 0.72159,5.32815 0.81873,6.38317 0.17467,1.89707 0.16965,1.91811 -0.45519,1.9071 -0.34749,-0.006 -1.5843,-0.40321 -2.74847,-0.88242 z m 1.80404,-1.68613 c -0.21679,-2.36228 -0.15221,-2.28466 -2.92352,-3.51366 -4.54558,-2.01586 -7.80916,-3.43166 -7.91033,-3.43166 -0.1566,0 -0.11381,1.97302 0.0618,2.85121 0.14418,0.7209 0.4012,0.89901 2.57968,1.78764 4.20756,1.71631 7.43791,3.1202 7.69799,3.3455 0.49699,0.43052 0.60784,0.19755 0.49435,-1.03903 z m -0.77188,-5.42396 c -0.51961,-4.65119 -0.32361,-4.16967 -2.09049,-5.13577 -2.28259,-1.24808 -2.34364,-1.22229 -2.13647,0.90243 0.41519,4.25829 0.27921,3.95643 2.23452,4.96037 0.96472,0.49532 1.84924,0.90644 1.96561,0.9136 0.11636,0.007 0.12844,-0.73113 0.0268,-1.64063 z m -5.14787,-1.32292 c -0.008,-0.32742 -0.15855,-1.70499 -0.3344,-3.06127 l -0.31974,-2.46597 -2.44753,-1.08005 c -1.34614,-0.59403 -2.51051,-1.01707 -2.58749,-0.94009 -0.077,0.077 0.003,1.45809 0.17773,3.06914 l 0.3177,2.92918 2.40576,1.05484 c 1.32317,0.58017 2.49506,1.06265 2.6042,1.07219 0.10914,0.01 0.19184,-0.25055 0.18377,-0.57797 z m 183.10633,89.62692 c 5.03835,-1.11889 10.79059,-4.13235 11.92144,-6.24537 0.25492,-0.47631 0.20101,-0.49929 -0.79693,-0.33971 -1.82156,0.29127 -1.30428,-0.4898 1.50934,-2.27906 3.3647,-2.13971 5.26612,-4.01122 7.48829,-7.37052 2.90582,-4.3928 4.37605,-8.54726 4.67118,-13.1995 0.11969,-1.88669 0.0781,-2.4474 -0.18163,-2.4474 -0.18529,0 -1.30412,0.5912 -2.48627,1.31378 -1.86681,1.14105 -3.6185,1.97121 -5.24831,2.48728 -0.24921,0.0789 -0.80549,0.84154 -1.23618,1.69473 -0.43069,0.8532 -1.32517,2.13857 -1.98773,2.85638 l -1.20466,1.30512 0.14184,-0.92604 c 0.078,-0.50932 0.24721,-1.40229 0.37599,-1.98437 1.1365,-5.13702 0.76137,-11.33301 -0.96515,-15.94109 -1.5337,-4.09345 -4.54746,-7.72707 -8.21967,-9.91027 -9.71571,-5.77616 -24.79185,-3.917 -33.60875,4.14456 -0.7629,0.69753 -0.75225,0.85566 0.19713,2.92852 1.73428,3.78654 3.04239,9.12539 3.62022,14.77531 l 0.21297,2.08245 1.40271,0.52082 c 1.4129,0.5246 3.49208,2.21931 3.49208,2.84633 0,0.23363 -0.10208,0.25712 -0.33073,0.0761 -0.45789,-0.36255 -3.52727,-1.39042 -4.15202,-1.39042 -0.53935,0 -0.5685,0.11706 -0.95509,3.83646 -0.3218,3.09597 -1.81114,8.38796 -3.20189,11.37708 -0.33853,0.7276 -0.61668,1.46496 -0.6181,1.63856 -10e-4,0.17361 0.63773,1.00726 1.42033,1.85257 2.98933,3.22883 8.8487,5.57501 16.96563,6.79329 1.81125,0.27185 9.83995,-0.0661 11.77396,-0.49557 z M 234.71871,732.7795 c 7.85242,-2.63131 14.85859,-9.87439 14.86664,-15.36936 0.006,-4.13721 -3.37152,-12.81082 -7.01756,-18.02108 -1.7543,-2.50692 -1.68026,-2.46792 -4.02319,-2.11945 -2.10771,0.31348 -7.20365,0.41134 -6.9253,0.13299 0.2126,-0.21259 -0.46935,-0.89454 -0.89454,-0.89454 -0.93757,0 0.41362,-0.39889 4.45284,-1.31453 7.49305,-1.6986 12.29351,-3.54358 17.53277,-6.73846 4.71152,-2.87307 8.43248,-6.01893 11.59909,-9.80638 6.15716,-7.36434 9.67366,-15.15712 11.58118,-25.66459 0.68245,-3.75922 0.69426,-15.47037 0.0195,-19.31458 -0.70177,-3.99802 -1.51678,-7.27604 -1.80902,-7.27604 -0.14356,0 -0.81537,0.38141 -1.49292,0.84757 -1.70744,1.17476 -3.94571,2.0491 -5.26467,2.05657 l -1.10956,0.006 0.71269,-0.76332 c 0.39198,-0.41982 1.61729,-1.5261 2.72292,-2.45839 6.26835,-5.28562 10.76752,-12.99787 12.55247,-21.51683 0.58533,-2.79356 0.79771,-8.91005 0.42046,-12.10882 -1.15868,-9.8246 -5.47694,-17.90733 -11.06211,-20.7056 -1.36582,-0.68429 -1.80886,-0.77044 -3.92105,-0.76245 -1.94273,0.007 -2.71635,0.14001 -4.2009,0.72034 -3.53255,1.38091 -7.33309,4.7011 -10.54322,9.21066 -3.22614,4.53205 -5.29869,9.04328 -8.43229,18.3542 l -1.95901,5.82083 -0.0765,-2.15914 c -0.088,-2.48539 -0.32964,-2.78083 -2.68792,-3.28659 -2.7705,-0.59416 -5.1946,0.78682 -7.00197,3.98894 -1.4152,2.50731 -5.75912,5.58461 -10.46665,7.41473 -3.86327,1.5019 -10.52887,2.54353 -14.42741,2.25456 -5.61165,-0.41594 -9.87733,-1.71974 -17.67908,-5.40357 -3.60966,-1.70441 -6.96624,-2.89454 -8.75729,-3.10505 -2.90479,-0.3414 -6.58429,0.76677 -9.4501,2.84612 -6.17274,4.47875 -11.71609,12.18721 -14.90845,20.73132 -1.60077,4.28435 -2.72418,9.92389 -1.97685,9.92389 0.15245,0 0.87958,0.6024 1.61584,1.33867 0.73627,0.73626 1.39243,1.2849 1.45814,1.21919 0.0657,-0.0657 0.16471,-0.9004 0.21999,-1.85486 0.0961,-1.65962 0.457,-2.81967 0.87719,-2.81967 0.10802,0 0.53105,0.76817 0.94007,1.70705 0.76068,1.74608 1.81084,3.05545 2.45058,3.05545 0.19718,0 0.88927,-0.40514 1.53798,-0.90031 2.16048,-1.64913 5.10304,-2.29935 7.393,-1.63364 4.29674,1.24909 7.5782,8.13039 7.5671,15.8684 -0.008,5.29407 -0.97858,8.49517 -3.34383,11.02381 -1.89178,2.02248 -2.93841,2.48416 -5.64741,2.49115 -1.92174,0.005 -2.46299,-0.0994 -3.71995,-0.71719 -3.06192,-1.50494 -5.6656,-5.02997 -6.79454,-9.19888 -0.67926,-2.50835 -0.61043,-6.91086 0.15023,-9.60956 0.32073,-1.13791 0.52478,-2.16337 0.45344,-2.27881 -0.0713,-0.11543 -0.67427,-0.36234 -1.33982,-0.54869 -1.54645,-0.43298 -3.06135,-1.53179 -3.83285,-2.7801 -0.53716,-0.86916 -0.63573,-0.92681 -0.86971,-0.50872 -0.14514,0.25935 -0.35868,2.62384 -0.47454,5.25444 -0.11587,2.63059 -0.41175,5.79492 -0.65753,7.03185 -0.63106,3.17601 -0.65357,9.36222 -0.0422,11.59592 1.10563,4.0394 2.96629,7.5201 5.42611,10.15051 1.66334,1.77869 5.80744,4.86828 8.23184,6.13716 2.21857,1.16115 2.01688,1.15675 8.36429,0.18262 10.00996,-1.53622 27.69894,-1.39997 34.04006,0.26219 1.81561,0.47591 2.03286,0.84207 2.88523,4.86287 0.74047,3.49301 1.0013,4.10139 1.76248,4.11093 0.68886,0.009 3.19247,1.29377 4.13836,2.12427 1.11795,0.98158 1.83325,2.24993 2.67427,4.74196 0.62846,1.86216 0.58987,1.82673 3.0122,2.7657 3.56055,1.38017 8.37389,4.93436 9.71441,7.17316 0.27395,0.45753 0.32023,0.65366 0.10924,0.46302 -0.57569,-0.52015 -0.86227,-0.38935 -0.72462,0.33073 0.0695,0.3638 0.0738,0.66146 0.01,0.66146 -0.0643,0 -1.56582,-0.87813 -3.33674,-1.9514 -3.28605,-1.99151 -7.08078,-3.88229 -8.86366,-4.41646 -1.87871,-0.56287 -2.16678,-0.36823 -3.55066,2.39911 -0.69133,1.38245 -1.57653,3.70417 -1.9671,5.15937 -0.61638,2.29651 -0.71197,3.16983 -0.72404,6.61459 -0.0203,5.78815 0.89026,8.37914 4.0514,11.52873 4.21138,4.19598 10.34961,5.48231 16.43316,3.44375 z m -41.77619,-58.73488 c -0.70633,-0.65982 -0.82173,-0.95252 -0.82173,-2.08427 0,-1.33481 0.44031,-2.07253 1.10478,-1.85104 0.18085,0.0603 0.45274,0.75614 0.60421,1.54636 0.24049,1.25469 0.38436,1.48473 1.13528,1.81524 0.92462,0.40697 1.11695,0.92148 0.44138,1.18072 -0.86818,0.33315 -1.66855,0.13597 -2.46392,-0.60701 z m 27.81416,0.3738 c -2.12614,-0.59742 -2.95095,-1.11405 -4.84088,-3.03215 -2.74409,-2.785 -3.91477,-6.43807 -3.60276,-11.24237 0.36233,-5.579 2.46772,-10.19063 6.29642,-13.79158 2.84343,-2.67429 5.71258,-3.81926 9.57059,-3.81926 3.68564,0 5.76482,0.71312 8.85757,3.03799 l 1.64381,1.23567 0.86291,-0.59746 c 0.4746,-0.3286 1.36626,-1.05204 1.98147,-1.60766 0.61522,-0.55561 1.22641,-1.0102 1.35822,-1.0102 0.63437,0 0.46808,3.19761 -0.23456,4.5105 -0.15528,0.29013 -0.2032,0.65552 -0.10651,0.81198 0.23068,0.37324 2.20315,0.0763 3.87778,-0.58378 0.70518,-0.27795 1.45632,-0.50537 1.66922,-0.50537 1.10471,0 -0.27196,2.90986 -1.9113,4.0399 -0.5549,0.38251 -1.54225,0.81412 -2.19412,0.95914 -1.54358,0.34339 -2.70424,-0.16578 -5.0325,-2.20769 -3.4871,-3.05823 -5.97722,-4.35434 -9.53915,-4.96514 -2.08899,-0.35822 -2.57766,-0.12801 -1.45027,0.68322 0.43149,0.31049 1.32446,1.06778 1.98437,1.68287 1.07182,0.99903 1.13492,1.119 0.59139,1.12448 -1.06769,0.0108 -2.1277,0.76644 -2.88699,2.05813 -0.63764,1.08475 -0.73789,1.53656 -0.73789,3.32552 0,2.06463 0.003,2.07274 1.02141,3.0069 0.95933,0.87976 1.10858,0.92945 2.45588,0.81772 1.17699,-0.0976 1.59592,-0.27543 2.33386,-0.99066 0.49465,-0.47944 1.00536,-1.30277 1.1349,-1.82962 l 0.23552,-0.9579 0.47426,1.5875 c 1.42891,4.78311 0.33718,10.61885 -2.63639,14.09252 -1.16715,1.36344 -3.79737,3.25263 -5.38961,3.87116 -1.64701,0.6398 -4.11338,0.76581 -5.78665,0.29564 z m 4.65172,-13.904 c 1.15694,-1.07785 0.49196,-3.16469 -1.00844,-3.16469 -1.44644,0 -2.24525,1.81005 -1.31867,2.98801 0.67134,0.85347 1.53063,0.91871 2.32711,0.17668 z m -42.05261,12.79957 c -0.2477,-0.30008 -0.26993,-0.4713 -0.0699,-0.53871 0.16127,-0.0543 0.51186,-0.25868 0.77909,-0.45409 0.43543,-0.31839 0.45179,-0.46905 0.15756,-1.4511 -0.36712,-1.22534 -0.24699,-1.61411 0.49876,-1.61411 0.63635,0 1.31409,1.26384 1.31409,2.45051 0,1.62804 -1.78078,2.69634 -2.67958,1.6075 z m -0.76,-6.45734 c 0,-0.52561 0.63885,-1.48508 1.3898,-2.0873 1.82841,-1.46627 5.3705,-2.00739 7.98654,-1.22008 1.31467,0.39566 3.32366,1.58494 3.32366,1.96754 0,0.12214 -0.60577,0.0649 -1.34616,-0.12712 -3.7798,-0.98047 -6.7273,-0.73006 -9.70019,0.82409 -0.90951,0.47546 -1.65365,0.76476 -1.65365,0.64287 z m 38.64757,-38.98579 c -0.54011,-0.65079 -0.0413,-2.01316 0.99198,-2.70951 2.40301,-1.61938 8.54508,-1.52785 10.34569,0.15417 0.85649,0.80008 1.29932,2.02215 0.88344,2.43803 -0.17427,0.17427 -1.1535,0.15186 -2.90265,-0.0664 -2.6467,-0.33031 -2.7373,-0.32498 -8.02492,0.47207 -0.67205,0.10131 -1.03784,0.0198 -1.29354,-0.28833 z m -44.18435,-2.99332 c -0.9026,-0.42629 -2.27808,-0.77527 -3.70417,-0.93979 -2.81741,-0.32503 -3.20536,-0.61169 -2.58591,-1.9107 0.51618,-1.08244 1.30416,-1.45696 3.04669,-1.44809 1.81202,0.009 3.11834,0.37772 4.33979,1.22418 1.29643,0.89843 1.90761,2.14186 1.53478,3.12248 -0.317,0.83378 -0.78198,0.82528 -2.63118,-0.0481 z m 84.16568,-10.01478 c 0.30743,-0.52106 0.58811,-1.21286 0.62373,-1.53733 0.0356,-0.32447 0.51058,-1.28688 1.05547,-2.13868 1.51782,-2.37273 2.90611,-5.33666 3.92226,-8.37381 1.43364,-4.28499 1.82663,-6.68778 1.91646,-11.71724 0.0574,-3.21679 0.17267,-4.53116 0.41009,-4.67789 1.28619,-0.7949 2.87225,3.15098 2.87225,7.1457 0,4.00241 -1.12465,8.31575 -3.42049,13.11851 -1.9178,4.01192 -4.21778,7.10041 -6.15731,8.26823 -0.78547,0.47294 -1.50762,0.8599 -1.60478,0.8599 -0.0972,0 0.0749,-0.42633 0.38232,-0.94739 z m -3.17868,-9.09927 c -0.44677,-1.01437 -1.09866,-1.05752 -1.11266,-0.0737 -0.0102,0.71477 -0.0178,0.71127 -0.43408,-0.19844 -0.66193,-1.44664 -0.79909,-8.20864 -0.23414,-11.54367 1.39682,-8.2458 5.84506,-15.89381 10.65605,-18.32134 1.75158,-0.88381 3.78086,-0.67355 3.78086,0.39174 0,0.17535 -0.54101,0.63587 -1.20224,1.02338 -2.64371,1.54932 -5.73991,5.32099 -7.40691,9.02283 -2.23084,4.95392 -3.28281,9.74811 -3.52422,16.06113 -0.15317,4.00557 -0.20423,4.36099 -0.52266,3.63802 z m 0.10496,120.09215 c 1.11671,-1.17105 4.00257,-3.26626 5.61281,-4.07504 2.27285,-1.14158 1.77024,-1.49395 -1.13153,-0.79329 -1.95874,0.47296 -4.97828,0.48401 -7.33998,0.0269 -0.98105,-0.1899 -1.8348,-0.29419 -1.89723,-0.23176 -0.0624,0.0624 0.54826,1.14491 1.35709,2.40551 0.80883,1.2606 1.63556,2.55989 1.83718,2.88732 0.47757,0.77552 0.63364,0.75358 1.56166,-0.21961 z M 92.763535,722.97646 c 0.08652,-0.13999 -0.152779,-1.53897 -0.531765,-3.10886 -1.020306,-4.22643 -2.635743,-12.55971 -3.423709,-17.66131 -0.381276,-2.46852 -0.748983,-4.54398 -0.817126,-4.61212 -0.229811,-0.22981 -1.976114,1.66699 -3.306472,3.59142 -2.592818,3.75064 -3.857151,7.17729 -4.131537,11.19747 -0.31104,4.55722 1.193117,7.57986 4.676204,9.39695 2.134604,1.11361 7.098442,1.90185 7.534405,1.19645 z m 170.680085,-5.13581 c 0.88281,-0.18957 2.25203,-0.68897 3.04271,-1.1098 1.54724,-0.8235 5.53862,-4.56677 5.53862,-5.19433 0,-0.31122 -0.40869,-0.36007 -2.21798,-0.2651 -2.75406,0.14455 -4.40531,-0.3479 -6.0649,-1.80873 -1.41845,-1.24857 -2.10303,-2.78792 -2.11354,-4.75255 -0.0144,-2.68788 0.98971,-3.79054 5.34053,-5.86478 6.23747,-2.9737 9.85453,-5.53589 14.25016,-10.09428 2.3263,-2.41244 2.95879,-3.34379 2.02832,-2.98674 -0.23049,0.0884 -1.21998,0.23526 -2.19886,0.32623 -4.08934,0.38007 -7.17733,-1.82454 -7.16916,-5.11828 0.003,-1.40215 1.01352,-3.00542 4.63084,-7.35069 1.69599,-2.03729 3.73012,-4.67227 4.52028,-5.85552 4.78784,-7.16964 6.98598,-14.20227 6.98598,-22.35063 0,-8.56178 -2.1889,-16.30259 -7.02537,-24.8445 -1.52094,-2.6862 -1.98598,-3.25905 -2.17801,-2.68296 -0.0586,0.17569 -1.05851,1.58402 -2.2221,3.1296 -1.16359,1.54559 -2.16941,2.95034 -2.23515,3.12166 -0.0657,0.17133 0.18129,1.46933 0.54897,2.88444 1.61635,6.22099 1.85498,8.39718 1.84572,16.83229 -0.008,7.39634 -0.0462,7.99695 -0.72692,11.46549 -1.87374,9.54736 -4.13387,15.46892 -8.24708,21.60742 -3.81882,5.69915 -7.43109,9.29673 -13.09756,13.04429 -3.13538,2.0736 -8.23746,4.68721 -10.92541,5.59668 -0.9885,0.33446 -1.86208,0.67292 -1.94128,0.75212 -0.0792,0.0792 0.68047,1.16321 1.68818,2.4089 1.94379,2.40286 4.33197,6.72367 5.4473,9.85552 0.7816,2.19474 1.49788,5.72878 1.49788,7.39037 v 1.15401 l 1.52135,0.42349 c 0.83675,0.23293 1.64042,0.46498 1.78594,0.51567 0.69495,0.2421 6.26919,0.0759 7.69054,-0.22929 z m -97.78116,-24.24281 c 4.58391,-0.13684 11.48953,-0.3864 15.34583,-0.5546 7.13872,-0.31136 18.49143,-0.18155 23.41563,0.26774 6.42699,0.58642 7.14697,0.6215 6.87916,0.3352 -0.40418,-0.43208 -5.61527,-1.58739 -9.11344,-2.02047 -11.1069,-1.37506 -28.96396,-1.14639 -41.55426,0.53213 -4.44388,0.59245 -10.62348,1.65458 -10.81476,1.85881 -0.091,0.0972 1.56096,0.0987 3.67101,0.003 2.11005,-0.0953 7.58692,-0.28529 12.17083,-0.42212 z m -34.13125,-0.0864 c 0,-0.37301 -5.36145,-8.49266 -7.36808,-11.15859 -6.31699,-8.3925 -13.60545,-16.34544 -18.42879,-20.10893 -4.64837,-3.62695 -8.070552,-5.44403 -13.939941,-7.40169 -4.318309,-1.44032 -9.740268,-2.45203 -9.740268,-1.81748 0,0.0951 0.446484,0.60113 0.992187,1.12448 0.545703,0.52335 1.230312,1.27999 1.521354,1.68143 0.440328,0.60736 1.135152,0.90542 4.138705,1.77543 5.846633,1.69354 8.373594,2.81913 14.484193,6.45175 8.68851,5.16513 15.8108,12.33635 24.90106,25.07214 0.65484,0.91746 1.63711,2.26504 2.18281,2.99462 0.5457,0.72958 0.99219,1.41901 0.99219,1.53207 0,0.11306 0.0595,0.20556 0.13229,0.20556 0.0728,0 0.13229,-0.15786 0.13229,-0.35079 z m 8.5873,-1.51053 c 4.68267,-2.08126 14.61402,-5.41173 19.32624,-6.48105 4.0433,-0.91753 4.20297,-1.00164 3.08177,-1.62356 -0.481,-0.26681 -1.69926,-1.11109 -2.70725,-1.87618 l -1.8327,-1.39106 -2.04904,1.63277 c -2.93862,2.34165 -5.52106,3.44926 -10.7442,4.6082 -3.0365,0.67375 -4.88993,1.54524 -6.53624,3.07335 -1.1722,1.08803 -2.36338,2.82873 -2.36338,3.45365 0,0.42659 0.11677,0.41066 1.25677,-0.17152 0.69123,-0.35299 1.84684,-0.90406 2.56803,-1.2246 z m 5.49625,1.07995 c 5.46345,-1.57091 11.72386,-2.86171 17.26958,-3.5607 7.26936,-0.91624 10.45962,-1.06878 22.48958,-1.0753 12.91305,-0.007 15.73769,0.18839 21.27245,1.47148 1.22235,0.28336 2.27754,0.46013 2.34486,0.39281 0.14716,-0.14716 -0.66183,-3.85921 -0.93535,-4.29183 -0.66084,-1.04522 -17.90619,-1.80206 -26.5794,-1.16647 -6.59372,0.4832 -14.60951,1.61505 -20.04735,2.83073 -6.03628,1.34948 -18.10406,5.12887 -18.8917,5.91651 -0.42193,0.42193 0.13886,0.32767 3.07733,-0.51723 z m -22.47092,-7.26752 c -0.47938,-0.85181 -5.38729,-6.30394 -8.12401,-9.02484 -7.51007,-7.46665 -16.653079,-13.17182 -26.083731,-16.27606 -2.330886,-0.76725 -6.830885,-1.71449 -7.059387,-1.48599 -0.07156,0.0716 0.341795,0.9847 0.918569,2.0292 l 1.048679,1.89908 2.478522,0.87482 c 8.017309,2.82977 18.202748,8.09228 26.423318,13.65214 3.21686,2.17568 5.89008,4.33487 8.72741,7.04927 1.81841,1.73962 2.01125,1.88765 1.67063,1.28238 z m 21.78847,-12.16394 c 1.48288,-0.39483 3.50495,-1.4163 4.71732,-2.38301 l 0.76778,-0.61221 -0.6457,-2.74962 c -0.55766,-2.37469 -0.64309,-3.36295 -0.62653,-7.24754 0.0168,-3.94031 0.11045,-4.89152 0.75547,-7.67292 0.56222,-2.4243 0.78822,-4.26977 0.95585,-7.8052 0.65399,-13.79321 5.67238,-26.17285 14.3093,-35.29895 1.3231,-1.39804 3.13698,-3.09848 4.03084,-3.77876 3.41461,-2.59871 7.2798,-4.03478 10.88561,-4.04444 2.45644,-0.007 6.6446,1.1368 10.26221,2.80162 9.14442,4.20823 11.13649,4.89194 16.17178,5.55041 2.55709,0.3344 3.6537,0.35764 5.82083,0.12336 3.1574,-0.34134 7.00801,-1.25712 9.56421,-2.27462 3.78755,-1.50765 7.79941,-4.47251 8.80666,-6.50833 l 0.55734,-1.12649 -0.96146,-1.73284 c -0.5288,-0.95306 -1.37166,-2.37981 -1.873,-3.17056 l -0.91155,-1.43773 -1.04078,1.99404 c -1.99541,3.823 -5.13906,6.90668 -9.25518,9.07862 -3.12057,1.64661 -6.97166,2.23602 -9.62439,1.47302 -1.77797,-0.5114 -3.65959,-2.42844 -4.9469,-5.04002 -1.11464,-2.26128 -3.04025,-7.49449 -5.62797,-15.29501 l -1.78246,-5.37313 -1.49425,-0.67348 c -2.24281,-1.01087 -5.58413,-2.11136 -8.03788,-2.64734 -3.12726,-0.6831 -11.75016,-0.68345 -15.26244,-6.2e-4 -15.20756,2.95653 -27.05483,12.50785 -32.29857,26.03926 -2.70931,6.99135 -3.02145,14.8226 -0.92831,23.2902 1.02083,4.1297 2.3747,7.89943 5.29537,14.74449 2.43758,5.71287 3.03424,7.84212 3.22519,11.50938 0.25212,4.84217 -1.04025,7.93197 -4.20036,10.04222 -2.00609,1.33961 -3.27692,1.71315 -5.7758,1.69771 -3.22663,-0.0199 -5.59217,-1.44121 -7.64986,-4.59618 l -0.94909,-1.45521 -0.0862,1.05833 c -0.14833,1.82188 0.21298,3.24258 1.45629,5.72621 2.00996,4.0151 5.40722,6.7494 9.66749,7.78096 1.87267,0.45344 5.05459,0.46024 6.7291,0.0144 z m 25.80255,-18.85422 c 0.26612,-0.24084 0.48385,-0.76056 0.48385,-1.15494 0,-0.88781 -0.92512,-2.11134 -1.5964,-2.11134 -0.73435,0 -1.5786,1.04142 -1.5786,1.94728 0,1.52857 1.59549,2.31056 2.69115,1.319 z m 5.50591,-2.37936 c 1.73674,-1.02592 2.12574,-4.04965 0.81498,-6.33493 -1.29898,-2.26473 -3.13301,-2.6951 -4.40097,-1.03272 -2.73872,3.59065 0.10147,9.42601 3.58599,7.36765 z m 37.7542,-48.46041 c 2.67782,-0.98265 5.36506,-2.69737 7.40238,-4.72341 1.80708,-1.79709 4.17881,-5.22806 4.61087,-6.67016 0.26846,-0.89603 0.22454,-1.15047 -0.42044,-2.43601 -0.93493,-1.86343 -4.05613,-7.06676 -4.34669,-7.24634 -0.12355,-0.0764 -0.42666,0.36642 -0.67358,0.98394 -1.18055,2.95245 -4.74113,7.02443 -7.9208,9.05843 -2.09562,1.34055 -4.48306,2.40083 -6.60765,2.93451 -1.03123,0.25904 -1.74744,0.57978 -1.74744,0.78257 0,0.99022 2.45215,7.01507 3.26672,8.02623 0.48185,0.59815 3.89944,0.2213 6.43663,-0.70976 z m 28.67393,-6.93068 c 0.66057,-4.49973 2.19408,-8.85457 4.89144,-13.89062 0.77942,-1.45521 1.89985,-3.29242 2.48983,-4.08268 0.58999,-0.79027 1.0727,-1.58998 1.0727,-1.77714 0,-0.51782 -3.33705,-3.65384 -5.43537,-5.10793 -2.25526,-1.56286 -5.98439,-3.4469 -8.32296,-4.20496 -4.212,-1.36535 -6.08111,-1.67014 -11.14498,-1.8174 -4.75155,-0.13818 -10.11704,0.23036 -10.41688,0.71552 -0.0685,0.11088 1.16116,2.15115 2.73264,4.53393 4.2398,6.42864 4.48383,6.83226 7.28396,12.04802 2.22024,4.13563 5.34638,10.58046 7.26762,14.9829 l 0.55308,1.26735 1.13467,-0.58608 c 0.81448,-0.4207 1.62578,-0.59168 2.87495,-0.6059 1.50569,-0.0171 1.91584,0.0903 3.04271,0.79665 1.54028,0.96555 1.49346,1.01936 1.97659,-2.27166 z m -36.76285,-3.66855 c 3.54993,-1.19995 6.06222,-2.69935 8.647,-5.16074 2.4762,-2.358 5.08441,-6.34087 5.08441,-7.76416 0,-0.58369 -5.19176,-9.07113 -5.5488,-9.07113 -0.12555,0 -0.44319,0.56555 -0.70586,1.25677 -1.35489,3.56532 -5.97505,8.76752 -10.47129,11.79043 -1.12287,0.75492 -2.0456,1.55308 -2.05052,1.77368 -0.007,0.30814 1.5156,4.94142 2.49816,7.60256 0.15458,0.41865 -0.0651,0.45552 2.5469,-0.42741 z m -1.70721,-12.98547 c 3.12323,-2.74871 5.77687,-5.97125 7.25207,-8.80677 0.97987,-1.88344 1.0661,-2.192 0.78617,-2.81327 -0.17293,-0.3838 -1.57987,-2.64977 -3.12654,-5.0355 -2.36222,-3.64373 -2.85623,-4.26406 -3.08791,-3.87747 -2.3007,3.83914 -5.38978,7.47042 -8.45152,9.93495 -1.80046,1.44927 -1.81982,1.08495 0.4217,7.9375 2.04507,6.25197 1.88751,5.95588 2.86285,5.37973 0.42409,-0.25051 1.92852,-1.47414 3.34318,-2.71917 z M 158.651,578.13359 c 4.18624,-1.98922 10.73734,-3.75998 15.80886,-4.27313 0.98226,-0.0994 1.78593,-0.27642 1.78593,-0.39339 0,-0.47557 -3.74004,-3.00725 -6.21771,-4.20885 -3.12098,-1.5136 -4.45462,-1.86636 -7.06247,-1.86813 -3.51134,-0.002 -6.10387,1.5109 -7.50911,4.38311 -0.626,1.27949 -0.6958,1.68033 -0.58585,3.36403 0.1193,1.82688 1.02516,4.33642 1.47946,4.0986 0.10132,-0.053 1.13673,-0.54905 2.30089,-1.10224 z m 34.78517,-2.43475 c -0.1813,-0.64753 -0.41503,-1.2301 -0.51941,-1.29461 -0.22023,-0.13611 -2.90709,1.239 -2.91041,1.48953 -0.001,0.0924 0.62285,0.37179 1.38684,0.62088 0.76398,0.2491 1.56765,0.55306 1.78594,0.67547 0.56461,0.31662 0.64028,-0.12244 0.25704,-1.49127 z m 4.58362,-9.56421 c 2.82371,-2.85455 5.27414,-5.92118 6.24548,-7.81603 l 0.6351,-1.23893 -1.00554,-1.52486 c -1.69492,-2.57029 -5.0189,-7.20751 -5.16855,-7.21054 -0.0778,-0.002 -0.36242,0.38408 -0.63255,0.85703 -0.83663,1.46473 -3.17396,4.48304 -4.86611,6.28385 -0.88881,0.94589 -1.61876,1.83885 -1.62211,1.98438 -0.003,0.14552 0.53347,2.05052 1.19292,4.23333 0.65945,2.18281 1.39735,4.65336 1.63977,5.4901 0.24242,0.83675 0.5733,1.52136 0.73527,1.52136 0.16198,0 1.44282,-1.16086 2.84632,-2.57969 z m -6.69275,-11.64437 c 0,-0.11063 0.2809,-0.50408 0.62422,-0.87433 1.05238,-1.13495 3.88366,-5.05055 4.4389,-6.13892 l 0.52475,-1.02858 -0.67007,-0.87852 c -0.80539,-1.05591 -2.62782,-1.99138 -3.87685,-1.99002 -1.1451,10e-4 -2.56273,0.85005 -2.89963,1.73615 -0.42501,1.11787 -0.29672,2.88123 0.42762,5.87769 0.37709,1.55991 0.73054,2.98504 0.78545,3.16694 0.10725,0.3553 0.64561,0.46336 0.64561,0.12959 z"
       id="path1" /></g></svg>
