<?xml version="1.0" encoding="UTF-8" standalone="no"?>
<!-- Created with Inkscape (http://www.inkscape.org/) -->

<svg
   width="191.96138mm"
   height="220.43945mm"
   viewBox="0 0 191.9614 220.43947"
   version="1.1"
   id="svg1"
   xml:space="preserve"
   xmlns="http://www.w3.org/2000/svg"
   xmlns:svg="http://www.w3.org/2000/svg"><defs
     id="defs1" /><g
     id="layer1"
     transform="translate(-130.21437,-550.23659)"><path
       style="fill:#000000"
       d="m 226.97882,770.36186 c -2.24045,-0.6221 -5.13603,-2.08873 -6.39915,-3.24121 l -1.14147,-1.04149 -4.42393,-0.17554 c -2.43316,-0.0965 -4.59146,-0.23983 -4.79622,-0.3184 -0.26021,-0.0999 -0.42459,0.13591 -0.54601,0.78309 -0.33852,1.80448 -1.95358,2.53806 -7.33769,3.33287 -3.13579,0.4629 -19.13332,0.51892 -24.43573,0.0856 -10.02504,-0.81933 -16.04141,-2.33766 -16.86463,-4.25604 -0.16948,-0.39494 -0.32209,-0.74621 -0.33914,-0.7806 -0.0171,-0.0344 -0.97521,0.13425 -2.12924,0.37475 -1.54737,0.32247 -3.59172,0.44308 -7.78678,0.4594 -5.25024,0.0204 -5.85996,-0.0268 -7.91327,-0.61348 -3.93324,-1.12373 -6.66442,-3.52379 -8.85301,-7.7797 -1.19982,-2.33315 -1.44098,-3.28524 -1.8217,-7.19201 -0.33918,-3.48062 -0.0499,-5.65536 0.98772,-7.42597 0.76729,-1.30927 2.67434,-2.86212 3.24571,-2.64287 0.19751,0.0758 0.29199,0.0292 0.20994,-0.10356 -0.18258,-0.29543 1.59251,-0.97086 5.94253,-2.26114 1.81901,-0.53955 3.41098,-1.0794 3.53772,-1.19967 0.12974,-0.12312 0.0374,-0.77701 -0.21128,-1.49636 -0.60827,-1.75941 -0.81801,-6.06327 -0.43514,-8.92901 0.98398,-7.3649 5.62939,-14.00666 12.65297,-18.0905 l 1.65364,-0.96152 v -1.97985 -1.97985 l -1.22349,-1.07661 c -1.09287,-0.96168 -1.23738,-1.2212 -1.35361,-2.43087 -0.24597,-2.55984 1.07374,-4.71402 3.61797,-5.90568 0.73721,-0.34529 1.34038,-0.71997 1.34038,-0.83262 0,-0.11265 -1.0418,-0.91869 -2.3151,-1.79121 -4.26989,-2.92588 -7.52038,-6.73061 -9.87076,-11.55383 -1.45407,-2.98389 -2.11241,-5.72983 -2.28022,-9.51072 -0.13695,-3.08584 0.0325,-4.41665 1.14856,-9.02095 l 0.13436,-0.55428 -1.94123,0.53139 c -2.73802,0.74949 -8.61829,0.78738 -11.06936,0.0713 -2.66278,-0.77791 -4.93205,-1.88127 -5.42898,-2.63968 -0.6587,-1.00531 -0.32017,-1.84906 1.23516,-3.07848 0.74454,-0.58852 1.57876,-1.35615 1.85384,-1.70585 0.82002,-1.04249 2.04543,-3.87845 2.3345,-5.40271 0.14854,-0.78322 0.27007,-4.9848 0.27007,-9.33684 0,-10.58681 0.56925,-15.70859 2.52371,-22.70663 1.12659,-4.03384 2.83546,-8.49828 4.7093,-12.30312 l 1.04244,-2.11667 -0.45944,-3.30729 c -0.25269,-1.81901 -0.55714,-5.50995 -0.67654,-8.20208 -0.54273,-12.23654 1.30587,-18.52084 5.44814,-18.52084 2.14849,0 6.82994,3.05723 10.66719,6.96622 l 1.69126,1.72288 2.14519,-1.74659 c 4.12291,-3.35683 8.41286,-5.94786 13.47257,-8.13713 l 3.22472,-1.3953 0.31781,-4.79721 c 0.65539,-9.89283 1.78526,-13.12228 4.83036,-13.80647 1.3704,-0.30791 2.96984,0.0765 4.2039,1.01029 1.128,0.85356 3.20895,3.71487 6.39063,8.7871 l 2.51354,4.00708 1.05834,-0.14159 c 0.58208,-0.0779 3.767,-0.21643 7.0776,-0.3079 3.3106,-0.0915 6.01927,-0.20118 6.01927,-0.24381 0,-0.0426 -0.41007,-0.89066 -0.91127,-1.88452 -1.31345,-2.60451 -1.65211,-4.13546 -1.10089,-4.97672 0.23724,-0.36209 0.75024,-0.73837 1.13999,-0.8362 1.68213,-0.42218 5.75311,1.41741 10.70715,4.83835 6.32644,4.36864 8.51246,5.74465 10.49674,6.60725 1.10258,0.47931 2.04215,0.83402 2.08793,0.78824 0.0458,-0.0458 -0.15788,-0.64574 -0.45258,-1.33324 -0.73026,-1.70362 -0.7027,-3.07379 0.0765,-3.80585 2.31647,-2.17622 10.11026,2.34893 13.96058,8.10565 1.41996,2.12302 3.24546,5.78147 4.20298,8.42312 0.58319,1.60894 0.61027,1.63628 2.59038,2.6149 1.35488,0.66962 2.64488,1.60626 3.99494,2.90065 l 1.99391,1.91168 2.79273,-2.26373 c 3.81285,-3.09062 8.45513,-6.08406 12.65288,-8.15885 2.91606,-1.4413 3.80024,-1.75823 5.22409,-1.87252 1.53381,-0.12312 1.82442,-0.0645 2.76525,0.55815 2.89383,1.91505 5.40562,11.35865 6.10683,22.95995 0.40769,6.74523 0.0671,11.77082 -1.35137,19.9405 l -0.32157,1.85208 2.29563,3.57188 c 6.66157,10.36505 9.68453,19.82138 9.68453,30.29479 0,10.70079 -3.05242,20.53386 -9.42887,30.3742 -1.93916,2.99256 -3.77672,5.40973 -8.25796,10.86268 -3.4003,4.13763 -4.58597,5.83904 -5.92675,8.50478 -1.79507,3.56893 -2.59468,7.3823 -2.20387,10.51026 l 0.1813,1.45104 2.96235,0.15668 c 3.58162,0.18943 5.46341,0.65179 8.25401,2.02803 2.82503,1.39322 5.15201,3.36399 6.69376,5.6691 1.67487,2.50415 2.5462,4.62326 3.71428,9.03332 l 0.96905,3.65859 1.62978,1.1149 c 2.5111,1.7178 4.23917,2.26655 7.63885,2.42574 4.21132,0.19719 6.697,-0.44567 10.44944,-2.70249 2.33862,-1.40651 3.45523,-1.5495 4.12445,-0.52816 0.92085,1.4054 -0.25913,5.49088 -2.56779,8.89053 -1.30602,1.9232 -4.33828,4.95726 -5.67232,5.67569 -0.50492,0.27191 -0.91804,0.64741 -0.91804,0.83444 0,0.37989 -2.10604,1.3732 -4.05378,1.91195 -1.84049,0.50908 -8.14873,0.2087 -10.69339,-0.50919 -1.4736,-0.41573 -2.69346,-0.54022 -5.29341,-0.54022 -1.8582,0 -3.79447,-0.13548 -4.30283,-0.30107 -0.53946,-0.17571 -3.29193,-0.33186 -6.61092,-0.37502 -4.77568,-0.0621 -6.0684,0.007 -8.0698,0.42921 -1.31074,0.27674 -2.91894,0.5085 -3.57378,0.51502 -0.65485,0.007 -2.02407,0.24304 -3.04271,0.52561 -1.11905,0.31041 -2.70889,0.5168 -4.01688,0.52146 l -2.16479,0.008 -1.25659,2.38326 c -0.69112,1.31079 -1.80301,3.0295 -2.47086,3.81936 -4.55317,5.38499 -11.79343,9.18373 -18.4013,9.65461 -1.60073,0.11407 -3.2676,0.35632 -3.70416,0.53832 -1.26303,0.52657 -6.35154,0.61099 -8.0698,0.13389 z m 12.03855,-4.05905 c 6.44557,-1.60208 11.11455,-4.12464 14.83972,-8.01764 3.04092,-3.17792 4.88135,-7.06736 5.5417,-11.71146 1.2179,-8.56527 -0.56637,-18.93095 -5.62757,-32.69337 -0.93653,-2.54661 -2.31297,-6.39368 -3.05875,-8.54904 -1.22497,-3.54022 -1.40808,-3.90397 -1.89533,-3.76502 -7.55619,2.15481 -14.15713,3.05303 -22.4393,3.05342 -4.53392,2.2e-4 -4.7373,0.0232 -5.68854,0.64389 -0.54258,0.35402 -1.41725,0.7215 -1.94371,0.81663 -0.95114,0.17187 -0.95908,0.18443 -1.25677,1.98699 -0.48582,2.94179 -0.50826,2.88128 0.95719,2.58128 1.58633,-0.32474 6.36664,-1.77366 9.39788,-2.84849 2.06328,-0.73162 2.40029,-0.78439 3.04271,-0.47649 0.5483,0.26279 0.72243,0.53672 0.72243,1.13644 0,0.64605 -0.22448,0.94021 -1.23073,1.61272 -3.02866,2.02413 -7.76754,3.48346 -15.82541,4.87341 -5.50161,0.94901 -7.6595,1.79775 -9.29521,3.65602 -3.1718,3.60336 -2.01713,10.41577 2.58886,15.27399 1.64593,1.73606 3.64406,2.99436 6.58318,4.14569 3.58942,1.40607 5.62143,1.78596 9.65167,1.80442 5.94094,0.0272 10.38158,-1.61607 17.59178,-6.50995 3.89576,-2.64422 5.86093,-3.73132 6.17586,-3.4164 0.0833,0.0833 -0.18923,0.80217 -0.60563,1.59748 -0.879,1.67886 -3.47476,4.57265 -5.4965,6.12756 -3.25032,2.49982 -9.63739,5.12745 -14.54313,5.98303 -4.97862,0.86829 -7.39835,3.23252 -8.16722,7.97991 -0.66003,4.07539 0.71002,9.31315 3.16848,12.11318 0.93544,1.06541 3.58956,2.53591 5.43525,3.01138 1.96361,0.50585 8.66465,0.2646 11.37709,-0.40958 z m -38.75984,0.0961 c 4.92949,-0.59357 5.78429,-0.86538 5.82095,-1.85091 0.005,-0.14552 0.47062,-3.36021 1.03379,-7.14375 0.56316,-3.78354 0.99161,-6.91445 0.9521,-6.95756 -0.0395,-0.0431 -1.30656,0.0402 -2.81567,0.18516 -10.24141,0.9837 -25.11171,0.37523 -35.65451,-1.45892 -2.12652,-0.36995 -4.22845,-0.73461 -4.67096,-0.81036 l -0.80455,-0.13772 0.10617,7.50011 c 0.0635,4.48568 0.21351,7.63271 0.37323,7.83001 0.69256,0.85548 7.04193,2.14654 13.82971,2.81208 5.25975,0.51572 17.66106,0.53382 21.82974,0.0319 z m 16.28693,-5.95563 c -0.37744,-1.04636 -0.82866,-3.02988 -1.00269,-4.40781 -0.5792,-4.58582 0.64713,-9.15418 3.1216,-11.62865 l 1.12,-1.12 -1.09863,-0.17094 c -0.60424,-0.094 -2.09316,-0.46728 -3.30871,-0.82946 -1.21555,-0.36219 -2.26759,-0.60103 -2.33787,-0.53074 -0.0703,0.0703 -0.28611,1.29824 -0.47961,2.7288 -0.19351,1.43056 -0.77858,5.57005 -1.30015,9.19888 -1.13371,7.88764 -1.13811,7.99034 -0.35301,8.24067 0.53843,0.17168 6.03065,0.58546 6.23845,0.47 0.0478,-0.0266 -0.22194,-0.90439 -0.59938,-1.95075 z m -60.20938,1.31473 c 0.94588,-0.14203 2.30215,-0.39198 3.01393,-0.55542 l 1.29414,-0.29718 -0.1917,-8.68652 c -0.10543,-4.77759 -0.22289,-8.8991 -0.26103,-9.15892 -0.083,-0.56536 -0.0197,-0.56299 -2.62454,-0.0979 -3.67807,0.65667 -6.675,-0.28664 -8.82593,-2.77806 -0.95231,-1.10305 -1.30624,-1.35647 -1.57869,-1.13036 -0.19315,0.1603 -0.35118,0.20276 -0.35118,0.0944 0,-0.1084 -0.17708,-0.0501 -0.39351,0.12949 -0.21642,0.17962 -0.5798,0.2551 -0.80749,0.16772 -0.22769,-0.0874 -0.35139,-0.0576 -0.27488,0.0662 0.0765,0.12379 -0.78052,0.48674 -1.90449,0.80656 -1.12397,0.31981 -2.51984,0.75048 -3.10192,0.95702 -0.58209,0.20655 -1.35599,0.30816 -1.71979,0.2258 -0.54193,-0.12269 -0.58974,-0.0936 -0.26459,0.16074 0.33003,0.25819 0.29654,0.28849 -0.1988,0.17992 -0.32762,-0.0718 -0.53616,-0.0343 -0.46341,0.0834 0.14376,0.23263 -1.71311,1.45962 -2.06943,1.36746 -0.11996,-0.031 -0.15993,0.0377 -0.0888,0.15275 0.0711,0.11504 -0.0391,0.85831 -0.24492,1.65171 -0.80014,3.08464 -0.29175,6.28471 1.59261,10.02459 1.59394,3.16349 3.86517,5.29649 6.65097,6.24616 2.60716,0.88878 8.33299,1.06326 12.81348,0.39045 z m 149.88645,-11.4997 c 4.54834,-1.19938 8.99937,-4.64132 11.33161,-8.76263 0.0928,-0.16398 -0.52826,-0.0166 -1.38013,0.32746 -2.88456,1.16513 -4.74959,1.51279 -8.23169,1.53446 -2.76969,0.0172 -3.62985,-0.0804 -5.29167,-0.60082 -2.73872,-0.85762 -3.88906,-1.59444 -6.93518,-4.44211 -2.90975,-2.72018 -5.61986,-4.30305 -8.33281,-4.86686 -3.30291,-0.68643 -7.94058,0.21397 -11.30483,2.19481 -2.59013,1.52505 -5.2096,4.40472 -8.00215,8.79704 -1.38779,2.18282 -2.75221,4.29618 -3.03206,4.69636 l -0.50881,0.7276 1.00011,-0.005 c 1.71743,-0.008 5.90849,-0.50943 8.80532,-1.05375 6.60954,-1.24195 8.62762,-1.20317 14.55208,0.27965 2.74034,0.68587 6.20459,1.34895 8.73125,1.67123 1.7569,0.22409 7.01579,-0.0804 8.59896,-0.49786 z m -100.80625,-3.02784 c 2.49633,-0.3711 2.7435,-0.41903 2.88366,-0.55918 0.0665,-0.0665 0.31104,-1.25062 0.5435,-2.63144 0.23246,-1.38083 0.48541,-2.82331 0.56211,-3.20551 0.12039,-0.5999 -0.0523,-0.83408 -1.26345,-1.71279 -0.77159,-0.55984 -1.56408,-1.23739 -1.76108,-1.50568 -0.197,-0.26829 -0.51836,-0.42633 -0.71413,-0.3512 -0.22878,0.0878 -0.30339,-3.9e-4 -0.20882,-0.24681 0.0809,-0.21087 0.0369,-0.3834 -0.0978,-0.3834 -0.36252,0 -2.58095,-3.17495 -3.52455,-5.04423 -1.05644,-2.0928 -1.84343,-5.18607 -1.84343,-7.24563 0,-3.06734 1.28112,-6.43287 3.175,-8.34078 l 0.92604,-0.9329 h -2.91042 c -12.2809,0 -28.86229,-1.32286 -36.87866,-2.94218 -1.56683,-0.3165 -0.83005,0.43139 1.02375,1.0392 1.35923,0.44565 2.02149,0.87575 3.31958,2.15588 3.58689,3.53729 4.43471,8.49921 2.48843,14.56376 -1.0802,3.36587 -2.38498,5.44696 -5.11508,8.15838 l -2.35365,2.33755 0.057,2.15678 c 0.0314,1.18624 0.0965,2.19623 0.14465,2.24443 0.44575,0.44575 13.45642,2.29149 18.92543,2.68483 4.15031,0.29849 20.14262,0.12948 22.62187,-0.23908 z m 61.85366,-7.55331 c 2.22664,-3.35389 5.71582,-6.42008 9.06846,-7.96909 2.78814,-1.2882 5.05685,-1.76095 8.45288,-1.76138 2.61512,-3.3e-4 3.18558,0.092 5.6224,0.90981 1.49158,0.5006 2.71197,0.81096 2.71197,0.6897 0,-0.77853 -1.81549,-4.68824 -2.79462,-6.01829 -1.23979,-1.68414 -3.68023,-3.65676 -5.61362,-4.53752 -1.22884,-0.5598 -4.84362,-1.55385 -5.65045,-1.55385 -0.40941,0 -0.44122,0.10277 -0.21552,0.69641 0.63463,1.6692 -0.60588,2.4883 -4.06739,2.68567 -1.32987,0.0758 -3.29578,-0.0128 -4.52435,-0.20389 l -2.17261,-0.33798 -1.59064,1.15958 c -0.87486,0.63777 -2.32411,1.5763 -3.22056,2.08563 -0.89646,0.50932 -1.63121,1.07851 -1.63278,1.26487 -0.002,0.18635 0.31162,1.97229 0.69599,3.96875 0.60472,3.14092 0.70274,4.36059 0.72761,9.05388 0.0158,2.98317 -0.0647,5.95974 -0.1789,6.61458 -0.18704,1.07257 -0.0323,0.87582 1.56028,-1.98438 0.97236,-1.74625 2.24219,-3.88937 2.82185,-4.7625 z m -128.24849,1.31451 c -0.28248,-0.21366 -0.63266,-0.38846 -0.77818,-0.38846 -0.14552,0 -0.0335,0.1748 0.24901,0.38846 0.28248,0.21365 0.63265,0.38846 0.77817,0.38846 0.14553,0 0.0335,-0.17481 -0.249,-0.38846 z m 0.49834,-1.42212 c 0.0815,-0.13195 -0.09,-0.1776 -0.38126,-0.10144 -0.6178,0.16156 -0.6959,0.34135 -0.14827,0.34135 0.20969,0 0.44798,-0.10796 0.52953,-0.23991 z m 20.01155,-0.99661 c 5.7694,-2.71634 9.62317,-9.31776 9.16346,-15.69682 -0.16379,-2.27284 -0.63613,-3.55683 -1.79333,-4.87479 -1.61034,-1.83409 -3.27623,-2.42515 -7.87185,-2.79299 -1.50181,-0.1202 -2.796,-0.28398 -2.87598,-0.36396 -0.08,-0.08 0.0837,-0.53797 0.36374,-1.01777 0.41246,-0.70668 0.75765,-0.92502 1.81757,-1.14962 1.22862,-0.26035 1.3137,-0.33194 1.39501,-1.17384 0.0686,-0.71074 0.0138,-0.84124 -0.26458,-0.62957 -4.8024,3.65162 -6.95207,5.97042 -8.52613,9.19696 -1.58643,3.25189 -2.11095,5.46391 -2.10829,8.891 0.004,4.69015 1.35749,8.19189 3.80095,9.83134 1.11633,0.749 1.31572,0.79203 3.19526,0.68954 1.52261,-0.083 2.4133,-0.30172 3.70417,-0.90948 z m 102.49638,-16.39227 1.25732,-0.96004 -1.77173,-0.78057 c -0.97445,-0.42931 -1.80954,-0.74143 -1.85577,-0.6936 -0.13912,0.14394 0.76751,3.39425 0.94679,3.39425 0.0913,0 0.73186,-0.43202 1.42339,-0.96004 z m 10.15564,-4.79465 c -0.79861,-2.86213 -0.89579,-5.85932 -0.28536,-8.80093 0.87,-4.19243 1.83148,-6.28813 7.92334,-17.2703 4.40746,-7.9456 6.89423,-13.79954 8.11643,-19.10637 0.41359,-1.79578 1.23292,-7.59673 1.09429,-7.74761 -0.0377,-0.0411 -0.86561,1.20908 -1.8397,2.77813 -0.97409,1.56904 -2.78258,4.27811 -4.01886,6.02015 -2.04825,2.88617 -3.70387,4.97301 -10.62816,13.39641 -2.51331,3.05743 -5.95355,8.62452 -7.01373,11.34979 -1.61423,4.14952 -2.1827,9.48113 -1.37581,12.90351 0.98044,4.15845 3.22479,6.73405 6.87715,7.89217 1.69137,0.53632 1.69397,0.53312 1.15041,-1.41495 z m -9.34632,-2.11667 c -1.46573,-2.91356 -1.8465,-4.73592 -1.83813,-8.79739 0.0107,-5.19433 1.08889,-9.08692 3.83883,-13.85927 0.89025,-1.54496 0.95798,-1.76087 0.44718,-1.42548 -6.00392,3.94217 -12.11135,8.59718 -12.11135,9.23113 0,0.64641 2.03137,7.18607 2.82456,9.09319 0.96268,2.31464 2.3873,4.40943 3.60789,5.3051 1.06022,0.77798 3.58211,2.20227 3.94174,2.22618 0.10326,0.007 -0.21657,-0.79119 -0.71072,-1.77346 z m -51.04288,-3.40297 1.35079,-0.14867 0.32102,-1.89527 c 0.17656,-1.0424 0.38007,-2.25246 0.45226,-2.68902 l 0.13125,-0.79375 -9.40786,0.0916 c -15.16264,0.14759 -32.24264,-1.00971 -40.67782,-2.75623 l -0.70666,-0.14631 0.14707,3.12527 c 0.0809,1.7189 0.17177,3.15614 0.20196,3.19385 0.10116,0.12636 7.37003,1.09754 11.51532,1.53855 2.25558,0.23997 6.4823,0.53026 9.39271,0.64509 5.46338,0.21557 24.88944,0.098 27.27996,-0.16508 z m 4.70921,-8.9935 c 1.85841,-0.14777 2.00979,-0.22262 2.00979,-0.99383 0,-1.21818 -0.0802,-1.22766 -10.43781,-1.23268 -19.60604,-0.01 -32.74888,-0.9983 -42.71531,-3.21361 l -3.80833,-0.84651 -0.49115,0.60654 c -0.27013,0.3336 -0.49115,0.94097 -0.49115,1.34972 0,0.65391 0.15094,0.79134 1.25677,1.14421 1.86962,0.59661 3.60365,0.88886 9.59115,1.61646 8.24127,1.00148 13.64612,1.48845 19.18229,1.72831 4.8211,0.20887 22.65542,0.0997 25.90375,-0.15861 z m 13.38687,-1.95758 c 6.58409,-0.32899 13.05404,-1.26842 16.60696,-2.41133 l 0.86426,-0.27801 -0.17193,-2.0616 c -0.22309,-2.675 0.22373,-5.65905 1.33639,-8.92493 2.24059,-6.57665 5.16638,-11.29776 12.59314,-20.32055 4.04491,-4.91416 5.07784,-6.28235 7.80416,-10.33714 3.9549,-5.88201 6.23466,-11.28369 6.78516,-16.07679 0.21676,-1.88727 0.45076,-2.80457 0.85426,-3.34865 0.30565,-0.41214 1.18623,-1.56417 1.95685,-2.56007 2.81766,-3.64137 6.10966,-11.44215 7.44178,-17.63415 1.45808,-6.7775 1.81387,-17.78948 0.81492,-25.22235 -0.88115,-6.55636 -2.83674,-12.84296 -4.22646,-13.58672 -1.37213,-0.73434 -9.91491,4.03806 -16.34445,9.13078 -4.08129,3.23272 -8.85222,8.1161 -12.46569,12.75953 -1.00058,1.28577 -1.22336,1.34486 -2.07032,0.54919 -0.77349,-0.72666 -0.76524,-1.13052 0.0523,-2.56057 1.0221,-1.78792 0.77531,-1.88835 -0.35952,-0.14631 -0.92909,1.42621 -3.75521,4.3845 -5.72908,5.997 -4.69622,3.83645 -12.36114,7.82133 -21.55341,11.20529 -7.90855,2.91138 -13.89319,4.46685 -29.91425,7.77502 -14.03152,2.89735 -25.1207,6.13022 -30.72403,8.95709 l -2.96263,1.49464 -0.88076,2.38125 c -1.95013,5.27243 -2.64952,8.02225 -3.90884,15.36861 -0.77135,4.49972 -1.00146,5.34615 -2.11228,7.76949 -1.79912,3.92491 -2.31915,6.12297 -2.31915,9.80252 0,3.736 0.59388,6.23874 2.30549,9.71586 1.88999,3.8395 5.18601,7.58992 8.50493,9.67743 l 1.10173,0.69296 0.61806,-1.24268 c 0.69625,-1.39989 0.76881,-1.42852 4.85139,-1.91445 3.55146,-0.4227 18.19803,-0.33944 23.8125,0.13538 10.51641,0.88937 20.15508,2.39604 22.79292,3.56289 1.35752,0.60049 1.51005,0.92572 1.92808,4.11115 0.45571,3.47253 0.47301,3.51389 1.69996,4.06252 1.382,0.61796 2.46851,1.70687 2.68455,2.69045 0.15416,0.7019 0.2741,0.76879 1.53813,0.85781 0.75402,0.0531 1.43047,0.11695 1.50323,0.14189 0.0728,0.0249 2.45402,-0.0707 5.29167,-0.21245 z m -2.73977,-28.19994 c -5.05824,-1.22447 -9.46838,-5.76974 -10.73612,-11.06509 -0.34801,-1.45361 -0.42803,-4.76567 -0.15402,-6.37518 1.09665,-6.4419 5.43075,-11.07942 11.64554,-12.46084 4.88991,-1.08692 9.64285,0.33771 13.23721,3.96769 2.20833,2.23023 3.3576,4.29189 4.0858,7.32953 0.92295,3.85006 0.53482,6.98414 -1.33461,10.77663 -3.08986,6.26837 -9.94518,9.47304 -16.7438,7.82726 z m 6.99346,-7.76263 c 1.02713,-1.02713 1.07886,-2.55156 0.11724,-3.45496 -0.69754,-0.6553 -2.97596,-1.17184 -3.45613,-0.78354 -0.15171,0.12268 -0.30412,0.98929 -0.33869,1.9258 -0.0596,1.61401 -0.02,1.73878 0.75914,2.39442 1.07452,0.90414 1.95729,0.87942 2.91844,-0.0817 z m -3.45994,-3.55983 c 0,-0.0549 0.20836,-0.2633 0.46302,-0.46302 0.41965,-0.32911 0.429,-0.31975 0.0999,0.0999 -0.34565,0.44073 -0.56292,0.58089 -0.56292,0.36313 z m 6.307,-0.13252 c 0.55427,-0.35132 0.27001,-1.47389 -0.39729,-1.56895 -0.69167,-0.0985 -1.09145,0.83407 -0.60751,1.41718 0.3659,0.44089 0.51351,0.46318 1.0048,0.15177 z m -9.43286,-5.59764 c 1.89266,-0.52567 3.15338,-2.9505 2.60085,-5.00241 -0.34082,-1.26572 -2.01398,-2.7973 -3.32446,-3.04315 -2.94574,-0.55262 -5.51968,2.26911 -4.65556,5.10374 0.42085,1.38055 1.33034,2.38468 2.55191,2.81745 1.28906,0.45669 1.58405,0.46966 2.82726,0.12437 z m -34.31268,13.65566 c -2.53595,-1.13664 -3.69756,-4.45902 -1.90061,-5.43604 0.71711,-0.38991 0.76702,-0.37693 1.32292,0.34402 1.99388,2.58587 2.63603,2.80161 4.07019,1.36745 1.10403,-1.10402 2.00511,-1.19882 2.61066,-0.27464 0.34952,0.53344 0.37319,0.81387 0.13071,1.5486 -0.73495,2.22691 -3.93036,3.48306 -6.23387,2.45061 z m -24.45769,-4.658 c -4.55476,-1.63798 -7.56956,-5.8933 -7.88534,-11.12999 -0.18387,-3.0492 0.27427,-5.4797 1.52098,-8.06888 2.95614,-6.13938 9.21824,-8.5046 14.9916,-5.66238 3.80366,1.87254 6.67907,6.99329 6.69773,11.92788 0.006,1.51374 -0.83236,4.85123 -1.59983,6.37091 -2.80952,5.56326 -8.68794,8.37393 -13.72514,6.56246 z m 7.39207,-6.87177 c 1.52086,-1.52087 -0.46558,-4.33726 -2.02551,-2.87178 -0.84528,0.7941 -0.86271,2.40742 -0.0323,2.98907 0.79145,0.55434 1.42211,0.5184 2.0578,-0.11729 z m 2.91041,-3.0468 c 0,-0.38769 -0.72639,-0.73023 -1.08221,-0.51032 -0.33459,0.20679 -0.30058,0.74558 0.0705,1.11665 0.35682,0.35682 1.01171,-0.0357 1.01171,-0.60633 z m -7.14375,-5.12975 c 0.83496,-0.58069 1.58686,-2.0352 1.5861,-3.06824 -0.001,-1.8743 -1.89889,-3.56919 -3.99781,-3.57089 -1.44099,-10e-4 -2.49115,0.69541 -3.04431,2.01931 -0.49336,1.18078 -0.45966,1.85045 0.15708,3.12169 0.58698,1.20991 1.29703,1.74971 2.65311,2.01697 1.11573,0.21989 1.76736,0.0921 2.64583,-0.51884 z m 69.58542,-18.81406 c -1.62593,-1.08511 -3.70814,-1.83134 -5.65122,-2.02531 -2.22144,-0.22176 -3.08003,-0.68551 -3.08003,-1.66364 0,-1.50222 1.14366,-2.02251 3.93188,-1.78876 5.27983,0.44264 9.87581,4.42596 6.92736,6.00392 -0.71358,0.3819 -0.79888,0.36081 -2.12799,-0.52621 z m 28.97187,-7.88943 c -1.65379,-0.55397 -1.79713,-0.95923 -2.26183,-6.39496 -0.85906,-10.04849 1.86943,-20.86791 6.75679,-26.79309 1.30283,-1.57948 2.52111,-2.39466 2.94511,-1.97066 0.0767,0.0767 -0.29556,1.07323 -0.82715,2.21459 -2.60759,5.59859 -4.29502,10.63254 -5.08584,15.17208 -0.60193,3.45528 -0.59047,11.34937 0.0217,14.9204 0.24676,1.4395 0.41571,2.65021 0.37545,2.69047 -0.21041,0.21041 -1.46379,0.3154 -1.92419,0.16117 z m -56.9884,75.71261 c 0.5519,-0.11038 0.74406,-0.28029 0.66072,-0.58421 -0.0646,-0.23572 -0.19322,-1.09602 -0.28575,-1.91179 l -0.16824,-1.48321 -4.81437,-0.18275 c -2.6479,-0.10051 -6.83843,-0.29492 -9.31229,-0.43203 -2.47385,-0.1371 -5.74807,-0.31614 -7.27604,-0.39786 -11.56594,-0.61856 -24.48949,-2.20131 -25.02301,-3.06457 -0.25149,-0.40692 0.62617,-1.53139 1.33389,-1.70902 0.35523,-0.0892 1.81223,-0.029 3.2378,0.13369 8.82265,1.00684 13.83717,1.39083 26.00757,1.99152 7.49432,0.3699 14.10229,0.72848 14.68437,0.79685 l 1.05834,0.1243 -1.15253,-0.37932 c -1.50063,-0.49389 -10.22921,-1.85902 -15.11935,-2.36463 -8.4394,-0.87259 -20.22373,-1.20022 -27.69148,-0.76989 l -2.95294,0.17016 -0.81737,3.08916 c -0.44955,1.69903 -0.81737,3.27925 -0.81737,3.51159 0,0.50299 2.09068,1.02742 7.11466,1.78467 5.95475,0.89754 11.16512,1.31985 24.23846,1.96454 2.60526,0.12848 16.15473,-0.0992 17.09493,-0.2872 z m 49.10839,-10.46053 c 9.71569,-6.94491 13.47532,-10.72553 19.48934,-19.59815 3.88138,-5.72629 6.84845,-12.40169 8.13273,-18.2973 1.58014,-7.25372 0.50781,-20.05353 -2.16929,-25.89356 -0.33526,-0.73138 -0.35069,-0.71036 -1.19749,1.63191 -1.668,4.61367 -3.90831,8.55744 -6.33253,11.14756 -1.05405,1.12617 -1.12288,1.29804 -1.27151,3.175 -0.57548,7.2672 -5.33921,16.6561 -13.44846,26.50574 -5.14826,6.25316 -7.03019,8.66866 -8.8606,11.37276 -2.08469,3.07976 -4.10458,7.02793 -5.08487,9.93917 -0.96396,2.86276 -1.71058,8.35774 -1.20436,8.86396 0.082,0.0819 1.69657,-1.08384 3.58805,-2.59063 1.89148,-1.50679 5.65303,-4.32219 8.35899,-6.25646 z m 22.40686,-1.40017 c 4.64265,-6.1165 7.22636,-10.67477 9.27267,-16.35916 2.43493,-6.76392 3.27526,-12.29079 2.96365,-19.49188 -0.21218,-4.90329 -1.38875,-10.46077 -2.94078,-13.89062 -0.19755,-0.43657 -0.49678,-1.31179 -0.66495,-1.94494 -0.44461,-1.67395 -0.57269,-1.21101 -0.21298,0.76981 0.17352,0.95554 0.31245,4.26159 0.31622,7.52513 0.007,6.40026 -0.33839,8.79694 -1.97759,13.70724 -0.42784,1.28158 -0.77788,2.83252 -0.77788,3.44652 0,6.79344 -3.74191,19.63048 -8.22661,28.22228 -1.47269,2.82139 -1.25097,2.62569 2.24825,-1.98438 z M 145.19746,657.38139 c 1.8682,-0.44037 5.81344,-2.19598 6.26567,-2.78819 0.15809,-0.20702 0.43078,-1.38843 0.60597,-2.62536 0.55024,-3.88479 1.63218,-8.95378 2.5916,-12.14187 1.39776,-4.64464 1.31111,-4.20291 0.72287,-3.68505 -0.78369,0.68991 -3.33258,1.79855 -4.14172,1.80142 -0.65887,0.002 -0.7276,-0.087 -0.7276,-0.94552 0,-2.13467 3.0449,-8.2637 6.50929,-13.10246 5.5942,-7.8135 12.77924,-14.3776 21.98876,-20.08849 l 1.90743,-1.18282 0.0165,-2.38125 c 0.0195,-2.80607 -0.48828,-21.03046 -0.69421,-24.91674 l -0.14264,-2.69175 -0.97568,0.34424 c -2.34637,0.82785 -8.53208,4.26852 -11.14699,6.20028 -4.4555,3.29149 -10.33418,9.16603 -13.79765,13.78793 -5.89665,7.86892 -10.4875,17.13618 -12.68418,25.60476 -1.5023,5.79159 -1.84821,9.04735 -2.08655,19.63899 -0.23577,10.47701 -0.37432,11.5759 -1.84847,14.66104 -0.42333,0.88596 -1.20352,2.11698 -1.73375,2.73561 -0.67472,0.78721 -0.85853,1.16342 -0.61245,1.25353 2.53599,0.92869 7.21901,1.1734 9.98377,0.5217 z m 12.13506,-26.66714 c 1.31097,-0.81838 6.22232,-3.07604 9.18902,-4.22403 6.27845,-2.42951 15.65145,-4.92482 27.05906,-7.20377 19.81413,-3.95835 29.80538,-7.04465 41.03103,-12.67453 3.71429,-1.86279 6.21,-3.41048 8.84069,-5.48247 5.56935,-4.38655 7.59051,-8.47266 7.24453,-14.64598 -0.41836,-7.46477 -4.4984,-14.70595 -10.57121,-18.76161 -1.18767,-0.79317 -2.19034,-1.41119 -2.22815,-1.37337 -0.0378,0.0378 0.71388,1.52018 1.67045,3.29414 0.95656,1.77395 2.08956,4.18537 2.51777,5.3587 0.77355,2.11956 1.34453,6.07223 0.87308,6.04395 -0.13049,-0.008 -0.57693,-0.7093 -0.99208,-1.55882 -1.05115,-2.15096 -2.98124,-4.4461 -4.82672,-5.73963 -0.85921,-0.60224 -3.22908,-1.98267 -5.26637,-3.06764 -4.92862,-2.62475 -6.03047,-3.29467 -9.92188,-6.03245 -3.15231,-2.21779 -7.31527,-4.67056 -7.5421,-4.44373 -0.34799,0.34799 4.71033,7.27051 5.96585,8.16452 0.44713,0.31838 0.77112,0.62072 0.71998,0.67187 -0.0511,0.0511 -1.15933,-0.24921 -2.46263,-0.66746 -4.22145,-1.35471 -6.21917,-1.65442 -11.23318,-1.68524 -2.54662,-0.0157 -5.31063,0.0647 -6.14225,0.17859 l -1.51205,0.20706 1.40604,2.29723 c 0.77332,1.26347 1.68403,2.80324 2.02379,3.42171 0.57848,1.05301 0.69452,1.1273 1.82579,1.16895 1.153,0.0425 1.16284,0.0492 0.21587,0.14827 -0.54571,0.0571 -0.99219,0.18897 -0.99219,0.29309 0,0.10412 0.5276,1.03711 1.17245,2.07331 1.16938,1.87907 5.3001,9.11427 6.92254,12.12523 0.8233,1.5279 0.89351,1.58656 1.87031,1.56241 0.5582,-0.0138 3.51522,-0.10678 6.57116,-0.20661 3.06761,-0.10021 6.20803,-0.0741 7.01145,0.0582 0.8502,0.14007 1.14126,0.25347 0.70008,0.27275 -1.68922,0.0738 -13.64455,2.82748 -19.1027,4.39987 -13.63368,3.92761 -23.31015,8.3104 -32.66196,14.79367 -8.03131,5.56782 -15.46506,13.291 -20.07604,20.8577 -0.70687,1.15999 -0.62531,1.20378 0.70057,0.37609 z m 49.75973,-56.55077 c 0.39,-0.15629 0.78113,-0.15307 1.05833,0.009 0.33528,0.19569 0.18837,0.25457 -0.61863,0.24791 -0.92565,-0.008 -0.98078,-0.0398 -0.4397,-0.25663 z m -18.71651,24.52766 c 3.97229,-1.88538 6.68541,-2.95899 12.67392,-5.01522 l 4.10104,-1.40814 0.77808,-1.51989 c 0.51083,-0.99784 0.81275,-2.03669 0.87899,-3.02445 0.0913,-1.36141 -0.0138,-1.7311 -1.10492,-3.8858 -0.66321,-1.30969 -1.43274,-2.77193 -1.71007,-3.24943 l -0.50424,-0.86819 -0.79396,1.69665 c -0.91935,1.96462 -3.33813,4.55105 -5.70511,6.10055 -3.07219,2.01116 -8.2548,3.59646 -11.75743,3.59646 h -1.19621 l 0.20146,3.63802 c 0.1108,2.00091 0.18362,4.08451 0.16182,4.63021 -0.0218,0.5457 0.0662,0.99219 0.1956,0.99219 0.12938,0 1.83084,-0.75733 3.78103,-1.68296 z m -39.51629,-4.27017 c 2.06327,-3.13525 4.40685,-6.05875 7.2675,-9.06587 2.29862,-2.41631 2.32586,-2.46049 1.90927,-3.09629 -0.51789,-0.7904 -3.58546,-3.53626 -6.01436,-5.38359 -1.82239,-1.38605 -2.78222,-1.81322 -3.47598,-1.547 -1.31752,0.50558 -1.9782,3.85515 -1.99153,10.09692 -0.008,3.76308 0.45742,11.66376 0.67412,11.44238 0.0351,-0.0359 0.7691,-1.13686 1.63098,-2.44655 z m 107.85164,-2.95398 c 1.91097,-2.16041 1.89191,-2.10581 1.09788,-3.14684 -0.69042,-0.90518 -3.1837,-2.76315 -3.70682,-2.76227 -0.16299,2.7e-4 -0.28258,1.16734 -0.305,2.97656 l -0.0369,2.97612 0.83064,0.57033 c 0.45685,0.31369 0.87515,0.58158 0.92957,0.59532 0.0544,0.0137 0.59019,-0.53042 1.19062,-1.20922 z m -47.51722,-0.31194 c 0.23483,-0.14902 0.26824,-0.40641 0.10873,-0.83761 -0.22688,-0.61332 -0.2346,-0.61009 -0.52368,0.21917 -0.29779,0.85424 -0.19592,1.00607 0.41495,0.61844 z m -20.25427,-2.85167 c 2.54473,-0.49896 5.8716,-1.9607 7.93973,-3.48852 3.46635,-2.56074 5.36674,-6.25539 4.41273,-8.579 -0.36514,-0.88935 -3.64314,-6.28885 -3.81791,-6.28885 -0.0537,0 -0.47549,0.70894 -0.93732,1.57542 -1.1188,2.0991 -2.33932,3.48228 -4.30814,4.8823 -2.06545,1.46873 -4.3728,2.43777 -6.68339,2.80689 -0.99583,0.15909 -1.84591,0.32456 -1.88907,0.36771 -0.0432,0.0432 0.0423,1.97143 0.18988,4.28505 0.14759,2.31363 0.26876,4.35542 0.26928,4.53732 0.001,0.46845 2.15777,0.4245 4.82421,-0.0983 z m -2.17744,-11.53349 c 1.78293,-0.52468 4.60398,-2.18707 5.95122,-3.50695 1.67258,-1.63861 2.86833,-3.97995 2.89303,-5.66472 0.0143,-0.97168 -0.22032,-1.65081 -1.14118,-3.304 l -1.15911,-2.08092 -0.79605,1.48353 c -1.48374,2.76514 -4.4492,5.31317 -7.46475,6.41399 l -1.59045,0.58058 0.0565,2.73666 c 0.0789,3.82153 0.11588,3.92562 1.33338,3.75404 0.54525,-0.0768 1.40808,-0.26233 1.9174,-0.41221 z m -1.45521,-8.91259 c 2.68354,-1.54537 4.81991,-3.88908 5.59456,-6.1375 0.34394,-0.99832 0.33656,-1.2422 -0.0721,-2.37851 -0.53015,-1.47432 -2.81337,-4.69525 -3.47859,-4.90723 -0.25102,-0.08 -0.70942,-0.26586 -1.01865,-0.41305 -0.74258,-0.35343 -1.52395,0.0695 -1.9087,1.03308 -0.65705,1.64561 -0.86612,3.35909 -1.01814,8.34449 -0.18052,5.92032 -0.27042,5.70952 1.90158,4.45872 z"
       id="path1" /></g></svg>
