<?xml version="1.0" encoding="UTF-8" standalone="no"?>
<!-- Created with Inkscape (http://www.inkscape.org/) -->

<svg
   width="244.60629mm"
   height="212.85396mm"
   viewBox="0 0 244.60633 212.85395"
   version="1.1"
   id="svg5"
   xml:space="preserve"
   xmlns="http://www.w3.org/2000/svg"
   xmlns:svg="http://www.w3.org/2000/svg"><defs
     id="defs2" /><g
     id="layer1"
     transform="translate(-85.471789,195.8405)"><path
       style="fill:#000000;stroke-width:0.264583"
       d="m 199.25335,16.839402 c -2.2934,-0.288567 -7.21964,-1.27563 -7.61032,-1.524865 -0.15451,-0.09858 -0.37023,-0.195937 -0.47937,-0.216355 -0.10914,-0.02043 -0.25797,-0.06689 -0.33073,-0.103269 -0.0728,-0.03638 -0.22159,-0.08931 -0.33073,-0.117621 -1.52612,-0.395869 -2.65153,-0.799827 -3.4009,-1.220724 -0.50307,-0.282556 -1.08965,-0.513739 -1.3035,-0.513739 -0.21386,0 -0.38883,-0.119062 -0.38883,-0.264583 0,-0.145521 -0.18562,-0.264583 -0.41249,-0.264583 -0.22687,0 -0.33891,-0.119063 -0.24897,-0.264584 0.14006,-0.226628 -0.24983,-0.38963 -0.47466,-0.198437 -0.0428,0.03638 -0.41357,-0.153876 -0.82399,-0.422791 -0.63515,-0.416168 -0.90908,-0.446495 -1.84045,-0.203758 -2.32926,0.607054 -4.36326,0.824947 -7.69126,0.823923 -6.19959,-0.0019 -11.55362,-1.205836 -17.94307,-4.0347479 -0.69123,-0.306038 -1.25677,-0.661299 -1.25677,-0.789466 0,-0.128169 -0.10197,-0.170019 -0.22659,-0.093 -0.12461,0.07702 -0.44703,-0.06926 -0.71648,-0.325075 -0.4532,-0.430276 -1.21398,-0.457525 -10.15831,-0.363837 -6.00515,0.0629 -10.72102,-0.01037 -12.44654,-0.193402 -1.52797,-0.16207 -3.19484,-0.335505 -3.70417,-0.385411 -4.07843,-0.39961 -11.31583,-2.352132 -14.23071,-3.839191 -0.61331,-0.312891 -1.11512,-0.513117 -1.11512,-0.444947 0,0.06817 -1.19062,-0.476345 -2.64583,-1.21004005 -1.45521,-0.733692 -2.64584,-1.461736 -2.64584,-1.617874 0,-0.15613895 -0.0759,-0.20803095 -0.16857,-0.11531595 -0.0927,0.09272 -0.49805,-0.06603 -0.90074,-0.35278 -0.40269,-0.286742 -0.81571,-0.521348 -0.91783,-0.521348 -0.10211,0 -0.67905,-0.383561 -1.28207,-0.852358 -3.51859,-2.735392 -9.436334,-8.8315771 -9.232348,-9.5107431 0.03638,-0.121127 -0.05994,-0.220232 -0.214053,-0.220232 -0.154108,0 -0.20479,-0.122012 -0.112625,-0.271139 0.09217,-0.149126 0.02921,-0.238423 -0.139907,-0.198439 -0.169114,0.03999 -0.505386,-0.284961 -0.747271,-0.722106 -0.241884,-0.437145 -0.710386,-1.173697 -1.041114,-1.636786 -0.330728,-0.463087 -0.970343,-1.653236 -1.421366,-2.644775 -0.451023,-0.99154 -1.039838,-2.279047 -1.308478,-2.86113 -0.26864,-0.582084 -0.542912,-1.35599 -0.609494,-1.719792 -0.06658,-0.363802 -0.143638,-0.720989 -0.171238,-0.79375 -0.0276,-0.07276 -0.07271,-0.251354 -0.100256,-0.396875 -0.02754,-0.145521 -0.20099,-0.621771 -0.385443,-1.058333 -0.184452,-0.436563 -0.52475,-1.686719 -0.756218,-2.778125 -0.681153,-3.211748 -0.553241,-11.567524 0.198584,-12.972322 0.142367,-0.266014 0.312425,-0.902123 0.377907,-1.413576 0.164478,-1.28466 1.483878,-4.928684 1.784542,-4.928684 0.135239,0 0.172304,-0.119063 0.08237,-0.264584 -0.08994,-0.14552 -0.05232,-0.264583 0.0836,-0.264583 0.135919,0 0.312833,-0.328536 0.393142,-0.730081 0.08031,-0.401542 0.452233,-1.086151 0.826499,-1.521354 0.374266,-0.4352 0.695512,-0.88057 0.71388,-0.989711 0.01837,-0.10914 0.04828,-0.290433 0.06647,-0.402873 0.09943,-0.614592 2.811667,-3.974906 4.811921,-5.961702 l 2.302572,-2.287082 -0.135372,-2.850994 c -0.178511,-3.759541 0.204881,-11.904212 0.732027,-15.550993 0.231387,-1.600729 0.459449,-3.267604 0.506799,-3.704167 0.16387,-1.510929 0.99963,-5.292867 1.23324,-5.580594 0.12902,-0.158908 0.16067,-0.362839 0.0703,-0.453175 -0.14611,-0.146111 0.4701,-2.433087 1.62751,-6.040281 0.21638,-0.674376 0.39342,-1.389618 0.39342,-1.589429 0,-0.314875 -1.41819,-1.373629 -2.95774,-2.208115 -0.26501,-0.143647 -0.481846,-0.352007 -0.481846,-0.46302 0,-0.111014 -0.157314,-0.201843 -0.349584,-0.201843 -0.330696,0 -2.271959,-1.645343 -4.38322,-3.715055 -3.307489,-3.24239 -6.305221,-7.85242 -7.563081,-11.63078 -0.26645,-0.80036 -0.633149,-1.81239 -0.814885,-2.24896 -1.229991,-2.95465 -1.756678,-10.94038 -1.045513,-15.85227 0.23357,-1.61323 0.557686,-3.40939 0.720259,-3.99147 0.162573,-0.58209 0.33654,-1.29646 0.386593,-1.58751 0.05005,-0.29104 0.168634,-0.70776 0.263513,-0.92604 0.09488,-0.21828 0.182791,-0.47625 0.195359,-0.57326 0.01257,-0.097 0.112148,-0.26569 0.221288,-0.37483 0.109141,-0.10914 0.198438,-0.42849 0.198438,-0.70966 0,-0.28118 0.166534,-0.88641 0.370075,-1.34497 0.203542,-0.45855 0.584249,-1.45881 0.846017,-2.2228 0.261768,-0.76398 0.571484,-1.38906 0.688258,-1.38906 0.116774,0 0.212316,-0.17493 0.212316,-0.38873 0,-0.48354 1.063074,-2.585 1.440911,-2.84837 0.173674,-0.12105 0.179068,-0.19894 0.0143,-0.20648 -0.145521,-0.007 -0.05622,-0.13345 0.198437,-0.28178 0.254662,-0.14833 0.463021,-0.49487 0.463021,-0.77009 0,-0.27522 0.107699,-0.56697 0.239331,-0.64832 0.131633,-0.0814 0.610219,-0.80509 1.063526,-1.60831 0.453307,-0.80321 1.030217,-1.67042 1.282023,-1.92712 0.251805,-0.2567 0.795283,-0.95985 1.207728,-1.56255 0.412445,-0.60271 0.91846,-1.16051 1.124479,-1.23957 0.206018,-0.0791 0.374579,-0.30098 0.374579,-0.49316 0,-0.95111 9.983638,-9.72135 11.066338,-9.72135 0.14858,0 0.6364,-0.30818 1.08404,-0.68485 0.44764,-0.37667 0.98054,-0.70931 1.18423,-0.7392 0.20369,-0.0299 0.53118,-0.18518 0.72776,-0.34508 0.5993,-0.48747 3.88135,-1.8948 4.04267,-1.73348 0.0832,0.0832 0.15121,0.0123 0.15121,-0.15746 0,-0.16978 0.22451,-0.30868 0.49892,-0.30868 0.27441,0 0.83142,-0.1725 1.2378,-0.38334 0.40639,-0.21083 0.83671,-0.32287 0.95629,-0.24896 0.11957,0.0739 0.21741,0.0273 0.21741,-0.10358 0,-0.13087 0.68461,-0.39377 1.52135,-0.58423 0.83675,-0.19046 2.1762,-0.52045 2.97656,-0.73332 0.83623,-0.2224 3.10438,-0.43008 5.33236,-0.48825 3.62672,-0.0947 4.64115,-7.9e-4 8.82285,0.81736 1.21543,0.23778 3.4002,0.96939 3.77031,1.26256 0.1819,0.14408 0.33073,0.19729 0.33073,0.11823 0,-0.079 0.56555,0.16345 1.25677,0.5389 0.69123,0.37544 1.69569,0.90092 2.23214,1.16772 0.53645,0.2668 1.05069,0.60697 1.14276,0.75594 0.0921,0.14897 0.27823,0.20235 0.4137,0.11863 0.13546,-0.0837 0.2463,-0.0262 0.2463,0.12797 0,0.15411 0.15875,0.2802 0.35278,0.2802 0.19402,0 0.78934,0.43656 1.32291,0.97014 0.53358,0.53357 0.97014,0.87618 0.97014,0.76135 0,-0.11483 0.17729,-0.0617 0.39396,0.11818 0.21668,0.17982 0.32872,0.43253 0.24897,0.56156 -0.0797,0.12903 -0.0246,0.2346 0.12261,0.2346 0.30257,0 2.69843,2.31602 3.79466,3.66823 0.39806,0.491 0.64755,1.016 0.55443,1.16667 -0.0966,0.15628 -0.041,0.19464 0.12942,0.0893 0.18358,-0.11345 0.50537,0.25324 0.83481,0.95131 0.29485,0.62476 1.02002,1.77369 1.6115,2.55316 0.59147,0.77948 1.18114,1.69535 1.31038,2.03525 l 0.23497,0.61802 2.21799,-0.77353 c 1.2199,-0.42544 2.44585,-0.80896 2.72434,-0.85228 0.27848,-0.0433 0.63581,-0.15966 0.79406,-0.25856 0.44036,-0.27522 7.05522,-1.9654 10.039,-2.5651 3.06038,-0.6151 7.57754,-1.25222 10.44307,-1.47295 2.92704,-0.22546 2.80946,-0.13378 3.14963,-2.45587 0.16454,-1.12321 0.29843,-2.3101 0.29752,-2.63752 -7.9e-4,-0.32742 0.12311,-0.59531 0.27559,-0.59531 0.15248,0 0.20535,-0.11632 0.11749,-0.25848 -0.0879,-0.14217 -0.0229,-0.76678 0.14441,-1.38803 0.16728,-0.62126 0.34872,-1.361 0.4032,-1.64387 0.0545,-0.28287 0.33965,-1.02618 0.63373,-1.65179 0.29407,-0.62562 0.53468,-1.39 0.53468,-1.69864 0,-0.30864 0.36794,-1.2922 0.81765,-2.1857 0.4497,-0.89349 1.00423,-2.01149 1.23228,-2.48443 0.22806,-0.47294 0.50205,-0.8599 0.60888,-0.8599 0.10683,0 0.2684,-0.29547 0.35904,-0.6566 0.0906,-0.36113 0.50275,-1.04574 0.9158,-1.52136 0.41306,-0.47561 0.79829,-1.00123 0.85607,-1.16805 0.30103,-0.86901 5.20776,-6.17899 5.70976,-6.17899 0.19164,0 0.34843,-0.11334 0.34843,-0.25187 0,-0.13853 0.56555,-0.63669 1.25678,-1.10701 0.69122,-0.47033 1.3163,-0.92786 1.38906,-1.01672 0.13315,-0.16262 1.29392,-0.86276 3.37344,-2.03474 0.61846,-0.34856 1.1263,-0.54062 1.12853,-0.4268 0.002,0.11381 0.0915,0.0877 0.19843,-0.0581 0.23434,-0.31946 1.39022,-0.93169 1.92549,-1.01985 0.21206,-0.0349 0.64529,-0.20643 0.96274,-0.38111 0.53048,-0.29192 3.46379,-1.06249 4.71449,-1.23849 0.29104,-0.041 0.82683,-0.19348 1.19063,-0.33893 1.41753,-0.56675 5.59795,-0.93099 9.06167,-0.78955 3.19635,0.13053 8.85181,1.04204 9.19458,1.48192 0.0728,0.0934 0.40099,0.19827 0.72939,0.23311 0.32841,0.0348 1.04279,0.26409 1.5875,0.50943 0.54472,0.24536 1.18303,0.46773 1.41848,0.49417 0.54781,0.0615 3.5121,1.51449 3.62941,1.77898 0.0488,0.11004 0.19764,0.13278 0.33073,0.0505 0.13309,-0.0823 0.24199,-0.0453 0.24199,0.082 0,0.12737 0.7739,0.63252 1.71979,1.12256 0.94588,0.49004 1.71979,0.98816 1.71979,1.10694 0,0.11879 0.17585,0.21598 0.39078,0.21598 0.21492,0 0.58513,0.29663 0.82269,0.65918 0.23755,0.36255 0.52512,0.60158 0.63904,0.53118 0.2823,-0.17448 3.96832,3.30773 3.96832,3.74891 0,0.19381 0.16185,0.35239 0.35966,0.35239 0.19781,0 0.82289,0.5565 1.38906,1.23667 0.56617,0.68017 1.35447,1.58832 1.75176,2.01813 0.3973,0.4298 0.65765,0.88617 0.57855,1.01416 -0.0791,0.12798 0.0474,0.30607 0.2811,0.39575 0.2337,0.0897 0.65835,0.62064 0.94367,1.17991 0.28532,0.55927 0.7428,1.13676 1.01663,1.28331 0.45639,0.24425 0.97955,1.43252 0.86017,1.95372 -0.0275,0.11995 0.0586,0.15103 0.1912,0.0691 0.30058,-0.18577 0.70333,0.30128 0.96589,1.16804 0.11021,0.3638 0.5415,1.05256 0.95843,1.53056 0.41692,0.47801 0.76716,0.95426 0.77829,1.05834 0.0773,0.7225 0.25261,1.22081 0.56346,1.60149 0.59387,0.72731 1.53296,2.59913 1.53296,3.05553 0,0.23485 0.11907,0.427 0.26459,0.427 0.14552,0 0.26458,0.29765 0.26458,0.66146 0,0.3638 0.12609,0.66145 0.2802,0.66145 0.15411,0 0.20661,0.11907 0.11668,0.26459 -0.0899,0.14552 -0.0503,0.26458 0.088,0.26458 0.30641,0 0.68562,1.23129 0.63413,2.05899 -0.0207,0.33209 0.0672,0.53903 0.19529,0.45989 0.24312,-0.15026 1.12677,1.98975 1.46104,3.53834 0.42358,1.96236 0.87447,2.6365 1.98616,2.96957 0.58264,0.17456 1.05934,0.39227 1.05934,0.48378 0,0.0915 0.25718,0.18578 0.57151,0.20945 0.31433,0.0237 0.65506,0.17825 0.75719,0.34349 0.10212,0.16524 0.2319,0.2718 0.28838,0.23679 0.18864,-0.11688 2.08709,0.65113 2.08709,0.84433 0,0.10472 0.3516,0.26763 0.78133,0.36202 0.42972,0.0944 1.0548,0.38418 1.38906,0.644 0.33425,0.25982 1.04369,0.61453 1.57653,0.78825 0.53283,0.17373 1.03511,0.4887 1.11617,0.69994 0.0811,0.21124 0.38925,0.38408 0.68486,0.38408 0.29561,0 0.53747,0.10921 0.53747,0.2427 0,0.13348 0.51199,0.43823 1.13776,0.67721 0.62577,0.23899 1.57108,0.83149 2.10069,1.31668 0.52961,0.48519 1.01932,0.82577 1.08824,0.75685 0.22667,-0.22667 1.49414,0.76273 1.49414,1.16634 0,0.24535 0.15296,0.33605 0.40418,0.23965 0.2293,-0.088 0.59817,0.0715 0.85255,0.36857 0.2466,0.28801 0.5865,0.52366 0.75532,0.52366 0.16882,0 0.7972,0.49026 1.39641,1.08946 0.5992,0.59921 1.08946,1.00135 1.08946,0.89365 0,-0.1077 0.18401,-0.0431 0.40891,0.14355 0.22491,0.18666 0.34533,0.50507 0.26762,0.7076 -0.0777,0.20252 -0.0251,0.29641 0.11691,0.20864 0.25598,-0.1582 0.56739,0.0366 1.69117,1.05814 0.32018,0.29105 0.6958,0.58559 0.8347,0.65454 0.92077,0.45708 4.36094,3.74975 4.19621,4.01629 -0.0761,0.12318 -0.006,0.22397 0.1556,0.22397 0.44883,0 4.77714,4.52765 4.60091,4.8128 -0.0849,0.13745 0.0957,0.3153 0.40134,0.39524 0.30569,0.0799 0.55579,0.29731 0.55579,0.48305 0,0.18574 0.1786,0.40624 0.39688,0.49 0.21828,0.0838 0.39687,0.33463 0.39687,0.55748 0,0.22285 0.12526,0.40518 0.27835,0.40518 0.15309,0 0.40281,0.35704 0.55494,0.79343 0.15213,0.43639 0.38406,0.72702 0.5154,0.64585 0.13135,-0.0812 0.23881,-0.0158 0.23881,0.14523 0,0.16106 0.32742,0.59628 0.72761,0.96716 0.40018,0.37087 0.7276,0.78625 0.7276,0.92306 0,0.1368 0.12536,0.33369 0.27857,0.43752 0.49298,0.33409 1.74627,2.13199 1.8286,2.62321 0.0439,0.2618 0.21542,0.44536 0.38118,0.40791 0.16577,-0.0375 0.40987,0.21722 0.54245,0.56592 0.13257,0.3487 0.58413,1.03418 1.00345,1.52329 0.83641,0.97561 2.52676,3.66742 2.303,3.66742 -0.0771,0 0.074,0.22986 0.33572,0.51079 0.4079,0.43782 2.28972,3.85354 2.34032,4.24793 0.0524,0.40858 1.03909,2.12044 1.22217,2.12044 0.11857,0 0.21558,0.16086 0.21558,0.35747 0,0.19661 0.29766,0.91728 0.66146,1.6015 0.3638,0.68422 0.66146,1.47959 0.66146,1.7675 0,0.28791 0.16545,0.58696 0.36766,0.66456 0.31618,0.12133 1.53723,2.91056 1.61045,3.67876 0.0139,0.14552 0.22063,0.681305 0.45945,1.190628 0.40572,0.865243 0.58119,1.340869 0.73212,1.984375 0.0341,0.145521 0.27465,0.681302 0.53449,1.190625 0.25983,0.509323 0.48519,1.015339 0.50079,1.124479 0.0156,0.109141 0.0372,0.228203 0.048,0.264584 0.0108,0.03638 0.0741,0.363802 0.14072,0.727604 0.0666,0.363802 0.34989,1.137708 0.62956,1.719791 0.27968,0.582084 0.57231,1.415521 0.65031,1.852083 0.24434,1.367769 0.35822,1.805853 0.91394,3.515889 0.51825,1.594721 0.99834,4.172884 0.86552,4.647899 -0.0348,0.124457 0.0471,0.362582 0.18192,0.529166 0.32421,0.400495 0.87879,3.14016 0.9718,4.800796 0.0407,0.727604 0.2039,1.918229 0.36254,2.645833 0.15865,0.727604 0.36583,4.061354 0.46041,7.408333 0.18635,6.594427 -0.0688,10.411584 -1.01442,15.176684 -0.44373,2.235984 -0.48913,2.924413 -0.24631,3.734864 0.16373,0.546478 0.29769,1.247672 0.29769,1.55821 0,0.310539 0.0948,0.564616 0.21073,0.564616 0.84815,0 1.70137,9.586737 1.13699,12.775205 -0.49312,2.785914 -1.07852,5.064915 -1.66516,6.482645 -0.16345,0.395005 -0.27796,0.807488 -0.25446,0.916628 0.0235,0.109141 -0.0631,0.198438 -0.19241,0.198438 -0.12933,0 -0.31331,0.416718 -0.40886,0.926041 -0.0956,0.509323 -0.25931,0.926042 -0.36391,0.926042 -0.1046,0 -0.40852,0.506015 -0.67539,1.124479 -0.52383,1.21399 -3.44097,5.750044 -4.36495,6.787359 -0.31149,0.349689 -0.56633,0.710882 -0.56633,0.802658 0,0.09177 -0.88564,1.09968 -1.96809,2.239793 -1.08245,1.140113 -2.03555,2.248736 -2.118,2.463607 -0.0825,0.214871 -0.37269,0.4489321 -0.64497,0.5201341 -0.27227,0.0712 -0.64898,0.417086 -0.83712,0.76863 -0.18814,0.351544 -0.48686,0.639172 -0.66381,0.639172 -0.17696,0 -0.52074,0.303718 -0.76397,0.674929 -1.10247,1.682591 -8.73262,6.468821 -10.31251,6.468821 -0.35151,0 -0.68152,0.127251 -0.73336,0.28277895 -0.0519,0.15553 -1.1631,0.578016 -2.46945,0.93886 -2.9693,0.82019 -8.26386,1.13314505 -10.97467,0.648695 -2.6946,-0.481552 -2.76659,-0.488479 -2.90989,-0.280011 -0.12749,0.185476 -5.62959,1.94671705 -6.97802,2.23369205 -0.16391,0.03489 -0.60416,0.189743 -0.97832,0.344133 -0.87581,0.361373 -11.15818,2.907225 -12.54886,3.10702 -0.58209,0.08363 -1.29646,0.204235 -1.5875,0.268021 -0.29105,0.06379 -2.61276,0.542856 -5.15938,1.064601 -2.54661,0.521742 -4.98739,1.068017 -5.42396,1.213942 -0.43656,0.145926 -1.0877,0.324509 -1.44699,0.396849 -0.35928,0.07234 -0.80055,0.253783 -0.98059,0.403209 -0.18005,0.149426 -0.45164,0.194874 -0.60354,0.100997 -0.15189,-0.09388 -0.27617,-0.05632 -0.27617,0.08347 0,0.278112 -4.29486,1.6933709 -6.61458,2.1796619 -0.80037,0.167782 -1.57427,0.391974 -1.71979,0.498202 -0.2418,0.176509 -3.03147,0.882422 -4.63021,1.171657 -0.3638,0.06582 -1.44702,0.305935 -2.40716,0.533601 -2.39273,0.567359 -10.80665,1.918814 -15.09539,2.424639 -4.12387,0.486381 -18.40872,0.734502 -21.30515,0.370059 z m 14.94066,-7.6676769 c 4.16124,-0.25309 12.55594,-1.373801 16.87935,-2.25343 7.96892,-1.621327 11.46473,-3.096747 17.80927,-7.51647905 2.45639,-1.71116795 3.25849,-0.57536295 1.08467,1.535936 l -1.19063,1.15637705 1.05834,-0.178864 c 0.58208,-0.09837 2.48708,-0.522909 4.23333,-0.94340905 1.74625,-0.420502 4.78234,-1.141195 6.74688,-1.601541 6.96599,-1.63233095 11.01334,-2.66201495 13.62604,-3.46658595 3.5884,-1.105041 8.06979,-2.854111 8.06979,-3.149614 0,-0.132656 -0.13473,-0.748916 -0.29939,-1.369467 -0.42244,-1.5919901 0.0464,-3.5683851 1.59944,-6.7431471 3.09428,-6.325224 8.05347,-12.222741 13.09011,-15.566878 0.83128,-0.55194 1.64182,-0.907333 1.8698,-0.819849 0.23597,0.09055 0.37639,0.02156 0.33947,-0.166777 -0.10548,-0.538036 1.45203,-0.562343 1.84221,-0.02875 0.74881,1.024064 0.42828,1.75954 -1.31257,3.011791 -1.76583,1.270212 -6.95322,6.331074 -8.26553,8.063918 -0.43656,0.576458 -1.53595,2.23095 -2.44308,3.676649 -3.72065,5.929601 -3.86214,9.0872421 -0.46122,10.2927921 2.05344,0.727895 7.18971,0.492532 10.18034,-0.466506 5.59669,-1.794748 10.08811,-5.0383991 15.22103,-10.9924681 2.80005,-3.247999 4.31195,-5.507061 6.10106,-9.116131 2.03524,-4.10559 2.58597,-6.507191 2.42227,-10.562994 -0.1488,-3.686932 -0.80953,-5.995434 -1.98403,-6.93194 -0.79803,-0.636329 -0.83165,-0.114176 0.34725,-5.391523 1.27932,-5.726827 1.48881,-19.004557 0.40284,-25.532291 -2.0804,-12.505266 -6.06531,-23.708393 -12.02276,-33.800674 -0.83966,-1.42243 -1.43822,-2.71681 -1.33418,-2.88515 0.10378,-0.16792 0.0768,-0.23613 -0.06,-0.15159 -0.13681,0.0846 -1.31606,-1.40529 -2.62057,-3.31075 -2.17873,-3.1824 -3.21287,-4.56535 -5.88783,-7.87371 -1.71247,-2.11796 -6.469,-6.88016 -9.18401,-9.19496 -1.45521,-1.2407 -2.83024,-2.4476 -3.05563,-2.68199 -0.22539,-0.2344 -0.60167,-0.54524 -0.83619,-0.69076 -0.23452,-0.14552 -1.83605,-1.22831 -3.55896,-2.4062 -4.93756,-3.37564 -11.28564,-6.98651 -12.28261,-6.98651 -0.13346,0 -0.24914,0.74414 -0.25707,1.65365 -0.0138,1.5783 -0.42606,4.48599 -1.00691,7.1011 -0.56438,2.541 -3.16716,8.11553 -3.60396,7.71881 -0.12212,-0.11092 -0.14235,-0.0625 -0.0449,0.10766 0.0975,0.17038 -0.23168,0.7428 -0.73285,1.2742 -0.50049,0.53066 -0.91614,1.0463 -0.92369,1.14586 -0.0313,0.41344 -3.23396,3.46735 -4.83228,4.6079 -3.0706,2.19113 -9.29466,4.8439 -8.55428,3.64594 0.0899,-0.14541 -0.007,-0.19685 -0.2181,-0.11583 -0.27689,0.10625 -0.41029,-0.11591 -0.49252,-0.82023 -0.10603,-0.90825 -0.0309,-1.02382 1.2568,-1.93469 2.28963,-1.61954 4.02668,-3.06378 4.1883,-3.48228 0.0843,-0.21828 0.80699,-1.17078 1.60598,-2.11667 1.80458,-2.13633 4.19939,-6.84124 4.9156,-9.65729 0.29607,-1.16417 0.67278,-3.33561 0.83712,-4.82543 1.53962,-13.9578 -9.71919,-35.18309 -22.43452,-42.29391 -1.54337,-0.8631 -5.42859,-2.58843 -6.52397,-2.89713 -0.10914,-0.0308 -0.22821,-0.0799 -0.26459,-0.10924 -0.0755,-0.0609 -0.1883,-0.0888 -2.71198,-0.67171 -3.4548,-0.79798 -11.19476,-0.72667 -13.22916,0.12189 -1.14554,0.4778 -3.73336,1.33302 -4.2511,1.40489 -0.30082,0.0418 -0.87795,0.33629 -1.28252,0.65452 -0.40456,0.31824 -1.14071,0.72511 -1.63587,0.90416 -0.49517,0.17906 -0.9003,0.42772 -0.9003,0.5526 0,0.12488 -0.11906,0.15346 -0.26459,0.0635 -0.14552,-0.0899 -0.26458,-0.0374 -0.26458,0.11667 0,0.15411 -0.17859,0.2802 -0.39687,0.2802 -0.21829,0 -0.39688,0.11906 -0.39688,0.26458 0,0.14553 -0.13307,0.26459 -0.29571,0.26459 -0.16264,0 -0.77095,0.47524 -1.3518,1.05609 -0.58086,0.58085 -1.18056,0.97918 -1.33267,0.88516 -0.15212,-0.094 -0.19996,-0.047 -0.10632,0.10455 0.23106,0.37387 -0.51562,0.95891 -0.91154,0.71422 -0.21045,-0.13007 -0.24751,-0.0834 -0.1102,0.13874 0.23565,0.3813 -1.80506,2.46384 -2.12918,2.17282 -0.10829,-0.0972 -0.12896,0.0138 -0.0459,0.24664 0.0916,0.25683 -0.25193,0.93349 -0.87302,1.71979 -0.56318,0.713 -1.34868,1.95121 -1.74556,2.75157 -0.39688,0.80037 -0.87802,1.61254 -1.0692,1.80484 -0.19119,0.19229 -0.34834,0.48995 -0.34924,0.66146 -7.9e-4,0.1715 -0.18941,0.66901 -0.41892,1.10558 -1.06979,2.03492 -1.95761,6.78928 -1.9269,10.31875 0.0258,2.96611 0.0791,3.5596 0.42803,4.76249 0.16883,0.58209 0.3661,1.39608 0.43837,1.80888 0.0723,0.41279 0.26674,0.91359 0.43213,1.11289 0.1654,0.19929 0.22392,0.48662 0.13004,0.63852 -0.0939,0.1519 -0.0376,0.27617 0.12513,0.27617 0.1627,0 0.21107,0.13713 0.10749,0.30472 -0.10358,0.1676 -0.01,0.43549 0.20831,0.59532 0.21814,0.15982 0.6028,0.68957 0.85479,1.17723 l 0.45816,0.88663 -1.11816,-0.18891 c -1.76087,-0.2975 -4.40829,-1.63741 -4.0846,-2.0673 0.0739,-0.0982 0.0522,-0.11609 -0.0484,-0.0398 -0.10055,0.0763 -0.73583,-0.40597 -1.41174,-1.07171 l -1.22891,-1.21043 -4.60248,0.3001 c -2.53137,0.16506 -4.67596,0.34552 -4.76577,0.40102 -0.0898,0.0555 -0.92551,0.12073 -1.85713,0.14495 -0.93162,0.0242 -1.88127,0.14043 -2.11034,0.25822 -0.22906,0.1178 -0.8839,0.27843 -1.4552,0.35697 -0.57131,0.0785 -1.45545,0.21941 -1.96478,0.31306 -0.50932,0.0936 -1.10463,0.19366 -1.32291,0.22225 -0.21828,0.0286 -0.57547,0.12698 -0.79375,0.21864 -0.83158,0.34922 -2.70562,0.75037 -2.84664,0.60935 -0.0811,-0.0811 -0.30931,-0.013 -0.50722,0.15126 -0.19792,0.16425 -0.56606,0.32047 -0.8181,0.34714 -0.25204,0.0267 -0.63684,0.11655 -0.85513,0.19971 -0.83729,0.31901 -3.80223,1.32876 -4.07711,1.38852 -0.15868,0.0345 -0.48757,0.14941 -0.73087,0.25535 -0.2433,0.10595 -0.60048,0.22502 -0.79375,0.26459 -0.33948,0.0695 -0.53684,0.13615 -1.67431,0.56537 -0.29104,0.10982 -0.63336,0.17581 -0.76072,0.14664 -0.12735,-0.0292 -0.44017,0.13575 -0.69514,0.3665 -0.25498,0.23075 -0.76075,0.47343 -1.12394,0.53929 -0.36319,0.0659 -1.34729,0.5334 -2.18688,1.03898 -0.8396,0.50558 -1.62861,0.85615 -1.75337,0.77905 -0.12475,-0.0771 -0.22682,-0.007 -0.22682,0.15563 0,0.16269 -0.11084,0.22731 -0.2463,0.14359 -0.13547,-0.0837 -0.31912,-0.0344 -0.40812,0.10959 -0.089,0.144 -0.60324,0.46895 -1.14276,0.7221 -0.53952,0.25316 -2.07887,1.14931 -3.42079,1.99146 -1.34191,0.84214 -2.50779,1.53117 -2.59085,1.53117 -0.0831,0 -0.29482,0.11923 -0.47058,0.26496 -1.0178,0.84387 -3.66842,2.64546 -3.89218,2.64546 -0.14511,0 -0.26384,0.12609 -0.26384,0.2802 0,0.15411 -0.10084,0.21787 -0.22409,0.1417 -0.12326,-0.0762 -0.5601,0.21221 -0.97076,0.64084 -0.41066,0.42865 -1.23255,1.10495 -1.82642,1.50291 -0.59387,0.39796 -1.44865,1.08482 -1.89951,1.52635 -4.9177,4.81598 -6.29854,6.08146 -6.55379,6.00626 -0.16466,-0.0485 -0.21744,-0.006 -0.11728,0.0939 0.10016,0.10016 -0.0849,0.43751 -0.4112,0.74966 -0.32632,0.31215 -1.38204,1.57957 -2.34604,2.8165 -2.18731,2.80657 -3.27352,3.98503 -3.48144,3.77711 -0.0886,-0.0886 -0.16113,0.10803 -0.16113,0.43701 0,0.32899 -0.53578,1.30266 -1.19063,2.16372 -0.65484,0.86106 -1.19062,1.62847 -1.19062,1.70535 0,0.0769 -0.41672,0.75856 -0.92604,1.51486 -0.50933,0.7563 -0.92605,1.52551 -0.92605,1.70936 0,0.18384 -0.10921,0.33426 -0.2427,0.33426 -0.13348,0 -0.44731,0.53578 -0.6974,1.19062 -0.25009,0.65485 -0.55759,1.19063 -0.68334,1.19063 -0.12575,0 -0.22864,0.18333 -0.22864,0.40741 0,0.49979 -0.98494,2.46741 -1.48587,2.96834 -0.20142,0.20141 -0.3811,0.47677 -0.39929,0.6119 -0.0663,0.49218 -0.12365,0.65276 -0.43001,1.20308 -0.17162,0.30829 -0.23686,0.63571 -0.14497,0.7276 0.0919,0.0919 0.0282,0.16708 -0.14159,0.16708 -0.16978,0 -0.30869,0.23813 -0.30869,0.52917 0,0.29104 -0.10581,0.52917 -0.23513,0.52917 -0.12933,0 -0.31237,0.41169 -0.40677,0.914864 -0.0944,0.503177 -0.34504,1.247317 -0.55698,1.653646 -0.21195,0.406328 -0.38609,0.958911 -0.38699,1.22796 -7.9e-4,0.269049 -0.16832,0.864362 -0.37206,1.322917 -1.41936,3.194594 -3.30856,11.497346 -4.13299,18.163944 -0.61516,4.974359 -0.74502,7.488985 -0.81697,15.819875 l -0.0555,6.427169 -1.34694,1.058097 c -1.57035,1.233583 -5.023719,4.521332 -5.039975,4.798259 -0.0061,0.104423 -0.219507,0.433204 -0.474168,0.730628 -0.254662,0.297423 -0.465078,0.628705 -0.467592,0.736182 -0.0025,0.107476 -0.287287,0.463402 -0.63283,0.790942 -0.345542,0.327541 -0.707025,0.90936 -0.803295,1.292932 -0.09627,0.383572 -0.450708,1.068083 -0.787639,1.521137 -0.549043,0.73827 -0.902036,1.650699 -1.086382,2.80811 -0.03477,0.218282 -0.285443,1.170782 -0.557059,2.116667 -0.667418,2.324235 -0.678156,9.536316 -0.01702,11.430362 0.238808,0.684146 0.48654,1.517584 0.550514,1.852083 0.288403,1.50795 2.279243,5.603988 3.907308,8.039057 2.919398,4.366495 6.981498,8.182231 11.496798,10.7995191 4.54185,2.632678 8.98798,4.188888 15.18626,5.315418 5.72375,1.040286 8.49669,1.20577495 19.8008,1.18170795 9.29028,-0.01976 10.74678,0.03094 11.24479,0.391557 1.48601,1.076037 3.32132,2.19334005 4.34243,2.64358405 0.61846,0.272706 1.12448,0.603832 1.12448,0.735841 0,0.132008 0.11121,0.171281 0.24714,0.08727 0.13593,-0.08401 0.70147,0.02606 1.25677,0.244631 1.43452,0.564605 4.60572,1.203528 7.19886,1.450401 5.80383,0.552537 10.59626,-1.257372 10.93143,-4.12836305 0.0599,-0.512765 -0.039,-1.217237 -0.21967,-1.56549695 -0.18068,-0.348258 -0.24731,-0.68317 -0.14808,-0.744246 0.0992,-0.06108 1.60917,-0.254635 3.35542,-0.430133 2.22994,-0.224108 3.77372,-0.54328 5.18646,-1.072288 4.14789,-1.553199 11.40071,-3.066446 16.00506,-3.33934 2.59276,-0.15367 2.68348,-0.140036 3.10885,0.467275 1.05131,1.500944 0.28213,1.917676 -5.32945,2.887445 -12.12849,2.095992 -16.00037,3.76045395 -16.00037,6.878301 0,1.466649 0.599,2.219619 2.51252,3.158355 4.62549,2.269175 12.42703,3.067508 23.43426,2.398033 z M 163.03238,-19.867991 c -0.15613,-0.106912 -0.36076,-0.402746 -0.45472,-0.657407 -0.094,-0.254662 -0.33471,-0.463021 -0.535,-0.463021 -1.30848,0 -3.62119,-5.518359 -3.62119,-8.640519 0,-0.939844 -0.1676,-1.33306 -0.92604,-2.172557 -0.50932,-0.563758 -0.92604,-1.159414 -0.92604,-1.323678 0,-0.164264 -0.1035,-0.298662 -0.23,-0.298662 -0.40796,0 -1.61433,-3.158416 -1.92508,-5.040085 -0.22972,-1.390959 -0.42007,-1.864963 -0.79699,-1.984594 -0.27236,-0.08644 -0.41554,-0.286054 -0.31818,-0.443582 0.10479,-0.169566 0.0537,-0.210209 -0.12523,-0.09962 -0.43837,0.270931 -2.94291,-2.159312 -3.51664,-3.412323 -0.69177,-1.510814 -0.63463,-2.615656 0.17727,-3.427559 0.37042,-0.370416 0.75737,-0.670467 0.85989,-0.666779 0.10253,0.0037 0.5436,0.7444 0.98017,1.646031 1.48583,3.068689 4.67354,4.697265 9.19421,4.697265 2.00223,0 2.76568,-0.125891 4.28561,-0.706686 3.02551,-1.156113 4.90199,-3.433305 4.90724,-5.955144 0.002,-0.824153 0.67302,-1.602589 1.28106,-1.485493 0.70552,0.135873 1.61561,1.753166 1.58421,2.815246 -0.0342,1.158548 -0.69298,2.950827 -1.08454,2.950827 -0.15397,0 -0.20376,0.07619 -0.11064,0.169307 0.28727,0.287269 -1.34738,2.124631 -2.66603,2.996628 l -1.25154,0.827628 -0.2962,2.964156 -0.29619,2.964156 1.1252,1.5875 c 2.2244,3.138331 3.83281,7.212223 3.83281,9.70803 0,2.00374 -1.20666,3.653428 -2.6723,3.653428 -1.15098,0 -1.44646,-0.598758 -1.05303,-2.133849 0.20723,-0.808551 0.26578,-1.837457 0.1534,-2.695755 -0.22854,-1.745477 -2.30047,-6.179629 -2.98976,-6.3984 -0.2759,-0.08757 -1.02574,0.07858 -1.66632,0.36921 -0.64058,0.290632 -1.43258,0.531037 -1.76001,0.534233 -0.72408,0.0071 -0.74721,0.375024 -0.17815,2.833664 0.46239,1.997758 1.3726,3.9833 2.36871,5.167097 0.76006,0.903281 0.81357,1.332395 0.23794,1.908026 -0.44217,0.442169 -1.12056,0.533291 -1.5879,0.213285 z m -0.19211,-13.688956 c 0.74298,-0.520403 1.14716,-1.8019 1.2149,-3.851957 l 0.0548,-1.659655 -3.13521,-0.02191 -3.13521,-0.02191 0.12396,1.058334 c 0.0682,0.582083 0.46699,1.786122 0.88625,2.675641 0.58955,1.250799 0.94217,1.677069 1.55605,1.881026 1.19069,0.395597 1.80607,0.380539 2.43442,-0.05957 z m 106.7122,11.251612 c -0.65442,-0.654415 -0.58768,-0.828286 1.49975,-3.907099 4.80999,-7.094365 6.94837,-14.844963 6.95352,-25.203067 0.006,-11.631937 -2.73435,-25.180826 -6.76025,-33.426903 -0.76999,-1.577142 -1.3372,-3.031125 -1.26048,-3.231076 0.17966,-0.468186 1.00714,-0.728938 1.65785,-0.522409 1.74239,0.553013 6.87674,12.208263 8.74436,19.850181 1.53528,6.282033 2.11761,10.82341 2.12044,16.536457 0.003,6.243749 -0.77631,10.809208 -2.6579,15.569067 -2.05407,5.196197 -8.2181,14.858015 -9.47908,14.858015 -0.16228,0 -0.53047,-0.235423 -0.81821,-0.523166 z m -145.9237,-24.399247 c -0.73003,-0.413967 -0.92789,-0.774588 -0.80404,-1.465407 0.28232,-1.574702 1.49568,-2.051458 5.96341,-2.343182 1.96875,-0.128551 2.3561,-0.07902 3.10885,0.397565 1.04438,0.661207 1.14058,1.61848 0.25195,2.507113 -0.47924,0.479231 -1.11327,0.672758 -2.99449,0.914016 -2.97801,0.381915 -4.84038,0.37851 -5.52568,-0.01011 z m -13.22917,-2.039786 c -2.3118,-0.847148 -4.9069,-2.202093 -5.3043,-2.76946 -0.5673,-0.809929 -0.47454,-1.303663 0.40285,-2.144249 1.05343,-1.009253 2.24556,-0.94814 4.63687,0.237699 2.50271,1.241086 3.60259,2.201688 3.72504,3.253359 0.0797,0.684379 -0.0444,0.943091 -0.66374,1.384112 -0.9194,0.654669 -1.10825,0.657272 -2.79672,0.03854 z m 10.84792,-3.362444 c -2.54769,-0.266282 -6.77895,-0.975781 -8.69765,-1.458423 -4.11842,-1.035965 -5.19298,-1.925555 -5.19298,-4.299066 0,-0.965491 0.14806,-1.331473 0.80405,-1.987455 1.28719,-1.287198 2.57725,-1.35241 8.45637,-0.427463 4.26932,0.671682 10.42386,0.957786 13.92325,0.647247 6.80033,-0.603469 7.55719,-0.603276 8.51611,0.0021 1.62609,1.026686 1.89952,2.866681 0.69842,4.699793 -0.60305,0.920385 -2.75611,1.822178 -5.54299,2.321656 -2.30557,0.413213 -10.70196,0.738036 -12.96458,0.501546 z m 89.87592,-3.816913 c -1.69407,-1.578269 0.36741,-3.57546 5.43187,-5.262465 0.90491,-0.301434 1.88054,-0.54806 2.16806,-0.54806 0.72081,0 1.81996,1.040357 2.02606,1.917697 0.28155,1.198512 -0.90273,2.033042 -4.70927,3.318486 -1.81406,0.6126 -3.53215,1.113816 -3.81798,1.113816 -0.28583,0 -0.78026,-0.242763 -1.09874,-0.539474 z m -18.30087,-2.285349 c -1.15067,-0.602933 -2.12224,-2.023589 -2.12095,-3.101282 0.001,-1.12609 0.87926,-2.469647 1.91543,-2.931406 0.47394,-0.211206 3.00483,-0.801171 5.62421,-1.311031 8.56122,-1.666439 18.1115,-4.763918 25.53229,-8.280987 1.20691,-0.572014 3.89942,-0.728721 4.75456,-0.276725 1.01786,0.538001 1.86002,1.987015 1.86002,3.20032 0,0.909196 -0.1653,1.222049 -1.13268,2.143686 -4.10054,3.906636 -23.72769,10.495004 -32.4694,10.899205 -2.61059,0.120709 -3.17347,0.07217 -3.96348,-0.34178 z m 30.77138,-1.188056 c -0.7897,-0.389742 -1.27217,-1.601973 -0.90824,-2.281989 0.34653,-0.647491 2.67738,-2.759493 4.20657,-3.811606 2.16102,-1.486818 3.29098,-1.448527 4.23021,0.143357 0.54323,0.920707 0.54369,0.938056 0.0399,1.518965 -0.28031,0.323191 -0.50964,0.667316 -0.50964,0.764722 0,0.214215 -2.07042,1.594014 -2.39185,1.594014 -0.12523,0 -0.32291,0.161269 -0.43928,0.358373 -0.28626,0.484854 -2.26976,1.706081 -3.03387,1.867926 -0.33951,0.07191 -0.87671,0.0027 -1.19377,-0.153762 z m -99.47002,-28.0248 c -1.12294,-0.325528 -2.43648,-1.727264 -2.6412,-2.818535 -0.6082,-3.241974 1.73938,-7.404626 5.05645,-8.965932 1.57696,-0.742255 2.84859,-0.793473 4.08224,-0.16442 2.02361,1.031867 2.68452,3.156836 1.81019,5.820213 -0.29861,0.909619 -0.64523,1.653855 -0.77028,1.653855 -0.12505,0 -0.22736,0.150874 -0.22736,0.335275 0,1.127157 -4.22707,4.524782 -5.01983,4.034829 -0.14951,-0.0924 -0.27183,-0.04191 -0.27183,0.112197 0,0.33101 -0.86174,0.327816 -2.01838,-0.0075 z m 72.2622,-3.934669 c -2.89022,-0.616583 -5.76083,-2.5878 -7.31584,-5.023721 -1.40674,-2.20364 -0.91564,-4.91473 1.17017,-6.45995 0.92662,-0.68646 3.66093,-0.89425 5.72494,-0.43505 2.058,0.45786 4.63353,1.76488 6.1313,3.11151 1.41133,1.268904 2.63279,3.455071 2.61538,4.680989 -0.0178,1.251831 -1.07454,2.843678 -2.36484,3.562286 -1.27089,0.707795 -4.05303,0.970992 -5.96111,0.563936 z m 45.13701,-34.225561 c -0.13137,-0.13137 -0.13791,-0.57264 -0.0148,-1.00177 0.12098,-0.42184 0.14599,-0.76698 0.0556,-0.76698 -0.0904,0 0.0227,-0.14883 0.25132,-0.33073 0.22864,-0.1819 0.48492,-0.63076 0.5695,-0.99745 0.0846,-0.3667 0.37003,-0.90248 0.63433,-1.19063 0.57529,-0.62719 1.97559,-4.11868 2.55997,-6.38298 1.94369,-7.53131 0.51208,-16.64503 -3.68228,-23.4416 -1.24059,-2.01028 -4.47678,-5.56615 -6.34922,-6.97644 -1.4147,-1.06553 -3.73916,-2.34816 -4.96337,-2.73879 -0.54704,-0.17455 -0.93923,-0.40699 -0.87153,-0.51652 0.0677,-0.10954 -0.0205,-0.19946 -0.196,-0.19981 -0.1755,-2.6e-4 -1.45019,-0.15019 -2.83264,-0.33297 -2.38593,-0.31545 -3.52689,-0.25635 -7.14375,0.37007 -0.21828,0.0378 -0.83953,0.26335 -1.38056,0.50121 -0.54103,0.23786 -1.07945,0.43247 -1.19649,0.43247 -0.11704,0 -0.62688,0.33985 -1.13298,0.75522 -0.50609,0.41537 -1.27736,0.94271 -1.71392,1.17187 -0.43657,0.22916 -1.03188,0.78194 -1.32292,1.2284 -0.29104,0.44646 -0.74455,0.81208 -1.0078,0.8125 -0.26325,5.3e-4 -0.40505,0.11982 -0.31512,0.26534 0.0899,0.14552 0.0304,0.26459 -0.13229,0.26459 -0.1627,0 -0.22375,0.1166 -0.13567,0.25911 0.23609,0.382 -0.37124,1.37337 -0.71223,1.16263 -0.18012,-0.11133 -0.21703,-0.059 -0.0962,0.13651 0.10778,0.17441 0.008,0.60327 -0.22071,0.95304 -0.93196,1.42235 -1.57026,4.63438 -1.55152,7.80746 0.0159,2.69714 0.11395,3.32605 0.86297,5.53752 0.46474,1.37215 1.02603,2.77114 1.24732,3.10886 0.36223,0.55283 0.35913,0.67996 -0.0311,1.27549 -0.29497,0.45019 -0.67495,0.66146 -1.18965,0.66146 -2.34994,0 -4.65688,-7.65783 -4.01327,-13.32197 0.41349,-3.63904 1.62164,-6.67534 3.80724,-9.56838 1.189,-1.57386 3.56511,-3.76061 3.94881,-3.63413 0.11037,0.0364 0.20067,-0.0382 0.20067,-0.16566 0,-0.45541 3.70376,-2.16744 5.83829,-2.69869 2.91041,-0.72436 7.02619,-0.72804 9.81136,-0.009 2.48294,0.64122 6.36048,2.53941 8.41177,4.11784 5.51111,4.2407 9.42067,10.76188 11.42802,19.06205 0.46497,1.92256 0.57778,3.19669 0.58565,6.61458 0.009,3.83522 -0.0594,4.48216 -0.72556,6.87917 -0.40443,1.45521 -0.83368,3.04268 -0.9539,3.52772 -0.26992,1.08903 -2.05205,4.78004 -2.54685,5.27484 -0.19984,0.19984 -0.36335,0.46981 -0.36335,0.59992 0,0.13011 -0.35518,0.5999 -0.78928,1.04398 -0.58458,0.59802 -0.99723,0.79157 -1.59114,0.74631 -0.44102,-0.0336 -0.90752,-0.16676 -1.03666,-0.2959 z m -6.5421,-5.33292 c -3.8744,-4.23757 -7.79569,-7.28704 -12.43598,-9.6711 -3.0267,-1.55504 -3.26943,-1.73968 -3.26943,-2.48692 0,-2.70929 5.3659,-0.86599 12.30313,4.22639 1.83241,1.34511 4.89479,4.08623 4.89479,4.3813 0,0.084 0.59157,0.76973 1.3146,1.52383 1.12587,1.17426 1.30929,1.51228 1.27763,2.35445 -0.0463,1.23109 -0.47908,1.67701 -1.54858,1.59552 -0.65969,-0.0503 -1.19395,-0.45546 -2.53616,-1.92347 z m -127.22948,25.26441 c 0.80158,-1.59831 1.45741,-3.08449 1.45741,-3.30264 0,-0.21814 -0.45247,-1.14285 -1.00549,-2.05492 -2.13006,-3.51301 -3.18942,-6.99272 -3.40464,-11.18331 -0.35229,-6.85923 1.89142,-12.83062 6.51171,-17.33021 4.04885,-3.94307 8.9493,-5.74774 14.83176,-5.46205 3.90072,0.18945 6.9214,1.04035 9.52271,2.68249 0.58334,0.36824 1.06062,0.56809 1.06062,0.4441 0,-0.25559 1.34015,-0.9597 1.67331,-0.87916 0.11996,0.029 0.15457,-0.0501 0.0769,-0.17571 -0.19561,-0.3165 4.83346,-3.6016 8.9192,-5.82623 1.86637,-1.01621 3.46199,-1.91624 3.54582,-2.00007 0.0838,-0.0838 -0.30349,-0.89837 -0.86071,-1.81008 -2.21845,-3.62977 -4.77356,-6.46303 -7.49226,-8.30785 -0.82316,-0.55857 -1.55983,-1.10101 -1.63704,-1.20543 -0.14465,-0.1956 -4.84042,-2.0658 -5.54816,-2.20967 -0.21828,-0.0444 -0.39687,-0.0997 -0.39687,-0.12297 0,-0.0448 -0.33314,-0.10134 -2.24896,-0.38204 -2.24365,-0.32874 -6.94894,-0.20131 -8.46667,0.22928 -0.80036,0.22708 -1.75881,0.41428 -2.12989,0.416 -0.37108,0.002 -0.7878,0.1075 -0.92604,0.23505 -0.38718,0.35723 -3.29354,1.37366 -3.29812,1.15344 -0.002,-0.1071 -0.0915,-0.0757 -0.19843,0.0699 -0.10692,0.14552 -0.9683,0.61699 -1.91418,1.0477 -0.94589,0.43071 -1.90776,0.93673 -2.1375,1.12448 -0.22974,0.18775 -0.55716,0.34136 -0.72761,0.34136 -0.17044,0 -0.30989,0.0971 -0.30989,0.21587 0,0.11872 -0.50602,0.49646 -1.12448,0.83942 -0.61847,0.34295 -1.21969,0.7816 -1.33607,0.97476 -0.11637,0.19316 -0.35959,0.3512 -0.54049,0.3512 -0.1809,0 -1.21168,0.83344 -2.29063,1.85209 -1.07894,1.01864 -2.04936,1.85208 -2.15648,1.85208 -0.10712,0 -0.36102,0.23737 -0.56423,0.52748 -0.2032,0.29012 -0.44808,0.44887 -0.54417,0.35278 -0.0961,-0.0961 -0.1747,0.0412 -0.1747,0.30498 0,0.26382 -0.54829,1.08733 -1.21841,1.83003 -0.67013,0.74269 -1.5631,1.73409 -1.98438,2.2031 -0.42128,0.46901 -0.765963,1.03455 -0.765963,1.25677 0,0.22221 -0.119062,0.40403 -0.264583,0.40403 -0.145521,0 -0.264583,0.15041 -0.264583,0.33426 0,0.18384 -0.44285,0.98751 -0.984111,1.78594 -0.541262,0.79842 -1.184411,1.98745 -1.429222,2.6423 -0.24481,0.65484 -0.886319,2.31979 -1.425574,3.69989 -0.539256,1.3801 -1.288784,3.82089 -1.665619,5.42396 -0.589435,2.50749 -0.686044,3.52459 -0.691522,7.28031 -0.0054,3.70548 0.084,4.70571 0.591207,6.61459 1.015879,3.82323 2.436883,6.87919 4.323739,9.29849 0.413565,0.53026 0.751935,1.04731 0.751935,1.14899 0,0.63718 6.565966,6.22127 7.315186,6.22127 0.0488,0 0.74456,-1.30771 1.54615,-2.90601 z m 4.04649,-7.74347 c 0.28357,-0.47295 0.88576,-1.54668 1.33821,-2.38609 0.8657,-1.60608 3.2433,-5.42067 4.07857,-6.5436 2.83056,-3.80537 5.49385,-7.06475 5.9644,-7.29935 0.31828,-0.15868 0.49955,-0.36765 0.40283,-0.46437 -0.23178,-0.23178 0.96473,-1.4967 1.41574,-1.4967 0.19292,0 0.35076,-0.15947 0.35076,-0.35437 0,-0.41656 4.00822,-4.29379 6.17171,-5.97 2.26435,-1.75436 2.26338,-1.75131 0.7938,-2.4915 -2.94889,-1.48528 -8.0605,-1.93114 -11.599,-1.01173 -6.08293,1.58053 -10.73365,6.44792 -12.43525,13.0146 -0.52934,2.04281 -0.51338,6.89824 0.0305,9.28966 0.23337,1.02601 0.4458,2.01197 0.47208,2.19101 0.0769,0.52387 2.11746,4.38233 2.31762,4.38233 0.10034,0 0.41444,-0.38695 0.698,-0.85989 z"
       id="path3986" /></g></svg>
