<?xml version="1.0" encoding="UTF-8" standalone="no"?>
<!-- Created with Inkscape (http://www.inkscape.org/) -->

<svg
   width="178.78108mm"
   height="209.2189mm"
   viewBox="0 0 178.78111 209.21889"
   version="1.1"
   id="svg5"
   xml:space="preserve"
   xmlns="http://www.w3.org/2000/svg"
   xmlns:svg="http://www.w3.org/2000/svg"><defs
     id="defs2" /><g
     id="layer1"
     transform="translate(58.55018,166.21653)"><path
       style="fill:#000000;stroke-width:0.264583"
       d="m 1.7328795,42.47325 c -0.57086,-0.291041 -1.19135003,-0.529166 -1.37886003,-0.529166 -0.18751,0 -0.34093,-0.116795 -0.34093,-0.259543 0,-0.142748 -0.29766,-0.334248 -0.66146,-0.425559 -0.36379997,-0.09131 -0.66145997,-0.259262 -0.66145997,-0.373232 0,-0.113969 -0.27026,-0.275047 -0.60058,-0.357952 -0.33031,-0.0829 -0.83633,-0.369715 -1.12448,-0.637355 -0.51984,-0.482851 -1.43944,-0.966176 -1.73747,-0.91318 -0.0854,0.01519 -0.56163,-0.348281 -1.05833,-0.807696 -0.4967,-0.459414 -1.11146,-0.802637 -1.36612,-0.76272 -0.25466,0.03992 -0.46302,-0.05396 -0.46302,-0.208631 0,-0.154668 -0.17859,-0.281215 -0.39687,-0.281215 -0.21828,0 -0.39688,-0.163711 -0.39688,-0.363803 0,-0.200091 -0.32742,-0.430043 -0.7276,-0.511002 -0.40018,-0.08096 -0.9905205,-0.393502 -1.3118605,-0.694532 -0.32133,-0.301032 -0.71202,-0.54733 -0.8682,-0.54733 -0.15617,0 -0.34628,-0.162433 -0.42246,-0.36096 -0.0762,-0.198528 -0.77103,-0.680985 -1.54411,-1.072129 -0.77308,-0.391142 -1.65454,-0.943084 -1.95879,-1.22654 -0.30425,-0.283453 -0.62742,-0.515371 -0.71816,-0.515371 -0.0907,0 -0.67223,-0.415666 -1.29222,-0.9237 -0.61999,-0.508034 -1.20558,-0.845378 -1.3013,-0.749652 -0.0957,0.09573 -0.17405,0.04907 -0.17405,-0.103674 0,-0.308012 -1.27907,-0.309176 -1.7646,-0.0016 -0.17017,0.1078 -0.48909,0.0163 -0.70871,-0.203311 -0.21962,-0.219636 -0.49408,-0.399325 -0.60992,-0.399325 -0.11584,0 -0.57083,-0.397065 -1.01109,-0.882369 -0.44026,-0.485304 -1.19232,-1.109184 -1.67126,-1.386398 -0.47893,-0.277215 -0.93633,-0.765188 -1.01644,-1.08439 -0.0892,-0.355343 -0.2875,-0.525938 -0.51148,-0.439989 -0.2012,0.07721 -0.54334,-0.02 -0.76031,-0.21605 -0.9833,-0.888424 -1.6252,-1.259605 -2.04518,-1.182638 -0.0974,0.01786 -0.48437,-0.256185 -0.8599,-0.608972 -0.37553,-0.352791 -0.68277,-0.498872 -0.68277,-0.324631 0,0.216434 -0.20588,0.181909 -0.64983,-0.108977 -0.3574,-0.23418 -0.77367,-0.349236 -0.92504,-0.255682 -1.0215,0.631319 -3.62594,0.747022 -4.05093,0.179961 -0.18003,-0.240207 -0.48542,-0.469593 -0.67864,-0.509749 -0.35462,-0.07369 -3.0554,-1.989013 -3.70248,-2.62569 -0.1923,-0.189206 -0.45284,-0.344009 -0.57899,-0.344009 -0.12614,0 -0.6143,-0.351596 -1.0848,-0.781327 -0.47049,-0.429731 -0.95493,-0.719842 -1.07653,-0.644689 -0.12159,0.07515 -0.29251,-0.0495 -0.37981,-0.277006 -0.0873,-0.227504 -0.32833,-0.413644 -0.53561,-0.413644 -0.20727,0 -0.43779,-0.15875 -0.51224,-0.352777 -0.0745,-0.19403 -0.28354,-0.35278 -0.46464,-0.35278 -0.43714,0 -3.31777,-1.845659 -4.11581,-2.637057 -0.34727,-0.344376 -0.87313,-0.626136 -1.16858,-0.626136 -0.29545,0 -0.46233,-0.07486 -0.37084,-0.166349 0.17945,-0.179445 -2.64055,-1.66371 -3.187,-1.677432 -0.1819,-0.0046 -0.33073,-0.103446 -0.33073,-0.219733 0,-0.116287 -0.41672,-0.36212 -0.92604,-0.546293 -0.84495,-0.305536 -1.05703,-0.568775 -0.95082,-1.1801721 0.0208,-0.119957 -0.0706,-0.151034 -0.20328,-0.06906 -0.79561,0.4917151 -1.38477,-3.081316 -0.69496,-4.2146347 0.17845,-0.2931741 0.40906,-0.9182522 0.51246,-1.3890624 0.10433,-0.4749985 0.35531,-0.8560143 0.56387,-0.8560143 0.20672,0 0.37585,-0.1110404 0.37585,-0.2467531 0,-0.2087192 0.61963,-0.5206867 1.38906,-0.6993546 0.10914,-0.025347 0.22821,-0.076158 0.26459,-0.1129188 0.0364,-0.036764 0.33403,-0.1111779 0.66145,-0.1653646 0.32743,-0.054189 0.86321,-0.1428618 1.19063,-0.1970511 0.32742,-0.054187 0.59531,-0.1228275 0.59531,-0.1525349 0,-0.1757495 5.72013,-1.34814985 5.93368,-1.21616775 0.10525,0.06505 0.85239,-0.054343 1.6603,-0.2653162 0.80791,-0.2109761 1.75149,-0.3728932 2.09685,-0.3598148 0.34536,0.01307 1.28277,-0.062905 2.08313,-0.1688518 3.11367,-0.4121626 10.74618,-0.2766272 14.55208,0.2584106 0.86207,0.1211924 3.33168,0.8936248 4.45923,1.39473765 0.81751,0.3633232 1.01155,0.3490727 2.46544,-0.18103845 0.86795,-0.3164707 1.89486,-0.6328436 2.28201,-0.7030481 0.38716,-0.070205 0.76906,-0.2330397 0.84868,-0.3618574 0.0796,-0.128815 0.55353,-0.3062261 1.05315,-0.3942477 0.49962,-0.088021 1.03233,-0.2565982 1.1838,-0.3746182 0.22164,-0.17269095 1.29367,-0.53101875 1.99519,-0.66689815 0.0728,-0.014102 0.2623,-0.1084951 0.42121,-0.2097829 0.23971,-0.1527915 1.6132705,-0.4446878 3.8121305,-0.8101091 0.21828,-0.036277 0.6822,-0.2260626 1.03095,-0.4217458 0.60791,-0.3411034 5.25268997,-0.8797818 5.63723997,-0.6537801 0.10225,0.060092 0.68811,0.159221 1.30192003,0.2202842 1.2663,0.125976 2.61322,0.6197546 2.61322,0.9579979 0,0.2246471 1.33283,-0.2600748 1.5875,-0.5773393 0.20193,-0.2515711 2.67621,-0.9980479 3.57187,-1.0776134 0.43657,-0.038783 0.9723495,-0.2077165 1.1906295,-0.3754067 0.46593,-0.3579469 2.96387,-1.3236681 3.21577,-1.24324 0.0952,0.03039 0.30501,-0.1037352 0.46628,-0.2980558 0.21932,-0.2642658 0.19238,-0.437007 -0.10692,-0.6853978 -0.22007,-0.1826445 -0.40013,-0.2552303 -0.40013,-0.1612953 0,0.093932 -0.32219,-0.040317 -0.71597,-0.2983336 -0.39378,-0.2580163 -0.73087,-0.4095882 -0.74909,-0.3368278 -0.0182,0.07276 -0.64347,-0.1535826 -1.38946,-0.5029834 l -1.3563395,-0.6352778 -2.06176,0.5551858 c -2.12706,0.5727699 -3.26181,0.8459152 -4.17842,1.0057738 -4.01354003,0.6999789 -9.5803,0.707001 -11.58477,0.014605 -0.69631,-0.2405142 -1.5417505,-0.4373034 -1.8787505,-0.4373034 -0.7834,0 -2.35885,-0.5361304 -2.58591,-0.8799988 -0.10617,-0.1607846 -0.35161,-0.086969 -0.6272,0.1886241 -0.24903,0.2490285 -0.79809,0.5218403 -1.22015,0.6062504 -0.42205,0.08441 -0.83264,0.2590985 -0.91243,0.3881966 -0.0798,0.1291008 -0.26921,0.1579986 -0.42095,0.064222 -0.15173,-0.093779 -0.35606,-0.040772 -0.45406,0.1177899 -0.497,0.8041613 -7.67467,1.3809238 -8.75849,0.7037916 -0.21828,-0.1363742 -0.51594,-0.2692453 -0.66146,-0.2952671 -0.73228,-0.1309502 -1.71979,-0.6492715 -1.71979,-0.9026762 0,-0.1577102 -0.1199,-0.2126403 -0.26645,-0.1220682 -0.14655,0.09057 -0.33788,-0.021458 -0.42518,-0.2489702 -0.0873,-0.2275047 -0.29813,-0.4136443 -0.4685,-0.4136443 -0.43662,0 -1.22033,-0.9751139 -1.22517,-1.5243783 -0.003,-0.3559151 -0.0551,-0.3794731 -0.22959,-0.1041268 -0.16664,0.262935 -0.27055,0.1765644 -0.39787,-0.3307293 -0.0948,-0.377629 -0.29614,-0.686599 -0.44748,-0.686599 -0.15134,0 -0.19334,-0.132373 -0.0933,-0.294163 0.1,-0.161793 0.0177,-0.395624 -0.18282,-0.519632 -0.51996,-0.321508 -0.47929,-3.900669 0.049,-4.311898 0.21073,-0.164047 0.40022,-0.634986 0.42108,-1.046538 0.0208,-0.411551 0.28917,-1.015696 0.59622,-1.342546 0.30706,-0.326848 0.47783,-0.674735 0.37948,-0.773081 -0.0983,-0.09834 -0.0399,-0.178808 0.12987,-0.178808 0.16978,0 0.30869,-0.178593 0.30869,-0.396875 0,-0.218281 0.12609,-0.396875 0.2802,-0.396875 0.1541,0 0.21289,-0.108894 0.13064,-0.241985 -0.0823,-0.133091 -0.0585,-0.281919 0.0528,-0.330729 0.11128,-0.04881 0.60811,-0.86265 1.10407,-1.808536 0.49597,-0.945885 0.9873,-1.779322 1.09185,-1.852083 0.22027,-0.153283 0.16293,-2.016352 -0.13993,-4.547158 -0.19276,-1.610688 -0.27947,-1.7971 -0.96878,-2.08262 -0.41638,-0.172471 -0.75706,-0.438049 -0.75706,-0.590169 0,-0.152119 -0.0752,-0.201395 -0.16708,-0.1095 -0.25278,0.25278 -1.19429,-0.33178 -1.01129,-0.627883 0.0876,-0.141824 0.0612,-0.230508 -0.0587,-0.197072 -0.55822,0.155591 -2.15833,-0.644054 -2.28906,-1.143947 -0.0853,-0.326292 -0.2647,-0.468876 -0.44764,-0.35582 -0.36221,0.223864 -2.05905,-1.324673 -2.39528,-2.185934 -0.12782,-0.327422 -0.41234,-0.595313 -0.63227,-0.595313 -0.21993,0 -0.57574,-0.420891 -0.79068,-0.935312 -0.21494,-0.514424 -0.56529,-1.109816 -0.77857,-1.323094 -0.48122,-0.481217 -1.20764,-2.911068 -1.50005,-5.017635 -0.1212,-0.873125 -0.43397,-2.123281 -0.69504,-2.778125 -0.41568,-1.042641 -0.47247,-2.045644 -0.45689,-8.069791 0.0121,-4.674791 0.12428,-7.253039 0.3501,-8.045902 0.18277,-0.641707 0.3718,-1.594207 0.42007,-2.116667 0.0483,-0.522462 0.1122,-1.068993 0.14205,-1.214514 0.14797,-0.721275 -0.11712,-0.790271 -2.71979,-0.707887 -1.61463,0.05111 -3.14092,-0.04337 -3.77088,-0.233424 -1.44197,-0.435025 -3.83646,-1.608457 -3.83646,-1.880079 0,-0.121724 -0.24874,-0.221318 -0.55275,-0.221318 -0.92313,0 -6.06184,-5.698871 -6.06184,-6.722631 0,-0.102063 -0.22754,-0.685051 -0.50564,-1.29553 -0.27811,-0.610481 -0.52636,-1.229026 -0.55167,-1.374547 -0.0253,-0.145521 -0.13944,-0.383646 -0.25362,-0.529167 -0.31466,-0.401023 -0.7623,-1.961001 -0.987,-3.439583 -0.18182,-1.196398 -0.2379,-5.531434 -0.0864,-6.680729 0.14463,-1.09737 0.62901,-2.870271 0.86746,-3.175 0.14234,-0.181901 0.15492,-0.332552 0.028,-0.334779 -0.12696,-0.0021 -0.11177,-0.09153 0.0337,-0.198438 0.32858,-0.241411 1.50998,-2.386161 1.40193,-2.54512 -0.0435,-0.06393 0.27817,-0.568351 0.71473,-1.120936 1.73665,-2.198185 3.40614,-3.792563 4.51896,-4.315653 0.64327,-0.30237 1.16958,-0.67524 1.16958,-0.82861 0,-0.15336 0.11991,-0.20473 0.26646,-0.11416 0.14655,0.0906 0.33788,-0.0215 0.42518,-0.24897 0.0873,-0.22751 0.32877,-0.41365 0.5366,-0.41365 0.20784,0 0.65909,-0.18425 1.00279,-0.40945 0.3437,-0.2252 0.96089,-0.47038 1.37154,-0.54485 0.41064,-0.0745 0.89537,-0.25884 1.07719,-0.40973 0.1818,-0.15088 0.84035,-0.42469 1.46342,-0.60844 0.62308,-0.18376 1.16884,-0.51642 1.21281,-0.73924 0.23895,-1.21089 3.7341,-3.90286 5.06731,-3.90286 0.29771,0 0.54129,-0.10616 0.54129,-0.2359 0,-0.22316 0.80963,-0.52342 1.98437,-0.73592 0.29104,-0.0526 1.24354,-0.33108 2.11667,-0.61875 1.46495,-0.48265 2.85647,-0.78224 3.83646,-0.82596 0.21828,-0.01 0.81359,-0.12023 1.32291,-0.24554 0.50933,-0.1253 1.40229,-0.24717 1.98438,-0.27081 0.58208,-0.0237 1.41552,-0.19357 1.85208,-0.37763 0.43656,-0.18406 2.01414,-0.48624 3.50573,-0.67152 1.49159,-0.18528 2.71198,-0.37155 2.71198,-0.41393 0,-0.42553 -0.68265,-1.36691 -1.13706,-1.56801 -0.31533,-0.13956 -0.72408,-0.5514 -0.90831,-0.9152 -0.18423,-0.3638 -0.44941,-0.6333 -0.58927,-0.59889 -0.3633,0.0894 -1.67054,-1.69911 -1.53629,-2.10187 0.0617,-0.18511 -0.17486,-0.56237 -0.5257,-0.83834 -0.40462,-0.31828 -0.5907,-0.68223 -0.50885,-0.99524 0.071,-0.27141 0.0312,-0.43302 -0.0883,-0.35913 -0.28051,0.17337 -1.16445,-2.12564 -0.95043,-2.47193 0.0892,-0.14428 0.0486,-0.30225 -0.0901,-0.35106 -0.13873,-0.0488 -0.32447,-0.5024 -0.41275,-1.00797 -0.0883,-0.50557 -0.25386,-0.98182 -0.36797,-1.05833 -0.54907,-0.36817 -0.9157,-3.07038 -0.95221,-7.01828 -0.0501,-5.41809 0.3628,-8.02697 1.76155,-11.12989 0.2667,-0.59165 0.48492,-1.27626 0.48492,-1.52135 0,-0.2451 0.11906,-0.44564 0.26458,-0.44564 0.14552,0 0.26458,-0.17859 0.26458,-0.39687 0,-0.21828 0.11907,-0.39688 0.26459,-0.39688 0.14552,0 0.25048,-0.0893 0.23325,-0.19843 -0.0746,-0.47272 0.0642,-0.81685 0.5605,-1.38907 0.29104,-0.33557 0.52916,-0.76248 0.52916,-0.94869 0,-0.18621 0.23986,-0.41469 0.53301,-0.50773 0.29316,-0.0931 0.45909,-0.28878 0.36874,-0.43497 -0.17585,-0.28453 0.93568,-1.46033 1.27596,-1.34975 0.11195,0.0364 0.20354,-0.0508 0.20354,-0.19363 0,-0.35791 1.74123,-2.12148 2.09461,-2.12148 0.15765,0 0.28664,-0.12609 0.28664,-0.28019 0,-0.15411 0.11049,-0.21191 0.24554,-0.12845 0.13504,0.0835 0.31891,-0.0795 0.4086,-0.36205 0.15837,-0.49898 1.92319,-1.76073 2.32242,-1.66042 0.10915,0.0274 0.19844,-0.0692 0.19844,-0.21472 0,-0.14552 0.24311,-0.26458 0.54023,-0.26458 0.29713,0 0.78947,-0.2322 1.09409,-0.516 0.30462,-0.2838 0.92472,-0.59314 1.378,-0.68743 0.4532805,-0.0943 1.0953905,-0.34329 1.4269305,-0.55333 0.33153,-0.21005 0.71631,-0.31173 0.85507,-0.22597 0.13877,0.0858 1.05814,-0.0821 2.04305,-0.3731 2.90955,-0.85954 9.17677,-0.79401 10.93327,0.11431 0.39175,0.20258 0.78176,0.29884 0.8667,0.2139 0.0849,-0.0849 0.36792,-0.0607 0.62885,0.0538 0.26094,0.11455 0.53397,0.22048 0.60673,0.2354 0.85493,0.17531 3.4395795,1.34015 3.4395795,1.55014 0,0.15203 0.0737,0.20272 0.16379,0.11263 0.0901,-0.0901 0.33781,0.0102 0.5505,0.22292 0.21269,0.21269 0.48026,0.32889 0.5946,0.25822 0.11434,-0.0707 0.42085,0.10684 0.68113,0.39445 0.26029,0.28761 0.63339,0.52292 0.82911,0.52292 0.19573,0 0.35587,0.11907 0.35587,0.26459 0,0.14552 0.18278,0.26458 0.40618,0.26458 0.32266,0 0.34861,0.1076 0.12617,0.52321 -0.22904,0.42798 -0.20604,0.49483 0.12636,0.36728 0.2235,-0.0858 0.58344,-0.009 0.79987,0.17064 0.21643,0.17962 0.3935,0.24778 0.3935,0.15146 0,-0.0963 0.1672,-0.0216 0.37155,0.16604 0.20435,0.18764 0.35318,0.45481 0.33073,0.59372 -0.0225,0.13891 0.10801,0.25797 0.28991,0.26458 0.1819,0.007 0.30097,0.081 0.26458,0.16519 -0.0364,0.0842 0.49941,0.69504 1.19063,1.35733 0.69122,0.66229 1.25677,1.28648 1.25677,1.38709 0,0.10061 0.17969,0.36261 0.39931,0.58223 0.21962,0.21962 0.33165,0.50877 0.24896,0.64256 -0.0827,0.13379 0.0423,0.24325 0.27777,0.24325 0.23546,0 0.35452,0.11907 0.26459,0.26459 -0.0899,0.14552 -0.0451,0.26458 0.0995,0.26458 0.14468,0 0.41376,0.41672 0.59793,0.92604 0.18417,0.50933 0.43703,0.92604 0.56191,0.92604 0.12487,0 0.15554,0.1157 0.0681,0.25711 -0.0874,0.14141 0.0497,0.57554 0.30475,0.96473 0.25501,0.38919 0.50109,0.95294 0.54684,1.25276 0.0458,0.29983 0.17817,0.60984 0.29425,0.68892 0.11608,0.0791 0.28793,0.35213 0.38189,0.6068 0.11225,0.30423 0.45124,0.46302 0.9885,0.46302 0.44972,0 0.75562,-0.1004 0.67978,-0.22311 -0.16244,-0.26285 2.55996,-2.95189 2.98851,-2.95189 0.16123,0 0.29315,-0.1 0.29315,-0.22212 0,-0.12216 0.29408,-0.3561 0.65352,-0.51987 0.52258,-0.23811 0.69678,-0.22044 0.8695,0.0882 0.32054,0.57277 1.15397,-0.0955 2.33135,-1.86927 0.52777,-0.79513 1.06707,-1.44568 1.19844,-1.44568 0.13138,0 0.23886,-0.16645 0.23886,-0.36988 0,-0.20343 0.69347,-1.0964 1.54105,-1.98438 0.84757,-0.88797 1.48926,-1.61449 1.42596,-1.61449 -0.0633,0 0.58269,-0.70385 1.43552,-1.5641 0.85282,-0.86026 1.72111,-1.80638 1.92952,-2.1025 0.20841,-0.29611 0.49469,-0.46684 0.63619,-0.37939 0.1415,0.0874 0.18266,0.0383 0.0915,-0.10929 -0.20152,-0.32606 1.27631,-1.69964 1.55728,-1.44742 0.10951,0.0983 0.12659,0.0512 0.0379,-0.10479 -0.15859,-0.27902 0.79301,-1.2909 1.22213,-1.29954 0.12087,-0.002 0.35899,-0.18466 0.52916,-0.40494 0.60368,-0.78146 1.67,-1.30806 1.99354,-0.98452 0.22393,0.22393 0.30024,0.21612 0.30024,-0.0307 0,-0.50547 2.12037,-0.23166 2.42528,0.31318 0.13576,0.2426 0.3685,0.44109 0.51718,0.44109 0.59088,0 1.41245,1.22874 1.69748,2.53876 0.79023,3.63193 0.68893,6.41426 -0.30431,8.35854 -0.52941,1.03633 -0.24525,1.57967 0.64782,1.23871 0.39455,-0.15063 2.37121,-0.23797 4.48806,-0.1983 l 3.78298,0.0709 0.6216,-1.34167 c 0.34188,-0.73792 0.75267,-1.42268 0.91287,-1.52168 0.16019,-0.099 0.60187,-0.83659 0.98151,-1.63908 0.37963,-0.80248 0.85612,-1.52271 1.05885,-1.6005 0.20273,-0.0778 0.36986,-0.27754 0.37142,-0.44387 0.004,-0.41678 2.26788,-2.83832 2.46725,-2.63895 0.0885,0.0885 0.27763,-0.14592 0.42023,-0.521 0.25867,-0.68034 2.73066,-2.83102 3.25398,-2.83102 0.15177,0 0.4685,-0.21142 0.70385,-0.46984 0.53685,-0.58946 1.77137,-1.38224 2.15243,-1.38224 0.15836,0 0.72597,-0.29765 1.26135,-0.66146 0.53538,-0.3638 1.21695,-0.66146 1.51459,-0.66146 0.29764,0 0.77602,-0.15243 1.06306,-0.33874 0.28704,-0.18632 0.87908,-0.37405 1.31564,-0.41719 0.43657,-0.0431 1.56766,-0.3041 2.51354,-0.57991 3.13413,-0.9139 8.44538,-0.37831 10.84792,1.09391 0.21828,0.13376 0.65128,0.3539 0.96222,0.48921 0.31094,0.1353 0.87107,0.55173 1.24474,0.92541 0.37367,0.37367 0.76046,0.6794 0.85953,0.6794 0.0991,0 0.45598,0.29765 0.79314,0.66146 0.33716,0.3638 0.75165,0.66145 0.92109,0.66145 0.17356,0 0.25006,0.22186 0.17521,0.50809 -0.0977,0.37341 0.0369,0.5507 0.50767,0.66885 0.35229,0.0884 0.7536,0.45814 0.89179,0.82161 0.13819,0.36347 0.43095,0.7298 0.65058,0.81408 0.21963,0.0843 0.34459,0.2418 0.2777,0.35003 -0.0669,0.10823 0.0933,0.42752 0.35606,0.70952 0.26272,0.282 0.44765,0.71732 0.41095,0.96737 -0.0367,0.25005 0.0401,0.38865 0.17055,0.30799 0.30874,-0.1908 1.299001,1.4362 1.134711,1.86433 -0.0693,0.1805 0.0575,0.39857 0.28169,0.4846 0.23561,0.0904 0.34173,0.32812 0.25148,0.56331 -0.0859,0.22379 -0.0382,0.40689 0.10589,0.40689 0.28823,0 0.29854,0.028 1.10153,2.99017 0.30775,1.13527 0.47838,2.19546 0.37917,2.35598 -0.10013,0.16202 -0.0605,0.2178 0.089,0.12537 0.16269,-0.10055 0.28128,0.22381 0.29942,0.81902 0.0165,0.54203 0.0867,1.46175 0.156,2.04384 0.18636,1.56587 0.20412,3.80916 0.0409,5.15937 -0.0792,0.65484 -0.20384,1.7117 -0.27703,2.34858 -0.0732,0.63687 -0.25316,1.30267 -0.39996,1.47955 -0.14679,0.17688 -0.20684,0.38166 -0.13343,0.45507 0.0734,0.0734 -0.0291,0.5387 -0.22782,1.03399 -0.1987,0.49529 -0.45637,1.13864 -0.5726,1.42968 -0.11622,0.29105 -0.24495,0.69585 -0.28606,0.89956 -0.0411,0.20371 -0.18446,0.44184 -0.31856,0.52917 -0.13411,0.0873 -0.38939,0.60526 -0.56728,1.15096 -0.1779,0.54571 -0.433271,0.99219 -0.567511,0.99219 -0.13423,0 -0.24406,0.13486 -0.24406,0.29969 0,0.16484 -0.23072,0.4998 -0.51271,0.74436 -0.28198,0.24457 -0.54987,0.6058 -0.59531,0.80274 -0.0454,0.19694 -0.2612,0.56782 -0.47948,0.82418 -0.42362,0.49751 -0.68054,0.80303 -2.08487,2.47932 -0.49184,0.58708 -0.98166,1.06742 -1.0885,1.06742 -0.10684,0 -0.58581,0.44227 -1.06439,0.98283 -0.47857,0.54056 -0.95854,0.92819 -1.06659,0.86142 -0.10805,-0.0668 -0.26472,0.0565 -0.34817,0.27393 -0.0834,0.21745 -0.33404,0.39536 -0.55689,0.39536 -0.22285,0 -0.40518,0.11664 -0.40518,0.25921 0,0.14256 -0.46156,0.49467 -1.0257,0.78247 -1.22104,0.62293 -1.45237,1.08359 -0.92338,1.83882 0.21573,0.30801 0.32472,0.66927 0.24219,0.8028 -0.0825,0.13353 0.0381,0.43098 0.26815,0.66099 0.23002,0.23002 0.34342,0.41821 0.25201,0.41821 -0.0914,0 0.0102,0.25179 0.22573,0.55954 0.21555,0.30775 0.33453,0.7091 0.26438,0.8919 -0.0702,0.1828 0.0456,0.39878 0.25713,0.47997 0.22644,0.0869 0.45981,0.69402 0.56737,1.47604 0.10048,0.73063 0.34964,1.46697 0.55367,1.6363 0.20403,0.16933 0.30248,0.41868 0.21878,0.55411 -0.0837,0.13543 0.0462,0.54899 0.28863,0.91902 0.24246,0.37003 0.37597,0.73764 0.2967,0.81691 -0.0793,0.0793 -3e-5,0.39635 0.17607,0.70464 0.32482,0.56861 0.36988,0.7325 0.42442,1.54351 0.0168,0.2496 0.40004,0.87467 0.85168,1.38906 0.45164,0.51438 0.71953,0.93707 0.59531,0.93929 -0.12421,0.002 -0.1005,0.0915 0.0527,0.19844 0.49641,0.34643 1.43996,2.09185 1.23929,2.29251 -0.10721,0.10722 -0.0697,0.15525 0.0834,0.10674 0.15307,-0.0485 0.67142,0.35829 1.15189,0.90399 0.48047,0.545707 0.79707,0.992191 0.70357,0.992191 -0.0935,0 0.0728,0.260575 0.36947,0.579056 0.29671,0.318482 0.53947,0.675669 0.53947,0.79375 0,0.118081 0.1177,0.214694 0.26156,0.214694 0.51482,0 3.707191,2.921457 3.707191,3.39259 0,0.151755 0.20836,0.35169 0.46302,0.444302 0.82376,0.299569 1.96254,1.938909 2.10986,3.037252 0.11542,0.860539 0.0151,1.221555 -0.54274,1.952914 -0.37639,0.493469 -0.61011,0.971441 -0.51939,1.062161 0.0907,0.09072 0.026,0.164947 -0.14374,0.164947 -0.16977,0 -0.30868,0.124283 -0.30868,0.276183 0,0.1519 0.20836,0.241196 0.46302,0.198437 0.30986,-0.05203 0.49116,0.120481 0.54809,0.521491 0.0468,0.329581 0.19005,0.534347 0.31838,0.455039 0.12832,-0.07931 0.35923,0.3234 0.51312,0.89491 0.15389,0.571514 0.44178,1.10127 0.63976,1.17724 0.19798,0.07597 0.44219,0.46577 0.5427,0.866219 0.1005,0.400452 0.41348,1.021437 0.6955,1.379969 0.28202,0.358532 0.51277,0.866915 0.51277,1.129744 0,0.262829 0.11218,0.547204 0.24929,0.631944 0.244,0.1508 0.70975,2.434535 0.58768,2.881569 -0.034,0.124458 0.0726,0.388231 0.23688,0.586161 0.34525,0.416007 0.119,2.147379 -0.36204,2.770513 -0.17322,0.224377 -0.77109,0.621506 -1.32861,0.882504 -0.55753,0.261001 -0.94867,0.539557 -0.86921,0.619017 0.0795,0.07946 0.0254,0.36694 -0.12011,0.638847 -0.18647,0.348427 -0.17552,0.494379 0.0371,0.494379 0.19239,0 0.26512,0.383389 0.20075,1.058333 -0.0555,0.582083 -0.0344,1.058333 0.047,1.058333 0.2225,0 0.087,3.611391 -0.14993,3.994679 -0.11312,0.183029 -0.22184,0.728888 -0.2416,1.213017 -0.0198,0.484129 -0.17824,1.022546 -0.35217,1.196478 -0.17393,0.173934 -0.31624,0.546668 -0.31624,0.828299 0,0.28163 -0.30436,0.794125 -0.67636,1.138878 -0.37199,0.344749 -0.6109,0.732707 -0.53092,0.862126 0.21195,0.342945 -0.56846,2.074584 -1.05858,2.348873 -0.23037,0.12892 -0.56105,0.522427 -0.73484,0.874461 -0.17379,0.352036 -0.58177,0.757594 -0.9066,0.901242 -0.32484,0.143648 -0.59062,0.413287 -0.59062,0.599202 0,0.185912 -0.38695,0.579133 -0.8599,0.873821 -0.656221,0.408892 -1.121041,0.498911 -1.962441,0.380063 -0.95488,-0.134877 -1.12575,-0.08261 -1.27582,0.390197 -0.0956,0.301294 -0.30162,0.466608 -0.45968,0.368916 -0.15907,-0.09831 -0.21103,-0.05503 -0.11685,0.09735 0.0933,0.150903 -0.0942,0.615783 -0.4165,1.033068 -0.82996,1.074444 -1.25732,1.492512 -1.26819,1.240624 -0.005,-0.119537 -0.1741,0.08032 -0.37544,0.444121 -0.20133,0.363802 -0.52453,0.664131 -0.71822,0.667396 -0.19369,0.0033 -0.31718,0.211624 -0.27442,0.463021 0.0428,0.251396 -0.053,0.457083 -0.21279,0.457083 -0.15979,0 -0.67103,0.356637 -1.13608,0.792525 -0.46505,0.43589 -0.99437,0.793078 -1.17627,0.79375 -0.1819,7.94e-4 -0.33073,0.120288 -0.33073,0.265808 0,0.145521 -0.1786,0.264584 -0.39688,0.264584 -0.21828,0 -0.39687,0.107415 -0.39687,0.238699 0,0.131286 -0.35719,0.363217 -0.79375,0.515405 -0.43657,0.152186 -0.79375,0.208786 -0.79375,0.125778 0,-0.08301 -0.1786,-0.0027 -0.39688,0.178451 -0.31852,0.264348 -0.39687,0.26076 -0.39687,-0.01818 0,-0.214215 -0.13964,-0.156586 -0.36398,0.150212 -0.49913,0.682601 -0.13992,1.813346 0.87816,2.764374 0.4448,0.415513 0.80873,0.878549 0.80873,1.028973 0,0.150423 0.13763,0.608671 0.30584,1.018326 0.16822,0.409657 0.32867,0.863891 0.35658,1.009411 0.0279,0.145521 0.08,0.324115 0.11571,0.396875 0.0357,0.07276 0.10894,0.549011 0.16267,1.058334 0.0537,0.509323 0.17547,1.252952 0.27053,1.652513 0.24153,1.015159 -0.12092,3.639034 -0.50276,3.63968 -0.17143,2.64e-4 -0.33661,0.356822 -0.36707,0.7923 -0.0305,0.435475 -0.29815,1.060315 -0.59486,1.388536 -0.29671,0.328218 -0.80757,0.930648 -1.13524,1.338728 -0.32767,0.408082 -0.79842,0.771413 -1.0461,0.807402 -0.24768,0.03599 -0.6644,0.25871 -0.92604,0.494932 -0.26164,0.236226 -1.04526,0.572646 -1.74137,0.747599 -1.1756,0.295471 -1.79702,0.272116 -4.1139,-0.154604 l -0.88164,-0.16238 0.16144,1.408374 c 0.36046,3.144364 0.44278,7.826026 0.16435,9.345877 -0.15996,0.873125 -0.36042,1.991275 -0.44548,2.484779 -0.0851,0.493503 -0.38035,1.267409 -0.65621,1.719791 -0.27585,0.452382 -0.502,1.07056 -0.50254,1.373727 -5.3e-4,0.30317 -0.0903,0.640514 -0.19943,0.749655 -0.10914,0.10914 -0.20384,0.3373432 -0.21046,0.5071157 -0.007,0.1697752 -0.1756,0.2721981 -0.37552,0.2276078 -0.29825,-0.066527 -0.30262,-0.00773 -0.0243,0.3275965 0.28112,0.3387355 0.26354,0.4376923 -0.10271,0.5782389 -0.24304,0.09326 -0.3805,0.3295359 -0.30547,0.5250577 0.075,0.1955191 -0.0883,0.5129027 -0.36299,0.7052918 -0.27468,0.1923918 -0.58163,0.7016644 -0.68211,1.1317208 -0.10049,0.4300537 -0.36977,0.9307459 -0.59841,1.1126469 -0.22864,0.1819011 -0.30366,0.3325522 -0.16671,0.33478 0.13851,0.00238 0.12982,0.09031 -0.0196,0.1984375 -0.14773,0.1069128 -0.86211,0.9380828 -1.5875,1.8470455 -0.72539,0.9089601 -1.41792,1.6531007 -1.53895,1.6536458 -0.12103,5.291e-4 -0.72016,0.41078945 -1.3314,0.91165625 -1.06262,0.8707305 -2.4585,1.60412625 -2.88031,1.51330535 -0.10914,-0.023495 -0.19844,0.083365 -0.19844,0.2374742 0,0.1541092 -0.10153,0.217453 -0.22561,0.1407662 -0.12408,-0.076687 -0.4515,0.031562 -0.7276,0.2405539 -0.2761,0.2089917 -0.68059,0.3845057 -0.89888,0.3900302 -0.21828,0.00553 -0.75406,0.2075894 -1.19062,0.4490296 -1.17684,0.6508591 -6.08384,0.6647074 -7.03258,0.019844 -0.37542,-0.2551721 -0.74168,-0.404839 -0.81393,-0.3325945 -0.18159,0.1815915 -1.87112,-1.40918655 -2.54806,-2.39912505 -0.69377,-1.01456335 -1.40338,-3.02203105 -1.06824,-3.02203105 0.13709,0 0.17888,-0.1138634 0.0929,-0.2530289 -0.086,-0.1391656 -0.33116,-0.1859571 -0.54478,-0.1039839 -0.24219,0.092935 -0.3884,-0.011023 -0.3884,-0.2761377 0,-0.233852 -0.1786,-0.4251827 -0.39688,-0.4251827 -0.21828,0 -0.39916,-0.089297 -0.40195,-0.1984375 -0.003,-0.1091407 -0.41951,-0.6733857 -0.92604,-1.253879 -0.50653,-0.5804931 -0.92097,-1.1396265 -0.92097,-1.2425203 0,-0.1028938 -0.68461,0.050268 -1.52135,0.34036 -1.77242,0.6144815 -7.18655,2.0136405 -8.53281,2.2051142 -0.50933,0.072438 -1.75948,0.2677901 -2.77813,0.4341151 -1.01864,0.1663223 -3.76505,0.3191245 -6.10313,0.3395556 -3.99045,0.034872 -4.21725,0.063736 -3.69972,0.4708392 0.30323,0.2385298 0.99467,0.6189318 1.53653,0.8453358 0.54187,0.2264066 1.27792,0.7043552 1.63568,1.0621089 0.35775,0.35775375 0.68693,0.54104115 0.73151,0.40730485 0.0446,-0.1337363 0.33157,-0.067691 0.63775,0.1467697 0.30619,0.214458 1.55955,0.9101798 2.78525,1.54604235 1.2257,0.6358651 3.342,1.9048014 4.70288,2.8198602 l 2.47434,1.6637396 0.6452,-0.8244046 c 0.78297,-1.000453 1.37168,-1.0371984 2.42448,-0.1513258 0.96228,0.8097097 1.22151,1.5024078 0.83354,2.2273448 -0.30517,0.570209 -1.30234,0.723839 -1.75568,0.270494 -0.18184,-0.181832 -0.53541,-0.135596 -1.09399,0.143057 -0.7191,0.358736 -0.9382,0.364173 -1.70248,0.04224 -0.48243,-0.203216 -1.39101,-0.870373 -2.01904,-1.4825688 -0.62804,-0.6121982 -1.99725,-1.6625781 -3.04271,-2.3341805 -1.04545,-0.6715998 -1.96036,-1.2892113 -2.03312,-1.3724651 -0.0728,-0.083257 -0.59489,-0.3871674 -1.1603,-0.6753542 -0.56541,-0.2881895 -1.15218,-0.72279395 -1.30393,-0.96578735 -0.15176,-0.2429959 -0.41519,-0.3883633 -0.58542,-0.3230403 -0.17023,0.065323 -1.13127,-0.290748 -2.13566,-0.7912708 -1.00438,-0.50052025 -3.09513,-1.51470255 -4.64611,-2.25373665 l -2.81996,-1.3436996 -1.94254,0.3815662 c -4.61426,0.9063618 -7.07591,2.1793304 -12.6581595,6.5457913 -1.09141,0.8537019 -2.39783,1.8730673 -2.90317,2.2652539 -2.46588003,1.9137579 -3.57514003,2.8814239 -3.53459003,3.0834119 0.0858,0.427545 2.54930003,1.616162 2.66105003,1.283954 0.28059,-0.834062 2.02786,-2.739337 3.20473,-3.4945294 1.90801,-1.2243699 4.01758,-1.5641954 5.9455895,-0.9577625 1.37014,0.4309639 1.73283,0.734359 4.4055,3.6852519 2.18065,2.4076471 3.27359,3.3984931 4.34976,3.9434081 0.79053,0.40028 2.25095,1.31191 3.24538,2.025843 0.99442,0.713933 2.20015,1.573125 2.67938,1.909318 1.77838,1.24755 2.17137,1.582269 2.17137,1.849392 0,0.155183 -0.20048,0.193082 -0.46302,0.08752 -0.25466,-0.102391 -0.58208,-0.21015 -0.7276,-0.239469 -0.14553,-0.02932 -0.53494,-0.201914 -0.86537,-0.383548 -0.33043,-0.181631 -0.70659,-0.264845 -0.83591,-0.18492 -0.12933,0.07993 -1.16866,-0.542462 -2.30964,-1.383085 -1.14097,-0.840626 -2.96747,-2.081882 -4.05888,-2.758345 -1.11144,-0.688885 -2.19464,-1.588159 -2.46235,-2.044261 -0.54811,-0.933801 -1.12991,-1.054539 -1.3741,-0.285157 -0.28363,0.893622 -0.62016,0.591055 -0.80929,-0.727604 -0.0991,-0.6912241 -0.47022,-1.6444251 -0.82462,-2.1182221 -0.3544,-0.4738 -0.57121,-0.979816 -0.4818,-1.124479 0.0894,-0.144667 -0.068,-0.263028 -0.34991,-0.263028 -0.28186,0 -0.9399,-0.178594 -1.46232,-0.396875 C 7.7510295,4.9857104 3.9820995,7.2479719 3.9820995,10.590625 v 0.89131 l -2.69782,-0.908534 c -1.48380003,-0.499695 -3.14827,-0.9085341 -3.69881,-0.9085341 -1.56068,0 -4.1867,1.1777021 -4.1867,1.8776261 0,0.114461 0.71437,0.757811 1.5875,1.429665 0.87312,0.671854 1.58749,1.333656 1.58749,1.470673 0,0.46187 -1.32419,0.253672 -1.78118,-0.280048 -0.2492,-0.291042 -0.58375,-0.529167 -0.74345,-0.529167 -0.40679,0 -1.44411,-1.24347 -1.44411,-1.731113 0,-0.315095 -0.1108,-0.344876 -0.50272,-0.135125 -0.37322,0.199742 -0.53846,0.175916 -0.64146,-0.0925 -0.17505,-0.45616 1.67283,-1.8048871 3.70294,-2.7026951 0.83273,-0.368273 2.223,-1.325946 3.08949,-2.12816 0.86647997,-0.802214 2.81592,-2.4161958 4.33208,-3.5866251 1.51615,-1.1704293 2.65903,-2.2222406 2.53972,-2.33736075 -0.11931,-0.1151175 -0.99084,-0.4778374 -1.93672,-0.8060451 -2.68079003,-0.9301903 -5.12668,-0.8310853 -9.65729,0.3913028 -2.03729,0.54967445 -4.1506505,1.16760355 -4.6963605,1.37317945 -0.5457,0.2055733 -0.99218,0.3006249 -0.99218,0.2112248 0,-0.0894 -0.14883,-0.042804 -0.33073,0.1035474 -0.1819,0.1463489 -1.55112,0.6556348 -3.04271,1.1317419 -1.49159,0.4761097 -2.71198,0.974762 -2.71198,1.1081199 0,0.1333579 0.17353,0.4160044 0.38563,0.6281023 0.42594,0.4259395 0.27335,1.1640684 -0.24064,1.1640684 -0.18016,0 -0.55437,-0.251142 -0.83159,-0.5580959 -0.27721,-0.3069537 -1.2184,-0.9247478 -2.09153,-1.3728726 -1.69831,-0.8716485 -1.70612,-0.8746013 -2.91041,-1.1005898 -0.43656,-0.081923 -1.09141,-0.224454 -1.45521,-0.316738 -0.3638,-0.092287 -0.89958,-0.1959002 -1.19063,-0.2302563 -6.17547,-0.7289826 -15.36599,-0.011298 -23.28333,1.8181928 l -2.64583,0.6113832 1.19062,0.7566636 c 1.93697,1.230976 7.02604,3.852375 10.71563,5.5196581 1.89177,0.854871 5.00889,2.372656 6.92693,3.372858 1.91805,1.000201 3.59647,1.818547 3.72983,1.818547 0.24589,0 0.77038,-0.418537 2.44011,-1.947188 0.50933,-0.466288 1.79269,-1.53643 2.85192,-2.378091 1.05923,-0.841663 2.2039,-1.970711 2.5437,-2.5089961 0.78861,-1.24923 0.95114,-1.376172 3.33563,-2.605238 l 1.98438,-1.022826 1.19062,0.585274 c 1.87933,0.923817 2.69342,1.005618 3.72842,0.374642 1.07202,-0.653544 2.2804505,-0.70821 3.0918805,-0.139866 0.84573,0.592373 0.72566,0.911039 -0.34326,0.911039 -0.53758,0 -1.3742805,0.279641 -1.9791205,0.661459 -1.26672,0.799642 -1.81904,0.819009 -3.77287,0.132291 -1.82313,-0.640778 -2.25772,-0.652684 -3.63971,-0.09972 -0.72929,0.291806 -1.44989,0.91888 -2.24836,1.9565441 -0.69178,0.899019 -1.91206,2.01409 -2.96696,2.711148 -1.94061,1.282319 -4.47879,3.843427 -4.12642,4.163692 0.11982,0.10891 1.52755,0.772975 3.12828,1.4757 1.60073,0.702726 2.96995,1.353132 3.04271,1.445347 0.0728,0.09222 0.37041,0.236247 0.66145,0.320067 0.29105,0.08382 2.80976,1.096084 5.59716,2.249479 7.3874505,3.056856 11.2138005,5.306875 16.36926047,9.625661 2.10169003,1.760611 2.92349003,2.210667 3.30129003,1.807937 0.0728,-0.07756 0.78714,-0.609415 1.5875,-1.181894 1.41731,-1.013761 1.83974,-1.414393 1.84803,-1.752682 0.002,-0.09085 -0.41266,-0.62013 -0.92199,-1.176181 -0.50932,-0.556053 -0.92604,-1.155157 -0.92604,-1.331346 0,-0.184129 0.5344,-0.385919 1.25677,-0.474565 4.8921795,-0.600334 11.6351795,-1.517057 11.9278395,-1.621612 0.27031,-0.09657 0.21523,-0.347695 -0.23665,-1.078841 -0.47405,-0.767035 -0.51945,-0.995942 -0.23266,-1.173187 0.19597,-0.121115 0.48106,-0.145682 0.63352,-0.05459 0.15247,0.09109 0.12261,-0.02521 -0.0664,-0.258484 -0.24155,-0.298172 -0.25775,-0.477152 -0.0546,-0.602734 0.36789,-0.22737 0.90927,0.222702 1.58707,1.319403 0.51307,0.830167 0.63188,0.876157 3.05,1.180525 1.38387,0.174189 2.84746,0.411732 3.25242,0.527873 0.48404,0.138822 1.23045,0.06063 2.17872,-0.228235 1.79642,-0.547232 2.22544,-0.46147 2.96797,0.593302 0.53979,0.766776 0.71748,0.840576 2.04633,0.849921 0.80036,0.0056 2.78152,0.11104 4.40257,0.234246 2.77723,0.211082 2.95665,0.194765 3.10819,-0.282688 0.18231,-0.574406 2.49724,-3.0045 2.86211,-3.0045 0.13129,0 1.03602,0.634942 2.01052,1.41098 0.9745,0.776042 2.46442,1.869771 3.31094,2.43051 l 1.53912,1.019527 2.69421,-1.419016 c 1.48182,-0.780457 3.12214,-1.685374 3.64518,-2.010928 1.57474,-0.980178 7.25858,-3.768466 9.44062,-4.631227 1.12411,-0.444463 2.13742,-0.898771 2.25181,-1.009571 0.1144,-0.110802 -0.72457,-0.752133 -1.86436,-1.425183 -3.95453,-2.335165 -5.01466,-3.366627 -3.89987,-3.79441 0.43156,-0.165606 0.65308,-0.08408 1.85208,0.681643 1.21794,0.777817 1.63739,0.661659 3.28471,-0.909616 1.63343,-1.558028 1.89354,-1.673196 2.40019,-1.062718 0.27052,0.325948 0.2025,0.439343 -0.40117,0.668862 -0.3998,0.152003 -0.65162,0.351655 -0.55961,0.443671 0.18917,0.189164 -0.91224,1.039194 -1.21839,0.940316 -0.10914,-0.03525 -0.19844,0.07536 -0.19844,0.245806 0,0.170442 -0.18621,0.515654 -0.4138,0.767141 -0.38271,0.422891 -0.33302,0.492884 0.66146,0.931648 0.59139,0.260922 1.07526,0.590394 1.07526,0.732163 0,0.141769 0.0775,0.180239 0.17227,0.08549 0.0948,-0.09475 0.31507,0.02299 0.48959,0.261673 0.33307,0.455498 2.91979,0.705268 3.43918,0.332078 0.23901,-0.171733 0.64841,-0.256945 3.11874,-0.649136 0.40563,-0.0644 0.94141,-0.223637 1.19063,-0.353867 0.24922,-0.130228 1.43653,-0.447159 2.63846,-0.704289 1.20193,-0.25713 2.39255,-0.63036 2.64583,-0.8294 0.35476,-0.278792 0.36937,-0.345821 0.0636,-0.291912 -0.21828,0.03849 -0.36711,-0.07885 -0.33073,-0.260753 0.0364,-0.181901 -0.0997,-0.330729 -0.30242,-0.330729 -0.20271,0 -0.43856,-0.182393 -0.5241,-0.405315 -0.13151,-0.342709 0.0408,-0.37927 1.11571,-0.23668 l 1.27125,0.168637 0.4574,-1.197689 c 0.25157,-0.658728 0.60644,-1.321377 0.7886,-1.472557 0.24091,-0.199938 1.38479,0.263197 4.19617,1.698953 2.12574,1.085598 4.18026,1.973818 4.56561,1.973818 1.43803,0 9.296721,-3.581974 12.711671,-5.793946 0.58448,-0.37859 1.25602,-0.8074081 1.49232,-0.9529291 1.44919,-0.89249 3.39231,-2.426321 3.39497,-2.67988 0.002,-0.164245 -0.35405,-0.446582 -0.79062,-0.627411 -0.43656,-0.18083 -0.79375,-0.42862 -0.79375,-0.550646 0,-0.1220231 -0.47297,-0.3635691 -1.05105,-0.536768 -0.57808,-0.1731962 -1.26734,-0.5053965 -1.53169,-0.7382245 -0.26434,-0.2328254 -0.65457,-0.4580228 -0.86717,-0.5004356 -0.2126,-0.042415 -1.27951,-0.5131434 -2.37092,-1.0460645 -1.09141,-0.5329237 -2.07367,-0.9447053 -2.18281,-0.915072 -0.10914,0.029633 -0.19844,-0.045342 -0.19844,-0.1666081 0,-0.1212691 -0.16427,-0.2204879 -0.36505,-0.2204879 -0.20078,0 -0.91687,-0.2593869 -1.59133,-0.5764186 -1.895311,-0.89089955 -5.058211,-1.89302475 -5.974761,-1.89302475 -0.45452,0 -1.17269,0.1790779 -1.59594,0.3979492 -0.73666,0.3809444 -0.84419,0.3555073 -2.51641,-0.5953125 -0.96078,-0.54629315 -2.06708,-1.16047045 -2.45846,-1.36483455 -0.39137,-0.2043668 -0.77112,-0.4562105 -0.84388,-0.559652 -0.0728,-0.1034441 -0.38927,-0.2682187 -0.70336,-0.3661648 -0.31409,-0.097949 -0.96483,-0.5218799 -1.44609,-0.94207 -0.48127,-0.4201927 -0.96507,-0.7083398 -1.07511,-0.6403287 -0.11004,0.068011 -0.53086,-0.088717 -0.93516,-0.3482842 -1.29293,-0.8300985 -1.35319,-0.9416204 -0.81871,-1.515319 0.27142,-0.2913327 0.45152,-0.6529387 0.40023,-0.8035687 -0.11214,-0.329303 0.76449,-1.2212584 0.98427,-1.0014769 0.0849,0.084886 0.15434,0.017357 0.15434,-0.1500585 0,-0.2033455 0.30743,-0.1577975 0.92605,0.1371971 0.50932,0.2428795 0.92604,0.5456369 0.92604,0.672793 0,0.1271561 0.11196,0.1619964 0.24881,0.07742 0.13684,-0.084574 0.49439,0.1098286 0.79455,0.432009 0.30015,0.3221805 0.75358,0.6162887 1.00761,0.6535711 0.25403,0.037285 0.64063,0.2823395 0.8591,0.5445654 0.21847,0.2622259 0.63096,0.5175885 0.91664,0.5674704 0.28569,0.049885 0.73217,0.3359917 0.99219,0.6357964 0.26002,0.2998046 0.47276,0.4592425 0.47276,0.3543088 0,-0.1049364 0.35072,0.058941 0.77938,0.3641698 0.75879,0.5403056 1.69317,0.5792232 2.4574,0.1023488 0.63282,-0.3948721 1.29064,-0.3562165 3.32445,0.1953524 2.924371,0.7930859 2.963771,0.8074713 2.963771,1.0819262 0,0.1371362 0.11084,0.18084 0.2463,0.097118 0.13547,-0.083725 0.32611,-0.023098 0.42364,0.1347126 0.0975,0.157816 0.33232,0.2274676 0.52173,0.1547813 0.18942,-0.072686 0.56433,0.034473 0.83314,0.2381302 0.2688,0.2036578 0.69709,0.3740732 0.95176,0.3787034 0.25466,0.00463 0.46302,0.1345036 0.46302,0.2886128 0,0.1541092 0.11906,0.2066131 0.26458,0.116676 0.14552,-0.089937 0.26458,-0.065519 0.26458,0.054261 0,0.2152888 1.90533,1.13636425 2.35067,1.13636425 0.12671,0 0.3626,0.1593242 0.52421,0.3540522 0.16161,0.1947307 0.75738,0.4929346 1.32393,0.6626754 0.56654,0.16974335 1.17785,0.48666915 1.35845,0.70428105 0.18061,0.2176118 0.54199,0.3956579 0.80309,0.3956579 0.2611,0 0.51441,0.091186 0.56292,0.2026391 0.0485,0.1114504 0.6835,0.5113601 1.41111,0.8886877 0.7276,0.3773302 1.29558,0.8146176 1.26218,0.9717537 -0.0334,0.157136 0.16344,0.2425303 0.43742,0.1897644 0.31968,-0.061563 0.54586,0.08645 0.63128,0.4131098 0.0732,0.2799742 0.31363,0.5090451 0.53425,0.5090451 0.22149,0 0.53392,0.4023995 0.69767,0.8985573 0.25921,0.785418 0.21529,1.043604 -0.34888,2.050521 -0.51733,0.923337 -0.82095,1.178218 -1.5298,1.284255 -1.06695,0.159605 -1.44532,1.0573151 -0.44675,1.0599631 0.33809,7.94e-4 0.95574,0.179491 1.37256,0.396875 1.02051,0.532234 1.55373,0.497975 2.3813,-0.15299 0.6595,-0.518763 0.72147,-0.523737 1.15264,-0.09256 0.79998,0.799978 1.17166,1.729626 0.84761,2.120072 -0.15959,0.192296 -0.22597,0.453495 -0.14752,0.58044 0.0785,0.126944 -0.19597,0.601546 -0.60983,1.054671 -0.41387,0.453123 -0.69055,0.885799 -0.61485,0.961499 0.0757,0.0757 -0.20517,0.290084 -0.62415,0.476403 -0.81119,0.36073 -0.86005,0.393679 -2.08472,1.405715 -0.43656,0.360765 -0.94257,0.656082 -1.12448,0.65626 -0.1819,1.77e-4 -0.33072,0.117118 -0.33072,0.259866 0,0.142748 -0.29766,0.334248 -0.66146,0.425558 -0.3638,0.09131 -0.66146,0.279196 -0.66146,0.417531 0,0.138332 -0.1089,0.184213 -0.24199,0.10196 -0.13309,-0.08226 -0.28191,-0.05463 -0.33073,0.0614 -0.19567,0.465135 -3.3632,1.860476 -4.38703,1.932546 -0.10979,0.0077 -0.29484,0.184187 -0.41121,0.392131 -0.11637,0.207944 -0.33236,0.378081 -0.47998,0.378081 -0.14761,0 -0.94536,0.318916 -1.77279,0.7087 -0.82741,0.389787 -1.59369,0.687443 -1.70283,0.661458 -0.10914,-0.02598 -0.19844,0.05857 -0.19844,0.187897 0,0.129325 -0.40805,0.311689 -0.90679,0.405251 -0.49873,0.09356 -0.94521,0.258967 -0.99218,0.367562 -0.13824,0.319601 -3.275061,1.637882 -3.897301,1.637882 -0.3139,0 -1.01339,-0.196982 -1.55442,-0.437737 -0.54102,-0.240758 -1.07298,-0.419351 -1.18212,-0.396875 -0.10914,0.02246 -0.19844,-0.06874 -0.19844,-0.202697 0,-0.133959 -0.38695,-0.327512 -0.8599,-0.430118 -0.47294,-0.102602 -0.91942,-0.271674 -0.99218,-0.375708 -0.30387,-0.434483 -2.72168,-1.02725 -3.76979,-0.924232 -1.52871,0.150254 -2.00311,0.249986 -2.21978,0.466654 -0.10122,0.101227 -0.39457,0.184047 -0.65189,0.184047 -0.25732,0 -0.80302,0.138157 -1.21267,0.307014 -0.40966,0.168857 -0.89366,0.282702 -1.07556,0.252984 -0.1819,-0.02971 -0.33073,0.07728 -0.33073,0.237768 0,0.160488 -0.1243,0.214976 -0.27622,0.121084 -0.15192,-0.09389 -0.56445,0.01815 -0.91673,0.248967 -0.35228,0.230826 -0.85306,0.420127 -1.11285,0.420672 -0.25978,5.29e-4 -0.86476,0.240252 -1.3444,0.532686 -0.47964,0.292433 -1.13449,0.580797 -1.45521,0.640807 -0.32072,0.06001 -0.6129,0.132842 -0.64928,0.161846 -0.0364,0.029 -0.1852,0.0825 -0.33073,0.11888 -0.14552,0.03638 -0.32411,0.09591 -0.39687,0.132291 -0.0728,0.03638 -0.22159,0.08602 -0.33073,0.11031 -0.10914,0.02429 -0.5703,0.242782 -1.02479,0.48554 -0.45449,0.242758 -0.90025,0.367482 -0.99056,0.277164 -0.0903,-0.09032 -0.37331,0.01503 -0.62886,0.234093 -0.58319,0.499925 -2.60442,1.29513 -2.79854,1.101016 -0.0797,-0.07968 -0.59917,0.103216 -1.15444,0.406429 -1.16416,0.635704 -2.37131,1.127527 -3.11476,1.269029 -0.28473,0.05419 -0.61032,0.244353 -0.72355,0.422579 -0.11323,0.178226 -0.2077,0.230563 -0.20993,0.116303 -0.002,-0.11426 -0.27194,-0.06055 -0.59936,0.119354 -0.32742,0.179906 -0.82721,0.365532 -1.11063,0.412503 -0.28343,0.04698 -0.70014,0.251878 -0.92604,0.455346 -0.2259,0.203467 -0.76791,0.457081 -1.20448,0.563583 -0.43656,0.106506 -0.88122,0.324141 -0.98813,0.483635 -0.13234,0.197421 -0.19568,0.180999 -0.19844,-0.05145 -0.002,-0.203094 -0.28768,-0.07844 -0.70405,0.307637 -0.385,0.356991 -0.86125,0.587195 -1.05833,0.511566 -0.19709,-0.07563 -0.35834,-0.01736 -0.35834,0.129503 0,0.233077 -0.80789,0.632034 -2.11666,1.045263 -0.21829,0.06892 -2.30188,0.23922 -4.63021,0.378447 -5.77302,0.345202 -13.10245,0.130146 -20.32886,-0.596482 -6.03416,-0.606748 -7.592,-0.584621 -10.4951,0.149063 -0.3638,0.09194 -0.84005,0.210627 -1.05833,0.263748 -0.21828,0.05312 -0.45641,0.11979 -0.52917,0.148156 -0.0728,0.02837 -0.22797,0.03535 -0.3449,0.0155 -0.11694,-0.01982 -0.39333,0.144664 -0.61421,0.365543 -0.22088,0.220893 -0.68225,0.401614 -1.02526,0.401614 -0.34302,0 -0.80226,0.178594 -1.02054,0.396875 -0.21828,0.218281 -0.64351,0.396875 -0.94494,0.396875 -0.30144,0 -0.54807,0.12609 -0.54807,0.280199 0,0.154109 -0.11906,0.206613 -0.26458,0.116676 -0.14552,-0.08994 -0.41341,-0.07055 -0.59531,0.04309 -0.33187,0.207327 -0.86022,0.360061 -1.42998,0.413388 -0.16803,0.01572 -0.2465,0.182356 -0.17439,0.370289 0.0813,0.211966 -0.15426,0.403088 -0.62053,0.503383 -0.41342,0.08892 -0.98979,0.256389 -1.28083,0.372142 -0.29104,0.115755 -0.63753,0.215908 -0.76997,0.222565 -0.13243,0.0067 -0.34811,0.203872 -0.47928,0.43825 -0.1311595,0.234381 -0.3502295,0.357085 -0.4867995,0.272677 -0.13658,-0.08441 -0.24833,-0.0075 -0.24833,0.170823 0,0.178364 -0.0692,0.25508 -0.15381,0.170484 -0.0846,-0.0846 -0.57746,0.133684 -1.09525,0.485069 -0.5178,0.351385 -1.15303,0.638881 -1.41164,0.638881 -0.25861,0 -0.50988,0.0893 -0.55839,0.198438 -0.18181,0.409072 -1.78536,1.124479 -2.52047,1.124479 -0.41972,0 -1.2302,-0.238125 -1.80106,-0.529167 z m 3.15087,-2.548416 1.02474,-0.696336 -1.02947,-0.895429 c -1.23337,-1.072777 -2.35554,-1.721604 -2.58343,-1.49371 -0.0912,0.09121 -0.16584,0.0199 -0.16584,-0.158459 0,-0.178364 -0.10175,-0.261409 -0.22612,-0.184545 -0.12437,0.07686 -0.51132,-0.167923 -0.85989,-0.54397 -0.98548003,-1.06314 -4.59786,-3.809439 -7.51294,-5.711671 -2.68837,-1.754288 -5.9981205,-3.493727 -9.1555705,-4.811702 l -1.74722,-0.729326 -0.73528,0.681432 c -0.90229,0.836218 -0.75519,1.069736 1.55103,2.462159 0.8912,0.538083 4.65646,3.015012 8.3672505,5.504288 8.08480997,5.423477 11.07196,7.267694 11.77868,7.271972 0.14812,7.94e-4 0.73045,-0.311721 1.29406,-0.694703 z m 8.4749395,-4.579569 c 2.33705,-1.009979 4.81474,-1.987172 5.50596,-2.171544 0.69122,-0.184373 1.25677,-0.418042 1.25677,-0.519266 0,-0.101227 -0.62508,-0.797499 -1.38906,-1.547273 -1.36072,-1.335405 -1.41606,-1.360755 -2.71198,-1.242118 -5.59238,0.511955 -7.5091595,0.993341 -6.4822895,1.627978 0.14552,0.08994 0.26458,0.501349 0.26458,0.914247 0,0.7865 -0.997,1.858018 -2.6219,2.817871 -0.44973,0.26566 -0.81768,0.552952 -0.81768,0.638426 0,0.17503 2.11311,1.276207 2.49768,1.301586 0.1368,0.009 2.1608695,-0.809932 4.4979195,-1.819907 z m 41.42315,-2.121279 c 0,-0.335642 -2.03945,-1.511726 -3.04271,-1.754629 -0.73601,-0.1782 -1.66155,-0.695767 -5.3916,-3.015038 -1.08809,-0.67655 -1.52384,-0.820997 -1.85208,-0.613944 -0.23608,0.148918 -0.42924,0.421706 -0.42924,0.6062 0,0.293364 5.85954,4.476112 6.79262,4.848814 0.62554,0.249857 3.92301,0.189842 3.92301,-0.0714 z m -7.95225,-0.693118 c -1.90031,-1.42209 -2.93481,-1.777029 -6.20296,-2.128242 -1.74625,-0.187664 -3.76701,-0.346512 -4.49057,-0.352999 -1.3035,-0.0117 -1.31078,-0.0071 -0.79375,0.498917 0.287,0.280889 1.23619,0.992012 2.10932,1.580271 l 1.5875,1.069562 4.35088,0.0072 4.35088,0.0072 -0.9113,-0.681966 z m -12.0238,-0.261427 c -3.06105,-2.5444 -3.43786,-2.755757 -5.18336,-2.907392 -0.93269,-0.08103 -2.85807,-0.337744 -4.27862,-0.570487 -1.42054,-0.232741 -2.65601,-0.349964 -2.74548,-0.260498 -0.0895,0.08947 0.35268,0.792514 0.98254,1.562325 0.62987,0.76981 1.15723,1.425765 1.17192,1.457682 0.033,0.0718 9.58713,1.328764 10.31759,1.357402 0.45202,0.01773 0.41344,-0.07544 -0.26459,-0.639032 z m 24.42233,-0.943456 c 0.68324,-0.310164 2.25429,-1.03572 3.49122,-1.612347 2.37357,-1.106509 11.48881,-4.746075 16.08758,-6.423515 l 2.72613,-0.994375 -1.00634,-0.618617 c -1.27591,-0.784328 -1.64073,-0.781304 -4.77783,0.0396 -6.16222,1.612514 -9.69214,3.014806 -17.43709,6.927046 l -2.95233,1.491324 1.10025,0.874839 c 0.60514,0.481161 1.19608,0.875993 1.3132,0.877403 0.11713,0.0013 0.77197,-0.2512 1.45521,-0.561363 z m -37.67612,-0.82513 c -0.39248,-0.689901 -0.99658,-1.256771 -1.3393,-1.256771 -0.55977,0 -0.41598,0.687269 0.23945,1.144477 0.72634,0.506669 1.36108,0.571476 1.09985,0.112294 z m -42.28478,-5.623954 c 0.19345,-0.291896 0.26721,-0.662432 0.1639,-0.823407 -0.30287,-0.471958 -8.23186,-4.381558 -8.52222,-4.202107 -0.56642,0.35007 -0.20792,0.844309 1.1245,1.550281 0.76399,0.404791 2.46063,1.491091 3.77031,2.414 1.30969,0.922909 2.54562,1.658654 2.74652,1.634987 0.20089,-0.02368 0.52354,-0.281855 0.71699,-0.573754 z M 100.74807,21.541379 c 4.88775,-2.292223 9.82115,-4.852694 12.1098,-6.285079 2.00576,-1.255332 2.27695,-1.503392 1.7198,-1.573118 -0.36381,-0.04553 -1.63355,-0.308766 -2.82166,-0.584977 l -2.16019,-0.502203 -2.47002,1.491586 c -2.56976,1.55182 -6.7909,3.625291 -7.996121,3.927781 -0.91589,0.229878 -1.11709,0.601676 -0.54999,1.016349 0.42175,0.308391 0.39362,0.382432 -0.34508,0.908437 -0.44234,0.314973 -0.9516,0.57268 -1.1317,0.57268 -0.18009,0 -1.10093,-0.488508 -2.04632,-1.085572 -0.94538,-0.597064 -2.68465,-1.553578 -3.86505,-2.125589 l -2.14616,-1.040016 -0.47414,0.581123 c -0.26077,0.319619 -0.43882,0.7645 -0.39565,0.988629 0.18076,0.938638 7.70389,4.705752 9.52977,4.771911 0.39736,0.01439 1.76658,-0.463474 3.042711,-1.061942 z M 86.531829,20.767991 c 0.33871,-0.226936 0.30533,-0.342673 -0.22774,-0.789699 -0.45308,-0.379937 -1.01624,-0.523791 -2.05052,-0.523791 -0.78425,0 -1.4259,0.10662 -1.4259,0.236935 0,0.322754 2.12194,1.351071 2.77812,1.346306 0.29104,-0.0021 0.70776,-0.123503 0.92604,-0.269751 z m -118.1215,-0.908926 c 0.96955,-0.408001 1.00881,-0.464643 0.55479,-0.800415 -1.83525,-1.357275 -12.03329,-6.067181 -12.77162,-5.898504 -0.18452,0.04216 0.52088,0.70697 1.56757,1.477365 1.04668,0.770392 3.27228,2.41247 4.94577,3.649059 3.31807,2.451809 3.49682,2.501093 5.70349,1.572495 z m -15.93655,-8.999741 c -0.88465,-0.61963 -5.70816,-2.8038761 -5.85893,-2.6531111 -0.21496,0.21496 -0.0544,0.306218 3.00778,1.709864 2.94138,1.3482611 3.86621,1.6542251 2.85115,0.9432471 z M 64.253389,-0.75390435 c 1.97225,-0.68514645 4.76257,-2.22844245 5.77974,-3.19671685 0.77635,-0.7390341 0.96464,-1.5250398 0.51287,-2.1410479 -0.32117,-0.4379383 -0.68873,-0.5123762 -2.44863,-0.4959033 -4.85978,0.045487 -12.65458,3.6733161 -11.70497,5.4476807 0.78435,1.46556145 4.26182,1.63631025 7.86099,0.38598735 z m -6.31934,-4.76530435 c 4.83381,-2.4708272 8.9548,-3.2021964 12.51485,-2.2210606 1.76288,0.4858411 1.58129,0.6211808 3.09447,-2.3062697 2.04155,-3.949655 2.82996,-9.359103 2.12779,-14.599083 -0.43378,-3.237063 -0.61512,-3.595838 -2.64764,-5.238038 -1.01064,-0.816554 -1.83752,-1.408075 -1.83752,-1.31449 0,0.09358 -0.42862,-0.258471 -0.9525,-0.782346 -0.52387,-0.523875 -1.0509,-0.9525 -1.17116,-0.9525 -0.35275,0 -1.56353,-2.70057 -1.63109,-3.638021 -0.0349,-0.483512 -0.20823,-0.859895 -0.39612,-0.859895 -0.18379,0 -1.61698,0.60942 -3.18487,1.354269 -6.47981,3.078319 -13.87393,6.089904 -17.7562,7.23201 l -2.47007,0.726657 -2.02785,-0.719662 c -1.11531,-0.395811 -2.3255,-0.842642 -2.6893,-0.992955 -0.36381,-0.150312 -0.80292,-0.302916 -0.97581,-0.339116 -0.84416,-0.17676 -8.81787,-3.285715 -11.85648,-4.622855 -4.43116,-1.949926 -4.62865,-2.00954 -4.63602,-1.399408 -0.0146,1.205778 -2.04027,4.317309 -2.81069,4.317309 -0.19718,0 -0.3585,0.109771 -0.3585,0.243933 0,0.277119 -3.07496,1.872734 -3.60901,1.872734 -0.19222,0 -1.81031,0.70372 -3.59576,1.563822 -4.6819895,2.255449 -6.9998695,2.915872 -10.89004953,3.102859 -6.88223997,0.330806 -10.88455047,-1.268823 -13.46270047,-5.380717 -0.57493,-0.916967 -1.07948,-1.667214 -1.12121,-1.667214 -0.0417,0 -0.75489,0.357187 -1.58481,0.79375 -1.42891,0.751649 -1.67429,0.79375 -4.62623,0.79375 h -3.11729 l -0.13855,0.724789 c -0.0762,0.398632 -0.0467,0.904647 0.0656,1.124479 0.11226,0.219829 0.2839,1.397939 0.38144,2.618018 0.23407,2.928082 0.91326,4.940768 2.70943,8.029011 0.1658,0.285059 0.75551,0.983289 1.31047,1.551622 0.55496,0.56833 0.90687,1.03333 0.78202,1.03333 -0.12484,0 -0.0115,0.238125 0.2519,0.529167 0.26339,0.291041 0.62445,0.529166 0.80236,0.529166 0.17791,0 0.47106,0.177837 0.65145,0.395195 0.38095,0.459018 3.05742,2.045589 3.83623,2.274062 0.29193,0.08564 0.4911,0.323765 0.4426,0.529167 -0.0485,0.205398 -0.0112,0.296471 0.0829,0.202382 0.0941,-0.09409 0.90768,0.0013 1.80799,0.212257 2.1064605,0.493284 7.0614605,1.1494371 8.6800805,1.1494371 1.74557997,0 8.00682,-1.1884951 10.43219,-1.9802131 1.8338495,-0.59863 2.0802795,-0.622964 2.7582795,-0.272357 0.42149,0.217961 0.72802,0.584232 0.70648,0.844185 -0.0764,0.921782 4.67444,2.68283 9.61926,3.5657128 4.05393,0.723818 11.86814,0.78808 15.7427,0.1294659 3.59956,-0.6118701 7.10706,-1.5585677 10.58334,-2.8565207 2.89126,-1.079524 8.28054,-3.651078 10.22768,-4.880255 0.55941,-0.35314 1.01711,-0.547428 1.01711,-0.431755 0,0.524565 -4.78157,4.651766 -6.20967,5.359865 -0.43214,0.2142702 -1.00242,0.6026758 -1.26729,0.8631237 -0.46561,0.4578323 -0.4639,0.4983824 0.0514,1.2220866 0.56832,0.7981367 3.64295,3.7283282 3.91211,3.7283282 0.0883,0 1.18285,-0.5225467 2.43231,-1.1612112 z m -76.58797,-4.5044753 1.023,-0.427442 -2.26854,-2.178955 c -1.97082,-1.892985 -4.42912,-5.011933 -4.42912,-5.619409 0,-0.110691 -0.25215,-0.609253 -0.56034,-1.107916 l -0.56035,-0.906658 -0.58599,0.875429 c -1.45671,2.176238 -2.12985,4.00212 -2.12727,5.770221 0.002,1.606733 0.0632,1.781736 0.92604,2.662058 1.25184,1.2772202 3.1133,1.7848153 5.65501,1.5420337 1.0475,-0.1000575 2.3649,-0.3742717 2.92756,-0.6093617 z M 4.5109995,-29.093159 c 2.7124,-0.747416 6.0854195,-2.303349 6.0854195,-2.807121 0,-0.126137 -0.43488,-0.677145 -0.9663895,-1.224462 -1.33331,-1.372942 -1.75544,-2.512798 -1.74746,-4.718569 0.005,-1.349533 0.16204,-2.189019 0.56655,-3.026259 0.30789,-0.637259 0.5598,-1.195821 0.5598,-1.241247 0,-0.04543 -0.47625,-0.08259 -1.05833,-0.08259 -1.23141,0 -1.42246,-0.509461 -0.39688,-1.058333 1.16535,-0.623676 0.82048,-1.144051 -1.19079,-1.796804 -1.01874,-0.330626 -2.50244,-1.056598 -3.29711,-1.613265 -1.30121,-0.911503 -1.57209,-0.9999 -2.72463003,-0.889156 -0.98744,0.09488 -1.48838997,-0.0042 -2.19299997,-0.433748 -1.12294,-0.684567 -1.7411,-0.707321 -2.0787,-0.07651 -0.14193,0.265199 -1.44129,1.664184 -2.88746,3.108854 -1.44617,1.444667 -2.71203,2.896287 -2.81301,3.225823 -0.10325,0.336923 -0.30896,0.521682 -0.4700205,0.42214 -0.17439,-0.10778 -0.20977,-0.05301 -0.0905,0.140042 0.10777,0.174379 0.0788,0.460666 -0.0644,0.63619 -0.96307,1.180471 -1.40278,5.515269 -0.74586,7.35293 0.7804,2.183087 2.9753305,3.897762 5.7231705,4.470934 1.66685,0.347686 8.03458,0.09476 9.78958,-0.388845 z m 78.9934695,-1.225468 c 1.11633,-0.281096 1.45185,-0.561504 3.11086,-2.599886 0.31201,-0.383368 0.53399,-1.229889 0.63338,-2.415452 0.14062,-1.677273 0.0848,-1.963812 -0.68852,-3.534664 -0.5093,-1.034521 -1.31696,-2.127904 -2.04569,-2.769354 -0.71617,-0.630394 -1.12754,-1.183865 -1.01513,-1.365758 0.28492,-0.460999 -2.05389,-0.02816 -2.42951,0.449622 -0.19621,0.249574 -0.53491,0.326602 -0.96332,0.219078 -0.89418,-0.224422 -0.9942,0.04768 -0.58746,1.598165 0.4842,1.845776 0.16337,6.429539 -0.42459,6.066158 -0.12956,-0.08007 -0.23557,0.03969 -0.23557,0.266136 0,0.226452 -0.44213,0.901107 -0.9825,1.499238 -0.93421,1.03406 -0.95819,1.105283 -0.48784,1.449207 0.27206,0.198935 1.10113,0.534474 1.84239,0.745641 1.1603,0.330541 1.69247,0.450821 2.88422,0.651886 0.11746,0.01982 0.74264,-0.09719 1.38928,-0.260017 z m -37.13606,-0.873474 c 1.99444,-0.534575 11.76586,-4.330734 14.36655,-5.581351 0.7276,-0.34989 1.6801,-0.778759 2.11667,-0.95304 0.68018,-0.271536 0.71886,-0.334282 0.2703,-0.43856 -0.2879,-0.06693 -1.29993,0.0145 -2.24896,0.18097 -5.31439,0.932153 -6.94756,1.018429 -15.61613,0.824973 -5.67764,-0.126706 -8.8649,-0.300265 -9.38174,-0.510865 -0.43053,-0.175432 -1.97835,-0.381423 -3.43959,-0.457764 l -2.6568,-0.138797 0.66146,0.544221 c 0.3638,0.299321 0.84706,0.546865 1.07391,0.550101 0.22685,0.0032 0.63184,0.166303 0.89998,0.362373 0.81962,0.599323 0.0161,0.774552 -1.94476,0.424122 -0.991,-0.177102 -1.96852,-0.263965 -2.17225,-0.193027 -0.56532,0.196834 2.8803,1.686811 7.30249,3.157794 2.18282,0.72608 4.08186,1.430562 4.22011,1.56551 0.13824,0.134948 0.49543,0.252082 0.79375,0.260295 0.29832,0.0082 0.95911,0.172603 1.46844,0.365307 1.25556,0.475052 2.61049,0.486979 4.28657,0.03774 z m -30.4533,-2.346084 c 2.07018,-1.393571 2.43637,-5.017318 0.72665,-7.19087 -0.74418,-0.946081 -2.38235,-1.728941 -3.61787,-1.728941 -2.85373,0 -4.4875795,4.186592 -2.77883,7.120504 1.04162,1.788448 1.91775,2.355609 3.68567,2.385898 0.7164,0.01228 1.39096,-0.187129 1.98438,-0.586591 z m 61.00387,-0.429157 c 0.8949,-0.656601 1.41077,-2.009637 1.41077,-3.700208 0,-1.226662 -0.14199,-1.751844 -0.69502,-2.570711 -0.90049,-1.333333 -1.10604,-1.449641 -2.2154,-1.253548 -3.04662,0.538533 -4.90853,3.055784 -4.16353,5.628965 0.38792,1.339824 1.2935,2.128867 2.75733,2.402499 1.20532,0.225306 2.12693,0.06451 2.90585,-0.506997 z m -94.00853,-0.128381 c 0.45692,-0.193458 1.03815,-0.584833 1.29163,-0.869723 0.50276,-0.565089 1.52351,-3.310231 1.52351,-4.097271 0,-0.488452 0.59626,-1.988127 1.63641,-4.115776 0.6341,-1.29708 3.5641605,-4.571169 4.0908405,-4.571169 0.47956,0 0.45312,-0.668401 -0.0859,-2.172451 -0.34431,-0.960657 -0.60241,-1.277364 -1.12579,-1.381419 -1.1893605,-0.236469 -3.7230205,-0.117782 -8.5845905,0.402135 -2.60179,0.278246 -4.76159,0.505902 -4.79956,0.505902 -0.038,0 -0.0113,0.428368 0.0592,0.951931 0.0706,0.523563 -0.0209,1.742797 -0.20332,2.709413 -0.27178,1.44037 -0.50997,1.939422 -1.32007,2.76585 -1.10658,1.12888 -2.51185,1.635898 -3.7736,1.361512 -1.52811,-0.332312 -4.04481,-1.682851 -5.14423,-2.760554 -1.47575,-1.446602 -1.74294,-2.414553 -1.59357,-5.773142 0.12183,-2.739287 0.11197,-2.798508 -0.58773,-3.530682 -0.3914,-0.409567 -0.78157,-0.674735 -0.86704,-0.589264 -0.41343,0.413427 0.75709,11.316673 1.40529,13.090051 1.25672,3.438252 4.50052,6.596686 7.9812,7.771174 2.73093,0.921496 8.24612,1.087258 10.09732,0.303483 z m 95.92582,-1.615398 c 0.008,-0.145521 -0.10087,-0.08599 -0.24194,0.132292 -0.14106,0.218281 -0.24993,0.575469 -0.24193,0.79375 0.0154,0.41906 0.45632,-0.424863 0.48387,-0.926042 z M 8.6631095,-38.153482 c -0.0671,-0.257431 -0.12638,-0.110868 -0.13178,0.325695 -0.005,0.436562 0.0495,0.647186 0.12198,0.468055 0.0725,-0.17913 0.0769,-0.536318 0.01,-0.79375 z m 15.1624795,-1.359712 c 0,-0.261752 -2.32674,-0.970838 -2.52736,-0.770223 -0.072,0.07201 -0.0559,0.326567 0.0359,0.565677 0.11972,0.311978 0.49506,0.434744 1.32915,0.434744 0.63927,0 1.16232,-0.103589 1.16232,-0.230198 z m 32.37766,-0.655 c 1.05374,-0.486859 2.56398,-1.296087 3.35609,-1.798288 1.92503,-1.22047 3.72263,-2.133737 3.88341,-1.972955 0.15552,0.155517 -0.73306,1.637072 -1.53037,2.551631 l -0.56632,0.649602 0.62721,0.07799 c 1.53214,0.1905 15.38277,-3.944228 19.06738,-5.692047 1.41823,-0.672748 2.64827,-1.153512 2.73341,-1.068364 0.0851,0.08515 0.0165,0.413332 -0.15264,0.7293 -0.44457,0.830691 -0.19165,0.902277 1.01425,0.287073 3.09304,-1.577954 6.41427,-4.561395 7.89992,-7.096474 l 0.70461,-1.202317 0.48889,0.603758 c 0.26889,0.332066 0.53441,0.557126 0.59005,0.500129 1.01667,-1.041469 4.10648,-7.895187 4.7881,-10.620814 0.10008,-0.400182 0.27507,-0.727604 0.38887,-0.727604 0.26362,0 1.319331,3.884501 1.335181,4.91281 0.0115,0.747972 0.0348,0.733126 0.64896,-0.414893 0.35035,-0.654844 0.97005,-2.143125 1.3771,-3.307292 0.69175,-1.978361 0.739,-2.384634 0.72323,-6.217708 -0.0124,-3.002274 -0.14143,-4.586337 -0.48174,-5.91236 -0.25567,-0.996228 -0.38864,-1.887538 -0.29548,-1.980692 0.0931,-0.09315 0.65512,0.0967 1.24881,0.421897 0.82879,0.453977 1.16381,0.521245 1.4428,0.2897 0.30628,-0.254188 0.29676,-0.403225 -0.0606,-0.948637 -0.23319,-0.355889 -0.35467,-0.716376 -0.26997,-0.801079 0.0847,-0.08471 -0.0433,-0.372033 -0.28445,-0.638503 -0.24115,-0.26647 -0.35344,-0.484492 -0.24954,-0.484492 0.1039,0 0.0959,-0.148828 -0.0177,-0.330729 -0.11364,-0.181901 -0.23181,-0.497404 -0.26261,-0.701117 -0.0308,-0.203713 -0.16693,-0.441838 -0.30251,-0.529167 -0.13558,-0.08733 -0.33011,-0.426669 -0.43229,-0.754091 -0.10218,-0.327422 -0.30385,-0.595313 -0.44815,-0.595313 -0.14431,0 -0.19472,-0.109463 -0.11204,-0.243252 0.0827,-0.133789 -0.007,-0.40168 -0.19824,-0.595313 -0.19172,-0.193632 -0.95368,-1.271502 -1.69323,-2.395264 -0.73956,-1.123765 -1.714881,-2.354739 -2.167391,-2.735501 -1.15088,-0.968407 -1.0885,-1.578758 0.16944,-1.657681 0.54571,-0.03424 1.200151,-0.125999 1.454331,-0.203917 0.43979,-0.134818 0.43979,-0.172399 0,-0.777263 -0.25418,-0.349578 -0.56442,-0.639337 -0.689431,-0.643912 -0.71457,-0.02614 -4.68929,-4.222162 -6.65127,-7.021599 -1.58026,-2.254778 -3.22988,-5.417378 -2.83031,-5.426188 0.10113,-0.002 0.038,-0.0967 -0.14018,-0.20992 -0.17822,-0.11323 -0.36026,-0.43883 -0.40453,-0.72355 -0.0443,-0.28473 -0.14904,-0.63675 -0.23285,-0.78227 -0.0838,-0.14552 -0.59961,-1.6338 -1.14624,-3.30729 -1.13938,-3.48819 -2.40385,-6.67619 -3.77421,-9.51567 -0.52425,-1.08628 -0.95319,-2.12808 -0.95319,-2.31511 0,-0.18703 -0.0557,-0.2844 -0.12366,-0.21638 -0.068,0.068 -0.66749,-0.73566 -1.33215,-1.78594 -1.75434,-2.77214 -3.95567,-5.58373 -6.24162,-7.97196 -1.10217,-1.15147 -2.00395,-2.20601 -2.00395,-2.3434 0,-0.1374 -0.16554,-0.1863 -0.36786,-0.10866 -0.20231,0.0776 -0.59109,-0.0668 -0.86394,-0.32103 -0.27285,-0.25419 -1.05015,-0.78687 -1.72733,-1.18373 -1.15349,-0.67599 -1.22228,-0.68735 -1.08957,-0.17983 0.0779,0.29794 0.0505,0.54171 -0.0609,0.54171 -0.16939,0 -2.05894,-1.44044 -3.55687,-2.71147 -0.2147,-0.18218 -0.45282,-0.33709 -0.52916,-0.34424 -0.47462,-0.0445 -1.32942,-0.45444 -1.32942,-0.6376 0,-0.18648 -0.45277,-0.36813 -1.71979,-0.68998 -3.64714,-0.92645 -4.22892,-1.20889 -3.40185,-1.65152 0.27029,-0.14465 0.57948,-0.278 0.68709,-0.29633 0.88649,-0.15101 0.97379,-0.35623 0.35771,-0.84083 -0.35026,-0.27552 -0.83024,-0.50094 -1.06662,-0.50094 -0.23638,0 -0.87245,-0.19107 -1.41348,-0.4246 -0.54103,-0.23352 -1.34087,-0.46512 -1.77744,-0.51467 -0.43656,-0.0495 -1.15093,-0.14947 -1.5875,-0.22207 -0.43656,-0.0726 -2.59457,-0.21604 -4.79557,-0.31874 l -4.00182,-0.18674 -0.0145,-0.68795 c -0.008,-0.37837 0.24135,-1.40232 0.55406,-2.27544 0.47302,-1.32068 0.56995,-2.18784 0.57676,-5.15938 0.006,-2.74345 -0.0869,-3.74315 -0.4018,-4.31037 l -0.40998,-0.7385 -0.62269,0.54006 c -0.34248,0.29704 -0.73057,0.54006 -0.86241,0.54006 -0.13184,0 -0.17447,0.10558 -0.0947,0.23461 0.16934,0.27401 -0.47657,0.88093 -0.73342,0.68914 -0.0958,-0.0715 -0.1143,-0.0504 -0.0412,0.047 0.19145,0.25498 -0.67587,1.14595 -1.11553,1.14595 -0.20431,0 -0.29858,0.11795 -0.20948,0.26212 0.0891,0.14417 -0.49918,0.91805 -1.3073,1.71973 -0.80812,0.80169 -1.4693,1.57569 -1.4693,1.72001 0,0.14433 -0.23813,0.41112 -0.52917,0.59288 -0.29104,0.18175 -0.52917,0.46984 -0.52917,0.64018 0,0.17034 -0.35719,0.61026 -0.79375,0.97761 -0.43656,0.36734 -0.79375,0.74305 -0.79375,0.83492 0,0.41996 -1.41203,1.95996 -1.65782,1.80805 -0.15311,-0.0946 -0.19783,-0.0441 -0.10042,0.11354 0.0966,0.15627 0.0255,0.44256 -0.15802,0.63619 -0.18349,0.19363 -0.64812,0.82831 -1.0325,1.4104 -0.38438,0.58208 -1.11167,1.50161 -1.6162,2.0434 -0.50453,0.54179 -0.84467,1.06678 -0.75587,1.16663 0.0888,0.0999 -0.0455,0.10735 -0.29839,0.0166 -0.26767,-0.096 -0.43353,-0.0445 -0.39687,0.1232 0.0346,0.15848 -0.0645,0.33557 -0.22019,0.39355 -0.17385,0.0647 -0.30746,-0.42708 -0.3461,-1.27383 -0.0346,-0.75858 -0.12484,-1.47941 -0.20051,-1.60184 -0.32201,-0.52101 -4.4703,4.52461 -5.32299,6.47443 -0.51855,1.18576 -0.80225,1.02575 -2.22829,-1.25678 -0.45459,-0.7276 -1.09787,-1.73963 -1.42951,-2.24895 -0.33165,-0.50933 -0.91131,-1.63049 -1.28814,-2.49149 -0.9653,-2.20557 -3.29453,-5.59782 -4.95488,-7.21617 -2.07683,-2.02432 -3.18115,-2.99235 -3.41363,-2.99235 -0.11354,0 -0.39592,-0.18947 -0.6275,-0.42106 -0.23159,-0.23158 -0.58527,-0.44516 -0.78596,-0.47462 -0.20069,-0.0294 -0.5257295,-0.17544 -0.7223195,-0.32442 -0.19658,-0.14898 -1.6671,-0.75371 -3.26783,-1.34385 -2.77752,-1.02398 -3.06144,-1.07508 -6.21771003,-1.11904 -3.23587997,-0.0451 -4.03134997,0.048 -7.80520997,0.91305 -1.01865,0.2335 -2.00091,0.43632 -2.18281,0.45072 -0.1819005,0.0144 -0.3307305,0.15744 -0.3307305,0.31787 0,0.16044 -0.7414,0.69929 -1.64754,1.19745 -5.15778,2.8355 -9.73097,10.48928 -9.96068,16.67037 -0.0404,1.08671 -0.11551,2.04392 -0.16693,2.12713 -0.0856,0.13853 0.2769,4.49298 0.5083,6.10559 0.054,0.37596 0.47757,1.74518 0.94138,3.04271 0.46382,1.29753 0.90708,2.62704 0.98502,2.95446 0.078,0.32742 0.2469,0.59531 0.37546,0.59531 0.12856,0 0.23374,0.15514 0.23374,0.34475 0,1.00768 3.04077,4.3053 5.47073,5.93283 2.44196,1.63557 6.3915105,3.06878 8.5392405,3.09872 l 1.17768,0.0164 0.80669,-1.85288 c 0.44369,-1.01908 1.04046,-2.26924 1.32617,-2.77813 0.28571,-0.50888 0.66976,-1.34196 0.85345997,-1.85128 0.30686,-0.85084 0.28616,-0.96405 -0.25488997,-1.39401 -0.34561,-0.27465 -0.86212,-0.41966 -1.25033,-0.35101 -1.66789,0.29491 -4.28393,-1.28535 -3.87819,-2.34268 0.19751,-0.51471 1.84257,-1.5152 3.48131,-2.11726 0.72761,-0.26732 1.77243997,-0.71093 2.32184997,-0.98581 l 0.99893,-0.49978 -0.69342,-0.90912 c -1.55270997,-2.0357 -2.16972997,-6.90961 -1.43937997,-11.36977 0.25195,-1.53861 0.23952,-1.59729 -0.46455,-2.19419 -1.25336,-1.06255 -3.00493,-1.70686 -5.02549,-1.84862 -2.15722,-0.15134 -3.7490505,0.29184 -5.3552305,1.49094 -0.50932,0.38024 -1.02419,0.65904 -1.14414,0.61956 -0.11996,-0.0395 -0.15368,0.0325 -0.0749,0.15987 0.18779,0.30385 -1.12005,2.05192 -1.46469,1.95772 -0.14629,-0.04 -0.20068,0.0329 -0.12087,0.16208 0.0798,0.12913 -0.2613,1.05974 -0.75802,2.06801 -0.59462,1.20699 -1.10997,2.88894 -1.50866,4.92376 -0.35804,1.82737 -0.70269,2.99338 -0.84323,2.85284 -0.38185,-0.38185 -0.22378,-5.55296 0.22144,-7.24431 0.73536,-2.79357 2.3766,-5.75453 2.91812,-5.26455 0.1177,0.10649 0.12492,0.0392 0.0161,-0.14944 -0.26486,-0.45902 1.92948,-2.3864 3.59792,-3.16021 1.9798105,-0.91822 4.6190605,-1.26716 6.6146605,-0.87455 2.92281,0.57503 5.27910997,2.07271 6.27895,3.99095 0.65733,1.26111 0.69617,2.16894 0.15804,3.69416 -0.73143003,2.0731 -0.39339,5.08243 0.70551,6.28056 0.33957,0.37025 1.14673,1.01358 1.79369,1.42964 0.99963,0.64287 1.44663,0.75647 2.97656,0.75647 1.36005,0 1.80028,0.0899 1.80028,0.36756 0,0.41316 -1.03578,1.75906 -1.04953,1.36376 -0.005,-0.13918 -0.33622,0.35271 -0.73641,1.09308 -0.40018,0.74037 -1.03633,1.80675 -1.41366,2.36972 -2.33856,3.48911 -4.04983,6.55977 -4.99399003,8.96109 -0.3433,0.87312 -0.71257,1.70656 -0.82061,1.85208 -0.10805,0.14552 -0.57852,1.45521 -1.04550997,2.91042 -0.46698,1.4552 -0.95443,2.75894 -1.08321,2.89718 -0.12879,0.13825 -0.23416,0.45792 -0.23416,0.71038 0,0.25247 -0.13829,0.7942 -0.30731,1.20386 -0.16902,0.40965 -0.28608,0.84012 -0.26014,0.95659 0.0731,0.32837 -1.26718,4.688443 -1.80847,5.882989 -0.26609,0.587219 -0.55696,1.539719 -0.64637,2.116667 -0.18963,1.223584 -1.11464,4.111741 -1.63838,5.115507 -0.19974,0.382796 -0.36396,0.874585 -0.36495,1.092867 -0.002,0.501245 -4.4409405,8.56789 -4.7804105,8.687701 -0.13829,0.04881 -0.19278,0.183642 -0.1211,0.299625 0.0717,0.115985 -0.51331,1.564952 -1.29998,3.219929 -1.51748,3.192433 -1.95627,4.461502 -1.5426,4.461502 0.13875,0 0.47908,-0.251984 0.75629,-0.559964 0.77241,-0.858129 2.75299,-2.151116 2.75299,-1.797244 0,0.172726 -0.25719,1.756024 -0.57154,3.51844 -0.69282,3.884332 -0.81718,9.666009 -0.24992,11.619391 0.20305,0.699185 0.45653,1.175435 0.5633,1.058333 0.10678,-0.117104 0.63907,-1.515179 1.18288,-3.106835 0.5438,-1.591657 1.2377005,-3.437125 1.5420005,-4.101042 l 0.55326,-1.207121 0.17013,3.307291 c 0.22187,4.313285 0.65381,6.996745 1.59707,9.921875 0.913,2.831258 1.19129,3.340952 1.5339,2.809306 0.26672,-0.413901 1.35183,-5.331735 1.35183,-6.126668 0,-0.898138 0.46204,-0.563708 0.6536,0.473091 0.41438,2.242714 3.65103997,7.844155 4.20972997,7.285461 0.0901,-0.09007 0.16376,-0.970328 0.16376,-1.956131 0,-0.985803 0.0983,-1.853107 0.21838003,-1.927339 0.12011,-0.07423 0.62397,0.365228 1.11968,0.976575 2.21708,2.734217 3.89504,4.099827 6.8635,5.58584 1.6141595,0.808046 3.9712495,1.778574 5.2379895,2.15673 1.26674,0.378156 2.58643,0.801502 2.93266,0.940771 0.34623,0.139269 0.69197,0.190751 0.76831,0.114406 0.0764,-0.07635 -0.36841,-0.861904 -0.98834,-1.745684 -0.61994,-0.88378 -1.04863,-1.685401 -0.95264,-1.781384 0.22537,-0.225369 1.96997,0.70644 5.29297,2.827033 3.50955,2.239645 5.48041,3.111712 9.1029,4.027858 3.60448,0.91159 3.82996,0.920954 2.84846,0.118264 -1.35667,-1.109512 -0.55204,-1.242629 1.53118,-0.253315 1.07183,0.509011 2.66889,1.143502 3.54901,1.409983 1.3668,0.413835 1.62156,0.428903 1.74651,0.103301 0.0804,-0.209664 0.0433,-0.317579 -0.0825,-0.239813 -0.2276,0.140663 -1.79157,-1.892308 -1.5904,-2.067311 0.058,-0.05045 1.21947,0.184806 2.58105,0.522798 1.36157,0.337992 3.92142,0.748078 5.68854,0.911302 2.96012,0.273417 4.32844,0.238905 7.18169,-0.181142 l 1.05834,-0.155805 -0.72761,0.680074 c -1.56287,1.460783 -0.70901,1.608677 2.01673,0.349308 z m -7.29744,-22.423894 c -0.53968,-0.273489 -1.11423,-0.745775 -1.2768,-1.049525 -0.16256,-0.303747 -0.52902,-0.785725 -0.81435,-1.07106 -0.28534,-0.285334 -0.44789,-0.63351 -0.36124,-0.773721 0.0867,-0.140213 0.0245,-0.254934 -0.13825,-0.254934 -0.1627,0 -0.22851,-0.108894 -0.14626,-0.241985 0.0823,-0.133091 0.0338,-0.281919 -0.10758,-0.330729 -0.31781,-0.109683 -1.02167,-3.011027 -1.21885,-5.024146 -0.12924,-1.319538 -0.23227,-1.531345 -0.87426,-1.797267 -0.93296,-0.386445 -2.53358,-1.815211 -2.94674,-2.630369 -0.52989,-1.045458 -0.57509,-2.048581 -0.1393,-3.091566 0.22707,-0.543456 0.48963,-0.911323 0.58347,-0.817483 0.0938,0.09384 0.31461,0.05112 0.49059,-0.09493 0.43327,-0.359576 0.74982,0.06179 1.44769,1.927 0.3124,0.834978 0.72531,1.518142 0.91757,1.518142 0.19225,0 0.40823,0.152893 0.47993,0.339762 0.0866,0.225706 0.80767,0.364983 2.14797,0.414899 1.67986,0.06256 2.25362,-0.03292 3.42761,-0.570389 1.51211,-0.692269 2.45788,-1.760466 2.72027,-3.072421 0.20378,-1.0189 0.62622,-1.069649 0.62622,-0.07523 0,0.407435 0.30933,1.21784 0.68739,1.800903 1.08704,1.67646 3.04033,2.28755 5.97548,1.869434 0.68297,-0.09729 2.71197,-1.739064 2.46029,-1.990751 -0.0675,-0.0675 0.0146,-0.288195 0.18243,-0.490432 0.36445,-0.439134 0.33147,-2.402157 -0.048,-2.859442 -0.18608,-0.224208 -0.15554,-0.416745 0.0997,-0.628584 0.62327,-0.51726 1.73902,0.08791 1.9309,1.047293 0.0903,0.451469 0.33305,0.885663 0.53947,0.964872 0.46992,0.180326 0.2633,2.704898 -0.24795,3.029412 -0.18419,0.116914 -0.22223,0.214395 -0.0846,0.216623 0.50136,0.0081 -1.60557,1.919909 -2.77452,2.517547 -0.66069,0.337788 -1.90047,0.743418 -2.75505,0.901396 -0.85459,0.15798 -1.59874,0.332176 -1.65367,0.387106 -0.0857,0.08572 -0.34418,1.343681 -0.72063,3.507362 -0.0538,0.309369 -0.33738,1.103923 -0.6301,1.765681 -0.29273,0.661754 -0.46358,1.271838 -0.37968,1.35574 0.0839,0.0839 0.0136,0.152551 -0.15613,0.152551 -0.16978,0 -0.30868,0.136565 -0.30868,0.30348 0,0.576056 -1.9421,2.671551 -2.81339,3.035596 -1.18184,0.493803 -2.93094,0.413229 -4.12097,-0.189836 z m 3.91128,-2.906691 c 0.30184,-0.281585 0.60923,-0.45153 0.68311,-0.377658 0.46613,0.466137 1.25293,-2.971684 1.00841,-4.406178 -0.41698,-2.446305 -1.68209,-2.955721 -5.44797,-2.193708 -2.07239,0.419341 -0.99563,6.579976 1.31724,7.536487 0.7463,0.308642 1.75764,0.07689 2.43921,-0.558943 z m 0.59355,-16.27302 c -0.37809,-0.198101 -1.14698,-0.395454 -1.70864,-0.438562 l -1.02121,-0.07838 -0.006,-1.406234 c -0.007,-1.46372 0.24999,-1.812531 1.30658,-1.775542 0.77429,0.02711 0.78056,0.55036 0.0108,0.901089 -1.50991,0.687961 0.11742,2.141399 1.92024,1.715045 1.1489,-0.271709 1.65965,-0.934178 1.23838,-1.60622 -0.15964,-0.254661 -0.54775,-0.501298 -0.86247,-0.548081 -0.79072,-0.117544 -0.43098,-0.578319 0.44344,-0.567984 0.84772,0.01003 1.59655,0.52133 1.44076,0.983774 -0.0613,0.181901 0.0176,0.330729 0.17522,0.330729 0.47448,0 0.3235,0.940099 -0.2727,1.698043 -0.30763,0.391091 -0.62555,0.644855 -0.70648,0.563919 -0.0809,-0.08093 -0.3998,0.01839 -0.70859,0.220716 -0.47516,0.311332 -0.66708,0.312512 -1.24888,0.0077 z m -25.74859,-2.139132 c -1.82461,-0.283123 -4.63021,-1.471443 -4.63021,-1.961139 0,-0.150371 -0.10906,-0.206 -0.24236,-0.123619 -0.36176,0.223584 -1.94397,-1.748443 -2.79696,-3.486076 -0.89511,-1.823402 -1.1865,-4.691199 -0.66568,-6.551374 0.2687,-0.959707 0.26812,-1.268415 -0.003,-1.59508 -0.1849,-0.222784 -0.39291,-0.348324 -0.46226,-0.278977 -0.0693,0.06935 -0.3001,-0.04793 -0.51279,-0.260619 -0.21269,-0.212688 -0.50499,-0.313608 -0.64955,-0.224264 -0.35245,0.217829 -1.54658,-0.929222 -1.54658,-1.485611 0,-0.62987 0.8524,-1.3178 1.63287,-1.3178 0.36583,0 1.18739,0.27616 1.82568,0.6137 l 1.16054,0.613707 1.62366,-1.639727 c 2.04969,-2.06997 3.84071,-2.83474 6.72183,-2.87027 1.6516,-0.0204 2.2494,0.0996 3.5647,0.71537 1.73865,0.81397 2.58338,1.45803 2.36845,1.8058 -0.0769,0.1244 0.0152,0.17189 0.20467,0.10552 0.4329,-0.15164 1.79968,1.61797 1.79968,2.330101 0,0.291862 0.0776,0.453083 0.17239,0.358273 0.19611,-0.196115 0.79453,0.862483 1.07479,1.90129 0.10334,0.383043 0.19242,1.887066 0.19796,3.342275 0.009,2.344637 -0.0727,2.822424 -0.71658,4.197074 -0.99597,2.126197 -3.35649,4.423765 -5.2871,5.146096 -1.58945,0.59469 -3.55028,0.864568 -4.83416,0.66535 z m -1.18118,-6.763917 c 0.22348,-0.02789 0.43227,-0.23355 0.46398,-0.45703 0.39549,-2.787219 0.38791,-2.87633 -0.30355,-3.567785 -0.86303,-0.863036 -2.43191,-0.920763 -3.44149,-0.126626 -0.53915,0.424092 -0.69714,0.781047 -0.69714,1.575051 0,2.028161 0.93427,3.00234 2.64583,2.758842 0.50933,-0.07246 1.10889,-0.154562 1.33237,-0.182452 z m 7.51932,-5.657915 c 0.56879,-0.218268 1.12771,-1.386406 1.07514,-2.247067 -0.0419,-0.685866 -0.9894,-2.14715 -1.34709,-2.07754 -0.10241,0.0199 -0.26513,-0.0915 -0.3616,-0.24756 -0.22646,-0.36643 -1.75374,0.0531 -2.43376,0.66847 -0.85995,0.778243 -0.55294,2.887702 0.54269,3.728908 0.45178,0.346858 1.82793,0.442134 2.52462,0.174789 z m 36.1146,11.706729 c -0.66193,-0.191328 -1.55489,-0.562861 -1.98437,-0.825627 -1.26592,-0.77452 -3.2591,-3.065835 -4.02872,-4.631332 -0.65165,-1.325526 -0.71541,-1.726361 -0.71541,-4.497917 0,-2.82653 0.055,-3.155378 0.77458,-4.628557 1.69043,-3.460923 4.42255,-5.306003 7.81888,-5.280303 0.94589,0.007 2.01745,0.0949 2.38125,0.19493 1.26649,0.34831 2.10901,0.78102 1.96727,1.01036 -0.0785,0.12696 0.0131,0.17104 0.20362,0.098 0.19046,-0.0731 0.93284,0.40562 1.64973,1.0638 1.27213,1.16793 1.9005,1.3272 2.61784,0.66351 0.39204,-0.36272 1.23585,0.0449 1.39353,0.67311 0.20433,0.814094 -0.0986,1.746891 -0.73005,2.247858 -0.45468,0.360743 -0.48297,0.545621 -0.24287,1.5875 0.42377,1.838912 0.33694,4.510532 -0.19944,6.13642 -0.4685,1.420117 -2.07771,3.813939 -2.36843,3.523221 -0.0786,-0.07861 -0.27506,0.122121 -0.43657,0.446063 -0.1615,0.323945 -1.0651,0.976948 -2.00799,1.451115 -2.01974,1.015707 -4.25909,1.297935 -6.09285,0.767887 z m -0.27201,-6.40652 c 0.67331,-0.566547 0.81243,-0.875334 0.80468,-1.785937 -0.009,-1.106368 -0.55149,-2.453645 -0.96138,-2.389428 -0.12093,0.01894 -0.50383,-0.07352 -0.8509,-0.205468 -0.45417,-0.172675 -0.80849,-0.123634 -1.26424,0.174985 -0.34827,0.228195 -0.77868,0.331333 -0.95648,0.229193 -0.17778,-0.102137 -0.2387,-0.09199 -0.13536,0.02254 0.10333,0.114541 10e-4,0.568778 -0.22642,1.009415 -1.30866,2.530681 1.42115,4.769741 3.5901,2.94469 z m 7.44376,-5.813411 c 0.8471,-0.901692 0.83407,-2.519566 -0.0277,-3.436855 -0.46105,-0.49076 -0.8821,-0.64809 -1.73446,-0.64809 -1.81119,0 -2.58894,1.260653 -1.95772,3.173268 0.55006,1.666708 2.55006,2.156872 3.71986,0.911677 z m -49.79094,-13.471365 c -1.63017,-0.59983 -3.15437,-1.77368 -3.70532,-2.85362 -0.48738,-0.95533 -0.49535,-1.07973 -0.10723,-1.67208 0.25713,-0.39243 0.69839,-0.65484 1.14082,-0.67842 1.31327,-0.07 2.57229,0.0862 2.66234,0.33033 0.0488,0.13233 0.17981,0.18431 0.29112,0.11552 0.37978,-0.23472 3.05236,1.57652 3.40169,2.30537 0.1916,0.39975 0.45352,0.72682 0.58206,0.72682 0.295,0 0.25071,1.08723 -0.0612,1.50206 -0.1423,0.18926 -0.59101,0.25353 -1.14381,0.16382 -0.58724,-0.0953 -0.90966,-0.0416 -0.90966,0.15159 0,0.39128 -0.94858,0.35098 -2.15082,-0.0914 z m 39.7878,-0.003 c -0.3335,-0.241 -0.59532,-0.71046 -0.59532,-1.06746 0,-1.30471 2.82097,-3.65741 4.80129,-4.00429 2.37863,-0.41665 3.24027,-0.0136 3.0464,1.42499 -0.12914,0.95829 -0.8858,2.00599 -1.27502,1.76545 -0.12968,-0.0802 -0.20306,2.5e-4 -0.16308,0.17866 0.04,0.17841 -0.49813,0.68392 -1.19583,1.12336 -1.55539,0.97963 -3.69339,1.2478 -4.61844,0.57929 z m -94.14904,63.60866 c 0.56367,-0.669885 0.69053,-1.103307 0.71633,-2.447396 0.0546,-2.842863 -0.23107,-5.546391 -0.64499,-6.104908 -0.19622,-0.264758 -0.90281,-0.480089 -1.8999,-0.57898 l -1.5875,-0.157448 -1.11352,1.148786 c -1.92447,1.985412 -2.3003,4.229341 -1.10722,6.610752 0.34437,0.687364 0.88016,1.161965 1.86683,1.653646 1.88889,0.941271 2.90135,0.907849 3.76997,-0.124452 z m 10.47456,-7.249038 c 5.30819,-0.563507 6.34908,-0.720183 6.21592,-0.935638 -0.0664,-0.107445 -0.78041,-0.250058 -1.58668,-0.316921 -1.57662,-0.130744 -2.54373,-0.800108 -3.58382,-2.480447 -0.75948,-1.227003 -1.31,-4.316029 -1.31,-7.350577 0,-2.762795 -0.18573,-3.34291 -1.07024,-3.34291 -0.55451,0 -1.16934,-0.704117 -1.5017,-1.719792 -0.30088,-0.919456 -0.3613,-0.922236 -3.42543,-0.15772 -1.18849,0.296537 -3.9817,0.842425 -6.20711,1.213083 -4.70914,0.784344 -5.72662,1.195697 -6.40816,2.590752 -0.60869,1.245952 -1.37989,5.911558 -1.13706,6.879066 0.11069,0.440994 0.61287,0.999889 1.29993,1.446712 0.61576,0.40046 1.15925,0.817404 1.20776,0.926544 0.16388,0.368747 0.80966,0.201615 1.78906,-0.46302 1.2062,-0.818547 2.35418,-0.842648 4.15911,-0.08731 1.5147,0.633881 3.58094,2.169181 3.81546,2.835055 0.53049,1.506207 1.49593,1.626296 7.74296,0.963126 z m -22.62187,-17.1729 c 3.40778,-0.760182 8.00087,-2.096333 9.27829,-2.699099 2.02463,-0.955344 3.16261,-2.132054 4.32906,-4.476368 1.8642,-3.746667 2.28278,-7.040684 1.43664,-11.305564 -0.23877,-1.203502 -0.71702,-2.753733 -1.06278,-3.444957 -0.34577,-0.691223 -0.55849,-1.25677 -0.47272,-1.25677 0.0858,0 -0.0908,-0.313714 -0.39241,-0.69714 -0.30161,-0.383427 -0.54837,-0.859677 -0.54837,-1.058334 0,-0.198657 -0.11907,-0.361193 -0.26459,-0.361193 -0.14552,0 -0.26458,-0.149952 -0.26458,-0.333229 0,-0.183277 -0.24275,-0.484828 -0.53943,-0.670113 -0.29669,-0.185285 -0.46774,-0.45289 -0.38011,-0.59468 0.0876,-0.14179 -0.0268,-0.329227 -0.25432,-0.416529 -0.2275,-0.0873 -0.41364,-0.328324 -0.41364,-0.535601 0,-0.20728 -0.19048,-0.449966 -0.42329,-0.539305 -0.39384,-0.151128 -1.04549,-0.68032 -2.36382,-1.91962 -0.71812,-0.67507 -3.13571,-1.58903 -4.66567,-1.76383 -0.67928,-0.0776 -1.92944,-0.007 -2.77812,0.15729 -0.84868,0.16412 -1.84071,0.35399 -2.20452,0.42195 -0.3638,0.0679 -0.84005,0.19912 -1.05833,0.29148 -0.21828,0.0924 -0.48231,0.17823 -0.58673,0.19079 -0.10443,0.0126 -0.42243,0.22199 -0.70668,0.46537 -0.65466,0.56054 -1.69452,1.14034 -1.92853,1.07531 -0.0986,-0.0274 -1.25524,0.65673 -2.57035,1.520285 -2.31949,1.523056 -4.79104,3.727053 -4.79104,4.272391 0,0.147357 -0.17001,0.437931 -0.3778,0.645721 -0.20779,0.207788 -0.6286,1.062488 -0.93514,1.89933 -0.30653,0.836843 -0.63412,1.700125 -0.72797,1.918406 -0.28236,0.656736 -0.33274,1.315025 -0.34967,4.568682 -0.009,1.71241 0.0755,3.260223 0.18756,3.439584 0.11207,0.179361 0.23346,0.445172 0.26977,0.590692 0.44428,1.781011 1.10939,3.621609 1.53542,4.249095 0.29052,0.427892 0.68039,1.126006 0.86637,1.55136 0.18598,0.425355 0.57336,0.938123 0.86085,1.139484 0.28748,0.201358 0.52269,0.541687 0.52269,0.756285 0,0.214595 0.20836,0.466058 0.46302,0.558802 0.25466,0.09274 0.87974,0.509868 1.38906,0.926939 0.50933,0.417073 1.08142,0.884042 1.27131,1.037709 0.89925,0.727678 6.09613,0.965205 8.65057,0.395377 z m -6.35,-7.010619 c -2.05629,-0.530677 -4.13811,-2.539404 -4.97871,-4.803902 -1.29653,-3.492756 0.40103,-7.805282 3.65579,-9.287237 2.13309,-0.971237 4.28549,-0.405444 6.3344,1.665092 0.73618,0.743958 1.31201,1.394809 1.27961,1.446334 -0.10385,0.165164 0.27642,1.01958 0.52955,1.189823 0.13456,0.0905 0.33816,1.016334 0.45244,2.057411 0.22891,2.085393 -0.078,3.925887 -0.74348,4.458777 -0.22717,0.181901 -0.30098,0.332552 -0.16403,0.334779 0.14202,0.0024 0.13533,0.08757 -0.0156,0.198438 -0.14552,0.106913 -0.3953,0.432512 -0.55507,0.723553 -0.79573,1.44956 -3.86034,2.516201 -5.79493,2.016932 z m 2.80514,-3.811495 c 1.11689,-0.750292 1.71933,-2.302861 1.45021,-3.737395 -0.1218,-0.649198 -0.3608,-1.053872 -0.67023,-1.13479 -0.28521,-0.07458 -0.43875,-0.304919 -0.37729,-0.565967 0.14612,-0.620597 -1.47701,-2.275578 -2.32921,-2.374911 -2.865,-0.333944 -4.57617,3.942942 -2.61683,6.540502 l 0.45747,0.606478 1.10054,-1.150927 c 0.60529,-0.63301 1.10182,-1.232116 1.10339,-1.331348 0.002,-0.09923 0.36004,-0.434761 0.7966,-0.74562 1.23825,-0.881711 0.99097,-0.07806 -0.52917,1.719792 -1.43526,1.697468 -1.56734,2.080296 -0.85989,2.492348 0.73817,0.429945 1.50816,0.330938 2.47441,-0.318162 z m 19.94902,8.422002 c 3.25566,-0.749424 3.49327,-0.870844 4.05125,-2.070208 1.26274,-2.714249 2.24188,-4.690697 3.20349,-6.466432 0.56864,-1.05006 1.41906,-2.657404 1.88983,-3.571875 0.47077,-0.914471 0.96079,-1.841267 1.08895,-2.059548 1.63963,-2.79282 3.1279405,-7.257513 3.1279405,-9.383337 0,-1.360762 -0.17705,-1.949563 -1.2153105,-4.04161 -0.96723,-1.94895 -1.63579,-2.86748 -3.27532,-4.49995 -1.13302,-1.12813 -2.25415,-2.20574 -2.49142,-2.39469 -0.90249,-0.71871 -3.89172,-1.64083 -5.3191,-1.64083 -3.18341,0 -11.34725,1.62548 -14.02489,2.79245 l -1.05833,0.46125 1.90406,0.47541 c 2.25358,0.56267 5.03645,1.95112 6.69774,3.3417 1.31529,1.10095 3.87092,3.777107 3.60699,3.777107 -0.0917,0 0.0814,0.285353 0.3846,0.634117 0.99639,1.145939 2.63982,5.284271 3.41182,8.591324 0.61584,2.638071 0.45341,6.128229 -0.4315,9.271772 -0.35529,1.262158 -2.00098,4.365244 -2.89124,5.451687 -1.46607,1.789149 -1.31198,1.942229 1.34044,1.331663 z m 15.6369605,-29.18722 c 0.64176,-0.42851 1.13472,-1.96752 1.60134,-4.99936 0.14432,-0.9377 0.17183,-0.92167 -2.42163,-1.4116 -1.90716,-0.36029 -3.7092005,-0.91048 -5.7423205,-1.75321 -1.25763,-0.52128 -1.63225,-0.57614 -2.24896,-0.32932 l -0.73997,0.29615 1.19063,0.53047 c 0.65484,0.29176 1.23031,0.63391 1.27881,0.76034 0.0485,0.12642 0.24823,0.22986 0.44382,0.22986 0.19559,0 0.59459,0.30379 0.88666,0.67509 0.29206,0.37131 0.59836,0.66896 0.68066,0.66146 0.0823,-0.008 0.23893,-0.0128 0.34807,-0.0118 0.10914,0.001 0.49609,0.44123 0.85989,0.97829 0.3638,0.53706 0.9888805,1.33669 1.3890605,1.77695 0.40019,0.44026 0.72761,0.93367 0.72761,1.09647 0,0.29552 1.07239,1.65935 1.32292,1.68244 0.0728,0.007 0.26329,-0.0753 0.42341,-0.18219 z m 9.1469,-19.54997 c 0.45134,-0.40846 0.66824,-1.14962 0.33643,-1.14962 -0.19502,0 -2.52173003,0.54113 -3.02758003,0.70413 -0.29838,0.0961 -0.23272,0.2193 0.26458,0.49625 0.8946,0.4982 1.84187003,0.47838 2.42657003,-0.0508 z m 87.1708895,-0.8667 c 0.85332,-0.572 2.02215,-1.5245 2.59738,-2.11667 0.57524,-0.59216 1.22016,-1.07667 1.43316,-1.07667 0.213,0 0.31734,-0.0699 0.23185,-0.15542 -0.0855,-0.0855 0.48002,-0.97786 1.25667,-1.98305 0.77665,-1.00519 1.68141,-2.42353 2.01057,-3.15186 0.32917,-0.72834 0.69093,-1.32425 0.80392,-1.32425 0.11298,0 0.28603,-0.44648 0.38453,-0.99219 0.0985,-0.5457 0.30769,-1.23031 0.46484,-1.52135 0.15714,-0.29104 0.3103,-0.82682 0.34034,-1.19063 0.03,-0.3638 0.16855,-1.62869 0.3078,-2.81086 0.28908,-2.45416 0.0333,-6.00572 -0.62872,-8.72873 -0.44584,-1.83392 -2.59068,-6.81144 -3.21667,-7.46489 -0.18513,-0.19325 -0.46411,-0.58962 -0.61996,-0.88083 -0.51254,-0.9577 -2.88403,-3.57398 -2.89222,-3.19076 -0.002,0.10429 -0.0915,0.0643 -0.19844,-0.0889 -0.20267,-0.29043 -2.16379,-1.54475 -2.50949,-1.60506 -0.10914,-0.0191 -0.25797,-0.0644 -0.33073,-0.10077 -0.0728,-0.0364 -0.25135,-0.0959 -0.39687,-0.13229 -0.14552,-0.0364 -0.29435,-0.0901 -0.33073,-0.11946 -0.17789,-0.14339 -1.34236,-0.29081 -3.51246,-0.44468 -2.99232,-0.21217 -6.0413,0.35752 -8.84415,1.65252 -2.00619,0.92691 -4.29184,2.28822 -5.05831,3.01266 -0.23095,0.21828 -0.7082,0.64128 -1.06056,0.94 -0.35237,0.29873 -1.26575,1.23106 -2.02973,2.07185 -0.76398,0.84079 -1.39661,1.37029 -1.40583,1.17666 -0.009,-0.19363 -0.12824,-0.0739 -0.26447,0.26599 -0.13623,0.33992 -0.58225,1.11383 -0.99116,1.71979 -1.94045,2.87557 -2.33949,3.5622 -2.68229,4.61543 -0.22345,0.6865 -0.27274,1.22442 -0.12518,1.36606 0.13388,0.12851 2.08888,1.28731 4.34445,2.57512 2.25557,1.28781 4.6956,2.79551 5.42229,3.35046 1.06368,0.81231 1.47199,0.97885 2.09457,0.85433 1.19673,-0.23935 2.54597,-1.42551 3.13426,-2.75544 0.45985,-1.03957 0.51162,-1.54913 0.37252,-3.66672 -0.097,-1.47626 -0.0619,-2.45936 0.0876,-2.45936 0.13705,0 0.18779,-0.16 0.11274,-0.35557 -0.2176,-0.56706 1.29848,-1.97227 2.97555,-2.75795 1.30163,-0.6098 1.89509,-0.72294 3.79209,-0.72294 2.01526,0 2.42767,0.0901 3.96875,0.8675 1.50257,0.75794 3.43958,2.19663 3.43958,2.55472 0,0.0673 0.29304,0.43859 0.6512,0.82505 2.63498,2.84319 3.32478,9.85389 1.41742,14.40585 -0.37522,0.89548 -0.38934,0.82834 -0.42777,-2.03452 -0.0824,-6.13658 -2.03162,-10.82278 -5.38134,-12.93737 -1.86219,-1.17554 -6.02649,-1.23999 -7.20287,-0.11147 -0.45485,0.43634 -0.46696,0.61418 -0.15918,2.33645 0.3928,2.19794 0.11077,3.64477 -1.10588,5.67328 -1.26423,2.10785 -1.01851,2.34179 0.6072,0.57811 0.97234,-1.05486 1.2268,-1.19404 2.05597,-1.12448 0.89238,0.0749 0.94387,0.1302 0.90379,0.97131 -0.0312,0.65572 -0.33061,1.18549 -1.13043,2.00046 -1.07432,1.09465 -1.14606,1.47323 -0.27919,1.47323 0.61911,0 1.28245,0.80526 1.48095,1.79779 0.14386,0.71931 0.0327,0.97175 -0.79061,1.79504 -0.52691,0.5269 -0.95801,1.07043 -0.95801,1.20783 0,0.13741 0.87807,1.52449 1.95126,3.0824 1.07318,1.55791 2.33471,3.51718 2.80338,4.35392 0.46867,0.83675 1.00578,1.52136 1.19359,1.52136 0.18781,0 1.03965,-0.468 1.89298,-1.04 z m -30.42209,-23.44537 c 0.0862,-0.22456 0.0908,-0.4742 0.0102,-0.55475 -0.28752,-0.28752 -5.82464,-0.60334 -6.24701,-0.35631 -0.32483,0.18998 -0.24072,0.24858 0.37498,0.26122 0.43656,0.009 1.74625,0.23991 2.91041,0.51321 2.66805,0.62635 2.76182,0.63069 2.95141,0.13663 z"
       id="path3929" /></g></svg>
