<?xml version="1.0" encoding="UTF-8" standalone="no"?>
<!-- Created with Inkscape (http://www.inkscape.org/) -->

<svg
   width="166.5598mm"
   height="230.25797mm"
   viewBox="0 0 166.55983 230.25795"
   version="1.1"
   id="svg5"
   xml:space="preserve"
   xmlns="http://www.w3.org/2000/svg"
   xmlns:svg="http://www.w3.org/2000/svg"><defs
     id="defs2" /><g
     id="layer1"
     transform="translate(0.83036159,55.64611)"><path
       style="fill:#000000;stroke-width:0.264583"
       d="m 56.865643,174.40201 c -3.70544,-0.64763 -7.601,-1.71133 -8.55387,-2.33567 -1.27248,-0.83376 -2.16175,-2.39826 -2.16175,-3.80319 0,-1.66926 0.49312,-2.81248 1.84645,-4.28067 1.02761,-1.11482 1.08823,-1.26856 1.01237,-2.56738 l -0.0807,-1.38156 -3.0427,-0.86656 c -1.67349,-0.47661 -3.89055,-1.17395 -4.92681,-1.54964 -1.03625,-0.37569 -2.01824,-0.68307 -2.1822,-0.68307 -0.16396,0 -0.91347,0.4421 -1.6656,0.98245 -1.15777,0.83177 -1.62366,0.99876 -3.03784,1.0888 -0.91869,0.0585 -2.09663,0.0264 -2.61765,-0.0713 -1.35225,-0.25369 -2.9109,-1.76212 -3.42731,-3.31689 -0.23454,-0.70615 -1.01023,-5.31238 -1.72375,-10.23607 -0.71352,-4.92368 -1.71556,-11.69059 -2.22675,-15.03757 -0.51119,-3.34697 -1.03958,-7.03791 -1.17419,-8.20208 -0.36872,-3.1887 -0.53242,-3.46724 -2.26582,-3.85515 -3.047,-0.68189 -6.62427,-3.16043 -8.83993,-6.12481 -2.2518204,-3.01274 -3.3816704,-6.06087 -3.6473004,-9.83975 -0.43851,-6.238265 2.1258504,-11.368895 7.0943304,-14.193997 1.37814,-0.783613 1.6608,-1.060939 1.62222,-1.591585 -0.0257,-0.353438 -0.0766,-1.446289 -0.11312,-2.428555 -0.0365,-0.982265 -0.16431,-1.785937 -0.284,-1.785937 -0.11969,0 -0.21762,-0.301059 -0.21762,-0.669017 0,-1.070756 -1.33405,-7.359975 -1.63916,-7.727609 -0.15274,-0.184041 -0.48297,-0.334624 -0.73383,-0.334624 -0.79473,0 -2.10548,-0.803568 -2.80349,-1.718701 -1.2012104,-1.574874 -0.86187,-3.991938 0.84808,-6.040662 0.34333,-0.411345 0.62424,-0.937596 0.62424,-1.16944 0,-0.231846 -0.80367,-1.207082 -1.78594,-2.167194 -2.4273204,-2.372569 -2.7332204,-2.760747 -2.8610004,-3.630538 -0.0607,-0.413375 -0.46866,-3.311432 -0.9065,-6.44013 -0.43784,-3.128698 -0.91172,-6.402916 -1.05306,-7.276041 -0.14134,-0.873125 -0.31467,-2.080154 -0.38518,-2.682285 -0.0705,-0.602131 -0.49782,-3.816818 -0.94957,-7.14375 -0.88544,-6.520759 -1.00062,-7.426412 -1.81253,-14.251048 -0.71192,-5.984104 -0.86681,-7.237025 -1.03037,-8.334374 -0.0759,-0.509323 -0.15108,-1.580885 -0.16704,-2.38125 -0.0159,-0.8003644 -0.13004,-1.6116271 -0.2535,-1.8028071 -0.2601,-0.4027593 -0.78090997,-6.8842225 -2.13802997,-26.6077849 -0.0936,-1.360998 -0.029,-1.633426 0.51743,-2.179836 0.48559,-0.485592 0.75894,-0.574701 1.22925,-0.400719 0.51581997,0.190809 4.12657997,4.927769 4.66792997,6.12385 0.0997,0.220226 2.03506,3.196788 4.30085,6.6145832 2.2657804,3.4177944 5.0312504,7.70946821 6.1454704,9.5370536 l 2.02587,3.3228781 0.68635,3.6885799 c 0.64602,3.4718492 1.61401,9.0431192 4.11162,23.6646182 2.87178,16.811891 3.94545,23.381788 3.94545,24.142545 0,0.509564 -0.49914,1.711912 -1.28518,3.095815 -1.84626,3.250496 -1.84668,3.10674 0.0135,4.610867 3.44547,2.785896 3.33327,5.369806 -0.34191,7.874436 l -0.63542,0.433039 0.88642,5.387795 c 0.48753,2.963285 0.94059,5.591582 1.00679,5.840655 0.0949,0.357029 0.41232,0.449379 1.49994,0.436388 3.53258,-0.0422 6.85211,1.848474 8.96179,5.104265 0.88422,1.364578 1.14845,1.49172 1.92305,0.925324 0.38189,-0.279249 0.45411,-0.569076 0.33094,-1.328084 -0.25746,-1.586574 0.44441,-3.428023 1.7241,-4.523393 0.60964,-0.521824 1.47017,-1.042506 1.91229,-1.157073 0.48779,-0.126397 0.8403,-0.4098 0.89652,-0.720754 0.051,-0.28185 0.27688,-0.907439 0.50205,-1.3902 l 0.40938,-0.877745 -1.18796,-1.238922 c -1.79282,-1.869733 -2.28051,-2.430404 -3.49413,-4.017044 -3.26157,-4.264025 -5.7869,-9.482648 -7.16813,-14.812964 -0.48411,-1.868231 -1.19158,-7.020176 -1.19158,-8.677285 0,-0.714227 -0.19227,-1.438937 -0.49583,-1.868906 -0.64657,-0.915813 -1.48126,-2.780196 -1.91357,-4.274177 -0.2116,-0.731258 -0.34919,-2.721853 -0.35663,-5.159375 -0.0133,-4.358015 0.38128,-6.139812 1.99594,-9.013261 0.90854,-1.616823 3.44599,-4.215518 4.78397,-4.899429 0.76338,-0.390202 1.08404,-0.794779 1.49864,-1.890824 0.2901,-0.766921 0.76116,-1.910339 1.04681,-2.540928 0.4771,-1.053246 0.48869,-1.246984 0.14242,-2.38125 -0.20732,-0.679098 -0.38411,-1.710973 -0.39288,-2.293056 -0.009,-0.582084 -0.13936,-1.210324 -0.29022,-1.39609 -0.43182,-0.531754 -0.0255,-3.964654 0.68276,-5.7676279 0.37633,-0.9580774 0.68276,-2.401054 0.75854,-3.5718749 0.0806,-1.2453381 0.3472,-2.4486577 0.72832,-3.2873233 0.33065,-0.7276042 0.76809,-2.25183959 0.97209,-3.38719039 0.74764,-4.16100401 3.84983,-8.61853931 8.30441,-11.93264151 0.80162,-0.596384 2.40288,-2.074855 3.55836,-3.285488 2.60624,-2.730645 4.81343,-4.398904 8.07104,-6.100336 3.97157,-2.074338 8.76446,-3.472468 11.90384,-3.472468 0.83253,0 1.47933,-0.16868 1.89495,-0.494191 1.13972,-0.89263 4.30215,-2.338652 6.08182,-2.780914 2.90308,-0.721439 6.01829,-1.007367 8.87752,-0.814816 2.49714,0.168167 2.70623,0.144396 2.96385,-0.336973 0.2227,-0.416121 0.0621,-0.949201 -0.81702,-2.712527 -1.01566,-2.037104 -1.0937,-2.348648 -1.08726,-4.340622 0.0116,-3.581312 1.17144,-5.756857 4.16855,-7.818918 0.97433,-0.670362 1.19636,-0.987018 1.35333,-1.930128 0.98834,-5.938152 5.903237,-8.949137 11.104787,-6.803059 l 1.58749,0.654978 0.9078,-1.014851 c 1.43677,-1.606195 2.7218,-2.155087 5.04533,-2.155087 2.29037,0 3.53282,0.521749 5.44943,2.288426 l 1.1635,1.072473 1.30665,-0.562103 c 1.43034,-0.615315 3.72615,-0.746139 4.96163,-0.282733 2.17437,0.815563 3.70539,2.547827 4.71418,5.333826 0.58087,1.604213 0.63835,1.666941 1.69218,1.846844 0.59998,0.102423 1.4225,0.382119 1.82781,0.621543 1.85546,1.096047 2.85889,4.229397 2.55907,7.991068 -0.23973,3.007918 0.0803,3.075805 2.57703,0.546623 2.09226,-2.119479 5.56134,-4.406031 7.05157,-4.647863 0.51227,-0.08313 1.35467,-0.439291 1.87199,-0.791464 2.49845,-1.700856 4.99025,-2.292382 6.32795,-1.502183 1.13784,0.672137 1.63363,2.116675 1.80345,5.254466 0.22737,4.201367 -1.0013,9.812615 -2.40342,10.976271 -0.30885,0.256321 -0.34371,0.465892 -0.14064,0.845339 0.7282,1.360646 -3.00678,6.61607 -6.46529,9.0972 -0.64985,0.466203 -0.7054,0.61306 -0.46684,1.234252 0.59414,1.547087 -0.60167,3.588945 -3.00055,5.123489 l -1.33561,0.854377 -0.0399,1.6856072 -0.0399,1.685607 1.40867,1.3997997 c 2.65319,2.6364934 4.51281,6.594345 4.81218,10.2418669 0.10085,1.2287461 0.31035,2.0301795 0.62248,2.3812498 0.51984,0.5847054 1.27618,1.9987815 2.07054,3.8711874 1.15715,2.72752 1.32506,7.207146 0.37535,10.013775 -0.34138,1.008872 -0.35129,1.448255 -0.0667,2.956681 0.3062,1.622835 0.25299,3.158104 -0.16049,4.629965 -0.14195,0.505291 0.0127,0.619749 1.37165,1.014788 5.12814,1.490792 8.54965,5.066837 9.90017,10.347338 1.30687,5.109792 0.0353,11.273879 -3.12007,15.124942 l -0.92376,1.12743 -0.0553,3.238195 c -0.0668,3.911502 -0.58875,5.490496 -2.53815,7.677676 -2.29432,2.574163 -5.73418,3.403637 -8.45052,2.03772 -1.33494,-0.671282 -3.37488,-2.725086 -3.6084,-3.63293 -0.26412,-1.026813 -0.72652,-0.659894 -1.66725,1.322981 -1.21159,2.553766 -3.16502,5.715065 -5.00015,8.091883 -0.82398,1.067213 -1.82851,2.368878 -2.23227,2.892592 l -0.73412,0.952204 0.89054,0.943869 c 0.4898,0.519126 1.08668,1.375714 1.32641,1.903526 0.3251,0.715772 0.7917,1.133753 1.83601,1.64469 2.6439,1.293534 3.89757,3.249945 3.89757,6.08232 0,1.812695 0.002,1.817712 1.40807,3.443502 6.23247,7.206665 11.37522,16.867994 15.16175,28.483364 2.7649,8.48148 4.7224,18.49117 5.04748,25.81032 0.1317,2.96503 0.0873,3.59234 -0.31437,4.43873 -0.95197,2.00613 -4.26122,4.17416 -9.2964,6.09047 -4.03331,1.53501 -11.85562,3.34494 -14.46595,3.34713 -1.26547,0.001 -2.30308,-0.93973 -2.30308,-2.08818 0,-0.43459 -0.10433,-0.85464 -0.23184,-0.93344 -0.12751,-0.0788 -1.06203,0.13909 -2.07673,0.4842 -1.01469,0.34512 -3.40462,0.96447 -5.31096,1.37633 l -3.46607,0.74883 -0.16864,0.99817 c -0.17954,1.0627 0.35249,2.2449 1.46226,3.24923 0.70682,0.63966 1.42786,3.12743 1.21497,4.19192 -0.25739,1.28693 -1.38182,2.68671 -2.74492,3.41706 -1.53523,0.82259 -3.81598,1.39608 -7.75278,1.94943 -6.17006,0.86725 -15.50577,-0.13372 -18.49612,-1.98313 -1.915347,-1.18457 -3.221137,-3.49112 -3.710467,-6.55419 -0.15565,-0.97434 -0.37861,-1.94239 -0.49547,-2.15121 -0.17804,-0.31814 -1.80668,-0.38579 -10.0494,-0.41744 l -9.83691,-0.0378 -0.23167,0.92604 c -0.12742,0.50932 -0.37837,1.75948 -0.55768,2.77812 -0.56466,3.20794 -1.58677,4.58949 -4.32039,5.83977 -2.3452,1.07264 -6.08247,1.72848 -10.48551,1.84008 -2.11005,0.0535 -4.43177,-0.007 -5.15938,-0.13398 z m 7.98879,-2.50156 c 4.14873,-0.25004 7.84753,-1.5551 8.88197,-3.13385 0.52958,-0.80825 1.69549,-6.72459 1.96967,-9.99501 l 0.14965,-1.785 -1.06609,-0.67299 c -0.58634,-0.37014 -1.3251,-1.03676 -1.64169,-1.48137 -0.7318,-1.02771 -1.04452,-1.00859 -1.8625,0.11384 -0.3818,0.5239 -1.20521,1.14452 -1.94754,1.46789 -1.61001,0.70134 -2.42,0.43752 -3.28383,-1.06956 -0.38755,-0.67614 -0.85762,-1.11079 -1.32291,-1.22322 -0.76952,-0.18594 -2.02822,-1.42953 -2.44257,-2.41325 -0.24222,-0.57507 -0.30092,-0.54469 -1.66137,0.85989 -1.18075,1.21906 -1.55855,1.45451 -2.32134,1.44666 -1.26569,-0.013 -2.14241,-0.56402 -2.76315,-1.73655 -0.35448,-0.66957 -0.7853,-1.06716 -1.30503,-1.20434 -0.42672,-0.11263 -1.02854,-0.52168 -1.33737,-0.909 -0.5181,-0.64975 -0.59475,-0.671 -0.99103,-0.27472 -0.23622,0.23622 -0.51257,1.09441 -0.61411,1.90708 -0.28835,2.30789 0.0101,10.1733 0.41864,11.03301 0.32196,0.67752 0.29866,0.77113 -0.29185,1.17251 -0.35296,0.23991 -1.14777,0.94857 -1.76623,1.5748 -0.99209,1.00456 -1.12448,1.28067 -1.12448,2.34525 0,0.92834 0.14978,1.35642 0.64943,1.85606 0.88015,0.88015 1.20265,0.81662 1.20265,-0.23691 0,-0.96603 1.33333,-3.0824 1.94194,-3.0824 0.62558,0 0.68324,0.30888 0.16209,0.86827 -0.64901,0.69663 -0.93004,2.16628 -0.56672,2.96369 0.28384,0.62294 1.6373,1.12554 2.1604,0.80224 0.14908,-0.0921 0.27149,-0.42838 0.27203,-0.74721 0.002,-0.88061 0.95968,-2.2649 1.69556,-2.44959 0.99093,-0.24871 1.34195,0.10923 0.67467,0.68797 -0.75869,0.658 -0.99737,2.39502 -0.39749,2.89287 0.48745,0.40455 3.31632,0.74935 5.17002,0.63016 0.65485,-0.0421 2.1662,-0.13536 3.35858,-0.20722 z m 54.933117,-0.17537 c 0.39071,-0.17802 0.7289,-0.51292 0.75153,-0.74422 0.0968,-0.98898 -0.11389,-1.78098 -0.61688,-2.31919 -0.75282,-0.80555 -0.4001,-1.25182 0.58627,-0.74175 0.88555,0.45794 1.57696,1.62502 1.57696,2.66187 0,0.66613 0.0577,0.69985 0.94965,0.55511 0.52231,-0.0848 1.10997,-0.28716 1.30591,-0.44978 0.60205,-0.49965 0.73373,-1.7662 0.27851,-2.67871 -0.51257,-1.02746 -0.52296,-1.28456 -0.0519,-1.28456 0.64695,0 1.7512,1.74066 1.7512,2.76047 0,1.10365 0.14043,1.14629 1.14016,0.34624 0.59761,-0.47825 0.74632,-0.81482 0.75878,-1.71734 0.0181,-1.3134 -0.45271,-2.1422 -2.10316,-3.70219 -1.04731,-0.98991 -1.14424,-1.17409 -0.82226,-1.56232 0.28219,-0.34025 0.36502,-1.58652 0.36502,-5.49238 0,-6.53481 -0.0463,-6.73964 -1.76635,-7.80886 -1.38966,-0.86386 -1.79118,-0.80408 -1.80148,0.26819 -0.005,0.54346 -0.7486,1.20985 -1.59155,1.42673 -0.42573,0.10953 -0.83154,0.53555 -1.13871,1.19541 -0.34566,0.74255 -0.72589,1.1073 -1.37899,1.32284 -1.19569,0.39461 -2.33942,-0.14339 -3.93801,-1.85241 -1.23211,-1.31723 -1.47779,-1.32789 -1.85983,-0.0807 -0.29134,0.9511 -1.62098,2.19628 -2.34526,2.19628 -0.45867,0 -0.70841,0.18092 -0.82179,0.59531 -0.64686,2.36434 -3.41381,2.46926 -5.50121,0.20862 -0.54265,-0.58768 -1.04925,-1.06851 -1.12579,-1.06851 -0.0765,0 -0.46774,0.50601 -0.86936,1.12448 -0.40162,0.61846 -0.90933,1.25953 -1.12823,1.42459 -1.554787,1.17234 -1.592187,1.23824 -1.330897,2.34572 0.13733,0.58208 0.50402,2.42755 0.81488,4.10104 0.831547,4.47671 1.450547,6.2342 2.455997,6.97318 1.37659,1.01176 4.14577,1.83677 7.64919,2.2789 2.51672,0.3176 8.89401,0.13418 9.80763,-0.2821 z m 25.60075,-14.12072 c 6.63005,-1.18398 14.54686,-4.24866 17.03254,-6.59349 l 0.87296,-0.82348 -0.10677,-2.64583 c -0.19245,-4.76917 -1.26296,-11.74894 -2.7771,-18.10672 -1.08597,-4.55989 -3.43442,-11.55212 -5.39168,-16.05302 -2.88427,-6.63264 -5.36305,-11.14762 -8.1776,-14.895109 -1.02782,-1.368504 -1.98782,-2.663693 -2.13334,-2.878196 -1.02073,-1.504587 -3.04271,-2.764649 -3.04271,-1.896154 0,0.36032 -1.64116,1.044831 -2.50504,1.044831 -0.36848,0 -0.66996,0.07976 -0.66996,0.177255 0,0.09749 0.74414,0.972323 1.65364,1.944071 1.95062,2.084107 2.6577,2.900471 3.89577,4.497892 0.50556,0.65229 0.98219,1.24552 1.05916,1.31828 0.64434,0.60906 4.04466,7.06177 5.11147,9.69991 0.84551,2.09089 2.21987,7.65719 2.43926,9.87925 0.107,1.08373 0.0214,2.63467 -0.23135,4.19343 -0.2773,1.70988 -0.32201,2.68179 -0.14482,3.14783 0.14098,0.37081 0.34611,1.78951 0.45584,3.15265 0.18784,2.33348 0.0705,2.99984 -0.52818,2.99984 -0.26454,0 -1.27538,-1.97145 -1.27538,-2.48738 0,-0.82171 -0.57119,-0.67701 -1.75946,0.4457 l -1.23166,1.16371 0.34399,3.28326 c 0.59661,5.69434 -0.24664,9.67133 -1.31222,6.18884 -0.22345,-0.73026 -0.66559,-1.76433 -0.98254,-2.29795 -0.47515,-0.79996 -0.72104,-0.96609 -1.40136,-0.94674 -0.45381,0.0129 -0.96244,-0.11388 -1.1303,-0.28174 -0.4366,-0.43661 -0.67543,-0.37706 -0.63298,0.15782 0.0284,0.35834 -0.15325,0.45468 -0.80362,0.42614 -0.58701,-0.0258 -0.80093,0.0659 -0.70957,0.30396 0.0719,0.18747 0.003,0.41977 -0.15295,0.51622 -0.29327,0.18126 -0.24858,1.65375 0.24527,8.08025 0.13978,1.81901 0.2742,4.20026 0.29871,5.29166 0.0546,2.4302 0.13751,2.67441 0.85576,2.52009 0.31225,-0.0671 1.58855,-0.30427 2.83622,-0.52708 z m -58.126947,-1.72842 c 0.16553,0 0.45533,0.24717 0.64399,0.54927 0.44253,0.7086 1.02686,0.28407 1.24783,-0.90659 0.0851,-0.45832 0.19816,-1.07143 0.25134,-1.36248 0.0532,-0.29104 0.10639,-0.76729 0.11825,-1.05833 0.0188,-0.46222 0.10206,-0.42875 0.65798,0.26458 0.35004,0.43657 0.71953,0.7114 0.82109,0.61076 0.27366,-0.27119 0.18936,-2.72354 -0.262,-7.62221 -0.22124,-2.4011 -0.40273,-4.52563 -0.40332,-4.72119 -8e-4,-0.27815 -0.30347,-0.31155 -1.39014,-0.15344 -0.76398,0.11117 -2.18639,0.18298 -3.16091,0.15959 -0.97451,-0.0234 -1.84316,0.0729 -1.93032,0.21389 -0.0872,0.14103 -0.0756,2.69057 0.0257,5.66563 0.16236,4.76704 0.23744,5.42313 0.6325,5.52644 0.3203,0.0838 0.49542,0.51537 0.61345,1.51194 0.0909,0.76709 0.37545,1.62705 0.63245,1.91103 0.46276,0.51135 0.47081,0.511 0.83419,-0.0363 0.20181,-0.30394 0.50236,-0.55261 0.66788,-0.55261 z m -52.54729,0.38187 c 0.64784,-0.45376 0.79681,-1.65477 0.27054,-2.18104 -0.38271,-0.38271 -3.33769,-0.42362 -4.29548,-0.0595 -0.88794,0.3376 -0.85828,0.92599 0.0947,1.87899 0.64238,0.64238 0.99097,0.7734 2.05779,0.7734 0.73426,0 1.53627,-0.17642 1.87243,-0.41188 z m 44.90805,-0.48054 c 0.31804,-0.48539 0.807,-2.51367 0.93296,-3.87008 0.007,-0.0728 0.37853,0.28442 0.82616,0.79375 l 0.81388,0.92604 -0.16317,-3.67986 c -0.0897,-2.02392 -0.16317,-4.84363 -0.16317,-6.26602 0,-2.45269 -0.0307,-2.59538 -0.59531,-2.76462 -0.88486,-0.26524 -3.05992,-1.65685 -4.5954,-2.94015 -0.74484,-0.6225 -1.42944,-1.05663 -1.52135,-0.96472 -0.0919,0.0919 -0.16566,1.36765 -0.16389,2.83499 0.002,1.46733 -0.13656,4.95132 -0.3074,7.7422 -0.29049,4.7456 -0.27974,5.12145 0.16591,5.8016 l 0.47653,0.72727 0.58897,-1.15447 c 0.55777,-1.09333 0.60486,-1.12476 0.8892,-0.59347 0.16513,0.30855 0.3014,0.71766 0.30282,0.90912 0.005,0.72505 1.3103,3.12625 1.69894,3.12625 0.22162,0 0.58806,-0.28252 0.81432,-0.62783 z m 16.22587,-0.36436 c 0.15679,-0.40018 0.48418,-1.35751 0.72752,-2.12739 0.24334,-0.76988 0.56816,-1.35789 0.72181,-1.30667 0.15365,0.0512 0.47606,0.68112 0.71648,1.39979 0.24872,0.7435 0.59832,1.30667 0.81115,1.30667 0.44615,0 0.99968,-1.49316 1.02056,-2.75299 0.0142,-0.85575 0.0392,-0.87896 0.498787,-0.46302 0.82035,0.74241 1.10371,0.53199 1.10274,-0.81889 -0.002,-3.06386 -1.36402,-14.5262 -1.890437,-15.91169 -0.27624,-0.72704 -0.202,-0.77548 -1.52117,0.9926 -1.14057,1.5287 -2.48029,2.7649 -4.40188,4.06174 -0.81204,0.54803 -1.29888,1.06504 -1.27484,1.35384 0.0214,0.25698 0.17961,2.33668 0.3516,4.62157 0.44015,5.84733 1.5284,10.37205 2.49462,10.37205 0.19689,0 0.48627,-0.32742 0.64306,-0.72761 z m -26.16906,-2.32502 c 0.3015,-0.80583 0.55655,-1.66903 0.56678,-1.91823 0.0102,-0.24921 0.10721,-0.67894 0.21553,-0.95497 0.17246,-0.43953 0.26878,-0.38008 0.77536,0.47851 1.14462,1.93998 1.29445,1.11962 1.63867,-8.97247 0.23026,-6.75126 0.21354,-7.70859 -0.13928,-7.96987 -0.30524,-0.22606 -4.52437,-0.70365 -5.88082,-0.66569 -0.47024,0.0131 -2.0302,9.74106 -2.34117,14.59952 -0.14881,2.32492 -0.10545,2.93024 0.26055,3.63803 0.24149,0.46697 0.49394,0.84905 0.56101,0.84905 0.0671,0 0.30946,-0.44649 0.53862,-0.99219 0.46216,-1.10049 0.70131,-0.93369 1.04318,0.72761 0.34379,1.67061 0.93393,2.64583 1.6011,2.64583 0.5003,0 0.71257,-0.268 1.16047,-1.46513 z m 37.495277,0.22503 c 0.22418,-0.53654 0.47288,-1.6081 0.55268,-2.38125 0.0798,-0.77316 0.23618,-1.40573 0.34751,-1.40573 0.11134,0 0.51642,0.53578 0.90018,1.19062 0.38376,0.65484 0.8062,1.19063 0.93875,1.19063 0.78869,0 1.29036,-5.44781 0.80729,-8.76659 -0.40904,-2.81017 -2.092,-9.52375 -2.48922,-9.92986 -0.21093,-0.21564 -0.7372,-0.24217 -1.75637,-0.0886 -0.80037,0.12064 -2.27082,0.29972 -3.26767,0.39795 -1.78413,0.1758 -1.81048,0.18959 -1.68576,0.8823 0.58121,3.22806 1.52796,10.03909 1.7712,12.74225 0.34689,3.85491 0.45417,4.32149 0.94996,4.13124 0.25263,-0.0969 0.45743,0.20402 0.66216,0.97306 0.57269,2.15117 1.61151,2.63821 2.26929,1.06393 z m -68.717737,-6.49896 c 0.35,-7.50214 1.30293,-17.17684 2.13044,-21.62969 0.7125,-3.83392 1.32979,-7.66856 1.32979,-8.2607 0,-0.41428 -0.13953,-0.46863 -0.8599,-0.3349 -1.49189,0.27695 -3.64643,0.32938 -3.79295,0.0923 -0.0775,-0.12538 -0.55481,-0.22796 -1.06071,-0.22796 -0.836,0 -0.96562,0.10681 -1.42218,1.17192 -1.00756,2.35055 -1.85993,5.50004 -1.85262,6.84538 0.008,1.41145 0.4556,4.33274 2.36112,15.39832 0.60141,3.4925 1.33324,7.89782 1.62629,9.78959 0.29305,1.89177 0.58191,3.58841 0.64191,3.77031 0.38668,1.17223 0.61334,-0.49578 0.89881,-6.61458 z m -5.46946,5.32678 c 0.98227,-0.17111 1.78594,-0.44474 1.78594,-0.60807 0,-0.16333 -0.36703,-2.43783 -0.81563,-5.05445 -0.44859,-2.61662 -0.97601,-5.82905 -1.17204,-7.13874 -0.52826,-3.52933 -0.84872,-5.54952 -1.30107,-8.20209 -0.22334,-1.30968 -0.52778,-3.15515 -0.67654,-4.10104 -0.69627,-4.42741 -1.65731,-9.41464 -1.8537,-9.61954 -0.11957,-0.12476 -1.17238,0.11142 -2.33956,0.52485 -1.70684,0.60458 -2.14483,0.87028 -2.238,1.35763 -0.0637,0.33327 -0.0127,0.66966 0.11327,0.74753 0.12601,0.0779 0.23129,0.70012 0.23398,1.38275 0.003,0.68264 0.20024,2.25319 0.43904,3.49012 0.23879,1.23692 0.46291,2.7252 0.49805,3.30729 0.0351,0.58208 0.25264,1.96806 0.48334,3.07995 0.23069,1.11189 0.48418,2.77085 0.5633,3.68658 0.0791,0.91573 0.25834,1.80289 0.39825,1.97148 0.13991,0.16858 0.19776,0.36313 0.12856,0.43233 -0.0692,0.0692 0.0429,0.95122 0.24916,1.96004 0.20624,1.00881 0.45295,2.42951 0.54823,3.15712 0.0953,0.7276 0.28107,2.09682 0.41286,3.04271 0.13179,0.94588 0.31358,2.73182 0.40397,3.96875 0.18691,2.55767 0.59647,3.30442 1.6838,3.07006 0.36787,-0.0793 1.47252,-0.28416 2.45479,-0.45526 z m 26.20506,-1.22574 c 0.3373,-0.54571 0.76029,-1.49821 0.93999,-2.11667 0.17969,-0.61846 0.4293,-1.12448 0.55469,-1.12448 0.12539,0 0.47119,0.38413 0.76846,0.85363 0.68056,1.07487 0.66594,1.12089 1.35251,-4.25742 0.30401,-2.38141 0.85506,-5.88033 1.22456,-7.77536 0.3695,-1.89504 0.57505,-3.52693 0.45677,-3.62643 -0.35754,-0.30076 -5.28672,-1.15969 -5.71407,-0.9957 -0.48063,0.18443 -1.37592,2.86228 -2.84497,8.50943 -1.19914,4.6096 -1.54684,7.49145 -1.05533,8.74706 0.30105,0.76905 0.32217,0.77729 0.6788,0.26458 0.93654,-1.34638 1.02635,-1.36154 1.22353,-0.20652 0.24061,1.40946 0.92242,2.72007 1.41504,2.72007 0.21271,0 0.66273,-0.44649 1.00002,-0.99219 z m 58.369267,0.13229 c 0.12391,-0.32742 0.31245,-1.34976 0.41896,-2.27187 l 0.19367,-1.67655 0.45765,0.75051 c 0.25171,0.41278 0.66461,0.92145 0.91757,1.13038 0.39966,0.33009 0.49267,0.33009 0.70994,0 0.13752,-0.20893 0.18155,-0.7723 0.0979,-1.25194 -0.1173,-0.6722 -0.0297,-0.9754 0.38228,-1.32291 0.51041,-0.43056 0.51812,-0.53419 0.17134,-2.30293 -0.41136,-2.09814 -2.16143,-7.46999 -3.37712,-10.36613 -0.75636,-1.80188 -0.86907,-1.937 -1.61568,-1.937 -1.06165,0 -5.28606,0.78727 -5.54489,1.03336 -0.11173,0.10623 0.093,1.10027 0.45489,2.20898 0.90488,2.77204 2.1756,7.88648 2.51417,10.11912 0.43274,2.85366 0.51596,3.10908 0.9578,2.93953 0.38878,-0.14919 0.82495,0.6054 0.99535,1.72198 0.0939,0.61494 1.20885,1.82078 1.68361,1.82078 0.19652,0 0.45869,-0.26789 0.5826,-0.59531 z m -67.045687,-4.36268 c 0.29105,-0.76237 0.61288,-1.38745 0.71519,-1.38907 0.10232,-0.002 0.39681,0.44124 0.65442,0.98413 l 0.4684,0.98707 0.31743,-1.05322 c 0.17459,-0.57926 0.32659,-1.27373 0.33777,-1.54326 0.0296,-0.71421 1.98681,-7.84766 2.9131,-10.61758 0.43707,-1.30701 0.70483,-2.46623 0.59502,-2.57605 -0.20727,-0.20726 -4.12449,-1.26528 -4.6846,-1.26528 -0.39872,0 -1.18864,1.78768 -3.40051,7.69581 -1.81155,4.83881 -2.50629,7.24918 -2.18271,7.57277 0.10424,0.10424 0.43156,0.0384 0.72739,-0.14639 0.67711,-0.42286 1.29015,0.005 1.29015,0.90028 0,1.18451 0.48465,2.01233 1.1249,1.9214 0.44407,-0.0631 0.72904,-0.4359 1.12405,-1.47061 z m 75.904107,1.11504 c 0.22186,-0.22185 0.48417,-1.11749 0.58292,-1.9903 0.0987,-0.87281 0.26967,-1.64263 0.37984,-1.71071 0.11016,-0.0681 0.51726,0.29176 0.90466,0.79966 0.76647,1.0049 1.37867,1.18964 1.52581,0.46045 0.20055,-0.99384 -0.4002,-4.00962 -1.2513,-6.28161 -1.69419,-4.52257 -2.40393,-5.84828 -3.48975,-6.51841 -0.55117,-0.34016 -1.43391,-1.00805 -1.96165,-1.48421 l -0.95953,-0.86573 -1.75245,0.45963 c -1.9648,0.51533 -2.05622,0.69074 -1.21499,2.33126 0.92365,1.80127 2.81596,7.01688 3.54813,9.77938 0.94433,3.56296 0.92125,3.50357 1.19138,3.06648 0.16991,-0.27491 0.2632,-0.22668 0.40093,0.20728 0.16227,0.51128 1.38393,2.1502 1.60276,2.1502 0.0494,0 0.27139,-0.18152 0.49324,-0.40337 z m -79.868797,-8.84 c 0.0896,-0.35443 0.86952,-2.4464 1.7331,-4.64884 1.58999,-4.05507 1.83757,-5.02072 1.23941,-4.83414 -0.98526,0.30733 -4.17391,8.31723 -4.16131,10.45323 l 0.006,0.99708 0.50997,-0.66146 c 0.28049,-0.3638 0.58332,-0.95144 0.67294,-1.30587 z m 85.059477,0.65434 c 0,-1.67044 -1.62733,-4.64014 -2.5427,-4.64014 -0.32389,0 1.22424,4.24971 1.80723,4.96094 0.42795,0.52208 0.73547,0.38795 0.73547,-0.3208 z m -41.661307,-0.55285 c 3.32052,-0.86466 6.17851,-3.32638 7.67546,-6.61121 1.16904,-2.56528 1.34702,-4.02021 0.7952,-6.50053 -0.69041,-3.10324 -2.07301,-5.38795 -4.26598,-7.04941 -1.00869,-0.76421 -1.95305,-1.48465 -2.09857,-1.60097 -0.6723,-0.53739 -3.83091,-1.17111 -5.66056,-1.13568 -2.40157,0.0465 -3.87552,0.39295 -6.10565,1.43515 -4.09609,1.91422 -6.81847,6.50666 -6.58027,11.1004 0.22962,4.4282 3.85166,8.73239 8.63566,10.26202 1.9042,0.60885 5.47094,0.65586 7.60471,0.10023 z m -5.90135,-3.00778 c -2.21394,-0.56515 -5.12507,-3.28805 -5.74415,-5.37274 -0.48443,-1.63125 -0.52056,-3.85395 -0.0862,-5.30367 0.41857,-1.39704 2.59969,-3.75256 4.28855,-4.63144 1.17515,-0.61155 1.66819,-0.70233 3.86073,-0.71085 2.3012,-0.009 2.63325,0.0565 3.9305,0.77507 1.44776,0.8019 3.194,2.55696 3.95768,3.97766 0.29932,0.55684 0.42958,1.50449 0.43643,3.175 0.009,2.15119 -0.0656,2.51722 -0.7698,3.78853 -0.95116,1.71704 -2.17395,2.82566 -4.07825,3.69748 -1.55954,0.71398 -4.26292,0.99617 -5.79547,0.60496 z m 5.36678,-1.94256 c 1.74965,-0.88853 2.6954,-1.80474 3.31965,-3.21597 0.66211,-1.4968 0.96206,-3.58011 0.55196,-3.83356 -0.16684,-0.10312 -0.34624,-0.55585 -0.39866,-1.00607 -0.10816,-0.92898 -0.90316,-2.32471 -1.80795,-3.17413 -1.88597,-1.77053 -5.67503,-2.23289 -8.0469,-0.98192 -1.68114,0.88667 -2.60948,1.783 -3.23759,3.12595 -0.74428,1.59135 -0.92171,3.10544 -0.56517,4.82288 0.26559,1.27937 0.52856,1.72715 1.70537,2.90396 2.31102,2.31102 5.57447,2.83401 8.47929,1.35886 z m -4.8338,-3.67514 c -0.98142,-0.68292 -1.12448,-0.90778 -1.12448,-1.76743 0,-1.39058 0.91895,-2.67741 1.91823,-2.68616 0.58819,-0.005 0.49418,0.42431 -0.26459,1.20862 -0.82274,0.85046 -0.78336,2.04059 0.0903,2.72779 0.61006,0.47987 0.77755,0.50176 1.52033,0.19867 0.4591,-0.18733 0.842,-0.51067 0.85089,-0.71851 0.009,-0.20785 0.1078,-0.57697 0.21983,-0.82026 0.28017,-0.60843 -0.25788,-1.51393 -1.08685,-1.82911 -0.48584,-0.18471 -0.60575,-0.34446 -0.40742,-0.54278 0.45588,-0.45589 1.32361,-0.006 1.95348,1.01342 0.53193,0.86067 0.55752,1.06067 0.2722,2.12742 -0.39118,1.4626 -0.71843,1.7793 -1.89138,1.83043 -0.6423,0.028 -1.27058,-0.19938 -2.05052,-0.7421 z m 49.837407,3.33041 c 1.50265,-0.37685 1.76219,-0.37626 2.88988,0.007 0.74066,0.25146 1.62647,0.35978 2.20245,0.26932 1.04898,-0.16476 3.21244,-1.18169 3.21244,-1.51002 0,-0.11218 0.481,-0.20396 1.06888,-0.20396 1.84015,0 3.69598,-1.28069 4.79254,-3.30729 0.81937,-1.51432 1.09674,-3.62274 0.94496,-7.18302 -0.19447,-4.56182 -1.09129,-7.81844 -3.43189,-12.46229 -0.45842,-0.90951 -0.91535,-1.65365 -1.01541,-1.65365 -0.10006,0 -0.52295,0.17786 -0.93977,0.39525 -0.41682,0.21738 -0.90668,0.39597 -1.08858,0.39687 -0.55679,0.003 -0.36823,-0.68984 0.33073,-1.21473 0.85442,-0.64165 0.83785,-1.43611 -0.0529,-2.53365 -0.39288,-0.48411 -0.75548,-0.93522 -0.80578,-1.00247 -0.0503,-0.0673 -0.33351,0.0289 -0.62933,0.21363 -0.40949,0.25573 -0.62598,0.26277 -0.90704,0.0295 -0.31079,-0.25793 -0.31326,-0.41725 -0.0156,-1.00737 0.53456,-1.05972 0.73312,-0.76822 -3.51167,-5.155383 -2.10325,-2.173814 -2.27637,-2.292485 -3.3443,-2.292485 -1.37547,0 -4.74664,0.696666 -10.1803,2.103803 -11.38858,2.949255 -19.03187,4.395185 -24.793977,4.690415 l -3.23044,0.16553 -0.91688,1.38092 c -2.0854,3.14083 -5.97152,5.15308 -9.95182,5.15308 -0.71293,0 -2.22856,-0.29452 -3.36806,-0.65449 -2.47316,-0.78127 -4.43262,-2.30839 -5.99335,-4.67096 -0.76514,-1.15822 -1.18359,-1.55371 -1.64391,-1.55371 -0.83543,0 -7.35148,-1.4066 -10.29427,-2.222198 -3.53132,-0.978704 -12.42435,-3.979735 -18.65312,-6.294659 -1.0485,-0.389673 -2.15771,-0.550672 -3.96875,-0.576051 l -2.51354,-0.03522 0.0789,1.497832 c 0.12164,2.308056 -0.8193,2.405002 -1.54906,0.159599 -1.03908,-3.19715 -3.79834,-6.605986 -6.18,-7.634874 -1.85861,-0.802926 -4.69061,-0.847685 -5.97593,-0.09445 -1.9693,1.15408 -3.10044,4.996399 -2.0764,7.053219 1.84539,3.706524 6.15561,3.708432 7.5283,0.0033 0.57395,-1.549207 0.60571,-1.587979 0.90844,-1.109292 0.83162,1.314977 -0.17821,4.333142 -1.8114,5.413941 l -1.04886,0.6941 0.99778,1.506213 c 1.32613,2.00186 1.68875,3.76279 1.31375,6.37963 -0.22636,1.5795 -0.21134,2.28688 0.0707,3.32866 0.20367,0.75243 0.49583,1.29439 0.6775,1.25677 0.43225,-0.0895 0.4016,0.33036 -0.0941,1.28892 -0.57315,1.10836 -0.15156,1.55535 1.46698,1.55535 1.08537,0 1.41434,-0.14178 2.4556,-1.05833 1.43046,-1.25914 1.88671,-1.36664 1.50162,-0.35379 -0.44946,1.18217 -0.0542,1.26928 3.50861,0.77311 3.80226,-0.52953 8.31573,-1.40643 8.9294,-1.73486 0.23593,-0.12626 0.70082,-1.16184 1.03309,-2.30129 2.34705,-8.04861 3.53569,-6.46752 1.75726,2.33745 -0.52664,2.60739 -0.92033,5.06323 -0.87486,5.45744 0.0747,0.64747 0.2555,0.75991 1.87126,1.16353 2.2015,0.54995 6.42461,1.09906 14.27171,1.85569 6.48253,0.62505 7.12498,0.56601 7.52053,-0.6912 0.22478,-0.71445 2.29489,-2.65771 3.74316,-3.51378 2.33722,-1.38152 4.58193,-1.95226 7.68943,-1.95508 3.20147,-0.003 4.47225,0.31298 7.09607,1.76399 1.53061,0.84645 3.70462,2.74417 5.06762,4.4236 0.68975,0.84988 -0.14362,0.85926 9.708307,-0.10925 5.61453,-0.55194 13.16267,-1.69889 13.94857,-2.11949 0.82259,-0.44024 0.74051,-0.76934 -2.29666,-9.20814 -0.7002,-1.94549 -0.73031,-3.25903 -0.0717,-3.12857 0.45479,0.0901 0.73036,0.50285 2.27425,3.4064 1.53946,2.89521 2.60843,5.82208 2.84679,7.7946 0.14393,1.19105 0.0627,1.52765 -0.70204,2.91042 -0.47563,0.85998 -0.94324,1.62313 -1.03913,1.69589 -0.0959,0.0728 -0.31993,0.94014 -0.49786,1.9275 -0.2907,1.61306 -0.27324,1.90838 0.17207,2.91042 0.62273,1.40128 1.74223,2.73868 2.71246,3.2404 0.90177,0.46633 0.98038,0.36017 1.20434,-1.62636 0.19161,-1.69962 0.77112,-3.12068 1.17167,-2.87312 0.13933,0.0861 0.25332,1.16925 0.25332,2.40699 0,3.14558 0.64389,4.61347 2.48754,5.67092 1.57434,0.90299 1.6023,0.9057 3.75977,0.36463 z m -28.6046,-3.42149 c 3.22133,-0.28481 10.06873,-1.43536 12.7,-2.13394 l 1.5875,-0.42147 v -2.74443 c 0,-1.84277 0.10866,-2.85309 0.33073,-3.07516 0.1819,-0.1819 0.33073,-0.54731 0.33073,-0.81202 0,-0.36132 -0.14839,-0.44882 -0.59532,-0.35102 -1.83567,0.40167 -10.07084,1.3852 -15.51305,1.85273 -2.38393,0.2048 -4.44878,0.48673 -4.58857,0.62652 -0.162497,0.1625 -0.140367,0.4668 0.0614,0.84373 0.43422,0.81133 1.00665,4.54854 0.87697,5.72534 l -0.10635,0.9651 2.06113,-0.2026 c 1.13362,-0.11143 2.41832,-0.23418 2.85488,-0.27278 z m -34.514557,0.0652 c 0.007,-0.0364 0.0782,-0.95911 0.15725,-2.05052 0.079,-1.09141 0.37388,-2.67502 0.65522,-3.51914 0.28135,-0.84412 0.45185,-1.63133 0.37891,-1.74936 -0.0729,-0.11803 -1.4157,-0.29793 -2.98389,-0.39979 -3.49589,-0.22706 -7.56506,-0.73339 -13.3023,-1.65522 -2.4011,-0.3858 -4.7805,-0.71154 -5.28755,-0.72387 l -0.92193,-0.0224 -0.22448,1.5875 c -0.25606,1.8108 -0.0424,4.09163 0.44576,4.75928 0.75173,1.02806 11.1728,3.13256 17.62986,3.5603 1.67349,0.11086 3.13201,0.21907 3.24115,0.24047 0.10914,0.0214 0.20454,0.009 0.212,-0.0272 z m -38.99844,-12.76803 c 0.30832,-0.66475 0.0658,-1.10323 -0.43804,-0.79186 -0.30548,0.18879 -0.36318,1.45623 -0.0661,1.45314 0.10915,-0.001 0.33603,-0.29871 0.50419,-0.66128 z m -5.09207,-2.23235 c 1.05376,-0.65126 1.84945,-2.07355 1.84945,-3.30587 0,-1.84762 -0.64132,-2.14841 -2.52824,-1.18577 -0.67451,0.34411 -1.31808,0.49001 -1.71831,0.38956 -0.85955,-0.21573 -0.57987,-0.66029 1.20786,-1.91994 1.85151,-1.30459 2.40369,-2.35593 2.40369,-4.57663 0,-1.413 -0.12213,-1.90837 -0.66883,-2.71291 -0.8198,-1.20645 -1.52534,-1.40954 -3.05113,-0.87826 -1.30455,0.45423 -2.3196,0.52165 -2.84427,0.18891 -0.38896,-0.24668 0.0572,-0.60166 2.00016,-1.591361 1.31567,-0.670174 1.38908,-0.9174 0.39467,-1.329298 -1.68422,-0.697627 -3.2036,-2.687487 -4.13652,-5.417407 -0.13946,-0.408057 -0.34491,-0.468257 -1.15734,-0.339117 -1.42585,0.22665 -1.82271,-0.09156 -1.39675,-1.119936 0.67008,-1.617715 -0.10968,-2.047526 -1.79011,-0.986718 -3.01856,1.905534 -5.08832,5.493927 -5.53557,9.597187 -0.22305,2.0463 1.10748,7.0523 2.35584,8.86368 0.26621,0.38627 0.48401,0.81537 0.48401,0.95357 0,0.45247 3.43498,3.7151 4.67877,4.44402 2.34817,1.37611 3.71196,1.73059 6.21455,1.61526 1.77582,-0.0818 2.50764,-0.23754 3.23807,-0.68897 z m 61.58667,-8.85977 c 3.61312,-1.50966 6.07482,-5.35154 5.66474,-8.840719 -0.20312,-1.728235 -0.54563,-2.422562 -1.19505,-2.422562 -0.65345,0 -0.83972,0.570899 -0.53405,1.636739 0.45677,1.59263 0.28506,2.763139 -0.69046,4.706942 -1.45661,2.90238 -3.81987,4.3594 -6.82364,4.20698 -1.41672,-0.0719 -3.34256,-0.67355 -3.66764,-1.14584 -0.38496,-0.55925 0.30299,-0.74703 1.50445,-0.41064 2.71725,0.76078 6.07909,-0.29679 7.40057,-2.32808 1.18299,-1.8184 1.13536,-5.465808 -0.0799,-6.116178 -0.72541,-0.388228 -10.2947,-0.454009 -10.67532,-0.07339 -0.34511,0.345104 -0.97449,2.487218 -0.99346,3.381224 -0.006,0.30276 0.28549,1.136194 0.64868,1.852084 0.71003,1.39954 0.80053,1.84657 0.42128,2.08096 -0.13271,0.082 -0.56321,-0.41697 -0.95668,-1.10886 -0.82376,-1.44853 -1.19356,-4.351068 -0.67727,-5.315778 0.38845,-0.725816 -0.0406,-1.630752 -0.77311,-1.630752 -0.65729,0 -1.30403,1.238753 -1.49688,2.867076 -0.25061,2.115974 1.18326,5.636984 2.80706,6.892994 1.36741,1.05771 3.15039,1.91175 4.51316,2.16181 1.56728,0.28758 4.45881,0.0842 5.60348,-0.39402 z M 108.3271,98.341887 c 4.98308,-0.960258 7.8795,-1.609545 13.22917,-2.965564 6.84432,-1.734883 7.49169,-1.877391 11.24479,-2.475325 4.53022,-0.721744 7.52443,-1.551228 8.26823,-2.290538 0.72038,-0.716044 0.75221,-1.700022 0.10133,-3.132793 -0.59061,-1.300083 -1.7779,-2.229273 -3.88544,-3.040803 -1.45362,-0.559732 -1.59199,-0.679948 -1.50046,-1.303602 0.11337,-0.772438 -0.79859,-2.134413 -1.42917,-2.134413 -0.21531,0 -1.308,0.841886 -2.42819,1.870861 -1.1202,1.028973 -2.2375,2.053847 -2.48289,2.277502 -0.49419,0.450405 -9.65468,5.112054 -10.04558,5.112054 -0.13526,0 -1.04465,0.369586 -2.02084,0.821303 -2.84261,1.315358 -3.20399,1.448176 -6.40512,2.354003 -1.67349,0.473549 -3.49884,1.091266 -4.05633,1.372701 -0.65938,0.33287 -1.27211,0.45493 -1.75324,0.349255 -0.494,-0.108497 -1.0496,0.01167 -1.67302,0.361807 -0.51336,0.288341 -0.99581,0.461833 -1.0721,0.385541 -0.0763,-0.0763 -0.50501,-0.05826 -0.9527,0.04006 -0.65167,0.143134 -0.79382,0.293232 -0.7129,0.752782 0.14512,0.824137 -0.27261,1.764628 -0.783787,1.764628 -0.37499,0 -0.38636,0.06198 -0.0792,0.432048 0.483127,0.582142 3.617887,0.377241 8.437467,-0.55151 z M 72.891083,98.042611 c 0.30003,-0.361511 0.15078,-0.594987 -1.09208,-1.708338 -0.79178,-0.709279 -1.6182,-1.298792 -1.83648,-1.310031 -0.21828,-0.01125 -0.87313,-0.250476 -1.45521,-0.531643 -0.58208,-0.281168 -1.19258,-0.515252 -1.35667,-0.52019 -0.16408,-0.0049 -0.43373,-0.172129 -0.59923,-0.371541 -0.16549,-0.199408 -0.78709,-0.427775 -1.38132,-0.507478 -0.59423,-0.0797 -1.35155,-0.39963 -1.68293,-0.710946 -0.34883,-0.327708 -0.86704,-0.533554 -1.23077,-0.488892 -0.70772,0.0869 -4.04241,-1.557375 -8.50726,-4.194789 -3.38215,-1.997858 -4.7391,-2.984762 -5.89727,-4.289081 -0.88301,-0.994433 -1.43726,-0.945602 -1.43726,0.126627 0,0.386861 -0.18919,0.718236 -0.46302,0.810991 -3.09855,1.049594 -4.29668,2.227495 -4.29849,4.225924 -10e-4,1.365893 0.34601,1.661269 2.44614,2.080718 0.90965,0.181681 3.55891,1.014283 5.88725,1.850226 4.49583,1.614143 5.88011,2.066361 12.17083,3.976012 6.51087,1.97648 9.97201,2.480289 10.73377,1.562431 z m 21.06796,-5.422294 c 8.036047,-0.67551 13.879877,-1.842354 20.718057,-4.136794 6.21994,-2.087002 10.20532,-4.207616 14.2832,-7.600066 1.23456,-1.027052 2.39027,-1.833928 2.56825,-1.793055 0.17798,0.04087 0.49967,-0.257151 0.71487,-0.662268 0.21521,-0.405117 1.20262,-1.572239 2.19425,-2.593602 2.30016,-2.369126 3.59945,-3.983902 4.32393,-5.373854 0.31635,-0.606922 0.68517,-1.103495 0.8196,-1.103495 0.13442,0 0.36822,-0.325633 0.51954,-0.72363 0.58428,-1.536782 1.10208,-2.44095 1.32056,-2.305923 0.12528,0.07743 0.298,-0.191513 0.38382,-0.597646 0.0858,-0.406135 0.26639,-0.94276 0.40128,-1.192506 0.2587,-0.478954 0.7272,-2.181347 0.96725,-3.514669 0.0786,-0.436563 0.32143,-0.997675 0.53964,-1.246915 0.21821,-0.249243 0.33028,-0.626343 0.24906,-0.838002 -0.0812,-0.211656 0.0265,-0.451686 0.23949,-0.5334 0.21294,-0.08171 0.62169,-0.695695 0.90833,-1.364406 0.56038,-1.307322 1.14757,-1.486807 1.68545,-0.515194 0.16111,0.291042 0.37479,0.591122 0.47482,0.666843 0.39285,0.297368 0.6904,1.505307 0.46033,1.868784 -0.37483,0.592172 -0.28422,3.455119 0.15631,4.938521 0.97495,3.283014 4.95067,4.269044 7.65151,1.897674 0.47521,-0.41724 1.20367,-1.505966 1.61881,-2.419387 0.62993,-1.38603 0.7718,-2.098463 0.85759,-4.306601 0.0868,-2.235065 0.0137,-2.882665 -0.47144,-4.171315 -0.69132,-1.836531 -1.66154,-3.050461 -2.82737,-3.537577 -1.11308,-0.465077 -1.71505,-0.455867 -2.35153,0.03598 -0.45662,0.352851 -0.46847,0.433562 -0.10682,0.727604 0.81576,0.663263 1.94494,2.991917 2.08484,4.299479 0.27315,2.553108 0.11448,5.535853 -0.34141,6.417437 -1.21455,2.348688 -3.33388,1.529199 -3.66847,-1.4185 -0.0678,-0.597564 -0.20762,-1.222864 -0.31064,-1.389557 -0.11416,-0.184722 0.10286,-0.413401 0.55573,-0.585584 1.29765,-0.493363 1.67005,-1.017733 1.67005,-2.351545 0,-1.335193 -1.09449,-3.432492 -2.06129,-3.949909 -0.86785,-0.464455 -2.2741,-0.42014 -3.15358,0.09938 -0.69481,0.410435 -0.90574,0.43574 -1.25007,0.149969 -0.22782,-0.189077 -0.41423,-0.560295 -0.41423,-0.824931 0,-0.264634 -0.11386,-0.551524 -0.25302,-0.637535 -0.36963,-0.228444 -0.0421,-0.931709 0.9586,-2.058424 1.3385,-1.506998 1.24451,-2.621489 -0.34406,-4.079954 l -1.22599,-1.125577 0.18399,-1.386991 c 0.22694,-1.710748 1.68077,-3.996833 3.19403,-5.022461 1.55166,-1.05166 3.98841,-1.605116 5.66613,-1.286941 1.53275,0.290679 2.41505,0.721947 3.70078,1.808935 0.57783,0.488513 0.82657,0.880303 0.69453,1.093952 -0.11314,0.18307 -0.28013,0.230849 -0.37108,0.106172 -0.26164,-0.358656 -1.88707,-0.932569 -3.47433,-1.22673 -2.8122,-0.521174 -4.87774,0.20258 -6.34032,2.221613 -1.01171,1.396624 -1.06243,2.507464 -0.1338,2.930575 0.36738,0.167389 0.91731,0.707798 1.22207,1.20091 0.71505,1.156985 0.5932,3.310889 -0.25467,4.50162 -0.31736,0.445691 -0.57702,0.940795 -0.57702,1.100233 0,0.524169 0.96049,0.303249 2.02073,-0.464786 0.57298,-0.415067 1.49603,-0.904584 2.05121,-1.087808 1.81091,-0.597656 4.50436,0.241766 5.58535,1.740691 1.32281,1.834238 1.62655,2.085507 2.02626,1.676205 0.7176,-0.734822 1.56142,-2.328916 2.09798,-3.963363 0.75982,-2.314528 0.75319,-6.88235 -0.0132,-9.099068 -1.08814,-3.147333 -3.18054,-5.550728 -6.05816,-6.958618 -1.25828,-0.61562 -1.82245,-0.725906 -3.73622,-0.730385 -2.69714,-0.0063 -4.47904,0.525359 -6.60941,1.972058 -1.99539,1.355045 -3.94735,3.774234 -4.34389,5.383652 -0.22678,0.92039 -0.85737,0.792122 -0.74377,-0.151286 0.0587,-0.487866 -0.0648,-0.728245 -0.43456,-0.845609 -0.82992,-0.263403 -1.09336,-1.136496 -2.01871,-6.690346 -0.19962,-1.198086 -0.50037,-2.594742 -0.66833,-3.103679 -0.16797,-0.508939 -0.23902,-1.03274 -0.15789,-1.164 0.0811,-0.131262 -0.0764,-0.52324 -0.34996,-0.871061 -0.27359,-0.347821 -0.68768,-1.273016 -0.9202,-2.05599 -0.23252,-0.782973 -0.66189,-1.828879 -0.95416,-2.324237 -0.29228,-0.495356 -0.5314,-1.03114 -0.5314,-1.19063 0,-0.614646 -1.5945,-3.620111 -3.12881,-5.897478 -2.46521,-3.659081 -2.39701,-3.59551 -3.9327,-3.666059 -1.72111,-0.07906 -2.72923,-0.764918 -4.44883,-3.0266634 -1.56768,-2.0619164 -3.26184,-3.0270502 -6.35117,-3.6181346 -1.09762,-0.2100104 -2.10684,-0.4505404 -2.24271,-0.5345086 -0.13587,-0.083971 -0.85852,0.047334 -1.6059,0.2917904 -1.08206,0.3539226 -1.90916,0.4107947 -4.06024,0.2791804 -2.45686,-0.1503256 -2.79586,-0.1131094 -3.7452,0.4111546 -0.82543,0.4558347 -1.48667,0.5772387 -3.16048,0.5802576 -1.17252,0.00212 -2.374047,-0.1393057 -2.693687,-0.3170502 -0.49758,-0.2766959 -0.82539,-0.1898835 -2.38125,0.6306053 l -1.80423,0.9514734 -2.77813,-0.1368637 c -2.05873,-0.1014254 -3.16837,-0.029419 -4.28517,0.2780665 -1.94966,0.5367998 -4.06563,0.1644279 -5.74335,-1.0107268 -0.89756,-0.6286897 -1.32272,-0.7732448 -1.85209,-0.6297163 -1.74131,0.4721225 -4.11873,0.4305644 -5.34078,-0.093358 -1.12772,-0.483481 -1.31598,-0.4931145 -2.64584,-0.1353793 -2.54474,0.6845405 -6.0077,-0.2009908 -7.17016,-1.8335148 l -0.56412,-0.7922339 -2.27268,0.1407848 c -4.3993,0.2725208 -9.58385,3.0818903 -13.22463,7.1660672 -0.52487,0.5887824 -1.16298,1.2849494 -1.41803,1.5470344 -1.54956,1.592279 -4.9159,7.222878 -6.82025,11.407676 -4.29933,9.447731 -6.00364,16.16955 -6.26774,24.720017 l -0.14097,4.564063 h 1.91336 c 4.03706,0 7.90127,1.600673 11.47961,4.755197 1.41924,1.251156 4.32005,4.904295 5.26126,6.625777 2.74851,5.027083 3.93734,11.75312 3.0109,17.034687 -0.28518,1.625806 -0.42008,1.893525 -1.23574,2.452423 -0.83129,0.569608 -0.94461,0.587734 -1.23045,0.196815 -0.25372,-0.34698 -0.17778,-0.720362 0.39118,-1.923256 0.6655,-1.406988 0.70457,-1.705348 0.68062,-5.196853 -0.022,-3.204855 -0.12072,-4.0216 -0.73242,-6.059061 -2.89532,-9.643832 -9.25155,-15.628707 -16.92189,-15.933269 -2.31763,-0.09202 -2.34316,-0.0862 -2.18642,0.498568 0.0872,0.325424 0.16021,0.735296 0.1622,0.910825 0.003,0.222039 0.63373,0.31776 2.07459,0.314593 3.26388,-0.0072 6.13045,1.25999 9.15504,4.046966 3.05167,2.811914 5.1295,6.385318 5.93982,10.21513 0.65254,3.084113 0.27703,7.552484 -0.84939,10.10729 -0.61145,1.386787 -0.4451,1.844256 1.02572,2.820825 0.7639,0.507204 1.54997,0.946878 1.74681,0.977051 0.19684,0.03017 0.61653,0.278098 0.93265,0.550945 1.25418,1.082505 6.55101,3.621008 9.97583,4.780906 4.79076,1.622515 11.53176,3.046212 16.04003,3.387649 2.84645,0.215579 10.03296,0.159742 13.14861,-0.102159 z m 17.807637,-8.303945 c -1.98038,-0.361055 -2.91041,-0.790043 -2.91041,-1.342456 0,-0.461311 0.70434,-0.523504 0.85371,-0.07538 0.0598,0.179557 0.30115,0.236553 0.56799,0.13416 0.58255,-0.223547 0.31203,-0.710928 -0.3946,-0.710928 -0.29104,0 -0.45558,-0.119062 -0.36565,-0.264583 0.28022,-0.453403 1.12633,-0.292275 2.1644,0.412181 0.66433,0.450826 1.17615,0.618122 1.5331,0.501113 0.29471,-0.09661 2.21122,-0.266523 4.25892,-0.377592 2.04769,-0.11107 3.9668,-0.332383 4.26469,-0.491805 0.29788,-0.159425 0.6137,-0.217768 0.70182,-0.129651 0.0881,0.08811 1.03608,-0.499026 2.1066,-1.304759 1.76728,-1.330163 1.98992,-1.60338 2.41951,-2.969164 0.53182,-1.690791 0.42146,-1.937322 -0.91634,-2.047002 -0.7651,-0.06273 -0.92619,0.01458 -0.94523,0.453554 -0.0588,1.356082 -0.47516,2.306066 -1.13917,2.599282 -0.37948,0.167574 -0.80902,0.454692 -0.95455,0.638038 -0.14552,0.183348 -0.62177,0.355221 -1.05833,0.381944 -0.43656,0.02672 -0.9254,0.146378 -1.08631,0.265904 -0.42186,0.313357 -1.94286,0.451834 -2.10373,0.191529 -0.075,-0.12143 -0.51909,0.01251 -0.98675,0.297667 -1.22351,0.746009 -1.47476,0.725882 -5.80257,-0.464838 -0.96928,-0.266679 -1.44598,-0.520896 -1.32697,-0.70765 0.10215,-0.160303 0.18755,-0.397547 0.18978,-0.527206 0.002,-0.129662 0.20529,-0.362683 0.45124,-0.517826 0.3394,-0.214091 0.72204,-0.145746 1.5875,0.283546 1.61897,0.803052 2.5307,0.98549 2.99583,0.599466 0.53745,-0.446045 0.49607,-0.717582 -0.21318,-1.398844 -1.51056,-1.450956 -2.54865,-3.092535 -3.21284,-5.080595 -0.61755,-1.848482 -0.68483,-2.36809 -0.53102,-4.101042 0.10055,-1.132953 0.48318,-2.779035 0.89178,-3.836458 0.78092,-2.020982 2.83503,-4.984427 3.26903,-4.716197 0.14929,0.09226 0.19844,0.04964 0.10922,-0.09472 -0.33444,-0.541128 3.90572,-3.788042 4.94682,-3.788042 0.19828,0 0.49264,-0.159218 0.65414,-0.353816 0.561,-0.675963 3.25242,-1.101392 6.96782,-1.101392 2.54706,0 3.72313,0.09833 3.95552,0.330729 0.1819,0.181901 0.54326,0.330729 0.80301,0.330729 0.50617,0 3.12611,1.515846 3.12598,1.808631 -1.6e-4,0.363331 -1.78468,0.13511 -3.5718,-0.456792 -2.65318,-0.878748 -7.1782,-0.894348 -9.80037,-0.03379 -1.80289,0.591683 -4.56809,2.091338 -5.44238,2.951573 -0.24214,0.238241 -0.60904,0.535897 -0.81534,0.661458 -0.2063,0.125561 -0.64812,0.677937 -0.98181,1.227497 -0.3337,0.549564 -0.74389,1.144876 -0.91154,1.322917 -0.57776,0.613587 -1.19212,2.248067 -1.65548,4.404328 -0.44613,2.076093 -0.44535,2.238015 0.0195,4.067855 0.61406,2.417244 1.00445,3.184093 2.35646,4.62884 1.52785,1.63264 3.07176,2.490078 4.29789,2.386904 1.01232,-0.08518 1.62242,-0.744424 0.68894,-0.744424 -0.5866,0 -2.27058,-1.078383 -3.02367,-1.936284 -1.30671,-1.48858 -2.70391,-5.441603 -1.86395,-5.273611 0.1819,0.03638 0.33073,-0.184716 0.33073,-0.491329 0,-0.369408 -0.12509,-0.509471 -0.3708,-0.415184 -0.80424,0.308613 -0.64894,-1.927357 0.28082,-4.043299 0.87909,-2.000612 1.28227,-2.656959 1.63212,-2.656959 0.19991,0 1.19936,-0.773906 2.221,-1.719791 1.02165,-0.945886 2.02583,-1.719792 2.23151,-1.719792 0.20569,0 0.63768,-0.167799 0.95998,-0.372888 0.3223,-0.205089 1.31298,-0.555416 2.2015,-0.778502 1.41915,-0.356314 1.83349,-0.360005 3.40902,-0.03036 0.98644,0.206389 1.87472,0.32507 1.97396,0.263734 0.0992,-0.06133 0.7083,0.238681 1.35348,0.666703 0.64517,0.428019 1.31452,0.778724 1.48744,0.779348 0.77881,0.0028 2.66697,2.368646 2.32806,2.917018 -0.25982,0.420397 -0.47364,0.315011 -1.6217,-0.799298 -1.4673,-1.424165 -3.78794,-2.26133 -6.89182,-2.486205 -2.21344,-0.160361 -2.5456,-0.120652 -3.70416,0.442831 -2.00645,0.97586 -3.47018,1.983525 -3.9541,2.722078 -0.33808,0.515961 -0.59428,0.643183 -1.05991,0.526317 -0.56115,-0.140838 -0.59258,-0.0976 -0.36471,0.501727 0.13714,0.360717 0.15268,0.715594 0.0345,0.788619 -0.11815,0.07303 -0.47929,0.970738 -0.80253,1.994919 -0.64181,2.033587 -0.59325,3.767193 0.17067,6.093126 0.83457,2.541029 3.65881,4.505269 5.47548,3.808151 0.71884,-0.275844 0.46104,-0.798187 -0.63867,-1.294091 -1.87885,-0.84724 -3.17615,-3.041417 -3.17615,-5.37193 0,-2.819498 1.93504,-5.511985 5.02708,-6.994877 1.45532,-0.697944 2.02719,-0.825034 3.71867,-0.826423 1.74587,-0.0013 2.23146,0.113369 3.83646,0.906994 1.3053,0.645438 1.86079,1.071319 1.91771,1.470271 0.0482,0.338 -0.0985,0.630203 -0.36859,0.733833 -0.57545,0.220818 -0.87187,-0.06111 -0.38235,-0.363649 0.30808,-0.190402 0.31257,-0.301879 0.0261,-0.64707 -0.19037,-0.229373 -0.5469,-0.417042 -0.79232,-0.417042 -0.24541,0 -0.67731,-0.174807 -0.95979,-0.388461 -0.59729,-0.451768 -1.17504,-0.520951 -1.17504,-0.140705 0,0.145521 0.21163,0.264583 0.47029,0.264583 0.60443,0 1.69792,0.760881 1.51615,1.054984 -0.0765,0.123764 -0.51632,0.03683 -0.9774,-0.193188 -1.28078,-0.63894 -4.28181,-0.538123 -5.8443,0.196334 -4.43124,2.082929 -5.51214,7.974231 -1.77246,9.66059 0.98343,0.443466 1.10991,0.448728 1.49635,0.06229 0.38644,-0.386442 0.33795,-0.499231 -0.57362,-1.334344 -1.08503,-0.994023 -1.29629,-1.980414 -0.59425,-2.774703 0.22083,-0.249839 0.38709,-0.861902 0.36949,-1.360139 -0.0366,-1.036137 0.25925,-1.231585 1.00835,-0.666093 0.43994,0.332102 0.47132,0.476551 0.19844,0.913495 -0.44517,0.712829 -0.41077,2.097055 0.0566,2.27639 0.20939,0.08035 0.45517,0.485105 0.54617,0.899456 0.091,0.414351 0.33153,0.891186 0.5345,1.059633 0.52618,0.436686 1.97821,0.07229 1.97821,-0.496438 0,-0.589709 -0.73449,-1.625349 -1.15271,-1.625349 -0.95694,0 -1.08,-1.431036 -0.14848,-1.726686 1.24366,-0.394724 3.59881,1.859277 4.41351,4.223956 0.54774,1.589823 0.71899,3.478339 0.33682,3.714528 -0.47574,0.294028 -0.82765,-0.197033 -0.98572,-1.37549 -0.13115,-0.977799 -0.20086,-1.050861 -1.03255,-1.08213 -1.02989,-0.03872 -1.43004,0.478348 -1.43235,1.850824 -0.003,1.698652 -0.49118,2.767999 -1.72611,3.779938 -0.65397,0.535874 -1.12056,1.085104 -1.03687,1.220515 0.0837,0.135408 -0.0637,0.316637 -0.32763,0.40273 -0.26388,0.08609 -1.19423,0.494811 -2.06744,0.908262 -1.92871,0.913222 -3.27494,1.224558 -6.21756,1.43791 -1.23692,0.08968 -2.60614,0.200818 -3.04271,0.24697 -0.43656,0.04615 -1.56765,-0.05719 -2.51354,-0.229638 z m -34.263537,-5.56815 c -2.75501,-0.753952 -3.86688,-1.190257 -3.70416,-1.453539 0.0724,-0.117171 -0.21616,-0.334288 -0.64128,-0.482484 -0.42511,-0.148195 -0.90541,-0.516982 -1.06733,-0.819523 -0.16191,-0.302543 -0.4526,-0.550076 -0.64597,-0.550076 -0.66748,0 -3.06938,-4.27477 -3.06938,-5.462717 0,-0.284276 -0.11809,-0.634958 -0.26243,-0.779293 -0.46158,-0.461582 -0.63912,-4.672547 -0.24551,-5.822947 0.38938,-1.138 0.42668,-1.27644 0.47487,-1.762226 0.0355,-0.357865 0.85844,-1.292386 1.96553,-2.232004 1.06364,-0.902747 3.13449,-1.119888 11.429,-1.198395 l 7.67291,-0.07263 1.19882,0.718783 c 0.65935,0.39533 1.51562,1.050174 1.90282,1.455208 0.94308,0.986518 2.22956,4.091168 2.45585,5.92668 0.17504,1.419799 -0.17874,4.038071 -0.67296,4.980429 -0.11902,0.226957 -0.48752,1.006766 -0.81887,1.732912 -0.80995,1.774974 -1.62108,3.020531 -1.9759,3.034163 -0.16031,0.0062 -0.63707,0.338621 -1.05946,0.738804 -1.22969,1.165045 -1.98637,1.560179 -4.15071,2.167495 -2.62169,0.735648 -5.8221,0.692431 -8.78584,-0.118644 z m 6.61459,-0.924372 c 0.0899,-0.145521 0.42438,-0.264645 0.74322,-0.264716 0.88024,-2.04e-4 3.14274,-0.930952 4.51615,-1.857854 2.4381,-1.645454 3.80104,-4.283495 4.09154,-7.919415 0.16211,-2.028849 0.11786,-2.537198 -0.2977,-3.420142 -0.27978,-0.59446 -0.73496,-1.103294 -1.06649,-1.192202 -2.24604,-0.602342 -5.93877,0.412425 -7.79659,2.142506 -1.51149,1.40757 -2.01441,1.524971 -1.36935,0.31967 0.86414,-1.614662 -2.66313,-0.221168 -4.8393,1.911829 -1.83749,1.801031 -2.61083,3.494426 -2.65317,5.809654 -0.0272,1.484781 0.0653,1.868519 0.6157,2.556303 0.868,1.084602 2.42459,1.651887 5.21218,1.899534 1.27305,0.113099 2.39691,0.222234 2.49746,0.242525 0.10055,0.02029 0.25641,-0.08217 0.34635,-0.227692 z M 54.427893,57.20911 c -1.56016,-0.53286 -1.73789,-0.655981 -3.84904,-2.66651 -0.83923,-0.799219 -1.47134,-1.5952 -1.40471,-1.768843 0.0666,-0.173646 -5.3e-4,-0.356264 -0.14916,-0.405821 -0.33235,-0.110783 -1.20208,-2.591429 -1.43503,-4.092976 -0.25327,-1.632583 0.37496,-4.746168 1.32498,-6.566734 0.92623,-1.774952 1.61834,-2.54314 3.3367,-3.703423 0.64594,-0.436152 1.24494,-0.889034 1.33112,-1.006403 0.32883,-0.447831 3.09069,-0.949545 4.7381,-0.860716 0.94589,0.051 1.74956,0.119729 1.78594,0.152731 0.0364,0.033 0.15544,0.08459 0.26458,0.114644 1.32007,0.363516 1.62749,0.486838 1.57868,0.633282 -0.0315,0.09458 0.0332,0.199322 0.14389,0.232754 1.2335,0.372637 3.10608,2.085782 3.10608,2.841625 0,0.191545 0.15881,0.409207 0.35291,0.48369 0.1941,0.07449 0.78941,1.018839 1.32292,2.098567 0.87548,1.771837 0.96895,2.167479 0.95921,4.060068 -0.0254,4.932431 -3.11116,9.349901 -7.38388,10.570426 -1.71295,0.489318 -4.40202,0.437367 -6.02329,-0.116361 z m 6.44528,-11.154031 c 0.67633,-0.327406 1.36989,-0.939715 1.72322,-1.521354 0.32523,-0.535379 0.68364,-1.037958 0.79648,-1.116843 0.33244,-0.232413 -0.18191,-2.798697 -0.72326,-3.608613 -0.2742,-0.410231 -0.50164,-0.850614 -0.50542,-0.978627 -0.004,-0.128013 -0.60219,-0.406434 -1.3298,-0.618712 -0.7276,-0.212278 -1.52966,-0.494493 -1.78234,-0.627145 -0.59751,-0.313669 -0.80228,-0.305668 -0.59891,0.02339 0.0899,0.145521 -0.0275,0.264584 -0.26108,0.264584 -0.23354,0 -0.98376,0.297656 -1.66716,0.661458 -0.6834,0.363802 -1.15595,0.661458 -1.0501,0.661458 0.10584,0 -0.0435,0.386953 -0.33185,0.859896 -0.64812,1.062998 -0.69329,3.07377 -0.0973,4.329795 0.55228,1.163836 2.2822,2.21284 3.65466,2.216139 0.57252,0.0013 1.55029,-0.24407 2.17283,-0.545436 z m 43.814257,10.408925 c -0.18281,-0.06413 -0.27358,-0.21173 -0.20172,-0.328002 0.0719,-0.116271 -0.39456,-0.343651 -1.03648,-0.50529 -0.6783,-0.170799 -1.38546,-0.571458 -1.68844,-0.956622 -0.28672,-0.364506 -0.69864,-0.662739 -0.91539,-0.662739 -0.21675,0 -0.46636,-0.20836 -0.55471,-0.463021 -0.0883,-0.254661 -0.522317,-1.058333 -0.964387,-1.785937 -1.06493,-1.75277 -1.186,-2.073011 -1.5749,-4.165822 -0.33774,-1.817524 -0.19711,-3.639386 0.28093,-3.639386 0.1585,0 0.19572,-0.367062 0.0928,-0.915527 -0.13262,-0.706922 -0.0449,-1.076773 0.38488,-1.623182 0.30615,-0.38921 0.55664,-0.870582 0.55664,-1.069716 0,-0.482338 3.433237,-3.799908 3.932397,-3.799908 0.21536,0 0.60283,-0.191194 0.86104,-0.424874 0.25822,-0.233682 1.33691,-0.590155 2.3971,-0.792167 1.93843,-0.369351 3.01011,-0.29236 2.70914,0.194632 -0.10305,0.166738 0.18421,0.197425 0.78791,0.08417 0.52255,-0.09803 1.15935,-0.0937 1.41511,0.0096 0.40673,0.164319 0.38443,0.218842 -0.17791,0.435033 -0.59728,0.229621 -0.61195,0.27814 -0.20667,0.683418 0.40527,0.405276 0.47118,0.404633 0.92833,-0.0091 0.577,-0.522176 0.894,-0.557387 1.30629,-0.145097 0.22393,0.223927 0.20134,0.451173 -0.0889,0.89409 -0.34448,0.525751 -0.3425,0.611735 0.0172,0.749792 0.247,0.09478 0.40637,0.0097 0.40637,-0.217019 0,-0.723728 0.58114,-0.717984 1.34442,0.01328 0.42474,0.406924 0.77225,0.941134 0.77225,1.187133 0,0.245996 0.17859,0.595487 0.39687,0.776644 0.21829,0.181158 0.39688,0.509506 0.39688,0.72966 0,0.220157 0.28983,0.668896 0.64408,0.997196 0.37098,0.343821 0.71088,1.029785 0.80163,1.61784 0.0867,0.561512 0.27332,1.387274 0.41482,1.835026 0.16854,0.533347 0.16483,1.2633 -0.0108,2.116666 -0.14742,0.716415 -0.34185,1.689523 -0.43206,2.162466 -0.0902,0.472943 -0.26551,0.859896 -0.38954,0.859896 -0.12402,0 -0.51541,0.572108 -0.86974,1.271352 -0.8022,1.583049 -2.85172,3.694369 -3.80621,3.920969 -0.39481,0.09373 -0.93867,0.362786 -1.20858,0.597902 -0.38393,0.334447 -1.13254,0.433547 -3.43959,0.45534 -1.62186,0.01532 -3.09841,-0.02461 -3.28121,-0.08874 z m 5.23562,-10.968935 c 0.82879,-0.19785 2.05727,-1.292989 2.50221,-2.230628 0.60659,-1.278297 0.44183,-3.425102 -0.34799,-4.534304 -0.91511,-1.285163 -2.61516,-1.978393 -4.32199,-1.762382 -0.7769,0.09833 -1.6091,0.349708 -1.84931,0.558634 -0.29373,0.255468 -0.49379,0.287575 -0.61093,0.09804 -0.27668,-0.447691 -0.77997,-0.328938 -1.1557,0.272693 -0.29073,0.465542 -0.28187,0.625705 0.0553,0.99823 0.27267,0.301297 0.32224,0.569167 0.15442,0.834552 -0.39134,0.618849 -0.26819,2.667396 0.23483,3.906332 0.25328,0.623837 0.54148,1.053279 0.64045,0.954317 0.099,-0.09896 0.255,0.01569 0.34675,0.254812 0.0918,0.23911 0.39222,0.434745 0.66769,0.434745 0.27547,0 0.50086,0.09616 0.50086,0.213683 0,0.203827 2.33104,0.204761 3.18345,0.0013 z m 28.41801,8.564192 c -1.72212,-1.291561 -3.00446,-1.831837 -5.40771,-2.278377 -2.41259,-0.448276 -7.5833,-0.531651 -9.39271,-0.151456 -3.07454,0.646028 -3.30729,0.649005 -3.30729,0.04232 0,-0.72163 0.98266,-1.214472 3.175,-1.592384 1.99513,-0.343919 2.70796,-0.948716 1.8371,-1.558687 -1.06275,-0.744379 -3.68918,-3.677428 -3.68918,-4.119866 0,-0.08984 -0.31506,-0.851485 -0.70013,-1.69254 -1.6145,-3.526343 -1.8886,-7.722724 -0.72778,-11.142045 0.92549,-2.726113 1.66661,-4.21585 2.61853,-5.263557 0.43656,-0.480492 1.09141,-1.221388 1.45521,-1.646444 0.3638,-0.425053 0.75062,-0.780595 0.85959,-0.790091 0.10898,-0.0095 0.67119,-0.476348 1.24936,-1.037447 1.26035,-1.223126 3.77714,-2.220915 5.30647,-2.103768 1.22314,0.09369 1.41619,0.537191 0.33405,0.767426 -1.18093,0.251251 -1.92864,0.550236 -1.92864,0.771197 0,0.112774 -0.32742,0.285909 -0.7276,0.384749 -0.81601,0.201539 -3.05491,1.57149 -3.89989,2.386285 -0.99634,0.96075 -2.45082,3.149232 -3.16867,4.767776 -2.28168,5.144434 -1.92139,10.050589 1.10663,15.069131 0.82579,1.368639 2.89616,3.179114 4.52665,3.958421 1.75282,0.837766 2.79668,0.794612 3.03731,-0.125566 0.1157,-0.442423 0.31642,-0.533768 1.0238,-0.465916 0.89866,0.0862 0.94278,0.171133 0.62796,1.208882 -0.16232,0.535064 -0.0918,0.594362 0.69713,0.585935 0.48275,-0.0052 1.13644,-0.153982 1.45264,-0.330729 0.84032,-0.469699 2.36951,-2.578843 2.5867,-3.567713 0.13208,-0.601342 0.33834,-0.854681 0.69587,-0.854681 1.18769,0 0.32086,2.323341 -1.63267,4.375989 -0.71732,0.753724 -0.73961,0.840769 -0.35557,1.389062 0.22535,0.321723 0.64265,0.584949 0.92734,0.584949 0.57546,0 3.15654,2.30361 3.15654,2.817206 0,0.669219 -0.46486,0.565312 -1.73604,-0.388056 z M 78.203113,53.567919 c -0.89231,-0.273013 -1.74925,-0.775869 -2.31511,-1.358513 -0.75986,-0.782402 -0.8984,-1.114637 -0.8984,-2.154465 0,-1.374199 0.33308,-1.864413 1.2668,-1.864413 0.58954,0 0.61995,0.07014 0.45462,1.048726 -0.15071,0.892032 -0.0811,1.144823 0.46597,1.691878 0.9479,0.947902 3.20089,1.388068 5.12596,1.001459 1.68198,-0.337791 2.61199,-1.030444 3.18258,-2.370323 0.2523,-0.592447 0.52037,-0.846942 0.8258,-0.783955 0.35517,0.07325 0.4403,0.344419 0.39663,1.263428 -0.061,1.284747 -0.76431,2.150308 -2.5721,3.165683 -1.33606,0.75042 -4.10787,0.918845 -5.93275,0.360495 z M 132.1396,46.075168 c -0.89954,-0.253053 -2.66176,-1.207055 -3.30729,-1.79044 -1.41976,-1.283079 -2.59403,-3.839612 -2.93124,-6.381689 -0.17418,-1.312971 0.76723,-5.887175 1.33315,-6.477667 0.15838,-0.165258 0.66974,-0.882964 1.13636,-1.594903 0.95288,-1.453835 1.78963,-2.168305 2.04863,-1.749242 0.0915,0.148108 -0.0126,0.337976 -0.23134,0.421928 -0.21878,0.08395 -0.59196,0.449012 -0.82931,0.811245 -0.41741,0.637053 -0.41396,0.649197 0.10566,0.371107 0.29546,-0.158126 0.85383,-0.702622 1.24082,-1.20999 0.38699,-0.507368 0.86808,-0.922488 1.06909,-0.922488 0.20101,0 0.36547,-0.09309 0.36547,-0.206875 0,-0.113782 0.29766,-0.231511 0.66146,-0.26162 0.86293,-0.07142 0.85603,0.362294 -0.009,0.579458 -0.36887,0.09258 -1.47091,0.968693 -2.44897,1.946913 -3.03618,3.036678 -3.94956,6.559333 -2.72426,10.506678 0.59508,1.917046 1.26948,2.835293 3.03933,4.138265 1.15336,0.849104 2.13298,0.96229 3.01029,0.347803 0.87558,-0.61328 0.72507,-0.842536 -0.68002,-1.035785 -1.46343,-0.201274 -3.04718,-1.490089 -3.6737,-2.989549 -1.07651,-2.576459 -0.0409,-6.476848 2.03723,-7.672879 1.14808,-0.660754 1.96178,-0.800954 1.16916,-0.201448 -0.49742,0.376224 -0.49345,0.388723 0.12574,0.396875 0.60221,0.0079 0.57741,0.06604 -0.42694,1.000601 -1.27998,1.19103 -1.88666,2.306002 -2.09944,3.858395 -0.15201,1.109019 0.19079,2.293167 0.66385,2.293167 0.11737,0 0.3636,-0.506015 0.54718,-1.124479 0.35058,-1.181028 0.72213,-1.785937 1.09699,-1.785937 0.12313,0 0.1479,0.208359 0.055,0.46302 -0.15159,0.415677 -0.11016,0.411483 0.40517,-0.04101 0.57362,-0.503659 0.80953,-1.127953 0.30945,-0.818888 -0.14552,0.08994 -0.26458,0.06607 -0.26458,-0.05303 0,-0.362178 0.93544,-0.827411 2.01795,-1.003605 0.86962,-0.141544 0.96116,-0.114241 0.60466,0.180338 -0.23105,0.190923 -0.37164,0.490921 -0.31241,0.66666 0.0592,0.175739 -0.28752,0.486727 -0.77053,0.691086 -1.88244,0.796441 -2.63109,2.83796 -1.54566,4.214908 0.67606,0.857628 1.58262,0.958611 1.78141,0.198437 0.17212,-0.658201 0.39936,-0.666692 0.96991,-0.03624 0.65861,0.72776 0.72696,1.545944 0.20691,2.476844 -0.86678,1.551535 -2.25117,2.214551 -3.74599,1.794033 z m 3.35023,-3.242452 c -0.0734,-0.181902 -0.13346,-0.03307 -0.13346,0.330729 0,0.363802 0.0601,0.51263 0.13346,0.330729 0.0734,-0.181901 0.0734,-0.479557 0,-0.661458 z m -3.8794,-8.990391 c 0,-0.154863 -0.16812,-0.129148 -0.39687,0.0607 -0.21828,0.181158 -0.39688,0.370594 -0.39688,0.420968 0,0.05037 0.1786,0.02305 0.39688,-0.0607 0.21828,-0.08376 0.39687,-0.273198 0.39687,-0.420968 z M 61.363563,32.669242 c -0.82096,-0.176967 -2.44848,-0.845635 -4.7625,-1.956678 -1.16417,-0.558959 -2.71198,-1.281949 -3.43958,-1.606645 -0.72761,-0.324697 -1.38245,-0.658101 -1.45521,-0.740895 -0.25187,-0.286604 -1.31716,-0.812003 -1.65006,-0.813802 -0.38186,-0.0021 -1.35918,-1.358747 -1.77416,-2.462813 -0.41685,-1.109073 -0.34174,-2.058138 0.25033,-3.162803 0.69548,-1.297625 1.27796,-1.857253 2.39149,-2.297686 0.50308,-0.198983 1.00919,-0.443162 1.1247,-0.542621 0.49492,-0.426159 3.09065,0.350888 6.21763,1.86128 5.24736,2.534587 6.66924,3.278227 6.66924,3.48801 0,0.106939 0.34512,0.372906 0.76695,0.591039 0.67263,0.347832 0.78912,0.587669 0.94726,1.950218 0.103,0.887417 0.06,2.000607 -0.10038,2.596038 -0.35238,1.30864 -1.68971,2.608331 -3.06904,2.982651 -1.09683,0.297656 -1.23359,0.305067 -2.11667,0.114707 z m 2.91042,-1.147463 c 0.20695,-0.334857 -0.14331,-0.334857 -0.66146,0 -0.34203,0.221032 -0.33504,0.25704 0.0505,0.260532 0.24607,0.0021 0.52099,-0.115012 0.61093,-0.260532 z m 37.438537,0.37267 c -1.68358,-0.622657 -2.740547,-1.994675 -3.055817,-3.966651 -0.13828,-0.86496 -0.0355,-1.351166 0.51515,-2.437897 0.37833,-0.746599 0.955917,-1.498616 1.283537,-1.671148 0.32762,-0.17253 0.6552,-0.394491 0.72796,-0.493247 0.2265,-0.307425 1.9111,-1.064144 2.36898,-1.064144 0.23958,0 0.54871,-0.110169 0.68696,-0.244824 0.31385,-0.305697 4.03686,-1.795899 5.8076,-2.324595 0.72761,-0.217244 1.44902,-0.49762 1.60314,-0.623059 0.39626,-0.322508 2.50682,-0.150032 3.27498,0.267637 0.35464,0.192823 0.88311,0.572606 1.17437,0.843962 0.29127,0.27136 0.61002,0.493379 0.70833,0.493379 0.28121,0 1.04439,2.188369 1.04439,2.994718 0,1.434032 -1.81232,3.543946 -3.79819,4.421868 -0.74865,0.33097 -2.09782,0.940758 -2.99816,1.355087 -0.90033,0.41433 -1.82803,0.753327 -2.06155,0.753327 -0.23352,0 -1.21732,0.370636 -2.18623,0.823635 -1.69825,0.793996 -4.16493,1.216101 -5.09545,0.871952 z M 21.261683,88.476704 c 1.20701,-2.303452 1.12338,-2.561315 -0.75533,-2.32872 -0.64334,0.07965 -1.20711,0.182216 -1.25282,0.22792 -0.0457,0.04571 -0.10315,0.61313 -0.12765,1.260941 -0.0499,1.31886 0.48398,3.233399 0.84024,3.01322 0.12748,-0.07879 0.71048,-1.056798 1.29556,-2.173361 z m -0.92462,-3.218476 c 0.0811,-0.131205 0.84001,-0.318934 1.68649,-0.41718 0.84648,-0.09824 1.69563,-0.275388 1.88699,-0.393655 0.44408,-0.274454 0.15534,-2.473089 -0.38351,-2.920296 -0.29006,-0.240725 -0.30502,-0.416126 -0.0679,-0.795837 0.21153,-0.338712 0.22807,-0.795208 0.0543,-1.498793 l -0.24988,-1.011732 -2.11666,0.08488 c -1.16417,0.04668 -2.32516,0.144042 -2.57997,0.216355 -0.63036,0.178887 -1.1025,1.097574 -0.77171,1.501616 0.1413,0.172601 0.33424,1.147255 0.42876,2.1659 0.24191,2.607027 0.34826,2.987911 0.87258,3.124944 0.7858,0.205372 1.08728,0.191714 1.2405,-0.0562 z m 28.61473,-6.508327 c 0.0913,-0.363802 0.25772,-0.661458 0.36981,-0.661458 0.11209,0 0.32895,-0.327422 0.48191,-0.727604 1.13269,-2.963418 0.085,-9.007546 -2.21889,-12.80007 -1.90244,-3.131754 -3.94944,-4.81733 -8.33221,-6.861061 -0.22843,-0.106519 -1.1214,-0.235831 -1.98438,-0.287361 l -1.56905,-0.09369 -0.0775,1.058334 -0.0775,1.058333 1.92959,0.0063 c 2.47415,0.008 3.89645,0.680625 6.16395,2.914888 2.95106,2.907792 4.65934,7.483007 4.25771,11.4032 -0.0952,0.928862 -0.31191,2.014935 -0.48164,2.413495 -0.32146,0.754816 -0.38831,1.002678 -0.43928,1.628629 -0.0175,0.214427 -0.41541,-0.06861 -0.93,-0.661458 -0.87059,-1.003004 -0.88758,-1.064911 -0.52916,-1.928476 0.7649,-1.842921 0.2408,-6.070854 -1.10527,-8.916196 -0.82816,-1.750597 -2.62669,-3.600223 -4.34526,-4.468717 -1.3012,-0.657577 -3.5739,-1.096666 -3.79815,-0.733812 -0.0775,0.125397 0.0203,0.815719 0.21746,1.534047 0.19711,0.718327 0.36902,1.097692 0.38203,0.843031 0.0339,-0.66235 1.50662,-0.605367 2.6695,0.103283 2.69154,1.640218 4.38759,5.168825 4.18739,8.711829 -0.0561,0.99328 -0.19765,1.901568 -0.3145,2.018419 -0.11685,0.116853 -0.55981,-0.176292 -0.98434,-0.651431 -0.42454,-0.475141 -0.77189,-0.767741 -0.77189,-0.650222 0,0.117518 0.53578,0.739498 1.19063,1.382178 0.65484,0.642681 1.19062,1.394585 1.19062,1.670897 0,0.328316 0.13188,0.451781 0.38061,0.356333 0.23971,-0.09198 0.89516,0.43624 1.77059,1.4269 1.5546,1.759247 2.47812,2.063441 2.76724,0.911495 z m -27.54031,-2.076434 c 1.15587,-0.267226 1.33349,-0.397653 1.40664,-1.032933 l 0.0837,-0.727091 h -2.11701 c -2.27976,0 -3.39682,0.283763 -3.64305,0.925441 -0.43276,1.127739 1.42824,1.491501 4.26971,0.834583 z m -0.28483,-3.398154 c 0.57095,-0.190434 1.09128,-0.50827 1.1563,-0.7063 0.0953,-0.290336 -0.23376,-0.328832 -1.69954,-0.198814 -0.99977,0.08868 -2.38053,0.177284 -3.06835,0.196895 -0.68782,0.01961 -1.21219,0.109078 -1.16527,0.198814 0.0469,0.08974 0.16596,0.388477 0.26455,0.663866 0.15841,0.442513 0.37072,0.482753 1.82673,0.346247 0.90612,-0.08495 2.11463,-0.310272 2.68558,-0.500708 z m 19.9616,-5.27635 c -0.90316,-1.959441 -2.38035,-3.512465 -3.55442,-3.736904 -0.45454,-0.08689 -0.57666,-0.03585 -0.40777,0.170445 0.34759,0.424585 0.4471,1.296493 0.19404,1.700215 -0.13281,0.211884 -0.0528,0.529646 0.20504,0.814583 0.23254,0.25695 0.4228,0.66198 0.4228,0.900063 0,0.238082 0.23812,0.560318 0.52916,0.716078 0.29105,0.155761 0.52917,0.539893 0.52917,0.853628 0,0.557596 0.008,0.558877 0.37711,0.05684 0.36372,-0.495358 0.3872,-0.487151 0.66146,0.231238 0.15639,0.409654 0.28435,0.847005 0.28435,0.971886 0,0.124883 0.32742,0.617392 0.7276,1.094462 l 0.7276,0.867402 0.0805,-1.390261 c 0.0647,-1.117481 -0.0877,-1.755095 -0.7766,-3.249673 z m -23.24865,2.794214 c 0.36381,-0.06437 1.39237,-0.231738 2.28571,-0.371927 2.0667,-0.324321 3.8033,-0.713341 4.69098,-1.050835 0.60392,-0.229611 0.69623,-0.416555 0.69623,-1.409978 0,-0.950968 -0.14589,-1.281531 -0.8599,-1.948408 -1.12935,-1.054801 -3.31351,-1.946502 -4.76785,-1.946502 -1.82579,0 -4.41191,0.961612 -5.57331,2.072357 -1.8331,1.753139 -2.46955,3.615899 -1.57367,4.605829 0.39888,0.440762 0.69806,0.481632 2.4474,0.334325 1.09612,-0.0923 2.29061,-0.220491 2.65441,-0.284861 z m -2.49814,-7.810899 c 0.0984,-0.159224 0.46934,-0.233982 0.8243,-0.166127 0.35496,0.06786 0.80967,-0.04091 1.01047,-0.241712 0.24464,-0.244645 1.0586,-0.372507 2.46732,-0.387586 1.95365,-0.0209 2.12274,-0.06752 2.39243,-0.659413 0.15961,-0.350303 0.44158,-0.639985 0.6266,-0.643739 0.33499,-0.0068 1.43934,-2.05554 1.31987,-2.44856 -0.0345,-0.113533 0.11704,-0.554106 0.33678,-0.979048 0.46875,-0.906463 0.51199,-2.577492 0.11771,-4.549026 -0.58699,-2.935145 -1.0364,-5.777685 -1.43192,-9.057 -0.0685,-0.56824 -0.29892,-1.639802 -0.51196,-2.381249 -0.35541,-1.236935 -0.97465,-5.024882 -1.33956,-8.194141 -0.0817,-0.709395 -0.20601,-1.382852 -0.27629,-1.496573 -0.0703,-0.11372 -0.25235,-0.962056 -0.40459,-1.88519 -0.15225,-0.923134 -0.39428,-2.333271 -0.53785,-3.133635 -0.45401,-2.530909 -0.78344,-4.575813 -1.02299,-6.35 -0.12771,-0.945885 -0.34567,-2.225807 -0.48437,-2.844271 -0.13869,-0.618463 -0.19404,-1.124479 -0.12301,-1.124479 0.071,0 0.0102,-0.148828 -0.13517,-0.330729 -0.14538,-0.181901 -0.34863,-1.027448 -0.45167,-1.878994 -0.10304,-0.851545 -0.23105,-1.804045 -0.28447,-2.116666 -0.0534,-0.312621 -0.15336,-1.223246 -0.22208,-2.02361 -0.0687,-0.8003647 -0.32056,-1.8406455 -0.55963,-2.3117334 -0.23907,-0.4710906 -0.36028,-0.9768972 -0.26935,-1.1240161 0.0909,-0.1471189 -0.0202,-0.5323152 -0.24689,-0.8559906 -0.22671,-0.323678 -0.4122,-0.7855558 -0.4122,-1.0264007 0,-0.2408449 -0.1786,-0.5861182 -0.39688,-0.7672757 -0.21828,-0.1811576 -0.40018,-0.523158 -0.40422,-0.7599997 -0.004,-0.2368444 -0.36123,-0.7778909 -0.79375,-1.2023275 -0.43252,-0.424434 -0.7864,-0.9857925 -0.7864,-1.24746009 0,-0.2616703 -0.24146,-0.6049856 -0.53658,-0.7629287 -0.29512,-0.157943 -0.47783,-0.382225 -0.40602,-0.4984061 0.0718,-0.1161812 -0.0796,-0.4376288 -0.33651,-0.71433001 -0.25689,-0.2766986 -0.75879,-1.0388706 -1.11533,-1.6937143 -0.35655,-0.6548437 -0.71775,-1.2501562 -0.80267,-1.3229166 -0.4829804,-0.4138083 -2.0945604,-3.1084523 -2.0945604,-3.5021963 0,-0.256604 -0.11926,-0.436788 -0.26504,-0.400408 -0.27385,0.06835 -0.38371,-0.08748 -1.71933,-2.4387512 -0.43657,-0.768541 -1.12559,-1.748351 -1.53116,-2.177357 -0.40558,-0.429006 -0.91647,-1.217877 -1.13533,-1.753045 -0.42562,-1.040794 -1.62003,-2.107472 -1.93765,-1.730433 -0.28051,0.332992 0.73294,15.76837531 1.45686,22.1886484 0.2133,1.8917707 0.62175,5.5231766 0.90766,8.0697906 0.46127,4.108495 1.61104,13.072065 2.76599,21.563541 1.37728,10.126053 2.56988,18.581663 2.90954,20.6288 l 0.39365,2.372553 2.3130304,2.3238 c 2.27335,2.283934 2.77689,2.610864 3.13322,2.034305 z m 17.0572,-22.768797 c 0.3542,-2.538508 0.81326,-4.513008 1.73712,-7.471722 0.70327,-2.25225 0.64427,-2.784872 -0.19332,-1.745194 -2.19615,2.726007 -3.27743,8.018726 -2.43159,11.902296 0.14097,0.647232 0.14875,0.649227 0.36179,0.09275 0.11974,-0.312793 0.35644,-1.56295 0.526,-2.778125 z M 143.64986,31.642085 c 1.90879,-1.221037 3.70829,-2.012384 5.0262,-2.210316 0.87448,-0.131337 1.13869,-0.319818 1.52094,-1.08499 0.50222,-1.005338 0.62482,-3.570573 0.20233,-4.233333 -0.19588,-0.307272 -0.35924,-0.330661 -0.72355,-0.103593 -0.3695,0.230294 -0.47621,0.671595 -0.49686,2.054776 -0.038,2.54614 -0.17743,2.570543 -1.77199,0.310181 -0.27774,-0.393713 -0.73201,-0.673864 -1.09267,-0.673864 -0.56491,0 -0.627,0.133913 -0.73142,1.577586 -0.1086,1.501412 -0.68874,2.655747 -1.3347,2.655747 -0.13467,0 -0.43194,-0.47625 -0.66059,-1.058334 -0.22864,-0.582083 -0.50049,-1.058333 -0.60409,-1.058333 -0.1036,0 -0.50226,0.313891 -0.88591,0.697537 -0.54369,0.54369 -0.69753,0.956022 -0.69753,1.86948 0,1.046773 0.34826,2.195483 0.66563,2.195483 0.0648,0 0.77771,-0.422114 1.58421,-0.938027 z m -1.23363,-9.973609 c 0.22548,-0.225475 0.52855,-0.19308 1.20313,0.128606 1.02897,0.490678 1.22024,0.397074 1.22024,-0.597143 0,-0.389755 0.22822,-0.915183 0.50715,-1.167617 0.65649,-0.594111 1.52658,-0.180366 1.78251,0.847614 0.18205,0.731239 0.86206,1.427043 1.1941,1.22183 0.10027,-0.06197 0.25843,0.127182 0.35148,0.420338 0.29496,0.929346 0.83381,0.580874 1.52829,-0.988346 0.9231,-2.085776 1.32297,-4.264136 1.11724,-6.086258 -0.21423,-1.897369 -1.07594,-4.629424 -1.7053,-5.406651 l -0.47606,-0.58792 -0.55843,1.0946 c -0.30713,0.602027 -0.67944,1.169392 -0.82736,1.260811 -0.15437,0.0954 -0.20033,0.595246 -0.10789,1.173318 0.30112,1.883122 -0.66863,2.657573 -2.01198,1.606788 -0.92918,-0.72681 -1.03352,-0.664554 -0.77605,0.463021 0.45115,1.975797 -0.36978,4.018325 -1.18044,2.93701 -0.16086,-0.214564 -0.51457,-0.47357 -0.78602,-0.57557 -0.43266,-0.16257 -0.47737,-0.07894 -0.36241,0.677855 0.24329,1.601581 -0.59188,2.291593 -1.52529,1.260184 -0.63671,-0.703551 -1.79109,-0.670042 -2.65982,0.07721 l -0.70495,0.606374 0.62405,1.576438 c 0.62256,1.572673 0.6269,1.576633 1.81468,1.659284 0.65484,0.04557 1.30969,0.200906 1.45521,0.345197 0.17582,0.174336 0.31791,-0.05769 0.42355,-0.691613 0.0874,-0.52468 0.29461,-1.089594 0.46037,-1.255361 z M 41.295263,14.933227 c 0.54539,-1.530558 0.59871,-1.948505 0.35621,-2.792176 -0.301,-1.0472 -0.87916,-1.306291 -1.18082,-0.529167 -0.49557,1.27667 -0.46679,5.771335 0.0337,5.270793 0.0822,-0.0822 0.43809,-0.959456 0.79086,-1.94945 z M 139.19895,12.65371 c 0.99872,-1.05704 1.14273,-1.359482 1.14273,-2.399871 0,-0.6547277 0.10898,-1.257766 0.24218,-1.3400885 0.1332,-0.082322 0.59687,0.1487779 1.03038,0.513551 0.43351,0.3647757 0.85347,0.6632285 0.93324,0.6632285 0.0798,0 0.18164,-0.5060158 0.22638,-1.1244793 0.0708,-0.9781857 0.16742,-1.1337924 0.74282,-1.1960753 0.3638,-0.039375 1.04841,0.1672325 1.52136,0.459134 0.67089,0.4140729 0.85989,0.7108931 0.85989,1.3504121 0,0.5368185 0.11413,0.7825105 0.33073,0.7119565 0.67861,-0.221051 1.10068,-1.6924731 1.2077,-4.2103036 0.11845,-2.7867053 -0.18009,-4.1064522 -1.54796,-6.84309829 -1.03794,-2.07655841 -4.15066,-5.18387781 -4.67133,-4.66321751 -0.31244,0.3124491 0.44564,2.2123028 1.50509,3.7719421 1.11377,1.63960431 1.32914,2.723581 0.65266,3.285003 -0.33944,0.2817125 -0.52718,0.2216335 -1.13895,-0.3644794 -1.23342,-1.18168989 -1.96803,-0.75875089 -1.26294,0.7271173 0.59905,1.2624144 0.65263,2.5373355 0.12113,2.8826247 -0.34902,0.2267426 -0.6337,0.1130935 -1.39827,-0.5582073 -0.52801,-0.4636002 -1.20888,-0.8429122 -1.51306,-0.8429122 -0.48704,0 -0.53005,0.1026054 -0.36048,0.8598958 0.48283,2.1562509 0.55501,2.7558311 0.4061,3.3734373 -0.15581,0.6462342 -1.18045,0.9836944 -1.20505,0.396875 -0.006,-0.1455208 -0.21752,-0.6515364 -0.46982,-1.1244791 C 136.22791,6.3713826 135.90714,6.12178 135.4484,6.12178 c -0.44449,0 -0.60209,0.1153769 -0.5046,0.3694245 0.078,0.2031815 -0.11748,0.5510053 -0.43434,0.7729378 -0.31685,0.2219352 -0.66231,0.7998354 -0.76768,1.284224 -0.10537,0.4843885 -0.33037,0.8509396 -0.50001,0.8145594 -0.42652,-0.091474 -0.38799,0.5967703 0.0539,0.9635463 0.1993,0.165402 0.57278,0.86459 0.82996,1.55375 0.73255,1.963007 1.0965,2.255265 2.62549,2.108348 1.13332,-0.108898 1.45542,-0.284552 2.44779,-1.33486 z M 43.572503,10.685842 c 0.18158,-1.454139 1.0795,-3.6821132 1.78785,-4.4361174 0.43341,-0.4613407 0.89919,-0.6575134 1.56339,-0.6584606 0.8404,-0.00132 0.99078,-0.1099926 1.34635,-0.9740503 0.37412,-0.9091453 0.35936,-1.0946685 -0.22579,-2.8393864 -0.8192,-2.44253799 -0.69185,-3.3377054 0.96296,-6.7685467 1.29095,-2.6764774 1.96316,-5.0270836 1.43761,-5.0270836 -0.13726,0 -1.04791,0.7315362 -2.02367,1.6256372 -2.97857,2.7293227 -4.84779,6.042353 -5.12075,9.07607861 -0.092,1.02283409 -0.36176,1.93597999 -0.74657,2.52745069 -0.94579,1.4537213 -1.2551,3.7811232 -0.75695,5.6955608 0.42163,1.6203637 1.01172,2.7711057 1.42098,2.7711057 0.12688,0 0.28645,-0.446485 0.35459,-0.992188 z M 127.0837,3.7846362 c 0.55218,-0.266782 1.31321,-0.4715219 1.69119,-0.4549775 0.51754,0.022648 0.62018,-0.050699 0.41569,-0.297098 -0.14934,-0.179951 -0.18689,-0.4641505 -0.0834,-0.6315551 0.10346,-0.1674045 0.0339,-0.771509 -0.15449,-1.3424534 -0.41916,-1.27007929 -0.1236,-1.68983279 0.80866,-1.14845559 0.36216,0.2103172 0.87597,0.4601024 1.1418,0.5550799 0.26582,0.09498 0.58275,0.4342262 0.70429,0.75388249 0.12153,0.3196564 0.41005,0.5811943 0.64116,0.5811943 0.58063,0 0.5812,-2.8017098 7.9e-4,-3.924096 -0.64149,-1.2405042 -0.11796,-1.5738289 1.2742,-0.8112681 1.38678,0.7596187 1.75011,0.489466 1.35128,-1.0047498 -0.20638,-0.7732077 -0.20315,-1.1134672 0.0118,-1.2479522 0.46185,-0.2888906 0.94074,-0.3079433 1.10392,-0.043924 0.0819,0.1325589 0.42501,0.2410169 0.7624,0.2410169 0.74621,0 1.08844,0.3908345 1.3295,1.5183193 0.27674,1.2943628 0.66837,1.3048376 0.69729,0.018653 0.0967,-4.2996272 -0.72226,-6.9547294 -3.09705,-10.0409404 -1.97773,-2.570215 -4.53194,-4.147076 -7.48143,-4.618717 -1.23903,-0.198131 -1.49752,0.11036 -1.10048,1.313399 0.25874,0.784001 0.44628,0.915218 1.71329,1.198761 1.53666,0.34389 3.06087,1.522402 3.06087,2.366648 0,0.743796 -0.26495,0.848947 -1.07874,0.428119 -0.41088,-0.212481 -1.14105,-0.386326 -1.62259,-0.386326 -1.00822,0 -1.40684,0.480619 -1.67366,2.017948 -0.23142,1.3333652 -0.76116,2.9045592 -1.37888,4.0896442 -0.46523,0.8925506 -0.52811,0.9257346 -1.07103,0.5652452 -0.38672,-0.2567702 -0.88283,-0.3255592 -1.50549,-0.2087492 -1.06531,0.199853 -1.72377,1.1800239 -1.72377,2.5659669 0,0.4698392 -0.13756,1.2346569 -0.30568,1.6995986 -0.17724,0.49013 -0.21463,1.0539174 -0.089,1.341702 0.31406,0.71939681 0.30272,0.68421781 0.52418,1.62633811 0.11189,0.4759696 0.30192,0.92626919 0.42229,1.00065949 0.12036,0.074393 0.1609,0.2862659 0.0901,0.470826 -0.12742,0.3320573 1.41103,1.2349876 2.10422,1.2349876 0.19079,0 0.56239,0.238125 0.82578,0.5291667 0.57899,0.639773 0.46429,0.6367806 1.69098,0.044106 z m -75.135997,-5.544452 c 0.46696,-1.1273498 2.35969,-1.9648936 3.08327,-1.3643715 0.33891,0.2812653 0.32027,0.4390549 -0.14499,1.2276084 -0.66641,1.12947971 -0.6657,1.13919261 0.0835,1.13919261 0.8181,0 1.03897,0.2590085 0.63712,0.7471462 -0.28487,0.3460459 -0.22316,0.3711893 0.46531,0.1895714 0.43657,-0.1151679 0.95696,-0.2142914 1.15643,-0.2202762 0.69162,-0.020743 1.9909,-1.49934611 2.30963,-2.62836281 0.17558,-0.6219322 0.51489,-1.6546088 0.75402,-2.294837 0.49617,-1.3283723 0.35783,-2.3982811 -0.39861,-3.0828561 -0.57929,-0.52424 -0.67332,-1.441241 -0.19667,-1.917885 0.17462,-0.1746252 0.69493,-0.3175002 1.15624,-0.3175002 0.76928,0 0.86656,-0.09939 1.17478,-1.200248 0.31105,-1.110953 0.29422,-1.24478 -0.22627,-1.798815 -0.50522,-0.537781 -0.52338,-0.654158 -0.17887,-1.146029 0.21091,-0.301106 0.71516,-0.616868 1.12056,-0.701696 0.46227,-0.09672 0.98373,-0.529034 1.39856,-1.159449 0.3638,-0.552871 0.78052,-1.159881 0.92604,-1.348907 0.30008,-0.389808 3.78687,-3.203591 4.53561,-3.660179 0.82985,-0.506042 0.20451,-0.693439 -1.27621,-0.382448 -3.58775,0.753528 -8.91995,3.381346 -11.86568,5.847646 -2.82509,2.365304 -4.77686,6.1342352 -4.86907,9.4023234 -0.0315,1.1172321 -0.21737,1.8817721 -0.6131,2.5220637 -1.1336,1.8342133 -1.27109,4.53022741 -0.29137,5.7134308 0.31158,0.376293 0.39374,0.2267532 0.64703,-1.17759159 0.15956,-0.8847428 0.43531,-1.95913101 0.61276,-2.38753111 z m 35.87419,3.6482627 c 0.0899,-0.1455208 0.44713,-0.2645833 0.79375,-0.2645833 0.34663,0 0.69415,-0.103423 0.77227,-0.2298303 0.12701,-0.2055019 2.17125,-0.65428019 2.3361,-0.51284979 0.15097,0.12952939 1.52184,-1.4234556 1.52184,-1.724017 0,-0.74780511 0.83334,-1.50214801 1.66865,-1.51046651 0.9854,-0.00982 1.90206,-0.616114 1.90595,-1.2606443 0.002,-0.3379628 0.23373,-0.4507335 0.92604,-0.4507335 h 0.92332 l -0.0874,-1.6029913 c -0.0835,-1.5314747 -0.0393,-1.6638107 0.9901,-2.9661347 0.592627,-0.749729 1.316567,-1.4910892 1.608757,-1.6474632 1.45127,-0.776695 -0.39202,-3.457151 -2.638397,-3.836675 -1.13358,-0.191516 -1.43263,-0.820528 -0.68508,-1.440945 0.53633,-0.445108 3.205437,-0.688181 3.437287,-0.313031 0.30503,0.493541 0.60014,0.340572 0.94386,-0.489238 0.32998,-0.796653 2.23878,-2.731804 2.93259,-2.973073 0.30801,-0.107113 0.28585,-0.234487 -0.12046,-0.692329 -0.27385,-0.308587 -0.72034,-0.631661 -0.99219,-0.717945 -0.27185,-0.08628 -0.49427,-0.372398 -0.49427,-0.635815 0,-0.768902 0.69495,-1.155826 1.80787,-1.006554 0.94152,0.126286 1.10352,0.03926 2.42006,-1.299996 0.88426,-0.899517 1.31781,-1.528527 1.16138,-1.684959 -0.13729,-0.137287 -1.13816,-0.556159 -2.22415,-0.930825 -3.81212,-1.315172 -9.750287,-1.132724 -13.003797,0.399539 -1.97987,0.932429 -4.17443,2.848539 -4.80874,4.198591 -0.31931,0.679622 -0.78396,1.539557 -1.03254,1.910966 -0.24858,0.371409 -0.52113,1.026253 -0.60565,1.455208 l -0.15369,0.779921 1.52703,0.04505 c 1.11905,0.03302 1.61856,0.17023 1.86963,0.513591 0.57788,0.790302 0.39232,1.08581 -0.88358,1.407083 -2.27628,0.573175 -3.32557,1.323774 -7.3953,5.29015 -0.56528,0.5509312 -1.03999,1.8213702 -1.29308,3.4606362 -0.098,0.6349842 0.003,1.1454369 0.32374,1.6274892 0.44841,0.6749864 0.50567,0.6889009 1.47026,0.3572906 0.85613,-0.2943251 1.167,-0.2834957 2.11472,0.073676 2.11839,0.7983617 2.20479,1.3235357 0.30979,1.8830633 -0.65136,0.192323 -1.61711,0.6936449 -2.14612,1.1140519 -0.94708,0.7526416 -0.85549,1.01747101 0.17284,0.49979 0.28907,-0.1455209 0.76855,-0.3876781 1.06551,-0.5381308 0.7121,-0.3607752 1.08486,-0.099444 0.90131,0.6318806 -0.1024,0.40799271 0.0608,0.81605431 0.5282,1.32033421 0.37202,0.4014153 0.67639,0.87849339 0.67639,1.06017219 0,0.7411746 1.1022,1.2719287 1.45521,0.7007436 z m 24.325557,-1.93850669 c 1.09398,-0.064386 1.41373,-0.2097247 1.96339,-0.8924105 0.57068,-0.70880551 0.64829,-1.04427071 0.59319,-2.56416421 -0.0608,-1.676347 -0.0377,-1.7486683 0.55742,-1.7486683 0.34145,0 0.90519,0.1991757 1.25275,0.4426162 0.34755,0.2434378 0.55639,0.3204157 0.46409,0.1710637 -0.23474,-0.3798173 0.37585,-1.8919559 0.83512,-2.0681949 0.20889,-0.08016 0.61209,0.06448 0.896,0.3214158 0.50664,0.4584938 0.51356,0.4426664 0.37331,-0.8535168 -0.0786,-0.726371 -0.21599,-1.618332 -0.30534,-1.982134 -0.23608,-0.9612972 0.40162,-1.7455862 1.11074,-1.3660782 l 0.53892,0.288422 -0.54344,-1.572212 c -0.2989,-0.864716 -0.457,-1.658665 -0.35133,-1.764326 0.10566,-0.105661 0.5622,-0.05242 1.01453,0.118319 1.11702,0.421627 1.32369,0.21712 1.2341,-1.221171 -0.069,-1.107538 -0.0163,-1.238486 0.53008,-1.316898 0.33368,-0.04789 0.80639,-1.4e-4 1.05047,0.106109 1.01418,0.441476 1.12666,0.366009 0.94883,-0.636617 -0.3997,-2.253572 -2.88507,-5.516445 -5.02456,-6.596398 -1.21741,-0.614513 -4.16915,-1.384982 -5.306,-1.384982 -1.14343,0 -3.20044,0.756438 -3.3883,1.24601 -0.22374,0.583059 -0.17634,0.594042 1.30776,0.303014 2.29519,-0.450078 5.00935,0.09216 5.91331,1.181378 0.27413,0.3303 -0.0618,0.400883 -2.40052,0.504388 -3.52679,0.156086 -4.6364,0.649269 -7.22216,3.209986 -1.9005,1.882089 -2.77313,3.260119 -2.77313,4.379248 0,0.484844 0.13226,0.511183 1.84555,0.367546 1.9801,-0.166005 2.65237,0.09041 2.65237,1.011658 0,0.384926 -0.19524,0.496771 -0.86717,0.496771 -0.93862,0 -1.54488,0.345472 -3.33727,1.9017322 -0.63895,0.554776 -1.26403,1.008685 -1.38906,1.008685 -0.12503,0 -0.45412,0.208359 -0.7313,0.46302 -0.27717,0.254662 -0.82435,0.685536 -1.21594,0.957496 -0.65206,0.452853 -0.69692,0.594952 -0.53299,1.6881259 0.27237,1.8163116 0.62398,2.4132883 1.39038,2.3606124 0.54019,-0.037126 0.67455,0.089749 0.74499,0.7034768 0.0941,0.8201924 1.31823,2.13611341 1.7429,1.87365201 0.14623,-0.090379 0.54695,0.099722 0.89047,0.4224444 0.77891,0.7317475 2.09509,1.0255567 3.30499,0.7377641 0.50932,-0.1211474 1.5141,-0.2548811 2.23285,-0.2971826 z M 72.821923,-1.3128605 c 1.82156,-0.426757 2.70046,-0.879893 3.91642,-2.0191967 1.06488,-0.9977516 1.08986,-1.06213 1.21294,-3.124639 0.1489,-2.4954336 0.66894,-3.6572268 2.5066,-5.5998298 l 1.2786,-1.35161 -0.7825,-0.658818 c -0.71466,-0.601708 -0.75451,-0.720254 -0.45959,-1.367525 0.28678,-0.629415 0.44834,-0.69963 1.44396,-0.627552 l 1.12104,0.08115 0.57959,-1.582526 c 0.7289,-1.99024 0.73037,-1.892085 -0.0311,-2.083188 -0.65505,-0.16441 -0.92534,-0.731063 -0.73316,-1.537039 0.0728,-0.305112 0.58879,-0.553474 1.6012,-0.770646 1.15039,-0.246769 1.72589,-0.55561 2.50311,-1.343279 0.55509,-0.562557 1.47783,-1.332918 2.05052,-1.711907 1.73904,-1.150848 1.4263,-1.412508 -1.68827,-1.412508 -3.16374,0 -5.06678,0.293878 -7.90468,1.22069 -1.98704,0.648933 -4.74216,2.210377 -5.4743,3.102515 -0.20119,0.245157 -1.10813,0.80002 -2.01541,1.233029 -3.00387,1.433613 -6.53428,5.976826 -6.92853,8.916167 l -0.14161,1.055817 2.02802,-0.666398 c 2.29395,-0.753779 3.38923,-0.62281 3.53913,0.423191 0.0703,0.490717 -0.041,0.590023 -0.66146,0.590198 -1.14261,2.64e-4 -3.82544,1.3902162 -4.77836,2.4755232 -1.19347,1.359294 -1.59279,2.2294692 -1.90083,4.1421844 -0.33183,2.0605193 -0.0254,2.8738485 0.61568,1.6341301 0.4749,-0.9183555 1.52014,-2.0609374 2.53211,-2.7679305 1.358,-0.9487429 2.75364,-0.2782014 2.1551,1.0354336 -0.25497,0.5596017 -0.22613,0.8667168 0.15954,1.6993314 0.25892,0.5589587 0.64935,1.0676889 0.86763,1.1305116 0.76547,0.22030531 2.15842,0.1729158 3.38857,-0.1152843 z m -59.61252,-1.0320257 c 0.0899,-0.1455209 -0.0221,-0.2645834 -0.24897,-0.2645834 -0.22687,0 -0.41249,0.1190625 -0.41249,0.2645834 0,0.1455208 0.11203,0.2645833 0.24897,0.2645833 0.13693,0 0.32255,-0.1190625 0.41249,-0.2645833 z m 128.328737,-8.4242878 -0.17612,-1.280536 1.58556,-0.578125 c 1.89648,-0.691491 3.21493,-1.827602 3.21493,-2.770299 0,-0.489775 -0.29552,-0.870622 -1.09815,-1.4152 -2.03293,-1.379342 -1.82232,-2.6376 0.32299,-1.929585 0.91875,0.303215 1.09661,0.289007 1.55305,-0.124066 0.28351,-0.256572 0.55194,-0.721953 0.59652,-1.034177 0.0503,-0.351909 0.257,-0.553715 0.54395,-0.530934 0.25459,0.02021 0.46289,-0.06909 0.46289,-0.198437 0,-0.129353 0.23048,-0.235186 0.51217,-0.235186 0.57403,0 3.72117,-3.665968 3.72117,-4.334626 0,-0.251505 -0.40511,-0.516562 -1.05834,-0.692457 -0.58208,-0.156739 -1.05833,-0.372568 -1.05833,-0.479621 0,-0.107053 0.72561,-0.723042 1.61246,-1.368866 0.88686,-0.645822 1.83936,-1.46267 2.11667,-1.815217 0.53318,-0.677825 0.67846,-1.627962 0.24893,-1.627962 -0.1404,0 -0.3756,-0.224833 -0.52267,-0.499629 -0.21359,-0.399105 -0.0908,-0.731819 0.61014,-1.653646 0.80103,-1.053409 0.89075,-1.361617 1.02919,-3.535267 0.22978,-3.607863 0.044,-3.768965 -1.64649,-1.427514 -1.2723,1.76226 -4.95003,6.521516 -5.29449,6.851472 -0.12445,0.1192 -3.72295,4.186185 -4.37034,4.939289 -0.14613,0.169995 -2.15685,2.2156 -4.46826,4.545788 l -4.20257,4.236704 1.26241,1.333341 c 1.88636,1.992357 2.92579,3.702309 3.91607,6.4422732 0.092,0.254662 0.30132,0.463021 0.46506,0.463021 0.20381,0 0.24217,-0.403884 0.1216,-1.2805382 z m -5.57782,-8.773628 c 0.19299,0 0.40935,-0.223528 0.48079,-0.496729 0.0714,-0.273201 0.76994,-0.994886 1.55221,-1.603745 2.18473,-1.700414 3.14211,-2.661089 3.14211,-3.152915 0,-0.172813 0.29766,-0.449826 0.66146,-0.615585 0.3638,-0.165762 0.66146,-0.39579 0.66146,-0.511178 0,-0.115387 0.50601,-0.726149 1.12448,-1.357251 1.52585,-1.557036 3.98258,-4.394179 4.2655,-4.925989 0.12683,-0.238416 0.60308,-0.805421 1.05833,-1.260012 0.88549,-0.884208 1.18792,-1.30362 3.60125,-4.994304 0.90386,-1.38227 1.4594,-2.480733 1.32423,-2.618385 -0.25895,-0.263708 -2.60485,0.657103 -3.76702,1.478627 -0.57081,0.403497 -0.72761,0.726082 -0.72761,1.496943 0,0.848955 -0.0872,0.98983 -0.64145,1.035696 -0.51481,0.04261 -0.67566,-0.102704 -0.81477,-0.736042 -0.0953,-0.434022 -0.29408,-0.78913 -0.44168,-0.78913 -0.1476,0 -0.91918,0.386953 -1.71462,0.859895 -1.26883,0.754404 -1.42744,0.941044 -1.29285,1.521355 0.31184,1.344625 0.47277,2.645833 0.32723,2.645833 -0.52644,0 -1.50727,-0.577263 -1.50727,-0.887095 0,-0.204065 -0.18982,-0.528566 -0.42183,-0.721111 -0.36012,-0.298879 -0.4934,-0.255241 -0.91114,0.29833 -0.26912,0.35663 -0.61715,1.155825 -0.77339,1.77599 -0.28364,1.12587 -0.28506,1.126923 -0.94094,0.697174 -0.36128,-0.236717 -0.65687,-0.342596 -0.65687,-0.235281 0,0.107315 -0.17098,0.05322 -0.37996,-0.120221 -0.41873,-0.347514 -1.12573,-0.08876 -1.72264,0.63047 -0.27978,0.337122 -0.24741,0.606449 0.18459,1.535798 1.08866,2.341975 1.24776,3.026725 0.88716,3.818165 l -0.33395,0.732946 -0.50709,-0.653727 c -0.2789,-0.359553 -0.71596,-1.097143 -0.97125,-1.639091 -0.25528,-0.541949 -0.59897,-0.988433 -0.76375,-0.992188 -0.16478,-0.0038 -0.77181,0.439658 -1.34895,0.985361 -0.57715,0.545703 -1.31835,1.173668 -1.64714,1.395479 -0.58163,0.392398 -0.58629,0.430797 -0.1724,1.421376 1.10871,2.653511 -0.46606,2.959809 -1.63954,0.318897 l -0.34075,-0.766855 -0.51999,0.899147 c -0.84206,1.45607 -1.57225,3.156775 -1.57225,3.661978 0,0.589196 2.95141,1.623341 4.0387,1.415124 0.59719,-0.114358 0.70101,-0.06081 0.56571,0.291754 -0.0911,0.2375 -0.017,0.611015 0.16479,0.830037 0.29176,0.351547 0.43654,0.33565 1.23535,-0.135662 0.49767,-0.293635 1.06276,-0.533879 1.25575,-0.533879 z m -9.57977,-2.93978 c 0.26998,-0.361601 0.53154,-1.008938 0.58125,-1.438527 0.0497,-0.429588 0.10396,-0.877392 0.12055,-0.995121 0.0166,-0.117729 0.14539,-0.142841 0.28622,-0.0558 0.29223,0.180607 1.96754,-3.011303 2.23947,-4.266772 0.0992,-0.457853 0.40887,-1.039312 0.68823,-1.292129 0.27937,-0.25282 0.4378,-0.573149 0.35208,-0.711841 -0.0857,-0.138692 0.11614,-0.780986 0.44856,-1.427321 0.7695,-1.496142 1.31359,-1.164494 0.68146,0.415372 -0.53484,1.336691 -0.53488,1.335164 0.0305,1.333363 1.07142,-0.0034 2.44874,-0.593289 3.2148,-1.376831 1.22081,-1.248675 1.10234,-1.667126 -0.43668,-1.542463 -0.91477,0.0741 -0.70837,-0.437941 0.44384,-1.101071 1.13509,-0.653278 1.54208,-1.657797 0.94326,-2.328159 -0.2968,-0.332261 -0.29319,-0.480488 0.0222,-0.910465 0.20718,-0.282475 0.37668,-0.781463 0.37668,-1.108864 0,-0.650671 -0.56739,-1.173287 -0.73333,-0.675462 -0.0772,0.231711 -0.24247,0.234727 -0.65861,0.01201 -0.52076,-0.278704 -0.52664,-0.318408 -0.094,-0.634797 0.54727,-0.400174 0.64745,-1.787218 0.17058,-2.361805 -0.43016,-0.518311 -1.43303,-0.523253 -1.85969,-0.0092 -0.18115,0.218281 -0.22672,0.396875 -0.10124,0.396875 0.12547,0 -0.0981,0.302474 -0.49677,0.672166 -0.72414,0.671462 -0.93471,1.179917 -0.48863,1.179917 0.3081,0 0.60179,0.772584 0.41103,1.081241 -0.0826,0.133665 -0.47037,0.07312 -0.8764,-0.13685 -0.85594,-0.442622 -1.22318,-0.276177 -1.6047,0.727294 -0.21273,0.55952 -0.18553,0.959536 0.11399,1.676371 0.50876,1.217644 0.31219,1.491202 -0.6724,0.935723 -0.69892,-0.394311 -0.82315,-0.400291 -1.04837,-0.05044 -0.40876,0.634968 -0.31785,2.800588 0.13328,3.174999 0.21829,0.181158 0.39688,0.493393 0.39688,0.693854 0,0.419897 -0.68275,0.493549 -0.92604,0.0999 -0.22887,-0.370318 -1.07149,-0.330067 -1.40096,0.06692 -0.19342,0.233056 -0.16653,0.527722 0.0905,0.992188 0.54952,0.99292 0.48975,1.564732 -0.14618,1.398433 -0.29182,-0.07631 -0.70854,0.0089 -0.92604,0.189458 -0.46492,0.385847 -0.5268,1.87833 -0.0957,2.309378 0.16484,0.164844 0.22614,0.491448 0.13622,0.725787 -0.12748,0.332198 -0.27673,0.365472 -0.67743,0.151024 -1.10557,-0.591685 -1.8746,0.57608 -1.33013,2.0198 0.50459,1.337979 1.60508,3.02787 1.90639,2.927432 0.16197,-0.05399 0.51538,-0.39402 0.78535,-0.755621 z m 4.43613,-4.976585 c 0,-0.133895 0.53382,-0.758973 1.18626,-1.389062 0.65244,-0.630087 1.18822,-1.234911 1.19062,-1.344052 0.002,-0.109141 -0.44621,-0.198437 -0.99691,-0.198437 -0.81477,0 -1.07902,0.135538 -1.41857,0.727604 -0.63851,1.113364 -0.83019,2.447395 -0.35166,2.447395 0.21465,0 0.39026,-0.10955 0.39026,-0.243448 z m -12.0122,-4.986086 c 0.46464,-0.462878 1.2387,-0.895501 1.78594,-0.998162 0.89242,-0.16742 0.96585,-0.133148 0.96585,0.450837 0,0.347618 -0.18535,0.896652 -0.41188,1.220071 -0.46754,0.667506 -0.37827,0.694298 1.01979,0.306064 2.53878,-0.705003 1.55119,-4.215942 -1.1859,-4.215942 -1.95303,0 -3.53169,1.307468 -4.05176,3.355734 -0.17516,0.689862 -0.26197,1.470374 -0.19291,1.734474 0.10886,0.416266 0.20046,0.379267 0.68818,-0.277961 0.30943,-0.416981 0.93164,-1.125781 1.38269,-1.575115 z m -7.91319,1.105001 c 0.31889,-0.200896 0.94969,-0.902872 1.40177,-1.559949 0.45208,-0.657077 0.95465,-1.194684 1.11682,-1.194684 0.56116,0 2.8239,-1.624465 2.6968,-1.936086 -0.0702,-0.172079 -0.68845,-0.602175 -1.37391,-0.95577 -0.97312,-0.501981 -1.77674,-0.66812 -3.6663,-0.757965 -2.96035,-0.140761 -4.57163,0.320061 -6.22407,1.780072 -1.04053,0.919355 -2.60072,3.449814 -2.60072,4.218082 0,0.331346 1.36563,-0.252415 2.11667,-0.904806 0.21828,-0.189608 1.09988,-0.383611 1.95912,-0.431115 1.54551,-0.08545 1.56609,-0.07709 1.92191,0.78069 0.33852,0.816073 0.32445,0.881211 -0.23933,1.107708 -0.36499,0.146637 -0.43878,0.2472 -0.18889,0.257418 0.22556,0.0092 0.54908,-0.1222 0.71893,-0.292055 0.23538,-0.235379 0.34981,-0.202041 0.48113,0.140176 0.1876,0.488895 0.84394,0.401019 1.88007,-0.251716 z m -16.434677,-1.814301 c -0.13716,-0.731142 -0.0724,-0.964541 0.3269,-1.17824 0.34139,-0.182708 0.5881,-0.176334 0.7847,0.02027 0.20596,0.20596 0.42698,-0.0026 0.7844,-0.739989 0.30728,-0.633992 0.64323,-0.986338 0.87825,-0.921107 1.24928,0.346734 1.83582,0.332928 1.83582,-0.04322 0,-0.216979 -0.17859,-0.542726 -0.39687,-0.723884 -0.21828,-0.181157 -0.39688,-0.548145 -0.39688,-0.815525 0,-0.674568 1.942367,-1.272704 2.665797,-0.820912 0.76455,0.477472 0.94295,0.40522 2.1007,-0.850791 0.59027,-0.640371 1.37999,-1.241306 1.75494,-1.335411 0.67112,-0.168441 0.67406,-0.179726 0.18899,-0.726183 -0.76984,-0.867283 -2.59278,-1.555414 -4.53602,-1.712283 -3.191927,-0.257664 -6.082067,1.390579 -7.096647,4.047218 -0.59954,1.56987 -0.39753,4.356348 0.41465,5.719616 0.73409,1.232183 0.91121,1.252792 0.69127,0.08044 z m 23.355687,-7.580688 c 0.45811,-0.159697 0.77159,-0.389594 0.69663,-0.510884 -0.075,-0.12129 -0.0228,-0.290653 0.11585,-0.376362 0.13868,-0.08571 0.43558,-0.523531 0.65977,-0.972939 0.42409,-0.850114 0.27585,-1.470617 -0.5482,-2.294667 -0.19529,-0.1953 -0.35904,-0.495411 -0.36389,-0.66692 -0.0278,-0.983922 -2.06258,-2.296205 -3.56047,-2.296205 -2.04029,0 -4.65705,2.147015 -4.60643,3.77952 0.0678,2.185826 0.85846,2.746716 4.18472,2.968464 0.93366,0.06224 1.82067,0.236286 1.97115,0.38676 0.34135,0.341352 0.42639,0.34037 1.45087,-0.01678 z m 2.15647,-0.503394 c 0,-0.14552 -0.0525,-0.264583 -0.11668,-0.264583 -0.0642,0 -0.19026,0.119063 -0.2802,0.264583 -0.0899,0.145521 -0.0374,0.264584 0.11668,0.264584 0.15411,0 0.2802,-0.119063 0.2802,-0.264584 z m 11.50937,-1.852083 c 0.46481,-0.513612 0.46213,-0.529166 -0.0913,-0.529166 -0.3136,0 -0.57018,0.04979 -0.57018,0.110651 0,0.06086 -0.0723,0.298984 -0.1606,0.529167 -0.22476,0.585734 0.24963,0.52188 0.82206,-0.110652 z m -5.00541,-2.55248 c 0.094,0.244851 0.30611,0.415869 0.47145,0.380042 0.16535,-0.03583 0.56476,0.163896 0.88758,0.443833 0.32282,0.279935 0.88519,0.548913 1.24969,0.597726 0.52426,0.07021 0.69795,-0.05152 0.83124,-0.582546 0.31362,-1.249593 -0.37822,-3.518263 -1.44239,-4.729808 -1.1215,-1.276813 -3.92318,-1.695331 -5.58752,-0.834668 -0.9214,0.476475 -2.0691,1.822532 -2.28399,2.678747 -0.18196,0.724974 0.56537,1.794291 1.10837,1.585921 0.41148,-0.157901 1.96577,1.598062 1.96577,2.220827 0,0.347163 0.3628,0.109011 1.31448,-0.862877 1.07443,-1.097235 1.34568,-1.261081 1.48532,-0.897197 z m -23.87642,-0.860224 c 0.44613,-0.381823 0.51747,-0.374952 0.85162,0.08204 0.30096,0.411584 0.43529,0.440198 0.76845,0.163698 0.22205,-0.184287 0.67226,-0.266242 1.00046,-0.18212 0.57743,0.148007 0.57534,0.136382 -0.0647,-0.359765 l -0.66146,-0.512715 0.94162,-0.0059 c 0.51789,-0.0032 1.17273,0.168924 1.45521,0.382577 0.71359,0.539734 1.37117,0.498422 1.69491,-0.106484 0.65012,-1.214768 -0.0697,-2.552427 -1.86694,-3.469304 -2.24835,-1.147024 -4.63831,-0.910455 -6.25376,0.619027 -0.846857,0.801796 -1.840607,3.119671 -1.543567,3.600299 0.25896,0.418997 3.134757,0.253738 3.678197,-0.21137 z m 9.17037,-3.49477 c 0,-0.161089 0.16874,-0.228139 0.37498,-0.148997 0.20624,0.07914 0.43356,-0.0088 0.50515,-0.195329 0.2384,-0.621265 4.40553,-0.659273 5.33741,-0.04868 0.79043,0.517909 0.92621,0.524468 0.92621,0.04474 0,-0.688707 -1.32246,-1.960737 -2.50996,-2.414248 -1.6913,-0.645911 -3.40458,-0.343383 -4.55169,0.803727 -0.81987,0.819867 -1.10598,1.668767 -0.69946,2.075288 0.27329,0.273289 0.61736,0.208357 0.61736,-0.116501 z"
       id="path1644" /></g></svg>
