<?xml version="1.0" encoding="UTF-8" standalone="no"?>
<!-- Created with Inkscape (http://www.inkscape.org/) -->

<svg
   width="176.76273mm"
   height="231.34166mm"
   viewBox="0 0 176.76276 231.34159"
   version="1.1"
   id="svg1"
   xml:space="preserve"
   xmlns="http://www.w3.org/2000/svg"
   xmlns:svg="http://www.w3.org/2000/svg"><defs
     id="defs1" /><g
     id="layer1"
     transform="translate(-84.775658,175.00874)"><path
       style="fill:#000000"
       d="m 193.25936,56.208728 c -2.3146,-0.309282 -4.91932,-1.665787 -6.76546,-3.523361 -0.8459,-0.851142 -1.538,-1.714345 -1.538,-1.91823 0,-0.203884 -0.1318,-0.370699 -0.29289,-0.370699 -0.16109,0 -0.22198,-0.184778 -0.13532,-0.410617 0.0867,-0.225839 0.0526,-0.345736 -0.0757,-0.266438 -0.36601,0.226209 -2.00766,-3.482485 -2.92102,-6.598986 -0.29854,-1.018646 -0.63232,-1.971146 -0.74174,-2.116667 -0.22776,-0.302929 -5.10743,-0.368525 -4.92055,-0.06615 0.0674,0.109141 -0.92619,0.197896 -2.20808,0.197235 -3.69545,-0.0019 -8.27874,-0.322168 -8.12689,-0.567871 0.0764,-0.123572 0.075,-0.224676 -0.003,-0.224676 -0.26903,0 -0.97327,1.270376 -1.10405,1.991605 -0.49055,2.705196 -3.70313,9.383212 -4.32814,8.996933 -0.13283,-0.08209 -0.32765,-0.0099 -0.43295,0.160526 -0.11958,0.19347 -0.0768,0.238898 0.11401,0.120992 0.6979,-0.431326 0.22626,0.339162 -0.86049,1.405722 -0.74076,0.727006 -1.28633,1.069883 -1.49608,0.94025 -0.2153,-0.133059 -0.26337,-0.096 -0.1382,0.106539 0.12624,0.204256 -0.42587,0.599862 -1.61277,1.15561 -2.87476,1.346066 -7.13613,1.3577 -10.19802,0.02784 -0.54174,-0.23529 -0.92251,-0.52888 -0.84615,-0.652421 0.0763,-0.123542 -0.0655,-0.14622 -0.3152,-0.0504 -0.28571,0.109638 -0.38994,0.07055 -0.28117,-0.10545 0.0983,-0.159047 -0.0256,-0.264028 -0.28733,-0.2434 -0.25451,0.02006 -0.42768,-0.120328 -0.38747,-0.314122 0.04,-0.192718 -0.0544,-0.271843 -0.20975,-0.175833 -0.55531,0.343203 -4.6294,-3.401098 -4.294,-3.946423 0.081,-0.131625 0.0159,-0.158203 -0.14447,-0.05906 -0.70329,0.434655 -4.61397,-6.670154 -5.99802,-10.897012 -0.49611,-1.515092 -0.89252,-1.79996 -2.89441,-2.079968 -1.98589,-0.277771 -2.91143,-0.738311 -3.40253,-1.693069 -0.40629,-0.789874 -0.458,-1.577621 -0.4017,-6.119752 l 0.0646,-5.213184 -0.72278,-0.754419 c -0.82868,-0.864953 -0.93051,-1.258038 -0.25976,-1.002679 0.37125,0.141337 0.39747,0.110239 0.13229,-0.156901 -0.25615,-0.25805 -0.4019,-0.262002 -0.64637,-0.01753 -0.24448,0.244475 -0.45328,0.186348 -0.92605,-0.257787 -0.33571,-0.31539 -0.61039,-0.655089 -0.61039,-0.754889 0,-0.0998 -0.38695,-0.594552 -0.8599,-1.09945 -0.47294,-0.504899 -1.37162,-1.817754 -1.99708,-2.917455 -2.43906,-4.288488 -3.39525,-8.4431841 -3.12281,-13.5687741 0.23742,-4.46683 1.2734,-8.25648 3.36754,-12.318586 1.43647,-2.7863809 3.77007,-6.2166439 4.16991,-6.1295459 0.18357,0.03999 0.25878,-0.04861 0.16715,-0.19688 -0.16633,-0.269121 0.97882,-1.991978 1.69747,-2.553816 0.30807,-0.240852 0.15056,-0.398044 -0.83628,-0.834568 -0.66871,-0.295803 -1.46632,-0.617324 -1.77247,-0.714491 -0.30615,-0.09717 -0.48919,-0.285795 -0.40675,-0.419172 0.0826,-0.133667 -0.0539,-0.164311 -0.30415,-0.06828 -0.33242,0.127561 -0.39601,0.08037 -0.23744,-0.176203 0.14094,-0.228058 0.11409,-0.287086 -0.0769,-0.169039 -0.38576,0.238411 -6.20693,-2.684898 -6.00312,-3.014678 0.0863,-0.139638 2.8e-4,-0.193783 -0.19115,-0.120321 -0.9448,0.362534 -13.03195,-7.611784 -13.04689,-8.607435 -0.003,-0.217649 -0.19158,-0.365341 -0.41849,-0.328206 -0.475,0.07774 -4.639481,-3.779894 -4.529951,-4.196171 0.03999,-0.151968 -0.03268,-0.211175 -0.161483,-0.131571 -0.128802,0.0796 -0.994955,-0.69468 -1.924785,-1.720631 -1.712228,-1.889228 -2.339832,-2.823741 -1.402897,-2.088937 0.467133,0.366356 0.478309,0.361493 0.145339,-0.06323 -0.198389,-0.253059 -0.461961,-0.39753 -0.585714,-0.321046 -0.578133,0.357306 -4.698214,-6.539172 -6.437808,-10.776052 -3.414173,-8.315409 -4.309939,-16.543413 -2.77444,-25.48446 1.056973,-6.154638 3.459161,-13.760835 7.645803,-24.209378 3.762927,-9.39108 5.522823,-13.28064 5.902796,-13.0458 0.146768,0.0907 0.181489,0.0299 0.0783,-0.13702 -0.101974,-0.16499 -0.05323,-0.54696 0.108315,-0.84882 0.290999,-0.54373 0.298652,-0.54256 0.825185,0.12683 0.7017,0.89206 1.63091,0.87128 2.32306,-0.052 0.30002,-0.40019 0.66585,-0.87141 0.81296,-1.04717 0.1471,-0.17576 0.26746,-0.39243 0.26746,-0.4815 0,-0.0891 0.35719,-0.68108 0.79375,-1.3156 0.43656,-0.63453 0.79375,-1.22016 0.79375,-1.30142 0,-0.35433 0.91214,-1.17019 1.14641,-1.0254 0.1446,0.0894 0.17387,0.0231 0.0665,-0.15067 -0.20632,-0.33383 0.53182,-1.68251 1.79221,-3.27459 0.6228,-0.7867 0.8586,-0.92718 1.15015,-0.68521 0.2017,0.16739 0.29549,0.49001 0.20841,0.71692 -0.0871,0.22691 -0.0737,0.32793 0.0298,0.22449 0.10344,-0.10344 0.34536,-0.0576 0.53759,0.102 0.56089,0.46549 -0.041,1.37971 -0.68236,1.03646 -0.36264,-0.19408 -0.52887,-0.166 -0.63364,0.10703 -0.0781,0.20357 0.0352,0.43815 0.25188,0.52129 0.25129,0.0964 0.32623,0.0417 0.20699,-0.15127 -0.11836,-0.19152 -0.0692,-0.22968 0.13408,-0.10405 0.24386,0.15071 0.22099,0.33539 -0.0952,0.76848 -0.22888,0.31356 -0.48638,0.7487 -0.57223,0.96698 -0.44762,1.13813 -1.29299,2.59447 -1.44977,2.49757 -0.0984,-0.0609 -0.16412,0.0369 -0.14593,0.21725 0.0182,0.18034 -0.4182,1.20049 -0.96976,2.26702 -0.89122,1.72328 -1.05284,1.90141 -1.45201,1.60026 -0.38024,-0.28687 -0.39842,-0.28195 -0.11844,0.032 0.41547,0.46592 0.43223,0.88818 0.0253,0.63666 -0.17861,-0.11039 -0.23404,-0.0732 -0.13348,0.0895 0.16051,0.25971 -1.31629,3.77222 -1.58599,3.77222 -0.0676,0 -0.0617,-0.0992 0.0133,-0.22048 0.075,-0.12127 -0.0352,-0.22049 -0.24477,-0.22049 -0.26832,0 -0.30236,0.0948 -0.11507,0.32047 0.18696,0.22527 -0.1367,1.17493 -1.08961,3.19704 -4.922465,10.44567 -8.250757,19.443396 -9.646442,26.078253 -1.811704,8.612541 -1.603693,17.078845 0.571398,23.256625 0.379635,1.078253 0.684061,2.16882 0.676504,2.423481 -0.0076,0.254661 0.09792,0.463021 0.234398,0.463021 0.136477,0 0.24814,0.160651 0.24814,0.357001 0,0.980057 3.789361,7.271341 6.131905,10.18049 2.633417,3.270384 8.204427,8.470161 11.198307,10.452089 0.58208,0.385336 1.35598,0.905582 1.71979,1.156102 1.63883,1.128528 3.89891,2.55257 5.13469,3.235288 4.84501,2.676688 9.69537,5.297984 10.53954,5.695915 0.54792,0.258287 0.91358,0.590022 0.81901,0.743034 -0.0972,0.157297 -0.0438,0.197931 0.12386,0.09429 0.16209,-0.100175 0.50791,-0.06273 0.76849,0.08321 0.48434,0.27126 4.97341,2.384445 7.35295,3.461332 3.20939,1.452446 7.21907,2.910859 15.7427,5.725978 5.02047,1.658122 9.34808,3.1389125 9.61691,3.2906435 0.98387,0.555306 0.77054,-0.06975 -0.44502,-1.3038585 -0.68599,-0.69646 -1.15506,-1.367649 -1.04238,-1.49153 0.11268,-0.123882 0.0736,-0.150434 -0.0869,-0.059 -0.42704,0.243319 -1.19504,-0.412719 -0.94537,-0.807547 0.15296,-0.241892 0.5905,-0.06636 1.64871,0.661458 0.79227,0.544904 1.59783,1.139562 1.79012,1.321463 0.1923,0.181901 0.46581,0.330729 0.60781,0.330729 0.142,0 0.77655,0.506016 1.4101,1.1244795 2.85727,2.789187 3.05642,2.953482 3.05642,2.521464 0,-0.234636 -0.6031,-1.328322 -1.34022,-2.430413 -0.75725,-1.1321855 -1.25737,-2.1378645 -1.14975,-2.3120055 0.10897,-0.176317 0.076,-0.237459 -0.077,-0.142883 -0.27698,0.171184 -1.40579,-1.116631 -2.39239,-2.729392 -0.9105,-1.48836 -3.23905,-3.5863 -5.09479,-4.590225 -1.62303,-0.878033 -5.36499,-2.024358 -6.60814,-2.024358 -0.31176,0 -0.51298,-0.0893 -0.44714,-0.198437 0.0658,-0.109141 -0.50905,-0.224025 -1.27752,-0.255298 -3.0825,-0.125459 -15.74572,-4.267541 -15.54902,-5.086032 0.0346,-0.144121 -0.11421,-0.194046 -0.33077,-0.110945 -1.11431,0.427601 -13.41817,-7.103934 -12.92058,-7.909048 0.10064,-0.162842 0.0476,-0.202688 -0.12653,-0.09507 -0.35813,0.221336 -1.93973,-0.88131 -1.73628,-1.210487 0.0779,-0.125985 0.0434,-0.200818 -0.0765,-0.166296 -0.4164,0.119833 -1.42267,-0.606803 -1.24297,-0.897562 0.10136,-0.164007 0.0607,-0.218098 -0.0927,-0.123301 -0.26062,0.161071 -1.13253,-0.696747 -3.77725,-3.716189 -2.47031,-2.820326 -4.89579,-6.524552 -4.59299,-7.014485 0.0973,-0.157371 0.0555,-0.211111 -0.0929,-0.119423 -0.5622,0.347456 -2.86451,-5.651226 -3.78988,-9.874528 -0.40477,-1.847315 -0.553,-10.87785 -0.2215,-13.49375 0.52297,-4.126806 2.17496,-11.25685 3.67813,-15.874999 1.72426,-5.297365 5.49252,-13.680674 7.61146,-16.933334 0.42659,-0.65484 1.46928,-2.26219 2.31708,-3.57187 2.00612,-3.09907 6.39547,-8.76901 8.58014,-11.08339 3.21029,-3.40088 3.4552,-3.62517 3.75581,-3.43938 0.1727,0.10673 0.22613,0.067 0.12654,-0.0942 -0.0948,-0.15339 0.7201,-1.08081 1.8109,-2.06092 12.24524,-11.00278 28.16331,-16.8596 42.83542,-15.76069 8.35095,0.62548 14.19729,2.19922 22.32546,6.00967 3.61986,1.69698 9.86423,5.78193 11.94657,7.81522 0.49937,0.48761 0.80837,0.70797 0.68668,0.48969 -0.12169,-0.21828 0.15011,-0.0512 0.604,0.37122 0.4539,0.42245 0.75157,0.88733 0.6615,1.03307 -0.0901,0.14573 -0.048,0.19345 0.0934,0.10602 0.34814,-0.21516 7.28566,6.76653 7.18241,7.22814 -0.045,0.20109 0.0968,0.37104 0.31508,0.37765 0.21828,0.007 1.34938,1.2778 2.51354,2.82485 1.16417,1.54705 2.41433,3.20103 2.77813,3.67551 0.3638,0.47448 0.62373,1.03637 0.57762,1.24863 -0.0461,0.21226 0.0381,0.31056 0.18717,0.21844 0.14905,-0.0921 0.47141,0.22335 0.71636,0.70105 0.24494,0.4777 0.76813,1.3448 1.16265,1.92688 0.39452,0.58208 0.65913,1.23693 0.58803,1.45521 -0.0711,0.21828 -0.0387,0.31268 0.072,0.20978 0.40064,-0.37242 2.67211,3.55854 2.35385,4.07351 -0.10135,0.16398 -0.0651,0.22338 0.0812,0.13296 0.35218,-0.21766 2.83705,4.982425 2.57978,5.398689 -0.11895,0.192466 -0.0876,0.252535 0.0782,0.150027 0.16433,-0.101566 0.62263,0.714159 1.12906,2.00964 0.46884,1.199329 1.06634,2.662341 1.32776,3.251138 0.42099,0.948156 1.50421,4.269871 1.69519,5.198284 0.0391,0.190168 0.14354,0.524354 0.23206,0.742635 0.40873,1.007954 1.51768,5.738512 2.0468,8.731249 0.65626,3.711858 1.07517,13.758333 0.57369,13.758333 -0.14889,0 -0.21019,0.231439 -0.13622,0.51431 0.17407,0.665629 -0.54199,4.18534 -1.36341,6.701697 -0.84445,2.586891 -3.30956,7.731646 -4.00169,8.351633 -0.10749,0.09629 -0.0984,0.0078 0.0202,-0.196542 0.14616,-0.251949 0.11584,-0.30996 -0.0942,-0.180155 -0.17038,0.105299 -0.24111,0.302567 -0.15718,0.438372 0.0839,0.135806 -0.23196,0.782422 -0.70199,1.436926 -0.79783,1.110959 -1.3012,1.607903 -0.87038,0.859279 0.10875,-0.188985 0.0885,-0.23768 -0.0472,-0.113618 -0.13062,0.119411 -0.239,0.417068 -0.24086,0.661458 -0.002,0.244391 -0.1522,0.414581 -0.3341,0.378201 -0.1819,-0.03638 -0.30096,0.07727 -0.26458,0.252557 0.0364,0.175287 -0.11245,0.326787 -0.33073,0.336667 -0.23437,0.01061 -0.36255,0.215993 -0.31304,0.501599 0.0502,0.289589 -0.0294,0.413638 -0.19843,0.309176 -0.15526,-0.09595 -0.28246,-0.0186 -0.28268,0.171886 -2.2e-4,0.19049 -1.07179,1.411849 -2.38125,2.714133 -1.30947,1.302284 -2.38085,2.258057 -2.38085,2.123941 0,-0.134116 -0.18367,0.01837 -0.40815,0.338867 -0.58736,0.838569 -3.76265,3.044488 -4.09061,2.8418 -0.15227,-0.09411 -0.24414,-0.04838 -0.20415,0.10161 0.0894,0.335364 -4.29259,3.237637 -4.60077,3.047173 -0.12173,-0.07523 -0.22132,-0.0305 -0.22132,0.09941 0,0.512467 -9.19527,4.585614 -13.36146,5.918607 -1.71764,0.549567 -6.85653,1.814056 -7.38153,1.816319 -1.14988,0.005 -6.3492,1.329655 -7.76776,1.979093 -1.89011,0.86532 -5.43623,3.829184 -6.12804,5.121842 -0.16611,0.310375 -0.43147,0.535738 -0.5897,0.500806 -0.15822,-0.03493 -0.32261,0.144025 -0.36529,0.397681 -0.0427,0.253657 -0.42318,0.908501 -0.84555,1.455209 -0.42236,0.546707 -1.11289,1.551118 -1.53451,2.232023 -0.42162,0.6809055 -0.87901,1.1685245 -1.01642,1.0835985 -0.13741,-0.08493 -0.17708,-0.03669 -0.0882,0.107192 0.0889,0.14388 -0.0875,0.765196 -0.39201,1.3807 -0.44765,0.904788 -0.48868,1.179198 -0.21427,1.432925 0.205,0.189547 0.27496,0.19821 0.17666,0.02188 -0.0895,-0.160572 0.8196,-1.232135 2.02025,-2.38125 2.7746,-2.6554955 3.31325,-3.0733225 3.67435,-2.8501535 0.1772,0.109515 0.21846,0.06036 0.10433,-0.124309 -0.12001,-0.194171 0.0154,-0.305463 0.37161,-0.305463 0.35622,0 0.49161,-0.111293 0.37161,-0.305464 -0.11521,-0.186411 -0.0728,-0.233757 0.1089,-0.121479 0.3973,0.245543 1.91415,-0.555578 1.83266,-0.967915 -0.0353,-0.178714 0.0846,-0.295168 0.26652,-0.258788 0.1819,0.03638 0.33073,-0.05292 0.33073,-0.198438 0,-0.14552 0.17859,-0.264583 0.39687,-0.264583 0.21828,0 0.39688,-0.09995 0.39688,-0.222114 0,-0.196866 1.13333,-0.836219 1.48231,-0.836219 0.22829,0 -2.67394,2.617692 -4.85575,4.379685 -1.39416,1.1258965 -0.91403,1.5904235 0.81991,0.79326 0.45855,-0.210817 3.03639,-1.156182 5.72852,-2.10081 10.85237,-3.807924 11.76754,-4.154041 17.06563,-6.454192 3.29063,-1.428618 15.19041,-7.303404 18.52083,-9.143523 3.62956,-2.005399 3.63788,-2.010418 7.61183,-4.59212 0.98504,-0.639942 1.92617,-1.079982 2.0914,-0.977868 0.17288,0.10685 0.22799,0.06849 0.12981,-0.09036 -0.0938,-0.151815 0.27473,-0.610006 0.81902,-1.018203 0.54428,-0.408197 1.22773,-0.950151 1.51877,-1.204343 0.29105,-0.254191 1.25164,-1.050854 2.13465,-1.770361 2.20118,-1.793595 6.30325,-6.270361 7.99823,-8.728818 2.90508,-4.213627 5.53497,-10.402025 6.71084,-15.791299 0.56098,-2.571055 0.40841,-11.787097 -0.24999,-15.101147 -0.97955,-4.930579 -4.23364,-15.493 -6.18889,-20.088435 -3.39413,-7.977251 -4.34283,-10.104231 -6.8805,-15.426021 -0.9925,-2.0814 -1.80454,-3.82394 -1.80454,-3.87231 0,-0.0484 -0.78986,-1.50056 -1.75524,-3.2271 -1.67106,-2.9886 -2.49939,-4.32677 -5.44781,-8.8009 -0.70951,-1.07668 -1.22592,-2.12466 -1.14756,-2.32885 0.0784,-0.20419 0.0337,-0.30402 -0.0993,-0.22185 -0.13297,0.0822 -0.86469,-0.8939 -1.62606,-2.16907 -1.84136,-3.08397 -1.8409,-3.07981 -0.14521,-1.29161 3.5614,3.75572 5.2411,5.65598 6.39801,7.23816 0.50936,0.69658 0.75301,0.21788 0.39549,-0.77704 -0.62431,-1.73736 -1.6148,-5.31185 -1.50291,-5.42373 0.57253,-0.57253 14.66396,8.8727 15.83025,10.61072 0.74922,1.11649 0.24977,-3.09758 -0.89074,-7.5156 -1.07917,-4.18045 -3.355,-9.4898 -5.4063,-12.61255 -0.49416,-0.75226 -0.89847,-1.48648 -0.89847,-1.6316 0,-0.14511 -0.0962,-0.30353 -0.21384,-0.35203 -0.46173,-0.19044 -1.92035,-2.62392 -1.74389,-2.90943 0.10989,-0.1778 0.071,-0.23131 -0.0939,-0.12935 -0.15474,0.0956 -0.5855,-0.2134 -0.95726,-0.68673 -0.37175,-0.47333 -0.8632,-1.07331 -1.0921,-1.33328 -0.2289,-0.25996 -0.35037,-0.57916 -0.26993,-0.70932 0.0804,-0.13015 0.007,-0.3228 -0.16352,-0.4281 -0.19347,-0.11957 -0.2389,-0.0768 -0.12099,0.11401 0.33831,0.54739 -0.1636,0.32169 -0.79166,-0.356 -0.33716,-0.3638 -0.55069,-0.66146 -0.47452,-0.66146 0.0762,0 -0.28457,-0.399 -0.80165,-0.88667 -0.51709,-0.48767 -0.85298,-0.98301 -0.74645,-1.10075 0.10654,-0.11775 0.0695,-0.14362 -0.0824,-0.0575 -0.15187,0.0861 -1.74107,-1.08542 -3.53157,-2.60341 -1.79049,-1.518 -3.3699,-2.76 -3.5098,-2.76 -0.13989,0 -0.1694,-0.13746 -0.0656,-0.30546 0.10697,-0.17307 0.0735,-0.23422 -0.0772,-0.14108 -0.3119,0.19276 -2.09426,-1.06652 -2.00178,-1.41429 0.0346,-0.13024 -0.0922,-0.17725 -0.2818,-0.10449 -0.18963,0.0728 -0.64839,-0.13987 -1.01946,-0.47254 -0.37108,-0.33267 -0.81834,-0.63745 -0.99392,-0.67731 -0.61329,-0.13921 -1.59851,-0.91339 -1.45594,-1.14407 0.0791,-0.12794 -0.0605,-0.15421 -0.31026,-0.0584 -0.33242,0.12756 -0.39601,0.0804 -0.23744,-0.1762 0.13716,-0.22194 0.11379,-0.28691 -0.0637,-0.17718 -0.37956,0.23458 -2.46714,-0.90363 -2.26303,-1.23388 0.0892,-0.14426 0.0299,-0.18055 -0.13179,-0.0807 -0.16165,0.0999 -1.3409,-0.3403 -2.62057,-0.97823 -1.27967,-0.63793 -2.88982,-1.37137 -3.57811,-1.62987 -0.70638,-0.2653 -1.17833,-0.58828 -1.08359,-0.74156 0.0944,-0.15282 0.0387,-0.19175 -0.12748,-0.089 -0.16243,0.10039 -1.33653,-0.11934 -2.60913,-0.48828 -1.2726,-0.36894 -2.67616,-0.68299 -3.11901,-0.69788 l -0.80519,-0.0271 0.85964,-0.20403 c 1.52599,-0.36218 6.98501,-0.2802 9.4537,0.14198 2.99507,0.51219 5.19005,1.18421 4.97969,1.52458 -0.0887,0.14349 -0.0372,0.18421 0.1145,0.0905 0.64441,-0.39827 6.40577,2.50171 10.32204,5.19561 1.75303,1.20586 1.87755,1.35067 1.45521,1.69234 -0.41313,0.33422 -0.39672,0.34197 0.15546,0.0734 0.66848,-0.32515 0.90251,-0.18909 2.51425,1.4617 0.42623,0.43657 0.67633,0.61516 0.55579,0.39688 -0.12055,-0.21828 0.25063,0.0137 0.82485,0.51544 0.57422,0.50178 1.00435,1.03756 0.95584,1.19063 -0.0485,0.15307 0.003,0.1869 0.11492,0.0752 0.24876,-0.24876 4.62456,4.056 4.43489,4.3629 -0.0744,0.12042 0.0224,0.18623 0.21507,0.14625 0.19272,-0.04 0.33464,0.13099 0.31538,0.37994 -0.0193,0.24896 0.0861,0.42755 0.23422,0.39688 0.28423,-0.0589 4.36621,5.16092 4.98623,6.3761 0.19977,0.39153 0.58932,1.0307 0.86567,1.42038 0.27636,0.38968 0.43118,0.89427 0.34406,1.12131 -0.0944,0.24599 -0.0286,0.38735 0.1628,0.34982 0.68245,-0.13379 4.31388,8.06745 5.71271,12.90161 1.85703,6.41765 1.75218,13.52416 -0.24747,16.77343 l -0.55291,0.89842 -1.50181,-1.45536 c -0.826,-0.80045 -2.27572,-2.09019 -3.2216,-2.86608 -0.94589,-0.77589 -1.70483,-1.55765 -1.68654,-1.73724 0.0183,-0.17959 -0.12091,-0.26736 -0.30935,-0.19505 -0.18844,0.0723 -0.65699,-0.0745 -1.04124,-0.32628 -0.53905,-0.3532 -0.61947,-0.51458 -0.3521,-0.70653 0.24708,-0.17737 0.2037,-0.20221 -0.15114,-0.0865 -0.51215,0.16697 -2.39703,-1.03258 -2.1784,-1.38633 0.0616,-0.0997 -0.16004,-0.18119 -0.49251,-0.18119 -0.76275,0 -0.79372,-0.0843 2.14658,5.84139 1.34086,2.70228 2.18584,4.70349 2.0671,4.89562 -0.11822,0.19129 -0.0912,0.25723 0.0656,0.16031 0.15306,-0.0946 1.08873,1.77369 2.19905,4.39089 1.06295,2.50554 2.26726,5.34054 2.67625,6.29998 1.78069,4.177363 4.76291,12.90316 5.91453,17.305553 2.81243,10.751278 2.81096,18.839657 -0.005,27.318343 -1.22713,3.694861 -1.9806,5.384646 -2.31019,5.180953 -0.15545,-0.09607 -0.19539,-0.04173 -0.0921,0.125349 0.3288,0.531998 -2.7328,6.042594 -3.14844,5.666909 -0.11656,-0.105356 -0.13394,-0.05513 -0.0386,0.111613 0.0953,0.166743 -0.0733,0.583462 -0.37461,0.926042 -0.30135,0.34258 -0.46091,0.455648 -0.35458,0.251263 0.12407,-0.238476 0.088,-0.306533 -0.10058,-0.189964 -0.16165,0.0999 -0.23516,0.334749 -0.16335,0.521877 0.15002,0.39095 -4.13243,5.595946 -4.60411,5.595946 -0.17163,0 -0.31609,0.119063 -0.32101,0.264583 -0.005,0.145521 -0.56252,0.826603 -1.2391,1.513517 -0.95535,0.969935 -1.30934,1.183218 -1.58461,0.954763 -0.27528,-0.228461 -0.3191,-0.202036 -0.19617,0.118303 0.16708,0.435396 -1.59062,2.287684 -2.18354,2.30105 -0.17467,0.0039 -0.41619,0.183363 -0.53671,0.398725 -0.12053,0.215361 -0.61939,0.686864 -1.10859,1.047784 -0.71021,0.523974 -1.00195,0.602083 -1.44766,0.387588 -0.50431,-0.242692 -0.51434,-0.233083 -0.10388,0.09951 0.41956,0.339961 0.3905,0.415335 -0.37966,0.984735 -0.45869,0.339128 -0.99056,0.616596 -1.18193,0.616596 -0.19137,0 -0.34795,0.08848 -0.34795,0.196628 0,0.225697 -4.01006,2.707896 -7.61197,4.711759 -2.23628,1.244113 -5.76795,2.982858 -9.18907,4.524046 -0.7276,0.32778 -1.36445,0.63338 -1.41523,0.679111 -0.0508,0.04573 0.45308,0.847443 1.11967,1.781583 0.66659,0.93414 1.12485,1.794736 1.01836,1.912435 -0.1065,0.117699 -0.0541,0.134079 0.1165,0.0364 0.37945,-0.217291 2.85672,3.646593 2.60209,4.058581 -0.0954,0.154342 -0.0242,0.247906 0.15827,0.20792 0.78669,-0.172422 3.66003,7.6313489 4.21061,11.43567788 0.52157,3.60388102 0.15019,7.96481902 -0.98022,11.51037012 -0.91559,2.871758 -3.5607,7.447343 -4.10926,7.108313 -0.17809,-0.110063 -0.21294,-0.05553 -0.0908,0.142081 0.20764,0.335958 -2.28959,3.017951 -3.02685,3.250814 -0.33224,0.104935 -0.41842,1.105996 -0.52917,6.146487 l -0.13229,6.021135 -0.68789,0.591126 c -0.73766,0.633901 -4.7199,1.642934 -5.42148,1.373714 -0.22022,-0.08451 -0.34019,-0.05621 -0.26658,0.06288 0.21436,0.346843 -0.9036,3.775217 -1.17614,3.606779 -0.13588,-0.08398 -0.17595,0.03261 -0.089,0.259078 0.18016,0.469486 -2.19635,5.500063 -3.14544,6.658237 -0.34375,0.419479 -0.88815,1.198346 -1.20977,1.730816 -0.82822,1.371155 -3.97937,4.259976 -4.44988,4.079425 -0.21026,-0.08068 -0.31538,-0.03843 -0.23359,0.09391 0.19436,0.314492 -2.27095,1.693861 -3.95768,2.214363 -1.76587,0.544922 -3.88058,0.704235 -5.85175,0.440842 z m -40.92093,-5.418031 c 1.67611,-0.497752 3.66301,-2.232827 4.66493,-4.073683 0.92476,-1.699097 2.35582,-5.891772 2.09035,-6.124266 -0.24297,-0.212791 -4.90865,-0.779643 -6.41713,-0.779643 -0.59917,0 -1.03435,-0.0893 -0.96705,-0.198437 0.0673,-0.109141 -0.41647,-0.194191 -1.07503,-0.189 -1.08225,0.0085 -2.83568,-0.141589 -6.12557,-0.52444 -0.636,-0.07401 -1.30903,-0.261274 -1.49563,-0.416138 -0.24342,-0.202019 -0.36964,-0.190464 -0.44676,0.0409 -0.0673,0.201963 -0.24402,0.238094 -0.47282,0.09669 -0.51844,-0.320413 -3.4399,-0.443834 -3.4399,-0.145324 0,0.136457 0.44039,1.177434 0.97864,2.313283 0.53825,1.135848 0.96841,2.212725 0.95592,2.39306 -0.0125,0.180335 0.0574,0.278344 0.15539,0.217798 0.2711,-0.16755 2.72563,3.520015 2.54141,3.818089 -0.0952,0.154022 0.0245,0.189213 0.29309,0.08615 0.33242,-0.12756 0.39602,-0.08037 0.23745,0.176203 -0.13092,0.211838 -0.11337,0.28664 0.0444,0.189139 0.26557,-0.164132 2.84074,2.263044 2.62739,2.476394 -0.0642,0.06417 0.1413,0.132519 0.45659,0.151886 0.3153,0.01937 1.04952,0.222499 1.6316,0.451407 1.34498,0.52892 2.08952,0.536821 3.76273,0.03993 z m 46.44262,-0.589092 c 1.68666,-0.917141 4.15432,-3.327828 5.43541,-5.309918 0.57504,-0.8897 1.12009,-1.562912 1.21123,-1.496026 0.0911,0.06689 0.11128,0.04734 0.0448,-0.04344 -0.0665,-0.09078 0.10884,-0.615489 0.3897,-1.166022 0.59912,-1.174385 1.3094,-3.147713 1.3149,-3.653119 0.003,-0.259904 -0.25985,-0.313754 -0.98834,-0.202612 -0.5457,0.08326 -1.76609,0.218213 -2.71198,0.299907 -0.94588,0.08169 -2.37463,0.259475 -3.175,0.39507 -0.80036,0.135594 -1.69333,0.250872 -1.98437,0.256173 -0.29104,0.0053 -0.94589,0.05894 -1.45521,0.119199 -0.50932,0.06026 -2.89057,0.30573 -5.29167,0.545493 -2.40109,0.239763 -4.50495,0.479091 -4.67525,0.53184 -0.21353,0.06614 -0.0629,0.819535 0.4853,2.427412 1.56665,4.594877 3.58003,7.170287 6.29117,8.047315 1.14964,0.371898 3.74584,-0.0098 5.10935,-0.75127 z M 166.8091,34.975331 c -0.0359,-0.322401 -0.0753,-9.252211 -0.0874,-19.844023 l -0.0221,-19.2578391 -1.21256,-0.519764 c -0.66691,-0.28587 -1.23245,-0.519746 -1.25677,-0.519725 -0.0243,2.2e-5 -0.0658,5.40739898 -0.0921,12.016395 -0.043,10.7780531 -0.0947,12.1072511 -0.50218,12.8983981 -0.79949,1.552302 -1.37596,1.880263 -3.04514,1.73241 -1.81945,-0.161164 -2.51907,-0.56503 -3.17366,-1.832015 -0.4803,-0.92965 -0.50716,-1.693908 -0.50716,-14.4281751 v -13.446527 l -1.25677,-0.357842 c -2.79954,-0.797119 -13.17196,-4.3080149 -13.47816,-4.5621429 -0.62205,-0.516252 -0.92974,-0.0649 -1.92832,2.82865 -0.55079,1.5960179 -1.07669,3.0814039 -1.16867,3.3008569 -0.12418,0.29628 0.29353,0.615728 1.62245,1.240791 2.17608,1.023531 4.30659,2.94509 5.17099,4.663844 l 0.64201,1.27655698 0.9753,-1.46936098 c 0.53642,-0.808148 1.15276,-1.858849 1.36964,-2.33489 l 0.39433,-0.86553 -0.16463,1.190625 c -0.2793,2.019971 -1.2255,5.55625 -1.48669,5.55625 -0.13624,0 -0.18334,0.104158 -0.10466,0.231463 0.221,0.35758 -0.75765,3.000558 -1.02179,2.759491 -0.12884,-0.117585 -0.15345,-0.07359 -0.055,0.09831 0.24634,0.430075 -0.44674,2.368888 -1.99841,5.5902731 -1.165,2.418625 -1.36308,2.68889 -1.75463,2.39401 -0.37256,-0.280576 -0.38982,-0.274576 -0.11066,0.03848 0.39848,0.446859 0.43882,0.892253 0.0596,0.657875 -0.14912,-0.09217 -0.2446,-0.06943 -0.21216,0.05053 0.11591,0.428666 -0.35331,1.413469 -0.60064,1.260613 -0.13864,-0.08569 -0.21937,-0.05025 -0.17938,0.07874 0.12778,0.412262 -1.46126,2.697204 -1.75828,2.528274 -0.15713,-0.08937 -0.19991,-0.06755 -0.0951,0.0485 0.10484,0.116045 -0.0556,0.556787 -0.35655,0.979426 -0.46912,0.658815 -0.60954,0.719691 -0.98437,0.426741 -0.38271,-0.299111 -0.39557,-0.288366 -0.10321,0.08622 0.27053,0.346607 0.26591,0.484424 -0.0243,0.725309 -0.19708,0.163565 -0.44297,0.212757 -0.54641,0.109315 -0.10344,-0.103443 -0.11825,-0.0061 -0.0329,0.216276 0.19158,0.499251 -1.59224,2.199968 -2.02618,1.931781 -0.18817,-0.116294 -0.226,-0.06623 -0.1018,0.13473 0.21191,0.342873 -0.38896,0.950644 -2.69152,2.722432 l -1.38502,1.065751 0.0128,2.843348 0.0128,2.843347 1.37222,0.301749 c 1.98711,0.436962 11.90822,1.859884 15.9243,2.283922 8.14647,0.860146 9.73835,0.995307 13.62605,1.156947 2.25557,0.09378 4.17013,0.07711 4.25458,-0.03706 0.0845,-0.114161 0.12414,-0.471348 0.0882,-0.79375 z M 177.0184,16.860519 V -2.3478841 l -0.64187,0.603008 c -0.37884,0.355897 -0.77508,0.520682 -0.96692,0.402115 -0.19576,-0.120985 -0.25733,-0.09132 -0.15479,0.07459 0.34739,0.56209498 -2.07566,1.62911898 -2.57211,1.13266598 -0.14743,-0.147431 -0.39307,-0.266233 -0.54587,-0.264005 -0.1528,0.0022 -0.0992,0.119468 0.11906,0.260532 0.21828,0.141064 0.27518,0.258304 0.12643,0.260532 -0.3926,0.0059 -2.26931,-1.59156098 -2.13159,-1.81439698 0.064,-0.103604 -0.11346,-0.205687 -0.39442,-0.226851 -0.32352,-0.02437 -0.51083,0.130121 -0.51083,0.421326 0,0.252894 -0.14883,0.62014898 -0.33073,0.81612198 -0.26086,0.281039 -0.26122,0.317092 -0.002,0.170654 0.26064,-0.14708 0.33257,3.15750702 0.34616,15.90233012 0.009,8.848395 0.004,17.131766 -0.0118,18.407491 l -0.0289,2.319501 3.84995,-0.02441 3.84995,-0.02441 z m 8.46667,18.846258 c 5.90986,-0.316073 12.66224,-1.003814 19.44687,-1.980694 2.03729,-0.293338 4.23995,-0.597785 4.89479,-0.676548 0.65485,-0.07876 1.87524,-0.280617 2.71198,-0.448562 1.45141,-0.291315 1.52143,-0.342383 1.52294,-1.110674 8.8e-4,-0.442925 0.0764,-1.766261 0.16786,-2.940748 l 0.16626,-2.135429 -1.34808,-1.03957 c -0.74145,-0.571764 -1.2946,-1.194583 -1.22922,-1.384042 0.0654,-0.189459 -0.004,-0.268506 -0.15427,-0.175659 -0.3735,0.230835 -1.0791,-0.393726 -0.86609,-0.76662 0.0945,-0.165412 0.0709,-0.209031 -0.0524,-0.09693 -0.30113,0.273761 -2.26436,-1.667055 -2.05623,-2.032752 0.0901,-0.158254 0.0642,-0.197348 -0.0575,-0.08688 -0.30201,0.274203 -1.47643,-0.86619 -1.26824,-1.231505 0.0916,-0.160748 0.0721,-0.20701 -0.0433,-0.102804 -0.37394,0.337631 -3.6835,-4.436818 -3.39693,-4.900488 0.0902,-0.146041 0.0483,-0.193981 -0.0932,-0.106533 -0.27162,0.167872 -1.62126,-2.048411 -2.86667,-4.7074441 -1.60786,-3.432883 -3.66396,-9.60133802 -3.92456,-11.773957 -0.0611,-0.509323 -0.18792,-1.283229 -0.28184,-1.719792 -0.16905,-0.785789 -0.16742,-0.787116 0.16201,-0.132291 0.18303,0.363802 0.43028,0.78052 0.54946,0.926041 0.11917,0.145521 0.61743,0.837987 1.10723,1.538814 l 0.89056,1.27422998 0.45646,-0.96192598 c 0.90861,-1.91476 3.49237,-4.077122 6.15206,-5.148695 1.03084,-0.415323 1.03867,-0.328295 -0.39941,-4.4414849 -0.5215,-1.491588 -1.08302,-2.711979 -1.24782,-2.711979 -0.1648,0 -2.55959,0.788622 -5.32175,1.752494 -2.76215,0.963872 -6.12834,2.1060139 -7.48041,2.5380939 l -2.4583,0.7856 0.14338,13.667634 c 0.13876,13.2275121 0.12673,13.6948621 -0.37334,14.5131551 -0.83959,1.373856 -1.6381,1.748027 -3.45065,1.616919 -1.84215,-0.13325 -2.75543,-0.797714 -3.17567,-2.3105 -0.15533,-0.559174 -0.26331,-5.67037 -0.26418,-12.5055951 -9.6e-4,-7.55764402 -0.0948,-11.617552 -0.27088,-11.726409 -0.14818,-0.09158 -0.68396,0.0897 -1.19063,0.40284 l -0.92121,0.569343 V 15.845794 c 0,10.9507 0.0848,19.995151 0.18841,20.098779 0.10363,0.103629 0.78824,0.125948 1.52135,0.0496 0.73312,-0.07635 2.5831,-0.205678 4.11107,-0.287397 z m 22.985,-12.231692 c -0.32911,-0.419644 -0.31975,-0.429002 0.0999,-0.09989 0.25466,0.19972 0.46302,0.408079 0.46302,0.463021 0,0.217761 -0.21727,0.0776 -0.56291,-0.363126 z m -2.11667,-2.116666 c -0.32911,-0.419644 -0.31975,-0.429003 0.0999,-0.0999 0.25466,0.199719 0.46302,0.408079 0.46302,0.463021 0,0.217761 -0.21727,0.0776 -0.56292,-0.363126 z m 12.54294,-4.254116 c 0.4611,-1.027262 0.55757,-1.779416 0.57124,-4.453944 0.009,-1.769876 0.043,-3.1919171 0.0754,-3.1600911 0.24463,0.239902 0.88673,4.3170011 0.91421,5.8048801 0.0303,1.642974 0.074,1.788698 0.40196,1.340553 0.67297,-0.919684 1.22513,-3.383993 1.2094,-5.397594 -0.0125,-1.5988891 -0.20315,-2.4981401 -0.98143,-4.6290951 -1.00032,-2.738919 -0.93407,-3.023417 0.20216,-0.868089 0.36234,0.68733 0.95423,1.627172 1.3153,2.088538 l 0.65649,0.838847 0.19961,-1.162497 c 0.37894,-2.206924 0.52143,-5.399161 0.28809,-6.454162 -0.63273,-2.860751 -1.65005,-5.767666 -2.71679,-7.763034 -1.17835,-2.204128 -3.04708,-5.0963139 -3.79696,-5.8764679 -0.45999,-0.478555 -1.85644,-2.173482 -2.65929,-3.227685 -0.30477,-0.400182 -0.69431,-0.728939 -0.86565,-0.730571 -0.17133,-0.0016 -1.59144,0.499936 -3.15579,1.114596 -2.12548,0.835136 -2.84427,1.236049 -2.84427,1.586416 0,0.257869 0.46415,1.850092 1.03144,3.538273 l 1.03145,3.0694199 1.54824,0.04349 c 1.63948,0.04605 3.72674,0.911893 3.59221,1.490132 -0.04,0.171863 0.0475,0.238203 0.19436,0.147423 0.14688,-0.09078 0.50085,0.21938 0.78659,0.689244 0.51141,0.840943 0.50674,1.288561 -0.0134,1.288561 -0.14552,0 -0.17963,-0.137459 -0.0758,-0.305464 0.11289,-0.182658 0.073,-0.233897 -0.0992,-0.127451 -0.15842,0.09791 -0.77457,-0.07559 -1.36924,-0.385545 -0.90627,-0.472374 -1.36929,-0.539151 -2.8617,-0.412716 -2.2619,0.191624 -2.63461,0.26603 -3.76487,0.751617 l -0.92604,0.397847 0.85349,0.192764 c 1.1743,0.265219 3.19097,1.412611 4.57143,2.60092698 1.23852,1.066132 1.23202,1.232914 -0.0228,0.584044 -0.43409,-0.224478 -0.72652,-0.509659 -0.64983,-0.633734 0.0767,-0.12407498 -0.0447,-0.29623398 -0.26968,-0.38257598 -0.23426,-0.08989 -0.34001,-0.04521 -0.24745,0.104567 0.22059,0.35691198 0.0129,0.33008998 -1.12474,-0.145236 -1.44573,-0.604063 -3.82231,-0.780287 -5.22535,-0.38746 -1.47581,0.413201 -1.71536,0.722247 -0.74021,0.95493998 1.0896,0.260003 3.86625,1.65351 4.22006,2.11790602 0.16865,0.22136 0.40678,0.408738 0.52917,0.416395 0.43722,0.02735 3.55359,3.137923 3.39723,3.390912 -0.0937,0.151632 0.0288,0.185791 0.29708,0.08284 0.34888,-0.133879 0.41676,-0.07152 0.28784,0.26444 -0.0958,0.249552 -0.0478,0.412409 0.11098,0.376664 0.15383,-0.03464 0.41744,0.170124 0.58579,0.455021 0.16836,0.284896 0.44328,0.668691 0.61092,0.852878 0.67848,0.745412 1.47051,2.263362 2.13871,4.0988941 0.58235,1.599674 0.70472,2.37967 0.7,4.461795 -0.004,1.823603 -0.12895,2.770239 -0.45014,3.414087 -0.24443,0.489973 -0.44442,1.06844 -0.44442,1.285481 0,0.660759 2.38798,-2.012723 2.98419,-3.340974 z m -88.70919,3.182553 c 0,-0.116416 -0.10287,-0.324776 -0.22861,-0.463021 -0.4069,-0.447389 -0.82972,-2.691736 -0.82972,-4.404254 0,-2.113515 0.75866,-4.78283 2.00287,-7.0470021 1.1277,-2.05216 2.92462,-4.291865 3.37421,-4.205655 0.1713,0.03285 0.27889,-0.09751 0.23909,-0.289695 -0.14319,-0.6913 4.57164,-3.90263802 6.42331,-4.37500202 0.67164,-0.171339 1.22577,-0.428593 1.23139,-0.57167598 0.006,-0.143084 -0.50748,-0.414655 -1.14022,-0.603492 -1.30179,-0.388508 -3.38177,-0.229288 -5.08509,0.389258 -0.60084,0.218191 -1.22925,0.42139998 -1.39647,0.45157598 -0.16722,0.03018 -0.46488,0.179938 -0.66146,0.332803 -1.06739,0.830022 -0.97976,0.501926 0.15064,-0.56398798 1.49373,-1.408525 2.99483,-2.250684 4.01171,-2.250684 1.01513,0 0.42899,-0.611934 -1.0109,-1.055389 -1.25683,-0.387075 -4.98107,-0.773653 -4.8116,-0.499447 0.10337,0.167262 -0.81087,0.486882 -1.31932,0.461236 -0.13244,-0.0067 -0.34395,0.17217 -0.47002,0.397446 -0.13574,0.242553 -0.40592,0.341786 -0.6625,0.243327 -0.3132,-0.120185 -0.37326,-0.06915 -0.2167,0.184161 0.14428,0.233453 0.11437,0.287261 -0.0896,0.161198 -0.41749,-0.258019 -0.007,-0.983886 1.28882,-2.279853 1.1716,-1.171604 2.72764,-1.702497 4.24072,-1.446863 l 1.0122,0.17101 0.38481,-1.277267 c 0.21165,-0.702497 0.69525,-2.0951139 1.07467,-3.0947049 0.81085,-2.136194 0.85501,-2.699729 0.22684,-2.894946 -0.25466,-0.07914 -1.65365,-0.633494 -3.10885,-1.231895 l -2.64584,-1.088003 -0.61386,0.738016 c -0.33762,0.405909 -1.11131,1.316886 -1.71932,2.024393 -3.14963,3.665078 -5.82359,8.1250509 -6.92784,11.5551709 -0.57351,1.78150498 -0.74067,2.87329398 -0.81706,5.33675 -0.0571,1.839496 0.009,3.1619 0.16237,3.256761 0.14213,0.08784 0.26024,0.539638 0.26247,1.003993 0.002,0.464354 0.11947,1.022874 0.26053,1.241156 0.20876,0.323027 0.25724,0.28962 0.26053,-0.179539 0.002,-0.317028 0.15288,-0.735563 0.33478,-0.930078 0.1819,-0.194515 0.54365,-0.768567 0.80389,-1.27567 0.26024,-0.507103 0.71389,-1.219661 1.00811,-1.583463 l 0.53496,-0.661459 -0.38094,0.79375 c -0.20951,0.436563 -0.47165,1.210469 -0.58254,1.719792 -0.17233,0.791586 -0.23127,0.84921 -0.40597,0.396875 -0.14311,-0.370543 -0.20186,-0.172263 -0.19601,0.661458 0.005,0.654844 -0.0957,2.143125 -0.22282,3.3072921 -0.24194,2.215155 -0.14251,2.770811 0.92323,5.159375 l 0.53124,1.190624 0.0187,-1.243747 c 0.0103,-0.684061 0.16455,-1.874686 0.34283,-2.645833 l 0.32416,-1.402086 0.14862,2.116667 c 0.10495,1.49481 0.33943,2.495913 0.79811,3.407544 0.80454,1.599024 3.16746,3.734882 3.16746,2.86308 z m 4.41681,-0.223175 c 0.11332,-0.295298 -0.12284,-0.675096 -0.73591,-1.183508 -1.01996,-0.845851 -1.29965,-0.928988 -1.29965,-0.386325 0,0.445295 1.25963,2.004675 1.61933,2.004675 0.13715,0 0.32445,-0.195679 0.41623,-0.434842 z m 78.32607,-0.746876 c 0.7342,-1.133593 0.37604,-1.421449 -0.67169,-0.539843 -0.43351,0.364775 -0.93442,0.663228 -1.11313,0.663228 -0.25488,0 -0.25392,0.08556 0.004,0.396875 0.52906,0.63748 1.14762,0.456727 1.78038,-0.52026 z m -51.40476,-0.729237 c 0.35835,-0.511606 0.41188,-2.175778 0.41188,-12.8035621 v -12.215525 l -1.12448,-0.454635 c -0.61846,-0.250049 -1.27635,-0.515011 -1.46199,-0.588804 -0.27106,-0.107756 -0.33338,2.456133 -0.31656,13.023543 0.0115,7.2367421 0.0883,13.0903831 0.17057,13.0080911 0.0823,-0.08229 0.32255,0.0233 0.5339,0.234655 0.55767,0.557664 1.31376,0.471436 1.78668,-0.203763 z m 25.5569,0.05887 c 0.17095,-0.690059 0.12692,-25.8808371 -0.0455,-26.0532961 -0.0906,-0.09056 -0.71484,0.102635 -1.38728,0.429332 l -1.22261,0.593993 v 12.191531 c 0,13.6102301 -0.0231,13.4282661 1.68954,13.3001921 0.51028,-0.03816 0.90806,-0.228324 0.96589,-0.461752 z m -49.43468,-1.52821 c 0.54469,-0.622233 1.37303,-1.693796 1.84077,-2.381249 0.46774,-0.687454 0.97735,-1.33739 1.13247,-1.444302 0.15513,-0.106912 0.19001,-0.196209 0.0775,-0.198438 -0.11249,-0.0022 -0.001,-0.314452 0.24743,-0.693831 0.42497,-0.648589 0.47273,-0.661369 0.79985,-0.214013 0.19134,0.261671 0.34789,0.357759 0.34789,0.213529 0,-0.14423 -0.12819,-0.390426 -0.28487,-0.547102 -0.20343,-0.203432 -0.0414,-0.766917 0.56693,-1.9711451 0.92962,-1.840359 2.09919,-5.078646 2.09919,-5.812223 0,-0.25376 -0.20836,-0.833546 -0.46303,-1.288413 -0.41718,-0.745153 -0.55325,-0.810617 -1.37445,-0.661243 -1.13063,0.205661 -3.12084,1.19906 -4.16871,2.080785 -0.54885,0.461821 -0.87428,0.580394 -1.06619,0.388477 -0.19192,-0.191917 -0.33173,-0.186434 -0.45805,0.01796 -0.1,0.161806 -0.0837,0.277144 0.0363,0.256305 0.64768,-0.112511 0.54773,0.148557 -0.52741,1.377607 -1.44371,1.650371 -3.80852,6.0913781 -4.11382,7.7255371 l -0.22356,1.19665 1.951,1.362183 c 1.07304,0.7492 1.89055,1.459972 1.81668,1.579493 -0.0739,0.119521 0.07,0.200988 0.31973,0.181038 0.24971,-0.01995 0.89968,-0.545374 1.44436,-1.167608 z m 73.00612,0.425456 c 0.40393,-0.388233 1.2761,-1.078562 1.93815,-1.534065 0.66205,-0.455502 1.20372,-0.990452 1.20372,-1.188777 0,-0.823916 -1.05674,-3.661333 -1.97538,-5.3040081 -1.03466,-1.850156 -3.93754,-5.134377 -5.19449,-5.876874 -0.40637,-0.240046 -0.6674,-0.552061 -0.58007,-0.693365 0.0873,-0.141305 0.048,-0.188458 -0.0874,-0.104787 -0.13539,0.08367 -0.95457,-0.08703 -1.82041,-0.379332 l -1.57425,-0.531464 -0.60172,0.699551 c -0.33095,0.384753 -0.60173,0.971928 -0.60173,1.304834 0,1.337602 1.91928,5.857859 3.63685,8.5654291 0.48672,0.767258 0.81809,1.503171 0.73639,1.635364 -0.0817,0.132193 -0.009,0.326505 0.16124,0.431804 0.20652,0.127637 0.23843,0.07601 0.0957,-0.154889 -0.1459,-0.236066 -0.11105,-0.282684 0.10944,-0.14641 0.17793,0.109964 0.25722,0.372669 0.17621,0.583789 -0.081,0.21112 -0.0524,0.325191 0.0636,0.253491 0.11601,-0.0717 0.79761,0.618576 1.51466,1.533946 0.71705,0.915371 1.47501,1.652459 1.68435,1.637976 0.20934,-0.01448 0.71111,-0.34398 1.11504,-0.732213 z m -66.18706,-7.496202 c 0,-0.1455211 -0.11542,-0.08599 -0.25648,0.132291 -0.14106,0.218282 -0.25648,0.515938 -0.25648,0.661459 0,0.145521 0.11542,0.08599 0.25648,-0.132292 0.14106,-0.218281 0.25648,-0.515937 0.25648,-0.661458 z M 133.13132,9.7167529 c 0.32911,-0.419644 0.31975,-0.429003 -0.0999,-0.0999 -0.25466,0.199719 -0.46302,0.4080781 -0.46302,0.4630211 0,0.217761 0.21727,0.0776 0.56291,-0.3631261 z m 79.34125,-0.756087 c 0,-0.218976 -0.51375,-0.342808 -0.63154,-0.152222 -0.0764,0.123641 0.0344,0.224802 0.2463,0.224802 0.21188,0 0.38524,-0.03266 0.38524,-0.07258 z M 145.6426,6.7439699 c -0.17135,-0.171349 -0.2608,-0.0819 -0.2608,0.260804 0,0.342698 0.0894,0.432152 0.2608,0.260803 0.17135,-0.171349 0.17135,-0.350258 0,-0.521607 z m -9.63461,-8.470446 c 0,-0.145521 -0.0525,-0.264583 -0.11668,-0.264583 -0.0642,0 -0.19026,0.119062 -0.2802,0.264583 -0.0899,0.145521 -0.0374,0.264583 0.11668,0.264583 0.15411,0 0.2802,-0.119062 0.2802,-0.264583 z m 38.18346,-3.843053 c 2.16713,-5.0354519 4.45666,-9.2706189 6.44646,-11.9246289 0.3376,-0.450298 0.61382,-0.956314 0.61382,-1.124479 0,-0.168165 0.0893,-0.306568 0.19844,-0.307563 0.24647,-0.0022 1.50487,-1.822666 1.36005,-1.96748 -0.0579,-0.05794 -1.2955,0.200744 -2.75014,0.574855 -2.22783,0.572962 -3.27051,0.684361 -6.61355,0.706588 -2.41509,0.01606 -4.46075,-0.103085 -5.22552,-0.304342 -0.69123,-0.181901 -1.82232,-0.462522 -2.51355,-0.623602 -0.69122,-0.16108 -1.46513,-0.347698 -1.71979,-0.414705 -0.66125,-0.173991 -0.5749,0.26324 0.30805,1.559738 2.32359,3.411904 3.9845,6.19261 3.87275,6.483812 -0.0698,0.181828 0.008,0.302259 0.17365,0.267624 0.30429,-0.06377 2.36535,3.7042469 3.22184,5.8901529 0.57286,1.462027 1.55226,3.46121 1.6485,3.364974 0.039,-0.03898 0.47952,-1.020405 0.97899,-2.180944 z m -42.69476,0.712116 c -0.21092,-0.06788 -0.45622,-0.234601 -0.54511,-0.370503 -0.0889,-0.135902 -0.23635,-0.05233 -0.3277,0.185706 -0.0971,0.252952 -0.0574,0.365629 0.0955,0.271153 0.14385,-0.08891 0.26155,-0.0393 0.26155,0.110246 0,0.149542 0.20234,0.194249 0.44965,0.09935 0.36346,-0.139475 0.37614,-0.196196 0.0661,-0.295952 z m -9.56272,-4.152105 c -0.0815,-0.08146 -0.2294,0.06538 -0.32876,0.326319 -0.14359,0.377084 -0.1132,0.407475 0.14811,0.148112 0.18082,-0.179475 0.26211,-0.39297 0.18065,-0.474431 z m 43.88374,-3.9501099 c 0,-0.21188 -0.10116,-0.322716 -0.2248,-0.246301 -0.12365,0.07641 -0.15631,0.24977 -0.0726,0.385236 0.21395,0.346176 0.29738,0.307196 0.29738,-0.138935 z m 10.31927,-12.827168 c 0.60663,-0.275431 1.14241,-0.481175 1.19063,-0.45721 0.0482,0.02397 0.0562,-0.0077 0.0178,-0.07037 -0.0384,-0.06267 0.21011,-0.419859 0.55229,-0.79375 0.76177,-0.832383 1.76652,-3.174521 1.76652,-4.117904 0,-0.381794 0.0893,-0.638805 0.19843,-0.571137 0.10914,0.06767 0.16163,-2.217258 0.11665,-5.077614 -0.045,-2.860356 -0.008,-5.708736 0.083,-6.329733 0.21765,-1.490802 1.14385,-2.486374 2.34479,-2.520416 1.02791,-0.02914 1.8512,0.503617 1.63777,1.0598 -0.0777,0.202525 -0.0371,0.303851 0.0902,0.22517 0.42755,-0.264243 0.54897,1.014893 0.55261,5.821667 0.005,7.080844 0.63931,9.701924 2.69039,11.123327 1.38585,0.96039 3.98462,1.160988 6.19659,0.478311 0.86222,-0.266105 1.71237,-0.490337 1.88923,-0.498294 0.17686,-0.008 0.50202,-0.251227 0.72258,-0.540599 0.34895,-0.457829 0.43925,-0.474609 0.69558,-0.129256 0.2478,0.333856 0.26986,0.320575 0.13891,-0.08364 -0.0992,-0.306169 0.12796,-0.834164 0.62601,-1.455208 0.42991,-0.536081 0.95786,-1.475499 1.17321,-2.087595 0.55669,-1.582297 0.95236,-5.572484 0.95236,-9.604321 0,-3.322966 0.0261,-3.488126 0.64943,-4.11147 1.1636,-1.163598 3.01661,-0.53726 3.20817,1.084397 0.0507,0.428842 0.21603,1.958837 0.3675,3.399988 0.15146,1.441152 0.40412,2.775389 0.56146,2.964973 0.15734,0.189583 0.19344,0.49874 0.0802,0.687016 -0.16701,0.277712 -0.1277,0.279038 0.20827,0.007 0.22777,-0.184412 0.59478,-0.26597 0.81558,-0.181241 0.57789,0.221756 6.57009,-0.589955 9.05249,-1.226261 2.56252,-0.656843 5.38416,-1.808452 7.38901,-3.015707 0.82066,-0.494176 1.40603,-0.75677 1.30083,-0.583541 -0.1052,0.173228 0.73525,-0.578008 1.86768,-1.669414 1.13243,-1.091406 2.19813,-1.944688 2.36822,-1.896181 0.1701,0.04851 0.22348,0.0024 0.11864,-0.102426 -0.27989,-0.279889 0.84226,-1.742861 1.17778,-1.535498 0.16875,0.104296 0.2087,0.05245 0.0978,-0.126957 -0.10307,-0.166783 0.15468,-0.810257 0.57278,-1.429943 1.55881,-2.31035 2.49435,-4.790071 3.12025,-8.270453 0.76992,-4.28122 0.37683,-7.444916 -1.35339,-10.892418 -0.63328,-1.261814 -1.07894,-2.411472 -0.99036,-2.554796 0.0886,-0.143323 0.0296,-0.179325 -0.13114,-0.08 -0.58316,0.360416 -0.77904,-0.853485 -0.93389,-5.787363 -0.39193,-12.488329 -2.11991,-18.481313 -8.2047,-28.455697 -0.79607,-1.30494 -3.93468,-5.63895 -4.23241,-5.8444 -0.13458,-0.0929 -0.15151,-0.31963 -0.0376,-0.5039 0.13016,-0.21061 0.10034,-0.26909 -0.0803,-0.15745 -0.39564,0.24452 -1.08034,-0.80191 -1.00052,-1.52909 0.0377,-0.34344 -0.0791,-0.59522 -0.27602,-0.59522 -0.25472,0 -0.27378,0.13989 -0.0751,0.55121 0.16707,0.34587 0.0123,0.25552 -0.41544,-0.24253 -0.37494,-0.43656 -0.94517,-1.06164 -1.26717,-1.38906 -0.52629,-0.53513 -0.47907,-0.72948 0.15067,-0.62009 0.11995,0.0208 0.13912,-0.0899 0.0426,-0.2461 -0.12053,-0.19502 -0.27798,-0.19895 -0.50257,-0.0126 -0.24072,0.19978 -0.78883,-0.21221 -2.0763,-1.56062 -0.96208,-1.00763 -1.87768,-2.07206 -2.03467,-2.3654 -0.16909,-0.31594 -0.44557,-0.4719 -0.67828,-0.3826 -0.34827,0.13365 -0.5158,-0.1628 -0.42734,-0.75624 0.0155,-0.1039 -0.13697,-0.12555 -0.33878,-0.0481 -0.36244,0.13908 -0.80543,-0.30808 -0.81329,-0.82096 -0.002,-0.14533 -0.18623,-0.26439 -0.40889,-0.26458 -0.57838,-5e-4 -2.46736,-1.61846 -2.26737,-1.94205 0.092,-0.14888 0.0279,-0.35685 -0.14248,-0.46215 -0.18643,-0.11522 -0.23911,-0.0771 -0.13229,0.0957 0.33123,0.53594 -0.2869,0.57882 -0.76283,0.0529 -0.26029,-0.28761 -0.59425,-0.52293 -0.74214,-0.52293 -0.14788,0 -0.46611,-0.17849 -0.70717,-0.39664 -0.24106,-0.21816 -1.34888,-0.91557 -2.46182,-1.54981 -1.11295,-0.63424 -1.95896,-1.21775 -1.88002,-1.29669 0.0789,-0.0789 -0.0132,-0.13129 -0.20484,-0.11632 -0.1916,0.015 -1.51477,-0.53804 -2.94038,-1.22888 -4.17314,-2.02228 -8.06803,-3.27548 -13.63934,-4.38854 -4.01625,-0.80238 -7.69791,-0.9243 -12.07906,-0.39998 -4.69589,0.56197 -4.32643,0.49592 -7.2333,1.29318 -1.35894,0.37271 -2.60909,0.59851 -2.77812,0.50179 -0.16903,-0.0967 -0.21697,-0.0763 -0.10653,0.0453 0.21529,0.23714 -4.84737,2.28157 -5.79793,2.34136 -0.31353,0.0197 -0.52861,0.1029 -0.47795,0.18486 0.15815,0.25591 -3.33426,1.85631 -3.63937,1.66775 -0.1866,-0.11533 -0.21236,-0.0544 -0.0726,0.1717 0.15857,0.25657 0.095,0.30376 -0.23744,0.1762 -0.24971,-0.0958 -0.38831,-0.0679 -0.30799,0.0621 0.19901,0.322 -2.71246,1.93763 -3.08114,1.70977 -0.1719,-0.10623 -0.22016,-0.0621 -0.11612,0.10628 0.15045,0.24345 -1.3427,1.43487 -3.22311,2.5718 -0.24068,0.14552 -0.61787,0.44367 -0.8382,0.66254 -0.91166,0.90564 -3.05107,2.50729 -3.2589,2.43976 -0.12306,-0.04 -0.15203,0.0433 -0.0644,0.18516 0.1418,0.22945 -0.69205,0.88065 -0.94515,0.73813 -0.0555,-0.0313 -0.0676,-0.004 -0.0269,0.0613 0.15914,0.25392 -3.75587,3.94702 -4.02313,3.79508 -0.15633,-0.0889 -0.19597,-0.0642 -0.0881,0.0549 0.24774,0.27346 -0.30795,0.97054 -0.61996,0.77771 -0.12737,-0.0787 -0.17319,0.0119 -0.10184,0.20135 0.0714,0.18946 -0.25743,0.75581 -0.73063,1.25856 -0.47321,0.50274 -0.97944,1.11725 -1.12496,1.36557 -0.81518,1.39104 -3.14844,4.16852 -3.38105,4.02476 -0.15022,-0.0928 -0.19347,-0.0405 -0.0964,0.11668 0.24138,0.39057 -0.87147,2.21945 -1.21959,2.0043 -0.15686,-0.0969 -0.20221,-0.0476 -0.10333,0.11237 0.29589,0.47875 -0.89295,2.23245 -1.38617,2.0448 -0.32809,-0.12483 -0.35567,-0.0899 -0.11804,0.14962 0.36732,0.37022 0.15556,1.11548 -0.24636,0.86708 -0.15276,-0.0944 -0.20145,-0.0482 -0.1082,0.10267 0.0932,0.15088 -0.41467,1.38966 -1.12869,2.752854 -1.66886,3.18615 -3.04231,7.174708 -3.85473,11.194345 -0.60756,3.00608 -1.45436,12.055031 -1.45436,15.541416 0,1.120033 -0.0877,1.516698 -0.30547,1.382093 -0.18472,-0.114165 -0.23382,-0.07287 -0.12421,0.10448 0.22225,0.359605 -1.24501,2.788111 -1.51899,2.514131 -0.10778,-0.107782 -0.10991,0.0283 -0.005,0.302393 0.14333,0.373507 0.10344,0.444102 -0.15919,0.281784 -0.21901,-0.135357 -0.28682,-0.113665 -0.18083,0.05785 0.0933,0.150931 -0.0856,0.972999 -0.3975,1.826818 -0.45422,1.243384 -0.57201,2.184395 -0.59174,4.727396 -0.0317,4.088036 0.1299,5.091668 1.30449,8.100712 0.533,1.365441 0.98352,2.682239 1.00116,2.926216 0.0176,0.243978 0.10641,0.397648 0.19728,0.341489 0.0909,-0.05616 0.4411,0.399066 0.77831,1.011612 0.3372,0.612546 1.13059,1.728344 1.76308,2.479551 0.73303,0.870623 1.09152,1.518148 0.98876,1.785938 -0.0905,0.235728 -0.0258,0.420106 0.1473,0.420106 0.16968,0 0.23492,-0.119062 0.14498,-0.264583 -0.0899,-0.145521 -0.0608,-0.264583 0.0648,-0.264583 0.34348,0 1.95239,1.731106 1.77436,1.909131 -0.085,0.085 -0.009,0.244397 0.16852,0.354213 0.21809,0.134788 0.25483,0.08926 0.11307,-0.140122 -0.14086,-0.22791 -0.089,-0.295818 0.15755,-0.206245 0.20216,0.07345 0.33485,0.276338 0.29486,0.450866 -0.04,0.174527 0.0353,0.250564 0.16734,0.168969 0.13202,-0.08159 0.52192,0.07177 0.86645,0.340813 0.34453,0.269041 0.89603,0.573647 1.22557,0.676902 0.32953,0.103255 0.53595,0.290001 0.4587,0.414989 -0.0773,0.124989 -0.001,0.313407 0.16933,0.418706 0.20464,0.126474 0.2385,0.07613 0.0998,-0.148334 -0.1155,-0.186884 -0.10413,-0.289412 0.0253,-0.22784 1.55402,0.739457 2.8419,1.279618 3.05094,1.279618 0.14205,0 0.20308,0.0893 0.13562,0.198437 -0.0674,0.109141 0.13388,0.212684 0.44741,0.230096 0.31353,0.01741 1.38465,0.280024 2.38027,0.583582 1.68875,0.514888 8.42983,1.633718 9.84334,1.633718 0.92063,0 1.17011,-0.700651 1.46709,-4.120132 0.30095,-3.465229 0.50689,-4.187119 1.3184,-4.621427 0.46711,-0.24999 0.5338,-0.240685 0.35875,0.05006 -0.17617,0.292618 -0.13419,0.29157 0.23242,-0.0058 0.7049,-0.571779 2.12275,0.0964 1.96423,0.92567 -0.0643,0.336528 -0.0314,0.558995 0.0731,0.494373 0.10456,-0.06462 0.25588,1.57609 0.33627,3.646027 0.0827,2.129822 0.32989,4.452639 0.5694,5.351023 0.53436,2.004348 2.19616,5.443238 2.85807,5.914431 0.27674,0.197 0.437,0.530605 0.35613,0.741346 -0.0868,0.226322 -0.0332,0.312779 0.13119,0.211213 0.15302,-0.09457 0.48343,0.01376 0.73424,0.240735 1.63704,1.481496 5.18548,1.981409 7.1068,1.001223 0.58826,-0.300108 1.15376,-0.461455 1.25667,-0.358549 0.10291,0.102905 0.14741,0.0085 0.0989,-0.209774 -0.0485,-0.218281 0.0351,-0.375614 0.18584,-0.349628 0.15072,0.02599 0.29107,-0.152608 0.31191,-0.396875 0.0208,-0.244267 0.23804,-1.098966 0.48268,-1.89933 0.33598,-1.099135 0.47208,-2.81476 0.55625,-7.011458 0.0618,-3.081277 0.24727,-6.006703 0.41639,-6.567504 0.55344,-1.835125 2.09056,-2.305961 3.3656,-1.030919 0.69901,0.699009 0.74423,0.894907 0.90085,3.902604 0.0907,1.741659 0.19033,4.773996 0.22143,6.738527 0.0311,1.964531 0.13184,3.690937 0.22387,3.836458 0.092,0.145521 0.38504,0.853094 0.65113,1.572384 0.56448,1.525861 2.1597,3.20361 3.38167,3.556611 1.51054,0.436364 4.19671,0.328168 5.39839,-0.217441 z m -10.70514,-34.062336 c -0.2523,-0.101234 -0.26566,-0.228844 -0.051,-0.487463 0.22823,-0.275004 0.17859,-0.320999 -0.23089,-0.213919 -1.25092,0.327125 -1.41943,-2.409181 -0.32392,-5.259963 1.0315,-2.684193 4.26665,-7.276398 4.86543,-6.906332 0.14574,0.09007 0.18836,0.0398 0.0947,-0.11172 -0.21193,-0.342907 0.45436,-0.932227 0.75058,-0.663877 0.11908,0.107878 0.13649,0.05642 0.0387,-0.114355 -0.25548,-0.446084 1.34115,-1.499797 2.39875,-1.583087 0.59869,-0.04715 0.82821,0.02612 0.70522,0.22512 -0.11179,0.180876 -0.0621,0.220691 0.1285,0.102908 0.17408,-0.107587 0.7902,0.160417 1.40038,0.609148 1.29563,0.952817 3.69922,3.725187 3.5038,4.041384 -0.0756,0.122273 -0.025,0.222316 0.11237,0.222316 0.30944,0 1.19257,1.316497 1.19257,1.777783 0,0.186386 0.083,0.338883 0.18435,0.338883 0.45528,0 1.68945,3.402039 1.79329,4.943266 0.10053,1.492091 0.0484,1.697797 -0.59269,2.338897 -0.40937,0.409364 -0.8695,0.639003 -1.10178,0.549868 -0.25581,-0.09816 -0.33172,-0.04444 -0.21167,0.1498 0.25224,0.408142 -1.38216,0.08235 -2.16713,-0.431984 -0.92424,-0.605591 -2.77542,-3.618483 -2.60378,-4.23781 0.11034,-0.398153 0.0831,-0.44002 -0.10723,-0.164654 -0.20023,0.289719 -0.35816,0.175734 -0.73319,-0.529166 -0.2629,-0.494134 -0.45057,-0.996572 -0.41704,-1.116529 0.0335,-0.119957 -0.0528,-0.147781 -0.1919,-0.06183 -0.13907,0.08595 -0.32296,0.04284 -0.40864,-0.09579 -0.0857,-0.138635 -0.38332,-0.234924 -0.66141,-0.213976 -0.2781,0.02095 -0.4468,0.133276 -0.3749,0.249616 0.0719,0.116341 -0.0547,0.282695 -0.28139,0.369676 -0.22667,0.08698 -0.3574,0.246702 -0.2905,0.354937 0.0669,0.108234 -0.11703,0.452945 -0.40871,0.766025 -0.29167,0.31308 -0.46309,0.569236 -0.38093,0.569236 0.0822,0 -0.0373,0.361081 -0.26554,0.802401 -0.22822,0.441321 -0.52757,0.732793 -0.66522,0.647717 -0.13766,-0.08508 -0.19512,3.27e-4 -0.12769,0.189786 0.15129,0.425105 -1.15243,1.889649 -2.31091,2.59599 -0.83995,0.512124 -1.57066,0.624514 -2.26056,0.347697 z m 1.00323,-0.246448 c 0,-0.218977 -0.51375,-0.342808 -0.63154,-0.152223 -0.0764,0.123642 0.0344,0.224802 0.2463,0.224802 0.21188,0 0.38524,-0.03266 0.38524,-0.07258 z m 7.51337,-6.938879 c 0.075,-0.121267 -0.0318,-0.220486 -0.23733,-0.220486 -0.20548,0 -0.31228,0.09922 -0.23733,0.220486 0.075,0.121268 0.18175,0.220487 0.23733,0.220487 0.0556,0 0.16238,-0.09922 0.23733,-0.220487 z m 3.63382,-3.045003 c -0.16208,-0.195291 -0.22826,-0.421493 -0.14708,-0.502673 0.0812,-0.08118 0.0311,-0.21962 -0.11137,-0.307645 -0.14242,-0.08803 -0.23629,-0.01065 -0.2086,0.171943 0.0638,0.420326 0.41721,0.993448 0.61266,0.993448 0.082,0 0.0165,-0.159783 -0.14561,-0.355073 z m -40.6024,5.246991 c -0.7024,-0.199615 -1.45856,-0.513535 -1.68034,-0.697601 -0.22179,-0.184066 -0.55451,-0.356865 -0.73938,-0.383999 -0.63531,-0.09324 -1.72246,-0.95802 -1.55171,-1.234306 0.10262,-0.166038 0.0423,-0.197032 -0.15101,-0.07757 -0.39809,0.246033 -2.13493,-1.532248 -3.32361,-3.402895 -2.03486,-3.202315 -2.94333,-6.927361 -2.70745,-11.101472 0.28823,-5.100587 2.33973,-10.12129 5.49638,-13.451527 1.18338,-1.248457 1.8803,-1.796724 2.10632,-1.657039 0.20819,0.128668 0.27221,0.10267 0.16687,-0.06777 -0.42427,-0.686484 3.53325,-2.299885 6.30685,-2.571172 1.01864,-0.09963 2.60094,-0.05969 3.51622,0.08875 2.05004,0.332495 5.75901,2.106767 5.71093,2.731958 -0.0183,0.237898 0.10547,0.37931 0.27502,0.314247 0.39645,-0.152134 2.58861,1.71364 2.39034,2.034451 -0.0824,0.133297 -0.0254,0.242358 0.12666,0.242358 0.30571,0 1.52694,1.755201 1.65682,2.381249 0.0453,0.218282 0.15367,0.456407 0.24086,0.529167 0.0872,0.07276 0.46997,0.916104 0.85065,1.874096 1.71625,4.319094 1.57087,9.326431 -0.39884,13.73632 -1.02284,2.290006 -2.8495,5.064363 -3.19416,4.85135 -0.15183,-0.09384 -0.20363,-0.05342 -0.1151,0.08981 0.21928,0.354814 -2.24679,2.685067 -4.13292,3.905291 -2.36516,1.530126 -4.1549,2.077494 -7.05877,2.158829 -1.54499,0.04327 -3.00565,-0.06945 -3.79063,-0.292533 z m 66.46679,0.281468 c -0.0651,-0.06506 -0.50236,-0.185946 -0.97178,-0.268647 -0.97822,-0.172337 -3.76064,-1.355037 -3.76064,-1.598503 0,-0.08936 0.13746,-0.07751 0.30547,0.02632 0.18497,0.114318 0.23381,0.07285 0.12382,-0.105121 -0.0999,-0.16165 -0.37596,-0.219344 -0.61345,-0.128209 -0.26741,0.102614 -0.366,0.05922 -0.25896,-0.113975 0.0983,-0.159047 -0.0256,-0.264028 -0.28733,-0.2434 -0.25451,0.02006 -0.42768,-0.120328 -0.38747,-0.314123 0.0418,-0.201431 -0.054,-0.272068 -0.22541,-0.166153 -0.17242,0.106562 -1.06762,-0.579369 -2.12322,-1.626883 -1.64409,-1.631492 -2.3328,-2.567191 -1.51965,-2.064636 0.19078,0.117906 0.23358,0.07248 0.11401,-0.120992 -0.1053,-0.170379 -0.29318,-0.246907 -0.41752,-0.170061 -0.32973,0.203783 -1.39255,-1.395019 -1.16843,-1.757662 0.10949,-0.17716 0.0751,-0.236299 -0.0813,-0.139665 -0.3228,0.199502 -2.06658,-3.496865 -2.43149,-5.154124 -0.79289,-3.601005 -0.59747,-6.947042 0.61503,-10.530891 0.87055,-2.573124 2.08335,-4.530682 4.00895,-6.470749 4.67268,-4.707813 11.35499,-5.395093 17.03256,-1.751802 0.73812,0.473652 1.25826,0.981384 1.16309,1.135361 -0.0947,0.153197 -0.052,0.204282 0.0949,0.113523 0.33576,-0.20751 1.479,0.976651 1.20624,1.249413 -0.11047,0.110471 -0.0712,0.16117 0.0873,0.112663 0.29423,-0.09006 1.22357,0.922233 2.04442,2.226909 0.25178,0.400183 0.36573,0.729428 0.25324,0.731656 -0.1125,0.0022 -0.0756,0.09152 0.0821,0.198437 0.41342,0.280396 1.54834,2.805824 2.22762,4.956886 0.90041,2.851293 1.03236,7.535558 0.29464,10.45923 -0.66009,2.616011 -1.79411,5.104947 -2.20909,4.848477 -0.1726,-0.106675 -0.20756,-0.05118 -0.0888,0.140971 0.25319,0.409664 -1.1115,2.214995 -1.49514,1.977898 -0.17166,-0.106095 -0.21242,-0.0555 -0.1008,0.125117 0.51718,0.836809 -3.72596,3.624299 -6.48523,4.260413 -1.16138,0.267741 -4.80455,0.385364 -5.02759,0.162321 z m -10.22499,-8.489794 c -0.23158,-0.413803 -0.26148,-0.414239 -0.4181,-0.0061 -0.0991,0.258295 -0.0608,0.372913 0.0929,0.277929 0.14386,-0.08891 0.26155,-0.01572 0.26155,0.162647 0,0.178362 0.0704,0.25385 0.15655,0.167751 0.0861,-0.0861 0.0443,-0.357101 -0.0929,-0.602225 z m 4.34605,44.206169 c 0,-0.21188 -0.10116,-0.322715 -0.22481,-0.246301 -0.12364,0.07641 -0.1563,0.249771 -0.0726,0.385237 0.21394,0.346176 0.29738,0.307196 0.29738,-0.138936 z m 39.68749,-0.250996 c 0,-0.212 -0.16107,-0.30984 -0.37496,-0.227763 -0.30857,0.118412 -0.31248,0.183494 -0.0221,0.367598 0.19411,0.123041 0.36284,0.225535 0.37497,0.227763 0.0121,0.0022 0.022,-0.163191 0.022,-0.367598 z m -133.06858,-3.843354 c -0.0212,-0.28096 -0.12763,-0.455741 -0.23658,-0.388402 -0.10896,0.06734 -0.13104,0.297216 -0.0491,0.510837 0.2067,0.538654 0.33141,0.485198 0.28564,-0.122435 z m 122.46547,-4.364174 c 0.0458,-0.311963 -0.10178,-0.339705 -0.91661,-0.172316 -0.0542,0.01113 0.0521,0.201715 0.23614,0.423513 0.3557,0.428593 0.59359,0.340777 0.68047,-0.251197 z m -105.72535,-6.606056 c 0,-0.05719 -0.18478,-0.17489 -0.41062,-0.261553 -0.23546,-0.09035 -0.34166,-0.046 -0.24897,0.103984 0.15538,0.251408 0.65959,0.371858 0.65959,0.157569 z m 111.91874,-0.05679 c 0,-0.218976 -0.51375,-0.342808 -0.63153,-0.152222 -0.0764,0.123641 0.0344,0.224802 0.2463,0.224802 0.21188,0 0.38523,-0.03266 0.38523,-0.07258 z m -29.63333,-1.058333 c 0,-0.218977 -0.51375,-0.342808 -0.63154,-0.152223 -0.0764,0.123641 0.0344,0.224802 0.2463,0.224802 0.21188,0 0.38524,-0.03266 0.38524,-0.07258 z M 119.211,-45.389279 c 0.0922,-0.149127 0.01,-0.238423 -0.18282,-0.198438 -0.19272,0.03999 -0.31768,-0.08498 -0.2777,-0.277694 0.04,-0.192718 -0.0551,-0.271415 -0.21128,-0.174882 -0.19918,0.123098 -0.19146,0.287001 0.0258,0.548833 0.36979,0.445577 0.42803,0.45479 0.64596,0.102181 z m 3.33607,-56.949411 c -0.26131,-0.25937 -0.2917,-0.22897 -0.14811,0.14811 0.0994,0.26094 0.2473,0.40778 0.32876,0.32632 0.0815,-0.0815 1.7e-4,-0.29496 -0.18065,-0.47443 z m 4.46508,-6.64393 c 0,-0.0549 -0.20835,-0.2633 -0.46302,-0.46302 -0.41964,-0.3291 -0.429,-0.31975 -0.0999,0.0999 0.34565,0.44073 0.56292,0.58089 0.56292,0.36313 z m 87.6867,-6.77549 c -0.17135,-0.17135 -0.26081,-0.0819 -0.26081,0.26081 0,0.34269 0.0895,0.43215 0.26081,0.2608 0.17135,-0.17135 0.17135,-0.35026 0,-0.52161 z m -108.86146,-1.72357 c 0,-0.14552 -0.11542,-0.086 -0.25648,0.13229 -0.14107,0.21828 -0.25648,0.51594 -0.25648,0.66146 0,0.14552 0.11541,0.086 0.25648,-0.13229 0.14106,-0.21828 0.25648,-0.51594 0.25648,-0.66146 z m 0.75075,-0.007 c -0.0815,-0.0815 -0.22941,0.0654 -0.32877,0.32632 -0.14358,0.37708 -0.11319,0.40748 0.14812,0.14811 0.18082,-0.17947 0.26211,-0.39297 0.18065,-0.47443 z m 105.42885,0.37164 c -0.16325,-0.16326 -0.23536,-0.49068 -0.16025,-0.72761 0.11539,-0.36394 0.094,-0.37058 -0.13783,-0.0428 -0.26002,0.36766 0.0298,1.06721 0.4421,1.06721 0.084,0 0.0192,-0.13357 -0.14402,-0.29682 z m -103.93384,-3.42563 c -0.0837,-0.13546 -0.0389,-0.2463 0.0997,-0.2463 0.13854,0 0.3219,-0.18245 0.40747,-0.40544 0.12602,-0.32841 0.0355,-0.31584 -0.47637,0.0662 -0.34757,0.25937 -0.52317,0.51152 -0.39021,0.56033 0.13296,0.0488 0.16308,0.21603 0.0669,0.37161 -0.1042,0.1686 -0.0497,0.20552 0.13496,0.0914 0.17038,-0.1053 0.24128,-0.30229 0.15756,-0.43776 z m -0.13862,-2.22184 c -0.18227,-0.18227 -0.34943,-0.14176 -0.51851,0.12567 -0.40142,0.63494 -0.29676,0.82047 0.26495,0.46967 0.35409,-0.22113 0.43584,-0.41306 0.25356,-0.59534 z m 1.71016,-0.36161 c 0.075,-0.12127 -0.0319,-0.22049 -0.23733,-0.22049 -0.20547,0 -0.31227,0.0992 -0.23733,0.22049 0.075,0.12126 0.18175,0.22048 0.23733,0.22048 0.0556,0 0.16239,-0.0992 0.23733,-0.22048 z m 34.2026,-2.28167 c 0,-0.21202 -0.1615,-0.44747 -0.3589,-0.52321 -0.28152,-0.10803 -0.29853,-0.0249 -0.0789,0.38548 0.33356,0.62327 0.43779,0.65606 0.43779,0.13773 z m 88.98819,-36.81696 c 0,-0.21897 -0.51375,-0.3428 -0.63153,-0.15222 -0.0764,0.12364 0.0344,0.2248 0.2463,0.2248 0.21188,0 0.38523,-0.0327 0.38523,-0.0726 z m -1.98625,-1.42369 c 0.0927,-0.14998 -0.0135,-0.19434 -0.24896,-0.10398 -0.45837,0.17589 -0.54224,0.36553 -0.16165,0.36553 0.13693,0 0.32171,-0.1177 0.41061,-0.26155 z m -144.416008,60.83442 c -0.883296,-2.73497 -0.341412,-8.06391 1.31663,-12.94787 1.948462,-5.73942 8.735165,-18.47386 9.483525,-17.7947 0.121157,0.10995 0.141213,0.0617 0.04457,-0.10718 -0.214479,-0.37483 3.837383,-5.80396 4.265483,-5.71536 0.16734,0.0346 0.24478,-0.0921 0.17207,-0.28152 -0.14978,-0.39032 4.21343,-5.17477 8.04929,-8.82642 1.96116,-1.86699 2.69224,-2.4075 3.15369,-2.33165 0.33542,0.0551 0.53183,-0.0127 0.44474,-0.15361 -0.0858,-0.1388 -0.29656,-0.17864 -0.46841,-0.0885 -0.17185,0.0901 0.3362,-0.44374 1.129,-1.18631 1.3231,-1.23926 2.35452,-1.86086 1.62081,-0.9768 -0.37787,0.45531 -0.009,0.74297 0.52225,0.40703 0.21133,-0.13369 0.26075,-0.2449 0.10982,-0.24713 -0.15093,-0.002 -0.28565,-0.21241 -0.29937,-0.46707 -0.0159,-0.2943 0.88254,-1.1231 2.4655,-2.2745 2.19085,-1.59356 2.54515,-1.76862 2.9452,-1.45521 0.40794,0.31959 0.41831,0.30973 0.1007,-0.0958 -0.31775,-0.40573 -0.0735,-0.63464 2.38125,-2.23204 1.50442,-0.97896 2.938,-1.7833 3.18573,-1.78741 0.24773,-0.004 0.39719,-0.0607 0.33214,-0.12576 -0.23303,-0.23303 1.93758,-1.50211 6.49106,-3.7951 2.5456,-1.28189 4.78434,-2.27086 4.97497,-2.1977 0.19063,0.0731 0.28559,0.0343 0.21103,-0.0864 -0.13696,-0.2216 4.17051,-1.99895 8.31017,-3.42894 3.19547,-1.10383 9.33785,-2.59509 13.36146,-3.24392 4.34741,-0.70105 14.88918,-0.99034 19.53991,-0.53622 9.05755,0.88442 17.27324,3.30142 26.44348,7.7795 1.57097,0.76715 2.79316,1.45796 2.71598,1.53515 -0.0772,0.0772 0.66154,0.72314 1.6416,1.43547 0.98007,0.71232 1.84147,1.36922 1.91423,1.45977 0.0728,0.0905 0.37042,0.29966 0.66146,0.4647 1.31862,0.74774 -0.33928,0.20276 -2.66022,-0.87446 -1.4109,-0.65485 -2.65746,-1.19063 -2.77013,-1.19063 -0.11267,0 -0.14813,0.83344 -0.0788,1.85209 0.0693,1.01864 0.0871,1.85099 0.0395,1.84966 -0.45748,-0.0128 -2.56005,-1.27725 -2.4059,-1.44689 0.11146,-0.12267 0.0611,-0.14191 -0.1118,-0.0428 -0.40982,0.23493 -3.80546,-1.43834 -3.59848,-1.77324 0.087,-0.14082 0.0307,-0.17721 -0.1252,-0.0809 -0.40083,0.24772 -4.58201,-1.43257 -4.37962,-1.76005 0.0952,-0.15407 0.0328,-0.18542 -0.14743,-0.074 -0.17191,0.10625 -1.35117,-0.16446 -2.62057,-0.60158 -18.01371,-6.20307 -37.23895,-4.51958 -57.15542,5.0049 -2.08056,0.99497 -3.92603,1.77492 -4.10104,1.73322 -0.17501,-0.0417 -0.21878,-0.0225 -0.0973,0.0427 0.12151,0.0652 -0.23356,0.39277 -0.78905,0.72803 -0.55549,0.33525 -1.1014,0.55305 -1.21312,0.484 -0.11173,-0.0691 -0.20314,-0.003 -0.20314,0.14786 0,0.3175 -1.44018,1.11854 -1.68625,0.9379 -0.0912,-0.067 -0.10595,-0.042 -0.0328,0.0554 0.0732,0.0974 -0.3571,0.46947 -0.95619,0.82672 -0.89619,0.53442 -1.13524,0.58509 -1.34865,0.28586 -0.20321,-0.28493 -0.22857,-0.26717 -0.11709,0.082 0.0965,0.30215 -0.12985,0.61725 -0.70265,0.97833 -0.46472,0.29295 -1.44026,0.95376 -2.16786,1.46848 -1.39925,0.98985 -1.84122,1.15484 -1.64262,0.61321 0.0667,-0.1819 0.26406,-0.29801 0.43859,-0.25803 0.17452,0.04 0.23834,-0.0551 0.1418,-0.21128 -0.2438,-0.39449 -0.98835,0.24589 -0.81404,0.70014 0.0795,0.20721 -1.04919,1.28044 -2.83223,2.69303 -1.63043,1.2917 -3.12783,2.54636 -3.32755,2.78812 -0.48807,0.59083 -0.81944,0.55555 -0.69814,-0.0743 0.0741,-0.38469 -0.01,-0.47227 -0.33255,-0.34832 -0.30311,0.11631 -0.33132,0.19898 -0.0948,0.27782 0.23631,0.0788 0.15344,0.32011 -0.27796,0.80944 -0.60108,0.68182 -0.60151,0.68613 -0.0194,0.19508 0.32743,-0.27617 0.59532,-0.43532 0.59532,-0.35367 0,0.33561 -3.79565,3.76719 -4.12986,3.73374 -0.1993,-0.0199 -0.29387,0.0746 -0.21014,0.21002 0.18526,0.29976 -0.37221,1.01844 -0.78563,1.01282 -0.16408,-0.002 -0.11974,-0.13035 0.0985,-0.28472 0.35278,-0.24949 0.35278,-0.26742 0,-0.16132 -0.21828,0.0656 -0.36167,0.26962 -0.31865,0.45326 0.099,0.42277 -1.00239,1.61673 -1.31386,1.42422 -0.12798,-0.0791 -0.19997,0.0139 -0.15998,0.20659 0.04,0.19272 -0.085,0.31768 -0.2777,0.2777 -0.19271,-0.04 -0.2713,0.0553 -0.17463,0.21169 0.0967,0.15642 -0.34295,0.84398 -0.97693,1.52791 -0.63398,0.68393 -1.92225,2.19602 -2.86282,3.36019 -0.94057,1.16416 -1.80179,2.15635 -1.91382,2.20486 -0.11203,0.0485 -0.20369,0.24984 -0.20369,0.4474 0,0.19757 -0.1177,0.43196 -0.26156,0.52086 -0.15339,0.0948 -0.19777,-0.0355 -0.10733,-0.31511 0.12081,-0.37348 0.0968,-0.39598 -0.11084,-0.10388 -0.14579,0.20508 -0.22043,0.50274 -0.16587,0.66146 0.0546,0.15871 -0.20765,0.64576 -0.58268,1.08232 -0.37504,0.43656 -0.59089,0.62653 -0.47967,0.42214 0.13529,-0.24863 0.0997,-0.30825 -0.10757,-0.18015 -0.17038,0.1053 -0.24141,0.30208 -0.15785,0.43729 0.16573,0.26815 -0.589252,1.49258 -0.831901,1.34919 -0.08208,-0.0485 -0.22862,3.5e-4 -0.325634,0.10857 -0.09701,0.10822 -0.02756,0.11111 0.154341,0.006 0.181901,-0.10468 0.330729,-0.12122 0.330729,-0.0368 0,0.3219 -1.404812,2.2589 -1.638275,2.2589 -0.134771,0 -0.182218,0.10165 -0.105437,0.22588 0.07678,0.12423 -0.23799,0.80884 -0.699491,1.52135 -0.4615,0.71251 -0.852265,1.35501 -0.868367,1.42777 -0.0161,0.0728 -0.919649,1.91823 -2.007881,4.10104 -1.949846,3.91106 -3.506547,7.43305 -5.408691,12.23698 -0.532983,1.34607 -1.07189,2.4474 -1.197572,2.4474 -0.125681,0 -0.1688,0.1556 -0.09582,0.34579 0.07298,0.19019 -0.02975,0.73212 -0.22828,1.20429 l -0.360973,0.85851 z m 23.282818,-40.58519 c 0,-0.21188 -0.10116,-0.32271 -0.2248,-0.2463 -0.12364,0.0764 -0.1563,0.24977 -0.0726,0.38524 0.21395,0.34617 0.29738,0.30719 0.29738,-0.13894 z m 7.34156,-10.72348 c -0.17135,-0.17135 -0.2608,-0.0819 -0.2608,0.2608 0,0.3427 0.0895,0.43215 0.2608,0.2608 0.17135,-0.17134 0.17135,-0.35025 0,-0.5216 z m 4.3883,-2.48493 c 0,-0.0549 -0.20835,-0.2633 -0.46302,-0.46302 -0.41964,-0.3291 -0.429,-0.31975 -0.0999,0.0999 0.34565,0.44073 0.56292,0.58088 0.56292,0.36312 z m 75.28096,-13.87192 c -0.0815,-0.0815 -0.29496,-1.7e-4 -0.47443,0.18065 -0.25936,0.26131 -0.22897,0.2917 0.14811,0.14812 0.26094,-0.0994 0.40778,-0.24731 0.32632,-0.32877 z m -86.6657,46.50524 c -0.26358,-0.1667 -0.28246,-0.24746 -0.0585,-0.2502 0.1819,-0.002 0.33073,-0.18265 0.33073,-0.40093 0,-0.21828 -0.11906,-0.39687 -0.26458,-0.39687 -0.14553,0 -0.26459,0.12609 -0.26459,0.28019 0,0.15411 -0.121,0.20542 -0.2689,0.11401 -0.14789,-0.0914 -0.20668,-0.26685 -0.13064,-0.38989 0.076,-0.12303 -0.001,-0.27026 -0.17212,-0.32716 -0.20113,-0.067 -0.12628,-0.28452 0.21268,-0.61791 0.28769,-0.28295 0.97253,-1.13953 1.52189,-1.90351 1.01378,-1.40986 1.31299,-1.6135 1.62615,-1.10679 0.10472,0.16944 -0.0212,0.24877 -0.31511,0.19844 -0.28258,-0.0484 -0.46161,0.056 -0.42343,0.24689 0.0364,0.1819 -0.0599,0.33073 -0.21405,0.33073 -0.15411,0 -0.19876,0.13177 -0.0992,0.29283 0.12608,0.20401 0.24827,0.18394 0.40284,-0.0661 0.12202,-0.19744 0.34526,-0.37386 0.49609,-0.39205 0.15083,-0.0182 0.38458,-0.048 0.51944,-0.0661 0.37148,-0.0501 1.0932,-1.64285 0.89876,-1.98344 -0.0938,-0.16423 -0.073,-0.21033 0.046,-0.10245 0.11908,0.10788 0.40141,0.0483 0.62739,-0.13229 0.22599,-0.18064 0.14764,0.0471 -0.17409,0.50616 -0.32174,0.45902 -0.58498,0.95511 -0.58498,1.10241 0,0.1473 -0.32742,0.5247 -0.7276,0.83867 -0.40018,0.31398 -0.54901,0.47734 -0.33073,0.36304 0.31534,-0.16514 0.30175,-0.0605 -0.0661,0.50954 -0.25466,0.39455 -0.66974,1.04479 -0.9224,1.44497 -0.25267,0.40018 -0.63962,0.88526 -0.8599,1.07796 -0.3493,0.30555 -0.34977,0.32443 -0.004,0.14764 0.35039,-0.17896 0.35141,-0.14252 0.009,0.31111 -0.21348,0.2826 -0.39553,0.5371 -0.40454,0.56557 -0.009,0.0285 -0.19153,-0.059 -0.4056,-0.19438 z m 0.80141,-1.64332 c 0,-0.10914 -0.14287,-0.19843 -0.3175,-0.19843 -0.24103,0 -0.23837,-0.0791 0.011,-0.32852 0.26164,-0.26164 0.38367,-0.24817 0.59942,0.0662 0.20781,0.30276 0.23141,0.25449 0.10133,-0.2073 -0.0933,-0.33107 -0.0713,-0.58006 0.0488,-0.5533 0.41445,0.0923 1.14096,-0.35608 0.98521,-0.60809 -0.0859,-0.13898 -0.32363,-0.0372 -0.5283,0.22617 -0.30391,0.39107 -0.34445,0.39888 -0.22114,0.0426 0.083,-0.23995 0.0238,-0.51486 -0.13164,-0.61093 -0.15545,-0.0961 -0.28263,-0.0436 -0.28263,0.11669 0,0.29042 -0.24625,0.6432 -1.12447,1.61092 -0.58753,0.64739 -0.58905,0.64249 0.19843,0.64249 0.3638,0 0.66146,-0.0893 0.66146,-0.19844 z m 4.23334,-6.15156 c 0.34177,-0.3638 0.66574,-0.66146 0.71993,-0.66146 0.21981,0 -0.87055,1.30691 -1.09678,1.31461 -0.13451,0.005 0.0351,-0.28935 0.37685,-0.65315 z"
       id="path55" /></g></svg>
