<?xml version="1.0" encoding="UTF-8" standalone="no"?>
<!-- Created with Inkscape (http://www.inkscape.org/) -->

<svg
   width="241.41885mm"
   height="231.56355mm"
   viewBox="0 0 241.41884 231.56357"
   version="1.1"
   id="svg1"
   xml:space="preserve"
   xmlns="http://www.w3.org/2000/svg"
   xmlns:svg="http://www.w3.org/2000/svg"><defs
     id="defs1" /><g
     id="layer1"
     transform="translate(-73.771889,-20.142849)"><path
       id="path1"
       style="fill:#000000"
       d="m 260.56617,20.143883 c -4.29793,0.047 -9.94653,1.49786 -14.96653,4.103108 -3.16973,1.645016 -5.40802,3.315431 -8.07961,6.03064 -1.15255,1.171367 -2.18026,2.130102 -2.28409,2.130102 -0.10384,0 -1.63816,-0.830473 -3.40962,-1.845365 -6.782,-3.885506 -15.53506,-6.636659 -26.69759,-8.391736 -2.47475,-0.389095 -4.57376,-0.475701 -11.24479,-0.463021 -7.56352,0.01438 -8.53324,0.06957 -12.45557,0.712102 -8.89946,1.45785 -17.01076,3.938677 -24.07347,7.362341 l -2.72541,1.321366 -1.14257,-1.157035 c -5.31539,-5.380642 -14.75164,-9.455954 -21.94181,-9.476424 -2.3064,-0.0066 -3.81281,0.388823 -4.7656,1.251086 -0.36666,0.331823 -0.63362,0.353793 -1.46451,0.118856 -0.55901,-0.158062 -2.27058,-0.362042 -3.80339,-0.453202 -5.71324,-0.339789 -10.60408,1.321602 -11.2298,3.814754 -0.21005,0.836929 -0.55966,1.111128 -1.42266,1.116728 -2.16395,0.01409 -9.921173,3.538372 -14.407903,6.545853 -5.636608,3.778252 -7.015231,5.869156 -5.827035,8.838737 l 0.441834,1.103292 -0.924491,0.820105 c -4.393452,3.896159 -5.001224,4.499896 -4.870504,4.840532 0.07867,0.204896 0.03452,0.305262 -0.09819,0.223242 -0.50334,-0.311081 -3.530011,4.093762 -4.975407,7.240901 -1.569858,3.418099 -2.309645,7.691562 -1.639177,9.466089 0.41086,1.087444 1.524692,2.14876 2.46755,2.350761 0.452488,0.09694 0.902122,0.22264 0.999422,0.27957 0.09732,0.05693 -0.401273,1.144364 -1.107943,2.41639 -2.160004,3.88811 -3.938533,8.931439 -4.789371,13.580049 -0.57288,3.129911 -0.433425,9.426058 0.266133,12.016321 0.812538,3.008625 1.851723,5.063485 3.435449,6.793385 1.595668,1.74296 3.17089,2.59932 4.782138,2.59932 h 1.141015 l -0.182418,1.12448 c -1.458036,8.98173 -0.463637,17.68286 2.768307,24.2192 1.125538,2.27628 1.722546,3.10675 3.645772,5.07359 2.965014,3.03227 4.851381,4.02056 7.530807,3.94446 l 1.791621,-0.0512 1.660366,1.69602 c 2.044,2.0877 2.79687,2.6593 5.74435,4.36201 4.5387,2.62194 10.00016,4.44812 14.26735,4.77025 2.25672,0.17037 2.36183,0.20624 2.52491,0.86868 0.0936,0.38012 0.69822,1.8107 1.3441,3.17862 3.67314,7.77929 9.9028,13.82714 19.50889,18.94044 1.59371,0.84832 2.8071,1.65513 2.7404,1.8216 -0.0658,0.16432 -0.79241,1.947 -1.61489,3.96151 -1.94914,4.77412 -4.21209,10.76762 -6.89312,18.25625 l -2.16421,6.04408 -1.69757,0.67696 c -5.65531,2.25516 -10.03044,7.29301 -11.22309,12.92273 -1.32714,6.26462 0.58277,13.61455 3.95377,15.21716 0.60981,0.28989 0.84988,0.65269 1.11001,1.67741 0.40181,1.58289 1.51314,3.22732 2.75177,4.07159 0.75306,0.51331 1.1518,0.60189 2.23914,0.49661 1.28896,-0.12479 1.34148,-0.10228 2.04173,0.89142 1.32814,1.8847 4.71232,3.07733 7.96076,2.80499 1.85599,-0.1556 1.86,-0.15452 3.07164,0.85628 4.42156,3.68861 9.99625,5.98668 17.61753,7.26261 2.58521,0.4328 6.81278,0.91796 9.12813,1.04748 0.80036,0.0447 4.38862,0.10332 7.97419,0.13022 4.99099,0.0375 7.03358,-0.0487 8.71368,-0.36742 2.21178,-0.41954 4.90213,-1.47657 6.31124,-2.47995 0.67481,-0.48056 1.15703,-0.54312 4.17804,-0.54312 4.76428,0 10.86058,-0.85411 14.20792,-1.99057 1.22045,-0.41435 1.42991,-0.40477 5.01365,0.23616 4.85132,0.86764 7.3296,1.13633 13.92628,1.50895 6.20422,0.35046 9.80451,0.19417 12.83229,-0.55655 2.37422,-0.58869 5.22634,-1.96397 7.01146,-3.38119 6.91339,-5.48869 11.4433,-15.53161 11.4794,-25.45013 0.0118,-3.23082 -0.056,-3.76971 -0.71107,-5.64307 -0.93115,-2.6629 -2.08826,-4.44803 -4.05918,-6.26318 -2.19339,-2.02003 -3.38763,-2.79458 -6.09058,-3.94911 -3.03672,-1.29707 -4.41585,-1.62928 -7.61918,-1.83503 l -2.63498,-0.16898 -0.30747,-1.06402 c -0.79439,-2.75081 -0.85666,-2.56924 1.12138,-3.2582 2.42462,-0.8445 5.59261,-2.92856 5.26272,-3.46232 -0.0964,-0.15629 -0.0209,-0.22712 0.17157,-0.16072 0.36749,0.12682 1.95032,-1.78149 2.71766,-3.2768 0.85508,-1.6663 1.47974,-3.84483 1.63763,-5.71128 0.43839,-5.18214 -2.59519,-11.54424 -7.0714,-14.8301 -0.71766,-0.5268 -1.3027,-1.03698 -1.3007,-1.13378 0.002,-0.0968 0.86552,-0.72998 1.91823,-1.40715 5.54392,-3.56622 11.45618,-10.23478 14.06271,-15.86208 l 0.87126,-1.88206 2.75074,-0.0858 c 5.40163,-0.16835 11.00999,-2.56894 14.22859,-6.09058 1.01626,-1.11196 1.4898,-1.43868 2.08566,-1.43868 1.32778,0 3.83353,-1.46978 5.5454,-3.25251 1.59916,-1.66538 3.36632,-4.70733 4.03903,-6.95307 0.31437,-1.04949 0.36471,-1.08553 1.94871,-1.40301 5.83844,-1.17015 10.32684,-6.22232 12.19512,-13.72578 0.99214,-3.98451 1.30814,-8.01621 0.95447,-12.18272 -0.16379,-1.92955 -0.39953,-4.050969 -0.52348,-4.714437 -0.21515,-1.151616 -0.19929,-1.199203 0.34054,-1.047482 2.51007,0.705479 4.07945,0.265181 5.7211,-1.604553 1.96736,-2.240696 2.90238,-5.686645 2.90938,-10.721826 0.008,-5.750026 -1.52726,-11.462855 -4.69532,-17.471802 -0.0534,-0.101325 0.37407,-0.42483 0.95033,-0.718819 1.56514,-0.798473 2.28224,-2.432185 2.08256,-4.745447 -0.41274,-4.781622 -3.70887,-11.378438 -7.87807,-15.767513 -1.05026,-1.105646 -1.94878,-1.97088 -1.99678,-1.92288 -0.048,0.048 -0.74706,-0.536649 -1.55339,-1.299145 l -1.46606,-1.386479 0.66611,-0.981335 c 1.7106,-2.520711 0.3125,-4.807213 -5.15472,-8.430494 -5.23977,-3.47253 -10.14562,-5.812489 -13.70459,-6.536551 -1.59378,-0.324249 -1.6871,-0.387013 -2.16008,-1.456242 -0.91886,-2.077238 -3.81977,-3.269568 -7.95507,-3.269568 -1.25239,0 -2.9665,0.127333 -3.80959,0.283187 -1.36621,0.252559 -1.59444,0.229432 -2.09909,-0.213941 -1.17929,-1.036077 -3.27204,-1.513378 -5.85081,-1.48518 z m 1.41697,3.797184 c 1.7187,0 2.18586,0.287118 1.38286,0.84956 -1.77064,1.240204 -6.93011,6.823356 -6.30556,6.823356 0.0651,0 0.56386,-0.354237 1.10846,-0.787032 1.47913,-1.175459 6.89214,-3.85416 9.6666,-4.783687 1.64538,-0.551259 3.19888,-0.866779 4.76766,-0.968416 3.44898,-0.22345 3.64282,-0.01736 1.28261,1.364258 -1.72262,1.008379 -6.01157,4.773308 -5.74332,5.041552 0.0533,0.05326 0.92857,-0.155425 1.9451,-0.463537 1.5947,-0.483352 2.52004,-0.56054 6.74326,-0.56224 4.23279,-0.0017 5.18106,0.07715 7.01146,0.58136 3.54433,0.976345 8.11709,3.417208 11.68714,6.238896 1.61621,1.277414 1.8489,1.691533 1.21595,2.162142 -0.56618,0.420961 -3.12901,1.36623 -4.02353,1.484147 -0.52396,0.06907 -0.27091,0.277293 1.34307,1.105359 1.09367,0.56112 2.83344,1.651411 3.86643,2.423107 1.033,0.771699 1.95669,1.324756 2.05259,1.228866 0.0959,-0.0959 0.14494,-0.05509 0.10904,0.09043 -0.0359,0.14552 0.6536,1.001098 1.5322,1.901692 2.33782,2.396282 4.10193,4.868784 5.61878,7.874455 1.29935,2.574697 1.90196,4.392002 2.27067,6.850745 0.14841,0.989686 0.0869,1.269635 -0.37879,1.735294 -0.84364,0.84364 -2.10943,0.719977 -3.71916,-0.363285 -1.24907,-0.840577 -1.34964,-0.868649 -1.18907,-0.330729 0.0965,0.3233 0.72336,1.600111 1.3932,2.837036 4.10303,7.576566 5.6141,12.756811 5.595,19.182292 -0.0114,3.841952 -0.60988,6.057193 -2.05517,7.606771 -0.53989,0.578854 -0.91467,0.727604 -1.83296,0.727604 -1.26469,0 -2.49038,-0.517894 -3.03031,-1.280542 -0.19074,-0.269413 -1.15878,-1.371462 -2.15129,-2.448946 -2.02309,-2.196311 -1.95967,-2.366463 -0.79116,2.120284 1.00841,3.871993 1.42927,7.823527 1.42627,13.383167 -0.004,8.03519 -1.01689,12.00692 -4.07676,15.98817 -1.09271,1.42174 -3.83617,3.46012 -4.65036,3.45612 -0.33242,-0.002 -0.58353,-0.8283 -1.18132,-3.89434 -0.86938,-4.45907 -1.78096,-7.26661 -2.73059,-8.40724 l -0.66042,-0.79271 0.16846,3.83645 c 0.42163,9.62151 -2.00007,17.27122 -6.67349,21.08089 -1.54117,1.25632 -2.5522,1.63198 -3.23908,1.20302 -0.37353,-0.23327 -0.68021,-0.0498 -1.74614,1.04439 -2.54351,2.61088 -6.43942,4.66783 -9.90534,5.23017 -1.76389,0.28618 -3.69073,0.3707 -3.69073,0.16174 0,-0.0656 0.12592,-0.70744 0.28008,-1.42627 l 0.2806,-1.30689 2.44533,-0.56534 c 4.3828,-1.01277 7.65402,-2.95794 11.00088,-6.54172 3.148,-3.37086 5.1897,-7.38029 6.4022,-12.57236 0.4729,-2.02503 0.58119,-3.3314 0.60099,-7.23367 0.0133,-2.61937 -0.0719,-5.65547 -0.18965,-6.74687 l -0.21446,-1.98438 2.19884,-0.0253 c 2.71316,-0.0314 4.83915,-0.77907 6.2022,-2.18023 2.38187,-2.44846 2.52722,-5.108585 0.46922,-8.604641 l -0.9126,-1.549776 0.73329,-1.492932 c 0.71406,-1.454015 0.73314,-1.610404 0.73225,-5.990849 -7.9e-4,-3.864849 -0.0864,-4.810727 -0.60771,-6.721037 -0.89709,-3.287377 -2.04984,-6.10902 -3.26337,-7.986593 -1.06131,-1.642044 -1.07043,-1.676818 -0.63355,-2.41639 0.3091,-0.523337 0.38756,-1.008562 0.25889,-1.603003 -0.29172,-1.347845 -1.55324,-3.658564 -2.89956,-5.311303 -5.73647,-7.042129 -14.65339,-10.807144 -23.01617,-9.71827 -1.96012,0.25522 -5.4056,1.111654 -7.12101,1.769918 -0.23182,0.08896 -0.6915,-0.332274 -1.23713,-1.133781 -3.48398,-5.117867 -11.17557,-13.075779 -16.44861,-17.018083 -0.68125,-0.509321 -1.24144,-1.003584 -1.24644,-1.098124 -0.0218,-0.458305 4.57248,-4.254514 7.00319,-5.786727 5.07645,-3.199944 11.69458,-5.285982 16.77004,-5.285982 z m -129.10168,0.578259 c 1.09799,-0.365996 6.95713,1.304183 10.20093,2.907833 2.88632,1.426925 8.07134,5.144967 8.07134,5.78776 0,0.130428 -1.10133,0.977069 -2.4474,1.881022 -5.80963,3.90148 -10.99191,8.25897 -14.61668,12.28969 -1.16348,1.293797 -2.17759,2.411844 -2.25309,2.484602 -0.0755,0.07276 -0.64093,0.713678 -1.25677,1.42472 l -1.11983,1.292944 -3.50676,0.04909 c -3.8172,0.05306 -5.976,0.506998 -9.62163,2.024682 -4.93559,2.054689 -10.2499,6.407268 -12.54911,10.277409 -1.16713,1.964561 -1.33081,3.179527 -0.59996,4.452958 0.43914,0.765162 0.43254,0.798679 -0.35192,1.807642 -3.064738,3.94182 -4.400597,8.395661 -4.395597,14.653886 0.0039,4.744248 0.407809,6.479132 2.036567,8.746236 l 0.97152,1.351855 -0.78858,1.896525 c -1.944198,4.673517 -2.69762,9.689687 -2.72852,18.167887 -0.01627,4.45987 0.09158,6.63798 0.430465,8.6837 0.425228,2.56792 0.425638,2.79658 0.0041,3.83646 -0.24651,0.60817 -0.779831,2.41124 -1.184941,4.00699 -0.405118,1.59576 -0.845775,2.93807 -0.979785,2.98277 -0.408988,0.13633 -2.26886,-1.35544 -3.720186,-2.9838 -2.504066,-2.8095 -4.356102,-7.63181 -5.11545,-13.31857 -0.38918,-2.91454 -0.154484,-10.93713 0.419096,-14.31644 0.23431,-1.3804 0.7187,-3.66449 1.07642,-5.075655 0.496928,-1.960378 0.587913,-2.72977 0.386023,-3.260783 -0.14533,-0.382246 -0.385141,-0.62022 -0.533301,-0.52865 -0.14822,0.09157 -0.199171,0.280542 -0.113171,0.419613 0.08595,0.139075 0.01974,0.219824 -0.147278,0.179834 -0.16702,-0.03999 -0.979517,0.86776 -1.805575,2.016931 -0.826058,1.149171 -1.811037,2.31925 -2.188497,2.60036 -0.650888,0.48476 -0.739583,0.48902 -1.719791,0.0796 -2.193096,-0.91613 -3.457033,-2.848229 -4.375961,-6.689514 -0.778208,-3.253002 -0.595205,-9.079586 0.400493,-12.764079 1.688396,-6.247731 4.146303,-11.068704 8.228955,-16.139584 0.995868,-1.236923 1.92596,-2.398721 2.06654,-2.581754 0.14057,-0.183034 -0.55473,0.04631 -1.544608,0.50953 -1.394528,0.652579 -2.264761,0.869038 -3.865397,0.961698 -3.538394,0.204834 -4.025652,-0.605908 -2.736784,-4.554244 1.595806,-4.88862 4.859112,-9.498461 9.556522,-13.499951 2.071696,-1.764774 6.139271,-4.293222 8.103899,-5.037419 0.691218,-0.261835 1.25677,-0.569511 1.25677,-0.683679 0,-0.202913 -1.450287,-0.382493 -5.137671,-0.636137 -2.441444,-0.16794 -2.625028,-0.416788 -1.264522,-1.711007 2.813724,-2.676634 8.957941,-6.073124 13.149071,-7.268807 5.54959,-1.583239 11.87618,-1.639419 16.31166,-0.14521 0.88522,0.298208 1.67805,0.473777 1.76165,0.390157 0.0836,-0.08362 -0.67995,-0.96647 -1.69705,-1.961638 -1.42423,-1.393518 -2.4522,-2.104645 -4.47105,-3.093351 -2.28125,-1.117222 -2.53684,-1.307324 -1.97145,-1.465027 2.13451,-0.595367 7.77099,0.216489 12.13569,1.747697 2.91938,1.024164 7.59488,3.331764 9.14208,4.511869 l 0.92759,0.707451 -0.26407,-0.756026 c -0.44438,-1.27129 -2.68363,-4.003917 -4.34805,-5.306136 -0.97362,-0.761745 -1.43921,-1.279843 -1.21698,-1.353923 z m 60.70172,1.113627 c 4.063,-5.6e-4 8.20421,0.169684 10.7518,0.511597 8.58507,1.152205 16.4164,3.461372 22.75417,6.709151 3.96986,2.034352 10.00555,6.006015 13.19764,8.684224 5.97789,5.01556 12.88758,13.164809 16.48737,19.444808 1.83777,3.206104 4.62967,9.144351 4.3682,9.290906 -0.0299,0.01677 -0.73369,0.065 -1.56372,0.107487 -0.83005,0.04249 -1.94228,0.220085 -2.47169,0.394808 -1.06962,0.353005 -1.2045,0.269352 -1.70842,-1.061951 -1.05568,-2.789013 -3.8043,-7.706587 -6.0632,-10.847916 -3.07027,-4.269694 -9.67234,-10.734521 -14.3061,-14.008964 -7.83699,-5.537999 -17.32498,-9.520332 -26.50743,-11.125419 -6.21333,-1.08609 -16.35336,-1.323917 -22.31078,-0.523483 -7.73102,1.038733 -16.18141,3.586666 -23.13037,6.974768 -3.27669,1.597613 -9.57461,5.613965 -12.75736,8.135421 -3.0706,2.432603 -9.36878,8.632527 -10.79676,10.628809 -3.80223,5.315425 -6.02634,9.200298 -7.56388,13.210563 -0.77795,2.029062 -1.06784,2.394705 -1.33893,1.688269 -0.32592,-0.849335 4.92051,-11.343546 6.67504,-13.35164 0.21049,-0.240908 1.39972,-1.747389 2.64273,-3.348116 2.81616,-3.626631 6.32203,-7.07908 10.835,-10.67015 2.62524,-2.088959 13.64091,-8.776725 14.45648,-8.776725 0.10587,0 0.82127,-0.284352 1.58957,-0.632003 4.41177,-1.996305 11.07657,-3.910737 17.27181,-4.960937 2.95395,-0.500743 4.4856,-0.585634 10.84792,-0.601514 7.90822,-0.01974 9.34945,0.109626 16.13958,1.449524 5.91612,1.167424 13.1253,3.807116 18.48673,6.769096 1.14549,0.632839 2.12211,1.150834 2.17041,1.150834 0.0483,0 1.49247,0.975254 3.20911,2.16731 6.3318,4.396879 10.72061,8.443401 15.83107,14.596525 1.74071,2.095854 3.20367,3.776289 3.25097,3.734139 0.11414,-0.101762 -1.35277,-2.349328 -1.60714,-2.462382 -0.10914,-0.04851 -0.19844,-0.208453 -0.19844,-0.355534 0,-0.147081 -0.50724,-0.940661 -1.12706,-1.763717 -0.61982,-0.823055 -1.32082,-1.794206 -1.55805,-2.158008 -0.86981,-1.333923 -3.455,-3.966511 -3.72897,-3.797184 -0.15514,0.09591 -0.21005,0.05784 -0.12195,-0.08475 0.24431,-0.3953 -4.77551,-5.105158 -8.69301,-8.156608 -2.41906,-1.884263 -5.57374,-3.758883 -9.77408,-5.807398 -9.24186,-4.507267 -17.58453,-6.587808 -28.70729,-7.159253 -5.9138,-0.303826 -15.22836,0.707441 -21.82813,2.369882 -12.40131,3.123806 -24.1109,9.880712 -33.66461,19.426204 -5.15938,5.154926 -8.6393,10.11795 -12.54394,17.889347 -1.02249,2.035069 -1.90589,3.775858 -1.96319,3.868498 -0.0573,0.09264 -0.90771,-0.05427 -1.8898,-0.326595 -0.9821,-0.272326 -2.47256,-0.49506 -3.31246,-0.49506 -0.83989,0 -1.52715,-0.0893 -1.52704,-0.198438 4.3e-4,-0.424723 3.52114,-7.402062 4.69429,-9.303308 1.16632,-1.890209 4.09903,-6.095577 6.10505,-8.754504 2.0874,-2.766808 8.81347,-9.313035 12.21941,-11.892298 11.62174,-8.800963 23.5283,-13.769082 38.49687,-16.063619 2.23479,-0.342572 6.21959,-0.514138 10.28258,-0.514697 z m 6.92206,8.94209 c 0.83026,0.01066 1.10707,0.100446 0.65474,0.26665 -0.21828,0.0802 -1.9329,0.411615 -3.8101,0.736906 -5.2031,0.901617 -9.16108,2.427072 -11.40706,4.395598 -0.95879,0.840341 -0.98264,0.890053 -0.26097,0.547253 1.06274,-0.504806 6.1653,-1.645921 9.92188,-2.218986 5.95544,-0.908505 20.51773,-0.457355 17.26406,0.534851 -1.25405,0.382422 -4.86018,1.773641 -6.15156,2.373499 -2.04295,0.948966 -3.78872,1.462246 -6.05028,1.778702 -1.82722,0.255683 -3.47472,0.910622 -3.47472,1.381312 0,0.114146 0.29123,0.207739 0.6475,0.207739 1.9357,0 8.08683,2.522239 10.44846,4.284493 1.48577,1.108687 3.45612,3.049207 3.45612,3.403926 0,0.495992 -2.59583,0.89861 -8.4801,1.315166 -2.24828,0.159156 -5.14992,0.497314 -6.44819,0.751375 -2.24373,0.439084 -2.32224,0.477141 -1.5875,0.771012 1.58975,0.635839 3.26288,0.878014 7.12308,1.030428 6.48356,0.255993 11.36123,-0.578185 12.44679,-2.128035 1.36985,-1.955728 -0.84034,-4.802794 -6.01669,-7.751982 l -2.43189,-1.385962 0.77876,-0.313159 c 1.34258,-0.540136 3.04575,-0.334089 6.60012,0.799435 12.57778,4.011192 22.12196,9.679654 29.89791,17.757055 3.40515,3.537149 3.57188,3.721151 3.57188,3.943429 0,0.116509 0.19872,0.375441 0.44183,0.575158 0.88254,0.72502 4.58579,6.646557 6.13865,9.815939 2.20571,4.501912 3.5392,8.217295 4.90564,13.665832 1.59173,6.346805 2.27221,11.869613 2.27221,18.447453 0,5.31631 -0.21386,8.21147 -0.97306,13.16457 -0.43129,2.81371 -0.42897,2.9218 0.1297,5.29167 3.20931,13.61374 -0.53354,23.96784 -12.12122,33.53025 -2.18354,1.80191 -4.08833,3.08936 -6.26732,4.23695 -2.86087,1.50671 -3.15551,1.41375 -2.71508,-0.85783 0.1511,-0.77928 0.28302,-2.51054 0.29352,-3.84679 0.02,-2.56024 -0.0392,-2.75198 -2.23604,-7.22747 -0.75502,-1.53822 -2.76881,-2.64725 -4.79919,-2.64325 -1.83545,0.004 -10.71676,1.55817 -16.0879,2.81585 -2.5665,0.60096 -2.96541,0.7779 -4.13773,1.83193 -0.71356,0.64155 -1.47651,1.61427 -1.69551,2.16163 -0.4966,1.24112 -1.11094,4.59852 -1.53737,8.40155 -0.17948,1.60073 -0.40806,3.07102 -0.50746,3.2675 -0.12621,0.24951 -0.8909,0.38185 -2.53628,0.43925 -2.66445,0.0929 -5.40721,0.65119 -12.40803,2.5244 -2.67339,0.71531 -6.38688,1.6146 -8.25221,1.99884 -3.08694,0.63589 -4.03308,0.7062 -10.53528,0.7798 -7.74494,0.0876 -10.48318,-0.12259 -12.79353,-0.98082 -0.82161,-0.30521 -2.3274,-0.64818 -3.34605,-0.76223 -3.0695,-0.34366 -9.85328,-2.74547 -13.62604,-4.82451 -7.01449,-3.86545 -12.63896,-9.47917 -15.80886,-15.77837 -1.64348,-3.26592 -1.72674,-3.86039 -0.57257,-4.09122 1.13805,-0.22761 4.97894,-2.05909 6.47092,-3.0856 4.31782,-2.97073 8.30302,-8.44868 10.15804,-13.96245 1.82127,-5.4135 2.54532,-10.67314 2.30218,-16.72146 -0.29849,-7.4253 -1.97753,-13.30539 -5.39967,-18.908927 -2.26262,-3.704915 -7.35616,-8.509118 -10.47326,-9.87795 -0.69236,-0.304041 -0.74103,-0.414237 -0.58084,-1.316715 0.5639,-3.176845 2.0993,-8.474168 3.50108,-12.077816 3.7077,-9.531672 10.12581,-17.65825 19.68923,-24.931295 0.83165,-0.632471 1.63578,-1.1498 1.78697,-1.1498 0.45929,0 2.60213,2.817029 3.37241,4.433321 0.39835,0.835869 0.93593,2.17465 1.19476,2.975012 l 0.47077,1.455208 0.0139,-1.404565 c 0.008,-0.772331 -0.12046,-2.220584 -0.28525,-3.218408 l -0.29972,-1.81436 0.9989,-0.882116 c 2.28863,-2.022799 8.64616,-6.020278 12.03493,-7.56698 7.18312,-3.278529 15.58993,-5.513281 23.15207,-6.154663 1.76148,-0.1494 3.1452,-0.217881 3.97547,-0.207223 z m 19.44016,5.958809 c 0.80735,0.0066 4.7625,1.409438 4.7625,1.689303 0,0.110457 -0.4013,0.625984 -0.89142,1.145666 -1.0022,1.06264 -1.1477,1.083489 -2.81275,0.40411 -0.65485,-0.267191 -2.05383,-0.748185 -3.10886,-1.069185 -1.055,-0.321002 -1.91661,-0.655684 -1.91461,-0.743624 0.006,-0.264289 3.25313,-1.43207 3.96514,-1.42627 z m -57.16551,2.192631 c 0.15411,0 0.28009,0.119063 0.28009,0.264584 0,0.145521 -0.0526,0.264583 -0.11679,0.264583 -0.0642,0 -0.19019,-0.119062 -0.28009,-0.264583 -0.0899,-0.145521 -0.0373,-0.264584 0.11679,-0.264584 z m 65.82338,1.02216 2.08721,1.421102 c 2.22756,1.516877 7.3032,5.354135 8.83357,6.678146 3.37483,2.91978 7.04271,7.120349 10.23658,11.722798 0.23031,0.331963 0.35487,0.667758 0.27647,0.746208 -0.0784,0.07845 -0.50169,-0.371768 -0.94051,-1.000456 -1.39205,-1.994404 -7.05869,-7.265836 -10.76265,-10.011792 -3.48203,-2.581419 -7.69829,-5.218959 -10.51719,-6.579443 -0.69123,-0.333606 -1.25677,-0.690743 -1.25677,-0.79375 0,-0.103006 0.45969,-0.636207 1.02164,-1.184941 z M 267.88769,55.1619 c 1.17008,0.0094 2.26612,0.09916 3.17552,0.282153 4.95745,0.997562 11.02027,4.773576 13.99087,8.71368 2.37772,3.153696 1.55098,4.758235 -2.45566,4.766635 -2.2275,0.0047 -2.14275,0.120192 0.97927,1.339453 3.42894,1.339127 3.80745,1.590182 4.75836,3.154329 1.92705,3.169819 3.00388,7.165677 3.20859,11.90625 0.12382,2.867443 0.0788,3.430449 -0.34003,4.233333 -0.80348,1.540195 -3.51398,2.566558 -4.86637,1.842782 -0.76697,-0.410469 -0.64003,0.128734 0.23358,0.992188 0.40996,0.405198 1.40941,1.298515 2.22105,1.984891 1.76662,1.49398 2.59089,3.04189 2.58589,4.854484 -0.005,1.770892 -0.44006,2.524242 -1.84795,3.200322 -1.24915,0.59983 -3.00268,0.87767 -4.40076,0.69711 -0.7836,-0.1012 -0.87606,-0.23976 -1.69189,-2.53989 -1.24298,-3.50443 -2.45909,-5.807064 -4.51445,-8.54625 -2.26477,-3.018277 -5.65842,-5.840688 -9.13226,-7.594885 -1.32834,-0.670778 -1.35401,-0.706263 -1.52136,-2.130103 -0.31093,-2.645555 -1.87622,-8.42429 -2.80499,-10.35544 -0.13997,-0.291042 -0.80411,-1.838857 -1.47588,-3.439584 -1.28947,-3.072597 -4.18403,-8.986383 -4.72684,-9.657291 -0.35251,-0.4357 -1.01742,-1.894205 -0.89607,-1.965255 1.83129,-1.072198 6.01113,-1.767115 9.52138,-1.738912 z m -141.14177,0.241846 c 0.81015,0.0307 0.75021,0.400123 -0.29766,1.839164 -2.04944,2.814494 -5.61037,9.496273 -7.4228,13.927832 -0.53522,1.308654 -1.18769,2.855952 -1.45004,3.438033 -0.90691,2.012203 -2.11056,5.829606 -2.5585,8.114234 l -0.45011,2.292883 -1.0945,0.418579 c -2.20116,0.840629 -5.36502,2.970388 -7.5892,5.109249 -1.25179,1.203767 -2.34274,2.189013 -2.42414,2.189013 -0.37336,0 -1.53751,-1.722129 -1.84175,-2.724381 -0.53098,-1.749208 -0.36508,-7.290004 0.293,-9.786483 1.34468,-5.101119 3.77615,-8.529625 7.31377,-10.313065 l 1.83089,-0.922941 -1.44797,-0.196888 c -1.77385,-0.241573 -2.90318,-0.976896 -2.90318,-1.889807 0,-0.84474 1.12565,-2.478323 3.08663,-4.47983 4.36665,-4.456883 11.08789,-7.237921 16.95556,-7.015592 z m 24.36698,6.637321 c -0.84959,0 -0.84152,0.847679 0.0362,3.780648 0.16507,0.551492 0.26339,1.444463 0.21859,1.984375 l -0.0816,0.981852 -1.32292,-0.02635 c -1.93422,-0.03849 -2.66495,-0.443896 -3.63595,-2.016931 l -0.86196,-1.396298 -0.0842,1.184424 c -0.1737,2.44102 0.4837,3.808345 2.29082,4.763017 2.43369,1.285676 6.12137,-0.08364 6.9448,-2.578654 0.433,-1.311989 0.0965,-2.83423 -0.98754,-4.467428 -1.01395,-1.527582 -1.78988,-2.20865 -2.51613,-2.20865 z m 110.7581,10.10636 c 0.3422,0.05029 0.51592,0.168866 0.69867,0.381372 0.75841,0.881905 3.14864,8.364708 3.14864,9.857279 0,0.609149 0.0131,0.606154 -1.32291,0.268718 -0.50932,-0.128643 -1.73172,-0.217028 -2.71612,-0.196888 -0.9844,0.02014 -1.82167,-0.01126 -1.86087,-0.06976 -0.0392,-0.0585 -0.23408,-0.582703 -0.43304,-1.164787 -0.40542,-1.186133 -3.01088,-6.622168 -3.52279,-7.349939 -0.27089,-0.385128 -0.25863,-0.516959 0.0661,-0.72657 0.75839,-0.489393 2.26033,-0.834262 4.23333,-0.972034 0.85632,-0.0598 1.36674,-0.07768 1.70894,-0.02739 z m -140.25552,2.047937 c 1.49751,-0.15627 4.1274,0.189996 5.59087,0.856795 l 0.6103,0.278536 -0.72657,2.152323 c -0.3996,1.183947 -0.92827,3.060484 -1.1746,4.170288 l -0.44804,2.017965 -3.84679,-0.03359 -3.8468,-0.03307 0.1633,-1.033528 c 0.23591,-1.494491 2.25363,-7.635587 2.64325,-8.044987 0.16237,-0.170605 0.53591,-0.278639 1.03508,-0.330729 z m 8.04602,1.634525 c 0.12484,-0.03204 0.29823,0.04362 0.56896,0.214974 0.31498,0.199362 0.2137,0.829127 -0.62684,3.898987 -1.36942,5.001444 -1.27244,4.75129 -1.79937,4.643127 -0.78661,-0.161466 -0.7439,-0.386959 1.57975,-8.324556 0.0762,-0.260392 0.15266,-0.400496 0.2775,-0.432532 z m 132.82187,10.835515 c 0.87603,-0.01185 2.78267,0.383646 4.01732,0.903304 1.97813,0.83258 4.60874,2.356006 5.99654,3.472656 0.59977,0.482595 1.18436,0.792419 1.29914,0.688847 0.1148,-0.103572 0.13106,-0.05237 0.0362,0.113688 -0.0954,0.166884 0.30051,0.728985 0.8847,1.256771 0.5813,0.525165 0.97477,0.95498 0.87436,0.95498 -0.1004,0 0.11653,0.327424 0.48214,0.727604 3.05852,3.347744 5.15214,10.054356 5.43791,17.420126 0.23484,6.05309 -0.59736,10.50278 -2.80964,15.02647 -1.39437,2.8512 -2.96155,4.76915 -5.39089,6.59753 -2.16981,1.63304 -3.58571,2.33124 -5.99033,2.95434 -0.85075,0.22045 -1.65339,0.40101 -1.78387,0.40101 -0.13049,0 -0.36632,-1.37209 -0.524,-3.04891 -0.27876,-2.9645 -0.26864,-3.09374 0.36845,-4.67103 1.28505,-3.18147 2.68625,-10.04961 3.27835,-16.07085 0.3878,-3.94352 0.16577,-11.65092 -0.41961,-14.57379 -0.86781,-4.333064 -2.93399,-8.572518 -5.2803,-10.833964 -0.5203,-0.501487 -0.94567,-1.023643 -0.94567,-1.160653 0,-0.104877 0.17721,-0.154181 0.46922,-0.158129 z m -140.3072,1.115177 c 5.29261,0.260278 9.2913,2.187229 13.38471,6.449735 3.80449,3.961642 6.52229,9.371394 7.68791,15.303464 0.49037,2.49335 0.49295,11.77601 0.004,14.2875 -0.97997,5.03626 -2.31047,8.7287 -4.43384,12.30622 -3.22523,5.43399 -7.56318,8.39359 -14.12678,9.63869 h -5.2e-4 c -2.76427,0.52437 -4.30759,0.49795 -7.27294,-0.12557 -2.88052,-0.60569 -4.04502,-1.0249 -7.14375,-2.57091 -4.09105,-2.04107 -6.66061,-4.50722 -8.49302,-8.15144 -0.88243,-1.75493 -1.1823,-2.63909 -1.1188,-3.30057 l 0.0868,-0.90331 1.05833,1.81591 c 2.00332,3.43704 5.54867,6.53798 8.86354,7.7525 2.26273,0.82902 3.23059,0.91921 5.2772,0.49248 2.48047,-0.51719 4.25731,-1.51754 6.21409,-3.4985 4.07346,-4.12379 6.82818,-13.87182 4.67258,-16.53387 l -0.47542,-0.58756 0.12506,0.85369 c 0.27967,1.9055 -1.00855,6.62708 -2.87476,10.53631 -1.63896,3.43319 -3.69337,5.73499 -6.11953,6.8554 -1.39588,0.64463 -1.99859,0.76636 -3.79046,0.76636 -1.92811,0 -2.32057,-0.0941 -4.13567,-0.99116 -3.06497,-1.51478 -5.74832,-4.5474 -7.21299,-8.15195 -1.48467,-3.65379 -1.77563,-7.7183 -1.20251,-16.79071 0.69221,-10.95744 1.89466,-14.911048 5.76967,-18.967317 2.28155,-2.38827 3.38064,-3.212515 6.1128,-4.583699 3.03712,-1.524225 5.67381,-2.072356 9.14415,-1.901693 z m 139.98474,2.600358 c 0.17553,-0.175529 1.1531,1.092419 1.81332,2.351794 1.85301,3.534601 2.79887,8.676667 2.80087,15.230077 0.002,4.95938 -0.42745,8.91179 -1.45883,13.43381 -0.3705,1.62443 -0.79857,3.51937 -0.95136,4.21059 -0.15279,0.69122 -0.40482,1.25677 -0.55966,1.25677 -0.31828,0 -0.15964,-3.22024 0.37104,-7.54062 0.1842,-1.49965 0.31854,-5.56861 0.30954,-9.39271 -0.0164,-7.30222 -0.44652,-11.361828 -1.78077,-16.800008 -0.35689,-1.454638 -0.60175,-2.692143 -0.54415,-2.749703 z m -147.84318,3.64939 c -0.61663,-0.03092 -1.24011,-0.0069 -1.86758,0.07441 -3.70596,0.480535 -7.14464,3.343092 -9.06818,7.548377 -0.92771,2.02821 -0.7925,2.06707 0.30851,0.0889 0.52226,-0.93837 1.25611,-2.107947 1.6309,-2.599322 0.71055,-0.931588 3.74401,-3.234945 4.26021,-3.234945 0.16342,0 0.29714,-0.119062 0.29714,-0.264583 0,-0.145519 0.0893,-0.242474 0.19844,-0.214974 0.10914,0.0275 1.07045,-0.103459 2.1363,-0.291455 1.68762,-0.297662 2.1615,-0.285923 3.67006,0.09302 0.95277,0.239325 2.17069,0.658999 2.7063,0.932242 2.11437,1.078682 4.69423,3.941169 6.75669,7.496699 1.2775,2.20233 1.09006,1.08079 -0.2682,-1.60455 -2.47447,-4.892142 -6.44406,-7.807393 -10.76059,-8.023801 z m -0.1881,6.429061 c -1.02805,-0.0669 -2.05552,0.0459 -2.86132,0.35295 -1.77603,0.67682 -3.89765,2.92931 -4.96456,5.27048 -1.85044,4.06057 -2.73737,9.93244 -2.26549,15.00322 0.35584,3.82378 0.82307,5.64339 2.13992,8.33386 1.15404,2.35783 2.80336,4.0945 4.81624,5.07049 1.5367,0.74507 4.18888,0.76145 6.12314,0.0377 4.32954,-1.61988 6.653,-6.42757 6.97374,-14.43013 0.35974,-8.9757 -2.48679,-16.56098 -7.09724,-18.91306 -0.80764,-0.41203 -1.83637,-0.65867 -2.86443,-0.72554 z m -0.41444,2.32751 c 1.50924,0 2.84422,0.67292 4.28501,2.16059 2.48824,2.56921 3.78909,7.34763 3.77909,13.88804 -0.0109,7.48217 -1.63301,11.82897 -5.0772,13.60692 -1.34336,0.69351 -3.72862,0.68048 -5.04931,-0.0274 -2.07434,-1.11179 -3.51106,-3.223 -4.5868,-6.74171 -0.68798,-2.25053 -0.72872,-2.67175 -0.74052,-7.67292 -0.0103,-4.34986 0.0738,-5.59767 0.47129,-7.00939 1.55785,-5.53227 3.81123,-8.20415 6.91844,-8.20415 z m 123.09946,10.53011 c -5.90742,0 -9.38502,7.20396 -6.8063,14.09939 0.71522,1.91248 2.65945,3.98732 4.27002,4.55683 h 5.2e-4 c 3.86708,1.36743 7.92792,-0.66207 9.47229,-4.73408 0.81776,-2.15622 0.83005,-5.64617 0.0279,-8.00312 -1.36047,-3.99746 -3.62144,-5.91902 -6.96443,-5.91902 z m -67.37522,0.48007 c -6.88054,0.0273 -10.99548,8.95847 -7.3613,15.97732 1.07949,2.08487 3.25016,3.96792 5.29786,4.59559 1.85795,0.56949 4.49562,0.41943 5.82135,-0.33073 1.8885,-1.06859 2.25666,-1.38787 3.2334,-2.80603 2.94264,-4.27258 2.47732,-10.69153 -1.08159,-14.92106 -0.37414,-0.44464 -1.46334,-1.19379 -2.42052,-1.66501 -1.43866,-0.70824 -2.04332,-0.85608 -3.4892,-0.85008 z m 37.9703,1.42524 c -2.26489,0 -4.53114,0.54539 -6.32623,1.52238 -1.7428,0.94855 -4.16777,3.64286 -5.17333,5.74797 -1.46731,3.07177 -1.75828,4.43594 -1.75028,8.20777 0.006,2.9528 0.0928,3.65494 0.61237,4.96146 1.11804,2.8116 3.6083,5.29672 6.45283,6.43991 1.3893,0.55834 1.55055,0.93128 0.66973,1.54823 -1.26947,0.88917 -3.01839,0.33726 -3.63286,-1.14618 -0.1789,-0.4319 -0.47941,-0.84454 -0.66765,-0.91674 -0.54837,-0.21043 -1.46141,0.59544 -1.46141,1.28984 0,0.78771 1.43424,2.46461 2.50837,2.93264 1.8999,0.82784 4.70203,0.0623 5.77691,-1.5782 0.38948,-0.59444 0.61786,-0.65296 2.88199,-0.73846 l 2.45877,-0.0925 0.72657,0.82734 c 1.00887,1.14902 2.02508,1.50601 3.89898,1.37046 1.2673,-0.0917 1.78317,-0.2749 2.58021,-0.91674 1.73149,-1.39436 1.94703,-3.51066 0.38137,-3.74551 -0.41768,-0.0626 -0.64778,0.14076 -0.93379,0.82528 -0.20877,0.49963 -0.65701,1.10267 -0.99581,1.33997 -1.03334,0.72376 -3.14399,0.45803 -3.14399,-0.39585 0,-0.10575 0.62508,-0.48496 1.38906,-0.84232 3.17793,-1.4865 5.30035,-3.58318 6.30298,-6.22701 0.50515,-1.33194 0.55209,-1.85931 0.42943,-4.80333 -0.39242,-9.41844 -5.54262,-15.61041 -12.98422,-15.61041 z m 31.11386,0.40462 c 0.51564,0.0324 1.0518,0.27647 1.53582,0.79169 0.70833,0.75398 0.95582,2.63025 0.46819,3.54758 -0.18792,0.35352 -0.71123,0.79314 -1.16323,0.9772 -1.15475,0.4702 -2.46959,-0.20185 -2.96313,-1.51463 -0.78688,-2.09305 0.57542,-3.8991 2.12235,-3.80184 z m -66.89773,1.84123 c 0.97529,0.0454 1.95847,0.55479 2.5399,1.50844 1.032,1.69268 0.40469,4.19792 -1.22111,4.87722 -1.06214,0.44378 -1.32359,0.44223 -2.3704,-0.0134 -1.75626,-0.76455 -2.49321,-3.3718 -1.44074,-5.09788 0.54938,-0.90102 1.51708,-1.31975 2.49235,-1.27435 z m 36.01641,1.08314 h 5.2e-4 c 2.57999,-0.0196 3.05948,0.0516 4.22868,0.62684 2.51765,1.23886 4.29858,3.75197 5.72833,8.08271 0.87229,2.64229 0.87488,6.136 0.006,7.80521 -1.04387,2.0051 -3.31508,3.82771 -5.99446,4.81056 -1.56201,0.57298 -5.80054,0.83877 -7.54063,0.47284 -3.30094,-0.69421 -6.3713,-3.16574 -7.22798,-5.81825 -0.53264,-1.64933 -0.56867,-4.76418 -0.0811,-7.00578 0.81313,-3.73887 3.49035,-7.23883 6.38307,-8.34471 1.28728,-0.49213 2.13768,-0.6115 4.4974,-0.62942 z m 33.15715,1.96267 c 0.97962,0 1.49785,1.35469 0.7891,2.06344 -0.47332,0.47332 -0.95088,0.3856 -1.28364,-0.23616 -0.39662,-0.7411 -0.10261,-1.82728 0.49454,-1.82728 z m -5.58881,0.015 c 0.47183,0.14417 0.87437,0.61409 0.87437,1.30793 0,0.37835 -0.14267,0.83049 -0.31729,1.00511 -1.00554,1.00554 -2.46507,-0.31102 -1.84744,-1.66657 0.2775,-0.60904 0.81854,-0.79064 1.29036,-0.64647 z m -61.22055,3.56722 c 0.69893,0.0249 1.09703,0.82785 0.70073,1.87017 -0.34239,0.90058 -1.49907,0.87165 -1.84795,-0.046 -0.36719,-0.96579 -0.33286,-1.11177 0.36639,-1.56993 0.28154,-0.18447 0.54785,-0.26256 0.78083,-0.25425 z m -6.68486,0.11059 c 0.7285,0.0425 1.27706,1.07535 0.68109,1.98489 -0.48651,0.74252 -0.61232,0.78026 -1.28829,0.38654 -0.53188,-0.30979 -0.62163,-1.56687 -0.14573,-2.04277 0.24716,-0.24716 0.5101,-0.34282 0.75293,-0.32866 z m 65.14279,28.61014 c 0.7458,0.0357 1.28439,0.22648 1.81023,0.58084 0.49346,0.33254 0.9331,0.79178 0.9772,1.02061 0.0662,0.34399 -0.14,0.39596 -1.18908,0.30076 -1.34354,-0.12193 -10.56588,1.34251 -14.7624,2.34404 -2.94776,0.7035 -4.089,1.26214 -5.11029,2.50114 -0.95649,1.16041 -1.17432,1.97075 -1.91151,7.11843 -0.31252,2.18226 -0.62363,4.05751 -0.69143,4.16719 -0.17662,0.28579 -0.45482,0.24734 -0.97823,-0.13539 -0.43207,-0.31594 -0.41882,-0.59631 0.23203,-4.96094 0.9582,-6.42585 1.11399,-7.04218 2.04483,-8.10235 1.44856,-1.64983 2.029,-1.82917 11.44168,-3.53828 1.74625,-0.31708 4.03297,-0.74385 5.08186,-0.94827 1.35595,-0.26425 2.30931,-0.38349 3.05511,-0.34778 z m 0.75861,3.47472 c 1.25052,-0.0847 1.83346,0.0248 2.20659,0.29766 0.80605,0.58941 0.27022,0.88143 -1.89963,1.03508 -1.91509,0.13562 -4.19095,0.50376 -11.17141,1.80609 -3.0449,0.56808 -4.81068,1.40644 -5.41259,2.57039 -0.47814,0.92461 -1.27843,5.47393 -1.65003,9.37927 l -0.1695,1.78594 h -1.05575 -1.05575 l 0.18345,-1.12448 c 0.10079,-0.61846 0.47115,-3.06771 0.82321,-5.44256 0.81472,-5.49587 1.1849,-6.37386 3.06596,-7.27088 1.59787,-0.76198 2.11547,-0.8751 9.92394,-2.16886 3.04324,-0.50422 4.961,-0.78295 6.21151,-0.86765 z m 0.79479,2.13631 c 0.98254,0.0282 1.63042,0.22506 1.99522,0.59169 0.39922,0.40125 0.47704,0.86486 0.43874,2.62052 -0.0256,1.1732 -0.15035,2.60945 -0.27699,3.19153 l -0.22996,1.05834 -2.90422,-0.0925 c -4.32391,-0.13784 -6.98222,0.76206 -9.51414,3.22151 -1.69763,1.64906 -1.9705,2.4942 -1.33739,4.13877 0.76292,1.98175 0.79271,2.31887 0.22169,2.5001 -1.01433,0.32194 -1.74479,1.40228 -1.70119,2.51561 0.12813,3.26993 3.52801,8.30993 7.76904,11.51661 0.6825,0.51605 1.31596,0.93845 1.40766,0.93845 0.0916,0 0.69426,0.3626 1.33894,0.80615 0.81047,0.55762 1.16579,0.98622 1.15239,1.38906 -0.0284,0.85656 -0.82995,2.0915 -1.77199,2.72955 -0.77599,0.52559 -5.7874,1.87207 -6.03736,1.62212 -0.0633,-0.0633 0.48196,-0.71191 1.2113,-1.44125 1.24066,-1.24069 1.32602,-1.41184 1.32602,-2.65875 0,-1.09976 -0.13171,-1.47383 -0.75345,-2.13941 -1.3939,-1.49217 -3.30857,-1.43867 -4.932,0.13798 -1.8076,1.75553 -2.13825,3.40667 -1.09554,5.46633 l 0.62736,1.23868 -0.56121,0.12971 c -0.30861,0.0712 -1.43247,0.30771 -2.49701,0.52555 -2.34583,0.48009 -2.47886,0.48323 -3.02875,0.0656 -1.11164,-0.84415 -1.02993,-2.47508 0.73277,-14.61823 0.21124,-1.45521 0.56781,-4.37224 0.79272,-6.48229 0.92223,-8.65215 1.67048,-14.3898 1.98386,-15.21406 0.45039,-1.18462 2.91731,-2.04208 7.67291,-2.66702 0.50932,-0.0669 2.29526,-0.36862 3.96875,-0.67076 1.70218,-0.30731 3.01927,-0.44781 4.00183,-0.41961 z m -2.41433,9.89397 c 3.54765,0.0282 7.74813,1.14193 11.48044,3.04477 1.35545,0.69106 1.54409,0.84136 3.59048,2.85771 2.61781,2.57938 3.83498,5.37352 3.80338,8.73125 -0.033,3.50851 -1.79475,6.6496 -4.44986,7.93492 -3.61144,1.74826 -10.55097,0.23549 -16.14423,-3.51917 -4.13292,-2.77435 -7.65183,-8.15586 -6.38979,-9.77201 0.41933,-0.537 2.30952,-1.25694 3.31401,-1.26194 0.38189,-0.002 0.97096,-0.078 1.30896,-0.16847 0.54783,-0.1467 0.44226,-0.26131 -0.97203,-1.05833 -1.80643,-1.01801 -2.94969,-2.23094 -2.94969,-3.12849 0,-0.79713 1.52491,-2.13494 3.4277,-3.00757 1.25938,-0.57755 1.82322,-0.66977 3.98063,-0.65267 z m -25.54676,4.43539 c 1.85763,-0.0114 3.3515,0.32068 3.95635,0.92552 0.6555,0.6555 0.43501,0.93882 -2.00453,2.57555 -0.99865,0.67003 -1.77906,1.25487 -1.73426,1.29967 0.0448,0.0448 1.0888,-0.26126 2.32027,-0.68007 1.23148,-0.41878 2.83445,-0.79999 3.56206,-0.84749 l 1.32291,-0.0863 -0.0568,1.98438 c -0.0729,2.55849 -0.4705,4.20896 -1.54047,6.39185 -3.0506,6.22362 -9.36247,12.00831 -17.37207,15.92151 -4.60505,2.24987 -6.60933,2.82308 -10.79624,3.08767 -3.78497,0.23919 -5.92226,0.73599 -8.54573,1.98696 -1.4219,0.67801 -1.68966,0.71862 -3.66386,0.55397 -1.17144,-0.0977 -2.74308,-0.30521 -3.49281,-0.46147 -1.50823,-0.31434 -5.09661,-1.97541 -6.49883,-3.00809 -1.05371,-0.776 -1.33067,-0.6815 -0.72295,0.24598 0.82982,1.26645 2.48702,2.67389 4.2292,3.59203 0.96644,0.50932 1.75858,0.98747 1.75958,1.06247 0.001,0.075 -1.09926,0.41647 -2.44533,0.75913 -2.79752,0.71215 -5.22635,1.74476 -7.22695,3.07268 -1.24131,0.82393 -1.80349,1.37965 -3.21324,3.17552 -0.22847,0.29102 -0.60691,0.76193 -0.84129,1.04644 -0.23438,0.2845 0.19007,0.0824 0.94361,-0.44907 1.95477,-1.37855 3.55755,-2.14156 6.72052,-3.1998 4.26326,-1.42637 11.85036,-2.72697 12.23905,-2.09806 0.087,0.14073 -0.14476,0.66031 -0.5147,1.15497 -0.83218,1.11272 -1.26475,1.92533 -1.94614,3.65404 -0.6673,1.69291 -0.48404,1.73831 0.36277,0.0899 1.78262,-3.47001 4.47961,-6.16599 7.23419,-7.23108 2.29878,-0.88885 5.77732,-0.99784 7.98814,-0.25063 1.83349,0.61968 4.70215,2.36055 5.93917,3.60443 6.55288,6.58917 9.19262,23.07293 5.04052,31.47611 -0.53519,1.08314 -1.40164,2.3456 -1.92546,2.80552 -1.27793,1.12204 -3.75901,2.20499 -5.88492,2.56883 -3.69004,0.63154 -15.86041,0.1497 -22.92676,-0.90743 -13.81826,-2.06726 -22.50732,-8.58468 -25.55348,-19.16731 -1.10888,-3.85237 -1.37099,-5.94176 -1.35909,-10.84792 0.0225,-9.30769 1.84583,-15.40672 11.96258,-40.01823 0.44431,-1.08088 0.54748,-1.12009 1.91668,-0.72657 1.67101,0.48025 8.54041,1.80735 11.50782,2.22312 5.39876,0.75642 9.41968,0.99733 13.49375,0.80926 4.06287,-0.18756 7.49484,-0.90507 13.81414,-2.88872 5.00207,-1.57014 9.83955,-2.80877 11.99307,-3.07061 0.68059,-0.0827 1.34036,-0.12488 1.95957,-0.12867 z m 6.87297,15.30811 c 0.25124,0.009 0.0731,1.25237 -0.39946,4.58576 -0.52494,3.70268 -0.54317,4.74869 -0.10594,6.11332 0.22153,0.69142 -0.1634,0.77399 -1.18856,0.25529 -1.13845,-0.57605 -1.37493,-1.38409 -1.20406,-4.11758 0.17588,-2.81379 0.41701,-3.51751 1.95285,-5.70663 0.48928,-0.69739 0.79442,-1.13583 0.94517,-1.13016 z m 11.45666,3.6623 c 0.63665,0.0717 1.13172,0.57364 1.13172,1.46555 0,0.56004 -0.0652,0.62059 -0.38396,0.35605 -0.65808,-0.54616 -1.24939,-0.18919 -1.69809,1.02578 -0.46766,1.2663 -0.80117,1.53097 -1.30121,1.03094 -0.50457,-0.50457 -0.37639,-1.82144 0.26923,-2.76365 0.56736,-0.828 1.34567,-1.18638 1.98231,-1.11467 z m 10.73165,2.07688 c 0.11398,-5.4e-4 0.79464,0.29663 1.51257,0.66043 0.71791,0.36378 1.48316,0.66145 1.70067,0.66145 0.60158,0 1.48417,3.86623 2.02313,8.86355 0.82717,7.66973 -0.41549,14.76289 -3.63802,20.76979 -3.48739,6.50057 -8.1125,10.99823 -14.92932,14.51746 -4.98361,2.57279 -9.31742,3.84571 -15.84606,4.65398 -3.45,0.42711 -5.36445,0.51323 -5.62447,0.25321 -0.0849,-0.0849 0.0632,-0.53142 0.32918,-0.99219 0.76559,-1.32642 1.80699,-4.96315 2.10737,-7.35872 0.9617,-7.6697 -1.16,-18.16963 -4.80384,-23.77374 -1.95034,-2.99953 -5.65933,-6.24545 -7.73132,-6.76548 -0.90419,-0.22695 -0.79836,-0.31529 1.22112,-1.02216 3.6509,-1.2779 10.49093,-5.07215 12.51551,-6.94221 0.29104,-0.26883 1.03529,-0.88461 1.65365,-1.3684 1.18207,-0.92479 1.17828,-0.92616 1.51877,0.61134 0.0956,0.43186 0.47075,1.41284 0.83354,2.17971 0.36279,0.76687 0.59408,1.50005 0.51418,1.62936 -0.0799,0.12931 0.34899,0.5771 0.95291,0.99528 0.98849,0.68452 1.29826,0.75713 3.10421,0.72813 1.10338,-0.0177 3.1967,-0.23381 4.65191,-0.4806 7.20269,-1.22147 11.41762,-2.07274 12.76976,-2.57865 1.84413,-0.68998 3.82746,-2.49361 4.4757,-4.07003 0.26474,-0.64381 0.57488,-1.17096 0.68885,-1.17151 z m 9.11314,11.02672 2.4169,0.17156 c 4.29879,0.30513 7.81111,1.87659 10.68824,4.78162 2.31412,2.33658 3.02385,3.57248 3.52898,6.1464 0.51814,2.64021 0.32136,5.30673 -0.68058,9.23354 -1.63137,6.39372 -3.69812,10.38893 -7.23211,13.98003 -1.96468,1.99642 -2.81234,2.6501 -4.41575,3.40651 -1.0914,0.51487 -2.5797,1.06087 -3.3073,1.21284 -0.7276,0.15198 -2.39447,0.32056 -3.70416,0.37466 -4.33052,0.17889 -15.31474,-0.50645 -17.50384,-1.09192 -0.68229,-0.18247 -0.6146,-0.25042 1.28777,-1.2945 9.09304,-4.99054 16.10615,-14.46071 18.2237,-24.60883 0.59755,-2.86371 1.02202,-8.40104 0.82579,-10.7673 z m -108.80422,3.56826 c 0.0595,0.0595 -0.003,0.87753 -0.13901,1.81797 -0.32308,2.23714 -0.32193,9.05076 0.002,11.86956 0.64092,5.57472 2.56413,10.85402 5.76864,15.83573 h -5.2e-4 c 0.34869,0.54212 0.33874,0.59321 -0.11058,0.57361 -1.16168,-0.0506 -3.8008,-1.96562 -3.8008,-2.75798 0,-0.16193 -0.15557,-0.50767 -0.34624,-0.76842 -0.33111,-0.45286 -0.38749,-0.44932 -1.25677,0.0806 -1.4099,0.8595 -2.21763,0.74208 -2.76055,-0.40204 -0.95478,-2.01206 -0.7723,-5.3549 0.42995,-7.88789 0.27198,-0.57304 0.49402,-1.07843 0.49402,-1.12293 0,-0.0445 -0.56153,0.3478 -1.24798,0.87178 -1.43764,1.09737 -2.18435,1.42524 -3.24787,1.42524 -0.67575,0 -0.82271,-0.16421 -1.36167,-1.52136 -0.51565,-1.29834 -0.60447,-2.00619 -0.60513,-4.82864 -6.8e-4,-2.9637 0.073,-3.49347 0.70693,-5.09633 0.84368,-2.13327 1.81799,-3.60133 3.59151,-5.41259 1.22929,-1.25543 3.6422,-2.91812 3.884,-2.67632 z m 111.28468,10.68823 c -0.72801,-0.44994 -4.85241,8.21777 -7.10551,14.93242 -0.83039,2.47478 -0.93549,3.09965 -0.96169,5.72472 -0.0255,2.55143 0.038,3.02183 0.47439,3.50573 0.27721,0.30739 0.67091,0.55914 0.87488,0.55914 0.30581,0 0.29875,-0.10321 -0.0408,-0.58808 -0.52952,-0.756 -0.5426,-3.91122 -0.0264,-6.34742 0.66542,-3.13985 2.69296,-8.26021 5.33197,-13.46533 1.66935,-3.29253 1.91856,-4.03353 1.45314,-4.32118 z m -70.57553,2.6293 -0.31213,1.40198 c -0.42811,1.92296 -0.39066,7.8911 0.0672,10.71149 0.7408,4.56372 2.43551,8.08127 4.67465,9.70328 1.85859,1.34635 1.93811,1.02909 0.22893,-0.91467 -2.28531,-2.59896 -3.51995,-7.01167 -3.96048,-14.15572 -0.14808,-2.40142 -0.36577,-4.90173 -0.4837,-5.55625 z" /></g></svg>
