<?xml version="1.0" encoding="UTF-8" standalone="no"?>
<!-- Created with Inkscape (http://www.inkscape.org/) -->

<svg
   width="231.67487mm"
   height="236.87946mm"
   viewBox="0 0 231.67486 236.87946"
   version="1.1"
   id="svg1"
   xml:space="preserve"
   xmlns="http://www.w3.org/2000/svg"
   xmlns:svg="http://www.w3.org/2000/svg"><defs
     id="defs1" /><g
     id="layer1"
     transform="translate(34.713367,10.028894)"><path
       style="fill:#000000"
       d="m 110.79999,226.58711 c -3.7507,-0.53281 -8.83137,-2.64723 -11.898365,-4.95173 -1.59234,-1.19646 -4.67788,-4.12927 -5.56413,-5.28871 l -0.66146,-0.86536 -2.11667,1.05059 c -6.03482,2.99532 -13.59722,4.53971 -22.22499,4.53877 -8.56794,-9.3e-4 -15.58856,-1.28109 -26.07526,-4.75465 -2.59202,-0.85856 -5.20539,-1.81235 -5.8075,-2.11952 l -1.09473,-0.55849 -2.16438,1.37468 c -8.63965,5.48734 -16.08936,7.90962 -24.3387004,7.91374 -3.69715,0.002 -6.11608,-0.32219 -9.17880999,-1.22956 -6.89302001,-2.04214 -13.15787961,-7.18235 -18.33162661,-15.04076 -7.270134,-11.04261 -8.673179,-21.44053 -3.812258,-28.2525 1.280118,-1.79392 3.06503,-3.18573 4.665735,-3.63817 0.628076,-0.17752 1.176466,-0.60754 1.646633,-1.29121 0.924342,-1.34408 2.820537,-2.62561 4.825067,-3.261 3.1717096,-1.00534 8.3036296,-0.5359 11.36581961,1.03969 0.71134,0.36601 0.8527,0.33836 2.38124999,-0.46578 0.89375,-0.4702 1.66896,-0.89097 1.72267,-0.93507 0.0537,-0.0441 -0.4389,-0.69355 -1.0947,-1.44323 -1.5491,-1.77085 -3.26276999,-5.30307 -3.88956999,-8.01717 -2.15473001,-9.33018 0.70197,-19.26904 8.02826999,-27.9315 2.43439,-2.87837 5.5142504,-5.55964 9.4507204,-8.22766 1.73268,-1.17435 3.15033,-2.17897 3.15033,-2.2325 0,-0.0535 -0.80368,-0.54613 -1.78594,-1.09469 -3.95725,-2.21 -8.8831704,-5.98872 -11.5212104,-8.83805 -2.18552,-2.36056 -4.08187,-5.11961 -5.55416999,-8.08089 -1.36377,-2.743 -1.8561,-4.159903 -2.52363001,-7.262893 -0.54822,-2.54838 -0.12663,-2.26796 -4.37046,-2.90704 -5.3574096,-0.80678 -10.1040916,-4.09746 -11.4739616,-7.95442 -0.266542,-0.75046 -0.628844,-1.31112 -0.847264,-1.31112 -0.76284,0 -4.687279,-2.10733 -6.000591,-3.22217 -5.351158,-4.54248 -8.477943,-12.62677 -7.51297,-19.424743 0.30435,-2.144064 0.293261,-2.287998 -0.218548,-2.836607 -0.296543,-0.317864 -0.842878,-1.184857 -1.21408,-1.926652 -1.804797,-3.606635 -1.96386,-8.843602 -0.412173,-13.570276 l 0.544947,-1.659993 -0.549168,-1.134431 c -1.598735,-3.302545 -0.562633,-9.994407 2.460044,-15.888664 1.08308,-2.112018 1.361453,-2.91839 1.379747,-3.996748 0.02849,-1.679247 0.876115,-3.447644 3.024633,-6.310253 3.065032,-4.083742 8.079624,-8.6979011 12.650708,-11.6405041 3.820267,-2.45926697 9.9489166,-5.042478 14.78797661,-6.23309 0.94770999,-0.233176 1.13020999,-0.393152 1.28552999,-1.126831 0.49896,-2.356893 1.94112,-3.720584 5.18929,-4.906942 1.89993,-0.6939259 2.0856,-0.7103879 7.8987904,-0.7002899 5.17265,0.009 6.31734,0.08911 8.73125,0.6111829 11.78078,2.547909 20.59309,8.92908603 25.26675,18.296184 0.39934,0.800364 0.76186,1.4954021 0.80561,1.5445271 0.0437,0.04913 1.16105,-0.338352 2.48289,-0.8610621 2.61439,-1.033833 6.61861,-2.14536 8.74445,-2.427362 0.73774,-0.09786 1.39927,-0.271669 1.47007,-0.386232 0.0708,-0.114564 -0.2397,-0.800991 -0.69002,-1.525394 -1.05734,-1.700919 -1.32249,-3.990121 -0.66235,-5.71866697 1.59283,-4.17077503 7.86466,-5.08187803 14.94956,-2.17170903 0.9346,0.38389 1.73827,0.697983 1.78594,0.697983 0.0477,0 0.0867,-0.572003 0.0867,-1.271117 0,-1.699916 1.12938,-3.508254 2.69832,-4.320482 1.74475,-0.903246 4.14396,-0.808584 6.41253,0.25301 3.53512,1.654282 6.476,4.586128 9.53953,9.510206 0.98508,1.583346 1.14247,1.717742 2.11369,1.804892 1.579585,0.141739 4.174545,1.545523 5.609625,3.034614 1.49704,1.553384 3.25963,4.3362051 3.25963,5.1463991 0,0.452916 0.5035,0.817801 2.48763,1.802777 2.48249,1.232369 4.35901,2.578513 6.95538,4.989517 0.75528,0.70135 1.47495,1.275182 1.59928,1.275182 0.12433,0 0.697,-0.621527 1.27261,-1.381172 4.56127,-6.019655 10.23041,-9.7313271 14.86345,-9.7313271 1.52654,0 3.2997,0.71782 3.76019,1.5222181 0.66032,1.153456 0.59448,1.137417 2.9418,0.716702 3.34522,-0.599573 9.46118,-0.549893 13.36109,0.108532 5.52306,0.932465 10.81988,2.930709 15.01222,5.663412 2.43729,1.588705 5.82387,4.610861 5.59032,4.988753 -0.0825,0.133463 -0.0102,0.209944 0.16071,0.169959 0.46821,-0.109563 2.28325,2.649034 2.77918,4.223946 0.43932,1.395124 0.35268,3.336289 -0.16314,3.65508 -0.55295,0.341742 -0.1295,1.07553 1.89395,3.282004 5.99815,6.540699 9.70197,13.875709 11.27003,22.319055 0.65606,3.532602 0.64848,11.392373 -0.0141,14.601373 -0.71337,3.45508 -1.84773,6.24677 -3.03569,7.47088 -0.94208,0.97076 -1.01578,1.17084 -1.30846,3.55238 -0.36942,3.00609 -0.92211,4.82786 -2.01891,6.65475 -0.88834,1.47967 -2.7309,3.03926 -3.8567,3.26443 -0.62535,0.12506 -0.76043,0.33617 -1.04886,1.6391 -0.18209,0.82255 -0.55556,2.09086 -0.82995,2.81846 -0.78362,2.078 -0.65425,2.6406 0.43418,1.88818 1.11981,-0.77412 5.38617,-2.28505 6.45221,-2.28505 2.72705,0 4.65171,2.04338 6.6559,7.066463 2.35384,5.89944 4.75274,19.32201 3.97167,22.2227 -0.5599,2.0793 -1.7469,2.97445 -5.89115,4.44268 -1.95663,0.6932 -2.02394,0.74486 -1.78594,1.37085 0.41984,1.10425 0.2859,3.20735 -0.27416,4.30517 -1.21854,2.38854 -4.35574,3.84213 -7.94084,3.67932 -1.80303,-0.0819 -2.22999,-0.20072 -3.22411,-0.89748 -0.84304,-0.59086 -1.24904,-1.11501 -1.5363,-1.98338 -0.21474,-0.64916 -0.41512,-1.22191 -0.44529,-1.2728 -0.0302,-0.0509 -0.47808,0.0472 -0.99536,0.21788 l -0.94051,0.3104 0.42259,0.81721 c 0.23243,0.44946 0.48342,1.48795 0.55776,2.30775 0.33665,3.71271 -2.81994,6.36465 -7.56857,6.35857 -3.45499,-0.004 -5.8595,-1.63409 -6.28405,-4.259 l -0.15435,-0.9543 -1.3613,0.0725 -1.36131,0.0725 -0.16194,2.73388 c -0.31714,5.3537 -1.8414,9.36123 -5.66976,14.90666 -1.92737,2.79182 -6.28803,7.0961 -9.06595,8.94873 -2.12518,1.41731 -5.8458,3.22836 -8.59467,4.18355 -1.60713,0.55845 -1.78801,0.69165 -1.71958,1.2662 0.0604,0.5069 0.49971,0.85525 2.08651,1.65442 5.28606,2.66224 8.97999,8.82443 9.80497,16.35661 1.08212,9.87999 -4.26951,22.14041 -13.57276,31.09475 -3.80381,3.66115 -6.77757,5.18369 -11.87749,6.0812 -2.45345,0.43176 -5.78203,0.46532 -8.45745,0.0853 z m 9.79641,-4.65802 c 3.8614,-1.15694 6.5292,-3.10081 10.612,-7.73235 3.72554,-4.22627 6.98775,-10.17397 8.41401,-15.34052 0.61667,-2.23385 0.70047,-3.18487 0.17416,-1.97657 -0.40677,0.93389 -1.77809,2.16778 -2.65336,2.38746 -1.01772,0.25543 -2.38469,-0.50518 -2.94815,-1.64042 -0.39026,-0.78629 -0.50794,-1.58462 -0.50573,-3.43083 0.003,-2.13222 -0.0482,-2.39273 -0.44554,-2.28881 -0.7636,0.19968 -2.28573,-0.46126 -2.99013,-1.2984 -0.36958,-0.43923 -0.80339,-1.32048 -0.964,-1.95835 l -0.29203,-1.15976 -0.75131,0.38852 c -1.57658,0.81528 -3.53993,0.30366 -4.93585,-1.28621 -0.4635,-0.52789 -0.92341,-1.38995 -1.02204,-1.9157 -0.22341,-1.19085 0.0168,-3.34143 0.46257,-4.14106 0.30486,-0.54688 0.35661,-0.42105 0.55714,1.35451 0.46043,4.0769 2.11947,5.40234 5.27218,4.21204 1.35069,-0.50994 2.328,-2.50681 2.328,-4.75664 0,-1.93883 -0.72472,-2.86801 -2.23693,-2.86801 -0.51594,0 -0.92397,0.0893 -0.90674,0.19844 0.0862,0.54575 -0.0703,0.85989 -0.4282,0.85989 -0.21829,0 -0.39688,-0.16626 -0.39688,-0.36946 0,-0.48927 -1.69577,-1.96247 -2.48777,-2.16125 -0.75931,-0.19058 -2.66574,0.71986 -3.06345,1.46298 -0.15249,0.28493 -0.30939,1.68352 -0.34869,3.10799 -0.0804,2.91359 -0.44582,3.89387 -1.81517,4.86893 -0.58682,0.41786 -1.219,0.60091 -2.07524,0.60091 -3.31614,0 -4.92319,-3.19857 -3.32818,-6.62421 1.0792,-2.31782 3.32586,-3.33078 5.34598,-2.41035 0.57335,0.26124 0.74138,0.26059 0.82931,-0.003 0.0606,-0.18195 0.63546,-0.69215 1.27735,-1.13379 1.62631,-1.11893 3.33127,-1.29679 4.88726,-0.50985 0.64651,0.32697 1.84842,0.68367 2.67092,0.79267 1.78219,0.23616 2.64323,0.80801 3.43877,2.28381 0.53022,0.98359 0.65178,1.06797 1.18718,0.82403 0.57296,-0.26106 1.77318,-0.0797 3.09961,0.46845 0.47232,0.19518 0.47337,0.17039 0.0295,-0.69608 -1.21645,-2.37437 -3.37817,-4.02728 -5.82403,-4.45321 -0.9094,-0.15836 -2.22447,-0.54052 -2.92237,-0.84924 -1.88131,-0.83219 -4.70907,-0.77722 -7.09315,0.13789 -1.79527,0.68909 -2.41221,0.72614 -1.7938,0.10773 1.56162,-1.56162 -3.70235,-0.23445 -6.38166,1.60897 -0.652,0.44859 -1.67459,1.3713 -2.27243,2.05048 -0.59784,0.67919 -1.08698,1.09431 -1.08698,0.9225 0,-0.64819 1.05573,-2.3431 2.12635,-3.41372 0.98037,-0.98037 1.0429,-1.1109 0.53222,-1.1109 -0.31828,0 -1.46797,0.37021 -2.55488,0.82268 -7.08145,2.94802 -13.164195,11.65821 -15.372785,22.01306 -0.56793,2.66271 -0.63058,8.9695 -0.10696,10.76634 0.75152,2.57888 1.96681,4.59758 3.99133,6.62994 3.570295,3.58414 8.328755,6.16446 13.104515,7.10608 2.09707,0.41347 7.64863,0.15645 9.66412,-0.44742 z m -5.2382,-0.86839 c -1.93457,-0.26767 -4.03162,-1.36117 -5.34696,-2.78814 -3.82927,-4.15427 -3.87849,-11.21391 -0.13485,-19.34303 2.80864,-6.09884 8.34516,-10.16553 13.35194,-9.8073 4.40766,0.31537 8.12644,3.51057 9.5922,8.24171 0.44576,1.4388 0.57941,2.50889 0.56572,4.52967 -0.0372,5.49728 -2.0249,9.83532 -6.64563,14.50394 -3.61259,3.65004 -7.42281,5.21101 -11.38242,4.66315 z m 6.22029,-2.6335 c 1.38292,-0.66091 2.39517,-1.46403 4.45771,-3.53673 2.28427,-2.29551 2.84771,-3.04332 3.91307,-5.19342 1.52582,-3.07938 1.99665,-4.97416 2.00482,-8.06802 0.0102,-3.86259 -0.90616,-6.36788 -3.14984,-8.61156 -2.02559,-2.02558 -3.15409,-2.49754 -5.96572,-2.49494 -2.64841,0.002 -4.35651,0.56485 -6.35,2.09078 -3.00973,2.30382 -5.82679,6.74455 -6.87886,10.84363 -1.18496,4.61689 -1.15273,8.75444 0.0924,11.86495 0.40844,1.0203 2.51769,3.06198 3.6888,3.57062 2.32754,1.01092 5.47265,0.83218 8.18758,-0.46531 z M 15.670825,218.13875 c 4.53528,-0.92059 9.90883,-3.18874 13.84134,-5.84237 1.73464,-1.17052 2.1877,-1.79914 1.3019,-1.80638 -0.47977,-0.004 -5.20894,-3.37152 -7.17555,-5.10965 -1.65357,-1.46145 -4.20154,-4.23241 -6.23643,-6.78222 -0.50933,-0.63821 -1.35005,-1.67623 -1.86827,-2.30671 -1.40535,-1.70981 -3.43504,-5.23463 -4.39182,-7.62697 -1.2230204,-3.05808 -1.7140204,-5.7853 -1.9054204,-10.58333 l -0.16887,-4.23334 -1.5875,-0.0822 c -3.38692,-0.17546 -4.42852,0.55135 -3.01515,2.10391 1.06979,1.17515 2.35369,3.147 2.35369,3.61487 0,0.20547 -0.70915,-0.28298 -1.5759,-1.08543 -1.89086,-1.7506 -4.03827,-2.82244 -6.06159999,-3.02551 -0.84372001,-0.0847 -1.76397001,-0.36169 -2.12047001,-0.63828 -1.31827,-1.02275 -5.06807,-1.43209 -7.3216996,-0.79925 -1.18913,0.33392 -3.45106,2.11067 -3.11221,2.44465 0.11871,0.117 0.5301,0.25411 0.91419,0.30468 0.38409,0.0506 0.88269,0.24493 1.108,0.43193 0.34856,0.28927 0.47336,0.21679 0.83677,-0.48595 0.34051,-0.65848 0.5450096,-0.79287 1.0086596,-0.66285 0.40836,0.11451 0.47465,0.089 0.22258,-0.0858 -0.57153,-0.39618 0.0753,-0.63364 1.76792,-0.64906 1.7696,-0.0161 2.80452,0.45103 3.98975,1.80093 0.7241,0.8247 0.95061,0.93577 1.56063,0.76521 1.64149001,-0.45894 2.99932,0.38138 3.94145,2.43925 1.23529,2.69823 0.72277,5.42089 -1.19143999,6.32924 -1.52246,0.72245 -3.76103001,-0.0814 -4.54120001,-1.63083 -0.21346,-0.42392 -0.40732,-0.80588 -0.43079,-0.84879 -0.0235,-0.0429 -0.39646,0.27576 -0.82885,0.70815 -1.34855,1.34855 -3.51646,1.4181 -4.69124,0.1505 l -0.6053496,-0.65319 -0.15537,0.77689 c -0.1858,0.929 -1.7749,2.59384 -2.69665,2.82518 -0.36199,0.0909 -1.076793,0.0866 -1.588462,-0.009 -0.754233,-0.14149 -1.115675,-0.45371 -1.909705,-1.6496 -0.833855,-1.25588 -0.994206,-1.73716 -1.079051,-3.23872 -0.06887,-1.21888 0.03226,-2.07935 0.327417,-2.78576 0.234889,-0.56217 0.363792,-1.08541 0.28645,-1.16275 -0.07734,-0.0773 -0.615751,0.32333 -1.196466,0.89038 -1.105731,1.07972 -2.638608,4.46269 -2.638608,5.82326 v 0.68801 l 0.796151,-0.56691 c 0.694713,-0.49468 0.912148,-0.52862 1.706567,-0.26644 1.141162,0.37662 2.409814,1.79723 2.773039,3.10519 0.41867,1.50762 0.340875,3.89755 -0.161138,4.95029 -0.262246,0.54993 -0.804833,1.09846 -1.335806,1.35042 -0.844908,0.40093 -0.94532,0.39414 -1.822451,-0.12338 -0.510552,-0.30124 -0.972661,-0.5477 -1.026909,-0.5477 -0.438907,0 3.742167,8.54759 5.112151,10.45104 4.9715706,6.90747 9.9346806,11.02945 15.38964061,12.78146 4.54417999,1.45949 9.79594039,1.65062 15.20208039,0.55326 z M -0.85712539,216.34736 C -7.9335154,214.08223 -14.877084,204.62805 -14.877084,197.25817 c 0,-6.11525 3.708149,-10.08003 9.0961186,-9.72563 4.41631,0.29049 8.64112,4.0192 11.38293,10.04629 3.5486,7.80059 4.07377,14.05068 1.44827,17.23587 -1.51886,1.84264 -4.89478,2.49698 -7.90735999,1.53266 z m 4.94666999,-1.3731 c 1.18495,-0.44674 2.3812,-1.78353 2.73872,-3.06047 1.19233,-4.25858 -1.77181,-13.98232 -5.82565,-19.11082 -1.12271999,-1.42034 -3.51764,-3.19016 -5.00512,-3.69873 -1.42494,-0.48719 -3.96116,-0.37127 -5.31833,0.24307 -2.4434596,1.10607 -3.5537496,2.77882 -4.0346996,6.07866 -0.30048,2.06158 -0.2788,2.32803 0.45233,5.55961 0.24098,1.06512 1.8227,4.12951 3.0276996,5.86578 4.23971,6.10896 10.16512001,9.55553 13.96505,8.1229 z m 72.0500304,1.43961 c 3.32585,-0.4763 7.22671,-1.46056 9.96022,-2.51314 2.31566,-0.89168 5.61958,-2.75593 5.82281,-3.28554 0.0768,-0.20018 -0.0496,-1.19637 -0.28105,-2.21375 -1.94155,-8.53633 2.57154,-21.68567 9.889835,-28.81502 2.56326,-2.49709 4.23581,-3.68416 6.96873,-4.946 2.08123,-0.96095 5.12443,-1.64579 5.52653,-1.24369 0.15209,0.1521 1.07518,-0.0421 2.41245,-0.50765 1.19135,-0.4147 2.7219,-0.7556 3.40123,-0.75755 2.30251,-0.007 2.85492,-0.64987 0.81539,-0.9495 -2.81728,-0.4139 -7.72708,-2.41672 -11.32913,-4.62142 -1.74906,-1.07055 -5.20113,-3.66082 -5.36167,-4.02315 -0.0485,-0.10948 -0.23897,-0.19905 -0.42325,-0.19905 -0.23554,0 -0.38674,0.76617 -0.50907,2.57969 -0.27861,4.1302 -1.00735,7.09462 -2.4132,9.81661 -4.507105,8.72661 -12.500785,14.03908 -24.129035,16.03579 -2.55807,0.43926 -4.33168,0.97497 -5.27571,1.59352 -0.31237,0.20468 -1.76072,2.01585 -3.21854,4.02483 -3.28062,4.52091 -5.25344,6.80224 -7.76724,8.98184 -3.96476,3.43765 -8.07645,5.66788 -12.6643,6.86923 -2.55999,0.67036 -2.61545,0.59732 1.36305,1.79529 9.13566,2.75084 18.74677,3.59097 27.21195,2.37866 z m -30.90004,-6.04229 c 7.5803,-1.60647 14.13707,-6.22657 19.91103,-14.02991 2.95911,-3.99915 4.45418,-5.59027 5.97866,-6.36278 1.19879,-0.60747 5.17751,-1.70357 6.73014,-1.85408 2.74915,-0.2665 8.34296,-2.42286 11.67906,-4.50216 2.04989,-1.27764 5.63242,-4.58091 7.19468,-6.63385 0.99668,-1.30972 2.87988,-5.1727 3.12052,-6.40107 0.167675,-0.85591 0.0412,-1.00987 -4.85378,-5.91003 l -5.02594,-5.03124 -0.45976,1.41212 c -1.12131,3.4441 -3.20834,6.99354 -5.42817,9.23179 -1.20778,1.21781 -4.07602,3.31475 -5.83926,4.26903 -2.56875,1.39022 -7.43737,3.01028 -10.92082,3.63394 -5.76168,1.03155 -7.04067,1.81555 -10.92618,6.69757 -5.66074,7.11256 -9.50327,10.50694 -14.92482,13.18417 -6.27013,3.09626 -12.81849,3.90799 -17.83491,2.21081 -1.01484,-0.34334 -1.9105,-0.55892 -1.99035,-0.47906 -0.0799,0.0799 0.39029,0.61997 1.04477,1.20025 6.63789,5.88534 9.87928,7.93464 14.39823,9.10299 2.7922,0.72191 5.55587,0.81062 8.1469,0.26151 z m -10.76996,-2.78639 c -0.0927,-0.14999 0.0135,-0.19434 0.24897,-0.10399 0.45837,0.17589 0.54224,0.36554 0.16165,0.36554 -0.13693,0 -0.32171,-0.1177 -0.41062,-0.26155 z m -2.17301,-1.0265 c -0.90309,-0.53847 -1.91512,-1.22499 -2.24896,-1.52559 -0.33384,-0.30061 -1.14276,-0.9138 -1.79761,-1.36265 -1.31737,-0.90298 -2.8181,-2.17371 -2.56714,-2.17371 0.36966,0 1.50881,0.63134 1.50881,0.83622 0,0.12216 0.13164,0.22211 0.29253,0.22211 0.1609,0 0.62614,0.26789 1.03388,0.59532 0.40774,0.32742 1.82391,1.34857 3.14705,2.26922 1.32314,0.92065 2.40571,1.78385 2.40571,1.91823 0,0.30411 0.16134,0.37497 -1.77427,-0.77915 z m 32.53208,-15.27567 c -0.32743,-0.37353 -0.59532,-0.79512 -0.59532,-0.93687 0,-0.14175 -0.11049,-0.18944 -0.24553,-0.10597 -0.13504,0.0835 -0.31489,-0.0583 -0.39965,-0.31512 -0.0848,-0.25677 -0.65888,-1.00481 -1.27582,-1.6623 -0.61694,-0.65749 -1.59795,-1.78858 -2.18004,-2.51354 -0.58208,-0.72496 -1.16034,-1.39252 -1.28502,-1.48347 -0.12467,-0.0909 -0.0934,-0.24773 0.0695,-0.3484 0.27554,-0.17029 1.73024,1.25653 3.62598,3.55647 0.41981,0.50933 1.03147,1.22248 1.35924,1.5848 0.32777,0.36231 0.59595,0.73075 0.59595,0.81874 0,0.088 0.29751,0.50593 0.66113,0.92875 0.36363,0.42281 0.66128,0.85805 0.66146,0.96719 6.2e-4,0.38194 -0.40159,0.18313 -0.99186,-0.49028 z m -7.95969,-0.60143 c -0.28766,-0.18235 -0.28021,-0.25161 0.0403,-0.37459 0.40894,-0.15693 0.70951,0.007 0.70951,0.38592 0,0.27996 -0.29736,0.27546 -0.74979,-0.0113 z m -0.63969,-0.94346 c -0.25443,-0.18605 -0.4626,-0.46405 -0.4626,-0.61778 0,-0.15373 -0.14883,-0.33267 -0.33073,-0.39763 -0.1819,-0.065 -0.2471,-0.20812 -0.14489,-0.31813 0.20809,-0.22396 1.00478,0.47409 1.00478,0.88037 0,0.14379 0.14883,0.31459 0.33073,0.37955 0.1819,0.065 0.27101,0.18421 0.19802,0.265 -0.073,0.0808 -0.34088,-0.005 -0.59531,-0.19138 z m 9.0457,-1.69341 c -2.11177,-2.46397 -3.28348,-4.01048 -3.03852,-4.01048 0.22584,0 0.40078,0.18457 2.4767,2.61295 1.7912,2.09532 2.5634,3.1647 2.40029,3.32401 -0.0561,0.0548 -0.8834,-0.81213 -1.83847,-1.92648 z m -7.35524,-0.15646 c -0.71539,-0.72047 -1.07856,-1.28488 -0.9552,-1.48449 0.13622,-0.22039 0.56318,0.0745 1.35267,0.93441 1.09697,1.19475 1.39437,1.72959 0.9552,1.71783 -0.10914,-0.003 -0.71785,-0.52841 -1.35267,-1.16775 z m -24.80472,10.56801 c 1.29331,-0.21196 2.45417,-0.32192 2.57969,-0.24435 0.12552,0.0776 0.22822,0.008 0.22822,-0.15476 0,-0.1627 0.11083,-0.22732 0.2463,-0.14359 0.13547,0.0837 0.32109,0.0312 0.41249,-0.11668 0.0914,-0.1479 0.52338,-0.2689 0.95994,-0.2689 0.45566,0 0.7249,-0.11141 0.6321,-0.26155 -0.0927,-0.14998 0.0135,-0.19434 0.24897,-0.10399 0.22584,0.0867 0.41061,0.0406 0.41061,-0.10225 0,-0.1429 0.32279,-0.25981 0.7173,-0.25981 0.43785,0 0.86272,-0.21904 1.0906,-0.56224 0.20532,-0.30924 0.50762,-0.56042 0.67177,-0.55819 0.16415,0.002 0.11987,0.11947 -0.0984,0.26053 -0.26458,0.17099 -0.28663,0.25783 -0.0661,0.26053 0.1819,0.002 0.54653,-0.21175 0.81029,-0.4755 0.26375,-0.26376 0.60198,-0.43875 0.75161,-0.38888 1.04106,0.34703 9.26444,-7.27353 12.65945,-11.73143 2.17973,-2.86215 4.26363,-4.9032 5.73107,-5.61323 0.67823,-0.32816 2.70229,-0.94693 4.49792,-1.37504 1.79562,-0.42811 4.23371,-1.01347 5.41797,-1.3008 6.59524,-1.60013 13.02238,-6.18441 15.59814,-11.12565 0.55092,-1.05686 0.55943,-1.08504 0.60412,-1.99999 0.0185,-0.37781 0.15002,-0.6048 0.29766,-0.51355 0.15187,0.0939 0.26458,-0.14628 0.26458,-0.56377 0,-0.40001 0.1422,-1.41577 0.31601,-2.25725 0.1738,-0.84147 0.24841,-1.59754 0.16581,-1.68015 -0.0826,-0.0826 -1.03839,0.20263 -2.12396,0.63386 -2.7003,1.07268 -3.62965,1.21514 -4.78305,0.73322 -0.70108,-0.29293 -1.12828,-0.74178 -1.60913,-1.6907 -0.67872,-1.33938 -1.44915,-4.42539 -1.7349,-6.94917 -0.0906,-0.80036 -0.26215,-1.61018 -0.3812,-1.79959 -0.4052,-0.64473 -0.25442,-5.30565 0.19377,-5.98968 0.48424,-0.73904 2.95086,-2.26399 4.74006,-2.93047 0.69613,-0.25931 1.22542,-0.60259 1.17619,-0.76284 -0.0492,-0.16026 -1.18401,-0.84458 -2.52172,-1.52071 -3.08643,-1.56 -5.69107,-2.00846 -9.01883,-1.55282 -5.21755,0.71438 -8.10683,2.10298 -15.12247,7.26792 -2.49899,1.83977 -2.6953,1.90855 -6.87629,2.40938 -2.10517,0.25217 -3.91932,0.53872 -4.03145,0.63679 -0.11214,0.0981 0.10403,0.5271 0.48036,0.9534 3.1869,3.61 5.29106,9.04401 5.01293,12.94591 -0.18715,2.62554 -0.3703,3.54297 -0.92135,4.61534 -0.26593,0.5175 -0.63899,1.27857 -0.82902,1.69125 -0.65354,1.41929 -2.19757,2.71962 -3.52499,2.96865 -0.61342,0.11508 -0.9401,0.32396 -0.9401,0.60109 0,0.7923 -0.87774,2.82037 -1.5277,3.52986 -1.06604,1.16368 -3.53489,2.33652 -4.91841,2.33652 -1.26111,0 -3.61138,0.94025 -3.60393,1.44179 0.002,0.1529 0.17663,0.99238 0.38745,1.8655 0.59438,2.46159 0.52597,4.16304 -0.19314,4.80402 -0.9067,0.80818 -2.25824,1.51585 -4.67521,2.44793 -2.44989,0.94478 -3.19971,0.92297 -4.33093,-0.12595 -0.98661,-0.91484 -1.38886,-1.78309 -2.02294,-4.36655 -0.30108,-1.22665 -0.66462,-2.65535 -0.80787,-3.17487 l -0.26046,-0.94459 -2.58333,-0.32682 c -3.06315,-0.38752 -4.85561,-0.85728 -7.29531,-1.91191 -0.99087,-0.42833 -1.93018,-0.6993 -2.08736,-0.60216 -0.49937,0.30863 -0.06,6.25565 0.6818,9.22799 2.21632,8.88087 6.77493,13.70269 14.12473,14.94027 1.98844,0.33482 4.24249,0.29447 6.7797,-0.12137 z m 28.86937,-31.01995 c -1.19046,-0.12942 -3.08123,-0.88133 -2.97998,-1.18506 0.0762,-0.22858 9.44637,-4.19195 13.62017,-5.76102 l 1.37979,-0.51871 -0.26625,0.70027 c -0.67603,1.77811 -3.26339,4.35143 -5.53,5.50001 -1.82531,0.92496 -4.44717,1.45765 -6.22373,1.26451 z m -5.67046,-3.09255 c -0.49938,-0.5165 -0.85124,-0.99582 -0.78192,-1.06514 0.33145,-0.33145 18.61244,-7.81939 19.09018,-7.81939 0.30451,0 0.0716,2.61458 -0.2615,2.93564 -0.11301,0.10892 -1.69375,0.79162 -3.51276,1.51711 -1.81901,0.72549 -5.39089,2.17605 -7.9375,3.22347 -2.54662,1.04742 -4.86834,1.95908 -5.15938,2.02591 -0.359,0.0824 -0.82114,-0.18048 -1.43712,-0.8176 z m -1.48145,-2.54772 c -0.0812,-0.13133 -0.21632,-0.81926 -0.30035,-1.52873 -0.13116,-1.10745 -0.0827,-1.31088 0.34245,-1.43797 0.27237,-0.0814 3.29319,-1.29507 6.71293,-2.69701 8.6564,-3.54873 11.91089,-4.74974 12.13496,-4.47819 0.396,0.47992 0.87442,2.27775 0.65782,2.47196 -0.12379,0.11099 -2.48726,1.10879 -5.25215,2.21733 -2.7649,1.10854 -6.75349,2.74316 -8.86355,3.63249 -4.50368,1.89817 -5.23287,2.1425 -5.43211,1.82012 z m -0.12414,-4.45793 c 0,-0.94582 1.16931,-3.77985 1.74706,-4.23431 0.63742,-0.50139 6.03449,-2.71483 11.36105,-4.65939 l 2.39248,-0.87342 1.32443,1.09985 c 0.72845,0.60492 1.35662,1.21891 1.39596,1.36443 0.0393,0.14552 -0.44266,0.46516 -1.07109,0.71029 -0.62843,0.24514 -4.17869,1.65994 -7.88947,3.14399 -9.47131,3.78786 -9.26042,3.70932 -9.26042,3.44856 z m 3.89774,-7.68192 c 2.26027,-2.11922 6.03128,-3.65526 8.18197,-3.33274 1.07742,0.16157 1.88201,0.66912 1.06072,0.66912 -0.21151,0 -2.21283,0.72764 -4.44739,1.61699 -2.23455,0.88934 -4.53908,1.78067 -5.12116,1.98071 l -1.05833,0.36373 z m 79.204845,47.58378 c 1.4159,-1.4159 1.97011,-4.24475 1.14442,-5.84147 -0.37738,-0.72975 -0.51315,-0.79636 -1.3474,-0.66098 -1.64518,0.26698 -2.88062,2.50329 -2.54417,4.60527 0.12579,0.78586 1.47076,2.44977 1.9802,2.44977 0.1179,0 0.46302,-0.24866 0.76695,-0.55259 z m -154.635027,-4.92595 c 0.248149,-0.9887 -0.0916,-3.2025 -0.634023,-4.13126 -0.470631,-0.80583 -2.268114,-1.7688 -2.628657,-1.40826 -0.272035,0.27203 -0.427169,2.96467 -0.231041,4.01013 0.09999,0.533 0.591164,1.41032 1.112881,1.9878 0.903775,1.00037 0.954588,1.02014 1.575657,0.6132 0.35297,-0.23127 0.715303,-0.7135 0.805183,-1.07161 z m 156.874027,-4.76469 c -0.35324,-1.70807 -1.50789,-4.83802 -1.78477,-4.83802 -0.0444,0 -0.0848,0.98227 -0.0897,2.18282 -0.008,2.02357 -0.17764,2.70221 -1.11904,4.48411 -0.0537,0.10155 0.3062,0.11911 0.79967,0.039 0.70938,-0.11512 1.05923,-0.005 1.67109,0.52402 0.72648,0.62861 0.77908,0.6382 0.8588,0.15658 0.0467,-0.28217 -0.10452,-1.42902 -0.33604,-2.54855 z m -5.35717,2.2994 c 0.37442,-0.29453 1.00006,-1.1881 1.3903,-1.98571 0.59427,-1.21465 0.69088,-1.7079 0.59477,-3.03665 -0.0928,-1.28234 -0.25521,-1.73303 -0.84749,-2.35124 -0.84375,-0.88068 -2.21423,-1.26488 -2.71081,-0.75994 -0.60206,0.6122 -2.21119,4.73323 -2.21119,5.66292 0,2.41254 2.10839,3.78898 3.78442,2.47062 z m -148.310185,-3.71542 c 0.44519,-0.1552 1.1178,-0.72714 1.49469,-1.27099 0.55468,-0.80041 0.68306,-1.28861 0.67373,-2.5621 -0.0261,-3.55908 -0.63946,-4.71181 -2.307137,-4.33569 -2.528972,0.57038 -3.594332,4.56916 -1.920499,7.20852 0.861939,1.35914 0.884629,1.36972 2.059216,0.96026 z m 131.656375,-0.8759 c 1.53557,-0.64161 2.18042,-2.87236 1.38241,-4.78226 -0.42885,-1.02639 -1.10077,-1.468 -2.23361,-1.468 -1.01043,0 -2.33846,1.28602 -2.56277,2.4817 -0.23199,1.23663 0.2987,2.94988 1.11188,3.58953 0.81445,0.64064 1.13721,0.66574 2.30209,0.17903 z M 0.74227461,184.62955 c 0.48304999,-0.60965 0.55505999,-0.96351 0.44414999,-2.18281 -0.169,-1.85798 -0.63233999,-2.8527 -1.54979999,-3.32713 -0.99629001,-0.5152 -1.16256001,-0.48516 -1.93990001,0.35057 -1.42252,1.52935 -1.35659,3.43109 0.17367,5.00993 1.07802,1.11223 2.06819001,1.16375 2.87188001,0.14944 z m -6.96514001,-0.72989 c 0.6996,-0.49001 1.54928,-2.68653 1.79203,-4.63257 0.16256,-1.3032 0.11824,-1.50939 -0.4363,-2.02974 -0.71667,-0.67247 -2.77283,-1.21003 -3.37848,-0.88326 -1.7562196,0.94752 -2.3880996,3.65212 -1.38374,5.92265 0.39638,0.8961 0.79426,1.35028 1.42166,1.62286 1.1135,0.48376 1.29425,0.48377 1.98483,6e-5 z m 37.0288304,-2.18052 c 2.85375,-1.10287 3.2528,-1.33181 3.25844,-1.86948 0.004,-0.33699 -0.11767,-0.84457 -0.26933,-1.12797 -0.26397,-0.49323 -0.31981,-0.47986 -1.30587,0.31256 -1.52589,1.22624 -2.89598,1.29998 -4.86139,0.26166 -0.85152,-0.44986 -1.61224,-0.81792 -1.6905,-0.81792 -0.25416,0 0.15302,2.55992 0.5634,3.5421 0.21965,0.5257 0.54649,0.95582 0.7263,0.95582 0.17982,0 1.79034,-0.56555 3.57895,-1.25677 z m -0.35803,-3.25859 c 1.37377,-0.34925 2.14702,-0.89754 1.95854,-1.38872 -0.11702,-0.30495 -0.42572,-0.32509 -1.68684,-0.11007 -0.84898,0.14476 -1.62794,0.3953 -1.73102,0.55677 -0.13464,0.21091 -0.27993,0.20107 -0.51593,-0.0349 -0.37326,-0.37326 -1.18247,-0.43744 -1.38493,-0.10985 -0.0743,0.12027 -0.0675,0.47746 0.0152,0.79375 0.12229,0.46765 0.34515,0.57508 1.19299,0.57508 0.57343,0 1.54181,-0.12691 2.15195,-0.28202 z m 2.06787,-4.2301 c 0.67267,-0.3566 1.55503,-1.25938 1.55503,-1.591 0,-0.11074 -0.76868,-0.6312 -1.70816,-1.15659 -1.73072,-0.96787 -2.18437,-1.37138 -1.88188,-1.67387 0.20728,-0.20727 1.50498,0.16892 4.25149,1.23247 3.53975,1.37072 5.74243,1.41034 7.26326,0.13065 1.04925,-0.88289 1.43426,-2.31849 1.0644,-3.96887 -0.3369,-1.50331 -0.48944,-4.06026 -0.25101,-4.20761 0.0934,-0.0577 0.43377,0.53161 0.75627,1.30969 1.03534,2.49796 2.05613,2.80773 3.69169,1.12027 1.06336,-1.09711 1.63993,-2.75267 1.81233,-5.20385 0.47017,-6.68522 -4.7092,-14.17843 -12.28599,-17.77463 -3.41202,-1.61947 -4.33818,-1.8352 -8.79782,-2.04935 -2.25557,-0.10831 -3.79346,-0.2166 -3.41754,-0.24064 0.84979,-0.0543 1.11115,-0.29616 0.76756,-0.71017 -0.19529,-0.23531 0.1329,-0.44856 1.25906,-0.81809 1.18102,-0.38754 2.27572,-0.49687 4.87292,-0.48669 l 3.34971,0.0131 0.44749,-0.93918 c 0.63249,-1.32748 3.03798,-4.95708 4.19763,-6.33375 1.08018,-1.28233 1.10643,-1.6208 0.1483,-1.91234 -3.16309,-0.96245 -7.83872,-2.52855 -10.5668,-3.53933 -1.81901,-0.67396 -3.50298,-1.28804 -3.74216,-1.36463 -0.59368,-0.1901 -4.68413,1.9813 -7.10575,3.77206 -8.10441,5.99311 -12.8914104,12.40683 -14.7943104,19.82173 -1.1773,4.58751 -1.22095,8.08198 -0.15173,12.14844 1.81459,6.90124 6.8761004,11.11512 15.4575004,12.86891 1.39218,0.28453 3.18609,0.7083 3.98645,0.94171 3.87041,1.12876 8.32342,1.406 9.82206,0.61152 z m 67.965435,-6.89879 c 0,-1.14467 -0.0769,-1.2305 -7.291785,-8.13923 -2.14732,-2.0562 -2.34444,-2.1842 -2.67264,-1.73537 -0.45923,0.62805 -0.44751,0.78886 0.1087,1.49128 1.11638,1.40985 9.460175,9.68872 9.647815,9.57275 0.11435,-0.0707 0.20791,-0.60592 0.20791,-1.18943 z m 30.14384,-0.62807 c 12.50432,-2.66178 23.26289,-14.65824 23.37184,-26.06101 0.0271,-2.83093 -0.34994,-4.50984 -1.18798,-5.29059 -0.96532,-0.89933 -1.4436,-0.69045 -1.65556,0.72304 -0.10337,0.6893 -0.37524,1.61204 -0.60416,2.05052 l -0.41623,0.79723 -0.35874,-2.11666 c -0.51138,-3.0173 -1.34615,-5.88063 -2.14865,-7.37008 -1.36015,-2.52447 -4.29003,-4.3952 -6.29464,-4.01913 -1.12213,0.21051 -2.48514,1.43565 -2.48514,2.23377 0,0.45453 -0.18504,0.35752 -1.14058,-0.59803 -1.17121,-1.1712 -2.01439,-1.49132 -3.92807,-1.49132 -2.75802,0 -4.9519,2.46737 -5.00395,5.62775 l -0.0184,1.11912 -0.372,-1.19062 c -0.43621,-1.39618 -1.64379,-2.35204 -3.24227,-2.56644 -2.49676,-0.33489 -5.15931,2.28879 -6.0554,5.96701 -0.76035,3.12103 -0.28067,8.58628 1.02522,11.68068 1.24033,2.93906 3.76347,7.17706 4.8926,8.21785 0.62208,0.57341 1.04441,1.04255 0.93852,1.04253 -0.10589,-2e-5 -1.09868,-0.58063 -2.20621,-1.29025 -1.83652,-1.17669 -4.20228,-3.57332 -5.0016,-5.06686 -0.341,-0.63717 -0.81939,-0.65767 -1.92754,-0.0826 -0.46572,0.24168 -2.39457,1.00843 -4.28634,1.70389 -6.7191,2.47011 -8.44662,3.16635 -8.64977,3.4861 -0.11312,0.17805 -0.20749,1.1111 -0.20972,2.07345 -0.004,1.74857 -0.003,1.75051 1.25272,2.92014 1.25911,1.17259 4.61406,3.6645 4.93365,3.6645 0.0935,0 0.65885,0.30854 1.25621,0.68564 2.473,1.56114 6.78765,3.05778 10.28045,3.56603 1.92247,0.27974 7.06059,0.0487 9.24176,-0.41565 z m -29.88683,-2.31466 c -0.005,-0.38087 -0.817545,-1.43902 -2.256165,-2.93753 -1.23674,-1.28822 -2.55715,-2.74674 -2.93425,-3.24115 -0.50001,-0.65555 -0.89205,-0.89893 -1.44799,-0.89893 -0.4193,0 -0.76235,0.11018 -0.76235,0.24485 0,0.13466 1.32821,1.53364 2.95158,3.10885 1.62336,1.57521 3.25039,3.19143 3.61561,3.59162 0.803165,0.88006 0.843155,0.88641 0.833565,0.13229 z m 0.51057,-7.14375 c 0.0144,-1.27331 -0.005,-2.3151 -0.0421,-2.3151 -0.0376,0 -1.07938,0.3689 -2.315105,0.81979 -1.23573,0.45089 -2.51467,0.88149 -2.84209,0.95689 -0.32742,0.0754 -0.59531,0.19748 -0.59531,0.27129 0,0.0738 1.22039,1.31383 2.71197,2.75558 l 2.711975,2.62137 0.17227,-1.39736 c 0.0948,-0.76854 0.18405,-2.43915 0.19844,-3.71246 z m -16.578695,-0.92117 c 1.53536,-0.4729 1.74465,-0.75115 1.25424,-1.66749 -0.26,-0.48581 -0.34295,-0.47622 -2.38125,0.27532 -1.16153,0.42827 -2.11187,0.68653 -2.11187,0.5739 0,-0.11263 0.41672,-0.35547 0.92604,-0.53964 0.50932,-0.18417 0.92604,-0.45324 0.92604,-0.59793 0,-0.14469 0.12139,-0.18805 0.26976,-0.0964 0.14836,0.0917 0.68415,0.03 1.19062,-0.13719 1.00446,-0.3315 1.13244,-0.77275 0.53648,-1.8496 -0.25706,-0.46447 -0.28394,-0.75913 -0.0905,-0.99219 0.50528,-0.60882 0.89526,-0.3414 0.96271,0.66016 0.0884,1.31244 0.35023,1.5171 1.30756,1.02204 0.75204,-0.38889 0.78452,-0.46989 0.56588,-1.41157 -0.12757,-0.54946 -0.23479,-1.07213 -0.23826,-1.1615 -0.01,-0.24644 2.38364,-1.10762 2.5674,-0.92387 0.0882,0.0882 -0.0311,0.16032 -0.26504,0.16032 -0.23395,0 -0.49208,0.10796 -0.57363,0.23991 -0.0815,0.13195 0.11978,0.18812 0.44741,0.12483 0.5847,-0.11296 0.58425,-0.11006 -0.0241,0.15748 -0.34086,0.1499 -0.7464,0.19428 -0.90119,0.0986 -0.29007,-0.17927 -0.10952,1.67337 0.19251,1.97539 0.21901,0.21902 2.51905,-0.95244 2.51905,-1.28301 0,-0.15463 -0.18982,-0.64823 -0.42183,-1.09688 -0.34856,-0.67405 -0.36005,-0.85487 -0.0661,-1.04114 0.85579,-0.54238 1.1562,-0.27075 1.05855,0.9571 -0.0877,1.10217 -0.0485,1.19 0.52726,1.18221 1.10994,-0.015 1.63493,-0.63584 1.43571,-1.69779 -0.097,-0.5168 -0.28621,-0.93963 -0.42057,-0.93963 -0.13436,0 -0.18098,-0.16499 -0.1036,-0.36664 0.0774,-0.20166 1.23437,-0.7672 2.57108,-1.25677 3.10881,-1.13861 3.02959,-1.115 2.56329,-0.76376 -0.33448,0.25195 -0.31368,0.28575 0.13229,0.21496 0.29104,-0.0462 0.52917,-0.25933 0.52917,-0.47362 0,-0.2143 0.23812,-0.42743 0.529155,-0.47362 0.41253,-0.0655 0.44651,-0.0276 0.15416,0.17165 -0.731035,0.49834 -0.22572,3.26855 0.51294,2.81203 0.0898,-0.0555 0.1218,0.22027 0.0712,0.61277 -0.12319,0.95556 0.2102,1.38886 0.92482,1.20199 0.43086,-0.11268 0.58584,-0.35154 0.58584,-0.90295 0,-0.41236 -0.14883,-0.84496 -0.33073,-0.96133 -0.1819,-0.11637 -0.33887,-0.6283 -0.34882,-1.13762 -0.01,-0.50933 -0.11188,-1.25236 -0.2265,-1.65118 -0.16079,-0.55945 -0.10841,-0.76352 0.22924,-0.89309 0.25209,-0.0967 0.57249,0.005 0.75567,0.2398 0.17491,0.22426 0.55614,0.46351 0.84718,0.53166 0.47664,0.11162 0.47008,0.12697 -0.0661,0.15461 -0.45838,0.0236 -0.59532,0.19046 -0.59532,0.72523 0,0.63459 0.0703,0.68046 0.81488,0.53155 0.44818,-0.0896 1.19232,-0.3352 1.65364,-0.54571 2.64561,-1.2072 3.63349,-1.47026 3.09792,-0.82494 -0.46637,0.56194 0.42283,1.99665 1.23749,1.99665 0.72655,0 0.71971,0.24743 0.0734,-2.65428 -0.29208,-1.31125 -0.55997,-2.53038 -0.59531,-2.70918 -0.0354,-0.17879 0.0846,-0.29532 0.26646,-0.25894 0.1819,0.0364 0.33073,-0.0413 0.33073,-0.17255 0,-0.13129 0.37496,-0.36941 0.83323,-0.52917 1.20036,-0.41844 1.26586,-0.35501 0.28319,0.27424 -0.81375,0.52109 -0.83853,0.57987 -0.39687,0.94121 0.25909,0.21198 0.32225,0.31002 0.14035,0.21788 -0.21911,-0.11098 -0.33073,0.0461 -0.33073,0.46545 0,0.34814 0.0695,0.7025 0.1545,0.78748 0.22022,0.22022 3.02564,-0.77625 3.8194,-1.35663 0.79665,-0.5825 1.03825,-0.39356 1.56529,1.22418 0.20421,0.62684 0.53353,1.12448 0.74412,1.12448 0.29754,0 0.33786,-0.23884 0.18983,-1.12448 -0.10337,-0.61847 -0.32219,-1.21378 -0.48627,-1.32292 -0.22053,-0.14669 -0.21903,-0.25019 0.006,-0.39688 0.34878,-0.22758 0.228,-1.83335 -0.17435,-2.31816 -0.18754,-0.22598 -0.14785,-0.42379 0.13157,-0.65569 0.22008,-0.18265 0.40014,-0.60402 0.40014,-0.93638 0,-0.45875 -0.11846,-0.57331 -0.49187,-0.47566 -0.70483,0.18432 -1.06253,-1.50865 -0.40102,-1.89796 0.84023,-0.49449 1.42205,-1.18916 1.42205,-1.69786 0,-0.484 0.62007,-1.96086 1.48111,-3.52766 0.21992,-0.40018 0.56203,-0.7276 0.76024,-0.7276 0.19822,0 0.40008,-0.0915 0.44858,-0.20322 0.0485,-0.11177 0.68351,-0.57834 1.41112,-1.03682 1.73009,-1.09017 4.12801,-1.77601 5.46311,-1.56252 0.91681,0.14661 1.21988,0.0353 2.74204,-1.00693 2.2661,-1.55164 3.72823,-2.08837 5.37284,-1.9723 0.72666,0.0513 1.26289,-8.2e-4 1.19162,-0.1158 -0.0713,-0.11497 0.20782,-0.13511 0.62019,-0.0447 0.574,0.12578 0.65674,0.0982 0.3529,-0.11764 -0.33346,-0.23688 -0.30983,-0.28258 0.14787,-0.28598 0.29961,-0.002 0.77586,0.17075 1.05833,0.38441 0.28248,0.21365 0.84999,0.39224 1.26114,0.39687 0.65489,0.007 0.74037,-0.0818 0.68963,-0.71919 -0.0656,-0.82446 0.22296,-1.65364 0.57551,-1.65364 0.12995,0 0.23627,0.24515 0.23627,0.54478 0,0.36541 -0.10889,0.47936 -0.33073,0.34608 -0.20025,-0.12031 -0.17837,-0.0111 0.0555,0.27676 0.39745,0.48932 0.81984,0.49177 4.50861,0.0262 0.84949,-0.10721 1.07691,-0.0735 0.79375,0.11765 -0.21829,0.14736 -0.75407,0.27915 -1.19063,0.29286 -0.43656,0.0137 -0.61516,0.0921 -0.39687,0.17407 0.21828,0.082 0.73172,0.38368 1.14098,0.67034 0.50327,0.35252 0.98564,0.47291 1.49031,0.37198 0.68559,-0.13712 0.7828,-0.0534 1.19694,1.03104 0.24792,0.64915 0.78987,1.51939 1.20435,1.93386 0.41447,0.41448 0.85797,1.1564 0.98554,1.64872 0.19377,0.74778 0.54304,1.07007 2.12181,1.95786 2.36502,1.32994 3.18035,1.95667 5.28881,4.06544 l 1.68344,1.68368 1.10901,-0.42849 c 0.9177,-0.35457 1.22349,-0.66715 1.77263,-1.812 0.81448,-1.69804 2.00341,-2.4286 4.70681,-2.89219 1.75849,-0.30154 2.03641,-0.28109 3.7707,0.27747 1.82208,0.58684 1.90604,0.59087 3.1317,0.15013 1.66335,-0.59813 1.93026,-0.83043 2.54349,-2.21365 0.28531,-0.64356 0.81883,-1.45992 1.18559,-1.81414 1.02431,-0.98927 3.18502,-1.89148 4.97898,-2.07899 1.43879,-0.15038 1.78486,-0.0864 3.08098,0.56935 l 1.46014,0.73876 1.65879,-0.45973 c 3.04697,-0.84446 4.82311,-1.58754 4.91317,-2.05551 0.0476,-0.24725 -0.4006,-1.06579 -0.99596,-1.81899 -0.83961,-1.06218 -1.03661,-1.49559 -0.87801,-1.9317 0.43269,-1.18983 -0.24289,-6.16387 -1.94503,-14.3206 -1.0766,-5.15907 -1.66987,-6.952243 -2.54333,-7.687213 -1.2832,-1.07974 -1.52362,-1.01716 -7.93841,2.066503 -3.60903,1.7349 -4.33703,2.27828 -3.63424,2.71263 0.49202,0.30408 1.31914,2.21474 1.31914,3.04722 0,1.72079 -1.65117,3.43656 -3.30002,3.42912 -0.96075,-0.004 -1.99166,-0.25811 -1.99161,-0.49027 2e-5,-0.0922 0.74416,-0.53339 1.65364,-0.98051 0.95695,-0.47045 1.81785,-1.10507 2.04344,-1.50635 0.49628,-0.88278 0.23648,-1.15053 -0.59056,-0.60864 -0.35394,0.23191 -1.40606,0.72166 -2.33806,1.08833 l -1.69454,0.66668 -0.58927,-0.73323 c -0.32411,-0.40328 -0.7255,-1.06211 -0.892,-1.46406 -0.1665,-0.40196 -0.39894,-0.73084 -0.51653,-0.73084 -0.21556,0 -3.86425,1.66466 -6.65327,3.03545 l -1.50731,0.74084 0.62682,0.82383 c 0.80827,1.06233 1.08686,2.17125 0.67128,2.672 -0.38582,0.46488 -2.80432,1.59954 -3.94198,1.84941 -0.61413,0.13489 -1.01546,0.0384 -1.6143,-0.38798 -0.43834,-0.31212 -0.79698,-0.7009 -0.79698,-0.86395 0,-0.16305 0.24276,-0.0359 0.53947,0.2826 0.29671,0.31848 0.61512,0.57905 0.70758,0.57905 0.0925,0 -0.10658,-0.29238 -0.4423,-0.64975 -0.33573,-0.35736 -0.74061,-0.62525 -0.89974,-0.59531 -0.15913,0.0299 -0.33115,-0.22073 -0.38227,-0.55705 -0.0511,-0.33632 -0.23748,-0.66695 -0.41412,-0.73474 -0.17664,-0.0678 -1.44733,0.29288 -2.82375,0.80147 -2.2783,0.84185 -2.63864,1.07367 -4.02078,2.58682 -0.835,0.91416 -1.61604,2.01759 -1.73562,2.45206 -0.24239,0.88064 -0.33183,0.92049 -8.38785,3.73706 -2.32833,0.81404 -6.55505,2.31268 -9.3927,3.33031 -2.83766,1.01763 -6.17141,2.20804 -7.40834,2.64536 -2.87612,1.01688 -11.14481,4.08321 -12.7,4.70964 -0.65484,0.26376 -2.44078,0.92325 -3.96875,1.46552 -1.52796,0.54227 -4.14734,1.51476 -5.820825,2.16109 -1.67349,0.64633 -3.93568,1.5155 -5.02708,1.93149 -5.17379,1.97199 -7.03142,2.72392 -7.26281,2.93983 -0.13825,0.129 -0.49875,0.23454 -0.80112,0.23454 -0.8746,0 -6.0512,2.2838 -6.39329,2.82057 -0.35394,0.55539 -0.036,5.39559 0.41428,6.30755 0.14372,0.29104 0.37423,1.24354 0.51226,2.11667 0.41016,2.59454 0.98259,4.12356 1.75672,4.6923 0.44157,0.32441 1.50829,0.23662 3.10659,-0.25566 z m -0.006,-7.23976 c -0.0409,-0.5954 -0.10042,-1.21324 -0.13229,-1.37296 -0.0319,-0.15973 0.17639,-0.34098 0.4628,-0.40279 0.47154,-0.10176 0.48404,-0.0672 0.13229,0.36581 -0.30869,0.38 -0.31267,0.43251 -0.0194,0.25577 0.28915,-0.17423 0.34008,-0.0706 0.23513,0.47838 -0.0737,0.38543 -0.0314,0.70078 0.0939,0.70078 0.3996,0 0.24442,0.73079 -0.19062,0.89774 -0.23019,0.0883 -0.43854,0.16042 -0.46302,0.16021 -0.0245,-2.2e-4 -0.078,-0.48754 -0.11886,-1.08294 z m -2.70377,-0.34358 c 0,-0.0572 0.17859,-0.17251 0.39687,-0.25627 0.21828,-0.0838 0.39688,-0.037 0.39688,0.10398 0,0.14095 -0.1786,0.25628 -0.39688,0.25628 -0.21828,0 -0.39687,-0.0468 -0.39687,-0.10399 z m 5.55625,-0.12558 c 0,-0.1476 0.11906,-0.34195 0.26458,-0.43189 0.14552,-0.0899 0.26458,-0.28258 0.26458,-0.4281 0,-0.14553 -0.13182,-0.18312 -0.29293,-0.0836 -0.19712,0.12183 -0.23456,-0.003 -0.11446,-0.38126 0.10987,-0.34617 0.0639,-0.5623 -0.11956,-0.5623 -0.16391,0 -0.22444,-0.11906 -0.13451,-0.26458 0.0899,-0.14552 0.36486,-0.26449 0.61093,-0.26437 0.6584,3.1e-4 0.63487,2.46998 -0.0247,2.59701 -0.24964,0.0481 -0.45389,-0.0334 -0.45389,-0.18096 z m 2.85717,-1.29319 c 0.61365,-0.48768 0.58894,-1.27695 -0.0534,-1.7048 -0.28431,-0.18938 0.89081,-0.76173 1.19726,-0.58314 0.0905,0.0528 0.14201,0.53936 0.11442,1.08132 -0.0437,0.85893 -0.16673,1.03061 -0.95835,1.33769 -0.90362,0.35053 -0.90512,0.34988 -0.29995,-0.13107 z m -9.14692,-0.27823 c 0.0138,-0.24638 -0.0648,-1.07305 -0.17469,-1.83703 -0.13677,-0.95087 -0.10851,-1.38906 0.0896,-1.38906 0.15917,0 0.30122,0.26789 0.31565,0.59531 0.0524,1.18929 0.15585,1.98307 0.31104,2.3875 0.0883,0.22997 -0.002,0.47463 -0.20412,0.55211 -0.22337,0.0857 -0.35295,-0.0329 -0.33749,-0.30883 z m 2.7503,-0.96622 c 0.20174,-0.52574 -0.39582,-2.2589 -0.78055,-2.26393 -0.21348,-0.003 -0.22169,-0.0647 -0.0263,-0.19843 0.15614,-0.10692 0.37836,-0.43251 0.49383,-0.72356 0.19817,-0.4995 0.22183,-0.49208 0.42205,0.1323 0.11666,0.3638 0.28679,1.10794 0.37806,1.65364 0.0913,0.5457 0.29419,0.99219 0.45094,0.99219 0.18387,0 0.16812,0.14082 -0.0444,0.39687 -0.42477,0.51182 -1.08894,0.51993 -0.89361,0.0109 z m 9.5177,-0.4369 c -0.6291,-1.26107 -0.53935,-1.45782 0.83477,-1.83018 0.69122,-0.18731 1.69851,-0.55997 2.23841,-0.82813 0.53991,-0.26817 1.13522,-0.48599 1.32292,-0.48405 0.1877,0.002 -0.40122,0.35913 -1.30872,0.79375 -0.90749,0.43462 -1.83022,0.79022 -2.05052,0.79022 -0.47305,0 -0.46095,-0.0749 -0.15837,0.98015 0.17766,0.61947 0.14912,0.92157 -0.10716,1.13427 -0.27002,0.2241 -0.44511,0.0979 -0.77133,-0.55603 z m -7.33246,-1.75903 c -0.22452,-0.83795 -0.35894,-1.67139 -0.29871,-1.85208 0.18904,-0.56711 0.71826,-0.35867 1.01326,0.39907 0.73285,1.88244 0.84077,2.40503 0.55555,2.69025 -0.56223,0.56223 -0.86768,0.26469 -1.2701,-1.23724 z m 16.435445,0.30835 c 0,-0.0952 1.80383,-0.90146 2.01669,-0.90146 0.055,0 0.1,0.10458 0.1,0.2324 0,0.12782 -0.47625,0.35328 -1.05833,0.50103 -0.58209,0.14775 -1.05834,0.22336 -1.05834,0.16803 z m 4.53547,-0.17386 c -0.0207,-0.25466 -0.14338,-0.46302 -0.27273,-0.46302 -0.35712,0 -0.20989,-0.89543 0.18888,-1.14873 0.46682,-0.29653 0.48881,-0.21967 0.29087,1.01644 -0.0932,0.58208 -0.18637,0.84997 -0.20702,0.59531 z m -17.181985,-0.29289 c 0.56125,-0.4265 0.35394,-1.45879 -0.27473,-1.36799 -0.24211,0.035 -0.30151,0.0144 -0.132,-0.0458 0.47243,-0.16766 0.65686,-0.873 0.22827,-0.873 -0.20512,0 -0.45791,-0.13746 -0.56174,-0.30547 -0.11696,-0.18925 -0.0726,-0.23364 0.11668,-0.11667 0.181,0.11186 0.30546,0.0207 0.30546,-0.22371 0,-0.8616 0.47422,-0.3614 0.80042,0.84428 0.18702,0.69123 0.45356,1.40363 0.59231,1.58312 0.1799,0.2327 0.0493,0.40352 -0.45515,0.59531 -0.9445,0.3591 -1.16788,0.32662 -0.61952,-0.0901 z m 15.027765,-0.40416 c 0,-0.23754 0.79505,-0.64662 0.95188,-0.48978 0.0453,0.0453 -0.15032,0.22772 -0.43474,0.40534 -0.28442,0.17763 -0.51714,0.21562 -0.51714,0.0844 z m -4.2437,-0.98803 c -0.25728,-0.77954 -0.2488,-1.00005 0.0456,-1.18657 0.51345,-0.32528 0.78861,-0.29044 0.73875,0.0935 -0.12889,0.99255 0.0263,1.22061 0.74736,1.09818 0.72053,-0.12236 0.71918,-0.11833 -0.13869,0.41439 -0.47646,0.29587 -0.91371,0.53795 -0.97167,0.53795 -0.058,0 -0.24758,-0.43087 -0.42137,-0.95748 z m -8.312945,-0.56388 c -0.0997,-0.69122 -0.24515,-1.52439 -0.32316,-1.85148 -0.12078,-0.50643 -0.0423,-0.58646 0.52908,-0.53918 0.36901,0.0305 0.60508,0.16206 0.5246,0.29227 -0.0824,0.13333 0.24377,0.16377 0.74668,0.0697 l 0.893,-0.16708 -0.79375,0.35873 c -0.69067,0.31214 -0.83561,0.30439 -1.11607,-0.0597 -0.2913,-0.37812 -0.32312,-0.37533 -0.33073,0.029 -0.005,0.24607 0.10149,0.51533 0.23582,0.59834 0.13432,0.083 0.32237,0.50677 0.41789,0.94166 0.0955,0.43489 0.31304,0.7945 0.48338,0.79913 0.31913,0.009 -0.57236,0.78534 -0.90145,0.78534 -0.10118,0 -0.26556,-0.56555 -0.36529,-1.25678 z m 6.07436,0.46303 c 0.0899,-0.14553 0.27556,-0.26459 0.41249,-0.26459 0.13694,0 0.24897,0.11906 0.24897,0.26459 0,0.14552 -0.18562,0.26458 -0.41249,0.26458 -0.22687,0 -0.3389,-0.11906 -0.24897,-0.26458 z m 6.174975,-0.81359 c 0.92238,-0.44841 1.73595,-0.75639 1.80792,-0.68442 0.14312,0.14312 -1.8748,1.08745 -2.86604,1.34123 -0.34042,0.0872 0.13574,-0.20841 1.05812,-0.65681 z m -9.746845,0.32906 c 0.21828,-0.13487 0.69453,-0.32483 1.05833,-0.42214 0.45971,-0.12297 0.54041,-0.10214 0.26459,0.0683 -0.21829,0.13486 -0.69454,0.32483 -1.05834,0.42214 -0.45971,0.12296 -0.54041,0.10214 -0.26458,-0.0683 z m 16.946555,-0.63995 c 0.1528,-0.1819 0.42069,-0.33073 0.59531,-0.33073 0.17463,0 0.3175,-0.16987 0.3175,-0.37749 0,-0.20762 0.38203,-0.53337 0.84896,-0.7239 0.84749,-0.34581 0.84886,-0.34505 0.79375,0.44311 -0.0553,0.79137 -0.18636,0.89199 -1.04739,0.80441 -0.25467,-0.0259 -0.46303,0.094 -0.46303,0.26651 0,0.23021 -0.0931,0.23631 -0.35025,0.0229 -0.23008,-0.19094 -0.45703,-0.20206 -0.66146,-0.0324 -0.22855,0.18969 -0.23742,0.17045 -0.0334,-0.0724 z m -13.842115,-0.49586 c 0.17948,-0.18082 0.39297,-0.26211 0.47443,-0.18065 0.0815,0.0815 -0.0654,0.22941 -0.32631,0.32877 -0.37709,0.14358 -0.40748,0.11319 -0.14812,-0.14812 z m 10.376005,-0.78576 c -0.13821,-0.25824 -0.25129,-0.77502 -0.25129,-1.14838 0,-0.52304 0.13361,-0.67886 0.58209,-0.67886 0.4302,0 0.50463,0.0774 0.28526,0.29683 -0.39888,0.39888 -0.12795,1.02609 0.44323,1.02609 0.25311,0 0.80592,-0.16644 1.22846,-0.36986 0.86152,-0.41476 2.16221,-0.82635 1.95888,-0.61987 -0.0728,0.0739 -1.00148,0.54592 -2.06382,1.04896 -1.78775,0.84655 -1.95023,0.87968 -2.18281,0.44509 z m -8.19845,-0.39509 c -0.16166,-0.42388 -0.361585,-1.33899 -0.444285,-2.03358 -0.12832,-1.0777 -0.0891,-1.23938 0.267375,-1.10258 0.22976,0.0882 0.35299,0.32905 0.27385,0.53528 -0.15338,0.39972 0.71616,0.54169 1.0813,0.17655 0.10914,-0.10915 0.27781,-0.20842 0.37483,-0.22061 0.097,-0.0122 0.51156,-0.16102 0.92122,-0.33073 0.40965,-0.16971 0.91567,-0.30856 1.12447,-0.30856 0.20881,0 0.37965,-0.10742 0.37965,-0.2387 0,-0.13129 0.34595,-0.3593 0.76877,-0.5067 0.65244,-0.22744 0.78776,-0.19536 0.89429,0.21198 0.0962,0.36804 -0.0676,0.51675 -0.70263,0.63765 -1.77523,0.33799 -4.65534,1.36675 -4.65984,1.66448 -0.003,0.17243 0.11874,0.6383 0.26966,1.03527 0.18295,0.48118 0.18622,0.80997 0.01,0.98636 -0.17639,0.17638 -0.36256,0.008 -0.5585,-0.50611 z m -4.431525,-0.33316 c -0.23012,-0.14601 0.005,-0.31931 0.7276,-0.53574 0.61359,-0.18383 1.06776,-0.4842 1.06776,-0.70616 0,-0.21244 0.11906,-0.38625 0.26459,-0.38625 0.14552,0 0.26458,0.35718 0.26458,0.79375 0,0.43656 -0.12609,0.79375 -0.2802,0.79375 -0.15411,0 -0.21724,-0.10187 -0.1403,-0.22637 0.077,-0.1245 -0.15415,-0.17015 -0.51355,-0.10144 -0.3594,0.0687 -0.65345,0.23009 -0.65345,0.35865 0,0.28967 -0.28987,0.29353 -0.73703,0.01 z m 10.146745,-1.70571 c 0.0994,-0.26094 0.2473,-0.40778 0.32876,-0.32632 0.0815,0.0815 1.7e-4,0.29496 -0.18065,0.47443 -0.26131,0.25936 -0.2917,0.22897 -0.14811,-0.14811 z m 1.54221,-1.84067 c -0.33239,-1.85396 -0.21921,-2.39538 0.42831,-2.04883 0.32936,0.17627 0.54851,0.17594 0.65786,-9.8e-4 0.0902,-0.14591 0.36529,-0.26451 0.61137,-0.26355 0.30507,0.001 0.19488,0.16898 -0.34635,0.52742 -0.43656,0.28912 -0.66883,0.52646 -0.51615,0.52742 0.16333,0.001 0.23132,0.39819 0.16517,0.96482 -0.11008,0.94291 -0.0965,0.9593 0.64844,0.78259 l 0.76088,-0.18049 -0.86629,0.54033 c -0.47646,0.29718 -0.96257,0.54033 -1.08024,0.54033 -0.11768,0 -0.32602,-0.62508 -0.463,-1.38906 z m 3.60015,-0.19844 c 0.21828,-0.14106 0.51594,-0.25648 0.66146,-0.25648 0.14552,0 0.086,0.11542 -0.13229,0.25648 -0.21828,0.14106 -0.51594,0.25648 -0.66146,0.25648 -0.14552,0 -0.086,-0.11542 0.13229,-0.25648 z m -1.90169,-1.23907 c 0.19099,-0.0764 0.4192,-0.067 0.50712,0.0209 0.0879,0.0879 -0.0683,0.15046 -0.34727,0.13897 -0.30822,-0.0127 -0.37092,-0.0754 -0.15985,-0.15985 z m 0.84336,-0.34843 c -0.23847,-0.15411 -0.2711,-0.2581 -0.0818,-0.26053 0.17331,-0.002 0.3887,0.11501 0.47863,0.26053 0.20302,0.32849 0.11143,0.32849 -0.39687,0 z m 4.72999,-0.0931 c 0.21587,-0.26011 0.21879,-0.5817 0.0107,-1.17865 -0.1574,-0.45152 -0.24665,-1.02619 -0.19833,-1.27705 0.0828,-0.42996 0.11439,-0.42957 0.55088,0.007 0.25466,0.25467 0.46302,0.81171 0.46302,1.23788 0,0.55836 0.12936,0.7772 0.46302,0.78327 0.41895,0.008 0.41414,0.0454 -0.0506,0.39687 -0.67975,0.51414 -1.66008,0.53847 -1.23871,0.0308 z m -2.82219,-0.54165 c 0.18763,-0.20361 0.38284,-0.33059 0.4338,-0.28219 0.15693,0.14908 -0.24081,0.65238 -0.51557,0.65238 -0.14267,0 -0.10587,-0.16659 0.0818,-0.37019 z m 0.66748,-0.98556 c 0.17947,-0.18082 0.39297,-0.26212 0.47443,-0.18066 0.0815,0.0815 -0.0654,0.22941 -0.32632,0.32877 -0.37709,0.14359 -0.40748,0.11319 -0.14811,-0.14811 z m 49.87745,-6.06117 c -0.32793,-0.13179 -0.96424,-0.6161 -1.41404,-1.07623 -2.12519,-2.17404 -2.38835,-3.84768 -0.86937,-5.52901 0.88509,-0.97969 1.06096,-1.05909 2.34557,-1.05909 1.715,0 2.52842,0.57349 3.48173,2.45475 1.09708,2.16498 0.53331,4.02943 -1.54546,5.11101 -0.8107,0.4218 -1.15226,0.43865 -1.99843,0.0986 z m 2.19318,-2.65553 c 0.58682,-1.1348 0.47834,-1.60718 -0.58669,-2.55469 -1.07462,-0.95604 -2.02968,-1.10357 -2.77537,-0.42873 -0.84476,0.7645 -0.45363,2.32967 0.88782,3.55274 0.70355,0.64146 2.0027,0.34253 2.47424,-0.56932 z m -14.90403,1.88434 c 0.0629,-0.42888 0.0169,-0.71951 -0.10226,-0.64585 -0.11919,0.0737 -0.21671,-0.0517 -0.21671,-0.27855 0,-0.48692 0.78369,-0.56549 0.81551,-0.0818 0.012,0.1819 0.0756,0.65815 0.14134,1.05833 0.09,0.54774 0.0118,0.7276 -0.31637,0.7276 -0.33216,0 -0.40871,-0.18565 -0.32151,-0.77977 z m -1.05384,-3.56228 c -0.43896,-0.96343 -0.6842,-2.53711 -0.39538,-2.53711 0.32314,0 0.78369,1.01375 1.011,2.22539 0.20393,1.08705 -0.17494,1.2789 -0.61562,0.31172 z m 27.85466,-0.32245 c -3.13753,-1.73386 -3.32881,-5.06413 -0.3785,-6.58979 0.99361,-0.51381 1.45587,-0.48941 2.76886,0.1462 1.44751,0.70073 2.61499,2.7091 2.3612,4.0619 -0.38565,2.05571 -2.98434,3.35829 -4.75156,2.38169 z m 2.65256,-2.30455 c 0.21458,-0.30636 0.39015,-0.76262 0.39015,-1.01391 0,-0.50656 -1.53742,-2.06805 -2.03807,-2.06998 -0.71041,-0.003 -1.63488,0.63212 -1.78365,1.22488 -0.17595,0.70104 0.41832,2.05937 1.05747,2.41705 0.64416,0.36049 1.94488,0.0547 2.3741,-0.55804 z m -21.37183,-2.47375 c -0.80856,-0.2113 -0.51683,-0.47032 1.71979,-1.52697 3.33259,-1.57443 3.1032,-1.49664 2.91671,-0.98911 -0.67446,1.83556 -2.80869,2.99374 -4.6365,2.51608 z m -65.682805,39.34072 c 0.20696,-0.33486 -0.1433,-0.33486 -0.66145,0 -0.34203,0.22103 -0.33504,0.25704 0.0505,0.26053 0.24607,0.002 0.52099,-0.11501 0.61092,-0.26053 z m 8.366515,-2.91359 c 1.21925,-0.45635 4.89572,-1.87598 8.16994,-3.15473 3.27422,-1.27875 6.5782,-2.54362 7.34219,-2.81081 0.76398,-0.2672 1.38906,-0.59694 1.38906,-0.73276 0,-0.35963 -1.59577,-0.0431 -2.99402,0.59388 -0.66565,0.30324 -1.34337,0.55134 -1.50603,0.55134 -0.16267,0 -0.91334,0.28902 -1.66817,0.64227 -0.75482,0.35325 -2.97975,1.25227 -4.94428,1.99783 -7.804005,2.96168 -9.204815,3.51201 -11.168375,4.3876 -1.12214,0.50039 -2.16394,0.9098 -2.3151,0.9098 -0.15117,0 -0.27485,0.11193 -0.27485,0.24873 0,0.23185 2.6873,-0.65603 7.969635,-2.63315 z m -11.904825,1.05247 c -0.18842,-0.9213 -0.21218,-0.9381 -1.02575,-0.72535 -0.86353,0.22582 -0.77986,1.15581 0.13229,1.47038 0.96054,0.33126 1.09129,0.22223 0.89346,-0.74503 z m 2.727,-0.13297 c 0.82038,-0.34278 0.945,-0.49849 0.79406,-0.99219 -0.36931,-1.2079 -0.47685,-1.26369 -1.37868,-0.71526 -0.80994,0.49256 -1.14946,1.46482 -0.67664,1.93765 0.22501,0.225 0.13053,0.24225 1.26126,-0.2302 z m 3.50386,-1.49414 c 0.22582,-0.18025 0.23687,-0.46195 0.0403,-1.02596 -0.31593,-0.90627 -0.28076,-0.89609 -1.29074,-0.37381 -0.84777,0.4384 -0.92861,0.67749 -0.49991,1.47852 0.28461,0.53181 1.02731,0.49839 1.75039,-0.0788 z m 3.78975,-1.38935 c 0.97342,-0.467 1.17751,-0.68661 1.11877,-1.2039 -0.0989,-0.87088 -0.18251,-0.90677 -1.03431,-0.444 -0.41026,0.22289 -1.04358,0.47156 -1.40738,0.55261 -1.11093,0.24749 -1.36953,0.53567 -1.17526,1.30969 0.20087,0.80033 0.42268,0.7813 2.49818,-0.2144 z m 1.05833,-3.86702 c 0,-0.47922 -0.11135,-0.5197 -0.99219,-0.36069 -0.5457,0.0985 -1.19272,0.2825 -1.43781,0.40886 -0.74101,0.38205 -0.92597,0.23884 -0.21583,-0.16711 0.3638,-0.20797 0.86981,-0.38235 1.12447,-0.3875 0.25467,-0.005 0.46303,-0.12844 0.46303,-0.27396 0,-0.34677 -0.007,-0.34552 -1.35543,0.22892 -1.80439,0.76889 -2.20343,0.91594 -2.3886,0.88018 -0.0947,-0.0183 -0.0469,0.34977 0.10626,0.81789 0.15313,0.46812 0.31465,0.99604 0.35894,1.17316 0.0532,0.21265 0.8034,-0.0349 2.20885,-0.72896 1.62247,-0.8012 2.12831,-1.17928 2.12831,-1.59079 z m -2.51354,2.3946 c 0.0899,-0.14552 0.0445,-0.26458 -0.10106,-0.26458 -0.14553,0 -0.33817,0.11906 -0.42811,0.26458 -0.0899,0.14552 -0.0445,0.26458 0.10106,0.26458 0.14552,0 0.33817,-0.11906 0.42811,-0.26458 z m 8.023715,-1.06626 c 0.61141,-0.29541 1.40768,-0.64965 1.76949,-0.7872 0.46721,-0.17764 0.65783,-0.44885 0.65783,-0.93595 0,-0.58926 -0.0838,-0.65997 -0.59531,-0.50219 -0.32743,0.101 -0.91683,0.34715 -1.30978,0.54699 -0.39296,0.19985 -0.86921,0.36715 -1.05834,0.37177 -0.69548,0.017 -1.32367,0.7283 -1.14378,1.29507 0.21495,0.67725 0.30074,0.67784 1.67989,0.0115 z m 9.36608,-4.26029 c -0.11142,-0.92489 -0.5609,-1.02671 -2.01029,-0.45542 -1.98891,0.78396 -1.94961,0.73373 -1.49976,1.91691 l 0.2537,0.6673 1.66452,-0.76268 c 1.39997,-0.64146 1.65297,-0.85858 1.59183,-1.36611 z m -66.270235,-1.55157 c 2.98546,-0.16572 4.81674,-0.38392 5.29167,-0.63052 0.39945,-0.2074 1.85183,-1.28171 3.22752,-2.38735 1.37569,-1.10565 2.57707,-2.01026 2.66975,-2.01026 0.0927,0 1.15285,-0.59161 2.35595,-1.3147 4.07601,-2.44975 7.91668,-3.53538 12.44909,-3.51892 3.7902,0.0138 7.55398,1.2134 11.33556,3.61301 0.66494,0.42194 1.33381,0.66158 1.5875,0.56876 0.24112,-0.0882 2.12524,-0.82445 4.18693,-1.63607 l 3.74852,-1.47567 -0.94129,-1.3102 c -0.89054,-1.23958 -0.99277,-1.30214 -1.89644,-1.16045 -4.19831,0.65828 -8.79976,0.91872 -18.81453,1.06489 -14.12007,0.2061 -17.63734,-0.0723 -27.22999,-2.15519 l -3.2852,-0.71333 -0.90898,1.04237 c -1.85512,2.12736 -5.36388,7.53586 -5.3484,8.24415 0.002,0.11361 0.62757,0.47885 1.38907,0.81164 0.7615,0.3328 2.21798,1.18266 3.23663,1.88858 1.01864,0.70592 1.97114,1.29456 2.11666,1.30809 0.14552,0.0135 2.31902,-0.0894 4.82998,-0.22883 z m 122.142825,-1.81385 c 1.49855,-0.66288 2.12421,-1.76706 1.9379,-3.42005 -0.22239,-1.97304 -0.79064,-2.31169 -3.83666,-2.28649 -3.05212,0.0252 -4.23352,0.45225 -5.09129,1.84014 -0.99591,1.61143 -0.37862,3.41451 1.46099,4.26744 1.06206,0.49242 3.98921,0.28011 5.52906,-0.40104 z m -54.0801,-5.11928 c 0,-0.42741 -0.0782,-0.50384 -0.29445,-0.28764 -0.16194,0.16195 -0.21445,0.42389 -0.11668,0.58209 0.27369,0.44282 0.41113,0.34439 0.41113,-0.29445 z m 68.03802,-0.52143 c 1.74764,-0.74798 2.39654,-1.53479 2.51955,-3.05504 0.1758,-2.1725 -1.24355,-3.13817 -4.13241,-2.81154 -1.80334,0.2039 -3.54837,0.98214 -4.28,1.90877 -0.67351,0.85302 -0.57971,2.91639 0.17025,3.74509 1.0307,1.1389 3.35659,1.22536 5.72261,0.21272 z m -17.40693,-1.14545 c -0.11137,-0.29023 0.0331,-0.39687 0.53747,-0.39687 0.43674,0 0.68977,-0.14559 0.68977,-0.39688 0,-0.89898 -1.85065,-0.28795 -2.20368,0.72761 -0.12458,0.35835 -0.0152,0.46302 0.48389,0.46302 0.46449,0 0.60225,-0.111 0.49255,-0.39688 z m -68.992325,-1.35019 c 1.00363,-0.3788 4.027435,-1.49543 6.719565,-2.48141 4.95746,-1.81564 8.31402,-3.10532 10.12169,-3.88903 l 0.99356,-0.43076 -0.91338,-0.62066 c -1.0694,-0.72667 -1.41598,-0.76178 -2.18726,-0.22155 -1.69653,1.1883 -9.81691,4.07365 -14.893765,5.2921 -1.67349,0.40164 -3.19036,0.80754 -3.37082,0.90201 -0.23228,0.12159 -0.0914,0.45889 0.48229,1.1549 0.44571,0.54072 0.9033,0.98314 1.01686,0.98314 0.11357,0 1.02763,-0.30993 2.03126,-0.68874 z m -16.13324,-3.67085 c 8.28397,-0.65626 13.89396,-1.54478 19.280935,-3.05371 18.08448,-5.06563 28.01797,-13.15865 30.49924,-24.84839 0.61466,-2.895813 0.59921,-14.376093 -0.0282,-20.919563 -0.96307,-10.04477 -2.0641,-16.008 -4.26389,-23.093455 -0.66223,-2.133026 -1.20406,-3.98958 -1.20406,-4.125675 0,-0.267034 2.33511,-2.032516 5.63157,-4.257796 6.05024,-4.084232 12.91677,-6.423745 19.90072,-6.780431 3.78394,-0.193254 4.26971,-0.30376 5.29584,-1.204715 l 0.9189,-0.806806 -0.16416,1.197682 c -0.13177,0.961401 -0.0499,1.382621 0.41521,2.135116 0.96076,1.55454 2.91122,3.052557 5.73817,4.40709 2.4396,1.16893 3.23443,1.788863 2.82216,2.201139 -0.083,0.08303 -0.26227,0.08218 -0.39829,-0.0019 -0.13603,-0.08407 -0.80403,-0.173141 -1.48445,-0.197937 -1.59294,-0.05805 -5.1597,-1.782419 -7.32255,-3.540129 l -1.5875,-1.290135 -3.80865,0.339161 c -2.09476,0.186539 -4.77367,0.533218 -5.95313,0.770398 -2.33016,0.46858 -7.51465,2.382798 -9.42051,3.478243 -2.99686,1.722532 -7.14375,4.656355 -7.14375,5.054026 0,0.236552 0.40799,1.624839 0.90664,3.085083 1.7654,5.169741 3.21093,12.88662 4.01625,21.4404 0.57273,6.08338 0.65031,17.99959 0.14038,21.563544 -0.72358,5.05719 -2.05559,8.70066 -4.24935,11.62331 -0.59317,0.79027 -1.0785,1.58275 -1.0785,1.76107 0,0.52931 2.34176,1.16771 4.28335,1.16771 2.28352,0 3.72188,-0.64244 5.36048,-2.39424 l 1.20912,-1.29264 1.07669,1.16807 c 0.62068,0.67336 1.58625,1.36267 2.27982,1.62755 l 1.20313,0.45948 1.35568,-1.48884 c 0.95994,-1.05422 1.93496,-1.77261 3.34006,-2.46096 1.09141,-0.53467 2.0227,-1.00641 2.06953,-1.04831 0.0468,-0.0419 -0.10067,-0.62354 -0.3278,-1.29252 -0.73718,-2.17133 0.24617,-4.74511 2.37307,-6.21116 0.77667,-0.53534 2.36442,-1.13542 3.88462,-1.46815 l 0.72337,-0.15832 -0.78196,-2.142624 c -0.43008,-1.17843 -0.88594,-2.27797 -1.01303,-2.44341 -0.12709,-0.16545 -0.31535,-0.53893 -0.41836,-0.82997 -0.28042,-0.79231 2.91284,2.4277 4.06697,4.10104 0.55203,0.800364 1.56071,1.869824 2.24151,2.376574 0.6808,0.50675 1.48083,1.31456 1.77783,1.79512 0.4271,0.69107 0.65878,0.83795 1.10807,0.70254 0.96116,-0.28969 1.0564,-0.55588 0.6037,-1.68731 -0.85042,-2.1254 -0.35916,-4.001114 1.54718,-5.907454 1.63489,-1.63489 5.18046,-2.52325 7.72877,-1.93647 0.82248,0.18938 0.85269,0.16422 1.13754,-0.94766 0.16094,-0.62822 0.35559,-1.32081 0.43257,-1.53909 0.077,-0.21828 0.30905,-1.34938 0.51574,-2.51354 0.97601,-5.49744 0.001,-9.26805 -3.33893,-12.91305 l -1.60853,-1.75543 1.40521,0.57439 c 1.48733,0.60795 3.6755,2.10077 4.61368,3.14757 1.51185,1.6869 2.34186,3.58826 2.70499,6.19652 l 0.21928,1.575 0.72763,-1.53071 c 0.90791,-1.90997 1.45277,-4.89019 1.46479,-8.01185 0.0153,-3.96506 -0.82677,-7.50487 -2.78079,-11.69025 -0.62844,-1.346072 -1.08611,-2.4474 -1.01705,-2.4474 0.36038,0 2.945,2.7055 3.79143,3.96875 1.20301,1.79543 1.68789,2.83681 2.3097,4.96057 0.26624,0.9093 0.55041,1.65344 0.6315,1.65365 0.23631,5.8e-4 1.03492,-3.3954 1.30654,-5.55589 0.69294,-5.511817 -0.15164,-12.963593 -2.03755,-17.977313 -2.75096,-7.313489 -7.65663,-13.830202 -14.8397,-19.713132 -1.20676,-0.988335 -2.14755,-1.931288 -2.09063,-2.095449 0.0709,-0.204365 0.99208,-0.269489 2.92171,-0.206543 1.55003,0.05056 2.81823,0.01605 2.81823,-0.07669 0,-0.548604 -1.19687,-2.327057 -2.38436,-3.54297 -2.80095,-2.867991 -6.91831,-5.396495 -11.51779,-7.073177 -3.57565,-1.30346 -6.75877,-1.938141 -10.7275,-2.138957 -5.42188,-0.274343 -9.92121,0.493906 -14.13263,2.413112 -2.37584,1.082705 -2.40398,1.089893 -1.76471,0.450621 0.77255,-0.77255 1.67792,-2.869927 1.58568,-3.673387 -0.2437,-2.122767 -5.0675,-0.111844 -9.26528,3.862469 -2.57142,2.434526 -4.87779,5.533294 -6.60754,8.877705 -1.1772,2.276062 -1.24432,2.352179 -1.41057,1.59956 -0.31881,-1.44329 -0.70528,-2.210184 -1.89293,-3.756262 -2.44681,-3.185254 -6.05445,-6.152229 -10.12613,-8.327878 -0.93558,-0.499915 -1.79161,-1.080325 -1.90229,-1.2898 -0.11069,-0.209476 -0.48834,-1.041141 -0.83924,-1.848146 -1.2443,-2.861676 -3.550685,-4.7984441 -5.753775,-4.8316791 -1.26852,-0.01914 -1.40844,-0.09212 -2.35099,-1.226318 -0.55121,-0.663284 -1.75371,-2.277534 -2.67222,-3.587221 -2.01774,-2.87703797 -5.32826,-6.199557 -6.96817,-6.993425 -1.59327,-0.771288 -3.06535,-0.669072 -3.55072,0.24655 -0.81319,1.534032 0.37001,6.132038 2.32828,9.047821 0.41606,0.619507 0.70666,1.176198 0.64577,1.237091 -0.0609,0.06089 -1.63131,-0.907686 -3.48982,-2.152397 -5.15175,-3.450328 -8.25593,-4.80218697 -12.26906,-5.34313997 -1.50519,-0.202893 -3.418,0.201616 -3.86882,0.818154 -1.0794,1.47616197 0.21172,4.34214697 3.41077,7.57111697 1.26151,1.273307 2.27354,2.3273791 2.24896,2.3423811 -0.0246,0.015 -1.65204,0.05833 -3.61657,0.09629 -4.50973,0.08713 -8.24188,0.784645 -13.49111,2.521392 -3.68424,1.218963 -8.72721,3.517047 -12.11897,5.522623 -0.77038,0.455538 -1.44734,0.828251 -1.50435,0.828251 -0.1432,0 -5.32234,3.584595 -6.61994,4.581801 -6.21461,4.775945 -11.42338,10.545175 -15.43175,17.092214 -5.0357,8.225 -8.2466404,17.774073 -10.5055804,31.242649 -0.34801,2.07496 -0.6029,2.79304 -1.46078,4.11536 -3.00129,4.6261 -4.77857,11.31945 -4.35081,16.38545 0.2119,2.50959 1.15412,6.2812 2.10478,8.425237 0.83492,1.88301 2.94861,5.06567 4.75382,7.15798 1.6785504,1.94551 5.6284204,5.26983 8.7507404,7.36485 4.16882,2.79721 13.30359,6.89689 19.44687,8.72774 8.09711,2.41314 15.77944,3.99367 22.75417,4.68133 3.76412,0.37112 16.93722,0.3123 22.12635,-0.0988 z m -27.6982,-23.39019 c -0.37238,-0.12279 -1.10592,-0.42676 -1.63009,-0.6755 -0.874,-0.41474 -1.01975,-0.41776 -1.75721,-0.0364 -2.05509,1.06273 -6.38306,0.0723 -7.38612,-1.69033 -0.25068,-0.4405 -0.58784,-0.80165 -0.74925,-0.80257 -0.58099,-0.003 -2.69481,-2.13022 -3.79432,-3.817803 -1.28399,-1.97075 -2.2967,-4.89818 -2.55011,-7.37161 -0.40345,-3.93794 1.54642,-12.18103 3.90773,-16.51986 1.81612,-3.33709 4.53285,-6.04738 7.63996,-7.62187 3.85285,-1.95239 9.37659,-1.94364 13.25899,0.021 1.43093,0.72411 2.62422,1.71938 2.4328,2.0291 -0.11065,0.17903 -0.0545,0.21178 0.14835,0.0864 0.51301,-0.31706 2.48674,2.00209 3.57037,4.1952 1.96865,3.98424 2.86044,9.65073 2.49471,15.85166 -0.46659,7.91099 -3.10069,12.742813 -8.33665,15.292203 -1.8603,0.90578 -2.46455,1.06736 -4.36563,1.16744 -1.21356,0.0639 -2.51115,0.0157 -2.88353,-0.1071 z m 5.84885,-3.07856 c 3.8805,-1.36912 6.23846,-4.706233 7.16451,-10.139613 0.37991,-2.22903 0.36853,-8.23827 -0.021,-11.07333 -0.72523,-5.2786 -3.12637,-9.538 -6.43921,-11.42258 -2.33963,-1.33095 -4.10891,-1.70217 -7.49498,-1.57256 -2.85172,0.10915 -3.07654,0.16097 -5.00646,1.15378 -4.14142,2.13049 -6.46728,5.88317 -8.63097,13.92575 -0.49224,1.82969 -0.59402,2.91152 -0.60523,6.43293 l -0.0135,4.23333 1.02575,2.05465 c 1.54602,3.09679 4.97801,5.876263 7.93283,6.424573 0.92116,0.17093 1.00558,0.14064 0.8627,-0.30955 -0.15107,-0.47599 -0.0475,-0.48755 2.24361,-0.25051 1.71447,0.17738 2.53845,0.16329 2.87871,-0.0492 0.40604,-0.25358 0.45691,-0.222 0.34316,0.21301 -0.0939,0.35913 0.0521,0.58938 0.49192,0.77574 0.77505,0.32838 3.87494,0.0951 5.26811,-0.39642 z m -2.65825,-3.696473 c 0,-0.21645 0.45051,-0.67795 1.00113,-1.02554 1.90262,-1.20107 3.91318,-3.25834 4.28479,-4.38433 0.58058,-1.75917 1.32866,-1.30349 1.32866,0.80932 0,0.87608 -0.19401,1.25544 -1.18253,2.31225 -1.85437,1.98247 -5.43205,3.489603 -5.43205,2.2883 z m -14.53042,-2.68733 c -1.37857,-1.56614 -1.76293,-2.77381 -1.35958,-4.27175 0.16499,-0.61272 0.39194,-1.11403 0.50434,-1.11403 0.1124,0 0.36044,0.60897 0.5512,1.35327 0.19076,0.7443 0.86811,2.11467 1.50523,3.04528 0.63712,0.93061 1.15839,1.80992 1.15839,1.95402 0,0.14411 -0.28753,0.26201 -0.63897,0.26201 -0.42859,0 -0.9951,-0.40458 -1.72061,-1.2288 z m 40.90904,-2.31069 c -2.48651,-0.69357 -4.82777,-3.05381 -5.5024,-5.547 -0.80025,-2.95739 0.34694,-6.61521 2.76716,-8.82319 4.07573,-3.7183 9.49689,-2.59194 11.98312,2.48973 0.61399,1.25495 0.72725,1.82561 0.72725,3.66443 0,1.95036 -0.0934,2.36208 -0.894,3.9393 -1.74272,3.43344 -5.59697,5.24858 -9.08113,4.27673 z m 4.41427,-9.14869 c 1.38949,-0.52829 1.98551,-2.5169 1.1233,-3.74787 -0.63901,-0.91231 -2.60477,-2.08241 -3.5005,-2.08364 -1.71458,-0.002 -3.28968,1.78162 -2.9097,3.29557 0.16669,0.66413 1.71277,2.26606 2.48123,2.57086 0.67788,0.26887 2.05162,0.25177 2.80567,-0.0349 z m -64.13039,0.23248 c -1.44882,-0.65446 -3.02183,-2.12746 -3.79273,-3.55159 -0.46664,-0.86204 -0.5729,-1.49999 -0.5729,-3.43958 0,-2.07465 0.0958,-2.57625 0.74373,-3.89579 0.79084,-1.61047 2.3646,-3.16049 3.88648,-3.82785 1.38608,-0.60781 3.88317,-0.58615 5.15938,0.0448 3.33244,1.64744 5.26025,6.27037 4.09484,9.81956 -1.37533,4.18854 -5.89065,6.48941 -9.5188,4.85049 z m 5.34923,-9.21829 c 0.90309,-1.01073 0.95437,-2.12334 0.14087,-3.05635 -0.62247,-0.71393 -1.178,-0.92005 -3.03688,-1.12677 -0.97668,-0.10862 -1.22013,-0.0229 -1.91823,0.67517 -1.19495,1.19495 -1.08658,2.09583 0.41905,3.48367 1.14628,1.0566 1.29105,1.11512 2.43881,0.98575 0.93231,-0.10508 1.39388,-0.33192 1.95638,-0.96147 z m 64.07454,-10.31699 c -1.30437,-0.59235 -4.06623,-3.229838 -4.73471,-4.521513 -1.39068,-2.687121 -0.77228,-4.470402 1.55685,-4.489502 2.93677,-0.02408 6.77909,4.082615 6.77909,7.24554 0,0.953485 -0.1311,1.277425 -0.69714,1.722675 -0.85544,0.67288 -1.49585,0.68232 -2.90409,0.0428 z m -71.1025,-7.651221 c -1.09607,-1.211147 -0.1296,-3.936568 1.99504,-5.625985 3.21189,-2.55394 6.2164,-3.019515 7.17239,-1.111423 0.58653,1.170676 0.11054,2.327086 -1.67834,4.07751 -2.68665,2.62888 -6.34218,3.927216 -7.48909,2.659898 z M 182.40861,128.70173 c 0.27129,-0.22303 0.2028,-1.28832 -0.0828,-1.28832 -0.45673,0 -1.63328,0.86717 -1.74233,1.28418 -0.11584,0.443 -0.0228,0.49431 0.69398,0.38259 0.45527,-0.071 0.9643,-0.24126 1.13118,-0.37845 z m -55.79687,-6.5675 c 3.77453,-1.46403 5.65038,-2.45719 5.16534,-2.73477 -0.11402,-0.0652 -0.68355,-0.20279 -1.26563,-0.30565 -0.58209,-0.10286 -1.73616,-0.4889 -2.56461,-0.85787 l -1.50627,-0.67084 -1.80018,1.5272 c -0.9901,0.83996 -2.3661,1.87542 -3.05779,2.30102 -0.69169,0.42559 -1.25761,0.82884 -1.25761,0.8961 0,0.2758 1.48426,1.40339 1.85208,1.40703 0.21828,0.002 2.21388,-0.70084 4.43467,-1.56222 z m 67.67527,-4.11353 c -0.59675,-4.39747 -1.35336,-7.95688 -2.41838,-11.37708 -1.30263,-4.18329 -1.9605,-5.07176 -0.87766,-1.18531 1.19117,4.27523 2.72055,13.43627 2.49791,14.96251 -0.12711,0.87134 -0.0416,1.22476 0.44729,1.8493 l 0.60444,0.7721 0.0886,-0.92326 c 0.0488,-0.50779 -0.10525,-2.35201 -0.34223,-4.09826 z m -56.10265,0.0783 c 1.45521,-0.57462 2.73794,-1.13373 2.85052,-1.24248 0.11258,-0.10874 -0.0248,-0.40537 -0.30519,-0.65916 -0.48898,-0.44252 -0.56248,-0.42399 -1.79219,0.45187 -0.70527,0.50232 -2.02645,1.286 -2.93595,1.7415 -1.66172,0.83224 -2.16675,1.27932 -1.05833,0.93692 0.32742,-0.10115 1.78593,-0.65404 3.24114,-1.22865 z m 20.94271,-5.30384 c 0.60138,-0.67581 0.78449,-2.19598 0.33043,-2.74309 -0.37302,-0.44945 -2.13282,-0.48254 -2.5671,-0.0483 -0.43107,0.43107 -0.39936,1.40256 0.0758,2.32138 0.33724,0.65214 0.64324,0.86622 1.47883,1.03459 0.0838,0.0169 0.3907,-0.2372 0.68206,-0.56462 z m -0.6816,-5.75469 c 1.35487,0 1.6656,-0.10272 2.48385,-0.82115 1.74314,-1.53051 0.93468,-2.67365 -2.00849,-2.83996 -2.22223,-0.12556 -3.8673,0.41119 -4.85395,1.58376 -0.77851,0.9252 -0.89567,2.42971 -0.2599,3.3374 l 0.40907,0.58403 1.34041,-0.92204 c 1.15616,-0.7953 1.55327,-0.92204 2.88901,-0.92204 z m 15.44322,-1.71456 c 0.33163,-1.2895 -0.0319,-1.83437 -1.2951,-1.94098 -1.88219,-0.15884 -2.64555,1.50715 -1.33713,2.91821 0.62378,0.67273 0.70866,0.69247 1.52135,0.35398 0.65165,-0.27142 0.92148,-0.59478 1.11088,-1.33121 z m -3.81562,-3.64325 c 1.00285,-0.73767 1.40233,-0.8645 2.81058,-0.8923 1.75949,-0.0347 3.533,-0.834933 3.533,-1.594073 0,-2.39293 -5.1708,-3.04429 -7.49188,-0.94374 -1.02861,0.93087 -1.31843,1.872023 -0.96509,3.134003 0.17801,0.6358 0.46332,1.15601 0.63403,1.15601 0.1707,0 0.83641,-0.38696 1.47936,-0.8599 z M -1.6750454,87.924347 c 0.60272,-3.99864 2.72444,-9.31153 4.98465,-12.48179 1.18444,-1.66135 1.65706,-2.80082 1.65706,-3.99515 0,-0.52232 0.11114,-1.44888 0.24699,-2.05902 0.13584,-0.61014 0.50136,-2.41904 0.81226,-4.01977 1.61783,-8.32957 3.68442,-14.420538 7.4290904,-21.896114 2.4103,-4.811732 6.68071,-11.120478 9.07829,-13.411514 0.52481,-0.501489 0.9542,-1.058915 0.9542,-1.238723 0,-0.557408 -4.48956,-3.729374 -7.40833,-5.234135 -1.52797,-0.787739 -4.42525,-2.045638 -6.4384104,-2.795331 l -3.66028,-1.363079 -2.16055,1.058672 c -2.26024,1.107522 -4.22328999,1.739502 -6.31005,2.031447 -0.95787,0.134008 -1.37822,0.06967 -1.85209,-0.283468 -0.35887,-0.267438 -0.42813,-0.394642 -0.16707,-0.306837 0.24526,0.08249 0.48339,0.06188 0.52917,-0.04581 0.0458,-0.107686 1.1548,-0.594473 2.46449,-1.08175 4.41342,-1.642039 7.00922,-3.24816 7.55048,-4.671772 0.29516,-0.776336 0.69,-0.819037 0.91842,-0.09933 0.25071,0.789919 1.00129,1.161705 4.2311004,2.095816 5.38438,1.557246 9.43682,3.64793 13.2958,6.859405 l 1.60865,1.338732 1.0172,-0.983314 c 4.04118,-3.906533 10.70681,-8.473063 16.35751,-11.206308 1.30969,-0.633495 2.42806,-1.179284 2.48526,-1.212863 0.25793,-0.151399 -1.16951,-3.0034171 -2.53926,-5.0734221 -1.66843,-2.521387 -5.0641,-6.021292 -7.57321,-7.80567097 -5.33796,-3.79614803 -11.85265,-5.84904503 -19.49258,-6.14246303 -4.5862,-0.176138 -6.8486804,0.08795 -8.6915904,1.014527 -1.60712,0.808033 -1.85247,1.26239 -1.3034,2.413801 0.37001,0.775922 0.68618,0.992475 2.10632,1.442683 0.91903,0.29134703 2.2067504,0.63651103 2.8615904,0.76703103 0.99688,0.198693 0.52328,0.265771 -2.9104204,0.412216 -2.25557,0.0962 -5.09925,0.366261 -6.31929,0.600137 -9.3163,1.78589397 -19.2490476,8.13329997 -25.2225336,16.11815507 -1.913476,2.557775 -2.578099,3.819932 -2.710081,5.146599 -0.05534,0.556274 -0.63166,2.070225 -1.280711,3.364336 -2.182405,4.351391 -3.654819,10.187833 -3.250454,12.884334 0.208253,1.38873 0.434821,1.528553 1.022789,0.631201 1.215545,-1.855157 4.994093,-4.987278 7.158159,-5.933555 0.57985,-0.25355 0.313623,0.138243 -1.16821,1.719197 -2.061773,2.199686 -4.362916,5.520879 -5.410179,7.808402 -0.762846,1.666276 -1.610371,4.958854 -1.858936,7.221844 -0.190241,1.732 0.190141,4.132527 0.886085,5.591938 0.491371,1.030416 0.677391,1.072195 1.233163,0.276962 1.104171,-1.579916 3.536238,-3.715088 5.060035,-4.442329 0.902567,-0.430755 1.795122,-0.783191 1.983455,-0.783191 0.188333,0 -0.412663,0.738868 -1.335548,1.64193 -3.578094,3.50124 -4.77539,6.327682 -4.969693,11.731897 -0.147401,4.099702 0.190009,5.794752 1.790161,8.993282 1.269915,2.53842 4.203647,5.80177 6.284869,6.99101 l 1.394117,0.79661 0.651546,-1.47326 c 0.968788,-2.1906 3.656387,-5.54054 4.183647,-5.21467 0.14495,0.0896 0.19029,0.0443 0.10076,-0.10051 -0.0895,-0.14486 0.18491,-0.52045 0.60988,-0.83464 l 0.77266,-0.57126 -0.88871,1.78595 c -1.614806,3.24509 -2.042675,7.09401 -1.094685,9.84727 1.188895,3.45293 5.9044946,6.16032 11.0209946,6.32754 l 0.94641,0.0309 z"
       id="path1" /></g></svg>
