<?xml version="1.0" encoding="UTF-8" standalone="no"?>
<!-- Created with Inkscape (http://www.inkscape.org/) -->

<svg
   width="268.12515mm"
   height="248.27504mm"
   viewBox="0 0 268.12514 248.27508"
   version="1.1"
   id="svg1"
   xml:space="preserve"
   xmlns="http://www.w3.org/2000/svg"
   xmlns:svg="http://www.w3.org/2000/svg"><defs
     id="defs1" /><g
     id="layer1"
     transform="translate(-118.71587,3.8504238)"><path
       style="fill:#000000"
       d="m 188.16899,243.91679 c -0.94588,-0.34493 -4.04151,-1.57543 -6.87916,-2.73446 -4.92696,-2.01238 -11.83534,-4.74995 -30.55937,-12.10969 -19.46798,-7.65215 -29.34392,-11.64822 -29.93326,-12.1118 -0.34457,-0.27104 -0.95383,-1.04964 -1.35391,-1.73022 l -0.72742,-1.23742 v -20.6375 -20.63749 l 0.60626,-1.1354 c 1.14559,-2.14544 3.67126,-4.10938 9.84478,-7.65522 2.93141,-1.68369 11.25731,-5.88458 13.81624,-6.97109 l 1.51311,-0.64246 -0.15949,-1.75851 c -0.096,-1.05805 -0.0399,-2.10172 0.14088,-2.62016 0.2877,-0.82532 0.25535,-0.90018 -0.76743,-1.77565 -2.17293,-1.85993 -2.82231,-4.57293 -1.85604,-7.75415 0.84075,-2.768 2.98442,-4.95119 6.04322,-6.15461 1.71572,-0.67502 4.93092,-0.63566 6.59625,0.0807 l 1.32916,0.57179 1.15799,-0.80562 c 1.48235,-1.03127 3.94479,-1.67721 5.52361,-1.44893 2.41758,0.34956 5.03796,2.16268 6.11946,4.23424 0.38292,0.73346 0.6015,0.84671 1.96239,1.01674 1.76691,0.22076 3.12545,0.98768 4.26427,2.40726 0.79729,0.99383 0.79822,0.99416 1.98161,0.69618 0.65117,-0.16397 1.61055,-0.2289 2.13195,-0.14429 0.79968,0.12977 0.9752,0.0682 1.12177,-0.39362 0.0956,-0.3011 0.75609,-1.07103 1.46784,-1.71095 3.04451,-2.73727 7.2178,-2.49109 10.31752,0.60863 1.84222,1.84222 2.24587,2.92392 2.23161,5.98032 l -0.0125,2.67108 0.94192,-0.20154 c 0.51805,-0.11086 2.19207,-0.3314 3.72003,-0.49009 1.52797,-0.1587 5.27844,-0.57845 8.33438,-0.93278 3.05594,-0.35434 6.33016,-0.72657 7.27604,-0.82718 l 1.71979,-0.18294 1.55957,-3.12499 c 1.86377,-3.7345 2.04213,-2.87662 -1.97295,-9.48962 -8.51435,-14.02347 -9.22354,-15.07375 -11.34031,-16.7944 -5.51673,-4.48436 -9.08866,-7.83694 -12.50579,-11.7378 -7.05872,-8.057937 -11.27571,-14.647777 -12.65074,-19.769157 -0.88042,-3.27919 -1.19681,-5.8407 -0.87182,-7.0583 l 0.29123,-1.09108 -1.66197,-1.94782 c -1.98936,-2.33152 -3.65423,-5.531935 -4.38201,-8.423629 -0.60231,-2.393164 -0.74208,-6.520827 -0.27905,-8.240418 0.25363,-0.941887 0.21421,-1.248931 -0.30472,-2.373823 -0.49358,-1.069955 -0.59602,-1.750922 -0.59602,-3.962176 0,-2.567194 0.0387,-2.746446 1.00397,-4.648142 0.86241,-1.699079 0.965,-2.080468 0.7276,-2.70487 -0.40491,-1.064995 -0.32984,-5.327181 0.12803,-7.269504 0.97638,-4.141863 4.11001,-8.608741 7.71097,-10.991748 0.92614,-0.612892 1.09957,-0.880381 1.24132,-1.914536 0.20995,-1.531729 0.98731,-3.289359 2.04604,-4.62611 1.64207,-2.073276 5.59259,-4.244952 8.39937,-4.617284 1.16736,-0.154856 1.4411,-0.306502 1.90333,-1.054397 1.35026,-2.184764 5.19099,-4.308531 9.34701,-5.168517 8.65491,-1.7909158 18.45648,-0.176558 25.69446,4.231983 1.01522,0.618354 1.9489,1.145059 2.07484,1.170454 0.12595,0.0254 0.68974,-0.70243 1.25288,-1.617391 7.1512,-11.6189078 23.47693,-19.4363988 37.14754,-17.7879008 9.07832,1.09473 16.18771,5.662338 21.83351,14.0275078 1.75195,2.595791 3.8335,6.475811 4.28803,7.99292 0.2848,0.95055 0.50719,1.142636 2.4478,2.114199 1.174,0.587761 2.70895,1.487776 3.41099,2.000034 l 1.27644,0.931377 0.70794,-0.573627 c 6.15607,-4.988165 16.09676,-7.997685 25.18189,-7.623753 6.76155,0.278296 11.23331,1.950342 12.34746,4.616862 0.20309,0.486069 0.51432,0.921328 0.69162,0.967243 2.03955,0.528167 5.32909,1.682206 6.2755,2.201574 3.18703,1.748979 5.53209,4.193126 6.57852,6.856487 0.35373,0.900311 1.02444,1.823109 1.98613,2.732641 2.3449,2.217706 4.52473,7.152852 4.03001,9.123962 -0.0972,0.387292 0.1341,1.177185 0.64284,2.195262 1.45515,2.912002 1.9258,5.477667 1.78141,9.711011 -0.0995,2.916412 -0.0442,3.881423 0.25669,4.478867 1.62297,3.222926 1.66305,7.114766 0.10538,10.231942 -0.72114,1.443114 -0.76905,1.717362 -0.6369,3.645396 0.34257,4.998024 -2.04297,10.245304 -6.55834,14.425844 -1.62452,1.50406 -1.83574,1.81056 -1.83574,2.66382 0,1.33333 -0.91751,3.92982 -1.96037,5.54771 -3.89148,6.037267 -11.73408,9.422717 -21.82825,9.422717 -2.13606,0 -2.9759,0.0913 -3.04142,0.33073 -0.0498,0.1819 -0.2826,1.19402 -0.51738,2.24915 -0.9327,4.19172 -3.48725,7.95883 -6.89538,10.16837 -1.88524,1.22223 -5.05574,2.26857 -7.58674,2.5038 -1.18765,0.11038 -2.07841,0.34791 -2.47522,0.66004 l -0.61989,0.4876 0.72499,2.25444 c 0.66699,2.07409 0.85449,2.37164 2.3438,3.71939 1.13006,1.02265 1.88151,1.99903 2.4889,3.23393 0.79161,1.60946 0.86938,1.98412 0.86222,4.15421 -0.006,1.95537 -0.11962,2.61306 -0.62799,3.64953 l -0.62014,1.26432 1.46807,1.51381 c 1.95102,2.01181 3.65549,4.13204 5.74105,7.14141 l 1.71979,2.48159 2.51354,0.86637 c 4.24711,1.46389 14.89261,5.81654 35.05729,14.33393 5.27413,2.22774 16.75122,8.25175 20.50521,10.76261 1.83913,1.2301 3.15346,2.57873 3.92546,4.0279 l 0.70475,1.32291 0.0743,19.68187 c 0.083,21.9798 0.0897,21.88221 -1.60011,23.13144 -0.47049,0.34782 -1.07075,0.70847 -1.33392,0.80144 -0.26317,0.093 -3.53739,0.46908 -7.27604,0.83578 -3.73866,0.3667 -9.00021,0.89677 -11.69235,1.17794 -2.69213,0.28118 -6.91885,0.70241 -9.3927,0.93608 -7.16666,0.67693 -27.11022,2.70953 -28.58797,2.91362 -0.44369,0.0613 -3.30119,0.35311 -6.35,0.64851 -14.02696,1.35906 -24.15459,2.36561 -34.77974,3.45664 -4.14734,0.42587 -10.10047,1.01654 -13.22916,1.31261 -3.1287,0.29606 -7.29589,0.7175 -9.26042,0.93651 -3.34789,0.37325 -12.6777,1.34057 -27.78125,2.88038 -3.56526,0.36348 -10.82808,1.08827 -16.13959,1.61064 -8.38111,0.82426 -14.01305,1.40509 -24.20937,2.49676 -5.3466,0.57243 -5.19431,0.57435 -7.01146,-0.0883 z m 9.51433,-5.57584 c 3.84496,-0.45286 19.09715,-2.04888 25.27838,-2.64518 2.32833,-0.22461 4.56366,-0.47694 4.96739,-0.56073 l 0.73405,-0.15234 -0.0726,-4.27704 -0.0726,-4.27704 -0.66146,0.0643 c -0.36381,0.0354 -3.34037,0.30849 -6.61459,0.60692 -3.27421,0.29842 -8.45343,0.78201 -11.50937,1.07464 -3.05594,0.29263 -6.86594,0.64234 -8.46667,0.77714 -3.48028,0.29309 -7.44391,0.75222 -8.26823,0.95777 -0.58582,0.14609 -0.59531,0.21473 -0.59531,4.309 0,2.28831 0.0794,4.23993 0.17639,4.33694 0.2658,0.26581 1.4497,0.21608 5.10461,-0.2144 z m -8.57379,-4.02558 c 0.074,-2.17977 0.065,-4.14466 -0.0201,-4.36642 -0.0851,-0.22176 -1.19021,-0.89081 -2.4558,-1.48676 -2.39062,-1.12573 -3.1226,-1.25434 -6.60055,-1.15972 l -1.91823,0.0522 v 2.35961 c 0,2.80009 -0.11839,3.19664 -0.95435,3.19664 -0.34823,0 -0.64881,-0.0298 -0.66796,-0.0661 -0.0191,-0.0364 -0.10844,-1.4297 -0.19844,-3.09627 l -0.16362,-3.03014 -3.96875,-1.36052 c -2.18282,-0.74828 -5.21891,-1.80766 -6.74688,-2.35417 -6.01194,-2.15029 -12.75946,-4.47573 -16.66875,-5.74464 -7.88674,-2.55997 -16.95976,-5.78508 -18.59331,-6.60922 -0.90602,-0.45709 -1.79174,-1.03676 -1.96826,-1.28815 -0.17653,-0.25138 -0.80972,-0.53522 -1.4071,-0.63074 -1.27903,-0.20453 -2.37299,-1.18112 -2.37299,-2.1184 0,-0.94077 0.36767,-1.04683 1.54566,-0.44586 0.56906,0.29031 1.10892,0.45357 1.1997,0.36279 0.0908,-0.0908 0.16505,-3.11872 0.16505,-6.72875 v -6.56369 l -0.72823,-0.37658 c -1.02879,-0.53201 -1.71746,-1.36671 -1.59435,-1.93243 0.0578,-0.26548 0.21704,-0.46598 0.35392,-0.44555 0.13688,0.0204 0.63582,0.11919 1.10877,0.21946 l 0.85989,0.18231 0.006,-4.4528 c 0.006,-4.95651 0.22923,-5.8586 1.81454,-7.34812 0.60352,-0.56705 0.784,-0.92657 0.66411,-1.32291 -0.23979,-0.79274 -1.3561,-2.20716 -2.03219,-2.57488 -0.66548,-0.36195 -3.80815,-1.00759 -3.99499,-0.82075 -0.0677,0.0677 -0.0552,8.71417 0.0277,19.21433 0.10679,13.51378 0.23646,19.14844 0.44386,19.28712 0.16116,0.10775 0.82879,0.39615 1.48363,0.64089 0.65485,0.24474 4.28625,1.65993 8.06979,3.14487 10.45459,4.10314 18.64956,7.30204 22.75146,8.88101 2.0358,0.78365 10.13205,4.00131 17.99167,7.15036 7.85961,3.14906 14.32271,5.69624 14.36244,5.6604 0.0397,-0.0358 0.13281,-1.84859 0.20684,-4.02836 z m 53.69592,-0.6073 c 5.67531,-0.57359 14.66453,-1.4647 19.97604,-1.98025 5.31151,-0.51554 11.26464,-1.11337 13.22917,-1.32851 1.96453,-0.21514 10.23937,-1.04617 18.38854,-1.84673 14.20121,-1.39509 19.95107,-1.97332 25.13541,-2.52772 1.30969,-0.14006 5.8936,-0.61614 10.18646,-1.05796 4.29287,-0.44183 10.00787,-1.03375 12.7,-1.31539 4.45697,-0.46627 13.84951,-1.39508 17.4625,-1.72683 7.05763,-0.64805 20.66538,-2.02107 21.29896,-2.14906 0.43656,-0.0882 0.88122,-0.29423 0.98813,-0.45784 0.10692,-0.16362 0.19621,-2.008 0.19844,-4.09863 l 0.004,-3.80113 -1.78593,0.20237 c -0.98227,0.1113 -2.55985,0.274 -3.50573,0.36155 l -1.7198,0.15918 -0.082,1.44719 c -0.0451,0.79595 -0.2085,1.59962 -0.36313,1.78594 -0.37041,0.44631 -1.39628,0.43296 -1.77477,-0.0231 -0.21209,-0.25555 -0.34022,-4.5885 -0.43619,-14.75052 -0.0956,-10.12608 -0.22659,-14.56715 -0.44208,-14.99113 -0.16841,-0.33135 -0.56077,-0.66634 -0.87192,-0.74444 -0.74454,-0.18686 -12.50451,0.79996 -12.7767,1.07214 -0.0595,0.0595 0.0835,0.68521 0.31772,1.39046 0.37597,1.13193 0.41791,3.1703 0.35769,17.38469 -0.0636,15.00473 -0.0998,16.12232 -0.53124,16.39445 -0.33732,0.21275 -0.58872,0.21288 -0.92604,4.8e-4 -0.39417,-0.2482 -0.47403,-0.78899 -0.53707,-3.63667 l -0.074,-3.34512 h -0.91585 c -0.75076,0 -6.40523,0.53503 -12.56209,1.18862 -1.36449,0.14485 -15.65038,1.54318 -21.56354,2.11068 -2.18281,0.20949 -6.17141,0.57151 -8.86354,0.8045 -2.69214,0.23298 -6.02589,0.53537 -7.40834,0.67197 -1.38244,0.13659 -7.87135,0.78083 -14.41979,1.43164 -18.4356,1.8322 -29.65362,2.91273 -45.24375,4.35794 -10.53805,0.97689 -14.81207,1.39854 -15.14739,1.49437 -0.24672,0.0705 -0.33073,1.16081 -0.33073,4.29205 0,2.30865 0.0736,4.27113 0.16353,4.36107 0.0899,0.0899 0.47689,0.10707 0.85989,0.0381 0.383,-0.069 5.33981,-0.59475 11.01512,-1.16834 z M 364.76634,212.9469 c -0.40938,-0.40938 -0.64944,-0.95173 -0.64944,-1.46724 0,-0.9365 1.0096,-2.11666 1.81075,-2.11666 0.77718,0 1.60786,0.82573 1.7926,1.78192 0.1413,0.73137 0.0411,0.97196 -0.68864,1.65365 -1.03541,0.96722 -1.42112,0.99248 -2.26527,0.14833 z m -0.23756,-8.66986 c -0.91189,-1.30191 -0.0316,-3.64529 1.36931,-3.64529 1.40543,0 2.26928,1.73786 1.55267,3.12362 -0.6509,1.25871 -2.21069,1.53718 -2.92198,0.52167 z m -164.58583,23.84623 c 0.58209,-0.15772 1.47523,-0.68811 1.98476,-1.17863 1.31982,-1.27057 2.80919,-1.50399 18.52045,-2.90255 4.14734,-0.36918 7.69178,-0.72454 7.87653,-0.78968 0.26058,-0.0919 0.31991,-1.4104 0.26458,-5.87945 l -0.0713,-5.76101 -0.92604,0.0448 c -1.19247,0.0576 -10.06075,0.79762 -15.34583,1.28049 -2.25557,0.20608 -5.58932,0.50262 -7.40833,0.65897 -6.11319,0.52547 -11.70732,1.10029 -12.0728,1.24054 -0.49435,0.1897 -0.53715,12.76675 -0.0451,13.25878 0.40651,0.40651 5.74961,0.42705 7.22313,0.0278 z m -10.77722,-6.64133 c 0.0544,-4.99104 -0.007,-6.55218 -0.26459,-6.75798 -0.76062,-0.60715 -7.54613,-2.6706 -9.06652,-2.7571 l -1.5875,-0.0903 -0.0709,6.26016 -0.0709,6.26016 1.12921,0.41939 c 3.41669,1.26895 9.36764,3.26121 9.59588,3.21251 0.16531,-0.0353 0.29111,-2.49176 0.33527,-6.54682 z m -12.83275,-3.71842 c 0.10744,-4.29334 0.0642,-5.96705 -0.15989,-6.18276 -0.16897,-0.16268 -2.80753,-1.13391 -5.86347,-2.15829 -9.18953,-3.08044 -27.1322,-9.32906 -35.04702,-12.2053 -2.832,-1.02915 -5.24112,-1.77916 -5.35358,-1.66669 -0.11247,0.11246 -0.11709,2.80985 -0.0103,5.9942 l 0.19422,5.78971 0.79375,0.43401 c 0.43656,0.2387 2.28203,0.94665 4.10104,1.57323 1.81901,0.62658 4.79557,1.66585 6.61458,2.3095 1.81901,0.64365 4.61698,1.63255 6.21771,2.19755 4.04246,1.42687 19.99362,6.99925 23.68021,8.27244 1.67349,0.57796 3.2213,1.15488 3.43958,1.28206 0.21828,0.12717 0.58789,0.23484 0.82135,0.23927 0.37279,0.007 0.44242,-0.70891 0.5718,-5.87893 z m 58.80745,4.96997 c 1.74191,-0.21331 5.90554,-0.63471 9.25252,-0.93644 3.34698,-0.30173 7.75229,-0.71905 9.78958,-0.92738 2.0373,-0.20833 8.28808,-0.80193 13.89063,-1.31912 10.15054,-0.93702 11.27384,-1.04478 19.05,-1.82753 6.24718,-0.62884 22.75093,-2.22071 26.32604,-2.53928 1.74625,-0.1556 10.6164,-0.99461 19.71146,-1.86445 9.09505,-0.86984 18.08427,-1.71072 19.97604,-1.86861 1.89177,-0.15788 3.55864,-0.40026 3.70416,-0.5386 0.32087,-0.30505 0.50494,-10.27306 0.19815,-10.73022 -0.21485,-0.32014 -0.42644,-0.30609 -10.91377,0.72496 -8.16683,0.80291 -19.70482,1.856 -30.29479,2.76505 -6.0236,0.51706 -18.22788,1.63364 -21.69583,1.98496 -2.83843,0.28755 -18.7849,1.69619 -38.89375,3.43569 -11.02707,0.95389 -22.30939,2.01044 -23.8125,2.22996 -0.50714,0.0741 -0.53215,0.30725 -0.60086,5.6005 -0.0394,3.03777 -0.0134,5.67512 0.0578,5.86078 0.16309,0.42501 0.39645,0.42225 4.25508,-0.0503 z m -35.47531,-9.69427 c 0.91208,-0.16924 1.68172,-0.55673 2.53525,-1.27644 l 1.2256,-1.03344 5.26995,-0.54194 c 2.89847,-0.29806 8.18698,-0.78395 11.75224,-1.07975 3.56526,-0.2958 6.8835,-0.60555 7.37388,-0.68833 l 0.89158,-0.15053 -0.11457,-4.01696 c -0.12455,-4.36691 -0.349,-5.18065 -1.72818,-6.26551 -0.67317,-0.52952 -0.92192,-0.56143 -3.11414,-0.39948 -1.31039,0.0968 -2.68018,0.21733 -3.04399,0.26784 -0.3638,0.0505 -2.62599,0.22572 -5.02708,0.38936 -2.40109,0.16365 -5.60669,0.41064 -7.12356,0.54887 -4.27198,0.38931 -5.1095,0.33614 -6.40933,-0.40694 -0.66085,-0.37779 -1.57633,-0.65962 -2.14856,-0.66145 -1.39652,-0.004 -6.61776,1.72916 -7.22343,2.39842 -0.46267,0.51124 -0.49137,0.98613 -0.41187,6.81303 0.047,3.44491 0.14846,6.36597 0.22546,6.49123 0.15689,0.25523 5.05169,-0.0134 7.07075,-0.38798 z m -10.59839,-0.39057 c 0.0883,-0.23019 0.1606,-3.06693 0.1606,-6.30388 0,-6.86626 0.18618,-6.41215 -3.20213,-7.81031 -2.77407,-1.14469 -3.0415,-1.36072 -2.58648,-2.08933 0.19781,-0.31673 0.53937,-0.57786 0.75902,-0.58028 0.21966,-0.002 1.85192,0.49568 3.62725,1.10688 l 3.22788,1.11127 1.73306,-0.84501 c 0.95319,-0.46475 1.73306,-0.9544 1.73306,-1.0881 0,-0.1337 -0.6846,-0.44086 -1.52135,-0.68257 -2.38077,-0.68773 -14.45722,-4.87911 -29.69948,-10.30783 -3.12869,-1.11432 -6.99823,-2.4849 -8.59896,-3.04573 -1.60072,-0.56083 -7.23164,-2.57683 -12.51315,-4.48002 -7.43794,-2.68025 -9.89835,-3.46033 -10.91406,-3.46033 -0.72123,0 -1.31133,0.10464 -1.31133,0.23253 0,0.12789 0.41224,0.91712 0.91609,1.75383 l 0.91608,1.52131 4.44173,1.51724 c 2.44295,0.83449 6.22767,2.17513 8.41048,2.9792 8.41183,3.09862 7.92968,2.82629 7.49434,4.23287 -0.20745,0.67027 -0.46321,0.99219 -0.78828,0.99219 -0.41959,0 -4.06848,-1.2682 -15.96648,-5.54928 -4.11116,-1.47926 -4.13048,-1.48187 -4.90181,-0.66169 -0.63608,0.67637 -0.65675,0.8235 -0.73693,5.24529 -0.0454,2.50217 0.0315,4.84439 0.17085,5.20493 0.2123,0.54935 0.80429,0.8402 3.65437,1.79545 1.87056,0.62695 4.17493,1.423 5.12081,1.76901 4.64326,1.6985 18.51624,6.55047 32.80834,11.47448 2.11005,0.72697 4.04481,1.40248 4.29947,1.50113 0.43196,0.16734 0.46303,-0.19277 0.46303,-5.36655 0,-5.40234 -0.0156,-5.56273 -0.60181,-6.19528 -0.61001,-0.65821 -1.50032,-1.00998 -12.09819,-4.78007 l -5.42396,-1.92952 -0.082,-1.28637 -0.082,-1.28636 0.97236,0.18242 c 1.35905,0.25496 15.61984,5.23225 16.96252,5.92024 0.60621,0.31062 1.37813,0.95228 1.71538,1.42591 0.60759,0.85328 0.61239,0.92056 0.52648,7.3869 l -0.0867,6.52577 1.4299,1.07958 c 1.17583,0.88776 2.08523,1.26401 5.11819,2.11757 4.34379,1.22247 4.24824,1.20804 4.45374,0.67251 z m 192.31923,-4.05838 0.8549,-0.17468 0.0714,-5.61171 0.0714,-5.61172 -0.60058,0.0174 c -0.33031,0.01 -1.91026,0.15923 -3.51099,0.33261 l -2.91042,0.31523 -0.0715,5.6421 -0.0715,5.6421 2.65615,-0.18832 c 1.46089,-0.10357 3.04086,-0.26691 3.51106,-0.36299 z m -141.90272,-1.21288 c 4.01003,-0.36447 9.96987,-0.89915 13.24409,-1.18816 9.5117,-0.8396 11.78239,-1.04232 16.27187,-1.4527 2.32833,-0.21283 9.05536,-0.80965 14.94896,-1.32626 18.83459,-1.65096 32.50551,-2.88599 44.05312,-3.97973 3.78354,-0.35836 8.8437,-0.81945 11.24479,-1.02465 13.44846,-1.14928 17.61141,-1.58182 17.78918,-1.84833 0.26592,-0.39869 0.23218,-7.16223 -0.0428,-8.58558 -0.36447,-1.88636 -0.63248,-2.01412 -3.50499,-1.67085 -3.0019,0.35873 -4.53287,0.49711 -9.33617,0.84389 -2.04301,0.1475 -4.01222,0.32157 -4.37602,0.38683 -0.3638,0.0653 -1.67349,0.18392 -2.91042,0.26368 -1.23693,0.0798 -3.14193,0.25995 -4.23333,0.40042 -1.09141,0.14047 -4.66328,0.50141 -7.9375,0.80209 -3.27422,0.30068 -8.15578,0.77401 -10.84792,1.05185 -2.69213,0.27783 -5.54963,0.57159 -6.35,0.65278 -1.78106,0.18069 -9.71976,0.86236 -12.43541,1.06779 -1.09141,0.0826 -3.71078,0.32176 -5.82084,0.53155 -3.88593,0.38637 -5.132,0.48483 -18.38854,1.45307 -4.07458,0.2976 -10.86114,0.83718 -15.08125,1.19906 -4.2201,0.36188 -9.99463,0.83843 -12.83229,1.05899 -7.79324,0.60575 -13.53622,1.13331 -13.65752,1.25461 -0.0597,0.0597 0.22062,0.69219 0.62293,1.40554 0.69523,1.23275 0.73592,1.49689 0.82136,5.3319 l 0.0899,4.0349 h 0.68894 c 0.37891,0 3.96987,-0.29821 7.9799,-0.66269 z m -32.9257,-12.03816 c 6.30749,-0.67819 17.45959,-1.63114 24.73854,-2.11392 4.43838,-0.29438 9.49854,-0.65239 11.24479,-0.79559 1.74625,-0.14319 5.67531,-0.43972 8.73125,-0.65895 5.21732,-0.37429 8.36599,-0.62786 19.71146,-1.58745 2.54661,-0.21539 7.01145,-0.57642 9.92187,-0.80228 7.32142,-0.56818 23.85047,-2.07437 34.925,-3.1825 5.09323,-0.50963 13.78479,-1.33944 19.31458,-1.84403 22.1937,-2.02513 30.7229,-2.8923 31.61771,-3.21459 0.49944,-0.17988 -2.58206,-1.63436 -8.86354,-4.1836 -2.61938,-1.06303 -8.27485,-3.38488 -12.56771,-5.15966 -4.29287,-1.77478 -10.50856,-4.27246 -13.81266,-5.5504 l -6.00746,-2.32353 -1.24059,1.18869 c -1.95812,1.87622 -3.67033,2.52563 -6.98371,2.6488 -2.3332,0.0867 -3.1922,-0.003 -5.34934,-0.56045 -3.05726,-0.78969 -9.31559,-3.3413 -13.14066,-5.35763 -1.51023,-0.7961 -2.79217,-1.40116 -2.84875,-1.34458 -0.0566,0.0566 0.0154,0.68625 0.16003,1.39926 0.14461,0.71301 0.32999,1.73957 0.41198,2.28123 0.13207,0.87267 0.26375,1.01573 1.156,1.25599 1.18233,0.31837 3.00939,1.58005 3.60545,2.48974 0.23065,0.35203 0.43874,1.12569 0.46241,1.71925 0.0521,1.30568 -0.55089,2.21917 -2.20466,3.34013 -1.20599,0.81744 -3.83928,1.65591 -4.16378,1.32579 -0.10054,-0.10228 0.37364,-0.68063 1.05374,-1.28523 1.30074,-1.15633 2.33268,-2.6536 2.33434,-3.38696 0.001,-0.45607 -1.6708,-2.07793 -2.14196,-2.07793 -0.14985,0 -0.56471,0.34732 -0.9219,0.77181 -0.98987,1.1764 -7.36359,4.25527 -8.80903,4.25527 -0.3338,0 1.87302,-2.0506 3.77545,-3.50818 l 2.08803,-1.59978 -0.15995,-2.80383 c -0.088,-1.54211 -0.28546,-3.28008 -0.43886,-3.86216 -0.83471,-3.16725 -0.65144,-2.90583 -2.66988,-3.80835 -2.42934,-1.08624 -9.49136,-3.40453 -11.35841,-3.72868 -0.80036,-0.13896 -2.46723,-0.43956 -3.70416,-0.66801 -4.9701,-0.91794 -10.30386,-1.53481 -18.25625,-2.11143 -1.23693,-0.0897 -2.96333,-0.22471 -3.83646,-0.30005 -2.89174,-0.24951 -16.07769,-0.15011 -19.84375,0.1496 -4.73461,0.37678 -9.44413,0.96858 -12.30312,1.54602 l -2.24896,0.45423 -0.73757,2.10817 c -1.09582,3.13212 -1.58773,6.4024 -1.45602,9.6799 0.10514,2.61668 0.1651,2.86913 0.95352,4.01507 0.46273,0.67255 1.02884,1.41033 1.25803,1.63952 0.37923,0.37923 0.3354,0.41671 -0.48721,0.41671 -0.8294,0 -2.16475,-0.73286 -4.62006,-2.53555 -0.76747,-0.56348 -1.77654,-0.31389 -2.36559,0.58512 -0.43171,0.65886 -0.42415,0.73598 0.18451,1.88332 0.5685,1.07163 2.70764,3.14976 4.88951,4.75006 l 0.79338,0.5819 -1.68395,-0.38746 c -1.73318,-0.39879 -4.38114,-1.74623 -5.65021,-2.87516 -2.72875,-2.42742 -2.26195,-5.37459 1.10156,-6.95484 l 1.56411,-0.73485 0.0853,-1.81251 c 0.0469,-0.99688 0.0206,-1.85214 -0.0585,-1.90058 -0.0791,-0.0484 -2.46031,0.19461 -5.29167,0.54011 -2.83136,0.34549 -6.75527,0.8211 -8.7198,1.05692 -1.96453,0.23581 -5.00062,0.65009 -6.74687,0.92062 -1.74625,0.27054 -4.54422,0.68627 -6.21771,0.92387 -5.82288,0.82669 -12.066,1.73751 -16.40417,2.39322 -2.40109,0.36292 -5.19906,0.78087 -6.2177,0.92877 -3.73076,0.5417 -12.72573,2.17194 -19.45972,3.52686 -1.92338,0.387 -4.22049,1.19619 -4.22049,1.48673 0,0.21856 3.08269,1.38101 10.47003,3.94813 5.59078,1.94281 18.3118,6.46577 22.73518,8.0835 6.12019,2.2383 12.17651,4.36159 20.76979,7.28171 5.02046,1.70603 9.42578,3.23118 9.78958,3.38922 0.83747,0.36381 1.42798,0.37132 4.36562,0.0555 z m 48.81562,-26.88527 c -0.80037,-0.0533 -4.55083,-0.28083 -8.33438,-0.50554 -8.64261,-0.51328 -17.46411,-1.14933 -18.28821,-1.31861 -0.34622,-0.0711 -0.92715,-0.19111 -1.29095,-0.26665 -0.88264,-0.18325 -0.84245,-0.8603 0.0661,-1.11439 1.36876,-0.38278 16.60652,-0.18103 21.89426,0.28988 12.83015,1.14262 17.53364,1.90495 16.72746,2.71113 -0.21633,0.21633 -8.29487,0.36943 -10.77433,0.20418 z m 124.22187,26.00114 2.64583,-0.30565 0.0711,-6.00993 0.0711,-6.00993 -0.70558,-0.46231 c -0.91807,-0.60155 -3.22946,-0.73791 -6.66521,-0.39321 -3.55671,0.35682 -3.83801,0.58491 -2.47193,2.00437 0.57242,0.59479 1.37526,1.61721 1.7841,2.27206 0.71277,1.14165 0.748,1.35659 0.85634,5.22552 l 0.11299,4.03489 0.82772,-0.0251 c 0.45525,-0.0138 2.01835,-0.16262 3.47356,-0.33072 z m -10.53258,-15.40288 c 0.0905,-0.27547 -1.80538,-1.17686 -5.7393,-2.7287 -1.0914,-0.43054 -2.92586,-1.21504 -4.07657,-1.74335 -1.15071,-0.5283 -2.26926,-0.89261 -2.48566,-0.80957 -0.2164,0.083 -0.59759,-0.0337 -0.84709,-0.25954 -0.24949,-0.22579 -1.57173,-0.8695 -2.9383,-1.43046 -1.36657,-0.56097 -3.18409,-1.3316 -4.03894,-1.71252 -0.85486,-0.38092 -1.68829,-0.69332 -1.85209,-0.69421 -0.16379,-9e-4 -0.65499,-0.18941 -1.09155,-0.41891 -0.43657,-0.2295 -3.47266,-1.48585 -6.74688,-2.79188 -3.27422,-1.30603 -7.42385,-2.98004 -9.2214,-3.72 -2.65741,-1.09394 -3.31185,-1.27651 -3.50142,-0.9768 -0.4619,0.73021 -0.59803,0.65273 5.04991,2.87443 1.52796,0.60105 3.01625,1.20257 3.30729,1.33671 0.78904,0.36368 3.27712,1.31049 4.63021,1.76197 0.99859,0.3332 3.84114,1.51685 5.95312,2.47892 0.29104,0.13257 3.14854,1.30069 6.35,2.59582 7.2521,2.93379 9.5725,3.89406 10.58333,4.3798 1.8936,0.90992 5.59844,2.25285 6.06469,2.19832 0.27965,-0.0327 0.54994,-0.18572 0.60065,-0.34003 z m 10.36378,-0.25618 c 0.25674,-0.25675 -0.85129,-0.98441 -5.78433,-3.79863 -5.00063,-2.85278 -9.36863,-5.05547 -10.03496,-5.06042 -0.68586,-0.005 -5.57545,1.41264 -5.57545,1.6166 0,0.10386 0.50601,0.36795 1.12448,0.58687 1.60786,0.56915 12.96739,5.36198 14.20544,5.99359 0.57109,0.29134 1.12316,0.66695 1.22682,0.83468 0.19416,0.31416 4.50502,0.16028 4.838,-0.17269 z m -251.75632,-6.4891 c 0.38006,-0.29896 1.9737,-1.14358 3.54141,-1.87693 2.87178,-1.34337 6.42226,-3.51527 6.42226,-3.92862 0,-0.12269 -0.83563,-0.41312 -1.85696,-0.64542 -2.08385,-0.47396 -1.9698,-0.50459 -5.1545,1.38431 -4.90159,2.90723 -7.22088,4.67678 -6.45216,4.92281 0.36268,0.11608 2.33165,0.60722 2.64617,0.66006 0.0895,0.015 0.47372,-0.21726 0.85378,-0.51621 z m 11.0188,-1.74368 c 2.57694,-1.15631 12.23921,-3.02044 28.5782,-5.51357 2.25558,-0.34417 6.36323,-0.98434 9.12813,-1.4226 2.76489,-0.43826 5.77389,-0.87968 6.68665,-0.98094 1.80933,-0.20071 2.1958,-0.47347 1.56483,-1.10444 -0.3704,-0.37039 -1.07127,-0.32583 -7.2412,0.46042 -6.46247,0.82353 -6.93106,0.92098 -8.6832,1.80583 -1.96048,0.99006 -2.24365,1.02359 -6.87917,0.81456 -1.21474,-0.0548 -3.26332,0.17284 -5.95312,0.66145 -7.09164,1.28822 -13.06693,2.56543 -13.88967,2.9689 -0.49698,0.24371 -1.142,0.32978 -1.72868,0.23066 -0.81362,-0.13746 -1.2035,0.0183 -2.98439,1.19252 -1.12669,0.74285 -1.97456,1.47031 -1.88416,1.61657 0.21958,0.35529 1.50388,0.0702 3.28578,-0.72936 z m 218.59589,-0.6155 c 0.81606,-0.28682 1.97543,-0.60012 2.57639,-0.69622 2.29233,-0.36655 2.08317,-0.49271 -6.98888,-4.21543 -8.29334,-3.40318 -11.01243,-4.40129 -11.48228,-4.21487 -0.37748,0.14978 -2.86002,0.80529 -4.85574,1.28215 -1.00594,0.24036 -0.90971,0.59341 0.26459,0.97062 0.5457,0.1753 3.13531,1.18486 5.75468,2.24347 7.64112,3.08812 12.70944,5.07232 13.10605,5.13088 0.0778,0.0115 0.80914,-0.21378 1.62519,-0.5006 z M 144.12176,165.0293 c 1.74301,-0.37259 4.77646,-0.97157 6.74099,-1.33105 5.26851,-0.96408 6.43111,-1.25896 6.56308,-1.66463 0.0948,-0.29133 -0.12114,-0.32982 -1.06024,-0.18899 -3.31497,0.49711 -5.95084,-0.0492 -8.26861,-1.71367 l -1.19783,-0.86022 -2.31768,0.99733 c -3.97916,1.71226 -8.27081,3.82085 -8.27081,4.06363 0,0.12788 0.62508,0.37346 1.38907,0.54573 0.76398,0.17228 1.56765,0.42752 1.78593,0.56722 0.59114,0.37832 1.16294,0.32709 4.6361,-0.41535 z m 175.97555,-2.69078 c 1.28634,-0.91755 1.81505,-2.25806 1.80217,-4.56927 -0.01,-1.76342 -0.13268,-2.24186 -1.10339,-4.2968 -0.94803,-2.00691 -3.78262,-6.69754 -4.27869,-7.08028 -0.0943,-0.0728 -0.58097,-0.66808 -1.08148,-1.32292 -0.50051,-0.65485 -1.52308,-1.8333 -2.27237,-2.61879 l -1.36236,-1.42816 -1.69067,0.45765 c -0.92987,0.2517 -1.80922,0.43379 -1.95412,0.40464 -0.63923,-0.12861 -0.86059,0.0745 -1.15615,1.06104 -0.8669,2.89345 -5.572,3.74178 -8.82018,1.59028 -1.20271,-0.79664 -2.62835,-2.22931 -4.11998,-4.14029 -2.71022,-3.47216 -2.9841,-7.40313 -0.70454,-10.11223 l 0.69573,-0.82683 -0.71129,-1.21372 c -0.58486,-0.99799 -0.81259,-1.18523 -1.28125,-1.05343 -9.28236,2.6104 -15.5834,3.39568 -27.55746,3.43439 -4.55471,0.0147 -9.57251,-0.11981 -11.77395,-0.31567 -5.0292,-0.44743 -9.23509,-0.80804 -11.42572,-0.97961 -1.50238,-0.11767 -5.40105,-0.659 -9.62152,-1.33596 l -1.07119,-0.17182 -1.6826,2.60499 c -0.92543,1.43274 -2.0631,3.31935 -2.52814,4.19248 -3.22532,6.05554 -4.22258,8.02083 -5.42059,10.68226 -1.43627,3.19075 -1.52554,3.90197 -0.43786,3.48844 1.07313,-0.40801 9.05696,-1.29603 13.4022,-1.4907 4.69773,-0.21046 15.72117,-0.20919 19.05,0.002 7.50028,0.47628 17.10488,1.54354 21.43125,2.38143 3.96801,0.76848 9.5179,2.24228 12.03854,3.19689 0.29104,0.11022 -0.4931,-0.85768 -1.74254,-2.1509 -1.24943,-1.29321 -2.67511,-2.88707 -3.16816,-3.54191 -0.49305,-0.65485 -0.968,-1.25016 -1.05545,-1.32292 -0.32456,-0.27007 -2.31312,-3.34541 -2.86507,-4.43088 l -0.57133,-1.12358 0.74913,0.46213 c 0.41203,0.25416 2.22994,1.79538 4.03982,3.42492 1.80988,1.62953 4.12412,3.63051 5.14277,4.4466 1.97147,1.57945 7.93579,5.61399 9.26041,6.26416 0.43656,0.21428 2.10344,1.07982 3.70417,1.92342 4.74042,2.49825 10.3187,4.83579 13.89062,5.82078 2.14766,0.59223 5.19691,0.44003 6.25124,-0.31203 z m -152.80338,-0.93975 c 0.49446,-0.3321 1.18686,-1.04647 1.53867,-1.5875 0.38029,-0.58485 0.85059,-0.98369 1.15992,-0.98369 2.07944,0 4.29357,-1.7114 5.09403,-3.93742 0.33924,-0.9434 0.62053,-1.34653 0.90087,-1.29108 0.32525,0.0643 0.40762,0.49649 0.40762,2.13869 0,1.88527 0.0555,2.10011 0.66146,2.55903 1.0173,0.77049 2.75255,1.12285 3.94647,0.80136 1.19866,-0.32276 2.30702,-1.13721 2.53801,-1.86498 0.2562,-0.80722 0.72185,-0.62986 1.83144,0.69756 1.25599,1.50257 2.49742,2.0681 4.06743,1.85291 2.59346,-0.35547 3.90764,-2.12337 3.70109,-4.97888 -0.10035,-1.38732 -0.22882,-1.71236 -0.92139,-2.33117 -0.50538,-0.45156 -1.26089,-0.78747 -2.03079,-0.90292 -1.30647,-0.19592 -1.46745,-0.40136 -0.82104,-1.04778 0.64071,-0.6407 1.43494,-2.5936 1.4413,-3.54392 0.0114,-1.70582 -1.16883,-3.65537 -2.69303,-4.44841 -0.94344,-0.49087 -2.9609,-0.47301 -4.03294,0.0357 -0.47225,0.22409 -1.25204,0.93251 -1.73288,1.57425 -0.48084,0.64175 -1.02145,1.22329 -1.20134,1.29232 -0.1799,0.069 -0.92579,-0.05 -1.65755,-0.26449 -1.18318,-0.34684 -1.43852,-0.34486 -2.3067,0.0179 l -0.97625,0.4079 0.0934,1.75566 c 0.0775,1.45727 0.0137,1.80612 -0.3756,2.05265 -0.39268,0.24869 -0.5849,0.1492 -1.1819,-0.61177 -0.39212,-0.49981 -0.955,-1.6219 -1.25084,-2.49352 -0.89253,-2.62963 -2.84651,-3.70855 -5.45284,-3.01088 -0.62788,0.16807 -0.72756,0.0716 -1.26454,-1.22398 -1.07561,-2.59509 -2.84679,-3.87223 -5.37014,-3.87223 -2.3124,0 -3.42446,0.73768 -5.36303,3.55754 -0.33424,0.48619 -0.38427,0.45536 -0.89932,-0.55421 -0.29996,-0.58798 -0.97326,-1.44473 -1.49622,-1.9039 -1.27585,-1.12021 -2.26349,-1.08829 -4.81308,0.15555 -3.00798,1.46746 -4.27101,3.47273 -3.97764,6.3152 0.17445,1.6902 0.72349,2.69546 1.91992,3.51527 l 0.89056,0.61023 -0.15802,2.0492 c -0.20569,2.66729 0.21554,4.41458 1.39698,5.79483 1.89356,2.2122 5.0891,3.02044 9.0917,2.29957 l 2.24015,-0.40346 0.93485,0.90967 c 1.18603,1.15407 1.896,1.42938 3.74001,1.45024 1.12355,0.0127 1.69977,-0.12934 2.38124,-0.58704 z m 168.51256,-0.6873 c 0.80036,-0.29903 1.93146,-0.54941 2.51354,-0.55639 2.37679,-0.0285 1.782,-0.44763 -3.75079,-2.64314 -8.62468,-3.42242 -8.8464,-3.50557 -8.98324,-3.36873 -0.0711,0.0711 0.0682,0.58861 0.30949,1.15004 0.24132,0.56144 0.51618,1.6161 0.61082,2.34371 l 0.17205,1.32291 3.04271,1.24984 c 3.31031,1.35977 3.70243,1.3921 6.08542,0.50176 z m -137.83714,-0.0252 c 1.37652,-0.15163 3.81246,-0.44561 5.41319,-0.65327 1.60072,-0.20767 4.20121,-0.52292 5.77886,-0.70056 2.85398,-0.32135 3.33027,-0.54155 3.00497,-1.38926 -0.11398,-0.29702 -0.6066,-0.29579 -3.00487,0.008 -1.5777,0.19953 -3.52339,0.41337 -4.32376,0.4752 -0.80036,0.0618 -2.70536,0.29438 -4.23333,0.51679 -1.52797,0.2224 -3.27001,0.40655 -3.8712,0.40922 -0.94423,0.004 -1.19338,0.13635 -1.82965,0.97054 l -0.73657,0.9657 0.6498,-0.16309 c 0.35738,-0.0897 1.77604,-0.28716 3.15256,-0.4388 z M 175.469,159.66545 c 0,-0.3728 -0.29803,-0.54383 -0.68733,-0.39444 -0.55217,0.21189 -0.44851,0.61492 0.15816,0.61492 0.29104,0 0.52917,-0.0992 0.52917,-0.22048 z m 25.20896,-3.26266 c 1.8019,-0.19518 2.81945,-0.41447 2.76415,-0.59569 -0.0481,-0.15773 -0.98852,-0.76304 -2.08973,-1.34512 -1.10122,-0.58209 -2.18197,-1.20988 -2.40167,-1.39511 -0.27965,-0.23577 -0.84543,-0.28436 -1.88642,-0.16201 -0.81783,0.0961 -1.48696,0.20336 -1.48696,0.23832 0,0.035 0.17859,0.49098 0.39687,1.0134 0.21828,0.52242 0.39688,1.31087 0.39688,1.75211 0,0.95273 0.0355,0.9568 4.30688,0.4941 z m 11.70456,-1.17175 c 0.40253,-0.10103 0.79324,-0.70011 1.36927,-2.09952 0.44332,-1.07698 0.76115,-2.00303 0.70629,-2.05789 -0.0549,-0.0549 -1.25961,0.0472 -2.67723,0.2267 -1.41761,0.17954 -4.00623,0.46987 -5.75248,0.64519 -1.74625,0.17531 -3.65125,0.40368 -4.23333,0.5075 l -1.05834,0.18874 1.19063,0.56318 c 0.65484,0.30975 1.84547,0.9935 2.64583,1.51944 l 1.45521,0.95627 2.89545,-0.15412 c 1.5925,-0.0848 3.14892,-0.21774 3.4587,-0.29549 z m 91.33027,-12.14699 c 0.8637,-0.60496 1.22761,-2.06587 1.06156,-4.26152 -0.20957,-2.77099 0.68333,-3.31959 1.89476,-1.16414 l 0.57963,1.0313 1.1121,-0.39237 c 2.86218,-1.00984 4.39824,-4.37854 3.24982,-7.12709 -0.94349,-2.25809 -2.773,-3.76708 -5.30521,-4.37576 -1.56031,-0.37506 -2.01298,-0.69509 -1.46352,-1.03467 0.33363,-0.20619 0.33053,-0.30042 -0.0236,-0.71659 -0.22425,-0.26354 -0.71576,-1.01495 -1.09223,-1.66979 -1.42042,-2.47069 -3.90629,-4.17593 -5.61917,-3.85459 -2.5477,0.47795 -3.33966,4.26417 -1.7129,8.18902 0.58863,1.42018 0.65895,1.4864 1.57859,1.4864 1.54673,0 3.42867,0.7844 4.53409,1.88981 0.56133,0.56133 1.0206,1.13397 1.0206,1.27252 0,0.13855 -0.59654,-0.0576 -1.32566,-0.43586 -1.0545,-0.5471 -1.67373,-0.68185 -3.02729,-0.65878 -2.1824,0.0372 -3.35178,0.53593 -4.10176,1.74943 -1.032,1.66981 -0.35907,4.16823 1.94174,7.20916 1.63218,2.15722 3.295,3.26122 4.91196,3.26122 0.67028,0 1.47419,-0.17896 1.78648,-0.3977 z m -80.24206,-9.0629 c 0.71652,-1.27235 1.94654,-3.26526 2.73336,-4.4287 l 1.43059,-2.11535 -1.67503,-0.47305 c -4.11596,-1.1624 -7.42229,-2.33186 -9.79583,-3.46483 -1.4105,-0.67327 -2.64181,-1.22414 -2.73626,-1.22414 -0.20043,0 1.40905,2.98076 2.64298,4.89479 1.54048,2.38954 4.23147,6.67803 4.96642,7.91474 0.3966,0.66737 0.81332,1.2126 0.92604,1.21164 0.11272,-9.6e-4 0.7912,-1.04275 1.50773,-2.3151 z m 51.3493,-7.33008 c 6.17165,-0.58472 12.59585,-1.70032 15.78684,-2.74147 1.49181,-0.48674 1.60295,-0.62527 2.05445,-2.56056 0.55707,-2.38784 2.75935,-4.50988 5.05743,-4.87316 1.76777,-0.27944 3.51576,0.13014 5.02806,1.17817 l 1.08437,0.75147 0.90048,-0.48494 c 1.56576,-0.84322 4.70178,-3.84473 5.9972,-5.73997 2.82442,-4.13222 3.12256,-8.94499 0.91709,-14.804377 -2.28546,-6.07188 -9.13881,-17.3704 -16.83431,-27.753228 -4.07366,-5.496203 -10.0482,-11.839006 -15.01589,-15.941433 -5.13469,-4.240346 -13.08611,-9.777732 -18.33717,-12.770044 -2.34507,-1.336336 -8.13414,-4.090258 -8.60699,-4.094442 -0.49293,-0.0044 -4.57871,1.808319 -8.0046,3.551292 -3.72343,1.89435 -6.91619,3.853024 -11.30196,6.933466 -1.60072,1.124308 -3.60958,2.330878 -4.46413,2.681267 -1.51431,0.620916 -1.5832,0.62581 -2.71653,0.192987 -1.71551,-0.655162 -2.92873,-2.442914 -3.54617,-5.225487 -0.18567,-0.836745 -0.44049,-1.521354 -0.56627,-1.521354 -0.12577,0 -1.24613,0.976792 -2.48968,2.170649 -7.24121,6.95185 -12.94492,16.955311 -14.75335,25.875183 -0.59157,2.917844 -0.99504,6.975804 -0.93917,9.445764 0.0474,2.09713 0.008,2.25206 -1.18387,4.63021 -1.85446,3.70074 -2.35824,5.9286 -2.35131,10.39798 0.005,2.92296 0.12368,4.143877 0.56494,5.789077 1.1441,4.26569 4.05016,8.95409 7.73838,12.48453 6.33308,6.06212 14.91713,9.41737 28.67592,11.20854 13.58372,1.76838 26.91562,2.20433 37.30624,1.21988 z m -30.209,-17.24467 c -1.59923,-0.56667 -3.34567,-2.21938 -4.07494,-3.85624 -0.51193,-1.14901 -0.62096,-1.83082 -0.61015,-3.81514 l 0.0132,-2.416097 -1.15113,-0.55926 c -2.31125,-1.12289 -4.29948,-3.44384 -5.24439,-6.122 -0.60844,-1.72449 -0.88659,-5.17971 -0.63578,-7.89774 0.75997,-8.23596 4.90178,-15.584657 10.28223,-18.243439 1.89641,-0.937126 2.0794,-0.97452 4.76876,-0.97452 2.61937,0 2.90532,0.05405 4.51021,0.85254 2.37813,1.183206 3.97104,2.64611 5.64161,5.181168 2.78846,4.231451 3.71753,7.569221 3.73357,13.413171 0.0106,3.88 -0.0258,4.17947 -0.6771,5.55624 -1.35195,2.85807 -3.49739,4.16227 -8.09286,4.91959 -3.04139,0.50121 -9.21179,0.35039 -12.30759,-0.30083 -1.03209,-0.2171 -1.9232,-0.34806 -1.98025,-0.29101 -0.24571,0.24571 1.30315,1.70743 2.49874,2.35816 1.86199,1.01341 4.28796,1.50777 7.42122,1.51227 3.24254,0.005 5.96617,-0.54804 8.01183,-1.6258 2.19539,-1.15664 3.22012,-2.11288 4.45578,-4.15796 1.19166,-1.97227 1.61891,-2.30396 2.41733,-1.87666 1.78492,0.95526 -0.11413,5.15836 -3.24194,7.17524 -1.47078,0.94839 -2.10556,1.27657 -3.67931,1.902177 -0.84702,0.33671 -0.96993,0.50871 -1.11386,1.55885 -0.67705,4.93961 -3.90798,8.17011 -8.12052,8.11946 -0.94589,-0.0114 -2.21697,-0.19685 -2.82463,-0.41217 z m 4.83518,-2.45213 c 1.32239,-0.60056 2.15879,-1.72168 2.64396,-3.54398 0.20146,-0.75671 0.36771,-1.46941 0.36943,-1.58378 0.004,-0.25998 -4.60695,0.0357 -5.69504,0.36526 -1.17788,0.35672 -2.77031,2.0007 -2.76007,2.84943 0.0245,2.0321 2.93027,3.05364 5.44172,1.91307 z m 5.44685,-25.467077 c 1.48524,-0.8193 1.72177,-1.53345 1.35383,-4.08749 -0.34572,-2.39972 -1.69966,-5.31071 -3.17479,-6.825833 -2.72162,-2.795408 -7.28715,-3.165744 -10.33867,-0.838629 -2.24863,1.714831 -3.75118,4.148042 -4.91393,7.957552 -0.55526,1.81917 -0.83765,4.10105 -0.50753,4.10105 0.14477,0 0.58177,-0.86321 0.9711,-1.91823 1.40602,-3.81008 2.6953,-4.92596 5.71713,-4.94823 3.00579,-0.0222 4.2458,1.07513 4.80546,4.25234 0.22128,1.25624 0.48696,1.86595 1.06495,2.44394 0.72019,0.72019 0.87131,0.76093 2.33116,0.62856 0.91121,-0.0826 2.03154,-0.40109 2.69129,-0.76503 z m 19.99258,7.86665 c -3.80552,-1.35806 -5.88031,-5.63733 -4.97191,-10.25463 0.73268,-3.72411 2.92536,-6.174912 6.14171,-6.864696 4.63257,-0.993508 8.341,3.072586 8.23583,9.030156 -0.049,2.77647 -0.83518,4.76226 -2.56661,6.48305 -1.91913,1.90733 -4.3773,2.48462 -6.83902,1.60612 z m 6.18561,-5.96531 c 0.66749,-0.66748 0.74189,-0.87002 0.49151,-1.33786 -0.16228,-0.30322 -0.46586,-0.61685 -0.67462,-0.69696 -0.57376,-0.22017 -0.45615,-0.54162 0.26433,-0.72245 1.55465,-0.39019 2.27952,-2.84236 1.36371,-4.61333 -0.72644,-1.40478 -1.84988,-1.9421 -3.82734,-1.83054 -1.55288,0.0876 -1.75858,0.17284 -2.57968,1.06881 -0.70723,0.77172 -0.89225,1.19661 -0.89225,2.04897 0,2.08859 1.08706,3.21713 3.46519,3.59741 1.10551,0.17678 1.12211,0.19374 0.55694,0.569 -0.73515,0.48812 -0.81065,2.01519 -0.11953,2.41773 0.74133,0.43178 1.11507,0.33589 1.95174,-0.50078 z m -59.73457,1.60617 c -3.03482,-0.77363 -5.12531,-3.89196 -5.11871,-7.63547 0.007,-4.02757 1.60504,-7.02683 4.57581,-8.588557 1.59481,-0.838387 4.1533,-0.822627 5.65711,0.03485 2.28998,1.30575 3.58664,3.978605 3.60547,7.43207 0.0211,3.87178 -1.17844,6.54011 -3.61819,8.04849 -1.35694,0.83893 -3.44987,1.12965 -5.10149,0.70862 z m 5.65992,-5.79169 c 0.52235,-0.6645 0.39018,-1.28943 -0.39688,-1.87664 -0.54611,-0.40744 -0.61521,-0.54494 -0.27703,-0.55124 2.96722,-0.0552 3.54814,-4.77397 0.76489,-6.213241 -1.62172,-0.838627 -4.10394,-0.313885 -5.14602,1.087874 -1.59272,2.142457 0.0313,5.058677 2.89789,5.203817 0.4939,0.025 0.89854,0.0879 0.89919,0.13968 6.5e-4,0.0518 -0.3007,0.33167 -0.66966,0.6219 -0.49226,0.38721 -0.62602,0.67909 -0.50245,1.09641 0.36162,1.2213 1.65131,1.48211 2.43007,0.49144 z m 46.10364,-20.457518 c -2.54111,-0.763162 -3.05857,-2.932889 -0.91324,-3.829263 1.26393,-0.528105 4.00763,-0.480632 5.14121,0.08896 1.76214,0.88541 2.0951,2.800072 0.60702,3.490593 -0.98119,0.455308 -3.68538,0.594972 -4.83499,0.249714 z m -46.23593,-3.407089 c -1.11919,-0.682379 -1.19825,-1.97364 -0.18301,-2.988879 1.77021,-1.770209 6.99603,-0.837468 6.99603,1.2487 0,1.824527 -4.70407,3.026037 -6.81302,1.740179 z m 92.94441,56.056354 c 1.58477,-1.49881 2.77982,-3.58448 3.46826,-6.05301 0.40135,-1.43909 0.47773,-2.71305 0.46795,-7.805207 -0.0103,-5.36556 -0.0965,-6.58618 -0.72885,-10.31875 -1.24981,-7.37739 -4.44258,-18.067823 -7.30557,-24.461349 -4.93626,-11.023497 -12.42869,-22.04351 -18.96906,-27.900077 -2.54107,-2.275388 -2.71745,-2.362443 -6.18756,-3.053925 -5.10015,-1.016296 -15.79939,-1.027423 -21.02552,-0.02187 -0.72761,0.139997 -2.33495,0.441823 -3.57188,0.670724 -2.82634,0.523031 -8.73125,2.24385 -8.73125,2.544476 0,0.124021 0.98227,0.717293 2.18282,1.318382 5.43161,2.719494 11.83479,6.755481 17.77825,11.205806 4.47493,3.350718 6.21074,4.836763 10.16776,8.70473 3.87387,3.78669 5.32339,5.457264 11.16625,12.869146 3.84344,4.875544 10.49433,15.505234 14.15429,22.621874 3.56344,6.92898 4.62631,10.20045 4.64187,14.2875 0.01,2.56876 -0.33582,4.1926 -1.36606,6.41842 -0.42979,0.92856 -0.78143,1.74123 -0.78143,1.80593 0,0.38672 3.48604,-1.74169 4.63973,-2.8328 z M 318.8486,80.701043 c -0.23179,-0.32285 -1.05917,-1.77277 -1.83862,-3.22206 -2.55697,-4.754304 -5.14225,-8.603624 -11.28116,-16.796926 -1.79291,-2.392907 -3.25709,-4.476501 -3.25374,-4.630208 0.003,-0.153707 1.29199,1.03022 2.86365,2.630949 2.76756,2.818759 6.91733,8.104871 9.34679,11.906249 2.90723,4.548946 5.67486,10.744676 4.78295,10.707306 -0.10914,-0.005 -0.38808,-0.27246 -0.61987,-0.59531 z M 198.07983,105.4479 c -1.04976,-3.02649 -1.53482,-6.647427 -1.37248,-10.245477 0.19486,-4.31887 0.75047,-6.59744 2.45932,-10.08576 1.66596,-3.40075 1.7439,-4.09997 0.73735,-6.6143 -0.82838,-2.06925 -3.11984,-4.70624 -4.72357,-5.435841 -1.26476,-0.575391 -3.27338,-0.637405 -3.97716,-0.122789 -0.48979,0.35814 -0.47029,0.44588 0.5934,2.66977 0.6049,1.2647 1.03543,2.46728 0.95672,2.6724 -0.3169,0.82581 -1.10794,0.33416 -2.22776,-1.3846 -1.69539,-2.60218 -3.05425,-3.22986 -5.12198,-2.36591 -1.04099,0.43496 -1.46801,1.10154 -1.46801,2.29159 0,0.96932 1.68761,3.14311 3.28455,4.2308 1.02105,0.69545 1.13822,0.91133 0.60556,1.11573 -0.80007,0.30702 -2.4665,-0.60791 -3.80298,-2.08797 -1.36683,-1.51369 -1.3687,-1.51466 -2.05052,-1.06791 -1.297,0.84983 -0.73553,2.26398 1.27831,3.2196 1.17475,0.55746 1.25727,1.18411 0.15592,1.18411 -0.43657,0 -0.79375,0.11563 -0.79375,0.25696 0,0.69252 1.64452,4.62633 2.76864,6.62278 1.64484,2.92126 3.32285,5.30711 6.85442,9.745857 2.26337,2.84479 6.14019,7.18689 6.41676,7.18689 0.0257,0 -0.23203,-0.80367 -0.57274,-1.78593 z m 141.01919,-7.456347 c 5.13257,-1.41995 9.7433,-4.79578 10.97508,-8.03562 0.23499,-0.61808 0.19183,-0.65539 -0.90081,-0.77854 -0.6312,-0.0712 -1.52009,-0.39457 -1.97532,-0.71872 l -0.82769,-0.58937 0.47467,-0.81274 c 0.31167,-0.53366 1.1186,-1.13951 2.34991,-1.76435 1.93185,-0.98033 2.98458,-1.71808 4.62413,-3.24056 2.47144,-2.29499 4.68266,-6.42206 4.93564,-9.212011 0.11591,-1.278201 0.042,-1.607829 -0.55937,-2.493967 -0.92029,-1.356115 -0.87407,-1.990809 0.22237,-3.053519 1.044,-1.011883 1.73052,-2.760422 1.73052,-4.407543 0,-1.371132 -0.26496,-1.573904 -1.33415,-1.021005 -0.65627,0.33937 -0.89906,0.359132 -1.21284,0.09872 -0.88387,-0.733546 -0.9296,-1.239701 -0.23574,-2.608969 1.48586,-2.932215 1.88428,-7.166541 1.02839,-10.929604 -0.42583,-1.872215 -0.68751,-2.578553 -2.04984,-5.532856 -0.38155,-0.82742 -0.69373,-1.821458 -0.69373,-2.208972 0,-1.066822 -0.73234,-2.394496 -2.21658,-4.018488 -2.36805,-2.591031 -4.93084,-4.207573 -8.49905,-5.360988 -2.21271,-0.715257 -2.40968,-0.863839 -1.86593,-1.407589 0.81203,-0.812029 4.57295,-0.839002 6.56229,-0.04706 0.87787,0.349473 0.48963,-0.574115 -0.70374,-1.674124 -3.17478,-2.926415 -9.11991,-4.220889 -14.95421,-3.256082 -1.82728,0.302176 -2.39986,0.118034 -2.39986,-0.771795 0,-0.59064 1.26148,-1.669088 2.95792,-2.52874 0.71225,-0.360922 1.2294,-0.762359 1.14922,-0.892083 -0.42696,-0.690844 -2.28841,-0.935459 -7.01756,-0.922187 -4.39555,0.01234 -5.2165,0.08894 -8.04899,0.751048 -3.74748,0.875996 -7.0057,1.992469 -9.5458,3.270997 -1.78618,0.89905 -5.4636,3.251754 -6.15813,3.939783 -0.18551,0.183775 -0.86083,0.763144 -1.50072,1.287486 -1.17047,0.959105 -3.32142,3.5435 -3.32129,3.990555 4e-5,0.132079 1.34064,1.668893 2.97911,3.415143 1.63847,1.74625 3.55417,3.924039 4.25711,4.839533 l 1.27806,1.664532 0.83605,-0.559058 c 1.59132,-1.064093 4.03943,-2.107747 6.26336,-2.670132 1.95149,-0.493491 2.71857,-0.546536 6.076,-0.420169 4.24718,0.159855 6.25234,0.575519 9.13952,1.894601 3.31915,1.516433 5.05458,3.524497 4.82284,5.580499 l -0.13149,1.166566 1.48812,0.839613 c 1.94568,1.097769 4.79331,3.864993 5.70944,5.548223 0.75621,1.38941 1.15636,3.831846 0.83655,5.106084 -0.3043,1.21243 -1.69076,2.491763 -3.36003,3.10041 -0.86105,0.313954 -1.56503,0.644168 -1.56439,0.733811 6.3e-4,0.08964 0.29578,0.996423 0.65588,2.015069 2.13445,6.037947 -0.85123,12.851582 -7.00703,15.990752 -1.7123,0.87319 -4.11175,1.60404 -5.26625,1.60404 -0.45054,0 -0.81917,0.0464 -0.81917,0.10317 0,0.0567 0.22751,1.2176 0.50559,2.57968 0.57172,2.8005 1.01316,6.26927 1.29016,10.13811 0.22933,3.20303 -0.0156,3.06473 5.21571,2.94482 2.7982,-0.0641 4.21825,-0.22712 5.80607,-0.6664 z m -11.42167,-18.16099 c 5.97894,-1.5493 9.51721,-6.0966 9.10418,-11.700472 -0.15008,-2.036216 -1.25723,-4.897898 -2.34232,-6.054269 -0.73597,-0.784308 -0.41791,-1.144066 1.01144,-1.144066 1.14616,0 3.61503,-0.584517 4.20763,-0.996176 0.66569,-0.462423 1.17487,-1.580694 1.16948,-2.568424 -0.008,-1.531624 -0.76534,-2.986039 -2.37405,-4.561316 -1.97988,-1.938728 -4.30446,-3.079068 -7.94125,-3.895629 -6.726,-1.510179 -6.8587,-1.750405 -1.24086,-2.246266 1.28076,-0.113047 2.46262,-0.339504 2.62635,-0.503237 0.46628,-0.466277 -0.44824,-1.28222 -2.56429,-2.287886 -4.22631,-2.008582 -10.18456,-2.265081 -14.90335,-0.64158 -1.59129,0.547482 -4.02382,1.993776 -4.02382,2.392412 0,0.135934 0.69241,1.284381 1.53869,2.552106 5.49837,8.236576 9.51312,17.278714 12.62419,28.432553 0.55811,2.00092 1.12469,3.63803 1.25909,3.63803 0.1344,0 0.9664,-0.1871 1.84889,-0.41578 z M 181.7024,73.173793 c 1.06107,-1.619401 3.12321,-2.615691 4.91623,-2.375196 0.89561,0.120126 1.35384,0.0041 2.46843,-0.624916 1.77196,-1.000035 3.50018,-1.250338 4.65506,-0.674209 0.47452,0.236726 0.90248,0.390704 0.95101,0.342173 0.0485,-0.04853 -0.32949,-0.912251 -0.84005,-1.919377 -1.85027,-3.649812 -2.44467,-8.186149 -1.59925,-12.205139 0.42601,-2.025159 1.28265,-4.190371 1.95335,-4.93716 0.41951,-0.46711 0.40747,-0.517834 -0.21735,-0.915883 -2.42304,-1.543613 -3.48419,-3.901481 -2.84227,-6.315518 0.58133,-2.186201 3.28305,-4.426944 6.49623,-5.387836 0.87988,-0.263124 1.22075,-0.533285 1.49201,-1.182508 0.49257,-1.178867 1.63921,-2.164961 3.1884,-2.741962 5.55448,-2.068781 13.53135,-0.903666 18.56322,2.711373 0.73905,0.530954 1.46227,0.965372 1.60715,0.965372 0.14489,0 0.5295,-0.803672 0.85469,-1.785937 1.01746,-3.073258 3.20551,-6.818381 5.65169,-9.67358 1.26853,-1.480636 1.31565,-1.593442 1.27092,-3.042708 -0.0256,-0.827786 -0.10646,-1.683659 -0.1798,-1.901941 -0.43356,-1.290414 -6.23582,-4.579685 -10.17308,-5.767063 -4.57724,-1.380382 -11.05087,-1.646799 -15.7016,-0.646187 -4.39252,0.945058 -6.04295,2.12923 -4.68296,3.360002 0.57779,0.52289 0.72439,1.585648 0.25845,1.873613 -0.1553,0.09598 -1.05642,0.02846 -2.00249,-0.150055 -3.44346,-0.649734 -8.41448,0.838453 -10.48129,3.137807 -1.40966,1.568263 -1.32437,1.821552 0.56727,1.684723 0.85771,-0.06204 1.99423,0.03068 2.52561,0.206055 1.27068,0.419363 0.96335,0.793235 -1.64132,1.996664 -5.09783,2.355342 -9.53715,7.018382 -11.2024,11.76694 -0.59444,1.695085 -0.68761,3.188607 -0.5014,8.037182 0.0353,0.920489 -0.0975,1.489235 -0.46358,1.984375 -0.98785,1.336166 -1.41143,2.442257 -1.56498,4.086627 -0.12834,1.374376 -0.0577,1.84813 0.4129,2.770666 0.446,0.874239 0.71444,1.112816 1.25211,1.112816 0.55032,0 0.64586,0.0907 0.48773,0.463021 -1.23456,2.906726 -1.37214,5.249787 -0.5048,8.596943 0.73917,2.852555 3.50539,7.873373 4.33784,7.873373 0.11819,0 0.42793,-0.32515 0.68832,-0.72255 z m 19.55159,-0.9311 c 1.35425,-6.177831 1.64509,-7.109994 3.52897,-11.310937 3.42389,-7.635095 8.65238,-14.59174 14.81872,-19.716707 l 0.87332,-0.725829 -0.57862,-0.615912 c -0.89092,-0.948342 -4.48993,-2.709488 -6.78069,-3.318074 -3.61791,-0.96117 -9.26631,-0.630008 -10.86431,0.636969 -0.51202,0.405959 0.26564,1.124068 1.63139,1.506454 1.1963,0.334944 2.79245,1.42932 2.50623,1.718366 -0.27148,0.274171 -1.009,0.251055 -3.4941,-0.109516 -3.60909,-0.523655 -6.31679,0.07969 -7.88138,1.756173 -2.15948,2.313922 -1.5517,4.714976 1.56762,6.192913 0.68483,0.324472 1.2804,0.615859 1.32348,0.647526 0.0431,0.03167 -0.27296,0.756544 -0.70232,1.610836 -2.68135,5.335017 -2.86789,11.379344 -0.52766,17.097023 0.99954,2.442085 3.23343,5.181781 4.25546,5.218987 0.10637,0.0039 0.25212,-0.26085 0.32389,-0.588272 z m 29.02614,-26.45119 c 0.77705,-0.614536 2.78204,-2.021557 4.45553,-3.126713 10.57385,-6.982871 22.95286,-11.99246 33.60208,-13.598234 10.80105,-1.628667 21.8342,-1.11864 28.065,1.297357 0.29066,0.112705 1.00248,-0.48816 2.36207,-1.993881 2.25478,-2.497127 2.2518,-2.572826 -0.15259,-3.870669 -3.42711,-1.84989 -8.03877,-3.32402 -13.20885,-4.222251 -3.57685,-0.621428 -12.85411,-0.62447 -16.74693,-0.0055 -13.67593,2.174548 -24.82131,7.444308 -33.57361,15.874281 -1.80149,1.735147 -2.85604,2.568497 -3.12141,2.466667 -1.57632,-0.604893 2.16317,-5.721507 6.93872,-9.493993 4.38465,-3.463688 10.44009,-6.651442 16.86989,-8.880785 10.15962,-3.522545 23.09411,-4.516247 33.02893,-2.537476 1.13997,0.227054 2.13502,0.350485 2.21121,0.274291 0.17621,-0.176207 -1.24066,-2.668482 -2.87932,-5.064722 -1.63025,-2.383945 -5.37865,-6.1468588 -7.75002,-7.7800378 -5.92914,-4.083418 -13.48421,-5.144249 -21.97524,-3.085608 -10.74764,2.605751 -20.10448,9.4513958 -23.81678,17.4248048 -0.97085,2.085234 -0.79305,2.226983 0.87445,0.697161 1.63877,-1.503451 6.5092,-5.171727 8.67289,-6.532178 2.57816,-1.621051 7.79743,-3.8003578 7.79743,-3.255817 0,0.112086 -1.02498,0.84663 -2.27773,1.632318 -5.99165,3.757793 -11.836,8.816981 -15.78488,13.664236 -5.86507,7.199391 -8.29197,12.810251 -7.74601,17.908363 0.37195,3.473191 1.6781,4.16738 4.15517,2.208378 z"
       id="path4" /></g></svg>
