<?xml version="1.0" encoding="UTF-8" standalone="no"?>
<!-- Created with Inkscape (http://www.inkscape.org/) -->

<svg
   width="521.3205mm"
   height="606.27863mm"
   viewBox="0 0 521.3205 606.27863"
   version="1.1"
   id="svg1"
   xml:space="preserve"
   xmlns="http://www.w3.org/2000/svg"
   xmlns:svg="http://www.w3.org/2000/svg"><defs
     id="defs1" /><g
     id="layer1"
     transform="translate(695.58898,190.14651)"><path
       style="fill:#000000"
       d="m -582.09438,415.84307 c -26.86743,-2.45127 -44.75225,-11.1934 -46.30711,-22.635 -0.30745,-2.26237 -0.0513,-4.1521 0.78507,-5.79149 0.72146,-1.41419 1.75472,-2.09294 3.3387,-2.19321 l 1.30521,-0.0826 -1.98437,-0.4598 c -1.09141,-0.25288 -4.42516,-0.87954 -7.40833,-1.39257 -13.59516,-2.33799 -21.67424,-4.26006 -31.35313,-7.45912 -18.17093,-6.00584 -29.41206,-13.71404 -31.51449,-21.60994 -0.73883,-2.77477 -0.34989,-5.26186 1.37089,-8.76607 4.77751,-9.72894 19.4633,-21.53866 40.19777,-32.32543 9.53465,-4.96025 25.94141,-12.25686 27.56011,-12.25686 0.22232,0 1.84527,-0.6102 3.60656,-1.356 7.57598,-3.20797 20.0336,-7.16177 37.88958,-12.02539 4.65666,-1.26838 8.54884,-2.3781 8.64927,-2.46603 0.10044,-0.0879 0.71538,-2.1244 1.36653,-4.5255 2.59006,-9.55064 6.25962,-17.20819 11.1825,-23.33536 0.85625,-1.06571 1.42357,-2.03136 1.42357,-2.42308 0,-0.35818 -0.41162,-3.48993 -0.9147,-6.95942 -1.43171,-9.87366 -1.55051,-12.9072 -1.55259,-39.64568 -0.002,-24.28537 0.26681,-35.72433 1.02857,-43.78854 0.97026,-10.27127 2.97619,-25.4925 4.78238,-36.28917 0.67327,-4.02451 1.14907,-7.61632 1.05734,-7.98179 -0.23075,-0.9194 -1.68256,-1.74164 -3.62851,-2.05503 -2.93949,-0.47339 -10.51961,-3.47079 -15.19228,-6.00747 -2.27477,-1.23492 -5.9212,-3.90347 -8.88076,-6.49915 -7.36973,-6.463638 -13.35108,-16.362426 -15.21057,-25.172595 -0.60838,-2.88248 -0.62752,-8.191092 -0.0373,-10.344944 1.0669,-3.893325 2.76727,-6.397965 6.04877,-8.9098 2.62943,-2.012707 4.34655,-2.747783 7.29809,-3.124221 2.92871,-0.373526 6.31481,-0.0304 8.87128,0.898948 3.538,1.286167 7.91112,5.121077 9.24569,8.107802 0.4253,0.951802 0.90554,1.968673 1.06719,2.259715 0.78698,1.416885 1.04382,2.123027 1.9291,5.303754 1.74538,6.270991 3.00036,10.0305 3.71488,11.128575 0.90751,1.394664 4.12689,3.575834 6.82324,4.622828 2.54695,0.98899 3.53164,0.9489 4.18257,-0.17028 0.25941,-0.446025 1.31377,-3.779775 2.34302,-7.408333 7.062,-24.896608 12.57707,-39.592308 21.69997,-57.822642 5.33676,-10.664471 13.3739,-22.8742781 21.31625,-32.3830686 5.12006,-6.1298674 15.03692,-15.7951664 20.04654,-19.5380184 4.95949,-3.705398 16.21526,-10.438213 19.7059,-11.787393 1.11071,-0.429305 2.85291,-1.157071 3.87156,-1.617257 6.40647,-2.894207 17.79856,-6.269418 26.32604,-7.799789 5.22073,-0.936931 7.67292,-1.477254 7.67292,-1.690677 0,-0.09844 -0.84402,-1.009218 -1.8756,-2.023962 -7.18148,-7.064269 -13.12339,-18.238651 -15.33832,-28.845291 -1.0855,-5.198105 -1.25306,-16.297912 -0.35528,-23.535111 0.6064,-4.88839 2.84476,-10.92739 6.12925,-16.53646 2.52167,-4.30637 6.44029,-7.56066 11.34568,-9.42222 1.58088,-0.59993 2.08613,-0.67045 3.93072,-0.54867 3.60312,0.2379 7.54736,1.90829 12.74541,5.39769 1.62571,1.09132 3.07348,1.91151 3.21728,1.82264 0.14379,-0.0889 0.40189,-1.02439 0.57356,-2.07895 1.89993,-11.67138 3.54368,-15.60151 9.20358,-22.00527 2.46779,-2.79212 3.29835,-4.22817 4.94548,-8.55084 2.52573,-6.62844 5.60404,-11.97372 9.7151,-16.86959 8.37316,-9.97162 19.72549,-16.39819 29.97876,-16.97099 3.83483,-0.21423 6.52205,0.31176 9.90402,1.93862 4.57531,2.20091 8.33289,6.73553 10.19523,12.30354 1.26591,3.7848 1.99366,7.39858 2.21086,10.97841 l 0.17947,2.95791 3.57188,-3.18012 c 7.46149,-6.64312 15.24765,-11.83487 23.41562,-15.61335 7.7512,-3.58568 13.89829,-5.07172 22.42078,-5.42015 8.8822,-0.36314 13.3024,0.96179 17.79248,5.33321 4.16449,4.05444 6.87691,9.69875 8.20102,17.06563 0.68276,3.7986 0.82191,11.27748 0.28553,15.34583 -1.17719,8.92867 -3.99903,18.59927 -7.39373,25.33874 -1.47375,2.9258 -2.07004,4.55359 -1.68086,4.58847 0.84497,0.0757 1.91244,-0.1491 5.22166,-1.09966 9.5953,-2.7562 16.45895,-3.75525 29.15114,-4.24313 8.32935,-0.32017 16.4272,-0.0487 20.72282,0.6948 1.30969,0.22668 3.75047,0.89546 5.42396,1.48618 1.67349,0.59072 4.01331,1.41054 5.1996,1.82181 1.1863,0.41127 2.9127,1.12539 3.83646,1.58694 4.85849,2.42751 11.44914,8.88976 13.57585,13.3114 1.62311,3.37457 2.08183,5.575821 2.07566,9.960287 -0.006,4.445035 -0.5798,7.134185 -2.46034,11.535719 -2.30772,5.401374 -5.40086,9.753626 -10.70902,15.068305 -5.21823,5.224643 -11.03859,9.492077 -17.65556,12.944887 -10.65123,5.55794 -20.34449,8.361279 -32.88869,9.511568 -2.32834,0.213505 -4.60974,0.521617 -5.06979,0.684693 -0.50669,0.179605 -1.11649,0.73285 -1.54673,1.403269 -0.39065,0.608722 -1.79273,2.143029 -3.11574,3.409572 l -2.40547,2.302805 2.23241,0.996464 c 8.82073,3.937252 14.39605,7.151089 17.154,9.888249 6.30215,6.254645 8.89252,11.846799 8.35387,18.0344806 -0.3966,4.5558424 -2.49144,8.43150502 -6.72084,12.4341943 -5.66974,5.365838 -13.03853,9.1626991 -23.20931,11.9588961 -8.87789,2.440749 -12.70434,2.827696 -29.59324,2.992588 -7.42156,0.07246 -13.64856,0.216575 -13.83778,0.320257 -0.25506,0.139763 0.36787,1.620768 2.40877,5.726804 2.94184,5.918628 4.8054,10.284168 4.55977,10.681614 -0.083,0.134234 0.12544,0.54218 0.46313,0.906546 0.73182,0.789654 2.04795,4.439187 2.04358,5.666739 -0.002,0.47778 0.31072,1.487973 0.69427,2.244873 1.3089,2.582991 3.45439,12.715414 4.3829,20.698935 0.44491,3.825453 0.4443,18.307603 -9.4e-4,22.357292 -2.03758,18.532823 -7.07636,35.362623 -15.68785,52.398263 -3.21367,6.35742 -6.81819,12.4188 -11.49215,19.32523 -1.96015,2.8964 -3.56391,5.42724 -3.56391,5.62408 0,0.19685 0.25131,0.58472 0.55847,0.86194 0.50513,0.45588 0.97903,0.50119 4.96094,0.47437 4.84817,-0.0327 6.862,-0.34117 8.9925,-1.37763 2.04186,-0.99333 3.4511,-2.34725 5.34345,-5.13368 3.28246,-4.83334 5.99806,-8.04203 8.52106,-10.0683 1.80854,-1.45247 5.68766,-3.40296 8.00379,-4.02443 2.22161,-0.59612 6.52345,-0.80651 8.4186,-0.41175 3.14639,0.65542 8.43773,3.8865 9.0439,5.52254 0.14552,0.39276 0.54141,0.98916 0.87974,1.32533 0.85408,0.84862 2.34261,4.04723 2.71241,5.82855 0.47387,2.28262 0.17719,6.37281 -0.64543,8.89819 -3.8729,11.88956 -17.41081,23.17881 -32.32683,26.9573 -4.98993,1.26404 -7.58637,1.58126 -12.95322,1.58257 -7.66516,0.002 -12.96341,-0.95063 -20.76979,-3.73392 -5.17707,-1.84584 -5.95426,-1.95374 -7.10405,-0.98625 -0.47409,0.39892 -1.35147,1.45346 -1.94972,2.34343 -3.82899,5.696 -19.75533,22.68847 -32.94633,35.1518 -3.09093,2.92042 -5.9722,5.52412 -6.40281,5.78599 -0.43061,0.26187 -2.06885,1.70972 -3.64053,3.21743 -1.57169,1.50771 -3.75058,3.40913 -4.84198,4.22538 -4.4239,3.30856 -9.54423,7.74802 -10.09288,8.75079 -0.68268,1.24773 1.21269,1.74484 4.33567,1.13714 2.98118,-0.5801 11.34415,-1.63409 18.06033,-2.27615 9.23218,-0.88258 34.81629,-0.71312 42.73021,0.28304 4.36321,0.54921 6.4433,1.03018 7.43876,1.72004 0.53229,0.36887 1.67861,0.8859 2.54739,1.14894 3.55224,1.07554 7.56908,3.93389 10.86307,7.73009 1.44877,1.66965 2.33826,3.05617 3.62592,5.65197 3.47325,7.00176 3.74238,10.19947 1.70073,20.20731 -0.86528,4.24142 -0.94587,5.38368 -0.41118,5.82744 0.55181,0.45795 1.52937,-0.0188 3.97326,-1.93783 6.3923,-5.01939 11.78001,-11.99226 12.59776,-16.30424 0.14343,-0.75627 0.74721,-2.52135 1.34174,-3.9224 1.44844,-3.41334 5.69394,-11.67306 7.16855,-13.94659 1.53153,-2.36126 3.74772,-4.77208 4.95548,-5.39067 0.52341,-0.26808 1.76989,-1.21096 2.76995,-2.09528 3.5496,-3.13881 9.69141,-5.78094 27.55045,-11.85185 15.73464,-5.34875 17.84183,-6.46914 20.42175,-10.85819 0.70822,-1.20486 0.74417,-1.42369 0.72966,-4.44229 -0.0173,-3.58943 -0.44738,-5.63717 -1.75066,-8.33437 -1.58066,-3.27124 -5.75153,-6.6218 -10.48533,-8.42311 -1.68232,-0.64016 -2.03853,-0.67441 -7.06334,-0.6791 -5.86613,-0.005 -9.02315,0.44705 -13.36771,1.91612 -4.88128,1.65057 -10.85893,4.96743 -15.39172,8.54052 -3.87806,3.05698 -9.88044,9.19966 -11.16682,11.42783 -1.14343,1.98058 -1.39273,2.22855 -1.81545,1.80583 -0.20801,-0.20801 -0.0912,-1.41857 0.41937,-4.34688 1.63311,-9.36616 1.21619,-12.45896 -2.23921,-16.61104 l -1.3733,-1.65019 -6.69594,0.16713 c -9.57226,0.23891 -11.65535,0.71319 -19.98301,4.54976 -8.10676,3.7348 -18.00679,10.06448 -25.84863,16.52657 -2.67204,2.2019 -4.89463,3.96707 -4.9391,3.92261 -0.0445,-0.0445 0.0267,-0.65627 0.15805,-1.35958 0.27485,-1.47117 -0.0171,-3.11642 -0.83895,-4.72731 -0.30607,-0.59996 -0.47958,-1.31318 -0.39676,-1.63093 0.081,-0.31058 0.87731,-1.16 1.76968,-1.88761 4.56921,-3.72556 7.40807,-8.02088 7.60504,-11.50676 0.09,-1.59366 0.0132,-1.97394 -0.64213,-3.17802 -0.40944,-0.75227 -1.61529,-2.3135 -2.67968,-3.46941 -2.2134,-2.40371 -2.21111,-2.30044 -0.0993,-4.49137 0.71674,-0.7436 1.48923,-1.29923 1.80634,-1.29923 0.65096,0 2.66413,1.5419 4.19945,3.21638 2.31716,2.5272 3.50127,5.32091 3.82693,9.02904 0.12502,1.42348 0.29781,2.70221 0.38398,2.84164 0.19595,0.31705 2.05396,-0.6152 5.62316,-2.82139 5.05671,-3.12565 10.69262,-5.66396 17.45372,-7.86084 10.66005,-3.46376 17.58821,-3.16569 23.89658,1.02811 2.1776,1.44767 3.57445,2.99564 5.41408,5.99984 0.73767,1.20463 1.52556,2.22574 1.75089,2.26913 0.22532,0.0434 2.57874,-1.35191 5.22982,-3.10068 7.14688,-4.71441 12.01924,-6.97239 18.68025,-8.65691 3.25803,-0.82394 9.53955,-1.12739 13.21433,-0.63837 4.02656,0.53584 8.72842,2.25322 11.71868,4.28033 4.95702,3.36037 8.84452,8.8056 9.98692,13.98867 1.63668,7.42567 -0.02,13.35894 -5.00296,17.9174 -2.78353,2.54642 -5.9055,4.19633 -12.85135,6.79171 -0.65484,0.24469 -1.41915,0.61836 -1.69846,0.83038 -0.49063,0.37242 -0.49161,0.40341 -0.0291,0.91453 0.26333,0.29098 1.11869,0.8902 1.9008,1.33159 3.17988,1.79461 6.79207,5.98589 8.56563,9.93883 0.44974,1.00239 0.85699,1.8618 0.905,1.90981 0.048,0.048 1.12636,-0.50851 2.39634,-1.2367 3.84962,-2.20733 8.72997,-3.75669 15.21182,-4.82928 12.89128,-2.1332 24.27317,3.39624 29.27503,14.22211 1.70019,3.67983 2.04588,5.48308 2.04872,10.68675 0.002,4.29578 -0.0499,4.80221 -0.72265,7.01146 -1.72131,5.65217 -5.04604,10.84239 -10.0025,15.61485 -6.033,5.80903 -14.20562,10.01941 -30.25589,15.58727 -21.43524,7.43592 -24.98434,9.27817 -28.58044,14.83538 -8.64637,13.36165 -25.82775,25.5032 -53.17581,37.57771 -17.80007,7.85896 -28.67012,11.46395 -43.92083,14.56611 -10.17937,2.0706 -16.01662,2.74057 -34.69592,3.98226 l -11.077,0.73633 -5.95312,2.88222 c -17.01159,8.23618 -29.30843,12.95799 -45.37605,17.42372 -7.48152,2.07936 -17.76651,4.36561 -25.92916,5.76379 -3.92196,0.67179 -9.11184,0.85397 -30.42709,1.06808 -24.81191,0.24923 -24.84383,0.25116 -32.74149,1.97431 -5.83423,1.27295 -14.20025,2.44287 -22.9533,3.20984 -6.66235,0.58378 -26.66639,0.74339 -32.01458,0.25545 z m 26.45833,-7.03858 c 7.73563,-0.4339 13.97695,-1.13926 22.2898,-2.51906 5.3067,-0.88082 6.60098,-1.13953 11.21703,-2.24212 3.56425,-0.85136 7.78161,-1.04159 28.93484,-1.30512 28.90379,-0.36008 31.39556,-0.61005 48.81562,-4.89716 15.6765,-3.85802 35.37099,-11.11312 49.74102,-18.32371 6.86658,-3.44551 9.72654,-4.00711 24.6069,-4.83191 10.74819,-0.59577 19.01536,-1.60743 28.04583,-3.432 19.78973,-3.99843 38.34704,-10.89627 58.73751,-21.83298 15.87362,-8.51405 27.36379,-17.6401 32.95746,-26.17643 2.71679,-4.146 3.51747,-5.20353 4.89349,-6.46329 1.52474,-1.39591 5.75417,-3.57512 12.02301,-6.19483 4.29421,-1.79453 5.34644,-2.18523 15.875,-5.89442 11.48085,-4.04469 18.11656,-6.89687 22.14921,-9.52024 3.8339,-2.49408 10.77132,-9.87884 12.04179,-12.81827 0.2837,-0.6564 0.85608,-2.20548 1.27194,-3.44241 3.64747,-10.84887 -1.41352,-20.54232 -12.3119,-23.58134 -1.8072,-0.50393 -2.73561,-0.58704 -6.35,-0.56842 -8.72099,0.0449 -14.29393,1.55498 -20.76979,5.62783 -3.2407,2.03816 -5.21135,3.1761 -5.50028,3.1761 -0.13852,0 -0.57528,-1.33945 -0.97057,-2.97656 -1.95247,-8.08622 -6.41789,-13.10547 -13.24061,-14.88276 -1.82598,-0.47566 -6.68058,-0.56091 -8.77889,-0.15416 -10.86476,2.1061 -19.9142,7.78269 -25.34222,15.89681 -1.41757,2.11908 -5.49232,9.40009 -7.55164,13.49375 -1.76048,3.49959 -4.16806,7.25561 -6.35986,9.92188 -2.10139,2.5563 -15.06377,15.32981 -18.77469,18.50115 -3.96717,3.39034 -8.8994,7.0674 -12.30928,9.17681 l -2.72822,1.68772 -0.088,8.33591 -0.088,8.33591 -0.99654,2.08715 c -1.5614,3.27018 -4.84927,7.4955 -6.87635,8.83696 -0.85996,0.5691 -1.12006,0.63174 -1.53837,0.3705 -0.70683,-0.44143 -0.91535,-0.40425 -2.08899,0.37242 -0.97522,0.64537 -1.07432,0.6613 -1.64176,0.26384 -0.40833,-0.286 -0.88439,-0.37037 -1.47001,-0.2605 -1.4417,0.27046 -1.10142,-0.48259 1.74658,-3.86516 4.47215,-5.31159 6.22842,-9.93641 6.22945,-16.40417 5.7e-4,-3.54931 -0.34295,-5.48613 -1.31396,-7.40833 -1.34512,-2.6628 -3.48897,-3.96105 -6.86672,-4.15831 -3.66078,-0.21378 -4.8074,0.78443 -8.72757,7.59789 -2.50597,4.35553 -3.80891,6.21624 -6.76027,9.65429 -4.2167,4.91205 -9.69718,9.5434 -16.92361,14.3015 -6.14334,4.04496 -10.33565,6.33985 -21.16811,11.58753 -4.80215,2.32636 -6.79104,3.72216 -7.53567,5.28851 -1.80267,3.79195 -6.79833,7.50855 -12.78202,9.50939 -4.5504,1.52157 -8.39465,1.45946 -5.76324,-0.0931 0.72969,-0.43052 0.94695,-0.72962 0.94695,-1.30363 0,-0.614 0.24414,-0.89475 1.38906,-1.59739 1.63172,-1.00139 6.26079,-4.78043 7.64734,-6.24306 4.25698,-4.49057 4.85822,-10.9979 1.44459,-15.63498 -3.76183,-5.11009 -11.52893,-6.45148 -20.31391,-3.50824 -5.05494,1.69356 -7.6622,3.42015 -13.71096,9.07972 -1.81679,1.6999 -3.39437,3.09072 -3.50573,3.09072 -0.33533,0 -0.23611,-0.52518 0.49613,-2.62594 1.04422,-2.99581 1.00606,-5.21285 -0.12943,-7.51935 -1.98422,-4.03053 -6.76217,-5.77331 -12.49576,-4.55789 -5.3769,1.13981 -11.60916,5.70632 -23.54062,17.24869 -12.36604,11.96278 -19.78423,17.67119 -29.1074,22.39857 -7.5385,3.82244 -11.78959,4.9919 -10.03429,2.76039 1.37984,-1.75418 0.23061,-1.60506 -4.44955,0.57735 -3.6099,1.68333 -6.69896,2.7176 -10.00723,3.35057 -3.38097,0.64689 -11.73689,1.67595 -16.19129,1.99402 -5.65912,0.40409 -40.5586,0.3776 -56.69937,-0.043 -12.57467,-0.32771 -12.88338,-0.3237 -13.74304,0.17837 -1.1356,0.66322 -1.40793,1.69662 -1.22342,4.64249 0.17298,2.76193 0.70329,3.93543 2.74637,6.07739 6.13106,6.42778 19.31816,9.95581 43.86914,11.73661 8.97122,0.65073 9.19302,0.65218 18.65312,0.12155 z m 17.72709,-29.07714 c 3.27421,-0.16046 7.32234,-0.46454 8.99583,-0.67573 1.67349,-0.2112 4.76911,-0.51187 6.87917,-0.66817 6.0418,-0.44753 7.34938,-0.89973 12.43541,-4.3005 3.45278,-2.3087 5.01168,-3.45654 7.46646,-5.49764 1.83812,-1.52837 3.50789,-3.38236 3.26501,-3.62524 -0.0626,-0.0626 -0.68711,0.075 -1.38777,0.30571 -2.91534,0.96016 -11.87331,2.43791 -19.39786,3.19997 -2.25558,0.22843 -6.12511,0.6467 -8.59896,0.92949 -16.24188,1.85662 -30.66244,2.64719 -48.28646,2.64719 -35.78344,0 -63.57175,-3.63914 -86.25417,-11.29579 -8.3156,-2.80701 -13.61103,-5.17055 -20.66315,-9.22271 -1.93269,-1.11053 -3.89454,-2.0809 -4.35968,-2.15638 -0.7832,-0.12709 -0.86946,-0.0652 -1.16729,0.83722 -0.60021,1.81865 0.39665,4.38278 2.6716,6.87194 3.04955,3.3367 8.90546,6.90818 15.90658,9.70131 11.64061,4.64408 31.65985,9.96702 40.68486,10.81775 1.67349,0.15775 5.30489,0.5763 8.06979,0.93012 8.65058,1.10699 9.95792,1.2474 13.62604,1.46342 5.13179,0.30223 63.01498,0.086 70.11459,-0.26196 z m -16.80105,-12.44382 c 13.20877,-0.48984 15.86257,-0.70572 30.69167,-2.49669 5.92861,-0.71602 14.03849,-1.8205 21.5417,-2.93374 5.45495,-0.80935 6.01347,-0.79637 5.88118,0.13661 -0.0516,0.3638 -0.26301,0.98888 -0.46982,1.38906 -0.5446,1.0538 -0.17939,0.89474 0.98632,-0.42957 0.56022,-0.63645 1.44608,-1.36004 1.96859,-1.60798 1.43437,-0.68066 4.01146,-3.00321 11.32868,-10.2098 8.91567,-8.78086 12.73443,-12.05132 17.70239,-15.16066 4.78399,-2.9942 8.75145,-4.20782 13.82138,-4.22787 5.51256,-0.0218 7.91088,0.9792 12.42377,5.18536 l 2.10502,1.96195 3.71581,-1.80104 c 9.70488,-4.7039 15.52471,-5.62368 23.07323,-3.64654 2.72431,0.71357 4.7817,1.60636 5.93819,2.57683 0.56715,0.47593 2.05105,2.6322 3.65972,5.31797 2.71225,4.52829 4.63779,7.18731 5.56347,7.68271 0.70591,0.3778 2.13458,0.0279 2.35859,-0.57767 0.12008,-0.32459 0.83221,-0.73274 1.97555,-1.13226 4.89123,-1.70913 23.25899,-12.59558 27.6578,-16.39259 0.78278,-0.67568 1.83476,-1.40047 2.33773,-1.61062 1.12792,-0.47128 6.66354,-6.03055 7.25114,-7.28212 0.23583,-0.50231 0.76418,-1.96851 1.17412,-3.25823 0.40993,-1.28972 1.62286,-4.13211 2.69539,-6.31642 1.52786,-3.11164 2.24747,-4.26851 3.3238,-5.34342 1.65272,-1.65054 3.61462,-2.65614 6.2748,-3.21624 3.3845,-0.71261 5.53366,-0.16467 8.69379,2.21656 1.12507,0.84777 3.25983,2.16511 4.74391,2.92743 l 2.69832,1.38603 3.93883,-3.1863 c 5.42788,-4.39085 9.1614,-7.82498 11.15312,-10.25873 l 1.68398,-2.05771 -2.95593,2.83427 c -3.45521,3.31303 -5.01925,4.45752 -5.35317,3.91723 -0.28993,-0.46913 -0.11846,-0.87632 1.95178,-4.63484 2.45116,-4.45007 3.95305,-7.95231 3.75264,-8.75078 -0.30466,-1.21388 -1.25628,-0.81929 -3.83882,1.59175 -5.85277,5.4641 -11.73762,9.76189 -14.12047,10.31239 -0.5693,0.13152 -0.70658,0.28516 -0.58817,0.65824 0.22135,0.69742 -1.36831,2.00618 -3.09967,2.55194 -1.30175,0.41035 -1.50125,0.41159 -2.66474,0.0166 -0.69171,-0.23484 -1.84178,-0.42698 -2.55571,-0.42698 -1.49787,0 -1.85324,-0.30094 -0.93543,-0.79214 0.41371,-0.2214 1.14025,-0.29112 2.05256,-0.19697 0.77669,0.0802 1.61555,0.0319 1.86413,-0.10717 0.54964,-0.3076 0.59903,-1.02039 0.0707,-1.02039 -0.63332,0 -0.7579,-0.53047 -0.25507,-1.0861 0.26061,-0.28797 2.38564,-1.82297 4.72227,-3.4111 5.32459,-3.61895 9.09028,-6.62554 12.97126,-10.35649 3.51087,-3.37515 5.2786,-5.64621 6.6808,-8.58303 0.8628,-1.80708 1.00054,-2.35054 1.00054,-3.94765 0,-1.63438 -0.13172,-2.12625 -1.12055,-4.18441 -4.20898,-8.76063 -10.69048,-13.2537 -21.63362,-14.99675 -12.3992,-1.97497 -36.57806,-1.30437 -54.05338,1.49919 -6.25996,1.00428 -6.58302,1.43403 -4.41953,5.87914 0.65484,1.34545 1.19062,2.6011 1.19062,2.79032 0,0.18923 0.72167,2.15041 1.6037,4.35818 0.88204,2.20778 1.72271,4.69396 1.86816,5.52486 0.14545,0.83089 0.45309,2.28462 0.68366,3.23051 0.53636,2.20046 0.82652,20.01591 0.38436,23.59977 -0.72527,5.87856 -4.05537,12.33302 -7.92926,15.36864 -4.6097,3.61221 -8.71025,3.96558 -13.13935,1.13232 -2.34425,-1.49959 -3.40748,-3.36801 -4.37564,-7.68927 -0.32604,-1.45521 -0.81918,-3.09363 -1.09587,-3.64094 -0.6309,-1.24795 -0.91211,-3.45667 -1.27129,-9.98511 -0.56421,-10.25523 -0.83671,-14.09469 -1.10483,-15.56673 -0.27417,-1.50521 -3.4894,-11.64825 -3.98724,-12.57848 -0.58885,-1.10027 -3.497,-0.1187 -8.59847,2.90219 -1.833,1.08543 -4.70781,2.6804 -9.73689,5.4021 -3.20619,1.73517 -19.93442,10.04775 -22.85487,11.35703 -1.65612,0.74246 -3.56112,1.48489 -4.23334,1.64983 -0.67221,0.16495 -1.51986,0.50553 -1.88366,0.75684 -1.39142,0.9612 -8.77181,3.82428 -18.52083,7.18482 -3.88613,1.33956 -14.14023,3.9685 -18.84902,4.83249 -10.94457,2.00816 -19.77983,2.22713 -27.30729,0.6768 -3.02328,-0.62267 -3.72899,-0.89475 -4.45575,-1.7179 -0.42336,-0.47951 -1.25488,-0.83423 -3.01182,-1.28481 -2.60578,-0.66827 -4.85341,-1.89825 -5.59119,-3.0597 -0.54193,-0.85312 -0.843,-1.07443 -1.46873,-1.07959 -0.2701,-0.002 -0.72833,-0.30565 -1.01829,-0.67428 -0.28996,-0.36863 -1.10248,-0.96174 -1.80559,-1.31804 l -1.27838,-0.6478 -0.14002,1.38418 c -0.077,0.7613 -0.3216,3.7059 -0.54354,6.54355 -0.91339,11.6784 -2.73532,17.21442 -6.98461,21.22298 -2.23768,2.11092 -3.96169,2.85563 -6.59997,2.85097 -3.35521,-0.006 -6.07707,-1.08222 -8.56727,-3.3877 -1.26463,-1.17083 -1.87326,-2.03987 -2.98718,-4.26531 -3.09015,-6.17364 -3.56429,-8.32981 -3.83368,-17.43362 -0.16064,-5.42916 -0.2884,-7.0481 -0.57911,-7.33881 -0.41199,-0.41199 0.22524,-0.55508 -9.09211,2.04164 -26.57367,7.40599 -44.31969,14.06077 -62.97083,23.61413 -11.60742,5.94548 -18.11322,9.98168 -25.26771,15.67612 -6.4335,5.12058 -9.85344,9.14281 -9.37946,11.03129 0.853,3.39864 16.48554,10.19426 33.58884,14.60138 15.5204,3.99926 24.75243,5.27217 56.48854,7.78863 3.61812,0.28689 29.1604,0.12196 39.29062,-0.25371 z m 153.67115,-31.21134 c -1.18336,-0.72155 -1.82819,-1.74881 -1.4123,-2.24992 0.17507,-0.21096 1.82627,-0.97694 3.66932,-1.7022 8.2333,-3.23988 15.71857,-5.58453 17.82858,-5.58453 1.08036,0 1.26513,-0.0758 1.26513,-0.51885 0,-0.82904 0.91388,-1.4696 4.19774,-2.94229 2.93655,-1.31692 9.76957,-4.47994 19.4286,-8.99353 3.58666,-1.67601 4.47376,-1.99926 4.59802,-1.67546 0.24173,0.62995 -0.13952,2.80057 -0.57676,3.28371 -0.21753,0.24038 -0.39552,0.73216 -0.39552,1.09284 0,0.54934 -0.28992,0.7937 -1.78594,1.50527 -0.98226,0.46721 -2.38125,1.20112 -3.10885,1.6309 -0.7276,0.42979 -2.45401,1.2151 -3.83646,1.74514 -1.38245,0.53004 -3.70416,1.55951 -5.15937,2.28771 -3.44286,1.72284 -11.12769,4.74942 -23.68021,9.32618 -3.86269,1.40837 -9.60565,3.3134 -9.98313,3.31156 -0.11183,-5.4e-4 -0.58381,-0.23298 -1.04885,-0.51653 z m 3.2128,-1.84113 c 0.0823,-0.13309 -1e-5,-0.29231 -0.18282,-0.35381 -0.49139,-0.16533 -1.27502,0.0903 -1.10754,0.36129 0.19002,0.30745 1.09898,0.30218 1.29036,-0.007 z m -161.70067,-16.27877 c 0.55437,-0.26732 1.36137,-1.00344 1.80173,-1.64349 1.70504,-2.47819 2.44049,-5.94098 3.02591,-14.24721 0.48076,-6.82137 0.7501,-9.10061 1.58817,-13.43967 0.37475,-1.94022 0.57892,-3.69096 0.47827,-4.10104 -0.0966,-0.39355 -0.57164,-1.58898 -1.05565,-2.6565 -0.48402,-1.06753 -2.02358,-5.23472 -3.42127,-9.26042 -1.39768,-4.0257 -2.65638,-7.43852 -2.7971,-7.58404 -0.41119,-0.4252 -1.14163,0.71395 -3.39308,5.29167 -3.77596,7.67741 -5.33617,12.80164 -6.23353,20.47293 -0.4592,3.9256 -0.51108,12.12716 -0.0981,15.5104 0.78349,6.41875 2.78123,10.98064 5.2641,12.02069 0.96034,0.40228 3.67548,0.19849 4.84057,-0.36332 z m 163.2061,-6.13869 c 1.29578,-0.58151 1.73438,-0.9637 2.60901,-2.27346 1.26165,-1.88935 2.2144,-4.77924 2.98892,-9.06605 0.7731,-4.27898 0.83307,-15.3092 0.1079,-19.84375 -0.97542,-6.09933 -2.85266,-12.62001 -4.69564,-16.3105 -1.55399,-3.11181 -3.79312,-6.82769 -4.85149,-8.05114 l -0.89825,-1.03836 -1.15408,0.56553 c -1.5073,0.73862 -6.73137,4.42074 -8.26994,5.82896 l -1.20491,1.10283 0.49069,1.41071 c 0.26988,0.7759 1.2944,3.37525 2.27672,5.77634 3.12903,7.6484 3.61411,10.4519 4.09728,23.68021 0.48543,13.29005 0.78822,14.8734 3.37267,17.63639 1.08849,1.16368 1.30755,1.28132 2.38601,1.28132 0.71423,0 1.80825,-0.27859 2.74511,-0.69903 z M -508.8048,296.39025 c 9.10519,-1.37835 23.47623,-5.01923 31.57624,-7.9998 6.03775,-2.22171 15.58129,-6.42919 16.97745,-7.48487 0.43802,-0.3312 1.20466,-0.69185 1.70366,-0.80145 3.61187,-0.7933 20.19123,-9.38677 32.42494,-16.80662 8.50227,-5.15669 15.41372,-10.01921 20.37292,-14.33326 1.01865,-0.88613 2.62599,-2.11953 3.57188,-2.74088 0.94588,-0.62136 2.06368,-1.49206 2.48399,-1.93489 0.4203,-0.44284 1.49187,-1.23356 2.38125,-1.75717 2.03781,-1.19972 6.47655,-4.75243 13.55455,-10.84889 3.0411,-2.61938 6.23856,-5.35781 7.10547,-6.08542 2.20172,-1.84793 5.43099,-5.16611 5.43099,-5.58052 0,-0.19012 0.44648,-0.67713 0.99218,-1.08224 5.06101,-3.75713 23.87366,-24.16176 29.15205,-31.61899 1.23114,-1.73934 1.0534,-2.15896 -1.93135,-4.55961 -7.67019,-6.16917 -9.90228,-13.75085 -5.847,-19.86038 1.25113,-1.8849 3.53245,-3.72353 5.26495,-4.24328 1.85605,-0.55681 5.66087,-0.49487 8.15123,0.13271 1.12622,0.28382 3.38841,1.10809 5.02708,1.83172 4.3857,1.93672 4.21441,1.92774 5.69715,0.29883 1.83481,-2.01569 4.95018,-6.25894 5.91042,-8.05022 0.45967,-0.85749 1.59073,-2.38173 2.51345,-3.38721 1.02152,-1.11313 1.78146,-2.21082 1.94301,-2.80656 0.14593,-0.53813 0.54885,-1.39513 0.89538,-1.90446 1.73353,-2.54788 7.55097,-14.5694 10.83921,-22.39881 1.74924,-4.16502 4.04093,-11.42953 5.48312,-17.38116 5.43575,-22.43235 4.63245,-45.843805 -2.22182,-64.752828 -2.39946,-6.619436 -4.68621,-11.105973 -10.1073,-19.830253 -3.44611,-5.545895 -4.42582,-6.869288 -8.80763,-11.8973591 -6.41569,-7.361915 -13.66588,-14.4311544 -17.16435,-16.7359535 -1.0354,-0.6821259 -1.95986,-1.4838345 -2.05436,-1.7815744 -0.0945,-0.297741 -0.60964,-0.766763 -1.14477,-1.042272 -0.53512,-0.275509 -1.98498,-1.236782 -3.2219,-2.136161 -4.72409,-3.434917 -15.66057,-10.45211 -20.50521,-13.15679 -7.79896,-4.354022 -18.55833,-8.729837 -28.17813,-11.459994 -15.12433,-4.292375 -28.34876,-5.633404 -40.41765,-4.098567 -20.66281,2.62775 -38.38099,10.232118 -54.21641,23.268837 -3.42489,2.81959 -12.10199,11.4646515 -14.99989,14.9445078 -2.42194,2.90830962 -5.58057,7.1314131 -8.52432,11.3970441 -1.15217,1.669544 -2.68186,3.6340751 -3.39931,4.3656251 -0.71746,0.731549 -1.55981,1.925402 -1.8719,2.653006 -0.3121,0.727605 -1.48776,2.930261 -2.61259,4.894792 -2.2783,3.979084 -8.18515,15.608624 -10.81898,21.300635 -3.07291,6.640917 -7.78205,19.848432 -11.69721,32.806657 -7.37421,24.40681 -13.01447,51.418048 -15.9943,76.596868 -1.07737,9.10352 -1.92564,19.47657 -1.97041,24.09527 -0.0322,3.31781 -0.0304,3.32778 0.76151,4.32235 1.6469,2.06833 1.65036,2.08404 0.70943,3.22555 -0.46294,0.56163 -0.84172,1.18833 -0.84172,1.39266 0,0.20433 -0.24547,0.7687 -0.5455,1.25415 -0.48526,0.78517 -0.57182,1.53372 -0.78378,6.77811 -0.57409,14.20408 -0.13276,39.6326 0.82096,47.30275 1.53972,12.38282 4.58132,26.70258 7.30144,34.37484 1.60379,4.52359 4.20609,9.78535 6.09925,12.33244 4.32078,5.81327 10.66304,9.87446 17.30389,11.08035 3.43915,0.62451 3.75671,0.64377 8.96208,0.54363 3.12505,-0.0601 6.18622,-0.28967 8.46666,-0.63489 z m 110.19896,-174.07719 c -1.05869,-0.27815 -1.80978,-0.69115 -3.70921,-2.03955 -0.8759,-0.6218 -1.94746,-1.21442 -2.38125,-1.31693 -1.31443,-0.31062 -3.81668,-1.74484 -4.53634,-2.60011 -0.60822,-0.72282 -0.66078,-0.95577 -0.5125,-2.27099 0.0935,-0.82893 0.5087,-2.12811 0.95591,-2.99078 0.86513,-1.66883 0.9006,-1.78207 0.55816,-1.78207 -0.12789,0 -0.91005,0.90017 -1.73813,2.00037 -1.70787,2.26911 -2.24307,2.42858 -3.22888,0.96213 -2.17569,-3.23646 -3.27498,-12.963768 -1.9643,-17.381448 0.30209,-1.01818 0.54925,-2.22145 0.54925,-2.67393 0,-0.52627 0.32027,-1.24214 0.88887,-1.98682 0.48889,-0.640268 1.20431,-1.7866 1.58984,-2.547403 0.49764,-0.982037 0.98808,-1.530516 1.69081,-1.890881 1.20426,-0.617553 1.96597,-1.428656 2.57436,-2.741293 1.10097,-2.37542 7.09813,-5.325793 11.51237,-5.663644 1.69805,-0.129964 2.56093,-0.0138 5.9802,0.80508 2.19771,0.526327 4.65894,1.1851 5.4694,1.463942 1.72163,0.592325 4.4164,2.246692 4.44564,2.729257 0.0556,0.916578 0.27016,1.390485 0.95325,2.104988 0.57935,0.605989 0.90646,0.748766 1.46226,0.638244 0.84296,-0.167626 1.22778,0.28813 2.65718,3.147033 4.09249,8.185277 4.10264,15.004905 0.0347,23.329265 -1.54956,3.17091 -2.74686,4.70529 -4.28195,5.48748 -0.68341,0.34822 -1.36162,0.91194 -1.50714,1.25271 -0.23394,0.54783 -2.49873,2.04111 -4.36562,2.87846 -1.49985,0.67272 -11.51107,1.50354 -13.09688,1.08689 z m -7.24224,-8.49402 c -0.17579,-0.58676 -0.43391,-1.06683 -0.57359,-1.06683 -0.36638,0 -0.31312,1.95168 0.0635,2.32833 0.57927,0.57928 0.85629,-0.10587 0.51005,-1.2615 z m 14.23479,0.26955 c 1.13803,-0.81034 1.60641,-1.99037 1.60641,-4.04713 0,-1.96198 -0.36507,-2.61604 -1.89607,-3.39711 -2.48847,-1.26952 -5.53086,-0.36488 -6.58556,1.95817 -1.08207,2.38334 -0.2803,4.4522 2.26392,5.84179 1.14914,0.62763 3.48317,0.44758 4.6113,-0.35572 z m 8.50029,-2.26761 c 3.21578,-1.1346 4.45145,-3.58783 3.19583,-6.34481 -0.55323,-1.21473 -2.3602,-2.95202 -3.32132,-3.19324 -0.42326,-0.10623 -1.40077,0.1243 -2.77626,0.65474 -1.59475,0.615 -2.55301,0.81871 -3.8513,0.81871 -0.95058,0 -1.72833,0.0799 -1.72833,0.1776 0,0.54862 0.97153,1.14531 1.86478,1.14531 0.63505,0 1.04353,0.14205 1.14132,0.39688 0.22983,0.59893 -0.10785,1.24257 -0.56073,1.06879 -0.32729,-0.1256 -0.3592,-8.8e-4 -0.18223,0.7124 0.11798,0.47555 0.22259,1.36546 0.23246,1.97756 0.0161,1.0003 0.0751,1.09859 0.58232,0.97127 0.416,-0.10441 0.84528,0.14208 1.6329,0.9376 1.20117,1.21324 1.89701,1.33821 3.77056,0.67719 z m -18.3202,-1.91716 c 0.0623,-0.6453 0.28212,-0.96262 0.88134,-1.27248 0.55516,-0.28709 0.74851,-0.54253 0.63485,-0.83872 -0.0899,-0.23425 0.0451,-1.0058 0.29995,-1.71456 0.48296,-1.34307 0.32188,-2.11245 -0.47235,-2.256 -0.53069,-0.0959 -2.88205,4.4368 -2.88205,5.55572 0,1.64196 1.3847,2.11549 1.53826,0.52604 z m -10.58701,-4.34828 c 0.49272,-0.49272 0.39445,-2.00394 -0.14924,-2.29492 -0.56865,-0.30433 -2.1791,0.29903 -2.1791,0.81642 0,0.45596 1.25169,1.796 1.67758,1.796 0.18329,0 0.47613,-0.14287 0.65076,-0.3175 z m 5.45585,-2.26526 c -0.28771,-0.43909 -0.51047,-0.58528 -0.57892,-0.37992 -0.0612,0.1836 0.0992,0.65498 0.35638,1.04753 0.28771,0.43909 0.51046,0.58528 0.57892,0.37992 0.0612,-0.18359 -0.0992,-0.65498 -0.35638,-1.04753 z m 16.42574,-6.521388 c 1.31127,-0.85918 2.67482,-3.8581 2.94962,-6.48722 0.33092,-3.166088 -1.47285,-6.322155 -4.5092,-7.88975 -1.17155,-0.604842 -1.66828,-0.696603 -3.73264,-0.689532 -1.45595,0.005 -2.94671,0.181132 -3.83646,0.453306 l -1.45521,0.445149 -1.30364,2.649304 c -1.21213,2.463313 -1.30459,2.792623 -1.31699,4.690793 -0.0165,2.52966 0.67095,4.11441 2.39923,5.5306 1.93181,1.58298 3.40224,1.97034 7.02234,1.84994 2.33713,-0.0777 3.26509,-0.21328 3.78295,-0.55259 z m -22.4353,-2.86516 c -0.0633,-0.32911 -0.11747,-0.12214 -0.1204,0.45994 -0.003,0.58208 0.0488,0.85136 0.11506,0.5984 0.0662,-0.25297 0.0686,-0.72922 0.005,-1.05834 z m 5.89693,-1.19371 c 0.002,-0.44904 -0.26014,-0.41553 -0.8377,0.10716 -0.30205,0.27335 -0.48076,0.79528 -0.4756,1.38906 l 0.008,0.95118 0.65184,-1.05833 c 0.35852,-0.58209 0.65246,-1.20716 0.6532,-1.38907 z m -50.80328,22.083248 c -4.36763,-1.24429 -9.29837,-6.28035 -11.39968,-11.64317 -1.18142,-3.01512 -1.37712,-6.235488 -0.4605,-7.577618 0.69828,-1.02243 1.7445,-1.41519 3.13357,-1.17635 1.90422,0.32741 2.5334,1.07849 2.91984,3.48552 0.32436,2.02028 2.03848,5.407018 3.6464,7.204488 1.76538,1.97349 3.71888,2.94693 6.2384,3.10862 3.53109,0.22661 6.27373,-0.79245 10.30739,-3.82984 1.7984,-1.35421 2.55423,-1.76189 3.45471,-1.86338 1.59156,-0.1794 2.27284,0.4984 2.27284,2.26122 0,3.75997 -4.59054,8.18928 -9.94865,9.59924 -2.63733,0.69399 -8.38595,0.93791 -10.16432,0.43127 z m -40.6089,-30.626202 c -1.87716,-0.239243 -8.47234,-2.439087 -9.14939,-3.051806 -0.25925,-0.234619 -0.85226,-0.623926 -1.3178,-0.865127 -0.57452,-0.297668 -0.95562,-0.765336 -1.18634,-1.455819 -0.38392,-1.149008 -1.34223,-2.290019 -1.92332,-2.290019 -0.21325,0 -0.55256,-0.20836 -0.75401,-0.463021 -0.64893,-0.820342 -1.67643,-2.943795 -1.67643,-3.464537 0,-0.278061 -0.15933,-0.637792 -0.35406,-0.799403 -0.81071,-0.672829 -1.79075,-6.152915 -1.85342,-10.363705 -0.0382,-2.564423 0.0165,-2.899435 0.68296,-4.185503 0.39844,-0.768879 1.27707,-2.101376 1.95251,-2.961103 1.04417,-1.329062 1.20362,-1.685372 1.06482,-2.379387 -0.31187,-1.559371 1.34136,-4.316367 2.81625,-4.696504 0.5779,-0.148947 0.87686,-0.400789 0.93319,-0.786116 0.12306,-0.841796 1.83873,-2.252862 2.52937,-2.080299 0.4277,0.106864 0.70255,-0.07313 1.14527,-0.750021 2.00816,-3.070293 7.90789,-4.464573 14.78716,-3.494643 3.61921,0.510282 4.43316,0.834538 4.22062,1.681373 -0.1311,0.522347 -0.0525,0.611619 0.53859,0.611619 0.40376,0 1.47436,0.551136 2.5698,1.322916 1.27738,0.899962 2.14023,1.322917 2.69883,1.322917 1.39769,0 3.67574,2.859944 6.16079,7.734479 l 1.25002,2.451979 0.0896,4.017131 c 0.14061,6.307085 -0.75725,11.159762 -2.6649,14.403047 -0.37493,0.637444 -1.3002,1.864102 -2.05614,2.725907 -0.75594,0.861804 -1.68265,2.032658 -2.05935,2.601896 -1.35295,2.044443 -5.96909,4.742253 -8.94947,5.230331 -1.78344,0.292065 -7.14689,0.282698 -9.49511,-0.01658 z m 5.1069,-6.976635 c 2.07574,-1.328271 3.36422,-3.375811 3.0652,-4.870927 -0.31908,-1.595392 1.12593,-1.26084 2.00611,0.464461 1.083,2.122864 2.64571,2.655745 4.25632,1.451401 0.71021,-0.531062 1.12633,-0.653911 1.88575,-0.556722 0.70119,0.08974 1.01653,0.01507 1.12448,-0.266253 0.31867,-0.830432 0.14938,-5.922483 -0.22683,-6.822882 -0.50646,-1.212112 -2.19466,-2.086656 -4.04817,-2.097082 -1.77147,-0.01 -2.58564,0.572669 -3.68706,2.638538 -0.45983,0.862467 -0.98088,1.728021 -1.1579,1.923455 -0.40093,0.442655 -1.59675,0.296601 -4.11421,-0.502499 l -1.87483,-0.595113 -1.46257,1.080463 c -1.01094,0.746831 -1.59625,1.41456 -1.89548,2.162431 -0.56859,1.421027 -0.57402,3.150388 -0.0106,3.366598 0.30246,0.116066 0.3804,0.371734 0.27459,0.900783 -0.19167,0.958348 0.43744,1.733428 1.81662,2.238129 1.32732,0.485724 2.77213,0.302015 4.04857,-0.514781 z m 0.87476,-17.701669 c 0.93019,-0.481772 2.18773,-1.072303 2.79453,-1.312291 0.6068,-0.239988 1.16376,-0.649482 1.23768,-0.909988 0.66188,-2.332473 1.27214,-5.805665 1.15112,-6.551399 -0.18667,-1.15032 -2.07043,-5.184759 -2.63838,-5.650606 -0.70189,-0.575709 -3.29946,-1.101424 -6.61413,-1.338616 -2.3279,-0.166579 -3.2401,-0.336443 -3.61143,-0.672494 -0.56712,-0.513239 -2.02143,-0.637653 -2.44953,-0.209555 -0.44355,0.443549 -0.0808,1.02914 1.09876,1.773766 1.19576,0.754853 1.17972,1.039159 -0.12718,2.253382 -1.77192,1.646275 -2.62041,4.768394 -1.86509,6.862878 0.58216,1.614334 2.32622,3.850252 3.66451,4.697981 1.08337,0.686246 4.38823,1.897284 5.24247,1.921054 0.23398,0.0065 1.18648,-0.38234 2.11667,-0.864112 z m 110.10898,4.198561 c -2.67457,-2.176972 -3.4527,-2.64054 -4.85914,-2.894793 -0.5235,-0.09464 -1.52904,-0.582451 -2.23451,-1.084028 -0.70548,-0.501577 -1.60667,-0.983114 -2.00264,-1.070084 -0.95603,-0.209979 -1.1155,-0.737862 -0.47059,-1.557733 1.72697,-2.195491 6.84783,-1.008918 11.80259,2.734825 2.0507,1.549476 2.98511,2.691059 2.98511,3.646976 0,0.655576 -1.59403,2.193892 -2.27334,2.193892 -0.2906,0 -1.61696,-0.886075 -2.94748,-1.969055 z m -94.13023,-34.316247 c -0.58208,-0.136848 -2.59172,-0.474497 -4.46586,-0.750331 -2.99809,-0.441257 -3.4988,-0.588968 -4.16718,-1.229319 -0.89335,-0.855883 -0.9714,-1.739983 -0.21993,-2.491447 0.82356,-0.823567 1.6802,-1.047768 4.00336,-1.047768 4.51039,0 8.7775,1.95291 9.35254,4.280337 0.14914,0.603624 0.056,0.770024 -0.62945,1.124479 -0.88397,0.457116 -2.24391,0.497158 -3.87348,0.114049 z m 171.43885,262.679242 c 0.69304,-1.18258 0.87605,-1.91966 0.40425,-1.62806 -0.3142,0.19418 -1.31914,2.09923 -1.31914,2.50066 0,0.50899 0.23858,0.28144 0.91489,-0.8726 z m 5.03824,-104.59311 c 9.35995,-1.30983 16.68108,-4.83336 23.8041,-11.45651 3.98183,-3.70239 6.72492,-7.33979 8.14061,-10.79463 0.73639,-1.79709 0.84177,-2.3622 0.85198,-4.56892 0.0108,-2.326 -0.055,-2.6536 -0.86142,-4.29256 -2.01462,-4.09438 -7.05182,-6.14035 -11.92458,-4.84342 -3.87103,1.03031 -6.37464,3.15868 -10.59655,9.00833 -4.4242,6.12995 -6.69233,8.31092 -10.47248,10.07006 -2.76032,1.28455 -4.66567,1.71406 -8.36836,1.8864 -7.19169,0.33473 -13.07734,-1.15004 -23.702,-5.97932 -6.2073,-2.82142 -9.01565,-2.80527 -11.12082,0.064 -0.84937,1.15764 -0.99144,1.54873 -0.97503,2.68407 0.053,3.66509 3.57742,7.37076 10.59464,11.13933 7.13632,3.83253 15.46335,6.454 22.98824,7.23703 5.11014,0.53176 6.91256,0.50794 11.64167,-0.15385 z M -556.83704,112.3227 c 1.00638,-0.38618 2.38674,-4.89308 3.20264,-10.45665 0.37204,-2.536878 0.37939,-2.985778 0.0542,-3.310938 -0.20689,-0.20689 -2.11194,-1.1286 -4.23345,-2.04824 -4.59444,-1.99162 -7.04233,-3.55703 -9.13713,-5.84313 -1.91029,-2.084752 -2.99832,-4.26962 -4.05271,-8.138238 -2.06308,-7.56959 -2.70654,-9.638885 -3.46368,-11.138777 -1.13174,-2.241953 -3.68311,-4.726508 -5.95368,-5.797753 -1.61378,-0.761375 -2.05913,-0.852349 -4.1871,-0.855316 -2.0391,-0.0028 -2.60055,0.09944 -3.90744,0.711857 -1.76201,0.825691 -4.0872,3.028296 -4.99188,4.728723 -0.5557,1.044486 -0.62222,1.512943 -0.61701,4.345684 0.007,3.716809 0.52921,5.935161 2.49219,10.583333 2.21664,5.248827 4.77104,9.023657 9.04586,13.367717 5.62112,5.712168 12.28032,9.694838 21.40492,12.801658 3.89158,1.32504 3.72967,1.28591 4.34424,1.05007 z M -273.85479,11.439 c 5.96088,-0.603623 10.62962,-1.422324 12.37524,-2.1700971 0.62174,-0.266338 2.11002,-0.68002 3.30729,-0.919291 1.19726,-0.239272 2.85786,-0.718602 3.69022,-1.065177 0.83236,-0.346576 1.98903,-0.630138 2.57038,-0.630138 0.76673,0 1.13069,-0.137704 1.32537,-0.501452 0.16056,-0.300008 0.8002,-0.629037 1.59226,-0.819049 0.72814,-0.174678 1.77242,-0.677572 2.32063,-1.117542 0.5482,-0.439969 2.24244,-1.638861 3.76498,-2.664204 1.52254,-1.02534298 3.30847,-2.41126508 3.96875,-3.0798265 2.3678,-2.3975125 4.95383,-8.0165223 4.70509,-10.2233574 -0.15851,-1.406331 -1.18429,-3.639974 -2.76034,-6.010696 -1.73045,-2.602966 -5.82853,-6.792917 -7.96112,-8.139589 -0.97843,-0.617852 -2.37428,-1.513876 -3.10188,-1.991164 -0.7276,-0.477288 -2.09682,-1.060969 -3.04271,-1.297069 -0.94588,-0.236099 -2.43416,-0.659171 -3.30729,-0.940158 -0.87312,-0.280988 -3.40713,-0.870192 -5.63113,-1.309342 -5.08478,-1.004042 -7.20116,-1.98407 -7.20116,-3.334633 0,-0.426318 0.86189,-1.39188 2.97463,-3.33243 5.5644,-5.110882 7.65556,-7.380758 8.99406,-9.762704 1.54094,-2.742185 1.70333,-2.949998 2.85265,-3.650637 0.8547,-0.521025 1.28985,-0.561741 6.01354,-0.562658 4.31038,-8.37e-4 5.32591,-0.07884 6.61459,-0.508044 0.83732,-0.27888 2.52567,-0.58655 3.75188,-0.683712 1.22621,-0.09716 2.78737,-0.39656 3.46925,-0.66533 0.68187,-0.26877 2.14207,-0.675048 3.24488,-0.902839 2.44329,-0.504677 6.30863,-1.88141 8.79243,-3.131636 1.01372,-0.510259 2.91229,-1.304932 4.21904,-1.76594 1.30675,-0.461008 2.55691,-0.996608 2.77812,-1.190223 0.63481,-0.555596 2.58064,-1.472015 3.12552,-1.472015 0.27249,0 0.87815,-0.47625 1.34593,-1.058334 0.46777,-0.582083 1.06056,-1.058333 1.31731,-1.058333 0.51048,0 1.62492,-0.920826 1.62492,-1.342626 0,-0.145023 0.51296,-0.48356 1.13992,-0.752304 0.69221,-0.296719 1.5972,-1.034803 2.30423,-1.879279 0.64038,-0.764859 1.52772,-1.54249 1.97187,-1.728068 2.47387,-1.033649 7.95359,-7.477327 10.39917,-12.228537 3.94836,-7.670754 4.98178,-13.959369 3.03409,-18.463186 -0.43723,-1.01106 -0.93372,-2.27373 -1.10329,-2.80594 -0.40694,-1.27712 -3.92582,-4.65042 -6.94433,-6.65702 -5.02941,-3.34338 -11.07821,-5.20757 -20.45895,-6.30527 -5.89131,-0.68938 -21.49007,-0.35122 -27.25209,0.59079 -8.44631,1.38085 -22.74101,5.4635 -28.44276,8.12342 -5.83832,2.72363 -15.15839,8.814284 -14.67779,9.591918 0.0785,0.126999 0.30863,0.167239 0.51142,0.08942 0.21403,-0.08213 0.56754,0.161977 0.84268,0.581897 0.36868,0.562675 0.4708,1.242129 0.45966,3.058377 -0.0128,2.093309 -0.10094,2.500234 -0.85116,3.931442 -0.48742,0.929865 -0.83684,1.992959 -0.83684,2.546078 0,2.189922 -4.03486,8.088337 -7.33057,10.716299 -2.56554,2.045729 -6.78002,4.829551 -8.38915,5.541343 -2.14534,0.948987 -1.45544,1.497775 2.62285,2.086376 1.01864,0.147016 2.33752,0.269661 2.93083,0.272544 0.61349,0.003 2.49639,0.526786 4.36563,1.214478 1.80778,0.665081 4.16664,1.349402 5.24192,1.520715 1.55279,0.247389 2.03772,0.437649 2.35685,0.924691 0.22098,0.337267 1.07357,0.95233 1.89465,1.366806 0.90453,0.456608 1.61565,1.023102 1.80445,1.437468 0.17138,0.376131 0.77047,1.190106 1.33132,1.808833 1.30947,1.444602 2.41972,3.096794 3.4322,5.10754 1.35953,2.69997 1.75606,4.431558 1.75395,7.659085 -0.002,3.492245 -0.5593,5.726697 -2.33923,9.383764 -1.94882,4.004059 -1.89928,4.703697 0.52642,7.434912 1.81224,2.040483 2.49214,3.666078 2.4953,5.966088 0.002,1.624869 -0.12397,2.135653 -0.92161,3.730025 -1.14878,2.296283 -3.5721,4.974299 -5.90116,6.52139 -4.30876,2.862111 -11.62102,6.0280281 -16.72256,7.2402061 -1.52797,0.3630604 -4.08782,1.000312 -5.68855,1.4161146 -4.02444,1.0453825 -7.74563,1.7667973 -10.85778,2.1049668 -5.28626,0.5744091 -5.68223,0.7387926 -5.31397,2.2060604 0.0997,0.3974537 1.72014,2.31701672 3.68501,4.365389 1.92882,2.0108 4.62569,4.924691 5.99302,6.475313 l 2.48607,2.8193121 4.91424,0.011 c 4.21965,0.0094 5.10123,0.0837 6.23716,0.52532 1.22434,0.475992 1.87495,0.506321 8.73125,0.407016 4.82293,-0.06985 9.30123,-0.298983 12.8323,-0.656553 z m -44.71459,-21.466337 c 2.83765,-0.297651 7.18344,-0.942612 9.65729,-1.433248 2.47385,-0.490635 5.0337,-0.975689 5.68854,-1.077898 0.65485,-0.102208 1.74107,-0.463436 2.41384,-0.802729 0.67277,-0.339293 2.6619,-1.038961 4.42029,-1.554818 3.58755,-1.052477 4.80677,-1.506347 7.85178,-2.922909 1.16333,-0.541188 2.55315,-1.141428 3.0885,-1.333867 0.53535,-0.192439 1.62053,-0.864175 2.41151,-1.492747 0.79098,-0.628572 1.87102,-1.475356 2.40008,-1.881742 0.84239,-0.647067 0.96192,-0.88021 0.96192,-1.876179 0,-1.623094 -0.64611,-3.551879 -1.48213,-4.424497 -0.47966,-0.500661 -1.54021,-1.023737 -3.19008,-1.573393 -1.35935,-0.452866 -2.47154,-0.944298 -2.47154,-1.09207 0,-0.147773 0.95155,-1.843933 2.11455,-3.769245 4.22091,-6.987599 5.5914,-12.393108 4.50429,-17.765811 -0.65758,-3.249863 -2.19975,-4.846229 -7.10615,-7.355917 -3.96595,-2.028631 -5.18305,-2.273477 -11.32476,-2.278219 -9.36951,-0.0072 -15.09258,0.936766 -22.71606,3.746931 -7.27684,2.682392 -14.9207,7.593109 -20.51224,13.177872 -4.56939,4.563865 -11.9874,14.843264 -11.54445,15.997568 0.0794,0.206853 1.66913,1.381398 3.5328,2.610099 3.61622,2.384154 7.15367,4.93684 11.15294,8.048176 1.36005,1.058077 2.6148,1.923777 2.78835,1.923777 0.17355,0 1.08714,0.684609 2.03021,1.521354 1.97168,1.749391 5.30397,4.468291 6.47044,5.279401 1.43198,0.9957319 2.23067,1.0254897 8.86008,0.330111 z m -42.06148,-23.442726 c 1.37556,-0.918589 2.50447,-2.182652 4.69019,-5.251682 2.41581,-3.392113 5.84714,-7.393858 10.46115,-12.200172 2.69357,-2.805842 3.58566,-3.557824 8.78618,-7.406248 3.32824,-2.462926 14.80767,-7.955037 17.59479,-8.417889 1.43003,-0.237482 3.97041,-1.554162 5.3312,-2.763161 0.96963,-0.861475 1.29754,-1.37383 1.54834,-2.419277 0.44974,-1.874757 1.51987,-2.687067 7.67965,-5.829467 5.89602,-3.007847 7.77749,-4.379973 9.61302,-7.010647 1.745,-2.500924 3.5491,-6.276556 3.88961,-8.140205 0.33765,-1.847992 -0.0204,-3.953785 -0.89215,-5.247414 -0.99836,-1.481469 -2.00474,-1.874445 -5.32743,-2.080275 -3.22482,-0.19976 -3.58599,-0.3062 -3.58599,-1.0568 0,-1.08696 1.91543,-1.95848 7.93751,-3.61157 4.61512,-1.26687 7.947,-2.51155 8.49691,-3.17416 0.18217,-0.21949 1.05356,-0.73346 1.93642,-1.14215 0.88286,-0.40869 2.31403,-1.35215 3.18037,-2.09659 0.86633,-0.74443 1.78806,-1.42109 2.04829,-1.50368 0.26022,-0.0826 1.02575,-1.14259 1.70117,-2.35556 0.67541,-1.21297 1.48011,-2.32025 1.78821,-2.46063 0.30811,-0.14039 0.72657,-0.71783 0.92993,-1.28322 0.20336,-0.56538 1.30959,-2.77254 2.4583,-4.90478 1.9647,-3.6469 3.12498,-6.32611 3.12498,-7.21593 0,-0.21469 0.19405,-0.49894 0.43121,-0.63166 0.56348,-0.31534 3.676,-12.4757 4.0564,-15.84798 0.35288,-3.12836 0.35351,-10.63145 10e-4,-14.06482 -0.59563,-5.80427 -2.13428,-9.54818 -5.52067,-13.43315 -3.09761,-3.55366 -4.12984,-4.32151 -6.01981,-4.47795 -0.851,-0.0705 -2.51712,-0.21778 -3.70249,-0.32741 -7.59671,-0.7026 -18.75425,2.2013 -28.90349,7.52252 -5.70303,2.99008 -9.22855,5.67939 -16.5475,12.62265 -7.52836,7.14192 -13.83563,14.27939 -16.98913,19.22533 -6.58633,10.32999 -10.93393,20.91191 -13.3328,32.45162 -1.72049,8.276357 -2.06675,8.736999 -5.70534,7.59003 -1.30325,-0.41081 -1.47118,-0.41034 -2.56456,0.007 -2.23233,0.852539 -5.57844,4.815881 -7.9599,9.428212 -5.70881,11.056614 -8.55526,28.419244 -7.18764,43.842685 0.53538,6.037756 0.59245,6.199955 2.5979,7.38299 3.18871,1.881045 6.95056,3.769649 8.12345,4.078303 1.7588,0.462839 3.7499,1.549937 3.90165,2.130213 0.16531,0.63213 1.04364,0.6652 1.93089,0.0727 z m -23.79639,-10.699022 c 0.54423,-0.544226 0.54975,-0.670752 0.367,-8.400521 -0.41359,-17.493511 1.64335,-27.156506 8.83792,-41.518237 1.73688,-3.467153 2.88145,-4.975884 3.38947,-4.467871 0.28331,0.283316 0.87598,-0.393796 0.87598,-1.000794 0,-2.125802 6.33394,-7.771362 9.23506,-8.231382 1.54594,-0.24514 1.73112,-0.45097 1.92068,-2.13494 0.33898,-3.0114 1.78224,-7.9483 4.90342,-16.77288 2.3084,-6.52659 3.82139,-9.34877 9.53228,-17.78053 5.11528,-7.55237 6.0033,-9.4937 6.43168,-14.06052 0.27715,-2.95456 -0.14264,-11.41018 -0.67196,-13.53499 -0.68392,-2.7454 -2.67319,-6.43028 -4.36891,-8.09288 -2.4951,-2.44639 -6.23226,-3.61721 -10.66159,-3.34019 -7.0338,0.4399 -15.37259,4.93366 -22.02341,11.86837 -5.6407,5.88149 -9.28173,12.16297 -11.24927,19.40719 -1.02552,3.77583 -1.52881,4.61531 -4.00889,6.68678 -3.80425,3.17746 -5.30471,5.20487 -6.65454,8.99157 -1.9155,5.37359 -2.81112,10.88683 -3.00081,18.47247 -0.20963,8.3831 0.32362,14.38894 2.06396,23.245713 0.42683,2.17219 0.8532,4.779408 0.94748,5.79382 l 0.17141,1.844384 -0.76923,-0.192796 c -0.42308,-0.106038 -1.4513,-0.606969 -2.28492,-1.11318 -2.90529,-1.764198 -4.01242,-1.428644 -5.54276,1.679924 -2.57163,5.223716 -0.37084,14.056455 7.35468,29.517621 3.88053,7.766158 5.60694,10.752202 6.55501,11.337755 1.10213,0.680697 6.11754,2.179013 7.76698,2.320328 0.1819,0.01558 0.57938,-0.220312 0.88328,-0.524214 z m -18.29427,-3.746931 c 0.94481,-1.008062 1.00006,-1.256771 0.27922,-1.256771 -0.37549,0 -0.52916,-0.176388 -0.52916,-0.60738 0,-0.334059 -0.53387,-1.494918 -1.18637,-2.579687 -0.6525,-1.084769 -1.26167,-2.362487 -1.35371,-2.839373 -0.092,-0.476886 -0.37369,-0.977498 -0.62589,-1.112472 -0.2522,-0.134974 -0.73064,-0.99495 -1.06322,-1.91106 -0.33257,-0.916109 -1.28783,-3.213465 -2.12281,-5.105236 -3.85985,-8.745046 -5.51376,-16.385297 -4.78249,-22.092708 0.37899,-2.957953 0.98154,-4.743012 1.68939,-5.004864 0.35712,-0.132107 0.70012,-0.662618 0.96472,-1.492145 0.41238,-1.292796 1.10171,-1.967628 3.50286,-3.429207 0.84984,-0.517292 0.87886,-0.592791 0.95495,-2.484084 0.0864,-2.14783 -1.01959,-10.305147 -1.82986,-13.496067 -0.66654,-2.62494 -1.38938,-3.77404 -3.85708,-6.13167 -2.74299,-2.62064 -5.35779,-4.57761 -7.48072,-5.59872 -1.44709,-0.69604 -2.11706,-0.8488 -4.12761,-0.94115 -3.0345,-0.13938 -3.82179,0.22503 -6.6058,3.05767 -4.37537,4.45179 -7.08637,10.182 -8.48063,17.92544 -0.5748,3.192344 -0.79104,11.698312 -0.39466,15.524986 1.06203,10.253171 4.57653,19.698471 9.71422,26.107247 2.17904,2.718138 6.47773,6.847836 8.43158,8.100119 3.11931,1.999262 6.78728,3.599468 8.88873,3.877847 4.26577,0.565085 5.4607,0.830631 6.98627,1.552548 0.87313,0.413171 1.73029,0.761438 1.90482,0.773927 0.17452,0.01249 0.67999,-0.364247 1.12325,-0.83719 z"
       id="path1" /></g></svg>
