<?xml version="1.0" encoding="UTF-8" standalone="no"?>
<!-- Created with Inkscape (http://www.inkscape.org/) -->

<svg
   width="485.61929mm"
   height="661.50189mm"
   viewBox="0 0 485.61931 661.5019"
   version="1.1"
   id="svg1"
   xml:space="preserve"
   xmlns="http://www.w3.org/2000/svg"
   xmlns:svg="http://www.w3.org/2000/svg"><defs
     id="defs1" /><g
     id="layer1"
     transform="translate(625.84309,198.41596)"><path
       style="fill:#000000"
       d="m -357.74563,462.91728 c -4.36146,-0.40165 -13.54094,-2.44737 -14.86004,-3.31168 -0.34817,-0.22813 -0.74652,-0.34464 -0.88522,-0.25892 -0.76124,0.47048 -14.11402,-4.95178 -16.71487,-6.78753 -0.39056,-0.27567 -1.20502,-0.67584 -1.80991,-0.88925 -2.1372,-0.75405 -11.80191,-6.97563 -13.35618,-8.59793 -0.41758,-0.43587 -0.95468,-0.79249 -1.19355,-0.79249 -0.78913,0 -2.92989,-1.64148 -4.01483,-3.07848 -0.58715,-0.77766 -1.17679,-1.34642 -1.31032,-1.26389 -0.69063,0.42683 -6.45705,-3.9633 -10.3215,-7.85804 -1.55017,-1.56233 -3.20132,-3.03856 -3.66922,-3.28052 -1.80947,-0.93571 -13.47105,-12.85382 -14.04195,-14.35084 -0.13704,-0.35934 -0.44986,-0.59531 -0.7892,-0.59531 -0.30919,0 -0.97969,-0.41752 -1.48999,-0.92782 -0.73486,-0.73486 -0.89339,-1.06502 -0.76225,-1.5875 0.13668,-0.5446 0.0697,-0.65968 -0.38402,-0.65968 -0.67318,0 -5.6811,-4.93233 -6.73161,-6.63001 -0.39997,-0.64636 -1.17836,-1.65145 -1.72977,-2.23353 -1.40616,-1.48439 -2.3762,-3.00823 -2.3762,-3.73279 0,-0.41086 -0.11992,-0.57021 -0.35983,-0.47815 -0.1979,0.0759 -0.73427,-0.177 -1.19193,-0.56209 -1.04955,-0.88314 -4.59496,-5.57253 -5.45558,-7.21591 -0.35723,-0.68212 -1.08018,-1.65695 -1.60657,-2.16627 -1.26523,-1.22422 -5.14442,-7.02395 -5.14442,-7.69136 0,-0.30356 -0.25659,-0.62138 -0.6102,-0.75582 -0.78088,-0.29689 -1.32746,-1.03646 -4.78638,-6.47642 -4.39181,-6.90713 -6.35439,-9.3226 -8.49013,-10.44931 -1.34284,-0.70842 -1.40705,-0.70152 -1.5077,0.16199 -0.0729,0.62519 -0.28558,0.77951 -1.64159,1.19103 -3.11326,0.94481 -9.32575,1.32871 -19.34421,1.19538 -7.9,-0.10514 -10.06171,-0.22438 -14.71485,-0.81166 -20.79951,-2.62514 -36.3177,-6.49392 -49.71119,-12.39329 -5.10475,-2.24847 -9.01297,-4.4151 -14.12975,-7.83325 -6.94425,-4.63895 -10.62305,-7.67281 -12.52816,-10.33183 -0.65995,-0.92112 -1.46658,-1.77614 -1.79251,-1.90006 -0.39314,-0.14947 -0.67341,-0.56535 -0.83273,-1.23566 -0.21116,-0.8884 -0.32436,-1.00039 -0.93781,-0.92775 -2.42252,0.28687 -10.57876,-12.81743 -13.0177,-20.91501 -1.70279,-5.65348 -2.10177,-8.06631 -2.11156,-12.76969 -0.008,-3.73431 0.0791,-4.6076 0.73673,-7.40833 1.71837,-7.31798 3.90799,-13.12019 5.29397,-14.02832 0.37969,-0.24878 0.69035,-0.66367 0.69035,-0.92197 0,-1.13605 5.38744,-7.30475 7.17692,-8.21768 0.53943,-0.2752 1.66405,-1.09826 2.49914,-1.82903 1.66378,-1.45594 4.12859,-2.80396 5.63287,-3.08067 0.52962,-0.0974 1.2496,-0.40013 1.59995,-0.67269 1.5209,-1.18319 6.83119,-1.95806 11.89671,-1.73594 3.66285,0.16062 6.72403,0.89203 9.72227,2.32296 2.0453,0.97613 6.20697,4.61644 6.84153,5.98446 0.25824,0.55671 0.75694,1.39727 1.10823,1.86789 1.22615,1.64267 1.49941,2.85061 1.52262,6.73071 0.0203,3.38627 -0.0169,3.66548 -0.58097,4.36563 -0.33143,0.41139 -0.77021,1.11267 -0.97506,1.55839 -0.51,1.10968 -2.56764,2.95371 -4.0644,3.64248 -1.07022,0.49249 -1.81708,0.58161 -5.53658,0.66065 l -4.29948,0.0914 v 1.92061 c 0,1.61703 0.0881,2.00027 0.55732,2.42463 0.30653,0.27721 0.77119,0.92075 1.03258,1.43007 0.9668,1.88378 2.20434,2.49107 6.74447,3.30968 1.30969,0.23615 2.78899,0.66788 3.28734,0.95942 l 0.90608,0.53005 1.73975,-0.53883 c 0.95686,-0.29636 2.85826,-0.66631 4.22533,-0.82213 2.92598,-0.33349 5.02357,-0.98683 7.56859,-2.3574 1.01864,-0.54857 2.56646,-1.27844 3.43958,-1.62193 1.79734,-0.70707 4.73143,-2.73806 5.93359,-4.10724 l 0.80525,-0.91713 -0.62781,-1.64902 c -0.3453,-0.90696 -1.18624,-2.83964 -1.86876,-4.29485 -0.68251,-1.45521 -1.81799,-4.01505 -2.52328,-5.68854 -0.70529,-1.67349 -1.89969,-4.35239 -2.65421,-5.95312 -1.31354,-2.78669 -3.68371,-8.53169 -4.09339,-9.92188 -0.10721,-0.3638 -0.58516,-1.37583 -1.06211,-2.24896 -1.53871,-2.81685 -6.47699,-16.40132 -6.47699,-17.81725 0,-0.28706 -0.23107,-0.57 -0.52916,-0.64795 -0.32004,-0.0837 -0.52917,-0.3609 -0.52917,-0.70143 0,-0.30967 -0.52536,-1.89839 -1.16747,-3.53049 -1.25532,-3.19075 -4.18108,-11.8572 -7.40533,-21.9354 -1.74781,-5.46324 -3.63701,-12.05597 -6.5439,-22.83623 -2.55848,-9.48815 -6.75176,-29.25767 -7.49207,-35.32187 -0.82216,-6.73466 -1.7327,-15.59219 -1.99448,-19.4019 -0.35188,-5.12083 -0.35275,-20.61583 -10e-4,-25.84185 0.95091,-14.146141 3.33367,-27.612185 6.38621,-36.091371 0.58108,-1.614068 1.41424,-4.006232 1.85148,-5.315919 0.43723,-1.309688 1.15785,-3.33375 1.60136,-4.497917 1.18314,-3.105606 6.39662,-13.722999 7.44594,-15.163857 0.4968,-0.68217 1.16935,-1.776091 1.49457,-2.430935 0.97554,-1.964354 1.9683,-3.438607 2.31587,-3.43911 0.17995,-2.6e-4 0.50495,-0.425936 0.72222,-0.945946 0.21728,-0.52001 0.86119,-1.475038 1.43091,-2.122283 0.56973,-0.647245 1.59358,-2.000564 2.27523,-3.007375 1.41036,-2.083156 3.47947,-4.543213 6.97748,-8.295836 2.41731,-2.593268 2.99473,-3.602496 2.50518,-4.378608 -0.14274,-0.226282 -1.20326,-0.779989 -2.35671,-1.230459 -2.90176,-1.13326 -6.72119,-3.185198 -8.19353,-4.401874 -0.67762,-0.559951 -1.49762,-1.018092 -1.82222,-1.018092 -0.37276,0 -0.7012,-0.243669 -0.89156,-0.661458 -0.19233,-0.422133 -0.51882,-0.661926 -0.90236,-0.66275 -1.16545,-0.0025 -7.61244,-3.7940192 -7.61244,-4.4769206 0,-0.1199781 -0.33194,-0.2845284 -0.73763,-0.3656673 -1.34839,-0.2696768 -8.34926,-5.1398609 -12.66947,-8.8135688 -1.13907,-0.968608 -2.36869,-1.949839 -2.73249,-2.180513 -0.92344,-0.585519 -7.46517,-6.4606383 -8.30496,-7.4586623 -0.37998,-0.451583 -0.69087,-0.987462 -0.69087,-1.190841 0,-0.203379 -0.32742,-0.542778 -0.72761,-0.75422 -1.38803,-0.733386 -8.95084,-9.027532 -10.51827,-11.535399 -0.40928,-0.654844 -1.32862,-1.845469 -2.04298,-2.645833 -0.71436,-0.800365 -1.71994,-2.326904 -2.23461,-3.392309 -0.51468,-1.065405 -1.10039,-2.000268 -1.30158,-2.077472 -0.54863,-0.210529 -2.22495,-3.022086 -2.22495,-3.731727 0,-0.340508 -0.35215,-1.058608 -0.78255,-1.595778 -1.63925,-2.045882 -5.47188,-10.74076 -7.36977,-16.719381 -4.60597,-14.50943 -4.17842,-30.32529 1.21597,-44.980968 1.73677,-4.71851 2.7448,-6.91411 4.1293,-8.99404 0.62962,-0.94588 1.64098,-2.57933 2.24747,-3.62987 0.60649,-1.05055 1.5047,-2.21671 1.99604,-2.59147 0.49133,-0.37476 0.96683,-0.9742 1.05665,-1.33209 0.1919,-0.76459 3.83028,-4.48932 4.63461,-4.7446 0.30408,-0.0965 0.49779,-0.26462 0.43046,-0.37356 -0.41074,-0.66458 1.98386,-2.93549 3.09785,-2.93783 0.25826,-5.5e-4 0.58273,-0.29865 0.72105,-0.66245 0.13832,-0.3638 0.42997,-0.66146 0.64812,-0.66146 0.21814,0 1.208,-0.69832 2.19967,-1.55183 1.92532,-1.65708 3.36509,-2.5329 3.76129,-2.28803 0.13395,0.0828 0.36631,-0.0789 0.51637,-0.35928 0.15006,-0.28039 1.19783,-0.89044 2.32838,-1.35568 1.13055,-0.46524 2.56649,-1.12651 3.19098,-1.46949 0.62448,-0.34297 1.31353,-0.55525 1.5312,-0.47172 0.21768,0.0835 0.59971,-0.0276 0.84895,-0.24693 1.32866,-1.16926 5.79975,-2.81633 9.81834,-3.6169 2.09773,-0.4179 4.24908,-0.53623 12.33066,-0.6782 6.04835,-0.10625 10.90184,-0.0683 12.7,0.0992 3.19487,0.29769 7.49956,1.31844 9.18392,2.17773 0.59291,0.30248 1.47841,0.59963 1.96778,0.66033 1.08234,0.13424 5.62358,1.92016 7.69967,3.02802 0.97894,0.5224 1.72468,0.75429 2.1126,0.65692 0.38533,-0.0967 0.60254,-0.0305 0.60789,0.18529 0.0116,0.46991 1.02436,1.15513 2.66019,1.79991 0.76601,0.30194 2.29466,1.16829 3.39701,1.92522 1.10235,0.75694 2.45126,1.60293 2.99758,1.87998 2.14164,1.08608 6.8119,5.62677 6.8119,6.62291 0,0.17256 0.92651,0.74744 2.0589,1.27751 1.77034,0.82868 2.09481,1.08579 2.31511,1.8345 0.20439,0.69466 0.47021,0.94043 1.31453,1.21535 0.58209,0.18954 1.44351,0.71718 1.91427,1.17254 0.47076,0.45536 0.93159,0.75227 1.02406,0.6598 0.36769,-0.36768 0.64534,-2.9139 0.89831,-8.23791 0.46958,-9.88262 0.89658,-13.32566 2.53467,-20.43751 1.60078,-6.94985 4.12338,-13.8118 7.82515,-21.28589 3.81963,-7.71205 5.06902,-9.37866 12.77312,-17.03856 4.03553,-4.01237 7.24582,-6.97889 8.16027,-7.54062 0.82912,-0.50932 2.49144,-1.56333 3.69404,-2.34224 2.56348,-1.66034 5.07061,-2.96752 5.86032,-3.05548 0.30775,-0.0343 0.81961,-0.20303 1.13746,-0.37501 0.31786,-0.17198 0.88341,-0.31269 1.25677,-0.31269 0.44826,0 0.67886,-0.14501 0.67886,-0.4269 0,-0.33136 0.19245,-0.39842 0.85989,-0.29962 0.65953,0.0976 0.99105,-0.0137 1.42274,-0.47773 0.6777,-0.72849 1.76617,-1.05625 5.25799,-1.58328 2.67949,-0.40442 4.26905,-0.80548 4.77708,-1.2053 1.10408,-0.86891 13.58401,-1.24237 18.24167,-0.54587 4.08634,0.61106 9.40073,1.80688 12.56844,2.82808 3.16352,1.01986 7.37734,2.86374 8.70504,3.80914 0.42275,0.30102 1.04903,0.54731 1.39174,0.54731 0.34272,0 0.76859,0.23294 0.94639,0.51764 0.17779,0.2847 0.78788,0.64274 1.35574,0.79565 1.24546,0.33536 1.66152,0.79134 1.86562,2.04459 0.13241,0.81304 0.26639,0.9608 0.93585,1.03214 1.11402,0.11871 4.09992,1.69333 4.56924,2.4096 0.24699,0.37695 0.33137,0.86365 0.22394,1.29167 -0.1625,0.64745 -0.1275,0.67695 0.61086,0.51478 1.1281,-0.24777 2.57303,0.57984 4.73516,2.71215 1.94202,1.91524 3.32193,3.96498 3.19369,4.74396 -0.10733,0.65193 0.24181,1.13574 0.81958,1.13574 0.26552,0 0.88357,0.4617 1.37345,1.02599 1.81244,2.08777 3.66881,4.4996 3.66881,4.7666 0,0.15134 0.52925,0.87107 1.17611,1.59941 0.64687,0.72833 1.29011,1.73707 1.42942,2.24163 0.13932,0.50457 0.562,1.32211 0.93929,1.81676 0.37729,0.49465 0.61871,0.96663 0.53649,1.04885 -0.0822,0.0822 0.12672,0.64466 0.46429,1.24987 3.55183,6.36785 4.37896,8.10159 5.90549,12.37842 1.99847,5.59908 2.84803,7.75115 3.12826,7.92433 0.36832,0.22764 1.20791,-0.89041 2.69202,-3.58484 0.6934,-1.25889 1.88299,-3.24139 2.64352,-4.40556 0.76053,-1.16417 1.45467,-2.41432 1.54252,-2.77813 0.0879,-0.3638 0.92155,-1.61395 1.85267,-2.77812 0.93112,-1.16417 1.93638,-2.59568 2.23391,-3.18115 0.69987,-1.37717 3.20408,-4.65209 4.86515,-6.36247 0.71658,-0.73784 1.39898,-1.69034 1.51646,-2.11667 0.13993,-0.50782 0.37284,-0.76107 0.67539,-0.73436 0.29208,0.0258 0.59518,-0.27845 0.8247,-0.82777 0.50855,-1.21714 2.91066,-3.77235 4.13213,-4.39549 0.56242,-0.28693 2.06961,-1.50043 3.3493,-2.69668 3.75178,-3.50712 7.12234,-6.17239 8.22263,-6.50205 0.63934,-0.19155 1.07346,-0.50365 1.1598,-0.83381 0.0833,-0.31841 0.36104,-0.52768 0.70042,-0.52768 0.95054,0 2.4815,-0.7725 3.50243,-1.76729 0.7766,-0.75671 1.11985,-0.91957 1.70314,-0.80806 0.55939,0.10693 0.84917,-0.0112 1.23707,-0.50434 0.9559,-1.21523 5.96422,-3.27031 7.9699,-3.27031 0.48264,0 1.22377,-0.27814 1.72349,-0.64682 1.34218,-0.99023 6.56357,-2.07973 13.38129,-2.79215 4.24148,-0.44321 15.00273,-0.0699 19.18229,0.66549 0.50932,0.0896 1.69995,0.50996 2.64583,0.9341 0.94589,0.42414 2.83552,1.00937 4.19918,1.30052 2.38124,0.50841 3.81107,1.07288 6.38416,2.52035 0.65484,0.36838 1.70835,0.79536 2.34113,0.94885 0.69462,0.16849 1.50357,0.63215 2.04154,1.17011 0.49006,0.49007 1.65179,1.25411 2.58162,1.69788 0.92982,0.44376 2.55603,1.58286 3.61379,2.53134 1.05776,0.94848 2.16528,1.7245 2.46114,1.7245 0.88519,0 3.31661,2.06456 3.85752,3.27549 0.26783,0.59958 1.51758,2.22123 2.77723,3.60368 1.25965,1.38245 2.49777,2.95695 2.75138,3.4989 0.25361,0.54195 0.64871,0.98843 0.87801,0.99219 0.80052,0.0131 3.27445,3.4476 3.57837,4.96776 0.12061,0.60328 0.31996,0.8599 0.66801,0.8599 0.35816,0 0.49609,0.19171 0.49609,0.68953 0,0.37924 0.33996,1.12338 0.75547,1.65364 1.06344,1.35716 1.25165,1.7756 1.85108,4.11552 0.33505,1.30788 0.77342,2.32854 1.18867,2.7676 0.91129,0.96353 2.87431,6.99472 3.71409,11.41121 1.10447,5.80853 1.5377,9.61227 1.7156,15.06279 l 0.1678,5.14093 0.69425,0.18508 c 0.38183,0.1018 2.88214,0.2642 5.55625,0.36088 8.17389,0.29554 13.21812,0.68936 14.3684,1.12179 0.59231,0.22267 2.1921,0.74274 3.55508,1.15571 1.36299,0.41298 2.73221,0.98088 3.04271,1.26201 0.31051,0.28113 1.32358,0.76235 2.25127,1.06938 0.92769,0.30702 2.10282,0.87561 2.61139,1.26352 0.50857,0.3879 1.12631,0.71811 1.37274,0.73378 0.24644,0.0157 0.83982,0.47499 1.31863,1.02069 0.50056,0.5705 1.11298,0.99219 1.44096,0.99219 0.31372,0 0.71912,0.23812 0.90088,0.52916 0.18175,0.29105 0.46602,0.52917 0.6317,0.52917 0.80994,0 5.66778,4.96364 8.15674,8.33438 1.3011,1.762053 4.76671,7.862193 4.76671,8.390333 0,0.23006 0.42333,1.3097 0.94074,2.399216 1.49993,3.158431 2.56525,9.366652 2.57523,15.007326 0.0142,8.045548 -1.96717,16.567116 -5.28745,22.740167 -0.66945,1.244626 -1.63027,3.096395 -2.13517,4.115041 -0.92288,1.861925 -2.99524,4.614713 -4.77671,6.345048 -0.70763,0.687323 -1.18951,0.930994 -1.84112,0.930994 -0.85922,0 -0.8717,0.01558 -0.47073,0.588038 0.4814,0.687292 0.53727,1.442733 0.11706,1.582802 -0.16214,0.05405 -0.33087,0.426744 -0.37494,0.828211 -0.11784,1.073481 -1.07534,2.223233 -5.79298,6.956124 -2.97112,2.980725 -4.67027,4.476592 -5.63777,4.963274 -0.98426,0.495118 -1.53268,0.98298 -1.89581,1.686491 -0.85761,1.661494 -3.34079,3.767976 -4.44179,3.767976 -0.3263,0 -0.72072,0.238125 -0.87648,0.529167 -0.15576,0.291042 -0.43974,0.529167 -0.63107,0.529167 -0.19133,0 -0.87141,0.379253 -1.5113,0.842785 -0.63989,0.463531 -1.40189,0.858966 -1.69334,0.878744 -0.32764,0.02223 -0.73833,0.432069 -1.07592,1.073692 -0.43145,0.820032 -0.73674,1.069987 -1.4552,1.191481 -1.33497,0.225745 -3.06262,1.197149 -3.72675,2.09544 -0.31969,0.432401 -1.00715,0.923054 -1.52769,1.09034 -0.52054,0.167286 -2.07753,0.839135 -3.45998,1.492999 -5.98991,2.8330793 -6.91337,3.2410293 -7.34699,3.2456103 -0.25202,0.0027 -1.47025,0.430827 -2.70718,0.951477 -4.57769,1.926853 -5.46723,2.256184 -7.40833,2.742779 -4.20751,1.054739 -8.92508,2.574253 -10.31875,3.32363668 -1.21194,0.6516672 -1.46798,0.9151661 -1.53163,1.5762242 -0.065,0.67574992 0.20045,1.06802852 1.78594,2.63873732 1.0243,1.014743 1.86236,2.0415186 1.86236,2.2817234 0,0.2402049 0.63057,1.1434286 1.40126,2.0071639 1.97206,2.2101239 2.63363,3.2020632 2.63363,3.9487692 0,0.505118 0.10563,0.614121 0.47998,0.495307 0.32868,-0.104317 0.57846,0.03933 0.79236,0.455688 0.17181,0.334415 0.75362,1.143809 1.29291,1.798653 3.05222,3.706229 9.27486,14.356434 9.27486,15.874164 0,0.296398 0.52395,1.042918 1.16434,1.658933 0.98142,0.94407 1.2749,1.483732 1.86809,3.435132 0.38707,1.273307 0.80543,2.315104 0.92969,2.315104 0.56104,0 5.03371,9.770025 5.03371,10.995536 0,0.237683 0.24032,0.769648 0.53404,1.182145 0.29373,0.412496 1.01734,2.276344 1.60802,4.141885 0.59069,1.865541 1.46951,4.522986 1.95293,5.905434 2.47118,7.066907 3.42097,10.588161 3.18919,11.823657 -0.0904,0.481989 -0.0544,0.876343 0.0801,0.876343 0.53054,0 1.20334,2.518932 3.3488,12.537786 0.78258,3.654478 1.78745,8.847162 2.23305,11.539297 0.72714,4.393119 2.72978,21.479549 3.44221,29.368749 1.55719,17.24402 1.72164,43.39607 0.45753,72.76041 -0.37274,8.65849 -0.75297,17.72987 -0.84495,20.15862 l -0.16725,4.4159 0.88058,0.13426 c 0.48431,0.0738 1.58666,0.20361 2.44966,0.28837 0.863,0.0848 1.94625,0.38722 2.40724,0.67212 1.28421,0.79369 5.21525,1.09798 12.97638,1.00447 l 6.89854,-0.0831 2.36188,-1.19063 c 1.77843,-0.89651 2.4534,-1.3867 2.7324,-1.98437 0.20379,-0.43656 0.7048,-1.17914 1.11335,-1.65017 0.94742,-1.09232 1.39151,-2.73211 1.15929,-4.28066 -0.24812,-1.65456 -0.80421,-2.62814 -1.6178,-2.83234 -0.66659,-0.1673 -1.1117,-0.0637 -3.49774,0.81422 -0.70361,0.25889 -1.48856,0.35932 -2.02371,0.25892 -0.67157,-0.12599 -0.93426,-0.0568 -1.13308,0.29849 -0.24163,0.43177 -0.3138,0.42335 -1.08624,-0.12667 -0.71646,-0.51017 -0.84879,-0.53344 -0.98691,-0.1735 -0.2322,0.60509 -0.57884,0.51722 -1.64202,-0.41627 -0.52114,-0.45757 -1.46087,-1.05902 -2.08829,-1.33655 -0.62741,-0.27754 -1.33739,-0.8259 -1.57772,-1.21858 -1.16179,-1.89827 -1.56681,-2.4132 -1.98388,-2.52227 -0.9077,-0.23736 -1.40994,-2.84481 -1.40994,-7.31983 0,-3.92964 0.0301,-4.16186 0.71956,-5.55625 1.68324,-3.40412 5.86995,-7.74007 9.31488,-9.6469 3.55468,-1.96758 8.64722,-2.92768 14.40722,-2.7162 5.63367,0.20685 8.92776,1.15728 11.53682,3.32865 0.72494,0.60332 1.57214,1.09695 1.88268,1.09695 0.79204,0 4.22655,1.76164 4.79943,2.46173 0.26147,0.31954 0.92318,0.80986 1.47045,1.08961 1.11916,0.57206 4.35,3.84327 6.55325,6.63512 1.92673,2.44147 5.85366,9.05969 6.71134,11.31094 0.37422,0.98226 0.97285,2.55089 1.33028,3.48583 1.8639,4.87551 2.46594,15.91816 1.30456,23.92846 -0.47162,3.25289 -1.52534,7.47221 -2.18957,8.76748 -0.26119,0.50932 -0.5573,1.44858 -0.65804,2.08723 -0.40047,2.53904 -4.50823,11.21986 -6.04613,12.77715 -0.57936,0.58666 -0.92547,1.15686 -0.83899,1.38221 0.21962,0.57231 -0.71272,2.44137 -2.24133,4.49322 -0.7466,1.00215 -1.35745,1.97154 -1.35745,2.15419 0,0.18266 -0.51085,0.91052 -1.13522,1.61749 -0.62438,0.70696 -1.95949,2.35695 -2.96693,3.66663 -2.33526,3.0359 -6.20305,6.93157 -7.10728,7.15852 -0.45315,0.11373 -0.69682,0.35438 -0.69682,0.68818 0,1.2031 -6.375,6.57309 -7.80326,6.57309 -0.41829,0 -0.69996,0.24323 -0.93288,0.80556 -0.46643,1.12605 -2.9135,3.23275 -5.41907,4.66533 -1.16417,0.66562 -2.43738,1.55244 -2.82936,1.97071 -0.48706,0.51973 -0.97149,0.76049 -1.53017,0.76049 -0.58226,0 -1.08527,0.26778 -1.74814,0.93065 -0.55915,0.55915 -1.4058,1.05773 -2.12097,1.24901 -0.79835,0.21353 -1.40124,0.59488 -1.8308,1.15805 -0.42048,0.55129 -1.30201,1.11779 -2.56655,1.64936 -1.05935,0.44532 -5.41463,2.5415 -9.6784,4.65818 -4.26376,2.11667 -7.97477,3.8485 -8.24667,3.8485 -0.2719,0 -1.36391,0.41672 -2.42669,0.92604 -1.06278,0.50932 -2.31989,0.92604 -2.79359,0.92604 -0.62671,0 -0.97929,0.18014 -1.29466,0.66146 -0.23837,0.3638 -0.62796,0.66146 -0.86574,0.66146 -0.23778,0 -2.27792,0.61832 -4.53363,1.37405 -2.25572,0.75572 -6.24125,1.91658 -8.85675,2.57968 l -4.75544,1.20564 -0.34961,2.11667 c -0.19228,1.16417 -0.59453,2.62579 -0.89389,3.24806 -0.34032,0.70739 -0.48311,1.37518 -0.38103,1.78191 0.11192,0.44591 0.008,0.80548 -0.32943,1.14321 -0.33971,0.33971 -0.58305,1.19259 -0.78366,2.74672 -0.16004,1.23972 -0.5933,3.11937 -0.96282,4.17701 -0.36952,1.05764 -0.727,2.47257 -0.79441,3.14429 -0.29699,2.95959 -6.3947,20.33194 -7.83122,22.31111 -0.58705,0.80881 -0.65254,1.17931 -0.23319,1.3191 0.41748,0.13916 -0.3969,2.37471 -3.21005,8.81192 -6.79391,15.54617 -14.36459,30.05814 -18.10517,34.70515 -0.80014,0.99405 -1.45632,1.92977 -1.45816,2.0794 -0.007,0.57021 -1.88124,4.15636 -3.20503,6.13249 -1.85758,2.773 -3.37754,4.57533 -4.08551,4.8445 -0.39036,0.14841 -0.64272,0.53382 -0.76045,1.16138 -0.37522,2.00011 -4.20345,6.77187 -5.43285,6.77187 -0.4321,0 -0.50753,0.17199 -0.47151,1.07511 0.0398,0.99916 -0.0733,1.1826 -1.60152,2.59679 -0.90442,0.83693 -1.64439,1.70418 -1.64439,1.92723 0,1.2962 -14.02173,15.56754 -15.29526,15.56754 -0.20164,0 -1.18343,0.78858 -2.18178,1.7524 -1.13783,1.09848 -1.95998,1.69682 -2.20326,1.60346 -0.23329,-0.0895 -0.56129,0.11539 -0.82226,0.51368 -0.97024,1.48078 -9.2383,6.15012 -14.02557,7.92087 -1.45521,0.53826 -2.76489,1.06903 -2.91041,1.17949 -0.93485,0.70958 -7.88638,2.48545 -13.0114,3.32395 -3.0028,0.49128 -14.64577,0.72775 -18.47402,0.3752 z m 15.00761,-12.82968 c 5.87037,-0.56237 9.28442,-1.35303 14.75801,-3.41779 1.38245,-0.5215 2.63261,-0.94991 2.77813,-0.95204 1.18169,-0.0173 4.5779,-2.37939 11.37708,-7.91285 7.13107,-5.80358 14.19862,-12.75225 15.76667,-15.50148 0.41499,-0.7276 1.12392,-1.56104 1.57539,-1.85208 0.45147,-0.29105 1.06328,-1.00542 1.35959,-1.5875 0.29631,-0.58209 1.89489,-2.43859 3.5524,-4.12556 2.3388,-2.38037 3.01366,-3.22704 3.01366,-3.78086 0,-0.99084 0.83786,-2.55602 2.77852,-5.19046 2.52118,-3.4225 4.13095,-5.89315 6.20604,-9.525 1.98352,-3.47156 8.87263,-17.14222 14.06658,-27.91354 1.68409,-3.4925 3.3865,-6.73474 3.78314,-7.20499 0.48407,-0.57389 0.66712,-1.02527 0.55677,-1.37294 -0.11126,-0.35054 -0.006,-0.60288 0.32646,-0.78066 0.37172,-0.19894 0.46481,-0.48577 0.38356,-1.18178 -0.16032,-1.37325 0.64994,-3.83155 1.56424,-4.74585 0.51022,-0.51022 0.87063,-1.21961 1.02191,-2.01141 0.12854,-0.67276 0.53404,-1.87805 0.90112,-2.67841 0.36709,-0.80037 0.91882,-2.46724 1.22608,-3.70417 0.30726,-1.23693 0.73345,-2.94688 0.94708,-3.79991 0.21364,-0.85302 0.79954,-2.60302 1.302,-3.88889 0.56865,-1.45526 1.00418,-3.14781 1.15356,-4.483 0.14669,-1.31114 0.40583,-2.3283 0.66659,-2.61644 0.29098,-0.32153 0.37577,-0.72558 0.26671,-1.2709 -0.1105,-0.55252 0.0577,-1.32187 0.54447,-2.49049 0.90771,-2.17917 1.14042,-4.52205 0.58192,-5.85873 -0.45081,-1.07894 -1.17236,-1.30795 -1.78712,-0.5672 -0.19374,0.23344 -0.65481,0.54187 -1.02459,0.68539 -0.67579,0.2623 -7.80187,1.82938 -11.25566,2.47522 -5.99216,1.12049 -22.73317,1.45154 -28.44271,0.56244 -4.18768,-0.6521 -10.60234,-1.92138 -12.83229,-2.53913 -1.01865,-0.28219 -3.50277,-0.87526 -5.52027,-1.31793 -3.83015,-0.8404 -4.40161,-1.08842 -4.40161,-1.91033 0,-0.40142 -0.19892,-0.49677 -1.0364,-0.49677 -0.57002,0 -1.61181,-0.2483 -2.3151,-0.55178 -0.70329,-0.30348 -1.78301,-0.58718 -2.39937,-0.63044 -1.73352,-0.12168 -4.67272,-1.17119 -7.9687,-2.84541 -1.97404,-1.00273 -3.55199,-1.61414 -4.60242,-1.78331 -1.93267,-0.31124 -4.09731,-1.00503 -4.33483,-1.38934 -0.0954,-0.15436 0.081,-0.47268 0.39208,-0.70737 0.54999,-0.415 0.53469,-0.42741 -0.55726,-0.45195 -1.39484,-0.0313 -2.96014,-0.81551 -4.68399,-2.34654 -1.5522,-1.37857 -1.77148,-1.50656 -3.80692,-2.22196 -2.04687,-0.71941 -5.75585,-3.22018 -11.0477,-7.44888 -2.38609,-1.90672 -4.84915,-3.7715 -5.47347,-4.14397 -1.08989,-0.65023 -1.15569,-0.6586 -1.65129,-0.21009 -0.2839,0.25692 -1.07806,1.4319 -1.76482,2.61107 -2.88169,4.94789 -6.67921,10.45348 -9.69119,14.05018 -2.24415,2.67981 -5.82027,6.22355 -6.7136,6.65283 -0.46623,0.22404 -1.24014,0.94267 -1.7198,1.59697 -2.81769,3.84359 -7.77884,8.63934 -10.31449,9.97062 -0.71084,0.37321 -1.46345,1.08766 -1.99649,1.89525 -0.47055,0.71293 -1.18492,1.46454 -1.5875,1.67025 -0.40257,0.2057 -1.51672,1.06546 -2.47587,1.91057 -2.06114,1.81607 -4.62808,3.42167 -5.47187,3.42262 -0.3762,4.3e-4 -1.11887,0.52792 -1.98438,1.40944 -1.74137,1.77358 -4.43059,3.68043 -6.44446,4.56958 -0.85431,0.37719 -2.66152,1.33746 -4.01603,2.13392 -3.30651,1.94426 -6.05166,3.24115 -7.28136,3.43993 -0.71815,0.11608 -1.07844,0.33625 -1.23829,0.75668 -0.16987,0.4468 -0.70281,0.73733 -2.16215,1.17869 -1.06519,0.32216 -2.88921,1.09847 -4.05337,1.72513 -2.28329,1.22909 -10.31169,3.9143 -14.94896,4.9999 -3.61999,0.84744 -8.24001,1.65858 -11.34233,1.99137 -4.49495,0.48218 -4.72918,1.27872 -1.64006,5.57729 0.67975,0.94589 2.10071,3.11833 3.1577,4.82764 1.05698,1.70932 2.38785,3.67385 2.95748,4.36563 2.81565,3.41944 5.17733,6.70712 5.84512,8.13694 0.40778,0.87313 1.13199,2.07531 1.60936,2.67153 7.89971,9.86647 9.33168,11.52312 18.73113,21.67014 1.75239,1.89177 3.37179,3.73724 3.59865,4.10104 0.22687,0.3638 0.86429,0.87291 1.4165,1.13136 1.00204,0.46897 2.38936,2.12559 2.38936,2.85317 0,0.21132 0.32743,0.53091 0.72761,0.7102 0.73794,0.33062 2.18142,1.47063 8.0485,6.35643 3.08667,2.57041 4.33587,3.68817 5.24681,4.69476 0.21828,0.24119 1.38187,1.05352 2.58575,1.80516 1.20388,0.75165 4.25867,2.82481 6.78842,4.60702 5.49564,3.87171 9.24648,6.17548 14.98994,9.20687 4.45886,2.35338 6.54108,3.64826 6.7525,4.19921 0.0733,0.19098 0.43545,0.27889 0.88011,0.21363 1.07902,-0.15836 4.74081,0.826 7.25834,1.95118 2.7637,1.23521 4.27449,1.56716 10.08973,2.2169 7.74848,0.86575 10.53234,0.9361 16.06595,0.40598 z m -157.35345,-99.36106 c 4.62408,-0.38773 6.65998,-0.72334 11.25073,-1.85466 8.38068,-2.06529 11.81317,-3.44394 19.49625,-7.83062 2.67022,-1.52458 5.33566,-2.94157 5.9232,-3.14886 0.58754,-0.2073 1.55799,-0.7961 2.15656,-1.30845 0.59856,-0.51235 1.2919,-0.93155 1.54074,-0.93155 0.24884,0 1.16707,-0.52609 2.04052,-1.16908 1.93273,-1.4228 3.02681,-2.00592 3.76357,-2.00592 0.30647,0 0.87793,-0.35101 1.26991,-0.78002 0.73567,-0.80517 2.5186,-1.41894 5.12697,-1.76495 1.65996,-0.2202 2.44332,0.35438 2.18524,1.60286 -0.44724,2.16362 -3.72762,6.93621 -5.27087,7.66853 -0.51957,0.24655 -1.23467,0.90766 -1.58911,1.46913 -0.35444,0.56147 -1.20879,1.47724 -1.89855,2.03505 -2.07597,1.67881 -2.89931,2.54718 -2.53138,2.66982 0.53548,0.1785 5.37218,-0.7497 6.67476,-1.28093 0.65485,-0.26707 1.95627,-0.61859 2.89204,-0.78117 0.93578,-0.16258 2.36453,-0.62873 3.175,-1.0359 0.81048,-0.40717 2.12664,-0.87902 2.9248,-1.04857 0.79817,-0.16954 1.83685,-0.53579 2.30818,-0.81388 0.47134,-0.27809 1.70494,-0.8619 2.74135,-1.29735 1.03641,-0.43546 2.67663,-1.26579 3.64494,-1.84518 0.96831,-0.5794 2.26377,-1.1853 2.87879,-1.34646 0.61503,-0.16115 1.66407,-0.76543 2.3312,-1.34283 0.66713,-0.5774 1.48258,-1.04982 1.81209,-1.04982 0.32952,0 1.29294,-0.53876 2.14093,-1.19724 1.76407,-1.36983 5.75022,-3.82984 6.20579,-3.82984 0.16807,0 1.02438,-0.59819 1.90291,-1.32932 0.87854,-0.73112 2.15325,-1.61396 2.83268,-1.96185 0.67944,-0.34789 1.3785,-0.87008 1.55346,-1.16043 0.17496,-0.29034 0.67558,-0.60641 1.11248,-0.70237 0.45261,-0.0994 0.86469,-0.396 0.9578,-0.68936 0.0899,-0.28319 0.77988,-0.91235 1.53334,-1.39814 0.75347,-0.48579 1.60806,-1.15145 1.8991,-1.47925 0.29104,-0.32781 0.95854,-0.81515 1.48333,-1.083 0.52479,-0.26784 2.704,-2.16018 4.84268,-4.20518 2.13867,-2.045 4.04911,-3.71819 4.24541,-3.71819 0.1963,0 0.57694,-0.40617 0.84587,-0.9026 0.26893,-0.49643 1.54135,-2.01022 2.8276,-3.36396 1.28625,-1.35375 2.55352,-2.88234 2.81615,-3.39688 0.26262,-0.51453 2.06774,-2.78855 4.01136,-5.05337 4.38431,-5.10885 4.22708,-4.91373 4.29306,-5.32784 0.0301,-0.18914 0.44799,-0.87967 0.92857,-1.53451 1.3648,-1.85971 4.79451,-9.18863 4.79451,-10.24535 0,-0.23989 0.24467,-0.69661 0.54372,-1.01493 0.39765,-0.42329 0.60336,-1.13861 0.76574,-2.66289 0.12212,-1.14627 0.40477,-2.50654 0.62811,-3.02282 0.76949,-1.77875 1.51332,-8.38355 1.99504,-17.71483 0.20021,-3.87814 0.49896,-5.29127 1.11866,-5.29127 0.55533,0 1.33188,2.47547 1.96177,6.25365 1.03032,6.17997 1.77646,8.70698 3.6968,12.52028 0.51251,1.0177 0.93183,2.09077 0.93183,2.3846 0,0.29383 0.52559,1.06737 1.16797,1.71898 0.64239,0.65161 1.24708,1.54492 1.34377,1.98513 0.19408,0.88365 1.98526,3.41505 3.26373,4.61251 0.45089,0.42232 1.44508,1.20141 2.20931,1.73131 0.82825,0.57429 1.45147,1.22592 1.5429,1.61325 0.10581,0.44818 0.68334,0.95584 1.8613,1.63612 0.93934,0.54248 1.89446,1.31645 2.12249,1.71994 0.27188,0.48107 1.50148,1.34333 3.57188,2.50479 1.7365,0.97414 3.64675,2.24593 4.245,2.82619 0.7478,0.72532 1.56116,1.19265 2.60265,1.49542 0.83321,0.24222 4.0942,1.88 7.24665,3.63951 3.69593,2.06284 6.90641,3.64071 9.03902,4.44246 1.81901,0.68384 3.90157,1.50307 4.62791,1.82049 0.72634,0.31743 1.97649,0.73218 2.77812,0.92168 0.80163,0.18949 2.59576,0.83313 3.98695,1.4303 1.3912,0.59717 3.1176,1.20823 3.83646,1.35792 0.71886,0.14968 2.43811,0.50689 3.82056,0.79381 1.38245,0.28691 3.82323,0.8187 5.42396,1.18175 6.21616,1.40984 13.86912,2.25138 20.54212,2.25885 4.20234,0.005 7.93826,-0.37324 9.48808,-0.95987 0.23865,-0.0903 -1.07994,-0.8577 -3.30729,-1.92473 -6.07856,-2.912 -11.24479,-6.69005 -11.24479,-8.22331 0,-0.81761 1.0717,-1.10495 4.68873,-1.25711 2.80148,-0.11784 3.32946,-0.0731 3.9516,0.33449 0.42021,0.27533 1.5569,0.55507 2.7402,0.67435 1.14384,0.11532 2.71467,0.49535 3.61664,0.87498 4.59825,1.93538 17.4315,3.25201 29.18825,2.99458 8.02808,-0.17578 9.90819,-0.42567 13.22916,-1.75829 3.64525,-1.46274 5.96484,-2.12694 7.4279,-2.12694 0.98517,0 1.25392,-0.0856 1.14668,-0.36502 -0.16879,-0.43985 0.9271,-1.34871 2.16679,-1.79698 1.82106,-0.65851 1.13078,-0.83979 -4.92053,-1.29225 -6.01895,-0.45005 -9.61489,-1.17806 -10.4664,-2.11897 -0.64461,-0.71229 -0.29501,-1.27754 1.08581,-1.75559 1.23634,-0.42803 6.10312,-0.86323 9.71884,-0.86909 1.42297,-0.002 4.34,-0.18743 6.48229,-0.41141 7.42261,-0.77601 11.99888,-2.01849 17.58787,-4.77519 1.89201,-0.93321 3.65892,-1.69675 3.92647,-1.69675 0.26755,0 0.85185,-0.35719 1.29845,-0.79375 0.4466,-0.43656 1.03232,-0.79375 1.30161,-0.79375 0.26929,0 0.67965,-0.29004 0.91192,-0.64453 0.23227,-0.35449 1.22823,-1.20792 2.21325,-1.89651 3.66614,-2.5629 6.61013,-4.85144 8.53781,-6.63693 3.9318,-3.64182 9.52538,-9.54375 9.90404,-10.45001 0.21264,-0.50891 0.80965,-1.24796 1.3267,-1.64233 0.5454,-0.41599 0.94009,-0.94786 0.94009,-1.26682 0,-0.30238 0.41732,-1.0117 0.92737,-1.57627 1.44091,-1.59492 6.94114,-13.01169 7.82176,-16.23556 0.3975,-1.45521 0.91233,-3.15082 1.14408,-3.76803 1.02416,-2.72762 1.22252,-15.18158 0.32137,-20.17709 -0.39202,-2.17311 -2.1909,-6.79676 -4.01449,-10.31842 -2.58526,-4.99255 -7.47191,-9.39178 -12.55009,-11.29826 -0.94589,-0.35512 -2.41356,-0.95521 -3.2615,-1.33355 -1.52781,-0.68169 -1.56687,-0.68497 -4.33154,-0.3636 -3.19746,0.37168 -6.20926,1.25695 -8.21582,2.41492 -2.50766,1.44714 -1.52113,2.02251 1.96595,1.14658 1.392,-0.34965 1.84739,-0.37348 2.25643,-0.11803 0.28185,0.17602 1.56082,0.54407 2.84216,0.81789 3.31748,0.70895 4.2464,1.13953 4.2464,1.9683 0,0.51446 0.24444,0.79428 1.05515,1.20787 1.10253,0.56247 2.86016,2.57433 3.71794,4.25572 2.6557,5.20559 2.26415,14.12689 -0.7972,18.16402 -0.5771,0.76105 -1.28512,1.84601 -1.57337,2.41103 -0.48578,0.95221 -2.9963,3.48127 -3.45574,3.48127 -0.11124,0 -0.93593,0.58649 -1.83264,1.30329 -0.93479,0.74725 -2.43848,1.61208 -3.52443,2.02705 -1.04172,0.39806 -2.28342,0.98799 -2.75934,1.31096 -2.04705,1.38917 -9.7338,2.63612 -14.51058,2.35393 -3.13999,-0.1855 -8.86476,-0.99592 -12.02547,-1.70238 -5.03657,-1.12573 -8.08288,-2.21401 -10.72869,-3.83279 -0.58209,-0.35614 -1.65365,-0.83591 -2.38125,-1.06617 -2.2401,-0.7089 -6.76697,-3.09925 -7.91042,-4.17697 -0.59698,-0.56267 -1.91886,-1.43741 -2.9375,-1.94385 -1.01865,-0.50645 -2.15626,-1.21101 -2.52802,-1.56569 -0.37177,-0.35468 -0.86223,-0.64488 -1.08992,-0.64488 -0.22769,0 -0.99508,-0.453 -1.70531,-1.00668 -0.71023,-0.55367 -2.15257,-1.51032 -3.20519,-2.12588 -1.05262,-0.61556 -2.0265,-1.32969 -2.16419,-1.58697 -0.13769,-0.25727 -0.8838,-0.80575 -1.65802,-1.21885 -2.10366,-1.12243 -3.04513,-1.89961 -3.23955,-2.67423 -0.12024,-0.47907 -0.29949,-0.64802 -0.57525,-0.5422 -0.68678,0.26355 -1.99842,-0.47691 -4.73855,-2.67504 -3.31647,-2.66046 -4.2213,-3.60972 -3.99727,-4.19353 0.13603,-0.3545 0.0541,-0.41411 -0.4042,-0.29425 -0.82436,0.21558 -1.95604,-0.34972 -4.00769,-2.00194 -0.98807,-0.79571 -2.26324,-1.58658 -2.83372,-1.7575 -0.66657,-0.19971 -1.19964,-0.58572 -1.49173,-1.08019 -0.24999,-0.42318 -0.72433,-0.83714 -1.05409,-0.91991 -0.32977,-0.0828 -1.7671,-0.97238 -3.19407,-1.97692 -3.34823,-2.35705 -9.7843,-6.23501 -11.98719,-7.22271 -0.94588,-0.4241 -1.95792,-1.04854 -2.24896,-1.38765 -0.30786,-0.35871 -0.94403,-0.67673 -1.52118,-0.76043 -1.42445,-0.20659 -4.39854,-1.74094 -5.02996,-2.59499 -0.42806,-0.57899 -0.68678,-0.69869 -1.26161,-0.58372 -0.45038,0.0901 -0.98416,-0.0264 -1.4152,-0.30884 -0.38064,-0.2494 -2.03194,-0.73146 -3.66956,-1.07123 -1.63762,-0.33977 -3.81093,-0.86584 -4.82957,-1.16903 -4.49116,-1.33675 -14.63787,-2.05038 -22.80597,-1.60397 -5.95937,0.3257 -10.06661,0.95031 -15.94354,2.42461 -2.249,0.56419 -4.4177,1.0258 -4.81934,1.0258 -0.43145,0 -0.83416,0.19418 -0.98423,0.47458 -0.13969,0.26101 -0.94755,0.69316 -1.79524,0.96033 -0.8477,0.26716 -2.18475,0.91681 -2.97122,1.44365 -0.78648,0.52685 -1.73898,1.16564 -2.11667,1.41953 -0.37769,0.2539 -0.89232,0.46226 -1.14363,0.46302 -0.25131,7.7e-4 -0.65195,0.29905 -0.89033,0.66285 -0.23837,0.36381 -0.66352,0.66146 -0.94477,0.66146 -0.28125,0 -0.77358,0.28111 -1.09405,0.62469 -0.32047,0.34358 -0.85912,0.7115 -1.19699,0.81761 -1.42731,0.44824 -5.76204,4.37456 -7.09779,6.42906 -0.58003,0.89213 -1.08771,1.38906 -1.41911,1.38906 -0.34679,0 -0.56973,0.23859 -0.67986,0.7276 -0.5151,2.28717 -0.77062,2.86554 -1.72187,3.89753 -0.73716,0.79972 -1.16703,1.59231 -1.44739,2.66868 -0.45614,1.75125 -1.68852,4.44956 -2.50806,5.49144 -1.09004,1.38575 -1.92782,0.94751 -6.69993,-3.5047 -3.05959,-2.85449 -4.04937,-3.59951 -6.79553,-5.11511 -0.95247,-0.52566 -2.43179,-1.49934 -3.28739,-2.16372 -0.8556,-0.66438 -1.78227,-1.20797 -2.05927,-1.20797 -0.277,0 -2.31001,-0.58839 -4.51781,-1.30754 -5.82843,-1.89848 -6.3491,-1.96476 -15.39126,-1.95917 -13.33322,0.008 -18.15255,0.87647 -28.26677,5.09244 -1.43121,0.59658 -2.87063,1.08468 -3.19873,1.08468 -0.67254,0 -5.53388,2.40212 -6.36076,3.14302 -0.29608,0.26529 -2.69854,1.93258 -5.3388,3.70509 -3.29173,2.20986 -5.84878,4.18356 -8.13594,6.27986 -1.8345,1.68143 -3.33623,3.13619 -3.33716,3.23281 -9.3e-4,0.0966 -0.88208,1.09842 -1.9581,2.2262 -1.255,1.31539 -2.16037,2.05052 -2.52534,2.05052 -0.39997,0 -0.68369,0.27461 -0.95526,0.92458 -0.22472,0.53782 -0.81829,1.19727 -1.41898,1.57647 -1.1713,0.73941 -1.87187,1.61761 -1.87187,2.34646 0,0.27304 -0.33718,0.8121 -0.74928,1.1979 -0.41211,0.38581 -0.832,1.0325 -0.9331,1.4371 -0.13195,0.52806 -0.39327,0.77752 -0.92611,0.88409 -0.54671,0.10934 -0.82993,0.39083 -1.07493,1.06836 -0.18295,0.50595 -1.64224,2.65821 -3.24287,4.78279 -1.60062,2.12459 -3.00739,4.11846 -3.12615,4.43083 -0.11876,0.31237 -0.97141,1.49543 -1.89477,2.62903 -3.30555,4.05819 -3.65577,4.52387 -3.65947,4.86584 -0.002,0.19061 -0.59905,0.97602 -1.32666,1.74535 -0.7276,0.76934 -1.32291,1.55362 -1.32291,1.74285 0,0.18924 -0.39915,0.83258 -0.88699,1.42965 -0.48784,0.59707 -1.1009,1.5023 -1.36236,2.01162 -0.26145,0.50932 -1.18503,1.69995 -2.05241,2.64583 -0.86737,0.94589 -1.85842,2.30092 -2.20233,3.01118 -0.3439,0.71025 -1.10477,1.7018 -1.6908,2.20343 -0.58604,0.50162 -1.06553,1.07067 -1.06553,1.26454 0,0.48701 -1.57319,2.42136 -4.57369,5.62369 -1.39662,1.49057 -2.95664,3.33604 -3.46669,4.10104 -1.21093,1.81619 -7.53576,8.2245 -9.09051,9.21049 -0.85673,0.54332 -1.40051,0.72041 -1.85889,0.60536 -0.56396,-0.14154 -0.6253,-0.0913 -0.47334,0.38741 0.30475,0.96019 -2.48456,3.59523 -4.06027,3.8357 -0.32463,0.0495 -0.73249,0.3754 -0.90635,0.72414 -0.42345,0.84935 -2.36833,2.3023 -5.73276,4.28273 -6.50024,3.82629 -13.04348,6.5763 -17.78948,7.4766 -6.89178,1.30735 -15.05301,0.40573 -20.51915,-2.26688 -1.87241,-0.91549 -2.21584,-1.18646 -2.34927,-1.85363 -0.17682,-0.88408 -0.33091,-1.02073 -1.34907,-1.19631 -1.67072,-0.28812 -5.87741,-4.01938 -6.26283,-5.55501 -0.0872,-0.3475 -0.52681,-1.15424 -0.97687,-1.79275 -0.96255,-1.36558 -2.03578,-5.34345 -2.25711,-8.36589 -0.12906,-1.76233 -0.0554,-2.22894 0.65864,-4.16997 1.36805,-3.71912 3.70832,-6.94253 5.04042,-6.94253 0.26343,0 0.70577,-0.25179 0.98298,-0.55953 0.71802,-0.79709 1.4227,-1.01297 5.00195,-1.53237 l 3.175,-0.46075 -2.28864,-1.13506 c -2.06387,-1.0236 -2.4796,-1.13554 -4.23333,-1.1399 -2.18967,-0.005 -6.39547,0.96431 -8.80646,2.03056 -0.85603,0.37858 -2.20589,1.32982 -3.14061,2.21317 -0.90161,0.85208 -2.20105,1.8706 -2.88763,2.26338 -1.2319,0.70476 -2.85271,2.66473 -2.85271,3.44965 0,0.22198 -0.29715,0.84147 -0.66033,1.37665 -0.82939,1.22218 -2.1011,5.17592 -2.50296,7.7817 -0.48425,3.14006 -0.75341,9.41416 -0.5278,12.30312 0.15609,1.99868 0.36836,2.96941 0.86787,3.96875 0.36368,0.72761 0.8438,2.02696 1.06693,2.88746 0.22313,0.86049 0.75103,2.05112 1.17311,2.64583 0.42208,0.59471 1.26775,2.04959 1.87926,3.23307 0.61151,1.18347 1.7655,2.90657 2.56441,3.8291 0.92412,1.06711 1.42462,1.87253 1.37573,2.21386 -0.0543,0.3792 0.23347,0.73772 0.98149,1.22274 0.58208,0.37742 2.62908,2.16335 4.54887,3.96875 4.3781,4.11719 7.16731,6.35858 8.46529,6.80263 0.55482,0.18981 1.31247,0.67722 1.68367,1.08312 0.89385,0.97743 4.7817,3.25711 6.82599,4.00249 0.89711,0.3271 2.54141,1.16955 3.654,1.8721 1.11258,0.70255 2.13061,1.21079 2.26228,1.12941 0.13167,-0.0814 0.7288,0.17591 1.32696,0.57176 0.59815,0.39584 1.39495,0.7356 1.77066,0.75502 0.37571,0.0194 1.09983,0.2877 1.60916,0.59617 1.15611,0.7002 2.22311,1.03917 4.8246,1.53268 1.12556,0.21353 2.55431,0.68146 3.175,1.03985 3.79552,2.19156 22.11568,3.13519 31.82019,1.63897 3.16776,-0.4884 4.74736,-0.89822 7.11883,-1.84696 2.68865,-1.07563 7.56554,-1.08164 7.56554,-0.009 0,0.98618 -7.38111,4.88005 -11.50566,6.06975 -3.52177,1.01583 -3.70249,1.57104 -0.64044,1.96762 2.4481,0.31706 12.27003,0.32624 15.98256,0.0149 z m -25.91672,-77.54441 c 0.57524,-0.59781 1.52273,-1.29545 2.10554,-1.55031 0.90708,-0.39665 1.10604,-0.63678 1.38175,-1.66765 0.25935,-0.96966 0.66309,-1.50523 2.07247,-2.74916 0.96271,-0.8497 1.90559,-1.91548 2.09528,-2.36842 0.1897,-0.45293 1.8202,-2.59605 3.62333,-4.7625 4.28839,-5.15243 4.80606,-5.831 5.52807,-7.24628 0.97158,-1.90449 2.06299,-3.39883 3.94649,-5.40345 1.81255,-1.92912 2.48419,-2.83212 4.63989,-6.23821 0.69074,-1.09141 2.28551,-3.29406 3.54393,-4.89479 2.74152,-3.48726 3.923,-5.13572 4.87944,-6.80801 0.39376,-0.68847 1.4979,-2.17191 2.45365,-3.29653 0.95574,-1.12462 2.27219,-2.79375 2.92542,-3.70917 0.65324,-0.91543 1.3167,-1.66442 1.47437,-1.66442 0.15767,0 0.49613,0.18955 0.75213,0.42123 0.43126,0.39029 0.45495,0.38107 0.32247,-0.12555 -0.2571,-0.98311 1.22961,-2.98328 5.04955,-6.79353 6.13349,-6.11792 10.82958,-9.81524 18.01669,-14.1849 6.76846,-4.11512 6.90772,-4.1903 10.89056,-5.87961 7.33266,-3.11013 17.07485,-5.99293 23.40731,-6.92643 2.53832,-0.37419 4.37264,-0.41949 11.73963,-0.28994 9.79419,0.17224 12.42914,0.41806 14.69243,1.37066 0.85993,0.36194 1.91813,0.65807 2.35157,0.65807 1.48231,0 5.18037,1.37472 10.34385,3.84523 7.01352,3.35568 6.48204,3.19428 7.63651,2.31912 0.52744,-0.39984 3.1741,-2.88149 5.88148,-5.51477 5.61736,-5.46364 8.66628,-7.67526 14.96545,-10.85563 4.37065,-2.20668 10.30513,-4.62541 12.85424,-5.23904 4.78657,-1.15223 4.98696,-1.193 12.10468,-2.46311 3.06927,-0.54769 17.18792,-0.79077 20.94781,-0.36066 3.69547,0.42274 10.57325,1.53257 12.52199,2.02059 7.44017,1.86326 16.98492,5.98152 26.13348,11.27578 6.24765,3.6155 20.42529,13.21962 24.44996,16.56271 0.84671,0.70332 2.19432,1.71298 2.99468,2.24368 0.80036,0.53071 2.52677,1.74844 3.83646,2.70606 1.30969,0.95763 2.97656,2.1225 3.70417,2.58861 0.82588,0.52907 1.5069,1.2241 1.81262,1.84991 0.38661,0.79139 0.56497,0.93997 0.8472,0.70574 0.54547,-0.45269 1.23905,-0.11076 3.62102,1.78514 2.74841,2.18757 3.84684,2.91027 4.76153,3.13285 0.60774,0.14788 0.76372,0.0706 0.97397,-0.48237 0.30672,-0.80672 1.21275,-12.27766 1.76006,-22.28338 0.57419,-10.49725 0.78066,-32.95483 0.40623,-44.18542 -0.65159,-19.54347 -1.77097,-32.88559 -3.75148,-44.71458 -3.8394,-22.931606 -5.53991,-29.971884 -11.0636,-45.804423 -0.86913,-2.491184 -1.7564,-5.38055 -1.9717,-6.420813 -0.24852,-1.200744 -0.58568,-2.058756 -0.92334,-2.349741 -0.71578,-0.616833 -3.94762,-7.582509 -4.16732,-8.981925 -0.11919,-0.759261 -0.37637,-1.247132 -0.80572,-1.528447 -0.36263,-0.237609 -1.31789,-1.78757 -2.24784,-3.647262 -2.1151,-4.229739 -3.49474,-6.582467 -4.31793,-7.363473 -0.367,-0.348194 -0.66933,-0.849267 -0.67184,-1.113495 -0.007,-0.717918 -0.46871,-1.466502 -1.98906,-3.223751 -0.75542,-0.873125 -2.45357,-3.01625 -3.77368,-4.7625 -3.53832,-4.680535 -6.32113,-7.947795 -10.92908,-12.8316854 -4.74088,-5.02477332 -5.80234,-6.38850872 -5.80234,-7.4547373 0,-0.749421 -0.009,-0.754051 -0.65953,-0.32801 -1.14095,0.747578 -3.1109,-0.237607 -3.43614,-1.718438 -0.14127,-0.643197 -0.3619,-0.811815 -1.40628,-1.074795 -1.0211,-0.257114 -1.61031,-0.691954 -3.35374,-2.475041 -1.16326,-1.18972 -2.11807,-2.282189 -2.12179,-2.42771 -0.004,-0.14738 -0.496,-0.225987 -1.11117,-0.177454 -1.61345,0.127292 -2.9778,-0.6025423 -3.47032,-1.8563893 -0.29404,-0.748546 -0.54849,-1.008865 -0.98612,-1.008865 -0.88736,0 -3.41873,-1.026709 -8.9872,-3.64516 -5.15089,-2.422091 -8.61132,-3.80089 -10.71562,-4.269601 -1.42674,-0.317792 -3.48615,-1.031194 -5.81133,-2.013111 -2.06324,-0.871305 -7.07715,-1.698398 -20.91159,-3.449578 -4.19069,-0.530462 -14.32318,-0.900832 -24.73854,-0.90426 -10.51829,-0.0035 -27.34996,0.431207 -30.82396,0.796014 -1.38245,0.145171 -3.52557,0.330777 -4.7625,0.412459 -1.23693,0.08168 -2.96333,0.315955 -3.83646,0.520608 -0.87312,0.204653 -3.07578,0.555615 -4.89479,0.779915 -7.62936,0.940768 -9.86387,1.267862 -13.75834,2.013976 -15.70807,3.009411 -21.71062,4.454432 -25.37635,6.108966 -0.64184,0.289695 -1.89199,0.630839 -2.77812,0.758099 -0.88613,0.12726 -3.87334,0.963157 -6.63823,1.857549 -5.65021,1.827734 -9.45841,2.886207 -10.38407,2.886207 -0.73198,0 -2.08312,0.643086 -2.88028,1.3708973 -0.3104,0.283387 -1.23221,0.689651 -2.04848,0.902808 -0.81626,0.213158 -2.6459,0.927894 -4.06586,1.588303 -1.41995,0.66041 -3.83189,1.62398 -5.35986,2.141267 -2.95949,1.001922 -9.07616,3.91032358 -10.48705,4.98646068 -0.58244,0.4442516 -1.44155,0.73206082 -2.73113,0.91495642 -1.57591,0.2235047 -2.024,0.4063949 -2.75968,1.1263813 -0.48306,0.4727533 -2.17558,1.5040563 -3.76115,2.2917844 -4.40095,2.1864346 -10.57201,5.7371109 -12.99629,7.4777429 -1.19677,0.859275 -2.60806,1.74287 -3.13621,1.963544 -0.52814,0.220674 -1.5135,0.906924 -2.18969,1.524999 -1.64745,1.505878 -2.78702,2.360308 -6.3888,4.790199 -3.74355,2.525542 -5.6935,4.092445 -9.21267,7.402947 -1.50172,1.412667 -3.05951,2.683217 -3.46176,2.823444 -0.40995,0.142907 -0.91529,0.628234 -1.14986,1.1043 -0.40774,0.827526 -1.21211,1.821433 -4.64726,5.742284 -0.91878,1.048689 -1.85004,2.283197 -2.06948,2.743352 -0.21943,0.460154 -0.79203,1.094307 -1.27245,1.409227 -0.49333,0.323387 -0.95449,0.897773 -1.05961,1.31978 -0.10237,0.410959 -0.63224,1.34251 -1.1775,2.070115 -1.40026,1.868546 -3.18674,4.876374 -5.22466,8.796581 -0.96475,1.855838 -2.07621,3.790971 -2.46989,4.300294 -0.39369,0.509322 -0.80415,1.398081 -0.91214,1.975019 -0.10799,0.576939 -0.4838,1.315394 -0.83515,1.641013 -0.40518,0.375505 -0.63882,0.88592 -0.63882,1.395579 0,1.230179 -0.95404,3.467516 -1.81326,4.252288 -0.63301,0.578165 -0.82543,1.052607 -1.08085,2.665055 -0.31595,1.99452 -0.78338,3.650739 -1.97888,7.011629 -0.47861,1.345508 -0.78109,3.063909 -1.07117,6.085417 -0.60887,6.341937 -1.47903,10.720178 -2.41428,12.14755 -0.68934,1.052066 -0.97807,9.920475 -0.80973,24.871235 0.18013,15.99836 0.46345,21.52432 1.38232,26.96093 0.73022,4.3205 1.27724,6.09713 3.10384,10.08074 1.40204,3.05767 1.76785,4.44321 1.46698,5.55625 -0.11801,0.43656 -0.34694,1.69846 -0.50872,2.80422 -0.26746,1.828 -0.24454,2.12819 0.25253,3.3073 0.31859,0.75573 0.65873,2.42741 0.81522,4.00653 0.20146,2.03285 0.50644,3.31854 1.22092,5.147 1.01162,2.58885 2.88573,9.41262 4.75869,17.32669 0.62615,2.64577 1.60765,5.97952 2.18111,7.40833 0.57346,1.42882 1.54672,4.32425 2.1628,6.4343 1.57856,5.40648 2.26399,6.9681 4.1344,9.4195 2.46457,3.23011 2.52378,3.3886 2.33666,6.25459 -0.13662,2.0925 -0.0777,2.68145 0.40364,4.03737 0.30998,0.87313 0.68431,2.53784 0.83184,3.69935 0.19105,1.50418 0.41633,2.24982 0.78291,2.59135 1.02157,0.95173 2.96427,5.44988 3.44223,7.97014 0.15778,0.83196 0.73548,2.07822 1.54111,3.32459 0.7088,1.09656 1.3713,2.34967 1.47223,2.78469 0.10093,0.43503 0.9315,2.40346 1.8457,4.3743 0.91421,1.97084 1.93757,4.45586 2.27413,5.52228 0.61682,1.95438 5.37748,11.89821 6.69534,13.98487 0.3906,0.61846 0.86312,1.12447 1.05004,1.12447 0.18692,0 0.81051,-0.48911 1.38574,-1.08693 z m 43.0143,-88.88648 c -2.47398,-0.44324 -5.05904,-1.871 -5.05904,-2.79416 0,-0.18466 0.26789,-0.52699 0.59532,-0.76072 1.05571,-0.75364 0.0689,-1.09829 -3.59793,-1.25665 -3.17656,-0.13719 -4.01488,-0.34066 -5.0196,-1.21832 -0.45992,-0.40176 -0.44291,-0.45225 0.37812,-1.12234 l 0.8597,-0.70166 -1.32649,0.12746 c -0.89628,0.0861 -1.58306,-0.005 -2.1176,-0.28164 -1.08552,-0.56135 -4.03653,-3.7647 -4.50831,-4.89382 -0.21223,-0.50793 -0.73423,-1.27188 -1.16001,-1.69766 -1.09828,-1.09828 -3.63682,-6.36766 -3.97395,-8.24892 -0.17003,-0.94883 -0.24281,-4.43701 -0.18492,-8.86354 0.094,-7.19059 0.10643,-7.33037 0.83424,-9.41195 1.62512,-4.64795 4.22488,-8.65318 8.28495,-12.76394 3.91084,-3.95967 8.42413,-6.4959 14.30951,-8.04121 4.09624,-1.07553 10.36101,-1.3546 14.5784,-0.6494 2.84053,0.47497 6.27012,1.52821 8.24232,2.53125 4.17648,2.1241 9.7073,7.21144 9.43922,8.68234 -0.0842,0.46182 -0.0133,0.57306 0.29081,0.45637 0.72771,-0.27925 2.61545,2.06182 3.99671,4.95651 2.331,4.88502 3.72707,9.91463 3.72593,13.42333 -10e-4,3.71805 -0.93932,8.62865 -2.00554,10.49816 -0.34675,0.60799 -0.63046,1.44479 -0.63046,1.85955 0,1.63189 -3.14628,7.11347 -5.33708,9.29847 -1.37506,1.37142 -2.14357,1.79935 -3.91285,2.17879 -0.85037,0.18237 -1.43948,0.47511 -1.61459,0.80232 -0.24728,0.46203 -0.20606,0.49769 0.39961,0.34568 0.98396,-0.24696 0.85668,0.29793 -0.35188,1.50649 -0.81463,0.81463 -1.22529,1.02721 -1.98437,1.02721 -0.75398,0 -0.95717,0.10363 -0.95717,0.48816 0,0.8901 -2.07725,2.15767 -3.53592,2.15767 -0.35337,0 -1.51805,0.41524 -2.58818,0.92274 -1.07013,0.50751 -2.54101,1.04596 -3.26861,1.19656 -1.83308,0.3794 -11.06664,0.55749 -12.80034,0.24687 z m -5.3257,-16.74111 c 1.52681,-0.3975 1.84156,-1.04296 2.12569,-4.35919 0.16656,-1.94408 0.32703,-2.62266 0.68146,-2.88183 0.25497,-0.18644 0.41275,-0.37877 0.35062,-0.4274 -0.0621,-0.0486 -0.51079,-0.36335 -0.99699,-0.69939 -0.6727,-0.46492 -0.85601,-0.7575 -0.76683,-1.22397 0.14744,-0.77131 -0.1964,-0.90665 -2.27341,-0.89482 -2.13397,0.0122 -4.67194,0.56891 -5.7767,1.26724 -0.48531,0.30678 -1.37329,0.80591 -1.97329,1.10919 -0.6,0.30327 -1.37316,0.85185 -1.71813,1.21905 -0.57929,0.61663 -0.59197,0.68738 -0.16586,0.92584 0.25374,0.142 0.46135,0.56637 0.46135,0.94305 0,0.43029 0.39007,1.10805 1.04937,1.8233 0.57715,0.62613 1.12288,1.47289 1.21272,1.88167 0.28042,1.27584 0.33557,1.36064 0.96288,1.48044 1.25983,0.2406 5.6822,0.1349 6.82712,-0.16318 z m 28.28874,-11.57385 c 1.6911,-0.36267 2.51936,-1.02442 3.36097,-2.68526 0.99149,-1.95661 1.18016,-3.62262 0.66249,-5.85013 -0.38239,-1.64543 -0.51528,-1.88134 -1.1563,-2.05278 -0.39834,-0.10653 -1.20347,-0.57324 -1.78917,-1.03712 -2.00624,-1.58897 -3.91888,-0.96293 -7.61115,2.49129 l -2.32907,2.17892 1.25333,2.49516 c 0.68934,1.37234 1.37645,2.82259 1.52691,3.22277 0.22494,0.59828 0.43415,0.72761 1.17698,0.72761 0.55895,0 0.96147,0.15132 1.0557,0.39687 0.18418,0.47997 1.9022,0.53025 3.84931,0.11267 z m -21.76068,-4.08142 c 2.05931,-1.00207 2.67299,-1.55646 3.36816,-3.04271 0.50017,-1.06933 0.55382,-1.6341 0.52663,-5.54407 -0.0288,-4.13493 -0.0586,-4.37228 -0.59531,-4.72863 -0.38861,-0.25802 -0.56504,-0.65005 -0.56504,-1.25548 0,-1.03081 -0.87331,-1.81557 -3.18617,-2.86312 -2.40314,-1.08845 -4.38743,-1.37198 -7.15605,-1.02251 -1.9243,0.24289 -2.59024,0.44706 -3.35117,1.02745 -1.20656,0.92029 -3.19418,1.13994 -4.68366,0.51759 -0.61787,-0.25816 -1.12753,-0.33457 -1.27148,-0.19062 -0.32308,0.32309 0.34549,1.56061 1.36866,2.53338 0.9108,0.86593 1.03005,1.68009 0.45306,3.09318 -0.63688,1.55978 -0.73899,3.22394 -0.32088,5.22924 0.474,2.27328 1.44651,4.14706 2.91053,5.60783 1.76596,1.76203 2.25949,1.92776 6.20909,2.08503 3.39304,0.13511 3.55742,0.16786 3.96875,0.79095 l 0.42911,0.65001 0.13229,-1.04689 c 0.12391,-0.98057 0.23561,-1.09715 1.76348,-1.84063 z m 165.77904,4.87506 c -1.78532,-0.41681 -4.17867,-1.16789 -5.31856,-1.66907 -1.13989,-0.50118 -2.89386,-1.15932 -3.89772,-1.46252 -3.3594,-1.01469 -6.92405,-4.30501 -10.4881,-9.68097 -4.34966,-6.56098 -5.7346,-11.55616 -5.42059,-19.55094 0.17572,-4.47391 0.67521,-7.02579 2.07257,-10.58868 1.43447,-3.65752 1.72579,-4.2028 3.54366,-6.63284 4.79998,-6.41637 11.20231,-10.67149 18.964,-12.603872 2.10116,-0.523112 3.15584,-0.615558 7.09806,-0.622159 4.83016,-0.0081 5.74056,0.121478 9.65729,1.374394 4.90553,1.569224 11.51657,5.711127 13.95897,8.745477 0.47173,0.58607 1.54777,1.88085 2.39119,2.87731 2.57434,3.04144 4.86036,8.34351 5.86598,13.60525 1.05254,5.50717 0.74549,10.60678 -0.89329,14.83657 -2.16996,5.60077 -6.11982,11.83843 -8.08776,12.77228 -0.51947,0.24651 -1.7666,1.2703 -2.7714,2.2751 -1.02054,1.02055 -2.15641,1.90467 -2.57343,2.00307 -0.41058,0.0969 -1.07343,0.48028 -1.473,0.85197 -0.52999,0.49302 -1.14685,0.72537 -2.28073,0.85907 -1.01896,0.12014 -1.90779,0.42479 -2.58081,0.88459 -2.11555,1.44531 -7.36947,2.55613 -11.87447,2.51057 -1.90346,-0.0192 -3.55661,-0.23939 -5.89186,-0.7846 z m -5.26063,-17.54673 c 0.45856,-0.2027 1.02971,-0.43234 1.26923,-0.5103 0.8878,-0.28897 1.97257,-5.00502 1.52451,-6.62778 -0.69309,-2.51016 -5.78536,-4.43821 -7.49068,-2.83614 -0.36909,0.34674 -0.88045,0.559 -1.22424,0.50818 -0.50792,-0.0751 -0.63936,0.0975 -0.94096,1.23563 -0.43131,1.62764 -0.46028,3.25385 -0.0946,5.30922 0.45167,2.5385 0.46967,2.57108 1.32631,2.39976 0.48677,-0.0974 0.83277,-0.0264 0.96555,0.19804 0.11381,0.19237 0.38553,0.41735 0.60381,0.49996 0.77549,0.29349 3.24008,0.18634 4.06105,-0.17657 z m 31.24974,-10.06548 c 2.28053,-1.11576 2.39266,-1.33824 2.39024,-4.74242 -0.003,-4.75493 -0.73857,-5.67359 -4.74026,-5.92324 -1.83844,-0.1147 -2.31848,-0.0526 -3.24503,0.42015 -1.37082,0.69933 -2.13913,1.93287 -2.50791,4.02646 -0.53964,3.06356 0.71493,5.91986 2.97651,6.77668 1.27389,0.48263 3.49379,0.24116 5.12645,-0.55763 z m -26.07078,-4.02578 c 1.27809,-0.12313 1.83563,-0.30973 2.24896,-0.75268 0.30226,-0.32393 0.81229,-0.67143 1.13339,-0.77221 0.3211,-0.10079 0.91641,-0.73177 1.32292,-1.40219 0.4065,-0.67041 1.24511,-1.75521 1.86357,-2.41066 1.25836,-1.33361 1.24419,-1.25562 0.74096,-4.07806 -0.64352,-3.60924 -1.36902,-5.35546 -2.92186,-7.03271 -2.12037,-2.29026 -3.37545,-2.8262 -6.61649,-2.82539 -2.43362,6.1e-4 -2.79115,0.0694 -4.45748,0.85802 -3.3584,1.58936 -6.53074,5.72979 -6.51645,8.50504 0.007,1.4371 0.85112,3.61997 2.11013,5.45933 1.24427,1.81784 3.42892,4.09272 3.94124,4.10403 0.23355,0.005 0.72229,0.18648 1.0861,0.40295 0.66652,0.39658 1.44669,0.38945 6.06501,-0.0555 z M -505.3654,107.00955 c -1.4395,-0.75894 -3.63184,-3.02325 -4.33031,-4.47245 -0.84059,-1.74409 -0.78164,-3.66123 0.17472,-5.68278 1.45539,-3.076382 6.57195,-8.504109 12.60452,-13.371087 5.35857,-4.323198 9.99282,-6.593332 13.45964,-6.593332 1.55008,0 3.30593,0.800301 4.84802,2.209686 2.52778,2.310251 3.05631,4.431565 1.75483,7.043285 -0.91976,1.845719 -3.01896,3.930581 -7.83256,7.779042 -2.15031,1.719169 -5.54359,4.678363 -7.54063,6.575986 -4.2321,4.02144 -6.11726,5.52611 -8.05198,6.42682 -1.75922,0.819 -3.63442,0.85028 -5.08625,0.0848 z m 197.36144,-35.364246 c -1.45521,-0.565026 -3.97059,-1.693352 -5.58972,-2.507391 -3.65936,-1.839782 -7.26332,-3.359494 -11.21133,-4.727571 -5.97301,-2.069788 -8.33545,-3.719185 -9.12237,-6.369011 -0.82891,-2.791243 -0.29371,-4.910732 1.8336,-7.261487 1.14316,-1.263238 1.70344,-1.667672 2.63537,-1.902336 1.60557,-0.404287 3.88548,-0.374511 6.97025,0.09103 9.77911,1.475835 23.50769,8.59215 25.75888,13.352311 0.80657,1.705509 0.80192,4.239552 -0.0107,5.837799 -1.38626,2.726407 -3.72488,4.252398 -6.76605,4.414968 -1.65051,0.08823 -2.14003,-0.0128 -4.49791,-0.928315 z m -227.41517,-61.29518 c 0.71475,-0.3621901 2.40743,-1.5476754 3.76152,-2.6344118 2.90212,-2.3291243 6.14395,-4.3150831 7.8696,-4.8209417 0.87863,-0.2575636 1.64628,-0.7793282 2.66656,-1.8124437 0.86414,-0.87500722 1.66135,-1.45075862 2.00878,-1.45075862 0.31683,0 0.64458,-0.1785938 0.72834,-0.396875 0.0838,-0.2182809 0.38997,-0.39687488 0.68046,-0.39687488 0.29049,0 0.6556,-0.238125 0.81136,-0.529167 0.15576,-0.291041 0.49469,-0.529166 0.75317,-0.529166 0.67468,0 1.53022,-0.88616 1.88065,-1.947969 0.29203,-0.884878 0.17167,-1.175616 -3.64727,-8.8101163 -2.17209,-4.342272 -4.33749,-8.549884 -4.81199,-9.350249 -0.47449,-0.800364 -1.48464,-2.59034 -2.24477,-3.977723 -0.76013,-1.387383 -3.02145,-5.018789 -5.02517,-8.069791 -2.00371,-3.051003 -4.2964,-6.677306 -5.09486,-8.058452 -1.05819,-1.830401 -2.22464,-3.315131 -4.30268,-5.476731 -2.7274,-2.837077 -5.55291,-6.590514 -5.55291,-7.376543 0,-0.204137 -0.38696,-0.538046 -0.8599,-0.74202 -1.96835,-0.848924 -7.0776,-6.417171 -7.0776,-7.713424 0,-0.411595 -0.12086,-0.591081 -0.3411,-0.506568 -0.60899,0.23369 -2.75164,-1.442098 -6.8682,-5.371694 -2.21952,-2.118711 -4.84674,-4.578216 -5.83827,-5.465566 -2.77981,-2.487746 -3.92126,-4.514749 -3.0391,-5.396904 0.17462,-0.174625 0.86251,-0.3175 1.52863,-0.3175 0.67127,0 1.47493,-0.184778 1.80296,-0.414535 0.54791,-0.383777 0.69461,-0.366904 1.9771,0.227394 3.25828,1.509876 12.76452,9.256432 13.43152,10.945234 0.12417,0.3144 1.0866,1.258473 2.13871,2.097942 2.37004,1.891016 5.4684,4.797276 5.82528,5.464118 0.18737,0.350113 0.17298,0.612506 -0.0482,0.879051 -0.26209,0.315807 -0.18187,0.379962 0.47513,0.379962 1.02075,0 2.25561,0.947413 2.05572,1.577202 -0.10432,0.328686 0.20089,0.751416 1.03745,1.436918 0.71699,0.587512 1.12906,1.117683 1.04301,1.341921 -0.0875,0.228135 0.15968,0.526822 0.64286,0.776683 1.16958,0.604816 4.01701,3.604021 5.75466,6.061414 3.18983,4.511061 5.54131,6.228456 6.02028,4.396885 0.0852,-0.325686 0.2798,-0.45596 0.53494,-0.358052 0.53557,0.205515 0.97019,-0.65196 0.97331,-1.920264 0.003,-1.327023 1.19647,-3.38766 3.01414,-5.205327 0.78071,-0.780716 1.79738,-1.551221 2.25926,-1.712232 0.78825,-0.274787 0.9119,-0.22627 2.01528,0.790791 0.64652,0.595947 1.1755,1.280861 1.1755,1.522033 0,0.241171 -0.23813,1.116002 -0.52917,1.944068 -0.29104,0.828065 -0.53026,1.83597 -0.53159,2.239788 -0.003,0.879795 -2.53427,6.212726 -3.75741,7.915925 -0.8217,1.144187 -0.86904,1.334533 -0.86969,3.496467 -5.8e-4,1.945285 0.10849,2.519513 0.73109,3.84884 0.40248,0.85934 1.1808,2.049965 1.72961,2.645834 2.4095,2.616127 7.97524,12.801147 9.95806,18.222763 0.59189,1.618394 2.34175,3.8378023 3.19463,4.0518623 0.73149,0.183591 3.38973,-1.005558 5.98631,-2.6779413 0.82991,-0.53452 1.98286,-1.026819 2.59803,-1.10933 0.75142,-0.100787 1.23237,-0.341243 1.50024,-0.750069 0.42396,-0.647047 2.11882,-1.439949 3.08014,-1.440976 0.32448,-3.47e-4 1.29381,-0.47875 2.15407,-1.063118 0.95729,-0.650273 2.44572,-1.3234 3.83646,-1.734996 1.24979,-0.369881 2.72371,-0.805115 3.27539,-0.967188 0.55167,-0.162074 1.37351,-0.568005 1.82631,-0.902071 0.4528,-0.334066 1.58723,-0.861622 2.52096,-1.172347 2.28369,-0.759962 2.4446,-1.135436 1.81707,-4.23992 -0.50261,-2.486486 -1.18837,-4.929442 -3.81766,-13.599938 -2.91251,-9.604488 -6.36618,-19.101009 -9.2374,-25.4 -2.91832,-6.402316 -3.31796,-7.387027 -3.44099,-8.478523 -0.10133,-0.899049 -0.21447,-1.08989 -0.5882,-0.992158 -0.35253,0.09219 -0.73258,-0.370678 -1.5959,-1.943685 -0.62324,-1.13558 -2.20498,-3.734872 -3.51497,-5.776204 -1.30999,-2.041332 -2.72236,-4.455751 -3.13862,-5.365375 -0.41625,-0.909623 -1.32113,-2.279413 -2.01086,-3.043976 -1.99428,-2.210682 -7.76213,-9.082272 -8.98284,-10.701812 -0.61283,-0.813043 -2.02576,-2.383693 -3.13986,-3.490343 -1.11409,-1.10665 -2.16051,-2.1504 -2.32536,-2.31945 -0.41018,-0.42063 -4.64641,-3.98384 -7.92051,-6.66218 -1.48388,-1.21388 -4.06718,-3.10886 -5.74067,-4.21108 -1.67349,-1.10221 -3.56934,-2.40366 -4.213,-2.89211 -0.64366,-0.48845 -1.83316,-1.08078 -2.64333,-1.31631 -0.81018,-0.23552 -2.40251,-0.82605 -3.53851,-1.31228 -4.38797,-1.87813 -9.08814,-2.97332 -15.79891,-3.68133 -4.89271,-0.5162 -12.04872,-0.59042 -14.15521,-0.14682 -4.57894,0.96427 -10.50175,2.74452 -12.40144,3.72757 -1.12314,0.5812 -2.50162,1.13021 -3.06329,1.22003 -0.63434,0.10143 -1.50688,0.56501 -2.30324,1.22372 -0.70512,0.58323 -1.87735,1.32438 -2.60495,1.64699 -0.79931,0.35441 -1.47531,0.8725 -1.70796,1.30899 -0.22581,0.42368 -0.94729,0.98841 -1.74467,1.36564 -0.93108,0.44047 -2.20659,1.51373 -4.04673,3.40508 -1.4779,1.51903 -2.6871,2.92689 -2.6871,3.12858 0,0.20169 -0.84986,1.78671 -1.88857,3.52228 -5.20238,8.692543 -7.79043,17.206042 -8.32489,27.385075 -0.25918,4.936292 0.82196,13.258856 2.03001,15.626822 0.28079,0.550405 0.51053,1.333739 0.51053,1.740741 0,1.743341 2.17764,8.227159 3.31674,9.87545 0.35618,0.515395 0.78412,1.646489 0.95097,2.513542 0.17625,0.915856 0.50763,1.742767 0.79081,1.973335 0.26809,0.218281 1.13308,1.715085 1.92219,3.326231 0.91953,1.87742 1.68941,3.096216 2.14391,3.394017 0.78002,0.511088 1.45872,1.879066 1.45872,2.940185 0,0.492735 0.62211,1.338046 2.24519,3.050702 1.23486,1.303009 2.41014,2.763856 2.61173,3.246327 0.21121,0.505492 0.94157,1.290353 1.72355,1.852148 0.8002,0.574887 1.35703,1.177597 1.35703,1.468851 0,0.603357 0.97189,1.888205 1.42829,1.888205 0.56156,0 1.51233,1.200919 1.32901,1.678661 -0.11091,0.289011 -0.0315,0.438006 0.23334,0.438006 0.57227,0 2.45424,1.551013 6.38981,5.266116 2.10787,1.9898 3.70661,3.291193 4.15279,3.380429 0.53606,0.107212 0.77014,0.34844 0.89654,0.923933 0.12652,0.576046 0.46002,0.919227 1.28084,1.31801 0.61038,0.296545 1.29426,0.860615 1.51974,1.25349 0.24936,0.434478 1.08372,1.0361553 2.1298,1.5358363 1.9974,0.954106 9.00092,5.629503 11.76445,7.8537 0.63536,0.51135548 1.54169,0.95234248 2.16074,1.05133268 0.71857,0.1149037 1.50868,0.5480974 2.4227,1.32829252 0.9278,0.7919547 1.93602,1.3407186 3.19086,1.7367527 1.3121,0.4141062 2.01038,0.803719 2.45217,1.3682283 0.45011,0.575129 1.04399,0.900037 2.18903,1.1975891 1.96939,0.5117691 6.50788,2.7320172 8.66577,4.2393249 1.93438,1.3511865 2.79671,1.4416905 4.67375,0.4905215 z m 270.67454,-21.9809 c 4.72704,-1.168589 8.01252,-2.258665 17.69405,-5.870634 1.36427,-0.508983 2.8136,-0.951627 3.22073,-0.983654 0.40713,-0.03203 1.10375,-0.364113 1.54806,-0.737968 0.4443,-0.373856 1.19762,-0.7637 1.67405,-0.866321 1.37542,-0.296259 9.74063,-4.314323 11.05269,-5.308941 3.66688,-2.779694 8.16915,-5.257857 10.12032,-5.57047 0.745,-0.119363 0.99218,-0.284952 0.99218,-0.664665 0,-0.305264 2.17601,-2.681383 5.49011,-5.995003 3.01956,-3.019118 5.66441,-5.842196 5.87746,-6.273507 0.21305,-0.431311 0.71933,-1.06093 1.12507,-1.399155 1.7342,-1.445616 7.5998,-11.281057 9.17959,-15.392338 1.16444,-3.030373 2.20889,-9.665856 2.18851,-13.903746 -0.0429,-8.930737 -3.40988,-16.894589 -9.62852,-22.774509 -3.3471,-3.164793 -6.98208,-5.312323 -11.76415,-6.950233 -3.35084,-1.1477 -5.8246,-1.42026 -13.18369,-1.4526 -5.1554,-0.0226 -6.49546,0.0465 -7.12318,0.36774 -0.92273,0.47216 -2.3658,2.98043 -2.81539,4.89355 -0.89435,3.805753 -4.20372,13.488788 -5.78731,16.93334 -0.40141,0.873125 -0.94186,2.182812 -1.201,2.910416 -0.68605,1.926254 -4.06365,8.471026 -4.94227,9.576629 -0.414,0.520947 -0.75272,1.165167 -0.75272,1.4316 0,0.78375 -3.13195,6.725534 -4.19737,7.963036 -0.53842,0.625388 -1.1324,1.494256 -1.31996,1.930819 -0.69094,1.608224 -2.45746,4.070125 -2.82053,3.930804 -0.46641,-0.178981 -1.50064,1.45401 -2.95649,4.668154 -1.65941,3.663562 -1.5689,3.98989 1.20477,4.343361 1.09272,0.139253 1.52248,0.08801 1.8655,-0.222421 0.24514,-0.221847 2.46373,-0.936878 4.9302,-1.588958 5.98294,-1.581755 15.85514,-4.701316 18.61852,-5.883351 3.70606,-1.585262 8.81972,-3.261386 9.94306,-3.259071 1.04556,0.0022 1.06686,0.0221 1.76406,1.651917 0.82953,1.93916 0.74254,2.131622 -1.18412,2.619574 -0.8533,0.216111 -2.32032,0.992074 -3.87258,2.04836 -3.24213,2.206217 -4.81263,3.083329 -9.21876,5.148619 -4.33951,2.034062 -8.40932,3.575792 -12.35495,4.680314 -4.67134,1.307672 -5.49803,2.126031 -4.94242,4.892627 0.49238,2.451735 -0.42725,3.535305 -2.69661,3.177299 -1.60021,-0.252445 -2.54408,-0.859887 -4.53628,-2.919406 -2.49494,-2.57923 -3.16782,-2.712285 -5.95313,-1.177159 -0.5809,0.320166 -1.44005,0.510542 -2.30518,0.5108 -2.61119,7.79e-4 -5.18264,1.4125 -5.86535,3.220065 -0.14668,0.388361 -0.60074,0.864873 -1.00902,1.058915 -0.47201,0.22433 -1.05805,0.949589 -1.60934,1.99164 -0.47686,0.901359 -1.22883,1.913129 -1.67106,2.248376 -2.73822,2.075823 -4.16585,3.91764 -4.58761,5.918568 -0.23843,1.131169 0.51189,1.994603 2.75979,3.175844 1.00377,0.527466 2.01745,1.252687 2.25262,1.611602 0.23517,0.358915 0.97786,0.88845 1.65043,1.176745 0.67256,0.288294 1.73379,0.99515 2.35829,1.570789 0.62449,0.57564 1.30654,1.046618 1.51567,1.046618 0.20913,0 1.25041,0.659248 2.31396,1.464997 1.06355,0.805749 2.23456,1.530538 2.60224,1.610644 0.36769,0.08011 0.78758,0.180517 0.9331,0.223139 0.54649,0.16006 2.99521,-0.202371 5.42396,-0.802791 z m -195.76164,-14.134688 c 0.78385,-0.143889 2.25862,-0.692558 3.27726,-1.219266 1.10665,-0.572208 2.49631,-1.049157 3.45268,-1.185003 0.88033,-0.125045 2.13502,-0.463756 2.78821,-0.752692 1.65487,-0.732028 12.12826,-3.356178 15.97309,-4.002122 3.52877,-0.592844 5.90598,-1.203816 6.46089,-1.660526 0.50476,-0.415439 0.25047,-3.013243 -0.76861,-7.852109 -5.77941,-27.442217 -10.26025,-51.728065 -11.34988,-61.515628 -1.00577,-9.03431 -1.19946,-12.64909 -1.20502,-22.48958 -0.005,-9.27128 0.0225,-9.84486 0.52364,-10.83351 0.62591,-1.23477 1.11051,-1.4677 1.40384,-0.67477 0.19076,0.51569 0.24829,0.53152 0.56123,0.15445 0.55438,-0.66798 1.02877,-0.49521 1.57066,0.57206 0.94435,1.85987 1.59913,5.65305 2.40925,13.95677 1.66935,17.11088 3.04459,26.920793 5.14195,36.678907 0.51205,2.38233 1.52381,7.784322 2.24835,12.004426 0.72455,4.220104 1.55822,8.753216 1.85261,10.073583 0.29439,1.320366 0.65691,3.684636 0.8056,5.253933 0.18778,1.981791 0.42643,3.107227 0.78137,3.68475 0.61285,0.997191 1.05834,2.670187 2.15888,8.107526 1.61926,8.000174 2.53943,10.748189 3.78769,11.311639 0.37279,0.168271 1.40789,0.134759 3.07545,-0.09957 3.77214,-0.530067 16.90746,-2.215209 20.37292,-2.61366 1.67348,-0.192414 5.23659,-0.483741 7.918,-0.647394 5.42915,-0.331352 6.34537,-0.590511 7.00545,-1.981523 0.27077,-0.570599 0.59576,-2.992754 0.94688,-7.057159 0.29403,-3.403607 0.65215,-7.506598 0.79583,-9.117759 0.75982,-8.520864 1.08465,-35.744177 0.52225,-43.769579 -0.75883,-10.82849 -1.98058,-18.48649 -4.62214,-28.97187 -2.05276,-8.14818 -2.40725,-9.21975 -4.77034,-14.4198 -1.89515,-4.17033 -3.82718,-9.0704 -3.82718,-9.7066 0,-0.26767 -0.26778,-0.60419 -0.59507,-0.74784 -0.32728,-0.14365 -0.97513,-0.91602 -1.43966,-1.71639 -1.77165,-3.05247 -2.89694,-4.69156 -4.45032,-6.48229 -2.0996,-2.42041 -2.51079,-3.03668 -2.51079,-3.76304 0,-0.45527 -0.15126,-0.60259 -0.61871,-0.60259 -0.41286,0 -1.35919,-0.70818 -2.84427,-2.12849 -1.22406,-1.17068 -3.41618,-3.0588 -4.87139,-4.19584 -8.75938,-6.8442 -14.84536,-9.55794 -23.8125,-10.61801 -3.51397,-0.41541 -15.07189,-0.42723 -17.4625,-0.0179 -5.18668,0.88817 -13.82283,4.68534 -17.83316,7.84095 -3.04375,2.39504 -5.43792,4.1237 -6.41448,4.63145 -0.63773,0.33157 -1.15425,0.89376 -1.5252,1.66003 -0.3085,0.63727 -1.48675,2.27836 -2.61835,3.64687 -1.13159,1.36851 -2.44527,3.05375 -2.91928,3.74498 -0.49719,0.72502 -1.06604,1.25677 -1.34447,1.25677 -0.35936,0 -0.52634,0.2733 -0.65374,1.06997 -0.1778,1.11192 -0.56855,1.98428 -2.63462,5.88181 -0.67687,1.27687 -1.23066,2.55004 -1.23066,2.82927 0,0.27923 -0.22001,0.66327 -0.48891,0.85342 -0.2689,0.19016 -0.5724,0.82199 -0.67443,1.40407 -0.31277,1.7843 -1.00186,3.66907 -1.60781,4.3976 -0.43719,0.52562 -0.80911,1.90225 -1.53688,5.68854 -1.80789,9.40572 -2.10282,12.80119 -2.10009,24.1774 0.003,10.75121 0.63257,19.545382 1.75322,24.473962 0.56735,2.495153 1.7186,6.753724 1.91855,7.09684 0.0998,0.171321 1.04052,1.621181 2.09042,3.22191 2.61055,3.980183 3.69771,6.024033 4.36341,8.203144 0.31101,1.018062 0.84446,2.148679 1.18543,2.512481 0.78488,0.837419 1.92911,3.270825 2.14258,4.556586 0.10943,0.659034 0.33655,1.039634 0.68672,1.150776 0.72756,0.230919 1.72789,2.550459 2.03493,4.718539 0.1629,1.150259 0.44572,2.015665 0.77552,2.373041 0.79965,0.866501 0.85406,1.00885 4.9176,12.865641 0.8229,2.401094 2.08243,6.568281 2.79894,9.260417 2.27017,8.529596 2.45724,9.08536 3.1814,9.451801 0.78736,0.398421 3.10199,0.433347 5.04776,0.07617 z m 162.30529,-2.971225 c 0.41044,-0.322854 0.90647,-0.610522 1.10228,-0.639262 0.19582,-0.02874 1.40392,-1.049449 2.68466,-2.268244 1.28074,-1.218794 2.99232,-2.656523 3.8035,-3.194952 1.04423,-0.693122 1.64287,-1.326023 2.05027,-2.167593 0.35263,-0.728439 2.51218,-3.213393 5.57791,-6.418391 2.75137,-2.876368 5.00386,-5.374778 5.00553,-5.552023 0.004,-0.421367 4.50347,-6.381872 5.39779,-7.150466 0.37987,-0.326459 0.69066,-0.825724 0.69066,-1.109476 0,-0.283753 0.22156,-0.671493 0.49236,-0.861646 0.2708,-0.190152 1.11246,-1.531517 1.87035,-2.98081 1.43214,-2.73864 3.53898,-5.951347 4.12748,-6.293986 0.18687,-0.108797 0.28211,-0.418289 0.21164,-0.687758 -0.0775,-0.296269 0.35477,-1.236423 1.09346,-2.378323 0.67188,-1.038609 2.05908,-3.527086 3.08267,-5.52995 1.0236,-2.002864 2.20205,-3.941694 2.6188,-4.30851 0.91256,-0.803239 1.07649,-1.210143 1.9532,-4.848105 0.73005,-3.029437 1.14326,-4.025171 1.95016,-4.699403 0.37581,-0.31402 0.55494,-0.924891 0.6866,-2.34147 0.11936,-1.28428 0.38694,-2.27889 0.81104,-3.01472 0.34811,-0.60396 0.77355,-1.79338 0.94542,-2.64314 0.1819,-0.89932 0.5514,-1.78393 0.88414,-2.11667 0.44867,-0.448673 0.55478,-0.827773 0.49327,-1.762263 -0.0431,-0.65485 0.29316,-2.91703 0.74723,-5.02709 0.75769,-3.5209 0.8376,-4.36963 0.9715,-10.31875 0.32679,-14.5183 -0.909,-22.21319 -5.10261,-31.77254 -0.9311,-2.12245 -1.76989,-4.24387 -1.86397,-4.71427 -0.0941,-0.4704 -0.44088,-1.03207 -0.77067,-1.24816 -0.32978,-0.21608 -0.67405,-0.68948 -0.76504,-1.052 -0.091,-0.36252 -1.30918,-1.8743 -2.7071,-3.35952 -2.96812,-3.15346 -6.17368,-7.05405 -6.17368,-7.51226 0,-0.1758 -0.60098,-0.6215 -1.33551,-0.99044 -0.73454,-0.36893 -2.78837,-1.60966 -4.56407,-2.75717 -3.79217,-2.45061 -4.54598,-2.84759 -8.08332,-4.25686 -9.16466,-3.65119 -18.78672,-4.49987 -30.02476,-2.64824 -3.80886,0.62756 -4.10835,0.63218 -4.72634,0.0729 -0.46289,-0.41891 -0.53712,-0.39043 -1.37944,0.52917 -0.48962,0.53454 -1.1353,0.97189 -1.43485,0.97189 -0.29954,0 -0.71906,0.24905 -0.93227,0.55345 -0.38825,0.55431 -5.36441,2.7254 -6.96214,3.03757 -0.46062,0.09 -1.11546,0.46172 -1.45521,0.82604 -0.33974,0.36433 -1.17923,0.94824 -1.86554,1.2976 -0.6863,0.34935 -2.4127,1.57323 -3.83645,2.71973 -3.47983,2.80217 -12.94818,12.04568 -13.55722,13.23526 -0.26813,0.52373 -1.63604,2.42719 -3.0398,4.22992 -1.40376,1.80273 -2.72849,3.61843 -2.94385,4.03489 -0.21702,0.41967 -0.60999,0.75721 -0.88154,0.75721 -0.66252,0 -0.97978,0.46187 -1.17124,1.70514 -0.3147,2.0435 -3.73064,8.34903 -4.52299,8.34903 -0.29102,0 -0.34704,0.2248 -0.23228,0.93203 0.10669,0.65745 0.024,1.07261 -0.28062,1.40923 -0.23753,0.26247 -0.53358,1.02164 -0.65789,1.68705 -0.12431,0.66541 -0.57709,1.78743 -1.00616,2.49337 -1.1941,1.96458 -1.81872,3.60916 -3.00616,7.91498 -0.59941,2.17354 -1.57012,5.36429 -2.15713,7.09056 -1.39677,4.10765 -1.47003,5.61288 -0.87743,18.027993 0.79053,16.561717 0.14025,37.458011 -1.35855,43.656247 -0.21113,0.873125 -0.48906,2.981357 -0.61762,4.68496 -0.16314,2.161891 -0.37668,3.339432 -0.70697,3.898576 -0.45978,0.778345 -0.45779,0.821913 0.0702,1.532749 0.35719,0.480906 0.96871,0.838778 1.78445,1.044291 0.68257,0.171962 4.95724,0.437983 9.49927,0.591156 4.54203,0.153174 10.17818,0.351919 12.52476,0.441657 l 4.26652,0.163159 0.95899,-3.135566 c 0.52744,-1.724561 2.43574,-7.60041 4.24067,-13.057441 1.80492,-5.457031 3.35909,-10.403495 3.45369,-10.992142 0.1629,-1.013582 0.0899,-1.171046 -1.37887,-2.973084 -1.88108,-2.30793 -3.41912,-4.847654 -3.80034,-6.275399 -0.2562,-0.959501 -0.63724,-2.05707 -2.11266,-6.085416 -0.27222,-0.743239 -0.48832,-2.05343 -0.49317,-2.990064 l -0.009,-1.667146 0.99219,-0.409723 c 0.5457,-0.225348 1.18436,-0.580265 1.41924,-0.788705 0.37678,-0.334371 0.47871,-0.300126 0.86599,0.290932 0.24142,0.368453 0.65587,0.669914 0.92101,0.669914 0.88982,0 1.83805,1.373091 4.12637,5.975258 0.80198,1.612903 1.68423,3.137161 1.96057,3.38724 0.47917,0.433645 0.52951,0.420375 1.08768,-0.286716 0.75996,-0.962721 3.7082,-6.935484 3.7082,-7.51234 0,-0.243971 0.5456,-1.240411 1.21245,-2.214311 0.66684,-0.973901 1.25666,-2.120104 1.3107,-2.547119 0.054,-0.427015 0.5336,-1.876457 1.06569,-3.220977 0.9091,-2.29721 1.31146,-3.10837 3.72323,-7.506183 0.52914,-0.96487 1.59359,-3.17243 2.36545,-4.90569 0.77186,-1.73326 1.88674,-3.85951 2.47751,-4.72499 0.59078,-0.86548 1.07414,-1.73235 1.07414,-1.92636 0,-0.51751 2.46677,-4.01065 4.26289,-6.03658 0.85687,-0.96649 1.55794,-1.83063 1.55794,-1.92029 0,-0.0897 -0.20836,-0.1668 -0.46302,-0.17141 -0.35856,-0.006 -0.29886,-0.13086 0.26458,-0.55124 0.40019,-0.29856 0.72761,-0.70724 0.72761,-0.90816 0,-0.20093 0.83343,-1.29197 1.85208,-2.42455 1.01865,-1.13258 1.85208,-2.24445 1.85208,-2.47082 0,-0.63292 2.06664,-2.57513 3.10461,-2.91769 2.25441,-0.74403 4.19585,0.32164 3.89336,2.13709 -0.23993,1.44001 -1.94231,4.68876 -3.63494,6.93675 -1.68579,2.23892 -2.71832,3.11672 -3.66845,3.11873 -0.61566,0.001 -0.6147,0.006 0.11991,0.59531 l 0.74053,0.594 -1.33921,2.62872 c -1.61469,3.16946 -1.9936,3.63236 -2.80633,3.42838 -0.50259,-0.12615 -0.58282,-0.064 -0.47072,0.36466 0.0854,0.32643 -0.025,0.57816 -0.29957,0.68354 -0.35035,0.13444 -0.40133,0.38937 -0.2627,1.31377 0.15517,1.03473 0.105,1.19086 -0.51266,1.59557 -0.4363,0.28587 -0.68466,0.69016 -0.68466,1.1145 0,0.73459 -0.68056,2.18996 -1.74808,3.73826 -0.85125,1.23463 -3.54359,6.643433 -3.54359,7.118943 0,0.35483 -0.68353,1.9493 -3.95395,9.223305 -2.22082,4.93953 -2.8003,6.568884 -3.17875,8.937864 -0.31703,1.984572 -0.19078,2.580164 0.5082,2.397376 0.26679,-0.06977 0.80759,0.08447 1.20178,0.342757 0.66901,0.43835 0.73331,0.439934 0.9662,0.0238 0.44426,-0.79385 4.99312,-0.592877 8.78834,0.388277 1.63569,0.422866 2.28277,1.258887 2.28277,2.949338 0,1.026467 -0.12978,1.540607 -0.46302,1.8343 -0.79537,0.70098 -2.98272,0.974093 -9.31276,1.162797 l -6.12292,0.18253 -0.48411,0.685662 c -1.51232,2.141948 -3.37201,6.897262 -6.2336,15.939616 -0.6748,2.13228 -1.46924,4.334936 -1.76542,4.894792 -0.5668,1.071356 -0.98579,5.216107 -0.65895,6.518367 0.2385,0.950253 1.32713,1.359734 6.39271,2.404577 2.47107,0.509691 5.06105,1.178736 5.75552,1.486766 0.69446,0.30803 2.65402,0.794282 4.35458,1.08056 2.48433,0.418218 3.56205,0.751575 5.48422,1.696356 1.31576,0.646718 3.00679,1.306313 3.75784,1.465766 0.75105,0.159454 2.59652,0.815762 4.10104,1.458462 1.50452,0.6427 2.86826,1.170885 3.03054,1.173744 0.16228,0.0029 0.63086,-0.258956 1.04131,-0.58181 z"
       id="path1" /></g></svg>
