<?xml version="1.0" encoding="UTF-8" standalone="no"?>
<!-- Created with Inkscape (http://www.inkscape.org/) -->

<svg
   width="636.2655mm"
   height="664.57251mm"
   viewBox="0 0 636.26552 664.57252"
   version="1.1"
   id="svg1"
   xml:space="preserve"
   xmlns="http://www.w3.org/2000/svg"
   xmlns:svg="http://www.w3.org/2000/svg"><defs
     id="defs1" /><g
     id="layer1"
     transform="translate(978.26076,278.1233)"><path
       style="fill:#000000"
       d="m -525.76295,386.08848 c -3.96946,-1.07343 -5.29587,-1.9423 -8.5816,-5.6214 -1.08187,-1.21139 -2.22138,-2.26636 -2.53226,-2.34438 -0.31088,-0.078 -1.36787,0.0443 -2.34888,0.27178 -3.4556,0.80141 -7.84681,0.44627 -14.6832,-1.18752 -1.80914,-0.43236 -3.31037,-0.75498 -3.33606,-0.71694 -0.0257,0.038 -0.32053,0.75833 -0.65522,1.60065 -0.9442,2.37635 -2.55913,3.97225 -5.40162,5.33794 -3.05992,1.47017 -5.79894,2.06888 -9.54862,2.0872 -5.05798,0.0247 -8.71306,-1.24587 -11.29286,-3.9256 -0.90614,-0.94124 -1.76198,-1.56437 -2.37832,-1.73162 -0.56086,-0.1522 -4.75819,-0.24451 -10.05416,-0.22112 -9.54369,0.0422 -9.27154,0.0664 -14.05038,-1.25261 -1.97613,-0.54544 -1.67502,-0.59083 -7.02402,1.05861 -4.6787,1.44274 -15.32745,1.5104 -19.81004,0.12587 -1.9011,-0.58719 -3.22705,-1.66303 -4.10261,-3.32876 -0.62126,-1.18193 -1.47542,-1.27628 -8.04766,-0.88897 -5.50517,0.32443 -9.92254,0.21817 -12.28061,-0.29539 -3.8496,-0.8384 -4.50642,-0.76691 -6.61458,0.71995 -1.77064,1.24881 -2.62447,1.4508 -7.40834,1.75263 -9.77926,0.61701 -17.56341,-0.40872 -25.42808,-3.35068 -1.75085,-0.65495 -3.45436,-1.19082 -3.78558,-1.19082 -0.33122,0 -1.36481,0.49695 -2.29688,1.10433 -3.89518,2.53831 -8.64648,3.92257 -14.13494,4.11814 -4.22496,0.15055 -5.83608,-0.095 -8.31503,-1.26738 -3.31902,-1.56965 -4.69538,-3.09344 -5.04811,-5.58885 -0.12644,-0.89457 -0.40883,-1.80542 -0.62752,-2.02411 -0.67093,-0.67093 -2.05762,-0.40047 -7.76662,1.51481 -7.16245,2.40288 -10.87448,3.23201 -15.24026,3.40411 -3.95386,0.15587 -5.58111,-0.12452 -8.10906,-1.39724 -3.12973,-1.57571 -5.28353,-4.43564 -5.28908,-7.02313 -10e-4,-0.66341 -0.15839,-1.41929 -0.34883,-1.67973 -0.32534,-0.44493 -0.59294,-0.37784 -4.43177,1.11104 -6.49825,2.52032 -9.66671,3.23197 -14.36736,3.22696 -4.39055,-0.005 -6.2442,-0.64357 -9.71049,-3.34689 -1.7661,-1.37736 -2.48105,-2.29862 -2.71925,-3.50392 -0.0979,-0.49546 -0.31096,-1.061 -0.47343,-1.25677 -0.4418,-0.53234 -2.18377,-0.42372 -4.97915,0.31047 -2.89307,0.75985 -5.07851,0.82473 -8.74522,0.25962 -4.25459,-0.65571 -5.11819,-0.56856 -7.88399,0.79558 -3.31561,1.63532 -5.33389,2.07721 -8.65247,1.89441 -3.12166,-0.17196 -5.55248,-0.85428 -8.33437,-2.33942 -2.30059,-1.2282 -3.57462,-2.21153 -6.43132,-4.96391 l -2.0657,-1.99026 -1.2416,0.73716 c -3.35809,1.99375 -3.9216,2.16268 -7.19471,2.15691 -3.74314,-0.007 -6.40265,-0.58041 -9.21547,-1.98827 -2.22674,-1.11452 -4.17772,-2.84532 -5.2286,-4.6385 -0.48491,-0.82744 -0.7308,-1.76497 -0.90452,-3.44874 -0.29112,-2.82162 -0.6055,-3.25718 -2.04616,-2.83485 -0.54659,0.16024 -1.98446,0.73264 -3.19528,1.27202 -5.58434,2.48762 -11.95024,0.76962 -15.06934,-4.06685 -1.55962,-2.41834 -1.86232,-2.67798 -3.12212,-2.67798 -0.61513,0 -3.38419,0.64611 -6.15348,1.4358 -2.76928,0.78969 -6.02548,1.61811 -7.23598,1.84093 -8.07809,1.48693 -15.87694,1.1019 -19.96878,-0.98588 -3.3567,-1.71268 -4.81719,-3.47953 -5.53199,-6.69244 -0.30723,-1.38092 -0.55108,-1.94841 -0.83724,-1.94841 -1.60926,0 -9.69173,-0.92149 -11.84625,-1.3506 -4.84037,-0.96405 -7.59227,-2.76574 -9.19429,-6.01956 -1.55509,-3.15851 -1.03724,-6.62703 1.40464,-9.40818 2.18006,-2.48295 6.09772,-3.87973 16.78548,-5.9846 8.70647,-1.71467 20.85593,-4.76656 22.63219,-5.68511 1.53989,-0.7963 1.50242,-1.82211 -0.11853,-3.24533 -2.23725,-1.96433 -3.81864,-2.32075 -7.30011,-1.64534 -5.1655,1.0021 -8.47202,1.19184 -20.7698,1.19184 -12.57634,0 -14.90115,-0.14672 -20.5052,-1.29412 -4.64328,-0.95069 -7.22442,-2.05119 -9.01511,-3.8437 -1.25881,-1.26009 -1.54583,-1.73789 -1.95621,-3.25649 -0.88562,-3.27722 -0.0103,-6.14423 2.64149,-8.65221 1.76584,-1.67006 4.10649,-2.77923 6.75641,-3.20168 1.2352,-0.19691 7.79438,-0.38722 17.58071,-0.51008 8.58573,-0.10779 15.78901,-0.26766 16.00729,-0.35526 0.21828,-0.0876 0.88877,-0.28502 1.48998,-0.43869 1.31536,-0.3362 1.75752,-1.16274 1.63495,-3.05624 -0.079,-1.21989 -0.12415,-1.28478 -1.14056,-1.6379 -0.58208,-0.20223 -2.66567,-0.48341 -4.6302,-0.62486 -8.43499,-0.6073 -14.45001,-3.39349 -15.34059,-7.10585 -1.11928,-4.66571 1.25187,-9.11492 6.24441,-11.71692 4.51492,-2.35308 10.47986,-3.7914 37.71156,-9.09332 l 5.19976,-1.01237 0.0919,-3.1887 c 0.0824,-2.85812 0.1692,-3.3461 0.83752,-4.70709 2.10142,-4.27938 7.75125,-6.15347 21.9766,-7.28977 l 2.3493,-0.18766 1.51772,-4.23334 c 2.7809,-7.75666 3.77827,-9.81766 7.33505,-15.15742 2.09627,-3.14711 2.49322,-3.9045 2.3698,-4.52163 -0.0815,-0.40771 -0.74575,-2.13375 -1.47601,-3.83565 -3.81092,-8.88148 -5.9572,-18.90609 -6.52159,-30.46029 -0.36221,-7.41512 1.16516,-18.6795 3.33997,-24.6324 0.31373,-0.85875 1.37844,-3.28776 2.36602,-5.39781 0.98757,-2.11005 1.93468,-4.4913 2.10469,-5.29167 0.17,-0.80036 0.41371,-4.72943 0.54157,-8.73125 0.25719,-8.04952 0.51615,-9.87398 1.96597,-13.85081 1.49702,-4.10633 1.57118,-4.65763 0.9619,-7.15113 -1.06488,-4.35803 -1.41361,-7.916264 -1.26083,-12.864724 0.20747,-6.71981 1.26113,-11.21204 4.04576,-17.24882 0.94575,-2.0503 1.427,-3.43814 1.427,-4.1152 0,-0.56188 -0.41454,-2.25254 -0.9212,-3.75704 -2.18728,-6.49494 -2.90367,-11.69296 -2.71409,-19.69291 0.30026,-12.67071 3.20034,-21.02528 10.80302,-31.121448 6.65347,-8.8356406 17.12722,-15.5988546 28.47451,-18.3868466 l 2.9662,-0.728785 0.39603,-1.223955 c 0.21782,-0.673175 1.18257,-4.260048 2.14389,-7.9708294 4.28562,-16.54277 8.33932,-27.610099 14.82731,-40.481249 5.76804,-11.442865 12.73813,-21.911856 20.54793,-30.862756 17.29319,-19.819917 36.81536,-33.096247 62.25036,-42.334267 7.16879,-2.60371 17.89397,-5.79397 21.21758,-6.31127 2.47593,-0.38537 2.10772,-1.28559 -1.69261,-4.13817 -3.5962,-2.69937 -8.22741,-7.25612 -10.64478,-10.47364 -5.59425,-7.44594 -8.79986,-15.7353 -10.19205,-26.3555 -2.12641,-16.22122 4.01427,-36.98383 14.06048,-47.54068 4.4161,-4.64057 9.8561,-7.98969 15.29721,-9.41769 3.57348,-0.93785 8.69663,-0.99668 11.90625,-0.13673 7.45226,1.99668 13.9245,6.74631 18.79808,13.79491 1.11583,1.61382 2.16477,2.89203 2.33098,2.84048 0.1662,-0.0515 1.31422,-1.60123 2.55115,-3.44374 3.75189,-5.58878 7.20882,-9.26741 11.35446,-12.08266 1.96693,-1.33572 2.37443,-2.08384 3.3998,-6.24175 3.07365,-12.4637 12.8154,-26.04765 24.13949,-33.66025 6.75333,-4.53992 15.4661,-8.17471 22.72976,-9.48241 10.40577,-1.87337 20.18255,0.60961 27.75512,7.04888 5.13001,4.36227 10.18746,15.14389 11.17681,23.82708 0.46147,4.0501 0.3864,13.48465 -0.13661,17.17017 -0.23749,1.67349 -0.50372,3.98168 -0.59164,5.12931 l -0.15984,2.08661 1.29705,-0.18977 c 1.41069,-0.20639 3.76746,-0.81068 7.1931,-1.84436 4.74825,-1.43276 7.92923,-1.96988 12.75708,-2.15408 4.56912,-0.17432 9.99355,0.11264 13.36145,0.70684 3.74935,0.6615 9.46494,2.97229 12.56771,5.08108 1.7671,1.201 4.68689,4.08139 5.81493,5.73646 3.46847,5.08897 4.85686,11.52401 3.87211,17.94687 -1.02303,6.67254 -4.7348,14.29269 -10.0099,20.55 -2.15988,2.56204 -4.15237,4.41535 -8.19348,7.62115 -1.40978,1.11836 -2.64196,2.16078 -2.73819,2.31648 -0.0964,0.15602 1.31366,1.76311 3.14134,3.58021 3.52264,3.50226 5.14044,5.48192 6.77636,8.29206 1.79036,3.07541 1.94342,3.79844 1.96425,9.27864 0.0214,5.63514 -0.1738,6.58165 -2.14728,10.41105 -4.11929,7.99322 -12.93964,14.89616 -23.52957,18.4146 -7.3571,2.44436 -21.54103,3.7148 -31.5714,2.82783 -2.54661,-0.22519 -5.13913,-0.33906 -5.76114,-0.25305 -2.02128,0.27951 -1.81293,0.60621 1.6601,2.60301 6.33521,3.6424 17.69575,11.17517 21.68937,14.381446 7.09563,5.696727 17.04518,15.356222 22.65471,21.994275 10.97885,12.991856 18.93206,25.958417 24.58627,40.084373 2.74024,6.845958 4.40091,12.308512 6.4751,21.298958 1.62519,7.0442624 1.71869,7.2688654 3.25778,7.8253314 4.52373,1.635584 13.01363,5.71537099 15.91145,7.646177 4.17159,2.77952 10.47849,9.1792506 13.5494,13.7488436 2.12928,3.168413 3.23783,5.432872 4.46078,9.112142 1.68796,5.07827 1.98205,6.92673 1.96252,12.33521 -0.0195,5.39755 -0.20357,6.44982 -2.53486,14.49006 l -1.36292,4.70047 1.3684,4.42765 c 1.97478,6.38966 2.23118,7.81542 2.05717,11.43911 -0.10298,2.14457 -0.41671,4.17515 -1.06287,6.87917 -0.72413,3.03033 -0.85194,3.92841 -0.60828,4.27408 0.16966,0.24069 1.22517,1.50396 2.34557,2.80727 7.24313,8.4256 11.62921,19.795824 13.49644,34.987404 0.46164,3.75587 0.45205,17.45796 -0.0149,21.29896 -1.42974,11.76039 -4.67118,22.90192 -10.00116,34.37611 l -1.9573,4.21362 1.96319,4.64992 c 3.32049,7.86478 3.46218,8.55684 3.44383,16.82076 -0.0137,6.15926 -0.0387,6.45292 -0.83272,9.77634 l -0.81862,3.42635 2.75032,3.42294 c 2.63356,3.27764 4.874,6.452 6.22641,8.82187 l 0.63106,1.10584 2.12151,0.14064 c 1.16683,0.0774 6.79414,0.26752 12.50513,0.42258 14.10155,0.38287 18.07977,0.91348 25.73201,3.43215 6.97935,2.29719 11.22051,4.66833 14.98865,8.37984 3.08133,3.03501 5.53087,7.28704 7.65053,13.28018 l 0.49825,1.40874 4.7693,-0.19966 c 2.62312,-0.10981 8.7579,-0.20503 13.63285,-0.21161 7.66415,-0.0103 9.09626,0.0512 10.58333,0.45443 3.38043,0.91672 6.22712,3.31681 6.90063,5.81803 1.35199,5.02092 -2.72096,9.91814 -9.7449,11.71705 -1.05503,0.27021 -1.91823,0.57156 -1.91823,0.66968 0,0.0981 0.57915,0.55004 1.28699,1.00427 3.08594,1.98023 3.82711,3.36553 3.25639,6.0864 -0.41202,1.96433 -1.29658,3.19323 -3.22573,4.48148 -2.08535,1.39254 -4.77244,2.23305 -10.22164,3.1973 -2.39755,0.42426 -4.63465,0.95187 -4.97134,1.17247 -0.43956,0.28802 -0.66276,0.75968 -0.79165,1.67294 -0.38579,2.7334 -2.3221,5.37443 -4.90729,6.69329 -4.17398,2.12941 -11.59747,2.17097 -18.90014,0.10583 -3.14507,-0.8894 -9.27722,-3.18197 -10.64483,-3.97968 -1.64442,-0.95916 -3.42329,-1.08777 -4.86591,-0.3518 -1.47181,0.75086 -3.16612,1.86608 -3.1608,2.0805 0.0181,0.728 1.78702,1.5682 7.40429,3.51679 6.3902,2.21672 9.32125,3.79601 10.31956,5.56032 1.88687,3.33469 -0.36559,7.68089 -5.11964,9.87852 -2.47476,1.144 -2.96998,1.71031 -3.3488,3.82952 -0.90053,5.03775 -5.70028,9.2297 -11.51264,10.05477 -1.97917,0.28094 -7.86232,0.25045 -12.95671,-0.0671 -1.15535,-0.072 -1.03609,-0.21507 -2.57331,3.08644 -1.21324,2.60571 -4.13206,4.72933 -7.68023,5.58782 -0.91099,0.22042 -3.3631,0.47605 -5.44912,0.56807 -4.1724,0.18407 -4.54147,0.32685 -4.54182,1.75717 -6e-4,2.42086 -3.1641,6.59532 -5.78605,7.63511 -2.08951,0.82863 -7.45689,0.82881 -11.24114,3.8e-4 -7.51236,-1.64457 -18.45824,-6.75318 -26.53478,-12.3842 -3.57663,-2.49365 -3.98811,-2.49183 -7.89928,0.0348 -2.3301,1.50524 -3.83646,2.80913 -3.83646,3.32079 0,0.53108 2.05055,2.33519 4.37997,3.85359 4.85594,3.16526 11.1484,6.11392 18.3742,8.61019 2.54661,0.87977 5.32089,1.96415 6.16505,2.40975 4.36753,2.30541 5.95531,6.20555 4.08053,10.0232 -1.64062,3.34083 -5.90971,6.29181 -10.53356,7.28125 -2.73672,0.58562 -9.45511,0.6487 -12.41202,0.11653 -5.46618,-0.98376 -10.81029,-3.91621 -18.03754,-9.89768 -1.40768,-1.16503 -2.94545,-2.36265 -3.41726,-2.66138 l -0.85784,-0.54314 0.16919,0.84595 c 0.0931,0.46528 0.87827,2.66324 1.74491,4.88437 2.36965,6.07319 2.70273,7.42739 2.8645,11.64609 0.1152,3.00437 0.0623,3.84542 -0.30149,4.79813 -0.88643,2.32109 -4.79573,5.19611 -8.10099,5.95773 -1.66448,0.38354 -6.48507,0.31958 -8.06244,-0.10698 z m 8.33438,-5.54318 c 0.50932,-0.2599 1.37252,-0.90032 1.91823,-1.42314 0.96401,-0.92359 0.99205,-1.00352 0.98759,-2.81511 -0.006,-2.45147 -0.54027,-4.87792 -1.73519,-7.8813 -1.28825,-3.2379 -5.56413,-11.81239 -7.58787,-15.21605 -1.33358,-2.2429 -1.72274,-2.71198 -2.2499,-2.71198 -1.39765,0 -7.85043,3.04302 -8.89101,4.19284 -0.43354,0.47905 -0.42832,0.6737 0.10126,3.77851 0.75244,4.41143 2.27621,11.82758 2.91828,14.2032 1.67701,6.2049 4.98963,8.62984 11.4959,8.41537 1.39163,-0.0459 2.43387,-0.23165 3.04271,-0.54234 z m -51.06459,-0.58169 c 2.17025,-0.37805 4.15651,-1.15327 4.56002,-1.77972 0.37524,-0.58259 0.19521,-3.5886 -0.59014,-9.85369 -0.43594,-3.47771 -0.85805,-6.71006 -0.93803,-7.183 l -0.14541,-0.8599 h -6.15281 -6.15282 l -1.00515,4.96094 c -1.02805,5.07403 -1.43501,9.3339 -1.10312,11.54711 0.12228,0.81541 0.45697,1.54981 0.97539,2.14026 0.76197,0.86783 1.58917,1.17415 4.20207,1.55608 0.99936,0.14607 3.83251,-0.0895 6.35,-0.52808 z m -54.18785,-4.21699 c 3.26822,-0.45584 5.25139,-1.16342 6.02804,-2.15077 0.27725,-0.35247 0.62692,-1.25866 0.77704,-2.01376 0.8704,-4.37805 1.23801,-5.9779 2.16769,-9.43378 0.56632,-2.10515 1.02967,-4.0967 1.02967,-4.42567 0,-0.86189 -0.86852,-1.29085 -3.57188,-1.76412 -2.96397,-0.51889 -9.45049,-1.22747 -11.23664,-1.22747 -1.32484,0 -1.3461,0.0133 -2.22297,1.38907 -2.87311,4.50782 -7.83934,14.69958 -7.83934,16.08798 0,0.9863 1.45564,2.64433 2.98706,3.40238 0.97646,0.48334 1.59461,0.55143 5.00749,0.55162 2.14142,1.1e-4 5.23465,-0.18685 6.87384,-0.41548 z m 31.7399,-1.08082 4.14267,-0.17182 1.09416,-5.58198 c 0.60178,-3.07009 1.11883,-6.29442 1.14899,-7.16517 l 0.0548,-1.58318 -1.30925,-0.32742 c -0.72009,-0.18007 -5.06587,-0.62843 -9.65729,-0.99634 -4.59142,-0.36791 -8.8327,-0.73262 -9.42506,-0.81048 l -1.07701,-0.14154 -1.22424,4.04399 c -3.00596,9.92951 -3.01009,10.76646 -0.0593,11.99938 1.85537,0.77522 8.31625,1.06617 16.3115,0.73456 z m 50.17226,-0.90454 c 1.37166,-0.47817 1.77184,-1.38132 1.74974,-3.94896 -0.0205,-2.37714 -0.51899,-5.21317 -1.60218,-9.11448 -0.77129,-2.77794 -0.98644,-3.23369 -1.62168,-3.43531 -0.72085,-0.22879 -11.8524,1.31934 -16.16847,2.24864 l -1.42766,0.30739 0.17416,2.94636 c 0.20831,3.52405 0.77891,6.40578 1.44782,7.31199 1.13018,1.53112 3.03,2.21985 9.43542,3.42054 2.99758,0.5619 6.79878,0.68705 8.01285,0.26383 z m -177.16751,-0.65142 c 5.15206,-1.08377 7.99738,-3.36878 21.40286,-17.18816 8.16149,-8.41348 9.37138,-9.76377 9.11713,-10.17515 -0.44457,-0.71932 -3.92943,-0.14223 -8.47366,1.40323 -7.15951,2.4349 -11.55779,4.56451 -17.3302,8.39115 -2.25558,1.49526 -6.18464,4.02456 -8.73125,5.62067 -8.57927,5.37714 -9.42729,6.39405 -7.87136,9.43907 0.72007,1.4092 1.58988,2.08071 3.28546,2.53645 1.76941,0.47557 6.27857,0.46128 8.60102,-0.0273 z m 45.6604,-0.86342 c 0.99916,-0.56405 1.35589,-1.4042 2.05101,-4.83053 0.94796,-4.67254 1.18721,-5.32487 4.11858,-11.22963 1.44486,-2.91041 2.65695,-5.57762 2.69355,-5.92712 0.0528,-0.50468 -0.0968,-0.6817 -0.72721,-0.86016 -1.3107,-0.37105 -3.93589,-0.75127 -9.78958,-1.41788 l -5.55625,-0.63273 -8.88398,8.91686 c -8.83366,8.86636 -11.09206,11.39221 -11.09206,12.40563 0,1.53206 3.7644,2.96123 9.65729,3.66644 3.84965,0.4607 16.66932,0.39423 17.52865,-0.0909 z m 21.56825,-1.38181 c 3.30332,-0.31325 6.73121,-1.30458 7.51195,-2.17244 0.29671,-0.32981 0.84843,-1.38796 1.22605,-2.35144 0.37761,-0.96348 1.70949,-3.91369 2.95974,-6.55601 3.01437,-6.37071 2.91392,-6.0755 2.16427,-6.36052 -1.28741,-0.48947 -12.91794,-2.23969 -16.84329,-2.53465 l -2.24895,-0.169 -3.34792,6.56932 c -3.74492,7.34833 -4.40052,9.1067 -3.92856,10.53673 0.53888,1.63283 2.50304,2.62151 6.02225,3.03137 2.61258,0.30428 3.338,0.30502 6.48446,0.007 z m -102.15388,-2.47822 c 3.27708,-0.83012 8.64946,-2.96753 15.82886,-6.29756 6.13232,-2.84436 10.66699,-5.18368 11.67366,-6.02214 l 0.62946,-0.52428 -0.8948,-0.009 c -0.49214,-0.005 -2.93292,0.34339 -5.42396,0.77384 -6.31655,1.09152 -9.43741,1.31787 -20.85656,1.51272 l -9.97741,0.17025 -1.62848,1.87604 c -1.59886,1.84194 -2.88297,4.06213 -2.88808,4.99341 -0.009,1.63553 1.79548,3.39463 4.17581,4.07087 1.80333,0.51232 6.19914,0.25671 9.3615,-0.54435 z m 273.37176,-2.66698 c 3.47404,-0.78599 5.22921,-2.20352 5.59451,-4.51828 0.35671,-2.26038 -0.38248,-2.85105 -6.31094,-5.04293 -1.77285,-0.65546 -4.53304,-1.67642 -6.13377,-2.2688 -6.85957,-2.53851 -11.44992,-4.94617 -16.42909,-8.61711 -1.73255,-1.27733 -3.78126,-2.72407 -4.55271,-3.21499 -1.63016,-1.03736 -1.43036,-1.08179 -5.21195,1.15901 -1.30969,0.77606 -3.24732,1.79658 -4.30585,2.26782 -2.28995,1.01945 -2.62484,0.38468 2.95016,5.59183 9.73694,9.09447 17.90024,14.48263 22.91923,15.12777 1.9369,0.24896 9.68384,-0.0778 11.48041,-0.48432 z m -306.65625,-3.21467 c 3.33496,-0.63199 6.13969,-1.60694 9.82272,-3.41447 3.84939,-1.88918 5.61301,-3.15116 5.16245,-3.69406 -0.15456,-0.18622 -1.55793,-0.90533 -3.1186,-1.59801 -4.11811,-1.82775 -6.82847,-3.21065 -8.85657,-4.51886 -4.19012,-2.7028 -4.69531,-2.76336 -7.20468,-0.86372 -2.74409,2.07733 -7.08557,6.52309 -7.78163,7.96855 -0.8007,1.66275 -0.59022,3.0442 0.67764,4.44757 1.97468,2.18574 5.69,2.73587 11.29867,1.673 z m -43.96466,-4.11735 c 0.57352,-0.17183 1.529,-0.74392 2.12329,-1.27131 l 1.08053,-0.95888 0.23287,-3.02818 c 0.12809,-1.66549 0.41767,-3.89438 0.64353,-4.95307 0.5346,-2.50591 2.47125,-6.40489 4.82639,-9.71677 1.03483,-1.45521 1.88251,-2.90003 1.88374,-3.21072 0.004,-0.90873 -1.02376,-1.35942 -6.93377,-3.04171 l -5.58005,-1.58837 -1.59881,1.77147 c -8.97783,9.94733 -13.15947,15.85805 -12.71712,17.97558 0.45859,2.19529 2.81093,5.00534 5.51819,6.5919 2.54038,1.48876 7.89574,2.21667 10.52121,1.43006 z m 18.25405,-2.08765 c 3.10504,-0.6276 4.57304,-1.28462 6.71003,-3.00317 4.07272,-3.27525 11.75768,-11.2641 11.75768,-12.22262 0,-0.46839 -0.56774,-0.73644 -2.91042,-1.3741 -2.31427,-0.62992 -14.30605,-3.22504 -14.9026,-3.22504 -0.22307,0 -1.56488,1.45851 -2.9818,3.24114 -5.94445,7.47871 -7.69905,11.48147 -6.23199,14.21697 1.22142,2.27747 4.50664,3.18592 8.5591,2.36682 z m -44.96607,-4.63476 c 0.61013,-0.21527 1.39351,-0.65526 1.74083,-0.97776 0.80856,-0.75079 2.63264,-3.30264 3.84883,-5.38442 1.23067,-2.10658 4.73592,-7.00027 7.17614,-10.01862 1.05883,-1.30969 2.41755,-3.14813 3.01938,-4.08544 1.30008,-2.02477 1.28899,-2.04733 -1.58021,-3.21497 -4.76488,-1.93908 -8.14091,-2.38254 -9.91489,-1.30238 -2.65196,1.61476 -9.68442,7.95606 -13.30463,11.99705 -5.443,6.07563 -5.6296,9.8796 -0.61145,12.46454 2.31511,1.19255 7.00467,1.44686 9.626,0.522 z m 296.53169,-1.17195 c 6.98088,-0.33432 8.85585,-0.5938 13.36146,-1.84911 11.7191,-3.26506 15.51335,-5.00473 44.84687,-20.56233 15.96682,-8.46831 17.63009,-9.27897 30.82024,-15.0215 3.78559,-1.64811 9.50226,-4.14704 12.70372,-5.55317 6.13889,-2.6963 13.27815,-5.69269 17.05533,-7.15824 9.03428,-3.5053 22.50287,-9.76845 28.98612,-13.4791 10.458,-5.98559 20.29431,-14.49667 22.99512,-19.89703 1.30874,-2.61686 2.01755,-7.07463 1.72409,-10.8429 -0.43408,-5.57382 -6.94377,-12.12439 -14.53671,-14.62798 -5.40359,-1.7817 -11.87541,-2.94674 -19.85561,-3.57434 -5.69959,-0.44824 -14.97982,-0.53889 -15.59112,-0.1523 -0.49979,0.31607 -0.5048,1.72033 -0.0192,5.38007 0.31605,2.38199 0.3243,3.40772 0.0496,6.17661 -0.55877,5.63297 -2.27333,11.37208 -4.54562,15.2154 -2.25225,3.80943 -7.99928,9.9329 -11.53765,12.29338 -2.58234,1.72271 -8.29872,4.48799 -11.63495,5.62838 -2.82648,0.96614 -3.022,0.9828 -3.83238,0.3266 -0.95765,-0.77546 -0.39379,-1.59395 2.08174,-3.02184 8.46151,-4.88059 13.85259,-10.21872 17.13995,-16.97158 5.35984,-11.01013 4.67951,-24.11125 -1.74685,-33.63891 -1.54276,-2.28728 -3.58777,-4.60708 -4.06135,-4.60708 -0.16486,0 -1.42849,1.14286 -2.80806,2.53969 -3.06379,3.10211 -6.73159,6.00984 -8.85832,7.02264 -2.55013,1.21443 -2.82437,1.01853 -1.75086,-1.25069 0.40714,-0.86062 1.71958,-3.26464 2.91653,-5.34226 6.23215,-10.81752 8.06045,-16.67893 8.06502,-25.85584 0.002,-3.24355 -0.12029,-5.03864 -0.43712,-6.43685 -0.75219,-3.31951 -2.21263,-5.86627 -3.36402,-5.86627 -0.27663,0 -1.90212,1.30928 -3.61221,2.90952 -3.3209,3.1076 -5.02048,4.42657 -5.3191,4.12795 -0.31991,-0.31991 0.67263,-2.70719 4.34532,-10.45146 7.76206,-16.36715 11.2224,-25.72397 13.2804,-35.91053 1.45421,-7.19791 1.73218,-10.11329 1.73742,-18.22236 0.008,-12.25337 -1.24614,-20.08014 -4.58248,-28.60012 -2.09552,-5.351294 -3.95958,-8.518414 -6.52217,-11.081434 -1.05789,-1.05806 -5.70492,-4.37344 -6.12457,-4.36951 -0.12081,0.001 -1.16917,1.08872 -2.32968,2.41687 -2.04537,2.34082 -3.9411,3.92126 -4.28775,3.57462 -0.30991,-0.30992 0.417,-2.13572 1.56215,-3.92367 0.6223,-0.97161 2.17664,-3.30497 3.45408,-5.18523 4.52182,-6.65566 5.85555,-11.97728 4.30066,-17.15972 -0.7917,-2.63874 -1.28654,-2.49353 -4.62507,1.35723 -4.01396,4.62981 -11.51853,10.80203 -13.84318,11.38548 -1.05731,0.26536 -0.934,-0.27361 0.51944,-2.27043 2.10066,-2.88604 7.59489,-11.34375 9.27274,-14.27429 3.89284,-6.79927 6.96922,-13.75412 8.15953,-18.44647 2.3601,-9.30379 0.82504,-18.25491 -4.45178,-25.958719 -1.78825,-2.61074 -6.31908,-7.150892 -9.19559,-9.214514 -4.52786,-3.2483146 -11.33174,-6.7177896 -12.38296,-6.3143976 -0.3379,0.129664 -0.37256,0.745218 -0.23536,4.180057 0.16632,4.1641866 0.79984,9.1163966 1.21997,9.5365266 0.14341,0.143408 0.56666,-0.117934 1.05263,-0.649964 0.68159,-0.746194 0.85604,-0.825755 1.08084,-0.492937 0.62351,0.923099 -0.83354,6.070118 -2.72175,9.614578 -4.66367,8.75442 -15.82915,18.3818 -39.34253,33.92294 -20.7385,13.70707 -40.32337,25.09463 -66.41042,38.61411 -3.8563,1.998504 -9.09505,4.736104 -11.64166,6.083554 -10.8793,5.75637 -19.18579,10.1347 -27.11979,14.29478 -49.13477,25.7631 -73.70937,41.75422 -89.69375,58.36527 -7.08827,7.36616 -14.14338,16.62693 -19.50271,25.59992 -10.02003,16.77626 -16.08281,37.30486 -16.18571,54.80484 -0.0309,5.25156 0.11542,6.61459 0.70996,6.61459 0.18333,0 1.1038,-0.78574 2.04548,-1.74608 4.7169,-4.81039 20.39912,-18.43803 24.13952,-20.97694 1.30469,-0.8856 3.41152,-3.61389 4.62114,-5.98427 2.42909,-4.76007 8.93886,-12.88743 16.10617,-20.10834 15.21541,-15.32919 41.45603,-33.40666 70.48385,-48.55716 9.66758,-5.0458 32.14407,-16.18472 34.80393,-17.24816 1.31585,-0.52609 4.11382,-1.75484 6.21771,-2.73054 2.10388,-0.97571 6.68274,-3.02204 10.17524,-4.54741 3.4925,-1.52536 7.71922,-3.43037 9.39271,-4.23335 4.08915,-1.96206 14.66587,-6.11433 20.39704,-8.0076 1.48764,-0.49143 1.90499,-0.53272 2.84005,-0.28093 1.33156,0.35855 2.59873,1.37341 2.30608,1.84692 -0.19184,0.3104 -3.66172,2.66344 -3.92762,2.66344 -0.0659,0 -1.05713,0.51785 -2.20263,1.15078 -5.36835,2.96621 -18.43498,9.44347 -30.26084,15.00061 -29.62238,13.91997 -56.35884,28.11324 -74.87708,39.74909 -15.45032,9.70814 -32.89199,23.7258 -43.84701,35.2393 -2.7837,2.92562 -3.50239,3.84564 -3.00406,3.84564 0.14486,0 2.79819,-1.29626 5.89629,-2.88057 13.29686,-6.79977 21.13824,-9.37228 30.76832,-10.0941 6.92479,-0.51904 6.92399,-0.53971 0.10222,2.62937 -22.90547,10.64081 -32.27549,15.86907 -45.47826,25.37588 -18.59877,13.39226 -38.22638,31.78142 -49.56217,46.43494 -6.64944,8.59558 -11.12377,16.47818 -12.77473,22.50574 -1.93384,7.06036 -0.61525,16.56327 3.1317,22.56976 3.08665,4.948 11.62926,10.15657 19.90291,12.13512 12.04656,2.8808 26.10244,1.91215 46.04916,-3.17343 9.81359,-2.50205 20.95278,-5.96224 27.46942,-8.53288 8.66807,-3.41933 16.56157,-5.899 18.77818,-5.899 0.81316,0 1.54316,0.10468 1.62224,0.23263 0.3789,0.61308 -3.83736,3.66528 -7.19321,5.20725 -1.70697,0.78433 -2.49641,1.47541 -2.11784,1.85398 0.17144,0.17144 16.94399,2.85562 31.29121,5.00766 4.36563,0.65483 8.29469,1.25517 8.73125,1.3341 0.43656,0.0789 3.175,0.49241 6.08542,0.91884 8.79157,1.28815 14.10781,2.08214 17.72708,2.64756 10.55997,1.64974 19.47246,2.639 26.9875,2.99552 4.21912,0.20017 23.64135,0.13604 28.44271,-0.0939 z m 104.14235,-6.47138 c 2.29681,-0.68208 3.27953,-2.17682 3.277,-4.98438 -0.003,-3.3812 -0.86426,-4.88943 -3.6173,-6.33493 -2.53279,-1.32985 -14.97963,-6.78013 -16.84386,-7.37567 -2.71941,-0.86872 -3.87642,-0.68595 -8.50924,1.34423 -2.18812,0.95888 -4.89479,2.74257 -4.89479,3.22567 0,0.68826 2.42285,2.7063 6.48229,5.39923 4.29898,2.85183 7.48173,4.58605 11.86712,6.46615 5.59183,2.39733 9.40473,3.10132 12.23878,2.2597 z M -883.334,341.3916 c 1.09873,-0.19603 2.58701,-0.65718 3.30729,-1.02479 4.19593,-2.14142 20.6722,-15.9227 20.11477,-16.82463 -0.10337,-0.16726 -0.65026,-0.53996 -1.21532,-0.82823 -1.2566,-0.64107 -8.6268,-3.17248 -9.23667,-3.17248 -0.49099,0 -13.49451,8.63941 -16.32744,10.84779 -4.78591,3.73081 -5.66782,5.31304 -4.37448,7.84821 0.62706,1.22912 2.41593,2.92931 3.2801,3.11749 0.61683,0.13431 1.71767,0.31846 2.18948,0.36625 0.14552,0.0147 1.16354,-0.13359 2.26227,-0.32961 z m -32.23645,-3.58953 c 8.74041,-1.13401 13.52553,-3.08677 21.90439,-8.93897 8.82346,-6.16272 14.81666,-10.83461 14.81666,-11.55003 0,-0.45662 -2.33764,-1.55967 -6.23656,-2.94278 l -3.28023,-1.16364 -5.22962,2.57908 c -7.15921,3.53069 -13.47932,6.0787 -25.73483,10.37523 -6.72536,2.35776 -10.25528,3.81282 -11.04984,4.55483 -2.8694,2.67961 -0.95147,6.56997 3.62045,7.34378 2.25587,0.38181 7.12589,0.26974 11.18958,-0.2575 z m 478.65546,-4.76656 c 0.55346,-0.16364 1.37242,-0.62468 1.81993,-1.02452 0.65641,-0.58651 0.83908,-0.99177 0.9453,-2.09727 0.22543,-2.34609 -0.52477,-3.37146 -3.60981,-4.93382 -0.78419,-0.39713 -5.54446,-2.33357 -10.5784,-4.3032 -6.74773,-2.64018 -9.43752,-3.57541 -10.23697,-3.55936 -1.98435,0.0398 -8.4221,2.75581 -8.78716,3.70716 -0.34254,0.89263 1.19132,1.73932 9.35116,5.1618 4.15548,1.74293 6.24672,2.85953 9.8332,5.25032 1.48947,0.9929 3.15635,1.91874 3.70417,2.05742 1.23584,0.31286 6.20037,0.14306 7.55858,-0.25853 z m -359.83575,-10.38518 c 0.16133,-8.27537 0.33967,-9.48688 2.17135,-14.75052 2.72573,-7.83287 10.81785,-20.40906 19.57824,-30.42709 1.33615,-1.52796 2.88253,-3.37343 3.43638,-4.10104 1.78669,-2.34717 1.76641,-2.18012 1.16032,-9.55586 -0.78169,-9.51259 -0.50372,-15.21399 1.13364,-23.25247 1.73202,-8.50314 5.31543,-20.65177 7.88231,-26.72292 1.60902,-3.8056 7.06987,-14.65936 8.81185,-17.51406 1.60738,-2.63412 10.15237,-14.08122 13.39187,-17.9401 2.28525,-2.7222 8.65617,-9.14205 16.20177,-16.32624 2.85241,-2.71578 5.33592,-5.29927 5.51893,-5.74108 0.31472,-0.75982 0.27281,-0.87888 -0.77463,-2.20028 -5.25136,-6.62486 -28.95036,-29.94278 -44.32702,-43.61423 -20.93886,-18.616844 -38.74714,-35.872164 -47.90568,-46.418174 -9.67868,-11.14496 -15.84124,-21.51657 -18.23623,-30.69166 -0.7977,-3.05595 -1.15084,-5.95313 -0.72563,-5.95313 0.27288,0 1.91304,2.45054 1.91304,2.85824 0,0.36915 1.53171,2.04064 1.71007,1.86613 0.0958,-0.0937 0.34349,-1.10577 0.55041,-2.24896 0.60014,-3.31555 2.77346,-19.440212 2.76987,-20.5506136 -0.008,-2.333142 -0.90354,-2.542467 -4.60067,-1.07483 -9.09321,3.6096936 -18.38611,12.1744936 -22.64397,20.8698236 -3.43708,7.01914 -4.77659,12.12724 -4.97616,18.97614 -0.19208,6.59179 0.55365,11.55105 3.11553,20.71912 1.18205,4.23012 2.06353,8.01717 2.50777,10.77401 0.19371,1.20213 -0.25177,1.32625 -1.18702,0.33073 -0.88671,-0.94387 -1.66348,-0.84462 -2.58839,0.33073 -2.58816,3.28897 -4.02871,9.88801 -3.67583,16.83865 0.265,5.219584 1.44235,9.111064 5.63569,18.627484 3.76825,8.55174 6.23352,13.38508 9.4647,18.55624 3.80922,6.09626 5.0445,9.01461 3.81571,9.01461 -0.8228,0 -7.45297,-7.88221 -10.61699,-12.6219 -1.08848,-1.63053 -3.0013,-4.96428 -4.25072,-7.40833 -1.24941,-2.44405 -2.57121,-4.80092 -2.93733,-5.23748 l -0.66567,-0.79375 -0.52773,0.62161 c -1.78462,2.10212 -2.73147,13.07939 -1.72647,20.01589 0.45493,3.13996 0.50158,5.26916 0.13064,5.96228 -0.19315,0.3609 -0.53229,0.49365 -1.19729,0.46865 -0.68566,-0.0258 -1.12966,0.15851 -1.70128,0.70615 -1.77933,1.70471 -3.8889,7.17366 -4.54421,11.78063 -0.55016,3.86777 -0.46971,18.37013 0.12899,23.25087 0.86685,7.0667 3.5318,16.34905 6.57999,22.91892 4.82564,10.40084 5.53012,12.0978 5.1713,12.45663 -0.27043,0.27043 -1.62182,-0.60203 -3.48894,-2.25247 -1.45087,-1.2825 -1.89766,-1.5507 -2.13676,-1.28265 -4.91128,5.50583 -6.76224,8.59835 -8.70749,14.5482 -1.94066,5.93577 -2.65991,11.41465 -2.45443,18.69663 0.20539,7.27897 1.01809,10.88791 3.94025,17.4972 2.25898,5.10934 4.2097,8.47401 8.06758,13.91525 3.26551,4.60574 3.80284,5.9458 2.81972,7.03214 -0.70502,0.77904 -1.85595,0.62664 -2.34024,-0.30989 -0.22576,-0.43657 -0.62237,-0.79375 -0.88136,-0.79375 -1.24887,0 -9.15372,-7.64247 -11.87644,-11.48224 -3.85256,-5.43315 -7.71464,-14.76311 -8.16577,-19.72677 -0.2183,-2.40182 -0.58005,-3.44172 -1.29134,-3.71215 -2.60155,-0.98911 -17.74551,3.71288 -26.00762,8.07501 -7.0506,3.7225 -11.73799,8.12017 -14.37205,13.48376 -1.31339,2.67438 -1.68444,5.11574 -1.47477,9.70357 0.17889,3.91468 0.61319,5.4016 2.42824,8.31373 4.72463,7.58036 10.39599,10.33165 44.3109,21.49609 16.90429,5.56472 31.16264,9.95212 41.275,12.70064 9.31467,2.53171 26.09092,6.73854 34.26354,8.59196 0.29104,0.066 1.07943,0.13382 1.75198,0.1507 l 1.22282,0.0307 z m -141.24315,4.43355 c 2.12433,-0.20452 4.01728,-0.7769 7.02641,-2.12458 1.3851,-0.62034 3.82588,-1.50167 5.42396,-1.95852 5.52101,-1.57832 17.00228,-5.98696 24.58622,-9.44074 4.72251,-2.15067 4.79389,-2.22086 3.20537,-3.15179 -1.50991,-0.88487 -7.09565,-3.17204 -9.12398,-3.73597 l -1.48673,-0.41334 -2.79741,1.19485 c -5.71198,2.43973 -20.005,6.05494 -29.04259,7.34588 -4.64815,0.66396 -8.63819,1.44146 -10.31027,2.00908 -1.45984,0.49557 -2.31295,1.12566 -3.0869,2.27993 -2.46362,3.67428 -0.56367,6.12762 5.8052,7.49605 2.17952,0.46829 5.96335,0.84764 7.2973,0.73158 0.50932,-0.0443 1.63586,-0.14891 2.50342,-0.23243 z m 523.85353,-3.20538 c 2.91219,-0.46279 4.32463,-1.03756 5.65397,-2.30079 1.11066,-1.05541 1.12441,-1.98115 0.0476,-3.20751 -1.31145,-1.49366 -2.29427,-1.94516 -9.85899,-4.52908 -3.95347,-1.35041 -9.43228,-3.23964 -12.17513,-4.1983 -2.74285,-0.95866 -5.30784,-1.74301 -5.69998,-1.74301 -2.27102,0 -13.24617,4.13471 -14.27923,5.37948 -0.58863,0.70925 -0.13143,0.91469 13.85371,6.22528 7.35104,2.79141 11.60267,4.24295 13.22433,4.51489 2.22002,0.37228 6.40614,0.30837 9.23368,-0.14096 z m 12.46612,-12.57105 c 1.3354,-0.37072 3.30816,-2.2787 3.30816,-3.19953 0,-0.86944 -0.56437,-1.33765 -2.92285,-2.42482 -2.07931,-0.95848 -10.50148,-3.70451 -14.73737,-4.80509 -3.59109,-0.93304 -4.27835,-0.87574 -7.50733,0.62592 -1.51029,0.70237 -3.19247,1.47435 -3.73818,1.71551 -0.5457,0.24116 -0.99218,0.61291 -0.99218,0.82611 0,0.21501 0.73644,0.73881 1.65364,1.17616 2.80882,1.33936 14.33579,5.11215 18.19011,5.95365 2.11626,0.46204 5.33077,0.52498 6.746,0.13209 z m -527.84286,-16.3726 c 1.16416,-0.15926 2.43439,-0.37315 2.82272,-0.47532 l 0.70605,-0.18576 -2.60588,-4.8948 c -2.3663,-4.44478 -2.67445,-4.90182 -3.35188,-4.97129 -1.71331,-0.17571 -33.95687,0.4903 -35.48074,0.73287 -1.94127,0.30902 -3.03689,0.81107 -4.22018,1.93387 -1.81284,1.72014 -1.63239,3.67026 0.4813,5.20141 2.21189,1.60228 6.6925,2.43118 15.71944,2.90806 5.6984,0.30103 23.13225,0.13359 25.92917,-0.24904 z m 550.20272,0.26463 c 2.69661,-0.5114 4.85967,-2.01535 5.17642,-3.59911 0.32914,-1.6457 -2.1363,-3.42543 -6.36874,-4.59742 -1.16417,-0.32236 -4.22815,-1.29947 -6.80884,-2.17136 l -4.69217,-1.58525 -3.81838,2.94624 c -4.19434,3.23633 -4.52631,3.54888 -4.24787,3.99941 0.32205,0.52109 3.9034,2.02346 7.4527,3.1264 6.24704,1.94127 10.11008,2.48736 13.30688,1.88109 z m 18.91601,-12.02594 c 7.4516,-2.17226 7.4143,-3.99379 -0.13229,-6.46022 -3.35094,-1.09518 -19.37383,-4.79685 -20.76344,-4.79685 -0.45912,0 -4.13607,4.17785 -5.09635,5.79061 -0.65598,1.10171 -0.66688,1.17798 -0.2155,1.50804 1.26022,0.92149 10.0058,3.50718 15.09508,4.46295 3.20587,0.60207 8.07478,0.38101 11.1125,-0.50453 z m 5.29167,-14.05704 c 3.06315,-0.49996 4.78823,-1.34996 6.46644,-3.18618 1.80288,-1.97263 1.80278,-2.63059 -6.2e-4,-4.0561 -2.10133,-1.661 -2.53657,-1.72253 -11.75749,-1.66198 -7.42653,0.0488 -17.68967,0.59841 -18.05838,0.96713 -0.21077,0.21077 -1.09055,5.54051 -0.95233,5.76929 0.35491,0.58744 6.60782,1.81532 11.73467,2.30433 5.60665,0.53478 8.65805,0.50164 12.56771,-0.13649 z m -575.005,-1.49257 c 0.26206,-0.33124 0.89656,-1.30442 1.40999,-2.16262 1.22208,-2.0427 2.73719,-3.99244 5.34327,-6.87606 2.14805,-2.37682 2.92032,-3.47487 2.64061,-3.75457 -0.30197,-0.30198 -11.52548,1.21673 -17.9274,2.42583 -4.1943,0.79216 -5.35053,1.25097 -7.0121,2.78256 -1.43463,1.3224 -1.98373,2.26767 -1.98373,3.41499 0,2.50177 2.25498,3.30157 13.36146,4.73903 2.47543,0.32038 3.58389,0.16902 4.1679,-0.56916 z m 41.07585,-26.67636 c 6.52085,-1.12318 7.78313,-1.50935 8.52321,-2.60755 0.66591,-0.98814 0.82483,-2.87488 0.28741,-3.41229 -1.14694,-1.14695 -13.48555,0.66617 -15.76363,2.31641 -1.60362,1.16165 -2.45585,3.57828 -1.57981,4.47974 0.42966,0.44212 2.61136,0.24363 8.53282,-0.77631 z m 182.63798,-91.66226 c 0.83161,-0.37866 4.60764,-2.74905 8.39118,-5.26752 10.6338,-7.07828 20.30183,-12.72749 39.5552,-23.11285 2.69214,-1.45215 6.74026,-3.64641 8.99584,-4.87612 2.25557,-1.22972 7.67291,-4.09089 12.03854,-6.35816 15.1542,-7.87025 34.94952,-18.136314 39.42291,-20.445124 12.41196,-6.40609 21.99306,-11.66881 33.99896,-18.67499 4.45924,-2.60224 13.87389,-8.46244 15.97508,-9.94377 1.00093,-0.70566 2.48922,-1.65108 3.30729,-2.10095 1.34407,-0.73911 12.5088,-8.15793 18.80133,-12.49323 3.15183,-2.17148 9.99768,-7.24323 13.11317,-9.7149 1.30969,-1.03904 3.30286,-2.51833 4.42926,-3.28733 2.09687,-1.43153 4.9636,-4.25166 6.16062,-6.06048 1.06302,-1.60634 1.2545,-3.63129 0.92857,-9.819918 -1.23396,-23.4301246 -5.29969,-41.423218 -12.94515,-57.28953 -2.3206,-4.815854 -4.44235,-8.489017 -8.10014,-14.022916 -3.8709,-5.856313 -5.51239,-8.047411 -9.02598,-12.048005 -1.593,-1.813805 -4.10003,-4.726578 -5.57117,-6.472828 -6.21174,-7.373326 -16.76472,-16.818616 -24.95621,-22.336684 -9.81941,-6.614685 -17.97579,-11.049385 -28.82012,-15.669765 -2.39039,-1.01846 -4.89071,-2.12726 -5.55625,-2.46401 -3.97432,-2.01089 -20.39309,-6.46261 -31.63717,-8.57798 -3.87226,-0.7285 -13.32974,-2.03941 -18.40327,-2.55091 -8.87066,-0.8943 -26.14382,-0.76627 -37.6884,0.27936 -22.82482,2.06732 -45.49292,9.8855 -63.49999,21.90101 -9.12628,6.089654 -15.75028,11.687689 -24.27442,20.514645 -14.67533,15.196677 -25.58066,33.472496 -33.25613,55.732689 -6.04045,17.5183294 -12.4293,48.185482 -13.10756,62.917662 l -0.16796,3.64809 2.1734,2.96649 c 5.97218,8.15144 12.83095,15.91405 24.44725,27.66892 8.19368,8.29141 16.3696,16.13157 21.56354,20.67797 3.1146,2.7263 6.71436,6.02232 12.56524,11.505014 2.4847,2.32833 6.95453,6.51441 9.93297,9.3024 5.86325,5.48834 30.35402,30.01404 34.35552,34.40452 1.35169,1.48307 2.71545,2.75192 3.03058,2.81965 0.98715,0.21217 2.25662,-0.037 3.82347,-0.75045 z m 81.55392,-100.155134 c -6.2956,-1.68278 -11.38254,-6.3651 -11.38254,-10.47717 0,-1.0287 -0.0504,-1.04922 -1.08106,-0.44039 -0.48205,0.28475 -0.85242,0.35828 -0.99951,0.19844 -0.12852,-0.13968 -0.73972,-1.56364 -1.35821,-3.16437 -1.04501,-2.70462 -1.13402,-3.13765 -1.25878,-6.12397 -0.15459,-3.70028 0.24292,-8.11328 1.0008,-11.110414 0.28931,-1.144109 1.14283,-3.319578 1.89672,-4.834374 2.44096,-4.9046636 7.37232,-9.3774016 12.12515,-10.9975076 2.00238,-0.682557 2.68308,-0.776293 6.35481,-0.87509 3.33456,-0.08972 4.30143,-0.03158 5.11286,0.307451 0.77456,0.323633 0.9896,0.553803 0.95173,1.018711 -0.0269,0.330336 -0.0357,0.749439 -0.0196,0.93134 0.0472,0.533368 1.31477,0.383487 1.67819,-0.198437 0.49114,-0.786434 0.94929,-0.659237 2.89813,0.804609 3.41068,2.561886 8.15297,8.1234576 8.15297,9.5614796 0,0.340517 0.22434,0.759227 0.49854,0.930466 1.19815,0.748256 2.14338,5.919796 2.14573,11.739746 8.6e-4,2.11971 -0.12283,4.56049 -0.27486,5.42396 -0.57273,3.25283 -5.27397,11.39563 -7.13648,12.36078 -0.51184,0.26523 -1.20539,0.88325 -1.54123,1.37336 -0.72725,1.06136 -2.00161,1.6185 -4.83241,2.11269 -1.14043,0.19909 -2.76148,0.69805 -3.60233,1.1088 -1.3551,0.66195 -1.85957,0.75432 -4.43925,0.81283 -2.23535,0.0507 -3.36943,-0.0567 -4.88934,-0.46294 z m -4.51299,-3.55315 c 0.39665,-0.47793 0.14193,-0.93763 -0.51955,-0.93763 -0.27386,0 -0.57474,0.12428 -0.66862,0.27617 -0.17544,0.28387 0.31186,1.04674 0.66862,1.04674 0.10989,0 0.34368,-0.17337 0.51955,-0.38528 z m 12.0801,-22.64892 c 1.49165,-0.7221 2.90947,-2.33267 3.29228,-3.739862 0.40511,-1.48918 0.1381,-5.015246 -0.47427,-6.26293 -0.25778,-0.525238 -0.85778,-1.214007 -1.33332,-1.530597 -1.0234,-0.681332 -4.17435,-1.297363 -4.99378,-0.976319 -0.6342,0.248474 -4.33278,4.903547 -4.31964,5.436757 0.005,0.187842 0.18322,0.572647 0.39687,0.855122 0.21366,0.282475 0.38963,0.877787 0.39105,1.322916 0.005,1.668193 1.64655,4.216653 3.3047,5.131493 0.83749,0.46206 2.51194,0.35602 3.73611,-0.23658 z m 0.62952,-17.1980756 c 0,-0.522374 -0.13318,-0.778135 -0.40518,-0.778135 -0.55962,0 -0.75337,0.641285 -0.39567,1.309652 0.38884,0.726555 0.80085,0.453108 0.80085,-0.531517 z m -71.4375,42.3953156 c -0.80036,-0.26604 -2.34818,-0.99247 -3.43958,-1.61429 -2.54499,-1.44999 -3.2329,-1.46867 -5.04855,-0.13705 l -1.42282,1.04351 -3.70963,-0.005 c -6.52535,-0.009 -8.37262,-1.08573 -11.11088,-6.47776 -2.42262,-4.77047 -2.3177,-8.8625 0.2548,-9.93736 2.13297,-0.89121 3.0536,-0.36658 4.41056,2.51339 0.58697,1.24577 1.42613,3.02089 1.8648,3.94471 1.10292,2.32269 2.75097,4.00887 3.91822,4.00887 1.11525,0 2.24415,-0.76816 3.43517,-2.33747 1.79778,-2.36879 3.25375,-3.67751 4.44945,-3.99948 2.09973,-0.5654 3.67764,0.37784 6.10136,3.64725 1.6332,2.20307 3.04438,3.08006 4.6223,2.87258 1.44835,-0.19044 2.9673,-1.83016 4.93522,-5.32761 1.52005,-2.70149 2.80801,-4.11569 3.74829,-4.11569 0.90174,0 2.24709,0.99566 2.73518,2.02424 0.68338,1.44012 0.14608,4.84598 -0.95574,6.05827 -0.27088,0.29804 -0.57087,0.95288 -0.66666,1.45521 -0.0958,0.50233 -0.32534,1.21473 -0.51013,1.58311 -0.61093,1.21789 -3.00542,3.18202 -5.08077,4.1676 -1.84196,0.87474 -2.28884,0.97701 -4.55876,1.04322 -1.88641,0.055 -2.88103,-0.0477 -3.97183,-0.41028 z m -78.58125,-5.08386 c -1.0914,-0.28074 -3.22699,-1.12338 -4.74576,-1.87253 -2.34884,-1.1586 -3.10354,-1.70273 -5.05162,-3.64218 -3.49246,-3.477 -5.31352,-6.47181 -6.27389,-10.3177 -0.32989,-1.32107 -0.43773,-2.9884 -0.43843,-6.77906 -10e-4,-6.653946 0.70939,-10.360007 2.2653,-11.8139616 0.41286,-0.385806 0.75065,-0.928043 0.75065,-1.204971 0,-1.394588 3.49036,-5.424262 6.97698,-8.05503401 4.10944,-3.10071399 6.92161,-4.06210199 11.80844,-4.03692199 2.72512,0.01404 3.68047,0.131271 5.4273,0.665971 3.77861,1.156622 7.02656,3.36332799 9.43509,6.410351 1.18216,1.495542 1.2492,2.06659 0.36589,3.116352 -0.55789,0.663014 -0.60885,0.877233 -0.37099,1.559549 0.15165,0.435029 0.34771,0.790961 0.43568,0.790961 0.088,0 0.55233,-0.380294 1.03188,-0.845099 0.84773,-0.821651 0.88274,-0.830827 1.26174,-0.330729 0.71273,0.940457 1.9425,4.1914796 2.3672,6.2579026 0.55137,2.68281 0.55342,8.43905 0.004,11.33517 -0.86259,4.5472 -2.97536,8.72843 -6.17206,12.21465 -2.8395,3.09667 -5.05826,4.25644 -8.99646,4.70257 -2.90301,0.32886 -3.11279,0.40614 -3.3176,1.22216 -0.0911,0.36296 -0.46097,0.76475 -0.83485,0.9069 -1.05825,0.40234 -3.76333,0.2726 -5.92852,-0.28435 z m 8.66123,-26.344603 c 2.40682,-1.670757 2.56939,-2.015089 2.67142,-5.658347 0.11286,-4.0295686 -0.19384,-4.8032806 -2.28318,-5.7598126 -1.21517,-0.556323 -1.70521,-0.637478 -3.1493,-0.52156 -2.10056,0.168612 -2.96548,0.865836 -4.07994,3.288863 -1.07008,2.3265596 -1.21979,4.0665416 -0.51158,5.9458886 1.50579,3.995876 4.11183,4.954619 7.35258,2.704968 z M -586.1467,-121.97174 c 4.10474,-0.93912 4.50574,-0.98243 9.18688,-0.99219 2.69213,-0.006 7.99041,0.15586 11.77396,0.35884 16.65668,0.89361 27.09139,-1.13914 35.87938,-6.98955 4.10841,-2.73507 6.34329,-5.17298 8.27527,-9.02702 2.38257,-4.7529 2.24608,-9.0602 -0.42917,-13.54431 -1.26424,-2.11904 -4.67801,-5.61716 -7.58262,-7.76995 -2.92103,-2.16497 -5.1926,-4.26075 -5.73616,-5.29227 -0.50912,-0.96614 -0.47142,-2.31278 0.0883,-3.15307 0.65408,-0.98202 1.54157,-1.66421 5.88523,-4.52387 2.11006,-1.38916 4.81538,-3.37672 6.01183,-4.4168 5.44514,-4.7335 9.81743,-11.18045 11.61648,-17.12854 0.6246,-2.06511 0.71154,-2.81226 0.73436,-6.31117 0.029,-4.45123 -0.26298,-5.77731 -1.80102,-8.17913 -3.49901,-5.46412 -10.76882,-8.35732 -20.99958,-8.35732 -8.40738,0 -16.51341,1.88015 -24.04869,5.57799 -3.77836,1.85417 -4.38147,2.52697 -6.88753,7.68331 -3.21614,6.61738 -6.29554,11.38758 -11.16677,17.29807 -1.0794,1.30969 -7.33242,7.73906 -13.8956,14.2875 -6.56318,6.54843 -12.8842,13.06793 -14.0467,14.48777 -3.0064,3.67191 -5.22807,7.3325 -8.95121,14.74868 -3.42864,6.82958 -5.07908,10.65389 -5.36236,12.42538 -0.16935,1.05911 -0.16093,1.07259 0.98747,1.57999 1.78846,0.79021 5.73601,1.86963 6.83739,1.86963 0.89151,0 1.10692,-0.15095 2.17103,-1.52135 0.64972,-0.83675 2.35101,-3.24776 3.78064,-5.35781 1.42963,-2.11006 3.27672,-4.61037 4.10465,-5.55625 0.82793,-0.94589 2.36765,-2.79136 3.42161,-4.10105 5.00738,-6.22237 18.24735,-19.49215 26.66388,-26.72391 5.41896,-4.65614 7.60924,-6.03994 8.15706,-5.15355 0.34775,0.56266 -1.07202,2.16422 -5.9693,6.73363 -8.34608,7.78732 -18.42689,18.50642 -25.27861,26.87918 -7.57754,9.25971 -10.97843,13.86531 -11.35665,15.37958 -0.16162,0.64703 -0.0619,0.76935 1.11222,1.36432 2.4855,1.2595 7.41575,3.02843 11.45916,4.11145 0.50932,0.13642 0.95913,0.25878 0.99957,0.2719 0.0404,0.0131 2.00498,-0.41803 4.36563,-0.95811 z m -41.03026,-9.87877 c 0.93681,-0.42759 1.65464,-1.7399 2.97905,-5.44616 3.0167,-8.442 5.45286,-13.62497 8.81326,-18.75039 4.20861,-6.41915 8.1103,-10.8484 20.29,-23.03349 8.95403,-8.95798 12.94472,-13.4535 16.69569,-18.80771 5.99998,-8.56452 9.83595,-18.08013 11.34431,-28.14108 1.14504,-7.63749 1.10051,-16.27726 -0.1163,-22.5689 -2.16087,-11.17296 -8.00144,-18.01701 -17.01779,-19.94166 -2.48591,-0.53065 -8.79979,-0.32138 -12.35025,0.40935 -6.84934,1.40967 -11.68828,3.71272 -18.37799,8.74684 -3.06139,2.30375 -7.99087,6.98163 -10.19448,9.67416 -4.69557,5.73737 -8.06098,13.00885 -9.12293,19.71146 -1.035,6.5325 -1.07281,6.62121 -3.10656,7.2902 -0.76949,0.25312 -1.91814,0.81466 -2.55255,1.24787 -3.30676,2.25805 -7.6863,6.78821 -9.42559,9.74975 -1.0605,1.80575 -2.55973,5.54205 -3.43302,8.5556 -1.53607,5.30065 -2.18999,14.67767 -1.73257,24.84449 0.36355,8.08049 0.47742,9.19558 2.39498,23.45375 2.72204,20.2399 2.64627,19.84728 3.92514,20.33928 0.8576,0.32992 5.58807,0.69096 5.58807,0.42648 0,-1.25729 0.93918,-10.05701 1.35503,-12.69597 3.10404,-19.6985 11.09599,-43.20476 19.94352,-58.65872 3.7498,-6.54974 7.54104,-12.01111 7.54104,-10.86302 0,0.4318 -1.74261,4.50952 -4.83477,11.31341 -6.53505,14.37949 -10.99626,26.81183 -13.90914,38.76145 -3.01207,12.35653 -6.66681,31.76094 -6.1087,32.43343 0.30331,0.36546 1.56423,0.73947 4.74427,1.40722 4.22457,0.88709 5.65766,1.00365 6.66828,0.54236 z m -41.32869,-3.20546 c 0,-0.16933 -0.63464,-1.50879 -1.41031,-2.97657 -2.52815,-4.78396 -5.6248,-12.97952 -8.51586,-22.53798 -3.49048,-11.54031 -5.0599,-19.22294 -4.0539,-19.84468 0.91826,-0.56752 1.89626,1.93911 10.98926,28.16586 1.69757,4.89625 3.74957,10.80728 4.56,13.13561 l 1.47352,4.23334 4.20295,0.073 4.20295,0.0731 -0.14782,-0.99909 c -0.0813,-0.5495 -0.64184,-3.61846 -1.24565,-6.81992 -3.59289,-19.0499 -4.34682,-26.70499 -4.72957,-48.02188 l -0.20665,-11.50937 -1.76361,-2.95658 c -2.23023,-3.73886 -4.2081,-6.21991 -7.29107,-9.14598 -5.03599,-4.77969 -9.29119,-6.81396 -14.32049,-6.84614 -5.14431,-0.0329 -9.61711,2.02558 -13.96789,6.42841 -2.69411,2.72633 -4.855,5.85538 -6.8192,9.87445 -5.59917,11.45682 -7.33828,24.71976 -4.85294,37.00982 1.68575,8.33606 4.91358,14.39202 10.81032,20.28202 6.56511,6.55759 14.44377,10.82862 22.63492,12.2704 2.68182,0.47205 10.45104,0.55544 10.45104,0.11218 z"
       id="path1" /></g></svg>
