<?xml version="1.0" encoding="UTF-8" standalone="no"?>
<!-- Created with Inkscape (http://www.inkscape.org/) -->

<svg
   width="482.87946mm"
   height="545.29437mm"
   viewBox="0 0 482.87946 545.29438"
   version="1.1"
   id="svg1"
   xml:space="preserve"
   xmlns="http://www.w3.org/2000/svg"
   xmlns:svg="http://www.w3.org/2000/svg"><defs
     id="defs1" /><g
     id="layer1"
     transform="translate(963.24579,222.58505)"><path
       style="fill:#000000"
       d="m -780.98757,321.69411 c -8.20286,-3.25311 -19.42671,-10.91755 -21.12493,-14.4256 -0.29923,-0.61813 -0.54405,-1.36056 -0.54405,-1.64984 0,-0.28929 -0.31221,-1.15249 -0.6938,-1.91824 -0.69257,-1.3898 -0.69295,-1.39415 -0.21428,-2.45564 0.26373,-0.58485 0.95657,-1.47172 1.53964,-1.97081 1.40114,-1.19931 2.77647,-1.56146 4.56553,-1.20216 3.09346,0.62125 9.48804,4.51587 15.04353,9.16225 2.73902,2.29081 4.36817,3.13378 6.10535,3.15911 1.07098,0.0156 1.53336,-0.12563 2.28381,-0.69762 0.51753,-0.39446 1.02298,-1.04398 1.12322,-1.44338 0.10024,-0.3994 0.42125,-0.89357 0.71335,-1.09817 0.2921,-0.2046 1.03834,-1.16334 1.6583,-2.13054 0.61996,-0.9672 2.10272,-2.81152 3.29502,-4.09848 1.1923,-1.28697 2.39159,-2.77433 2.66508,-3.30525 0.27349,-0.53093 1.09018,-1.4044 1.81486,-1.94107 0.72468,-0.53666 1.60219,-1.48916 1.95003,-2.11666 0.55547,-1.00207 0.74349,-1.14092 1.54501,-1.14092 0.83941,0 0.92481,-0.075 1.06531,-0.93503 0.18445,-1.12918 0.0452,-0.89927 2.59967,-4.29234 3.15256,-4.18752 3.63697,-6.04546 1.8183,-6.97407 -0.47083,-0.24041 -1.35942,-0.89742 -1.97463,-1.46002 -0.98977,-0.90513 -1.2726,-1.02292 -2.45632,-1.02292 -1.24839,0 -1.37424,-0.0618 -1.88413,-0.92604 -0.95893,-1.62527 -1.49254,-1.31193 -5.36454,3.15011 -0.85973,0.99074 -1.88665,1.91412 -2.28203,2.05195 -0.51717,0.18029 -0.71889,0.43171 -0.71889,0.89601 0,0.35771 -0.51598,1.31263 -1.15755,2.14225 -0.63665,0.82326 -1.5393,2.04441 -2.00588,2.71368 -1.33136,1.90969 -5.89862,6.6525 -7.20265,7.47949 -1.98069,1.25611 -3.07174,0.98281 -4.08795,-1.02399 -0.56144,-1.10873 -0.54227,-1.82117 0.0605,-2.2471 0.26908,-0.19015 0.7446,-0.92475 1.0567,-1.63245 0.73246,-1.66084 4.64842,-6.83605 10.33792,-13.66224 3.03941,-3.64664 4.57205,-5.69697 4.67726,-6.25714 0.1108,-0.58991 -0.12685,-1.63285 -0.81392,-3.57188 -1.992,-5.62173 -2.76926,-8.23817 -3.69021,-12.42214 -0.52016,-2.36314 -0.97523,-4.32468 -1.01126,-4.35899 -0.036,-0.0343 -1.1877,0.41803 -2.55925,1.00518 -1.37156,0.58714 -2.8074,1.09221 -3.19076,1.12237 -0.38337,0.0302 -1.35836,0.36769 -2.16666,0.75008 -4.84377,2.29147 -20.35438,5.12366 -31.42156,5.73748 -6.00894,0.33328 -18.54729,0.33513 -23.99858,0.004 -7.50171,-0.45631 -15.36988,-1.80016 -22.45371,-3.83502 -12.06857,-3.46673 -18.88059,-7.88951 -21.95641,-14.25545 -1.91583,-3.96514 -2.96063,-7.75279 -9.91556,-35.94634 -4.47672,-18.14749 -4.80963,-19.19433 -6.06,-19.05583 -1.39505,0.15453 -8.16358,-4.07337 -10.8968,-6.80659 -2.10943,-2.10944 -3.68934,-4.38843 -5.02584,-7.24971 -1.14006,-2.44073 -1.67794,-4.34898 -2.38455,-8.45978 -0.59378,-3.45432 -1.21475,-4.81254 -2.6687,-5.83706 -2.66242,-1.87608 -6.50579,-6.02053 -8.94612,-9.64695 -1.48732,-2.2102 -3.35016,-6.16718 -3.75768,-7.98193 -0.46525,-2.0718 -0.46568,-13.42426 -5.8e-4,-15.33384 0.55569,-2.28154 3.7912,-8.60178 5.6888,-11.1125 2.42097,-3.20321 6.16371,-7.09646 7.26411,-7.55624 0.5133,-0.21447 1.53913,-0.90685 2.27963,-1.53862 0.7405,-0.63178 2.47746,-1.77924 3.85991,-2.54993 1.38244,-0.77068 3.01837,-1.684897 3.63539,-2.031587 1.29962,-0.73023 1.58585,-1.47007 1.11764,-2.88876 -0.1784,-0.54056 -2.53037,-4.26194 -5.22661,-8.26973 -6.00437,-8.92514 -12.25745,-18.60255 -15.66618,-24.24534 -1.40651,-2.32833 -4.22347,-6.85271 -6.25991,-10.05417 -4.60848,-7.24494 -9.92016,-16.09834 -15.7705,-26.28596 -2.47787,-4.31491 -5.33025,-9.27403 -6.33862,-11.02028 -2.37043,-4.105038 -5.19102,-9.9033254 -6.3928,-13.1416994 -2.5358,-6.833052 -2.28487,-13.7361486 0.67817,-18.6570506 2.14445,-3.561427 6.72899,-7.535819 10.70552,-9.280759 7.75473,-3.402847 16.50796,-1.005325 21.63266,5.925217 5.41168,7.318653 16.80095,27.7491266 34.42062,61.744912 6.69622,12.91984 9.16666,17.47058 9.40439,17.32365 0.1262,-0.078 1.26651,-1.65624 2.53401,-3.50721 3.07671,-4.49301 6.50826,-8.54292 10.5436,-12.44353 4.03672,-3.90194 5.94461,-5.37727 7.2352,-5.59481 0.71833,-0.12108 0.95556,-0.28151 0.89978,-0.60848 -0.0461,-0.27023 0.36814,-0.76615 1.05833,-1.26699 1.89121,-1.37235 13.35897,-6.93542 16.74451,-8.12285 12.25352,-4.29775 26.03425,-5.62062 38.2323,-3.67009 4.82307,0.77123 9.50322,1.33153 9.67632,1.15843 0.0673,-0.0673 0.29973,-3.14648 0.51653,-6.84263 1.08738,-18.5384934 4.40628,-35.642892 10.41668,-53.683821 7.03134,-21.105424 16.04773,-37.653313 28.90458,-53.048957 2.74063,-3.281803 10.44681,-11.1711 13.32667,-13.643335 9.8245,-8.4339 19.68127,-14.48734 32.40922,-19.90379 10.65537,-4.53446 19.87843,-7.08348 31.75,-8.77487 7.14892,-1.01854 12.36238,-1.28943 21.36553,-1.11017 4.8319,0.0962 8.26605,0.0598 8.6651,-0.0919 0.95527,-0.36319 0.8469,-0.95958 -0.75797,-4.17143 -4.58473,-9.1755 -6.85037,-19.2868 -6.86126,-30.62112 -0.008,-8.55568 0.92071,-12.9897 4.0464,-19.31458 2.10285,-4.25513 3.90306,-6.74688 4.87442,-6.74688 0.49233,0 0.60352,-0.11204 0.50083,-0.5047 -0.19029,-0.7277 0.85854,-1.69597 1.66922,-1.541 0.52639,0.10063 0.61447,0.0356 0.48861,-0.36099 -0.34639,-1.09137 4.1531,-4.78376 6.26401,-5.14039 0.57463,-0.0971 1.02011,-0.32314 1.02011,-0.51766 0,-0.38297 0.13097,-0.44723 2.77491,-1.36143 6.88348,-2.3801 13.60039,-2.1976 20.48535,0.55659 3.87699,1.55092 3.18039,1.8537 7.1135,-3.09196 1.89451,-2.38224 4.62064,-5.45772 6.05805,-6.83438 8.21017,-7.8632 18.75687,-12.3979 28.88631,-12.42006 4.83828,-0.0106 11.39305,1.54964 15.01146,3.57316 7.51851,4.2046 13.30126,11.72457 16.37385,21.29282 1.65366,5.14959 2.26964,8.5766 2.43861,13.56703 0.0827,2.44139 0.24833,4.49949 0.36816,4.57354 0.30347,0.18756 2.34242,-0.89426 4.99654,-2.65104 9.75349,-6.45591 21.98923,-8.81761 32.20878,-6.21682 2.60974,0.66415 7.36575,2.98644 9.59906,4.68709 5.32905,4.05801 9.57064,10.50289 11.2379,17.07544 1.68966,6.66083 1.6261,16.45677 -0.15622,24.07842 -2.475,10.58371 -8.82212,21.73025 -17.56397,30.84506 -2.93417,3.05935 -4.42509,4.2642 -5.27665,4.2642 -0.41143,0 -0.63652,0.23599 -0.8202,0.8599 -0.35805,1.21619 -3.24101,3.37343 -4.5083,3.37343 -0.7101,0 -0.96888,0.13561 -1.14555,0.60029 -0.6427,1.69041 -5.49905,4.79665 -12.91991,8.263865 -6.05596,2.829499 -9.92443,4.346273 -16.60439,6.510347 -3.20146,1.03716 -5.92107,1.977904 -6.04357,2.090541 -0.1225,0.112637 1.17972,1.676191 2.89382,3.474564 6.62903,6.954957 10.42579,11.670671 10.42579,12.949228 0,0.27885 0.16939,0.507001 0.37641,0.507001 1.43768,0 9.72772,13.148639 13.82412,21.92609 4.22703,9.057366 8.59368,22.69539 10.51562,32.842657 2.74001,14.46644556 2.91382,29.345053 0.52544,44.979162 -3.45586,22.62177 -12.00476,44.03597 -28.15338,70.521635 -5.67706,9.31105 -10.64365,16.73159 -12.53468,18.72793 -0.52674,0.55606 -0.9577,1.25358 -0.9577,1.55004 0,0.43418 -0.12134,0.50855 -0.62393,0.38241 -0.53965,-0.13544 -0.60823,-0.0745 -0.50769,0.45147 0.0815,0.42653 -0.3384,1.27436 -1.4066,2.83989 -0.83756,1.22751 -2.15815,3.18433 -2.93465,4.34849 -1.04104,1.56079 -1.63586,2.19494 -2.26494,2.41468 -0.63461,0.22168 -0.89492,0.50236 -1.0163,1.09585 -0.28943,1.41513 -3.23974,5.71562 -7.09095,10.33603 -1.25339,1.50373 -2.93374,3.66875 -3.7341,4.81116 -1.96431,2.80376 -5.25798,6.57203 -6.15157,7.03795 -0.40018,0.20866 -0.7276,0.59471 -0.7276,0.85789 0,1.14293 -3.92819,5.92922 -6.01927,7.33416 -1.01617,0.68274 -1.38906,1.10001 -1.38906,1.55438 0,1.2585 -3.47227,5.17145 -4.58904,5.17145 -0.24581,0 -0.43805,0.20948 -0.43805,0.47736 0,1.94974 -6.62215,9.40622 -25.51771,28.73267 -15.75973,16.11913 -28.8652,28.61285 -30.32245,28.90704 -0.37099,0.0749 -0.78771,0.39396 -0.92604,0.70903 -0.17761,0.40454 -0.43732,0.54668 -0.88392,0.48379 -0.49622,-0.0699 -0.59634,0.005 -0.46489,0.34749 0.34646,0.90287 -1.44497,3.04886 -2.54513,3.04886 -0.21217,0 -1.26535,0.86763 -2.34041,1.92805 -2.23726,2.20681 -5.9865,5.08565 -7.44207,5.71435 -0.54422,0.23507 -0.99071,0.5551 -0.99219,0.71119 -0.005,0.50915 -4.28347,4.45508 -8.20477,7.56676 -5.15835,4.09332 -8.93935,6.78303 -11.60163,8.25315 -2.66202,1.46997 -4.28979,2.64876 -5.80492,4.20379 l -1.13468,1.16456 1.29152,1.20806 c 1.59748,1.49426 2.32679,1.87661 5.12787,2.68833 3.93749,1.14103 11.28294,1.54687 17.13263,0.94658 3.08079,-0.31615 3.39147,-0.42576 5.13496,-1.81173 0.70521,-0.56061 1.83631,-1.2908 2.51354,-1.62266 3.56143,-1.74518 4.78081,-2.6823 7.45839,-5.73196 1.46792,-1.67189 2.79581,-3.31826 2.95088,-3.65859 0.41639,-0.91387 0.11052,-1.7127 -1.36034,-3.55271 -2.0878,-2.61181 -2.13169,-4.46901 -0.15237,-6.44833 3.00234,-3.00233 5.66959,-2.81364 10.39038,0.73504 5.8869,4.42526 15.85541,18.06712 17.02668,23.30094 0.41388,1.8494 0.0911,2.63328 -1.79318,4.35545 -2.43383,2.22439 -4.16317,2.3606 -6.87996,0.54191 -1.53278,-1.02608 -5.05224,-4.49564 -8.83797,-8.71263 l -1.99244,-2.2194 -2.89458,2.72538 c -3.48983,3.28583 -4.8713,4.40546 -7.69372,6.23545 -4.35148,2.8214 -9.14174,4.85443 -14.64773,6.21661 -2.1379,0.52891 -3.18574,0.62227 -7.01146,0.62467 -4.03527,0.003 -4.79482,-0.072 -7.38452,-0.7244 -6.00365,-1.5125 -10.50742,-3.39658 -14.25633,-5.96392 -0.99218,-0.67947 -2.27578,-1.51338 -2.85244,-1.85315 l -1.04847,-0.61775 -2.04579,1.3047 c -5.52854,3.52582 -16.54555,9.45766 -19.80989,10.66614 -7.74793,2.86835 -10.77586,3.56991 -17.09634,3.96119 -2.36384,0.14634 -4.87634,0.39704 -5.58334,0.55711 -1.52465,0.34519 -2.82477,1.40644 -3.80395,3.10505 -1.96707,3.41234 -15.21311,19.52485 -21.10159,25.668 -4.6919,4.89482 -9.42836,8.24108 -11.63696,8.22137 -0.44066,-0.004 -1.94438,-0.46051 -3.3416,-1.01462 z m 6.91507,-35.24306 c 0.28919,-0.54036 -0.0287,-1.306 -0.54231,-1.306 -0.32248,0 -0.55227,0.82043 -0.38096,1.36019 0.20462,0.64469 0.56041,0.62381 0.92327,-0.0542 z m 44.68696,-12.32579 c 1.08119,-0.2191 3.25045,-0.97798 4.82057,-1.6864 4.80805,-2.16934 20.87255,-10.93156 23.58823,-12.86596 0.69875,-0.49773 1.92061,-1.19248 2.71526,-1.54391 0.79464,-0.35143 1.51308,-0.8169 1.59654,-1.03438 0.0834,-0.21748 1.56233,-1.3626 3.28639,-2.54472 1.72407,-1.18212 3.42404,-2.52813 3.77772,-2.99114 0.35368,-0.463 1.70106,-1.43308 2.99418,-2.15573 1.29313,-0.72264 2.89201,-1.86611 3.55308,-2.54103 1.33395,-1.3619 2.07182,-1.83361 2.86824,-1.83361 0.30177,0 0.85035,-0.41595 1.26423,-0.95856 0.45215,-0.59281 1.38113,-1.26906 2.4346,-1.77227 1.18404,-0.56558 1.8631,-1.08427 2.22702,-1.70106 0.28795,-0.48805 1.14399,-1.28425 1.90231,-1.76934 0.75831,-0.48509 2.67765,-2.05955 4.2652,-3.49881 1.58755,-1.43926 4.25568,-3.76054 5.92917,-5.1584 1.67348,-1.39787 3.39989,-2.92649 3.83645,-3.39695 0.43657,-0.47046 1.27,-1.06535 1.85209,-1.32199 0.59889,-0.26405 2.26747,-1.6667 3.84364,-3.23106 1.53192,-1.52045 3.43692,-3.18518 4.23333,-3.6994 1.78735,-1.15405 2.90324,-2.1859 2.90324,-2.68458 0,-0.20796 0.44648,-0.71505 0.99218,-1.12688 0.54571,-0.41183 2.43514,-2.13593 4.19874,-3.83135 3.33378,-3.20488 5.21488,-4.67062 6.40142,-4.98795 0.50029,-0.1338 0.74271,-0.4142 0.86189,-0.99692 0.23707,-1.15915 1.64261,-2.72932 6.28508,-7.02127 3.89318,-3.59922 10.30749,-10.32641 12.36847,-12.97177 0.53017,-0.68048 1.15944,-1.28965 1.39839,-1.35371 0.23895,-0.064 0.76187,-0.18932 1.16205,-0.27838 0.57625,-0.12824 0.72781,-0.31224 0.7286,-0.88449 0.002,-1.15726 0.93846,-2.4102 2.20966,-2.9551 0.86668,-0.3715 1.48648,-0.95806 2.53356,-2.39767 0.76241,-1.04821 2.23161,-2.81648 3.26489,-3.92948 1.03328,-1.11301 3.44719,-3.98818 5.36425,-6.38927 1.91705,-2.4011 4.69599,-5.65659 6.17541,-7.23444 1.47942,-1.57785 3.18143,-3.60191 3.78223,-4.49792 1.40269,-2.09188 2.61938,-3.52898 6.37633,-7.5315 1.67965,-1.78942 3.24959,-3.66589 3.48877,-4.16993 0.23918,-0.50403 1.29415,-1.83723 2.34437,-2.96267 2.44333,-2.6183 3.23895,-3.66336 4.55465,-5.98259 0.65426,-1.15327 1.34723,-2.01842 1.78594,-2.22966 0.47006,-0.22633 0.71687,-0.55364 0.71687,-0.95069 0,-0.5801 1.29367,-2.54452 3.793,-5.7596 0.641,-0.82457 2.03164,-2.92673 3.09033,-4.67147 1.05868,-1.74475 3.06842,-4.6433 4.46609,-6.44122 3.07274,-3.95273 6.48038,-9.05805 9.16833,-13.73597 2.45405,-4.270877 2.47157,-4.298727 4.64437,-7.386507 1.11475,-1.58417 3.82731,-6.52448 7.33631,-13.36145 5.03952,-9.81905 6.14624,-12.16782 7.54528,-16.01328 0.23944,-0.65813 0.79303,-1.58822 1.23019,-2.06685 0.5361,-0.58695 0.79485,-1.14553 0.79485,-1.7159 0,-0.46511 0.60239,-2.57112 1.33865,-4.68002 2.82196,-8.08305 3.14403,-9.06891 3.02545,-9.26078 -0.0672,-0.10871 0.16361,-1.15241 0.51289,-2.31934 0.72459,-2.42082 1.31048,-5.26693 2.70834,-13.15633 l 0.98447,-5.55625 -0.009,-12.832292 c -0.0114,-16.2724284 -0.2717,-20.2293374 -1.82676,-27.770952 -0.64629,-3.134361 -1.45902,-6.71087 -1.80606,-7.947797 -0.81756,-2.913986 -3.59412,-10.792915 -4.65631,-13.213005 -0.45535,-1.037484 -0.89983,-2.493555 -0.98773,-3.235713 -0.11664,-0.984815 -0.28674,-1.382573 -0.62963,-1.472238 -0.47302,-0.123699 -1.29793,-1.805359 -1.30273,-2.655752 -0.005,-0.829459 -1.21623,-3.083325 -2.38004,-4.427668 -0.62931,-0.726916 -1.41182,-1.916977 -1.73892,-2.644581 -0.3271,-0.727605 -0.90279,-1.733002 -1.2793,-2.234216 -0.37652,-0.501214 -0.68457,-1.241618 -0.68457,-1.645342 0,-0.526745 -0.10652,-0.693168 -0.37718,-0.589305 -0.22878,0.08779 -0.55482,-0.149703 -0.82866,-0.603617 -0.24831,-0.411594 -1.23944,-1.928453 -2.20251,-3.370796 -1.63659,-2.451045 -1.75103,-2.719081 -1.75103,-4.101042 v -1.478599 h -1.06456 c -1.23127,0 -1.93064,-0.475811 -3.75247,-2.552945 -0.68298,-0.778693 -2.06405,-2.279328 -3.06905,-3.334746 -1.06775,-1.121313 -1.7691,-2.070569 -1.6873,-2.283727 0.0874,-0.227745 -0.32451,-0.666918 -1.09644,-1.169023 -0.68004,-0.442331 -2.47177,-1.950073 -3.98162,-3.350538 -3.15698,-2.928253 -4.14219,-3.705921 -5.04257,-3.980347 -0.35421,-0.107958 -1.24717,-0.791143 -1.98438,-1.518189 -0.7372,-0.727047 -3.38017,-2.844822 -5.87328,-4.706167 -2.4931,-1.861344 -4.72019,-3.651636 -4.94908,-3.978426 -0.38443,-0.548852 -0.37534,-0.651495 0.11916,-1.345964 0.56073,-0.787471 0.29301,-1.062776 -0.31779,-0.3268 -0.60457,0.728455 -2.41093,0.297215 -5.73552,-1.369264 -1.68102,-0.842628 -3.57362,-1.926858 -4.20579,-2.4094 -0.63217,-0.482543 -1.63825,-0.987189 -2.23574,-1.121436 -0.59748,-0.134247 -1.67205,-0.608185 -2.38792,-1.053196 -0.71588,-0.44501 -2.16144,-1.18559 -3.21237,-1.64573 -1.05093,-0.46014 -2.51678,-1.2232 -3.25745,-1.69569 -0.74067,-0.47248 -2.79225,-1.34585 -4.55907,-1.94081 -3.61427,-1.21708 -5.49829,-2.09847 -6.23995,-2.91921 -0.27722,-0.30677 -0.73739,-0.55777 -1.02261,-0.55777 -0.71408,0 -5.98224,-1.43227 -12.2317,-3.32548 -16.72044,-5.06529 -26.20231,-6.82531 -40.70621,-7.55586 -16.75471,-0.84392 -33.72427,2.03547 -48.85525,8.28975 -10.63127,4.39436 -20.53909,10.4293 -28.70729,17.485862 -5.45262,4.710556 -14.00721,13.739166 -17.85097,18.840106 -1.89167,2.510386 -6.65023,9.873755 -9.61841,14.883486 -7.83928,13.231202 -14.98327,33.493878 -19.2075,54.4786326 -2.25854,11.219815 -3.17868,19.1954674 -3.38866,29.3725064 l -0.14832,7.1888 2.91908,1.46398 c 7.2737,3.6479 13.03124,7.57685 13.03124,8.89255 0,0.35482 0.14218,0.44686 0.53259,0.34477 0.67332,-0.17608 2.09686,0.78052 2.89509,1.94547 0.79723,1.16347 0.58087,1.73003 -0.57334,1.50141 -0.81186,-0.1608 -0.84396,-0.14072 -0.48064,0.30075 0.32367,0.39329 0.646,0.44624 1.91147,0.31397 1.31819,-0.13778 1.55804,-0.092 1.79002,0.34144 0.15749,0.29427 0.46012,0.45258 0.73437,0.38416 0.32045,-0.0799 0.63214,0.17201 0.99565,0.80485 0.29104,0.50668 2.37463,2.89974 4.63021,5.31792 4.20303,4.50604 4.61378,5.07884 4.89534,6.82669 0.12906,0.80116 0.31738,1.06523 0.90604,1.27044 1.49738,0.52199 3.97746,5.03316 4.60644,8.37895 0.25641,1.36393 0.55963,2.13949 1.03444,2.64583 1.72743,1.84214 4.23614,8.93068 4.94427,13.9704 0.14121,1.00494 0.44297,4.32747 0.67059,7.38341 0.57083,7.663757 0.61351,7.815927 2.78563,9.930457 0.97649,0.95062 2.50666,2.11812 3.40036,2.59446 0.8937,0.47634 1.74936,1.09862 1.90148,1.38285 0.19172,0.35823 0.45598,0.47369 0.8613,0.37633 1.39117,-0.33416 3.74352,2.25964 5.88194,6.48569 0.6259,1.23692 1.55636,2.70064 2.0677,3.25269 1.1625,1.25508 2.5677,4.57676 2.82133,6.66918 0.21884,1.8055 -0.12463,8.74162 -0.54905,11.08748 -0.15547,0.85936 -0.52316,2.2052 -0.81707,2.99076 -0.62386,1.66741 -2.90756,5.18328 -3.74402,5.76411 -0.318,0.22082 -0.99986,1.1449 -1.51524,2.05353 -0.66733,1.1765 -1.31103,1.89773 -2.23627,2.50561 -1.47649,0.97005 -1.96321,1.68594 -1.97667,2.90743 -0.0135,1.22715 0.65484,1.4972 3.1341,1.26633 2.29223,-0.21346 2.94194,-0.4714 2.94194,-1.16796 0,-0.51652 1.36339,-1.51338 4.72221,-3.45271 1.06925,-0.61736 2.14082,-1.35978 2.38125,-1.64981 0.24044,-0.29003 1.82264,-1.5883 3.516,-2.88506 1.69335,-1.29676 3.56702,-2.83151 4.16369,-3.41056 0.76433,-0.74176 1.40469,-1.10396 2.16735,-1.22592 0.78416,-0.12539 1.14427,-0.33558 1.30665,-0.76269 0.28593,-0.75205 1.34969,-1.58785 2.88564,-2.26728 0.66435,-0.29387 1.46605,-0.77683 1.78155,-1.07323 0.47844,-0.44946 0.66934,-0.4877 1.15018,-0.23036 0.79632,0.42618 1.35916,1.88068 1.14599,2.96148 -0.42074,2.13319 -1.36072,3.47667 -6.15328,8.79473 -3.12339,3.46587 -4.40122,4.62354 -6.36723,5.76853 -0.65485,0.38138 -1.88673,1.28651 -2.73752,2.01141 -0.94883,0.80843 -1.91517,1.38709 -2.49947,1.4967 -0.60936,0.11432 -1.31433,0.55146 -1.95656,1.21324 -1.63648,1.68628 -10.37101,5.61182 -15.25131,6.85437 -1.116,0.28414 -4.64847,0.94222 -7.84993,1.4624 -3.20146,0.52017 -6.44591,1.12278 -7.2099,1.33912 -1.21052,0.34278 -1.38906,0.48021 -1.38906,1.06921 0,0.37172 -0.36365,1.50441 -0.80811,2.51707 -0.48976,1.11586 -0.74264,2.04752 -0.6419,2.36491 0.20941,0.65981 2.10688,1.61593 4.43699,2.23578 1.59421,0.42408 2.51721,0.45871 8.20208,0.30775 7.16022,-0.19013 11.42807,-0.55496 12.85703,-1.09907 0.52637,-0.20042 2.74297,-1.01031 4.92578,-1.79976 3.43486,-1.24227 7.14867,-2.75227 9.01574,-3.66571 0.81352,-0.39801 6.05611,-4.82775 10.48212,-8.8569 3.88188,-3.5338 9.55731,-9.88524 10.56146,-11.81943 0.37196,-0.71647 0.74226,-1.04529 1.30355,-1.15755 0.52805,-0.10561 0.78401,-0.31573 0.78401,-0.64359 0,-1.0502 2.15497,-1.39397 2.33889,-0.37311 0.0524,0.29104 0.41083,0.7862 0.79645,1.10034 0.6334,0.51601 0.69547,0.72547 0.64266,2.1688 -0.0934,2.55358 -1.23562,5.59252 -2.75414,7.32781 -0.89619,1.02413 -1.28844,1.70212 -1.28844,2.22698 0,0.90896 -1.03886,2.26899 -4.65476,6.09378 -3.30777,3.49887 -4.50673,4.86257 -4.64816,5.28687 -0.0614,0.18409 -0.58223,0.41122 -1.15748,0.50472 -0.79375,0.12902 -1.13048,0.34645 -1.39667,0.90184 -0.48687,1.01583 -2.7605,2.76267 -4.81168,3.69685 -0.94589,0.43078 -2.21878,1.24173 -2.82864,1.8021 -0.60986,0.56037 -1.4433,1.09046 -1.85208,1.17799 -1.69695,0.36333 -4.01405,1.32043 -5.50433,2.27361 -2.59655,1.66075 -4.101,2.28452 -6.616,2.74312 -1.30968,0.23881 -3.33375,0.67579 -4.49791,0.97107 -2.55161,0.64717 -12.02726,0.96921 -15.875,0.53952 -3.00925,-0.33605 -4.71625,-0.0882 -5.6206,0.81619 -0.61605,0.61605 -0.70321,0.96345 -0.88994,3.54752 -0.11385,1.57553 -0.44413,3.93476 -0.73395,5.24274 -0.7147,3.2255 -1.10583,5.56324 -2.78835,16.66565 -1.46151,9.64397 -1.80369,11.16928 -2.82853,12.60854 -0.51355,0.72121 -0.53699,0.89775 -0.2391,1.80038 0.3773,1.14321 0.31248,1.95528 -0.46543,5.8317 -0.30663,1.52797 -0.6735,3.72798 -0.81528,4.88892 -0.2261,1.85138 -0.34999,2.18286 -1.00809,2.69726 -2.15551,1.68484 -2.03489,1.34756 -1.86303,5.20941 0.19874,4.46587 0.85093,9.31554 1.51037,11.23117 0.28505,0.82804 0.76021,2.69616 1.0559,4.15137 0.69648,3.42757 1.40241,4.80562 2.91489,5.69019 1.30686,0.76431 2.64301,2.91887 2.64301,4.26189 0,0.62075 0.11401,0.76354 0.60966,0.76354 0.58987,0 1.50365,0.53633 4.28513,2.51508 1.54901,1.10196 4.73704,2.15863 7.54063,2.49932 2.66411,0.32375 10.24228,0.0705 12.68143,-0.42377 z m 89.18315,-207.872717 c -0.50932,-0.36041 -1.80183,-1.62544 -2.87224,-2.81118 l -1.94621,-2.15589 0.29785,-3.89156 c 0.53544,-6.9957 1.45608,-10.91852 3.83838,-16.35522 2.16551,-4.94194 4.2442,-8.49672 5.90103,-10.0914 1.3842,-1.33227 1.43541,-1.43043 1.26684,-2.42819 -0.15456,-0.91486 -0.0967,-1.09156 0.48201,-1.47072 0.36173,-0.23701 0.97204,-1.07345 1.35626,-1.85875 0.72269,-1.47714 3.05168,-3.83416 3.78855,-3.83416 0.22747,0 0.63131,0.19705 0.89743,0.43789 0.45087,0.40803 0.51929,0.40581 1.00375,-0.0326 0.32543,-0.29451 0.77078,-0.42254 1.19062,-0.34228 0.99132,0.1895 0.81676,-0.14806 -0.44257,-0.85584 l -1.1133,-0.62571 0.78257,-0.23194 c 0.43042,-0.12757 1.61601,-0.64202 2.63466,-1.14321 3.0847,-1.51773 8.59079,-1.84587 12.37688,-0.73762 1.74889,0.51193 1.99008,0.74214 1.42811,1.3631 -0.68753,0.75972 -0.54331,1.02984 0.81324,1.52325 2.90449,1.05645 6.95193,2.83155 8.06333,3.53638 0.91756,0.5819 1.23276,0.96426 1.36177,1.65194 0.0923,0.49214 0.69226,1.79062 1.33318,2.88552 0.64093,1.09489 1.28719,2.46092 1.43612,3.03562 0.76346,2.94588 0.58997,6.94161 -0.29479,6.78946 -1.12948,-0.19422 -3.63138,2.04573 -3.63138,3.25117 0,1.069 -1.68584,1.57031 -2.99396,0.8903 -0.84114,-0.43725 -0.85099,-0.46434 -0.312,-0.85845 0.69467,-0.50796 0.25317,-2.10924 -0.61605,-2.23435 -0.42244,-0.0608 -0.64366,-0.31894 -0.7564,-0.88263 -0.0876,-0.43819 -0.32607,-0.86069 -0.52986,-0.93889 -0.47618,-0.18273 -1.17896,-1.59158 -1.92354,-3.85606 -0.71387,-2.17109 -1.42298,-3.05896 -3.40052,-4.25778 -2.10625,-1.27684 -4.46988,-1.84968 -6.8308,-1.65549 -2.4639,0.20266 -5.91192,1.29805 -6.68873,2.12493 -0.7547,0.80334 -0.61165,1.36665 0.84132,3.31293 1.84523,2.47174 2.1696,3.61445 2.14646,7.56184 -0.0227,3.86727 -0.67485,7.38749 -1.77227,9.56593 -0.35521,0.70509 -0.95348,2.29402 -1.32951,3.53095 -0.73203,2.408 -2.09957,4.93221 -3.36668,6.21421 -0.67768,0.68565 -0.85043,0.74694 -1.30505,0.46302 -0.69258,-0.43252 -0.64021,-0.44763 -1.71258,0.49392 -0.97752,0.85827 -1.17734,1.67171 -0.65186,2.65357 0.74655,1.39495 -1.52175,2.55408 -5.44277,2.78131 -2.22344,0.12885 -2.44262,0.0946 -3.30729,-0.5173 z m 4.23334,-1.5054 c 0,-0.14552 -0.29063,-0.26458 -0.64585,-0.26458 -0.35521,0 -0.71943,0.11906 -0.80936,0.26458 -0.0954,0.15436 0.17364,0.26458 0.64584,0.26458 0.44515,0 0.80937,-0.11906 0.80937,-0.26458 z m -59.65335,-7.56823 c -0.23347,-0.23346 -0.6571,-0.88044 -0.9414,-1.43772 -0.56461,-1.10673 -1.43249,-1.84197 -2.17427,-1.84197 -1.24338,0 -2.73752,-4.42935 -3.14787,-9.33182 -0.39131,-4.67494 -0.16793,-24.86084 0.28834,-26.0562 0.43816,-1.1479 0.80427,-1.08822 0.81151,0.13229 l 0.006,0.99219 0.51741,-0.66146 c 0.32937,-0.42107 0.51953,-1.07931 0.52328,-1.81126 0.003,-0.63239 0.19578,-1.47127 0.42787,-1.86417 0.55253,-0.93535 1.95303,-1.880816 2.78603,-1.880816 1.89411,0 3.93201,4.428126 3.93978,8.560686 0.004,2.2853 0.1047,2.61618 0.88097,2.90318 0.26847,0.0993 0.5515,0.42276 0.62894,0.7189 0.28352,1.08419 2.28043,1.68321 6.98843,2.09636 4.99091,0.43797 8.80407,-0.46819 9.14508,-2.17323 0.0962,-0.48118 0.36301,-0.85246 0.67024,-0.9328 0.34486,-0.0902 0.46819,-0.29477 0.3803,-0.63085 -0.14186,-0.54249 0.44188,-1.28183 1.01205,-1.28183 0.19672,0 0.72832,-0.31187 1.18132,-0.69305 l 0.82365,-0.69306 1.64657,0.8106 c 1.87868,0.92488 2.89212,1.8985 3.32532,3.19468 0.73042,2.1855 0.10372,4.66562 -1.98884,7.87069 -0.584,0.89448 -1.68877,3.03761 -2.45504,4.7625 -3.05979,6.88764 -4.41617,9.27729 -4.95819,8.73526 -0.0959,-0.0959 -0.27264,-0.89262 -0.39269,-1.77043 -0.24858,-1.81769 -0.67336,-2.75721 -1.85513,-4.10318 -1.42806,-1.62647 -2.07701,-1.79326 -9.21619,-2.36876 l -1.98438,-0.15997 -2.48827,2.49199 c -1.36855,1.3706 -2.67824,2.83477 -2.91042,3.25372 -0.33885,0.61142 -0.42214,1.62695 -0.42214,5.14679 0,4.07394 0.045,4.48133 0.63437,5.74152 0.60371,1.29088 0.613,1.38905 0.19234,2.03107 -0.5044,0.7698 -1.25505,0.86995 -1.87485,0.25015 z m 0.33705,-17.90175 c 0.1053,-0.54679 -0.6585,-0.91522 -1.06162,-0.5121 -0.40312,0.40312 -0.0347,1.16692 0.5121,1.06162 0.25343,-0.0488 0.50071,-0.29609 0.54952,-0.54952 z m -44.62527,-9.58721 c -2.19107,-0.48844 -3.26137,-1.3387 -4.24826,-3.37485 -1.55984,-3.21829 -1.69462,-7.0235 -0.40624,-11.469454 0.61841,-2.133999 1.54936,-4.226945 2.29334,-5.1558664 0.1854,-0.231497 0.69429,-0.607656 1.13085,-0.835911 0.76263,-0.398734 0.79408,-0.485978 0.80205,-2.22493 0.0129,-2.812019 1.75305,-6.17554804 3.19499,-6.17554804 0.34994,0 0.66216,-0.20371 0.75355,-0.491654 0.0858,-0.27041 0.63163,-0.706112 1.2129,-0.96822796 0.82396,-0.371555 1.02236,-0.585234 0.90034,-0.969683 -0.16048,-0.50564 0.4332,-0.849373 3.16152,-1.830485 1.43425,-0.515761 1.67502,-0.992438 1.26867,-2.511743 -0.62247,-2.327323 -2.04101,-5.0451726 -2.72674,-5.2242936 -0.34638,-0.09048 -0.87402,-0.54516 -1.17254,-1.010406 -0.49016,-0.763937 -0.67345,-0.847795 -1.89156,-0.865454 -1.10927,-0.01608 -1.53875,-0.172189 -2.4183,-0.879011 -1.19327,-0.958946 -1.6668,-1.055451 -2.17489,-0.443245 -0.59329,0.71487 -2.29842,1.43587 -3.39577,1.43587 -1.57176,0 -2.34352,0.401044 -2.86574,1.489177 -0.70423,1.46738 -1.65353,2.0405336 -3.58102,2.1620836 -1.40905,0.08886 -1.76204,0.01635 -2.41046,-0.4950866 -1.72486,-1.360487 -1.96533,-3.727675 -0.58283,-5.737474 0.49855,-0.72477 1.04072,-1.816364 1.20482,-2.425766 0.34654,-1.286961 0.85548,-1.656875 5.66991,-4.121058 l 3.1016,-1.5875 3.62058,0.0098 c 3.26095,0.0088 3.83084,0.08289 5.73725,0.74551 1.16417,0.404634 3.05766,1.277154 4.20777,1.938933 1.1501,0.66178 2.37099,1.219269 2.71308,1.238866 0.45161,0.02587 0.69919,0.269421 0.90388,0.889177 0.15505,0.469451 0.98617,1.630672 1.84694,2.580492 2.65888,2.933972 3.7564,5.699925 4.27187,10.7659126 0.43515,4.276599 0.0381,8.365056 -1.19118,12.265534 -0.50325,1.596794 -1.10485,3.7138824 -1.33689,4.7046394 -0.23204,0.990758 -0.83427,2.479039 -1.33829,3.307292 -0.50402,0.828249 -1.11607,2.208699 -1.36012,3.067659 -0.31855,1.12121 -0.73364,1.84593 -1.47153,2.56921 -0.61513,0.60295 -1.02782,1.25646 -1.02782,1.6276 0,1.33415 -2.44674,4.42358 -3.50573,4.42659 -0.31343,8.9e-4 -0.46302,0.20878 -0.46302,0.64351 0,0.82804 -1.56019,2.13324 -3.16662,2.64908 -1.87876,0.60328 -3.43968,0.68657 -5.26036,0.2807 z m 11.613,-38.3779624 c 0.2812,-0.338818 0.26382,-0.486732 -0.0999,-0.850447 -0.41067,-0.410667 -0.46992,-0.410667 -0.88059,0 -0.36371,0.363715 -0.38109,0.511629 -0.0999,0.850447 0.18722,0.225584 0.4303,0.410154 0.54019,0.410154 0.10988,0 0.35296,-0.18457 0.54018,-0.410154 z m 40.68519,270.4797394 c 0.1053,-0.54678 -0.6585,-0.91522 -1.06162,-0.5121 -0.40313,0.40312 -0.0347,1.16692 0.51209,1.06162 0.25343,-0.0488 0.50072,-0.29609 0.54953,-0.54952 z M -814.6951,248.50834 c 5.1113,-0.16035 12.14176,-0.78719 15.21355,-1.35643 8.9526,-1.65906 10.86211,-2.15199 16.83713,-4.34641 4.15513,-1.52603 8.50082,-3.54182 10.50861,-4.87452 2.4836,-1.64852 1.91684,0.69344 7.99079,-33.01954 1.22557,-6.80239 2.64637,-14.48899 3.15734,-17.08132 1.09877,-5.57445 1.15095,-6.90788 0.33373,-8.52849 -0.78676,-1.56018 -1.30243,-1.59771 -5.17632,-0.37674 -7.43687,2.34395 -27.90199,6.38394 -36.69399,7.24371 -12.06083,1.17943 -40.16158,1.69797 -51.64795,0.95305 -7.93822,-0.51482 -12.28842,-1.08502 -22.03851,-2.88871 -2.69214,-0.49802 -5.69847,-0.98947 -6.68073,-1.0921 -1.70236,-0.17787 -1.78594,-0.16033 -1.78594,0.3748 0,2.94219 9.85041,41.85357 12.84692,50.74831 0.6468,1.91993 1.176,3.72194 1.176,4.00447 0,0.69199 0.6675,1.08995 5.2098,3.10603 7.31796,3.24804 11.25043,4.42471 18.86728,5.64546 4.8437,0.7763 14.22833,1.57119 19.97604,1.69201 2.92351,0.0614 4.09918,0.0413 11.90625,-0.20358 z m 190.10313,-48.42053 c 0,-0.58606 -0.44729,-0.71184 -0.90471,-0.25442 -0.44824,0.44824 -0.51775,0.72184 -0.25113,0.98846 0.25663,0.25664 1.15584,-0.31442 1.15584,-0.73404 z m -201.6125,-18.39566 c 14.03777,-0.59647 26.48839,-1.7099 33.91103,-3.03256 10.53805,-1.87781 21.97991,-4.40433 26.6174,-5.8775 2.63597,-0.83735 3.37637,-1.45412 3.62653,-3.02098 0.30048,-1.88196 1.26906,-3.68976 2.99209,-5.58458 1.76445,-1.94035 2.29639,-2.74947 1.94883,-2.96428 -0.43146,-0.26665 -2.8903,0.22238 -14.32713,2.84948 -7.2712,1.67024 -11.46833,2.45348 -15.74271,2.93779 -9.54929,1.082 -12.97568,1.66128 -14.55208,2.46022 -0.43657,0.22125 -1.46382,1.02043 -2.28279,1.77595 -2.75681,2.54323 -7.37977,4.35964 -11.11695,4.36795 -3.11818,0.007 -5.98928,-1.11963 -10.80964,-4.24149 l -2.77812,-1.79923 -6.08542,0.52447 c -9.99659,0.86155 -25.46145,0.4648 -37.96771,-0.97406 -10.33085,-1.18858 -18.10371,-2.90193 -27.48081,-6.05751 l -3.53602,-1.18994 0.11322,1.64531 c 0.0787,1.14422 0.41461,2.32385 1.10281,3.87322 0.54428,1.22534 1.01298,2.5829 1.04155,3.01679 0.0415,0.62999 0.23849,0.86684 0.978,1.17586 0.50932,0.21283 1.36825,0.78586 1.90873,1.27341 3.36313,3.03378 13.05666,5.37376 29.97356,7.23551 15.21796,1.67478 28.77943,2.18771 42.46563,1.60617 z m 14.87006,-13.82958 c 1.52664,-0.89467 3.28116,-2.81618 3.50595,-3.83963 0.42825,-1.94983 -0.86742,-7.58952 -3.55316,-15.46591 -2.09934,-6.15664 -2.91474,-9.52738 -3.10237,-12.8247 -0.12821,-2.25294 -0.0806,-2.81282 0.28671,-3.37344 0.60909,-0.92958 1.75114,-0.93657 1.75114,-0.0107 0,0.52037 0.13439,0.66146 0.63006,0.66146 0.40836,0 0.87699,0.32375 1.33188,0.92014 2.09862,2.75144 8.48987,4.33591 11.43307,2.8344 1.00956,-0.51504 2.54653,-2.02384 3.68558,-3.61805 1.35158,-1.89164 1.85305,0.0913 2.10666,8.33017 0.20993,6.81978 0.41363,8.03098 1.85199,11.0122 1.99776,4.14066 4.72222,5.94305 8.40202,5.55843 5.91769,-0.61852 8.4776,-5.9039 6.55207,-13.52792 -0.33077,-1.30969 -1.25093,-3.86953 -2.04479,-5.68854 -2.78494,-6.38126 -3.64556,-9.74687 -2.59541,-10.14985 0.21828,-0.0838 0.39687,-0.45142 0.39687,-0.81701 0,-0.48623 0.17549,-0.70877 0.65353,-0.82875 0.84167,-0.21125 1.68793,0.48023 3.66175,2.992 2.61913,3.33293 5.14076,4.22327 8.4522,2.9843 1.69948,-0.63585 3.51704,-2.30961 4.21055,-3.8774 0.42052,-0.95066 0.47642,-1.48356 0.32774,-3.12435 -0.20915,-2.30805 0.14566,-3.50384 1.1116,-3.74627 0.90177,-0.22634 1.81908,0.16858 4.27333,1.83974 3.86061,2.62877 6.34552,2.88163 10.88693,1.10781 1.36901,-0.53472 2.70715,-0.91519 2.97366,-0.8455 0.40891,0.10694 0.47865,-0.0243 0.44668,-0.84033 -0.0208,-0.53188 0.15906,-1.34791 0.39978,-1.81341 0.59661,-1.15372 0.59547,-6.10086 -0.002,-7.61952 -0.22891,-0.58208 -0.43205,-1.3645 -0.45141,-1.73869 -0.0194,-0.3742 -0.23577,-0.88092 -0.4809,-1.12605 -0.44107,-0.44107 -0.54762,-0.70049 -0.85256,-2.07581 -0.21994,-0.99195 -1.35908,-2.26311 -2.59151,-2.89185 -1.50356,-0.76706 -1.77048,-1.63783 -2.08354,-6.797097 -0.63963,-10.54143 -2.29108,-17.43339 -6.19456,-25.85175 -1.83103,-3.94884 -2.28941,-5.39024 -2.10508,-6.61944 0.19317,-1.28817 -0.26151,-2.49987 -0.75345,-2.00792 -0.55625,0.55625 -1.16977,0.28803 -2.54247,-1.11149 -1.58283,-1.61377 -2.13598,-2.38164 -3.19378,-4.43349 -0.51403,-0.99708 -1.12877,-1.71687 -1.90445,-2.22987 -1.61082,-1.06533 -7.97905,-7.45273 -7.76908,-7.79247 0.12073,-0.19534 0.32954,-0.19719 0.6866,-0.006 0.61068,0.32683 0.68747,-0.0637 0.10721,-0.54525 -0.32656,-0.27102 -0.52724,-0.27191 -1.0268,-0.005 -0.84922,0.45449 -1.23587,0.28986 -4.68709,-1.99573 -4.7532,-3.14785 -13.1862,-7.22156 -18.75104,-9.05804 -4.53047,-1.49513 -11.24899,-2.39547 -19.44688,-2.60606 -9.34208,-0.23998 -15.48945,0.54967 -23.09257,2.96631 -8.58254,2.72795 -15.4723,6.46794 -22.81264,12.38348 -4.46799,3.60073 -10.84221,11.83209 -14.77185,19.07565 l -1.56415,2.88322 1.78107,3.64697 c 1.02121,2.09106 1.91563,4.33098 2.09649,5.25025 0.23638,1.20151 0.47741,1.70941 0.96186,2.02683 0.87068,0.5705 2.43079,3.1921 3.18372,5.34992 l 0.61451,1.76112 3.12157,0.17293 c 3.13757,0.17381 6.30025,0.76756 9.73616,1.82783 2.24216,0.6919 3.1004,1.11704 3.89413,1.92904 0.33208,0.33972 1.0205,0.77496 1.52983,0.9672 1.23962,0.46789 1.85214,1.01599 2.28902,2.04832 0.26528,0.62684 0.53433,0.85989 0.99271,0.85989 1.70732,0 7.30943,5.529277 7.72935,7.628867 0.0922,0.46079 0.32645,0.8378 0.52066,0.8378 0.97384,0 3.19922,3.72183 3.91304,6.54437 0.50364,1.99144 1.47238,3.96537 2.54639,5.1886 0.43693,0.49764 0.79424,1.20708 0.79424,1.57697 0,0.93595 -1.08066,2.12308 -2.85812,3.13972 -0.82913,0.47422 -2.68786,1.61049 -4.13052,2.52503 -1.52662,0.96777 -2.91754,1.66281 -3.32762,1.66281 -0.61666,0 -0.69203,0.0908 -0.60394,0.7276 0.0653,0.4718 -0.2833,1.51618 -0.99146,2.97062 -0.60066,1.23366 -1.15747,2.79485 -1.23735,3.46931 -0.29579,2.49751 1.13534,4.67246 3.88712,5.90738 1.34548,0.60382 1.97134,0.71703 4.03802,0.73042 2.11954,0.0137 2.82017,-0.10895 5.25306,-0.91986 1.54403,-0.51465 3.36845,-1.01986 4.05427,-1.12271 1.17582,-0.17632 1.28735,-0.13917 1.95518,0.65127 0.38953,0.46104 1.7798,1.58213 3.08949,2.49131 l 2.38125,1.65305 v 9.51403 9.51403 l 0.78483,1.41695 c 0.93972,1.69659 2.68006,3.29531 4.19574,3.85433 1.69803,0.62628 4.58389,0.41242 6.05303,-0.44855 z m -20.79604,-7.59918 2.14382,-0.33766 0.17978,-4.42867 c 0.18139,-4.46834 0.087,-6.1327 -0.42414,-7.48243 -0.54191,-1.43088 -1.61736,-1.55064 -6.13556,-0.68324 -2.30934,0.44334 -3.49867,0.53119 -5.58063,0.41222 -4.37433,-0.24997 -7.21263,-1.40885 -10.3792,-4.23785 -1.95486,-1.74647 -2.79991,-2.02515 -6.15726,-2.03054 -12.0311,-0.0193 -28.06668,-2.49382 -38.76146,-5.98141 -4.44037,-1.44802 -6.52414,-2.44627 -8.46843,-4.05687 -1.76429,-1.46149 -2.79052,-2.91995 -2.96383,-4.21213 -0.29098,-2.16942 1.79061,-2.45953 5.25341,-0.73216 1.41485,0.70578 1.97144,0.87262 2.10084,0.62972 0.0968,-0.18174 0.23945,-2.77122 0.31696,-5.7544 0.14766,-5.6828 0.28893,-6.68786 1.53892,-10.94847 1.02962,-3.50951 1.0193,-3.7138 -0.17785,-3.51953 -2.21415,0.3593 -7.53089,3.43937 -11.8026,6.83742 -2.67261,2.126 -4.32745,4.23942 -6.38917,8.15975 -2.26939,4.31519 -2.76489,6.92417 -2.32232,12.22771 0.22236,2.66457 0.32573,3.0248 1.7196,5.99233 0.81566,1.73654 1.48302,3.46711 1.48302,3.84573 0,0.50513 0.13677,0.68839 0.51377,0.68839 0.28257,0 1.19746,0.59829 2.0331,1.32953 2.93714,2.57023 6.16534,4.35527 11.60833,6.41883 10.14695,3.84694 24.01395,6.73615 39.02605,8.13113 3.66784,0.34084 29.1503,0.12551 31.64485,-0.2674 z m 35.88817,-1.03216 c 0.10812,-0.10057 -0.21428,-1.04016 -0.71643,-2.08797 -1.57425,-3.28492 -1.94247,-4.80482 -2.67984,-11.06172 l -0.12766,-1.08329 -2.48805,-0.30577 c -3.49413,-0.4294 -4.10702,-0.40592 -4.10388,0.15726 0.001,0.25466 0.31177,1.11786 0.68967,1.91823 0.37789,0.80036 1.55815,3.75739 2.62281,6.57116 1.98157,5.23712 2.40403,6.01123 3.3933,6.21784 0.717,0.14974 3.14864,-0.0825 3.41008,-0.32574 z m 49.5451,-0.73226 c 3.56946,-1.34874 3.5079,-1.31242 3.69903,-2.1826 0.36184,-1.64744 -0.0905,-1.58015 -5.02525,0.74757 -3.18309,1.50146 -4.05063,2.10533 -3.50868,2.44231 0.52873,0.32875 2.24583,-0.029 4.8349,-1.00728 z m 54.10729,0.76329 c 0,-0.42199 -0.83744,-1.38179 -1.20563,-1.38179 -0.58075,0 -0.45591,0.71188 0.20617,1.17562 0.64435,0.45132 0.99946,0.52457 0.99946,0.20617 z m -75.03189,-6.02158 c 0.34118,-0.22354 1.37878,-0.52645 2.30579,-0.67313 3.73453,-0.59089 16.71327,-5.36513 21.83733,-8.03287 7.2564,-3.7779 11.30436,-7.83738 12.23084,-12.26567 0.85052,-4.06515 -0.10318,-8.59556 -2.82389,-13.41458 l -1.49378,-2.64583 -0.30433,2.64583 c -0.16739,1.45521 -0.39534,3.00302 -0.50656,3.43958 -0.42656,1.67425 -2.1374,4.48339 -3.69033,6.05939 -3.79053,3.84682 -8.40257,5.46723 -14.04232,4.93365 -1.51361,-0.1432 -2.8217,-0.14582 -3.18845,-0.006 -0.34204,0.13005 -1.21145,0.8481 -1.93202,1.59568 -1.05815,1.09781 -1.42157,1.32387 -1.8895,1.17535 -0.49586,-0.15738 -0.55452,-0.10555 -0.4069,0.35955 0.13614,0.42892 -0.0594,0.71138 -0.92775,1.34044 -1.83221,1.32724 -4.75131,2.20046 -7.98988,2.39008 -0.36127,0.0212 -0.20615,1.52762 0.33251,3.22919 0.73082,2.30862 1.32113,5.78292 1.32113,7.77565 0,1.54774 0.16556,2.50053 0.43449,2.50053 0.0623,0 0.39244,-0.18291 0.73362,-0.40646 z m 73.04752,-1.33538 c 0,-0.32446 -0.21443,-0.53758 -0.59532,-0.59167 -0.66985,-0.0951 -0.71743,0.0234 -0.31281,0.77948 0.34031,0.63587 0.90813,0.51843 0.90813,-0.18781 z m -159.72822,-18.74437 c 0.43802,-0.49888 1.55168,-2.19304 2.47481,-3.76481 1.90913,-3.25061 3.36669,-4.84527 5.6451,-6.17607 2.04878,-1.19667 2.3598,-1.84472 2.37297,-4.94455 0.009,-2.21742 -0.0443,-2.482 -0.61125,-3.01135 -0.34188,-0.31919 -1.32941,-2.05357 -2.19451,-3.85418 -1.38125,-2.87492 -1.68362,-3.32009 -2.48147,-3.65345 -1.1842,-0.49479 -1.97622,-1.81114 -1.97749,-3.2866 -9.2e-4,-1.07724 -0.0412,-1.14263 -0.5963,-0.96745 -1.70685,0.5387 -2.02915,0.48352 -3.44192,-0.58924 -2.17634,-1.65258 -3.58076,-2.36555 -6.55763,-3.329087 -3.73813,-1.20993 -6.41154,-1.71429 -11.89142,-2.24338 l -4.62692,-0.44675 -0.46135,-1.71204 c -0.25374,-0.94163 -0.94256,-2.71491 -1.53071,-3.94064 -0.58814,-1.22573 -1.00876,-2.2892 -0.9347,-2.36326 0.0741,-0.0741 -0.21019,-0.74155 -0.63167,-1.48331 -0.42148,-0.74177 -0.90599,-1.8745 -1.07669,-2.51718 -0.17071,-0.64269 -0.82906,-2.07144 -1.46302,-3.175 -0.63396,-1.10357 -1.35331,-2.72086 -1.59856,-3.59398 -0.5823,-2.07306 -1.04801,-2.95697 -1.75817,-3.33704 -0.51116,-0.27356 -0.6652,-0.20709 -1.31001,0.56529 l -0.73074,0.87531 -0.30269,-0.77157 c -0.19625,-0.50026 -0.2507,-1.7405 -0.15483,-3.52705 l 0.14786,-2.75548 -0.97982,-0.98815 c -1.12547,-1.13503 -6.7872,-11.9419 -7.13607,-13.62102 -0.19768,-0.95147 -0.29315,-1.04654 -1.05079,-1.04654 -1.66193,0 -3.61417,-2.72313 -4.03385,-5.62668 -0.1206,-0.83439 -0.42017,-2.10179 -0.66571,-2.81645 -0.72021,-2.09619 -6.74929,-13.55756 -7.74154,-14.71678 -0.49994,-0.58406 -1.24752,-1.74374 -1.66131,-2.57705 -0.6855,-1.38054 -0.75383,-1.44462 -0.76927,-0.72137 -0.0227,1.06418 -0.51274,2.77812 -0.79429,2.77812 -0.36507,0 -0.80677,-1.56765 -0.81252,-2.88375 -0.0111,-2.53339 -0.49179,-4.55478 -1.69567,-7.1302 -0.66518,-1.423 -1.20942,-2.85354 -1.20942,-3.17897 0,-0.73861 -0.50285,-1.720195 -1.56262,-3.050303 -0.45122,-0.566325 -0.99582,-1.620384 -1.21023,-2.342354 -0.21667,-0.729626 -0.81529,-1.7836254 -1.34774,-2.3729754 -0.52685,-0.583167 -1.12296,-1.455315 -1.32469,-1.938107 -0.20172,-0.482792 -0.99382,-1.609736 -1.76023,-2.504319 -2.58819,-3.02107 -3.08572,-3.79545204 -3.3992,-5.29068704 -0.33679,-1.60646096 -1.3149,-3.71591896 -2.23024,-4.80990296 -0.33196,-0.396758 -0.67245,-1.270455 -0.77332,-1.984375 -0.27753,-1.964354 -0.39007,-2.184181 -1.31618,-2.5711356 -0.56411,-0.235703 -1.11998,-0.806873 -1.60496,-1.649151 -1.02995,-1.788722 -1.44717,-2.214602 -2.1696,-2.214602 -0.34392,0 -1.22745,-0.314845 -1.96339,-0.699656 -1.24483,-0.650906 -1.49822,-0.688289 -3.63654,-0.536506 -2.87758,0.204256 -5.02168,0.930551 -6.80213,2.30416 -2.52816,1.950461 -3.55935,4.0792026 -3.55935,7.3477696 0,3.165041 0.81381,5.62685296 3.7778,11.427982 1.44986,2.837656 3.03246,6.2181774 3.5169,7.5122694 0.48443,1.294092 1.17565,2.663313 1.53604,3.042713 0.36038,0.37939 1.2891,1.70592 2.06381,2.94783 1.2526,2.00798 1.74368,2.98319 2.99323,5.94406 0.18424,0.43656 1.28511,1.86531 2.44638,3.175 2.09346,2.36102 2.75254,3.35454 3.07159,4.63021 0.091,0.3638 0.71016,1.37583 1.37593,2.24896 0.66577,0.87312 1.78873,2.8044 2.49546,4.29172 1.28257,2.69917 3.80678,7.08103 6.0244,10.45798 1.17329,1.78666 2.23251,2.84509 2.8472,2.84509 0.18006,0 0.40363,0.47685 0.49682,1.05966 0.0932,0.58282 0.58467,1.94653 1.09215,3.03048 0.50749,1.08394 0.92271,2.15216 0.92271,2.37382 0,0.22165 0.28368,0.58888 0.6304,0.81606 0.34672,0.22718 0.70261,0.77414 0.79088,1.21547 0.13028,0.65142 0.25893,0.77116 0.6837,0.63634 0.41594,-0.13201 0.55906,-0.0138 0.69801,0.57657 0.0961,0.40845 0.57635,1.2682 1.06714,1.91054 0.4908,0.64235 0.89237,1.42832 0.89237,1.7466 0,0.60521 0.36171,1.12553 3.15326,4.53598 2.48696,3.03833 4.65896,6.48074 7.56917,11.99639 2.79537,5.29801 3.99894,7.27039 6.27553,10.28424 0.81009,1.07242 2.14281,3.31165 2.9616,4.97606 1.29868,2.639887 1.55684,3.004587 2.02233,2.856847 0.57225,-0.18163 1.49145,0.29863 2.67272,1.39645 l 0.70982,0.65967 -1.57347,3.07639 c -1.93251,3.77835 -2.28634,5.44496 -2.51988,11.86899 -0.19016,5.23089 0.1569,9.22072 0.91498,10.51874 0.2592,0.4438 0.80774,0.89302 1.24354,1.01838 0.42887,0.12336 1.19649,0.44751 1.70581,0.72033 3.38403,1.81267 2.6013,1.66641 14.81667,2.76854 7.85514,0.70873 13.26465,1.07969 16.70749,1.14573 1.99221,0.0382 2.03527,0.025 2.8195,-0.86824 z m 295.53191,-218.215193 c -0.14341,-0.430246 -0.93407,-0.899111 -1.15077,-0.682414 -0.0977,0.09772 -0.10717,0.361397 -0.021,0.585955 0.18126,0.47234 1.32855,0.566785 1.17177,0.09646 z m 7.60047,-10.838768 c 11.1402,-2.975898 21.16926,-7.269989 30.55938,-13.084459 2.11005,-1.30657 4.13411,-2.50952 4.49792,-2.67323 0.3638,-0.16371 1.55442,-1.09524 2.64583,-2.07007 1.0914,-0.97483 2.62209,-2.1348 3.40153,-2.57773 0.94337,-0.53607 1.50488,-1.05693 1.67953,-1.55794 0.19014,-0.54544 0.43734,-0.75264 0.89795,-0.75264 0.4076,0 0.63557,-0.15264 0.63557,-0.42556 0,-0.31498 0.16212,-0.38487 0.62393,-0.26896 0.53958,0.13542 0.60823,0.0744 0.50776,-0.45114 -0.14483,-0.75761 2.32889,-4.53703 4.73506,-7.23435 2.62929,-2.94744 6.30541,-10.45407 8.0243,-16.3856 2.91362,-10.05428 1.89567,-21.345 -2.5005,-27.7346 -2.1745,-3.16054 -5.7061,-5.6885 -10.054,-7.19679 -4.13047,-1.43285 -5.22776,-1.43212 -11.69088,0.008 -3.00275,0.66898 -5.70169,1.21632 -5.99763,1.21632 -0.86175,0 -1.37512,0.28705 -1.37512,0.7689 0,0.26855 -0.35821,0.57724 -0.89516,0.7714 -0.49234,0.17803 -1.95085,0.99594 -3.24115,1.81757 -1.29029,0.82162 -3.29685,2.07458 -4.45902,2.78435 -1.16216,0.70977 -2.70998,1.91536 -3.43958,2.67909 -0.7296,0.76373 -1.85464,1.68098 -2.50007,2.03833 -0.76222,0.422 -1.23813,0.8938 -1.35783,1.3461 -0.10137,0.383 -0.6556,1.16766 -1.23162,1.74368 -0.7581,0.75811 -1.24975,1.62522 -1.78039,3.14009 -0.40319,1.15103 -1.06508,2.80715 -1.47086,3.68028 -0.40579,0.87312 -0.82289,1.99327 -0.92689,2.48921 -0.44368,2.1157 -5.26011,12.43037 -6.961,14.9074 -0.42458,0.61832 -1.37169,2.31484 -2.10469,3.77005 -1.37176,2.72333 -2.285,3.96353 -2.72043,3.69442 -0.13685,-0.0846 -0.24881,0.12612 -0.24881,0.46822 0,1.82489 -10.17442,15.54882 -11.52733,15.54882 -0.20841,0 -0.37892,0.22633 -0.37892,0.50295 0,0.65264 -1.75254,2.94092 -4.76513,6.22181 l -2.40916,2.62372 0.74287,0.60035 c 0.68241,0.55149 2.92448,1.918 8.37915,5.10699 1.14401,0.668831 2.17263,1.45418 2.28582,1.745222 0.12159,0.312655 0.66324,0.668901 1.32382,0.870686 0.61492,0.187836 1.84733,0.83678 2.7387,1.442099 3.10109,2.105906 3.94301,2.140637 10.35705,0.427244 z m -32.61556,-18.551299 c 2.93185,-2.92866 8.05431,-8.72032 10.70389,-12.10227 1.97223,-2.51736 6.24707,-8.95883 7.09319,-10.68822 0.40233,-0.82235 1.07335,-1.73858 1.49115,-2.03608 0.41779,-0.29749 0.75963,-0.71535 0.75963,-0.92856 0,-0.60071 1.18945,-2.79946 1.96678,-3.63566 0.4226,-0.45461 0.85856,-0.69088 1.10224,-0.59737 0.27737,0.10644 0.38187,0.0109 0.33498,-0.30627 -0.13565,-0.91754 0.34919,-2.49237 1.90843,-6.19888 2.77203,-6.58946 5.47026,-14.95401 6.42792,-19.92667 2.35848,-12.24633 0.23749,-25.03558 -5.42538,-32.71417 -2.83683,-3.84661 -6.31876,-6.44674 -10.28372,-7.67935 -1.74916,-0.54377 -2.48619,-0.61408 -6.21771,-0.59315 -3.68975,0.0207 -4.56928,0.11336 -6.84955,0.72163 -2.61857,0.69851 -7.15776,2.77708 -9.93979,4.5516 -0.79393,0.5064 -1.76131,0.92073 -2.14974,0.92073 -0.57317,0 -0.73617,0.14968 -0.86512,0.79442 -0.27484,1.3742 -6.019,6.76398 -6.59493,6.18806 -0.0771,-0.0771 -0.12849,0.2717 -0.11422,0.7751 0.0206,0.72851 -0.41275,1.57015 -2.12396,4.12464 -3.71632,5.54769 -6.6003,11.81915 -8.79097,19.11669 -2.99396,9.97344 -3.82614,17.59287 -3.83868,35.14693 -0.008,10.97163 0.007,11.29621 0.60295,13.36145 0.33605,1.16417 0.91203,2.63192 1.27996,3.26168 0.75136,1.28604 2.60109,2.59394 4.04274,2.85851 2.67601,0.4911 9.56407,3.19195 18.40797,7.21788 1.60073,0.72868 3.17576,1.3297 3.50006,1.33559 0.40587,0.007 1.51916,-0.91778 3.57188,-2.96826 z m -15.89136,0.53601 c -0.14049,-0.14049 -0.52128,-0.17106 -0.84619,-0.0679 -0.41342,0.13122 -0.49205,0.24851 -0.26193,0.39073 0.4621,0.2856 1.43353,0.003 1.10812,-0.32279 z m -25.65339,-11.02532 c 0.80696,-0.16377 0.87684,-0.26143 0.95413,-1.33342 0.0459,-0.63619 -0.18089,-4.14427 -0.50389,-7.79573 -1.13203,-12.79701 -0.64134,-24.13634 1.51235,-34.94943 0.919,-4.61401 1.81825,-7.64703 2.76857,-9.33786 0.43287,-0.7702 0.72452,-1.50153 0.6481,-1.62519 -0.0764,-0.12365 0.1462,-0.86961 0.49472,-1.65768 0.59583,-1.34728 1.24062,-4.57847 1.29476,-6.48832 0.05,-1.76241 -2.16298,-2.99899 -6.28309,-3.51098 -5.82914,-0.72435 -11.19252,1.11347 -15.67473,5.37113 -8.65954,8.22571 -9.95217,23.02588 -3.67667,42.09652 0.66105,2.00886 1.27978,4.26464 1.37496,5.01284 0.20818,1.63651 0.42326,2.08755 1.67985,3.5228 0.53167,0.60725 1.58057,2.35145 2.33091,3.876 0.75033,1.52455 1.68185,3.02174 2.07005,3.32709 0.3882,0.30536 1.91048,0.92637 3.38284,1.38003 3.10432,0.9565 5.05787,1.88142 5.51298,2.61016 0.29375,0.47037 0.35974,0.47849 0.78212,0.0962 0.25372,-0.22961 0.85314,-0.497 1.33204,-0.59419 z"
       id="path1" /></g></svg>
