<?xml version="1.0" encoding="UTF-8" standalone="no"?>
<!-- Created with Inkscape (http://www.inkscape.org/) -->

<svg
   width="215.10481mm"
   height="179.28639mm"
   viewBox="0 0 215.10483 179.28639"
   version="1.1"
   id="svg5"
   xml:space="preserve"
   xmlns="http://www.w3.org/2000/svg"
   xmlns:svg="http://www.w3.org/2000/svg"><defs
     id="defs2" /><g
     id="layer1"
     transform="translate(50.433647,-44.232378)"><path
       style="fill:#000000;stroke-width:0.264583"
       d="m 72.093036,223.32903 c -1.32995,-0.47167 -3.25098,-1.55628 -3.57447,-2.01814 -0.34664,-0.49489 -0.4191,-0.50573 -0.84964,-0.12705 -1.34526,1.18322 -2.81447,1.65986 -5.12637,1.66309 -1.42655,0.002 -2.42196,-0.11926 -2.67017,-0.32526 -0.21766,-0.18064 -0.44432,-0.2801 -0.50369,-0.22102 -0.0594,0.0591 -0.69398,-0.28841 -1.41024,-0.77219 -0.96103,-0.6491 -1.44637,-0.82621 -1.85209,-0.67586 -1.26622,0.46925 -3.79143,0.54195 -5.9195,0.17044 -2.68083,-0.46802 -5.11889,-1.57758 -6.55963,-2.98528 -1.06113,-1.03681 -1.09236,-1.04777 -1.66449,-0.58449 -2.8105,2.27581 -8.76617,1.8846 -10.48286,-0.68858 -0.29126,-0.43657 -0.73791,-1.08814 -0.99257,-1.44794 l -0.46302,-0.65418 -0.41884,0.59797 c -0.68334,0.9756 -1.66403,1.86995 -2.5566,2.33152 -1.28031,0.66208 -3.84507,0.77773 -5.44708,0.24562 -1.52933,-0.50796 -3.72487,-2.33453 -4.34488,-3.61472 l -0.40699,-0.84033 -2.47478,-0.0336 c -2.1836,-0.0296 -2.68208,-0.13121 -4.23655,-0.86345 -2.6871897,-1.2658 -5.1171297,-4.08286 -5.3394097,-6.19004 -0.0687,-0.65175 -0.28329,-1.00044 -0.76026,-1.23564 -1.05956,-0.52247 -2.84105,-2.62547 -3.60549998,-4.2562 -0.62236,-1.32759 -0.70381,-1.8234 -0.70313,-4.27968 7.9e-4,-2.93542 0.46931,-4.57112 1.64639998,-5.74822 0.28046,-0.28045 0.59273,-0.72571 0.69394,-0.98948 0.16651,-0.43391 0.0672,-0.46355 -1.04282,-0.3114 -7.97517,1.09311 -19.5293703,0.68384 -25.2003903,-0.89265 -2.257,-0.62742 -4.50093,-1.70114 -4.71364,-2.25546 -0.0815,-0.21237 -0.2982,-0.38612 -0.48158,-0.38612 -0.18337,0 -0.6719,-0.50602 -1.08562,-1.12448 -0.59425,-0.88832 -0.7746,-1.49955 -0.85877,-2.91042 -0.0768,-1.28703 -0.0164,-1.78593 0.2162,-1.78593 0.17751,0 0.25716,-0.17091 0.177,-0.3798 -0.17788,-0.46357 0.94754,-2.15971 1.3719,-2.0676 0.1676,0.0364 0.30473,-0.10639 0.30473,-0.31726 0,-0.91669 3.75548,-2.9179 6.87917,-3.66577 0.94588,-0.22646 2.4044,-0.54757 3.24114,-0.71358 l 1.52136,-0.30184 v -13.16052 c 0,-12.2705 -0.032,-13.1952 -0.47287,-13.67343 -0.53846,-0.58406 -2.95286,-4.23842 -7.85561,-11.88999 -1.86485,-2.91042 -4.28487,-6.66089 -5.37782,-8.33438 -2.3955,-3.66789 -3.39902,-5.24218 -6.33039,-9.93083 -0.17888,-0.28611 -1.26234,-2.00849 -2.4077,-3.8275 -5.00408,-7.94725 -5.13049,-8.361 -5.17342,-16.933329 l -0.0311,-6.217708 0.77957,-1.407279 c 1.35963,-2.454404 3.33953,-3.748582 8.1669,-5.338349 2.13085,-0.701741 2.56471,-0.932725 2.41941,-1.288058 -0.0974,-0.238138 -0.35254,-0.968761 -0.56701,-1.623605 -0.21447,-0.654844 -0.50187,-1.42875 -0.63867,-1.719792 -0.1368,-0.291041 -0.81969,-1.999101 -1.51753,-3.795691 l -1.2688,-3.266522 -1.43798,-0.751623 c -0.79088,-0.41339 -3.16438,-1.603226 -5.27443,-2.644081 -4.26373,-2.103229 -4.59891,-2.340398 -5.32892,-3.770725 -0.88112,-1.726422 -0.59073,-5.119412 0.53444,-6.244587 0.2581,-0.258101 0.54574,-0.668542 0.6392,-0.912085 0.0935,-0.243546 0.41881,-0.442809 0.72301,-0.442809 0.30419,0 0.48232,-0.114499 0.39583,-0.25444 -0.20448,-0.330848 1.7627,-1.33306 2.61657,-1.33306 0.61121,0 1.96622,0.470188 2.27195,0.788365 0.0728,0.07572 0.31089,0.175824 0.52917,0.222446 0.67397,0.143957 7.14375,3.843181 7.14375,4.084582 0,0.125127 0.0985,0.166624 0.21889,0.09222 0.1204,-0.07441 1.20224,0.449588 2.4041,1.164431 1.20186,0.714846 2.41305,1.372031 2.69152,1.460418 0.27848,0.08838 0.50632,0.271737 0.50632,0.407453 0,0.135713 0.15213,0.246753 0.33808,0.246753 0.81225,0 1.65619,1.519682 1.91015,3.439583 0.19894,1.50395 0.56516,2.782866 2.81987,9.847553 l 1.32735,4.159009 1.10176,-0.143071 c 0.60596,-0.07869 3.12581,-0.223837 5.59967,-0.322553 4.16514,-0.166201 4.49791,-0.216347 4.49791,-0.677789 0,-0.422224 -0.44437,-0.587983 -2.91041,-1.085643 -3.79602,-0.766056 -6.5504,-1.693402 -6.37641,-2.146813 0.0844,-0.22002 -0.0108,-0.288632 -0.26511,-0.191037 -0.95451,0.366278 -2.45177,-2.138252 -2.10479,-3.520747 0.31092,-1.238795 2.92253,-3.538019 9.05501,-7.971906 1.625,-1.174901 3.01631,-2.074421 3.0918,-1.998932 0.0755,0.07549 0.20999,-0.3214 0.29889,-0.881973 0.35327,-2.227427 1.4319903,-3.48688 3.4467803,-4.024267 2.74823,-0.733015 5.68612,1.393282 5.68612,4.115331 0,1.124442 0.0884,1.250482 2.57968002,3.679661 1.41882998,1.383432 2.54697998,2.636668 2.50698998,2.784964 -0.04,0.148297 0.0347,0.203256 0.16595,0.122132 0.23012,-0.142216 4.6568,4.280381 4.66515,4.660836 0.002,0.102878 0.2021,0.341003 0.44409,0.529167 0.75944,0.590508 1.5423697,2.157484 1.5433997,3.089002 10e-4,1.175427 -1.3597997,2.490547 -3.0068597,2.905279 -0.6609,0.166417 -3.21279,0.300963 -5.70827,0.300963 -2.59903,0 -4.51305,0.104137 -4.51305,0.245544 0,0.135051 0.62508,0.308785 1.38906,0.38608 0.76399002,0.07729 2.69875,0.270711 4.29948,0.429818 3.98093,0.39569 7.5989797,1.159246 10.6353697,2.244492 2.5772,0.921131 5.50882,2.608519 5.2525,3.023254 -0.0766,0.123878 0.0993,0.287596 0.39073,0.363815 0.32276,0.0844 0.77736,0.690938 1.16282,1.551434 0.63251,1.412037 0.87633,3.442727 1.00354,8.358166 0.0273,1.055026 0.0733,1.918229 0.10231,1.918229 0.029,0 0.65887,-0.407937 1.39977,-0.906525 0.74091,-0.498592 2.01507,-1.056013 2.83147,-1.238719 0.81641,-0.182702 1.52141,-0.459375 1.56667,-0.614825 0.0452,-0.155451 0.3936,-1.733362 0.77409,-3.506467 1.01221,-4.716836 3.69631,-12.520774 5.59543,-16.268501 1.56247,-3.083385 4.2317,-4.974209 7.0288,-4.979043 l 1.49558,-0.0026 0.57919,-1.906833 c 2.73785,-9.013798 9.44842,-14.130009 20.10985,-15.331966 2.63744,-0.297341 4.88034,-0.199837 9.12813,0.396825 1.26654,0.177903 4.03126,1.108853 4.53526,1.527138 0.19774,0.16411 0.35953,0.222266 0.35953,0.129235 0,-0.314311 2.65269,1.172393 4.22383,2.367254 1.27085,0.966488 2.19518,1.936964 3.36621,3.534261 0.0438,0.05974 0.28872,-0.07473 0.54428,-0.298825 0.25555,-0.224094 0.82762,-0.591056 1.27127,-0.815472 0.70592,-0.35709 0.86526,-0.656773 1.27635,-2.400501 0.61645,-2.61484 1.50846,-4.352888 3.16332,-6.163564 5.05211,-5.52781 13.800964,-8.081737 21.558984,-6.293403 1.88309,0.434078 5.5885,2.14775 5.79228,2.678806 0.0737,0.191952 0.22079,0.295322 0.32696,0.229708 0.10616,-0.06561 0.70294,0.400265 1.32617,1.035288 1.03298,1.052534 1.19937,1.131504 1.88236,0.893414 1.23033,-0.428898 4.6768,-0.07695 6.69489,0.683672 1.71116,0.644941 4.52904,2.193362 5.26073,2.890764 0.18154,0.173032 0.65013,0.519337 1.04131,0.769569 0.57644,0.368737 2.27672,2.241627 4.21995,4.648348 0.80312,0.994688 2.17289,4.277172 2.55404,6.120455 0.55661,2.691784 0.21566,5.31822 -1.12052,8.631894 -0.51741,1.283157 -0.94075,2.583034 -0.94075,2.888615 0,0.30558 0.40818,1.205179 0.90707,1.999106 2.30463,3.667609 2.83689,4.778595 3.2427,6.768547 0.36032,1.766927 0.37092,2.352778 0.0768,4.243792 l -0.34129,2.193877 0.87352,1.895113 c 1.12896,2.449311 1.33116,4.737579 0.65052,7.361817 -0.26474,1.02072 -0.42927,1.89545 -0.36562,1.94386 0.0636,0.0484 0.77057,0.55208 1.57094,1.11927 1.60027,1.13407 2.27145,1.68208 3.63863,2.97087 0.50171,0.47295 0.99644,0.8599 1.09941,0.8599 0.15471,0 3.73447,3.52557 4.65763,4.58713 2.86952,3.29974 4.49599,5.69727 6.22168,9.1712 2.54211,5.11741 3.14513,8.09325 3.35158,16.53954 0.1769,7.23744 -5.3e-4,8.38076 -1.63136,10.51668 -1.04641,1.37044 -4.19064,3.55423 -7.48685,5.19992 l -2.18781,1.09229 0.17174,6.93985 c 0.17572,7.10097 0.0953,8.06179 -0.86164,10.2874 -0.39683,0.92299 -0.38453,1.0436 0.27452,2.69096 0.84921,2.1227 0.91407,4.34623 0.18289,6.27052 l -0.50707,1.33451 0.68733,1.64489 c 0.5864,1.40335 0.68968,2.05285 0.70336,4.42302 0.0178,3.08558 -0.37937,4.36719 -1.89005,6.09886 -0.61026,0.69954 -0.84155,1.28323 -0.99067,2.5001 -0.107,0.87312 -0.26859,1.70656 -0.35909,1.85208 -0.0905,0.14552 -0.18842,0.42212 -0.21758,0.61466 -0.11653,0.7695 -1.87868,3.33844 -2.92669,4.26667 -1.49414,1.32336 -3.84099,2.53012 -5.72577,2.94423 -1.29628,0.2848 -1.78011,0.56759 -2.98692,1.74581 -0.79204,0.77328 -1.81199,1.59829 -2.26655,1.83335 -2.60095,1.34501 -5.70742,1.78386 -7.92472,1.11955 -0.86933,-0.26046 -1.07836,-0.24365 -1.35361,0.10887 -0.66921,0.85707 -3.47378,2.57205 -5.04677,3.08608 -2.62439,0.8576 -4.9166,1.15788 -6.54704,0.85767 -1.37146,-0.25253 -1.45954,-0.23365 -2.09317,0.44879 -1.0362,1.11602 -2.39686,2.02589 -3.83645,2.56542 -1.64282,0.6157 -4.82352,0.63886 -6.39312,0.0466 -1.04024,-0.39255 -1.12694,-0.38747 -1.56022,0.0913 -1.46765,1.62173 -5.229384,2.81529 -9.641454,3.05912 -2.0621,0.11396 -3.21844,0.32472 -4.48651,0.81772 -1.46392,0.56915 -2.01289,0.64678 -3.83646,0.54255 -1.50069,-0.0858 -2.49082,-0.3015 -3.3585,-0.73169 l -1.23043,-0.61005 -0.72419,0.56965 c -1.34032,1.05429 -4.96372,1.71476 -6.47225,1.17975 z m 4.15282,-4.03916 c 1.06412,-0.64884 1.57047,-1.44046 1.78788,-2.79518 0.23114,-1.44029 0.4863,-1.78052 1.33534,-1.78052 0.83078,0 1.10088,0.33936 1.32475,1.66445 0.44238,2.61846 3.55284,3.69905 6.36948,2.21278 1.11765,-0.58976 1.69425,-0.69838 4.07973,-0.76859 6.12693,-0.18033 9.109044,-1.98154 9.468144,-5.71883 0.12224,-1.27218 0.13843,-1.29242 1.03396,-1.29242 1.4397,0 1.84234,0.35729 2.03442,1.80524 0.19913,1.5011 0.65562,1.99876 2.214,2.41368 2.86026,0.76155 5.64132,-1.40614 5.23973,-4.0841 -0.14883,-0.99252 -0.0939,-1.16675 0.48809,-1.54809 0.63863,-0.41845 0.69208,-0.39873 2.04149,0.75311 0.782,0.6675 1.7803,1.25683 2.29146,1.35273 2.84807,0.53429 7.34797,-1.046 8.67091,-3.04511 0.53919,-0.81477 0.71245,-1.40871 0.72025,-2.46901 0.0121,-1.65037 0.26331,-2.05761 1.26911,-2.05761 0.84992,0 1.57011,0.82518 1.57011,1.79901 0,0.34262 0.34803,0.97097 0.7734,1.39634 0.90971,0.90971 2.3845,1.03552 4.28656,0.36567 2.51995,-0.88745 3.78148,-2.26857 4.33708,-4.74824 0.24996,-1.11559 0.40111,-1.33878 0.95132,-1.40474 0.37327,-0.0447 1.08041,0.21087 1.64693,0.59532 1.34129,0.91021 1.93278,0.853 3.82498,-0.36998 2.14315,-1.38519 3.31955,-3.28528 3.12148,-5.04172 -0.0738,-0.65484 -0.2108,-1.50839 -0.30433,-1.89677 -0.14803,-0.61461 -0.0274,-0.80057 0.93044,-1.43444 2.00488,-1.32677 2.96719,-3.93437 2.35264,-6.37499 -0.23015,-0.91399 -0.64483,-1.55434 -1.59089,-2.45671 -1.39478,-1.33033 -1.50374,-1.61111 -0.83755,-2.15834 0.24314,-0.19971 0.77892,-0.89245 1.19062,-1.5394 0.96405,-1.51489 1.05186,-3.82678 0.19782,-5.20864 -0.30291,-0.49011 -0.5708,-0.88979 -0.59531,-0.88817 -0.0245,0.002 -1.17566,0.36083 -2.55811,0.79824 -5.6668,1.79299 -13.2892,3.63243 -24.70568,5.96201 -12.32704,2.51537 -18.81254,3.41509 -24.660354,3.42107 -1.93486,0.002 -2.22993,-0.068 -3.1068,-0.73732 -1.15552,-0.88194 -1.50168,-1.88792 -0.86778,-2.52182 0.33575,-0.33575 0.97888,-0.44528 2.74629,-0.46774 3.18641,-0.0405 6.974844,-1.38183 10.134734,-3.58831 1.79334,-1.25224 2.50894,-2.1771 2.90667,-3.75664 0.27325,-1.08519 0.24249,-1.30851 -0.32086,-2.32924 -0.3427,-0.62094 -1.14837,-1.48167 -1.79037,-1.91274 -2.19938,-1.47675 -6.521004,-1.21551 -11.511404,0.69587 -2.29664,0.87963 -2.86888,0.80291 -3.01377,-0.4041 -0.12484,-1.04009 0.62241,-2.21358 1.86944,-2.93576 1.61147,-0.93323 4.81788,-1.84368 5.88385,-1.6707 0.573914,0.0931 0.930534,0.0289 1.011524,-0.18217 0.30135,-0.78529 4.44853,-0.36199 6.79535,0.69361 1.53526,0.69056 3.58382,2.77264 4.28287,4.35295 0.64063,1.44825 0.9647,4.41234 0.51294,4.69154 -0.16384,0.10126 -0.2979,0.45868 -0.2979,0.79427 0,0.33559 -0.23422,0.90793 -0.5205,1.27187 -0.28627,0.36394 -0.4601,0.72211 -0.38628,0.79593 0.0738,0.0738 -0.49563,0.64774 -1.26544,1.27538 -0.76981,0.62763 -1.5135,1.23877 -1.65265,1.35806 -0.40449,0.34679 2.82877,-0.031 7.26445,-0.84876 2.25558,-0.41585 4.51776,-0.81169 5.02709,-0.87964 0.50932,-0.068 1.75948,-0.31376 2.77812,-0.54624 1.01865,-0.23247 2.74505,-0.61737 3.83646,-0.85533 1.9597,-0.42728 2.89946,-0.64169 9.12813,-2.08262 3.28055,-0.75891 7.99647,-2.11016 10.956,-3.13922 2.64196,-0.91863 2.67004,-1.01143 2.67004,-8.8268 0,-7.36224 0.25289,-6.80601 -2.68411,-5.90363 -2.47156,0.75937 -8.80956,2.15321 -10.94193,2.40632 -5.7031,0.67696 -6.86183,0.77222 -9.44584,0.77651 -3.50518,0.006 -5.16203,-0.33489 -6.56273,-1.34956 -1.33768,-0.96901 -2.09998,-2.57327 -2.49957,-5.26032 -0.26712,-1.79626 -0.35561,-1.99304 -0.93344,-2.07573 -0.35109,-0.0503 -1.06145,0.0461 -1.57859,0.2142 -0.51714,0.16806 -1.95228,0.32929 -3.18921,0.3583 -1.23693,0.029 -2.36802,0.12631 -2.51354,0.21624 -0.37382,0.23103 -3.24371,0.47424 -6.35,0.53812 -1.45521,0.0299 -2.77412,0.14867 -2.930924,0.26387 -0.17609,0.12937 -0.50994,-0.1906 -0.87317,-0.83689 -0.41199,-0.73305 -0.9604,-1.21866 -1.83157,-1.62184 l -1.24351,-0.5755 1.05834,-0.19487 c 0.58208,-0.10718 2.42122,-0.21418 4.086964,-0.23778 1.66575,-0.0236 4.88044,-0.21724 7.14375,-0.43032 2.26332,-0.21308 5.04868,-0.46383 6.1897,-0.55722 1.14103,-0.0934 2.12041,-0.30016 2.1764,-0.45947 0.11758,-0.3345 -0.79565,-8.83887 -0.96398,-8.97703 -0.0616,-0.0506 -3.06282,-1.06441 -6.66938,-2.25301 -7.96461,-2.62486 -13.207944,-4.60286 -14.563204,-5.49383 -1.08613,-0.71404 -2.28779,-2.85954 -2.29246,-4.09304 -0.003,-0.9003 -0.21352,-1.07257 -0.84157,-0.68998 -0.54143,0.32983 -0.85435,0.0781 -2.14341,-1.72425 -0.25786,-0.36055 -0.76388,-0.81344 -1.12447,-1.00643 -0.3606,-0.19298 -0.65663,-0.47959 -0.65785,-0.6369 -0.001,-0.16622 -0.69392,-0.31695 -1.65365,-0.35987 -2.23997,-0.10018 -3.64771,0.45976 -4.53792,1.80496 -0.53904,0.81454 -0.8611,1.04702 -1.45049,1.04702 -0.9684,0 -1.32015,-0.43896 -1.50855,-1.88256 -0.43589,-3.33989 -3.00532,-4.84322 -5.80633,-3.39717 -0.95296,0.49197 -1.19946,0.51306 -2.71463,0.2322 -1.92669,-0.35714 -3.77621,-0.17302 -5.63943,0.56139 -0.72194,0.28456 -1.36615,0.51739 -1.43157,0.51739 -0.0654,0 -0.30368,-0.44213 -0.52946,-0.98251 -0.22579,-0.54037 -0.59897,-1.19074 -0.8293,-1.44525 -1.10495,-1.22095 -3.95543,-1.24545 -5.38061,-0.0462 -0.76324,0.64222 -0.79517,0.75526 -0.79906,2.82824 -0.005,2.42304 -0.0969,2.67106 -1.14314,3.06882 -1.45201,0.55206 -2.07381,-0.22708 -2.41506,-3.02619 -0.10645,-0.87312 -0.35534,-1.97661 -0.55311,-2.4522 -0.19776,-0.47558 -0.33786,-0.95183 -0.31134,-1.05833 0.0265,-0.1065 -0.74454,-0.59723 -1.71348,-1.09051 -1.51834,-0.77299 -2.01799,-0.89528 -3.61689,-0.88527 -1.02034,0.006 -2.28649,0.15396 -2.81366,0.32794 -1.04277,0.34414 -1.19112,0.29405 -1.29864,-0.43853 -0.0392,-0.26732 -0.23866,-0.48714 -0.44317,-0.4885 -0.20451,-10e-4 -0.65638,-0.16384 -1.00417,-0.36109 -0.41621,-0.23605 -1.1786,-0.31911 -2.23065,-0.24301 -1.45934,0.10556 -1.67385,0.20298 -2.46686,1.12036 -0.4777,0.55262 -1.00119,1.40667 -1.16331,1.89789 -0.24145,0.73162 -0.42872,0.89313 -1.03559,0.89313 -0.9253,0 -1.22612,-0.36521 -1.45767,-1.76964 -0.2312,-1.40229 -1.33097,-2.83416 -2.50451,-3.26081 -1.11117,-0.40397 -3.40171,-0.40816 -4.6129,-0.008 -0.77989,0.25739 -1.03231,0.21681 -1.92198,-0.30897 -0.82203,-0.48579 -1.41588,-0.60526 -3.00857,-0.60526 -1.71537,0 -2.22647,0.11955 -3.77031,0.88193 -0.98227,0.48506 -1.78594,1.05061 -1.78594,1.25677 0,0.20616 -0.0911,0.37484 -0.20248,0.37484 -0.11136,0 -0.41508,0.59859 -0.67493,1.3302 -0.25984,0.73162 -0.57283,1.26817 -0.69551,1.19235 -0.12269,-0.0758 -0.40374,0.30784 -0.62454,0.8526 -0.22081,0.54476 -0.65478,1.25836 -0.96439,1.58578 -0.30961,0.32742 -0.48783,0.59531 -0.39605,0.59531 0.0918,0 -0.26985,0.79453 -0.8036197,1.76562 -0.83211,1.51384 -0.92611,1.84858 -0.65918,2.34734 0.24059,0.44956 0.23464,0.9244 -0.0262,2.08988 -0.31357,1.40114 -0.4234,1.55328 -1.54792,2.14414 -1.61291,0.84748 -2.19543,1.38712 -2.73668,2.53527 -0.84642,1.7955 -1.10589,3.51605 -0.76198,5.05279 0.38993,1.74242 1.12303,2.67824 2.81411,3.59231 1.80147,0.97373 1.80622,1.40063 0.0282,2.538 -0.83929,0.53689 -1.7674,1.41808 -2.17894,2.06881 -0.61232,0.96817 -0.718,1.42306 -0.72433,3.11793 -0.0106,2.84376 0.85222,4.23053 3.2168,5.17003 1.37099,0.54473 1.8591,1.26917 1.25927,1.869 -0.22658,0.22658 -0.35285,0.50761 -0.2806,0.62451 0.0722,0.1169 -0.2284,0.36156 -0.6681,0.54369 -1.28519,0.53234 -2.7708,2.43592 -3.25902,4.17593 -0.59638,2.12548 -0.5334,3.61297 0.23185,5.47621 0.6768,1.64785 1.21086,2.18829 3.27268,3.31177 1.00599,0.54816 1.23658,0.81434 1.30383,1.50506 0.098,1.00637 -0.55171,1.51989 -2.27369,1.79713 -1.06679,0.17176 -2.7028,1.22252 -2.7028,1.73592 0,0.12818 0.87472,0.6372 1.94382,1.13115 4.3909397,2.02874 6.2433797,5.31252 4.6949997,8.32274 -0.6633397,1.2896 -2.0011597,2.55445 -2.4248597,2.29258 -0.19333,-0.11948 -0.25958,-0.093 -0.16209,0.0647 0.0907,0.14673 -0.12905,0.4007 -0.48829,0.56438 -0.69964,0.31878 -0.88386,0.83811 -0.29729,0.83811 0.19573,0 0.57767,0.24509 0.84877,0.54466 0.66332,0.73296 0.32152,1.22934 -1.495,2.1711 -0.89577,0.4644 -1.7214,1.15767 -2.21146,1.85693 -0.71535,1.0207 -0.78304,1.30919 -0.79375,3.38313 -0.0107,2.07011 0.0577,2.3797 0.78611,3.56017 0.58586,0.94938 1.18018,1.49264 2.23684,2.04464 2.00681,1.04837 2.10705,1.15982 1.94447,2.16168 -0.16964,1.04535 0.66938,3.12147 1.56247,3.86627 1.2101597,1.00923 2.8023097,1.57809 4.4168097,1.57809 1.81075,0 2.14602,-0.23537 2.80934,-1.97225 0.514,-1.3459 1.18096,-1.70172 2.08249,-1.11101 0.54906,0.35976 0.61586,0.62275 0.66076,2.60163 0.0824,3.62957 1.22945,5.23525 3.89815,5.45656 1.26979,0.1053 1.46288,0.0461 2.1351,-0.65474 0.40649,-0.42379 0.94189,-1.15248 1.18979,-1.61931 0.40301,-0.75897 0.57425,-0.8488 1.61796,-0.8488 1.12927,0 2.22257,-0.56721 2.97589,-1.54391 0.15514,-0.20114 0.51233,-0.32146 0.79375,-0.26737 0.41484,0.0797 0.54588,0.40769 0.69235,1.73276 0.0994,0.89893 0.2968,1.84989 0.43873,2.11324 0.97733,1.81345 3.19997,2.39932 5.38644,1.41981 1.2904,-0.57808 1.85811,-1.20643 2.83657,-3.13957 0.51846,-1.02431 0.66236,-1.13191 1.41536,-1.05833 0.90867,0.0888 1.2166,0.52286 1.80909,2.55015 0.42635,1.45886 2.13303,3.00047 4.1661,3.76318 1.19813,0.44949 1.94473,0.54296 3.76875,0.47185 2.21397,-0.0863 2.32538,-0.12244 4.17772,-1.35457 1.04669,-0.69623 2.01741,-1.19522 2.15714,-1.10886 0.13973,0.0864 0.25405,0.6936 0.25405,1.34942 0,0.65582 0.1226,1.42147 0.27243,1.70144 0.6116,1.14279 2.70206,1.62734 4.4268,1.02609 1.07994,-0.37647 2.09317,-1.90273 2.44739,-3.68658 0.54588,-2.74899 0.79921,-2.9971 2.29715,-2.24982 0.7289,0.36362 0.81669,0.55898 1.07345,2.38871 0.15379,1.09598 0.47617,2.29268 0.71641,2.65933 0.67532,1.03066 1.97918,1.69772 3.31846,1.69772 0.71446,0 1.52877,-0.20618 2.03614,-0.51555 z m -29.88354,-43.72152 c -0.54571,-0.14493 -0.99219,-0.37778 -0.99219,-0.51744 0,-0.13965 -0.11906,-0.18032 -0.26459,-0.0904 -0.14552,0.0899 -0.26458,0.0374 -0.26458,-0.11667 0,-0.15411 -0.15607,-0.2802 -0.34682,-0.2802 -0.69984,0 -3.8547,-3.9592 -3.1657,-3.9728 0.11287,-0.002 0.0282,-0.11598 -0.18817,-0.25279 -0.28643,-0.1811 -0.40512,-0.80994 -0.43651,-2.31284 -0.0367,-1.75571 0.0419,-2.16971 0.52568,-2.77096 0.61349,-0.76238 2.02402,-1.29052 2.02402,-0.75785 0,0.16989 0.11906,0.2353 0.26458,0.14536 0.14553,-0.0899 0.26459,-0.0304 0.26459,0.13229 0,0.1627 0.10557,0.23057 0.2346,0.15083 0.34092,-0.2107 0.72277,0.35461 1.10159,1.63085 0.18288,0.61612 0.5226,1.28387 0.75493,1.48389 1.11579,0.96061 3.62101,1.24139 5.19782,0.58255 0.68867,-0.28774 1.05235,-0.68942 1.43731,-1.5875 0.29828,-0.69586 0.68999,-1.20228 0.92994,-1.20228 0.22802,0 0.48311,-0.1786 0.56688,-0.39688 0.23266,-0.6063 1.19677,-0.47329 2.08005,0.28697 0.73751,0.63479 0.79285,0.80817 0.78104,2.44707 -0.016,2.21548 -0.85941,3.96922 -2.70712,5.62881 -2.09943,1.88567 -4.93676,2.52974 -7.79735,1.76998 z m 30.2814,-9.09377 c -0.32678,-0.22889 -0.95215,-1.20572 -1.3897,-2.17074 -0.96578,-2.12998 -1.39466,-2.63665 -2.7641,-3.2655 -1.92859,-0.88561 -4.16612,-0.48435 -5.7869,1.03778 -0.4179,0.39246 -1.0981,1.45898 -1.51156,2.37004 -0.88031,1.9398 -1.76022,2.49637 -2.888,1.82678 -1.00914,-0.59916 -1.36539,-1.45727 -1.21157,-2.91839 0.29521,-2.80411 2.44793,-5.65222 5.25062,-6.94674 1.44277,-0.66639 1.94793,-0.76009 4.03074,-0.74766 2.15245,0.0129 2.5423,0.0969 4.05739,0.87506 1.12888,0.57978 1.63,0.98107 1.53483,1.22908 -0.0946,0.24646 -0.009,0.31735 0.2597,0.21436 1.02244,-0.39235 3.54023,3.93709 3.54058,6.08816 1.8e-4,1.05894 -0.13192,1.40926 -0.77319,2.05052 -0.87136,0.87137 -1.48218,0.96427 -2.34884,0.35725 z m -42.60099,-3.03105 c -0.28996,-0.31123 -0.66652,-1.12145 -0.83681,-1.80049 -0.48898,-1.94976 -1.49022,-3.30669 -2.92592,-3.96534 -1.54798,-0.71014 -3.14007,-0.73641 -4.43343,-0.0731 -1.31292,0.6733 -1.98521,1.44657 -2.84296,3.26999 -0.82629,1.75655 -1.47941,2.07838 -2.87442,1.4164 -1.26674,-0.60111 -1.54599,-1.68585 -0.93425,-3.62898 2.11083,-6.70474 10.57605,-8.75534 15.52195,-3.76 3.40052,3.43451 3.86989,8.76335 0.79509,9.02674 -0.69188,0.0593 -1.08205,-0.0696 -1.46925,-0.48519 z m 32.98672,-13.55359 c -0.38388,-0.3267 -0.82909,-0.99507 -0.98935,-1.48526 -0.31517,-0.96396 -0.14688,-2.15145 0.30489,-2.15145 0.154,0 0.20256,-0.0774 0.10791,-0.17208 -0.0946,-0.0947 0.12977,-0.45184 0.4987,-0.79375 1.14443,-1.06062 4.08311,-0.64033 4.08311,0.58396 0,0.21003 0.11695,0.38187 0.25988,0.38187 0.28449,0 0.19314,2.22502 -0.12221,2.97656 -0.10686,0.25467 -0.30911,0.46303 -0.44946,0.46303 -0.14035,0 -0.43377,0.17859 -0.65205,0.39687 -0.60243,0.60244 -2.22396,0.49594 -3.04142,-0.19975 z m -38.60482,-3.83515 c -0.96824,-0.8652 -1.40604,-2.8476 -0.73928,-3.34756 0.21305,-0.15975 0.46316,-0.49259 0.55579,-0.73964 0.0926,-0.24706 0.55108,-0.64706 1.01875,-0.88891 1.77128,-0.91596 3.93597,0.5881 3.93842,2.73646 0.003,2.45914 -2.96816,3.85302 -4.77368,2.23965 z m -30.9440797,40.01702 c 1.67349002,-0.19839 3.81661,-0.55748 4.7625,-0.79797 0.94588,-0.24049 1.83885,-0.46244 1.98437,-0.49322 1.21979,-0.25801 3.04271,-1.89738 3.04271,-2.73633 0,-0.70212 -1.89097,-2.71814 -2.54953,-2.71814 -0.22632,0 -0.74097,-0.23461 -1.14366,-0.52135 -0.40269,-0.28675 -0.80431,-0.44921 -0.89248,-0.36104 -0.0882,0.0882 -0.45771,-0.0345 -0.8212,-0.27271 -0.36348,-0.23816 -0.87321998,-0.46925 -1.13273998,-0.51351 -0.25951,-0.0443 -0.85289,-0.28225 -1.3186,-0.52885 -0.46572002,-0.24661 -1.01297002,-0.44838 -1.21612002,-0.44838 -0.20315,0 -0.75,-0.18988 -1.21522,-0.42196 -0.81464,-0.4064 -1.37749,-0.57314 -2.07972,-0.61613 -0.1819,-0.0111 -0.33073,-0.20586 -0.33073,-0.43273 0,-0.22687 -0.11309,-0.3426 -0.25131,-0.25717 -0.28882,0.1785 -0.86167,-0.76186 -0.76242,-1.25156 0.0365,-0.18026 -0.0571,-0.56586 -0.20812,-0.8569 -0.17023,-0.3281 -0.31671,-4.50033 -0.38552,-10.98021 -0.16667,-15.69688 -0.17549,-15.41506 0.50366,-16.09421 0.316,-0.316 0.57454,-0.70192 0.57454,-0.8576 0,-0.15568 0.38606,-0.84029 0.8579,-1.52135 0.47184,-0.68107 1.14291,-1.77408 1.49127,-2.42892 0.34836,-0.65485 2.05894,-3.81 3.80128002,-7.01146 4.51755998,-8.30074 4.82413998,-8.86218 5.56228998,-10.18646 1.00273,-1.79893 8.2340997,-15.29229 10.1919797,-19.01771 l 1.72118,-3.27501 -0.18488,-4.786335 c -0.10168,-2.632482 -0.20853,-4.806293 -0.23743,-4.830688 -0.0289,-0.02439 -1.12411,0.226841 -2.4338,0.558303 -1.30968,0.331462 -2.79796,0.66585 -3.30729,0.743087 -8.5958797,1.303539 -13.0619697,1.598615 -23.94479,1.582042 -9.20801,-0.01402 -14.40284,-0.279051 -19.71145,-1.005626 -2.45687,-0.336264 -3.44327,-0.510185 -6.08542,-1.072962 -0.88482,-0.188468 -2.60279,-0.645059 -2.99311,-0.795491 -0.23828,-0.09183 -0.28222,1.014349 -0.18189,4.578715 l 0.13229,4.699805 1.19063,2.24896 c 0.65484,1.23693 1.26209,2.30849 1.34945,2.38125 0.2762,0.23005 0.88204,1.44673 0.82342,1.65364 -0.0309,0.10914 0.0441,0.19844 0.16671,0.19844 0.12261,0 0.45003,0.44323 0.72761,0.98495 0.27757,0.54173 0.59565,1.10727 0.70684,1.25677 0.3671,0.49358 1.45551,2.18481 3.78539,5.88195 1.2652,2.00766 2.93941,4.63138 3.72047,5.8305 0.78106,1.19912 1.42011,2.29053 1.42011,2.42535 0,0.13482 0.09,0.28482 0.20002,0.33332 0.23296,0.10272 4.98479,7.5538 5.75104,9.01789 0.2856,0.5457 0.61126,0.99218 0.72368,0.99218 0.11243,0 0.20442,0.1786 0.20442,0.39688 0,0.21828 0.14883,0.3987 0.33073,0.40092 0.22049,0.003 0.19844,0.0896 -0.0661,0.26054 -0.34874,0.22537 -0.34661,0.25697 0.0176,0.26053 0.38734,0.004 2.62827,3.17955 2.62827,3.72468 0,0.13647 0.12609,0.24812 0.2802,0.24812 0.15411,0 0.20662,0.11906 0.11668,0.26458 -0.0899,0.14552 -0.0345,0.26459 0.12322,0.26459 0.15772,0 0.40798,0.26789 0.55615,0.59531 0.42279,0.93429 0.91763,1.74088 1.38455,2.25682 1.16608,1.2885 1.19,1.60064 1.27619,16.64879 l 0.0822,14.34155 -0.6528,0.69869 c -0.88758,0.94999 -1.64598,1.30338 -3.87501,1.80566 -4.436,0.99958 -8.12691,2.78904 -8.97232,4.35004 -0.45814,0.84594 -0.45763,0.90934 0.0145,1.78594 0.2692,0.49987 0.58977,0.90886 0.71237,0.90886 0.12261,0 0.22292,0.19844 0.22292,0.44097 0,0.24254 0.0704,0.37057 0.15646,0.28452 0.0861,-0.0861 0.71113,0.0145 1.38906,0.22338 4.14709,1.27799 6.49743,1.64397 12.60969,1.96352 4.1283003,0.21583 4.6415503,0.19457 9.6572903,-0.40006 z m -0.52917,-15.8894 c 0,-1.13612 -0.1119,-1.96876 -0.26458,-1.96876 -0.1545,0 -0.26459,0.88715 -0.26459,2.13228 0,1.35415 0.0966,2.07261 0.26459,1.96876 0.14552,-0.0899 0.26458,-1.04946 0.26458,-2.13228 z m 3.39169002,-6.43002 c 0.0447,-2.04568 0.4863,-3.81152 1.24858998,-4.99326 0.21274,-0.32981 0.56519,-0.87608 0.78321,-1.21395 0.37321,-0.57835 0.33412,-0.69779 -0.66788,-2.04077 -0.58536,-0.78456 -1.78878998,-2.80007 -2.67428998,-4.47893 -1.76279002,-3.34215 -2.31399002,-4.11624 -2.67440002,-3.75583 -0.13009,0.13009 -0.19791,3.57615 -0.15177,7.71221 l 0.0834,7.47705 1.8161,1.68674 c 0.99885002,0.92771 1.90057002,1.68675 2.00382002,1.68675 0.10325,0 0.20821,-0.93601 0.23323,-2.08001 z M 135.59062,155.89033 c 2.79982,-0.4327 8.78666,-1.91655 10.67998,-2.64705 0.76139,-0.29377 1.1109,-0.31843 1.37747,-0.0972 0.39688,0.32939 1.00594,0.0917 0.76481,-0.29842 -0.0844,-0.13649 0.0625,-0.31444 0.32641,-0.39545 0.50248,-0.15425 0.65972,-0.22344 4.36405,-1.92035 1.26323,-0.57866 2.36455,-0.98433 2.4474,-0.90148 0.0829,0.0829 0.15063,0.0168 0.15063,-0.1469 0,-0.16364 0.56555,-0.62804 1.25677,-1.032 2.67626,-1.56404 3.68806,-2.65972 3.9269,-4.25242 0.29564,-1.97144 -0.35439,-12.86136 -0.90394,-15.14374 -1.37594,-5.7145 -4.14301,-10.3565 -9.44437,-15.84374 -6.23778,-6.45649 -14.89489,-11.15595 -23.14577,-12.56453 -5.59487,-0.955145 -12.22256,-0.747971 -16.59356,0.5187 -3.63237,1.05261 -5.69578,2.26968 -8.33237,4.91467 -1.97623,1.98252 -2.492704,2.69911 -3.629884,5.03638 -1.5354,3.15573 -2.51349,6.57586 -2.94703,10.30499 -0.40873,3.51574 -0.15245,5.91386 0.71822,6.72077 0.76492,0.70891 7.066034,3.08944 15.479624,5.84813 6.40748,2.10092 7.23108,2.55804 7.48824,4.15626 0.29594,1.83925 1.51383,13.59598 1.55498,15.01077 0.0242,0.8335 0.0746,1.48555 0.11182,1.44901 0.0373,-0.0365 0.54098,0.38374 1.11936,0.93395 0.82248,0.7824 1.29775,1.01816 2.18121,1.08199 1.88221,0.13598 8.09507,-0.27581 11.04905,-0.73234 z m -8.46425,-9.05899 c -0.80144,-0.0721 -1.00883,-0.24601 -1.54137,-1.29234 -0.70305,-1.38136 -1.35106,-4.18211 -1.54882,-6.6941 -0.11619,-1.47584 -0.0559,-1.82061 0.42499,-2.43051 0.3082,-0.39089 0.76607,-0.70588 1.01748,-0.69998 0.2514,0.006 1.16834,-0.13172 2.03764,-0.30583 0.8693,-0.1741 2.00991,-0.24789 2.53468,-0.16398 0.63048,0.10082 1.12648,0.0222 1.46217,-0.23181 0.27942,-0.21142 0.86521,-0.38858 1.30178,-0.39369 0.43656,-0.005 1.98437,-0.25628 3.43958,-0.55814 1.45521,-0.30187 3.00302,-0.60531 3.43958,-0.6743 0.43656,-0.069 2.97941,-0.48617 5.65078,-0.92704 2.67136,-0.44087 5.11214,-0.7371 5.42395,-0.65828 0.79058,0.19985 2.07552,3.06088 2.22677,4.95808 0.11179,1.4022 0.0681,1.53745 -0.77067,2.38751 -1.0262,1.04 -4.90524,3.00569 -8.1652,4.13771 -1.23693,0.42952 -2.66568,0.92916 -3.175,1.11031 -0.50933,0.18115 -1.91337,0.55041 -3.12009,0.82057 -1.20673,0.27016 -2.28016,0.54442 -2.3854,0.60946 -0.19436,0.12012 -3.22561,0.59142 -5.8716,0.9129 -0.80036,0.0973 -1.87192,0.1393 -2.38125,0.0935 z m 1.05834,-6.3773 c 0,-0.13362 0.0675,-0.41897 0.1501,-0.63411 0.1727,-0.45005 -1.12231,-1.8864 -1.93266,-2.14359 -0.79858,-0.25346 -0.92683,0.44726 -0.33469,1.82867 0.44533,1.03891 0.61407,1.19197 1.31409,1.19197 0.44174,0 0.80316,-0.10932 0.80316,-0.24294 z m 0.42206,-8.44755 c -0.0996,-0.16112 -0.23435,-0.62316 -0.2995,-1.02675 -0.28125,-1.74233 -0.50197,-2.36507 -1.08781,-3.0692 -1.08943,-1.30942 -0.61585,-2.43375 0.74614,-1.77142 0.59834,0.29097 0.60083,0.28735 0.0868,-0.12666 -0.5905,-0.4756 -0.56328,-1.08335 0.0808,-1.80332 0.38378,-0.42903 0.46202,-0.43658 0.72973,-0.0705 0.24801,0.33917 0.30389,0.26826 0.32318,-0.41016 0.0128,-0.45112 0.23925,-1.02368 0.50316,-1.27234 0.26391,-0.24865 0.71797,-0.78226 1.00901,-1.18579 1.56853,-2.17475 6.0899,-6.72553 7.14375,-7.1902 0.43656,-0.19249 0.67469,-0.36301 0.52917,-0.37893 -0.14553,-0.0159 -0.0265,-0.12248 0.26458,-0.23679 0.71373,-0.28033 1.98756,0.16067 2.69929,0.93449 0.32044,0.3484 0.73716,0.63345 0.92604,0.63345 0.18888,0 0.81967,0.56235 1.40175,1.24966 1.82974,2.16052 2.36405,2.76673 2.97656,3.37713 0.32743,0.3263 0.59532,0.67389 0.59532,0.77242 0,0.0985 0.25093,0.44208 0.55763,0.76342 0.30669,0.32133 0.86027,1.0605 1.23017,1.64258 0.36991,0.58208 0.75602,1.11786 0.85803,1.19062 0.63517,0.45304 1.44722,2.34444 1.37534,3.20341 -0.0766,0.91524 -0.14181,0.97246 -1.5875,1.39266 -0.8292,0.24101 -3.17451,0.74401 -5.2118,1.11777 -2.03729,0.37376 -5.60303,1.02836 -7.92386,1.45465 -5.21042,0.95706 -7.67905,1.20927 -7.92595,0.80977 z m 10.25933,-13.95358 c -0.0208,-0.49591 -0.30856,-1.09029 -0.73362,-1.51534 l -0.69938,-0.69939 -0.53669,0.53669 c -0.90223,0.90223 0.0381,2.72301 1.32866,2.57266 0.56999,-0.0664 0.66993,-0.20587 0.64103,-0.89462 z m -27.08556,9.29517 c -0.50932,-0.19553 -1.79419,-0.62229 -2.85526,-0.94835 -1.06107,-0.32606 -2.21095,-0.81444 -2.55527,-1.08529 -0.34434,-0.27085 -0.8653,-0.49246 -1.1577,-0.49246 -0.70074,0 -2.75266,-0.8876 -3.1276,-1.35291 -0.66136,-0.82076 -0.55317,-2.44217 0.35108,-5.26167 0.49004,-1.52796 1.1262,-3.10072 1.4137,-3.49501 0.2875,-0.39429 0.52272,-0.82787 0.52272,-0.96351 0,-0.13563 0.32081,-0.32713 0.71292,-0.42554 0.85986,-0.21581 1.37594,0.32891 2.37123,2.50281 0.36644,0.80037 0.82123,1.63381 1.01066,1.85209 0.18942,0.21828 1.08289,1.85509 1.98546,3.63736 0.90259,1.78227 1.75117,3.30854 1.88575,3.39172 0.13458,0.0832 0.18213,0.25246 0.10565,0.3762 -0.0765,0.12373 0.0337,0.39773 0.24488,0.60889 0.45844,0.45843 0.65735,1.81904 0.28241,1.93169 -0.14552,0.0437 -0.68131,-0.0805 -1.19063,-0.27602 z m 5.40349,-1.32282 c -0.10703,-0.42645 -0.29781,-0.57593 -0.62563,-0.4902 -0.29593,0.0774 -0.53165,-0.0571 -0.6327,-0.36102 -0.0886,-0.26639 -0.27051,-0.66294 -0.4043,-0.88122 -1.1607,-1.89373 -1.88878,-3.26888 -1.88878,-3.56741 0,-0.19648 -0.10148,-0.39693 -0.22552,-0.44544 -0.12403,-0.0485 -1.18762,-1.93983 -2.36352,-4.20294 -1.88847,-3.63453 -2.12775,-4.25211 -2.05018,-5.29167 0.11558,-1.54908 0.36077,-2.10296 0.93097,-2.10296 0.25765,0 0.61668,-0.17859 0.79784,-0.39687 0.37068,-0.44665 1.73392,-0.53753 1.98437,-0.13229 0.0899,0.14552 -0.0221,0.26458 -0.24896,0.26458 -0.52181,0 -0.52542,0.60809 -0.0101,1.69412 0.36653,0.77239 0.50225,0.84367 1.52136,0.79903 0.61541,-0.027 1.42714,-0.17198 1.80385,-0.32226 0.77435,-0.30893 2.16544,-1.83995 1.96559,-2.16331 -0.0721,-0.11671 0.0448,-0.35825 0.2599,-0.53675 0.21508,-0.17849 0.3295,-0.42414 0.25426,-0.54587 -0.26703,-0.43206 0.93107,-0.77983 2.57566,-0.74764 0.9174,0.018 1.80024,0.13856 1.96186,0.26801 0.16162,0.12944 0.98178,0.28396 1.82258,0.34337 0.8545,0.0604 1.62166,0.2584 1.73945,0.44899 0.17124,0.27708 0.33555,0.27418 0.87671,-0.0155 1.18476,-0.63406 4.73928,0.10896 5.93578,1.24078 0.19229,0.1819 0.49974,0.33073 0.68321,0.33073 0.54259,0 0.88172,1.59577 0.54962,2.58625 -0.15978,0.47655 -0.37004,0.78693 -0.46724,0.68973 -0.0972,-0.0972 -0.2484,0.0487 -0.336,0.32417 -0.38559,1.21263 -2.29459,3.97175 -5.19769,7.51234 -0.41762,0.50932 -0.84447,1.04521 -0.94855,1.19086 -1.10095,1.5407 -1.86098,2.46125 -2.36397,2.86324 -0.33188,0.26523 -0.6034,0.63944 -0.6034,0.83159 0,0.52153 -0.62612,0.67057 -2.81716,0.67057 -1.08907,0 -2.192,0.11339 -2.45097,0.25198 -0.25896,0.13859 -0.78664,0.30926 -1.17261,0.37925 -0.56667,0.10275 -0.73142,0.009 -0.85577,-0.48629 z m 0.36443,-12.10411 c 0.37052,-0.37052 0.41487,-1.76484 0.0733,-2.30441 -0.19712,-0.31138 -0.37116,-0.317 -1.05428,-0.034 -0.45001,0.1864 -0.83582,0.47329 -0.85736,0.63754 -0.13292,1.01328 -0.0344,1.39265 0.43605,1.67832 0.67789,0.41167 1.0079,0.41699 1.40229,0.0226 z m -3.65125,-1.53458 c 0,-0.14552 -0.11906,-0.26458 -0.26459,-0.26458 -0.14552,0 -0.26458,0.11906 -0.26458,0.26458 0,0.14552 0.11906,0.26458 0.26458,0.26458 0.14553,0 0.26459,-0.11906 0.26459,-0.26458 z m -3.1936,-1.25677 c -0.0102,-0.25466 -0.12092,-0.70115 -0.24599,-0.99219 -0.1824,-0.42449 -0.23106,-0.3329 -0.24598,0.46302 -0.0102,0.54571 0.10046,0.99219 0.24598,0.99219 0.14553,0 0.25622,-0.20836 0.24599,-0.46302 z m 11.52797,45.1776 c 0.0899,-0.14552 0.0374,-0.26458 -0.11667,-0.26458 -0.15411,0 -0.2802,0.11906 -0.2802,0.26458 0,0.14552 0.0525,0.26458 0.11667,0.26458 0.0642,0 0.19027,-0.11906 0.2802,-0.26458 z M 1.4445563,143.78447 l 0.75354,-1.54272 -0.63899,-0.9416 c -0.35144,-0.51788 -0.63897998,-1.04404 -0.63897998,-1.16926 0,-0.12521 -0.0935,-0.22766 -0.2078,-0.22766 -0.25244,0 -1.90887002,3.30452 -1.90887002,3.80815 0,0.19719 0.31942002,0.93003 0.70981002,1.62852 0.68475,1.22515 0.71808,1.24735 0.94378,0.62864 0.12869,-0.35274 0.57306998,-1.33557 0.98750998,-2.18407 z m 90.4922297,-21.8729 c 0,-0.14552 -0.11906,-0.26459 -0.26458,-0.26459 -0.14552,0 -0.26458,0.11907 -0.26458,0.26459 0,0.14552 0.11906,0.26458 0.26458,0.26458 0.14552,0 0.26458,-0.11906 0.26458,-0.26458 z m -1.32291,-1.35532 c 0,-0.20518 0.12267,-0.19517 0.39687,0.0324 0.21828,0.18116 0.41207,0.2255 0.43064,0.0985 0.0186,-0.12696 0.0656,-0.46896 0.10456,-0.76 0.0976,-0.72946 1.33235,-2.92042 1.61539,-2.86634 0.12686,0.0242 0.24028,-0.69014 0.25204,-1.5875 0.0132,-1.00557 0.20017,-1.97451 0.48736,-2.52538 0.25628,-0.4916 0.63333,-1.45738 0.83788,-2.14617 0.39584,-1.33294 2.18769,-4.17823 2.8727,-4.56158 0.22599,-0.12647 0.41089,-0.39412 0.41089,-0.59477 0,-0.20066 0.15096,-0.52216 0.33548,-0.71446 0.39377,-0.41037 1.25202,-3.05843 1.25202,-3.863 0,-0.30604 0.11906,-0.63002 0.26458,-0.71996 0.145524,-0.0899 0.264594,-0.455767 0.264594,-0.812957 0,-0.357187 0.10708,-0.856175 0.23796,-1.108863 0.286,-0.552148 0.82037,-4.533836 0.82037,-6.112655 0,-0.620313 -0.24038,-1.686611 -0.53417,-2.369548 -0.6368,-1.48028 -1.743114,-2.185842 -5.638114,-3.595777 -2.19923,-0.796086 -11.05753,-3.594991 -11.37785,-3.594991 -0.0596,0 -0.72846,1.934765 -1.48636,4.299478 -0.75789,2.364714 -1.60676,4.880904 -1.88638,5.591532 -0.27961,0.710632 -0.50838,1.533605 -0.50838,1.828829 0,0.718021 -0.85241,3.451704 -1.13987,3.655574 -0.12553,0.08903 -0.20998,0.239537 -0.18766,0.334462 0.0702,0.298595 -0.57318,3.187666 -0.80994,3.636986 -0.12438,0.23603 -0.40002,1.18853 -0.61255,2.11666 -0.21252,0.92814 -0.64144,2.64002 -0.95315,3.80419 -0.31171,1.16416 -0.78653,3.06916 -1.05517,4.23333 -0.26863,1.16417 -0.62015,2.45857 -0.78114,2.87645 -0.39942,1.03672 0.0243,1.48764 1.40469,1.49498 0.60064,0.003 1.56935,0.22264 2.15269,0.48764 1.02184,0.46421 2.77585,2.16445 2.77585,2.69076 0,0.36517 0.77616,0.31671 2.66076,-0.1661 1.95914,-0.50191 3.32902,-0.35204 5.13379,0.56166 1.38156,0.69943 2.25962,0.83799 2.25962,0.35658 z m -20.16125,-3.98926 c 0.17462,-0.17463 0.3175,-0.5265 0.3175,-0.78194 0,-0.45126 0.68164,-3.02875 2.0183,-7.63181 0.35919,-1.23693 1.01699,-3.61818 1.46177,-5.29167 0.97737,-3.677295 1.11101,-4.154026 1.78009,-6.349999 0.28819,-0.945885 0.75518,-2.493698 1.03775,-3.439583 1.38687,-4.642413 2.95113,-9.324787 3.22571,-9.65563 0.16862,-0.203176 0.26767,-0.643853 0.22012,-0.979286 -0.095,-0.66988 0.2033,-0.563404 -6.03958,-2.156137 -7.90603,-2.017056 -9.33101,-2.303682 -9.22658,-1.855877 0.11452,0.491053 -0.36779,1.652354 -0.74662,1.797724 -0.23319,0.08948 -0.33416,0.326411 -0.24174,0.567256 0.0873,0.227476 -0.37708,2.424136 -1.03194,4.881473 -1.32343,4.966109 -3.68641,14.624639 -3.97904,16.264019 -0.1039,0.58208 -0.30941,1.21004 -0.45669,1.39546 -0.14729,0.18541 -0.20218,0.40274 -0.12198,0.48293 0.0802,0.0802 0.031,0.52381 -0.10936,0.9858 -0.14034,0.46198 -0.31262,1.25669 -0.38284,1.76602 -0.0702,0.50932 -0.29275,1.64041 -0.49451,2.51354 -0.20175,0.87312 -0.44361,2.30187 -0.53746,3.175 -0.0939,0.87312 -0.22989,1.79586 -0.3023,2.05052 -0.0724,0.25466 -0.0344,0.46962 0.0846,0.47769 0.11895,0.008 1.28783,0.0444 2.59752,0.0808 2.3374,0.0649 3.54193,0.42328 4.63818,1.38003 0.24773,0.21621 1.27451,0.38829 2.64583,0.44341 1.23254,0.0495 2.48506,0.11431 2.78338,0.14393 0.29832,0.0296 0.68527,-0.089 0.8599,-0.26365 z m -16.9892,-2.1299 c 0.20141,-0.62626 0.21818,-0.71538 0.61018,-3.24114 0.6403,-4.12571 0.85531,-5.34889 1.0919,-6.21198 0.14048,-0.51248 0.67079,-2.71771 1.17847,-4.90052 0.50767,-2.182816 1.17017,-4.921254 1.47221,-6.08542 0.30203,-1.164167 0.73441,-2.831042 0.96083,-3.704167 0.58019,-2.237372 1.16919,-4.154543 1.44172,-4.692763 0.12795,-0.252688 0.23443,-0.728938 0.23662,-1.058334 0.004,-0.6482 0.5786,-2.460304 0.87302,-2.754727 0.0997,-0.09973 0.18133,-0.457864 0.18133,-0.795851 0,-0.337987 0.22911,-1.217488 0.50913,-1.954445 l 0.50913,-1.339922 -0.58829,-0.223665 c -1.39882,-0.531831 -13.76373,-2.739303 -19.269,-3.440041 -1.26642,-0.161195 -2.63563,-0.212503 -3.04271,-0.11402 -1.67536,0.405321 -2.86632,1.790594 -3.95039,4.594926 -0.31044,0.80305 -1.11996,2.888843 -1.79893,4.635093 -2.23095,5.737777 -4.11894,14.373163 -4.11894,18.839476 0,2.10568 0.063,2.35558 1.07476,4.26632 0.59111,1.11629 1.51384,2.44894 2.05052,2.96146 1.05188,1.00452 3.5134,2.37545 4.26515,2.37545 0.65272,0 4.40091,0.97822 5.02217,1.31071 0.28446,0.15223 1.56682,0.28202 2.8497,0.2884 1.33502,0.007 2.78508,0.17467 3.39083,0.3929 0.58208,0.2097 1.25369,0.38307 1.49246,0.38526 0.23877,0.002 0.95314,0.23949 1.5875,0.52734 1.4807,0.67189 1.73767,0.66402 1.97063,-0.0603 z m -18.94789,-1.52135 c 0.11805,0 0.2852,-0.18389 0.37145,-0.40864 0.11848,-0.30876 -0.35956,-0.64134 -1.95607,-1.36084 -1.16208,-0.52372 -2.11287,-1.05421 -2.11287,-1.17887 0,-0.12466 -0.15188,-0.22665 -0.3375,-0.22665 -0.52016,0 -2.69212,-2.37309 -3.39021,-3.70417 -0.54144,-1.03238 -0.62533,-1.56716 -0.63118,-4.02373 l -0.007,-2.833097 -0.99082,0.05497 c -0.54495,0.03024 -0.99471,0.174041 -0.99947,0.319561 -0.005,0.145521 -0.40546,0.558916 -0.89045,0.918646 -1.92893,1.43076 -2.48756,5.20115 -1.15752,7.8126 1.12004,2.19915 1.47422,2.39564 4.13236,2.29256 2.64063,-0.10241 4.57299,0.46348 6.12926,1.79491 0.50621,0.43308 1.07895,0.73237 1.27275,0.66508 0.19381,-0.0673 0.44897,-0.12234 0.56701,-0.12234 z m -15.78633,-2.84427 c 0.0623,-0.10914 -0.0909,-0.67469 -0.34029,-1.25677 l -0.45352,-1.05834 -0.57013,1.11394 c -0.31358,0.61267 -0.57014,1.17821 -0.57014,1.25677 0,0.2207 1.80605,0.16878 1.93408,-0.0556 z M 141.01963,100.04053 c 0.83208,-1.753472 0.0763,-5.558376 -1.35792,-6.83625 -0.50697,-0.451708 -0.58935,-1.390891 -0.21685,-2.472079 0.22109,-0.641726 0.33674,-1.985097 0.30329,-3.522908 -0.0479,-2.201707 -0.15066,-2.681309 -0.89964,-4.198456 -0.46507,-0.942044 -1.39252,-2.44756 -2.061,-3.345593 -1.34083,-1.801251 -1.71929,-3.228773 -1.7221,-6.495608 -0.002,-2.002824 -0.77922,-4.124189 -2.13045,-5.812861 -0.42983,-0.53717 -0.7815,-1.102717 -0.7815,-1.25677 0,-0.154054 -0.0936,-0.280099 -0.20803,-0.280099 -0.11441,0 -0.73949,-0.476276 -1.38906,-1.058391 -1.4641,-1.312064 -4.27959,-2.766484 -6.17768,-3.191259 -1.31436,-0.29414 -1.53478,-0.271685 -2.65462,0.27042 -1.44507,0.699543 -1.71616,1.134753 -2.01243,3.230734 -0.25103,1.77596 -0.59204,2.335996 -1.4224,2.335996 -0.5948,0 -1.47739,-0.826019 -1.48743,-1.392087 -0.003,-0.180236 -0.22824,-0.817507 -0.5001,-1.416153 -1.62122,-3.570015 -7.7188,-6.470843 -11.9095,-5.665758 -1.69275,0.325197 -3.3995,1.264886 -4.35078,2.395424 -0.701994,0.834268 -1.069694,1.886291 -1.384744,3.961907 -0.23841,1.570718 -1.0704,3.327832 -1.87564,3.961228 -0.35649,0.280416 -1.20533,0.578781 -1.88632,0.66303 -3.43471,0.424929 -5.60932,1.797672 -6.6792,4.216299 -0.46287,1.046396 -1.67013,5.717421 -1.51066,5.844924 0.0399,0.0319 1.14411,0.386093 2.4538,0.787087 11.568184,3.541906 13.745364,4.76304 15.087024,8.461989 0.75464,2.080527 0.81437,3.680999 0.23737,6.360234 -0.21938,1.018645 -0.48992,2.332685 -0.60122,2.920092 -0.11129,0.587404 -0.29164,1.212482 -0.40077,1.389062 -0.10913,0.176576 -0.0823,0.321056 0.0597,0.321056 0.14198,0 0.29783,-0.0988 0.34634,-0.219585 0.12806,-0.31885 2.72463,-1.49569 4.7184,-2.138519 3.18623,-1.0273 5.59749,-1.367475 10.71563,-1.511726 4.56853,-0.128762 5.35289,-0.08219 8.59895,0.510514 3.94534,0.720391 6.61317,1.401037 6.99823,1.785458 0.13825,0.138018 0.4359,0.254506 0.66146,0.258863 0.22556,0.0044 1.36261,0.470477 2.52677,1.035823 1.16417,0.565342 2.1924,1.038032 2.28496,1.050412 0.0926,0.0124 0.3752,-0.41352 0.62809,-0.94645 z M 112.39128,79.840282 c -0.31894,-0.128468 -0.77569,-0.532405 -1.015,-0.897633 -0.50311,-0.76785 -0.29754,-1.424565 0.29261,-0.934778 0.20373,0.169074 0.28933,0.442748 0.19024,0.60816 -0.1221,0.203814 -0.0543,0.19903 0.21023,-0.01484 0.25278,-0.204351 0.52715,-0.229095 0.77839,-0.0702 0.61962,0.391885 1.27344,0.294101 1.84321,-0.275666 0.29104,-0.291042 0.52916,-0.397367 0.52916,-0.236276 0,0.161089 0.1786,0.224359 0.39688,0.140594 0.21828,-0.08376 0.39687,-0.04671 0.39687,0.08235 0,1.364374 -2.00604,2.249445 -3.62259,1.598295 z m 9.89406,-2.946569 c -0.50344,-0.281736 -0.61463,-1.019641 -0.15365,-1.019641 0.21683,0 0.2153,-0.09842 -0.006,-0.364691 -0.40996,-0.493972 0.0703,-1.737087 0.69434,-1.797232 1.29095,-0.124421 1.5534,-0.106503 1.8619,0.127121 0.25049,0.189693 0.25922,0.343022 0.0349,0.613289 -0.16449,0.198199 -0.23433,0.607957 -0.15519,0.910574 0.26656,1.01932 -1.30375,2.075037 -2.27663,1.53058 z m -16.36245,-4.412112 c -0.79351,-0.396198 -0.89777,-0.576067 -0.96865,-1.671103 -0.069,-1.065139 0.0143,-1.30088 0.63099,-1.785938 0.93749,-0.73743 1.8384,-0.706456 2.63546,0.09061 0.78437,0.784368 0.83533,1.746152 0.12651,2.387629 -0.28761,0.260284 -0.46994,0.558983 -0.40518,0.663776 0.0648,0.104794 -0.16296,0.31844 -0.50607,0.474771 -0.4843,0.22066 -0.82274,0.184928 -1.51306,-0.159747 z M -8.5641837,91.556434 c 0.67723,-0.0051 1.34449,-0.07919 1.48281,-0.164682 0.2398,-0.148204 0.48369,-1.754246 0.74931,-4.934347 0.0668,-0.800365 0.25274,-2.802657 0.41308,-4.449543 0.28474,-2.92464 0.27833,-3.003576 -0.27557,-3.39154 -0.3119,-0.218464 -0.50362,-0.499896 -0.42606,-0.625403 0.26062,-0.42168 -0.47359,-0.614908 -0.77422,-0.203761 -0.16346,0.223536 -0.53235,0.451395 -0.81976,0.506357 -0.47367,0.09058 -0.57589,0.570058 -1.09243,5.124095 -0.7553103,6.659335 -0.9289203,8.788661 -0.68796,8.438208 0.10972,-0.159573 0.75358,-0.294294 1.4308,-0.299384 z M -21.641254,91.038432 c 0.0552,-0.16574 -0.20366,-1.207248 -0.57534,-2.314466 -0.37168,-1.107215 -0.67578,-2.299764 -0.67578,-2.650109 0,-0.350343 -0.1829,-0.819896 -0.40646,-1.043448 -0.22355,-0.223554 -0.62885,-1.214323 -0.90066,-2.201711 -0.54113,-1.965704 -1.21191,-3.999825 -1.72628,-5.234834 -0.18182,-0.436563 -0.83935,-2.341563 -1.46117,-4.233333 -0.62182,-1.891771 -1.41274,-4.186082 -1.75759,-5.098468 -0.34485,-0.912386 -0.627,-1.93295 -0.627,-2.267918 0,-0.481788 -0.4265,-0.853832 -2.04134,-1.780699 -1.12273,-0.644416 -2.28359,-1.317797 -2.57968,-1.496404 -0.2961,-0.178609 -1.07414,-0.582297 -1.72898,-0.897091 -0.65485,-0.31479 -1.23032,-0.674674 -1.27882,-0.799737 -0.0485,-0.125066 -0.33679,-0.227391 -0.64063,-0.227391 -0.30383,0 -0.7404,-0.160793 -0.97014,-0.357315 -1.06606,-0.911923 -5.61548,-3.082268 -6.46098,-3.082268 -1.12723,0 -1.48523,0.421425 -1.72896,2.035288 -0.16689,1.105006 -0.10807,1.384896 0.44803,2.131899 0.35207,0.472943 0.80833,0.859896 1.01391,0.859896 0.20558,0 0.44242,0.17889 0.52633,0.397531 0.0839,0.218641 1.17701,0.877615 2.42914,1.464381 1.25213,0.586769 2.34061,1.157817 2.41884,1.268998 0.0782,0.111177 0.66721,0.355637 1.30886,0.543239 1.58676,0.463934 3.99275,2.302796 3.99275,3.051599 0,0.317214 0.14883,0.72558 0.33073,0.907481 0.1819,0.181901 0.34043,0.414073 0.3523,0.515937 0.0616,0.528863 0.49139,1.855843 0.79929,2.467808 0.19236,0.382305 0.60019,1.629683 0.90629,2.77195 0.3061,1.142267 0.66854,2.211782 0.80541,2.376699 0.13687,0.16492 0.29718,0.801605 0.35625,1.414862 0.0591,0.613254 0.27386,1.31454 0.47731,1.558406 0.20344,0.243869 0.5775,1.157775 0.83124,2.0309 0.25373,0.873124 0.55873,1.825624 0.67778,2.116666 0.11904,0.291042 0.55266,1.66026 0.96359,3.042708 0.41093,1.382448 0.83278,2.632604 0.93745,2.778125 0.27372,0.38054 5.85636,0.334658 5.98431,-0.04918 z m 8.94551,-0.215402 c 0.0368,-0.291042 0.14329,-1.362604 0.23671,-2.38125 0.0934,-1.018646 0.30768,-2.610601 0.47613,-3.537678 0.28351,-1.560303 0.26802,-1.713819 -0.20837,-2.065284 -0.31415,-0.23177 -0.82387,-0.322937 -1.30839,-0.234016 -0.43656,0.08012 -2.45433,0.209452 -4.48394,0.287412 -2.0296,0.07796 -3.72404,0.175604 -3.76543,0.216987 -0.1503,0.15031 1.03384,4.822139 1.39551,5.505693 0.20436,0.386255 0.37157,0.925309 0.37157,1.197901 0,0.27259 0.1658,0.73047 0.36844,1.017508 0.33253,0.471017 0.68442,0.521893 3.60968,0.521893 3.04256,0 3.24533,-0.03243 3.30809,-0.529166 z m 14.0569503,0.288914 c 1.04296,-0.01339 1.98554,-0.113628 2.09462,-0.222768 0.10908,-0.109141 0.65064,-0.198438 1.20347,-0.198438 0.55282,0 2.34868,-0.194085 3.9908,-0.431297 1.6421097,-0.237215 3.1642497,-0.456039 3.3825297,-0.486278 1.24435,-0.172371 4.23333,-1.271423 4.23333,-1.556602 0,-0.540496 -0.61805,-1.227862 -1.20509,-1.340228 -0.29899,-0.05723 -1.01337,-0.304906 -1.5875,-0.550389 -1.8672,-0.798369 -4.9563197,-1.642636 -7.6584497,-2.093079 -3.6455,-0.6077 -9.21595,-1.165516 -9.47014,-0.948327 -0.22542,0.192601 -0.51797,3.62391 -0.47074,5.521089 0.0159,0.63668 -0.10702,1.321289 -0.27306,1.521354 -0.22792,0.27463 -0.2179,0.464958 0.0409,0.776785 0.27922,0.336434 0.66549,0.377746 2.08292,0.222769 0.95707,-0.104643 2.59346002,-0.201211 3.63642,-0.214591 z M -30.461314,89.929127 c -0.0845,-0.381479 -0.3195,-1.065519 -0.52224,-1.520089 -0.20273,-0.45457 -0.41503,-1.049883 -0.47177,-1.322917 -0.26825,-1.290955 -0.83442,-2.216216 -1.3561,-2.216216 -1.50206,0 -6.84344,1.942716 -7.74189,2.815807 -0.4176,0.405823 0.23759,1.152943 1.01109,1.152943 0.28065,0 0.51027,0.108598 0.51027,0.241326 0,0.132731 0.50601,0.334055 1.12448,0.447387 0.61846,0.113334 1.18401,0.219213 1.25677,0.235286 0.0728,0.01606 0.83621,0.123386 1.69655,0.238472 0.86035,0.115085 1.7813,0.28953 2.04657,0.387659 0.26526,0.09813 0.95875,0.190908 1.54109,0.206177 1.00987,0.02648 1.0517,-0.0043 0.90518,-0.665835 z M 84.085366,77.23288 c 0.688,-2.670742 0.85155,-5.328579 0.42077,-6.837947 -0.199,-0.697254 -0.37296,-1.327267 -0.38659,-1.400027 -0.12686,-0.677479 -0.74497,-2.569718 -0.90749,-2.778125 -0.11349,-0.145521 -0.29551,-0.56224 -0.4045,-0.926042 -0.10898,-0.363802 -0.5998,-1.213191 -1.09071,-1.887532 -0.49091,-0.674338 -0.89256,-1.299416 -0.89256,-1.389062 0,-0.450837 -2.25196,-2.258875 -3.86367,-3.102041 -1.00368,-0.525071 -1.7934,-1.095716 -1.75495,-1.2681 0.0521,-0.233276 -0.0664,-0.240488 -0.46302,-0.0282 -0.31422,0.168169 -0.53294,0.181816 -0.53294,0.03325 0,-0.281649 -2.25936,-0.824984 -3.43056,-0.824984 -0.41727,0 -0.80586,-0.141549 -0.86353,-0.314552 -0.0757,-0.227267 -1.20155,-0.301019 -4.05694,-0.265774 -4.28215,0.05286 -8.40484,0.670015 -9.16591,1.372121 -0.24822,0.228994 -0.90307,0.575008 -1.45521,0.768921 -1.54838,0.54379 -4.50942,2.653694 -5.88633,4.194336 -1.99534,2.232602 -4.37457,7.607258 -3.71784,8.398566 0.14264,0.171862 0.66136,0.327591 1.15272,0.346064 0.49136,0.01847 1.41558,0.168817 2.05381,0.3341 0.63823,0.165283 2.35104,0.455253 3.80625,0.644377 1.45521,0.189124 4.6699,0.776322 7.14375,1.304882 2.47385,0.528561 4.97417,1.025914 5.55625,1.105231 0.58208,0.07931 2.60614,0.509207 4.49792,0.955315 1.89177,0.446109 3.91583,0.900745 4.49791,1.010306 0.58209,0.109559 1.65365,0.37909 2.38125,0.598953 2.6285,0.794269 3.98329,1.211501 4.7625,1.466705 1.85942,0.608989 2.08774,0.4763 2.59962,-1.510744 z M 6.4921763,75.458155 c 0.24864,-0.299582 0.15969,-0.579588 -0.43501,-1.369396 -0.41115,-0.546047 -0.96127,-1.148392 -1.2225,-1.338543 -0.26123,-0.190153 -0.47496,-0.517575 -0.47496,-0.727604 0,-0.210031 -0.11424,-0.381873 -0.25387,-0.381873 -0.42466,0 -1.59821,-1.418024 -1.59821,-1.931141 0,-0.264736 -0.12277,-0.405458 -0.27284,-0.312716 -0.27928,0.172604 -6.4796,-6.065959 -7.05997,-7.103514 -0.17675,-0.315976 -0.32558,-0.968643 -0.33073,-1.450372 -0.009,-0.848937 -0.0399,-0.873342 -1.00156,-0.79375 -0.9208,0.07621 -1.01123,0.160202 -1.25677,1.167363 -0.14553,0.596881 -0.44294,1.299501 -0.66093,1.561369 -0.56848,0.682932 -5.5551403,4.424873 -5.5652003,4.176075 -0.005,-0.114459 -0.17094,0.0062 -0.36958,0.268155 -0.19864,0.261943 -1.46347,1.333505 -2.81075,2.38125 -1.34727,1.047745 -2.57995,2.120323 -2.73927,2.383507 -0.60241,0.995077 1.27129,1.662668 7.51552,2.677758 6.7597503,1.098894 7.3293303,1.150194 12.88236032,1.160298 4.30630998,0.0078 5.40231998,-0.06328 5.65426998,-0.366866 z M 89.158666,68.431042 c 0.29104,-0.125743 0.70776,-0.337077 0.92604,-0.46963 0.53064,-0.322236 3.0129,-1.050999 4.258,-1.250098 0.9335,-0.149273 1.46675,-0.669306 1.17325,-1.144183 -0.13729,-0.222141 0.46293,-3.514902 0.79794,-4.377433 0.11304,-0.291042 0.40591,-0.724752 0.6508,-0.9638 0.2449,-0.239051 0.67233,-0.718865 0.94983,-1.066258 0.72984,-0.913641 2.915294,-2.179383 4.949154,-2.866387 2.3781,-0.803283 4.94375,-0.646933 8.36728,0.509897 2.46193,0.831903 3.43394,1.420672 5.21385,3.158151 0.84101,0.820954 0.96799,0.864238 1.6756,0.571138 0.42109,-0.174424 0.97128,-0.544381 1.22263,-0.822127 0.25136,-0.277744 0.5987,-0.504989 0.77188,-0.504989 0.17317,0 0.54167,-0.251365 0.81888,-0.558588 0.45074,-0.499531 0.71384,-0.545092 2.48841,-0.430922 1.0914,0.07022 2.34156,0.285316 2.77812,0.477996 0.43657,0.192678 0.91281,0.367795 1.05834,0.389147 1.46091,0.214352 4.5208,2.303055 4.18052,2.85365 -0.0974,0.157604 0.002,0.204647 0.23892,0.113565 0.46351,-0.177867 4.03522,3.162879 4.3112,4.032413 0.0927,0.29209 0.27619,0.531072 0.40775,0.531072 0.13155,0 0.33736,0.378854 0.45734,0.841899 0.11999,0.463044 0.36152,0.889685 0.53673,0.948089 0.40579,0.135263 0.42197,-1.463643 0.0345,-3.407521 -0.15625,-0.783846 -0.31223,-1.57521 -0.34664,-1.758582 -0.0344,-0.183375 -0.20422,-0.475078 -0.37737,-0.648229 -0.17315,-0.173154 -0.31482,-0.568822 -0.31482,-0.879266 0,-0.310446 -0.0893,-0.653743 -0.19844,-0.762884 -0.10914,-0.10914 -0.19843,-0.337343 -0.19843,-0.507116 0,-0.169775 -0.1786,-0.314092 -0.39688,-0.320707 -0.21828,-0.0066 -0.36711,-0.155442 -0.33073,-0.330729 0.0364,-0.175286 -0.0529,-0.318704 -0.19844,-0.318704 -0.14552,0 -0.26458,-0.159483 -0.26458,-0.354404 0,-0.194924 -0.29766,-0.490027 -0.66146,-0.655788 -0.3638,-0.165759 -0.66146,-0.482526 -0.66146,-0.703927 0,-0.2214 -0.10167,-0.402547 -0.22595,-0.402547 -0.12426,0 -0.57075,-0.30104 -0.99218,-0.668978 -1.17863,-1.02902 -1.38887,-1.183079 -1.61497,-1.183428 -0.11528,-1.78e-4 -0.55946,-0.301197 -0.98705,-0.668928 -0.4276,-0.367734 -1.08245,-0.743609 -1.45521,-0.835281 -0.37277,-0.09167 -0.91589,-0.320419 -1.20693,-0.508326 -1.24708,-0.805161 -5.15937,-0.771271 -5.15937,0.04469 0,0.209364 -0.11906,0.380664 -0.26459,0.380664 -0.14552,0 -0.26458,0.198985 -0.26458,0.442187 0,0.658762 -0.79216,1.409896 -1.4869,1.409896 -0.707,0 -1.30008,-0.894712 -1.19126,-1.797127 0.20468,-1.697426 -2.96417,-4.689038 -6.13594,-5.792742 -1.46636,-0.51026 -6.53131,-0.673193 -8.91298,-0.286721 -0.65485,0.106262 -1.66688,0.258712 -2.24896,0.338778 -0.58208,0.08007 -2.289064,0.737907 -3.793284,1.461862 -1.50422,0.723958 -2.84368,1.24909 -2.97656,1.166964 -0.13289,-0.08213 -0.24162,0.0878 -0.24162,0.377626 0,0.295844 -0.23376,0.601144 -0.53301,0.696121 -0.29315,0.09304 -0.47306,0.266171 -0.39978,0.384726 0.0733,0.118554 -0.0441,0.362685 -0.26075,0.542515 -0.21667,0.179826 -0.39396,0.481052 -0.39396,0.669387 0,0.188336 -0.1038,0.382117 -0.23067,0.430626 -0.54147,0.207023 -2.10856,4.520398 -1.93053,5.313714 0.0245,0.10914 -0.0745,0.198437 -0.22005,0.198437 -0.14552,0 -0.26458,0.250053 -0.26458,0.55567 0,0.342993 -0.76425,1.302758 -1.99678,2.507599 l -1.99677,1.951929 0.31886,1.064276 c 0.17538,0.585351 0.41908,1.064276 0.54157,1.064276 0.12249,0 0.2227,0.347451 0.2227,0.77211 0,1.632066 0.28217,1.780698 1.98438,1.045276 z"
       id="path865" /></g></svg>
