<?xml version="1.0" encoding="UTF-8" standalone="no"?>
<!-- Created with Inkscape (http://www.inkscape.org/) -->

<svg
   width="217.1906mm"
   height="204.47723mm"
   viewBox="0 0 217.19063 204.47722"
   version="1.1"
   id="svg5"
   xml:space="preserve"
   xmlns="http://www.w3.org/2000/svg"
   xmlns:svg="http://www.w3.org/2000/svg"><defs
     id="defs2" /><g
     id="layer1"
     transform="translate(18.512669,-24.529053)"><path
       style="fill:#000000;stroke-width:0.264583"
       d="m 97.488187,228.52456 c -1.77239,-0.65178 -2.97957,-1.48951 -4.30743,-2.98921 -1.04795,-1.18355 -1.24703,-1.30253 -1.73894,-1.03927 -0.30552,0.16351 -0.5555,0.23083 -0.5555,0.14959 0,-0.0812 -0.26789,0.0218 -0.59531,0.22897 -0.79648,0.50395 -3.07527,0.95845 -4.80555,0.95845 -4.60217,0 -8.53441,-2.14003 -11.42255,-6.21644 l -0.55154,-0.77847 -1.69742,0.82996 c -2.2002,1.07579 -4.13692,1.62141 -6.8563,1.93156 -2.887,0.32927 -7.0219,-0.0877 -9.06984,-0.91462 -1.95018,-0.78744 -4.13379,-2.28489 -3.96672,-2.72025 0.0704,-0.1836 -0.0605,-0.33383 -0.29098,-0.33383 -0.2305,0 -0.61412,-0.29765 -0.85249,-0.66145 -0.53675,-0.81918 -0.5999,-0.81852 -2.71699,0.0284 -4.52552,1.81049 -9.43944,0.81368 -12.54079,-2.54396 -0.76265,-0.82568 -1.5229,-1.72856 -1.68944,-2.00641 -0.27388,-0.45692 -0.36233,-0.46854 -0.92604,-0.12171 -5.16285,3.17655 -9.804,3.49506 -14.99331,1.02896 -0.98402,-0.46764 -1.76512,-1.02945 -1.90146,-1.36763 -0.14064,-0.34886 -0.24025,-0.41831 -0.25399,-0.17708 -0.0134,0.23546 -0.49008,-0.11478 -1.17203,-0.86117 l -1.14943,-1.25805 -1.02755,0.44634 c -0.66014,0.28675 -1.7371,0.44712 -3.0119302,0.44853 -2.52756,0.003 -4.30687,-0.73572 -5.8772,-2.43932 -1.10695,-1.2009 -1.1628,-1.22558 -3.16271996,-1.39745 -1.28425,-0.11036 -2.55549004,-0.41381 -3.44329004,-0.82192 -1.44167,-0.66271 -3.25411,-2.01574 -3.01734,-2.25252 0.0727,-0.0727 -0.0924,-0.32579 -0.36693,-0.56239 -0.65156,-0.56153 -1.33043,-2.65948 -1.33043,-4.11149 0,-1.02752 -0.0841,-1.18411 -0.79375,-1.47806 -0.43657,-0.18083 -0.79375,-0.44042 -0.79375,-0.57688 0,-0.13645 -0.10458,-0.18347 -0.23239,-0.10448 -0.3928298,0.24279 -2.6772498,-2.42799 -3.3688198,-3.93857 -0.87439,-1.90993 -1.20144,-4.07721 -0.91766,-6.0811 0.23774,-1.67871 1.11132,-3.85784 1.76355,-4.39915 0.55684,-0.46214 0.48981,-0.64299 -0.92003,-2.48241 -2.06966,-2.70029 -2.88953,-6.02016 -2.41366,-9.77347 0.21787,-1.71841 1.07306,-4.299 1.54204,-4.65321 0.1002,-0.0757 0.34185,-0.44804 0.537,-0.82746 0.331,-0.64355 0.2822,-0.78562 -0.72707,-2.11666 -1.61293,-2.12716 -2.24193,-4.27104 -2.08103,-7.09295 0.0984,-1.72597 0.30038,-2.64125 0.82978,-3.76031 l 0.69971,-1.47908 -1.16646,-1.7395 c -2.54563,-3.7962 -2.27009,-8.87757 0.66248,-12.21759 0.45033,-0.5129 0.92585,-0.86637 1.05671,-0.78549 0.39675,0.2452 0.26586,-1.11913 -0.13966,-1.45568 -1.60183,-1.3294 -1.57336,-7.55919 0.0427,-9.34492 0.3608,-0.39868 0.38378,-0.57626 0.12151,-0.93918 -1.52772,-2.11398 -2.12286,-3.70337 -2.35364,-6.28571 -0.24209,-2.70878 0.91401,-6.58877 2.45613,-8.24308 0.27927,-0.29958 0.91239,-0.97554 1.40694,-1.50212 l 0.89918,-0.95742 -0.44953,-1.12231 c -0.69184,-1.72727 -0.82461,-4.28046 -0.3241,-6.232754 0.47133,-1.83849 1.66667,-4.102513 2.04316,-3.869831 0.13167,0.08138 0.23941,-0.02842 0.23941,-0.244009 0,-0.215582 0.6194598,-0.93386 1.3765698,-1.596168 1.30965,-1.145648 1.37308,-1.261163 1.30453,-2.375839 -0.0396,-0.644403 0.0785,-1.689325 0.26243,-2.322049 0.38474,-1.323234 1.43781,-3.134783 1.82228,-3.134783 0.1437,0 0.26127,-0.155591 0.26127,-0.34576 0,-0.190167 -0.83344,-0.748951 -1.85208,-1.24174 -1.01865,-0.492789 -1.85209,-0.992042 -1.85209,-1.109448 0,-0.117409 -0.184,-0.213469 -0.4089,-0.213469 -0.22489,0 -0.70656,-0.297656 -1.0703598,-0.661458 -0.3638,-0.363802 -0.74626,-0.661458 -0.84991,-0.661458 -0.3436,0 -2.96281,-2.821909 -2.78461,-3.000108 0.0962,-0.09619 0.0333,-0.174892 -0.13972,-0.174892 -0.33338,0 -2.74599,-3.571973 -3.73418,-5.528601 -0.82013,-1.623875 -0.88158,-2.910565 -0.17466,-3.656981 0.30986,-0.327173 0.71221,-0.596916 0.89411,-0.599429 0.1819,-0.0026 0.33073,-0.109649 0.33073,-0.238078 0,-0.402534 3.41443,-2.478595 3.82031,-2.322845 0.24272,0.09314 0.33757,0.02175 0.25545,-0.19226 -0.0806,-0.210153 0.70913,-0.851961 2.06399,-1.677291 3.2721598,-1.993273 5.2320898,-2.91088 8.6417598,-4.045924 6.20033,-2.064025 12.1596302,-2.815682 19.6143202,-2.473989 2.54662,0.116729 4.74071,0.216273 4.87576,0.22121 0.13505,0.0049 0.33979,-0.348207 0.45498,-0.78477 0.39237,-1.487117 1.33619,-2.908276 2.94324,-4.43177 0.88263,-0.836745 1.76331,-1.521354 1.95707,-1.521354 0.19376,0 0.35229,-0.120174 0.35229,-0.267055 0,-0.266964 2.13645,-1.345163 4.6302,-2.336718 2.76998,-1.101381 11.28739,-2.953858 15.51236,-3.373826 l 1.75403,-0.174352 0.32387,-1.091214 c 0.17814,-0.600164 0.49652,-1.507929 0.70751,-2.017252 0.211,-0.509322 0.3897,-0.985572 0.39711,-1.058333 0.007,-0.07276 0.31912,-0.668073 0.6927,-1.322916 3.12306,-5.47446 10.2526,-10.668529 17.27563,-12.585784 5.53237,-1.510316 10.68915,-2.211473 17.70867,-2.407815 11.62728,-0.325225 22.912173,1.174081 31.278523,4.155655 3.20026,1.140502 6.622,2.845628 6.40735,3.19293 -0.0784,0.126841 0.0203,0.168161 0.21917,0.09182 0.19893,-0.07634 0.6875,0.163153 1.08571,0.532199 0.3982,0.369043 0.81015,0.670991 0.91544,0.670991 0.10528,0 1.03542,0.863203 2.06697,1.918229 1.78345,1.824032 3.24688,3.752212 3.61461,4.7625 0.21702,0.596222 0.79745,0.583565 2.8909,-0.06303 0.93674,-0.289329 3.12218,-0.778277 4.85652,-1.086548 4.25178,-0.755735 12.3422,-0.830125 15.81299,-0.145402 2.82813,0.557938 5.18864,1.382377 5.73418,2.002735 0.22118,0.251518 0.52971,0.414784 0.68563,0.362812 0.41121,-0.13707 2.89312,1.616178 2.81482,1.98842 -0.0364,0.172951 0.12543,0.314455 0.35958,0.314455 0.23415,0 0.68063,0.228761 0.99219,0.50836 0.31155,0.279596 1.331,1.142918 2.26544,1.918494 1.01721,0.844261 1.93975,1.887815 2.29895,2.600494 0.67693,1.343099 1.16144,3.747664 1.16144,5.764106 0,1.326044 0.0186,1.358223 0.8599,1.485749 0.47294,0.07169 2.82442,0.19322 5.22552,0.270063 2.40109,0.07685 5.347,0.265308 6.54647,0.418809 2.74843,0.351729 5.70582,1.240155 5.45878,1.639864 -0.10716,0.173389 -0.0601,0.2179 0.11563,0.10931 0.7982,-0.493321 4.79477,2.645947 6.01133,4.721841 1.36252,2.32497 1.78774,4.030278 1.81673,7.285825 0.0474,5.327716 -1.58989,9.855827 -4.7907,13.248854 -1.6072,1.703721 -4.27157,3.645641 -5.79836,4.226123 l -0.67475,0.256543 0.55128,0.857679 c 2.81971,4.386799 3.21957,8.369459 1.20815,12.033233 l -0.90616,1.65056 1.21752,1.74167 c 0.66963,0.95792 1.4485,2.47736 1.73081,3.37653 0.61963,1.97349 0.72375,5.50916 0.22345,7.58798 -0.51664,2.14676 -1.52298,4.31073 -1.89714,4.07949 -0.19234,-0.11887 -0.24103,-0.0785 -0.1273,0.10549 0.10129,0.16389 -0.0125,0.59814 -0.25287,0.96499 -0.5315,0.81117 -0.361,1.65977 0.55129,2.74398 1.99097,2.36613 2.94461,6.98974 2.19219,10.62854 -0.51763,2.50333 -1.40583,4.34821 -2.98115,6.19214 -0.87452,1.02363 -1.13756,1.52603 -1.02479,1.95728 0.0835,0.31909 0.24448,0.58017 0.35786,0.58017 0.24689,0 1.77509,2.34575 1.89607,2.91041 0.0468,0.21829 0.19474,0.47605 0.32883,0.57282 0.13408,0.0968 0.25315,0.59095 0.26458,1.0982 0.0114,0.50724 0.10132,0.87295 0.19974,0.81267 0.36953,-0.22628 0.52323,2.8082 0.236,4.65944 -0.37948,2.44578 -1.1605,4.25634 -2.59662,6.01952 l -1.1363,1.39507 0.44343,0.85708 c 1.10022,2.12656 1.38464,4.4857 0.80855,6.70658 -0.40639,1.56668 -1.76843,3.83725 -2.21006,3.68425 -0.33091,-0.11463 -0.2278,0.32157 0.59211,2.50479 0.59059,1.57262 0.77947,4.80647 0.39024,6.68141 -0.45057,2.17038 -1.69186,4.4681 -3.12952,5.79297 l -1.2497,1.15166 -0.0236,2.77813 c -0.0195,2.29195 -0.12777,3.00249 -0.61891,4.06025 -0.70398,1.51612 -2.34123,3.41576 -2.73449,3.17272 -0.15606,-0.0965 -0.19838,-0.0443 -0.0971,0.11957 0.10509,0.17005 -0.31752,0.58188 -1.01894,0.99294 -0.80211,0.47006 -1.24964,0.93443 -1.35308,1.40397 -0.81842,3.71489 -1.54684,4.34556 -7.38309,6.39231 -1.74625,0.6124 -7.61435,2.76744 -13.04023,4.78897 -5.42588,2.02154 -10.08916,3.67551 -10.36285,3.67551 -0.27368,0 -0.5373,0.10154 -0.5858,0.22564 -0.0485,0.12409 -3.7196,1.54292 -8.15799,3.15294 -20.18856,7.3234 -20.03796,7.27463 -22.88646,7.41034 -2.10043,0.10006 -2.80247,0.27795 -5.95312,1.50841 -5.87226,2.29337 -8.7521,2.74121 -11.389803,1.77123 z m 7.533403,-5.16185 c 0.82776,-0.37897 2.08288,-1.294 2.88767,-2.10525 l 1.42351,-1.43493 1.95542,0.50627 c 3.33953,0.86463 7.30764,0.0776 8.93106,-1.77138 0.70011,-0.79738 0.89852,-0.88196 1.74619,-0.7444 0.75243,0.1221 1.08524,0.0341 1.56085,-0.41271 0.33247,-0.31234 0.67047,-0.50193 0.7511,-0.42129 0.39884,0.39884 6.26223,-9.52405 6.72826,-11.38656 0.0364,-0.14552 0.49505,-1.38063 1.01919,-2.74469 0.93681,-2.43797 1.01753,-3.03609 0.33309,-2.46806 -0.18993,0.15763 -0.68367,0.34795 -1.09719,0.42294 -0.41351,0.075 -0.81558,0.20007 -0.89348,0.27797 -0.0779,0.0779 -0.30813,0.003 -0.51163,-0.16545 -0.2035,-0.16889 -0.34918,-0.19762 -0.32374,-0.0639 0.10492,0.55163 -0.0411,0.74675 -0.28098,0.37552 -0.18637,-0.28839 -0.25759,-0.3022 -0.26054,-0.0505 -0.002,0.19049 -0.12311,0.27276 -0.26863,0.18282 -0.14552,-0.0899 -0.26641,-0.54345 -0.26864,-1.0078 -0.005,-0.98285 -0.20443,-1.34237 -0.88564,-1.59432 -0.37526,-0.13879 -0.42314,-0.26622 -0.20073,-0.53421 0.16064,-0.19357 0.22961,-0.41442 0.15325,-0.49078 -0.0764,-0.0764 0.47678,-0.2205 1.2292,-0.32031 3.0371,-0.40288 5.58921,-2.48656 6.11483,-4.99247 0.27633,-1.31741 0.25362,-1.67483 -0.18401,-2.89608 -0.27458,-0.76626 -0.83958,-1.86449 -1.25555,-2.44051 -0.41597,-0.57603 -0.72152,-1.2904 -0.67899,-1.5875 0.1105,-0.77197 1.17779,-0.84941 1.93268,-0.14024 0.58511,0.54969 0.62423,0.55368 0.86147,0.088 0.26153,-0.51342 0.83024,-3.80797 0.92916,-5.38269 0.053,-0.84394 -5.3e-4,-0.91946 -0.60328,-0.85179 -0.65085,0.0731 -0.65297,0.0672 -0.13229,-0.36379 0.52319,-0.43311 0.52241,-0.43645 -0.0696,-0.29656 -0.64142,0.15157 -1.06363,-0.35938 -1.27918,-1.54805 -0.0846,-0.46628 0.10865,-0.82525 0.73511,-1.36585 1.59223,-1.374 2.04238,-1.97221 2.4835,-3.30029 0.62267,-1.87466 0.40358,-3.54501 -0.70484,-5.3739 -0.95905,-1.58242 -1.15837,-2.633 -0.50353,-2.65388 0.21829,-0.007 0.36601,-0.15938 0.32828,-0.33871 -0.0959,-0.4559 0.66402,-0.69553 1.0885,-0.34324 0.19344,0.16054 0.43005,0.21355 0.5258,0.1178 0.0958,-0.0958 0.17409,-2.34233 0.17409,-4.99239 0,-3.94432 -0.0715,-4.87761 -0.39396,-5.14526 -0.21668,-0.17983 -0.33558,-0.42143 -0.26422,-0.53689 0.0714,-0.11546 -0.0788,-0.15518 -0.33364,-0.0883 -0.41145,0.10802 -0.45314,-0.0618 -0.37198,-1.5148 0.065,-1.16424 -0.0113,-1.70157 -0.26458,-1.86208 -0.28583,-0.18115 -0.28773,-0.22641 -0.01,-0.22966 0.19049,-0.002 0.27276,-0.12311 0.18283,-0.26864 -0.24177,-0.39118 0.19829,-0.32121 0.8498,0.13513 0.31387,0.21984 0.61291,0.30914 0.66454,0.19844 0.0821,-0.17603 -0.12761,-8.68298 -0.33434,-13.56273 -0.0925,-2.18359 -0.1465,-2.3156 -1.02601,-2.50878 -0.68553,-0.15056 -0.72445,-0.23627 -0.66964,-1.47448 0.032,-0.72304 -0.0492,-1.38098 -0.18042,-1.46209 -0.36805,-0.22746 0.005,-0.64007 0.57939,-0.64007 0.38423,0 0.51316,-0.18322 0.51199,-0.7276 -0.002,-1.02283 -0.7607,-5.94369 -0.9445,-6.12749 -0.0836,-0.0836 -0.2717,0.062 -0.41806,0.32353 -0.20917,0.37378 -0.3458,0.40934 -0.6387,0.16625 -0.20493,-0.17007 -0.30736,-0.4148 -0.22761,-0.54383 0.0798,-0.12904 -0.10016,-0.23461 -0.39979,-0.23461 -0.69025,0 -0.6837,-0.26532 0.0445,-1.80045 0.86671,-1.82724 0.81475,-4.75083 -0.13823,-7.77793 -0.39864,-1.26628 -0.83771,-2.37212 -0.9757,-2.4574 -0.138,-0.0853 -0.72649,0.0876 -1.30777,0.38411 -1.20848,0.61652 -2.11,0.68538 -2.72887,0.20844 -0.55323,-0.42635 -0.73057,-1.41714 -0.23485,-1.31209 0.24022,0.0509 0.3064,-0.0711 0.19544,-0.36019 -0.12585,-0.32797 -0.0585,-0.39524 0.26955,-0.26935 0.36595,0.14043 0.38273,0.10207 0.1029,-0.23512 -0.22881,-0.2757 -0.24063,-0.40293 -0.0374,-0.40293 0.16334,0 0.26722,-0.13788 0.23084,-0.30639 -0.0364,-0.16851 0.29104,-0.49594 0.7276,-0.72761 0.43656,-0.23166 0.83822,-0.44584 0.89258,-0.47595 0.0544,-0.0301 0.0279,-0.23971 -0.0589,-0.4658 -0.0868,-0.22608 -0.13124,-0.44408 -0.0988,-0.48443 0.21154,-0.2635 -3.41282,-3.24667 -4.77315,-3.92874 -3.19289,-1.60089 -8.63701,-1.65976 -11.62304,-0.12568 -0.69959,0.35942 -1.88931,1.25786 -2.64381,1.99654 -1.0458,1.02387 -1.56457,1.34306 -2.18282,1.34306 -0.98436,0 -1.97414,-0.89346 -1.78615,-1.61233 0.0726,-0.27779 0.0327,-0.44364 -0.0888,-0.36857 -0.12147,0.0751 -0.2935,-0.0924 -0.38228,-0.37211 -0.0888,-0.27974 -0.68136,-0.98787 -1.31684,-1.57363 -1.85047,-1.705704 -5.01493,-2.340544 -7.672033,-1.539134 -0.88567,0.267144 -1.15651,0.538524 -1.80134,1.804924 -0.77971,1.53132 -1.37145,1.923 -2.48353,1.64389 -0.58997,-0.14807 -0.99171,-0.89247 -1.28393,-2.37906 -0.28466,-1.448114 -2.28856,-3.050414 -5.08505,-4.065964 -2.31057,-0.839096 -6.19036,-0.699065 -8.14749,0.29406 -0.72761,0.36921 -1.43063,0.6614 -1.56228,0.64929 -0.13165,-0.0121 -0.27086,0.19257 -0.30934,0.45483 -0.14408,0.98162 -0.89681,1.772134 -1.68746,1.772134 -1.28796,0 -1.68684,-0.649834 -1.52107,-2.477974 0.13676,-1.508301 0.10536,-1.61778 -0.67239,-2.34431 -1.49507,-1.396603 -2.88542,-2.032225 -4.84329,-2.214192 -4.00992,-0.372681 -7.25338,1.496711 -8.18322,4.716482 -0.46714,1.61753 -0.84883,2.08398 -1.22252,1.49399 -0.18128,-0.2862 -0.23183,-0.29013 -0.23501,-0.0183 -0.002,0.19049 -0.12889,0.26918 -0.28148,0.17488 -0.18965,-0.11721 -0.1794,-0.28957 0.0324,-0.54478 0.21306,-0.25673 0.21967,-0.37332 0.0211,-0.37332 -0.15877,0 -0.23302,-0.14883 -0.165,-0.33073 0.068,-0.1819 -0.40891,-0.85304 -1.05986,-1.49143 -0.65095,-0.638393 -1.10866,-1.281868 -1.01715,-1.429947 0.0915,-0.14808 0.0369,-0.189209 -0.12135,-0.0914 -0.16033,0.09909 -0.49659,-0.175702 -0.75938,-0.620578 -0.2594,-0.439128 -0.5434,-0.798417 -0.63111,-0.798417 -0.0877,0 -0.62759,-0.421455 -1.19973,-0.936567 -0.57214,-0.515111 -1.91712,-1.373412 -2.98884,-1.90733 -1.72452,-0.859124 -2.22656,-0.98288 -4.36563,-1.076156 -4.11883,-0.179602 -5.96586,0.66856 -6.94146,3.187541 -0.71147,1.836989 -1.17068,2.335437 -2.08208,2.260007 -1.20629,-0.09983 -1.59557,-0.827981 -1.59557,-2.984531 0,-1.062096 -0.085,-1.878791 -0.18879,-1.814875 -0.23107,0.142242 -1.42484,-1.015323 -1.33256,-1.292151 0.0364,-0.109141 -0.0232,-0.171977 -0.1323,-0.139639 -0.10914,0.03234 -0.73421,-0.255585 -1.38906,-0.639834 -2.15089,-1.2621 -5.60463,-1.774137 -8.71332,-1.291807 -2.39474,0.371554 -3.55904,0.962504 -4.94277,2.508729 -1.01151,1.130287 -2.21891,1.639601 -2.21891,0.935998 0,-0.15411 -0.10557,-0.21495 -0.2346,-0.135205 -0.36415,0.225057 -0.75525,-0.401212 -1.09625,-1.755444 -0.71179,-2.826798 -3.32902,-4.413499 -6.75262,-4.093797 -0.9166502,0.0856 -2.0790902,0.327967 -2.5832002,0.538596 -1.11179,0.46454 -3.00719,2.132663 -3.23353,2.845819 -0.13546,0.42678 -0.34502,0.497448 -1.18798,0.400605 -0.62518,-0.07182 -1.0778,0.0016 -1.163,0.188833 -0.0767,0.168529 -0.11277,0.0088 -0.0801,-0.355041 0.0498,-0.554258 -0.0685,-0.675987 -0.72956,-0.7511 -1.23766996,-0.140623 -2.62263,0.401434 -3.46535,1.356289 -0.82098,0.930225 -0.88258,1.078169 -1.10191,2.646465 -0.10688,0.764289 -0.0152,1.141746 0.38583,1.5875 1.25012,1.389745 0.97922,2.009579 -1.33743,3.059996 -1.93067,0.875411 -3.16919,2.217731 -3.59068,3.891615 -0.685,2.72037 -0.10381,5.43828 1.5398,7.20089 0.96405,1.03386 1.0285,1.1931 0.77599,1.91743 -0.17616,0.50534 -0.50416,0.83703 -0.91039,0.92064 -0.34926,0.0719 -0.90291,0.18561 -1.23033,0.25272 -1.27746,0.26183 -2.7295298,1.49753 -3.3832298,2.87907 -0.51567,1.08984 -0.64625,1.79064 -0.64866,3.4812 -0.003,1.85796 0.0936,2.29104 0.78713,3.54335 0.88013,1.58919 2.0059998,2.43605 3.9087798,2.94012 1.12087,0.29693 1.20814,0.37104 0.79375,0.67405 -0.25607,0.18725 -0.46558,0.44785 -0.46558,0.57911 0,0.13127 -0.22972,0.46828 -0.51048,0.74893 -0.50424,0.50402 -0.50127,0.51189 0.24275,0.64256 0.41428,0.0728 0.80656,0.29257 0.87174,0.48846 0.0959,0.28813 -0.26158,0.32055 -1.87147,0.16969 -1.9532298,-0.18304 -1.9984898,-0.17346 -2.4520598,0.51877 -0.25415,0.38788 -0.51885,1.29594 -0.58822,2.0179 -0.18718,1.948 0.46497,3.38864 2.2081098,4.87785 1.30817,1.1176 1.43684,1.32309 1.37042,2.18858 -0.0692,0.90157 -0.16089,0.9891 -1.63413,1.55975 -1.8566098,0.71915 -2.6949698,1.43481 -3.3542998,2.86338 -0.78692,1.70502 -0.66119,3.70139 0.35982,5.71363 0.70519,1.3898 1.07411,1.80391 2.05053,2.30174 0.6548398,0.33388 1.1559898,0.73544 1.1136598,0.89236 -0.0428,0.15861 0.10407,0.21583 0.33072,0.12886 0.29992,-0.11508 0.4077,0.0177 0.4077,0.50216 0,0.47705 -0.31905,0.8835 -1.15735,1.47438 -3.1037998,2.18776 -3.2297498,6.64445 -0.26553,9.39547 0.49154,0.45619 0.90311,0.99197 0.9146,1.19062 0.0142,0.24494 0.062,0.26012 0.14877,0.0472 0.21025,-0.51628 1.15326,0.4747 1.15326,1.21194 0,0.42122 -0.41073,1.04156 -1.17357,1.77249 -2.1404198,2.05088 -2.8951698,6.48169 -1.7407498,10.21925 0.6330398,2.04954 2.2906498,4.69632 3.2646998,5.21287 0.7109,0.377 0.81432,0.64979 0.7103,1.87352 -0.0838,0.98543 -0.44244,1.50778 -1.15881,1.68758 -1.81182,0.45474 -2.4787598,4.30518 -1.14108,6.58776 1.10721,1.88932 2.06063,2.43129 4.37638,2.48774 1.82262,0.0444 1.97001,0.0927 2.3151,0.75785 0.54734,1.055 0.4645,1.38871 -0.59214,2.38525 -0.91836,0.86613 -0.95264,0.96154 -0.77767,2.16504 0.10067,0.69245 0.20131,1.45885 0.22365,1.70311 0.0223,0.24427 0.1067,0.42286 0.18747,0.39688 0.0808,-0.026 0.43988,0.22529 0.79804,0.5584 0.94351,0.87753 3.20557004,1.46789 4.85687,1.26755 l 1.36088,-0.1651 1.32292,1.50009 c 1.42524,1.61611 2.30959,2.11752 3.96875,2.2502 1.0117602,0.0809 1.0549802,0.0529 0.9821702,-0.63636 -0.0419,-0.39655 0.0555,-0.72099 0.21646,-0.72099 0.16093,0 0.0384,-0.35708 -0.27242,-0.79351 l -0.5650302,-0.79351 0.7454502,-0.28408 c 0.41,-0.15624 1.07287,-0.21885 1.47306,-0.13914 0.591,0.11772 0.7276,0.0498 0.7276,-0.36201 0,-0.82856 0.45247,-0.8555 0.61623,-0.0367 0.1322,0.66101 0.30202,0.78004 1.3335,0.93472 1.37938,0.20685 1.53985,0.36927 2.11838,2.14407 0.59362,1.82111 1.67541,3.04213 3.51162,3.96361 1.44113,0.7232 1.75938,0.7775 4.59387,0.78377 2.92701,0.006 3.11577,-0.0278 4.85241,-0.88143 1.39268,-0.68456 1.97492,-1.15307 2.5397,-2.04364 0.40303,-0.63551 0.80905,-1.07919 0.90228,-0.98596 0.0932,0.0932 0.16951,0.0372 0.16951,-0.12449 0,-0.1685 0.66951,0.0103 1.56836,0.41892 1.48528,0.67516 1.59838,0.79414 2.13523,2.24622 1.13886,3.0804 3.23215,4.5125 6.61516,4.52567 1.60132,0.006 2.27805,-0.12809 3.50573,-0.69588 l 1.52135,-0.7036 v -1.57283 c 0,-2.09953 0.58539,-2.82928 2.18281,-2.72113 0.25467,0.0172 0.43326,0.18018 0.39688,0.36208 -0.0364,0.1819 0.0791,0.30215 0.25668,0.26721 0.45802,-0.0901 0.76862,0.63552 0.97924,2.2877 0.10029,0.78675 0.35743,1.76901 0.57141,2.18282 0.21399,0.4138 0.32635,0.75237 0.24968,0.75237 -0.41038,0 2.17656,2.16564 3.14965,2.6367 2.96574,1.4357 7.47916,1.65608 11.07129,0.5406 2.11658,-0.65727 3.70836,-1.5382 3.54564,-1.96225 -0.0639,-0.16642 -0.25829,-0.98744 -0.43206,-1.82447 -0.30239,-1.45659 -0.28953,-1.54513 0.29965,-2.06389 0.33857,-0.2981 0.46676,-0.46637 0.28486,-0.37394 -0.1819,0.0924 -0.33073,0.0547 -0.33073,-0.0838 0,-0.29366 0.63559,-0.57309 1.30355,-0.57309 0.57297,0 1.21956,0.70374 1.45861,1.5875 0.47528,1.75714 1.02466,2.60091 2.00343,3.07699 0.55421,0.26957 0.96011,0.56705 0.90201,0.66107 -0.0581,0.094 0.085,0.15463 0.3179,0.13468 0.51674,-0.0443 0.79457,0.40749 1.16665,1.89695 0.15782,0.63174 0.69844,1.59748 1.21328,2.16735 1.347,1.49097 2.85346,1.98484 6.05436,1.98484 3.38141,0 4.89804,-0.52257 5.83798,-2.01154 0.35802,-0.56714 0.79897,-1.03117 0.97988,-1.03117 0.18091,0 0.95095,0.38695 1.7112,0.8599 1.04512,0.65015 1.48691,1.12837 1.81129,1.96062 0.52742,1.35317 1.57582,2.39071 2.92513,2.89483 1.540693,0.57562 4.724703,0.32665 6.558333,-0.51281 z M 59.665487,190.03132 c -1.0914,-0.33777 -3.20917,-1.05991 -4.70614,-1.60475 -4.27923,-1.55747 -6.01242,-1.84321 -9.58136,-1.57964 -1.67349,0.12358 -4.29286,0.21619 -5.82083,0.20579 -2.39403,-0.0163 -2.97932,-0.11197 -4.23333,-0.69194 -2.61146,-1.20777 -4.42344,-3.6645 -5.03734,-6.82977 -0.36512,-1.88254 -0.34812,-7.72061 0.0278,-9.55472 0.83997,-4.09803 2.30699,-7.63166 3.99062,-9.61223 2.1654,-2.54733 3.64908,-3.80702 5.54606,-4.70879 2.9553,-1.40487 4.33155,-1.65773 8.9666,-1.64749 3.86649,0.009 6.46973,0.38196 8.20102,1.17639 3.92282,1.80003 7.36419,3.959 7.21095,4.52385 -0.0364,0.1341 0.0545,0.24382 0.20185,0.24382 0.74614,0 4.35888,4.07521 4.05239,4.57113 -0.0941,0.15226 -0.0408,0.19399 0.12054,0.0943 0.64217,-0.39688 3.60839,6.02154 4.46494,9.66143 0.61404,2.60935 0.60914,6.73277 -0.0105,8.82418 -1.42224,4.80044 -4.47311,7.28477 -9.15995,7.45898 -1.77707,0.066 -2.66534,-0.0453 -4.23334,-0.53054 z m 5.73646,-4.75963 c 0.34255,-0.2117 0.6286,-1.50735 0.33279,-1.50735 -0.11406,0 -0.35073,-0.44649 -0.52593,-0.99219 -0.1752,-0.5457 -0.48235,-1.18044 -0.68255,-1.41053 -0.2002,-0.23009 -0.28437,-0.49798 -0.18704,-0.59531 0.0973,-0.0973 0.0478,-0.17697 -0.11013,-0.17697 -0.15791,0 -0.55464,-0.44649 -0.88162,-0.99219 -1.01745,-1.69803 -3.57457,-3.89421 -5.88566,-5.05489 -2.77158,-1.39195 -4.46678,-1.77095 -7.60857,-1.70106 -2.42355,0.0539 -3.87199,0.42775 -6.8565,1.76962 -1.11599,0.50177 -2.77431,1.6419 -3.40425,2.3405 -0.22964,0.25466 -0.50471,0.46302 -0.61127,0.46302 -0.25426,0 -1.57307,1.32025 -1.33026,1.33172 0.10252,0.005 -0.0517,0.21735 -0.34276,0.47225 -0.29104,0.25489 -0.55011,0.57835 -0.57571,0.7188 -0.0256,0.14044 -0.12454,0.45567 -0.21988,0.70049 -0.12664,0.32521 0.0626,0.56717 0.70258,0.89809 0.80418,0.41586 1.21581,0.42477 5.02583,0.10883 6.00776,-0.49819 10.23427,-0.13323 12.72453,1.09878 0.25269,0.12501 0.69214,0.22729 0.97657,0.22729 0.28443,0 0.58168,0.10442 0.66055,0.23204 0.0789,0.12762 0.68121,0.36746 1.33853,0.53298 0.65732,0.16551 1.19513,0.41522 1.19513,0.55491 0,0.31285 1.52816,1.12922 1.79968,0.96141 0.10815,-0.0668 0.8488,-0.0407 1.64588,0.0581 1.71181,0.21218 2.43054,0.20241 2.82006,-0.0383 z m 3.25937,-6.6872 c 0,-2.47405 -1.97834,-8.32989 -3.67937,-10.89084 -1.55379,-2.33928 -5.2137,-5.88973 -6.07131,-5.88973 -0.16692,0 -0.51279,-0.2093 -0.7686,-0.46511 -0.25581,-0.25582 -0.88089,-0.60221 -1.38906,-0.76976 -1.46856,-0.48421 -2.74327,-0.93811 -3.1729,-1.12979 -0.71018,-0.31686 -6.52487,-0.33678 -8.11162,-0.0278 -2.34387,0.45642 -4.89508,1.67026 -6.19397,2.94703 -1.01783,1.0005 -3.15691,4.63647 -3.15691,5.36606 0,0.19144 -0.17593,0.70073 -0.39095,1.13175 -0.7345,1.47232 -0.85777,7.44428 -0.14837,7.18777 0.23943,-0.0866 1.31563,-0.94895 3.2282,-2.58681 0.58725,-0.50291 1.24488,-0.94038 1.4614,-0.97216 0.21652,-0.0318 0.82979,-0.35206 1.36284,-0.71173 0.53304,-0.35968 1.38589,-0.78137 1.89521,-0.9371 0.50932,-0.15572 1.6933,-0.5253 2.63106,-0.82128 2.55074,-0.80508 8.1017,-0.67589 10.46581,0.24358 1.07951,0.41984 2.12816,0.87347 2.51355,1.08731 0.21828,0.12112 0.83561,0.45855 1.37184,0.74986 1.94039,1.05412 3.31458,2.42813 6.57739,6.57651 0.60139,0.76461 1.20196,1.32314 1.3346,1.24116 0.13264,-0.082 0.24116,-0.67999 0.24116,-1.32892 z m 28.97188,6.94504 c -2.5017,-0.98087 -4.26455,-2.75132 -5.58486,-5.60897 -1.12516,-2.43526 -1.611,-4.51932 -2.08399,-8.9395 -0.31353,-2.92998 -0.85701,-7.17285 -1.2772,-9.97089 -0.0546,-0.3638 -0.23606,-0.99413 -0.40318,-1.40073 -0.16711,-0.4066 -0.37922,-1.06144 -0.47136,-1.45521 -0.32857,-1.40423 -1.77642,-4.42895 -2.74596,-5.73661 -1.38191,-1.86386 -3.32124,-3.60679 -5.73723,-5.15623 -1.13803,-0.72984 -2.20528,-1.44013 -2.37167,-1.57841 -0.1664,-0.13828 -0.3561,-0.19786 -0.42156,-0.1324 -0.23374,0.23374 -1.50668,-1.17687 -1.67801,-1.85949 -0.20218,-0.80555 0.4473,-2.6886 0.89468,-2.59399 0.16377,0.0346 0.23647,-0.0967 0.16157,-0.29191 -0.21154,-0.55127 4.09246,-4.34459 4.48457,-3.95248 0.0927,0.0927 0.16857,0.0219 0.16857,-0.15732 0,-0.47243 3.6615,-2.09133 6.15769,-2.72256 2.66229,-0.67324 7.44406,-0.59871 8.84958,0.13792 1.34651,0.70572 1.77634,1.87594 0.98113,2.67115 -0.41926,0.41926 -1.04328,0.58552 -0.81574,0.21734 0.14266,-0.23083 -0.5707,-0.28855 -4.19245,-0.3392 -3.03714,-0.0425 -5.8288,0.57443 -8.53281,1.88561 -1.64968,0.79993 -1.96762,1.23707 -1.3017,1.78973 0.2631,0.21836 1.12159,0.0656 3.40092,-0.60509 5.60029,-1.64792 9.72904,-1.84991 13.56908,-0.66384 2.748323,0.84886 4.301273,2.60729 3.621073,4.10017 -0.54833,1.20346 -1.40069,1.34609 -3.413583,0.57121 -0.9827,-0.3783 -2.32251,-0.82975 -2.97735,-1.00322 -2.21634,-0.58713 -9.01225,-0.37046 -8.30269,0.26471 0.12809,0.11467 1.26537,0.57156 2.52729,1.01533 3.83847,1.34982 9.57459,3.76416 10.233283,4.3072 0.8826,0.72763 0.90949,2.29922 0.0491,2.87048 -0.34504,0.2291 -0.756133,0.4301 -0.913533,0.44668 -0.1574,0.0166 -0.51299,0.0483 -0.79021,0.0705 -0.47136,0.0377 -0.47565,0.0717 -0.0661,0.52415 0.24084,0.26612 0.43789,0.55967 0.43789,0.65234 0,0.0927 0.32742,0.51409 0.7276,0.9365 1.387893,1.46499 2.182813,2.48121 2.182813,2.7905 0,0.17098 0.23813,0.51476 0.52917,0.76396 0.29104,0.2492 0.52917,0.61439 0.52917,0.81154 0,0.19715 0.23812,0.57396 0.52916,0.83735 0.29104,0.26339 0.52917,0.62891 0.52917,0.81228 0,0.18336 0.24751,0.6114 0.55003,0.95118 1.03055,1.1575 3.00292,6.41474 3.70604,9.8782 0.47207,2.32536 0.41648,6.84243 -0.10607,8.61921 -0.86423,2.93856 -2.96587,5.31292 -5.49137,6.20397 -1.30332,0.45984 -4.014983,0.48035 -5.140923,0.0389 z m 4.479043,-2.9525 c 0.57171,-0.20369 1.14457,-0.55815 1.27304,-0.7877 0.12846,-0.22956 0.37508,-0.33625 0.54803,-0.2371 0.17296,0.0992 0.22492,0.0816 0.11546,-0.0391 -0.10946,-0.12067 -0.0211,-0.41595 0.19627,-0.65618 0.21741,-0.24024 0.63439,-1.13174 0.92662,-1.98112 0.82603,-2.4009 0.73275,-5.67946 -0.26242,-9.2236 -0.43656,-1.55473 -0.79375,-3.00413 -0.79375,-3.22088 0,-0.21675 -0.0955,-0.39409 -0.21232,-0.39409 -0.20929,0 -1.24172,-2.52827 -1.24249,-3.04271 -2.2e-4,-0.14552 -0.21676,-0.42577 -0.48119,-0.62276 -0.26444,-0.19701 -0.41463,-0.53061 -0.33376,-0.74135 0.0809,-0.21074 0.0489,-0.32255 -0.0709,-0.24847 -0.11987,0.0741 -0.41543,-0.24715 -0.6568,-0.71386 -0.6192,-1.19731 -0.9955,-1.75114 -1.854423,-2.72928 -0.41298,-0.47029 -0.77016,-0.94195 -0.79375,-1.04813 -0.0342,-0.15407 -3.34603,-3.46781 -4.76392,-4.7667 -0.17244,-0.15797 -1.14528,-0.80283 -2.16187,-1.43302 -1.01659,-0.6302 -2.05406,-1.39392 -2.30549,-1.69716 -0.25142,-0.30324 -0.46161,-0.43229 -0.46707,-0.28677 -0.005,0.14552 -0.12535,0.086 -0.26642,-0.13229 -0.17461,-0.27019 -0.25777,-0.29017 -0.26053,-0.0626 -0.003,0.25986 -0.20894,0.24867 -0.92431,-0.0502 -0.50615,-0.21148 -0.97174,-0.30122 -1.03466,-0.19942 -0.0629,0.1018 0.46972,1.05524 1.18364,2.11876 1.23223,1.83564 1.84008,3.16108 3.11498,6.79245 0.9374,2.67006 1.61018,6.29739 2.28192,12.30312 0.36311,3.24637 0.65538,5.01097 1.32279,7.98647 0.13545,0.60384 0.65033,1.57457 1.12297,2.11717 0.2186,0.25096 0.30097,0.59842 0.18816,0.79375 -0.11034,0.19107 -0.11116,0.26711 -0.002,0.16896 0.10934,-0.0981 0.59734,0.23195 1.08443,0.73352 1.57846,1.62538 3.409,2.05584 5.529613,1.30032 z M 3.6145068,169.60084 c -3.55950996,-1.54566 -5.35033,-5.54003 -4.77786,-10.65687 0.35515004,-3.1744 2.26483,-8.73643 3.20698,-9.34046 0.13886,-0.089 0.25842,-0.26763 0.26569,-0.39687 0.0295,-0.52472 0.56308,-1.3998 0.77403,-1.26943 0.12424,0.0768 0.22589,-0.0998 0.22589,-0.39235 0,-0.29945 0.7806,-1.33252 1.78594,-2.36357 4.15358,-4.25981 5.3578102,-5.5427 5.3578102,-5.70778 0,-0.0962 -0.5060102,-0.15637 -1.1244702,-0.1338 -2.74431,0.10016 -3.41757,-0.005 -3.56136,-0.55454 -0.0761,-0.29104 -0.24356,-0.52916 -0.37211,-0.52916 -0.12854,0 -0.23372,-0.35719 -0.23372,-0.79375 0,-0.43656 0.10518,-0.79375 0.23372,-0.79375 0.12855,0 0.29642,-0.23972 0.37303,-0.53271 0.2851,-1.09022 3.52371,-1.86051 10.9026202,-2.59316 4.74564,-0.47119 4.75994,-0.47455 4.03981,-0.94967 -0.39748,-0.26224 -1.64764,-0.77538 -2.77813,-1.1403 -1.70039,-0.5489 -2.75371,-0.68689 -6.098,-0.79892 -3.7248302,-0.12477 -4.0731602,-0.17909 -4.4317702,-0.69107 -0.54467,-0.77762 -0.47102,-1.50529 0.24033,-2.37467 1.13772,-1.39046 4.6193202,-1.63493 8.6631102,-0.6083 2.38807,0.60628 6.09101,2.13495 6.27368,2.58995 0.0485,0.12083 0.23041,0.21968 0.40422,0.21968 0.17381,0 0.51991,0.23813 0.76911,0.52917 0.2492,0.29104 0.62293,0.52917 0.8305,0.52917 0.20758,0 0.42413,0.14014 0.48123,0.31142 0.0571,0.17129 0.2385,0.22819 0.40312,0.12645 0.21531,-0.13307 0.22226,-0.40602 0.0248,-0.97258 -0.151,-0.43317 -0.35688,-0.7367 -0.4575,-0.67451 -0.10062,0.0622 -0.68951,-0.35468 -1.30864,-0.92636 -0.61914,-0.57168 -1.27667,-1.03942 -1.46118,-1.03942 -0.18452,0 -0.5663,-0.2114 -0.8484,-0.46978 -0.28211,-0.25838 -1.01893,-0.63463 -1.63739,-0.8361 -0.61847,-0.20148 -1.12448,-0.47381 -1.12448,-0.60519 0,-0.13138 -0.20836,-0.2085 -0.46302,-0.17138 -0.72347,0.10544 -3.07242,-0.31834 -3.43959,-0.62055 -0.48365,-0.39808 -0.40375,-1.38224 0.15313,-1.88621 1.07187,-0.97003 4.23557,-0.36566 7.85052,1.4997 4.19101,2.16261 8.80806,7.82426 9.29847,11.40224 0.22524,1.64327 -0.47172,2.34011 -2.96249,2.962 -5.8156,1.45203 -8.33069,4.12928 -11.34595,12.07753 -0.37321,0.98379 -0.67857,2.01856 -0.67857,2.29949 0,0.28092 -0.11907,0.58435 -0.26459,0.67429 -0.14552,0.0899 -0.27075,0.48391 -0.27829,0.87551 -0.008,0.39159 -0.30857,1.78355 -0.66895,3.09324 -0.36039,1.30968 -0.81307,2.97656 -1.00596,3.70416 -0.66492,2.50811 -2.62728,5.68854 -3.50989,5.68854 -0.21393,0 -0.32608,0.10176 -0.24922,0.22613 0.21054,0.34066 -0.88558,1.26099 -2.2251902,1.86831 -1.42185,0.6446 -3.94167,0.71478 -5.25098,0.14623 z m 4.77429,-3.20179 c 0.39266,-0.19868 1.03098,-0.77692 1.41849,-1.28498 0.3875202,-0.50806 0.7905502,-0.87061 0.8956302,-0.80567 0.10507,0.0649 0.19105,-0.041 0.19105,-0.23533 0,-0.19438 0.24711,-0.87913 0.54914,-1.52167 0.65386,-1.39103 1.57043,-4.12482 1.80861,-5.39443 0.0938,-0.50011 0.26441,-0.9093 0.37908,-0.9093 0.11467,0 0.26469,-0.50601 0.33336,-1.12448 0.0687,-0.61846 0.21041,-1.42213 0.31494,-1.78593 0.10455,-0.3638 0.21667,-0.86739 0.24917,-1.11909 0.0325,-0.2517 0.14088,-0.53943 0.24086,-0.63941 0.1,-0.1 0.18178,-0.43254 0.18178,-0.73903 0,-0.79734 1.46424,-4.50073 2.51698,-6.36601 0.89153,-1.57963 1.37025,-2.20553 3.24612,-4.24409 0.54108,-0.588 1.21826,-1.34063 1.50486,-1.6725 l 0.5211,-0.60341 -1.05026,0.10452 c -1.82153,0.18127 -4.94599,1.31014 -7.00338,2.53033 -2.06038,1.22197 -4.37743,2.99676 -4.9759402,3.81143 -0.37711,0.51329 -0.99414,0.66154 -0.68734,0.16513 0.11991,-0.19402 0.0722,-0.23344 -0.13064,-0.10805 -0.17569,0.10858 -0.27299,0.33534 -0.21622,0.5039 0.0568,0.16857 -0.51097,1.08039 -1.26162,2.02628 -1.31743,1.66008 -4.36991,6.80439 -4.36991,7.36457 0,0.15064 -0.13736,0.60907 -0.30524,1.01872 -0.16788,0.40966 -0.33449,0.88378 -0.37024,1.0536 -0.0357,0.16982 -0.19605,0.91982 -0.35622,1.66666 -0.88647,4.13348 0.44409,8.16274 2.88378,8.73284 1.08608,0.25379 2.48827,0.0833 3.49206,-0.4246 z m 78.5287702,-44.5674 c -3.37237,-0.5104 -9.525,-2.56419 -9.525,-3.1795 0,-0.13194 -0.0893,-0.2146 -0.19843,-0.18368 -0.55818,0.15811 -5.21304,-3.35248 -4.96893,-3.74746 0.0747,-0.12079 -0.16848,-0.41895 -0.5403,-0.66257 -1.1665,-0.76433 -2.759,-3.50975 -2.759,-4.75645 0,-2.00226 1.51207,-3.12594 3.14329,-2.33592 0.74819,0.36236 2.30276,2.00269 2.38385,2.51536 0.0172,0.10851 0.73428,0.84364 1.59358,1.63362 0.85931,0.78998 1.49383,1.50487 1.41006,1.58865 -0.0838,0.0838 -0.0134,0.16719 0.15637,0.18538 0.57905,0.062 0.70587,0.11318 1.36701,0.55125 2.63141,1.74357 6.51687,2.90266 11.77175,3.5117 1.96418,0.22765 3.8581,0.52298 4.20871,0.65628 1.78726,0.67951 2.37939,2.91365 1.04949,3.95975 -0.63041,0.49588 -1.02929,0.54528 -4.16719,0.5161 -1.90853,-0.0177 -4.12489,-0.13137 -4.92526,-0.25251 z m -71.70208,-10.04541 c -2.7436,-0.32938 -5.4760302,-1.03993 -6.2054402,-1.61368 -0.98862,-0.77766 -0.92589,-2.11497 0.14848,-3.16519 l 0.8222,-0.80373 3.4772802,0.21733 c 4.55305,0.28457 7.62054,0.23217 9.49767,-0.16223 1.95935,-0.41167 4.52055,-1.45336 5.96526,-2.42619 0.62576,-0.42137 1.24665,-0.76612 1.37976,-0.76612 0.1331,0 0.36945,-0.23813 0.52521,-0.52917 0.15576,-0.29104 0.46463,-0.52917 0.68638,-0.52917 0.22175,0 0.33329,-0.11309 0.24787,-0.25131 -0.18023,-0.29161 0.766,-0.87065 1.01534,-0.62132 0.0919,0.0919 0.16708,0.0282 0.16708,-0.1416 0,-0.51462 1.14407,-0.34363 1.92662,0.28794 0.47384,0.38242 0.79221,0.94585 0.89381,1.58182 0.18105,1.13336 -0.3151,2.58406 -0.88377,2.58406 -0.20922,0 -0.31372,0.10787 -0.23223,0.23973 0.16425,0.26576 -2.26718,2.4061 -2.73334,2.4061 -0.16171,0 -0.29401,0.11679 -0.29401,0.25954 0,0.14275 -0.29766,0.33425 -0.66146,0.42556 -0.3638,0.0913 -0.66146,0.25591 -0.66146,0.36578 0,0.24116 -2.53552,1.37565 -4.36562,1.95335 -2.91228,0.9193 -6.74304,1.16543 -10.71563,0.6885 z M 133.86798,214.33769 c 1.31691,-0.50163 4.53751,-1.71045 7.15688,-2.68626 2.61938,-0.97581 6.01266,-2.24206 7.54063,-2.81389 1.52797,-0.57184 3.55203,-1.31715 4.49791,-1.65624 2.6356,-0.94486 8.56981,-3.22447 10.03796,-3.85605 1.06413,-0.45777 1.5107,-0.87143 2.3656,-2.19125 3.12692,-4.82743 6.69025,-15.31053 8.46729,-24.91029 2.83058,-15.29106 3.93041,-39.31708 2.51925,-55.03333 -0.20907,-2.32833 -0.50054,-5.66208 -0.64772,-7.40833 -0.6863,-8.14292 -3.4872,-18.620316 -6.22794,-23.297038 -0.3512,-0.599287 -0.55938,-1.168789 -0.46261,-1.26556 0.0968,-0.09677 0.0571,-0.175946 -0.0882,-0.175946 -0.14527,0 -0.66537,-0.625078 -1.1558,-1.389062 -0.49042,-0.763984 -1.55227,-2.133137 -2.35966,-3.04256 -1.36592,-1.538531 -1.54617,-1.653511 -2.59247,-1.653646 -0.61846,-8.2e-5 -1.12448,0.06425 -1.12448,0.142965 0,0.07871 0.25287,0.925835 0.56194,1.882495 0.49157,1.521584 0.52112,1.875612 0.23596,2.827371 -0.63375,2.115281 -2.20512,3.900459 -5.16352,5.866088 -1.75388,1.165317 -5.3713,2.838458 -5.69901,2.635922 -0.11491,-0.07102 -0.24967,-0.0069 -0.29949,0.142578 -0.19062,0.571869 -10.55813,3.776333 -15.37709,4.752863 -0.55147,0.11175 -1.06485,0.26536 -1.14084,0.34135 -0.076,0.076 0.40503,1.14278 1.06893,2.37066 0.6639,1.22787 1.12766,2.31191 1.03059,2.40898 -0.0971,0.0971 -0.0177,0.1765 0.17628,0.1765 0.19403,0 0.27315,0.0796 0.17582,0.17697 -0.0973,0.0973 -0.01,0.36522 0.19447,0.59531 0.2043,0.23009 0.79451,1.76053 1.31159,3.40098 4.44074,14.08854 6.16967,39.83663 3.99252,59.45903 -0.56365,5.0802 -1.8866,14.62942 -2.38259,17.19791 -2.04511,10.59066 -4.99748,19.65981 -8.63477,26.52448 -0.4048,0.76399 -0.65406,1.38906 -0.55393,1.38906 0.10014,0 1.25955,-0.41043 2.57647,-0.91206 z m 37.18709,-13.55368 c 0.80036,-0.38624 1.52466,-0.68934 1.60955,-0.67358 0.21759,0.0404 0.30404,-0.63379 0.3037,-2.36844 l -2.7e-4,-1.50048 1.53955,-0.57575 c 4.17296,-1.56058 5.42154,-5.16159 3.30846,-9.54181 -0.80112,-1.66064 -0.67544,-1.90368 1.27817,-2.47161 2.09382,-0.60868 3.18054,-1.58748 3.84137,-3.45988 0.66912,-1.8959 0.69322,-2.74553 0.13152,-4.637 -0.29806,-1.00368 -0.72886,-1.70496 -1.45521,-2.36891 -0.56753,-0.51874 -1.03184,-1.13662 -1.03184,-1.37306 0,-0.23643 0.72298,-1.08873 1.60662,-1.89398 2.67295,-2.43585 3.36625,-4.66222 1.89175,-6.07489 l -0.73496,-0.70414 -0.89102,0.54186 c -0.63352,0.38527 -0.94537,0.45388 -1.07914,0.23744 -0.10348,-0.16743 -0.40927,-0.2655 -0.67954,-0.21794 -0.754,0.13266 -0.81099,-0.79045 -0.0672,-1.08865 0.33823,-0.13561 0.5226,-0.2541 0.40973,-0.26333 -0.11288,-0.009 -0.0197,-0.37556 0.20707,-0.81409 0.29653,-0.57341 0.3642,-1.16004 0.24097,-2.08896 l -0.17134,-1.29165 0.8903,-0.21797 c 0.48967,-0.11989 1.00937,-0.22165 1.15489,-0.22614 0.60614,-0.0187 2.50923,-2.1326 3.06325,-3.40256 0.84532,-1.93767 0.85038,-5.07003 0.0113,-6.96447 -0.75029,-1.69392 -1.50321,-2.41686 -2.9673,-2.84915 -1.66746,-0.49234 -1.80305,-0.89898 -0.79048,-2.3707 0.77332,-1.12398 0.83706,-1.36501 0.69262,-2.61918 -0.0875,-0.7597 -0.0462,-1.55052 0.0917,-1.75737 0.13795,-0.20686 0.76323,-0.44498 1.38952,-0.52917 1.06499,-0.14316 1.18645,-0.24726 1.87642,-1.60828 1.77629,-3.50386 1.44395,-7.57762 -0.88835,-10.8892 -0.34293,-0.48693 -0.65604,-0.66062 -1.01953,-0.56557 -0.79895,0.20893 -1.80517,-0.13198 -1.91876,-0.65009 -0.1103,-0.50306 0.30153,-1.65347 0.59191,-1.65347 0.19538,0 0.79375,-1.19805 0.79375,-1.58924 0,-0.13279 -0.31352,-0.53213 -0.69671,-0.88745 -1.21308,-1.12483 -0.50334,-2.27035 1.414,-2.2822 2.37489,-0.0147 3.38416,-5.84285 1.63686,-9.4523 -0.78124,-1.61381 -2.34643,-3.15036 -3.45169,-3.38853 -1.62316,-0.34976 -2.34205,-0.86563 -2.34205,-1.68065 0,-0.96005 0.64542,-1.52761 2.29387,-2.01715 0.72793,-0.21617 1.50728,-0.602584 1.73188,-0.858704 1.85236,-2.11225 1.67058,-5.68501 -0.40853,-8.029136 -0.75061,-0.846283 -1.99651,-1.298803 -3.59055,-1.304108 -1.61995,-0.0054 -2.00105,-0.270351 -1.76137,-1.224576 0.59371,-2.363732 0.54094,-2.634337 -0.76022,-3.898926 -0.72834,-0.707861 -1.80334,-1.406708 -2.65273,-1.724504 -1.72588,-0.645734 -6.22943,-1.064842 -6.22943,-0.579721 0,0.174385 0.49609,1.047594 1.10243,1.940465 0.60634,0.892871 1.10243,1.779307 1.10243,1.969857 0,0.190551 0.0975,0.346456 0.21668,0.346456 0.52713,0 3.83547,7.710379 3.52435,8.213796 -0.086,0.139078 -0.0441,0.25287 0.0931,0.25287 0.28218,0 0.25782,-0.0774 1.49874,4.762501 2.22456,8.6763 3.31157,20.23583 3.30867,35.18507 -0.004,22.63703 -1.73667,38.56489 -5.61171,51.59826 -1.5416,5.18503 -2.74072,8.1444 -5.70883,14.08906 -0.19287,0.3863 0.62478,0.18444 2.06169,-0.50897 z M 112.18528,98.574576 c 0.58208,-0.12951 1.53458,-0.37855 2.11667,-0.55343 0.71113,-0.21366 3.79251,-0.33288 9.39271,-0.36344 6.75754,-0.0369 8.75986,-0.13279 10.58333,-0.50694 1.23693,-0.2538 2.9038,-0.55704 3.70416,-0.673863 0.80037,-0.116821 1.79038,-0.348845 2.20004,-0.515609 0.40966,-0.166762 1.07045,-0.303205 1.46844,-0.303205 0.39798,0 0.83672,-0.106772 0.97496,-0.23727 0.13825,-0.130498 1.20386,-0.480922 2.36802,-0.778722 1.16417,-0.297796 2.80467,-0.84587 3.64557,-1.217937 0.84089,-0.372068 1.66284,-0.676487 1.82655,-0.676487 0.60448,0 6.07017,-2.674559 7.20084,-3.523631 0.45144,-0.339 1.01263,-0.686821 1.2471,-0.772932 1.17277,-0.430718 0.243,-3.264458 -1.239,-3.776184 -1.48406,-0.512442 -1.84582,-0.826481 -1.47155,-1.277442 0.44316,-0.533985 0.1312,-1.070999 -1.40802,-2.423769 -0.66231,-0.582083 -1.96923,-1.802474 -2.90427,-2.711979 -0.93504,-0.909505 -1.87259,-1.653646 -2.08344,-1.653646 -0.21085,0 -0.54015,-0.188917 -0.73178,-0.419817 -0.23795,-0.286713 -0.60474,-0.374684 -1.15687,-0.277468 -3.49344,0.615108 -3.97908,0.65592 -4.33088,0.363955 -0.30455,-0.252751 -0.28402,-0.335208 0.12333,-0.495509 0.26877,-0.105767 0.98011,-0.20067 1.58076,-0.210896 0.60064,-0.01024 1.211,-0.167426 1.35636,-0.349327 0.31005,-0.388009 0.0156,-1.374256 -0.42459,-1.422135 -0.16724,-0.0182 -0.41511,-0.04796 -0.55082,-0.06615 -0.13571,-0.0182 -0.32233,-0.271198 -0.4147,-0.56224 -0.0924,-0.291041 -0.38348,-0.529166 -0.64689,-0.529166 -0.26342,0 -0.62716,-0.178594 -0.80832,-0.396875 -0.18116,-0.218282 -0.44345,-0.396875 -0.58287,-0.396875 -0.13943,0 -0.88131,-0.416719 -1.64864,-0.926042 -0.76732,-0.509323 -1.53639,-0.926042 -1.70902,-0.926042 -0.17264,0 -0.81516,-0.25573 -1.42783,-0.568288 -0.61266,-0.31256 -1.11393,-0.542316 -1.11393,-0.510569 0,0.12328 -1.62775,-0.53513 -2.38125,-0.963194 -0.45254,-0.257088 -1.64208,-0.512215 -2.76718,-0.5935 -1.82258,-0.131675 -1.98503,-0.192003 -2.1251,-0.789218 -0.18606,-0.793263 -1.65006,-1.563957 -5.69106,-2.995935 -3.84518,-1.362591 -5.70032,-1.898131 -7.9375,-2.291395 -1.01864,-0.179062 -2.03067,-0.395171 -2.24895,-0.480237 -0.21829,-0.08507 -0.45641,-0.175236 -0.52917,-0.200371 -0.0728,-0.02514 -0.37042,-0.154483 -0.66146,-0.287436 -0.4862,-0.222104 -3.59559,-0.258654 -5.15486,-0.06059 -0.44328,0.05631 -0.65842,-0.04564 -0.66146,-0.313428 -0.003,-0.263845 -0.49228,-0.506386 -1.45972,-0.723588 -0.80036,-0.179691 -2.05052,-0.466642 -2.77813,-0.637666 -2.00918,-0.472263 -4.824343,-0.407337 -6.349993,0.146452 -2.05625,0.746387 -3.14407,1.305665 -3.52074,1.810115 -0.19015,0.254661 -0.4758,0.463021 -0.63477,0.463021 -0.36069,0 -3.08352,2.854211 -3.40746,3.571874 -0.13137,0.291042 -0.83579,1.362604 -1.56537,2.38125 -0.72957,1.018646 -1.39926,2.090208 -1.48819,2.38125 -0.0889,0.291042 -0.31426,0.70776 -0.50073,0.926042 -0.4181,0.489431 -1.91595,4.932608 -2.14435,6.360945 -0.0921,0.576064 -0.24156,1.047975 -0.33211,1.048695 -0.0905,7.93e-4 -0.18797,0.506732 -0.2165,1.124479 -0.0285,0.617744 -0.18834,3.372559 -0.35512,6.121812 -0.16678,2.749251 -0.23017,5.487689 -0.14087,6.085417 l 0.16236,1.086776 2.56726,-0.0857 c 2.22543,-0.07429 2.86494,0.01114 4.80313,0.641625 1.22973,0.400026 2.43331,0.914839 2.67463,1.144029 0.24131,0.22919 0.60743,0.456396 0.81358,0.504902 0.20616,0.04851 0.78163,0.494993 1.27882,0.992187 1.01756,1.017561 1.38522,1.081276 2.80832,0.486664 0.54935,-0.229534 1.66522,-0.529206 2.47971,-0.66594 1.456943,-0.244586 3.473593,-0.100166 3.426603,0.24539 -0.0653,0.480365 0.0832,0.568092 0.54412,0.321408 0.36776,-0.196821 0.71011,-0.163761 1.25677,0.121351 0.41323,0.215525 0.93854,0.392594 1.16736,0.393491 0.64035,0.0024 3.41225,1.583233 3.76401,2.146493 0.34684,0.55538 0.62422,0.58637 2.16995,0.24246 z M 79.191737,92.16559 c 0.19528,-0.195276 0.3175,-1.152007 0.3175,-2.485282 0,-5.824307 1.73966,-15.994532 3.00027,-17.53985 0.16448,-0.201623 0.30423,-0.499279 0.31056,-0.661458 0.0346,-0.887079 0.46908,-1.999078 0.72033,-1.843797 0.16483,0.101873 0.20731,0.05151 0.10128,-0.120062 -0.21767,-0.35219 0.92421,-2.70138 1.576,-3.242318 0.25194,-0.209084 0.59631,-0.70894 0.76527,-1.11079 0.39225,-0.932894 3.29318,-4.209613 3.57347,-4.036385 0.21642,0.133755 0.69152,-0.314584 0.83655,-0.789432 0.0902,-0.295444 1.40763,-1.455208 1.653,-1.455208 0.0865,0 0.36694,-0.176334 0.62327,-0.391851 0.25632,-0.215519 0.70398,-0.562972 0.99479,-0.772117 0.29081,-0.209148 0.45246,-0.456557 0.35922,-0.549804 -0.9353,-0.935297 -15.32667,-1.932625 -17.50652,-1.21321 -1.35365,0.446744 -3.98515,2.423676 -5.88312,4.419729 -0.87977,0.92524 -1.73006,1.682253 -1.88954,1.682253 -0.15948,0 -0.36679,0.306094 -0.46068,0.680209 -0.0939,0.374113 -0.57654,1.296847 -1.07252,2.050521 -0.49599,0.753671 -1.21794,2.106128 -1.60432,3.00546 -0.52314,1.217644 -0.8065,1.59525 -1.10975,1.478881 -0.32937,-0.126392 -0.35463,-0.06229 -0.13213,0.335301 0.18946,0.33855 0.19016,0.70181 0.002,1.166952 -0.84746,2.097617 -1.54024,6.770566 -1.83684,12.389942 -0.35288,6.685674 -0.33561,6.766677 1.29384,6.069261 2.68454,-1.149006 6.41973,-1.201607 9.31385,-0.131169 1.76189,0.651671 2.79814,1.331311 3.82547,2.509019 0.78314,0.897779 1.66599,1.11773 2.22851,0.555205 z m -19.29843,-5.049367 c 0.0569,-3.463043 0.22136,-4.871219 0.59592,-5.102711 0.12903,-0.07974 0.23878,-1.239287 0.24389,-2.576767 0.0101,-2.640613 0.44584,-5.137991 1.13888,-6.527228 0.24163,-0.484354 0.43933,-1.043498 0.43933,-1.242541 0,-0.199044 0.28521,-0.805828 0.63379,-1.348412 0.34859,-0.542584 0.76793,-1.41297 0.93187,-1.934191 0.39982,-1.271138 1.01394,-2.433696 2.31681,-4.385808 0.74381,-1.114467 1.0016,-1.715153 0.81578,-1.900965 -0.18581,-0.185811 -0.46875,-0.142504 -0.89541,0.137052 -0.34307,0.224787 -0.80946,0.337447 -1.03642,0.250354 -0.241,-0.09248 -0.34422,-0.04762 -0.24813,0.107855 0.17602,0.284818 -1.96356,1.362262 -2.29652,1.156477 -0.10919,-0.06748 -0.38855,0.167312 -0.62079,0.521764 -0.46545,0.710361 -1.14531,0.749776 -1.56117,0.09051 -0.20631,-0.327075 -0.12173,-0.553884 0.36351,-0.97473 0.4854,-0.420981 0.68202,-0.470273 0.8459,-0.212064 0.13833,0.217956 0.21493,0.230817 0.21756,0.03653 0.002,-0.164928 0.25415,-0.365273 0.55984,-0.445211 0.30568,-0.07994 0.48373,-0.261933 0.39566,-0.404432 -0.16532,-0.267494 3.39552,-2.08008 5.26626,-2.6807 0.58208,-0.186886 1.20564,-0.456655 1.38569,-0.599493 0.18005,-0.142835 0.49113,-0.196858 0.6913,-0.120047 0.2442,0.09371 0.35412,-0.04889 0.3341,-0.433419 -0.018,-0.346276 0.12722,-0.573077 0.36703,-0.573077 0.21828,0 0.69453,-0.385873 1.05833,-0.857498 0.81614,-1.058013 1.65128,-1.654673 2.54219,-1.816225 0.37422,-0.06786 0.9704,-0.313396 1.32484,-0.545637 0.59021,-0.38672 0.68383,-0.386622 1.11235,0.0011 0.3647,0.330052 0.64037,0.366853 1.24998,0.16687 l 0.7821,-0.256569 -0.84964,0.12392 c -1.18677,0.173088 -1.36348,-0.321024 -0.19332,-0.540549 1.0886,-0.204221 6.0097,-0.0088 10.28564,0.408519 1.63617,0.159674 2.99248,0.182494 3.12244,0.05254 0.29569,-0.29569 -0.74951,-0.981435 -1.78178,-1.169009 -0.43657,-0.07933 -1.03188,-0.204861 -1.32292,-0.278966 -8.5323,-2.172472 -14.97921,-3.442993 -20.5984,-4.059414 -4.7101,-0.516692 -15.30043,-0.573135 -20.80889,-0.110903 -3.5949,0.301659 -8.51609,1.316649 -9.84325,2.030161 -0.39332,0.211458 -1.13643,0.400307 -1.65136,0.419664 -0.53575,0.02013 -1.12452,0.24325 -1.3764,0.521578 -0.24209,0.267512 -0.64992,0.486384 -0.90628,0.486384 -0.25636,0 -0.5058,0.09167 -0.55431,0.203718 -0.0485,0.112046 -0.80257,0.673894 -1.67569,1.24855 -1.90779,1.255631 -2.77813,2.148539 -2.77813,2.850161 0,0.826613 1.75539,2.251953 3.00883,2.443117 0.60072,0.09161 1.48367,0.367255 1.96212,0.612532 0.73616,0.377388 0.90518,0.388889 1.0993,0.0748 0.19409,-0.314042 0.60989,-0.32046 2.70197,-0.0417 4.58305,0.610667 14.23805,2.671697 17.62811,3.763031 1.85091,0.59585 3.762,1.076132 4.24686,1.067295 0.64183,-0.0117 0.84374,0.08251 0.74247,0.346411 -0.0765,0.199366 0.003,0.429707 0.17677,0.511868 0.23689,0.112035 0.2301,0.189 -0.0272,0.307827 -0.18867,0.08714 -0.72445,0.508235 -1.19063,0.935768 -0.46618,0.427529 -1.11549,0.845388 -1.44291,0.928576 -0.32742,0.08319 -0.59531,0.257403 -0.59531,0.387149 0,0.129744 -0.18562,0.2359 -0.41249,0.2359 -0.22687,0 -0.34105,0.115602 -0.25372,0.256889 0.0873,0.14129 -0.16911,0.528243 -0.56984,0.859896 -0.74056,0.612899 -1.96305,1.860309 -2.54444,2.596303 -0.51676,0.654177 -0.42633,1.551334 0.17563,1.74239 0.29561,0.09382 0.70043,0.333547 0.89961,0.532725 0.30646,0.306462 0.28036,0.466106 -0.16981,1.038397 -0.69022,0.877472 -1.42118,3.091145 -1.31172,3.972496 0.0738,0.594 -0.0584,0.740034 -0.94615,1.045832 -0.56753,0.195485 -1.13393,0.512143 -1.25866,0.703686 -0.12474,0.191542 -0.19617,1.164053 -0.15875,2.161135 l 0.068,1.812874 2.01772,0.635273 c 2.22698,0.701156 5.4041,2.654308 6.81871,4.191836 0.56155,0.610349 0.96672,0.867365 1.07954,0.684808 0.0993,-0.16073 0.20451,-1.746676 0.23372,-3.524324 z m -16.24005,-1.681308 2.30163,-0.452231 -0.19012,-0.813858 c -0.31342,-1.341707 -0.32224,-2.100715 -0.0325,-2.798236 0.29807,-0.717634 1.4732,-2.112504 1.73378,-2.057987 0.0885,0.01852 0.45858,-0.09649 0.82238,-0.255564 0.3638,-0.159078 0.86068,-0.351205 1.10416,-0.42695 0.40694,-0.12659 0.4016,-0.218363 -0.0661,-1.135801 -0.90029,-1.76586 -0.46324,-3.963474 1.02031,-5.130432 0.36756,-0.289123 0.57966,-0.613306 0.47134,-0.720407 -0.33147,-0.327731 -11.55355,-0.188262 -12.58384,0.156395 -0.63399,0.212085 -1.09292,0.620194 -1.45521,1.294051 -0.55751,1.036997 -2.01916,2.191279 -2.77478,2.191279 -0.24616,0 -0.57651,-0.282993 -0.7341,-0.628872 -0.26205,-0.57513 -0.19988,-0.671023 0.72748,-1.122101 0.55771,-0.271275 0.95494,-0.58883 0.88272,-0.705678 -0.20155,-0.32612 0.66986,-1.512099 1.11103,-1.512099 0.21493,0 0.39078,-0.158618 0.39078,-0.352483 0,-0.775748 1.95835,-1.031907 9.39271,-1.228598 4.07458,-0.107805 7.4381,-0.212879 7.47448,-0.233503 0.0364,-0.02061 0.0661,-0.382812 0.0661,-0.80486 0,-0.707966 -0.10751,-0.792562 -1.38906,-1.092983 -0.76398,-0.179091 -1.53644,-0.442468 -1.71657,-0.585282 -0.18014,-0.142811 -0.95404,-0.302995 -1.7198,-0.355962 -0.76575,-0.05297 -2.46384,-0.347422 -3.77353,-0.654344 -1.30968,-0.306922 -2.91703,-0.656688 -3.57187,-0.777258 -1.78229,-0.328161 -5.59727,-1.047756 -6.35,-1.197759 -0.3638,-0.0725 -1.19724,-0.178794 -1.85208,-0.236214 -0.65485,-0.05742 -3.33375,-0.375216 -5.95313,-0.706215 -3.89834,-0.492618 -6.10675,-0.604732 -12.17083,-0.617877 -6.7814502,-0.01471 -7.6658002,0.03669 -10.4510402,0.607312 -1.67349,0.342852 -3.2213,0.647689 -3.43958996,0.677418 -0.21828,0.02973 -0.73204,0.194762 -1.1417,0.366747 -0.40965,0.171981 -0.84076004,0.312695 -0.95800004,0.312695 -0.43659,0 -4.16436,1.72186 -5.44092,2.513166 -0.7276,0.451021 -1.71269,0.978651 -2.18908,1.172508 -0.47639,0.193858 -0.95264,0.489964 -1.05834,0.658014 -0.10569,0.16805 -0.8767698,0.754115 -1.7135198,1.302364 -0.83674,0.548248 -1.52135,1.180441 -1.52135,1.404871 0,0.48133 0.73338,1.84464 1.38906,2.58219 0.25466,0.286459 0.46302,0.608941 0.46302,0.716627 0,0.107688 0.15275,0.353129 0.33944,0.545422 0.18669,0.192297 0.61912,0.747253 0.9609398,1.233239 0.81396,1.157214 2.69065,2.952848 3.08615,2.952848 0.17115,0 0.46405,0.184206 0.65091,0.409347 0.44559,0.536906 2.96576,1.722139 4.0126,1.887122 0.4529,0.07138 1.10997,0.238715 1.46018004,0.371862 0.3502,0.133146 0.91303,0.242085 1.25072,0.242085 0.3377,0 0.95501996,0.177861 1.37183996,0.395246 1.1871,0.619114 1.80112,0.479766 2.9064,-0.659593 0.56454,-0.581954 1.23978,-1.058204 1.50053,-1.058334 0.26075,-1.29e-4 0.72466,-0.233677 1.03091,-0.518996 0.30625,-0.285318 1.08637,-0.598172 1.7336,-0.695229 1.4798202,-0.221914 4.7141702,-0.0024 5.1580602,0.350154 0.18403,0.14614 0.79486,0.414068 1.35741,0.595398 0.56255,0.181329 1.21739,0.49749 1.45521,0.702579 2.25984,1.948842 1.88132,1.861333 5.0626,1.170406 0.65484,-0.142222 1.905,-0.265396 2.77813,-0.273719 2.28534,-0.0218 2.68197,-0.194221 3.44615,-1.498201 0.37658,-0.642593 0.79705,-1.09891 0.93438,-1.014039 0.35488,0.219331 0.31,0.916829 -0.059,0.916829 -0.16977,0 -0.23218,0.0765 -0.13868,0.169994 0.0935,0.0935 0.35434,0.01701 0.57965,-0.169994 0.59799,-0.496285 0.78399,-0.132086 0.29158,0.570928 -0.23313,0.33283 -0.42387,0.681061 -0.42387,0.773843 0,0.09278 0.62508,0.234759 1.38907,0.315505 0.76398,0.08074 1.68671,0.261731 2.05052,0.402193 0.3638,0.140462 0.75156,0.268055 0.86169,0.283538 0.5768,0.08109 2.88858,1.472303 4.16405,2.50589 l 1.45386,1.178155 0.96472,-0.492165 c 0.5306,-0.27069 2.00046,-0.695666 3.26636,-0.944396 z M 184.675,84.816928 c 0.26003,-0.287327 0.72496,-0.599067 1.03319,-0.692753 0.30823,-0.09369 0.76878,-0.353306 1.02344,-0.576929 0.25466,-0.223623 0.46302,-0.329391 0.46302,-0.235038 0,0.09435 0.26789,-0.06138 0.59531,-0.346069 0.32743,-0.284689 0.67562,-0.530977 0.77377,-0.547304 0.0982,-0.01632 0.97102,-0.824407 1.93972,-1.795735 3.2575,-3.266355 4.43116,-6.251612 4.27231,-10.866868 -0.0779,-2.264325 -0.19586,-2.821033 -0.90899,-4.291155 -0.87559,-1.805028 -1.33236,-2.406452 -2.54061,-3.345201 -0.41981,-0.326171 -0.65793,-0.59826 -0.52917,-0.604647 0.3966,-0.01968 -1.78328,-0.811419 -3.73463,-1.356442 -1.52911,-0.427088 -2.50387,-0.502373 -5.58978,-0.431726 -3.90053,0.0893 -4.04006,0.04507 -3.22001,-1.020728 0.62583,-0.813388 -12.47879,-1.031873 -16.7225,-0.278805 -4.3536,0.77257 -4.31733,0.755454 -6.07602,2.866768 -0.90552,1.087067 -3.66933,2.627709 -5.83023,3.249954 -1.95449,0.562808 -6.80308,0.916363 -10.84792,0.791017 l -3.30729,-0.102492 2.51354,0.882753 c 3.22693,1.133287 5.51132,2.113066 7.66877,3.289131 2.27458,1.239911 5.93127,3.668249 6.93324,4.604236 0.43988,0.410911 0.90289,0.747112 1.02889,0.747112 0.12601,0 1.12706,0.895046 2.22456,1.988987 l 1.99545,1.988989 8.13236,-0.03225 c 8.52881,-0.03382 9.59606,0.04665 11.29091,0.851294 0.57304,0.272055 1.16835,0.494739 1.32292,0.494853 0.15456,1.14e-4 0.75728,0.426093 1.33936,0.946621 0.58208,0.520528 1.1774,1.026448 1.32292,1.124273 0.30974,0.208216 1.42339,2.086059 1.63535,2.757545 0.19644,0.622311 1.21153,0.588783 1.79812,-0.05939 z M 148.08763,61.402974 c 0.91447,-0.213331 1.70367,-0.510858 1.75377,-0.66117 0.0501,-0.150312 0.2974,-0.273296 0.54954,-0.273296 0.45615,0 2.1433,-1.686253 2.1433,-2.14217 0,-0.131492 0.12609,-0.23908 0.2802,-0.23908 0.15411,0 0.20661,-0.119062 0.11667,-0.264583 -0.0899,-0.145521 -0.0374,-0.264584 0.11668,-0.264584 0.15411,0 0.25981,-0.0893 0.23489,-0.198437 -0.0249,-0.109141 0.0575,-0.79375 0.18314,-1.521354 0.12565,-0.727604 0.20352,-1.561042 0.17304,-1.852083 -0.10047,-0.959295 -0.65575,-2.513542 -0.898,-2.513542 -0.13082,0 -0.17232,-0.10604 -0.0922,-0.235643 0.0801,-0.129601 -0.151,-0.430004 -0.51355,-0.667557 -0.36255,-0.237554 -0.65919,-0.594535 -0.65919,-0.793292 0,-0.198758 -0.20836,-0.344842 -0.46302,-0.324631 -0.2972,0.02357 -0.44877,-0.135586 -0.42324,-0.444463 0.0255,-0.307811 -0.091,-0.431019 -0.3232,-0.341921 -0.19964,0.07661 -0.99145,-0.138546 -1.75957,-0.478123 -1.21445,-0.53689 -2.31929,-0.970344 -2.51588,-0.987036 -0.0335,-0.0029 -0.80743,-0.179634 -1.71979,-0.392859 -5.90058,-1.379005 -15.90843,-2.075846 -21.50259,-1.497211 -3.96085,0.409692 -6.20931,0.952596 -8.03905,1.941074 -0.78346,0.423246 -1.546,0.694433 -1.69453,0.602638 -0.15432,-0.09538 -0.18945,-0.03648 -0.082,0.137436 0.11054,0.178861 -0.0635,0.422219 -0.42214,0.590251 -0.33563,0.157249 -0.95654,0.82727 -1.37981,1.488929 -1.33295,2.083699 -1.19448,5.068109 0.27997,6.034209 0.70274,0.460452 3.44308,1.476007 3.75179,1.390391 0.0976,-0.02706 0.41553,0.07965 0.70657,0.23713 0.29104,0.157482 1.18401,0.431231 1.98437,0.60833 0.80037,0.177101 1.93146,0.45162 2.51354,0.610039 0.58209,0.158422 1.1774,0.303273 1.32292,0.321895 0.14552,0.01863 0.62177,0.125362 1.05833,0.237204 4.44987,1.139997 8.68864,1.892117 9.12916,1.619864 0.1577,-0.09746 0.43185,-0.05677 0.60922,0.09044 0.45509,0.377685 1.65637,0.453509 8.17521,0.516017 4.27693,0.04101 6.16715,-0.04394 7.40543,-0.332809 z m 10.63243,-4.510069 c 1.56361,-0.65332 4.59704,-1.195565 7.67266,-1.371539 l 2.88215,-0.164904 -0.15618,-2.025253 c -0.16752,-2.172372 -0.49346,-3.297994 -1.17215,-4.047929 -0.40462,-0.447104 -0.46326,-0.42962 -1.17591,0.350631 -1.06272,1.163524 -3.33467,2.636554 -3.79443,2.46013 -0.21329,-0.08185 -0.3878,-0.03168 -0.3878,0.111495 0,0.263205 -1.7071,1.062088 -3.47844,1.627825 -0.82236,0.26265 -0.99114,0.453049 -1.14254,1.288849 -0.0977,0.539369 -0.24195,1.248564 -0.32055,1.575986 -0.16951,0.706101 -0.15643,0.708474 1.07319,0.194709 z m -51.95874,-0.509823 c 0,-0.209693 -0.11356,-0.451445 -0.25235,-0.537226 -0.1388,-0.08578 -0.33351,-0.873265 -0.4327,-1.749967 -0.14869,-1.314278 -0.25531,-1.566619 -0.60754,-1.437955 -1.82128,0.665287 -2.67432,1.11329 -2.67516,1.404969 -0.002,0.64982 1.04932,2.396646 1.51535,2.51809 1.10953,0.289134 2.4524,0.180763 2.4524,-0.197911 z m 52.62108,-4.364646 c 0.31411,-0.168105 0.67523,-0.241294 0.8025,-0.162642 0.12726,0.07866 0.3098,-0.06133 0.40564,-0.311078 0.15023,-0.391499 0.21153,-0.400405 0.44474,-0.06462 0.20465,0.294651 0.30316,0.308946 0.40469,0.05873 0.0738,-0.181901 0.35866,-0.330729 0.63301,-0.330729 0.33469,0 0.44871,-0.130585 0.34652,-0.396875 -0.0964,-0.251312 0.004,-0.396875 0.27289,-0.396875 0.23385,0 0.42573,0.148828 0.42641,0.330729 7.9e-4,0.181901 0.37338,-0.06638 0.82825,-0.551741 2.72438,-2.906993 -1.26315,-6.738572 -8.40112,-8.072546 -4.74626,-0.887002 -9.04283,-0.810778 -14.7195,0.261139 -3.14797,0.594426 -3.05574,0.849714 0.46302,1.281567 1.74372,0.214009 5.74144,1.189297 6.11707,1.492332 0.16294,0.131445 0.69872,0.280025 1.19063,0.330176 1.14357,0.116594 2.0805,0.484328 4.6847,1.838683 1.21652,0.632671 2.69197,2.12822 2.69197,2.728639 0,0.198562 0.11906,0.361022 0.26458,0.361022 0.14552,0 0.26459,0.225388 0.26459,0.500859 0,0.275473 0.17969,0.569817 0.39933,0.654097 0.21963,0.08428 0.38412,0.245846 0.36554,0.359034 -0.0849,0.517163 0.0815,0.626163 0.78615,0.515102 0.4165,-0.06564 1.01428,-0.256889 1.32839,-0.424998 z m -52.09728,-2.225982 c 1.05368,-1.668377 3.25448,-3.876029 3.86401,-3.876029 0.17494,0 0.38951,-0.186139 0.47681,-0.413644 0.0873,-0.227505 0.27154,-0.343927 0.40941,-0.258718 0.13787,0.08521 0.49196,-0.104052 0.78685,-0.420584 0.59036,-0.63368 2.52973,-1.394997 4.3047,-1.689854 0.62909,-0.104502 1.38192,-0.237027 1.67296,-0.2945 0.29105,-0.05747 2.16745,-0.157321 4.16979,-0.221887 4.61698,-0.148873 5.48751,-0.30357 5.48751,-0.975138 0,-0.281199 -0.29766,-0.832278 -0.66146,-1.224624 -0.36381,-0.392342 -0.66146,-0.809011 -0.66146,-0.925927 0,-0.6701 -6.00682,-5.745956 -6.79981,-5.745956 -0.18917,0 -0.34394,-0.119063 -0.34394,-0.264584 0,-0.145521 -0.18451,-0.264583 -0.41002,-0.264583 -0.2255,0 -0.79105,-0.203369 -1.25677,-0.45193 -0.46571,-0.248562 -0.93605,-0.471805 -1.04519,-0.496093 -0.10914,-0.02429 -0.2282,-0.06816 -0.26458,-0.09748 -0.0364,-0.02932 -0.24474,-0.09159 -0.46302,-0.138364 -0.21829,-0.04678 -1.3468,-0.406929 -2.50783,-0.800335 -2.17498,-0.736989 -2.61833,-0.859258 -3.97447,-1.096111 -0.43656,-0.07625 -1.56765,-0.298738 -2.51354,-0.494424 -0.94588,-0.195686 -2.45469,-0.438256 -3.35291,-0.539046 -1.35206,-0.151717 -1.60718,-0.257458 -1.48241,-0.614423 0.12256,-0.350653 0.0841,-0.369409 -0.20574,-0.100439 -0.19604,0.181901 -0.68981,0.330729 -1.09727,0.330729 -0.65299,0 -0.74455,0.101958 -0.77218,0.859896 -0.0172,0.472943 -0.0156,0.993312 0.004,1.156375 0.0392,0.331081 -1.520833,1.601896 -2.108183,1.717373 -1.31559,0.258649 -2.73985,-1.542536 -2.57625,-3.258044 l 0.0958,-1.004766 -2.25595,-0.05918 c -1.24077,-0.03255 -2.85126,-0.03987 -3.57886,-0.01627 -3.9539,0.128251 -5.5657,0.04801 -5.79442,-0.288468 -0.19034,-0.280011 -0.34166,-0.246882 -0.7535,0.164957 -0.33469,0.334685 -0.74529,0.471372 -1.17135,0.389925 -0.5962,-0.113972 -0.63925,-0.06205 -0.47208,0.569418 0.42134,1.591606 0.23323,2.343274 -0.70823,2.830123 -1.11279,0.57545 -2.08063,0.115223 -2.08063,-0.98938 0,-0.411972 -0.11906,-0.749041 -0.26459,-0.749041 -0.14552,0 -0.26458,-0.239533 -0.26458,-0.532294 0,-0.474541 -0.122,-0.515207 -1.12448,-0.374814 -1.66476,0.23314 -1.8863,0.332481 -1.58734,0.711801 0.14201,0.180178 0.27644,0.946216 0.29873,1.7023 0.0326,1.10654 -0.0726,1.480137 -0.53962,1.915204 -0.85702,0.798441 -1.47215,0.9061 -2.47045,0.432375 -0.94326,-0.447609 -1.13908,-0.796878 -1.24252,-2.216203 -0.0566,-0.776092 -0.74265,-1.862511 -0.74265,-1.175986 0,0.144428 -0.54662,0.415639 -1.21471,0.602695 -1.25565,0.351559 -1.6735,0.818329 -1.24047,1.385686 0.40203,0.526732 0.42087,2.748081 0.0261,3.073979 -0.19196,0.158462 -0.74197,0.603197 -1.22225,0.988298 l -0.87323,0.700188 -1.17729,-0.605504 c -0.81685,-0.420121 -1.17987,-0.775031 -1.1857,-1.159219 -0.005,-0.304543 -0.17333,-0.7713 -0.37489,-1.037241 -0.35418,-0.467296 -0.39164,-0.467418 -1.11607,-0.0037 -0.41227,0.263938 -0.86865,0.612585 -1.01417,0.774772 -0.14552,0.162187 -0.73125,0.639831 -1.30161,1.061431 -1.8716,1.383464 -4.12234,4.01134 -4.12234,4.81312 0,0.1212 -0.22822,0.465328 -0.50715,0.764728 -0.6193,0.664744 -1.16151,2.490507 -0.83622,2.815796 0.12848,0.128482 4.02541,0.216747 8.65984,0.196144 4.63443,-0.02061 9.25968,0.08006 10.27832,0.223705 1.01865,0.143642 3.04271,0.335687 4.49792,0.426773 1.45521,0.09108 3.00302,0.273574 3.43958,0.405534 0.43656,0.131964 1.68018,0.364115 2.76358,0.515896 1.08341,0.151778 2.32209,0.451694 2.75263,0.666474 0.43054,0.214781 1.03278,0.390512 1.3383,0.390512 0.97551,0 4.17929,1.024819 4.71259,1.507448 0.37737,0.341508 1.02091,0.478364 2.41132,0.512783 2.07325,0.05132 3.75693,0.303433 4.472493,0.669693 0.25258,0.129283 1.02648,0.357801 1.71979,0.507814 0.6933,0.150014 1.67727,0.371168 2.18659,0.491456 1.69483,0.400267 1.79955,0.349774 2.90505,-1.400665 z M 67.602987,33.046974 c 0,-1.122342 -0.2429,-1.387327 -1.05753,-1.153695 -0.4151,0.119049 -0.82321,0.147958 -0.90693,0.06424 -0.0837,-0.08371 -0.15221,-0.02305 -0.15221,0.134834 0,0.157871 -0.0702,0.470077 -0.15608,0.693788 -0.0922,0.240215 0.12126,0.684088 0.52129,1.084124 0.6498,0.649793 0.69925,0.658654 1.21442,0.217549 0.29537,-0.252905 0.53704,-0.721286 0.53704,-1.040844 z m 7.36287,-2.310175 c 0.0478,-0.41791 -0.0328,-0.879491 -0.17906,-1.025734 -0.37745,-0.377444 -1.62756,-0.0048 -1.62756,0.485087 0,1.482119 1.64285,1.973754 1.80662,0.540647 z m 6.13088,-1.076632 c 0,-0.74816 -0.27611,-0.996995 -0.76855,-0.692648 -0.44186,0.273085 -0.13182,1.33849 0.38951,1.33849 0.22548,0 0.37904,-0.261651 0.37904,-0.645842 z m 17.72708,-0.456589 c 0,-0.169773 0.0737,-0.234974 0.16379,-0.144891 0.16784,0.167844 0.89455,-0.430919 0.89455,-0.737053 0,-0.605768 -1.04839,-1.070673 -2.18282,-0.967962 -0.54616,0.04945 -0.64805,1.338551 -0.14552,1.841087 0.40651,0.406509 1.27,0.412504 1.27,0.0088 z"
       id="path1435" /></g></svg>
