<?xml version="1.0" encoding="UTF-8" standalone="no"?>
<!-- Created with Inkscape (http://www.inkscape.org/) -->

<svg
   width="186.5974mm"
   height="228.53175mm"
   viewBox="0 0 186.59739 228.53174"
   version="1.1"
   id="svg1"
   xml:space="preserve"
   xmlns="http://www.w3.org/2000/svg"
   xmlns:svg="http://www.w3.org/2000/svg"><defs
     id="defs1"><clipPath
       clipPathUnits="userSpaceOnUse"
       id="clipPath3"><path
         id="path3"
         style="fill:#ff0000;fill-opacity:1;fill-rule:nonzero;stroke:none;stroke-width:0.264583"
         d="M -89.402812,17.953426 V 231.29958 H 127.50849 V 17.953426 Z M 57.309165,146.54868 c 0.779481,0.0172 1.734521,0.44275 2.742467,1.42885 1.453158,1.42166 2.550438,3.15263 3.545004,4.91236 0.576631,1.13939 1.15478,2.27834 1.723925,3.4215 2.234525,4.48814 -2.300936,6.74504 -4.534091,2.25619 -0.530973,-1.06731 -1.073954,-2.12816 -1.604552,-3.19567 -0.690115,-1.23606 -1.451359,-2.42398 -2.372466,-3.50366 -2.338813,-2.74145 -1.4923,-5.3635 0.499713,-5.31957 z" /></clipPath><clipPath
       clipPathUnits="userSpaceOnUse"
       id="clipPath13"><path
         id="path14"
         style="fill:#ff0000;fill-opacity:1;fill-rule:nonzero;stroke:none;stroke-width:0.264583"
         d="M 84.920345,6.4680598 V 221.74691 H 301.98358 V 6.4680598 Z M 147.30258,105.99945 c 1.81348,0.0318 2.9196,2.21177 1.01958,4.89789 -0.85979,1.21553 -1.91873,2.26478 -2.92799,3.35225 -3.41051,3.67492 -7.12464,0.22459 -3.71036,-3.44681 0.86277,-0.92776 1.77417,-1.81787 2.51715,-2.84893 1.00758,-1.39821 2.1517,-1.97106 3.10162,-1.9544 z m 142.06988,64.87718 c 1.17022,0.0187 2.44155,1.13328 2.84893,3.44785 0.10866,0.61736 0.30546,1.21757 0.55604,1.79111 2.00725,4.59429 -2.79832,6.58902 -4.67776,1.94096 -0.41348,-1.02257 -0.77141,-2.07335 -0.91208,-3.17293 -0.33799,-2.64197 0.85864,-4.02819 2.18487,-4.00699 z m -10.44018,21.22609 c 2.35821,0.0534 3.26597,2.914 0.21755,5.11545 -0.43935,0.31729 -0.87891,0.63459 -1.31826,0.95188 -2.32674,1.61168 -4.73063,3.09573 -7.16236,4.5434 -4.308,2.56465 -6.91121,-1.77429 -2.60552,-4.34289 2.33483,-1.39287 4.64814,-2.81121 6.88175,-4.36201 0.41258,-0.29833 0.82559,-0.59671 1.23817,-0.89504 1.01567,-0.73441 1.96259,-1.0286 2.74867,-1.01079 z" /></clipPath><clipPath
       clipPathUnits="userSpaceOnUse"
       id="clipPath40"><path
         id="path41"
         style="fill:#ff0000;fill-opacity:1;fill-rule:nonzero;stroke:none;stroke-width:0.264583"
         d="M 43.056883,-39.498228 V 187.12515 H 282.72804 V -39.498228 Z M 273.92599,87.760669 c 0.88754,1.99e-4 1.79287,0.629264 2.28719,1.936317 0.24016,0.180882 0.45469,0.438038 0.6527,0.730705 0.052,-0.0043 0.10406,-0.0093 0.15605,-0.0093 1.26159,-1.43e-4 2.48402,1.252596 2.41382,3.758428 -0.0619,2.207892 -0.31993,4.403196 -0.57724,6.594941 -0.25273,1.78069 -0.12443,0.91178 -0.3824,2.60604 -0.19706,1.29387 -0.68993,2.17644 -1.28831,2.71767 -0.39283,2.17631 -1.15512,4.26939 -1.98231,6.31331 -0.60381,1.41746 -0.29308,0.7255 -0.92861,2.07584 -1.39187,2.95734 -3.82876,3.06196 -4.76094,1.5229 -0.50342,2.47544 -2.50888,3.06942 -3.79669,1.8464 -1.49146,0.84977 -2.94685,1.76239 -4.36922,2.72335 -1.9317,1.35317 -3.74042,2.86998 -5.6007,4.31757 -1.05553,0.86438 -2.24864,1.52036 -3.4494,2.1549 -0.8513,0.45603 -1.78705,0.68203 -2.72905,0.85473 -4.93143,0.90411 -5.83128,-4.1535 -0.88728,-4.98626 0.42947,-0.0723 0.86543,-0.14579 1.25574,-0.34933 0.93914,-0.49276 1.87838,-0.99133 2.7001,-1.67121 1.95165,-1.51863 3.84847,-3.11062 5.88182,-4.52118 1.91146,-1.2835 3.87178,-2.49643 5.89627,-3.59306 -0.004,-0.48015 0.0742,-1.01198 0.28474,-1.60352 0.0928,-2.23942 0.22942,-4.47755 0.36174,-6.71432 0.0407,-0.71281 0.0814,-1.42556 0.12195,-2.13837 0.14263,-2.502725 1.47838,-3.682147 2.74248,-3.610109 0.0212,0.0013 0.04,0.0172 0.061,0.01913 0.20426,-1.107437 0.40529,-2.215327 0.601,-3.324344 0.40844,-2.314371 1.72151,-3.350609 2.91145,-3.28972 0.0164,7.93e-4 0.0302,0.01373 0.0465,0.01497 -0.007,-0.101274 -0.0119,-0.202628 -0.0206,-0.303858 -0.22985,-2.653554 1.06196,-4.072977 2.39829,-4.07262 z m -1.75802,16.091011 c -0.0122,0.0657 -0.0236,0.13141 -0.0367,0.19688 -0.51533,2.43146 -1.11845,4.86049 -2.02314,7.18044 0.0233,0.01 0.0472,0.0186 0.0698,0.0289 0.0796,-0.17984 0.11184,-0.23089 0.33745,-0.75964 0.68157,-1.66051 1.29307,-3.36039 1.66915,-5.11907 0.057,-0.26645 0.12579,-0.51525 0.2036,-0.74982 -0.0873,-0.24344 -0.17981,-0.48192 -0.22013,-0.77773 z" /></clipPath><clipPath
       clipPathUnits="userSpaceOnUse"
       id="clipPath70"><path
         id="path71"
         style="fill:#ff0000;fill-opacity:1;fill-rule:nonzero;stroke:none;stroke-width:0.264583"
         d="M 97.496414,-109.05345 V 118.09806 H 291.95741 V -109.05345 Z M 274.90367,19.673059 c 1.06417,-0.01434 2.29149,0.797169 3.05201,2.686659 0.24861,0.617649 0.54691,1.213072 0.81236,1.823143 0.10702,-2.113105 1.28882,-3.200416 2.48667,-3.16053 1.1871,0.03953 2.38709,1.183571 2.56573,3.526917 0.14012,1.838055 0.19263,3.681458 0.24443,5.523693 -0.0111,1.286968 0.002,0.663861 -0.0372,1.869136 -0.066,2.043319 -0.94796,3.224747 -1.95802,3.568777 -1.06917,1.011605 -3.06517,0.733586 -4.38784,-1.800924 -0.6596,-1.263909 -1.30021,-2.536105 -1.9141,-3.823025 -0.89112,-1.858502 -1.74429,-3.733628 -2.51406,-5.646166 -1.11147,-2.761552 0.0947,-4.546709 1.65003,-4.56768 z M 227.40786,35.16617 c 2.85391,0.0154 3.65785,3.328107 -0.009,5.105633 -0.10414,0.05049 -0.21477,0.08649 -0.31936,0.135909 0.0878,0.174847 0.17258,0.356817 0.25165,0.552421 0.29264,0.723889 0.67277,1.407311 1.02166,2.104781 0.49752,0.994704 0.62071,1.85483 0.55034,2.581754 0.79241,0.0935 1.70142,0.525706 2.61173,1.422136 0.85581,0.842748 1.70212,1.69264 2.50527,2.585889 0.74222,0.777118 1.45302,1.572567 2.07274,2.452047 0.27181,0.279689 0.49147,0.608986 0.72452,0.920872 0.4288,0.573923 0.68072,1.11592 0.84491,1.631942 0.40767,0.301072 0.81735,0.711295 1.21128,1.260906 0.72402,1.010161 1.46733,2.006714 2.15749,3.041674 0.67577,1.094039 1.39768,2.159738 2.14716,3.204456 0.57142,1.006359 1.2961,1.895922 2.01073,2.799313 0.72798,0.98825 1.67672,1.729827 2.62775,2.487186 0.72246,0.58328 1.49453,1.100072 2.2536,1.633493 0.30505,0.214349 0.4962,0.443799 0.72606,0.668692 1.203,-0.615995 2.41251,-1.219766 3.62304,-1.81901 3.30551,-1.685468 6.71158,-3.156911 10.08516,-4.697389 2.15108,-0.995508 4.31361,-1.965677 6.47972,-2.927985 1.57738,-0.77579 3.15939,-1.558142 4.66999,-2.459281 0.95943,-0.64081 2.0927,-1.035754 2.9869,-1.772502 0.2867,-0.27401 0.73166,-0.459364 0.8966,-0.842843 0.68091,-1.58322 1.73522,-2.216873 2.70525,-2.201932 1.85191,0.02852 3.39833,2.420787 1.46193,5.080826 -0.55834,0.76699 -1.20099,1.439079 -1.98335,1.983859 -1.09435,0.815578 -2.30629,1.431271 -3.48712,2.110981 -1.68534,0.991989 -3.43271,1.880634 -5.19399,2.729031 -2.15025,0.95527 -4.2974,1.918452 -6.43268,2.9068 -3.32568,1.51847 -6.6831,2.967985 -9.94152,4.629692 -2.50759,1.240819 -5.01576,2.489092 -7.44916,3.871082 -4.16816,2.36719 -6.78702,-1.430255 -3.21221,-3.954796 -0.45171,-0.320995 -0.91272,-0.629322 -1.34411,-0.97772 -1.2521,-0.998236 -2.47592,-2.021832 -3.44629,-3.308842 -0.76168,-0.9657 -1.54199,-1.916501 -2.15336,-2.989482 -0.78265,-1.09392 -1.54215,-2.206265 -2.24845,-3.351215 -0.58542,-0.88532 -1.23027,-1.72728 -1.82985,-2.60191 -0.43447,-0.633714 -0.70557,-1.242417 -0.85525,-1.808673 -0.4626,-0.305372 -0.92538,-0.70317 -1.36788,-1.296046 -0.26933,-0.360899 -0.53185,-0.727146 -0.8294,-1.066085 -0.48074,-0.718559 -1.10259,-1.311934 -1.67794,-1.952853 -0.74155,-0.826828 -1.52895,-1.608291 -2.31871,-2.389002 -1.06444,-1.052203 -1.49098,-2.108129 -1.47279,-2.979145 -0.91381,-0.171199 -1.89788,-0.859004 -2.63807,-2.341459 -0.4875,-0.976337 -1.02824,-1.933874 -1.36167,-2.978113 -8e-4,-0.0024 -0.001,-0.0044 -0.002,-0.0067 -4.50863,1.671101 -6.30092,-2.894253 -1.71566,-4.742862 1.47347,-0.594051 2.9578,-1.171766 4.39043,-1.859836 0.84739,-0.407001 1.61517,-0.579226 2.27376,-0.575675 z" /></clipPath><clipPath
       clipPathUnits="userSpaceOnUse"
       id="clipPath74"><path
         id="path74"
         style="fill:#ff0000;fill-opacity:1;fill-rule:nonzero;stroke:none;stroke-width:0.264583"
         d="M -29.884086,-77.633731 V 138.92773 H 157.38304 V -77.633731 Z m 105.14707,29.170828 c 1.817156,-0.06325 3.051006,2.061409 1.285709,4.837949 -1.692966,2.66278 -3.351602,5.349526 -4.900991,8.098732 -2.461575,4.367755 -6.9038,1.944838 -4.446241,-2.425176 1.602227,-2.849065 3.320079,-5.631815 5.073076,-8.390187 0.924398,-1.454554 2.036601,-2.088186 2.988447,-2.121318 z" /></clipPath><clipPath
       clipPathUnits="userSpaceOnUse"
       id="clipPath96"><path
         id="path97"
         style="fill:#ff0000;fill-opacity:1;fill-rule:nonzero;stroke:none;stroke-width:0.264583"
         d="M 42.322036,-124.12301 V 99.614237 H 302.68444 V -124.12301 Z m 40.332938,11.40344 c 1.193781,0.0282 2.451047,1.15727 2.734717,3.49022 0.07968,0.65528 0.169799,1.30914 0.250632,1.96423 0.465238,-0.51114 1.040945,-0.76947 1.612821,-0.76947 1.26647,10e-6 2.508594,1.25365 2.458765,3.75998 -0.05494,2.76352 0.14506,5.519841 0.415478,8.267712 0.43861,3.960389 1.042519,7.900075 1.82056,11.80755 0.266695,1.604756 0.705324,3.16135 1.218531,4.701003 1.470165,4.410607 -2.564016,6.102006 -4.413684,2.529562 0.07623,0.718762 0.2026,1.433126 0.235643,2.155425 0.22914,5.008394 -4.765132,5.004668 -5.064807,0 -0.225862,-3.772082 -1.059405,-7.500146 -1.754931,-11.209652 -0.884889,-4.48015 -1.336728,-9.020352 -1.674315,-13.568681 -0.09578,-1.290369 0.179064,-2.258929 0.632002,-2.920239 -0.265684,-2.0703 -0.525637,-4.14115 -0.776179,-6.21357 -0.319675,-2.64425 0.95182,-4.02605 2.304767,-3.99407 z M 238.17726,73.473197 c 0.73503,0.0089 1.59857,0.257659 2.53163,0.834059 1.55674,0.961655 2.93809,2.17945 4.36925,3.31401 1.88795,1.432734 3.69489,2.965942 5.54643,4.44469 1.45633,1.008327 2.8257,2.135084 4.2571,3.176032 1.01821,0.73062 2.04804,1.443948 3.0732,2.164726 0.10589,0.06838 0.21192,0.136755 0.31781,0.205155 1.02093,0.659212 1.62545,1.404456 1.90221,2.117701 2.66507,1.244738 1.89629,4.674838 -2.23656,4.619355 -1.03226,-0.01378 -2.06465,-0.02868 -3.09645,-0.06408 -1.75306,-0.06623 -3.50834,-0.153231 -5.24671,-0.40204 -1.60006,-0.26435 -3.18097,-0.633878 -4.70875,-1.18546 -1.40758,-0.528601 -2.82247,-1.053193 -4.17598,-1.709973 -1.14752,-0.6418 -2.26375,-1.322938 -3.21685,-2.241206 -0.91708,-0.777378 -1.79807,-1.593477 -2.7001,-2.387968 -2.7042,-2.3818 -1.7688,-5.030621 0.37311,-5.107181 0.31321,-0.01119 0.65255,0.03241 1.00975,0.140044 0.3858,-0.577905 1.07851,-0.980543 2.0805,-0.968417 0.56408,0.0068 1.21524,0.13857 1.942,0.43098 0.58877,0.236889 1.17105,0.489267 1.74976,0.749308 -0.006,-0.0043 -0.0109,-0.0091 -0.0165,-0.01344 -1.32206,-1.048356 -2.59343,-2.18132 -4.0323,-3.068545 -3.33405,-2.055786 -2.34759,-5.079635 0.2775,-5.047755 z" /></clipPath><clipPath
       clipPathUnits="userSpaceOnUse"
       id="clipPath100"><path
         id="path100"
         style="fill:#ff0000;fill-opacity:1;fill-rule:nonzero;stroke:none;stroke-width:0.264583"
         d="M 72.0146,-199.68615 V 40.57722 h 244.16494 v -240.26337 z m 145.09244,146.980174 c 1.28766,0.0132 2.57513,0.02606 3.86281,0.03927 5.01334,0.05157 4.95959,5.11969 -0.0538,5.064289 l -3.69279,-0.04082 c -5.45363,0.124939 -10.93185,0.221541 -16.35094,0.890902 -4.97584,0.614598 -5.69076,-4.388588 -0.71624,-5.013648 5.61733,-0.705821 11.29667,-0.809606 16.95091,-0.939996 z" /></clipPath><clipPath
       clipPathUnits="userSpaceOnUse"
       id="clipPath159"><path
         id="path160"
         style="fill:#ff0000;fill-opacity:1;fill-rule:nonzero;stroke:none;stroke-width:0.264583"
         d="M 30.821436,-185.61106 V 16.295995 H 207.19362 V -185.61106 Z m 46.190461,47.71285 c 2.837706,0.0314 3.593002,3.37799 -0.08165,5.13612 -0.869119,0.41583 -0.437216,0.21235 -1.295527,0.6103 -1.617451,0.78247 -3.284305,1.46172 -4.858102,2.33422 -1.78626,0.99179 -3.486946,2.11988 -5.137155,3.32487 -1.50717,1.09406 -2.970805,2.24513 -4.402831,3.43596 -3.854913,3.20561 -6.957175,-0.78416 -3.10937,-3.9982 1.471078,-1.22884 2.984008,-2.40497 4.533056,-3.53364 1.813761,-1.32772 3.690713,-2.55979 5.6534,-3.65456 1.650113,-0.93014 3.409714,-1.63523 5.108734,-2.46445 0.919972,-0.42758 0.479388,-0.21958 1.32085,-0.6227 0.847759,-0.40616 1.61376,-0.57516 2.268593,-0.56792 z m 99.497803,69.085706 c 0.38779,0.0071 0.8114,0.05759 1.27021,0.159681 1.43791,0.319921 2.71139,0.978686 3.9119,1.770949 0.18473,-0.02064 0.32807,-0.07502 0.53175,-0.07906 0.1467,-0.0029 0.29821,-0.0011 0.45476,0.0052 1.85974,0.07548 3.52642,0.788289 5.12165,1.68982 1.71367,0.992722 3.22309,2.242897 4.60592,3.650938 1.18407,1.30764 2.33495,2.651112 3.33054,4.108794 0.69305,1.015418 1.25911,2.111213 1.73788,3.241664 0.32187,0.758701 0.47009,1.560896 0.56999,2.372979 0.61203,4.97612 -5.13456,5.519629 -5.03897,0.506947 0.006,-0.317849 -0.10685,-0.630872 -0.20515,-0.929142 -0.30454,-0.748684 -0.69228,-1.462744 -1.13068,-2.141988 -0.82245,1.138497 -2.784,1.276784 -4.66173,-0.736906 -0.85755,-0.919658 -0.41314,-0.45397 -1.33429,-1.395781 -1.63578,-1.664964 -3.27898,-3.326087 -5.06791,-4.829161 -1.18148,-0.913451 -2.34754,-1.870726 -3.81888,-2.268596 -4.38609,-1.186027 -4.02559,-5.195472 -0.27699,-5.126302 z m -120.257775,19.36936 c 1.284633,-0.0013 2.654148,1.247878 2.786392,3.751191 0.01437,0.272023 -0.03894,0.535093 -0.05529,0.803052 0.809611,-2.64e-4 1.619342,-0.0024 2.428793,-5.29e-4 0.927761,0.0024 1.855115,0.0097 2.782776,0.03255 2.533462,0.06904 5.064683,0.219826 7.5892,0.441835 1.846921,0.179401 3.697769,0.315463 5.538679,0.550355 1.346716,0.277415 2.69096,0.597119 3.988387,1.055748 0.996246,0.308729 1.902624,0.812464 2.794146,1.342554 1.079777,0.61309 1.837938,1.499344 2.398818,2.593123 0.23423,0.499078 0.357947,1.032209 0.47594,1.566831 1.080532,4.895818 -4.058824,5.974442 -4.956286,1.041797 -0.02548,-0.140052 -0.05103,-0.279937 -0.08578,-0.418063 -0.0048,-0.03728 0.07923,-0.07819 0.04961,-0.101288 -0.150979,-0.117737 -0.324119,-0.205197 -0.47077,-0.329178 -0.621718,-0.369719 -1.223838,-0.739926 -1.929082,-0.933276 -0.940615,-0.355388 -1.937245,-0.537549 -2.907316,-0.794268 -1.775563,-0.227545 -3.561072,-0.353428 -5.342311,-0.529164 -2.418334,-0.215411 -4.843883,-0.355548 -7.270874,-0.423749 -1.81261,-0.047 -3.625818,-0.02749 -5.438944,-0.03049 -0.339064,-5.29e-4 -0.652992,-0.02617 -0.946195,-0.06976 -1.015961,1.578727 -2.6026,1.744401 -3.56464,0.77773 -0.989128,-0.389732 -1.820216,-1.589384 -1.819011,-3.604432 7.67e-4,-1.302944 0.09755,-2.602408 0.732255,-3.773411 0.413436,-0.762773 0.895033,-1.321295 1.395264,-1.704808 0.4334,-0.798669 1.100278,-1.243661 1.826245,-1.244368 z m 143.346285,5.984131 c 3.45873,0.120142 3.88138,4.037716 -0.38964,5.102014 -0.84144,0.209679 -1.68495,0.414954 -2.5094,0.686263 -1.32936,0.429299 -2.64735,0.892577 -3.98219,1.303795 -4.79143,1.47606 -6.17554,-3.3708 -1.39113,-4.869469 1.2777,-0.40023 2.54201,-0.841782 3.81631,-1.25367 0.93411,-0.30672 1.88843,-0.543758 2.84168,-0.781349 0.45607,-0.11367 0.88014,-0.172997 1.27021,-0.187068 0.11783,-0.0043 0.23259,-0.0044 0.34416,-5.29e-4 z M 87.307393,-20.34156 c 3.118191,0.06737 3.726587,3.682233 -0.250114,5.124749 -2.106369,0.76409 -4.222763,1.500608 -6.315376,2.302187 -3.226695,1.268698 -6.528729,2.512997 -9.376172,4.5335721 -0.358553,0.2544366 -0.708247,0.4537075 -1.046964,0.6082321 0.143732,0.1547495 0.283167,0.314288 0.426847,0.4687068 0.333756,0.3416061 0.667218,0.6836304 1.000974,1.0252604 3.503623,3.586218 -0.123994,7.12691983 -3.624069,3.5372516 l -1.085723,-1.1136286 c -1.582621,-1.7030356 -3.174892,-3.4192686 -4.491199,-5.341792 -1.858762,-2.7148344 -0.694386,-4.8501484 1.133782,-4.8332974 0.957617,0.0088 2.097553,0.607952 3.080432,2.02365 0.140648,0.202581 0.310203,0.383135 0.457335,0.580842 0.274566,-0.322381 0.615858,-0.642942 1.039215,-0.952912 3.210528,-2.350678 6.955705,-3.799703 10.629842,-5.248259 2.134671,-0.819717 4.294182,-1.571012 6.443535,-2.35076 0.736404,-0.26716 1.400212,-0.376282 1.977655,-0.363802 z m -34.10076,10.9088926 c 0.07749,-0.00288 0.156518,-0.00267 0.237195,5.291e-4 0.429365,0.016537 0.912278,0.1550564 1.417484,0.3632835 0.15622,-0.035608 0.32137,-0.058391 0.496611,-0.063561 0.767124,-0.022622 1.707568,0.260596 2.740917,0.9699678 1.307081,0.8972523 2.261317,2.1864822 3.146062,3.4788554 0.690804,1.0654506 1.22178,2.2165839 1.975073,3.2416644 0.362087,0.54023156 0.756626,1.04913115 1.210778,1.5136019 3.04909,3.1183765 0.655196,6.2115885 -2.2996,4.5785326 C 61.387166,4.9422906 60.389155,4.9952416 59.15924,4.6145486 58.153842,4.3033404 57.163618,3.9515556 56.207483,3.5081563 54.732172,2.8612765 53.30078,2.1196494 51.94056,1.2540307 c -3.304491,-2.10291895 -2.536003,-5.2498096 -0.01705,-5.254461 0.705296,-0.00132 1.548059,0.2436019 2.476851,0.8268229 0.08329,0.0523 0.168483,0.1013619 0.252181,0.1529636 -0.474232,-0.4717018 -0.975748,-0.914064 -1.533757,-1.2898438 -3.147328,-2.1195056 -2.314381,-5.0326025 0.08785,-5.1221693 z" /></clipPath><clipPath
       clipPathUnits="userSpaceOnUse"
       id="clipPath170"><path
         id="path171"
         style="fill:#ff0000;fill-opacity:1;fill-rule:nonzero;stroke:none;stroke-width:0.264583"
         d="M 38.805445,-199.54148 V -9.4026928 H 190.89435 V -199.54148 Z m 94.478985,107.045666 c 0.43489,0.0064 -0.002,0.7263 -0.44752,1.611273 0.55395,-0.36581 1.3016,-0.639879 2.25465,-0.749826 1.26713,-0.146188 0.61821,-0.0715 1.94665,-0.225309 1.75473,-0.191775 3.51671,-0.400576 5.28288,-0.419097 5.01338,-0.05258 5.013,4.983779 0,5.064807 -1.58106,0.02556 -3.15925,0.215522 -4.73046,0.388607 -0.20498,0.02376 -0.17931,0.02082 -0.30282,0.03514 -0.0401,0.02257 -0.0636,0.04908 -0.10491,0.07132 -1.08467,0.583679 -1.99481,1.400532 -2.90473,2.216402 -0.54635,0.53268 -0.25881,0.255997 -0.86455,0.828889 -2.39335,2.263619 -4.67328,1.430525 -4.95163,-0.37052 -1.03493,-0.731499 -1.36758,-2.476606 0.0501,-4.520136 0.93431,-1.346727 1.99341,-2.63719 3.46853,-3.415298 0.69289,-0.36549 1.09678,-0.519308 1.30379,-0.516247 z" /></clipPath></defs><g
     id="layer1"
     transform="translate(19.146713,233.4023)"><path
       style="fill:#000000"
       d="m 35.162527,-5.151632 c -0.547553,-0.2522279 -2.476098,-0.4175314 -6.217708,-0.5329451 -2.983177,-0.092019 -6.138333,-0.3188214 -7.011458,-0.5040051 -1.312301,-0.2783299 -1.601958,-0.4383801 -1.670901,-0.9232581 -0.06302,-0.4432395 -0.321617,-0.630307 -1.058333,-0.765599 -0.536213,-0.098471 -2.496784,-0.698438 -4.356825,-1.3332597 -1.860041,-0.6348217 -4.479416,-1.700462 -5.8208329,-2.368089 -1.3414173,-0.667627 -3.7735986,-2.104462 -5.4048474,-3.192967 -1.6312487,-1.088505 -3.90530786,-2.893032 -5.0534647,-4.010062 -1.1481569,-1.117029 -2.6814347,-2.923931 -3.407284,-4.015337 -0.7258494,-1.091406 -2.1253315,-3.392021 -3.1099604,-5.112478 -0.9846288,-1.720457 -2.3828436,-4.384435 -3.1071446,-5.919952 -0.724301,-1.535517 -1.834243,-4.354589 -2.466539,-6.264605 -0.632295,-1.910016 -1.399345,-4.69984 -1.704555,-6.199609 -0.30521,-1.499769 -0.690534,-4.622582 -0.856275,-6.939584 -0.227423,-3.179296 -0.225648,-5.171494 0.0072,-8.121063 0.169722,-2.149582 0.491751,-4.679905 0.715619,-5.62294 0.223868,-0.943034 0.660894,-1.984831 0.97117,-2.315104 0.310275,-0.330273 0.853513,-0.600496 1.207195,-0.600496 0.353683,0 1.199387,0.279428 1.879344,0.62095 0.679956,0.341523 1.7092781,0.924392 2.2873824,1.295264 0.5781042,0.370872 2.0631297,1.522592 3.3000568,2.559378 2.165303,1.814946 2.2624608,1.865183 2.6119591,1.35057 0.1996505,-0.293973 0.6500929,-0.534495 1.0009832,-0.534495 0.3508902,0 1.22189528,0.295891 1.93556676,0.657535 0.71367149,0.361645 2.47532914,1.544719 3.91479484,2.629053 1.4394656,1.084334 4.3689982,3.662968 6.5100719,5.730297 l 3.892862,3.758779 -0.209682,-1.82377 c -0.115325,-1.003073 -0.209682,-3.192989 -0.209682,-4.866478 0,-1.67349 0.0828,-3.660281 0.183997,-4.415093 l 0.183996,-1.372384 -1.214497,-0.711742 c -0.667973,-0.391459 -1.906204,-1.40776 -2.751625,-2.258448 -0.8454208,-0.850689 -2.0195194,-2.289089 -2.6091078,-3.196446 -0.5895884,-0.907356 -1.3173433,-2.305534 -1.6172331,-3.107061 -0.2998898,-0.801528 -0.7299007,-2.350179 -0.9555798,-3.441447 -0.3077462,-1.488103 -0.3765488,-2.945529 -0.2752158,-5.829814 0.1054672,-3.00196 0.2783433,-4.344131 0.7879638,-6.117575 0.3590698,-1.249537 1.0720848,-3.24156 1.5844778,-4.426718 l 0.9316236,-2.154831 -1.433962,-0.65649 c -0.7886791,-0.361069 -2.8251895,-1.583734 -4.5255786,-2.717032 -2.09367806,-1.395427 -4.0381227,-2.999987 -6.0238955,-4.970957 -1.6127534,-1.60073 -3.4906746,-3.70491 -4.1731581,-4.67596 -0.6824835,-0.97105 -1.7099682,-2.70561 -2.2832995,-3.85457 -0.573331,-1.14897 -1.123729,-2.43807 -1.223107,-2.86467 -0.09938,-0.4266 -0.479563,-1.2992 -0.844857,-1.93912 -0.615086,-1.07749 -0.653285,-1.34147 -0.516865,-3.57187 0.08102,-1.32462 0.375012,-3.12594 0.653319,-4.00293 l 0.506012,-1.59455 -1.617411,-1.76698 c -0.889577,-0.97185 -2.123876,-2.61255 -2.742887,-3.64601 -0.619012,-1.03345 -1.419246,-2.75414 -1.778299,-3.82374 -0.359053,-1.0696 -0.788338,-3.13646 -0.953966,-4.59302 -0.224031,-1.97017 -0.22492,-3.37096 -0.0035,-5.47047 0.183825,-1.74284 0.606615,-3.74432 1.105483,-5.23334 0.444298,-1.32614 1.240794,-3.132 1.769991,-4.01301 0.529197,-0.88101 1.750642,-2.38352 2.714323,-3.3389 0.963681,-0.95539 2.459927,-2.14259 3.324991,-2.63822 0.8650636,-0.49564 2.4600969,-1.15754 3.544518,-1.47089 l 1.9716748,-0.56973 0.8336715,-2.48059 c 0.4585193,-1.36433 1.2550487,-3.31403 1.7700654,-4.33268 0.5150167,-1.01864 1.76198396,-3.10224 2.77103845,-4.63021 1.00905445,-1.52796 2.47882515,-3.55203 3.26615705,-4.49791 0.7873318,-0.94589 2.5046772,-2.78006 3.8163231,-4.07593 1.3116459,-1.29588 3.5754357,-3.31164 5.0306437,-4.47946 1.455208,-1.16783 3.89599,-2.94026 5.423958,-3.93873 1.527969,-0.99847 4.147344,-2.51146 5.820833,-3.3622 1.67349,-0.85074 4.411927,-2.08444 6.085417,-2.74156 1.673489,-0.65711 4.59052,-1.62174 6.482291,-2.14362 1.891771,-0.52187 4.830176,-1.18476 6.52979,-1.47308 1.699614,-0.28832 5.003598,-0.66053 7.342187,-0.82714 3.204429,-0.22828 5.311234,-0.22756 8.551459,0.003 2.364714,0.16823 5.430573,0.48668 6.813021,0.70769 1.382448,0.221 3.634398,0.64365 5.004334,0.93922 1.369935,0.29557 3.901761,1.00406 5.626279,1.57442 1.724519,0.57035 4.294599,1.55863 5.711291,2.19616 1.416692,0.63754 3.290178,1.54471 4.163303,2.01593 0.873125,0.47123 2.897187,1.72558 4.497916,2.78744 1.600729,1.06187 4.062209,2.88571 5.469954,4.05297 1.407746,1.16727 3.431808,3.12294 4.497922,4.34594 l 1.93838,2.22364 0.14962,-15.24034 c 0.11693,-11.91009 0.22894,-15.4716 0.51259,-16.29868 0.19964,-0.58208 0.87086,-1.85707 1.49161,-2.83332 0.78265,-1.23087 1.56142,-2.06234 2.54046,-2.71239 0.77652,-0.51558 2.06875,-1.16829 2.87164,-1.45049 0.80289,-0.28219 2.37581,-0.59608 3.49537,-0.69753 l 2.03558,-0.18446 v -1.02184 -1.02184 h -7.80521 -7.8052 l -0.003,0.8599 c -0.001,0.47294 -0.28288,1.46182 -0.625459,2.19752 -0.34258,0.7357 -1.135642,1.77654 -1.762359,2.31299 -0.626718,0.53645 -1.803778,1.22507 -2.615689,1.53028 -0.811911,0.3052 -2.085339,0.61882 -2.829841,0.69693 -0.991574,0.10403 -1.826546,-0.0154 -3.121684,-0.44635 -1.327929,-0.44191 -2.150085,-0.94207 -3.30278,-2.00926 -1.057304,-0.97888 -1.770982,-1.93795 -2.29417,-3.08302 -0.646848,-1.4157 -0.759236,-1.99553 -0.758094,-3.91107 10e-4,-1.73482 0.131431,-2.53527 0.570381,-3.50132 0.312971,-0.6888 0.883404,-1.66452 1.267628,-2.16826 0.384224,-0.50375 1.280438,-1.28927 1.991587,-1.74561 0.71115,-0.45635 1.922404,-0.99727 2.691677,-1.20204 0.769273,-0.20478 1.834554,-0.37374 2.367292,-0.37547 0.532738,-0.002 1.723363,0.23345 2.645833,0.52262 1.630447,0.51109 2.484,0.52585 30.608018,0.52916 28.70644,0.003 28.9451,-9.2e-4 30.77385,-0.55639 1.27836,-0.38829 2.30425,-0.52584 3.34836,-0.44894 0.84943,0.0626 2.16203,0.41256 3.01252,0.80327 0.82896,0.38082 2.02243,1.20793 2.65215,1.838 0.62972,0.63008 1.43839,1.74091 1.79704,2.46852 0.56049,1.13708 0.65251,1.69458 0.65509,3.96875 0.003,2.35601 -0.0769,2.80848 -0.72647,4.13062 -0.4049,0.82416 -1.36041,2.0815 -2.14756,2.82596 -1.13325,1.07179 -1.7994,1.457 -3.31638,1.91777 -1.46315,0.44441 -2.22805,0.53538 -3.33693,0.39683 -0.79127,-0.0989 -2.1481,-0.53426 -3.01518,-0.96754 -0.86709,-0.43329 -1.95833,-1.22266 -2.42499,-1.75415 -0.46666,-0.5315 -1.06597,-1.45804 -1.33179,-2.05899 -0.26583,-0.60094 -0.5121,-1.47019 -0.54726,-1.93167 l -0.0639,-0.83904 h -8.80726 -8.80727 v 1.05833 1.05834 h 1.26733 c 0.69703,0 1.94919,0.1776 2.78257,0.39467 0.83338,0.21707 2.0879,0.68485 2.7878,1.03952 0.69991,0.35467 1.93797,1.36358 2.75125,2.24201 0.90477,0.97726 1.71829,2.19119 2.09603,3.12767 l 0.61735,1.5305 0.2307,63.89687 c 0.12688,35.14328 0.24203,70.266718 0.25589,78.052082 0.0238,13.379137 -0.007,14.358291 -0.5595,17.859374 -0.32159,2.037291 -0.8876,4.950933 -1.2578,6.47476 -0.3702,1.523826 -1.08428,3.798319 -1.58684,5.05443 -0.50256,1.25611 -1.34511,3.059941 -1.87235,4.008515 -0.52723,0.948573 -1.6593,2.535039 -2.51572,3.525479 -0.85642,0.990441 -1.55712,1.89867 -1.55712,2.018287 0,0.119617 1.99429,0.217586 4.43177,0.217707 2.43747,1.22e-4 5.74146,0.12354 7.34218,0.274264 1.60073,0.150723 3.38667,0.398048 3.96875,0.549611 0.58209,0.151563 1.93511,0.710902 3.00671,1.242976 1.32133,0.656068 2.36901,1.427649 3.25539,2.397494 0.71886,0.786548 1.59493,1.998237 1.94681,2.692641 0.35188,0.694405 0.87821,2.122949 1.16962,3.174542 0.29141,1.051594 0.60867,2.956295 0.70503,4.232671 0.17024,2.255143 0.15574,2.340126 -0.51331,3.009175 l -0.68849,0.688494 -34.56017,-0.06907 -34.560165,-0.06907 -0.638523,-0.742358 c -0.374785,-0.435731 -0.638523,-1.077499 -0.638523,-1.553751 0,-0.618244 -0.07873,-0.746442 -0.330729,-0.538544 -0.181901,0.150067 -1.745727,0.87949 -3.475169,1.620939 -1.729442,0.74145 -5.301317,2.120876 -7.9375,3.065392 -2.636182,0.944515 -5.626496,1.9475386 -6.645142,2.2289403 -1.018646,0.2814018 -2.923646,0.7177344 -4.233333,0.9696282 -1.769842,0.3403957 -4.048354,0.4756284 -8.874109,0.5266902 -5.724754,0.060574 -6.695061,0.1335996 -8.202083,0.6172889 -0.940073,0.301723 -2.840318,0.7920063 -4.222766,1.0895184 -1.63801,0.352511 -3.942039,0.5870164 -6.614583,0.6732364 -3.156092,0.1018199 -4.283934,0.048056 -4.894791,-0.2333324 z M 48.28477,-9.193916 c 1.105358,-0.2084444 3.764964,-0.900317 5.910234,-1.537495 2.14527,-0.637177 3.770964,-1.028977 3.612652,-0.870666 -0.158311,0.158312 -0.287838,0.460236 -0.287838,0.670943 0,0.32527 0.649055,0.358925 4.299478,0.222941 2.795611,-0.104141 5.224937,-0.35564 6.945313,-0.719021 1.455208,-0.307372 4.134114,-1.0397 5.953124,-1.627397 1.819011,-0.587696 5.033698,-1.765562 7.14375,-2.61748 2.110052,-0.851918 5.086481,-2.178491 6.614287,-2.94794 l 2.777828,-1.398998 0.540157,-1.601925 c 0.297087,-0.881059 0.858498,-2.145132 1.247581,-2.809052 0.389083,-0.663919 1.383145,-1.824698 2.209028,-2.579509 0.825883,-0.75481 2.067253,-1.659018 2.758601,-2.00935 0.691347,-0.350332 2.024635,-0.829792 2.962855,-1.065465 1.62662,-0.408595 1.7457,-0.494251 2.56385,-1.844192 0.4719,-0.778632 1.2758,-2.382062 1.78645,-3.563176 0.51064,-1.181114 1.17798,-3.302634 1.48296,-4.714489 0.42687,-1.976145 0.55812,-3.541418 0.57021,-6.800341 0.0117,-3.146486 -0.10813,-4.81072 -0.46664,-6.482291 -0.26529,-1.236927 -0.84864,-3.129739 -1.29634,-4.20625 -0.44769,-1.07651 -1.38831,-2.815981 -2.09026,-3.86549 -0.70196,-1.04951 -1.45428,-2.055922 -1.67183,-2.236472 -0.32612,-0.270658 -0.68227,-0.136802 -2.02927,0.762689 -0.89855,0.600028 -2.642001,1.569991 -3.874337,2.155473 -1.232336,0.585481 -3.127696,1.362297 -4.211911,1.726256 -1.084215,0.363959 -3.124154,0.903017 -4.533197,1.197907 -1.409044,0.294889 -4.169241,0.6372 -6.133772,0.760689 -2.014998,0.126662 -5.186414,0.12212 -7.276041,-0.01042 -2.037292,-0.129221 -4.8905,-0.479709 -6.340463,-0.778861 -1.449963,-0.299153 -3.474025,-0.790407 -4.497916,-1.091676 -1.023892,-0.301269 -2.814121,-0.849655 -3.978287,-1.218636 -1.164167,-0.368982 -3.604948,-1.336542 -5.423958,-2.150135 -1.819011,-0.813594 -4.497917,-2.142934 -5.953125,-2.954091 -1.455208,-0.811156 -3.394867,-1.983567 -4.310353,-2.605357 -0.915485,-0.62179 -2.305093,-1.652282 -3.088016,-2.289982 -1.214962,-0.9896 -1.470649,-1.102639 -1.745367,-0.771624 -0.177028,0.213306 -0.716256,0.574978 -1.198284,0.803715 -0.482027,0.228737 -1.194246,0.832586 -1.582709,1.341886 -0.388462,0.509301 -1.436189,1.464073 -2.328283,2.121717 -0.892093,0.657643 -2.514956,1.642219 -3.606362,2.187946 -1.091406,0.545728 -2.639219,1.215064 -3.439583,1.487414 -1.145875,0.389921 -2.101998,0.482434 -4.497917,0.435213 -1.673489,-0.03298 -3.332981,-0.09026 -3.687759,-0.127294 -0.554788,-0.0579 -0.67846,0.08077 -0.883799,0.991008 -0.131312,0.582084 -0.178249,2.78474 -0.104306,4.894792 0.09384,2.677877 0.34827,4.875186 0.842498,7.276041 0.389429,1.891771 1.121171,4.689739 1.626093,6.217708 0.504921,1.527969 1.618922,4.238395 2.475558,6.023169 0.856635,1.784774 2.18851,4.166024 2.959721,5.291666 0.771211,1.125643 2.473765,3.165484 3.783452,4.53298 1.309688,1.367497 3.256321,3.137132 4.325851,3.932522 1.069531,0.79539 2.9384,1.974835 4.153043,2.620989 1.214642,0.646153 2.946325,1.463999 3.848183,1.817435 0.901858,0.353435 3.021583,0.955122 4.710499,1.337081 2.518492,0.569572 3.736938,0.694738 6.774923,0.695957 3.21452,0.0013 3.969729,-0.08443 5.713143,-0.648447 1.104937,-0.357463 2.57263,-1.037736 3.261539,-1.511717 0.688908,-0.473982 1.654901,-1.490744 2.14665,-2.259471 0.491749,-0.768727 1.033484,-1.951275 1.203856,-2.627884 0.190338,-0.755901 0.258751,-2.323403 0.177445,-4.065677 -0.0977,-2.093584 -0.322362,-3.423912 -0.858648,-5.084437 -0.399479,-1.236927 -1.142741,-3.082395 -1.651693,-4.101041 -0.508951,-1.018646 -1.437077,-2.62599 -2.062501,-3.571875 -0.625424,-0.945885 -1.971487,-2.542726 -2.991251,-3.548534 -1.019763,-1.005809 -2.624046,-2.324124 -3.565073,-2.92959 -0.941026,-0.605466 -2.518736,-1.366023 -3.506021,-1.690125 -0.987285,-0.324103 -2.756818,-0.711627 -3.932296,-0.861165 -1.527444,-0.194313 -2.836685,-0.184959 -4.588725,0.03278 -1.348321,0.167569 -2.806837,0.414893 -3.241146,0.549609 -0.434309,0.134717 -1.149138,0.356349 -1.588508,0.492517 -0.43937,0.136168 -0.737971,0.149066 -0.663558,0.02866 0.07441,-0.120404 0.902541,-0.588951 1.840282,-1.041215 0.937742,-0.452265 2.516265,-1.013416 3.507829,-1.247002 1.329987,-0.313311 2.566198,-0.389026 4.71326,-0.288676 1.9064,0.0891 3.412834,0.314221 4.366811,0.652573 0.801017,0.2841 2.170236,0.877472 3.042708,1.318604 0.872473,0.441133 2.246108,1.320806 3.052524,1.954829 0.806416,0.634024 1.947663,1.688552 2.536105,2.343396 0.588443,0.654844 1.570522,1.8766 2.182399,2.715015 0.611878,0.838414 1.658261,2.606528 2.325297,3.929142 0.667036,1.322613 1.554856,3.477764 1.972934,4.789224 0.418078,1.311459 0.899246,3.429262 1.069262,4.706227 0.237052,1.780459 0.235934,2.775906 -0.0048,4.269719 -0.172656,1.07138 -0.673565,2.687106 -1.113131,3.590503 -0.468585,0.963037 -1.257706,2.034995 -1.907514,2.591207 -0.609567,0.521766 -1.600472,1.223744 -2.202011,1.559951 -0.601539,0.336206 -2.092099,0.889279 -3.312356,1.229051 -1.869614,0.520581 -2.843004,0.618091 -6.187397,0.619826 -3.419291,0.0018 -4.407596,-0.100447 -7.138538,-0.738346 -1.743384,-0.407222 -4.065102,-1.094959 -5.159375,-1.528303 -1.094273,-0.433345 -2.882555,-1.268458 -3.973961,-1.855807 -1.091407,-0.587349 -2.758281,-1.614723 -3.704167,-2.283054 -0.945885,-0.668331 -2.939026,-2.398249 -4.429203,-3.844261 -1.495856,-1.451525 -3.40741,-3.648828 -4.26778,-4.90575 -0.857103,-1.25215 -2.204979,-3.526793 -2.99528,-5.054761 -0.790302,-1.527969 -1.776179,-3.611563 -2.19084,-4.630208 -0.41466,-1.018646 -1.276936,-2.65154 -1.916169,-3.628653 -0.639233,-0.977113 -2.148986,-2.882112 -3.355006,-4.233333 -1.206021,-1.35122 -3.6702269,-3.833228 -5.4760135,-5.515573 -1.8057867,-1.682345 -4.2241518,-3.855235 -5.3741448,-4.828645 -1.1499929,-0.973411 -2.19178972,-1.769837 -2.31510402,-1.769837 -0.1233143,0 -0.22420781,0.909007 -0.22420781,2.020015 0,1.111008 -0.1396427,2.777883 -0.31031711,3.704166 -0.17067441,0.926284 -0.38995327,1.684152 -0.48728637,1.684152 -0.0973331,0 -0.32839599,-0.506016 -0.51347309,-1.124479 -0.1850771,-0.618464 -0.6739733,-1.779323 -1.0864361,-2.579688 -0.4124627,-0.800364 -0.9868858,-1.804065 -1.2764957,-2.230446 -0.2896099,-0.426381 -1.3376066,-1.599163 -2.3288815,-2.606183 -0.9912749,-1.00702 -2.7525199,-2.548573 -3.913878,-3.425674 l -2.111559,-1.594727 -0.188201,0.905817 c -0.103511,0.498199 -0.314168,2.133334 -0.468128,3.633632 -0.15396,1.500299 -0.279927,3.910518 -0.279927,5.356043 0,1.445526 0.123043,3.784395 0.273429,5.197487 0.150386,1.413093 0.512518,3.802033 0.804739,5.308756 0.29222,1.506723 0.928157,3.887973 1.413194,5.291666 0.485036,1.403694 1.367479,3.564201 1.9609848,4.801128 0.5935058,1.236927 1.7805499,3.328437 2.6378758,4.647799 0.8573258,1.319362 2.380953,3.27271 3.3858381,4.340775 1.0048851,1.068064 2.54143883,2.540993 3.41456378,3.273175 0.87312492,0.732183 1.34937492,1.235069 1.05833332,1.117525 -0.2910417,-0.117543 -1.05481296,-0.37821 -1.69726952,-0.57926 -0.64245656,-0.201049 -1.23100548,-0.302642 -1.30788648,-0.225761 -0.076881,0.07688 0.74672128,1.009212 1.83022741,2.071847 1.08350609,1.062635 2.39620489,2.220336 2.91710839,2.572669 0.5209034,0.352333 1.6344233,1.098739 2.4744885,1.65868 0.8400653,0.559942 2.6757591,1.590283 4.0793199,2.289649 1.40356,0.699365 3.583692,1.633326 4.844737,2.075468 1.261044,0.442143 3.17547,0.986215 4.25428,1.209049 1.078809,0.222834 3.111699,0.438083 4.517533,0.478331 1.405833,0.04025 2.557266,0.09865 2.55874,0.129785 0.0015,0.03113 -0.441678,0.358556 -0.984782,0.7276045 -0.543103,0.3690482 -0.870525,0.6710963 -0.727604,0.6712179 0.142921,1.216e-4 1.564832,0.1239688 3.159802,0.2752158 2.032993,0.1927837 3.96622,0.1898522 6.466619,-0.00981 1.961671,-0.1566404 5.002476,-0.5669676 6.757346,-0.9118381 1.754869,-0.3448701 3.547859,-0.7143111 3.984422,-0.8209801 0.655675,-0.160206 0.540613,-0.02048 -0.661458,0.8032525 -0.800365,0.5484575 -1.574271,1.1149748 -1.719792,1.2589272 -0.174551,0.1726697 0.41066,0.1990784 1.719792,0.077609 1.091406,-0.1012676 2.888759,-0.3546683 3.994118,-0.5631127 z m 110.2986,-9.53972 c -0.32177,-1.28905 -0.86094,-2.890435 -1.19816,-3.558633 -0.33723,-0.668199 -1.2739,-1.818814 -2.08151,-2.556923 -1.05201,-0.961477 -1.9383,-1.495017 -3.12561,-1.881596 -0.91148,-0.29677 -2.60974,-0.668392 -3.7739,-0.825828 -1.16417,-0.157436 -4.95845,-0.39986 -8.43175,-0.538721 -3.47329,-0.138861 -6.60232,-0.180382 -6.95339,-0.09227 -0.4658,0.116908 -0.59744,0.289 -0.48707,0.636732 0.12041,0.379401 -0.206,0.652392 -1.60149,1.339391 -1.69753,0.835689 -1.85828,0.862961 -5.1041,0.865925 -1.85535,0.0017 -3.84801,-0.140597 -4.46394,-0.31876 -0.61191,-0.177002 -1.28235,-0.491598 -1.48986,-0.699105 -0.2075,-0.207506 -0.435,-0.319567 -0.50554,-0.249024 -0.0705,0.07054 -0.0819,-0.292315 -0.0253,-0.806349 0.0911,-0.82628 0.0333,-0.934407 -0.49855,-0.932872 -0.33085,9.55e-4 -3.22092,0.122754 -6.42237,0.270665 -3.20146,0.14791 -6.8924,0.445872 -8.20209,0.662137 -1.30968,0.216265 -3.04642,0.637496 -3.85941,0.936069 -0.812996,0.298573 -2.072971,1.063176 -2.799948,1.699118 -0.87716,0.767318 -1.555637,1.677366 -2.017003,2.705426 -0.382374,0.852042 -0.922835,2.526664 -1.201025,3.721382 l -0.505799,2.172214 32.443675,0.06719 c 17.84402,0.03695 32.54391,-0.0092 32.66641,-0.102628 0.1225,-0.0934 -0.0405,-1.224492 -0.3623,-2.513541 z m -29.9175,-9.984272 c 0.22332,-0.269086 0.34554,-13.480724 0.4669,-50.469268 0.0904,-27.557624 0.2131,-51.934104 0.27263,-54.169974 0.0947,-3.55775 0.0519,-4.12747 -0.34322,-4.56406 -0.37822,-0.41792 -0.83541,-0.49885 -2.81787,-0.49885 -1.58848,0 -2.65028,0.1347 -3.22994,0.40977 -0.79992,0.37959 -0.87596,0.52864 -1.03217,2.02319 -0.0928,0.88737 -0.1672,2.04243 -0.16545,2.56678 0.002,0.52436 0.29793,1.46894 0.65817,2.09908 0.36024,0.63013 0.84447,1.70169 1.07606,2.38125 0.37961,1.11389 0.41796,6.12693 0.38948,50.911068 l -0.0316,49.675518 h 2.22724 c 1.56908,0 2.31664,-0.107712 2.52976,-0.364504 z m -20.49273,-4.096488 c 0.86414,-0.880938 1.96629,-2.228399 2.44925,-2.994357 0.48295,-0.765959 1.10892,-2.009619 1.39106,-2.76369 0.28213,-0.754071 0.7109,-2.424442 0.95281,-3.711936 0.31382,-1.670186 0.40281,-3.174789 0.31058,-5.251315 -0.0853,-1.92118 -0.31784,-3.494966 -0.68406,-4.630208 -0.30513,-0.945886 -1.00443,-2.48616 -1.55398,-3.422833 -0.54956,-0.936672 -1.6033,-2.305891 -2.34165,-3.042708 -0.73835,-0.736817 -1.94463,-2.236111 -2.68062,-3.331763 -0.73599,-1.095653 -1.55923,-2.167216 -1.82944,-2.38125 -0.47461,-0.375952 -0.47572,-0.366714 -0.0328,0.272304 0.25213,0.363802 1.03045,1.613958 1.72959,2.778125 0.69914,1.164167 1.46773,2.652448 1.70798,3.307292 0.24025,0.654843 0.67371,2.143124 0.96325,3.307291 0.28955,1.164167 0.65769,3.327973 0.81811,4.808459 0.2093,1.931602 0.21204,3.500746 0.01,5.55625 -0.15508,1.575451 -0.57981,4.071796 -0.94385,5.547433 -0.36403,1.475637 -0.95466,3.403496 -1.31249,4.284132 -0.35784,0.880636 -0.88214,2.013377 -1.16512,2.517202 -0.28298,0.503825 -0.44777,0.982792 -0.36619,1.064371 0.0816,0.08158 0.34148,0.04496 0.57754,-0.08138 0.23607,-0.126341 1.13624,-0.950478 2.00037,-1.831415 z m 11.98466,-38.533797 0.064,-40.216667 -0.64828,1.39146 c -0.35655,0.7653 -1.03291,1.95593 -1.50301,2.64584 -0.47009,0.6899 -1.63593,2.07201 -2.59074,3.07134 -0.95482,0.99934 -2.56946,2.49721 -3.58811,3.32862 -1.01865,0.83141 -2.71751,2.022958 -3.77525,2.647888 -1.67367,0.988828 -1.87962,1.191427 -1.5875,1.561662 0.18462,0.233984 1.13027,1.353972 2.10146,2.488862 0.97118,1.134889 2.19865,2.715576 2.72771,3.512638 0.52906,0.797061 1.26037,2.101079 1.62513,2.897816 0.36475,0.796737 0.89703,2.254172 1.18283,3.238744 0.2858,0.984572 0.59066,2.921225 0.67747,4.303672 0.0868,1.382448 0.0299,3.327891 -0.1264,4.323207 -0.15633,0.995316 -0.63434,2.557818 -1.06225,3.472227 -0.4279,0.914409 -1.22784,2.160476 -1.77764,2.769038 -0.5498,0.608563 -1.49895,1.399095 -2.10922,1.756739 -0.61027,0.357645 -1.66203,0.838498 -2.33724,1.068564 -0.6752,0.230065 -1.22764,0.538152 -1.22764,0.684638 0,0.146485 1.51805,1.848738 3.37344,3.782785 1.85539,1.934046 3.77284,4.180824 4.26101,4.99284 0.48816,0.812016 1.18661,2.216743 1.55211,3.121616 0.36549,0.904873 0.82513,2.54541 1.02142,3.645638 0.19629,1.100228 0.36007,2.893384 0.36395,3.98479 0.004,1.091406 -0.11276,3.030163 -0.25921,4.308348 -0.14644,1.278185 -0.62108,3.431626 -1.05474,4.785425 -0.43366,1.353799 -1.27994,3.225042 -1.88062,4.158318 -0.60068,0.933277 -1.19663,1.736554 -1.32434,1.785061 -0.1277,0.04851 -0.23219,0.259967 -0.23219,0.469912 0,0.319074 0.66217,0.369732 4.0349,0.308681 l 4.03489,-0.07304 z m 16.19874,36.512498 c 0.69886,-0.873125 1.69301,-2.361406 2.20923,-3.307292 0.51622,-0.945885 1.31538,-2.672291 1.77591,-3.836458 0.46053,-1.164166 1.17595,-3.604947 1.58983,-5.423958 0.41388,-1.81901 0.96798,-4.914635 1.23134,-6.879166 0.39919,-2.977755 0.4782,-5.442252 0.47499,-14.816666 -0.002,-6.184635 -0.15095,-19.020113 -0.33073,-28.523285 -0.17978,-9.50317 -0.32688,-27.57078 -0.32688,-40.15024 v -22.87175 l -1.52135,1.15458 c -0.83675,0.63503 -2.05714,1.36328 -2.71198,1.61834 -0.65485,0.25507 -2.23243,0.5258 -3.50573,0.60163 l -2.31511,0.13788 v 3.875 3.87501 l -0.77428,0.45738 -0.77429,0.45738 -0.0856,3.89914 c -0.0815,3.71209 -0.0571,3.93503 0.50978,4.64714 0.32747,0.4114 0.67263,1.05576 0.76704,1.43191 0.0944,0.37615 0.10522,24.64672 0.024,53.934604 -0.0812,29.287884 -0.0764,53.321911 0.0106,53.408949 0.087,0.08704 0.68122,-0.350447 1.32041,-0.972189 0.63918,-0.621741 1.73394,-1.844814 2.43279,-2.717939 z M 83.713566,-59.31661 c 1.091406,-0.140362 3.193864,-0.556981 4.672129,-0.92582 1.478265,-0.368839 3.848488,-1.142903 5.267162,-1.720142 1.418675,-0.577239 3.185748,-1.429679 3.926829,-1.89431 0.741082,-0.464631 1.385503,-0.87021 1.432048,-0.901286 0.04654,-0.03108 -1.122419,-1.252626 -2.597697,-2.714555 -2.535712,-2.512768 -2.721109,-2.642994 -3.391918,-2.382531 -0.390277,0.151537 -1.384786,0.373259 -2.210019,0.492716 -0.825233,0.119457 -2.282818,0.120164 -3.239077,0.0016 -0.982465,-0.121842 -2.486475,-0.56557 -3.458067,-1.020233 -1.005208,-0.470394 -2.276188,-1.361386 -3.059822,-2.14502 -0.79079,-0.79079 -1.674963,-2.055332 -2.156316,-3.083961 -0.56292,-1.202933 -0.855079,-2.291043 -0.942243,-3.50927 -0.06949,-0.971145 0.01632,-2.452893 0.190679,-3.292773 0.174359,-0.839881 0.803727,-2.504061 1.398596,-3.698179 0.787995,-1.58179 1.590207,-2.679725 2.955378,-4.044828 1.030588,-1.030538 2.647703,-2.302315 3.593588,-2.826172 0.945885,-0.523857 3.624791,-1.599892 5.953125,-2.391189 2.328333,-0.791297 5.348143,-1.871597 6.710688,-2.400665 1.362541,-0.529069 3.327081,-1.400769 4.365621,-1.937112 1.03855,-0.53634 2.95881,-1.69661 4.26724,-2.57837 1.30843,-0.88176 3.35929,-2.5808 4.55747,-3.77565 1.19818,-1.19484 2.8686,-3.10316 3.71203,-4.2407 0.84344,-1.13754 1.97652,-2.96482 2.51797,-4.06062 0.54144,-1.09579 1.22354,-2.92722 1.51577,-4.06984 0.29223,-1.14262 0.52872,-2.68353 0.52552,-3.42423 -0.003,-0.75464 -0.23084,-1.84251 -0.51763,-2.47436 -0.45987,-1.01315 -0.466,-1.10159 -0.0603,-0.87119 0.24832,0.14104 1.04681,0.73551 1.77441,1.32105 l 1.32292,1.06461 0.0823,-1.07214 c 0.0585,-0.76263 -0.14381,-1.5553 -0.70092,-2.7458 -0.43076,-0.92051 -1.29593,-2.43009 -1.9226,-3.35462 -0.62667,-0.92453 -1.89179,-2.81205 -2.81138,-4.1945 -1.10742,-1.66482 -1.89509,-3.2168 -2.33272,-4.59627 -0.36341,-1.1455 -1.31701,-4.69981 -2.11911,-7.89847 -0.8021,-3.19865 -1.75463,-6.83807 -2.11673,-8.08759 -0.36209,-1.24953 -0.68546,-2.29425 -0.71858,-2.32162 -0.0331,-0.0274 -0.5923,-0.31822 -1.2426,-0.64635 -0.6503,-0.32813 -1.57827,-0.90831 -2.06216,-1.2893 -0.48389,-0.38098 -1.30916,-1.33513 -1.83395,-2.12034 -0.52478,-0.7852 -1.17439,-2.13526 -1.44357,-3.00013 -0.40295,-1.29469 -0.48941,-2.45012 -0.48941,-6.54032 0,-4.7041 -0.0308,-5.00835 -0.57989,-5.73112 -0.31893,-0.4198 -1.0524,-1.29906 -1.62992,-1.95391 -0.57752,-0.65484 -1.756182,-1.93365 -2.619253,-2.84181 -0.863071,-0.90815 -2.283312,-2.27737 -3.156091,-3.04271 -0.87278,-0.76533 -2.399973,-2.00335 -3.393763,-2.75115 -0.99379,-0.74779 -2.917975,-2.04861 -4.275966,-2.89071 -1.357992,-0.8421 -3.897826,-2.21049 -5.644076,-3.04087 -1.74625,-0.83038 -4.425156,-1.93203 -5.953124,-2.4481 -1.527969,-0.51607 -4.147344,-1.23896 -5.820833,-1.60643 -1.67349,-0.36747 -4.53099,-0.86798 -6.35,-1.11224 -2.113406,-0.2838 -5.217508,-0.44947 -8.598958,-0.45893 -2.910417,-0.008 -6.42276,0.13419 -7.805208,0.31632 -1.382448,0.18213 -3.466041,0.50442 -4.630208,0.71622 -1.164167,0.21179 -3.235756,0.68903 -4.603531,1.06053 -1.367776,0.37151 -3.605197,1.08028 -4.972048,1.57506 -1.366851,0.49478 -3.998231,1.6231 -5.84751,2.50737 -1.84928,0.88427 -4.672014,2.43131 -6.272743,3.43785 -1.600729,1.00654 -3.728844,2.48387 -4.729144,3.28294 -1.0003,0.79907 -2.928342,2.47334 -4.284536,3.72061 -1.356195,1.24727 -3.3609137,3.33461 -4.4549304,4.63854 -1.0940167,1.30392 -2.5713612,3.2354 -3.2829877,4.29216 -0.7116266,1.05677 -1.8216231,2.93343 -2.466659,4.17035 -0.6450359,1.23693 -1.44401995,2.924 -1.77552018,3.74905 -0.33150023,0.82505 -0.57653229,1.65849 -0.5445157,1.85208 0.0320166,0.1936 -0.0119544,0.53059 -0.0977132,0.74887 -0.0857589,0.21828 -0.19969199,0.84336 -0.25318472,1.38907 -0.066259,0.67594 0.00966,0.99218 0.23818313,0.99218 0.20514833,0 0.27215697,-0.17985 0.1725138,-0.46302 -0.13300212,-0.37797 -0.0974579,-0.40227 0.19351221,-0.13229 0.19604254,0.1819 0.43780456,0.33073 0.53724893,0.33073 0.0994444,0 0.24307902,-0.23813 0.31918812,-0.52917 0.0846401,-0.32366 0.3608958,-0.52916 0.71135541,-0.52916 0.5406911,0 0.563477,0.0857 0.4044009,1.52135 -0.092716,0.83675 -0.4034875,2.83104 -0.69060345,4.43177 -0.287116,1.60073 -0.82501291,4.27964 -1.19532647,5.95313 -0.37031356,1.67349 -1.26288828,5.42395 -1.98349938,8.33437 -0.7206111,2.91042 -1.5548628,5.98455 -1.8538927,6.8314 -0.2990299,0.84685 -1.541195,3.47015 -2.7603668,5.82955 -1.2191719,2.35939 -2.3841708,4.76454 -2.5888866,5.34477 -0.2047158,0.58022 -0.4615534,1.70455 -0.5707502,2.49851 -0.182164,1.32449 -0.162438,1.4136 0.2391505,1.08031 0.2407299,-0.19979 0.867841,-1.06015 1.3935804,-1.91192 0.5257394,-0.85176 0.9857612,-1.54866 1.0222708,-1.54866 0.03651,0 -0.2942707,0.92273 -0.7350671,2.05052 -0.7495545,1.91775 -0.7821006,2.14422 -0.5026449,3.49769 0.1643417,0.79594 0.707124,2.30697 1.206183,3.35785 0.4990589,1.05087 1.4140032,2.66183 2.0332094,3.57991 0.6192063,0.91808 1.9678591,2.5447 2.9970062,3.61471 1.0291471,1.07001 2.94273906,2.748 4.2524265,3.72885 1.3096874,0.98086 3.2612204,2.29333 4.33674,2.9166 1.0755196,0.623277 3.2781757,1.763779 4.8947912,2.534451 1.616616,0.770671 3.272268,1.484301 3.679227,1.585843 0.40696,0.101542 0.686868,0.237679 0.62202,0.302527 -0.06485,0.06485 -0.593424,-0.01014 -1.174613,-0.166635 -0.581189,-0.156498 -1.225331,-0.219835 -1.431426,-0.140749 -0.206096,0.07909 -0.748519,0.764852 -1.205384,1.523923 -0.456866,0.759071 -1.19099,2.285514 -1.6313887,3.392096 -0.4403983,1.106582 -1.0604686,3.071113 -1.377934,4.365625 -0.4178664,1.703911 -0.5840294,3.230143 -0.6019131,5.528658 -0.02051,2.636039 0.080552,3.51185 0.5953508,5.159374 0.3410296,1.091407 1.0170519,2.640658 1.502272,3.442781 0.485219,0.802123 1.456351,2.042875 2.158071,2.757226 0.701719,0.714351 1.963703,1.744873 2.804409,2.290049 0.840705,0.545175 2.269455,1.24816 3.174999,1.562189 0.905545,0.314028 2.623724,0.637992 3.818176,0.71992 1.282918,0.088 2.845242,0.01645 3.81739,-0.174804 0.905111,-0.17807 2.383065,-0.672172 3.284342,-1.098005 0.901276,-0.425833 2.219544,-1.218012 2.929485,-1.760399 l 1.290801,-0.986159 -0.79375,-0.170095 c -0.436563,-0.09355 -1.329531,-0.188401 -1.984375,-0.210774 -0.654844,-0.02237 -1.475715,-0.198683 -1.824158,-0.391798 -0.567963,-0.314777 -0.348887,-0.365003 2.116666,-0.485278 1.935908,-0.09444 3.200388,-0.306588 4.27067,-0.716519 0.899875,-0.344663 2.100556,-1.112525 2.941692,-1.881275 0.884953,-0.808797 1.655476,-1.825058 2.042045,-2.6933 0.503743,-1.131417 0.620959,-1.84928 0.621539,-3.806481 6.56e-4,-2.214857 -0.07205,-2.555467 -0.889202,-4.165377 -0.519863,-1.024212 -1.46055,-2.292958 -2.262188,-3.051114 -0.754749,-0.71381 -1.975141,-1.603334 -2.711981,-1.976719 -0.736841,-0.373386 -2.134644,-0.805874 -3.106229,-0.961085 -1.249438,-0.199599 -2.22087,-0.199813 -3.31874,-7.31e-4 -0.853723,0.154809 -2.225207,0.513012 -3.047744,0.796006 -0.822536,0.282994 -2.281501,1.082735 -3.242143,1.777201 -0.960643,0.694467 -1.912715,1.363756 -2.115717,1.48731 -0.305239,0.185779 -0.315505,0.124512 -0.05934,-0.354138 0.170365,-0.318329 0.715696,-1.02811 1.211847,-1.577289 0.892116,-0.987466 0.897396,-1.007923 0.477436,-1.849753 -0.233561,-0.468184 -1.244642,-2.17203 -2.246846,-3.786324 -1.075185,-1.731847 -1.82219,-3.227099 -1.82219,-3.647408 0,-0.391779 0.23856,-1.015606 0.530133,-1.386281 0.291573,-0.370675 1.148388,-0.982044 1.904033,-1.358598 0.938678,-0.467761 1.801965,-0.684641 2.725209,-0.684641 0.925315,0 1.787017,0.21712 2.73343,0.688738 0.775392,0.386394 1.834703,1.228466 2.413098,1.918229 0.567037,0.676219 1.577263,2.003395 2.244947,2.949281 0.667683,0.945885 1.412028,2.104379 1.654098,2.57443 0.354653,0.688662 0.725009,0.937455 1.907023,1.281076 0.806792,0.234541 1.887196,0.649972 2.400899,0.923181 0.513702,0.27321 1.433952,0.88735 2.044998,1.364758 0.611047,0.477407 1.529842,1.421258 2.041768,2.097448 0.511926,0.676189 1.243558,1.926345 1.62585,2.778124 0.488541,1.088512 0.735917,2.177638 0.832523,3.665357 0.09911,1.5262 0.01645,2.529632 -0.296308,3.597038 -0.238566,0.814205 -0.787857,2.03873 -1.220646,2.721168 -0.432789,0.682438 -0.786889,1.289233 -0.786889,1.348435 0,0.0592 0.740805,0.680144 1.646233,1.379874 0.905429,0.699729 2.542538,1.846263 3.638021,2.547854 1.095483,0.701591 3.839115,2.196359 6.096961,3.321707 2.257845,1.125349 5.618102,2.549199 7.467237,3.164112 1.849135,0.614913 4.526182,1.402287 5.948992,1.74972 1.422811,0.347433 3.479898,0.760194 4.571304,0.917247 1.091406,0.157053 2.282031,0.329243 2.645833,0.382645 0.363802,0.0534 2.62599,0.109632 5.027083,0.124957 2.401094,0.01532 5.258594,-0.08698 6.35,-0.227341 z m -27.322337,-55.56155 c -0.547964,-0.13861 -1.487213,-0.50246 -2.08722,-0.80856 -0.600007,-0.3061 -1.639955,-1.11125 -2.310994,-1.78922 -0.67104,-0.67797 -1.447135,-1.66361 -1.724657,-2.19031 -0.277521,-0.5267 -0.430086,-1.15178 -0.339033,-1.38906 0.09105,-0.23728 0.389617,-0.43142 0.663474,-0.43142 0.310581,0 0.803258,0.49118 1.309462,1.30549 0.446347,0.71803 1.306178,1.66381 1.910735,2.10175 0.604557,0.43794 1.701837,0.99642 2.4384,1.24107 0.940892,0.31251 1.867269,0.40703 3.114652,0.31778 1.107338,-0.0792 2.325627,-0.37892 3.237507,-0.79639 0.804133,-0.36814 1.954129,-1.11391 2.555546,-1.65725 0.601418,-0.54335 1.353194,-1.44999 1.670614,-2.01476 0.317419,-0.56477 0.665912,-1.02686 0.774428,-1.02686 0.108516,0 0.470394,0.54682 0.804175,1.21515 0.33378,0.66833 1.001372,1.56152 1.483536,1.98486 0.482165,0.42335 1.497347,1.08966 2.255959,1.48069 1.125715,0.58026 1.744119,0.71322 3.36367,0.72325 1.488236,0.009 2.29368,-0.1297 3.221479,-0.55559 0.680408,-0.31233 1.779878,-1.06818 2.443268,-1.67967 0.743951,-0.68575 1.35983,-1.05284 1.607166,-0.95793 0.220552,0.0846 0.401003,0.35474 0.401003,0.60023 0,0.2455 -0.290981,0.82785 -0.646626,1.29412 -0.355644,0.46628 -1.222808,1.21751 -1.92703,1.66941 -0.704222,0.4519 -2.045985,1.01776 -2.981695,1.25748 -1.38731,0.35541 -2.011101,0.38452 -3.37998,0.15768 -0.923279,-0.15299 -2.230496,-0.54529 -2.904928,-0.87178 -0.674431,-0.32648 -1.822828,-1.16864 -2.551994,-1.87147 l -1.325755,-1.27785 -1.202974,1.17988 c -0.661636,0.64893 -1.987469,1.54559 -2.946295,1.99258 -1.344128,0.62661 -2.222614,0.83972 -3.836458,0.93071 -1.151226,0.0649 -2.541472,0.005 -3.089435,-0.13401 z m 9.296552,-9.52057 c -0.528088,-0.27905 -1.272229,-0.87824 -1.653646,-1.33153 -0.511609,-0.60801 -0.693484,-1.12083 -0.693484,-1.95535 0,-0.73248 0.210586,-1.44808 0.597448,-2.03022 0.328596,-0.49447 1.12773,-1.16692 1.775854,-1.49434 0.758058,-0.38296 1.653898,-0.59516 2.511406,-0.5949 0.745984,2.3e-4 1.732517,0.20413 2.240229,0.46302 0.498976,0.25444 1.261391,0.90595 1.694255,1.44781 0.591883,0.74091 0.793358,1.2778 0.812562,2.16532 0.02092,0.96681 -0.117935,1.33279 -0.768213,2.02473 -0.436563,0.46453 -1.27,1.0651 -1.852084,1.33459 -0.593776,0.27491 -1.639028,0.48741 -2.381249,0.48411 -0.783475,-0.003 -1.714439,-0.21277 -2.283078,-0.51324 z m 4.941493,-0.82679 c 0.617875,-0.30858 1.254764,-0.84935 1.415309,-1.20171 0.160545,-0.35236 0.2919,-1.00157 0.2919,-1.4427 0,-0.57905 -0.28232,-1.08156 -1.015391,-1.80734 -0.558465,-0.55291 -1.265012,-1.13889 -1.570105,-1.30217 -0.305094,-0.16328 -1.0123,-0.29687 -1.571571,-0.29687 -0.559271,0 -1.311239,0.20145 -1.67104,0.44768 -0.359801,0.24623 -0.739446,0.57365 -0.843656,0.7276 -0.10421,0.15396 0.125661,0.57258 0.510823,0.93027 0.45433,0.42192 0.737714,0.53808 0.806833,0.33073 0.0586,-0.17579 0.304976,-0.31022 0.54751,-0.29873 0.274993,0.013 0.316488,0.0711 0.110243,0.15434 -0.181901,0.0734 -0.330729,0.25205 -0.330729,0.39701 0,0.14818 0.318519,0.19665 0.727604,0.11071 0.400183,-0.0841 0.906198,-0.0253 1.12448,0.13053 0.291381,0.20805 -0.118045,0.25212 -1.5403,0.16579 -1.065445,-0.0647 -2.055962,-0.23636 -2.201148,-0.38155 -0.145186,-0.14519 -0.295892,-0.48144 -0.334902,-0.74723 -0.03901,-0.26579 -0.204311,-0.52772 -0.367336,-0.58206 -0.163024,-0.0543 -0.470849,0.31869 -0.684054,0.82896 -0.213205,0.51027 -0.319199,1.20312 -0.235542,1.53967 0.08366,0.33654 0.380398,0.93956 0.659426,1.34004 0.279027,0.40048 0.766933,0.86901 1.084235,1.04118 0.317302,0.17217 0.993631,0.40052 1.502954,0.50745 0.509323,0.10693 1.271418,0.1438 1.693545,0.0819 0.422127,-0.0619 1.273038,-0.36496 1.890912,-0.67354 z m -0.67404,-3.40496 c 0.218281,-0.14107 0.493198,-0.25831 0.610927,-0.26053 0.117729,-0.002 0.140468,0.11501 0.05053,0.26053 -0.08994,0.14552 -0.364854,0.26276 -0.610928,0.26053 -0.38557,-0.003 -0.392554,-0.0395 -0.05053,-0.26053 z m -4.112341,-0.54745 c -0.08372,-0.13547 -0.260521,-0.2463 -0.392887,-0.2463 -0.132365,0 -0.172394,0.17791 -0.08895,0.39535 0.08344,0.21745 0.26024,0.32828 0.392887,0.2463 0.132646,-0.082 0.172674,-0.25989 0.08895,-0.39535 z m -32.203999,4.36748 c -0.837998,-0.20307 -1.873642,-0.55021 -2.30143,-0.77143 -0.427789,-0.22122 -1.32809,-0.7736 -2.000669,-1.22752 -0.672579,-0.45392 -1.701883,-1.4313 -2.287342,-2.17196 -0.58546,-0.74067 -1.516233,-2.24517 -2.068385,-3.34335 -0.658917,-1.31052 -1.118199,-2.70514 -1.336478,-4.05824 -0.1961,-1.21562 -0.266662,-2.9162 -0.171959,-4.14429 0.08834,-1.1455 0.39832,-2.75905 0.688857,-3.58568 0.290537,-0.82663 0.899884,-2.08211 1.354105,-2.78995 0.45422,-0.70784 1.307387,-1.76852 1.895925,-2.35706 0.588539,-0.58853 1.918727,-1.48949 2.955974,-2.00213 1.052674,-0.52026 2.685543,-1.06457 3.695783,-1.23197 1.324158,-0.21942 2.309411,-0.22259 3.67122,-0.0118 1.023737,0.15846 2.599265,0.65139 3.501174,1.0954 1.009463,0.49696 2.205755,1.40059 3.112007,2.3507 0.809694,0.84888 1.843574,2.27917 2.297511,3.17841 0.453936,0.89924 1.001076,2.38035 1.215866,3.29135 0.21479,0.911 0.392287,2.67315 0.394437,3.91588 0.0022,1.24273 -0.178444,2.96914 -0.401322,3.83646 -0.222879,0.86732 -0.798815,2.41038 -1.279859,3.42902 -0.481044,1.01865 -1.483048,2.51677 -2.226675,3.32916 -0.751336,0.82081 -2.03417,1.83662 -2.887328,2.28634 -0.844404,0.4451 -2.166218,0.94128 -2.937365,1.10262 -0.771147,0.16134 -1.842709,0.28342 -2.38125,0.2713 -0.53854,-0.0121 -1.664799,-0.18819 -2.502797,-0.39126 z m 5.166775,-0.78589 c 0.814228,-0.10175 1.198641,-0.26003 1.083598,-0.44617 -0.102187,-0.16534 -0.05657,-0.21326 0.106859,-0.11225 0.156833,0.0969 0.740776,-0.0821 1.297651,-0.39783 0.556875,-0.31574 1.706418,-1.23985 2.554541,-2.05358 0.848123,-0.81374 1.767629,-1.91493 2.043347,-2.4471 0.275718,-0.53218 0.682671,-1.48468 0.904341,-2.11667 0.22167,-0.632 0.481591,-1.79266 0.577602,-2.57926 0.120476,-0.98704 0.08693,-1.37602 -0.108257,-1.25539 -0.155552,0.0961 -0.36712,0.68019 -0.470151,1.29789 -0.10303,0.6177 -0.478026,1.69938 -0.833324,2.40373 -0.355298,0.70435 -1.144563,1.82436 -1.753923,2.48891 -0.609359,0.66455 -1.728234,1.60692 -2.486388,2.09415 -0.763557,0.4907 -2.173847,1.07034 -3.161511,1.29939 -1.451898,0.33672 -2.095727,0.35907 -3.466626,0.12034 -0.925968,-0.16125 -2.342503,-0.58459 -3.147857,-0.94076 -0.805353,-0.35616 -2.038615,-1.12843 -2.740582,-1.71615 -0.701967,-0.58772 -1.7054,-1.71505 -2.229852,-2.50517 -0.524451,-0.79012 -1.082459,-1.51625 -1.240017,-1.61363 -0.196079,-0.12118 -0.230938,0.10473 -0.110476,0.71595 0.0968,0.49115 0.314246,1.19066 0.483222,1.55446 0.168976,0.3638 0.668057,1.13431 1.10907,1.71223 0.441013,0.57793 1.159029,1.39832 1.595591,1.82308 0.436563,0.42476 1.633907,1.17458 2.660766,1.66625 1.026859,0.49168 2.396077,0.99586 3.042708,1.1204 0.646631,0.12454 1.592411,0.18558 2.101734,0.13565 0.509323,-0.0499 1.493893,-0.16175 2.187934,-0.24847 z m -7.549034,-8.4657 c 0.317612,-0.22247 0.652659,-0.80524 0.744549,-1.29506 0.09531,-0.50807 0.03388,-1.13945 -0.143026,-1.47 -0.170555,-0.31869 -0.718796,-0.75019 -1.218314,-0.95891 -0.800295,-0.33438 -1.003471,-0.33021 -1.709861,0.0351 -0.440906,0.228 -0.912629,0.70645 -1.048272,1.06322 -0.135644,0.35677 -0.174323,1.01018 -0.08595,1.45202 0.08837,0.44185 0.409551,0.97768 0.713738,1.19074 0.304187,0.21306 0.916801,0.38739 1.361366,0.38739 0.444564,0 1.068162,-0.18202 1.385774,-0.40448 z m 2.367314,-4.63944 c 0.409655,-0.15478 1.087264,-0.60126 1.505796,-0.99219 0.418532,-0.39092 0.981464,-1.18702 1.25096,-1.7691 0.269495,-0.58209 0.492607,-1.63744 0.495803,-2.34523 0.0037,-0.81594 -0.19234,-1.63897 -0.535645,-2.24896 -0.297801,-0.52913 -0.98241,-1.25345 -1.521354,-1.60958 -0.720997,-0.47644 -1.344437,-0.64871 -2.359614,-0.65201 -1.106899,-0.004 -1.599895,0.15059 -2.493229,0.77981 -0.612432,0.43137 -1.399698,1.32008 -1.74948,1.97493 -0.525812,0.98439 -0.620122,1.48876 -0.544487,2.91186 0.063,1.18534 0.254682,1.94539 0.615655,2.44118 0.288295,0.39596 1.000423,0.96076 1.582507,1.25511 0.582083,0.29435 1.497066,0.53527 2.033296,0.53539 0.53623,1.1e-4 1.310136,-0.12643 1.719792,-0.28121 z m 53.819101,12.5827 c -0.64092,-0.19983 -1.782446,-0.78836 -2.536725,-1.30785 -0.754279,-0.51949 -1.731979,-1.44936 -2.172666,-2.06638 -0.440687,-0.61701 -1.046211,-1.60524 -1.345608,-2.19605 -0.299397,-0.59081 -0.753611,-1.84097 -1.009365,-2.77812 -0.330355,-1.21052 -0.470154,-2.73824 -0.48278,-5.2758 -0.01484,-2.98275 0.07882,-3.87916 0.567888,-5.43495 0.322114,-1.02468 1.045833,-2.5725 1.608264,-3.43958 0.562431,-0.86708 1.504207,-2.00928 2.092835,-2.53823 0.588629,-0.52894 1.593742,-1.2685 2.233585,-1.64348 0.639843,-0.37497 1.994133,-0.87469 3.009532,-1.11049 1.253446,-0.29107 2.311896,-0.3707 3.296738,-0.24802 0.797807,0.0994 2.081846,0.41689 2.85342,0.70557 0.872768,0.32655 2.012609,1.0894 3.01652,2.01884 0.887511,0.82168 1.906432,1.95775 2.264272,2.52461 0.35784,0.56685 0.95109,1.81924 1.31834,2.78308 0.51503,1.35169 0.69909,2.42648 0.80491,4.69994 0.10722,2.30373 0.033,3.37273 -0.33993,4.89439 -0.26241,1.07079 -0.90637,2.738 -1.43104,3.70492 -0.52466,0.96692 -1.483087,2.3321 -2.129838,3.03375 -0.646751,0.70164 -1.754194,1.66486 -2.460984,2.1405 -0.706791,0.47563 -2.062547,1.10493 -3.012791,1.39843 -0.990699,0.30599 -2.42125,0.52608 -3.353494,0.51594 -0.894176,-0.01 -2.150164,-0.1812 -2.791083,-0.38102 z m 7.517866,-1.59552 c 1.089999,-0.53858 1.981816,-1.08411 1.981816,-1.21229 0,-0.12818 0.124041,-0.23306 0.275647,-0.23306 0.151605,0 0.492647,-0.20836 0.75787,-0.46302 0.265222,-0.25466 0.623405,-0.73425 0.795961,-1.06574 0.172556,-0.3315 0.429777,-0.53101 0.571602,-0.44336 0.141826,0.0877 0.230435,0.0612 0.19691,-0.0587 -0.03352,-0.11996 0.163014,-0.63483 0.436754,-1.14415 0.273744,-0.50932 0.528224,-1.19393 0.565514,-1.52135 0.0373,-0.32742 -0.0187,-0.59531 -0.12436,-0.59531 -0.10569,0 -0.662237,0.6164 -1.236774,1.36978 -0.583332,0.76492 -1.804995,1.86168 -2.766569,2.48372 -0.947076,0.61266 -2.368544,1.30594 -3.158819,1.54063 -0.790275,0.23468 -2.114659,0.4267 -2.943076,0.4267 -0.828417,0 -1.99874,-0.17378 -2.600717,-0.38617 -0.601978,-0.21239 -1.63282,-0.75653 -2.290762,-1.20921 -0.657941,-0.45267 -1.660017,-1.40974 -2.226835,-2.12682 -0.566819,-0.71708 -1.288951,-1.98864 -1.604739,-2.82569 -0.315788,-0.83705 -0.720316,-2.22886 -0.898951,-3.09292 -0.178636,-0.86406 -0.399165,-1.45067 -0.490067,-1.30359 -0.0909,0.14708 -0.05638,1.03634 0.07671,1.97613 0.133091,0.93979 0.497654,2.53844 0.810141,3.55255 0.312487,1.01412 0.646833,1.90337 0.742992,1.97614 0.09616,0.0728 0.395963,0.47921 0.666232,0.90322 0.270269,0.42401 0.967292,1.28721 1.54894,1.91823 0.581648,0.63101 1.16563,1.14729 1.297737,1.14729 0.132107,0 0.555161,0.20836 0.94012,0.46303 0.384958,0.25466 1.243972,0.60118 1.90892,0.77004 0.664947,0.16887 2.013819,0.26791 2.997492,0.22011 1.418435,-0.0689 2.198557,-0.28954 3.770312,-1.06616 z m -8.223541,-7.68196 c 0.228676,-0.22867 0.415774,-0.81723 0.415774,-1.30791 0,-0.62197 -0.178074,-1.01687 -0.588038,-1.30402 -0.323421,-0.22653 -0.791029,-0.41187 -1.03913,-0.41187 -0.2481,0 -0.697858,0.31371 -0.999461,0.69714 -0.301604,0.38342 -0.548371,0.89271 -0.548371,1.13175 0,0.23904 0.185346,0.69923 0.411878,1.02265 0.263042,0.37554 0.686457,0.58804 1.171726,0.58804 0.417917,0 0.946947,-0.1871 1.175622,-0.41578 z m 10.684299,-5.67642 c 0.490965,-0.29933 1.055358,-0.96367 1.284403,-1.51185 0.266793,-0.63853 0.370803,-1.50022 0.299713,-2.48302 -0.07246,-1.00177 -0.312692,-1.80098 -0.718319,-2.38976 -0.335197,-0.48655 -1.029148,-1.20968 -1.542114,-1.60697 -0.512966,-0.39729 -1.344735,-0.79965 -1.848375,-0.89413 -0.503641,-0.0945 -1.377347,-0.0335 -1.941569,0.13557 -0.636543,0.19071 -1.294667,0.65978 -1.73418,1.23601 -0.465313,0.61006 -0.750548,1.36811 -0.831402,2.20957 -0.06769,0.70451 0.02003,1.71455 0.19494,2.24453 0.174911,0.52998 0.630135,1.33454 1.01161,1.78789 0.381475,0.45336 1.055852,1.0452 1.498617,1.31521 0.500769,0.30538 1.305017,0.49092 2.127943,0.49092 0.861183,0 1.6286,-0.18637 2.198733,-0.53397 z m 4.349706,74.226733 c 0.40018,-0.352223 0.7276,-0.692129 0.7276,-0.755347 0,-0.06322 -0.56555,-0.196607 -1.25677,-0.296422 -0.69122,-0.09981 -1.911613,-0.470132 -2.711978,-0.822928 l -1.455208,-0.641447 1.660686,1.586636 c 0.913378,0.87265 1.80635,1.582874 1.98438,1.578275 0.17802,-0.0046 0.65111,-0.296543 1.05129,-0.648767 z m 4.49526,-3.633309 c 0.4744,-0.162806 1.3066,-0.573706 1.84933,-0.913111 0.56381,-0.352583 1.32262,-1.205125 1.77027,-1.988928 0.46177,-0.808536 0.91218,-2.134844 1.09691,-3.230057 0.17239,-1.022026 0.25538,-2.934823 0.18443,-4.25066 -0.0869,-1.611547 -0.35069,-3.025842 -0.80819,-4.333044 -0.37356,-1.067338 -1.07458,-2.597724 -1.55783,-3.400859 -0.48324,-0.803134 -2.04864,-2.727826 -3.47867,-4.277094 -1.50486,-1.630334 -2.78651,-2.798586 -3.04271,-2.773491 -0.24346,0.02385 -2.16906,0.461314 -4.279115,0.972149 -2.110052,0.510835 -4.828078,1.109557 -6.040058,1.330493 -1.21198,0.220936 -2.938386,0.754313 -3.836458,1.185282 -0.898072,0.430969 -2.310499,1.327055 -3.138728,1.991302 -0.828228,0.664247 -2.003007,1.939789 -2.610619,2.834538 -0.607613,0.894749 -1.355793,2.297461 -1.662622,3.117138 -0.435051,1.162213 -0.559305,2.101954 -0.564381,4.268447 -0.006,2.556507 0.0512,2.876293 0.716915,4.008729 0.397882,0.676832 1.273338,1.714658 1.945456,2.306281 0.672119,0.591622 1.894391,1.33661 2.716161,1.655529 1.138809,0.441958 2.060411,0.580491 3.875376,0.582538 2.016722,0.0023 2.618272,-0.104988 3.929577,-0.70069 1.144216,-0.519795 2.217318,-1.377357 4.111523,-3.285694 1.409757,-1.420275 3.182253,-3.296693 3.938883,-4.169818 1.00068,-1.15475 1.30785,-1.393662 1.12683,-0.876425 -0.13687,0.391092 -0.56688,1.33866 -0.95557,2.105706 -0.38869,0.767047 -1.15582,1.994875 -1.70472,2.728508 -0.548905,0.733633 -1.546347,1.864683 -2.216537,2.513445 -0.67019,0.648762 -1.218528,1.265286 -1.218528,1.370052 0,0.104767 0.678729,0.44443 1.508285,0.754807 0.829557,0.310377 2.16901,0.667521 2.97656,0.793653 0.80756,0.126133 2.15169,0.172622 2.98698,0.103309 0.83528,-0.06931 1.90685,-0.259228 2.38125,-0.422035 z M 25.215607,-90.805615 c 0.97729,-0.296843 2.498059,-0.624265 3.379485,-0.727604 l 1.602594,-0.18789 -1.211858,-1.852083 c -0.666522,-1.018646 -1.891256,-2.52427 -2.72163,-3.345833 -0.830375,-0.821562 -1.946811,-1.637985 -2.480969,-1.814273 -0.534158,-0.176288 -1.333835,-0.247996 -1.777059,-0.159351 -0.443225,0.08864 -1.217556,0.415612 -1.720736,0.726595 -0.738154,0.456204 -0.895125,0.699965 -0.812643,1.261956 0.05623,0.383094 0.930513,2.027982 1.942858,3.655306 1.012346,1.627324 1.881677,2.964198 1.931847,2.970831 0.05017,0.0066 0.89082,-0.230811 1.868111,-0.527654 z M -9.1366709,-130.54871 c 0.3718622,-0.61846 1.0449855,-2.01745 1.4958296,-3.10885 0.450844,-1.09141 1.1792868,-3.23454 1.6187617,-4.7625 0.4394749,-1.52797 1.5279057,-5.63563 2.4187352,-9.12813 0.8908295,-3.4925 2.0301593,-7.62772 2.5318441,-9.18938 0.50168479,-1.56166 0.91215417,-2.93434 0.91215417,-3.05041 0,-0.11607 -0.59757404,-0.18913 -1.32794227,-0.16237 -0.7303683,0.0268 -1.9507589,0.19361 -2.7119791,0.37076 -0.7612202,0.17715 -2.2174741,0.74853 -3.2361199,1.26974 -1.1771601,0.60232 -2.4787976,1.57936 -3.5718746,2.68113 -0.945886,0.9534 -2.095143,2.44718 -2.553907,3.3195 -0.458763,0.87232 -1.113448,2.479 -1.454855,3.57041 -0.541849,1.73217 -0.619482,2.50558 -0.61084,6.08541 0.0091,3.78835 0.06469,4.25108 0.728438,6.06879 0.395195,1.08227 1.192451,2.68961 1.771681,3.57188 0.579229,0.88227 1.479162,2.05061 1.999851,2.59631 0.52069,0.5457 1.029373,0.99219 1.1304089,0.99219 0.1010356,0 0.487952,-0.50602 0.8598142,-1.12448 z m 128.8162809,-7.54514 c 0.52457,-1.23524 0.6633,-2.08173 0.74726,-4.55955 0.0567,-1.67349 0.0282,-3.65141 -0.0633,-4.39538 l -0.16644,-1.35267 -2.23641,-0.13952 c -1.39575,-0.0871 -2.47938,-0.29873 -2.88279,-0.56306 -0.35552,-0.23294 -0.7707,-0.87114 -0.92263,-1.41822 -0.15193,-0.54708 -0.2769,-1.49368 -0.27771,-2.10355 -8.1e-4,-0.60988 -0.1338,-1.19065 -0.29554,-1.29061 -0.21027,-0.12995 -0.24027,0.22373 -0.10527,1.24116 0.10383,0.78259 0.39461,2.07774 0.64616,2.8781 0.25156,0.80037 0.70668,2.28865 1.01137,3.30729 0.3047,1.01865 0.8665,2.86412 1.24845,4.10105 0.38194,1.23692 1.06339,3.05263 1.51432,4.03489 0.45093,0.98227 0.89154,1.7839 0.97914,1.78142 0.0876,-0.002 0.44914,-0.6871 0.80344,-1.52135 z m 8.48395,-6.80851 v -3.83645 h -2.11666 -2.11667 v 3.83645 3.83646 h 2.11667 2.11666 z m 1.52776,-11.04635 0.0725,-4.43177 h 3.15868 c 2.50578,0 3.44961,-0.10885 4.56623,-0.52664 0.86084,-0.32208 1.82983,-0.96439 2.4947,-1.65364 0.59792,-0.61986 1.30844,-1.54373 1.57893,-2.05305 0.46847,-0.88213 0.49179,-2.01769 0.49179,-23.94479 v -23.01875 l -0.78532,-1.41785 c -0.43193,-0.77982 -1.24813,-1.81399 -1.81378,-2.29817 -0.56565,-0.48417 -1.46241,-1.0963 -1.9928,-1.36027 -0.80992,-0.4031 -1.52576,-0.46945 -4.47008,-0.41433 l -3.50573,0.0656 v -4.36511 -4.36511 h 14.95463 14.95463 l 0.30138,0.66146 c 0.22584,0.49565 0.22523,0.82859 -0.002,1.32823 -0.16709,0.36672 -0.61067,0.78344 -0.98574,0.92604 -0.37506,0.1426 -1.62668,0.25927 -2.78137,0.25927 -1.1547,0 -2.09944,0.11131 -2.09944,0.24736 0,0.13605 0.12663,0.58253 0.28141,0.99219 0.15478,0.40965 0.60126,1.08691 0.99219,1.50502 0.39092,0.4181 1.0939,0.92412 1.56217,1.12447 0.46827,0.20036 1.40277,0.36429 2.07668,0.36429 0.6739,0 1.6255,-0.18991 2.11466,-0.42204 0.48916,-0.23212 1.35344,-0.92548 1.92062,-1.5408 0.70032,-0.75975 1.13537,-1.55281 1.35572,-2.47133 0.25281,-1.05383 0.25516,-1.68646 0.0106,-2.86439 -0.2589,-1.2471 -0.53385,-1.73183 -1.57023,-2.7682 -1.02953,-1.02954 -1.52437,-1.31201 -2.74076,-1.56453 -1.23391,-0.25616 -1.74288,-0.23678 -3.01614,0.11487 -1.37629,0.38011 -4.64649,0.40943 -32.2234,0.28897 -16.88042,-0.0737 -31.595138,-0.16734 -32.699382,-0.208 -1.84034,-0.0678 -2.098784,-0.0108 -3.100094,0.6836 -0.681946,0.4729 -1.344195,1.26284 -1.762596,2.10247 -0.451817,0.90667 -0.670219,1.78136 -0.670219,2.68417 0,0.93285 0.210491,1.74 0.693687,2.66003 0.381527,0.72644 0.887543,1.54184 1.124479,1.81198 0.236936,0.27015 0.872534,0.71663 1.412439,0.99219 0.599766,0.30611 1.530045,0.50101 2.391334,0.50101 0.93635,0 1.805364,-0.19989 2.588092,-0.59531 0.648123,-0.32742 1.447258,-0.99987 1.775854,-1.49434 0.328596,-0.49446 0.597448,-1.17907 0.597448,-1.52135 0,-0.60379 -0.06595,-0.62233 -2.213277,-0.62233 -1.838481,0 -2.33133,-0.0929 -2.910416,-0.54837 -0.512604,-0.40321 -0.69714,-0.79015 -0.69714,-1.46176 0,-0.71203 0.131235,-0.95713 0.595313,-1.11181 0.327421,-0.10914 6.694898,-0.13596 14.149948,-0.0596 l 13.55463,0.13883 0.0714,4.23333 0.0714,4.23334 h -3.57188 c -3.24479,0 -3.69302,0.0589 -4.89479,0.64368 -0.7276,0.35403 -1.76445,1.0932 -2.30409,1.6426 -0.53965,0.54941 -1.25402,1.50991 -1.5875,2.13444 l -0.60633,1.13553 v 23.28333 23.28333 l 0.74631,1.24578 c 0.41047,0.68518 1.15135,1.60142 1.64641,2.03609 0.49506,0.43467 1.34985,0.9152 1.89953,1.06785 0.54968,0.15265 2.21981,0.2782 3.7114,0.27901 l 2.71198,0.001 v 4.34622 c 0,3.91454 0.046,4.35883 0.46302,4.47311 0.25466,0.0698 3.02286,0.10829 6.15156,0.0856 l 5.68854,-0.0413 z m -14.70121,-10.30272 c -0.21288,-0.21288 -0.3203,-1.32297 -0.3203,-3.31009 v -2.98979 h -2.48269 c -2.42457,0 -2.4856,-0.0152 -2.60661,-0.64821 -0.0783,-0.40971 0.0156,-0.70175 0.25538,-0.79375 0.20861,-0.08 1.38158,-0.14554 2.60661,-0.14554 h 2.22731 v -1.85209 -1.85208 h -2.36342 c -2.1275,0 -2.38011,-0.0526 -2.53062,-0.5268 -0.092,-0.28974 -0.0929,-0.64693 -0.002,-0.79375 0.0911,-0.14734 1.22495,-0.26695 2.53062,-0.26695 h 2.36563 v -1.84215 -1.84216 l -2.44739,-0.0761 c -2.41388,-0.075 -2.4474,-0.0851 -2.4474,-0.73754 0,-0.6524 0.0335,-0.6625 2.4474,-0.73753 l 2.44739,-0.0761 v -1.97445 -1.97445 l -1.78593,-0.0338 c -0.98227,-0.0186 -2.06177,-0.0622 -2.39889,-0.097 -0.33712,-0.0348 -0.72297,-0.17327 -0.85744,-0.30774 -0.1496,-0.1496 -0.0827,-0.47549 0.17238,-0.83967 0.38311,-0.54696 0.59191,-0.58896 2.57724,-0.51839 l 2.16035,0.0768 0.0807,-1.25677 0.0806,-1.25677 h -2.54561 -2.54562 l 0.0837,-0.7276 0.0837,-0.72761 2.43725,-0.0759 2.43724,-0.0759 0.17241,-0.91903 0.17242,-0.91904 11.41326,0.0689 11.41325,0.0689 0.0829,0.8599 c 0.0781,0.81047 0.14278,0.85989 1.12448,0.85989 0.98091,0 1.04157,0.0462 1.04157,0.79375 0,0.74935 -0.0591,0.79375 -1.05591,0.79375 h -1.0559 l -0.0686,13.42761 -0.0686,13.4276 -11.25522,0.0689 c -8.53352,0.0523 -11.33267,-0.009 -11.57552,-0.25135 z m 21.1771,-1.26895 0.7276,-0.004 v -11.99973 c 0,-6.59985 -0.0765,-12.73157 -0.16998,-13.62604 l -0.16998,-1.62631 h -9.88419 -9.88418 v 13.61083 13.61082 l 1.12448,0.0814 c 0.61846,0.0447 4.81542,0.0533 9.32656,0.0191 4.51115,-0.0343 8.52951,-0.064 8.92969,-0.0661 z m -22.45651,11.42675 c 0.0717,-0.11609 0.0361,-0.36375 -0.0792,-0.55036 -0.11533,-0.1866 -0.54675,-0.29998 -0.95871,-0.25195 -0.71452,0.0833 -0.72756,0.10866 -0.28312,0.55036 0.25624,0.25466 0.62896,0.46302 0.82826,0.46302 0.1993,0 0.42106,-0.095 0.49281,-0.21107 z"
       id="path172" /></g></svg>
