<?xml version="1.0" encoding="UTF-8" standalone="no"?>
<!-- Created with Inkscape (http://www.inkscape.org/) -->

<svg
   width="219.90775mm"
   height="212.69312mm"
   viewBox="0 0 219.90774 212.69312"
   version="1.1"
   id="svg1"
   xml:space="preserve"
   xmlns="http://www.w3.org/2000/svg"
   xmlns:svg="http://www.w3.org/2000/svg"><defs
     id="defs1"><clipPath
       clipPathUnits="userSpaceOnUse"
       id="clipPath3"><path
         id="path3"
         style="fill:#ff0000;fill-opacity:1;fill-rule:nonzero;stroke:none;stroke-width:0.264583"
         d="M -89.402812,17.953426 V 231.29958 H 127.50849 V 17.953426 Z M 57.309165,146.54868 c 0.779481,0.0172 1.734521,0.44275 2.742467,1.42885 1.453158,1.42166 2.550438,3.15263 3.545004,4.91236 0.576631,1.13939 1.15478,2.27834 1.723925,3.4215 2.234525,4.48814 -2.300936,6.74504 -4.534091,2.25619 -0.530973,-1.06731 -1.073954,-2.12816 -1.604552,-3.19567 -0.690115,-1.23606 -1.451359,-2.42398 -2.372466,-3.50366 -2.338813,-2.74145 -1.4923,-5.3635 0.499713,-5.31957 z" /></clipPath><clipPath
       clipPathUnits="userSpaceOnUse"
       id="clipPath13"><path
         id="path14"
         style="fill:#ff0000;fill-opacity:1;fill-rule:nonzero;stroke:none;stroke-width:0.264583"
         d="M 84.920345,6.4680598 V 221.74691 H 301.98358 V 6.4680598 Z M 147.30258,105.99945 c 1.81348,0.0318 2.9196,2.21177 1.01958,4.89789 -0.85979,1.21553 -1.91873,2.26478 -2.92799,3.35225 -3.41051,3.67492 -7.12464,0.22459 -3.71036,-3.44681 0.86277,-0.92776 1.77417,-1.81787 2.51715,-2.84893 1.00758,-1.39821 2.1517,-1.97106 3.10162,-1.9544 z m 142.06988,64.87718 c 1.17022,0.0187 2.44155,1.13328 2.84893,3.44785 0.10866,0.61736 0.30546,1.21757 0.55604,1.79111 2.00725,4.59429 -2.79832,6.58902 -4.67776,1.94096 -0.41348,-1.02257 -0.77141,-2.07335 -0.91208,-3.17293 -0.33799,-2.64197 0.85864,-4.02819 2.18487,-4.00699 z m -10.44018,21.22609 c 2.35821,0.0534 3.26597,2.914 0.21755,5.11545 -0.43935,0.31729 -0.87891,0.63459 -1.31826,0.95188 -2.32674,1.61168 -4.73063,3.09573 -7.16236,4.5434 -4.308,2.56465 -6.91121,-1.77429 -2.60552,-4.34289 2.33483,-1.39287 4.64814,-2.81121 6.88175,-4.36201 0.41258,-0.29833 0.82559,-0.59671 1.23817,-0.89504 1.01567,-0.73441 1.96259,-1.0286 2.74867,-1.01079 z" /></clipPath><clipPath
       clipPathUnits="userSpaceOnUse"
       id="clipPath40"><path
         id="path41"
         style="fill:#ff0000;fill-opacity:1;fill-rule:nonzero;stroke:none;stroke-width:0.264583"
         d="M 43.056883,-39.498228 V 187.12515 H 282.72804 V -39.498228 Z M 273.92599,87.760669 c 0.88754,1.99e-4 1.79287,0.629264 2.28719,1.936317 0.24016,0.180882 0.45469,0.438038 0.6527,0.730705 0.052,-0.0043 0.10406,-0.0093 0.15605,-0.0093 1.26159,-1.43e-4 2.48402,1.252596 2.41382,3.758428 -0.0619,2.207892 -0.31993,4.403196 -0.57724,6.594941 -0.25273,1.78069 -0.12443,0.91178 -0.3824,2.60604 -0.19706,1.29387 -0.68993,2.17644 -1.28831,2.71767 -0.39283,2.17631 -1.15512,4.26939 -1.98231,6.31331 -0.60381,1.41746 -0.29308,0.7255 -0.92861,2.07584 -1.39187,2.95734 -3.82876,3.06196 -4.76094,1.5229 -0.50342,2.47544 -2.50888,3.06942 -3.79669,1.8464 -1.49146,0.84977 -2.94685,1.76239 -4.36922,2.72335 -1.9317,1.35317 -3.74042,2.86998 -5.6007,4.31757 -1.05553,0.86438 -2.24864,1.52036 -3.4494,2.1549 -0.8513,0.45603 -1.78705,0.68203 -2.72905,0.85473 -4.93143,0.90411 -5.83128,-4.1535 -0.88728,-4.98626 0.42947,-0.0723 0.86543,-0.14579 1.25574,-0.34933 0.93914,-0.49276 1.87838,-0.99133 2.7001,-1.67121 1.95165,-1.51863 3.84847,-3.11062 5.88182,-4.52118 1.91146,-1.2835 3.87178,-2.49643 5.89627,-3.59306 -0.004,-0.48015 0.0742,-1.01198 0.28474,-1.60352 0.0928,-2.23942 0.22942,-4.47755 0.36174,-6.71432 0.0407,-0.71281 0.0814,-1.42556 0.12195,-2.13837 0.14263,-2.502725 1.47838,-3.682147 2.74248,-3.610109 0.0212,0.0013 0.04,0.0172 0.061,0.01913 0.20426,-1.107437 0.40529,-2.215327 0.601,-3.324344 0.40844,-2.314371 1.72151,-3.350609 2.91145,-3.28972 0.0164,7.93e-4 0.0302,0.01373 0.0465,0.01497 -0.007,-0.101274 -0.0119,-0.202628 -0.0206,-0.303858 -0.22985,-2.653554 1.06196,-4.072977 2.39829,-4.07262 z m -1.75802,16.091011 c -0.0122,0.0657 -0.0236,0.13141 -0.0367,0.19688 -0.51533,2.43146 -1.11845,4.86049 -2.02314,7.18044 0.0233,0.01 0.0472,0.0186 0.0698,0.0289 0.0796,-0.17984 0.11184,-0.23089 0.33745,-0.75964 0.68157,-1.66051 1.29307,-3.36039 1.66915,-5.11907 0.057,-0.26645 0.12579,-0.51525 0.2036,-0.74982 -0.0873,-0.24344 -0.17981,-0.48192 -0.22013,-0.77773 z" /></clipPath><clipPath
       clipPathUnits="userSpaceOnUse"
       id="clipPath70"><path
         id="path71"
         style="fill:#ff0000;fill-opacity:1;fill-rule:nonzero;stroke:none;stroke-width:0.264583"
         d="M 97.496414,-109.05345 V 118.09806 H 291.95741 V -109.05345 Z M 274.90367,19.673059 c 1.06417,-0.01434 2.29149,0.797169 3.05201,2.686659 0.24861,0.617649 0.54691,1.213072 0.81236,1.823143 0.10702,-2.113105 1.28882,-3.200416 2.48667,-3.16053 1.1871,0.03953 2.38709,1.183571 2.56573,3.526917 0.14012,1.838055 0.19263,3.681458 0.24443,5.523693 -0.0111,1.286968 0.002,0.663861 -0.0372,1.869136 -0.066,2.043319 -0.94796,3.224747 -1.95802,3.568777 -1.06917,1.011605 -3.06517,0.733586 -4.38784,-1.800924 -0.6596,-1.263909 -1.30021,-2.536105 -1.9141,-3.823025 -0.89112,-1.858502 -1.74429,-3.733628 -2.51406,-5.646166 -1.11147,-2.761552 0.0947,-4.546709 1.65003,-4.56768 z M 227.40786,35.16617 c 2.85391,0.0154 3.65785,3.328107 -0.009,5.105633 -0.10414,0.05049 -0.21477,0.08649 -0.31936,0.135909 0.0878,0.174847 0.17258,0.356817 0.25165,0.552421 0.29264,0.723889 0.67277,1.407311 1.02166,2.104781 0.49752,0.994704 0.62071,1.85483 0.55034,2.581754 0.79241,0.0935 1.70142,0.525706 2.61173,1.422136 0.85581,0.842748 1.70212,1.69264 2.50527,2.585889 0.74222,0.777118 1.45302,1.572567 2.07274,2.452047 0.27181,0.279689 0.49147,0.608986 0.72452,0.920872 0.4288,0.573923 0.68072,1.11592 0.84491,1.631942 0.40767,0.301072 0.81735,0.711295 1.21128,1.260906 0.72402,1.010161 1.46733,2.006714 2.15749,3.041674 0.67577,1.094039 1.39768,2.159738 2.14716,3.204456 0.57142,1.006359 1.2961,1.895922 2.01073,2.799313 0.72798,0.98825 1.67672,1.729827 2.62775,2.487186 0.72246,0.58328 1.49453,1.100072 2.2536,1.633493 0.30505,0.214349 0.4962,0.443799 0.72606,0.668692 1.203,-0.615995 2.41251,-1.219766 3.62304,-1.81901 3.30551,-1.685468 6.71158,-3.156911 10.08516,-4.697389 2.15108,-0.995508 4.31361,-1.965677 6.47972,-2.927985 1.57738,-0.77579 3.15939,-1.558142 4.66999,-2.459281 0.95943,-0.64081 2.0927,-1.035754 2.9869,-1.772502 0.2867,-0.27401 0.73166,-0.459364 0.8966,-0.842843 0.68091,-1.58322 1.73522,-2.216873 2.70525,-2.201932 1.85191,0.02852 3.39833,2.420787 1.46193,5.080826 -0.55834,0.76699 -1.20099,1.439079 -1.98335,1.983859 -1.09435,0.815578 -2.30629,1.431271 -3.48712,2.110981 -1.68534,0.991989 -3.43271,1.880634 -5.19399,2.729031 -2.15025,0.95527 -4.2974,1.918452 -6.43268,2.9068 -3.32568,1.51847 -6.6831,2.967985 -9.94152,4.629692 -2.50759,1.240819 -5.01576,2.489092 -7.44916,3.871082 -4.16816,2.36719 -6.78702,-1.430255 -3.21221,-3.954796 -0.45171,-0.320995 -0.91272,-0.629322 -1.34411,-0.97772 -1.2521,-0.998236 -2.47592,-2.021832 -3.44629,-3.308842 -0.76168,-0.9657 -1.54199,-1.916501 -2.15336,-2.989482 -0.78265,-1.09392 -1.54215,-2.206265 -2.24845,-3.351215 -0.58542,-0.88532 -1.23027,-1.72728 -1.82985,-2.60191 -0.43447,-0.633714 -0.70557,-1.242417 -0.85525,-1.808673 -0.4626,-0.305372 -0.92538,-0.70317 -1.36788,-1.296046 -0.26933,-0.360899 -0.53185,-0.727146 -0.8294,-1.066085 -0.48074,-0.718559 -1.10259,-1.311934 -1.67794,-1.952853 -0.74155,-0.826828 -1.52895,-1.608291 -2.31871,-2.389002 -1.06444,-1.052203 -1.49098,-2.108129 -1.47279,-2.979145 -0.91381,-0.171199 -1.89788,-0.859004 -2.63807,-2.341459 -0.4875,-0.976337 -1.02824,-1.933874 -1.36167,-2.978113 -8e-4,-0.0024 -0.001,-0.0044 -0.002,-0.0067 -4.50863,1.671101 -6.30092,-2.894253 -1.71566,-4.742862 1.47347,-0.594051 2.9578,-1.171766 4.39043,-1.859836 0.84739,-0.407001 1.61517,-0.579226 2.27376,-0.575675 z" /></clipPath><clipPath
       clipPathUnits="userSpaceOnUse"
       id="clipPath74"><path
         id="path74"
         style="fill:#ff0000;fill-opacity:1;fill-rule:nonzero;stroke:none;stroke-width:0.264583"
         d="M -29.884086,-77.633731 V 138.92773 H 157.38304 V -77.633731 Z m 105.14707,29.170828 c 1.817156,-0.06325 3.051006,2.061409 1.285709,4.837949 -1.692966,2.66278 -3.351602,5.349526 -4.900991,8.098732 -2.461575,4.367755 -6.9038,1.944838 -4.446241,-2.425176 1.602227,-2.849065 3.320079,-5.631815 5.073076,-8.390187 0.924398,-1.454554 2.036601,-2.088186 2.988447,-2.121318 z" /></clipPath><clipPath
       clipPathUnits="userSpaceOnUse"
       id="clipPath96"><path
         id="path97"
         style="fill:#ff0000;fill-opacity:1;fill-rule:nonzero;stroke:none;stroke-width:0.264583"
         d="M 42.322036,-124.12301 V 99.614237 H 302.68444 V -124.12301 Z m 40.332938,11.40344 c 1.193781,0.0282 2.451047,1.15727 2.734717,3.49022 0.07968,0.65528 0.169799,1.30914 0.250632,1.96423 0.465238,-0.51114 1.040945,-0.76947 1.612821,-0.76947 1.26647,10e-6 2.508594,1.25365 2.458765,3.75998 -0.05494,2.76352 0.14506,5.519841 0.415478,8.267712 0.43861,3.960389 1.042519,7.900075 1.82056,11.80755 0.266695,1.604756 0.705324,3.16135 1.218531,4.701003 1.470165,4.410607 -2.564016,6.102006 -4.413684,2.529562 0.07623,0.718762 0.2026,1.433126 0.235643,2.155425 0.22914,5.008394 -4.765132,5.004668 -5.064807,0 -0.225862,-3.772082 -1.059405,-7.500146 -1.754931,-11.209652 -0.884889,-4.48015 -1.336728,-9.020352 -1.674315,-13.568681 -0.09578,-1.290369 0.179064,-2.258929 0.632002,-2.920239 -0.265684,-2.0703 -0.525637,-4.14115 -0.776179,-6.21357 -0.319675,-2.64425 0.95182,-4.02605 2.304767,-3.99407 z M 238.17726,73.473197 c 0.73503,0.0089 1.59857,0.257659 2.53163,0.834059 1.55674,0.961655 2.93809,2.17945 4.36925,3.31401 1.88795,1.432734 3.69489,2.965942 5.54643,4.44469 1.45633,1.008327 2.8257,2.135084 4.2571,3.176032 1.01821,0.73062 2.04804,1.443948 3.0732,2.164726 0.10589,0.06838 0.21192,0.136755 0.31781,0.205155 1.02093,0.659212 1.62545,1.404456 1.90221,2.117701 2.66507,1.244738 1.89629,4.674838 -2.23656,4.619355 -1.03226,-0.01378 -2.06465,-0.02868 -3.09645,-0.06408 -1.75306,-0.06623 -3.50834,-0.153231 -5.24671,-0.40204 -1.60006,-0.26435 -3.18097,-0.633878 -4.70875,-1.18546 -1.40758,-0.528601 -2.82247,-1.053193 -4.17598,-1.709973 -1.14752,-0.6418 -2.26375,-1.322938 -3.21685,-2.241206 -0.91708,-0.777378 -1.79807,-1.593477 -2.7001,-2.387968 -2.7042,-2.3818 -1.7688,-5.030621 0.37311,-5.107181 0.31321,-0.01119 0.65255,0.03241 1.00975,0.140044 0.3858,-0.577905 1.07851,-0.980543 2.0805,-0.968417 0.56408,0.0068 1.21524,0.13857 1.942,0.43098 0.58877,0.236889 1.17105,0.489267 1.74976,0.749308 -0.006,-0.0043 -0.0109,-0.0091 -0.0165,-0.01344 -1.32206,-1.048356 -2.59343,-2.18132 -4.0323,-3.068545 -3.33405,-2.055786 -2.34759,-5.079635 0.2775,-5.047755 z" /></clipPath><clipPath
       clipPathUnits="userSpaceOnUse"
       id="clipPath100"><path
         id="path100"
         style="fill:#ff0000;fill-opacity:1;fill-rule:nonzero;stroke:none;stroke-width:0.264583"
         d="M 72.0146,-199.68615 V 40.57722 h 244.16494 v -240.26337 z m 145.09244,146.980174 c 1.28766,0.0132 2.57513,0.02606 3.86281,0.03927 5.01334,0.05157 4.95959,5.11969 -0.0538,5.064289 l -3.69279,-0.04082 c -5.45363,0.124939 -10.93185,0.221541 -16.35094,0.890902 -4.97584,0.614598 -5.69076,-4.388588 -0.71624,-5.013648 5.61733,-0.705821 11.29667,-0.809606 16.95091,-0.939996 z" /></clipPath></defs><g
     id="layer1"
     transform="translate(11.275959,175.88746)"><path
       style="fill:#000000"
       d="m 91.514191,36.521887 c -0.87312,-0.136244 -2.82065,-0.478222 -4.32783,-0.759952 -1.50719,-0.28173 -3.26018,-0.742188 -3.89555,-1.023241 -0.67775,-0.299803 -1.38371,-0.873844 -1.70807,-1.388899 -0.46695,-0.741479 -0.53268,-1.16569 -0.42298,-2.729978 0.0714,-1.018646 0.21431,-2.129331 0.31751,-2.46819 l 0.18764,-0.616106 -4.20348,0.149869 c -2.31192,0.08243 -6.64427,0.215806 -9.62744,0.296397 -2.98318,0.08059 -9.53162,0.379663 -14.55209,0.664604 -5.02046,0.284942 -9.68731,0.587936 -10.37076,0.673322 -0.78472,0.09804 -1.76687,0.0028 -2.66527,-0.258327 -0.78246,-0.227466 -2.30332,-0.598829 -3.3797,-0.825252 -1.16802,-0.245701 -2.19471,-0.634946 -2.54652,-0.965454 -0.3242,-0.304576 -0.6602,-0.875828 -0.74665,-1.269448 -0.0865,-0.39362 -0.0282,-1.301403 0.12941,-2.017294 0.15763,-0.715892 0.64927,-1.83777 1.09252,-2.493064 0.44326,-0.655294 1.56837,-1.786387 2.50025,-2.513541 0.93189,-0.727155 1.69544,-1.390253 1.69678,-1.473552 10e-4,-0.0833 -0.77524,-0.838462 -1.72573,-1.67814 -0.9505,-0.839677 -2.36517,-2.319336 -3.14372,-3.28813 -0.77855,-0.968794 -1.8829,-2.535349 -2.45412,-3.4812349 -0.57121,-0.9458854 -1.38569,-2.5234634 -1.80995,-3.505729 -0.42425,-0.9822656 -0.85528,-1.7859374 -0.95785,-1.7859374 -0.10256,0 -0.53842,0.9227343 -0.96859,2.0505207 -0.43016,1.1277864 -1.09767,3.1355376 -1.48336,4.4616696 -0.49565,1.704218 -0.65293,2.713291 -0.53646,3.441676 0.10494,0.656257 -0.0797,2.278968 -0.50847,4.468018 -0.37029,1.890619 -0.9347,4.925771 -1.25425,6.744781 -0.52418,2.983921 -0.66253,3.388871 -1.41499,4.141653 -0.67071,0.671009 -1.14203,0.873281 -2.40734,1.033155 -0.88053,0.111255 -2.97145,0.06588 -4.74835,-0.103034 -1.74625,-0.166005 -4.27682,-0.598993 -5.6234996,-0.962195 -1.34667,-0.363202 -2.89449,-0.887989 -3.43958,-1.166194 -0.5451,-0.278204 -1.22921,-0.769782 -1.52025,-1.092395 -0.4609,-0.510891 -0.52256,-0.915133 -0.47792,-3.13324 0.0282,-1.400669 0.18251,-3.858054 0.34294,-5.460856 0.16044,-1.602802 0.34952,-3.509497 0.42018,-4.237101 0.0707,-0.727605 0.24985,-1.700346 0.39819,-2.161648 0.14835,-0.461302 0.44478,-0.984017 0.65874,-1.161589 0.31957,-0.265224 0.3646,-0.9420501 0.25224,-3.7914771 -0.0752,-1.9077406 -0.26807,-4.5460721 -0.42854,-5.86295899 -0.21457,-1.7608141 -0.21258,-3.05594191 0.008,-4.89479091 0.16462,-1.375249 0.59849,-4.345921 0.96417,-6.601494 0.36567,-2.255572 0.96002,-5.708385 1.32076,-7.672916 0.36075,-1.964531 0.94433,-4.941093 1.29684,-6.614583 0.3525096,-1.673489 0.8754296,-4.054739 1.1620396,-5.291666 0.28661,-1.236927 0.81838,-3.73724 1.1817,-5.55625 0.36333,-1.81901 0.96043,-4.855104 1.3269,-6.746875 0.36648,-1.89177 0.74336,-4.242624 0.83754,-5.224119 0.165,-1.719786 0.14776,-1.793454 -0.47524,-2.030317 -0.35554,-0.135179 -1.01604,-0.694162 -1.46777,-1.242185 -0.5168,-0.626973 -0.93562,-1.541872 -1.12959,-2.4676 -0.16955,-0.809157 -0.31957,-3.852444 -0.33338,-6.762861 -0.0208,-4.385065 0.0537,-5.520042 0.43485,-6.624651 0.25298,-0.733142 0.80101,-1.706377 1.21784,-2.162745 0.41682,-0.456368 1.6211,-1.26448 2.67617,-1.795805 1.05507,-0.531324 1.81417,-1.057313 1.68689,-1.168864 -0.12728,-0.111552 -1.06485,-0.413576 -2.0835,-0.671166 -1.01864,-0.25759 -2.86411,-0.96058 -4.10104,-1.562199 -1.2369296,-0.601619 -2.3184196,-1.12737 -2.4033096,-1.168336 -0.0849,-0.04097 -0.29612,0.398689 -0.46939,0.97701 -0.17327,0.578321 -0.62588,1.296005 -1.00581,1.594854 -0.37992,0.298849 -0.98547,0.543361 -1.34566,0.543361 -0.36018,0 -1.38592,-0.382263 -2.27942,-0.849474 -0.96976,-0.507089 -2.42775002,-1.653486 -3.61736002,-2.84427 -1.09604998,-1.097139 -2.68233998,-3.043582 -3.52508998,-4.32543 -0.84275,-1.281848 -1.82005,-2.948723 -2.17178,-3.704167 -0.35173,-0.755443 -0.64067,-1.522018 -0.64209,-1.7035 -0.001,-0.181482 -0.40213,-0.776794 -0.89045,-1.322917 -0.48832,-0.546122 -1.03297,-1.269578 -1.21032,-1.60768 -0.21093,-0.402088 -0.29905,-1.629475 -0.25477,-3.548284 0.0633,-2.74467 0.0329,-2.94642 -0.47293,-3.13353 -0.29734,-0.11 -0.7951804,-0.52362 -1.1063304,-0.91918 -0.50579,-0.64301 -0.56571,-1.05212 -0.56571,-3.86287 0,-1.848565 0.21408,-4.478135 0.51964,-6.382795 0.28579,-1.78151 0.8167304,-4.4965 1.1798604,-6.03331 0.36312,-1.53681 0.97544,-3.79795 1.3607,-5.02475 0.38526,-1.2268 1.45404,-4.13554 2.37508,-6.46388 0.92103,-2.32833 2.03993,-5.11016 2.48645,-6.18183 0.44652,-1.07168 1.53192,-3.44281 2.41200998,-5.26918 0.88009,-1.82637 2.08791002,-4.16423 2.68404002,-5.19525 0.59613,-1.03101 1.72804,-2.84064 2.51535,-4.02139 l 1.43148,-2.14682 -0.80938,-0.80939 c -0.44517,-0.44516 -0.80939,-1.03336 -0.80939,-1.30711 0,-0.27374 0.33959,-1.02704 0.75466,-1.674 0.41506,-0.64695 1.93311,-2.35123 3.37344,-3.78729 1.44032,-1.43606 3.5712696,-3.34628 4.7354396,-4.24493 1.16416,-0.89864 2.83504,-2.12164 3.71304,-2.71776 0.87801,-0.59612 2.64064,-1.70066 3.91695,-2.45452 1.27632,-0.75386 3.29639,-1.81799 4.48904,-2.36473 1.19266,-0.54674 3.0019,-1.30883 4.02055,-1.69354 1.01865,-0.3847 2.98318,-1.00021 4.36563,-1.36779 1.38244,-0.36759 2.84096,-0.66864 3.24114,-0.66901 0.40018,-3.6e-4 0.72761,-0.0638 0.72761,-0.14104 0,-0.0772 -0.42294,-0.51172 -0.93986,-0.96558 -0.74722,-0.65607 -0.92347,-0.98798 -0.8599,-1.6194 0.0491,-0.48767 0.3492,-0.99429 0.77752,-1.31261 0.38366,-0.28512 1.63382,-0.74938 2.77813,-1.03169 1.29577,-0.31968 3.47778,-0.56801 5.78473,-0.65836 2.97257,-0.11641 4.44617,-0.0346 7.46102,0.41426 2.06627,0.30762 4.8955,0.85516 6.28716,1.21675 1.39167,0.36158 2.58537,0.65742 2.65268,0.65742 0.0673,0 0.0534,-0.34478 -0.0309,-0.76619 -0.11315,-0.56576 -0.008,-0.91181 0.40349,-1.32291 0.31183,-0.31183 0.89675,-0.55673 1.32969,-0.55673 0.42513,0 2.46093,0.60446 4.52401,1.34325 2.06308,0.73878 5.21971,1.98379 7.01475,2.76668 1.79503,0.78289 4.31336,1.95153 5.5963,2.59698 1.28293,0.64545 3.58276,1.9118 5.11073,2.8141 1.52796,0.90231 3.96875,2.488 5.42395,3.52377 1.45521,1.03576 3.53881,2.59403 4.63021,3.46282 1.09141,0.86878 3.89283,3.49287 6.225389,5.83131 2.45077,2.45696 5.2519,5.59196 6.63577,7.42671 1.31712,1.74625 2.9936,4.06797 3.72552,5.15938 0.73191,1.09141 1.84249,2.81781 2.46796,3.83646 0.62546,1.01864 2.10854,3.63802 3.29573,5.82083 1.1872,2.18281 2.78855,5.27844 3.55858,6.87917 0.77002,1.60073 2.03013,4.34546 2.80023,6.0994 0.77011,1.75394 1.78858,4.31379 2.26327,5.68854 0.69975,2.02655 0.87286,2.9611 0.9148,4.93856 0.0455,2.14714 0.13071,2.54291 0.71177,3.30729 0.36303,0.47756 0.85629,1.24933 1.09614,1.71505 0.23985,0.46571 0.43609,1.12805 0.43609,1.47185 0,0.35268 -0.35411,0.96375 -0.81256,1.402195 -0.74596,0.71342 -0.96368,0.77542 -2.65663,0.75658 -1.57929,-0.0176 -1.81979,0.0394 -1.67493,0.39687 0.093,0.22957 0.38547,1.45539 0.64987,2.72404 0.2644,1.26864 0.60614,3.59036 0.75941,5.159371 0.15328,1.569009 0.34403,3.805243 0.4239,4.96941 0.0799,1.164167 0.0652,3.766464 -0.0325,5.782882 -0.16066,3.313996 -0.23708,3.736748 -0.79549,4.400372 -0.33976,0.403786 -0.94648,0.798494 -1.34825,0.877129 -0.43314,0.08477 -1.20194,-0.064 -1.88862,-0.365476 -0.63696,-0.279647 -1.26204,-0.508449 -1.38906,-0.508449 -0.12703,0 -0.23095,0.639577 -0.23095,1.421282 0,0.781705 -0.29766,2.594678 -0.66146,4.028828 -0.3638,1.43415 -0.66146,2.769189 -0.66146,2.966754 0,0.197564 1.22039,1.666746 2.71198,3.26485 1.49159,1.598103 3.75013,4.29669 5.01899,5.996859 1.26886,1.70017 3.02459,4.344246 3.90164,5.875726 0.87704,1.53148 2.23349,4.269918 3.01434,6.085417 0.78085,1.815499 1.8607,4.610595 2.39966,6.211324 0.53896,1.600729 1.4455,4.696354 2.01453,6.879166 0.56903,2.182812 1.5143,6.409531 2.10059,9.392708 0.58629,2.983177 1.25858,6.01927 1.49397,6.746874 0.23539,0.727605 0.73616,1.653316 1.11282,2.057137 0.41678,0.446842 1.34702,0.93875 2.37665,1.256771 1.02199,0.31566 2.44734,0.522551 3.60007,0.522551 1.04954,0 2.7563,-0.222647 3.7928,-0.494771 1.0365,-0.272125 2.41365,-0.804847 3.06033,-1.183828 0.64668,-0.378981 1.72161,-1.296148 2.38873,-2.038148 0.66713,-0.742 1.67636,-2.322636 2.24275,-3.512526 0.5664,-1.189889 1.34238,-3.115935 1.72441,-4.280102 0.38203,-1.164166 0.98442,-3.426354 1.33864,-5.027083 0.35422,-1.600729 0.76872,-4.160573 0.92111,-5.688541 0.15239,-1.527969 0.34566,-5.218906 0.4295,-8.202083 0.0838,-2.983177 0.28085,-6.674114 0.4378,-8.202083 0.15695,-1.527969 0.6357,-4.027135 1.0639,-5.553703 0.42819,-1.526568 1.24402,-3.768921 1.81296,-4.983008 0.56894,-1.214087 1.67912,-3.060702 2.46707,-4.103589 0.78794,-1.042887 2.3137,-2.729595 3.39057,-3.748241 1.07686,-1.018646 2.63294,-2.423087 3.45795,-3.12098 0.82501,-0.697893 2.08934,-2.150019 2.80964,-3.226946 0.72029,-1.076927 1.54902,-2.597904 1.84162,-3.379949 0.2926,-0.782046 0.60773,-2.127889 0.70029,-2.990763 0.0925,-0.862873 0.33143,-1.818954 0.53084,-2.124624 0.1994,-0.305669 0.79996,-0.763325 1.33456,-1.017012 0.8172,-0.387784 1.15859,-0.414267 2.14347,-0.166272 0.80665,0.203116 1.32866,0.210847 1.67624,0.02483 0.27764,-0.148584 1.13769,-0.26874 1.91125,-0.267013 0.77355,0.0017 2.02954,0.169021 2.7911,0.371763 0.76156,0.202742 2.27583,0.808965 3.36506,1.347161 1.12103,0.553915 2.72656,1.662254 3.69991,2.554148 1.30015,1.191353 1.97972,2.095512 2.7865,3.707419 0.88544,1.769056 1.06701,2.397886 1.06701,3.695467 v 1.563657 l 0.78061,-0.403669 c 0.42933,-0.222019 1.14912,-0.40367 1.59952,-0.40367 0.51669,0 1.0586,0.239678 1.46835,0.649432 0.35719,0.357187 0.66314,0.863203 0.6799,1.124479 0.0168,0.261276 0.008,0.713172 -0.0191,1.004214 -0.0272,0.291042 -0.79872,1.898385 -1.71438,3.571875 -0.91566,1.673489 -1.92965,3.63802 -2.25332,4.365625 -0.32367,0.727604 -0.99466,2.47883 -1.49109,3.891613 -0.49643,1.412783 -0.9026,2.637363 -0.9026,2.721288 0,0.08393 0.24402,0.022 0.54225,-0.137613 0.29824,-0.159612 0.85201,-0.253098 1.23061,-0.207746 0.37859,0.04535 0.92063,0.395005 1.20452,0.777008 l 0.51617,0.694551 -1.24509,2.85946 c -0.68481,1.572702 -1.52176,3.950074 -1.85989,5.283047 -0.33814,1.332973 -0.73789,3.543669 -0.88834,4.912656 -0.15045,1.368987 -0.29827,4.98938 -0.32848,8.045317 -0.0302,3.055938 -0.14803,7.163594 -0.26181,9.128125 -0.11378,1.964531 -0.3399,4.941093 -0.5025,6.614583 -0.16259,1.673489 -0.46796,4.054739 -0.67861,5.291666 -0.21064,1.236927 -0.66947,3.439583 -1.01961,4.894792 -0.35015,1.455208 -1.13413,4.134114 -1.74218,5.953124 -0.60806,1.81901071 -1.96866,5.0932293 -3.02358,7.2760416 -1.05491,2.1828124 -2.74901,5.2189064 -3.76466,6.7468744 -1.01565,1.527969 -2.7708,3.758762 -3.90034,4.957318 -1.12954,1.198556 -2.78701,2.758359 -3.68327,3.466228 -0.89626,0.707869 -2.64565,1.894946 -3.88754,2.637948 -1.24189,0.743003 -3.50227,1.844142 -5.02306,2.446978 -1.5208,0.602835 -4.25517,1.434675 -6.0764,1.848533 -1.82122,0.413858 -5.03772,0.948094 -7.14777,1.187192 -2.5478,0.288701 -6.05827,0.435243 -10.45104,0.436271 -3.78109,8.85e-4 -8.99472,-0.186997 -12.17083,-0.438597 -3.05594,-0.24208 -5.87955,-0.449629 -6.27469,-0.46122 -0.39514,-0.01159 -0.90116,0.130567 -1.12448,0.315908 -0.24347,0.202067 -0.4076,0.774218 -0.40994,1.429066 -0.002,0.600646 -0.15097,1.378261 -0.33073,1.728035 -0.17976,0.349774 -0.62448,0.85466 -0.98829,1.121968 -0.3638,0.267308 -1.27308,0.600575 -2.02063,0.740592 -0.74754,0.140018 -3.42645,0.433619 -5.95312,0.652446 -2.52668,0.218828 -6.13136,0.478023 -8.01041,0.57599 -2.55931,0.133432 -3.6214,0.297132 -4.23333,0.652482 -0.44929,0.260898 -1.47172,0.656982 -2.27209,0.880187 -0.80036,0.223204 -2.61137,0.530085 -4.02447,0.681958 -1.41309,0.151873 -4.091989,0.26085 -5.953119,0.242172 -1.86113,-0.01868 -4.09824,-0.145433 -4.97137,-0.281677 z m 10.210539,-3.421889 c 1.22368,-0.163869 2.49881,-0.401345 2.83362,-0.527725 0.57539,-0.217187 0.60032,-0.327743 0.45489,-2.01716 -0.0846,-0.983059 -0.26873,-3.037536 -0.40913,-4.565504 -0.1404,-1.527969 -0.36578,-3.657757 -0.50084,-4.732862 -0.13947,-1.110135 -0.42109,-2.130252 -0.65178,-2.360947 -0.22342,-0.223415 -0.79805,-0.411807 -1.27696,-0.418647 -0.47892,-0.0068 -2.06138,0.07871 -3.516589,0.190118 -1.4552,0.111405 -3.59833,0.318543 -4.7625,0.460308 -1.16416,0.141764 -2.38274,0.316779 -2.70795,0.388921 -0.32971,0.07314 -0.65787,0.396494 -0.74181,0.730943 -0.0828,0.329876 0.0273,1.488922 0.24473,2.575658 0.2174,1.086735 0.58489,3.404633 0.81663,5.150882 0.23175,1.74625 0.48076,3.553288 0.55336,4.01564 0.0961,0.612238 0.32742,0.912083 0.85123,1.103591 0.39558,0.144623 2.03975,0.272351 3.65372,0.283839 1.61397,0.01149 3.935689,-0.113186 5.159379,-0.277055 z M 89.130891,30.685962 c -0.10418,-1.200546 -0.2305,-2.227286 -0.28071,-2.281644 -0.0502,-0.05436 -0.28039,-0.02627 -0.51152,0.06243 -0.23113,0.08869 -0.59345,0.575827 -0.80516,1.082522 -0.21171,0.506694 -0.38493,1.275523 -0.38493,1.708508 0,0.51358 0.20441,0.930423 0.58804,1.199123 0.32342,0.226533 0.81206,0.411878 1.08587,0.411878 0.46247,0 0.48438,-0.155069 0.30841,-2.182813 z m -3.28514,0.132292 c 0.17915,-0.545703 0.58966,-1.408906 0.91224,-1.918229 0.32259,-0.509323 0.84009,-1.152854 1.15001,-1.43007 0.35835,-0.320534 0.56349,-0.820543 0.56349,-1.373447 0,-0.478181 -0.095,-0.928145 -0.21116,-0.99992 -0.11613,-0.07178 -0.79116,0.327041 -1.50007,0.886259 -0.7089,0.559219 -1.5559,1.459155 -1.88223,1.99986 -0.32633,0.540704 -0.67097,1.396968 -0.76587,1.902809 -0.12733,0.67874 -0.0534,1.051397 0.28232,1.422318 0.25017,0.276434 0.60576,0.502608 0.7902,0.502608 0.18444,0 0.48193,-0.446485 0.66107,-0.992188 z m 26.809199,0.30406 c 0.27301,-0.104764 -0.46382,-0.600206 -2.16117,-1.453167 -1.41648,-0.711813 -2.60519,-1.295125 -2.64157,-1.296247 -0.0364,-0.0011 -0.0661,0.280732 -0.0661,0.626344 0,0.345612 0.0744,1.000455 0.16536,1.455208 l 0.16537,0.826823 h 2.06195 c 1.13408,0 2.24837,-0.07153 2.4762,-0.158961 z m 12.72591,-1.392354 1.32292,-0.18204 -1.78594,-0.866629 c -0.98227,-0.476647 -1.78594,-0.979611 -1.78594,-1.117698 0,-0.138087 0.25071,-0.251068 0.55712,-0.251068 0.30642,0 1.26852,-0.184341 2.13801,-0.409648 0.86948,-0.225306 2.25589,-0.709008 3.0809,-1.074893 1.23063,-0.545777 1.41953,-0.710657 1.05183,-0.91811 -0.24649,-0.139075 -1.58287,-0.540703 -2.96972,-0.892506 -1.38685,-0.351803 -2.71495,-0.747877 -2.95133,-0.880163 -0.2978,-0.166655 0.26533,-0.293953 1.83365,-0.414503 1.24489,-0.09569 3.25092,-0.485334 4.45784,-0.865875 1.20693,-0.380541 2.90878,-1.048196 3.78191,-1.483678 0.87312,-0.435482 2.21258,-1.269409 2.97656,-1.853172 0.76399,-0.583762 1.38906,-1.21246 1.38906,-1.397106 0,-0.187505 -1.13889,-0.728145 -2.57968,-1.224595 -2.25423,-0.776733 -2.59168,-0.972326 -2.67472,-1.550333 -0.0523,-0.363803 0.15395,-2.14974 0.45824,-3.96875 0.30429,-1.8190106 0.63188,-3.9026043 0.72798,-4.6302084 l 0.17472,-1.3229166 0.35564,1.356424 c 0.1956,0.7460332 0.52634,2.5777418 0.73498,4.0704636 0.20863,1.4927224 0.53767,2.8550344 0.73119,3.0273604 0.19353,0.172326 1.06624,0.527716 1.93936,0.789756 0.87313,0.262039 2.03,0.700741 2.57084,0.974892 0.54084,0.274151 1.10639,0.728366 1.25677,1.009365 0.15039,0.281 0.27299,0.786627 0.27244,1.123615 -5.4e-4,0.336989 -0.22742,0.984049 -0.50418,1.437913 -0.27675,0.453863 -1.20488,1.365145 -2.0625,2.025071 -0.85763,0.659925 -2.49726,1.682511 -3.64364,2.272412 -1.92971,0.992989 -2.03669,1.090507 -1.44223,1.314658 0.35315,0.133161 0.99927,0.31464 1.43583,0.403287 0.43657,0.08865 2.10344,0.289533 3.70417,0.446414 1.60073,0.15688 5.91899,0.290828 9.59614,0.297663 5.14664,0.0096 6.78211,-0.06757 7.10445,-0.335091 0.2303,-0.191135 0.7936,-0.950653 1.25178,-1.687819 0.45817,-0.737166 1.02416,-1.754358 1.25774,-2.260426 0.23358,-0.506069 0.61351,-1.355915 0.84428,-1.888547 0.23078,-0.532631 0.61168,-1.8984 0.84646,-3.035043 0.23478,-1.136642 0.45017,-2.084581 0.47864,-2.106531 0.0285,-0.02195 0.61564,-0.121742 1.30483,-0.221759 l 1.25306,-0.181849 -0.1044,1.083883 c -0.0574,0.596136 -0.23331,1.239214 -0.39087,1.429063 -0.15756,0.189848 -0.20796,0.423701 -0.11199,0.519671 0.096,0.09597 0.0437,0.442204 -0.11615,0.769406 -0.15985,0.327203 -0.42442,1.032871 -0.58793,1.568153 -0.1635,0.535281 -0.77904,1.725906 -1.36787,2.645833 -0.58882,0.919927 -1.43747,2.057764 -1.88588,2.528527 -0.44841,0.470762 -0.74634,0.924879 -0.66207,1.009148 0.0843,0.08427 1.57809,-0.03216 3.31961,-0.258721 1.74151,-0.226566 4.52279,-0.7545 6.18061,-1.173188 1.65782,-0.418687 3.93316,-1.143807 5.05631,-1.611377 1.12316,-0.46757 2.43198,-1.112393 2.90851,-1.432939 0.84106,-0.565763 0.86902,-0.644456 0.9558,-2.69 0.0492,-1.158954 -0.0547,-3.297813 -0.23076,-4.753022 -0.17609,-1.455208 -0.43452,-2.788947 -0.57428,-2.9638654 -0.13976,-0.1749178 -0.17672,-0.5618709 -0.0821,-0.8598957 0.10384,-0.3271793 0.0539,-0.5418634 -0.12605,-0.5418634 -0.16392,0 -0.22324,-0.1210047 -0.13184,-0.2688992 0.0914,-0.1478946 0.27702,-0.2003991 0.41249,-0.1166768 0.13547,0.083722 0.25385,-0.00363 0.26307,-0.1941216 0.009,-0.1904892 0.12852,-0.067458 0.2651,0.2734036 0.13658,0.3408611 0.17331,0.7411258 0.0816,0.8894771 -0.0917,0.1483512 -0.0304,0.3539529 0.13614,0.4568927 0.16656,0.1029398 0.36794,0.7147067 0.44752,1.3594807 0.0796,0.644775 0.25612,2.341182 0.39231,3.769794 0.16667,1.74832 0.15815,2.764653 -0.0261,3.108854 -0.18027,0.336834 -0.18303,0.511378 -0.008,0.511378 0.14608,0 0.19706,0.178594 0.1133,0.396875 -0.0838,0.218281 -0.0439,0.396875 0.0885,0.396875 0.13242,0 0.77024,-0.376588 1.41737,-0.836863 0.64713,-0.460274 2.10285,-1.76501 3.23493,-2.899412 1.83681,-1.84058 2.03981,-2.142037 1.88631,-2.801158 -0.0946,-0.406234 -0.39577,-1.259759 -0.66926,-1.89672 -0.27349,-0.636962 -0.49725,-1.381103 -0.49725,-1.6536463 0,-0.2725433 -0.13891,-0.4955332 -0.30868,-0.4955332 -0.16978,0 -0.23116,-0.077524 -0.13641,-0.1722764 0.0947,-0.094752 0.005,-0.3031113 -0.19963,-0.4630208 -0.20455,-0.1599094 -0.61942,-0.7408503 -0.92193,-1.2909796 -0.30251,-0.5501293 -0.55002,-1.2007208 -0.55002,-1.4457588 0,-0.3906213 0.0467,-0.3977808 0.37925,-0.058098 0.20859,0.2130841 0.80671,1.1479814 1.32917,2.0775496 0.62464,1.111385 0.89654,1.8814823 0.79404,2.2489582 -0.1204,0.431673 -0.0952,0.4705483 0.1109,0.1708447 0.21156,-0.3076876 0.37094,-0.1434056 0.77005,0.7937496 0.27681,0.649957 0.56101,1.359057 0.63156,1.575778 0.0868,0.266573 0.4638,-0.0707 1.16551,-1.04263 0.57048,-0.790167 1.4235,-2.0985781 1.89561,-2.9075795 0.47211,-0.8090015 1.29535,-2.3208933 1.82942,-3.3597597 l 0.97104,-1.888848 -0.77109,-0.9320914 c -0.4241,-0.5126503 -1.6941,-1.66787509 -2.82224,-2.56716609 -1.16292,-0.92702411 -1.97479,-1.75862211 -1.87482,-1.92037711 0.11054,-0.178868 0.0171,-0.224203 -0.25048,-0.121523 -0.28974,0.111185 -0.38265,0.04873 -0.28932,-0.194498 0.0916,-0.238649 -0.15587,-0.421823 -0.74108,-0.54859 -0.48321,-0.104671 -1.20738,-0.422737 -1.60928,-0.706812 -0.40189,-0.284076 -0.66853,-0.617115 -0.59253,-0.740087 0.076,-0.122972 -0.23471,-0.409613 -0.69048,-0.636979 -0.45577,-0.227367 -0.95167,-0.337378 -1.102,-0.244469 -0.15787,0.09757 -0.19358,0.0399 -0.0845,-0.136539 0.10384,-0.168005 0.13197,-0.305463 0.0625,-0.305463 -0.0694,0 -0.33413,-0.07977 -0.58818,-0.177255 -0.35088,-0.134646 -0.40748,-0.08695 -0.23544,0.198437 0.19286,0.319916 0.16046,0.322141 -0.21826,0.01498 -0.24461,-0.198389 -0.37951,-0.46628 -0.29976,-0.595312 0.0798,-0.129032 -0.027,-0.234604 -0.23725,-0.234604 -0.21024,0 -0.72328,-0.177861 -1.1401,-0.395245 -0.41681,-0.217385 -0.95346,-0.395979 -1.19256,-0.396875 -0.23909,-8.97e-4 -0.50539,-0.185809 -0.59177,-0.410917 -0.0864,-0.225108 -0.30748,-0.389595 -0.49133,-0.365526 -0.18385,0.02407 -0.54965,0.02965 -0.8129,0.01241 -0.29413,-0.01926 -0.40489,-0.150674 -0.28733,-0.340895 0.1298,-0.210015 0.0453,-0.253526 -0.26271,-0.135322 -0.24971,0.09582 -0.3922,0.0742 -0.31665,-0.04804 0.0755,-0.122248 -0.31903,-0.359009 -0.87685,-0.526136 -0.55782,-0.167127 -1.21579,-0.303868 -1.46216,-0.303868 -0.24637,0 -0.38206,-0.1065862 -0.30155,-0.2368592 0.0805,-0.130272 -0.0413,-0.308866 -0.27061,-0.396875 -0.22935,-0.08801 -0.73468,-0.161839 -1.12296,-0.164067 -0.57301,-0.0033 -0.63122,-0.05744 -0.30909,-0.287535 0.31885,-0.227751 0.27984,-0.257833 -0.19844,-0.153011 -0.32742,0.07176 -0.59531,0.02256 -0.59531,-0.10934 0,-0.131897 -0.35016,-0.239813 -0.77813,-0.239813 -0.42798,0 -0.85172,-0.119062 -0.94166,-0.264583 -0.0899,-0.145521 -0.54345,-0.26688 -1.0078,-0.269687 -0.46436,-0.0028 -1.4396,-0.162433 -2.1672,-0.354725 l -1.32292,-0.34962 0.8599,-0.195465 c 0.47294,-0.107506 1.24685,-0.111138 1.71979,-0.0081 0.47294,0.103067 2.40771,0.760197 4.29948,1.460291 1.89177,0.700093 4.57068,1.7675512 5.95312,2.3721272 1.38245,0.604576 2.66155,1.220959 2.84245,1.369741 0.1809,0.148781 1.04757,0.610383 1.92593,1.025781 0.87836,0.415398 1.99174,1.056344 2.47419,1.424324 0.48245,0.36798 0.99839,0.669054 1.14655,0.669054 0.14815,0 0.71883,0.357188 1.26818,0.79375 0.54934,0.436563 1.14547,0.79375 1.32473,0.79375 0.17926,0 0.96656,0.496722 1.74956,1.103825 0.78299,0.607104 1.93,1.58475211 2.54891,2.17255171 0.9799,0.93064049 1.17307,1.01877359 1.4951,0.6821125 0.2034,-0.2126377 0.81326,-1.5772389 1.35526,-3.03244721 0.542,-1.455208 1.37261,-4.193646 1.8458,-6.085416 0.4732,-1.8917712 0.91762,-3.9849132 0.98762,-4.6514272 l 0.12726,-1.211844 -2.939,-1.203247 c -1.61645,-0.661785 -3.59384,-1.445549 -4.3942,-1.741698 -0.80037,-0.296148 -2.5863,-0.846995 -3.96875,-1.224103 -1.38245,-0.377109 -3.94229,-0.981591 -5.68854,-1.343293 -1.74625,-0.361702 -4.36563,-0.843225 -5.82084,-1.07005 -1.45521,-0.226825 -3.12208,-0.511979 -3.70416,-0.633676 -0.99677,-0.208395 -0.9583,-0.22291 0.66145,-0.249522 0.94589,-0.01554 2.73183,0.08931 3.96875,0.233006 1.23693,0.143694 2.54662,0.322298 2.91042,0.396897 0.3638,0.0746 0.92739,0.185939 1.25241,0.247421 0.32502,0.06148 0.70133,0.180009 0.83625,0.263392 0.13491,0.08338 0.79264,0.20699 1.46162,0.274681 0.66897,0.06769 1.44489,0.245407 1.72426,0.394924 0.27938,0.149518 0.71471,0.192512 0.96741,0.09554 0.28077,-0.107744 0.39482,-0.07175 0.29327,0.09257 -0.10038,0.162416 0.56364,0.399298 1.67707,0.598281 1.17019,0.209124 1.77977,0.432128 1.66939,0.610719 -0.1008,0.163111 -0.0487,0.203962 0.12401,0.09722 0.16382,-0.101249 1.34308,0.130072 2.62056,0.514046 1.27749,0.383974 3.29667,1.038474 4.48706,1.454443 l 2.16436,0.756308 0.14382,-0.715921 c 0.0791,-0.393757 0.25987,-2.144672 0.40171,-3.890922 0.14184,-1.74625 0.29379,-4.473829 0.33766,-6.061288 l 0.0798,-2.886289 -3.17499,-0.916771 c -1.74625,-0.504224 -3.68066,-0.973526 -4.29867,-1.042893 -0.61802,-0.06937 -1.06624,-0.21904 -0.99606,-0.332606 0.0702,-0.113567 -0.59448,-0.258717 -1.47704,-0.322556 -0.88256,-0.06384 -1.68526,-0.246488 -1.78378,-0.405888 -0.0985,-0.159399 -0.6546,-0.289433 -1.23574,-0.288964 -0.58115,4.69e-4 -2.36632,-0.13143 -3.96705,-0.29311 -1.60073,-0.161679 -4.48411,-0.300681 -6.40751,-0.308892 -1.92341,-0.0082 -3.63336,0.06928 -3.7999,0.172208 -0.16653,0.102925 -0.40672,0.02305 -0.53374,-0.17749 -0.1609,-0.254025 -0.23218,-0.266313 -0.235,-0.04051 -0.003,0.222522 -0.27359,0.272809 -0.86395,0.160433 -0.47294,-0.09003 -0.77245,-0.06906 -0.66557,0.0466 0.10688,0.115654 0.0168,0.341116 -0.20016,0.501025 -0.23579,0.173778 -0.75103,1.940603 -1.28073,4.391786 -0.71135,3.291762 -1.19186,4.77776 -2.435,7.530323 -0.85181,1.886104 -1.9457,4.019138 -2.43086,4.740075 -0.48515,0.720937 -0.82345,1.463618 -0.75177,1.650403 0.0717,0.186786 -0.11028,0.415972 -0.40435,0.509305 -0.29406,0.09333 -1.15119,0.669183 -1.90472,1.279669 -0.75354,0.610486 -2.00531,1.381337 -2.78171,1.713001 -0.7764,0.331665 -2.30492,0.7739402 -3.39671,0.9828332 -1.09179,0.208894 -2.75477,0.379807 -3.69551,0.379807 -0.94073,0 -2.56737,-0.184302 -3.61474,-0.40956 -1.04737,-0.225259 -2.46986,-0.7019802 -3.16109,-1.0593812 l -1.25677,-0.64982 v 2.0531892 c 0,1.129254 -0.17499,3.549136 -0.38886,5.377515 -0.21388,1.828379 -0.56333,4.07218011 -0.77657,4.9862252 -0.21323,0.9140452 -0.45496,1.729166 -0.53717,1.8113796 -0.0822,0.082214 -0.15066,-1.3884112 -0.1521,-3.26805519 -10e-4,-1.87964361 -0.12087,-5.14394061 -0.26541,-7.25399261 -0.14454,-2.110052 -0.38349,-4.9080212 -0.53101,-6.2177082 -0.14752,-1.309687 -0.50961,-3.690937 -0.80465,-5.291666 -0.29503,-1.60073 -0.89676,-4.577292 -1.33716,-6.614583 -0.44041,-2.037292 -1.10237,-4.835261 -1.47104,-6.217708 -0.36866,-1.382448 -1.12324,-3.823229 -1.67684,-5.423958 -0.5536,-1.60073 -1.44673,-4.041511 -1.98473,-5.423959 -0.53801,-1.382447 -1.56419,-3.723878 -2.2804,-5.203179 -0.71621,-1.479301 -2.12423,-3.920082 -3.12892,-5.423958 -1.00469,-1.503876 -2.46914,-3.533399 -3.25434,-4.510051 -0.78519,-0.976652 -1.99132,-2.37837 -2.68029,-3.114929 -0.68896,-0.736558 -2.16806,-2.120855 -3.28689,-3.076215 l -2.03424,-1.737017 -0.21305,1.914559 c -0.11717,1.053007 -0.43456,2.348766 -0.7053,2.879463 -0.27074,0.530698 -1.00831,1.439908 -1.63904,2.020468 -0.63073,0.580559 -1.73257,1.458063 -2.44855,1.950008 -0.71597,0.491945 -2.08519,1.22876 -3.04271,1.637366 -0.95751,0.408606 -2.15765,0.747767 -2.66698,0.753691 -0.50932,0.0059 -1.19393,0.08256 -1.52135,0.170308 -0.48446,0.129832 -0.59531,0.34609 -0.59531,1.161433 0,0.551042 -0.23306,2.174264 -0.51791,3.607161 -0.35707,1.796161 -0.85114,3.25077 -1.590869,4.683738 l -1.07295,2.078471 0.4162,3.477779 c 0.22891,1.912779 0.64177,4.192154 0.91748,5.065279 0.2757,0.873125 0.764699,3.529363 1.086669,5.902752 l 0.58539,4.315251 1.08018,-0.137542 1.08018,-0.137542 -1.04476,0.340278 c -0.57462,0.187152 -1.25031,0.628902 -1.50152,0.981665 -0.25122,0.352763 -0.53871,1.165319 -0.63887,1.805679 -0.16655,1.064841 -0.13999,1.147365 0.3109,0.966118 0.27115,-0.108997 0.96925,-0.245204 1.55134,-0.302685 l 1.05833,-0.104509 -0.88139,0.276006 c -0.72912,0.228321 -0.82637,0.342305 -0.56292,0.659747 0.22489,0.270967 0.2312,0.38374 0.0215,0.38374 -0.16334,0 -0.29698,0.112928 -0.29698,0.250951 0,0.138023 -0.29766,0.572128 -0.66146,0.964677 -0.48508,0.523413 -0.66006,1.003261 -0.65622,1.799569 0.003,0.597214 0.11743,1.861053 0.25455,2.808531 0.13712,0.947477 0.36565,2.733415 0.50785,3.9687492 0.1422,1.235335 0.68133,5.40122 1.19807,9.25752161 0.51674,3.85630189 1.05652,7.96395789 1.19951,9.12812449 0.14298,1.1641666 0.3999,3.2232387 0.57092,4.5757157 0.25753,2.036632 0.40554,2.509675 0.86163,2.753766 0.30288,0.162094 0.68014,0.424741 0.83835,0.583659 0.15821,0.158918 0.48234,0.586684 0.72028,0.950591 0.25449,0.389225 0.61961,2.063869 0.88677,4.067288 0.39414,2.955537 0.54445,3.501616 1.13727,4.131829 0.37571,0.399404 1.50902,1.218265 2.51848,1.819691 1.00946,0.601425 1.98878,1.093501 2.17627,1.093501 0.25659,0 0.27707,-0.167823 0.0829,-0.678683 -0.14192,-0.373275 -0.25804,-0.98293 -0.25804,-1.354789 v -0.676106 l 1.12448,0.913981 c 0.61846,0.502689 1.66026,1.215471 2.3151,1.583958 0.65485,0.368488 1.72641,0.802174 2.38125,0.963746 0.65485,0.161572 1.48829,0.339888 1.85209,0.396257 0.3638,0.05637 1.3163,0.108273 2.11666,0.115342 0.80037,0.0071 2.05052,-0.06907 2.77813,-0.169188 z m -3.91056,-43.04691 c -2.26317,-1.827774 -4.18454,-3.504852 -4.26973,-3.72684 -0.13167,-0.343123 0.10293,-0.386183 1.56531,-0.287314 0.9461,0.06396 1.71904,0.0444 1.71764,-0.04347 -0.001,-0.08787 -0.60869,-0.966778 -1.34953,-1.95312 -0.74085,-0.986341 -1.81582,-2.176966 -2.38882,-2.645833 -0.57301,-0.468867 -1.3647,-1.124847 -1.75932,-1.457734 -0.53922,-0.454869 -0.58601,-0.557465 -0.18832,-0.412929 0.29104,0.105777 1.11595,0.536403 1.83314,0.956948 0.71719,0.420546 1.82486,1.191452 2.4615,1.713126 0.63663,0.521674 1.68166,1.637705 2.32228,2.480068 0.64063,0.842363 1.41108,2.014382 1.71213,2.604485 0.30105,0.590104 0.85781,1.933553 1.23725,2.985441 0.37944,1.051889 0.86648,2.182048 1.08232,2.511463 0.21585,0.329416 0.33542,0.598938 0.26572,0.598938 -0.0697,0 -1.97841,-1.495452 -4.24157,-3.323227 z m -19.37277,-6.730939 c -0.0899,-0.145521 -0.0374,-0.264583 0.11667,-0.264583 0.15411,0 0.2802,0.119062 0.2802,0.264583 0,0.145521 -0.0525,0.264583 -0.11668,0.264583 -0.0642,0 -0.19026,-0.119062 -0.28019,-0.264583 z m 2.91041,-4.7625 c 0.29104,-0.125065 0.70776,-0.22739 0.92604,-0.22739 0.25016,0 0.20126,0.08406 -0.13229,0.22739 -0.29104,0.125065 -0.70776,0.227391 -0.92604,0.227391 -0.25016,0 -0.20125,-0.08406 0.13229,-0.227391 z M 20.200241,26.188046 c 0.13448,-0.327422 0.47979,-1.785937 0.76737,-3.241146 0.28758,-1.455208 0.65155,-3.360208 0.80883,-4.233333 0.15727,-0.873125 0.31542,-1.936832 0.35143,-2.363794 0.0586,-0.694665 -0.0319,-0.79516 -0.86055,-0.95572 -0.50932,-0.09868 -1.81901,-0.325869 -2.91041,-0.504852 -1.09141,-0.178984 -3.05594,-0.553076 -4.36563,-0.831315 -1.30969,-0.278238 -2.93764,-0.607375 -3.61768,-0.731415 -0.6800296,-0.12404 -1.3858996,-0.133149 -1.5685796,-0.02024 -0.22285,0.137726 -0.48566,2.019043 -0.79861,5.716728 -0.36094,4.264753 -0.39515,5.582716 -0.15121,5.826522 0.17339,0.173292 1.32728,0.578577 2.5642096,0.900634 1.23692,0.322057 2.96333,0.669998 3.83645,0.773202 0.87313,0.103203 2.51279,0.203933 3.6437,0.223844 1.90032,0.03346 2.07472,-0.0089 2.30068,-0.559111 z m 25.0287,-0.313616 c 1.59147,-0.208869 4.85812,-0.508023 7.25921,-0.664787 2.4011,-0.156764 5.67532,-0.40436 7.27605,-0.550213 1.60072,-0.145853 3.2676,-0.342225 3.70416,-0.436381 0.75091,-0.161953 0.70807,-0.197945 -0.79375,-0.666839 -0.87312,-0.272606 -3.03767,-0.605407 -4.8101,-0.739559 -1.77243,-0.134152 -4.30132,-0.431073 -5.61976,-0.659825 -1.31843,-0.228752 -3.26154,-0.709283 -4.31802,-1.067845 -1.05648,-0.358563 -2.29436,-0.652763 -2.75086,-0.653777 -0.50235,-0.0011 -1.3304,0.337606 -2.09762,0.858051 -0.6972,0.472942 -1.48767,1.160344 -1.75661,1.527558 -0.26893,0.367214 -0.5608,1.110347 -0.64861,1.651406 -0.10049,0.619269 -0.0369,1.131615 0.1716,1.382859 0.18218,0.219512 0.59212,0.399114 0.91097,0.399114 0.31886,0 1.88186,-0.170893 3.47334,-0.379762 z m -5.58611,-2.130829 c 0.41959,-0.85761 1.19066,-1.845697 1.88313,-2.413122 0.64494,-0.528476 1.17261,-1.065585 1.17261,-1.193576 0,-0.127991 -0.20836,-0.230096 -0.46302,-0.2269 -0.25466,0.0032 -0.94705,0.225658 -1.53865,0.49436 -0.5916,0.268703 -1.50111,0.862125 -2.02114,1.318717 -0.52003,0.456591 -1.14686,1.254493 -1.39296,1.773116 -0.24611,0.518622 -0.38213,1.11321 -0.30227,1.321306 0.0867,0.225853 0.50928,0.378357 1.04848,0.378357 0.832,0 0.95938,-0.114635 1.61382,-1.452258 z m 46.61081,-0.153041 1.41844,-0.81155 -0.0366,-1.923998 c -0.0311,-1.635375 0.0561,-2.049348 0.58121,-2.759595 l 0.61778,-0.835597 -1.15706,-4.564792 c -0.63638,-2.510637 -1.6843,-5.874481 -2.32871,-7.47521 -1.1473,-2.8499154 -1.19295,-3.0809199 -2.19593,-11.112499 -0.56334,-4.511146 -1.09219,-8.488078 -1.17522,-8.837627 -0.14925,-0.628362 -0.16349,-0.623479 -1.26029,0.43212 -0.61014,0.587214 -1.38296,1.207884 -1.71738,1.379265 -0.45814,0.234787 -0.95849,0.238848 -2.02966,0.01647 -1.01285,-0.210267 -1.75096,-0.586109 -2.56697,-1.307089 -0.62993,-0.556579 -1.47731,-1.672306 -1.88306,-2.479395 -0.40575,-0.807089 -0.92268,-2.339511 -1.14872,-3.405382 -0.23794,-1.121947 -0.3596,-2.613206 -0.28894,-3.541642 0.0671,-0.882031 0.3757,-2.177088 0.6857,-2.877904 0.37828,-0.855167 0.56194,-1.806975 0.55848,-2.894222 -0.003,-0.891007 -0.17852,-2.9297 -0.39039,-4.530429 -0.21187,-1.600729 -0.56042,-4.041511 -0.77455,-5.423958 -0.21413,-1.382448 -0.5929,-3.942292 -0.8417,-5.688542 -0.24881,-1.74625 -0.60624,-3.561953 -0.79429,-4.034895 -0.24664,-0.620309 -0.51153,-0.860616 -0.95072,-0.862481 -0.33485,-0.0014 -1.26279,-0.30699 -2.0621,-0.679042 -0.79931,-0.372052 -1.8422,-0.973099 -2.31755,-1.33566 -0.47534,-0.362561 -1.09154,-1.104718 -1.36933,-1.649237 -0.2778,-0.544519 -0.6862,-1.877074 -0.90758,-2.961234 -0.22137,-1.08416 -0.53133,-3.161825 -0.6888,-4.617033 -0.24064,-2.223757 -0.22051,-2.867252 0.12619,-4.033823 0.34433,-1.158562 0.64048,-1.558284 1.79164,-2.418233 0.75853,-0.566634 2.00139,-1.341597 2.76192,-1.72214 0.76053,-0.380543 2.18928,-1.20634 3.175,-1.835104 0.98572,-0.628764 2.1494,-1.27517 2.58596,-1.436458 0.43657,-0.161287 1.4486,-0.470509 2.24896,-0.68716 0.80037,-0.21665 2.58631,-0.634561 3.96875,-0.928689 1.38245,-0.294129 4.35901,-0.846771 6.61459,-1.228095 2.25557,-0.381323 6.19179,-0.969846 8.74715,-1.307827 3.74819,-0.49575 4.92428,-0.754767 6.08542,-1.34023 0.791609,-0.399144 2.395379,-1.470187 3.563929,-2.380094 1.16854,-0.909907 2.28445,-1.846953 2.47979,-2.082324 0.19534,-0.235371 0.42988,-0.42822 0.52121,-0.428555 0.0913,-3.34e-4 0.12782,1.071229 0.0811,2.38125 -0.0672,1.885909 -0.009,2.381858 0.27893,2.381858 0.20012,0 0.89318,-0.337191 1.54013,-0.749314 0.64696,-0.412122 1.63895,-1.263813 2.20443,-1.892645 0.56548,-0.628833 1.4241,-2.00033 1.90805,-3.047772 0.48394,-1.047442 1.00064,-2.428173 1.1482,-3.068292 0.14756,-0.640118 0.2712,-1.550805 0.27476,-2.023748 0.004,-0.472942 0.0812,-0.859895 0.17254,-0.859895 0.0913,0 0.98562,0.60755 1.98728,1.350111 1.16924,0.866794 1.97432,1.291353 2.24893,1.185974 0.36717,-0.140897 0.40139,-0.466192 0.24164,-2.297535 -0.10236,-1.173369 -0.35944,-2.80839 -0.57129,-3.63337 -0.21185,-0.82498 -0.79015,-2.35871 -1.28511,-3.40828 -0.49496,-1.04956 -1.54807,-2.78471 -2.34024,-3.855882 -0.79216,-1.07117 -1.51181,-2.17697 -1.59921,-2.45732 -0.0874,-0.28036 -0.0574,-0.67131 0.0666,-0.86878 0.13951,-0.22212 0.43539,-0.29243 0.77583,-0.18438 0.30268,0.0961 1.07295,0.75594 1.7117,1.4664 0.63876,0.71045 1.57284,1.98404 2.07574,2.830212 0.5029,0.84616 1.22257,2.31238 1.59928,3.25827 0.37671,0.94588 0.88846,2.72117 1.13723,3.94508 0.27862,1.370773 0.41627,3.018779 0.35847,4.291637 -0.063,1.386822 -0.22527,2.197771 -0.4935,2.466003 -0.21982,0.219815 -0.93347,0.448616 -1.5859,0.508449 -0.65243,0.05983 -1.39459,-0.0016 -1.64925,-0.136544 -0.32814,-0.173865 -0.46263,-0.146276 -0.46166,0.09471 7.5e-4,0.187021 0.68814,1.054413 1.52754,1.927538 0.8394,0.873125 2.15715,2.123281 2.92834,2.778125 0.77119,0.654844 1.56453,1.281613 1.76298,1.392821 0.2734,0.153215 0.40641,-0.101863 0.54903,-1.052952 0.10352,-0.690332 0.11265,-3.171254 0.0203,-5.513161 -0.0924,-2.341906 -0.40483,-5.643744 -0.69438,-7.337424 -0.28955,-1.69368 -0.77604,-3.82812 -1.08109,-4.7432 -0.30504,-0.91509 -1.02222,-2.521394 -1.59372,-3.569564 -0.57151,-1.04817 -1.0391,-1.9709 -1.0391,-2.05052 0,-0.0796 0.38695,-0.14392 0.85989,-0.1429 0.47295,0.001 1.87193,0.24255 3.10886,0.53673 1.23692,0.29419 2.45731,0.59903 2.71198,0.67744 0.25466,0.0784 0.46302,0.0107 0.46302,-0.15057 0,-0.16122 -0.26789,-0.67002 -0.59532,-1.13067 -0.32742,-0.46065 -0.9525,-1.2476 -1.38906,-1.74878 -0.43656,-0.50118 -1.03187,-1.14432 -1.32291,-1.42919 -0.29105,-0.28487 -1.69003,-1.53639 -3.10886,-2.78114 -1.41883,-1.24475 -2.57969,-2.37947 -2.57969,-2.52159 0,-0.15887 0.6418,-0.19265 1.66612,-0.0877 0.91636,0.0939 2.45514,0.38949 3.41952,0.65691 l 1.75342,0.4862 -0.52882,-1.34162 c -0.29085,-0.73789 -1.01101,-2.47557 -1.60034,-3.86151 -0.58934,-1.38594 -2.24344,-4.84161 -3.67579,-7.67927 -1.43234,-2.83765 -2.78212,-5.45703 -2.9995,-5.82083 -0.21739,-0.3638 -1.31089,-2.20927 -2.43,-4.10104 -1.11912,-1.89177 -2.39589,-3.97537 -2.83728,-4.63021 -0.44139,-0.65484 -1.63651,-2.32172 -2.65584,-3.70417 -1.01932,-1.38245 -2.49849,-3.28745 -3.28703,-4.23333 -0.78854,-0.94589 -2.39439,-2.71356 -3.568539,-3.92816 -1.17415,-1.2146 -3.17414,-3.14022 -4.44442,-4.27916 -1.27027,-1.13894 -3.184,-2.71556 -4.25273,-3.50359 -1.06873,-0.78803 -3.13376,-2.21172 -4.58897,-3.16374 -1.45521,-0.95203 -3.87149,-2.41385 -5.36952,-3.24849 -1.49802,-0.83464 -4.23646,-2.20117 -6.08541,-3.03675 -1.84896,-0.83557 -4.58326,-1.97154 -6.07624,-2.52437 -1.49297,-0.55283 -2.80247,-0.91717 -2.91,-0.80964 -0.10752,0.10752 -0.009,0.33459 0.21809,0.5046 0.22747,0.17 0.88213,0.71014 1.45479,1.2003 0.90149,0.77162 0.95245,0.86898 0.37975,0.72555 -0.36381,-0.0911 -2.50693,-0.57468 -4.7625,-1.07459 -2.25558,-0.49991 -5.3512,-1.15248 -6.87917,-1.45016 -1.52797,-0.29767 -3.84969,-0.66066 -5.15937,-0.80663 -1.30969,-0.14598 -3.70582,-0.26639 -5.32474,-0.26758 -1.61892,-0.001 -3.31556,0.0722 -3.77032,0.16319 -0.45475,0.0909 -0.82682,0.24056 -0.82682,0.33246 0,0.0919 0.49485,0.32153 1.09966,0.51029 0.60482,0.18876 2.04954,0.7774 3.21051,1.30809 1.66024,0.75892 2.00442,1.00672 1.61232,1.1608 -0.27419,0.10775 -2.28447,0.50701 -4.46728,0.88726 -2.18281,0.38024 -5.09984,0.99439 -6.48229,1.36479 -1.38245,0.3704 -3.70417,1.12109 -5.15938,1.66821 -1.4552,0.54713 -3.65786,1.50109 -4.89479,2.11992 -1.23692,0.61884 -3.26099,1.73108 -4.49791,2.47166 -1.23693,0.74058 -2.84427,1.76307 -3.57188,2.27219 -0.7276,0.50913 -1.91823,1.40288 -2.64583,1.98612 -0.72761,0.58324 -2.54331,2.24979 -4.0349,3.70346 -1.4915896,1.45366 -2.7119796,2.74094 -2.7119796,2.86062 0,0.11968 0.32743,0.14735 0.72761,0.0615 0.40018,-0.0859 1.3062796,-0.33296 2.0135496,-0.54912 0.70727,-0.21616 1.32024,-0.35654 1.36216,-0.31195 0.0419,0.0446 -0.7466,1.0931 -1.75225,2.33002 -1.0056596,1.23693 -2.3616896,3.04716 -3.0134196,4.02274 -0.65173,0.97558 -1.77111,2.76615 -2.48751,3.97905 -0.71641,1.2129 -2.01437,3.62939 -2.88437,5.36997 -0.86999,1.74059 -2.14198002,4.47439 -2.82664002,6.07512 -0.68466,1.60073 -1.93264998,4.75588 -2.77331998,7.01145 -0.84066,2.25558 -1.73541,4.81542 -1.98832,5.68855 -0.25291,0.87312 -0.73457,2.71859 -1.07036,4.10104 -0.33579,1.38245 -0.8582,3.7995 -1.16091,5.37124 -0.30271,1.57174 -0.55038,3.17809 -0.55038,3.56967 0,0.61674 0.14761,0.48606 1.10359,-0.97704 0.60698,-0.92895 1.90316,-2.5209 2.88041,-3.53768 0.97725,-1.01677 1.89141,-1.77786 2.03147,-1.6913 0.14006,0.0866 0.32784,1.19455 0.4173,2.46218 l 0.16265,2.3048 -1.91269,2.00375 c -1.05198,1.10206 -2.29782,2.575274 -2.76854,3.273794 -0.47072,0.69852 -0.85586,1.38723 -0.85586,1.53046 0,0.15292 0.51884,0.20568 1.25677,0.12781 0.69123,-0.0729 1.88185,-0.20021 2.64583,-0.28281 0.92565,-0.10008 1.38907,-0.053 1.38907,0.14117 0,0.16024 -0.2956,0.67889 -0.65688,1.15256 -0.36128,0.47366 -1.07566,1.7676 -1.5875,2.87542 -0.6198,1.34147 -0.92805,2.395578 -0.92291,3.156031 0.004,0.628001 0.33167,1.917262 0.72761,2.865023 0.39594,0.947762 1.10768,2.436043 1.58165,3.307292 0.47397,0.871248 1.60506998,2.465357 2.51353998,3.542463 0.90848002,1.077106 2.15409002,2.369386 2.76803002,2.871734 l 1.11624,0.913359 -0.16453,-3.070171 c -0.0905,-1.688595 -0.0753,-3.070172 0.0337,-3.070172 0.10904,0 0.93093,0.637325 1.82642,1.416277 0.89549,0.778952 2.25577,1.843066 3.02285,2.364697 0.76707,0.521631 2.0767596,1.271785 2.9104096,1.667008 0.83365,0.395224 2.68289,1.11612 4.10941,1.601993 1.42653,0.485872 3.56965,1.131138 4.7625,1.433924 1.19285,0.302785 2.266,0.644968 2.38477,0.760406 0.11877,0.115437 -0.31646,0.521899 -0.96718,0.903248 -0.65072,0.381349 -1.56158,1.171187 -2.02412,1.755196 l -0.84099,1.061834 1.94046,0.002 c 1.06726,0.0011 2.68302,0.122507 3.59059,0.269794 0.90757,0.147288 1.97238,0.390315 2.36624,0.54006 0.69385,0.263801 0.64855,0.305137 -1.45745,1.329932 -1.44627,0.703766 -2.68703,1.562631 -3.70814,2.566796 -0.84402,0.83002 -1.85425,2.166785 -2.24495,2.970589 -0.3907,0.803803 -0.89495,2.346783 -1.12057,3.428842 -0.22562,1.082059 -0.43319,3.53961 -0.46128,5.461224 -0.0281,1.921613 0.0272,3.572334 0.12279,3.668268 0.0956,0.09593 1.67656,-1.08451 3.51321,-2.623207 1.83665,-1.538697 3.38897,-2.797631 3.44961,-2.797631 0.0606,0 -0.16847,0.630233 -0.50912,1.400517 -0.34066,0.770285 -0.87598,2.2288 -1.1896,3.241146 -0.32719,1.056141 -0.62978,2.911915 -0.70997,4.35417 -0.0927,1.668208 -0.006,3.25165 0.25875,4.708257 0.21917,1.207094 0.76028,2.967833 1.20246,3.912753 0.44218,0.94492 1.18545,2.249251 1.65172,2.898513 0.46626,0.649262 0.94663,1.180476 1.06748,1.180476 0.12086,0 0.21974,-0.471784 0.21974,-1.048408 0,-0.576625 0.24016,-1.690299 0.53369,-2.474832 0.29353,-0.784533 0.97814,-2.05996 1.52135,-2.834281 0.54322,-0.774321 1.13744,-1.456821 1.32049,-1.516666 0.25052,-0.0819 0.27082,0.05431 0.0821,0.550722 -0.13792,0.362743 -0.32923,1.355246 -0.42515,2.205562 -0.0959,0.850315 -0.0423,2.260403 0.11906,3.133528 0.16139,0.873125 0.70891,2.462983 1.21671,3.533018 0.66074,1.392321 1.43111,2.450177 2.70929,3.72034 0.98231,0.976153 2.3218,2.134674 2.97664,2.574491 0.65485,0.439818 1.69531,1.078793 2.31215,1.419946 0.61683,0.341152 1.17048,0.569336 1.23032,0.507074 0.0598,-0.06226 0.008,-1.065703 -0.11536,-2.229869 -0.12328,-1.164167 -0.15338,-3.044343 -0.0669,-4.178169 l 0.15727,-2.061502 1.41288,2.416266 c 0.77708,1.328946 1.88474,3.008891 2.46145,3.733212 0.57671,0.72432 1.79457,1.982593 2.70635,2.796162 0.91179,0.813569 2.19117,1.817471 2.84307,2.230894 0.6519,0.413423 1.50154,0.751678 1.88809,0.751678 0.38655,0 1.1043,-0.270555 1.59499,-0.601232 0.49069,-0.330678 1.6128,-1.461002 2.49357,-2.511831 0.88078,-1.050829 2.50792,-3.369884 3.61588,-5.153455 1.10795,-1.783571 2.39902,-4.016763 2.86902,-4.962648 0.47001,-0.945885 1.38524,-2.34487 2.03384,-3.108854 0.6486,-0.763984 1.30371,-1.389062 1.4558,-1.389062 0.18595,0 0.18985,0.108329 0.0119,0.330729 -0.14553,0.181901 -0.35224,0.616002 -0.45936,0.964669 -0.18756,0.610505 -0.15697,0.627627 0.82751,0.463162 0.56226,-0.09393 1.31994,-0.245981 1.68374,-0.337897 0.56543,-0.142857 0.4657,0.03958 -0.68689,1.256629 -0.74159,0.783062 -1.70408,2.019061 -2.13887,2.746666 -0.43478,0.727604 -1.09951,2.096822 -1.47718,3.042708 -0.37767,0.945885 -1.00843,2.880651 -1.40168,4.299479 -0.39326,1.418828 -0.80977,2.579687 -0.92558,2.579687 -0.11581,0 -0.4447,-0.297656 -0.73086,-0.661458 -0.28617,-0.363802 -0.59162,-0.661459 -0.67877,-0.661459 -0.0872,0 -0.80182,0.863204 -1.58815,1.91823 -0.78632,1.055026 -1.8885,2.351594 -2.44928,2.881263 -0.56079,0.529669 -1.40065,1.154747 -1.86637,1.389062 -0.46572,0.234316 -1.33022,0.426028 -1.92111,0.426028 -0.5909,0 -1.57908,-0.239038 -2.19595,-0.531196 -0.61688,-0.292158 -1.80018,-1.041039 -2.62955,-1.664181 -0.82937,-0.623141 -2.05662,-1.647244 -2.72722,-2.275782 -0.6706,-0.628539 -1.25617,-1.100048 -1.30127,-1.047798 -0.0451,0.05225 -0.1887,0.559309 -0.31913,1.1268 -0.13043,0.56749 -0.44184,1.160914 -0.69201,1.318721 -0.36172,0.228168 -0.95694,0.03669 -2.90677,-0.935077 -1.34854,-0.672098 -3.34487,-1.879352 -4.43627,-2.682784 -1.09141,-0.803433 -2.00508,-1.441417 -2.03038,-1.417742 -0.0253,0.02367 -0.23454,1.113754 -0.46498,2.422397 -0.23045,1.308643 -0.61766,5.17732 -0.86048,8.597059 -0.24282,3.419739 -0.44804,7.76552 -0.45606,9.657291 -0.0108,2.554412 0.11181,3.91046301 0.47652,5.26931891 0.2701,1.00635459 0.8147,2.61369819 1.21023,3.57187479 0.39552,0.9581766 1.25748,2.5755767 1.91545,3.5942225 0.65798,1.0186457 1.70051,2.4195418 2.31674,3.1131028 0.61622,0.69356 2.25637,2.209188 3.64476,3.36806 1.63816,1.367343 3.38492,2.528448 4.97566,3.307423 1.34821,0.660209 3.38537,1.439869 4.52702,1.732578 1.14165,0.292709 2.93893,0.625248 3.99395,0.738974 1.05503,0.113727 1.91823,0.134205 1.91823,0.04551 0,-0.0887 -0.14883,-0.321668 -0.33073,-0.51771 -0.26766,-0.288474 -0.25505,-0.331008 0.0661,-0.223062 0.21828,0.07336 2.3614,0.796908 4.7625,1.607889 2.40109,0.81098 5.8539,1.784693 7.67291,2.163805 1.81901,0.379112 4.0812,0.789081 5.02709,0.911043 0.94588,0.121961 3.90795,0.236845 6.58237,0.255298 l 4.86259,0.03355 z m -69.48423,-125.62904 c -0.80037,-0.25877 -1.93913,-0.71976 -2.53059,-1.02443 -0.59146,-0.30468 -1.74892,-1.21683 -2.57215,-2.02701 -0.82323,-0.81018 -2.0380696,-2.39661 -2.6996596,-3.5254 -0.69029,-1.17775 -1.59551,-3.30837 -2.12421,-4.99975 -0.61489,-1.96713 -0.92131,-3.4666 -0.92131,-4.50848 0,-0.85859 0.17978,-2.27069 0.3995,-3.13801 0.21973,-0.86732 0.89277,-2.58897 1.49564,-3.8259 0.86259,-1.76981 1.55257,-2.70641 3.2385096,-4.39605 1.18185,-1.18445 2.74059,-2.44921 3.47661,-2.82094 0.73382,-0.37061 2.03758,-0.87831 2.89725,-1.12823 1.14041,-0.33152 2.11378,-0.41663 3.59994,-0.31477 1.42159,0.0974 2.52712,0.35961 3.65966,0.86786 1.10972,0.49802 2.06197,1.20265 3.01202,2.22883 0.7641,0.82531 1.81978,2.32539 2.34596,3.3335 0.52618,1.00811 1.2526,2.78542 1.61427,3.94959 0.36166,1.16417 0.8068,2.96467 0.98919,4.00112 0.21033,1.1952 0.28217,3.13065 0.19641,5.29166 -0.10925,2.7528 -0.26204,3.74932 -0.79551,5.18837 -0.36317,0.97963 -1.06281,2.30778 -1.55477,2.95144 -0.49196,0.64366 -1.51999,1.62808 -2.28452,2.1876 -0.76452,0.55952 -2.13374,1.27754 -3.0427,1.5956 -1.27106,0.44475 -2.2636,0.57893 -4.2985,0.58108 -1.82049,0.002 -3.09978,-0.14397 -4.10104,-0.46768 z m 8.88033,-1.95477 c 0.73683,-0.3741 1.78696,-1.17525 2.33361,-1.78033 0.54666,-0.60508 1.22905,-1.64869 1.51644,-2.31914 0.28739,-0.67045 0.61259,-2.15066 0.72267,-3.28934 0.11008,-1.13868 0.11753,-2.204 0.0166,-2.36736 -0.11787,-0.19073 -0.29626,-0.0865 -0.49843,0.29129 -0.17317,0.32357 -0.74257,1.06174 -1.26533,1.64037 -0.52275,0.57863 -1.26821,1.21637 -1.65657,1.4172 -0.38837,0.20083 -1.30377,0.44443 -2.03424,0.54133 -0.91361,0.12119 -1.79701,0.0399 -2.83044,-0.26056 -0.90596,-0.26337 -1.90579,-0.80125 -2.51875,-1.35502 -0.55903,-0.50505 -1.35778,-1.5844 -1.775,-2.39854 -0.72497,-1.41469 -0.73679,-1.49367 -0.26688,-1.78312 0.27043,-0.16658 0.77882,-0.52174 1.12977,-0.78925 0.35094,-0.26751 0.8256,-0.84901 1.05479,-1.29221 0.22919,-0.44321 0.41212,-1.39897 0.4065,-2.1239 -0.008,-0.97192 -0.19477,-1.59696 -0.71298,-2.38003 -0.61633,-0.93133 -0.66162,-1.13882 -0.36829,-1.68693 0.24895,-0.46516 0.26111,-0.78602 0.0476,-1.25471 -0.1578,-0.34635 -0.6124,-0.71141 -1.01022,-0.81126 -0.39781,-0.0998 -1.05196,-0.0454 -1.45367,0.121 -0.4017,0.16639 -0.87094,0.64189 -1.04275,1.05667 -0.1718,0.41478 -0.71957,1.02964 -1.21725,1.36636 -0.49768,0.33673 -1.14123,1.0963 -1.43011,1.68795 -0.2995,0.6134 -0.52524,1.6165 -0.52524,2.334 0,0.69206 -0.15438,1.41266 -0.34307,1.60135 -0.18869,0.18869 -0.60541,0.42633 -0.92604,0.5281 -0.4931,0.1565 -0.58297,0.37874 -0.58297,1.44152 0,0.69107 0.12807,1.96297 0.28461,2.82644 0.15654,0.86347 0.70153,2.44301 1.2111,3.51008 0.50957,1.06708 1.3631,2.42341 1.89673,3.01407 0.53363,0.59067 1.43714,1.36868 2.0078,1.72893 0.57067,0.36024 1.64289,0.87815 2.38273,1.15092 1.04126,0.38389 1.88311,0.47542 3.7264,0.40512 1.91553,-0.0731 2.64327,-0.22384 3.72096,-0.771 z m 47.17282,1.7942 c -1.11259,-0.21162 -2.6604,-0.63426 -3.43958,-0.9392 -0.77919,-0.30495 -1.918,-0.84615 -2.5307,-1.20268 -0.61271,-0.35652 -1.62676,-1.15372 -2.25347,-1.77155 -0.6267,-0.61783 -1.46112,-1.67221 -1.85426,-2.34306 -0.39315,-0.67084 -0.94841,-2.09786 -1.23393,-3.17113 -0.28551,-1.07328 -0.59454,-2.66579 -0.68673,-3.53892 -0.0922,-0.87312 -0.0397,-2.61195 0.1166,-3.86405 0.15632,-1.25211 0.57848,-3.14174 0.93814,-4.19918 0.35966,-1.05744 1.09333,-2.7119 1.63037,-3.67657 0.53704,-0.96467 1.7809,-2.56144 2.76413,-3.54838 1.31899,-1.32397 2.30723,-2.03448 3.76934,-2.71001 1.08991,-0.50357 2.73551,-1.0933 3.6569,-1.31051 0.95323,-0.22472 2.92959,-0.39493 4.58566,-0.39493 1.68323,0 3.63557,0.1704 4.63021,0.40412 0.94588,0.22227 2.59779,0.83733 3.67091,1.36679 1.33718,0.65974 2.6554,1.62931 4.18932,3.0813 1.23102,1.16526 2.7498,2.8404 3.37508,3.72253 0.62528,0.88214 1.47622,2.25874 1.89098,3.0591 0.6444,1.24351 0.7543,1.76313 0.75549,3.57188 0.001,1.53462 -0.1714,2.62595 -0.62697,3.96875 -0.3456,1.01864 -0.92605,2.44739 -1.2899,3.175 -0.36385,0.7276 -1.19964,2.03729 -1.85731,2.91041 -0.65768,0.87313 -1.68289,2.03831 -2.27825,2.5893 -0.59536,0.55099 -1.7084,1.42112 -2.47342,1.93362 -0.76502,0.5125 -2.03534,1.21681 -2.82294,1.56512 -0.78759,0.34831 -2.16135,0.82229 -3.05279,1.05328 -0.89144,0.231 -2.95487,0.47259 -4.5854,0.53686 -1.95715,0.0772 -3.65202,-0.0139 -4.98748,-0.26789 z m 8.02859,-1.45941 c 0.97481,-0.14099 2.46309,-0.57743 3.30729,-0.96987 1.02549,-0.47671 2.20306,-1.38433 3.54804,-2.73469 1.47349,-1.47938 2.2853,-2.57187 3.0285,-4.07564 0.8936,-1.80809 1.02883,-2.33576 1.12751,-4.39967 0.0617,-1.28985 0.0289,-2.78854 -0.0727,-3.33042 -0.14265,-0.76036 -0.64214,-1.43227 -2.18832,-2.94373 l -2.00348,-1.95848 0.16129,1.54318 c 0.0887,0.84875 0.0586,2.25715 -0.0669,3.12977 -0.12552,0.87262 -0.47539,2.24143 -0.77748,3.0418 -0.35687,0.9455 -1.03767,1.95512 -1.9437,2.88246 -0.7789,0.79722 -2.02559,1.71917 -2.82421,2.08855 -1.16777,0.54012 -1.82228,0.6583 -3.57188,0.64498 -1.38129,-0.0105 -2.51801,-0.17476 -3.20045,-0.46243 -0.58208,-0.24537 -1.56838,-0.86173 -2.19177,-1.36969 -0.62339,-0.50796 -1.48547,-1.53737 -1.91574,-2.28757 -0.43027,-0.75021 -0.78343,-1.50153 -0.7848,-1.6696 -10e-4,-0.16807 0.53264,-0.61919 1.18667,-1.00248 0.65403,-0.38328 1.36841,-1.04353 1.5875,-1.46721 0.21909,-0.42367 0.39835,-1.24473 0.39835,-1.82457 0,-0.57983 -0.12734,-1.38916 -0.28297,-1.79851 -0.24308,-0.63936 -0.20579,-0.79551 0.26458,-1.10783 0.37198,-0.24698 0.54756,-0.64717 0.54756,-1.24802 0,-0.60365 -0.16249,-0.97142 -0.51178,-1.15836 -0.28147,-0.15064 -0.69785,-0.27389 -0.92528,-0.27389 -0.22742,0 -0.86033,0.39872 -1.40645,0.88605 -0.54612,0.48733 -1.40345,0.96531 -1.90516,1.06218 -0.50172,0.0969 -1.1848,0.35474 -1.51795,0.57303 -0.33316,0.21829 -0.8293,0.84164 -1.10254,1.38522 -0.27324,0.54357 -0.57565,1.42322 -0.67202,1.95476 -0.11024,0.60801 -0.4179,1.12546 -0.82953,1.39516 -0.60875,0.39887 -0.65407,0.58024 -0.65115,2.60543 0.002,1.19719 0.16936,2.80108 0.37251,3.56421 0.20316,0.76312 0.64347,1.95374 0.97848,2.64583 0.33502,0.69209 1.06947,1.75779 1.63212,2.36823 0.56265,0.61044 1.58253,1.46894 2.2664,1.90778 0.68386,0.43883 2.04982,1.10142 3.03546,1.47242 0.98564,0.37099 2.58989,0.77735 3.565,0.90302 0.97511,0.12567 1.95152,0.24119 2.1698,0.25672 0.21828,0.0155 1.19445,-0.0871 2.16925,-0.22812 z m -39.74008,0.854 c 0,-0.11361 0.35352,-0.34001 0.78561,-0.50311 0.4853,-0.18318 0.95916,-0.66048 1.23963,-1.24863 0.24971,-0.52365 0.52126,-0.952 0.60345,-0.95189 0.0822,1.1e-4 0.61755,0.41683 1.18969,0.92604 0.86094,0.76626 1.24859,0.92729 2.24895,0.93425 1.12029,0.008 1.17114,0.0368 0.69512,0.39688 -0.28247,0.21365 -0.91895,0.38846 -1.41438,0.38846 -0.49544,0 -1.24338,-0.20237 -1.66208,-0.44971 -0.73351,-0.43329 -0.7839,-0.42846 -1.3808,0.1323 -0.37059,0.34815 -0.95815,0.58199 -1.46235,0.58199 -0.46356,0 -0.84284,-0.093 -0.84284,-0.20658 z m 0.39688,-4.37656 c -0.72761,-0.35122 -1.76573,-1.08721 -2.30695,-1.63554 -0.54122,-0.54832 -1.1805,-1.51139 -1.42063,-2.14016 -0.24012,-0.62876 -0.36532,-1.41626 -0.27822,-1.75 0.0871,-0.33373 0.40157,-1.0009 0.69881,-1.4826 0.29725,-0.4817 0.9741,-1.05701 1.50412,-1.27847 0.53002,-0.22145 1.67786,-0.51766 2.55075,-0.65824 1.08085,-0.17406 2.01642,-0.16353 2.93314,0.033 0.74033,0.15873 1.73247,0.5514 2.20475,0.8726 0.47227,0.32119 1.05141,0.9878 1.28696,1.48134 0.28453,0.59618 0.38351,1.29441 0.29492,2.08039 -0.0798,0.70789 -0.44144,1.62141 -0.90045,2.27449 -0.4219,0.6003 -1.28054,1.43629 -1.90807,1.85775 -0.64717,0.43463 -1.61603,0.8134 -2.2386,0.87514 -0.78747,0.0781 -1.47143,-0.0716 -2.42053,-0.52972 z m 4.25351,-1.51616 c 0.64562,-0.4442 1.41121,-1.27289 1.70132,-1.84154 0.2901,-0.56865 0.52746,-1.39396 0.52746,-1.83403 0,-0.51051 -0.27966,-1.11287 -0.77264,-1.66418 -0.76207,-0.85226 -0.80459,-0.86407 -3.10885,-0.86343 -1.28492,3.6e-4 -2.9054,0.16567 -3.60107,0.36738 -0.81033,0.23494 -1.4521,0.6297 -1.78594,1.09853 -0.2866,0.40249 -0.52108,0.96345 -0.52108,1.24657 0,0.28313 0.34299,0.98827 0.76221,1.56698 0.41922,0.57872 1.3326,1.43002 2.02974,1.89178 0.94156,0.62367 1.56679,0.83957 2.43126,0.83957 0.86472,0 1.46534,-0.20751 2.33759,-0.80763 z m -31.46991,-33.6074 c -0.43252,-0.34022 -0.69714,-0.80847 -0.69714,-1.23361 0,-0.37688 0.3715,-1.26417 0.82555,-1.97175 0.45406,-0.70759 1.51489,-1.90864 2.3574,-2.669 0.84251,-0.76036 2.18644,-1.77731 2.98651,-2.25989 0.80007,-0.48257 2.09073,-1.04671 2.86813,-1.25363 0.77739,-0.20692 1.69273,-0.37763 2.03408,-0.37936 0.34135,-0.002 0.96451,0.19999 1.38479,0.44826 0.42028,0.24826 0.94467,0.8318 1.1653,1.29675 0.22063,0.46495 0.40115,1.29229 0.40115,1.83853 0,0.80595 -0.18969,1.17362 -1.00625,1.9504 -0.55344,0.52647 -1.86269,1.40727 -2.90944,1.95732 -1.04676,0.55005 -2.58824,1.23789 -3.42552,1.52853 -0.83728,0.29064 -2.33378,0.7011 -3.32556,0.91213 -0.99178,0.21103 -1.83893,0.38369 -1.88255,0.38369 -0.0436,0 -0.39303,-0.24677 -0.77645,-0.54837 z m 5.07326,-2.13342 c 1.06367,-0.42064 2.55195,-1.07421 3.30729,-1.45236 0.75534,-0.37815 1.7603,-0.97794 2.23324,-1.33287 0.67588,-0.50723 0.8599,-0.83842 0.8599,-1.5476 0,-0.59342 -0.20378,-1.0939 -0.59531,-1.46211 -0.48186,-0.45315 -0.79701,-0.52861 -1.65365,-0.39597 -0.58208,0.0901 -1.89177,0.6421 -2.91042,1.22658 -1.01864,0.58449 -2.0902,1.26497 -2.38125,1.51218 -0.29104,0.2472 -1.09471,1.0865 -1.78593,1.86511 -0.69123,0.7786 -1.25677,1.63097 -1.25677,1.89415 0,0.26317 0.14882,0.53982 0.33073,0.61477 0.1819,0.075 0.68791,0.0703 1.12447,-0.0104 0.43657,-0.0807 1.66403,-0.49084 2.7277,-0.91149 z m 51.78523,-0.52758 c -0.57726,-0.13518 -1.3214,-0.50116 -1.65364,-0.81329 -0.46208,-0.4341 -0.60408,-0.85844 -0.60408,-1.80517 0,-0.85144 0.18897,-1.51821 0.60555,-2.13669 0.33306,-0.49446 1.09366,-1.1685 1.69024,-1.49785 0.59657,-0.32936 1.78259,-0.72896 2.63559,-0.888 1.16311,-0.21685 2.01402,-0.20786 3.40299,0.036 1.01865,0.17882 2.32834,0.50969 2.91042,0.73527 0.58208,0.22557 1.71318,0.81962 2.51354,1.3201 0.80037,0.50048 1.71882,1.22405 2.04101,1.60794 0.32219,0.38388 0.59008,1.03108 0.59531,1.43821 0.006,0.45901 -0.24237,0.97368 -0.6535,1.3547 -0.36465,0.33795 -1.10879,0.68814 -1.65364,0.7782 -0.54485,0.0901 -3.19329,0.1531 -5.88543,0.14008 -2.69213,-0.013 -5.3671,-0.13427 -5.94436,-0.26946 z m 11.36509,-1.52033 c 0.43479,-0.093 0.82847,-0.36626 0.87487,-0.60714 0.0528,-0.27397 -0.34235,-0.72636 -1.05511,-1.2081 -0.62669,-0.42356 -1.79429,-1.02032 -2.59465,-1.32612 -0.80037,-0.3058 -1.91906,-0.69894 -2.48597,-0.87364 -0.57622,-0.17756 -1.6949,-0.25741 -2.53679,-0.18107 -0.82831,0.0751 -1.88778,0.33397 -2.35438,0.57526 -0.46659,0.24128 -1.08327,0.81987 -1.3704,1.28575 -0.28713,0.46588 -0.49022,1.08518 -0.45132,1.37622 0.0452,0.33799 0.40528,0.64325 0.99677,0.84496 0.5873,0.20028 2.61979,0.30981 5.55625,0.29942 2.54662,-0.009 4.98594,-0.0925 5.42073,-0.18554 z m 13.1202,164.14447 c 1.51691,-0.216451 3.45889,-0.51051 4.31549,-0.653463 0.856599,-0.142952 1.590389,-0.293277 1.630639,-0.334055 0.0403,-0.04078 -0.0385,-1.145704 -0.17503,-2.455391 -0.13652,-1.309688 -1.09053,-9.2273434 -2.120009,-17.594791 l -1.8718,-15.213541 0.66973,-3.175 0.66972,-3.174999 -0.51091,-3.634446 c -0.28101,-1.998944 -0.74627,-4.499257 -1.03392,-5.556249 -0.28765,-1.056993 -1.12468,-6.44618 -1.86006,-11.975971 -0.73538,-5.529791 -1.38978,-10.204132 -1.45421,-10.387424 -0.0873,-0.248247 -0.60835,-0.290109 -2.04271,-0.164107 -1.05906,0.09303 -3.35432,0.365206 -5.10057,0.604829 l -3.175,0.435678 -0.0827,1.144493 c -0.0455,0.629472 0.16443,3.364765 0.46646,6.078429 0.30203,2.713664 0.83878,7.196123 1.19278,9.961018 0.354,2.764896 0.77821,6.753489 0.94267,8.863541 0.16447,2.110052 0.40509,4.397302 0.53471,5.082777 0.12963,0.685475 0.82578,2.471412 1.54701,3.968749 l 1.31133,2.722432 0.55017,5.027083 c 0.3026,2.764896 0.54992,5.224178 0.54959,5.465071 -3.2e-4,0.240893 -0.43202,0.954375 -0.95932,1.585515 l -0.95873,1.147526 0.17521,2.100905 c 0.13378,1.60421901 0.28996,2.18128121 0.6606,2.44088521 0.26696,0.1869893 0.61955,0.8727769 0.78352,1.52397249 0.16397,0.6511956 0.29813,1.2681952 0.29813,1.3711102 0,0.102915 -0.35793,-0.3069957 -0.79541,-0.9109127 -0.43747,-0.6039171 -0.90079,-1.09803099 -1.0296,-1.09803099 -0.12881,0 -0.42245,-0.4704978 -0.65254,-1.0455507 -0.23009,-0.5750529 -0.49858,-2.00762651 -0.59665,-3.18349751 -0.17674,-2.119287 -0.17064,-2.148603 0.69851,-3.358873 l 0.8768,-1.220926 -0.45991,-4.128389 c -0.25295,-2.270613 -0.6301,-4.686616 -0.83811,-5.368896 -0.20801,-0.682279 -0.70559,-1.779844 -1.10575,-2.439032 -0.40015,-0.659189 -0.81684,-1.202289 -0.92598,-1.206888 -0.10914,-0.0046 -0.19844,0.402753 -0.19844,0.905229 0,0.502476 -0.13741,1.215181 -0.30536,1.58379 -0.16795,0.368608 -0.59982,0.863128 -0.9597,1.098932 -0.62151,0.407233 -0.6455,0.516894 -0.47822,2.186523 0.0969,0.966783 0.46716,3.917987 0.8229,6.558231 0.35574,2.640243 0.83044,6.023087 1.05489,7.5174296 0.26519,1.76562351 0.76357,3.6052342 1.42331,5.2537228 0.55837,1.3952049 1.26361,3.3106424 1.5672,4.2565277 0.30358,0.9458854 0.84766,2.8508849 1.20905,4.2333329 0.3614,1.382448 0.79267,3.198151 0.95839,4.034896 0.29287,1.478783 0.3254,1.521354 1.16253,1.521354 0.47368,0 2.10235,-0.177097 3.61927,-0.393549 z m -4.38572,-39.600004 c -0.58208,-0.300988 -1.3771,-0.845495 -1.76671,-1.210015 -0.38961,-0.364519 -0.82973,-0.976197 -0.97803,-1.359284 -0.14831,-0.383086 -0.39509,-1.552765 -0.54839,-2.599286 -0.15331,-1.04652 -0.27874,-2.333469 -0.27874,-2.859885 0,-0.570706 0.10682,-0.891103 0.26458,-0.793599 0.14552,0.08994 0.26458,0.639006 0.26458,1.220155 0,0.581149 0.19252,1.913575 0.42781,2.960947 0.2353,1.047373 0.60862,2.215598 0.82961,2.596056 0.221,0.380458 0.73146,0.886474 1.13437,1.124479 0.40291,0.238005 1.13092,0.430122 1.61779,0.426926 0.48687,-0.0032 1.3911,-0.235443 2.00941,-0.516106 0.6232,-0.28288 1.2579,-0.803732 1.42421,-1.168739 0.23042,-0.505702 0.19655,-1.481972 -0.14597,-4.208522 -0.24529,-1.952542 -0.61038,-4.173286 -0.81131,-4.934984 -0.20093,-0.761699 -0.5816,-1.551795 -0.84594,-1.755769 -0.26433,-0.203974 -1.10498,-0.558553 -1.86811,-0.787954 -0.76313,-0.229401 -1.6561,-0.343023 -1.98438,-0.252494 -0.58368,0.160964 -0.58231,0.151994 0.0618,-0.406126 0.53649,-0.464851 0.896,-0.547923 1.93794,-0.447805 0.7036,0.06761 1.59782,0.353225 1.98716,0.634708 0.38934,0.281483 1.02888,1.161312 1.42119,1.955174 0.47781,0.966883 0.84903,2.385008 1.12447,4.295668 0.22616,1.568754 0.41119,3.515291 0.41119,4.325638 0,0.810347 -0.1829,1.858804 -0.40646,2.329906 -0.22355,0.471101 -0.86484,1.114173 -1.42508,1.429048 -0.56025,0.314876 -1.41914,0.567239 -1.90865,0.560808 -0.48951,-0.0064 -1.36627,-0.257957 -1.94835,-0.558945 z m -68.7614,34.503449 c 0.0949,-0.400182 0.57278,-2.133749 1.06186,-3.8523706 0.48908,-1.7186217 1.47883,-4.3975278 2.19945,-5.9531247 1.17391,-2.53412329 1.38007,-3.26875289 1.98175,-7.0616917 0.36934,-2.328333 0.79267,-4.888176 0.94072,-5.688541 0.14805,-0.800364 0.56568,-3.598333 0.92806,-6.217708 0.36238,-2.619375 0.85308,-6.072187 1.09044,-7.672916 l 0.43157,-2.910417 -0.70017,-1.568139 c -0.41087,-0.920212 -0.79519,-1.466818 -0.93016,-1.322917 -0.1265,0.134873 -0.48372,1.793036 -0.79382,3.684806 -0.3101,1.891771 -0.85657,4.630208 -1.21437,6.085417 -0.3578,1.455208 -1.17622,5.562864 -1.81872,9.128124 -0.64249,3.56526 -1.25055,7.018073 -1.35125,7.672916 -0.10069,0.654844 -0.58619,2.0521028 -1.07888,3.10501971 -0.4927,1.05291679 -1.1434,2.88410179 -1.44601,4.06929989 -0.3026,1.1851981 -0.84136,3.5845469 -1.19723,5.3318862 -0.35588,1.7473392 -0.64704,3.3392012 -0.64704,3.5374702 0,0.250632 0.3613,0.36049 1.18558,0.36049 1.07513,0 1.20167,-0.06779 1.35822,-0.727604 z m -3.76054,-0.264583 c 0.0815,-0.400182 0.26319,-1.441979 0.4037,-2.3151043 0.14052,-0.8731249 0.54728,-3.2819347 0.90392,-5.3529106 0.41852,-2.4303496 0.84186,-4.07203249 1.19397,-4.63020799391 C 21.529311,-0.47643949 21.968331,-1.2065325 22.204851,-1.62323 c 0.23652,-0.416697 0.55527,-1.845447 0.70833,-3.175 l 0.27829,-2.417368 -0.96207,-1.011026 c -0.52914,-0.556065 -0.96208,-1.201002 -0.96208,-1.433193 0,-0.232192 0.30604,-2.277543 0.68009,-4.545224 0.48375,-2.932763 0.8603,-4.433031 1.30433,-5.196778 0.34332,-0.590547 0.86355,-2.019297 1.15605,-3.175 0.29249,-1.155703 0.7172,-3.172841 0.94378,-4.482528 0.22659,-1.309687 0.41236,-2.75144 0.41282,-3.203895 6e-4,-0.581014 -0.30399,-1.168961 -1.03699,-2.001697 -0.57082,-0.648478 -1.51903,-2.20619 -2.10714,-3.461581 -0.58812,-1.255391 -1.33111,-3.271659 -1.65109,-4.480595 -0.36563,-1.38135 -0.6127,-3.205782 -0.66496,-4.910185 -0.0458,-1.491667 -0.17518,-2.725366 -0.28763,-2.741555 -0.11246,-0.01619 -0.29765,0.549422 -0.41154,1.256912 -0.11389,0.707491 -0.50506,2.893691 -0.86927,4.858222 -0.36421,1.964531 -1.01188,5.417343 -1.43926,7.672916 -0.42738,2.255573 -1.14328,6.244166 -1.59089,8.863541 -0.4476,2.619375 -1.28793,7.917656 -1.86738,11.773958 -0.57946,3.856302 -1.24733,8.346336 -1.48416,9.977855 -0.25514,1.757644 -0.53551,2.90155851 -0.68806,2.80727771 -0.15261,-0.094315 -0.20342,-1.14079871 -0.12476,-2.56952171 0.073,-1.325722 0.0374,-2.172278 -0.0791,-1.881236 -0.11649,0.291041 -0.22957,0.886354 -0.25129,1.322916 -0.0217,0.436563 -0.10449,0.630056 -0.18394,0.429984 -0.0795,-0.200071 -0.004,-1.450227 0.16704,-2.778124 0.17133,-1.327898 0.60718,-4.247063 0.96856,-6.487034 0.36137,-2.239971 0.67298,-4.680753 0.69247,-5.423958 0.0195,-0.743206 -0.11487,-1.631957 -0.29855,-1.975002 -0.18369,-0.343045 -0.43316,-0.521638 -0.55439,-0.396875 -0.12124,0.124764 -0.46049,1.774656 -0.75391,3.666426 -0.29342,1.891771 -0.89834,5.716364 -1.3442696,8.499095 -0.44593,2.782731 -0.82752,5.699762 -0.84797,6.482291 -0.0205,0.78252911 0.0993,2.73246771 0.26606,4.3331968 0.16679,1.600729 0.30335,4.3001672 0.30348,5.9987515 l 2.2e-4,3.0883347 0.8683996,0.286599 c 0.47762,0.157629 2.23379,0.451751 3.9026,0.653603 1.66881,0.201852 3.29263,0.379772 3.60849,0.395378 0.42449,0.02097 0.61296,-0.161417 0.72252,-0.699229 z m -6.80199,-19.309547 c -0.0671,-0.257431 -0.12638,-0.110869 -0.13178,0.325694 -0.005,0.436562 0.0495,0.647187 0.12197,0.468056 0.0725,-0.179132 0.0769,-0.536319 0.01,-0.79375 z m 12.47689,-4.238369 c 0.14777,-0.691224 0.40796,-2.306214 0.57819,-3.588867 0.17024,-1.282653 0.23779,-2.403825 0.15013,-2.491493 -0.0877,-0.08767 -0.1594,0.07476 -0.1594,0.360951 0,0.286191 -0.11249,0.633456 -0.24998,0.771701 -0.13748,0.138245 -0.50341,1.422628 -0.81317,2.854184 -0.30976,1.431557 -0.49867,2.77101 -0.41979,2.976563 0.0789,0.205552 0.25635,0.373732 0.39438,0.373732 0.13803,0 0.37187,-0.565547 0.51964,-1.256771 z m 54.7276,-5.205311 0.74236,-0.641248 -0.59537,-1.673856 c -0.32745,-0.92062 -0.59534,-1.941746 -0.59531,-2.269167 3e-5,-0.327422 0.092,-0.595313 0.20447,-0.595313 0.11243,0 0.43395,0.426213 0.71448,0.947141 0.28054,0.520928 0.85253,1.235303 1.2711,1.5875 0.50891,0.428219 1.08962,0.640359 1.75293,0.640359 0.70943,0 1.16463,-0.183848 1.59839,-0.645566 0.33356,-0.355061 0.71087,-1.204356 0.83846,-1.887322 0.14021,-0.750474 0.12577,-2.196094 -0.0365,-3.653914 -0.14766,-1.326686 -0.32931,-2.769343 -0.40366,-3.205906 -0.0744,-0.436562 -0.24097,-2.441112 -0.37026,-4.454553 -0.12929,-2.013442 -0.30069,-3.726422 -0.38089,-3.806621 -0.0802,-0.0802 -1.01008,0.674193 -2.0664,1.676428 -1.05631,1.002236 -2.97565,2.834277 -4.26518,4.071204 -1.28953,1.236928 -2.6612,2.78474 -3.04815,3.439584 -0.64255,1.087408 -0.70313,1.431463 -0.69882,3.968749 0.004,2.490645 0.0831,2.948796 0.76179,4.427434 0.48696,1.060869 1.05167,1.838061 1.58278,2.178355 0.45414,0.290975 1.14649,0.531052 1.53856,0.533504 0.39207,0.0025 1.04691,-0.284105 1.45521,-0.636792 z m -53.77367,-5.424897 c 0.19256,-0.374401 0.60143,-1.948164 0.90859,-3.497252 0.30717,-1.549088 0.55486,-3.215963 0.55044,-3.704167 -0.006,-0.623961 -0.0747,-0.769748 -0.23242,-0.490768 -0.1234,0.218282 -0.36075,1.196893 -0.52745,2.174693 -0.1667,0.9778 -0.58054,2.704206 -0.91965,3.836458 -0.33911,1.132252 -0.71574,2.296766 -0.83695,2.587807 -0.19921,0.478286 -0.1758,0.492859 0.24346,0.151562 0.25512,-0.207682 0.62141,-0.683932 0.81398,-1.058333 z m -10.20856,-6.699999 c 0.62794,-3.819922 1.42587,-8.493125 1.77317,-10.384895 0.34729,-1.891771 0.7964,-4.48426 0.998,-5.761086 0.20161,-1.276827 0.27312,-2.379249 0.15892,-2.449828 -0.11419,-0.07058 -0.38142,0.04546 -0.59383,0.257873 -0.21241,0.212409 -0.46673,0.957644 -0.56515,1.656078 -0.0984,0.698434 -0.3597,2.162848 -0.5806,3.254254 -0.22091,1.091407 -0.86204,4.246563 -1.42475,7.011458 -0.5627,2.764896 -1.26833,6.127151 -1.56807,7.471678 -0.29974,1.344527 -0.54497,2.799003 -0.54497,3.232169 0,0.433166 0.20064,1.208333 0.44588,1.722593 0.24523,0.51426 0.51648,0.935018 0.60277,0.935018 0.0863,0 0.67068,-3.12539 1.29863,-6.945312 z m 60.52707,-2.459162 c 0.41287,-0.412868 0.61052,-0.83663 0.51109,-1.095757 -0.13032,-0.339596 -0.0886,-0.361461 0.21276,-0.111393 0.28903,0.239874 0.45707,0.232999 0.73366,-0.03001 0.19732,-0.187633 1.19028,-1.054946 2.20659,-1.927362 1.0163,-0.872415 2.29304,-2.06246 2.8372,-2.644543 0.75446,-0.807057 0.98887,-1.2782 0.9873,-1.984375 -0.001,-0.509323 -0.3505,-3.545416 -0.77638,-6.746874 -0.42587,-3.201459 -0.84202,-6.467741 -0.92477,-7.258405 -0.0828,-0.790665 -0.26494,-1.575526 -0.40487,-1.744136 -0.13994,-0.16861 -0.18118,-0.379814 -0.0917,-0.469343 0.0895,-0.08953 -0.29846,-0.09724 -0.86219,-0.01714 -0.56374,0.0801 -2.15607,0.441383 -3.53851,0.802852 -1.38245,0.361468 -2.64832,0.796856 -2.81304,0.967528 -0.22305,0.231108 -0.21062,0.918106 0.0487,2.691563 0.19152,1.309687 0.34326,2.678906 0.33722,3.042708 -0.006,0.363802 -0.24169,-0.643659 -0.52363,-2.238803 -0.28195,-1.595143 -0.5631,-2.950724 -0.62477,-3.012402 -0.0617,-0.06168 -0.42755,0.09452 -0.81304,0.347099 -0.67033,0.439222 -0.69318,0.530166 -0.5241,2.086361 0.0972,0.894916 0.64066,4.841807 1.2076,8.770869 0.56695,3.929063 1.17074,8.066484 1.34176,9.194271 0.17102,1.127786 0.42095,2.05052 0.55539,2.05052 0.13445,0 0.5474,-0.30295 0.91767,-0.673224 z m 122.009189,-4.139618 0.0721,-4.636935 -1.92418,-0.701458 c -1.0583,-0.385802 -3.41246,-0.991436 -5.23147,-1.345853 -1.81901,-0.354417 -4.73604,-0.768833 -6.48229,-0.920923 -1.74625,-0.152091 -4.00844,-0.291449 -5.02709,-0.309685 -1.70983,-0.03061 -1.77079,-0.05047 -0.79375,-0.258568 0.58209,-0.123976 2.24896,-0.166051 3.70417,-0.0935 1.45521,0.07255 3.59833,0.182789 4.7625,0.244972 1.16417,0.06218 3.32083,0.294225 4.7926,0.515649 1.47176,0.221424 3.46341,0.665521 4.42589,0.986883 0.96248,0.321362 1.82531,0.508943 1.91741,0.416847 0.0921,-0.0921 0.23153,-0.965774 0.30985,-1.941506 l 0.1424,-1.774058 -3.47897,0.189119 c -2.32696,0.126495 -3.47897,0.09913 -3.47897,-0.08265 0,-0.149471 0.48587,-0.402596 1.0797,-0.5625 0.59384,-0.159905 2.21646,-0.372853 3.60581,-0.473219 l 2.52609,-0.182484 0.48194,-1.852083 c 0.26506,-1.018646 0.66123,-2.358099 0.88038,-2.976563 0.21914,-0.618463 0.31944,-1.124479 0.22289,-1.124479 -0.0965,0 -0.59728,0.41188 -1.11274,0.915288 l -0.9372,0.915288 0.17322,-1.907475 c 0.0953,-1.049112 0.26093,-2.887031 0.36813,-4.084266 0.13365,-1.492692 0.10123,-2.289659 -0.10316,-2.535934 -0.22082,-0.266064 -0.65908,-0.311262 -1.69104,-0.174396 -0.76614,0.101611 -1.86923,0.153876 -2.45131,0.116144 -0.58209,-0.03773 -1.1774,-0.0907 -1.32292,-0.117698 -0.14552,-0.027 0.0926,-0.212649 0.52917,-0.412547 0.43656,-0.199899 1.59742,-0.368823 2.57968,-0.375386 0.98227,-0.0066 1.78594,-0.114382 1.78594,-0.239596 0,-0.125213 -0.2974,-0.665904 -0.66089,-1.201534 -0.36349,-0.535631 -1.09464,-1.442681 -1.62479,-2.015667 -0.53015,-0.572987 -1.12699,-1.274636 -1.32632,-1.559222 -0.23457,-0.334892 -0.26739,-0.576165 -0.093,-0.68393 0.14817,-0.09158 0.95312,0.48623 1.78878,1.284012 0.83565,0.797783 1.87655,2.052952 2.31311,2.789266 0.43657,0.736314 0.91282,1.302449 1.05834,1.258078 0.14552,-0.04437 0.5347,-0.845478 0.86484,-1.780237 0.33015,-0.934759 0.91446,-2.413937 1.29848,-3.287062 0.38402,-0.873125 0.97711,-2.031618 1.31797,-2.57443 0.34086,-0.542811 0.61975,-1.048827 0.61975,-1.124479 0,-0.07565 -0.11276,-0.137549 -0.25057,-0.137549 -0.13782,0 -1.03078,0.59054 -1.98438,1.312311 -0.95359,0.721771 -1.73204,1.227787 -1.72989,1.124479 0.002,-0.103308 0.18039,-0.936367 0.39608,-1.851243 0.2157,-0.914876 0.46864,-2.6582 0.5621,-3.874054 0.13811,-1.796741 0.0768,-2.476064 -0.32743,-3.628255 -0.35533,-1.012808 -0.95138,-1.8757 -2.08736,-3.021818 -1.00996,-1.018975 -2.21741,-1.90461 -3.3098,-2.427662 -0.94589,-0.452901 -2.22531,-0.955855 -2.84317,-1.117674 -0.80338,-0.210412 -1.27441,-0.213381 -1.65364,-0.01042 -0.29165,0.156086 -0.53027,0.517729 -0.53027,0.803651 0,0.285921 -0.06,0.519857 -0.13325,0.519857 -0.0733,0 -0.57754,-0.238125 -1.12056,-0.529166 -0.54303,-0.291042 -1.25238,-0.529167 -1.57635,-0.529167 -0.4712,0 -0.64692,0.224949 -0.87841,1.124479 -0.15915,0.618464 -0.4643,1.669952 -0.6781,2.336641 -0.2138,0.66669 -0.96997,2.154971 -1.68039,3.307292 -0.71041,1.152321 -1.89813,2.786667 -2.63938,3.63188 -0.74125,0.845212 -1.34773,1.64252 -1.34773,1.771794 0,0.129274 -0.63346,0.655509 -1.40768,1.16941 -0.77423,0.513902 -2.13038,1.686976 -3.01367,2.606831 -0.88329,0.919856 -2.17208,2.547567 -2.86398,3.617138 -0.6919,1.06957 -1.60507,2.845977 -2.02925,3.947572 -0.42419,1.101594 -0.94272,2.818034 -1.15229,3.814311 -0.20958,0.996276 -0.38105,1.92688 -0.38105,2.068007 0,0.156263 0.20839,0.145069 0.53295,-0.02863 0.40959,-0.219205 0.51676,-0.206049 0.46302,0.05684 -0.0385,0.188133 -0.29726,0.551076 -0.57511,0.80654 -0.27786,0.255465 -0.59818,1.029371 -0.71183,1.719792 -0.11366,0.690421 -0.21375,2.699946 -0.22242,4.465612 l -0.0158,3.210301 0.66146,0.126446 c 0.3638,0.06954 0.66145,0.04284 0.66145,-0.05934 0,-0.102185 0.62508,-0.316162 1.38907,-0.475505 0.76398,-0.159343 2.31179,-0.367042 3.43958,-0.461552 1.76761,-0.148129 2.05052,-0.113965 2.05052,0.247611 0,0.316259 -0.27664,0.420739 -1.12448,0.42469 -0.61846,0.0029 -1.95791,0.139117 -2.97656,0.302742 -1.01865,0.163625 -2.20927,0.310095 -2.64583,0.325488 -0.43657,0.01539 -0.96112,0.186852 -1.16568,0.381019 -0.21824,0.207144 -0.45737,1.245849 -0.57867,2.513542 -0.1137,1.18828 -0.21422,3.020736 -0.22338,4.072124 l -0.0166,1.911615 0.8599,-0.191823 c 0.47294,-0.105503 3.06255,-0.188272 5.75468,-0.183933 3.31699,0.0053 6.06316,0.169739 8.5194,0.50999 2.17689,0.301553 3.5608,0.605346 3.46485,0.760594 -0.0879,0.142172 -0.0277,0.176887 0.13368,0.07714 0.16139,-0.09974 1.99549,0.118068 4.07577,0.484026 2.08029,0.365958 4.37766,0.834664 5.10526,1.041568 0.72761,0.206905 1.44198,0.347837 1.5875,0.313182 0.16047,-0.03822 0.29295,-1.887593 0.33668,-4.699944 z m -26.44774,-18.386647 c 0.19099,-0.07643 0.41919,-0.06703 0.50711,0.02089 0.0879,0.08792 -0.0684,0.150453 -0.34726,0.138965 -0.30823,-0.0127 -0.37092,-0.07539 -0.15985,-0.159853 z m 21.63556,-12.797134 c -0.27871,-0.281055 -1.02219,-0.76053 -1.65218,-1.065501 -0.62998,-0.30497 -1.2118,-0.661889 -1.29293,-0.793152 -0.0811,-0.131263 0.067,-0.159292 0.32927,-0.06229 0.26222,0.09701 1.24939,0.690955 2.19373,1.319886 0.94433,0.628931 1.53964,1.136435 1.32291,1.127787 -0.21673,-0.0086 -0.62209,-0.245679 -0.9008,-0.526734 z m -4.52033,-2.367958 c -0.0899,-0.145521 -0.0374,-0.264583 0.11668,-0.264583 0.1541,0 0.28019,0.119062 0.28019,0.264583 0,0.145521 -0.0525,0.264584 -0.11667,0.264584 -0.0642,0 -0.19026,-0.119063 -0.2802,-0.264584 z m -4.9444,-1.239074 c 0.19099,-0.07643 0.4192,-0.06703 0.50712,0.02089 0.0879,0.08792 -0.0684,0.150453 -0.34727,0.138965 -0.30822,-0.0127 -0.37092,-0.07539 -0.15985,-0.159853 z m -85.560259,21.213569 c 0.0963,-0.513387 0.40691,-2.508999 0.69023,-4.434693 0.28332,-1.925693 0.51567,-3.590558 0.51634,-3.699698 6.7e-4,-0.109141 -0.66665,-0.198438 -1.48294,-0.198438 h -1.48415 l 0.12319,0.859896 c 0.0678,0.472943 0.34716,2.605638 0.62088,4.739323 0.27373,2.133685 0.57501,3.83164 0.66951,3.773234 0.0945,-0.0584 0.25062,-0.526236 0.34694,-1.039624 z m -82.18534,-4.959391 c -0.0528,-0.547254 -0.22589,-0.859896 -0.47616,-0.859896 -0.21629,0 -0.43448,0.214079 -0.48487,0.475731 -0.0504,0.261652 0.0519,0.648605 0.22721,0.859896 0.17536,0.21129 0.43086,0.384164 0.56778,0.384164 0.13692,0 0.21164,-0.386953 0.16604,-0.859895 z m 56.18379,-0.605572 c 0.98444,-0.660486 2.41934,-1.476779 3.18868,-1.813984 0.76933,-0.337205 2.11316,-0.683198 2.98628,-0.768873 0.87313,-0.08567 3.73063,-0.45372 6.35,-0.817879 2.61938,-0.364159 6.62325,-0.847492 8.89749,-1.074074 2.27424,-0.226581 5.96518,-0.416557 8.202079,-0.422169 2.23691,-0.0056 4.48382,-0.122202 4.99314,-0.259091 0.50932,-0.136888 1.28323,-0.560264 1.71979,-0.940836 l 0.79375,-0.691948 -2.38125,0.123955 c -1.30968,0.06818 -3.81,0.260156 -5.55625,0.426625 -1.746249,0.166468 -4.306089,0.42286 -5.688539,0.569758 -1.38245,0.146899 -4.12088,0.442002 -6.08541,0.655785 -1.96454,0.213784 -5.59594,0.63265 -8.0698,0.930813 -2.47385,0.298164 -5.78545,0.592358 -7.3591,0.653764 -2.62428,0.102404 -2.98577,0.181829 -4.36563,0.959201 -0.82744,0.466154 -1.83185,1.073956 -2.23204,1.35067 -0.40018,0.276714 -0.7276,0.655521 -0.7276,0.841792 0,0.186271 0.44648,0.52974 0.99219,0.763265 0.5457,0.233525 1.23031,0.475921 1.52135,0.538658 0.29104,0.06274 0.64208,0.127879 0.78008,0.14476 0.138,0.01688 1.05636,-0.509706 2.04079,-1.170192 z m -56.13441,-2.491818 c 0,-0.541833 0.23606,-1.90814 0.52458,-3.036239 0.28852,-1.128098 0.89575,-2.784253 1.34939,-3.680344 0.45365,-0.896091 1.25938,-2.161869 1.79053,-2.81284 0.53114,-0.650971 0.93413,-1.241669 0.89553,-1.312661 -0.0386,-0.07099 -0.57438,-0.100464 -1.19063,-0.06549 -0.61624,0.03497 -1.6736,0.188088 -2.34968,0.340258 -0.67608,0.152171 -1.49185,0.556221 -1.81283,0.89789 -0.43744,0.465632 -0.64297,1.139899 -0.82063,2.692195 -0.13036,1.139038 -0.16181,3.321134 -0.0699,4.849103 0.0919,1.527969 0.2746,2.914662 0.40594,3.08154 0.13134,0.166878 0.47255,0.242289 0.75824,0.167579 0.39887,-0.104307 0.51944,-0.364502 0.51944,-1.120988 z m 51.26241,0.417079 c 0.69156,-0.491905 1.79316,-1.16637 2.44801,-1.498812 0.65484,-0.332441 1.54781,-0.628578 1.98437,-0.658082 0.43656,-0.0295 1.68672,-0.253598 2.77813,-0.497987 1.0914,-0.24439 3.82984,-0.668125 6.08541,-0.941634 2.25558,-0.27351 6.83948,-0.795778 10.18646,-1.160596 3.34698,-0.364818 8.1926,-0.867815 10.768049,-1.11777 2.82174,-0.273858 5.46569,-0.388271 6.65307,-0.2879 1.58148,0.133684 2.0359,0.08769 2.30204,-0.232983 0.24186,-0.291432 0.28576,-1.059524 0.16221,-2.838558 -0.0932,-1.341457 -0.39792,-3.706951 -0.67725,-5.256654 -0.27933,-1.549703 -0.64173,-3.06775 -0.80533,-3.373438 -0.1636,-0.305687 -0.6156,-0.764155 -1.00446,-1.018816 -0.57429,-0.376107 -1.25545,-0.457211 -3.62871,-0.432068 -1.60694,0.01702 -4.231389,0.171983 -5.832119,0.344353 -1.60073,0.172371 -4.2201,0.49241 -5.82083,0.711197 -1.60073,0.218788 -5.06958,0.746312 -7.70855,1.172275 -2.63897,0.425963 -5.85366,1.017835 -7.14375,1.315272 -1.29009,0.297437 -3.1104,0.792391 -4.04514,1.099898 -1.04088,0.342425 -2.11753,0.93727 -2.77813,1.534898 -0.59323,0.536688 -1.8525,1.439051 -2.79839,2.005252 -0.94589,0.566201 -2.22581,1.494899 -2.84427,2.063772 -1.07226,0.986282 -1.12448,1.104866 -1.12448,2.553461 0,0.835529 0.17722,2.535415 0.39383,3.777523 0.2166,1.242107 0.51131,2.567391 0.65491,2.945074 0.14359,0.377683 0.32328,0.686696 0.39931,0.686696 0.076,0 0.70405,-0.402468 1.39561,-0.894373 z m 48.903539,-13.181658 c 0.18077,-0.522155 0.44944,-1.944203 0.59705,-3.160108 0.1664,-1.370768 0.18028,-2.989291 0.0365,-4.259839 -0.12751,-1.127008 -0.48544,-2.615289 -0.79538,-3.307292 l -0.56355,-1.258187 -0.75238,1.455208 c -0.4138,0.800365 -1.10522,1.834903 -1.53648,2.298974 -0.73409,0.789945 -0.76037,0.889516 -0.412,1.56099 0.20465,0.394474 0.61434,2.098373 0.91042,3.786443 0.41428,2.362045 0.66624,3.177906 1.09351,3.540936 0.30536,0.259446 0.67634,0.431338 0.8244,0.381983 0.14806,-0.04935 0.41711,-0.516953 0.59789,-1.039108 z"
       id="path101" /></g></svg>
