<?xml version="1.0" encoding="UTF-8" standalone="no"?>
<!-- Created with Inkscape (http://www.inkscape.org/) -->

<svg
   width="200.49031mm"
   height="201.07886mm"
   viewBox="0 0 200.49031 201.07885"
   version="1.1"
   id="svg1"
   xml:space="preserve"
   xmlns="http://www.w3.org/2000/svg"
   xmlns:svg="http://www.w3.org/2000/svg"><defs
     id="defs1"><clipPath
       clipPathUnits="userSpaceOnUse"
       id="clipPath3"><path
         id="path3"
         style="fill:#ff0000;fill-opacity:1;fill-rule:nonzero;stroke:none;stroke-width:0.264583"
         d="M -89.402812,17.953426 V 231.29958 H 127.50849 V 17.953426 Z M 57.309165,146.54868 c 0.779481,0.0172 1.734521,0.44275 2.742467,1.42885 1.453158,1.42166 2.550438,3.15263 3.545004,4.91236 0.576631,1.13939 1.15478,2.27834 1.723925,3.4215 2.234525,4.48814 -2.300936,6.74504 -4.534091,2.25619 -0.530973,-1.06731 -1.073954,-2.12816 -1.604552,-3.19567 -0.690115,-1.23606 -1.451359,-2.42398 -2.372466,-3.50366 -2.338813,-2.74145 -1.4923,-5.3635 0.499713,-5.31957 z" /></clipPath><clipPath
       clipPathUnits="userSpaceOnUse"
       id="clipPath13"><path
         id="path14"
         style="fill:#ff0000;fill-opacity:1;fill-rule:nonzero;stroke:none;stroke-width:0.264583"
         d="M 84.920345,6.4680598 V 221.74691 H 301.98358 V 6.4680598 Z M 147.30258,105.99945 c 1.81348,0.0318 2.9196,2.21177 1.01958,4.89789 -0.85979,1.21553 -1.91873,2.26478 -2.92799,3.35225 -3.41051,3.67492 -7.12464,0.22459 -3.71036,-3.44681 0.86277,-0.92776 1.77417,-1.81787 2.51715,-2.84893 1.00758,-1.39821 2.1517,-1.97106 3.10162,-1.9544 z m 142.06988,64.87718 c 1.17022,0.0187 2.44155,1.13328 2.84893,3.44785 0.10866,0.61736 0.30546,1.21757 0.55604,1.79111 2.00725,4.59429 -2.79832,6.58902 -4.67776,1.94096 -0.41348,-1.02257 -0.77141,-2.07335 -0.91208,-3.17293 -0.33799,-2.64197 0.85864,-4.02819 2.18487,-4.00699 z m -10.44018,21.22609 c 2.35821,0.0534 3.26597,2.914 0.21755,5.11545 -0.43935,0.31729 -0.87891,0.63459 -1.31826,0.95188 -2.32674,1.61168 -4.73063,3.09573 -7.16236,4.5434 -4.308,2.56465 -6.91121,-1.77429 -2.60552,-4.34289 2.33483,-1.39287 4.64814,-2.81121 6.88175,-4.36201 0.41258,-0.29833 0.82559,-0.59671 1.23817,-0.89504 1.01567,-0.73441 1.96259,-1.0286 2.74867,-1.01079 z" /></clipPath></defs><g
     id="layer1"
     transform="translate(-49.316744,14.042518)"><path
       style="fill:#000000"
       d="m 127.61672,186.67518 c -13.0878,-1.5939 -25.11073,-6.27418 -33.998959,-13.23508 -4.401751,-3.44728 -9.041329,-8.86601 -12.369574,-14.44689 l -1.517989,-2.54539 -1.31981,-0.17508 c -1.84038,-0.24414 -6.092535,-1.5032 -8.5626,-2.53539 -4.895751,-2.04584 -10.608831,-6.93922 -14.528848,-12.44428 -2.328442,-3.26995 -4.810973,-8.25306 -5.518829,-11.07779 -0.737186,-2.94177 -0.618335,-7.0776 0.268889,-9.35691 1.598931,-4.1077 5.306217,-6.68239 10.078971,-6.99977 4.696035,-0.31228 9.215561,1.88571 14.016913,6.81687 1.660416,1.7053 2.171228,2.0738 3.081291,2.22281 l 1.090912,0.17863 1.068095,-1.93581 c 1.256561,-2.2774 3.25071,-5.13839 4.79904,-6.88516 0.958048,-1.08083 3.907155,-3.61434 5.532094,-4.75249 0.472981,-0.33129 0.509156,-0.54665 0.337035,-2.00643 -0.26666,-2.26156 0.07335,-4.98685 0.852763,-6.83511 l 0.656267,-1.556238 -2.818768,-1.466573 c -4.463329,-2.32222 -7.554538,-4.627762 -11.211844,-8.362223 -4.211599,-4.300447 -7.104346,-8.943392 -8.587908,-13.78385 -0.664838,-2.169187 -0.713401,-2.66263 -0.72358,-7.352326 -0.0096,-4.438469 0.06124,-5.301484 0.605324,-7.370611 1.935191,-7.359476 5.869278,-12.811694 13.105468,-18.162759 l 2.620812,-1.938055 -1.033312,-0.797914 c -3.668652,-2.832902 -6.731013,-6.967128 -8.125831,-10.969978 -0.70655,-2.027656 -0.815761,-2.742323 -0.921521,-6.030349 -0.163726,-5.090132 0.5946,-8.698646 2.468841,-11.748039 0.313044,-0.509323 0.71824,-1.3800882 0.900437,-1.9350338 0.470933,-1.4343932 2.694419,-4.6642223 4.107899,-5.9671231 3.267747,-3.01210447 6.941324,-4.5164903 11.555051,-4.7319702 4.774938,-0.223009 8.620801,0.97953961 12.478411,3.9018308 1.56153,1.1829257 1.8603,1.3180795 2.24895,1.0173649 0.24651,-0.190731 1.16258,-0.9515631 2.0357,-1.6907379 7.9412,-6.7229002 19.61622,-12.2615387 30.29479,-14.3718667 7.06027,-1.395269 16.02768,-1.7746 23.01875,-0.973717 18.36879,2.10429 34.51107,9.4444193 46.48555,21.1376541 l 2.16784,2.1169283 2.33008,-0.696666 c 3.4168,-1.0215878 5.88071,-1.3299474 9.34153,-1.1690989 4.83243,0.2245972 8.9872,1.6196383 13.48046,4.5263115 2.4558,1.588645 6.28179,5.291175 7.87087,7.616873 1.09055,1.596072 1.25973,2.023443 1.27824,3.229069 0.0152,0.98793 0.19177,1.628881 0.61103,2.21767 1.84693,2.59378 2.83247,6.707195 2.61054,10.895799 -0.4651,8.777917 -5.37485,16.001135 -12.87688,18.944456 -1.62726,0.638435 -1.8861,0.826428 -1.77929,1.292292 0.0687,0.299844 0.49233,1.914389 0.94128,3.587879 2.25964,8.422903 2.96061,18.223755 1.76935,24.73854 -1.16713,6.382759 -3.69282,11.146146 -8.16002,15.389551 -3.31516,3.14907 -8.87102,6.51348 -13.88152,8.4061 l -1.91823,0.72457 -3.2e-4,5.0701 c -6.6e-4,10.42039 -1.68646,19.18426 -5.31843,27.64871 -0.71271,1.66099 -1.29583,3.0646 -1.29583,3.11912 0,0.0545 0.96356,0.0991 2.14125,0.0991 4.29938,0 8.94651,-1.33804 14.99212,-4.31667 3.46928,-1.70928 5.35385,-2.19685 6.89122,-1.78288 4.78181,1.28761 4.17403,6.98946 -1.66548,15.62455 -4.42497,6.54335 -9.20518,11.29281 -15.79328,15.6917 -6.01184,4.01412 -12.19672,6.67131 -18.72122,8.04316 -2.94643,0.61951 -3.90705,0.69798 -8.48211,0.69283 -3.42546,-0.004 -6.13073,-0.15267 -8.0497,-0.44279 -1.58968,-0.24034 -3.28468,-0.43699 -3.76666,-0.43699 -0.48198,0 -2.69368,0.72605 -4.91488,1.61345 -10.3326,4.12799 -16.31463,5.76866 -24.54214,6.73111 -4.04796,0.47352 -13.80717,0.46855 -17.7287,-0.009 z m 10.74789,-7.81767 c -2.79456,-2.93661 -5.4653,-6.91682 -7.80401,-11.63036 -2.15426,-4.3418 -3.08704,-7.08022 -3.47498,-10.20172 -0.90628,-7.29229 2.32722,-12.62703 8.65203,-14.27444 4.23741,-1.1037 8.65414,0.13435 12.66498,3.55013 l 1.77186,1.50898 1.38101,-0.25032 c 1.84068,-0.33364 3.22662,-0.0392 4.14686,0.88106 0.73888,0.73888 1.0252,1.85298 0.47622,1.85298 -0.15275,0 -0.63581,-0.18517 -1.07347,-0.4115 -0.80212,-0.41479 -2.72393,-0.62866 -3.01686,-0.33573 -0.0869,0.0869 0.37977,0.98937 1.03707,2.00546 3.14138,4.85608 5.90816,13.99241 5.18761,17.13031 -0.22503,0.98003 -1.05174,1.98438 -1.63339,1.98438 -0.72219,0 -1.55819,-1.4922 -2.6026,-4.64545 -1.56138,-4.71404 -3.11746,-8.17009 -4.85298,-10.77841 -1.92194,-2.8885 -5.01339,-5.82262 -7.22554,-6.85781 -1.50728,-0.70534 -1.91624,-0.78308 -3.65708,-0.69517 -1.66235,0.084 -2.13239,0.22012 -3.09492,0.89661 -2.69132,1.89154 -3.46542,5.01237 -2.34882,9.46945 1.97076,7.86663 8.24806,17.43545 13.98016,21.31071 l 1.66626,1.12649 1.90562,-0.29228 c 4.95882,-0.76058 7.67347,-1.59296 16.19312,-4.96516 13.21568,-5.23098 17.44467,-7.89332 24.73994,-15.57492 8.23384,-8.66989 14.76798,-22.76016 16.55208,-35.69302 0.52939,-3.83752 0.66921,-12.64325 0.20813,-13.10765 -0.27236,-0.27433 -1.62074,-0.49237 -5.77378,-0.93367 -0.72342,-0.0769 -1.37826,-0.23869 -1.45521,-0.3596 -0.0769,-0.12091 -1.15195,-0.35651 -2.38887,-0.52354 -1.23693,-0.16704 -2.9038,-0.46584 -3.70417,-0.66401 l -1.45521,-0.36031 1.42125,-0.0293 c 3.59605,-0.074 10.9789,-1.56473 15.90896,-3.21225 3.16831,-1.05877 8.24643,-3.50128 10.90556,-5.245434 4.30284,-2.822269 8.10426,-7.219686 9.55723,-11.055628 1.28293,-3.387017 1.5455,-4.825285 1.69002,-9.257282 0.21005,-6.441479 -0.62308,-12.814016 -2.46486,-18.853523 -1.07104,-3.512126 -1.45442,-4.107289 -3.2034,-4.973042 -1.52612,-0.755434 -3.60749,-2.996613 -3.45647,-3.721862 0.05,-0.24039 1.11385,-0.356197 3.90525,-0.425133 4.13464,-0.102109 6.01336,-0.557167 8.9909,-2.177748 2.32519,-1.265526 4.98748,-4.29805 6.21202,-7.075913 2.89105,-6.558297 1.16051,-14.637781 -3.29655,-15.390796 -3.91451,-0.661353 -7.80377,1.783993 -10.0186,6.299129 -1.31938,2.689681 -1.8347,4.682872 -2.30352,8.909605 -0.26285,2.369859 -0.50543,3.490656 -0.85896,3.96875 -1.24789,1.687552 -3.12989,1.549402 -3.86331,-0.283591 -0.48274,-1.206468 -0.54678,-4.422278 -0.14443,-7.252247 1.22373,-8.607228 5.32955,-14.656514 11.22949,-16.544925 0.57873,-0.185237 1.99259,-0.407939 3.1419,-0.494893 l 2.08967,-0.158098 -1.28983,-1.289528 c -2.65709,-2.656487 -6.56489,-4.932378 -10.15336,-5.913284 -1.30287,-0.356139 -2.64984,-0.464996 -5.55625,-0.449031 -4.31981,0.02373 -6.23801,0.46113 -10.73647,2.448214 -2.28928,1.011232 -2.38307,1.029601 -3.11246,0.609598 -0.79077,-0.455347 -1.4969,-1.548494 -1.4969,-2.317308 0,-0.25043 0.20661,-0.683633 0.45914,-0.962674 0.44268,-0.489158 0.39288,-0.568175 -1.38906,-2.203974 C 200.87763,6.693658 194.80135,2.643396 188.21229,-0.57832129 175.95926,-6.5694399 163.44515,-9.1783123 150.55022,-8.4299055 129.15826,-7.1883407 109.09327,5.1931754 97.213113,24.482869 93.734252,30.13146 90.575507,37.093509 89.109436,42.343826 l -0.701868,2.513542 -2.252758,1.455208 c -2.731769,1.764634 -6.561628,5.304461 -8.155122,7.537543 -1.575671,2.208106 -2.883872,4.917369 -3.732559,7.730073 -0.613423,2.032997 -0.703006,2.795419 -0.70867,6.031341 -0.0058,3.287519 0.07476,3.972012 0.715812,6.085417 2.366441,7.80163 8.694758,14.650901 17.99202,19.473142 l 3.146446,1.631978 1.787031,-0.965216 c 6.429852,-3.472911 14.829402,-2.773346 20.402342,1.69923 1.90442,1.528397 2.60207,2.465496 2.60453,3.498457 0.001,0.47598 0.43284,1.260609 1.23636,2.247119 1.94461,2.38745 2.77795,4.43003 2.93563,7.19542 l 0.13275,2.32837 1.24456,0.1474 c 2.01983,0.23922 5.19157,1.4808 4.75356,1.86078 -0.0631,0.0547 -0.82903,0.007 -1.70216,-0.10555 -5.84852,-0.75532 -11.94875,0.39507 -18.23292,3.43839 -3.63475,1.76025 -6.73423,3.70565 -8.95301,5.61941 -1.16323,1.00331 -1.52077,1.19893 -1.51887,0.83101 0.003,-0.52944 1.41398,-3.12238 1.84408,-3.3882 0.61378,-0.37934 0.22412,-0.89071 -0.81213,-1.06578 -1.601273,-0.27053 -5.028891,-2.0816 -6.581427,-3.47747 -1.296097,-1.1653 -1.393058,-1.20568 -2.0534,-0.85515 -0.381188,0.20235 -1.624267,1.24278 -2.762397,2.31207 -5.728475,5.38198 -8.310995,11.22708 -8.609912,19.48709 -0.60502,16.71855 8.642766,31.05087 25.190406,39.04036 8.89949,4.29682 18.89786,6.4967 29.86184,6.57031 l 4.46184,0.0299 z m 23.38336,-44.03147 c -0.21829,-0.0522 -1.28985,-0.23948 -2.38125,-0.41612 -8.99737,-1.45621 -18.38079,-7.9552 -21.6179,-14.97263 -1.89514,-4.1083 -0.24199,-9.20416 3.87859,-11.95578 2.2135,-1.47812 3.70921,-1.98655 10.29791,-3.50052 6.04841,-1.38982 7.75461,-1.56627 8.70544,-0.90029 0.74394,0.52107 0.77924,1.77818 0.0699,2.48756 -1.24209,1.24209 -4.7783,2.60978 -9.94164,3.84511 -4.29925,1.02859 -5.89613,1.69156 -7.18928,2.9847 -2.48338,2.48338 -1.79084,5.03472 2.53562,9.34129 5.33617,5.31165 10.91943,7.82653 18.01632,8.11514 3.8496,0.15655 6.70419,-0.19967 10.32633,-1.28859 3.15185,-0.94753 4.20695,-0.97321 5.00675,-0.12187 1.31556,1.40036 0.0745,2.98144 -3.47831,4.43116 -3.33777,1.36199 -5.78669,1.83908 -9.9951,1.94722 -2.11005,0.0542 -4.01505,0.0558 -4.23333,0.004 z m -52.07865,-5.63274 c -0.57605,-0.49073 -3.31223,-5.09777 -3.59765,-6.05754 -0.21151,-0.71122 0.49573,-1.47601 1.26217,-1.36487 0.48151,0.0698 1.55296,1.30504 1.81568,2.0932 0.0494,0.14814 0.93987,-0.12356 1.99272,-0.60799 1.38516,-0.63734 1.86389,-0.98389 1.75813,-1.27269 -0.0799,-0.21829 -0.20845,-0.77231 -0.28558,-1.23116 -0.11253,-0.66941 -0.0261,-0.89535 0.43712,-1.14329 0.71225,-0.38118 1.65708,0.14923 2.23104,1.25246 0.20748,0.39881 0.68621,1.01376 1.06384,1.36654 0.37763,0.35279 0.68659,0.86061 0.68659,1.12849 0,0.26788 0.37128,1.14492 0.82506,1.94897 0.79478,1.40828 0.80784,1.48095 0.35587,1.98037 -0.89471,0.98865 -1.34979,0.71564 -3.52569,-2.1151 l -0.499,-0.64917 -1.75312,0.74509 c -0.96421,0.4098 -1.75312,0.78804 -1.75312,0.84053 0,0.0525 0.26723,0.64547 0.59383,1.31772 l 0.59383,1.22228 -0.62314,0.50459 c -0.76559,0.61994 -0.89564,0.62336 -1.57858,0.0416 z m 34.48385,-49.733386 c -0.29104,-0.0635 -1.78867,-0.51705 -3.32807,-1.007895 -3.42303,-1.091448 -5.49278,-1.443171 -8.50785,-1.445779 -2.17936,-0.0019 -2.36013,-0.04603 -3.175,-0.775345 -0.83925,-0.751128 -0.86368,-0.832844 -0.85043,-2.844271 0.0109,-1.652563 0.15308,-2.374262 0.7039,-3.572473 0.91828,-1.997593 2.57775,-3.747559 4.40439,-4.644598 1.34326,-0.659658 1.77069,-0.733019 4.27077,-0.733019 2.44112,0 2.95466,0.08336 4.23334,0.687163 2.25857,1.06652 4.06569,2.868593 5.22131,5.206741 0.93029,1.882209 0.99639,2.174875 0.99639,4.41103 0,2.081358 -0.0804,2.507765 -0.61371,3.255499 -0.84917,1.190559 -2.1012,1.736498 -3.35504,1.462947 z m -0.52137,-5.285331 c -0.58563,-3.121674 -3.39349,-5.901591 -5.96092,-5.901591 -0.94418,0 -2.53743,0.617451 -3.26896,1.266861 -0.5128,0.455231 -1.75071,2.845997 -1.75553,3.39044 -0.002,0.178949 0.94329,0.360667 2.44481,0.470184 2.39498,0.174684 6.02608,0.88689 7.34218,1.440102 1.21122,0.509121 1.39927,0.404617 1.19842,-0.665996 z m 32.96052,-3.939049 c -2.28679,-0.614951 -3.98998,-1.675213 -6.11503,-3.806691 -4.8256,-4.840205 -5.89258,-11.804037 -2.76251,-18.030101 4.29386,-8.540985 15.76141,-10.274103 22.61731,-3.418206 3.17861,3.178613 4.6281,7.073026 4.42814,11.897334 -0.12868,3.104754 -0.63567,4.78038 -2.11809,7.000452 -0.80816,1.210294 -0.99309,1.330624 -2.8629,1.862854 -2.5458,0.724645 -4.26423,1.733691 -5.97058,3.505869 l -1.35493,1.407197 -2.21695,-0.01741 c -1.21932,-0.0096 -2.85933,-0.19016 -3.64446,-0.401295 z m 3.84503,-16.125056 c 2.19621,-1.286974 3.07698,-4.275344 1.94766,-6.608213 -1.53037,-3.161334 -5.47512,-3.961116 -8.11313,-1.644908 -1.18406,1.039616 -1.67777,2.168862 -1.67019,3.820159 0.0193,4.207962 4.19158,6.568382 7.83566,4.432962 z m -72.36915,5.155048 c -1.99594,-0.522718 -2.67632,-0.881076 -2.67669,-1.409826 -1.1e-4,-0.164083 -0.33989,-1.012708 -0.75505,-1.885833 -0.76316,-1.604994 -2.56293,-3.533914 -4.19446,-4.495462 -0.950611,-0.560243 -1.277657,-1.204826 -1.664048,-3.279713 -0.423632,-2.274869 -0.313408,-4.037394 0.40955,-6.548872 1.916968,-6.659348 6.940708,-10.665929 13.386238,-10.675936 8.2932,-0.01288 14.32895,8.196991 12.66338,17.224808 -0.43144,2.338509 -2.1771,5.547406 -4.04466,7.434945 -3.60122,3.639765 -8.22174,4.919813 -13.12426,3.635889 z m 6.78726,-14.949953 c 1.9688,-0.822618 3.23626,-2.682068 3.23626,-4.747829 0,-3.886935 -4.05781,-6.536877 -7.54063,-4.924387 -2.05547,0.951653 -3.0427,2.514841 -3.0427,4.817818 0,3.785902 3.8369,6.321041 7.34707,4.854398 z m 71.50666,-16.818201 c -1.0492,-0.418732 -2.3578,-1.523364 -2.78631,-2.351999 -0.21813,-0.421814 -0.3966,-1.317786 -0.3966,-1.991051 0,-1.000193 0.14148,-1.365591 0.7734,-1.997514 0.93274,-0.932735 1.25194,-0.949458 3.45036,-0.180763 2.29183,0.801356 3.71374,2.133994 3.71374,3.480579 0,2.496749 -2.35072,4.000126 -4.75459,3.040748 z m -68.66728,-8.349733 c -1.41689,-0.296797 -2.31268,-1.923086 -2.04068,-3.704822 0.20577,-1.347867 2.1621,-2.43603 5.13627,-2.856933 1.54953,-0.219288 2.75823,0.516796 3.00453,1.829729 0.25881,1.379543 -0.74958,3.281397 -2.13137,4.019845 -1.06831,0.570922 -2.99369,0.916426 -3.96875,0.712181 z m 71.70208,154.375571 c 7.06842,-0.53576 12.96887,-2.52697 19.51031,-6.5841 5.59193,-3.46823 11.94985,-9.45342 15.32539,-14.42695 1.11533,-1.64333 1.12795,-1.8002 0.31916,-3.96742 l -0.40589,-1.08762 -2.55782,1.01433 c -1.4068,0.55788 -2.74633,1.01754 -2.97674,1.02147 -0.67955,0.0116 -0.71701,0.20945 -0.34093,1.80068 0.19678,0.83257 0.42919,2.64486 0.51648,4.0273 l 0.1587,2.51355 -1.94204,1.23463 c -2.44103,1.55187 -5.02991,2.86972 -5.30433,2.70012 -0.11527,-0.0712 -0.20958,-0.003 -0.20958,0.15067 0,0.15411 -0.0996,0.2802 -0.22131,0.2802 -0.12171,0 -0.42046,-1.2223 -0.66388,-2.71623 -0.45044,-2.76451 -1.51562,-6.61733 -2.19329,-7.93325 -0.34265,-0.66537 -0.50423,-0.7276 -1.88925,-0.7276 h -1.51456 l -0.0206,4.16718 c -0.0189,3.81405 -0.0831,4.35778 -0.75813,6.41615 -1.11661,3.40508 -1.55681,4.14224 -2.584,4.32718 -2.85824,0.5146 -5.70752,0.7088 -6.42079,0.43761 -1.27331,-0.48411 -2.24359,-0.0406 -4.88973,2.23521 -1.38855,1.1942 -3.35806,2.80162 -4.37671,3.57205 -1.01865,0.77043 -1.88714,1.49098 -1.93,1.60123 -0.10055,0.25869 1.42387,0.24268 5.36958,-0.0564 z m 5.29167,-8.41272 c 0.0899,-0.14552 0.0374,-0.26459 -0.11668,-0.26459 -0.15411,0 -0.2802,0.11907 -0.2802,0.26459 0,0.14552 0.0525,0.26458 0.11668,0.26458 0.0642,0 0.19026,-0.11906 0.2802,-0.26458 z m 0.92604,-1.11904 c 0,-0.15486 -0.16812,-0.12915 -0.39687,0.0607 -0.21829,0.18116 -0.39688,0.3706 -0.39688,0.42097 0,0.0504 0.17859,0.0231 0.39688,-0.0607 0.21828,-0.0838 0.39687,-0.2732 0.39687,-0.42097 z M 77.503042,150.09538 c -1.154898,-3.73717 -1.785833,-8.60252 -1.721859,-13.27784 0.04828,-3.52827 0.03434,-3.62353 -0.760405,-5.19792 -2.507406,-4.96714 -6.797839,-9.76753 -10.265426,-11.48557 -1.584208,-0.7849 -2.095084,-0.90733 -3.813631,-0.91394 -2.778147,-0.0107 -4.443325,0.92103 -5.647946,3.16017 -0.466061,0.86631 -0.563165,1.46638 -0.535194,3.30729 0.07276,4.7886 2.839748,10.26649 8.034069,15.90528 3.898861,4.23248 7.077378,6.41547 11.775112,8.08708 2.800205,0.99641 3.129203,1.04297 2.93528,0.41545 z m 150.689348,-4.36562 c 0.28763,-0.53981 0.27617,-0.56146 -0.12299,-0.23219 -0.2421,0.19972 -0.44019,0.46761 -0.44019,0.59531 0,0.40415 0.23512,0.25255 0.56318,-0.36312 z M 106.94377,113.15204 c 2.82561,-2.06 6.45205,-3.39159 10.19073,-3.74193 1.97792,-0.18535 2.01555,-0.20249 2.01555,-0.91827 0,-2.65916 -2.47447,-5.59919 -6.58178,-7.82012 -2.453,-1.326396 -2.75465,-2.737844 -0.59572,-2.787449 l 0.95979,-0.02205 -1.36459,-0.6458 c -0.90924,-0.430306 -2.05827,-0.699293 -3.44343,-0.80611 -5.03615,-0.38836 -10.038027,1.676768 -11.954343,4.935599 -0.609566,1.03661 -0.699837,1.48154 -0.697846,3.43958 0.0025,2.47949 0.27216,3.2155 1.925632,5.25624 1.189639,1.46827 3.181907,2.74449 5.360987,3.4342 2.33543,0.73918 2.77334,0.70529 4.18502,-0.32389 z M 86.606303,34.835549 c 0,-0.05497 0.60611,-1.811141 1.346912,-3.902604 1.339409,-3.781476 1.346135,-3.816662 1.207455,-6.316201 -0.225692,-4.06783 -1.640324,-8.671002 -3.238559,-10.538181 -0.867473,-1.013446 -1.049261,-1.103485 -2.227943,-1.103485 -1.374773,0 -1.845527,0.299025 -2.518002,1.599449 -1.243356,2.404384 -1.563572,7.946037 -0.662688,11.468458 0.705074,2.756812 2.150602,5.410151 3.984394,7.313557 1.282105,1.330775 2.108431,1.91042 2.108431,1.479007 z m 9.307186,-17.627138 c 3.152496,-4.350674 3.808155,-5.169457 5.870841,-7.3314802 1.21085,-1.2691579 2.02328,-2.3322223 1.94275,-2.5420883 -0.20427,-0.5323129 -4.104886,-2.4862928 -5.89296,-2.9520269 -4.157545,-1.082903 -9.146035,7.853e-4 -12.087713,2.6259078 -0.893335,0.7972024 -0.905945,0.9392715 -0.08337,0.9392715 0.961601,0 2.041752,0.4761347 2.889277,1.2736032 2.012012,1.8931809 4.080939,6.0331699 4.73311,9.4711069 0.288822,1.522535 0.370187,1.675741 0.663819,1.249943 0.184058,-0.266903 1.067969,-1.49731 1.964246,-2.734237 z"
       id="path15" /></g></svg>
