<?xml version="1.0" encoding="UTF-8" standalone="no"?>
<!-- Created with Inkscape (http://www.inkscape.org/) -->

<svg
   width="186.30135mm"
   height="210.19951mm"
   viewBox="0 0 186.30134 210.1995"
   version="1.1"
   id="svg1"
   xml:space="preserve"
   xmlns="http://www.w3.org/2000/svg"
   xmlns:svg="http://www.w3.org/2000/svg"><defs
     id="defs1"><clipPath
       clipPathUnits="userSpaceOnUse"
       id="clipPath3"><path
         id="path3"
         style="fill:#ff0000;fill-opacity:1;fill-rule:nonzero;stroke:none;stroke-width:0.264583"
         d="M -89.402812,17.953426 V 231.29958 H 127.50849 V 17.953426 Z M 57.309165,146.54868 c 0.779481,0.0172 1.734521,0.44275 2.742467,1.42885 1.453158,1.42166 2.550438,3.15263 3.545004,4.91236 0.576631,1.13939 1.15478,2.27834 1.723925,3.4215 2.234525,4.48814 -2.300936,6.74504 -4.534091,2.25619 -0.530973,-1.06731 -1.073954,-2.12816 -1.604552,-3.19567 -0.690115,-1.23606 -1.451359,-2.42398 -2.372466,-3.50366 -2.338813,-2.74145 -1.4923,-5.3635 0.499713,-5.31957 z" /></clipPath><clipPath
       clipPathUnits="userSpaceOnUse"
       id="clipPath13"><path
         id="path14"
         style="fill:#ff0000;fill-opacity:1;fill-rule:nonzero;stroke:none;stroke-width:0.264583"
         d="M 84.920345,6.4680598 V 221.74691 H 301.98358 V 6.4680598 Z M 147.30258,105.99945 c 1.81348,0.0318 2.9196,2.21177 1.01958,4.89789 -0.85979,1.21553 -1.91873,2.26478 -2.92799,3.35225 -3.41051,3.67492 -7.12464,0.22459 -3.71036,-3.44681 0.86277,-0.92776 1.77417,-1.81787 2.51715,-2.84893 1.00758,-1.39821 2.1517,-1.97106 3.10162,-1.9544 z m 142.06988,64.87718 c 1.17022,0.0187 2.44155,1.13328 2.84893,3.44785 0.10866,0.61736 0.30546,1.21757 0.55604,1.79111 2.00725,4.59429 -2.79832,6.58902 -4.67776,1.94096 -0.41348,-1.02257 -0.77141,-2.07335 -0.91208,-3.17293 -0.33799,-2.64197 0.85864,-4.02819 2.18487,-4.00699 z m -10.44018,21.22609 c 2.35821,0.0534 3.26597,2.914 0.21755,5.11545 -0.43935,0.31729 -0.87891,0.63459 -1.31826,0.95188 -2.32674,1.61168 -4.73063,3.09573 -7.16236,4.5434 -4.308,2.56465 -6.91121,-1.77429 -2.60552,-4.34289 2.33483,-1.39287 4.64814,-2.81121 6.88175,-4.36201 0.41258,-0.29833 0.82559,-0.59671 1.23817,-0.89504 1.01567,-0.73441 1.96259,-1.0286 2.74867,-1.01079 z" /></clipPath><clipPath
       clipPathUnits="userSpaceOnUse"
       id="clipPath40"><path
         id="path41"
         style="fill:#ff0000;fill-opacity:1;fill-rule:nonzero;stroke:none;stroke-width:0.264583"
         d="M 43.056883,-39.498228 V 187.12515 H 282.72804 V -39.498228 Z M 273.92599,87.760669 c 0.88754,1.99e-4 1.79287,0.629264 2.28719,1.936317 0.24016,0.180882 0.45469,0.438038 0.6527,0.730705 0.052,-0.0043 0.10406,-0.0093 0.15605,-0.0093 1.26159,-1.43e-4 2.48402,1.252596 2.41382,3.758428 -0.0619,2.207892 -0.31993,4.403196 -0.57724,6.594941 -0.25273,1.78069 -0.12443,0.91178 -0.3824,2.60604 -0.19706,1.29387 -0.68993,2.17644 -1.28831,2.71767 -0.39283,2.17631 -1.15512,4.26939 -1.98231,6.31331 -0.60381,1.41746 -0.29308,0.7255 -0.92861,2.07584 -1.39187,2.95734 -3.82876,3.06196 -4.76094,1.5229 -0.50342,2.47544 -2.50888,3.06942 -3.79669,1.8464 -1.49146,0.84977 -2.94685,1.76239 -4.36922,2.72335 -1.9317,1.35317 -3.74042,2.86998 -5.6007,4.31757 -1.05553,0.86438 -2.24864,1.52036 -3.4494,2.1549 -0.8513,0.45603 -1.78705,0.68203 -2.72905,0.85473 -4.93143,0.90411 -5.83128,-4.1535 -0.88728,-4.98626 0.42947,-0.0723 0.86543,-0.14579 1.25574,-0.34933 0.93914,-0.49276 1.87838,-0.99133 2.7001,-1.67121 1.95165,-1.51863 3.84847,-3.11062 5.88182,-4.52118 1.91146,-1.2835 3.87178,-2.49643 5.89627,-3.59306 -0.004,-0.48015 0.0742,-1.01198 0.28474,-1.60352 0.0928,-2.23942 0.22942,-4.47755 0.36174,-6.71432 0.0407,-0.71281 0.0814,-1.42556 0.12195,-2.13837 0.14263,-2.502725 1.47838,-3.682147 2.74248,-3.610109 0.0212,0.0013 0.04,0.0172 0.061,0.01913 0.20426,-1.107437 0.40529,-2.215327 0.601,-3.324344 0.40844,-2.314371 1.72151,-3.350609 2.91145,-3.28972 0.0164,7.93e-4 0.0302,0.01373 0.0465,0.01497 -0.007,-0.101274 -0.0119,-0.202628 -0.0206,-0.303858 -0.22985,-2.653554 1.06196,-4.072977 2.39829,-4.07262 z m -1.75802,16.091011 c -0.0122,0.0657 -0.0236,0.13141 -0.0367,0.19688 -0.51533,2.43146 -1.11845,4.86049 -2.02314,7.18044 0.0233,0.01 0.0472,0.0186 0.0698,0.0289 0.0796,-0.17984 0.11184,-0.23089 0.33745,-0.75964 0.68157,-1.66051 1.29307,-3.36039 1.66915,-5.11907 0.057,-0.26645 0.12579,-0.51525 0.2036,-0.74982 -0.0873,-0.24344 -0.17981,-0.48192 -0.22013,-0.77773 z" /></clipPath><clipPath
       clipPathUnits="userSpaceOnUse"
       id="clipPath70"><path
         id="path71"
         style="fill:#ff0000;fill-opacity:1;fill-rule:nonzero;stroke:none;stroke-width:0.264583"
         d="M 97.496414,-109.05345 V 118.09806 H 291.95741 V -109.05345 Z M 274.90367,19.673059 c 1.06417,-0.01434 2.29149,0.797169 3.05201,2.686659 0.24861,0.617649 0.54691,1.213072 0.81236,1.823143 0.10702,-2.113105 1.28882,-3.200416 2.48667,-3.16053 1.1871,0.03953 2.38709,1.183571 2.56573,3.526917 0.14012,1.838055 0.19263,3.681458 0.24443,5.523693 -0.0111,1.286968 0.002,0.663861 -0.0372,1.869136 -0.066,2.043319 -0.94796,3.224747 -1.95802,3.568777 -1.06917,1.011605 -3.06517,0.733586 -4.38784,-1.800924 -0.6596,-1.263909 -1.30021,-2.536105 -1.9141,-3.823025 -0.89112,-1.858502 -1.74429,-3.733628 -2.51406,-5.646166 -1.11147,-2.761552 0.0947,-4.546709 1.65003,-4.56768 z M 227.40786,35.16617 c 2.85391,0.0154 3.65785,3.328107 -0.009,5.105633 -0.10414,0.05049 -0.21477,0.08649 -0.31936,0.135909 0.0878,0.174847 0.17258,0.356817 0.25165,0.552421 0.29264,0.723889 0.67277,1.407311 1.02166,2.104781 0.49752,0.994704 0.62071,1.85483 0.55034,2.581754 0.79241,0.0935 1.70142,0.525706 2.61173,1.422136 0.85581,0.842748 1.70212,1.69264 2.50527,2.585889 0.74222,0.777118 1.45302,1.572567 2.07274,2.452047 0.27181,0.279689 0.49147,0.608986 0.72452,0.920872 0.4288,0.573923 0.68072,1.11592 0.84491,1.631942 0.40767,0.301072 0.81735,0.711295 1.21128,1.260906 0.72402,1.010161 1.46733,2.006714 2.15749,3.041674 0.67577,1.094039 1.39768,2.159738 2.14716,3.204456 0.57142,1.006359 1.2961,1.895922 2.01073,2.799313 0.72798,0.98825 1.67672,1.729827 2.62775,2.487186 0.72246,0.58328 1.49453,1.100072 2.2536,1.633493 0.30505,0.214349 0.4962,0.443799 0.72606,0.668692 1.203,-0.615995 2.41251,-1.219766 3.62304,-1.81901 3.30551,-1.685468 6.71158,-3.156911 10.08516,-4.697389 2.15108,-0.995508 4.31361,-1.965677 6.47972,-2.927985 1.57738,-0.77579 3.15939,-1.558142 4.66999,-2.459281 0.95943,-0.64081 2.0927,-1.035754 2.9869,-1.772502 0.2867,-0.27401 0.73166,-0.459364 0.8966,-0.842843 0.68091,-1.58322 1.73522,-2.216873 2.70525,-2.201932 1.85191,0.02852 3.39833,2.420787 1.46193,5.080826 -0.55834,0.76699 -1.20099,1.439079 -1.98335,1.983859 -1.09435,0.815578 -2.30629,1.431271 -3.48712,2.110981 -1.68534,0.991989 -3.43271,1.880634 -5.19399,2.729031 -2.15025,0.95527 -4.2974,1.918452 -6.43268,2.9068 -3.32568,1.51847 -6.6831,2.967985 -9.94152,4.629692 -2.50759,1.240819 -5.01576,2.489092 -7.44916,3.871082 -4.16816,2.36719 -6.78702,-1.430255 -3.21221,-3.954796 -0.45171,-0.320995 -0.91272,-0.629322 -1.34411,-0.97772 -1.2521,-0.998236 -2.47592,-2.021832 -3.44629,-3.308842 -0.76168,-0.9657 -1.54199,-1.916501 -2.15336,-2.989482 -0.78265,-1.09392 -1.54215,-2.206265 -2.24845,-3.351215 -0.58542,-0.88532 -1.23027,-1.72728 -1.82985,-2.60191 -0.43447,-0.633714 -0.70557,-1.242417 -0.85525,-1.808673 -0.4626,-0.305372 -0.92538,-0.70317 -1.36788,-1.296046 -0.26933,-0.360899 -0.53185,-0.727146 -0.8294,-1.066085 -0.48074,-0.718559 -1.10259,-1.311934 -1.67794,-1.952853 -0.74155,-0.826828 -1.52895,-1.608291 -2.31871,-2.389002 -1.06444,-1.052203 -1.49098,-2.108129 -1.47279,-2.979145 -0.91381,-0.171199 -1.89788,-0.859004 -2.63807,-2.341459 -0.4875,-0.976337 -1.02824,-1.933874 -1.36167,-2.978113 -8e-4,-0.0024 -0.001,-0.0044 -0.002,-0.0067 -4.50863,1.671101 -6.30092,-2.894253 -1.71566,-4.742862 1.47347,-0.594051 2.9578,-1.171766 4.39043,-1.859836 0.84739,-0.407001 1.61517,-0.579226 2.27376,-0.575675 z" /></clipPath><clipPath
       clipPathUnits="userSpaceOnUse"
       id="clipPath74"><path
         id="path74"
         style="fill:#ff0000;fill-opacity:1;fill-rule:nonzero;stroke:none;stroke-width:0.264583"
         d="M -29.884086,-77.633731 V 138.92773 H 157.38304 V -77.633731 Z m 105.14707,29.170828 c 1.817156,-0.06325 3.051006,2.061409 1.285709,4.837949 -1.692966,2.66278 -3.351602,5.349526 -4.900991,8.098732 -2.461575,4.367755 -6.9038,1.944838 -4.446241,-2.425176 1.602227,-2.849065 3.320079,-5.631815 5.073076,-8.390187 0.924398,-1.454554 2.036601,-2.088186 2.988447,-2.121318 z" /></clipPath><clipPath
       clipPathUnits="userSpaceOnUse"
       id="clipPath96"><path
         id="path97"
         style="fill:#ff0000;fill-opacity:1;fill-rule:nonzero;stroke:none;stroke-width:0.264583"
         d="M 42.322036,-124.12301 V 99.614237 H 302.68444 V -124.12301 Z m 40.332938,11.40344 c 1.193781,0.0282 2.451047,1.15727 2.734717,3.49022 0.07968,0.65528 0.169799,1.30914 0.250632,1.96423 0.465238,-0.51114 1.040945,-0.76947 1.612821,-0.76947 1.26647,10e-6 2.508594,1.25365 2.458765,3.75998 -0.05494,2.76352 0.14506,5.519841 0.415478,8.267712 0.43861,3.960389 1.042519,7.900075 1.82056,11.80755 0.266695,1.604756 0.705324,3.16135 1.218531,4.701003 1.470165,4.410607 -2.564016,6.102006 -4.413684,2.529562 0.07623,0.718762 0.2026,1.433126 0.235643,2.155425 0.22914,5.008394 -4.765132,5.004668 -5.064807,0 -0.225862,-3.772082 -1.059405,-7.500146 -1.754931,-11.209652 -0.884889,-4.48015 -1.336728,-9.020352 -1.674315,-13.568681 -0.09578,-1.290369 0.179064,-2.258929 0.632002,-2.920239 -0.265684,-2.0703 -0.525637,-4.14115 -0.776179,-6.21357 -0.319675,-2.64425 0.95182,-4.02605 2.304767,-3.99407 z M 238.17726,73.473197 c 0.73503,0.0089 1.59857,0.257659 2.53163,0.834059 1.55674,0.961655 2.93809,2.17945 4.36925,3.31401 1.88795,1.432734 3.69489,2.965942 5.54643,4.44469 1.45633,1.008327 2.8257,2.135084 4.2571,3.176032 1.01821,0.73062 2.04804,1.443948 3.0732,2.164726 0.10589,0.06838 0.21192,0.136755 0.31781,0.205155 1.02093,0.659212 1.62545,1.404456 1.90221,2.117701 2.66507,1.244738 1.89629,4.674838 -2.23656,4.619355 -1.03226,-0.01378 -2.06465,-0.02868 -3.09645,-0.06408 -1.75306,-0.06623 -3.50834,-0.153231 -5.24671,-0.40204 -1.60006,-0.26435 -3.18097,-0.633878 -4.70875,-1.18546 -1.40758,-0.528601 -2.82247,-1.053193 -4.17598,-1.709973 -1.14752,-0.6418 -2.26375,-1.322938 -3.21685,-2.241206 -0.91708,-0.777378 -1.79807,-1.593477 -2.7001,-2.387968 -2.7042,-2.3818 -1.7688,-5.030621 0.37311,-5.107181 0.31321,-0.01119 0.65255,0.03241 1.00975,0.140044 0.3858,-0.577905 1.07851,-0.980543 2.0805,-0.968417 0.56408,0.0068 1.21524,0.13857 1.942,0.43098 0.58877,0.236889 1.17105,0.489267 1.74976,0.749308 -0.006,-0.0043 -0.0109,-0.0091 -0.0165,-0.01344 -1.32206,-1.048356 -2.59343,-2.18132 -4.0323,-3.068545 -3.33405,-2.055786 -2.34759,-5.079635 0.2775,-5.047755 z" /></clipPath><clipPath
       clipPathUnits="userSpaceOnUse"
       id="clipPath100"><path
         id="path100"
         style="fill:#ff0000;fill-opacity:1;fill-rule:nonzero;stroke:none;stroke-width:0.264583"
         d="M 72.0146,-199.68615 V 40.57722 h 244.16494 v -240.26337 z m 145.09244,146.980174 c 1.28766,0.0132 2.57513,0.02606 3.86281,0.03927 5.01334,0.05157 4.95959,5.11969 -0.0538,5.064289 l -3.69279,-0.04082 c -5.45363,0.124939 -10.93185,0.221541 -16.35094,0.890902 -4.97584,0.614598 -5.69076,-4.388588 -0.71624,-5.013648 5.61733,-0.705821 11.29667,-0.809606 16.95091,-0.939996 z" /></clipPath><clipPath
       clipPathUnits="userSpaceOnUse"
       id="clipPath159"><path
         id="path160"
         style="fill:#ff0000;fill-opacity:1;fill-rule:nonzero;stroke:none;stroke-width:0.264583"
         d="M 30.821436,-185.61106 V 16.295995 H 207.19362 V -185.61106 Z m 46.190461,47.71285 c 2.837706,0.0314 3.593002,3.37799 -0.08165,5.13612 -0.869119,0.41583 -0.437216,0.21235 -1.295527,0.6103 -1.617451,0.78247 -3.284305,1.46172 -4.858102,2.33422 -1.78626,0.99179 -3.486946,2.11988 -5.137155,3.32487 -1.50717,1.09406 -2.970805,2.24513 -4.402831,3.43596 -3.854913,3.20561 -6.957175,-0.78416 -3.10937,-3.9982 1.471078,-1.22884 2.984008,-2.40497 4.533056,-3.53364 1.813761,-1.32772 3.690713,-2.55979 5.6534,-3.65456 1.650113,-0.93014 3.409714,-1.63523 5.108734,-2.46445 0.919972,-0.42758 0.479388,-0.21958 1.32085,-0.6227 0.847759,-0.40616 1.61376,-0.57516 2.268593,-0.56792 z m 99.497803,69.085706 c 0.38779,0.0071 0.8114,0.05759 1.27021,0.159681 1.43791,0.319921 2.71139,0.978686 3.9119,1.770949 0.18473,-0.02064 0.32807,-0.07502 0.53175,-0.07906 0.1467,-0.0029 0.29821,-0.0011 0.45476,0.0052 1.85974,0.07548 3.52642,0.788289 5.12165,1.68982 1.71367,0.992722 3.22309,2.242897 4.60592,3.650938 1.18407,1.30764 2.33495,2.651112 3.33054,4.108794 0.69305,1.015418 1.25911,2.111213 1.73788,3.241664 0.32187,0.758701 0.47009,1.560896 0.56999,2.372979 0.61203,4.97612 -5.13456,5.519629 -5.03897,0.506947 0.006,-0.317849 -0.10685,-0.630872 -0.20515,-0.929142 -0.30454,-0.748684 -0.69228,-1.462744 -1.13068,-2.141988 -0.82245,1.138497 -2.784,1.276784 -4.66173,-0.736906 -0.85755,-0.919658 -0.41314,-0.45397 -1.33429,-1.395781 -1.63578,-1.664964 -3.27898,-3.326087 -5.06791,-4.829161 -1.18148,-0.913451 -2.34754,-1.870726 -3.81888,-2.268596 -4.38609,-1.186027 -4.02559,-5.195472 -0.27699,-5.126302 z m -120.257775,19.36936 c 1.284633,-0.0013 2.654148,1.247878 2.786392,3.751191 0.01437,0.272023 -0.03894,0.535093 -0.05529,0.803052 0.809611,-2.64e-4 1.619342,-0.0024 2.428793,-5.29e-4 0.927761,0.0024 1.855115,0.0097 2.782776,0.03255 2.533462,0.06904 5.064683,0.219826 7.5892,0.441835 1.846921,0.179401 3.697769,0.315463 5.538679,0.550355 1.346716,0.277415 2.69096,0.597119 3.988387,1.055748 0.996246,0.308729 1.902624,0.812464 2.794146,1.342554 1.079777,0.61309 1.837938,1.499344 2.398818,2.593123 0.23423,0.499078 0.357947,1.032209 0.47594,1.566831 1.080532,4.895818 -4.058824,5.974442 -4.956286,1.041797 -0.02548,-0.140052 -0.05103,-0.279937 -0.08578,-0.418063 -0.0048,-0.03728 0.07923,-0.07819 0.04961,-0.101288 -0.150979,-0.117737 -0.324119,-0.205197 -0.47077,-0.329178 -0.621718,-0.369719 -1.223838,-0.739926 -1.929082,-0.933276 -0.940615,-0.355388 -1.937245,-0.537549 -2.907316,-0.794268 -1.775563,-0.227545 -3.561072,-0.353428 -5.342311,-0.529164 -2.418334,-0.215411 -4.843883,-0.355548 -7.270874,-0.423749 -1.81261,-0.047 -3.625818,-0.02749 -5.438944,-0.03049 -0.339064,-5.29e-4 -0.652992,-0.02617 -0.946195,-0.06976 -1.015961,1.578727 -2.6026,1.744401 -3.56464,0.77773 -0.989128,-0.389732 -1.820216,-1.589384 -1.819011,-3.604432 7.67e-4,-1.302944 0.09755,-2.602408 0.732255,-3.773411 0.413436,-0.762773 0.895033,-1.321295 1.395264,-1.704808 0.4334,-0.798669 1.100278,-1.243661 1.826245,-1.244368 z m 143.346285,5.984131 c 3.45873,0.120142 3.88138,4.037716 -0.38964,5.102014 -0.84144,0.209679 -1.68495,0.414954 -2.5094,0.686263 -1.32936,0.429299 -2.64735,0.892577 -3.98219,1.303795 -4.79143,1.47606 -6.17554,-3.3708 -1.39113,-4.869469 1.2777,-0.40023 2.54201,-0.841782 3.81631,-1.25367 0.93411,-0.30672 1.88843,-0.543758 2.84168,-0.781349 0.45607,-0.11367 0.88014,-0.172997 1.27021,-0.187068 0.11783,-0.0043 0.23259,-0.0044 0.34416,-5.29e-4 z M 87.307393,-20.34156 c 3.118191,0.06737 3.726587,3.682233 -0.250114,5.124749 -2.106369,0.76409 -4.222763,1.500608 -6.315376,2.302187 -3.226695,1.268698 -6.528729,2.512997 -9.376172,4.5335721 -0.358553,0.2544366 -0.708247,0.4537075 -1.046964,0.6082321 0.143732,0.1547495 0.283167,0.314288 0.426847,0.4687068 0.333756,0.3416061 0.667218,0.6836304 1.000974,1.0252604 3.503623,3.586218 -0.123994,7.12691983 -3.624069,3.5372516 l -1.085723,-1.1136286 c -1.582621,-1.7030356 -3.174892,-3.4192686 -4.491199,-5.341792 -1.858762,-2.7148344 -0.694386,-4.8501484 1.133782,-4.8332974 0.957617,0.0088 2.097553,0.607952 3.080432,2.02365 0.140648,0.202581 0.310203,0.383135 0.457335,0.580842 0.274566,-0.322381 0.615858,-0.642942 1.039215,-0.952912 3.210528,-2.350678 6.955705,-3.799703 10.629842,-5.248259 2.134671,-0.819717 4.294182,-1.571012 6.443535,-2.35076 0.736404,-0.26716 1.400212,-0.376282 1.977655,-0.363802 z m -34.10076,10.9088926 c 0.07749,-0.00288 0.156518,-0.00267 0.237195,5.291e-4 0.429365,0.016537 0.912278,0.1550564 1.417484,0.3632835 0.15622,-0.035608 0.32137,-0.058391 0.496611,-0.063561 0.767124,-0.022622 1.707568,0.260596 2.740917,0.9699678 1.307081,0.8972523 2.261317,2.1864822 3.146062,3.4788554 0.690804,1.0654506 1.22178,2.2165839 1.975073,3.2416644 0.362087,0.54023156 0.756626,1.04913115 1.210778,1.5136019 3.04909,3.1183765 0.655196,6.2115885 -2.2996,4.5785326 C 61.387166,4.9422906 60.389155,4.9952416 59.15924,4.6145486 58.153842,4.3033404 57.163618,3.9515556 56.207483,3.5081563 54.732172,2.8612765 53.30078,2.1196494 51.94056,1.2540307 c -3.304491,-2.10291895 -2.536003,-5.2498096 -0.01705,-5.254461 0.705296,-0.00132 1.548059,0.2436019 2.476851,0.8268229 0.08329,0.0523 0.168483,0.1013619 0.252181,0.1529636 -0.474232,-0.4717018 -0.975748,-0.914064 -1.533757,-1.2898438 -3.147328,-2.1195056 -2.314381,-5.0326025 0.08785,-5.1221693 z" /></clipPath><clipPath
       clipPathUnits="userSpaceOnUse"
       id="clipPath170"><path
         id="path171"
         style="fill:#ff0000;fill-opacity:1;fill-rule:nonzero;stroke:none;stroke-width:0.264583"
         d="M 38.805445,-199.54148 V -9.4026928 H 190.89435 V -199.54148 Z m 94.478985,107.045666 c 0.43489,0.0064 -0.002,0.7263 -0.44752,1.611273 0.55395,-0.36581 1.3016,-0.639879 2.25465,-0.749826 1.26713,-0.146188 0.61821,-0.0715 1.94665,-0.225309 1.75473,-0.191775 3.51671,-0.400576 5.28288,-0.419097 5.01338,-0.05258 5.013,4.983779 0,5.064807 -1.58106,0.02556 -3.15925,0.215522 -4.73046,0.388607 -0.20498,0.02376 -0.17931,0.02082 -0.30282,0.03514 -0.0401,0.02257 -0.0636,0.04908 -0.10491,0.07132 -1.08467,0.583679 -1.99481,1.400532 -2.90473,2.216402 -0.54635,0.53268 -0.25881,0.255997 -0.86455,0.828889 -2.39335,2.263619 -4.67328,1.430525 -4.95163,-0.37052 -1.03493,-0.731499 -1.36758,-2.476606 0.0501,-4.520136 0.93431,-1.346727 1.99341,-2.63719 3.46853,-3.415298 0.69289,-0.36549 1.09678,-0.519308 1.30379,-0.516247 z" /></clipPath></defs><g
     id="layer1"
     transform="translate(77.621676,172.50242)"><path
       style="fill:#000000"
       d="m -42.16241,37.292672 c -0.921776,-0.200076 -2.181891,-0.660272 -2.800256,-1.022658 -0.618364,-0.362385 -1.572394,-1.15487 -2.120065,-1.761077 -0.547672,-0.606207 -1.174316,-1.529524 -1.392544,-2.051817 -0.218228,-0.522292 -0.40171,-1.737558 -0.407739,-2.700591 -0.009,-1.43101 0.140826,-2.069012 0.819692,-3.491447 0.456859,-0.957262 1.187692,-2.122689 1.624073,-2.589836 0.436381,-0.467148 0.79342,-0.892202 0.79342,-0.944565 0,-0.05236 -0.640605,-1.081569 -1.423566,-2.287124 -0.782962,-1.205554 -1.899116,-3.144416 -2.480341,-4.308583 -0.581226,-1.164167 -1.483746,-3.259813 -2.005601,-4.656991 -0.521855,-1.397179 -1.307116,-3.9570224 -1.745025,-5.6885416 -0.43791,-1.7315191 -0.995044,-4.3983728 -1.238076,-5.92634164 -0.32019,-2.01307096 -0.444822,-4.52681896 -0.452571,-9.12812396 -0.008,-4.7792998 0.101392,-7.0371808 0.442445,-9.1281248 0.249226,-1.527969 0.521255,-3.256721 0.604507,-3.841673 l 0.151369,-1.063548 -2.739591,-2.106424 c -1.506775,-1.158533 -3.641228,-3.001655 -4.743228,-4.095827 -1.102001,-1.094171 -2.716639,-2.941902 -3.588085,-4.106069 -0.871445,-1.164166 -2.137171,-3.01076 -2.812724,-4.10354 -0.675553,-1.092781 -1.939156,-3.474031 -2.808007,-5.291667 -0.868851,-1.817635 -2.113649,-4.912136 -2.766219,-6.876667 -0.652569,-1.964531 -1.506271,-4.881562 -1.897114,-6.482291 -0.390843,-1.600729 -0.935705,-4.21893 -1.210806,-5.818225 -0.2751,-1.599294 -0.693967,-4.933044 -0.930814,-7.408333 -0.314546,-3.287308 -0.392639,-5.998336 -0.289691,-10.056774 0.08807,-3.472062 0.346926,-6.995332 0.690079,-9.392708 0.302026,-2.110056 0.795541,-5.083436 1.0967,-6.607526 0.301159,-1.52409 0.901729,-4.08394 1.334599,-5.688539 0.432871,-1.60461 1.259576,-4.36926 1.837122,-6.14367 0.577547,-1.77441 1.692944,-4.81051 2.478662,-6.74688 0.785717,-1.93637 2.015587,-4.77083 2.733044,-6.2988 0.717457,-1.52797 2.169101,-4.32594 3.225876,-6.21771 1.056775,-1.89177 2.811194,-4.79635 3.898711,-6.45463 1.087516,-1.65828 2.884923,-4.21353 3.994239,-5.67835 1.109316,-1.46481 3.049877,-3.85851 4.312359,-5.31932 1.262482,-1.46082 3.33673,-3.65449 4.60944,-4.87482 l 2.314019,-2.2188 0.68013,0.89588 c 0.374071,0.49273 2.029622,2.27392 3.679002,3.9582 2.975578,3.03853 2.994694,3.0661 2.460826,3.54924 -0.524644,0.4748 -0.556105,0.47105 -1.26288,-0.15049 -0.398657,-0.35058 -1.072706,-0.97195 -1.497886,-1.38081 l -0.773055,-0.74339 -1.962361,1.9326 c -1.079299,1.06294 -2.913823,3.0637 -4.07672,4.44615 -1.162896,1.38245 -3.116881,3.84042 -4.342187,5.46216 -1.225307,1.62174 -2.22783,3.03965 -2.22783,3.15091 0,0.11126 7.41164,0.12556 16.470312,0.0318 10.781756,-0.11162 18.115195,-0.30632 21.232806,-0.56373 2.61938,-0.21628 6.8460995,-0.57406 9.3927095,-0.79506 2.54662,-0.22101 6.47568,-0.5804 8.73125,-0.79864 2.25558,-0.21824 6.06557,-0.64482 8.46667,-0.94795 2.4010905,-0.30312 5.3776505,-0.7635 6.6145805,-1.02305 1.23693,-0.25954 4.0349,-0.92797 6.21771,-1.48539 2.18281,-0.55741 3.99382,-1.02617 4.02446,-1.04168 0.0306,-0.0155 -0.28649,-1.09454 -0.70472,-2.39784 -0.41823,-1.3033 -0.84378,-2.81757 -0.94565,-3.36504 l -0.18523,-0.9954 2.2918,-1.05882 c 1.26049,-0.58234 6.18534,-2.37232 10.94411,-3.97773 4.75877,-1.60541 11.41942,-3.74687 14.80143,-4.75881 3.38202,-1.01194 6.32882,-1.83988 6.54844,-1.83988 0.21962,0 0.39932,-0.0978 0.39932,-0.2174 0,-0.11957 -0.86321,-0.71001 -1.91823,-1.31209 -1.05503,-0.60208 -2.74326,-1.46763 -3.75164,-1.92343 -1.00837,-0.4558 -2.79431,-1.18562 -3.96875,-1.62181 -1.17444,-0.4362 -2.84972,-1.01095 -3.72284,-1.27723 -0.87313,-0.26628 -2.7186,-0.78592 -4.10104,-1.15477 -1.38245,-0.36884 -4.00183,-0.96839 -5.82084,-1.33234 -1.81901,-0.36394 -4.79557,-0.87279 -6.61458,-1.13077 -2.61842,-0.37135 -5.1259,-0.47031 -12.03854,-0.47513 -6.9931,-0.005 -9.4159705,0.0889 -12.1708305,0.47123 -1.89177,0.26252 -5.32584,0.83332 -7.63126,1.26844 -2.30541,0.43513 -5.75823,1.20815 -7.67291,1.71784 -1.9146895,0.50968 -4.7331695,1.38731 -6.2632995,1.95028 -1.53013,0.56296 -4.149501,1.62071 -5.820832,2.35055 -1.67133,0.72984 -4.110345,1.89141 -5.420033,2.58127 -1.309687,0.68986 -2.840161,1.5409 -3.401052,1.8912 -0.994312,0.62099 -1.007539,0.6493 -0.529167,1.13262 0.26985,0.27264 0.609699,0.65632 0.75522,0.85262 0.14552,0.1963 0.419727,0.6485 0.609348,1.00489 0.288535,0.5423 0.231668,0.51853 -0.34868,-0.14577 -0.381394,-0.43656 -1.489038,-1.73876 -2.461431,-2.89378 -0.972393,-1.15502 -2.214472,-2.59708 -2.760175,-3.20459 -0.545703,-0.6075 -0.992187,-1.16877 -0.992187,-1.24727 0,-0.0785 0.446484,-0.41806 0.992187,-0.75459 0.545703,-0.33653 1.468438,-0.89672 2.050521,-1.24487 0.582083,-0.34815 2.546615,-1.38446 4.365625,-2.30291 1.81901,-0.91844 4.557448,-2.19999 6.085416,-2.84787 1.527969,-0.64788 4.429676,-1.72935 6.44824,-2.40328 2.01856,-0.67392 5.36562,-1.64331 7.4378995,-2.15419 2.07229,-0.51088 5.54042,-1.218 7.70697,-1.57138 2.16655,-0.35337 5.3084,-0.79565 6.98189,-0.98283 1.80234,-0.2016 6.2784505,-0.34116 10.9802105,-0.34234 4.70497,-0.001 9.28438,0.13928 11.24479,0.34492 1.81901,0.19081 5.39088,0.69085 7.9375,1.11119 2.54661,0.42034 6.41586,1.25521 8.59832,1.85526 2.18247,0.60005 5.57575,1.6789 7.54063,2.39745 1.96488,0.71856 5.4775,2.24874 7.80584,3.40042 2.32833,1.15168 5.58362,2.9954 7.23397,4.09715 1.65036,1.10176 3.90903,2.68633 5.01928,3.52127 1.11024,0.83494 2.97464,2.40333 4.1431,3.48529 1.16847,1.08197 2.58529,2.45119 3.1485,3.04271 0.56321,0.59152 1.93434,2.08753 3.04696,3.32445 1.11261,1.23693 2.80754,3.26099 3.76649,4.49792 0.95896,1.23693 2.51855,3.38005 3.46574,4.7625 0.9472,1.38245 2.47338,3.7637 3.3915,5.29166 0.91812,1.52797 2.58904,4.6236 3.71314,6.87917 1.12411,2.25557 2.81752,6.06557 3.76314,8.46667 0.94562,2.40109 2.2596,6.0325 2.91995,8.06979 0.66035,2.03729 1.61504,5.31151 2.12153,7.27604 0.5065,1.964529 1.16674,4.941089 1.46721,6.614579 0.30046,1.67349 0.74236,4.65005 0.982,6.614586 0.29308,2.402653 0.43772,5.693795 0.44187,10.054166 0.004,4.302792 -0.1431,7.861158 -0.43781,10.583333 -0.2442,2.255572 -0.68472,5.47026 -0.97893,7.143749 -0.29422,1.67349 -0.8349,4.227801 -1.20153,5.676247 -0.36663,1.448446 -1.02602,3.770165 -1.46531,5.159375 -0.43929,1.38921 -1.4929,3.964442 -2.34136,5.722739 -0.84846,1.758297 -2.49915,4.627841 -3.66821,6.376766 -1.17644,1.759985 -3.24103,4.353029 -4.62372,5.807206 -1.37399,1.445038 -3.36398,3.337993 -4.4222,4.206566 -1.05823,0.868574 -2.28147,1.888128 -2.71833,2.265677 l -0.79429,0.686453 0.42577,2.223964 c 0.23417,1.22318 0.5698,3.355057 0.74584,4.737505 0.17603,1.382448 0.32243,4.775729 0.32532,7.5406248 0.003,2.764895 -0.14438,6.217708 -0.32726,7.672916 -0.18288,1.45520796 -0.5539,3.7173956 -0.82449,5.027083 -0.2706,1.3096874 -0.84094,3.5718748 -1.26743,5.0270831 -0.42649,1.4552082 -1.15562,3.5983331 -1.62029,4.7625001 -0.46467,1.164166 -1.33035,3.009635 -1.92373,4.101041 -0.59339,1.091406 -1.61757,2.74243 -2.27596,3.668941 -0.81569,1.147861 -1.11943,1.788809 -0.95336,2.011757 0.13405,0.179956 0.68726,0.910182 1.22935,1.622726 0.54209,0.712544 1.1861,1.889285 1.43114,2.61498 0.24504,0.725695 0.43914,1.997208 0.43134,2.825584 -0.01,1.023641 -0.21104,1.900307 -0.62869,2.736555 -0.33797,0.67673 -1.08009,1.651054 -1.64915,2.165165 -0.56906,0.514111 -1.5559,1.165319 -2.19298,1.44713 -0.63708,0.281811 -2.06111,0.685115 -3.16452,0.896231 -1.1034,0.211116 -2.85891,0.383202 -3.90114,0.382413 -1.04222,-7.88e-4 -3.52393,-0.240591 -5.51489,-0.532894 -1.99097,-0.292303 -5.06062,-0.824878 -6.82146,-1.183499 l -3.20152,-0.652039 -4.82021,0.533992 c -2.65111,0.293695 -6.84427,0.706782 -9.31812,0.91797 C 37.7376,36.991809 30.2962,37.303395 23.675,37.473034 14.50647,37.707937 9.7125995,37.707904 3.5666695,37.472896 -0.8717205,37.303181 -6.6462505,36.9772 -9.2656205,36.748494 -11.885,36.519787 -15.81406,36.121374 -17.996872,35.863133 l -3.968749,-0.469531 -3.836459,0.739665 c -2.110052,0.406816 -5.101894,0.925424 -6.648539,1.152462 -1.546644,0.227038 -3.987425,0.40333 -5.423958,0.391762 -1.436532,-0.01157 -3.366057,-0.184733 -4.287833,-0.384809 z m 9.718632,-6.200682 c 1.513055,-0.2899 2.811153,-0.587235 2.884662,-0.660744 0.07351,-0.07351 -0.211495,-0.403211 -0.633343,-0.732671 -0.421848,-0.32946 -1.11822,-0.910942 -1.547492,-1.292183 l -0.780496,-0.693165 2.499288,0.352233 c 1.374608,0.193728 4.642413,0.58894 7.261788,0.87825 2.619374,0.289309 7.739061,0.769348 11.377081,1.066752 3.6380195,0.297405 7.2694295,0.598579 8.0697895,0.669276 0.80037,0.0707 5.56287,0.256768 10.58334,0.413489 6.5408505,0.204183 11.3404205,0.203619 16.9333305,-0.002 4.29286,-0.157816 9.71021,-0.406571 12.03854,-0.552789 2.32833,-0.146218 5.42396,-0.375529 6.87917,-0.509578 1.4552,-0.13405 5.17143,-0.488979 8.25827,-0.78873 3.08684,-0.299751 7.31052,-0.774549 9.38595,-1.055105 2.07543,-0.280557 3.83143,-0.452185 3.90222,-0.381395 0.0708,0.07079 -0.22383,0.4146 -0.6547,0.764022 -0.43088,0.349422 -1.17037,0.847479 -1.64331,1.106792 -0.47294,0.259313 -0.85989,0.543017 -0.85989,0.630452 0,0.08744 0.60383,0.298357 1.34185,0.468712 0.73802,0.170356 2.79185,0.499302 4.56406,0.730992 1.77222,0.23169 4.01714,0.377249 4.98871,0.323466 1.25435,-0.06944 1.92556,-0.24173 2.31511,-0.594266 0.36507,-0.330389 0.5486,-0.821039 0.5486,-1.46667 0,-0.64823 -0.24146,-1.290209 -0.72761,-1.934514 -0.40018,-0.530376 -1.42653,-1.504086 -2.28079,-2.163799 -0.85425,-0.659714 -1.6271,-1.199479 -1.71745,-1.199479 -0.0903,0 -1.00599,0.415909 -2.03478,0.924243 -1.02879,0.508334 -2.42883,1.000767 -3.1112,1.094297 -0.78612,0.10775 -1.24067,0.07003 -1.24067,-0.102956 0,-0.150154 1.12623,-1.071337 2.50274,-2.047072 1.37651,-0.975734 3.43271,-2.744298 4.56934,-3.930142 1.13662,-1.185843 2.67045,-3.060612 3.4085,-4.166154 0.73805,-1.105541 1.88911,-3.308197 2.55791,-4.894791 0.6688,-1.5865939 1.52665,-3.9562786 1.90635,-5.265966 0.37969,-1.3096874 0.92479,-3.7504686 1.21134,-5.42395824 0.29318,-1.71226596 0.59272,-5.06729396 0.68504,-7.67291596 0.10112,-2.854316 0.0442,-5.8987028 -0.14847,-7.9374998 -0.17188,-1.81901 -0.50272,-4.497916 -0.73519,-5.953124 -0.23247,-1.455209 -0.45341,-2.683645 -0.49098,-2.72986 -0.0376,-0.04621 -1.3005,0.451008 -2.80651,1.104939 -1.50601,0.65393 -3.72715,1.440125 -4.93587,1.7471 -1.20872,0.306974 -3.17326,0.623045 -4.36563,0.702379 l -2.16795,0.144243 5.55625,-2.78584 c 3.05594,-1.532212 5.98789,-3.05988 6.51544,-3.394817 l 0.95918,-0.608977 -1.82988,-3.042709 c -1.00644,-1.673489 -2.96008,-5.330936 -4.34144,-8.127659 -1.38135,-2.796723 -2.68754,-5.58375 -2.90263,-6.193392 -0.34569,-0.97978 -0.3453,-1.178319 0.003,-1.710452 0.21695,-0.331106 0.78385,-0.894026 1.25979,-1.250933 0.47594,-0.356907 2.05597,-1.333352 3.51117,-2.169878 1.45521,-0.836525 4.91806,-2.695563 7.69522,-4.131195 2.77716,-1.435631 5.28393,-2.610239 5.5706,-2.610239 0.28666,0 1.07595,0.351809 1.75398,0.781798 1.09391,0.693742 1.39591,1.118408 2.68125,3.770313 0.79667,1.643682 1.81601,4.060076 2.2652,5.369763 0.44919,1.309688 0.88327,2.559844 0.96462,2.778125 0.0997,0.267405 0.35739,-0.0117 0.79003,-0.855559 0.35317,-0.688838 1.16461,-2.604286 1.80319,-4.25655 0.63859,-1.652264 1.58773,-4.90134 2.1092,-7.220168 0.52147,-2.318828 1.1266,-5.225412 1.34473,-6.459074 0.21814,-1.233663 0.3988,-2.318806 0.40148,-2.41143 0.003,-0.09262 -0.32254,-0.229896 -0.72273,-0.305049 -0.40018,-0.07515 -2.87073,-0.567964 -5.4901,-1.095136 -2.61938,-0.527173 -6.39049,-1.253619 -8.38025,-1.614325 -1.98976,-0.360705 -6.4546,-1.125621 -9.92187,-1.699811 -3.46727,-0.57419 -8.40809,-1.347582 -10.97961,-1.718648 -2.57151,-0.371066 -4.75363,-0.674665 -4.84916,-0.674665 -0.0955,0 0.37786,0.625078 1.05197,1.389062 0.67412,0.763985 1.63867,2.240859 2.14346,3.281943 0.65108,1.34281 1.00193,2.544706 1.20734,4.135915 0.23938,1.854468 0.21619,2.603667 -0.13389,4.324827 -0.23289,1.144987 -0.81249,2.85357 -1.288,3.796853 -0.49712,0.986144 -1.53927,2.394265 -2.45207,3.313161 -0.92781,0.934003 -2.22677,1.904869 -3.12585,2.336313 -0.84609,0.406015 -2.38858,0.900216 -3.42776,1.098223 -1.03918,0.198007 -2.54943,0.305474 -3.35611,0.238815 -0.80667,-0.06666 -2.01363,-0.283623 -2.68212,-0.482144 -0.6685,-0.198522 -1.74021,-0.628604 -2.3816,-0.955739 -0.64138,-0.327134 -1.95061,-1.380917 -2.9094,-2.341739 -1.14898,-1.151421 -2.02496,-2.338926 -2.56962,-3.483477 -0.4545,-0.955091 -0.96191,-2.610124 -1.12758,-3.677851 -0.17208,-1.109096 -0.22281,-2.689863 -0.11834,-3.68743 0.10058,-0.960359 0.41815,-2.450609 0.70572,-3.311667 0.28757,-0.861058 0.86449,-2.051683 1.28203,-2.645833 0.41755,-0.594151 1.21326,-1.584618 1.76824,-2.201038 0.55498,-0.61642 1.68375,-1.519478 2.50838,-2.006796 l 1.49932,-0.886033 -4.01286,-0.575207 c -2.20708,-0.316363 -5.50115,-0.750321 -7.32016,-0.964351 -1.81901,-0.214029 -5.39088,-0.634156 -7.9375,-0.933617 -2.54661,-0.29946 -8.02349,-0.836395 -12.17083,-1.193189 -4.14735,-0.356795 -8.3680105,-0.65 -9.3792605,-0.651567 -1.12268,-0.0017 -2.77112,0.247616 -4.23334,0.640371 -1.31708,0.353771 -3.88297,1.01095 -5.70198,1.460396 -1.81901,0.449446 -5.03964,1.320856 -7.1569495,1.936466 l -3.84966,1.119291 1.46841,1.356607 c 0.80762,0.746133 1.91871,2.115352 2.46908,3.042708 0.5503695,0.927356 1.2500795,2.501289 1.5548995,3.49763 0.45943,1.501695 0.53329,2.282243 0.43182,4.563699 -0.11455,2.575495 -0.19224,2.892321 -1.21032,4.935347 -0.60247,1.208987 -1.6422295,2.757257 -2.3301295,3.469704 -0.68321,0.707591 -1.79077,1.634597 -2.46124,2.060012 -0.67047,0.425416 -1.97853,1.008206 -2.90681,1.29509 -1.133997,0.350464 -2.479575,0.525977 -4.101038,0.534928 -1.781801,0.0098 -2.82308,-0.129437 -3.979415,-0.532256 -0.861378,-0.300068 -2.111534,-0.895944 -2.778125,-1.324169 -0.666591,-0.428224 -1.651011,-1.231375 -2.187601,-1.784779 -0.536591,-0.553403 -1.394945,-1.705507 -1.907454,-2.560229 -0.548625,-0.914953 -1.113562,-2.370865 -1.373731,-3.540274 -0.313258,-1.408039 -0.403242,-2.688616 -0.309113,-4.399084 0.100178,-1.82039 0.301303,-2.789556 0.819101,-3.947017 0.377476,-0.843791 0.936554,-1.885588 1.242396,-2.315104 0.305843,-0.429516 0.435934,-0.780938 0.289092,-0.780938 -0.146842,0 -0.343551,0.123887 -0.437132,0.275304 -0.09358,0.151418 -0.625001,0.562441 -1.180933,0.913385 -0.555931,0.350945 -2.447205,1.361081 -4.20283,2.244748 -1.755625,0.883667 -4.594748,2.20762 -6.309161,2.942118 -1.714414,0.734498 -4.903054,1.969792 -7.085866,2.745098 -2.182812,0.775306 -4.780342,1.612097 -5.772288,1.859536 -0.991945,0.247438 -1.861411,0.392014 -1.932145,0.321279 -0.07073,-0.07073 0.264607,-0.366463 0.745204,-0.657174 0.480597,-0.290712 1.70725,-0.947992 2.725896,-1.460623 1.018646,-0.512631 3.518958,-1.615757 5.55625,-2.451392 2.037291,-0.835635 5.847291,-2.445732 8.466666,-3.577994 2.619375,-1.132262 5.959366,-2.585981 7.422202,-3.230487 1.462836,-0.644506 3.798148,-1.785548 5.189583,-2.53565 1.697718,-0.915214 4.355397,-1.958318 8.079685,-3.171168 3.052397,-0.994041 8.426377,-2.684447 11.9421865,-3.756458 3.51581,-1.07201 6.39238,-2.050882 6.39238,-2.175271 0,-0.124388 -0.61008,-1.260159 -1.35573,-2.523935 -0.74566,-1.263775 -2.36892,-3.786055 -3.60726,-5.605065 -1.23833,-1.819009 -2.39849,-3.465929 -2.57812,-3.659829 -0.268,-0.28928 -1.3180895,0.22797 -5.8515995,2.88237 -3.038749,1.779199 -7.19187,4.254234 -9.229161,5.500077 -2.037292,1.245844 -5.78776,3.688811 -8.334375,5.428817 -2.546614,1.740006 -8.380677,5.682845 -12.964583,8.761864 -4.583906,3.07902 -9.935554,6.685749 -11.892551,8.014955 -1.956998,1.329206 -5.022857,3.579634 -6.813021,5.000952 -1.790164,1.421317 -3.254843,2.751037 -3.254843,2.954931 0,0.203895 0.418343,1.635953 0.92965,3.182352 0.511308,1.546399 1.698367,4.359446 2.63791,6.251217 0.939544,1.891771 2.414298,4.376917 3.277233,5.522546 0.862934,1.14563 2.477767,3.075954 3.588517,4.289609 1.110751,1.213655 2.878825,2.908039 3.929055,3.765298 1.05023,0.857258 2.742947,2.117609 3.761592,2.80078 1.018646,0.68317 3.340365,1.997803 5.159375,2.921407 1.81901,0.923603 4.081198,2.00152 5.027083,2.395371 0.945885,0.393852 2.3417,0.998578 3.101809,1.343836 0.76011,0.345258 1.682844,0.703245 2.050521,0.795526 0.367677,0.09228 0.668503,0.290361 0.668503,0.440178 0,0.177848 -0.668679,0.211801 -1.926502,0.09782 -1.059575,-0.09602 -2.875278,-0.402267 -4.034895,-0.680557 -1.159617,-0.27829 -3.287212,-0.997794 -4.72799,-1.598899 -1.804777,-0.752968 -2.677061,-0.999935 -2.804343,-0.793988 -0.101612,0.164411 -0.374846,1.392536 -0.607187,2.729167 -0.232342,1.336631 -0.563798,3.851097 -0.73657,5.587702 -0.185566,1.865196 -0.255203,4.9513788 -0.170147,7.5406248 0.08746,2.662451 0.359938,5.577645 0.694084,7.42586796 0.302556,1.67349004 0.847506,4.14738884 1.211001,5.49755354 0.363496,1.3501646 1.088245,3.4932895 1.610556,4.7624997 0.52231,1.26921 1.374668,3.081561 1.894128,4.027446 0.51946,0.945886 1.369749,2.315105 1.889531,3.042709 0.519781,0.727604 1.663123,2.079436 2.540758,3.004072 0.877636,0.924635 2.637498,2.512759 3.910805,3.529163 1.273308,1.016404 2.315104,1.972103 2.315104,2.123775 0,0.165474 -0.357279,0.21779 -0.893299,0.130806 -0.491315,-0.07973 -1.817386,-0.514985 -2.946825,-0.967234 -1.967593,-0.787862 -2.081735,-0.803789 -2.727626,-0.380585 -0.370755,0.242928 -1.357934,1.10909 -2.193732,1.924803 -0.835798,0.815714 -1.604736,1.827258 -1.70875,2.247876 -0.104015,0.420618 -0.08074,1.072932 0.05172,1.449585 0.132462,0.376654 0.536519,0.843685 0.897904,1.037847 0.489098,0.262778 1.434876,0.315707 3.699772,0.207052 1.67349,-0.08028 4.280663,-0.38316 5.793718,-0.673061 z M -15.05767,-0.15342624 c -1.00282,-0.116361 -2.72923,-0.411453 -3.836462,-0.655761 -1.107236,-0.24430796 -2.937399,-0.73442496 -4.06703,-1.08914996 -1.12963,-0.354724 -2.837847,-0.996698 -3.796038,-1.426609 -0.95819,-0.429911 -2.564025,-1.333065 -3.568522,-2.007009 -1.004496,-0.673944 -1.826357,-1.284427 -1.826357,-1.356627 0,-0.0722 0.863203,-0.05015 1.918229,0.049 1.055026,0.09915 3.466041,0.466431 5.357812,0.816172 1.891771,0.349741 4.332552,0.75457 5.423958,0.899621 1.091406,0.145051 3.59172,0.34014 5.55625,0.433532 2.18101,0.103683 4.4475995,0.05311 5.8208295,-0.129885 1.44911,-0.193103 2.81772,-0.574718 3.84813,-1.072987 1.2272,-0.593426 1.74181,-1.02709 2.2124,-1.864392 0.46696,-0.830835 0.61092,-1.491895 0.60354,-2.7713788 -0.006,-1.095852 -0.19669,-2.103024 -0.54733,-2.895693 -0.2957,-0.668476 -1.03115,-1.918963 -1.63433,-2.778861 -0.60318,-0.859897 -1.79895,-2.174251 -2.65726,-2.920786 -0.85846,-0.746667 -1.56056,-1.578731 -1.56056,-1.849434 0,-0.270654 0.18709,-0.679196 0.41577,-0.907872 0.22868,-0.228675 0.82873,-0.415773 1.33346,-0.415773 0.50472,0 1.38963,0.240768 1.96645,0.535041 0.57682,0.294273 1.79247,1.278804 2.70144,2.187846 0.90897,0.909043 2.09002,2.311809 2.62457,3.117258 0.53455,0.805449 1.23018,2.231147 1.54586,3.168218 0.44845,1.331202 0.55354,2.167001 0.48061,3.8221798 -0.0675,1.532371 -0.26199,2.462305 -0.70294,3.361501 -0.33528,0.683698 -1.0391,1.66026 -1.56404,2.170138 -0.52495,0.509877 -1.61864,1.279917 -2.43042,1.711199 -0.81178,0.431282 -2.19035,0.963305 -3.06347,1.18227496 -0.87313,0.218969 -2.81256,0.526649 -4.30986,0.683734 -1.4972895,0.15708499761 -3.1046395,0.269961 -3.5718695,0.250836 -0.46724,-0.01913 -1.67001,-0.129977 -2.67282,-0.246337 z m 55.38224,-0.002 c -1.10195,-0.116995 -2.80618,-0.398861 -3.78718,-0.626369 C 35.5564,-1.0093042 34.1219,-1.5048422 33.34961,-1.8829922 c -0.77228,-0.378149 -1.9444,-1.205229 -2.6047,-1.837955 -0.78586,-0.753028 -1.39173,-1.661351 -1.75399,-2.629567 -0.34573,-0.924049 -0.55224,-2.096024 -0.55028,-3.122878 0.002,-0.9040458 0.1678,-2.2621868 0.36905,-3.0180908 0.20125,-0.755904 0.75723,-2.065592 1.2355,-2.910417 0.47827,-0.844825 1.77071,-2.442053 2.87209,-3.549395 1.10138,-1.107342 2.50378,-2.268201 3.11645,-2.579687 0.61267,-0.311486 1.5354,-0.566338 2.05052,-0.566338 0.58381,0 1.1359,0.199318 1.46575,0.529166 0.29104,0.291042 0.52917,0.640541 0.52917,0.776665 0,0.136124 -0.78548,0.939795 -1.74551,1.785937 -0.96002,0.846142 -2.3295,2.312346 -3.04327,3.258231 -0.71378,0.945886 -1.5466,2.374636 -1.85072,3.175 -0.39066,1.02809 -0.52042,1.857907 -0.4421,2.8272148 0.0707,0.874575 0.34328,1.71159 0.75195,2.30864 0.35261,0.515148 1.17689,1.225187 1.83173,1.577863 0.65484,0.352677 1.84547,0.765782 2.64583,0.918013 0.80037,0.15223 2.52677,0.350917 3.83646,0.441525 1.30969,0.09061 4.11541,0.03938 6.23495,-0.11384 2.11953,-0.153221 5.81046,-0.630295 8.20208,-1.060164 2.39161,-0.42987 5.24896,-0.839331 6.34965,-0.909913 1.10069,-0.07058 2.14327,-0.04056 2.31684,0.06671 0.18932,0.117008 -0.92891,0.794168 -2.79501,1.692554 -1.71083,0.823633 -4.06095,1.858142 -5.22251,2.29891 -1.16155,0.440767 -3.42374,1.093446 -5.02708,1.450398 -1.60334,0.35695096 -4.14817,0.77344696 -5.65518,0.92554696 -1.50701,0.152099 -3.05482,0.260707 -3.43958,0.241351 -0.38477,-0.01936 -1.60117,-0.130917 -2.70313,-0.247911 z M 6.7604795,-31.292002 c -0.49897,-0.254435 -1.24726,-0.888486 -1.66285,-1.409001 -0.41559,-0.520515 -0.82702,-1.386412 -0.9143,-1.924215 -0.11848,-0.730157 -0.0388,-1.110336 0.3148,-1.501004 0.26041,-0.28775 0.7415,-0.523181 1.0691,-0.523181 0.41165,0 0.88921,0.408637 1.54605,1.322917 0.70477,0.980981 1.12131,1.322916 1.61156,1.322916 0.39141,0 1.11135,-0.40479 1.7646705,-0.992187 0.60694,-0.545703 1.44072,-1.521513 1.85284,-2.168467 0.41213,-0.646954 0.74932,-1.272032 0.74932,-1.389062 0,-0.117031 -0.17445,-0.212783 -0.38767,-0.212783 -0.21322,0 -0.81461,-0.374862 -1.33643,-0.833026 -0.52182,-0.458164 -1.12128,-1.166627 -1.33213,-1.574361 -0.2108405,-0.407734 -0.3833505,-1.303438 -0.3833505,-1.990453 0,-1.125761 0.11196,-1.356403 1.1337905,-2.335481 0.62358,-0.5975 1.61966,-1.231934 2.21351,-1.409854 0.59384,-0.177921 2.0184,-0.32071 3.16568,-0.317311 1.7665,0.0052 2.28729,0.116669 3.40048,0.727604 0.72297,0.396783 1.58618,1.125984 1.91823,1.620447 0.38508,0.573441 0.60336,1.292084 0.60273,1.984375 -5.7e-4,0.62756 -0.23422,1.475947 -0.55394,2.011393 -0.30413,0.509323 -0.8097,1.131754 -1.12349,1.383179 -0.3138,0.251426 -0.7918,0.459785 -1.06224,0.463021 -0.39585,0.0047 -0.45826,0.139121 -0.32017,0.689325 0.0943,0.375892 0.45032,1.12507 0.79106,1.664838 0.34074,0.539768 1.05451,1.363313 1.58615,1.8301 0.53164,0.466787 1.13547,0.848703 1.34184,0.848703 0.20637,0 0.65139,-0.125835 0.98894,-0.279633 0.33755,-0.153798 0.84917,-0.719345 1.13693,-1.256771 0.36764,-0.686606 0.72965,-1.001075 1.21754,-1.057648 0.38411,-0.04454 0.88653,0.11168 1.12448,0.349628 0.23658,0.236576 0.43014,0.784734 0.43014,1.218129 0,0.433395 -0.16796,1.1095 -0.37325,1.502455 -0.20529,0.392956 -0.71131,1.034835 -1.12448,1.426399 -0.41318,0.391564 -1.31677,0.862742 -2.008,1.047063 -1.00136,0.267023 -1.50384,0.269048 -2.47253,0.01 -0.66867,-0.178841 -1.60588,-0.622726 -2.0827,-0.986411 -0.47681,-0.363684 -1.38824,-1.384119 -2.02538,-2.267633 -0.63715,-0.883514 -1.27913,-1.778411 -1.42663,-1.98866 -0.21272,-0.303209 -0.50129,-0.02773 -1.39523,1.331955 -0.61987,0.942825 -1.59961,2.118734 -2.1772,2.613131 -0.5776,0.494398 -1.51137,1.037084 -2.07506,1.205969 -0.5636905,0.168885 -1.4278005,0.306879 -1.9202305,0.306653 -0.49244,-2.26e-4 -1.3036,-0.208586 -1.80258,-0.463021 z M 17.79384,-42.873708 c 0.74725,-0.221909 1.54277,-0.587601 1.76782,-0.812648 0.22505,-0.225048 0.40917,-0.525147 0.40917,-0.666888 0,-0.141742 -0.2831,-0.540817 -0.62912,-0.886835 -0.34602,-0.346017 -1.10785,-0.772552 -1.69295,-0.947854 -0.66377,-0.19887 -1.61615,-0.249724 -2.53253,-0.13523 -0.81119,0.101352 -1.8588,0.446397 -2.34011,0.770748 -0.47928,0.322986 -0.91244,0.800278 -0.96258,1.060649 -0.0502,0.260371 0.11794,0.704468 0.37352,0.986882 0.25558,0.282413 0.83157,0.620004 1.27996,0.750201 0.4484,0.130197 1.29968,0.24746 1.89173,0.260585 0.59205,0.01312 1.68784,-0.1577 2.43509,-0.37961 z m -50.996654,4.666442 -0.653859,-0.182198 0.646585,-0.452886 c 0.355622,-0.249087 1.096343,-0.452886 1.646047,-0.452886 0.719232,0 0.999462,0.113112 0.999462,0.403424 0,0.221883 -0.305408,0.519539 -0.678683,0.661458 -0.373275,0.141919 -0.81976,0.246166 -0.992187,0.231661 -0.172428,-0.01451 -0.607742,-0.108363 -0.967365,-0.208573 z m 97.682854,-0.870008 c -0.22725,-0.227256 -0.23279,-0.405687 -0.0205,-0.661458 0.15988,-0.19264 0.72855,-0.350254 1.26371,-0.350254 0.53516,0 1.10659,0.133571 1.26984,0.296824 0.16326,0.163253 0.23386,0.46091 0.1569,0.661458 -0.0881,0.229568 -0.55086,0.364635 -1.24932,0.364635 -0.61017,0 -1.24944,-0.140043 -1.42061,-0.311205 z m -114.094618,-2.912204 c 0.945885,-0.88809 2.363004,-2.029672 3.149152,-2.536848 0.786149,-0.507177 2.028103,-1.132994 2.759899,-1.390705 0.731796,-0.25771 1.4926,-0.406376 1.690675,-0.330367 0.198076,0.07601 0.316225,0.272356 0.262554,0.436328 -0.05367,0.163972 -0.59877,0.636301 -1.211331,1.049619 -0.612561,0.413319 -2.746571,1.569407 -4.742244,2.569086 l -3.628497,1.817597 z M 98.02291,-58.34688 c -0.3638,-0.123452 -2.74505,-0.777344 -5.29166,-1.453094 -2.54662,-0.67575 -7.54724,-2.158052 -11.1125,-3.294004 -3.56526,-1.135952 -7.13714,-2.259172 -7.9375,-2.496043 l -1.45521,-0.430675 3.175,0.127587 c 1.99054,0.07999 4.2114,0.366425 5.95312,0.767806 1.52797,0.352121 4.32594,1.20096 6.21771,1.88631 1.89177,0.685349 4.57068,1.757726 5.95313,2.383059 1.38245,0.625333 3.16838,1.428425 3.96875,1.78465 0.80036,0.356224 1.6338,0.715446 1.85208,0.798271 0.28066,0.106493 0.24192,0.15059 -0.13229,0.15059 -0.29104,0 -0.82682,-0.101006 -1.19063,-0.224457 z m -14.68918,27.978793 c 1.016,-0.762586 2.9979,-2.49055 4.40423,-3.839921 1.40632,-1.34937 3.0456,-3.086774 3.64283,-3.860898 0.59723,-0.774123 1.08587,-1.649746 1.08587,-1.945828 0,-0.296083 -0.34501,-1.654304 -0.76669,-3.018269 -0.42168,-1.363965 -1.1434,-3.432436 -1.60382,-4.596603 -0.46042,-1.164166 -1.21213,-2.741744 -1.67046,-3.505729 -0.45833,-0.763984 -0.94651,-1.389062 -1.08484,-1.389062 -0.13832,0 -2.34559,1.086119 -4.90503,2.413599 -2.55944,1.327479 -5.80556,3.061446 -7.2136,3.853261 -2.52395,1.419353 -2.55641,1.45015 -2.30089,2.183131 0.14255,0.408908 1.24132,2.693299 2.44171,5.076426 1.2004,2.383126 2.93726,5.612879 3.8597,7.177228 0.92243,1.564349 1.80913,2.843126 1.97043,2.841727 0.16131,-0.0014 1.12456,-0.626477 2.14056,-1.389062 z M -66.604838,-60.555518 c 1.122716,-0.924617 3.708177,-2.817184 5.745469,-4.205704 2.037291,-1.38852 4.716197,-3.151535 5.953124,-3.917811 1.236927,-0.766277 2.98948,-1.84938 3.894561,-2.406898 0.905081,-0.557517 3.345862,-2.006975 5.423958,-3.221018 2.078095,-1.214042 5.266637,-2.986377 7.085647,-3.938521 1.81901,-0.952144 5.331354,-2.77261 7.805208,-4.045481 2.473854,-1.272871 5.093229,-2.638869 5.820833,-3.035553 0.727604,-0.396683 2.989792,-1.622592 5.027083,-2.724242 2.037295,-1.101655 5.073385,-2.721585 6.746875,-3.599855 1.67494,-0.87903 3.03031,-1.75563 3.01514,-1.95006 -0.0152,-0.19426 -1.05802,-1.80177 -2.31745,-3.57223 l -2.28987,-3.219009 -2.04818,0.885849 c -1.1265,0.48722 -3.595994,1.56495 -5.487765,2.39495 -1.891771,0.83 -5.106458,2.34589 -7.143749,3.36864 -2.037292,1.02275 -4.716198,2.39757 -5.953125,3.05515 -1.236927,0.65758 -3.618177,1.974424 -5.291666,2.926324 -1.67349,0.951901 -4.709584,2.791304 -6.746875,4.087562 -2.037292,1.296258 -4.977332,3.25038 -6.533422,4.342493 -1.556091,1.092113 -4.35406,3.216252 -6.217708,4.720308 -1.863649,1.504056 -4.928234,4.284457 -6.810188,6.178668 l -3.421736,3.444021 0.598229,2.851048 c 0.329026,1.568077 0.655444,2.943623 0.725372,3.05677 0.06993,0.113146 0.183795,0.20572 0.253037,0.20572 0.06924,0 1.044482,-0.756504 2.167198,-1.681121 z m 42.263608,-0.665915 c 0.585186,-0.265832 1.611155,-1.091927 2.27993,-1.835766 0.668775,-0.743839 1.287165,-1.708486 1.3742,-2.14366 0.08704,-0.435174 0.03504,-1.144644 -0.115538,-1.5766 -0.173099,-0.496553 -0.618272,-0.948846 -1.210525,-1.229889 -0.80817,-0.383501 -1.099388,-0.398974 -2.121746,-0.112732 -0.74921,0.209766 -1.705335,0.807334 -2.599878,1.624895 -0.821838,0.751114 -1.544704,1.686507 -1.724627,2.231678 -0.170364,0.516211 -0.236057,1.307047 -0.145984,1.757414 0.09007,0.450367 0.359403,1.035021 0.59851,1.299231 0.287471,0.317652 0.801767,0.478414 1.518211,0.474571 0.59591,-0.0032 1.562261,-0.22331 2.147447,-0.489142 z m 84.06541,-0.02922 c 0.3827,-0.301029 0.7199,-0.888862 0.79211,-1.380844 0.0692,-0.47117 0.0155,-1.255751 -0.11914,-1.743513 -0.13467,-0.487763 -0.66123,-1.347707 -1.17012,-1.910988 -0.50889,-0.56328 -1.43153,-1.269228 -2.0503,-1.568773 -0.63533,-0.307555 -1.65431,-0.544626 -2.34091,-0.544626 -1.03289,0 -1.31895,0.122507 -1.90084,0.81405 -0.37674,0.447728 -0.68498,1.114343 -0.68498,1.481368 0,0.367025 0.18992,1.067538 0.42204,1.556697 0.23212,0.489158 0.95307,1.378867 1.60211,1.97713 0.64904,0.598263 1.56045,1.253173 2.02535,1.455355 0.46491,0.202182 1.27572,0.372264 1.8018,0.37796 0.56608,0.0061 1.2285,-0.203598 1.62288,-0.513816 z m 42.36283,-8.28635 c 0.084,-0.334642 0.22958,-3.043313 0.32354,-6.019271 0.1297,-4.108047 0.066,-6.490461 -0.26446,-9.894843 -0.23942,-2.466207 -0.4614,-4.493355 -0.4933,-4.504765 -0.0319,-0.0114 -1.72488,-0.36148 -3.76217,-0.77794 -2.03729,-0.41645 -4.89479,-0.98235 -6.35,-1.25756 -1.45521,-0.27521 -4.84849,-0.84343 -7.54062,-1.26271 -2.69214,-0.41928 -6.85932,-1.00779 -9.26042,-1.30778 -2.40109,-0.3 -6.38969,-0.7867 -8.86354,-1.08155 -2.47385,-0.29486 -6.80434,-0.77344 -9.6233,-1.06351 l -5.12539,-0.52741 -3.73815,1.41876 c -2.05599,0.78032 -5.19294,1.99966 -6.971,2.70966 -1.77806,0.71 -3.23643,1.35043 -3.24083,1.42319 -0.004,0.0728 1.27814,0.34091 2.85007,0.59587 1.57193,0.25497 4.04234,0.77003 5.48979,1.14457 1.44745,0.37455 4.35813,1.341062 6.46819,2.147814 2.11005,0.806752 4.01505,1.580608 4.23333,1.719679 0.30231,0.192607 0.27078,0.212501 -0.13229,0.08349 -0.29104,-0.09315 -2.85089,-0.631454 -5.68854,-1.196227 -2.83766,-0.564774 -7.24297,-1.32496 -9.78959,-1.689303 -2.54661,-0.364345 -5.34458,-0.736565 -6.2177,-0.827155 -1.52245,-0.15796 -1.77182,-0.0895 -6.08542,1.671046 -2.47385,1.009666 -6.16479,2.548197 -8.20208,3.418958 -2.0373,0.870762 -4.56591,1.928468 -5.61914,2.35046 -1.05323,0.421991 -1.91643,0.831537 -1.91823,0.910103 -0.002,0.07856 2.05057,0.293001 4.5608,0.476523 2.51024,0.183522 7.71922,0.689121 11.57552,1.123554 3.85631,0.434434 10.24012,1.197656 14.18626,1.696049 3.94613,0.498394 8.8277,1.096492 10.84791,1.329106 2.02022,0.232614 7.00687,0.941321 11.08146,1.574903 4.07458,0.633583 11.27786,1.817886 16.00729,2.631786 4.72942,0.8139 11.09927,1.940327 14.15521,2.503172 3.05593,0.562844 5.87076,1.038297 6.25517,1.056561 0.52311,0.02485 0.73733,-0.119838 0.85163,-0.575232 z m -5.25472,-9.317108 c -1.60073,-0.186276 -4.20225,-0.585316 -5.78116,-0.886754 -1.57891,-0.301439 -4.99925,-1.110162 -7.60076,-1.797163 -2.6015,-0.687001 -4.68239,-1.296716 -4.62418,-1.354923 0.0582,-0.05821 1.45449,0.03145 3.10284,0.199228 1.64836,0.167781 4.24717,0.483507 5.77513,0.701611 1.52797,0.218105 3.96875,0.693617 5.42396,1.056694 1.45521,0.363077 3.77569,1.019176 5.15662,1.457998 1.38093,0.438821 2.56164,0.848707 2.62379,0.910857 0.0621,0.06215 -0.17474,0.09908 -0.52641,0.08207 -0.35168,-0.01701 -1.9491,-0.183339 -3.54983,-0.369616 z m 0,-2.633318 c -2.32833,-0.482362 -6.31693,-1.424102 -8.86354,-2.092755 -2.54662,-0.668654 -6.65427,-1.807587 -9.12813,-2.530963 -2.47385,-0.723375 -4.20026,-1.319328 -3.83645,-1.324338 0.3638,-0.005 2.20927,0.169975 4.10104,0.388856 1.89177,0.218881 4.45161,0.580531 5.68854,0.803667 1.23692,0.223136 3.81279,0.813104 5.72413,1.31104 1.91135,0.497936 4.39545,1.21426 5.52021,1.591832 1.12477,0.377572 2.6871,0.970448 3.47185,1.317502 0.78475,0.347054 1.69067,0.815811 2.01314,1.041682 0.54944,0.384839 0.55349,0.409412 0.0644,0.390587 -0.28704,-0.01105 -2.42689,-0.414748 -4.75522,-0.89711 z m -164.609089,8.280215 c 1.621774,-1.480133 4.37743,-3.832855 6.12368,-5.228271 1.74625,-1.395417 4.507874,-3.425509 6.136942,-4.511317 1.629069,-1.085807 2.921376,-2.014762 2.871793,-2.064345 -0.04958,-0.04958 -1.977769,0.321803 -4.284859,0.8253 -2.307091,0.503497 -4.641194,0.992601 -5.186897,1.086897 -0.842467,0.145577 -0.991642,0.09977 -0.988575,-0.303562 0.002,-0.261255 0.07229,-0.730997 0.156233,-1.04387 0.118299,-0.440936 0.429858,-0.609061 1.38545,-0.747621 0.678056,-0.09832 1.947204,-0.34757 2.820329,-0.553895 0.873125,-0.206325 3.909219,-0.862858 6.746875,-1.458963 4.602733,-0.966894 5.330649,-1.19379 6.746874,-2.103051 0.873125,-0.56057 2.956719,-1.77271 4.630209,-2.69364 1.673489,-0.92094 3.979985,-2.14823 5.125547,-2.72732 1.867679,-0.94413 2.004338,-1.06272 1.322917,-1.14799 -0.417958,-0.0523 -3.141173,0.0416 -6.05159,0.20858 -2.910416,0.16702 -8.030103,0.48084 -11.377082,0.69739 -3.346979,0.21654 -8.704791,0.63745 -11.90625,0.93535 -3.201458,0.2979 -5.901287,0.62218 -5.999619,0.72062 -0.09833,0.0984 -0.44089,1.78633 -0.761238,3.75086 -0.472523,2.897746 -0.606067,5.032484 -0.707583,11.310936 -0.06882,4.256484 -0.04114,7.739062 0.06152,7.739062 0.102657,0 1.513555,-1.211017 3.135328,-2.69115 z M 12.5625,-85.720597 c 2.98318,-1.269312 7.74568,-3.295205 10.58333,-4.501985 2.83766,-1.20678 8.07641,-3.38606 11.64167,-4.84286 3.56526,-1.4568 7.55385,-3.06901 8.86354,-3.58269 1.30969,-0.51368 4.64344,-1.879218 7.40833,-3.034528 2.7649,-1.15531 6.15818,-2.60788 7.54063,-3.22794 1.38245,-0.62006 4.83526,-2.19804 7.67292,-3.50664 2.83765,-1.30859 9.71351,-4.62096 15.27968,-7.36082 5.56617,-2.73986 10.12031,-5.07892 10.12031,-5.19791 0,-0.11899 -0.80367,-1.65619 -1.78593,-3.416 -0.98227,-1.75981 -1.96707,-3.46624 -2.18844,-3.79206 l -0.40251,-0.5924 -1.84645,0.80678 c -1.01555,0.44373 -4.16818,1.72064 -7.00583,2.83758 -2.83766,1.11693 -6.58813,2.55995 -8.33438,3.2067 -1.74625,0.64675 -5.79437,2.1074 -8.99583,3.2459 -3.20146,1.1385 -8.79739,3.0228 -12.43542,4.18734 -3.63802,1.16453 -8.73961,2.79262 -11.33687,3.61798 -2.59726,0.82537 -4.77391,1.44904 -4.837,1.38595 -0.0631,-0.0631 2.59773,-1.19402 5.91292,-2.51318 3.31519,-1.31916 8.76606,-3.37024 12.11304,-4.55796 3.34698,-1.18771 7.15698,-2.56784 8.46666,-3.06694 1.30969,-0.49911 3.75047,-1.44026 5.42396,-2.09144 1.67349,-0.65119 7.20897,-2.8485 12.30107,-4.88291 5.0921,-2.03442 9.29898,-3.82077 9.34861,-3.96968 0.0496,-0.14891 -0.30662,-0.27143 -0.79169,-0.27227 -0.48507,-8.3e-4 -2.19163,0.18472 -3.79236,0.41234 -1.60073,0.22762 -4.69636,0.70886 -6.87917,1.06941 -2.18281,0.36056 -5.21891,0.89907 -6.74687,1.19671 -1.52797,0.29763 -4.68313,0.99886 -7.01146,1.55829 -2.32834,0.55942 -6.01927,1.50971 -8.20209,2.11176 -2.18281,0.60204 -6.58812,1.91494 -9.78958,2.91755 -3.20146,1.00262 -8.32114,2.70636 -11.37708,3.78609 -3.05594,1.07974 -7.87797,2.86131 -10.71563,3.95906 -2.83765,1.09776 -10.57671,4.15508 -17.1979105,6.79406 -6.6212,2.63898 -12.75292,5.10599 -13.6260395,5.48224 -0.87313,0.37626 -1.62738,0.71767 -1.67613,0.75869 -0.0487,0.041 1.32977,1.959548 3.0633595,4.263388 1.73359,2.30384 4.17694,5.64976 5.42965,7.435362 1.25272,1.785607 2.88561,4.308916 3.62865,5.607353 l 1.35098,2.360794 2.7007,-1.141636 c 1.48539,-0.6279 5.14148,-2.180165 8.1246605,-3.449478 z m 10.84792,-13.977155 c 0,-0.0738 1.04179,-0.571178 2.3151,-1.105338 1.27331,-0.53416 3.7322,-1.44077 5.46421,-2.01469 1.732,-0.57391 3.18673,-1.00585 3.23271,-0.95987 0.046,0.046 -1.01392,0.51968 -2.35535,1.05266 -1.34143,0.53297 -3.62959,1.38188 -5.0848,1.88646 -1.45521,0.50458 -2.85419,0.997858 -3.10885,1.096168 -0.25466,0.0983 -0.46302,0.11839 -0.46302,0.0446 z m 47.76973,-20.006698 c 0.13868,-0.13313 1.5023,-0.7686 3.03027,-1.41217 1.52796,-0.64356 3.53295,-1.37759 4.45551,-1.63117 0.92257,-0.25358 1.72836,-0.41009 1.79064,-0.3478 0.0623,0.0623 -1.28785,0.65619 -3.0003,1.31978 -1.71246,0.66359 -3.88187,1.45558 -4.82091,1.75997 -0.93904,0.30439 -1.59389,0.44452 -1.45521,0.31139 z m 29.4886,25.272828 c 0,-0.20221 -0.18074,-1.3204 -0.40163,-2.48486 -0.2209,-1.16446 -0.82043,-3.439798 -1.33231,-5.056308 -0.51187,-1.61651 -0.96769,-2.9391 -1.01293,-2.9391 -0.0452,0 -0.42796,0.16791 -0.8505,0.37314 -0.42254,0.20523 -2.91138,1.29011 -5.53076,2.41085 -2.61937,1.12074 -5.41734,2.365208 -6.21771,2.765488 -0.80036,0.40029 -1.93145,0.88505 -2.51354,1.07724 l -1.05833,0.34944 1.15549,0.34056 c 0.63551,0.1873 3.49301,0.76824 6.34999,1.29097 2.85699,0.52273 6.50421,1.22858 8.10494,1.56855 1.60072,0.33998 2.99971,0.63018 3.10885,0.64491 0.10914,0.0147 0.19844,-0.13868 0.19844,-0.34088 z m -160.469786,-3.72305 c 2.910416,-0.22006 8.32776,-0.57461 12.038541,-0.7879 3.710781,-0.21329 9.247187,-0.51328 12.303124,-0.66664 3.055938,-0.15336 6.746875,-0.32025 8.202083,-0.37086 1.726017,-0.06 2.921778,-0.235898 3.439583,-0.505878 0.436563,-0.22762 2.372,-1.07492 4.300972,-1.88287 1.928973,-0.80796 4.131633,-1.63565 4.894793,-1.83931 0.76316,-0.20366 4.00694,-1.3856 7.2083995,-2.62653 3.20146,-1.24093 7.60677,-2.97353 9.78958,-3.85022 2.18282,-0.87669 6.82625,-2.72728 10.3187505,-4.11243 3.4925,-1.38515 8.79078,-3.42933 11.77396,-4.54262 2.98318,-1.1133 7.87969,-2.84027 10.88115,-3.83772 3.00145,-0.99745 8.06161,-2.58175 11.24479,-3.52067 3.18318,-0.93891 7.21635,-2.07225 8.9626,-2.51851 1.74625,-0.44627 4.72281,-1.16798 6.61458,-1.6038 1.89177,-0.43582 5.04693,-1.08656 7.01146,-1.4461 1.96453,-0.35953 5.94591,-1.02198 8.8475,-1.4721 2.90159,-0.45012 5.30864,-0.85142 5.349,-0.89178 0.0404,-0.0404 -0.30961,-0.6074 -0.7777,-1.26008 -0.4681,-0.65269 -1.81756,-2.37314 -2.9988,-3.82322 -1.18124,-1.45009 -2.39192,-2.85455 -2.69041,-3.12103 -0.52647,-0.47002 -0.64813,-0.46765 -4.07,0.0794 -1.94001,0.31014 -4.71792,0.79062 -6.17313,1.06774 -1.45521,0.27711 -5.80099,1.11242 -9.65729,1.85625 -3.8563,0.74382 -9.39271,1.88769 -12.30312,2.54193 -2.91042,0.65424 -7.85151,1.84424 -10.98021,2.64445 -3.1287,0.80021 -8.06979,2.11129 -10.98021,2.91352 -2.91042,0.80223 -7.85151,2.1629 -10.98021,3.02371 -3.1287005,0.86081 -7.4149505,2.04874 -9.5250005,2.63985 -2.11005,0.59111 -6.21397,1.67169 -9.11981,2.40129 -2.90585,0.72959 -7.6683495,1.84587 -10.5833395,2.48062 -2.914982,0.63474 -7.740753,1.63222 -10.723929,2.21662 -2.983177,0.58439 -7.805208,1.42116 -10.715625,1.85949 -2.910416,0.43832 -6.89901,0.9765 -8.863541,1.19595 -1.964531,0.21945 -5.357812,0.53195 -7.540625,0.69444 -2.182812,0.1625 -4.843786,0.37534 -5.913274,0.47298 l -1.944525,0.17754 -1.171115,2.91041 c -0.644113,1.60073 -1.51703,3.98751 -1.939816,5.30396 -0.422785,1.31645 -1.080167,3.63817 -1.460848,5.15938 -0.380681,1.521198 -0.759946,2.992568 -0.84281,3.269708 -0.141081,0.47182 -0.03511,0.49329 1.666071,0.33751 0.999204,-0.0915 4.197984,-0.34641 7.108401,-0.56646 z m 2.158269,-8.146288 c 0.08837,-0.47294 0.245145,-0.95416 0.3484,-1.06939 0.103254,-0.11522 1.456729,-0.12745 3.00772,-0.0272 1.550992,0.10027 2.819985,0.26256 2.819985,0.36064 0,0.0981 -1.354242,0.49726 -3.009428,0.88707 -1.655186,0.38981 -3.080959,0.70875 -3.168385,0.70875 -0.08743,0 -0.08666,-0.38695 0.0017,-0.8599 z m 34.354229,-0.71988 c 1.600729,-0.28383 5.026162,-0.75886 7.612078,-1.05563 2.58591,-0.29678 4.96716,-0.52763 5.29166,-0.51302 0.32451,0.0146 -0.12958,0.18465 -1.00908,0.37787 -0.8795,0.19322 -3.4108,0.59567 -5.62511,0.89433 -2.214306,0.29866 -5.185651,0.60365 -6.602988,0.67775 l -2.576977,0.13475 z m 7.043418,-3.30287 c 0.0661,-0.0661 2.19929,-0.88409 4.74045,-1.81779 2.5411595,-0.9337 6.1085795,-2.18188 7.9275895,-2.77373 1.81901,-0.59185 5.68854,-1.78798 8.59896,-2.65806 2.91041,-0.87008 6.8394805,-2.00348 8.7312505,-2.51866 1.89177,-0.51518 5.57741,-1.47833 8.19032,-2.14032 2.6129,-0.662 6.35586,-1.43864 8.31767,-1.72587 1.96181,-0.28723 3.60313,-0.48603 3.64738,-0.44178 0.0443,0.0443 -2.5676,0.93046 -5.80412,1.96935 -3.23652,1.0389 -7.78959,2.42245 -10.11792,3.07458 -2.32833,0.65212 -7.09083,1.97779 -10.5833305,2.94592 -3.4925,0.96814 -10.20998,2.76066 -14.92773,3.98338 -4.7177495,1.22272 -8.6368895,2.22313 -8.7091995,2.22313 -0.0723,0 -0.0774,-0.0541 -0.0113,-0.12015 z m 63.33574,-19.3483 c 2.61938,-0.9469 7.44141,-2.60417 10.71563,-3.68283 3.27422,-1.07866 6.88373,-2.20067 8.02113,-2.49336 1.13741,-0.29269 2.80428,-0.66662 3.70417,-0.83095 0.89989,-0.16433 3.03104,-0.44186 4.73591,-0.61673 1.70486,-0.17487 3.04146,-0.25965 2.97021,-0.18841 -0.0712,0.0712 -0.98987,0.38549 -2.04141,0.69834 -1.05154,0.31284 -4.53126,1.37255 -7.73272,2.3549 -3.20146,0.98236 -10.04755,2.84618 -15.21354,4.14182 -5.16599,1.29565 -9.51177,2.35192 -9.65729,2.34728 -0.14552,-0.005 1.87854,-0.78317 4.49791,-1.73006 z m 27.5299,30.882178 c 0.13824,-0.12536 2.6326,-1.306238 5.54302,-2.624178 2.91042,-1.31793 7.37531,-3.28671 9.92198,-4.37506 2.54667,-1.08835 5.07675,-2.19171 5.62239,-2.45191 0.54565,-0.2602 0.99209,-0.56885 0.99209,-0.68588 0,-0.11704 -0.31032,-0.98796 -0.6896,-1.93537 -0.37927,-0.94742 -0.74681,-1.72258 -0.81675,-1.72258 -0.0699,0 -1.63485,0.72561 -3.47759,1.61247 -1.84274,0.88686 -4.422,2.00338 -5.73169,2.48115 -1.30968,0.47777 -2.61937,0.96031 -2.91041,1.0723 -0.36128,0.13902 -0.44523,0.11707 -0.26459,-0.0692 0.14552,-0.15005 1.03918,-0.79736 1.98591,-1.43846 0.94674,-0.64111 3.03033,-1.82951 4.63021,-2.6409 1.59989,-0.81139 3.47443,-1.68606 4.16565,-1.94371 0.69123,-0.25765 1.25677,-0.50397 1.25677,-0.54736 0,-0.0434 -0.31501,-0.80527 -0.70002,-1.69304 -0.38502,-0.88777 -0.77197,-1.57823 -0.8599,-1.53435 -0.0879,0.0439 -5.27955,2.64016 -11.53695,5.76951 -6.2574,3.12936 -14.13036,6.93736 -17.49547,8.46223 l -6.11838,2.77248 7.14572,0.714978 c 3.93015,0.39323 7.33826,0.76637 7.57359,0.8292 0.23533,0.0628 0.67195,0.12804 0.97027,0.14492 0.29832,0.0169 0.6555,-0.0719 0.79375,-0.19724 z m 11.23156,-7.554998 c 0,-0.0563 0.4139,-0.3465 0.91978,-0.64498 0.50588,-0.29847 1.42861,-0.71312 2.05052,-0.92145 0.62191,-0.20832 1.54746,-0.45195 2.05678,-0.5414 0.67409,-0.1184 0.49413,0.0103 -0.66145,0.47314 -0.87313,0.34969 -2.21258,0.88356 -2.97657,1.18639 -0.76398,0.30283 -1.38906,0.50457 -1.38906,0.4483 z m -135.791461,-13.14335 c 2.950057,-0.28121 8.579309,-1.0496 12.50945,-1.70755 3.930142,-0.65795 9.731771,-1.71711 12.89251,-2.35369 3.16074,-0.63658 8.247111,-1.71535 11.303051,-2.39725 3.05594,-0.68191 5.7348395,-1.34257 5.9531195,-1.46813 0.25753,-0.14814 0.0717,-0.1874 -0.52916,-0.11181 -0.50933,0.0641 -2.7715095,0.24034 -5.0270895,0.39171 -2.25557,0.15137 -6.601351,0.38912 -9.657288,0.52833 -3.055937,0.1392 -12.126468,0.33435 -20.156735,0.43366 l -14.600485,0.18056 -1.31821,2.40429 c -0.725016,1.32236 -1.566437,2.87878 -1.869827,3.45871 -0.303389,0.57993 -0.551616,1.14434 -0.551616,1.25425 0,0.10991 1.279922,0.13197 2.844271,0.049 1.564348,-0.083 5.257953,-0.3809 8.208009,-0.6621 z M 34.69968,-138.7815 c 2.4117,-0.5837 5.71002,-1.36762 7.32959,-1.74204 1.61958,-0.37442 6.69516,-1.43271 11.27906,-2.35175 4.58391,-0.91904 9.525,-1.87771 10.98021,-2.13038 1.45521,-0.25267 2.68032,-0.48763 2.72247,-0.52213 0.0422,-0.0345 -0.64456,-1.56612 -1.52603,-3.40361 -1.34853,-2.81113 -1.69633,-3.33999 -2.1933,-3.33517 -0.32485,0.003 -1.62464,0.23438 -2.88841,0.51385 -1.26378,0.27947 -4.18081,1.05528 -6.4823,1.72403 -2.30148,0.66874 -7.28014,2.23666 -11.06368,3.48427 -3.78354,1.2476 -8.36745,2.80128 -10.18646,3.45262 -1.81901,0.65134 -3.45591,1.32677 -3.63756,1.50097 -0.26291,0.25213 -0.19022,0.67912 0.35645,2.09367 0.3777,0.97732 0.74035,1.77695 0.80589,1.77695 0.0655,0 2.09238,-0.47758 4.50407,-1.06128 z m 36.83743,-7.84685 c 0.60677,-0.16237 0.57283,-0.22384 -0.79088,-1.43242 -0.78367,-0.69453 -1.46392,-1.22371 -1.51166,-1.17597 -0.0478,0.0478 0.22085,0.69397 0.59689,1.43604 0.37604,0.74207 0.77099,1.3476 0.87768,1.34561 0.10669,-0.002 0.47928,-0.08 0.82797,-0.17326 z m -105.276689,7.97241 c -0.363802,-0.197 -0.899583,-0.44314 -1.190625,-0.54698 -0.291042,-0.10385 -0.618464,-0.16991 -0.727604,-0.14681 -0.109141,0.0231 -0.198438,-0.0898 -0.198438,-0.25089 0,-0.16109 -0.153816,-0.23386 -0.341813,-0.16172 -0.187997,0.0721 -0.572617,-0.0376 -0.854711,-0.24387 -0.496645,-0.36316 -0.487909,-0.39501 0.275667,-1.00519 0.433711,-0.34658 0.788566,-0.60809 0.788566,-0.58114 0,0.0269 0.710647,0.79018 1.579217,1.69607 0.86857,0.90589 1.523414,1.63619 1.455208,1.62289 -0.0682,-0.0133 -0.421665,-0.18537 -0.785467,-0.38236 z m 26.3903485,-3.4034 c -0.24268,-0.24268 -0.56156,-0.87701 -0.70862,-1.40962 -0.14707,-0.53261 -0.22158,-1.01419 -0.16559,-1.07018 0.056,-0.056 0.42037,0.44182 0.80975,1.10624 0.38937,0.66442 0.66244,1.34455 0.60682,1.51141 -0.0669,0.20057 -0.25066,0.15385 -0.54236,-0.13785 z m -26.4041495,-0.57037 c -0.349364,-0.37188 -0.456854,-0.6077 -0.238866,-0.52405 0.217988,0.0837 0.543618,0.38791 0.723622,0.67614 0.180003,0.28824 0.287493,0.52406 0.238866,0.52406 -0.04863,0 -0.374257,-0.30426 -0.723622,-0.67615 z m 4.511717,-0.76323 c -0.509323,-0.33797 -1.216992,-0.92873 -1.572597,-1.3128 -0.580908,-0.6274 -0.605372,-0.73949 -0.240942,-1.10392 0.364431,-0.36443 0.512371,-0.26314 1.457038,0.99764 0.578282,0.77179 1.140217,1.55208 1.248744,1.73398 0.108526,0.1819 0.160528,0.32373 0.11556,0.31517 -0.04497,-0.009 -0.49848,-0.2921 -1.007803,-0.63007 z m 25.4759825,-0.21426 c -0.29999,-0.32743 -0.79941,-1.10133 -1.10984,-1.7198 -0.31042,-0.61846 -0.46519,-1.12447 -0.34394,-1.12447 0.12125,0 0.52124,0.32742 0.88885,0.7276 0.36762,0.40018 0.92216,1.09823 1.23231,1.55122 0.31016,0.45299 0.48806,0.89947 0.39535,0.99219 -0.0927,0.0927 -0.24704,0.16857 -0.34294,0.16857 -0.0959,0 -0.41981,-0.26789 -0.71979,-0.59531 z m -33.8103565,-2.7575 c -0.873125,-0.81228 -2.694874,-2.37258 -4.048331,-3.46734 l -2.460831,-1.99048 0.859088,-0.88635 c 0.472498,-0.4875 0.984559,-0.8795 1.137914,-0.87112 0.153355,0.008 0.93367,0.79712 1.734035,1.75278 0.800364,0.95565 2.435871,2.63947 3.63446,3.74182 l 2.179251,2.00427 -0.571726,0.60857 c -0.31445,0.33472 -0.640269,0.60321 -0.724043,0.59665 -0.08377,-0.007 -0.866692,-0.67652 -1.739817,-1.4888 z m 9.569096,-0.79233 c -0.09701,-0.097 -0.176388,-0.3224 -0.176388,-0.50086 0,-0.17846 0.195434,-0.39946 0.434298,-0.49113 0.358042,-0.13739 0.377271,-0.0979 0.109514,0.22469 -0.178632,0.21524 -0.247977,0.51562 -0.154101,0.66752 0.09388,0.15189 0.123971,0.27617 0.06688,0.27617 -0.0571,0 -0.183185,-0.0794 -0.280199,-0.17639 z m -8.643055,-3.30671 c -1.964531,-1.59459 -3.853344,-3.10875 -4.197362,-3.36482 l -0.625488,-0.46558 1.898265,-1.40725 c 1.044045,-0.77398 1.988939,-1.30133 2.099763,-1.17189 0.110825,0.12944 1.020133,1.54504 2.020685,3.14576 1.000552,1.60073 2.212362,3.43356 2.692911,4.07295 0.48055,0.63939 0.873726,1.31126 0.873726,1.49304 0,0.18179 -0.188332,0.40279 -0.418515,0.49112 -0.230183,0.0883 -0.498073,0.1483 -0.595312,0.13325 -0.09724,-0.015 -1.784142,-1.332 -3.748673,-2.92658 z m 49.746786,0.0531 c -0.16628,-0.3107 -0.26003,-0.88644 -0.20834,-1.27943 0.0841,-0.63923 0.12945,-0.59323 0.43058,0.43667 0.18512,0.63315 0.27887,1.20889 0.20834,1.27943 -0.0705,0.0705 -0.26429,-0.12597 -0.43058,-0.43667 z"
       id="path172" /></g></svg>
