<?xml version="1.0" encoding="UTF-8" standalone="no"?>
<!-- Created with Inkscape (http://www.inkscape.org/) -->

<svg
   width="232.58586mm"
   height="195.02974mm"
   viewBox="0 0 232.58589 195.02971"
   version="1.1"
   id="svg5"
   xml:space="preserve"
   xmlns="http://www.w3.org/2000/svg"
   xmlns:svg="http://www.w3.org/2000/svg"><defs
     id="defs2" /><g
     id="layer1"
     transform="translate(9.6662278,-12.71201)"><path
       style="fill:#000000;stroke-width:0.264583"
       d="m 82.285914,207.57724 c -2.36865,-0.59365 -4.59027,-2.0804 -7.6149,-5.09601 l -2.26119,-2.25446 -1.44297,0.37934 c -0.82277,0.21629 -1.87107,0.30909 -2.43897,0.2159 -0.87185,-0.14305 -1.08848,-0.0644 -1.73793,0.63082 -0.55466,0.59376 -1.07128,0.83799 -2.04671,0.96757 -1.8691,0.24829 -5.37419,1.25464 -9.19936,2.64121 -2.18234,0.79107 -3.74209,1.20103 -4.56944,1.20103 -1.43772,0 -9.81325,-1.24538 -22.46098,-3.33978 -4.80219,-0.79522 -10.51719,-1.73001 -12.7,-2.07731 -8.8067488,-1.40121 -21.6735448,-3.88869 -22.6247198,-4.37394 -1.221887,-0.62337 -2.231008,-1.79296 -2.654754,-3.07692 -0.396009,-1.19992 -0.221323,-3.56278 0.674201,-9.11946 0.36112,-2.24072 1.025374,-6.39577 1.47612,-9.23342 0.450747,-2.83766 1.166343,-7.18344 1.590215,-9.65729 0.423872,-2.47386 1.72401,-10.13991 2.889197,-17.03568 1.165185,-6.89578 2.29611501,-13.30355 2.51317601,-14.2395 0.79991,-3.44914 1.041101,-3.56814 7.55638399,-3.72839 l 4.9135608,-0.12084 0.74694,-2.01696 c 0.93515,-2.52517 1.82433,-4.43276 3.11782,-6.68874 l 1.00989,-1.76137 -0.65859,-0.97049 c -0.85036,-1.25307 -2.11859,-4.551 -2.70784,-7.04149 -0.56307,-2.37985 -0.62231,-7.1529 -0.11463,-9.23508 0.78933,-3.237286 2.60419,-6.432008 5.51554,-9.709044 l 1.69138,-1.903836 -1.18362,-3.123247 c -0.65099,-1.717789 -1.42192,-3.897156 -1.71317,-4.843042 -0.29125,-0.945885 -2.20732,-6.201301 -4.25793,-11.678702 C 9.0061952,59.037258 8.6839822,57.805626 8.8954672,53.33348 c 0.38927,-8.231801 3.5995868,-14.138688 9.0916668,-16.728381 1.31848,-0.621708 2.13325,-0.804598 4.10982,-0.92252 2.85577,-0.170379 4.81452,0.268938 6.90835,1.549429 0.70707,0.432413 1.31397,0.749564 1.34867,0.704775 0.0347,-0.04479 0.81837,-1.361201 1.74148,-2.925368 3.80968,-6.455325 7.97769,-11.011836 13.50876,-14.76791 9.99701,-6.788838 23.80126,-9.073666 37.28112,-6.170628 4.57244,0.984726 12.24747,3.631842 19.000386,6.553223 2.8283,1.223558 4.89754,1.752304 6.83468,1.746446 1.30916,-0.004 2.18497,-0.273675 5.65035,-1.740096 8.93582,-3.781314 17.29755,-6.473063 22.07433,-7.106009 0.7175,-0.09507 1.37766,-0.218052 1.46704,-0.273286 0.0894,-0.05523 1.88357,-0.236908 3.98712,-0.403717 11.40412,-0.904338 24.0863,2.709021 32.39963,9.23118 2.72891,2.140944 6.63117,6.215667 8.66805,9.051151 4.48358,6.241447 7.94379,15.670135 9.06879,24.711461 1.39967,11.248767 -0.24289,25.393257 -4.27125,36.780873 -0.51478,1.455208 -0.98061,2.787946 -1.03518,2.961637 -0.0546,0.173693 0.65702,0.738719 1.58132,1.255617 4.59536,2.569871 8.08616,6.474903 9.73341,10.888393 0.79602,2.13278 0.84384,7.10313 0.092,9.56539 l -0.50451,1.65229 0.95703,2.84563 c 0.90228,2.68282 1.27647,4.33704 1.64617,7.2774 0.0869,0.69122 0.24002,1.25803 0.34025,1.25957 0.10022,0.002 1.69669,0.23657 3.54771,0.5223 4.64435,0.71689 5.52439,1.1467 6.23831,3.04677 1.16409,3.0982 11.93353,47.21221 12.4634,51.05284 0.27495,1.99299 -0.0217,3.07696 -1.19888,4.3799 -1.22916,1.36053 -2.62372,1.79668 -10.94644,3.4235 -10.84031,2.11892 -20.29442,3.6843 -37.04167,6.13323 -8.27922,1.21066 -10.66371,1.25496 -13.36146,0.24823 -3.49067,-1.30263 -6.96058,-2.45248 -8.46117,-2.80385 -1.98066,-0.46377 -2.18712,-0.34661 -4.3204,2.45184 -1.9744,2.59003 -5.04077,5.60783 -6.92985,6.82008 -2.5077,1.60923 -4.04878,2.07828 -6.8792,2.09376 -2.17443,0.0119 -2.70987,-0.079 -3.96875,-0.67409 -2.91892,-1.37973 -4.78257,-3.59031 -6.61837,-7.85044 -1.35369,-3.14135 -2.45379,-7.25367 -5.42941,-20.29583 -0.66402,-2.91042 -1.45286,-6.12511 -1.75297,-7.14375 -1.22598,-4.16129 -3.47672,-7.68096 -5.43919,-8.50573 -1.86964,-0.78575 -4.07515,-0.27721 -5.53026,1.27515 -2.35885,2.5165 -3.94769,7.2952 -6.846526,20.59204 -2.07126,9.50069 -3.02163,12.82253 -4.674,16.33702 -1.07429,2.28493 -3.25406,4.57459 -5.17626,5.43723 -1.72568,0.77444 -4.42011,1.09387 -5.96368,0.70701 z m 53.576876,-5.19996 c 1.92071,-0.75782 4.94919,-3.24507 6.89108,-5.65954 1.46582,-1.82256 3.53467,-6.58189 4.70171,-10.81621 1.47147,-5.33883 3.74651,-17.00733 6.34745,-32.55555 1.01024,-6.03912 2.14823,-12.40896 2.52888,-14.15521 1.7371,-7.96917 4.09757,-15.07684 7.15813,-21.55411 1.06966,-2.26378 1.39316,-3.21584 1.2752,-3.75292 -0.10822,-0.4927 0.0977,-1.3023 0.65289,-2.56732 0.44602,-1.01622 0.81095,-2.2185 0.81095,-2.67173 0,-1.76048 1.56349,-3.81214 3.75451,-4.92677 0.48163,-0.24502 0.9011,-0.46567 0.93214,-0.49033 0.031,-0.0247 -0.1246,-0.6346 -0.34587,-1.35542 -0.22127,-0.72081 -0.42271,-2.205489 -0.44763,-3.299282 -0.0405,-1.777055 0.0416,-2.14313 0.77081,-3.439583 1.10919,-1.97186 2.71909,-2.977986 4.99718,-3.123044 2.07204,-0.131937 3.98729,0.458592 5.03537,1.552554 l 0.75905,0.792276 0.50363,-1.262369 c 1.98961,-4.987083 3.6419,-11.15964 4.55199,-17.005077 0.58806,-3.777075 0.83755,-15.459672 0.40497,-18.962872 -0.87458,-7.082649 -2.90254,-13.693023 -5.84627,-19.056661 -3.54295,-6.455433 -10.09305,-12.713057 -16.78967,-16.039966 -5.2645,-2.615422 -12.35913,-4.148831 -19.19544,-4.148831 -8.26984,0 -17.2381,2.354387 -29.13911,7.649717 -1.99098,0.885883 -3.74715,1.610699 -3.90261,1.610699 -0.60114,0 -0.24159,0.454165 0.57726,0.729152 1.75016,0.587732 9.85884,3.556121 9.94605,3.641002 0.27892,0.271481 -4.2719,0.04792 -5.87193,-0.288456 -3.485,-0.732666 -10.8959,-3.337822 -20.210866,-7.104745 -9.23411,-3.734215 -14.40806,-5.243628 -20.53884,-5.991862 -3.678,-0.448884 -10.16139,-0.190093 -13.52909,0.54003 -6.83811,1.482508 -13.33836,4.639019 -18.22791,8.851434 -3.49167,3.008119 -8.09278,9.155035 -9.98004,13.332967 -0.57087,1.263774 -1.15876,2.510711 -1.30642,2.770973 -0.18974,0.334447 -0.13953,1.071486 0.17121,2.513542 0.65044,3.018403 0.58812,8.311123 -0.12962,11.009391 -0.56054,2.107282 -1.90368,4.823979 -2.91831,5.902695 -0.50204,0.53376 -0.54953,0.902645 -0.54953,4.268687 0,5.684591 1.26493,14.145037 3.10353,20.757792 0.64953,2.336114 0.77592,2.581444 1.25671,2.439342 2.25472,-0.666406 3.55753,-0.745123 4.75614,-0.287367 2.39704,0.915437 3.10459,3.260836 2.08406,6.908268 -0.24267,0.86732 -0.45103,1.986454 -0.46302,2.486967 -0.0212,0.884297 0.0263,0.927317 1.67962,1.521817 0.93578,0.33648 2.72171,1.10507 3.96875,1.70798 3.81672,1.84528 6.83497,5.31734 10.01398,11.51967 1.87886,3.66571 4.22247,9.27046 6.01268,14.37938 l 1.53279,4.3743 5.18623,0.62541 c 5.88189,0.70931 7.5344,1.10741 8.08383,1.94742 0.22946,0.35082 0.60244,2.51809 0.93214,5.41638 0.68363,6.0096 2.29772,18.81094 3.71101,29.43199 2.91587,21.91314 2.94342,22.20474 2.22875,23.58676 -0.42516,0.82216 -1.9753,1.66316 -5.07314,2.75232 -0.76399,0.2686 -1.38907,0.5829 -1.38907,0.69844 0,0.50902 3.43594,3.64517 4.68756,4.27857 2.25868,1.14302 3.82966,0.87844 5.5372,-0.93258 2.14087,-2.27059 3.27281,-5.9083 6.84196,-21.98793 2.64487,-11.91562 5.46557,-18.01215 9.294416,-20.08858 1.99981,-1.08452 4.16293,-1.43364 6.56697,-1.0599 2.51471,0.39096 4.1878,1.2308 5.71895,2.87077 2.52805,2.70771 4.35446,7.03889 5.91715,14.03198 3.12005,13.96238 4.17493,18.01429 5.63562,21.64703 1.12103,2.788 1.79981,3.92595 3.01872,5.06074 1.53406,1.4282 3.33193,1.75826 5.31516,0.97577 z M 105.6395,110.04192 c -1.17727,-0.24495 -4.44,-1.86842 -5.57893,-2.77595 -2.658106,-2.11806 -5.472676,-6.33901 -6.682036,-10.020901 -0.86471,-2.632586 -1.257,-5.416317 -1.26686,-8.989605 -0.0115,-4.149992 0.28592,-5.230672 1.6718,-6.075621 1.14284,-0.696767 1.55773,-0.680284 6.2091,0.246697 6.928566,1.380805 9.522526,1.355736 17.023476,-0.16452 3.96073,-0.802743 5.1222,-0.724512 6.13911,0.413509 1.10942,1.241549 1.35212,2.60428 1.18283,6.641282 -0.19121,4.55975 -0.84974,7.417906 -2.50956,10.891949 -1.59718,3.34295 -3.302,5.47597 -5.81946,7.28113 -2.62672,1.88351 -4.38007,2.50771 -7.32676,2.60834 -1.30969,0.0447 -2.67891,0.0194 -3.04271,-0.0563 z m 6.91618,-3.09183 c 2.14554,-1.06014 5.60882,-4.17125 6.46967,-5.81181 1.08263,-2.063205 1.39188,-2.758625 1.6567,-3.725505 0.27679,-1.010587 0.25941,-1.053716 -0.83149,-2.063652 -3.55064,-3.287122 -11.12751,-4.561258 -16.90799,-2.843268 -2.52793,0.751311 -3.748466,1.383562 -5.439006,2.817445 -1.55859,1.321966 -1.66958,1.762871 -0.8969,3.56272 1.96738,4.58275 6.369356,8.47803 10.223456,9.04667 2.04037,0.30104 3.70627,0.0151 5.72556,-0.9826 z M 72.994124,86.650613 c -1.98853,-0.272518 -5.45462,-1.720824 -5.45462,-2.279208 0,-0.190445 -0.11906,-0.361143 -0.26458,-0.379333 -0.14552,-0.0182 -0.41341,-0.04796 -0.59531,-0.06615 -0.18191,-0.0182 -0.44826,-0.300964 -0.59191,-0.628385 -0.14365,-0.327422 -0.39079,-0.595313 -0.54919,-0.595313 -0.44241,0 -1.43859,-1.167725 -1.43859,-1.686314 0,-0.25387 -0.10604,-0.396047 -0.23565,-0.315947 -0.1296,0.0801 -0.43,-0.151 -0.66755,-0.513553 -0.23756,-0.362551 -0.33988,-0.661009 -0.22738,-0.663237 0.1125,-0.0021 0.0723,-0.09152 -0.0893,-0.198437 -0.4808,-0.318103 -1.06693,-1.670563 -1.51754,-3.501678 -0.79928,-3.247935 -0.19293,-8.833038 1.13233,-10.429877 0.15266,-0.183941 0.19922,-0.412777 0.10347,-0.50853 -0.0958,-0.09575 0.0442,-0.174093 0.31097,-0.174093 0.26679,0 0.4108,-0.07427 0.32002,-0.165052 -0.31401,-0.31401 0.93623,-2.318779 2.15241,-3.451394 1.41952,-1.321991 4.13644,-2.850076 4.58,-2.575944 0.18917,0.116917 0.23354,0.0725 0.11659,-0.116729 -0.16087,-0.260289 0.18597,-0.439475 0.46324,-0.239318 0.0504,0.03638 0.26459,-0.07741 0.476,-0.252865 0.47261,-0.392226 6.22098,-0.703016 6.44027,-0.348197 0.084,0.135972 0.32757,0.180152 0.5412,0.09818 0.21362,-0.08198 0.3884,-0.02984 0.3884,0.115856 0,0.145698 0.26789,0.263165 0.59531,0.261043 0.97664,-0.0063 1.72638,0.252436 3.31842,1.145334 1.76109,0.9877 2.74238,1.80826 2.54479,2.127964 -0.0769,0.124367 -0.0234,0.226123 0.11885,0.226123 0.14224,0 0.74458,0.466916 1.33854,1.03759 0.97652,0.938245 1.20603,1.338705 1.11125,1.938973 -0.0172,0.10914 0.0943,0.198437 0.24789,0.198437 0.37787,0 1.45689,2.41263 1.96281,4.388707 0.418,1.632718 0.39118,5.841217 -0.0417,6.534589 -0.11039,0.176824 -0.23638,0.55962 -0.27999,0.850662 -0.13596,0.907354 -1.2041,3.290647 -1.41609,3.159636 -0.11089,-0.06854 -0.27775,0.115241 -0.37079,0.408397 -0.093,0.293156 -0.30997,0.534832 -0.48207,0.537059 -0.22148,0.0029 -0.2144,0.06656 0.0242,0.218014 0.24276,0.15407 -0.0578,0.601319 -1.07375,1.597795 -1.52982,1.500495 -2.82906,2.448539 -3.11413,2.272355 -0.0988,-0.06104 -0.39369,0.125601 -0.65538,0.414767 -1.12687,1.245179 -5.77462,2.030462 -9.22156,1.55807 z m 11.85412,-5.247986 c -0.0596,-0.05994 0.20434,-0.518864 0.58645,-1.019837 0.91346,-1.197607 0.97067,-3.417763 0.11182,-4.339627 -0.30662,-0.329118 -0.49231,-0.768246 -0.41265,-0.975839 0.10611,-0.276516 0.0548,-0.305429 -0.19195,-0.108135 -0.19352,0.15475 -0.56189,0.178578 -0.86595,0.05602 -1.95258,-0.787017 -4.03197,0.255545 -4.51367,2.26306 -0.29809,1.242253 -0.29888,1.292384 -0.0291,1.840976 0.1401,0.284932 0.28162,0.761182 0.31448,1.058333 0.10334,0.934199 0.12138,0.972037 0.38561,0.808736 0.14207,-0.0878 0.58855,0.02027 0.99218,0.240136 0.63934,0.348276 3.95402,0.509469 3.62283,0.176176 z m -14.08688,-1.346232 c 0.13128,-1.750703 0.0692,-3.132286 -0.13178,-2.931332 -0.12272,0.122722 -0.56214,0.09516 -0.97649,-0.06124 -1.46537,-0.553111 -3.04999,0.9623 -2.42973,2.323613 0.13449,0.295164 0.25361,0.655728 0.26472,0.801249 0.0271,0.354668 1.01934,0.604969 2.23286,0.563239 0.85697,-0.02947 0.99752,-0.123425 1.04042,-0.695531 z m 1.51464,-9.032623 c 0.78606,-0.155088 1.6673,-0.503793 1.9583,-0.774901 0.291,-0.271111 0.63307,-0.428662 0.76016,-0.350118 0.12709,0.07854 0.20164,0.04466 0.16567,-0.07529 -0.036,-0.119957 0.15781,-0.552294 0.43061,-0.960747 0.62513,-0.935998 0.82404,-2.899262 0.43871,-4.330256 -0.30687,-1.13965 -1.76382,-2.841855 -2.68176,-3.133195 -0.28409,-0.09017 -0.51652,-0.263226 -0.51652,-0.384575 0,-0.488593 -3.39718,-0.07134 -4.5333,0.556797 -0.9512,0.525894 -2.74635,2.562212 -2.48721,2.82135 0.0438,0.0438 -0.0129,0.490143 -0.1261,0.991873 -0.23635,1.047945 0.15165,2.940653 0.74318,3.625336 0.22001,0.254662 0.31663,0.463021 0.2147,0.463021 -0.10193,0 0.13863,0.323959 0.53458,0.719907 0.50941,0.509408 0.93843,0.696987 1.46724,0.641517 0.41103,-0.04311 0.74741,0.01987 0.74751,0.139989 2.7e-4,0.337984 1.30774,0.36033 2.88423,0.0493 z m 66.436406,15.726959 c -0.50932,-0.05508 -1.0451,-0.13993 -1.19062,-0.188555 -0.14552,-0.04863 -0.35222,-0.108265 -0.45934,-0.132532 -1.81463,-0.411126 -5.60306,-2.54281 -5.32336,-2.995369 0.0989,-0.159954 0.053,-0.208653 -0.10476,-0.111173 -0.32529,0.201044 -2.7115,-2.349685 -2.7115,-2.898447 0,-0.202544 -0.1,-0.36826 -0.22211,-0.36826 -0.29649,0 -0.83622,-1.213533 -0.83622,-1.880148 0,-0.292782 -0.11451,-0.46156 -0.25447,-0.37506 -0.46153,0.285237 -1.18334,-2.802861 -1.17358,-5.020833 0.0127,-2.884684 0.26216,-4.505553 0.89447,-5.811724 0.29347,-0.606221 0.53358,-1.179589 0.53358,-1.274148 0,-0.09456 0.35719,-0.537322 0.79375,-0.98392 0.43656,-0.446598 0.79375,-0.99351 0.79375,-1.215363 0,-0.221851 0.0981,-0.342728 0.21803,-0.268616 0.11992,0.07411 0.20921,-0.127219 0.19844,-0.447405 -0.0114,-0.339127 0.12154,-0.553519 0.3185,-0.513556 0.18594,0.03773 0.41467,-0.130974 0.50827,-0.374896 0.22177,-0.577927 1.70472,-1.924931 2.1302,-1.934909 0.1819,-0.0043 0.33072,-0.139554 0.33072,-0.300646 0,-0.161088 0.17545,-0.225565 0.38988,-0.143279 0.21444,0.08229 0.48233,-0.0085 0.59531,-0.201851 0.31515,-0.539149 2.17245,-1.385453 3.64502,-1.660901 0.72761,-0.136099 2.27542,-0.20997 3.43959,-0.16416 1.16416,0.04581 2.35479,0.08595 2.64583,0.0892 1.29923,0.0145 5.25291,1.743911 4.98347,2.179865 -0.0937,0.15168 -0.0475,0.199813 0.10272,0.106963 0.15023,-0.09285 0.82704,0.318733 1.50402,0.914633 0.98177,0.864185 1.16916,1.157809 0.92595,1.450856 -0.24343,0.293317 -0.1947,0.367403 0.24165,0.367403 0.60162,0 1.37031,0.916172 1.37031,1.633225 0,0.251431 0.15874,0.55236 0.35275,0.668732 0.19402,0.116371 0.69719,1.164084 1.11817,2.328251 0.64099,1.77261 0.76571,2.525236 0.76728,4.630208 0.002,2.646108 -0.57172,5.397381 -1.3785,6.610977 -0.24317,0.365783 -0.46753,0.824251 -0.49859,1.01881 -0.17667,1.106886 -3.30137,4.452765 -3.84478,4.116924 -0.17337,-0.107154 -0.23026,-0.07032 -0.13342,0.08637 0.19256,0.311566 -1.84114,1.752473 -2.17886,1.543757 -0.12164,-0.07518 -0.48444,0.09165 -0.80623,0.370742 -0.61706,0.53517 -0.95837,0.632698 -3.71657,1.061995 -1.7124,0.266528 -2.2071,0.277352 -3.96875,0.08684 z m 11.00718,-5.771046 c 1.12508,-0.345467 1.83436,-3.109648 1.13382,-4.418621 -0.16193,-0.302572 -0.60841,-0.835559 -0.99219,-1.184423 -0.61249,-0.556773 -0.89422,-0.620935 -2.30521,-0.524986 -1.28097,0.08711 -1.74385,0.24571 -2.27907,0.780931 -0.59507,0.595074 -0.66715,0.872132 -0.63233,2.43075 0.0274,1.226426 0.15669,1.831682 0.42698,1.998732 0.21324,0.131786 0.40258,0.363013 0.42077,0.513844 0.0182,0.150829 0.048,0.406032 0.0661,0.567124 0.0182,0.161089 0.21153,0.224409 0.42965,0.140708 0.21812,-0.0837 0.65936,-0.05498 0.98053,0.06383 0.53222,0.196885 1.20433,0.106998 2.7509,-0.367892 z m -14.0709,-0.376682 c 0.66433,-0.551349 0.92318,-1.89234 0.52066,-2.697358 -0.87475,-1.749441 -3.50772,-1.127173 -3.53355,0.835107 -0.0106,0.802552 0.6656,1.84481 1.19682,1.84481 0.21004,0 0.38188,0.09916 0.38188,0.220366 0,0.330128 0.95465,0.195053 1.43419,-0.202925 z m -5.82707,0.02666 c 0.075,-0.121269 -0.0371,-0.220488 -0.24897,-0.220488 -0.21188,0 -0.38524,0.09922 -0.38524,0.220488 0,0.121266 0.11204,0.220485 0.24897,0.220485 0.13693,0 0.31029,-0.09922 0.38524,-0.220485 z m 18.36294,-10.203775 c 0.72123,-0.365472 1.40444,-0.580541 1.51826,-0.47793 0.11381,0.10261 0.11868,0.03352 0.0108,-0.153541 -0.10787,-0.187057 0.0687,-0.979061 0.39239,-1.760005 0.53057,-1.280083 0.55677,-1.546212 0.2661,-2.702602 -0.17733,-0.705488 -0.61112,-1.661713 -0.96398,-2.124946 -0.35286,-0.463232 -0.64156,-1.058804 -0.64156,-1.323493 0,-0.33809 -0.21645,-0.494162 -0.72761,-0.524656 -0.40018,-0.02387 -1.23341,-0.172992 -1.85161,-0.331377 -2.27103,-0.581848 -4.83564,0.563184 -5.88989,2.62968 -1.18958,2.331763 -0.24796,5.682083 1.91168,6.801855 0.62341,0.323237 1.37159,0.643075 1.66263,0.710753 1.05787,0.245991 3.03119,-0.09431 4.31278,-0.743738 z M 50.990594,202.25142 c 0.37065,-0.16888 0.67391,-0.47027 0.67391,-0.66976 0,-0.51102 0.72758,-0.7304 1.17922,-0.35557 0.29935,0.24844 0.97804,0.11548 3.23778,-0.6343 3.08743,-1.0244 6.38781,-1.73748 8.04169,-1.73748 h 1.03506 l -0.006,-3.24115 c -0.003,-1.78263 -0.11822,-4.90802 -0.25581,-6.94531 -0.58468,-8.65812 -0.79665,-11.66298 -1.17584,-16.66875 -0.22046,-2.91042 -0.58293,-8.32776 -0.80548,-12.03854 -0.22255,-3.71078 -0.57538,-8.89 -0.78407,-11.50937 -0.20868,-2.61938 -0.45261,-5.88883 -0.54207,-7.26544 -0.0894,-1.37662 -0.29011,-2.65654 -0.44591,-2.84427 -0.15581,-0.18774 -0.65566,-0.34512 -1.11078,-0.34975 -0.45513,-0.005 -1.05862,-0.18322 -1.34109,-0.39687 -0.28248,-0.21366 -0.78849,-0.38847 -1.12448,-0.38847 -0.69501,0 -0.81784,-0.39313 -0.19725,-0.63128 1.35299,-0.51919 -1.26034,-0.9185 -2.79489,-0.42705 -0.65973,0.21128 -0.65985,0.21191 -0.0441,0.23821 0.3687,0.0157 0.57296,0.15958 0.50712,0.3571 -0.0606,0.1819 -0.21939,0.32795 -0.35278,0.32455 -3.66199,-0.0934 -8.07197,-0.50433 -8.69189,-0.8099 -0.89051,-0.43893 -1.13291,-0.28664 -1.3613,0.85528 -0.14298,0.71495 -0.0799,0.83734 0.5077,0.98482 0.46886,0.11767 0.65857,0.33314 0.62978,0.71529 -0.0353,0.46797 -0.16429,0.5238 -0.89416,0.38687 -0.84483,-0.15849 -0.86329,-0.13916 -1.93661,2.02781 -1.70261,3.43746 -3.0554,4.52465 -4.88052,3.9223 -2.05313,-0.67759 -2.62281,-2.94945 -1.34262,-5.35429 0.77641,-1.45848 0.78856,-1.53137 0.25528,-1.53137 -0.32163,0 -0.34833,-0.10811 -0.12826,-0.51932 0.15464,-0.28894 0.44312,-0.45592 0.65031,-0.37641 0.5914,0.22694 1.5439,-0.89699 1.36483,-1.61047 -0.092,-0.36646 -0.004,-0.73193 0.22222,-0.91938 0.29001,-0.24069 0.31352,-0.48713 0.10385,-1.08861 -0.14907,-0.42761 -0.36845,-0.77748 -0.4875,-0.77748 -0.11906,0 -0.59367,0.47625 -1.05468,1.05833 -0.81575,1.02997 -0.88195,1.05831 -2.46963,1.05733 -1.65661,-0.001 -6.19671,-0.63964 -6.46668,-0.90961 -0.0813,-0.0812 0.0167,-0.14772 0.21766,-0.14772 0.27515,0 0.25232,-0.11305 -0.0925,-0.45784 -0.38027,-0.38028 -0.54678,-0.40231 -0.98274,-0.13005 -0.30031,0.18755 -0.52488,0.21606 -0.52488,0.0666 0,-0.17078 -0.20601,-0.17199 -0.59532,-0.003 -0.32742,0.14171 -2.05781,0.35746 -3.8453,0.47942 -3.2888,0.22442 -3.92112,0.41722 -3.51632,1.07221 0.15463,0.2502 1.02422,0.39932 2.83325,0.48586 2.74134,0.13114 3.38567,0.35869 2.7311,0.96452 -0.31015,0.28705 -0.86525,0.30505 -2.83867,0.092 -1.34922,-0.14563 -2.50665,-0.21126 -2.57207,-0.14584 -0.0654,0.0654 0.13614,0.63454 0.44793,1.26471 0.51129,1.03341 0.53487,1.2655 0.24053,2.36681 -0.97591,3.6515 -5.06366,3.88226 -6.54822,0.36966 -0.2094,-0.49546 -0.35983,-1.8017 -0.35983,-3.12447 0,-1.44801 -0.096,-2.21372 -0.26458,-2.10955 -0.14552,0.0899 -0.26459,0.0583 -0.26459,-0.0704 0,-0.12864 -0.38695,-0.23625 -0.85989,-0.23914 -0.47294,-0.003 -2.4449398,-0.16749 -4.3822158,-0.3658 -2.773122,-0.28386 -3.56494,-0.29159 -3.722706,-0.0363 -0.110212,0.17833 -0.589868,2.55453 -1.065901,5.28044 -0.476033,2.72591 -1.382458,7.81371 -2.01428299,11.30621 -0.631825,3.4925 -1.81490701,10.39812 -2.62907201,15.34583 -0.814168,4.94771 -2.012757,12.1792 -2.663532,16.06999 -1.539324,9.20314 -1.532263,9.78832 0.128468,10.64712 0.811734,0.41977 11.307202,2.45338 19.7226818,3.8215 2.76489,0.44949 6.27723,1.04877 7.8052,1.33174 1.52797,0.28297 4.445,0.76339 6.48229,1.06762 2.0373,0.30423 4.7162,0.72337 5.95313,0.93143 1.23693,0.20806 4.57068,0.73353 7.40833,1.16771 2.83766,0.43418 5.45703,0.83825 5.82084,0.89793 1.22413,0.20083 1.55982,0.18184 2.2365,-0.12647 z m 22.35753,-6.72027 c 1.66677,-0.80791 3.90366,-1.83243 4.97086,-2.27671 2.33178,-0.97072 2.78712,-1.37283 2.6092,-2.30422 -0.34625,-1.81252 -1.58877,-11.00343 -1.86008,-13.75895 -0.077,-0.78234 -0.19854,-1.79437 -0.27002,-2.24896 -0.0715,-0.4546 -0.1912,-1.34382 -0.26604,-1.97605 -0.0748,-0.63224 -0.49499,-3.90646 -0.93368,-7.27605 -0.43869,-3.36959 -1.38775,-10.92149 -2.10904,-16.782 -0.72128,-5.86051 -1.3727,-10.75462 -1.44759,-10.87581 -0.0749,-0.12119 -0.75034,-0.12326 -1.50097,-0.005 -0.98179,0.1552 -1.60945,0.11353 -2.2366,-0.14852 -0.47949,-0.20034 -1.9823,-0.49638 -3.33959,-0.65786 -3.99453,-0.47525 -4.10934,-0.51032 -4.46267,-1.36333 -0.21356,-0.51558 -0.5079,-0.76835 -0.89471,-0.76835 -0.62904,0 -1.21144,0.45474 -1.21144,0.94591 0,0.39061 1.55955,1.16488 2.00332,0.99458 0.18157,-0.0697 0.39718,0.0903 0.47913,0.35548 0.23449,0.75876 0.48462,4.16011 0.56079,7.6259 0.0384,1.74625 0.20562,4.90141 0.37164,7.01146 0.16602,2.11005 0.41997,5.6224 0.56433,7.80521 0.40065,6.05791 2.09003,28.37832 2.24288,29.63333 0.0354,0.29104 0.15268,1.91338 0.26051,3.60519 l 0.19606,3.07602 0.82786,0.41279 c 1.3764,0.68629 2.25904,0.52026 5.44585,-1.02445 z m 95.526786,0.54682 c 1.52797,-0.21099 4.67449,-0.63116 6.99227,-0.93372 2.31778,-0.30255 4.30086,-0.60368 4.40684,-0.66918 0.10598,-0.0655 1.78149,-0.35686 3.72335,-0.64747 1.94187,-0.29062 4.24504,-0.65631 5.11817,-0.81267 0.87312,-0.15636 2.30187,-0.38372 3.175,-0.50525 2.73025,-0.38002 5.21304,-0.80106 5.39809,-0.91543 0.0977,-0.0604 1.48298,-0.30243 3.07834,-0.53784 1.59536,-0.23541 3.67456,-0.60114 4.62044,-0.81273 0.94589,-0.21159 3.56526,-0.7499 5.82083,-1.19625 4.61211,-0.91267 5.63739,-1.20569 6.68073,-1.90931 0.93989,-0.63384 0.95526,-1.68325 0.08,-5.46314 -0.35618,-1.53819 -1.06942,-4.64218 -1.58499,-6.89775 -3.39617,-14.85793 -9.63209,-39.22258 -10.17853,-39.76902 -0.17065,-0.17065 -0.96063,-0.1473 -2.2941,0.0678 -1.49394,0.241 -2.08242,0.24947 -2.21688,0.0319 -0.10067,-0.1629 -0.53135,-0.3428 -0.95704,-0.39976 -0.4257,-0.057 -1.30978,-0.22964 -1.96462,-0.38371 -1.70023,-0.40003 -1.85209,-0.36982 -1.85209,0.36839 0,0.48507 0.14111,0.66146 0.52917,0.66146 0.61195,0 0.71147,0.47582 0.14499,0.6932 -0.22376,0.0859 -0.44887,0.66243 -0.5391,1.38076 -0.25343,2.01751 -0.65435,3.21771 -1.07484,3.21771 -0.31333,0 -0.35001,-0.21964 -0.18782,-1.12448 0.11086,-0.61847 0.20063,-3.14854 0.19949,-5.6224 -0.002,-4.40809 -0.24543,-6.51079 -1.11785,-9.65729 -0.38888,-1.40254 -1.80151,-4.49792 -2.05271,-4.49792 -0.0673,0 -0.34065,0.44649 -0.60752,0.99219 -0.26687,0.54571 -0.65204,1.25458 -0.85594,1.57528 -0.3254,0.51181 -0.30098,0.80293 0.1998,2.38125 1.20889,3.81016 1.86289,9.62378 1.46553,13.0275 -0.12399,1.06206 -0.17146,1.12832 -0.49318,0.68834 -0.30438,-0.41626 -0.41859,-0.43486 -0.78796,-0.12832 -0.33755,0.28015 -0.39577,0.63143 -0.26634,1.60713 0.18538,1.3975 -0.21601,1.96264 -0.81356,1.14545 -0.4138,-0.5659 -0.48245,-2.92364 -0.0922,-3.16486 0.46538,-0.28761 0.28379,-0.66146 -0.32128,-0.66146 -0.52419,0 -0.54352,-0.0423 -0.18369,-0.40216 0.22119,-0.22119 0.68445,-0.45653 1.02946,-0.52298 0.92104,-0.17737 1.10862,-0.47672 1.01492,-1.61968 l -0.0842,-1.02705 -2.51257,-0.0769 c -2.81382,-0.0862 -4.49888,0.40366 -4.49888,1.30775 0,0.36858 -0.19847,0.48898 -0.80606,0.48898 -0.61467,0 -0.91225,-0.18503 -1.2533,-0.77928 -0.76129,-1.32646 -2.17398,-1.32352 -2.17398,0.005 0,1.23005 -0.43702,1.32875 -6.81806,1.53989 -0.80598,0.0267 -0.85257,0.0779 -0.68351,0.75149 0.0998,0.39758 0.18143,0.86859 0.18143,1.04669 0,0.1781 0.0992,0.2625 0.22049,0.18755 0.12127,-0.0749 0.22049,0.002 0.22049,0.17126 0,0.21397 0.58361,0.27909 1.91822,0.21406 1.56514,-0.0763 1.91823,-0.0209 1.91823,0.30091 0,0.27042 -0.42903,0.46268 -1.36489,0.61165 l -1.3649,0.21725 0.36178,0.69733 c 0.26707,0.51478 0.28515,0.78966 0.0691,1.05 -0.38944,0.46925 -0.87554,-0.057 -2.13633,-2.31286 -2.04894,-3.66603 -4.15555,-10.53064 -4.16131,-13.56008 -0.002,-1.07107 -0.14058,-1.40929 -0.92128,-2.24896 l -0.91888,-0.9883 -0.007,3.39802 c -0.0114,5.40906 1.33609,10.87861 3.95864,16.06843 0.72313,1.43103 1.22799,2.65291 1.12189,2.71529 -0.47736,0.28067 -1.30565,-0.40244 -1.91269,-1.57744 -0.3638,-0.70418 -0.80248,-1.43197 -0.97485,-1.61732 -0.17237,-0.18534 -0.38875,-0.57441 -0.48085,-0.86459 -0.0921,-0.29017 -0.27475,-0.52759 -0.4059,-0.52759 -0.13114,0 -0.16909,-0.18073 -0.0843,-0.40163 0.0848,-0.22089 0.0111,-0.747 -0.16378,-1.16911 -0.30816,-0.74396 -0.362,-0.76294 -1.75607,-0.61906 -1.15799,0.11951 -1.41298,0.0767 -1.30891,-0.21995 0.0711,-0.20261 0.18515,-0.84463 0.25346,-1.42671 0.0683,-0.58208 0.25505,-1.53458 0.41497,-2.11667 0.15993,-0.58208 0.27006,-2.36802 0.24475,-3.96875 -0.13007,-8.22563 -0.23952,-10.4418 -0.58145,-11.77395 l -0.37352,-1.45521 -0.68487,2.24895 c -1.12983,3.71014 -1.29829,5.27965 -1.20082,11.18816 0.0724,4.38681 0.019,5.54399 -0.26387,5.71891 -0.19502,0.12061 -0.37362,0.71153 -0.39687,1.31315 -0.0387,1.00056 -0.10302,1.09389 -0.75427,1.09412 -0.3916,1.3e-4 -0.78678,-0.12076 -0.87818,-0.26865 -0.0914,-0.1479 -0.26765,-0.20619 -0.39167,-0.12955 -0.124,0.0766 -0.60613,0.18367 -1.07138,0.23784 -1.14551,0.13337 -1.83074,1.30123 -0.95963,1.63551 0.66494,0.25516 0.40023,0.93817 -0.33073,0.85336 -0.58669,-0.0681 -0.69485,0.0331 -0.76357,0.71445 -0.49691,4.92661 -4.45933,27.13299 -6.56236,36.77708 -1.45118,6.65486 -2.70118,14.02792 -2.42504,14.30406 0.0804,0.0804 1.06837,0.19984 2.19541,0.26535 2.29948,0.13366 4.7366,0.6849 6.39458,1.44636 0.61051,0.2804 1.60077,0.58828 2.20057,0.68419 0.59979,0.0959 1.25638,0.34023 1.45909,0.54293 1.18024,1.18025 3.43249,1.38991 8.0626,0.75056 z M 40.363544,143.35044 c 0.98366,-1.02672 4.00218,-8.69575 5.08838,-12.92783 2.1151,-8.24093 2.4086,-17.22744 0.70738,-21.65892 -0.76873,-2.00247 -2.63027,-4.34859 -4.48282,-5.64978 -0.75052,-0.52715 -0.85989,-0.54659 -0.85989,-0.15286 0,0.24811 0.46732,1.41708 1.0385,2.59771 0.57118,1.18062 1.22505,2.87441 1.45305,3.76397 0.51072,1.99257 0.92056,11.12811 0.48723,10.86029 -0.19076,-0.11789 -0.23626,0.17096 -0.13999,0.88868 0.16448,1.22628 -0.22401,3.94459 -1.14191,7.99014 -0.99038,4.365 -1.74009,6.21283 -4.91464,12.1133 -0.33829,0.62877 -0.44387,1.18085 -0.32891,1.7198 0.24375,1.14273 0.29991,1.19062 1.39611,1.19062 0.74059,0 1.17236,-0.18698 1.69751,-0.73512 z m -22.17509,-1.97051 c 0.88245,-0.75904 1.25596,-2.74303 0.56625,-3.00769 -0.23894,-0.0917 -0.61151,-0.0197 -0.82794,0.15987 -0.33287,0.27626 -0.3927,0.20947 -0.38827,-0.43342 0.0271,-3.92803 2.01365,-9.45072 4.61408,-12.82727 1.9306,-2.5068 1.93328,-2.51961 0.77597,-3.70481 -0.55262,-0.56593 -1.09215,-1.02897 -1.19894,-1.02897 -0.29763,0 -2.94845,4.13035 -4.02761,6.27558 -2.80383,5.57366 -3.99672,11.13501 -2.90174,13.52819 0.6433,1.40598 0.76139,1.51128 1.77112,1.57928 0.63632,0.0428 1.13085,-0.12252 1.61708,-0.54076 z m 31.95777,-5.5626 c 0.22566,-0.59311 -0.30395,-1.5231 -1.02308,-1.79651 -0.63682,-0.24212 -0.66623,-0.3107 -0.31041,-0.72376 0.8757,-1.01655 1.68356,-12.40506 1.1176,-15.75496 -0.0961,-0.56871 -0.44047,-1.63623 -0.76531,-2.37228 l -0.59062,-1.33827 -0.16903,4.74211 c -0.0997,2.79836 -0.33839,5.44396 -0.58222,6.4544 -0.22726,0.94176 -0.45911,1.95379 -0.51522,2.24896 -0.0561,0.29517 -0.11913,0.53667 -0.14003,0.53667 -0.0209,0 -0.0941,0.9956 -0.16269,2.21245 -0.0778,1.38009 -0.002,2.57459 0.20033,3.175 0.17875,0.5294 0.29198,1.30612 0.25161,1.72603 -0.0406,0.42263 0.0848,0.86378 0.28104,0.98814 0.54371,0.34461 2.2663,0.27453 2.40803,-0.098 z m 10.75772,-1.89294 c 0.4233,-0.51005 0.26957,-1.24006 -1.17538,-5.58154 -1.9939,-5.99084 -5.1106,-12.75237 -7.66832,-16.636 -1.67317,-2.54055 -5.67946,-6.63901 -6.0716,-6.2113 -0.047,0.0512 0.7502,1.52189 1.77147,3.26814 3.4922,5.97125 7.13585,14.00999 9.96524,21.98566 1.14563,3.22936 1.72779,4.17408 2.36277,3.83425 0.26589,-0.1423 0.63301,-0.43895 0.81582,-0.65921 z m 100.708796,0.37159 c 0.2688,0 0.33426,-0.80975 0.29765,-3.6819 -0.0258,-2.02505 -0.072,-3.65693 -0.10263,-3.62642 -0.0306,0.0305 -0.4784,1.53807 -0.99502,3.35012 -0.51663,1.81206 -1.01119,3.52109 -1.09903,3.79784 -0.14116,0.44476 -0.0602,0.48328 0.69736,0.33177 0.47139,-0.0943 1.01214,-0.17141 1.20167,-0.17141 z M 33.672844,133.66383 c 0,-0.34768 -0.22801,-0.91323 -0.50669,-1.25677 l -0.50669,-0.62462 -0.68394,0.64143 c -0.66054,0.6195 -0.87322,1.33005 -0.50754,1.69572 0.097,0.097 0.63279,0.17639 1.19062,0.17639 0.89292,0 1.01424,-0.0756 1.01424,-0.63215 z m 147.372906,-2.69671 c 0,-1.10652 -0.46419,-1.69823 -1.33223,-1.69823 -0.89074,0 -0.89147,0.004 -0.48395,2.34368 l 0.3005,1.72557 0.75784,-0.84817 c 0.41681,-0.4665 0.75784,-1.15178 0.75784,-1.52285 z M 55.184724,130.52567 c -0.49725,-1.34607 -1.46296,-3.87615 -2.14601,-5.6224 -1.22706,-3.13701 -1.24268,-3.16076 -1.30551,-1.98438 -0.035,0.65485 -0.25621,3.0133 -0.49163,5.24102 -0.23542,2.22771 -0.36341,4.115 -0.28444,4.19398 0.18666,0.18665 2.65135,0.5439 4.04401,0.58616 l 1.08767,0.033 z m 120.370586,1.82006 c 0.52042,-0.7847 0.0681,-1.09215 -1.7222,-1.1707 -0.98076,-0.043 -1.7832,-0.031 -1.7832,0.0267 0,0.0577 0.13389,0.48898 0.29754,0.95842 0.29618,0.84963 0.30374,0.85269 1.65365,0.66892 0.74586,-0.10153 1.44525,-0.31903 1.55421,-0.48331 z m 8.64981,-2.47118 c -0.30406,-1.08601 -0.85058,-1.67973 -1.21278,-1.31753 -0.19739,0.19739 0.38893,2.00391 0.91804,2.82854 0.37863,0.59012 0.43528,0.6081 0.52519,0.16673 0.0554,-0.2721 -0.0483,-1.02708 -0.23045,-1.67774 z m -148.533416,1.22298 c 0.0979,-0.15842 0.61872,-1.45021 1.15737,-2.87065 l 0.97935,-2.58263 -1.14654,-0.60823 c -0.6306,-0.33453 -1.18776,-0.56079 -1.23815,-0.50279 -0.18585,0.21395 -1.20165,3.57692 -1.37084,4.53839 -0.26302,1.49471 0.98321,3.05434 1.61881,2.02591 z m 5.50689,-1.77985 c 0.23746,-0.84629 0.42326,-2.00715 0.41288,-2.57968 -0.0164,-0.90357 -0.10315,-0.74413 -0.65735,1.20798 -0.6982,2.45931 -0.76283,2.91041 -0.41698,2.91041 0.12634,0 0.424,-0.69242 0.66145,-1.53871 z m -9.66232,0.92533 c 0.32245,-0.38853 1.42644,-5.76119 1.22518,-5.96245 -0.0703,-0.0703 -0.39546,0.0146 -0.72266,0.18861 -0.46898,0.24938 -1.0688,0.23328 -2.83353,-0.0761 -1.23123,-0.21584 -2.27766,-0.3534 -2.32538,-0.30567 -0.13519,0.13518 2.35734,0.90635 3.54147,1.0957 l 1.06355,0.17007 -0.31363,1.23025 c -0.58724,2.30361 -0.71401,4.00838 -0.29807,4.00838 0.20548,0 0.50386,-0.15696 0.66307,-0.3488 z m -5.1773,-2.23089 c -0.45159,-2.00458 -0.46553,-2.03481 -0.83346,-1.80742 -0.29384,0.18161 -1.88684,3.03165 -1.88684,3.37576 0,0.11968 0.70259,0.2176 1.56131,0.2176 h 1.56132 z m 156.644806,0.15529 c 2.44518,-0.5244 5.73488,-2.2735 5.73488,-3.04919 0,-0.21524 -0.0893,-0.35097 -0.19844,-0.30163 -0.10914,0.0493 -0.80225,0.40768 -1.54024,0.79631 -2.72007,1.4324 -6.97104,2.09236 -10.03764,1.55833 -2.00627,-0.34937 -4.74659,-1.22734 -5.54661,-1.77706 -0.85769,-0.58935 -1.07064,-0.40694 -0.38412,0.32904 0.9141,0.97997 2.71246,1.82404 5.00705,2.35009 1.09141,0.25022 2.10344,0.49834 2.24896,0.55138 0.38799,0.14142 3.19245,-0.13049 4.71616,-0.45727 z m 2.5044,-3.65812 c 2.5966,-1.21509 4.68905,-3.53879 5.61801,-6.23886 0.78609,-2.2848 0.91658,-4.43718 0.41659,-6.8715 -0.70191,-3.41741 -1.37667,-4.48868 -4.9103,-7.79571 -2.26951,-2.12396 -3.61438,-3.646823 -4.85957,-5.502692 -2.05671,-3.065394 -2.83587,-3.61877 -5.01093,-3.558897 -2.89505,0.07969 -4.04243,1.38549 -4.01098,4.564763 0.0117,1.178946 0.18833,2.373246 0.43527,2.942456 0.40794,0.94033 0.88125,1.18258 2.65395,1.35836 0.25467,0.0252 0.46303,0.12557 0.46303,0.22294 0,0.0974 0.26789,0.2685 0.59531,0.3803 0.52403,0.17894 0.48443,0.2147 -0.33073,0.2987 -5.82042,0.59975 -7.37183,1.60376 -7.98428,5.16709 -0.36658,2.13285 -0.32257,2.79645 0.2411,3.6349 0.81523,1.21267 1.11188,2.3485 0.70217,2.68853 -0.47552,0.39465 -1.15889,0.11461 -1.16949,-0.47924 -0.005,-0.25923 -0.18792,-0.70887 -0.40732,-0.9992 -0.34181,-0.45233 -0.43418,-0.47126 -0.64533,-0.1323 -0.39032,0.62663 -0.60745,2.57823 -0.43048,3.86937 0.18342,1.33818 1.14016,3.1235 2.188,4.08293 0.69852,0.63957 0.70356,0.64011 0.56068,0.0598 -0.0794,-0.32267 0.009,-0.71231 0.19592,-0.86783 0.25666,-0.21301 0.5907,10e-4 1.36174,0.8725 1.16999,1.32239 2.70344,2.37302 4.11018,2.81602 3.01463,0.94935 7.58336,0.72023 10.21746,-0.51242 z M 41.411084,123.69501 c 1.17304,-0.53447 1.59213,-2.64083 0.95112,-4.78031 -0.16855,-0.56259 -0.44204,-1.02289 -0.60776,-1.02289 -0.16571,0 -0.77194,0.48762 -1.34718,1.08361 -1.06353,1.10188 -4.36068,3.41431 -4.86826,3.41431 -0.92569,0 0.34064,0.90232 2.36717,1.68673 0.57344,0.22196 2.68493,-0.008 3.50491,-0.38145 z m -7.36449,-2.64227 c 2.37407,-0.88825 4.51153,-2.50893 5.31285,-4.02833 0.44088,-0.83596 0.57516,-0.93414 0.81991,-0.59942 0.33872,0.46323 0.63724,0.26646 0.63724,-0.42005 0,-0.26167 0.23562,-0.60187 0.52361,-0.75599 1.21088,-0.64804 1.61597,-4.78405 0.68646,-7.00869 -0.50519,-1.20909 -1.53935,-1.72386 -2.22202,-1.10605 -0.75907,0.68695 -1.19506,0.56042 -0.99495,-0.28875 0.50192,-2.12988 0.48566,-2.93918 -0.0773,-3.85013 -0.30888,-0.49978 -0.5616,-1.16292 -0.5616,-1.47365 0,-0.86513 -2.32008,-3.103271 -3.57187,-3.445724 -1.56835,-0.429054 -3.92939,-0.348353 -6.65744,0.227552 -2.99656,0.632587 -4.05687,1.067721 -5.78963,2.375962 -1.94233,1.46648 -2.97924,3.73235 -3.52107,7.6943 -0.61998,4.53339 2.16285,10.15701 6.08161,12.28987 2.69342,1.46594 6.07893,1.60707 9.33424,0.3891 z m 160.046786,-8.18801 c 0.0982,-4.48594 -1.30365,-6.82277 -7.31612,-12.19553 -0.70398,-0.62907 -1.99812,-2.192308 -2.87587,-3.473862 -2.18806,-3.194659 -2.36033,-3.143991 -0.40138,0.118044 1.11785,1.861417 2.17514,3.219778 3.35205,4.306558 2.98648,2.75776 4.1857,4.12274 5.05507,5.75386 1.16853,2.19239 1.56343,3.88085 1.59363,6.81385 0.0209,2.02681 0.076,2.35984 0.28464,1.71979 0.14231,-0.43657 0.2809,-1.80578 0.30798,-3.04271 z M 20.637154,99.827481 c 0.69395,-0.710342 1.79751,-1.601089 2.45235,-1.979437 0.65485,-0.378349 1.23222,-0.718225 1.28304,-0.755283 0.17403,-0.126878 -0.27092,-2.2197 -0.47192,-2.2197 -0.11039,0 -1.02266,0.836496 -2.02726,1.85888 -2.04834,2.084581 -3.32058,4.064459 -3.92963,6.115359 -0.70577,2.37657 -0.44361,2.56751 0.51384,0.37426 0.60886,-1.39473 1.34261,-2.53734 2.17958,-3.394079 z m 17.99764,-3.407375 c 0.5044,-2.551052 -0.49898,-4.192878 -2.56243,-4.192878 -2.40215,0 -3.65514,0.685882 -4.94472,2.706721 -0.34639,0.542812 -0.62948,1.019062 -0.62909,1.058334 2.6e-4,0.03927 0.92313,0.07916 2.05052,0.08863 1.83342,0.0154 3.9403,0.447204 4.29877,0.881009 0.17178,0.207894 1.14274,0.785876 1.354,0.805995 0.0899,0.0086 0.28468,-0.597955 0.43295,-1.347811 z m -10.88741,0.301863 c 0.49915,-0.174006 1.0158,-0.706689 1.47557,-1.521354 0.38911,-0.689478 0.92444,-1.496581 1.18962,-1.79356 1.57926,-1.768665 1.513,-1.513821 0.79916,-3.073649 -0.78541,-1.716235 -4.96318,-10.819383 -6.03031,-13.139742 -0.42295,-0.919657 -0.769,-1.720347 -0.769,-1.779312 0,-0.05896 -0.34161,-0.854326 -0.75913,-1.767477 -1.11111,-2.430079 -2.68045,-6.715326 -2.68045,-7.319243 0,-0.290415 -0.38214,-0.788987 -0.8599,-1.121907 -0.90697,-0.632005 -3.0931,-2.88049 -3.10302,-3.191526 -0.0207,-0.650581 0.72776,-0.358468 1.75725,0.685779 1.39131,1.41124 2.44344,1.969383 4.23141,2.244701 1.3793,0.212391 3.33986,-0.204901 4.56833,-0.972339 0.7198,-0.449669 3.2609,-2.701361 3.04856,-2.701361 -0.0684,0 0.15638,-0.446484 0.4994,-0.992187 1.37758,-2.191586 2.18147,-6.155031 1.94212,-9.575236 -0.18597,-2.657327 -0.24032,-2.942995 -0.85884,-4.513826 -1.70824,-4.338354 -4.29425,-6.332529 -8.5094,-6.561942 -1.95906,-0.106621 -2.32455,-0.04732 -3.62273,0.587822 -2.36223,1.155732 -3.99107,2.82248 -5.15785,5.27789 -1.81929,3.828579 -2.4108,7.729363 -1.75433,11.569072 0.43231,2.528562 0.77337,3.576299 6.49448,19.951115 1.7795,5.093229 3.88584,11.165416 4.68077,13.493749 1.37306,4.02164 2.34252,6.482291 2.55395,6.482291 0.0529,0 0.44189,-0.120491 0.86434,-0.267758 z"
       id="path3768" /></g></svg>
