<?xml version="1.0" encoding="UTF-8" standalone="no"?>
<!-- Created with Inkscape (http://www.inkscape.org/) -->

<svg
   width="155.05087mm"
   height="197.80237mm"
   viewBox="0 0 155.05087 197.80235"
   version="1.1"
   id="svg1"
   xml:space="preserve"
   xmlns="http://www.w3.org/2000/svg"
   xmlns:svg="http://www.w3.org/2000/svg"><defs
     id="defs1"><clipPath
       clipPathUnits="userSpaceOnUse"
       id="clipPath415"><path
         id="path416"
         style="fill:#ff0000;fill-opacity:1;fill-rule:nonzero;stroke:none;stroke-width:0.264583"
         d="m 193.4142,-378.4866 v 200.33195 H 414.19038 V -378.4866 Z m 125.18512,115.62033 c 0.0293,-0.001 0.058,-0.001 0.0863,0 0.2215,0.009 0.39576,0.0993 0.53227,0.22996 0.0959,-0.0264 0.18888,-0.0418 0.27802,-0.046 0.94416,-0.0446 1.45564,1.10269 0.35191,2.25981 -0.76795,0.80508 -1.59741,1.54823 -2.42052,2.29546 -1.37643,1.23199 -2.74642,2.47204 -4.10259,3.72588 -0.66412,0.60739 -0.34832,0.31547 -0.94775,0.87539 -0.27581,0.25763 -0.54852,0.42246 -0.80409,0.51418 -0.31603,0.27783 -0.61521,0.5752 -0.93586,0.84802 -0.89113,0.73877 -1.76359,1.50101 -2.60345,2.29856 -0.64809,0.63848 -1.27009,1.30102 -1.93012,1.92753 -0.38268,0.35575 -0.79616,0.67534 -1.19941,1.00718 -0.03,0.44314 -0.37159,0.94214 -1.12293,1.28726 -0.69728,0.32028 -1.4016,0.62559 -2.09083,0.96325 -0.79583,0.39498 -1.59314,0.78758 -2.40915,1.13946 -2.043,0.88097 -2.8733,-1.19679 -0.83458,-2.08669 0.008,-0.003 0.0158,-0.007 0.0238,-0.0109 0.16379,-0.13226 0.36228,-0.25676 0.6077,-0.36225 0.15767,-0.0677 0.31369,-0.1396 0.47027,-0.2098 0.4718,-0.24126 0.93583,-0.4964 1.40456,-0.74363 0.63433,-0.34956 1.26092,-0.7197 1.85002,-1.14153 0.61778,-0.4495 1.1905,-0.95694 1.75338,-1.47278 0.66035,-0.62632 1.27972,-1.29167 1.93063,-1.92753 0.87014,-0.82453 1.7707,-1.61558 2.69389,-2.38022 0.99048,-0.84187 1.96289,-1.70684 2.89439,-2.61431 0.0145,-0.18835 0.0577,-0.3866 0.17105,-0.59841 -0.69759,-0.31789 -0.80804,-1.35138 0.34882,-2.16783 0.92983,-0.65578 0.45606,-0.33029 1.42162,-0.97616 1.02648,-0.66721 2.07733,-1.3008 3.16312,-1.86811 0.4935,-0.51516 1.00557,-0.75045 1.41955,-0.76584 z m 6.40839,0.6103 c 0.54596,0.0233 0.89407,0.54227 0.76171,1.32395 0.153,0.15555 0.26568,0.3892 0.34624,0.66662 0.0614,-0.009 0.12284,-0.016 0.18448,-0.016 0.79453,0 1.58,0.78644 1.5627,2.35955 -0.009,0.79204 0.12314,1.57529 0.26303,2.35179 0.2545,1.17844 0.52165,2.35463 0.79168,3.5295 0.56177,0.29902 1.02628,1.03166 1.06454,2.20245 0.0347,1.06331 0.13605,2.12297 0.2098,3.18431 0.0362,0.154 0.0721,0.30802 0.10852,0.46198 0.25793,1.15197 0.52757,2.30148 0.77102,3.45664 0.19711,0.91685 0.39256,1.8341 0.58084,2.7528 0.0962,0.53685 0.1803,1.07568 0.262,1.61489 0.36796,2.42852 -1.46752,3.25066 -2.51406,2.01487 -0.79123,0.0659 -1.64815,-0.65024 -1.78129,-2.21641 -0.0904,-1.06319 -0.18063,-2.12696 -0.27026,-3.1905 -0.53489,0.70761 -1.44945,0.75537 -2.08411,0.0408 0.0216,0.88535 0.0113,1.772 0.0517,2.6572 0.14338,3.14282 -3.03312,3.28655 -3.175,0.14366 -0.037,-0.82056 -0.0635,-1.64148 -0.0853,-2.46238 -0.0659,0.18029 -0.0496,0.14064 -0.14625,0.40566 -1.07829,2.95555 -4.06427,1.86616 -2.98586,-1.08934 0.7899,-2.16505 0.39158,-1.06389 1.19269,-3.30471 0.66621,-1.94292 1.362,-3.90421 1.73736,-5.92935 -0.0582,-0.70768 -0.13935,-1.41301 -0.26097,-2.11357 -0.0745,-0.4293 -0.0792,-0.8119 -0.032,-1.14567 -0.73313,-0.0468 -1.21478,-0.93089 -0.51884,-2.1208 0.47574,-0.81338 0.93899,-1.6337 1.39785,-2.4567 0.36728,-0.6664 0.74778,-1.32757 1.09606,-2.00349 0.41401,-0.80345 0.99422,-1.13762 1.47174,-1.11725 z m 83.17322,12.25455 h 5.3e-4 5.3e-4 c 0.69769,0.004 1.45673,0.61137 1.77145,1.95078 0.13711,0.583 0.21127,1.17777 0.26924,1.77302 0.0468,0.52064 0.0683,1.04288 0.0822,1.56528 0.0116,0.61982 0.0236,1.23981 0,1.85932 -0.0417,0.5707 -0.0842,1.14148 -0.11215,1.71307 -0.006,0.55909 -0.0642,1.11439 -0.15502,1.66553 -0.006,0.0384 -0.0222,0.0744 -0.0289,0.11266 0.10184,0.3337 0.15875,0.73308 0.13848,1.21646 -0.0337,0.8036 -0.25268,1.58401 -0.4713,2.35335 -0.2556,0.83605 -0.50867,1.67296 -0.78134,2.50372 -0.25555,0.75435 -0.52941,1.5028 -0.81493,2.24637 -0.24768,0.70126 -0.55285,1.3798 -0.85938,2.05673 -0.24642,0.50945 -0.50213,1.01342 -0.72606,1.53323 -0.23072,0.55708 -0.49984,1.09587 -0.77773,1.6304 -0.32083,0.60357 -0.65749,1.19848 -0.99425,1.79317 -0.3126,0.5199 -0.63226,1.03548 -0.95757,1.54719 -0.23343,0.54476 -0.46052,1.09231 -0.71261,1.62884 -0.52436,1.18291 -1.17006,2.30212 -1.83607,3.4091 -0.25625,0.42466 -0.52563,0.84093 -0.80047,1.25367 -0.0989,0.19876 -0.18134,0.40536 -0.28577,0.60151 -0.49269,0.89486 -1.0762,1.73769 -1.66863,2.56884 -0.62899,0.86059 -1.33674,1.65395 -2.07377,2.42207 -0.62231,0.60569 -1.248,1.20759 -1.86811,1.81539 -0.002,0.003 -0.005,0.007 -0.007,0.01 -0.23929,0.30804 -0.48831,0.54597 -0.73691,0.72347 -0.74155,0.73671 -1.48926,1.46802 -2.20709,2.22777 -0.5892,0.64819 -1.19714,1.27826 -1.7968,1.91668 -1.05491,1.12308 -2.14548,1.17044 -2.73419,0.66094 -0.37192,0.36895 -0.74247,0.73925 -1.12035,1.10226 -0.43091,0.39497 -0.88269,0.76302 -1.35082,1.10949 -0.10902,0.0992 -0.21619,0.20044 -0.32557,0.29921 -1.426,1.25569 -2.95452,2.38188 -4.53564,3.43235 -0.94199,0.62276 -1.89181,1.23649 -2.86494,1.80971 -0.72563,0.41359 -1.4961,0.72657 -2.29907,0.95033 -0.98833,0.23107 -2.0034,0.29803 -3.01378,0.35243 -0.90753,0.0394 -1.81556,0.0437 -2.72231,0.0997 -0.78756,0.054 -1.57607,0.0745 -2.36214,0.14779 -0.32387,0.0317 -0.64824,0.0595 -0.97255,0.0863 -1.37425,0.11366 -2.19594,-0.43107 -2.42207,-1.10071 -1.25024,0.20465 -2.49775,0.42749 -3.75377,0.5917 -2.83468,0.26213 -5.68532,0.38028 -8.52919,0.18035 -1.84626,-0.13066 -3.71401,-0.22879 -5.52164,-0.65267 -2.03802,0.0366 -4.07616,0.0524 -6.11435,0.0129 -2.05152,-0.0589 -4.10852,-0.10005 -6.14898,-0.33899 -0.56916,-0.0666 -1.02267,-0.22677 -1.36735,-0.4408 -1.14665,0.008 -1.89031,-1.32532 -0.71935,-3.03289 0.56912,-0.82992 1.15887,-1.64538 1.73168,-2.47272 0.91963,-1.364 1.82197,-2.74027 2.66599,-4.15272 0.56429,-0.93895 1.11766,-1.90487 1.59526,-2.88458 0.60327,-1.23732 1.48451,-1.80707 2.19055,-1.81022 0.90776,-0.004 1.52611,0.9285 0.89297,2.58124 -0.50458,1.31706 -1.22984,2.54197 -1.95285,3.74912 -0.87267,1.46046 -1.80575,2.88331 -2.75641,4.2938 -0.0685,0.0994 -0.13879,0.19754 -0.20775,0.29662 0.26695,-0.0977 0.57492,-0.16905 0.92914,-0.20257 2.69879,-0.25541 5.4082,-0.38373 8.11527,-0.51573 3.69195,-0.16682 7.38319,-0.35415 11.07477,-0.52865 0.0982,-0.005 0.19341,-0.006 0.28577,-0.004 1.93374,0.0346 2.58,1.40619 1.85932,2.33784 0.22201,0.14355 0.37128,0.32391 0.48628,0.5147 0.39904,-0.0306 0.7984,-0.0574 1.19682,-0.0946 2.2049,-0.29669 4.39805,-0.67872 6.59238,-1.04489 1.82613,-0.30182 3.64182,-0.65625 5.44823,-1.05885 1.18509,-0.25346 2.35247,-0.57358 3.52072,-0.89091 0.21438,-0.33023 0.54236,-0.65961 1.00822,-0.95859 2.03213,-1.30423 4.07157,-2.59677 6.12779,-3.86282 1.4239,-0.87977 2.86132,-1.74827 4.19767,-2.759 0.57495,-0.43487 1.13189,-0.67252 1.62315,-0.75913 0.2565,-0.41227 0.52018,-0.81979 0.78496,-1.2268 0.42278,-0.67365 0.86865,-1.3322 1.29761,-2.00194 0.28138,-0.40744 0.54153,-0.82942 0.79219,-1.25626 0.59749,-1.01743 1.35686,-1.42566 1.98852,-1.39578 0.0881,0.004 0.1542,0.0535 0.2346,0.0749 1.04076,-1.30678 2.09348,-2.60422 3.16983,-3.88193 1.0919,-1.31638 2.23036,-2.61329 3.16725,-4.04678 0.49021,-0.75005 1.06235,-1.17623 1.5932,-1.34049 0.20737,-0.47325 0.41488,-0.94644 0.62269,-1.41955 0.29702,-0.69954 0.61634,-1.39077 0.94619,-2.07532 0.27147,-0.48518 0.52723,-0.97989 0.74828,-1.49035 0.0159,-0.0397 0.0281,-0.0808 0.0445,-0.12041 0.22463,-0.595 0.44682,-1.19113 0.69297,-1.77767 0.17419,-0.39245 0.34732,-0.78521 0.52348,-1.17667 0.0805,-0.21783 0.15738,-0.43696 0.24081,-0.65371 0.24451,-0.70144 0.50064,-1.39912 0.74932,-2.09909 0.23282,-0.64068 0.4867,-1.27349 0.73587,-1.9079 0.14038,-0.40168 0.28539,-0.80165 0.42943,-1.20199 0.10992,-0.40643 0.21791,-0.81335 0.27388,-1.23145 0.0938,-0.56698 0.17656,-1.13598 0.30335,-1.69706 0.0967,-0.58686 0.20521,-1.17353 0.20515,-1.77095 0.0123,-0.46127 10e-4,-0.92046 -0.0656,-1.37821 -0.0852,-0.5846 -0.0347,-1.06433 0.0935,-1.4521 -0.0103,-0.19485 -0.0129,-0.39011 -0.03,-0.58447 -0.0414,-0.43822 -0.0935,-0.87604 -0.18861,-1.30638 h -5.3e-4 c -0.38178,-1.72747 0.41305,-2.72457 1.31,-2.72179 z m -92.66463,4.05246 c 1.4803,0.002 2.08766,1.78406 0.20516,3.20704 -0.69175,0.52289 -1.37909,1.05254 -2.09858,1.53738 -1.11713,0.72938 -2.25723,1.42017 -3.4153,2.08049 0.032,0.20809 0.0492,0.52871 0.062,0.91209 1.31184,1.22564 1.16133,1.35333 0.15037,1.83555 -0.0512,0.0244 -0.0831,0.038 -0.13074,0.0605 -0.0337,0.18258 -0.29316,0.21568 -0.54622,0.25373 -0.27112,0.12327 -0.54276,0.24474 -0.90744,0.40824 -1.95436,0.87648 -3.89868,1.78609 -5.77174,2.8267 2.60883,-0.86246 5.20271,-1.77756 7.7432,-2.82566 1.71852,-0.69748 3.42805,-1.51299 5.25911,-1.86552 0.28966,-0.0558 0.55523,-0.0801 0.79633,-0.0775 2.33065,0.0245 2.36648,2.54868 -0.40204,3.23133 -1.53926,0.37954 -2.99348,1.06251 -4.45812,1.65674 -2.62727,1.08438 -5.3102,2.02941 -8.00778,2.92127 -1.24711,0.38338 -2.4838,0.79758 -3.7083,1.24644 -1.45869,0.53455 -2.45742,0.0747 -2.74557,-0.65526 -2.40101,1.95063 -4.63119,0.18072 -2.50683,-1.96422 -0.62351,0.277 -1.2504,0.54573 -1.87999,0.80822 -0.0695,0.0475 -0.13235,0.0763 -0.18551,0.0775 -0.23878,0.0988 -0.47529,0.20319 -0.71521,0.29921 -0.60378,-0.15307 -1.63692,0.13858 -1.81126,-0.4594 -0.64309,-2.20695 0.64991,-2.58878 1.83762,-3.16312 0.40271,-0.19474 0.80672,-0.3863 1.21026,-0.57929 1.95889,-0.93684 0.90412,-0.42312 2.94659,-1.43402 2.64982,-1.33354 5.30319,-2.66039 7.94112,-4.01733 1.09849,-0.9006 2.2105,-1.78382 3.34966,-2.63239 0.9523,-0.7021 1.91436,-1.3929 2.91766,-2.02107 0.58337,-0.36525 1.12339,-0.52404 1.58336,-0.53175 0.28268,-0.005 0.53418,0.0487 0.74776,0.14521 0.27446,-0.20581 0.55528,-0.40293 0.82889,-0.60978 0.62747,-0.47437 1.21809,-0.6718 1.71152,-0.67128 z m 11.17917,22.27978 c 0.7321,-0.0401 1.5061,0.61354 1.70222,2.07533 0.10017,0.7465 0.13705,1.49803 0.14573,2.2505 0.58409,-0.91604 1.15722,-1.83974 1.78645,-2.72541 0.62642,-0.88171 1.32171,-1.23615 1.89446,-1.2144 1.09343,0.0415 1.7397,1.45347 0.60461,3.1781 -0.19453,0.29561 -0.38984,0.59071 -0.58446,0.88625 0.14663,0.16927 0.23582,0.40211 0.29146,0.66198 0.62962,0.30934 0.9928,1.19638 0.54622,2.53111 -0.49061,1.4663 -0.97095,2.93583 -1.43506,4.41058 -0.10404,0.32836 -0.20808,0.6566 -0.31212,0.98496 -0.71125,2.24446 -2.58646,2.2713 -3.08715,0.88573 -0.71528,0.22678 -1.41138,-0.11324 -1.65468,-0.88522 -0.74544,1.1401 -1.492,2.27947 -2.23604,3.42047 -1.71863,2.63534 -4.38027,0.89923 -2.66186,-1.73633 1.17431,-1.80083 2.34064,-3.6065 3.52899,-5.39812 0.12637,-0.18875 0.36048,-0.54183 0.54312,-0.81442 -0.27416,-0.3985 -0.4494,-0.97775 -0.43408,-1.73891 0.0277,-1.37526 0.0865,-2.75817 -0.0625,-4.12843 -0.18074,-1.66174 0.595,-2.59828 1.42472,-2.64377 z m -58.0745,6.87917 c 0.50194,-7.9e-4 0.96379,0.30396 1.20252,0.86661 0.28393,-0.32258 0.63365,-0.50643 0.99322,-0.50643 0.79412,0 1.59235,0.78714 1.60145,2.36006 0.006,0.9749 -0.0788,1.94725 -0.1447,2.91921 -0.2128,3.13894 -3.38368,2.92422 -3.17086,-0.21498 0.0185,-0.27341 0.0226,-0.54761 0.0419,-0.82114 -1.1779,1.69146 -3.33264,0.66878 -2.57246,-1.93063 0.0718,-0.24539 0.14821,-0.48952 0.21291,-0.7369 0.34839,-1.33174 1.13125,-1.93469 1.83606,-1.9358 z m 9.72396,1.39061 c 0.90556,0.0286 1.67907,1.05458 1.22111,2.76417 -0.10938,0.40834 -0.30307,0.78319 -0.50539,1.15135 -1.51539,2.75745 -4.3599,1.16351 -2.77296,-1.55339 0.0878,-0.1503 0.17801,-0.30118 0.22221,-0.47129 0.34633,-1.33227 1.1307,-1.91311 1.83503,-1.89084 z m 49.97318,7.28276 c 0.98536,0.0159 1.61552,1.07164 0.78289,2.74402 -0.75246,1.51135 -1.8935,2.7993 -2.99516,4.06435 -1.12768,1.25836 -2.353,2.4238 -3.58635,3.57704 -1.15109,1.07634 -2.26968,1.03045 -2.81119,0.447 -0.18108,0.14088 -0.3627,0.2809 -0.54416,0.42117 -0.0902,0.49395 -0.39118,1.04758 -0.97151,1.58543 -1.19223,1.10495 -2.46289,2.12189 -3.73879,3.12746 -1.24022,0.99222 -2.54775,1.89172 -3.86385,2.77864 -1.53078,1.03158 -2.77338,0.54959 -3.01325,-0.37931 -0.75863,0.39274 -1.5289,0.76152 -2.33733,1.03818 -2.97691,1.01876 -3.68365,-1.89465 -0.77049,-3.08353 0.46512,-0.18982 0.91868,-0.40251 1.36684,-0.6258 0.0844,-0.0719 0.13346,-0.14746 0.23047,-0.21756 1.62781,-1.17632 3.25873,-2.34928 4.95681,-3.42356 0.73545,-0.45926 1.47812,-0.90753 2.22053,-1.35599 1.47206,-1.18626 2.95243,-2.36247 4.4049,-3.57239 1.60358,-1.37628 3.24813,-2.72378 4.6793,-4.28398 0.6647,-0.72454 1.35772,-1.02643 1.93219,-1.02733 0.33641,-5.3e-4 0.63005,0.1045 0.85576,0.28577 0.3471,-0.22858 0.68075,-0.39623 0.97617,-0.45372 0.0174,-0.0286 0.0407,-0.0533 0.0579,-0.0822 0.65327,-1.09869 1.49403,-1.57461 2.16835,-1.56373 z m -46.1729,3.27267 c 0.73225,-0.0125 1.466,0.67103 1.57355,2.14199 0.05,0.68343 0.11966,1.36127 0.28164,2.0283 0.74249,3.05731 -2.38775,3.79376 -3.09387,0.7276 -0.17494,-0.75961 -0.29465,-1.52691 -0.33435,-2.30632 -0.0851,-1.66936 0.74315,-2.57747 1.57303,-2.59157 z" /></clipPath><clipPath
       clipPathUnits="userSpaceOnUse"
       id="clipPath466"><path
         id="path467"
         style="fill:#ff0000;fill-opacity:1;fill-rule:nonzero;stroke:none;stroke-width:0.264583"
         d="m 189.63941,-381.08127 v 221.89601 h 202.97572 v -221.89601 z m 32.42592,48.15571 c 2.22372,-0.0707 2.29529,2.17585 0.0713,2.24638 l -0.94878,0.03 c -1.19284,0.0466 -2.38555,0.10152 -3.57394,0.21859 -2.21413,0.21812 -2.3868,-2.02326 -0.1726,-2.24069 1.2165,-0.11946 2.43768,-0.17538 3.65869,-0.22324 0.32179,-0.0102 0.64353,-0.0208 0.96531,-0.031 z m 118.92039,15.32465 c 0.21491,-0.006 0.45731,0.022 0.72606,0.0935 1.09202,0.29062 2.20848,0.47199 3.32124,0.66456 1.19104,-0.0389 2.38348,-0.0438 3.57498,-0.0558 0.28506,-0.003 0.57018,-0.005 0.85524,-0.008 2.22479,-0.0197 2.24481,2.22773 0.0196,2.24741 l -0.85214,0.008 c -0.87885,0.009 -1.75817,0.0152 -2.63705,0.0326 -0.28096,0.0846 -0.6099,0.12694 -1.02681,0.0537 -0.0372,-0.007 -0.0739,-0.0157 -0.11111,-0.0222 -0.13005,0.005 -0.26023,0.007 -0.39015,0.0129 -0.61829,0.026 -1.07843,-0.12814 -1.37356,-0.36587 -0.6239,-0.11886 -1.25343,-0.21069 -1.86759,-0.37362 -1.88165,-0.4992 -1.74297,-2.24246 -0.23875,-2.2872 z m 21.86585,17.45837 c 0.18152,0.002 0.3631,0.006 0.54467,0.0124 1.06913,0.0441 2.11729,0.25095 3.15743,0.48731 0.96207,0.24576 1.90775,0.55003 2.85461,0.84801 0.85172,0.29079 1.70607,0.57272 2.56418,0.84387 0.76906,0.22505 1.54624,0.42107 2.32338,0.61599 0.56074,0.14087 1.11153,0.31853 1.67121,0.46302 0.32079,0.10578 0.64938,0.17589 0.97927,0.24443 0.33988,0.0662 0.67142,0.16994 0.99994,0.27802 0.0676,0.0271 0.13497,0.054 0.20257,0.0811 2.0649,0.82834 1.09092,3.12129 -0.87075,2.07171 -0.0114,-0.006 -0.0232,-0.012 -0.0346,-0.0181 -0.24876,-0.0818 -0.49829,-0.16389 -0.75603,-0.21239 -0.36492,-0.0765 -0.72953,-0.15329 -1.08469,-0.26924 -0.55352,-0.14412 -1.09938,-0.31637 -1.65364,-0.45837 -0.82094,-0.20594 -1.64239,-0.41335 -2.45411,-0.65319 -0.85725,-0.27092 -1.71103,-0.55143 -2.56161,-0.84284 -0.88874,-0.27974 -1.77647,-0.56528 -2.67839,-0.80047 -0.90462,-0.20607 -1.81476,-0.39318 -2.74505,-0.43304 -0.62286,-0.0254 -1.24505,-0.0121 -1.86655,0.0393 -2.2173,0.18317 -2.44014,-2.04206 -0.22376,-2.23604 0.54333,-0.0476 1.08738,-0.0664 1.63194,-0.0615 z m -1.90376,27.52906 c 0.63452,0.009 1.24528,0.17689 1.84847,0.37518 1.22541,0.49977 2.37573,1.16629 3.52226,1.82262 0.99933,0.5918 1.9697,1.2297 2.94763,1.8557 0.71066,0.45213 1.43068,0.88834 2.13062,1.35703 0.39778,0.27884 0.20402,0.14232 0.58187,0.40824 1.81945,1.28046 0.52598,3.1186 -1.29346,1.83813 -0.36233,-0.25499 -0.18269,-0.12871 -0.53898,-0.3793 -0.68689,-0.4602 -1.39493,-0.88643 -2.09186,-1.33119 -0.94674,-0.60607 -1.88611,-1.22371 -2.85254,-1.79834 -1.01921,-0.58369 -2.04127,-1.17376 -3.11971,-1.64228 -0.4595,-0.1584 -0.91558,-0.29288 -1.40767,-0.25218 -2.21717,0.18354 -2.22071,-2.11333 0,-2.2474 0.0917,-0.006 0.18273,-0.008 0.27337,-0.006 z m -0.57257,11.31663 c 0.45321,-0.0188 1.01537,0.2586 1.49241,0.94309 0.51638,0.74093 1.15618,1.38913 1.76114,2.05724 0.69503,0.74288 1.31727,1.54721 1.90582,2.37557 1.09388,1.53952 -0.065,2.6901 -1.22628,1.89807 -0.41916,0.28938 -1.12812,0.23686 -1.84846,-0.4532 -0.34645,-0.33184 -0.69721,-0.65889 -1.06351,-0.96893 -0.4877,-0.4018 -0.97576,-0.82023 -1.53892,-1.11415 -1.60256,-0.8364 -1.34672,-2.30012 -0.11369,-2.31355 0.15341,-0.002 0.32241,0.0199 0.50436,0.0672 -0.10777,-0.14649 -0.23358,-0.27951 -0.33176,-0.43305 -0.74909,-1.17151 -0.29647,-2.02688 0.45889,-2.05827 z m -24.3949,34.3426 c 0.98895,0.002 1.44716,1.09079 0.25167,2.15284 -1.08006,0.9595 -2.37566,1.63343 -3.64474,2.30425 -1.96692,1.03981 -3.01759,-0.94927 -1.04955,-1.98695 1.0731,-0.56581 2.16581,-1.12927 3.10524,-1.90635 0.48216,-0.39884 0.95047,-0.56455 1.33738,-0.56379 z m 10.50169,15.05645 c 0.33497,-0.0114 0.69863,0.18432 0.99632,0.57722 0.69408,0.262 1.17115,0.84066 1.60921,1.41801 0.40201,0.51939 0.71993,1.09291 1.04283,1.66243 0.24726,0.4235 0.48309,0.8537 0.70331,1.29191 0.19389,0.3917 0.38119,0.78664 0.56121,1.18494 0.15364,0.33541 0.2469,0.69408 0.39222,1.03249 0.15394,0.37644 0.31797,0.74679 0.45217,1.1312 0.13747,0.39349 0.25591,0.7927 0.39119,1.18701 0.13517,0.35947 0.26014,0.72378 0.36794,1.09244 0.0908,0.282 0.19884,0.55865 0.30282,0.83612 0.071,0.21577 0.18775,0.40394 0.29921,0.59945 0.12616,0.21515 0.25397,0.42926 0.39739,0.63355 0.18312,0.24829 0.31678,0.52594 0.47077,0.79168 0.19486,0.31919 0.34438,0.65488 0.45165,1.01286 0.12343,0.32122 0.18388,0.65952 0.23048,0.99891 0.0225,0.32571 0.0747,0.64642 0.13229,0.96738 0.0732,0.48486 0.14854,0.96956 0.20464,1.45676 0.0543,0.5366 0.11915,1.07192 0.16175,1.60972 0.0392,0.43489 0.11033,0.86492 0.17673,1.29604 0.0814,0.34413 0.14742,0.69088 0.19482,1.04129 0.0435,0.36172 0.0587,0.72589 0.0687,1.08985 0.04,0.41985 0.0716,0.84022 0.093,1.26142 0.0239,0.53057 0.0312,1.06166 0.0372,1.59267 0.005,0.5627 -0.0287,1.12586 -0.0791,1.6862 -0.0507,0.55488 -0.15167,1.10377 -0.26665,1.64848 -0.1299,0.60028 -0.35847,1.17056 -0.57877,1.7415 -0.2082,0.55453 -0.38938,1.11917 -0.56535,1.68465 -0.13759,0.40047 -0.25453,0.80749 -0.34933,1.22008 -0.49832,2.16833 -2.69539,1.65907 -2.18953,-0.50746 0.0789,-0.33799 0.18275,-0.66937 0.28526,-1.00098 -0.19384,-0.19056 -0.31429,-0.51298 -0.38241,-0.89607 -0.3824,0.0875 -0.78753,-0.002 -1.20561,-0.40876 -0.17143,-0.16696 -0.19121,-0.43897 -0.28681,-0.65835 -0.004,-0.11648 -0.007,-0.23287 -0.01,-0.34934 -0.0345,-1.24464 0.7849,-0.379 1.45055,0.2403 0.0101,-0.33432 0.0187,-0.66869 0.0274,-1.00304 -0.0676,-0.0144 -0.14389,-0.0273 -0.23151,-0.0393 -0.13188,-0.018 -0.24121,1.8e-4 -0.32453,0.0289 -0.008,0.007 -0.016,0.0151 -0.0243,0.0222 -0.2266,0.19569 -0.18826,0.0511 0.0243,-0.0222 0.0769,-0.0684 0.15011,-0.14112 0.22531,-0.21135 0.11565,-0.11705 0.23158,-0.23457 0.34624,-0.35347 0.001,-0.0517 0.003,-0.10334 0.004,-0.15503 0.0185,-1.53543 -0.0128,-3.07112 -0.031,-4.60644 -0.0354,-1.81658 -0.0864,-3.63336 -0.20619,-5.44669 -0.0877,-1.19958 -0.14341,-2.41756 -0.45578,-3.5848 -0.21624,-0.80802 -0.095,-1.44399 0.18087,-1.81384 -0.14153,-0.25274 -0.28396,-0.50476 -0.38086,-0.77928 -0.1244,-0.33263 -0.25377,-0.66399 -0.35812,-1.00356 -0.0926,-0.33331 -0.21492,-0.65865 -0.33331,-0.9834 -0.0799,-0.23305 -0.15584,-0.46709 -0.23151,-0.70125 -0.0222,1.47003 -1.69215,1.72337 -2.26188,-0.11162 -0.49456,-1.59283 -0.24693,-0.78507 -0.74311,-2.42362 -0.51745,-1.68406 -1.02813,-3.37019 -1.56631,-5.04776 -0.38229,-1.19165 0.13396,-1.9082 0.7798,-1.93011 z m 41.83724,10.03401 c 0.56182,0.001 1.12234,0.55828 1.12034,1.6707 -1.4e-4,0.0681 1.3e-4,0.13602 0,0.20412 -0.001,0.51608 -0.002,1.03218 -0.008,1.54823 -0.007,0.60043 -0.0173,1.20131 -0.0517,1.80092 -0.0481,0.72661 -0.10687,1.45782 -0.29146,2.16473 -0.20828,0.65587 -0.50481,1.26544 -0.9679,1.78283 -0.39439,0.42999 -0.82617,0.82424 -1.31103,1.15135 -0.48184,0.32855 -0.96861,0.65461 -1.49035,0.91726 -0.62324,0.27193 -1.26917,0.48714 -1.95905,0.46974 -0.55242,-0.0197 -1.10342,-0.0754 -1.64796,-0.17208 -2.1906,-0.3889 -1.75636,-2.55346 0.4408,-2.20349 0.42224,0.0672 0.84817,0.11971 1.27589,0.12971 0.35092,-7.9e-4 0.66969,-0.14015 0.98392,-0.2806 0.38921,-0.21771 0.76119,-0.46464 1.12913,-0.71624 0.3316,-0.23126 0.64306,-0.4938 0.90847,-0.79943 0.23515,-0.27347 0.39301,-0.58553 0.48731,-0.93121 0.12255,-0.54466 0.16328,-1.10398 0.19947,-1.65985 0.0313,-0.55976 0.0395,-1.12003 0.0465,-1.68051 0.005,-0.50871 0.007,-1.0178 0.008,-1.52653 v -0.20308 c 0.002,-1.1126 0.56524,-1.66761 1.12706,-1.66657 z" /></clipPath><clipPath
       clipPathUnits="userSpaceOnUse"
       id="clipPath477"><path
         id="path478"
         style="fill:#ff0000;fill-opacity:1;fill-rule:nonzero;stroke:none;stroke-width:0.264583"
         d="m 166.26145,-357.83038 v 149.82445 h 187.28934 v -149.82445 z m 35.14773,74.6094 c 1.37971,0.0145 2.22549,1.48076 1.0635,3.85351 -1.03773,2.11901 -2.83426,3.73644 -4.62194,5.21932 l -1.11466,0.83251 c -3.5651,2.66268 -6.25907,-0.95853 -2.68304,-3.6065 l 0.94361,-0.69867 c 1.22577,-0.99537 2.44633,-2.0727 3.30264,-3.41581 0.97179,-1.52425 2.16586,-2.19424 3.10989,-2.18436 z m 4.08037,0.1111 c 0.37159,-0.045 1.10019,1.56219 1.99006,2.39366 0.32542,0.0805 0.66351,0.23973 0.9989,0.48317 0.38476,-0.0206 0.78413,-0.28315 1.18908,-0.9648 0.009,-0.0145 0.051,-0.11922 0.10283,-0.0667 0.0813,0.0825 0.12584,0.19516 0.20051,0.2837 0.153,0.18142 0.31888,0.35179 0.48162,0.52452 0.84071,0.8923 0.80336,0.83796 1.71721,1.73839 1.26194,1.26229 0.64465,0.64222 1.85208,1.8588 3.07422,3.09755 0.0627,6.16658 -3.01118,3.30523 -0.875,0.80329 -2.53706,0.66008 -3.93155,-1.21853 -0.4711,-0.63466 -0.95874,-1.26416 -1.30276,-1.98076 -0.65838,-1.37144 -0.64656,-2.47256 -0.25838,-3.175 -0.13937,-0.36941 -0.25492,-0.75043 -0.30851,-1.16065 -0.0321,-0.24614 0.006,-0.49644 0.009,-0.74466 h -5.2e-4 c 0.0102,-0.90379 0.10645,-1.25638 0.27182,-1.27641 z" /></clipPath><clipPath
       clipPathUnits="userSpaceOnUse"
       id="clipPath484"><path
         id="path485"
         style="fill:#ff0000;fill-opacity:1;fill-rule:nonzero;stroke:none;stroke-width:0.264583"
         d="m 176.09996,-387.88394 v 228.4336 h 199.07777 v -228.4336 z m 101.57675,158.96187 c 3.28991,0.049 4.38498,3.82629 0.15761,6.33605 -2.31055,1.37175 -4.87072,2.19795 -7.43779,2.93626 -1.5483,0.38688 -3.10602,0.73384 -4.65811,1.10484 -6.1204,1.46299 -7.59759,-4.72129 -1.47692,-6.18309 1.46203,-0.34918 2.92801,-0.68004 4.38888,-1.03404 1.99956,-0.56673 3.99808,-1.18147 5.81515,-2.21485 1.19658,-0.68052 2.29,-0.95888 3.21118,-0.94517 z m -65.57378,27.79366 c 0.78789,-0.0121 1.72785,0.19898 2.79208,0.70848 1.25671,0.60166 2.52697,1.17058 3.79718,1.74356 5.73622,2.58754 3.12158,8.38276 -2.61431,5.79448 -1.14406,-0.51625 -2.30155,-1.00612 -3.41529,-1.58595 -4.53513,-2.36104 -3.97386,-6.60832 -0.55966,-6.66057 z" /></clipPath><clipPath
       clipPathUnits="userSpaceOnUse"
       id="clipPath507"><path
         id="path508"
         style="fill:#ff0000;fill-opacity:1;fill-rule:nonzero;stroke:none;stroke-width:0.264583"
         d="m 206.09865,-418.08675 v 247.84172 h 215.2897 v -247.84172 z m 208.75625,165.23953 c 1.54735,-0.003 2.96896,1.56072 2.80034,4.70255 -0.11784,2.19573 -0.65291,4.34851 -1.19527,6.47144 -0.6615,2.49769 -1.46375,4.95032 -2.33475,7.38147 -0.43286,1.20745 -0.99955,2.35908 -1.54874,3.51606 -0.446,0.93956 -0.98509,1.57336 -1.54564,2.07791 -0.10047,0.24101 -0.20263,0.48249 -0.30179,0.72347 -1.17431,2.95376 -2.45292,5.8646 -3.76153,8.7607 -0.15932,0.35262 -0.35968,0.57957 -0.54053,0.87024 -0.0606,0.19079 -0.17843,0.40086 -0.26097,0.59944 0.86195,1.04761 0.80348,2.92969 -0.98392,5.05602 -1.41587,1.68435 -3.14647,3.07098 -4.86482,4.43229 l -0.88263,0.65578 c -3.60793,2.67866 -6.57183,0.83006 -6.12883,-1.80558 -1.27317,0.36633 -2.55327,0.70911 -3.81785,1.10433 -0.0394,1.24614 -0.93376,2.68385 -2.98121,3.75636 -0.50028,0.26206 -1.0004,0.52394 -1.50069,0.786 -2.41479,1.21191 -4.84402,2.4203 -7.45019,3.17189 -5.76752,1.66336 -7.68969,-3.7963 -2.60759,-5.81773 -0.34954,-1.41972 0.48436,-3.24061 3.1166,-4.39249 2.2216,-0.97219 4.45996,-1.90671 6.75411,-2.697 3.2071,-1.07145 6.44795,-2.0368 9.72137,-2.88561 0.76143,-0.19744 1.45645,-0.27549 2.0774,-0.25735 0.44209,0.0129 0.84452,0.0767 1.20922,0.17829 0.37977,-0.52684 0.24198,-0.3397 0.69144,-0.9493 0.62201,-0.87344 1.26281,-1.7354 1.7756,-2.67942 0.21161,-0.38956 0.43615,-0.7359 0.66921,-1.04128 0.0827,-0.2402 0.0976,-0.45057 0.21187,-0.70332 1.27958,-2.82994 2.52867,-5.67453 3.67575,-8.56123 1.02636,-2.49408 2.09017,-4.97884 2.9099,-7.55096 0.46403,-1.45618 1.15893,-2.51693 1.92391,-3.20549 0.21022,-0.69898 0.43003,-1.39481 0.61753,-2.10117 0.41407,-1.61134 0.81852,-3.23669 0.99632,-4.89376 0.33569,-3.12839 2.00896,-4.69919 3.55638,-4.70255 z" /></clipPath><clipPath
       clipPathUnits="userSpaceOnUse"
       id="clipPath521"><path
         id="path522"
         style="fill:#ff0000;fill-opacity:1;fill-rule:nonzero;stroke:none;stroke-width:0.264583"
         d="m 75.263866,-410.47481 v 216.90407 H 258.97927 v -216.90407 z m 126.087394,48.27405 c 3.27198,-0.0575 4.46934,3.10082 1.89549,5.2958 0.47026,1.38541 -0.23008,3.28113 -2.75797,4.65243 -2.0774,1.12693 -4.20068,2.1812 -6.13709,3.54604 -4.99436,3.52016 -8.84082,-0.8294 -4.45916,-4.55011 -0.47393,-1.23132 0.0514,-2.98057 2.15542,-4.5713 1.46443,-1.10716 3.05807,-2.02028 4.68292,-2.86701 1.43219,-0.66979 0.71181,-0.35373 2.16007,-0.94878 0.90948,-0.37367 1.73564,-0.54434 2.46032,-0.55707 z m -30.46739,68.02066 c 2.8088,-0.0178 3.8318,3.64686 0.22738,6.69364 -1.37923,1.16585 -2.84807,2.21349 -4.34548,3.22048 -1.01854,0.7374 -0.49503,0.3655 -1.57251,1.11414 -5.16784,3.59069 -8.7958,-1.63683 -3.62407,-5.2219 1.04313,-0.7231 0.49062,-0.33398 1.65468,-1.17047 1.50667,-1.0084 2.94668,-2.09862 4.36098,-3.23133 1.22793,-0.98344 2.36275,-1.39865 3.29902,-1.40456 z" /></clipPath><clipPath
       clipPathUnits="userSpaceOnUse"
       id="clipPath611"><path
         id="path612"
         style="fill:#ff0000;fill-opacity:1;fill-rule:nonzero;stroke:none;stroke-width:0.264583"
         d="m 90.900824,-436.17835 v 237.6103 H 336.5003 v -237.6103 z m 166.978436,59.76844 c 1.14899,0.0439 2.48192,0.8578 3.58738,2.71715 0.96471,1.62261 1.75796,3.33365 2.47323,5.07928 0.18622,0.3213 0.37943,0.62406 0.53692,1.02061 0.79593,2.00389 1.67988,3.97184 2.56367,5.93813 1.44897,3.22393 0.23307,5.38827 -1.54926,5.71128 -1.50934,0.72789 -3.69523,-0.14736 -4.82089,-3.25871 l -0.81287,-2.24689 c -1.08246,-2.95938 -2.13825,-5.95881 -3.67988,-8.71782 -2.01437,-3.60492 -0.49182,-6.32674 1.7017,-6.24303 z m -81.34645,4.06642 c 0.0584,-0.001 0.11725,10e-4 0.17621,0.004 1.29101,0.0733 2.69586,1.20268 3.45871,3.64267 0.54166,1.73254 0.56031,3.53279 0.50126,5.32784 -0.2069,6.28922 -6.60174,6.06082 -6.35259,-0.22686 0.0411,-1.0381 0.0906,-2.07426 -0.17931,-3.09077 -0.92883,-3.49839 0.58477,-5.62449 2.39572,-5.6565 z m -20.03547,23.61561 c 1.81232,0.0577 3.32841,2.10161 2.36936,5.50871 -0.75699,2.68945 -1.56899,5.36328 -2.27893,8.06669 -0.1435,0.58917 -0.28697,1.17817 -0.43046,1.76734 -1.48915,6.11387 -7.66831,4.60721 -6.17585,-1.50585 0.1528,-0.62591 0.30556,-1.25203 0.45837,-1.87793 0.72268,-2.74659 1.5476,-5.46329 2.31458,-8.19639 0.74381,-2.65073 2.33318,-3.80745 3.74293,-3.76257 z m 109.95969,0.82321 c 1.46803,-0.0251 2.9412,1.34171 3.15847,4.28346 0.49175,6.65801 -0.36368,13.32202 -1.12397,19.92695 -0.71962,6.25137 -7.03583,5.52377 -6.31486,-0.72761 0.0105,-0.0912 0.0184,-0.18319 0.0289,-0.2744 -0.63892,-0.66023 -1.17113,-1.65938 -1.45831,-3.03082 -0.80799,-3.85857 -1.57233,-7.7257 -2.2996,-11.60033 -0.653,-3.4788 1.02654,-5.42197 2.82825,-5.35574 0.73471,0.027 1.4884,0.39204 2.11409,1.11931 0.13336,-2.7566 1.56139,-4.31512 3.06699,-4.34082 z m 7.85792,12.07575 c 1.16821,0.0327 2.5369,0.82585 3.68866,2.65668 0.71074,1.12974 1.30633,2.32563 1.90428,3.5171 2.82256,5.6243 -2.86847,8.47544 -5.68337,2.84737 -0.47947,-0.9586 -0.95669,-1.91955 -1.50999,-2.83858 -2.13002,-3.53796 -0.6298,-6.24505 1.60042,-6.18257 z m -117.60161,29.07471 c 1.58564,-10e-5 3.1265,1.57223 3.04323,4.71754 -0.034,1.28503 0.004,2.56087 0.19275,3.83284 0.92362,6.22467 -5.44333,7.12367 -6.29419,0.88884 -0.21395,-1.56781 -0.30432,-3.13901 -0.25528,-4.72168 0.0975,-3.1449 1.72805,-4.71744 3.31349,-4.71754 z m 93.83097,39.07307 h 5.3e-4 c 0.81381,-0.006 1.20826,0.83941 0.36276,2.02933 -0.18564,0.26125 -0.42173,0.48006 -0.63717,0.71572 -0.19413,0.20242 -0.37129,0.41888 -0.54725,0.63665 -0.22168,0.30821 -0.47985,0.58554 -0.75654,0.8444 -0.1035,0.10732 -0.23909,0.17079 -0.35502,0.26096 -0.003,0.0153 -0.006,0.0305 -0.009,0.046 -0.11545,0.52124 -0.22557,1.04336 -0.33797,1.56528 -0.094,0.43639 -0.25761,0.76603 -0.45527,0.99684 0.0845,0.15179 0.1692,0.30349 0.25373,0.45527 0.047,-0.009 0.0954,-0.0151 0.1447,-0.0165 0.29552,-0.009 0.6162,0.18797 0.92397,0.49196 0.14296,-0.36451 0.45436,-0.58052 0.83354,-0.55914 0.37295,0.021 0.81147,0.27145 1.21853,0.8351 0.7726,1.06975 1.32834,2.27804 1.88413,3.46955 0.20509,0.43969 0.26794,0.82863 0.23202,1.14722 0.48312,1.86083 -1.32696,2.50277 -2.0686,0.78651 -0.40803,0.29349 -1.03605,0.1889 -1.5627,-0.45217 -0.40944,0.1566 -0.84833,-0.0336 -1.12396,-0.48989 0.1066,0.40886 0.2095,0.81877 0.30902,1.22938 0.0815,0.31247 0.16232,0.62521 0.24082,0.93845 0.54069,2.15815 -1.64016,2.70452 -2.18023,0.54622 -0.0798,-0.31889 -0.16255,-0.63727 -0.24495,-0.9555 -0.21433,-0.88562 -0.43728,-1.76956 -0.709,-2.63963 -0.0355,-0.11455 -0.0851,-0.22405 -0.12092,-0.33848 -0.2193,-0.1386 -0.44002,-0.34567 -0.64751,-0.63252 -0.11926,-0.16488 -0.25312,-0.32645 -0.37362,-0.48576 -0.77263,-1.02143 -0.80153,-1.92831 -0.35398,-2.25206 -0.0464,-0.0909 -0.0865,-0.18494 -0.13385,-0.27543 -0.31358,-0.68243 -0.56966,-1.41036 -0.32659,-2.16163 0.17728,-0.51664 0.42964,-0.9924 0.82424,-1.37873 0.34226,-0.32651 0.71776,-0.61347 1.10949,-0.8785 0.34546,-0.21509 0.70252,-0.40958 1.07436,-0.57567 0.15589,-0.0822 0.30578,-0.18626 0.43459,-0.3328 0.20243,-0.17723 0.36986,-0.38806 0.5302,-0.60306 0.20512,-0.25269 0.41193,-0.50415 0.63666,-0.74001 0.13849,-0.15108 0.28017,-0.2992 0.42426,-0.44442 0.53849,-0.54268 1.07995,-0.77961 1.50637,-0.78289 z m -2.27738,11.74863 -5.3e-4,5.3e-4 c 0.006,0.0195 0.0119,0.0389 0.0176,0.0584 -5.3e-4,-0.0217 -0.009,-0.0347 -0.009,-0.0568 -0.003,-10e-4 -0.005,-10e-4 -0.008,-0.002 z m -61.16681,9.47488 c 2.11054,-0.044 3.64861,2.3742 1.86294,5.87819 -0.83848,1.64524 -1.24219,3.47839 -1.70223,5.25756 -1.5753,6.09247 -7.734,4.49688 -6.15363,-1.59422 0.57345,-2.20975 1.11617,-4.46714 2.17041,-6.50606 1.084,-2.0961 2.55618,-3.00906 3.82251,-3.03547 z m 55.14082,13.20023 c 0.43511,-0.004 0.94241,0.31063 1.31982,1.05471 0.52853,1.04205 0.86813,2.16522 1.21543,3.2768 0.35037,1.14644 0.59265,2.32115 0.83974,3.49281 0.3053,1.44769 -0.56484,2.13616 -1.31723,1.79576 0.006,0.0276 0.0144,0.0556 0.0202,0.0832 0.0671,0.36367 0.13444,0.72774 0.20154,1.09141 1.14117,6.18831 -5.1218,7.33795 -6.25233,1.14773 -0.0575,-0.31503 -0.1151,-0.63013 -0.1726,-0.94516 -0.26304,-1.27455 -0.57395,-2.5369 -0.94413,-3.78168 -1.17697,-3.9584 -0.64224,-6.71036 1.02526,-6.78719 0.87345,-0.0402 2.0576,0.65374 3.46955,2.29237 0.18927,0.21962 0.3152,0.47403 0.47594,0.70952 -0.15444,-0.43641 -0.32415,-0.86696 -0.52606,-1.28416 -0.60574,-1.25166 -0.0803,-2.14018 0.64492,-2.14612 z" /></clipPath><clipPath
       clipPathUnits="userSpaceOnUse"
       id="clipPath626"><path
         id="path627"
         style="fill:#ff0000;fill-opacity:1;fill-rule:nonzero;stroke:none;stroke-width:0.264583"
         d="m 330.7259,-459.30497 v 230.70168 h 206.08147 v -230.70168 z m 169.9519,10.68721 c 1.12366,0 2.257,1.1125 2.27635,3.33726 0.0127,1.4494 -0.003,2.89747 -0.0532,4.34599 -0.003,0.0586 -0.003,0.0361 -0.004,0.0858 0.33869,0.54809 0.5561,1.31078 0.55655,2.28875 0,1.31472 0.008,2.62953 -0.0222,3.94395 -0.008,0.99568 -0.0866,1.98675 -0.17621,2.97759 -0.40061,4.43163 -4.89138,4.01894 -4.47622,-0.41134 0.0834,-0.8891 0.15166,-1.77898 0.15864,-2.67271 0.0183,-0.75127 0.0214,-1.50273 0.0217,-2.25412 -0.40489,-0.57293 -0.65852,-1.41909 -0.61341,-2.54042 0.0414,-1.02913 0.0206,-0.5038 0.0625,-1.57561 0.0498,-1.39582 0.0628,-2.79117 0.0506,-4.18786 -0.019,-2.22476 1.09479,-3.33726 2.21848,-3.33726 z m -135.66562,5.28908 c 1.11427,2.9e-4 2.26147,1.11253 2.34663,3.33571 0.0233,0.6089 0.0955,1.21206 0.19069,1.8123 0.49482,0.54874 0.82991,1.44213 0.80821,2.68252 -0.0224,1.28101 0.033,2.5604 0.0827,3.84008 0.0297,0.75609 0.0559,1.51232 0.0811,2.26859 0.14824,4.44722 -4.34459,4.59655 -4.49275,0.14935 -0.025,-0.74803 -0.0503,-1.49592 -0.0796,-2.2438 -0.0302,-0.77769 -0.0601,-1.55532 -0.077,-2.33319 -0.028,-0.10273 -0.0765,-0.16963 -0.10025,-0.27905 -0.2024,-0.93128 -0.0992,-0.45052 -0.30903,-1.44229 -0.281,-1.4723 -0.56693,-2.95079 -0.59893,-4.45451 -0.0473,-2.22431 1.03393,-3.33599 2.14819,-3.33571 z" /></clipPath><clipPath
       clipPathUnits="userSpaceOnUse"
       id="clipPath633"><path
         id="path634"
         style="fill:#ff0000;fill-opacity:1;fill-rule:nonzero;stroke:none;stroke-width:0.264583"
         d="m 349.43329,-440.11884 v 239.07688 h 215.83953 v -239.07688 z m 210.52461,75.044 c 2.66571,-0.0636 3.95127,2.51922 2.03554,4.92424 2.62938,1.06607 2.55176,4.67993 -1.85312,6.09576 -2.42014,0.77787 -4.8378,1.56719 -7.29206,2.23294 -3.00893,0.8553 -6.0207,1.69756 -8.95139,2.79827 -5.89104,2.21253 -7.90386,-3.82459 -2.01022,-6.03012 1.46755,-0.54918 2.95575,-1.03376 4.45245,-1.49138 0.40227,-0.68183 1.0623,-1.37373 2.0314,-2.0128 2.31924,-1.52941 4.69354,-2.97599 7.02282,-4.4912 0.47757,-0.30906 0.9549,-0.618 1.43247,-0.92707 1.15566,-0.7479 2.22383,-1.07696 3.13211,-1.09864 z" /></clipPath><clipPath
       clipPathUnits="userSpaceOnUse"
       id="clipPath695"><path
         id="path696"
         style="fill:#ff0000;fill-opacity:1;fill-rule:nonzero;stroke:none;stroke-width:0.264583"
         d="m 305.52262,-417.83001 v 221.46554 H 511.5085 v -221.46554 z m 5.64772,169.94001 h 5e-4 c 0.0265,-0.003 0.0505,10e-4 0.0724,0.004 0.75273,0.18977 -1.27537,5.22094 2.11202,3.95738 0.0102,-0.003 0.0344,-0.0217 0.031,-0.0114 -0.0281,0.0866 -0.0945,0.1565 -0.13126,0.23977 -0.0626,0.14188 -0.0978,0.29868 -0.13384,0.44855 -6.1e-4,0.38167 -0.0543,0.76682 -0.005,1.14723 0.0329,0.50434 0.18965,0.97942 0.34778,1.45468 0.23182,0.62456 0.50069,1.2318 0.70745,1.86553 0.0102,0.0408 0.0199,0.0816 0.03,0.12246 0.56029,-0.003 1.22397,0.15454 1.97042,0.52504 2.76981,1.37479 5.47128,2.88832 8.22276,4.30258 3.64426,1.91282 7.39591,3.60232 11.17296,5.23224 2.52506,1.08965 2.76585,3.03856 1.64227,3.97546 1.91619,0.51979 1.89528,0.51542 5.56556,1.45677 0.68231,0.17499 1.17387,0.45009 1.58801,0.75498 0.34348,-0.37183 0.87899,-0.65641 1.56528,-0.81544 -0.16256,-1.10648 0.80524,-2.27824 3.04788,-2.42311 0.37318,-0.0241 0.74651,-0.0376 1.11983,-0.0413 0.53865,-0.006 1.07599,0.0691 1.61437,0.0977 -0.65467,-1.30897 0.39283,-3.03488 3.14658,-3.0484 3.2606,-0.016 6.51247,0.28727 9.75186,0.62787 4.42526,0.46528 3.95431,4.93731 -0.47078,4.47001 -1.30454,-0.13776 -2.6115,-0.26753 -3.92017,-0.37258 0.15984,0.153 0.29254,0.3156 0.39532,0.48472 0.11644,0.068 0.26407,0.11463 0.36122,0.19431 1.8821,-0.0167 3.76409,-0.0412 5.6441,-0.12507 0.13892,-0.006 0.27398,-0.008 0.40515,-0.005 4.06611,0.0793 4.396,4.23688 0.092,4.4726 -0.50436,0.0276 -1.01036,0.0129 -1.51515,0.0305 -0.35618,0.2465 -0.7911,0.46598 -1.3162,0.64028 -1.70625,0.56635 -3.4185,1.1194 -5.08858,1.78748 -0.60074,0.24033 -1.14874,0.35494 -1.63711,0.37568 -0.03,0.007 -0.0463,0.0237 -0.077,0.0305 -0.48084,0.82361 -1.67806,1.37684 -3.48196,1.03715 -0.3797,-0.0715 -0.76028,-0.14296 -1.13998,-0.21446 -1.00058,-0.19969 -1.99724,-0.41632 -2.9962,-0.62425 -0.51241,-0.004 -1.02549,-0.007 -1.53789,-0.0176 -2.93716,-0.057 -5.87732,-0.0903 -8.80825,-0.30644 -1.79799,-0.13261 -2.86534,-0.94651 -3.20652,-1.84692 -0.69923,-0.5188 -0.93944,-1.28845 -0.69246,-2.0159 -0.0494,-0.0415 -0.0964,-0.0835 -0.14211,-0.12557 -0.74797,-0.29196 -1.49586,-0.58551 -2.24638,-0.87075 2.18371,1.77694 0.63437,4.65812 -2.9409,3.43287 -0.93067,-0.31894 -1.86114,-0.6406 -2.75797,-1.048 -1.59831,-0.7107 -3.15752,-1.49892 -4.65812,-2.39985 -1.0506,-0.63846 -2.11438,-1.25648 -3.12539,-1.95802 -0.78786,-0.54877 -1.55514,-1.12901 -2.28616,-1.75183 -0.61024,-0.54693 -1.16337,-1.14672 -1.67794,-1.78387 -0.64108,-0.70216 -1.20994,-1.46167 -1.70429,-2.2748 -0.42419,-0.67839 -0.85169,-1.35498 -1.29501,-2.02107 -0.51203,-0.76472 -1.05378,-1.51205 -1.50482,-2.3151 -0.43942,-0.81027 -0.80379,-1.65295 -0.98185,-2.56264 -0.14887,-0.57516 -0.29307,-1.15101 -0.41238,-1.73322 -0.17458,-0.61688 -0.50061,-1.18374 -0.68574,-1.79834 -0.27391,-0.82596 -0.50416,-1.6657 -0.56483,-2.53835 -0.0544,-0.8988 -0.0395,-1.80746 0.15813,-2.69027 0.28457,-0.97114 0.68306,-1.89657 1.38493,-2.64532 0.49847,-0.53179 0.80686,-0.76275 0.99271,-0.78342 z m 148.08915,26.60768 c 0.99381,-0.0309 2.11658,0.78732 2.651,2.65927 0.0922,0.32275 0.15948,0.65136 0.22738,0.97979 0.9014,4.35742 -3.52521,5.26342 -4.40335,0.90123 -0.0436,-0.2165 -0.087,-0.43356 -0.14625,-0.64647 -0.67154,-2.41119 0.39347,-3.85412 1.67122,-3.89382 z m -81.08859,2.00195 c 1.06438,-0.002 2.24632,0.96498 2.6293,3.01532 0.1696,0.90804 0.25615,1.82873 0.33589,2.74815 0.006,0.0562 0.008,0.11264 0.0129,0.16898 0.16883,0.0245 0.33698,0.0684 0.50591,0.092 0.39928,0.0557 0.79836,0.11084 1.19786,0.16484 1.53718,0.20783 3.06606,0.43231 4.59559,0.69144 2.03448,0.38318 1.04242,0.18276 2.97708,0.59841 4.3504,0.93468 3.40322,5.33335 -0.9462,4.39405 -1.79448,-0.38755 -0.86739,-0.19937 -2.78329,-0.56121 -1.48319,-0.2524 -2.96583,-0.4678 -4.45658,-0.66973 -0.23272,-0.0315 -2.11872,-0.28398 -2.40192,-0.35708 -0.46487,-0.11995 -0.90915,-0.30861 -1.36374,-0.46302 -0.59777,-0.44895 -0.93903,-0.61337 -1.32085,-1.31258 -0.41526,-0.76045 -0.4488,-1.53053 -0.49506,-2.35903 -0.0742,-0.86284 -0.15987,-1.72533 -0.31781,-2.57762 -0.43071,-2.32434 0.6246,-3.5708 1.8309,-3.57291 z m 78.20866,4.41833 c 2.76712,-0.041 3.42497,3.15512 -0.0584,4.5558 -0.81757,0.32875 -1.64616,0.62736 -2.47169,0.93534 -1.3106,0.45598 -2.61247,0.94192 -3.93929,1.34824 -1.55004,0.45058 -3.10902,0.85853 -4.68757,1.19786 -2.18907,0.56313 -4.37653,1.14322 -6.53552,1.81229 -1.57254,0.52249 -3.13785,1.1809 -4.80022,1.33894 -4.42973,0.42112 3.08561,-1.28878 0,-4.49482 -0.007,-0.007 -0.0281,-0.0177 -0.0191,-0.0207 0.26569,-0.0942 0.54704,-0.1358 0.81649,-0.21859 0.86781,-0.2666 1.7234,-0.58384 2.58485,-0.87023 2.25636,-0.70406 4.5442,-1.31026 6.83318,-1.89963 1.5327,-0.33097 3.04707,-0.72281 4.55217,-1.16118 1.2511,-0.38849 2.48064,-0.84682 3.71812,-1.27744 0.75544,-0.28594 1.51699,-0.55391 2.2655,-0.85782 0.64418,-0.26157 1.22906,-0.38048 1.74149,-0.3881 z" /></clipPath><clipPath
       clipPathUnits="userSpaceOnUse"
       id="clipPath703"><path
         id="path704"
         style="fill:#ff0000;fill-opacity:1;fill-rule:nonzero;stroke:none;stroke-width:0.264583"
         d="m 346.446,-432.0091 v 203.36123 H 525.56375 V -432.0091 Z m 141.68024,57.17997 c 1.52354,-0.0147 3.00587,0.38099 4.40903,0.97255 5.79858,2.44462 3.08368,8.60594 -2.5585,5.81929 -0.51757,-0.25563 -1.04422,-0.36199 -1.60662,-0.46716 -6.18558,-1.15675 -7.16724,-5.73524 -0.89917,-6.29264 0.21923,-0.0195 0.43761,-0.0299 0.65526,-0.032 z m -126.21038,20.92896 c 2.2813,0.0702 3.65345,2.83295 1.21388,6.165 -0.60575,0.82732 -1.25562,1.62609 -1.76734,2.51767 -3.13246,5.45777 -8.57428,2.19283 -5.45083,-3.27008 0.6065,-1.06076 1.36883,-2.01753 2.08825,-3.00137 1.27683,-1.74612 2.72106,-2.44798 3.91604,-2.41122 z" /></clipPath><clipPath
       clipPathUnits="userSpaceOnUse"
       id="clipPath754"><path
         id="path755"
         style="fill:#ff0000;fill-opacity:1;fill-rule:nonzero;stroke:none;stroke-width:0.264583"
         d="m 427.57476,-519.28859 v 255.08779 h 193.7861 v -255.08779 z m 65.92517,53.4479 c 0.0521,-0.002 0.10422,-0.001 0.15658,5.3e-4 1.4784,0.0516 3.06078,1.4805 3.50832,4.39611 0.24443,1.59244 0.76914,3.12569 1.23765,4.66225 1.83533,6.01911 -4.24573,7.87302 -6.08025,1.85363 -0.59483,-1.95179 -1.24555,-3.90582 -1.48777,-5.94072 -0.3828,-3.21588 1.05225,-4.92152 2.66547,-4.97179 z m 52.98902,2.96571 c 0.81755,0.0136 1.77142,0.24947 2.82515,0.78031 1.9861,1.00061 3.61615,2.54762 5.19555,4.08348 4.51119,4.38719 0.0527,8.95472 -4.44004,4.54856 -1.10303,-1.08167 -2.22323,-2.21292 -3.59823,-2.94659 -4.51095,-2.40684 -3.52549,-6.52472 0.0176,-6.46576 z m 16.27859,10.55595 v 5.3e-4 c 0.95471,0.0287 2.04715,0.50321 3.0701,1.52756 1.13516,10e-4 2.50585,0.6012 3.82871,2.04432 0.58223,0.63519 1.17844,1.25525 1.75028,1.90066 1.83105,2.06663 1.92395,4.03 1.11517,5.19451 0.36697,0.13053 0.75007,0.29996 1.14774,0.51418 1.0878,0.586 2.13339,1.23288 3.13107,1.96112 5.0828,3.7101 1.22698,8.91576 -3.78323,5.10822 -0.69104,-0.52516 -1.4392,-0.9513 -2.19056,-1.3839 -1.8235,-1.04988 -2.72758,-2.36677 -2.91817,-3.54345 -1.28237,0.0951 -2.81492,-0.72537 -3.961,-2.90318 -0.40409,-0.76788 -0.18931,-0.3733 -0.64751,-1.18288 -0.67445,-1.15144 -1.30438,-2.32875 -2.0562,-3.43286 -2.21364,-3.2509 -0.90244,-5.69174 1.26607,-5.80171 0.0813,-0.004 0.16394,-0.005 0.24753,-0.003 z m -102.00979,46.0375 c 0.0734,-0.002 0.14557,-0.002 0.21704,0 2.51565,0.0823 3.81113,3.06592 0.82579,6.19703 -2.1029,2.20552 -4.2387,4.38108 -6.36654,6.56291 -0.39589,0.39486 -0.79164,0.78956 -1.18752,1.18442 -1.90455,1.89964 -3.7712,2.10675 -4.98678,1.44023 0.4941,0.89921 0.71738,2.17344 0.44235,3.7884 -0.39833,2.33905 -0.97365,4.63592 -1.5968,6.9236 -0.43334,1.49224 -0.91369,2.96934 -1.40973,4.44159 -0.49566,1.47111 -1.23797,2.44673 -2.04174,3.0055 0.0931,0.32834 0.16998,0.68164 0.22583,1.06299 0.18991,1.29681 0.57001,2.55406 0.92914,3.81114 1.72854,6.05074 -4.38408,7.79646 -6.11229,1.74563 -0.43842,-1.53494 -0.88539,-3.07318 -1.10949,-4.6576 -0.36513,-2.58148 0.49635,-4.24681 1.69498,-4.86947 0.0139,-0.63963 0.12529,-1.34545 0.39068,-2.13062 0.45728,-1.35286 0.89768,-2.71101 1.30018,-4.08141 0.58604,-2.14694 1.12611,-4.30142 1.49603,-6.49779 0.45725,-2.71487 1.90953,-4.00298 3.31039,-4.07365 0.48907,-0.0247 0.97002,0.10424 1.40198,0.36742 -0.52043,-1.22033 -0.21775,-2.98857 1.57717,-4.77749 0.37502,-0.37377 0.75,-0.74761 1.12499,-1.12138 2.06861,-2.12108 4.14253,-4.23766 6.19187,-6.37687 1.2754,-1.33125 2.58196,-1.90847 3.68247,-1.94458 z m 121.15384,0.81183 c 1.49138,-0.0838 3.10232,1.21555 3.53364,4.1336 0.19312,1.30667 0.77693,2.50215 1.51877,3.58066 3.56621,5.18469 -1.88967,8.78821 -5.30459,3.50263 -1.17528,-1.81915 -2.13693,-3.78254 -2.46858,-5.94641 -0.50652,-3.30444 1.03052,-5.17557 2.72076,-5.27048 z m 12.5274,22.24981 c 1.49784,0.0489 3.05726,1.48051 3.37396,4.41316 0.21487,1.98982 0.40512,3.98275 0.58239,5.97638 0.10197,1.2003 0.1701,2.40287 0.2372,3.60547 0.0337,0.60344 -0.0423,1.10237 -0.12093,1.59577 0.44326,0.77237 0.71695,1.84018 0.6966,3.20549 -0.0285,1.91619 -0.54597,3.77188 -1.06815,5.60069 -0.45027,1.57685 -1.20282,2.59801 -2.03398,3.17603 -0.006,0.0159 -0.0115,0.0315 -0.0176,0.0475 -0.43215,1.09245 -1.05168,2.09551 -1.63143,3.11299 -0.0347,0.0609 -0.0769,0.089 -0.11214,0.1478 0.0563,1.17099 -0.55165,2.61081 -2.1146,3.9765 -0.31802,0.27787 -0.6559,0.53015 -0.97772,0.80357 -4.79546,4.07461 -8.92114,-0.83847 -4.0876,-4.86792 0.31612,-0.26356 0.63868,-0.51693 0.9524,-0.7829 0.097,-0.73988 0.30938,-1.53416 0.81648,-2.42414 0.41307,-0.72493 0.85794,-1.43728 1.20251,-2.19832 0.52601,-1.16176 1.17839,-2.00091 1.86501,-2.5523 0.0185,-0.0705 0.009,-0.12365 0.0294,-0.19533 0.36433,-1.25638 0.75492,-2.52928 0.82062,-3.84421 0.0303,-0.60749 0.11619,-1.15469 0.24443,-1.64487 -0.41595,-0.72075 -0.74358,-1.60284 -0.81028,-2.80292 -0.063,-1.13295 -0.1268,-2.26588 -0.22221,-3.3967 -0.17645,-1.9893 -0.36625,-3.978 -0.58085,-5.96346 -0.35925,-3.32367 1.25893,-5.04378 2.95641,-4.98832 z" /></clipPath><clipPath
       clipPathUnits="userSpaceOnUse"
       id="clipPath769"><path
         id="path770"
         style="fill:#ff0000;fill-opacity:1;fill-rule:nonzero;stroke:none;stroke-width:0.264583"
         d="m 423.29957,-511.52937 v 255.67121 h 262.52144 v -255.67121 z m 198.87675,17.68367 c 1.01637,-0.047 2.23986,0.28429 3.54914,1.15652 1.06072,0.70668 1.93216,1.62753 2.72851,2.61173 3.9583,4.89195 -1.22552,8.98512 -4.98781,3.94084 -0.43096,-0.57781 -0.94642,-1.07516 -1.55494,-1.46709 -3.96782,-2.55562 -2.78401,-6.101 0.2651,-6.242 z m 1.8805,11.92175 c 1.53545,-0.0693 7.24921,5.70198 6.22546,0.89349 -0.0448,-0.21053 -0.0901,-0.42096 -0.13487,-0.63149 -0.009,-0.0498 -0.074,-0.16462 -0.0258,-0.14934 0.10274,0.0325 0.15586,0.14878 0.23926,0.21704 0.0967,0.0791 0.19808,0.15234 0.30024,0.22428 0.31885,0.22454 0.47818,0.3136 0.82062,0.52296 0.64295,0.40151 1.2564,0.84709 1.86759,1.2945 5.07773,3.71696 1.30393,8.8567 -3.76204,5.12371 -0.48014,-0.35379 -0.96168,-0.70569 -1.4671,-1.02319 -1.37377,-0.86597 -2.90079,-1.88582 -3.66489,-3.38119 -0.20921,-0.40942 -0.31086,-0.86534 -0.46612,-1.29811 -0.46485,-1.29569 -0.36225,-1.77324 0.0677,-1.79266 z m -60.10744,30.36404 c 1.30627,-10e-4 2.55006,0.41678 3.71347,1.03973 2.50703,1.34241 0.86764,2.91312 -1.12861,4.08864 1.7443,2.33172 -0.30815,5.44208 -4.82762,4.2199 -0.59799,-0.16172 -1.21233,-0.30002 -1.80867,-0.44338 -5.92728,-1.42494 -6.26672,-6.38462 -0.56999,-6.37326 0.18376,2.7e-4 0.37365,0.006 0.56999,0.0165 0.18943,0.0106 0.37342,0.0564 0.56121,0.078 0.16531,-1.25569 0.89376,-2.29678 2.57607,-2.55592 0.30788,-0.0474 0.6127,-0.07 0.91415,-0.0703 z" /></clipPath><clipPath
       clipPathUnits="userSpaceOnUse"
       id="clipPath884"><path
         id="path885"
         style="fill:#ff0000;fill-opacity:1;fill-rule:nonzero;stroke:none;stroke-width:0.264583"
         d="m 312.45162,-515.02853 v 253.31994 h 256.60553 v -253.31994 z m 22.4131,129.65772 c 2.5535,0.12672 3.49793,3.51648 0.23306,6.64662 -0.48382,0.46387 -0.89752,0.98841 -1.33325,1.49397 1.27219,1.35723 2.43991,2.81084 3.57549,4.29069 0.0472,0.0205 0.0814,0.0348 0.13075,0.0563 0.042,0.0183 0.0838,0.0371 0.12609,0.0548 -0.90901,-2.24362 0.0381,-4.11267 1.88205,-4.21577 0.98103,-0.0548 2.21517,0.39013 3.55689,1.54409 0.26171,0.22513 0.53337,0.43903 0.78497,0.67542 1.15793,1.0879 2.26655,2.22856 3.39772,3.34449 2.47049,2.43772 4.92182,4.89214 7.35097,7.37061 0.69671,0.72957 1.39309,1.45892 2.0898,2.1885 4.03787,4.22861 0.3541,8.31385 -3.67368,5.22087 0.0371,0.24937 0.0126,0.47432 -5.3e-4,0.70383 0.59459,2.73948 -2.43603,4.70504 -6.1066,1.93219 -4.89635,-3.69914 -9.7769,-7.41946 -14.64975,-11.1492 -2.85337,-2.18369 -3.02542,-4.87505 -1.70997,-6.08334 -0.0764,-0.0901 -0.14359,-0.18847 -0.22066,-0.27802 -0.23414,0.69756 -0.47894,1.39189 -0.7028,2.09237 l -0.3576,1.18701 c -0.69742,2.31593 -2.02606,3.46636 -3.29489,3.668 -2.69716,4.91698 -7.95736,2.36309 -5.4622,-3.15123 0.58987,-1.3037 1.21999,-2.58786 1.88774,-3.85248 0.1453,-1.56524 0.30149,-3.13213 0.60978,-4.67465 0.28821,-1.44207 0.85094,-2.44377 1.51825,-3.09749 0.0604,-1.43869 1.07345,-2.46722 2.59261,-2.43499 0.51408,0.0109 1.08746,0.14887 1.69964,0.42788 0.0604,-0.0218 0.11991,-0.0702 0.18035,-0.0873 0.72164,-0.8168 1.48759,-1.5936 2.31459,-2.31201 1.33585,-1.16039 2.58198,-1.61073 3.58117,-1.56114 z m 33.31011,12.03131 c 0.7397,0.0171 1.59264,0.20782 2.53783,0.6227 1.75836,0.77165 3.41378,1.74418 5.02605,2.78742 -0.80711,-1.57456 -1.72451,-3.07429 -0.86351,-3.09025 0.27641,-0.005 0.73598,0.14262 1.44177,0.4899 0.40103,0.19731 0.82377,0.35606 1.20355,0.59169 0.55299,0.34311 1.55868,1.23979 2.02571,1.68362 1.15488,1.09749 2.22076,2.28124 3.28197,3.46749 2.05369,2.26361 3.64206,4.86763 5.05293,7.56284 2.0889,3.99109 -0.22857,6.57413 -2.77038,5.70456 0.016,2.18825 0.10843,4.37447 0.22066,6.56033 0.0578,0.0474 0.11423,0.0892 0.1726,0.13901 2.07056,1.7681 3.1506,4.26468 4.01009,6.78253 1.51203,4.42925 -1.48522,6.69358 -3.91966,5.10201 -1.41551,2.82817 -5.28104,2.1987 -5.8291,-2.63188 -0.29991,-2.64322 -0.58556,-5.28914 -0.74414,-7.94577 -0.20213,-3.55715 -0.30974,-7.11658 -0.25993,-10.67996 0.0181,-1.29455 0.30401,-2.31858 0.74207,-3.08044 -0.12821,-0.0794 -0.25229,-0.13512 -0.38292,-0.22944 -1.03629,0.2471 -2.36154,0.0969 -3.90674,-0.80047 -2.0983,-1.21855 -1.02896,-0.60328 -3.20911,-1.84485 -1.4494,-0.81827 -2.89875,-1.64484 -4.38319,-2.39933 -0.50683,-0.2576 -1.05493,-0.43407 -1.54461,-0.72296 -0.0267,-0.0158 0.0593,-0.0189 0.0889,-0.0279 1.29457,-0.40601 1.78623,-1.01071 1.82987,-1.69085 -2.54367,-1.30461 -3.3089,-3.26447 -2.78381,-4.66225 -0.0109,-0.0811 0.0127,-0.14384 0.078,-0.18449 0.40088,-0.84249 1.29744,-1.44328 2.57504,-1.50016 0.10099,-0.004 0.20438,-0.006 0.31005,-0.003 z m -30.0793,28.8432 c 0.0836,-0.003 0.16922,-0.002 0.25632,0.002 0.92908,0.0426 2.05254,0.48966 3.27112,1.48467 0.23446,0.19144 0.47924,0.37171 0.70383,0.57464 1.12716,1.01845 2.16094,2.14338 3.20394,3.25458 -0.15337,-1.78787 1.04303,-3.07319 2.74247,-2.99258 1.04514,0.0496 2.27852,0.61491 3.49952,1.89601 2.89605,3.03809 5.80529,6.06406 8.71937,9.08471 2.80555,2.29914 1.50155,1.20363 4.25349,3.56103 1.11935,0.95887 1.71182,1.95159 1.95905,2.86701 2.46248,2.54238 4.87991,5.12757 7.28069,7.72821 1.92363,2.08352 2.00441,4.06826 1.14257,5.22242 0.96231,0.0268 2.10195,0.43219 3.31297,1.36787 3.29985,2.54939 6.23774,5.52291 9.11934,8.52506 l 1.72186,1.87844 c 2.50817,2.73657 1.90329,5.3522 0.11421,6.08593 -0.23121,0.16158 -0.51196,0.26452 -0.80047,0.35295 0.52323,2.73245 -2.529,4.62631 -6.14226,1.8061 -2.74007,-2.13875 -5.48704,-4.2714 -8.28167,-6.33812 -2.72539,-2.01558 -2.93591,-4.45813 -1.75751,-5.69991 -0.75177,-0.53859 -1.50356,-1.07706 -2.26395,-1.60352 -1.06901,-0.74022 -1.77093,-1.55629 -2.17092,-2.35438 -0.96724,-0.80155 -1.92911,-1.6096 -2.94091,-2.35593 -3.95627,-2.91819 -2.96961,-6.82328 0.12299,-6.69054 0.0948,0.004 0.19229,0.0135 0.29094,0.0253 -1.35065,-1.43525 -2.68246,-2.88851 -4.05918,-4.29896 -1.72988,-1.78362 -3.45554,-3.57158 -5.18108,-5.35937 -0.65562,-0.51325 -1.31169,-1.02806 -1.97146,-1.54047 -0.11526,2.58307 -3.22463,3.82843 -6.2761,0.63097 -3.33387,-3.49354 -6.55685,-7.10593 -10.03608,-10.45466 -3.29418,-3.1706 -2.42453,-6.56599 0.16691,-6.65903 z m 15.82591,29.44316 c 1.07291,0.0217 2.35299,0.54067 3.64061,1.75493 2.9306,2.76373 6.02993,5.34153 9.06456,7.98918 l 1.8371,1.58957 c 3.15376,2.72821 2.35908,5.70233 0.10076,6.23889 1.23014,3.03352 -1.96716,5.52075 -5.91333,2.55747 -1.84858,-1.38815 -0.90203,-0.67285 -2.83755,-2.14767 -1.89275,-1.49761 -3.7494,-3.03897 -5.6286,-4.55321 -3.50688,-2.82597 -3.04831,-6.30413 -0.61753,-6.72828 -0.16385,-0.15356 -0.33743,-0.29641 -0.50023,-0.45113 -3.27854,-3.11583 -1.88766,-6.30534 0.85421,-6.24975 z m 50.02382,7.59282 c 0.42941,-0.004 0.9141,0.16237 1.42317,0.45734 0.395,-0.24292 0.84958,-0.36761 1.32808,-0.35967 0.43609,0.007 0.88804,0.16906 1.33584,0.40566 0.34391,-0.20215 0.71888,-0.31123 1.10381,-0.31988 0.25574,-0.006 0.51511,0.0754 0.77308,0.15968 0.20934,-0.0566 0.42243,-0.0858 0.63562,-0.0858 1.58917,0 3.17862,1.57319 3.17862,4.71961 v 3.34036 c 0,2.61012 -1.094,4.13624 -2.37402,4.58112 -0.68231,0.46412 -1.47459,0.59028 -2.2164,0.33693 -0.005,5.3e-4 -0.009,0.005 -0.0139,0.006 -1.54483,1.52041 -4.38882,0.77112 -5.37797,-3.10679 -0.30451,-1.19375 -0.60956,-2.39246 -1.07642,-3.53415 -1.56306,-3.8224 -0.61828,-6.58031 1.28054,-6.60011 z m -10.32082,6.39806 c 0.85225,-0.0212 1.86678,0.33006 2.93729,1.11724 0.29813,-0.11905 0.62798,-0.18087 0.98134,-0.17363 1.08128,0.0222 2.37691,0.67536 3.61528,2.20297 1.15644,1.42647 2.08004,3.01761 3.01635,4.59145 3.05646,5.1373 -1.71994,8.32167 -4.96352,3.992 -1.20258,0.31704 -2.77773,-0.0622 -4.36821,-1.74149 -0.68347,-0.72165 -1.04835,-1.13238 -1.7725,-1.80093 -0.42217,-0.38976 -0.91681,-0.69837 -1.32395,-1.10381 -0.0187,-0.0186 0.0385,-0.0358 0.0579,-0.0537 0.37634,-0.3471 0.62184,-0.69405 0.84129,-1.03921 -1.90433,-2.13596 -1.83844,-4.28001 -0.71985,-5.32888 -0.16608,-0.2639 -0.26237,-0.44727 -0.12557,-0.4625 h 5e-4 c 0.0447,-0.005 0.38577,0.16406 0.47801,0.18965 0.37683,-0.23704 0.83188,-0.37637 1.34565,-0.38912 z" /></clipPath><clipPath
       clipPathUnits="userSpaceOnUse"
       id="clipPath915"><path
         id="path916"
         style="fill:#ff0000;fill-opacity:1;fill-rule:nonzero;stroke:none;stroke-width:0.264583"
         d="m 412.10032,-528.26493 v 224.78834 h 198.57185 v -224.78834 z m 32.70394,56.74382 c 0.76579,-0.10761 -2.87872,3.6377 0.90228,6.77995 0.013,0.0108 0.0463,0.0172 0.0393,0.0326 -0.13911,0.30592 -0.39478,0.54403 -0.58033,0.82424 -0.18934,0.28587 -0.37293,0.57605 -0.54828,0.87074 -0.59816,1.00525 -0.7068,1.26446 -1.25419,2.33836 -1.23223,2.45333 -2.34204,4.96491 -3.53622,7.43676 -2.01045,4.1614 -5.62064,3.7641 -6.31744,1.02061 -0.67621,-0.19775 -1.24932,-0.70082 -1.60714,-1.44849 -0.95252,0.55212 -2.03738,0.47186 -2.87269,-0.19431 -1.6259,-0.41998 -2.62547,-2.4326 -1.38752,-5.22759 -2.4e-4,-0.62646 0.12429,-1.33777 0.37311,-2.10943 0.11444,-0.74831 0.31798,-1.39058 0.58343,-1.92598 0.01,-0.0442 0.0314,-0.0864 0.0398,-0.13074 0.58364,-3.0918 2.20262,-4.66476 3.66076,-4.67827 0.46449,-0.004 0.91214,0.15054 1.30534,0.46406 0.26895,-0.0811 0.53766,-0.15013 0.79479,-0.15555 0.64604,-0.0136 1.23844,0.20526 1.69912,0.61443 0.47992,-0.25074 0.96724,-0.41168 1.43712,-0.3855 0.67682,0.0377 1.30212,0.35612 1.75958,0.93276 0.93085,-1.54942 2.01775,-2.99 3.56877,-3.9641 1.16574,-0.73211 1.72608,-1.06438 1.94045,-1.09451 z m 118.90851,1.66605 c 0.95178,0.0255 2.12074,0.49107 3.39359,1.55546 1.92106,1.60644 3.14582,3.80067 4.21835,6.02186 1.08521,2.24741 0.82971,4.03539 -0.0393,5.02398 0.87159,4.30167 -3.58147,5.97906 -6.03322,1.53582 -1.11838,0.93282 -3.10922,0.99197 -5.30304,-0.83974 -2.32843,-1.94417 -4.65962,-4.00495 -7.50135,-5.16506 -4.91563,-2.00679 -4.59122,-6.42321 -0.78755,-6.54792 0.0881,-0.003 0.17799,-0.003 0.26976,-0.002 v 5.3e-4 c 0.64236,0.0126 1.3752,0.14195 2.19056,0.41651 1.56635,0.52745 2.99331,1.31836 4.36459,2.20348 -0.6402,-2.01251 0.50366,-3.6656 2.48099,-3.64112 0.29442,0.004 0.61236,0.0592 0.94051,0.1416 0.3897,-0.4228 0.94289,-0.67902 1.6185,-0.7028 0.0615,-0.002 0.12414,-0.002 0.18759,-5.3e-4 z" /></clipPath><clipPath
       clipPathUnits="userSpaceOnUse"
       id="clipPath936"><path
         id="path937"
         style="fill:#ff0000;fill-opacity:1;fill-rule:nonzero;stroke:none;stroke-width:0.264583"
         d="m 338.78911,-505.0741 v 230.68618 H 555.77483 V -505.0741 Z m 23.1929,120.86033 c 0.18349,0.005 0.37309,0.0171 0.56896,0.0346 1.78343,0.15973 3.53837,0.53674 5.28185,0.93172 2.13838,0.49611 4.29899,0.88075 6.45645,1.28106 1.91076,0.31876 3.81774,0.66314 5.73815,0.91984 1.6268,0.21276 3.26808,0.26586 4.90616,0.31626 1.35095,0.0357 2.70219,0.0508 4.0535,0.0636 6.29254,0.0593 6.23254,6.41621 -0.0599,6.35671 -1.3968,-0.0132 -2.79353,-0.0294 -4.18993,-0.0667 -1.85538,-0.0577 -3.71363,-0.12475 -5.55573,-0.36949 -2.02519,-0.2731 -4.03758,-0.63068 -6.05234,-0.97048 -2.24039,-0.41611 -4.4839,-0.81649 -6.7045,-1.3317 -1.27366,-0.29023 -2.63303,-0.55317 -3.87367,-0.77411 -6.00173,-1.06884 -6.25714,-6.55959 -0.56896,-6.39134 z m 101.24447,1.74821 c 4.76129,0.15534 5.13538,5.41818 -0.49765,6.38359 -1.08399,0.18577 -2.1597,0.41395 -3.23907,0.62425 -1.79315,0.40189 -3.5625,0.90714 -5.37952,1.19889 -2.28792,0.39705 -4.58215,0.78837 -6.90294,0.93328 -3.06855,0.21373 -6.14407,0.26018 -9.21907,0.17208 -2.43872,-0.10241 -4.87833,-0.21024 -7.30964,-0.4315 -6.26692,-0.5703 -6.27427,-6.83946 0,-6.35671 2.52228,0.19407 5.04786,0.33131 7.57577,0.43718 2.83696,0.0741 5.67516,0.0408 8.50594,-0.16175 2.10619,-0.13121 4.1865,-0.49541 6.26267,-0.85576 1.71221,-0.28041 3.38071,-0.75555 5.07101,-1.1374 1.18436,-0.2355 2.36635,-0.48166 3.55637,-0.68729 0.38755,-0.067 0.75472,-0.10517 1.10174,-0.11783 0.16266,-0.006 0.3208,-0.006 0.47439,-10e-4 z m -36.20089,59.52918 c 1.59044,3e-5 3.15008,1.57283 3.0856,4.71858 -0.0486,2.36978 0.34887,4.70522 0.82217,7.01714 0.12882,0.53292 0.25771,1.06595 0.38654,1.59887 0.24086,0.9964 0.22439,1.81903 0.11162,2.55695 0.004,0.0122 0.008,0.0245 0.0114,0.0367 1.89774,5.99981 -4.16477,7.91661 -6.06061,1.91616 -0.11023,-0.34887 -0.2205,-0.69808 -0.33073,-1.04696 -0.71979,-2.19613 -1.43856,-4.39237 -2.15284,-6.5903 -0.80784,-2.48581 -0.22789,-4.2244 0.86764,-4.98109 -4.2e-4,-0.16945 -0.0151,-0.33773 -0.0119,-0.50746 0.0594,-3.14585 1.68068,-4.7186 3.27112,-4.71858 z m -14.90504,11.07685 c 1.09806,-0.006 2.43417,0.44771 3.82354,1.54409 1.40237,1.10664 2.93425,2.03997 4.46795,2.95124 0.97973,0.55053 1.94632,1.12377 2.91558,1.6924 5.42775,3.1842 2.21087,8.66711 -3.21686,5.48287 -0.98103,-0.57554 -1.95942,-1.15577 -2.95072,-1.71359 -1.98063,-1.18124 -3.97877,-2.38461 -5.71076,-3.91811 -3.38638,-2.99822 -2.13483,-6.02243 0.67127,-6.0389 z" /></clipPath><clipPath
       clipPathUnits="userSpaceOnUse"
       id="clipPath947"><path
         id="path948"
         style="fill:#ff0000;fill-opacity:1;fill-rule:nonzero;stroke:none;stroke-width:0.264583"
         d="m 321.04652,-500.98856 v 221.28933 h 229.95754 v -221.28933 z m 151.99589,181.11349 c 0.97549,-0.0127 2.15287,0.36872 3.4184,1.30328 0.7003,0.51715 1.3601,1.08169 1.99988,1.66915 0.33038,-0.24107 0.71406,-0.37424 1.13068,-0.38344 1.12158,-0.0248 2.47906,0.84343 3.65972,2.88665 0.33884,0.58639 0.58627,1.21567 0.87437,1.82676 1.47389,3.12621 0.39442,5.35174 -1.31878,5.77846 -1.29512,1.399 -3.88616,1.19609 -5.63635,-1.99368 -0.3673,-0.66942 -0.79695,-1.28879 -1.34411,-1.82831 -0.98056,-0.97015 -1.95849,-1.94773 -3.06027,-2.78278 -3.76141,-2.85072 -2.64997,-6.43782 0.27646,-6.47609 z m -77.75081,0.5948 c 2.65988,0.10396 3.65849,3.52613 0.25115,6.57479 -1.2412,1.11055 -2.32118,2.37688 -3.34863,3.68298 -0.80144,1.00798 -0.42573,0.52414 -1.13068,1.44849 -3.81606,5.00371 -8.87479,1.14031 -5.05189,-3.85816 0.77736,-1.01642 0.37967,-0.50624 1.19424,-1.53066 1.37108,-1.72978 2.81779,-3.41568 4.52324,-4.82813 1.21163,-1.00346 2.34893,-1.44959 3.30006,-1.4888 0.0892,-0.004 0.1767,-0.004 0.26251,-5.3e-4 z" /></clipPath><clipPath
       clipPathUnits="userSpaceOnUse"
       id="clipPath951"><path
         id="path951"
         style="fill:#ff0000;fill-opacity:1;fill-rule:nonzero;stroke:none;stroke-width:0.264583"
         d="m 422.87817,-520.07355 v 221.11518 h 136.51725 v -221.11518 z m 52.97713,158.3154 c 1.95707,-0.005 2.39717,2.26201 -0.0786,3.22048 -0.38156,0.14775 -0.19781,0.0721 -0.55294,0.22427 -2.892,1.23943 -4.14412,-1.68183 -1.25212,-2.92127 0.38707,-0.16584 0.17117,-0.0764 0.64906,-0.26407 0.45762,-0.17966 0.87213,-0.25839 1.23455,-0.25941 z" /></clipPath><clipPath
       clipPathUnits="userSpaceOnUse"
       id="clipPath1001"><path
         id="path1002"
         style="fill:#ff0000;fill-opacity:1;fill-rule:nonzero;stroke:none;stroke-width:0.264583"
         d="m 419.05825,-521.54633 v 204.42887 h 161.34674 v -204.42887 z m 110.52245,142.32 c 1.86597,-0.004 2.75024,2.34392 0.47542,4.59196 -1.13103,1.11777 -2.19265,2.30272 -3.21892,3.51659 -0.19144,0.23055 -0.3827,0.4614 -0.57413,0.69194 -0.87522,1.05404 -1.7911,1.45872 -2.58123,1.48673 -0.33895,0.41077 -0.6818,0.81862 -1.03198,1.2206 -0.93125,1.12622 -2.05134,2.06395 -3.19826,2.95951 -3.25439,2.54117 -5.80732,-0.33812 -3.35741,-2.94401 -1.06874,-1.00862 -0.6744,-2.98839 1.91719,-3.92999 0.84508,-0.30705 1.69228,-0.60635 2.54196,-0.9002 0.0866,-0.0299 0.17196,-0.0574 0.25632,-0.0827 0.4684,-0.59055 0.96606,-1.15767 1.4087,-1.76941 0.68504,-0.95379 1.32058,-1.94819 2.09496,-2.83393 0.91524,-1.04686 1.82879,-1.47724 2.5709,-1.46554 0.28617,0.005 0.54602,0.076 0.77153,0.20205 0.69183,-0.51116 1.35446,-0.74233 1.92495,-0.74362 z m -6.97373,12.63902 c 0.89301,0.0321 1.85192,0.81942 2.35592,2.5554 0.62543,2.15364 0.69621,4.4038 0.72296,6.63835 0.25556,0.43272 0.45851,0.98166 0.57412,1.6583 0.4192,2.45349 0.44537,4.95586 0.45837,7.43831 -10e-4,0.0981 -0.009,0.19597 -0.0103,0.29403 0.23829,0.55833 0.35282,1.2845 0.27078,2.173 -0.10398,1.12622 -0.26668,2.24481 -0.46095,3.35845 -0.0139,0.28613 -0.0143,0.5728 -0.0295,0.85886 -0.0414,0.77993 -0.24318,1.36379 -0.49816,1.85777 -0.16296,0.77766 -0.33162,1.55418 -0.49919,2.32957 -0.51712,2.28673 -0.26363,1.17376 -0.75913,3.33882 -0.52737,2.30425 -1.9985,3.06445 -3.12487,2.65513 -0.28433,0.57469 -0.56856,1.14945 -0.85318,1.72393 -0.14092,0.29669 -0.28179,0.59318 -0.42271,0.88987 -0.63733,1.3417 -1.51007,1.97185 -2.32493,2.13113 0.28179,1.05832 -0.44774,2.41347 -2.50992,3.07837 -0.51832,0.16712 -1.03343,0.34618 -1.56373,0.47284 -2.53932,0.60649 -3.86214,-0.55312 -3.66541,-1.88671 -0.0931,-0.0503 -0.18428,-0.10398 -0.27802,-0.15296 -3.20416,-1.67445 -2.48579,-4.62716 0.0181,-4.58267 0.5778,0.0103 1.2504,0.18023 1.99213,0.56224 0.50001,0.25757 0.98901,0.53652 1.48,0.8108 0.27115,0.15147 0.44545,0.32608 0.65888,0.49196 0.58708,-0.18708 1.11876,-0.26621 1.58802,-0.25889 0.0417,5.3e-4 0.0812,0.004 0.12196,0.006 -0.15652,-0.68991 -0.0655,-1.57446 0.42323,-2.60191 0.15156,-0.31863 0.30317,-0.63739 0.45475,-0.95602 0.86699,-1.74967 1.72281,-3.50534 2.61896,-5.2405 0.53126,-1.02865 1.20016,-1.66162 1.86294,-1.96681 0.29095,-1.34217 0.58743,-2.68571 0.82992,-4.03851 0.0838,-1.77478 0.1573,-3.55024 0.18552,-5.32681 -0.007,-1.75618 -0.022,-3.52291 -0.20361,-5.27203 -0.46201,-0.55131 -0.78672,-1.39163 -0.79479,-2.56108 -0.0146,-2.13243 0.002,-4.29875 -0.48628,-6.38721 -0.60139,-2.57264 0.56295,-4.1382 1.86812,-4.09122 z m 36.86131,12.84314 c 1.61242,0.0184 2.3473,1.67678 1.25109,3.4029 -0.012,0.0962 -0.0256,0.19376 -0.0424,0.29403 -0.18167,1.08675 -0.70088,2.05429 -1.31103,2.95538 -1.49135,2.20249 -3.44552,2.15432 -4.22455,0.98599 -2.52948,0.60462 -3.90684,-2.13489 -1.01647,-4.38372 0.99037,-0.77055 1.97512,-1.54852 2.97243,-2.30993 0.88419,-0.67505 1.69934,-0.95226 2.37091,-0.94465 z m -13.44155,7.01715 c 3.34854,0.0306 3.70798,3.72434 -0.24495,4.52168 -1.77738,0.35852 -3.55293,0.78128 -5.36401,0.92811 -4.43516,0.35955 -4.4068,-3.87844 0,-4.49481 1.50231,-0.21016 2.98807,-0.53924 4.47517,-0.83923 0.40893,-0.0825 0.78738,-0.11893 1.13379,-0.11575 z" /></clipPath><clipPath
       clipPathUnits="userSpaceOnUse"
       id="clipPath1019"><path
         id="path1020"
         style="fill:#ff0000;fill-opacity:1;fill-rule:nonzero;stroke:none;stroke-width:0.264583"
         d="m 376.05419,-530.54216 v 211.2455 h 168.99847 v -211.2455 z m 116.81767,178.64336 c 1.19462,5.3e-4 2.32467,1.25839 2.06086,3.60753 -0.0452,0.40293 -0.0764,0.80701 -0.10645,1.21129 2.22048,1.61551 0.84267,4.56159 -2.77865,3.61322 l -0.28887,-0.0754 c -3.22968,-0.8458 -3.34412,-3.47536 -1.37924,-4.27054 0.0276,-0.34568 0.053,-0.69153 0.093,-1.03611 0.24082,-2.07185 1.34526,-3.05035 2.39933,-3.04994 z m -95.00453,7.98245 c 1.12347,0 2.23573,1.11254 2.21278,3.33727 -0.007,0.65328 0.0166,1.30554 0.0305,1.95802 0.41894,0.46358 0.76656,1.14563 0.95808,2.07067 0.12979,0.62686 0.2145,1.262 0.30334,1.89549 0.61792,4.40659 -3.83856,5.02897 -4.45141,0.62167 -0.0177,-0.12697 -0.036,-0.25385 -0.0537,-0.38085 -0.64384,-0.48504 -1.16046,-1.37478 -1.22732,-2.78795 -0.0533,-1.12543 -0.0668,-2.25041 -0.0548,-3.37705 0.0238,-2.22472 1.15904,-3.33726 2.28255,-3.33727 z" /></clipPath><clipPath
       clipPathUnits="userSpaceOnUse"
       id="clipPath1106"><path
         id="path1107"
         style="fill:#ff0000;fill-opacity:1;fill-rule:nonzero;stroke:none;stroke-width:0.264583"
         d="m 289.56049,-539.50302 v 220.6749 h 193.74425 v -220.6749 z m 55.51754,63.27107 c 0.44675,-5.3e-4 0.97003,0.31232 1.36064,1.04955 0.26677,0.50348 0.5525,1.00165 0.72399,1.54822 0.15079,0.57215 0.2613,1.15164 0.22893,1.74667 -0.12086,2.22156 -2.40386,2.21934 -2.24741,0 0.028,-0.39729 -0.0428,-0.77797 -0.1509,-1.15807 -0.14754,-0.37655 -0.35152,-0.72797 -0.54053,-1.08469 -0.65105,-1.2287 -0.11928,-2.10058 0.62528,-2.10168 z m 40.34638,0.68523 c 0.98988,0.0224 1.97545,0.12783 2.95641,0.25735 0.61566,0.0889 1.22056,0.23014 1.82417,0.37724 2.1616,0.52674 1.62596,2.71538 -0.53433,2.18333 -0.52443,-0.12916 -1.05062,-0.25314 -1.58543,-0.3328 -0.883,-0.11752 -1.76994,-0.21377 -2.66082,-0.23771 -2.22405,-0.0598 -2.22428,-2.29765 0,-2.24741 z m 48.16708,75.79176 c 0.48106,2.6e-4 1.04579,0.36087 1.41129,1.18752 0.42749,0.96687 0.74426,1.9778 1.07435,2.9807 0.0735,0.23679 0.14716,0.47324 0.22066,0.71003 0.6598,2.12476 -1.48779,2.79117 -2.14664,0.66611 -0.0696,-0.22461 -0.13917,-0.44925 -0.20877,-0.67386 -0.32051,-0.97403 -0.62827,-1.955 -1.04387,-2.89388 -0.5347,-1.20795 -0.0101,-1.97705 0.69298,-1.97662 z m -114.85914,17.78082 c 0.25186,-0.009 0.54461,0.0363 0.87282,0.1509 0.87712,0.30615 1.71993,0.69697 2.56005,1.09089 0.97078,0.47506 1.94305,0.95179 2.87528,1.49965 0.45877,0.30128 0.23984,0.15018 0.6568,0.45062 1.80509,1.30058 0.47794,3.1322 -1.31878,1.82004 -0.30685,-0.2241 -0.14649,-0.11201 -0.48059,-0.33538 -0.86859,-0.51574 -1.78267,-0.95227 -2.68717,-1.40043 -0.74061,-0.34736 -1.48243,-0.69225 -2.25155,-0.97307 -1.76333,-0.64383 -1.58685,-2.25564 -0.22686,-2.30322 z m 110.91623,4.92322 c 0.50955,-0.0113 0.90249,0.51874 0.7736,1.62367 -0.0149,0.12782 -0.0209,0.25704 -0.045,0.38344 -0.0185,0.0969 -0.0579,0.18622 -0.0832,0.28009 0.0431,-0.0575 0.0856,-0.11542 0.12712,-0.17415 0.44176,-0.62431 0.95022,-0.88817 1.37615,-0.89142 0.66901,-0.005 1.08758,0.64707 0.76843,1.54202 0.33628,0.31703 0.46165,0.94455 0.1049,1.77457 -0.33078,0.7696 -0.79266,1.47313 -1.25367,2.17144 -0.1536,0.40775 -0.3598,0.79808 -0.57774,1.17616 -0.21658,0.38209 -0.49855,0.71547 -0.786,1.04438 -1.46408,1.67524 -3.17582,0.15886 -1.68259,-1.49035 0.19415,-0.21442 0.38409,-0.432 0.5271,-0.68574 0.0369,-0.0623 0.072,-0.12522 0.10749,-0.18811 0.0559,-0.24481 0.15115,-0.50435 0.33693,-0.78651 10e-4,-0.002 0.003,-0.004 0.004,-0.006 -0.2413,-0.041 -0.45633,-0.13673 -0.58962,-0.32195 -0.92183,0.62771 -2.0061,-0.23006 -1.34824,-1.81591 0.27494,-0.6628 0.54814,-1.32786 0.76636,-2.01176 0.33815,-1.05978 0.96427,-1.61238 1.47381,-1.62367 z m 16.71268,5.78776 c 0.32214,-0.003 0.71866,0.13838 1.15755,0.48007 0.28831,0.22446 0.54861,0.48137 0.82217,0.72295 0.0532,-0.008 0.10849,-0.0127 0.16588,-0.0129 0.34221,-0.001 0.75517,0.13849 1.1989,0.47387 0.53224,0.40228 1.00555,0.87577 1.48931,1.33325 0.97927,0.92606 0.7973,1.88917 0.14314,2.16576 -0.10427,0.29668 -0.31119,0.53041 -0.62941,0.59583 0.38568,0.40753 0.58754,0.82166 0.5705,1.16995 0.52563,1.00896 -0.20364,1.86569 -1.25263,1.48157 -0.0291,0.0105 -0.0441,0.0386 -0.0749,0.0465 0.967,1.36125 -0.3946,2.5907 -1.87793,1.22783 -0.33585,-0.30859 -0.67341,-0.6152 -1.01285,-0.91984 0.17452,0.19787 0.35633,0.38917 0.52968,0.58807 1.46172,1.67729 -0.23317,3.15407 -1.69447,1.4764 -0.426,-0.48907 -0.84957,-0.98097 -1.30225,-1.44591 -0.71444,-0.74855 -1.4582,-1.46716 -2.18953,-2.19883 -1.08133,-1.08186 -0.6335,-2.11746 0.26872,-2.15336 0.21509,-0.009 0.45689,0.0489 0.709,0.16692 -0.1525,-0.47243 -0.0202,-0.87486 0.2651,-1.11259 -0.15667,-0.1164 -0.31344,-0.23267 -0.47181,-0.34675 -1.41015,-1.01598 -1.07802,-2.37156 0.0269,-2.34095 0.30928,0.009 0.6788,0.126 1.08779,0.38964 0.0944,0.0609 0.192,0.11742 0.2837,0.18242 0.0177,0.0126 0.0327,0.0251 0.0496,0.0377 0.15635,-0.0979 0.35248,-0.15372 0.58084,-0.15038 0.25529,0.004 0.55743,0.10515 0.87902,0.27647 -0.92837,-1.02493 -0.60883,-2.12579 0.27802,-2.13372 z m 5.53816,22.2498 c 0.35104,-0.003 0.69993,0.0294 1.0449,0.11059 0.32845,0.0825 0.65238,0.18471 0.97048,0.30076 0.26251,0.10294 0.5283,0.19761 0.79117,0.29972 0.14948,0.0644 0.31116,0.0876 0.4718,0.10594 0.28209,-0.003 0.56465,-0.007 0.84646,-0.0212 0.25526,-0.0143 0.51008,-0.0345 0.76275,-0.0749 0.28743,-0.0383 0.57533,-0.0531 0.86403,-0.0775 0.31991,-0.0364 0.63757,-0.0945 0.95963,-0.10903 0.33546,-0.0242 0.67084,-0.0571 1.00045,-0.12661 0.39681,-0.0877 0.79099,-0.18741 1.18494,-0.28681 2.04931,-0.51666 2.56069,1.41413 0.76223,2.0836 0.70203,0.67226 0.22565,1.82871 -1.36477,1.78232 -0.21706,0.22107 -0.50249,0.42258 -0.94568,0.54932 -1.49517,0.42758 -2.98814,0.86734 -4.49327,1.2578 -1.02353,0.26553 -1.62777,-0.0853 -1.75183,-0.59221 -1.64442,0.35628 -3.28012,0.74947 -4.85707,1.33945 -1.75097,0.65521 -2.55148,-0.73959 -1.526,-1.66398 -1.414,0.0907 -2.82723,0.18885 -4.2385,0.31471 -2.21605,0.19765 -2.21357,-2.02363 0,-2.24741 1.44449,-0.14592 2.89366,-0.23634 4.34237,-0.32814 0.40738,-0.0264 0.81559,-0.0362 1.22318,-0.0584 0.11006,-0.21466 0.27458,-0.43672 0.50643,-0.65681 0.0556,-0.0527 0.1108,-0.10543 0.1664,-0.15813 0.36443,-0.32534 0.72837,-0.65001 1.13946,-0.91726 0.55339,-0.35877 1.11961,-0.7239 1.78852,-0.8108 0.11734,-0.009 0.23491,-0.0139 0.35192,-0.015 z m -13.69219,2.18953 c 0.46182,-0.009 0.98515,0.35317 1.29708,1.20148 0.36327,0.98792 0.62372,2.00781 0.86558,3.03082 0.0428,0.19009 0.0855,0.38042 0.12816,0.57051 0.48783,2.17071 -1.70585,2.6632 -2.19315,0.49248 -0.0409,-0.182 -0.0816,-0.36421 -0.12247,-0.54622 -0.21363,-0.90475 -0.44174,-1.80571 -0.75241,-2.68304 -0.44095,-1.24524 0.10224,-2.05261 0.77721,-2.06603 z m -93.08475,9.60768 c 0.69568,0.0288 1.20056,0.82916 0.6475,2.02882 -0.22012,0.47748 -0.36281,0.98607 -0.51625,1.48777 -0.19441,0.71139 -0.3277,1.43679 -0.51831,2.14922 -0.22881,0.72532 -0.48674,1.43939 -0.69505,2.17144 -0.15707,0.64447 -0.33403,1.28396 -0.48627,1.9296 -0.0907,0.39795 -0.19157,0.79278 -0.31316,1.18236 -0.66286,2.12377 -2.8259,1.43929 -2.14251,-0.678 0.10835,-0.33568 0.18719,-0.6786 0.26872,-1.02164 0.16114,-0.67865 0.34446,-1.35176 0.51211,-2.02882 0.20623,-0.72054 0.45149,-1.42707 0.68575,-2.13837 0.1992,-0.73665 0.32709,-1.48974 0.5395,-2.22312 0.17731,-0.57891 0.34707,-1.16417 0.59996,-1.71566 0.37675,-0.82157 0.94199,-1.1633 1.41801,-1.1436 z" /></clipPath><clipPath
       clipPathUnits="userSpaceOnUse"
       id="clipPath1113"><path
         id="path1114"
         style="fill:#ff0000;fill-opacity:1;fill-rule:nonzero;stroke:none;stroke-width:0.264583"
         d="m 229.84428,-531.5313 v 197.8024 h 155.051 v -197.8024 z m 129.62671,58.51632 c 1.17882,-0.0116 2.58726,0.72597 3.81217,2.5089 1.46873,2.13781 2.62597,4.48036 3.82768,6.77478 1.70047,3.13292 3.30759,6.31256 4.74441,9.57512 1.00144,2.14284 1.81607,4.36526 2.66185,6.57221 0.705,1.69828 1.28659,3.44014 1.69189,5.23327 0.28144,1.30643 0.40526,2.63609 0.48317,3.96772 0.0343,0.78981 0.0195,0.40002 0.045,1.17047 0.20798,6.28936 -6.14883,6.49777 -6.3531,0.20826 -0.0219,-0.67541 -0.009,-0.33791 -0.0377,-1.01183 -0.0564,-0.99173 -0.13883,-1.98325 -0.34313,-2.95744 -0.32186,-1.49147 -0.84671,-2.92477 -1.42162,-4.33617 -0.80918,-2.11153 -1.5855,-4.23915 -2.54558,-6.2885 -1.37442,-3.13237 -2.9281,-6.17713 -4.55683,-9.18446 -1.06556,-2.03562 -2.08647,-4.11983 -3.36879,-6.02857 -2.30293,-3.42792 -0.88981,-6.18153 1.36064,-6.20376 z m 15.83418,53.66598 c 1.82881,10e-4 3.34136,1.97428 2.35334,5.37332 -0.69146,2.37877 -1.39494,4.74747 -2.23294,7.07967 -2.12792,5.92211 -8.1161,3.76599 -5.98051,-2.15336 0.76873,-2.13075 1.40703,-4.29647 2.04639,-6.46834 0.77747,-2.64105 2.39131,-3.83235 3.81372,-3.83129 z" /></clipPath></defs><g
     id="layer1"
     transform="translate(-229.84428,531.5313)"><path
       style="fill:#000000"
       d="m 289.81777,-333.8915 c -2.48725,-0.52395 -5.19051,-2.64633 -6.41171,-5.03398 -0.60068,-1.17441 -1.27413,-3.50833 -1.4051,-4.86948 l -0.10016,-1.04098 -3.14855,-0.57681 c -4.33797,-0.7947 -7.18313,-1.56284 -10.29896,-2.78052 -2.90512,-1.13533 -7.70915,-3.96212 -7.59356,-4.4682 0.04,-0.17506 -0.0358,-0.25123 -0.16846,-0.16925 -0.31874,0.19699 -0.88183,-0.49331 -0.62955,-0.77179 0.10788,-0.11908 0.0433,-0.12836 -0.14359,-0.0206 -0.54072,0.31178 -3.21121,-2.75731 -5.77911,-6.64168 l -2.3058,-3.48792 -1.22228,0.14476 c -0.67226,0.0796 -1.93187,4.4e-4 -2.79914,-0.17596 -4.53776,-0.92295 -8.31388,-4.18906 -10.62407,-9.18914 -1.45681,-3.15309 -1.74216,-5.03025 -1.58006,-10.39445 0.1439,-4.76221 0.51372,-6.93604 2.007,-11.79747 l 0.57613,-1.87559 -1.41746,-2.75462 c -3.05574,-5.93834 -4.67853,-10.48668 -5.70283,-15.98377 -1.07183,-5.75221 -1.23389,-7.78087 -1.22596,-15.34583 0.007,-6.32919 0.0952,-7.98645 0.60766,-11.37709 1.67411,-11.07569 5.28649,-20.98376 10.51553,-28.84208 1.80313,-2.7098 4.42819,-5.84116 4.82479,-5.75536 0.16009,0.0346 0.23072,-0.0943 0.15695,-0.28657 -0.15648,-0.40777 3.26546,-3.63484 6.37088,-6.00808 4.0979,-3.13171 10.70066,-6.71197 16.40417,-8.89493 1.30968,-0.50127 2.46596,-0.99516 2.56951,-1.09753 0.28467,-0.28145 -2.77966,-5.55159 -4.10776,-7.06466 -0.64129,-0.73061 -1.80768,-1.82009 -2.59199,-2.42107 l -1.42601,-1.09269 -1.71979,0.36504 c -2.98101,0.63273 -5.52891,0.30503 -8.34654,-1.07351 -2.97354,-1.45482 -5.97754,-5.51974 -6.71064,-9.08064 -0.87771,-4.26331 0.5093,-8.78549 3.59708,-11.72783 2.59759,-2.47524 5.04585,-3.40848 8.92843,-3.4034 2.67631,0.004 4.43526,0.38855 6.58934,1.44244 1.55568,0.76112 4.54809,3.29848 4.7904,4.06193 0.0809,0.25488 0.50691,0.67597 0.9467,0.93576 1.34133,0.79234 5.52592,4.93643 7.25065,7.18047 2.21102,2.87676 2.77321,3.79108 4.48884,7.3005 1.31139,2.6825 3.86573,9.72103 3.86573,10.65206 0,0.27908 0.64741,0.22584 3.10886,-0.25563 6.39003,-1.24992 9.78984,-1.54521 17.52864,-1.52245 5.31822,0.0156 8.05377,0.13872 10.16637,0.45742 1.58968,0.23981 2.98408,0.43602 3.09866,0.43602 0.11458,0 0.33627,-0.50601 0.49264,-1.12448 2.12515,-8.40523 8.73145,-18.06615 15.73494,-23.01044 1.86828,-1.31896 4.72787,-2.87609 5.96156,-3.24624 0.3638,-0.10915 1.55442,-1.06042 2.64583,-2.11393 3.00479,-2.90046 5.19813,-3.83472 9.01396,-3.83954 3.76925,-0.005 6.7461,1.24253 9.26766,3.88311 1.6587,1.737 2.18177,2.57133 2.87175,4.58069 1.60318,4.66875 0.56091,9.54107 -2.74905,12.85103 -1.53867,1.53866 -3.77568,2.77701 -5.93748,3.28681 -1.94098,0.45773 -5.53247,0.22021 -7.83663,-0.51828 l -1.85208,-0.59359 -1.7198,1.04589 c -0.94588,0.57524 -2.15842,1.18964 -2.69452,1.36532 -0.93595,0.30671 -2.86173,2.1124 -2.86173,2.68327 0,0.15134 -0.46591,0.89514 -1.03535,1.65288 -1.14187,1.51944 -3.1884,5.15677 -3.19426,5.67719 -0.002,0.1819 0.14511,0.33098 0.32701,0.33128 0.67176,10e-4 7.28963,2.60859 9.72344,3.83107 3.82759,1.92257 6.63308,3.59731 6.46951,3.86198 -0.0808,0.13081 0.008,0.17884 0.19747,0.10674 0.58352,-0.22207 6.89138,4.70398 10.06566,7.86066 9.08694,9.03654 15.14137,20.14984 18.70056,34.32607 3.1517,12.55318 3.39449,26.78024 0.67761,39.70668 -2.13393,10.15289 -5.59091,18.83706 -9.47436,23.80029 -1.32124,1.6886 -1.46141,1.98552 -1.29302,2.73899 0.36545,1.63527 0.17922,3.49458 -0.45236,4.51651 l -0.60179,0.97372 0.71152,0.55967 c 1.09033,0.85766 2.78045,3.11294 2.78045,3.71021 0,0.29322 0.31026,1.14573 0.68947,1.89447 0.63119,1.24625 0.67862,1.56266 0.56108,3.74259 -0.14194,2.6323 -0.73212,4.44281 -2.09306,6.42086 -4.23151,6.1503 -12.7472,8.70535 -24.43646,7.33193 l -4.06839,-0.47802 -2.32649,1.08094 c -2.51663,1.16927 -6.90179,2.56944 -10.96219,3.5002 l -2.55166,0.58491 -0.17943,1.7598 c -0.46909,4.60083 -2.19769,7.40881 -5.49968,8.93386 -1.45491,0.67195 -1.95418,0.76344 -4.16652,0.76344 -2.13535,0 -2.7126,-0.0979 -3.83646,-0.6509 -2.69553,-1.32624 -4.5996,-3.68517 -5.43271,-6.73052 l -0.44166,-1.61442 -4.26603,-0.0727 -4.26604,-0.0727 -0.16245,0.73412 c -0.62952,2.84487 -1.82967,5.04014 -3.51574,6.43088 -1.89165,1.56032 -5.39182,2.37494 -7.91796,1.84281 z m 32.51265,-5.14528 c 1.24868,-0.82634 2.1764,-2.64697 2.48104,-4.86898 l 0.19419,-1.41636 -0.75619,0.16105 c -1.36143,0.28995 -5.94279,0.93229 -7.94048,1.11331 -2.17052,0.19669 -2.10947,0.0883 -1.24249,2.20558 1.38275,3.37683 4.55128,4.60054 7.26393,2.8054 z m -28.65578,0.27669 c 1.01386,-0.52751 1.7884,-1.42768 2.41203,-2.80326 0.92916,-2.04951 1.00028,-1.99546 -3.08662,-2.34542 -2.00091,-0.17134 -4.31397,-0.38432 -5.14014,-0.47329 l -1.50211,-0.16177 0.27727,1.09235 c 0.39866,1.5706 1.78718,3.75663 2.83223,4.45895 1.0516,0.70672 3.08037,0.8188 4.20734,0.23244 z m 20.96835,-8.63949 c 5.81988,-0.45789 13.2053,-1.59382 16.39091,-2.52102 6.28186,-1.82841 12.70395,-4.41473 18.69966,-7.53077 1.9182,-0.99691 2.90959,-1.39213 2.80439,-1.11798 -0.10817,0.28188 -0.0589,0.35991 0.14682,0.23275 0.40909,-0.25283 0.39248,-0.14306 -0.13971,0.92375 -0.24708,0.4953 -0.69311,1.09801 -0.99116,1.33936 -0.52993,0.4291 -0.51853,0.44344 0.5154,0.64797 1.70334,0.33695 7.74941,0.18691 10.14569,-0.25179 4.17855,-0.76498 7.6594,-3.02357 8.83056,-5.72979 0.76851,-1.77583 0.57662,-4.30723 -0.44336,-5.84851 l -0.76753,-1.15983 -0.29902,1.32136 c -0.38006,1.67954 -0.98491,2.59153 -2.47164,3.72673 -2.27725,1.73881 -5.6197,2.31089 -9.89177,1.69302 -1.62242,-0.23465 -1.86154,-0.20573 -2.77813,0.33597 -0.87737,0.51852 -1.35068,0.58948 -3.78104,0.56683 -2.42451,-0.0226 -3.07418,-0.13349 -5.1041,-0.87121 -2.75164,-1.00001 -4.28359,-1.81836 -6.3121,-3.37182 -1.63486,-1.252 -4.06619,-3.81933 -5.29467,-5.59083 -1.95646,-2.82127 -3.96877,-7.76687 -4.7232,-11.60808 -0.38597,-1.9652 -0.0138,-3.09048 1.06311,-3.21417 0.80123,-0.092 1.01987,0.23111 2.13903,3.16144 3.57998,9.37358 12.14996,16.79464 18.83496,16.30987 l 1.11677,-0.081 -2.26044,-2.38125 c -2.65793,-2.79999 -3.48775,-3.87743 -1.8273,-2.37259 3.20564,2.90524 5.54132,4.18585 8.73497,4.78921 2.76395,0.52219 4.90723,0.33677 6.80037,-0.5883 1.58935,-0.77663 2.24857,-1.76703 2.28633,-3.43501 0.0373,-1.64716 -0.99241,-2.92628 -4.46725,-5.54931 -1.68425,-1.27138 -3.01756,-2.35632 -2.96291,-2.41097 0.0547,-0.0546 0.7969,0.32066 1.64943,0.83402 2.64571,1.59317 4.8864,1.88482 6.91944,0.90065 1.52956,-0.74045 2.035,-1.73742 1.85564,-3.66021 -0.23206,-2.48786 -1.72535,-4.56284 -5.84753,-8.1254 -8.37617,-7.23902 -11.61181,-11.63252 -13.24731,-17.98776 -0.67607,-2.62704 -0.7854,-3.12408 -1.59284,-7.2412 -1.81962,-9.27821 -4.85014,-14.44418 -11.66164,-19.87896 -1.9724,-1.57375 -5.52507,-3.93354 -5.92195,-3.93354 -0.13125,0 -0.31731,0.46572 -0.41348,1.03494 -0.30548,1.80811 -2.02669,4.81962 -3.3172,5.80392 -1.08559,0.82802 -1.27641,0.88144 -2.80155,0.78432 -2.85428,-0.18174 -5.17445,-2.20094 -7.92849,-6.9 -1.0064,-1.71716 -2.54641,-5.30573 -3.00032,-6.99144 -0.29425,-1.09274 -0.30798,-1.10252 -2.12955,-1.51683 -1.00836,-0.22934 -2.00666,-0.41699 -2.21845,-0.41699 -0.21178,0 -0.8008,0.62508 -1.30893,1.38906 -2.13561,3.21095 -5.65316,6.55733 -9.31404,8.86079 -1.91679,1.20606 -6.55082,3.35034 -8.95285,4.14269 -10.10831,3.33442 -22.77177,2.18817 -25.61418,-2.3185 -1.10512,-1.75219 0.20681,-6.01074 2.98934,-9.70344 0.85112,-1.12952 1.54748,-2.11878 1.54748,-2.19837 0,-0.16849 -0.0902,-0.14005 -5.79896,1.82859 -2.38906,0.82385 -5.36563,1.99062 -6.61458,2.59282 l -2.27083,1.0949 -2.40107,4.7625 c -2.67729,5.31038 -3.7348,8.02919 -4.87902,12.54382 -1.95039,7.69539 -2.51909,14.56727 -1.73563,20.97243 0.506,4.13679 1.89205,10.3301 2.92066,13.05041 0.38517,1.01865 1.65158,4.59052 2.81423,7.9375 3.63119,10.45326 5.86969,15.40693 8.84864,19.58155 2.36775,3.31811 6.19008,6.26812 10.43948,8.05701 5.74249,2.41745 15.39759,4.55771 23.8125,5.27856 3.76171,0.32224 17.12223,0.32736 21.17992,0.008 z m -26.13584,-45.77448 c -4.57189,-0.5947 -8.2977,-2.28851 -11.43706,-5.19947 -2.55706,-2.37103 -3.0333,-3.29048 -2.85497,-5.51204 0.18098,-2.2547 1.1755,-3.99481 3.76982,-6.59607 5.24334,-5.25736 11.97319,-6.56561 18.51528,-3.59929 4.87172,2.20895 8.25744,6.6354 8.54202,11.16775 0.16683,2.65701 -0.36142,4.27872 -1.88177,5.77698 -2.50614,2.46974 -4.97285,3.52744 -9.2868,3.9821 -2.68862,0.28336 -3.0448,0.28204 -5.36652,-0.02 z m 7.57628,-3.84131 c 3.06321,-0.69843 5.21619,-2.27524 5.68094,-4.16064 0.25723,-1.04355 -0.28436,-3.74816 -1.05515,-5.26923 -1.38875,-2.74057 -4.2985,-5.06891 -7.58044,-6.06577 -1.45459,-0.44182 -2.32095,-0.52975 -4.39748,-0.44635 -3.46898,0.13934 -5.39555,1.05291 -8.23986,3.90732 -2.99726,3.0079 -3.8407,5.26324 -2.54444,6.80376 0.74281,0.88279 3.91262,3.14771 5.60216,4.00292 3.51148,1.77743 8.13696,2.23059 12.53427,1.22799 z m 19.91505,-0.66651 c -1.92189,-0.75606 -4.03577,-2.89922 -4.84579,-4.91289 -0.49846,-1.23915 -0.62084,-2.0369 -0.62225,-4.05608 -0.002,-2.24614 0.08,-2.67751 0.76664,-4.05479 0.98254,-1.9708 2.79875,-3.78393 4.65298,-4.64508 1.20643,-0.5603 1.84558,-0.67645 3.70676,-0.67358 2.85793,0.004 4.3078,0.61959 6.29458,2.67088 2.30419,2.379 3.18961,5.13048 2.67641,8.31711 -0.5103,3.16871 -2.30953,5.49499 -5.4103,6.99516 -2.12901,1.03002 -5.13385,1.17956 -7.21903,0.35927 z m 3.02104,-9.50983 c 2.2018,-1.06588 2.60769,-3.81228 0.80725,-5.46226 -1.66659,-1.52731 -4.23239,-1.41059 -5.76009,0.26203 -0.60287,0.66005 -0.75966,1.07942 -0.75887,2.02975 0.002,2.97599 2.84921,4.55619 5.71171,3.17048 z m -58.86297,7.04581 c -2.00727,-0.76421 -3.73215,-2.33573 -4.67131,-4.25599 -3.07293,-6.28309 2.52705,-13.84621 9.00595,-12.16311 2.0164,0.52383 3.2818,1.36066 4.62277,3.05711 3.39095,4.28988 1.84534,10.83504 -3.10063,13.13009 -2.03866,0.94599 -3.79816,1.01566 -5.85678,0.2319 z m 0.0451,-8.11499 c 1.71641,-0.78205 1.97531,-3.45672 0.46522,-4.8061 -1.33806,-1.19566 -3.44816,-0.90717 -4.33406,0.59253 -1.14389,1.93644 0.13501,4.5007 2.24468,4.5007 0.54669,0 1.27756,-0.12921 1.62416,-0.28713 z m -10.32049,40.07665 c 0.0894,-0.0894 -0.19423,-1.13121 -0.63029,-2.31511 -1.1306,-3.06951 -2.74019,-9.75485 -3.38743,-14.06948 -0.68082,-4.53859 -1.63404,-8.61299 -2.05261,-8.77361 -0.17198,-0.066 -0.54677,0.005 -0.83287,0.1584 -0.48163,0.25777 -0.53334,0.16617 -0.69785,-1.2364 -0.3312,-2.82369 -0.49836,-2.61493 -1.1175,1.39563 -1.3726,8.89127 -1.45092,12.51955 -0.35687,16.53203 1.02928,3.77493 4.01815,7.00246 7.48923,8.08725 1.34748,0.42112 1.38159,0.42588 1.58619,0.22129 z m 122.09679,-18.95359 c 3.71931,-6.15614 6.69167,-15.79135 8.18249,-26.52448 0.66572,-4.79277 0.65105,-16.59103 -0.0263,-21.16666 -2.1445,-14.48631 -7.02872,-27.12534 -13.71718,-35.49631 -0.98498,-1.23276 -1.72027,-2.35561 -1.63398,-2.49524 0.0863,-0.13962 0.0422,-0.22114 -0.098,-0.18115 -0.14016,0.04 -1.64244,-1.32322 -3.3384,-3.02935 -3.33753,-3.35754 -7.8407,-6.90335 -10.99817,-8.65998 -5.05316,-2.81128 -14.73812,-7.07547 -15.14528,-6.66831 -0.13327,0.13327 -0.3057,0.71494 -0.38318,1.2926 l -0.14088,1.05028 1.94769,1.07843 c 3.91609,2.16832 8.43153,6.34921 10.74885,9.95244 3.65674,5.68594 5.46691,11.80666 5.44704,18.41805 -0.0275,9.16019 -3.02176,16.58683 -9.27697,23.00991 l -1.66624,1.71095 1.52251,1.58789 c 0.83737,0.87333 1.58469,1.65121 1.6607,1.72862 0.9101,0.92693 2.79396,3.4086 3.62928,4.78096 2.22958,3.66302 3.04639,6.08521 4.72264,14.00459 1.42453,6.73017 2.2612,8.99036 4.70435,12.70833 1.45259,2.21055 2.78301,3.72407 6.51209,7.40833 2.5776,2.54661 5.01821,5.13622 5.42359,5.75469 0.40537,0.61846 0.81513,1.12447 0.91057,1.12447 0.0954,0 0.55117,-0.62507 1.01274,-1.38906 z m -1.76486,-21.51944 c 0.0127,-0.30823 0.0754,-0.37092 0.15985,-0.15985 0.0764,0.19099 0.067,0.4192 -0.0209,0.50711 -0.0879,0.0879 -0.15045,-0.0684 -0.13896,-0.34726 z m 3.2761,-29.73219 c 0.57631,-0.63682 0.70838,-0.67927 0.51071,-0.16413 -0.0795,0.20702 -0.33693,0.45027 -0.57218,0.54055 -0.3514,0.13484 -0.34043,0.0677 0.0615,-0.37642 z m 0.42806,-3.60531 c 0.0127,-0.30822 0.0754,-0.37092 0.15986,-0.15985 0.0764,0.19099 0.067,0.4192 -0.0209,0.50712 -0.0879,0.0879 -0.15045,-0.0684 -0.13897,-0.34727 z m -11.79484,-24.98107 c -0.0899,-0.14553 -0.0374,-0.26459 0.11668,-0.26459 0.1541,0 0.28019,0.11906 0.28019,0.26459 0,0.14552 -0.0525,0.26458 -0.11667,0.26458 -0.0642,0 -0.19026,-0.11906 -0.2802,-0.26458 z m -121.21869,60.52343 c -0.12611,-4.39104 -0.20675,-5.03246 -0.88976,-7.0776 -0.97746,-2.92681 -1.46746,-5.45736 -1.84437,-9.525 -0.16855,-1.81901 -0.42633,-3.69425 -0.57284,-4.16719 -0.24024,-0.77548 -0.36657,-0.8599 -1.28697,-0.8599 -0.56133,0 -1.34327,-0.12268 -1.73765,-0.27262 l -0.71706,-0.27263 0.18399,2.72002 c 0.41786,6.1773 1.81481,12.85938 3.72153,17.80127 0.96205,2.49347 2.93633,6.45007 3.23225,6.47767 0.0272,0.003 -0.0129,-2.16827 -0.0891,-4.82402 z m 2.59276,-19.88616 c 0.44419,-1.32274 1.39782,-3.63434 2.11918,-5.13688 0.72136,-1.50255 1.27158,-2.85185 1.22271,-2.99846 -0.0489,-0.14661 -0.81984,0.27156 -1.71327,0.92927 -0.89343,0.6577 -2.46772,1.75659 -3.49843,2.44196 -1.03071,0.68538 -1.87402,1.36036 -1.87402,1.49997 0,0.13961 0.33974,0.68769 0.75497,1.21796 0.68365,0.87303 0.77165,1.22656 0.93161,3.74224 0.0971,1.52797 0.2554,3.43297 0.35168,4.23333 l 0.17504,1.45521 0.36146,-2.48981 c 0.1988,-1.36939 0.72488,-3.57205 1.16907,-4.89479 z m -7.03067,-5.91071 c 9.12164,-8.1676 21.31726,-14.94777 31.46497,-17.49298 6.98168,-1.75112 12.03345,-2.28538 21.56354,-2.28049 8.878,0.005 12.31096,0.35061 19.90548,2.00657 9.80206,2.1373 20.10763,6.51679 27.16368,11.54357 1.07673,0.76707 2.2435,1.39468 2.59282,1.39468 1.14902,0 2.15262,-0.76732 3.72151,-2.84534 4.6668,-6.18127 6.67523,-12.05199 6.67523,-19.51195 0,-8.07939 -2.92789,-16.00923 -7.60256,-20.59065 -3.60165,-3.5298 -6.88242,-5.29087 -14.569,-7.82042 -2.66368,-0.87658 -5.23852,-1.83819 -5.72188,-2.13692 -0.90931,-0.56199 -1.20903,-1.32605 -1.20903,-3.08212 0,-0.70589 -0.12206,-0.9146 -0.59532,-1.01801 -1.69439,-0.37024 -7.20377,-0.69606 -11.68282,-0.69091 -5.35126,0.006 -8.16328,0.21558 -14.57707,1.08567 -14.54454,1.9731 -22.11818,4.12361 -30.89509,8.77254 -10.12486,5.36291 -16.23729,11.5984 -21.47657,21.90895 -3.95971,7.79243 -6.69436,18.04154 -7.2077,27.01348 -0.13798,2.41165 -0.0945,2.96154 0.27917,3.53186 0.51919,0.79238 1.42408,0.88095 2.17064,0.21247 z m 89.54101,-20.29379 c -5.28529,-1.3569 -8.82999,-4.86031 -10.17512,-10.05659 -1.89055,-7.30323 3.20788,-14.8828 10.8055,-16.06397 4.12216,-0.64086 8.33031,0.68843 11.51587,3.6377 1.96481,1.81907 2.69134,2.89275 3.71537,5.4907 0.95597,2.42528 1.16101,3.92626 0.82393,6.03157 -0.30217,1.88733 -1.73143,4.95942 -2.8939,6.22027 -3.5449,3.84487 -9.41746,5.86332 -13.79165,4.74032 z m 4.04189,-10.61709 c 1.35225,-0.46076 2.91847,-1.98925 3.52444,-3.43953 0.57594,-1.37841 0.47961,-4.02869 -0.18677,-5.13865 -1.66227,-2.7688 -4.30422,-3.91277 -7.34928,-3.18227 -5.72881,1.37432 -6.75994,8.90464 -1.57323,11.48929 1.63431,0.81441 3.69661,0.91454 5.58484,0.27116 z m -72.57609,8.28189 c -3.11647,-1.06251 -5.79339,-3.47158 -7.23232,-6.50868 -0.74783,-1.57842 -0.82813,-1.98889 -0.80863,-4.13369 0.034,-3.74402 1.41525,-6.54899 4.89667,-9.94417 5.36854,-5.23555 12.49955,-5.78633 17.90681,-1.38309 1.31586,1.07153 2.94334,3.39945 3.58951,5.13436 1.06096,2.84862 0.81877,6.59499 -0.62278,9.63344 -0.78212,1.64853 -3.94384,5.15842 -4.64672,5.15842 -0.20649,0 -0.37542,0.1028 -0.37542,0.22845 0,0.2897 -2.59815,1.44834 -4.4798,1.99777 -2.1809,0.6368 -6.07723,0.55023 -8.22732,-0.18281 z m 7.03151,-9.74718 c 3.81149,-0.95975 5.53965,-5.6953 3.19951,-8.76739 -2.34231,-3.07496 -6.83952,-3.33701 -9.48226,-0.55255 -2.79825,2.94831 -1.64479,7.78703 2.16877,9.09789 1.69744,0.58348 2.50543,0.62709 4.11398,0.22205 z m 15.72977,30.97527 c 3.30453,-0.40715 4.85735,-0.75754 7.80521,-1.76124 2.72472,-0.92772 6.40661,-2.66616 8.73125,-4.12253 3.09214,-1.93721 7.85787,-6.33627 7.37324,-6.80595 -0.12622,-0.12233 -1.83684,-0.43991 -3.80137,-0.70574 -2.80391,-0.37941 -5.3069,-0.48333 -11.64166,-0.48333 -10.47699,0 -12.56471,0.30786 -15.05422,2.21993 -3.14914,2.4187 -5.72009,6.148 -6.02745,8.74314 l -0.15579,1.31542 1.51928,0.6719 c 2.39323,1.0584 7.06663,1.44402 11.25151,0.9284 z m 45.03087,-0.45119 c 0.21907,-0.25466 0.67404,-1.2604 1.01105,-2.23498 0.52835,-1.52793 0.5622,-1.83285 0.24579,-2.2141 -0.36658,-0.44171 -7.69055,-4.08373 -8.21222,-4.08373 -0.99514,0 2.86164,6.67369 4.79876,8.30366 0.95937,0.80726 1.6007,0.87541 2.15662,0.22915 z m 5.45298,-57.14999 c 0.15246,-0.40019 0.42072,-1.19366 0.59613,-1.76329 0.83156,-2.70039 3.7137,-8.15005 5.74907,-10.87057 1.71859,-2.29709 4.32742,-4.73048 6.7103,-6.25903 1.14252,-0.7329 2.07731,-1.44195 2.07731,-1.57566 0,-0.13371 -0.3513,-0.86639 -0.78068,-1.62817 -1.00257,-1.77871 -1.60057,-4.0983 -1.60057,-6.20852 v -1.66958 l -1.02633,0.5236 c -2.63551,1.34453 -7.93186,6.02439 -10.19938,9.01215 -4.04374,5.32819 -6.92029,11.61895 -7.58008,16.57694 -0.16262,1.22204 -0.23796,2.3723 -0.16741,2.55614 0.0706,0.18384 1.06439,0.61278 2.20855,0.9532 1.14415,0.34042 2.37794,0.71337 2.74174,0.82878 0.9762,0.30968 0.97131,0.31151 1.27135,-0.47599 z m -50.986,-3.92828 c 1.51311,-0.37793 2.86086,-0.79129 2.995,-0.91858 0.14789,-0.14034 0.0642,-0.88533 -0.21255,-1.89256 -1.52723,-5.55803 -5.45761,-12.68942 -9.21176,-16.71407 -0.89682,-0.96144 -1.70756,-1.74808 -1.80165,-1.74808 -0.0941,0 -0.12288,0.32837 -0.064,0.72971 0.139,0.94702 -0.56125,3.9486 -1.27583,5.4688 -0.30818,0.65561 -1.04212,1.73937 -1.63098,2.40836 l -1.07066,1.21634 0.92692,0.97537 c 1.84667,1.94322 4.45991,5.7333 5.80435,8.41827 1.60744,3.21024 1.33154,3.10785 5.54114,2.05644 z m -16.14963,-13.49699 c 2.86697,-1.28662 4.65589,-3.91938 4.9243,-7.24713 0.18011,-2.23304 -0.41121,-3.63474 -2.38715,-5.65862 -2.40028,-2.45852 -5.15836,-3.31149 -9.01847,-2.78907 -2.16653,0.29321 -3.6528,0.87842 -4.43899,1.7478 -0.24877,0.27509 -0.76991,1.2105 -1.15808,2.07868 -1.95556,4.37371 -0.51635,9.44495 3.28589,11.57827 1.90382,1.06819 2.72742,1.2455 5.15515,1.10985 1.48236,-0.0828 2.51262,-0.31503 3.63735,-0.81978 z m 94.48013,-2.80145 c 0.53179,-0.15452 1.52942,-0.712 2.21695,-1.23883 4.57157,-3.50305 3.59769,-10.6727 -1.82701,-13.45034 -1.03703,-0.53101 -1.85573,-0.71999 -3.4735,-0.80183 -3.00947,-0.15224 -3.92804,0.23102 -5.47107,2.28272 -1.84559,2.45401 -2.2148,4.65546 -1.28055,7.63549 0.68181,2.17482 1.11004,2.96676 2.16846,4.01022 2.01699,1.98848 4.4761,2.48967 7.66672,1.56257 z"
       id="path1108"
       clip-path="url(#clipPath1113)" /></g></svg>
