<?xml version="1.0" encoding="UTF-8" standalone="no"?>
<!-- Created with Inkscape (http://www.inkscape.org/) -->

<svg
   width="140.62877mm"
   height="224.93015mm"
   viewBox="0 0 140.62879 224.93018"
   version="1.1"
   id="svg1"
   xml:space="preserve"
   xmlns="http://www.w3.org/2000/svg"
   xmlns:svg="http://www.w3.org/2000/svg"><defs
     id="defs1" /><g
     id="layer1"
     transform="translate(-366.09849,58.709143)"><path
       id="path55"
       style="fill:#000000"
       d="m 436.61836,-58.709138 c -8.59797,-0.0013 -10.97963,0.243621 -16.8336,1.732194 -10.37528,2.638286 -20.1201,7.371804 -27.49961,13.357325 -13.36055,10.836721 -21.82165,25.835775 -24.17423,42.85319782 -1.71409,12.39874418 0.84567,26.87290518 6.85901,38.78161218 0.87343,1.729707 1.58802,3.317996 1.58802,3.5295 0,0.211503 -1.54067,5.779655 -3.42357,12.373922 -6.26569,21.943675 -6.591,23.438805 -6.90604,31.701424 -0.22709,5.956006 -0.17982,7.165002 0.33022,8.444446 0.29444,0.738577 0.48516,1.405644 1.10535,3.858679 0.74561,2.948978 2.01432,6.574538 3.04995,8.716778 1.26957,2.62613 1.26654,2.60945 0.83974,4.33204 -0.25615,1.03385 -0.50685,1.46756 -0.94465,1.63401 -1.44446,0.5492 -2.56168,3.1693 -2.57968,6.05079 -0.0143,2.28048 0.35367,3.37065 1.73943,5.15524 l 1.11362,1.43402 0.99942,6.71122 c 1.72202,11.56435 2.83649,17.97509 3.47421,19.98328 1.04562,3.29263 2.44104,5.05033 5.07411,6.39134 2.55862,1.3031 11.60288,3.61607 18.74976,4.79505 1.89177,0.31209 4.8088,0.79561 6.48229,1.07436 4.36888,0.72773 8.95546,1.31827 13.43174,1.72909 11.06431,1.01545 25.74731,-0.72369 31.74948,-3.76049 4.3251,-2.1883 5.31832,-4.31405 8.77673,-18.78645 1.46667,-6.13761 1.56638,-6.43394 2.45566,-7.27605 2.24679,-2.12755 3.57686,-7.30981 2.44016,-9.50794 -0.22709,-0.4392 -0.36235,-0.93952 -0.30075,-1.11156 0.30478,-0.85074 -1.44409,-2.5616 -2.61845,-2.5616 -0.62793,0 -0.64846,-0.48057 -0.12195,-2.84427 0.28798,-1.29284 1.00823,-5.08087 1.60093,-8.41809 0.5927,-3.33726 1.30823,-6.90133 1.59009,-7.91993 1.88834,-6.824366 2.21528,-14.553003 0.89658,-21.193026 -0.43018,-2.16607 -0.42773,-2.250069 0.10542,-3.477824 0.30053,-0.692055 1.19328,-2.745715 1.98334,-4.563546 l 1.43609,-3.305224 3.22926,-2.048971 c 10.23304,-6.494339 18.18587,-14.629253 24.47499,-25.034648 6.21303,-10.279427 9.93583,-23.082924 9.93583,-34.1715572 0,-2.8708628 -0.58589,-8.8206113 -1.18184,-11.9992676 -1.50976,-8.0526252 -5.74462,-18.1897392 -10.68203,-25.5715662 -2.81776,-4.212747 -4.46151,-6.237522 -8.23878,-10.148217 -9.34271,-9.672759 -20.1369,-15.893003 -33.3375,-19.210197 -5.98312,-1.503513 -8.14553,-1.727794 -16.66875,-1.729094 z m 1.80351,3.306258 c 4.41203,0 11.5531,1.091315 15.875,2.426209 1.45121,0.448232 1.95224,0.792942 3.71037,2.551782 6.84112,6.843908 12.27951,20.404967 13.91956,34.709509 0.48456,4.226341 0.5457,13.7409159 0.11679,18.2267949 -1.76033,18.4106841 -8.4189,36.0644371 -19.09651,50.6310181 -1.1467,1.564341 -2.16426,2.841253 -2.26136,2.837553 -0.0971,-0.0037 -0.8911,-0.609173 -1.76423,-1.345654 -4.96147,-4.185006 -11.70176,-8.059969 -16.96538,-9.75341 -7.44576,-2.395506 -14.91447,-2.827618 -22.72212,-1.314649 -1.4552,0.281991 -2.72107,0.512707 -2.81327,0.513147 -0.6956,0.0033 -3.78658,-10.921324 -4.86533,-17.196883 -2.53515,-14.747655 -1.6188,-30.0887311 2.66702,-44.653605 0.50081,-1.701967 0.91046,-3.156047 0.91002,-3.231327 -4.4e-4,-0.07528 -0.80395,-0.136909 -1.78542,-0.136426 l -1.78439,0.001 -1.00252,3.43855 c -5.84999,20.0648225 -5.3505,41.53216 1.40663,60.437655 0.43833,1.226362 0.70515,2.307821 0.59273,2.403471 -0.11243,0.09565 -0.79995,0.386947 -1.52756,0.647505 -2.21395,0.792853 -6.24544,2.591163 -8.17727,3.647323 -1.00506,0.549471 -1.85853,0.967699 -1.89653,0.929659 -0.41128,-0.411286 -6.91299,-13.736129 -7.75612,-15.895671 -2.22339,-5.694986 -2.80685,-8.749134 -3.02823,-15.850712 -0.0706,-2.265325 -0.4504,-3.034576 -2.02572,-4.106726 -1.01643,-0.691771 -1.53851,-0.734393 -2.75694,-0.225309 -1.27082,0.530986 -1.97949,2.393698 -1.50585,3.958415 0.38482,1.271312 0.3967,1.507336 0.14728,2.99775 -0.24517,1.465003 -0.0116,2.285635 0.92397,3.242696 0.5365,0.548826 0.82891,1.177282 0.95705,2.056205 0.24575,1.685591 1.09498,4.426075 1.82676,5.895764 0.7517,1.509652 0.96628,2.635048 0.6873,3.602881 -0.21529,0.746901 -0.23571,0.727775 -1.01286,-0.957048 -2.71155,-5.878476 -4.82261,-13.3815 -5.7614,-20.478336 -0.85241,-6.4436024 -0.29171,-15.6680445 1.33583,-21.9872885 5.8731,-22.8034715 22.84916,-39.6749915 46.08349,-45.7987545 3.83179,-1.009923 7.50741,-1.766442 7.69049,-1.583366 0.0644,0.06445 -0.35977,0.359996 -0.94258,0.657324 -1.58151,0.80682 -6.19464,4.600692 -8.87904,7.30188 -3.60938,3.631905 -7.93846,9.554514 -10.65207,14.57327 l -1.187,2.194699 0.66817,0.349849 c 0.36727,0.192433 0.9551,0.739811 1.30638,1.215946 0.54339,0.736517 0.66486,0.796774 0.81494,0.40566 0.51624,-1.345301 4.80879,-8.089825 7.12721,-11.198799 4.46954,-5.993487 9.52295,-10.564496 14.8699,-13.449308 3.83832,-2.070893 5.80385,-2.690276 8.53281,-2.690276 z m 24.99434,5.657536 c 0.0421,-0.04211 0.72729,0.234881 1.52239,0.615467 19.29277,9.234832 33.27775,27.752372 37.32537,49.42178915 0.79804,4.27237815 0.96723,11.62401385 0.37413,16.27187485 -1.26437,9.908683 -5.23061,20.15424 -11.21481,28.971875 -4.6308,6.823371 -11.19951,13.598486 -17.60358,18.156515 -1.45602,1.036302 -1.55075,1.067979 -1.41283,0.472839 0.41198,-1.77794 8.4852,-20.031659 11.59619,-26.219071 0.87204,-1.734405 1.19448,-2.12773 2.02778,-2.475818 0.54489,-0.227614 1.33304,-0.734604 1.75131,-1.127063 0.9219,-0.865003 2.54662,-4.129086 2.54662,-5.115967 0,-1.806731 -2.34954,-5.254977 -3.58066,-5.254977 -1.65693,0 -4.97484,2.206121 -6.51485,4.332036 -0.96416,1.331021 -0.99563,2.699411 -0.0971,4.2323 l 0.65526,1.118278 -2.54042,5.271512 c -1.39719,2.89939 -3.05448,6.118737 -3.68298,7.154086 -1.19254,1.964508 -3.52129,6.553279 -4.02042,7.921997 -0.1592,0.436558 -0.67366,1.865316 -1.14309,3.175 -0.75343,2.10217 -3.08188,7.336428 -4.40489,9.901721 -0.39421,0.764333 -0.75549,1.002526 -2.30529,1.521354 -1.01061,0.338327 -1.90596,0.615466 -1.99006,0.615466 -0.0841,0 -0.38507,-0.446488 -0.66869,-0.992187 -0.86355,-1.661493 -3.58663,-5.646199 -5.21209,-7.626925 -0.84501,-1.029697 -1.53634,-1.99134 -1.53634,-2.13682 0,-0.145479 0.31198,-0.553099 0.69298,-0.905888 0.83444,-0.772636 2.85393,-3.470086 5.0798,-6.784599 2.68446,-3.997465 6.20163,-10.583404 8.34109,-15.618685 0.38644,-0.909501 1.00695,-2.367911 1.37873,-3.240629 1.88899,-4.434295 4.27602,-12.937618 5.53299,-19.711975 1.18303,-6.3758454 1.55634,-10.8296868 1.54254,-18.3885415 -0.0128,-7.0004245 -0.18228,-9.0327615 -1.29139,-15.4615885 -1.53567,-8.90131 -5.48848,-19.357212 -9.74979,-25.790674 -0.81097,-1.224336 -1.43995,-2.260592 -1.39785,-2.302702 z M 376.55795,16.03462 c 0.13882,0 0.44793,0.297966 0.68678,0.662492 0.34992,0.534109 0.37047,0.739576 0.10593,1.058334 -0.42547,0.512616 -1.55878,0.510743 -1.75596,-0.0031 -0.16633,-0.433437 0.55382,-1.717722 0.96325,-1.717726 z m 0.25476,4.621424 c 0.10318,0.07267 0.24324,0.363847 0.50695,0.934826 0.30243,0.654844 0.55252,1.458516 0.55552,1.785938 0.006,0.647827 -0.16076,0.713576 -0.82424,0.326078 -0.54587,-0.318832 -0.8444,-1.839053 -0.52452,-2.670638 0.11661,-0.303134 0.18311,-0.448872 0.28629,-0.376204 z m 106.72475,7.822261 c 0.17003,0.0045 0.78528,0.301397 1.36736,0.659908 0.58209,0.358515 1.26669,0.652445 1.52135,0.653191 0.81418,0.0024 0.46827,1.326728 -0.67437,2.581237 -0.64615,0.709413 -1.01582,0.718135 -2.50063,0.05839 -0.98164,-0.436178 -1.12447,-0.606554 -1.12447,-1.339453 0,-0.921646 0.92037,-2.626378 1.41076,-2.613278 z m -102.6852,8.885763 1.7601,3.42408 c 0.96801,1.883411 2.68509,4.945439 3.8163,6.804236 1.13121,1.858797 2.1247,3.555446 2.2071,3.770313 0.32628,0.850277 -0.48732,0.316419 -1.55649,-1.021127 -0.62059,-0.776366 -1.77423,-2.175359 -2.56367,-3.108854 -1.72524,-2.040063 -3.93779,-5.370292 -4.16254,-6.265767 -0.0893,-0.355915 -0.0134,-1.31261 0.16847,-2.125452 z m 37.40753,8.917285 c 7.49003,0.0085 14.62825,2.108061 21.53564,6.306075 9.14268,5.55652 17.2377,15.258252 20.21479,24.227979 l 0.45837,1.381827 -1.77302,3.380673 c -3.90274,7.439898 -5.7337,10.591103 -9.14208,15.733923 -2.63346,3.97359 -6.51966,9.25339 -8.51318,11.56622 -0.61302,0.71122 -1.68972,1.96282 -2.39261,2.78122 l -1.27796,1.48829 -1.02371,-0.81081 c -0.56286,-0.44579 -1.57689,-0.99932 -2.25361,-1.2299 -4.14201,-1.41132 -9.54473,2.30065 -10.95127,7.52409 l -0.30128,1.12035 -2.0407,-0.031 c -1.12218,-0.0169 -2.21878,-0.0682 -2.43706,-0.1142 -0.21828,-0.046 -1.88519,-0.27929 -3.70416,-0.51832 -9.24149,-1.21438 -19.20592,-3.07906 -23.41563,-4.38164 -4.16507,-1.28876 -9.18055,-4.44606 -12.04991,-7.58559 -5.59013,-6.11651 -7.93554,-12.597305 -7.57938,-20.943938 0.28772,-6.742932 1.97885,-11.911792 5.7335,-17.525028 6.04334,-9.034908 12.96273,-14.694008 22.74125,-18.599382 6.30828,-2.519423 12.34646,-3.777464 18.17201,-3.770829 z m -39.19605,0.102836 c 0.16597,-0.02784 0.43285,0.211199 0.89296,0.77618 0.45742,0.561697 1.45962,1.795037 2.22674,2.740918 0.76711,0.945882 1.89701,2.255573 2.51096,2.910417 l 1.11621,1.190625 -1.12086,0.922941 c -4.43487,3.6529 -8.87536,9.037459 -11.29492,13.695288 -0.83704,1.611355 -1.07022,1.916301 -1.07022,1.401982 0,-0.504422 6.31319,-22.993018 6.60373,-23.523629 0.0363,-0.06635 0.0801,-0.10544 0.1354,-0.114722 z m 91.99128,13.306681 c 0.43095,0 0.21409,0.839147 -0.94413,3.648873 -3.03861,7.371335 -9.30371,20.363548 -12.63902,26.210287 -0.88375,1.549197 -1.82337,3.195524 -2.08773,3.658691 -1.37369,2.406714 -6.59492,10.290819 -8.29148,12.519649 -2.2216,2.9186 -5.23149,6.66775 -6.74378,8.40052 -0.79378,0.90951 -1.5388,1.65365 -1.65571,1.65365 -0.11691,0 -0.2862,-0.29342 -0.3762,-0.65216 -0.17824,-0.71014 -0.22763,-0.63732 2.99465,-4.45089 5.81122,-6.87761 12.17999,-16.459759 16.91938,-25.456328 1.8882,-3.584346 6.18222,-12.546292 8.87387,-18.520833 2.4011,-5.329557 3.34851,-7.011459 3.95015,-7.011459 z m -82.39859,12.560474 c -2.58674,0.05644 -4.96185,2.620984 -4.9475,5.695776 0.008,1.794744 1.29436,3.702189 2.90318,4.306714 0.73977,0.277974 2.39437,0.192785 3.25768,-0.167948 2.25028,-0.940222 3.66556,-3.737912 3.07579,-6.080249 -0.40895,-1.624084 -1.84486,-3.26101 -3.17397,-3.618901 -0.37183,-0.100122 -0.74564,-0.143455 -1.11518,-0.135392 z m -0.51004,1.462443 c 1.52152,0 2.19657,1.842995 1.06195,2.900082 -0.31848,0.296706 -0.86005,0.539501 -1.20303,0.539501 -0.70822,0 -1.92236,-1.086234 -1.92236,-1.719791 0,-0.697278 1.22675,-1.719792 2.06344,-1.719792 z m 33.4672,2.454114 c -3.54298,-0.323421 -6.26634,3.212501 -5.52369,7.171138 0.30906,1.647395 1.96299,3.143434 3.992,3.610633 1.96978,0.453548 4.17284,-0.612355 5.21932,-2.524911 1.88017,-3.436224 -0.12764,-7.931889 -3.68763,-8.25686 z m 0.2341,1.408183 c 0.24405,0.03152 0.49659,0.108561 0.75034,0.239778 1.08122,0.559123 1.19224,2.012875 0.21756,2.843238 -0.72185,0.61496 -1.58148,0.584903 -2.43345,-0.08527 -1.54056,-1.211824 -0.24283,-3.218371 1.46555,-2.99775 z m -25.60361,3.285587 c -1.47106,-0.01075 -2.17093,2.741929 -0.93431,3.674711 l 0.61599,0.464571 -0.45631,2.624646 c -0.25118,1.443517 -0.47179,4.053404 -0.48989,5.799646 -0.0285,2.743526 0.0517,3.398198 0.59014,4.816761 0.71203,1.875994 2.02113,3.361594 3.58893,4.073654 2.68201,1.2181 5.83601,0.21771 7.7587,-2.46135 1.31274,-1.829164 1.84418,-3.64117 2.47685,-8.441345 0.55983,-4.247527 0.57883,-4.31402 1.46038,-5.145422 1.05662,-0.99652 1.17498,-2.069839 0.34468,-3.125391 -0.75812,-0.963789 -1.44913,-0.87428 -2.78949,0.361218 -0.75964,0.700214 -1.39623,1.059434 -1.88154,1.061434 -1.77577,0.0073 -7.38062,-0.637241 -7.69824,-0.885217 -0.19254,-0.150321 -0.59559,-0.757454 -0.89555,-1.349272 -0.61681,-1.216989 -0.90025,-1.462844 -1.69034,-1.468644 z m 66.00062,5.816699 c 0.28457,0 0.56331,2.875385 0.56431,5.820834 0.004,11.326776 -6.7315,22.117296 -16.7876,26.892936 -2.80473,1.33192 -6.47441,1.50061 -6.70399,0.3085 -0.0469,-0.24328 1.23386,-1.87311 3.00447,-3.82457 5.27289,-5.81149 11.06826,-13.63985 14.85749,-20.069575 3.03534,-5.15051 4.83898,-8.42679 4.83898,-8.789127 0,-0.186447 0.10186,-0.338998 0.22634,-0.338998 z m -57.93754,6.121074 c 1.33896,0.08123 2.46257,0.44523 2.30632,0.97255 -0.0729,0.245883 -0.21474,0.804193 -0.31523,1.240751 -0.4873,2.117023 -2.1161,4.305828 -3.62975,4.877739 -2.04236,0.771666 -4.04731,-0.428765 -4.33824,-2.597774 -0.25508,-1.901798 0.63868,-3.142749 2.96313,-4.113961 0.45744,-0.191134 1.03601,-0.308234 1.64227,-0.361735 0.4547,-0.04013 0.92517,-0.04465 1.3715,-0.01757 z m -27.80554,17.518826 c 0.22027,-0.0324 0.4497,-0.0271 0.68626,0.017 2.16638,0.40642 3.59754,2.58197 3.58324,5.44722 -0.0112,2.24245 -0.65513,3.91105 -1.8097,4.68912 -0.4918,0.33142 -1.14465,0.60205 -1.45056,0.60151 -1.86305,-0.003 -3.66929,-2.7807 -3.65869,-5.6255 0.0107,-2.86504 1.10755,-4.9027 2.64945,-5.1294 z m 83.60833,1.98799 c 0.0516,0.15487 -0.16426,1.20876 -0.48007,2.34198 -0.75201,2.69842 -2.0783,9.14952 -1.93218,9.39891 0.0628,0.10723 0.76957,0.38523 1.57044,0.61805 0.84992,0.24708 1.41386,0.55158 1.35496,0.73122 -0.13229,0.40332 -1.12382,0.45996 -2.4412,0.13901 -0.58208,-0.14182 -1.32622,-0.31304 -1.65364,-0.38034 -0.33457,-0.0687 -0.59531,-0.31841 -0.59531,-0.56999 0,-0.24619 0.43121,-2.47623 0.95808,-4.95577 0.87506,-4.11817 1.05138,-4.64222 2.04122,-6.05648 0.59595,-0.85152 1.1261,-1.42146 1.1777,-1.26659 z m -27.57506,1.6335 c 0.64494,0.0801 1.22958,0.36316 1.76527,0.85059 1.58483,1.44206 1.91462,3.36827 0.99684,5.82135 -0.59924,1.60162 -2.04003,3.1493 -3.4985,3.75688 -1.18217,0.49247 -3.00549,0.52581 -3.90364,0.0713 -0.92359,-0.46734 -1.80359,-1.88434 -2.00504,-3.22771 -0.34035,-2.26956 2.00641,-5.85538 4.51859,-6.905 0.77661,-0.32451 1.48154,-0.44749 2.12648,-0.36742 z m -61.22985,3.29799 0.48059,1.3503 c 1.18159,3.32021 3.02962,4.9139 5.89679,5.08496 0.98227,0.0586 1.78594,0.20505 1.78594,0.32556 0,0.37555 -0.35952,0.42698 -1.45521,0.20723 -0.58208,-0.11675 -1.71621,-0.33634 -2.52026,-0.48783 -0.80404,-0.1515 -1.82954,-0.49927 -2.27893,-0.77256 -1.14369,-0.69552 -1.95204,-2.48603 -1.92804,-4.27003 z m 12.77441,0.17466 c 0.43685,-0.0855 2.17183,0.21057 12.9837,2.21382 6.25191,1.15836 16.21178,2.6864 20.73311,3.18068 5.3357,0.58335 5.27278,0.5675 5.72729,1.44643 0.2202,0.42581 0.64622,1.00261 0.9462,1.28209 0.54081,0.50385 0.54121,0.52686 0.0775,2.71973 -0.25718,1.21633 -0.59323,2.29915 -0.74672,2.40606 -0.1535,0.10696 -0.33854,0.17307 -0.41134,0.14727 -0.0728,-0.0258 -0.90621,-0.0816 -1.85209,-0.12454 -4.75701,-0.21549 -16.51544,-1.88161 -23.90707,-3.38739 -1.03939,-0.21175 -4.33059,-0.8004 -7.31376,-1.30844 -2.98318,-0.50803 -5.90021,-1.08905 -6.48229,-1.29088 l -1.05834,-0.3669 -0.0801,-1.68517 c -0.0503,-1.05606 0.0708,-2.08399 0.32452,-2.75281 0.22271,-0.58702 0.44923,-1.36477 0.50333,-1.72857 0.0541,-0.3638 0.30431,-0.70208 0.55604,-0.75138 z m 70.42206,1.08366 c 0.0558,0.0558 0.0136,0.79756 -0.0935,1.64847 -0.10718,0.85095 -0.31388,1.56994 -0.4594,1.59784 -0.14553,0.0279 -0.81606,-0.1454 -1.48983,-0.38499 l -1.22473,-0.43563 1.58285,-1.26349 c 0.87067,-0.69502 1.62885,-1.218 1.68465,-1.1622 z m -4.70359,4.24935 c 0.191,-0.0764 0.41905,-0.0672 0.50695,0.0207 0.0879,0.088 -0.0684,0.15051 -0.34727,0.13901 -0.30823,-0.0127 -0.37074,-0.0752 -0.15968,-0.15968 z m -11.02827,1.81539 c 0.85688,-0.0207 2.16258,0.19568 4.59559,0.63356 2.03725,0.36665 4.16553,0.7387 4.72942,0.8263 l 1.02526,0.15917 -0.13694,1.61437 c -0.0754,0.8879 -0.4047,2.41804 -0.73174,3.40031 l -0.59479,1.78593 -1.08727,-0.0362 c -0.59799,-0.0199 -3.11137,-0.30742 -5.58519,-0.63872 -2.47385,-0.3313 -4.64675,-0.61269 -4.82865,-0.62529 -0.24173,-0.0168 -0.33073,-0.75849 -0.33073,-2.75693 v -2.73369 l 1.04283,-0.83819 c 0.63729,-0.51214 1.04534,-0.76992 1.90221,-0.79065 z m 13.72526,1.31982 c 0.14508,-0.0207 0.38594,0.18514 0.78342,0.60823 0.51684,0.55014 0.58743,0.83384 0.45268,1.81694 -0.24834,1.81184 -1.41561,5.07991 -2.85099,7.98195 -1.51128,3.05553 -3.0041,5.02443 -3.27887,4.3248 -0.0945,-0.24056 0.0618,-0.8954 0.34727,-1.45521 2.01408,-3.94937 4.28044,-10.49347 4.33824,-12.52689 0.0137,-0.48184 0.0632,-0.72909 0.20825,-0.74982 z m -77.95286,0.28784 c 0.0654,-0.0644 0.21358,-0.0411 0.48111,0.0336 0.3349,0.0935 1.91843,0.351 3.51916,0.57205 4.57696,0.63208 15.9893,2.51638 25.53229,4.21577 4.71209,0.83911 11.80818,1.84384 15.875,2.24792 4.23388,0.42067 4.14882,0.39118 4.79816,1.66398 0.65447,1.28287 1.00726,1.61319 2.47788,2.32028 1.20561,0.57961 2.9059,0.66207 4.40335,0.21342 1.15622,-0.34641 3.13728,-1.91952 3.13728,-2.49132 0,-0.20694 0.20835,-0.37459 0.46302,-0.37259 0.92781,0.008 9.07342,1.24237 9.22993,1.39888 0.0886,0.0886 0.0142,0.93968 -0.16537,1.89136 -0.43064,2.28228 -0.20545,3.35186 0.91209,4.33307 1.12401,0.9869 2.15792,1.22333 3.62717,0.82837 1.53499,-0.41263 2.77748,-1.77004 3.92483,-4.28811 l 0.92604,-2.03243 1.27434,-0.009 c 1.80915,-0.0129 2.32017,0.31963 2.1301,1.38545 -0.32486,1.8217 -3.53778,14.43161 -4.06022,15.93546 -0.71797,2.0667 -1.61408,3.39226 -2.94349,4.35529 -1.81204,1.31266 -6.14819,2.49112 -13.20177,3.58789 -3.82862,0.59532 -13.58967,0.73589 -18.38855,0.26459 -11.5196,-1.13137 -27.35031,-4.03373 -34.26354,-6.28127 -3.21152,-1.04412 -4.70431,-2.4049 -5.51439,-5.0276 -0.57203,-1.85204 -1.63706,-7.87667 -3.07733,-17.40359 -0.51698,-3.41974 -1.00422,-6.50128 -1.08262,-6.84765 -0.0626,-0.27666 -0.0799,-0.42906 -0.0145,-0.49351 z m 52.80246,1.37356 c 0.0648,-0.0238 0.14136,-0.009 0.23513,0.0315 0.79479,0.34059 3.35215,0.44077 4.33462,0.1695 1.25322,-0.34603 1.31408,-0.15969 0.8387,2.57968 -0.45142,2.60152 -0.66692,3.05391 -1.77405,3.72898 -1.1933,0.7276 -2.28758,0.65743 -3.28869,-0.21136 -0.96971,-0.84158 -1.12392,-1.77072 -0.77152,-4.64985 0.1413,-1.15448 0.23136,-1.57712 0.42581,-1.64847 z m 29.64729,0.67851 c 0.41825,0.0249 1.04264,0.11164 1.89187,0.26148 l 2.47323,0.43615 -0.047,1.07694 c -0.0632,1.44022 -1.20579,3.66345 -1.99058,3.87366 -0.63438,0.1699 -2.11464,0.16071 -3.58479,-0.0217 -0.70843,-0.0879 -0.81961,-0.18545 -0.62839,-0.55294 0.1277,-0.24543 0.44019,-1.39851 0.69402,-2.56263 0.25383,-1.16417 0.49498,-2.24488 0.53588,-2.40141 0.0255,-0.0977 0.23753,-0.13447 0.65578,-0.10955 z m -10.42366,8.5912 c 0.0685,-0.0363 0.12957,-0.0267 0.16692,0.0372 0.21987,0.3763 -0.20264,1.3091 -0.42788,0.94465 -0.10578,-0.17109 -0.0831,-0.50601 0.0501,-0.74414 0.0666,-0.11907 0.14232,-0.20137 0.21084,-0.23772 z" /></g></svg>
