<?xml version="1.0" encoding="UTF-8" standalone="no"?>
<!-- Created with Inkscape (http://www.inkscape.org/) -->

<svg
   width="201.65068mm"
   height="140.467mm"
   viewBox="0 0 201.65066 140.467"
   version="1.1"
   id="svg5"
   xml:space="preserve"
   xmlns="http://www.w3.org/2000/svg"
   xmlns:svg="http://www.w3.org/2000/svg"><defs
     id="defs2" /><g
     id="layer1"
     transform="translate(-24.284552,-94.369164)"><path
       style="fill:#000000;stroke-width:0.264583"
       d="m 116.57109,234.78969 c -0.0673,-0.0673 -2.19928,-0.13643 -4.73772,-0.15362 -2.53843,-0.0172 -5.86549,-0.14157 -7.39346,-0.27641 -1.52797,-0.13484 -3.73063,-0.30802 -4.894793,-0.38485 -4.14462,-0.27353 -16.40417,-1.73847 -16.40417,-1.96019 0,-0.0181 -0.59531,-0.0769 -1.32292,-0.1305 -1.14965,-0.0847 -2.43983,-0.28657 -5.4901,-0.85887 -0.40018,-0.0751 -0.7276,-0.22569 -0.7276,-0.33469 0,-0.10899 -0.32743,-0.16094 -0.72761,-0.11545 -0.40018,0.0455 -1.56104,-0.10248 -2.57969,-0.32881 -1.01864,-0.22634 -2.20927,-0.46737 -2.64583,-0.53562 -0.43656,-0.0682 -0.97234,-0.19427 -1.19062,-0.28004 -0.21828,-0.0858 -0.48617,-0.1811 -0.59532,-0.21186 -0.10914,-0.0308 -0.25796,-0.0857 -0.33072,-0.12207 -0.0728,-0.0364 -0.25136,-0.0959 -0.39688,-0.13229 -0.14552,-0.0364 -0.29435,-0.0899 -0.33073,-0.11888 -0.0364,-0.029 -0.3638,-0.10446 -0.7276,-0.16768 -0.36381,-0.0632 -0.95912,-0.2257 -1.32292,-0.36107 -0.3638,-0.13538 -1.16685,-0.32329 -1.78455,-0.41759 -0.6177,-0.0943 -1.19147,-0.2821 -1.27505,-0.41733 -0.0836,-0.13523 -0.2628,-0.17738 -0.39827,-0.0936 -0.13546,0.0837 -0.2463,0.0341 -0.2463,-0.11028 0,-0.14438 -0.32958,-0.25314 -0.7324,-0.24168 -0.40281,0.0115 -1.1021,-0.17036 -1.55395,-0.40402 -0.45186,-0.23366 -0.89618,-0.35022 -0.98739,-0.25901 -0.0912,0.0912 -0.16584,0.046 -0.16584,-0.10049 0,-0.14648 -0.50601,-0.4259 -1.12448,-0.62092 -0.61846,-0.19503 -1.25449,-0.45118 -1.41341,-0.56922 -0.1589,-0.11805 -0.36726,-0.13629 -0.46302,-0.0405 -0.0957,0.0957 -0.17409,0.0282 -0.17409,-0.1502 0,-0.17837 -0.1046,-0.25965 -0.23245,-0.18064 -0.2763,0.17077 -1.88422,-0.58824 -1.88422,-0.88943 0,-0.115 -0.26789,-0.19206 -0.59531,-0.17125 -0.32742,0.0208 -1.19062,-0.30897 -1.91823,-0.73284 -0.7276,-0.42387 -2.45144,-1.35011 -3.83076,-2.05833 -1.37931,-0.70821 -2.39134,-1.29031 -2.24895,-1.29355 0.14238,-0.003 -0.0314,-0.22901 -0.38626,-0.50174 -0.35482,-0.27272 -0.78895,-0.44067 -0.96473,-0.37322 -0.17578,0.0675 -0.51055,-0.14997 -0.74393,-0.48317 -0.23338,-0.33319 -0.42855,-0.49002 -0.4337,-0.3485 -0.005,0.14152 -0.17411,-0.0403 -0.37544,-0.40415 -0.20133,-0.3638 -0.46501,-0.66731 -0.58594,-0.67446 -0.53175,-0.0315 -1.4105,-0.44018 -1.4105,-0.65606 0,-0.13009 -0.45621,-0.6882 -1.0138,-1.24025 -0.55758,-0.55204 -0.96022,-1.16445 -0.89473,-1.3609 0.0859,-0.2578 -0.0369,-0.30769 -0.44141,-0.1793 -0.35692,0.11328 -0.56047,0.0633 -0.56047,-0.13749 0,-0.17345 -0.56555,-0.87625 -1.25677,-1.56177 -1.54399,-1.53125 -2.197,-2.30454 -2.71198,-3.2115 -0.21828,-0.38443 -0.96242,-1.53156 -1.65365,-2.54919 -0.69122,-1.01763 -1.25677,-1.95763 -1.25677,-2.08889 0,-0.13126 -0.23135,-0.6703 -0.51411,-1.19787 -0.28277,-0.52758 -0.43504,-1.0383 -0.33839,-1.13495 0.0966,-0.0966 0.0499,-0.25855 -0.10383,-0.35977 -0.15376,-0.10123 -0.62266,-1.07702 -1.04201,-2.16843 -0.41935,-1.09141 -0.88541,-2.07185 -1.0357,-2.17876 -0.15029,-0.10691 -0.16937,-0.19621 -0.0424,-0.19844 0.12696,-0.002 0.0982,-0.16383 -0.0639,-0.35912 -0.16207,-0.19529 -0.21922,-0.43054 -0.12698,-0.52277 0.0922,-0.0922 0.0327,-0.33037 -0.13229,-0.52917 -0.165,-0.19881 -0.23185,-0.42961 -0.14856,-0.5129 0.0833,-0.0833 0.0236,-0.39035 -0.1327,-0.68235 -0.3397,-0.63473 -0.44,-1.20898 -0.93187,-5.33524 -0.1801,-1.51085 -0.18252,-10.34153 -0.003,-11.77396 0.31341,-2.50392 0.40941,-3.44126 0.41992,-4.10021 0.006,-0.36334 0.12609,-0.73204 0.26732,-0.81933 0.23763,-0.14687 0.46505,-1.28686 0.57565,-2.88567 0.0252,-0.3638 0.11318,-0.72098 0.19558,-0.79375 0.0824,-0.0728 0.42854,-1.14432 0.76919,-2.38125 0.34066,-1.23692 0.76195,-2.54661 0.93619,-2.91041 0.39827,-0.83153 1.19645,-3.29564 1.3604,-4.19975 0.0682,-0.37607 0.26555,-0.77378 0.43857,-0.88379 0.17302,-0.11002 0.19552,-0.20547 0.05,-0.21212 -0.14552,-0.007 -0.0562,-0.13346 0.19843,-0.28178 0.25467,-0.14833 0.46303,-0.5019 0.46303,-0.78571 0,-0.28381 0.0944,-0.51602 0.2097,-0.51602 0.11534,0 0.35469,-0.54205 0.53188,-1.20456 0.18384,-0.68733 0.43744,-1.13333 0.5906,-1.03867 0.14764,0.0912 0.24189,0.0677 0.20945,-0.0522 -0.0923,-0.34131 0.34563,-1.4817 0.70823,-1.84431 0.18039,-0.18038 0.89481,-1.29484 1.58762,-2.47658 0.6928,-1.18174 1.54154,-2.33332 1.88608,-2.55907 0.41925,-0.2747 0.62644,-0.66291 0.62644,-1.17378 0,-0.51496 0.1342,-0.76332 0.41249,-0.76332 0.22687,0 0.3389,-0.11906 0.24896,-0.26458 -0.0899,-0.14552 -0.0374,-0.26458 0.11668,-0.26458 0.15411,0 0.2613,-0.0893 0.23819,-0.19844 -0.0823,-0.38881 0.36614,-1.11891 0.5989,-0.97505 0.13027,0.0805 0.23686,0.0203 0.23686,-0.13381 0,-0.15411 0.16806,-0.2802 0.37346,-0.2802 0.20577,0 0.34226,-0.20792 0.30397,-0.46302 -0.0382,-0.25467 0.10644,-0.733 0.32146,-1.06297 0.29847,-0.45803 0.47417,-0.53087 0.74277,-0.30795 0.48415,0.40182 0.88382,0.0935 0.7151,-0.55172 -0.092,-0.35169 0.0965,-0.76894 0.55401,-1.22644 0.38137,-0.38137 0.69339,-0.80325 0.69339,-0.93751 0,-0.13427 0.13451,-0.16099 0.29891,-0.0594 0.17831,0.1102 0.25162,0.0429 0.1817,-0.16689 -0.0645,-0.1934 0.37253,-0.83506 0.9711,-1.4259 0.59857,-0.59084 1.17081,-1.29016 1.27164,-1.55405 0.10083,-0.26388 0.29817,-0.40882 0.43852,-0.32208 0.14035,0.0867 0.42909,-0.1736 0.64163,-0.57854 0.45012,-0.85755 2.43855,-2.74038 2.66011,-2.51883 0.083,0.083 0.15466,-0.0177 0.15916,-0.22384 0.0116,-0.53041 2.27992,-2.18342 2.6675,-1.94388 0.1959,0.12107 0.2471,0.0833 0.13436,-0.0991 -0.22825,-0.36932 0.37711,-1.37456 0.82777,-1.37456 0.44956,0 1.93744,-1.3427 1.77648,-1.60315 -0.07,-0.11323 0.22559,-0.28337 0.65682,-0.37808 0.43124,-0.0947 0.85097,-0.383 0.93274,-0.64063 0.0818,-0.25763 0.47411,-0.63374 0.87189,-0.8358 0.78432,-0.39842 1.58417,-0.96134 3.26382,-2.29703 0.59473,-0.47294 1.22003,-0.85989 1.38953,-0.85989 0.16951,0 0.46411,-0.24966 0.65467,-0.55479 0.33451,-0.53564 0.35956,-0.53792 0.72575,-0.0661 0.34742,0.44759 0.36548,0.44907 0.215,0.0177 -0.19532,-0.55989 0.86774,-1.60419 1.41805,-1.39302 0.19795,0.076 0.28704,0.0202 0.19797,-0.12393 -0.0891,-0.14413 0.1131,-0.386 0.44928,-0.5375 0.33617,-0.1515 0.84935,-0.42284 1.1404,-0.60297 1.21538,-0.75226 2.39421,-1.3425 2.57968,-1.29165 0.10914,0.0299 0.16867,-0.0874 0.13229,-0.26062 -0.0364,-0.17326 0.17198,-0.3619 0.46303,-0.4192 0.29104,-0.0573 0.67799,-0.29548 0.85989,-0.5293 0.1819,-0.23382 0.33073,-0.32826 0.33073,-0.20987 0,0.11839 0.17859,0.067 0.39688,-0.11412 0.21828,-0.18115 0.39687,-0.24069 0.39687,-0.13229 0,0.1084 0.15307,0.07 0.34015,-0.0852 0.49393,-0.40992 4.04027,-2.32673 5.81141,-3.14109 0.83675,-0.38472 1.52136,-0.79846 1.52136,-0.91941 0,-0.12095 0.23109,-0.2199 0.51355,-0.2199 0.28245,0 0.58611,-0.1174 0.67479,-0.26089 0.0887,-0.14349 0.41861,-0.22161 0.73317,-0.17361 0.32941,0.0503 0.85554,-0.17568 1.24074,-0.53286 0.66638,-0.6179 0.81536,-0.66581 2.19556,-0.70596 0.40018,-0.0116 0.7276,-0.12318 0.7276,-0.24787 0,-0.12469 0.12202,-0.1513 0.27114,-0.0591 0.14913,0.0922 0.23842,0.01 0.19844,-0.18282 -0.04,-0.19272 0.0761,-0.32063 0.25803,-0.28425 0.1819,0.0364 0.33073,-0.0591 0.33073,-0.2122 0,-0.15309 0.35718,-0.40286 0.79375,-0.55505 0.43656,-0.15219 0.79375,-0.39114 0.79375,-0.53102 0,-0.13987 0.1083,-0.18737 0.24068,-0.10556 0.13237,0.0818 0.78875,-0.0862 1.45861,-0.37332 0.66986,-0.28714 1.27532,-0.52698 1.34546,-0.53298 0.0701,-0.006 0.79891,-0.318 1.61947,-0.69333 0.82057,-0.37534 1.7921,-0.73686 2.15896,-0.80338 0.36685,-0.0665 0.87106,-0.23016 1.12046,-0.36363 0.2494,-0.13348 0.52986,-0.16627 0.62326,-0.0729 0.0934,0.0934 0.31767,-0.0324 0.49837,-0.27952 0.18071,-0.24713 0.67716,-0.51255 1.10321,-0.5898 0.42605,-0.0773 0.90205,-0.22011 1.05777,-0.31745 0.15572,-0.0973 0.47525,-0.20696 0.71007,-0.24361 0.23483,-0.0366 0.711083,-0.17466 1.058343,-0.30669 0.34725,-0.13202 0.69091,-0.24028 0.76367,-0.24056 0.0728,-2.6e-4 0.59332,-0.19313 1.15679,-0.42857 0.56347,-0.23544 1.28112,-0.42806 1.59477,-0.42806 0.31365,0 0.80513,-0.16419 1.09217,-0.36487 0.28704,-0.20067 1.23627,-0.50923 2.10939,-0.68568 0.87313,-0.17646 1.85876,-0.493467 2.19029,-0.704467 0.33153,-0.211 0.71026,-0.31722 0.84161,-0.23604 0.13136,0.0812 0.31259,0.0283 0.40274,-0.1176 0.0901,-0.14586 0.42579,-0.22251 0.74588,-0.17032 0.32009,0.0522 0.82011,-0.0382 1.11115,-0.20091 0.29104,-0.16268 0.64823,-0.31237 0.79375,-0.33264 0.14552,-0.0203 0.32411,-0.0603 0.39687,-0.0889 0.16085,-0.0632 1.49869,-0.26297 2.31511,-0.34563 0.32742,-0.0332 0.59531,-0.14583 0.59531,-0.25041 0,-0.10457 0.15413,-0.13099 0.34251,-0.0587 0.18838,0.0723 0.84858,-0.0471 1.46712,-0.26535 0.61854,-0.21824 1.71457,-0.47505 2.43562,-0.5707 0.72105,-0.0956 1.311,-0.27183 1.311,-0.39151 0,-0.11968 0.50602,-0.21084 1.12448,-0.2026 0.61846,0.008 1.18401,-0.007 1.25677,-0.0331 0.28005,-0.10192 1.23386,-0.26888 2.24896,-0.39368 0.58208,-0.0716 1.41552,-0.20549 1.85208,-0.29762 0.43656,-0.0921 1.03188,-0.18436 1.32292,-0.20495 0.29104,-0.0206 0.59036,-0.11806 0.66514,-0.21658 0.0748,-0.0985 1.26541,-0.24607 2.64583,-0.32788 1.38043,-0.0818 2.92364,-0.22093 3.42938,-0.30917 1.1619,-0.20271 14.63828,-0.22577 15.88152,-0.0272 0.50933,0.0814 2.41433,0.23096 4.23334,0.33245 1.81901,0.10149 3.34697,0.28772 3.39548,0.41386 0.0485,0.12613 0.3164,0.22932 0.59531,0.22932 0.27892,0 0.50712,0.14288 0.50712,0.3175 0,0.21676 0.086,0.23148 0.2711,0.0464 0.18508,-0.18508 0.82898,-0.15637 2.02926,0.0905 0.96699,0.19886 1.91656,0.30078 2.11015,0.22649 0.1936,-0.0743 0.35199,-0.0127 0.35199,0.13682 0,0.14955 0.1089,0.2046 0.24199,0.12234 0.13309,-0.0823 0.30228,2e-5 0.37598,0.18283 0.0959,0.23776 0.13995,0.24269 0.15489,0.0173 0.0152,-0.22955 0.21834,-0.21204 0.7485,0.0645 0.40018,0.20876 1.17827,0.38029 1.7291,0.38119 0.55082,7.9e-4 1.29868,0.19635 1.6619,0.43434 0.36322,0.23799 0.73039,0.36273 0.81594,0.27718 0.0855,-0.0855 0.32846,0.0174 0.53981,0.22875 0.21135,0.21135 0.83744,0.38427 1.39131,0.38427 0.57237,0 1.14921,0.17131 1.33641,0.39688 0.18116,0.21828 0.73152,0.39687 1.22303,0.39687 0.4915,0 0.89364,0.10742 0.89364,0.2387 0,0.13129 0.36612,0.36633 0.8136,0.52232 0.44747,0.155997 0.75037,0.385927 0.6731,0.510957 -0.0773,0.12503 0.20028,0.22733 0.6168,0.22733 0.88883,0 3.76455,1.38524 3.56065,1.71517 -0.16455,0.26624 1.16264,0.82116 1.58583,0.66307 0.34567,-0.12914 3.1139,1.36713 3.40108,1.83833 0.11,0.1805 0.54826,0.40468 0.9739,0.49816 0.42564,0.0935 0.91467,0.33961 1.08674,0.54693 0.17206,0.20733 0.41019,0.31679 0.52916,0.24326 0.11898,-0.0735 0.29111,-0.0127 0.38252,0.13521 0.0914,0.14789 0.0401,0.2689 -0.11401,0.2689 -0.15411,0 -0.2802,0.2024 -0.2802,0.44979 0,0.33869 0.0751,0.37471 0.30394,0.14585 0.38986,-0.38986 1.92283,0.33507 1.6482,0.77942 -0.11007,0.1781 -0.0614,0.21981 0.12318,0.1057 0.16775,-0.10368 0.56983,-0.003 0.8935,0.2237 0.32368,0.22671 0.47271,0.41299 0.3312,0.41395 -0.14152,10e-4 0.0711,0.21828 0.47242,0.48293 0.40136,0.26466 0.63948,0.5805 0.52917,0.70187 -0.11031,0.12138 -0.0181,0.15585 0.20494,0.0766 0.50804,-0.18051 1.73662,0.74601 1.24961,0.94237 -0.19139,0.0772 -0.12559,0.1428 0.15523,0.15483 0.4903,0.021 2.03607,1.07224 1.59877,1.08727 -0.12877,0.004 -0.0233,0.13081 0.23446,0.28085 0.25773,0.15004 0.39953,0.38454 0.31512,0.52112 -0.0844,0.13657 0.0459,0.24832 0.28948,0.24832 0.36722,0 2.03644,1.53149 2.29269,2.10352 0.0405,0.0905 0.46067,0.43625 0.93361,0.76832 0.48002,0.33705 0.85989,0.83648 0.85989,1.13054 0,0.28972 0.0913,0.47033 0.20294,0.40134 0.11161,-0.069 0.5581,0.28561 0.99219,0.78798 0.68128,0.78843 1.23658,1.37166 2.2714,2.38561 0.62661,0.61398 1.49951,1.90435 1.80748,2.67193 0.18901,0.47109 0.45352,0.78863 0.5878,0.70564 0.13428,-0.083 0.44789,0.33025 0.6969,0.9183 0.24901,0.58806 0.71011,1.20774 1.02466,1.37706 0.33641,0.1811 0.64095,0.67593 0.73959,1.20173 0.0922,0.49162 0.28136,0.89386 0.42028,0.89386 0.13893,0 0.2526,0.16523 0.2526,0.36719 0,0.20195 0.41201,0.96614 0.91558,1.69821 0.50357,0.73206 0.99273,1.63839 1.08702,2.01406 0.0943,0.37567 0.29743,0.68304 0.45143,0.68304 0.154,0 0.20779,0.0722 0.11954,0.16046 -0.0883,0.0882 0.0705,0.40836 0.35278,0.71135 0.28227,0.30299 0.51323,0.73892 0.51323,0.96875 0,0.22982 0.29766,0.85589 0.66146,1.39128 0.3638,0.53538 0.66146,1.13184 0.66146,1.32546 0,0.19362 0.15279,0.58689 0.33953,0.87393 0.18675,0.28704 0.50118,0.99815 0.69875,1.58023 0.19756,0.58208 0.43173,1.1182 0.52036,1.19137 0.33887,0.27974 1.35177,2.37354 1.35177,2.79429 0,0.60364 0.8787,3.13709 1.12613,3.24683 0.11005,0.0488 0.13531,0.19356 0.0561,0.32166 -0.0792,0.1281 0.0872,0.6861 0.36983,1.24 0.28258,0.55391 0.57571,1.36166 0.6514,1.79502 0.2201,1.26012 1.13342,4.60976 1.76589,6.47645 0.32048,0.94589 0.61354,2.38907 0.65124,3.20708 0.0377,0.81801 0.1496,1.61846 0.24868,1.77878 0.23094,0.37366 0.47503,1.98047 0.51526,3.39186 0.0173,0.60593 0.1225,1.04539 0.23384,0.97658 0.11133,-0.0688 0.21353,0.14981 0.2271,0.48582 0.0492,1.21886 0.17836,2.48741 0.3719,3.65363 0.22231,1.33954 0.25372,12.55455 0.0362,12.90658 -0.0772,0.12488 -0.21083,0.81409 -0.29701,1.53159 -0.0862,0.7175 -0.26754,1.84032 -0.40303,2.49517 -0.13548,0.65484 -0.36462,1.87401 -0.50919,2.70926 -0.14457,0.83525 -0.55178,2.14494 -0.9049,2.91042 -0.69505,1.50668 -1.3172,3.41626 -1.3172,4.0429 0,0.21537 -0.11907,0.39158 -0.26459,0.39158 -0.14552,0 -0.18872,0.0759 -0.096,0.16857 0.0927,0.0927 -0.0625,0.49311 -0.34496,0.88976 -0.28244,0.39666 -0.43768,0.79705 -0.34496,0.88977 0.0927,0.0927 0.0297,0.16857 -0.14011,0.16857 -0.16977,0 -0.30868,0.26149 -0.30868,0.58109 0,0.53239 -0.98549,2.22965 -1.78594,3.07583 -0.1819,0.1923 -0.33073,0.51297 -0.33073,0.7126 0,0.19964 -0.20836,0.51856 -0.46302,0.70871 -0.25466,0.19015 -0.46826,0.46479 -0.47466,0.61031 -0.0288,0.65346 -0.77092,1.72994 -1.10445,1.60195 -0.19821,-0.0761 -0.34149,0.009 -0.3184,0.18822 0.0231,0.17958 0.0279,0.45767 0.0106,0.61799 -0.0448,0.41614 -1.56432,1.95747 -1.92983,1.95747 -0.16851,0 -0.23175,0.0746 -0.14054,0.16583 0.0912,0.0912 -0.009,0.50384 -0.22258,0.91694 -0.27305,0.52802 -0.51855,0.70116 -0.8266,0.58295 -0.27717,-0.10636 -0.37337,-0.0633 -0.26178,0.11728 0.097,0.15699 -0.19024,0.59394 -0.63836,0.97101 -0.44812,0.37706 -0.73885,0.68557 -0.64608,0.68557 0.0928,0 -0.4041,0.49284 -1.10417,1.09521 -0.70008,0.60236 -1.31255,1.19767 -1.36106,1.32291 -0.0485,0.12525 -0.19192,0.22772 -0.3187,0.22772 -0.12678,0 -0.51276,0.26789 -0.85772,0.59531 -1.09263,1.03706 -1.72852,1.48273 -1.88802,1.32323 -0.0851,-0.0851 -0.15466,-0.009 -0.15466,0.16964 0,0.17836 -0.11906,0.25071 -0.26458,0.16077 -0.14552,-0.0899 -0.26459,-0.053 -0.26459,0.082 0,0.22868 -3.08875,2.29922 -3.42988,2.29922 -0.0849,0 -0.44196,0.26789 -0.7934,0.59532 -0.35145,0.32742 -0.73561,0.59531 -0.85369,0.59531 -0.4582,0 -0.63445,0.0745 -1.30289,0.55043 -0.38023,0.27075 -0.76718,0.41641 -0.8599,0.3237 -0.0927,-0.0927 -0.16858,-0.0426 -0.16858,0.11142 0,0.26337 -1.22116,0.73994 -1.65364,0.64535 -0.10914,-0.0239 -0.19844,0.0566 -0.19844,0.17883 0,0.12223 -0.47625,0.37941 -1.05833,0.57152 -0.58209,0.1921 -1.05834,0.45631 -1.05834,0.58713 0,0.13082 -0.0978,0.17738 -0.2174,0.10348 -0.11958,-0.0739 -0.54869,0.0375 -0.95358,0.24757 -0.4049,0.21006 -0.85616,0.30777 -1.0028,0.21714 -0.14665,-0.0906 -0.34262,-0.0538 -0.43548,0.0819 -0.22948,0.33517 -2.34969,1.40866 -2.78219,1.40866 -0.19144,0 -0.70684,0.17897 -1.14532,0.39772 -0.43848,0.21874 -1.14138,0.44 -1.562,0.49168 -0.73748,0.0906 -3.78631,0.86035 -4.60123,1.16167 -0.21828,0.0807 -0.51593,0.16461 -0.66145,0.18643 -0.58139,0.0872 -1.88867,0.45999 -2.51355,0.71674 -0.72591,0.29827 -0.82825,0.3177 -8.04208,1.52669 -2.74965,0.46082 -5.15297,0.77891 -5.34071,0.70687 -0.18774,-0.072 -0.37881,-0.0307 -0.42459,0.0919 -0.0458,0.12261 -0.94039,0.30434 -1.98803,0.40383 -1.04763,0.0995 -2.23825,0.22811 -2.64583,0.2858 -2.07329,0.29346 -7.27714,0.88009 -7.7525,0.87394 -0.21829,-0.003 -1.23032,0.0669 -2.24896,0.15495 -2.07405,0.17927 -4.7823,0.36744 -7.9375,0.55151 -3.05548,0.17824 -25.16199,0.40526 -25.30736,0.25988 z m -11.40358,-5.49454 c -0.0446,-0.22306 0.23535,-0.3106 0.8599,-0.26891 0.50932,0.034 6.63933,0.13784 13.62225,0.23075 9.11588,0.12128 14.7118,0.0682 19.84374,-0.18828 3.93115,-0.19645 7.83216,-0.35982 8.6689,-0.36303 0.83675,-0.003 1.52136,-0.11224 1.52136,-0.24228 0,-0.13294 0.81845,-0.16036 1.86986,-0.0626 1.04566,0.0972 1.80702,0.0721 1.7273,-0.0569 -0.16904,-0.27351 3.7743,-0.64311 4.73377,-0.44369 0.3657,0.076 0.95446,0.19796 1.30836,0.27101 0.4891,0.10096 0.68615,-0.002 0.82142,-0.42788 0.15708,-0.49489 0.3294,-0.54614 1.46841,-0.4367 0.70975,0.0682 1.35558,0.0589 1.43519,-0.0207 0.18044,-0.18043 0.002,-0.14464 4.75964,-0.95534 2.18282,-0.37196 4.90738,-0.86532 6.05459,-1.09635 1.1472,-0.23102 2.15924,-0.31967 2.24895,-0.19698 0.31519,0.43099 0.90259,0.37437 1.45614,-0.14038 0.64499,-0.59978 3.39529,-1.35842 4.45362,-1.22848 0.42015,0.0516 0.69537,-0.032 0.66145,-0.20086 -0.0319,-0.15906 1.07301,-0.60282 2.45546,-0.98614 1.38245,-0.38331 3.70956,-1.18397 5.17135,-1.77924 1.46179,-0.59527 2.89054,-1.12289 3.175,-1.17249 0.28446,-0.0496 0.57672,-0.16363 0.64948,-0.25339 0.0728,-0.0898 1.14433,-0.69211 2.38125,-1.33855 2.38459,-1.24624 5.27453,-3.10158 7.6727,-4.92587 0.97179,-0.73924 1.61751,-1.05523 1.94435,-0.95149 0.39501,0.12537 0.45691,0.0531 0.32107,-0.37492 -0.21599,-0.68053 1.14134,-1.73415 1.87797,-1.45776 0.39893,0.14969 0.43117,0.11382 0.17818,-0.19827 -0.464,-0.57243 0.22132,-1.41099 0.96123,-1.17615 0.48879,0.15513 0.53853,0.0961 0.39637,-0.47029 -0.12437,-0.49553 -0.002,-0.77361 0.51883,-1.18367 0.37476,-0.29479 0.68194,-0.63791 0.68261,-0.76249 8e-4,-0.12457 0.3281,-0.5893 0.72761,-1.03273 0.3995,-0.44342 0.86192,-1.03873 1.02757,-1.32292 0.16566,-0.28417 0.47195,-0.50367 0.68065,-0.48776 0.231,0.0176 0.36223,-0.18941 0.33545,-0.52917 -0.0379,-0.48083 0.47799,-1.59655 0.93093,-2.0133 0.32681,-0.30069 2.89714,-6.06699 3.33176,-7.47447 0.28442,-0.92108 0.61863,-1.52136 0.84702,-1.52136 0.26452,0 0.33031,-0.18696 0.22019,-0.62571 -0.0864,-0.34414 0.0743,-1.68585 0.35713,-2.98158 0.81951,-3.75483 1.13308,-8.1244 1.00181,-13.95995 -0.0665,-2.95486 -0.18953,-5.48359 -0.27347,-5.61941 -0.0839,-0.13581 -0.52111,-2.38602 -0.9715,-5.00045 -1.59544,-9.26124 -4.21101,-17.51363 -7.97315,-25.15608 -0.86765,-1.76256 -1.50871,-3.38402 -1.42459,-3.60325 0.0943,-0.24587 -0.0302,-0.4495 -0.32502,-0.53143 -0.2629,-0.0731 -0.77389,-0.71378 -1.13555,-1.42384 -0.36166,-0.71005 -0.81092,-1.45111 -0.99835,-1.6468 -0.61167,-0.63859 -1.122,-1.85043 -0.95859,-2.27628 0.10776,-0.28081 0.0423,-0.37151 -0.20086,-0.27821 -0.1984,0.0761 -0.528,-0.13087 -0.73245,-0.46002 -2.18272,-3.514 -7.97517,-9.90609 -11.69374,-12.90426 -1.3518,-1.08993 -2.79148,-2.29994 -3.19928,-2.68894 -0.4078,-0.38899 -0.74146,-0.65596 -0.74146,-0.59327 0,0.0627 -0.68461,-0.34678 -1.52135,-0.90994 -0.83675,-0.56315 -2.1762,-1.4542 -2.97657,-1.98011 -0.80036,-0.52591 -1.71538,-1.14703 -2.03338,-1.38027 -0.318,-0.23325 -0.73472,-0.45171 -0.92605,-0.48549 -0.80884,-0.1428 -1.53848,-0.47875 -1.53848,-0.70838 0,-0.13571 -0.1786,-0.24675 -0.39688,-0.24675 -0.21828,0 -0.39687,-0.0951 -0.39687,-0.21143 0,-0.23673 -1.76644,-0.96506 -2.38125,-0.98183 -0.21828,-0.006 -0.38191,-0.20674 -0.36362,-0.44619 0.0183,-0.23945 -0.10077,-0.38451 -0.26458,-0.32234 -0.16381,0.0622 -1.11899,-0.18537 -2.12262,-0.55009 -1.00363,-0.36471 -2.09038,-0.66312 -2.415,-0.66312 -0.32462,0 -0.7277,-0.16565 -0.89573,-0.36811 -0.25016,-0.30143 -1.84933,-0.7275 -3.06658,-0.81704 -0.14552,-0.0107 -0.39629,-0.10206 -0.55728,-0.20301 -0.16098,-0.10096 -0.78008,-0.2448 -1.37577,-0.31964 -1.39998,-0.1759 -3.49894,-0.64718 -3.85076,-0.86462 -0.15118,-0.0934 -0.51902,-0.19196 -0.81741,-0.21894 -0.29839,-0.027 -2.50706,-0.26224 -4.90815,-0.5228 -5.54411,-0.601647 -6.63991,-0.659507 -11.64167,-0.614627 -6.17312,0.0554 -7.31777,0.10362 -10.05416,0.42378 -1.38245,0.161747 -2.98979,0.271727 -3.57188,0.244407 -0.58208,-0.0273 -1.35793,0.0947 -1.72412,0.27109 -0.36618,0.17642 -1.02103,0.28027 -1.45521,0.23077 -0.43418,-0.0495 -1.15027,0.0577 -1.59132,0.23832 -0.67556,0.27657 -2.8675,0.68995 -4.35747,0.82178 -0.21828,0.0193 -0.58747,0.11767 -0.82042,0.21858 -0.23295,0.1009 -0.53061,0.15864 -0.66146,0.1283 -0.13085,-0.0303 -0.41651,0.007 -0.63479,0.084 -0.74867,0.26255 -5.15925,1.30039 -5.82083,1.36968 -0.3638,0.0381 -0.86982,0.14981 -1.12448,0.24826 -1.0098,0.39034 -1.43495,0.49067 -2.56152,0.60451 -0.64484,0.0652 -1.29969,0.20963 -1.45521,0.32104 -0.40339,0.28901 -2.80627,1.06435 -3.59004,1.15842 -0.3638,0.0437 -0.72977,0.17152 -0.81326,0.28413 -0.0835,0.1126 -0.58316,0.22095 -1.11037,0.24077 -0.52721,0.0198 -0.93515,0.1604 -0.90653,0.3124 0.0286,0.152 -0.0968,0.29666 -0.2787,0.32146 -0.1819,0.0248 -0.36049,0.0691 -0.39687,0.0984 -0.0364,0.0293 -0.24474,0.0955 -0.46302,0.14709 -1.47977,0.34965 -3.656553,0.96836 -4.101043,1.16564 -2.1336,0.94696 -3.07321,1.31311 -4.20043,1.63687 -0.70951,0.20379 -1.34356,0.50954 -1.40901,0.67946 -0.0666,0.17301 -0.4632,0.26537 -0.90131,0.20993 -0.43028,-0.0545 -0.71964,0.002 -0.64304,0.12636 0.16355,0.26461 -0.31265,0.51301 -1.7759,0.92638 -0.40018,0.11305 -0.7276,0.33155 -0.7276,0.48554 0,0.154 -0.0703,0.20971 -0.15622,0.12379 -0.0859,-0.0859 -0.59193,-0.005 -1.12448,0.18087 -0.53254,0.1854 -1.12081,0.28422 -1.30726,0.2196 -0.18645,-0.0646 -0.30551,0.0297 -0.26458,0.20968 0.0409,0.17993 -0.55617,0.58607 -1.32689,0.90252 -0.77071,0.31645 -1.61259,0.74594 -1.87084,0.95442 -0.25825,0.20848 -0.63857,0.41836 -0.84515,0.46641 -0.20659,0.048 -0.43628,0.16711 -0.51041,0.26459 -0.0741,0.0975 -0.37292,0.21733 -0.66397,0.26635 -0.29104,0.049 -1.0965,0.43597 -1.78991,0.8599 -0.69341,0.42392 -1.32699,0.77076 -1.40796,0.77076 -0.081,0 -0.3269,0.17969 -0.54652,0.39931 -0.21962,0.21962 -0.50877,0.33165 -0.64256,0.24896 -0.13379,-0.0827 -0.24325,-0.004 -0.24325,0.17396 0,0.17837 -0.0772,0.24711 -0.17154,0.15276 -0.21318,-0.21318 -2.73888,1.13681 -2.73888,1.46393 0,0.13098 -0.12788,0.15911 -0.28417,0.0625 -0.15629,-0.0966 -0.5826,0.10474 -0.94736,0.4474 -0.36475,0.34267 -0.70358,0.5635 -0.75296,0.49074 -0.0494,-0.0728 -0.39697,0.13481 -0.77244,0.46128 -0.37546,0.32645 -0.68265,0.52671 -0.68265,0.445 0,-0.0817 -0.34581,0.0977 -0.76845,0.39862 -0.42265,0.30096 -0.91577,0.54719 -1.09584,0.54719 -0.18006,0 -0.66873,0.35718 -1.08593,0.79375 -0.4172,0.43656 -0.92485,0.79375 -1.12809,0.79375 -0.20325,0 -0.86832,0.41672 -1.47794,0.92604 -0.60962,0.50932 -1.26185,0.92604 -1.44939,0.92604 -0.18754,0 -0.40638,0.25011 -0.48632,0.55579 -0.0799,0.30568 -0.24415,0.49472 -0.36491,0.42009 -0.12076,-0.0746 -0.51573,0.0282 -0.8777,0.22858 -0.36198,0.20036 -0.54809,0.36851 -0.41358,0.37366 0.36293,0.0139 -0.94398,1.3323 -1.32071,1.3323 -0.17734,0 -0.39098,0.17859 -0.47474,0.39687 -0.0838,0.21828 -0.34726,0.39688 -0.58554,0.39688 -0.23829,0 -0.66828,0.29879 -0.95553,0.66398 -0.28726,0.36518 -0.60205,0.62539 -0.69954,0.57824 -0.0975,-0.0471 -0.44089,0.18984 -0.76311,0.52665 -0.32222,0.33681 -0.516,0.61238 -0.43062,0.61238 0.0854,0 0.0102,0.17478 -0.16713,0.38841 -0.17729,0.21363 -0.40023,0.36728 -0.49541,0.34145 -0.0952,-0.0258 -0.8464,0.62424 -1.66938,1.44461 -0.82297,0.82037 -1.56431,1.42358 -1.64742,1.34047 -0.0831,-0.0831 -0.23548,0.0688 -0.3386,0.33753 -0.10313,0.26875 -0.93937,1.24049 -1.85832,2.15944 -0.91894,0.91894 -1.6708,1.79469 -1.6708,1.9461 0,0.15142 -0.11906,0.20172 -0.26459,0.11178 -0.14552,-0.0899 -0.26458,0.0378 -0.26458,0.28387 0,0.24607 -0.44648,0.86848 -0.99219,1.38315 -0.5457,0.51466 -0.99218,1.01738 -0.99218,1.11714 0,0.0998 -0.38696,0.50699 -0.8599,0.90495 -0.47294,0.39795 -0.8599,0.89557 -0.8599,1.10583 0,0.21024 -0.34918,0.7236 -0.77595,1.14079 -0.42678,0.41719 -0.72491,0.80958 -0.66251,0.87199 0.0624,0.0624 -0.18372,0.39265 -0.54695,0.73388 -0.36323,0.34124 -0.66042,0.78347 -0.66042,0.98273 0,0.19927 -0.30137,0.68453 -0.66972,1.07836 -0.36836,0.39383 -0.73845,0.98395 -0.82244,1.31137 -0.084,0.32742 -0.24956,0.59531 -0.36795,0.59531 -0.11839,0 -0.63349,0.88114 -1.14467,1.95809 -0.51119,1.07695 -1.06361,2.04101 -1.2276,2.14237 -0.27618,0.17068 -0.85381,1.31734 -0.90482,1.79617 -0.0122,0.11445 -0.14124,0.29305 -0.28676,0.39688 -0.27662,0.19738 -1.12851,2.3573 -1.37888,3.49608 -0.08,0.3638 -0.30873,0.84971 -0.50832,1.0798 -0.1996,0.23009 -0.29979,0.48147 -0.22264,0.55862 0.0771,0.0772 0.0321,0.42467 -0.10001,0.77228 -0.13216,0.3476 -0.22479,0.703 -0.20585,0.78978 0.019,0.0868 -0.13134,0.35754 -0.33398,0.6017 -0.20264,0.24416 -0.29297,0.5194 -0.20073,0.61164 0.0922,0.0922 0.0339,0.32893 -0.12967,0.526 -0.16356,0.19708 -0.34147,0.737 -0.39535,1.19984 -0.0539,0.46283 -0.24647,0.9358 -0.42794,1.05104 -0.21879,0.13894 -0.22896,0.21089 -0.0302,0.21358 0.21702,0.003 0.20704,0.27799 -0.0361,0.99624 -0.63323,1.87036 -1.44664,10.31982 -1.31068,13.61507 0.27699,6.71331 1.96572,13.51421 4.43268,17.85135 0.51138,0.89906 0.8617,1.70273 0.77849,1.78593 -0.0832,0.0832 -0.009,0.15129 0.16592,0.15129 0.17447,0 0.40267,0.2297 0.50712,0.51044 0.29653,0.797 2.30819,3.11326 4.84183,5.57498 3.25538,3.16297 4.01828,3.83794 4.58267,4.05451 0.4643,0.17817 0.46746,0.21999 0.0513,0.67988 -0.4183,0.46222 -0.40987,0.49881 0.14865,0.64487 0.32567,0.0852 0.74715,0.0262 0.93662,-0.13107 0.354,-0.29379 0.89707,-0.0261 1.57902,0.77824 0.26592,0.31365 0.71317,0.48677 1.46715,0.56791 0.10347,0.0111 0.40113,0.24449 0.66146,0.51858 0.26033,0.2741 0.86028,0.58121 1.33322,0.68249 0.47294,0.10127 0.8599,0.29373 0.8599,0.42769 0,0.13396 0.17859,0.24356 0.39687,0.24356 0.21828,0 0.64421,0.24733 0.9465,0.54963 0.30229,0.30229 0.71901,0.48462 0.92604,0.40517 0.20703,-0.0794 0.37642,-0.0291 0.37642,0.11184 0,0.14095 0.18021,0.25628 0.40047,0.25628 0.22025,0 0.6072,0.10625 0.85989,0.23611 0.49809,0.25598 1.96481,0.89576 2.17922,0.95057 0.0728,0.0186 0.51925,0.12585 0.99219,0.23834 0.47294,0.11249 0.85998,0.28436 0.86009,0.38194 1e-4,0.0976 0.26799,0.19646 0.59531,0.21973 0.32732,0.0233 1.07137,0.25376 1.65346,0.51218 0.58208,0.25841 1.16116,0.44322 1.28685,0.41067 0.22204,-0.0575 2.80938,0.6165 3.60794,0.93986 0.21828,0.0884 0.69453,0.2049 1.05833,0.2589 1.39074,0.20646 3.58265,0.67945 3.82527,0.82545 0.13936,0.0839 0.49655,0.17858 0.79375,0.21046 0.29719,0.0319 1.43332,0.24176 2.52473,0.46639 1.09141,0.22463 4.18703,0.71324 6.87917,1.0858 6.51127,0.90108 6.6517,0.92699 6.48532,1.19619 -0.26567,0.42987 0.43786,0.59994 1.07384,0.25957 0.51631,-0.27632 1.45162,-0.2541 5.20029,0.12355 2.51391,0.25326 4.83864,0.56942 5.16607,0.70259 0.327423,0.13316 0.863203,0.35917 1.190623,0.50224 0.32742,0.14306 1.30969,0.29914 2.18281,0.34684 0.87313,0.0477 1.6768,0.10924 1.78594,0.13676 0.10914,0.0275 0.16867,-0.0988 0.13229,-0.2807 z M 64.090947,160.27853 c -1.61596,-0.36332 -3.30729,-1.04546 -3.30729,-1.3339 0,-0.14207 -0.11906,-0.18473 -0.26458,-0.0948 -0.14552,0.0899 -0.26459,0.0374 -0.26459,-0.11668 0,-0.15411 -0.16343,-0.2802 -0.36317,-0.2802 -0.59848,0 -2.43123,-2.19206 -2.93446,-3.50977 -0.56636,-1.483 -0.40059,-2.35771 0.645,-3.4033 1.2785,-1.2785 2.27187,-1.07951 4.1291,0.82714 1.9024,1.95302 3.15393,2.48794 5.45735,2.33253 3.0304,-0.20445 5.04787,-1.69475 6.06296,-4.47872 0.84643,-2.32143 1.60567,-3.14496 2.89944,-3.14496 0.81309,0 1.20168,0.17702 1.82856,0.83299 0.70276,0.73537 0.79606,1.01777 0.79606,2.40957 0,1.21343 -0.18692,1.96823 -0.81148,3.27688 -0.44632,0.93517 -1.04163,1.84403 -1.32292,2.0197 -0.28129,0.17567 -0.51144,0.43656 -0.51144,0.57976 0,0.1432 -0.44648,0.66101 -0.99218,1.15069 -2.66166,2.38842 -7.61681,3.70412 -11.04636,2.93306 z m 27.41619,-2.10558 c -0.63734,-0.1283 -1.41125,-0.39869 -1.71979,-0.60085 -0.30854,-0.20216 -0.62329,-0.35456 -0.69945,-0.33867 -0.0762,0.0159 -0.65776,-0.44734 -1.29244,-1.02943 -2.0438,-1.87443 -2.47364,-4.01005 -1.09702,-5.45054 0.65546,-0.68589 0.90782,-0.78731 1.5875,-0.63803 0.45702,0.10038 0.80814,0.34758 0.80814,0.56896 0,0.21531 -0.11907,0.31788 -0.26459,0.22795 -0.14552,-0.0899 -0.26458,-0.0445 -0.26458,0.10106 0,0.45324 0.46595,0.5776 0.62372,0.16646 0.21003,-0.54732 0.97034,-0.20321 0.77263,0.34969 -0.0868,0.24261 -0.0604,0.35286 0.0585,0.24498 0.29595,-0.26843 0.96219,0.32106 0.75031,0.66388 -0.0936,0.15151 -0.0611,0.208 0.0724,0.12552 0.13345,-0.0825 0.51631,-0.003 0.85078,0.17551 0.99943,0.53488 2.03766,0.19953 3.19059,-1.03057 0.58399,-0.62306 0.99828,-1.19636 0.92066,-1.27398 -0.0776,-0.0776 0.0774,-0.25649 0.34454,-0.39748 0.57969,-0.30597 3.26381,-0.0899 3.26381,0.26275 0,0.13559 0.1199,0.17243 0.26645,0.0819 0.14655,-0.0906 0.337893,0.0215 0.425203,0.24901 0.0989,0.25768 0.37256,0.3689 0.72573,0.29492 0.31184,-0.0653 0.8559,-0.18161 1.209,-0.25842 0.59968,-0.13045 0.93883,-0.44491 1.16274,-1.0781 0.0582,-0.16462 0.23813,-0.14535 0.4762,0.051 0.25099,0.20702 0.51612,0.22977 0.77063,0.0661 0.34092,-0.21918 0.34092,-0.27972 6e-5,-0.49886 -0.25916,-0.16662 -0.4049,-0.77721 -0.43903,-1.83934 -0.0436,-1.35774 0.0429,-1.6913 0.59234,-2.28419 0.63647,-0.68676 1.26203,-0.76652 1.32604,-0.16908 0.0182,0.16978 0.048,0.4252 0.0661,0.5676 0.0202,0.1579 0.29851,0.13797 0.71347,-0.0511 0.53702,-0.24469 0.72542,-0.23718 0.89402,0.0356 0.13012,0.21054 0.25198,0.23774 0.31178,0.0696 0.0613,-0.1723 0.29704,-0.12955 0.62734,0.11374 0.44554,0.32818 0.52803,0.69111 0.52201,2.29662 -0.0194,5.17695 -4.54964,8.95009 -9.622923,8.01478 -0.94627,-0.17446 -1.20798,-0.13485 -1.40221,0.21222 -0.13134,0.23469 -0.41148,0.42671 -0.62253,0.42671 -0.21105,0 -0.38372,0.12329 -0.38372,0.27399 0,0.3681 -2.02242,1.21492 -3.3201,1.39017 -0.57504,0.0777 -1.56699,0.0362 -2.20434,-0.0921 z m 30.328043,-14.27857 c -2.73566,-0.68927 -5.59136,-2.95921 -6.40583,-5.09188 -0.56593,-1.48185 -0.39993,-2.35683 0.64542,-3.40219 1.21125,-1.21125 2.10282,-1.04837 3.91503,0.71523 1.83607,1.78681 2.874,2.26437 4.95532,2.27998 2.00043,0.015 3.3855,-0.35977 4.91535,-1.32998 1.20017,-0.76112 2.88754,-2.93548 2.89244,-3.72721 10e-4,-0.22971 0.28611,-1.02657 0.63264,-1.77079 0.45859,-0.98489 0.84235,-1.42714 1.41015,-1.62508 1.12741,-0.39301 2.09558,-0.11838 2.88344,0.81793 0.63407,0.75356 0.67998,0.97057 0.56952,2.69187 -0.15736,2.45194 -1.53478,5.18034 -3.48852,6.91004 -1.40267,1.24183 -3.27686,2.35973 -3.53065,2.10594 -0.0807,-0.0806 -0.28073,0.0368 -0.44463,0.2609 -0.16389,0.22413 -0.47332,0.44211 -0.68762,0.48439 -0.21429,0.0423 -0.74681,0.22926 -1.18337,0.41551 -0.99127,0.42291 -5.74592,0.60113 -7.07869,0.26534 z m -3.51595,-7.91272 c 0.0837,-0.13546 0.0312,-0.32109 -0.11667,-0.41249 -0.1479,-0.0914 -0.2689,0.0194 -0.2689,0.2463 0,0.46475 0.15876,0.53318 0.38557,0.16619 z m -47.084533,89.1463 c 0.0899,-0.14552 -0.0221,-0.26458 -0.24897,-0.26458 -0.22687,0 -0.41249,0.11906 -0.41249,0.26458 0,0.14552 0.11204,0.26458 0.24897,0.26458 0.13693,0 0.32255,-0.11906 0.41249,-0.26458 z m -17.40186,-96.73277 c -0.0879,-0.0879 -0.31613,-0.0973 -0.50712,-0.0209 -0.21107,0.0845 -0.14837,0.14715 0.15985,0.15985 0.27891,0.0115 0.43519,-0.0511 0.34727,-0.13897 z M 186.85761,105.27171 c 0.0899,-0.14552 0.0374,-0.26458 -0.11667,-0.26458 -0.15411,0 -0.2802,0.11906 -0.2802,0.26458 0,0.14553 0.0525,0.26459 0.11667,0.26459 0.0642,0 0.19027,-0.11906 0.2802,-0.26459 z m -5.62239,-3.35022 c -0.1819,-0.0734 -0.47956,-0.0734 -0.66146,0 -0.1819,0.0734 -0.0331,0.13345 0.33073,0.13345 0.3638,0 0.51263,-0.0601 0.33073,-0.13345 z"
       id="path1982" /></g></svg>
