<?xml version="1.0" encoding="UTF-8" standalone="no"?>
<!-- Created with Inkscape (http://www.inkscape.org/) -->

<svg
   width="226.45073mm"
   height="230.15782mm"
   viewBox="0 0 226.45072 230.15782"
   version="1.1"
   id="svg5"
   xml:space="preserve"
   xmlns="http://www.w3.org/2000/svg"
   xmlns:svg="http://www.w3.org/2000/svg"><defs
     id="defs2" /><g
     id="layer1"
     transform="translate(62.742861,-48.988373)"><path
       style="fill:#000000;stroke-width:0.264583"
       d="m 44.646365,279.09034 c -4.68397,-0.21839 -12.53133,-1.18136 -16.26664,-1.99614 -4.93824,-1.07716 -6.68261,-1.51052 -8.86878,-2.20328 -4.05759,-1.28579 -4.23782,-1.3272 -4.604799,-1.05782 -0.191891,0.14086 -1.015526,0.79439 -1.8303,1.4523 -9.7318897,7.85815 -25.151195,2.38784 -29.957957,-10.62819 -0.569643,-1.54251 -0.735526,-2.50414 -0.801489,-4.64627 l -0.08318,-2.70119 -1.275508,-1.66443 c -1.488377,-1.94222 -3.91337,-5.60233 -5.616697,-8.47746 -0.323291,-0.5457 -0.672779,-0.99219 -0.776636,-0.99219 -0.10386,0 -0.552032,-0.74414 -0.995942,-1.65364 -3.127706,-6.4082 -6.233075,-16.61436 -7.099001,-23.3317 -0.617937,-4.79358 -0.474514,-4.62709 -2.521545,-2.9271 -3.03992,2.52455 -4.730178,3.57078 -5.768843,3.57078 -0.815707,0 -1.179782,-0.23781 -2.632897,-1.7198 -0.927463,-0.94588 -1.708314,-1.71974 -1.735228,-1.71969 -0.02691,6e-5 -0.989155,0.90747 -2.13832,2.01647 -4.493262,4.33622 -9.012107,4.95391 -12.3323,1.68573 -1.690638,-1.66416 -2.231005,-3.2993 -2.049858,-6.20286 0.155963,-2.49991 1.033975,-4.86 2.79248,-7.50617 1.119209,-1.68416 1.312529,-2.1641 0.871712,-2.1641 -0.445386,0 -1.877017,-2.46624 -1.877017,-3.2335 0,-1.04266 0.557583,-2.03518 2.314588,-4.12008 3.642741,-4.32253 4.870407,-5.34642 6.41051,-5.34642 0.678018,0 1.27027,-0.4527 3.547956,-2.71198 3.784732,-3.75413 7.948377,-6.09653 11.886387,-6.68707 l 1.240557,-0.18603 v -1.40955 c 0,-0.77526 -0.0893,-1.46333 -0.198437,-1.52906 -0.109141,-0.0657 -0.79375,-0.1948 -1.521354,-0.28684 -1.558081,-0.19709 -2.513542,-1.06901 -2.513542,-2.29378 0,-0.43301 -0.148828,-0.82965 -0.330729,-0.88142 -0.181901,-0.0518 -1.750139,-0.23681 -3.484972,-0.4112 -5.025086,-0.50513 -7.850029,-1.65759 -9.636569,-3.93131 -1.739196,-2.21347 -2.067407,-3.58846 -2.347431,-9.83426 -0.290603,-6.48175 -0.197726,-22.83603 0.149508,-26.32604 0.4684,-4.70783 1.753013,-7.25077 4.71778,-9.33902 1.716804,-1.20925 6.602113,-2.64052 10.804485,-3.16545 l 1.566341,-0.19566 0.309454,-2.79232 c 0.320945,-2.89602 1.063569,-5.13089 1.980766,-5.96094 0.659262,-0.59662 0.641649,-0.75291 -0.292402,-2.59483 l -0.790397,-1.55864 V 96.39343 81.358674 l 0.806973,-0.919094 c 0.443839,-0.505502 1.221928,-1.056039 1.729095,-1.22342 0.804476,-0.265501 1.080696,-0.225369 2.165148,0.314576 2.230533,1.110573 2.110836,0.153729 2.238119,17.890916 l 0.112553,15.684518 0.981221,1.00486 c 0.632814,0.64806 1.037571,1.35211 1.139923,1.98285 0.08729,0.53789 0.245528,1.03164 0.351644,1.09722 0.106114,0.0656 0.667332,-0.10996 1.247148,-0.39009 0.96665,-0.46704 1.125961,-0.70273 1.91802,-2.83765 0.866672,-2.33602 4.038081,-8.99836 5.579441,-11.72101 2.389391,-4.220621 3.489465,-6.015739 5.744646,-9.374212 6.1223813,-9.117615 12.44042526,-15.955424 21.3504453,-23.106881 0.284626,-0.228452 1.8324377,-1.300311 3.4395827,-2.381912 10.313997,-6.941277 19.387137,-10.545254 31.232497,-12.405981 2.10835,-0.33119 4.51454,-0.45714 8.73125,-0.45703 6.06796,1.59e-4 9.68906,0.393202 15.36764,1.668038 5.57936,1.252564 12.97707,4.340569 18.80972,7.851696 2.01128,1.210744 7.75733,5.0747 8.02368,5.395555 0.0728,0.08765 0.85954,0.713319 1.7484,1.390372 0.88886,0.677055 2.54675,2.100252 3.68421,3.16266 3.120985,2.91506 8.083735,8.149356 7.726585,8.149356 -0.0686,0 0.29654,0.446485 0.81151,0.992188 1.82956,1.938747 6.0429,7.793071 9.37817,13.030728 3.25821,5.116643 9.26032,17.124273 10.61265,21.231303 0.0836,0.25383 0.54291,0.69325 1.02074,0.9765 0.47783,0.28324 0.98784,0.6132 1.13336,0.73324 0.14552,0.12004 0.59733,0.47585 1.00403,0.79069 l 0.73944,0.57242 1.02667,-1.1138 c 1.00377,-1.08896 1.02357,-1.14904 0.88788,-2.69322 -0.0763,-0.86868 0.0516,-3.2914 0.2844,-5.38382 0.58222,-5.23383 0.55989,-5.64261 -0.41656,-7.62604 -1.39955,-2.8429 -1.29068,-5.092252 0.32467,-6.707593 0.46884,-0.468837 0.5151,-0.907677 0.5151,-4.886394 0,-4.306739 -0.009,-4.375398 -0.60958,-4.649036 -1.0186,-0.46411 -1.36719,-1.304102 -1.50709,-3.631681 -0.12647,-2.10403 -0.16678,-2.220568 -0.91528,-2.645833 -1.28317,-0.729046 -2.79627,-2.218338 -3.54332,-3.487568 l -0.70078,-1.190625 -0.0832,-6.746875 c -0.0457,-3.710781 -0.0134,-7.118881 0.0719,-7.573554 0.1539,-0.820402 1.34685,-2.308482 2.03425,-2.537532 0.27573,-0.09187 0.37088,-0.998249 0.41299,-3.933832 0.0301,-2.097951 0.0599,-4.020937 0.0662,-4.273302 0.0187,-0.750159 1.39651,-2.067301 2.39268,-2.287296 1.45145,-0.320541 2.47288,0.08703 3.33596,1.331128 0.74354,1.071767 0.76748,1.209223 0.8505,4.882114 l 0.0854,3.779298 0.97291,0.08097 c 0.5351,0.04453 1.70409,0.04162 2.59775,-0.0065 1.57344,-0.08468 1.62992,-0.112919 1.78593,-0.892969 0.0886,-0.443034 0.16111,-2.277038 0.16111,-4.075562 0,-3.194092 0.0169,-3.288905 0.7276,-4.082015 1.40421,-1.567033 3.74312,-1.477489 5.01749,0.192093 0.72284,0.946998 0.73892,1.046363 0.82564,5.100976 l 0.0884,4.135165 0.76895,0.516339 c 1.42838,0.959141 1.60424,1.92705 1.65454,9.106164 l 0.0455,6.491425 -0.71296,1.521354 c -0.47872,1.021498 -0.86991,1.522685 -1.19063,1.525405 -0.36746,0.0031 -0.39517,0.05633 -0.12008,0.230643 0.41632,0.263824 -0.66041,1.175527 -2.58736,2.190802 l -1.17144,0.617212 0.055,1.852084 c 0.0602,2.0287 -0.54981,3.498617 -1.56185,3.763269 -0.60233,0.157514 -0.59358,-0.02299 -0.51015,10.52423 0.0299,3.783546 0.0624,7.891206 0.0722,9.128136 0.01,1.23692 -0.19501,4.16229 -0.45506,6.50081 l -0.47282,4.25185 0.88801,1.25917 c 0.8484,1.203 0.89392,1.38946 1.02031,4.17971 l 0.13229,2.92053 1.93101,0.48942 c 3.84481,0.97449 6.27846,2.79954 7.64762,5.73512 0.96181,2.06218 1.18661,5.31215 1.23059,17.79047 0.0402,11.40189 -0.17759,17.89791 -0.66076,19.70997 -0.76582,2.87208 -2.84478,5.1668 -5.70283,6.29469 -1.40833,0.55578 -1.91504,0.66217 -5.67773,1.19208 l -3.08419,0.43436 -0.15295,0.95648 c -0.17501,1.09445 -0.76703,1.73103 -1.81461,1.95118 -0.40019,0.0841 -1.02526,0.21469 -1.38907,0.29023 -0.56898,0.11814 -0.66145,0.28157 -0.66145,1.16899 0,1.32272 0.21591,1.86868 0.739,1.86868 1.04047,0 4.07797,0.94716 6.00787,1.87338 2.75799,1.32365 5.22395,3.21587 7.55429,5.79669 1.49142,1.65172 2.02801,2.07873 2.59199,2.0627 0.39118,-0.0111 1.08006,0.17051 1.53087,0.40363 1.05579,0.54597 4.39076,4.14066 4.23005,4.55948 -0.0675,0.17578 0.0243,0.30463 0.20398,0.28634 0.45261,-0.0461 2.50191,2.36096 2.70752,3.18017 0.2469,0.98372 -0.30418,2.52 -1.218,3.3955 -0.43982,0.42136 -0.79966,0.86262 -0.79966,0.98058 0,0.11796 0.40407,0.78029 0.89794,1.47186 3.10319,4.34539 4.12796,8.83329 2.70373,11.84071 -1.27212,2.68621 -3.37351,4.08529 -6.15097,4.09523 -1.77381,0.006 -4.41071,-0.70766 -4.15306,-1.12455 0.0888,-0.14366 -0.004,-0.20352 -0.20612,-0.13303 -0.43945,0.15325 -1.91998,-0.93081 -4.02643,-2.94817 l -1.54219,-1.47698 -1.23593,1.3628 c -2.27916,2.51312 -3.79797,2.75327 -5.90225,0.93322 -2.02595,-1.7523 -4.35227,-3.48664 -4.67671,-3.48664 -0.19179,0 -0.31426,0.42497 -0.31426,1.09052 0,4.76453 -3.22113,17.9451 -5.85935,23.97586 -0.26986,0.61688 -0.49065,1.19624 -0.49065,1.28747 0,0.0912 -0.39681,0.71761 -0.88181,1.39195 -0.485,0.67434 -1.33551,2.05951 -1.89003,3.07815 -1.21695,2.23553 -3.44016,5.47378 -5.34858,7.79055 l -1.40458,1.70512 v 1.91987 c 0,4.74515 -2.0044,8.99958 -6.21937,13.20089 -2.8943,2.88492 -5.55285,4.51152 -9.25875,5.66485 -5.541275,1.72451 -12.087895,0.35273 -16.320615,-3.41983 l -1.44983,-1.29222 -4.02551,1.2927 c -6.0545,1.94426 -11.79703,3.05699 -19.82272,3.84104 -4.12665,0.40315 -13.45182,0.66905 -17.25112,0.49191 z m 11.50937,-4.2044 c 6.28519,-0.26832 6.17981,-0.25686 13.89063,-1.51007 1.81901,-0.29564 3.60495,-0.55832 3.96875,-0.58373 0.3638,-0.0254 0.89958,-0.17792 1.19062,-0.33891 0.29104,-0.16099 1.06495,-0.335 1.71979,-0.38669 1.41683,-0.11185 2.06365,-0.57861 1.591,-1.14811 -0.1725,-0.20785 -0.23669,-0.50241 -0.14265,-0.65458 0.0941,-0.15217 -0.15693,-0.40135 -0.55772,-0.55373 -0.76865,-0.29224 -3.27358,-2.72681 -4.91461,-4.77657 -0.53639,-0.66999 -1.50055,-1.75865 -2.14257,-2.41925 -2.31527,-2.38223 -2.71848,-4.17309 -1.48427,-6.59234 0.27889,-0.54668 0.50707,-1.17729 0.50707,-1.40137 0,-0.22408 0.11105,-0.40742 0.24676,-0.40742 0.13571,0 0.32179,-0.26789 0.4135,-0.59531 0.26022,-0.92898 0.72535,-1.77843 0.91099,-1.66369 0.0927,0.0573 0.19414,-0.20471 0.22539,-0.58224 0.0544,-0.65693 1.54553,-3.28093 1.9689,-3.46466 0.11177,-0.0485 0.20321,-0.239 0.20321,-0.42332 0,-0.18432 0.35719,-0.82821 0.79375,-1.43087 0.43657,-0.60266 0.79375,-1.20126 0.79375,-1.33022 0,-0.12896 0.17982,-0.38371 0.3996,-0.56611 0.21978,-0.1824 0.94984,-1.15932 1.62236,-2.17094 1.40671,-2.116 5.37227,-6.24302 7.50304,-7.80854 3.1438,-2.30981 4.36463,-2.63911 11.1125,-2.99736 2.98318,-0.15837 5.781155,-0.32566 6.217715,-0.37173 0.43656,-0.0461 1.18245,-0.0971 1.65754,-0.11335 0.67792,-0.0232 0.97343,-0.2146 1.37337,-0.88947 0.28027,-0.47294 0.61153,-0.97896 0.73613,-1.12448 0.1246,-0.14552 0.42444,-0.7608 0.6663,-1.3673 0.42761,-1.07227 4.1207,-7.22182 5.4552,-9.08374 0.36505,-0.50932 0.93861,-1.19875 1.27458,-1.53206 0.33596,-0.33331 0.61084,-0.89325 0.61084,-1.24431 0,-0.60958 -0.0589,-0.63131 -1.30963,-0.48317 -1.06087,0.12564 -1.53644,0.36632 -2.5037,1.26708 -1.62306,1.51146 -3.21027,2.00246 -5.61856,1.7381 -1.87416,-0.20573 -3.08979,-0.7514 -3.38441,-1.51917 -0.0884,-0.23038 -0.2384,-0.34121 -0.33332,-0.24629 -0.20442,0.20442 -1.402465,-0.86342 -1.402465,-1.25006 0,-0.14697 -0.25373,-0.79135 -0.56384,-1.43195 -0.70493,-1.45619 -0.57475,-3.67787 0.32055,-5.47053 0.67703,-1.35561 2.459865,-2.87937 3.910955,-3.34261 0.5294,-0.16901 1.06457,-0.40088 1.18926,-0.51526 0.3448,-0.31632 1.49101,-3.87249 1.67069,-5.18344 0.15547,-1.13426 0.14244,-1.15978 -0.60467,-1.18421 -0.95292,-0.0312 -0.72707,-0.0332 -13.384805,0.12387 -14.25564,0.17696 -15.45551,-0.0192 -18.40966,-3.00932 -1.73041,-1.7515 -1.90973,-1.98418 -1.90973,-2.4779 0,-0.24702 -0.1786,-0.51766 -0.39688,-0.60142 -0.21828,-0.0838 -0.39687,-0.27442 -0.39687,-0.42368 0,-0.14927 -0.21876,-0.46395 -0.48613,-0.6993 -0.26736,-0.23535 -1.1556,-1.32088 -1.97384,-2.41229 -0.81825,-1.0914 -1.73782,-2.30959 -2.0435,-2.70708 -0.30567,-0.3975 -0.57387,-0.96306 -0.596,-1.25682 -0.0221,-0.29375 -0.25263,-0.60151 -0.51222,-0.6839 -0.2596,-0.0824 -0.79229,-0.69633 -1.18375,-1.36432 -0.39146,-0.66798 -1.04669,-1.55715 -1.45607,-1.97594 -0.40938,-0.41878 -0.74432,-0.8821 -0.74432,-1.02958 0,-0.14748 -0.32743,-0.55634 -0.72761,-0.90856 l -0.7276,-0.64041 -10.7312,-0.008 c -11.66904,-0.009 -11.04345,-0.0903 -12.16763,1.57914 -0.34298,0.50932 -0.69573,0.98557 -0.78389,1.05834 -0.0882,0.0728 -0.73482,0.99549 -1.43701,2.05052 -0.7022,1.05502 -1.35088,1.91823 -1.44151,1.91823 -0.0906,0 -0.31405,0.3372 -0.49648,0.74934 -0.18243,0.41214 -0.81273,1.3944 -1.40067,2.18281 -0.58793,0.78841 -1.23733,1.67159 -1.44312,1.96264 -3.31495,4.6884 -4.69447,6.30799 -5.6188,6.59663 -0.32743,0.10225 -0.59532,0.2932 -0.59532,0.42435 0,0.13115 -0.18346,0.16805 -0.40769,0.082 -0.22423,-0.086 -0.38873,-0.0525 -0.36554,0.0744 0.11175,0.61216 -0.10619,0.83699 -1.145,1.18121 -0.89789,0.29753 -3.44861,0.37261 -12.6587347,0.37261 -11.811823,0 -12.620344,0.0667 -12.260474,1.01153 0.06523,0.17126 0.206983,1.01825 0.315002,1.88219 0.184619,1.47657 0.246169,1.5837 1.025946,1.78564 1.43289796,0.37108 3.328159,1.8497 4.006627,3.12584 0.928696,1.7468 0.714389,3.87321 -1.141957,11.33083 -1.78465204,7.16961 -2.22852404,8.09603 -4.409067,9.20224 -1.565542,0.79421 -1.560835,0.79451 -6.79809,-0.42211 -2.8056363,-0.65175 -2.9783903,-0.61676 -6.0937143,1.23432 -0.789704,0.46924 -1.552238,0.78121 -1.694526,0.69327 -0.142288,-0.0879 -0.17744,-0.0284 -0.07812,0.1323 0.100187,0.16211 -0.08775,0.4303 -0.42214,0.60242 -0.331499,0.17063 -0.840848,0.57179 -1.13189,0.89148 -0.291042,0.31968 -0.738629,0.65899 -0.994643,0.75401 -0.256011,0.095 -0.439891,0.26538 -0.40862,0.37857 0.03127,0.11319 -0.132686,0.56299 -0.364341,0.99955 -0.336894,0.63488 -0.417931,1.64105 -0.404884,5.02708 0.01328,3.44686 -0.06833,4.42914 -0.439275,5.28731 -0.432684,1.00102 -0.431924,1.10739 0.01516,2.11667 0.2589,0.58448 0.976791,1.92589 1.595313,2.98092 0.618522,1.05502 1.080794,1.91823 1.027271,1.91823 -0.0923,0 0.238723,0.40384 2.096132,2.55721 l 0.799185,0.92654 0.829773,-1.15544 c 1.754552,-2.44318 5.5548973,-5.48093 6.8763723,-5.49654 0.315293,-0.004 0.61295,-0.12406 0.661458,-0.2674 0.08851,-0.26155 1.286349,-0.55736 4.415946,-1.09053 1.722247,-0.2934 2.36343596,-0.26041 5.292722,0.27233 2.148467,0.39074 7.187359,2.76744 7.373091,3.47768 0.07358,0.28136 0.288499,0.51156 0.477607,0.51156 0.3790027,0 2.5048687,1.88942 2.5048687,2.22626 0,0.11612 0.297656,0.44526 0.661458,0.73143 0.363802,0.28617 0.661458,0.69025 0.661458,0.89797 0,0.20772 0.12201,0.37768 0.271132,0.37768 0.149122,0 0.389393,0.26789 0.533934,0.59531 0.14454,0.32742 0.599824,1.13611 1.01174,1.79708 2.20318,3.53528 2.91239,8.95402 1.79215,13.69279 -0.17901,0.75721 0.88109,1.46896 2.85113,1.91423 0.73982,0.16721 1.82137,0.47558 2.40346,0.68525 0.58208,0.20967 1.65364,0.4897 2.38125,0.62228 0.7276,0.13259 2.6326,0.53455 4.23333,0.89325 1.60073,0.3587 3.4462,0.71398 4.10104,0.78952 0.65484,0.0755 1.36922,0.20114 1.5875,0.27911 0.58273,0.20814 3.50441,0.46179 9.25201,0.80321 1.66887,0.0991 3.05772,0.20388 3.08635,0.23275 0.085,0.0857 4.42739,-0.0156 8.9606,-0.2091 z m -12.76614,-70.44279 c -0.47294,-0.0578 -0.8599,-0.22191 -0.8599,-0.36459 0,-0.14268 -0.14883,-0.22922 -0.33073,-0.19231 -0.62247,0.12631 -2.3151,-1.03194 -2.3151,-1.5842 0,-0.14035 -0.17483,-0.32227 -0.38851,-0.40426 -0.72713,-0.27903 -1.89974,-3.63673 -2.13762,-6.12097 -0.15339,-1.6019 -0.11264,-1.82977 0.43072,-2.40815 1.08682,-1.15687 3.35664,-0.53825 3.57325,0.97386 0.46652,3.25669 0.79964,4.34098 1.59169,5.18079 1.37755,1.46063 2.95561,1.10163 4.47912,-1.01897 0.85825,-1.19462 0.99217,-1.27659 2.08577,-1.27659 0.97829,0 1.29081,0.13661 1.91867,0.83872 1.79855,2.01124 2.19216,2.33628 2.82912,2.33628 1.93325,0 2.69502,-0.98392 3.23785,-4.18209 0.31138,-1.8346 0.52539,-2.42071 1.05722,-2.89552 0.82845,-0.73962 1.94404,-0.76391 2.70087,-0.0588 0.84577,0.78795 0.94235,1.57016 0.47366,3.83648 -0.63783,3.08425 -1.92464,5.66292 -2.61347,5.2372 -0.15543,-0.0961 -0.18937,-0.0363 -0.0799,0.14077 0.11439,0.1851 -0.0538,0.40556 -0.42214,0.55328 -0.33677,0.13506 -0.49325,0.25716 -0.34773,0.27132 0.14552,0.0142 -0.21167,0.25579 -0.79375,0.53696 -1.26577,0.61141 -3.97354,0.70059 -5.23402,0.17239 -0.46827,-0.19623 -1.23144,-0.67725 -1.69593,-1.06893 l -0.84454,-0.71215 -1.27213,0.90818 c -0.74584,0.53246 -1.70997,0.96206 -2.33046,1.03843 -0.58209,0.0716 -1.23693,0.18376 -1.45521,0.24915 -0.21828,0.0654 -0.78383,0.0716 -1.25677,0.0137 z M 6.6318213,274.23348 c 2.400004,-0.61382 4.3587697,-1.96774 5.6821757,-3.92761 2.162016,-3.20177 2.215687,-8.76102 0.124399,-12.88541 -0.878004,-1.73157 -3.1541847,-4.48179 -4.8089207,-5.81043 -3.086893,-2.47855 -5.400013,-3.31769 -9.145333,-3.31769 -3.213822,0 -5.16069,0.53509 -7.350138,2.02017 -2.1009213,1.42503 -2.8097873,2.21139 -3.7787023,4.19178 -0.85177,1.74096 -1.453406,5.26399 -0.979818,5.73758 0.233569,0.23357 0.3717,0.13853 0.574715,-0.39544 0.521671,-1.3721 1.112676,-2.0629 1.49408,-1.74636 0.193503,0.1606 0.481804,0.21166 0.640668,0.11348 0.158863,-0.0982 0.469566,-0.10917 0.690448,-0.0244 0.3400143,0.13048 0.2992683,0.3471 -0.265678,1.41251 -0.367004,0.69212 -0.784291,1.92559 -0.927301,2.74104 -0.223393,1.2738 -0.176435,1.73966 0.333385,3.30729 0.97925,3.01107 1.8626143,4.192 3.7279403,4.98373 0.879726,0.37339 1.784048,0.67856 2.009605,0.67814 0.225557,-5.3e-4 0.546031,0.13517 0.712163,0.3013 0.226354,0.22635 0.531458,0.1932 1.217382,-0.13229 0.503428,-0.2389 1.107305,-0.43436 1.341949,-0.43436 0.234643,0 0.633367,-0.11037 0.886055,-0.24526 0.25268696,-0.1349 0.66957496,-0.31044 0.92642196,-0.3901 0.256845,-0.0797 0.576752,-0.43352 0.710904,-0.78636 0.134152,-0.35285 0.48714,-0.8119 0.78441504,-1.02013 0.759783,-0.53217 1.295218,-3.30446 1.029825,-5.33207 -0.162669,-1.2428 -0.469432,-1.94788 -1.52321204,-3.501 -1.230635,-1.81378 -1.285621,-1.96292 -0.816303,-2.21409 0.856845,-0.45857 1.23676904,-0.30849 2.16478704,0.85516 1.206439,1.51277 1.493057,2.14053 1.920247,4.20574 0.826104,3.99372 -1.273884,8.15632 -5.00223804,9.91543 -0.72760396,0.3433 -1.59080696,0.62535 -1.91822896,0.62677 -1.447864,0.006 0.06047,0.87535 2.44739496,1.41014 1.449843,0.32483 5.20613504,0.14633 7.09691304,-0.33725 z m 95.1222487,0.004 c 1.06814,-0.27741 1.99632,-0.55863 2.06262,-0.62492 0.0663,-0.0663 -0.5167,-0.20016 -1.29554,-0.29747 -0.77885,-0.0973 -2.01126,-0.45268 -2.738705,-0.78971 -2.6224,-1.21497 -5.47378,-4.5749 -4.85835,-5.72484 0.18299,-0.34192 0.11315,-0.55144 -0.27287,-0.81863 -0.5751,-0.39806 -0.72116,-1.65803 -0.42502,-3.66639 0.23106,-1.56699 1.42857,-4.0036 2.04714,-4.16536 0.26949,-0.0705 0.43218,-0.22167 0.36153,-0.33598 -0.0707,-0.11432 0.29341,-0.57826 0.80903,-1.03098 0.73349,-0.64401 1.04179,-0.76731 1.41679,-0.56661 0.38311,0.20504 0.53762,0.12853 0.76987,-0.38119 0.20092,-0.44097 0.457385,-0.60558 0.831305,-0.53357 0.34013,0.0655 0.54075,-0.0356 0.54075,-0.2725 0,-0.53443 1.14403,-0.78727 3.43958,-0.76018 2.47484,0.0292 4.46527,0.90727 6.15083,2.71339 1.54759,1.65827 2.30419,3.3262 2.6915,5.93341 l 0.3235,2.17769 0.42439,-0.97715 c 0.23341,-0.53743 0.57583,-1.8785 0.76094,-2.98015 0.58321,-3.47086 -0.29617,-6.27105 -2.77148,-8.82508 -2.7409,-2.82807 -5.62177,-4.01865 -9.72406,-4.01865 -3.527885,0 -6.441745,1.10885 -9.894165,3.76516 -5.09331,3.91881 -7.36417,11.62134 -4.92836,16.71652 1.30031,2.71996 4.29551,5.16884 6.96488,5.69449 2.04125,0.40195 5.2686,0.2999 7.313895,-0.23129 z m 3.32681,-2.65503 c 1.00519,-0.28746 2.26913,-0.82862 2.80875,-1.20258 3.80266,-2.63524 4.80899,-8.09469 2.1183,-11.49197 -0.44178,-0.55778 -0.80323,-1.18548 -0.80323,-1.39488 0,-0.23384 -0.22968,-0.36068 -0.59531,-0.32877 -0.32742,0.0286 -0.71438,-0.0362 -0.8599,-0.14408 -0.14552,-0.10783 -1.03849,-0.38704 -1.98437,-0.62047 -1.69126,-0.41738 -2.51501,-0.37732 -5.11259,0.24866 -1.009995,0.24339 -3.302785,2.61378 -3.946115,4.07966 -0.6578,1.49886 -0.88368,3.89471 -0.48196,5.11193 0.16938,0.51324 0.36613,1.25393 0.43723,1.64597 0.12052,0.66464 0.55728,1.18765 2.26675,2.71434 0.37486,0.33478 1.500925,0.89782 2.502355,1.25119 1.00143,0.35337 1.82116,0.64501 1.82163,0.64808 5.3e-4,0.003 0.82327,-0.22962 1.82846,-0.51708 z m -22.220425,-3.7643 c -0.62184,-2.51058 -0.6239,-5.94118 -0.005,-8.01617 0.7103,-2.38074 2.69179,-6.16458 4.08212,-7.79518 3.14551,-3.68909 5.38829,-5.34046 9.12628,-6.71975 2.03456,-0.75073 2.39172,-0.79817 6.129205,-0.81405 3.51979,-0.0149 4.17827,0.0547 5.82084,0.61606 3.17587,1.0853 6.2502,3.44387 8.83158,6.77542 l 0.61503,0.79375 0.96523,-1.08449 c 1.29447,-1.45439 5.73533,-8.92561 6.71704,-11.30062 2.15049,-5.20257 2.5392,-6.23201 2.62355,-6.94801 0.0816,-0.69239 0.006,-0.78322 -0.70243,-0.85018 -0.43657,-0.0412 -4.08983,0.2826 -8.11838,0.71962 -6.47119,0.70201 -12.04212,1.16698 -25.483715,2.127 -4.88311,0.34876 -6.12872,0.916 -9.54054,4.3447 -2.2034,2.21429 -6.20181,7.23779 -6.76079,8.49406 -0.1295,0.29104 -0.77188,1.48167 -1.42752,2.64583 -3.80939,6.76402 -4.0166,7.65281 -2.29225,9.83197 2.27372,2.87343 9.41781,9.59077 9.7969,9.21168 0.0555,-0.0555 -0.11431,-0.96973 -0.37733,-2.03164 z M -23.912018,238.43661 c -0.02676,-1.18733 -0.06064,-1.27379 -0.233281,-0.59531 -0.299169,1.17572 -0.299169,1.98437 0,1.98437 0.146767,0 0.250645,-0.61854 0.233281,-1.38906 z m -1.56428,-6.35 c 0.355303,-0.76398 0.943199,-1.80578 1.30643,-2.3151 0.742209,-1.04073 4.011803,-4.23314 4.335595,-4.23326 0.115493,-4e-5 0.519787,-0.28734 0.898435,-0.63844 0.378647,-0.3511 0.824923,-0.586 0.991721,-0.52199 0.166802,0.064 0.566531,-0.2397 0.888289,-0.6749 l 0.585014,-0.79128 -0.596095,-1.13413 c -0.480116,-0.91346 -0.592968,-1.54597 -0.580009,-3.25079 0.0088,-1.16417 0.09693,-2.65727 0.195728,-3.318 0.167124,-1.11763 0.129138,-1.23004 -0.545256,-1.61353 -0.398693,-0.22671 -1.320207,-0.56683 -2.047811,-0.75582 -1.55996,-0.40519 -8.096676,-3.46583 -9.251847,-4.33193 -1.642488,-1.23148 -1.560213,-1.40025 -1.350118,2.76957 0.260699,5.17422 1.694532,13.93349 2.919148,17.83304 0.182798,0.58208 0.546547,1.80247 0.808333,2.71198 0.261785,0.9095 0.548077,1.65364 0.636204,1.65364 0.08812,0 0.450932,-0.62508 0.806239,-1.38906 z m 139.972668,-2.45915 c 1.38244,-0.10467 3.04932,-0.22579 3.70416,-0.26915 0.65485,-0.0434 2.38125,-0.25726 3.83646,-0.47532 1.45521,-0.21807 3.47927,-0.48056 4.49792,-0.58333 2.75009,-0.27744 2.7887,-0.305 3.34033,-2.38455 0.2673,-1.00768 0.5431,-2.3084 0.6129,-2.89048 0.0698,-0.58208 0.25026,-2.07036 0.40102,-3.30729 0.36353,-2.98269 0.48975,-4.53427 0.68046,-8.3651 0.15654,-3.14449 0.14845,-3.20863 -0.42318,-3.35811 -0.38814,-0.1015 -0.72534,0.017 -1.00965,0.35487 -0.6878,0.81734 -7.39037,4.03087 -8.11743,3.89188 -0.3453,-0.066 -0.56938,-0.0255 -0.49795,0.0901 0.0714,0.11557 -0.59142,0.47311 -1.47298,0.79454 -1.59167,0.58035 -2.36676,1.29993 -2.75828,2.56077 -0.10233,0.32953 -0.26677,0.55039 -0.36544,0.49079 -0.22589,-0.13646 -0.68499,0.39457 -0.78222,0.90477 -0.14705,0.77163 -1.09356,2.41267 -4.72479,8.19174 -1.48738,2.36715 -2.213,3.80315 -2.213,4.37953 0,0.42984 0.93344,0.59424 1.98437,0.34949 0.43657,-0.10166 1.92485,-0.27048 3.3073,-0.37515 z M -3.9258937,222.38532 c 0.62525,-0.65262 0.97967,-1.71689 2.298459,-6.90193 0.85756996,-3.37168 1.55921796,-6.52075 1.55921796,-6.99792 0,-1.43014 -0.812919,-2.15504 -3.24983996,-2.89796 -5.690898,-1.73494 -6.7756163,-1.78423 -7.7149633,-0.3506 -0.384257,0.58645 -3.195609,10.89376 -3.511537,12.87443 -0.178779,1.12081 0.493136,2.47693 1.441286,2.90894 0.370409,0.16877 1.926545,0.65871 3.4580773,1.08876 1.531536,0.43005 2.844454,0.84175 2.917598,0.91489 0.07315,0.0731 0.567121,0.13299 1.097727,0.13299 0.720391,0 1.151964,-0.19542 1.703975,-0.7716 z m -4.922618,-2.13801 c -0.97286,-0.25371 -2.1634853,-0.69092 -2.6458333,-0.97159 -1.129422,-0.65718 -1.239248,-1.67714 -0.467569,-4.34235 0.312584,-1.0796 0.632206,-2.26056 0.710271,-2.62436 0.07806,-0.36381 0.236741,-0.78274 0.352613,-0.93098 0.115869,-0.14823 0.352904,-1.10073 0.52674,-2.11667 0.173839,-1.01593 0.4229743,-2.05278 0.5536363,-2.3041 0.302103,-0.58109 1.210701,-1.07464 1.569796,-0.85271 0.151297,0.0935 0.833446,0.20152 1.515885,0.24003 0.68244,0.0385 1.94995,0.35446 2.816688,0.70212 1.47124,0.59012 1.581931,0.69484 1.666841,1.57683 0.08136,0.84516 -1.860727,9.34886 -2.540492,11.12387 -0.444437,1.16051 -1.178666,1.25095 -4.058576,0.49991 z m 2.146818,-1.57819 c 0.634429,-0.33954 0.945105,-1.20142 1.624979,-4.50803 0.314163,-1.52797 0.676629,-2.89123 0.805479,-3.02948 0.382389,-0.41027 0.26671,-1.92736 -0.181108,-2.37518 -0.228457,-0.22846 -0.734472,-0.48477 -1.124479,-0.56957 -0.390006,-0.0848 -1.052488,-0.28464 -1.472184,-0.44407 -1.210212,-0.45972 -1.234749,-0.40289 -2.686904,6.22395 -0.247629,1.13004 -0.5461773,2.11391 -0.6634433,2.18638 -0.245628,0.15181 0.142846,1.68384 0.5234833,2.06448 0.209016,0.20902 1.322465,0.51198 2.482861,0.67556 0.118708,0.0168 0.4298,-0.0841 0.691316,-0.22404 z m -46.2831873,0.60797 c 1.565127,-1.08432 4.03298,-3.46968 3.92308,-3.79194 -0.112493,-0.32987 -4.762034,-5.08184 -5.674849,-5.79986 -0.385463,-0.30321 -0.798129,-0.55128 -0.917035,-0.55128 -0.35601,0 -1.772595,2.22067 -2.385893,3.74019 -0.81933,2.02999 -1.015484,3.32671 -0.749988,4.95798 0.345345,2.12188 0.793035,2.48839 2.89284,2.36825 1.401016,-0.0802 1.942716,-0.25193 2.911845,-0.92334 z m 212.192061,0.007 c 0.8057,-0.91764 0.83778,-1.03804 0.69299,-2.60089 -0.2388,-2.57768 -1.32468,-5.09633 -2.94214,-6.82422 -0.56342,-0.60188 -0.77536,-0.68076 -1.20757,-0.44944 -0.89785,0.4805 -5.79993,5.58845 -5.79993,6.04349 0,0.56421 3.10497,3.5464 4.40835,4.23403 0.65968,0.34803 1.53917,0.53991 2.50955,0.5475 1.39306,0.0109 1.551,-0.0533 2.33875,-0.95048 z m -198.420472,-3.05174 c 1.918631,-1.53839 2.632577,-2.27584 2.632577,-2.71922 0,-0.16633 -0.518107,-1.14276 -1.151347,-2.16985 -0.633244,-1.02709 -1.317152,-2.242 -1.519799,-2.69981 -0.202644,-0.45781 -0.442428,-0.83238 -0.532849,-0.83238 -0.09042,0 -0.921504,-0.92273 -1.846848,-2.05052 -2.039799,-2.48606 -5.1178,-5.5155 -7.21235,-7.09857 -2.130896,-1.61054 -3.19219,-1.62056 -4.784998,-0.0452 -1.297262,1.28307 -3.060141,3.78014 -3.060141,4.33462 0,0.20495 0.556045,0.75714 1.235654,1.22708 3.813334,2.63689 7.847007,6.33707 11.242807,10.3133 1.46027,1.70987 2.798074,3.10885 2.972898,3.10885 0.174821,0 1.085799,-0.61574 2.024396,-1.36832 z m 182.712572,-0.15303 c 1.75698,-2.0786 1.4855,-1.78637 4.73146,-5.09335 1.60073,-1.63083 4.24987,-4.09085 5.88698,-5.46673 1.63711,-1.37587 2.97656,-2.64952 2.97656,-2.83032 0,-0.50947 -3.11,-4.05492 -4.08603,-4.65813 -0.47917,-0.29615 -1.11196,-0.53845 -1.4062,-0.53845 -0.69659,0 -3.42643,2.01312 -5.70792,4.20931 -2.55139,2.456 -8.6436,10.77113 -8.6436,11.79748 0,0.29895 4.43414,4.10154 4.78274,4.10154 0.099,0 0.75874,-0.68461 1.46601,-1.52135 z m -35.90625,-1.28894 c 1.30971,-0.78199 1.73505,-1.66586 1.8346,-3.81238 l 0.0924,-1.99247 -1.08342,-1.11638 c -0.97456,-1.00422 -1.20972,-1.11624 -2.34048,-1.11492 -2.09481,0.002 -3.09515,0.4129 -3.8737,1.58937 -0.38399,0.58024 -0.78577,1.05561 -0.89285,1.05636 -0.36113,0.003 -0.31584,2.08031 0.0691,3.17142 0.47277,1.33998 0.97134,1.85739 2.35776,2.44692 1.21871,0.51821 2.73809,0.42795 3.83656,-0.22792 z m 10.6075,-4.30026 c 0.80037,-0.18877 1.87193,-0.52477 2.38125,-0.74666 2.40769,-1.04892 3.1498,-1.3781 4.55785,-2.02171 0.83333,-0.38091 1.68117,-0.62886 1.88409,-0.55099 0.20292,0.0779 0.4401,-0.0439 0.52707,-0.27051 0.087,-0.22664 0.29192,-0.41208 0.45544,-0.41208 0.16351,0 0.60331,-0.24071 0.97732,-0.5349 l 0.68003,-0.53491 0.68273,0.60105 c 0.51671,0.4549 0.57515,0.47234 0.2403,0.0717 -0.47927,-0.57341 -0.22803,-1.45504 0.41465,-1.45504 0.63201,0 1.04338,-1.22189 0.86052,-2.55599 -0.22385,-1.63317 -0.50422,-1.90239 -1.42686,-1.3701 -0.39876,0.23004 -1.16872,0.561 -1.71104,0.73545 -0.54231,0.17446 -0.95903,0.45063 -0.92604,0.61373 0.033,0.16309 -0.17814,0.34525 -0.46918,0.4048 -0.29104,0.0596 -0.76729,0.32083 -1.05834,0.58062 -0.29104,0.25978 -0.82682,0.56083 -1.19062,0.66899 -0.3638,0.10816 -1.13771,0.44329 -1.71979,0.74474 -0.58209,0.30144 -1.216,0.51704 -1.40869,0.47911 -0.1927,-0.0379 -0.52012,0.0719 -0.72761,0.24411 -0.20748,0.1722 -0.37724,0.22484 -0.37724,0.11699 0,-0.10785 -0.42454,0.12772 -0.94342,0.52349 -0.51888,0.39577 -1.00785,0.65515 -1.0866,0.57641 -0.0788,-0.0787 -0.81053,0.15196 -1.62618,0.51268 -0.81566,0.36072 -1.93342,0.68101 -2.48391,0.71177 -0.5505,0.0307 -1.00152,0.14521 -1.00227,0.25435 -8e-4,0.10914 -0.29053,0.19843 -0.64393,0.19843 -1.16056,0 -1.44817,0.57166 -1.09039,2.16732 l 0.31493,1.40456 1.17203,0.13229 c 0.8566,0.0967 1.45686,-0.0129 2.23036,-0.4071 0.58208,-0.29667 1.71318,-0.69385 2.51354,-0.88262 z M -15.755325,210.19 c 0.445974,-0.88147 0.446204,-2.64349 2.65e-4,-2.64349 -0.187513,0 -0.807998,-0.23813 -1.37886,-0.52917 -0.570862,-0.29104 -1.301769,-0.52917 -1.62424,-0.52917 -0.322472,0 -0.803312,-0.26789 -1.068536,-0.59531 -0.322048,-0.39757 -0.833757,-0.62372 -1.540557,-0.68086 -1.134467,-0.0917 -2.078919,-0.72358 -1.803424,-1.20658 0.09266,-0.16245 0.08174,-0.2178 -0.02426,-0.123 -0.446112,0.39896 -4.176517,-1.40555 -6.018123,-2.91116 -0.512452,-0.41895 -0.910888,-0.55644 -1.22007,-0.42101 -0.252513,0.1106 -0.578175,0.17369 -0.723696,0.1402 -0.145521,-0.0335 -0.127521,0.0787 0.04,0.24935 0.207796,0.21166 0.228815,0.57443 0.06615,1.14163 -0.523311,1.82467 -0.38332,2.10047 1.613646,3.17907 1.24414,0.67199 1.852084,1.15781 1.852084,1.48003 0,0.5132 0.868068,0.88619 1.234458,0.53041 0.121412,-0.11789 0.688493,0.0149 1.260181,0.29519 0.571688,0.28025 1.178314,0.50954 1.348055,0.50954 0.169743,0 0.527926,0.24233 0.795959,0.5385 0.268034,0.29617 0.630005,0.48375 0.804381,0.41684 0.45072,-0.17296 1.436132,0.57973 1.436132,1.09696 0,0.30262 0.08413,0.35065 0.27677,0.15802 0.192638,-0.19264 0.77574,-0.13311 1.918229,0.19585 2.011423,0.57914 2.331897,0.5452 2.755392,-0.29184 z m -18.708723,-3.06242 c 0,-1.24115 -0.336947,-1.45931 -0.892826,-0.57806 -0.186161,0.29513 -0.173339,0.63705 0.04157,1.10873 0.476787,1.04643 0.851255,0.81299 0.851256,-0.53067 z m 170.817308,0.27986 c 0.41001,-0.62576 0.4078,-0.70145 -0.0349,-1.19063 -0.7144,-0.78941 -0.9199,-0.64013 -0.9199,0.66824 0,1.33972 0.30863,1.50858 0.95481,0.52239 z m -23.95997,-2.36892 c 1.22945,-0.36075 2.56653,-0.65841 2.97127,-0.66146 0.40476,-0.003 0.8032,-0.18091 0.88545,-0.39523 0.11894,-0.30997 1.08774,-0.65682 2.21511,-0.79306 0.0728,-0.009 0.31088,-0.13084 0.52916,-0.27122 0.43436,-0.27933 3.66132,-1.73124 5.5686,-2.50549 1.87711,-0.762 6.57669,-3.6931 7.02959,-4.38431 0.30899,-0.47159 0.40525,-1.35224 0.39704,-3.63255 -0.0131,-3.63098 -0.10449,-3.95505 -1.05042,-3.72378 -0.74266,0.18157 -1.14716,0.58802 -0.93188,0.93637 0.1602,0.2592 -2.57016,2.80903 -3.55157,3.31674 -0.39296,0.2033 -0.95261,0.57787 -1.24365,0.83237 -1.97176,1.72426 -5.85169,2.8525 -11.50937,3.3468 -3.77266,0.32961 -4.26077,0.6233 -4.61166,2.77471 -0.0835,0.51198 -0.38162,1.35964 -0.6625,1.8837 -0.28088,0.52405 -0.48214,1.29579 -0.44724,1.71497 0.0803,0.96498 0.68935,1.93806 1.11158,1.77603 0.17763,-0.0682 0.40156,0.003 0.49763,0.15869 0.23415,0.37888 0.24385,0.37759 2.80286,-0.37328 z m -148.571552,-0.901 c 0.478051,-0.41974 1.029551,-0.81673 1.225555,-0.8822 0.282837,-0.0945 0.341701,-0.98356 0.285289,-4.30891 -0.0695,-4.09706 -0.229573,-4.89365 -0.983342,-4.89365 -0.448852,0 -4.904412,2.49761 -5.582454,3.1293 -0.301154,0.28057 -0.787075,0.58615 -1.079818,0.67906 -0.389993,0.12378 -0.541617,0.41777 -0.567261,1.09989 -0.02917,0.77578 0.085,0.9835 0.684895,1.2462 0.395941,0.17339 1.077079,0.73255 1.513642,1.24259 1.731594,2.02302 3.127938,3.45087 3.374715,3.45087 0.142777,0 0.650727,-0.34341 1.128779,-0.76315 z m 22.144417,-0.56089 c 1.117835,-1.61651 3.277568,-2.81368 4.1214883,-2.28459 0.195221,0.12239 0.509903,0.0755 0.732306,-0.10905 0.256141,-0.21258 0.846106,-0.26964 1.719003,-0.16626 1.24949,0.14799 1.344555,0.11654 1.588664,-0.52552 0.335016,-0.88115 0.04494,-2.42014 -0.510476,-2.70826 -0.237728,-0.12332 -2.218169,-0.30307 -4.4009813,-0.39944 -2.499495,-0.11035 -4.654402,-0.35721 -5.820833,-0.66683 -1.018646,-0.27038 -2.594917,-0.63918 -3.502827,-0.81955 -0.907907,-0.18037 -1.785688,-0.49055 -1.950624,-0.68928 -0.164936,-0.19874 -0.42476,-0.36134 -0.577382,-0.36134 -0.152625,0 -0.505965,-0.20676 -0.785199,-0.45946 -0.279236,-0.25271 -0.705328,-0.46107 -0.946875,-0.46303 -0.304895,-0.002 -0.418012,-0.19626 -0.369958,-0.63381 0.0569,-0.51805 0.0021,-0.57465 -0.307174,-0.31788 -0.274608,0.2279 -0.425773,0.23247 -0.559001,0.0169 -0.100436,-0.1625 -0.345347,-0.23302 -0.54425,-0.15669 -0.447278,0.17164 -0.789856,-0.33215 -0.679794,-0.9997 0.06291,-0.38157 -0.02771,-0.45784 -0.382326,-0.32176 -0.268245,0.10293 -0.555926,0.0347 -0.680323,-0.16134 -0.167481,-0.26395 -0.216442,-0.25305 -0.219591,0.0489 -0.0021,0.21416 -0.727898,-0.32031 -1.616554,-1.19062 l -1.612503,-1.57922 0.197528,2.77812 c 0.10864,1.52797 0.213418,3.16305 0.232841,3.63351 0.03746,0.90735 0.153829,1.03067 2.551104,2.70329 2.79381,1.94928 12.384045,6.83857 13.472699,6.86863 0.07276,0.002 0.455727,-0.46406 0.851038,-1.03572 z m 152.938025,0.69115 c 0.25466,-0.19332 0.46519,-0.45742 0.46785,-0.5869 0.003,-0.12948 0.95516,-1.23924 2.11667,-2.46613 1.16151,-1.2269 2.11183,-2.36147 2.11183,-2.52128 0,-0.15981 -0.23175,-0.45759 -0.51499,-0.66175 -0.28325,-0.20415 -0.44345,-0.48696 -0.356,-0.62845 0.0875,-0.1415 0.05,-0.1899 -0.0832,-0.10756 -0.34913,0.21577 -1.19614,-0.4719 -1.10621,-0.89812 0.0455,-0.21553 -0.10919,-0.32941 -0.3847,-0.28323 -0.25341,0.0425 -0.90613,-0.22542 -1.45048,-0.59532 -0.54435,-0.36989 -1.11687,-0.67253 -1.27226,-0.67253 -0.1554,0 -0.42159,-0.13905 -0.59155,-0.309 -0.16995,-0.16995 -0.72632,-0.45247 -1.23638,-0.62782 -1.17591,-0.40426 -1.15862,-0.45695 -1.33156,4.05961 -0.14328,3.74209 0.13547,5.16133 1.08531,5.52582 0.25011,0.096 0.67221,0.39196 0.93799,0.65774 0.56793,0.56793 0.97281,0.59687 1.60771,0.11492 z M -2.0892017,202.9163 c -0.165933,-0.43242 -0.624848,-0.54577 -0.624848,-0.15434 0,0.20082 0.185431,0.33753 0.719302,0.53033 0.03181,0.0115 -0.01069,-0.15771 -0.09445,-0.37599 z M -26.7583,200.3322 c -0.261308,-0.25936 -0.291698,-0.22897 -0.148114,0.14811 0.09936,0.26094 0.247304,0.40779 0.328766,0.32632 0.08146,-0.0815 1.7e-4,-0.29495 -0.180652,-0.47443 z m -16.516291,-3.19648 c 0.408964,-0.6893 3.448801,-2.69833 5.83534,-3.8566 2.692622,-1.30681 2.829399,-1.5091 2.570044,-3.80104 -0.293093,-2.59005 -0.272013,-2.55369 -1.381609,-2.3833 -0.545248,0.0837 -1.119804,0.25244 -1.276798,0.37492 -0.394059,0.30742 -3.815601,1.58203 -3.815601,1.42141 0,-0.0715 -0.208359,0.0488 -0.46302,0.26738 -2.021232,1.73476 -2.669651,2.24843 -2.83826,2.24843 -0.106939,0 -0.423037,0.29062 -0.702439,0.64582 -0.2794,0.3552 -0.740926,0.71975 -1.025613,0.81011 -0.526809,0.1672 -1.446498,1.75819 -1.279911,2.21415 0.05035,0.1378 0.686848,0.73337 1.414452,1.3235 1.360236,1.10323 2.567384,1.40272 2.963415,0.73522 z m 189.441661,-0.24026 c 0.11637,-0.18276 0.65635,-0.66375 1.19994,-1.06887 0.7121,-0.5307 0.97372,-0.91328 0.93603,-1.36878 -0.0288,-0.34771 -0.16628,-0.61086 -0.30557,-0.58477 -0.13928,0.0261 -0.50096,-0.32602 -0.80373,-0.78246 -0.30278,-0.45644 -0.93745,-1.04073 -1.4104,-1.29843 -0.47294,-0.25771 -0.85989,-0.56084 -0.85989,-0.67364 0,-0.1128 -0.23204,-0.27874 -0.51564,-0.36875 -0.28359,-0.09 -0.58552,-0.38385 -0.67093,-0.65298 -0.0854,-0.26913 -0.44038,-0.56088 -0.78879,-0.64832 -0.34841,-0.0875 -0.80226,-0.32778 -1.00855,-0.53407 -0.54361,-0.54361 -4.17022,-1.7408 -5.27335,-1.7408 -1.1123,0 -1.25863,0.32854 -1.26413,2.83817 -0.004,1.76656 0.27845,2.15945 1.84847,2.57236 1.06505,0.28011 3.97588,1.81145 4.67518,2.45953 0.35406,0.32813 0.70197,0.59661 0.77312,0.59661 0.20523,0 1.81837,1.16953 1.91594,1.38906 0.14494,0.32613 1.32416,0.22444 1.5523,-0.13386 z M 21.510315,193.67805 c 1.14399,-0.46424 3.14257,-2.66318 5.55107,-6.10758 0.71229,-1.01865 1.36913,-1.91162 1.45963,-1.98438 0.0905,-0.0728 1.17452,-1.62057 2.40892,-3.43958 3.91231,-5.76515 4.44355,-6.4987 5.32543,-7.35345 l 0.86242,-0.83589 12.03252,-0.10478 c 9.43601,-0.0822 12.21459,-0.0308 12.87627,0.23796 0.54306,0.2206 1.20283,0.89214 1.85133,1.88435 0.55417,0.84788 1.07678,1.60113 1.16135,1.67389 0.0846,0.0728 1.0374,1.36012 2.11741,2.8608 1.08001,1.50068 2.41156,3.34614 2.95901,4.10104 0.54744,0.7549 1.20176,1.67019 1.45403,2.03399 0.88085,1.27026 4.50151,5.69348 5.15106,6.29286 0.42941,0.39623 1.37455,0.75151 2.74494,1.03181 1.88304,0.38516 3.43953,0.39733 15.71607,0.12294 18.755105,-0.4192 22.663775,-0.85673 26.972065,-3.01923 4.62894,-2.32345 8.53669,-7.24548 10.0277,-12.63046 1.00562,-3.63191 1.13237,-5.99811 1.23307,-23.01875 0.13672,-23.10759 -0.0846,-26.04706 -2.21375,-29.40269 -2.72021,-4.28715 -5.02563,-5.1478 -17.23366,-6.43361 -4.90261,-0.51636 -20.021495,-1.59677 -25.929175,-1.85291 -15.48781,-0.67151 -70.27935,-0.6842 -82.5499917,-0.0191 -0.945885,0.0513 -3.267604,0.16834 -5.15937504,0.26017 -1.89176996,0.0918 -4.03489496,0.2188 -4.76249896,0.28215 -0.727605,0.0634 -3.823229,0.29806 -6.8791673,0.52155 -3.055937,0.2235 -6.032499,0.45856 -6.614583,0.52236 -0.582083,0.0638 -1.713177,0.18973 -2.513541,0.27984 -1.927199,0.21698 -4.62597,0.87862 -6.021639,1.47627 -1.419341,0.60779 -3.589596,2.6109 -4.703519,4.34126 -2.509686,3.89853 -2.880256,8.19564 -2.69848,31.29144 0.132265,16.80509 0.248325,18.48956 1.541248,22.36978 1.752047,5.25809 5.176684,9.27644 10.079844,11.82735 2.562945,1.33339 5.985701,2.22524 10.145435,2.64353 4.4574853,0.44824 15.8245223,0.74969 24.862317,0.65934 6.386461,-0.0638 7.852871,-0.14973 8.746241,-0.51226 z m 62.78275,-3.90306 c -2.37915,-0.22395 -4.44144,-0.78883 -5.90359,-1.61703 -1.0776,-0.61039 -3.58061,-3.46383 -3.58061,-4.08191 0,-0.19012 0.83229,0.35315 1.84953,1.20726 1.14346,0.96009 2.48179,1.79409 3.50573,2.18463 l 1.6562,0.63169 11.24479,-0.0318 c 14.100235,-0.0399 20.575605,-0.60281 25.187505,-2.18954 4.35073,-1.49687 7.65906,-4.62268 9.27027,-8.75884 1.36348,-3.50021 1.39413,-4.02841 1.38184,-23.8125 -0.0125,-20.0823 0.0208,-19.60293 -1.57885,-22.75966 -1.09791,-2.16661 -3.53182,-3.89203 -6.68963,-4.74234 -2.54969,-0.68656 -11.09755,-1.60477 -18.44301,-1.98115 -1.01864,-0.0522 -3.399895,-0.22518 -5.291665,-0.38441 -14.4282,-1.21444 -38.0726,-1.73412 -62.32369,-1.36983 -10.39687,0.15618 -19.915425,0.35812 -21.152352,0.44875 -1.573649,0.11531 -2.169509,0.081 -1.984375,-0.11439 0.869558,-0.91754 57.939747,-1.40247 75.141667,-0.63849 15.652585,0.69518 27.520545,1.61267 33.337495,2.57728 5.33958,0.88544 8.75825,3.78542 9.88424,8.38456 0.74435,3.04033 1.14463,29.26856 0.56859,37.25619 -0.46064,6.38731 -1.79339,9.91137 -5.04155,13.33083 -3.02643,3.18605 -6.76789,4.75241 -13.31826,5.57567 -6.54993,0.82321 -22.848865,1.3436 -27.720275,0.88505 z m -88.6420277,-0.22793 c -9.0547613,-0.4306 -12.8986703,-1.07504 -16.4421313,-2.75656 -2.548713,-1.20947 -4.617251,-2.90386 -6.125615,-5.01764 -3.587046,-5.0268 -4.285665,-10.15375 -4.023084,-29.52427 0.174649,-12.88402 0.486981,-17.86857 1.266595,-20.21383 0.971938,-2.92383 2.673638,-4.94026 5.263316,-6.23678 1.501346,-0.75165 4.151323,-1.50084 4.4064,-1.24576 0.335547,0.33554 -0.311926,0.73582 -2.03858,1.26027 -1.011259,0.30717 -1.838653,0.65792 -1.838653,0.77946 0,0.12154 -0.251233,0.30072 -0.558292,0.39818 -1.28074,0.40649 -3.267303,2.8244 -4.013983,4.88555 -0.948468,2.61816 -1.015633,4.26324 -0.912792,22.35729 0.118015,20.76341 0.06012,20.15144 2.349254,24.83215 0.815097,1.66667 3.70885,5.19806 4.259487,5.19806 0.129003,0 0.613558,0.28071 1.076791,0.62381 1.17099,0.8673 4.36345,1.94324 7.192242,2.42397 3.460472,0.58808 11.9432863,0.97628 22.2249993,1.0171 8.7245937,0.0346 9.0531037,0.0173 10.8950637,-0.57552 1.04457,-0.33618 2.04142,-0.78256 2.21521,-0.99197 0.17379,-0.2094 0.42549,-0.38073 0.55933,-0.38073 0.25291,0 0.39153,-0.102 1.62371,-1.19473 1.12933,-1.00152 1.3882,-0.78436 0.46082,0.38655 -1.43843,1.81617 -2.63608,2.67101 -5.07283,3.62081 -0.99232,0.38679 -2.3758,0.45878 -9.7552617,0.50758 -4.729427,0.0313 -10.584825,-0.0376 -13.011996,-0.15299 z m 11.689079,-18.11618 c -0.363802,-0.20796 -1.052147,-0.38234 -1.529656,-0.38749 -0.500338,-0.005 -0.929519,-0.16917 -1.012915,-0.3865 -0.07959,-0.20742 -0.611167,-0.45593 -1.181272,-0.55225 -0.632532,-0.10686 -1.232284,-0.42395 -1.538706,-0.8135 -0.276182,-0.35111 -0.604078,-0.63911 -0.728654,-0.64001 -0.21,-0.002 -2.27010404,-1.9163 -3.335359,-3.10009 -0.254661,-0.283 -0.463021,-0.754 -0.463021,-1.04666 0,-0.29266 -0.227245,-0.73776 -0.504989,-0.98912 -0.277746,-0.25135 -0.623773,-0.77582 -0.76895,-1.16548 -0.740598,-1.9878 -0.640704,-1.57905 -1.04607,-4.28035 -0.375118,-2.49976 0.169233,-5.30546 1.517176,-7.81986 0.580774,-1.08335 0.991032,-1.96973 0.91168,-1.96973 -0.38227,0 2.00558996,-2.54291 3.342823,-3.55989 1.928616,-1.46673 2.232522,-1.62389 4.695139,-2.42814 3.128727,-1.02179 8.4575517,-0.86934 9.9853227,0.28566 0.28655,0.21664 0.76643,0.39766 1.06642,0.40229 0.29998,0.005 0.80101,0.24654 1.11341,0.53758 0.3124,0.29105 0.66227,0.52984 0.7775,0.53066 0.30678,0.002 3.2522,2.88633 3.2522,3.18455 0,0.13945 0.11907,0.25354 0.26459,0.25354 0.14552,0 0.26458,0.1786 0.26458,0.39688 0,0.21828 0.10659,0.39687 0.23686,0.39687 0.33439,0 1.61522,2.52424 1.61522,3.18327 0,0.30095 0.202,0.92822 0.44889,1.39393 0.33243,0.62708 0.45226,1.5332 0.46186,3.49259 0.0127,2.58142 -0.50789,5.68855 -0.953,5.68855 -0.12228,0 -0.22233,0.19214 -0.22233,0.42699 0,0.50273 -1.0711,2.48342 -1.34295,2.48342 -0.10295,0 -0.25942,0.28783 -0.34772,0.63963 -0.16999,0.67729 -3.81816,4.18341 -4.14361,3.98227 -0.10515,-0.065 -0.33831,0.0591 -0.51814,0.27581 -0.17982,0.21668 -0.65351,0.39396 -1.05263,0.39396 -0.39912,0 -1.00962,0.2187 -1.35666,0.486 -1.309426,1.00854 -6.5573137,1.4762 -7.9070387,0.70462 z m 5.7327237,-8.38319 c 0.634884,-0.70154 0.62125,-2.39088 -0.02506,-3.10505 -0.5061,-0.55923 -2.319842,-0.77263 -2.956081,-0.34781 -0.9025807,0.60267 -1.1453617,2.23918 -0.4743177,3.19722 0.7897257,1.12749 2.5486757,1.25762 3.4554547,0.25564 z m 6.489255,0.13306 c 0.60497,-0.54511 0.82387,-1.68814 0.49096,-2.56374 -0.50362,-1.32463 -2.64286,-1.69683 -3.87504,-0.67422 -0.46781,0.38825 -0.47315,2.33592 -0.008,2.94822 0.76967,1.01333 2.43159,1.15528 3.39217,0.28974 z m -3.06921,-7.00302 c 3.35348,-1.67201 4.26431,-6.3965 1.8105,-9.39105 -1.72856,-2.10947 -5.081327,-2.94244 -7.564521,-1.87934 -3.1052157,1.3294 -4.5785377,5.4 -3.0960217,8.55392 1.469586,3.12641 5.5288707,4.37239 8.8500427,2.71647 z m -16.95797674,-7.89789 c 0.08994,-0.14552 0.03743,-0.26458 -0.116676,-0.26458 -0.154109,0 -0.280199,0.11906 -0.280199,0.26458 0,0.14552 0.0525,0.26459 0.116676,0.26459 0.06417,0 0.190262,-0.11907 0.280199,-0.26459 z m 1.190625,-1.32291 c 0,-0.14552 -0.119062,-0.26459 -0.264583,-0.26459 -0.145521,0 -0.264583,0.11907 -0.264583,0.26459 0,0.14552 0.119062,0.26458 0.264583,0.26458 0.145521,0 0.264583,-0.11906 0.264583,-0.26458 z M 86.185945,171.63408 c -0.3638,-0.0669 -0.80405,-0.23867 -0.97833,-0.38174 -0.17428,-0.14307 -0.68054,-0.31744 -1.12502,-0.38749 -0.44448,-0.07 -1.13533,-0.29804 -1.53521,-0.50664 -0.39989,-0.2086 -0.81636,-0.38001 -0.9255,-0.3809 -0.2965,-0.002 -1.39925,-1.16169 -1.32292,-1.3907 0.0364,-0.10914 -0.0684,-0.19843 -0.2328,-0.19843 -0.42786,0 -3.96872,-3.69914 -3.80086,-3.97076 0.077,-0.1245 -0.0723,-0.38335 -0.33161,-0.5752 -0.54377,-0.40229 -1.12483,-1.60261 -1.12483,-2.32361 0,-0.27207 -0.12654,-0.53685 -0.28119,-0.5884 -0.37811,-0.12604 -0.68795,-4.67392 -0.46916,-6.88658 0.26014,-2.63087 2.15136,-6.32063 4.24926,-8.29028 1.70465,-1.60044 3.0149,-2.49804 3.64876,-2.4996 0.22043,-5.3e-4 0.81574,-0.22167 1.32291,-0.49138 0.79644,-0.42356 1.52145,-0.63288 3.43567,-0.99195 0.21828,-0.0409 0.77556,-0.14473 1.23839,-0.23063 1.17126,-0.2174 5.68364,0.38126 6.19077,0.82134 0.22974,0.19935 0.55878,0.36246 0.7312,0.36246 0.4331,0 1.45248,0.59199 1.70851,0.99219 0.11637,0.1819 0.4015,0.33073 0.63362,0.33073 0.23211,0 0.67268,0.23875 0.97904,0.53056 2.270415,2.16259 3.070555,3.06434 3.070555,3.46049 0,0.25124 0.41672,0.95558 0.92604,1.5652 0.50932,0.60962 0.93978,1.30549 0.95656,1.54639 0.0421,0.60449 0.10577,0.90196 0.29183,1.36403 0.33658,0.83588 0.74911,3.695 0.61768,4.281 -0.0757,0.33758 -0.1974,1.37341 -0.27042,2.30184 -0.073,0.92843 -0.26812,1.85116 -0.43358,2.05052 -0.16545,0.19936 -0.22719,0.36247 -0.13721,0.36247 0.28618,0 -0.80794,2.58934 -1.45797,3.45041 -1.34217,1.77793 -3.219065,3.67494 -3.477775,3.51505 -0.15039,-0.093 -0.19255,-0.0396 -0.0943,0.11931 0.20053,0.32446 -0.85539,1.16968 -1.19729,0.95837 -0.12181,-0.0753 -0.22147,-0.004 -0.22147,0.15894 0,0.1627 -0.10557,0.23057 -0.2346,0.15082 -0.12903,-0.0797 -0.38174,0.0323 -0.56156,0.24897 -0.17983,0.21668 -0.5709,0.39396 -0.86904,0.39396 -0.29815,0 -0.73006,0.16182 -0.9598,0.35959 -0.92388,0.79532 -5.44206,1.23228 -7.95833,0.76965 z m 5.4901,-8.71947 c 0.40418,-0.54799 0.43137,-2.0461 0.0501,-2.75858 -0.62879,-1.17491 -3.05511,-1.15265 -3.69011,0.0339 -0.36726,0.68623 -0.31247,2.15728 0.1006,2.70112 0.77981,1.02669 2.78973,1.0401 3.53945,0.0236 z m 6.39695,0.0139 c 1.4789,-1.88012 -0.36858,-4.28371 -2.67469,-3.47979 -0.9023,0.31454 -1.27486,0.92588 -1.27486,2.09196 0,1.27813 0.88072,2.08497 2.27587,2.08497 0.90055,0 1.23483,-0.13924 1.67368,-0.69714 z m -3.34383,-6.57019 c 4.17228,-1.97987 4.82566,-7.60555 1.21483,-10.45975 -4.26002,-3.36734 -10.30153,-0.61286 -10.28141,4.68756 0.0145,3.81908 3.01603,6.60908 6.78916,6.31073 0.75406,-0.0596 1.7789,-0.30197 2.27742,-0.53854 z m 46.886995,16.92478 c 4.78802,-0.47672 5.68048,-0.67545 7.02295,-1.56386 1.22803,-0.81267 1.96746,-2.16177 2.20561,-4.02421 0.37672,-2.94599 0.6668,-19.04355 0.45763,-25.39605 -0.21217,-6.44396 -0.24002,-6.68737 -0.93256,-8.15129 -0.5347,-1.13026 -1.01303,-1.6987 -1.90587,-2.26492 -1.31434,-0.83353 -1.94139,-1.00047 -7.44122,-1.98105 -4.54526,-0.81039 -4.94762,-0.82956 -4.71547,-0.22459 0.51145,1.33282 0.68432,7.65256 0.6753,24.68811 -0.006,10.40474 -0.007,19.007 -0.003,19.11614 0.009,0.26119 0.0323,0.26019 4.63693,-0.19828 z m 1.56145,-5.23749 c -0.30536,-0.15266 -0.81516,-0.65695 -1.13289,-1.12064 l -0.57768,-0.84307 0.0746,-15.07829 c 0.0812,-16.42963 -0.005,-15.55622 1.61715,-16.39502 1.97594,-1.0218 3.86178,-0.34085 4.88798,1.76498 0.50126,1.0286 0.58164,28.92116 0.0867,30.09402 -0.68436,1.62184 -3.2403,2.43569 -4.95585,1.57802 z m 2.62055,-2.24657 c 0.38144,-0.42149 0.42982,-1.94118 0.44847,-14.08906 0.0115,-7.48914 0.0161,-13.8845 0.0103,-14.21193 -0.0108,-0.60703 -0.85479,-1.65364 -1.3335,-1.65364 -0.14552,0 -0.50271,0.23812 -0.79375,0.52916 -0.51598,0.51599 -0.52917,0.88195 -0.52917,14.68797 0,10.81066 0.0776,14.28308 0.32823,14.68437 0.40793,0.65321 1.30331,0.67865 1.8694,0.0531 z m -183.095536,6.69016 c -0.03036,-0.43657 -0.101518,-6.92547 -0.158125,-14.41979 -0.121344,-16.06497 0.116522,-25.26977 0.720042,-27.86382 0.230629,-0.99129 0.419327,-1.85449 0.419327,-1.91822 0,-0.45853 -8.227416,1.09255 -10.697614,2.01677 -1.845566,0.69052 -3.398202,2.24573 -4.16365,4.17057 -0.592862,1.49084 -0.597368,1.60507 -0.607078,15.39261 -0.01016,14.42729 0.188754,18.12678 1.075065,19.99455 0.619184,1.30483 2.205226,2.39884 4.027728,2.77821 1.781252,0.37079 5.939137,0.72289 7.9843,0.67613 1.44617,-0.0331 1.454864,-0.0382 1.400005,-0.82701 z m -9.998963,-4.62691 c -1.692209,-1.11366 -1.719948,-1.29516 -1.718316,-11.24396 7.94e-4,-5.39304 0.111348,-9.39559 0.275628,-9.98711 0.591809,-2.13094 3.468398,-3.18108 5.193598,-1.896 1.527548,1.13785 1.642787,1.96038 1.65866,11.83899 0.01259,7.8374 -0.04079,9.07213 -0.427456,9.88697 -0.858705,1.80958 -3.31276,2.49974 -4.982114,1.40111 z m 2.633122,-1.94566 c 0.449271,-0.32852 0.495081,-1.01532 0.616982,-9.25002 0.118287,-7.99065 0.08691,-8.96347 -0.308541,-9.56701 -0.586264,-0.89475 -1.814528,-0.92657 -2.210607,-0.0573 -0.188034,0.41268 -0.236373,3.56356 -0.147148,9.59115 0.115126,7.77724 0.188971,9.02074 0.552709,9.30728 0.537112,0.42312 0.892794,0.41738 1.496605,-0.0241 z m -2.239914,-24.32784 c -1.582791,-0.83699 -2.175852,-1.72786 -2.321791,-3.48767 -0.105227,-1.26893 -0.02471,-1.61618 0.590135,-2.54528 1.111663,-1.67984 3.456408,-2.53594 4.800063,-1.75258 2.231421,1.30094 2.869406,2.41976 2.785379,4.88466 -0.05498,1.61287 -2.361093,3.49827 -4.287152,3.50501 -0.231772,7.9e-4 -0.936757,-0.27105 -1.566634,-0.60414 z m 4.225908,-3.98375 c 0.0061,-0.4141 -0.23514,-1.09871 -0.53609,-1.52135 -0.476338,-0.66896 -0.714801,-0.76845 -1.841778,-0.76845 -1.661472,0 -2.377318,0.67577 -2.365126,2.2327 0.01254,1.60159 0.5262,2.10338 2.316347,2.26285 1.460902,0.13013 1.526882,0.10799 1.963627,-0.65909 0.248562,-0.43656 0.456922,-1.13256 0.46302,-1.54666 z M 140.78793,124.66578 c 0.0877,-0.32742 0.16117,-1.03003 0.16316,-1.56136 0.003,-0.83678 -0.1286,-1.04406 -0.98438,-1.54898 -2.36071,-1.39285 -6.15099,0.28184 -5.09666,2.25189 0.2373,0.44338 0.71041,0.67538 1.81378,0.8894 0.82101,0.15925 1.73087,0.33757 2.02191,0.39627 1.38287,0.27887 1.92265,0.16812 2.08219,-0.42722 z m -174.42297,-2.51354 c 0.469937,-0.69122 1.008756,-1.35048 1.197375,-1.46502 0.353914,-0.21491 1.942367,-2.41279 1.942367,-2.68758 0,-0.30145 -1.728619,-1.20325 -2.30831,-1.20422 -0.744453,-10e-4 -1.19865,0.86523 -1.76049,3.35853 -0.78323,3.47577 -0.495771,4.09406 0.929058,1.99829 z m 173.16976,-8.00364 c 0.1649,-1.67349 0.43279,-3.89896 0.59531,-4.94548 0.47384,-3.05111 0.38205,-4.2634 -0.45708,-6.03714 -0.91816,-1.9408 -2.37259,-3.304882 -3.52377,-3.304882 -0.81341,0 -0.81728,0.007 -0.6402,1.114172 0.098,0.6128 0.51641,1.62484 0.92982,2.24897 0.93495,1.41153 1.16582,2.86695 0.83168,5.24312 -0.36794,2.61655 -0.65524,7.93345 -0.45665,8.45097 0.12669,0.33015 0.44072,0.41616 1.29418,0.35445 l 1.1269,-0.0815 z m -16.41079,2.30854 c 0.17098,-0.17098 -1.09225,-3.58657 -1.5877,-4.29292 -0.30621,-0.43656 -0.57182,-0.88305 -0.59024,-0.99219 -0.0184,-0.10914 -0.0575,-0.2282 -0.0868,-0.26458 -0.0293,-0.0364 -0.0941,-0.28072 -0.14398,-0.54297 -0.0499,-0.26225 -0.30555,-0.79803 -0.5682,-1.19063 -0.26264,-0.39259 -0.48062,-0.79923 -0.4844,-0.90366 -0.004,-0.10442 -0.18547,-0.4083 -0.40375,-0.67528 -0.38321,-0.4687 -1.43138,-2.37352 -1.47806,-2.68605 -0.0638,-0.42683 -0.53399,-1.26987 -0.97036,-1.73965 -0.26992,-0.29059 -0.87841,-1.30262 -1.35222,-2.24896 -0.4738,-0.946342 -1.07633,-2.048032 -1.33896,-2.448222 -0.26263,-0.400179 -0.42258,-0.727601 -0.35543,-0.727601 0.0671,0 -0.33589,-0.496062 -0.89562,-1.102357 -0.55973,-0.606295 -1.01769,-1.365623 -1.01769,-1.687396 0,-0.621779 -0.59249,-1.292056 -0.88424,-1.000313 -0.0957,0.09575 -0.17409,0.03016 -0.17409,-0.145753 0,-0.175917 -0.11822,-0.463651 -0.26271,-0.639411 -1.43469,-1.745194 -2.11854,-2.647304 -2.11854,-2.794693 0,-0.09686 -0.28117,-0.47934 -0.62483,-0.849955 -0.69589,-0.750491 -1.36684,-1.869165 -1.28884,-2.148893 0.028,-0.100272 -0.17878,-0.255191 -0.45942,-0.344263 -0.28064,-0.08907 -0.58041,-0.382984 -0.66616,-0.65314 -0.0857,-0.270155 -0.32995,-0.557985 -0.5427,-0.639619 -0.21274,-0.08164 -0.3868,-0.302123 -0.3868,-0.489966 0,-0.187844 -0.24972,-0.497486 -0.55493,-0.688094 -0.30521,-0.190609 -0.48814,-0.413351 -0.40651,-0.494985 0.0816,-0.08163 -0.3771,-0.749179 -1.01941,-1.483434 -0.64231,-0.734256 -1.10719,-1.433121 -1.03308,-1.553036 0.0741,-0.119914 -0.15149,-0.218024 -0.50132,-0.218024 -0.34984,0 -0.85157,-0.238125 -1.114965,-0.529167 -0.26339,-0.291041 -0.59179,-0.529166 -0.72979,-0.529166 -0.26785,0 -0.10736,1.94923 0.32678,3.968749 0.14077,0.654844 0.44799,2.559844 0.682715,4.233333 0.23473,1.67349 0.53355,3.340365 0.66406,3.704167 0.46317,1.291106 0.98295,7.150047 0.73301,8.262447 -0.13195,0.587292 -0.17584,1.131892 -0.0975,1.210202 0.0783,0.0783 -0.0416,0.42316 -0.2664,0.76631 -0.22484,0.34315 -0.34855,0.72139 -0.27492,0.84053 0.22007,0.35608 -1.352355,1.7027 -1.721685,1.47444 -0.20743,-0.1282 -0.54992,0.0721 -0.92271,0.53962 -0.51543,0.64641 -0.89842,0.78939 -2.93277,1.09494 -1.28697,0.19329 -3.47103,0.4299 -4.85348,0.52579 -1.38244,0.0959 -2.71676,0.27866 -2.96514,0.40615 -0.54695,0.28074 -0.49036,0.93837 0.38367,4.45874 l 0.62405,2.51354 2.89694,0.16917 c 5.19207,0.30319 8.4012,0.523 11.363615,0.77834 1.60073,0.13798 3.62479,0.29781 4.49791,0.35519 1.61469,0.10611 7.17305,0.5765 10.05417,0.85086 0.87313,0.0831 1.80516,0.26685 2.0712,0.40824 0.26603,0.14139 0.62322,0.20485 0.79375,0.14102 0.17053,-0.0638 0.54818,-0.0174 0.83922,0.10324 0.44725,0.18535 1.92879,0.11584 2.14527,-0.10064 z m -138.405688,-1.24618 c 5.003276,-0.44879 9.8903453,-0.77005 14.41979126,-0.94792 2.40109404,-0.0943 4.43333204,-0.21183 4.51608304,-0.2612 0.653563,-0.38988 56.0447387,-0.70073 75.4795887,-0.42359 3.0335,0.0433 5.57602,0.0181 5.65005,-0.0559 0.13448,-0.13449 -0.57196,-4.47356 -0.93188,-5.72372 -0.18687,-0.64908 -0.25224,-0.66425 -3.49224,-0.81026 -3.60062,-0.16226 -4.31573,-0.39671 -5.8226,-1.90898 -0.46727,-0.46895 -1.0091,-1.22407 -1.20406,-1.67804 -0.38088,-0.8869 -1.03289,-4.844232 -1.43333,-8.699601 -0.13604,-1.309687 -0.60417,-5.112279 -1.0403,-8.450204 -0.82975,-6.350555 -0.81744,-7.296178 0.1212,-9.314724 0.44172,-0.94991 1.96725,-2.374188 2.99781,-2.798855 0.38402,-0.15824 1.35306,-0.427533 2.15342,-0.598427 0.96851,-0.206793 1.48317,-0.455186 1.53879,-0.742672 0.17148,-0.886248 -3.72066,-9.651558 -4.50783,-10.151869 -1.14059,-0.72495 -6.60047,-2.312067 -9.84775,-2.862614 -8.34872,-1.415452 -14.50205,-1.383506 -24.11573,0.125206 -2.47499,0.388408 -8.23539,2.143194 -11.8392,3.606572 -3.96102,1.608423 -9.52148,4.563486 -12.09531,6.427954 -0.631651,0.457565 -1.310059,0.769922 -1.507576,0.694129 -0.197516,-0.07579 -0.292777,-0.03046 -0.21169,0.10074 0.08109,0.131202 -0.77593,0.89044 -1.904487,1.687198 -1.128553,0.796755 -2.4686357,1.813697 -2.9779587,2.259872 -0.509323,0.446175 -1.283229,1.110118 -1.719792,1.47543 -3.337245,2.792582 -5.883489,5.312262 -8.978645,8.884973 -3.555677,4.104285 -9.1453123,11.683989 -9.1453123,12.401303 0,0.164283 -0.10595,0.298696 -0.235445,0.298696 -0.129495,0 -0.496152,0.506016 -0.814792,1.124481 -0.804945,1.562362 -1.333717,2.497242 -2.290204,4.049152 -0.961729,1.5604 -5.803773,11.34246 -6.056088,12.23471 -0.165711,0.58598 -0.126878,0.60224 1.106668,0.46327 0.703122,-0.0792 2.58809,-0.2615 4.188819,-0.40508 z m -17.127065,-9.85976 -0.07085,-6.416152 h -1.183648 -1.183645 l 0.101824,3.439592 c 0.145048,4.89959 0.207413,6.79199 0.246719,7.4865 0.03984,0.70393 1.141606,1.90621 1.746843,1.90621 0.365662,0 0.405394,-0.74374 0.342757,-6.41615 z m 106.869258,-2.10013 c -0.0845,-0.21107 -0.14716,-0.14837 -0.15985,0.15985 -0.0115,0.27892 0.0511,0.43519 0.13896,0.34727 0.0879,-0.0879 0.0973,-0.31613 0.0209,-0.50712 z m 14.66773,-0.60753 c 3.58275,-0.35902 6.81157,-0.76586 7.17515,-0.90409 0.36358,-0.13824 0.9269,-0.58765 1.25182,-0.9987 0.6525,-0.825482 0.63859,-1.483142 -0.12222,-5.774448 -0.38971,-2.198171 -1.59928,-10.300977 -2.00733,-13.446944 -0.35661,-2.749344 -0.76461,-3.841147 -1.67924,-4.493583 -0.71822,-0.512323 -1.13898,-0.578225 -3.59165,-0.562554 -3.90891,0.02498 -11.57502,0.614442 -13.34656,1.02625 -3.04732,0.708371 -3.29404,1.495052 -2.53543,8.084124 0.30995,2.692135 0.61259,5.192447 0.67253,5.556249 0.06,0.363802 0.40789,2.781869 0.7732,5.373479 0.6761,4.796427 1.02603,5.827027 2.21367,6.519637 0.73995,0.43152 4.31109,0.3105 11.19606,-0.37942 z m -8.927,-2.35352 c -0.88302,-0.646512 -1.35224,-1.949232 -1.6772,-4.656486 -0.27141,-2.261108 -0.25712,-2.539865 0.14525,-2.834084 0.36905,-0.269859 0.43718,-0.739344 0.39379,-2.713559 l -0.0525,-2.387245 1.05492,-0.422098 c 0.78653,-0.314706 1.03063,-0.548256 0.95943,-0.917974 -0.13163,-0.683512 0.36354,-0.793316 4.08798,-0.906513 2.96472,-0.0901 3.21591,-0.05938 3.47521,0.425135 0.30465,0.569238 1.48365,0.5872 1.36818,0.02085 -0.0364,-0.178445 -0.0959,-0.473276 -0.13229,-0.655177 -0.0393,-0.196628 0.27425,-0.363731 0.77335,-0.412118 0.69636,-0.06751 0.85425,0.01918 0.92604,0.508442 0.12593,0.858221 0.74801,0.961478 0.74801,0.124161 0,-0.457062 0.14373,-0.683506 0.43385,-0.683506 0.89111,0 1.56411,1.711182 0.78985,2.008296 -0.39413,0.151236 -0.51244,1.431287 -0.1323,1.431287 0.12733,0 0.23151,-0.290628 0.23151,-0.645842 0,-0.355214 0.11929,-0.719566 0.26508,-0.809673 0.34354,-0.212317 0.7011,0.776584 0.76545,2.116974 0.0279,0.582083 0.0904,1.713177 0.13887,2.513541 0.0628,1.037778 -0.0298,1.589821 -0.32275,1.924481 -0.32066,0.366292 -0.46175,0.395325 -0.64295,0.132292 -0.16211,-0.235326 -0.20681,-0.17735 -0.14815,0.192186 0.0462,0.291041 0.23025,0.529166 0.409,0.529166 0.40387,0 1.38754,1.790549 1.38754,2.525723 0,0.935162 -0.73411,2.015889 -1.67149,2.460699 -0.87399,0.41474 -6.1502,1.099372 -10.76393,1.396712 -1.78435,0.115 -2.36482,0.0601 -2.80978,-0.26567 z m 7.83686,-2.430663 c 1.23693,-0.207801 2.72521,-0.380026 3.3073,-0.38272 0.58208,-0.0027 1.23378,-0.11585 1.44822,-0.251462 0.24947,-0.157763 0.45196,-0.146132 0.56224,0.0323 0.11918,0.192831 0.22818,0.188521 0.35333,-0.01397 0.0995,-0.161055 0.0549,-0.292828 -0.0992,-0.292828 -0.15411,0 -0.2802,-0.492521 -0.2802,-1.094491 0,-1.261102 -0.46043,-5.264988 -0.84209,-7.322872 -0.15131,-0.815833 -0.42765,-1.469954 -0.65841,-1.558502 -0.37704,-0.144685 -4.13379,0.164063 -9.08283,0.746474 -1.23693,0.145563 -2.3972,0.410149 -2.57837,0.58797 -0.66398,0.651674 0.5836,9.272741 1.43313,9.903272 0.54439,0.40405 2.6014,0.29119 6.4369,-0.353171 z m 5.47241,-8.631205 c -0.0845,-0.211066 -0.14716,-0.148373 -0.15985,0.159853 -0.0115,0.278913 0.0511,0.435184 0.13896,0.347266 0.0879,-0.08792 0.0973,-0.316125 0.0209,-0.507119 z m -8.11824,-3.020891 c 0,-0.05747 -0.68461,-0.09613 -1.52135,-0.0859 -0.87444,0.01069 -1.3211,0.09772 -1.05043,0.204674 0.46303,0.182954 2.57178,0.08557 2.57178,-0.118772 z m 54.764765,8.163729 c -0.005,-4.773747 -0.30219,-6.126967 -1.43801,-6.538277 -0.46977,-0.170111 -0.8514,-0.160565 -1.15165,0.02881 -0.46854,0.295515 -0.48732,0.643826 -0.36317,6.735973 l 0.0464,2.277026 1.25677,0.808812 c 0.69123,0.44485 1.34607,0.819174 1.45521,0.831824 0.10914,0.0127 0.19664,-1.852213 0.19445,-4.144166 z m -172.451645,0.639088 c 0.046,-0.315119 0.03928,-0.901531 -0.01495,-1.303139 -0.110511,-0.818592 -0.905592,-1.16118 -2.036278,-0.877396 -0.620845,0.155824 -0.669094,0.270733 -0.595312,1.417746 0.07735,1.202457 0.114215,1.253504 1.006334,1.39354 1.210731,0.190044 1.538796,0.06389 1.640197,-0.630751 z m -0.06934,-5.315387 c 0.195242,-0.235251 0.24605,-0.732258 0.135242,-1.322916 -0.170741,-0.91013 -0.220554,-0.946097 -1.310359,-0.946097 -0.788956,0 -1.181627,0.127053 -1.293471,0.418515 -0.214403,0.558723 -0.204611,1.830528 0.01579,2.050928 0.327351,0.327353 2.13754,0.179435 2.452799,-0.20043 z M 141.78446,84.585082 c 0.42253,-0.422529 0.41377,-2.570575 -0.0126,-3.084293 -0.28372,-0.341854 -0.9061,-0.425111 -3.17792,-0.425111 -1.84453,0 -2.93531,0.110202 -3.1426,0.3175 -0.34561,0.345602 -0.42905,2.540482 -0.11502,3.02533 0.10692,0.165066 0.43252,0.366163 0.72356,0.446879 0.92751,0.257233 5.40632,0.03793 5.72455,-0.280305 z m -174.550357,-0.23042 c 0.948624,-0.364019 0.262326,-2.749817 -0.791009,-2.749817 -0.954339,0 -1.913207,2.080741 -1.259919,2.734027 0.2204,0.2204 1.492205,0.230192 2.050928,0.01579 z M 145.16657,78.295257 c 1.31842,-0.774602 1.94474,-2.054257 1.978,-4.041328 0.0328,-1.957615 -0.2518,-2.268974 -1.82425,-1.995924 -1.13967,0.197898 -6.41064,0.175623 -11.1125,-0.04696 -1.66606,-0.07887 -3.07692,-0.02934 -3.29986,0.115853 -0.8087,0.526682 -0.35646,4.40695 0.62842,5.391827 1.00167,1.001675 2.40574,1.208921 7.83082,1.155866 4.37351,-0.04277 4.99112,-0.104468 5.79937,-0.579331 z M 88.897925,72.35774 c 0.46445,-0.0085 0.7276,-0.156848 0.7276,-0.410186 0,-0.218282 -0.1389,-0.396875 -0.30868,-0.396875 -0.16977,0 -0.2275,-0.08117 -0.1283,-0.18038 0.0992,-0.09921 -0.32743,-0.433679 -0.94809,-0.743262 -0.62066,-0.309587 -1.24165,-0.81362 -1.37998,-1.120079 -0.13832,-0.306457 -0.56149,-0.619191 -0.94037,-0.694968 -0.37887,-0.07577 -1.28278,-0.537451 -2.00868,-1.025948 -0.72591,-0.488498 -1.70021,-1.045737 -2.16512,-1.238309 -0.49753,-0.206081 -0.7748,-0.473569 -0.67395,-0.650157 0.0942,-0.165013 0.0725,-0.210307 -0.0484,-0.100656 -0.12085,0.109651 -0.50675,0.0113 -0.85754,-0.218543 -1.15517,-0.756896 -1.42607,-0.333063 -0.84457,1.321395 0.28275,0.804479 0.51409,1.637956 0.51409,1.852171 0,0.214217 0.29766,0.949301 0.66146,1.633516 0.3638,0.684218 0.66146,1.396389 0.66146,1.582602 0,0.186214 0.16165,0.500227 0.35923,0.697805 0.29932,0.29932 0.88403,0.304694 3.50573,0.03221 1.73057,-0.179864 3.47392,-0.333016 3.8741,-0.340339 z m 57.811465,-2.219439 c 0.41198,-0.257048 0.47282,-6.670659 0.0657,-6.922293 -0.38261,-0.236472 -15.44041,-0.267997 -15.82044,-0.03313 -0.22093,0.136546 -0.31866,1.209048 -0.31866,3.497146 0,3.171081 0.0233,3.310101 0.59531,3.5532 0.7039,0.299143 14.98693,0.211545 15.47813,-0.09493 z M 133.54637,55.955878 c 0,-1.883183 -0.10832,-3.490913 -0.24071,-3.572734 -0.13239,-0.08182 -0.43005,-0.07611 -0.66146,0.01269 -0.35311,0.1355 -0.42075,0.685499 -0.42075,3.421041 0,3.388155 -0.01,3.35681 1.12448,3.532276 0.10914,0.01688 0.19844,-1.510093 0.19844,-3.393276 z m 12.03854,-0.01562 c 0,-3.196799 -0.0193,-3.310035 -0.57678,-3.389411 -0.55429,-0.07892 -0.58009,0.01913 -0.66146,2.513541 -0.12025,3.686155 -0.0313,4.247317 0.66752,4.212003 0.55259,-0.02793 0.57072,-0.133876 0.57072,-3.336133 z"
       id="path2191" /></g></svg>
