<?xml version="1.0" encoding="UTF-8" standalone="no"?>
<!-- Created with Inkscape (http://www.inkscape.org/) -->

<svg
   width="182.56328mm"
   height="210.49094mm"
   viewBox="0 0 182.56325 210.49095"
   version="1.1"
   id="svg5"
   xml:space="preserve"
   xmlns="http://www.w3.org/2000/svg"
   xmlns:svg="http://www.w3.org/2000/svg"><defs
     id="defs2" /><g
     id="layer1"
     transform="translate(-17.863598,-44.613054)"><path
       style="fill:#000000;stroke-width:0.264583"
       d="m 86.085176,254.84435 c -2.15556,-0.0971 -4.10682,-0.24849 -4.33613,-0.33649 -0.22931,-0.088 -1.68036,-0.22541 -3.22455,-0.30537 -3.06939,-0.15894 -8.88917,-0.83862 -14.71387,-1.71842 -1.16416,-0.17584 -2.42584,-0.4743 -2.80373,-0.66324 -0.37788,-0.18894 -0.92568,-0.28112 -1.21733,-0.20485 -0.30187,0.0789 -0.71818,-0.0493 -0.96658,-0.29765 -0.23997,-0.23998 -0.43631,-0.32129 -0.43631,-0.1807 0,0.33267 -1.94329,-0.0946 -2.06295,-0.45355 -0.0483,-0.14504 -0.26033,-0.19755 -0.47106,-0.11669 -0.21073,0.0809 -0.53981,0.017 -0.73128,-0.14188 -0.19146,-0.15891 -0.63643,-0.33234 -0.98881,-0.3854 -0.41386,-0.0623 -0.67063,-0.29838 -0.72524,-0.66673 -0.0465,-0.31363 -0.18208,-0.57024 -0.30129,-0.57024 -0.1192,0 -0.29655,-0.42548 -0.39411,-0.94552 l -0.17738,-0.94551 -0.97655,0.73309 c -0.5371,0.4032 -1.06402,0.85845 -1.17093,1.01166 -0.10691,0.15321 -0.19621,0.17869 -0.19844,0.0566 -0.002,-0.12207 -0.3666,0.0831 -0.80972,0.45598 -0.44312,0.37286 -1.30632,0.82316 -1.91823,1.00067 -0.61191,0.17752 -1.38045,0.49204 -1.70787,0.69894 -0.32742,0.20691 -0.59531,0.30591 -0.59531,0.22002 0,-0.0859 -0.30464,-0.0404 -0.67699,0.10121 -0.7225,0.2747 -4.07397,0.37365 -5.09884,0.15054 -1.91428,-0.41673 -3.24752,-0.95619 -3.07061,-1.24245 0.0785,-0.12697 -0.0404,-0.16061 -0.26403,-0.0748 -0.23306,0.0894 -0.75597,-0.13781 -1.22467,-0.53219 -0.44988,-0.37855 -0.96666,-0.68827 -1.14841,-0.68827 -0.41747,0 -1.48103,-1.11598 -1.48103,-1.55402 0,-0.18111 -0.11128,-0.26052 -0.2473,-0.17646 -0.27889,0.17237 -2.3026,-2.15067 -2.2001,-2.52553 0.0364,-0.13305 -0.0559,-0.24191 -0.20498,-0.24191 -0.14913,0 -0.3894,-0.31104 -0.53394,-0.69121 -0.14454,-0.38017 -0.6911,-1.42196 -1.21459,-2.3151 -0.52348,-0.89315 -0.98068,-1.88687 -1.01598,-2.20829 -0.0353,-0.32142 -0.24165,-0.8572 -0.45854,-1.19063 -0.40221,-0.61832 -0.87498,-1.93214 -1.12263,-3.11977 -0.0759,-0.3638 -0.26227,-1.25677 -0.41425,-1.98437 -0.2978,-1.42578 -0.18107,-5.70653 0.17098,-6.27031 0.2195,-0.35149 0.37069,-0.87803 0.42176,-1.46875 0.0157,-0.1819 0.10389,-0.33073 0.19593,-0.33073 0.092,0 0.3198,-0.42163 0.50614,-0.93696 0.18635,-0.51533 0.56745,-1.07975 0.8469,-1.25427 0.27945,-0.17452 0.5081,-0.49703 0.50811,-0.71669 0,-0.42062 1.62567,-1.85458 2.10252,-1.85458 0.15329,0 0.27872,-0.10289 0.27872,-0.22864 0,-0.29716 2.03267,-1.01401 3.00019,-1.05806 0.41319,-0.0188 0.87523,-0.11083 1.02677,-0.20449 0.51825,-0.32029 4.0413,-0.28862 5.16731,0.0464 0.93086,0.277 1.12448,0.27343 1.12448,-0.0207 0,-0.19545 -0.11907,-0.42896 -0.26459,-0.51889 -0.14552,-0.0899 -0.26458,-0.3847 -0.26458,-0.65503 0,-0.27032 -0.10289,-0.53119 -0.22863,-0.5797 -0.2771,-0.10689 -2.4172,-5.89553 -2.4172,-6.53814 0,-0.25062 -0.11566,-0.57133 -0.25702,-0.71269 -0.14135,-0.14136 -0.29363,-0.49259 -0.33838,-0.78052 -0.0447,-0.28793 -0.17425,-0.67234 -0.28777,-0.85424 -0.11352,-0.1819 -0.12526,-0.33073 -0.0261,-0.33073 0.0992,0 0.0438,-0.16443 -0.12296,-0.36541 -0.25211,-0.30378 -0.84563,-2.18518 -1.2202,-3.86792 -0.0486,-0.21828 -0.11233,-0.42664 -0.14166,-0.46302 -0.0293,-0.0364 -0.0782,-0.15545 -0.10856,-0.26459 -0.0304,-0.10914 -0.19732,-0.54209 -0.37096,-0.96211 -0.17365,-0.42002 -0.34866,-0.9558 -0.38891,-1.19062 -0.11583,-0.67571 -1.01859,-3.31854 -1.20178,-3.51818 -0.0913,-0.0995 -0.64217,-0.23739 -1.22425,-0.30654 -0.58208,-0.0691 -1.42554,-0.2417 -1.87435,-0.38344 -1.37477,-0.4342 -4.40568,-2.14316 -4.80038,-2.70666 -0.20511,-0.29285 -0.48385,-0.46389 -0.61941,-0.38011 -0.13557,0.0838 -0.24649,-0.0333 -0.24649,-0.26016 0,-0.22687 -0.14342,-0.38272 -0.3187,-0.34634 -0.17529,0.0364 -0.32412,-0.11245 -0.33073,-0.33073 -0.007,-0.21828 -0.15084,-0.39688 -0.3205,-0.39688 -0.16966,0 -0.55299,-0.29765 -0.85185,-0.66145 -0.29885,-0.36381 -0.70452,-0.84006 -0.90149,-1.05834 -0.85685,-0.94959 -2.56248,-4.99138 -2.84717,-6.74687 -0.37376,-2.30472 -0.3938,-6.7093 -0.0322,-7.07093 0.14828,-0.14828 0.20657,-0.43382 0.12955,-0.63454 -0.19046,-0.49634 0.70445,-4.06849 1.01926,-4.06849 0.13843,0 0.1832,-0.11084 0.0995,-0.2463 -0.0837,-0.13547 -0.0293,-0.32229 0.12099,-0.41516 0.15027,-0.0929 0.20471,-0.27969 0.12099,-0.41516 -0.0837,-0.13546 -0.006,-0.2463 0.17207,-0.2463 0.17837,0 0.25002,-0.0743 0.15925,-0.16505 -0.21783,-0.21783 0.83035,-2.25714 1.37229,-2.66991 0.2334,-0.17776 0.31679,-0.32699 0.18533,-0.33162 -0.13146,-0.005 0.18298,-0.41827 0.69877,-0.91919 0.51579,-0.50093 0.88105,-0.96753 0.81168,-1.0369 -0.0694,-0.0694 0.1222,-0.25902 0.42571,-0.42145 0.3035,-0.16243 0.55182,-0.4182 0.55182,-0.56837 0,-0.2984 1.64588,-1.93136 2.55144,-2.53142 0.70413,-0.46658 0.85904,-1.48805 0.92297,-6.08613 0.0509,-3.65779 0.40762,-6.16926 0.87732,-6.17609 0.15317,-0.002 0.12337,-0.10243 -0.0662,-0.22268 -0.27937,-0.1772 -0.24001,-0.81572 0.20769,-3.36939 0.3038,-1.73291 0.6111,-3.50794 0.68288,-3.9445 0.0718,-0.43657 0.20313,-1.09141 0.2919,-1.45521 0.0888,-0.3638 0.19717,-0.89959 0.2409,-1.19063 0.37818,-2.51697 2.16094,-9.63076 2.52781,-10.08677 0.1315,-0.16346 0.15727,-0.51041 0.0573,-0.77101 -0.1346,-0.35076 -0.0908,-0.41757 0.16861,-0.25724 0.23773,0.14693 0.28741,0.11461 0.15447,-0.10048 -0.10777,-0.17438 -0.0663,-0.47326 0.0921,-0.66417 0.15845,-0.19092 0.33355,-0.69172 0.38913,-1.11289 0.0927,-0.70243 0.20987,-1.11713 0.62764,-2.22098 0.18613,-0.49178 0.18173,-0.47624 0.43031,-1.52135 0.11248,-0.47294 0.30121,-0.8599 0.4194,-0.8599 0.22371,0 0.51936,-0.94342 0.67934,-2.16773 0.0512,-0.39189 0.39229,-1.27454 0.75796,-1.96144 0.36566,-0.6869 0.60836,-1.3403 0.53933,-1.452 -0.069,-0.11171 -0.003,-0.27908 0.14769,-0.37195 0.15027,-0.0929 0.20472,-0.27969 0.12099,-0.41516 -0.0837,-0.13546 -0.0394,-0.2463 0.0985,-0.2463 0.13791,0 0.32668,-0.40476 0.41949,-0.89946 0.0928,-0.4947 0.34418,-1.04506 0.55861,-1.22302 0.21443,-0.17796 0.38987,-0.48758 0.38987,-0.68804 0,-0.20046 0.14883,-0.36448 0.33073,-0.36448 0.1819,0 0.35554,-0.29766 0.38585,-0.66146 0.10247,-1.22958 0.16471,-1.45521 0.40147,-1.45521 0.12986,0 0.16845,-0.10946 0.0858,-0.24325 -0.0827,-0.13379 0.0237,-0.41727 0.23637,-0.62996 0.21269,-0.21269 0.313,-0.46041 0.22292,-0.5505 -0.0901,-0.0901 -0.0179,-0.16379 0.1605,-0.16379 0.17837,0 0.25072,-0.11906 0.16078,-0.26458 -0.0899,-0.14552 -0.0304,-0.26458 0.13229,-0.26458 0.1627,0 0.22223,-0.11907 0.13229,-0.26459 -0.0899,-0.14552 -0.0176,-0.26458 0.16078,-0.26458 0.17836,0 0.25002,-0.0743 0.15924,-0.16505 -0.19257,-0.19257 0.68401,-1.99344 1.34312,-2.75932 0.24944,-0.28985 0.5236,-0.79224 0.60924,-1.11642 0.0856,-0.32418 0.28005,-0.5643 0.43202,-0.53361 0.15196,0.0307 0.34161,-0.26696 0.42143,-0.66146 0.0798,-0.39449 0.39607,-0.98516 0.70277,-1.31258 0.3067,-0.32742 0.49105,-0.59531 0.40966,-0.59531 -0.34497,0 0.9636,-2.105372 1.68678,-2.713892 0.43388,-0.365085 0.96244,-1.06467 1.17459,-1.554636 0.21214,-0.489966 0.72558,-1.257668 1.14096,-1.706004 0.41538,-0.448337 0.79456,-1.043649 0.84261,-1.322917 0.048,-0.279267 0.31897,-0.745884 0.60203,-1.036926 0.28307,-0.291041 0.93382,-1.094713 1.44611,-1.785937 0.51229,-0.691224 1.04505,-1.256771 1.18391,-1.256771 0.13885,0 0.25915,-0.148828 0.26733,-0.330729 0.008,-0.181901 0.71546,-0.919112 1.57175,-1.638247 0.85628,-0.719135 1.49246,-1.411758 1.41372,-1.539163 -0.0787,-0.127405 0.0987,-0.294894 0.39432,-0.3722 0.29562,-0.07731 0.60441,-0.314963 0.68621,-0.528127 0.0818,-0.213167 0.26863,-0.313468 0.41518,-0.222898 0.14655,0.09057 0.26645,0.03541 0.26645,-0.122571 0,-0.509765 3.49618,-4.233262 4.63021,-4.931262 0.43656,-0.268708 0.89036,-0.642747 1.00845,-0.831204 0.11808,-0.188455 0.32047,-0.277275 0.44974,-0.197376 0.12928,0.0799 0.35597,-0.08067 0.50376,-0.356823 0.14779,-0.276148 0.68955,-0.701789 1.2039,-0.945867 0.51435,-0.244075 0.93519,-0.557252 0.93519,-0.695946 0,-0.138692 0.16014,-0.252169 0.35587,-0.252169 0.19572,0 0.57203,-0.238856 0.83622,-0.530789 0.2642,-0.291933 0.53345,-0.477697 0.59834,-0.412808 0.0649,0.06489 0.36588,-0.112975 0.66887,-0.395253 0.30299,-0.282279 0.8261,-0.513234 1.16246,-0.513234 0.35444,0 0.61157,-0.159364 0.61157,-0.379044 0,-0.419069 0.90799,-0.826762 2.02847,-0.910799 0.24254,-0.01818 0.369,-0.105048 0.28103,-0.193014 -0.24683,-0.246838 3.62461,-2.105702 4.13976,-1.987693 0.12736,0.02917 0.45478,-0.148971 0.72761,-0.395877 0.27282,-0.246907 0.49605,-0.369337 0.49605,-0.272071 0,0.09727 0.41672,0.0027 0.92604,-0.210074 0.50932,-0.21281 0.92604,-0.335381 0.92604,-0.272381 0,0.063 0.47148,-0.131207 1.04774,-0.431569 0.59849,-0.311952 1.26722,-0.476452 1.55962,-0.383646 0.29663,0.09415 0.67848,-0.0041 0.90805,-0.233707 0.21789,-0.217892 0.64716,-0.347832 0.95392,-0.288755 0.30677,0.05908 0.55775,0.007 0.55775,-0.115621 0,-0.122671 0.34764,-0.198969 0.77252,-0.169553 0.42489,0.02942 1.04997,-0.06117 1.38907,-0.2013 0.33909,-0.140131 0.79513,-0.272391 1.01341,-0.29391 0.21829,-0.02151 0.93266,-0.140586 1.5875,-0.264591 1.97865,-0.374687 4.80972,-0.630039 5.12057,-0.461859 0.22841,0.123576 4.816364,0.06497 6.520304,-0.08328 0.50888,-0.04428 1.07442,0.04331 1.25677,0.194643 0.23384,0.19407 0.33153,0.183034 0.33153,-0.03745 0,-0.171929 0.11844,-0.2394 0.26319,-0.149937 0.23681,0.146362 2.6377,0.398828 4.16858,0.438349 0.32742,0.0084 0.59531,0.114998 0.59531,0.23677 0,0.121772 0.26063,0.171209 0.57917,0.109865 0.31854,-0.06135 0.91716,0.05708 1.33027,0.263166 0.41311,0.206086 0.98342,0.329964 1.26736,0.275283 0.28393,-0.05468 0.58209,0.0071 0.66257,0.137345 0.0805,0.130222 0.32111,0.169696 0.53473,0.08772 0.21362,-0.08197 0.3884,-0.02839 0.3884,0.119076 0,0.147466 0.23792,0.205904 0.5287,0.129863 0.29079,-0.07604 0.82657,0.05691 1.19063,0.295452 0.36406,0.238543 0.66192,0.357743 0.66192,0.26489 0,-0.09285 0.30728,0.03251 0.68284,0.278591 0.37555,0.246076 0.8373,0.388136 1.02609,0.315687 0.18879,-0.07244 0.44961,-0.02537 0.57959,0.104617 0.12999,0.129984 0.50739,0.277701 0.83868,0.32826 0.33129,0.05056 0.81536,0.274312 1.07571,0.497234 0.26035,0.22292 0.82019,0.48953 1.24409,0.592463 0.72339,0.175665 4.05326,1.714701 4.34259,2.007111 0.0728,0.07353 0.28613,0.165139 0.47416,0.20356 0.68637,0.140258 2.4514,1.411377 2.29998,1.656381 -0.0881,0.142589 0.0338,0.179335 0.28063,0.0846 0.30307,-0.1163 0.75192,0.187783 1.469,0.99522 0.56792,0.639477 1.18139,1.173887 1.36326,1.187577 0.85583,0.06441 1.83201,0.663903 1.68879,1.037121 -0.10786,0.281091 0.0316,0.393198 0.48912,0.393198 0.35201,0 0.76137,0.208359 0.9097,0.463021 0.14832,0.254661 0.2733,0.354306 0.27773,0.221432 0.004,-0.132876 0.60682,0.373139 1.33867,1.124479 0.73184,0.751337 1.44316,1.366068 1.5807,1.366068 0.13755,0 0.43479,0.357187 0.66055,0.79375 0.22575,0.436562 0.53144,0.793749 0.67931,0.793749 0.41535,0 1.21897,0.859558 1.42235,1.521355 0.10063,0.327421 0.3144,0.595312 0.47506,0.595312 0.27578,0 1.63986,1.342827 3.11182,3.063317 0.3638,0.425227 0.66146,0.951735 0.66146,1.170016 0,0.218281 0.1389,0.396875 0.30868,0.396875 0.46059,0 0.66052,0.281146 0.84647,1.19031 0.0923,0.451157 0.22729,0.794269 0.30005,0.762469 0.32294,-0.14115 1.31973,0.616463 1.15716,0.879501 -0.10906,0.176464 -0.0594,0.217297 0.12538,0.103095 0.18505,-0.114369 0.40331,0.06697 0.55232,0.458893 0.1355,0.356394 0.62386,1.077934 1.08525,1.603423 0.46138,0.525489 0.75382,0.955434 0.64987,0.955434 -0.10396,0 0.0921,0.234164 0.43561,0.520364 0.34354,0.2862 0.49564,0.524325 0.33799,0.529166 -0.15765,0.0048 -0.28663,0.182161 -0.28663,0.394039 0,0.211881 0.11244,0.315746 0.24987,0.230812 0.30738,-0.189979 2.0811,1.754378 1.88696,2.068502 -0.0768,0.124227 -0.006,0.225867 0.15622,0.225867 0.1627,0 0.23057,0.105571 0.15082,0.234603 -0.0797,0.129032 0.0323,0.381736 0.24897,0.561566 0.21668,0.17983 0.39396,0.49265 0.39396,0.69517 0,0.20251 0.36374,0.69395 0.8083,1.09208 0.44456,0.39813 0.83674,0.92022 0.87149,1.1602 0.0348,0.23998 0.21706,0.62172 0.40511,0.84831 0.18805,0.22659 0.26015,0.54427 0.16022,0.70596 -0.10491,0.16974 0.0532,0.3554 0.3741,0.43932 0.30568,0.0799 0.55578,0.30155 0.55578,0.49246 0,0.19091 0.17585,0.52296 0.39077,0.73788 0.21492,0.21493 0.41884,0.75921 0.45315,1.20953 0.0358,0.46982 0.21109,0.81875 0.41129,0.81875 0.1919,0 0.42578,0.20836 0.51974,0.46302 0.0939,0.25467 0.23905,0.52256 0.32242,0.59532 0.17869,0.15594 0.9741,1.60378 2.1416,3.89823 0.71173,1.39875 0.91043,1.61117 1.30804,1.39837 0.25786,-0.138 0.55031,-0.16943 0.6499,-0.0698 0.0996,0.0996 0.10982,-0.005 0.0228,-0.23151 -0.16144,-0.4207 0.54525,-1.22897 0.82763,-0.94659 0.16637,0.16637 1.41939,-1.20692 1.41939,-1.55563 0,-0.11478 0.68461,-0.8786 1.52135,-1.69738 0.83675,-0.81877 1.52136,-1.60063 1.52136,-1.73747 0,-0.3874 1.49596,-2.49777 1.77056,-2.49777 0.13478,0 0.17146,-0.11906 0.0815,-0.26458 -0.0899,-0.14552 -0.0374,-0.26458 0.11668,-0.26458 0.15411,0 0.28019,-0.23813 0.28019,-0.52917 0,-0.29104 0.10001,-0.52917 0.22224,-0.52917 0.12223,0 0.37941,-0.47625 0.57151,-1.05833 0.19211,-0.58208 0.43743,-1.05833 0.54517,-1.05833 0.32296,0 0.10452,-1.67962 -0.23308,-1.79215 -0.17165,-0.0572 -0.31209,-0.39177 -0.31209,-0.743442 0,-0.351676 -0.12609,-0.639411 -0.2802,-0.639411 -0.15411,0 -0.21555,-0.1046 -0.13654,-0.232447 0.079,-0.127844 -0.0433,-0.607316 -0.27192,-1.065493 -0.33415,-0.669819 -0.38164,-1.342683 -0.24235,-3.43405 l 0.17322,-2.601008 -1.80392,-0.177096 c -1.92362,-0.188846 -2.86225,-0.325165 -2.86225,-0.415687 0,-0.0307 -0.23813,-0.09343 -0.52917,-0.139401 -1.66927,-0.263673 -4.89479,-1.953585 -4.89479,-2.564474 0,-0.151183 -0.16973,-0.209743 -0.37718,-0.130138 -0.48854,0.187471 -3.59157,-2.822405 -3.59157,-3.483755 0,-0.169693 -0.0908,-0.308533 -0.20184,-0.308533 -0.42632,0 -1.79871,-3.054517 -2.15049,-4.78632 -0.43172,-2.125353 -0.0163,-7.071799 0.634,-7.549333 0.23036,-0.169158 0.33346,-0.48251 0.23941,-0.727604 -0.0993,-0.258738 -0.0307,-0.430493 0.17179,-0.430493 0.18535,0 0.26669,-0.0703 0.18077,-0.15622 -0.19853,-0.198536 0.87466,-2.231922 1.54464,-2.926636 0.27927,-0.289578 0.84777,-0.963808 1.26333,-1.498285 0.41556,-0.534477 0.86204,-0.905967 0.99219,-0.825534 0.13014,0.08043 0.23662,-0.02946 0.23662,-0.244203 0,-0.214743 0.14883,-0.450495 0.33073,-0.523893 0.25435,-0.102635 0.25075,-0.138277 -0.0156,-0.154339 -0.1905,-0.01149 -0.27277,-0.139952 -0.18283,-0.285473 0.0899,-0.14552 0.0531,-0.264583 -0.0818,-0.264583 -0.13493,0 -0.44591,-0.714833 -0.69105,-1.588516 -0.34653,-1.235035 -0.40894,-2.161466 -0.28046,-4.163308 0.0973,-1.515854 0.29346,-2.656332 0.477,-2.773058 0.17145,-0.109046 0.20399,-0.200089 0.0723,-0.202317 -0.13169,-0.0021 -0.0307,-0.234672 0.22436,-0.516546 0.25509,-0.281871 0.39423,-0.625065 0.30919,-0.762651 -0.085,-0.137586 0.0819,-0.550822 0.37096,-0.9183 0.28906,-0.367479 0.52556,-0.750704 0.52556,-0.851614 0,-0.430781 2.50476,-2.74923 3.14055,-2.90695 0.38275,-0.09495 0.93403,-0.394722 1.22508,-0.666166 0.29104,-0.271444 0.58869,-0.492371 0.66145,-0.490952 0.0728,0.0013 0.48948,-0.134644 0.92605,-0.302364 1.19846,-0.460425 3.46461,-0.575381 4.71076,-0.238966 0.61054,0.164825 1.40504,0.353499 1.76557,0.419283 0.36052,0.06578 0.70375,0.167857 0.76273,0.226832 0.059,0.05898 0.33819,-0.186386 0.62047,-0.545253 0.28229,-0.358868 0.6832,-0.652486 0.89092,-0.652486 0.20772,0 0.37767,-0.178594 0.37767,-0.396875 0,-0.218282 0.17859,-0.396875 0.39687,-0.396875 0.57215,0 0.70808,-0.06847 1.38927,-0.699773 0.6973,-0.646239 2.01106,-0.970865 5.29146,-1.30751 0.76399,-0.0784 1.38907,-0.04136 1.38907,0.08231 0,0.199374 0.41339,0.306882 1.5303,0.397965 0.18682,0.01524 0.62389,0.291108 0.97128,0.613053 0.35801,0.331793 0.73128,0.485669 0.86172,0.355229 0.37617,-0.376168 1.46339,0.549262 1.31444,1.118839 -0.0717,0.274021 -0.0224,0.513101 0.10953,0.531291 0.13189,0.01818 0.32911,0.04879 0.43825,0.06799 0.10914,0.01921 0.57753,0.374198 1.04088,0.788863 0.86403,0.773256 1.71343,2.435765 1.84149,3.604302 0.0396,0.361776 0.19612,0.699119 0.34772,0.749652 0.1516,0.05053 0.27564,0.236953 0.27564,0.414269 0,0.188156 0.39261,0.333518 0.94294,0.349118 1.03544,0.02935 2.00968,0.726895 1.90313,1.362622 -0.0473,0.28208 0.15997,0.409991 0.68113,0.420381 0.77111,0.01537 1.47109,0.85526 1.4905,1.788422 0.0137,0.659182 0.58215,1.802664 0.82233,1.654225 0.11353,-0.07016 0.29181,0.555955 0.39619,1.391372 0.1382,1.106149 0.0612,2.035286 -0.28335,3.418935 -0.47118,1.892131 -0.47078,1.902984 0.0943,2.621357 0.31208,0.396748 0.56742,0.844756 0.56742,0.995574 0,0.150818 0.15381,0.462182 0.34181,0.691922 0.82915,1.01327 1.32532,3.381825 1.17919,5.629111 -0.22542,3.466618 -0.95203,5.06137 -3.57152,7.838741 -1.06507,1.129258 -1.42144,1.898814 -0.87932,1.898814 0.37597,0 1.76145,2.581286 2.38602,4.445386 0.80337,2.397755 0.81357,6.190758 0.0229,8.519197 -1.11039,3.270051 -3.44288,6.397886 -6.13759,8.230446 -1.12986,0.76836 -1.57823,1.26514 -1.82038,2.01691 -0.17671,0.54859 -0.66297,1.73661 -1.08059,2.64005 -0.41761,0.90343 -0.7593,1.74282 -0.7593,1.86531 0,0.12248 -0.14167,0.36437 -0.31482,0.53752 -0.17315,0.17315 -0.34058,0.49033 -0.37206,0.70483 -0.0315,0.21451 -0.27677,0.72224 -0.54508,1.1283 -0.95811,1.45 -1.1607,1.80391 -1.44347,2.52163 -0.15759,0.40001 -0.39695,0.65905 -0.5319,0.57565 -0.13495,-0.0834 -0.21883,-0.0535 -0.18639,0.0665 0.10131,0.37471 -0.33385,1.40873 -0.59287,1.40873 -0.13571,0 -0.24675,0.16121 -0.24675,0.35824 0,0.19703 -0.29766,0.67942 -0.66146,1.07196 -0.3638,0.39255 -0.66146,0.7868 -0.66146,0.87611 0,0.48243 -2.81494,3.77911 -3.22687,3.77911 -0.26251,0 -0.45282,0.0893 -0.4229,0.19843 0.24842,0.90618 -5.51681,6.91697 -8.81252,9.18788 -0.56718,0.39082 -0.73578,0.67857 -0.62383,1.06473 0.0844,0.29104 0.19243,0.87108 0.24013,1.28898 0.0477,0.4179 0.20587,0.83462 0.35149,0.92604 0.31987,0.20083 0.85918,2.05606 0.65658,2.25866 -0.0791,0.079 -0.0272,0.29544 0.11513,0.48086 0.5844,0.76104 2.50816,8.39542 2.56156,10.16545 0.0182,0.6034 0.11073,1.05007 0.20561,0.9926 0.15734,-0.0953 0.49487,2.03503 0.6331,3.99574 0.0308,0.43656 0.12281,0.97234 0.20453,1.19062 0.25068,0.66963 0.62882,6.59271 0.60238,9.43551 -0.0138,1.47875 0.0589,2.66937 0.1614,2.64583 0.10253,-0.0235 0.403,0.37599 0.6677,0.88784 0.87347,1.68897 0.65479,4.04138 -1.14324,12.29853 -0.50701,2.32833 -1.28398,5.90021 -1.72662,7.9375 -0.44263,2.03729 -0.91085,4.06135 -1.04049,4.49792 -0.12964,0.43656 -0.42304,1.8147 -0.65199,3.06254 -0.22895,1.24783 -0.59586,2.91471 -0.81535,3.70416 -0.21949,0.78946 -0.46047,1.79257 -0.53549,2.22913 -0.075,0.43656 -0.31616,1.56766 -0.53585,2.51354 -0.21969,0.94589 -0.45531,2.01745 -0.5236,2.38125 -0.25644,1.36621 -0.68896,2.78895 -0.94159,3.09727 -0.14382,0.17552 -0.19683,0.42377 -0.11779,0.55165 0.079,0.12788 0.0328,0.63912 -0.10272,1.13607 -0.13553,0.49695 -0.6199,2.30138 -1.07638,4.00984 -0.51438,1.92515 -0.93493,3.04141 -1.10601,2.93568 -0.15426,-0.0953 -0.19774,-0.0439 -0.0986,0.11658 0.0976,0.15795 0.0565,0.36197 -0.0914,0.45337 -0.3789,0.23417 -0.33494,0.627 0.0636,0.5685 0.18289,-0.0268 0.61901,-0.24947 0.96916,-0.49472 0.35015,-0.24526 0.7363,-0.38433 0.85811,-0.30905 0.1218,0.0753 0.22146,0.0169 0.22146,-0.12986 0,-0.51089 1.79077,-1.62739 3.65464,-2.27859 2.31602,-0.80917 6.70734,-0.97669 8.08451,-0.30842 1.48977,0.72291 2.75503,1.23501 3.05136,1.23501 0.15991,0 0.29074,0.11104 0.29074,0.24676 0,0.13571 0.23205,0.3204 0.51566,0.41042 0.312,0.099 0.45757,0.31506 0.36857,0.54699 -0.0809,0.21084 -0.021,0.38333 0.13306,0.38333 0.41487,0 2.16948,1.88357 2.00402,2.1513 -0.0782,0.12648 -0.0305,0.22995 0.10597,0.22995 0.34036,0 0.83047,1.26031 0.92603,2.38125 0.0434,0.50933 0.23695,1.21638 0.43007,1.57123 0.42723,0.78504 0.24772,7.22171 -0.21702,7.78169 -0.16116,0.19419 -0.22733,0.41875 -0.14704,0.49904 0.19351,0.19351 -1.06508,3.9176 -1.79643,5.31554 -0.31778,0.60741 -0.55751,1.18226 -0.53275,1.27744 0.0248,0.0952 -0.12976,0.31812 -0.34339,0.49542 -0.21363,0.17729 -0.38842,0.48637 -0.38842,0.68683 0,0.20046 -0.12609,0.36448 -0.2802,0.36448 -0.15411,0 -0.20609,0.1199 -0.11552,0.26645 0.0906,0.14655 -0.0208,0.33762 -0.24744,0.4246 -0.22668,0.087 -0.36194,0.23937 -0.30058,0.33863 0.0614,0.0993 -0.35606,0.70231 -0.92756,1.34009 -0.57152,0.63778 -1.04377,1.0501 -1.04947,0.91627 -0.006,-0.13383 -0.17452,0.13406 -0.37517,0.59532 -0.23155,0.5323 -0.5902,0.87286 -0.98183,0.93232 -0.33936,0.0515 -0.58725,0.23968 -0.55087,0.41812 0.0364,0.17845 -0.10395,0.32445 -0.31183,0.32445 -0.20789,0 -0.53531,0.15549 -0.72761,0.34553 -0.34736,0.3433 -1.12946,0.71236 -1.4473,0.68297 -0.0913,-0.008 -0.23892,0.0865 -0.32795,0.21106 -0.58315,0.81568 -5.81765,1.57228 -6.23261,0.90086 -0.14049,-0.22731 -0.28943,-0.2349 -0.53937,-0.0275 -0.25305,0.21001 -0.44921,0.18265 -0.73429,-0.10243 -0.25458,-0.25458 -0.47878,-0.29922 -0.64882,-0.12918 -0.26356,0.26356 -3.78859,-1.13855 -5.47525,-2.17783 -0.45047,-0.27757 -1.02739,-0.57642 -1.28206,-0.66412 -0.25466,-0.0877 -0.46302,-0.26462 -0.46302,-0.39317 0,-0.12854 -0.15213,-0.23372 -0.33807,-0.23372 -0.18594,0 -0.54196,-0.23813 -0.79116,-0.52917 -0.80654,-0.94197 -1.64422,-0.54052 -1.72759,0.82792 -0.0593,0.97428 -0.51509,2.0825 -0.85641,2.0825 -0.15771,0 -0.21629,0.11399 -0.13019,0.25331 0.23438,0.37924 -1.28959,1.06961 -2.36114,1.06961 -0.51655,0 -0.93919,0.10919 -0.93919,0.24266 0,0.24686 -2.63386,0.91583 -2.83072,0.71897 -0.0592,-0.0592 -0.65138,0.056 -1.31591,0.25595 -1.22766,0.36947 -3.22738,0.71721 -4.18774,0.72821 -0.29104,0.003 -0.58979,0.0931 -0.66388,0.19942 -0.0741,0.10635 -1.08613,0.31591 -2.24896,0.4657 -1.16284,0.14979 -2.70956,0.34856 -3.43716,0.44171 -0.7276,0.0932 -1.56104,0.20548 -1.85208,0.2496 -1.50336,0.22791 -5.54409,0.6586 -7.40834,0.78964 -1.16416,0.0818 -2.59291,0.19887 -3.175,0.26008 -5.96613,0.62741 -30.079344,0.84447 -40.696284,0.36635 z m 28.050164,-4.2871 c 0.0891,-0.0891 0.29204,-0.0551 0.45095,0.0755 0.16727,0.13749 1.2359,0.145 2.53788,0.0178 1.23693,-0.12081 4.0349,-0.28472 6.21771,-0.36425 2.18281,-0.0795 3.96875,-0.15992 3.96875,-0.17866 0,-0.12473 5.0114,-0.60645 6.15156,-0.59133 0.47295,0.006 0.8599,-0.0664 0.8599,-0.16144 0,-0.0951 0.74414,-0.14931 1.65364,-0.12054 0.90951,0.0288 1.77271,-0.0403 1.91823,-0.15353 0.14552,-0.1132 1.09802,-0.27798 2.11667,-0.36616 1.89431,-0.16399 2.20253,-0.21355 4.49792,-0.72322 0.7276,-0.16156 1.73963,-0.32984 2.24895,-0.37395 0.50933,-0.0441 0.92605,-0.0999 0.92605,-0.12391 0,-0.0241 0.53578,-0.0979 1.19062,-0.16401 0.65485,-0.0662 1.78594,-0.32577 2.51354,-0.57689 0.72761,-0.25113 1.48892,-0.45865 1.69181,-0.46118 0.20289,-0.003 0.46323,-0.18257 0.57853,-0.40011 0.60397,-1.13947 1.0408,-2.26364 1.19126,-3.06568 0.0926,-0.4934 0.25711,-0.8422 0.36565,-0.77512 0.10854,0.0671 0.14101,-0.17277 0.0721,-0.533 -0.0689,-0.36024 0.0139,-0.82256 0.18387,-1.02739 0.16999,-0.20483 0.368,-0.71017 0.44001,-1.12296 0.072,-0.4128 0.19638,-1.0482 0.27639,-1.412 0.08,-0.3638 0.20719,-0.98888 0.28262,-1.38906 0.0754,-0.40018 0.22748,-0.72761 0.33788,-0.72761 0.11041,0 0.29244,-0.50601 0.40453,-1.12448 0.26151,-1.44305 0.29968,-1.62582 0.37296,-1.78593 0.0826,-0.18052 0.30625,-1.10276 0.38496,-1.5875 0.0355,-0.21828 0.20554,-0.65614 0.37799,-0.97302 0.17245,-0.31688 0.23708,-0.77538 0.14364,-1.01889 -0.0946,-0.24659 -0.0174,-0.53697 0.17422,-0.65543 0.18926,-0.11697 0.33307,-0.6014 0.31956,-1.07652 -0.0135,-0.47511 0.14189,-1.18573 0.34534,-1.57915 0.20345,-0.39343 0.31835,-0.76688 0.25533,-0.82989 -0.063,-0.063 0.0234,-0.58412 0.19192,-1.15802 0.16857,-0.5739 0.32905,-1.13275 0.35663,-1.24189 0.0276,-0.10915 0.0799,-0.25797 0.11629,-0.33073 0.0364,-0.0728 0.0959,-0.25136 0.1323,-0.39688 0.0364,-0.14552 0.0907,-0.29435 0.12071,-0.33073 0.03,-0.0364 0.0973,-0.3638 0.14955,-0.7276 0.25643,-1.78578 0.70607,-3.83377 1.08982,-4.96385 0.23418,-0.68962 0.45246,-1.37292 0.48507,-1.51844 0.0326,-0.14552 0.13681,-0.47295 0.23155,-0.72761 0.42679,-1.1472 0.50345,-1.44136 0.58758,-2.25457 0.0493,-0.47603 0.18096,-1.01181 0.29269,-1.19063 0.24523,-0.39246 0.33025,-0.77552 0.4969,-2.23866 0.0702,-0.61589 0.25541,-1.44933 0.41169,-1.85208 0.15628,-0.40276 0.33277,-1.02994 0.39219,-1.39374 0.35489,-2.17274 0.44621,-2.5455 0.69842,-2.85067 0.15323,-0.18542 0.21224,-0.40349 0.13113,-0.4846 -0.0811,-0.0811 0.0248,-0.55973 0.2353,-1.06359 0.21052,-0.50385 0.31751,-1.0217 0.23775,-1.15076 -0.0798,-0.12906 -0.0221,-0.31064 0.12819,-0.40351 0.15026,-0.0929 0.20428,-0.28039 0.12004,-0.4167 -0.0843,-0.13631 -0.0269,-0.6341 0.12747,-1.1062 0.15437,-0.47209 0.58288,-2.2871 0.95227,-4.03335 0.36939,-1.74625 0.781,-3.47266 0.9147,-3.83646 0.13369,-0.3638 0.30794,-1.04841 0.38722,-1.52135 0.0793,-0.47294 0.21334,-1.24685 0.29794,-1.71979 0.16162,-0.90363 2.39215,-10.7965 2.63973,-11.70781 0.0791,-0.29105 0.20687,-0.87231 0.284,-1.29171 0.12713,-0.69121 0.0826,-0.74825 -0.47646,-0.60974 -2.68939,0.66635 -5.75716,1.24963 -6.30525,1.19882 -0.3638,-0.0337 -0.89958,0.0672 -1.19062,0.2242 -0.68626,0.37027 -4.33313,0.84581 -7.97083,1.03935 -1.5824,0.0842 -2.99077,0.22288 -3.1297,0.30819 -0.26831,0.16476 -0.50128,0.19269 -3.53015,0.42328 -1.06188,0.0808 -2.01902,0.20157 -2.12698,0.2683 -0.18812,0.11626 -4.00632,0.48002 -8.77463,0.83595 -1.23693,0.0923 -2.31444,0.20824 -2.39448,0.25758 -0.08,0.0494 -1.62785,0.099 -3.43958,0.11025 -1.81174,0.0113 -3.70055,0.024 -4.19737,0.0283 -0.49681,0.004 -0.98913,0.0608 -1.09404,0.12564 -0.1049,0.0648 -2.19873,0.18796 -4.65294,0.27361 -2.45422,0.0856 -5.17659,0.20284 -6.04972,0.26041 -5.10742,0.33679 -12.84418,0.43894 -13.16366,0.17379 -0.21273,-0.17654 -0.49509,-0.19766 -0.72696,-0.0544 -0.50468,0.31191 -1.07221,-0.17593 -0.86895,-0.74695 0.0869,-0.24402 -0.0958,-0.13102 -0.40599,0.25111 -0.62325,0.76789 -0.33806,0.75547 -9.374544,0.40824 -1.97643,-0.0759 -3.10885,-0.023 -3.10885,0.14521 0,0.17433 -2.28022,0.20232 -6.68073,0.082 -3.6744,-0.10045 -6.88909,-0.18036 -7.14375,-0.17758 -0.25466,0.003 -0.46294,-0.0768 -0.46286,-0.17694 1e-4,-0.1001 -0.74404,-0.18424 -1.65364,-0.18698 -0.9096,-0.003 -4.19736,-0.0894 -7.30613,-0.19249 -4.77326,-0.15833 -5.73911,-0.12669 -6.21043,0.20343 -0.30697,0.21501 -0.48458,0.39092 -0.3947,0.39092 0.0899,0 -0.0674,0.74414 -0.34961,1.65365 -0.57246,1.84522 -2.54537,6.01927 -2.84507,6.01927 -0.10622,0 -0.44458,0.44648 -0.75189,0.99219 -0.30731,0.5457 -0.92455,1.34188 -1.37164,1.76929 -0.44708,0.42741 -0.81471,0.96319 -0.81693,1.19062 -0.004,0.36359 -0.035,0.3656 -0.26054,0.0166 -0.22296,-0.34501 -0.25701,-0.3404 -0.26053,0.0353 -0.002,0.23769 -0.25416,0.49757 -0.55984,0.57751 -0.30852,0.0807 -0.47763,0.27181 -0.3801,0.4296 0.0966,0.15634 -0.0402,0.36403 -0.30411,0.46153 -0.26389,0.0975 -0.55004,0.28121 -0.63589,0.40826 -0.0858,0.12704 -0.40544,0.24977 -0.71019,0.27273 -0.30475,0.023 -0.67304,0.30279 -0.81841,0.62185 -0.15016,0.32957 -0.70047,0.71837 -1.27419,0.90024 -0.55542,0.17608 -1.12936,0.45583 -1.2754,0.62167 -0.26772,0.30401 -0.77871,0.49233 -1.38811,0.51158 -0.1819,0.006 -0.33073,0.10966 -0.33073,0.23093 0,0.12126 -0.14883,0.22122 -0.33073,0.22211 -0.1819,8e-4 -0.65758,0.17214 -1.05706,0.38053 -0.39949,0.20839 -0.93527,0.37467 -1.19063,0.36951 -0.64953,-0.0131 -4.16624,0.72148 -4.52995,0.94626 -0.45613,0.2819 -0.36343,1.0903 0.33106,2.88715 0.34706,0.89795 1.01479,2.88279 1.48383,4.41076 0.46905,1.52796 1.19712,3.59718 1.61794,4.59824 0.42082,1.00106 0.76513,1.9391 0.76513,2.08452 0,0.2289 1.26115,3.33167 2.55331,6.28182 0.66277,1.51319 3.567,7.20233 4.18705,8.20208 0.31589,0.50932 0.6512,1.1344 0.74514,1.38906 0.0939,0.25467 0.32714,0.46302 0.51822,0.46302 0.4141,0 1.11761,2.20173 0.89166,2.79055 -0.0881,0.22964 -0.0458,0.34253 0.0957,0.25508 0.13959,-0.0863 0.32506,0.17544 0.41216,0.58157 0.0871,0.40614 0.27069,1.01524 0.40799,1.35357 0.1373,0.33832 0.181,0.72619 0.0971,0.86192 -0.0839,0.13574 0.0337,0.43297 0.26122,0.66053 0.22756,0.22756 0.41375,0.79815 0.41375,1.26797 0,0.46983 0.14128,0.99551 0.31396,1.16819 0.17268,0.17268 0.34831,0.73247 0.3903,1.24397 0.042,0.51151 0.25789,1.28109 0.47979,1.71019 0.2219,0.4291 0.40345,1.0172 0.40345,1.30688 0,0.28968 0.1099,0.59461 0.24423,0.67763 0.13432,0.083 0.327,0.53653 0.42818,1.0078 0.10117,0.47127 0.31296,1.09499 0.47065,1.38603 0.31922,0.58919 0.36133,0.71779 0.60653,1.85208 0.28629,1.32438 0.74684,1.61236 3.15042,1.96996 1.54253,0.22949 2.32932,0.47118 2.50587,0.76978 0.226,0.38224 0.28919,0.38691 0.5187,0.0384 0.22234,-0.33764 0.34685,-0.34387 0.83406,-0.0418 0.39802,0.2468 0.62653,0.26801 0.7492,0.0695 0.12326,-0.19943 0.45179,-0.20509 1.08902,-0.0187 0.50188,0.14677 1.86501,0.37379 3.02918,0.5045 1.16417,0.1307 3.36682,0.41751 4.89479,0.63735 1.52797,0.21984 4.20643,0.47864 5.95215,0.57512 1.74571,0.0965 3.28901,0.24648 3.42955,0.33334 0.14055,0.0869 0.65674,0.13091 1.1471,0.0979 0.56057,-0.0378 0.82862,0.0418 0.72201,0.21429 -0.0932,0.15088 0.009,0.27433 0.22734,0.27433 0.21828,0 0.47857,-0.13219 0.57841,-0.29375 0.11113,-0.1798 0.55337,-0.23084 1.1401,-0.13158 0.5272,0.0892 4.64949,0.23483 9.16063,0.32365 4.51115,0.0888 8.221904,0.17779 8.246124,0.19773 0.15295,0.12588 10.99151,-0.0632 11.12234,-0.19403 z m -69.985804,-4.12929 c 1.67168,-0.51634 3.53554,-1.76454 5.92839,-3.9702 0.97188,-0.89585 1.62722,-2.23806 1.19269,-2.44278 -0.088,-0.0415 -0.56042,-1.26601 -1.04983,-2.72122 -1.31948,-3.92326 -3.2863,-7.8526 -4.66554,-9.32085 -0.65226,-0.69436 -1.25474,-1.47084 -1.33884,-1.7255 -0.0841,-0.25466 -0.25543,-0.46302 -0.38075,-0.46302 -0.12532,0 -0.38519,-0.15314 -0.57748,-0.34032 -1.2353,-1.20241 -2.48688,-1.85226 -4.49431,-2.33355 -2.50751,-0.60118 -4.18239,-0.50714 -5.96838,0.3351 -0.61448,0.28978 -1.23956,0.45128 -1.38907,0.35887 -0.1495,-0.0924 -0.27183,0.005 -0.27183,0.21619 0,0.2113 -0.18614,0.45561 -0.41364,0.54291 -0.22751,0.0873 -0.34754,0.26569 -0.26674,0.39642 0.0808,0.13074 -0.0822,0.75666 -0.36231,1.39094 -0.50072,1.13398 -0.79342,4.86672 -0.45351,5.78344 0.4296,1.15859 0.68615,2.64503 0.52777,3.05778 -0.11959,0.31164 -0.0804,0.40713 0.11714,0.28507 0.189,-0.1168 0.4369,0.27627 0.68182,1.08108 0.64491,2.11915 1.45457,3.69548 2.85835,5.56489 1.59843,2.12862 2.32235,2.79183 3.99077,3.65606 2.39135,1.2387 3.91872,1.39509 6.3353,0.64869 z m 129.407134,-1.16659 c 0.67027,-0.20172 1.3036,-0.29102 1.40739,-0.19844 0.10378,0.0926 0.11159,0.0333 0.0173,-0.13169 -0.10061,-0.17617 0.17105,-0.44185 0.65809,-0.64359 0.45619,-0.18895 1.31788,-0.87628 1.91487,-1.52739 0.59698,-0.65111 1.23426,-1.33525 1.41616,-1.52033 0.1819,-0.18507 0.33073,-0.4678 0.33073,-0.62828 0,-0.16048 0.17859,-0.36032 0.39687,-0.44408 0.21828,-0.0838 0.39688,-0.32955 0.39688,-0.54619 0,-0.21663 0.17859,-0.73968 0.39687,-1.16231 0.21828,-0.42264 0.57514,-1.11366 0.79302,-1.53562 0.68375,-1.3242 1.72052,-6.27538 1.72052,-8.21654 0,-3.15097 -1.6583,-6.37869 -3.70417,-7.20979 -1.14211,-0.46396 -3.68139,-0.92134 -3.90022,-0.70251 -0.1152,0.1152 -0.62423,0.23464 -1.13118,0.26542 -0.9873,0.06 -3.17068,0.94397 -3.17068,1.28377 0,0.11291 -0.41672,0.40304 -0.92604,0.64473 -0.50932,0.24169 -0.92604,0.55291 -0.92604,0.69161 0,0.13869 -0.1786,0.25217 -0.39688,0.25217 -0.21828,0 -0.39687,0.11104 -0.39687,0.24675 0,0.13572 -0.23986,0.32288 -0.53301,0.41593 -0.29316,0.093 -0.46656,0.27669 -0.38534,0.4081 0.0812,0.13141 -0.31459,0.74792 -0.87956,1.37001 -2.24698,2.47415 -3.20692,4.28812 -4.69916,8.87983 -0.7904,2.43215 -1.43785,4.57006 -1.43877,4.75092 -0.002,0.39933 3.24339,2.83128 5.40654,4.05139 2.70316,1.52471 5.24135,1.9258 7.63263,1.20613 z M 32.722086,241.8073 c 0,-0.0642 -0.11906,-0.19026 -0.26458,-0.2802 -0.14552,-0.0899 -0.26458,-0.0374 -0.26458,0.11667 0,0.15411 0.11906,0.2802 0.26458,0.2802 0.14552,0 0.26458,-0.0525 0.26458,-0.11667 z m 6.39617,-49.92447 c 5.94998,-1.36022 10.03918,-4.07 13.23096,-8.76774 2.21948,-3.26668 3.61164,-7.54414 3.26855,-10.0427 -0.10537,-0.76741 -0.20134,-1.77792 -0.21325,-2.24558 -0.0175,-0.68599 -0.166,-0.90061 -0.76871,-1.11072 -0.66882,-0.23315 -0.87484,-0.53696 -0.77838,-1.14784 0.0172,-0.10914 -0.18858,-0.19844 -0.45735,-0.19844 -0.26878,0 -0.74974,-0.22641 -1.06881,-0.50314 -0.48209,-0.41811 -0.9158,-0.48889 -2.56655,-0.41887 -1.09254,0.0463 -2.14906,0.21923 -2.34784,0.3842 -0.19878,0.16498 -0.69916,0.35863 -1.11195,0.43035 -0.4128,0.0717 -0.96883,0.42289 -1.23563,0.78039 -0.2668,0.35749 -0.6736,0.64999 -0.904,0.64999 -0.2304,0 -0.34747,0.0714 -0.26016,0.15874 0.0873,0.0873 -0.20488,0.55832 -0.64929,1.0467 -2.0978,2.30532 -3.52146,5.38073 -3.82203,8.25639 -0.19976,1.91125 -0.15118,1.89086 -4.32706,1.81597 -3.3428,-0.06 -4.88732,-0.67298 -6.2662,-2.48709 -1.17011,-1.53943 -1.39808,-2.50662 -1.59101,-6.74996 -0.0912,-2.00629 -0.25318,-3.70177 -0.35993,-3.76774 -0.25139,-0.15537 -1.28493,1.20992 -2.30881,3.0499 -1.38521,2.4893 -1.99375,5.02685 -1.99871,8.33438 -0.005,3.36688 0.47788,5.34926 1.80476,7.40833 3.08368,4.78533 8.29111,6.59678 14.7314,5.12448 z m 67.158004,-17.45654 c 12.58679,-0.27678 14.76897,-0.36434 15.00678,-0.60215 0.25807,-0.25807 -0.21796,-0.6559 -0.9869,-0.82479 -0.49204,-0.10807 -0.79128,-0.34063 -0.79219,-0.61567 -0.006,-1.7378 -1.59755,-4.11155 -3.2982,-4.91856 -0.82874,-0.39327 -3.62072,-0.73885 -3.33635,-0.41297 0.061,0.0699 -0.0279,0.3864 -0.1976,0.70339 -0.27522,0.51425 -0.51589,0.5742 -2.23371,0.55641 -1.48211,-0.0154 -2.22832,0.12029 -3.24198,0.58934 -0.7242,0.3351 -1.40603,0.59073 -1.51517,0.56806 -0.10914,-0.0227 -0.19843,0.0792 -0.19843,0.22645 0,0.14721 -0.38696,0.86394 -0.8599,1.59273 -0.6899,1.06312 -0.96451,1.29185 -1.38906,1.157 -0.68609,-0.21792 -1.45089,-0.21331 -2.13403,0.0129 -0.54145,0.17927 -0.78822,-0.12017 -2.900114,-3.51911 -0.1494,-0.24046 -0.43342,-0.47233 -0.63115,-0.51528 -0.19773,-0.0429 -0.8494,-0.40014 -1.44815,-0.79375 -1.1893,-0.78183 -1.30305,-0.81994 -3.07349,-1.02962 -2.57188,-0.3046 -6.61665,1.51489 -7.64618,3.43953 -0.20383,0.38106 -0.49012,0.61897 -0.63619,0.52869 -0.14607,-0.0903 -0.18569,-0.0349 -0.088,0.12315 0.0977,0.15801 -0.0198,0.70113 -0.261,1.20695 -0.50346,1.05577 -1.38995,1.32392 -2.62905,0.79524 -0.94187,-0.40184 -2.66863,-0.45617 -2.89429,-0.091 -0.0899,0.14552 -0.62,0.26459 -1.17793,0.26459 -1.08453,0 -1.32821,-0.27956 -1.34499,-1.543 -0.0284,-2.13669 -2.57596,-4.14598 -5.66031,-4.46431 -1.36316,-0.14069 -5.70739,0.62009 -5.70739,0.9995 0,0.0937 -0.56555,0.76793 -1.25677,1.4982 -0.83491,0.88208 -1.4344,1.30165 -1.78594,1.24995 -0.29104,-0.0428 -0.99305,-0.16561 -1.56001,-0.2729 l -1.03085,-0.19506 0.17621,0.7685 c 0.0969,0.42267 0.24906,1.21498 0.33808,1.76068 0.089,0.5457 0.23549,0.99905 0.32547,1.00743 0.09,0.008 0.58032,0.0564 1.08964,0.10663 0.50933,0.0503 6.46245,0.22817 13.22917,0.39535 6.76672,0.16719 13.19609,0.33367 14.2875,0.36997 1.0914,0.0363 2.63922,0.0858 3.43958,0.10999 0.80037,0.0242 7.11068,-0.0804 14.022924,-0.23237 z m -70.246874,-0.77588 c 0.29104,-0.10921 0.76303,-0.6574 1.04887,-1.21822 1.74546,-3.42462 3.41347,-5.41044 5.97479,-7.1132 3.92782,-2.61121 7.67691,-3.09541 11.17651,-1.44346 1.23963,0.58515 3.08097,2.17297 3.50046,3.0185 0.22037,0.44418 0.6017,0.57828 1.98605,0.6984 1.68777,0.14644 1.72951,0.13406 2.79962,-0.83016 1.35418,-1.22019 1.74066,-1.42635 4.26005,-2.27253 1.61392,-0.54206 2.36024,-0.65431 3.63401,-0.54658 3.30554,0.27959 6.42097,2.0556 7.62183,4.34495 0.62003,1.18206 0.73993,1.27287 1.68989,1.28006 0.56237,0.004 1.27822,0.15075 1.59076,0.32556 0.49948,0.27936 0.62484,0.23038 1.03558,-0.40461 0.69348,-1.07207 3.1086,-3.49226 3.48939,-3.4967 0.1819,-0.002 0.33072,-0.0964 0.33072,-0.20957 0,-0.11314 0.80368,-0.55962 1.78594,-0.99219 1.59128,-0.70075 2.07432,-0.78647 4.43177,-0.78647 2.19847,0 2.85562,0.10053 3.88656,0.59461 0.6824,0.32704 1.31571,0.71594 1.40734,0.86421 0.0916,0.14828 0.25455,0.21525 0.36203,0.14883 0.10746,-0.0664 0.41357,0.16977 0.68023,0.52485 0.26666,0.35509 0.64675,0.64562 0.84465,0.64562 0.1979,0 0.35982,0.16446 0.35982,0.36547 0,0.44967 1.661134,1.7512 2.235044,1.7512 0.23005,0 1.0666,-0.52808 1.859,-1.1735 1.9646,-1.60019 3.56246,-2.26609 5.43758,-2.26609 1.14174,0 1.8173,-0.16603 2.67835,-0.65827 1.55425,-0.88852 2.09058,-0.86605 5.09064,0.21326 0.83656,0.30096 3.60147,2.86591 3.60147,3.34101 0,0.1628 0.18178,0.73105 0.40394,1.26278 l 0.40395,0.96678 1.2497,-1.21175 c 1.33899,-1.29832 1.81918,-1.52532 3.34825,-1.5828 0.84489,-0.0318 1.04536,-0.1692 1.4749,-1.01118 0.60969,-1.19509 1.57134,-1.86397 2.41215,-1.67779 0.48641,0.10771 0.5407,0.0773 0.23953,-0.13402 -0.46436,-0.32586 -0.31806,-0.39899 1.65448,-0.82698 1.37691,-0.29875 1.65044,-0.25954 4.87626,0.69909 1.49213,0.44343 2.39259,0.87877 2.87516,1.39005 l 0.70262,0.74443 1.4238,-0.55887 c 0.78308,-0.30737 1.42403,-0.71472 1.42432,-0.90521 2.6e-4,-0.19049 0.0949,-0.28803 0.21018,-0.21676 0.11531,0.0713 0.22654,-0.0945 0.24717,-0.36843 0.0632,-0.83893 1.12765,-2.02543 2.47497,-2.75873 1.68974,-0.91967 3.82334,-1.08102 5.17596,-0.39142 l 0.97894,0.4991 1.07905,-0.87919 c 2.59667,-2.11572 5.13028,-2.96687 7.62353,-2.56109 1.84538,0.30034 3.91943,1.25749 3.73972,1.72582 -0.0736,0.1918 -0.007,0.42733 0.1488,0.5234 0.15544,0.0961 0.28262,0.0405 0.28262,-0.12355 0,-0.1666 0.32705,-0.0653 0.7411,0.2295 0.8502,0.6054 1.98625,2.57312 2.41331,4.18004 0.23336,0.87809 0.45957,1.15815 1.12197,1.38906 0.45631,0.15907 0.94807,0.28922 1.09279,0.28922 0.40917,0 0.0356,-6.2741 -0.59862,-10.05416 -0.3052,-1.81901 -0.86238,-4.67651 -1.23817,-6.35 -0.3758,-1.67349 -0.70895,-3.16177 -0.74034,-3.30729 -0.48097,-2.22968 -2.53938,-8.62482 -4.17292,-12.96459 -3.58259,-9.51771 -8.22316,-19.09222 -13.78559,-28.4427 -2.33824,-3.93061 -6.04205,-9.612265 -6.82403,-10.468097 -0.2745,-0.300421 -0.49909,-0.665099 -0.49909,-0.810395 0,-0.145296 -0.35594,-0.605192 -0.79099,-1.021993 -0.43504,-0.416798 -0.75045,-0.798351 -0.70091,-0.847892 0.0495,-0.04954 -0.39818,-0.606215 -0.99495,-1.237051 -5.3734,-5.680215 -6.28102,-6.778214 -6.09288,-7.370979 0.1625,-0.511977 0.13237,-0.549407 -0.21211,-0.263517 -0.57331,0.475811 -1.01399,0.223255 -2.44698,-1.402382 -0.69651,-0.790146 -1.35957,-1.379034 -1.47347,-1.308639 -0.1139,0.0704 -0.24703,0.03497 -0.29584,-0.07872 -0.0488,-0.113689 -0.50546,-0.469612 -1.01478,-0.79094 -0.50932,-0.321329 -0.77721,-0.58624 -0.59531,-0.58869 0.1819,-0.0024 0.33073,-0.131543 0.33073,-0.286872 0,-0.156771 -0.22302,-0.21163 -0.50129,-0.123309 -0.28771,0.09131 -0.67421,-0.01381 -0.90714,-0.246756 -0.22323,-0.223221 -0.53343,-0.405855 -0.68934,-0.405855 -0.15592,0 -0.28348,-0.100343 -0.28348,-0.222985 0,-0.122642 -0.53579,-0.498549 -1.19063,-0.835348 -0.65484,-0.336799 -1.19062,-0.712705 -1.19062,-0.835348 0,-0.122642 -0.0893,-0.198506 -0.19844,-0.168587 -0.26657,0.07308 -1.92984,-0.805958 -2.54132,-1.343075 -0.26994,-0.237114 -0.50807,-0.375301 -0.52917,-0.307086 -0.055,0.177644 -3.72472,-1.39469 -3.83128,-1.641531 -0.0488,-0.113072 -0.18498,-0.146105 -0.30262,-0.0734 -0.11763,0.0727 -0.61348,-0.03344 -1.10188,-0.235868 -1.45485,-0.602991 -6.25638,-1.684353 -9.09008,-2.047195 -3.85534,-0.493659 -14.753384,-0.416769 -15.659314,0.110482 -0.22143,0.128873 -2.81977,0.508871 -4.1183,0.602287 -0.40018,0.02879 -0.75737,0.07843 -0.79375,0.110318 -0.0364,0.03189 -0.4709,0.07653 -0.9656,0.09922 -0.63033,0.02891 -0.96122,0.199578 -1.10588,0.570412 -0.11354,0.291042 -0.2148,0.425292 -0.22502,0.298334 -0.0102,-0.12696 -0.16743,-0.10732 -0.34933,0.04365 -0.1819,0.150963 -0.4206,0.283244 -0.53043,0.293957 -0.10984,0.01072 -0.63867,0.202888 -1.17519,0.427059 -0.53651,0.22417 -1.28009,0.481983 -1.65238,0.572915 -0.37229,0.09093 -1.30198,0.515557 -2.06596,0.943613 -0.76398,0.428053 -1.38906,0.703196 -1.38906,0.611423 0,-0.173813 -0.95006,0.279815 -1.43854,0.686874 -0.15469,0.128899 -1.82907,1.257231 -3.72084,2.507406 -5.68129,3.754474 -10.6774,8.29696 -14.81666,13.471384 -0.43656,0.54574 -0.97748,1.182822 -1.20203,1.415737 -0.22456,0.232916 -0.84996,1.078328 -1.38979,1.878693 -0.53983,0.800364 -1.39789,1.908318 -1.90682,2.46212 -0.50893,0.553802 -0.92532,1.113962 -0.92532,1.244803 0,0.130842 -0.85362,1.642263 -1.89693,3.358713 -1.04332,1.71645 -2.24764,3.80543 -2.67627,4.64218 -0.42862,0.83674 -0.90454,1.52135 -1.05758,1.52135 -0.15303,0 -0.21096,0.0673 -0.12871,0.14954 0.0822,0.0822 -0.65594,1.89795 -1.64042,4.0349 -3.65732,7.9387 -6.56744,16.60445 -7.96866,23.7291 -0.1431,0.72761 -0.36254,1.56104 -0.48763,1.85209 -0.23037,0.53594 -0.75665,3.35407 -0.98821,5.29166 -0.0696,0.58209 -0.30108,1.83224 -0.51448,2.77813 -0.2134,0.94588 -0.43925,2.25557 -0.5019,2.91041 -0.0626,0.65485 -0.29631,2.73771 -0.51926,4.62859 -0.40977,3.47529 -0.60066,19.42959 -0.23682,19.79343 0.19913,0.19913 3.16967,-0.0698 3.9325,-0.356 z m 61.04843,-21.71362 c -0.29535,-0.10926 -0.61574,-0.32605 -0.71198,-0.48177 -0.0962,-0.15572 -0.45886,-0.28313 -0.80582,-0.28313 -0.35196,0 -0.81293,-0.25996 -1.04272,-0.58803 -0.22653,-0.32342 -0.41188,-0.48109 -0.41188,-0.35038 0,0.13072 -0.47943,-0.22974 -1.06541,-0.80102 -1.32406,-1.29085 -3.00329,-3.9702 -2.74757,-4.38397 0.11345,-0.18356 0.0758,-0.23744 -0.0929,-0.13313 -0.27198,0.16809 -1.13417,-1.94817 -1.27771,-3.13617 -0.0352,-0.29105 -0.089,-0.52917 -0.11975,-0.52917 -0.22742,0 -1.02134,-6.41388 -1.03163,-8.33437 -0.0134,-2.4979 0.43065,-6.57907 0.79167,-7.27605 0.15074,-0.29104 0.74824,-0.75811 1.32776,-1.03793 1.02988,-0.49728 1.12595,-0.4981 4.25567,-0.0362 3.60721,0.5324 7.355654,0.70483 8.552204,0.3934 0.44023,-0.11458 1.27667,-0.28151 1.85876,-0.37096 0.58208,-0.0894 1.35598,-0.22544 1.71979,-0.30221 0.3638,-0.0768 1.33272,-0.20385 2.15315,-0.2824 1.26246,-0.12088 1.57419,-0.0603 2.02847,0.39394 0.29523,0.29523 0.62381,0.4574 0.73019,0.36039 0.10637,-0.097 0.12739,0.0917 0.0467,0.41929 -0.0807,0.32762 -0.0387,0.52895 0.0932,0.4474 0.13196,-0.0816 0.24983,0.008 0.26196,0.19808 0.0121,0.19048 0.0664,0.58447 0.12051,0.87551 0.0542,0.29104 0.14909,0.88635 0.21096,1.32291 0.0619,0.43657 0.20413,1.01555 0.31613,1.28664 0.112,0.27108 0.122,2.58446 0.0222,5.14083 -0.14707,3.76797 -0.3077,5.1023 -0.84841,7.04774 -0.87144,3.13531 -1.22603,4.11958 -1.48412,4.11958 -0.11629,0 -0.21143,0.21991 -0.21143,0.48869 0,0.5094 -0.94023,1.76027 -1.32313,1.76027 -0.33012,0 -0.62458,0.35846 -0.69639,0.84774 -0.0352,0.23955 -0.27477,0.55355 -0.53248,0.69777 -0.25771,0.14422 -0.7712,0.58951 -1.14109,0.98953 -0.3699,0.40002 -0.91066,0.76719 -1.2017,0.81593 -0.29104,0.0487 -0.60062,0.18583 -0.68795,0.30464 -0.0873,0.11882 -0.32545,0.24123 -0.52916,0.27203 -0.20372,0.0308 -0.50048,0.13739 -0.65948,0.23687 -0.38079,0.23825 -5.177054,0.16278 -5.866644,-0.0923 z m 6.434324,-3.5139 c 0.58979,-0.26501 1.3481,-0.88426 1.68513,-1.37612 0.33702,-0.49185 0.71767,-0.82945 0.84588,-0.75022 0.12821,0.0792 0.23311,-0.0524 0.23311,-0.2925 0,-0.24012 0.41761,-0.92446 0.92802,-1.52076 0.57068,-0.66671 0.87335,-1.25643 0.78605,-1.53149 -0.0781,-0.24602 0.0274,-0.96769 0.23448,-1.60371 0.20705,-0.63602 0.46016,-1.81125 0.56247,-2.61161 0.19807,-1.5495 0.1421,-8.74832 -0.0845,-10.87543 -0.0249,-0.23341 -0.3221,-0.72314 -0.6605,-1.08828 l -0.61528,-0.66389 -2.36128,0.36521 c -1.56346,0.24181 -4.11312,0.34133 -7.546104,0.29453 -5.83553,-0.0795 -5.91033,-0.0586 -6.16609,1.72539 -0.48081,3.35376 0.0483,11.34725 0.84753,12.80476 0.1743,0.31786 0.31691,0.7498 0.31691,0.95988 0,0.48997 0.5898,1.81419 1.55411,3.48929 0.64151,1.11436 1.06914,1.48203 2.71258,2.33221 1.80881,0.93573 2.08602,1.00257 3.803114,0.91693 1.02875,-0.0513 2.32878,-0.30656 2.92442,-0.57419 z M 90.401256,125.50731 c 0,-0.14552 -0.18562,-0.26458 -0.41249,-0.26458 -0.22687,0 -0.33891,0.11906 -0.24897,0.26458 0.0899,0.14552 0.27556,0.26459 0.41249,0.26459 0.13693,0 0.24897,-0.11907 0.24897,-0.26459 z m -22.64191,8.74702 c -1.13083,-0.27049 -3.00623,-1.36051 -2.94285,-1.71045 0.0289,-0.15933 -0.0817,-0.2648 -0.24578,-0.23437 -0.58458,0.10842 -3.17814,-3.13954 -2.88532,-3.61334 0.0802,-0.12968 -0.0309,-0.41236 -0.24668,-0.62818 -0.21582,-0.21583 -0.52216,-0.96957 -0.68074,-1.67498 -0.46247,-2.05714 0.13713,-6.3043 0.93315,-6.60976 0.20146,-0.0773 0.30155,-0.30931 0.22241,-0.51554 -0.0791,-0.20624 -0.0121,-0.37498 0.14899,-0.37498 0.1611,0 0.2929,-0.16635 0.2929,-0.36967 0,-0.20332 0.32146,-0.73601 0.71435,-1.18376 0.67049,-0.7641 0.74393,-0.78733 1.19596,-0.37825 0.45412,0.41097 0.47599,0.39926 0.38324,-0.2053 -0.0751,-0.48954 0.12697,-0.8068 0.85456,-1.34166 2.06886,-1.52087 6.22666,-1.86911 8.73153,-0.7313 l 1.4286,0.64892 -0.6823,0.78832 -0.6823,0.78832 -0.26651,-0.66145 c -0.20684,-0.51336 -0.27026,-0.55088 -0.28328,-0.16758 -0.0133,0.39274 -0.13868,0.45316 -0.61208,0.29503 -0.32743,-0.10937 -1.19719,-0.25199 -1.93282,-0.31694 -3.07062,-0.27111 -5.00357,2.46 -4.08401,5.77036 0.35589,1.28117 2.26764,2.36366 4.1344,2.34101 1.74581,-0.0212 3.61303,-0.94757 3.67449,-1.82302 0.025,-0.35641 0.15899,-0.68585 0.29772,-0.73209 0.15543,-0.0518 0.16703,-0.66615 0.0302,-1.60094 -0.39666,-2.71049 -0.3785,-3.36854 0.0931,-3.37295 0.23494,-0.002 0.62189,-0.1656 0.8599,-0.36312 0.30654,-0.25441 0.43273,-0.26798 0.43273,-0.0466 0,0.17193 0.10085,0.25028 0.2241,0.1741 0.46152,-0.28523 1.99531,1.75254 3.26709,4.3406 0.58694,1.19441 0.37186,6.447 -0.29698,7.25291 -0.15356,0.18502 -0.20085,0.41475 -0.1051,0.5105 0.0958,0.0957 0.0282,0.17409 -0.15021,0.17409 -0.17836,0 -0.25223,0.1166 -0.16415,0.25912 0.23609,0.38199 -0.37124,1.37337 -0.71223,1.16262 -0.16752,-0.10353 -0.21789,-0.0604 -0.11806,0.10117 0.21681,0.35081 -1.46527,2.11904 -2.12238,2.2311 -0.26594,0.0453 -0.70623,0.35758 -0.97841,0.69385 -0.27452,0.33916 -0.66352,0.54668 -0.87364,0.46605 -0.20832,-0.0799 -0.31694,-0.0453 -0.24139,0.0769 0.40286,0.65185 -4.51109,1.08376 -6.61221,0.58119 z m 6.67204,-6.29505 c 0.0964,-0.63138 -0.0864,-0.80162 -1.20467,-1.12234 -0.65912,-0.18904 -0.73676,-0.1534 -0.62198,0.28552 0.0721,0.27583 0.0109,0.50152 -0.13598,0.50152 -0.14693,0 -0.33512,0.17716 -0.41821,0.3937 -0.0863,0.2249 -0.0161,0.3667 0.16385,0.33073 0.1732,-0.0346 0.35493,0.19835 0.40384,0.51775 0.0872,0.56963 0.10455,0.57199 0.90729,0.12353 0.45011,-0.25145 0.85774,-0.71514 0.90586,-1.03041 z m -6.85044,0.50844 c 0.53688,-0.67484 0.27778,-2.74648 -0.34106,-2.72696 -0.13984,0.004 -0.49621,-0.0527 -0.79192,-0.12693 -0.29572,-0.0742 -0.89104,0.0493 -1.32292,0.27451 -0.43189,0.2252 -0.66619,0.41202 -0.52067,0.41514 0.15476,0.003 0.14432,0.0864 -0.0251,0.20007 -0.16233,0.10891 -0.23752,0.62501 -0.171,1.17367 0.0929,0.76637 0.27096,1.03365 0.8189,1.22931 0.86495,0.30886 1.91467,0.11316 2.35381,-0.43881 z m 1.12448,-2.32743 c 0,-0.21898 -0.51375,-0.34281 -0.63154,-0.15222 -0.0764,0.12364 0.0344,0.2248 0.2463,0.2248 0.21188,0 0.38524,-0.0327 0.38524,-0.0726 z m 58.340624,7.17057 c -0.14552,-0.0507 -0.95341,-0.28397 -1.7953,-0.51839 -0.98635,-0.27464 -1.46581,-0.53125 -1.34819,-0.72157 0.11053,-0.17884 0.0627,-0.22126 -0.12137,-0.10752 -0.42118,0.2603 -2.18244,-1.13552 -2.09669,-1.66167 0.0384,-0.23583 -0.10871,-0.42877 -0.32699,-0.42877 -0.572,0 -1.48853,-1.17525 -2.30324,-2.95341 -0.59994,-1.3094 -0.70513,-1.89212 -0.69104,-3.82809 0.015,-2.06154 0.10939,-2.47647 0.97072,-4.26726 2.04231,-4.24613 6.37128,-6.71694 10.61171,-6.05677 2.79477,0.43511 5.8574,2.60618 7.18069,5.09035 0.26447,0.49647 0.49006,0.96221 0.50132,1.03497 0.0112,0.0728 0.18247,0.42487 0.38049,0.78247 0.61025,1.10207 0.69351,5.09663 0.14406,6.91136 -0.28994,0.95758 -0.6209,1.56659 -0.85136,1.56659 -0.20737,0 -0.32488,0.14882 -0.26114,0.33072 0.16133,0.46036 -1.16238,2.08213 -2.39884,2.939 -1.8141,1.25717 -6.2443,2.35847 -7.59483,1.88799 z m -1.71681,-5.61848 c 0.59038,-0.75054 0.4925,-1.61189 -0.31436,-2.76661 l -0.4988,-0.71384 -0.92467,0.54557 c -1.57846,0.93132 -1.82626,2.23966 -0.63448,3.34996 0.68394,0.63719 1.68195,0.46257 2.37231,-0.41508 z m 7.61106,-0.48028 c 0.33483,-0.23452 0.58804,-0.69024 0.58804,-1.05833 0,-0.35555 0.11533,-0.64646 0.25628,-0.64646 0.14095,0 0.18391,-0.18857 0.0955,-0.41906 -0.10931,-0.28485 -0.22004,-0.32321 -0.34578,-0.11976 -0.13004,0.21041 -0.28512,0.17862 -0.52219,-0.10704 -0.21198,-0.25541 -0.72324,-0.3912 -1.3766,-0.3656 -0.57166,0.0224 -0.9027,0.1252 -0.73566,0.22844 0.21999,0.13596 0.22299,0.2376 0.0109,0.36869 -0.43931,0.2715 -0.35244,1.49743 0.14505,2.04714 0.53598,0.59226 1.11037,0.6142 1.88449,0.072 z m -3.30047,-4.52428 c 0.61071,-0.0687 1.60257,-0.4119 2.20413,-0.76256 0.86935,-0.50676 1.13591,-0.84253 1.29926,-1.63661 0.11303,-0.54948 0.24493,-1.17764 0.29311,-1.39592 0.16355,-0.74102 -0.71534,-2.57318 -1.63644,-3.41136 -0.50456,-0.45915 -0.91738,-0.9405 -0.91738,-1.06967 0,-0.23669 -0.31342,-0.221 -2.24896,0.11256 -2.31735,0.39936 -3.66353,1.9061 -3.66657,4.10389 -0.002,1.3374 0.30462,2.78868 0.53932,2.55398 0.0849,-0.0849 0.69785,0.31033 1.3622,0.8782 0.66435,0.56787 1.30984,0.96949 1.43443,0.89249 0.12459,-0.077 0.7262,-0.19625 1.3369,-0.265 z m 4.82543,-7.21707 c -0.0959,-0.1552 -0.37573,-0.2784 -0.62181,-0.27377 -0.39281,0.007 -0.38519,0.0555 0.0624,0.39414 0.54374,0.41136 0.84758,0.34598 0.55936,-0.12037 z m -68.538024,-4.93651 c -0.51907,-0.51907 -0.65558,-0.87585 -0.56209,-1.46906 0.25583,-1.62325 1.62881,-2.42247 4.19144,-2.43987 1.52275,-0.0104 1.87427,0.0791 2.45519,0.62487 0.3729,0.35032 0.61538,0.80011 0.53885,0.99954 -0.0765,0.19943 -0.0273,0.57149 0.1093,0.8268 0.38327,0.71616 -0.52695,1.30661 -2.29297,1.48743 -0.84109,0.0861 -1.94596,0.26825 -2.45528,0.40474 -1.24777,0.33439 -1.20658,0.34341 -1.98444,-0.43445 z m 61.404584,-1.14709 c -1.73965,-0.14415 -1.85548,-0.19588 -2.32452,-1.0381 -0.60992,-1.09518 -0.42378,-1.76921 0.67331,-2.43817 1.03562,-0.63147 3.55916,-0.69088 4.68203,-0.11021 0.72323,0.37399 0.92956,0.7702 1.09974,2.11185 0.0979,0.77208 -0.83455,1.7287 -1.63086,1.67307 -0.36785,-0.0257 -1.49271,-0.11499 -2.4997,-0.19844 z m -0.23948,-3.02023 c 0.0588,-0.0588 -0.12817,-0.16848 -0.41558,-0.24364 -0.29795,-0.0779 -0.58023,0.0136 -0.6567,0.21285 -0.0912,0.23759 0.0419,0.31561 0.41559,0.24364 0.30234,-0.0582 0.59785,-0.15401 0.65669,-0.21285 z m 3.261,67.28207 c 2.54661,-0.15427 7.36864,-0.50856 10.71562,-0.78733 3.34698,-0.27876 7.03792,-0.58008 8.20209,-0.66961 1.16416,-0.0895 4.61698,-0.44817 7.67291,-0.79699 3.05594,-0.34883 6.0325,-0.68142 6.61459,-0.7391 1.94317,-0.19256 4.89479,-0.95368 4.89479,-1.2622 0,-0.12661 -0.56555,-0.23024 -1.25677,-0.23028 l -1.25677,-8e-5 -0.0444,-1.55857 c -0.0686,-2.40725 -1.36709,-4.49495 -3.35884,-5.40043 -0.85533,-0.38884 -1.51573,-0.47199 -3.02069,-0.38035 -1.65947,0.10106 -2.09892,0.24013 -3.175,1.00477 -1.08935,0.77408 -1.55197,1.22919 -2.19444,2.15882 -0.34813,0.50374 -2.28439,0.4595 -1.97255,-0.0451 0.20477,-0.33134 -2.67077,-0.89151 -3.71037,-0.72281 -0.53781,0.0873 -1.20171,0.36127 -1.47531,0.60888 -0.59869,0.54181 -1.11125,2.3003 -0.96364,3.30605 0.10557,0.71931 0.0926,0.72625 -1.10145,0.59042 -0.86714,-0.0987 -1.53021,0.009 -2.34857,0.37976 -0.62716,0.28447 -1.12549,0.56287 -1.1074,0.61868 0.0181,0.0558 -0.0377,0.28555 -0.12408,0.51053 -0.29461,0.76775 -1.40763,0.44342 -2.31173,-0.67365 -0.47111,-0.58208 -1.0388,-1.17659 -1.26153,-1.32114 -0.90403,-0.58669 -2.8733,-1.21302 -4.29801,-1.36699 -2.56828,-0.27755 -3.42575,0.83628 -2.55865,3.32362 0.16234,0.4657 0.22169,0.92021 0.13189,1.01002 -0.22074,0.22074 -1.50021,-0.48145 -1.34243,-0.73674 0.40718,-0.65884 -3.37214,-0.24141 -4.34645,0.48006 -0.80066,0.59288 -1.88194,2.09768 -1.88194,2.61905 0,0.44227 0.76233,0.45121 6.87917,0.0807 z m -12.43542,-7.51252 c 0,-0.0642 -0.11906,-0.19026 -0.26458,-0.2802 -0.14552,-0.0899 -0.26458,-0.0374 -0.26458,0.11667 0,0.15411 0.11906,0.2802 0.26458,0.2802 0.14552,0 0.26458,-0.0525 0.26458,-0.11667 z m -29.104164,-0.54069 c 0,-0.0394 -0.15308,-0.19864 -0.34018,-0.35392 -0.25612,-0.21255 -0.34018,-0.16261 -0.34018,0.20213 0,0.28604 0.13933,0.43098 0.34018,0.35391 0.1871,-0.0718 0.34018,-0.16275 0.34018,-0.20212 z m 78.316664,-1.98847 c 0,-0.14552 -0.12609,-0.26458 -0.2802,-0.26458 -0.15411,0 -0.20661,0.11906 -0.11667,0.26458 0.0899,0.14552 0.21602,0.26458 0.28019,0.26458 0.0642,0 0.11668,-0.11906 0.11668,-0.26458 z m 2.79904,-35.82769 c 0.30254,-0.30388 1.90989,-1.86184 3.57187,-3.46212 1.66199,-1.60028 3.17012,-3.1905 3.35141,-3.53382 0.18129,-0.34333 0.78492,-1.17713 1.34141,-1.8529 0.55649,-0.67577 1.408,-1.84992 1.89224,-2.60922 0.48425,-0.75931 0.98489,-1.316 1.11254,-1.23711 0.12766,0.0789 0.19938,0.0384 0.1594,-0.09 -0.04,-0.1284 0.5438,-1.35764 1.29731,-2.73165 1.20557,-2.19834 1.99439,-3.8986 3.44027,-7.41528 0.46925,-1.14131 1.96948,-2.88572 2.48915,-2.89428 0.3879,-0.006 2.57462,-2.349905 3.69747,-3.962593 0.35462,-0.509323 0.76383,-1.013516 0.90935,-1.120429 0.14552,-0.106912 0.16071,-0.196209 0.0337,-0.198437 -0.12696,-0.0021 -0.11567,-0.152879 0.0251,-0.33478 1.03466,-1.337088 1.24238,-5.632468 0.37988,-7.855585 -0.30715,-0.791688 -0.51798,-1.479915 -0.4685,-1.529386 0.0495,-0.04947 -0.42903,-0.651881 -1.06334,-1.338686 -0.63431,-0.686806 -1.09623,-1.40235 -1.02649,-1.590096 0.0697,-0.187745 -0.0234,-0.306871 -0.20693,-0.264723 -0.27091,0.06221 -2.58812,-1.583516 -3.09742,-2.199849 -0.35872,-0.434115 -4.7349,-1.553808 -4.91759,-1.258218 -0.0774,0.12523 -0.34381,0.22769 -0.59204,0.22769 -0.54169,0 -2.45297,0.971166 -2.82474,1.435316 -0.14552,0.181682 -0.50408,0.457833 -0.79679,0.613667 -1.37219,0.730531 -1.96909,5.254014 -1.05603,8.002974 0.24567,0.739642 0.38712,1.500002 0.31433,1.689687 -0.0728,0.189685 -0.0311,0.508688 0.0926,0.708893 0.13136,0.212547 0.10769,0.505309 -0.0569,0.703609 -0.21694,0.261395 -0.12565,0.339603 0.39639,0.339603 0.87665,0 1.13374,0.425087 0.47147,0.779526 -0.7564,0.404812 -1.15312,0.155996 -2.57214,-1.613202 -1.24901,-1.557223 -1.28044,-1.576617 -1.46099,-0.901506 -0.10149,0.379476 -0.23964,1.5334 -0.307,2.564275 -0.14208,2.174264 0.53552,4.306893 1.89083,5.95112 0.48647,0.59018 0.7298,1.12673 0.63035,1.38998 -0.42772,1.1323 -3.63662,6.89634 -4.50002,8.08326 -2.19907,3.02306 -2.80987,3.63362 -3.24692,3.24572 -0.2968,-0.26342 -0.30039,-0.24173 -0.0213,0.1285 0.28357,0.37619 0.2262,0.56831 -0.36926,1.23661 -0.45078,0.50593 -0.895,0.75465 -1.23194,0.68976 -0.40288,-0.0776 -0.46083,-0.0218 -0.24615,0.23685 0.21057,0.25373 0.001,0.60328 -0.83634,1.39773 -0.61443,0.58266 -1.43907,1.2582 -1.83255,1.5012 -0.62046,0.38318 -0.70825,0.5969 -0.66146,1.61035 0.0297,0.64269 0.15234,1.14956 0.27259,1.12637 0.32755,-0.0632 2.60001,5.10218 2.39243,5.43804 -0.10054,0.16268 -0.0586,0.21551 0.0955,0.12028 0.24732,-0.15285 0.49887,0.30366 0.97552,1.77036 0.1537,0.47297 0.18738,0.47386 0.88469,0.0233 0.3987,-0.25759 0.97245,-0.71697 1.27499,-1.02085 z m 11.22388,-10.88688 c 0,-0.22687 -0.12101,-0.33771 -0.2689,-0.2463 -0.1479,0.0914 -0.2004,0.27702 -0.11668,0.41249 0.22681,0.36699 0.38558,0.29856 0.38558,-0.16619 z m -9.12926,-30.923111 c 0.61977,-0.258956 0.92415,-0.592071 1.04539,-1.144077 0.27527,-1.25331 2.37752,-4.594968 3.69676,-5.876242 0.93909,-0.912066 1.31688,-1.537983 1.65446,-2.741104 l 0.43747,-1.559145 0.46544,0.617043 c 0.25599,0.339373 0.39612,0.739431 0.31141,0.889021 -0.0847,0.14959 -0.0563,0.183441 0.0631,0.07523 0.11942,-0.108214 0.38923,0.04895 0.59957,0.349258 0.32501,0.464019 0.5471,0.517872 1.47894,0.358622 3.06813,-0.524341 6.40595,0.149095 8.6465,1.744511 1.04464,0.743847 1.91619,0.534549 3.129,-0.751406 2.57361,-2.728825 2.65005,-6.619768 0.18499,-9.416737 -0.37264,-0.422817 -0.67753,-0.876326 -0.67753,-1.007803 0,-0.131474 -0.11191,-0.169884 -0.24868,-0.08535 -0.13677,0.08453 -0.64279,-0.08659 -1.12448,-0.380269 -0.48169,-0.29368 -1.08416,-0.534408 -1.33882,-0.534951 -0.25466,-5.29e-4 -0.4612,-0.09029 -0.45897,-0.199427 0.007,-0.319794 0.4875,-0.991735 0.7139,-0.997344 0.51919,-0.01286 1.89893,-1.065014 2.31068,-1.762048 0.85912,-1.454383 0.97797,-2.35902 0.50728,-3.861184 -0.24042,-0.767281 -0.49961,-1.332568 -0.57598,-1.256194 -0.0764,0.07637 -0.33303,-0.03686 -0.57035,-0.251624 -0.64792,-0.586356 -2.55055,-1.195951 -2.83741,-0.909092 -0.13427,0.134265 -0.701,0.272978 -1.25941,0.308253 l -1.01528,0.06413 0.0554,-1.896752 c 0.0559,-1.915547 -0.38547,-4.056372 -0.83639,-4.056372 -0.13461,0 -0.19631,-0.145302 -0.13712,-0.322895 0.20719,-0.621551 -2.88845,-2.111044 -4.42405,-2.128671 -1.45623,-0.01672 -3.68129,1.000866 -4.48095,2.049269 -0.59407,0.778868 -0.80105,1.387023 -1.3479,3.960373 -0.12779,0.601372 -0.22123,0.69224 -0.40809,0.396875 -0.15067,-0.238162 -0.24389,-0.263871 -0.24641,-0.06796 -0.002,0.173313 0.10982,0.385485 0.24898,0.471495 0.13917,0.08601 0.18599,0.331068 0.10407,0.544576 -0.114,0.297061 -0.27953,0.217427 -0.70507,-0.339203 -0.30586,-0.400069 -1.17643,-1.376731 -1.93459,-2.170356 l -1.37849,-1.442958 -2.33666,0.0011 c -1.57744,7.94e-4 -2.65403,0.140671 -3.31344,0.430834 -0.71411,0.31423 -1.01089,0.346239 -1.1036,0.119026 -0.0697,-0.170937 -0.1362,-0.09061 -0.14769,0.178493 -0.0115,0.269108 -0.43284,1.162076 -0.93634,1.984375 -1.57244,2.568054 -1.69769,4.662561 -0.427,7.140201 0.64586,1.259327 1.46045,2.000824 2.92995,2.667029 0.65484,0.296879 1.07156,0.549939 0.92604,0.562359 -0.14552,0.01243 0.011,0.133091 0.34773,0.268158 0.85717,0.343778 0.53276,0.677267 -0.84215,0.865722 -2.76127,0.378473 -5.80218,2.454505 -7.09909,4.846542 -1.30899,2.41432 -1.82279,5.850143 -1.1417,7.63466 0.7493,1.963235 1.52149,3.314353 2.41415,4.224086 0.56617,0.576998 0.98971,1.17231 0.9412,1.322917 -0.0485,0.150606 -0.007,0.19242 0.0927,0.09292 0.0995,-0.0995 0.89412,0.181517 1.76583,0.624485 2.49987,1.270342 5.77444,1.415712 8.28268,0.367702 z"
       id="path1792" /></g></svg>
