<?xml version="1.0" encoding="UTF-8" standalone="no"?>
<!-- Created with Inkscape (http://www.inkscape.org/) -->

<svg
   width="178.77722mm"
   height="229.58174mm"
   viewBox="0 0 178.7772 229.58176"
   version="1.1"
   id="svg5"
   xml:space="preserve"
   xmlns="http://www.w3.org/2000/svg"
   xmlns:svg="http://www.w3.org/2000/svg"><defs
     id="defs2" /><g
     id="layer1"
     transform="translate(-10.200099,-20.678916)"><path
       style="fill:#000000;stroke-width:0.264583"
       d="m 90.440173,250.17898 c -10.01298,-0.39136 -23.00258,-1.86306 -29.1802,-3.30606 -10.07657,-2.35373 -16.6589,-5.30366 -20.57697,-9.22173 -3.42356,-3.42356 -5.80533,-8.50108 -5.80533,-12.37596 0,-1.55605 0.21896,-1.28142 -3.18405,-3.99356 -6.92411,-5.51841 -13.07886,-14.10778 -16.55639,-23.10558 -3.54731,-9.17834 -4.88248,-17.18471 -4.93565,-29.59665 -0.0418,-9.7502 0.79322,-16.70803 3.25919,-27.15841 l 0.75831,-3.21363 -0.76234,-1.41658 c -2.02481,-3.76251 -2.46258,-7.28243 -1.75093,-14.07837 0.98264,-9.38378 3.41452,-20.24205 6.39714,-28.563094 2.69883,-7.52929 6.51822,-16.045356 10.22954,-22.808691 0.7972,-1.452784 1.83923,-3.355803 2.31563,-4.228928 0.47639,-0.873124 0.95309,-1.706562 1.05932,-1.852083 0.10623,-0.145521 1.05406,-1.812396 2.10629,-3.704166 4.02029,-7.227924 6.83067,-10.959957 12.92836,-17.168145 10.81872,-11.014765 23.1288,-18.327499 36.55433,-21.714886 8.80915,-2.222631 18.938077,-2.603232 28.178117,-1.058809 9.98874,1.669563 20.97757,6.143358 29.50104,12.010519 5.80921,3.998791 7.76544,5.634524 12.97629,10.850332 5.89199,5.897605 9.62083,10.786567 13.56885,17.790421 3.34382,5.931993 3.80851,6.798569 6.35882,11.858275 3.27233,6.492148 4.41258,9.052065 6.42292,14.419791 4.15646,11.097969 6.08379,20.311854 6.36463,30.427084 0.14164,5.10147 0.10795,5.74033 -0.41157,7.80521 -0.31121,1.23693 -1.16856,3.45079 -1.90522,4.91969 l -1.33938,2.67074 0.57231,1.69489 c 5.59984,16.58387 6.86467,33.86662 3.67722,50.24593 -2.4489,12.58407 -7.80707,23.04653 -15.66118,30.58031 -2.60896,2.50255 -7.63917,6.55262 -8.59299,6.91863 -0.19877,0.0763 -0.33487,0.59421 -0.33487,1.2744 0,1.89792 -0.7438,4.5118 -2.05386,7.2177 -1.05311,2.17517 -1.59843,2.92146 -3.62767,4.9646 -2.44274,2.45946 -3.28721,3.05374 -6.75388,4.75289 -3.94803,1.93508 -10.65373,4.10185 -15.47813,5.00135 -1.99754,0.37243 -9.62892,1.44974 -14.2875,2.01695 -7.16643,0.87254 -22.272707,1.44883 -30.030197,1.14562 z m 19.232167,-4.48351 c 3.81098,-0.21504 7.0852,-0.44841 7.27604,-0.51858 0.59683,-0.21946 7.71838,-0.89892 7.94617,-0.75814 0.11901,0.0736 0.601,0.02 1.0711,-0.11907 0.93009,-0.27508 4.08247,-0.91549 6.80785,-1.38301 2.49634,-0.42823 9.70112,-2.25242 11.24479,-2.8471 1.31486,-0.50653 2.06417,-0.8168 3.83646,-1.5886 2.91651,-1.27009 6.09694,-3.77699 7.70689,-6.07477 1.95069,-2.78408 2.96474,-5.88301 1.92508,-5.88301 -0.42489,0 -1.97275,0.76936 -2.22902,1.10793 -0.16155,0.21342 -1.37246,0.69638 -1.62049,0.64631 -0.0939,-0.0189 -0.39152,0.16284 -0.66145,0.40396 -0.45255,0.40423 -2.41898,1.07823 -2.7514,0.94304 -0.0792,-0.0322 -0.43635,0.12861 -0.79375,0.35734 -0.86179,0.55153 -2.7773,1.29587 -3.65215,1.41918 -0.38601,0.0544 -1.29715,0.34009 -2.02475,0.63484 -1.76938,0.71676 -5.12602,1.63303 -5.97862,1.63199 -0.37783,-5.3e-4 -1.04294,0.17675 -1.47803,0.3938 -0.43509,0.21705 -1.49518,0.50879 -2.35575,0.64832 -0.86058,0.13952 -2.75531,0.50926 -4.21052,0.82164 -2.69453,0.57841 -3.15765,0.6727 -6.87917,1.40049 -2.83173,0.55378 -7.36906,1.08734 -10.31262,1.21268 -0.57872,0.0246 -1.53122,0.14849 -2.11667,0.27521 -1.81695,0.39328 -5.76872,0.56678 -14.558197,0.63916 -9.03454,0.0744 -14.117,-0.13352 -18.62786,-0.76208 -1.54186,-0.21485 -3.33917,-0.45189 -3.99402,-0.52676 -2.22217,-0.25406 -6.47765,-0.95088 -7.54062,-1.23474 -0.58209,-0.15545 -1.65365,-0.37178 -2.38125,-0.48075 -3.84908,-0.57643 -13.89063,-3.68011 -13.89063,-4.29336 0,-0.13329 -0.11556,-0.17092 -0.25681,-0.0836 -0.14125,0.0873 -0.64726,-0.0495 -1.12448,-0.30402 -0.47721,-0.25451 -0.9272,-0.4718 -0.99996,-0.48286 -0.29653,-0.0451 -4.65922,-2.32562 -5.02708,-2.62783 -0.69223,-0.56868 -2.44295,-1.50177 -2.57326,-1.37146 -0.18743,0.18743 0.42432,1.92816 1.35278,3.84934 2.5211,5.21666 8.87034,9.0147 19.07985,11.41334 1.30969,0.3077 2.49934,0.63234 2.64367,0.72142 0.14433,0.0891 0.79917,0.20601 1.45521,0.25983 0.65604,0.0538 1.90717,0.2791 2.78029,0.50062 0.87312,0.22153 2.42094,0.51079 3.43958,0.64282 1.01865,0.13203 2.68552,0.36439 3.70417,0.51636 1.01865,0.15197 2.80458,0.33626 3.96875,0.40954 1.16417,0.0733 3.1287,0.25111 4.36562,0.3952 1.23693,0.14408 5.28506,0.32878 8.99584,0.41045 3.71078,0.0817 6.79907,0.19786 6.86286,0.2582 0.0638,0.0603 1.13535,0.044 2.381247,-0.0363 1.24589,-0.0803 5.38333,-0.32193 9.19431,-0.53698 z m -1.10822,-10.9642 c 1.89178,-0.17098 3.85631,-0.34749 4.36563,-0.39223 1.07172,-0.0942 1.86533,-0.21182 7.31756,-1.08489 2.20564,-0.35319 4.38176,-0.56787 4.83582,-0.47705 0.54825,0.10965 0.97868,0.0342 1.2814,-0.22449 0.25071,-0.21427 1.40834,-0.59415 2.57251,-0.84417 6.94476,-1.49148 16.83429,-4.27293 18.4511,-5.18941 0.25268,-0.14323 0.59969,-0.26042 0.77111,-0.26042 0.17143,0 1.18962,-0.41672 2.26265,-0.92604 1.07302,-0.50933 2.05867,-0.92605 2.19032,-0.92605 0.13165,0 0.63771,-0.23502 1.12457,-0.52228 0.48687,-0.28726 1.12581,-0.55901 1.41987,-0.60389 0.29406,-0.0449 0.70619,-0.22779 0.91585,-0.40649 0.54677,-0.46602 4.46885,-2.96525 4.65341,-2.96525 0.19875,0 2.78733,-1.87665 3.13612,-2.2736 0.14552,-0.16561 0.91943,-0.80541 1.71979,-1.42177 0.80036,-0.61635 1.98599,-1.61462 2.63472,-2.21837 0.64873,-0.60375 1.19444,-1.03819 1.2127,-0.96543 0.0183,0.0728 0.79556,-0.76068 1.72735,-1.85208 0.93178,-1.09141 1.76536,-2.04391 1.85241,-2.11667 0.087,-0.0728 0.78372,-1.05502 1.54816,-2.18281 0.76445,-1.12779 1.49851,-2.05052 1.63124,-2.05052 0.13274,0 0.24134,-0.22207 0.24134,-0.49349 0,-0.27141 0.22174,-0.77743 0.49277,-1.12448 0.27102,-0.34704 0.5818,-0.91494 0.69061,-1.26199 0.10881,-0.34705 0.68707,-1.65673 1.285,-2.91041 0.59794,-1.25368 1.05689,-2.38125 1.0199,-2.50571 -0.037,-0.12446 0.0588,-0.37819 0.21288,-0.56385 0.22597,-0.27227 1.06134,-2.99254 1.06134,-3.4561 0,-0.64365 -1.37944,0.99193 -2.85995,3.39098 -0.35478,0.5749 -0.73866,0.9205 -0.90695,0.81649 -0.18801,-0.1162 -0.2317,-0.0238 -0.12283,0.25995 0.0929,0.24215 0.0737,0.44028 -0.0426,0.44028 -0.11636,0 -0.35512,0.26822 -0.53056,0.59604 -0.17545,0.32783 -0.67182,0.79854 -1.10305,1.04603 -0.43122,0.24749 -0.78404,0.63586 -0.78404,0.86305 0,0.22719 -0.38696,0.649 -0.8599,0.93736 -0.47294,0.28836 -0.74406,0.52473 -0.60249,0.52528 0.67968,0.003 -3.05215,2.76955 -5.1522,3.82005 -4.40659,2.2043 -9.54487,2.59861 -13.8125,1.05996 -1.1212,-0.40423 -1.97822,-0.83258 -1.90449,-0.95189 0.0737,-0.1193 -0.035,-0.15204 -0.24158,-0.0728 -0.50398,0.19339 -3.76208,-2.30749 -3.71954,-2.85508 0.0193,-0.24866 -0.23545,-0.49669 -0.60558,-0.58959 -1.36897,-0.34359 -5.15799,-7.41204 -4.76952,-8.89757 0.0694,-0.26543 -0.01,-0.52789 -0.17644,-0.58324 -0.43919,-0.14605 -0.55878,-5.22413 -0.17581,-7.46535 0.37233,-2.17895 1.13613,-4.81401 1.87898,-6.48229 0.87993,-1.97615 3.201,-6.41466 3.92731,-7.51006 0.37481,-0.56528 0.88834,-1.33918 1.14119,-1.71979 0.25285,-0.38062 0.52074,-0.66226 0.59531,-0.62588 0.0746,0.0364 0.11547,0.0364 0.0909,0 -0.19479,-0.28819 1.33444,-2.21473 3.57049,-4.49812 1.09197,-1.11509 1.37927,-1.27831 1.98438,-1.12731 0.82006,0.20463 1.6806,0.90354 1.49074,1.21074 -0.0717,0.11601 -0.005,0.28871 0.1493,0.38378 0.44692,0.27621 0.002,1.24374 -1.03352,2.24497 -0.52652,0.50932 -1.07637,1.13052 -1.22189,1.38045 -0.14552,0.24992 -1.05857,1.61913 -2.02901,3.0427 -4.7907,7.02768 -6.61364,12.03468 -6.52943,17.93414 0.0249,1.74625 0.13802,3.35359 0.25131,3.57188 0.11329,0.21828 0.70063,1.46843 1.3052,2.77812 1.53908,3.33412 3.84213,5.55289 7.20551,6.94182 1.35359,0.55898 2.14551,0.69266 4.42663,0.74724 1.84457,0.0442 2.7559,0.16374 2.71198,0.3559 -0.0364,0.15918 0.26128,0.2858 0.66146,0.28137 0.64346,-0.007 0.67148,-0.0407 0.24229,-0.29021 -0.47069,-0.27365 -0.47069,-0.2922 0,-0.61576 0.26692,-0.18348 0.92951,-0.47809 1.47241,-0.65468 2.61255,-0.84977 6.9073,-4.43774 9.64679,-8.05923 0.67269,-0.88927 1.32347,-1.65655 1.44616,-1.70506 0.12269,-0.0485 0.22308,-0.20644 0.22308,-0.35095 0,-0.14451 0.57041,-1.11686 1.26759,-2.16076 0.69718,-1.04391 1.47735,-2.45418 1.73372,-3.13394 0.25636,-0.67976 0.63845,-1.37895 0.84907,-1.55375 0.21062,-0.1748 0.38295,-0.52679 0.38295,-0.7822 0,-0.2554 0.17859,-0.61259 0.39687,-0.79375 0.21829,-0.18115 0.39688,-0.49501 0.39688,-0.69744 0,-0.20244 0.10636,-0.57481 0.23637,-0.8275 0.13,-0.25269 0.38388,-1.11428 0.56418,-1.91464 0.18029,-0.80036 0.49065,-1.77672 0.68967,-2.16967 0.19902,-0.39296 0.36186,-1.13007 0.36186,-1.63803 0,-0.50797 0.10668,-0.9895 0.23706,-1.07008 1.20319,-0.74361 1.22587,-16.66792 0.0326,-22.90347 -0.15316,-0.80036 -0.46881,-2.46724 -0.70145,-3.70417 -0.23263,-1.23692 -0.53151,-2.45546 -0.66417,-2.70785 -0.13265,-0.2524 -0.29852,-0.90725 -0.36859,-1.45521 -0.27202,-2.12738 -0.45268,-2.98068 -0.63107,-2.98068 -0.10209,0 -0.33195,-0.56555 -0.5108,-1.25678 -0.17885,-0.69122 -0.5298,-1.52533 -0.77989,-1.85358 l -0.45471,-0.59681 -2.78005,2.71348 c -2.79064,2.72381 -3.65633,3.48221 -5.75861,5.0449 -0.62418,0.46397 -1.86576,1.41393 -2.75907,2.11103 -1.37835,1.0756 -3.80141,2.6609 -6.78596,4.43975 -1.95138,1.16307 -6.54922,3.50086 -8.77101,4.45968 -1.38024,0.59563 -2.71625,1.20089 -2.96893,1.34501 -1.65787,0.94562 -11.78117,4.26705 -14.50401,4.75873 -0.6628,0.11968 -1.67483,0.33664 -2.24896,0.48213 -0.57412,0.14549 -1.60663,0.34181 -2.29447,0.43628 -1.77551,0.24384 -2.05768,0.815 -1.23938,2.50869 0.27809,0.57558 0.50561,1.35774 0.50561,1.73814 0,0.3804 0.11595,0.90828 0.25766,1.17307 0.14171,0.26479 0.33206,1.1797 0.42299,2.03313 0.0909,0.85343 0.27512,1.75684 0.40931,2.00759 0.27108,0.50659 0.89035,4.48736 1.32852,8.53993 0.16081,1.48736 0.23476,5.19447 0.16889,8.46666 -0.13141,6.52829 -0.2254,6.88562 -2.15571,8.19556 -0.79621,0.54032 -1.30456,0.66799 -2.65997,0.66799 -1.17318,0 -1.77528,-0.12006 -2.00792,-0.40037 -0.18275,-0.2202 -0.52475,-0.36903 -0.76,-0.33073 -0.23525,0.0383 -0.39915,-0.0756 -0.36421,-0.25319 0.0349,-0.17756 -0.16091,-0.44294 -0.43519,-0.58973 -0.95541,-0.51132 -1.08335,-1.67549 -1.08896,-9.90869 -0.003,-5.02736 -0.14824,-9.37887 -0.39269,-11.80063 -0.49746,-4.92815 -0.53609,-5.18216 -1.21242,-7.97359 -0.49229,-2.03182 -0.6436,-2.34652 -1.13248,-2.35533 -0.31035,-0.006 -3.00506,-0.0176 -5.98823,-0.0266 -2.98318,-0.009 -6.19787,-0.11225 -7.14375,-0.2294 -3.64895,-0.45192 -7.621047,-1.07409 -9.483627,-1.48549 -1.69316,-0.37397 -2.23752,-0.38504 -4.23334,-0.0861 -1.25968,0.18866 -3.41986,0.39052 -4.80041,0.44857 -1.38054,0.058 -2.67818,0.24506 -2.88364,0.41557 -0.31065,0.25782 -0.33908,1.11224 -0.16878,5.0736 0.35098,8.1642 0.50078,14.54841 0.51842,22.09378 l 0.017,7.27604 -0.6524,0.9642 c -0.91555,1.35312 -1.46862,1.62218 -3.58093,1.74208 -1.52923,0.0868 -2.00198,0.0107 -2.71198,-0.43679 -0.51424,-0.32408 -0.8599,-0.75993 -0.8599,-1.08428 0,-0.2983 -0.18412,-0.82337 -0.40916,-1.16683 -0.35278,-0.5384 -0.38097,-1.34836 -0.2046,-5.87767 0.39342,-10.10351 0.1959,-28.11116 -0.31746,-28.94179 -0.0871,-0.14091 -0.65733,-0.25688 -1.26721,-0.25771 -2.06463,-0.003 -10.09197,-0.79244 -12.22136,-1.2022 -1.16417,-0.22401 -2.71198,-0.51788 -3.43958,-0.65303 -2.29298,-0.42592 -6.33356,-1.36806 -6.74793,-1.57341 -0.21887,-0.10846 -1.2309,-0.3999 -2.24896,-0.64762 -1.01807,-0.24773 -2.38681,-0.61025 -3.04165,-0.80561 -4.19505,-1.2515 -5.83631,-1.80677 -5.96741,-2.0189 -0.0821,-0.13281 -0.41606,-0.24148 -0.74217,-0.24148 -0.32611,0 -0.70604,-0.095 -0.84428,-0.2112 -0.13825,-0.11616 -0.9062,-0.43161 -1.70657,-0.701 -0.80036,-0.26939 -2.34817,-0.89469 -3.43958,-1.38954 -1.09141,-0.49486 -2.69875,-1.22121 -3.57187,-1.6141 -0.87313,-0.3929 -1.64704,-0.77389 -1.7198,-0.84666 -0.0728,-0.0728 -0.60854,-0.35032 -1.19062,-0.61681 -1.26809,-0.58054 -3.63331,-2.04216 -3.88145,-2.39859 -0.0975,-0.14006 -0.38473,-0.2851 -0.63827,-0.32231 -0.54228,-0.0796 -1.73961,-1.29497 -1.50594,-1.52864 0.0884,-0.0884 0.0516,-0.16984 -0.0818,-0.18097 -0.86334,-0.0721 -1.33316,-0.32453 -2.43862,-1.31046 -0.68392,-0.60997 -1.62513,-1.54173 -2.09157,-2.07058 -0.55406,-0.6282 -0.93592,-0.8703 -1.10149,-0.69835 -0.37377,0.38816 -1.54023,5.87786 -2.02359,9.52359 -0.67296,5.0758 -0.80902,14.07686 -0.28123,18.60554 0.7124,6.11283 2.42139,11.89945 4.85877,16.45175 0.777,1.4512 2.93721,4.82275 4.74665,7.40833 0.89922,1.28493 3.90754,4.01986 5.3544,4.8678 2.71988,1.59401 3.80868,1.87944 7.15394,1.87543 2.71715,-0.003 3.19841,-0.0769 4.49792,-0.68816 3.29565,-1.55024 6.11948,-4.79671 7.16627,-8.23885 0.71456,-2.34966 0.70129,-7.28926 -0.0272,-10.13776 -0.63573,-2.48571 -0.80502,-2.90997 -2.46856,-6.1865 -1.56765,-3.08765 -2.253,-4.19765 -4.1986,-6.80009 -0.83188,-1.11272 -1.43856,-2.14277 -1.34818,-2.289 0.0904,-0.14623 0.0471,-0.19345 -0.0961,-0.10493 -0.31232,0.19302 -2.20259,-2.20969 -2.20259,-2.79969 0,-1.09344 2.03747,-2.5477 2.5064,-1.78897 0.086,0.13917 0.30976,0.19417 0.49722,0.12224 0.44245,-0.16979 2.70946,2.67516 2.60774,3.27254 -0.0571,0.33562 -0.0168,0.36416 0.15565,0.10998 0.18666,-0.2752 0.30018,-0.26209 0.57259,0.0662 0.18688,0.22517 0.26103,0.4094 0.16478,0.4094 -0.0962,0 0.079,0.26789 0.38949,0.59531 0.79947,0.84312 2.21101,2.91025 2.27358,3.32954 0.029,0.19413 0.22937,0.49179 0.44533,0.66146 0.56003,0.43997 3.0715,5.35104 3.54038,6.92306 0.21702,0.72761 0.49116,1.44198 0.60921,1.5875 0.59643,0.73524 1.31888,4.97451 1.31888,7.73911 0,4.38146 -0.39199,5.98473 -2.44197,9.98797 -0.99048,1.93425 -2.79651,4.16515 -3.18002,3.92813 -0.15433,-0.0954 -0.20706,-0.0544 -0.11717,0.091 0.20637,0.3339 -3.08938,2.72772 -3.75545,2.72772 -0.27212,0 -0.64228,0.17774 -0.82257,0.39497 -0.87124,1.04979 -7.01152,1.77737 -9.03937,1.07111 -0.63177,-0.22002 -1.36084,-0.40178 -1.62018,-0.4039 -0.25933,-0.002 -0.91418,-0.19846 -1.45521,-0.43632 -0.54103,-0.23786 -1.16228,-0.45465 -1.38056,-0.48175 -0.57742,-0.0717 -2.64584,-1.42802 -2.64584,-1.73493 0,-0.1437 -0.18505,-0.26126 -0.41122,-0.26126 -0.67039,0 -4.72305,-4.11451 -6.47962,-6.57852 -0.89594,-1.25677 -1.982,-2.98168 -2.41347,-3.83315 -0.43148,-0.85147 -0.83793,-1.4947 -0.90323,-1.4294 -0.16027,0.16026 1.7723,5.72736 3.07361,8.8541 0.99292,2.38575 4.23317,8.17822 5.27252,9.42548 3.89597,4.67533 7.36953,8.18748 10.19579,10.30908 0.87312,0.65543 2.01295,1.60549 2.53293,2.11125 0.51999,0.50576 1.20633,1.00237 1.5252,1.10358 0.31887,0.1012 0.51147,0.2945 0.42801,0.42954 -0.0835,0.13504 0.01,0.24553 0.20714,0.24553 0.19738,0 1.48433,0.6853 2.85988,1.52289 1.37555,0.83759 3.27491,1.87607 4.2208,2.30773 1.83298,0.83649 2.72901,1.53195 2.43146,1.88718 -0.10038,0.11984 0.0219,0.0617 0.27165,-0.12916 0.38276,-0.29249 0.7051,-0.24974 2.05052,0.27196 0.878,0.34045 1.59637,0.70891 1.59637,0.81879 0,0.10988 0.33337,0.19978 0.74083,0.19978 0.40746,0 0.86835,0.12752 1.0242,0.28337 0.15586,0.15586 0.7881,0.34136 1.405,0.41223 0.61689,0.0709 1.73357,0.37018 2.48152,0.66514 0.74795,0.29495 1.83615,0.59369 2.41824,0.66386 0.9066,0.1093 3.48931,0.62166 5.29166,1.04978 0.29104,0.0691 0.94589,0.18574 1.45521,0.25914 0.50932,0.0734 1.34276,0.24862 1.85208,0.38939 1.8783,0.51912 10.57109,1.39022 17.19792,1.7234 1.96453,0.0988 3.59141,0.19368 3.61528,0.21091 0.19405,0.14002 14.724887,-0.38062 17.419087,-0.62414 z m 63.63229,-21.28934 c 0,-0.0642 -0.11906,-0.19026 -0.26458,-0.2802 -0.14552,-0.0899 -0.26458,-0.0374 -0.26458,0.11668 0,0.15411 0.11906,0.2802 0.26458,0.2802 0.14552,0 0.26458,-0.0525 0.26458,-0.11668 z M 83.208803,198.78615 c 0.18454,-0.24259 0.41534,-0.84557 0.51291,-1.33994 0.25675,-1.301 -0.20438,-20.53812 -0.82515,-34.42302 -0.35444,-7.92791 -0.47674,-8.73125 -1.32924,-8.73125 -0.21316,0 -0.38757,-0.11679 -0.38757,-0.25954 0,-0.4356 -1.35276,-0.64944 -1.59801,-0.25261 -0.22125,0.35799 -0.13207,5.55312 0.17004,9.90486 0.31468,4.53286 0.50112,18.51775 0.31026,23.27177 -0.10542,2.62574 -0.22448,6.30184 -0.26459,8.16911 -0.0714,3.3246 -0.0594,3.40599 0.57573,3.92205 0.75693,0.61499 2.27546,0.47499 2.83562,-0.26143 z m 46.389697,-2.845 c 0.33628,-0.33471 0.39273,-1.5952 0.36971,-8.25597 -0.0294,-8.51965 -0.34405,-11.44828 -1.86511,-17.36168 -0.37775,-1.46856 -0.84067,-3.32494 -1.02873,-4.12531 -0.40242,-1.71269 -2.4065,-8.71886 -2.74216,-9.58645 -1.15784,-2.99269 -1.46545,-3.35266 -2.42579,-2.8387 -0.39496,0.21137 -0.50825,0.55435 -0.50224,1.5204 0.009,1.37711 0.86025,6.00986 2.07768,11.30163 1.77413,7.71165 2.12297,11.61044 1.9457,21.74658 l -0.12582,7.1945 0.89161,0.55685 c 1.0048,0.62754 2.69796,0.55204 3.40515,-0.15185 z m 23.38429,-29.62441 c 0.0904,-0.23545 0.046,-0.34166 -0.10399,-0.24896 -0.14385,0.0889 -0.26155,0.27368 -0.26155,0.41061 0,0.38059 0.18964,0.29672 0.36554,-0.16165 z m -33.17396,-4.7777 c 0.13461,-0.1361 0.008,-1.01802 -0.30059,-2.08772 -0.30716,-1.06598 -0.55313,-2.7703 -0.57952,-4.0154 -0.0385,-1.81681 0.0419,-2.28299 0.50213,-2.91042 1.39385,-1.90034 3.78869,-2.11052 5.33756,-0.46843 0.47373,0.50225 0.87622,1.03197 0.89441,1.17716 0.0482,0.38434 0.11203,0.58542 0.42007,1.3223 0.15208,0.3638 0.54233,1.61396 0.86724,2.77812 0.3249,1.16417 0.69321,2.31103 0.81846,2.54858 0.21208,0.40223 1.82991,0.85493 1.82991,0.51205 0,-0.18282 3.85558,-1.07657 4.64344,-1.07638 0.29831,7e-5 0.6555,-0.10955 0.79375,-0.24361 0.13824,-0.13405 1.32291,-0.50536 2.6326,-0.82512 1.30969,-0.31976 2.67891,-0.7278 3.04271,-0.90677 0.3638,-0.17897 1.25677,-0.47794 1.98437,-0.66438 0.72761,-0.18645 1.91823,-0.607 2.64584,-0.93456 2.6967,-1.21404 3.25891,-1.45252 3.42429,-1.45252 0.0931,0 1.77797,-0.7771 3.74409,-1.7269 1.96611,-0.9498 3.70602,-1.64578 3.86646,-1.54662 0.16044,0.0992 0.22256,0.0684 0.13805,-0.0683 -0.0845,-0.13675 1.50443,-1.2491 3.53099,-2.47189 2.02656,-1.22279 3.68466,-2.3119 3.68466,-2.42025 0,-0.10835 0.25085,-0.27662 0.55745,-0.37393 0.30659,-0.0973 0.7867,-0.37322 1.06691,-0.61314 0.2802,-0.23992 0.56284,-0.37669 0.62808,-0.30393 0.0652,0.0728 0.30625,-0.13559 0.53559,-0.46302 0.22934,-0.32742 0.65537,-0.59531 0.94675,-0.59531 0.29138,0 0.45989,-0.11309 0.37446,-0.25131 -0.0854,-0.13822 0.11591,-0.39524 0.44741,-0.57115 0.3315,-0.17592 0.7583,-0.53908 0.94845,-0.80703 0.19016,-0.26794 0.47103,-0.48717 0.62417,-0.48717 0.15314,0 0.57934,-0.2679 0.94712,-0.59532 1.24746,-1.11057 7.07693,-7.02734 7.40599,-7.51689 3.96735,-5.90231 4.00356,-6.01123 4.20846,-12.65759 0.0753,-2.4421 5.3e-4,-5.35285 -0.17656,-6.87916 -0.16889,-1.45521 -0.3614,-3.36021 -0.4278,-4.23334 -0.0664,-0.87312 -0.18872,-1.76609 -0.27182,-1.98437 -0.0831,-0.21828 -0.18323,-0.69453 -0.22253,-1.05834 -0.0393,-0.3638 -0.39766,-1.85208 -0.79636,-3.30729 -0.3987,-1.45521 -0.75366,-2.88396 -0.78881,-3.175 -0.0352,-0.291039 -0.13415,-0.707758 -0.21999,-0.926039 -0.68321,-1.737273 -1.77228,-5.245367 -1.81909,-5.859566 -0.0316,-0.41526 -0.15126,-0.755017 -0.26583,-0.755017 -0.11457,0 -0.2083,-0.238125 -0.2083,-0.529167 0,-0.291041 -0.093,-0.529166 -0.20658,-0.529166 -0.2794,0 -0.87066,-1.607453 -0.6955,-1.890856 0.0768,-0.124195 0.0374,-0.225811 -0.0875,-0.225811 -0.12488,0 -0.38083,-0.446484 -0.56879,-0.992187 -0.33591,-0.975236 -1.5013,-3.481504 -3.5102,-7.548975 -0.55927,-1.132377 -1.01686,-2.233705 -1.01686,-2.447396 0,-0.213688 -0.11628,-0.388525 -0.25841,-0.388525 -0.14212,0 -0.47921,-0.446484 -0.74907,-0.992187 -0.78928,-1.596025 -1.63703,-3.01303 -2.04913,-3.42514 -0.21064,-0.210635 -0.38297,-0.544555 -0.38297,-0.742047 0,-0.197493 -0.14883,-0.516412 -0.33073,-0.708705 -0.54404,-0.57512 -1.69856,-2.399758 -2.17312,-3.43443 -0.24422,-0.532471 -0.67373,-1.176004 -0.95447,-1.430067 -0.28074,-0.254066 -0.51043,-0.622078 -0.51043,-0.817806 0,-0.195725 -0.12609,-0.355867 -0.2802,-0.355867 -0.15411,0 -0.19525,-0.137459 -0.0914,-0.305464 0.11194,-0.181131 0.0731,-0.233953 -0.0955,-0.12977 -0.30971,0.191412 -1.26306,-0.880446 -1.52935,-1.719482 -0.0914,-0.287968 -0.87022,-1.214623 -1.7307,-2.059231 -0.86049,-0.844608 -1.56452,-1.658004 -1.56452,-1.807546 0,-0.14954 -0.18614,-0.343321 -0.41364,-0.430623 -0.22751,-0.0873 -0.33772,-0.281583 -0.24492,-0.431736 0.0928,-0.150157 0.0208,-0.240292 -0.16004,-0.200308 -0.18082,0.03999 -0.45786,-0.165423 -0.61564,-0.456465 -0.33241,-0.613164 -5.39102,-5.818655 -5.66089,-5.825259 -0.38695,-0.0095 -1.3358,-1.029965 -1.18481,-1.274276 0.0878,-0.142047 0.0426,-0.185931 -0.10048,-0.09752 -0.14305,0.08841 -0.61821,-0.161081 -1.0559,-0.554432 -0.8078,-0.725964 -3.44153,-2.92776 -3.92514,-3.281418 -0.14552,-0.106415 -0.6813,-0.54006 -1.19062,-0.963652 -0.9786,-0.813874 -5.96711,-4.096507 -8.53654,-5.617371 -1.06805,-0.632185 -1.47963,-1.022273 -1.37339,-1.301681 0.11287,-0.296868 0.0747,-0.32262 -0.14911,-0.100621 -0.22361,0.221794 -0.99144,-0.05014 -2.99223,-1.059741 -1.48029,-0.746953 -3.52488,-1.703287 -4.54352,-2.125186 -1.01865,-0.421902 -2.32834,-0.973858 -2.91042,-1.226569 -1.54161,-0.669295 -6.02226,-2.068295 -8.46667,-2.64356 -8.5074,-2.002131 -17.166867,-2.309918 -24.870827,-0.883994 -1.16416,0.215474 -2.77151,0.491937 -3.57187,0.614357 -3.50061,0.535445 -11.15601,3.329064 -16.66875,6.082789 -5.4433,2.719035 -8.46246,4.609057 -13.36146,8.364418 -4.58952,3.518122 -11.50569,10.096624 -13.95598,13.274595 -0.47338,0.613963 -1.00951,1.119978 -1.19141,1.124479 -0.18191,0.0045 -0.30097,0.105481 -0.26459,0.224404 0.0364,0.118924 -0.70776,1.200597 -1.65364,2.403718 -9.45716,12.02905 -16.48898,26.393959 -20.34686,41.565469 -1.8962,7.45701 -3.46564,17.72764 -3.46564,22.67956 0,1.94013 0.53452,5.11766 0.96824,5.75588 0.19507,0.28704 0.35467,0.85962 0.35467,1.27239 0,0.41277 0.10337,0.6866 0.22972,0.60852 0.18882,-0.11669 2.46566,2.97676 2.65205,3.60324 0.088,0.29564 1.91349,2.06375 2.13077,2.06375 0.32817,0 1.08637,0.95665 0.9033,1.13972 -0.0939,0.0939 0.0547,0.2553 0.33015,0.35864 0.27549,0.10334 1.34493,0.82052 2.37653,1.59373 1.0316,0.7732 1.94836,1.40583 2.03725,1.40583 0.0889,0 0.67361,0.34492 1.29937,0.7665 1.34575,0.90664 6.01792,3.46683 6.32672,3.46683 0.11813,0 1.08253,0.40046 2.14311,0.8899 1.06058,0.48945 2.37481,1.09035 2.92051,1.33533 0.54571,0.24499 0.99219,0.58272 0.99219,0.75052 0,0.21349 0.0836,0.2215 0.27841,0.0267 0.19483,-0.19483 1.04873,-0.004 2.84427,0.63699 2.55819,0.91267 5.28552,1.73604 9.04815,2.7316 1.09141,0.28878 2.2225,0.6322 2.51354,0.76316 0.29105,0.13096 0.94589,0.30457 1.45521,0.38581 0.50933,0.0812 1.16417,0.2007 1.45521,0.26549 0.29104,0.0648 1.51568,0.30218 2.72141,0.52753 1.20574,0.22535 2.42747,0.53562 2.71497,0.68948 0.2875,0.15387 0.67021,0.2527 0.85047,0.21963 0.18025,-0.0331 0.80398,0.019 1.38607,0.11572 0.58208,0.0967 2.18942,0.24624 3.57187,0.33227 1.38245,0.086 3.33562,0.26935 4.34039,0.40738 2.95268,0.40563 2.85489,0.53793 2.70657,-3.66198 -0.10316,-2.92115 -0.20571,-3.63756 -0.54809,-3.82916 -1.2319,-0.68941 -12.12619,-4.04119 -19.99262,-6.15101 -6.79099,-1.82139 -12.29822,-3.80579 -15.09467,-5.439 -2.62461,-1.53285 -6.36462,-5.39004 -5.9215,-6.10702 0.11399,-0.18444 0.084,-0.24776 -0.0718,-0.15149 -0.27916,0.17253 -1.6662,-2.13272 -1.6662,-2.76921 0,-0.20074 -0.2297,-0.79356 -0.51045,-1.31736 -0.28074,-0.52381 -0.57626,-1.35549 -0.65671,-1.84817 -0.0804,-0.49268 -0.22847,-1.3125 -0.32894,-1.82183 -0.38166,-1.93482 -0.30178,-8.83422 0.13633,-11.77396 0.23855,-1.60073 0.50785,-3.02948 0.59845,-3.175 0.0906,-0.14552 0.25107,-0.8599 0.3566,-1.5875 0.10554,-0.7276 0.36789,-1.8587 0.58301,-2.51354 1.00066,-3.04613 2.06984,-5.85667 2.91891,-7.67292 0.51022,-1.091405 1.06384,-2.28203 1.23027,-2.645832 0.57084,-1.247836 2.39477,-4.365622 2.60553,-4.453818 0.11591,-0.04851 0.21075,-0.263118 0.21075,-0.476914 0,-0.483175 2.88812,-4.858851 3.20703,-4.858851 0.1279,0 0.23255,-0.168373 0.23255,-0.37416 0,-0.205788 0.40588,-0.792102 0.90194,-1.302917 0.49607,-0.510815 0.84293,-0.987774 0.7708,-1.059908 -0.0721,-0.07213 0.17683,-0.332951 0.55326,-0.579596 0.37643,-0.246644 0.68442,-0.601012 0.68442,-0.787482 0,-0.18647 0.41671,-0.704919 0.92604,-1.152112 0.50932,-0.447191 0.92604,-0.92519 0.92604,-1.06222 0,-0.137033 0.38695,-0.558525 0.85989,-0.936652 0.47295,-0.378126 0.93298,-0.775665 1.0223,-0.883417 0.0893,-0.107751 1.00647,-1.07406 2.03812,-2.147355 1.57444,-1.638004 1.98432,-1.930683 2.55189,-1.822186 0.51574,0.09859 0.6117,0.05157 0.40442,-0.198186 -0.32999,-0.397618 1.15059,-2.120617 1.58928,-1.84949 0.15315,0.09465 0.24574,0.03495 0.20576,-0.132686 -0.0656,-0.275132 1.351,-1.413206 4.09448,-3.289363 2.67165,-1.827036 6.17109,-3.853519 6.65447,-3.853519 0.23273,0 0.42314,-0.113601 0.42314,-0.252447 0,-0.138848 1.39898,-0.93727 3.10885,-1.774274 2.34806,-1.149406 3.38368,-1.518481 4.23186,-1.508154 0.88529,0.01077 1.06331,-0.05826 0.84101,-0.326113 -0.21789,-0.26254 -0.0221,-0.413776 0.86137,-0.665252 0.62885,-0.179006 1.25648,-0.424458 1.39472,-0.545446 0.13824,-0.120989 0.5777,-0.21998 0.97657,-0.21998 0.39887,0 0.79681,-0.115827 0.8843,-0.257395 0.0875,-0.141565 0.66006,-0.385715 1.27238,-0.542554 0.61232,-0.156837 1.88722,-0.517769 2.8331,-0.802069 2.2147,-0.66566 5.75103,-1.322236 7.9375,-1.473724 0.94589,-0.06553 2.36674,-0.233741 3.15745,-0.37379 1.86463,-0.330261 5.355717,-0.325522 7.178857,0.0097 0.79071,0.145404 2.21156,0.311592 3.15744,0.369305 2.51912,0.153699 5.42778,0.669605 7.11669,1.26228 0.81525,0.286088 2.00974,0.63179 2.65442,0.768223 2.5769,0.545346 12.5172,4.845319 13.56658,5.868627 0.26114,0.254661 0.63096,0.463021 0.8218,0.463021 0.19084,0 0.58899,0.225467 0.88478,0.501039 0.29579,0.275568 0.88379,0.693803 1.30666,0.929407 1.33175,0.741979 1.78946,1.053205 3.24665,2.207575 0.78071,0.618463 1.52485,1.124479 1.65365,1.124479 0.1288,0 0.23419,0.164708 0.23419,0.366016 0,0.201308 0.2501,0.431419 0.55579,0.511358 0.35371,0.0925 0.48314,0.262877 0.35599,0.468614 -0.12818,0.207407 -0.0896,0.255159 0.1077,0.133231 0.33504,-0.207068 1.09718,0.417234 1.09718,0.898747 0,0.164502 0.1075,0.232659 0.23889,0.151458 0.47741,-0.295047 9.28611,8.693213 9.28611,9.475403 0,0.09131 0.20836,0.395603 0.46303,0.676212 0.77448,0.853406 1.03346,1.202121 2.29711,3.093064 0.66919,1.001381 1.32875,1.958932 1.46569,2.12789 0.40246,0.496551 2.22251,3.571898 2.79093,4.715848 0.28813,0.579864 0.6727,1.213448 0.8546,1.407962 0.1819,0.194516 0.33073,0.469728 0.33073,0.611584 0,0.141854 0.40034,1.115616 0.88965,2.163913 0.48931,1.048298 0.97881,2.203656 1.08777,2.567456 0.10896,0.3638 0.34868,1.01864 0.53271,1.45521 0.3053,0.72423 1.11293,3.3626 1.74132,5.68854 0.59064,2.1862 0.7585,6.28486 0.38716,9.45332 -0.44176,3.76919 -2.45622,10.09664 -3.0898,9.70506 -0.12424,-0.0768 -0.2259,0.10959 -0.2259,0.41417 0,1.30177 -4.33922,6.66612 -6.3558,7.85734 -0.43337,0.256 -0.78795,0.55473 -0.78795,0.66385 0,0.24063 -4.23885,3.05878 -4.77727,3.17611 -0.21016,0.0458 -0.44163,0.14587 -0.51439,0.22238 -0.16966,0.17838 -5.25342,2.28061 -5.95313,2.46172 -0.29104,0.0753 -4.2201,1.38465 -8.73125,2.90959 -14.04494,4.74775 -23.18778,8.87236 -29.56718,13.33866 -1.12779,0.78958 -2.05052,1.33966 -2.05052,1.22241 0,-0.11726 -0.19442,0.0644 -0.43205,0.40364 -0.30297,0.43255 -0.343757,0.6714 -0.13652,0.79948 0.40105,0.24787 6.64541,1.06901 10.22586,1.34471 3.47028,0.26723 9.06485,0.17271 9.39262,-0.15868 z m -30.460067,-1.06246 c 0.45475,-0.0909 0.82682,-0.28023 0.82682,-0.42061 0,-0.292 -1.07508,-1.24407 -1.41976,-1.25731 -0.12602,-0.005 -0.78087,-0.40667 -1.4552,-0.89297 -1.78584,-1.28784 -2.14424,-1.36914 -2.1891,-0.49659 -0.0529,1.02984 0.0711,2.80132 0.21244,3.03441 0.14582,0.24042 2.87588,0.26285 4.0248,0.0331 z m 13.064287,-6.55649 c 1.71014,-1.11451 3.31748,-2.10317 3.57188,-2.19702 0.25439,-0.0939 0.52321,-0.25912 0.59737,-0.36725 0.30548,-0.44539 8.37009,-4.253 12.43287,-5.87004 5.57433,-2.21865 7.31107,-2.84146 16.00729,-5.74033 4.14549,-1.38189 8.25551,-2.93774 9.79267,-3.70702 1.45691,-0.72911 2.76659,-1.3262 2.91042,-1.32688 0.14382,-7.9e-4 0.62205,-0.32809 1.06273,-0.7276 0.44068,-0.39951 1.32352,-1.13472 1.96186,-1.6338 2.8761,-2.24868 5.59102,-6.37308 6.89171,-10.46966 0.18481,-0.58209 0.4239,-1.1774 0.53129,-1.32292 0.3075,-0.41665 0.37479,-1.74409 0.3722,-7.34268 -0.002,-3.70455 -0.0947,-5.3183 -0.31942,-5.54302 -0.17435,-0.17436 -0.31701,-0.54201 -0.31701,-0.81701 0,-0.88357 -1.62251,-5.25969 -3.08116,-8.310238 -0.77921,-1.629621 -1.41675,-3.037109 -1.41675,-3.127753 0,-0.09064 -0.1786,-0.3434 -0.39688,-0.561681 -0.21828,-0.218282 -0.39687,-0.686025 -0.39687,-1.039434 0,-0.356505 -0.15581,-0.642559 -0.34998,-0.642559 -0.19248,0 -0.61103,-0.522722 -0.93011,-1.161603 -0.31907,-0.638884 -0.75689,-1.308307 -0.97294,-1.487607 -0.21604,-0.1793 -0.39281,-0.492675 -0.39281,-0.696391 0,-0.203713 -0.49141,-0.90351 -1.09203,-1.555102 -0.60061,-0.651592 -0.99458,-1.184714 -0.87547,-1.184714 0.11911,0 0.0346,-0.148828 -0.18773,-0.330729 -0.22236,-0.181901 -1.16651,-1.283229 -2.09811,-2.447396 -3.56974,-4.460888 -10.78645,-10.973945 -14.39978,-12.99575 -0.43656,-0.244277 -1.15094,-0.709316 -1.5875,-1.033426 -1.06808,-0.792951 -7.32965,-3.89296 -9.35441,-4.631224 -0.89419,-0.326035 -1.6258,-0.695904 -1.6258,-0.821925 0,-0.126024 -0.26789,-0.230651 -0.59531,-0.232511 -0.32742,-0.0019 -1.49018,-0.289221 -2.5839,-0.638588 -1.09372,-0.349366 -3.47497,-0.966943 -5.29166,-1.372396 -3.06637,-0.684358 -3.76764,-0.740942 -9.78538,-0.789551 -6.549167,-0.0529 -8.171457,0.0916 -12.170827,1.084069 -2.07104,0.513943 -6.80322,1.919724 -7.54062,2.240082 -0.29105,0.126442 -0.88636,0.343318 -1.32292,0.481952 -1.97005,0.625596 -11.56168,5.321712 -12.6997,6.217845 -0.14569,0.114718 -1.21738,0.821449 -2.38155,1.570517 -1.16417,0.749067 -2.1762,1.438079 -2.24896,1.531141 -0.0728,0.09306 -0.53517,0.398359 -1.02759,0.678441 -0.49241,0.280083 -1.33918,0.92596 -1.88171,1.435283 -1.23798,1.162217 -3.6719,3.391469 -4.51841,4.138469 -0.35314,0.311627 -1.41599,1.438127 -2.36187,2.503337 -0.94589,1.06521 -1.98768,2.214636 -2.31511,2.554287 -0.32742,0.339649 -0.59531,0.708917 -0.59531,0.820598 0,0.11168 -0.35718,0.545263 -0.79375,0.963517 -0.43656,0.418253 -0.7964,0.887013 -0.79963,1.041688 -0.003,0.154676 -0.24614,0.578885 -0.53978,0.942687 -0.91054,1.128104 -2.76398,4.020187 -3.73038,5.820833 -0.50765,0.945885 -1.06083,1.957916 -1.22929,2.248958 -0.54367,0.939324 -2.25443,4.723874 -2.75083,6.085414 -2.39672,6.57376 -3.37529,11.45801 -3.43712,17.15541 -0.0523,4.82043 0.51527,7.722 2.06567,10.56024 0.21877,0.40048 0.31295,0.86536 0.2093,1.03307 -0.11406,0.18456 -0.0723,0.23315 0.10575,0.1231 0.16968,-0.10487 0.46035,0.13948 0.68679,0.57737 0.65756,1.27159 3.36688,3.6989 5.18619,4.64636 3.30049,1.71884 6.25421,2.72425 14.51193,4.93972 4.13869,1.11036 7.34932,2.07434 10.22661,3.0705 1.01865,0.35267 2.14974,0.68787 2.51354,0.7449 0.54028,0.0847 7.12239,2.45037 9.12813,3.28074 2.99145,1.23847 8.41691,4.4267 11.62393,6.83073 l 2.89268,2.16839 2.00211,-1.66873 c 1.10116,-0.91781 3.401307,-2.58061 5.111447,-3.69511 z M 61.840723,124.68763 c -1.96577,-0.76909 -5.95515,-3.72889 -5.03015,-3.73196 0.22946,-8e-4 0.11104,-0.24063 -0.3126,-0.63326 -0.92255,-0.85499 -1.34844,-2.49516 -1.34733,-5.1888 0.002,-4.49471 1.99403,-7.8084 5.82537,-9.68966 1.42343,-0.69893 1.78979,-0.76138 4.4666,-0.76138 2.76071,0 3.00986,0.0462 4.67911,0.86798 2.06912,1.01863 3.8109,2.815 4.88131,5.03429 1.4818,3.07224 0.88892,8.26639 -1.16466,10.20337 -0.47338,0.44651 -0.8607,0.93777 -0.8607,1.09169 0,0.60514 -2.07817,2.01357 -4.04482,2.74127 -1.97356,0.73026 -5.31547,0.76158 -7.09213,0.0665 z m 2.60655,-10.61092 c 1.958,-1.19381 2.54175,-3.79667 1.18821,-5.29811 -1.45108,-1.60965 -3.85285,-1.23158 -5.3652,0.84455 -0.73244,1.00548 -0.81524,1.28977 -0.68022,2.33546 0.30319,2.34807 2.73835,3.40998 4.85721,2.1181 z m 66.635497,8.0057 c -0.5661,-0.0583 -1.20653,-0.28326 -1.42318,-0.49991 -0.21665,-0.21665 -0.53248,-0.34073 -0.70186,-0.27573 -0.4101,0.15737 -2.42008,-1.25138 -2.33579,-1.63711 0.0364,-0.1665 -0.10572,-0.30272 -0.31577,-0.30272 -0.21006,0 -0.59292,-0.35718 -0.8508,-0.79375 -0.25788,-0.43656 -0.56227,-0.79375 -0.67642,-0.79375 -0.11414,0 -0.20753,-0.12559 -0.20753,-0.27909 0,-0.15351 -0.25842,-0.83812 -0.57425,-1.52136 -0.61744,-1.33568 -0.82189,-4.5839 -0.40295,-6.40163 0.7696,-3.3391 4.11677,-6.67379 7.3272,-7.29986 1.36178,-0.26557 4.32449,-0.3258 4.6302,-0.0941 0.14552,0.11027 0.62177,0.25963 1.05834,0.3319 1.06502,0.17632 1.71979,0.45504 1.71979,0.73209 0,0.12539 0.17976,0.15899 0.39946,0.0747 0.51462,-0.19748 3.83387,3.14713 3.83387,3.86317 0,0.28257 0.16175,0.60898 0.35945,0.72535 0.87787,0.51674 1.46665,4.4412 0.85135,5.67459 -0.21375,0.42847 -0.25883,0.80709 -0.11341,0.95251 0.32596,0.32596 -0.37147,2.33515 -0.78089,2.24959 -0.18444,-0.0386 -0.31764,0.23744 -0.31923,0.66146 -0.002,0.43444 -0.2415,0.91753 -0.59532,1.19898 -2.03869,1.62173 -3.3215,2.45611 -3.89831,2.53557 -0.36294,0.05 -1.10234,0.31662 -1.6431,0.5925 -0.96655,0.49309 -2.61262,0.5876 -5.34085,0.30664 z m 0.61402,-10.51117 c 1.36925,-0.70807 2.13504,-1.89221 2.13504,-3.30142 0,-1.57571 -0.70627,-2.57118 -1.99584,-2.81311 -2.947,-0.55286 -5.5757,1.88766 -4.85288,4.50549 0.35292,1.27819 1.35898,1.99641 2.7965,1.99641 0.64245,0 1.50518,-0.17432 1.91718,-0.38737 z m -33.980577,9.72763 c -3.00198,-0.39748 -5.85851,-2.05376 -6.97831,-4.04617 -0.34338,-0.61097 -0.62289,-1.58991 -0.64891,-2.27271 -0.038,-0.99729 0.0658,-1.28509 0.61576,-1.70765 1.2867,-0.9886 2.24198,-0.59672 3.55716,1.45924 1.03636,1.62008 1.97445,2.21346 3.85069,2.43567 2.948577,0.34921 5.279927,-0.87142 6.570787,-3.44029 0.9284,-1.84756 1.40536,-2.18282 2.70065,-1.89833 2.21926,0.48744 1.81515,4.17148 -0.71454,6.51421 -2.25357,2.08701 -6.05,3.34044 -8.953287,2.95603 z m 49.873947,17.27867 c 0,-0.0572 -0.17859,-0.17251 -0.39687,-0.25628 -0.21828,-0.0838 -0.39688,-0.037 -0.39688,0.10399 0,0.14095 0.1786,0.25628 0.39688,0.25628 0.21828,0 0.39687,-0.0468 0.39687,-0.10399 z M 39.975243,58.964931 c 2.4127,-3.142882 3.1672,-4.0402 5.68883,-6.765631 2.79799,-3.024134 8.1211,-7.695231 11.89231,-10.435663 1.34095,-0.974429 2.4925,-1.77169 2.55899,-1.77169 0.0665,0 0.93388,-0.545221 1.92753,-1.211601 6.36271,-4.267073 16.88149,-8.651512 24.62136,-10.262689 7.6934,-1.601502 16.564097,-1.801603 24.545697,-0.553689 3.32361,0.519642 5.97019,1.190279 10.03439,2.542694 8.1923,2.726091 13.56963,5.379505 21.18644,10.454324 4.35735,2.903159 4.62298,3.102856 4.62674,3.478347 0.002,0.19049 0.11625,0.276641 0.2541,0.191445 0.31176,-0.192678 3.77226,2.758736 7.35614,6.27394 1.49159,1.463008 2.70991,2.552933 2.70738,2.422059 -0.0156,-0.805548 -10.92995,-12.011913 -11.69894,-12.011913 -0.12867,0 -0.14899,-0.137459 -0.0452,-0.305464 0.1039,-0.168101 0.0737,-0.234366 -0.067,-0.147357 -0.1407,0.08696 -0.60153,-0.138949 -1.02405,-0.502018 -0.42253,-0.363067 -1.15924,-0.901779 -1.63715,-1.197136 -0.4779,-0.29536 -0.86891,-0.64637 -0.86891,-0.780021 0,-0.133652 -0.11865,-0.243004 -0.26368,-0.243004 -0.14502,0 -0.94869,-0.480171 -1.78594,-1.067046 -2.75245,-1.929373 -3.59368,-2.425393 -7.87225,-4.641781 -7.16828,-3.713321 -13.02162,-5.741348 -20.71128,-7.175911 -3.61474,-0.674357 -4.39942,-0.727164 -10.90643,-0.73397 -8.680977,-0.0091 -11.563757,0.350519 -18.785407,2.343291 -3.79369,1.046846 -9.5704,3.321691 -13.22917,5.209591 -4.97523,2.56719 -11.3302,6.906153 -14.55208,9.935696 -0.80037,0.752583 -2.01982,1.869953 -2.7099,2.483043 -1.81893,1.61599 -6.2307,6.629214 -8.26328,9.389794 -0.9643,1.309688 -1.94883,2.64201 -2.18783,2.96072 -0.239,0.318709 -0.5491,0.508672 -0.68911,0.42214 -0.14757,-0.09121 -0.16753,-0.01651 -0.0475,0.177715 0.11389,0.184277 0.10141,0.411033 -0.0277,0.503901 -0.26661,0.191723 -1.68507,2.33358 -1.68507,2.544435 0,0.427503 0.53862,-0.06841 1.65799,-1.526551 z"
       id="path1640" /></g></svg>
