<?xml version="1.0" encoding="UTF-8" standalone="no"?>
<!-- Created with Inkscape (http://www.inkscape.org/) -->

<svg
   width="205.4749mm"
   height="216.02946mm"
   viewBox="0 0 205.47489 216.02946"
   version="1.1"
   id="svg5"
   xml:space="preserve"
   xmlns="http://www.w3.org/2000/svg"
   xmlns:svg="http://www.w3.org/2000/svg"><defs
     id="defs2" /><g
     id="layer1"
     transform="translate(71.616515,-59.254742)"><path
       style="fill:#000000;stroke-width:0.264583"
       d="m 69.825849,274.92539 c -3.66815,-0.98644 -6.12404,-5.44791 -5.12715,-9.3142 0.22042,-0.85487 0.46386,-1.7329 0.54098,-1.95118 0.0952,-0.2694 -0.33605,-0.69433 -1.34248,-1.32292 -0.81549,-0.50932 -2.55358,-1.97127 -3.86243,-3.24878 l -2.37974,-2.32274 -3.46783,0.78193 c -13.1843,2.97283 -26.01581,3.10184 -39.71574,0.3993 -4.17418,-0.82342 -8.1624201,-1.79825 -10.3820701,-2.53763 -1.24274,-0.41397 -1.73928,-0.47648 -2.00871,-0.25287 -0.19685,0.16337 -0.45534,0.20877 -0.57442,0.10089 -0.11909,-0.10787 -0.13712,-0.0574 -0.0401,0.11211 0.15183,0.26528 -1.39770995,1.55686 -4.23286,3.52821 -0.31393,0.21828 -2.68793,2.00422 -5.27555,3.96875 -7.1051399,5.39425 -7.2759999,5.51584 -8.8394399,6.29046 -1.3169,0.65247 -1.71924,0.71911 -4.23333,0.70119 -3.07693,-0.0219 -4.74623,-0.51808 -8.19433,-2.43543 -3.357,-1.8667 -6.50406,-4.37001 -6.1711,-4.90876 0.098,-0.15855 -0.0107,-0.19921 -0.26836,-0.10036 -0.811261,0.31131 -4.601748,-4.63584 -5.772021,-7.53336 -1.674157,-4.14509 0.208153,-8.14079 4.897519,-10.39629 1.761992,-0.84748 2.347282,-0.99222 4.468452,-1.10498 1.71763,-0.0913 2.83288,-0.0137 3.7638,0.26193 0.7276,0.21544 1.56104,0.45009 1.85208,0.52145 0.40076,0.0983 1.02649,-0.39709 2.57854,-2.04127 l 2.04937,-2.17102 -1.5202,-1.66591 c -2.28461,-2.50357 -4.30576,-5.29656 -6.52736,-9.02004 -5.01706,-8.40876 -8.153307,-17.16597 -9.823987,-27.43108 -0.398417,-2.44799 -0.796276,-4.5319 -0.884129,-4.63091 -0.08785,-0.099 -1.007896,-0.0453 -2.044544,0.11945 l -1.884812,0.29945 0.03273,7.68576 c 0.03138,7.36805 0.0071,7.76725 -0.586327,9.65709 -0.742527,2.36451 -2.115365,5.16187 -4.568796,9.30958 -3.954338,6.68512 -4.699013,9.04217 -4.920466,15.5743 -0.159391,4.7014 0.202091,10.76659 0.922483,15.47813 0.663575,4.33994 0.609788,5.62597 -0.292301,6.98856 -2.020324,3.05166 -8.282035,3.45906 -11.261241,0.73268 -0.347075,-0.31762 -0.942387,-1.23234 -1.322916,-2.0327 l -0.691872,-1.45521 0.01546,-8.06979 c 0.02876,-15.01116 0.938077,-19.95585 5.814401,-31.61771 3.726074,-8.911 4.737168,-12.97217 5.05075,-20.28688 l 0.177795,-4.1473 -1.014857,-0.42404 c -7.260571,-3.03365 -10.490435,-11.71537 -6.90223,-18.55285 0.842825,-1.60604 2.013325,-3.05082 2.020638,-2.49413 0.0029,0.21831 0.155411,0.0993 0.33904,-0.26459 0.388168,-0.76913 2.757675,-2.2619 4.288583,-2.70176 0.582084,-0.16724 1.091687,-0.32589 1.132454,-0.35254 0.04077,-0.0266 0.368189,-1.26292 0.727604,-2.74726 1.205026,-4.97662 0.80704,-8.51656 -1.47982,-13.16246 -1.671947,-3.39666 -3.645156,-5.9897 -7.615604,-10.00785 -3.395811,-3.43661 -4.374113,-4.64253 -5.260822,-6.48483 -1.963914,-4.0804 -2.182198,-10.97604 -0.466899,-14.74956 0.832561,-1.83157 2.96714,-3.85802 4.862364,-4.61607 1.233871,-0.49352 2.002636,-0.59557 4.528849,-0.60115 2.871657,-0.006 3.114513,0.0355 4.32001,0.74407 1.363589,0.8015 2.654443,2.53255 3.087177,4.13993 0.137718,0.51156 0.494776,2.62328 0.793459,4.69272 0.851556,5.90003 1.749343,8.2905 4.839888,12.8868 3.201738,4.76167 4.043169,7.02447 4.729725,12.71934 0.36992,3.06841 0.490019,14.7365 0.166566,16.18227 -0.174633,0.78057 -0.09148,0.91024 1.244852,1.94121 0.787593,0.60763 1.540729,1.03756 1.673643,0.95542 0.13291,-0.0821 0.323913,-0.89616 0.424449,-1.80892 0.631667,-5.73487 3.622173,-17.10404 6.644333,-25.26011 2.86216,-7.72428 8.23325,-17.97766 12.33641,-23.55014 0.55797,-0.75777 1.01001,-1.47214 1.00453,-1.5875 -0.005,-0.11535 -1.40446,-0.96896 -3.10885,-1.89691 -3.60417,-1.96227 -9.03696,-5.50633 -9.23603,-6.0251 -0.0755,-0.19663 -0.30283,-0.35751 -0.50528,-0.35751 -0.8389,0 -8.949003,-8.71976 -8.124554,-8.7353 0.118184,-0.002 0.08961,-0.0915 -0.06349,-0.19844 -0.812861,-0.56762 -1.704631,-3.586508 -1.69872,-5.750638 0.01183,-4.33261 3.369934,-7.48909 9.302374,-8.74383 6.60181,-1.396317 19.95665,-0.831172 30.9037199,1.30777 1.0896,0.2129 1.99554005,0.36576 2.01321005,0.3397 0.0177,-0.0261 0.65477,-1.2881 1.41578995,-2.804526 1.66874,-3.325175 5.25347,-9.300842 7.54519,-12.577683 2.2895601,-3.273742 5.1299501,-6.548469 5.4879901,-6.327187 0.16039,0.09913 0.21781,0.0608 0.12759,-0.08516 -0.20764,-0.335982 0.76845,-1.403866 1.2832,-1.403866 0.21261,0 0.3568,-0.148828 0.32042,-0.330729 -0.0364,-0.181901 0.0915,-0.298014 0.28425,-0.258027 0.19272,0.03998 0.28568,-0.032 0.20659,-0.159978 -0.19677,-0.318389 1.005,-1.410896 1.44527,-1.313865 0.19522,0.04302 0.36035,-0.09851 0.36697,-0.314524 0.0164,-0.536948 3.99245,-2.985672 6.24621,-3.846882 3.62884,-1.386657 7.1114,-1.869921 10.44023,-1.448759 2.31952,0.293464 4.62454,0.963371 4.62454,1.344028 0,0.133826 0.18334,0.243319 0.40742,0.243319 0.58185,0 2.503,1.019511 2.503,1.328293 0,0.142566 0.13169,0.259207 0.29265,0.259207 0.67201,0 4.80985,3.670149 5.8489,5.187815 0.38416,0.561107 1.137,1.11552 2.06053,1.517425 3.81063,1.658332 6.69185,1.755177 12.96458,0.435772 4.14069,-0.870951 4.63828,-0.918396 9.65729,-0.920785 4.58735,-0.0021 5.66144,0.07993 8.06979,0.61695 4.29203,0.957038 8.62577,2.771627 11.37709,4.763717 1.12421,0.813991 3.37613,3.068066 4.10104,4.104987 0.29104,0.416305 0.65919,0.895013 0.81811,1.063791 0.52437,0.556911 0.92892,1.493039 0.76196,1.763183 -0.0903,0.146119 -0.0326,0.232955 0.12819,0.192972 0.16081,-0.03999 0.70466,0.853101 1.20856,1.984642 2.935861,6.59265 4.583311,19.140158 4.281401,32.608568 l -0.15432,6.88468 1.76971,0.90918 c 2.78128,1.42885 6.33308,3.55155 6.42916,3.8423 0.0481,0.14552 0.21726,0.23477 0.37596,0.19833 0.1587,-0.0365 0.57229,0.19809 0.91909,0.52119 0.34681,0.3231 0.77746,0.60901 0.95702,0.63537 0.96423,0.14152 8.00676,5.49666 11.44038,8.69928 3.83338,3.57547 5.46174,5.58466 7.02624,8.66943 1.82695,3.60227 1.46716,6.48375 -1.14435,9.16489 -2.21561,2.27468 -4.29716,2.96054 -11.00461,3.62598 -4.44329,0.44082 -8.54563,0.38783 -15.41944,-0.19918 -1.93225,-0.16501 -3.57504,-0.23817 -3.65063,-0.16258 -0.0756,0.0756 0.13952,0.82641 0.47804,1.66849 l 0.61547,1.53105 2.77057,0.0529 c 3.01461,0.0576 6.87853,0.90623 9.01597,1.98023 1.78738,0.89811 3.80257,2.54088 4.63032,3.77462 0.41144,0.61325 1.08953,1.56147 1.50685,2.10718 0.41732,0.5457 0.68454,0.99219 0.59382,0.99219 -0.0907,0 -0.0114,0.16609 0.1762,0.3691 0.18764,0.20301 0.42421,0.3189 0.52572,0.25755 0.24106,-0.14572 2.11147,2.36592 2.83394,3.8055 1.28522,2.56091 1.63813,6.0159 0.92895,9.09443 -0.13159,0.57123 0.0247,0.86516 0.88195,1.65829 1.32832,1.229 2.38601,3.3188 2.6981,5.33092 0.13452,0.8673 0.44851,2.8866 0.69775,4.48733 0.85679,5.50263 0.54991,9.09412 -1.03996,12.17083 -1.67066,3.23307 -6.90617,7.55318 -10.73726,8.85989 -0.83041,0.28324 -1.65812,0.88799 -2.63591,1.92588 -3.12769,3.31994 -9.32126,6.45921 -16.054911,8.1376 -1.21379,0.30254 -1.43571,0.4809 -2.34423,1.88405 -0.55194,0.85243 -1.10948,1.54987 -1.23898,1.54987 -0.1295,0 -0.23546,0.12415 -0.23546,0.27588 0,0.78469 -4.13176,5.63896 -4.56943,5.36846 -0.1639,-0.10129 -0.19491,-0.0405 -0.0769,0.15049 0.20504,0.33175 -4.51794,5.02339 -6.84779,6.80237 -0.66326,0.50643 -1.20593,1.02501 -1.20593,1.15239 0,0.12738 0.5861,1.24644 1.30243,2.48681 1.82255,3.15583 2.84608,5.37253 3.31895,7.18798 0.55732,2.13971 0.51985,5.00202 -0.0885,6.76285 -1.1505,3.32982 -4.35845,8.97747 -5.58886,9.83929 -0.29046,0.20345 -0.46631,0.4317 -0.39077,0.50724 0.24865,0.24866 -2.63193,2.28419 -4.40986,3.11619 -1.59691,0.74728 -4.07736,1.35026 -5.38814,1.30983 -0.29104,-0.009 -1.09906,-0.16958 -1.7956,-0.3569 z m 5.89665,-3.86637 c 0.80036,-0.39961 1.68201,-0.97771 1.95923,-1.28466 0.27722,-0.30696 0.66417,-0.5581 0.8599,-0.5581 0.19572,0 0.35587,-0.12257 0.35587,-0.27237 0,-0.1498 0.47625,-0.87487 1.05833,-1.61126 0.58208,-0.73638 1.05833,-1.45428 1.05833,-1.59533 0,-0.14104 0.0992,-0.19511 0.22049,-0.12017 0.12127,0.075 0.22777,-0.007 0.23667,-0.18282 0.0219,-0.43232 1.91644,-4.09258 1.94545,-3.75867 0.093,1.07063 0.7371,-3.35188 0.73212,-5.02709 -0.006,-1.93069 -0.0914,-2.27293 -0.9752,-3.89525 -1.94528,-3.57086 -2.98572,-5.23287 -3.27585,-5.23287 -0.16317,0 -1.4968,0.74546 -2.96362,1.65658 -1.46681,0.91112 -2.90506,1.80303 -3.1961,1.98201 -1.15335,0.70931 -3.24236,1.78822 -4.49792,2.32304 -0.7276,0.30994 -1.85869,0.8104 -2.51354,1.11214 -0.65484,0.30173 -1.75617,0.75475 -2.44739,1.0067 -0.69123,0.25195 -1.25299,0.53121 -1.24836,0.62058 0.0136,0.26304 0.69485,1.08853 0.89831,1.08853 0.10281,0 0.62547,0.41569 1.16146,0.92375 0.53599,0.50806 1.05255,0.92478 1.14793,0.92604 0.0954,10e-4 0.6636,0.41184 1.26272,0.9124 0.59913,0.50055 1.30257,0.97778 1.56321,1.0605 0.34721,0.1102 0.49002,0.4621 0.53424,1.31643 0.0332,0.64131 -0.0637,1.24267 -0.21525,1.33636 -0.15159,0.0937 -0.27562,0.44112 -0.27562,0.77208 0,0.33096 -0.0835,0.68524 -0.18553,0.78728 -0.39244,0.39244 -0.37065,2.85977 0.0361,4.08428 0.2933,0.88303 0.66555,1.4091 1.2352,1.7456 1.82772,1.07966 3.19186,1.05111 5.52886,-0.11571 z m -94.85692,-5.16022 c 1.01881,-0.51576 8.16684,-5.58429 9.8002499,-6.94917 0.14931,-0.12476 0.61981,-0.45508 1.04557,-0.73405 0.42576,-0.27896 1.02385,-0.74567 1.3291,-1.03712 0.30525,-0.29145 1.07436,-0.94663 1.70913,-1.45595 2.11243,-1.69495 2.52497,-2.07079 2.39162,-2.17886 -0.0728,-0.059 -0.84667,-0.44746 -1.71979,-0.86331 -2.21735,-1.05607 -7.9314999,-4.71218 -8.2796499,-5.2976 -0.10286,-0.17296 -0.7228,-0.64856 -1.37764,-1.05689 -0.65485,-0.40833 -1.82662,-1.2591 -2.60395,-1.89059 -0.77732,-0.63149 -1.56039,-1.14816 -1.74014,-1.14816 -0.37147,0 -3.32883,2.89976 -3.32883,3.264 0,0.13091 0.35069,0.63743 0.77932,1.1256 1.06453,1.21244 1.45407,2.66889 0.92839,3.47118 -0.21835,0.33323 -0.54308,0.61473 -0.72162,0.62554 -0.17855,0.0108 -0.60343,0.0713 -0.94418,0.13433 -0.45392,0.084 -0.65669,-0.0273 -0.75847,-0.41653 -0.0764,-0.29217 -0.24919,-0.53121 -0.38398,-0.53121 -0.1348,0 -0.86885,-0.47095 -1.63123,-1.04655 -2.39079,-1.80506 -4.22449,-2.49313 -6.66094,-2.4994 -1.61084,-0.004 -2.417,0.13081 -3.37344,0.56475 -0.69122,0.31361 -1.25677,0.70869 -1.25677,0.87797 0,0.18233 -0.18542,0.23661 -0.454952,0.13318 -0.250225,-0.096 -0.370046,-0.0897 -0.266266,0.0141 0.10378,0.10378 -0.04868,0.35495 -0.338794,0.55816 -0.834644,0.58461 -0.633608,0.94552 0.994502,1.78539 2.31856,1.19605 4.29529,2.5024 4.33018,2.86168 0.0172,0.17742 0.0187,0.40761 0.003,0.51151 -0.0155,0.1039 0.12462,0.13029 0.31134,0.0586 0.18673,-0.0717 0.57225,0.11954 0.85673,0.42487 0.28447,0.30533 0.80034,0.81473 1.14639,1.13199 0.34604,0.31726 1.03008,0.99355 1.52009,1.50288 0.49001,0.50932 0.89149,0.8364 0.89218,0.72684 8e-4,-0.10956 0.44775,0.30715 0.99345,0.92604 0.54571,0.61888 1.20055,1.28082 1.45521,1.47097 0.25466,0.19015 0.46302,0.51758 0.46302,0.72761 0,0.21003 0.10541,0.38187 0.23423,0.38187 0.12883,0 0.74616,0.8632 1.37186,1.91823 1.30168,2.19483 1.56961,2.57968 1.79595,2.57968 0.0892,0 0.75926,-0.30223 1.48896,-0.67162 z m -42.726411,-1.56172 c 0,-0.0642 -0.119063,-0.19026 -0.264584,-0.28019 -0.14552,-0.0899 -0.264583,-0.0374 -0.264583,0.11667 0,0.15411 0.119063,0.2802 0.264583,0.2802 0.145521,0 0.264584,-0.0525 0.264584,-0.11668 z m 35.718751,-0.67707 c -0.1691,-0.31597 -0.24247,-0.63948 -0.16304,-0.71891 0.21143,-0.21143 -0.33555,-1.13317 -0.67245,-1.13317 -0.15824,0 -1.03873,-0.70255 -1.95664,-1.56121 -3.45136,-3.22858 -7.737104,-6.254 -8.201466,-5.78964 -0.195268,0.19527 1.308826,2.45555 2.130056,3.20094 0.29104,0.26417 1.06494,0.9831 1.71979,1.59764 1.99882,1.8758 3.54682,3.0386 5.45368,4.09663 1.0023,0.55612 1.86177,0.98213 1.90994,0.94667 0.0482,-0.0354 -0.0508,-0.32298 -0.21987,-0.63895 z m -32.228659,-2.61474 c 0.35792,-0.13608 0.858123,-0.56389 1.111565,-0.95069 0.440012,-0.67155 0.436872,-0.81292 -0.06958,-3.13299 -0.836607,-3.83252 -1.207802,-8.3108 -1.210207,-14.60054 -0.0024,-6.1689 0.30533,-8.82305 1.205648,-10.40002 0.27476,-0.48126 0.499563,-1.15132 0.499563,-1.48904 0,-0.55095 0.418756,-1.69959 1.019082,-2.79531 0.119594,-0.21828 0.615442,-1.23031 1.101886,-2.24896 1.424723,-2.98345 3.211285,-6.05055 3.803883,-6.53034 0.302244,-0.24471 0.467357,-0.5271 0.366922,-0.62754 -0.100436,-0.10043 0.09585,-0.73366 0.436197,-1.40715 1.608376,-3.18278 1.934308,-5.91148 1.663232,-13.92455 -0.259776,-7.67898 -0.09766,-19.15224 0.306562,-21.69583 1.282544,-8.07056 1.62946,-13.78459 1.325253,-21.82813 -0.22048,-5.82971 -0.586312,-9.45728 -1.038289,-10.29563 -0.124534,-0.23099 -0.556612,-1.1939 -0.96017,-2.13978 -0.403556,-0.94589 -0.826363,-1.75948 -0.939567,-1.80799 -0.113202,-0.0485 -0.205825,-0.31221 -0.205825,-0.586 0,-0.2738 -0.223316,-0.61733 -0.496255,-0.7634 -0.616966,-0.33019 -2.149578,-2.68128 -2.149578,-3.29754 0,-0.25051 -0.106445,-0.38968 -0.236543,-0.30928 -0.130095,0.0804 -0.43856,-0.3587 -0.685472,-0.9758 -0.246912,-0.61709 -0.540308,-1.18187 -0.651991,-1.25505 -0.274212,-0.17969 -1.600994,-4.33638 -1.600994,-5.01577 0,-0.29769 -0.09837,-0.54126 -0.218593,-0.54126 -0.191646,0 -0.707935,-2.85426 -1.268254,-7.01145 -0.09807,-0.72761 -0.349689,-1.58558 -0.55916,-1.9066 -0.20947,-0.32102 -0.309454,-0.69921 -0.222184,-0.84041 0.275122,-0.44516 -2.763239,-0.66798 -4.346392,-0.31874 -0.800364,0.17655 -1.604732,0.35034 -1.787483,0.3862 -0.562668,0.1104 -2.196851,1.82885 -2.799765,2.94413 -0.497422,0.92014 -0.571161,1.4729 -0.564721,4.23333 0.0062,2.66484 0.110683,3.47259 0.650174,5.02709 0.353523,1.01864 0.616979,1.94469 0.585454,2.05788 -0.03153,0.11319 0.12238,0.27475 0.342011,0.35903 0.219633,0.0843 0.39933,0.29264 0.39933,0.46301 0,0.17037 0.20836,0.49365 0.463021,0.71838 1.843196,1.62665 7.230107,7.55451 8.539914,9.3975 1.530297,2.15323 1.871741,2.7454 3.643394,6.31878 1.06073,2.13947 1.609831,4.42724 1.799206,7.49623 0.153993,2.49562 -0.158485,4.93309 -1.243737,9.70168 -0.206648,0.908 -0.289465,5.55506 -0.26406,14.81667 0.04736,17.26378 -0.282432,22.16545 -1.714,25.47512 -0.206703,0.47788 -0.375822,1.0535 -0.375822,1.27916 0,0.42932 -2.553033,7.20965 -3.57469,9.49363 -0.325466,0.72761 -0.851476,2.02949 -1.16891,2.89307 -0.317437,0.86359 -0.656558,1.69703 -0.753608,1.85209 -0.09705,0.15506 -0.197961,0.40099 -0.22425,0.54651 -0.0263,0.14552 -0.362405,1.33615 -0.746927,2.64583 -1.488236,5.06898 -1.750925,6.73759 -2.24927,14.2875 -0.376671,5.70659 -0.432686,8.16804 -0.243853,10.71563 0.334637,4.51464 0.489251,5.22529 1.060101,4.87248 0.145258,-0.0898 0.324924,0.0693 0.399256,0.35358 0.112516,0.43026 0.391573,0.5245 1.666441,0.56275 0.842211,0.0253 1.824135,-0.0654 2.182053,-0.20147 z M 42.619719,253.0581 c 6.11629,-0.71891 14.27063,-2.47197 17.05128,-3.66578 0.70328,-0.30193 1.4029,-0.54898 1.55469,-0.54898 0.43488,0 4.88444,-1.79743 7.29422,-2.94656 1.20456,-0.57441 2.29342,-0.98054 2.41967,-0.90251 0.12625,0.078 0.29851,-0.0378 0.38279,-0.25746 0.13228,-0.34473 1.43042,-1.03459 1.72471,-0.91655 0.0565,0.0226 0.17555,-0.0655 0.26458,-0.196 0.089,-0.13046 0.93578,-0.69605 1.88167,-1.25688 0.94588,-0.56082 2.27152,-1.41675 2.94586,-1.90206 0.67434,-0.48532 1.33418,-0.88239 1.46631,-0.88239 0.13212,0 0.83055,-0.53527 1.55205,-1.18948 0.7215,-0.65422 1.40143,-1.19 1.51095,-1.19063 0.10951,-5.3e-4 0.62618,-0.47384 1.14814,-1.05159 0.52196,-0.57774 1.08178,-1.02423 1.24405,-0.99218 0.16228,0.032 0.30046,-0.0754 0.30707,-0.23873 0.007,-0.16335 0.66687,-0.87691 1.46723,-1.5857 0.80037,-0.70879 1.55017,-1.43789 1.66622,-1.62021 0.11605,-0.18232 0.80066,-1.00533 1.52135,-1.8289 0.7207,-0.82358 1.31035,-1.57544 1.31035,-1.67081 0,-0.0954 -0.59232,-0.32521 -1.31627,-0.51075 -1.21934,-0.31251 -1.37494,-0.29558 -2.11293,0.22992 -0.43816,0.31199 -1.39455,0.66178 -2.12531,0.7773 -0.73076,0.11552 -1.53611,0.39593 -1.78967,0.62313 -0.85114,0.76267 -4.04019,0.71634 -4.82665,-0.0701 -0.29104,-0.29104 -0.6045,-0.52917 -0.69657,-0.52917 -0.34751,0 -1.12954,-1.13151 -1.29142,-1.86854 -0.23992,-1.09232 0.3206,-3.43756 1.00929,-4.22292 1.09782,-1.25191 1.81022,-1.58145 3.41882,-1.58145 1.18239,0 1.52863,-0.0899 1.52863,-0.39688 0,-0.29612 -0.31905,-0.3986 -1.25677,-0.40367 -2.92754,-0.0158 -8.53281,-1.86771 -8.53281,-2.8191 0,-0.24719 -0.1511,-0.34774 -0.38671,-0.25732 -0.44058,0.16906 -1.92679,-1.43725 -2.98009,-3.22093 -1.22478,-2.07405 -1.68278,-5.51509 -1.10486,-8.30106 0.3032,-1.4616 1.38903,-3.62998 2.00048,-3.99492 0.19498,-0.11637 0.35771,-0.3545 0.36163,-0.52917 0.0166,-0.74132 3.37275,-3.62487 4.21896,-3.62487 0.31902,0 0.72546,-1.42141 0.93512,-3.27029 0.28171,-2.48427 2.29771,-8.41423 3.0259,-8.90054 0.10895,-0.0728 0.27114,-0.4315 0.36042,-0.79719 0.21887,-0.89647 3.08818,-5.15874 4.37779,-6.50306 3.90697,-4.07273 8.97631,-6.23049 14.21677,-6.05134 l 1.755151,0.06 -0.170791,-1.06803 c -0.0939,-0.58742 -0.25476,-1.19845 -0.35741,-1.35785 -0.31435,-0.48818 -0.84417,-2.11495 -0.84838,-2.60493 -0.002,-0.25466 -0.1114,-0.46302 -0.24269,-0.46302 -0.30475,0 -0.8322,-1.48674 -0.60725,-1.71168 0.0931,-0.0931 0.0474,-0.252 -0.10153,-0.35322 -0.35641,-0.24232 -0.97646,-1.59739 -1.84293,-4.02757 -0.38776,-1.08752 -0.86097,-2.33451 -1.05158,-2.77107 -0.19062,-0.43656 -0.84588,-1.98437 -1.45614,-3.43958 -0.61026,-1.45521 -1.33906,-3.0961 -1.61955,-3.64643 -0.28049,-0.55033 -0.49153,-1.14564 -0.46897,-1.32292 0.0805,-0.63228 -0.0251,-1.01287 -0.24359,-0.87786 -0.12205,0.0754 -0.50238,-0.36403 -0.84517,-0.97657 -1.195,-2.13538 -2.53491,-4.02475 -2.91536,-4.11087 -0.21075,-0.0477 -0.74037,-0.2488 -1.17693,-0.44688 -0.43657,-0.19808 -2.10344,-0.94629 -3.70417,-1.66268 -1.60073,-0.71639 -3.50573,-1.57095 -4.23333,-1.89901 -0.72761,-0.32806 -1.68011,-0.75026 -2.11667,-0.93822 -2.72229,-1.17204 -12.67567,-5.59737 -14.30016,-6.35794 -1.07099,-0.50141 -2.03531,-0.91166 -2.14295,-0.91166 -0.10764,0 -1.03588,-0.39566 -2.06276,-0.87924 -1.02687,-0.48359 -2.58142,-1.15618 -3.45455,-1.49466 -0.87312,-0.33848 -1.76609,-0.75571 -1.98437,-0.9272 -0.21828,-0.17147 -0.92444,-0.46262 -1.56925,-0.64698 -0.6448,-0.18435 -1.93434,-0.68418 -2.86564,-1.11073 -0.93129,-0.42654 -3.38029,-1.43728 -5.44221,-2.24609 -2.06192,-0.80881 -4.70144,-1.86801 -5.86561,-2.35377 -1.16416,-0.48576 -2.44326,-0.96477 -2.84244,-1.06445 -0.39918,-0.0997 -0.67867,-0.25784 -0.62109,-0.35146 0.0576,-0.0936 -0.23769,-0.19493 -0.65615,-0.22515 -0.41847,-0.0302 -2.34163,-0.64049 -4.27371,-1.35617 -1.93207,-0.71568 -4.70348,-1.67352 -6.15869,-2.12853 -1.45521,-0.45502 -3.36021,-1.06361 -4.23333,-1.35242 -4.42975,-1.4653 -11.4220701,-2.86009 -18.03842005,-3.59822 -4.21045005,-0.46972 -4.29590005,-0.46911 -5.25300005,0.0376 -0.53511,0.28332 -1.0721,0.771 -1.19332,1.08374 -0.25968,0.66994 -1.29496,1.45761 -1.63754,1.24589 -0.13153,-0.0813 -0.2028,0.013 -0.15836,0.20947 0.11248,0.49733 -2.5908599,3.5655 -3.5751999,4.0577 -0.31419,0.1571 -0.57323,0.4686 -0.57566,0.69223 -0.005,0.44234 -0.58156,1.38618 -1.35777,2.22193 -0.27031,0.29104 -0.66971,0.78285 -0.88756,1.09292 -0.21785,0.31006 -1.24198,1.73881 -2.27585,3.175 -7.56844,10.51359 -13.39142,24.23529 -16.88337,39.7852 -1.94572,8.66444 -2.55046,13.49368 -2.547706,20.34513 0.005,12.44526 2.641846,24.70779 7.532666,35.0303 0.67521,1.42508 1.14585,2.72339 1.04588,2.88515 -0.11141,0.18026 -0.0611,0.21953 0.12996,0.10144 0.20319,-0.12558 0.50482,0.2517 0.86632,1.0836 0.30503,0.70194 0.75505,1.51438 1.00005,1.80542 0.245,0.29104 0.9073,1.30307 1.47178,2.24896 0.56448,0.94588 1.10029,1.77932 1.19069,1.85208 0.0904,0.0728 0.82401,0.96573 1.63027,1.98438 3.28038,4.1445 7.07687,7.59847 11.24653,10.23185 0.9234399,0.5832 1.6789799,1.16876 1.6789799,1.30124 0,0.13248 0.1759,0.24087 0.39089,0.24087 0.21499,0 1.59149,0.60338 3.05888,1.34086 12.59425,6.32953 32.4378201,9.47899 48.1141201,7.63639 z m -27.48681,-70.01675 c -0.83214,-0.1425 -3.2297,-1.01546 -4.27851,-1.55783 -0.9120201,-0.47162 -2.3905901,-1.7301 -2.2260201,-1.89467 0.0607,-0.0607 -0.1041,-0.32497 -0.3663,-0.58718 -0.26221,-0.26221 -0.73868,-1.17502 -1.05883,-2.02847 -0.93298,-2.48722 -0.31921,-4.32985 1.44226,-4.32985 1.04029,0 1.8406301,0.80069 2.3961201,2.39718 0.91045,2.61664 2.60813,3.52628 6.60483,3.53897 3.01212,0.01 4.23811,-0.44643 5.42377,-2.01732 1.78559,-2.36572 2.89542,-2.87568 3.95418,-1.81692 0.89985,0.89986 0.96247,2.21908 0.16955,3.5721 -0.75387,1.28638 -1.55081,1.97514 -3.969,3.43024 -1.19096,0.71664 -1.64965,0.8718 -1.91823,0.64891 -0.21801,-0.18094 -0.35298,-0.19141 -0.35298,-0.0274 0,0.61783 -3.66613,1.04121 -5.82084,0.67223 z m 28.38991,-1.6458 c -1.68273,-0.42387 -3.80763,-1.42345 -4.07063,-1.91488 -0.14781,-0.27618 -0.36248,-0.44421 -0.47706,-0.3734 -0.11457,0.0708 -0.63382,-0.31281 -1.15388,-0.85248 -4.33278,-4.49616 -4.39821,-11.99259 -0.14477,-16.58881 0.60744,-0.65641 1.26052,-1.19346 1.45127,-1.19346 0.19076,0 0.34683,-0.11161 0.34683,-0.24801 0,-0.1364 0.78527,-0.63459 1.74505,-1.10709 3.02015,-1.48681 7.17256,-1.33691 10.22735,0.36922 0.5457,0.30479 0.99218,0.71082 0.99218,0.9023 0,0.19149 0.22355,0.34816 0.49677,0.34816 0.27323,0 0.64499,0.17859 0.82615,0.39687 0.18116,0.21829 0.2737,0.39688 0.20565,0.39688 -0.068,0 0.3157,0.46192 0.85277,1.0265 1.3416,1.41032 2.40133,4.15777 2.57666,6.68023 0.28775,4.14016 -1.71117,8.06505 -5.41459,10.63152 -0.57629,0.39937 -1.27487,0.77906 -1.55238,0.84376 -0.27751,0.0647 -0.98082,0.23062 -1.5629,0.36871 -1.6341,0.38767 -4.40555,0.55049 -5.34447,0.31398 z m -0.83229,-6.54206 c 0.42452,-0.38248 0.82282,-2.81385 0.4202,-2.56499 -0.11017,0.0681 -0.27173,-0.0623 -0.35903,-0.28984 -0.0873,-0.22751 -0.41389,-0.41547 -0.72574,-0.4177 -0.31185,-0.002 -0.73788,-0.11217 -0.94672,-0.24432 -0.51084,-0.32325 -1.86138,1.2026 -1.85913,2.10046 0.002,0.71159 0.66871,1.69568 1.3128,1.93712 0.55617,0.20849 1.63806,-0.0526 2.15762,-0.52073 z m 2.26564,-4.52083 c 1.95322,-1.01363 2.82146,-4.1932 1.66359,-6.09225 -0.76726,-1.25841 -1.99927,-1.91365 -3.60032,-1.91482 -3.93403,-0.003 -5.95672,4.9078 -3.1225,7.58081 0.49445,0.46632 1.16724,0.9052 1.49509,0.97527 1.01582,0.21714 2.54032,-0.0177 3.56414,-0.54901 z m -57.85605,4.7202 c -0.7932,-0.28164 -1.58023,-0.70087 -1.74897,-0.93163 -0.16873,-0.23075 -0.43249,-0.41955 -0.58614,-0.41955 -0.15365,0 -0.93942,-0.72938 -1.74615,-1.62085 -4.12644,-4.55986 -3.6093,-12.19217 1.1137,-16.43696 0.60718,-0.5457 1.28222,-0.99219 1.50008,-0.99219 0.21786,0 0.39611,-0.10288 0.39611,-0.22863 0,-0.38668 2.31773,-1.1387 3.9716799,-1.28868 2.52236,-0.22872 5.76321,0.60144 6.87996,1.76234 0.22033,0.22903 0.63705,0.55197 0.92605,0.71763 0.28899,0.16566 0.51154,0.47721 0.49457,0.69233 -0.017,0.21512 0.15133,0.37723 0.37402,0.36026 0.58467005,-0.0446 2.03370005,1.95437 2.69184,3.71343 1.68054,4.49164 0.50479,9.00903 -3.23313,12.42207 -2.28893,2.08999 -3.51167,2.56997 -6.81332,2.67453 -2.2353599,0.0708 -3.0598899,-0.0121 -4.2202999,-0.4241 z m 2.09332,-5.89898 c 0.9609899,-1.0315 0.60798,-2.54877 -0.72108,-3.09928 -0.62184,-0.25758 -0.93672,-0.22846 -1.82368,0.16865 l -1.07206,0.47998 0.32506,1.28022 c 0.17878,0.70412 0.48887,1.38398 0.68909,1.5108 0.69047,0.43736 2.04288,0.26049 2.60267,-0.34037 z m 0.53948,-4.49621 c 0.6548399,-0.31115 1.3096799,-0.53674 1.4551999,-0.50131 0.14553,0.0354 0.18039,-0.0198 0.0775,-0.12268 -0.10291,-0.10291 0.0459,-0.64387 0.33073,-1.20213 0.92197,-1.80722 0.59085,-3.58117 -0.93419,-5.00487 -0.59301,-0.55359 -0.9626799,-0.65996 -2.2669599,-0.6523 -1.74413,0.0102 -2.60765,0.48036 -3.62321,1.97253 -1.37942,2.02679 -0.33609,5.1292 1.95594,5.81606 1.18837,0.35612 1.72845,0.30125 3.005,-0.3053 z m 64.77096,-10.92878 c -1.11998,-0.49901 -2.66779,-0.98212 -3.43958,-1.07357 -2.15468,-0.25529 -3.01417,-0.59693 -3.34866,-1.33103 -0.38109,-0.83642 -0.39569,-2.22886 -0.0234,-2.22886 0.15411,0 0.2186,-0.0996 0.14332,-0.22146 -0.2791,-0.45161 0.68853,-1.3601 1.7543,-1.64709 1.7272,-0.46509 4.58659,0.0364 6.28885,1.10292 1.75028,1.09662 2.09733,1.37662 1.96721,1.58715 -0.0818,0.13231 0.0266,0.3078 0.24075,0.38999 1.15297,0.44244 1.16539,3.1235 0.0165,3.56031 -0.35032,0.13319 -0.63695,0.36418 -0.63695,0.5133 0,0.47287 -0.86609,0.28235 -2.96236,-0.65166 z m -70.64908,-7.21314 c -0.84214,-0.96545 -1.05277,-1.65378 -0.76162,-2.48897 0.81053,-2.32509 3.71854,-3.6626 7.9632299,-3.6626 2.13432,0 2.92184,0.29472 3.52757,1.32014 0.71313,1.20724 0.57361,2.53643 -0.36227,3.45128 -0.75133,0.73445 -0.93545,0.78483 -2.86809,0.78483 -1.19916,0 -2.9328799,0.22191 -4.1342499,0.52917 -2.52875,0.64674 -2.85257,0.65311 -3.36457,0.0662 z m 101.32655,79.79452 c 0.79105,-0.24114 1.20127,-0.75026 0.60452,-0.75026 -0.14046,0 -0.66219,-0.35718 -1.15941,-0.79375 -0.74851,-0.6572 -1.13326,-0.79375 -2.23653,-0.79375 -1.78551,0 -2.16952,0.18339 -2.16952,1.03607 0,0.7771 0.43173,1.4668 1.05833,1.69072 0.50437,0.18023 2.77895,-0.0465 3.90261,-0.38903 z m 13.69847,-2.80199 c 6.424291,-2.17544 13.466701,-6.05034 14.345501,-7.89322 0.37883,-0.79441 0.38886,-1.15255 0.0864,-3.08369 -0.43465,-2.77503 -1.59331,-7.83444 -1.82729,-7.97905 -0.29611,-0.183 -1.13534,0.63811 -3.4882,3.4129 -1.23394,1.45521 -2.45648,2.88159 -2.71678,3.16974 -0.26029,0.28814 -0.5386,0.82392 -0.61845,1.19062 -0.25216,1.15788 -0.29774,1.20957 -0.53522,0.60699 -0.22345,-0.56699 -0.2926,-0.535 -1.85854,0.8599 -0.89455,0.79683 -1.71519,1.44879 -1.82364,1.44879 -0.10845,0 -0.577261,0.2899 -1.041781,0.64421 -2.47857,1.89049 -8.32933,4.10164 -11.99487,4.53316 -0.34027,0.0401 -0.68932,0.14348 -0.77566,0.22982 -0.22353,0.22352 1.51065,1.9687 2.43911,2.45458 3.12223,1.63393 5.84844,1.74655 9.80943,0.40525 z m -9.53128,-7.99466 c 4.64064,-1.14592 8.31796,-3.16325 12.297341,-6.74618 2.56744,-2.31165 5.31624,-5.55138 5.67422,-6.68763 0.10288,-0.32656 0.37156,-0.77825 0.59707,-1.00376 0.67335,-0.67335 0.81434,-7.52557 0.21755,-10.57333 -0.25646,-1.30968 -0.58566,-2.53149 -0.73156,-2.71512 -0.1459,-0.18364 -0.45788,-0.7105 -0.69328,-1.17082 -0.23541,-0.46031 -0.61794,-0.95268 -0.85008,-1.09414 -0.42968,-0.26185 -2.01787,-0.0175 -1.73363,0.26674 0.0856,0.0856 -0.076,0.48108 -0.35918,0.87876 -0.28318,0.39769 -0.83389,1.83988 -1.2238,3.20487 -0.38992,1.36499 -0.91783,2.97253 -1.17315,3.57231 -1.710051,4.01725 -6.294031,7.43307 -10.637901,7.92702 -0.76098,0.0865 -2.80741,-0.0318 -4.54761,-0.26291 -4.1509,-0.55133 -5.81782,-0.53012 -7.85448,0.1 -1.97106,0.60978 -3.35856,1.81693 -4.40234,3.83017 -0.57913,1.11701 -0.69388,1.688 -0.69432,3.45484 -5.3e-4,2.36533 0.51208,3.70339 1.93262,5.04416 0.4344,0.41 0.7303,0.84178 0.65754,0.95951 -0.0728,0.11772 0.0575,0.21404 0.28952,0.21404 0.23198,0 0.68549,0.17055 1.0078,0.37901 1.96846,1.27317 7.94625,1.47972 12.22767,0.42251 z m 30.882691,-3.96129 c 2.51904,-1.68484 4.64701,-3.78842 5.28006,-5.21954 0.46579,-1.05298 1.00079,-5.21675 0.55291,-4.30313 -0.42861,0.87432 -1.42754,1.92561 -1.86394,1.96165 -0.25074,0.0207 -0.75355,0.20321 -1.11735,0.40556 -0.9054,0.50359 -1.30118,0.60099 -2.40435,0.59173 -1.34206,-0.0113 -2.5076,-0.69721 -3.35147,-1.97237 -0.60973,-0.92138 -0.72549,-1.37724 -0.72038,-2.83689 0.01,-2.79388 1.04414,-3.98727 4.37945,-5.05277 2.12123,-0.67765 3.27344,-0.66296 4.28114,0.0546 l 0.81086,0.57739 -0.16537,-1.83416 c -0.20616,-2.28646 -0.55154,-3.50296 -1.31129,-4.61858 -0.94953,-1.39428 -1.31152,-1.50149 -2.36264,-0.69976 -1.01501,0.77418 -5.62922,2.99998 -6.60527,3.18624 -0.8161,0.15574 -1.54651,0.45187 -1.54651,0.62701 0,0.33247 1.12304,7.11233 1.72047,10.38656 0.57251,3.13769 1.18994,8.09449 1.18994,9.55303 0,0.8703 1.15875,0.58128 3.23374,-0.80655 z m 2.72678,-9.32716 c 1.35521,-0.61747 1.92241,-3.01363 0.9848,-4.16029 -0.72129,-0.8821 -2.26286,-0.8265 -3.24781,0.11714 -0.62982,0.60341 -0.78709,0.97738 -0.78709,1.87168 0,0.92317 0.14163,1.23678 0.81405,1.80259 0.91383,0.76893 1.23995,0.82273 2.23605,0.36888 z m -29.597311,-5.72961 c 2.61135,-0.90243 4.55494,-2.88391 5.48892,-5.59596 1.735111,-5.03828 2.895961,-7.03121 4.720271,-8.10363 1.37645,-0.80914 1.38875,-0.82891 0.90847,-1.46016 -0.98506,-1.29466 -5.077221,-1.69163 -8.382951,-0.81321 -1.77724,0.47226 -4.38257,1.79521 -4.99965,2.53874 -0.19359,0.23325 -0.48731,0.34679 -0.65272,0.2523 -0.16542,-0.0945 -0.2112,-0.0731 -0.10174,0.0476 0.27474,0.30286 -0.59689,1.21566 -0.96198,1.00742 -0.16245,-0.0927 -0.20581,-0.0697 -0.0964,0.0509 0.26687,0.29419 -0.5936,1.22102 -0.93672,1.00896 -0.16053,-0.0992 -0.18861,-0.0351 -0.0692,0.15812 0.11472,0.18561 -0.0111,0.57202 -0.29331,0.90077 -0.27181,0.31665 -0.71685,0.99245 -0.98897,1.50177 -0.27212,0.50932 -0.62774,1.04748 -0.79028,1.19591 -0.49535,0.45234 -0.98363,1.45734 -0.82934,1.70699 0.0801,0.12954 0.0245,0.31032 -0.12333,0.40173 -0.14789,0.0914 -0.2689,0.46273 -0.2689,0.82517 0,0.36244 -0.16203,0.98049 -0.36008,1.37344 -0.19804,0.39296 -0.43428,1.19995 -0.52499,1.79331 -0.16287,1.06545 -0.15266,1.08226 0.8231,1.35562 1.71868,0.48149 6.88274,0.39229 8.43976,-0.14579 z m -11.97067,-0.63503 c 2.44397,-8.53759 4.96481,-12.59188 10.07517,-16.20394 0.87313,-0.61714 2.31557,-1.37029 3.20543,-1.67368 1.6803,-0.57288 5.810181,-1.207 6.218271,-0.95478 0.49159,0.30381 0.72899,-0.16936 0.46497,-0.92673 -0.17142,-0.49174 -0.51523,-0.8261 -0.96572,-0.93916 -1.222721,-0.30688 -5.958531,-0.14862 -7.446461,0.24884 -0.78866,0.21068 -1.55119,0.31057 -1.69453,0.22198 -0.14332,-0.0886 -0.18094,-0.0322 -0.0836,0.12536 0.0974,0.15753 -0.059,0.36131 -0.3474,0.45286 -0.28843,0.0915 -1.2129,0.67327 -2.05437,1.29272 -0.84147,0.61946 -1.649,1.14844 -1.79452,1.17552 -0.14552,0.0271 -0.27,0.19807 -0.27661,0.37997 -0.007,0.18191 -0.1643,0.29802 -0.3504,0.25803 -0.1861,-0.04 -0.27365,0.032 -0.19454,0.16002 0.0791,0.12799 -0.32676,0.69649 -0.90192,1.26333 -0.57517,0.56683 -1.04776,1.10633 -1.05021,1.19889 -0.007,0.25826 -2.20864,3.52398 -2.44341,3.62407 -0.11378,0.0485 -0.20687,0.30159 -0.20687,0.56239 0,0.26081 -0.30107,1.15497 -0.66905,1.98702 -0.75252,1.7016 -1.63895,4.76708 -1.95307,6.75421 l -0.20927,1.32381 h 1.29171 c 0.80648,0 1.32727,-0.12423 1.38638,-0.33073 z m -123.45424,-3.11024 1.1435,-0.51893 -0.164944,-3.24557 c -0.09072,-1.78506 -0.05624,-4.79338 0.07662,-6.68515 0.190609,-2.71409 0.167693,-3.5791 -0.108638,-4.10104 -0.40631,-0.76745 -2.030629,-2.64583 -2.287963,-2.64583 -0.19114,0 -0.241006,0.27493 -0.863761,4.76249 -0.486431,3.5052 -0.881314,11.69374 -0.60048,12.45189 0.247494,0.66815 1.308902,0.6614 2.805668,-0.0179 z m -14.394235,-9.45746 c -0.09847,-4.18373 -0.217654,-7.65084 -0.264848,-7.7047 -0.252089,-0.28766 -1.452483,0.33699 -2.333625,1.21436 -2.673744,2.66228 -3.128094,6.1556 -1.306663,10.04638 0.600594,1.28293 3.216423,4.05073 3.828328,4.05073 0.162962,0 0.190849,-2.76165 0.07681,-7.60677 z m 173.580766,3.58178 c 3.44035,-1.08306 5.15055,-3.61345 4.84822,-7.1734 -0.14019,-1.65071 -0.71071,-2.90696 -1.88355,-4.14744 -0.48155,-0.50933 -1.7142,-2.05714 -2.7392,-3.43959 -1.02501,-1.38245 -2.1844,-2.85402 -2.57643,-3.27015 -1.09609,-1.16349 -4.62519,-2.47843 -7.6491,-2.85005 -3.03837,-0.37339 -3.39342,-0.22403 -2.70254,1.13689 0.24634,0.48525 0.95827,2.13243 1.58208,3.6604 0.6238,1.52796 1.38383,3.3139 1.68895,3.96875 0.30512,0.65484 1.2016,2.79796 1.99219,4.76249 1.76383,4.38294 2.72332,6.56163 3.23349,7.34219 0.50975,0.77992 1.75065,0.78284 4.20589,0.01 z m 3.97621,-15.02501 c 0.0899,-0.14552 0.0374,-0.26458 -0.11667,-0.26458 -0.15411,0 -0.2802,0.11906 -0.2802,0.26458 0,0.14552 0.0525,0.26458 0.11668,0.26458 0.0642,0 0.19026,-0.11906 0.28019,-0.26458 z m -0.52916,-16.93437 c 4.61526,-0.4205 6.74196,-1.05793 7.93654,-2.37878 0.66254,-0.73257 0.74612,-3.72878 0.13727,-4.92082 -0.49506,-0.96925 -2.28308,-3.45289 -2.6483,-3.67861 -0.15112,-0.0934 -0.19421,-0.31042 -0.0957,-0.48227 0.0985,-0.17184 0.0829,-0.22543 -0.0347,-0.11909 -0.11755,0.10634 -1.08913,-0.69349 -2.15908,-1.77742 -1.06995,-1.08392 -1.94537,-1.89091 -1.94537,-1.7933 0,0.0976 -0.44648,-0.24195 -0.99218,-0.75457 -0.54571,-0.51263 -2.36141,-1.93011 -4.0349,-3.14996 -1.67349,-1.21985 -3.25571,-2.43194 -3.51604,-2.69353 -0.26033,-0.26159 -0.60512,-0.47561 -0.7662,-0.47561 -0.16109,0 -1.43637,-0.70486 -2.83397,-1.56636 -5.55126,-3.42186 -17.309141,-9.40911 -22.120251,-11.26387 -1.01864,-0.3927 -2.37309,-1.0003 -3.00988,-1.35022 -0.6368,-0.34992 -1.30553,-0.63622 -1.48608,-0.63622 -0.36596,0 -3.10193,-1.08335 -3.30924,-1.31036 -0.0728,-0.0797 -0.42995,-0.18679 -0.79375,-0.23805 -0.36381,-0.0513 -0.87918,-0.20929 -1.14527,-0.35117 -0.2661,-0.14187 -1.06977,-0.43196 -1.78594,-0.64464 -0.71617,-0.21268 -1.30213,-0.51107 -1.30213,-0.66308 0,-0.15201 -0.14883,-0.2233 -0.33073,-0.15842 -0.3569,0.1273 -3.0294,-0.77039 -3.57187,-1.19978 -0.1819,-0.14399 -0.33073,-0.19225 -0.33073,-0.10724 0,0.085 -1.33945,-0.30352 -2.97656,-0.86337 -1.63711,-0.55985 -5.26852,-1.7598 -8.06979,-2.66656 -2.80128,-0.90675 -5.09323,-1.75008 -5.09323,-1.87406 0,-0.12397 -0.16879,-0.16064 -0.37508,-0.0815 -0.44326,0.1701 -4.4512,-0.90741 -4.6715,-1.2559 -0.0835,-0.13206 -0.84012,-0.35214 -1.68142,-0.48906 -0.84129,-0.13693 -1.66595,-0.36123 -1.83258,-0.49845 -0.16663,-0.13722 -0.95781,-0.37584 -1.75817,-0.53027 -1.88226,-0.36319 -3.15008,-0.76524 -2.64584,-0.83905 0.37367,-0.0547 -1.00841,-0.34728 -3.24114,-0.68614 -0.54571,-0.0828 -0.99219,-0.23354 -0.99219,-0.33494 0,-0.10139 -0.38695,-0.1965 -0.8599,-0.21134 -0.47294,-0.0148 -1.57427,-0.26438 -2.44739,-0.55453 -0.87313,-0.29015 -2.33164,-0.67506 -3.24115,-0.85535 -0.9095,-0.1803 -1.65364,-0.43061 -1.65364,-0.55624 0,-0.12564 -0.44888,-0.22843 -0.99751,-0.22843 -0.54862,0 -1.88808,-0.24725 -2.97656,-0.54944 -1.08848,-0.302188 -3.70546,-0.890778 -5.81552,-1.307968 -4.04431,-0.79963 -4.15718,-0.82396 -12.6999901,-2.73783 -13.16113,-2.94852 -22.3876099,-3.97693 -32.0145899,-3.56844 -4.88423,0.20724 -7.47388,0.70414 -9.7664,1.87397 -2.108974,1.07617 -2.720379,1.87007 -2.874866,3.733 -0.09717,1.17168 0.0078,1.68619 0.573611,2.812778 0.380892,0.75834 0.614164,1.5056 0.518382,1.66057 -0.106098,0.17167 -0.04783,0.20371 0.149122,0.082 0.200136,-0.12369 0.378756,-0.0133 0.468937,0.28985 0.178308,0.59937 4.871624,4.89359 7.227054,6.6125 2.09976,1.53233 7.25564,4.75103 9.96178,6.21892 l 1.99509,1.08219 0.75809,-0.83 c 0.41694,-0.45651 0.85204,-0.99088 0.96687,-1.1875 0.11484,-0.19662 0.8934,-1.10505 1.73015,-2.01874 0.83674,-0.91368 1.52135,-1.75841 1.52135,-1.87716 0,-0.46497 -1.04425,-0.69783 -3.83646,-0.85551 -1.60073,-0.0904 -3.98198,-0.36057 -5.29166,-0.6004 -2.62676,-0.481 -3.23097,-0.57597 -3.87218,-0.60865 -0.23792,-0.0121 -0.63718,-0.3343 -0.88724,-0.71595 -0.39238,-0.59883 -0.4062,-0.78443 -0.10092,-1.35486 l 0.35374,-0.66097 7.41268,0.17312 c 16.4065999,0.38319 24.4383899,1.20773 32.81266,3.36855 1.74625,0.45058 3.44151,0.87806 3.76723,0.94995 0.32573,0.0719 0.53932,0.21631 0.47466,0.32093 -0.0647,0.10463 0.21956,0.19023 0.63161,0.19023 0.41204,0 1.38907,0.24226 2.17117,0.53834 0.7821,0.29609 2.91028,1.02251 4.72929,1.61427 1.81901,0.59176 4.49792,1.50633 5.95313,2.03239 1.4552,0.52605 3.24114,1.17204 3.96875,1.43552 4.59658,1.66454 19.2108,7.88089 28.04583,11.92967 0.58208,0.26675 1.89177,0.86669 2.91041,1.33321 1.01865,0.46651 3.06915,1.42907 4.55667,2.139 1.48753,0.70994 2.76366,1.2908 2.83587,1.2908 0.12174,0 4.39852,2.00918 8.74705,4.10926 1.01864,0.49195 2.80158,1.26401 3.96209,1.7157 1.1605,0.45169 2.47019,0.976 2.91041,1.16513 1.57732,0.67766 2.43831,1.03233 5.95979,2.45506 8.922771,3.60492 10.779701,4.44838 11.707811,5.31796 1.28764,1.20644 0.81742,2.17022 -1.05883,2.17022 -0.63329,0 -1.59175,-0.22251 -2.1299,-0.49447 -1.7378,-0.87822 -3.33486,-1.57219 -4.418041,-1.91977 -0.58208,-0.18679 -1.17144,-0.43438 -1.30969,-0.55019 -0.31876,-0.26704 -1.73329,-0.27695 -1.7322,-0.0121 5.2e-4,0.10914 0.41143,1.01364 0.91329,2.01001 0.50186,0.99637 1.10888,2.40289 1.34893,3.1256 0.54876,1.65219 0.80863,1.75531 5.252531,2.08447 7.27948,0.53919 12.18385,0.61606 16.16464,0.25336 z M 99.668229,119.66054 c 0.0865,-0.47294 0.12163,-2.28865 0.0781,-4.0349 l -0.0791,-3.175 -2.91656,-1.45521 c -1.6041,-0.80036 -3.5091,-1.7155 -4.23333,-2.03364 -0.72423,-0.31813 -2.36562,-1.06227 -3.64753,-1.65364 -1.28191,-0.59137 -2.38454,-1.07521 -2.45028,-1.07521 -0.0657,0 -0.62425,-0.224 -1.24112,-0.49777 -1.95334,-0.86688 -7.92948,-3.13863 -11.26585,-4.28256 -1.76946,-0.60669 -3.21721,-1.20806 -3.21721,-1.33638 0,-0.128308 -0.28649,-0.233288 -0.63664,-0.233288 -0.35016,0 -2.52305,-0.64707 -4.82865,-1.43792 -11.14497,-3.82288 -22.77901,-7.10076 -37.5295,-10.573916 -5.66436,-1.333733 -17.62919,-3.598584 -19.0107001,-3.598584 -0.81285,0 -1.80322,1.335809 -3.50707,4.73035 -1.23128,2.45305 -1.21605,2.56973 0.37048,2.83853 8.2103101,1.39106 20.0248501,3.82142 24.3962501,5.01855 0.80037,0.21919 3.06255,0.80314 5.02708,1.29767 7.12912,1.79464 21.96781,6.158668 30.1625,8.870748 10.4483,3.45791 25.57504,9.42471 33.20521,13.0979 1.09368,0.5265 1.1458,0.50817 1.32386,-0.46573 z m 0.004,-14.2875 c -0.37763,-5.24474 -0.78903,-8.307758 -1.68224,-12.524748 -0.61303,-2.89421 -2.16286,-7.778102 -2.62243,-8.26394 -0.1819,-0.192294 -0.33073,-0.474832 -0.33073,-0.627859 0,-0.153027 -0.53103,-1.022401 -1.18006,-1.93194 -0.64904,-0.909542 -1.12241,-1.711367 -1.05194,-1.781834 0.0705,-0.07047 -0.0533,-0.27873 -0.27515,-0.462806 -0.22181,-0.184076 -0.40328,-0.254855 -0.40328,-0.157285 0,0.09757 -0.50601,-0.169722 -1.12448,-0.593978 -1.46594,-1.005613 -6.23165,-3.288689 -8.32861,-3.989928 -4.16039,-1.391266 -10.54846,-1.916001 -15.43265,-1.267684 -1.68169,0.223223 -5.55123,0.943401 -8.59896,1.600393 -6.74767,1.454581 -8.76196,1.672955 -11.34918,1.230397 -2.01999,-0.345533 -4.03063,-1.275456 -3.9156,-1.81097 0.0364,-0.169357 -0.11244,-0.307919 -0.33072,-0.307919 -0.21829,0 -0.39688,-0.12609 -0.39688,-0.280199 0,-0.15411 -0.11443,-0.209474 -0.25429,-0.123034 -0.29327,0.18125 -1.76648,-1.388338 -1.65738,-1.765808 0.04,-0.138348 -0.0301,-0.188002 -0.15577,-0.110342 -0.35301,0.218173 -1.23627,-1.567325 -2.14455,-4.3352 -1.084,-3.303357 -1.2539,-3.600998 -2.35347,-4.122775 -0.74305,-0.352599 -1.42094,-0.413776 -3.33514,-0.300982 -5.02352,0.296011 -9.73847,2.733741 -14.93363,7.721002 -2.95519,2.836929 -7.61281,8.652488 -7.31527,9.133924 0.0584,0.09457 1.24381,0.333685 2.63413,0.531376 1.39033,0.197691 2.52787,0.433282 2.52787,0.523536 0,0.09025 0.44649,0.189929 0.99219,0.221504 1.3917,0.08052 2.4652,0.320599 3.26906,0.731097 0.37916,0.193619 1.2126,0.370975 1.85209,0.394123 0.63948,0.02315 1.75802,0.195342 2.48562,0.382654 0.7276,0.187312 1.79917,0.415467 2.38125,0.50701 1.44168,0.226738 8.07525,1.761096 8.73125,2.019562 0.29104,0.114671 1.04698,0.280572 1.67986,0.368673 0.63289,0.0881 1.326,0.335484 1.54026,0.549738 0.22415,0.22415 0.88044,0.389557 1.54566,0.389557 0.63586,0 1.2297,0.119062 1.31964,0.264583 0.0899,0.145521 0.45957,0.264583 0.82141,0.264583 0.81473,0 7.01549,1.761891 7.98995,2.270261 0.3925,0.20477 1.07541,0.37305 1.51759,0.37394 0.44217,8e-4 1.23903,0.22345 1.77081,0.49456 0.53177,0.27112 1.47898,0.57483 2.10491,0.67492 2.67991,0.42853 22.9973,7.53655 29.58386,10.349888 1.23693,0.52833 2.54662,1.06145 2.91042,1.18471 1.75072,0.59316 5.84657,2.44407 9.12762,4.12477 1.16444,0.59648 2.22181,1.1025 2.34969,1.12448 0.13161,0.0226 0.14778,-1.13702 0.0373,-2.67201 z M 7.1234989,95.489752 c -0.0879,-0.0879 -0.31613,-0.0973 -0.50712,-0.0209 -0.21107,0.0845 -0.14837,0.14716 0.15985,0.15985 0.27892,0.0115 0.43519,-0.051 0.34727,-0.13896 z M 45.919999,71.440231 c -0.0838,-0.218282 -0.24571,-0.396875 -0.35989,-0.396875 -0.11417,0 -0.28012,-0.288981 -0.36877,-0.642181 -0.14731,-0.586939 -1.66773,-1.643219 -1.95367,-1.357276 -0.0657,0.06573 0.13057,0.437428 0.43621,0.825995 0.30565,0.38857 0.49164,0.810197 0.4133,0.936945 -0.0783,0.126752 0.0201,0.16809 0.21874,0.09186 0.19864,-0.07623 0.58046,0.103732 0.8485,0.399904 0.57186,0.631907 0.9829,0.707943 0.76558,0.141624 z"
       id="path2096" /></g></svg>
