<?xml version="1.0" encoding="UTF-8" standalone="no"?>
<!-- Created with Inkscape (http://www.inkscape.org/) -->

<svg
   width="252.54099mm"
   height="173.76395mm"
   viewBox="0 0 252.54098 173.76395"
   version="1.1"
   id="svg5"
   xml:space="preserve"
   xmlns="http://www.w3.org/2000/svg"
   xmlns:svg="http://www.w3.org/2000/svg"><defs
     id="defs2" /><g
     id="layer1"
     transform="translate(40.516211,-59.598517)"><path
       style="fill:#000000;stroke-width:0.264583"
       d="m 118.77791,233.22041 c -0.7276,-0.0428 -3.5851,-0.20715 -6.35,-0.36511 -12.826314,-0.73278 -26.014404,-2.2962 -34.665674,-4.10955 l -3.18025,-0.66659 -3.30204,0.95447 c -9.54486,2.75899 -19.69933,3.96113 -33.19995,3.93039 -19.56161,-0.0445 -39.5482002,-2.21593 -48.705231,-5.29147 -1.933027,-0.64924 -1.938459,-0.64951 -3.602857,-0.18058 -3.651123,1.02868 -15.284693,0.43599 -19.994199,-1.01862 -2.278344,-0.70371 -4.41876,-2.756 -5.299163,-5.08099 -1.869885,-4.93802 -0.997656,-15.49664 1.72976,-20.93929 1.020261,-2.03596 2.385839,-3.76702 3.66712,-4.64856 l 1.163948,-0.80082 v -2.34067 c 0,-3.00212 0.679727,-5.26348 2.204852,-7.33521 1.441208,-1.95774 2.421675,-2.78067 4.485669,-3.76489 1.800609,-0.85863 4.822158,-1.49533 5.98891,-1.26198 0.705625,0.14112 0.794596,0.0413 1.835287,-2.05889 2.788918,-5.62827 8.197368,-9.04272 13.4681938,-8.5027 0.92096,0.0943 2.24621,0.39691 2.94501,0.67235 0.86604,0.34136 1.61993999,0.45394 2.36797999,0.3536 1.61792001,-0.217 4.05943001,0.35085 7.12487001,1.65714 3.2567902,1.38783 3.8914402,1.56705 7.4208102,2.09552 1.50156,0.22484 3.14861,0.62349 3.6601,0.88591 l 0.92999,0.47711 2.17217,-1.12766 c 3.16134,-1.64117 5.80337,-2.63578 8.46022,-3.18491 l 2.34219,-0.48409 0.83281,-1.55267 c 0.45804,-0.85398 1.63648,-2.54726 2.61875,-3.76285 1.74591,-2.16063 2.07082,-2.75427 1.50747,-2.75427 -0.33986,0 -4.1617,-2.4906 -6.86528,-4.47394 -2.58733,-1.89806 -7.04501,-6.23737 -8.91339,-8.67671 -0.81329,-1.06183 -1.57447,-1.9306 -1.6915,-1.9306 -0.11703,0 -0.63347,0.24821 -1.14764,0.55158 -1.07401,0.63368 -2.20128,0.52028 -2.93978,-0.29575 -0.45131,-0.4987 -0.47467,-0.49529 -1.2842,0.18738 -0.4535,0.38242 -1.20767,0.85587 -1.67593,1.0521 -1.80338,0.75571 -2.79397,0.25797 -3.1795002,-1.59759 l -0.20815,-1.0018 -1.36464,1.08655 c -1.80049,1.43356 -3.55122,2.20087 -4.50604,1.97488 -1.05518,-0.24974 -1.92882,-1.13721 -1.92882,-1.95937 0,-0.91003 -0.21373,-1.10214 -0.84834001,-0.76251 -0.28281,0.15135 -1.2631,0.27951 -2.17843999,0.28479 -1.79003,0.0103 -3.05727,-0.54317 -3.06026,-1.33662 -8e-4,-0.23793 -0.17949,-0.77363 -0.39688,-1.19044 -0.51066,-0.97916 -0.49987,-1.17401 0.13392,-2.41716 0.61274,-1.20185 0.64953,-1.4552 0.2113,-1.4552 -0.62493,0 -3.00256,-1.6494 -3.71703,-2.57856 -1.039443,-1.35179 -1.019829,-2.94934 0.0472,-3.84722 0.78395,-0.65965 2.45616,-1.1427 2.93383,-0.84748 0.15831,0.0978 0.26008,-0.40726 0.26008,-1.29088 0,-2.01355 0.67381,-2.54836 3.21068,-2.54836 h 1.81639999 v -1.29361 c 0,-2.50169 1.73448001,-3.31079 4.30605001,-2.00869 l 1.43903,0.72865 1.42694,-1.13573 c 0.78482,-0.62465 2.23054,-1.51057 3.2127302,-1.96871 l 1.78578,-0.83299 -0.88292,-0.85576 -0.88293,-0.85576 -1.9611902,0.9506 c -1.61622,0.78338 -2.14736,0.92246 -3.01953,0.79063 -1.54139,-0.23297 -2.21835,-0.77503 -2.40243,-1.92368 l -0.15828,-0.98766 -1.76235,-5.3e-4 c -2.11658001,-7.9e-4 -3.26651,-0.66092 -3.76093,-2.15904 -0.30089,-0.91171 -0.22824,-3.44291 0.12408,-4.3226 0.12967,-0.32377 -0.13528,-0.4054 -1.4385,-0.4432 -2.2048,-0.064 -3.74496,-0.83889 -4.35473,-2.19112 -0.62995,-1.39698 -0.39076,-2.45321 0.95849,-4.2326 0.65192,-0.85974 0.96948,-1.48452 0.78569,-1.54578 -0.77818,-0.2594 -2.886148,-2.19562 -3.190615,-2.93066 -0.4530748,-1.09383 -0.218313,-1.8588 0.934845,-3.046168 l 0.96269,-0.99124 -0.52902,-0.57784 c -0.851868,-0.93062 -1.647063,-2.73241 -1.647063,-3.73212 0,-1.06031 0.779719,-1.95839 1.896503,-2.18441 0.68732,-0.1391 0.70472,-0.19025 0.66146,-1.94464 -0.0392,-1.59078 0.033,-1.88425 0.61696,-2.50604 0.66727,-0.71054 1.51364,-0.79696 2.71206,-0.27694 0.40969,0.17778 0.46302,0.0307 0.46302,-1.27724 0,-1.83132 0.62168,-3.44698 1.59229,-4.13812 2.21198999,-1.575072 4.56534,0.67706 6.22426,5.95654 0.39599,1.26021 0.69855,1.8219 0.94677,1.75763 2.41843,-0.6262 3.30075,-0.0948 4.33451,2.61049 l 0.7075702,1.8517 0.77931,-0.46035 c 0.70596,-0.41702 0.84647,-0.42264 1.49304,-0.0597 0.43706,0.24531 0.88293,0.85865 1.15022,1.58222 0.37414,1.01285 0.58471,1.22452 1.47437,1.4821 1.24664,0.36094 3.15756,1.3103 3.38803,1.6832 0.33539,0.54267 0.63321,0.21725 1.99422,-2.17903 5.76829,-10.15606 13.69575,-18.561317 23.51753,-24.934965 12.68233,-8.229951 27.5357,-12.207337 43.67912,-11.69625 18.656594,0.590654 33.721074,6.630543 48.030714,19.257224 5.24113,4.624721 10.86992,11.502361 14.01408,17.123351 0.58208,1.04062 1.19235,1.89479 1.35614,1.89816 0.16379,0.003 0.9377,-0.27616 1.71979,-0.62116 0.7821,-0.34502 1.77917,-0.70761 2.21574,-0.80576 0.62974,-0.14159 0.91229,-0.44716 1.36747,-1.47892 0.62505,-1.41679 1.58235,-1.93648 2.50533,-1.36007 0.2671,0.16681 0.54979,0.30329 0.6282,0.30329 0.0784,0 0.54484,-0.88273 1.0365,-1.96162 1.23497,-2.70997 1.99505,-3.13785 4.27814,-2.40837 0.48642,0.15542 0.59723,0.0192 0.89433,-1.09974 0.40001,-1.50649 1.9195,-4.75319 2.58277,-5.51862 1.22841,-1.417617 2.82165,-1.845546 3.9441,-1.059353 0.88177,0.617613 1.41628,2.053203 1.41628,3.803843 0,0.87892 0.10162,1.66085 0.22581,1.7376 0.1242,0.0768 0.57945,0.006 1.01167,-0.15707 1.78619,-0.67421 3.18434,0.66763 2.92226,2.80457 -0.0729,0.59434 -0.21231,1.2743 -0.30983,1.51101 -0.13163,0.31952 0.0142,0.47817 0.56608,0.61592 1.04888,0.26181 1.63244,0.86871 1.82566,1.8987 0.23994,1.27896 -0.009,1.97259 -1.18894,3.31308 l -1.04475,1.18691 1.03873,1.00812 c 1.80848,1.755178 1.3675,3.389308 -1.37071,5.079428 l -1.54917,0.9562 0.75243,0.95771 c 1.54241,1.96324 2.02853,3.79856 1.34459,5.07651 -0.48763,0.91115 -2.81607,1.88725 -4.50194,1.88725 h -1.5142 l -0.11785,1.49489 c -0.1532,1.94329 -1.19622,4.47269 -2.12934,5.16382 -0.51198,0.3792 -1.1486,0.54564 -2.11666,0.55336 -1.36701,0.0109 -1.38954,0.0243 -1.78703,1.06441 -0.75336,1.9712 -2.68828,2.27216 -5.13516,0.79873 -0.84581,-0.50933 -1.62879,-0.92605 -1.73994,-0.92605 -0.2279,0 -1.05858,1.19254 -1.05323,1.51205 0.002,0.11426 0.70277,0.54345 1.55746,0.95376 0.85468,0.41031 2.27704,1.32867 3.16078,2.0408 l 1.60681,1.29478 1.4566,-0.66685 c 2.27904,-1.04338 3.15232,-1.10031 3.99234,-0.26029 0.63055,0.63055 0.69457,0.86629 0.61475,2.26363 l -0.0891,1.55979 2.20386,-0.0494 c 2.05145,-0.0459 2.2405,-0.004 2.73372,0.60213 0.40439,0.4972 0.50905,0.95331 0.44198,1.92598 -0.0872,1.26478 -0.0806,1.27647 0.86887,1.532 1.09772,0.29542 2.28946,1.37595 2.51686,2.28198 0.37937,1.51153 -0.6873,3.05732 -2.73443,3.96266 -0.77866,0.34436 -1.59094,0.62611 -1.80507,0.62611 -0.49115,0 -0.49522,0.38333 -0.012,1.13379 0.98467,1.52934 0.52601,3.86909 -0.90647,4.62413 -0.67661,0.35663 -3.6824,0.32792 -4.52809,-0.0433 -0.32714,-0.14357 -0.46518,0.003 -0.59005,0.62759 -0.27288,1.36439 -1.26315,2.12441 -2.768,2.12441 -1.34259,0 -1.634,-0.15873 -4.23414,-2.30627 l -1.03042,-0.85105 -0.31427,1.04892 c -0.38659,1.29034 -1.22297,2.1084 -2.15563,2.1084 -0.78648,0 -2.51957,-1.1524 -3.38203,-2.24885 l -0.56502,-0.7183 -0.8474,0.71305 c -0.8365,0.70387 -1.93343,0.8175 -3.13286,0.32454 -0.27238,-0.11195 -0.75158,0.31035 -1.52763,1.34624 -0.62192,0.83015 -2.57767,2.96311 -4.34612,4.73991 l -3.21536,3.23056 1.20734,0.51753 c 3.72934,1.59858 5.53493,2.01735 8.67552,2.01213 2.81301,-0.005 3.19252,-0.0681 5.02709,-0.84034 5.74898,-2.41995 7.17337,-2.95542 8.91577,-3.3517 2.3979,-0.54537 4.9243,-0.55344 6.48771,-0.0207 1.12007,0.38165 1.2335,0.50487 1.5223,1.65365 0.17163,0.6827 0.54119,1.61251 0.82126,2.06625 0.28006,0.45374 0.50714,1.22764 0.50461,1.71979 -0.009,1.78207 -0.81002,4.64974 -1.96966,7.05278 -1.46821,3.04247 -2.44803,4.4913 -4.46972,6.60928 -0.86873,0.91011 -1.52758,1.70668 -1.46411,1.77015 0.0635,0.0635 0.79492,-0.10877 1.62545,-0.38276 4.11781,-1.35848 8.39516,-1.23794 12.62853,0.35588 2.61478,0.98443 5.9845,2.92719 8.09419,4.66656 l 1.47671,1.21751 1.49269,-0.72145 c 2.06715,-0.99908 4.37741,-1.37095 6.17746,-0.99435 4.64356,0.97153 6.88943,4.35283 6.94544,10.45681 l 0.027,2.94186 1.1675,0.8946 c 2.54667,1.95141 4.22037,5.6832 5.62252,12.53628 0.6976,3.4096 0.97624,11.31603 0.48103,13.64956 -0.42669,2.01065 -1.66609,4.08223 -3.09018,5.16504 -2.2113,1.68138 -4.97883,2.25778 -16.3517,3.40561 -10.49205,1.05894 -15.01586,1.29416 -17.47729,0.90874 -2.79037,-0.43691 -3.34098,-0.41197 -5.67376,0.25699 -3.44365,0.98752 -8.67747,1.58734 -19.84374,2.27417 -5.73477,0.35274 -25.88825,0.50314 -30.55938,0.22805 z m 21.69583,-2.47003 c 14.48497,-0.42661 24.89758,-1.3978 28.95426,-2.7006 l 2.53116,-0.81288 1.63093,0.43257 c 0.89701,0.2379 2.63428,0.43256 3.8606,0.43256 4.3937,0 22.01129,-1.70787 25.92089,-2.5128 4.9449,-1.01809 6.2923,-3.07574 6.28948,-9.60491 -0.001,-3.18016 -0.7638,-8.89056 -1.58828,-11.89585 -0.67286,-2.4526 -2.0485,-5.46562 -3.01705,-6.60813 -0.92762,-1.09425 -3.74755,-2.45174 -5.08857,-2.4496 -0.56127,8e-4 -1.34792,0.17243 -1.74811,0.38119 -0.7918,0.41304 -0.86027,0.35946 -0.47073,-0.36839 0.30861,-0.57666 2.10445,-1.33734 3.15721,-1.33734 0.93021,0 1.07524,-0.4287 1.08023,-3.19313 0.005,-2.9408 -0.57339,-4.61631 -2.10854,-6.10499 -1.53638,-1.48988 -3.149,-1.957 -5.32886,-1.5436 -1.257,0.23838 -1.91528,0.53842 -4.37034,1.99193 l -0.83114,0.49207 -0.7216,-0.85757 c -0.9583,-1.13887 -4.69251,-3.77344 -6.98426,-4.92755 -2.76379,-1.39182 -5.26219,-1.99743 -8.22133,-1.99283 -3.07991,0.005 -4.91178,0.41862 -9.53032,2.153 -6.33867,2.38035 -8.30214,3.05186 -9.98802,3.41595 -0.90951,0.19642 -1.65365,0.4297 -1.65365,0.51841 0,0.0887 0.46169,0.42077 1.02597,0.73791 1.41153,0.79332 2.4849,2.26648 2.51869,3.4568 l 0.0272,0.95881 -1.91799,0.38303 c -1.42426,0.28442 -2.24641,0.31575 -3.19383,0.12167 l -1.27584,-0.26135 0.0188,1.77378 c 0.0162,1.52453 -0.0708,1.86936 -0.6188,2.45396 -1.26318,1.34748 -3.45542,1.11003 -5.23343,-0.56684 -1.02972,-0.97116 -1.40499,-1.07634 -1.40499,-0.3938 0,0.79173 -1.23941,2.34275 -2.25852,2.82635 -1.94564,0.92327 -3.8532,-0.14047 -5.37627,-2.99803 l -0.83928,-1.57465 -1.31334,0.83773 c -0.72234,0.46075 -1.31507,0.89726 -1.31718,0.97002 -0.002,0.0728 0.45516,0.39433 1.01615,0.7146 2.18225,1.24586 2.47902,4.03412 0.60947,5.72604 -0.755,0.68327 -2.47459,1.01918 -3.75019,0.73257 l -1.05834,-0.2378 v 1.92058 c 0,2.04594 -0.48391,3.09687 -1.58723,3.44705 -0.72987,0.23165 -2.52586,-0.63937 -4.2819,-2.07663 -0.82692,-0.67682 -1.63059,-1.23058 -1.78592,-1.23058 -0.15534,0 -0.28243,-0.11906 -0.28243,-0.26458 0,-0.14552 -0.27574,-0.26458 -0.61274,-0.26458 -0.44656,0 -0.78203,0.30496 -1.23696,1.12448 -1.43326,2.58191 -2.63312,3.63802 -4.13319,3.63802 -1.08197,0 -2.89808,-1.19292 -3.79025,-2.48963 -0.87752,-1.27545 -1.86853,-3.60042 -1.86853,-4.38372 0,-0.83256 -0.4113,-0.83397 -1.48984,-0.005 -0.56303,0.4327 -1.14276,0.87838 -1.28828,0.9904 -0.78932,0.60761 -1.72031,1.11162 -1.72385,0.93323 -0.002,-0.1125 -0.0915,-0.0717 -0.19843,0.0907 -0.31321,0.47562 -2.36458,1.42459 -3.07951,1.42459 -0.36149,0 -0.988704,-0.2851 -1.393804,-0.63355 -0.68755,-0.59141 -0.73474,-0.76305 -0.70919,-2.57969 0.0151,-1.07037 0.21552,-2.47726 0.4455,-3.12642 0.43768,-1.23548 0.38437,-1.64647 -0.14493,-1.11718 -0.17219,0.1722 -0.77468,0.31309 -1.33885,0.31309 -1.52383,0 -2.57257,-1.1277 -2.57257,-2.76627 0,-2.21428 1.06871,-3.82132 3.6152,-5.43626 l 1.2509,-0.7933 h -1.89086 c -1.03997,0 -2.5218,0.13341 -3.29294,0.29647 -1.7015,0.35978 -6.0323,2.05426 -6.0323,2.3602 0,0.12094 0.47141,0.48483 1.04758,0.80866 0.57616,0.32382 0.98585,0.68863 0.91042,0.81068 -0.2998,0.4851 -1.76999,0.14546 -6.97625,-1.61164 -10.27695,-3.46844 -11.7136,-3.48686 -21.83695,-0.28001 -2.82303,0.89427 -3.73854,1.07465 -5.10736,1.00626 -1.56769,-0.0783 -1.65704,-0.0516 -1.48895,0.44584 0.0984,0.29104 0.22968,1.48167 0.29184,2.64583 0.0956,1.79041 0.0307,2.24812 -0.42108,2.96946 -1.08124,1.72647 -3.13344,1.41828 -6.73477,-1.01137 -1.29131,-0.87119 -2.36719,-1.54909 -2.39087,-1.50645 -1.93416,3.48386 -4.98538,6.29725 -6.82629,6.29425 -1.68565,-0.003 -3.19043,-1.95263 -3.55401,-4.60524 -0.0916,-0.66804 -0.21333,-1.21461 -0.27059,-1.21461 -0.0573,0 -0.72569,0.494 -1.48539,1.09778 -1.82029,1.44668 -3.87594,2.34181 -5.37793,2.34181 -0.97733,0 -1.34874,-0.14531 -1.97683,-0.7734 -1.23897,-1.23897 -1.07826,-2.77325 0.71203,-6.79755 0.0844,-0.18963 -0.45836,-0.36161 -1.52021,-0.48174 -3.01853,-0.34151 -3.79465,-1.16893 -3.01395,-3.21315 0.57906,-1.51625 2.25388,-2.96876 4.94166,-4.28575 l 2.13721,-1.0472 0.72544,-2.74696 c 0.39899,-1.51083 0.81464,-2.95532 0.92366,-3.20998 0.15829,-0.36977 0.0661,-0.46302 -0.45778,-0.46302 -1.58038,0 -4.99688,1.38953 -10.61227,4.31615 -0.80646,0.42031 -1.11693,0.46906 -1.45521,0.22851 -1.22812,-0.87332 -2.49828,-1.32862 -4.53106,-1.62419 -3.15425,-0.45864 -4.4555202,-0.82106 -7.9803902,-2.22269 -1.69708,-0.67482 -3.39014,-1.22695 -3.76234,-1.22695 h -0.67674 l 0.67856,0.99219 c 0.86785,1.26896 2.05158,3.61985 2.46465,4.89479 0.29986,0.9255 0.39192,0.99219 1.36982,0.99219 0.57659,0 1.50137,0.23111 2.05505,0.51358 1.11803,0.57037 2.7686402,2.2981 2.5435202,2.66235 -0.0795,0.12861 -0.75602,-0.14641 -1.5034302,-0.61115 -1.18443,-0.73651 -1.63656,-0.85674 -3.52155,-0.93648 l -2.16265,-0.0915 -0.57716,-1.79202 c -1.01941,-3.16516 -3.17782001,-5.94056 -5.59609,-7.19575 -0.97604,-0.50661 -1.59595,-0.61754 -3.43958,-0.61552 -1.97333,0.002 -2.46698,0.10541 -4.0278418,0.84228 -3.182398,1.5024 -5.159761,3.79098 -6.969715,8.06668 -0.956792,2.26026 -0.982379,2.29125 -1.667801,2.01998 -0.382857,-0.15152 -1.470009,-0.27398 -2.415894,-0.27211 -2.895095,0.006 -5.67058,1.3282 -7.412648,3.53207 -1.305006,1.65096 -2.175973,4.33151 -2.061257,6.34386 0.07662,1.34397 0.118525,1.42028 0.742655,1.35216 0.363802,-0.0397 1.613958,-0.6325 2.778125,-1.31734 4.638233,-2.72849 4.965054,-2.8438 8.060031,-2.8438 2.408573,0 2.949879,0.0843 3.97851,0.61981 2.002277,1.04235 3.415884,2.73645 3.059131,3.66614 -0.123296,0.3213 -0.315786,0.2437 -0.961469,-0.38757 -1.515425,-1.48161 -3.328199,-2.26075 -5.560613,-2.38998 -2.622622,-0.15182 -4.030612,0.31335 -7.15173,2.36278 -1.319301,0.8663 -3.508968,2.1044 -4.865927,2.75132 -1.671764,0.79701 -2.725859,1.49004 -3.269486,2.14955 -2.90364,3.52262 -4.479188,9.8866 -4.196326,16.94986 0.158143,3.94896 0.450708,4.98458 1.860653,6.58636 1.397372,1.5875 2.033029,1.86973 5.667145,2.5162 4.354211,0.77456 13.988271,0.86736 16.286752,0.15689 l 1.529588,-0.47281 2.5714528,0.82401 c 8.919055,2.85807 24.5057452,4.66045 44.8007352,5.18057 14.40352,0.36913 28.74328,-1.27481 37.59391,-4.30986 l 2.03569,-0.69808 3.23568,0.71728 c 10.35355,2.29516 28.622574,4.14661 45.741894,4.63567 3.8563,0.11017 7.42818,0.21465 7.9375,0.23218 0.50932,0.0175 4.61698,-0.0768 9.12812,-0.20968 z m -23.41562,-13.18921 c 0,-0.32227 1.00978,-0.73293 2.65922,-1.08147 2.53389,-0.53543 3.59069,-1.27118 5.92277,-4.12347 3.112,-3.80619 5.11337,-5.38041 9.67217,-7.60784 4.30752,-2.10466 5.90568,-3.00433 9.52709,-5.36319 1.38245,-0.90048 3.20347,-1.89211 4.04671,-2.20362 2.132,-0.7876 5.81415,-1.40023 7.84824,-1.30577 l 1.70849,0.0793 0.30701,-1.98438 c 0.35067,-2.26662 1.43612,-5.18604 2.51816,-6.77279 1.09297,-1.60278 3.47186,-3.66955 5.20114,-4.51872 1.38922,-0.68218 1.77395,-0.74703 4.43171,-0.74703 3.44278,0 4.66844,0.459 6.93937,2.59875 1.61237,1.51924 2.46039,2.87118 3.22539,5.14206 0.68287,2.02707 0.77858,5.35606 0.15399,5.35606 -0.21829,0 -0.39895,-0.0893 -0.40147,-0.19843 -0.003,-0.10914 -0.17154,-0.98602 -0.37558,-1.94861 -0.8211,-3.87373 -3.38409,-7.56329 -6.05083,-8.71049 -1.85964,-0.8 -5.54826,-0.67657 -7.42808,0.24855 -3.49735,1.72116 -6.49339,6.75436 -6.50992,10.93639 -0.004,0.96392 0.0445,1.01307 1.91431,1.94912 2.65384,1.3285 4.92698,2.9943 6.54502,4.79632 1.56737,1.74558 2.79507,3.9183 2.36444,4.18445 -0.15376,0.095 -0.32508,0.13109 -0.38072,0.0801 -0.0557,-0.051 -1.20858,-1.17125 -2.56209,-2.48955 -3.79005,-3.69146 -6.94567,-5.60767 -10.8122,-6.56556 -1.96797,-0.48754 -4.57815,-0.54734 -6.32458,-0.14491 -2.21806,0.51111 -5.63519,2.35631 -8.9786,4.84829 -1.9424,1.44775 -4.67522,3.17048 -6.54996,4.12899 -4.03652,2.06379 -5.61163,3.34153 -8.79714,7.13632 -3.24358,3.86396 -4.32167,4.50315 -7.59531,4.50315 -1.22031,0 -2.21875,-0.1 -2.21875,-0.22211 z m -93.323344,-6.03665 c -0.40482,-0.41804 -1.29906,-1.49947 -1.9872,-2.40318 -2.09215,-2.74752 -3.74431,-3.50889 -7.61417,-3.50889 h -2.56867 l -0.96081,-2.31511 C 7.6636458,196.2126 2.6209158,192.1919 -3.4490242,192.09254 l -1.59806,-0.0262 1.19062,-0.3877 c 2.44464,-0.79606 6.16903,-0.10443 8.92246,1.65692 2.66927,1.70751 4.6269,4.18435 6.4037002,8.10214 l 1.1467,2.52842 2.54534,0.1208 c 2.93798,0.13943 4.40511,0.67163 6.11835,2.21945 1.19566,1.0802 2.69823,3.10614 2.50197,3.37343 -0.067,0.0913 -0.0496,0.11358 0.0386,0.0496 0.0882,-0.064 0.4113,0.11734 0.71788,0.40297 0.47004,0.43791 0.90449,0.51341 2.77126,0.48161 1.2176,-0.0207 2.32666,0.0751 2.46458,0.21304 0.27272,0.27272 -1.9193,0.96173 -4.05523,1.27466 -1.14387,0.16758 -1.30995,0.11927 -1.98438,-0.57718 z m 11.56709,-1.12655 -1.4552,-0.15532 0.75617,-0.51217 c 0.51388,-0.34805 1.41288,-0.56042 2.80561,-0.66276 l 2.04944,-0.15059 2.8208,-2.69318 c 3.09568,-2.95562 4.69799,-3.91539 7.21282,-4.32039 1.77376,-0.28565 3.74587,0.0895 5.69366,1.08323 0.59496,0.30353 1.16602,0.45292 1.26902,0.33199 0.103,-0.12093 0.74213,-1.01294 1.42028,-1.98224 0.67815,-0.9693 1.70759,-2.1686 2.28764,-2.6651 3.32737,-2.8481 7.91109,-3.36577 10.8637,-1.2269 1.48378,1.07484 1.08662,1.39144 -0.73492,0.58586 -1.30635,-0.57772 -1.80272,-0.65496 -3.63283,-0.56527 -3.63487,0.17814 -6.24905,1.99883 -8.56395,5.9645 -0.61586,1.05503 -1.22502,1.91823 -1.35369,1.91823 -0.12868,0 -0.94146,-0.42146 -1.80619,-0.93657 -2.67446,-1.59317 -5.56751,-1.66804 -8.32289,-0.21539 -0.82452,0.43469 -2.40756,1.77144 -3.90113,3.29419 -1.38245,1.40946 -2.77361,2.69468 -3.09146,2.85604 -0.59864,0.30392 -1.81779,0.31856 -4.31688,0.0518 z m 80.138754,-7.85019 c 0.64976,-0.82604 1.6175,-3.33223 1.6175,-4.1889 0,-0.34053 0.17728,-0.76627 0.39395,-0.94609 0.32309,-0.26814 0.55572,-0.19068 1.29319,0.43062 0.49458,0.41667 1.59722,1.20687 2.45032,1.756 0.85309,0.54914 2.12963,1.41234 2.83674,1.91823 0.70712,0.5059 1.38633,0.91981 1.50937,0.91981 0.76811,0 0.44504,-3.24503 -0.54618,-5.48583 -0.27461,-0.62081 -0.40175,-1.12876 -0.28252,-1.12876 0.11923,0 0.91621,0.31173 1.77106,0.69273 0.87315,0.38915 2.26654,0.75188 3.17958,0.8277 1.51135,0.12551 1.65554,0.0888 2.05652,-0.52315 0.23718,-0.36197 0.35841,-0.84788 0.26942,-1.07979 -0.27718,-0.72231 -2.53038,-1.95889 -4.87728,-2.67671 -1.23693,-0.37832 -2.54662,-0.91834 -2.91042,-1.20005 -0.65371,-0.50618 -0.65526,-0.51674 -0.13229,-0.90096 0.49419,-0.36308 0.52794,-0.68313 0.51061,-4.84188 -0.0218,-5.22297 -0.48629,-7.83841 -2.19734,-12.37185 -1.42181,-3.76709 -1.42883,-4.39029 -0.0315,-2.79687 1.2484,1.42361 2.89166,4.70212 3.67136,7.32483 0.6205,2.08721 1.24568,2.78163 2.9691,3.29798 1.20208,0.36015 1.74732,0.0545 1.87509,-1.05103 0.0481,-0.41613 0.24554,-0.70868 0.47873,-0.70932 0.44248,-0.001 0.55958,-1.3533 0.16604,-1.91715 -0.16165,-0.23161 -0.0707,-0.33073 0.30357,-0.33073 0.44891,0 0.57974,0.26454 0.81783,1.65365 0.48706,2.84171 0.0554,3.81974 -3.0071,6.81302 -1.86585,1.82369 -2.64342,2.98441 -2.40883,3.59576 0.33066,0.86167 3.79609,0.13719 6.45664,-1.34981 0.65555,-0.3664 1.21875,-0.63467 1.25157,-0.59617 0.0328,0.0385 0.24971,0.73245 0.482,1.5421 0.67478,2.352 2.67397,4.72255 3.66275,4.34312 0.55259,-0.21205 1.19736,-1.68095 1.40421,-3.19902 0.3259,-2.39183 0.2592,-2.35997 2.01799,-0.96394 3.21481,2.55173 3.50929,2.73867 4.18912,2.65939 0.60104,-0.0701 0.68,-0.2112 0.75255,-1.3449 0.0588,-0.91872 -0.1007,-1.66357 -0.58068,-2.71198 -0.36395,-0.79496 -0.61636,-1.44538 -0.56092,-1.44538 0.0554,0 1.32877,0.2975 2.82963,0.66111 3.06447,0.74243 4.44863,0.8406 4.44863,0.3155 0,-0.87344 -1.83186,-2.1514 -5.00631,-3.49255 l -1.96361,-0.82958 -0.0224,-4.08193 c -0.0264,-4.82326 -0.46505,-6.73299 -1.94301,-8.45965 -1.04145,-1.2167 -8.01952,-5.99514 -10.39633,-7.11919 l -1.53304,-0.72502 -3.39215,1.6509 c -11.90241,5.7927 -24.14587,8.47304 -41.095284,8.99659 -16.79593,0.5188 -35.18481,-2.63661 -45.4951,-7.80666 -2.55168,-1.27953 -2.55735,-1.27929 -3.87387,0.162 -2.40307,2.6308 -4.92607,6.98288 -5.81384,10.02865 -0.25196,0.86444 -0.59214,2.57922 -0.75596,3.81062 l -0.29784,2.23892 -2.0436,0.69326 c -2.72983,0.92605 -5.48437,2.8383 -5.48437,3.80734 0,0.40002 5.00397,-5.3e-4 6.68944,-0.53553 0.4395,-0.13949 0.34937,0.0619 -0.4397,0.98248 -2.28936,2.6709 -4.08414,7.56239 -2.93639,8.00282 0.90347,0.3467 4.66987,-1.61999 8.25891,-4.31254 0.47116,-0.35346 0.90363,-0.59159 0.96106,-0.52917 0.0574,0.0624 0.18381,1.18506 0.28085,2.49475 0.2858,3.85715 0.709,4.81206 1.99092,4.4923 1.23638,-0.30839 2.36187,-1.44149 4.47083,-4.50105 l 2.09236,-3.03548 0.86427,1.12524 c 1.3472,1.75398 4.42982,3.89979 5.60554,3.90201 1.66033,0.003 1.63935,-2.52771 -0.0492,-5.93638 -1.06398,-2.14783 -1.25992,-2.79351 -0.84771,-2.79351 0.12003,0 1.09338,0.29765 2.163,0.66146 1.11507,0.37925 2.54584,0.66145 3.35364,0.66145 1.73742,0 1.82763,-0.39288 0.52438,-2.28402 -0.95323,-1.38323 -2.80345,-2.50367 -5.86239,-3.55008 -1.86742,-0.63882 -4.27461,-2.56703 -3.00867,-2.41001 0.0915,0.0113 0.24361,-0.46265 0.33807,-1.05331 0.1499,-0.93745 0.22441,-1.03022 0.58622,-0.72995 0.35048,0.29088 0.49145,0.24386 0.91282,-0.30442 l 0.49833,-0.64841 0.006,1.2916 0.006,1.29161 0.99219,-0.14809 c 0.5457,-0.0815 1.53715,-0.22956 2.20321,-0.32912 1.18353,-0.17691 1.23068,-0.15619 2.07725,0.91269 1.00066,1.26344 2.18018,2.11531 5.77218,4.16882 l 2.58121,1.47564 2.24896,-0.55763 c 5.08138,-1.25994 7.95836,-1.0221 14.62242,1.20883 l 4.43597,1.48504 2.31091,-1.08286 c 4.70659,-2.20545 8.60913,-2.847 13.261664,-2.18013 1.29624,0.18579 2.78564,0.25736 3.30979,0.15903 0.94786,-0.17782 0.95304,-0.18621 0.96141,-1.55586 0.007,-1.20956 0.0516,-1.3201 0.36381,-0.90871 0.32648,0.43026 0.35538,0.41251 0.35538,-0.21828 0,-1.04111 0.51913,-1.41095 0.8306,-0.59173 0.43025,1.13163 0.43535,4.15208 0.008,4.56301 -0.2064,0.19835 -1.60224,0.77765 -3.10186,1.28734 -4.489074,1.52573 -7.195274,3.49886 -7.195274,5.24616 0,0.74346 0.0635,0.80333 0.7276,0.68578 0.40018,-0.0708 1.73964,-0.51221 2.976564,-0.98083 2.82097,-1.06875 3.97864,-1.41 4.16186,-1.22678 0.0789,0.0789 -0.51219,0.85168 -1.31357,1.71725 -1.65391,1.78643 -2.46154,3.28305 -2.90021,5.37443 -0.34542,1.64683 -0.18759,2.32841 0.53917,2.32841 0.27712,0 1.76574,-0.6589 3.30805,-1.46422 1.5423,-0.80533 3.59554,-1.76209 4.56275,-2.12615 l 1.75857,-0.66192 -0.22283,1.00166 c -0.53558,2.40753 -0.0979,3.96495 1.66134,5.91227 1.17477,1.30032 2.38536,1.43485 3.23154,0.35911 z M 61.231036,185.9166 c 0,-0.42138 -0.48005,-0.81438 -0.71175,-0.58268 -0.21765,0.21766 0.12211,0.96394 0.43886,0.96394 0.15009,0 0.27289,-0.17156 0.27289,-0.38126 z m 66.876184,-1.27311 0.83415,-0.86063 -1.04683,-0.60248 -1.04684,-0.60248 v 1.46311 c 0,0.8047 0.0957,1.4631 0.21268,1.4631 0.11698,0 0.58805,-0.38728 1.04684,-0.86062 z m 24.74733,-3.76648 c 6.19703,-1.61412 13.78863,-7.76374 16.66161,-13.49685 1.4826,-2.95855 2.32497,-7.08465 1.78216,-8.72938 -0.25096,-0.76042 -0.48908,-0.9678 -1.38969,-1.21031 -1.89305,-0.50975 -4.95689,0.11187 -8.92968,1.81173 -5.7255,2.44981 -6.79188,2.76608 -9.79013,2.90365 -2.42211,0.11114 -3.1178,0.0372 -5.42146,-0.57591 -1.45353,-0.38687 -3.69146,-1.16616 -4.97317,-1.73176 l -2.33039,-1.02837 -0.84711,0.72592 c -0.46591,0.39926 -1.2936,0.99559 -1.8393,1.32519 -0.5457,0.3296 -0.99219,0.69388 -0.99219,0.8095 0,0.11563 0.86321,0.65836 1.91823,1.20607 2.1926,1.13828 7.8958,4.87514 9.02583,5.91391 2.014,1.85137 3.0739,5.21273 3.077,9.7584 l 0.002,2.71198 h 1.26733 c 0.69703,0 1.94762,-0.1772 2.7791,-0.39377 z m -52.72976,-10.80499 c 8.09149,-0.95311 18.0674,-3.46744 23.56263,-5.93873 0.64675,-0.29085 2.19483,-0.96351 3.44018,-1.49481 6.12481,-2.61297 12.06973,-7.11548 17.66942,-13.38228 9.91617,-11.09754 12.846,-26.33827 7.86603,-40.91851 -1.10962,-3.24873 -1.4442,-4.03523 -3.20646,-7.53767 -8.23808,-16.372918 -25.60776,-30.782377 -43.11409,-35.766404 -3.99904,-1.138518 -4.37226,-1.223794 -8.334384,-1.904246 -17.1931,-2.952742 -35.29533,0.104759 -49.34479,8.334427 -1.30968,0.76717 -2.61937,1.529959 -2.91041,1.69509 -1.14009,0.646862 -4.86798,3.383637 -6.87917,5.050242 -10.35137,8.577823 -19.41515,22.171101 -22.2332,33.343951 -1.24122,4.92113 -1.54429,7.83844 -1.36977,13.18547 0.1596,4.8899 0.73906,8.09915 2.18156,12.08223 3.46043,9.55513 10.84959,18.13935 20.09849,23.34906 3.29837,1.8579 6.83579,3.55052 9.52619,4.55819 2.49827,0.93571 9.48955,3.02185 11.90506,3.55236 2.48342,0.54543 9.25507,1.56678 12.30313,1.85565 1.67349,0.15861 3.45942,0.33537 3.96875,0.39281 2.36624,0.26689 21.74934,-0.0891 24.870834,-0.45683 z M 71.577466,133.49166 c -2.50053,-0.67243 -5.52028,-2.702 -6.33872,-4.26025 -0.39394,-0.75003 -0.38747,-1.74587 0.014,-2.14729 0.66085,-0.66086 1.65844,-0.34895 2.86855,0.89689 1.99507,2.05395 3.08523,2.6661 5.36286,3.01135 2.75264,0.41726 5.26941,0.0275 7.51185,-1.1632 0.91647,-0.48665 1.66632,-0.7795 1.66632,-0.65077 0,0.12874 0.23812,-0.004 0.52917,-0.29511 0.88489,-0.88489 2.28548,-0.68985 5.07346,0.70653 2.45263,1.22842 2.48353,1.23582 5.24529,1.25677 1.52796,0.0116 3.1702,-0.0586 3.6494,-0.15607 0.93178,-0.18945 4.302914,-2.35056 4.125794,-2.64489 -0.17826,-0.29624 1.40588,-1.71939 1.9245,-1.72893 0.71013,-0.0131 1.41281,0.70034 1.41281,1.43437 0,1.17811 -0.86505,2.3566 -2.59337,3.53305 -1.53979,1.04812 -2.599534,1.5785 -2.784454,1.39358 -0.0843,-0.0843 -0.33142,0.025 -0.5492,0.24272 -0.63481,0.63482 -4.20191,1.03772 -6.54377,0.73912 -1.97477,-0.2518 -2.66533,-0.4767 -5.41502,-1.76352 -1.74527,-0.81676 -2.28497,-0.79607 -3.96477,0.15195 -2.46297,1.39001 -4.30851,1.86431 -7.1791,1.84499 -1.42342,-0.01 -3.23042,-0.19016 -4.01556,-0.40129 z m -33.1006,-1.45929 c -2.1581,-0.42147 -4.3156,-1.70085 -6.15323,-3.64884 -1.98962,-2.1091 -2.99184,-4.04542 -3.58923,-6.93446 -1.19864,-5.79674 1.92804,-11.99029 7.37574,-14.61041 4.20306,-2.0215 8.75564,-1.79604 12.35114,0.61168 3.88845,2.60389 5.99506,6.11324 6.32735,10.5406 0.37629,5.01357 -1.82994,9.54843 -5.99302,12.31852 -2.72785,1.81511 -6.56555,2.45588 -10.31875,1.72291 z m -0.44562,-8.74494 c 0.77907,-0.41008 0.96596,-0.73838 0.97074,-1.70533 0.006,-1.27972 -1.29588,-2.15606 -2.51504,-1.69254 -1.4069,0.53491 -1.52386,2.5639 -0.18952,3.2879 0.89035,0.4831 1.01044,0.49072 1.73382,0.10997 z m 5.22519,-5.18592 c 2.00884,-1.01866 2.96737,-2.45523 3.10759,-4.65745 0.0837,-1.31505 -0.0101,-1.89834 -0.4417,-2.74425 -1.58336,-3.10365 -5.56544,-4.39743 -8.71066,-2.83011 -3.71044,1.849 -4.58347,6.04381 -1.8704,8.98713 1.9121,2.07439 5.2453,2.59854 7.91517,1.24468 z m 81.015434,13.81348 c -0.76187,-0.20518 -1.9525,-0.66521 -2.64584,-1.02229 -1.25409,-0.64588 -4.16381,-3.03088 -3.95384,-3.24085 0.0605,-0.0605 -0.21813,-0.46138 -0.61925,-0.89078 -2.64464,-2.83109 -3.14402,-9.55992 -1.05055,-14.15537 0.29688,-0.6517 0.64143,-1.18492 0.76566,-1.18492 0.12423,0 0.37552,-0.36127 0.55841,-0.80283 0.47347,-1.14303 2.42963,-2.76952 4.60781,-3.83123 8.72821,-4.25441 18.95002,2.45571 18.93321,12.42872 -0.006,3.47699 -1.14964,6.22182 -3.7589,9.02064 -3.20111,3.43364 -8.31034,4.89791 -12.83671,3.67891 z m 9.25656,-9.06606 c 0.6359,-0.54614 0.59947,-2.03128 -0.0661,-2.6969 -0.7151,-0.71509 -1.73896,-0.66634 -2.52557,0.12027 -0.75551,0.7555 -0.81791,1.37355 -0.22425,2.22111 0.76029,1.08546 1.81153,1.21818 2.81596,0.35552 z m -2.69141,-4.32182 c 2.35968,-0.70697 4.04452,-3.00785 4.06165,-5.54671 0.0285,-4.22198 -4.87146,-7.06162 -9.06917,-5.25582 -3.98537,1.71446 -4.70535,6.72706 -1.37561,9.57719 1.65471,1.41638 4.14801,1.895 6.38313,1.22534 z M 5.7085558,146.8088 c 0.67147,-0.47294 1.94266,-1.36591 2.82486,-1.98437 2.5558502,-1.79177 3.6776602,-1.3802 3.3323902,1.22257 -0.10911,0.82252 -0.0667,1.35378 0.11707,1.46737 0.15845,0.0979 1.06173,-0.54166 2.00729,-1.42131 0.94555,-0.87965 1.81149,-1.59754 1.9243,-1.59531 0.45353,0.009 0.82857,0.44403 1.25096,1.45116 0.42172,1.00551 0.46282,1.0327 0.82349,0.54474 0.59824,-0.80937 0.46736,-1.3952 -0.92144,-4.12428 -2.23103,-4.38413 -3.57647,-8.78188 -4.26759,-13.94911 -0.18003,-1.34606 -0.4354,-2.44739 -0.56748,-2.44739 -0.69943,0 -3.2765902,1.75073 -4.9463002,3.36015 -0.83532,0.80516 -1.14003,0.77421 -3.12606,-0.31744 -0.92659,-0.50933 -1.78947,-0.92605 -1.91749,-0.92605 -0.27249,0 -0.0969,1.86302 0.26535,2.81592 0.13762,0.36196 0.25022,0.76943 0.25022,0.90547 0,0.13763 -1.22547,0.24736 -2.76251001,0.24736 -1.63384999,0 -2.83225999,0.11286 -2.93322999,0.27622 -0.36421,0.58931 0.65732,1.53502 2.11619999,1.95913 0.80458,0.2339 1.46287,0.47842 1.46287,0.54337 0,0.065 -0.38695,0.31956 -0.8599,0.56577 -0.58,0.30195 -1.74457999,0.48778 -3.57785999,0.57091 -1.49488,0.0678 -2.78506,0.23182 -2.86707,0.36452 -0.3362,0.54399 0.74549,1.50655 2.45946,2.18858 2.17256,0.86451 3.33543999,1.85851 3.09383,2.64454 -0.092,0.29934 -0.50947,1.01419 -0.92767,1.58857 -0.88091,1.20985 -0.98486,2.15607 -0.26207,2.38547 0.6865,0.21789 2.88166999,-0.30708 3.89003,-0.93028 0.45843,-0.28332 1.18423,-0.51513 1.6129,-0.51513 h 0.77941 l -0.11428,1.57984 c -0.11541,1.59559 0.02,2.38891 0.40783,2.38891 0.1164,0 0.76102,-0.38695 1.43249,-0.8599 z M 158.04994,145.38599 c 0.0217,-1.58054 0.4213,-2.05885 1.49504,-1.78936 0.76281,0.19145 2.88474,1.52011 3.17327,1.98696 0.37215,0.60215 2.35279,1.82053 2.95953,1.82053 0.64225,0 0.64938,-0.0257 0.55047,-1.98438 -0.11769,-2.3307 0.023,-2.41461 2.16839,-1.29284 0.88267,0.46154 1.78304,0.70353 2.70711,0.72761 1.25353,0.0327 1.39269,-0.0212 1.47036,-0.56865 0.0472,-0.33259 -0.23375,-1.14994 -0.62428,-1.81633 l -0.71006,-1.21162 0.51342,-0.69721 c 0.57687,-0.78335 1.79118,-1.44831 3.41665,-1.87095 0.74833,-0.19457 1.13972,-0.45924 1.23867,-0.83764 0.31105,-1.18946 0.20259,-1.24207 -4.31706,-2.09398 -2.37363,-0.44741 -2.4294,-0.64236 -0.44157,-1.54368 0.97047,-0.44004 1.76449,-0.92659 1.76449,-1.08124 0,-0.15465 5.3e-4,-0.36094 0.001,-0.45843 5.3e-4,-0.0975 -0.86254,-0.21122 -1.91823,-0.25274 -1.05568,-0.0415 -2.53553,-0.22964 -3.28856,-0.41805 l -1.36926,-0.34258 0.6309,-1.45521 c 1.08724,-2.50774 0.9148,-2.6107 -1.73546,-1.03621 -1.12068,0.66578 -2.00156,1.02182 -2.29521,0.92768 -0.2621,-0.084 -1.04189,-0.72979 -1.73288,-1.43504 -1.33661,-1.36421 -3.72552,-2.83071 -4.16685,-2.55795 -0.14595,0.0902 -0.26535,0.58476 -0.26535,1.09901 0,3.18956 -2.18839,10.47346 -4.55521,15.16171 -0.84162,1.66709 -1.53021,3.18514 -1.53021,3.37344 0,0.65318 0.52598,0.33689 1.19062,-0.71597 0.36763,-0.58236 0.87804,-1.05834 1.1349,-1.05834 0.25674,0 1.29506,0.83466 2.30737,1.85479 2.05517,2.07104 2.19372,2.04409 2.22768,-0.43333 z M 8.7227658,119.75516 c 1.3599402,-0.80037 2.5685202,-1.454 2.6857502,-1.45252 0.11723,0.002 0.42125,0.49783 0.6756,1.103 0.25434,0.60518 0.51652,1.04624 0.58262,0.98014 0.0661,-0.0661 0.1907,-1.06846 0.27688,-2.22748 0.35545,-4.77981 1.5739,-9.53877 3.74168,-14.61404 l 1.19764,-2.80396 -0.61641,-0.46496 c -0.53839,-0.406108 -1.39466,-0.718208 -4.18965,-1.527078 -0.49154,-0.14225 -0.76341,-0.50984 -1.05834,-1.43098 -0.38373,-1.1985 -1.04442,-1.64241 -1.45521,-0.97774 -0.31442,0.50874 -1.1492102,0.25789 -1.8285602,-0.54947 -0.37674,-0.44773 -0.68498,-0.93135 -0.68498,-1.07472 0,-0.55719 -1.37826,-3.13799 -1.67286,-3.13243 -0.17133,0.003 -0.60917,0.23871 -0.97297,0.52328 -1.40414,1.09834 -1.88051,0.61583 -3.32111,-3.36391 -2.26747001,-6.26397 -3.70595,-6.47929 -3.51034,-0.52544 l 0.0939,2.85752 -0.66612,-0.16165 c -0.36636,-0.0889 -1.11004,-0.45205 -1.65263,-0.807 -0.54258,-0.35494 -1.10813,-0.64535 -1.25677,-0.64535 -0.58433,0 -0.22215,1.5337 0.67774,2.86995 0.52139,0.77423 0.87793,1.47773 0.79232,1.56335 -0.0856,0.0856 -1.10752,0.13224 -2.27091,0.10362 -1.9957,-0.0491 -2.11524,-0.0203 -2.11524,0.50937 0,0.33187 0.70315,1.28975 1.7198,2.3428 0.94588,0.97977 1.71548,1.89093 1.71021,2.0248 -0.005,0.13387 -0.63034,0.66232 -1.38906,1.174328 -0.81807,0.55206 -1.41258,1.16114 -1.46079,1.49659 -0.10671,0.74239 0.99548,1.75171 2.75675,2.52446 2.23032,0.97854 2.25214,1.26245 0.24938,3.24558 -2.61175,2.58617 -2.5941,3.78519 0.0595,4.04016 1.07838,0.10362 1.59615,-0.0172 2.99238,-0.6984 1.76245999,-0.85985 2.25704,-0.96329 2.8396,-0.59392 0.26602,0.16867 0.12769,0.45698 -0.5785,1.20576 -0.92795001,0.98391 -1.42348001,2.26473 -1.08690001,2.80933 0.10222,0.16541 0.5905,0.23351 1.14166001,0.15924 0.52968,-0.0714 1.11296,-0.005 1.29619,0.1467 0.89029,0.73888 -0.14437,1.63207 -1.91581001,1.65388 -0.94792,0.0117 -1.0669,0.0872 -1.14046,0.72406 -0.12327,1.06731 0.90279,1.64079 2.63744001,1.47412 1.25444,-0.12054 1.4541,-0.24203 2.66345,-1.62075 1.91934,-2.18813 2.66015,-1.87309 1.54902,0.65873 -0.90684,2.06633 -1.03395,3.93624 -0.26757,3.93624 0.16451,0 1.41178,-0.65485 2.77172,-1.45521 z m 154.9020242,0.13833 c 0,-0.57876 -0.28941,-1.82118 -0.64314,-2.76094 -0.51965,-1.38059 -0.5772,-1.76336 -0.29973,-1.99364 0.26279,-0.21809 0.69853,0.11949 1.85614,1.43802 1.47403,1.67895 1.54575,1.72302 2.80396,1.72302 1.00581,0 1.35177,-0.11312 1.56512,-0.51177 0.43775,-0.81793 0.32985,-1.07935 -0.60706,-1.47082 -1.1565,-0.48321 -1.58734,-1.03049 -1.36435,-1.73307 0.13831,-0.43579 0.31077,-0.52435 0.74946,-0.38483 1.55448,0.49437 1.94599,0.4621 2.11641,-0.17443 0.29387,-1.09763 0.18866,-1.50988 -0.62057,-2.43153 -0.43656,-0.49722 -0.79375,-1.03714 -0.79375,-1.19983 0,-0.59171 1.25084,-0.44008 3.23318,0.39193 2.56163,1.07515 4.17516,0.76943 4.17516,-0.79107 0,-0.70642 -0.31617,-1.22351 -1.61437,-2.64027 -0.89157,-0.97298 -1.55348,-1.92048 -1.47837,-2.11621 0.0748,-0.19493 0.71197,-0.68502 1.41593,-1.08908 1.64083,-0.94181 2.99972,-2.22482 2.99972,-2.83222 0,-0.27832 -0.54617,-0.83237 -1.31816,-1.337158 -0.72499,-0.47406 -1.3203,-1.00491 -1.32291,-1.17966 -0.003,-0.17475 0.76915,-1.07284 1.71503,-1.99576 1.09029,-1.0638 1.71979,-1.89176 1.71979,-2.26195 0,-0.5505 -0.11409,-0.58393 -1.99267,-0.58393 -2.4167,0 -2.66544,-0.31357 -1.45804,-1.83803 0.4594,-0.58004 0.90537,-1.48663 0.99106,-2.01466 l 0.1558,-0.96005 -1.15565,0.58957 c -0.6356,0.32426 -1.47197,0.68028 -1.85861,0.79117 -0.6734,0.19313 -0.70988,0.15113 -0.86743,-0.99825 -0.0904,-0.65992 -0.16446,-1.99392 -0.16446,-2.96445 0,-1.16234 -0.13524,-1.93986 -0.39627,-2.27817 -0.38729,-0.50194 -0.41048,-0.4977 -1.02239,0.18698 -0.34436,0.38531 -1.0003,1.63547 -1.45764,2.77812 -2.04183,5.10146 -2.64484,5.74649 -4.28222,4.58058 -0.44519,-0.31701 -0.89188,-0.49578 -0.99265,-0.39727 -0.10076,0.0985 -0.71898,1.27236 -1.37382,2.60855 -1.27805,2.60783 -1.90646,3.07343 -2.91557,2.16021 -0.5989,-0.542 -1.05318,-0.31244 -1.05318,0.53221 0,1.57498 -0.35915,1.89637 -2.46992,2.21031 -2.22666,0.33117 -3.35092,0.75441 -3.35092,1.261488 0,0.18839 0.48422,1.44287 1.07603,2.78774 2.03096,4.6152 3.45508,9.87595 3.85683,14.24728 0.11368,1.23692 0.24919,1.98107 0.30115,1.65364 0.13868,-0.87397 0.65542,-0.74373 2.887,0.72761 1.10357,0.7276 2.28764,1.32291 2.63128,1.32291 0.55194,0 0.6248,-0.1227 0.6248,-1.05229 z"
       id="path255" /></g></svg>
