<?xml version="1.0" encoding="UTF-8" standalone="no"?>
<!-- Created with Inkscape (http://www.inkscape.org/) -->

<svg
   width="210.99623mm"
   height="245.10867mm"
   viewBox="0 0 210.99622 245.10869"
   version="1.1"
   id="svg5"
   xml:space="preserve"
   xmlns="http://www.w3.org/2000/svg"
   xmlns:svg="http://www.w3.org/2000/svg"><defs
     id="defs2" /><g
     id="layer1"
     transform="translate(27.951782,-42.636056)"><path
       style="fill:#000000;stroke-width:0.264583"
       d="m 118.60873,287.59634 c -9.01218,-0.65648 -18.694178,-2.82059 -24.390388,-5.45172 -4.11567,-1.90106 -6.53181,-3.79977 -7.67216,-6.02911 -0.69274,-1.35428 -0.78722,-2.05249 -1.39651,-10.32004 -0.14917,-2.02404 -0.32004,-3.72889 -0.37971,-3.78857 -0.0597,-0.0597 -1.07502,0.0328 -2.25632,0.20556 -3.43077,0.50164 -9.0428,-0.22528 -13.09519,-1.69622 l -1.67606,-0.60838 -2.48037,0.75574 c -9.58526,2.92049 -25.56535,6.04307 -38.59599,7.54184 -5.96436,0.68601 -22.3516004,0.68388 -26.72292042,-0.003 -11.00370958,-1.73025 -18.01916958,-4.43392 -22.69948958,-8.74808 -1.72018,-1.5856 -3.88082,-5.02256 -4.59452,-7.30854 -0.52762,-1.68997 -0.61646,-2.51429 -0.59886,-5.55625 0.0252,-4.35919 0.58797,-6.81133 2.45532,-10.69914 5.49579,-11.44213 17.9916896,-18.14044 33.8415596,-18.14044 4.3692904,0 7.9035904,0.38184 11.0154304,1.19009 1.31592,0.34178 2.4694,0.57394 2.56331,0.5159 0.0939,-0.058 0.122,-0.5477 0.0625,-1.08814 -0.14887,-1.35085 0.38001,-8.6429 0.86036,-11.86264 2.40328,-16.10884 8.33096,-31.38032 17.7543,-45.74036 1.22966,-1.87386 2.82361,-4.18357 3.54211,-5.13268 0.7185,-0.94912 1.30636,-1.82537 1.30636,-1.94724 0,-0.12187 -0.38695,-0.38657 -0.85989,-0.58824 -0.47295,-0.20166 -2.22912,-1.15003 -3.90261,-2.10749 l -3.04271,-1.74085 -0.52826,0.71489 c -0.93563,1.26617 -1.9721,2.15385 -3.38381,2.89804 -1.25258,0.66031 -1.63535,0.727 -4.15772,0.72441 -2.20487,-0.002 -2.84148,0.0819 -3.08515,0.40777 -0.60046,0.80305 -3.09889,1.82331 -4.90433,2.00273 -2.05281,0.204 -3.83199,-0.25656 -5.78171,-1.49666 -1.10052,-0.69998 -1.29292,-0.74076 -2.24895,-0.47674 -1.5208,0.42001 -4.3352304,0.14641 -5.8029804,-0.56412 -0.71907,-0.34809 -1.64669,-1.11617 -2.20203,-1.8233 l -0.95956,-1.22183 h -2.00306 c -2.47820002,0 -3.6327,-0.54309 -7.18177,-3.37844 -4.05917,-3.24286 -6.3712896,-5.87456 -7.9027396,-8.995 -2.09352,-4.26573 -1.93518,-8.87112 0.4244,-12.34356 1.75625,-2.58455 4.6303396,-4.72687 7.2520496,-5.40559 1.1784,-0.30507 1.43767,-0.47052 1.36298,-0.86978 -0.0507,-0.27117 -0.0907,-1.2697 -0.0887,-2.21895 l 0.004,-1.72591 -1.1755,-0.48619 c -2.52744,-1.04536 -4.13876,-3.49963 -4.06754,-6.19541 0.056,-2.1194 0.0571,-2.11482 -0.55175,-2.30806 -0.30154,-0.0957 -1.2246796,-0.84787 -2.0514296,-1.67147 -3.45293,-3.43982 -5.20291,-9.202464 -4.5561,-15.00312 0.70033,-6.28061 3.82816,-11.019697 8.8061996,-13.342572 2.81918,-1.3155 4.87814,-1.708928 7.97619998,-1.524095 6.75664002,0.403108 12.69696042,4.451739 16.68670042,11.372847 0.39846,0.691224 0.80246,1.255656 0.89777,1.254294 0.0953,-0.0013 0.45068,-0.924097 0.7897,-2.050521 3.70566,-12.312342 13.71949,-25.122078 25.24977,-32.299641 4.92767,-3.067458 13.47904,-6.606203 19.50986,-8.07361 6.81532,-1.658287 11.24511,-2.281554 17.5948,-2.475571 14.39122,-0.439727 29.027218,3.041074 40.711008,9.682086 6.29633,3.578799 11.02794,7.005716 15.19753,11.006962 1.06345,1.020514 2.02891,1.889564 2.14545,1.93122 0.11655,0.04166 0.29344,-0.851312 0.39309,-1.984374 0.55467,-6.306317 2.70021,-10.533956 6.48522,-12.778661 3.93665,-2.334643 8.82972,-2.419725 13.20863,-0.229677 1.96765,0.984088 6.59911,5.242015 6.27402,5.768012 -0.10147,0.164193 -0.0499,0.265814 0.11472,0.22583 0.39706,-0.09648 2.67489,4.023762 3.85463,6.972435 2.33762,5.842703 2.23894,9.949827 -0.3028,12.602535 l -1.16534,1.216215 0.69174,2.003472 c 0.84427,2.445277 0.76733,4.271891 -0.26582,6.310712 -0.38008,0.750041 -0.69105,1.484453 -0.69105,1.632029 0,0.164431 0.44571,0.207225 1.15119,0.11053 3.28631,-0.45044 7.59828,1.237544 10.16185,3.978013 3.10196,3.315999 4.1863,7.392874 3.1062,11.67857 -1.44463,5.73218 -6.87565,11.64275 -11.5935,12.61721 -1.38168,0.28538 -1.63526,0.44634 -2.44848,1.55418 -0.49895,0.6797 -1.20467,1.43074 -1.56826,1.66897 -0.86189,0.56474 -0.83543,0.86979 0.0931,1.07374 1.33013,0.29214 4.69702,2.45443 5.86274,3.76517 0.6215,0.69883 1.44076,1.92544 1.82058,2.7258 0.60134,1.26714 0.69058,1.79715 0.69058,4.10104 0,2.34579 -0.0819,2.81254 -0.72194,4.11585 -1.57029,3.19739 -4.6825,5.81135 -9.19993,7.72705 -4.8132,2.04113 -9.18757,2.14938 -11.39954,0.28211 -0.32994,-0.27853 -0.60285,-0.29001 -1.28026,-0.0539 -1.08976,0.37989 -3.10603,0.14908 -5.22445,-0.59806 l -1.63237,-0.57572 -0.80615,0.67834 c -0.44339,0.37308 -1.53038,1.11827 -2.41555,1.65598 -0.88517,0.53771 -1.57309,1.05477 -1.52871,1.14903 0.0444,0.0943 0.39993,0.77769 0.79012,1.51876 l 0.70943,1.3474 3.39009,0.16459 c 11.19931,0.54374 20.67885,3.03994 25.70927,6.76992 1.9865,1.47295 3.02988,2.65675 4.04439,4.5887 1.26927,2.41708 1.38689,3.68815 1.05252,11.37396 -0.27817,6.3942 -0.69902,16.90251 -2.14334,53.51845 -0.29274,7.42156 -0.64888,16.17265 -0.79141,19.44687 -0.14253,3.27422 -0.38843,9.22735 -0.54644,13.22917 -0.53591,13.57258 -0.73472,17.06416 -1.01234,17.77939 -0.15239,0.39258 -0.72457,1.20912 -1.27153,1.81453 -4.40878,4.87999 -17.79803,9.32192 -33.09143,10.97818 -4.46886,0.48397 -15.22058,0.69387 -19.51584,0.38099 z m 19.18229,-4.87558 c 5.87855,-0.65372 13.24034,-2.05718 17.42768,-3.32245 6.36307,-1.92269 11.6152,-4.70668 12.64854,-6.70459 0.42857,-0.82861 0.45455,-1.20581 1.0235,-14.85985 0.2183,-5.23875 0.51379,-12.2039 0.65664,-15.47812 0.14286,-3.27422 0.37849,-9.70359 0.52363,-14.2875 0.27759,-8.76738 0.62843,-17.59195 1.06768,-26.85521 0.45001,-9.49018 1.03862,-24.83265 1.21807,-31.75 0.16842,-6.49165 0.16039,-6.64054 -0.43196,-8.01143 -2.1046,-4.87076 -11.63838,-8.27653 -25.77165,-9.20646 l -2.88266,-0.18967 0.17849,0.71117 c 0.17697,0.7051 -0.50307,4.95057 -2.33478,14.57586 -0.49806,2.61725 -0.86951,4.79469 -0.82544,4.83876 0.1262,0.1262 7.08481,-0.70856 10.73143,-1.28735 5.51969,-0.87608 11.19736,-2.38837 13.78282,-3.67115 1.73067,-0.85868 2.44146,-0.6071 1.16358,0.41184 l -0.74938,0.59753 0.88476,0.0863 c 0.48662,0.0474 0.93169,0.22935 0.98906,0.40422 0.12645,0.38542 -2.82265,1.9097 -3.34153,1.72712 -0.20215,-0.0711 -0.29357,-0.01 -0.20316,0.13667 0.16284,0.26347 -3.75309,1.50959 -7.23672,2.30285 -2.83122,0.6447 -9.69317,1.6905 -13.22693,2.01587 -1.81901,0.16748 -3.34802,0.34209 -3.39781,0.38803 -0.0498,0.0459 -0.38473,1.61044 -0.74434,3.47668 -0.35961,1.86625 -0.70265,3.6313 -0.7623,3.92234 -0.0597,0.29104 -0.22463,1.3626 -0.36662,2.38125 -0.14199,1.01865 -0.37736,2.4474 -0.52304,3.175 -0.14568,0.7276 -0.46744,2.39448 -0.71502,3.70417 -0.31372,1.6595 -0.59974,2.48698 -0.94369,2.73008 -0.27144,0.19186 -0.43332,0.44626 -0.35973,0.56533 0.22968,0.37163 -0.52119,0.79085 -1.13091,0.6314 -0.3782,-0.0989 -0.58154,-0.35699 -0.58154,-0.73812 0,-1.41841 2.31095,-16.8012 3.69864,-24.61994 0.43906,-2.47386 0.98202,-5.62901 1.20657,-7.01146 0.22456,-1.38245 0.70103,-4.09905 1.05882,-6.03688 0.80992,-4.3865 0.81861,-4.65501 0.13878,-4.29118 -0.97217,0.52029 -2.66323,0.26339 -2.66323,-0.40459 0,-0.19651 0.43345,-0.68979 0.96323,-1.09618 1.83965,-1.41116 1.92094,-1.5342 1.69009,-2.55775 -0.3164,-1.40288 -1.73828,-3.16171 -5.08384,-6.28856 -1.65527,-1.54706 -5.92298,-5.5784 -9.4838,-8.95854 -7.06723,-6.70863 -8.21966,-7.67257 -9.17289,-7.67257 -1.54925,0 -3.22638,1.53191 -3.44268,3.1446 -0.14237,1.06139 -0.11018,1.11318 1.87377,3.0152 1.11024,1.06439 2.01862,1.88094 2.01862,1.81454 0,-0.0664 0.74496,0.58276 1.65546,1.44258 5.43226,5.12981 11.94474,10.86063 12.90808,11.3588 0.62691,0.32418 0.78229,0.57796 0.78229,1.27766 0,0.58937 0.2151,1.0752 0.66184,1.49489 0.51714,0.48583 0.65286,0.8591 0.62078,1.7073 -0.0226,0.59704 0.0928,1.33572 0.25649,1.64151 0.22589,0.42208 0.19877,1.12121 -0.11262,2.90289 -2.08011,11.90186 -7.54646,49.10498 -9.5001,64.65628 -0.84255,6.70679 -1.92248,13.51753 -2.42632,15.30199 -0.48013,1.70048 -0.29735,2.9256 0.55611,3.72738 0.83679,0.78613 2.47412,0.99652 3.52522,0.45298 1.71437,-0.88654 2.01588,-1.95907 3.24546,-11.54485 0.28932,-2.25558 1.24291,-9.04214 2.1191,-15.08125 0.87618,-6.03912 1.79141,-12.44418 2.03385,-14.23348 0.28376,-2.09429 0.52015,-3.11148 0.66354,-2.85526 0.1225,0.2189 0.37765,0.33856 0.56698,0.26591 0.18934,-0.0727 0.67723,-0.006 1.08421,0.14923 0.83614,0.3179 0.84893,-0.20046 -0.1307,5.29651 -0.29823,1.67349 -0.64606,3.75709 -0.77294,4.63021 -0.42624,2.93323 -0.54895,3.67942 -1.7621,10.71563 -1.53121,8.88094 -1.89284,11.44751 -2.23676,15.875 -0.32725,4.21297 -0.72269,5.7436 -1.8523,7.16986 -2.59342,3.27446 -7.82178,2.71728 -9.37456,-0.99903 -0.53188,-1.27296 -0.49181,-2.71675 0.14556,-5.24479 0.63338,-2.51222 1.85934,-10.36253 2.76838,-17.72708 0.35925,-2.91042 0.83146,-6.54183 1.04935,-8.0698 0.48563,-3.40548 1.14353,-8.88568 1.3023,-10.84791 0.22626,-2.79651 0.5013,-4.49792 0.72708,-4.49792 0.12517,0 0.22757,-0.64609 0.22757,-1.43576 0,-0.78967 0.23813,-2.64389 0.52917,-4.12049 0.29104,-1.4766 0.52917,-3.31143 0.52917,-4.0774 0,-0.76596 0.17789,-2.57291 0.39531,-4.01544 0.21742,-1.44253 0.39602,-2.81422 0.39687,-3.04819 10e-4,-0.36931 -0.65259,-0.44938 -4.95937,-0.60724 -11.97082,-0.43876 -22.149808,-1.54954 -27.068138,-2.95381 -0.36014,-0.10283 -0.39729,0.27766 -0.29827,3.05487 0.10307,2.89086 0.0491,3.3781 -0.60772,5.49154 -1.21344,3.90413 -3.31733,7.45978 -6.46972,10.93407 l -1.87021,2.06119 v 1.68154 c 0,0.92485 0.23554,5.84508 0.52343,10.93385 0.28789,5.08877 0.71367,12.75899 0.94617,17.04494 0.37157,6.84962 0.48433,7.87913 0.93177,8.50751 0.62872,0.88294 0.6668,2.84116 0.10187,5.23779 -0.37258,1.58063 -0.36788,1.72339 0.0701,2.13002 0.25817,0.23972 0.68531,0.5183 0.9492,0.61906 0.26388,0.10077 0.40386,0.30606 0.31106,0.45622 -0.0928,0.15015 -0.0706,0.2421 0.0494,0.20433 0.38558,-0.12141 1.73072,1.21923 2.10463,2.09759 0.48107,1.13008 0.4594,3.03457 -0.0484,4.24981 -0.22593,0.54074 -0.89857,1.56164 -1.49473,2.26866 l -1.08395,1.28549 0.16706,3.47753 c 0.15201,3.16425 0.3143,5.86174 0.92762,15.41908 0.1385,2.15818 0.34048,3.41551 0.61629,3.83646 0.22565,0.34438 0.4568,0.74511 0.51366,0.89051 0.14428,0.36892 2.25483,1.7922 3.8753,2.61335 5.959288,3.0198 13.700498,4.72106 26.522878,5.82885 2.40614,0.20788 12.67169,-0.10278 16.13958,-0.48842 z M 21.242072,263.51741 c 6.69536,-0.39366 8.88903,-0.61093 15.08125,-1.49367 1.60073,-0.22819 3.37931,-0.46041 3.95241,-0.51603 0.5731,-0.0556 1.88627,-0.27552 2.91814,-0.48866 1.03188,-0.21314 2.28939,-0.44912 2.79446,-0.5244 0.50508,-0.0753 1.75176,-0.32598 2.7704,-0.55711 1.01865,-0.23112 2.38787,-0.51986 3.04271,-0.64164 2.79398,-0.51959 8.41799,-2.05958 8.83567,-2.41943 0.13019,-0.11216 -0.10794,-0.28931 -0.52917,-0.39366 -2.88406,-0.71448 -13.44288,-5.78527 -14.15691,-6.79875 -0.089,-0.12637 -0.24081,-0.2146 -0.33728,-0.19607 -0.2787,0.0535 -1.74981,-0.87453 -1.74981,-1.10387 0,-0.11415 -0.17859,-0.20754 -0.39687,-0.20754 -0.21828,0 -0.39688,-0.11104 -0.39688,-0.24675 0,-0.13572 -0.21941,-0.3164 -0.48759,-0.40151 -0.91766,-0.29126 -4.42869,-3.08963 -7.15377,-5.70174 -2.2577,-2.1641 -6.83355,-7.802 -7.69403,-9.47978 -0.17382,-0.33893 -0.51518,-0.84358 -0.75855,-1.12144 -0.24338,-0.27786 -1.10138,-1.77649 -1.90666,-3.3303 l -1.46414,-2.8251 -1.44627,-0.49268 c -4.31401,-1.46962 -10.75184,-2.17358 -16.5275304,-1.80727 -7.64203,0.48469 -14.08272,2.53567 -18.6264596,5.93142 -0.49466,0.36969 -1.01908,0.59818 -1.16536,0.50777 -0.14629,-0.0904 -0.19158,-0.044 -0.10066,0.10311 0.0909,0.14713 -0.33716,0.66831 -0.95131,1.15819 -0.61414,0.48989 -1.31158,1.13205 -1.54987,1.42704 -0.23829,0.29498 -0.79715,0.95141 -1.24191,1.45872 -1.38398,1.57863 -3.23406,4.8919 -4.09152,7.32739 -0.69347,1.96973 -0.83818,2.81541 -0.92821,5.42415 -0.11095,3.2153 0.1653,4.67104 1.28755,6.78488 0.44447,0.83719 3.49553,4.27973 3.79305,4.27973 0.0777,0 0.84645,0.45582 1.7084,1.01292 0.86194,0.5571 2.23533,1.22307 3.05196,1.47994 0.89656,0.282 1.41606,0.57824 1.31129,0.74775 -0.0954,0.15441 -0.0535,0.20657 0.0932,0.11591 0.2724,-0.16835 1.43813,0.14064 2.8577796,0.75749 0.43656,0.1897 1.15094,0.40309 1.5875,0.47422 0.43656,0.0711 1.80578,0.32079 3.04271,0.55481 4.07037998,0.77007 5.90934,0.99946 9.525,1.18814 5.6533804,0.29501 11.1442804,0.29975 16.0072904,0.0138 z m 62.72626,-6.37648 c 0.011,-0.34648 -0.13299,-0.81261 -0.32001,-1.03584 -0.57948,-0.69169 -1.61443,-3.27097 -1.5306,-3.81456 0.0758,-0.49164 1.06603,-1.44975 1.51124,-1.46223 0.11539,-0.003 0.94274,-0.48213 1.83854,-1.06422 0.89581,-0.58208 1.78664,-1.05833 1.97962,-1.05833 0.19299,0 0.42282,-0.35967 0.51073,-0.79926 0.0879,-0.43959 0.26354,-0.86333 0.39026,-0.94165 0.12673,-0.0783 0.23041,-0.60299 0.23041,-1.16592 0,-1.32148 -0.68909,-1.87826 -3.08714,-2.49441 -2.46506,-0.63337 -3.14731,-0.91171 -3.68147,-1.50194 -0.43886,-0.48495 -0.39908,-0.5617 1.00985,-1.94832 1.67381,-1.64729 2.58376,-3.31163 2.58376,-4.72579 v -0.97479 l -1.25677,0.004 c -0.69122,0.002 -2.03067,0.18791 -2.97656,0.41278 -5.30241,1.26062 -7.27513,1.46093 -9.95637,1.01098 -3.11602,-0.52293 -5.54712,-1.70117 -7.04014,-3.41204 -1.67825,-1.92314 0.0545,-3.43421 1.98968,-1.73512 1.94445,1.70725 5.94913,2.61606 9.26344,2.10222 1.04881,-0.16261 3.09756,-0.56312 4.55277,-0.89004 l 2.64583,-0.59439 -0.008,-2.74863 c -0.0122,-4.40748 -1.4885,-30.24054 -1.74397,-30.51652 -0.14452,-0.15612 -0.67718,-0.0352 -1.40703,0.31938 -4.25244,2.066 -11.36266,2.52405 -14.88477,0.9589 -0.55365,-0.24603 -1.09993,-0.42761 -1.21395,-0.4035 -0.32138,0.0679 -3.21766,-1.42338 -4.75763,-2.44973 -2.62888,-1.75207 -6.01527,-5.71464 -6.01527,-7.03874 0,-1.63192 1.43307,-1.95917 2.51354,-0.57398 2.9216,3.74552 5.96108,5.90155 10.19313,7.2304 1.68871,0.53025 2.51899,0.61984 5.68187,0.61311 3.68988,-0.008 3.71331,-0.0118 6.07541,-1.01414 1.30418,-0.55344 2.6734,-1.21513 3.04271,-1.47042 0.3693,-0.25529 0.87983,-0.53933 1.13449,-0.6312 0.25466,-0.0919 0.46302,-0.28984 0.46302,-0.43993 0,-0.15009 0.11008,-0.27289 0.24463,-0.27289 0.13455,0 1.10574,-0.8632 2.1582,-1.91822 2.96388,-2.97112 5.26135,-6.86773 6.29713,-10.68018 0.42054,-1.54791 0.36614,-5.27687 -0.10327,-7.07907 -0.21952,-0.84282 -0.3195,-1.6715 -0.22216,-1.84152 0.0973,-0.17002 0.0869,-0.22818 -0.0233,-0.12925 -0.11013,0.0989 -0.7543,-0.55206 -1.43148,-1.44665 -2.74553,-3.62704 -4.80378,-3.72536 -7.05289,-0.33693 -2.95562,4.45284 -7.13389,5.75737 -11.31042,3.5313 -1.5686,-0.83605 -3.6377,-2.99356 -3.6377,-3.79313 0,-0.46082 1.15328,-1.55379 1.27001,-1.2036 0.0479,0.1437 0.25054,0.19856 0.4503,0.12191 0.20703,-0.0794 0.85383,0.36951 1.50426,1.04416 1.30296,1.35147 3.25062,2.1593 4.5577,1.8904 1.45796,-0.29995 4.19653,-2.46999 4.82806,-3.82574 0.16897,-0.36274 0.45327,-1.43342 0.6318,-2.37931 0.3176,-1.68273 1.15407,-3.57173 2.05121,-4.63222 0.90866,-1.07409 3.15371,-2.67952 4.94728,-3.53778 2.89495,-1.38529 4.55751,-1.7331 11.50938,-2.40777 1.52797,-0.1483 3.135308,-0.32444 3.571868,-0.39145 0.43656,-0.067 2.04391,-0.30994 3.57188,-0.53986 1.52796,-0.22992 3.3139,-0.51723 3.96875,-0.63846 0.65484,-0.12124 2.44078,-0.42909 3.96875,-0.68412 1.52796,-0.25504 3.01625,-0.55328 3.30729,-0.66277 0.29104,-0.10949 1.18401,-0.34102 1.98437,-0.5145 0.80037,-0.17348 1.69334,-0.41761 1.98438,-0.5425 0.52495,-0.22527 4.11178,-1.41831 4.36562,-1.45208 0.0728,-0.01 0.35421,-0.14587 0.62545,-0.30265 0.64717,-0.37409 0.38611,-1.21805 -0.56962,-1.84146 -0.84511,-0.55126 -2.56059,-2.11102 -5.41305,-4.92168 -1.13586,-1.11921 -2.29406,-2.10756 -2.57378,-2.19634 -0.27973,-0.0888 -0.57715,-0.36369 -0.66094,-0.61091 -0.0838,-0.24722 -0.65543,-0.82936 -1.27031,-1.29364 -0.61487,-0.46428 -2.12999,-1.80255 -3.36691,-2.97394 l -2.24896,-2.12979 -0.84036,0.3974 c -2.00643,0.94881 -4.5363,0.99669 -6.83256,0.12931 -0.94693,-0.35769 -2.412028,-1.70721 -2.932988,-2.70163 -0.55523,-1.05983 -0.485,-2.51496 0.13747,-2.8481 0.916258,-0.49037 1.291278,-0.29742 2.516378,1.29469 1.15285,1.49821 1.272,1.57669 2.6565,1.74967 2.74498,0.34297 4.03334,-0.45356 5.55358,-3.43347 0.58569,-1.14805 1.30302,-2.21686 1.59406,-2.37513 0.29104,-0.15828 0.59287,-0.37245 0.67073,-0.47595 0.35844,-0.47645 2.22778,-1.00245 3.5626,-1.00245 1.72036,0 3.01195,0.47961 4.27277,1.58663 1.01954,0.89517 1.74416,0.98622 2.97243,0.37348 0.93318,-0.46553 1.39153,-1.07707 1.90017,-2.53525 0.18648,-0.53462 0.6206,-1.1227 0.96471,-1.30686 0.55758,-0.29841 0.70329,-0.25719 1.33935,0.37887 0.61674,0.61675 0.66899,0.7853 0.38458,1.24071 -0.18101,0.28985 -0.21524,0.527 -0.0761,0.527 0.15577,0 0.14668,0.30516 -0.0237,0.79375 -0.15218,0.43657 -0.35505,0.79375 -0.45081,0.79375 -0.0958,0 -0.33696,0.36789 -0.53599,0.81753 -0.19903,0.44964 -0.73411,1.03789 -1.18906,1.30723 -1.56104,0.92414 -1.57565,0.98545 -0.48903,2.05281 0.54974,0.54 2.58383,2.47009 4.52021,4.2891 1.93638,1.81901 4.77877,4.52768 6.31643,6.01927 1.53766,1.49159 2.94348,2.71198 3.12404,2.71198 0.27161,0 1.90586,-1.32327 3.51571,-2.8467 0.19363,-0.18324 0.43561,-0.28152 0.53773,-0.21841 0.10212,0.0631 0.47733,-0.31089 0.8338,-0.83111 0.35646,-0.52023 1.09674,-1.38564 1.64507,-1.92313 0.54833,-0.5375 0.99696,-1.07117 0.99696,-1.18595 0,-0.11477 0.24106,-0.41774 0.53568,-0.67326 1.62267,-1.40734 4.63122,-6.83384 6.10911,-11.01894 3.38259,-9.57888 2.94323,-19.38715 -1.3868,-30.958991 -2.39143,-6.390996 -6.89178,-14.261578 -10.74585,-18.793215 -0.6445,-0.757812 -1.09329,-1.504902 -0.99731,-1.660202 0.096,-0.155297 0.0168,-0.249645 -0.17589,-0.209661 -0.19272,0.03999 -0.32063,-0.07613 -0.28425,-0.258027 0.0364,-0.181901 -0.0335,-0.300964 -0.1553,-0.264584 -0.1218,0.03638 -1.46125,-1.146693 -2.97656,-2.629056 C 125.4518,58.112618 111.7578,51.055668 97.044682,48.439855 c -9.59651,-1.706142 -20.73111,-1.325043 -30.3013,1.037109 -6.4414,1.589891 -12.54374,3.876619 -16.63495,6.233616 -2.43157,1.400849 -6.27221,3.895952 -7.39188,4.80219 -0.4125,0.333869 -0.86194,0.53786 -0.99874,0.45331 -0.13681,-0.08455 -0.21602,-0.05053 -0.17604,0.0756 0.04,0.12613 -0.75889,0.998183 -1.77528,1.937896 -2.25936,2.088909 -5.42806,5.336124 -5.42806,5.562557 0,0.30558 -0.97748,1.297453 -1.15134,1.168283 -0.0944,-0.07011 -0.11261,-0.04867 -0.0405,0.04764 0.14412,0.192617 -0.8605,1.58864 -1.8689,2.597039 -0.35386,0.353853 -0.64337,0.769188 -0.64337,0.92297 0,0.153783 -0.46102,0.962866 -1.02449,1.797965 -2.94969,4.371665 -6.00983,11.408465 -6.8093,15.658006 -0.0395,0.209722 -0.15054,0.685972 -0.24685,1.058334 -0.0963,0.372361 -0.26156,1.297612 -0.36722,2.056111 -0.18302,1.313796 -0.15983,1.392095 0.48985,1.653794 0.37508,0.151088 1.09868,0.528077 1.60801,0.837753 0.50932,0.309676 1.64041,0.858186 2.51354,1.218896 2.54755,1.05249 2.77812,1.19245 2.77812,1.68644 0,0.67279 -0.4518,0.862746 -1.89532,0.796876 -2.06639,-0.0943 -6.69848,-1.889246 -7.05641,-2.734396 -0.0485,-0.11453 -0.25583,-0.20824 -0.46072,-0.20824 -0.20489,0 -0.71388,-0.357193 -1.13108,-0.793755 -0.4172,-0.436563 -0.82882,-0.79375 -0.91471,-0.79375 -0.47514,0 -4.80808,-4.969716 -5.08005,-5.826625 -0.0914,-0.287856 -0.25804,-0.523375 -0.3704,-0.523375 -0.26129,0 -0.93262,-1.370346 -0.84251,-1.719791 0.0375,-0.145521 -0.0171,-0.17929 -0.12132,-0.07504 -0.10425,0.104245 -0.55275,-0.312473 -0.99666,-0.926042 -0.44391,-0.613571 -0.9422404,-1.251297 -1.1073804,-1.417169 -0.16515,-0.165873 -0.59967,-0.6574 -0.9656,-1.092287 -1.03091,-1.225172 -3.62066,-2.863538 -5.49372,-3.475517 -3.18820002,-1.041672 -7.49591,-0.483071 -9.54341,1.237544 -0.92446,0.776864 -2.38166,2.325325 -2.3834,2.532668 -10e-4,0.123058 -0.22483,0.539777 -0.4973,0.926042 -0.27249,0.386265 -0.8251096,1.742093 -1.2280496,3.012948 -0.67106,2.116449 -0.70763,2.438884 -0.43515,3.836458 0.24116,1.236919 0.48294,1.689417 1.2769896,2.389909 l 0.97951,0.864098 -0.29599,1.252569 c -0.64186,2.716225 -0.62042,3.020425 0.30258,4.292211 1.19099,1.64107 2.08181,2.08908 4.54987,2.28821 2.36981,0.19121 2.9088,0.39178 3.15735998,1.1749 0.13146,0.41421 -0.0408,0.74249 -0.69674998,1.32816 -0.47926,0.42788 -1.13199,1.39447 -1.45052,2.14798 -0.55196,1.30571 -0.55878,1.41413 -0.14523,2.31014 0.23865,0.51707 0.5678,1.08252 0.73144,1.25655 0.36788,0.39125 4.81046,0.30754 7.09452,-0.13368 1.70982,-0.33029 1.98302,-0.26993 1.48642,0.32844 -0.17878,0.21543 -0.24695,0.51807 -0.15148,0.67255 0.2516,0.40709 -1.38361,2.36117 -2.13334,2.54933 -0.35027,0.0879 -0.58201,0.2486 -0.51497,0.35707 0.067,0.10848 -0.11238,0.65673 -0.3987,1.21835 -0.3334,0.65393 -0.51987,1.54806 -0.51856,2.48653 0.002,1.42808 0.0286,1.48057 1.04461,2.06072 2.04834,1.16962 5.13908,0.59403 6.9195704,-1.28862 0.80054,-0.84647 1.40119,-1.06773 2.14826,-0.79137 0.56898,0.21048 0.5876,0.32604 0.52079,3.23273 -0.0752,3.27156 0.0985,3.90702 1.31458,4.80971 0.57997,0.4305 1.11025,0.52036 2.9888,0.50649 1.97971,-0.0146 2.44943,-0.11198 3.52828,-0.73135 1.6646,-0.95567 2.55182,-1.80203 3.79571,-3.62092 0.57223,-0.83675 1.15042,-1.52136 1.28489,-1.52136 0.13446,0 0.42247,0.59939 0.64002,1.33196 0.49935,1.68148 1.35791,2.90137 2.04198,2.90137 0.29091,0 0.92194,-0.41671 1.40229,-0.92604 1.02724,-1.08919 1.73693,-1.21187 1.73693,-0.30026 0,0.7242 -0.9843,2.09704 -1.3441,1.87467 -0.13387,-0.0827 -0.24444,0.005 -0.24572,0.19591 -0.002,0.29791 -0.70192,0.79403 -3.56955,2.53018 -1.0651,0.64483 -2.88464,1.44472 -4.85787,2.13557 -1.87147,0.65523 -2.33509,0.70713 -6.25463,0.70029 -4.16068,-0.007 -4.27075,-0.0223 -6.4131104,-0.87796 -1.19887,-0.4788 -2.27044,-1.01126 -2.38125,-1.18323 -0.11081,-0.17196 -0.6627,-0.54772 -1.22643,-0.83499 -0.56371,-0.28728 -1.20249,-0.7933 -1.41949,-1.12448 -0.217,-0.33119 -0.54122,-0.60216 -0.7205,-0.60216 -0.17928,0 -0.61207,-0.2536 -0.96176,-0.56356 -2.08748002,-1.85033 -5.12088,-2.3137 -7.38754,-1.1285 -0.72493,0.37906 -1.31805,0.79578 -1.31805,0.92604 0,0.13027 -0.15559,0.23686 -0.34576,0.23686 -0.19017,0 -0.74667,0.82872 -1.23667,1.8416 -0.75765,1.56614 -0.88726,2.1103 -0.86653,3.63802 0.0134,0.98803 0.14036,2.09783 0.28211,2.46623 1.02711,2.6694 1.57844,3.41817 4.98877,6.77534 4.10802998,4.044 4.53249998,4.35758 5.92454,4.37679 1.13233,0.0156 2.11579,-0.50215 3.18339,-1.676 0.37678,-0.41428 0.77224,-0.75323 0.8788,-0.75323 0.10655,0 0.36727,-0.17354 0.57937,-0.38564 0.21209,-0.21209 0.57055,-0.31467 0.79657,-0.22793 0.33381,0.12809 0.37879,0.43638 0.23966,1.6424 -0.35609,3.08659 0.70435,5.14109 2.8122704,5.44854 1.64168,0.23945 2.10898,-0.003 4.91509,-2.54631 1.05971,-0.9606 1.50477,-0.57487 1.7265,1.49634 0.22495,2.10129 0.82622,2.88478 2.44724,3.18888 1.36206,0.25553 2.25378,-0.0678 3.34211,-1.2119 0.90566,-0.95205 1.5133,-2.6195 1.3256,-3.63761 -0.0339,-0.18385 0.12193,-0.40472 0.3463,-0.49081 0.26064,-0.10002 0.94172,0.33132 1.88628,1.1946 2.06168,1.88425 3.26108,2.06579 5.20959,0.78851 0.82198,-0.53882 2.57519,-2.83671 2.57519,-3.37523 0,-0.41252 1.22427,-0.56779 2.09195,-0.26531 1.22647,0.42755 2.54175,0.0863 3.25379,-0.84424 1.97046,-2.57508 2.09506,-2.679 2.63076,-2.1942 0.5992,0.54226 0.43414,1.97927 -0.34192,2.97694 -0.26996,0.34705 -0.49083,0.72044 -0.49083,0.82976 0,0.10933 0.72496,0.71835 1.61104,1.35338 0.88607,0.63504 1.75482,1.28774 1.93057,1.45044 0.17574,0.1627 0.61163,0.38668 0.96864,0.49773 0.35702,0.11105 0.94678,0.4088 1.31058,0.66166 0.3638,0.25285 0.9186,0.5395 1.23288,0.63699 0.31428,0.0975 0.71581,0.35123 0.89229,0.56388 0.17648,0.21264 0.53778,0.38663 0.80289,0.38663 0.26511,0 0.80489,0.27772 1.19952,0.61717 l 0.71751,0.61717 -1.3975,1.83023 c -0.76863,1.00662 -1.50159,1.86991 -1.6288,1.91841 -0.12721,0.0485 -0.23129,0.19706 -0.23129,0.33012 0,0.2877 -1.88875,2.98238 -2.17948,3.10946 -0.11098,0.0485 -0.20177,0.19386 -0.20177,0.323 0,0.34554 -1.65314,2.63152 -1.90302,2.63152 -0.11751,0 -0.21365,0.22074 -0.21365,0.49053 0,0.26979 -0.26789,0.78784 -0.59531,1.15121 -0.32742,0.36337 -0.88568,1.24396 -1.24058,1.95687 -0.35489,0.7129 -0.79314,1.47506 -0.9739,1.69368 -0.54735,0.66205 -6.55945,12.68151 -7.47711,14.94833 -2.16494,5.34787 -4.6557,13.81163 -5.95653,20.24063 -1.19944,5.92795 -1.5667,13.59435 -0.85556,17.85937 0.32997,1.97895 1.93679,6.73195 2.68169,7.9325 0.18229,0.29379 0.4074,0.86159 0.50024,1.26177 0.0928,0.40018 0.28318,0.72761 0.42298,0.72761 0.13979,0 0.5107,0.50601 0.82425,1.12448 0.31355,0.61846 0.64912,1.18401 0.74573,1.25677 0.0966,0.0728 0.45972,0.54901 0.80693,1.05833 1.67938,2.46349 5.14651,6.03427 8.34518,8.59465 0.72423,0.57971 1.61322,1.32386 1.97554,1.65365 0.36231,0.32979 0.73745,0.59962 0.83364,0.59962 0.0962,0 0.80868,0.52632 1.58332,1.1696 0.77465,0.64329 1.49748,1.11459 1.60629,1.04734 0.23474,-0.14507 1.53193,0.64941 1.99031,1.219 0.17727,0.22028 0.3261,0.30917 0.33073,0.19752 0.005,-0.11164 1.2288,0.40786 2.72039,1.15445 1.49159,0.74659 2.89899,1.45068 3.12755,1.56466 0.22856,0.11397 1.24059,0.53167 2.24895,0.92822 1.00837,0.39655 2.19648,0.88737 2.64025,1.0907 0.44377,0.20334 1.081,0.4225 1.41606,0.48703 0.33506,0.0645 0.74588,0.23023 0.91294,0.36822 0.16705,0.138 0.77998,0.33238 1.36206,0.43197 0.58209,0.0996 1.41552,0.28495 1.85209,0.41192 5.72254,1.66434 10.48073,2.5314 14.81666,2.69995 2.07289,0.0806 2.64089,-0.11029 2.66585,-0.89582 z m -10.445,-135.2358 c -1.02654,-0.34096 -2.70179,-1.88098 -3.27308,-3.00889 -1.18198,-2.33362 -1.24711,-6.16451 -0.14406,-8.47452 0.33713,-0.70602 0.68396,-1.22414 0.77073,-1.15138 0.2329,0.19528 1.0504,-0.55132 0.88922,-0.81211 -0.31526,-0.51009 1.31292,-1.16362 2.90975,-1.16792 1.48721,-0.004 1.7104,0.0762 2.88253,1.0361 1.75293,1.4355 2.58242,3.16426 2.75079,5.73296 0.0774,1.18089 -0.002,2.59917 -0.18951,3.38035 -0.79558,3.31637 -3.8436,5.37972 -6.59637,4.46541 z m 60.114028,-12.10886 c -0.92903,-0.37412 -2.58193,-2.17894 -3.23945,-3.5372 -1.05479,-2.1789 -1.16214,-6.727516 -0.18191,-7.707746 0.23987,-0.23988 0.37268,-0.53881 0.29513,-0.66429 -0.2461,-0.3982 1.63796,-2.035736 2.55868,-2.223873 2.47949,-0.506656 3.77533,-0.0526 5.2972,1.856103 2.59229,3.251216 2.72843,9.082076 0.26412,11.312246 -1.16844,1.05742 -3.59805,1.5268 -4.99377,0.96476 z m 3.61469,-8.84987 c 0.49733,-0.52938 0.58163,-0.83568 0.4512,-1.639416 -0.23357,-1.43934 -1.19532,-2.28554 -2.66731,-2.34686 -0.65911,-0.0275 -1.13204,0.0574 -1.05095,0.18861 0.0811,0.1312 0.008,0.40704 -0.16334,0.61299 -0.47487,0.57218 -0.0664,1.8749 0.91377,2.914156 1.02648,1.08839 1.68208,1.15886 2.51663,0.27052 z m -9.80106,71.38994 c 0.0611,-0.0532 0.38072,-1.97159 0.71038,-4.26312 0.84774,-5.89293 1.67246,-11.22924 2.10978,-13.65141 0.35975,-1.99247 0.35279,-2.10776 -0.17165,-2.84427 -0.7036,-0.98811 -0.84096,-0.98595 -3.28869,0.0518 -1.92235,0.81498 -3.38056,1.28321 -3.59111,1.15308 -0.13494,-0.0834 -0.24534,-0.0386 -0.24534,0.0996 0,0.13816 -0.98227,0.51157 -2.18282,0.82979 -1.20054,0.31822 -2.9225,0.80226 -3.82658,1.07566 -3.30721,1.00011 -13.83492,2.86907 -19.459218,3.45454 -1.49023,0.15513 -3.60713,0.37435 -4.70423,0.48715 -1.0971,0.1128 -2.46632,0.42238 -3.04271,0.68795 -1.70854,0.7872 -3.93898,2.44166 -4.44378,3.29622 -0.25882,0.43814 -0.43408,0.80511 -0.38948,0.81548 0.0446,0.0104 0.54302,0.0748 1.10757,0.14322 1.93722,0.2347 4.21131,1.82356 5.99904,4.19139 l 1.04717,1.38698 2.84283,0.68701 c 3.26408,0.78881 8.768768,1.62787 13.558458,2.06667 6.3065,0.57776 17.45201,0.78385 17.97038,0.33229 z m 34.91235,-33.60806 c 0.7817,-0.22553 1.55941,-0.43033 1.72824,-0.45511 0.16883,-0.0248 0.67873,-0.30977 1.13311,-0.63332 0.45438,-0.32354 0.92682,-0.58903 1.04988,-0.58997 0.44477,-0.003 2.76373,-2.19009 3.60071,-3.39533 0.78021,-1.12351 0.85623,-1.40963 0.85489,-3.21755 -10e-4,-1.74258 -0.0932,-2.1198 -0.75413,-3.0958 -0.97591,-1.44112 -2.30953,-2.33521 -4.94105,-3.3126 -1.2195,-0.45294 -7.55544,-1.36333 -7.92003,-1.138 -0.11277,0.0697 -0.32732,0.45669 -0.47678,0.86 -1.11083,2.99757 -2.03484,5.05535 -2.21892,4.94158 -0.11991,-0.0741 -0.16471,0.0203 -0.0996,0.20973 0.0651,0.18946 -0.17308,0.82072 -0.52938,1.4028 -0.3563,0.58209 -0.77376,1.34873 -0.92769,1.70367 -0.49104,1.13226 -2.64978,3.98487 -3.01558,3.98487 -0.46533,0 -0.71433,1.35572 -0.33355,1.816 0.21045,0.25439 0.66575,0.3173 1.54384,0.2133 1.57704,-0.18678 2.16298,-0.55748 2.87025,-1.8159 0.31133,-0.55393 0.72283,-1.00715 0.91445,-1.00715 0.19162,0 0.68525,0.66579 1.09697,1.47952 0.41171,0.81374 1.11051,1.77188 1.5529,2.12922 0.69664,0.56271 0.98146,0.62831 2.12725,0.4899 0.7276,-0.0879 1.96249,-0.34433 2.74419,-0.56986 z m -2.77016,-23.2125 c -0.0779,-0.20303 -0.0101,-0.85787 0.15079,-1.45521 0.30601,-1.13644 0.95082,-1.45891 1.24582,-0.62304 0.60075,1.70217 2.40876,2.14831 4.08637,1.00834 1.21688,-0.82689 1.81798,-2.11034 1.82308,-3.8926 0.002,-0.77837 0.10927,-1.5814 0.23788,-1.78451 0.28311,-0.44712 1.08098,-0.19661 1.08098,0.3394 0,0.21098 0.42668,0.6473 0.94817,0.9696 0.86107,0.53217 1.04942,0.55582 2.05052,0.25748 1.28754,-0.38371 3.41137,-2.2559 4.50888,-3.97466 0.41838,-0.65521 0.83561,-1.25081 0.92717,-1.32357 0.0916,-0.0728 0.40409,-0.84667 0.69451,-1.7198 0.80161,-2.40995 0.7217,-5.420246 -0.19028,-7.16756 -1.30593,-2.502122 -3.79807,-4.077223 -6.45102,-4.077223 -2.08211,0 -4.12497,1.049726 -5.9214,3.042708 -0.78701,0.873125 -1.6863,1.766089 -1.99842,1.984379 -2.00438,1.40174 -3.18469,2.11666 -3.49453,2.11666 -0.19588,0 -0.60127,0.22837 -0.90087,0.5075 -0.52632,0.490336 -0.53316,0.595436 -0.20233,3.108846 0.18833,1.43075 0.38368,4.95284 0.43413,7.82688 0.0869,4.95281 0.11835,5.22552 0.60196,5.22552 0.32781,0 0.45959,-0.13198 0.36859,-0.36914 z m 1.36301,-22.848041 c 1.24835,-0.996063 1.26511,-2.315101 0.052,-4.095067 -0.47295,-0.693946 -0.96058,-1.261951 -1.08364,-1.262234 -0.34232,-7.94e-4 -1.76063,-1.064882 -1.76063,-1.320925 0,-0.398706 1.66622,-0.763127 3.55489,-0.777491 1.6028,-0.0122 1.92547,-0.100547 2.5491,-0.698016 0.85836,-0.822362 1.16672,-2.364568 0.76849,-3.84348 -0.31331,-1.163539 -1.97882,-3.005111 -3.38658,-3.744568 -0.74607,-0.391888 -0.8245,-0.517316 -0.51623,-0.825585 0.47343,-0.473432 1.73744,-1.10663 2.64149,-1.323242 0.86794,-0.207962 1.79842,-1.039707 2.55499,-2.28387 0.71855,-1.181642 0.77772,-3.649686 0.11282,-4.705662 -0.58979,-0.93668 -1.93294,-2.173504 -2.36036,-2.173504 -0.6606,0 -0.85601,-0.850276 -0.41024,-1.785075 0.39525,-0.828844 0.39147,-0.989827 -0.0532,-2.265564 -0.26326,-0.755327 -0.90808,-2.004634 -1.43295,-2.776241 -3.63684,-5.34653 -9.60655,-6.907709 -13.6911,-3.580455 -2.23314,1.819106 -2.78617,3.321854 -3.58661,9.745876 -0.30824,2.473855 -0.61814,4.929862 -0.68866,5.457793 -0.0994,0.743765 -0.0126,1.041617 0.38539,1.322917 0.6422,0.453938 4.10203,5.598816 4.65486,6.921915 0.22561,0.539962 0.51728,0.98175 0.64815,0.98175 0.13087,0 0.43055,0.446484 0.66594,0.992187 0.2354,0.545703 0.55148,1.170781 0.7024,1.389063 0.40534,0.586269 2.38946,4.97201 2.38946,5.281723 0,0.146354 0.35719,1.003467 0.79375,1.904698 0.43656,0.901232 0.79375,1.75609 0.79375,1.899685 0,0.143597 0.20151,0.717809 0.44779,1.276029 l 0.4478,1.014947 h 1.94759 c 1.72719,0 2.05079,-0.08234 2.85949,-0.727604 z"
       id="path426" /></g></svg>
