<?xml version="1.0" encoding="UTF-8" standalone="no"?>
<!-- Created with Inkscape (http://www.inkscape.org/) -->

<svg
   width="202.70737mm"
   height="214.49397mm"
   viewBox="0 0 202.70736 214.49398"
   version="1.1"
   id="svg5"
   xml:space="preserve"
   xmlns="http://www.w3.org/2000/svg"
   xmlns:svg="http://www.w3.org/2000/svg"><defs
     id="defs2" /><g
     id="layer1"
     transform="translate(64.688594,-26.970973)"><path
       style="fill:#000000;stroke-width:0.264583"
       d="m 57.320889,241.20527 c -6.29055,-0.49024 -13.46393,-2.18515 -19.31458,-4.56363 -4.53456,-1.84343 -11.64167,-5.933 -11.64167,-6.69884 0,-0.19487 -0.14882,-0.29776 -0.33073,-0.22863 -0.42136,0.16013 -5.76285,-4.28836 -6.2071,-5.16938 -0.18344,-0.3638 -0.33529,-0.54687 -0.33743,-0.40682 -0.002,0.14005 -0.59387,-0.32645 -1.31493,-1.03668 -0.72107,-0.71023 -1.25754,-1.37788 -1.19215,-1.48368 0.0654,-0.1058 -0.0666,-0.26353 -0.29324,-0.35051 -0.23048,-0.0885 -0.32841,-0.29361 -0.22218,-0.46549 0.11242,-0.18189 0.0749,-0.23623 -0.0919,-0.13313 -0.34736,0.21468 -2.29544,-2.21974 -4.74328,-5.92745 -4.6786095,-7.08663 -7.8543195,-13.9493 -9.6591995,-20.87339 -0.4383,-1.68147 -0.81781,-3.08027 -0.84335,-3.10844 -0.0255,-0.0282 -1.23386003,0.73103 -2.68515,1.68712 -5.57808,3.67475 -7.85176,4.14346 -9.8362505,2.02772 -0.81706,-0.8711 -1.13161,-2.16819 -1.31779,-5.43397 -0.25422,-4.45941 0.54339,-8.30512 2.5961,-12.51715 1.1680905,-2.39685 2.5992005,-4.39408 5.1912205,-7.24478 0.98249,-1.08054 1.78634,-2.0876 1.78634,-2.23789 0,-0.1503 -0.41672,-0.37343 -0.92604,-0.49585 -4.87205,-1.171 -11.6924905,-4.11702 -15.5193705,-6.70344 -4.06152,-2.74501 -8.2012,-7.0247 -11.01807,-11.39073 -2.36106,-3.65955 -4.74373,-9.09066 -5.87901,-13.40074 -0.25873,-0.98227 -0.55128,-1.78594 -0.65012,-1.78594 -0.0988,0 -0.91223,0.29765 -1.80755,0.66146 -0.89533,0.3638 -1.97136,0.66146 -2.39119,0.66146 -1.10798,0 -2.03374,-0.86168 -2.59115,-2.41179 -0.56756,-1.57833 -0.89845,-1.78523 -1.85386,-1.15923 -0.89648,0.5874 -2.58392,0.39198 -3.25034,-0.3764 -0.26434,-0.30479 -0.55665,-1.02959 -0.64957,-1.61067 -0.13344,-0.83452 -0.28312,-1.0565 -0.71237,-1.0565 -1.53822,0 -2.62531,-1.61066 -2.62531,-3.88974 0,-1.7009 -0.15836,-2.08405 -0.68178,-1.64964 -0.18348,0.15227 -0.96433,0.24054 -1.73522,0.19614 -1.267,-0.073 -1.46191,-0.16965 -2.02943,-1.00676 -0.82287,-1.21376 -0.69973,-3.01914 0.30195,-4.42697 l 0.69464,-0.97629 -1.4551,-0.54296 c -0.80031,-0.29863 -1.92757,-0.9879 -2.50501,-1.53171 -0.57745,-0.5438 -1.209277,-0.98873 -1.404066,-0.98873 -0.79652,0 -1.590913,-1.29183 -1.715072,-2.78903 -0.121298,-1.46269 -0.115601,-1.47623 1.118791,-2.65898 l 1.240711,-1.18881 -1.350164,-1.21392 c -0.74259,-0.66765 -1.535715,-1.57273 -1.7625,-2.01128 -0.833816,-1.61243 -0.29731,-3.631236 1.106895,-4.165116 0.6268,-0.23831 0.64018,-0.30088 0.477027,-2.23098 -0.304032,-3.59668 1.223455,-6.13221 4.082738,-6.77708 2.17086,-0.48962 4.23677,1.05268 6.27565,4.68505 2.05321,3.65791 5.98755,8.560556 6.86979,8.560556 0.67259,0 0.62589,-0.37489 -0.18782,-1.50797 -0.73568,-1.0244 -0.86018,-1.44675 -0.98333,-3.335536 -0.12235,-1.87672 -0.20949,-2.17568 -0.65913,-2.26144 -1.60708,-0.30652 -2.6648,-1.88562 -2.40838,-3.59555 0.15876,-1.05866 0.12315,-1.13339 -0.83508,-1.7527 -2.15459,-1.39253 -2.10028,-4.05584 0.11555,-5.66661 0.60368,-0.43884 1.06683,-0.91696 1.0292,-1.06248 -0.0376,-0.14552 -0.62267,-0.530167 -1.3001,-0.854773 -0.73658,-0.352952 -1.56259,-1.044268 -2.05487,-1.719792 -0.71463,-0.980633 -0.80758,-1.296474 -0.70484,-2.395003 0.0789,-0.843941 0.32407,-1.484384 0.73599,-1.922862 l 0.61765,-0.657455 -0.61224,-1.252141 c -0.34085,-0.697113 -0.67084,-1.964639 -0.74444,-2.859547 -0.12422,-1.510292 -0.0823,-1.664266 0.69406,-2.548469 0.45444,-0.517584 0.82626,-1.07813 0.82626,-1.245659 0,-0.167526 -0.31976,-0.925716 -0.71058,-1.684861 -1.39794,-2.715421 -0.88134,-5.266079 1.28505,-6.34488 0.89825,-0.447299 0.94396,-0.539099 1.09987,-2.208718 0.20305,-2.174398 1.18654,-4.373829 2.48943,-5.56723 1.23112,-1.127664 3.37211,-1.799542 4.97054,-1.559843 1.26606,0.189857 2.94516,1.205201 2.83153,1.712212 -0.04,0.178419 0.0334,0.258826 0.16308,0.178681 0.33081,-0.204452 0.94629,0.543607 1.7202,2.090761 0.74583,1.491014 1.31606,4.977881 1.18476,7.244677 l -0.0849,1.466123 1.14847,0.638598 c 1.40745,0.782598 2.15652,1.948254 2.15783,3.357875 10e-4,1.147463 -0.58695,2.241684 -1.20464,2.241684 -0.21003,0 -0.38187,0.119063 -0.38187,0.264584 0,0.145521 -0.24296,0.507545 -0.53991,0.804497 l -0.53992,0.539917 0.53992,0.68639 c 0.60351,0.767238 0.71532,2.321822 0.24175,3.361195 -0.43337,0.951137 -0.15068,1.708888 1.61006,4.315748 1.36977,2.028005 4.18943,5.314781 4.34417,5.063861 1.41616,-2.296306 5.3291,-6.545874 8.16841,-8.871133 0.98226,-0.804429 1.78594,-1.620909 1.78594,-1.814399 0,-0.193492 -0.3805,-1.459904 -0.84554,-2.814251 -0.73011,-2.126287 -0.8606,-2.913951 -0.95582,-5.769742 -0.065,-1.950569 0.0225,-4.067055 0.21333,-5.159374 0.6744,-3.859702 2.72813,-9.140455 4.88768,-12.567708 2.25614,-3.580532 6.5514505,-8.094427 9.7261405,-10.221087 1.05774,-0.708559 1.98269,-1.361757 2.05546,-1.451557 0.40589,-0.500933 3.27286,-2.096386 4.69807997,-2.614459 C 1.4436195,33.55917 2.1038195,33.470916 3.5401595,33.586213 l 1.77826,0.14274 2.12261,-1.605391 c 6.1261095,-4.633346 14.8870895,-6.48214 19.5891595,-4.133815 1.11413,0.556426 1.17202,0.558662 3.34298,0.129074 5.29432,-1.047631 14.00851,-1.011954 18.23847,0.07467 2.3375,0.600475 4.35602,1.494576 4.81475,2.132687 0.23238,0.323252 0.76689,0.464405 1.91017,0.504436 6.50219,0.227658 12.5058,1.583251 15.50869,3.501808 0.67165,0.42912 2.21946,1.117904 3.43958,1.530631 9.57228,3.237986 18.30855,11.770872 23.55898,23.010507 1.4325,3.066552 2.948941,7.710328 3.420681,10.475102 0.92081,5.396635 -0.60455,11.194756 -4.021321,15.285592 l -1.03957,1.24466 0.97732,2.00329 c 0.53753,1.10181 1.06785,1.97046 1.1785,1.93034 0.11066,-0.0401 0.97102,-0.75463 1.911921,-1.58778 2.05429,-1.81905 4.38379,-4.667663 5.97352,-7.30467 l 1.16664,-1.935194 -0.43581,-1.382535 c -0.43716,-1.38684 -0.31775,-2.666801 0.32055,-3.435905 0.16921,-0.203888 0.0786,-0.833343 -0.26745,-1.858471 -0.78316,-2.319803 -0.15949,-4.030514 1.69159,-4.639952 l 0.85576,-0.281744 -0.0859,-1.952279 c -0.16776,-3.814632 0.87803,-7.146647 2.88204,-9.182549 1.53951,-1.564008 2.2572,-1.875613 4.30093,-1.867368 3.56578,0.01439 6.52893,3.413709 6.52893,7.489983 0,1.117899 0.0683,1.274895 0.55447,1.274895 0.30496,0 0.90207,0.247512 1.32691,0.550026 1.82358,1.298506 2.156,3.75544 0.84618,6.254213 l -0.81252,1.550061 0.62998,0.732396 c 0.73267,0.851781 0.80076,1.664242 0.21013,2.507477 -0.38341,0.547394 -0.38341,0.655032 0,1.240189 0.52177,0.796317 0.54105,1.816926 0.0421,2.23098 -0.32186,0.267121 -0.28274,0.453425 0.26458,1.259946 1.43658,2.11691 0.38429,4.578521 -2.40041,5.615301 -1.75451,0.65322 -1.91326,1.37146 -0.4126,1.86672 0.93586,0.30886 1.06873,0.45302 1.0792,1.17089 0.007,0.45027 0.0565,1.50004 0.11095,2.33282 0.0914,1.39742 0.0374,1.5744 -0.70019,2.29551 -0.8046,0.78665 -1.57107,1.17041 -2.93253,1.46828 l -0.73849,0.16157 0.73582,1.309 0.73583,1.309 -0.49173,0.91308 c -0.27045,0.5022 -0.82261,1.05014 -1.22703,1.21766 -0.70022,0.29004 -0.73975,0.40143 -0.82852,2.334196 -0.0742,1.61587 -0.2212,2.20909 -0.72106,2.90991 -0.48808,0.68433 -0.55681,0.94937 -0.30876,1.19063 0.2463,0.23956 0.7964,-0.19064 2.41172,-1.886 1.77857,-1.86671 2.34826,-2.71122 3.79579,-5.626846 2.00962,-4.04781 2.93822,-5.30234 4.47566,-6.04661 1.93969,-0.93898 3.50087,-0.64137 4.97163,0.94775 1.12948,1.22037 1.39121,1.95121 1.54254,4.30731 l 0.14343,2.23318 0.85657,0.22092 c 0.89861,0.23177 1.65698,1.293376 1.65698,2.319546 0,0.95169 -0.71249,2.30955 -1.87176,3.56721 l -1.11836,1.21328 0.52017,0.58863 c 1.13776,1.28752 1.47514,2.0897 1.33096,3.1646 -0.22916,1.70856 -1.41026,2.60123 -4.48341,3.38855 -1.41901,0.36354 -1.52996,0.54674 -0.62454,1.03131 1.39775,0.74805 1.65769,3.20171 0.52072,4.91516 -1.85384,2.79378 -4.10052,4.09631 -7.06553,4.09631 h -0.91575 l 0.52952,1.38906 c 0.37951,0.99557 0.49607,1.79754 0.41145,2.83099 -0.10444,1.2755 -0.23466,1.54271 -1.12819,2.31511 -1.27153,1.09915 -2.53197,1.16689 -3.93949,0.21172 -0.53609,-0.3638 -0.99919,-0.66168 -1.02911,-0.66194 -0.0299,-2.7e-4 -0.0138,0.71853 0.0358,1.59732 0.10618,1.8821 -0.33229,2.75288 -1.66697,3.31054 -0.63821,0.26666 -1.11431,0.29641 -1.76361,0.1102 -0.48917,-0.1403 -0.91995,-0.25508 -0.9573,-0.25508 -0.0373,0 -0.0679,0.24728 -0.0679,0.54952 0,0.30223 -0.34802,0.89755 -0.7734,1.32291 -0.63237,0.63238 -0.99705,0.7734 -1.99998,0.7734 -0.75036,0 -1.16311,-0.10273 -1.06308,-0.26458 0.0899,-0.14552 -0.0867,-0.26458 -0.39242,-0.26458 -0.30577,0 -0.69975,-0.12613 -0.87551,-0.28028 -0.17576,-0.15415 -0.71241,-0.51317 -1.19256,-0.79782 -0.51908,-0.30774 -0.79748,-0.63974 -0.68672,-0.81894 0.11917,-0.19283 0.0679,-0.22826 -0.14225,-0.0984 -0.23657,0.14621 -0.24801,0.28355 -0.0409,0.49068 0.43904,0.43903 0.34433,1.10681 -0.23079,1.62729 -0.59499,0.53845 -3.11891,0.94061 -2.81477,0.4485 0.11561,-0.18705 0.0447,-0.24633 -0.18789,-0.15708 -0.48578,0.18642 -2.09084,-1.16115 -1.86116,-1.56259 0.0965,-0.16864 0.0767,-0.21706 -0.044,-0.1076 -0.12066,0.10946 -0.41435,0.0226 -0.65266,-0.19309 -0.3912,-0.35404 -0.46784,-0.29629 -0.78936,0.59473 -1.535171,4.25445 -5.505311,10.60257 -8.201531,13.11396 -0.44288,0.41252 -0.80523,0.83682 -0.80523,0.94289 0,0.23303 -4.87368,4.60746 -5.85557,5.25575 -0.38291,0.25282 -1.57353,1.06506 -2.64583,1.805 -1.07231,0.73993 -2.60449,1.7062 -3.40485,2.14725 -2.53564,1.39732 -3.17161,1.79424 -3.17333,1.98057 -7.9e-4,0.0998 1.04012,0.86944 2.31343,1.71028 1.32531,0.87518 3.50895,2.72061 5.10748,4.31643 5.02769,5.01915 7.69555,10.67533 7.76386,16.4603 0.0307,2.60277 -0.34049,3.40481 -1.97608,4.26941 -1.47492,0.77967 -3.20947,0.45392 -8.78054,-1.64897 -2.7296,-1.03032 -5.15352,-1.87332 -5.3865,-1.87332 -0.58867,0 -0.33951,0.9404 0.94635,3.57188 2.36374,4.83731 6.85207,9.57727 11.91953,12.5878 2.22822,1.32376 2.90601,1.28406 5.44405,-0.31886 2.08816,-1.31879 4.0382,-2.01227 6.663771,-2.36981 6.91444,-0.94158 9.23632,-1.70609 10.94219,-3.60287 1.54758,-1.72077 1.69988,-2.48112 1.57916,-7.88376 -0.2196,-9.82776 -0.17017,-13.18652 0.21415,-14.55208 1.10685,-3.93281 3.2952,-6.33054 6.07861,-6.66019 2.89426,-0.34279 6.19658,2.44885 8.92192,7.54221 2.12271,3.96708 3.23993,8.54175 3.46772,14.19922 0.51789,12.86221 -4.56486,25.2992 -14.12338,34.55855 -2.31169,2.23935 -5.3812,4.73208 -5.827,4.73208 -0.18997,0 -0.34539,0.10682 -0.34539,0.23738 0,0.74398 -9.82512,6.20455 -14.552091,8.08769 -13.63613,5.43243 -26.54883,7.52787 -39.95208,6.48332 z m 12.03639,-3.43827 c 4.50448,-0.32475 9.05947,-1.05361 14.15736,-2.26534 9.407,-2.23599 18.527411,-6.16779 25.176591,-10.85359 1.14152,-0.80445 2.07977,-1.36514 2.08501,-1.24598 0.005,0.11917 0.27312,-0.0944 0.59531,-0.47471 0.32219,-0.38025 0.94299,-0.91543 1.37955,-1.18929 0.43656,-0.27385 1.00406,-0.7579 1.26111,-1.07567 0.25704,-0.31776 0.88212,-0.83409 1.38906,-1.14739 0.50694,-0.31331 0.9217,-0.70868 0.9217,-0.87861 0,-0.16993 0.35225,-0.66623 0.78276,-1.1029 1.33497,-1.35402 2.65683,-2.8253 2.65683,-2.95716 0,-0.12251 2.34452,-3.26101 2.63349,-3.52532 0.0795,-0.0728 0.17607,-0.28613 0.21449,-0.47415 0.0384,-0.18803 0.35347,-0.79115 0.70011,-1.34025 3.59549,-5.69564 5.97723,-13.94709 5.97654,-20.70553 -2.6e-4,-3.08445 -0.49043,-7.46748 -0.91114,-8.14821 -0.0769,-0.12449 -0.21233,-0.68673 -0.30085,-1.24942 -0.0885,-0.56268 -0.25411,-1.14212 -0.36796,-1.28764 -0.11385,-0.14552 -0.29508,-0.56224 -0.40272,-0.92604 -0.10765,-0.36381 -0.4856,-1.3036 -0.83989,-2.08844 -0.3543,-0.78484 -0.58947,-1.56954 -0.5226,-1.74379 0.18662,-0.48632 -0.25337,-1.0207 -0.87832,-1.06674 -0.41276,-0.0304 -0.51889,0.07 -0.39967,0.37826 0.7252,1.87486 1.04275,4.73049 1.04704,9.4155 0.003,2.76489 -0.0788,5.46964 -0.18061,6.01054 -0.10187,0.5409 -0.31682,1.70923 -0.47768,2.59629 -0.48271,2.66201 -2.65744,7.57359 -4.13507,9.33899 -0.3443,0.41134 -0.626,0.84339 -0.626,0.96008 0,0.11671 -0.35323,0.3585 -0.78495,0.53733 -0.43172,0.17882 -0.85297,0.53946 -0.93611,0.80141 -0.0831,0.26194 -0.32522,0.54306 -0.53797,0.62469 -0.21274,0.0816 -0.3868,0.33076 -0.3868,0.55361 0,0.22285 -0.16586,0.40518 -0.36857,0.40518 -0.20271,0 -0.4304,0.16113 -0.50597,0.35807 -0.17839,0.46487 -2.18721,1.51291 -2.44898,1.27768 -0.11049,-0.0993 -0.11808,-0.0363 -0.0168,0.14005 0.21196,0.36918 -1.08022,1.08493 -3.22649,1.78719 -2.51647,0.82339 -10.40805,0.9998 -13.759061,0.30759 -2.56635,-0.53013 -6.50928,-1.90399 -7.06805,-2.46276 -0.213,-0.21301 -0.38728,-0.32035 -0.38728,-0.23854 0,0.31772 -4.51929,-2.6395 -4.7184,-3.08751 -0.0485,-0.10914 -0.18818,-0.19843 -0.31038,-0.19843 -0.31182,0 -1.98087,-1.67689 -1.90926,-1.91823 0.0324,-0.10914 -0.0304,-0.18434 -0.13956,-0.16711 -0.10914,0.0172 -0.28774,0.002 -0.39688,-0.0331 -0.10914,-0.0354 -0.34252,-0.0793 -0.51863,-0.0975 -0.1761,-0.0182 -0.60375,-0.44979 -0.95033,-0.95911 -0.34658,-0.50933 -0.73472,-0.89747 -0.86254,-0.86253 -0.34257,0.0936 -0.84215,-0.96825 -0.66847,-1.42085 0.0823,-0.21447 0.0451,-0.32534 -0.0826,-0.24639 -0.12775,0.0789 -0.7234,-0.42088 -1.32367,-1.11074 -0.60026,-0.68986 -1.50641,-1.70277 -2.01365,-2.25093 -0.50725,-0.54815 -0.92227,-1.16472 -0.92227,-1.37016 0,-0.20544 -0.16646,-0.53999 -0.36991,-0.74344 -0.57237,-0.57237 -2.01045,-3.55432 -2.07184,-4.29609 -0.0302,-0.3649 -0.16785,-0.66346 -0.30588,-0.66346 -0.13804,0 -0.1767,-0.0743 -0.0859,-0.16505 0.0908,-0.0908 -0.0745,-0.63459 -0.36726,-1.20847 -0.48161,-0.94403 -0.60592,-1.02725 -1.30513,-0.87367 -0.90276,0.19828 -1.3492,-0.001 -1.15203,-0.51518 0.15187,-0.39576 1.18959,-0.89058 2.38792,-1.13865 1.27459,-0.26385 5.39461,-0.21631 5.59491,0.0646 0.10378,0.14553 0.36728,0.2827 0.58556,0.30484 0.21828,0.0221 1.23031,0.35939 2.24896,0.74944 1.01865,0.39006 2.09021,0.77569 2.38125,0.85696 0.29104,0.0813 0.73753,0.32802 0.99219,0.54834 0.25466,0.22031 0.46302,0.32983 0.46302,0.24338 0,-0.0865 0.8312,0.13322 1.84711,0.48816 1.01591,0.35494 2.09003,0.64534 2.38692,0.64534 0.90835,0 1.18169,-1.04133 0.8309,-3.16542 -0.56999,-3.4514 -1.98576,-6.74394 -4.18404,-9.73046 -0.77553,-1.05362 -1.41006,-2.09541 -1.41006,-2.3151 0,-0.21969 -0.14464,-0.39943 -0.32142,-0.39943 -0.17679,0 -0.56374,-0.24052 -0.8599,-0.53449 -1.1911,-1.18229 -7.72012,-5.81551 -8.19507,-5.81551 -0.20313,0 -0.94474,-0.24694 -1.64803,-0.54875 -0.97755,-0.41951 -1.55911,-0.50687 -2.46933,-0.37093 -0.65484,0.0978 -1.25532,0.28219 -1.3344,0.40977 -0.0791,0.12758 -0.39489,0.27028 -0.7018,0.31712 -0.30691,0.0468 -0.74564,0.24087 -0.97496,0.43119 -0.22932,0.19031 -0.7171,0.36336 -1.08395,0.38454 -0.36686,0.0212 -0.6671,0.12277 -0.6672,0.22575 -1e-4,0.10298 -0.86339,0.43544 -1.91842,0.73881 -1.05502,0.30337 -2.51192,0.73675 -3.23754,0.96308 -1.34405,0.41921 -1.80337,0.5124 -6.22131,1.26213 -1.38245,0.2346 -3.10885,0.53616 -3.83646,0.67014 -7.81472,1.43894 -18.80779,2.04728 -28.31041,1.56664 -5.22149,-0.26411 -9.73265,-0.72035 -15.2135495,-1.53864 -5.41109,-0.80787 -5.11327,-0.86315 -7.49559003,1.39135 -1.49296997,1.41288 -2.19999997,1.90951 -2.62588997,1.84452 -0.44708,-0.0682 -0.51027,-0.0164 -0.27131,0.22256 0.23896,0.23896 0.22065,0.48722 -0.0786,1.06591 -0.21456,0.41491 -0.50611,0.75439 -0.6479,0.75439 -0.14178,0 -0.25779,0.11309 -0.25779,0.25132 0,0.13823 -0.35696,0.78023 -0.79325,1.42669 -1.9926,2.95247 -3.7023,7.86177 -4.29921,12.34491 -0.067703,0.50821 0.29694,3.01305 0.62585,4.29947 0.20179,0.78924 0.37949,0.99219 0.86874,0.99219 0.61437,0 3.96774,-2.15226 7.96249997,-5.1105 2.01970003,-1.49565 3.25134003,-2.17839 3.49329003,-1.93644 0.0614,0.0614 0.47106,1.6423 0.91039,3.51313 2.06437,8.79089 5.74049,17.31671 10.3079995,23.90673 8.27388,11.93757 19.29553,19.72035 32.40878,22.88498 8.15038,1.96695 14.8288,2.54842 22.72838,1.97889 z m 38.119701,-32.5608 c 5.08353,-0.9345 9.03177,-3.76542 12.09175,-8.66989 2.82354,-4.52552 3.77497,-8.40053 3.74455,-15.25089 -0.0225,-5.06899 -0.46654,-8.03023 -1.6962,-11.31202 -0.62698,-1.67335 -1.23632,-2.16915 -2.36202,-1.9219 -2.51703,0.55283 -3.92371,4.79809 -3.62563,10.94186 0.0894,1.84272 0.23779,4.9885 0.32975,6.99064 0.25056,5.45569 -0.41045,8.04243 -2.61224,10.22242 -2.04053,2.02034 -4.83122,2.99242 -11.40656,3.97326 -2.364341,0.35268 -3.795651,0.71156 -4.691381,1.17628 -1.35736,0.70422 -3.151,2.03145 -3.15102,2.33163 -10e-6,0.23054 2.1202,0.90245 3.96874,1.25773 0.80037,0.15383 1.69334,0.32657 1.984381,0.38389 1.15845,0.22812 5.94729,0.14879 7.42588,-0.12301 z M 41.578179,166.7258 c 2.32834,-0.22142 5.72162,-0.63879 7.54063,-0.92749 1.81901,-0.2887 3.67712,-0.56576 4.12913,-0.6157 0.45201,-0.0499 0.9415,-0.16475 1.08777,-0.25515 0.14627,-0.0904 0.66941,-0.22239 1.16254,-0.29332 0.49313,-0.0709 1.67051,-0.32169 2.61639,-0.55726 0.94589,-0.23557 2.01745,-0.48191 2.38125,-0.54743 1.09887,-0.19789 6.60634,-1.9205 8.86354,-2.7723 1.16417,-0.43932 2.23742,-0.82508 2.38499,-0.85723 0.64904,-0.1414 6.01834,-2.91866 8.06605,-4.17214 1.23693,-0.75717 2.66568,-1.59934 3.175,-1.87149 0.50933,-0.27214 0.88994,-0.55998 0.84582,-0.63962 -0.1246,-0.22489 1.82625,-1.69687 2.24889,-1.69687 0.20686,0 0.3125,-0.10292 0.23476,-0.2287 -0.15747,-0.2548 2.29126,-2.41714 2.73727,-2.41714 0.1558,0 0.28326,-0.13758 0.28326,-0.30575 0,-0.16816 0.31293,-0.71603 0.6954,-1.21747 0.52947,-0.69417 0.74947,-0.82639 0.92199,-0.55414 0.17288,0.27281 0.22755,0.24083 0.23065,-0.13487 0.002,-0.27085 0.45053,-1.04527 0.99623,-1.72093 0.54571,-0.67567 1.11125,-1.42478 1.25678,-1.6647 0.57535,-0.94858 2.5024,-3.81381 2.7747,-4.12557 0.15888,-0.1819 0.23267,-0.33073 0.16398,-0.33073 -0.0687,0 0.38771,-1.0418 1.0142,-2.31511 1.93959,-3.94207 3.361301,-8.83472 4.007121,-13.79003 0.34209,-2.62481 0.40215,-4.56213 0.27993,-9.03028 -0.0856,-3.12869 -0.22936,-6.22432 -0.31953,-6.87916 -0.26564,-1.92921 -1.899281,-8.045236 -2.627931,-9.838476 -0.37036,-0.91145 -0.61804,-1.80141 -0.5504,-1.97768 0.0677,-0.17627 0.004,-0.36011 -0.14114,-0.40853 -0.14527,-0.0484 -0.29355,-0.28853 -0.32951,-0.53357 -0.036,-0.24504 -0.25913,-0.65959 -0.49591,-0.92124 -0.23678,-0.26164 -0.43653,-0.59477 -0.44387,-0.74029 -0.0193,-0.38273 -2.81172,-4.84355 -4.16234,-6.64926 -0.63369,-0.84721 -2.16494,-2.564734 -3.40278,-3.816713 -1.23784,-1.251979 -2.16092,-2.375194 -2.05128,-2.496034 0.10964,-0.120841 0.0372,-0.125836 -0.16097,-0.01111 -0.19817,0.114734 -0.4363,0.103381 -0.52917,-0.02524 -0.0929,-0.128614 -0.64088,-0.586124 -1.21779,-1.016691 -0.57692,-0.430567 -1.29129,-1.025202 -1.5875,-1.321411 -0.29621,-0.296209 -0.62303,-0.538562 -0.72627,-0.538562 -0.24646,0 -1.1771,-0.644633 -2.00535,-1.389062 -0.36428,-0.327422 -0.85331,-0.596445 -1.08672,-0.597826 -0.23342,-0.0013 -1.17332,-0.477634 -2.08867,-1.058333 -0.91535,-0.580681 -1.70721,-1.055799 -1.75967,-1.055799 -0.0525,0 -1.149,-0.492085 -2.43676,-1.09352 -1.28775,-0.601438 -3.11528,-1.379789 -4.06116,-1.729671 -0.94589,-0.349885 -1.89839,-0.709221 -2.11667,-0.798526 -0.21828,-0.08931 -0.51594,-0.193593 -0.66146,-0.231746 -2.6253,-0.688332 -8.26741,-2.31652 -8.5799,-2.475971 -0.22876,-0.116729 -1.18295,-0.288737 -2.12042,-0.382241 -0.93746,-0.0935 -2.06855,-0.27841 -2.51354,-0.410905 -0.44498,-0.132493 -2.05921,-0.428636 -3.58718,-0.658093 -13.9715,-2.098119 -30.46938,-1.361535 -44.0531195,1.966849 -6.92803,1.697553 -15.53667,4.872738 -19.7153805,7.271757 -6.51305,3.739182 -11.42251,8.365739 -14.73711,13.887898 -1.71977,2.86514 -4.84705,11.0807 -5.99252,15.742706 -1.23736,5.03596 -1.35969,6.27225 -1.3483,13.62604 0.0113,7.30632 0.16381,8.77913 1.4774,14.26913 1.09404,4.57239 4.5663,12.77138 6.47124,15.2804 0.3517,0.46323 0.63946,0.92494 0.63946,1.02602 0,0.18896 3.50744,4.4289 4.25339,5.14168 5.50369,5.25896 12.32896,8.73116 21.9303005,11.15655 5.38186,1.3595 10.31878,2.06581 19.7215195,2.82149 5.04069,0.40512 18.34411,0.35111 23.01874,-0.0934 z M -4.2100505,151.68427 c -4.07599,-0.66976 -7.8055605,-2.15628 -11.3844305,-4.53758 -7.16588,-4.76802 -9.82612,-13.88762 -5.27486,-18.08282 2.53157,-2.33352 4.2933,-1.55715 4.33398,1.90992 0.0205,1.75051 0.61969,3.19755 1.62501,3.92462 0.94278,0.68184 2.9115,0.98426 4.55874,0.70028 2.0609005,-0.35529 6.7768605,-2.79268 11.3665505,-5.87468 7.09248,-4.76265 9.1845695,-5.82303 13.0765295,-6.62791 4.19702,-0.86796 8.39372,-0.29351 11.56453,1.58298 0.84718,0.50135 1.64906,0.91155 1.78197,0.91155 0.1329,0 0.83419,-0.3646 1.55842,-0.81022 4.3083,-2.65092 10.38055,-2.80934 15.91797,-0.41529 2.37346,1.02615 4.51153,2.27697 10.68674,6.25199 6.93467,4.4639 10.67876,5.80204 13.74217,4.91148 0.75803,-0.22037 1.57104,-0.61371 1.80669,-0.87411 0.54625,-0.6036 1.05689,-2.85437 0.85555,-3.77107 -0.16851,-0.76724 0.24455,-2.12155 0.74391,-2.43907 0.1728,-0.10988 0.78726,-0.2016 1.36546,-0.20382 0.94364,-0.004 1.20709,0.15968 2.57286,1.59496 2.35167,2.47136 2.8091,4.64119 1.8056,8.56484 -0.73294,2.86575 -1.6712,4.4731 -3.96914,6.79957 -3.14182,3.18083 -5.98756,4.8019 -10.72102,6.1072 -1.83888,0.50709 -2.77639,0.5837 -7.14375,0.5838 -4.47218,10e-5 -5.40412,-0.0799 -8.44281,-0.72475 -7.11297,-1.50947 -14.93388,-4.65648 -18.75522,-7.54679 -0.98891,-0.74798 -1.89089,-1.35997 -2.0044,-1.35997 -0.1135,0 -0.49501,0.30848 -0.8478,0.68551 -2.92902,3.13029 -11.54251,6.75631 -20.0883095,8.45659 -2.84311,0.56566 -8.15717,0.70571 -10.73094,0.28279 z m 74.3632295,-7.99619 c 2.4971,-1.63368 3.0104,-2.09246 4.07921,-3.64592 1.72434,-2.50625 2.1829,-5.49554 1.14129,-7.44007 l -0.5669,-1.05833 -0.0175,1.45521 c -0.0222,1.8439 -0.68464,3.30422 -2.06246,4.54645 -0.9547,0.86074 -2.45627,1.53312 -3.43352,1.53749 -0.1819,7.9e-4 -0.33073,0.11222 -0.33073,0.24758 0,0.15177 -0.32899,0.15177 -0.85815,0 -0.47198,-0.13536 -1.34114,-0.24611 -1.93146,-0.24611 -0.59032,0 -1.18642,-0.10651 -1.32466,-0.23669 -0.13825,-0.13018 -1.10869,-0.54223 -2.15654,-0.91565 -1.98819,-0.70854 -4.72301,-2.01435 -5.88389,-2.80943 -2.25829,-1.54668 -8.48248,-5.42446 -10.73176,-6.68606 -3.63774,-2.04039 -5.90456,-2.69823 -9.26042,-2.6874 -3.23079,0.0104 -5.47746,0.68051 -7.9445,2.36951 l -1.66926,1.14282 -0.74937,-0.65152 c -1.0095,-0.87769 -3.02881,-1.81484 -5.11499,-2.37383 -1.76953,-0.47415 -7.17175,-0.69597 -7.76436,-0.31882 -0.16799,0.10691 -0.18637,0.20261 -0.0409,0.21266 0.14552,0.0101 -0.40947,0.23386 -1.23331,0.49733 -0.82384,0.26348 -2.3121195,0.93127 -3.3072895,1.48399 -1.88526,1.04707 -2.71938,1.58742 -7.76252,5.02856 -3.57629,2.44024 -7.87854,4.63213 -10.38069,5.28869 -3.0759405,0.80712 -6.3489005,0.19933 -8.1269605,-1.50919 -1.21545,-1.16791 -1.69936,-2.15634 -1.98357,-4.05162 -0.18141,-1.20973 -0.22615,-1.27308 -0.56847,-0.80493 -0.61442,0.84026 -0.48501,3.77864 0.22375,5.08068 1.13174,2.07904 3.03465,4.39648 3.47576,4.23289 0.16201,-0.0601 0.66322,0.11243 1.1138,0.38335 0.94002,0.56519 3.94618,1.5853 6.4568005,2.19104 2.84511,0.68645 7.05476,1.03427 10.45104,0.86352 2.94982,-0.14831 9.4142895,-1.26055 10.0428395,-1.72793 0.15175,-0.11283 0.81169,-0.3532 1.46653,-0.53415 5.61524,-1.55164 11.02709,-5.28622 12.88523,-8.89178 0.44998,-0.87312 0.91357,-1.5875 1.03022,-1.5875 0.11665,0 0.55192,0.65485 0.96728,1.45521 1.09868,2.11712 3.92659,5.01334 5.86378,6.00542 0.44937,0.23013 0.87656,0.49557 0.94932,0.58986 0.19417,0.25162 3.93738,2.13597 4.24305,2.13597 0.14335,0 0.76535,0.23719 1.38223,0.52708 2.27167,1.06754 7.98177,2.31752 11.70584,2.56247 2.59204,0.1705 8.38914,-0.47136 10.27882,-1.13808 1.23165,-0.43455 1.84808,-0.11265 0.9666,0.50476 -0.63578,0.44531 -0.73517,0.42079 1.76449,0.43539 0.46199,0.003 0.91273,0.1226 1.00164,0.26646 0.22734,0.36784 1.20402,-0.0869 3.71462,-1.72938 z M 1.4938095,131.03021 c 0,-0.0642 -0.11906,-0.19027 -0.26458,-0.2802 -0.14552,-0.0899 -0.26458003,-0.0374 -0.26458003,0.11667 0,0.15411 0.11906003,0.2802 0.26458003,0.2802 0.14552,0 0.26458,-0.0525 0.26458,-0.11667 z M -14.999511,123.9018 c -1.58754,-0.67028 -1.86808,-0.86662 -3.82467,-2.67679 -4.18448,-3.87133 -3.99242,-11.7353 0.38428,-15.73537 2.6508,-2.42267 5.8163,-3.46265 8.8598105,-2.91076 1.98404,0.35978 3.71523,1.02152 3.51595,1.34396 -0.0804,0.1301 0.0984,0.23654 0.39725,0.23654 0.30196,0 1.10251,0.57344 1.80155,1.29045 1.72359,1.76789 1.85944,1.95603 2.65657,3.67932 0.60787997,1.31416 0.70007997,1.85953 0.70296997,4.15836 0.004,3.1809 -0.13153,3.75239 -1.37550997,5.80021 -1.12959,1.85949 -2.79434,3.52575 -4.21334,4.21714 -0.55577,0.2708 -1.24862,0.61855 -1.53966,0.77279 -0.29104,0.15424 -1.71979,0.32448 -3.1750005,0.37832 -2.34777,0.0869 -2.81982,0.0244 -4.1902,-0.55417 z m 6.6140105,-9.59373 c 1.6497,-1.0492 2.51508,-2.59888 2.51508,-4.50388 0,-4.29086 -5.3838405,-6.50414 -8.6031105,-3.53671 l -1.10318,1.01687 -0.70827,-0.60923 c -0.38955,-0.33507 -0.64017,-0.67733 -0.55693,-0.76057 0.0832,-0.0832 -0.25178,-0.038 -0.74449,0.10042 -1.88871,0.53079 -2.63401,2.40402 -1.51998,3.82029 0.5012,0.63717 0.71465,0.70989 1.85225,0.631 0.91955,-0.0638 1.28573,0.008 1.28561,0.2521 -2.7e-4,0.55968 0.96115,2.2621 1.62962,2.88563 1.54456,1.44072 4.28547,1.76487 5.9534005,0.70408 z m 78.3452895,9.95336 c -5.20956,-1.30844 -8.92325,-6.98705 -8.12838,-12.42913 0.38004,-2.60197 1.5749,-5.30831 1.5749,-3.56714 0,0.8805 1.3235,2.24422 2.17804,2.24422 0.34718,0 0.85879,-0.16639 1.13691,-0.36975 0.46758,-0.34191 0.53321,-0.28709 0.87114,0.7276 1.08305,3.25199 4.14416,4.7068 7.08942,3.36931 3.44556,-1.56469 3.83808,-6.64092 0.67651,-8.74886 -0.74133,-0.49427 -1.41106,-0.67138 -2.8239,-0.74677 -1.63285,-0.0871 -1.96698,-0.0205 -2.82275,0.56328 -0.53386,0.36417 -1.05897,0.58299 -1.1669,0.48626 -0.10792,-0.0967 -0.12692,-0.0535 -0.0422,0.0961 0.0847,0.14959 -0.0722,0.56631 -0.34857,0.92604 -0.27643,0.35974 -0.50524,0.50349 -0.50847,0.31945 -0.003,-0.18404 -0.37229,-0.55744 -0.82011,-0.82978 -0.80222,-0.48786 -1.63496,-0.47175 -2.29463,0.0444 -0.1819,0.14232 -0.33073,0.16141 -0.33073,0.0424 0,-0.27808 1.35791,-1.70052 1.62337,-1.70052 0.1108,0 0.5256,-0.30041 0.92179,-0.66759 1.94116,-1.79901 6.96538,-2.22127 9.98436,-0.83913 1.97251,0.90304 3.68644,2.24897 3.49597,2.74533 -0.0794,0.20701 -0.0372,0.31009 0.0939,0.22908 0.33078,-0.20443 1.74185,1.63829 2.44532,3.19336 0.47882,1.05847 0.58747,1.79436 0.60094,4.0702 0.0153,2.58318 -0.042,2.90177 -0.8159,4.54013 -1.85397,3.92466 -5.39617,6.34435 -9.48535,6.47947 -1.16463,0.0385 -2.56173,-0.0416 -3.10466,-0.17797 z m 42.676411,11.37406 c 0.57678,-0.30868 0.69834,-1.55037 0.20053,-2.04819 -0.23861,-0.23861 -0.1923,-0.44576 0.19843,-0.88762 l 0.50969,-0.57638 -0.70866,0.45585 c -0.68215,0.43879 -0.71949,0.4356 -0.99836,-0.0855 -0.15935,-0.29773 -0.58459,-0.83621 -0.945,-1.19661 -0.3604,-0.36041 -0.65527,-0.78349 -0.65527,-0.9402 0,-0.50537 0.79944,-0.60975 1.28746,-0.1681 0.27123,0.24547 0.92792,0.42897 1.53514,0.42897 0.89841,0 1.21131,0.1623 2.04035,1.05833 2.00708,2.16926 2.69552,0.77762 1.22246,-2.47114 -0.43656,-0.96281 -0.79375,-1.98258 -0.79375,-2.26615 0,-0.98056 0.89275,-0.72763 2.17433,0.61603 0.68709,0.72036 1.40168,1.3436 1.58798,1.38496 0.1863,0.0414 0.83716,0.22028 1.44634,0.39758 1.65724,0.48234 2.46427,0.0427 2.46427,-1.34255 0,-1.28893 -0.35456,-2.25757 -1.26168,-3.44686 -1.23268,-1.61613 -0.88866,-2.10766 1.52626,-2.18071 0.3638,-0.011 1.05675,-0.19275 1.53987,-0.40387 0.90511,-0.39552 1.79532,-0.28552 1.504,0.18584 -0.0906,0.14655 -0.0258,0.26645 0.14382,0.26645 0.16968,0 0.24555,-0.16408 0.16859,-0.36463 -0.077,-0.20055 -0.009,-0.49539 0.15065,-0.65521 0.21104,-0.21104 0.16917,-0.42472 -0.15297,-0.78068 -0.86772,-0.95881 -0.33247,-1.36359 1.81269,-1.37087 1.29502,-0.004 2.24169,-0.6131 2.24169,-1.44142 0,-0.862 -0.47367,-1.16145 -1.98872,-1.25724 -0.96061,-0.0607 -1.33579,-0.19892 -1.39556,-0.51398 -0.0879,-0.46362 0.14782,-0.72234 1.77733,-1.95034 0.74445,-0.56102 1.05687,-0.99631 1.06553,-1.48461 0.0115,-0.65115 0.10461,-0.69923 1.6193,-0.83658 1.75743,-0.15935 2.62628,-0.70352 2.62628,-1.64483 0,-0.75008 -1.47925,-2.07713 -2.12664,-1.90784 -0.27648,0.0723 -0.68408,-0.0875 -0.93755,-0.36759 -0.36611,-0.40455 -0.38721,-0.56926 -0.11493,-0.89734 0.18342,-0.22101 0.42787,-0.40184 0.54321,-0.40184 0.23819,0 1.22836,-0.79641 2.52639,-2.03201 2.06225,-1.96307 0.96875,-3.86345 -1.49112,-2.5914 -0.90169,0.46628 -0.90249,0.46316 -0.37746,-1.462 0.21828,-0.800366 0.37776,-2.330256 0.35441,-3.399766 -0.0345,-1.58209 -0.14306,-2.03828 -0.58219,-2.44739 -0.29685,-0.27657 -0.42798,-0.51199 -0.2914,-0.52318 0.13658,-0.0112 -0.22793,-0.16735 -0.81001,-0.34704 -1.27979,-0.39508 -1.89175,-0.27999 -2.0666,0.38865 -0.0721,0.27584 -0.4293,0.61488 -0.79371,0.75342 -0.44804,0.17035 -0.72457,0.53544 -0.85411,1.12767 -0.50687,2.31736 -3.06033,6.501716 -5.67003,9.291486 -0.91104,0.9739 -1.82511,1.77073 -2.03127,1.77073 -0.20617,0 -0.43926,0.16785 -0.51798,0.373 -0.0787,0.20515 -0.4357,0.44643 -0.79329,0.53617 -0.35759,0.0897 -0.9036,0.45467 -1.21337,0.81094 -0.59034,0.67894 -2.14867,1.33454 -2.5632,1.07835 -0.13312,-0.0823 -0.31255,0.0342 -0.39874,0.2588 -0.26391,0.68771 -5.0689,0.48846 -6.72513,-0.27888 -0.70784,-0.32795 -1.88956,-0.66966 -2.62605,-0.75936 -1.26863,-0.15452 -1.34785,-0.12812 -1.50597,0.50187 -0.0918,0.36573 -0.0281,0.92437 0.14161,1.24142 0.65961,1.23249 -0.45116,17.43644 -1.31824,19.23055 -0.11237,0.23252 -0.23312,0.84684 -0.26833,1.36514 -0.053,0.78042 0.14949,1.20172 1.17821,2.4513 1.36308,1.65572 2.28285,2.09015 2.97015,1.40285 0.39565,-0.39565 0.39682,-0.52488 0.0141,-1.55747 -0.38168,-1.02979 -0.2845,-2.31301 0.17516,-2.31301 0.2736,0 2.77405,2.61201 2.77405,2.89781 0,0.15245 0.29492,0.27719 0.65536,0.27719 0.40709,0 0.81955,0.25058 1.08877,0.66145 0.46883,0.71553 0.91247,0.81592 1.71285,0.38757 z m -152.056021,-3.62871 c 2.1978,-0.74912 2.23986,-0.90664 1.50133,-5.6224 -0.45124,-2.88135 -0.64382,-11.2772 -0.31566,-13.76143 0.16317,-1.23522 0.36573,-2.86793 0.45013,-3.62823 l 0.15346,-1.38237 -2.66989,0.009 c -3.32399,0.0118 -4.61008,-0.5123 -7.26908,-2.96217 -2.03027,-1.8706 -4.91166,-5.611176 -4.91166,-6.376266 0,-0.26983 -0.17859,-0.55914 -0.39687,-0.6429 -0.21828,-0.0838 -0.39688,-0.31815 -0.39688,-0.52086 0,-0.20271 -0.10517,-0.36857 -0.23372,-0.36857 -0.12855,0 -0.30576,-0.20836 -0.39379,-0.46302 -0.088,-0.25466 -0.39832,-0.82021 -0.68951,-1.25677 -0.29119,-0.43656 -0.67052,-1.06525 -0.84296,-1.39709 -0.17243,-0.33183 -0.84297,-0.83753 -1.49008,-1.12378 l -1.17657,-0.52045 -0.96012,0.72691 c -1.07366,0.81287 -1.12382,0.92912 -1.28399,2.97587 -0.0771,0.98507 0.0535,1.98542 0.4041,3.09638 0.28489,0.90265 0.46204,1.697106 0.39368,1.765466 -0.0684,0.0684 -0.50336,0.0628 -0.966673,-0.0124 -0.598067,-0.0971 -1.031192,0.0162 -1.493401,0.39046 -0.644125,0.52158 -0.646207,0.53726 -0.196604,1.48009 0.249928,0.52411 0.588143,0.95292 0.751586,0.95292 0.163444,0 0.230979,0.1725 0.150075,0.38333 -0.089,0.23193 0.05657,0.44797 0.368567,0.547 0.283615,0.09 0.51566,0.2747 0.51566,0.41042 0,0.13571 0.12701,0.24675 0.28224,0.24675 0.53917,0 2.09901,1.38852 2.09901,1.86848 0,0.57085 -0.95305,1.30286 -1.71251,1.31532 -0.71701,0.0118 -1.662222,0.83106 -1.857355,1.60993 -0.254219,1.0147 0.378616,1.57975 1.990315,1.77711 1.30574,0.1599 1.43794,0.23632 1.44238,0.83385 0.005,0.70357 0.66656,1.17244 3.6429,2.58273 0.83675,0.39648 1.52136,0.78804 1.52136,0.87014 0,0.0821 -0.66202,0.83278 -1.47116,1.66817 -1.25015,1.2907 -1.45883,1.64599 -1.38907,2.36489 0.0729,0.75068 0.1928,0.86383 1.0646,1.00426 0.54037,0.087 1.07615,0.0793 1.19062,-0.0171 0.40772,-0.34351 2.42418,-0.86577 2.79433,-0.72373 0.32314,0.124 0.32586,0.38254 0.0192,1.82179 -0.41945,1.96854 -0.25557,3.43147 0.45661,4.07598 0.46636,0.42206 0.54945,0.42564 0.97339,0.042 0.98368,-0.89021 2.90372,-1.20669 2.22412,-0.3666 -0.13667,0.16895 -0.23175,1.08108 -0.21129,2.02697 0.034,1.57371 0.0883,1.72703 0.63815,1.80508 0.42034,0.0597 0.85244,-0.19878 1.43775,-0.8599 0.46024,-0.51985 0.98619,-0.94518 1.16878,-0.94518 0.18991,0 0.4073,0.50227 0.50798,1.17362 0.17087,1.1395 0.19634,1.16589 0.87562,0.90763 0.38479,-0.1463 0.91506,-0.46097 1.17838,-0.69926 0.26331,-0.2383 0.77927,-0.47351 1.14658,-0.5227 0.58827,-0.0788 0.64536,-0.0171 0.47921,0.51783 -0.10374,0.33399 -0.41113,0.92329 -0.68308,1.30956 -0.46411,0.6592 -0.69036,2.07582 -0.33153,2.07582 0.0896,0 0.77422,-0.20836 1.52136,-0.46302 z m 153.359331,-23.6071 c 0.73175,-0.46263 -0.18163,-0.91115 -2.07316,-1.01803 -1.4888,-0.0841 -1.88612,-0.0168 -2.29156,0.3885 -0.47757,0.47736 -0.47008,0.49468 0.28458,0.65741 1.22037,0.26316 3.64602,0.24658 4.08014,-0.0279 z m -5.33713,-1.92519 c 1.04628,-0.72655 1.46955,-0.85854 2.72955,-0.85113 0.82161,0.005 1.67728,0.16316 1.90553,0.35259 0.55253,0.45855 1.49801,0.13421 1.49801,-0.51389 0,-0.52316 -1.08996,-1.81357 -1.90541,-2.25582 -0.41701,-0.22617 -0.4097,-0.30814 0.0992,-1.11184 0.52039,-0.82189 0.57522,-0.84428 1.03928,-0.42432 0.26945,0.24385 0.41365,0.56674 0.32044,0.71755 -0.10231,0.16555 -0.003,0.21018 0.25148,0.11265 0.23152,-0.0888 0.56828,0.016 0.74836,0.233 0.18009,0.21699 0.6284,0.35874 0.99624,0.315 1.00779,-0.11983 1.29466,-1.51175 0.68456,-3.321506 -0.2577,-0.76444 -0.40938,-1.44907 -0.33706,-1.52139 0.0723,-0.0723 0.48121,-0.17221 0.90865,-0.22197 0.85888,-0.10001 1.96204,-0.61602 1.94742,-0.91094 -0.0224,-0.45149 -0.73976,-1.3726 -1.89047,-2.42736 -1.07241,-0.98299 -1.19686,-1.20162 -0.92854,-1.63126 0.26166,-0.41899 0.64409,-0.49613 2.45947,-0.49613 1.77575,0 2.27118,-0.0956 2.84844,-0.54969 1.75703,-1.38208 1.32813,-2.14789 -1.85271,-3.308 -1.07235,-0.39111 -1.94973,-0.85464 -1.94973,-1.03007 0,-0.17544 0.32742,-0.46577 0.7276,-0.6452 0.40018,-0.17942 0.99458,-0.49833 1.32088,-0.70869 l 0.59327,-0.38246 -0.52388,-0.97745 c -0.62929,-1.17412 -0.39329,-1.528835 0.9567,-1.437919 1.78157,0.119984 3.80459,-0.846201 3.80459,-1.817049 0,-0.640218 -0.65382,-1.113642 -2.22117,-1.608315 -1.12834,-0.356121 -1.3507,-0.530291 -1.3507,-1.057984 0,-0.382545 0.15653,-0.63396 0.39687,-0.637453 0.52693,-0.0077 1.64255,-0.394919 2.03109,-0.705038 0.41033,-0.327519 -0.0777,-1.798581 -0.75793,-2.284557 -0.26855,-0.191858 -0.4308,-0.441804 -0.36057,-0.555438 0.0702,-0.11363 -0.16731,-0.364479 -0.52785,-0.557437 -0.74141,-0.39679 -0.67577,-1.108556 0.17726,-1.922039 0.27299,-0.260329 0.49634,-0.599136 0.49634,-0.752904 0,-0.15377 0.25961,-0.644175 0.57692,-1.089792 0.3173,-0.445616 0.6146,-1.059309 0.66066,-1.36376 0.42381,-2.801435 0.41444,-2.914311 -0.29732,-3.58294 -0.66887,-0.628327 -0.71309,-0.634479 -1.4465,-0.201239 -1.03208,0.609661 -1.24026,0.279143 -1.46483,-2.325619 -0.10036,-1.164167 -0.24721,-2.473854 -0.32631,-2.910416 -0.0791,-0.436563 -0.15019,-0.935964 -0.15795,-1.109779 -0.008,-0.173818 -0.0863,-0.292881 -0.17452,-0.264584 -0.0882,0.02829 -0.72321,-0.535402 -1.41111,-1.252659 -0.68789,-0.717259 -1.25071,-1.19036 -1.25071,-1.05134 0,0.139017 -0.45478,0.209391 -1.01063,0.156382 -1.3338,-0.127196 -3.3446,1.180071 -3.94033,2.561693 -0.22773,0.528159 -0.54528,1.244142 -0.70566,1.591077 -0.25747,0.556956 -0.3221,5.22057 -0.1048,7.563204 0.0665,0.717233 -0.0116,0.799698 -0.89653,0.946835 -0.53318,0.08865 -1.28507,0.367993 -1.67086,0.620774 -0.59927,0.392663 -0.6756,0.582313 -0.52405,1.302123 0.0976,0.463388 0.43528,1.140179 0.75047,1.503981 0.64419,0.743519 0.66734,2.38125 0.0337,2.38125 -0.73491,0 -0.79376,2.210139 -0.0824,3.094411 0.38256,0.475543 -1.5703,4.383833 -3.27928,6.562881 -2.04555,2.60818 -4.40977,5.15937 -4.78126,5.15937 -0.12844,0 -0.68285,0.49637 -1.232,1.10304 -0.988981,1.09255 -0.995291,1.11364 -0.663291,2.21678 0.18435,0.61255 0.46031,1.33658 0.613251,1.60894 0.71715,1.27719 2.9549,9.426166 2.8969,10.549366 -0.015,0.29104 0.105,0.85659 0.26673,1.25677 0.28199,0.69775 0.37108,0.7276 2.17116,0.7276 1.68737,0 2.00228,-0.0869 3.1154,-0.85989 z m -146.997621,-0.74066 c 1.17796,-0.32714 1.71779,-1.09786 1.13625,-1.62222 -0.76918,-0.69356 -1.07539,-0.90816 -1.55981,-1.09318 -0.7153,-0.2732 -0.0638,-0.97571 0.90487,-0.97571 1.26458,0 2.07401,-0.45029 2.24232,-1.24742 0.38631,-1.829516 1.29828,-4.837996 1.46658,-4.837996 0.10218,0 0.26313,-0.41231 0.35767,-0.91624 0.1569,-0.83633 0.49982,-1.69623 2.05812,-5.16083 1.08291,-2.40763 1.08017,-2.36331 0.20236,-3.27329 -1.71096,-1.77367 -1.97635,-2.07661 -1.96876,-2.24731 0.004,-0.097 -0.29583,-0.4318 -0.66697,-0.744102 -0.37115,-0.312295 -0.94857,-1.115967 -1.28317,-1.785937 -0.3346,-0.669967 -0.68951,-1.218123 -0.78869,-1.218123 -0.0992,0 -0.47251,-0.550754 -0.82961,-1.223894 -0.68657,-1.294206 -0.79091,-2.308502 -0.45927,-4.464647 0.1996,-1.297657 0.18631,-1.334458 -0.69603,-1.927284 -1.17623,-0.790281 -1.16788,-1.619723 0.0203,-2.019596 1.86776,-0.62857 3.01532,-2.494806 2.44938,-3.983344 -0.26298,-0.691692 -0.80803,-0.914969 -2.49447,-1.021834 l -1.03649,-0.06568 -0.0218,-4.222379 c -0.019,-3.667371 -0.0914,-4.360841 -0.551,-5.275773 -0.72133,-1.435926 -2.46597,-2.617073 -3.95298,-2.676221 -0.63724,-0.02535 -1.28707,-0.125473 -1.44406,-0.222498 -0.16825,-0.103984 -0.22857,-0.02821 -0.14693,0.184544 0.0791,0.206211 -0.13831,0.509108 -0.5072,0.70653 -0.70841,0.379129 -1.86859,2.340059 -2.12414,3.590205 -0.14184,0.69388 -0.43266,3.081544 -0.49145,4.034896 -0.0118,0.190934 -0.37585,0.330729 -0.86133,0.330729 -1.71491,0 -2.35014,1.663226 -1.37726,3.606048 0.85401,1.705438 1.8563,4.783193 1.66073,5.099635 -0.0855,0.138348 -0.55068,0.381979 -1.03372,0.541395 -0.52655,0.173779 -0.88638,0.472885 -0.89855,0.746908 -0.0418,0.940634 0.4969,2.106502 1.12972,2.445176 0.35995,0.192641 0.65446,0.446141 0.65446,0.563335 0,0.117195 0.38433,0.411827 0.85407,0.654738 0.82698,0.427646 0.83537,0.44858 0.26459,0.659728 -0.32422,0.119938 -0.5895,0.338698 -0.5895,0.486135 0,0.147439 -0.32536,0.349731 -0.72303,0.44954 -0.39767,0.09981 -1.08228,0.517427 -1.52135,0.928042 -0.65024,0.608087 -0.74513,0.833022 -0.51153,1.212633 0.3756,0.610381 1.84152,1.335971 3.08664,1.527802 0.9764,0.150429 0.99219,0.171762 0.99219,1.339995 0,0.652923 0.18133,1.621108 0.40295,2.151518 0.46116,1.10371 0.39779,1.19587 -1.11873,1.62693 -1.39914,0.39769 -1.9813,0.97053 -1.87827,1.84818 0.13655,1.1631 1.42243,1.78824 4.06141,1.97448 1.26719,0.0894 2.36948,0.22808 2.44952,0.30813 0.24644,0.24644 -0.81836,0.91047 -1.9325,1.20515 -1.4095,0.37279 -2.18991,0.78066 -2.36456,1.23577 -0.24635,0.64199 0.97903,1.57858 2.33048,1.78124 1.4591,0.21881 1.75931,0.68102 1.13203,1.74291 -0.24007,0.40641 -0.4365,0.92665 -0.4365,1.15609 0,0.52665 1.0543,0.8011 2.23007,0.58053 1.2765,-0.23947 1.48906,0.28771 0.47967,1.1896 -1.15466,1.031686 -1.47183,1.696756 -0.99708,2.090766 0.20999,0.17427 0.62845,0.23493 0.93958,0.13618 0.30852,-0.0979 0.86509,-0.10171 1.23681,-0.008 l 0.67585,0.16962 -0.59623,0.63466 c -0.32792,0.34906 -1.1169,0.8794 -1.75328,1.17853 -1.29737,0.60984 -1.52,1.32721 -0.56174,1.81005 1.09564,0.55206 3.35054,0.69683 4.75939,0.30557 z M 95.589479,81.871471 c 1.38054,-2.452958 2.04084,-4.789112 1.8424,-6.518511 -0.25152,-2.191932 -0.92994,-3.663246 -1.90272,-4.126494 -0.86127,-0.410138 -5.74757,-0.674304 -6.0925,-0.329374 -0.10416,0.104158 -0.52568,0.18938 -0.93671,0.18938 -0.88065,0 -4.37991,1.511271 -5.04938,2.180741 -0.54472,0.544722 -0.60425,0.994259 -0.13166,0.994259 0.18339,0 0.62987,0.26806 0.99219,0.595688 0.36231,0.327629 1.34743,1.064596 2.18914,1.637705 0.95618,0.651044 1.47851,1.177248 1.3921,1.402429 -0.0766,0.199639 -0.0193,0.286893 0.12837,0.195601 0.41673,-0.257558 2.71478,1.568715 4.52642,3.59718 0.90575,1.014156 1.77405,1.801688 1.92956,1.750073 0.15551,-0.05162 0.65626,-0.757523 1.11279,-1.568677 z m -111.27884,-9.080579 c 1.40842,-1.046044 6.9055805,-3.733848 9.4631405,-4.626943 1.26456,-0.441579 2.46946,-0.908101 2.67756,-1.036715 0.32011,-0.197837 0.24866,-0.756332 -0.46404,-3.627405 -1.07973,-4.349676 -1.36094,-6.41001 -1.36741,-10.018704 -0.007,-4.170283 1.08868,-8.076398 2.78139,-9.911318 0.46985,-0.509323 1.36412,-1.699948 1.98726997,-2.645833 0.62315,-0.945886 1.66085003,-2.271276 2.30601003,-2.945313 1.37583,-1.437417 1.42435,-2.171369 0.15173,-2.295188 -1.17862003,-0.114673 -4.62675,1.680688 -7.83432,4.079147 -1.43805,1.075306 -2.72418,1.955104 -2.85807,1.955104 -0.13388,0 -0.24342,0.128479 -0.24342,0.285506 0,0.157031 -0.79274,1.194451 -1.7616305,2.305384 -6.71133,7.695183 -9.59594,17.649469 -7.49148,25.851817 0.92921,3.621682 1.09601,3.78705 2.65327,2.630461 z M 81.667289,71.7847 c 3.43272,-2.327526 5.9216,-3.129989 9.4465,-3.045735 1.34799,0.03222 2.51858,-0.0091 2.60131,-0.09184 0.21696,-0.216961 -1.70489,-2.097503 -2.77978,-2.720025 -2.64453,-1.531583 -3.36638,-1.797278 -5.22503,-1.923214 -3.3391,-0.226245 -6.96474,1.238628 -10.28839,4.156831 l -0.96339,0.845871 0.5438,0.506629 c 0.29909,0.278649 1.41195,0.929135 2.47303,1.445527 1.06107,0.516393 2.04436,1.054039 2.18509,1.194771 0.41143,0.41143 1.02147,0.299318 2.00686,-0.368813 z m 16.26149,-4.17894 c -0.17022,-1.237647 -1.10249,-4.318537 -1.7089,-5.647412 -0.13281,-0.291042 -0.51129,-1.184011 -0.84106,-1.984375 -3.19457,-7.753265 -10.72738,-16.358113 -17.11571,-19.551564 -3.48805,-1.743634 -4.59299,-1.988273 -9.03597,-2.0006 -4.14848,-0.01151 -5.29559,0.152615 -8.59896,1.230302 -2.14688,0.700395 -3.35081,1.439011 -5.65104,3.466931 -2.5468,2.245307 -4.92537,4.968824 -6.8224,7.81182 -1.51513,2.270646 -4.71587,8.423049 -5.126,9.853085 -0.2457,0.85671 0.0289,1.041723 1.54765,1.042794 1.43055,0.0011 9.22719,1.262013 9.84405,1.592146 0.61905,0.331306 0.67514,0.303869 2.80568,-1.372531 0.89376,-0.703249 1.70108,-1.278633 1.79405,-1.278633 0.093,0 0.96906,-0.448858 1.94686,-0.997458 2.05911,-1.155282 3.70135,-1.701951 7.20178,-2.397337 3.92309,-0.779351 9.60452,-0.23963 13.75833,1.307008 5.59511,2.083292 12.46751,6.34652 15.14317,9.393922 0.43266,0.49277 0.84502,0.895948 0.91636,0.895948 0.0713,0 0.0453,-0.61382 -0.0579,-1.364046 z m -24.41216,-0.921346 c 0.91501,-0.820401 2.04246,-1.652034 2.50545,-1.848074 0.46299,-0.196038 0.91815,-0.479965 1.01146,-0.630947 0.2219,-0.359032 2.88291,-1.685946 4.23215,-2.110356 0.58209,-0.183097 1.15158,-0.417722 1.26555,-0.521385 0.58155,-0.528979 -5.17306,-2.112505 -8.44878,-2.324894 -2.09839,-0.136054 -7.82207,0.526764 -8.42718,0.975892 -0.14552,0.108008 -0.8599,0.354867 -1.5875,0.548576 -0.72761,0.19371 -1.38245,0.427432 -1.45521,0.519383 -0.0728,0.09195 -0.92204,0.544152 -1.88728,1.004887 -0.96524,0.460737 -1.83125,1.036436 -1.92446,1.279334 -0.0932,0.242899 -0.1369,0.464043 -0.0971,0.491432 0.17781,0.122354 3.20289,0.930445 5.49633,1.468239 2.92182,0.685144 6.25498,1.771687 7.00418,2.283219 0.28704,0.195985 0.55043,0.356336 0.58531,0.356336 0.0349,0 0.81206,-0.671237 1.72707,-1.491642 z M 1.9956095,65.507072 c 1.3975,-0.449297 3.53857,-1.036193 4.75794,-1.304214 1.21936,-0.26802 2.31328,-0.585025 2.43093,-0.704453 0.11765,-0.119427 -0.0129,-0.871984 -0.29016,-1.672349 -0.6045,-1.745165 -0.65723,-3.153373 -0.14423,-3.852034 0.36372,-0.495358 0.3872,-0.487151 0.66146,0.231238 0.15639,0.409654 0.28551,0.945435 0.28693,1.190625 0.004,0.642138 1.1588195,3.02769 1.6712795,3.451587 0.36805,0.30444 0.77241,0.294421 2.6218,-0.06497 1.20264,-0.233712 3.61412,-0.553855 5.35883,-0.71143 1.8354,-0.165764 3.2553,-0.417129 3.36939,-0.596485 0.10845,-0.170495 0.20008,-0.964832 0.20363,-1.765196 0.008,-1.865032 1.06754,-6.541648 1.98046,-8.743532 0.92469,-2.230279 2.37565,-5.067339 3.47134,-6.78752 1.81944,-2.856418 6.92391,-7.276988 8.8469,-7.661587 0.50845,-0.10169 0.7648,-0.288798 0.68403,-0.499279 -0.13475,-0.351131 1.00291,-0.777139 1.40753,-0.527071 0.12358,0.07638 0.29503,-0.04442 0.38099,-0.268436 0.25708,-0.669946 2.71419,-1.53571 7.63821,-2.691331 1.40873,-0.330613 1.78594,-0.522327 1.78594,-0.907693 0,-0.268702 -0.14883,-0.489283 -0.33073,-0.49018 -0.1819,-7.94e-4 -0.66427,-0.175604 -1.07193,-0.388239 -1.04734,-0.54629 -7.17402,-1.035224 -10.63588,-0.848788 -5.81862,0.313362 -11.00907,1.982427 -14.60688,4.697057 -0.75774,0.571736 -1.45929,1.039516 -1.55901,1.039516 -0.51333,0 -4.35883,4.322638 -5.20875,5.855039 -0.95632,1.724226 -3.15113,7.872721 -3.50702,9.824447 -0.0998,0.547309 -0.28786,1.06087 -0.41791,1.141248 -0.92068,0.56901 -0.30714,-4.479274 0.97585,-8.029469 0.51153,-1.415457 1.4237,-3.406994 2.02705,-4.42564 1.18421,-1.999337 3.36235,-4.469474 4.43369,-5.028057 0.36578,-0.190716 1.20084,-0.857551 1.85569,-1.481854 0.65484,-0.624303 2.02406,-1.577139 3.04271,-2.117415 1.01864,-0.540277 1.88735,-1.154909 1.93047,-1.365848 0.14503,-0.709599 -1.5021,-1.120032 -4.44402,-1.107358 -2.35784,0.01016 -3.09833,0.125471 -4.89479,0.762243 -2.96209,1.049949 -5.47476,2.350611 -7.8960195,4.087312 -1.14136,0.818664 -2.62743,1.875431 -3.30239,2.348373 -0.67497,0.472943 -1.05082,0.863682 -0.83523,0.86831 0.34369,0.0074 0.34309,0.04812 -0.005,0.330729 -1.04793,0.851059 -5.30898003,7.180249 -6.63008,9.848066 -1.40844,2.844176 -1.53991,7.890259 -0.35995,13.815605 0.45069,2.263232 1.39112997,5.365935 1.62641997,5.365935 0.0822,0 1.29292,-0.367607 2.69041003,-0.816901 z M 33.706829,61.146085 c 1.38314,-0.151209 1.38906,-0.155816 1.38906,-1.080921 0,-1.277927 0.94819,-4.997317 1.64206,-6.441191 1.08327,-2.254181 2.39906,-4.105232 4.14669,-5.833573 1.67082,-1.65237 4.55962,-3.95601 4.96089,-3.95601 0.1039,0 0.37687,-0.167772 0.60661,-0.372829 0.72637,-0.648327 5.94007,-3.210563 8.78916,-4.319371 2.96204,-1.15276 4.85194,-1.66376 8.56188,-2.314995 3.33932,-0.586177 3.57188,-0.645779 3.57188,-0.915443 0,-0.392771 -2.57512,-1.059354 -5.82083,-1.506754 -3.66923,-0.505777 -11.94522,-0.345305 -15.08125,0.292428 -6.51528,1.324922 -12.35613,4.61224 -15.46731,8.705231 -0.98356,1.293944 -2.52264,4.123041 -3.11363,5.7234 -0.29556,0.800364 -0.73038,1.676066 -0.96625,1.946007 -0.23587,0.269939 -0.38618,0.508064 -0.33403,0.529167 0.0522,0.02111 -0.21573,1.056542 -0.59531,2.300978 -0.37958,1.244439 -0.69014,2.681086 -0.69014,3.192552 0,0.511469 -0.12825,1.623714 -0.285,2.471656 -0.18445,0.997794 -0.19378,1.598348 -0.0264,1.702239 0.30304,0.188132 6.69208,0.09824 8.71195,-0.122571 z m 7.22053,-0.378362 c 0.27186,-0.546518 0.83646,-1.970196 0.81223,-2.048116 -0.0453,-0.145592 2.951,-5.789374 3.26713,-6.153967 0.18926,-0.218281 0.53691,-0.777618 0.77255,-1.242973 0.98619,-1.94755 5.12708,-7.108679 6.25265,-7.793177 0.40332,-0.245279 0.82075,-0.587428 0.92761,-0.760333 0.27181,-0.439788 -0.68229,-0.122121 -2.6501,0.882353 -0.87312,0.445688 -2.2721,1.152165 -3.10885,1.569948 -0.83674,0.417782 -1.52135,0.861703 -1.52135,0.986491 0,0.124785 -0.56555,0.58216 -1.25677,1.016383 -2.23066,1.401287 -4.91235,4.331385 -5.61495,6.135058 -0.19839,0.509323 -0.46883,1.068155 -0.60097,1.241848 -0.46084,0.605764 -0.98772,3.135863 -0.99084,4.758023 -0.004,1.856632 0.0668,1.915232 2.21857,1.846641 0.85538,-0.02727 1.36275,-0.176168 1.49309,-0.438179 z"
       id="path540" /></g></svg>
