<?xml version="1.0" encoding="UTF-8" standalone="no"?>
<!-- Created with Inkscape (http://www.inkscape.org/) -->

<svg
   width="222.75995mm"
   height="120.61286mm"
   viewBox="0 0 222.75994 120.61287"
   version="1.1"
   id="svg5"
   xml:space="preserve"
   xmlns="http://www.w3.org/2000/svg"
   xmlns:svg="http://www.w3.org/2000/svg"><defs
     id="defs2" /><g
     id="layer1"
     transform="translate(15.429731,-81.454771)"><path
       style="fill:#000000;stroke-width:0.264583"
       d="m 110.08736,201.47491 c -0.47932,-0.47932 -0.68061,-0.96265 -0.68061,-1.63429 0,-0.52453 0.10796,-0.88696 0.23991,-0.80541 0.13195,0.0815 0.17459,-0.10152 0.0948,-0.40683 -0.12132,-0.46393 -0.28022,-0.52772 -0.96751,-0.38841 -2.24299,0.45462 -3.73788,0.44408 -4.65851,-0.0328 -1.19961,-0.62146 -1.76857,-1.76323 -1.38501,-2.77939 0.33257,-0.88109 0.25292,-0.89771 -1.80085,-0.37572 -2.225185,0.56557 -9.285865,1.80168 -9.435645,1.6519 -0.0733,-0.0733 -0.39796,-0.0326 -0.72154,0.0905 -0.32357,0.12302 -2.54375,0.44097 -4.93373,0.70654 -6.11339,0.67931 -21.6539,0.68604 -27.30051,0.0118 -9.56524,-1.14213 -18.38367,-3.17724 -24.20162,-5.58523 -0.90661,-0.37524 -1.74005,-0.68232 -1.85208,-0.68241 -0.11203,-9e-5 -0.16341,0.58078 -0.11418,1.29083 0.0747,1.07804 -0.0125,1.38731 -0.52916,1.87485 -0.52719,0.4975 -0.85355,0.56949 -2.20671,0.48675 l -1.58803,-0.0971 5.3e-4,1.8171 c 5.3e-4,1.61856 -0.0717,1.87561 -0.66006,2.35259 -0.78121,0.63326 -2.15146,0.55508 -4.65303,-0.26547 -0.86105,-0.28244 -1.9525,-0.58508 -2.42545,-0.67254 -0.77625,-0.14356 -0.85989,-0.097 -0.85989,0.47859 0,0.98745 -0.48412,2.05406 -0.83414,1.83774 -0.18477,-0.1142 -0.23443,-0.0734 -0.12537,0.10309 0.21094,0.34131 -0.62067,0.84791 -1.3919,0.84791 -0.74715,0 -1.89461,-0.55917 -1.72167,-0.839 0.079,-0.12784 0.0455,-0.2154 -0.0744,-0.19456 -0.46068,0.08 -0.85503,-0.0371 -1.19653,-0.3555 -0.79021,-0.73668 -3.70595,-2.08601 -4.5112697,-2.08771 -4.02509,-0.008 -7.74677,-1.27171 -9.87864004,-3.35306 -1.64619996,-1.60718 -2.48031996,-3.29711 -2.83212996,-5.73787 -0.65647,-4.55445 2.24574996,-10.05226 6.95567,-13.17643 1.45534,-0.96535 4.82292,-2.3017 5.80025,-2.3017 0.8223297,0 0.8226297,-0.30402 0.002,-2.06878 -0.91467,-1.96711 -1.9352,-5.01728 -2.38481,-7.12774 -0.17799,-0.8355 -0.50073,-1.69769 -0.7172,-1.91598 -0.21647,-0.21828 -0.3183,-0.26106 -0.22628,-0.0951 0.29091,0.5248 -1.08417,1.18937 -2.27987,1.10185 -0.89363,-0.0654 -1.20777,-0.23688 -1.65559,-0.90367 l -0.55268,-0.82296 -0.77887,0.6232 c -0.82896004,0.66328 -2.00398004,0.80081 -3.14277,0.36784 -0.87066,-0.33102 -1.73488,-1.74842 -1.73615,-2.84742 l -10e-4,-0.85646 -1.16771,0.56732 c -1.03598,0.50332 -1.26215,0.5282 -2.00487,0.22055 -1.25065,-0.51803 -1.6908,-1.35906 -1.51003,-2.88535 l 0.15162,-1.28025 -1.16694,0.13153 c -1.0630003,0.11981 -1.2500703,0.0484 -2.1001303,-0.80166 -1.06747,-1.06747 -1.19803,-2.00027 -0.48828,-3.48863 0.43301,-0.90804 0.42873,-0.9502 -0.16001,-1.57689 -0.33271,-0.35415 -0.52589,-0.77179 -0.42929,-0.92808 0.0966,-0.15629 0.0495,-0.28417 -0.10458,-0.28417 -0.1541,0 -0.28478,-0.32742 -0.29039,-0.7276 -0.007,-0.52596 -0.24568,-0.87544 -0.85989,-1.26103 -0.70679,-0.4437 -0.88206,-0.75521 -1.04204,-1.85208 -0.10579,-0.72527 -0.26683,-1.82162 -0.35787,-2.43635 -0.14815,-1.00025 -0.0814,-1.2018 0.635,-1.91823 0.46907,-0.46907 1.07768,-0.80054 1.46988,-0.80054 0.64275,0 0.66351,-0.0499 0.52245,-1.25677 -0.11956,-1.02286 -0.0428,-1.38842 0.41257,-1.96406 0.86244,-1.09033 1.88586,-1.18618 3.4253203,-0.32081 1.21936,0.68544 1.32708,0.70296 1.74605,0.28399 1.06648,-1.06647 2.92422,-0.32902 5.5681,2.21032 2.76629,2.65691 4.51057,3.96575 5.85835,4.3959 0.74824,0.2388 1.52902,0.36949 1.73507,0.29042 0.26021,-0.0999 0.47626,-1.02095 0.70738,-3.01585 0.18301,-1.57966 0.68216,-4.55472 1.1092,-6.61126 0.42705,-2.05654 0.77646,-3.79981 0.77646,-3.87393 0,-0.0741 -0.29615,-0.20908 -0.65811,-0.29993 -0.98912,-0.24825 -1.55068,-1.27758 -1.34752,-2.46995 0.4116,-2.41559 0.47987,-2.30033 -1.4615,-2.46738 -2.22253,-0.19123 -3.33642,-0.65574 -3.82139,-1.59357 -0.50829004,-0.98292 -0.48361004,-1.52972 0.11321,-2.50843 l 0.49563,-0.81278 -1.01196004,-1.00592 c -2.32170996,-2.30786 -1.23589,-4.98519 2.00610004,-4.94647 1.31073,0.0157 1.40292,-0.0264 1.53527,-0.70062 0.17791,-0.90625 0.10686,-0.96146 -1.74823,-1.35842 -1.15172,-0.24644 -1.79315004,-0.5756 -2.57968004,-1.32381 -1.29521996,-1.23211 -1.37135996,-2.11683 -0.27642,-3.21178 l 0.77041,-0.77041 -0.77312,-0.82762 c -1.43002996,-1.53085 -1.23782996,-3.06989 0.48604,-3.89195 1.00107004,-0.47737 1.07010004,-0.71317 0.32547,-1.11168 -0.29561,-0.15821 -0.89093,-0.775576 -1.32292,-1.371926 -0.98003996,-1.35291 -1.02914996,-2.54401 -0.14718,-3.56982 0.57919,-0.67364 0.79953,-0.74235 2.38056004,-0.74235 0.95825,0 1.74259,-0.0933 1.74298,-0.20724 2.6e-4,-0.11398 -0.29697,-0.79463 -0.66077,-1.51256 -0.3638,-0.71792 -0.66146,-1.55332 -0.66146,-1.85642 0,-0.80044 0.71059,-2.0492 1.36552,-2.3997 0.69339,-0.3711 2.39364,-0.37258 3.08478,-0.003 0.45767,0.24494 0.52465,0.1593 0.65905,-0.842709 0.16865,-1.257359 1.14327,-2.306807 2.14232,-2.306807 1.1060297,0 2.3477597,1.112004 3.1822797,2.849836 0.81006,1.68688 1.16263,1.94314 1.73108,1.25821 0.54572,-0.65756 1.98463,-0.7798 2.88921,-0.24546 0.63692,0.37624 0.84026,0.71694 0.97865,1.63979 0.098,0.65341 0.0436,1.60243 -0.1239,2.16143 -0.39075,1.3042 -0.38619,1.33203 0.21815,1.33203 0.81099,0 1.83925,0.56188 2.00942,1.09802 0.37329,1.17612 0.15593,2.11749 -0.89884,3.89293 -0.60397,1.016636 -1.09813,1.946676 -1.09812,2.066756 0,0.12008 0.41672,0.55082 0.92604,0.95721 1.09646,0.87488 1.21916,1.8598 0.3667,2.94354 -0.30763,0.39109 -0.51599,0.7482 -0.46302,0.79359 0.053,0.0454 0.3481,0.21328 0.65584,0.3731 0.50219,0.2608 0.74541,0.0815 2.37327,-1.7501 2.4829,-2.79356 5.4544,-5.877126 5.66354,-5.877126 0.0949,0 0.70113,-0.50601 1.3472,-1.12448 0.64606,-0.61846 2.46092,-2.08846 4.03302,-3.26667 9.80209,-7.346143 21.11025,-11.614647 33.91302,-12.801177 3.70956,-0.343791 13.11363,-0.344596 17.06562,-0.0016 5.99036,0.520123 12.83951,1.962327 18.270055,3.847065 3.55878,1.23512 9.5477,4.077792 9.33072,4.428872 -0.0958,0.15497 -0.0341,0.18694 0.14591,0.0757 0.37136,-0.22951 3.61083,1.59704 6.84822,3.8613 3.23641,2.26358 6.34509,4.96099 9.59052,8.321736 3.79808,3.93304 3.76701,3.9105 4.88333,3.54208 1.12383,-0.3709 1.34835,-0.99362 0.81688,-2.26563 -0.85501,-2.04618 -0.25203,-4.088016 1.20726,-4.088016 0.4305,0 0.51206,-0.10546 0.35807,-0.46302 -0.10967,-0.25466 -0.25484,-1.19921 -0.32258,-2.099 -0.11311,-1.50216 -0.0654,-1.69379 0.58366,-2.34283 0.68513,-0.68513 1.1002,-0.74442 2.52139,-0.36017 0.30109,0.0814 0.42745,-0.2585 0.55088,-1.48186 0.32162,-3.18784 1.27199,-4.630208 3.0508,-4.630208 0.58024,0 1.09918,-0.22084 1.52904,-0.650698 0.87121,-0.871214 1.93975,-1.116427 2.78865,-0.639953 0.95333,0.535094 1.87637,2.013569 1.87637,3.005479 0,1.03115 0.19214,1.25298 0.80243,0.92636 0.60754,-0.32514 2.03023,0.15873 2.37815,0.80883 0.14245,0.26617 0.259,0.90849 0.259,1.42738 0,0.86201 0.0654,0.94344 0.75807,0.94344 2.11198,0 2.81682,2.17832 1.35694,4.19363 l -0.79541,1.09803 h 0.66312 c 1.05376,0 1.72145,0.872286 1.72145,2.248956 0,0.86027 -0.10579,1.19063 -0.38126,1.19063 -0.2097,0 -0.46622,0.13746 -0.57005,0.30546 -0.11697,0.18926 -0.0726,0.23364 0.11668,0.11668 0.38353,-0.23704 0.40155,0.16969 0.0242,0.547 -0.19858,0.19858 -0.0819,0.57488 0.39688,1.28046 0.37295,0.54958 0.6781,1.26268 0.6781,1.58465 0,0.91113 -1.07621,2.25786 -2.33742,2.92498 -1.38768,0.73401 -1.28707,0.81632 2.21877,1.81539 1.30218,0.37108 3.37964,1.03983 4.61656,1.4861 1.23693,0.44627 2.44246,0.87548 2.67896,0.95381 0.2365,0.0783 0.91637,-0.10571 1.51082,-0.40898 1.33942,-0.68332 1.78072,-0.68783 3.06841,-0.0313 0.98488,0.50212 1.04386,0.50371 1.70959,0.0462 1.4103,-0.96922 2.2603,-1.16478 3.25546,-0.74898 1.33693,0.55861 1.74637,1.68997 1.21404,3.35463 l -0.40603,1.26968 1.09115,0.89689 c 0.60013,0.49328 1.74599,1.36714 2.54635,1.94191 4.37231,3.13987 11.24667,9.45084 10.99863,10.09722 -0.0724,0.18872 0.003,0.31479 0.16686,0.28016 0.45679,-0.0964 3.69885,4.33351 5.05489,6.90687 0.66386,1.25982 1.52733,3.18354 1.91883,4.27495 1.11493,3.10814 1.74521,4.15973 4.36097,7.27604 3.21457,3.82969 4.99453,6.59325 6.20163,9.62859 3.05382,7.6791 2.62021,15.84295 -1.1609,21.85682 -1.45704,2.31744 -6.69598,7.01146 -7.8254,7.01146 -0.22051,0 -0.40092,0.12043 -0.40092,0.26762 0,0.14719 -0.80368,0.63777 -1.78594,1.09018 -3.3068,1.52306 -6.6942,2.46267 -10.89384,3.0218 -3.35506,0.44669 -13.46398,0.50653 -17.16242,0.1016 -4.18696,-0.45841 -8.54658,-1.74377 -11.60279,-3.42087 l -1.36062,-0.74664 -2.20103,0.7385 c -1.21056,0.40617 -2.24986,0.90113 -2.30955,1.09992 -0.36313,1.20935 -2.42548,4.69218 -2.42548,4.09609 0,-0.0997 -0.36952,0.23967 -0.82115,0.75405 -0.45164,0.51439 -0.98742,0.93525 -1.19063,0.93525 -0.20321,0 -0.36947,0.0963 -0.36947,0.21395 0,0.61713 -5.27286,2.90008 -8.37625,3.6266 -3.70101,0.86642 -4.59197,0.96484 -10.67374,1.17906 -5.54296,0.19523 -6.49048,0.2959 -8.73125,0.92767 -1.38245,0.38977 -3.13001,0.77293 -3.88346,0.85146 -1.21906,0.12705 -1.44486,0.0678 -2.05052,-0.53783 z m 3.95353,-2.17283 c 2.85784,-1.26387 4.19121,-1.4773 10.7117,-1.71462 4.4836,-0.16318 6.90418,-0.37317 8.6791,-0.75293 3.68162,-0.78771 7.86915,-2.50546 9.23433,-3.78799 0.33407,-0.31384 0.6074,-0.46379 0.6074,-0.33324 0,0.13056 0.37906,-0.17611 0.84236,-0.68148 2.18316,-2.38143 2.3671,-6.15579 0.45708,-9.3791 -1.27117,-2.14522 -1.39006,-2.30717 -2.29077,-3.1205 -0.47247,-0.42663 -0.79287,-0.88276 -0.71199,-1.01362 0.0809,-0.13086 0.0294,-0.23793 -0.11444,-0.23793 -0.14382,0 -0.95452,-0.45883 -1.80155,-1.01962 -0.84704,-0.5608 -2.10267,-1.3178 -2.79031,-1.68223 -0.68763,-0.36443 -1.16388,-0.75534 -1.05833,-0.86868 0.10555,-0.11335 0.0133,-0.14703 -0.20497,-0.0748 -0.21828,0.0722 -1.08333,-0.21182 -1.92234,-0.63112 -1.38284,-0.69108 -1.51336,-0.82904 -1.3961,-1.4757 0.0711,-0.39234 0.35757,-1.02203 0.63651,-1.39931 2.02495,-2.7389 4.26943,-9.47306 4.26943,-12.80966 0,-1.08621 0.20285,-1.27875 0.86132,-0.81753 0.41491,0.29061 0.6364,0.30271 1.03969,0.0568 0.4242,-0.25865 0.5777,-0.22449 0.89118,0.19831 0.33425,0.45082 0.31683,0.61568 -0.1484,1.40419 -0.63787,1.0811 -0.69402,2.77651 -0.10807,3.26281 0.64666,0.53668 1.17285,0.0258 1.80108,-1.74877 0.76215,-2.15282 1.28285,-2.19489 2.67466,-0.21612 1.24054,1.76371 1.88533,2.47564 2.24216,2.47564 0.43172,0 1.04109,-1.43165 0.79587,-1.86983 -0.12259,-0.21906 -0.26098,-0.87022 -0.30754,-1.44704 -0.0727,-0.90016 -0.005,-1.06012 0.47778,-1.12899 0.41424,-0.0591 0.81572,0.26481 1.52379,1.2294 1.2388,1.68758 1.73988,1.90166 1.7807,0.76077 0.0168,-0.46838 0.009,-1.06077 -0.0169,-1.31642 -0.10747,-1.05385 0.80342,-0.78422 2.35703,0.69766 1.65425,1.57789 1.83848,1.67 2.33903,1.16945 0.42474,-0.42474 0.40038,-1.27158 -0.0689,-2.3947 -0.63516,-1.52015 -0.0154,-1.66169 1.95828,-0.44726 1.0801,0.6646 1.41194,0.75754 1.85606,0.51986 0.79949,-0.42788 0.65902,-1.31806 -0.37511,-2.3771 -0.67136,-0.68754 -0.85094,-1.04311 -0.67256,-1.33173 0.21108,-0.34153 0.48802,-0.31045 2.08852,0.23444 1.79371,0.61066 2.67495,0.61611 2.67495,0.0165 0,-0.30303 -0.99214,-1.28864 -2.28513,-2.27008 l -0.74084,-0.56234 1.64059,-0.82817 c 1.20084,-0.60618 1.68631,-1.01028 1.81112,-1.50756 0.22377,-0.89157 -0.0565,-1.12761 -1.4349,-1.20838 -1.23867,-0.0726 -1.57485,-0.3062 -1.04718,-0.72769 1.79764,-1.43591 2.17185,-1.86122 1.88962,-2.14765 -0.48352,-0.49074 -2.07307,0.10037 -3.51392,1.30672 -1.85252,1.55101 -2.25402,1.43752 -1.47874,-0.41799 0.76627,-1.83395 0.40781,-2.38659 -0.95921,-1.4788 -0.77946,0.51761 -2.23893,2.02383 -2.44045,2.51861 -0.1021,0.25069 -0.18296,0.25225 -0.35766,0.007 -0.15542,-0.21829 -1.17133,-0.3068 -3.26129,-0.28416 -1.78023,0.0193 -3.47322,-0.10366 -4.09389,-0.2973 -1.94523,-0.60686 -3.17904,-1.35254 -3.52275,-2.12905 -0.18427,-0.41629 -0.616,-0.82741 -0.95939,-0.9136 -0.39094,-0.0981 -0.73316,-0.46881 -0.91538,-0.99153 -0.16006,-0.45916 -0.29102,-0.85109 -0.29102,-0.87095 0,-0.0199 0.26789,-0.0511 0.59531,-0.0695 0.91017,-0.051 1.71193,0.1494 2.09816,0.52436 1.36885,1.32891 3.12736,1.95608 3.12736,1.11538 0,-0.5792 0.25268,-0.5006 1.70107,0.52916 0.71637,0.50933 1.4006,0.92605 1.5205,0.92605 0.11991,0 0.21801,-0.58829 0.21801,-1.30731 0,-0.71901 0.11014,-1.37537 0.24476,-1.45857 0.28981,-0.17911 1.60733,0.37686 1.60733,0.67827 0,0.32192 1.67897,1.82042 2.04121,1.8218 0.48849,0.002 0.90204,-0.96646 0.72093,-1.68805 -0.0886,-0.35299 -0.44866,-0.91197 -0.80015,-1.24217 -0.78906,-0.74128 -0.84695,-1.56647 -0.10991,-1.56647 0.29104,0 0.52917,0.11906 0.52917,0.26458 0,0.14552 0.13439,0.26458 0.29866,0.26458 0.16426,0 0.75992,0.41672 1.32368,0.92604 1.15819,1.04636 2.36163,1.23009 2.92672,0.44683 0.65927,-0.9138 0.98698,-0.90223 2.12886,0.0752 1.75571,1.50282 2.89296,0.9177 1.91447,-0.985 -0.24323,-0.47296 -0.5413,-1.18734 -0.66239,-1.58753 -0.18255,-0.60332 -0.13986,-0.7276 0.2499,-0.7276 0.25852,0 0.81576,0.16477 1.2383,0.36615 1.34423,0.64066 2.15135,0.7265 2.6012,0.27665 0.62148,-0.62149 0.50696,-1.37786 -0.37774,-2.49488 -1.29119,-1.63027 -1.05778,-1.9029 1.67274,-1.95387 l 1.63455,-0.0305 0.0265,-0.85989 c 0.0156,-0.50865 -0.10366,-0.8599 -0.29209,-0.8599 -0.46338,0 -1.71874,-1.23114 -1.71874,-1.68558 0,-0.44016 1.51754,-1.46423 2.11785,-1.42917 1.65368,0.0966 1.84035,-0.7984 0.32955,-1.58001 -1.73272,-0.89643 -1.35119,-1.90195 0.7276,-1.91757 0.93208,-0.007 2.71948,-1.15412 2.8195,-1.80951 0.10805,-0.70803 -0.8232,-1.36774 -1.93069,-1.36774 -1.16286,0 -1.68256,-0.23918 -1.68256,-0.77435 0,-0.44038 1.11531,-1.6069 1.53636,-1.6069 0.2403,0 0.84489,-1.55335 0.84489,-2.17074 0,-0.54806 -0.76438,-0.72238 -2.09816,-0.47848 -1.07014,0.19569 -1.77073,-0.11307 -0.96132,-0.42367 0.22751,-0.0873 0.41365,-0.2898 0.41365,-0.45 0,-0.16019 0.40868,-0.713 0.90818,-1.22846 0.49951,-0.51546 0.98866,-1.26462 1.08702,-1.6648 0.15893,-0.64662 0.1056,-0.7276 -0.4791,-0.7276 -0.44311,0 -1.2667,0.56362 -2.52237,1.72618 -1.9993,1.85104 -1.91419,1.85424 -2.30537,-0.0865 -0.0969,-0.48065 -0.28115,-0.83784 -0.40949,-0.79375 -0.40779,0.14009 -4.70693,4.03866 -4.72664,4.28624 -0.0288,0.36169 -1.81707,2.48542 -3.59453,4.26882 -3.04622,3.0564 -5.596,3.974 -10.44729,3.75969 -3.28493,-0.14511 -5.65682,-0.61301 -5.37979,-1.06126 0.0965,-0.15613 0.0422,-0.19595 -0.12573,-0.0922 -0.34157,0.2111 -2.43198,-1.02906 -2.43198,-1.44279 0,-0.15229 -0.10953,-0.20919 -0.24339,-0.12646 -0.30826,0.19052 -1.34545,-1.10688 -1.34005,-1.67623 0.0101,-1.06888 0.39557,-1.12867 1.96246,-0.30444 2.31619,1.21839 2.5368,1.09468 2.01984,-1.13257 -0.31125,-1.34101 0.0768,-1.46791 1.86785,-0.61076 2.13608,1.02229 2.73593,0.0856 0.93537,-1.46069 -0.6605,-0.5672 -0.75492,-0.77224 -0.49813,-1.08166 0.50965,-0.61409 2.25949,-1.00948 4.28346,-0.96788 1.03472,0.0213 1.96593,-0.0474 2.06935,-0.15252 0.10342,-0.10516 -0.39495,-0.6982 -1.10748,-1.31787 l -1.29552,-1.12666 0.54097,-0.54097 c 0.29754,-0.29754 0.8942,-0.61856 1.32591,-0.71338 0.80473,-0.17675 1.91478,-1.03039 1.91478,-1.47249 0,-0.13612 -0.35607,-0.43161 -0.79126,-0.65666 -0.93274,-0.48234 -1.66318,-1.49437 -1.45399,-2.01453 0.0814,-0.2024 0.98815,-0.90256 2.015,-1.5559 2.74314,-1.74535 2.85117,-2.27888 0.56098,-2.77058 -0.47294,-0.10154 -0.8599,-0.27086 -0.8599,-0.37627 0,-0.10542 0.41143,-0.59043 0.91428,-1.07781 1.00042,-0.96965 1.60457,-2.27639 1.17515,-2.54178 -0.14311,-0.0884 -0.65063,0.13696 -1.1278,0.50092 -0.47718,0.36396 -1.09711,0.70159 -1.37763,0.75029 -0.4725,0.082 -0.50348,-0.0575 -0.42087,-1.89584 0.084,-1.870236 0.14037,-2.030016 0.9794,-2.778116 0.48962,-0.43656 0.92574,-1.03188 0.96916,-1.32292 0.0877,-0.58753 -0.33798,-0.63604 -2.36246,-0.26923 l -1.11849,0.20266 0.5874,-1.61283 c 0.52686,-1.44661 0.54574,-1.65449 0.1832,-2.01703 -0.36254,-0.36254 -0.55069,-0.30982 -1.82559,0.51156 -0.78177,0.50366 -1.50693,0.8629 -1.61146,0.79829 -0.10453,-0.0646 -0.13859,-1.1614 -0.0757,-2.43732 0.0629,-1.27591 5.2e-4,-2.48602 -0.13854,-2.68913 -0.55699,-0.81331 -1.59612,0.43122 -2.01263,2.41046 -0.18498,0.87902 -0.65882,0.75438 -1.30762,-0.34394 -0.25982,-0.43984 -0.6107,-0.75397 -0.77975,-0.69807 -0.1734,0.0573 -0.52822,1.56255 -0.81416,3.45384 -0.27875,1.84371 -0.60088,3.3522 -0.71585,3.3522 -0.11498,0 -0.64767,-0.29765 -1.18376,-0.66146 -1.78477,-1.21117 -2.35841,-0.64421 -1.46036,1.44337 0.32182,0.74809 0.55949,1.86306 0.55949,2.624726 0,1.21375 -0.0496,1.31939 -0.59531,1.267 -0.32742,-0.0314 -0.8734,-0.21254 -1.21329,-0.40246 -0.86203,-0.48168 -0.97305,-0.2337 -0.46444,1.03744 0.71956,1.79837 1.48042,2.27962 2.16931,1.37211 0.32091,-0.42275 0.35222,-0.40284 0.3599,0.2289 0.009,0.77973 -0.8992,2.0862 -1.451,2.0862 -0.19946,0 -0.52792,0.23594 -0.72989,0.5243 -0.87515,1.24945 -4.14724,1.9794 -5.59951,1.24916 -0.93348,-0.46937 -3.05357,-2.62629 -2.88011,-2.93013 0.0937,-0.16419 0.0711,-0.20835 -0.0504,-0.0981 -0.12142,0.11022 -1.18236,-0.72321 -2.35763,-1.85208 -8.54871,-8.211196 -17.75665,-13.475836 -28.357775,-16.213555 -3.41445,-0.881774 -9.37706,-1.956157 -13.28877,-2.39446 -3.8179,-0.427792 -15.97134,-0.178025 -19.62447,0.403304 -14.63062,2.328198 -25.36115,7.477375 -35.71875,17.140071 -2.88462,2.69109 -6.77812,6.99064 -7.85068,8.66944 -0.51135,0.80037 -1.06749,1.57675 -1.23587,1.72531 -0.16839,0.14855 -0.63005,0.86293 -1.02592,1.5875 -0.39588,0.72457 -0.85121,1.28468 -1.01186,1.2447 -0.16064,-0.04 -0.21578,0.0508 -0.12253,0.20163 0.1685,0.27264 -1.32349,3.15717 -1.79948,3.479 -0.13694,0.0926 -0.28955,0.44978 -0.33914,0.79375 -0.0496,0.34397 -0.7018,2.23275 -1.44938,4.19728 -4.0791297,10.71947 -5.5033397,23.17866 -4.0981297,35.85104 0.30894,2.78606 1.3755097,6.69549 2.5985997,9.525 0.768,1.77669 2.88904,5.25911 3.39279,5.57045 0.13288,0.0821 0.2416,0.38042 0.2416,0.66287 0,0.28245 0.10889,0.48379 0.24197,0.4474 0.42278,-0.11557 2.65198,2.55803 2.3128,2.77387 -0.27428,0.17453 0.0671,0.30824 0.63835,0.25004 0.0827,-0.008 1.1388,0.80465 2.34684,1.80684 4.50505,3.73739 9.01971,6.36012 14.70067,8.54015 4.28701,1.64512 5.90387,2.15498 8.86354,2.79503 1.38245,0.29896 3.34698,0.73578 4.36562,0.97071 3.72092,0.85814 10.60358,1.65099 17.50663,2.01667 10.62111,0.56264 23.68733,-0.50781 33.23614,-2.72287 2.333465,-0.5413 2.604495,-0.66672 2.749835,-1.27249 1.1181,-4.66028 8.37714,-10.04166 15.8328,-11.73741 2.69777,-0.6136 5.84199,-0.81151 7.6166,-0.47942 3.34678,0.62629 4.26912,1.05405 3.17665,1.47327 -0.24584,0.0943 -2.0399,0.2916 -3.9868,0.43837 -1.96286,0.14796 -4.68101,0.55267 -6.10146,0.90845 -4.05723,1.0162 -9.05615,3.682 -12.10205,6.4537 -0.47176,0.42929 -0.93909,0.69917 -1.03852,0.59974 -0.0994,-0.0994 -0.15009,-0.0617 -0.11257,0.0838 0.0375,0.14552 -0.091,0.59251 -0.28551,0.99331 -0.5019,1.03396 -0.20632,1.14482 1.23987,0.46503 2.22546,-1.04609 5.9153,-1.76409 6.1348,-1.19375 0.056,0.14552 -0.59883,0.60236 -1.4552,1.0152 -2.37177,1.14339 -4.15077,2.40612 -5.49276,3.89873 -1.0109,1.12437 -1.17026,1.43834 -0.9443,1.86055 0.30102,0.56245 0.26419,0.56514 3.68939,-0.26958 4.43064,-1.07975 5.10454,-0.61322 3.70018,2.56156 -0.28885,0.653 -0.52518,1.29119 -0.52518,1.41821 0,0.3905 0.66164,0.26026 2.25289,-0.44347 z M 52.389045,164.57481 c -0.77789,-0.15745 -1.45521,-0.84913 -1.45521,-1.48608 0,-1.10591 2.66371,-4.44077 5.03257,-6.30059 1.29655,-1.01793 4.18129,-2.47529 5.99661,-3.02946 2.12576,-0.64894 7.98631,-0.65241 10.37006,-0.006 4.59288,1.2452 10.16608,4.92423 12.29563,8.11669 0.57457,0.86135 0.55401,1.93547 -0.0475,2.4798 -0.88856,0.80414 -1.58313,0.52916 -3.4387,-1.36141 -1.76864,-1.802 -4.04685,-3.75695 -4.37818,-3.75695 -0.097,0 -0.62056,-0.27907 -1.16337,-0.62016 -0.54281,-0.34108 -1.82037,-0.90663 -2.83902,-1.25677 -1.6003,-0.55007 -2.33765,-0.63636 -5.42396,-0.63477 -4.02366,0.002 -4.99532,0.21739 -7.28132,1.61359 -0.87022,0.53149 -1.72443,0.97084 -1.89825,0.97633 -0.17381,0.005 -0.29474,0.0794 -0.26872,0.16431 0.026,0.0849 -0.62546,0.78725 -1.44773,1.56081 -0.82226,0.77355 -1.76489,1.80029 -2.09471,2.28164 -0.72631,1.05998 -1.25685,1.40112 -1.95822,1.25916 z m 48.350905,-10.78052 c -2.418695,-0.65126 -4.204645,-2.11435 -5.286735,-4.33101 -0.59445,-1.21772 -0.71947,-1.8262 -0.71128,-3.46178 0.0169,-3.37441 1.53175,-5.76905 4.42831,-7.00011 2.884115,-1.22576 5.733815,-1.28487 8.251555,-0.17115 1.23013,0.54414 2.51412,1.64343 2.51412,2.15247 0,0.18947 0.0753,0.26915 0.16741,0.17707 0.28251,-0.28251 1.16963,1.06378 1.70536,2.58804 0.64033,1.82185 0.64395,3.21441 0.0127,4.8758 -0.5951,1.56619 -2.53275,3.94563 -3.38779,4.16023 -0.33787,0.0848 -0.61431,0.24225 -0.61431,0.34989 0,0.38433 -2.73294,1.06954 -4.19757,1.05243 -0.82004,-0.01 -2.11681,-0.18592 -2.88173,-0.39188 z m -0.31679,-6.10518 c 0.31764,-0.83548 -0.0613,-1.42302 -0.917765,-1.42302 -0.67945,0 -1.21115,0.46461 -1.21115,1.05833 0,1.17982 1.707775,1.47237 2.128915,0.36469 z m 1.99814,-2.77037 c 0.74913,-0.70377 0.85902,-2.18447 0.22889,-3.08411 -0.41834,-0.59727 -2.31457,-1.27301 -2.774545,-0.98873 -0.14216,0.0879 -0.25848,0.0297 -0.25848,-0.12927 0,-0.15896 -0.41672,0.1277 -0.92604,0.63702 -1.95274,1.95274 -0.68436,4.56058 2.076525,4.26943 0.57279,-0.0604 1.29618,-0.36852 1.65365,-0.70434 z m -66.199275,8.11586 c -2.42065,-0.75763 -4.80648,-3.00628 -5.54327,-5.22452 -0.53574,-1.61299 -0.39973,-4.44185 0.28271,-5.87999 0.65499,-1.38029 2.4644,-3.07886 4.0942,-3.84341 1.26488,-0.59337 1.80943,-0.68397 4.10421,-0.68288 2.22382,0.001 2.85202,0.0997 3.93849,0.61827 1.26477,0.60371 2.80839,2.00574 2.80839,2.55079 0,0.15085 0.23437,0.42064 0.52084,0.59954 0.80722,0.50412 1.33768,1.77447 1.50956,3.6151 0.18888,2.0226 -0.28962,3.65474 -1.56317,5.33193 -0.74077,0.97556 -1.93656,1.86303 -2.29553,1.70366 -0.0597,-0.0265 -0.21251,0.13767 -0.33962,0.3648 -0.58628,1.04764 -5.2106,1.56853 -7.51681,0.84671 z m 4.41341,-8.86483 c 2.08079,-2.08079 -0.3039,-5.05482 -3.37353,-4.20725 -1.00167,0.27657 -1.93849,1.35223 -1.93849,2.22576 0,1.6663 1.2707,2.73687 3.2615,2.74785 1.06391,0.006 1.40624,-0.12208 2.05052,-0.76636 z m -23.56827,53.19247 c 0,-1.46778 -0.62874,-3.77989 -1.34814,-4.95759 -1.02438,-1.67698 -0.49899,-2.31192 0.95613,-1.15553 0.54667,0.43443 0.92373,0.78988 0.8379,0.78988 -0.0858,0 0.13712,0.31632 0.49542,0.70293 0.3583,0.38661 0.59425,0.76012 0.52435,0.83003 -0.0699,0.0699 0.0967,0.44143 0.37028,0.82562 0.38222,0.53677 0.96568,0.81513 2.51962,1.20209 1.11223,0.27697 2.08254,0.60115 2.15624,0.72041 0.0737,0.11926 0.36512,0.21684 0.64757,0.21684 0.28245,0 0.51363,0.0893 0.51374,0.19843 10e-5,0.10914 0.2911,0.2152 0.64667,0.23568 1.31834,0.0759 0.84807,-2.10509 -1.12022,-5.19543 -0.50935,-0.79971 -1.07083,-1.57362 -1.24773,-1.71979 -0.1769,-0.14617 -0.39407,-0.47413 -0.48259,-0.72879 -0.24133,-0.69421 0.55643,-0.57852 1.8577,0.2694 0.61008,0.39753 1.60923,1.02044 2.22034,1.38425 0.61112,0.3638 1.24306,0.78191 1.40432,0.92912 0.46619,0.4256 1.68033,0.90284 1.8543,0.72887 0.0873,-0.0873 0.15869,-0.49967 0.15869,-0.91642 0,-0.5346 -0.27246,-0.99696 -0.92519,-1.57006 -0.50885,-0.44678 -0.85409,-0.92735 -0.76719,-1.06795 0.0869,-0.14059 -0.003,-0.21985 -0.1993,-0.17613 -0.1965,0.0437 -0.91452,-0.3055 -1.59558,-0.77605 -0.68106,-0.47055 -1.3727,-0.85555 -1.53697,-0.85555 -0.16427,0 -0.21302,-0.14883 -0.10834,-0.33073 0.10468,-0.1819 0.0966,-0.24618 -0.0179,-0.14284 -0.11454,0.10333 -0.55629,0.008 -0.98165,-0.21206 -1.04812,-0.542 -4.71576,-3.34536 -4.71576,-3.60448 0,-0.11429 -0.14883,-0.208 -0.33073,-0.20824 -0.38506,-5.3e-4 -3.9026,-3.48164 -3.9026,-3.86222 0,-0.14112 -0.35719,-0.46758 -0.79375,-0.72547 -0.43657,-0.25788 -0.79375,-0.63886 -0.79375,-0.84662 0,-0.20776 -0.33806,-0.75609 -0.75123,-1.21851 l -0.75123,-0.84077 -1.82846,0.45859 c -2.8453197,0.71362 -4.9268997,1.83853 -6.7942197,3.67165 -1.8217,1.78835 -2.55994004,2.98344 -3.21079004,5.19774 -0.71464,2.43132 -0.56849,4.1777 0.528,6.30928 0.52273004,1.01618 1.23304004,1.99885 1.57847004,2.18372 0.34544,0.18487 0.56557,0.43725 0.48919,0.56084 -0.0764,0.12358 0.0917,0.2247 0.37359,0.2247 0.28186,0 0.9735,0.19865 1.53697,0.44144 0.59646,0.25701 2.18521,0.51767 3.80262,0.62388 2.1052797,0.13826 3.0793497,0.33094 4.0218497,0.79557 0.68405,0.33722 1.18388,0.70995 1.11074,0.8283 -0.0731,0.11834 0.022,0.1603 0.21148,0.0932 0.40969,-0.145 1.79794,1.01282 1.80373,1.50435 0.003,0.24583 0.0769,0.23064 0.26054,-0.0535 0.2206,-0.34137 0.35919,-0.21973 0.31422,0.2758 -0.007,0.0789 0.21686,0.16083 0.49784,0.18199 0.43854,0.033 0.51085,-0.13965 0.51085,-1.21997 z M 184.15154,188.744 c 5.66383,-0.89532 9.56924,-2.5988 14.23789,-6.21036 1.62889,-1.26007 3.80523,-4.2612 4.61909,-6.36964 0.92842,-2.40522 1.13469,-3.43606 1.29946,-6.49401 0.24668,-4.57799 -0.67434,-8.62366 -2.98216,-13.09944 -0.64185,-1.24478 -1.16699,-2.35461 -1.16699,-2.46629 0,-0.71423 -0.94543,-1.02352 -3.51585,-1.15017 -2.29185,-0.11292 -3.10336,-0.0329 -5.34769,0.52718 -3.83315,0.95661 -12.33106,4.22216 -11.95803,4.59519 0.0629,0.0629 1.46692,0.47669 3.12013,0.91963 3.26154,0.87385 4.36633,1.38835 4.5584,2.12284 0.31812,1.21649 -1.20524,1.17068 -5.51008,-0.16569 -4.55665,-1.41455 -4.65014,-1.41462 -7.27604,-0.006 -1.23693,0.66363 -2.90381,1.5311 -3.70417,1.92771 -0.80036,0.39661 -1.51474,0.79258 -1.5875,0.87994 -0.0728,0.0873 -0.40018,0.2999 -0.7276,0.47233 -0.32743,0.17242 -0.59532,0.42628 -0.59532,0.56413 0,0.13785 0.51603,0.78919 1.14673,1.44742 0.63071,0.65824 1.29944,1.52353 1.48608,1.92288 0.18664,0.39934 0.44452,0.93282 0.57306,1.18551 0.33221,0.65305 0.28927,1.89273 -0.0783,2.2603 -0.41362,0.41361 -1.84203,-1.12385 -1.6088,-1.73163 0.0907,-0.23644 0.0473,-0.34463 -0.10144,-0.2527 -0.14305,0.0884 -0.88399,-0.47534 -1.64652,-1.25278 -0.76254,-0.77744 -1.29081,-1.46557 -1.17393,-1.52919 0.11687,-0.0636 0.0724,-0.0827 -0.0989,-0.0425 -0.17126,0.0403 -0.45868,-0.10428 -0.6387,-0.3212 -0.30736,-0.37034 -1.53673,-0.42512 -1.82804,-0.0815 -0.0728,0.0858 -2.06705,1.14615 -4.43177,2.35626 -3.99819,2.04601 -4.73964,2.61028 -4.01686,3.05698 0.15545,0.0961 0.21634,0.34741 0.13533,0.55852 -0.0904,0.23561 -0.0349,0.31437 0.14383,0.20393 0.16013,-0.099 0.37904,-0.0377 0.48648,0.13614 0.10744,0.17384 0.38607,0.34406 0.61918,0.37828 0.68956,0.1012 1.48738,0.97027 1.31149,1.42861 -0.1122,0.29239 -0.0439,0.37325 0.22737,0.26916 0.5683,-0.21808 1.39159,0.47311 1.18982,0.99891 -0.15549,0.4052 -0.22119,0.40352 -0.87103,-0.0223 -1.5574,-1.02045 -5.37585,-2.81086 -5.81458,-2.72636 -0.25741,0.0496 -0.82985,0.67564 -1.27208,1.39126 -0.73376,1.18739 -0.80358,1.49951 -0.79865,3.57024 0.006,2.70249 0.54005,3.90024 2.64043,5.92672 2.86576,2.76493 7.59936,4.36239 15.74271,5.31273 2.13046,0.24863 12.68967,-0.0924 15.21354,-0.49139 z m -34.54674,-3.30248 c 0.20804,-0.13165 0.40746,-0.43839 0.44317,-0.68165 0.0357,-0.24325 -0.006,-0.37093 -0.0936,-0.28374 -0.1663,0.1663 -1.6178,-2.32633 -1.75694,-3.01716 -0.0443,-0.2201 -0.22972,-0.75737 -0.41199,-1.19393 -0.71993,-1.72439 0.27673,-6.73354 1.42764,-7.17518 0.2257,-0.0866 0.41037,-0.26882 0.41037,-0.40492 0,-0.36301 0.75994,-1.23495 2.24896,-2.58038 0.98762,-0.89238 2.90179,-2.04718 5.95312,-3.59144 5.23817,-2.65101 9.06227,-4.6611 10.89408,-5.72634 0.97127,-0.56482 2.01307,-1.02695 2.3151,-1.02695 0.30203,0 0.54915,-0.11737 0.54915,-0.26083 0,-0.14347 1.34307,-0.91393 2.9846,-1.71213 1.64152,-0.79821 3.25005,-1.69861 3.5745,-2.00088 0.32446,-0.30227 0.9618,-1.28628 1.41632,-2.18669 1.91056,-3.78479 5.08152,-8.22461 7.41057,-10.37592 1.42827,-1.31927 3.29655,-2.84063 3.66968,-2.98825 0.21957,-0.0869 -0.25416,-2.22813 -0.53887,-2.43571 -0.0998,-0.0728 -0.51128,-0.65872 -0.91441,-1.30213 -0.40313,-0.64342 -0.95671,-1.41001 -1.23018,-1.70354 -0.27346,-0.29353 -0.49721,-0.62296 -0.49721,-0.73206 0,-0.1091 -0.35159,-0.58331 -0.78133,-1.05381 -0.42973,-0.47049 -0.70899,-0.97249 -0.62057,-1.11554 0.0884,-0.14305 0.043,-0.18734 -0.10085,-0.0984 -0.29985,0.18531 -4.0535,-3.54274 -4.0535,-4.02585 0,-0.17525 -0.11191,-0.24947 -0.24868,-0.16494 -0.13678,0.0845 -0.58326,-0.2714 -0.99219,-0.79097 -0.40893,-0.51957 -1.14723,-1.13901 -1.64068,-1.37654 -0.49345,-0.23753 -0.95382,-0.64847 -1.02304,-0.9132 -0.0692,-0.26473 -0.29409,-0.48133 -0.49967,-0.48133 -0.20559,0 -0.96652,-0.46852 -1.69095,-1.04114 -1.54564,-1.22177 -2.30572,-1.51945 -2.72882,-1.06874 -0.1914,0.20389 -0.20604,0.3611 -0.0395,0.42421 1.54972,0.58729 2.51354,1.76089 2.51354,3.06062 0,0.5318 -1.62707,2.33878 -2.86071,3.17701 l -0.61176,0.41568 0.54157,1.01045 c 0.46748,0.87221 0.49296,1.08441 0.18626,1.55107 -0.19543,0.29735 -0.69963,0.71922 -1.12044,0.9375 -0.99629,0.51678 -1.22918,0.86741 -0.75312,1.13383 0.23185,0.12975 0.38487,0.61659 0.38487,1.22449 0,1.16824 -0.97677,2.34818 -2.13574,2.57997 -0.65081,0.13017 -0.70311,0.23753 -0.66821,1.37178 0.0208,0.67681 -0.0542,1.34962 -0.16668,1.49514 -0.11251,0.14552 -0.42751,0.55654 -0.7,0.91338 -0.2725,0.35685 -0.89754,0.78709 -1.38897,0.9561 -0.84487,0.29057 -0.88952,0.36815 -0.81999,1.42469 0.051,0.77435 -0.0978,1.39464 -0.4846,2.02047 -0.30698,0.49668 -0.4847,0.90307 -0.39496,0.90307 0.0897,0 0.0249,0.25846 -0.14421,0.57436 -0.24415,0.45621 -0.22996,0.63311 0.069,0.8599 1.45923,1.10703 1.44467,2.67183 -0.0364,3.91528 l -0.98648,0.8282 0.77851,1.15353 c 0.63044,0.93414 0.7173,1.2273 0.45667,1.54134 -0.23275,0.28045 -0.23795,0.38781 -0.0188,0.38781 0.19637,0 0.15666,0.22346 -0.1128,0.6347 -0.46984,0.71707 -1.77827,1.35047 -2.34246,1.13397 -0.27305,-0.10478 -0.41988,0.15962 -0.54241,0.97667 -0.0924,0.61618 -0.39218,1.31228 -0.66618,1.54688 -0.51888,0.44428 -2.49841,0.71991 -2.82497,0.39335 -0.34135,-0.34134 -0.62864,-0.19516 -0.62864,0.31987 0,0.74853 -0.28609,1.36249 -0.55689,1.19513 -0.13028,-0.0805 -0.23686,-0.0432 -0.23686,0.0829 0,0.12611 -0.46974,0.43653 -1.04387,0.68983 -1.01359,0.4472 -1.07579,0.44426 -2.14477,-0.10109 l -1.10091,-0.56164 -0.58426,0.54888 c -0.65055,0.61117 -2.41908,0.76293 -2.59905,0.22303 -0.0645,-0.19348 -0.45629,0.0701 -0.96438,0.6488 -0.47067,0.53606 -1.07404,1.04394 -1.3408,1.1286 -0.72608,0.23045 -2.42233,-0.55898 -3.30627,-1.53872 l -0.78118,-0.86585 -0.54174,1.06264 c -0.60729,1.19125 -1.88077,1.73631 -2.93471,1.2561 -0.53674,-0.24455 -0.60561,-0.154 -1.02194,1.34345 -0.24553,0.88311 -0.97951,2.6163 -1.63106,3.85152 -0.65155,1.23522 -1.15197,2.27746 -1.11204,2.31609 0.0399,0.0386 0.90928,0.48947 1.93188,1.00186 1.02261,0.5124 2.19169,1.2397 2.59798,1.61623 0.40628,0.37653 0.8494,0.61617 0.98472,0.53254 0.33141,-0.20482 4.54334,4.06006 4.33791,4.39245 -0.0891,0.1441 -0.0159,0.22929 0.16264,0.18931 0.34529,-0.0773 2.34047,3.34959 2.3531,4.04174 0.0112,0.61623 0.63203,1.83483 0.93354,1.83257 0.14552,-0.001 0.4348,-0.10971 0.64284,-0.24137 z M 5.4816353,160.15706 c 0.83829,-1.18929 0.83891,-1.19272 0.75459,-4.16718 -0.0464,-1.63731 -0.099,-4.64174 -0.11682,-6.67651 l -0.0324,-3.69959 -1.34464,-0.19445 c -0.73955,-0.10694 -2.04924,-0.54434 -2.91042,-0.97201 -1.63386004,-0.81138 -5.32337,-3.87563 -5.19724,-4.31647 0.04,-0.13975 -0.03,-0.19065 -0.15544,-0.1131 -0.12548,0.0776 -0.68838,-0.33032 -1.25088,-0.90637 -0.5625,-0.57606 -1.1749,-1.04738 -1.36087,-1.04738 -0.35288,0 -0.59669,0.67831 -0.69129,1.92324 -0.0306,0.40294 -0.17432,0.71846 -0.31932,0.70115 -0.14501,-0.0173 -0.23094,-0.14748 -0.19095,-0.28926 0.04,-0.14179 -0.0504,-0.1817 -0.20091,-0.0887 -0.15048,0.093 -0.48085,-0.22057 -0.73416,-0.69683 -0.56369,-1.05986 -1.7628803,-2.34335 -2.1894403,-2.34335 -0.44122,0 -0.1233,1.5154 0.6798403,3.24048 0.35585,0.76435 0.64817,1.53856 0.64959,1.72046 0.004,0.47213 -0.65879,0.40902 -1.7959103,-0.1711 -0.54101,-0.276 -1.33994,-0.54389 -1.7754,-0.59531 -0.73394,-0.0867 -0.78745,-0.0357 -0.73313,0.6983 0.0535,0.72236 0.46274,1.23898 1.23569,1.55978 0.19547,0.0811 0.17011,0.2077 -0.0761,0.37971 -0.6031,0.42139 -0.14165,1.02489 0.9386,1.22755 1.18257,0.22185 1.9442203,0.5895 1.9442203,0.93848 0,0.13666 -0.36459,0.43702 -0.8102003,0.66745 -1.16248,0.60114 -0.90113,1.17739 0.7954203,1.75378 1.78224,0.60549 2.08968,1.01829 1.12852,1.51523 -1.67764,0.86738 -2.5714803,2.43037 -1.9499503,3.40972 0.16432,0.25891 0.4315503,0.18962 1.1505903,-0.29833 1.11889,-0.7593 2.74437,-1.33261 3.12003,-1.10044 0.14837,0.0917 0.26976,0.3898 0.26976,0.66244 0,0.27958 0.25585,0.57693 0.58679,0.68196 0.57927,0.18386 0.57658,0.1951 -0.20957,0.87773 -1.30306,1.13148 -1.80516,2.10262 -1.46878,2.84089 0.36681,0.80507 0.62136,0.79081 1.96993,-0.11035 2.10408,-1.40603 3.28671,-1.70057 3.89330996,-0.96966 0.28137,0.33904 0.23471,0.54841 -0.27627996,1.23956 -0.42164,0.5703 -0.61485,1.19315 -0.61485,1.98213 0,2.01487 0.64201,2.06257 2.65690996,0.19738 1.71811004,-1.59043 2.72295004,-1.55189 2.72295004,0.10444 0,0.93185 0.36342,1.6248 0.85212,1.6248 0.11942,0 0.59466,-0.53562 1.0561,-1.19027 z M 182.26539,154.06871 c 1.19473,-0.62308 5.41853,-2.15626 7.31011,-2.65346 0.94588,-0.24862 2.95896,-0.52663 4.47349,-0.61779 2.34589,-0.1412 2.76365,-0.23432 2.82086,-0.62877 0.0369,-0.25466 -0.0532,-0.46302 -0.20026,-0.46302 -1.00217,0 -4.32514,-4.92632 -4.86332,-7.2099 -0.0943,-0.40018 -0.24786,-0.72592 -0.34123,-0.72386 -0.42134,0.009 -3.37655,2.88791 -5.21841,5.08318 -2.71953,3.24132 -5.55169,7.61694 -4.92659,7.61145 0.10212,-8e-4 0.52753,-0.17992 0.94535,-0.39783 z M 9.9234153,126.12427 c 0,-0.71721 1.8352497,-5.53193 2.9164997,-7.65135 0.2877,-0.56393 0.52309,-1.33476 0.52309,-1.71295 0,-0.38676 0.11469,-0.61673 0.26214,-0.5256 0.14417,0.0891 0.46388,-0.26106 0.71046,-0.77814 0.24658,-0.51708 0.54533,-0.94014 0.6639,-0.94014 0.11857,0 0.21558,-0.16254 0.21558,-0.3612 0,-0.19865 0.24346,-0.6707 0.54103,-1.049 0.29757,-0.37829 0.51104,-0.72177 0.47439,-0.76328 -0.0367,-0.0415 0.43426,-0.81309 1.04647,-1.71461 0.61221,-0.90152 1.11311,-1.82799 1.11311,-2.05883 0,-0.43113 -0.13759,-0.50868 -1.38906,-0.7829 -0.91667,-0.20086 -0.93525,-0.77926 -0.0661,-2.05827 0.3638,-0.53538 0.66146,-1.15414 0.66146,-1.37502 0,-0.49999 -0.80585,-0.94939 -1.7024,-0.94939 -1.09034,0 -0.85833,-1.00321 0.87462,-3.781896 1.74602,-2.79964 1.7887,-3.46317 0.1997,-3.1048 -0.49335,0.11127 -1.00166,0.26699 -1.12957,0.34604 -0.12791,0.079 -0.45769,-0.0209 -0.73285,-0.22209 -0.48818,-0.35696 -0.48569,-0.40281 0.10304,-1.89476 0.33182,-0.84093 0.65955,-2.03497 0.72828,-2.65343 0.10724,-0.96497 0.0555,-1.12323 -0.3647,-1.11568 -0.59859,0.0108 -1.36066,0.6357 -2.16711,1.77714 -0.82002,1.16063 -1.24652,1.08195 -1.59296,-0.29387 -0.37223,-1.47824 -1.74602,-4.547495 -2.1461497,-4.794785 -0.51644,-0.31918 -0.59481,0.01019 -0.56175,2.361095 0.0376,2.6775 -0.051,2.72861 -2.09148,1.2062 -1.36021,-1.01484 -2.44438,-1.33375 -2.76587,-0.81357 -0.22846,0.36965 0.41265,1.60581 1.37723,2.65548 0.47317,0.51492 0.80433,1.08505 0.73591,1.26695 -0.0684,0.1819 -0.002,0.33073 0.14748,0.33073 0.14954,0 0.19474,0.12484 0.10043,0.27743 -0.11903,0.1926 -0.2763,0.19042 -0.51431,-0.007 -0.26178,-0.21726 -0.38253,-0.12646 -0.51065,0.38403 -0.0923,0.36772 -0.34413,0.66857 -0.55964,0.66857 -0.21551,0 -0.39183,0.11907 -0.39183,0.26459 0,0.14552 -0.62508,0.26621 -1.38906,0.26819 -1.59036,0.004 -2.57969004,0.21753 -2.57969004,0.55642 0,0.12854 0.2282,0.46192 0.50712004,0.74084 0.27891,0.27891 0.43766,0.57657 0.35277,0.66146 -0.0849,0.0849 0.05,0.15434 0.29977,0.15434 0.9389,0 4.65976,2.265866 4.66066,2.838166 0.001,0.66171 -1.20169,1.10016 -3.24048,1.18129 -2.55420004,0.10163 -2.65408004,0.4512 -0.62438,2.18523 2.11869,1.81005 2.09426,2.79567 -0.0678,2.73419 -1.75831004,-0.05 -1.71519004,1.19334 0.0579,1.6699 0.6034,0.16217 1.78171,0.53497 2.61845,0.82842 l 1.52135,0.53357 v 1.38246 c 0,1.01726 -0.14435,1.5489 -0.54643,2.01251 -0.31233,0.36012 -0.42568,0.67029 -0.26458,0.72399 0.15502,0.0517 0.28185,0.30081 0.28185,0.55364 0,0.4096 -0.24416,0.44687 -2.24088,0.34207 l -2.24088,-0.11762 0.0581,0.80368 c 0.0319,0.44202 0.10257,0.75952 0.15697,0.70555 0.0544,-0.054 0.53065,0.12036 1.05833,0.38741 0.52769,0.26705 1.35443,0.57083 1.8372,0.67507 0.48278,0.10424 0.94821,0.37308 1.0343,0.59742 0.17456,0.45489 -0.18107,1.16627 -0.58915,1.17851 -0.59251,0.0178 -2.24896,1.04611 -2.24896,1.39618 0,0.55532 0.30715,0.66522 2.29634,0.82163 1.68678,0.13263 1.86753,0.21016 2.76632,1.18661 0.52889,0.57458 1.09444,1.0447 1.25677,1.0447 0.46532,0 0.35035,0.45709 -0.40024,1.59132 -0.57682,0.87164 -0.63802,1.11993 -0.35894,1.45621 0.30108,0.36278 0.3881,0.35867 0.82768,-0.0391 0.27018,-0.24451 0.49123,-0.77991 0.49123,-1.18978 z M 152.03087,124.56422 c 1.15264,-0.39075 3.62308,-2.46576 5.50538,-4.62417 0.76143,-0.87313 1.79285,-2.05654 2.29205,-2.62981 0.49919,-0.57326 0.90762,-1.11869 0.90762,-1.21206 0,-0.28515 -1.07402,-0.70903 -3.70417,-1.46191 -3.06102,-0.87623 -4.23333,-1.0675 -4.23333,-0.69071 0,0.15462 -0.41672,0.47886 -0.92604,0.72055 -1.10309,0.52345 -1.12653,0.66472 -0.26459,1.59477 0.83469,0.90065 0.88169,2.20715 0.10471,2.91055 -0.45501,0.41192 -0.96514,0.50403 -2.79133,0.50403 -2.1138,0 -2.22555,0.0286 -2.06772,0.52917 0.61022,1.93526 0.44317,2.84729 -0.6001,3.27632 -0.49347,0.20292 -1.01037,0.2198 -1.59087,0.052 -0.72811,-0.21053 -0.85927,-0.1805 -0.85584,0.19592 0.005,0.56192 0.28164,0.97988 0.78969,1.19364 0.64289,0.27047 6.39795,-0.007 7.43454,-0.35825 z"
       id="path483" /></g></svg>
