<?xml version="1.0" encoding="UTF-8" standalone="no"?>
<!-- Created with Inkscape (http://www.inkscape.org/) -->

<svg
   width="230.81438mm"
   height="194.51485mm"
   viewBox="0 0 230.81437 194.51485"
   version="1.1"
   id="svg5"
   xml:space="preserve"
   xmlns="http://www.w3.org/2000/svg"
   xmlns:svg="http://www.w3.org/2000/svg"><defs
     id="defs2" /><g
     id="layer1"
     transform="translate(56.583767,-37.145566)"><path
       style="fill:#000000;stroke-width:0.264583"
       d="m 49.857558,231.03244 c -0.51621,-0.44356 -0.74938,-0.9163 -0.79613,-1.61407 -0.0364,-0.54274 -0.2324,-1.09415 -0.43562,-1.22538 -0.20323,-0.13122 -1.5006,-0.18917 -2.88304,-0.12878 -1.5112,0.066 -2.64543,5.3e-4 -2.84427,-0.16412 -0.1819,-0.15065 -0.33073,-0.19067 -0.33073,-0.0889 0,0.10175 -0.30449,-0.17687 -0.67664,-0.61914 -1.00931,-1.1995 -1.0081,-3.2667 0.003,-4.35721 0.35685,-0.38505 0.57652,-0.70009 0.48815,-0.70009 -0.0884,0 0.0548,-0.23813 0.31823,-0.52917 0.26339,-0.29104 0.64606,-0.52916 0.85037,-0.52916 0.20432,0 0.30293,-0.11092 0.21915,-0.24648 -0.0838,-0.13557 0.0707,-0.40346 0.3433,-0.59532 0.2726,-0.19185 0.5772,-0.60704 0.67689,-0.92262 0.21957,-0.69511 -0.31685,-0.87586 -1.69284,-0.57043 -3.73288,0.82859 -15.08125,-0.6142 -15.08125,-1.91738 0,-0.21876 -0.0979,-0.22921 -0.33147,-0.0354 -0.23332,0.19363 -0.476,0.16943 -0.81947,-0.0817 -0.57475,-0.42027 -1.32157,-0.21888 -1.12152,0.30243 0.0765,0.1995 0.0366,0.36273 -0.0888,0.36273 -0.12539,0 -0.29888,0.18478 -0.38554,0.41062 -0.0867,0.22583 -0.0696,0.35888 0.0378,0.29565 0.82168,-0.48345 2.44436,1.84127 2.44436,3.5019 0,0.66358 -0.95097,1.80968 -1.38906,1.67408 -0.10914,-0.0338 -0.19844,0.0521 -0.19844,0.19082 0,0.15075 -1.11497,0.20878 -2.77108,0.14422 l -2.77108,-0.10801 -0.31889,1.06438 c -0.17539,0.5854 -0.61134,1.29441 -0.96877,1.57557 -1.1933,0.93864 -3.46776,0.4867 -4.82585,-0.95893 -0.77606,-0.82608 -1.66024,-0.82381 -2.31291,0.006 -0.28229,0.35887 -0.58859,0.57715 -0.68067,0.48507 -0.0922,-0.0921 -0.16751,-0.043 -0.16751,0.10917 0,0.40832 -1.4672901,0.94376 -2.0657401,0.75382 -0.67198,-0.21328 -1.78965,-1.19692 -1.70458,-1.50017 0.0364,-0.12968 -0.0529,-0.23579 -0.19843,-0.23579 -0.14553,0 -0.26459,-0.10452 -0.26459,-0.23227 0,-0.12775 -0.18566,-0.67662 -0.41258,-1.21972 -0.35578,-0.8515 -0.45595,-0.92951 -0.7276,-0.56662 -0.19655,0.26255 -0.8946,0.47577 -1.85612,0.56696 -1.25611,0.11911 -1.75763,0.038 -2.71198,-0.43863 -0.71190001,-0.35554 -1.17088001,-0.76517 -1.17088001,-1.04498 0,-0.25313 -0.13843,-0.50637 -0.30762,-0.56276 -0.36995,-0.12332 -0.55058,-0.82651 -0.51319,-1.9978 0.03,-0.93974 1.2272,-3.07795 1.59581001,-2.85014 0.12479,0.0771 0.3026,-0.16148 0.39515,-0.53023 0.0926,-0.36875 0.27474,-0.60465 0.40487,-0.52423 0.2182,0.13486 1.46634,-1.35741 1.46727,-1.75426 2.3e-4,-0.096 0.32555,-0.43023 0.72295,-0.74282 0.39739,-0.31259 0.69952,-0.65079 0.67139,-0.75156 -0.0281,-0.10078 0.103,-0.46156 0.29138,-0.80175 0.18839,-0.34018 0.39799,-0.9355 0.46578,-1.32291 0.31439,-1.79678 1.14497,-4.86998 1.39887,-5.17591 0.15505,-0.18682 0.21377,-0.40782 0.13048,-0.49111 -0.0833,-0.0833 -0.0284,-0.38134 0.12199,-0.66233 0.15038,-0.28099 0.33092,-0.82799 0.4012,-1.21556 0.22071,-1.21716 0.4749,-1.87452 0.9209,-2.38154 0.23745,-0.26994 0.40348,-0.5676 0.36896,-0.66146 -0.092,-0.25007 0.76766,-2.41966 0.95861,-2.41937 0.16097,2.5e-4 0.1211,-1.00668 -0.14182,-3.58225 -0.14234,-1.39433 0.4186801,-4.10006 1.1389101,-5.49283 0.21727,-0.42016 0.32061,-0.83836 0.22963,-0.92933 -0.16271,-0.16271 -1.5820101,-0.36866 -6.6204801,-0.96065 -0.72761,-0.0855 -2.27542,-0.40619 -3.43959001,-0.71267 -1.16416,-0.30647 -2.26548999,-0.5627 -2.44738999,-0.56938 -0.1819,-0.007 -0.33073,-0.0933 -0.33073,-0.19239 0,-0.0991 -0.36544,-0.19061 -0.81209,-0.20331 -0.44665,-0.0127 -0.95754,-0.14379 -1.1353,-0.29132 -0.17776,-0.14753 -0.73111,-0.3401 -1.22966,-0.42794 -0.49855,-0.0878 -1.29518,-0.39994 -1.77029,-0.69357 -0.47512,-0.29364 -0.98508,-0.45896 -1.13325,-0.36738 -0.14818,0.0916 -0.26941,0.0206 -0.26941,-0.15779 0,-0.17836 -0.0752,-0.24911 -0.16708,-0.15722 -0.0919,0.0919 -0.41932,0.0269 -0.7276,-0.1444 -0.30829,-0.17132 -0.64983,-0.28619 -0.75897,-0.25528 -0.10914,0.0309 -0.1984299,-0.0699 -0.1984299,-0.22398 0,-0.15411 -0.1037,-0.21612 -0.23043,-0.13779 -0.12674,0.0783 -0.4993,-0.0908 -0.82791,-0.37577 -0.3286,-0.285 -0.70116,-0.45409 -0.8279,-0.37576 -0.12673,0.0783 -0.23043,0.009 -0.23043,-0.1534 0,-0.1627 -0.11084,-0.22732 -0.2463,-0.14359 -0.13547,0.0837 -0.32229,0.0293 -0.41516,-0.121 -0.0929,-0.15026 -0.272,-0.20946 -0.39807,-0.13155 -0.12607,0.0779 -0.54178,-0.17089 -0.9238,-0.55291 -0.38201,-0.38201 -0.76321,-0.62593 -0.84711,-0.54204 -0.0839,0.0839 -0.51936,-0.10866 -0.9677,-0.42791 -0.44834,-0.31925 -0.98865,-0.60591 -1.20068,-0.63703 -0.21203,-0.0311 -0.48523,-0.23478 -0.60712,-0.45257 -0.12188,-0.21779 -0.87172,-0.76795 -1.66631,-1.22257 -0.79459,-0.45462 -1.65918,-1.08757 -1.9213,-1.40656 -0.26212,-0.31899 -0.65229,-0.6184 -0.86704,-0.66535 -0.21475,-0.047 -0.74764,-0.47193 -1.1842,-0.94438 -0.43656,-0.47245 -1.38906,-1.32297 -2.11667,-1.89003 -0.7276,-0.56707 -1.39166,-1.1279 -1.47568,-1.2463 -0.084,-0.11839 -0.45999,0.0264 -0.83548,0.32176 -0.71848,0.56516 -1.51364,0.69193 -1.9354,0.30856 -0.13825,-0.12567 -0.62854,-0.35419 -1.08955,-0.50784 -0.70733,-0.23575 -0.90853,-0.20164 -1.28876,0.21851 -0.96289,1.06399 -3.46463,1.32539 -4.4941,0.46959 -1.2209,-1.01493 -1.88004,-1.74859 -2.18625,-2.43338 -0.18734,-0.41899 -0.41136,-0.69106 -0.4978,-0.60462 -0.0864,0.0864 -0.39479,0.03 -0.68521,-0.12542 -0.39261,-0.21012 -0.5812,-0.19654 -0.73539,0.0529 -0.3363,0.54415 -3.16492,-0.43832 -3.16492,-1.09927 0,-0.28058 -0.1831,-0.50454 -0.41249,-0.50454 -0.22687,0 -0.3389,-0.11906 -0.24897,-0.26458 0.0899,-0.14553 0.0566,-0.26459 -0.0742,-0.26459 -0.34936,0 -0.90803,-1.31937 -0.99993,-2.36148 -0.0964,-1.09245 0.65349,-2.66496 1.64125,-3.44193 0.81842,-0.64377 0.6206,-1.03495 -0.57917,-1.14531 -0.98214,-0.0903 -2.49877,-0.76682 -2.50985,-1.11951 -0.005,-0.14638 -0.29779,-0.59501 -0.65154,-0.99697 -0.53059,-0.6029 -0.84174,-0.72352 -1.77757,-0.68912 -1.7868,0.0657 -3.74967,-0.20816 -3.85978,-0.53846 -0.0553,-0.16593 -0.45088,-0.48284 -0.879053,-0.70426 -0.428174,-0.22142 -0.708046,-0.51657 -0.62194,-0.65589 0.08611,-0.13932 0.05239,-0.25332 -0.07492,-0.25332 -0.494829,0 -1.44058,-2.13275 -1.261735,-2.84533 0.174858,-0.69669 1.374932,-2.0317 1.836809,-2.04334 0.513161,-0.0129 0.410778,-0.61988 -0.204452,-1.21202 -0.35351,-0.34024 -0.583255,-0.77364 -0.510544,-0.96313 0.07478,-0.19488 -0.05246,-0.34451 -0.292981,-0.34451 -0.375189,0 -0.441991,-0.10569 -0.419821,-0.66423 0.0029,-0.0743 -0.188723,-0.51038 -0.425937,-0.9691 -0.489228,-0.94607 -0.370791,-2.80005 0.202076,-3.16325 0.192935,-0.12232 0.253017,-0.22422 0.133515,-0.22645 -0.185367,-0.003 0.781114,-0.96973 2.02264,-2.0222 0.800073,-0.67824 2.104503,-0.88483 7.038153,-1.11465 l 0.90602,-0.0422 -0.58695,-0.62478 c -0.32282,-0.34362 -0.84959,-0.60804 -1.1706,-0.58759 -0.32101,0.0205 -0.65941,-0.0705 -0.752,-0.20205 -0.0926,-0.13158 -0.47954,-0.23923 -0.8599,-0.23923 -0.38035,0 -0.69155,-0.0897 -0.69155,-0.19941 0,-0.10968 -0.35718,-0.34736 -0.79375,-0.52819 -0.43656,-0.18083 -0.79375,-0.47382 -0.79375,-0.65109 0,-0.17727 -0.29765,-0.45793 -0.66145,-0.62369 -0.36381,-0.16576 -0.66328,-0.51229 -0.66551,-0.77007 -0.003,-0.39938 -0.042,-0.41 -0.26054,-0.0718 -0.22316,0.34532 -0.257,0.34093 -0.26053,-0.0337 -0.002,-0.23684 -0.178836,-0.57568 -0.392464,-0.75298 -0.213629,-0.17729 -0.378124,-0.40023 -0.365543,-0.49542 0.01258,-0.0952 -10e-4,-0.23259 -0.03022,-0.30535 -0.387084,-0.96457 -0.04271,-3.175 0.494645,-3.175 0.09649,0 0.396842,-0.37481 0.667452,-0.8329 0.2706,-0.4581 0.36945,-0.75717 0.21967,-0.66459 -0.5437,0.33602 -1.636203,-3.62809 -1.245844,-4.5205 0.111702,-0.25537 0.184193,-0.5536 0.16109,-0.66274 -0.0231,-0.10914 0.07706,-0.19844 0.222578,-0.19844 0.145521,0 0.264586,-0.11906 0.264586,-0.26458 0,-0.14552 0.23813,-0.50271 0.52917,-0.79375 0.29104,-0.29104 0.52916,-0.45594 0.52916,-0.36644 0,0.0895 0.32493,-0.0502 0.72205,-0.31039 1.18951,-0.77939 6.21486,-0.75892 9.86129,0.0402 0.3638,0.0797 1.07817,0.19782 1.5875,0.26243 1.37315,0.17419 1.69241,0.24064 1.98437,0.41306 0.29917,0.17667 2.28768,0.58124 4.36249,0.88757 0.5076,0.075 1.16245,0.21873 1.45521,0.31952 0.29277,0.1008 0.59183,0.1994 0.66459,0.21912 0.0728,0.0197 0.37042,0.12604 0.66146,0.23625 1.51085,0.57213 3.50279,1.09235 3.86178,1.00854 0.0867,-0.0202 0.69461,0.12482 1.35093,0.32234 1.10047,0.3312 1.22715,0.31961 1.62832,-0.14892 0.23926,-0.27943 0.43501,-0.60331 0.43501,-0.71973 0,-0.11641 0.20836,-0.44402 0.46302,-0.72801 1.21025,-1.34962 1.22062,-1.29919 -0.40283,-1.95866 -0.83347,-0.33856 -2.00612,-1.00965 -2.6059,-1.4913 -0.59978,-0.48165 -1.15751,-0.80873 -1.23939,-0.72684 -0.0819,0.0819 -0.5549,-0.16079 -1.05114,-0.53929 -0.49623,-0.3785 -1.0112,-0.68818 -1.14436,-0.68818 -0.13316,0 -0.39806,-0.24972 -0.58867,-0.55493 -0.19061,-0.30521 -0.40803,-0.49346 -0.48317,-0.41832 -0.17515,0.17515 -2.34565,-2.01857 -2.56641,-2.59386 -0.0918,-0.23935 -0.27308,-0.36961 -0.40274,-0.28948 -0.12966,0.0801 -0.38244,-0.20846 -0.56174,-0.64133 -0.1793,-0.43286 -0.43124,-0.72197 -0.55987,-0.64247 -0.12864,0.0795 -0.23388,-0.10764 -0.23388,-0.41586 0,-0.30822 -0.0962,-0.50097 -0.21368,-0.42833 -0.21704,0.13413 -1.15216,-0.94406 -1.16201,-1.33981 -0.003,-0.11893 -0.22551,-0.52536 -0.49454,-0.90318 -0.63921,-0.89769 -0.93809,-2.33044 -0.82257,-3.94326 0.0488,-0.68142 1.59941,-2.64583 2.08848,-2.64583 0.15122,0 0.42,-0.17479 0.5973,-0.38842 0.1773,-0.21363 0.40023,-0.37363 0.49542,-0.35555 0.0952,0.0181 0.5886,-0.15368 1.09648,-0.38169 0.50788,-0.228 1.0139,-0.35864 1.12448,-0.29029 0.11058,0.0683 0.34989,0.0288 0.53179,-0.0879 0.1819,-0.11668 0.69477,-0.22632 1.13972,-0.24364 0.44494,-0.0173 1.04831,-0.15959 1.34082,-0.31613 0.69983,-0.374541 5.33839,-1.175021 5.65937,-0.976641 0.13732,0.0849 0.49787,0.0215 0.80122,-0.14088 0.32739,-0.17521 0.67909,-0.20047 0.86536,-0.0622 0.37107,0.27554 0.72036,0.27032 1.17371,-0.0175 0.18191,-0.1155 0.4498,-0.13642 0.59532,-0.0465 0.14552,0.0899 0.27343,0.0672 0.28424,-0.0505 0.0108,-0.11773 0.0696,-0.48194 0.13063,-0.80936 0.061,-0.32743 -0.006,-0.59532 -0.1482,-0.59532 -0.32234,0 -1.56752,-1.852472 -1.70538,-2.537126 -0.056,-0.278069 -0.25123,-0.862767 -0.43386,-1.299329 -0.18263,-0.436563 -0.35691,-0.883047 -0.3873,-0.992188 -0.0304,-0.10914 -0.0798,-0.228203 -0.10981,-0.264583 -0.03,-0.03638 -0.0919,-0.363802 -0.13747,-0.727604 -0.0456,-0.363802 -0.1834,-1.018646 -0.30623,-1.455208 -0.35418,-1.258848 -0.11496,-7.927803 0.30897,-8.613746 0.0959,-0.155226 0.23362,-0.661884 0.30596,-1.125908 0.0723,-0.464023 0.22482,-0.962742 0.33885,-1.108262 0.11403,-0.145521 0.29725,-0.56224 0.40714,-0.926042 0.45323,-1.500404 1.9745,-4.468365 2.42442,-4.729988 0.26578,-0.154551 0.37016,-0.284625 0.23195,-0.289049 -0.13822,-0.0044 0.54733,-0.752187 1.52345,-1.661692 2.37684,-2.214658 2.49909,-2.315104 2.81772,-2.315104 0.15166,0 0.27575,-0.12609 0.27575,-0.280199 0,-0.154109 0.11906,-0.206613 0.26458,-0.116676 0.14552,0.08994 0.26459,0.02469 0.26459,-0.144984 0,-0.169677 0.17859,-0.239974 0.39687,-0.15621 0.21828,0.08376 0.39688,0.03697 0.39688,-0.103984 0,-0.140954 0.16401,-0.25628 0.36448,-0.25628 0.20046,0 0.4967,-0.159324 0.65831,-0.354052 0.28786,-0.346851 2.03038,-0.980427 3.0782499,-1.119249 0.29104,-0.03856 0.52916,-0.08919 0.52916,-0.112514 0,-0.03668 0.84162,-0.149264 2.24896,-0.300839 0.53333,-0.05744 4.20587,0.246745 4.99718,0.413901 0.34735,0.07338 0.83296999,0.315701 1.07915999,0.538498 0.24619,0.222798 0.61684,0.408874 0.82366,0.413502 0.46969,0.0105 1.35035001,0.660985 1.29927001,0.959678 -0.0209,0.122394 0.17951,0.341596 0.44541,0.487116 0.26589,0.145521 0.55943,0.369134 0.6523,0.49692 0.37477,0.515651 0.70471,-0.186656 0.88429,-1.882304 0.10425,-0.984287 0.31231,-1.939452 0.46235,-2.122583 0.15005,-0.183134 0.20535,-0.748681 0.1229,-1.256771 -0.0837,-0.515776 -0.0382,-0.9238 0.10307,-0.9238 0.13915,0 0.19037,-0.267891 0.11384,-0.595313 -0.0765,-0.327422 0.0467,-1.964531 0.27394,-3.63802 0.22721,-1.67349 0.44648,-3.518959 0.48727,-4.101042 0.11648,-1.662192 0.47791,-4.20883 0.63549,-4.477641 0.0788,-0.134372 0.16848,-0.55109 0.19936,-0.926042 0.14065,-1.707848 0.67315,-3.076085 1.4205,-3.649882 0.23089,-0.177271 0.31593,-0.326099 0.18897,-0.330729 -0.12696,-0.0046 -0.0837,-0.185698 0.0961,-0.402376 0.17983,-0.216678 0.45093,-0.317344 0.60245,-0.223702 0.16058,0.09925 0.19626,0.04207 0.0855,-0.137073 -0.11026,-0.178409 0.0113,-0.378584 0.28985,-0.477184 0.26388,-0.09342 0.73479,-0.398875 1.04645,-0.678794 0.3116701,-0.279921 0.7524401,-0.536215 0.9795001,-0.569539 0.22705,-0.03332 0.6269,-0.248933 0.88854,-0.479131 0.46443,-0.40861 2.39575,-1.453687 2.79082,-1.510163 0.10914,-0.01561 0.36853,-0.02837 0.57641,-0.02837 0.20789,0 0.53815,-0.148828 0.73391,-0.330729 0.19576,-0.181901 0.47215,-0.359738 0.61421,-0.395193 0.14205,-0.03545 0.95338,-0.308311 1.80294,-0.606351 0.84956,-0.298039 2.04018,-0.609872 2.64583,-0.692959 0.60565,-0.08309 1.29112,-0.251047 1.52327,-0.37324 0.23215,-0.122192 0.7084,-0.283631 1.05833,-0.358748 0.34994,-0.07512 1.1125,-0.251995 1.69458,-0.393055 0.93817,-0.227351 1.89492,-0.370049 4.7625,-0.710319 4.7576,-0.564544 14.47698,-0.556151 18.71957,0.01617 0.54586,0.07364 1.3793,0.185616 1.85208,0.248846 3.13807,0.419685 4.72396,0.718759 5.76038,1.086319 0.65155,0.231063 1.60135,0.470987 2.11068,0.533159 1.30386,0.15916 1.67641,0.244075 2.02374,0.461261 0.16717,0.104534 0.77553,0.249312 1.35191,0.321731 0.57637,0.07242 1.57069,0.362651 2.20959,0.644959 0.6389,0.282307 1.45929,0.556297 1.82309,0.608864 0.3638,0.05257 0.93181,0.244515 1.26224,0.426545 0.33043,0.182034 0.71738,0.258906 0.85989,0.170829 0.14252,-0.08808 0.25912,-0.03405 0.25912,0.120054 0,0.154109 0.29766,0.280199 0.66146,0.280199 0.3638,0 0.66146,0.138907 0.66146,0.308682 0,0.169772 0.0783,0.230338 0.17409,0.134585 0.0958,-0.09575 0.33388,-0.04148 0.52917,0.120592 0.19529,0.162076 0.35507,0.217517 0.35507,0.123201 0,-0.09431 0.35594,0.01259 0.79098,0.237548 0.43503,0.224967 0.82199,0.389149 0.85989,0.364847 0.19306,-0.123775 1.25955,0.367713 1.25955,0.580459 0,0.135713 0.18997,0.246753 0.42217,0.246753 0.2322,0 0.74832,0.23223 1.14693,0.516067 0.39861,0.28384 1.05668,0.57626 1.46236,0.649825 0.40569,0.07356 0.94074,0.317584 1.18901,0.542263 0.24827,0.224682 0.62794,0.408511 0.8437,0.408511 0.21576,0 0.6231,0.214371 0.90521,0.47638 0.47728,0.443291 1.32293,0.902896 1.75894,0.955977 0.21603,0.0263 1.19119,0.683217 1.63066,1.098486 0.16407,0.155038 0.89362,0.624782 1.62122,1.043877 0.72761,0.419094 1.81143,1.155448 2.4085,1.636344 0.59707,0.480894 1.21988,0.874353 1.38402,0.874353 0.16415,0 0.37056,0.287337 0.4587,0.638529 0.0888,0.353796 0.41611,0.702744 0.73401,0.782532 0.31557,0.0792 0.98978,0.55445 1.49825,1.056108 0.50848,0.501658 1.01337,0.857179 1.12199,0.790049 0.10862,-0.06713 0.3272,0.162636 0.48575,0.510592 0.15854,0.347957 0.64603,0.843995 1.08332,1.102307 0.57389,0.339008 0.71482,0.549897 0.50662,0.758103 -0.15865,0.158647 -0.28663,0.413462 -0.2844,0.566259 0.002,0.152797 0.10959,0.111133 0.23857,-0.09258 0.19294,-0.304726 0.36813,-0.265295 0.98814,0.2224 0.41449,0.326039 0.75362,0.692965 0.75362,0.815393 0,0.122426 0.58124,0.779524 1.29165,1.460217 0.97476,0.933979 1.20377,1.291934 0.93346,1.459 -0.28081,0.173545 -0.24711,0.264004 0.15596,0.418679 0.85066,0.32643 1.930752,1.600745 2.948922,3.479229 0.52942,0.976741 1.11191,1.954487 1.29443,2.172768 0.77415,0.925844 1.25733,3.068728 1.28266,5.688542 0.0246,2.540886 -0.45098,5.75043 -0.94694,6.391221 -0.13018,0.168193 -0.29814,0.815573 -0.37324,1.438622 -0.0751,0.623049 -0.36748,1.639763 -0.64974,2.259367 -0.28226,0.619601 -0.51321,1.303925 -0.51321,1.520716 0,0.216792 -0.13735,0.72934 -0.30524,1.138995 -0.3719,0.907494 -0.41854,1.063209 -0.61945,2.067745 -0.0873,0.436562 -0.451652,1.358826 -0.809652,2.049475 -0.358,0.690647 -0.65087,1.31531 -0.65083,1.388134 1.7e-4,0.305345 -2.23691,4.771956 -2.43044,4.852676 -0.11631,0.0485 -0.21147,0.30789 -0.21147,0.57641 0,0.26852 -0.1871,0.67532 -0.41577,0.90399 -0.22868,0.22868 -0.3538,0.41578 -0.27806,0.41578 0.0757,0 -0.19875,0.684611 -0.61,1.521351 -0.41125,0.83675 -0.83048,1.79097 -0.93162,2.12051 -0.10115,0.32954 -0.26462,0.54932 -0.36329,0.48841 -0.0987,-0.0609 -0.19626,0.17081 -0.21689,0.51492 -0.0206,0.34412 -0.27418,1.13637 -0.56343,1.76055 -0.69309,1.49559 -0.95,2.13623 -0.98566,2.4578 -0.0851,0.76741 -0.77689,3.2621 -1.06386,3.83646 -0.52426,1.04927 -0.77704,3.8796 -0.34697,3.88482 0.19338,0.002 1.13484,0.31985 2.09214,0.70556 0.95731,0.3857 1.83102,0.70128 1.94158,0.70128 0.11057,0 0.97274,0.35719 1.91593,0.79375 0.9432,0.43657 1.82566,0.79375 1.96103,0.79375 0.13537,0 0.24612,0.0931 0.24612,0.20682 0,0.11375 0.56555,0.3701 1.25677,0.56967 0.691232,0.19956 1.572812,0.58274 1.959072,0.85151 0.38627,0.26877 0.83275,0.48867 0.99219,0.48867 0.15944,0 0.28989,0.1318 0.28989,0.29289 0,0.16109 0.17859,0.22436 0.39687,0.1406 0.21828,-0.0838 0.39688,-0.0171 0.39688,0.14808 0,0.16521 0.0725,0.22787 0.16112,0.13925 0.0886,-0.0886 0.58394,0.2495 1.1007,0.75138 0.51677,0.50188 1.00015,0.85194 1.07418,0.77791 0.074,-0.074 0.32285,0.0349 0.55294,0.24202 0.23009,0.20714 0.59411,0.41575 0.80892,0.4636 0.50189,0.11177 1.06464,0.63238 1.06464,0.98492 0,0.15085 0.33972,0.66537 0.75495,1.14337 1.04309,1.20082 1.33967,1.83751 1.3425,2.88201 0.003,0.93851 -0.13973,2.56966 -0.23405,2.68345 -0.0302,0.0364 -0.1073,0.38351 -0.17143,0.7714 -0.11932,0.72177 0.23119,0.91193 2.14449,1.16343 2.18506,0.28723 5.46092,1.10516 5.80524,1.44947 0.13954,0.13955 0.45543,0.25372 0.70198,0.25372 0.24655,0 0.81387,0.34152 1.26072,0.75894 0.44684,0.41741 0.87615,0.69522 0.95402,0.61736 0.0779,-0.0779 0.14158,0.004 0.14158,0.18272 0,0.17836 0.10581,0.25889 0.23514,0.17896 0.31622,-0.19543 1.63684,1.56283 1.39883,1.86238 -0.10317,0.12985 -0.13675,0.20709 -0.0746,0.17163 0.58711,-0.33502 0.95756,2.92755 0.37925,3.34022 -0.49907,0.35612 -0.83158,1.60674 -0.69598,2.6177 0.12718,0.94815 0.0622,1.11762 -0.59274,1.54679 -0.40457,0.26508 -1.04148,0.52293 -1.41538,0.573 -0.95982,0.12853 -1.11628,0.46157 -1.08426,2.30791 0.001,0.0741 -0.41296,0.538 -0.92054,1.03093 -0.8075,0.78419 -1.15314,0.91936 -2.76482,1.08121 -1.01307,0.10174 -1.98209,0.0984 -2.15338,-0.007 -0.17128,-0.10586 -0.70409,-0.28103 -1.184,-0.38928 -0.74584,-0.1682 -0.89318,-0.11799 -1.01445,0.34573 -0.14158,0.54142 0.40965,1.18316 1.08954,1.26846 0.58044,0.0728 0.69573,0.11964 2.48359,1.00892 1.08512,0.53974 1.86894,1.12133 2.05164,1.52234 0.16262,0.35691 0.40491,0.5814 0.53843,0.49888 0.32371,-0.20007 1.60707,2.63667 1.60707,3.55227 0,1.01326 -0.49501,2.31904 -0.94453,2.49153 -0.20811,0.0799 -0.37839,0.31983 -0.37839,0.53326 0,0.21343 -0.41258,0.53724 -0.91685,0.71959 -0.50427,0.18235 -0.97415,0.48084 -1.04418,0.66333 -0.18371,0.47874 0.1362,2.21438 0.40815,2.21438 0.12648,0 0.22997,0.41672 0.22997,0.92604 0,0.52917 -0.1323,0.92605 -0.30868,0.92605 -0.16978,0 -0.23648,0.0722 -0.14823,0.16045 0.2833,0.2833 -0.71789,1.1267 -2.02261,1.70384 -1.31956,0.5837 -3.10102,0.56692 -4.69152,-0.0442 -0.54751,-0.21036 -0.91625,-0.14605 -1.79808,0.31359 -1.3004,0.67781 -3.16321,0.60385 -4.0062,-0.15905 -0.28514,-0.25805 -0.51843,-0.37662 -0.51843,-0.26349 0,0.11313 -0.14883,0.0883 -0.33073,-0.0552 -0.39167,-0.30899 -1.25677,-0.3343 -1.25677,-0.0368 0,0.19468 -1.03902,0.72926 -2.248962,1.15711 -0.50164,0.17739 -0.49567,0.2 0.11474,0.43465 0.895642,0.34431 2.379122,1.92997 2.490912,2.6625 0.0859,0.56312 0.23003,0.61171 1.91863,0.64706 3.05028,0.0638 4.23478,0.38881 5.59785,1.53575 0.54953,0.46241 0.77616,0.84518 0.66772,1.12777 -0.10346,0.26962 -0.0581,0.36221 0.1228,0.25043 0.15782,-0.0975 0.33363,-0.0373 0.39069,0.13391 0.077,0.23107 0.54476,0.20046 1.81585,-0.11882 1.93136,-0.48515 3.08195,-0.41504 4.80633,0.29283 0.40018,0.16428 0.7276,0.40086 0.7276,0.52573 0,0.12487 0.1786,0.22703 0.39688,0.22703 0.21828,0 0.39687,-0.081 0.39687,-0.18 0,-0.099 0.25062,-0.46611 0.55692,-0.8158 0.3063,-0.34969 0.75505,-0.88478 0.99721,-1.18909 0.24217,-0.30431 0.70926,-0.69724 1.038,-0.87317 0.32873,-0.17593 0.5278,-0.43297 0.44238,-0.57119 -0.0854,-0.13822 -0.0207,-0.2513 0.14378,-0.2513 0.1645,0 0.46505,-0.14883 0.66789,-0.33073 0.86734,-0.77782 1.17152,-0.97469 2.30098,-1.48922 1.23892,-0.56439 1.52576,-1.12087 1.52576,-2.96001 0,-0.40979 0.11149,-0.81397 0.24775,-0.89818 0.13626,-0.0842 0.2331,-0.35913 0.21521,-0.61093 -0.0395,-0.55653 0.87284,-3.04001 1.1997,-3.26551 0.12904,-0.089 0.21543,-0.23985 0.19197,-0.33514 -0.12558,-0.51009 0.37476,-1.79632 0.93313,-2.3988 0.35103,-0.37877 0.61152,-0.73582 0.57888,-0.79346 -0.0527,-0.0931 0.60668,-0.85848 1.38049,-1.6024 0.15137,-0.14552 0.74125,-0.74083 1.31084,-1.32292 1.40389,-1.43466 2.41074,-2.16258 3.9064,-2.82418 0.69317,-0.30662 1.42217,-0.71935 1.61999,-0.91717 0.19783,-0.19783 0.61907,-0.36151 0.9361,-0.36374 1.13422,-0.008 1.21219,-0.25472 1.31316,-4.15545 0.0621,-2.40016 0.21153,-3.88286 0.4161,-4.12935 0.17555,-0.21152 0.37672,-0.83404 0.44705,-1.38338 0.0703,-0.54934 0.24278,-1.13723 0.38321,-1.30644 0.14042,-0.16921 0.29431,-0.56313 0.34196,-0.87538 0.0477,-0.31225 0.16909,-0.65017 0.26985,-0.75093 0.10076,-0.10077 0.18321,-0.36457 0.18321,-0.58623 0,-0.51601 2.10102,-4.0067 2.4116,-4.0067 0.12883,0 0.23435,-0.14883 0.2345,-0.33073 2.7e-4,-0.40402 3.26861,-3.63802 3.67657,-3.63802 0.16055,0 0.29191,-0.12609 0.29191,-0.2802 0,-0.15411 0.0978,-0.21974 0.21739,-0.14585 0.11956,0.0739 0.40409,-0.0837 0.63228,-0.3502 0.22819,-0.26651 1.26905,-0.74892 2.31301,-1.07202 1.04397,-0.3231 1.83327,-0.65232 1.754,-0.73158 -0.35408,-0.35408 2.06825,-4.03474 2.65535,-4.03474 0.20101,0 0.33571,-0.0992 0.29933,-0.22048 -0.0869,-0.28963 1.78042,-2.16077 2.15635,-2.16077 0.16007,0 0.29104,-0.1318 0.29104,-0.29289 0,-0.16109 0.17859,-0.22436 0.39688,-0.14059 0.21828,0.0838 0.39687,0.0487 0.39687,-0.0778 0,-0.40254 1.80343,-1.31325 4.31397,-2.1785 1.88762,-0.65057 3.01905,-0.86542 5.04811,-0.95862 2.07613,-0.0953 2.57218,-0.0505 2.40651,0.21755 -0.13913,0.22512 -0.10299,0.27235 0.10842,0.14169 0.44681,-0.27615 1.69167,0.59566 1.5135,1.05995 -0.0848,0.221 0.0162,0.37718 0.24383,0.37718 0.21372,0 0.40189,0.0893 0.41815,0.19844 0.24328,1.63225 0.18714,2.0163 -0.40901,2.79789 -0.35244,0.46207 -0.66667,0.95919 -0.69828,1.10471 -0.0908,0.41768 -1.25256,2.18623 -1.56171,2.37729 -0.15379,0.0951 -0.22226,0.26562 -0.15216,0.37905 0.0701,0.11343 -0.11119,0.46239 -0.40287,0.77547 -0.29168,0.31308 -0.46341,0.56923 -0.38162,0.56923 0.0818,0 -0.0158,0.26789 -0.21684,0.59532 -0.20105,0.32742 -0.63991,1.36922 -0.97524,2.3151 -0.33534,0.94589 -0.70969,1.85145 -0.83191,2.01236 -0.12222,0.16091 -0.27491,0.63716 -0.33932,1.05833 -0.1325,0.86641 -0.34902,1.8241 -0.41242,1.8241 -0.0233,0 -0.0791,0.23813 -0.12403,0.52917 -0.045,0.29104 -0.33362,2.17915 -0.64148,4.19581 -0.30786,2.01665 -0.62752,3.7763 -0.71036,3.91033 -0.0828,0.13403 -0.19208,5.6278 -0.24276,12.20836 -0.0882,11.44839 -0.20636,14.81741 -0.59143,16.85946 -0.096,0.50932 -0.19543,1.16416 -0.22086,1.4552 -0.0254,0.29105 -0.0739,0.64823 -0.1078,0.79375 -0.0338,0.14552 -0.082,0.44318 -0.10703,0.66146 -0.17304,1.5101 -0.52604,2.91042 -0.73367,2.91042 -0.13537,0 -0.22182,0.14883 -0.19211,0.33073 0.0297,0.1819 -0.0875,0.67466 -0.26038,1.09503 -0.17293,0.42036 -0.25575,0.82297 -0.18404,0.89468 0.0717,0.0717 -0.009,0.38262 -0.1788,0.69091 -0.17005,0.30829 -0.31634,0.67959 -0.32509,0.82511 -0.0351,0.58366 -0.77373,2.45527 -1.46189,3.70416 -0.40092,0.72761 -0.80366,1.64201 -0.89498,2.03202 -0.0913,0.39 -0.36968,0.91275 -0.61859,1.16166 -0.24892,0.24891 -0.47724,0.62065 -0.50739,0.82607 -0.0301,0.20542 -0.2728,0.68267 -0.53922,1.06057 -0.77321,1.09673 -1.2268,1.76777 -2.03693,3.01342 -0.90747,1.39533 -0.93966,1.43114 -4.66363,5.18771 -1.61534,1.62949 -3.16948,3.0365 -3.45364,3.12669 -0.28417,0.0902 -0.51666,0.2592 -0.51666,0.37557 0,0.27591 -2.14265,1.69303 -2.55981,1.69303 -0.17667,0 -0.29806,0.12616 -0.26977,0.28035 0.0283,0.15419 -0.22372,0.32218 -0.56004,0.3733 -0.33632,0.0511 -0.67648,0.26231 -0.75591,0.4693 -0.0794,0.20699 -0.35375,0.37635 -0.6096,0.37635 -0.25585,0 -0.74997,0.20836 -1.09805,0.46302 -0.92932,0.67991 -1.76987,1.12448 -2.12605,1.12448 -0.17242,0 -0.51789,0.18499 -0.76773,0.41109 -0.24984,0.2261 -0.7057,0.43003 -1.01302,0.45318 -0.30733,0.0231 -0.55877,0.13582 -0.55877,0.25037 0,0.11455 -0.0893,0.18875 -0.19844,0.16488 -0.10914,-0.0239 -0.5031,0.0429 -0.87546,0.14828 -0.37236,0.10542 -0.8879,0.22263 -1.14564,0.26046 -0.25774,0.0378 -0.54839,0.1973 -0.64589,0.3544 -0.0975,0.15709 -0.60752,0.35384 -1.13337,0.43722 -0.52584,0.0834 -1.25774,0.26629 -1.62644,0.40647 -0.36869,0.14018 -0.73925,0.18597 -0.82346,0.10177 -0.0842,-0.0842 -0.3048,-0.0305 -0.49022,0.11926 -0.34982,0.28263 -1.57202,0.52961 -3.80091,0.76808 -0.71429,0.0764 -1.71543,0.19105 -2.22476,0.25474 -1.86898,0.23371 -7.63415,0.60315 -11.00101,0.70496 -3.68945,0.11157 -4.31241,0.25483 -3.7989,0.87357 0.16887,0.20347 0.23792,0.55006 0.15344,0.7702 -0.10504,0.27374 0.011,0.40024 0.36728,0.40024 0.85926,0 0.68883,1.42238 -0.28154,2.34972 -0.85093,0.81319 -3.21658,1.60063 -3.37559,1.12361 -0.0492,-0.14773 -0.23067,-0.2147 -0.40317,-0.14881 -0.2069,0.079 -0.2838,0.64571 -0.22599,1.66518 0.0758,1.3373 -0.001,1.64872 -0.57254,2.31274 -0.55649,0.64683 -0.84819,0.76343 -1.8572,0.74237 -0.65836,-0.0137 -1.49785,-0.22211 -1.86555,-0.46302 -0.36769,-0.24092 -0.91084,-0.43804 -1.207,-0.43804 -0.29616,0 -0.53848,-0.11366 -0.53848,-0.25256 0,-0.29137 -1.043552,0.73637 -1.496732,1.47406 -0.16836,0.27406 -0.42899,0.47094 -0.57919,0.43752 -0.15019,-0.0334 -0.34184,0.15587 -0.42588,0.42066 -0.084,0.26478 -0.43898,0.63459 -0.78876,0.82178 -0.82342,0.44068 -2.53027,0.15182 -2.53027,-0.42822 0,-0.25858 -0.1485,-0.3562 -0.39687,-0.26089 -0.23772,0.0912 -0.39688,0.002 -0.39688,-0.22265 0,-0.20621 -0.28478,-0.68222 -0.63285,-1.05779 -0.58647,-0.63282 -0.71733,-0.66337 -1.78593,-0.41697 -2.23201,0.51465 -2.99276,0.37636 -4.17421,-0.75878 -0.68238,-0.65563 -1.07993,-1.27419 -1.07993,-1.68031 0,-0.83856 0.51671,-2.30918 0.81133,-2.30918 0.12672,0 0.16079,-0.1814 0.0757,-0.40311 -0.11226,-0.29254 -0.38211,-0.36095 -0.98388,-0.24941 -0.45606,0.0845 -1.42451,0.20223 -2.15211,0.26155 -0.72761,0.0593 -2.57308,0.27868 -4.10104,0.48747 -3.41851,0.4671 -8.99381,0.89538 -12.24441,0.94057 l -1.52879,0.0213 0.18081,1.25677 c 0.23519,1.63482 0.19298,2.22557 -0.17529,2.45317 -0.16524,0.10213 -0.29511,0.29143 -0.2886,0.42068 0.0189,0.37479 -1.86989,0.93626 -2.80401,0.83355 -0.83541,-0.0919 -0.8596,-0.0643 -1.17359,1.33882 -0.44032,1.96754 -0.96229,2.54852 -2.28966,2.54852 -0.64895,0 -1.26822,-0.1835 -1.58415,-0.46942 -1.4282,-1.2925 -3.25923,-1.69821 -3.60443,-0.79863 -0.0818,0.21317 -0.26863,0.31347 -0.41518,0.2229 -0.14655,-0.0906 -0.26721,0.0507 -0.26813,0.31396 -0.002,0.58946 -1.37162,1.40468 -2.35986,1.40468 -0.40214,0 -1.05966,-0.28228 -1.46117,-0.62728 z m 2.85582,-4.4468 c 0.45903,-0.31688 1.04759,-0.79313 1.30792,-1.05833 0.69763,-0.71067 2.27053,-0.62682 3.36313,0.17928 0.49311,0.36381 1.03394,0.66146 1.20185,0.66146 0.16791,0 0.52331,-0.48348 0.78978,-1.07441 0.53035,-1.1761 1.09661,-1.58834 2.50629,-1.82459 0.81757,-0.13702 0.9163,-0.23802 0.8429,-0.86229 -0.0457,-0.3889 0.26888,-1.75553 0.69913,-3.03696 1.08868,-3.24241 1.08529,-3.21915 1.11808,-7.68243 0.0257,-3.50552 0.0886,-4.05122 0.51044,-4.433 0.2646,-0.23945 0.53601,-0.33832 0.60314,-0.2197 0.24805,0.43829 1.01225,3.16167 1.19599,4.2622 0.10433,0.62486 0.30876,1.11836 0.45428,1.09667 0.29045,-0.0433 1.14618,-2.44732 1.17149,-3.29111 0.009,-0.29104 -0.16199,-0.8702 -0.37937,-1.28702 -0.28907,-0.55425 -0.39525,-1.64572 -0.39525,-4.06284 0,-3.07867 -0.0424,-3.35537 -0.61887,-4.04049 -0.36113,-0.42918 -0.75933,-1.4368 -0.95614,-2.41944 -0.67558,-3.3732 -0.62954,-3.27882 -1.56283,-3.20355 -1.27737,0.10302 -4.96277,1.45395 -7.11415,2.60779 -3.75987,2.01651 -7.81653,5.18554 -10.1285,7.91231 -1.24138,1.46409 -3.96124,5.42269 -3.95276,5.753 0.0103,0.40083 0.63427,1.25378 0.91721,1.25378 0.1132,0 0.7225,0.47625 1.35398,1.05833 1.58803,1.46379 1.65108,1.44232 2.08328,-0.70932 0.093,-0.46289 0.32869,-0.9741 0.52381,-1.13604 0.28242,-0.23438 0.443,-0.0288 0.78739,1.0081 0.23795,0.71639 0.40324,1.4062 0.36731,1.53292 -0.0359,0.12671 0.0194,0.91112 0.12294,1.74313 0.18924,1.52055 -0.3363,3.64663 -0.9014,3.64663 -0.12972,0 -0.23585,0.16567 -0.23585,0.36816 0,0.51045 -2.41456,3.33601 -2.85077,3.33601 -0.1955,0 -0.29021,0.10557 -0.21047,0.2346 0.0797,0.12903 -0.0323,0.38174 -0.24896,0.56156 -0.77684,0.64472 -0.35939,0.80816 1.87514,0.73418 1.99131,-0.0659 2.31522,-0.0122 2.64583,0.43846 0.2072,0.28247 0.37813,0.40153 0.37984,0.26458 0.002,-0.13696 0.37299,0.31654 0.82506,1.00776 0.45207,0.69123 0.87878,1.25677 0.94823,1.25677 0.0695,0 0.50186,-0.25927 0.96088,-0.57616 z m 44.58411,-3.45873 c 1.94108,-1.98764 2.32783,-2.10696 4.606412,-1.42121 1.24514,0.37473 1.78261,0.20751 1.78261,-0.55461 0,-0.74827 1.83674,-2.15664 3.04983,-2.33856 0.74587,-0.11185 1.18351,-0.31285 1.18351,-0.54357 0,-0.20135 -0.54833,-1.11056 -1.2185,-2.02048 -1.39207,-1.89004 -2.27189,-3.49976 -2.03975,-3.7319 0.0873,-0.0873 0.0391,-0.31036 -0.10695,-0.49578 -0.14608,-0.18542 -0.53205,-1.23009 -0.85772,-2.3215 -1.1616,-3.89284 -2.12289,-5.71001 -4.338932,-8.20208 -1.70686,-1.91947 -9.41576,-5.29167 -12.09686,-5.29167 -0.68448,0 -0.69547,0.0305 -0.86347,2.39731 -0.12998,1.83125 -0.32028,2.65902 -0.80595,3.50573 -0.56897,0.99194 -0.62564,1.35866 -0.53925,3.48967 0.0531,1.30969 0.16171,2.83084 0.24139,3.38033 0.1814,1.25107 -0.84663,4.46097 -2.11625,6.60769 l -0.89975,1.52136 1.24547,-0.003 c 0.68501,-0.002 1.70253,-0.0784 2.26116,-0.17073 0.93351,-0.15423 1.00241,-0.22357 0.85157,-0.85698 -0.37108,-1.55826 -0.45868,-2.90178 -0.21733,-3.33305 0.21526,-0.38466 0.59168,-0.008 2.34595,2.34927 1.14925,1.54409 2.2979,2.87516 2.55256,2.95792 0.61726,0.2006 0.58672,0.79192 -0.0645,1.24802 -0.29012,0.20321 -0.44887,0.44808 -0.35278,0.54417 0.0961,0.0961 0.0358,0.1747 -0.13397,0.1747 -0.16978,0 -0.30868,0.16402 -0.30868,0.36448 0,0.20046 -0.16573,0.50202 -0.36829,0.67013 -0.46889,0.38914 -0.76961,1.42798 -0.33464,1.15601 0.35705,-0.22325 0.64765,-0.2858 2.39591,-0.5157 1.09055,-0.14341 1.35463,-0.0904 1.66504,0.33409 0.20291,0.27749 0.45309,0.45786 0.55597,0.40083 0.10288,-0.057 0.35736,0.27038 0.56553,0.7276 0.49679,1.09118 1.2763,1.08175 2.36062,-0.0286 z m -86.54118,-1.47064 c -0.039,-0.23003 0.19635,-0.55453 0.52291,-0.72111 0.32656,-0.16658 0.51841,-0.37822 0.42633,-0.4703 -0.0921,-0.0921 0.16864,-0.29519 0.57938,-0.45135 0.93028,-0.35369 1.75078,-0.0466 3.03075,1.13446 1.30805,1.20693 1.92786,1.22242 2.64254,0.066 0.81389,-1.3169 1.75071,-1.72512 3.95891,-1.72512 1.93683,0 2.19405,-0.18186 1.38881,-0.98188 -1.08745,-1.08041 -1.42957,-1.92244 -1.1301,-2.78148 0.42343,-1.21466 0.36237,-1.45677 -0.56847,-2.25387 -1.52729,-1.30787 -2.74507,-2.55057 -4.23239,-4.31903 -1.62677,-1.93426 -3.38221,-4.31616 -3.38221,-4.58922 0,-0.0978 -0.23813,-0.4335 -0.52917,-0.74589 -0.29104,-0.3124 -0.52916,-0.76754 -0.52916,-1.01142 0,-0.24388 -0.34333,-0.83665 -0.76294,-1.31725 l -0.76294,-0.87383 -0.75645,2.35933 c -0.41605,1.29763 -0.8168701,2.41886 -0.8907101,2.49162 -0.0738,0.0728 -0.15364,0.31089 -0.17734,0.52917 -0.0237,0.21828 -0.28971,1.52797 -0.59116,2.91041 -0.30145,1.38245 -0.54996,2.77949 -0.55224,3.10453 -0.003,0.35935 -0.96132,1.70749 -2.44624,3.43958 -1.34316,1.56673 -2.5275,2.91128 -2.63187,2.98788 -0.10437,0.0766 -0.0995,0.28536 0.0109,0.46392 0.13458,0.21776 0.74947,0.29472 1.86751,0.23376 1.97942,-0.10793 2.931,0.0392 2.931,0.45316 0,0.16631 0.24809,0.45732 0.55131,0.64668 0.32439,0.20259 0.48899,0.50669 0.3999,0.73885 -0.0833,0.217 -0.0516,0.33289 0.0703,0.25754 0.12192,-0.0753 0.37371,0.14709 0.55954,0.4943 0.3657801,0.68347 1.1219901,0.6311 1.0033401,-0.0695 z m 67.23298,-4.38652 c 0.56822,-0.36623 2.10102,-2.12734 2.94687,-3.3858 l 0.76753,-1.14194 -0.58569,-0.15829 c -0.32213,-0.0871 -1.35888,-0.18116 -2.3039,-0.20912 -0.94502,-0.028 -3.18901,-0.20236 -4.98665,-0.38754 -2.28289,-0.23516 -3.29042,-0.25189 -3.34134,-0.0555 -0.35813,1.38174 -1.5779,4.8521 -1.80311,5.13005 -0.2029,0.25039 -0.20223,0.40195 0.002,0.52916 0.40778,0.25359 8.86517,-0.0383 9.30394,-0.32107 z m -38.58997,-2.4283 c 0.87997,-2.31449 -0.5268,-5.45633 -3.76373,-8.40581 -1.14425,-1.04264 -2.93988,-2.46867 -3.99029,-3.16896 -1.0504,-0.70029 -1.88585,-1.36752 -1.85655,-1.48273 0.0293,-0.11522 -0.26836,-0.218 -0.66146,-0.22842 -0.3931,-0.0104 -1.61833,-0.10175 -2.72273,-0.20298 -1.34757,-0.12351 -2.19603,-0.0834 -2.57969,0.12191 -0.76218,0.40791 -0.72515,0.81651 0.074,0.81651 0.97223,0 4.33946,1.26809 5.83661,2.19805 1.86965,1.16135 4.92221,3.70131 5.86059,4.87646 1.14981,1.43995 2.10244,3.17564 2.61557,4.76559 0.49757,1.54177 0.80229,1.72403 1.18768,0.71038 z m -4.92596,0.15888 c 1.37839,-0.52406 1.15777,-2.29151 -0.56931,-4.56095 l -0.99357,-1.3056 -0.26459,1.60267 c -0.30491,1.84694 -1.03561,2.75704 -2.66785,3.32285 -1.02124,0.35401 -1.02669,0.36293 -0.37486,0.61352 1.57248,0.60452 3.75547,0.75132 4.87018,0.32751 z m 9.56547,-1.34925 c -0.87464,-0.55467 -1.36419,-0.7249 -1.55009,-0.539 -0.18591,0.18591 -0.0283,0.36655 0.49896,0.57196 0.42388,0.16513 1.00882,0.40014 1.29986,0.52223 1.09071,0.45757 0.98851,0.22945 -0.24873,-0.55519 z m -14.18143,-1.13615 c 1.52457,-0.70736 1.75386,-4.58716 0.34808,-5.88999 -2.53807,-2.35221 -7.4185,-3.45081 -9.44146,-2.12531 -1.30357,0.85413 -0.71936,3.20505 1.30856,5.26582 0.95577,0.97126 1.77511,1.30698 1.64363,0.67348 -0.0364,-0.17528 0.0728,-0.32411 0.24253,-0.33073 0.16977,-0.007 0.38254,-0.0859 0.4728,-0.17614 0.0903,-0.0903 0.66423,0.008 1.27547,0.21877 0.63641,0.21926 1.76316,0.34593 2.63654,0.29641 1.40649,-0.0797 1.52514,-0.0427 1.5247,0.47644 -7.9e-4,0.98176 -0.63362,1.2464 -2.51847,1.0533 -2.05292,-0.21033 -2.29333,0.17556 -0.45857,0.7361 1.26793,0.38738 1.7776,0.35333 2.96619,-0.19815 z m 80.088052,-0.47322 c 0.65421,-0.61447 0.95127,-1.47636 0.58652,-1.70178 -0.13673,-0.0845 0.0647,-0.40011 0.44769,-0.70135 0.65267,-0.5134 0.68687,-0.64878 0.54592,-2.16172 -0.0827,-0.88771 -0.22459,-1.91167 -0.31531,-2.27547 -0.43312,-1.73686 -1.29233,-4.16753 -1.68347,-4.7625 -0.23917,-0.3638 -0.71723,-1.25677 -1.06237,-1.98438 -0.81311,-1.71416 -2.57193,-4.43502 -3.87779,-5.99887 -1.99627,-2.39064 -5.243432,-4.46143 -8.901262,-5.67652 -2.74545,-0.91201 -9.41705,-2.34774 -9.68136,-2.08344 -0.0801,0.0801 -0.005,1.00594 0.16746,2.05744 0.1722,1.0515 0.3896,3.05129 0.48311,4.44398 l 0.17002,2.53218 2.80856,0.47081 c 3.12272,0.52349 7.41675,2.06271 9.4525,3.3883 3.636242,2.36777 8.232762,8.61333 8.421962,11.44339 0.0444,0.66376 -0.0253,1.27232 -0.15474,1.35234 -0.12948,0.08 -0.15991,0.26769 -0.0676,0.41703 0.0923,0.14934 0.0189,0.5498 -0.16313,0.88991 -0.18202,0.34011 -0.26351,0.79413 -0.18108,1.00893 0.20293,0.52883 2.2083,0.0894 3.00438,-0.65828 z m 10.93898,-0.36283 c 8.07664,-1.075 14.2348,-2.80964 19.44687,-5.47782 2.57048,-1.31588 5.33622,-3.06277 6.40887,-4.04793 0.5497,-0.50488 1.12003,-0.91853 1.2674,-0.91923 0.14736,-7.9e-4 0.48978,-0.29668 0.76092,-0.65774 0.27115,-0.36107 0.59707,-0.59216 0.72426,-0.51355 0.12719,0.0786 0.23126,-0.009 0.23126,-0.19527 0,-0.186 0.41129,-0.75858 0.91399,-1.27238 2.66135,-2.72021 4.5592,-5.43798 6.58527,-9.43026 1.50411,-2.96378 2.1184,-4.53187 2.91602,-7.44359 1.52946,-5.58337 1.85788,-9.18331 1.69332,-18.56149 -0.1535,-8.74764 0.11979,-16.22213 0.71685,-19.60615 0.21824,-1.23692 0.45564,-2.60331 0.52756,-3.03642 0.31709,-1.90963 1.27115,-5.32802 1.7478,-6.26233 0.2862,-0.561 0.44383,-1.02 0.3503,-1.02 -0.0935,0 -0.0262,-0.17337 0.14969,-0.38528 0.17587,-0.21191 0.24888,-0.49996 0.16226,-0.64013 -0.0866,-0.14016 0.0307,-0.44303 0.2607,-0.67305 0.23001,-0.23001 0.34857,-0.4182 0.26346,-0.4182 -0.27975,0 0.66285,-1.97271 1.04471,-2.18641 0.20525,-0.11486 0.31047,-0.37224 0.23383,-0.57195 -0.0766,-0.19972 -0.0122,-0.44172 0.14329,-0.53779 0.15544,-0.0961 0.28262,-0.35914 0.28262,-0.58461 0,-0.31473 -0.16838,-0.36768 -0.72496,-0.22799 -0.39872,0.10007 -0.81362,0.32134 -0.92199,0.4917 -0.10837,0.17037 -0.19886,0.22587 -0.20109,0.12334 -0.002,-0.10252 -0.28699,0.0761 -0.63281,0.39688 -0.34582,0.32081 -1.08996,0.97734 -1.65364,1.45895 -2.5272,2.15924 -4.70851,4.63422 -6.57372,7.45871 -0.72073,1.09141 -1.4042,2.02406 -1.51881,2.07257 -0.11462,0.0485 -0.2084,0.25687 -0.2084,0.46302 0,0.20616 -0.1389,0.37483 -0.30868,0.37483 -0.16977,0 -0.23405,0.0746 -0.14284,0.16583 0.1896,0.1896 -0.49609,1.61333 -1.038,2.15523 -0.19941,0.19941 -0.37167,0.44336 -0.38281,0.54211 -0.0916,0.81232 -0.26718,1.22962 -0.59446,1.41277 -0.21083,0.11799 -0.46736,0.66241 -0.57006,1.20983 -0.10269,0.54742 -0.29184,1.06028 -0.42033,1.13969 -0.12849,0.0794 -0.27827,0.37734 -0.33285,0.66206 -0.0926,0.48303 -0.15988,0.69081 -0.6176,1.90675 -0.0959,0.25466 -0.15077,0.56617 -0.12203,0.69224 0.0288,0.12607 -0.13589,0.51638 -0.36587,0.86737 -0.22997,0.35098 -0.34662,0.75385 -0.25922,0.89526 0.0874,0.14141 0.0342,0.25711 -0.11818,0.25711 -0.15239,0 -0.25381,0.20836 -0.22536,0.46302 0.0828,0.74116 -0.35796,2.44739 -0.63219,2.44739 -0.13791,0 -0.17716,0.11907 -0.0872,0.26459 0.0899,0.14552 0.0705,0.41341 -0.0431,0.59531 -0.2119,0.3392 -0.36284,0.87053 -0.41338,1.45521 -0.0157,0.1819 -0.14055,0.33073 -0.27739,0.33073 -0.13684,0 -0.18172,0.17478 -0.0997,0.3884 0.082,0.21362 0.0386,0.45664 -0.0963,0.54004 -0.13495,0.0834 -0.32368,0.74206 -0.41941,1.46368 -0.0957,0.72162 -0.29051,1.31204 -0.43285,1.31204 -0.14235,0 -0.19174,0.17478 -0.10976,0.3884 0.082,0.21362 0.0508,0.44911 -0.0692,0.52331 -0.12005,0.0742 -0.29116,0.58402 -0.38025,1.13295 -0.0891,0.54893 -0.40237,1.4441 -0.69621,1.98928 -0.29383,0.54517 -0.53424,1.18624 -0.53424,1.42459 0,0.67727 -2.31232,5.38939 -2.64467,5.38939 -0.16334,0 -0.2278,0.11193 -0.14325,0.24874 0.0846,0.13681 -0.20607,0.65854 -0.64584,1.15941 -0.43977,0.50086 -0.79957,1.04751 -0.79957,1.21477 0,0.16726 -0.1786,0.37264 -0.39688,0.4564 -0.21828,0.0838 -0.39687,0.31815 -0.39687,0.52086 0,0.20271 -0.1786,0.36857 -0.39688,0.36857 -0.21828,0 -0.39687,0.136 -0.39687,0.30222 0,0.32261 -3.68718,3.93111 -4.01681,3.93111 -0.10775,0 -0.40891,0.22622 -0.66924,0.50271 -0.6321,0.67133 -3.19816,1.94479 -5.60044,2.77933 -1.07366,0.37299 -2.11898,0.81665 -2.32294,0.98592 -0.27996,0.23234 -0.53404,0.23339 -1.0369,0.004 -0.36634,-0.16692 -1.11412,-0.30349 -1.66173,-0.30349 -1.12439,0 -2.21995,0.88127 -3.0793,2.47698 -0.44448,0.82536 -0.59044,0.91201 -1.30906,0.77716 -0.99278,-0.1863 -1.73483,-0.79687 -1.73483,-1.42745 0,-0.70665 0.56044,-0.9162 0.96623,-0.36126 0.35618,0.4871 1.28766,0.82274 1.0024,0.36119 -0.0828,-0.13398 0.12499,-0.3541 0.46177,-0.48917 0.33676,-0.13507 0.51882,-0.25312 0.40456,-0.26234 -0.11426,-0.009 -0.0795,-0.25648 0.0773,-0.54945 0.19457,-0.36355 0.20007,-0.67857 0.0174,-0.99219 -0.14725,-0.25273 -0.27135,-0.35563 -0.27577,-0.22868 -0.004,0.12696 -0.17411,0.093 -0.37707,-0.0754 -0.20297,-0.16845 -0.47086,-0.28799 -0.59532,-0.26565 -0.12445,0.0223 -0.28581,0.0183 -0.35857,-0.009 -0.0728,-0.0273 -0.47816,-0.0947 -0.90088,-0.14994 -0.42838,-0.0559 -1.20392,-0.52547 -1.75208,-1.06074 -0.6874,-0.67122 -1.30061,-1.00289 -2.03682,-1.10164 l -1.05332,-0.14128 -0.29978,1.19054 c -0.37747,1.49908 -1.36546,2.00897 -1.36546,0.70469 0,-0.29562 -0.2103,-0.45948 -0.59531,-0.46386 -0.32742,-0.004 -0.92342,-0.0899 -1.32444,-0.19141 -0.45616,-0.11552 -0.88138,-0.0583 -1.13584,0.1529 -0.35743,0.29664 -0.30287,0.44469 0.4503,1.22176 0.47136,0.48632 1.06476,0.88421 1.31866,0.88421 0.68226,0 0.82383,0.42501 0.31205,0.93679 -0.42398,0.42397 -0.4782,0.41578 -0.92847,-0.14028 -0.26301,-0.3248 -0.4782,-0.4583 -0.4782,-0.29665 0,0.55901 -0.55692,0.28914 -1.79727,-0.87093 -0.68499,-0.64066 -2.10093,-1.59412 -3.14652,-2.11882 -1.9714,-0.98928 -2.38066,-1.51663 -2.08652,-2.68858 0.14149,-0.56375 0.0716,-0.6428 -0.57142,-0.64597 -1.56422,-0.008 -1.92448,-0.27525 -2.713312,-2.015 -0.42035,-0.92706 -0.88106,-1.68556 -1.02381,-1.68556 -0.14275,0 -0.42906,-0.0651 -0.63626,-0.14456 -0.25467,-0.0977 -0.46106,0.13801 -0.63703,0.72761 -0.23589,0.7903 -0.17773,0.96536 0.61966,1.86511 0.48399,0.54612 0.87917,1.2605 0.87817,1.5875 -0.002,0.72782 -1.34052,1.69392 -3.23493,2.33524 -1.30972,0.44339 -2.02424,1.17941 -2.04555,2.10712 -0.006,0.26316 0.48425,0.56541 1.37969,0.85053 2.52518,0.80407 2.50884,0.80347 2.75281,0.10037 0.12306,-0.35467 0.81906,-1.13842 1.54667,-1.74167 1.159302,-0.96116 1.437452,-1.07686 2.248952,-0.93552 1.03611,0.18048 2.78867,1.01045 3.53131,1.67235 0.39785,0.3546 0.45785,0.66726 0.32304,1.68347 -0.15608,1.17662 -0.12242,1.2703 0.58851,1.63794 1.29621,0.6703 2.62204,2.41684 2.81588,3.70943 0.18414,1.22797 0.47692,1.47841 1.72831,1.47841 0.99576,0 1.54562,-0.89441 1.64749,-2.67986 0.0695,-1.21776 0.15683,-1.42118 0.61026,-1.42118 0.30954,0 0.49722,0.15074 0.4522,0.36319 -0.0485,0.22878 0.0713,0.30629 0.32373,0.20943 0.88341,-0.339 1.05818,1.45093 0.20816,2.13197 -0.22196,0.17784 -0.41989,0.62897 -0.43985,1.00251 -0.0441,0.82494 -1.26119,2.17697 -2.07137,2.30096 -0.32425,0.0496 -1.11531,-0.002 -1.75791,-0.11485 -0.6426,-0.1128 -1.22732,-0.14613 -1.29938,-0.0741 -0.0721,0.0721 0.50091,1.4116 1.27326,2.97677 1.30949,2.65371 2.17505,4.70785 3.48463,8.26972 0.74934,2.03812 0.9593,5.71191 0.38942,6.81394 -0.23683,0.45798 -0.4306,0.91516 -0.4306,1.01595 0,0.23414 4.5993,-0.0791 8.20208,-0.55865 z m -79.152212,-2.20833 c 1.26063,-2.78938 4.76156,-7.19126 7.93878,-9.9818 1.75563,-1.54197 7.53739,-5.39986 8.09268,-5.39986 0.067,0 0.9914,-0.41083 2.05413,-0.91294 1.06274,-0.50212 2.4085,-1.03787 2.99058,-1.19056 1.8083,-0.47434 1.85857,-0.55238 1.4858,-2.30674 -0.58682,-2.76177 -1.4461,-5.50703 -1.78946,-5.71707 -0.1847,-0.11299 -0.27312,-0.36884 -0.19648,-0.56855 0.0766,-0.19972 0.0236,-0.43464 -0.11782,-0.52205 -0.36204,-0.22375 -6.00217,1.95769 -8.11156,3.13732 -1.8717,1.04672 -8.27312,5.78896 -10.08296,7.46957 -2.01634,1.87236 -7.54746,8.89919 -7.88058,10.01163 -0.11338,0.37862 0.0874,0.80793 0.68056,1.4552 1.74383,1.90291 3.01023,3.60081 3.49696,4.68846 0.27676,0.61846 0.58296,1.12448 0.68044,1.12448 0.0975,0 0.43899,-0.57919 0.75893,-1.28709 z m 41.7058,-0.37642 c 0.42647,-0.58419 0.77331,-3.61072 0.53706,-4.68638 -0.15229,-0.69339 -0.2889,-0.79386 -1.07938,-0.79386 -0.8819,0 -0.90502,0.0275 -0.90502,1.07572 0,2.02713 -0.22752,2.177 -2.99991,1.9761 -3.85683,-0.27948 -6.87732,-0.67852 -7.20698,-0.95211 -0.16742,-0.13895 -0.36696,-1.03208 -0.44343,-1.98474 -0.0765,-0.95266 -0.18198,-1.77107 -0.23446,-1.81868 -0.0525,-0.0476 -0.47549,-0.16795 -0.94002,-0.26742 -0.80869,-0.17318 -0.85233,-0.13963 -1.02656,0.78908 -0.10007,0.53347 -0.0966,1.70228 0.008,2.59735 0.10436,0.89507 0.19144,1.90339 0.19353,2.24071 0.002,0.39468 0.12684,0.5661 0.34895,0.48087 0.18983,-0.0728 0.54932,0.0932 0.79887,0.36892 0.96907,1.07081 3.85064,1.55105 8.94445,1.49069 3.17866,-0.0377 3.70531,-0.10555 4.00513,-0.51625 z m -3.29942,-4.37134 c 0,-0.98324 -0.61021,-1.30598 -3.04271,-1.60929 -1.30969,-0.16331 -2.83593,-0.37256 -3.39165,-0.46501 l -1.0104,-0.16808 0.0844,1.02974 0.0844,1.02974 1.45521,0.0727 c 0.80036,0.04 2.28864,0.1732 3.30729,0.29597 1.01864,0.12278 2.00091,0.23888 2.18281,0.258 0.1819,0.0191 0.33073,-0.18059 0.33073,-0.44382 z m -61.78399,-0.56252 c 0.14636,-0.66634 -0.0853,-1.13452 -1.63262,-3.29921 -0.99175,-1.38747 -2.18871,-3.21092 -2.65992,-4.05211 -0.47121,-0.84119 -0.85816,-1.40146 -0.8599,-1.24505 -0.004,0.34479 1.09354,3.54286 1.71816,5.00728 0.53005,1.24269 2.70008,4.36562 3.03353,4.36562 0.12661,0 0.30695,-0.34944 0.40075,-0.77653 z m 16.27566,-2.13388 c 0.29104,-0.29104 0.45594,-0.52917 0.36644,-0.52917 -0.24787,0 0.76451,-1.49855 1.76676,-2.61519 0.22738,-0.25332 0.3663,-0.60192 0.30873,-0.77464 -0.0576,-0.17273 0.0838,-0.38639 0.31419,-0.4748 0.23038,-0.0884 0.41888,-0.3063 0.41888,-0.48421 0,-0.50124 2.90239,-3.58866 3.37359,-3.58866 0.23032,0 0.35021,-0.0686 0.26641,-0.15236 -0.0838,-0.0838 1.31017,-1.66137 3.09772,-3.50573 5.00974,-5.16896 6.20616,-6.4801 6.08782,-6.67157 -0.06,-0.0971 -0.84731,-0.25373 -1.74955,-0.34803 -0.90223,-0.0943 -1.70941,-0.24045 -1.79373,-0.32477 -0.36206,-0.36206 1.0333,-0.90871 4.2947,-1.68249 1.91876,-0.45524 4.50069,-1.13505 5.73762,-1.51069 1.23693,-0.37563 2.42755,-0.71946 2.64583,-0.76405 0.21828,-0.0446 0.45641,-0.10428 0.52917,-0.13265 0.0728,-0.0284 0.22159,-0.0375 0.33073,-0.0202 0.10914,0.0172 0.19844,-0.0652 0.19844,-0.18323 0,-0.11801 0.62507,-0.37431 1.38906,-0.56955 0.76398,-0.19525 1.56765,-0.44842 1.78594,-0.56259 0.5161,-0.26996 2.49377,-1.16035 3.83645,-1.72726 0.58209,-0.24577 1.19362,-0.42647 1.35896,-0.40155 0.50316,0.0758 0.66442,-0.80535 0.23435,-1.28057 -0.22211,-0.24543 -0.3242,-0.52587 -0.22687,-0.6232 0.0973,-0.0973 0.0381,-0.17697 -0.13171,-0.17697 -0.4834,0 -0.36173,-1.02352 0.19237,-1.61828 l 0.50106,-0.53782 1.0203,0.52838 c 0.56116,0.29061 1.43038,0.83526 1.93159,1.21034 1.06845,0.79957 1.51154,0.84607 2.19221,0.23007 0.38335,-0.34692 0.60331,-0.3849 0.94688,-0.16348 0.35752,0.23041 0.43027,0.61332 0.36172,1.90382 -0.08,1.5066 -0.0411,1.63578 0.57844,1.91805 0.88533,0.40338 1.39141,0.16881 2.05225,-0.95123 0.30255,-0.51279 0.71541,-0.93235 0.91746,-0.93235 0.20204,0 1.09281,0.8839 1.97949,1.96422 0.88667,1.08033 1.79794,2.03553 2.02503,2.12267 1.04438,0.40077 2.16938,-1.22848 1.8172,-2.63168 -0.21344,-0.85042 0.0107,-0.8391 2.18097,0.11019 3.07238,1.34387 5.07143,1.41466 5.07143,0.17957 0,-1.03549 -1.35271,-3.21661 -3.12889,-5.04506 -2.59266,-2.66893 -6.56542,-5.09514 -11.79945,-7.20606 -1.00731,-0.40625 -1.88681,-0.91723 -1.95445,-1.13551 -0.0676,-0.21829 -0.0332,-0.31345 0.0766,-0.21148 0.10977,0.10197 0.62772,-0.29151 1.151,-0.87441 1.13263,-1.26168 1.00636,-1.27403 5.46875,0.53474 7.74553,3.13956 8.15142,3.26164 8.43006,2.53552 0.26076,-0.67955 0.96067,-0.44382 2.64492,0.89083 0.89376,0.70824 1.91029,1.37662 2.25896,1.4853 0.61341,0.19119 0.62841,0.16302 0.46325,-0.86981 -0.18977,-1.1868 -0.0136,-1.90319 0.46804,-1.90319 0.17489,0 1.01001,0.41671 1.85583,0.92604 1.560192,0.9395 2.368502,1.14017 2.664362,0.66146 0.2761,-0.44675 0.94429,-0.29627 1.77014,0.39864 1.27212,1.07042 1.71068,0.33272 0.74439,-1.25215 -0.66464,-1.09011 -0.68265,-1.79233 -0.046,-1.79233 0.2663,0 1.60575,0.5535 2.97656,1.23 2.8668,1.41478 4.74133,1.79987 4.74133,0.97402 0,-0.49388 -2.06299,-3.56359 -2.6307,-3.91446 -0.60978,-0.37686 -0.21019,-0.58301 1.24164,-0.64055 1.79707,-0.0712 3.74326,-0.47218 4.22251,-0.86992 0.49317,-0.4093 0.41958,-1.38896 -0.14255,-1.89768 -0.72222,-0.6536 -3.42884,-1.68553 -6.33246,-2.41432 -4.7889,-1.20197 -17.621522,-3.21045 -24.525912,-3.83863 -3.93764,-0.35825 -4.36685,-0.46614 -4.63069,-1.164 -0.28975,-0.7664 0.0688,-1.34504 1.1042,-1.78182 1.22169,-0.51537 6.92149,-0.45041 11.06783,0.12613 2.37561,0.33033 3.5171,0.38601 4.01702,0.19594 0.72298,-0.27488 1.43371,-0.14103 3.1293,0.58931 1.29936,0.55967 1.69605,0.25529 1.47434,-1.13122 l -0.17548,-1.09738 0.974742,0.0782 c 0.901,0.0723 0.99203,0.0132 1.20325,-0.78167 0.31258,-1.17627 0.98066,-1.10925 2.09104,0.20976 0.49526,0.58831 1.22457,1.37895 1.62071,1.75697 0.39613,0.37802 0.6705,0.7678 0.6097,0.86617 -0.0608,0.0984 0.25091,0.39238 0.69268,0.65334 1.02849,0.60755 1.53052,0.24037 1.06582,-0.77953 -0.40763,-0.89466 -0.39645,-2.3756 0.0204,-2.70409 0.51967,-0.4095 3.15149,-0.62734 3.55304,-0.29409 0.19226,0.15957 0.34957,0.22183 0.34957,0.13837 0,-0.0835 0.50601,0.0779 1.12447,0.35867 2.77576,1.25996 3.49275,-0.12357 1.35708,-2.61863 -1.13331,-1.32401 -0.97319,-1.59797 0.95803,-1.63907 1.62112,-0.0345 3.46493,-0.55409 3.78386,-1.06629 0.55853,-0.897 0.004,-1.72134 -1.63583,-2.4326 -4.58798,-1.98975 -11.97561,-2.81313 -27.085002,-3.01872 -7.76828,-0.10571 -10.78177,-0.23049 -10.78177,-0.44645 0,-0.16486 -0.23813,-0.44846 -0.52917,-0.63022 -0.29104,-0.18176 -0.52916,-0.52385 -0.52916,-0.76021 0,-0.43291 0.94711,-1.41786 1.3634,-1.41786 0.12325,0 0.2241,-0.0942 0.2241,-0.20936 0,-0.20735 -4.60828,-2.46357 -5.75469,-2.8175 -0.32742,-0.10109 -0.59531,-0.30186 -0.59531,-0.44616 0,-0.14431 -0.0944,-0.20402 -0.20983,-0.13269 -0.11541,0.0713 -0.91908,-0.16591 -1.78594,-0.52718 -2.9805,-1.24214 -12.43031,-4.53999 -16.92194,-5.90552 -2.47386,-0.75209 -4.67651,-1.43703 -4.89479,-1.52208 -0.21828,-0.0851 -0.57547,-0.18332 -0.79375,-0.21837 -0.21828,-0.035 -3.06927,-0.73475 -6.33552,-1.55488 -7.29916,-1.83276 -14.44267,-3.16021 -22.23948,-4.13266 -6.9954,-0.87249 -19.99871011,-1.07813 -25.1848901,-0.39829 -3.56955,0.46793 -6.6586899,1.22232 -8.5489499,2.08771 -1.37858,0.63113 -5.88002,4.51766 -5.92799,5.1182 -0.0141,0.17678 -0.2638,0.44886 -0.55484,0.60462 -0.29104,0.15576 -0.52931,0.42784 -0.52949,0.60462 -2.6e-4,0.29131 -0.70825,1.26599 -1.67482,2.30579 -0.20291,0.21829 -0.57742,0.84336 -0.83224,1.38907 -0.25483,0.5457 -0.57585,0.99218 -0.71338,0.99218 -0.13752,0 -0.18239,0.10947 -0.0997,0.24326 0.0827,0.13379 -0.0378,0.43144 -0.26787,0.66146 -0.23001,0.23001 -0.3204,0.42199 -0.20086,0.42661 0.11953,0.005 0.011,0.16511 -0.24121,0.35663 -0.25219,0.19151 -0.49614,0.57467 -0.5421,0.85148 -0.046,0.2768 -0.25187,0.80093 -0.45757,1.16473 -0.2057,0.3638 -0.34871,0.75076 -0.31779,0.8599 0.0309,0.10914 -0.18191,0.43656 -0.47296,0.7276 -0.29104,0.29104 -0.53801,0.73753 -0.54882,0.99219 -0.0383,0.90266 -0.25929,1.74902 -0.54717,2.0959 -0.16044,0.19332 -0.18784,0.35332 -0.0609,0.35554 0.12696,0.002 0.0778,0.10115 -0.10922,0.21982 -0.18702,0.11867 -0.40267,0.73531 -0.47921,1.37033 -0.0765,0.63502 -0.21116,1.27106 -0.29916,1.41344 -0.1772,0.28671 -0.54303,1.91367 -0.75155,3.34236 -0.0743,0.50933 -0.25773,1.47619 -0.40754,2.14858 -0.28748,1.29029 -0.40352,8.36692 -0.15566,9.49309 0.0801,0.3638 0.29959,1.43536 0.48782,2.38125 0.18824,0.94588 0.36064,1.80909 0.38312,1.91823 0.0225,0.10914 0.0649,0.2282 0.0942,0.26458 0.0293,0.0364 0.0938,0.27848 0.14325,0.53799 0.12354,0.64814 1.1315,2.54767 1.60108,3.01724 0.21184,0.21185 0.38517,0.54252 0.38517,0.73484 0,0.19232 0.17859,0.4182 0.39688,0.50197 0.21828,0.0838 0.39687,0.32188 0.39687,0.52916 0,0.20728 0.19095,0.45015 0.42433,0.5397 0.24227,0.093 0.35935,0.33215 0.27288,0.55748 -0.0862,0.22453 -0.004,0.39464 0.19101,0.39464 0.18835,0 0.62209,0.29766 0.96386,0.66146 0.34178,0.3638 0.51799,0.66146 0.39159,0.66146 -0.12639,0 0.16655,0.29243 0.651,0.64984 0.48445,0.35741 1.08512,0.86343 1.33484,1.12448 0.76411,0.79878 1.97949,1.81762 2.39139,2.00467 0.21481,0.0976 1.224,0.71784 2.24264,1.37842 1.01865,0.66058 3.04271,1.79149 4.49792,2.51313 1.45521,0.72164 2.7946599,1.4388 2.9765599,1.5937 0.1819,0.15489 0.33073,0.21913 0.33073,0.14276 0,-0.0764 0.62508,0.11332 1.38906,0.42153 3.76975,1.52085 10.32889,3.30808 15.94115,4.34362 4.3956701,0.81106 10.9222801,1.69929 12.5015601,1.70137 1.0072,0.001 1.12448,0.0671 1.12448,0.63054 0,0.34598 -0.17188,0.77171 -0.38195,0.94605 -0.5952,0.49397 -3.04506,1.06411 -4.58729,1.06758 -1.09291,0.002 -1.43154,0.10403 -1.55421,0.46616 -0.0863,0.25466 -0.43789,1.0985 -0.78139,1.87519 -0.55242,1.24909 -0.59161,1.55465 -0.33937,2.64584 0.15685,0.67851 0.30865,1.35272 0.33734,1.49824 0.14474,0.73421 2.43154,4.90325 3.46713,6.32089 2.14569,2.93728 1.8773,2.74738 2.72928,1.93114 0.40839,-0.39127 0.95141,-0.7114 1.2067,-0.7114 0.25528,0 0.39837,-0.10645 0.31796,-0.23655 -0.24751,-0.40048 1.89893,-1.08637 3.39974,-1.08637 2.01568,0 4.5038,0.85181 6.50481,2.22692 0.94588,0.65002 1.74955,1.18879 1.78593,1.19726 0.0364,0.008 0.30428,-0.22272 0.59532,-0.51376 z m -18.95692,-39.15692 c -1.18574,-0.12471 -3.40994,-0.52895 -4.94268,-0.89833 -2.4786801,-0.59732 -3.0251901,-0.64439 -4.9428701,-0.42567 -3.24453,0.37004 -7.91333,-0.36215 -10.40072,-1.63112 -1.13448,-0.57877 -2.87251,-2.31252 -2.66112,-2.65456 0.0723,-0.11691 0.0157,-0.21257 -0.12557,-0.21257 -0.14132,0 -0.33491,-0.46151 -0.43021,-1.02558 -0.14533,-0.86017 -0.0692,-1.13785 0.4719,-1.72173 0.56078,-0.60509 0.68815,-0.64437 0.97374,-0.30025 0.18072,0.21775 0.43415,0.33066 0.56318,0.25091 0.12903,-0.0798 0.24834,0.12992 0.26512,0.46593 0.0168,0.33601 0.0465,0.73638 0.0661,0.88971 0.0641,0.50127 1.3899,1.90248 1.97622,2.08858 0.31512,0.10001 0.57295,0.29991 0.57295,0.44421 0,0.1443 0.0989,0.20126 0.21971,0.12658 0.12085,-0.0747 0.86499,0.0537 1.65365,0.28524 1.04260999,0.30613 2.73362,0.43365 6.19643,0.46728 2.81521,0.0273 4.9788601,0.16309 5.2916601,0.33201 0.29105,0.15717 2.0735,0.49284 3.96102,0.74593 5.95636,0.79867 11.04795,0.20011 12.55282,-1.47569 0.37624,-0.41898 1.02839,-1.15269 1.44921,-1.63047 0.4827,-0.54804 0.80845,-0.74601 0.88249,-0.53632 0.0645,0.18281 0.22029,0.26877 0.34608,0.19103 0.12579,-0.0777 0.36167,0.10709 0.52418,0.41074 0.32455,0.60644 0.10688,2.10856 -0.30556,2.10856 -0.14255,0 -0.19725,0.1002 -0.12156,0.22266 0.21565,0.34894 -1.44993,1.82004 -2.61993,2.314 -2.77485,1.17151 -7.141,1.61856 -11.41629,1.16892 z m 29.26714,-9.09081 c -0.0681,-0.0663 -0.56914,-0.19065 -1.11349,-0.27627 -1.28616,-0.2023 -2.48312,-0.86143 -3.67007,-2.02102 -0.96575,-0.94349 -2.00922,-2.63281 -1.63085,-2.64028 0.11287,-0.002 0.0266,-0.11695 -0.19165,-0.25493 -0.52937,-0.33465 -0.53389,-5.31856 -0.006,-6.48789 0.36373,-0.80552 0.4427,-1.02558 0.50198,-1.39891 0.0579,-0.3643 1.0914,-0.30327 1.0914,0.0644 0,0.58141 1.42225,1.92019 1.98742,1.87079 1.46696,-0.12823 2.09311,-0.55094 2.80302,-1.89233 0.34349,-0.64903 0.36881,-0.97424 0.13229,-1.6988 -0.27314,-0.83675 -0.8228,-1.27886 -2.1446,-1.72499 -0.86772,-0.29286 1.03716,-0.97904 2.91042,-1.04838 1.87512,-0.0694 2.77659,0.20882 2.78217,0.8587 0.003,0.40295 0.0427,0.41381 0.26961,0.0747 0.23499,-0.35119 0.30306,-0.3493 0.59126,0.0164 0.17914,0.2273 0.53406,0.49145 0.78873,0.58701 0.25466,0.0956 0.46302,0.35125 0.46302,0.56821 0,0.21695 0.28025,0.66717 0.62277,1.00049 0.99538,0.9686 1.86112,3.71203 1.86112,5.89768 0,3.48169 -2.00757,6.71791 -4.90795,7.91165 -0.99088,0.40783 -2.9512,0.77843 -3.14072,0.59375 z m -62.61926,-7.32858 c -3.17778,-0.62568 -5.36524,-3.42504 -5.36468,-6.86536 2.7e-4,-2.09322 0.99429,-5.55625 1.59474,-5.55625 0.10578,0 0.45288,0.32743 0.77133,0.72761 0.45371,0.57015 0.78874,0.72159 1.54822,0.6998 2.1938,-0.0629 3.26544,-2.61564 1.77376,-4.22518 -0.36107,-0.38961 -0.60227,-0.79613 -0.53598,-0.90338 0.0663,-0.10726 0.6699,-0.34883 1.34137,-0.53683 1.05302,-0.29482 1.40858,-0.28103 2.5865,0.10038 1.35987,0.44032 2.82086,1.48044 2.82086,2.00825 0,0.1525 0.11031,0.27727 0.24513,0.27727 0.13481,0 0.55334,0.62999 0.9300599,1.39997 0.94506,1.93164 1.1979,5.13955 0.56048,7.11117 -0.54139,1.67458 -1.9151899,3.92428 -2.3963999,3.92428 -0.18754,0 -0.41185,0.18466 -0.49846,0.41037 -0.18734,0.48821 -2.03797,1.32742 -3.33872,1.51403 -0.50933,0.0731 -1.42652,0.0343 -2.03821,-0.0861 z m 101.59792,53.45964 c 0.36119,-1.9377 0.0133,-10.35876 -0.58863,-14.24708 -0.30066,-1.94229 -0.60961,-3.63331 -0.68656,-3.75781 -0.0769,-0.12451 -0.60034,-0.48515 -1.16309,-0.80144 -0.56276,-0.31628 -1.15196,-0.85769 -1.30935,-1.20312 -0.33722,-0.74012 -0.57812,-0.77017 -1.6657,-0.20776 -1.50737,0.77949 -4.26038,-0.25713 -5.30541,-1.99771 -0.30912,-0.51487 -0.5956,-0.98044 -0.63663,-1.03461 -0.12037,-0.15893 -7.24185,3.4103 -7.24185,3.62956 0,0.10976 0.0976,0.31266 0.21678,0.45091 1.08778,1.26127 3.79142,11.34216 4.18308,15.59719 0.0938,1.01864 0.26913,2.04492 0.3897,2.28061 0.36498,0.71343 2.00029,1.31821 4.96341,1.83557 3.96627,0.69252 4.15921,0.71259 6.51228,0.67765 l 2.11003,-0.0313 z m 22.466282,-9.89737 c -0.15759,-1.34984 -2.05711,-2.80263 -3.66444,-2.80263 -0.50974,0 -0.44255,0.5131 0.0942,0.71905 0.58716,0.22532 1.59194,1.04973 2.58844,2.12379 0.43805,0.47216 0.86185,0.85911 0.94177,0.8599 0.0799,7.9e-4 0.0979,-0.40426 0.0401,-0.90011 z m -3.38868,-5.07323 c 0.30875,-0.80458 0.15412,-1.18071 -0.6993,-1.70105 -1.18356,-0.72163 -1.46299,-0.6666 -1.96545,0.38707 -0.357802,0.7503 -0.374862,0.98644 -0.0956,1.32292 0.46887,0.56494 2.54272,0.55823 2.76037,-0.009 z m -11.527822,-2.57997 c 0.0485,-0.25009 -0.0825,-0.4411 -0.30242,-0.4411 -0.41853,0 -0.77697,0.63775 -0.50903,0.90569 0.26766,0.26766 0.71963,0.009 0.81145,-0.46459 z m -3.65742,-0.3282 c 0,-0.24639 -0.18001,-0.38137 -0.44109,-0.33073 -0.66378,0.12873 -0.75492,0.747 -0.11012,0.747 0.325,0 0.55121,-0.17084 0.55121,-0.41627 z m 20.372922,-1.17973 c 0,-1.49678 -1.38667,-3.1665 -2.62973,-3.1665 -0.4868,0 -1.33902,1.1529 -1.33902,1.81147 0,0.31643 2.88565,1.8644 3.50573,1.8806 0.29304,0.008 0.46302,-0.18529 0.46302,-0.52557 z m 20.24,-0.70397 c 2.18807,-0.54369 4.60447,-1.59517 5.57832,-2.42737 0.44836,-0.38314 1.10771,-0.93474 1.46521,-1.22578 0.35751,-0.29104 0.84124,-0.82683 1.07497,-1.19063 0.23373,-0.3638 0.79478,-1.06985 1.24678,-1.56901 0.45199,-0.49915 0.8218,-1.06368 0.8218,-1.25452 0,-0.19084 0.22625,-0.48828 0.50277,-0.66097 0.27652,-0.17269 0.4497,-0.45228 0.38483,-0.62131 -0.0649,-0.16903 0.0661,-0.46004 0.29099,-0.64669 0.2249,-0.18666 0.40891,-0.50339 0.40891,-0.70385 0,-0.20047 0.0951,-0.36448 0.21143,-0.36448 0.11629,0 0.37058,-0.44649 0.56509,-0.99219 0.19451,-0.5457 0.57561,-1.30822 0.8469,-1.69449 0.27129,-0.38626 0.49325,-0.86711 0.49325,-1.06853 0,-0.20143 0.22463,-0.80684 0.49918,-1.34535 0.27455,-0.53852 0.58228,-1.4269 0.68385,-1.97418 0.10156,-0.54728 0.35147,-1.18114 0.55536,-1.40857 0.20388,-0.22744 0.43132,-0.89605 0.50542,-1.4858 0.0741,-0.58975 0.31393,-1.50117 0.53296,-2.02538 0.21902,-0.5242 0.39823,-1.29805 0.39823,-1.71966 0,-0.42162 0.22112,-1.05052 0.49137,-1.39756 0.27026,-0.34705 0.45946,-0.83888 0.42045,-1.09297 -0.039,-0.25408 0.0375,-0.529 0.17008,-0.61093 0.13256,-0.0819 0.24102,-0.48135 0.24102,-0.88761 0,-0.88657 0.47742,-2.38534 0.9347,-2.93428 0.18183,-0.21828 0.41356,-0.90289 0.51496,-1.52135 0.10139,-0.61847 0.29294,-1.12448 0.42568,-1.12448 0.13272,0 0.24132,-0.16847 0.24132,-0.37438 0,-0.20591 0.47848,-1.27747 1.06328,-2.38125 0.58481,-1.10378 0.9958,-2.00687 0.91333,-2.00687 -0.0825,0 0.21296,-0.52747 0.65651,-1.17215 0.44356,-0.64469 0.80646,-1.35203 0.80646,-1.57189 0,-0.21985 0.12087,-0.47443 0.2686,-0.56573 0.30714,-0.18983 1.05432,-1.87846 1.05432,-2.38278 0,-0.79809 -1.90986,-0.57541 -2.97656,0.34706 -0.25466,0.22023 -0.46681,0.29267 -0.47144,0.16097 -0.005,-0.13169 -0.18322,-0.008 -0.39687,0.27415 -0.21365,0.28247 -0.38846,0.43556 -0.38846,0.34018 0,-0.0954 -0.27557,0.0902 -0.61238,0.41245 -0.33681,0.32223 -0.57114,0.66993 -0.52074,0.77268 0.0504,0.10274 -0.19971,0.37771 -0.55581,0.61104 -0.3561,0.23332 -0.83518,0.8934 -1.06462,1.46683 -0.22944,0.57343 -0.53719,1.0426 -0.68389,1.0426 -0.1467,0 -0.26673,0.11132 -0.26673,0.24736 0,0.13605 -0.13885,0.58254 -0.30856,0.99219 -0.1697,0.40966 -0.33342,0.83413 -0.3638,0.94327 -0.0304,0.10914 -0.085,0.25796 -0.12139,0.33073 -0.089,0.17802 -0.10294,0.23773 -0.5865,2.51354 -0.84073,3.9568 -1.02238,5.45758 -0.87986,7.26918 0.22354,2.84124 0.026,3.48844 -1.13812,3.72927 -0.53207,0.11007 -1.08646,0.21297 -1.23198,0.22866 -0.58682,0.0632 -1.62831,0.51273 -2.32464,1.00324 -0.40544,0.2856 -0.89389,0.54227 -1.08545,0.57039 -0.30248,0.0444 -1.05857,0.58709 -2.53768,1.82147 -0.21533,0.17971 -0.49207,0.29403 -0.61497,0.25404 -0.12291,-0.04 -0.16653,0.0196 -0.0969,0.13229 0.0696,0.11275 -0.39781,0.73919 -1.03867,1.39209 -0.64086,0.6529 -1.1652,1.33751 -1.1652,1.52136 0,0.18384 -0.10034,0.33426 -0.22298,0.33426 -0.23097,0 -1.06897,1.56153 -1.70388,3.175 -0.2485,0.63152 -0.33236,1.70372 -0.26366,3.37127 0.14249,3.45895 -0.19447,4.11053 -2.33124,4.5079 -1.00022,0.18601 -1.82932,0.52306 -2.22612,0.90497 -0.34776,0.33471 -0.72793,0.60316 -0.84481,0.59656 -0.27155,-0.0153 -1.93231,1.96282 -1.93231,2.30161 0,0.14034 -0.10265,0.19172 -0.22812,0.11418 -0.12547,-0.0776 -0.21477,0.11846 -0.19844,0.43557 0.0196,0.38087 0.25421,0.63356 0.69115,0.74445 0.91683,0.23269 3.52698,0.0114 5.42333,-0.45982 z m -32.161122,-9.04933 c 0.3039,-0.56784 0.009,-0.91394 -0.98819,-1.15826 -0.52373,-0.12837 -0.5823,-0.0706 -0.43064,0.4248 0.38099,1.24442 0.97973,1.55394 1.41883,0.73346 z m -129.62168,-4.70556 c 0.41381,-0.24444 0.96527,-0.83975 1.22547,-1.32291 0.2602,-0.48316 0.56909,-0.87848 0.68643,-0.87848 0.11734,0 0.46221,0.4218 0.76638,0.93734 0.92229,1.56317 0.87053,0.80763 -0.11327,-1.65328 -0.5116,-1.27972 -1.20152,-3.45786 -1.53317,-4.84031 -0.33164,-1.38245 -0.63497,-2.55608 -0.67406,-2.60809 -0.15837,-0.21066 -3.24784,1.73564 -4.74422,2.98878 -3.08588,2.58424 -4.10887,4.43223 -2.65548,4.79701 0.35216,0.0884 1.5385,-0.0724 2.63632,-0.35725 1.09783,-0.28487 2.05986,-0.45413 2.13785,-0.37614 0.078,0.078 0.14343,0.68751 0.14542,1.35448 0.007,2.43824 0.51596,2.90776 2.12233,1.95885 z m -7.72752,-13.5805 c 1.06647,-0.72669 2.22888,-1.394 2.58312,-1.48291 0.88042,-0.22097 1.43096,0.31191 1.43096,1.38504 0,0.74866 0.096,0.89365 0.59151,0.89365 0.32533,0 1.2183,-0.31712 1.98438,-0.70472 l 1.39286,-0.70473 0.002,-1.61038 c 0.002,-1.49958 0.24892,-4.05909 0.68892,-7.13764 l 0.18494,-1.29392 -9.284,0.12756 c -8.11183,0.11146 -9.36971,0.18373 -9.96293,0.57242 -0.75608,0.4954 -0.87778,1.25435 -0.29466,1.83747 0.21135,0.21135 0.33042,0.45798 0.26459,0.54807 -0.0658,0.0901 -0.0505,0.11442 0.0341,0.0541 0.0846,-0.0603 0.57496,0.17608 1.08969,0.52539 0.98111,0.6658 2.45561,1.16785 3.43724,1.17035 0.31884,7.9e-4 0.65007,0.11534 0.73608,0.25451 0.086,0.13916 0.33116,0.18595 0.54478,0.10398 0.26351,-0.10112 0.3884,0.0251 0.3884,0.39242 0,0.4475 -0.37878,0.65808 -2.18281,1.21348 -2.63666,0.81174 -3.97236,1.57857 -3.85184,2.21135 0.14273,0.74936 3.07273,0.76709 5.43745,0.0329 1.89066,-0.587 2.54187,-0.54428 2.04305,0.13404 -1.17019,1.5913 -1.21861,1.70922 -0.92618,2.25564 0.47912,0.89524 1.54417,0.66935 3.66834,-0.77804 z m 9.50642,-14.50495 c 0.18313,-0.11627 0.8631,-1.60872 1.51105,-3.31657 0.64795,-1.70785 1.6605,-3.99452 2.2501,-5.08149 l 1.07201,-1.97632 -0.70361,-0.26751 c -2.14363,-0.81501 -16.73555,-3.69014 -19.8745,-3.91599 l -2.44739,-0.17609 0.007,0.6637 c 0.008,0.78454 1.36115,2.29092 3.5158,3.91342 0.82757,0.62318 1.50467,1.24407 1.50467,1.37976 0,0.48759 -1.05393,0.79449 -2.72833,0.79449 -1.99451,0 -2.49162,0.34556 -2.01184,1.39855 0.36919,0.81029 1.11104,0.9827 4.22846,0.9827 1.28291,0 2.40347,0.11472 2.49012,0.25493 0.0867,0.14021 -0.0922,0.50472 -0.39753,0.81002 -0.30529,0.3053 -0.51476,0.75612 -0.46548,1.00183 0.0786,0.39198 0.42244,0.4352 2.80401,0.3525 3.13265,-0.10879 4.44203,0.22816 4.01165,1.03234 -0.39728,0.74232 -0.30719,1.49776 0.20488,1.71793 0.25466,0.1095 1.35599,0.28287 2.44739,0.38525 1.09141,0.1024 2.04391,0.20232 2.11667,0.22205 0.0728,0.0197 0.28212,-0.0592 0.46526,-0.1755 z m 135.256762,-5.59914 c 1.75515,-0.42105 3.18422,-1.70844 3.18422,-2.86852 0,-0.94701 -1.05564,-2.28029 -2.74135,-3.46232 -1.07508,-0.75386 -9.960072,-5.31304 -10.354112,-5.31304 -0.11053,0 -1.04904,-0.39657 -2.08556,-0.88127 -2.59356,-1.21279 -4.5542,-2.01069 -6.11793,-2.48973 -0.72761,-0.2229 -1.41039,-0.53788 -1.51731,-0.69995 -0.10691,-0.16207 -0.19621,-0.21735 -0.19843,-0.12285 -0.002,0.0945 -1.1964,-0.23292 -2.65371,-0.7276 -1.45731,-0.49469 -2.82653,-0.89943 -3.04271,-0.89943 -0.21618,0 -0.39305,-0.11906 -0.39305,-0.26459 0,-0.14552 -0.0893,-0.25048 -0.19844,-0.23325 -0.10914,0.0172 -0.25797,0.008 -0.33073,-0.0202 -0.0728,-0.0284 -0.37041,-0.0944 -0.66146,-0.14665 -1.08877,-0.19562 -2.6603,-0.76436 -3.07574,-1.11311 -0.23644,-0.1985 -0.5341,-0.33671 -0.66145,-0.30714 -0.12736,0.0296 -0.56897,-0.0854 -0.98136,-0.25544 -0.4124,-0.17006 -0.85066,-0.24687 -0.97391,-0.1707 -0.12325,0.0762 -0.28761,0.0357 -0.36524,-0.0899 -0.0776,-0.12561 -0.51082,-0.23888 -0.96266,-0.25173 -0.45184,-0.0129 -0.9621,-0.138 -1.13391,-0.27812 -0.58772,-0.4793 -3.34768,-1.24165 -6.79468,-1.87681 -0.80037,-0.14748 -1.96846,-0.46292 -2.59577,-0.70098 -0.6273,-0.23806 -1.20065,-0.37274 -1.27411,-0.29928 -0.0735,0.0734 -1.04848,-0.14339 -2.16674,-0.48188 -1.11824,-0.33849 -2.39036,-0.64937 -2.82693,-0.69084 -0.43656,-0.0415 -0.92032,-0.16533 -1.07501,-0.27521 -0.26791,-0.19029 -0.7444,-0.28407 -3.15832,-0.62159 -0.58208,-0.0814 -1.60492,-0.31755 -2.27298,-0.52479 -0.66805,-0.20725 -1.72681,-0.44117 -2.3528,-0.51982 -0.62599,-0.0786 -1.65376,-0.31805 -2.28394,-0.532 -0.63019,-0.21396 -1.3276,-0.31924 -1.5498,-0.23397 -0.22221,0.0853 -0.40402,0.0386 -0.40402,-0.10377 0,-0.2356 -2.0018,-0.67631 -3.31393,-0.7296 -0.29469,-0.012 -0.67549,-0.10809 -0.84622,-0.21361 -0.17073,-0.10551 -1.1125,-0.25586 -2.09282,-0.33411 -0.98031,-0.0782 -2.32592,-0.25571 -2.99023,-0.39437 -1.65618,-0.34569 -2.43758,-0.44648 -5.0443,-0.65061 -1.23693,-0.0969 -2.39257,-0.29311 -2.5681,-0.4361 -0.17552,-0.14298 -0.44054,-0.18493 -0.58893,-0.0932 -0.14839,0.0917 -1.85025,-0.011 -3.7819,-0.22815 -1.93166,-0.21718 -4.52414,-0.40837 -5.76107,-0.42486 -1.23693,-0.0165 -2.9633301,-0.0667 -3.8364601,-0.11148 -8.46329001,-0.43449 -26.0823999,0.37563 -33.9184599,1.55956 -3.83892,0.58001 -7.87336,1.4635 -7.97389,1.74618 -0.0485,0.13638 -0.27038,0.24797 -0.49306,0.24797 -0.31529,0 -0.36719,0.19022 -0.23459,0.8599 0.0936,0.47294 0.17409,1.06826 0.17877,1.32292 0.005,0.25466 0.10105,0.46302 0.21417,0.46302 0.32832,0 0.84426,1.33155 0.64842,1.67347 -0.0979,0.171 -0.0926,0.23458 0.0119,0.1413 0.2448,-0.21855 2.01153,1.59274 2.01153,2.06227 0,0.19596 0.11906,0.35629 0.26458,0.35629 0.14552,0 0.47687,0.20836 0.73634,0.46302 0.25946,0.25466 0.904,0.78864 1.4323,1.18662 0.52831,0.39798 1.12151,0.87423 1.31823,1.05834 0.19671,0.1841 0.80233,0.56184 1.34582,0.83941 0.54348,0.27758 0.98815,0.605 0.98815,0.72761 0,0.1226 0.16197,0.22292 0.35995,0.22292 0.19797,0 0.82011,0.31227 1.38252,0.69393 1.54612,1.04923 2.32447,1.07633 3.34849,0.11657 0.47419,-0.44443 0.99493,-0.80861 1.15721,-0.80928 0.16228,-7.9e-4 0.57899,-0.22419 0.92604,-0.4967 1.76347,-1.38473 8.2921699,-3.31113 13.4770199,-3.97661 5.19995,-0.66741 20.2402601,-0.24246 26.5084501,0.74897 0.91077,0.14405 2.96563,0.45586 4.56636,0.6929 1.60072,0.23704 3.74385,0.59444 4.7625,0.79421 2.31499,0.45402 11.04665,2.51043 11.28504,2.65776 0.097,0.06 1.76477,0.51682 3.7061,1.01522 5.53117,1.42005 15.87044,4.65104 18.60166,5.81297 0.44167,0.18789 1.27928,0.4921 1.86136,0.67602 1.18287,0.37375 6.63815,2.46691 8.06979,3.09634 0.50932,0.22392 1.40229,0.62246 1.98438,0.88563 0.58208,0.26318 1.35599,0.56308 1.71979,0.66644 1.07386,0.30512 5.71486,2.74507 6.16461,3.24097 0.37157,0.4097 1.26859,0.46655 8.74489,0.55422 5.98445,0.0702 8.712962,0.006 9.687522,-0.22777 z m 55.82872,-3.24101 c 2.54257,-2.64054 3.03428,-3.59257 1.03984,-2.01328 -1.44708,1.14586 -3.11418,2.93988 -3.86313,4.15722 -0.71567,1.16327 -0.78692,1.67275 -0.13357,0.95522 0.26132,-0.287 1.59191,-1.68162 2.95686,-3.09916 z m -75.605572,-17.6717 c 0.0653,-0.44475 0.0381,-0.85845 -0.0604,-0.91934 -0.21781,-0.13461 -0.78995,1.63433 -0.59247,1.83181 0.26676,0.26677 0.53482,-0.10785 0.65292,-0.91247 z m -1.64313,-1.36139 c 0.43544,-0.89891 0.7917,-1.79188 0.7917,-1.98437 0,-0.47073 0.39961,-0.44175 0.90715,0.0658 0.22867,0.22868 0.41577,0.33118 0.41577,0.22778 0,-0.39002 -3.04311,-3.63427 -4.00773,-4.27263 -1.20615,-0.79819 -1.69839,-0.67172 -1.95521,0.50235 -0.1056,0.48277 -0.59574,1.93675 -1.08919,3.23106 -0.49345,1.29431 -0.86187,2.38861 -0.8187,2.43178 0.17568,0.17568 4.0681,1.40072 4.49944,1.41608 0.3151,0.0112 0.72034,-0.51043 1.25677,-1.61783 z m 5.4697,-0.16808 c 1.96164,-4.43562 0.332,-7.64292 -5.36697,-10.562751 -2.72915,-1.39826 -5.7968,-2.71603 -6.32266,-2.71603 -0.37736,0 -1.02213,2.6554 -0.71849,2.95904 0.12081,0.120811 1.4035,0.668751 2.85041,1.217631 3.18659,1.20882 5.30173,2.56929 6.81618,4.3842 2.20375,2.64095 2.21014,2.66373 1.60114,5.70162 -0.2691,1.3424 0.34653,0.81135 1.14039,-0.98371 z m -12.57853,-1.30639 c 0.23451,-0.5457 0.68606,-2.05274 1.00346,-3.34898 0.65258,-2.6651 0.64011,-2.69987 -1.22603,-3.41836 l -1.11164,-0.428 -0.542,0.76118 c -0.2981,0.41864 -0.542,0.83463 -0.542,0.92443 0,0.37879 -1.50785,2.49134 -2.58833,3.62635 -1.36121,1.42993 -1.35721,1.43584 1.52146,2.24543 2.86427,0.80555 2.98889,0.79261 3.48508,-0.36205 z m -8.63301,-1.87687 c 3.94329,-2.40477 6.0836,-8.220361 5.17606,-14.064272 -0.58119,-3.742489 -3.84491,-9.575953 -6.69718,-11.970326 -2.02193,-1.697342 -5.75783,-3.640584 -5.75783,-2.994961 0,0.06378 0.36668,0.510264 0.81486,0.992187 2.67449,2.875902 4.6983,7.530764 5.25119,12.077977 0.35239,2.898241 -0.0907,6.134234 -1.22928,8.978455 l -0.69246,1.72971 0.60299,0.48827 c 0.33164,0.26855 0.70472,0.48827 0.82905,0.48827 0.43796,0 2.0327,-1.59211 2.4427,-2.43865 l 0.41493,-0.856751 0.28844,0.758661 c 0.2276,0.59861 0.20711,0.84854 -0.0971,1.18468 -0.21205,0.23431 -0.39161,0.51657 -0.39904,0.62723 -0.0587,0.87596 -3.27908,4.429 -4.01428,4.429 -0.45035,0 -0.2481,0.40129 0.35205,0.69852 0.91082,0.4511 1.83689,0.40743 2.71489,-0.128 z m -8.91194,-3.04989 c 0.15245,-1.33399 -0.17774,-2.02827 -1.15976,-2.43858 -0.75825,-0.31682 -1.03322,-0.32546 -1.54961,-0.0487 -0.66606,0.35696 -3.166,2.58941 -3.01994,2.6968 0.3308,0.24322 2.98736,0.61467 4.1873,0.58547 1.39606,-0.034 1.45873,-0.0663 1.54201,-0.79498 z m 32.58923,-1.1249 c 0,-0.34599 -0.10632,-0.62906 -0.23627,-0.62906 -0.2916,0 -0.55748,0.6567 -0.55748,1.37695 0,0.44993 0.0662,0.48502 0.39688,0.21055 0.21828,-0.18116 0.39687,-0.61246 0.39687,-0.95844 z m -29.53516,-0.95495 c 2.85387,-5.171791 3.26345,-11.678689 1.02686,-16.313231 -0.71953,-1.490972 -1.50798,-2.557172 -3.03598,-4.105516 -1.13521,-1.150329 -2.13912,-2.016408 -2.2309,-1.924621 -0.0918,0.09178 -0.0479,0.318587 0.0975,0.504004 0.42142,0.53743 1.61182,3.885015 2.04863,5.761083 0.22024,0.945885 0.40219,2.874504 0.40434,4.285821 0.005,2.983309 -0.75507,5.834519 -2.13331,8.007359 -0.46854,0.73867 -0.7096,1.35406 -0.55111,1.40689 0.94157,0.31386 2.11142,1.420041 2.65026,2.506041 0.34286,0.69101 0.70005,1.25467 0.79375,1.25258 0.0937,-0.002 0.5122,-0.62328 0.92999,-1.38041 z m -10.41692,0.1777 c 0.65485,-0.42782 1.32199,-0.83739 1.48255,-0.91015 0.71805,-0.3254 3.12588,-3.457801 3.95863,-5.149871 2.31318,-4.70012 2.18804,-10.563197 -0.32234,-15.103574 -1.05178,-1.902282 -3.4183,-4.109825 -5.58676,-5.21146 -1.85842,-0.944123 -1.89336,-0.950447 -5.00127,-0.905037 -3.01406,0.04404 -3.20549,0.0817 -5.17818,1.018818 -1.54917,0.73592 -2.48422,1.422016 -3.83646,2.815027 -1.87509,1.931611 -2.70587,2.871361 -2.72626,3.083837 -0.007,0.0698 -0.28965,0.754409 -0.62878,1.521354 -1.01335,2.291718 -1.56995,5.299094 -1.37298,7.418395 0.21187,2.279698 1.25488,5.46493 2.29335,7.00365 0.42841,0.63478 0.77892,1.2061 0.77892,1.26961 0,0.0635 0.44649,0.53046 0.99219,1.037691 1.07052,0.99503 2.91595,1.70518 6.15156,2.36721 3.13434,0.64131 3.18789,0.64693 5.55625,0.58303 1.98671,-0.0536 2.38779,-0.15137 3.43958,-0.83853 z m -9.43922,-2.349351 c -2.25846,-0.70617 -4.40983,-2.55197 -5.02141,-4.308188 -0.5447,-1.56415 -0.45312,-5.788797 0.16917,-7.803528 1.00505,-3.253988 3.76696,-6.404472 6.75084,-7.700639 1.31226,-0.570032 3.52198,-0.929883 4.96094,-0.807884 1.03548,0.08779 3.10885,1.185669 3.10885,1.646182 0,0.484132 -0.38911,0.548775 -0.97854,0.162568 -0.71691,-0.469739 -1.33107,-0.276641 -0.87354,0.27465 0.36253,0.43683 -0.0245,0.710737 -0.5418,0.383469 -1.22453,-0.774644 -5.32756,0.255654 -7.33394,1.841598 -2.82919,2.236353 -4.39315,8.053247 -2.94366,10.948495 1.74066,3.476827 5.22717,4.521927 9.05085,2.713037 1.67304,-0.79147 2.78741,-1.942714 3.78379,-3.908973 0.63061,-1.244451 1.45728,-4.79712 1.34028,-5.759918 -0.0265,-0.218281 0.0708,-0.456406 0.21635,-0.529166 0.15322,-0.07661 0.36704,0.630277 0.508,1.679395 0.19341,1.439561 0.15042,2.199121 -0.20929,3.697901 -0.48517,2.021565 -1.82227,4.412291 -2.46773,4.412291 -0.21673,0 -0.45345,0.22711 -0.52604,0.5047 -0.12956,0.49542 -0.75378,0.82268 -1.80286,0.94519 -0.93325,0.10898 -2.02147,0.65727 -1.85123,0.93273 0.18663,0.30198 -0.26063,0.52107 -1.28717,0.63051 -0.38439,0.041 -0.77808,0.1537 -0.87487,0.25048 -0.28041,0.280421 -1.97426,0.171171 -3.17699,-0.2049 z m 46.34371,-0.12605 c 0.16277,-0.74107 -0.27269,-1.87433 -0.72022,-1.87433 -0.11051,0 -0.20094,-0.23813 -0.20094,-0.52917 0,-0.29104 0.10616,-0.52916 0.2359,-0.52916 0.12975,0 0.31163,-0.30171 0.40418,-0.67046 0.25423,-1.012927 1.31067,-1.393731 2.27926,-0.821575 0.57714,0.340932 0.90337,0.388874 1.27881,0.187944 0.52643,-0.281736 1.74984,-2.135496 1.40935,-2.135496 -0.10752,0 -0.42503,-0.446485 -0.70558,-0.992188 -0.28054,-0.545703 -0.68326,-1.200547 -0.89492,-1.455208 -0.3011,-0.36226 -0.30942,-0.463021 -0.0383,-0.463021 0.26371,0 0.24988,-0.110731 -0.0578,-0.463021 -0.22244,-0.254661 -0.54327,-0.89585 -0.71297,-1.424866 -0.38189,-1.190516 -2.63121,-3.582445 -3.59673,-3.824776 -0.43865,-0.110096 -1.03722,-0.02691 -1.54736,0.215034 -1.14247,0.541841 -1.98425,0.348803 -3.07795,-0.705842 l -0.92903,-0.895845 -1.14891,0.547812 c -0.79692,0.379982 -1.44051,0.986994 -2.10069,1.981311 -0.52349,0.788424 -1.2567,1.591173 -1.62937,1.783887 l -0.67758,0.350388 0.15977,3.00392 c 0.0879,1.652159 0.24279,3.265501 0.34427,3.585207 0.12628,0.397897 0.65809,0.758481 1.68562,1.142931 1.87139,0.700174 2.97002,0.927894 2.97002,0.615614 0,-0.13189 -0.58998,-0.858353 -1.31105,-1.614357 -1.48907,-1.561203 -2.00769,-2.979754 -1.75729,-4.806638 0.19542,-1.425691 0.70487,-2.252011 1.82594,-2.96165 0.72219,-0.457147 1.13496,-0.513988 2.82989,-0.389681 2.83197,0.207692 3.83424,0.565586 5.17109,1.846511 0.95493,0.914992 1.17891,1.305203 1.17891,2.053865 0,1.085964 -0.7372,3.399779 -1.0832,3.399779 -0.13184,0 -0.23971,0.15208 -0.23971,0.337958 0,0.344003 -1.48158,1.778713 -1.83682,1.778713 -0.24351,0 -0.80902,1.21395 -0.80902,1.73669 0,0.46361 2.33357,2.761221 2.80444,2.761221 0.18069,0 0.40477,-0.34717 0.49797,-0.771501 z m -59.48795,-0.61756 c -0.70136,-0.98705 -1.52231,-2.91122 -1.72149,-4.034896 l -0.18759,-1.058333 -4.62091,0.06701 c -5.10777,0.07407 -5.81155,0.161599 -5.81155,0.722804 0,0.533316 -0.8452,2.252895 -1.10733,2.252895 -0.11857,0 -0.21558,0.29036 -0.21558,0.64525 0,0.74868 -0.46029,0.6602 7.40833,1.42416 7.22312,0.7013 6.76884,0.70267 6.25612,-0.0189 z m 64.85227,-1.5875 c 1.7567,-3.482943 4.21882,-9.3331 4.97882,-11.830015 l 0.35932,-1.180537 -1.14078,-1.068421 c -1.30076,-1.218245 -1.75159,-1.952662 -1.75159,-2.853415 0,-0.90946 0.93665,-2.71109 1.73661,-3.340335 0.68519,-0.538973 0.91327,-0.632307 2.29829,-0.940539 0.64825,-0.144264 0.7276,-0.279532 0.7276,-1.240287 0,-1.080317 -0.97514,-4.748289 -1.32846,-4.996971 -0.10337,-0.07276 -0.45827,-0.665324 -0.78867,-1.316807 -0.96215,-1.897216 -2.57551,-3.938913 -5.07634,-6.424075 -1.28234,-1.27431 -2.33153,-2.435169 -2.33153,-2.579688 0,-0.14452 -0.12023,-0.262762 -0.26719,-0.262762 -0.14696,0 -1.12922,-0.690409 -2.18281,-1.534245 -1.05359,-0.843836 -2.74906,-2.116571 -3.7677,-2.828303 -1.01865,-0.711732 -1.91162,-1.374492 -1.98438,-1.472803 -0.0728,-0.09831 -0.37919,-0.255686 -0.68096,-0.349724 -0.30177,-0.09404 -0.77802,-0.378915 -1.05833,-0.633058 -0.78023,-0.707384 -8.10329,-4.375898 -11.22529,-5.623348 -3.51406,-1.404104 -6.70628,-2.450113 -9.32656,-3.056075 -1.12779,-0.260807 -2.05052,-0.578519 -2.05052,-0.706019 0,-0.127503 -0.12037,-0.157433 -0.26748,-0.06651 -0.14711,0.09092 -1.12938,-0.02342 -2.18281,-0.254069 -1.05344,-0.230658 -3.64174,-0.707176 -5.7518,-1.058931 -3.56783,-0.59477 -4.35518,-0.632031 -11.24479,-0.532135 -4.07458,0.05908 -7.82505,0.169492 -8.33437,0.245358 -0.50933,0.07587 -1.28323,0.184351 -1.71979,0.241075 -0.43657,0.05672 -0.97235,0.165685 -1.19063,0.242131 -0.21828,0.07645 -1.17078,0.282649 -2.11667,0.458221 -3.19177,0.592453 -7.56582,1.971326 -10.47589,3.302421 -1.36033,0.622226 -4.33849,2.513515 -3.95797,2.513515 0.0977,0 0.0843,0.148828 -0.0298,0.330729 -0.11404,0.181901 -0.24632,0.628386 -0.29396,0.992188 -0.0476,0.363802 -0.2682001,1.73302 -0.4901401,3.042708 -0.22195,1.309687 -0.45344,2.976562 -0.51442,3.704166 -0.061,0.727604 -0.19089,1.739636 -0.28869,2.248959 -0.0978,0.509322 -0.15828,1.013838 -0.13439,1.121145 0.0239,0.107307 -0.0739,1.059807 -0.2172,2.116666 -0.14333,1.05686 -0.50719,4.362344 -0.80856,7.345521 -0.30138,2.983177 -0.57055,5.59988 -0.59817,5.814896 -0.0276,0.215016 0.0688,0.399463 0.21436,0.409879 1.3315,0.09534 3.9846001,2.508258 4.2767601,3.889603 0.22758,1.075962 0.58142,1.235167 2.20553,0.992335 4.50885,-0.67415 6.22603,-0.7913 11.57553,-0.789712 3.34751,0.0011 5.88697,-0.10178 5.88697,-0.238249 0,-0.559703 3.93993,-4.661742 5.42396,-5.647134 2.57198,-1.707788 5.53924,-2.555076 9.00115,-2.57024 2.25513,-0.0099 5.54902,0.731928 6.74156,1.51824 0.3638,0.23988 0.78052,0.459304 0.92604,0.487614 4.49092,0.873681 8.4021,2.186329 10.20068,3.423499 0.51714,0.355725 1.02213,0.646769 1.12219,0.646769 0.64217,0 3.91426,2.933015 6.19859,5.55625 0.95041,1.091406 2.07377,2.263783 2.49637,2.60528 0.91111,0.736264 1.08651,0.639556 2.63036,-1.450271 0.55223,-0.747535 1.43204,-1.623663 1.95513,-1.94695 1.03134,-0.637402 1.5758,-0.618026 3.5748,0.127215 0.85255,0.317836 1.3136,0.367215 1.62368,0.173897 0.72268,-0.45053 3.40434,0.340567 5.20199,1.534594 0.88326,0.586679 1.69545,1.21153 1.80486,1.388557 0.33466,0.541486 0.38088,1.801011 0.0661,1.801011 -0.21658,0 -0.2166,0.09417 -7e-5,0.355073 0.16208,0.195289 0.20642,0.452504 0.0985,0.571585 -0.10787,0.119084 -0.0643,0.141388 0.0968,0.04956 0.37441,-0.213405 1.7918,2.351559 1.53187,2.772135 -0.12918,0.20901 -0.0481,0.255162 0.24849,0.141367 0.24215,-0.09292 0.44027,-0.05362 0.44027,0.08733 0,0.140954 0.18757,0.256281 0.41682,0.256281 0.29684,0 0.39484,0.209473 0.34048,0.727763 -0.042,0.400269 10e-4,0.853326 0.0961,1.006792 0.24777,0.40091 -0.20614,2.200392 -0.68599,2.71948 -1.8723,2.02542 -2.0609,2.36602 -1.66299,3.00317 0.16497,0.26416 0.36679,0.4803 0.44848,0.4803 0.0817,0 0.52384,-0.74415 0.98257,-1.65365 z m -98.7573501,0.61131 c 3.22293,-0.37239 4.91328,-1.28177 7.62584,-4.102625 0.84723,-0.881054 1.71349,-1.929336 1.92502,-2.329518 0.21154,-0.400183 0.50061,-0.727604 0.6424,-0.727604 0.14178,0 0.25779,-0.151083 0.25779,-0.335741 0,-0.184655 0.35581,-1.182608 0.7907,-2.217671 1.20007,-2.856251 1.49545,-5.389612 0.92679,-7.948678 -0.58205,-2.619267 -1.64676,-4.843481 -3.20523,-6.695826 -0.67339,-0.800365 -1.26009,-1.395677 -1.30379,-1.322917 -0.0437,0.07276 -0.50504001,-0.244501 -1.02521001,-0.705027 -0.52017,-0.460523 -0.94576,-0.799597 -0.94576,-0.753496 0,0.0461 -0.55470999,-0.08312 -1.23267999,-0.287163 -1.61574,-0.486267 -5.14315,-0.473125 -7.06058,0.0263 -1.5684499,0.408533 -4.6394799,1.897457 -5.6227699,2.726092 -2.08195,1.754479 -4.66209,6.260997 -5.41895,9.464812 -0.50341,2.130986 -0.42763,6.618822 0.1404,8.313899 0.49359,1.472943 1.96432,4.018595 2.52019,4.362143 0.16657,0.102947 0.40946,0.46756 0.53976,0.81026 0.61002,1.60448 5.08395,2.34232 10.4460799,1.72276 z m -5.1688199,-3.570574 c -0.21308,-0.208767 -1.16133,-0.776322 -2.10722,-1.261232 -1.57664,-0.80827 -1.75854,-0.991399 -2.18539,-2.200111 -0.35667,-1.00997 -0.44766,-1.968465 -0.38891,-4.09658 0.0703,-2.545083 0.15028,-2.922389 0.95383,-4.497917 1.04027,-2.039667 1.5454,-2.658033 2.02191,-2.475177 0.37181,0.142677 0.9161,-0.647977 0.75497,-1.096697 -0.15043,-0.418926 2.7805099,-2.390892 3.4290499,-2.307101 1.21614,0.157123 2.61815,0.07326 2.91663,-0.174456 0.20366,-0.169023 0.75974,-0.163247 1.60322,0.01664 1.11332,0.237447 1.32547,0.214574 1.53837,-0.165857 0.19717,-0.352322 0.32448,-0.376949 0.63149,-0.122153 0.30196,0.250606 0.53099,0.240758 1.06654,-0.04585 0.63732999,-0.341093 0.72328999,-0.31338 1.31257999,0.423138 0.67284,0.840951 0.789,1.322078 0.38018,1.574742 -0.38493,0.2379 0.004,0.983892 0.42794,0.82115 0.47731001,-0.183163 0.88343001,0.864184 0.88343001,2.278319 0,0.891942 -0.0629,1.021328 -0.37173,0.765005 -0.31042,-0.25763 -0.38884,-0.05574 -0.47557001,1.224376 -0.0571,0.843081 -0.0339,1.83053 0.0515,2.194332 0.20778,0.884523 0.0288,1.899864 -0.29918003,1.697164 -0.14485,-0.08952 -0.24129,-0.0021 -0.21432,0.194514 0.0936,0.682189 -0.015,1.049121 -0.26496,0.894652 -0.27562,-0.170344 -0.90761,0.815609 -0.92708,1.446318 -0.007,0.217905 -0.1313,0.396499 -0.27682,0.396875 -0.14551997,2.64e-4 -0.53246997,0.268576 -0.85989997,0.595998 -0.32742,0.327421 -0.71063,0.595312 -0.85159,0.595312 -0.14095,0 -0.19237,0.16655 -0.11425,0.370112 0.19415,0.50595 -0.37344,0.820513 -1.48052,0.820513 -0.56139,0 -0.92542,0.129569 -0.92604,0.329607 -0.002,0.50695 -2.35469,1.643415 -3.34901,1.617448 -0.48695,-0.0127 -1.22053,0.109543 -1.6301799,0.271685 -0.91021,0.360257 -0.78617,0.368676 -1.249,-0.08477 z m 4.4074899,-2.621481 c 2.77229,-1.16908 5.07985,-3.5457 6.07746999,-6.259359 0.24073,-0.654843 0.45278,-2.024062 0.4712,-3.042708 0.0606,-3.352083 -1.29060999,-4.894791 -4.28728999,-4.894791 -3.5328,0 -6.5287199,2.025694 -8.3747099,5.662585 -1.58437,3.121464 -1.55139,6.346389 0.0838,8.198043 1.20464,1.364073 3.3132699,1.481659 6.0294899,0.33623 z m 18.8193801,5.845325 c 1.52311,-1.6323 2.52775,-4.849592 2.40342,-7.696869 -0.0487,-1.115287 -0.004,-2.02752 0.0996,-2.027181 0.22443,7.93e-4 1.00243,2.524802 1.00243,3.252178 0,0.479936 0.15444,0.500298 2.64584,0.348854 1.45521,-0.08846 3.83646,-0.233207 5.29166,-0.321665 2.31903,-0.140967 2.64584,-0.220065 2.64584,-0.640376 0,-1.261184 2.29002,-6.741509 3.00502,-7.19142 0.21903,-0.137827 0.21553,-0.26974 -0.0133,-0.498517 -0.35589,-0.355891 -12.23213,-0.168688 -13.83239,0.218035 l -0.91874,0.222028 -0.46192,3.788825 c -0.52049,4.269314 -1.18763,6.975543 -2.29036,9.290758 -0.69593,1.46112 -0.76056,1.85067 -0.30705,1.85067 0.0959,0 0.42434,-0.2679 0.72986,-0.59532 z M 9.2538979,94.952924 c 1.5492201,-3.245937 2.1919101,-6.242396 1.9964901,-9.308438 -0.18973,-2.976866 -0.84812,-4.576622 -2.6719301,-6.492303 l -1.23592,-1.29817 0.20912,1.695045 c 0.5363,4.347096 -0.0304,8.039877 -1.76325,11.489147 -0.57456,1.143698 -1.01745,2.086808 -0.98421,2.095799 1.18498,0.320463 2.35376,2.074317 2.30097,3.452815 -0.0595,1.55424 -0.0423,1.58628 0.5588,1.04225 0.30271,-0.27394 1.01817,-1.47821 1.58993,-2.676145 z m -3.901,1.818025 c -0.0447,-0.958894 -0.72858,-1.900808 -1.38007,-1.900808 -0.41918,0 -2.94464,2.318678 -2.94464,2.703538 0,0.11544 0.98226,0.17945 2.18281,0.14224 l 2.18281,-0.0677 z m 25.3086201,0.91797 c 0,-0.0504 -0.18742,-0.46733 -0.41648,-0.92649 -0.47914,-0.960475 -1.10158,-4.094584 -1.34791,-6.787079 l -0.16944,-1.852083 -0.36281,1.190625 c -0.57647,1.891747 -0.72306,4.08864 -0.35947,5.387239 0.36101,1.289418 1.68545,3.079428 2.27849,3.079428 0.20769,0 0.37762,-0.0412 0.37762,-0.0916 z m 53.50106,-2.759627 2.35994,-2.3221 -0.18334,-1.382067 c -0.10399,-0.783907 -0.31876,-1.382067 -0.49624,-1.382067 -0.17209,0 -0.59633,-0.264056 -0.94274,-0.586793 -0.34642,-0.322736 -0.82417,-0.616447 -1.06166,-0.652692 -0.23749,-0.03624 -1.13262,-0.248436 -1.98917,-0.471541 -2.01858,-0.525772 -2.29642,-0.513199 -3.12886,0.141595 -0.52846,0.415687 -0.68014,0.749596 -0.63099,1.389062 0.0429,0.558186 -0.0467,0.819542 -0.26603,0.775682 -0.1819,-0.03638 -0.33072,0.125185 -0.33072,0.359037 0,0.269237 0.14556,0.369324 0.39687,0.272886 0.28449,-0.109167 0.39688,0.0266 0.39688,0.479419 0,0.669706 0.78992,2.257603 1.12447,2.260423 0.10914,7.94e-4 0.19844,0.133366 0.19844,0.294322 0,0.160957 0.3073,0.534371 0.68289,0.82981 0.47527,0.373846 0.63952,0.703004 0.54024,1.082641 -0.14822,0.56679 0.23018,1.23448 0.69963,1.23448 0.14875,0 1.33243,-1.04494 2.63039,-2.322097 z"
       id="path236" /></g></svg>
