<?xml version="1.0" encoding="UTF-8" standalone="no"?>
<!-- Created with Inkscape (http://www.inkscape.org/) -->

<svg
   width="155.49483mm"
   height="229.96844mm"
   viewBox="0 0 155.49482 229.96845"
   version="1.1"
   id="svg5"
   xml:space="preserve"
   xmlns="http://www.w3.org/2000/svg"
   xmlns:svg="http://www.w3.org/2000/svg"><defs
     id="defs2" /><g
     id="layer1"
     transform="translate(40.203655,-33.842075)"><path
       style="fill:#000000;stroke-width:0.264583"
       d="m 76.330866,263.76208 c -2.835,-0.2199 -8.37484,-0.94972 -11.97889,-1.5781 -10.35679,-1.80574 -18.91591,-5.71361 -25.63021,-11.70209 -2.54327,-2.26834 -6.22482,-6.43326 -6.98172,-7.8984 -0.21359,-0.41345 -0.69949,-1.22797 -1.07978,-1.81005 -2.36646,-3.62219 -4.35576,-8.93553 -5.1279,-13.69643 -0.45695,-2.81743 -0.51605,-8.76894 -0.10441,-10.51295 0.15456,-0.65484 0.33567,-1.48828 0.40246,-1.85208 0.2588,-1.40969 1.73484,-4.08014 2.84107,-5.14007 2.66539,-2.5538 6.5166,-2.26017 9.38901,0.71587 0.63389,0.65677 1.13991,1.29581 1.12448,1.4201 -0.0154,0.12429 0.0677,0.22598 0.18475,0.22598 0.11705,0 1.09931,0.85556 2.18281,1.90125 1.0835,1.04569 2.44601,2.22301 3.02781,2.61625 1.61018,1.08834 6.00755,3.5927 6.4702,3.68485 0.22522,0.0449 1.05539,0.33752 1.84482,0.65034 2.84381,1.12689 9.28029,2.45372 9.28029,1.91305 0,-0.12798 -0.25225,-0.4595 -0.56055,-0.73672 -1.52871,-1.37457 -6.09289,-8.86682 -6.19014,-10.16132 -0.005,-0.0728 -0.2001,-0.42994 -0.43253,-0.79375 -0.23242,-0.3638 -0.9437,-2.00015 -1.58062,-3.63634 l -1.15803,-2.97488 -1.45521,-0.004 c -8.31639,-0.0252 -18.49437,-2.67772 -23.99557,-6.25358 -0.84519,-0.5494 -1.59625,-1.00415 -1.66901,-1.01056 -0.21851,-0.0193 -1.90394,-1.24126 -3.20179,-2.32141 l -1.21741,-1.01319 -1.06657,1.06656 c -1.14851,1.14852 -2.15256,1.37541 -3.12046,0.70517 -0.47661,-0.33004 -0.63797,-0.23757 -1.85954,1.06565 -0.73571,0.78488 -1.297,1.4677 -1.24731,1.51739 0.0497,0.0497 -0.34795,0.29831 -0.88363,0.55251 -0.89875,0.42648 -1.04185,0.4298 -1.85306,0.043 -0.7872802,-0.37543 -0.9027702,-0.37689 -1.1058302,-0.014 -0.19446,0.34749 -0.61776,0.5292 -1.43558,0.61628 -0.10457,0.0111 -0.12346,0.19397 -0.042,0.40631 0.2078,0.54153 -1.39646,1.46404 -2.54601,1.46404 -0.50932,0 -1.30211,-0.22932 -1.76175,-0.50959 -0.82516,-0.50314 -0.84156,-0.50313 -1.29778,0.001 -0.25414,0.28081 -0.62923,0.51057 -0.83355,0.51057 -0.20431,0 -0.30595,0.10604 -0.22585,0.23565 0.24966,0.40394 -1.13641001,1.1079 -2.49921,1.2693 -1.5728,0.18628 -2.39721,-0.25817 -3.13063,-1.68773 -0.49768,-0.97009 -0.49886,-0.9706 -2.1001,-0.90525 -2.69097,0.10982 -4.3542288,-1.16561 -4.4577148,-3.41831 -0.03916,-0.85249 -0.25096,-1.55831 -0.601232,-2.00361 -0.803367,-1.02131 -0.958085,-2.31062 -0.440052,-3.66708 0.243314,-0.6371 0.614228,-1.30098 0.824257,-1.47529 0.295767,-0.24547 0.344897,-0.71476 0.217887,-2.08133 l -0.163984,-1.7644 0.9862338,-0.86592 c 0.542431,-0.47626 1.747805,-1.24147 2.678605,-1.70047 0.93081,-0.45907 1.69237,-0.98766 1.69237,-1.17471 0,-0.18704 -0.12481,-0.34008 -0.27735,-0.34008 -0.15255,0 -0.43567,-0.37652 -0.62917,-0.83671 -0.34368,-0.81738 -0.35886,-0.82351 -0.65753,-0.26544 -0.28877,0.53958 -2.066073,1.63131 -2.655715,1.63131 -0.3995418,0 -1.3364818,-0.86045 -1.3364818,-1.22738 0,-0.5349 -0.586295,-0.54908 -1.640657,-0.0397 -1.850491,0.89405 -2.478051,0.89321 -3.375827,-0.005 -0.479896,-0.4799 -0.804349,-1.07938 -0.804349,-1.48617 0,-0.80351 -0.152135,-0.82964 -1.348412,-0.23163 -0.981216,0.4905 -3.528226,0.76968 -4.590218,0.50314 -1.048511,-0.26316 -2.492021,-1.69776 -2.824326,-2.80689 l -0.302826,-1.01075 -1.883255,0.13631 c -1.67194,0.12101 -1.984433,0.0665 -2.784968,-0.48607 -1.348724,-0.93091 -1.935594,-1.88512 -2.07931,-3.38079 -0.11848,-1.23305 -0.185648,-1.34427 -0.822951,-1.36276 -1.658785,-0.0481 -3.518345,-1.23125 -4.032175,-2.56545 -0.152871,-0.39694 -0.204346,-1.28726 -0.11439,-1.97848 0.128237,-0.98537 0.08253,-1.25677 -0.211642,-1.25677 -0.206361,0 -0.805774,-0.4766 -1.33203,-1.0591 -1.149792,-1.27268 -1.240896,-2.26687 -0.309194,-3.37414 0.604098,-0.71793 0.63196,-0.88057 0.414446,-2.41942 -0.128254,-0.90735 -0.37132,-1.81617 -0.540146,-2.0196 -0.5387,-0.64909 -0.06844,-2.34603 0.790787,-2.85359 0.414314,-0.24474 0.913522,-0.44806 1.109351,-0.45181 0.195828,-0.004 0.568978,-0.46904 0.829222,-1.03397 0.666501,-1.44682 2.392251,-2.24777 4.442521,-2.06186 1.454091,0.13186 1.47984,0.12225 1.359473,-0.50741 -0.154498,-0.8082 0.598245,-1.6816 1.4493,-1.6816 0.679809,0 2.585019,0.87982 2.856532,1.31913 0.293499,0.4749 0.835023,0.28684 1.14724,-0.3984 0.483786,-1.0618 1.462664,-1.28552 2.880493,-0.65835 1.464523,0.64783 1.343174,0.65317 1.452587,-0.0639 0.04996,-0.32743 0.236831,-0.56555 0.415277,-0.52917 0.178446,0.0364 0.294682,-0.0799 0.258302,-0.2583 -0.132902,-0.65189 1.022373,-0.46773 2.117333,0.33751 0.618097,0.45456 1.123812,0.93523 1.123812,1.06816 0,0.13293 0.178594,0.24169 0.396875,0.24169 0.27368,0 0.396875,-0.27472 0.396875,-0.88503 0,-0.54956 0.200951,-1.0669 0.530138,-1.36481 0.476697,-0.4314 0.676275,-0.44706 1.979864,-0.15533 0.797348,0.17844 1.518314,0.43541 1.602142,0.57105 0.252957,0.4093 0.92062,0.27744 1.09575,-0.2164 0.250389,-0.70604 0.914181,-1.38906 1.349952,-1.38906 0.2147278,0 0.9704568,0.41672 1.6793908,0.92604 1.48446,1.06647 1.54931,1.08571 1.56115,0.46302 0.0165,-0.86738 0.93712,-1.65365 1.93622,-1.65365 0.51379,0 1.00775,0.11907 1.09768,0.26459 0.29261,0.47344 0.8342,0.27974 1.14887,-0.41089 0.16927,-0.37151 0.64758,-0.79393 1.06291,-0.93871 l 0.75512999,-0.26324 0.16621,-5.87431 c 0.0927,-3.27755 0.33086,-6.69303 0.53868,-7.72639 0.84476,-4.20054 0.99529,-4.86598 1.62298001,-7.17485 2.58427,-9.50585 7.73677,-19.11929 14.3768502,-26.824112 1.67909,-1.94833 6.3771,-6.602756 6.6725,-6.610593 0.0827,-0.0021 0.61849,-0.428217 1.19062,-0.946718 1.42639,-1.29267 6.67375,-4.796523 9.44795,-6.308741 14.75687,-8.043973 34.80612,-10.087162 49.98132,-5.09352 1.97678,0.650491 4.93015,1.848755 6.56304,2.662809 1.6329,0.814054 3.06724,1.480098 3.18742,1.480098 0.12018,0 0.25655,-0.267891 0.30306,-0.595313 0.0549,-0.386971 0.45493,-0.780505 1.14288,-1.124479 0.58208,-0.291042 1.08273,-0.533725 1.11256,-0.539295 0.0298,-0.0056 -0.11378,-0.481822 -0.31912,-1.058333 -0.80132,-2.249802 -0.24765,-3.612616 1.91854,-4.722323 0.47294,-0.242282 0.85989,-0.482446 0.85989,-0.533699 0,-0.05125 -0.18726,-0.541353 -0.41613,-1.089115 -0.56324,-1.348033 -0.32412,-2.056011 1.18811,-3.517685 2.075324,-2.005947 2.305324,-2.182916 3.000864,-2.309043 0.36452,-0.0661 1.0042,-0.298254 1.42152,-0.5159 1.52616,-0.795944 5.51886,-0.239636 5.52327,0.769564 0.001,0.252132 0.2038,0.571352 0.45044,0.70938 0.33778,0.189029 0.51684,0.123163 0.7256,-0.266922 0.18426,-0.344297 0.27716,-5.80041 0.27716,-16.277984 V 34.266155 l 0.59532,-0.01359 c 0.32742,-0.0075 1.39841,-0.10289 2.37997,-0.212039 l 1.78466,-0.198451 0.10056,80.579225 c 0.0553,44.31857 0.18714,81.21473 0.29296,81.99145 0.14442,1.06009 0.0802,1.70602 -0.25756,2.59044 -0.28025,0.73382 -0.38132,1.44857 -0.26796,1.89506 0.17699,0.69712 0.19815,60.40499 0.0215,60.58167 -0.0487,0.0487 -1.3826,0.13559 -2.96427,0.19313 -1.58168,0.0575 -4.36405,0.34643 -6.18306,0.64199 -6.517494,1.05897 -10.771214,1.37956 -19.446884,1.46564 -4.65666,0.0462 -9.06197,0.0378 -9.78958,-0.0186 z m 21.69583,-5.23564 c 4.603174,-0.52123 8.828074,-1.12645 10.649484,-1.52555 l 1.38906,-0.30437 v -3.26824 -3.26825 l -3.63802,-1.80605 c -4.33184,-2.1505 -6.724914,-3.45687 -9.100284,-4.96784 -3.31655,-2.10967 -3.7175,-2.25474 -5.02973,-1.81991 -0.63232,0.20952 -2.3403,0.61512 -3.79551,0.90131 -9.65893,1.89963 -19.75739,1.19214 -29.76562,-2.08533 -3.26882,-1.07046 -6.11698,-2.38635 -5.90556,-2.72845 0.0932,-0.15079 0.0364,-0.18897 -0.12906,-0.0867 -0.80858,0.49974 -7.27495,-3.73088 -10.80786,-7.07103 -3.67058,-3.47032 -7.12383,-8.35911 -6.91806,-9.79395 0.0645,-0.4501 0.25941,-0.27484 0.99182,0.89208 1.31877,2.10113 4.32907,6.08862 5.27156,6.98281 0.44528,0.42245 0.74727,0.86893 0.6711,0.99218 -0.0762,0.12326 0.0173,0.22575 0.20784,0.22777 0.19049,0.002 1.12025,0.66591 2.06614,1.47533 10.68065,9.13971 29.28099,13.37626 44.43194,10.12015 1.37251,-0.29498 2.79139,-0.64882 3.15307,-0.78633 l 0.65759,-0.25001 -0.63953,-0.4292 c -2.84835,-1.91159 -8.88832,-6.85598 -11.42016,-9.34868 l -1.25563,-1.23621 -2.44854,-0.15751 c -1.34669,-0.0866 -3.28197,-0.389 -4.30062,-0.67194 -1.25651,-0.34902 -3.08578,-0.56037 -5.68854,-0.65726 -4.5896,-0.17084 -8.81981,-0.98913 -13.39983,-2.59204 -6.28301,-2.19892 -10.37653,-4.73078 -15.10239,-9.34088 -1.77898,-1.7354 -3.38632,-3.25163 -3.57188,-3.36938 -0.18554,-0.11776 -0.88063,-0.21593 -1.54463,-0.21816 -1.48599,-0.005 -2.31262,0.75265 -3.17106,2.90637 -0.75854,1.90311 -0.82979,6.90057 -0.149,10.45104 1.73957,9.07216 5.47717,15.37687 12.98168,21.89792 6.95622,6.04461 17.27406,9.70982 31.48292,11.18368 4.612,0.4784 18.71041,0.33204 23.82731,-0.24735 z m 12.038544,-30.47459 v -18.93929 l -0.87174,0.11748 c -2.03136,0.27375 -3.19733,1.09748 -5.93031,4.1896 -6.744824,7.63117 -12.418434,12.16401 -17.844344,14.25647 -1.1327,0.43681 -2.30142,0.7942 -2.59715,0.7942 -0.67447,0 -0.67874,0.27851 -0.0172,1.11952 0.28627,0.36394 0.43873,0.74347 0.33879,0.84341 -0.0999,0.0999 0.0107,0.10789 0.2458,0.0177 0.25775,-0.0989 0.56973,0.031 0.78569,0.32712 0.19699,0.27014 1.09824,1.05587 2.00277,1.74606 0.90453,0.6902 1.79852,1.45944 1.98665,1.70942 0.18812,0.24999 0.64936,0.63312 1.02497,0.8514 0.37562,0.21828 2.22006,1.41975 4.09878,2.66993 1.87871,1.25019 4.36834,2.85118 5.5325,3.55777 2.306644,1.40001 10.590644,5.67856 10.994664,5.67856 0.15479,0 0.25013,-7.21891 0.25013,-18.9393 z m -27.969504,-3.27139 c 5.89633,-1.50803 12.02563,-5.56796 19.767424,-13.09356 3.33778,-3.24457 3.81716,-3.58913 6.44679,-4.63373 2.5797,-1.02477 3.23035,-1.4539 3.73343,-2.46235 0.56627,-1.13511 0.50011,-2.05746 -0.21137,-2.9466 -0.56934,-0.71152 -0.77603,-0.77585 -2.97524,-0.92604 l -2.3634,-0.16141 0.92604,-0.5402 c 0.50932,-0.2971 1.55265,-0.68231 2.3185,-0.85602 0.76585,-0.1737 1.68858,-0.50985 2.05052,-0.747 0.88894,-0.58245 0.87976,-1.76017 -0.0207,-2.66067 -0.65763,-0.65763 -0.76491,-0.67561 -3.43959,-0.5766 -1.51842,0.0562 -2.76077,0.0185 -2.76077,-0.0837 0,-0.37048 1.40852,-1.28266 1.98057,-1.28266 0.89625,0 2.19303,-0.52106 2.35642,-0.94683 0.21337,-0.55603 -0.26208,-1.62357 -0.86735,-1.9475 -1.3113,-0.70178 -3.54205,-0.018 -5.33055,1.63396 -0.53745,0.49642 -1.60595,1.07388 -2.51354,1.35841 -2.852994,0.89441 -5.649514,2.6529 -9.809294,6.16822 -0.74329,0.62814 -1.44401,1.14207 -1.55716,1.14207 -0.11314,0 -0.47604,0.26789 -0.80645,0.59531 -1.29168,1.28004 -4.59035,3.38976 -7.08229,4.52959 -3.49654,1.59935 -7.76704,2.31747 -10.61223,1.78452 -1.41581,-0.26521 -2.53521,-0.86492 -2.53521,-1.35822 0,-0.1032 1.75617,-0.25211 3.9026,-0.33091 4.37803,-0.16073 5.64467,-0.46013 8.92559,-2.10974 2.72776,-1.37149 5.1635,-3.02405 8.90171,-6.03946 4.84068,-3.90472 7.26612,-5.37717 10.018584,-6.08214 0.67091,-0.17184 1.63714,-0.70933 2.2172,-1.23339 1.66997,-1.50871 3.59133,-2.25484 5.53298,-2.14862 l 1.64404,0.0899 0.0712,-5.88698 c 0.0427,-3.52974 -0.0279,-5.88698 -0.17639,-5.88698 -0.13618,0 -0.28728,0.10845 -0.33579,0.24099 -0.16586,0.45323 -2.18213,2.80026 -4.17858,4.86407 -6.122984,6.32957 -14.086244,11.8384 -22.367954,15.47372 -6.23657,2.73759 -13.76478,4.52606 -21.41266,5.08699 -2.02706,0.14867 -3.74611,0.33085 -3.82009,0.40484 -0.43192,0.43191 1.90579,7.4802 3.59489,10.83876 1.87802,3.73419 4.84567,7.17483 7.80957,9.05427 1.26872,0.80452 3.76512,1.76303 5.22934,2.00786 1.92048,0.32112 5.85414,0.15249 7.74924,-0.33219 z m -18.93083,-25.0285 c 7.76542,-0.81549 15.40985,-2.9365 22.52698,-6.25031 2.92611,-1.36242 7.97074,-4.51309 11.54106,-7.20808 2.26952,-1.71309 8.234274,-7.5144 11.006354,-10.70475 l 1.69365,-1.9492 0.0724,-20.79619 c 0.0398,-11.43791 0.0184,-20.937 -0.0476,-21.10909 -0.0837,-0.21801 -0.49072,-0.12524 -1.34241,0.30595 -1.98428,1.00457 -3.93179,1.30689 -6.08151,0.94406 -3.810364,-0.64311 -7.160824,-2.94327 -9.452964,-6.48966 -3.59794,-5.56671 -2.31168,-12.16838 2.88483,-14.80634 0.46718,-0.23716 1.61993,-0.6099 2.56167,-0.8283 3.324604,-0.77103 6.986974,0.2993 9.858644,2.88117 0.73831,0.66381 1.41817,1.13113 1.5108,1.03849 0.0926,-0.0926 0.16842,-3.84924 0.16842,-8.34802 v -8.179612 l -0.99218,-1.21168 c -0.54571,-0.66642 -2.18282,-2.28353 -3.63802,-3.59358 -1.45521,-1.31004 -2.63087,-2.531583 -2.61258,-2.714526 0.0183,-0.182944 -0.12408,-0.272249 -0.31639,-0.198454 -0.19231,0.0738 -1.28046,-0.560697 -2.41813,-1.409986 -2.246844,-1.677315 -2.549124,-1.868069 -5.897704,-3.721681 -2.32816,-1.288762 -7.45456,-3.511018 -8.09938,-3.511018 -0.202,0 -0.36728,-0.106037 -0.36728,-0.235636 0,-0.129601 -0.38695,-0.296005 -0.8599,-0.369789 -0.47294,-0.07378 -1.6338,-0.335077 -2.57968,-0.580652 -4.8112,-1.249111 -8.79017,-1.760879 -14.84003,-1.908696 -6.56679,-0.160449 -9.3955,0.05706 -14.9256,1.147701 -8.50149,1.676649 -17.0599,5.289121 -23.14722,9.770348 -0.87604,0.644906 -1.64642,1.172556 -1.71196,1.172556 -0.0655,0 -0.73152,0.565547 -1.47999,1.256773 -0.74846,0.69122 -1.51606,1.34533 -1.70577,1.45357 -1.11219,0.63456 -6.51625,6.811052 -8.82297,10.084082 -2.12521,3.01548 -2.40697,3.50002 -4.88053,8.39308 -2.4406102,4.82787 -4.0175102,8.98177 -5.1979502,13.69254 -1.31141,5.23338 -1.47331,6.9391 -1.46083,15.39079 0.0108,7.31238 0.0569,8.0558 0.73011,11.77396 0.86303,4.76651 2.5313,10.96464 3.89125,14.45711 0.63506,1.6309 0.94936,2.82368 0.87147,3.3073 -0.092,0.5712 -0.0555,0.66112 0.14909,0.36721 0.3341302,-0.48005 0.2859702,-0.54651 1.2966302,1.78938 2.02965,4.69107 6.69945,11.41117 10.7779,15.50999 6.3782,6.41005 15.49812,10.40933 26.19286,11.4861 3.8499,0.38762 10.96403,0.34209 15.14445,-0.0969 z m 15.54721,-28.94904 c -3.47483,-0.75523 -7.11851,-2.86807 -9.00446,-5.22137 -1.50968,-1.88377 -2.32009,-3.6243 -2.7814,-5.97365 -0.43805,-2.23083 -0.1686,-3.27418 0.81701,-3.1636 0.35755,0.0401 1.6026,0.0995 2.76677,0.13192 2.70814,0.0755 3.57333,-0.38586 5.02708,-2.68043 2.82227,-4.45462 3.19797,-4.93632 4.4483,-5.7034 1.75967,-1.07956 4.7967,-1.25775 7.32566,-0.42983 0.94588,0.30966 2.6231,0.63282 3.72714,0.71815 1.93911,0.14986 2.03609,0.12922 2.85317,-0.60731 0.65579,-0.59116 0.89496,-1.07812 1.06451,-2.16744 0.258,-1.65756 0.62678,-2.15362 1.29215,-1.7381 0.66946,0.41808 1.10886,1.42153 1.11329,2.54242 0.004,1.02868 -0.64284,3.00168 -1.17509,3.58389 -0.23526,0.25734 -0.22135,0.8223 0.0587,2.38125 0.65463,3.64479 -0.3263,8.59806 -2.31589,11.69427 -1.74199,2.71089 -4.58477,4.92055 -7.74381,6.01915 -2.03106,0.70633 -5.67204,1.00552 -7.47308,0.61408 z m 6.70615,-1.7644 c 0.82276,-0.23634 2.00792,-0.77212 2.63368,-1.19062 0.62575,-0.4185 1.19233,-0.76092 1.25906,-0.76092 0.29674,0 1.83953,-1.56954 2.71599,-2.76307 2.00524,-2.73068 2.95883,-5.6537 2.95294,-9.05161 -0.005,-2.86938 -0.1671,-3.21447 -1.29143,-2.74876 -1.13912,0.47184 -3.43926,0.14436 -5.71597,-0.81379 -4.57427,-1.92508 -6.57277,-1.23808 -8.49051,2.91865 -1.05933,2.29609 -2.61756,4.04556 -4.34178,4.87463 -0.98094,0.47167 -1.64671,0.56969 -3.78032,0.55655 l -2.58968,-0.016 0.16701,0.8097 c 0.52758,2.55782 2.90506,5.38618 5.85533,6.96576 2.92402,1.56553 7.56619,2.09829 10.62568,1.21944 z m -44.22219,-3.58988 c -6.40062,-0.82495 -11.77884,-8.51847 -10.85365,-15.52611 0.70105,-5.30996 4.02082,-8.68651 8.8211,-8.97199 4.9198,-0.29258 9.06191,2.29334 11.46217,7.15586 1.38798,2.81181 1.85277,4.90269 1.6902,7.6035 -0.39624,6.58311 -4.91282,10.53873 -11.11982,9.73874 z m 7.88271,-2.59499 c -0.0899,-0.14552 -0.30533,-0.26276 -0.47864,-0.26053 -0.18934,0.002 -0.1567,0.10642 0.0818,0.26053 0.5083,0.32849 0.59989,0.32849 0.39688,0 z m -7.586,-4.65467 c 0.50394,-0.35297 0.58861,-0.62093 0.52189,-1.65155 -0.0692,-1.06844 -0.18314,-1.27963 -0.86664,-1.60595 -1.35488,-0.64684 -1.83757,-0.5706 -2.499,0.3947 -1.35191,1.97298 0.89079,4.23071 2.84375,2.8628 z m 4.28789,-6.66934 c 1.71897,-1.71897 1.67077,-4.24687 -0.11502,-6.03266 -2.65517,-2.65517 -6.50875,-1.08307 -6.50875,2.65531 0,2.60063 1.76442,4.32668 4.4629,4.36584 0.99611,0.0144 1.29435,-0.12198 2.16087,-0.98849 z m -45.64981021,47.2026 c 0.14552,-0.16246 0.67279,-0.63226 1.17170001,-1.04401 1.03042,-0.85039 2.22541,-2.61682 2.49386,-3.68639 0.18615,-0.74169 0.55506,-0.88858 1.20232,-0.47876 0.28746,0.18201 0.32995,0.62479 0.19053,1.98559 -0.15051,1.46906 -0.11131,1.77749 0.2432,1.91353 1.28086,0.49151 2.98277,-2.18217 3.56249,-5.59668 0.17295,-1.01864 0.36491,-2.11997 0.42658,-2.44739 0.14025,-0.74472 0.7824902,-0.77221 1.1689802,-0.05 0.1605,0.2999 0.31352,1.69888 0.34004,3.10886 0.0452,2.40402 0.0812,2.55804 0.57739,2.47451 1.177,-0.19812 2.94503,-2.56138 3.69134,-4.93408 0.78658,-2.50076 1.37566,-1.80918 1.96864,2.31117 0.0157,0.10915 0.32203,0.19844 0.68071,0.19844 1.47398,0 1.51039,-1.95063 0.0752,-4.031 -5.00013,-7.24814 -6.01151,-8.86564 -8.2739002,-13.23243 -0.43333,-0.8364 -0.86792,-1.52101 -0.96575,-1.52135 -0.0978,-2.7e-4 -0.68833,0.38871 -1.31224,0.86458 -1.25094,0.95413 -1.48712,1.50628 -1.52622,3.5681 l -0.0264,1.39061 -2.18281,-0.16232 c -1.83517,-0.13647 -2.39945,-0.0759 -3.54302001,0.38009 -0.74811,0.29833 -1.40962999,0.49299 -1.47004999,0.43257 -0.0604,-0.0604 -0.13673,0.34571 -0.16958,0.90249 -0.0538,0.91213 0.0609,1.1112 1.15866999,2.01074 0.67012,0.54912 1.1204,1.09544 1.00062,1.21406 -0.11978,0.11862 -0.9432,0.33201 -1.82981999,0.4742 -3.78752,0.60741 -5.53172,1.49716 -5.53172,2.82185 0,0.58959 0.17737,0.86465 0.72761,1.12837 0.40018,0.1918 0.7276,0.45929 0.7276,0.59442 0,0.13513 -0.56555,0.53248 -1.25677,0.88301 -1.76216,0.8936 -2.31169,1.54683 -1.91882,2.28091 0.1684,0.31465 0.65414,0.69339 1.07942,0.84164 0.91183,0.31787 0.95848,0.56174 0.24409,1.27613 -0.63417,0.63417 -0.6862,1.65726 -0.11339,2.23006 0.53941,0.53941 2.96704,0.54766 4.7195,0.016 1.75143999,-0.53132 1.81856999,-0.51215 1.35381,0.3866 -0.48939,0.94638 -0.5208,1.78027 -0.0729,1.93649 0.41489999,0.14473 1.04330999,-0.0546 1.38905999,-0.44059 z M -9.7625352,177.25548 c 2.146301,-1.08139 3.785511,-3.29956 4.840401,-6.55003 0.0912,-0.2809 0.35045,-0.44504 0.62043,-0.39276 0.67983,0.13163 0.6941,2.79776 0.0258,4.81126 -0.89538,2.69748 -0.23785,3.56858 1.48527,1.9677 0.65769,-0.61104 1.22751,-1.59783 1.88116999,-3.25779 0.51574,-1.30969 1.04755,-2.64914 1.1818,-2.97656 0.32282,-0.78729 1.00056001,-0.75771 1.31038001,0.0572 0.17156,0.45124 0.12962,1.04289 -0.13598,1.91823 -0.21123,0.69615 -0.38534,1.53362 -0.38692,1.86104 -0.002,0.32743 -0.12192001,0.59532 -0.26744001,0.59532 -0.14552,0 -0.26459,0.10652 -0.26459,0.23672 0,0.44458 1.85979001,-0.17953 2.79500001,-0.93795 0.51136,-0.41469 1.43113,-1.13668 2.04394,-1.60441 0.6128,-0.46774 1.40635,-1.07652 1.76344,-1.35283 l 0.64924,-0.5024 -1.11691,-3.0128 c -1.16675,-3.14726 -2.15075,-6.318 -2.81325,-9.06517 -0.89521,-3.71214 -1.42523,-6.19894 -1.59724,-7.49421 -0.10049,-0.75666 -0.32119,-1.48955 -0.49044,-1.62863 -1.01664001,-0.83545 -5.94449,-1.51886 -6.55436,-0.90899 -0.24811,0.24811 -0.0252,1.17759 0.67016,2.79488 0.65623,1.5262 -0.008,1.56595 -2.16914,0.12977 -2.68704,-1.7859 -4.6859318,-2.33257 -6.9056958,-1.88862 -1.003019,0.20061 -1.064956,0.75138 -0.31501,2.80128 0.485587,1.3273 0.645461,2.08982 0.576987,2.75192 -0.06269,0.60621 -1.019071,0.1829 -3.089222,-1.36735 -1.172993,-0.87841 -2.747049,-1.86139 -3.497905,-2.1844 -1.712673,-0.73677 -3.618282,-1.02605 -3.887677,-0.59016 -0.107448,0.17385 -0.0416,1.26294 0.146338,2.4202 0.294959,1.81628 0.288348,2.15744 -0.04833,2.49412 -0.343649,0.34365 -0.577154,0.23181 -1.963663,-0.94053 -2.228512,-1.88428 -3.612957,-2.50773 -5.568699,-2.50773 -1.315554,0 -1.809025,0.13381 -2.722307,0.73819 -2.010563,1.33053 -2.562848,2.92889 -1.779344,5.14958 0.340919,0.96626 0.329276,1.13276 -0.132292,1.89174 -0.27836,0.45773 -0.506109,1.0097 -0.506109,1.2266 0,0.46492 1.242293,1.27008 2.910416,1.88631 1.760347,0.65029 1.802605,0.80814 0.37966,1.41808 -1.482607,0.63552 -1.768201,0.96312 -1.414985,1.62311 0.393613,0.73547 2.711491,1.27993 5.448972,1.27993 1.8711,0 2.46552,0.0846 2.46552,0.35075 0,0.4021 -0.91156,1.29131 -1.785938,1.74216 -0.980613,0.50562 -1.482706,1.47107 -1.118737,2.15115 0.278404,0.5202 0.476843,0.56559 2.069325,0.47333 1.865692,-0.10808 3.673168,-0.81094 4.814019,-1.87198 0.352725,-0.32805 0.732915,-0.56669 0.844866,-0.53031 0.111952,0.0364 0.203548,-0.11245 0.203548,-0.33073 0,-0.50468 0.370886,-0.50952 0.785251,-0.0102 0.436305,0.52572 -0.0035,1.81082 -1.191735,3.48207 -0.956063,1.34472 -1.136387,2.15551 -0.598933,2.69296 0.483706,0.48371 1.853064,0.38036 3.286888,-0.24806 1.767119,-0.7745 5.633282,-3.59295 5.98377,-4.36219 0.355958,-0.78124 0.587698,-0.78967 1.112465,-0.0405 0.615458,0.87869 0.522801,1.27077 -0.773086,3.27126 -0.65173,1.00608 -1.187511,1.97132 -1.190625,2.14497 -0.0031,0.17365 0.262228,0.50373 0.58965,0.73352 0.708547,0.49727 1.639197,0.35007 3.4019068,-0.53804 z M 103.74087,126.14144 c 0.48236,-1.26867 -0.33816,-2.44862 -1.69817,-2.44207 -1.04018,0.005 -1.41022,0.22968 -1.70912,1.0377 -0.380754,1.02926 -0.0692,1.88945 0.81961,2.26318 1.05007,0.44153 2.24394,0.0453 2.58768,-0.85881 z m 0.9163,-5.52357 c 0.94161,-0.61696 1.51796,-2.09652 1.3792,-3.54057 -0.22079,-2.29782 -1.85484,-3.70073 -4.31047,-3.70073 -1.09682,0 -1.37228,0.12437 -2.275124,1.0272 -0.92816,0.92817 -1.0272,1.15903 -1.0272,2.39439 0,2.14031 0.88068,3.43051 2.826754,4.14121 1.11984,0.40896 2.48925,0.27973 3.40684,-0.3215 z m 5.40258,-37.675544 0.0152,-11.648825 -0.66798,-0.667973 c -0.92554,-0.925547 -2.71064,-1.6863 -3.97196,-1.692735 -1.40054,-0.0071 -2.8422,0.73942 -3.15171,1.632114 -0.21203,0.611513 -0.0896,0.946721 0.86558,2.369148 1.10237,1.641697 1.56586,2.754103 1.27054,3.049415 -0.0842,0.0842 -0.63668,-0.04041 -1.22775,-0.276905 -1.21273,-0.485238 -3.485604,-0.568595 -4.256354,-0.156104 -0.75019,0.401489 -0.63379,1.042784 0.51065,2.81346 1.192574,1.845135 1.749664,3.349283 1.442764,3.895434 -0.18293,0.325522 -0.41995,0.288401 -1.539144,-0.241046 -1.39014,-0.65762 -1.93438,-0.760431 -2.62419,-0.495724 -1.12567,0.431959 0.16307,2.021777 4.448694,5.488017 4.50481,3.643524 6.19195,5.110016 7.01664,6.098956 0.84331,1.01128 1.35107,1.48159 1.59954,1.48159 0.1585,0 0.25996,-4.38629 0.26945,-11.648822 z"
       id="path559" /></g></svg>
