<?xml version="1.0" encoding="UTF-8" standalone="no"?>
<!-- Created with Inkscape (http://www.inkscape.org/) -->

<svg
   width="248.35393mm"
   height="198.44112mm"
   viewBox="0 0 248.35391 198.44112"
   version="1.1"
   id="svg5"
   xml:space="preserve"
   xmlns="http://www.w3.org/2000/svg"
   xmlns:svg="http://www.w3.org/2000/svg"><defs
     id="defs2" /><g
     id="layer1"
     transform="translate(1.8949431,-52.650754)"><path
       style="fill:#000000;stroke-width:0.264583"
       d="m 144.13223,250.69536 c -1.06471,-0.46046 -2.64584,-1.89995 -2.64584,-2.40883 0,-0.18973 -0.10741,-0.34497 -0.2387,-0.34497 -0.13128,0 -0.35366,-0.32978 -0.49417,-0.73286 -0.14051,-0.40307 -1.58091,-2.06039 -3.20089,-3.68293 -1.61997,-1.62255 -2.9454,-3.11978 -2.9454,-3.32718 0,-0.2074 -0.25135,-0.60391 -0.55856,-0.88112 -1.09453,-0.98767 -3.04009,-5.44448 -3.93689,-9.01846 l -0.27755,-1.1061 -1.51611,-0.16609 c -6.29183,-0.68929 -10.42819,-1.51979 -15.40673,-3.09338 -2.8722,-0.90783 -7.24772,-2.64436 -7.73906,-3.07143 -0.25466,-0.22135 -0.46302,-0.33194 -0.46302,-0.24575 0,0.2389 -3.54422,-1.41652 -3.76626,-1.75913 -0.10691,-0.16497 -0.19621,-0.21268 -0.19844,-0.10602 -0.002,0.10665 -0.45053,-0.0556 -0.996236,-0.36056 -2.87752,-1.60806 -4.70592,-2.72409 -4.78454,-2.92042 -0.0485,-0.12113 -0.21198,-0.22023 -0.36328,-0.22023 -0.21839,0 -2.5115,-1.52753 -4.04645,-2.69549 -2.72325,-2.07217 -7.37157,-6.47857 -8.77436,-8.31772 -0.37463,-0.49118 -0.78808,-0.89304 -0.91878,-0.89304 -0.1307,0 -0.74267,0.50601 -1.35994,1.12448 -1.35676,1.35939 -2.225,2.05052 -2.57598,2.05052 -0.14386,0 -0.26156,0.1154 -0.26156,0.25645 0,0.42923 -2.90277,2.16408 -5.42396,3.24166 -1.89772,0.81111 -2.64987,1.3046 -3.70416,2.43036 -2.46553,2.63265 -4.39031,3.45713 -6.13642,2.62855 -0.59395,-0.28185 -1.61846,-0.47781 -2.5163,-0.48132 -1.42771,-0.006 -1.57181,-0.0676 -2.51628,-1.08311 l -1.00184,-1.0772 -0.92604,0.46918 c -1.47187,0.74572 -3.00308,0.6406 -4.03072,-0.27671 -0.80555,-0.71907 -0.87303,-0.9117 -0.99636,-2.84427 l -0.13229,-2.07297 -0.86234,0.0864 c -0.70175,0.0703 -1.03435,-0.0908 -1.78594,-0.86471 -0.89052,-0.91699 -1.07567,-1.51063 -0.95381,-3.05809 0.24915,-3.16386 2.72374,-5.87414 7.70399,-8.43774 1.80663,-0.92997 4.1627,-2.20989 5.2357,-2.84427 1.073,-0.63438 2.00706,-1.15341 2.07569,-1.15341 0.0686,0 0.49875,-0.34951 0.95583,-0.77668 0.45707,-0.42718 1.13522,-0.93319 1.507,-1.12448 0.63278,-0.32558 1.37696,-1.05791 1.22721,-1.20766 -0.0368,-0.0368 -1.59525,-0.4858 -3.46318,-0.99774 -1.86794,-0.51195 -3.52842,-1.0405 -3.68996,-1.17457 -0.16154,-0.13407 -0.62723,-0.30424 -1.03485,-0.37816 -0.86582,-0.157 -3.15105,-0.98908 -3.34347,-1.21739 -0.0728,-0.0863 -0.63831,-0.31986 -1.25677,-0.51895 -0.61846,-0.19909 -1.12448,-0.44874 -1.12448,-0.55477 0,-0.10604 -0.40805,-0.26934 -0.90678,-0.36291 -0.49874,-0.0936 -0.94738,-0.29189 -0.99699,-0.44073 -0.0496,-0.14883 -0.27853,-0.29825 -0.5087,-0.33203 -0.23016,-0.0338 -0.72983,-0.26542 -1.11036,-0.51476 -0.38054,-0.24934 -0.78302,-0.45334 -0.89441,-0.45334 -0.11139,0 -0.88927,-0.42388 -1.72862,-0.94195 -1.40569,-0.86765 -2.05622,-0.98533 -2.05622,-0.37198 0,0.13329 -0.35719,1.02222 -0.79375,1.97539 -0.43656,0.95318 -0.79375,1.80593 -0.79375,1.895 0,0.0891 -0.52494,0.9493 -1.16654,1.91161 -3.02496,4.53702 -6.90872,6.65208 -12.18919,6.63812 -1.31284,-0.003 -2.86323,-0.12599 -3.44531,-0.27227 -0.58209,-0.14628 -1.3791,-0.31553 -1.771153,-0.37612 -0.392049,-0.0606 -1.046892,-0.28092 -1.455208,-0.48962 -0.408315,-0.20869 -1.125389,-0.46191 -1.5935,-0.5627 -0.468109,-0.10078 -1.27707,-0.47231 -1.797688,-0.82561 -0.520618,-0.3533 -1.005906,-0.64237 -1.078418,-0.64237 -0.07251,0 -0.778994,-0.47808 -1.569961,-1.0624 -2.740213,-2.02431 -5.2047513,-5.95164 -6.2237773,-9.91781 -0.455718,-1.7737 -0.533841,-2.80258 -0.482152,-6.34999 0.03637,-2.49623 -0.03967,-4.22768 -0.185314,-4.21955 -0.135849,0.008 -0.683442,0.10824 -1.216875,0.22369 -1.313476,0.28428 -3.660712,-0.41855 -4.831803,-1.44678 -1.24782702,-1.0956 -2.00352802,-2.75751 -2.00352802,-4.40607 0,-0.94867 -0.212213,-1.75628 -0.71730898,-2.72983 -0.990503,-1.90916 -1.1132,-4.12131 -0.365181,-6.58399 1.43460698,-4.72314 6.831773,-7.44844 11.5767293,-5.84567 1.698861,0.57384 1.764316,0.57706 2.044069,0.10051 0.158954,-0.27077 0.309427,-0.67091 0.334384,-0.88919 0.02496,-0.21828 0.13376,-0.80135 0.241786,-1.29571 0.195026,-0.8925 0.190995,-0.89727 -0.572055,-0.67661 -2.7050953,0.78223 -4.7749893,-0.83273 -4.4478503,-3.47029 0.154444,-1.2452 0.808277,-2.3226 1.295934,-2.13547 0.195406,0.075 0.423827,-0.0423 0.507603,-0.2606 0.08378,-0.21832 0.285534,-0.31461 0.4483533,-0.21398 0.162818,0.10063 0.389004,0.0325 0.502636,-0.15133 0.332745,-0.5384 1.594206,-0.0637 2.564317,0.96487 0.480746,0.50974 0.874084,1.09691 0.874084,1.30484 0,0.86156 0.503769,0.28632 0.815934,-0.93168 0.184618,-0.72034 0.433745,-1.24909 0.553617,-1.17501 0.119872,0.0741 0.217949,-0.2271 0.217949,-0.66931 0,-0.44221 0.170207,-1.2529 0.378237,-1.80155 0.379397,-1.0006 2.30491,-7.15596 2.366862,-7.56624 0.01818,-0.12029 -0.471619,-0.24708 -1.088408,-0.28175 -1.669539,-0.0939 -2.405503,-0.90323 -2.504418,-2.75419 -0.07523,-1.4078 -0.109557,-1.46954 -0.872065,-1.56865 -0.990717,-0.12877 -1.87115,-0.68848 -2.27759,-1.44792 -0.224603,-0.41968 -0.229877,-0.60998 -0.01885,-0.68033 0.188495,-0.0628 0.208914,-0.25606 0.05725,-0.54181 -0.12965,-0.24428 -0.294444,-0.63748 -0.366209,-0.87376 -0.07245,-0.23856 -0.545999,-0.50757 -1.064796,-0.60489 -1.0970963,-0.20582 -2.7169853,-1.66941 -2.9719253,-2.68517 -0.09694,-0.38625 -0.05172,-1.10808 0.100506,-1.60406 0.251612,-0.81982 0.219595,-0.93173 -0.352286,-1.23137 -0.9062,-0.47481 -1.969644,-2.02647 -1.969644,-2.87389 0,-1.00773 0.996462,-2.59913 1.824611,-2.91399 0.378912,-0.14406 0.73515,-0.24339 0.791641,-0.22073 0.05649,0.0226 0.188417,-0.0975 0.29317,-0.26697 0.104753,-0.1695 1.011033,-0.36675 2.013956,-0.43835 3.0577423,-0.21828 2.7967823,-0.61004 -0.690045,-1.03591 -1.670468,-0.20402 -3.278308,-0.77595 -4.233333,-1.50585 -1.561907,-1.19372 -1.771291,-2.96383 -0.500863,-4.23426 0.7974,-0.7974 0.809302,-0.84364 0.396875,-1.54183 -1.323029,-2.239711 0.574746,-4.47458 3.799656,-4.47458 h 1.331415 v -0.93454 c 0,-1.018323 0.6291273,-2.769627 0.9949423,-2.769627 0.125507,0 0.499573,-0.252828 0.831258,-0.56184 0.499975,-0.465796 0.806339,-0.533977 1.792212,-0.398849 0.654032,0.08965 1.528846,0.404879 1.944032,0.700516 0.65537,0.466665 1.713597,2.275113 2.210326,3.777311 0.123571,0.3737 0.263046,0.417613 0.656907,0.206825 1.123649,-0.601358 3.142142,0.106193 4.178183,1.46459 0.65366,0.857053 0.74897,1.204363 0.7187,2.618924 -0.0342,1.59731 -0.0164,1.64082 0.86616,2.11609 0.5169,0.27837 0.95479,0.74806 1.02709,1.10168 0.0693,0.33903 0.19215,0.9313 0.27296,1.31615 0.0808,0.38485 0.24213,0.59321 0.35846,0.46302 0.32562,-0.36438 2.11686,-5.37585 4.54626,-12.719345 1.22667,-3.707956 2.31635,-6.59229 2.45753,-6.505033 0.14398,0.08898 0.18181,-0.03047 0.0875,-0.276278 -0.0923,-0.240466 0.71595,-2.995424 1.81742,-6.194964 1.09098,-3.169057 2.15088,-6.357233 2.35532,-7.084838 0.20444,-0.727604 1.16188,-3.585104 2.12764,-6.349999 0.96576,-2.764896 1.85462,-5.384271 1.97525,-5.820833 0.6766,-2.448576 1.69909,-4.906322 2.38978,-5.74425 2.09771,-2.544881 6.35687,-2.785498 10.7783,-0.608909 3.28166,1.615498 4.43274,3.536778 3.61688,6.036942 -0.2467,0.756002 -0.51855,1.493613 -0.6041,1.639133 -0.0856,0.145521 -0.18981,0.502709 -0.23167,0.79375 -0.0736,0.511609 -0.22764,0.961369 -0.90626,2.645834 -0.17588,0.436562 -0.34433,0.972343 -0.37433,1.190624 -0.03,0.218282 -0.20524,0.754063 -0.38942,1.190625 -0.18418,0.436563 -0.36481,0.937366 -0.4014,1.112893 -0.17467,0.837978 -1.00964,3.157215 -1.24248,3.45117 -0.14409,0.181901 -0.18627,0.330729 -0.0937,0.330729 0.0925,0 -0.023,0.446484 -0.25667,0.992187 -0.2337,0.545703 -0.48355,1.338488 -0.55522,1.761742 -0.0717,0.423253 -0.25754,1.078097 -0.41305,1.455208 -0.1555,0.37711 -0.31129,0.819838 -0.34618,0.98384 -0.0804,0.377923 -2.2088,6.974863 -2.422,7.507022 -0.0875,0.218281 -0.19185,0.558218 -0.232,0.755417 -0.0401,0.197197 -0.57616,1.835939 -1.19114,3.641648 -0.61497,1.80571 -1.04363,3.35761 -0.95257,3.448667 0.0911,0.09106 0.61215,-0.175072 1.15799,-0.5914 2.989,-2.279827 5.2809,-3.60967 10.92822,-6.340977 0.99079,-0.479189 4.36668,-1.602272 6.64712,-2.211342 6.19074,-1.653458 14.90885,-2.60749 21.00184,-2.298258 6.67941,0.338997 12.70251,0.977561 14.048886,1.489453 0.36846,0.140091 1.05296,0.254709 1.52109,0.254709 0.46814,0 1.50218,0.182599 2.29788,0.405776 0.7957,0.223176 1.86344,0.474445 2.37276,0.558376 0.86805,0.143047 1.97024,0.456856 6.87917,1.958613 1.09141,0.333885 2.20523,0.795117 2.47518,1.024961 0.26993,0.229844 0.50806,0.378394 0.52916,0.33011 0.0788,-0.180295 1.49358,0.286054 1.49358,0.492323 0,0.118184 0.38695,0.295871 0.85989,0.394865 0.92991,0.194638 8.40833,3.973454 9.15218,4.624559 0.24938,0.218281 0.89665,0.623983 1.43838,0.90156 0.54173,0.277577 0.98496,0.607946 0.98496,0.734152 0,0.126209 0.26789,0.348134 0.59532,0.49317 0.74235,0.328832 2.1942,1.42113 3.50053,2.633617 0.54874,0.50932 1.09355,0.89903 1.21069,0.86602 0.11714,-0.033 0.5189,0.30354 0.8928,0.7479 0.37391,0.44436 0.67983,0.716101 0.67983,0.603861 0,-0.11225 1.36922,1.20377 3.04271,2.92447 1.67349,1.7207 3.04271,3.27894 3.04271,3.46276 0,0.18381 0.16117,0.39606 0.35816,0.47165 0.19699,0.0756 0.67711,0.68168 1.06694,1.34688 0.38983,0.66519 1.00256,1.52644 1.36163,1.91387 0.35907,0.38745 0.65285,0.80612 0.65285,0.93039 0,0.41975 0.10116,0.62124 0.55816,1.11177 0.34269,0.36784 0.65723,0.44465 1.26986,0.31009 0.5764,-0.1266 0.93632,-0.0569 1.23185,0.23866 0.61186,0.61186 0.93817,0.51002 0.78163,-0.24395 -0.0755,-0.3638 -0.20025,-0.96357 -0.27716,-1.33283 -0.33719,-1.61909 0.75083,-3.45792 2.17654,-3.6785 0.36065,-0.0558 0.45738,-0.27031 0.397,-0.88041 -0.12733,-1.2867 0.55354,-2.5579 1.68435,-3.14474 l 1.00521,-0.52166 -0.0661,-1.61909 c -0.0538,-1.31862 0.0314,-1.716541 0.45903,-2.144191 0.2888,-0.28881 0.46529,-0.58491 0.39219,-0.65801 -0.21463,-0.21462 0.88059,-0.7049 1.11067,-0.49719 0.11523,0.10402 0.13157,0.0528 0.0363,-0.11388 -0.21783,-0.381098 0.3932,-0.623036 1.57351,-0.623036 0.56722,0 0.97035,0.15023 1.065,0.396875 0.0838,0.218281 0.28071,0.396871 0.43766,0.396871 0.15696,0 0.56094,0.25888 0.89774,0.57529 l 0.61236,0.57529 v -0.93268 c 0,-0.512975 0.10922,-1.27787 0.24271,-1.699769 0.13349,-0.421897 0.30921,-1.07402 0.39049,-1.449165 0.16683,-0.769985 1.10383,-1.87425 1.9951,-2.351241 1.79992,-0.963292 4.38743,1.919044 3.91962,4.366244 -0.13267,0.694021 0.1722,1.122851 0.46335,0.651761 0.25747,-0.416592 1.95654,-1.058643 2.80151,-1.058643 0.91533,0 2.34508,1.301913 2.38734,2.173893 0.0604,1.245431 -0.0863,1.952131 -0.58279,2.807361 -0.58309,1.00447 -0.45268,1.5059 0.27367,1.05229 0.65162,-0.40695 2.93588,0.43064 3.1227,1.14503 0.0711,0.27189 0.23445,0.49434 0.36299,0.49434 0.39164,0 0.2606,2.08894 -0.18755,2.98971 -0.2317,0.46571 -0.79725,1.17509 -1.25677,1.5764 -0.69026,0.60281 -0.7665,0.77126 -0.43862,0.96901 0.60069,0.36228 1.71695,1.36532 1.74136,1.56474 0.0119,0.0969 0.10983,0.4867 0.21769,0.86621 0.25597,0.90059 -0.45444,2.61929 -1.15878,2.80348 -0.29136,0.0762 -0.47276,0.23072 -0.40312,0.3434 0.0696,0.11268 -0.55678,0.47635 -1.39203,0.80817 -0.83527,0.33182 -1.55193,0.62647 -1.59259,0.65478 -0.0407,0.0283 0.27891,0.42919 0.71015,0.89084 1.01299,1.0844 1.44831,2.37498 1.10536,3.277 -0.33642,0.88485 -1.10751,1.7771 -1.5358,1.7771 -0.18594,0 -0.33807,0.11906 -0.33807,0.26458 0,0.14552 -0.17009,0.26458 -0.37798,0.26458 -0.58797,0 -1.31703,0.82837 -0.93621,1.06373 0.48706,0.30102 0.043,1.77548 -0.79185,2.62957 -0.48874,0.49997 -1.23215,0.8624 -2.22443,1.08446 -1.39385,0.31193 -1.87553,0.7738 -1.22578,1.17537 0.48102,0.29729 0.27514,1.40206 -0.41388,2.22092 -0.70651,0.83963 -2.01805,1.34695 -3.48873,1.34948 -0.95259,0.002 -1.06074,0.30314 -0.54174,1.51038 0.17499,0.40703 0.34252,0.77859 0.37229,0.82571 0.0298,0.0471 0.41647,-0.10172 0.85933,-0.33073 0.96762,-0.50038 2.04904,-0.53997 2.33969,-0.0857 0.61359,0.95912 1.05561,1.03189 2.0732,0.34134 2.2394,-1.5197 5.09756,-1.70247 6.50601,-0.41605 0.7005,0.63981 0.86273,0.99127 0.87623,1.89829 l 0.0166,1.1131 1.34755,0.30344 c 1.50377,0.33861 3.14702,1.25031 3.3887,1.8801 0.48453,1.26269 -0.2188,3.37427 -1.21029,3.63355 -0.74352,0.19444 -0.58203,0.75486 0.57508,1.99575 1.70761,1.83125 1.48347,3.62168 -0.58746,4.69261 -0.59185,0.30605 -0.69515,0.50263 -0.57669,1.09739 0.17075,0.85722 -0.30771,2.28245 -0.68744,2.04777 -0.14579,-0.0901 -0.26508,-0.0405 -0.26508,0.11027 0,0.38984 -1.13363,1.08197 -2.02328,1.23531 -1.54417,0.26614 -1.68089,0.37298 -1.68089,1.3136 0,0.62488 -0.2383,1.17085 -0.77175,1.7681 -0.71766,0.80351 -0.8892,0.86408 -2.4474,0.86408 -0.9216,0 -1.90141,-0.0595 -2.17736,-0.1323 -0.39994,-0.10545 -0.58014,0.0997 -0.88835,1.01142 -0.21265,0.62903 -0.58219,1.21566 -0.82119,1.30361 -0.23902,0.088 -0.51983,0.28766 -0.62403,0.4438 -0.23138,0.3467 -3.11494,0.31281 -3.34782,-0.0394 -0.0918,-0.13879 -0.43478,-0.32006 -0.7622,-0.40281 -0.47921,-0.12112 -0.59601,-0.0392 -0.59892,0.42008 -0.007,1.14428 -0.33436,1.74006 -1.33682,2.43476 -1.26285,0.87516 -2.5151,0.7802 -5.16424,-0.39165 -0.67953,-0.30059 -1.27387,-0.54652 -1.32076,-0.54652 -0.0469,0 -0.43118,0.37014 -0.85398,0.82254 -1.10782,1.18537 -3.07162,1.66085 -4.7523,1.15066 -1.47718,-0.44843 -3.76621,-0.26011 -3.76621,0.30984 0,0.19953 -0.11906,0.36279 -0.26458,0.36279 -0.14552,0 -0.25048,0.0893 -0.23325,0.19844 0.0713,0.45164 -0.0504,0.84204 -0.36524,1.17172 -0.18364,0.1923 -0.84743,1.14557 -1.47509,2.11839 -0.62765,0.97282 -1.4299,2.08028 -1.78276,2.46103 -0.96248,1.03852 -0.80971,1.4137 0.87978,2.16064 0.83674,0.36994 2.12853,0.95866 2.87064,1.30828 0.74211,0.34962 1.42802,0.63567 1.52424,0.63567 0.0962,0 0.67966,0.22518 1.29654,0.5004 0.61688,0.27522 2.22695,0.93134 3.57794,1.45806 1.35099,0.52671 2.95833,1.18122 3.57187,1.45446 0.61355,0.27325 2.00851,0.82197 3.09991,1.21939 4.07849,1.48512 7.81799,2.81021 8.20209,2.90641 5.99398,1.50126 7.25623,1.73803 11.50937,2.15897 2.86821,0.28387 3.56184,0.17626 4.21344,-0.65371 0.30198,-0.38464 0.5245,-0.77534 0.49448,-0.86822 -0.03,-0.0929 0.2974,-0.56311 0.7276,-1.04497 0.4302,-0.48185 0.78219,-0.95215 0.78219,-1.0451 0,-0.50516 8.83463,-8.73153 9.37715,-8.73153 0.0838,0 0.49606,-0.30617 0.91605,-0.68039 0.89158,-0.7944 3.48012,-2.49461 3.798,-2.49461 0.12013,0 0.46403,-0.22882 0.76422,-0.50848 0.78815,-0.73427 7.59442,-4.04819 10.57333,-5.14807 2.51959,-0.93029 6.27942,-2.08455 7.78731,-2.39069 0.43059,-0.0874 2.33071,-0.47799 4.22248,-0.86793 3.05047,-0.62878 4.05318,-0.71086 8.86354,-0.72555 4.9341,-0.0151 5.59712,0.0379 7.34137,0.58611 1.08843,0.34212 2.30464,0.94267 2.81306,1.38907 0.4926,0.43251 1.02077,0.78638 1.17372,0.78638 0.33242,0 1.92301,1.92611 2.51268,3.04271 0.54169,1.02575 1.0109,2.04665 1.09443,2.38125 0.0363,0.14552 0.13392,0.44317 0.21686,0.66145 0.0829,0.21828 0.2272,0.75407 0.32058,1.19063 1.3136,6.14117 0.46794,13.49275 -2.52007,21.90766 -1.09891,3.0948 -4.40353,9.97463 -4.79115,9.97463 -0.12319,0 -0.22398,0.1307 -0.22398,0.29044 0,0.38105 -2.71988,4.27622 -4.04646,5.79498 -2.24075,2.56535 -4.90651,5.1751 -6.80146,6.65851 -1.0914,0.85439 -2.12818,1.67027 -2.30393,1.81308 -0.17576,0.14281 -0.44365,0.25965 -0.59532,0.25965 -0.15166,0 -0.27575,0.1 -0.27575,0.22212 0,0.21137 -1.22313,0.90969 -1.66329,0.94963 -0.11445,0.0104 -0.29305,0.14933 -0.39688,0.30877 -0.10383,0.15943 -0.49954,0.45709 -0.87935,0.66145 -5.06065,2.72302 -8.11812,4.05244 -12.43562,5.40717 -5.97015,1.87328 -10.41375,2.47788 -19.74829,2.68695 -5.15652,0.11549 -7.2099,0.24799 -7.2099,0.46525 0,0.16707 0.48773,0.77442 1.08385,1.34965 2.11405,2.04001 4.4724,5.56364 4.4724,6.68226 0,0.29548 0.13244,0.58139 0.29431,0.63534 0.16187,0.054 0.30329,0.69331 0.31426,1.42078 0.0267,1.76968 -0.8062,2.93203 -2.38604,3.32984 -0.62312,0.1569 -1.15108,0.41997 -1.17324,0.5846 -0.0222,0.16462 -0.068,0.41838 -0.10178,0.5639 -0.0338,0.14552 -0.0752,0.46813 -0.092,0.7169 -0.0804,1.19172 -2.41017,2.32581 -4.77789,2.32581 -0.94067,0 -1.07346,0.0745 -1.07346,0.60259 0,1.64202 -1.99453,2.63303 -4.10823,2.04123 -0.72956,-0.20426 -1.3881,-0.59355 -1.63086,-0.96405 -0.22396,-0.34179 -0.5679,-0.62144 -0.76433,-0.62144 -0.19642,0 -0.48466,-0.23828 -0.64052,-0.52952 -0.15587,-0.29124 -0.9042,-0.84229 -1.66296,-1.22456 -0.75876,-0.38227 -1.73625,-0.94765 -2.1722,-1.25641 -0.43595,-0.30876 -1.20986,-0.7838 -1.71979,-1.05565 -0.50993,-0.27184 -1.677,-1.01598 -2.59347,-1.65364 -0.91648,-0.63766 -1.70664,-1.15938 -1.7559,-1.15938 -0.0493,0 -0.16983,0.53521 -0.26793,1.18937 -0.1832,1.22165 -1.2299,2.77938 -1.86757,2.77938 -0.19322,0 -0.39884,0.14259 -0.45693,0.31686 -0.0673,0.20197 -0.74639,0.3219 -1.87268,0.33073 l -1.76706,0.0139 -0.001,1.25141 c -0.004,3.35981 -2.3076,5.17365 -5.26257,4.14355 -0.7605,-0.26512 -0.90446,-0.22637 -1.48456,0.39957 -1.15338,1.24452 -2.68411,1.52345 -4.36682,0.79572 z m 2.53013,-2.32883 c 0.0874,-0.34835 0.11946,-1.2673 0.0712,-2.0421 -0.11116,-1.78397 0.30367,-1.92926 1.7643,-0.61794 1.13542,1.01935 2.45001,1.70591 3.2664,1.70591 1.34321,0 1.55276,-2.033 0.43659,-4.23566 -0.49848,-0.98371 -0.6449,-1.58204 -0.52298,-2.13715 0.0931,-0.42402 0.22279,-0.77094 0.28814,-0.77094 0.0653,0 0.8264,0.35718 1.69123,0.79375 1.21459,0.61312 1.92571,0.79375 3.12498,0.79375 1.3535,0 1.58728,-0.0763 1.82322,-0.59532 0.31849,-0.70054 -0.0268,-2.06058 -1.00221,-3.94757 -0.36755,-0.71104 -2.25767,-2.8862 -4.45214,-5.12355 l -3.81344,-3.88795 -3.33031,0.44918 c -1.83167,0.24705 -5.62226,0.5169 -8.42354,0.59966 -2.85644,0.0844 -5.09323,0.25856 -5.09323,0.39659 0,0.38949 1.33671,4.18312 1.93598,5.49437 1.02239,2.23706 3.02382,4.89344 5.40368,7.17195 1.58487,1.51738 2.66679,2.81817 3.24267,3.89862 1.2431,2.33229 3.23377,3.47163 3.58947,2.0544 z m 29.16695,-2.32997 c 0.50537,-0.50536 0.37166,-1.52797 -0.3639,-2.78311 -0.54358,-0.92754 -0.6173,-1.23997 -0.36448,-1.5446 0.45035,-0.54264 0.67797,-0.48891 2.02497,0.47803 0.97994,0.70344 1.43493,0.85634 2.50074,0.84035 1.62165,-0.0243 2.31159,-0.57678 1.88622,-1.51036 -0.15623,-0.34288 -0.77266,-1.18796 -1.36984,-1.87795 -1.17915,-1.36241 -1.23392,-1.49757 -0.78762,-1.94387 0.3455,-0.34549 1.22704,-0.0764 2.33539,0.71278 1.05948,0.75441 3.23377,0.98277 3.81578,0.40076 1.06657,-1.06657 -0.90759,-4.80985 -4.57758,-8.67971 -0.66567,-0.70192 -1.25923,-1.41422 -1.31902,-1.5829 -0.0598,-0.16867 -0.37052,-0.51262 -0.69051,-0.76432 -0.31999,-0.25171 -1.40654,-1.4444 -2.41455,-2.65043 -1.00801,-1.20604 -3.27645,-3.9192 -5.04098,-6.02925 -1.76452,-2.11005 -3.98249,-4.66779 -4.92883,-5.68387 -0.94634,-1.01607 -1.66479,-1.93774 -1.59655,-2.04816 0.2061,-0.33348 1.86698,0.49506 3.47478,1.73342 2.13953,1.64791 8.00425,8.01424 9.96501,10.81732 0.39753,0.56831 0.63012,0.61051 3.81059,0.69147 5.44732,0.13866 15.94234,-0.39534 19.35788,-0.98496 5.95688,-1.02833 12.4703,-3.38426 17.93572,-6.48742 3.00539,-1.70641 3.7744,-2.22857 7.27535,-4.94005 7.58018,-5.87083 13.94347,-16.8774 16.21715,-28.05074 1.74158,-8.55853 0.91006,-15.1256 -2.34542,-18.5232 -2.30852,-2.40931 -4.90926,-3.03596 -11.56614,-2.78688 -5.94366,0.2224 -9.57474,0.86879 -15.74271,2.80247 -5.06335,1.58738 -10.11897,3.95788 -14.48869,6.79352 -1.43767,0.93295 -2.74307,1.61647 -2.9009,1.51892 -0.16587,-0.10251 -0.21123,-0.0548 -0.10749,0.11304 0.1051,0.17005 -0.66986,0.91851 -1.87004,1.80609 -3.31449,2.45117 -9.07558,8.44122 -9.07558,9.43625 0,0.5384 6.69967,-0.40654 10.58333,-1.4927 2.44367,-0.68343 7.32666,-2.70247 7.89199,-3.26322 0.19324,-0.19168 0.60996,-0.48559 0.92604,-0.65312 1.08954,-0.57751 5.34204,-4.1545 7.3082,-6.14731 1.85333,-1.87845 1.99947,-1.972 2.4474,-1.56663 0.262,0.23711 0.47637,0.52025 0.47637,0.62918 0,0.50017 -4.23555,5.04145 -4.53146,4.85856 -0.12707,-0.0785 -0.23104,0.0138 -0.23104,0.20519 0,0.51097 -2.59177,2.92557 -4.34199,4.04517 -2.40568,1.5389 -6.97502,3.72616 -9.31739,4.46008 -4.45293,1.3952 -6.30848,1.61353 -13.72499,1.6149 -6.72823,0.001 -6.96625,-0.0172 -10.84792,-0.84165 -6.52032,-1.38486 -14.45107,-4.25959 -29.33239,-10.6324 -3.37697,-1.44617 -3.73388,-1.53315 -4.05811,-0.98899 -0.78146,1.31157 -7.56906,6.55935 -8.19731,6.33769 -0.17205,-0.0607 -0.4322,0.11269 -0.5781,0.38531 -0.14591,0.27263 -1.55295,1.10014 -3.12677,1.83892 -4.31529,2.02567 -7.22711,2.91493 -7.22711,2.20714 0,-0.24899 2.9162,-2.05035 4.57507,-2.82608 0.46689,-0.21832 1.32514,-0.68405 1.90722,-1.03494 0.58209,-0.3509 1.23693,-0.72261 1.45521,-0.82602 0.21828,-0.10342 1.76609,-1.16711 3.43958,-2.36377 3.2265,-2.30716 7.36644,-6.3792 9.55627,-9.39952 1.95144,-2.69154 3.40832,-4.90406 3.40832,-5.17613 0,-0.13839 -0.49257,-0.57412 -1.0946,-0.96828 -0.95602,-0.62593 -1.14861,-0.66933 -1.52135,-0.34288 -1.04176,0.91242 -2.79512,0.70935 -4.59251,-0.53188 -2.00634,-1.38552 -4.50183,-5.45473 -4.05664,-6.61486 0.14302,-0.37272 0.32343,-0.23744 0.95704,0.71763 0.42944,0.64731 0.7813,1.28194 0.78192,1.41028 5.3e-4,0.12834 0.41786,0.62636 0.92718,1.10671 0.50932,0.48035 0.92604,1.02027 0.92604,1.19982 0,0.17954 0.0742,0.25222 0.16495,0.1615 0.0907,-0.0907 0.54844,0.12756 1.01716,0.48507 0.99333,0.75765 2.45198,0.87591 2.70398,0.21922 0.20193,-0.52624 -0.38683,-2.9909 -0.84516,-3.53796 -0.60342,-0.72023 -0.72245,-1.56252 -0.28292,-2.00205 0.58894,-0.58895 0.83943,-0.33081 1.89697,1.95488 1.62968,3.52229 1.72585,3.66088 2.95516,4.25812 1.16482,0.56591 2.17944,0.53967 2.17944,-0.0564 0,-0.16923 -0.42916,-1.00299 -0.9537,-1.85281 -1.13162,-1.83335 -1.46321,-3.45285 -0.76207,-3.7219 0.65817,-0.25257 0.9815,0.10962 2.07749,2.3272 0.63576,1.28638 1.39657,2.34161 2.19499,3.0444 1.12845,0.99331 1.33923,1.07562 2.75438,1.07562 1.32073,0 1.5566,-0.0762 1.70746,-0.5515 0.23575,-0.74278 -0.90412,-2.88809 -1.53454,-2.88809 -0.4879,0 -1.10461,-1.18168 -0.84008,-1.6097 0.2026,-0.3278 1.17691,-0.30942 1.17691,0.0222 0,0.14553 0.14141,0.26459 0.31426,0.26459 0.17284,0 0.97652,0.51548 1.78593,1.14551 0.80943,0.63004 1.8884,1.37418 2.39772,1.65365 0.50933,0.27947 0.98558,0.57647 1.05834,0.66001 0.28388,0.32591 2.61916,0.81829 3.12284,0.65842 1.18854,-0.37723 0.94548,-1.27518 -0.8973,-3.31492 -0.86354,-0.95583 -1.01145,-1.5824 -0.54863,-2.32403 0.3117,-0.49946 0.47426,-0.43701 2.58262,0.99219 1.07336,0.72761 2.05333,1.32292 2.17772,1.32292 0.12439,0 0.51292,0.22556 0.8634,0.50126 0.49291,0.38772 0.83988,0.45555 1.53188,0.29948 1.84479,-0.41607 1.92252,-0.86839 0.42788,-2.48989 -1.12495,-1.22042 -1.40712,-2.42695 -0.63674,-2.72257 0.24288,-0.0932 1.29547,0.30384 2.48313,0.93665 2.58625,1.37802 4.30195,1.75519 4.91294,1.08006 0.60888,-0.6728 0.14848,-1.39274 -1.61002,-2.51764 -0.78739,-0.50369 -1.67426,-1.17624 -1.97083,-1.49457 -0.45884,-0.49251 -0.48471,-0.63328 -0.17355,-0.94443 0.31115,-0.31116 0.55813,-0.28538 1.65693,0.17296 3.48042,1.45177 6.71522,1.52805 6.71522,0.15835 0,-0.34124 -0.47055,-0.7718 -2.73734,-2.50466 -1.97573,-1.51036 -1.60076,-2.13343 0.78807,-1.30953 1.5694,0.54127 3.50045,0.73298 4.03783,0.40086 0.16098,-0.0995 0.29269,-0.4514 0.29269,-0.78202 0,-0.46895 -0.56725,-0.97119 -2.57968,-2.28403 -3.70506,-2.41705 -3.85201,-2.77361 -1.06078,-2.57389 2.14654,0.15358 2.94166,-0.0484 3.37445,-0.85706 0.67935,-1.26937 -0.49433,-2.11933 -2.92653,-2.11933 -1.23899,0 -2.8499,0.53847 -4.80773,1.60704 -0.66032,0.3604 -1.12665,0.46256 -1.40373,0.3075 -0.37101,-0.20764 -0.36437,-0.29272 0.0628,-0.80429 0.26273,-0.31465 1.31112,-1.20579 2.32977,-1.98031 2.11403,-1.6074 2.46464,-2.39432 1.27511,-2.86188 -1.6496,-0.64841 -4.05671,0.57048 -5.83768,2.95602 -0.66405,0.88946 -1.03291,1.19393 -1.17515,0.97 -0.11402,-0.17951 -0.21275,-0.20731 -0.2194,-0.0618 -0.007,0.14552 -0.12307,0.0748 -0.2587,-0.15719 -0.1549,-0.26493 -0.14403,-0.79325 0.0292,-1.42078 0.32883,-1.1909 0.0465,-1.60799 -0.92363,-1.36451 -0.49796,0.12498 -0.84955,0.57486 -1.3894,1.7778 -0.48208,1.07422 -0.93469,1.69106 -1.35929,1.85249 -0.89478,0.3402 -1.20331,0.0552 -0.99322,-0.91758 0.0984,-0.45571 0.19916,-1.30221 0.22387,-1.88111 0.0354,-0.82888 -0.0577,-1.07276 -0.43779,-1.14767 -0.74601,-0.14701 -1.44284,0.6718 -1.89479,2.22647 -0.43598,1.4997 -1.3221,2.35807 -1.62349,1.57266 -0.0862,-0.22456 -0.32253,-0.40829 -0.52524,-0.40829 -0.20271,0 -0.36857,-0.11906 -0.36857,-0.26458 0,-0.14552 -0.18114,-0.26458 -0.40255,-0.26458 -0.44304,0 -0.75584,0.61031 -1.18564,2.31333 -0.4108,1.62777 -1.27905,2.02112 -3.63479,1.64671 -0.98366,-0.15634 -1.82816,-0.39693 -1.87667,-0.53465 -0.0485,-0.13772 -0.37321,-0.25039 -0.72156,-0.25039 -0.67184,0 -4.06703,-1.19908 -4.43386,-1.56591 -0.11942,-0.11942 0.95201,-0.20443 2.38095,-0.18891 3.03038,0.0329 5.43321,-0.59284 6.08268,-1.58405 0.46903,-0.71583 0.3271,-1.02144 -0.72769,-1.5669 -0.66276,-0.34272 -0.73915,-0.48306 -0.50309,-0.92416 0.23472,-0.43858 0.55959,-0.52007 2.07309,-0.52007 1.80463,0 3.8437,-0.46386 5.23971,-1.19197 0.41367,-0.21575 0.88822,-0.39301 1.05455,-0.3939 0.46502,-0.002 0.67102,-0.81635 0.31517,-1.24512 -0.17468,-0.21047 -1.03993,-0.71338 -1.9228,-1.11757 -2.11349,-0.9676 -2.93604,-1.65443 -2.70437,-2.25816 0.12501,-0.32575 0.35991,-0.42445 0.77173,-0.32423 0.32561,0.0792 1.93317,0.42848 3.57235,0.7761 1.63918,0.34762 2.92952,0.68334 2.86741,0.74604 -0.0621,0.0627 0.2302,0.12651 0.64958,0.14178 0.41938,0.0153 0.69946,-0.0743 0.6224,-0.19894 -0.0771,-0.12468 0.16776,-0.34374 0.54405,-0.48681 1.52948,-0.5815 1.09667,-1.50865 -1.28625,-2.75534 -1.86528,-0.97588 -2.70004,-1.8139 -2.21107,-2.21971 0.25444,-0.21117 0.98376,-0.14669 2.72079,0.24054 3.33909,0.74438 5.38594,0.58853 5.78068,-0.44016 0.28307,-0.73766 -0.31501,-1.38572 -2.08137,-2.2553 -2.04174,-1.00514 -2.45246,-1.40608 -1.9995,-1.95187 0.23599,-0.28434 0.48643,-0.3183 0.97567,-0.13229 0.97066,0.36904 5.47789,0.31733 5.86248,-0.0673 0.54218,-0.54217 0.32332,-2.32833 -0.28528,-2.32833 -0.15488,0 -0.46956,-0.15484 -0.6993,-0.34409 -0.22974,-0.18924 -1.26364,-0.60727 -2.29755,-0.92894 -2.04651,-0.6367 -3.00677,-1.3635 -2.42631,-1.83641 0.38753,-0.31574 2.01641,-0.55368 4.30615,-0.62904 4.42982,-0.14579 6.35295,-3.05161 2.51354,-3.79792 -2.02125,-0.39289 -2.91031,-0.70062 -2.90818,-1.00661 0.001,-0.17629 0.78969,-0.73725 1.75214,-1.24658 1.98337,-1.04959 2.46342,-1.42402 3.11498,-2.42965 0.36172,-0.55829 0.39743,-0.82664 0.16723,-1.25677 -0.37332,-0.69755 -1.71924,-0.71592 -3.64752,-0.0498 -0.76398,0.26393 -1.38906,0.3791 -1.38906,0.25594 0,-0.12316 -0.24085,0.0169 -0.53523,0.31131 -0.42511,0.42511 -0.64286,0.47763 -1.05834,0.25527 -0.2877,-0.15397 -0.52291,-0.42459 -0.52268,-0.60137 2.2e-4,-0.17679 0.82887,-1.27392 1.84143,-2.43809 2.50098,-2.87546 2.78815,-4.390441 0.7576,-3.996841 -0.5054,0.098 -1.61135,0.786581 -2.59945,1.618531 -2.13326,1.79615 -2.3232,1.88829 -2.83579,1.37571 -0.4432,-0.44321 -0.32455,-1.18868 0.55632,-3.495321 0.61385,-1.607423 0.55532,-3.220204 -0.13018,-3.587076 -0.41006,-0.219456 -0.63563,-0.220353 -0.85259,-0.0034 -0.30867,0.308671 -1.17528,3.042766 -1.3791,4.350986 -0.0652,0.418291 -0.23987,1.211291 -0.38822,1.762221 -0.22857,0.84886 -0.36917,0.99079 -0.92147,0.93016 -0.35846,-0.0393 -1.14632,-0.56612 -1.75081,-1.17061 -1.32301,-1.323011 -2.27866,-1.647621 -2.79037,-0.94782 -0.19564,0.26756 -0.3557,0.71778 -0.3557,1.00051 0,0.72166 0.57463,2.55981 0.80023,2.55981 0.10302,0 0.61624,0.55055 1.14049,1.22345 0.76376,0.98033 0.90039,1.32208 0.68754,1.71979 -0.37477,0.70027 -0.76584,0.62559 -2.25012,-0.42969 -1.52372,-1.08333 -2.38868,-1.18387 -2.78081,-0.32324 -0.34231,0.75128 -0.0546,1.55564 1.05137,2.9393 0.90148,1.12785 1.06413,2.12925 0.38798,2.38871 -0.63859,0.24505 -1.48102,-0.0931 -1.3143,-0.52759 0.078,-0.20339 0.0569,-0.34977 -0.047,-0.3253 -0.1039,0.0245 -0.63774,-0.17872 -1.18631,-0.45154 -0.93348,-0.46424 -1.02584,-0.46759 -1.44123,-0.0522 -0.41539,0.41539 -0.41506,0.59395 0.005,2.78629 0.24697,1.28835 0.44904,2.63314 0.44904,2.98843 0,0.58298 -0.78251,1.55733 -1.2507,1.55733 -0.10248,0 -0.75836,-0.56342 -1.45751,-1.25206 -1.06034,-1.0444 -1.34709,-1.20303 -1.72888,-0.95644 -0.5596,0.36143 -0.50226,1.20372 0.23581,3.46428 0.59504,1.82247 0.49497,3.08307 -0.27756,3.49651 -0.36853,0.19724 -0.59143,0.0818 -1.05645,-0.54719 -0.40047,-0.54167 -0.77389,-0.7709 -1.16506,-0.7152 -0.51527,0.0734 -0.58957,0.28115 -0.70798,1.97982 -0.15103,2.16659 -0.53195,2.74019 -2.77813,4.18341 -1.47546,0.94801 -5.73839,2.63338 -6.23886,2.46656 -0.17739,-0.0591 0.32035,-0.5158 1.10608,-1.01483 0.78574,-0.49902 1.56761,-1.02887 1.7375,-1.17744 0.16988,-0.14857 1.08963,-0.80591 2.04389,-1.46075 0.95425,-0.65484 1.80419,-1.36657 1.88875,-1.58162 0.0846,-0.21505 0.2587,-1.22682 0.38697,-2.24839 0.25699,-2.04666 0.91554,-2.92765 2.41221,-3.22699 0.42048,-0.0841 0.76451,-0.17237 0.76451,-0.19617 0,-0.0238 -0.23813,-0.51034 -0.52917,-1.08121 -0.29104,-0.57086 -0.52917,-1.31436 -0.52917,-1.65224 0,-0.86365 -1.00569,-2.74394 -2.83415,-5.29886 -5.22242,-7.29734 -13.49892,-14.01707 -22.69814,-18.428725 -3.73589,-1.791618 -3.87922,-1.85031 -7.80521,-3.196089 C 97.353704,83.27933 77.342554,82.70638 63.380234,87.36034 c -4.75527,1.585039 -8.51855,3.46243 -12.64613,6.308802 -1.72262,1.187907 -5.55623,4.786657 -5.55627,5.215857 -10e-6,0.12557 5.92334,0.22831 13.16302,0.22831 15.90115,0 23.52504,0.49542 34.78069,2.260171 11.761386,1.84404 17.343496,3.58549 21.906296,6.83412 0.94589,0.67345 2.33952,1.41827 3.09696,1.65516 1.90603,0.59611 5.41063,2.993 7.96493,5.44741 2.21507,2.12846 4.01936,4.53678 4.01936,5.36496 0,0.26085 0.16426,0.5373 0.36501,0.61433 0.43843,0.16825 1.28327,2.51457 1.04452,2.90089 -0.097,0.15699 -0.0389,0.19243 0.13709,0.0836 0.18496,-0.11432 0.31969,3e-5 0.34151,0.28984 0.13234,1.7571 0.18175,2.33873 0.20364,2.39687 0.0137,0.0364 -0.003,0.0959 -0.0364,0.13229 -0.0337,0.0364 0.13958,0.35299 0.38514,0.70358 0.24556,0.35059 1.0173,0.83987 1.71498,1.0873 0.72741,0.25797 1.23567,0.59242 1.19154,0.78409 -0.0445,0.19299 0.0807,0.27372 0.29618,0.19103 0.5396,-0.20706 1.90339,0.70316 2.36301,1.57713 0.21697,0.41255 0.60101,1.1458 0.85343,1.62944 0.80193,1.53647 1.21886,3.5358 1.34603,6.45468 0.28147,6.46033 -1.71454,10.32942 -5.83928,11.31892 -1.12155,0.26906 -1.76754,0.29092 -2.53596,0.0858 -0.98699,-0.26345 -1.05897,-0.23863 -1.68388,0.58067 -0.35904,0.47074 -0.58139,0.92731 -0.49409,1.0146 0.0873,0.0873 -0.0369,0.23379 -0.27603,0.32555 -0.2391,0.0917 -0.43474,0.44472 -0.43474,0.78436 0,0.33965 -0.12389,0.6941 -0.2753,0.78768 -0.15142,0.0936 -0.57849,0.66616 -0.94905,1.27239 -1.75197,2.86623 -6.88544,6.12071 -11.51125,7.29783 -8.31858,2.11679 -19.224616,0.81094 -25.211356,-3.01874 -3.16088,-2.02198 -6.70608,-6.45375 -8.89097,-11.11435 -2.84521,-6.06915 -4.28495,-7.96227 -7.05038,-9.27053 -2.76651,-1.30877 -7.11529,-1.80448 -10.38704,-1.184 -1.63671,0.31039 -3.75246,1.70484 -4.96746,3.27394 -0.46641,0.60234 -1.12126,1.39389 -1.45521,1.75898 -0.33395,0.3651 -1.04835,1.19854 -1.58754,1.85209 -1.89553,2.29753 -2.86429,3.30505 -3.18933,3.31696 -0.18053,0.007 -0.30038,0.14969 -0.26635,0.31794 0.034,0.16825 -0.60149,0.87721 -1.41228,1.57547 -0.81078,0.69826 -1.85066,1.60353 -2.31084,2.01171 -1.10023,0.97591 -4.66101,2.71463 -6.65751,3.25083 -0.88968,0.23894 -3.29829,0.50178 -5.47942,0.59794 l -3.89192,0.17159 0.77551,2.30533 c 0.95332,2.83395 2.87697,6.71077 4.25622,8.5778 0.56778,0.76857 1.03232,1.44891 1.03232,1.51187 0,0.063 0.63873,0.7635 1.41941,1.55675 0.78068,0.79325 1.7475,2.00211 2.14849,2.68634 0.75834,1.29402 0.77967,1.73309 0.24231,4.98891 -0.13412,0.8126 -0.0754,1.02167 0.32834,1.16941 0.27041,0.099 1.11334,0.57276 1.87319,1.05292 1.29379,0.81755 7.1478,3.83146 7.28649,3.75141 0.21182,-0.12225 2.0476,0.66501 2.0476,0.8781 0,0.14282 0.10039,0.19764 0.22308,0.12181 0.12269,-0.0758 1.64073,0.3253 3.37343,0.89141 2.89008,0.94424 5.79796,1.76689 7.11911,2.01403 0.29105,0.0544 2.12413,0.39976 4.07352,0.76737 1.9494,0.36762 5.72724,0.93321 8.39521,1.25688 2.79821,0.33947 4.89873,0.71323 4.96399,0.88327 0.2792,0.72758 -0.36203,0.94478 -3.23702,1.09644 -2.49976,0.13188 -2.95091,0.22225 -2.95091,0.59113 0,0.63181 3.13037,6.73108 4.48861,8.74569 1.012,1.50104 4.40161,5.87388 4.96718,6.40801 0.11083,0.10467 0.85635,0.7537 1.65671,1.44228 0.80037,0.68859 1.42545,1.34709 1.38906,1.46334 -0.0364,0.11625 0.0242,0.1816 0.13452,0.14522 0.11037,-0.0364 1.33623,0.78715 2.72414,1.83007 1.3879,1.04292 3.53003,2.50991 4.76027,3.25998 3.420056,2.08517 12.714706,6.61776 13.570556,6.61776 0.1936,0 0.44122,0.0892 0.55027,0.19826 0.10904,0.10904 0.75396,0.33796 1.43316,0.50871 0.67919,0.17074 2.60411,0.67084 4.2776,1.11134 3.86059,1.01617 8.19515,1.76816 12.52648,2.17316 4.96149,0.46392 17.41207,0.0248 18.07433,-0.63741 0.0685,-0.0685 -0.18986,-0.72566 -0.57406,-1.46042 -0.3842,-0.73477 -0.65965,-1.60434 -0.61212,-1.93239 0.078,-0.53847 0.215,-0.45934 1.40933,0.81411 0.72761,0.77581 1.70987,1.81387 2.18281,2.30679 0.47295,0.49293 0.8599,0.9394 0.8599,0.99215 0,0.11644 3.90227,3.89331 5.55625,5.3777 2.68691,2.41141 3.49386,3.07617 5.79744,4.77592 2.19722,1.62127 3.00648,2.19637 5.84423,4.15324 0.50932,0.35122 1.33632,0.84862 1.83777,1.10533 0.50145,0.25671 1.57301,1.08898 2.38125,1.84948 2.72372,2.56285 3.06231,2.76228 3.66556,2.15903 z m -66.61664,-28.53924 c -1.20366,-0.50509 -1.8746,-1.37648 -2.48235,-3.22398 -0.1103,-0.33531 -0.43564,-0.46303 -1.17947,-0.46303 -1.21655,0 -2.62919,-0.43714 -3.32735,-1.02965 -0.97296,-0.82573 -1.55288,-2.60276 -1.35811,-4.16163 l 0.17783,-1.4233 -0.74664,-0.009 c -2.910226,-0.0366 -3.919626,-3.56032 -2.083706,-7.27413 1.06578,-2.15594 1.31462,-2.45831 3.545616,-4.3084 1.77205,-1.46951 4.84328,-3.14564 7.14078,-3.89711 1.29547,-0.42373 2.02617,-0.91515 1.36076,-0.91515 -0.16575,0 -1.72507,0.18522 -3.46516,0.4116 -3.44725,0.44847 -5.29372,0.42635 -5.45531,-0.0653 -0.16593,-0.50494 1.18275,-1.04262 4.1635,-1.65988 1.52797,-0.31642 4.02828,-0.9394 5.55625,-1.38441 4.11576,-1.19868 3.96875,-1.18477 3.96875,-0.37552 0,0.81675 -0.14315,0.79376 1.77303,0.28476 1.84552,-0.49025 4.84155,-0.88982 4.84155,-0.64572 0,0.0963 -1.10132,0.74652 -2.44739,1.44497 -1.34607,0.69845 -2.56646,1.35478 -2.71198,1.45852 -0.14552,0.10374 -2.70537,1.30419 -5.68854,2.66767 -2.98318,1.36349 -5.54302,2.57065 -5.68854,2.68257 -2.48525,1.91153 -3.01014,2.2689 -3.14071,2.13833 -0.0848,-0.0848 -0.23542,0.0577 -0.33478,0.31663 -0.0993,0.25892 -0.57451,1.05605 -1.05592,1.77141 -1.452456,2.15835 -1.776406,3.96766 -0.882236,4.92743 0.871766,0.93574 1.571326,0.73249 3.078046,-0.89429 1.19547,-1.29073 1.43654,-1.44125 1.90595,-1.19002 0.52154,0.27911 0.50182,0.35556 -0.66878,2.59347 -1.09736,2.09787 -1.19539,2.4358 -1.08672,3.74626 0.15091,1.81974 1.04695,2.74762 2.53165,2.62161 0.84174,-0.0714 1.04294,-0.24715 1.83127,-1.59917 0.59805,-1.0257 1.10335,-1.57356 1.55611,-1.68719 0.91447,-0.22952 1.22269,0.15724 0.76514,0.96011 -0.83889,1.47204 -1.0214,2.03691 -1.03999,3.21877 -0.0397,2.52278 1.63901,3.5179 3.63674,2.15588 0.60295,-0.41108 1.22965,-0.83271 1.39266,-0.93697 0.16301,-0.10426 0.69441,0.1041 1.1809,0.46302 1.06013,0.78214 1.81955,0.81425 3.71685,0.15716 3.56965,-1.23628 8.20273,-4.01504 10.78345,-6.46753 1.2394,-1.17782 2.99126,-3.48714 3.95073,-5.20788 2.15594,-3.86658 2.31553,-8.46365 0.48009,-13.82968 -0.48629,-1.42168 -0.77695,-2.65113 -0.64592,-2.73212 0.37055,-0.22901 1.66773,1.3111 2.40765,2.85857 0.75793,1.58511 1.31011,3.21089 1.20641,3.55198 -0.0384,0.12615 0.0922,0.79721 0.29009,1.49125 0.54737,1.91959 0.15968,5.29762 -0.91073,7.93548 -0.98623,2.4304 -2.3204,4.41374 -4.40297,6.54535 -2.40733,2.464 -4.17405,3.80476 -7.2304,5.48712 -4.16071,2.29024 -7.19507,3.17782 -9.27248,2.71226 -0.99083,-0.22205 -1.32221,-0.17852 -2.22572,0.29242 -1.27112,0.66255 -2.80999,0.8645 -3.7099,0.48687 z M 66.080154,158.25326 c -5.98771,-0.78173 -10.30713,-3.94407 -10.30713,-7.54607 0,-2.43402 1.99612,-4.74216 4.43444,-5.12761 0.95965,-0.15169 2.03154,-0.0491 4.17711,0.39977 3.85462,0.80643 5.9106,0.79372 8.85986,-0.0548 2.626,-0.75548 3.40788,-0.71135 5.15216,0.29082 1.19538,0.6868 2.50022,2.75752 2.50022,3.96773 0,4.84759 -7.6374,9.00742 -14.81666,8.07012 z m 5.55625,-2.13141 c 1.87141,-0.29367 4.53911,-1.46634 5.85537,-2.5739 2.31197,-1.9454 1.91871,-5.46621 -0.69009,-6.17823 -0.90873,-0.24802 -1.43253,-0.17981 -3.83646,0.49961 -2.02545,0.57245 -2.95501,0.72228 -3.41153,0.5499 -0.39118,-0.14772 -0.74807,-0.13688 -0.94768,0.0288 -0.322,0.26723 -3.32469,-0.14369 -5.67551,-0.7767 -2.56005,-0.68935 -4.05975,-0.32527 -5.08876,1.23537 -0.83987,1.27378 -0.47781,2.91465 0.99105,4.49152 1.06851,1.14709 3.78003,2.43287 5.92444,2.80935 1.29895,0.22804 5.1887,0.17959 6.87917,-0.0857 z m -7.51504,58.53727 c 0.45064,-0.24856 1.38954,-1.09918 2.08644,-1.89027 0.9872,-1.1206 1.85826,-1.73602 3.94316,-2.78592 3.73359,-1.88011 6.79675,-4.01746 8.51985,-5.9448 l 0.8167,-0.91351 -1.91481,-3.72352 c -1.05314,-2.04794 -2.17463,-4.57893 -2.49219,-5.62443 l -0.57738,-1.9009 -1.23493,-0.17496 c -0.67921,-0.0962 -2.1279,-0.33082 -3.2193,-0.5213 l -1.98438,-0.34633 -1.85208,1.30526 c -4.55139,3.20761 -7.13902,4.80361 -10.71563,6.60923 -4.30877,2.17524 -6.0765,3.59738 -7.04778,5.66994 -0.72696,1.55123 -0.7825,2.31837 -0.20936,2.89151 0.92114,0.92115 1.95506,0.49424 3.61485,-1.49257 1.45157,-1.73758 1.87348,-0.59286 0.71881,1.95027 -0.91493,2.01512 -1.28512,4.24506 -0.80146,4.82784 0.62248,0.75004 2.85434,-0.24807 4.50826,-2.01615 1.24782,-1.33393 1.46564,-1.12887 1.46564,1.37972 v 2.24896 l 0.79375,0.0705 c 0.6154,0.0547 1.049,-0.16827 1.92973,-0.99218 1.57812,-1.47631 1.90673,-1.40867 1.90673,0.39251 0,1.64296 0.27014,1.79481 1.74538,0.9811 z m -31.71107,-23.3734 c 2.24376,-1.26066 4.0952,-2.94891 5.36189,-4.8893 1.11251,-1.70419 2.77431,-5.20465 3.04797,-6.4203 0.59895,-2.66067 0.73576,-3.47823 0.60409,-3.60991 -0.0854,-0.0854 -0.91282,0.1631 -1.83873,0.55218 -2.04993,0.86141 -4.83086,0.98301 -5.93504,0.25953 -0.3754,-0.24597 -0.92048,-0.49304 -1.2113,-0.54905 -0.29081,-0.056 -0.96311,-0.52372 -1.49398,-1.03936 -1.0943,-1.06289 -1.37754,-1.15288 -1.37754,-0.43767 0,0.27492 -0.20836,0.75418 -0.46302,1.06502 -0.39838,0.48625 -0.63651,0.54101 -1.70564,0.39216 -1.4581,-0.203 -1.98179,-0.70303 -2.88092,-2.75079 -0.55203,-1.25722 -0.64257,-1.88716 -0.6655,-4.6302 -0.0242,-2.89914 -0.0878,-3.29183 -0.73209,-4.51961 -0.38805,-0.73953 -1.011827,-2.70406 -1.386172,-4.36562 -0.709208,-3.14787 -0.717736,-4.17205 -0.06726,-8.07789 0.261027,-1.56735 0.239702,-1.67974 -0.690745,-3.64047 -1.384686,-2.91795 -1.811692,-5.33814 -1.814737,-10.28567 -0.0013,-2.29148 -0.03107,-4.13695 -0.06591,-4.10104 -0.12089,0.12462 -2.25445,6.42244 -2.621536,7.73821 -0.202991,0.72761 -0.959187,3.0479 -1.680434,5.15621 l -1.311357,3.83328 0.832762,1.59067 c 1.608341,3.07212 0.940137,6.65492 -1.747414,9.36934 -0.91983,0.92902 -1.068709,1.24864 -1.15407,2.47758 -0.0539,0.77603 -0.442134,2.65537 -0.862737,4.17632 -0.477577,1.72696 -0.7823023,3.50739 -0.8115203,4.74149 -0.02573,1.08688 -0.145458,2.09891 -0.266055,2.24896 -0.120597,0.15005 -0.0667,0.8086 0.119763,1.46344 0.186467,0.65485 0.4777503,1.78594 0.6472963,2.51354 0.169545,0.72761 0.800877,2.33495 1.402959,3.57188 1.150729,2.36408 1.169942,2.41189 1.22251,3.04271 0.01819,0.21828 0.190235,0.39687 0.382323,0.39687 0.537699,0 2.587177,1.86053 2.393924,2.17322 -0.09739,0.15758 -0.01278,0.22216 0.196558,0.15003 0.202157,-0.0696 0.962871,0.19972 1.690476,0.59862 0.727604,0.39889 1.799166,0.87441 2.381249,1.05671 0.582084,0.18229 1.12417,0.43208 1.204638,0.55509 0.369646,0.56506 3.653759,1.0028 6.865159,0.91506 2.89581,-0.0791 3.44699,-0.16885 4.43014,-0.72124 z m 5.36793,-15.97864 c 0.79569,-0.22178 1.58354,-0.43535 1.75076,-0.47461 0.16722,-0.0393 0.47583,-0.21396 0.6858,-0.38822 0.20997,-0.17427 0.43516,-0.26345 0.50041,-0.1982 0.0652,0.0653 0.13805,-0.13905 0.16178,-0.45401 0.0547,-0.72569 -0.91268,-2.31506 -1.40903,-2.31506 -0.20641,0 -0.37529,-0.10934 -0.37529,-0.24298 0,-0.13363 -0.53578,-0.87066 -1.19063,-1.63783 -0.65484,-0.76717 -1.19062,-1.55079 -1.19062,-1.74139 0,-0.1906 -0.0999,-0.34655 -0.22211,-0.34655 -0.21246,0 -0.93582,-1.34464 -0.83809,-1.55792 0.0259,-0.0565 -0.0666,-0.17555 -0.20542,-0.26458 -0.3507,-0.22484 -1.55896,-2.66707 -2.0724,-4.18888 -0.23467,-0.69557 -0.75719,-1.99647 -1.16114,-2.89091 -0.61547,-1.36275 -0.86663,-1.65527 -1.55009,-1.80539 -0.44859,-0.0985 -1.11783,-0.5383 -1.48721,-0.97728 -0.36938,-0.43898 -0.81908,-0.82866 -0.99934,-0.86594 -0.85562,-0.17697 -1.99694,-0.78987 -2.99726,-1.60955 -0.60445,-0.4953 -1.17381,-0.82573 -1.26526,-0.73428 -0.32731,0.32731 -0.15835,4.90118 0.25497,6.90224 0.23168,1.12165 0.83589,3.0514 1.34268,4.28833 0.5068,1.23692 1.06139,2.60614 1.23242,3.04271 0.17102,0.43656 0.43002,0.8787 0.57554,0.98253 0.14552,0.10383 0.2688,0.28243 0.27396,0.39688 0.0317,0.70432 2.43566,3.74095 4.44363,5.61317 1.03288,0.96305 2.78882,1.83064 3.75756,1.85657 0.29571,0.008 1.18868,-0.16707 1.98438,-0.38885 z m -10.06265,-1.52919 c 0,-0.90393 -1.19756,-3.62382 -1.59556,-3.62382 -0.42974,0 -0.45676,0.40356 -0.11513,1.71979 0.18885,0.7276 0.38312,1.50108 0.43171,1.71883 0.0917,0.411 0.73457,1.03621 1.08054,1.05088 0.10914,0.005 0.19844,-0.38493 0.19844,-0.86568 z M 7.2765077,168.13522 c 0.539405,-0.14456 0.595312,-0.31994 0.595312,-1.86751 v -1.70797 l -1.427744,0.17839 c -1.76513,0.22053 -2.936695,-0.0192 -3.60624,-0.73784 -0.688119,-0.73861 -0.252754,-1.34018 0.706079,-0.97563 1.980797,0.7531 5.655901,-0.0377 7.5903893,-1.63332 1.436924,-1.1852 2.743885,-3.9515 2.610221,-5.52477 -0.292353,-3.44111 -2.618813,-5.53862 -6.1563013,-5.55044 -2.224656,-0.007 -3.888037,0.56631 -5.335393,1.84032 -1.71603502,1.51052 -2.40201202,3.03624 -2.41254502,5.36588 -0.009,1.99596 0.317313,2.94678 1.40799702,4.10235 0.310814,0.32931 0.492485,0.71626 0.403712,0.8599 -0.08877,0.14363 -0.02829,0.26115 0.134409,0.26115 0.162697,0 0.227313,0.11084 0.143591,0.2463 -0.08372,0.13547 -0.02928,0.32229 0.120992,0.41516 0.150269,0.0929 0.203515,0.28164 0.118326,0.41948 -0.08519,0.13784 -0.265726,0.18211 -0.401191,0.0984 -0.461325,-0.28511 -0.246256,1.59563 0.281436,2.46111 0.984159,1.61415 3.094844,2.32043 5.22695,1.74905 z M 114.3666,161.63526 c 1.01865,-0.16939 1.91162,-0.39217 1.98438,-0.49506 0.0728,-0.10289 0.54901,-0.37514 1.05833,-0.60499 2.00031,-0.90271 3.15575,-1.71282 4.59963,-3.22492 1.42728,-1.49471 1.5245,-1.55006 1.88451,-1.07298 0.34229,0.4536 0.29855,0.59531 -0.44512,1.44231 -0.9529,1.08529 -0.57791,1.49723 0.53684,0.58973 0.3851,-0.31351 0.87878,-0.63137 1.09706,-0.70636 0.4029,-0.13841 1.55475,-1.68867 1.91996,-2.58406 0.1101,-0.26991 0.41583,-0.8057 0.67941,-1.19062 1.26329,-1.8449 2.38265,-5.59466 1.67009,-5.59466 -0.12565,0 -0.54331,0.68461 -0.92815,1.52136 -1.78997,3.89193 -3.52625,6.39553 -4.16262,6.00223 -0.37641,-0.23263 -0.27518,-0.91097 0.16091,-1.07832 0.21887,-0.084 0.85744,-1.12205 1.41905,-2.3068 2.74846,-5.79808 3.65556,-10.67419 3.35394,-18.02909 -0.0955,-2.32834 -0.2271,-4.65005 -0.29247,-5.15938 -0.26339,-2.05204 -0.69486,-4.16434 -1.08092,-5.29166 -0.51616,-1.50724 -2.23391,-5.03968 -2.68233,-5.51601 -0.187,-0.19864 -0.8115,-1.05548 -1.38778,-1.90409 -0.57628,-0.84861 -1.16936,-1.61806 -1.31796,-1.7099 -0.1486,-0.0918 -0.18962,-0.30759 -0.0911,-0.47943 0.0985,-0.17185 0.0837,-0.22631 -0.0328,-0.12103 -0.11648,0.10528 -0.80597,-0.28167 -1.53219,-0.85989 -0.72622,-0.57823 -1.41918,-1.05132 -1.53992,-1.05132 -0.12074,0 0.28177,0.7863 0.89446,1.74734 0.61269,0.96104 1.11936,1.82424 1.12594,1.91823 0.007,0.094 0.27407,0.6714 0.59444,1.28314 0.75847,1.44824 1.58067,3.67962 1.77553,4.81861 0.085,0.49707 0.20946,0.99251 0.27649,1.10096 0.067,0.10846 0.32724,1.19004 0.57823,2.40352 0.59135,2.85897 0.66474,15.06046 0.11034,18.34591 -0.5532,3.27834 -1.64208,6.99663 -2.51816,8.59895 -0.43761,0.80037 -1.02103,1.89586 -1.2965,2.43444 -0.90847,1.77617 -4.50669,4.96775 -5.75004,5.1002 -0.0728,0.008 -0.25364,0.0916 -0.40196,0.18636 -0.64012,0.4089 -3.21109,1.26843 -4.26828,1.42696 -0.63283,0.0949 -1.15059,0.29347 -1.15059,0.44126 0,0.2919 2.00248,0.14405 5.15937,-0.38094 z m -6.51625,-1.14831 c 2.63048,-0.38044 5.82969,-1.29588 7.51068,-2.14915 1.42643,-0.72406 3.49288,-3.15104 4.61309,-5.41791 2.42228,-4.90179 3.36899,-10.11681 3.35558,-18.48457 -0.01,-6.02693 -0.27449,-8.1755 -1.5491,-12.56771 -1.58814,-5.47257 -4.37687,-9.72702 -7.97537,-12.16712 -0.85541,-0.58004 -1.65051,-1.20512 -1.76688,-1.38906 -0.11637,-0.18394 -0.4173,-0.33444 -0.66873,-0.33444 -0.25143,0 -0.74248,-0.19985 -1.09121,-0.44412 -1.32899,-0.93086 -6.93976,-2.55712 -11.654506,-3.378 -12.65848,-2.20398 -25.53982,-3.18503 -41.67188,-3.17374 -10.38091,0.007 -14.71937,0.22806 -18.38854,0.93582 -4.49598,0.86725 -7.84043,2.50946 -10.07528,4.94722 -4.03723,4.40376 -6.900755,16.11902 -7.343937,30.04558 -0.185071,5.81558 -0.231386,5.39261 1.069067,9.76255 0.1624,0.5457 0.3696,0.99218 0.46045,0.99218 0.0909,0 0.36658,0.32743 0.61272,0.72761 1.5735,2.55827 4.53877,4.52034 7.92451,5.24351 2.28203,0.48744 8.95863,0.53738 11.1059,0.0831 1.96977,-0.41675 5.33174,-2.0264 6.56623,-3.14379 1.83645,-1.66225 4.81159,-4.64047 5.68763,-5.69351 0.58209,-0.6997 1.32623,-1.53425 1.65365,-1.85457 0.32742,-0.32031 0.59531,-0.67101 0.59531,-0.77932 0,-0.37449 4.36898,-4.41107 5.29818,-4.89508 1.58561,-0.82594 3.97906,-1.14677 7.47348,-1.0018 2.65219,0.11004 3.56782,0.26125 5.07787,0.8386 1.01323,0.38739 1.92644,0.8406 2.02936,1.00712 0.10292,0.16653 0.38568,0.33192 0.62837,0.36754 0.24268,0.0356 0.68343,0.28212 0.97943,0.54779 0.77223,0.69306 2.63313,3.21237 3.28833,4.45177 0.30772,0.58209 1.36583,2.60615 2.35137,4.49792 0.98554,1.89177 2.18335,4.0318 2.6618,4.75562 0.69764,1.05542 0.80773,1.39269 0.55596,1.70318 -0.25942,0.31991 -0.22887,0.35523 0.17588,0.20334 0.47686,-0.17895 1.74383,0.71137 1.75456,1.23295 0.006,0.2842 1.11136,1.21225 1.45978,1.22546 0.14552,0.006 0.62526,0.33689 1.06607,0.7364 0.44082,0.39951 0.9766,0.76447 1.19063,0.81101 0.21403,0.0466 0.86539,0.30385 1.44747,0.5718 3.07519,1.41555 8.644256,1.90142 13.592076,1.18583 z m -10.198296,-3.00854 c -3.28792,-0.59557 -3.7338,-0.74944 -5.91893,-2.04249 -2.72971,-1.61531 -4.76543,-4.27378 -6.32721,-8.26275 -0.30521,-0.77955 -1.23626,-2.8023 -2.06899,-4.49499 -3.15811,-6.41946 -7.20798,-9.04366 -13.93892,-9.03202 -5.31944,0.009 -8.51034,1.23096 -12.62214,4.83287 -1.38904,1.21679 -3.5196,3.31979 -4.73457,4.67333 -5.81716,6.48064 -9.3474,8.16102 -16.52052,7.86373 -6.45133,-0.26738 -9.9462,-2.33947 -11.00804,-6.52661 -0.47892,-1.88849 -0.39913,-8.40495 0.16199,-13.22916 0.82845,-7.1227 2.76759,-15.28681 4.43049,-18.65313 1.91731,-3.88134 5.20099,-6.17983 9.98744,-6.99093 3.50816,-0.59448 15.59391,-0.88784 23.54791,-0.57157 20.04739,0.79712 29.81122,1.92257 40.472916,4.6652 9.23145,2.37472 13.20564,6.37399 15.33128,15.42804 0.74716,3.18248 1.07702,8.39524 0.81443,12.87022 -0.65143,11.10116 -2.13624,15.07214 -6.64984,17.78427 -3.14049,1.88707 -9.74034,2.631 -14.957296,1.68599 z m 10.496836,-1.52473 c 2.59209,-0.51395 3.93497,-1.1241 5.35517,-2.4332 2.98067,-2.74748 4.28859,-8.48271 4.29205,-18.82058 0.002,-4.8205 -0.0929,-6.40617 -0.49698,-8.33437 -1.69997,-8.11293 -5.05758,-12.35017 -11.53102,-14.55193 -8.545986,-2.90668 -22.684996,-4.74137 -41.977306,-5.44702 -7.25805,-0.26547 -16.58015,-0.18754 -21.12628,0.17661 -2.90267,0.2325 -5.96637,0.90455 -7.37676,1.61814 -1.75192,0.88639 -3.65921,2.85666 -4.63326,4.78625 -2.42907,4.81197 -4.58766,15.70586 -4.97128,25.089 -0.1363,3.33357 -0.0842,4.33468 0.31332,6.02276 0.41997,1.78332 0.61579,2.15275 1.64305,3.09964 1.39747,1.28814 2.42504,1.74651 5.03465,2.24581 2.43946,0.46675 5.14504,0.46707 7.75791,8e-4 3.34111,-0.59608 5.30779,-1.81387 8.84696,-5.47816 4.96398,-5.13948 8.86354,-8.89638 8.86354,-8.53929 0,0.0459 0.8632,-0.37793 1.91823,-0.94187 2.54981,-1.36295 4.31839,-1.85327 7.34218,-2.03554 4.56328,-0.27507 8.4838,0.62495 11.65312,2.67518 2.75947,1.78509 4.94157,4.94536 7.1323,10.3295 2.6955,6.6247 4.68996,8.84573 9.12812,10.16508 3.63325,1.08007 8.546136,1.2229 12.832286,0.37307 z M 95.791994,140.8648 c -0.35114,-0.0681 -0.92057,-0.65871 -1.43202,-1.48532 -0.68807,-1.11206 -0.86737,-1.71096 -0.94548,-3.15822 -0.0654,-1.21135 10e-5,-1.78594 0.20356,-1.78594 0.16498,0 0.23734,-0.16318 0.16081,-0.36262 -0.0765,-0.19943 0.21706,-0.79475 0.65242,-1.32291 0.43535,-0.52817 0.69955,-0.9603 0.58709,-0.9603 -0.27553,0 0.39011,-0.65266 0.70834,-0.69454 0.13824,-0.0182 0.28112,-0.0571 0.3175,-0.0864 0.16124,-0.12998 1.2109,-0.3427 2.18281,-0.44238 1.17452,-0.12046 1.61877,0.16207 2.854656,1.81544 0.67664,0.90521 0.73423,1.16358 0.69272,3.10799 -0.0249,1.16638 -0.14061,2.1207 -0.25714,2.1207 -0.11653,0 -0.27938,0.2127 -0.36189,0.47266 -0.0825,0.25996 -0.68015,1.03387 -1.328086,1.71979 -1.06908,1.13175 -1.28329,1.2438 -2.31521,1.2111 -0.62542,-0.0198 -1.39946,-0.0869 -1.72008,-0.14907 z m -50.88859,-3.84979 c -1.66298,-0.83859 -2.42574,-2.38459 -2.25181,-4.56407 0.0697,-0.87312 0.16864,-1.86005 0.21992,-2.19318 0.0996,-0.64701 1.75417,-2.81302 1.97791,-2.58929 0.0735,0.0735 0.38255,-0.0408 0.68686,-0.25395 0.71578,-0.50136 1.59252,-0.4911 2.69384,0.0315 0.57106,0.27098 0.83186,0.5525 0.73813,0.79675 -0.0949,0.24723 -0.0159,0.3282 0.22856,0.23438 0.24317,-0.0933 0.5416,0.20571 0.85522,0.8569 0.54978,1.14153 0.89351,4.04293 0.47897,4.04293 -0.14683,0 -0.34654,0.38695 -0.4438,0.85989 -0.12768,0.62081 -0.60698,1.20933 -1.7239,2.11667 -0.85088,0.69122 -1.71183,1.25677 -1.91321,1.25677 -0.20138,0 -0.89739,-0.26789 -1.54669,-0.59531 z m 90.100696,11.30284 c 0.43656,-0.11734 0.87226,-0.22305 0.96823,-0.23492 0.29948,-0.037 1.18392,-1.29261 1.78577,-2.53511 0.48712,-1.00567 0.57574,-1.64293 0.57046,-4.10229 -0.009,-4.1579 -0.71325,-7.32745 -1.95149,-8.78189 -1.18981,-1.39757 -4.57536,-2.45512 -5.12766,-1.60176 -0.11773,0.1819 -0.21953,2.59292 -0.22621,5.35781 -0.009,3.82197 -0.12024,5.45916 -0.46302,6.82944 -0.24798,0.9913 -0.45087,2.03275 -0.45087,2.31434 0,1.15316 3.11759,3.73185 3.83646,3.1733 0.14552,-0.11306 0.62177,-0.30158 1.05833,-0.41892 z m -123.207928,-3.9858 c 0.896836,-0.62817 0.720195,-2.2193 -0.300427,-2.70615 -0.639729,-0.30516 -0.832657,-0.2942 -1.403283,0.0797 -0.9322823,0.61086 -1.0531093,1.13132 -0.5007493,2.15699 0.5375293,0.99813 1.2370203,1.1471 2.2044593,0.46948 z m 2.341805,-1.21509 c -0.08446,-0.21107 -0.147156,-0.14837 -0.159852,0.15985 -0.01149,0.27892 0.05105,0.43519 0.138964,0.34727 0.08792,-0.0879 0.09732,-0.31613 0.02089,-0.50712 z m 139.519253,-0.74414 c 0,-0.14552 -0.11204,-0.26458 -0.24897,-0.26458 -0.13693,0 -0.32256,0.11906 -0.41249,0.26458 -0.0899,0.14552 0.0221,0.26458 0.24897,0.26458 0.22686,0 0.41249,-0.11906 0.41249,-0.26458 z M 131.3147,127.9487 c 0.041,-1.45591 -2.01432,-7.23345 -2.77506,-7.80088 -0.0975,-0.0728 -0.58492,-0.70695 -1.08303,-1.40931 -0.49812,-0.70237 -0.94782,-1.15059 -0.99933,-0.99605 -0.0515,0.15454 0.14079,0.61024 0.42735,1.01267 0.92292,1.29613 2.75265,6.11356 3.06248,8.06315 0.08,0.50367 0.2238,1.11971 0.31946,1.36898 0.2323,0.60537 1.02949,0.42392 1.04813,-0.23856 z M 19.568546,127.60693 c 0.140563,-0.14057 0.418489,-1.31082 0.617612,-2.60057 0.399796,-2.58952 1.022675,-5.7415 1.456835,-7.37208 0.154988,-0.58209 0.388951,-1.47505 0.519917,-1.98438 0.413014,-1.60617 1.802634,-5.26902 2.230984,-5.88058 0.36826,-0.52577 0.57106,-1.52775 0.30921,-1.52775 -0.0561,0 -0.43681,0.17368 -0.84596,0.38595 -1.31442,0.68192 -1.857932,-0.38472 -1.02086,-2.00344 0.22681,-0.4386 0.37564,-1.17683 0.33073,-1.6405 -0.0724,-0.74779 -0.17134,-0.84069 -0.8754,-0.82216 -0.436565,0.0115 -1.105038,0.10965 -1.485495,0.21812 -0.527635,0.15044 -0.732721,0.0904 -0.864463,-0.25286 -0.09499,-0.24755 -0.05263,-0.59479 0.09414,-0.77164 0.146769,-0.17684 0.20035,-0.38804 0.119067,-0.46932 -0.08128,-0.0813 0.157877,-0.75098 0.531464,-1.48821 0.817951,-1.614151 0.839096,-1.991921 0.150079,-2.680941 -0.678669,-0.67867 -0.854607,-0.66643 -1.795063,0.12492 -0.427532,0.35974 -0.872474,0.5681 -0.988761,0.46302 -0.116287,-0.10509 -0.130868,-0.0505 -0.0324,0.12138 0.23936,0.41775 -0.241486,0.686481 -0.870884,0.48672 -0.355087,-0.1127 -0.595633,-0.57447 -0.80141,-1.53843 -0.606965,-2.843312 -2.201347,-4.948384 -3.448182,-4.552655 -1.071059,0.339942 -0.957891,2.428941 0.269169,4.968665 0.993726,2.056771 0.364336,2.591351 -1.38564,1.17691 -1.397468,-1.12952 -2.1231063,-1.51511 -2.8512963,-1.51511 -0.310232,0 -0.488336,-0.11948 -0.397413,-0.26659 0.247256,-0.400073 -1.269096,0.2997 -1.654887,0.7637 -0.574198,0.6906 -0.365524,1.094281 0.830748,1.607061 0.638812,0.27383 1.241151,0.62678 1.338531,0.78435 0.09738,0.15756 0.40401,0.28648 0.6814,0.28648 0.5244843,0 2.3748423,1.4644 2.3748423,1.87949 0,0.3516 -1.047504,0.28077 -2.2489593,-0.15207 -1.566399,-0.56432 -3.094436,-0.50985 -3.786568,0.13497 -0.318481,0.29671 -0.579056,0.63544 -0.579056,0.75274 0,0.51468 1.081812,1.0971 3.031202,1.6319 1.155193,0.31692 2.2852043,0.66761 2.5111363,0.77931 0.225932,0.11169 0.767974,0.30925 1.204536,0.43901 0.436563,0.12976 0.808633,0.38189 0.826823,0.56029 0.01819,0.1784 0.06167,0.41365 0.09661,0.52279 0.260403,0.81324 -0.521043,2.18282 -1.245459,2.18282 -0.382004,0 -2.5406233,0.62661 -3.8552773,1.11912 -1.442796,0.54052 -1.560138,1.8669 -0.244154,2.75981 0.592232,0.40184 1.167041,0.47702 3.2969743,0.43119 3.298125,-0.071 3.362796,0.27027 0.330729,1.74504 -2.4299683,1.18192 -2.7366873,1.65919 -1.7197913,2.67609 0.5955383,0.59553 2.3934903,0.71636 3.9627643,0.2663 0.730393,-0.20948 0.998744,-0.17937 1.321169,0.14822 0.364052,0.36989 0.291486,0.50895 -0.723968,1.38735 -1.202036,1.0398 -1.420528,1.82893 -0.704608,2.54485 0.76967,0.76967 2.239182,0.35356 4.316261,-1.22219 1.491441,-1.13147 1.696652,-0.13914 0.330484,1.59811 -1.668235,2.12138 -2.026555,3.22427 -1.292207,3.97736 0.365353,0.37467 2.204977,0.24721 2.634747,-0.18256 z m 9.778618,-23.81253 c 0.23098,-0.56004 2.70749,-1.91288 4.8507,-2.64979 2.54449,-0.87488 2.9447,-0.96346 6.59616,-1.459901 l 2.36284,-0.32124 1.25821,-3.913906 c 0.69201,-2.152647 1.38388,-4.065325 1.53747,-4.250396 0.1536,-0.18507 0.21455,-0.401206 0.13546,-0.4803 -0.0791,-0.07909 0.53182,-2.211263 1.3576,-4.738156 4.549,-13.920125 5.70806,-17.442867 6.21253,-18.881848 0.96913,-2.764406 2.32168,-7.15773 2.50586,-8.139525 0.16884,-0.899978 0.11459,-0.992785 -1.1047,-1.889771 -2.41499,-1.776613 -6.12166,-2.668195 -8.46333,-2.035722 -1.25308,0.338452 -1.6012,0.791202 -2.46156,3.201477 -0.33765,0.945885 -0.73581,2.017447 -0.88482,2.381249 -0.14901,0.363802 -0.31867,0.949939 -0.37702,1.302528 -0.0584,0.352587 -0.24585,0.888368 -0.41666,1.190625 -0.1708,0.302255 -0.3323,0.728149 -0.35889,0.946431 -0.0452,0.3713 -2.79526,8.39149 -3.1753,9.260416 -0.0955,0.218281 -0.20672,0.515937 -0.24724,0.661458 -0.65277,2.344433 -1.54477,5.109564 -1.96319,6.085694 -0.29098,0.678821 -0.52905,1.410314 -0.52905,1.625542 0,0.215228 -0.28493,1.009028 -0.63319,1.764003 -0.34825,0.754973 -0.78337,2.027521 -0.96692,2.827885 -0.18355,0.800365 -0.42204,1.633802 -0.52999,1.852084 -0.10793,0.218281 -0.94493,2.718593 -1.85997,5.556249 -0.91505,2.837657 -1.93793,5.784453 -2.27308,6.548434 -0.33514,0.76399 -0.55739,1.38907 -0.49389,1.38907 0.0635,0 -0.0571,0.41289 -0.26792,0.91754 -0.21085,0.50465 -0.38337,1.04043 -0.38337,1.19063 0,0.32232 0.44576,0.36839 0.57326,0.0592 z"
       id="path692" /></g></svg>
