<?xml version="1.0" encoding="UTF-8" standalone="no"?>
<!-- Created with Inkscape (http://www.inkscape.org/) -->

<svg
   width="225.29199mm"
   height="164.33589mm"
   viewBox="0 0 225.29198 164.3359"
   version="1.1"
   id="svg5"
   xml:space="preserve"
   xmlns="http://www.w3.org/2000/svg"
   xmlns:svg="http://www.w3.org/2000/svg"><defs
     id="defs2" /><g
     id="layer1"
     transform="translate(37.922056,-75.628585)"><path
       style="fill:#000000;stroke-width:0.264583"
       d="m 85.855658,239.77808 c -1.63164,-0.35001 -3.27499,-1.14515 -4.10691,-1.98713 -0.73649,-0.7454 -1.51731,-2.83733 -1.52475,-4.08505 -0.0103,-1.73358 -0.71751,-1.90034 -9.12407,-2.15151 -3.92906,-0.1174 -8.23186,-0.22119 -9.56177,-0.23066 l -2.41802,-0.0172 -0.92261,1.94274 c -2.12874,4.48254 -4.50976,5.50994 -12.76218,5.50686 -4.8001,-0.002 -7.61496,-0.40202 -9.98995,-1.42043 -1.6288,-0.69845 -2.84301,-2.06389 -2.84032,-3.19411 0.006,-2.39822 2.56417,-8.00951 6.03179,-13.22904 l 1.19253,-1.79502 -0.30588,-2.489 c -0.16823,-1.36896 -0.30588,-3.44847 -0.30588,-4.62114 0,-1.17267 -0.0938,-2.13212 -0.20844,-2.13212 -0.11463,0 -1.27549,0.37874 -2.57968,0.84164 -2.99688,1.06369 -6.21664,1.20549 -7.92401,0.34898 -4.13956,-2.07662 -2.46747,-6.98841 4.97028,-14.60026 1.7322,-1.77274 3.07624,-3.34164 2.98676,-3.48642 -0.0895,-0.14479 -0.60752,-0.40438 -1.1512,-0.57688 -2.54667,-0.80799 -9.17071,-3.90661 -13.02704,-6.09384 C 12.828548,180.94538 6.3028179,174.87982 1.7181679,167.1926 l -0.85467001,-1.43306 -2.39431899,0.89934 c -2.822559,1.06019 -7.059165,1.76992 -8.5367729,1.4301 -1.028059,-0.23644 -2.837682,-1.43752 -2.837682,-1.88343 0,-0.39508 -0.59908,-0.29715 -1.834983,0.29998 -2.421628,1.17 -3.827415,0.93508 -4.804177,-0.80284 -0.444323,-0.79057 -0.790985,-1.02036 -2.138297,-1.41743 -2.094473,-0.61727 -3.954697,-1.83822 -5.851723,-3.84073 -3.613425,-3.81437 -4.127214,-9.01323 -1.217443,-12.31891 2.464133,-2.7994 6.375998,-3.64807 11.216415,-2.43337 2.309391,0.57954 2.702901,-0.002 0.691054,-1.02177 -1.521057,-0.77078 -3.292165,-2.72903 -3.902175,-4.31448 l -0.432647,-1.12448 h -2.22151 c -1.270955,0 -2.58581,-0.15312 -3.072908,-0.35785 -1.783958,-0.74982 -3.629522,-3.22181 -3.629522,-4.86146 0,-0.61269 -0.242811,-0.88923 -1.389062,-1.582 -2.008416,-1.21386 -5.054235,-4.34942 -5.923316,-6.09784 -0.696054,-1.40032 -0.670381,-4.12253 0.05049,-5.35322 0.756461,-1.29146 2.534644,-2.56826 4.285748,-3.07732 3.041758,-0.88426 8.593494,-0.003 10.42594,1.65576 0.448082,0.40551 0.585623,0.38767 2.038543,-0.26436 2.695186,-1.20953 3.958304,-0.95302 6.561531,1.33249 l 1.698787,1.49145 0.756419,-0.55925 c 0.416034,-0.30758 1.06706,-0.63721 1.446726,-0.7325 0.4189759,-0.10515 0.7314859,-0.39574 0.7950759,-0.7393 0.532545,-2.87715 0.73171,-4.17362 0.649491,-4.22791 -0.05358,-0.0354 -0.606917,-0.39079 -1.229648,-0.78981 -0.7280279,-0.46649 -1.3379959,-1.149 -1.7086029,-1.91182 -0.484529,-0.99731 -0.746786,-1.2298 -1.645888,-1.45904 -5.865902,-1.49567 -8.186502,-5.34439 -5.326721,-8.83438 0.522449,-0.63758 0.949907,-1.29833 0.949907,-1.46833 0,-0.17 -0.355835,-0.80481 -0.790747,-1.410685 -1.043302,-1.45342 -1.431094,-3.60031 -1.202603,-6.65784 0.26225,-3.50927 1.033574,-6.22917 2.776178,-9.78958 1.86178,-3.8039 3.474564,-5.73084 5.875628,-7.02018 1.4907389,-0.8005 1.8951809,-0.89853 3.6602939,-0.88714 2.292349,0.0148 3.888141,0.5518 6.200301,2.08652 2.154159,1.42985 5.219019,4.59835 6.616009,6.83972 0.65623,1.05288 1.54819,2.17683 1.98214,2.49765 1.30336,0.96362 2.15637,2.7208 2.43562,5.01731 0.2161501,1.77752 0.3443801,2.11887 0.9664201,2.57259 1.63292,1.19107 3.60209,3.24903 4.05647,4.23936 0.52395,1.141975 0.6355,3.318835 0.25422,4.960745 -0.19102,0.82256 -0.13634,1.1163 0.32012,1.71979 0.30277,0.4003 0.56985,0.7594 0.59352,0.79801 0.0237,0.0386 0.4202,-0.0884 0.88121,-0.28222 0.46101,-0.19384 0.77723,-0.41339 0.70273,-0.4879 -0.18197,-0.18197 2.70082,-2.91392 5.15373,-4.88409 8.2087,-6.593185 16.71602,-10.876775 26.45834,-13.322265 6.41155,-1.60942 12.29085,-2.35807 20.24702,-2.57819 13.93864,-0.38564 29.24647,2.67379 40.861522,8.1666 7.861,3.71749 13.69853,7.845525 20.22765,14.304035 1.87902,1.8587 3.52512,3.37945 3.658,3.37945 0.13288,0 1.09581,-0.49976 2.13985,-1.11057 1.04403,-0.61082 2.67215,-1.51074 3.61803,-1.99983 0.94589,-0.4891 1.84916,-1.05704 2.00727,-1.26209 0.17523,-0.22726 0.24264,-1.1768 0.17264,-2.43194 -0.10893,-1.95334 -0.0743,-2.11457 0.67396,-3.13885 1.0823,-1.481495 2.33553,-2.032805 4.36511,-1.920285 1.6086,0.0892 1.61697,0.0859 1.78287,-0.70415 0.37849,-1.80238 1.67095,-3.05018 3.72968,-3.60081 1.01341,-0.27105 1.41756,-0.25683 2.46054,0.0865 1.0814,0.35601 1.28972,0.36023 1.56076,0.0317 0.17204,-0.20855 0.46734,-0.5223 0.65623,-0.69723 0.18889,-0.17494 0.54607,-0.51405 0.79375,-0.75359 0.87911,-0.85024 3.9149,-2.32402 5.60969,-2.72333 2.13042,-0.50194 6.04303,-0.52591 7.80521,-0.0478 1.56933,0.42578 3.30729,1.23288 3.30729,1.53589 0,0.11857 0.14883,0.21797 0.33073,0.2209 0.38482,0.006 2.28363,1.923 2.9156,2.94325 0.76657,1.23754 1.51634,3.87418 1.51036,5.311315 -0.007,1.6565 -0.58599,3.02728 -2.03676,4.82116 l -1.05709,1.30707 0.66057,1.44288 c 1.47907,3.23072 0.97544,4.96822 -1.84925,6.37973 -0.88936,0.44442 -1.77659,0.80803 -1.97162,0.80803 -0.47759,0 -0.44912,0.23419 0.18906,1.55505 0.29902,0.6189 0.61276,1.70865 0.69721,2.42165 0.14397,1.21564 0.0967,1.35323 -0.75932,2.20923 -1.01094,1.01093 -3.43107,1.88109 -6.17011,2.21845 l -1.5875,0.19553 -0.1881,2.51307 c -0.17773,2.3746 -0.15702,2.53493 0.37595,2.90993 0.31023,0.21829 0.9903,0.83106 1.51127,1.36171 l 0.94721,0.96484 2.24871,-0.77584 c 1.96979,-0.67961 2.54741,-0.76516 4.65688,-0.68974 3.56196,0.12735 5.74697,1.29024 9.31935,4.95987 2.437,2.50333 3.21038,4.91701 2.32136,7.24487 -1.17284,3.07104 -6.78659,6.96992 -11.87641,8.24844 -1.69652,0.42616 -1.74239,0.46043 -1.9051,1.42354 -0.56135,3.32258 -3.2748,4.49302 -7.15285,3.08537 -1.19832,-0.43497 -1.77868,-0.53925 -1.84058,-0.33073 -0.19915,0.67089 -0.66665,2.80354 -0.66665,3.04115 0,0.13933 0.62508,0.39537 1.38906,0.56898 4.47046,1.01589 7.73833,3.24977 9.23088,6.31015 0.80908,1.65894 0.86049,4.72112 0.1051,6.25927 -1.11033,2.26089 -5.47962,5.72136 -9.50347,7.52674 -3.46515,1.55471 -5.92444,2.18949 -8.6299,2.22751 -2.30633,0.0324 -2.61682,-0.0254 -3.76632,-0.70109 l -1.25278,-0.73641 -1.12854,1.17781 c -0.6207,0.6478 -1.4685,1.26314 -1.884,1.36742 -1.06912,0.26833 -2.39588,-0.43921 -3.19382,-1.70323 -0.923,-1.46213 -1.19898,-1.56231 -1.83556,-0.66628 -0.30007,0.42237 -1.08574,1.33164 -1.74593,2.02061 l -1.20034,1.25267 -3.12157,0.004 c -3.0914,0.004 -3.13486,-0.004 -4.49791,-0.88009 -0.757,-0.4863 -1.67401,-1.28242 -2.03781,-1.76915 -0.36381,-0.48673 -0.92146,-1.19018 -1.23923,-1.56321 l -0.57776,-0.67824 -1.14203,1.09373 c -2.77757,2.66011 -8.31237,6.44411 -13.18057,9.01124 -3.99307,2.10565 -11.16996,4.87568 -14.644982,5.65246 -0.8715,0.1948 -1.61433,0.5186 -1.69961,0.74085 -0.27028,0.70433 0.47022,4.09379 1.14647,5.24773 1.450712,2.47546 6.279662,4.68219 11.493962,5.2525 1.87515,0.2051 5.69998,-0.27807 7.77096,-0.98165 2.50147,-0.84984 7.01366,-3.05645 11.718,-5.73048 2.35148,-1.33663 5.15847,-2.84959 6.23776,-3.36214 5.61814,-2.66805 8.98481,-1.39734 9.70125,3.66162 0.43938,3.10258 -0.34695,7.46092 -1.98734,11.01515 -4.57341,9.90919 -14.35249,16.95761 -28.50433,20.54492 -2.92715,0.74199 -9.88142,1.9587 -11.20454,1.96033 -0.46436,5.3e-4 -0.91063,0.10839 -0.99173,0.2396 -0.0811,0.13122 0.0595,1.02749 0.31237,1.99172 0.41537,1.5837 0.42085,1.82256 0.0566,2.47142 -0.51359,0.91502 -2.84282,2.04125 -5.646202,2.73004 -2.43513,0.59831 -10.32253,0.92677 -12.26233,0.51064 z m 12.27041,-4.33507 c 1.46261,-0.46888 1.76856,-0.86458 1.5268,-1.97469 -0.40376,-1.85399 -2.32787,-6.26981 -3.45684,-7.93344 -0.83528,-1.23085 -0.83059,-2.67154 0.0113,-3.46241 0.5223,-0.49068 0.71954,-0.54065 1.12448,-0.28491 0.61462,0.38817 2.941542,3.41439 3.916292,5.09324 0.68387,1.17786 1.73416,2.11807 1.73416,1.55241 0,-0.13536 0.44649,-0.30418 0.99219,-0.37516 6.72388,-0.87457 16.40694,-3.50081 20.21512,-5.48275 0.85077,-0.44278 1.54868,-0.71322 1.55091,-0.60098 0.002,0.11225 0.0915,0.078 0.19843,-0.0762 0.10692,-0.15415 1.14689,-0.85353 2.31106,-1.55416 3.45791,-2.08109 5.87125,-4.26982 9.08253,-8.23721 0.24336,-0.30066 0.64781,-0.89597 0.89878,-1.32292 0.25098,-0.42694 0.58725,-0.74355 0.74727,-0.70356 0.16003,0.04 0.2204,-0.0415 0.13416,-0.181 -0.0862,-0.13954 0.0717,-0.70804 0.35109,-1.26333 1.48907,-2.96008 2.11547,-4.89176 2.3633,-7.28793 0.53115,-5.13541 -0.68692,-5.14479 -9.10754,-0.0701 -11.66817,7.03178 -18.73495,8.76377 -27.11629,6.6459 -3.45382,-0.87274 -6.006062,-2.27601 -8.636322,-4.7484 -0.47076,-0.44251 -0.9041,-0.75316 -0.96297,-0.69035 -0.0589,0.0628 -0.46894,1.15705 -0.91124,2.43164 -1.79222,5.16463 -5.64757,9.11998 -10.72619,11.00439 -1.6392,0.60822 -2.29255,0.70109 -4.9322,0.70109 -2.85163,0 -3.14241,-0.0498 -4.63021,-0.79375 -2.2478,-1.12389 -3.30729,-2.72853 -3.30729,-5.00896 0,-0.90303 0.18954,-2.28856 0.42119,-3.07895 0.50796,-1.73311 2.93749,-6.33188 3.34513,-6.33188 0.15984,0 0.21842,-0.0722 0.13019,-0.16043 -0.0882,-0.0882 0.42769,-0.91827 1.14652,-1.8445 1.55627,-2.0053 1.62926,-2.34397 0.44707,-2.0743 -1.37837,0.31443 -14.83749,0.21578 -18.44141,-0.13516 -1.81171,-0.17642 -5.26453,-0.62249 -7.67292,-0.99126 -2.40839,-0.36877 -4.61,-0.68782 -4.89245,-0.70898 -0.4453,-0.0334 -0.61122,0.38352 -1.24827,3.13651 -1.80027,7.77973 -2.19534,12.85439 -1.50029,19.2708 0.23261,2.1473 0.23469,2.91352 0.008,3.05342 -1.1738,0.72545 -6.13892,10.74875 -6.13892,12.39291 0,1.12867 1.78003,1.46718 7.80521,1.4843 4.31683,0.0123 5.06174,-0.15933 6.70459,-1.54452 0.93503,-0.78838 2.9527,-3.3777 2.9527,-3.78926 0,-0.13392 0.191,-0.402 0.42444,-0.59574 0.23344,-0.19374 0.53499,-0.64302 0.6701,-0.9984 l 0.24567,-0.64614 3.2325,0.17252 c 1.77787,0.0949 5.43516,0.23201 8.12729,0.30472 6.41275,0.17322 10.51863,0.37164 11.54506,0.55793 0.65075,0.11811 1.06794,-0.0223 1.93668,-0.65155 0.60899,-0.44115 1.26805,-0.7404 1.46458,-0.66498 0.20315,0.078 0.66477,1.41802 1.0699,3.10591 0.94749,3.94745 1.57537,5.2297 2.7692,5.65526 1.39719,0.49806 10.28047,0.28132 12.07718,-0.29466 z m -15.64906,-23.07636 c 1.96266,-0.56287 3.99393,-1.82862 5.73118,-3.57128 0.84968,-0.85232 1.54486,-1.65781 1.54486,-1.78998 0,-0.13218 0.1709,-0.38215 0.37976,-0.55549 0.57493,-0.47715 1.94472,-3.95587 2.64557,-6.71872 0.61915,-2.44076 0.93282,-4.61406 0.67884,-4.70349 -0.42079,-0.14816 -10.34304,1.43868 -10.81336,1.72936 -0.38029,0.23503 -3.61245,5.21444 -4.77043,7.34925 -2.14821,3.96037 -2.95141,7.10517 -2.01351,7.88356 1.30179,1.08039 3.68961,1.21636 6.61709,0.37679 z m -46.69895,-5.54801 c 0.94588,-0.36783 2.25225,-0.93188 2.90303,-1.25346 1.18304,-0.5846 1.18333,-0.58509 1.74274,-2.96594 0.30772,-1.30969 0.95852,-3.54353 1.44621,-4.96409 0.95466,-2.78078 0.92593,-2.98535 -0.45807,-3.26215 -0.72915,-0.14583 -0.99279,-0.0158 -2.13583,1.05337 -0.7172,0.67086 -1.44048,1.21974 -1.60729,1.21974 -0.16681,0 -0.307,0.14883 -0.31153,0.33073 -0.005,0.1819 -0.95703,1.32444 -2.11667,2.53898 -1.15963,1.21453 -2.10843,2.29273 -2.10843,2.39599 0,0.10326 -0.30719,0.59783 -0.68265,1.09904 -0.85198,1.13733 -2.22776,3.80877 -2.22776,4.32577 0,0.84372 2.70236,0.5918 5.55625,-0.51798 z m 43.12708,-13.11589 c 9.40957,-0.82721 22.031472,-3.73388 28.310412,-6.51955 3.33251,-1.47847 9.71958,-4.72411 10.05417,-5.1091 0.0728,-0.0837 0.5426,-0.38137 1.04409,-0.66146 1.03499,-0.57803 0.98743,-0.54304 3.86383,-2.84286 3.756,-3.00308 6.99833,-7.11815 6.99833,-8.88206 0,-1.22721 1.46993,-0.11016 1.96871,1.49609 0.10233,0.32953 0.29131,0.5341 0.41996,0.45459 0.12865,-0.0795 0.44596,0.18665 0.70513,0.59147 0.25917,0.40482 0.62339,0.89517 0.80938,1.08967 0.18599,0.19449 0.66223,0.78981 1.05832,1.32291 1.40043,1.88488 3.46411,3.74741 4.15213,3.74741 0.80198,0 2.38377,-1.50583 2.63555,-2.509 0.29456,-1.17362 1.4336,-2.78386 1.85488,-2.6222 0.20789,0.0798 0.58442,0.58232 0.83673,1.11677 0.25231,0.53445 0.67822,1.1273 0.94648,1.31746 0.26825,0.19015 0.48773,0.49613 0.48773,0.67995 0,0.60528 1.48288,2.00933 2.29333,2.17142 1.0857,0.21714 1.57126,-0.3374 1.93082,-2.2051 0.56088,-2.91348 1.45786,-3.96776 2.40491,-2.82664 0.18912,0.22787 0.67995,0.58812 1.09073,0.80054 0.41078,0.21243 0.74687,0.56176 0.74687,0.77631 0,0.21454 0.12823,0.39008 0.28494,0.39008 0.15671,0 0.61293,0.32742 1.0138,0.7276 0.50911,0.50823 1.04668,0.74839 1.78297,0.79655 1.3472,0.0881 1.9914,-0.5715 2.58324,-2.64514 0.538,-1.88496 0.99115,-2.15035 4.38922,-2.57058 1.38245,-0.17096 2.9164,-0.43681 3.40878,-0.59077 2.38154,-0.74472 4.26414,-2.68804 4.26414,-4.40171 0,-1.29316 -1.72835,-3.3532 -3.47267,-4.13913 -1.33049,-0.59947 -1.82978,-0.67057 -4.70899,-0.67057 -3.571,0 -3.69109,-0.0542 -5.0732,-2.29052 -0.6259,-1.01273 -1.49088,-1.1054 -2.68629,-0.28777 -0.40018,0.27371 -0.7276,0.42727 -0.7276,0.34125 0,-0.086 -0.26789,0.0154 -0.59531,0.2254 -0.63412,0.40671 -2.23713,0.34337 -2.68665,-0.10615 -0.1449,-0.14491 -0.42587,-0.26346 -0.62437,-0.26346 -0.1985,0 -0.97836,-0.28126 -1.73302,-0.62501 -0.75466,-0.34376 -1.66977,-0.71419 -2.03357,-0.82318 -0.3638,-0.109 -1.01864,-0.34522 -1.45521,-0.52494 -0.43656,-0.17973 -1.27,-0.47989 -1.85208,-0.66702 -2.96653,-0.95373 -5.40999,-1.9309 -5.29471,-2.11743 0.0712,-0.11523 0.53941,-0.28642 1.04042,-0.38041 0.86933,-0.16309 0.90414,-0.2128 0.76206,-1.08833 -0.17993,-1.10878 1.8e-4,-1.13909 2.19439,-0.36926 2.53583,0.88968 4.37961,1.29537 5.90721,1.29978 1.80604,0.005 2.42116,-0.46706 2.22033,-1.70465 -0.2555,-1.57448 0.3787,-1.38343 2.52405,0.76033 2.24268,2.24104 3.86133,3.23333 4.83927,2.96663 0.78491,-0.21406 1.99195,-1.94733 2.2264,-3.19707 0.0981,-0.52274 0.43719,-1.33454 0.7536,-1.804 0.49504,-0.73447 0.72149,-0.84922 1.62302,-0.82243 1.00927,0.03 3.55351,0.80325 3.82583,1.16275 0.25116,0.33155 1.93396,0.79047 2.88376,0.78644 1.17014,-0.005 1.42987,-0.17515 1.81108,-1.18658 0.28857,-0.76566 0.41506,-1.33071 0.73888,-3.30096 0.0831,-0.50584 0.3809,-1.13375 0.66171,-1.39536 0.28081,-0.26161 1.85194,-0.82457 3.49142,-1.25102 2.86819,-0.74607 5.46912,-1.90844 6.73693,-3.01079 0.33155,-0.28828 0.84545,-0.98965 1.14201,-1.55861 0.8538,-1.63805 0.21221,-3.21682 -1.72308,-4.24001 -1.05618,-0.5584 -2.44911,-0.98596 -3.21219,-0.98596 -0.34083,0 -1.16562,-0.41671 -1.83287,-0.92604 -1.83253,-1.3988 -3.3837,-1.26494 -7.39035,0.63779 -2.70415,1.28418 -2.56288,1.30983 -3.57804,-0.64967 -0.49459,-0.95469 -1.04696,-1.85837 -1.22749,-2.00819 -0.39725,-0.3297 -2.07902,0.19858 -2.85114,0.89559 -0.2821,0.25467 -0.66905,0.46302 -0.85989,0.46302 -0.19084,0 -0.34699,0.11885 -0.34699,0.2641 0,0.35604 -2.39477,1.84123 -2.97903,1.84754 -0.31148,0.003 -0.74476,-0.56131 -1.30959,-1.70673 -0.46426,-0.94146 -0.97479,-1.7619 -1.1345,-1.82318 -0.39785,-0.15267 -2.09214,0.45335 -2.95103,1.05554 -1.05697,0.74108 -2.73835,1.66145 -2.73835,1.49896 0,-0.0785 -0.16094,-0.009 -0.35764,0.15413 -0.38393,0.31863 -2.63924,0.19501 -4.00798,-0.21969 -0.43656,-0.13227 -1.53811,-0.31993 -2.44787,-0.41703 -1.93723,-0.20675 -2.34766,-0.5568 -0.93292,-0.79566 0.54975,-0.0928 1.1969,-0.22243 1.43812,-0.28803 0.50354,-0.13692 0.90746,-0.97335 0.53069,-1.09894 -0.44894,-0.14965 -0.01,-1.06814 0.57708,-1.20666 0.31368,-0.0741 1.40375,-0.20896 2.4224,-0.29979 2.17494,-0.19392 5.06986,-0.59753 6.74687,-0.94064 0.65485,-0.13398 2.32172,-0.44486 3.70417,-0.69084 1.38245,-0.24599 2.88021,-0.59937 3.32836,-0.78529 1.44821,-0.60083 1.52999,-0.86278 1.35511,-4.34088 -0.18547,-3.68876 -0.1292,-3.8044 1.97975,-4.06869 2.73746,-0.34306 6.619,-1.31443 6.76418,-1.69276 0.2673,-0.69657 -1.14423,-5.18361 -1.55148,-4.93192 -0.12884,0.0796 -0.23425,-0.0408 -0.23425,-0.26771 0,-0.22687 -0.12661,-0.41249 -0.28135,-0.41249 -0.15804,0 -0.24501,-0.37688 -0.19844,-0.8599 l 0.0829,-0.85989 2.11667,-0.21895 c 2.91616,-0.30164 4.36562,-0.83888 4.36562,-1.6181 0,-0.59466 -1.16842,-2.57778 -1.61971,-2.74906 -0.1278,-0.0485 -0.23237,-0.22823 -0.23237,-0.39938 0,-0.17115 -0.24274,-0.46278 -0.53943,-0.64806 -0.29669,-0.18529 -0.46826,-0.45205 -0.38126,-0.59282 0.087,-0.14076 0.0279,-0.25592 -0.13134,-0.25592 -0.54283,0 0.24302,-1.04443 0.91223,-1.21239 0.38299,-0.0961 0.67374,-0.38866 0.72625,-0.73072 0.0482,-0.31374 0.22568,-0.5433 0.39447,-0.51014 0.4434,0.0871 0.95406,-2.686275 0.74784,-4.061465 -0.25208,-1.68102 -1.56247,-3.27803 -3.19394,-3.89255 -1.69079,-0.63688 -4.47782,-0.47455 -6.50166,0.37867 -1.50655,0.63514 -3.82832,2.01861 -4.71508,2.80957 -0.29113,0.25968 -0.80294,0.71652 -1.13737,1.01521 -1.10828,0.98985 -1.45877,0.9734 -3.54815,-0.16651 -1.89138,-1.03189 -2.00577,-1.06046 -2.62383,-0.6555 -0.78318,0.51316 -0.79526,0.79419 -0.11706,2.723785 0.29104,0.82806 0.52916,1.89665 0.52916,2.37464 0,0.81586 -0.0564,0.86906 -0.92068,0.86906 -0.87813,0 -3.033,-0.69331 -3.31265,-1.06582 -0.28328,-0.37735 -2.8498,-0.49204 -3.31983,-0.14835 -0.63919,0.46739 -0.55802,1.48637 0.51154,6.42151 0.15618,0.72068 -0.23048,0.97767 -3.674,2.4419 -1.45521,0.61877 -4.29238,1.91247 -6.30482,2.87488 -2.90793,1.39068 -3.74972,1.69102 -4.10104,1.46323 -0.24313,-0.15764 -0.42147,-0.50279 -0.39632,-0.76699 0.1138,-1.19505 -3.57796,-5.39617 -8.01575,-9.1217 -10.93694,-9.181555 -29.469752,-15.884145 -46.401862,-16.781725 -1.67349,-0.0887 -3.75708,-0.21013 -4.63021,-0.26982 -2.27424,-0.15545 -10.62488,0.33306 -13.89062,0.8126 -8.42961,1.23781 -16.12299,3.59676 -23.79627,7.29641 -14.0739,6.785705 -23.60886,16.078715 -29.6602101,28.907565 -4.99345001,10.5861 -6.999318,21.47279 -5.51403001,29.92694 0.40018,2.27785 1.74140001,6.33278 2.75669001,8.33437 1.36867,2.69827 3.56089,5.69051 6.52273,8.90311 1.5001501,1.62717 2.8221201,2.96853 2.9377101,2.98081 0.11559,0.0123 1.1598,0.7953 2.32048,1.74004 2.15953,1.75776 5.09979,3.78256 6.99127,4.8145 0.58378,0.3185 1.03166,0.70545 0.99528,0.8599 -0.0364,0.15444 0.0827,0.29894 0.26458,0.3211 0.1819,0.0222 0.44979,0.0586 0.59531,0.0809 0.44627,0.0685 2.61745,1.23836 3.12155,1.68188 0.26164,0.2302 0.67327,0.44754 0.91473,0.48298 0.24146,0.0354 0.68223,0.17839 0.97949,0.31767 0.29727,0.13929 0.9572,0.40733 1.46652,0.59566 0.50933,0.18832 1.00582,0.45985 1.10333,0.6034 0.0975,0.14354 0.39516,0.28389 0.66145,0.31188 0.2663,0.028 1.79387,0.5314 3.3946,1.1187 3.96013,1.45294 8.03525,2.75329 8.99583,2.87051 0.43656,0.0533 1.68672,0.26918 2.77813,0.4798 10.14069,1.9569 21.96503,2.58556 32.01458,1.70209 z M 101.6593,156.58747 c -3.277552,-0.73604 -5.904022,-2.75888 -7.316152,-5.63469 -0.68345,-1.39186 -0.75364,-1.79402 -0.75364,-4.31848 0,-2.60855 0.0544,-2.8941 0.86393,-4.53857 3.21423,-6.52903 11.892132,-8.22429 16.942442,-3.30977 6.19841,6.03175 2.963,16.33361 -5.61798,17.88823 -1.88707,0.34188 -2.24349,0.33437 -4.1186,-0.0867 z m -1.63564,-11.80774 c 1.13059,-0.6893 2.01605,-2.59887 1.78246,-3.84403 -0.63302,-3.3743 -5.703072,-1.82773 -5.703072,1.73967 0,2.28911 1.92387,3.32174 3.920612,2.10436 z m -37.919562,9.36943 c -2.75203,-0.66589 -6.65486,-1.15968 -10.40196,-1.31606 -1.99153,-0.0831 -3.9584,-0.27903 -4.37082,-0.43537 -1.52046,-0.57637 -1.40249,-2.47039 0.20606,-3.30816 1.10268,-0.5743 5.44929,-0.74451 8.86668,-0.34722 5.44428,0.63294 9.23068,2.00075 9.99909,3.61213 0.4125,0.86502 0.40574,0.91877 -0.1961,1.55939 -0.72659,0.77343 -1.65814,0.82684 -4.10295,0.23529 z m -42.46563,-8.59458 c -2.8332,-0.34067 -5.02139,-1.86257 -6.354,-4.41925 -1.1732,-2.25082 -1.15902,-6.09768 0.0321,-8.71236 0.82963,-1.82114 2.8868,-3.84675 4.80786,-4.73411 1.42936,-0.66023 1.96016,-0.76013 4.02759,-0.75802 2.07252,0.002 2.55749,0.0951 3.74064,0.71703 3.27838,1.72334 5.11151,5.61933 4.35911,9.26452 -0.49304,2.38867 -1.46887,4.25994 -3.08432,5.91458 -2.1377,2.18957 -4.59623,3.08025 -7.52898,2.72761 z m -0.5435,-10.9818 c 1.00056,-0.84191 1.22442,-1.24853 1.45533,-2.64351 0.1545,-0.93336 0.0817,-1.20078 -0.52196,-1.91823 -1.63428,-1.94223 -4.63059,-0.0552 -4.67196,2.9423 -0.0287,2.07993 2.09702,3.00073 3.73859,1.61944 z m -26.3117031,30.04783 c 0.145521,-0.11357 0.800365,-0.42008 1.455208,-0.68112 0.654844,-0.26104 1.594194,-0.7479 2.087444,-1.08191 0.493249,-0.33402 1.070181,-0.6073 1.282073,-0.6073 0.211889,0 0.744373,-0.25571 1.183296,-0.56826 0.86350199,-0.61486 0.87267199,-0.77157 0.21448899,-3.66507 -0.77945899,-3.42665 -1.12191499,-5.9764 -1.15491899,-8.59896 -0.02013,-1.60073 -0.156565,-3.02948 -0.303152,-3.175 -0.146666,-0.1456 -1.634828,-0.26458 -3.309231,-0.26458 -1.673489,0 -3.547591,-0.0996 -4.164673,-0.22127 -1.0721129,-0.21144 -1.1690989,-0.17507 -2.1828129,0.81862 -0.583464,0.57194 -1.060847,1.17584 -1.060847,1.34199 0,0.16616 -0.483317,0.62195 -1.074038,1.01287 -1.069676,0.70788 -1.083501,0.70951 -3.403426,0.40063 -2.965595,-0.39484 -5.598779,-0.39598 -6.551665,-0.003 -0.409657,0.16902 -0.809344,0.29634 -0.888198,0.28294 -0.07885,-0.0134 -0.547926,0.56848 -1.042382,1.29306 -1.045911,1.53271 -1.387681,3.83541 -0.741494,4.99586 1.188579,2.1345 1.615014,2.63273 2.504649,2.92633 1.025853,0.33856 3.954237,0.13068 4.496294,-0.31918 0.524322,-0.43515 1.40122,0.19522 1.25149,0.89965 -0.06947,0.32683 -0.200438,1.41658 -0.291039,2.42166 -0.121844,1.35167 -0.08495,1.77811 0.141708,1.63803 0.16854,-0.10417 0.306435,-0.0886 0.306435,0.0345 0,0.83666 2.313948,-0.24472 4.09226,-1.91245 1.71014,-1.60379 2.786906,-2.11492 2.786906,-1.32292 0,0.97061 1.237274,4.17781 1.7588439,4.55919 0.46839,0.3425 2.066592,0.21713 2.606781,-0.20448 z m 2.645833,-21.28017 c 0.727604,-0.11533 1.782466,-0.44126 2.34414,-0.72429 0.91368,-0.46039 1.005012,-0.59563 0.867293,-1.28422 -0.08713,-0.43565 0.06109,-1.48897 0.341562,-2.42721 0.27251799,-0.91166 0.57129499,-2.09902 0.66395499,-2.63858 0.0926,-0.53955 0.34187,-1.31346 0.55381,-1.71979 0.21195,-0.40633 0.38609,-1.00327 0.38699,-1.32655 7.9e-4,-0.32327 0.31909,-1.27577 0.70711001,-2.11666 0.38802,-0.8409 0.75255,-1.95793 0.81008,-2.4823 l 0.10458,-0.9534 -1.27309001,-0.15158 c -0.7002,-0.0834 -1.63028,-0.29803 -2.06684599,-0.47702 -0.436563,-0.17899 -0.977665,-0.30348 -1.20245,-0.27665 -0.760489,0.0908 -2.547048,-0.70291 -4.630909,-2.0573 -2.582328,-1.67837 -3.3948129,-1.74384 -3.5988199,-0.29002 -0.05105,0.3638 -0.211883,0.66328 -0.357404,0.6655 -0.145521,0.002 -0.428313,0.10777 -0.628425,0.23452 -0.608865,0.38567 -2.391397,0.26103 -2.90422,-0.20306 -0.263478,-0.23845 -0.531585,-0.381 -0.595797,-0.31679 -0.06421,0.0642 -0.405207,-0.32248 -0.757764,-0.85931 -1.002742,-1.52687 -1.646698,-2.1667 -2.180683,-2.1667 -0.656084,0 -1.796653,0.76564 -1.796653,1.20605 0,0.47631 -1.043109,1.1752 -1.753999,1.1752 -0.317857,0 -1.392693,-0.37161 -2.388523,-0.82581 -4.983896,-2.27314 -9.147244,-2.45612 -10.455467,-0.45952 -0.385155,0.58782 -0.379205,0.7442 0.07435,1.95433 0.271154,0.72346 0.954331,1.81821 1.51817,2.43279 0.56384,0.61457 0.981942,1.16063 0.929117,1.21345 -0.05283,0.0528 0.588915,0.41799 1.426089,0.81147 0.837176,0.39348 1.700731,0.8264 1.919012,0.96204 0.218281,0.13564 0.783828,0.44207 1.256771,0.68096 0.96706,0.48847 1.044075,0.83791 0.441489,2.00318 -0.485643,0.93913 -0.332717,1.85307 0.439234,2.62502 0.538062,0.53806 1.240362,0.55055 3.683339,0.0655 0.363802,-0.0722 1.271185,-0.19421 2.016405,-0.27104 1.556965,-0.16054 1.704012,-0.0294 1.985878,1.77107 0.541173,3.45686 1.652669,4.78263 3.235306,3.85901 0.457711,-0.26711 1.233916,-0.71488 1.724901,-0.99503 0.490985,-0.28015 1.065035,-0.6817 1.27567,-0.89233 0.751933,-0.75194 1.173895,-0.5074 2.150983,1.24653 0.6027259,1.08193 1.2171569,1.88752 2.0872479,2.73663 0.621466,0.60648 1.244136,0.6529 3.647566,0.27194 z m 9.80294,-21.10839 c 1.28937,-2.59442 1.74956,-3.37343 1.99281,-3.37343 0.13353,0 0.24279,-0.12738 0.24279,-0.28306 0,-0.15568 0.38695,-0.82552 0.8599,-1.48853 0.47294,-0.66301 1.03849,-1.47314 1.25677,-1.80029 1.4840101,-2.22416 2.2851501,-3.27494 3.0258301,-3.96875 0.46606,-0.43656 1.0703,-1.13511 1.34275,-1.55233 l 0.49537,-0.75859 -1.43979,-1.22193 c -3.0754901,-2.61012 -3.9012301,-3.93114 -2.73663,-4.37804 0.20394,-0.0783 0.37159,-0.41392 0.37254,-0.74591 10e-4,-0.33199 0.2383,-0.9608 0.52743,-1.39737 0.67189,-1.01452 0.66258,-1.357235 -0.0661,-2.436065 -0.76451,-1.1318 -2.6152001,-1.75863 -4.0349001,-1.36663 -0.52289,0.14438 -1.32239,0.22561 -1.77667,0.18052 -0.71325,-0.0708 -0.83093,-0.1903 -0.8624,-0.87574 -0.021,-0.45719 0.39054,-1.63205 0.97058,-2.77081 1.15925,-2.2759 1.22354,-2.83571 0.44008,-3.83173 -0.49054,-0.62361 -0.71345,-0.70486 -1.65365,-0.60273 -1.03264,0.11218 -2.39289,0.52168 -3.39820001,1.02302 -1.2497,0.62323 -1.93602999,-0.016 -1.45846,-1.35838 0.46813,-1.31588 0.32725,-4.28635 -0.263781,-5.56161 -0.78236499,-1.68809 -2.77502699,-3.57329 -4.19813599,-3.97173 -3.676737,-1.02943 -6.2556469,0.9401 -7.9792139,6.09376 -0.954873,2.85518 -1.281504,4.48855 -1.705194,8.52711 -0.370512,3.53169 -0.217739,3.95529 1.751692,4.85692 1.859222,0.851185 2.262807,1.316805 1.58564,1.829375 -0.276254,0.2091 -0.658135,0.38397 -0.848624,0.3886 -0.19049,0.005 -0.271389,0.1297 -0.179777,0.27793 0.09161,0.14823 -0.201001,0.42406 -0.65025,0.61295 -0.449247,0.18889 -0.735457,0.42481 -0.636022,0.52424 0.09944,0.0994 0.03619,0.1808 -0.140536,0.1808 -0.46745,0 -2.677279,2.41692 -2.677279,2.92817 0,1.34928 2.186183,2.37053 6.217708,2.90455 1.3096879,0.17348 2.5300779,0.43495 2.7119789,0.58104 0.468464,0.37623 0.410007,1.18849 -0.10633,1.47745 -0.240385,0.13452 -0.468601,0.54041 -0.507151,0.90197 -0.07162,0.67175 0.336613,0.92952 3.233917,2.04204 0.651127,0.25002 0.872879,0.52502 1.009158,1.25146 0.122171,0.65122 0.05694,1.06219 -0.217069,1.36748 -0.232614,0.25917 -0.435735,1.15401 -0.50006,2.20299 l -0.108326,1.76654 1.016751,0.45849 c 0.733661,0.33083 1.780268,0.46729 3.75897399,0.49011 2.95381001,0.0341 3.59878001,0.27592 3.59878001,1.34951 0,0.54104 0.27689,0.83179 0.85214,0.89481 0.10488,0.0115 0.50133,-0.60419 0.88101,-1.36818 z"
       id="path502" /></g></svg>
