<?xml version="1.0" encoding="UTF-8" standalone="no"?>
<!-- Created with Inkscape (http://www.inkscape.org/) -->

<svg
   width="195.79173mm"
   height="232.28751mm"
   viewBox="0 0 195.79173 232.28752"
   version="1.1"
   id="svg1"
   xml:space="preserve"
   xmlns="http://www.w3.org/2000/svg"
   xmlns:svg="http://www.w3.org/2000/svg"><defs
     id="defs1" /><g
     id="layer1"
     transform="translate(68.997842,76.176644)"><path
       style="fill:#000000"
       d="m 8.2604911,155.93697 c -7.12234,-0.19592 -11.7533,-1.55314 -13.44097,-3.93921 -2.53054,-3.57774 -1.89531,-7.40828 1.59951,-9.6453 l 0.59395,-0.38019 0.13926,-4.0658 c 0.0766,-2.23619 0.24839,-4.5515 0.38177,-5.14513 0.2934,-1.3058 0.23797,-1.41319 -0.85207,-1.65061 -4.97666,-1.08398 -8.0068301,-2.93775 -8.6692301,-5.30359 l -0.32869,-1.17398 0.30145,-1.50103 c 0.2844,-1.41611 3.7010501,-8.49689 7.9435501,-16.46245 1.79294,-3.36636 1.78922,-3.34008 0.41895,-2.96173 l -0.98194,0.27113 -1.35775,-0.25749 c -1.64333,-0.31165 -3.60794,-1.03018 -5.6887301,-2.08056 l -1.55095,-0.78291 -0.76343,0.80308 c -1.01474,1.06744 -2.61844,1.98996 -4.36381,2.51024 l -1.4267,0.4253 -4.10104,-0.13125 -4.10104,-0.13124 -2.14132,-0.69241 c -2.46608,-0.79743 -3.56354,-1.47375 -4.71329,-2.90463 l -0.81831,-1.018399 0.046,-1.56129 0.046,-1.56129 h -1.79054 c -4.34779,0 -8.41636,-2.57512 -12.331874,-7.8052 -2.370615,-3.16652 -2.753874,-4.596133 -1.779773,-6.638845 l 0.461728,-0.968252 -0.924748,-0.693569 c -5.957861,-4.468477 -12.004567,-17.434901 -9.967494,-21.374164 1.436102,-2.777116 3.173348,-2.960236 10.630285,-1.120521 5.444056,1.343114 8.884216,2.088429 12.038546,2.60817 l 3.0427,0.50135 0.45355,-0.312294 c 0.71092,-0.489507 7.88083,-11.012943 7.88083,-11.566868 0,-0.116812 -0.8632,-0.407594 -1.91823,-0.646182 -6.81446,-1.541052 -13.54594,-4.960888 -14.89326,-7.566321 l -0.43502,-0.841235 0.0904,-1.57888 0.0904,-1.578879 -2.381246,-0.608412 c -6.906483,-1.764633 -12.032536,-4.777473 -13.353751,-7.848721 l -0.593404,-1.379404 0.136772,-1.019713 c 0.169983,-1.267318 0.790937,-2.240794 1.792947,-2.810822 1.02356,-0.582288 1.004318,-0.647199 -0.701593,-2.366784 -4.212614,-4.246378 -6.839723,-10.209029 -8.475964,-19.2375704 l -0.479504,-2.64583301 -0.01063,-4.89479159 -0.01063,-4.894791 0.569564,-1.058334 c 1.129509,-2.098794 2.832493,-2.974119 5.180337,-2.662667 l 1.325631,0.175851 -0.144641,-0.608675 c -2.405863,-10.12433 1.013622,-27.381599 5.786798,-29.204492 l 1.193267,-0.455712 1.378896,0.311644 c 0.758394,0.171404 2.023529,0.665867 2.811411,1.098807 1.76739,0.971175 1.529186,1.368413 2.266203,-3.779194 1.328116,-9.276055 3.089772,-13.707143 5.924742,-14.90249 l 0.89221,-0.376194 4.39945,0.0022 c 13.07625,0.0065 14.1357,0.890674 13.0696,10.908 l -0.45799,4.30337 0.0135,12.038541 0.0135,12.038541 0.43729,3.419125 c 0.64938,5.077348 0.72011,5.053633 2.86684,-0.961198 4.55194,-12.753919 9.07498,-17.436388 22.05887006,-22.836404 l 2.64584004,-1.100405 0.1944,-2.8866 c 0.58721,-8.719555 0.75531,-10.430505 1.1627,-11.834413 l 0.44674,-1.539481 1.15444,-1.284014 c 1.1764,-1.308443 2.97589,-2.383899 3.9887999,-2.383899 0.72484,0 1.04941,-0.525715 0.55568,-0.900034 -5.4473299,-4.129853 5.85023,-11.004634 18.08629,-11.005854 l 3.62864,-3.62e-4 2.58907,0.506249 c 8.77908,1.716598 14.65544,6.300011 12.37865,9.655037 -0.7009,1.032833 -0.82388,1.48038 -0.4068,1.48038 0.90588,0 3.2466,1.220326 4.2947,2.239029 l 1.21688,1.182747 0.5681,1.66255 c 0.59211,1.732835 0.95477,4.901143 1.27963,11.179234 l 0.19124,3.695852 2.94167,1.22286 c 12.44183,5.172099 17.10229,9.750011 21.39777,21.018767 2.67108,7.007329 2.84685,7.315367 3.13267,5.490104 0.61581,-3.932603 0.81841,-8.053539 0.82273,-16.734894 0.005,-9.539351 -0.13668,-11.981963 -1.08013,-18.653124 -0.22638,-1.600729 -0.36538,-3.640265 -0.30889,-4.532301 l 0.10271,-1.621884 0.73077,-0.958081 c 1.45216,-1.903887 3.80573,-2.475512 11.20186,-2.720667 l 5.0745,-0.168201 1.18167,0.330845 c 3.135314,0.877835 7.019794,10.763954 7.061924,17.972788 0.002,0.381334 0.10066,0.845563 0.21873,1.031622 l 0.21468,0.338288 1.83179,-0.860601 1.8318,-0.8606 1.63334,-0.0069 1.63334,-0.0069 0.74791,0.54821 c 2.01184,1.474659 3.63104,5.54573 4.75832,11.963651 l 0.68367,3.892305 0.022,4.233333 c 0.0191,3.673302 -0.24609,6.629669 -0.7896,8.80325 l -0.15032,0.601168 1.41922,-0.166488 c 0.79915,-0.09375 1.90441,-0.03569 2.52974,0.132878 l 1.11052,0.299365 0.78119,0.94772 c 0.42966,0.521246 0.94195,1.500613 1.13844,2.176371 l 0.35724,1.2286519 -0.0389,4.2333327 -0.0389,4.233334 -0.56393,3.415932 c -1.43902,8.7166394 -4.5789,15.4915594 -8.97194,19.3587574 -0.88991,0.783393 -0.97666,1.434684 -0.19109,1.434684 0.19276,0 0.78105,0.476593 1.3073,1.059096 l 0.95683,1.059095 -9.9e-4,1.256009 c -0.003,3.80637 -6.88038,8.298063 -15.66538,10.231231 l -0.71742,0.15787 0.15555,1.665767 0.15556,1.665767 -0.42145,0.814995 c -1.36333,2.636373 -8.389884,6.178941 -14.858994,7.491435 -0.87312,0.177145 -1.67274,0.372914 -1.77693,0.435042 -0.30771,0.183487 2.81571,5.064352 6.53573,10.213171 l 1.29034,1.785937 h 0.56241 c 1.22946,0 6.667774,-1.144008 12.700014,-2.671584 l 6.35302,-1.608807 1.3911,0.111611 1.3911,0.111612 0.68456,0.639521 c 3.59123,3.354946 -0.37014,14.93901 -7.45866,21.810999 l -2.18832,2.121477 0.50467,0.656648 c 2.27804,2.964057 -3.22176,10.647587 -9.802574,13.694747 l -1.45521,0.67381 -1.97327,0.1555 -1.97328,0.15551 0.0735,1.36657 c 0.1495,2.780951 -1.6456,4.472101 -6.18109,5.823161 l -1.5875,0.47289 -4.36562,0.005 -4.36563,0.005 -1.52657,-0.74962 c -0.85249,-0.41861 -1.88455,-1.19507 -2.33726,-1.75839 l -0.81067,-1.00878 -2.16066,1.00162 c -2.86792,1.32948 -5.45106,1.95073 -7.38619,1.77638 l -1.52135,-0.13707 v 0.31887 c 0,0.17538 0.1073,0.43198 0.23844,0.57022 1.18482,1.24895 8.06638,16.10052 8.51362,18.37383 l 0.30223,1.53619 -0.33065,1.00187 c -0.18185,0.55103 -0.87962,1.54517 -1.55058,2.20921 l -1.21994,1.20734 -2.64583,0.96605 c -1.45521,0.53134 -3.1642,1.1048 -3.79776,1.27436 l -1.15193,0.30831 0.18453,0.8423 c 0.10149,0.46327 0.24274,2.89614 0.31389,5.40637 0.0711,2.51024 0.23444,4.56406 0.36288,4.56406 0.48314,0 2.15626,1.71064 2.69269,2.75308 l 0.5575,1.08338 0.012,1.5875 0.012,1.5875 -0.54687,1.20407 c -1.8954,4.17319 -7.69295,6.05407 -17.75951,5.76165 l -3.63353,-0.10555 -1.56901,-0.72529 c -4.53992,-2.0986 -5.6435,-4.44318 -6.62393,-14.07266 -0.23707,-2.32849 -0.51604,-4.8288 -0.61994,-5.55625 l -0.18889,-1.32263 -3.89283,-0.0732 -3.89283,-0.0732 -0.12087,0.60234 c -0.0665,0.33129 -0.37709,2.92407 -0.69025,5.76173 -1.44627,13.10539 -4.03251,15.72735 -15.2097799,15.4199 z M 50.764231,151.8915 c 3.60337,-0.35143 6.41267,-0.97038 7.16209,-1.57797 0.91019,-0.73793 0.40977,-0.92047 -1.57635,-0.57501 -2.88661,0.50208 -6.61256,0.82321 -9.60858,0.82813 l -2.79411,0.005 -1.57152,-0.63146 c -0.86434,-0.3473 -2.01418,-0.82355 -2.55521,-1.05833 -0.54103,-0.23478 -1.17413,-0.42688 -1.40689,-0.42688 h -0.4232 l 0.18053,0.59532 c 0.27578,0.90942 1.13206,1.71569 2.59782,2.44611 l 1.32995,0.66274 h 2.96273 c 1.6295,0 4.19573,-0.12025 5.70274,-0.26723 z m -35.49603,-0.63397 c 1.37405,-0.51202 2.64958,-1.63048 2.64958,-2.3233 0,-0.61576 -0.13745,-0.60663 -2.44182,0.16216 -3.74125,1.24816 -8.7548999,1.53511 -14.2223099,0.81399 -3.15024,-0.41549 -3.33902,-0.40075 -3.09255,0.24153 0.40123,1.04559 5.53979,1.74322 11.9514699,1.62258 l 3.96875,-0.0747 z m -5.3327799,-2.78285 c 0.6301699,-0.12179 1.2711799,-0.34685 1.4244699,-0.50013 l 0.2787,-0.27871 -0.69441,-1.18493 c -1.1347099,-1.93624 -1.9802899,-2.78991 -2.8980799,-2.92585 -0.46417,-0.0687 -2.06033,-0.25772 -3.54703,-0.41994 l -2.70309,-0.29494 -0.53493,0.28629 c -0.29421004,0.15746 -0.60536004,0.56688 -0.69143004,0.90982 l -0.1565,0.62354 -0.49316,-0.12896 c -0.72651,-0.18999 -1.84592996,1.0408 -1.84592996,2.02958 v 0.80578 h 0.7717 c 0.42443996,0 0.81882996,-0.14139 0.87643996,-0.31419 0.0674,-0.20222 0.311,-0.10792 0.6835,0.26458 0.31833,0.31833 0.86512004,0.57878 1.21510004,0.57878 h 0.63631 l 0.69776,-1.19063 c 0.38376,-0.65484 0.87489,-1.19062 1.09139,-1.19062 h 0.39364 l -0.56021,0.75772 c -0.31071,0.42026 -0.52045,1.0389 -0.47094,1.38907 l 0.0893,0.63133 1.10524,0.0804 1.10525,0.0804 0.68069,-1.00173 c 0.37438,-0.55096 0.6807,-1.1765 0.6807,-1.39011 v -0.38837 l 0.3241,0.3241 0.3241,0.32411 -0.3241,0.51897 c -1.00123,1.60323 -0.16932,2.12847 2.54145,1.6046 z m 39.3494199,-0.70036 c -0.0975,-0.51966 -0.24878,-1.13122 -0.33619,-1.35902 l -0.15894,-0.41419 0.37289,0.12417 c 0.20509,0.0683 0.41616,0.34747 0.46905,0.62039 0.0529,0.27292 0.27494,0.76907 0.49345,1.10255 l 0.39729,0.60634 h 0.99551 c 0.59147,0 1.13868,-0.17252 1.34829,-0.42507 l 0.35278,-0.42508 -0.58898,-1.02336 c -0.75284,-1.3081 -0.15566,-1.08627 0.80559,0.29923 l 0.72509,1.04512 h 0.6134 c 0.76738,0 1.42913,-0.49974 1.57662,-1.19063 l 0.11297,-0.52916 0.307,0.74685 c 0.33655,0.81876 0.98629,0.87538 1.45756,0.127 l 0.28278,-0.44906 -0.25791,-0.73338 c -0.14186,-0.40336 -0.61252,-0.91565 -1.04591,-1.13844 -0.4334,-0.22278 -0.94395,-0.61249 -1.13456,-0.86603 -0.19061,-0.25354 -0.57403,-0.58271 -0.85204,-0.7315 l -0.50549,-0.27053 -3.37908,0.39542 -3.37909,0.39541 -0.86925,0.99755 c -0.89502,1.02711 -2.03742,2.91267 -2.04552,3.37619 -0.006,0.33745 1.20702,0.59315 3.00143,0.63275 l 1.41851,0.0313 z m -33.37774,-5.96111 c 3.30353,-0.2509 3.86277,-0.45635 3.86277,-1.41908 v -0.58731 l -4.69636,-0.18032 c -4.13421,-0.15874 -7.8498199,-0.50272 -12.0385399,-1.11448 l -1.25677,-0.18355 v 1.23314 1.23314 l 0.60222,0.22896 c 0.66891,0.25432 5.53219,0.79448 7.9967399,0.8882 0.87312,0.0332 1.76609,0.0784 1.98437,0.1004 0.21828,0.022 1.81379,-0.0676 3.54557,-0.1991 z m 36.23993,-0.33274 c 2.83225,-0.40539 3.06661,-0.56126 3.07295,-2.04379 0.005,-1.27685 0.0144,-1.27352 -2.31611,-0.8587 -3.06044,0.54476 -9.1899,1.12972 -12.2252,1.16672 -1.47603,0.018 -3.00411,0.12153 -3.39573,0.2301 l -0.71203,0.1974 0.0719,0.61911 c 0.0901,0.77675 0.11344,0.79802 1.17149,1.06955 1.26293,0.32411 11.26551,0.0586 14.33278,-0.38039 z m -5.25737,-4.02019 c 2.03729,-0.2119 4.76175,-0.57859 6.05436,-0.81485 l 2.35019,-0.42957 -0.16094,-1.72351 c -0.20343,-2.1785 -0.0115,-2.0743 -2.88486,-1.56595 -2.61596,0.46282 -8.81942,1.10533 -13.52796,1.40114 l -2.87754,0.18078 0.14383,1.58627 c 0.20368,2.24619 1.21712,2.37314 10.90292,1.36569 z m -26.75739,-0.18436 c 0.0877,-0.32742 0.16116,-1.08575 0.16315,-1.68517 l 0.004,-1.08986 -0.99219,-0.164 c -0.5457,-0.0902 -1.79857,-0.16531 -2.78416,-0.16691 -1.93836,-0.003 -11.1723899,-0.90177 -13.2280499,-1.28731 -1.47027,-0.27574 -1.41055,-0.33245 -1.64624,1.56285 l -0.18268,1.46907 0.35468,0.28321 c 0.67753,0.541 10.4234599,1.54558 15.8680999,1.63565 l 2.28424,0.0378 z m 19.98002,-5.48426 c 1.36568,-0.12975 2.60752,-0.36038 2.75966,-0.51251 l 0.2766,-0.2766 -0.30836,-1.5266 c -0.1696,-0.83962 -0.78693,-3.31253 -1.37186,-5.49534 -0.58492,-2.18281 -1.49441,-5.66539 -2.02109,-7.73906 -1.0832,-4.26483 -1.02484,-4.19722 -2.20482,-2.55414 l -0.87339,1.21618 0.59483,2.55414 c 0.32716,1.40477 0.99766,4.24778 1.49,6.31781 0.49234,2.07003 0.89517,4.10556 0.89517,4.5234 v 0.75972 l -3.21654,0.17295 c -4.84042,0.26027 -17.0806,0.20664 -21.12512,-0.0926 -5.8160599,-0.43026 -13.8383299,-1.68855 -18.7371499,-2.93893 -4.09839,-1.04607 -4.2816,-1.01501 -4.2816,0.72604 v 0.65332 l 0.89212,0.37276 c 8.2527,3.44819 31.4777199,5.33614 47.2315499,3.83942 z m 9.87,-0.92614 c 9.1474,-1.58407 15.03132,-3.51229 15.03132,-4.92593 0,-0.78275 -0.37232,-0.79735 -2.9518,-0.1157 -3.28105,0.86704 -8.16253,1.89174 -13.18778,2.76833 l -4.10104,0.71537 0.0755,0.77609 c 0.1673,1.71898 -0.0696,1.6829 5.13377,0.78184 z m -15.8372,-3.22374 3.39502,-0.17315 -0.17037,-0.95026 c -0.20595,-1.14873 -2.51989,-10.43242 -2.62693,-10.53947 -0.0416,-0.0416 -0.77844,0.25034 -1.63734,0.64882 l -1.56165,0.72452 -2.00835,0.0991 c -4.85164,0.23949 -8.87143,-2.1515 -10.16505,-6.04623 -0.55728,-1.6778 -0.51852,-1.65612 -4.49535,-2.51467 -3.57192,-0.77113 -8.4510099,-2.19402 -11.6344199,-3.39295 l -1.84485,-0.69479 -0.33942,0.33942 c -0.91304004,0.91304 -8.43666,17.3715 -8.21046,17.96097 0.94518,2.4631 26.6360999,5.28645 41.2991699,4.53865 z m 15.78727,-1.05823 c 5.62024,-1.03647 11.505,-2.49676 14.0714,-3.49179 l 0.70994,-0.27525 -0.27435,-1.00545 c -0.2419,-0.88655 -2.81845,-6.60114 -6.32852,-14.03618 -1.31927,-2.79448 -1.07409,-2.70274 -4.44497,-1.66322 -3.43665,1.05979 -7.48661,1.99639 -11.07568,2.56136 l -2.97657,0.46855 0.006,0.54035 c 0.007,0.64058 -0.0375,0.4598 2.3738,9.53619 1.04383,3.92906 2.00133,7.40505 2.12779,7.72443 l 0.22992,0.58068 1.00452,-0.14048 c 0.55249,-0.0773 2.61187,-0.43689 4.5764,-0.79919 z m -17.98672,-11.60461 c 6.66132,-2.321 6.93895,-10.68283 0.46712,-14.06908 l -1.3981,-0.73152 -2.11667,-0.005 -2.11667,-0.005 -1.54038,0.7805 c -1.75783,0.89067 -2.79369,1.95999 -3.77544,3.89737 l -0.68462,1.35105 0.0171,1.82736 0.0171,1.82737 0.54864,1.24029 c 1.61472,3.65034 6.31051,5.37518 10.5819,3.88689 z m -5.11537,-1.96716 c -1.78599,-0.57406 -3.24415,-2.17257 -3.65668,-4.00862 l -0.2466,-1.09753 0.42796,-1.47211 0.42795,-1.47211 0.9516,-0.87163 c 0.52338,-0.4794 1.46668,-1.06834 2.09622,-1.30877 l 1.14462,-0.43713 1.62671,0.1475 1.6267,0.14751 1.05864,0.74898 c 3.38775,2.39681 3.38882,6.45761 0.002,8.88702 l -1.10616,0.79354 -1.80425,0.0914 c -0.99234,0.0503 -2.13942,-0.0164 -2.54906,-0.14803 z m 4.25295,-1.86203 c 2.45642,-1.4977 2.56062,-4.6981 0.21129,-6.49002 l -0.91133,-0.6951 -1.46665,-0.0343 -1.46666,-0.0343 -0.73115,0.54166 c -2.47237,1.8316 -2.51883,5.0212 -0.0967,6.63929 l 0.89903,0.60058 1.34993,-9.9e-4 1.34994,-9.8e-4 z m -12.28182,-4.16862 c 0.6162,-2.27286 0.75319,-2.16462 -3.92633,-3.10214 -3.35647,-0.67245 -7.7296599,-1.94845 -11.0381499,-3.22069 l -1.24858,-0.48013 -0.29366,0.29366 c -0.16151,0.16152 -0.35759,0.77035 -0.43574,1.35297 l -0.14208,1.05931 2.08119,0.79943 c 3.56997,1.3713 11.1285399,3.29376 14.6972199,3.73812 0.0993,0.0124 0.23709,-0.18587 0.30613,-0.44053 z m 23.65863,-0.33077 c 5.68027,-1.02282 13.8191,-3.43809 13.8193,-4.101 5e-5,-0.14552 -0.12391,-0.71107 -0.27546,-1.25677 l -0.27555,-0.99219 h -0.46381 c -0.2551,0 -0.57692,0.1085 -0.71517,0.2411 -0.51546,0.49444 -7.32027,2.46265 -11.46833,3.31707 -2.36175,0.48648 -4.36529,0.9557 -4.4523,1.04271 -0.20732,0.20732 0.41505,2.27829 0.68467,2.27829 0.11423,0 1.53022,-0.23815 3.14665,-0.52921 z m -21.41882,-4.73174 c 0.59928,-0.71071 1.62972,-1.63345 2.28987,-2.050519 1.53161,-0.96767 1.43676,-1.16891 -0.76013,-1.61292 -3.84865,-0.77783 -9.28547,-3.41875 -14.7176399,-7.14905 -2.07038,-1.42174 -1.95823,-1.44985 -2.63948,0.66146 -0.31695,0.98226 -0.93452,2.78116 -1.37239,3.99754 l -0.79613,2.21161 0.35863,0.33621 c 0.85732,0.80374 6.5024,2.678979 11.9790899,3.979339 4.71967,1.12062 4.37922,1.1431 5.65818,-0.37367 z m 21.66221,0.3474 c 4.25384,-1.02482 7.774,-2.09493 10.27165,-3.122529 l 1.5875,-0.65314 -0.038,-0.74862 c -0.0432,-0.84945 -2.24495,-6.84161 -2.67015,-7.26681 l -0.27826,-0.27826 -2.74846,1.84401 c -4.43667,2.97668 -10.54229,5.77184 -13.71196,6.27735 -0.65485,0.10443 -1.3503,0.27658 -1.54546,0.38254 l -0.35484,0.19265 1.31314,0.94339 c 0.72222,0.518869 1.77032,1.490329 2.32909,2.158809 1.21821,1.45736 0.96793,1.44577 5.84579,0.27061 z m -62.89515,-2.2471 c 4.36298,-0.707869 4.45729,-2.302089 0.26508,-4.481019 -1.84219,-0.95749 -3.05344,-2.17339 -3.96607,-3.9813 l -0.8022,-1.58914 -1.40909,1.52845 c -4.29121,4.65469 -4.64427,5.20914 -4.14812,6.51412 l 0.27819,0.73168 1.18267,0.52315 c 2.09616,0.927229 5.625,1.236659 8.59954,0.754059 z m 105.31368,-0.415359 c 0.80036,-0.22384 1.72309,-0.65563 2.05052,-0.95953 l 0.59531,-0.55254 v -0.96602 -0.96602 l -2.31511,-2.87556 c -2.73759,-3.40032 -2.70366,-3.38232 -3.45568,-1.83444 -0.86413,1.77865 -2.33851,3.23595 -4.28338,4.23377 -0.94588,0.48529 -2.1081,1.29026 -2.58271,1.78881 l -0.86292,0.90647 0.33375,0.26642 c 1.98687,1.586039 6.73113,2.018349 10.52022,0.95864 z m -88.8776699,-0.98832 c 2.10284,-0.75172 4.90244,-3.81471 6.63028,-7.25407 1.27977,-2.54746 1.2925,-2.41505 -0.38475,-4.00132 -0.77279,-0.73087 -1.86004004,-2.10683 -2.41613004,-3.057691 -1.19607996,-2.04521 -0.9046,-1.961761 -2.38297996,-0.682227 -0.6651,0.575637 -1.40599,1.156708 -1.64643,1.291268 l -0.43717,0.24465 0.33794,1.97563 0.33795,1.97563 -0.41916,1.44184 c -0.55588,1.91217 -2.13116,4.29942 -3.86432,5.85618 -1.5374,1.38091 -1.53525,1.43899 0.0772,2.09455 1.3181,0.53588 2.87127,0.57895 4.16756,0.11556 z m 70.3634699,-0.30265 c 1.0159,-0.52534 1.05503,-0.42471 -0.86653,-2.22794 -2.16763,-2.03414 -3.32591,-3.9778 -3.65683,-6.13636 l -0.25854,-1.68643 0.3641,-1.38753 0.3641,-1.38752 -0.95303,-0.70369 c -0.52417,-0.387022 -1.3382,-1.064184 -1.80896,-1.504802 -0.47077,-0.440617 -0.89983,-0.749729 -0.95347,-0.686915 -0.0537,0.06281 -0.43903,0.705524 -0.85642,1.428246 -0.41738,0.722721 -1.51251,2.112931 -2.43362,3.089351 l -1.67474,1.77532 0.77886,1.54085 c 1.68354,3.33064 4.70229,6.86045 6.76207,7.90687 l 1.34991,0.68579 1.52799,-0.1491 c 0.8404,-0.082 1.8822,-0.33227 2.31511,-0.55614 z m -33.5892,-1.61524 c 12.24321,-2.10133 27.98405,-14.567951 24.30294,-19.247725 -0.76826,-0.976687 -0.95518,-0.884088 -1.28087,0.634517 -1.35613,6.323425 -14.72856,15.013388 -24.87938,16.167648 l -2.70286,0.30735 -2.42603,-0.30164 c -6.84792,-0.85145 -14.35692,-4.7741 -20.9733399,-10.956339 l -1.62794,-1.521115 -0.57989,-1.347983 c -0.31893,-0.74139 -0.66276,-1.833469 -0.76406,-2.426843 -0.22192,-1.299977 -0.59844,-1.485 -1.36676004,-0.671625 l -0.57574,0.609515 0.1121,1.211113 c 0.26755,2.89037 2.69793004,6.066907 6.99376004,9.140927 10.4845499,7.50257 17.5626199,9.81052 25.7680699,8.4022 z m -43.91069,-0.66744 c 1.9121301,-1.01915 3.4942401,-2.69177 4.4258201,-4.679 l 0.7039,-1.50155 v -1.77649 -1.77649 l -0.45325,-0.45324 -0.45325,-0.45325 -0.63316,0.28849 -0.63316,0.28848 -0.135,1.68182 c -0.24759,3.08445 -2.1646901,5.76489 -5.2096001,7.28395 -0.81313,0.40566 -1.53617,0.77547 -1.60676,0.8218 -0.27795,0.18245 1.22379,1.09497 1.8111,1.1005 0.34343,0.003 1.32595,-0.36802 2.18336,-0.82502 z m 82.99063,0.41903 c 0.82146,-0.57538 0.74701,-0.76002 -0.53644,-1.33042 -1.51504,-0.67331 -3.47108,-2.53172 -4.43143,-4.21023 l -0.78783,-1.37698 -0.20157,-1.82535 -0.20157,-1.82535 -0.83447,-0.081 -0.83447,-0.081 -0.3202,0.97024 c -1.41621,4.29114 4.99379,11.9694 8.14798,9.76012 z m -86.25017,-3.06518 c 1.43036,-0.69242 2.78412,-2.00972 3.49267,-3.3986 l 0.53096,-1.04076 v -1.70121 c 0,-2.36339 -0.91861,-6.590494 -1.77357,-8.16134 -2.06114,-3.786999 -5.73667,-1.544775 -4.48227,2.734374 0.50868,1.735278 0.43771,1.808042 -0.87569,0.897852 l -1.0557,-0.731602 -0.93913,0.176181 c -2.14766,0.402903 -3.37568,2.343803 -3.35858,5.308265 l 0.01,1.66381 0.53648,1.05159 c 1.30097,2.5501 2.97841,3.73745 5.30689,3.75639 l 1.43782,0.0117 z m 91.91974,-0.37978 c 0.61801,-0.43435 1.47385,-1.35616 1.90186,-2.04845 l 0.77821,-1.25872 0.12115,-2.09279 0.12115,-2.09279 -0.71553,-1.220951 c -1.28844,-2.198557 -3.07988,-2.787691 -4.83997,-1.591677 -1.20107,0.816147 -1.24469,0.766968 -0.85685,-0.966089 l 0.31578,-1.411029 -0.2998,-1.113354 c -0.73459,-2.728064 -3.71791,-2.459451 -4.87771,0.439181 -3.09287,7.729849 -0.42667,14.528729 5.57984,14.228729 l 1.6482,-0.0823 z m -109.46153,-1.00306 c 1.38685,-0.63492 4.13817,-2.36631 5.64543,-3.55263 l 0.61647,-0.48521 0.13559,-1.3012 c 0.0746,-0.71566 0.35232,-1.87157 0.6172,-2.568691 l 0.48161,-1.267491 -0.89284,-0.373051 c -0.49106,-0.205178 -1.2248,-0.859239 -1.63054,-1.453469 l -0.73771,-1.080417 -0.79375,0.14481 c -0.43656,0.07965 -1.9263,0.315601 -3.31054,0.524344 -1.38423,0.208743 -3.88455,0.74524 -5.55625,1.192215 -1.6717,0.446975 -4.5575,1.12891 -6.41289,1.51541 l -3.373441,0.702728 v 0.382744 c 0,0.606988 2.779221,3.884658 4.527741,5.339798 3.79719,3.16005 7.18337,3.88271 10.68392,2.28011 z m 126.66122,0.36255 c 3.17197,-1.19851 9.115109,-6.93878 8.592909,-8.299593 l -0.14376,-0.374632 -1.93758,-0.193353 c -1.06567,-0.106345 -3.485399,-0.64924 -5.377169,-1.206435 -2.98092,-0.877989 -9.60782,-2.361972 -10.54765,-2.361972 -0.17516,0 -0.52849,0.355545 -0.78519,0.790099 -0.25669,0.434555 -0.97983,1.090805 -1.60697,1.458333 l -1.14026,0.668234 0.62389,1.232341 c 0.38775,0.765898 0.62389,1.695248 0.62389,2.455328 v 1.22299 l 1.12448,1.07995 c 3.57503,3.43346 7.42499,4.71832 10.57341,3.52871 z m -62.2333,-0.0186 c 8.73578,-1.41539 21.69583,-10.517919 21.69583,-15.23812 v -0.864783 l -0.54139,-0.289745 c -0.29777,-0.159359 -0.91578,-0.252845 -1.37335,-0.207746 l -0.83196,0.082 -0.9998,1.445088 c -3.35246,4.845564 -11.00136,10.380109 -16.891,12.221869 l -1.98437,0.62054 -3.30729,-0.0134 -3.3073,-0.0134 -2.11666,-0.73149 c -5.15809,-1.78257 -12.65543,-7.424647 -15.5199699,-11.679471 -0.62747,-0.93201 -1.39432,-1.830211 -1.7041,-1.996003 l -0.56325,-0.30144 -0.82978,0.429096 -0.82978,0.429096 v 0.781601 c 0,2.788417 2.65498,5.814006 8.4666699,9.648561 8.08706,5.33583 13.52098,6.83081 20.6375,5.67777 z m 0.79375,-4.54129 c 3.63731,-1.11669 7.83571,-3.660671 11.31094,-6.853772 1.27772,-1.173993 1.29026,-1.228505 0.67664,-2.940522 l -0.45045,-1.256771 h -0.57308 c -0.31519,0 -1.21441,0.122635 -1.99825,0.272523 -3.36609,0.643664 -8.90131,1.069047 -13.86059,1.065188 -4.93363,-0.0038 -7.13476,-0.186624 -13.15578,-1.092476 -2.55258,-0.384031 -2.67551,-0.332535 -3.22635,1.351577 l -0.45071,1.377947 0.61121,0.675105 c 5.82953,6.438941 14.43094,9.453691 21.11642,7.401201 z m 32.15585,-4.71559 c 0.0732,-0.118379 0.47006,-1.348871 0.88199,-2.734427 l 0.74896,-2.519192 0.89602,-1.167183 c 1.17691,-1.533078 2.09781,-2.031339 3.75437,-2.031339 h 1.35265 l 1.38786,1.432887 1.38786,1.432887 0.17926,0.955532 c 0.21668,1.154994 0.66878,1.425457 2.74565,1.642533 l 1.59403,0.166609 0.39705,-0.329523 c 1.6533,-1.372121 1.58573,-2.587791 -0.53448,-9.615497 -0.84454,-2.799346 -0.89807,-2.719139 1.21992,-1.827771 l 1.70696,0.718384 h 5.20348 c 5.97819,0 5.88042,0.03461 4.63972,-1.642394 -0.92802,-1.254382 -4.82911,-6.895742 -6.1828,-8.940938 -2.15062,-3.249233 -4.13626,-7.80292 -4.73025,-10.847916 l -0.36128,-1.852084 0.39869,-0.303882 c 0.21928,-0.167136 0.83005,-0.384805 1.35725,-0.483709 0.52721,-0.09891 2.5748,-0.694498 4.55021,-1.323541 11.04222,-3.516249 12.185549,-5.055079 8.20084,-11.037629 -0.0843,-0.126594 -0.79869,0.07025 -1.5875,0.43744 l -1.43419,0.667611 -1.78056,0.0026 -1.78056,0.0026 -0.50664,0.992188 c -1.18807,2.326647 -4.23263,4.566225 -8.03693,5.91195 -0.98226,0.347465 -1.78651,0.692351 -1.78721,0.766413 -7e-4,0.07406 -0.0305,2.873095 -0.0661,6.220074 l -0.0649,6.085416 -1.02074,2.513541 c -3.2065,7.895889 -8.89472,12.827115 -18.9204,16.402441 l -2.74322,0.97828 0.96612,0.597096 c 0.53137,0.328403 1.25981,1.029285 1.61875,1.557516 l 0.65262,0.960421 v 1.900907 c 0,1.045499 0.10992,1.940595 0.24428,1.989102 0.13435,0.04851 0.80077,0.611615 1.48093,1.251352 1.48654,1.398193 3.444,1.926092 3.97231,1.071276 z m -70.7409199,0.01584 c 0.0485,-0.144795 0.73427,-0.79314 1.52392,-1.440766 l 1.43573,-1.177502 -0.0645,-1.580575 -0.0645,-1.580576 0.44239,-0.855477 c 0.39009,-0.754354 1.20624996,-1.591794 2.45385996,-2.517827 L 1.0578511,73.663245 -1.6908189,72.65739 C -11.332009,69.129271 -17.993609,63.219357 -20.685739,55.805835 c -0.81055,-2.232062 -0.86933,-2.833614 -0.86345,-8.836223 l 0.006,-5.671264 h -0.31647 c -2.44039,0 -8.0937,-4.02923 -9.51741,-6.783243 l -0.42913,-0.830119 -1.67184,0.134199 -1.67184,0.134199 -1.42143,-0.611481 -1.42142,-0.61148 -0.77164,0.910525 c -1.12225,1.324258 -1.79029,2.742665 -1.79029,3.801195 v 0.927376 l 0.83697,0.953257 c 1.45798,1.660547 6.19206,3.71423 13.64897,5.921037 l 1.91822,0.567683 v 0.813253 c 0,3.773526 -6.15571,15.137067 -11.2496,20.76694 -0.64247,0.710068 -1.1721,1.424631 -1.17697,1.587918 l -0.009,0.296885 4.16719,0.180357 4.16718,0.180358 2.25692,-0.402305 c 1.24131,-0.221267 2.75935,-0.579573 3.37344,-0.796235 1.30988,-0.462151 1.33088,-0.383494 0.43398,1.625573 -1.36697,3.062072 -1.99541,5.001732 -2.1241,6.555981 l -0.13143,1.5875 0.34455,0.635953 c 0.18951,0.349774 0.64222,0.849405 1.00602,1.110292 l 0.66146,0.474339 1.70673,-0.316542 1.70673,-0.316542 0.40994,-1.321101 c 1.95413,-6.297636 8.36501,-4.510881 10.2131101,2.846467 l 0.44064,1.754172 0.43434,0.115476 c 0.85046,0.226109 2.37605,0.172586 2.46281,-0.0864 z M -34.866589,78.885127 c 7.47849,-0.910135 6.90265,-0.639185 7.09772,-3.339645 l 0.15409,-2.133072 -3.09674,0.0026 -3.09674,0.0026 -2.18155,-0.748404 c -1.19985,-0.411622 -2.48277,-1.027565 -2.85093,-1.368763 l -0.66938,-0.620361 0.1765,-0.734063 c 0.25462,-1.058993 1.02598,-2.518873 1.8455,-3.492823 0.94882,-1.12761 0.90711,-1.149129 -4.12534,-2.128024 -2.4011,-0.467052 -6.597921,-1.374296 -9.326277,-2.016097 -2.728356,-0.641801 -5.317965,-1.166911 -5.754687,-1.166911 h -0.79404 v 0.505307 c 0,0.873358 1.513538,5.181717 2.532355,7.20847 4.365885,8.685147 9.612349,11.304328 20.089519,10.029253 z m 134.937489,0.0042 c 4.71094,-0.693775 7.94877,-3.515919 11.00293,-9.590331 1.2363,-2.458878 2.69885,-6.823296 2.57619,-7.687647 l -0.0854,-0.601549 -0.79375,0.08339 c -0.43656,0.04587 -2.40109,0.496513 -4.36562,1.001437 -1.96453,0.504924 -5.71095,1.395997 -8.32536,1.980162 -5.456339,1.219164 -5.175479,1.090117 -4.423769,2.032566 1.02327,1.282927 1.90121,3.194947 1.90121,4.140546 v 0.921321 l -1.75956,0.839763 c -1.05966,0.505726 -2.71483,1.000833 -4.16108,1.244689 l -2.40151,0.404927 -1.85819,-0.26867 c -2.20082,-0.318208 -2.30253,-0.261102 -1.98381,1.113846 0.1349,0.581955 0.24812,1.59827 0.25159,2.258476 l 0.006,1.200374 3.24115,0.456512 c 1.78263,0.251081 3.59833,0.496745 4.03489,0.54592 1.68186,0.189445 5.62711,0.147619 7.143749,-0.07574 z M 42.035321,72.92954 c 18.0923,-1.948595 27.99621,-6.260992 32.59342,-14.191944 0.91495,-1.578439 0.89229,-1.734551 -0.28369,-1.955168 -1.38635,-0.26008 -1.84944,-0.55836 -2.38339,-1.535159 l -0.46576,-0.852052 -0.13229,-19.946459 -0.13229,-19.946459 -1.45521,-0.754038 C 55.354981,6.2757356 15.413691,4.6692036 -3.9103389,10.78442 c -3.3692,1.066204 -8.7073501,3.324226 -9.0077201,3.810238 -0.0737,0.119186 -0.12941,8.796578 -0.12388,19.283093 l 0.0101,19.066391 -0.30021,1.19225 c -0.36563,1.45204 -1.36955,2.367637 -2.85681,2.605459 -0.59559,0.09524 -1.08289,0.237197 -1.08289,0.315465 0,0.513291 1.89403,3.438725 3.30671,5.10739 5.2459101,6.196501 17.3059901,10.040152 35.32246,11.257568 3.13615,0.211918 17.26034,-0.124647 20.67795,-0.492734 z M 27.442781,42.585942 c -3.4409,-0.295304 -5.55625,-1.372508 -5.55625,-2.829419 0,-0.828279 0.66867,-0.866336 2.30753,-0.131332 l 1.52893,0.6857 2.5485,0.130712 c 2.66673,0.136777 4.50239,-0.154351 6.43832,-1.021095 l 1.05214,-0.471057 0.33833,0.280791 c 2.05135,1.702465 -3.38197,3.808455 -8.6575,3.3557 z M 4.1594511,41.195002 c -9.91873,-2.205352 -11.18448,-16.364899 -1.8397,-20.580197 5.78026,-2.607395 12.2033399,0.278033 14.2866299,6.417957 l 0.57608,1.697852 -0.12714,2.294956 -0.12714,2.294956 -0.8206,1.753596 C 13.874311,39.8465 9.0984011,42.29314 4.1594511,41.195002 Z m 4.77045,-12.662826 c 0.64812,-0.327422 1.4472499,-0.999873 1.7758499,-1.494336 l 0.59745,-0.899023 V 24.761864 23.38491 l -0.59531,-0.879316 C 9.1748911,20.241263 5.4857811,19.76065 3.0309811,21.505458 c -2.38319004,1.693907 -2.02505,5.330332 0.68495,6.954699 l 1.10498,0.662325 1.46529,0.0025 1.46529,0.0025 z M 48.874031,41.184293 c -4.30805,-1.198727 -7.32417,-4.652769 -7.99201,-9.152394 l -0.27611,-1.860333 0.32263,-1.646518 c 2.20652,-11.260683 17.33757,-11.935454 20.68269,-0.922347 l 0.56223,1.850999 -0.16394,1.763913 c -0.64849,6.977508 -6.88151,11.706869 -13.13549,9.96668 z m 4.3578,-12.660498 c 0.57778,-0.327244 1.32192,-0.997737 1.65365,-1.489984 l 0.60313,-0.894994 v -1.357209 c 0,-4.161138 -6.07327,-5.953766 -8.97483,-2.649072 -2.55456,2.909487 -0.16878,6.996257 4.08004,6.98897 l 1.5875,-0.0027 z M 0.54470106,16.971635 c -2.55662996,-1.096296 0.18076,-3.439374 5.73142004,-4.905829 3.8345599,-1.013072 4.9842999,-0.79154 5.4463399,1.049401 0.51451,2.04994 -0.61961,3.439208 -3.0020599,3.677459 -3.17028,0.317036 -7.62625,0.414579 -8.17570004,0.178969 z m 50.68232994,-0.02357 -3.07097,-0.19414 -0.69691,-0.456637 c -0.41511,-0.271991 -0.80796,-0.869013 -0.97153,-1.47646 l -0.27461,-1.019824 0.38207,-0.914419 c 0.73061,-1.74859 1.66322,-1.813849 6.43403,-0.450215 4.18707,1.196787 5.47984,2.016154 5.32289,3.373675 -0.16288,1.408819 -0.92241,1.530133 -7.12497,1.13802 z m -67.13908,37.073711 0.62463,-0.505711 0.0714,-18.604235 c 0.0393,-10.232329 0.009,-18.766877 -0.0673,-18.965661 l -0.13869,-0.361427 -1.25567,0.722678 c -0.69062,0.397472 -1.46404,0.9032 -1.7187,1.123838 l -0.46302,0.401161 v 17.434632 17.434631 l 0.39131,0.756707 c 0.60689,1.173594 1.54645,1.380695 2.55594,0.563388 z m 92.38152,-0.272689 0.65498,-0.778399 -0.11765,-17.543996 c -0.0647,-9.649197 -0.11074,-17.670772 -0.10229,-17.825721 0.008,-0.154948 -0.3716,-0.476027 -0.84454,-0.713507 -0.47295,-0.237481 -1.24685,-0.687944 -1.71979,-1.001029 l -0.8599,-0.569245 v 18.791098 18.791098 l 0.68498,0.81405 c 0.85793,1.0196 1.46832,1.029044 2.30421,0.03565 z m -97.24323,-22.989911 0.0699,-8.246271 -1.78971,0.0058 -1.78971,0.0058 -1.05833,0.491659 c -1.47659,0.685965 -3.26348,2.547359 -4.02608,4.193959 l -0.64373,1.389948 -0.01,1.657133 c -0.0203,3.527769 2.40957,6.346611 7.15124,8.295815 0.82328,0.338437 1.61594,0.578679 1.76146,0.533873 0.16701,-0.05142 0.29037,-3.122648 0.3345,-8.327737 z m 103.46776,6.98538 c 6.6414,-3.39526 7.19082,-11.589969 0.98978,-14.76291 l -1.07538,-0.550249 -1.52705,0.01309 c -0.83988,0.0072 -1.69531,0.152725 -1.90095,0.32339 l -0.37389,0.310302 0.13658,7.721008 c 0.0751,4.246555 0.17839,7.858674 0.22948,8.026931 l 0.0929,0.305922 1.0956,-0.377466 c 0.60258,-0.207607 1.6524,-0.662115 2.33293,-1.010018 z m -122.91914,-5.675893 0.33147,-0.34113 -0.611,-0.440127 c -6.544212,-4.714075 -6.952615,-6.14654 -3.23325,-11.340568 1.32304,-1.847606 1.32687,-1.785354 -0.20868,-3.387058 -4.099975,-4.276598 -10.478988,-14.7456604 -13.219714,-21.6958314 -1.00463,-2.5476279 -2.499998,-4.1479686 -4.33846,-4.6430151 -2.526458,-0.6803045 -2.736902,-0.2170174 -2.516881,5.5408251 0.441035,11.541637 3.627807,19.2157864 10.127159,24.3874774 l 1.72614,1.373531 -0.08037,0.825798 -0.08037,0.825799 -0.914871,0.295698 c -0.902192,0.291599 -1.982203,1.353841 -2.655389,2.611702 l -0.344643,0.643971 0.716503,0.939384 0.716503,0.939385 2.431574,1.161518 c 4.888726,2.335256 10.997972,3.49266 12.154272,2.302642 z m 146.316929,-0.67186 c 4.04288,-1.334796 8.14521,-3.796314 8.12696,-4.876412 -0.019,-1.123533 -2.17117,-3.185196 -3.34505,-3.204361 l -0.57429,-0.0094 -0.18805,-0.856153 -0.18804,-0.856153 1.02692,-0.790087 c 5.45024,-4.193299 8.35413,-9.180042 10.02641,-17.2179934 l 0.71375,-3.43065501 0.141,-3.99627799 c 0.0775,-2.1979533 0.0598,-4.4294156 -0.0396,-4.9588053 l -0.18053,-0.9625007 -0.63715,-0.1599135 c -2.06577,-0.5184751 -4.65184,1.4436029 -5.80044,4.4008528 -3.30303,8.5041517 -7.79108,16.0850651 -13.20646,22.3074501 l -1.27868,1.469234 1.20815,1.693066 c 1.58798,2.225362 2.26233,3.761348 2.26944,5.169201 l 0.006,1.149781 -0.54742,0.768781 c -0.55221,0.775513 -2.44457,2.370271 -4.490829,3.78458 l -1.11044,0.767508 0.62695,0.367198 0.62695,0.367198 2.381249,-0.124302 2.38125,-0.124303 z m -138.841709,-0.01489 c 0,-0.142513 -0.39497,-0.4997 -0.87771,-0.79375 -1.26068,-0.767922 -5.9113,-4.182493 -6.4966,-4.769934 l -0.49514,-0.496949 0.1389,-1.470334 c 0.0764,-0.808684 0.39751,-2.065647 0.71357,-2.793251 l 0.57466,-1.322916 0.3942,0.529166 c 0.38252,0.513493 0.37078,1.161022 -0.0519,2.857782 l -0.1846,0.741116 0.62874,0.680566 c 0.34581,0.374311 1.75692,1.438454 3.13581,2.364761 l 2.50707,1.684195 0.39894,-0.398937 0.39894,-0.398937 -0.0928,-1.648606 c -0.051,-0.906734 -0.10211,-2.839231 -0.11353,-4.29444 l -0.0208,-2.645833 0.72221,-1.397937 0.72221,-1.397936 -1.78449,-1.970292 C -42.789819,3.1137016 -49.463692,-17.714032 -48.037005,-33.947936 l 0.23009,-2.618136 -1.467336,-0.618079 c -0.807036,-0.339944 -2.143521,-0.977485 -2.969967,-1.41676 -2.599162,-1.38151 -2.819386,-1.231528 -3.947898,2.688705 -0.965848,3.355166 -1.479917,6.438112 -1.824114,10.939464 l -0.263549,3.446641 0.258911,2.506483 c 0.356228,3.448595 0.997873,7.425822 1.300758,8.062733 0.138407,0.291042 0.571928,1.5411981 0.963382,2.7781251 2.412399,7.62276549 8.066077,17.4840005 13.665339,23.8353019 1.89355,2.147871 1.9026,2.406812 0.18225,5.212128 -2.93259,4.782082 -2.08823,6.477922 4.92588,9.89328 l 2.11667,1.03066 1.05833,-0.07579 c 0.58209,-0.04168 1.05834,-0.192392 1.05834,-0.334905 z m 127.52752,-0.522684 c 1.9897,-0.87994 4.74958,-2.737896 6.177259,-4.158538 l 1.14854,-1.14288 -0.14423,-0.888784 c -0.0793,-0.48883 -0.79298,-2.037137 -1.58591,-3.440681 -0.792919,-1.403544 -1.517139,-2.808335 -1.609369,-3.121758 l -0.1677,-0.569859 1.39882,-1.653617 c 5.726109,-6.7691644 8.412999,-11.0402114 11.376109,-18.0833494 3.46032,-8.2249576 4.29486,-12.1967016 4.28608,-20.3983136 l -0.006,-5.291666 -0.47717,-2.645833 c -1.61288,-8.943129 -2.1881,-9.644152 -6.22632,-7.58804 l -2.95116,1.502624 -0.0722,7.672916 -0.0722,7.672916 -0.46514,2.910416 C 103.38886,-5.8608874 97.245351,7.6821966 90.355891,14.770749 l -1.60419,1.650551 0.66961,1.01186 c 1.24851,1.88662 1.62709,6.572054 0.69612,8.61532 l -0.30706,0.673915 0.33372,0.805672 c 0.51681,1.247678 1.53961,0.725196 6.56843,-3.355377 l 0.40002,-0.324591 -0.43799,-1.356166 -0.43799,-1.356167 0.45286,-0.766638 c 0.63194,-1.069779 0.72862,-1.002568 1.54274,1.072495 l 0.72156,1.839134 -0.15695,1.005137 -0.15695,1.005136 -1.07469,0.965806 c -0.59109,0.531193 -2.29316,1.773311 -3.78238,2.760263 -3.30477,2.190165 -3.20864,2.109179 -2.96724,2.499767 l 0.19704,0.318819 1.12822,-0.15464 c 0.62052,-0.08505 1.80709,-0.454869 2.63683,-0.821816 z M -25.633959,20.446046 C -17.424189,12.474549 -6.6177289,7.6004606 7.0698711,5.6954866 l 3.0426999,-0.42347 10.5534,-0.194651 c 36.2478,-0.668571 50.37468,2.60002 62.68079,14.5026964 4.23237,4.093621 4.42102,4.167719 4.42102,1.736515 v -1.429682 l -1.13264,-1.398974 C 81.852961,12.581227 67.959201,5.8655876 55.753201,3.5609316 l -3.83646,-0.724374 -20.76979,-0.100551 -20.76979,-0.10055 -2.6458399,0.292404 C -8.1556089,4.6836046 -27.510739,13.608561 -29.678959,20.178331 l -0.3189,0.96628 0.3964,0.94873 c 0.58495,1.399963 1.01159,1.222819 3.9675,-1.647295 z m -4.24745,-10.037827 c 0.0946,-1.8553914 0.17253,-4.2404654 0.17312,-5.3001654 0.001,-2.47886 0.46738,-3.564496 2.23935,-5.21702201 l 1.41853,-1.32291699 0.0715,-2.38125 0.0715,-2.3812496 -0.59295,-1.574037 c -3.57283,-9.484529 -4.64871,-28.679136 -2.50469,-44.685585 l 0.4196,-3.132542 -0.27465,-0.602796 c -0.38701,-0.849382 -9.19057,-1.688619 -11.53668,-1.099782 l -0.72593,0.182195 -0.50367,1.138639 c -1.17941,2.666245 -2.76416,10.200155 -3.84697,18.288493 l -0.46047,3.439584 3.2e-4,5.953124 3.3e-4,5.953124 0.58226,3.430551 c 1.89064,11.1392904 7.01385,22.9126176 13.42162,30.843396 1.91228,2.366784 1.84662,2.415889 2.04796,-1.53176 z m 119.39926,2.38125 c 0.41499,-0.545703 0.8976,-1.170782 1.07246,-1.389063 9.854149,-12.30121541 15.168179,-32.111948 12.952339,-48.286456 -1.29182,-9.429636 -3.51149,-18.249037 -5.010909,-19.909894 l -0.53745,-0.595313 -3.06274,0.0072 c -1.6845,0.0039 -4.18198,0.115414 -5.54995,0.247714 l -2.48722,0.240544 -0.40674,0.406732 -0.40673,0.406731 0.57503,3.777326 c 1.49704,9.833889 1.94022,23.968489 0.9748,31.089999 -0.52457,3.869602 -1.80621,10.03779 -2.51629,12.1102405 -0.93671,2.7338868 -0.89521,2.4610246 -0.83342,5.4796631 l 0.0472,2.304663 1.67547,1.66725199 1.67548,1.66725201 0.17431,1.452043 c 0.0959,0.798623 0.17605,2.464074 0.17819,3.701001 0.0105,6.0777344 0.30182,7.1798054 1.4862,5.6223964 z m -112.30515,-1.57298 c 7.24175,-4.5137074 16.4630301,-7.7097644 27.4148201,-9.5018624 5.03179,-0.82337601 4.92506,-0.75607501 3.6605,-2.30823301 -1.34756,-1.65404799 -2.27263,-4.12086599 -2.58502,-6.89328759 -0.14945,-1.3264116 -0.31353,-2.553964 -0.36461,-2.727894 l -0.0929,-0.316236 -0.74147,0.226617 c -0.4078,0.12464 -1.99162,0.6041408 -3.51959004,1.0655577 C -11.107269,-5.5873915 -24.537649,0.82320959 -25.838339,3.5642206 l -0.42931,0.9047 v 4.391784 c 0,2.4154814 0.0481,4.3917844 0.10689,4.3917844 0.0588,0 1.57684,-0.9162 3.37344,-2.036 z m 107.33234,-2.5829174 -0.11439,-4.618918 -0.51425,-0.572694 c -3.572,-3.97798501 -24.16024,-13.3353011 -30.37838,-13.8069136 l -0.82753,-0.06276 -0.16959,2.6458331 c -0.21645,3.3770045 -1.44328,6.86450749 -2.80931,7.98604149 -0.66431,0.545418 -0.1477,0.791056 2.37528,1.12939301 11.88983,1.594452 25.04693,6.331339 31.29528,11.2670864 1.24558,0.983913 1.26393,0.920214 1.14289,-3.9670644 z m -38.64941,-9.43513101 c 1.45952,-0.70654099 2.87603,-2.38040299 3.43438,-4.05835199 l 0.44406,-1.3344736 0.0959,-8.561392 c 0.18055,-16.115309 -0.9599,-19.22927 -7.6141,-20.789955 l -1.71621,-0.402522 -6.08542,-0.164977 c -24.22674,-0.656788 -25.7997399,0.520538 -25.7937299,19.30548 l 0.003,9.8196161 0.38551,1.4486917 c 0.47931,1.8011488 1.5279199,3.3215198 3.0103899,4.3647518 l 1.13845,0.80113899 4.14583,0.166315 c 2.2802,0.09147 9.38407,0.117695 15.78637,0.05827 l 11.64054,-0.108041 z M 22.812571,-2.8934244 c -5.3171,-0.319371 -7.90371,-1.319078 -9.6499,-3.7296293 l -0.75627,-1.0439991 -0.32464,-1.9094993 -0.32464,-1.9094989 0.16983,-5.730999 c 0.41385,-13.964968 1.99358,-15.351482 17.50021,-15.359802 11.8619,-0.0064 14.33572,0.818732 16.03473,5.348094 l 0.54586,1.455208 0.22203,5.423957 c 0.12211,2.983177 0.18888,6.852708 0.14837,8.598958 l -0.0736,3.1750002 -0.39493,0.9260416 c -1.83013,4.2913088 -8.38028,5.6401258 -23.097,4.7561688 z m 17.31333,-3.2974046 c 4.44868,-1.5300536 4.50718,-1.6876759 4.22785,-11.390139 -0.23894,-8.299203 -0.36255,-8.981304 -1.92781,-10.63796 l -1.10927,-1.174038 -1.44684,-0.408481 -1.44684,-0.408481 -6.806,-0.125658 c -16.79759,-0.31013 -17.5534,0.319176 -17.71344,14.748493 l -0.066,5.9531249 0.31715,0.5719706 c 1.75701,3.168707 4.32233,3.7736141 15.66935,3.6948621 l 8.06979,-0.05601 z m 40.37162,-1.8245165 c -0.64597,-5.9673225 -2.92757,-8.3075565 -13.02654,-13.3613425 -4.0814,-2.042439 -14.53897,-5.554717 -14.9903,-5.034642 -0.10356,0.119337 0.3767,10.114511 0.4921,10.241498 0.0393,0.0433 1.42517,0.433086 3.07962,0.866201 11.01609,2.883882 21.93592,8.0101013 22.54494,10.5835226 0.0886,0.37429 0.61059,1.001632 1.16002,1.394094 l 0.99896,0.713566 0.0871,-0.701512 c 0.0479,-0.385832 -0.10775,-2.5014553 -0.3459,-4.7013851 z m -101.61498,4.3070931 c 0.51438,-0.451637 0.93524,-1.038281 0.93524,-1.303654 0,-1.9316592 13.3075001,-7.8631336 23.4807301,-10.4659286 l 1.91718,-0.490507 0.12332,-0.801563 c 0.21513,-1.398285 0.32237,-9.686756 0.1269,-9.807563 -0.26201,-0.161933 -8.98156,2.818039 -11.22833,3.837369 -6.5406501,2.9674 -12.4132401,6.553667 -14.9284901,9.116518 l -1.10493,1.125847 -0.36392,2.6225078 c -0.20016,1.4423794 -0.44778,3.6047735 -0.55027,4.8053208 l -0.18635,2.182812 h 0.42184 c 0.232,0 0.84269,-0.369522 1.35708,-0.821159 z m 8.49283,-3.4861087 c 1.9011,-0.800345 5.5920401,-2.1318653 8.2020801,-2.9589339 2.61005,-0.827069 5.84687,-1.862056 7.19294,-2.299973 l 2.44739,-0.796212 v -0.537378 -0.537378 l -0.7276,0.133107 c -4.55972004,0.83415 -19.7684901,6.6735141 -22.5618401,8.6625541 -1.19071,0.8478625 -0.67221,1.1384615 0.7477,0.4190525 0.68353,-0.346316 2.79823,-1.2844937 4.69933,-2.0848387 z m 89.80908,2.4732007 c 0,-1.5290264 -16.94926,-8.3972806 -23.21719,-9.4081726 l -1.12448,-0.181356 v 0.416581 c 0,0.546207 0.9673,0.930074 6.02143,2.389579 7.81867,2.2578325 14.69219,4.9036713 16.99732,6.5428176 0.7263,0.516462 1.32292,0.624947 1.32292,0.240551 z m -91.16462,-16.7145206 c 4.0748901,-2.338121 11.0852101,-5.189522 16.6094301,-6.755769 2.99516,-0.849199 3.38227,-1.038835 3.38227,-1.656902 0,-4.437456 6.8618899,-9.254104 13.2291699,-9.286113 2.28467,-0.01149 2.28048,-0.0064 2.45429,-2.993178 l 0.15105,-2.595761 -0.3802,-0.145896 c -0.50146,-0.192429 -6.53281,1.034274 -10.69181,2.174583 -12.2773599,3.366192 -21.96487,10.560296 -26.70701,19.833076 -1.78407,3.488551 -1.7215,3.534237 1.95281,1.42596 z m 88.63774,0.226193 c -0.0997,-0.327422 -0.76161,-1.732824 -1.47092,-3.123115 l -1.28964,-2.527803 -1.85607,-2.014319 c -7.1,-7.705342 -17.57578,-13.189008 -29.21683,-15.29388 -4.88141,-0.882631 -4.64072,-1.012717 -4.4179,2.387764 l 0.1647,2.513542 3.175,0.175847 3.175,0.175847 1.56635,0.55299 c 2.31995,0.819038 3.65487,1.693466 5.15536,3.376975 l 1.34474,1.508765 0.72927,2.065391 0.72928,2.065392 1.4552,0.405745 c 7.93646,2.212862 14.44873,4.783651 19.31459,7.624637 1.4589,0.851797 1.67373,0.867624 1.44187,0.106222 z m -40.16822,-30.686234 -0.16599,-12.474888 -0.33143,-0.219524 c -0.34652,-0.229513 -9.84724,-0.176356 -10.07884,0.05639 -0.18181,0.182699 -0.55223,24.457396 -0.38008,24.907008 l 0.13763,0.359435 5.49235,-0.07677 5.49235,-0.07677 z m -21.61833,6.171539 c 2.24474,-0.453213 5.08883,-0.938501 6.32019,-1.078418 1.23136,-0.139916 2.297,-0.312552 2.36808,-0.383635 0.23037,-0.230376 0.54167,-16.415311 0.32029,-16.652498 -0.28831,-0.308893 -6.13128,1.206773 -8.57665,2.224785 -2.59131,1.078766 -3.7121099,1.965559 -4.5009799,3.561234 l -0.65401,1.322916 -0.27338,3.704167 c -0.15036,2.037291 -0.27386,4.759843 -0.27445,6.050115 l -0.001,2.345948 0.59532,-0.135295 c 0.32742,-0.07441 2.4319199,-0.506106 4.6766699,-0.959319 z m 37.18297,0.537359 c 0.17584,-0.55402 -0.27311,-7.951047 -0.63968,-10.539468 -0.56868,-4.015593 -3.92709,-6.34507 -11.19341,-7.764028 -2.3858,-0.465896 -2.26755,-0.944493 -1.99719,8.083438 0.27563,9.203628 0.17101,8.598958 1.4878,8.598958 1.04766,0 7.37978,1.052671 10.23648,1.701745 0.87312,0.198384 1.66877,0.372898 1.76811,0.387809 0.0993,0.01491 0.25138,-0.195893 0.33789,-0.468454 z M 21.225071,-66.41571 c 3.21006,-0.36532 14.43115,-0.17345 17.4009,0.297539 l 2.05506,0.325924 1.05379,-0.73028 c 1.55233,-1.075768 1.3106,-1.445167 -1.81657,-2.775895 -7.15761,-3.045838 -14.554,-3.174706 -21.653,-0.377264 -3.37079,1.328296 -4.10203,2.213924 -2.65238,3.212378 l 0.8497,0.585241 1.05834,-0.118267 c 0.58208,-0.06505 2.24896,-0.253766 3.70416,-0.419376 z"
       id="path66" /></g></svg>
