<?xml version="1.0" encoding="UTF-8" standalone="no"?>
<!-- Created with Inkscape (http://www.inkscape.org/) -->

<svg
   width="221.68474mm"
   height="222.88556mm"
   viewBox="0 0 221.68474 222.88557"
   version="1.1"
   id="svg1"
   xml:space="preserve"
   xmlns="http://www.w3.org/2000/svg"
   xmlns:svg="http://www.w3.org/2000/svg"><defs
     id="defs1" /><g
     id="layer1"
     transform="translate(131.76635,65.222918)"><path
       style="fill:#000000"
       d="m 3.9207072,157.55713 c -6.06575,-0.63444 -9.33974,-3.82417 -12.03764,-11.72783 l -0.99347,-2.91042 -9.4471002,-0.0695 -9.4471,-0.0695 -0.33002,0.27389 c -0.18152,0.15065 -0.40149,0.6312 -0.48883,1.0679 -1.31735,6.58674 -5.54442,11.72526 -10.77178,13.0944 l -1.7009,0.4455 -3.04271,-0.14309 -3.04271,-0.1431 -1.84178,-0.57675 c -4.97952,-1.55933 -8.28792,-5.27049 -10.32637,-11.58347 -0.51947,-1.60879 -0.84649,-1.81968 -2.20535,-1.42225 -0.53478,0.1564 -1.45334,0.35319 -2.04125,0.43729 -0.58791,0.0841 -1.36182,0.20947 -1.71979,0.27857 -9.31653,1.79855 -24.76788,-1.67134 -25.80273,-5.79448 l -0.17061,-0.67979 0.4904,-0.83587 c 0.66671,-1.13638 1.28507,-1.29974 3.00395,-0.79361 l 1.4552,0.42849 2.52595,-0.0457 2.52594,-0.0457 1.44281,-0.66431 c 2.8029,-1.29053 4.27909,-3.27006 7.23668,-9.70415 0.75303,-1.63818 2.49314,-7.03532 2.68867,-8.3392 l 0.18863,-1.25791 -1.02829,0.17873 c -3.05007,0.53013 -5.78437,0.74384 -7.90747,0.61805 l -2.38125,-0.14109 -2.5218,-0.81041 -2.52181,-0.81041 -1.84382,-1.26531 -1.84382,-1.2653 -0.98099,-1.4528 c -0.53955,-0.79903 -1.10752,-2.04886 -1.26215,-2.77739 l -0.28115,-1.3246 0.25303,-1.32123 c 0.69589,-3.63373 3.57574,-7.198862 9.13663,-11.310782 2.4611,-1.819822 2.44711,-1.800147 1.73696,-2.442824 l -0.53868,-0.487492 -0.98912,0.840795 c -3.748,3.185971 -7.06929,4.992871 -10.83126,5.892591 l -2.32869,0.55694 -3.175,-0.13927 -3.174997,-0.13927 -1.71979,-0.53659 c -14.56544,-4.54463 -20.69391,-15.213826 -17.22784,-29.992439 2.42415,-10.336059 12.27744,-22.520712 20.54502,-25.406121 l 1.650247,-0.575941 0.31839,-1.422702 0.31839,-1.422703 -0.67086,-2.160461 c -0.36896,-1.188254 -0.73244,-2.458118 -0.807707,-2.82192 l -0.13687,-0.661459 -5.53969,-2.851297 c -5.63963,-2.902733 -5.94034,-3.09857 -6.18473,-4.027869 -0.0765,-0.291042 -0.73844,-2.553229 -1.47089,-5.027083 -1.71502,-5.792485 -3.88443,-13.8358773 -4.28924,-15.9029123 -0.46029,-2.350373 -0.21617,-2.222977 -5.32297,-2.777783 -2.52828,-0.2746743 -5.36675,-0.5891968 -6.30771,-0.6989391 l -1.71084,-0.1995315 -0.39719,-0.7097696 -0.39719,-0.7097696 0.4501,-0.94387623 0.4501,-0.9438761 h 0.73261 c 0.40294,0 3.10136,0.2976562 5.99649,0.6614583 2.89514,0.363802 5.42744,0.6614583 5.62735,0.6614583 0.39493,0 0.4246,-0.062687 1.69057,-3.57187477 0.47248,-1.3096875 1.37664,-3.4935822 2.00926,-4.8530994 0.63261,-1.3595172 1.1502,-2.561159 1.1502,-2.670315 0,-0.314591 -1.16369,-0.840107 -7.40833,-3.345555 -6.44242,-2.5848 -7.21664,-3.29515 -5.54595,-5.088431 0.74066,-0.795 0.47731,-0.870013 6.71109,1.911576 8.95505,3.995846 7.79462,3.853668 9.55578,1.17078 3.91994,-5.971491 8.84886,-11.619342 14.957637,-17.139356 1.52028,-1.373755 2.79453,-2.566232 2.83166,-2.649949 0.0371,-0.08372 -0.97489,-1.347523 -2.24895,-2.808456 -4.50628,-5.16723 -7.612467,-8.894528 -7.960527,-9.552291 l -0.35239,-0.665942 0.32253,-0.778653 c 0.70121,-1.692875 1.82756,-1.610261 3.329157,0.244182 1.38662,1.712444 7.08594,8.318431 8.55699,9.918262 l 1.20356,1.308926 3.30356,-2.366472 c 10.65006,-7.629072 19.31706,-12.61555 28.85509,-16.601521 1.95395,-0.816562 3.95919,-1.666001 4.45609,-1.887644 0.86327,-0.385055 2.04484,-0.786045 6.76946,-2.297348 4.46392,-1.427914 10.90093,-2.840037 15.34583,-3.366506 1.45521,-0.172359 2.70646,-0.350748 2.78056,-0.396419 0.0741,-0.04567 2.39582,-0.163839 5.15938,-0.262596 l 5.02464,-0.179558 5.29167,0.546998 c 2.9104202,0.30085 6.2441702,0.737564 7.4083302,0.970476 1.16417,0.232912 2.47386,0.480864 2.91042,0.551004 2.39768001,0.385223 9.95414,2.725935 14.1552098,4.384759 5.01277,1.979335 12.64312,6.102625 19.18229,10.365728 6.70759,4.372905 7.82767,5.165831 13.07369,9.255111 0.90916,0.708687 1.74678,1.184937 1.86139,1.058333 0.11461,-0.126603 0.8951,-1.539876 1.73442,-3.140605 4.9621,-9.463557 5.42207,-10.186457 6.48154,-10.186457 1.45804,0 1.95058,1.302489 1.10207,2.914334 -0.26699,0.507168 -1.41633,2.708061 -2.5541,4.890873 -1.13778,2.182813 -2.52668,4.783082 -3.08645,5.778376 -1.27752,2.271467 -1.43401,1.816232 1.50341,4.373493 5.60188,4.876882 11.16705,10.649107 14.50984,15.049693 1.49219,1.964368 1.20424,1.912231 2.92253,0.529166 0.76836,-0.618463 1.85453,-1.481666 2.4137,-1.918229 0.55916,-0.436562 1.45007,-1.150937 1.97979,-1.5875 0.52972,-0.436562 1.3608,-1.091406 1.84685,-1.455208 2.31095,-1.729719 6.30154,-4.78723 7.02867,-5.385235 0.44611,-0.366888 1.12585,-0.81047 1.51052,-0.985739 l 0.69941,-0.318672 0.66809,0.437754 c 2.01226,1.318479 1.00058,2.362691 -10.83287,11.181245 -1.16417,0.867563 -2.74175,2.042836 -3.50573,2.611718 -1.65001,1.228636 -1.63169,1.115825 -0.44867,2.762497 1.78492,2.484486 5.41568,9.1500976 6.24137,11.4583821 0.45548,1.27332237 0.8636,2.3151317 0.90693,2.3151317 0.31107,0 4.57457,-0.97142263 7.73405,-1.76217493 l 3.80339,-0.95190987 0.70412,0.52369117 c 1.21502,0.9036784 0.73435,2.71226483 -0.81128,3.05255443 -0.3307,0.072807 -2.32768,0.506615 -4.43773,0.9640183 -2.11005,0.4574038 -4.07458,0.8862628 -4.36562,0.9530198 -0.29104,0.06676 -0.94589,0.216764 -1.45521,0.333347 l -0.92604,0.21197 -0.95661,3.831415 c -0.52614,2.1072793 -1.81763,6.9849663 -2.86998,10.8393043 l -1.91337,7.007889 -0.74914,0.661458 c -0.41203,0.363802 -2.09711,1.363529 -3.74461,2.221616 -6.60012,3.437613 -8.13677,4.300892 -8.45505,4.749979 -0.66968,0.944906 -0.30576,7.017529 0.42378,7.071565 1.5808,0.117085 4.04779,0.866997 6.02746,1.832214 8.70275,4.243154 15.94154,15.153791 17.8009,26.830325 1.63624,10.27542 -6.81206,22.102807 -17.07276,23.901367 l -2.24895,0.394211 -2.91042,-0.15479 c -4.82099,-0.256397 -8.46209,-1.533664 -13.02288,-4.56831 l -2.18803,-1.455862 -0.48692,0.346653 c -2.23913,1.594125 -3.27689,2.860195 -2.34442,2.860195 1.18317,0 6.72793,3.743404 9.79758,6.614584 8.02772,7.508672 6.56541,14.081302 -3.91567,17.599682 l -1.99123,0.66843 -3.3575,0.25628 c -1.84663,0.14095 -4.2287,0.18432 -5.29349,0.0964 l -1.93598,-0.15989 v 0.30854 c 0,2.14531 2.70962,14.31941 3.88067,17.43556 1.5067,4.00928 1.54776,4.04386 4.16745,3.51028 l 1.90565,-0.38814 1.17468,0.57476 c 1.27484,0.62378 2.17742,1.79365 2.45031,3.17595 l 0.1731,0.87678 -0.53691,1.05243 c -1.37739,2.6999 -3.7437,4.00975 -7.79099,4.31263 -1.30969,0.098 -2.94424,0.36084 -3.63234,0.58406 l -1.25108,0.40586 -1.58117,1.72557 -1.58118,1.72557 -1.0042,0.22821 c -0.91259,0.20739 -4.66738,0.13049 -6.58249,-0.13482 -1.7012,-0.23567 -2.97203,-0.46586 -4.69296,-0.85006 -0.99252,-0.22158 -1.83643,-0.36165 -1.87535,-0.31127 -0.0389,0.0504 -0.4716,0.68422 -0.96151,1.40853 -1.26177,1.86552 -1.54872,2.17379 -2.99929,3.22212 -3.02078,2.18313 -6.9582998,3.13155 -11.1715898,2.69086 z m -43.0381102,-4.4902 1.65203,-0.51026 1.28196,-1.28196 c 1.36227,-1.36227 2.03764,-2.58998 3.26913,-5.94278 0.96845,-2.63662 1.74107,-2.37525 -7.67256,-2.59563 -7.58226,-0.17751 -12.6792,-0.5087 -15.31914,-0.99541 -1.45586,-0.26841 -1.45427,-0.27242 -0.73265,1.84925 2.92993,8.61434 9.24859,12.03194 17.52123,9.47679 z m 49.82318,-8e-5 1.94038,-0.62297 1.33927,-1.22443 c 1.8895,-1.72747 4.98525,-7.91778 4.30156,-8.60147 -0.0963,-0.0963 -1.00369,-0.0382 -2.0165,0.12908 -1.15399,0.19058 -5.50974,0.30411 -11.6672598,0.30411 h -9.82578 l 0.1825,0.8599 c 1.74353,8.21496 7.76699,11.71744 15.7458298,9.15578 z m 20.14952,-2.93808 c 0.23001,-0.1819 0.63007,-0.79102 0.88903,-1.35359 0.68446,-1.487 2.08797,-2.72371 4.29665,-3.78604 l 1.9429,-0.9345 2.75513,-0.36185 c 3.93606,-0.51695 5.40965,-1.37544 5.40965,-3.15157 v -0.69265 l -2.18281,0.17187 -2.18282,0.17187 -0.92604,-0.62726 c -2.31625,-1.56892 -4.89703,-9.04899 -6.55556,-19.00047 l -0.72709,-4.36264 -0.45971,-0.0885 -0.45972,-0.0885 10e-4,1.14388 c 0.004,4.2556 1.0323,13.82817 2.01211,18.73105 l 0.65941,3.29968 0.88214,1.66126 c 0.89648,1.68827 0.76362,2.14051 -0.32961,1.122 -1.81566,-1.69154 -2.95585,-7.46654 -3.88974,-19.70136 -0.24437,-3.20146 -0.53073,-5.99234 -0.63635,-6.20196 -0.20028,-0.39747 -2.338,-1.22748 -2.56829,-0.99718 -0.64112,0.64112 -0.5864,21.60703 0.065,24.92622 0.29892,1.52302 -0.34844,0.29291 -0.6962,-1.32291 l -0.34167,-1.5875 -0.15865,-11.15701 c -0.14063,-9.88996 -0.25486,-11.86208 -0.66278,-11.44282 -0.23199,0.23844 -0.64844,16.99992 -0.51056,20.5493 l 0.14647,3.77032 h -0.26867 c -0.30868,0 -0.63203,-2.01413 -0.57342,-3.57188 0.0719,-1.91072 -0.28101,-18.4833 -0.42886,-20.13991 l -0.1445,-1.61909 -0.63465,-0.28917 c -0.70809,-0.32262 -1.0103,-0.0879 -0.64014,0.49726 0.39358,0.62216 0.29242,2.98574 -0.15514,3.62472 l -0.4063,0.58008 0.58243,1.13243 0.58243,1.13243 0.12134,2.0313 c 0.0667,1.11721 0.0367,2.82142 -0.0667,3.78714 l -0.18804,1.75585 -0.73394,0.84307 -0.73395,0.84306 -0.18632,3.70417 c -0.16281,3.23659 -0.53123,6.28728 -1.0864,8.99583 -0.4807,2.34527 -0.98855,4.34453 -1.32873,5.23087 -0.53863,1.40343 -0.52824,1.42519 0.90906,1.90258 3.27186,1.08674 8.71171,1.5794 9.60848,0.87019 z m -102.03174,-6.30779 c 3.22869,-0.072 7.78744,-1.23406 9.44125,-2.40663 0.87656,-0.62149 0.93376,-1.00901 0.14894,-1.00901 h -0.57867 l 0.75781,-0.79099 c 1.07337,-1.12035 0.60736,-1.31668 -0.67645,-0.28499 -1.42862,1.14808 -1.49264,0.95405 -0.23108,-0.70035 1.28539,-1.68564 1.31361,-1.93287 0.11643,-1.01974 -1.05062,0.80135 -1.25447,0.55101 -0.2895,-0.35552 0.35009,-0.3289 0.69559,-0.82384 0.76777,-1.09987 l 0.13125,-0.50186 -0.54332,0.29077 -0.54331,0.29077 0.20643,-0.4938 c 0.11354,-0.27159 0.26558,-0.79145 0.33786,-1.15526 l 0.13143,-0.66145 -0.35066,0.33072 c -0.46125,0.43504 -0.91944,0.42791 -0.55711,-0.009 0.15492,-0.18667 0.41142,-0.68064 0.56999,-1.09772 l 0.28832,-0.75833 -0.40531,0.33638 -0.4053,0.33637 v -0.54595 c 0,-0.86475 -0.50337,-0.9461 -0.80489,-0.13008 -0.67734,1.83309 -1.80606,3.72809 -2.95534,4.96165 -1.421,1.52523 -1.6709,1.51697 -0.44056,-0.0146 1.57527,-1.96088 3.15329,-6.02525 3.12162,-8.04002 l -0.0146,-0.92604 -0.33397,1.06589 c -0.18368,0.58625 -0.79661,1.94633 -1.36207,3.0224 l -1.02811,1.9565 -1.99366,2.03675 c -1.09652,1.12021 -2.41039,2.2379 -2.91971,2.48375 l -0.92604,0.44701 1.32423,-1.27282 c 4.10689,-3.94745 5.56033,-7.11653 5.81655,-12.68242 0.0807,-1.75213 0.26315,-3.5919 0.40554,-4.08838 0.35731,-1.24588 0.32579,-1.56764 -0.1536,-1.56764 -0.22687,0 -0.33891,-0.11906 -0.24897,-0.26459 0.0899,-0.14552 0.0374,-0.26458 -0.11668,-0.26458 -0.15411,0 -0.2802,-0.1871 -0.2802,-0.41577 0,-0.22868 -0.16902,-0.5848 -0.37561,-0.79139 l -0.37561,-0.37561 -0.13267,0.32836 c -0.073,0.1806 -0.14206,-0.0656 -0.15355,-0.54714 -0.0308,-1.29041 -0.46883,-0.79044 -0.82906,0.94627 -1.97879,9.53986 -7.8069,19.17613 -13.04906,21.5755 -1.2947,0.5926 -1.09413,0.83894 0.36348,0.44645 1.57303,-0.42357 1.58537,-0.16396 0.027,0.56734 -1.61797,0.75926 -1.72651,1.1303 -0.25808,0.88221 l 1.09182,-0.18446 -0.18139,0.29349 c -0.0998,0.16143 -0.41952,0.2935 -0.71056,0.2935 -0.8531,0 -0.34356,0.42954 0.93381,0.78718 1.30329,0.3649 5.49256,1.02721 5.72961,0.90584 0.0824,-0.0422 1.21354,-0.10047 2.51354,-0.12946 z m 89.08517,-4.18065 1.5257,-0.36812 0.1228,-0.55792 c 0.20492,-0.93106 0.63592,-4.65236 0.82307,-7.10635 l 0.17655,-2.3151 -0.76399,0.008 c -1.07255,0.011 -12.2797298,1.23327 -12.3987098,1.35224 -0.0537,0.0537 -0.16646,0.6824 -0.2505,1.39704 -0.23118,1.96563 -0.41451,1.8648 -0.80367,-0.442 -0.15814,-0.9374 -0.90027,-1.44662 -0.964,-0.66146 -0.24024,2.96006 -0.35176,3.1242 -0.76623,1.12773 l -0.31014,-1.49392 -2.95412,0.17538 c -3.12542,0.18555 -17.0724102,-0.23373 -22.4850202,-0.67595 l -3.2128,-0.26249 -3.31253,0.82173 c -1.82188,0.45196 -4.97939,1.11539 -7.01669,1.47431 l -3.70416,0.65257 -5.46617,0.15251 -5.46616,0.1525 -2.92341,-0.32282 c -1.60787,-0.17756 -3.61294,-0.48407 -4.4557,-0.68114 -1.91463,-0.44772 -1.82557,-0.6247 -1.66621,3.31103 l 0.1339,3.30695 1.48509,0.18473 c 8.3019,1.03268 12.6038,1.13886 46.13991,1.13886 h 26.98749 z m -56.69132,-10.11406 c 17.5855,-1.80641 38.53691021,-12.35162 52.1915,-26.26888 4.21229,-4.293322 4.31932,-4.485872 2.55657,-4.599042 l -1.16995,-0.0751 -1.32291,1.16167 c -3.9382398,3.458222 -14.34669979,9.930932 -21.9604198,13.656522 -18.5805102,9.09194 -33.6768602,11.67182 -49.5918702,8.47498 -1.51834,-0.30499 -2.96903,-0.66606 -3.22375,-0.80238 -0.25472,-0.13632 -0.66547,-0.24786 -0.91277,-0.24786 h -0.44964 l 0.13005,2.70075 0.13005,2.70076 0.93789,0.81074 c 2.82212,2.43954 12.65633,3.51803 22.68525,2.48785 z m 52.25521,-0.60841 c 2.03729,-0.24469 3.88276,-0.51653 4.10104,-0.60409 0.21828,-0.0875 0.57531,-0.19455 0.79341,-0.23777 0.21809,-0.0432 0.62481,-0.35265 0.90381,-0.68764 l 0.50729,-0.60906 -0.16791,0.46302 -0.16791,0.46302 0.58701,-0.004 c 1.3272,-0.009 2.03027,-1.89027 2.03808,-5.45298 0.007,-3.31284 -0.31176,-4.00774 -1.45585,-3.17115 l -0.5028,0.36765 0.067,2.60891 c 0.0685,2.66792 -0.13008,4.68065 -0.44278,4.48738 -0.0962,-0.0595 -0.21009,-1.02281 -0.25298,-2.14072 -0.0429,-1.11792 0.0209,-1.97146 0.14174,-1.89677 0.12085,0.0747 0.21973,-0.0848 0.21973,-0.35452 0,-0.26968 -0.0935,-0.4325 -0.20789,-0.36184 -0.11434,0.0707 -0.20789,-0.41432 -0.20789,-1.07776 0,-1.39677 0.14877,-1.35653 -2.54334,-0.68802 -1.14777,0.28502 -5.36108,1.05892 -9.3629098,1.71979 -4.00182,0.66086 -7.93087999,1.31612 -8.73125,1.45613 -2.84824,0.49827 -3.56392,0.58192 -6.60314,0.77183 l -3.0758302,0.1922 -3.42874,1.61429 c -1.88581,0.88786 -4.11711,1.82723 -4.95845,2.08749 -2.1123,0.65343 -1.62941,0.78553 4.17554,1.14225 2.7649,0.16991 5.6224002,0.34852 6.3500002,0.39691 0.7276,0.0484 5.19245,0.0593 9.92187,0.0242 l 8.59896,-0.0638 z M 2.9098972,121.63059 c 11.3312898,-1.46205 18.6530598,-3.33069 19.2613398,-4.91583 0.24061,-0.62703 0.19419,-2.04725 -0.0811,-2.48225 l -0.23795,-0.37595 -0.64233,0.42087 c -2.0527,1.34498 -13.5209998,3.71972 -20.0442998,4.15057 l -3.04669,0.20122 -2.68968,1.69379 -2.68969,1.69379 2.82596,0.13229 c 1.55427,0.0728 2.89476,0.10816 2.97885,0.0787 0.0841,-0.0295 2.04863001,-0.29822 4.36563,-0.59717 z m -40.6341502,-0.43658 c 15.06918,-1.92013 32.2312502,-9.20417 46.0214402,-19.53273 1.9556898,-1.46478 3.6786498,-2.746062 3.8287898,-2.847282 0.48947,-0.33002 0.009,-0.4856 -3.1326298,-1.01448 -4.28807,-0.72186 -3.95503,-0.78442 -9.68474999,1.81906 C -20.340983,108.54699 -36.673483,112.75396 -54.393003,113.45118 c -8.32337,0.32751 -7.81429,0.13684 -7.77578,2.91233 l 0.0294,2.12138 0.37474,0.37474 c 0.2061,0.20611 1.9788,0.78359 3.93931,1.28329 3.09181,0.78806 5.04581,1.12283 9.25312,1.58531 1.57172,0.17277 7.64775,-0.12645 10.84792,-0.53422 z m 44.5449502,-4.86733 c 11.5879298,-1.78859 16.6061798,-3.88909 14.2586898,-5.96828 -0.40018,-0.35445 -1.17409,-1.04933 -1.71979,-1.54417 l -0.99219,-0.89972 v -0.68792 c 0,-0.89595 0.2596,-0.86772 1.20727,0.13129 1.63318,1.72166 6.24744,3.5729 11.8896,4.77011 l 2.91042,0.61756 4.89479,5e-4 4.89479,5e-4 1.94883,-0.45025 c 1.07185,-0.24764 2.94791,-0.93384 4.16902,-1.52489 l 2.22021,-1.07464 0.71975,-1.08762 c 2.18952,-3.30859 -1.60959,-8.01808 -11.54172,-14.307462 -2.7912,-1.767482 -2.6517,-1.741827 -4.2337,-0.77861 -3.45987,2.10656 -8.6109,3.77164 -14.12635,4.56636 l -2.32313,0.33474 -1.23784,1.734672 c -2.795,3.91685 -9.70001,10.35457 -15.6132898,14.55668 -3.55030999,2.52293 -3.48549999,2.56197 2.67464,1.61115 z m -77.3532902,-2.93516 c 4.93712,-1.00009 12.74653,-4.03982 15.65126,-6.09207 0.90837,-0.64178 1.54666,-0.63561 1.54666,0.015 0,0.55728 -0.70658,1.12054 -2.84427,2.26734 l -1.38906,0.74519 v 0.48712 0.48711 l 2.44739,-0.003 c 14.93643,-0.0198 37.96158,-5.68444 53.8427102,-13.246312 3.69969,-1.76162 3.73,-1.80181 1.85208001,-2.45582 C -5.9604828,93.320298 -13.430943,88.187355 -17.793503,82.975659 l -1.77772,-2.12374 -1.06312,1.268001 c -13.66967,16.303658 -36.89891,22.26856 -54.72468,14.052128 l -1.83325,-0.845 -0.57276,0.34708 c -2.2553,1.36668 -5.19477,3.71843 -7.46801,5.974842 l -2.67069,2.65092 -0.44255,1.29881 c -2.17611,6.38651 6.34785,10.11542 17.81369,7.79282 z m -24.05069,-17.838612 c 3.89702,-0.81976 8.29896,-2.606169 10.39154,-4.217126 l 0.49606,-0.381884 -1.85261,-2.063343 c -2.59007,-2.884702 -4.25124,-5.551226 -5.61211,-9.008654 -0.41204,-1.046813 -0.28536,-1.049899 -1.71553,0.04178 -4.27679,3.264543 -9.555647,1.281193 -11.133347,-4.182965 l -0.45086,-1.561497 0.11071,-2.274961 0.11071,-2.274961 0.72781,-1.5875 c 2.50704,-5.468374 9.430407,-5.493907 9.430407,-0.03478 0,1.610846 -0.56937,2.349185 -0.93156,1.20802 -0.86609,-2.728803 -4.27701,-3.498051 -5.476787,-1.235153 l -0.59395,1.120246 -0.005,2.778124 -0.005,2.778125 0.66146,1.322534 c 2.053297,4.105416 8.517077,2.860044 8.416587,-1.621619 l -0.0348,-1.552998 -0.61909,-0.747996 c -0.70949,-0.857229 -0.69569,-0.799981 -1.25543,-5.205129 -0.23114,-1.81901 -0.5924,-4.557447 -0.80281,-6.085416 -0.45,-3.267862 -1.18184,-11.246237 -1.27416,-13.890624 l -0.0647,-1.852084 -0.66145,0.06987 c -8.559027,0.904118 -20.867387,16.584608 -22.232047,28.322968 l -0.31052,2.670972 0.29787,2.238314 c 0.64327,4.833925 2.18658,7.963473 5.57293,11.300892 l 2.30297,2.269688 2.66686,1.369872 c 1.46677,0.753431 3.71749,1.658111 5.00159,2.010401 l 2.33472,0.64054 2.297807,0.0194 c 1.26379,0.0107 3.15869,-0.1617 4.21087,-0.38304 z m 158.75523,-5.844152 c 2.47195,-0.633286 6.00038,-2.244047 8.53558,-3.896573 l 2.24579,-1.463882 1.204,-1.534014 c 4.96035,-6.320003 4.96611,-12.778455 0.0205,-22.974573 -4.79117,-9.877721 -11.32942,-15.91348 -18.10797,-16.716298 l -1.22317,-0.144867 -0.30889,0.372195 c -0.16989,0.204708 -0.55349,2.272064 -0.85244,4.594125 -0.93527,7.264612 -2.26789,13.579882 -3.33588,15.808655 l -0.6076,1.267977 0.68865,1.327344 c 0.39052,0.752711 0.73925,1.937465 0.80552,2.736664 l 0.11688,1.409321 -0.55942,0.559421 -0.55943,0.559421 10e-4,1.389062 10e-4,1.389063 1.22541,0.99163 c 1.44243,1.167247 2.91063,1.623813 4.67622,1.454163 l 1.27729,-0.122733 1.10256,-0.774905 1.10256,-0.774906 0.78264,-1.530347 0.78265,-1.530347 0.11143,-2.330658 c 0.26301,-5.501068 -3.53904,-7.564319 -5.55228,-3.013048 -0.51821,1.171502 -0.92279,1.397416 -1.48885,0.83136 -0.9146,-0.914605 0.23083,-3.343772 2.20181,-4.669456 l 1.31715,-0.885913 1.39492,0.114417 1.39491,0.114417 0.78714,0.754121 c 0.43292,0.414767 1.03142,1.407036 1.32999,2.205043 l 0.54286,1.450921 -0.0722,3.109491 c -0.0397,1.71022 -0.1646,3.052394 -0.27751,2.98261 -0.11292,-0.06979 -0.2053,-7.92e-4 -0.2053,0.153317 0,0.154109 0.11906,0.280198 0.26458,0.280198 0.14552,0 0.26459,0.126089 0.26459,0.280198 0,0.154109 -0.11084,0.211698 -0.2463,0.127976 -0.13547,-0.08372 -0.32109,-0.03122 -0.41249,0.116677 -0.0914,0.147894 -0.0401,0.268899 0.11401,0.268899 0.1541,0 0.28019,0.119062 0.28019,0.264583 0,0.145521 -0.20906,0.264584 -0.46458,0.264584 -0.25551,0 -0.60978,0.327421 -0.78725,0.727604 -0.17748,0.400182 -0.91187,1.381578 -1.63198,2.18088 -1.43326,1.590891 -1.45333,1.636228 -0.62867,1.420575 l 0.56545,-0.147868 -0.15895,-0.414208 -0.15894,-0.414207 0.31794,0.1965 c 0.33443,0.206688 3.27387,-2.605028 3.00473,-2.874168 -0.0803,-0.08027 -0.0141,-0.145942 0.14713,-0.145942 0.42767,0 0.73713,0.61204 0.37114,0.734038 -0.17129,0.0571 -0.31143,0.231403 -0.31143,0.387351 0,0.155948 0.2329,0.07277 0.51756,-0.184844 l 0.51756,-0.468387 -0.38527,-0.385269 c -0.2119,-0.211898 -0.38527,-0.571416 -0.38527,-0.798927 v -0.413658 l 0.55492,0.705466 0.55492,0.705465 -1.12666,1.460357 c -1.04438,1.353711 -1.84779,2.038882 -2.49672,2.129267 -0.14552,0.02027 -0.50271,0.05241 -0.79375,0.07142 l -0.52917,0.03457 0.35587,0.225539 0.35587,0.225539 -0.74237,0.186324 -0.74237,0.186323 -0.27673,-0.378448 -0.27673,-0.378449 -1.18885,0.361542 c -2.01805,0.613709 -3.67663,0.144304 -6.23797,-1.76545 l -1.34495,-1.002805 -0.60633,1.893495 c -0.73105,2.282948 -1.61994,4.110386 -2.8183,5.794007 l -0.89304,1.254678 1.12253,0.715799 c 5.5768,3.556114 10.77228,4.658469 15.83854,3.360554 z m -118.72404,-3.288575 c 11.36702,-1.698332 21.82763,-5.770785 28.06011,-10.924171 0.73449,-0.607317 1.48891,-1.223276 1.67649,-1.368796 0.37908,-0.294076 4.17719,-4.785305 4.84992,-5.734974 l 0.42847,-0.604868 0.46959,0.389721 0.46958,0.389721 -0.18309,-0.659383 -0.18309,-0.659384 0.29154,0.465117 c 0.16035,0.255814 0.21539,0.588325 0.12232,0.738913 -0.20851,0.337374 1.33676,2.298502 3.27297,4.153783 1.44003,1.379845 1.89469,1.645934 1.89469,1.108864 0,-0.154109 0.13178,-0.198758 0.29283,-0.09922 l 0.29283,0.180979 -0.35131,0.217125 c -0.42734,0.264112 -0.60053,0.10619 2.26597,2.066259 2.3501802,1.607021 2.9980602,1.924162 2.6322502,1.288491 -0.11058,-0.192152 -0.0894,-0.238344 0.0505,-0.110243 0.13247,0.121268 0.20402,0.283661 0.15899,0.360875 -0.21607,0.370482 6.44743,3.416713 9.73916,4.452281 17.6363198,5.548325 42.1504198,2.907583 46.3773498,-4.995925 l 0.58619,-1.09605 -0.0315,-2.38125 c -0.0265,-1.996802 -0.44126,-4.630208 -0.72934,-4.630208 -0.0435,0 -0.55732,0.454989 -1.1419,1.011086 -0.58458,0.556097 -1.64576,1.294617 -2.35817,1.641156 l -1.2953,0.630069 -2.51354,0.01249 -2.51354,0.01249 -1.54213,-0.505772 C 33.479827,70.766778 28.072487,67.894344 24.344377,65.292651 6.7422472,53.008848 -1.0776528,52.29226 -17.798683,61.430811 l -1.63798,0.895201 -2.59536,-1.492948 c -3.73463,-2.148297 -8.63235,-4.194395 -11.87293,-4.960096 l -2.80789,-0.663462 h -2.59341 -2.59341 l -2.60865,0.67659 c -4.33182,1.123517 -9.17752,3.476479 -14.38261,6.98387 -7.3198,4.932366 -15.25886,8.834507 -20.21961,9.938168 l -2.04778,0.455587 -1.36398,-0.180938 c -1.70978,-0.22681 -3.63464,-1.259821 -4.84607,-2.600735 -1.11231,-1.231188 -1.09973,-1.23896 -1.45374,0.898148 -1.86255,11.243997 13.76703,18.103309 34.27001,15.039985 z m -25.28514,-15.876148 c 3.86446,-0.627083 16.09002,-6.544067 20.14861,-9.751618 0.79318,-0.626865 0.83319,-0.593684 -1.38894,-1.151954 -14.51517,-3.646668 -14.46558,-24.547523 0.07,-29.490291 l 1.98438,-0.67478 2.51354,-0.0056 c 4.26248,-0.0094 6.78626,1.030529 9.79928,4.037889 l 1.99406,1.990323 0.85501,1.790214 c 0.47025,0.984617 1.04349,2.591961 1.27387,3.571875 l 0.41886,1.781661 -0.12612,2.513541 -0.12612,2.513542 -0.58254,1.525095 c -0.3204,0.838802 -0.99324,2.135398 -1.49521,2.881324 -1.07357,1.595311 -1.05753,1.641519 0.45536,1.3125 6.62966,-1.441791 14.68509,0.596798 23.81387,6.026575 l 0.95844,0.570081 3.01031,-1.57024 c 9.2783902,-4.839808 21.3126802,-6.901409 25.4304302,-4.356502 0.31102,0.192224 0.21456,0.02673 -1.18773,-2.037779 -0.54593,-0.803741 -1.2507,-2.171062 -1.56614,-3.038492 l -0.57357,-1.577099 -0.11923,-2.758351 c -0.14689,-3.398344 0.18015,-5.019148 1.60564,-7.957273 l 1.09112,-2.248958 1.6002898,-1.607052 c 8.94111,-8.978865 23.33446,-4.063981 25.95367,8.862378 l 0.44979,2.219816 -0.17603,1.74472 c -0.64977,6.44013 -4.19426,11.006962 -10.13119,13.053335 l -2.19618,0.756991 -1.95718,0.05261 c -2.37442,0.06383 -2.44003,-0.05389 1.36833,2.45514 7.5446,4.970546 10.43815,6.505819 14.21825,7.54398 l 2.11667,0.581319 1.60965,-0.271704 c 0.88531,-0.149437 2.04475,-0.553667 2.57654,-0.898288 l 0.9669,-0.626584 0.40654,-1.386085 c 1.6375,-5.582964 1.00566,-22.137846 -1.41069,-36.962091 l -0.47173,-2.89401 -2.23548,-1.40765 c -2.29843,-1.447287 -8.29275,-4.518939 -10.17298,-5.21291 -0.58209,-0.21484 -1.77271,-0.692894 -2.64584,-1.062342 -2.11908,-0.896656 -2.41092,-0.870874 -2.77937,0.245533 -2.85261,8.643492 -18.9760298,7.47272 -25.84060979,-1.876368 -0.69392001,-0.945079 -1.50346001,-1.778565 -1.79897001,-1.85219 -2.06113,-0.513523 -29.2345302,-0.497034 -34.2001002,0.02075 l -1.91281,0.199459 -0.7145,1.223118 c -5.81346,9.95179 -22.17954,11.843282 -26.60809,3.075201 -0.294,-0.582084 -0.57135,-1.099857 -0.61634,-1.150608 -0.1061,-0.119682 -5.1133,1.407572 -6.99691,2.13414 -3.93055,1.516134 -13.7549,7.102101 -13.75955,7.823461 -6.7e-4,0.103862 -0.23942,1.796183 -0.53055,3.760714 -1.75672,11.854249 -2.3303,25.100817 -1.34439,31.048289 l 0.21263,1.282664 0.66251,0.569419 c 0.36438,0.31318 0.96986,1.114546 1.34549,1.780812 1.37968,2.447127 3.59507,3.391109 6.75505,2.878342 z m 56.87747,-17.462751 c -0.97457,-0.113627 -2.13543,-0.421306 -2.57968,-0.683731 l -0.80773,-0.477137 V 51.20723 50.494046 l 0.78962,-0.664424 c 0.43429,-0.365433 1.47609,-0.922827 2.31511,-1.238653 l 1.52548,-0.57423 2.64583,0.09898 2.64583,0.09898 1.38459,0.75889 c 4.95281,2.714619 0.39779,5.077353 -7.91905,4.107683 z m 73.4346,6.018283 c 1.43057,-3.423841 2.41517,-10.803885 2.22432,-16.672332 l -0.12209,-3.754184 -0.57776,-1.78191 -0.57776,-1.781909 -1.64011,-2.054549 c -2.63527,-3.301166 -2.88832,-3.330154 -2.20876,-0.253019 0.23111,1.04645 0.53567,2.676543 0.67681,3.622429 0.14114,0.945885 0.37593,2.434166 0.52176,3.307291 0.65876,3.944168 1.20129,12.276649 1.10684,16.999478 -0.0687,3.435824 0.0139,3.763683 0.59675,2.368705 z m -142.44716,-3.360892 c -0.1794,-3.181324 0.0829,-12.778298 0.38693,-14.155208 0.0643,-0.291041 0.19408,-1.600729 0.2885,-2.910416 0.2713,-3.7633 0.31995,-4.200883 0.52945,-4.7625 0.10857,-0.291042 -0.1162,-0.119082 -0.49949,0.382132 -0.3833,0.501215 -0.6969,1.014257 -0.6969,1.140094 0,0.125838 -0.10166,0.165971 -0.2259,0.08919 -0.25602,-0.158228 -0.66835,0.649942 -1.39258,2.729489 l -0.49819,1.430483 0.002,3.464308 c 0.002,4.094 0.2473,7.07693 0.5653,6.880396 0.12512,-0.07733 0.21036,0.610696 0.18941,1.528947 -0.0304,1.33095 1.27842,8.113317 1.50784,7.813908 0.0248,-0.03242 -0.0455,-1.666287 -0.15625,-3.630818 z m 29.5555,0.09274 c 3.17112,-1.504797 2.48948,-6.304408 -1.02995,-7.252091 l -1.08847,-0.293096 -1.18019,0.330432 -1.18019,0.330432 -0.77741,1.212978 -0.77742,1.212978 0.16169,1.058333 c 0.4508,2.950768 3.31894,4.611511 5.87194,3.400034 z m 78.3085,-1.583628 c 2.22745,-1.056991 2.52347,-4.478574 0.55252,-6.386132 -2.92756,-2.833388 -6.8080398,-1.480278 -6.8080398,2.373939 v 1.163823 l 0.7220998,1.11365 c 1.25129,1.929775 3.58236,2.660561 5.53342,1.73472 z m -66.08816,-9.23024 c 2.51619,-1.369485 3.64518,-4.095554 2.93058,-7.07624 l -0.33203,-1.384925 -1.6116,-1.599172 -1.6116,-1.599173 -1.41944,-0.451348 c -3.81747,-1.213859 -7.54961,0.107003 -9.19094,3.252818 l -0.48316,0.926042 -0.009,1.852083 -0.009,1.852083 0.65453,1.281441 c 0.72085,1.41126 1.97756,2.533497 3.74625,3.34536 l 1.15547,0.530384 2.40602,-0.09216 2.40602,-0.09216 z m 74.48408,-1.653511 1.28998,-0.453781 1.09127,-1.220285 c 2.89877,-3.241478 1.8696,-7.526058 -2.33153,-9.70647 l -1.3397,-0.695316 -1.98438,0.01421 -1.98437,0.01422 -1.19266,0.532481 c -8.1663698,3.645992 -2.07689,14.514968 6.45139,11.514942 z m -119.4432,-10.490753 c 3.98829,-5.012145 12.60371,-11.301896 18.34686,-13.39425 0.90527,-0.32981 1.73287,-0.674038 1.83912,-0.764951 0.21983,-0.188101 0.01,-1.043545 -1.28743,-5.242592 l -0.91952,-2.976563 h -0.58561 c -2.66674,0 -10.21434,5.840971 -14.56513,11.271742 -3.20557,4.001266 -4.2005,6.339969 -4.56707,10.735481 l -0.17262,2.069859 h 0.27984 c 0.15392,0 0.88812,-0.764427 1.63156,-1.698726 z M 55.412507,31.264716 C 54.381947,25.216688 44.998587,13.914369 37.088017,9.1927517 l -0.99085,-0.591411 -0.28914,0.748355 c -0.39297,1.0170713 -2.09695,7.7844933 -2.08602,8.2846983 0.005,0.246662 1.2467,1.006488 3.22317,1.972946 1.76793,0.864485 4.8189,2.642238 6.77993,3.950564 l 3.56551,2.378773 3.35706,3.252518 c 1.84639,1.788885 3.70281,3.753444 4.12538,4.365686 l 0.76831,1.113167 0.0934,-0.775624 c 0.0514,-0.426594 -0.0487,-1.609062 -0.22222,-2.627708 z M -100.15961,28.155862 c 0.009,-2.650736 0.268817,-3.557929 1.815057,-6.330711 l 1.34379,-2.409741 -1.40685,-1.880555 c -4.136037,-5.528733 -8.437277,-11.4020583 -9.805907,-13.3899293 -0.85161,-1.2369274 -1.83939,-2.5628568 -2.19506,-2.9465102 l -0.64667,-0.69755153 0.58382,-1.1545317 c 2.50146,-4.94667737 11.270167,-18.47845327 11.981387,-18.48955327 0.16967,-0.0026 0.80679,-0.342619 1.41582,-0.75549 0.60903,-0.412871 2.52182,-1.484084 4.25063,-2.380473 l 3.1433,-1.629797 2.01394,-2.311067 c 6.4429,-7.393456 10.85354,-10.315561 20.70904,-13.72001 l 2.83175,-0.978193 -0.16059,-1.214764 -0.16058,-1.214765 1.12426,-0.697745 c 1.63255,-1.013199 2.42093,-1.379055 5.22673,-2.425499 l 2.51498,-0.937977 4.09961,-0.681303 c 2.25478,-0.374716 4.3675,-0.743132 4.69492,-0.818701 l 0.59531,-0.137398 v -0.602219 -0.602218 l 2.3151,-0.980256 c 4.50887,-1.909134 9.14589,-3.061179 14.12501,-3.509291 2.37195,-0.21347 3.51322,0.06467 6.68976,1.630375 2.87348,1.416321 2.50248,1.417438 5.86207,-0.01765 1.52052,-0.64951 3.48493,-1.329713 4.36536,-1.511562 l 1.60078,-0.330636 3.2246102,0.466046 c 6.04533,0.87372 12.44134,2.624297 14.22269,3.892725 l 0.70522,0.502161 -0.12781,0.668596 c -0.0703,0.367728 -0.0246,0.670777 0.10147,0.673443 4.7778998,0.101008 12.9298698,2.735178 15.5302398,5.018335 l 1.00849,0.885463 -0.16451,1.212865 -0.1645,1.212864 2.19623,0.752279 c 2.45593,0.841229 5.6916,2.596553 7.88479,4.277432 2.54938,1.953873 6.02522,4.106202 8.54034,5.288397 3.70338,1.740726 5.73029,3.40871 13.58668,11.180778 5.33064,5.273426 6.60753,6.771772 9.88687,11.6016299 0.80074,1.1793471 2.20004,3.1940469 3.10954,4.4771106 2.05098,2.89337247 2.05756,2.75987067 -0.27562,5.5902856 -1.06109,1.2872306 -2.40055,2.9514526 -2.97656,3.6982726 -0.57601,0.74682 -1.95012,2.473226 -3.05358,3.8364583 -6.68429,8.257919 -6.63815,8.167758 -5.289,10.334678 1.35717,2.179815 2.06397,4.376536 2.19702,6.828301 0.12485,2.300848 -0.0314,2.269231 2.88658,0.584041 1.23895,-0.715519 3.11178,-1.752409 4.16184,-2.3042 2.41475,-1.268916 1.97769,-0.223597 5.18468,-12.400232 1.15458,-4.3838123 2.25787,-9.9023866 2.25787,-11.2936666 V 0.69571867 L 71.850887,-2.2760319 C 62.748487,-19.7294 46.354177,-35.41551 23.262197,-48.765799 c -26.4283598,-15.279167 -53.38097,-16.467619 -81.22708,-3.581636 -29.39937,13.604763 -49.817597,32.720755 -56.380017,52.78420407 l -0.44943,1.37403653 0.33624,1.8814761 c 0.18493,1.034812 1.04133,4.447254 1.90311,7.5832053 0.86178,3.135951 1.72623,6.297042 1.92099,7.024646 1.02379,3.824818 2.13831,7.193932 2.50908,7.584816 0.38862,0.409704 7.31909,4.136072 7.76056,4.172685 0.10914,0.0091 0.20127,-0.846746 0.20474,-1.901772 z M 56.192407,25.016085 C 55.667077,23.456687 54.821717,22.042117 51.546377,17.2418 46.389207,9.6834707 34.552687,1.1018886 23.526777,-3.0726527 17.682497,-5.2853712 5.4294372,-8.2904907 2.2515972,-8.2904907 h -0.75655 l -0.1774,1.4198498 c -0.0976,0.7809173 -0.34799999,2.0608392 -0.55650999,2.8442707 -0.20851,0.7834315 -0.38053,1.9247166 -0.38226,2.5361892 l -0.003,1.11176837 1.23475999,0.8495336 1.23475,0.84953363 1.21264,-0.34134883 c 5.89118,-1.6583189 11.6990498,-0.1219969 16.7336298,4.42644693 l 0.98959,0.894029 0.96784,-1.937324 c 1.84159,-3.68628673 2.40316,-4.11597803 4.05954,-3.1061836 2.55462,1.5574021 2.67476,3.2703306 0.12713,1.8127282 -1.74087,-0.9960284 -1.62217,-1.0741167 -2.99877,1.9727614 l -1.1328,2.50729 0.55763,0.783119 c 0.89363,1.25499 2.10886,4.0009743 2.41315,5.4528483 l 0.28087,1.340112 3.05269,1.150907 c 1.67898,0.632998 3.09945,1.104153 3.15659,1.04701 0.0571,-0.05714 0.59822,-2.003801 1.20239,-4.325907 0.89326,-3.4331903 1.7302,-5.8399753 2.23178,-6.4179343 0.0707,-0.08143 1.24958,0.749269 4.99383,3.5188413 5.79472,4.286275 13.98908,13.840136 15.58159,18.166693 l 0.32513,0.883306 0.0794,-1.225834 c 0.0484,-0.747664 -0.14143,-1.88128 -0.48667,-2.90613 z m -151.75104,-1.271403 c 0.79816,-1.247606 5.13543,-6.324748 5.78127,-6.767465 0.21229,-0.145521 1.56335,-1.25807 3.00236,-2.47233 2.74175,-2.313546 8.38138,-5.8620453 9.31654,-5.8620453 0.82171,0 1.26802,0.845307 2.4416,4.6243653 0.58849,1.894984 1.20206,3.783151 1.3635,4.195926 l 0.29352,0.750499 0.55373,-0.125905 c 4.73344,-1.076277 6.77144,-2.127957 6.77144,-3.494308 0,-1.479568 0.77973,-3.504028 2.12326,-5.5127823 0.72398,-1.082434 1.31632,-2.085138 1.31632,-2.22823 0,-0.479569 -1.7785,-4.1691239 -2.16382,-4.4889108 l -0.38072,-0.3159664 -1.82141,0.9164063 c -2.89271,1.4554079 -3.64491,0.8794649 -1.07762,-0.8251159 3.31209,-2.19910883 3.75759,-2.10660233 5.33128,1.1070208 1.41636,2.89235 1.18596,2.786787 3.02983,1.388204 3.26016,-2.4728434 7.45335,-3.97295003 11.17536,-3.99796733 l 2.17898,-0.014646 1.70506,0.72841043 1.70506,0.7284104 0.28033,-0.3833706 c 0.15418,-0.2108538 0.52969,-0.462516 0.83447,-0.5592493 1.25458,-0.39818783 1.41559,-1.77460403 0.50216,-4.2929073 -0.3638,-1.0029975 -0.66146,-2.3826679 -0.66146,-3.065934 0,-1.6130879 0.20159,-1.5779531 -4.23333,-0.7378387 -19.02783,3.6044762 -34.33828,11.1298174 -44.46273,21.8541767 -3.40145,3.602996 -7.41181,10.447138 -7.38959,12.6112 l 0.006,0.585387 0.86503,-1.5875 c 0.47577,-0.873125 1.20188,-2.114015 1.61357,-2.757534 z m 0.26303,-6.389761 0.68403,-0.81292 -0.307,-0.576142 c -0.16886,-0.316878 -0.80549,-1.350049 -1.41473,-2.295934 -5.906047,-9.1694143 -7.386447,-11.4759942 -8.991897,-14.01009173 -2.19414,-3.46328127 -1.93464,-3.37637427 -3.13191,-1.04888617 l -0.96418,1.87435477 1.24448,1.76366593 c 2.42945,3.4430029 9.041927,12.3577462 11.169937,15.0589702 0.83008,1.053682 0.86342,1.054598 1.71127,0.04698 z m 152.43184,-2.76432 c 1.30563,-1.676441 4.04075,-5.1605423 6.07804,-7.7424483 4.58639,-5.8124264 5.15938,-6.57595653 5.15938,-6.87504363 0,-0.2203857 -1.89225,-3.07128817 -2.39119,-3.60261767 -0.12147,-0.1293592 -0.77736,0.6389272 -1.46819,1.7197915 -0.68675,1.07448047 -2.82076,4.3943821 -4.74226,7.3775588 -6.75372,10.4853423 -6.68267,10.3487753 -5.93243,11.4023853 0.75077,1.054362 0.64096,1.1303 3.29665,-2.279626 z m -111.58423,2.098717 c 7.23699,-1.491106 11.99983,-3.934729 13.29725,-6.8222863 l 0.46044,-1.024769 -0.20728,-0.722755 c -0.89286,-3.113223 -4.09123,-5.297499 -7.75696,-5.297499 h -2.21604 l -1.56277,0.5284612 c -4.40766,1.4904758 -8.54405,4.9886248 -10.31765,8.7256491 l -0.68765,1.448901 0.14439,0.889811 c 0.19372,1.193751 0.55857,1.576157 1.85504,1.944313 0.6012,0.170722 1.2062,0.409395 1.34445,0.530384 0.41023,0.359026 3.45682,0.251008 5.64678,-0.20021 z m 75.50621,-0.381626 c 0.53405,-0.148334 1.23302,-0.481857 1.55325,-0.741163 l 0.58223,-0.471465 -0.0153,-1.109311 C 23.122227,9.9160907 16.021967,3.5009562 10.496637,2.5276879 l -1.6289098,-0.2869272 -1.85231,0.3124315 -1.8523,0.3124316 -1.20257,0.7965469 c -6.64081,4.398691 -1.3646,9.9303723 12.1578998,12.7465823 1.06348,0.221481 3.99438,0.161519 4.93977,-0.101061 z M -91.205293,12.59444 c 1.36309,-1.316217 3.11926,-2.8665973 3.9026,-3.4452893 1.71388,-1.266116 1.70553,-1.15405 0.2724,-3.65531 -1.28076,-2.2353161 -3.53821,-6.5575553 -8.37399,-16.0332897 -1.78234,-3.4925 -3.27955,-6.393964 -3.32712,-6.447698 -0.0476,-0.05373 -0.41958,0.471292 -0.82666,1.166724 -0.40708,0.695432 -1.384687,2.227677 -2.172457,3.404989 -0.78777,1.177313 -2.17816,3.3726359 -3.08976,4.8784961 l -1.65745,2.7379276 0.50214,0.8940208 c 0.76414,1.3604898 2.47644,4.10411997 5.68444,9.1082482 0.326517,0.509323 1.393207,2.176198 2.370427,3.704166 2.60787,4.0776343 3.95534,6.0723483 4.1048,6.0764803 0.0728,0.002 1.24755,-1.073248 2.61063,-2.389465 z m 144.62999,0.460279 c 0.43656,-0.68445 1.88754,-2.93939 3.22439,-5.0109783 1.33685,-2.071588 3.07709,-4.7785549 3.86719,-6.0154819 0.79011,-1.23692713 2.10844,-3.296534 2.92962,-4.5769043 l 1.49305,-2.3279459 -0.30752,-0.5824706 c -0.89711,-1.6992297 -4.36946,-6.352291 -6.16759,-8.264783 l -1.23498,-1.31352 -0.15414,0.396875 c -0.37117,0.955688 -4.45749,8.7277797 -6.81637,12.9645823 -1.41785,2.54661437 -2.99714,5.4041144 -3.50954,6.3499994 -0.51241,0.945886 -1.05158,1.870244 -1.19817,2.054131 l -0.26652,0.334339 2.35373,2.443786 c 1.29454,1.3440823 2.8164,3.0133703 3.3819,3.7095303 1.20826,1.487417 1.35992,1.477254 2.40495,-0.161159 z m -85.67928,-0.690866 c 1.72111,-0.11447 9.11658,-0.194854 16.43438,-0.178632 l 13.3050902,0.0295 -0.0759,-0.529167 -0.0759,-0.529166 -1.7198,-0.240293 c -0.94588,-0.132161 -6.7799402,-0.251224 -12.9645802,-0.264584 l -11.24479,-0.02429 -3.83646,0.468588 c -4.98125,0.608414 -5.02708,0.620079 -5.02708,1.279501 v 0.547382 l 1.03791,-0.175354 c 0.57085,-0.09644 2.44608,-0.26901 4.16718,-0.383481 z m 0.21887,-2.9311193 c 2.47385,-0.28846 4.73604,-0.527833 5.02708,-0.531941 0.32493,-0.0046 -0.0607,-0.327497 -0.99916,-0.836633 -6.45978,-3.504619 -9.73583,-12.1147202 -6.77645,-17.8098587 6.887,-13.253609 23.15906,-13.284477 29.2155202,-0.05542 2.58909,5.6553108 -1.09957,15.1662089 -6.9482102,17.9153949 -1.51607,0.712639 -1.53152,0.705753 1.71403,0.764094 1.5643502,0.02812 4.0944302,0.150775 5.6223902,0.272567 3.15174,0.251219 3.17291,0.246412 3.18081,-0.722147 0.007,-0.876923 0.72067,-2.406493 1.93626001,-4.150828 l 0.9214,-1.3221716 -1.26753,-1.3402267 C -1.9431228,-0.00594033 -2.1352228,-0.74540503 -1.6449528,-3.1399092 c 0.20758,-1.0138094 0.45532,-2.617196 0.55054,-3.5630814 l 0.17312001,-1.7197916 -0.53550001,-1.7197918 c -1.63698,-5.257284 -10.8639602,-13.24234 -17.1309202,-14.825155 l -1.36866,-0.345676 -1.80634,0.468391 c -8.87552,2.301465 -16.91641,10.205809 -17.67883,17.378616 l -0.17958,1.6894488 0.55156,2.1003516 c 0.7884,3.00225617 0.48305,4.8604368 -1.09383,6.6564021 l -0.82892,0.9440882 0.29339,0.181325 c 0.57604,0.356012 2.13903,3.260119 2.44819,4.548854 l 0.31467,1.311687 0.70122,-0.0043 c 0.38566,-0.0024 2.72527,-0.240289 5.19913,-0.528749 z m 14.80283,-1.194279 c 2.00115,-0.521236 4.60954,-1.915478 6.6875,-3.574626 l 1.6465802,-1.3147151 1.11941,-2.3126913 1.11941,-2.3126913 0.10979,-3.0793844 0.10979,-3.0793844 -0.42804,-1.2876222 c -1.36644,-4.110552 -7.0963502,-8.962205 -11.4365102,-9.683582 l -1.61508,-0.26844 -2.08909,0.425141 c -5.35888,1.090559 -11.23698,6.733433 -12.24556,11.7555262 l -0.29925,1.4900857 0.30506,1.5978649 c 1.52859,8.0063319 9.64902,13.5633712 17.01599,11.6445189 z m -5.54242,-4.712656 c -2.81061,-0.9348738 -4.96547,-2.74311093 -6.27813,-5.2682425 l -0.72188,-1.3886722 -0.006,-1.8142564 -0.006,-1.8142565 0.79692,-1.6698101 0.79693,-1.66981 1.38588,-1.252728 c 0.76224,-0.689 2.04073,-1.561951 2.8411,-1.939891 l 1.45521,-0.687164 2.64583,0.0023 2.64583,0.0023 1.18251,0.627985 c 2.68559,1.426213 4.16641,3.142525 4.90519,5.6852494 l 0.45191,1.5553522 -0.1127,1.6196476 c -0.22287,3.2030293 -2.07401,5.6789438 -5.39212,7.2120044 l -1.9074,0.8812745 -1.81265,0.135363 c -1.15341,0.08613 -2.19756,0.0073 -2.87099,-0.216663 z m 6.78042,-2.60892043 c 1.82619,-0.8360576 2.72971,-1.97561437 3.28502,-4.14317827 l 0.42341,-1.6527652 -0.28941,-1.3495097 c -1.40833,-6.5667951 -10.76889,-8.0279381 -14.48936,-2.2617256 l -0.72642,1.1258514 -0.005,1.9898456 -0.005,1.9898456 0.67254,1.3174459 0.67255,1.31744587 1.27748,0.8611606 c 1.83911,1.23976333 3.37907,1.66120163 5.71704,1.56458223 l 1.98961,-0.082223 z m -67.89554,5.60342843 c 0.53564,-0.866684 7.15424,-5.0825893 11.06939,-7.05096373 l 2.34177,-1.17734277 -0.13497,-0.4469747 c -0.0742,-0.2458362 -0.57,-1.459006 -1.10171,-2.695933 -1.04956,-2.4416036 -3.51521,-8.4396235 -7.55487,-18.3782015 -3.08492,-7.589709 -2.38524,-7.260342 -6.36278,-2.995224 l -3.2771,3.514052 -1.42132,0.722437 c -2.53022,1.286074 -6.98715,4.030435 -7.12379,4.386489 -0.14909,0.388488 1.23256,3.13585 9.00682,17.90982217 3.41594,6.49153653 3.94236,7.20887853 4.55856,6.21183953 z M 47.281287,1.3507505 c 1.44311,-2.6105474 3.16768,-5.6989497 3.83237,-6.8631164 0.66469,-1.1641666 2.1524,-3.9350992 3.30602,-6.1576281 l 2.09749,-4.040961 -3.25175,-3.301226 c -3.93414,-3.994001 -3.52083,-3.9798 -5.5988,-0.192371 -0.93812,1.709869 -1.97601,3.585103 -2.30642,4.167187 -4.78504,8.4298559 -8.73348,16.2718738 -8.19286,16.2718738 0.33832,0 2.63185,1.583126 5.14486,3.5512799 2.32857,1.8237 1.89724,2.121869 4.96909,-3.4350382 z m -11.04157,-1.74450313 c 0.16145,-0.5086817 4.27136,-8.44533677 5.59637,-10.80715437 0.28573,-0.509323 1.57371,-2.831042 2.86216,-5.159375 1.28845,-2.328333 2.74333,-4.828645 3.23306,-5.556249 l 0.89041,-1.322917 -1.6461,-1.529503 c -2.07931,-1.932025 -4.67781,-3.6777 -5.32273,-3.575806 l -0.49512,0.07823 -1.80523,4.7625 c -0.99288,2.619375 -3.12961,8.052873 -4.74831,12.07444 -1.61869,4.0215683 -2.94307,7.4971195 -2.94307,7.7234477 0,0.2263282 -0.11906,0.4850905 -0.26458,0.5750273 -0.36695,0.2267859 -0.33274,0.9260416 0.0453,0.9260416 0.17044,0 0.49786,0.1673845 0.7276,0.3719655 0.4644,0.4135426 3.22523,1.98802657 3.50873,2.00101207 0.0993,0.00455 0.26201,-0.2481953 0.3615,-0.5616558 z M -65.240923,-3.7074355 c 3.10658,-1.1545422 3.07617,-1.1258045 2.67081,-2.5240424 -0.40723,-1.4047113 -3.1145,-9.9674691 -4.66632,-14.7590121 -1.15748,-3.573952 -3.89281,-13.130782 -4.22185,-14.75052 -0.28006,-1.378627 -7.26221,1.99655 -9.36055,4.524898 l -0.3153,0.379906 0.40304,0.887962 c 0.56876,1.2531 5.28145,12.735593 8.12872,19.80567 1.3186,3.2742186 2.62215,6.3963704 2.89678,6.9381151 l 0.49933,0.9849903 0.7259,-0.2769115 c 0.39924,-0.1523012 1.85699,-0.6972762 3.23944,-1.2110554 z m 99.8586,-10.4711975 c 2.46197,-6.147614 4.76091,-11.752867 5.10876,-12.456117 0.89381,-1.807008 0.74981,-2.199999 -1.2507,-3.413296 -0.94588,-0.573674 -2.91041,-1.895799 -4.36562,-2.938056 -4.45617,-3.191619 -3.92612,-3.317291 -5.1724,1.226338 -0.52699,1.921278 -1.88432,6.588858 -3.01629,10.372399 -4.84195,16.183941 -4.56085,14.4353756 -2.47402,15.3895353 0.90224,0.4125259 2.59888,1.238077 3.77032,1.8345579 1.17144,0.5964809 2.30848,1.1019731 2.52676,1.1233161 l 0.39688,0.038805 z m -94.10927,8.4060663 c 1.36122,-0.5355852 5.06152,-1.5756348 7.54598,-2.1209625 2.4309,-0.5335698 2.38292,-0.2627553 0.71327,-4.0264678 -0.73548,-1.657931 -2.03308,-4.644927 -2.88355,-6.637769 -0.85046,-1.992842 -2.82148,-6.54038 -4.38004,-10.10564 -1.55856,-3.56526 -3.18928,-7.315729 -3.62383,-8.334375 -0.43454,-1.018645 -0.94422,-2.01326 -1.13261,-2.210254 l -0.34254,-0.35817 -2.07978,0.735418 c -1.14387,0.40448 -2.71791,1.016417 -3.49786,1.359859 l -1.41809,0.624442 0.12745,0.585811 c 0.21539,0.990033 3.62353,12.590035 4.56419,15.534769 4.035,12.6315345 4.94829,15.3458318 5.16346,15.3458318 0.13553,0 0.69531,-0.1766216 1.24395,-0.3924925 z m 79.97567,-1.5854725 c 0,-0.069235 0.53475,-1.8482914 1.18833,-3.9534588 0.65358,-2.105168 1.655,-5.412036 2.22538,-7.348597 0.57038,-1.936561 1.952,-6.438051 3.07027,-10.003311 1.11827,-3.56526 2.09378,-6.742441 2.1678,-7.060401 l 0.13458,-0.578109 -1.8135,-0.910923 c -0.99742,-0.501008 -2.50588,-1.128259 -3.35214,-1.393892 l -1.53865,-0.482968 -0.22601,0.36569 c -0.22012,0.356156 -2.02254,6.701865 -3.72183,13.103311 -1.13346,4.269853 -3.30835,11.952339 -4.11135,14.522727 -0.35864,1.1480204 -0.6094,2.1299883 -0.55724,2.1821504 0.2683,0.2683024 6.53436,1.7621209 6.53436,1.5577814 z m -65.21979,-1.8657753 2.64583,-0.421699 0.33073,-0.4313915 c 0.1819,-0.237266 0.33073,-0.583094 0.33073,-0.768508 0,-0.185415 0.35738,-0.900651 0.79418,-1.589414 0.93777,-1.478709 0.80335,-1.716252 -0.79418,-1.403481 -0.65484,0.128208 -1.55298,0.23829 -1.99586,0.244628 l -0.80524,0.01152 -0.27942,-0.992187 c -0.15368,-0.545704 -1.07331,-3.552031 -2.04362,-6.680729 -3.8929,-12.552375 -3.50398,-11.280582 -5.01653,-16.404166 -0.49403,-1.673489 -1.23535,-4.263099 -1.64737,-5.754687 l -0.74913,-2.711979 h -0.42866 c -1.20616,0 -7.51249,2.52445 -8.31762,3.329577 l -0.38016,0.380165 0.48559,1.121691 c 0.26708,0.616931 1.58556,3.622004 2.92997,6.677941 1.34441,3.055938 2.94531,6.746875 3.55757,8.202083 2.23543,5.313157 6.82824,15.900705 7.30685,16.8440914 l 0.49165,0.9690922 0.46943,-0.1004255 c 0.25818,-0.055234 1.66005,-0.29019 3.11526,-0.5221246 z m 58.48593,-3.4323015 c 0.53304,-1.89177 1.31174,-4.630207 1.73043,-6.085416 0.4187,-1.455208 1.47069,-5.265208 2.33777,-8.466666 0.86707,-3.201458 2.17517,-7.904426 2.90687,-10.451041 l 1.33038,-4.630208 -0.45507,-0.448892 c -1.02645,-1.012518 -6.99155,-3.520654 -7.93113,-3.334787 l -0.40194,0.07951 -0.86485,3.84338 c -1.353,6.012635 -6.7445198,27.625772 -6.9908298,28.024317 l -0.22119,0.357885 -2.24775,-0.700813 c -3.73153999,-1.163434 -4.00861,-0.959354 -2.40687999,1.772849 0.52471999,0.895058 1.04357999,1.805973 1.15303999,2.024254 l 0.199,0.396875 2.74957,0.3167973 c 1.51226,0.1742382 3.88066,0.4797373 5.2631,0.6788868 3.0518098,0.43963 2.6829098,0.7632442 3.8494798,-3.3769341 z m -54.06356,-2.782324 c 2.45969,-0.353892 2.46451,-0.372864 1.2701,-5.003505 -0.87699,-3.400012 -2.79514,-11.399095 -4.4776,-18.672502 -0.6059,-2.619375 -1.30756,-5.595937 -1.55924,-6.614583 l -0.45761,-1.852083 -1.05422,0.08011 c -1.12707,0.08565 -5.94129,1.014597 -6.10464,1.17795 -0.0864,0.08635 1.31259,4.975878 4.5227,15.807563 0.53909,1.81901 1.87287,6.08533 2.96395,9.48071 l 1.98379,6.173419 0.70041,-0.179773 c 0.38522,-0.09887 1.38078,-0.277663 2.21236,-0.397306 z m 45.4092702,-1.781737 c 0.56872,-2.140466 5.3337698,-21.438625 6.4840198,-26.259895 0.78788,-3.302384 0.93021,-3.091966 -2.4479198,-3.618946 -3.25048,-0.507066 -2.96064,-0.782204 -3.81225,3.618946 -0.38013,1.964531 -1.71333,8.617724 -2.96267,14.784872 -2.60612999,12.864732 -2.55662999,11.907335 -0.64493,12.474841 0.80711,0.239598 1.69979,0.570403 1.98374,0.735122 0.80189,0.46517 0.82209,0.440143 1.40001,-1.73494 z m -4.86386999,-7.077604 c 0.83410999,-4.220104 1.98730999,-9.935104 2.56267999,-12.7 0.57536,-2.764895 1.27702,-6.262378 1.55923,-7.772183 0.28221,-1.509805 0.62257,-3.141534 0.75635,-3.626064 l 0.24325,-0.880963 -0.34317,-0.284807 c -1.46145,-1.212893 -13.9958,-4.323301 -15.3413502,-3.806965 l -0.34617,0.132841 -0.0365,4.150321 c -0.0201,2.282676 -0.15086,6.650633 -0.29062,9.706571 -0.13976,3.055937 -0.32796,7.639843 -0.41822,10.186457 l -0.16412,4.630208 1.9462702,1.301549 c 1.07045,0.715851 3.31549,2.684188 4.98898,4.374083 l 3.04271,3.072534 0.16207,-0.405333 c 0.0891,-0.222933 0.84451001,-3.858145 1.67862001,-8.078249 z m -35.82859021,5.266217 c 1.79183,-1.847282 4.66573,-4.128433 6.80196,-5.399026 1.05503,-0.627511 1.91721,-1.211526 1.91597,-1.29781 -0.001,-0.08629 -0.11606,-1.466569 -0.25514,-3.067298 -0.53523,-6.159981 -1.06688,-14.355409 -1.2373,-19.072917 l -0.17769,-4.918965 -0.38231,-0.38231 c -0.21027,-0.21027 -0.57812,-0.326602 -0.81745,-0.258513 -0.23933,0.06809 -1.00991,0.195786 -1.71241,0.283774 -4.92589,0.616968 -13.14252,3.156449 -13.14252,4.061905 0,0.783953 5.98623,25.919061 7.30488,30.671922 0.22645,0.816171 0.35298,0.770022 1.70201,-0.620762 z m 22.84627,-9.03653 c 0.0942,-1.418828 0.29067,-5.794374 0.43654,-9.723437 0.14587,-3.929062 0.37005,-8.989218 0.49819,-11.244791 0.30505,-5.370113 0.61559,-5.179056 -4.73518,-2.913327 -3.85074,1.630552 -3.89728,1.630571 -7.20236,0.0029 -1.47745,-0.727604 -2.97671,-1.322917 -3.33169,-1.322917 h -0.64541 l 0.1581,1.124479 c 0.16762,1.192189 0.74931,9.171518 1.2296,16.867187 0.28156,4.511254 0.69745,8.992427 0.8486,9.143584 0.0413,0.04129 1.0703,-0.213191 2.2867,-0.565508 3.34736,-0.969533 5.85685,-0.744087 8.66786,0.778694 0.41791,0.226395 0.95287,0.416393 1.18878,0.42222 l 0.42894,0.01059 z"
       id="path66" /></g></svg>
